<svg viewBox="0 0 755 500" fill="none" xmlns="http://www.w3.org/2000/svg">
<g id="01232071">
<g id="Group 110">
<g id="Group 111">
<path id="Polygon 21 (Stroke)" fill-rule="evenodd" clip-rule="evenodd" d="M109.996 0L67.1908 57.9231H152.802L109.996 0ZM109.996 3.89839L71.784 55.6062H148.209L109.996 3.89839Z" fill="white"/>
<path id="1" d="M112.275 88.0431H109.329V68.5144L103.421 70.6843V68.0234L111.816 64.8716H112.275V88.0431Z" fill="white"/>
<g id="= 0">
<path d="M209.022 25.723H195.813V23.173H209.022V25.723ZM209.022 32.2959H195.813V29.7618H209.022V32.2959Z" fill="white"/>
<path d="M235.631 28.7798C235.631 32.2115 235.045 34.7614 233.873 36.4297C232.701 38.0981 230.869 38.9322 228.377 38.9322C225.917 38.9322 224.095 38.1192 222.913 36.4931C221.73 34.8565 221.118 32.4174 221.075 29.1758V25.2637C221.075 21.8743 221.661 19.356 222.833 17.7088C224.005 16.0616 225.843 15.238 228.345 15.238C230.826 15.238 232.653 16.0352 233.825 17.6296C234.997 19.2135 235.599 21.6631 235.631 24.9786V28.7798ZM232.701 24.7727C232.701 22.2914 232.352 20.4858 231.655 19.356C230.958 18.2156 229.855 17.6455 228.345 17.6455C226.846 17.6455 225.753 18.2104 225.067 19.3402C224.38 20.47 224.026 22.2069 224.005 24.551V29.2391C224.005 31.731 224.364 33.5736 225.082 34.7667C225.811 35.9493 226.909 36.5406 228.377 36.5406C229.823 36.5406 230.895 35.981 231.592 34.8617C232.299 33.7425 232.669 31.9792 232.701 29.5717V24.7727Z" fill="white"/>
</g>
</g>
<g id="Group 112">
<path id="Polygon 22 (Stroke)" fill-rule="evenodd" clip-rule="evenodd" d="M119.264 111.212L76.4585 169.135H162.07L119.264 111.212ZM119.264 115.111L81.0517 166.819H157.477L119.264 115.111Z" fill="white"/>
<path id="Polygon 23 (Stroke)" fill-rule="evenodd" clip-rule="evenodd" d="M76.0149 169.908L33.2092 227.831H118.821L76.0149 169.908ZM76.0149 173.806L37.8024 225.514H114.227L76.0149 173.806Z" fill="white"/>
<path id="Polygon 24 (Stroke)" fill-rule="evenodd" clip-rule="evenodd" d="M159.424 169.908L116.619 227.831H202.23L159.424 169.908ZM159.424 173.806L121.212 225.514H197.637L159.424 173.806Z" fill="white"/>
<g id="= 3">
<path d="M217.518 167.055H204.308V164.505H217.518V167.055ZM217.518 173.628H204.308V171.094H217.518V173.628Z" fill="white"/>
<path d="M233.926 166.992H236.128C237.511 166.971 238.598 166.607 239.39 165.899C240.182 165.192 240.578 164.236 240.578 163.032C240.578 160.329 239.232 158.978 236.54 158.978C235.272 158.978 234.259 159.342 233.499 160.071C232.749 160.789 232.374 161.744 232.374 162.937H229.444C229.444 161.111 230.109 159.595 231.44 158.392C232.781 157.177 234.481 156.57 236.54 156.57C238.715 156.57 240.42 157.146 241.655 158.297C242.891 159.448 243.508 161.047 243.508 163.096C243.508 164.099 243.181 165.07 242.526 166.01C241.882 166.95 241.001 167.652 239.881 168.116C241.148 168.518 242.125 169.183 242.811 170.112C243.508 171.041 243.857 172.176 243.857 173.517C243.857 175.587 243.181 177.229 241.83 178.443C240.478 179.657 238.72 180.264 236.555 180.264C234.391 180.264 232.627 179.678 231.265 178.506C229.914 177.334 229.238 175.788 229.238 173.866H232.184C232.184 175.08 232.58 176.051 233.372 176.78C234.164 177.509 235.225 177.873 236.555 177.873C237.97 177.873 239.053 177.503 239.802 176.764C240.552 176.025 240.927 174.964 240.927 173.581C240.927 172.24 240.515 171.21 239.691 170.492C238.868 169.774 237.68 169.405 236.128 169.384H233.926V166.992Z" fill="white"/>
</g>
<g id="1 2">
<path d="M79.0656 266.446H76.1197V246.918L70.212 249.087V246.427L78.6063 243.275H79.0656V266.446Z" fill="white"/>
<path d="M167.127 266.446H152.017V264.34L160 255.47C161.182 254.129 161.995 253.042 162.439 252.208C162.893 251.363 163.12 250.492 163.12 249.594C163.12 248.391 162.755 247.403 162.027 246.632C161.298 245.862 160.327 245.476 159.113 245.476C157.655 245.476 156.52 245.893 155.707 246.728C154.905 247.551 154.504 248.702 154.504 250.18H151.574C151.574 248.058 152.255 246.342 153.617 245.033C154.989 243.723 156.821 243.069 159.113 243.069C161.256 243.069 162.951 243.634 164.197 244.764C165.443 245.883 166.066 247.377 166.066 249.246C166.066 251.516 164.619 254.219 161.726 257.355L155.549 264.055H167.127V266.446Z" fill="white"/>
</g>
</g>
<g id="Group 113">
<path id="Polygon 22 (Stroke)_2" fill-rule="evenodd" clip-rule="evenodd" d="M125.443 291.16L82.637 349.083H168.248L125.443 291.16ZM125.443 295.059L87.2301 346.766H163.655L125.443 295.059Z" fill="white"/>
<path id="Polygon 23 (Stroke)_2" fill-rule="evenodd" clip-rule="evenodd" d="M83.738 345.222L40.9323 403.145H126.544L83.738 345.222ZM83.738 349.12L45.5255 400.828H121.95L83.738 349.12Z" fill="white"/>
<path id="Polygon 24 (Stroke)_2" fill-rule="evenodd" clip-rule="evenodd" d="M167.92 345.222L125.114 403.145H210.725L167.92 345.222ZM167.92 349.12L129.707 400.828H206.132L167.92 349.12Z" fill="white"/>
<path id="Polygon 25 (Stroke)" fill-rule="evenodd" clip-rule="evenodd" d="M42.8056 403.917L0 461.84H85.6113L42.8056 403.917ZM42.8056 407.815L4.59317 459.523H81.0181L42.8056 407.815Z" fill="white"/>
<path id="Polygon 26 (Stroke)" fill-rule="evenodd" clip-rule="evenodd" d="M125.443 403.917L82.637 461.84H168.248L125.443 403.917ZM125.443 407.815L87.2301 459.523H163.655L125.443 407.815Z" fill="white"/>
<path id="Polygon 27 (Stroke)" fill-rule="evenodd" clip-rule="evenodd" d="M208.852 403.917L166.046 461.84H251.658L208.852 403.917ZM208.852 407.815L170.639 459.523H247.064L208.852 407.815Z" fill="white"/>
<g id="1 2 3">
<path d="M45.8564 499.683H42.9104V480.155L37.0027 482.324V479.664L45.3971 476.512H45.8564V499.683Z" fill="white"/>
<path d="M133.918 499.683H118.808V497.577L126.79 488.707C127.973 487.366 128.786 486.279 129.229 485.445C129.683 484.6 129.91 483.729 129.91 482.831C129.91 481.628 129.546 480.64 128.818 479.87C128.089 479.099 127.118 478.713 125.903 478.713C124.446 478.713 123.311 479.13 122.498 479.965C121.696 480.788 121.294 481.939 121.294 483.417H118.364C118.364 481.295 119.045 479.579 120.407 478.27C121.78 476.961 123.612 476.306 125.903 476.306C128.047 476.306 129.742 476.871 130.988 478.001C132.233 479.12 132.856 480.614 132.856 482.483C132.856 484.753 131.41 487.456 128.517 490.592L122.34 497.292H133.918V499.683Z" fill="white"/>
<path d="M205.649 486.728H207.851C209.234 486.706 210.322 486.342 211.114 485.635C211.906 484.927 212.302 483.972 212.302 482.768C212.302 480.065 210.955 478.713 208.263 478.713C206.996 478.713 205.982 479.078 205.222 479.806C204.472 480.524 204.097 481.48 204.097 482.673H201.167C201.167 480.846 201.832 479.331 203.163 478.127C204.504 476.913 206.204 476.306 208.263 476.306C210.438 476.306 212.143 476.881 213.379 478.032C214.614 479.183 215.232 480.783 215.232 482.831C215.232 483.834 214.904 484.806 214.25 485.746C213.606 486.685 212.724 487.387 211.605 487.852C212.872 488.253 213.848 488.919 214.535 489.848C215.232 490.777 215.58 491.912 215.58 493.253C215.58 495.322 214.904 496.964 213.553 498.179C212.201 499.393 210.443 500 208.279 500C206.114 500 204.351 499.414 202.989 498.242C201.637 497.07 200.961 495.523 200.961 493.601H203.907C203.907 494.816 204.303 495.787 205.095 496.516C205.887 497.244 206.948 497.608 208.279 497.608C209.694 497.608 210.776 497.239 211.525 496.5C212.275 495.761 212.65 494.7 212.65 493.316C212.65 491.975 212.238 490.946 211.415 490.228C210.591 489.51 209.403 489.14 207.851 489.119H205.649V486.728Z" fill="white"/>
</g>
<g id="= 9">
<path d="M262.311 381.757H249.102V379.207H262.311V381.757ZM262.311 388.33H249.102V385.796H262.311V388.33Z" fill="white"/>
<path d="M285.689 384.513C285.076 385.241 284.343 385.827 283.487 386.271C282.643 386.714 281.713 386.936 280.7 386.936C279.369 386.936 278.208 386.609 277.215 385.954C276.233 385.299 275.473 384.381 274.935 383.198C274.396 382.005 274.127 380.691 274.127 379.254C274.127 377.713 274.417 376.324 274.998 375.089C275.589 373.854 276.423 372.909 277.5 372.254C278.577 371.599 279.834 371.272 281.27 371.272C283.551 371.272 285.346 372.127 286.655 373.838C287.975 375.538 288.635 377.861 288.635 380.807V381.662C288.635 386.149 287.748 389.428 285.974 391.498C284.2 393.557 281.523 394.612 277.944 394.665H277.374V392.194H277.991C280.409 392.152 282.268 391.524 283.567 390.31C284.865 389.085 285.573 387.153 285.689 384.513ZM281.175 384.513C282.157 384.513 283.06 384.212 283.883 383.61C284.717 383.008 285.325 382.264 285.705 381.377V380.205C285.705 378.283 285.288 376.72 284.453 375.517C283.619 374.313 282.563 373.711 281.286 373.711C279.998 373.711 278.963 374.207 278.181 375.2C277.4 376.182 277.009 377.481 277.009 379.096C277.009 380.669 277.384 381.968 278.134 382.992C278.894 384.006 279.908 384.513 281.175 384.513Z" fill="white"/>
</g>
</g>
<g id="Group 114">
<path id="Polygon 22 (Stroke)_3" fill-rule="evenodd" clip-rule="evenodd" d="M490.92 7L448.114 64.9231H533.725L490.92 7ZM490.92 10.8984L452.707 62.6062H529.132L490.92 10.8984Z" fill="white"/>
<path id="Polygon 23 (Stroke)_3" fill-rule="evenodd" clip-rule="evenodd" d="M449.215 61.0615L406.409 118.985H492.02L449.215 61.0615ZM449.215 64.9599L411.002 116.668H487.427L449.215 64.9599Z" fill="white"/>
<path id="Polygon 24 (Stroke)_3" fill-rule="evenodd" clip-rule="evenodd" d="M533.396 61.0615L490.591 118.985H576.202L533.396 61.0615ZM533.396 64.9599L495.184 116.668H571.609L533.396 64.9599Z" fill="white"/>
<path id="Polygon 25 (Stroke)_2" fill-rule="evenodd" clip-rule="evenodd" d="M408.283 119.757L365.477 177.68H451.088L408.283 119.757ZM408.283 123.655L370.07 175.363H446.495L408.283 123.655Z" fill="white"/>
<path id="Polygon 28 (Stroke)" fill-rule="evenodd" clip-rule="evenodd" d="M365.806 176.908L323 234.831H408.611L365.806 176.908ZM365.806 180.806L327.593 232.514H404.018L365.806 180.806Z" fill="white"/>
<path id="Polygon 29 (Stroke)" fill-rule="evenodd" clip-rule="evenodd" d="M449.215 176.908L406.409 234.831H492.02L449.215 176.908ZM449.215 180.806L411.002 232.514H487.427L449.215 180.806Z" fill="white"/>
<path id="Polygon 30 (Stroke)" fill-rule="evenodd" clip-rule="evenodd" d="M533.396 176.908L490.591 234.831H576.202L533.396 176.908ZM533.396 180.806L495.184 232.514H571.609L533.396 180.806Z" fill="white"/>
<path id="Polygon 31 (Stroke)" fill-rule="evenodd" clip-rule="evenodd" d="M616.033 176.135L573.228 234.059H658.839L616.033 176.135ZM616.033 180.034L577.821 231.742H654.246L616.033 180.034Z" fill="white"/>
<path id="Polygon 26 (Stroke)_2" fill-rule="evenodd" clip-rule="evenodd" d="M490.92 119.757L448.114 177.68H533.725L490.92 119.757ZM490.92 123.655L452.707 175.363H529.132L490.92 123.655Z" fill="white"/>
<path id="Polygon 27 (Stroke)_2" fill-rule="evenodd" clip-rule="evenodd" d="M574.329 119.757L531.523 177.68H617.134L574.329 119.757ZM574.329 123.655L536.116 175.363H612.541L574.329 123.655Z" fill="white"/>
<g id="1 2 3 4">
<path d="M370.401 273.446H367.455V253.918L361.547 256.087V253.427L369.942 250.275H370.401V273.446Z" fill="white"/>
<path d="M458.462 273.446H443.352V271.34L451.335 262.47C452.518 261.129 453.331 260.042 453.774 259.208C454.228 258.363 454.455 257.492 454.455 256.594C454.455 255.391 454.091 254.403 453.362 253.632C452.634 252.862 451.662 252.476 450.448 252.476C448.991 252.476 447.856 252.893 447.043 253.728C446.24 254.551 445.839 255.702 445.839 257.18H442.909C442.909 255.058 443.59 253.342 444.952 252.033C446.325 250.723 448.157 250.069 450.448 250.069C452.591 250.069 454.286 250.634 455.532 251.764C456.778 252.883 457.401 254.377 457.401 256.246C457.401 258.516 455.954 261.219 453.061 264.355L446.884 271.055H458.462V273.446Z" fill="white"/>
<path d="M530.194 260.49H532.396C533.779 260.469 534.866 260.105 535.658 259.398C536.45 258.69 536.846 257.735 536.846 256.531C536.846 253.828 535.5 252.476 532.807 252.476C531.54 252.476 530.527 252.841 529.766 253.569C529.017 254.287 528.642 255.243 528.642 256.436H525.712C525.712 254.609 526.377 253.094 527.707 251.89C529.048 250.676 530.748 250.069 532.807 250.069C534.983 250.069 536.688 250.644 537.923 251.795C539.159 252.946 539.776 254.546 539.776 256.594C539.776 257.597 539.449 258.569 538.794 259.509C538.15 260.448 537.269 261.15 536.149 261.615C537.416 262.016 538.393 262.681 539.079 263.611C539.776 264.54 540.125 265.675 540.125 267.016C540.125 269.085 539.449 270.727 538.097 271.942C536.746 273.156 534.988 273.763 532.823 273.763C530.659 273.763 528.895 273.177 527.533 272.005C526.182 270.833 525.506 269.286 525.506 267.364H528.452C528.452 268.579 528.848 269.55 529.64 270.279C530.432 271.007 531.493 271.371 532.823 271.371C534.238 271.371 535.32 271.002 536.07 270.263C536.82 269.524 537.195 268.462 537.195 267.079C537.195 265.738 536.783 264.709 535.959 263.991C535.136 263.273 533.948 262.903 532.396 262.882H530.194V260.49Z" fill="white"/>
<path d="M620.884 265.701H624.084V268.093H620.884V273.446H617.939V268.093H607.438V266.367L617.764 250.386H620.884V265.701ZM610.764 265.701H617.939V254.393L617.59 255.026L610.764 265.701Z" fill="white"/>
</g>
<g id="= 18">
<path d="M627.789 97.5968H614.579V95.0468H627.789V97.5968ZM627.789 104.17H614.579V101.636H627.789V104.17Z" fill="white"/>
<path d="M649.566 110.489H646.62V90.9605L640.713 93.1304V90.4695L649.107 87.3177H649.566V110.489Z" fill="white"/>
<path d="M672.136 93.4472C672.136 94.5981 671.83 95.6223 671.217 96.5198C670.615 97.4173 669.797 98.1195 668.762 98.6263C669.966 99.1437 670.916 99.8986 671.613 100.891C672.321 101.884 672.674 103.008 672.674 104.265C672.674 106.26 671.999 107.849 670.647 109.032C669.306 110.215 667.537 110.806 665.341 110.806C663.124 110.806 661.345 110.215 660.004 109.032C658.673 107.839 658.008 106.25 658.008 104.265C658.008 103.019 658.346 101.894 659.022 100.891C659.708 99.8881 660.653 99.1278 661.857 98.6105C660.833 98.1036 660.025 97.4015 659.434 96.504C658.842 95.6064 658.547 94.5875 658.547 93.4472C658.547 91.5043 659.17 89.9627 660.416 88.8224C661.661 87.682 663.303 87.1118 665.341 87.1118C667.369 87.1118 669.005 87.682 670.251 88.8224C671.508 89.9627 672.136 91.5043 672.136 93.4472ZM669.744 104.201C669.744 102.913 669.333 101.863 668.509 101.05C667.696 100.237 666.629 99.83 665.31 99.83C663.99 99.83 662.929 100.231 662.126 101.034C661.334 101.836 660.938 102.892 660.938 104.201C660.938 105.511 661.324 106.54 662.094 107.29C662.876 108.04 663.958 108.414 665.341 108.414C666.714 108.414 667.791 108.04 668.572 107.29C669.354 106.53 669.744 105.5 669.744 104.201ZM665.341 89.5192C664.19 89.5192 663.256 89.8782 662.538 90.5963C661.83 91.3037 661.477 92.2698 661.477 93.4947C661.477 94.6667 661.825 95.617 662.522 96.3456C663.229 97.0636 664.169 97.4226 665.341 97.4226C666.513 97.4226 667.448 97.0636 668.145 96.3456C668.852 95.617 669.206 94.6667 669.206 93.4947C669.206 92.3226 668.842 91.3671 668.113 90.6279C667.384 89.8888 666.46 89.5192 665.341 89.5192Z" fill="white"/>
</g>
</g>
</g>
<g id="Group 126">
<g id="0\;\;\;3\;\;\;9\;\;\;18\;&#10;+3\;+6\;+9\;&#10;+3\;+3">
<g id="Group">
<g id="Group_2">
<path id="Vector" d="M448.568 322.162C450.25 320.054 452.548 319 455.462 319C456.904 319 458.346 319.339 459.787 320.015C461.229 320.692 462.401 321.889 463.302 323.607C464.413 325.767 464.969 328.734 464.969 332.507C464.969 336.541 464.323 339.625 463.031 341.759C462.431 342.852 461.605 343.724 460.553 344.375C459.502 345.026 458.586 345.429 457.805 345.585C457.024 345.741 456.258 345.832 455.507 345.858C454.726 345.858 453.945 345.78 453.164 345.624C452.383 345.468 451.467 345.052 450.416 344.375C449.364 343.698 448.538 342.826 447.937 341.759C446.646 339.625 446 336.541 446 332.507C446 327.979 446.856 324.531 448.568 322.162ZM458.706 321.694C457.805 320.861 456.739 320.445 455.507 320.445C454.245 320.445 453.164 320.861 452.263 321.694C451.512 322.371 451.016 323.308 450.776 324.505C450.536 325.702 450.416 328.2 450.416 332C450.416 336.112 450.536 338.819 450.776 340.12C451.016 341.421 451.557 342.449 452.398 343.204C453.239 343.985 454.275 344.375 455.507 344.375C456.709 344.375 457.73 343.985 458.571 343.204C459.442 342.423 459.983 341.33 460.193 339.925C460.403 338.519 460.523 335.878 460.553 332C460.553 328.226 460.433 325.741 460.193 324.544C459.953 323.347 459.457 322.397 458.706 321.694Z" fill="white"/>
</g>
<g id="Group_3">
<path id="Vector_2" d="M543.354 326.886C542.543 326.886 541.913 326.664 541.462 326.222C541.011 325.779 540.771 325.207 540.741 324.504C540.741 323.073 541.462 321.798 542.904 320.679C544.346 319.559 546.088 319 548.13 319C549.182 319 549.843 319.013 550.113 319.039C552.336 319.351 554.033 320.041 555.204 321.108C556.376 322.175 556.977 323.333 557.007 324.582C557.007 325.936 556.496 327.25 555.475 328.525C554.453 329.8 553.042 330.724 551.239 331.297L551.104 331.375C551.104 331.401 551.239 331.44 551.51 331.492C551.78 331.544 552.216 331.661 552.816 331.843C553.417 332.026 553.988 332.299 554.528 332.663C556.992 334.042 558.223 335.864 558.223 338.128C558.223 340.184 557.292 341.98 555.43 343.516C553.567 345.051 551.209 345.819 548.356 345.819C545.953 345.819 543.88 345.259 542.138 344.14C540.396 343.021 539.525 341.603 539.525 339.885C539.525 339.156 539.795 338.571 540.336 338.128C540.876 337.686 541.552 337.452 542.363 337.426C543.204 337.426 543.895 337.66 544.436 338.128C544.976 338.597 545.247 339.182 545.247 339.885C545.247 340.171 545.202 340.432 545.112 340.666C545.021 340.9 544.916 341.108 544.796 341.29C544.676 341.473 544.511 341.629 544.301 341.759C544.09 341.889 543.91 341.993 543.76 342.071C543.61 342.149 543.46 342.201 543.309 342.227C543.159 342.253 543.039 342.292 542.949 342.344L542.769 342.384C544.301 343.555 546.163 344.14 548.356 344.14C550.008 344.14 551.254 343.451 552.095 342.071C552.606 341.212 552.861 339.898 552.861 338.128V337.348C552.861 334.875 551.9 333.223 549.978 332.39C549.527 332.234 548.611 332.143 547.229 332.117L545.337 332.078L545.202 331.999C545.142 331.921 545.112 331.713 545.112 331.375C545.112 330.906 545.232 330.672 545.472 330.672C546.313 330.672 547.184 330.607 548.085 330.477C549.107 330.347 550.038 329.8 550.879 328.837C551.72 327.874 552.14 326.417 552.14 324.465V324.153C552.14 322.669 551.615 321.641 550.563 321.069C549.903 320.705 549.197 320.522 548.446 320.522C547.485 320.522 546.598 320.666 545.787 320.952C544.976 321.238 544.406 321.537 544.075 321.85C543.745 322.162 543.58 322.318 543.58 322.318H543.715C543.805 322.344 543.925 322.37 544.075 322.396C544.225 322.422 544.376 322.487 544.526 322.591C544.676 322.695 544.856 322.787 545.067 322.865C545.277 322.943 545.427 323.086 545.517 323.294C545.607 323.502 545.727 323.697 545.878 323.88C546.028 324.062 546.073 324.322 546.013 324.66C546.013 325.233 545.802 325.74 545.382 326.183C544.961 326.625 544.286 326.86 543.354 326.886Z" fill="white"/>
</g>
<g id="Group_4">
<path id="Vector_3" d="M646.174 333.795C644.732 335.773 642.93 336.762 640.767 336.762C638.424 336.762 636.502 335.995 635 334.459C633.498 332.924 632.597 331.284 632.297 329.54C632.236 329.124 632.206 328.603 632.206 327.979V327.667C632.206 325.246 633.243 323.138 635.315 321.342C637.118 319.781 639.1 319 641.263 319C641.323 319 641.413 319 641.533 319C641.653 319 641.773 319.013 641.894 319.039H642.074C642.434 319.039 642.81 319.065 643.2 319.117C643.591 319.169 644.146 319.325 644.867 319.586C645.588 319.846 646.294 320.262 646.985 320.835C647.676 321.407 648.322 322.175 648.923 323.138C650.214 325.428 650.86 328.369 650.86 331.961C650.86 335.604 649.959 338.688 648.157 341.213C647.105 342.67 645.844 343.802 644.372 344.609C642.9 345.416 641.338 345.832 639.686 345.858C637.854 345.858 636.352 345.481 635.18 344.726C634.009 343.971 633.408 342.852 633.378 341.369C633.348 339.885 634.144 339.157 635.766 339.183C636.427 339.183 636.982 339.365 637.433 339.729C637.884 340.094 638.109 340.601 638.109 341.252C638.109 341.72 637.974 342.124 637.703 342.462C637.433 342.8 637.193 343.008 636.982 343.086C636.772 343.165 636.577 343.23 636.397 343.282L636.216 343.321C636.216 343.373 636.322 343.451 636.532 343.555C636.742 343.659 637.133 343.789 637.703 343.945C638.274 344.101 638.905 344.167 639.596 344.14H639.866C641.668 344.14 643.185 343.308 644.417 341.642C645.588 340.185 646.174 337.66 646.174 334.069V333.795ZM641.308 335.318C642.75 335.318 643.906 334.68 644.777 333.405C645.648 332.13 646.099 330.399 646.129 328.213C646.129 326.183 646.009 324.726 645.769 323.841C645.708 323.581 645.618 323.32 645.498 323.06C645.378 322.8 645.168 322.462 644.867 322.045C644.567 321.629 644.116 321.277 643.516 320.991C642.915 320.705 642.209 320.575 641.398 320.601C640.257 320.601 639.28 320.952 638.469 321.655C637.839 322.227 637.433 322.904 637.253 323.685C637.073 324.465 636.967 325.832 636.937 327.784C636.937 329.944 637.012 331.401 637.163 332.156C637.313 332.911 637.613 333.522 638.064 333.991C638.815 334.876 639.896 335.318 641.308 335.318Z" fill="white"/>
</g>
<g id="Group_5">
<path id="Vector_4" d="M721.478 322.435L720.892 322.63C720.471 322.761 719.87 322.891 719.089 323.021C718.309 323.151 717.437 323.242 716.476 323.294H715.62V321.498H716.476C717.888 321.446 719.195 321.251 720.396 320.913C721.598 320.574 722.439 320.262 722.919 319.976C723.4 319.69 723.82 319.403 724.181 319.117C724.241 319.039 724.421 319 724.722 319C724.992 319 725.247 319.078 725.488 319.234V330.906L725.533 342.618C725.743 342.8 725.923 342.917 726.073 342.969C726.223 343.021 726.584 343.073 727.155 343.125C727.725 343.177 728.657 343.203 729.948 343.203H731.12V344.999H730.624C729.993 344.921 727.605 344.882 723.46 344.882C719.375 344.882 717.017 344.921 716.386 344.999H715.845V343.203H717.017C717.678 343.203 718.248 343.203 718.729 343.203C719.21 343.203 719.585 343.19 719.855 343.164C720.126 343.138 720.366 343.099 720.576 343.047C720.787 342.995 720.907 342.969 720.937 342.969C720.967 342.969 721.057 342.904 721.207 342.774C721.357 342.644 721.447 342.592 721.478 342.618V322.435Z" fill="white"/>
<path id="Vector_5" d="M737.563 328.721C737.563 328.721 737.563 327.719 737.563 325.715C737.563 323.711 738.374 322.097 739.996 320.874C741.618 319.651 743.48 319.026 745.583 319C747.716 319 749.608 319.547 751.26 320.64C752.912 321.733 753.738 323.151 753.738 324.895C753.738 325.676 753.573 326.404 753.243 327.081C752.912 327.758 752.522 328.304 752.071 328.721C751.621 329.137 751.155 329.501 750.675 329.814C750.194 330.126 749.803 330.36 749.503 330.516C749.203 330.672 749.037 330.777 749.007 330.829L749.638 331.18C750.059 331.44 750.479 331.7 750.9 331.961C751.32 332.221 751.561 332.364 751.621 332.39C753.874 333.926 755 335.864 755 338.207C755 340.263 754.129 342.045 752.387 343.555C750.644 345.064 748.392 345.832 745.628 345.858C742.925 345.858 740.702 345.195 738.96 343.867C737.218 342.54 736.346 340.9 736.346 338.948C736.346 336.138 738.284 333.795 742.159 331.922L741.348 331.414C740.717 331.076 740.311 330.816 740.131 330.633C738.419 329.358 737.563 327.719 737.563 325.715V328.721ZM747.295 329.931L747.566 329.775C747.746 329.67 747.881 329.592 747.971 329.54C748.061 329.488 748.211 329.397 748.422 329.267C748.632 329.137 748.812 329.007 748.962 328.877C749.113 328.747 749.278 328.59 749.458 328.408C749.638 328.226 749.803 328.057 749.954 327.901C750.104 327.745 750.254 327.536 750.404 327.276C750.554 327.016 750.69 326.795 750.81 326.613C750.93 326.43 751.005 326.17 751.035 325.832C751.065 325.493 751.095 325.207 751.125 324.973C751.125 323.854 750.69 322.904 749.818 322.123C748.947 321.342 747.941 320.848 746.8 320.64C746.589 320.614 746.094 320.601 745.313 320.601C744.081 320.601 742.925 320.939 741.843 321.616C740.762 322.292 740.206 323.138 740.176 324.153C740.176 324.752 740.372 325.298 740.762 325.793C741.152 326.287 741.543 326.665 741.933 326.925C742.324 327.185 743.075 327.601 744.186 328.174C744.397 328.304 744.562 328.395 744.682 328.447L747.295 329.931ZM745.673 344.18C747.415 344.18 748.917 343.737 750.179 342.852C751.44 341.967 752.071 340.9 752.071 339.651C752.071 339.209 751.996 338.792 751.846 338.402C751.696 338.012 751.516 337.686 751.305 337.426C751.095 337.166 750.765 336.879 750.314 336.567C749.863 336.255 749.518 336.021 749.278 335.864C749.037 335.708 748.602 335.461 747.971 335.123C747.34 334.784 746.935 334.563 746.755 334.459C746.334 334.225 745.883 333.978 745.403 333.717C744.922 333.457 744.532 333.236 744.231 333.054L743.871 332.859C743.691 332.859 743.255 333.08 742.564 333.522C741.873 333.965 741.152 334.68 740.402 335.669C739.651 336.658 739.26 337.725 739.23 338.87C739.23 340.406 739.876 341.668 741.168 342.657C742.459 343.646 743.961 344.154 745.673 344.18Z" fill="white"/>
</g>
<g id="Group 122">
<path id="Arrow 5 (Stroke)" fill-rule="evenodd" clip-rule="evenodd" d="M546.804 355.557C547.579 355.85 547.97 356.715 547.677 357.49L542.907 370.119C542.614 370.894 541.748 371.285 540.973 370.993C540.198 370.7 539.807 369.834 540.1 369.059L543.602 359.789C529.281 366.046 517.602 369.635 505.85 369.855C493.184 370.092 480.605 366.415 464.689 358.296L466.052 355.624C481.73 363.621 493.805 367.08 505.794 366.855C516.948 366.646 528.176 363.249 542.327 357.073L533.115 353.593C532.34 353.3 531.949 352.435 532.241 351.66C532.534 350.885 533.4 350.494 534.175 350.787L546.804 355.557Z" fill="#2CF30B"/>
<path id="Arrow 6 (Stroke)" fill-rule="evenodd" clip-rule="evenodd" d="M643.707 357.017C644.482 357.31 644.873 358.175 644.581 358.95L639.81 371.579C639.518 372.354 638.652 372.745 637.877 372.452C637.102 372.16 636.711 371.294 637.004 370.519L640.505 361.249C626.184 367.506 614.506 371.095 602.754 371.315C590.088 371.552 577.508 367.875 561.592 359.756L562.955 357.084C578.633 365.081 590.709 368.54 602.698 368.315C613.852 368.106 625.08 364.709 639.23 358.533L630.018 355.053C629.243 354.76 628.852 353.895 629.145 353.12C629.438 352.345 630.303 351.954 631.078 352.247L643.707 357.017Z" fill="#2CF30B"/>
<path id="Arrow 7 (Stroke)" fill-rule="evenodd" clip-rule="evenodd" d="M738.074 357.017C738.849 357.31 739.24 358.175 738.948 358.95L734.177 371.579C733.885 372.354 733.019 372.745 732.244 372.452C731.469 372.16 731.078 371.294 731.371 370.519L734.872 361.249C720.551 367.506 708.873 371.095 697.121 371.315C684.455 371.552 671.875 367.875 655.959 359.756L657.322 357.084C673 365.081 685.076 368.54 697.065 368.315C708.219 368.106 719.447 364.709 733.597 358.533L724.385 355.053C723.61 354.76 723.219 353.895 723.512 353.12C723.805 352.345 724.67 351.954 725.445 352.247L738.074 357.017Z" fill="#2CF30B"/>
</g>
<g id="Group 115">
<g id="Group 119">
<g id="Group_6">
<path id="Vector_6" d="M478.86 394.519C478.86 394.519 478.86 394.349 478.86 394.011C478.86 393.673 479.07 393.413 479.491 393.23H492.963V387.375L493.008 381.519C493.308 381.181 493.594 381.012 493.864 381.012C494.254 381.012 494.555 381.207 494.765 381.597V393.23H508.192C508.643 393.439 508.868 393.699 508.868 394.011C508.868 394.323 508.643 394.584 508.192 394.792H494.765V406.425C494.525 406.79 494.254 406.972 493.954 406.972H493.864H493.774C493.413 406.972 493.143 406.79 492.963 406.425V394.792H479.491C479.07 394.61 478.86 394.349 478.86 394.011V394.519Z" fill="white"/>
</g>
<g id="Group_7">
<path id="Vector_7" d="M512.802 388.206C511.99 388.206 511.36 387.985 510.909 387.543C510.459 387.1 510.218 386.528 510.188 385.825C510.188 384.394 510.909 383.118 512.351 381.999C513.793 380.88 515.535 380.321 517.578 380.321C518.629 380.321 519.29 380.334 519.56 380.36C521.783 380.672 523.48 381.362 524.651 382.429C525.823 383.496 526.424 384.654 526.454 385.903C526.454 387.256 525.943 388.571 524.922 389.846C523.901 391.121 522.489 392.045 520.686 392.618L520.551 392.696C520.551 392.722 520.686 392.761 520.957 392.813C521.227 392.865 521.663 392.982 522.263 393.164C522.864 393.346 523.435 393.62 523.976 393.984C526.439 395.363 527.67 397.185 527.67 399.449C527.67 401.505 526.739 403.301 524.877 404.836C523.014 406.372 520.656 407.14 517.803 407.14C515.4 407.14 513.327 406.58 511.585 405.461C509.843 404.342 508.972 402.924 508.972 401.206C508.972 400.477 509.242 399.892 509.783 399.449C510.323 399.007 510.999 398.773 511.81 398.747C512.651 398.747 513.342 398.981 513.883 399.449C514.424 399.918 514.694 400.503 514.694 401.206C514.694 401.492 514.649 401.752 514.559 401.987C514.469 402.221 514.363 402.429 514.243 402.611C514.123 402.793 513.958 402.95 513.748 403.08C513.537 403.21 513.357 403.314 513.207 403.392C513.057 403.47 512.907 403.522 512.756 403.548C512.606 403.574 512.486 403.613 512.396 403.665L512.216 403.704C513.748 404.875 515.61 405.461 517.803 405.461C519.455 405.461 520.701 404.771 521.543 403.392C522.053 402.533 522.309 401.219 522.309 399.449V398.668C522.309 396.196 521.347 394.543 519.425 393.711C518.974 393.555 518.058 393.463 516.676 393.437L514.784 393.398L514.649 393.32C514.589 393.242 514.559 393.034 514.559 392.696C514.559 392.227 514.679 391.993 514.919 391.993C515.76 391.993 516.631 391.928 517.532 391.798C518.554 391.668 519.485 391.121 520.326 390.158C521.167 389.195 521.588 387.738 521.588 385.786V385.474C521.588 383.99 521.062 382.962 520.011 382.39C519.35 382.025 518.644 381.843 517.893 381.843C516.932 381.843 516.046 381.986 515.235 382.273C514.424 382.559 513.853 382.858 513.522 383.17C513.192 383.483 513.027 383.639 513.027 383.639H513.162C513.252 383.665 513.372 383.691 513.522 383.717C513.673 383.743 513.823 383.808 513.973 383.912C514.123 384.016 514.303 384.107 514.514 384.185C514.724 384.264 514.874 384.407 514.964 384.615C515.054 384.823 515.175 385.018 515.325 385.2C515.475 385.383 515.52 385.643 515.46 385.981C515.46 386.554 515.25 387.061 514.829 387.504C514.409 387.946 513.733 388.18 512.802 388.206Z" fill="white"/>
</g>
</g>
<g id="Group 118">
<g id="Group_8">
<path id="Vector_8" d="M567.329 394.558C567.329 394.558 567.329 394.389 567.329 394.05C567.329 393.712 567.539 393.452 567.96 393.269H581.432V387.414L581.477 381.558C581.777 381.22 582.063 381.051 582.333 381.051C582.724 381.051 583.024 381.246 583.234 381.636V393.269H596.661C597.112 393.478 597.337 393.738 597.337 394.05C597.337 394.363 597.112 394.623 596.661 394.831H583.234V406.464C582.994 406.829 582.724 407.011 582.423 407.011H582.333H582.243C581.882 407.011 581.612 406.829 581.432 406.464V394.831H567.96C567.539 394.649 567.329 394.389 567.329 394.05V394.558Z" fill="white"/>
</g>
<g id="Group_9">
<path id="Vector_9" d="M599.094 391.911C599.094 387.669 600.311 384.312 602.744 381.839C605.177 379.367 607.88 378.131 610.854 378.131C612.927 378.131 614.414 378.599 615.315 379.536C616.216 380.473 616.667 381.514 616.667 382.659C616.667 383.31 616.456 383.83 616.036 384.22C615.615 384.611 615.029 384.806 614.279 384.806C613.588 384.806 613.017 384.624 612.566 384.259C612.116 383.895 611.891 383.388 611.891 382.737C611.891 381.592 612.596 380.902 614.008 380.668C613.347 380.095 612.416 379.77 611.215 379.692C609.082 379.692 607.325 380.473 605.943 382.034C604.531 383.752 603.825 386.381 603.825 389.92L603.87 390.076C604.021 389.92 604.141 389.751 604.231 389.569C605.462 388.007 607.069 387.226 609.052 387.226H609.232C610.614 387.226 611.83 387.474 612.882 387.968C613.603 388.332 614.324 388.853 615.044 389.53C615.765 390.206 616.351 390.948 616.802 391.755C617.433 393.03 617.748 394.422 617.748 395.932V396.634C617.748 397.233 617.673 397.793 617.523 398.313C617.192 399.849 616.231 401.345 614.639 402.802C613.047 404.26 611.034 404.989 608.601 404.989C607.76 404.989 606.949 404.884 606.168 404.676C605.387 404.468 604.546 404.078 603.645 403.505C602.744 402.933 601.978 402.165 601.347 401.202C600.716 400.239 600.176 398.977 599.725 397.415C599.275 395.854 599.064 394.019 599.094 391.911ZM608.782 388.632C607.88 388.632 607.099 388.853 606.439 389.295C605.778 389.738 605.267 390.323 604.907 391.052C604.546 391.781 604.291 392.522 604.141 393.277C603.991 394.032 603.9 394.839 603.87 395.698C603.87 397.858 604.051 399.406 604.411 400.343C604.772 401.28 605.342 402.035 606.123 402.607C606.844 403.076 607.64 403.31 608.511 403.31C610.043 403.31 611.215 402.815 612.026 401.826C612.416 401.358 612.687 400.772 612.837 400.07C612.987 399.367 613.062 398.001 613.062 395.971C613.062 393.889 612.987 392.496 612.837 391.794C612.687 391.091 612.416 390.506 612.026 390.037C611.215 389.1 610.133 388.632 608.782 388.632Z" fill="white"/>
</g>
</g>
<g id="Group 117">
<g id="Group_10">
<path id="Vector_10" d="M657.483 392.368C657.483 392.368 657.483 392.199 657.483 391.86C657.483 391.522 657.694 391.262 658.114 391.08H671.586V385.224L671.631 379.368C671.932 379.03 672.217 378.861 672.487 378.861C672.878 378.861 673.178 379.056 673.388 379.446V391.08H686.815C687.266 391.288 687.491 391.548 687.491 391.86C687.491 392.173 687.266 392.433 686.815 392.641H673.388V404.274C673.148 404.639 672.878 404.821 672.577 404.821H672.487H672.397C672.037 404.821 671.766 404.639 671.586 404.274V392.641H658.114C657.694 392.459 657.483 392.199 657.483 391.86V392.368Z" fill="white"/>
</g>
<g id="Group_11">
<path id="Vector_11" d="M701.504 392.926C700.062 394.904 698.26 395.893 696.097 395.893C693.754 395.893 691.832 395.125 690.33 393.589C688.828 392.054 687.927 390.414 687.626 388.671C687.566 388.254 687.536 387.734 687.536 387.109V386.797C687.536 384.377 688.573 382.269 690.645 380.473C692.447 378.911 694.43 378.131 696.593 378.131C696.653 378.131 696.743 378.131 696.863 378.131C696.983 378.131 697.103 378.144 697.223 378.17H697.404C697.764 378.17 698.14 378.196 698.53 378.248C698.921 378.3 699.476 378.456 700.197 378.716C700.918 378.976 701.624 379.393 702.315 379.965C703.006 380.538 703.652 381.306 704.252 382.269C705.544 384.559 706.19 387.5 706.19 391.091C706.19 394.735 705.289 397.819 703.486 400.343C702.435 401.8 701.173 402.933 699.702 403.739C698.23 404.546 696.668 404.963 695.016 404.989C693.183 404.989 691.681 404.611 690.51 403.856C689.339 403.102 688.738 401.983 688.708 400.499C688.678 399.016 689.474 398.287 691.096 398.313C691.757 398.313 692.312 398.495 692.763 398.86C693.213 399.224 693.439 399.731 693.439 400.382C693.439 400.851 693.304 401.254 693.033 401.592C692.763 401.931 692.523 402.139 692.312 402.217C692.102 402.295 691.907 402.36 691.727 402.412L691.546 402.451C691.546 402.503 691.651 402.581 691.862 402.685C692.072 402.789 692.462 402.92 693.033 403.076C693.604 403.232 694.235 403.297 694.926 403.271H695.196C696.998 403.271 698.515 402.438 699.747 400.772C700.918 399.315 701.504 396.791 701.504 393.199V392.926ZM696.638 394.448C698.08 394.448 699.236 393.811 700.107 392.535C700.978 391.26 701.429 389.53 701.459 387.343C701.459 385.313 701.339 383.856 701.098 382.971C701.038 382.711 700.948 382.451 700.828 382.19C700.708 381.93 700.498 381.592 700.197 381.175C699.897 380.759 699.446 380.408 698.846 380.121C698.245 379.835 697.539 379.705 696.728 379.731C695.586 379.731 694.61 380.082 693.799 380.785C693.168 381.358 692.763 382.034 692.583 382.815C692.402 383.596 692.297 384.962 692.267 386.914C692.267 389.074 692.342 390.532 692.493 391.286C692.643 392.041 692.943 392.653 693.394 393.121C694.145 394.006 695.226 394.448 696.638 394.448Z" fill="white"/>
</g>
</g>
<g id="Group 123">
<path id="Arrow 8 (Stroke)" fill-rule="evenodd" clip-rule="evenodd" d="M603.41 419.821C604.172 420.146 604.527 421.027 604.202 421.789L598.912 434.209C598.587 434.971 597.706 435.326 596.944 435.001C596.182 434.677 595.827 433.796 596.152 433.033L600.033 423.921C585.946 429.419 574.296 432.749 562.159 433.046C549.057 433.367 535.531 430.151 517.869 422.58L519.051 419.822C536.49 427.299 549.57 430.353 562.086 430.047C573.694 429.763 584.941 426.587 598.878 421.151L589.814 417.291C589.052 416.966 588.697 416.085 589.022 415.323C589.346 414.561 590.227 414.206 590.989 414.531L603.41 419.821Z" fill="#13EBF9"/>
<path id="Arrow 9 (Stroke)" fill-rule="evenodd" clip-rule="evenodd" d="M693.564 419.821C694.326 420.146 694.681 421.027 694.356 421.789L689.066 434.209C688.741 434.971 687.86 435.326 687.098 435.001C686.336 434.677 685.981 433.796 686.306 433.033L690.187 423.921C676.1 429.419 664.451 432.749 652.314 433.046C639.211 433.367 625.685 430.151 608.024 422.58L609.206 419.822C626.645 427.299 639.724 430.353 652.24 430.047C663.848 429.763 675.095 426.587 689.032 421.151L679.968 417.291C679.206 416.966 678.851 416.085 679.176 415.323C679.5 414.561 680.381 414.206 681.144 414.531L693.564 419.821Z" fill="#13EBF9"/>
</g>
<g id="Group 116">
<g id="Group 120">
<g id="Group_12">
<path id="Vector_12" d="M518.46 454.418C518.46 454.418 518.46 454.249 518.46 453.911C518.46 453.572 518.671 453.312 519.091 453.13H532.563V447.274L532.608 441.418C532.909 441.08 533.194 440.911 533.464 440.911C533.855 440.911 534.155 441.106 534.366 441.497V453.13H547.792C548.243 453.338 548.468 453.598 548.468 453.911C548.468 454.223 548.243 454.483 547.792 454.691H534.366V466.325C534.125 466.689 533.855 466.871 533.554 466.871H533.464H533.374C533.014 466.871 532.743 466.689 532.563 466.325V454.691H519.091C518.671 454.509 518.46 454.249 518.46 453.911V454.418Z" fill="white"/>
</g>
<g id="Group_13">
<path id="Vector_13" d="M548.189 448.067C547.378 448.067 546.747 447.845 546.296 447.403C545.846 446.961 545.606 446.388 545.576 445.685C545.576 444.254 546.296 442.979 547.738 441.86C549.18 440.741 550.922 440.181 552.965 440.181C554.016 440.181 554.677 440.194 554.947 440.22C557.17 440.532 558.867 441.222 560.039 442.289C561.21 443.356 561.811 444.514 561.841 445.763C561.841 447.117 561.33 448.431 560.309 449.706C559.288 450.982 557.876 451.905 556.074 452.478L555.939 452.556C555.939 452.582 556.074 452.621 556.344 452.673C556.614 452.725 557.05 452.842 557.651 453.024C558.252 453.207 558.822 453.48 559.363 453.844C561.826 455.224 563.058 457.045 563.058 459.31C563.058 461.366 562.126 463.161 560.264 464.697C558.402 466.232 556.044 467 553.19 467C550.787 467 548.715 466.44 546.972 465.321C545.23 464.202 544.359 462.784 544.359 461.066C544.359 460.338 544.629 459.752 545.17 459.31C545.711 458.867 546.387 458.633 547.198 458.607C548.039 458.607 548.73 458.841 549.27 459.31C549.811 459.778 550.081 460.364 550.081 461.066C550.081 461.353 550.036 461.613 549.946 461.847C549.856 462.081 549.751 462.289 549.631 462.472C549.511 462.654 549.345 462.81 549.135 462.94C548.925 463.07 548.745 463.174 548.594 463.252C548.444 463.33 548.294 463.382 548.144 463.409C547.994 463.435 547.873 463.474 547.783 463.526L547.603 463.565C549.135 464.736 550.997 465.321 553.19 465.321C554.842 465.321 556.089 464.632 556.93 463.252C557.441 462.394 557.696 461.079 557.696 459.31V458.529C557.696 456.056 556.735 454.404 554.812 453.571C554.362 453.415 553.445 453.324 552.064 453.298L550.171 453.259L550.036 453.181C549.976 453.103 549.946 452.894 549.946 452.556C549.946 452.088 550.066 451.853 550.307 451.853C551.148 451.853 552.019 451.788 552.92 451.658C553.941 451.528 554.872 450.982 555.713 450.019C556.554 449.056 556.975 447.598 556.975 445.646V445.334C556.975 443.851 556.449 442.823 555.398 442.25C554.737 441.886 554.031 441.704 553.28 441.704C552.319 441.704 551.433 441.847 550.622 442.133C549.811 442.419 549.24 442.719 548.91 443.031C548.579 443.343 548.414 443.499 548.414 443.499H548.549C548.639 443.525 548.76 443.551 548.91 443.577C549.06 443.603 549.21 443.668 549.36 443.773C549.511 443.877 549.691 443.968 549.901 444.046C550.111 444.124 550.261 444.267 550.352 444.475C550.442 444.683 550.562 444.879 550.712 445.061C550.862 445.243 550.907 445.503 550.847 445.842C550.847 446.414 550.637 446.922 550.216 447.364C549.796 447.806 549.12 448.041 548.189 448.067Z" fill="white"/>
</g>
</g>
<g id="Group 121">
<g id="Group_14">
<path id="Vector_14" d="M620.411 453.688C620.411 453.688 620.411 453.519 620.411 453.181C620.411 452.842 620.621 452.582 621.041 452.4H634.513V446.544L634.558 440.688C634.859 440.35 635.144 440.181 635.414 440.181C635.805 440.181 636.105 440.376 636.316 440.767V452.4H649.743C650.193 452.608 650.418 452.868 650.418 453.181C650.418 453.493 650.193 453.753 649.743 453.961H636.316V465.595C636.075 465.959 635.805 466.141 635.505 466.141H635.414H635.324C634.964 466.141 634.694 465.959 634.513 465.595V453.961H621.041C620.621 453.779 620.411 453.519 620.411 453.181V453.688Z" fill="white"/>
</g>
<g id="Group_15">
<path id="Vector_15" d="M654.32 448.067C653.509 448.067 652.878 447.845 652.428 447.403C651.977 446.961 651.737 446.388 651.707 445.685C651.707 444.254 652.428 442.979 653.87 441.86C655.312 440.741 657.054 440.181 659.096 440.181C660.148 440.181 660.808 440.194 661.079 440.22C663.302 440.532 664.999 441.222 666.17 442.289C667.342 443.356 667.943 444.514 667.973 445.763C667.973 447.117 667.462 448.431 666.441 449.706C665.419 450.982 664.008 451.905 662.205 452.478L662.07 452.556C662.07 452.582 662.205 452.621 662.476 452.673C662.746 452.725 663.181 452.842 663.782 453.024C664.383 453.207 664.954 453.48 665.494 453.844C667.958 455.224 669.189 457.045 669.189 459.31C669.189 461.366 668.258 463.161 666.396 464.697C664.533 466.232 662.175 467 659.322 467C656.919 467 654.846 466.44 653.104 465.321C651.362 464.202 650.49 462.784 650.49 461.066C650.49 460.338 650.761 459.752 651.302 459.31C651.842 458.867 652.518 458.633 653.329 458.607C654.17 458.607 654.861 458.841 655.402 459.31C655.942 459.778 656.213 460.364 656.213 461.066C656.213 461.353 656.168 461.613 656.078 461.847C655.987 462.081 655.882 462.289 655.762 462.472C655.642 462.654 655.477 462.81 655.267 462.94C655.056 463.07 654.876 463.174 654.726 463.252C654.576 463.33 654.425 463.382 654.275 463.409C654.125 463.435 654.005 463.474 653.915 463.526L653.735 463.565C655.267 464.736 657.129 465.321 659.322 465.321C660.974 465.321 662.22 464.632 663.061 463.252C663.572 462.394 663.827 461.079 663.827 459.31V458.529C663.827 456.056 662.866 454.404 660.944 453.571C660.493 453.415 659.577 453.324 658.195 453.298L656.303 453.259L656.168 453.181C656.108 453.103 656.078 452.894 656.078 452.556C656.078 452.088 656.198 451.853 656.438 451.853C657.279 451.853 658.15 451.788 659.051 451.658C660.073 451.528 661.004 450.982 661.845 450.019C662.686 449.056 663.106 447.598 663.106 445.646V445.334C663.106 443.851 662.581 442.823 661.529 442.25C660.869 441.886 660.163 441.704 659.412 441.704C658.451 441.704 657.564 441.847 656.753 442.133C655.942 442.419 655.372 442.719 655.041 443.031C654.711 443.343 654.546 443.499 654.546 443.499H654.681C654.771 443.525 654.891 443.551 655.041 443.577C655.191 443.603 655.342 443.668 655.492 443.773C655.642 443.877 655.822 443.968 656.032 444.046C656.243 444.124 656.393 444.267 656.483 444.475C656.573 444.683 656.693 444.879 656.843 445.061C656.994 445.243 657.039 445.503 656.979 445.842C656.979 446.414 656.768 446.922 656.348 447.364C655.927 447.806 655.251 448.041 654.32 448.067Z" fill="white"/>
</g>
</g>
</g>
</g>
</g>
</g>
</g>
</g>
</svg>
