<svg viewBox="0 0 975 529" fill="none" xmlns="http://www.w3.org/2000/svg">
<g id="0123104">
<g id="enunciado">
<path id="Rectangle 1" d="M12 38.5811C12 18.3558 35.3431 1.9599 64.1382 1.9599H963V255.379C963 275.604 939.657 292 910.862 292H12V38.5811Z" fill="#02071A"/>
<path id="Rectangle 1 (Stroke)" fill-rule="evenodd" clip-rule="evenodd" d="M957.786 5.59183H64.1382C38.2226 5.59183 17.2138 20.3497 17.2138 38.5544V288.337H910.862C936.777 288.337 957.786 273.579 957.786 255.375V5.59183ZM64.1382 1.92932C35.3431 1.92932 12 18.3269 12 38.5544V292H910.862C939.657 292 963 275.602 963 255.375V1.92932H64.1382Z" fill="#CD08D1"/>
<path id="Rectangle 14" d="M68.4655 2.02562C96.3515 -2.53202 962.999 2.02562 962.999 2.02562V21.7566C962.999 21.7566 53.7104 14.5044 21.3848 21.7566C31.443 11.2916 40.5795 6.58326 68.4655 2.02562Z" fill="#CD08D1"/>
<path id="Rectangle 15" d="M930 6.27118H961V256.133C957.195 273.09 949.308 279.322 930 287.456C935.683 274.135 930 6.27118 930 6.27118Z" fill="#CD08D1"/>
<g id="&#194;&#191;Cu&#195;&#161;ntos tri&#195;&#161;ngulos hay en la siguiente figura?">
<path d="M45.0586 47.9068C45.0449 49.356 44.8945 50.5181 44.6074 51.3931C44.334 52.2544 43.8691 53.0884 43.2129 53.8951C42.5566 54.7017 41.5996 55.7681 40.3418 57.0943C39.084 58.4068 38.3799 59.7398 38.2295 61.0933L38.1885 61.8521C38.1885 63.3423 38.585 64.4771 39.3779 65.2564C40.1709 66.0493 41.3125 66.4458 42.8027 66.4458C44.1699 66.4458 45.2773 66.0562 46.125 65.2769C46.9863 64.5113 47.417 63.5064 47.417 62.2622H51.2109C51.1836 64.4634 50.3975 66.2613 48.8525 67.6558C47.3213 69.0503 45.3047 69.7476 42.8027 69.7476C40.123 69.7476 38.0518 69.0572 36.5889 67.6763C35.126 66.3091 34.3945 64.4019 34.3945 61.9546C34.3945 59.5894 35.4883 57.2105 37.6758 54.8179L39.9111 52.5005C40.8135 51.4341 41.2646 49.9029 41.2646 47.9068H45.0586ZM45.2227 41.4058C45.2227 42.021 45.0312 42.5406 44.6484 42.9644C44.2793 43.3882 43.7256 43.6001 42.9873 43.6001C42.249 43.6001 41.6885 43.3882 41.3057 42.9644C40.9229 42.5406 40.7314 42.021 40.7314 41.4058C40.7314 40.8042 40.9229 40.2984 41.3057 39.8882C41.6885 39.4781 42.249 39.273 42.9873 39.273C43.7256 39.273 44.2793 39.4781 44.6484 39.8882C45.0312 40.2984 45.2227 40.8042 45.2227 41.4058Z" fill="white"/>
<path d="M78.3223 52.3775C77.9531 55.5357 76.7842 57.9761 74.8154 59.6988C72.8604 61.4077 70.2559 62.2622 67.002 62.2622C63.4746 62.2622 60.6445 60.9976 58.5117 58.4683C56.3926 55.939 55.333 52.5552 55.333 48.3169V45.4458C55.333 42.6704 55.8252 40.23 56.8096 38.1245C57.8076 36.0191 59.2158 34.4058 61.0342 33.2847C62.8525 32.1499 64.958 31.5826 67.3506 31.5826C70.5225 31.5826 73.0654 32.4712 74.9795 34.2486C76.8936 36.0122 78.0078 38.4595 78.3223 41.5904H74.3643C74.0225 39.2115 73.2773 37.4888 72.1289 36.4224C70.9941 35.356 69.4014 34.8228 67.3506 34.8228C64.835 34.8228 62.8594 35.7525 61.4238 37.6118C60.002 39.4712 59.291 42.1167 59.291 45.5484V48.44C59.291 51.6802 59.9678 54.2574 61.3213 56.1714C62.6748 58.0855 64.5684 59.0425 67.002 59.0425C69.1895 59.0425 70.8643 58.5503 72.0264 57.5659C73.2021 56.5679 73.9814 54.8384 74.3643 52.3775H78.3223Z" fill="white"/>
<path d="M96.8203 59.6577C95.3438 61.3941 93.1768 62.2622 90.3193 62.2622C87.9541 62.2622 86.1494 61.5786 84.9053 60.2115C83.6748 58.8306 83.0527 56.7935 83.0391 54.1001V39.6626H86.833V53.9976C86.833 57.3609 88.2002 59.0425 90.9346 59.0425C93.833 59.0425 95.7607 57.9624 96.7178 55.8023V39.6626H100.512V61.8521H96.9023L96.8203 59.6577Z" fill="white"/>
<path d="M119.994 61.8521C119.775 61.4146 119.598 60.6353 119.461 59.5142C117.697 61.3462 115.592 62.2622 113.145 62.2622C110.957 62.2622 109.159 61.647 107.751 60.4165C106.356 59.1724 105.659 57.6001 105.659 55.6997C105.659 53.3892 106.534 51.5982 108.284 50.3267C110.048 49.0415 112.522 48.399 115.708 48.399H119.399V46.6558C119.399 45.3296 119.003 44.2769 118.21 43.4976C117.417 42.7046 116.248 42.3081 114.703 42.3081C113.35 42.3081 112.215 42.6499 111.299 43.3335C110.383 44.0171 109.925 44.8443 109.925 45.815H106.11C106.11 44.7076 106.5 43.6411 107.279 42.6158C108.072 41.5767 109.139 40.7564 110.479 40.1548C111.832 39.5533 113.315 39.2525 114.929 39.2525C117.485 39.2525 119.488 39.8951 120.938 41.1802C122.387 42.4517 123.139 44.2085 123.193 46.4507V56.6636C123.193 58.7007 123.453 60.3208 123.973 61.524V61.8521H119.994ZM113.698 58.9605C114.888 58.9605 116.016 58.6529 117.082 58.0376C118.148 57.4224 118.921 56.6226 119.399 55.6382V51.0855H116.426C111.777 51.0855 109.453 52.4458 109.453 55.1665C109.453 56.356 109.85 57.2857 110.643 57.9556C111.436 58.6255 112.454 58.9605 113.698 58.9605ZM117.205 30.3521H121.799L116.303 36.3814H113.247L117.205 30.3521Z" fill="white"/>
<path d="M132.729 39.6626L132.853 42.4517C134.548 40.3189 136.763 39.2525 139.497 39.2525C144.187 39.2525 146.552 41.898 146.593 47.189V61.8521H142.799V47.1685C142.785 45.5689 142.416 44.3863 141.691 43.6206C140.98 42.855 139.866 42.4722 138.349 42.4722C137.118 42.4722 136.038 42.8003 135.108 43.4566C134.179 44.1128 133.454 44.9742 132.935 46.0406V61.8521H129.141V39.6626H132.729Z" fill="white"/>
<path d="M157.462 34.2896V39.6626H161.604V42.5952H157.462V56.356C157.462 57.2447 157.646 57.9146 158.016 58.3658C158.385 58.8033 159.014 59.022 159.902 59.022C160.34 59.022 160.941 58.94 161.707 58.7759V61.8521C160.709 62.1255 159.738 62.2622 158.795 62.2622C157.1 62.2622 155.821 61.7495 154.96 60.7242C154.099 59.6988 153.668 58.2427 153.668 56.356V42.5952H149.628V39.6626H153.668V34.2896H157.462Z" fill="white"/>
<path d="M164.64 50.5523C164.64 48.3784 165.063 46.4234 165.911 44.687C166.772 42.9507 167.962 41.6109 169.479 40.6675C171.011 39.7242 172.754 39.2525 174.709 39.2525C177.73 39.2525 180.171 40.2984 182.03 42.3902C183.903 44.482 184.84 47.2642 184.84 50.7368V51.0034C184.84 53.1636 184.423 55.105 183.589 56.8277C182.769 58.5367 181.586 59.8697 180.041 60.8267C178.51 61.7837 176.746 62.2622 174.75 62.2622C171.742 62.2622 169.302 61.2163 167.429 59.1245C165.569 57.0327 164.64 54.2642 164.64 50.8189V50.5523ZM168.454 51.0034C168.454 53.4644 169.021 55.44 170.156 56.9302C171.305 58.4204 172.836 59.1656 174.75 59.1656C176.678 59.1656 178.209 58.4136 179.344 56.9097C180.479 55.3921 181.046 53.273 181.046 50.5523C181.046 48.1187 180.465 46.1499 179.303 44.646C178.154 43.1284 176.623 42.3697 174.709 42.3697C172.836 42.3697 171.325 43.1148 170.177 44.605C169.028 46.0952 168.454 48.2281 168.454 51.0034Z" fill="white"/>
<path d="M202.518 55.9663C202.518 54.9409 202.128 54.148 201.349 53.5874C200.583 53.0132 199.236 52.521 197.309 52.1109C195.395 51.7007 193.87 51.2085 192.735 50.6343C191.614 50.0601 190.78 49.3765 190.233 48.5835C189.7 47.7906 189.434 46.8472 189.434 45.7534C189.434 43.9351 190.199 42.397 191.73 41.1392C193.275 39.8814 195.244 39.2525 197.637 39.2525C200.152 39.2525 202.189 39.9019 203.748 41.2007C205.32 42.4995 206.106 44.1607 206.106 46.1841H202.292C202.292 45.1451 201.848 44.2495 200.959 43.4976C200.084 42.7456 198.977 42.3697 197.637 42.3697C196.256 42.3697 195.176 42.6704 194.396 43.272C193.617 43.8736 193.228 44.6597 193.228 45.6304C193.228 46.5464 193.59 47.2368 194.314 47.7017C195.039 48.1665 196.345 48.6109 198.231 49.0347C200.132 49.4585 201.67 49.9644 202.846 50.5523C204.021 51.1402 204.89 51.8511 205.45 52.6851C206.024 53.5054 206.312 54.5103 206.312 55.6997C206.312 57.6822 205.519 59.2749 203.933 60.4781C202.347 61.6675 200.289 62.2622 197.76 62.2622C195.982 62.2622 194.41 61.9478 193.043 61.3189C191.676 60.69 190.603 59.815 189.823 58.6939C189.058 57.5591 188.675 56.3355 188.675 55.023H192.469C192.537 56.2945 193.043 57.3062 193.986 58.0581C194.943 58.7964 196.201 59.1656 197.76 59.1656C199.195 59.1656 200.344 58.8784 201.205 58.3042C202.08 57.7163 202.518 56.937 202.518 55.9663Z" fill="white"/>
<path d="M226.819 34.2896V39.6626H230.962V42.5952H226.819V56.356C226.819 57.2447 227.004 57.9146 227.373 58.3658C227.742 58.8033 228.371 59.022 229.26 59.022C229.697 59.022 230.299 58.94 231.064 58.7759V61.8521C230.066 62.1255 229.096 62.2622 228.152 62.2622C226.457 62.2622 225.179 61.7495 224.317 60.7242C223.456 59.6988 223.025 58.2427 223.025 56.356V42.5952H218.985V39.6626H223.025V34.2896H226.819Z" fill="white"/>
<path d="M246.138 43.0669C245.563 42.9712 244.941 42.9234 244.271 42.9234C241.783 42.9234 240.095 43.9829 239.206 46.1021V61.8521H235.412V39.6626H239.104L239.165 42.2261C240.409 40.2437 242.173 39.2525 244.456 39.2525C245.194 39.2525 245.755 39.3482 246.138 39.5396V43.0669Z" fill="white"/>
<path d="M253.767 61.8521H249.973V39.6626H253.767V61.8521ZM249.665 33.7769C249.665 33.1617 249.85 32.6421 250.219 32.2183C250.602 31.7945 251.162 31.5826 251.9 31.5826C252.639 31.5826 253.199 31.7945 253.582 32.2183C253.965 32.6421 254.156 33.1617 254.156 33.7769C254.156 34.3921 253.965 34.9048 253.582 35.315C253.199 35.7251 252.639 35.9302 251.9 35.9302C251.162 35.9302 250.602 35.7251 250.219 35.315C249.85 34.9048 249.665 34.3921 249.665 33.7769Z" fill="white"/>
<path d="M273.557 61.8521C273.338 61.4146 273.16 60.6353 273.023 59.5142C271.26 61.3462 269.154 62.2622 266.707 62.2622C264.52 62.2622 262.722 61.647 261.313 60.4165C259.919 59.1724 259.222 57.6001 259.222 55.6997C259.222 53.3892 260.097 51.5982 261.847 50.3267C263.61 49.0415 266.085 48.399 269.271 48.399H272.962V46.6558C272.962 45.3296 272.565 44.2769 271.772 43.4976C270.979 42.7046 269.811 42.3081 268.266 42.3081C266.912 42.3081 265.777 42.6499 264.861 43.3335C263.945 44.0171 263.487 44.8443 263.487 45.815H259.673C259.673 44.7076 260.062 43.6411 260.842 42.6158C261.635 41.5767 262.701 40.7564 264.041 40.1548C265.395 39.5533 266.878 39.2525 268.491 39.2525C271.048 39.2525 273.051 39.8951 274.5 41.1802C275.949 42.4517 276.701 44.2085 276.756 46.4507V56.6636C276.756 58.7007 277.016 60.3208 277.535 61.524V61.8521H273.557ZM267.261 58.9605C268.45 58.9605 269.578 58.6529 270.645 58.0376C271.711 57.4224 272.483 56.6226 272.962 55.6382V51.0855H269.988C265.34 51.0855 263.016 52.4458 263.016 55.1665C263.016 56.356 263.412 57.2857 264.205 57.9556C264.998 58.6255 266.017 58.9605 267.261 58.9605ZM270.768 30.3521H275.361L269.865 36.3814H266.81L270.768 30.3521Z" fill="white"/>
<path d="M286.292 39.6626L286.415 42.4517C288.11 40.3189 290.325 39.2525 293.06 39.2525C297.749 39.2525 300.114 41.898 300.155 47.189V61.8521H296.361V47.1685C296.348 45.5689 295.979 44.3863 295.254 43.6206C294.543 42.855 293.429 42.4722 291.911 42.4722C290.681 42.4722 289.601 42.8003 288.671 43.4566C287.741 44.1128 287.017 44.9742 286.497 46.0406V61.8521H282.703V39.6626H286.292Z" fill="white"/>
<path d="M304.975 50.5728C304.975 47.1138 305.774 44.3658 307.374 42.3286C308.974 40.2779 311.093 39.2525 313.731 39.2525C316.438 39.2525 318.551 40.2095 320.068 42.1236L320.253 39.6626H323.719V61.3189C323.719 64.19 322.864 66.4527 321.155 68.107C319.46 69.7613 317.177 70.5884 314.306 70.5884C312.706 70.5884 311.141 70.2466 309.609 69.563C308.078 68.8794 306.909 67.9429 306.103 66.7534L308.071 64.4771C309.698 66.4868 311.688 67.4917 314.039 67.4917C315.885 67.4917 317.32 66.9722 318.346 65.9331C319.385 64.8941 319.904 63.4312 319.904 61.5445V59.6372C318.387 61.3872 316.315 62.2622 313.69 62.2622C311.093 62.2622 308.987 61.2163 307.374 59.1245C305.774 57.0327 304.975 54.1822 304.975 50.5728ZM308.789 51.0034C308.789 53.5054 309.302 55.4742 310.327 56.9097C311.353 58.3316 312.788 59.0425 314.634 59.0425C317.026 59.0425 318.783 57.9556 319.904 55.7818V45.6509C318.742 43.5318 316.999 42.4722 314.675 42.4722C312.829 42.4722 311.387 43.19 310.348 44.6255C309.309 46.0611 308.789 48.187 308.789 51.0034Z" fill="white"/>
<path d="M343.16 59.6577C341.684 61.3941 339.517 62.2622 336.659 62.2622C334.294 62.2622 332.489 61.5786 331.245 60.2115C330.015 58.8306 329.393 56.7935 329.379 54.1001V39.6626H333.173V53.9976C333.173 57.3609 334.54 59.0425 337.274 59.0425C340.173 59.0425 342.101 57.9624 343.058 55.8023V39.6626H346.852V61.8521H343.242L343.16 59.6577Z" fill="white"/>
<path d="M356.757 61.8521H352.963V30.3521H356.757V61.8521Z" fill="white"/>
<path d="M361.843 50.5523C361.843 48.3784 362.267 46.4234 363.114 44.687C363.976 42.9507 365.165 41.6109 366.683 40.6675C368.214 39.7242 369.957 39.2525 371.912 39.2525C374.934 39.2525 377.374 40.2984 379.233 42.3902C381.106 44.482 382.043 47.2642 382.043 50.7368V51.0034C382.043 53.1636 381.626 55.105 380.792 56.8277C379.972 58.5367 378.789 59.8697 377.244 60.8267C375.713 61.7837 373.949 62.2622 371.953 62.2622C368.945 62.2622 366.505 61.2163 364.632 59.1245C362.772 57.0327 361.843 54.2642 361.843 50.8189V50.5523ZM365.657 51.0034C365.657 53.4644 366.225 55.44 367.359 56.9302C368.508 58.4204 370.039 59.1656 371.953 59.1656C373.881 59.1656 375.412 58.4136 376.547 56.9097C377.682 55.3921 378.249 53.273 378.249 50.5523C378.249 48.1187 377.668 46.1499 376.506 44.646C375.357 43.1284 373.826 42.3697 371.912 42.3697C370.039 42.3697 368.528 43.1148 367.38 44.605C366.231 46.0952 365.657 48.2281 365.657 51.0034Z" fill="white"/>
<path d="M399.721 55.9663C399.721 54.9409 399.331 54.148 398.552 53.5874C397.786 53.0132 396.439 52.521 394.512 52.1109C392.598 51.7007 391.073 51.2085 389.938 50.6343C388.817 50.0601 387.983 49.3765 387.437 48.5835C386.903 47.7906 386.637 46.8472 386.637 45.7534C386.637 43.9351 387.402 42.397 388.934 41.1392C390.479 39.8814 392.447 39.2525 394.84 39.2525C397.355 39.2525 399.393 39.9019 400.951 41.2007C402.523 42.4995 403.31 44.1607 403.31 46.1841H399.495C399.495 45.1451 399.051 44.2495 398.162 43.4976C397.287 42.7456 396.18 42.3697 394.84 42.3697C393.459 42.3697 392.379 42.6704 391.6 43.272C390.82 43.8736 390.431 44.6597 390.431 45.6304C390.431 46.5464 390.793 47.2368 391.518 47.7017C392.242 48.1665 393.548 48.6109 395.435 49.0347C397.335 49.4585 398.873 49.9644 400.049 50.5523C401.225 51.1402 402.093 51.8511 402.653 52.6851C403.228 53.5054 403.515 54.5103 403.515 55.6997C403.515 57.6822 402.722 59.2749 401.136 60.4781C399.55 61.6675 397.492 62.2622 394.963 62.2622C393.186 62.2622 391.613 61.9478 390.246 61.3189C388.879 60.69 387.806 59.815 387.026 58.6939C386.261 57.5591 385.878 56.3355 385.878 55.023H389.672C389.74 56.2945 390.246 57.3062 391.189 58.0581C392.146 58.7964 393.404 59.1656 394.963 59.1656C396.398 59.1656 397.547 58.8784 398.408 58.3042C399.283 57.7163 399.721 56.937 399.721 55.9663Z" fill="white"/>
<path d="M422.669 42.3492C424.351 40.2847 426.538 39.2525 429.231 39.2525C433.921 39.2525 436.286 41.898 436.327 47.189V61.8521H432.533V47.1685C432.52 45.5689 432.15 44.3863 431.426 43.6206C430.715 42.855 429.601 42.4722 428.083 42.4722C426.853 42.4722 425.772 42.8003 424.843 43.4566C423.913 44.1128 423.188 44.9742 422.669 46.0406V61.8521H418.875V30.3521H422.669V42.3492Z" fill="white"/>
<path d="M455.707 61.8521C455.488 61.4146 455.311 60.6353 455.174 59.5142C453.41 61.3462 451.305 62.2622 448.857 62.2622C446.67 62.2622 444.872 61.647 443.464 60.4165C442.069 59.1724 441.372 57.6001 441.372 55.6997C441.372 53.3892 442.247 51.5982 443.997 50.3267C445.761 49.0415 448.235 48.399 451.421 48.399H455.112V46.6558C455.112 45.3296 454.716 44.2769 453.923 43.4976C453.13 42.7046 451.961 42.3081 450.416 42.3081C449.062 42.3081 447.928 42.6499 447.012 43.3335C446.096 44.0171 445.638 44.8443 445.638 45.815H441.823C441.823 44.7076 442.213 43.6411 442.992 42.6158C443.785 41.5767 444.852 40.7564 446.191 40.1548C447.545 39.5533 449.028 39.2525 450.642 39.2525C453.198 39.2525 455.201 39.8951 456.65 41.1802C458.1 42.4517 458.852 44.2085 458.906 46.4507V56.6636C458.906 58.7007 459.166 60.3208 459.686 61.524V61.8521H455.707ZM449.411 58.9605C450.601 58.9605 451.729 58.6529 452.795 58.0376C453.861 57.4224 454.634 56.6226 455.112 55.6382V51.0855H452.139C447.49 51.0855 445.166 52.4458 445.166 55.1665C445.166 56.356 445.562 57.2857 446.355 57.9556C447.148 58.6255 448.167 58.9605 449.411 58.9605Z" fill="white"/>
<path d="M471.785 56.2945L476.953 39.6626H481.014L472.093 65.2769C470.712 68.9683 468.518 70.814 465.51 70.814L464.792 70.7525L463.377 70.4859V67.4097L464.402 67.4917C465.688 67.4917 466.686 67.232 467.396 66.7124C468.121 66.1929 468.716 65.2427 469.181 63.8618L470.021 61.606L462.105 39.6626H466.248L471.785 56.2945Z" fill="white"/>
<path d="M504.044 62.2622C501.036 62.2622 498.589 61.2779 496.702 59.3091C494.815 57.3267 493.872 54.6812 493.872 51.3726V50.6753C493.872 48.4742 494.289 46.5122 495.123 44.7896C495.971 43.0533 497.146 41.6997 498.65 40.729C500.168 39.7447 501.809 39.2525 503.572 39.2525C506.457 39.2525 508.699 40.2027 510.299 42.1031C511.898 44.0034 512.698 46.7242 512.698 50.2652V51.8443H497.666C497.721 54.0318 498.356 55.8023 499.573 57.1558C500.804 58.4956 502.362 59.1656 504.249 59.1656C505.589 59.1656 506.724 58.8921 507.653 58.3452C508.583 57.7984 509.396 57.0738 510.094 56.1714L512.411 57.9761C510.552 60.8335 507.763 62.2622 504.044 62.2622ZM503.572 42.3697C502.041 42.3697 500.756 42.9302 499.717 44.0513C498.678 45.1587 498.035 46.7173 497.789 48.7271H508.904V48.44C508.795 46.5122 508.275 45.022 507.346 43.9693C506.416 42.9029 505.158 42.3697 503.572 42.3697Z" fill="white"/>
<path d="M520.696 39.6626L520.819 42.4517C522.515 40.3189 524.729 39.2525 527.464 39.2525C532.153 39.2525 534.519 41.898 534.56 47.189V61.8521H530.766V47.1685C530.752 45.5689 530.383 44.3863 529.658 43.6206C528.947 42.855 527.833 42.4722 526.315 42.4722C525.085 42.4722 524.005 42.8003 523.075 43.4566C522.146 44.1128 521.421 44.9742 520.901 46.0406V61.8521H517.107V39.6626H520.696Z" fill="white"/>
<path d="M554.821 61.8521H551.027V30.3521H554.821V61.8521Z" fill="white"/>
<path d="M574.611 61.8521C574.393 61.4146 574.215 60.6353 574.078 59.5142C572.314 61.3462 570.209 62.2622 567.762 62.2622C565.574 62.2622 563.776 61.647 562.368 60.4165C560.974 59.1724 560.276 57.6001 560.276 55.6997C560.276 53.3892 561.151 51.5982 562.901 50.3267C564.665 49.0415 567.14 48.399 570.325 48.399H574.017V46.6558C574.017 45.3296 573.62 44.2769 572.827 43.4976C572.034 42.7046 570.865 42.3081 569.32 42.3081C567.967 42.3081 566.832 42.6499 565.916 43.3335C565 44.0171 564.542 44.8443 564.542 45.815H560.728C560.728 44.7076 561.117 43.6411 561.896 42.6158C562.689 41.5767 563.756 40.7564 565.096 40.1548C566.449 39.5533 567.933 39.2525 569.546 39.2525C572.103 39.2525 574.105 39.8951 575.555 41.1802C577.004 42.4517 577.756 44.2085 577.811 46.4507V56.6636C577.811 58.7007 578.07 60.3208 578.59 61.524V61.8521H574.611ZM568.315 58.9605C569.505 58.9605 570.633 58.6529 571.699 58.0376C572.766 57.4224 573.538 56.6226 574.017 55.6382V51.0855H571.043C566.395 51.0855 564.07 52.4458 564.07 55.1665C564.07 56.356 564.467 57.2857 565.26 57.9556C566.053 58.6255 567.071 58.9605 568.315 58.9605Z" fill="white"/>
<path d="M607.096 55.9663C607.096 54.9409 606.706 54.148 605.927 53.5874C605.161 53.0132 603.814 52.521 601.887 52.1109C599.973 51.7007 598.448 51.2085 597.313 50.6343C596.192 50.0601 595.358 49.3765 594.812 48.5835C594.278 47.7906 594.012 46.8472 594.012 45.7534C594.012 43.9351 594.777 42.397 596.309 41.1392C597.854 39.8814 599.822 39.2525 602.215 39.2525C604.73 39.2525 606.768 39.9019 608.326 41.2007C609.898 42.4995 610.685 44.1607 610.685 46.1841H606.87C606.87 45.1451 606.426 44.2495 605.537 43.4976C604.662 42.7456 603.555 42.3697 602.215 42.3697C600.834 42.3697 599.754 42.6704 598.975 43.272C598.195 43.8736 597.806 44.6597 597.806 45.6304C597.806 46.5464 598.168 47.2368 598.893 47.7017C599.617 48.1665 600.923 48.6109 602.81 49.0347C604.71 49.4585 606.248 49.9644 607.424 50.5523C608.6 51.1402 609.468 51.8511 610.028 52.6851C610.603 53.5054 610.89 54.5103 610.89 55.6997C610.89 57.6822 610.097 59.2749 608.511 60.4781C606.925 61.6675 604.867 62.2622 602.338 62.2622C600.561 62.2622 598.988 61.9478 597.621 61.3189C596.254 60.69 595.181 59.815 594.401 58.6939C593.636 57.5591 593.253 56.3355 593.253 55.023H597.047C597.115 56.2945 597.621 57.3062 598.564 58.0581C599.521 58.7964 600.779 59.1656 602.338 59.1656C603.773 59.1656 604.922 58.8784 605.783 58.3042C606.658 57.7163 607.096 56.937 607.096 55.9663Z" fill="white"/>
<path d="M619.954 61.8521H616.16V39.6626H619.954V61.8521ZM615.853 33.7769C615.853 33.1617 616.037 32.6421 616.406 32.2183C616.789 31.7945 617.35 31.5826 618.088 31.5826C618.826 31.5826 619.387 31.7945 619.77 32.2183C620.152 32.6421 620.344 33.1617 620.344 33.7769C620.344 34.3921 620.152 34.9048 619.77 35.315C619.387 35.7251 618.826 35.9302 618.088 35.9302C617.35 35.9302 616.789 35.7251 616.406 35.315C616.037 34.9048 615.853 34.3921 615.853 33.7769Z" fill="white"/>
<path d="M625.143 50.5728C625.143 47.1138 625.942 44.3658 627.542 42.3286C629.142 40.2779 631.261 39.2525 633.899 39.2525C636.606 39.2525 638.719 40.2095 640.236 42.1236L640.421 39.6626H643.887V61.3189C643.887 64.19 643.032 66.4527 641.323 68.107C639.628 69.7613 637.345 70.5884 634.474 70.5884C632.874 70.5884 631.309 70.2466 629.777 69.563C628.246 68.8794 627.077 67.9429 626.271 66.7534L628.239 64.4771C629.866 66.4868 631.855 67.4917 634.207 67.4917C636.053 67.4917 637.488 66.9722 638.514 65.9331C639.553 64.8941 640.072 63.4312 640.072 61.5445V59.6372C638.555 61.3872 636.483 62.2622 633.858 62.2622C631.261 62.2622 629.155 61.2163 627.542 59.1245C625.942 57.0327 625.143 54.1822 625.143 50.5728ZM628.957 51.0034C628.957 53.5054 629.47 55.4742 630.495 56.9097C631.521 58.3316 632.956 59.0425 634.802 59.0425C637.194 59.0425 638.951 57.9556 640.072 55.7818V45.6509C638.91 43.5318 637.167 42.4722 634.843 42.4722C632.997 42.4722 631.555 43.19 630.516 44.6255C629.477 46.0611 628.957 48.187 628.957 51.0034Z" fill="white"/>
<path d="M663.328 59.6577C661.852 61.3941 659.685 62.2622 656.827 62.2622C654.462 62.2622 652.657 61.5786 651.413 60.2115C650.183 58.8306 649.561 56.7935 649.547 54.1001V39.6626H653.341V53.9976C653.341 57.3609 654.708 59.0425 657.442 59.0425C660.341 59.0425 662.269 57.9624 663.226 55.8023V39.6626H667.02V61.8521H663.41L663.328 59.6577Z" fill="white"/>
<path d="M676.925 61.8521H673.131V39.6626H676.925V61.8521ZM672.823 33.7769C672.823 33.1617 673.008 32.6421 673.377 32.2183C673.76 31.7945 674.32 31.5826 675.059 31.5826C675.797 31.5826 676.357 31.7945 676.74 32.2183C677.123 32.6421 677.314 33.1617 677.314 33.7769C677.314 34.3921 677.123 34.9048 676.74 35.315C676.357 35.7251 675.797 35.9302 675.059 35.9302C674.32 35.9302 673.76 35.7251 673.377 35.315C673.008 34.9048 672.823 34.3921 672.823 33.7769Z" fill="white"/>
<path d="M692.224 62.2622C689.216 62.2622 686.769 61.2779 684.882 59.3091C682.995 57.3267 682.052 54.6812 682.052 51.3726V50.6753C682.052 48.4742 682.469 46.5122 683.303 44.7896C684.15 43.0533 685.326 41.6997 686.83 40.729C688.348 39.7447 689.988 39.2525 691.752 39.2525C694.637 39.2525 696.879 40.2027 698.479 42.1031C700.078 44.0034 700.878 46.7242 700.878 50.2652V51.8443H685.846C685.9 54.0318 686.536 55.8023 687.753 57.1558C688.983 58.4956 690.542 59.1656 692.429 59.1656C693.769 59.1656 694.903 58.8921 695.833 58.3452C696.763 57.7984 697.576 57.0738 698.273 56.1714L700.591 57.9761C698.731 60.8335 695.942 62.2622 692.224 62.2622ZM691.752 42.3697C690.221 42.3697 688.936 42.9302 687.896 44.0513C686.857 45.1587 686.215 46.7173 685.969 48.7271H697.084V48.44C696.975 46.5122 696.455 45.022 695.525 43.9693C694.596 42.9029 693.338 42.3697 691.752 42.3697Z" fill="white"/>
<path d="M708.876 39.6626L708.999 42.4517C710.694 40.3189 712.909 39.2525 715.644 39.2525C720.333 39.2525 722.698 41.898 722.739 47.189V61.8521H718.945V47.1685C718.932 45.5689 718.562 44.3863 717.838 43.6206C717.127 42.855 716.013 42.4722 714.495 42.4722C713.265 42.4722 712.185 42.8003 711.255 43.4566C710.325 44.1128 709.601 44.9742 709.081 46.0406V61.8521H705.287V39.6626H708.876Z" fill="white"/>
<path d="M733.608 34.2896V39.6626H737.751V42.5952H733.608V56.356C733.608 57.2447 733.793 57.9146 734.162 58.3658C734.531 58.8033 735.16 59.022 736.049 59.022C736.486 59.022 737.088 58.94 737.854 58.7759V61.8521C736.855 62.1255 735.885 62.2622 734.941 62.2622C733.246 62.2622 731.968 61.7495 731.106 60.7242C730.245 59.6988 729.814 58.2427 729.814 56.356V42.5952H725.774V39.6626H729.814V34.2896H733.608Z" fill="white"/>
<path d="M751.409 62.2622C748.401 62.2622 745.954 61.2779 744.067 59.3091C742.181 57.3267 741.237 54.6812 741.237 51.3726V50.6753C741.237 48.4742 741.654 46.5122 742.488 44.7896C743.336 43.0533 744.512 41.6997 746.016 40.729C747.533 39.7447 749.174 39.2525 750.938 39.2525C753.822 39.2525 756.064 40.2027 757.664 42.1031C759.264 44.0034 760.063 46.7242 760.063 50.2652V51.8443H745.031C745.086 54.0318 745.722 55.8023 746.938 57.1558C748.169 58.4956 749.728 59.1656 751.614 59.1656C752.954 59.1656 754.089 58.8921 755.019 58.3452C755.948 57.7984 756.762 57.0738 757.459 56.1714L759.776 57.9761C757.917 60.8335 755.128 62.2622 751.409 62.2622ZM750.938 42.3697C749.406 42.3697 748.121 42.9302 747.082 44.0513C746.043 45.1587 745.4 46.7173 745.154 48.7271H756.27V48.44C756.16 46.5122 755.641 45.022 754.711 43.9693C753.781 42.9029 752.523 42.3697 750.938 42.3697Z" fill="white"/>
<path d="M37.1426 110.852V91.5952H33.6357V88.6626H37.1426V86.7759C37.1426 84.3013 37.8467 82.3736 39.2549 80.9927C40.6768 79.6118 42.6797 78.9214 45.2637 78.9214C46.7949 78.9214 48.7295 79.3384 51.0674 80.1724L50.4316 83.3716C48.7227 82.688 47.0957 82.3462 45.5508 82.3462C43.9238 82.3462 42.748 82.7154 42.0234 83.4536C41.3125 84.1783 40.957 85.272 40.957 86.7349V88.6626H45.4893V91.5952H40.957V110.852H37.1426ZM52.9541 110.852H49.1396V88.6626H52.9541V110.852Z" fill="white"/>
<path d="M58.2246 99.5728C58.2246 96.1138 59.0244 93.3658 60.624 91.3286C62.2236 89.2779 64.3428 88.2525 66.9814 88.2525C69.6885 88.2525 71.8008 89.2095 73.3184 91.1236L73.5029 88.6626H76.9688V110.319C76.9688 113.19 76.1143 115.453 74.4053 117.107C72.71 118.761 70.4268 119.588 67.5557 119.588C65.9561 119.588 64.3906 119.247 62.8594 118.563C61.3281 117.879 60.1592 116.943 59.3525 115.753L61.3213 113.477C62.9482 115.487 64.9375 116.492 67.2891 116.492C69.1348 116.492 70.5703 115.972 71.5957 114.933C72.6348 113.894 73.1543 112.431 73.1543 110.544V108.637C71.6367 110.387 69.5654 111.262 66.9404 111.262C64.3428 111.262 62.2373 110.216 60.624 108.125C59.0244 106.033 58.2246 103.182 58.2246 99.5728ZM62.0391 100.003C62.0391 102.505 62.5518 104.474 63.5771 105.91C64.6025 107.332 66.0381 108.043 67.8838 108.043C70.2764 108.043 72.0332 106.956 73.1543 104.782V94.6509C71.9922 92.5318 70.249 91.4722 67.9248 91.4722C66.0791 91.4722 64.6367 92.19 63.5977 93.6255C62.5586 95.0611 62.0391 97.187 62.0391 100.003Z" fill="white"/>
<path d="M96.4102 108.658C94.9336 110.394 92.7666 111.262 89.9092 111.262C87.5439 111.262 85.7393 110.579 84.4951 109.211C83.2646 107.831 82.6426 105.793 82.6289 103.1V88.6626H86.4229V102.998C86.4229 106.361 87.79 108.043 90.5244 108.043C93.4229 108.043 95.3506 106.962 96.3076 104.802V88.6626H100.102V110.852H96.4922L96.4102 108.658Z" fill="white"/>
<path d="M116.61 92.0669C116.036 91.9712 115.414 91.9234 114.744 91.9234C112.256 91.9234 110.567 92.9829 109.679 95.1021V110.852H105.885V88.6626H109.576L109.638 91.2261C110.882 89.2437 112.646 88.2525 114.929 88.2525C115.667 88.2525 116.228 88.3482 116.61 88.5396V92.0669Z" fill="white"/>
<path d="M132.996 110.852C132.777 110.415 132.6 109.635 132.463 108.514C130.699 110.346 128.594 111.262 126.146 111.262C123.959 111.262 122.161 110.647 120.753 109.417C119.358 108.172 118.661 106.6 118.661 104.7C118.661 102.389 119.536 100.598 121.286 99.3267C123.05 98.0415 125.524 97.399 128.71 97.399H132.401V95.6558C132.401 94.3296 132.005 93.2769 131.212 92.4976C130.419 91.7046 129.25 91.3081 127.705 91.3081C126.352 91.3081 125.217 91.6499 124.301 92.3335C123.385 93.0171 122.927 93.8443 122.927 94.815H119.112C119.112 93.7076 119.502 92.6411 120.281 91.6158C121.074 90.5767 122.141 89.7564 123.48 89.1548C124.834 88.5533 126.317 88.2525 127.931 88.2525C130.487 88.2525 132.49 88.8951 133.939 90.1802C135.389 91.4517 136.141 93.2085 136.195 95.4507V105.664C136.195 107.701 136.455 109.321 136.975 110.524V110.852H132.996ZM126.7 107.96C127.89 107.96 129.018 107.653 130.084 107.038C131.15 106.422 131.923 105.623 132.401 104.638V100.085H129.428C124.779 100.085 122.455 101.446 122.455 104.167C122.455 105.356 122.852 106.286 123.645 106.956C124.438 107.626 125.456 107.96 126.7 107.96Z" fill="white"/>
<path d="M146.593 102.444C146.62 100.817 146.805 99.5318 147.146 98.5884C147.488 97.6451 148.186 96.5992 149.238 95.4507L151.925 92.6822C153.073 91.3833 153.647 89.9888 153.647 88.4986C153.647 87.063 153.271 85.9419 152.52 85.1353C151.768 84.315 150.674 83.9048 149.238 83.9048C147.844 83.9048 146.723 84.274 145.875 85.0122C145.027 85.7505 144.604 86.7417 144.604 87.9859H140.81C140.837 85.771 141.623 83.9868 143.168 82.6333C144.727 81.2661 146.75 80.5826 149.238 80.5826C151.822 80.5826 153.832 81.2798 155.268 82.6743C156.717 84.0552 157.441 85.9556 157.441 88.3755C157.441 90.7681 156.334 93.1265 154.119 95.4507L151.884 97.6656C150.886 98.773 150.387 100.366 150.387 102.444H146.593ZM146.429 108.945C146.429 108.33 146.613 107.817 146.982 107.407C147.365 106.983 147.926 106.771 148.664 106.771C149.402 106.771 149.963 106.983 150.346 107.407C150.729 107.817 150.92 108.33 150.92 108.945C150.92 109.56 150.729 110.073 150.346 110.483C149.963 110.879 149.402 111.078 148.664 111.078C147.926 111.078 147.365 110.879 146.982 110.483C146.613 110.073 146.429 109.56 146.429 108.945Z" fill="white"/>
</g>
<g id="Group 50">
<g id="Group 49">
<g id="Group 44">
<path id="Rectangle 19 (Stroke)" fill-rule="evenodd" clip-rule="evenodd" d="M254 150H160V194H254V150ZM157 147V197H257V147H157Z" fill="white"/>
<path id="Line 16 (Stroke)" fill-rule="evenodd" clip-rule="evenodd" d="M257 150L160 196L158.715 193.289L255.715 147.289L257 150Z" fill="white"/>
<path id="Line 17 (Stroke)" fill-rule="evenodd" clip-rule="evenodd" d="M254 195L158 150L159.273 147.284L255.273 192.284L254 195Z" fill="white"/>
</g>
<g id="Group 45">
<path id="Rectangle 19 (Stroke)_2" fill-rule="evenodd" clip-rule="evenodd" d="M351 150H257V194H351V150ZM254 147V197H354V147H254Z" fill="white"/>
<path id="Line 16 (Stroke)_2" fill-rule="evenodd" clip-rule="evenodd" d="M354 150L257 196L255.715 193.289L352.715 147.289L354 150Z" fill="white"/>
<path id="Line 17 (Stroke)_2" fill-rule="evenodd" clip-rule="evenodd" d="M351 195L255 150L256.273 147.284L352.273 192.284L351 195Z" fill="white"/>
</g>
<g id="Group 46">
<path id="Rectangle 19 (Stroke)_3" fill-rule="evenodd" clip-rule="evenodd" d="M448 150H354V194H448V150ZM351 147V197H451V147H351Z" fill="white"/>
<path id="Line 16 (Stroke)_3" fill-rule="evenodd" clip-rule="evenodd" d="M451 150L354 196L352.715 193.289L449.715 147.289L451 150Z" fill="white"/>
<path id="Line 17 (Stroke)_3" fill-rule="evenodd" clip-rule="evenodd" d="M448 195L352 150L353.273 147.284L449.273 192.284L448 195Z" fill="white"/>
</g>
<g id="Group 47">
<path id="Rectangle 19 (Stroke)_4" fill-rule="evenodd" clip-rule="evenodd" d="M670 150H576V194H670V150ZM573 147V197H673V147H573Z" fill="white"/>
<path id="Line 16 (Stroke)_4" fill-rule="evenodd" clip-rule="evenodd" d="M673 150L576 196L574.715 193.289L671.715 147.289L673 150Z" fill="white"/>
<path id="Line 17 (Stroke)_4" fill-rule="evenodd" clip-rule="evenodd" d="M670 195L574 150L575.273 147.284L671.273 192.284L670 195Z" fill="white"/>
</g>
<g id="Group 48">
<path id="Rectangle 19 (Stroke)_5" fill-rule="evenodd" clip-rule="evenodd" d="M767 150H673V194H767V150ZM670 147V197H770V147H670Z" fill="white"/>
<path id="Line 16 (Stroke)_5" fill-rule="evenodd" clip-rule="evenodd" d="M770 150L673 196L671.715 193.289L768.715 147.289L770 150Z" fill="white"/>
<path id="Line 17 (Stroke)_5" fill-rule="evenodd" clip-rule="evenodd" d="M767 195L671 150L672.273 147.284L768.273 192.284L767 195Z" fill="white"/>
</g>
<path id="Line 18 (Stroke)" fill-rule="evenodd" clip-rule="evenodd" d="M449 148.5C449 147.672 449.672 147 450.5 147H455.542C456.37 147 457.042 147.672 457.042 148.5C457.042 149.328 456.37 150 455.542 150H450.5C449.672 150 449 149.328 449 148.5ZM464.125 148.5C464.125 147.672 464.797 147 465.625 147H475.708C476.537 147 477.208 147.672 477.208 148.5C477.208 149.328 476.537 150 475.708 150H465.625C464.797 150 464.125 149.328 464.125 148.5ZM484.292 148.5C484.292 147.672 484.963 147 485.792 147H495.875C496.703 147 497.375 147.672 497.375 148.5C497.375 149.328 496.703 150 495.875 150H485.792C484.963 150 484.292 149.328 484.292 148.5ZM504.458 148.5C504.458 147.672 505.13 147 505.958 147H516.042C516.87 147 517.542 147.672 517.542 148.5C517.542 149.328 516.87 150 516.042 150H505.958C505.13 150 504.458 149.328 504.458 148.5ZM524.625 148.5C524.625 147.672 525.297 147 526.125 147H536.208C537.037 147 537.708 147.672 537.708 148.5C537.708 149.328 537.037 150 536.208 150H526.125C525.297 150 524.625 149.328 524.625 148.5ZM544.792 148.5C544.792 147.672 545.463 147 546.292 147H556.375C557.203 147 557.875 147.672 557.875 148.5C557.875 149.328 557.203 150 556.375 150H546.292C545.463 150 544.792 149.328 544.792 148.5ZM564.958 148.5C564.958 147.672 565.63 147 566.458 147H571.5C572.328 147 573 147.672 573 148.5C573 149.328 572.328 150 571.5 150H566.458C565.63 150 564.958 149.328 564.958 148.5Z" fill="white"/>
<path id="Line 19 (Stroke)" fill-rule="evenodd" clip-rule="evenodd" d="M450 195.5C450 194.672 450.672 194 451.5 194H456.542C457.37 194 458.042 194.672 458.042 195.5C458.042 196.328 457.37 197 456.542 197H451.5C450.672 197 450 196.328 450 195.5ZM465.125 195.5C465.125 194.672 465.797 194 466.625 194H476.708C477.537 194 478.208 194.672 478.208 195.5C478.208 196.328 477.537 197 476.708 197H466.625C465.797 197 465.125 196.328 465.125 195.5ZM485.292 195.5C485.292 194.672 485.963 194 486.792 194H496.875C497.703 194 498.375 194.672 498.375 195.5C498.375 196.328 497.703 197 496.875 197H486.792C485.963 197 485.292 196.328 485.292 195.5ZM505.458 195.5C505.458 194.672 506.13 194 506.958 194H517.042C517.87 194 518.542 194.672 518.542 195.5C518.542 196.328 517.87 197 517.042 197H506.958C506.13 197 505.458 196.328 505.458 195.5ZM525.625 195.5C525.625 194.672 526.297 194 527.125 194H537.208C538.037 194 538.708 194.672 538.708 195.5C538.708 196.328 538.037 197 537.208 197H527.125C526.297 197 525.625 196.328 525.625 195.5ZM545.792 195.5C545.792 194.672 546.463 194 547.292 194H557.375C558.203 194 558.875 194.672 558.875 195.5C558.875 196.328 558.203 197 557.375 197H547.292C546.463 197 545.792 196.328 545.792 195.5ZM565.958 195.5C565.958 194.672 566.63 194 567.458 194H572.5C573.328 194 574 194.672 574 195.5C574 196.328 573.328 197 572.5 197H567.458C566.63 197 565.958 196.328 565.958 195.5Z" fill="white"/>
</g>
<g id="1 2 3 30 31">
<path d="M205.95 261H202.136V235.714L194.486 238.523V235.078L205.355 230.997H205.95V261Z" fill="white"/>
<path d="M309.556 261H289.991V258.272L300.327 246.788C301.858 245.052 302.911 243.644 303.485 242.563C304.073 241.47 304.367 240.342 304.367 239.18C304.367 237.621 303.896 236.343 302.952 235.345C302.009 234.347 300.751 233.848 299.179 233.848C297.292 233.848 295.822 234.388 294.77 235.468C293.73 236.534 293.211 238.024 293.211 239.938H289.417C289.417 237.19 290.299 234.969 292.062 233.273C293.84 231.578 296.212 230.73 299.179 230.73C301.954 230.73 304.148 231.462 305.762 232.925C307.375 234.374 308.182 236.309 308.182 238.729C308.182 241.668 306.309 245.168 302.562 249.229L294.564 257.903H309.556V261Z" fill="white"/>
<path d="M392.018 244.225H394.868C396.659 244.197 398.067 243.726 399.093 242.81C400.118 241.894 400.631 240.656 400.631 239.098C400.631 235.598 398.888 233.848 395.401 233.848C393.761 233.848 392.448 234.319 391.464 235.263C390.493 236.192 390.008 237.43 390.008 238.975H386.214C386.214 236.609 387.075 234.647 388.798 233.089C390.534 231.517 392.735 230.73 395.401 230.73C398.218 230.73 400.426 231.476 402.025 232.966C403.625 234.456 404.425 236.527 404.425 239.18C404.425 240.479 404.001 241.736 403.153 242.953C402.319 244.17 401.178 245.079 399.729 245.681C401.369 246.2 402.634 247.062 403.522 248.265C404.425 249.468 404.876 250.938 404.876 252.674C404.876 255.354 404.001 257.479 402.251 259.052C400.501 260.624 398.225 261.41 395.422 261.41C392.619 261.41 390.336 260.651 388.572 259.134C386.822 257.616 385.947 255.613 385.947 253.125H389.762C389.762 254.697 390.274 255.955 391.3 256.898C392.325 257.842 393.699 258.313 395.422 258.313C397.254 258.313 398.655 257.835 399.626 256.878C400.597 255.921 401.082 254.547 401.082 252.756C401.082 251.02 400.549 249.687 399.482 248.757C398.416 247.827 396.878 247.349 394.868 247.321H392.018V244.225Z" fill="white"/>
<path d="M613.543 244.225H616.394C618.185 244.197 619.593 243.726 620.618 242.81C621.644 241.894 622.156 240.656 622.156 239.098C622.156 235.598 620.413 233.848 616.927 233.848C615.286 233.848 613.974 234.319 612.989 235.263C612.019 236.192 611.533 237.43 611.533 238.975H607.739C607.739 236.609 608.601 234.647 610.323 233.089C612.06 231.517 614.261 230.73 616.927 230.73C619.743 230.73 621.951 231.476 623.551 232.966C625.15 234.456 625.95 236.527 625.95 239.18C625.95 240.479 625.526 241.736 624.679 242.953C623.845 244.17 622.703 245.079 621.254 245.681C622.895 246.2 624.159 247.062 625.048 248.265C625.95 249.468 626.401 250.938 626.401 252.674C626.401 255.354 625.526 257.479 623.776 259.052C622.026 260.624 619.75 261.41 616.947 261.41C614.145 261.41 611.861 260.651 610.098 259.134C608.348 257.616 607.473 255.613 607.473 253.125H611.287C611.287 254.697 611.8 255.955 612.825 256.898C613.851 257.842 615.225 258.313 616.947 258.313C618.779 258.313 620.181 257.835 621.151 256.878C622.122 255.921 622.607 254.547 622.607 252.756C622.607 251.02 622.074 249.687 621.008 248.757C619.941 247.827 618.403 247.349 616.394 247.321H613.543V244.225Z" fill="white"/>
<path d="M650.334 248.265C650.334 252.708 649.575 256.01 648.058 258.17C646.54 260.33 644.168 261.41 640.941 261.41C637.756 261.41 635.397 260.357 633.866 258.252C632.335 256.133 631.542 252.975 631.487 248.777V243.712C631.487 239.323 632.246 236.062 633.764 233.93C635.281 231.797 637.66 230.73 640.9 230.73C644.113 230.73 646.479 231.763 647.996 233.827C649.514 235.878 650.293 239.05 650.334 243.343V248.265ZM646.54 243.076C646.54 239.863 646.089 237.525 645.187 236.062C644.284 234.586 642.855 233.848 640.9 233.848C638.959 233.848 637.544 234.579 636.655 236.042C635.767 237.505 635.309 239.754 635.281 242.789V248.859C635.281 252.086 635.746 254.472 636.676 256.017C637.619 257.548 639.041 258.313 640.941 258.313C642.814 258.313 644.202 257.589 645.104 256.14C646.021 254.69 646.499 252.407 646.54 249.29V243.076Z" fill="white"/>
<path d="M723.219 244.225H726.069C727.86 244.197 729.269 243.726 730.294 242.81C731.319 241.894 731.832 240.656 731.832 239.098C731.832 235.598 730.089 233.848 726.603 233.848C724.962 233.848 723.649 234.319 722.665 235.263C721.694 236.192 721.209 237.43 721.209 238.975H717.415C717.415 236.609 718.276 234.647 719.999 233.089C721.735 231.517 723.937 230.73 726.603 230.73C729.419 230.73 731.627 231.476 733.227 232.966C734.826 234.456 735.626 236.527 735.626 239.18C735.626 240.479 735.202 241.736 734.354 242.953C733.521 244.17 732.379 245.079 730.93 245.681C732.57 246.2 733.835 247.062 734.724 248.265C735.626 249.468 736.077 250.938 736.077 252.674C736.077 255.354 735.202 257.479 733.452 259.052C731.702 260.624 729.426 261.41 726.623 261.41C723.82 261.41 721.537 260.651 719.773 259.134C718.023 257.616 717.148 255.613 717.148 253.125H720.963C720.963 254.697 721.476 255.955 722.501 256.898C723.526 257.842 724.9 258.313 726.623 258.313C728.455 258.313 729.856 257.835 730.827 256.878C731.798 255.921 732.283 254.547 732.283 252.756C732.283 251.02 731.75 249.687 730.684 248.757C729.617 247.827 728.079 247.349 726.069 247.321H723.219V244.225Z" fill="white"/>
<path d="M753.755 261H749.94V235.714L742.291 238.523V235.078L753.16 230.997H753.755V261Z" fill="white"/>
</g>
</g>
</g>
<g id="claves">
<path id="Rectangle 4" d="M39 339H255.745L289 379L255.745 419H39V339Z" fill="#CD08D1" fill-opacity="0.1"/>
<path id="Rectangle 4 (Stroke)" fill-rule="evenodd" clip-rule="evenodd" d="M254.338 342H42V416H254.338L285.099 379L254.338 342ZM255.745 339H39V419H255.745L289 379L255.745 339Z" fill="#CD08D1"/>
<path id="Rectangle 5" d="M43 449H259.745L293 489L259.745 529H43V449Z" fill="#CD08D1" fill-opacity="0.1"/>
<path id="Rectangle 5 (Stroke)" fill-rule="evenodd" clip-rule="evenodd" d="M258.338 452H46V526H258.338L289.099 489L258.338 452ZM259.745 449H43V529H259.745L293 489L259.745 449Z" fill="#CD08D1"/>
<path id="Rectangle 6" d="M379 336H595.745L629 376L595.745 416H379V336Z" fill="#CD08D1" fill-opacity="0.1"/>
<path id="Rectangle 6 (Stroke)" fill-rule="evenodd" clip-rule="evenodd" d="M594.338 339H382V413H594.338L625.099 376L594.338 339ZM595.745 336H379V416H595.745L629 376L595.745 336Z" fill="#CD08D1"/>
<path id="Rectangle 7" d="M382 446H598.745L632 486L598.745 526H382V446Z" fill="#CD08D1" fill-opacity="0.1"/>
<path id="Rectangle 7 (Stroke)" fill-rule="evenodd" clip-rule="evenodd" d="M597.338 449H385V523H597.338L628.099 486L597.338 449ZM598.745 446H382V526H598.745L632 486L598.745 446Z" fill="#CD08D1"/>
<path id="Rectangle 8" d="M725 395H941.745L975 435L941.745 475H725V395Z" fill="#CD08D1" fill-opacity="0.1"/>
<path id="Rectangle 8 (Stroke)" fill-rule="evenodd" clip-rule="evenodd" d="M940.338 398H728V472H940.338L971.099 435L940.338 398ZM941.745 395H725V475H941.745L975 435L941.745 395Z" fill="#CD08D1"/>
<path id="Ellipse 1" d="M80 379C80 401.091 62.0914 419 40 419C17.9086 419 0 401.091 0 379C0 356.909 17.9086 339 40 339C62.0914 339 80 356.909 80 379Z" fill="#CD08D1"/>
<path id="Ellipse 2" d="M84 489C84 511.091 66.0914 529 44 529C21.9086 529 4 511.091 4 489C4 466.909 21.9086 449 44 449C66.0914 449 84 466.909 84 489Z" fill="#CD08D1"/>
<path id="Ellipse 3" d="M420 376C420 398.091 402.091 416 380 416C357.909 416 340 398.091 340 376C340 353.909 357.909 336 380 336C402.091 336 420 353.909 420 376Z" fill="#CD08D1"/>
<path id="Ellipse 4" d="M423 486C423 508.091 405.091 526 383 526C360.909 526 343 508.091 343 486C343 463.909 360.909 446 383 446C405.091 446 423 463.909 423 486Z" fill="#CD08D1"/>
<path id="Ellipse 5" d="M766 435C766 457.091 748.091 475 726 475C703.909 475 686 457.091 686 435C686 412.909 703.909 395 726 395C748.091 395 766 412.909 766 435Z" fill="#CD08D1"/>
<path id="A" d="M48.0938 389.406H30.4688L26.7812 400H18.5625L35.75 354.5H42.8438L60.0625 400H51.8125L48.0938 389.406ZM32.6875 383.031H45.875L39.2812 364.156L32.6875 383.031Z" fill="white"/>
<path id="B" d="M27.625 505V459.5H43.2188C48.3646 459.5 52.2812 460.531 54.9688 462.594C57.6562 464.656 59 467.729 59 471.812C59 473.896 58.4375 475.771 57.3125 477.438C56.1875 479.104 54.5417 480.396 52.375 481.312C54.8333 481.979 56.7292 483.24 58.0625 485.094C59.4167 486.927 60.0938 489.135 60.0938 491.719C60.0938 495.99 58.7188 499.271 55.9688 501.562C53.2396 503.854 49.3229 505 44.2188 505H27.625ZM35.5312 484.469V498.688H44.3125C46.7917 498.688 48.7292 498.073 50.125 496.844C51.5208 495.615 52.2188 493.906 52.2188 491.719C52.2188 486.99 49.8021 484.573 44.9688 484.469H35.5312ZM35.5312 478.656H43.2812C45.7396 478.656 47.6562 478.104 49.0312 477C50.4271 475.875 51.125 474.292 51.125 472.25C51.125 470 50.4792 468.375 49.1875 467.375C47.9167 466.375 45.9271 465.875 43.2188 465.875H35.5312V478.656Z" fill="white"/>
<path id="C" d="M397.344 383.188C396.885 388.042 395.094 391.833 391.969 394.562C388.844 397.271 384.688 398.625 379.5 398.625C375.875 398.625 372.677 397.771 369.906 396.062C367.156 394.333 365.031 391.885 363.531 388.719C362.031 385.552 361.25 381.875 361.188 377.688V373.438C361.188 369.146 361.948 365.365 363.469 362.094C364.99 358.823 367.167 356.302 370 354.531C372.854 352.76 376.146 351.875 379.875 351.875C384.896 351.875 388.938 353.24 392 355.969C395.062 358.698 396.844 362.552 397.344 367.531H389.469C389.094 364.26 388.135 361.906 386.594 360.469C385.073 359.01 382.833 358.281 379.875 358.281C376.438 358.281 373.792 359.542 371.938 362.062C370.104 364.562 369.167 368.24 369.125 373.094V377.125C369.125 382.042 370 385.792 371.75 388.375C373.521 390.958 376.104 392.25 379.5 392.25C382.604 392.25 384.938 391.552 386.5 390.156C388.062 388.76 389.052 386.438 389.469 383.188H397.344Z" fill="white"/>
<path id="D" d="M365.625 508V462.5H379.062C383.083 462.5 386.646 463.396 389.75 465.188C392.875 466.979 395.292 469.521 397 472.812C398.708 476.104 399.562 479.875 399.562 484.125V486.406C399.562 490.719 398.698 494.51 396.969 497.781C395.26 501.052 392.812 503.573 389.625 505.344C386.458 507.115 382.823 508 378.719 508H365.625ZM373.531 468.875V501.688H378.688C382.833 501.688 386.01 500.396 388.219 497.812C390.448 495.208 391.583 491.479 391.625 486.625V484.094C391.625 479.156 390.552 475.385 388.406 472.781C386.26 470.177 383.146 468.875 379.062 468.875H373.531Z" fill="white"/>
<path id="E" d="M735.219 436.688H716.531V450.688H738.375V457H708.625V411.5H738.156V417.875H716.531V430.438H735.219V436.688Z" fill="white"/>
<g id="240 308 346 356 402">
<path d="M137.046 392H117.481V389.272L127.817 377.788C129.349 376.052 130.401 374.644 130.976 373.563C131.563 372.47 131.857 371.342 131.857 370.18C131.857 368.621 131.386 367.343 130.442 366.345C129.499 365.347 128.241 364.848 126.669 364.848C124.782 364.848 123.312 365.388 122.26 366.468C121.221 367.534 120.701 369.024 120.701 370.938H116.907C116.907 368.19 117.789 365.969 119.553 364.273C121.33 362.578 123.702 361.73 126.669 361.73C129.444 361.73 131.639 362.462 133.252 363.925C134.865 365.374 135.672 367.309 135.672 369.729C135.672 372.668 133.799 376.168 130.053 380.229L122.055 388.903H137.046V392Z" fill="#CD08D1"/>
<path d="M157.082 381.972H161.225V385.068H157.082V392H153.268V385.068H139.671V382.833L153.042 362.141H157.082V381.972ZM143.978 381.972H153.268V367.329L152.816 368.149L143.978 381.972Z" fill="#CD08D1"/>
<path d="M183.373 379.265C183.373 383.708 182.614 387.01 181.097 389.17C179.579 391.33 177.207 392.41 173.98 392.41C170.795 392.41 168.437 391.357 166.905 389.252C165.374 387.133 164.581 383.975 164.526 379.777V374.712C164.526 370.323 165.285 367.062 166.803 364.93C168.32 362.797 170.699 361.73 173.939 361.73C177.152 361.73 179.518 362.763 181.035 364.827C182.553 366.878 183.332 370.05 183.373 374.343V379.265ZM179.579 374.076C179.579 370.863 179.128 368.525 178.226 367.062C177.323 365.586 175.895 364.848 173.939 364.848C171.998 364.848 170.583 365.579 169.694 367.042C168.806 368.505 168.348 370.754 168.32 373.789V379.859C168.32 383.086 168.785 385.472 169.715 387.017C170.658 388.548 172.08 389.313 173.98 389.313C175.854 389.313 177.241 388.589 178.144 387.14C179.06 385.69 179.538 383.407 179.579 380.29V374.076Z" fill="#CD08D1"/>
<path d="M464.617 375.225H467.468C469.259 375.197 470.667 374.726 471.692 373.81C472.718 372.894 473.23 371.656 473.23 370.098C473.23 366.598 471.487 364.848 468.001 364.848C466.36 364.848 465.048 365.319 464.063 366.263C463.093 367.192 462.607 368.43 462.607 369.975H458.813C458.813 367.609 459.675 365.647 461.397 364.089C463.134 362.517 465.335 361.73 468.001 361.73C470.817 361.73 473.025 362.476 474.625 363.966C476.225 365.456 477.024 367.527 477.024 370.18C477.024 371.479 476.601 372.736 475.753 373.953C474.919 375.17 473.777 376.079 472.328 376.681C473.969 377.2 475.233 378.062 476.122 379.265C477.024 380.468 477.476 381.938 477.476 383.674C477.476 386.354 476.601 388.479 474.851 390.052C473.101 391.624 470.824 392.41 468.021 392.41C465.219 392.41 462.936 391.651 461.172 390.134C459.422 388.616 458.547 386.613 458.547 384.125H462.361C462.361 385.697 462.874 386.955 463.899 387.898C464.925 388.842 466.299 389.313 468.021 389.313C469.854 389.313 471.255 388.835 472.226 387.878C473.196 386.921 473.682 385.547 473.682 383.756C473.682 382.02 473.148 380.687 472.082 379.757C471.016 378.827 469.478 378.349 467.468 378.321H464.617V375.225Z" fill="#CD08D1"/>
<path d="M501.408 379.265C501.408 383.708 500.649 387.01 499.132 389.17C497.614 391.33 495.242 392.41 492.016 392.41C488.83 392.41 486.472 391.357 484.94 389.252C483.409 387.133 482.616 383.975 482.562 379.777V374.712C482.562 370.323 483.32 367.062 484.838 364.93C486.355 362.797 488.734 361.73 491.975 361.73C495.188 361.73 497.553 362.763 499.07 364.827C500.588 366.878 501.367 370.05 501.408 374.343V379.265ZM497.614 374.076C497.614 370.863 497.163 368.525 496.261 367.062C495.358 365.586 493.93 364.848 491.975 364.848C490.033 364.848 488.618 365.579 487.729 367.042C486.841 368.505 486.383 370.754 486.355 373.789V379.859C486.355 383.086 486.82 385.472 487.75 387.017C488.693 388.548 490.115 389.313 492.016 389.313C493.889 389.313 495.276 388.589 496.179 387.14C497.095 385.69 497.573 383.407 497.614 380.29V374.076Z" fill="#CD08D1"/>
<path d="M524.377 369.934C524.377 371.424 523.98 372.75 523.188 373.912C522.408 375.074 521.349 375.983 520.009 376.64C521.567 377.31 522.798 378.287 523.7 379.572C524.616 380.857 525.074 382.313 525.074 383.94C525.074 386.524 524.199 388.582 522.449 390.113C520.713 391.645 518.423 392.41 515.579 392.41C512.708 392.41 510.404 391.645 508.668 390.113C506.945 388.568 506.084 386.511 506.084 383.94C506.084 382.327 506.521 380.871 507.396 379.572C508.285 378.273 509.509 377.289 511.067 376.619C509.741 375.963 508.695 375.054 507.93 373.892C507.164 372.729 506.781 371.41 506.781 369.934C506.781 367.418 507.588 365.422 509.201 363.945C510.814 362.469 512.94 361.73 515.579 361.73C518.204 361.73 520.323 362.469 521.937 363.945C523.563 365.422 524.377 367.418 524.377 369.934ZM521.28 383.858C521.28 382.19 520.747 380.83 519.681 379.777C518.628 378.725 517.247 378.198 515.538 378.198C513.829 378.198 512.455 378.718 511.416 379.757C510.391 380.796 509.878 382.163 509.878 383.858C509.878 385.554 510.377 386.887 511.375 387.857C512.387 388.828 513.788 389.313 515.579 389.313C517.356 389.313 518.751 388.828 519.763 387.857C520.774 386.873 521.28 385.54 521.28 383.858ZM515.579 364.848C514.089 364.848 512.879 365.312 511.949 366.242C511.033 367.158 510.575 368.409 510.575 369.995C510.575 371.513 511.026 372.743 511.929 373.687C512.845 374.616 514.062 375.081 515.579 375.081C517.097 375.081 518.307 374.616 519.209 373.687C520.125 372.743 520.583 371.513 520.583 369.995C520.583 368.478 520.111 367.24 519.168 366.283C518.225 365.326 517.028 364.848 515.579 364.848Z" fill="#CD08D1"/>
<path d="M810.584 430.225H813.435C815.226 430.197 816.634 429.726 817.659 428.81C818.685 427.894 819.197 426.656 819.197 425.098C819.197 421.598 817.454 419.848 813.968 419.848C812.327 419.848 811.015 420.319 810.03 421.263C809.06 422.192 808.574 423.43 808.574 424.975H804.78C804.78 422.609 805.642 420.647 807.364 419.089C809.101 417.517 811.302 416.73 813.968 416.73C816.784 416.73 818.992 417.476 820.592 418.966C822.191 420.456 822.991 422.527 822.991 425.18C822.991 426.479 822.567 427.736 821.72 428.953C820.886 430.17 819.744 431.079 818.295 431.681C819.936 432.2 821.2 433.062 822.089 434.265C822.991 435.468 823.442 436.938 823.442 438.674C823.442 441.354 822.567 443.479 820.817 445.052C819.067 446.624 816.791 447.41 813.988 447.41C811.186 447.41 808.902 446.651 807.139 445.134C805.389 443.616 804.514 441.613 804.514 439.125H808.328C808.328 440.697 808.841 441.955 809.866 442.898C810.892 443.842 812.266 444.313 813.988 444.313C815.82 444.313 817.222 443.835 818.192 442.878C819.163 441.921 819.648 440.547 819.648 438.756C819.648 437.02 819.115 435.687 818.049 434.757C816.982 433.827 815.444 433.349 813.435 433.321H810.584V430.225Z" fill="#CD08D1"/>
<path d="M844.668 436.972H848.811V440.068H844.668V447H840.854V440.068H827.257V437.833L840.628 417.141H844.668V436.972ZM831.563 436.972H840.854V422.329L840.402 423.149L831.563 436.972Z" fill="#CD08D1"/>
<path d="M867.124 417.12V420.34H866.427C863.474 420.395 861.122 421.27 859.372 422.965C857.622 424.66 856.61 427.046 856.337 430.122C857.909 428.317 860.056 427.415 862.776 427.415C865.374 427.415 867.445 428.331 868.99 430.163C870.549 431.995 871.328 434.36 871.328 437.259C871.328 440.335 870.487 442.796 868.806 444.642C867.138 446.487 864.896 447.41 862.079 447.41C859.222 447.41 856.904 446.316 855.127 444.129C853.35 441.928 852.461 439.098 852.461 435.639V434.183C852.461 428.687 853.63 424.489 855.968 421.591C858.319 418.679 861.812 417.188 866.447 417.12H867.124ZM862.141 430.573C860.842 430.573 859.646 430.963 858.552 431.742C857.458 432.521 856.699 433.499 856.275 434.675V436.069C856.275 438.53 856.829 440.513 857.937 442.017C859.044 443.521 860.425 444.272 862.079 444.272C863.788 444.272 865.128 443.644 866.099 442.386C867.083 441.128 867.575 439.48 867.575 437.443C867.575 435.393 867.076 433.738 866.078 432.48C865.094 431.209 863.781 430.573 862.141 430.573Z" fill="#CD08D1"/>
<path d="M122.998 485.225H125.849C127.64 485.197 129.048 484.726 130.073 483.81C131.099 482.894 131.611 481.656 131.611 480.098C131.611 476.598 129.868 474.848 126.382 474.848C124.741 474.848 123.429 475.319 122.444 476.263C121.474 477.192 120.988 478.43 120.988 479.975H117.194C117.194 477.609 118.056 475.647 119.778 474.089C121.515 472.517 123.716 471.73 126.382 471.73C129.198 471.73 131.406 472.476 133.006 473.966C134.605 475.456 135.405 477.527 135.405 480.18C135.405 481.479 134.981 482.736 134.134 483.953C133.3 485.17 132.158 486.079 130.709 486.681C132.35 487.2 133.614 488.062 134.503 489.265C135.405 490.468 135.856 491.938 135.856 493.674C135.856 496.354 134.981 498.479 133.231 500.052C131.481 501.624 129.205 502.41 126.402 502.41C123.6 502.41 121.316 501.651 119.553 500.134C117.803 498.616 116.928 496.613 116.928 494.125H120.742C120.742 495.697 121.255 496.955 122.28 497.898C123.306 498.842 124.68 499.313 126.402 499.313C128.234 499.313 129.636 498.835 130.606 497.878C131.577 496.921 132.062 495.547 132.062 493.756C132.062 492.02 131.529 490.687 130.463 489.757C129.396 488.827 127.858 488.349 125.849 488.321H122.998V485.225Z" fill="#CD08D1"/>
<path d="M142.809 487.029L144.326 472.141H159.625V475.647H147.546L146.644 483.789C148.106 482.928 149.768 482.497 151.627 482.497C154.348 482.497 156.508 483.399 158.107 485.204C159.707 486.995 160.507 489.422 160.507 492.484C160.507 495.561 159.673 497.987 158.005 499.765C156.351 501.528 154.033 502.41 151.053 502.41C148.414 502.41 146.261 501.679 144.593 500.216C142.925 498.753 141.975 496.729 141.742 494.146H145.331C145.563 495.854 146.172 497.146 147.156 498.021C148.141 498.883 149.439 499.313 151.053 499.313C152.816 499.313 154.197 498.712 155.195 497.509C156.207 496.306 156.713 494.645 156.713 492.525C156.713 490.529 156.166 488.93 155.072 487.727C153.992 486.51 152.55 485.901 150.745 485.901C149.091 485.901 147.792 486.264 146.849 486.988L145.844 487.809L142.809 487.029Z" fill="#CD08D1"/>
<path d="M179.538 472.12V475.34H178.841C175.888 475.395 173.536 476.27 171.786 477.965C170.036 479.66 169.024 482.046 168.751 485.122C170.323 483.317 172.47 482.415 175.19 482.415C177.788 482.415 179.859 483.331 181.404 485.163C182.963 486.995 183.742 489.36 183.742 492.259C183.742 495.335 182.901 497.796 181.22 499.642C179.552 501.487 177.31 502.41 174.493 502.41C171.636 502.41 169.318 501.316 167.541 499.129C165.764 496.928 164.875 494.098 164.875 490.639V489.183C164.875 483.687 166.044 479.489 168.382 476.591C170.733 473.679 174.227 472.188 178.861 472.12H179.538ZM174.555 485.573C173.256 485.573 172.06 485.963 170.966 486.742C169.872 487.521 169.113 488.499 168.689 489.675V491.069C168.689 493.53 169.243 495.513 170.351 497.017C171.458 498.521 172.839 499.272 174.493 499.272C176.202 499.272 177.542 498.644 178.513 497.386C179.497 496.128 179.989 494.48 179.989 492.443C179.989 490.393 179.49 488.738 178.492 487.48C177.508 486.209 176.195 485.573 174.555 485.573Z" fill="#CD08D1"/>
<path d="M475.117 491.972H479.26V495.068H475.117V502H471.303V495.068H457.706V492.833L471.077 472.141H475.117V491.972ZM462.013 491.972H471.303V477.329L470.852 478.149L462.013 491.972Z" fill="#CD08D1"/>
<path d="M501.408 489.265C501.408 493.708 500.649 497.01 499.132 499.17C497.614 501.33 495.242 502.41 492.016 502.41C488.83 502.41 486.472 501.357 484.94 499.252C483.409 497.133 482.616 493.975 482.562 489.777V484.712C482.562 480.323 483.32 477.062 484.838 474.93C486.355 472.797 488.734 471.73 491.975 471.73C495.188 471.73 497.553 472.763 499.07 474.827C500.588 476.878 501.367 480.05 501.408 484.343V489.265ZM497.614 484.076C497.614 480.863 497.163 478.525 496.261 477.062C495.358 475.586 493.93 474.848 491.975 474.848C490.033 474.848 488.618 475.579 487.729 477.042C486.841 478.505 486.383 480.754 486.355 483.789V489.859C486.355 493.086 486.82 495.472 487.75 497.017C488.693 498.548 490.115 499.313 492.016 499.313C493.889 499.313 495.276 498.589 496.179 497.14C497.095 495.69 497.573 493.407 497.614 490.29V484.076Z" fill="#CD08D1"/>
<path d="M525.833 502H506.269V499.272L516.604 487.788C518.136 486.052 519.188 484.644 519.763 483.563C520.351 482.47 520.645 481.342 520.645 480.18C520.645 478.621 520.173 477.343 519.229 476.345C518.286 475.347 517.028 474.848 515.456 474.848C513.569 474.848 512.1 475.388 511.047 476.468C510.008 477.534 509.488 479.024 509.488 480.938H505.694C505.694 478.19 506.576 475.969 508.34 474.273C510.117 472.578 512.489 471.73 515.456 471.73C518.231 471.73 520.426 472.462 522.039 473.925C523.652 475.374 524.459 477.309 524.459 479.729C524.459 482.668 522.586 486.168 518.84 490.229L510.842 498.903H525.833V502Z" fill="#CD08D1"/>
</g>
<g id="flecha">
<path id="Rectangle 2" d="M391.2 337.008L406.482 345.133L364.5 424.089L349.219 415.963L391.2 337.008Z" fill="#1043F5"/>
<path id="Rectangle 1_2" d="M333 349.904L423 300V357.692L378 340.096L333 349.904Z" fill="#1043F5"/>
<path id="Rectangle 3" d="M337.039 419.21L352.666 392.143L369.936 391.565L354.309 418.632L337.039 419.21Z" fill="#1043F5"/>
<path id="Rectangle 4_2" d="M363.089 433.845L378.717 406.778L369.926 391.154L354.299 418.221L363.089 433.845Z" fill="#1043F5"/>
</g>
</g>
</g>
</svg>
