<svg viewBox="0 0 987 704" fill="none" xmlns="http://www.w3.org/2000/svg">
<g id="0123109">
<g id="enunciado">
<path id="Rectangle 1" d="M36 62.8925C36 29.9225 59.3431 3.19495 88.1382 3.19495H987V416.302C987 449.272 963.657 476 934.862 476H36V62.8925Z" fill="#02071A"/>
<path id="Rectangle 1 (Stroke)" fill-rule="evenodd" clip-rule="evenodd" d="M981.786 9.11546H88.1382C62.2226 9.11546 41.2138 33.1727 41.2138 62.8489V470.029H934.862C960.777 470.029 981.786 445.972 981.786 416.296V9.11546ZM88.1382 3.14508C59.3431 3.14508 36 29.8754 36 62.8489V475.999H934.862C963.657 475.999 987 449.269 987 416.296V3.14508H88.1382Z" fill="#CD08D1"/>
<path id="Rectangle 14" d="M92.4655 3.30203C120.352 -4.12754 986.999 3.30203 986.999 3.30203V35.4662C986.999 35.4662 77.7104 23.6442 45.3848 35.4662C55.443 18.4068 64.5795 10.7316 92.4655 3.30203Z" fill="#CD08D1"/>
<path id="Rectangle 15" d="M954 10.2228H985V417.532C981.195 445.173 973.308 455.332 954 468.593C959.683 446.878 954 10.2228 954 10.2228Z" fill="#CD08D1"/>
<g id="&#194;&#191;Cu&#195;&#161;ntas bolitas se contar&#195;&#161;n en la figura F34?">
<path d="M69.0586 62.3067C69.0449 63.7559 68.8945 64.918 68.6074 65.793C68.334 66.6544 67.8691 67.4883 67.2129 68.295C66.5566 69.1016 65.5996 70.168 64.3418 71.4942C63.084 72.8067 62.3799 74.1397 62.2295 75.4932L62.1885 76.252C62.1885 77.7422 62.585 78.877 63.3779 79.6563C64.1709 80.4493 65.3125 80.8458 66.8027 80.8458C68.1699 80.8458 69.2773 80.4561 70.125 79.6768C70.9863 78.9112 71.417 77.9063 71.417 76.6622H75.2109C75.1836 78.8633 74.3975 80.6612 72.8525 82.0557C71.3213 83.4503 69.3047 84.1475 66.8027 84.1475C64.123 84.1475 62.0518 83.4571 60.5889 82.0762C59.126 80.709 58.3945 78.8018 58.3945 76.3546C58.3945 73.9893 59.4883 71.6104 61.6758 69.2178L63.9111 66.9005C64.8135 65.834 65.2646 64.3028 65.2646 62.3067H69.0586ZM69.2227 55.8057C69.2227 56.421 69.0312 56.9405 68.6484 57.3643C68.2793 57.7881 67.7256 58.0001 66.9873 58.0001C66.249 58.0001 65.6885 57.7881 65.3057 57.3643C64.9229 56.9405 64.7314 56.421 64.7314 55.8057C64.7314 55.2042 64.9229 54.6983 65.3057 54.2881C65.6885 53.878 66.249 53.6729 66.9873 53.6729C67.7256 53.6729 68.2793 53.878 68.6484 54.2881C69.0312 54.6983 69.2227 55.2042 69.2227 55.8057Z" fill="white"/>
<path d="M102.322 66.7774C101.953 69.9356 100.784 72.376 98.8154 74.0987C96.8604 75.8077 94.2559 76.6622 91.002 76.6622C87.4746 76.6622 84.6445 75.3975 82.5117 72.8682C80.3926 70.3389 79.333 66.9551 79.333 62.7169V59.8458C79.333 57.0704 79.8252 54.6299 80.8096 52.5245C81.8076 50.419 83.2158 48.8057 85.0342 47.6846C86.8525 46.5499 88.958 45.9825 91.3506 45.9825C94.5225 45.9825 97.0654 46.8712 98.9795 48.6485C100.894 50.4122 102.008 52.8594 102.322 55.9903H98.3643C98.0225 53.6114 97.2773 51.8887 96.1289 50.8223C94.9941 49.7559 93.4014 49.2227 91.3506 49.2227C88.835 49.2227 86.8594 50.1524 85.4238 52.0118C84.002 53.8712 83.291 56.5167 83.291 59.9483V62.8399C83.291 66.0801 83.9678 68.6573 85.3213 70.5714C86.6748 72.4854 88.5684 73.4424 91.002 73.4424C93.1895 73.4424 94.8643 72.9503 96.0264 71.9659C97.2021 70.9678 97.9814 69.2383 98.3643 66.7774H102.322Z" fill="white"/>
<path d="M120.82 74.0577C119.344 75.794 117.177 76.6622 114.319 76.6622C111.954 76.6622 110.149 75.9786 108.905 74.6114C107.675 73.2305 107.053 71.1934 107.039 68.5001V54.0626H110.833V68.3975C110.833 71.7608 112.2 73.4424 114.935 73.4424C117.833 73.4424 119.761 72.3624 120.718 70.2022V54.0626H124.512V76.252H120.902L120.82 74.0577Z" fill="white"/>
<path d="M143.994 76.252C143.775 75.8145 143.598 75.0352 143.461 73.9141C141.697 75.7462 139.592 76.6622 137.145 76.6622C134.957 76.6622 133.159 76.0469 131.751 74.8165C130.356 73.5723 129.659 72.0001 129.659 70.0997C129.659 67.7891 130.534 65.9981 132.284 64.7266C134.048 63.4415 136.522 62.7989 139.708 62.7989H143.399V61.0557C143.399 59.7296 143.003 58.6768 142.21 57.8975C141.417 57.1046 140.248 56.7081 138.703 56.7081C137.35 56.7081 136.215 57.0499 135.299 57.7335C134.383 58.4171 133.925 59.2442 133.925 60.2149H130.11C130.11 59.1075 130.5 58.0411 131.279 57.0157C132.072 55.9766 133.139 55.1563 134.479 54.5547C135.832 53.9532 137.315 53.6524 138.929 53.6524C141.485 53.6524 143.488 54.295 144.938 55.5801C146.387 56.8516 147.139 58.6085 147.193 60.8506V71.0635C147.193 73.1006 147.453 74.7208 147.973 75.9239V76.252H143.994ZM137.698 73.3604C138.888 73.3604 140.016 73.0528 141.082 72.4376C142.148 71.8223 142.921 71.0225 143.399 70.0381V65.4854H140.426C135.777 65.4854 133.453 66.8458 133.453 69.5665C133.453 70.7559 133.85 71.6856 134.643 72.3555C135.436 73.0255 136.454 73.3604 137.698 73.3604ZM141.205 44.752H145.799L140.303 50.7813H137.247L141.205 44.752Z" fill="white"/>
<path d="M156.729 54.0626L156.853 56.8516C158.548 54.7188 160.763 53.6524 163.497 53.6524C168.187 53.6524 170.552 56.2979 170.593 61.5889V76.252H166.799V61.5684C166.785 59.9688 166.416 58.7862 165.691 58.0206C164.98 57.2549 163.866 56.8721 162.349 56.8721C161.118 56.8721 160.038 57.2003 159.108 57.8565C158.179 58.5128 157.454 59.3741 156.935 60.4405V76.252H153.141V54.0626H156.729Z" fill="white"/>
<path d="M181.462 48.6895V54.0626H185.604V56.9952H181.462V70.7559C181.462 71.6446 181.646 72.3145 182.016 72.7657C182.385 73.2032 183.014 73.4219 183.902 73.4219C184.34 73.4219 184.941 73.3399 185.707 73.1758V76.252C184.709 76.5255 183.738 76.6622 182.795 76.6622C181.1 76.6622 179.821 76.1495 178.96 75.1241C178.099 74.0987 177.668 72.6426 177.668 70.7559V56.9952H173.628V54.0626H177.668V48.6895H181.462Z" fill="white"/>
<path d="M203.754 76.252C203.535 75.8145 203.357 75.0352 203.221 73.9141C201.457 75.7462 199.352 76.6622 196.904 76.6622C194.717 76.6622 192.919 76.0469 191.511 74.8165C190.116 73.5723 189.419 72.0001 189.419 70.0997C189.419 67.7891 190.294 65.9981 192.044 64.7266C193.808 63.4415 196.282 62.7989 199.468 62.7989H203.159V61.0557C203.159 59.7296 202.763 58.6768 201.97 57.8975C201.177 57.1046 200.008 56.7081 198.463 56.7081C197.109 56.7081 195.975 57.0499 195.059 57.7335C194.143 58.4171 193.685 59.2442 193.685 60.2149H189.87C189.87 59.1075 190.26 58.0411 191.039 57.0157C191.832 55.9766 192.898 55.1563 194.238 54.5547C195.592 53.9532 197.075 53.6524 198.688 53.6524C201.245 53.6524 203.248 54.295 204.697 55.5801C206.146 56.8516 206.898 58.6085 206.953 60.8506V71.0635C206.953 73.1006 207.213 74.7208 207.732 75.9239V76.252H203.754ZM197.458 73.3604C198.647 73.3604 199.775 73.0528 200.842 72.4376C201.908 71.8223 202.681 71.0225 203.159 70.0381V65.4854H200.186C195.537 65.4854 193.213 66.8458 193.213 69.5665C193.213 70.7559 193.609 71.6856 194.402 72.3555C195.195 73.0255 196.214 73.3604 197.458 73.3604Z" fill="white"/>
<path d="M225.82 70.3663C225.82 69.3409 225.431 68.5479 224.651 67.9874C223.886 67.4131 222.539 66.921 220.611 66.5108C218.697 66.1006 217.173 65.6085 216.038 65.0342C214.917 64.46 214.083 63.7764 213.536 62.9835C213.003 62.1905 212.736 61.2471 212.736 60.1534C212.736 58.335 213.502 56.7969 215.033 55.5391C216.578 54.2813 218.547 53.6524 220.939 53.6524C223.455 53.6524 225.492 54.3018 227.051 55.6006C228.623 56.8995 229.409 58.5606 229.409 60.584H225.595C225.595 59.545 225.15 58.6495 224.262 57.8975C223.387 57.1456 222.279 56.7696 220.939 56.7696C219.559 56.7696 218.479 57.0704 217.699 57.6719C216.92 58.2735 216.53 59.0596 216.53 60.0303C216.53 60.9464 216.893 61.6368 217.617 62.1016C218.342 62.5665 219.647 63.0108 221.534 63.4346C223.435 63.8585 224.973 64.3643 226.148 64.9522C227.324 65.5401 228.192 66.251 228.753 67.085C229.327 67.9053 229.614 68.9102 229.614 70.0997C229.614 72.0821 228.821 73.6749 227.235 74.878C225.649 76.0674 223.592 76.6622 221.062 76.6622C219.285 76.6622 217.713 76.3477 216.346 75.7188C214.979 75.0899 213.905 74.2149 213.126 73.0938C212.36 71.959 211.978 70.7354 211.978 69.4229H215.771C215.84 70.6944 216.346 71.7061 217.289 72.4581C218.246 73.1964 219.504 73.5655 221.062 73.5655C222.498 73.5655 223.646 73.2784 224.508 72.7042C225.383 72.1163 225.82 71.337 225.82 70.3663Z" fill="white"/>
<path d="M263.76 65.4034C263.76 68.794 262.98 71.5215 261.422 73.586C259.863 75.6368 257.771 76.6622 255.146 76.6622C252.344 76.6622 250.177 75.671 248.646 73.6885L248.461 76.252H244.975V44.752H248.769V56.503C250.3 54.6026 252.412 53.6524 255.105 53.6524C257.799 53.6524 259.911 54.671 261.442 56.7081C262.987 58.7452 263.76 61.5342 263.76 65.0753V65.4034ZM259.966 64.9727C259.966 62.3887 259.467 60.3926 258.469 58.9844C257.471 57.5762 256.035 56.8721 254.162 56.8721C251.66 56.8721 249.862 58.0342 248.769 60.3585V69.9561C249.931 72.2803 251.742 73.4424 254.203 73.4424C256.021 73.4424 257.437 72.7383 258.448 71.3301C259.46 69.9219 259.966 67.8028 259.966 64.9727Z" fill="white"/>
<path d="M267.554 64.9522C267.554 62.7784 267.978 60.8233 268.825 59.087C269.687 57.3506 270.876 56.0108 272.394 55.0674C273.925 54.1241 275.668 53.6524 277.623 53.6524C280.645 53.6524 283.085 54.6983 284.944 56.7901C286.817 58.8819 287.754 61.6641 287.754 65.1368V65.4034C287.754 67.5635 287.337 69.5049 286.503 71.2276C285.683 72.9366 284.5 74.2696 282.955 75.2266C281.424 76.1837 279.66 76.6622 277.664 76.6622C274.656 76.6622 272.216 75.6163 270.343 73.5245C268.483 71.4327 267.554 68.6641 267.554 65.2188V64.9522ZM271.368 65.4034C271.368 67.8643 271.936 69.8399 273.07 71.3301C274.219 72.8204 275.75 73.5655 277.664 73.5655C279.592 73.5655 281.123 72.8135 282.258 71.3096C283.393 69.7921 283.96 67.6729 283.96 64.9522C283.96 62.5186 283.379 60.5499 282.217 59.046C281.068 57.5284 279.537 56.7696 277.623 56.7696C275.75 56.7696 274.239 57.5147 273.091 59.0049C271.942 60.4952 271.368 62.628 271.368 65.4034Z" fill="white"/>
<path d="M296.634 76.252H292.84V44.752H296.634V76.252Z" fill="white"/>
<path d="M306.847 76.252H303.053V54.0626H306.847V76.252ZM302.745 48.1768C302.745 47.5616 302.93 47.0421 303.299 46.6182C303.682 46.1944 304.242 45.9825 304.98 45.9825C305.719 45.9825 306.279 46.1944 306.662 46.6182C307.045 47.0421 307.236 47.5616 307.236 48.1768C307.236 48.7921 307.045 49.3047 306.662 49.7149C306.279 50.1251 305.719 50.3301 304.98 50.3301C304.242 50.3301 303.682 50.1251 303.299 49.7149C302.93 49.3047 302.745 48.7921 302.745 48.1768Z" fill="white"/>
<path d="M318.085 48.6895V54.0626H322.228V56.9952H318.085V70.7559C318.085 71.6446 318.27 72.3145 318.639 72.7657C319.008 73.2032 319.637 73.4219 320.525 73.4219C320.963 73.4219 321.564 73.3399 322.33 73.1758V76.252C321.332 76.5255 320.361 76.6622 319.418 76.6622C317.723 76.6622 316.444 76.1495 315.583 75.1241C314.722 74.0987 314.291 72.6426 314.291 70.7559V56.9952H310.251V54.0626H314.291V48.6895H318.085Z" fill="white"/>
<path d="M340.377 76.252C340.158 75.8145 339.98 75.0352 339.844 73.9141C338.08 75.7462 335.975 76.6622 333.527 76.6622C331.34 76.6622 329.542 76.0469 328.134 74.8165C326.739 73.5723 326.042 72.0001 326.042 70.0997C326.042 67.7891 326.917 65.9981 328.667 64.7266C330.431 63.4415 332.905 62.7989 336.091 62.7989H339.782V61.0557C339.782 59.7296 339.386 58.6768 338.593 57.8975C337.8 57.1046 336.631 56.7081 335.086 56.7081C333.732 56.7081 332.598 57.0499 331.682 57.7335C330.766 58.4171 330.308 59.2442 330.308 60.2149H326.493C326.493 59.1075 326.883 58.0411 327.662 57.0157C328.455 55.9766 329.521 55.1563 330.861 54.5547C332.215 53.9532 333.698 53.6524 335.312 53.6524C337.868 53.6524 339.871 54.295 341.32 55.5801C342.77 56.8516 343.521 58.6085 343.576 60.8506V71.0635C343.576 73.1006 343.836 74.7208 344.355 75.9239V76.252H340.377ZM334.081 73.3604C335.271 73.3604 336.398 73.0528 337.465 72.4376C338.531 71.8223 339.304 71.0225 339.782 70.0381V65.4854H336.809C332.16 65.4854 329.836 66.8458 329.836 69.5665C329.836 70.7559 330.232 71.6856 331.025 72.3555C331.818 73.0255 332.837 73.3604 334.081 73.3604Z" fill="white"/>
<path d="M362.443 70.3663C362.443 69.3409 362.054 68.5479 361.274 67.9874C360.509 67.4131 359.162 66.921 357.234 66.5108C355.32 66.1006 353.796 65.6085 352.661 65.0342C351.54 64.46 350.706 63.7764 350.159 62.9835C349.626 62.1905 349.359 61.2471 349.359 60.1534C349.359 58.335 350.125 56.7969 351.656 55.5391C353.201 54.2813 355.17 53.6524 357.562 53.6524C360.078 53.6524 362.115 54.3018 363.674 55.6006C365.246 56.8995 366.032 58.5606 366.032 60.584H362.218C362.218 59.545 361.773 58.6495 360.885 57.8975C360.01 57.1456 358.902 56.7696 357.562 56.7696C356.182 56.7696 355.102 57.0704 354.322 57.6719C353.543 58.2735 353.153 59.0596 353.153 60.0303C353.153 60.9464 353.516 61.6368 354.24 62.1016C354.965 62.5665 356.271 63.0108 358.157 63.4346C360.058 63.8585 361.596 64.3643 362.771 64.9522C363.947 65.5401 364.815 66.251 365.376 67.085C365.95 67.9053 366.237 68.9102 366.237 70.0997C366.237 72.0821 365.444 73.6749 363.858 74.878C362.272 76.0674 360.215 76.6622 357.686 76.6622C355.908 76.6622 354.336 76.3477 352.969 75.7188C351.602 75.0899 350.528 74.2149 349.749 73.0938C348.983 71.959 348.601 70.7354 348.601 69.4229H352.395C352.463 70.6944 352.969 71.7061 353.912 72.4581C354.869 73.1964 356.127 73.5655 357.686 73.5655C359.121 73.5655 360.27 73.2784 361.131 72.7042C362.006 72.1163 362.443 71.337 362.443 70.3663Z" fill="white"/>
<path d="M394.518 70.3663C394.518 69.3409 394.128 68.5479 393.349 67.9874C392.583 67.4131 391.236 66.921 389.309 66.5108C387.395 66.1006 385.87 65.6085 384.735 65.0342C383.614 64.46 382.78 63.7764 382.233 62.9835C381.7 62.1905 381.434 61.2471 381.434 60.1534C381.434 58.335 382.199 56.7969 383.73 55.5391C385.275 54.2813 387.244 53.6524 389.637 53.6524C392.152 53.6524 394.189 54.3018 395.748 55.6006C397.32 56.8995 398.106 58.5606 398.106 60.584H394.292C394.292 59.545 393.848 58.6495 392.959 57.8975C392.084 57.1456 390.977 56.7696 389.637 56.7696C388.256 56.7696 387.176 57.0704 386.396 57.6719C385.617 58.2735 385.228 59.0596 385.228 60.0303C385.228 60.9464 385.59 61.6368 386.314 62.1016C387.039 62.5665 388.345 63.0108 390.231 63.4346C392.132 63.8585 393.67 64.3643 394.846 64.9522C396.021 65.5401 396.89 66.251 397.45 67.085C398.024 67.9053 398.312 68.9102 398.312 70.0997C398.312 72.0821 397.519 73.6749 395.933 74.878C394.347 76.0674 392.289 76.6622 389.76 76.6622C387.982 76.6622 386.41 76.3477 385.043 75.7188C383.676 75.0899 382.603 74.2149 381.823 73.0938C381.058 71.959 380.675 70.7354 380.675 69.4229H384.469C384.537 70.6944 385.043 71.7061 385.986 72.4581C386.943 73.1964 388.201 73.5655 389.76 73.5655C391.195 73.5655 392.344 73.2784 393.205 72.7042C394.08 72.1163 394.518 71.337 394.518 70.3663Z" fill="white"/>
<path d="M412.462 76.6622C409.454 76.6622 407.007 75.6778 405.12 73.709C403.233 71.7266 402.29 69.0811 402.29 65.7725V65.0753C402.29 62.8741 402.707 60.9122 403.541 59.1895C404.389 57.4532 405.564 56.0997 407.068 55.129C408.586 54.1446 410.227 53.6524 411.99 53.6524C414.875 53.6524 417.117 54.6026 418.717 56.503C420.316 58.4034 421.116 61.1241 421.116 64.6651V66.2442H406.084C406.139 68.4317 406.774 70.2022 407.991 71.5557C409.222 72.8956 410.78 73.5655 412.667 73.5655C414.007 73.5655 415.142 73.2921 416.071 72.7452C417.001 72.1983 417.814 71.4737 418.512 70.5714L420.829 72.376C418.97 75.2335 416.181 76.6622 412.462 76.6622ZM411.99 56.7696C410.459 56.7696 409.174 57.3301 408.135 58.4512C407.096 59.5587 406.453 61.1172 406.207 63.127H417.322V62.8399C417.213 60.9122 416.693 59.4219 415.764 58.3692C414.834 57.3028 413.576 56.7696 411.99 56.7696Z" fill="white"/>
<path d="M444.844 73.5655C446.197 73.5655 447.38 73.1553 448.392 72.335C449.403 71.5147 449.964 70.4893 450.073 69.2589H453.662C453.594 70.5303 453.156 71.7403 452.35 72.8887C451.543 74.0372 450.463 74.9532 449.109 75.6368C447.77 76.3204 446.348 76.6622 444.844 76.6622C441.822 76.6622 439.416 75.6573 437.625 73.6475C435.848 71.6241 434.959 68.8624 434.959 65.3624V64.7266C434.959 62.5665 435.355 60.6456 436.148 58.9639C436.941 57.2823 438.076 55.9766 439.553 55.0469C441.043 54.1172 442.8 53.6524 444.823 53.6524C447.312 53.6524 449.376 54.3975 451.017 55.8878C452.671 57.378 453.553 59.3126 453.662 61.6915H450.073C449.964 60.2559 449.417 59.0801 448.433 58.1641C447.462 57.2344 446.259 56.7696 444.823 56.7696C442.896 56.7696 441.398 57.4669 440.332 58.8614C439.279 60.2422 438.753 62.2452 438.753 64.8702V65.588C438.753 68.1446 439.279 70.1133 440.332 71.4942C441.385 72.8751 442.889 73.5655 444.844 73.5655Z" fill="white"/>
<path d="M456.923 64.9522C456.923 62.7784 457.347 60.8233 458.194 59.087C459.056 57.3506 460.245 56.0108 461.763 55.0674C463.294 54.1241 465.037 53.6524 466.992 53.6524C470.014 53.6524 472.454 54.6983 474.313 56.7901C476.187 58.8819 477.123 61.6641 477.123 65.1368V65.4034C477.123 67.5635 476.706 69.5049 475.872 71.2276C475.052 72.9366 473.869 74.2696 472.324 75.2266C470.793 76.1837 469.029 76.6622 467.033 76.6622C464.025 76.6622 461.585 75.6163 459.712 73.5245C457.853 71.4327 456.923 68.6641 456.923 65.2188V64.9522ZM460.737 65.4034C460.737 67.8643 461.305 69.8399 462.439 71.3301C463.588 72.8204 465.119 73.5655 467.033 73.5655C468.961 73.5655 470.492 72.8135 471.627 71.3096C472.762 69.7921 473.329 67.6729 473.329 64.9522C473.329 62.5186 472.748 60.5499 471.586 59.046C470.438 57.5284 468.906 56.7696 466.992 56.7696C465.119 56.7696 463.608 57.5147 462.46 59.0049C461.312 60.4952 460.737 62.628 460.737 65.4034Z" fill="white"/>
<path d="M485.47 54.0626L485.593 56.8516C487.288 54.7188 489.503 53.6524 492.237 53.6524C496.927 53.6524 499.292 56.2979 499.333 61.5889V76.252H495.539V61.5684C495.525 59.9688 495.156 58.7862 494.432 58.0206C493.721 57.2549 492.606 56.8721 491.089 56.8721C489.858 56.8721 488.778 57.2003 487.849 57.8565C486.919 58.5128 486.194 59.3741 485.675 60.4405V76.252H481.881V54.0626H485.47Z" fill="white"/>
<path d="M510.202 48.6895V54.0626H514.345V56.9952H510.202V70.7559C510.202 71.6446 510.387 72.3145 510.756 72.7657C511.125 73.2032 511.754 73.4219 512.643 73.4219C513.08 73.4219 513.682 73.3399 514.447 73.1758V76.252C513.449 76.5255 512.479 76.6622 511.535 76.6622C509.84 76.6622 508.562 76.1495 507.7 75.1241C506.839 74.0987 506.408 72.6426 506.408 70.7559V56.9952H502.368V54.0626H506.408V48.6895H510.202Z" fill="white"/>
<path d="M532.494 76.252C532.275 75.8145 532.098 75.0352 531.961 73.9141C530.197 75.7462 528.092 76.6622 525.645 76.6622C523.457 76.6622 521.659 76.0469 520.251 74.8165C518.856 73.5723 518.159 72.0001 518.159 70.0997C518.159 67.7891 519.034 65.9981 520.784 64.7266C522.548 63.4415 525.022 62.7989 528.208 62.7989H531.899V61.0557C531.899 59.7296 531.503 58.6768 530.71 57.8975C529.917 57.1046 528.748 56.7081 527.203 56.7081C525.85 56.7081 524.715 57.0499 523.799 57.7335C522.883 58.4171 522.425 59.2442 522.425 60.2149H518.61C518.61 59.1075 519 58.0411 519.779 57.0157C520.572 55.9766 521.639 55.1563 522.979 54.5547C524.332 53.9532 525.815 53.6524 527.429 53.6524C529.985 53.6524 531.988 54.295 533.438 55.5801C534.887 56.8516 535.639 58.6085 535.693 60.8506V71.0635C535.693 73.1006 535.953 74.7208 536.473 75.9239V76.252H532.494ZM526.198 73.3604C527.388 73.3604 528.516 73.0528 529.582 72.4376C530.648 71.8223 531.421 71.0225 531.899 70.0381V65.4854H528.926C524.277 65.4854 521.953 66.8458 521.953 69.5665C521.953 70.7559 522.35 71.6856 523.143 72.3555C523.936 73.0255 524.954 73.3604 526.198 73.3604Z" fill="white"/>
<path d="M552.366 57.4669C551.792 57.3712 551.17 57.3233 550.5 57.3233C548.012 57.3233 546.323 58.3829 545.435 60.502V76.252H541.641V54.0626H545.332L545.394 56.626C546.638 54.6436 548.401 53.6524 550.685 53.6524C551.423 53.6524 551.983 53.7481 552.366 53.9395V57.4669Z" fill="white"/>
<path d="M568.752 76.252C568.533 75.8145 568.355 75.0352 568.219 73.9141C566.455 75.7462 564.35 76.6622 561.902 76.6622C559.715 76.6622 557.917 76.0469 556.509 74.8165C555.114 73.5723 554.417 72.0001 554.417 70.0997C554.417 67.7891 555.292 65.9981 557.042 64.7266C558.806 63.4415 561.28 62.7989 564.466 62.7989H568.157V61.0557C568.157 59.7296 567.761 58.6768 566.968 57.8975C566.175 57.1046 565.006 56.7081 563.461 56.7081C562.107 56.7081 560.973 57.0499 560.057 57.7335C559.141 58.4171 558.683 59.2442 558.683 60.2149H554.868C554.868 59.1075 555.258 58.0411 556.037 57.0157C556.83 55.9766 557.896 55.1563 559.236 54.5547C560.59 53.9532 562.073 53.6524 563.687 53.6524C566.243 53.6524 568.246 54.295 569.695 55.5801C571.145 56.8516 571.896 58.6085 571.951 60.8506V71.0635C571.951 73.1006 572.211 74.7208 572.73 75.9239V76.252H568.752ZM562.456 73.3604C563.646 73.3604 564.773 73.0528 565.84 72.4376C566.906 71.8223 567.679 71.0225 568.157 70.0381V65.4854H565.184C560.535 65.4854 558.211 66.8458 558.211 69.5665C558.211 70.7559 558.607 71.6856 559.4 72.3555C560.193 73.0255 561.212 73.3604 562.456 73.3604ZM565.963 44.752H570.557L565.061 50.7813H562.005L565.963 44.752Z" fill="white"/>
<path d="M581.487 54.0626L581.61 56.8516C583.306 54.7188 585.521 53.6524 588.255 53.6524C592.944 53.6524 595.31 56.2979 595.351 61.5889V76.252H591.557V61.5684C591.543 59.9688 591.174 58.7862 590.449 58.0206C589.738 57.2549 588.624 56.8721 587.106 56.8721C585.876 56.8721 584.796 57.2003 583.866 57.8565C582.937 58.5128 582.212 59.3741 581.692 60.4405V76.252H577.898V54.0626H581.487Z" fill="white"/>
<path d="M620.698 76.6622C617.69 76.6622 615.243 75.6778 613.356 73.709C611.47 71.7266 610.526 69.0811 610.526 65.7725V65.0753C610.526 62.8741 610.943 60.9122 611.777 59.1895C612.625 57.4532 613.801 56.0997 615.305 55.129C616.822 54.1446 618.463 53.6524 620.227 53.6524C623.111 53.6524 625.354 54.6026 626.953 56.503C628.553 58.4034 629.353 61.1241 629.353 64.6651V66.2442H614.32C614.375 68.4317 615.011 70.2022 616.228 71.5557C617.458 72.8956 619.017 73.5655 620.903 73.5655C622.243 73.5655 623.378 73.2921 624.308 72.7452C625.237 72.1983 626.051 71.4737 626.748 70.5714L629.065 72.376C627.206 75.2335 624.417 76.6622 620.698 76.6622ZM620.227 56.7696C618.695 56.7696 617.41 57.3301 616.371 58.4512C615.332 59.5587 614.689 61.1172 614.443 63.127H625.559V62.8399C625.449 60.9122 624.93 59.4219 624 58.3692C623.07 57.3028 621.812 56.7696 620.227 56.7696Z" fill="white"/>
<path d="M637.351 54.0626L637.474 56.8516C639.169 54.7188 641.384 53.6524 644.118 53.6524C648.808 53.6524 651.173 56.2979 651.214 61.5889V76.252H647.42V61.5684C647.406 59.9688 647.037 58.7862 646.312 58.0206C645.602 57.2549 644.487 56.8721 642.97 56.8721C641.739 56.8721 640.659 57.2003 639.729 57.8565C638.8 58.5128 638.075 59.3741 637.556 60.4405V76.252H633.762V54.0626H637.351Z" fill="white"/>
<path d="M671.476 76.252H667.682V44.752H671.476V76.252Z" fill="white"/>
<path d="M691.266 76.252C691.047 75.8145 690.869 75.0352 690.732 73.9141C688.969 75.7462 686.863 76.6622 684.416 76.6622C682.229 76.6622 680.431 76.0469 679.022 74.8165C677.628 73.5723 676.931 72.0001 676.931 70.0997C676.931 67.7891 677.806 65.9981 679.556 64.7266C681.319 63.4415 683.794 62.7989 686.979 62.7989H690.671V61.0557C690.671 59.7296 690.274 58.6768 689.481 57.8975C688.688 57.1046 687.52 56.7081 685.975 56.7081C684.621 56.7081 683.486 57.0499 682.57 57.7335C681.654 58.4171 681.196 59.2442 681.196 60.2149H677.382C677.382 59.1075 677.771 58.0411 678.551 57.0157C679.344 55.9766 680.41 55.1563 681.75 54.5547C683.104 53.9532 684.587 53.6524 686.2 53.6524C688.757 53.6524 690.76 54.295 692.209 55.5801C693.658 56.8516 694.41 58.6085 694.465 60.8506V71.0635C694.465 73.1006 694.725 74.7208 695.244 75.9239V76.252H691.266ZM684.97 73.3604C686.159 73.3604 687.287 73.0528 688.354 72.4376C689.42 71.8223 690.192 71.0225 690.671 70.0381V65.4854H687.697C683.049 65.4854 680.725 66.8458 680.725 69.5665C680.725 70.7559 681.121 71.6856 681.914 72.3555C682.707 73.0255 683.726 73.3604 684.97 73.3604Z" fill="white"/>
<path d="M712.102 76.252V56.9952H708.595V54.0626H712.102V52.1758C712.102 49.7012 712.806 47.7735 714.214 46.3926C715.636 45.0118 717.639 44.3214 720.223 44.3214C721.754 44.3214 723.688 44.7383 726.026 45.5723L725.391 48.7715C723.682 48.088 722.055 47.7462 720.51 47.7462C718.883 47.7462 717.707 48.1153 716.982 48.8536C716.271 49.5782 715.916 50.6719 715.916 52.1348V54.0626H720.448V56.9952H715.916V76.252H712.102ZM727.913 76.252H724.099V54.0626H727.913V76.252Z" fill="white"/>
<path d="M733.184 64.9727C733.184 61.5137 733.983 58.7657 735.583 56.7286C737.183 54.6778 739.302 53.6524 741.94 53.6524C744.647 53.6524 746.76 54.6094 748.277 56.5235L748.462 54.0626H751.928V75.7188C751.928 78.5899 751.073 80.8526 749.364 82.5069C747.669 84.1612 745.386 84.9883 742.515 84.9883C740.915 84.9883 739.35 84.6465 737.818 83.963C736.287 83.2794 735.118 82.3428 734.312 81.1534L736.28 78.877C737.907 80.8868 739.896 81.8917 742.248 81.8917C744.094 81.8917 745.529 81.3721 746.555 80.3331C747.594 79.294 748.113 77.8311 748.113 75.9444V74.0372C746.596 75.7872 744.524 76.6622 741.899 76.6622C739.302 76.6622 737.196 75.6163 735.583 73.5245C733.983 71.4327 733.184 68.5821 733.184 64.9727ZM736.998 65.4034C736.998 67.9053 737.511 69.8741 738.536 71.3096C739.562 72.7315 740.997 73.4424 742.843 73.4424C745.235 73.4424 746.992 72.3555 748.113 70.1817V60.0508C746.951 57.9317 745.208 56.8721 742.884 56.8721C741.038 56.8721 739.596 57.5899 738.557 59.0255C737.518 60.461 736.998 62.587 736.998 65.4034Z" fill="white"/>
<path d="M771.369 74.0577C769.893 75.794 767.726 76.6622 764.868 76.6622C762.503 76.6622 760.698 75.9786 759.454 74.6114C758.224 73.2305 757.602 71.1934 757.588 68.5001V54.0626H761.382V68.3975C761.382 71.7608 762.749 73.4424 765.483 73.4424C768.382 73.4424 770.31 72.3624 771.267 70.2022V54.0626H775.061V76.252H771.451L771.369 74.0577Z" fill="white"/>
<path d="M791.569 57.4669C790.995 57.3712 790.373 57.3233 789.703 57.3233C787.215 57.3233 785.526 58.3829 784.638 60.502V76.252H780.844V54.0626H784.535L784.597 56.626C785.841 54.6436 787.604 53.6524 789.888 53.6524C790.626 53.6524 791.187 53.7481 791.569 53.9395V57.4669Z" fill="white"/>
<path d="M807.955 76.252C807.736 75.8145 807.559 75.0352 807.422 73.9141C805.658 75.7462 803.553 76.6622 801.105 76.6622C798.918 76.6622 797.12 76.0469 795.712 74.8165C794.317 73.5723 793.62 72.0001 793.62 70.0997C793.62 67.7891 794.495 65.9981 796.245 64.7266C798.009 63.4415 800.483 62.7989 803.669 62.7989H807.36V61.0557C807.36 59.7296 806.964 58.6768 806.171 57.8975C805.378 57.1046 804.209 56.7081 802.664 56.7081C801.311 56.7081 800.176 57.0499 799.26 57.7335C798.344 58.4171 797.886 59.2442 797.886 60.2149H794.071C794.071 59.1075 794.461 58.0411 795.24 57.0157C796.033 55.9766 797.1 55.1563 798.439 54.5547C799.793 53.9532 801.276 53.6524 802.89 53.6524C805.446 53.6524 807.449 54.295 808.898 55.5801C810.348 56.8516 811.1 58.6085 811.154 60.8506V71.0635C811.154 73.1006 811.414 74.7208 811.934 75.9239V76.252H807.955ZM801.659 73.3604C802.849 73.3604 803.977 73.0528 805.043 72.4376C806.109 71.8223 806.882 71.0225 807.36 70.0381V65.4854H804.387C799.738 65.4854 797.414 66.8458 797.414 69.5665C797.414 70.7559 797.811 71.6856 798.604 72.3555C799.396 73.0255 800.415 73.3604 801.659 73.3604Z" fill="white"/>
<path d="M844.582 63.0655H832.052V76.252H828.114V46.3926H846.612V49.6329H832.052V59.8458H844.582V63.0655Z" fill="white"/>
<path d="M852.434 66.6661H854.062C855.086 66.6505 855.891 66.3809 856.477 65.8575C857.062 65.334 857.355 64.627 857.355 63.7364C857.355 61.7364 856.359 60.7364 854.367 60.7364C853.43 60.7364 852.68 61.0059 852.117 61.545C851.562 62.0762 851.285 62.7833 851.285 63.6661H849.117C849.117 62.3145 849.609 61.1934 850.594 60.3028C851.586 59.4044 852.844 58.9551 854.367 58.9551C855.977 58.9551 857.238 59.3809 858.152 60.2325C859.066 61.084 859.523 62.2676 859.523 63.7833C859.523 64.5255 859.281 65.2442 858.797 65.9395C858.32 66.6348 857.668 67.1544 856.84 67.4981C857.777 67.795 858.5 68.2872 859.008 68.9747C859.523 69.6622 859.781 70.502 859.781 71.4942C859.781 73.0255 859.281 74.2403 858.281 75.1387C857.281 76.0372 855.98 76.4864 854.379 76.4864C852.777 76.4864 851.473 76.0528 850.465 75.1856C849.465 74.3184 848.965 73.1739 848.965 71.752H851.145C851.145 72.6505 851.438 73.3692 852.023 73.9083C852.609 74.4473 853.395 74.7169 854.379 74.7169C855.426 74.7169 856.227 74.4434 856.781 73.8965C857.336 73.3497 857.613 72.5645 857.613 71.5411C857.613 70.5489 857.309 69.7872 856.699 69.2559C856.09 68.7247 855.211 68.4512 854.062 68.4356H852.434V66.6661Z" fill="white"/>
<path d="M871.91 70.5215H874.277V72.2911H871.91V76.252H869.73V72.2911H861.961V71.0137L869.602 59.1895H871.91V70.5215ZM864.422 70.5215H869.73V62.1544L869.473 62.6231L864.422 70.5215Z" fill="white"/>
<path d="M882.138 67.8438C882.165 66.2169 882.35 64.9317 882.691 63.9883C883.033 63.045 883.73 61.9991 884.783 60.8506L887.47 58.0821C888.618 56.7833 889.192 55.3887 889.192 53.8985C889.192 52.463 888.816 51.3419 888.064 50.5352C887.312 49.7149 886.219 49.3047 884.783 49.3047C883.389 49.3047 882.268 49.6739 881.42 50.4122C880.572 51.1505 880.148 52.1417 880.148 53.3858H876.354C876.382 51.171 877.168 49.3868 878.713 48.0333C880.271 46.6661 882.295 45.9825 884.783 45.9825C887.367 45.9825 889.377 46.6797 890.812 48.0743C892.262 49.4551 892.986 51.3555 892.986 53.7755C892.986 56.168 891.879 58.5264 889.664 60.8506L887.429 63.0655C886.431 64.1729 885.932 65.7657 885.932 67.8438H882.138ZM881.974 74.3448C881.974 73.7296 882.158 73.2169 882.527 72.8067C882.91 72.3829 883.471 72.171 884.209 72.171C884.947 72.171 885.508 72.3829 885.891 72.8067C886.273 73.2169 886.465 73.7296 886.465 74.3448C886.465 74.96 886.273 75.4727 885.891 75.8829C885.508 76.2794 884.947 76.4776 884.209 76.4776C883.471 76.4776 882.91 76.2794 882.527 75.8829C882.158 75.4727 881.974 74.96 881.974 74.3448Z" fill="white"/>
</g>
<g id="Group 107">
<path id="Ellipse 30" d="M169 239C169 250.046 160.046 259 149 259C137.954 259 129 250.046 129 239C129 227.954 137.954 219 149 219C160.046 219 169 227.954 169 239Z" fill="#C4C4C4"/>
<g id="Frame 1">
<path id="Ellipse 31" d="M691 210C691 221.046 682.046 230 671 230C659.954 230 651 221.046 651 210C651 198.954 659.954 190 671 190C682.046 190 691 198.954 691 210Z" fill="#C4C4C4"/>
<path id="Ellipse 32" d="M749 210C749 221.046 740.046 230 729 230C717.954 230 709 221.046 709 210C709 198.954 717.954 190 729 190C740.046 190 749 198.954 749 210Z" fill="#C4C4C4"/>
<path id="Ellipse 33" d="M807 210C807 221.046 798.046 230 787 230C775.954 230 767 221.046 767 210C767 198.954 775.954 190 787 190C798.046 190 807 198.954 807 210Z" fill="#C4C4C4"/>
<path id="Ellipse 34" d="M807 267C807 278.046 798.046 287 787 287C775.954 287 767 278.046 767 267C767 255.954 775.954 247 787 247C798.046 247 807 255.954 807 267Z" fill="#C4C4C4"/>
<path id="Ellipse 35" d="M807 324C807 335.046 798.046 344 787 344C775.954 344 767 335.046 767 324C767 312.954 775.954 304 787 304C798.046 304 807 312.954 807 324Z" fill="#C4C4C4"/>
<path id="Ellipse 36" d="M749 267C749 278.046 740.046 287 729 287C717.954 287 709 278.046 709 267C709 255.954 717.954 247 729 247C740.046 247 749 255.954 749 267Z" fill="#C4C4C4"/>
<path id="Ellipse 37" d="M691 267C691 278.046 682.046 287 671 287C659.954 287 651 278.046 651 267C651 255.954 659.954 247 671 247C682.046 247 691 255.954 691 267Z" fill="#C4C4C4"/>
<path id="Ellipse 38" d="M691 324C691 335.046 682.046 344 671 344C659.954 344 651 335.046 651 324C651 312.954 659.954 304 671 304C682.046 304 691 312.954 691 324Z" fill="#C4C4C4"/>
<path id="Ellipse 40" d="M641 237C641 248.046 632.046 257 621 257C609.954 257 601 248.046 601 237C601 225.954 609.954 217 621 217C632.046 217 641 225.954 641 237Z" fill="#C4C4C4"/>
<path id="Ellipse 41" d="M644 297C644 308.046 635.046 317 624 317C612.954 317 604 308.046 604 297C604 285.954 612.954 277 624 277C635.046 277 644 285.954 644 297Z" fill="#C4C4C4"/>
<path id="Ellipse 43" d="M717 170C717 181.046 708.046 190 697 190C685.954 190 677 181.046 677 170C677 158.954 685.954 150 697 150C708.046 150 717 158.954 717 170Z" fill="#C4C4C4"/>
<path id="Ellipse 46" d="M857 237C857 248.046 848.046 257 837 257C825.954 257 817 248.046 817 237C817 225.954 825.954 217 837 217C848.046 217 857 225.954 857 237Z" fill="#C4C4C4"/>
<path id="Ellipse 47" d="M857 297C857 308.046 848.046 317 837 317C825.954 317 817 308.046 817 297C817 285.954 825.954 277 837 277C848.046 277 857 285.954 857 297Z" fill="#C4C4C4"/>
<path id="Ellipse 49" d="M717 364C717 375.046 708.046 384 697 384C685.954 384 677 375.046 677 364C677 352.954 685.954 344 697 344C708.046 344 717 352.954 717 364Z" fill="#C4C4C4"/>
<path id="Ellipse 50" d="M777 364C777 375.046 768.046 384 757 384C745.954 384 737 375.046 737 364C737 352.954 745.954 344 757 344C768.046 344 777 352.954 777 364Z" fill="#C4C4C4"/>
<path id="Ellipse 51" d="M749 404C749 415.046 740.046 424 729 424C717.954 424 709 415.046 709 404C709 392.954 717.954 384 729 384C740.046 384 749 392.954 749 404Z" fill="#C4C4C4"/>
<path id="Ellipse 48" d="M901 267C901 278.046 892.046 287 881 287C869.954 287 861 278.046 861 267C861 255.954 869.954 247 881 247C892.046 247 901 255.954 901 267Z" fill="#C4C4C4"/>
<path id="Ellipse 44" d="M777 170C777 181.046 768.046 190 757 190C745.954 190 737 181.046 737 170C737 158.954 745.954 150 757 150C768.046 150 777 158.954 777 170Z" fill="#C4C4C4"/>
<path id="Ellipse 45" d="M743 125C743 136.046 734.046 145 723 145C711.954 145 703 136.046 703 125C703 113.954 711.954 105 723 105C734.046 105 743 113.954 743 125Z" fill="#C4C4C4"/>
<path id="Ellipse 42" d="M597 267C597 278.046 588.046 287 577 287C565.954 287 557 278.046 557 267C557 255.954 565.954 247 577 247C588.046 247 597 255.954 597 267Z" fill="#C4C4C4"/>
<path id="Ellipse 39" d="M749 327C749 338.046 740.046 347 729 347C717.954 347 709 338.046 709 327C709 315.954 717.954 307 729 307C740.046 307 749 315.954 749 327Z" fill="#C4C4C4"/>
</g>
<g id="Group">
<g id="Group_2">
<path id="Vector" d="M781.949 437.893C781.316 437.893 781 437.707 781 437.335C781 437.26 781.056 437 781.167 436.553C781.316 435.958 781.465 435.623 781.614 435.549C781.763 435.475 782.191 435.419 782.897 435.382C783.902 435.382 785.018 435.326 786.246 435.214C786.767 435.102 787.12 434.879 787.306 434.544C787.381 434.358 788.701 429.131 791.268 418.863C793.836 408.594 795.138 403.386 795.175 403.237C795.175 402.976 795.1 402.846 794.952 402.846C794.654 402.735 793.668 402.642 791.994 402.567H790.264C790.041 402.344 789.929 402.195 789.929 402.121C789.929 402.046 789.966 401.73 790.041 401.172C790.19 400.54 790.376 400.149 790.599 400H820.679C820.939 400.149 821.069 400.353 821.069 400.614C821.069 400.8 820.827 402.883 820.344 406.864C819.86 410.845 819.6 412.891 819.562 413.003C819.488 413.263 819.116 413.394 818.446 413.394H817.777C817.516 413.208 817.386 412.966 817.386 412.668C817.386 412.631 817.442 412.185 817.553 411.329C817.665 410.473 817.721 409.487 817.721 408.371C817.721 407.255 817.591 406.343 817.33 405.637C817.07 404.93 816.716 404.353 816.27 403.907C815.823 403.46 815.135 403.162 814.205 403.014C813.275 402.865 812.326 402.735 811.359 402.623C810.392 402.511 809.052 402.493 807.341 402.567H806.057C803.006 402.604 801.388 402.66 801.202 402.735C801.016 402.809 800.886 402.958 800.811 403.181C800.774 403.218 800.142 405.655 798.914 410.492L797.128 417.691H800.198C800.309 417.691 800.737 417.691 801.481 417.691C802.225 417.691 802.746 417.672 803.044 417.635C803.341 417.598 803.751 417.542 804.271 417.468C804.792 417.393 805.239 417.263 805.611 417.077C805.983 416.891 806.299 416.668 806.559 416.407C807.043 415.961 807.452 415.347 807.787 414.566C808.122 413.784 808.364 413.077 808.513 412.445C808.662 411.812 808.755 411.478 808.792 411.44C808.903 411.254 809.257 411.161 809.852 411.161H810.522C810.782 411.347 810.912 411.533 810.912 411.719C810.912 411.831 810.336 414.268 809.182 419.03C808.029 423.792 807.397 426.248 807.285 426.397C807.211 426.657 806.839 426.787 806.169 426.787H805.499C805.239 426.564 805.108 426.341 805.108 426.118C805.108 426.006 805.202 425.597 805.388 424.89C805.574 424.183 805.667 423.439 805.667 422.658C805.667 421.579 805.295 420.909 804.55 420.649C803.806 420.388 802.151 420.258 799.584 420.258H796.514L794.728 427.345C793.538 431.959 792.943 434.377 792.943 434.6C792.943 435.121 794.598 435.382 797.909 435.382H799.305C799.528 435.605 799.639 435.735 799.639 435.772C799.639 435.809 799.602 436.181 799.528 436.888C799.379 437.372 799.193 437.725 798.97 437.949H798.021C796.496 437.874 793.687 437.837 789.594 437.837C787.176 437.837 785.334 437.837 784.069 437.837C782.804 437.837 782.098 437.856 781.949 437.893Z" fill="white"/>
</g>
<g id="Group_3">
<path id="Vector_2" d="M820.164 428.052C819.454 428.052 818.902 427.828 818.507 427.381C818.113 426.934 817.902 426.355 817.876 425.645C817.876 424.198 818.507 422.909 819.77 421.778C821.033 420.647 822.558 420.082 824.347 420.082C825.267 420.082 825.846 420.095 826.083 420.121C828.029 420.437 829.515 421.134 830.541 422.212C831.567 423.291 832.093 424.461 832.119 425.724C832.119 427.092 831.672 428.42 830.778 429.709C829.884 430.998 828.647 431.932 827.069 432.51L826.951 432.589C826.951 432.615 827.069 432.655 827.306 432.708C827.543 432.76 827.924 432.878 828.45 433.063C828.976 433.247 829.476 433.523 829.949 433.891C832.106 435.285 833.185 437.127 833.185 439.415C833.185 441.493 832.369 443.308 830.739 444.86C829.108 446.412 827.043 447.188 824.544 447.188C822.44 447.188 820.625 446.622 819.099 445.491C817.574 444.36 816.811 442.926 816.811 441.19C816.811 440.454 817.048 439.862 817.521 439.415C817.994 438.968 818.586 438.731 819.296 438.705C820.033 438.705 820.638 438.941 821.111 439.415C821.585 439.888 821.822 440.48 821.822 441.19C821.822 441.48 821.782 441.743 821.703 441.98C821.624 442.216 821.532 442.427 821.427 442.611C821.322 442.795 821.177 442.953 820.993 443.084C820.809 443.216 820.651 443.321 820.52 443.4C820.388 443.479 820.257 443.531 820.125 443.558C819.994 443.584 819.888 443.623 819.809 443.676L819.652 443.716C820.993 444.899 822.624 445.491 824.544 445.491C825.991 445.491 827.082 444.794 827.819 443.4C828.266 442.532 828.49 441.204 828.49 439.415V438.626C828.49 436.127 827.648 434.457 825.964 433.615C825.57 433.457 824.768 433.365 823.558 433.339L821.901 433.299L821.782 433.22C821.73 433.142 821.703 432.931 821.703 432.589C821.703 432.116 821.808 431.879 822.019 431.879C822.755 431.879 823.518 431.813 824.307 431.682C825.202 431.55 826.017 430.998 826.754 430.025C827.49 429.051 827.858 427.578 827.858 425.606V425.29C827.858 423.791 827.398 422.752 826.477 422.173C825.899 421.805 825.281 421.621 824.623 421.621C823.781 421.621 823.005 421.765 822.295 422.055C821.585 422.344 821.085 422.646 820.796 422.962C820.506 423.278 820.362 423.436 820.362 423.436H820.48C820.559 423.462 820.664 423.488 820.796 423.514C820.927 423.541 821.059 423.606 821.19 423.712C821.322 423.817 821.48 423.909 821.664 423.988C821.848 424.067 821.979 424.211 822.058 424.422C822.137 424.632 822.242 424.83 822.374 425.014C822.506 425.198 822.545 425.461 822.492 425.803C822.492 426.382 822.308 426.894 821.94 427.342C821.572 427.789 820.98 428.025 820.164 428.052Z" fill="white"/>
</g>
</g>
<g id="Group 106">
<path id="Ellipse 31_2" d="M399 239C399 250.046 390.046 259 379 259C367.954 259 359 250.046 359 239C359 227.954 367.954 219 379 219C390.046 219 399 227.954 399 239Z" fill="#C4C4C4"/>
<path id="Ellipse 32_2" d="M449 239C449 250.046 440.046 259 429 259C417.954 259 409 250.046 409 239C409 227.954 417.954 219 429 219C440.046 219 449 227.954 449 239Z" fill="#C4C4C4"/>
<path id="Ellipse 33_2" d="M399 289C399 300.046 390.046 309 379 309C367.954 309 359 300.046 359 289C359 277.954 367.954 269 379 269C390.046 269 399 277.954 399 289Z" fill="#C4C4C4"/>
<path id="Ellipse 35_2" d="M422 332C422 343.046 413.046 352 402 352C390.954 352 382 343.046 382 332C382 320.954 390.954 312 402 312C413.046 312 422 320.954 422 332Z" fill="#C4C4C4"/>
<path id="Ellipse 36_2" d="M349 265C349 276.046 340.046 285 329 285C317.954 285 309 276.046 309 265C309 253.954 317.954 245 329 245C340.046 245 349 253.954 349 265Z" fill="#C4C4C4"/>
<path id="Ellipse 37_2" d="M422 192C422 203.046 413.046 212 402 212C390.954 212 382 203.046 382 192C382 180.954 390.954 172 402 172C413.046 172 422 180.954 422 192Z" fill="#C4C4C4"/>
<path id="Ellipse 38_2" d="M499 265C499 276.046 490.046 285 479 285C467.954 285 459 276.046 459 265C459 253.954 467.954 245 479 245C490.046 245 499 253.954 499 265Z" fill="#C4C4C4"/>
<path id="Ellipse 34_2" d="M449 289C449 300.046 440.046 309 429 309C417.954 309 409 300.046 409 289C409 277.954 417.954 269 429 269C440.046 269 449 277.954 449 289Z" fill="#C4C4C4"/>
</g>
<g id="F_1\;F_2\;F_3">
<g id="Group_4">
<g id="Group_5">
<g id="Group_6">
<path id="Vector_3" d="M129.949 411.893C129.316 411.893 129 411.707 129 411.335C129 411.26 129.056 411 129.167 410.553C129.316 409.958 129.465 409.623 129.614 409.549C129.763 409.475 130.191 409.419 130.897 409.382C131.902 409.382 133.018 409.326 134.246 409.214C134.767 409.102 135.12 408.879 135.306 408.544C135.381 408.358 136.701 403.131 139.268 392.863C141.836 382.594 143.138 377.386 143.175 377.237C143.175 376.976 143.1 376.846 142.952 376.846C142.654 376.735 141.668 376.642 139.994 376.567H138.264C138.041 376.344 137.929 376.195 137.929 376.121C137.929 376.046 137.966 375.73 138.041 375.172C138.19 374.54 138.376 374.149 138.599 374H168.679C168.939 374.149 169.069 374.353 169.069 374.614C169.069 374.8 168.827 376.883 168.344 380.864C167.86 384.845 167.6 386.891 167.562 387.003C167.488 387.263 167.116 387.394 166.446 387.394H165.777C165.516 387.208 165.386 386.966 165.386 386.668C165.386 386.631 165.442 386.185 165.553 385.329C165.665 384.473 165.721 383.487 165.721 382.371C165.721 381.255 165.591 380.343 165.33 379.637C165.07 378.93 164.716 378.353 164.27 377.907C163.823 377.46 163.135 377.162 162.205 377.014C161.275 376.865 160.326 376.735 159.359 376.623C158.392 376.511 157.052 376.493 155.341 376.567H154.057C151.006 376.604 149.388 376.66 149.202 376.735C149.016 376.809 148.886 376.958 148.811 377.181C148.774 377.218 148.142 379.655 146.914 384.492L145.128 391.691H148.198C148.309 391.691 148.737 391.691 149.481 391.691C150.225 391.691 150.746 391.672 151.044 391.635C151.341 391.598 151.751 391.542 152.271 391.468C152.792 391.393 153.239 391.263 153.611 391.077C153.983 390.891 154.299 390.668 154.559 390.407C155.043 389.961 155.452 389.347 155.787 388.566C156.122 387.784 156.364 387.077 156.513 386.445C156.662 385.812 156.755 385.478 156.792 385.44C156.903 385.254 157.257 385.161 157.852 385.161H158.522C158.782 385.347 158.912 385.533 158.912 385.719C158.912 385.831 158.336 388.268 157.182 393.03C156.029 397.792 155.397 400.248 155.285 400.397C155.211 400.657 154.839 400.787 154.169 400.787H153.499C153.239 400.564 153.108 400.341 153.108 400.118C153.108 400.006 153.202 399.597 153.388 398.89C153.574 398.183 153.667 397.439 153.667 396.658C153.667 395.579 153.295 394.909 152.55 394.649C151.806 394.388 150.151 394.258 147.584 394.258H144.514L142.728 401.345C141.538 405.959 140.943 408.377 140.943 408.6C140.943 409.121 142.598 409.382 145.909 409.382H147.305C147.528 409.605 147.639 409.735 147.639 409.772C147.639 409.809 147.602 410.181 147.528 410.888C147.379 411.372 147.193 411.725 146.97 411.949H146.021C144.496 411.874 141.687 411.837 137.594 411.837C135.176 411.837 133.334 411.837 132.069 411.837C130.804 411.837 130.098 411.856 129.949 411.893Z" fill="white"/>
</g>
<g id="Group_7">
<path id="Vector_4" d="M171.558 397.514L171.045 397.712C170.676 397.843 170.15 397.975 169.467 398.106C168.783 398.238 168.02 398.33 167.178 398.382H166.428V396.567H167.178C168.414 396.515 169.559 396.318 170.611 395.976C171.663 395.634 172.399 395.318 172.82 395.029C173.241 394.739 173.609 394.45 173.925 394.161C173.978 394.082 174.135 394.042 174.398 394.042C174.635 394.042 174.859 394.121 175.069 394.279V406.076L175.109 417.913C175.293 418.097 175.451 418.215 175.582 418.268C175.714 418.321 176.029 418.373 176.529 418.426C177.029 418.478 177.844 418.505 178.975 418.505H180.001V420.32H179.567C179.015 420.241 176.924 420.201 173.294 420.201C169.716 420.201 167.652 420.241 167.099 420.32H166.626V418.505H167.652C168.23 418.505 168.73 418.505 169.151 418.505C169.572 418.505 169.901 418.491 170.137 418.465C170.374 418.439 170.584 418.399 170.769 418.347C170.953 418.294 171.058 418.268 171.084 418.268C171.11 418.268 171.189 418.202 171.321 418.071C171.452 417.939 171.531 417.887 171.558 417.913V397.514Z" fill="white"/>
</g>
</g>
<g id="Group_8">
<g id="Group_9">
<path id="Vector_5" d="M379.949 415.893C379.316 415.893 379 415.707 379 415.335C379 415.26 379.056 415 379.167 414.553C379.316 413.958 379.465 413.623 379.614 413.549C379.763 413.475 380.191 413.419 380.897 413.382C381.902 413.382 383.018 413.326 384.246 413.214C384.767 413.102 385.12 412.879 385.306 412.544C385.381 412.358 386.701 407.131 389.268 396.863C391.836 386.594 393.138 381.386 393.175 381.237C393.175 380.976 393.1 380.846 392.952 380.846C392.654 380.735 391.668 380.642 389.994 380.567H388.264C388.041 380.344 387.929 380.195 387.929 380.121C387.929 380.046 387.966 379.73 388.041 379.172C388.19 378.54 388.376 378.149 388.599 378H418.679C418.939 378.149 419.069 378.353 419.069 378.614C419.069 378.8 418.827 380.883 418.344 384.864C417.86 388.845 417.6 390.891 417.562 391.003C417.488 391.263 417.116 391.394 416.446 391.394H415.777C415.516 391.208 415.386 390.966 415.386 390.668C415.386 390.631 415.442 390.185 415.553 389.329C415.665 388.473 415.721 387.487 415.721 386.371C415.721 385.255 415.591 384.343 415.33 383.637C415.07 382.93 414.716 382.353 414.27 381.907C413.823 381.46 413.135 381.162 412.205 381.014C411.275 380.865 410.326 380.735 409.359 380.623C408.392 380.511 407.052 380.493 405.341 380.567H404.057C401.006 380.604 399.388 380.66 399.202 380.735C399.016 380.809 398.886 380.958 398.811 381.181C398.774 381.218 398.142 383.655 396.914 388.492L395.128 395.691H398.198C398.309 395.691 398.737 395.691 399.481 395.691C400.225 395.691 400.746 395.672 401.044 395.635C401.341 395.598 401.751 395.542 402.271 395.468C402.792 395.393 403.239 395.263 403.611 395.077C403.983 394.891 404.299 394.668 404.559 394.407C405.043 393.961 405.452 393.347 405.787 392.566C406.122 391.784 406.364 391.077 406.513 390.445C406.662 389.812 406.755 389.478 406.792 389.44C406.903 389.254 407.257 389.161 407.852 389.161H408.522C408.782 389.347 408.912 389.533 408.912 389.719C408.912 389.831 408.336 392.268 407.182 397.03C406.029 401.792 405.397 404.248 405.285 404.397C405.211 404.657 404.839 404.787 404.169 404.787H403.499C403.239 404.564 403.108 404.341 403.108 404.118C403.108 404.006 403.202 403.597 403.388 402.89C403.574 402.183 403.667 401.439 403.667 400.658C403.667 399.579 403.295 398.909 402.55 398.649C401.806 398.388 400.151 398.258 397.584 398.258H394.514L392.728 405.345C391.538 409.959 390.943 412.377 390.943 412.6C390.943 413.121 392.598 413.382 395.909 413.382H397.305C397.528 413.605 397.639 413.735 397.639 413.772C397.639 413.809 397.602 414.181 397.528 414.888C397.379 415.372 397.193 415.725 396.97 415.949H396.021C394.496 415.874 391.687 415.837 387.594 415.837C385.176 415.837 383.334 415.837 382.069 415.837C380.804 415.837 380.098 415.856 379.949 415.893Z" fill="white"/>
</g>
<g id="Group_10">
<path id="Vector_6" d="M417.454 407.393C416.744 407.393 416.179 407.157 415.758 406.683C415.337 406.21 415.126 405.631 415.126 404.947C415.126 403.079 415.824 401.462 417.218 400.094C418.612 398.726 420.348 398.042 422.426 398.042C424.819 398.042 426.818 398.779 428.423 400.252C430.027 401.725 430.843 403.632 430.869 405.973C430.869 407.104 430.606 408.182 430.08 409.208C429.554 410.234 428.923 411.128 428.186 411.891C427.45 412.654 426.398 413.627 425.03 414.811C424.083 415.626 422.768 416.836 421.084 418.441L418.756 420.65L421.755 420.69C425.885 420.69 428.081 420.624 428.344 420.492C428.528 420.44 428.844 419.269 429.291 416.981V416.863H430.869V416.981C430.843 417.06 430.672 418.257 430.356 420.571C430.041 422.886 429.843 424.096 429.764 424.201V424.32H415.126V423.57V423.096C415.126 422.912 415.205 422.715 415.363 422.505C415.521 422.294 415.916 421.834 416.547 421.124C417.31 420.282 417.967 419.545 418.52 418.914C418.756 418.651 419.204 418.165 419.861 417.454C420.519 416.744 420.966 416.258 421.203 415.995C421.439 415.731 421.821 415.297 422.347 414.692C422.873 414.087 423.241 413.64 423.452 413.351C423.662 413.062 423.964 412.667 424.359 412.167C424.754 411.668 425.03 411.247 425.188 410.905C425.345 410.563 425.543 410.181 425.779 409.761C426.016 409.34 426.187 408.919 426.292 408.498C426.398 408.077 426.49 407.683 426.569 407.314C426.647 406.946 426.687 406.512 426.687 406.012C426.687 404.355 426.24 402.922 425.345 401.712C424.451 400.502 423.175 399.897 421.518 399.897C420.65 399.897 419.887 400.12 419.23 400.567C418.572 401.015 418.112 401.449 417.849 401.869C417.586 402.29 417.454 402.54 417.454 402.619C417.454 402.645 417.52 402.659 417.652 402.659C418.125 402.659 418.612 402.843 419.111 403.211C419.611 403.579 419.861 404.184 419.861 405.026C419.861 405.684 419.651 406.236 419.23 406.683C418.809 407.13 418.217 407.367 417.454 407.393Z" fill="white"/>
</g>
</g>
</g>
</g>
</g>
</g>
<g id="claves">
<path id="Rectangle 4" d="M49 497H265.745L299 537L265.745 577H49V497Z" fill="#CD08D1" fill-opacity="0.1"/>
<path id="Rectangle 4 (Stroke)" fill-rule="evenodd" clip-rule="evenodd" d="M264.338 500H52V574H264.338L295.099 537L264.338 500ZM265.745 497H49V577H265.745L299 537L265.745 497Z" fill="#CD08D1"/>
<path id="Rectangle 5" d="M53 607H269.745L303 647L269.745 687H53V607Z" fill="#CD08D1" fill-opacity="0.1"/>
<path id="Rectangle 5 (Stroke)" fill-rule="evenodd" clip-rule="evenodd" d="M268.338 610H56V684H268.338L299.099 647L268.338 610ZM269.745 607H53V687H269.745L303 647L269.745 607Z" fill="#CD08D1"/>
<path id="Rectangle 6" d="M389 494H605.745L639 534L605.745 574H389V494Z" fill="#CD08D1" fill-opacity="0.1"/>
<path id="Rectangle 6 (Stroke)" fill-rule="evenodd" clip-rule="evenodd" d="M604.338 497H392V571H604.338L635.099 534L604.338 497ZM605.745 494H389V574H605.745L639 534L605.745 494Z" fill="#CD08D1"/>
<path id="Rectangle 7" d="M392 604H608.745L642 644L608.745 684H392V604Z" fill="#CD08D1" fill-opacity="0.1"/>
<path id="Rectangle 7 (Stroke)" fill-rule="evenodd" clip-rule="evenodd" d="M607.338 607H395V681H607.338L638.099 644L607.338 607ZM608.745 604H392V684H608.745L642 644L608.745 604Z" fill="#CD08D1"/>
<path id="Rectangle 8" d="M735 553H951.745L985 593L951.745 633H735V553Z" fill="#CD08D1" fill-opacity="0.1"/>
<path id="Rectangle 8 (Stroke)" fill-rule="evenodd" clip-rule="evenodd" d="M950.338 556H738V630H950.338L981.099 593L950.338 556ZM951.745 553H735V633H951.745L985 593L951.745 553Z" fill="#CD08D1"/>
<path id="Ellipse 1" d="M90 537C90 559.091 72.0914 577 50 577C27.9086 577 10 559.091 10 537C10 514.909 27.9086 497 50 497C72.0914 497 90 514.909 90 537Z" fill="#CD08D1"/>
<path id="Ellipse 2" d="M94 647C94 669.091 76.0914 687 54 687C31.9086 687 14 669.091 14 647C14 624.909 31.9086 607 54 607C76.0914 607 94 624.909 94 647Z" fill="#CD08D1"/>
<path id="Ellipse 3" d="M430 534C430 556.091 412.091 574 390 574C367.909 574 350 556.091 350 534C350 511.909 367.909 494 390 494C412.091 494 430 511.909 430 534Z" fill="#CD08D1"/>
<path id="Ellipse 4" d="M433 644C433 666.091 415.091 684 393 684C370.909 684 353 666.091 353 644C353 621.909 370.909 604 393 604C415.091 604 433 621.909 433 644Z" fill="#CD08D1"/>
<path id="Ellipse 5" d="M776 593C776 615.091 758.091 633 736 633C713.909 633 696 615.091 696 593C696 570.909 713.909 553 736 553C758.091 553 776 570.909 776 593Z" fill="#CD08D1"/>
<path id="A" d="M58.0938 547.406H40.4688L36.7812 558H28.5625L45.75 512.5H52.8438L70.0625 558H61.8125L58.0938 547.406ZM42.6875 541.031H55.875L49.2812 522.156L42.6875 541.031Z" fill="white"/>
<path id="B" d="M37.625 663V617.5H53.2188C58.3646 617.5 62.2812 618.531 64.9688 620.594C67.6562 622.656 69 625.729 69 629.812C69 631.896 68.4375 633.771 67.3125 635.438C66.1875 637.104 64.5417 638.396 62.375 639.312C64.8333 639.979 66.7292 641.24 68.0625 643.094C69.4167 644.927 70.0938 647.135 70.0938 649.719C70.0938 653.99 68.7188 657.271 65.9688 659.562C63.2396 661.854 59.3229 663 54.2188 663H37.625ZM45.5312 642.469V656.688H54.3125C56.7917 656.688 58.7292 656.073 60.125 654.844C61.5208 653.615 62.2188 651.906 62.2188 649.719C62.2188 644.99 59.8021 642.573 54.9688 642.469H45.5312ZM45.5312 636.656H53.2812C55.7396 636.656 57.6562 636.104 59.0312 635C60.4271 633.875 61.125 632.292 61.125 630.25C61.125 628 60.4792 626.375 59.1875 625.375C57.9167 624.375 55.9271 623.875 53.2188 623.875H45.5312V636.656Z" fill="white"/>
<path id="C" d="M407.344 541.188C406.885 546.042 405.094 549.833 401.969 552.562C398.844 555.271 394.688 556.625 389.5 556.625C385.875 556.625 382.677 555.771 379.906 554.062C377.156 552.333 375.031 549.885 373.531 546.719C372.031 543.552 371.25 539.875 371.188 535.688V531.438C371.188 527.146 371.948 523.365 373.469 520.094C374.99 516.823 377.167 514.302 380 512.531C382.854 510.76 386.146 509.875 389.875 509.875C394.896 509.875 398.938 511.24 402 513.969C405.062 516.698 406.844 520.552 407.344 525.531H399.469C399.094 522.26 398.135 519.906 396.594 518.469C395.073 517.01 392.833 516.281 389.875 516.281C386.438 516.281 383.792 517.542 381.938 520.062C380.104 522.562 379.167 526.24 379.125 531.094V535.125C379.125 540.042 380 543.792 381.75 546.375C383.521 548.958 386.104 550.25 389.5 550.25C392.604 550.25 394.938 549.552 396.5 548.156C398.062 546.76 399.052 544.438 399.469 541.188H407.344Z" fill="white"/>
<path id="D" d="M375.625 666V620.5H389.062C393.083 620.5 396.646 621.396 399.75 623.188C402.875 624.979 405.292 627.521 407 630.812C408.708 634.104 409.562 637.875 409.562 642.125V644.406C409.562 648.719 408.698 652.51 406.969 655.781C405.26 659.052 402.812 661.573 399.625 663.344C396.458 665.115 392.823 666 388.719 666H375.625ZM383.531 626.875V659.688H388.688C392.833 659.688 396.01 658.396 398.219 655.812C400.448 653.208 401.583 649.479 401.625 644.625V642.094C401.625 637.156 400.552 633.385 398.406 630.781C396.26 628.177 393.146 626.875 389.062 626.875H383.531Z" fill="white"/>
<path id="E" d="M745.219 594.688H726.531V608.688H748.375V615H718.625V569.5H748.156V575.875H726.531V588.438H745.219V594.688Z" fill="white"/>
<g id="1200 3800 1160 3400 3820">
<path d="M139.95 550H136.136V524.714L128.486 527.523V524.078L139.355 519.997H139.95V550Z" fill="#CD08D1"/>
<path d="M170.63 550H151.065V547.272L161.401 535.788C162.933 534.052 163.985 532.644 164.56 531.563C165.147 530.47 165.441 529.342 165.441 528.18C165.441 526.621 164.97 525.343 164.026 524.345C163.083 523.347 161.825 522.848 160.253 522.848C158.366 522.848 156.896 523.388 155.844 524.468C154.805 525.534 154.285 527.024 154.285 528.938H150.491C150.491 526.19 151.373 523.969 153.137 522.273C154.914 520.578 157.286 519.73 160.253 519.73C163.028 519.73 165.223 520.462 166.836 521.925C168.449 523.374 169.256 525.309 169.256 527.729C169.256 530.668 167.383 534.168 163.637 538.229L155.639 546.903H170.63V550Z" fill="#CD08D1"/>
<path d="M193.373 537.265C193.373 541.708 192.614 545.01 191.097 547.17C189.579 549.33 187.207 550.41 183.98 550.41C180.795 550.41 178.437 549.357 176.905 547.252C175.374 545.133 174.581 541.975 174.526 537.777V532.712C174.526 528.323 175.285 525.062 176.803 522.93C178.32 520.797 180.699 519.73 183.939 519.73C187.152 519.73 189.518 520.763 191.035 522.827C192.553 524.878 193.332 528.05 193.373 532.343V537.265ZM189.579 532.076C189.579 528.863 189.128 526.525 188.226 525.062C187.323 523.586 185.895 522.848 183.939 522.848C181.998 522.848 180.583 523.579 179.694 525.042C178.806 526.505 178.348 528.754 178.32 531.789V537.859C178.32 541.086 178.785 543.472 179.715 545.017C180.658 546.548 182.08 547.313 183.98 547.313C185.854 547.313 187.241 546.589 188.144 545.14C189.06 543.69 189.538 541.407 189.579 538.29V532.076Z" fill="#CD08D1"/>
<path d="M216.957 537.265C216.957 541.708 216.198 545.01 214.681 547.17C213.163 549.33 210.791 550.41 207.564 550.41C204.379 550.41 202.021 549.357 200.489 547.252C198.958 545.133 198.165 541.975 198.11 537.777V532.712C198.11 528.323 198.869 525.062 200.387 522.93C201.904 520.797 204.283 519.73 207.523 519.73C210.736 519.73 213.102 520.763 214.619 522.827C216.137 524.878 216.916 528.05 216.957 532.343V537.265ZM213.163 532.076C213.163 528.863 212.712 526.525 211.81 525.062C210.907 523.586 209.479 522.848 207.523 522.848C205.582 522.848 204.167 523.579 203.278 525.042C202.39 526.505 201.932 528.754 201.904 531.789V537.859C201.904 541.086 202.369 543.472 203.299 545.017C204.242 546.548 205.664 547.313 207.564 547.313C209.438 547.313 210.825 546.589 211.728 545.14C212.644 543.69 213.122 541.407 213.163 538.29V532.076Z" fill="#CD08D1"/>
<path d="M466.947 533.225H469.798C471.589 533.197 472.997 532.726 474.022 531.81C475.048 530.894 475.561 529.656 475.561 528.098C475.561 524.598 473.817 522.848 470.331 522.848C468.69 522.848 467.378 523.319 466.394 524.263C465.423 525.192 464.938 526.43 464.938 527.975H461.144C461.144 525.609 462.005 523.647 463.728 522.089C465.464 520.517 467.665 519.73 470.331 519.73C473.147 519.73 475.355 520.476 476.955 521.966C478.555 523.456 479.354 525.527 479.354 528.18C479.354 529.479 478.931 530.736 478.083 531.953C477.249 533.17 476.107 534.079 474.658 534.681C476.299 535.2 477.563 536.062 478.452 537.265C479.354 538.468 479.806 539.938 479.806 541.674C479.806 544.354 478.931 546.479 477.181 548.052C475.431 549.624 473.154 550.41 470.352 550.41C467.549 550.41 465.266 549.651 463.502 548.134C461.752 546.616 460.877 544.613 460.877 542.125H464.691C464.691 543.697 465.204 544.955 466.229 545.898C467.255 546.842 468.629 547.313 470.352 547.313C472.184 547.313 473.585 546.835 474.556 545.878C475.526 544.921 476.012 543.547 476.012 541.756C476.012 540.02 475.479 538.687 474.412 537.757C473.346 536.827 471.808 536.349 469.798 536.321H466.947V533.225Z" fill="#CD08D1"/>
<path d="M503.123 527.934C503.123 529.424 502.727 530.75 501.934 531.912C501.154 533.074 500.095 533.983 498.755 534.64C500.313 535.31 501.544 536.287 502.446 537.572C503.362 538.857 503.82 540.313 503.82 541.94C503.82 544.524 502.945 546.582 501.195 548.113C499.459 549.645 497.169 550.41 494.325 550.41C491.454 550.41 489.15 549.645 487.414 548.113C485.691 546.568 484.83 544.511 484.83 541.94C484.83 540.327 485.268 538.871 486.143 537.572C487.031 536.273 488.255 535.289 489.813 534.619C488.487 533.963 487.441 533.054 486.676 531.892C485.91 530.729 485.527 529.41 485.527 527.934C485.527 525.418 486.334 523.422 487.947 521.945C489.561 520.469 491.687 519.73 494.325 519.73C496.95 519.73 499.069 520.469 500.683 521.945C502.31 523.422 503.123 525.418 503.123 527.934ZM500.026 541.858C500.026 540.19 499.493 538.83 498.427 537.777C497.374 536.725 495.993 536.198 494.284 536.198C492.575 536.198 491.201 536.718 490.162 537.757C489.137 538.796 488.624 540.163 488.624 541.858C488.624 543.554 489.123 544.887 490.121 545.857C491.133 546.828 492.534 547.313 494.325 547.313C496.103 547.313 497.497 546.828 498.509 545.857C499.521 544.873 500.026 543.54 500.026 541.858ZM494.325 522.848C492.835 522.848 491.625 523.312 490.695 524.242C489.779 525.158 489.321 526.409 489.321 527.995C489.321 529.513 489.772 530.743 490.675 531.687C491.591 532.616 492.808 533.081 494.325 533.081C495.843 533.081 497.053 532.616 497.955 531.687C498.871 530.743 499.329 529.513 499.329 527.995C499.329 526.478 498.857 525.24 497.914 524.283C496.971 523.326 495.774 522.848 494.325 522.848Z" fill="#CD08D1"/>
<path d="M527.322 537.265C527.322 541.708 526.563 545.01 525.046 547.17C523.528 549.33 521.156 550.41 517.93 550.41C514.744 550.41 512.386 549.357 510.854 547.252C509.323 545.133 508.53 541.975 508.476 537.777V532.712C508.476 528.323 509.234 525.062 510.752 522.93C512.27 520.797 514.648 519.73 517.889 519.73C521.102 519.73 523.467 520.763 524.984 522.827C526.502 524.878 527.281 528.05 527.322 532.343V537.265ZM523.528 532.076C523.528 528.863 523.077 526.525 522.175 525.062C521.272 523.586 519.844 522.848 517.889 522.848C515.947 522.848 514.532 523.579 513.644 525.042C512.755 526.505 512.297 528.754 512.27 531.789V537.859C512.27 541.086 512.734 543.472 513.664 545.017C514.607 546.548 516.029 547.313 517.93 547.313C519.803 547.313 521.19 546.589 522.093 545.14C523.009 543.69 523.487 541.407 523.528 538.29V532.076Z" fill="#CD08D1"/>
<path d="M550.906 537.265C550.906 541.708 550.147 545.01 548.63 547.17C547.112 549.33 544.74 550.41 541.514 550.41C538.328 550.41 535.97 549.357 534.438 547.252C532.907 545.133 532.114 541.975 532.06 537.777V532.712C532.06 528.323 532.818 525.062 534.336 522.93C535.854 520.797 538.232 519.73 541.473 519.73C544.686 519.73 547.051 520.763 548.568 522.827C550.086 524.878 550.865 528.05 550.906 532.343V537.265ZM547.112 532.076C547.112 528.863 546.661 526.525 545.759 525.062C544.856 523.586 543.428 522.848 541.473 522.848C539.531 522.848 538.116 523.579 537.228 525.042C536.339 526.505 535.881 528.754 535.854 531.789V537.859C535.854 541.086 536.318 543.472 537.248 545.017C538.191 546.548 539.613 547.313 541.514 547.313C543.387 547.313 544.774 546.589 545.677 545.14C546.593 543.69 547.071 541.407 547.112 538.29V532.076Z" fill="#CD08D1"/>
<path d="M817.118 605H813.304V579.714L805.654 582.523V579.078L816.523 574.997H817.118V605Z" fill="#CD08D1"/>
<path d="M840.702 605H836.888V579.714L829.238 582.523V579.078L840.107 574.997H840.702V605Z" fill="#CD08D1"/>
<path d="M866.706 575.12V578.34H866.009C863.056 578.395 860.704 579.27 858.954 580.965C857.204 582.66 856.192 585.046 855.919 588.122C857.491 586.317 859.638 585.415 862.358 585.415C864.956 585.415 867.027 586.331 868.572 588.163C870.131 589.995 870.91 592.36 870.91 595.259C870.91 598.335 870.069 600.796 868.388 602.642C866.72 604.487 864.478 605.41 861.661 605.41C858.804 605.41 856.486 604.316 854.709 602.129C852.932 599.928 852.043 597.098 852.043 593.639V592.183C852.043 586.687 853.212 582.489 855.55 579.591C857.901 576.679 861.395 575.188 866.029 575.12H866.706ZM861.723 588.573C860.424 588.573 859.228 588.963 858.134 589.742C857.04 590.521 856.281 591.499 855.857 592.675V594.069C855.857 596.53 856.411 598.513 857.519 600.017C858.626 601.521 860.007 602.272 861.661 602.272C863.37 602.272 864.71 601.644 865.681 600.386C866.665 599.128 867.157 597.48 867.157 595.443C867.157 593.393 866.658 591.738 865.66 590.48C864.676 589.209 863.363 588.573 861.723 588.573Z" fill="#CD08D1"/>
<path d="M894.125 592.265C894.125 596.708 893.366 600.01 891.849 602.17C890.331 604.33 887.959 605.41 884.732 605.41C881.547 605.41 879.188 604.357 877.657 602.252C876.126 600.133 875.333 596.975 875.278 592.777V587.712C875.278 583.323 876.037 580.062 877.555 577.93C879.072 575.797 881.451 574.73 884.691 574.73C887.904 574.73 890.27 575.763 891.787 577.827C893.305 579.878 894.084 583.05 894.125 587.343V592.265ZM890.331 587.076C890.331 583.863 889.88 581.525 888.978 580.062C888.075 578.586 886.646 577.848 884.691 577.848C882.75 577.848 881.335 578.579 880.446 580.042C879.558 581.505 879.1 583.754 879.072 586.789V592.859C879.072 596.086 879.537 598.472 880.467 600.017C881.41 601.548 882.832 602.313 884.732 602.313C886.605 602.313 887.993 601.589 888.896 600.14C889.812 598.69 890.29 596.407 890.331 593.29V587.076Z" fill="#CD08D1"/>
<path d="M132.998 643.225H135.849C137.64 643.197 139.048 642.726 140.073 641.81C141.099 640.894 141.611 639.656 141.611 638.098C141.611 634.598 139.868 632.848 136.382 632.848C134.741 632.848 133.429 633.319 132.444 634.263C131.474 635.192 130.988 636.43 130.988 637.975H127.194C127.194 635.609 128.056 633.647 129.778 632.089C131.515 630.517 133.716 629.73 136.382 629.73C139.198 629.73 141.406 630.476 143.006 631.966C144.605 633.456 145.405 635.527 145.405 638.18C145.405 639.479 144.981 640.736 144.134 641.953C143.3 643.17 142.158 644.079 140.709 644.681C142.35 645.2 143.614 646.062 144.503 647.265C145.405 648.468 145.856 649.938 145.856 651.674C145.856 654.354 144.981 656.479 143.231 658.052C141.481 659.624 139.205 660.41 136.402 660.41C133.6 660.41 131.316 659.651 129.553 658.134C127.803 656.616 126.928 654.613 126.928 652.125H130.742C130.742 653.697 131.255 654.955 132.28 655.898C133.306 656.842 134.68 657.313 136.402 657.313C138.234 657.313 139.636 656.835 140.606 655.878C141.577 654.921 142.062 653.547 142.062 651.756C142.062 650.02 141.529 648.687 140.463 647.757C139.396 646.827 137.858 646.349 135.849 646.321H132.998V643.225Z" fill="#CD08D1"/>
<path d="M167.082 649.972H171.225V653.068H167.082V660H163.268V653.068H149.671V650.833L163.042 630.141H167.082V649.972ZM153.978 649.972H163.268V635.329L162.816 636.149L153.978 649.972Z" fill="#CD08D1"/>
<path d="M193.373 647.265C193.373 651.708 192.614 655.01 191.097 657.17C189.579 659.33 187.207 660.41 183.98 660.41C180.795 660.41 178.437 659.357 176.905 657.252C175.374 655.133 174.581 651.975 174.526 647.777V642.712C174.526 638.323 175.285 635.062 176.803 632.93C178.32 630.797 180.699 629.73 183.939 629.73C187.152 629.73 189.518 630.763 191.035 632.827C192.553 634.878 193.332 638.05 193.373 642.343V647.265ZM189.579 642.076C189.579 638.863 189.128 636.525 188.226 635.062C187.323 633.586 185.895 632.848 183.939 632.848C181.998 632.848 180.583 633.579 179.694 635.042C178.806 636.505 178.348 638.754 178.32 641.789V647.859C178.32 651.086 178.785 653.472 179.715 655.017C180.658 656.548 182.08 657.313 183.98 657.313C185.854 657.313 187.241 656.589 188.144 655.14C189.06 653.69 189.538 651.407 189.579 648.29V642.076Z" fill="#CD08D1"/>
<path d="M216.957 647.265C216.957 651.708 216.198 655.01 214.681 657.17C213.163 659.33 210.791 660.41 207.564 660.41C204.379 660.41 202.021 659.357 200.489 657.252C198.958 655.133 198.165 651.975 198.11 647.777V642.712C198.11 638.323 198.869 635.062 200.387 632.93C201.904 630.797 204.283 629.73 207.523 629.73C210.736 629.73 213.102 630.763 214.619 632.827C216.137 634.878 216.916 638.05 216.957 642.343V647.265ZM213.163 642.076C213.163 638.863 212.712 636.525 211.81 635.062C210.907 633.586 209.479 632.848 207.523 632.848C205.582 632.848 204.167 633.579 203.278 635.042C202.39 636.505 201.932 638.754 201.904 641.789V647.859C201.904 651.086 202.369 653.472 203.299 655.017C204.242 656.548 205.664 657.313 207.564 657.313C209.438 657.313 210.825 656.589 211.728 655.14C212.644 653.69 213.122 651.407 213.163 648.29V642.076Z" fill="#CD08D1"/>
<path d="M477.365 643.225H480.216C482.007 643.197 483.415 642.726 484.44 641.81C485.466 640.894 485.979 639.656 485.979 638.098C485.979 634.598 484.235 632.848 480.749 632.848C479.108 632.848 477.796 633.319 476.812 634.263C475.841 635.192 475.355 636.43 475.355 637.975H471.562C471.562 635.609 472.423 633.647 474.146 632.089C475.882 630.517 478.083 629.73 480.749 629.73C483.565 629.73 485.773 630.476 487.373 631.966C488.973 633.456 489.772 635.527 489.772 638.18C489.772 639.479 489.349 640.736 488.501 641.953C487.667 643.17 486.525 644.079 485.076 644.681C486.717 645.2 487.981 646.062 488.87 647.265C489.772 648.468 490.224 649.938 490.224 651.674C490.224 654.354 489.349 656.479 487.599 658.052C485.849 659.624 483.572 660.41 480.77 660.41C477.967 660.41 475.684 659.651 473.92 658.134C472.17 656.616 471.295 654.613 471.295 652.125H475.109C475.109 653.697 475.622 654.955 476.647 655.898C477.673 656.842 479.047 657.313 480.77 657.313C482.602 657.313 484.003 656.835 484.974 655.878C485.944 654.921 486.43 653.547 486.43 651.756C486.43 650.02 485.896 648.687 484.83 647.757C483.764 646.827 482.226 646.349 480.216 646.321H477.365V643.225Z" fill="#CD08D1"/>
<path d="M513.541 637.934C513.541 639.424 513.145 640.75 512.352 641.912C511.572 643.074 510.513 643.983 509.173 644.64C510.731 645.31 511.962 646.287 512.864 647.572C513.78 648.857 514.238 650.313 514.238 651.94C514.238 654.524 513.363 656.582 511.613 658.113C509.877 659.645 507.587 660.41 504.743 660.41C501.872 660.41 499.568 659.645 497.832 658.113C496.109 656.568 495.248 654.511 495.248 651.94C495.248 650.327 495.686 648.871 496.561 647.572C497.449 646.273 498.673 645.289 500.231 644.619C498.905 643.963 497.859 643.054 497.094 641.892C496.328 640.729 495.945 639.41 495.945 637.934C495.945 635.418 496.752 633.422 498.365 631.945C499.979 630.469 502.104 629.73 504.743 629.73C507.368 629.73 509.487 630.469 511.101 631.945C512.728 633.422 513.541 635.418 513.541 637.934ZM510.444 651.858C510.444 650.19 509.911 648.83 508.845 647.777C507.792 646.725 506.411 646.198 504.702 646.198C502.993 646.198 501.619 646.718 500.58 647.757C499.555 648.796 499.042 650.163 499.042 651.858C499.042 653.554 499.541 654.887 500.539 655.857C501.551 656.828 502.952 657.313 504.743 657.313C506.521 657.313 507.915 656.828 508.927 655.857C509.938 654.873 510.444 653.54 510.444 651.858ZM504.743 632.848C503.253 632.848 502.043 633.312 501.113 634.242C500.197 635.158 499.739 636.409 499.739 637.995C499.739 639.513 500.19 640.743 501.093 641.687C502.009 642.616 503.226 643.081 504.743 643.081C506.261 643.081 507.471 642.616 508.373 641.687C509.289 640.743 509.747 639.513 509.747 637.995C509.747 636.478 509.275 635.24 508.332 634.283C507.389 633.326 506.192 632.848 504.743 632.848Z" fill="#CD08D1"/>
<path d="M538.581 660H519.017V657.272L529.353 645.788C530.884 644.052 531.937 642.644 532.511 641.563C533.099 640.47 533.393 639.342 533.393 638.18C533.393 636.621 532.921 635.343 531.978 634.345C531.034 633.347 529.776 632.848 528.204 632.848C526.317 632.848 524.848 633.388 523.795 634.468C522.756 635.534 522.236 637.024 522.236 638.938H518.442C518.442 636.19 519.324 633.969 521.088 632.273C522.865 630.578 525.237 629.73 528.204 629.73C530.979 629.73 533.174 630.462 534.787 631.925C536.4 633.374 537.207 635.309 537.207 637.729C537.207 640.668 535.334 644.168 531.588 648.229L523.59 656.903H538.581V660Z" fill="#CD08D1"/>
<path d="M561.324 647.265C561.324 651.708 560.565 655.01 559.048 657.17C557.53 659.33 555.158 660.41 551.932 660.41C548.746 660.41 546.388 659.357 544.856 657.252C543.325 655.133 542.532 651.975 542.478 647.777V642.712C542.478 638.323 543.236 635.062 544.754 632.93C546.271 630.797 548.65 629.73 551.891 629.73C555.104 629.73 557.469 630.763 558.986 632.827C560.504 634.878 561.283 638.05 561.324 642.343V647.265ZM557.53 642.076C557.53 638.863 557.079 636.525 556.177 635.062C555.274 633.586 553.846 632.848 551.891 632.848C549.949 632.848 548.534 633.579 547.646 635.042C546.757 636.505 546.299 638.754 546.271 641.789V647.859C546.271 651.086 546.736 653.472 547.666 655.017C548.609 656.548 550.031 657.313 551.932 657.313C553.805 657.313 555.192 656.589 556.095 655.14C557.011 653.69 557.489 651.407 557.53 648.29V642.076Z" fill="#CD08D1"/>
</g>
<g id="flecha">
<path id="Rectangle 2" d="M58.2002 607.008L73.482 615.133L31.5004 694.089L16.2186 685.963L58.2002 607.008Z" fill="#1043F5"/>
<path id="Rectangle 1_2" d="M0 619.904L90 570V627.692L45 610.096L0 619.904Z" fill="#1043F5"/>
<path id="Rectangle 3" d="M4.03857 689.21L19.6657 662.143L36.9364 661.565L21.3092 688.632L4.03857 689.21Z" fill="#1043F5"/>
<path id="Rectangle 4_2" d="M30.0894 703.845L45.7165 676.778L36.9258 661.154L21.2986 688.221L30.0894 703.845Z" fill="#1043F5"/>
</g>
</g>
</g>
</svg>
