<svg viewBox="0 0 977 682" fill="none" xmlns="http://www.w3.org/2000/svg">
<g id="0123107">
<g id="enunciado">
<path id="Rectangle 1" d="M26 58.6645C26 27.9109 49.3431 2.98016 78.1382 2.98016H977V388.316C977 419.069 953.657 444 924.862 444H26V58.6645Z" fill="#02071A"/>
<path id="Rectangle 1 (Stroke)" fill-rule="evenodd" clip-rule="evenodd" d="M971.786 8.50267H78.1382C52.2226 8.50267 31.2138 30.9427 31.2138 58.6238V438.431H924.862C950.777 438.431 971.786 415.991 971.786 388.309V8.50267ZM78.1382 2.93365C49.3431 2.93365 26 27.867 26 58.6238V444H924.862C953.657 444 977 419.066 977 388.309V2.93365H78.1382Z" fill="#CD08D1"/>
<path id="Rectangle 14" d="M82.4656 3.08005C110.352 -3.85006 977 3.08005 977 3.08005V33.082C977 33.082 67.7105 22.0546 35.3849 33.082C45.4431 17.1694 54.5796 10.0102 82.4656 3.08005Z" fill="#CD08D1"/>
<path id="Rectangle 15" d="M944 9.53558H975V389.463C971.195 415.246 963.308 424.722 944 437.091C949.683 416.835 944 9.53558 944 9.53558Z" fill="#CD08D1"/>
<g id="Calcule el n&#195;&#186;mero m&#195;&#161;ximo de rombos del tama&#195;&#177;o indicado:">
<path d="M72.4297 64.2731C72.0605 67.4313 70.8916 69.8717 68.9229 71.5944C66.9678 73.3033 64.3633 74.1578 61.1094 74.1578C57.582 74.1578 54.752 72.8932 52.6191 70.3639C50.5 67.8346 49.4404 64.4508 49.4404 60.2125V57.3414C49.4404 54.566 49.9326 52.1256 50.917 50.0201C51.915 47.9147 53.3232 46.3014 55.1416 45.1803C56.96 44.0455 59.0654 43.4781 61.458 43.4781C64.6299 43.4781 67.1729 44.3668 69.0869 46.1442C71.001 47.9078 72.1152 50.3551 72.4297 53.486H68.4717C68.1299 51.1071 67.3848 49.3844 66.2363 48.318C65.1016 47.2516 63.5088 46.7184 61.458 46.7184C58.9424 46.7184 56.9668 47.6481 55.5312 49.5074C54.1094 51.3668 53.3984 54.0123 53.3984 57.444V60.3356C53.3984 63.5758 54.0752 66.153 55.4287 68.067C56.7822 69.9811 58.6758 70.9381 61.1094 70.9381C63.2969 70.9381 64.9717 70.4459 66.1338 69.4615C67.3096 68.4635 68.0889 66.734 68.4717 64.2731H72.4297Z" fill="white"/>
<path d="M90.9277 73.7477C90.709 73.3102 90.5312 72.5309 90.3945 71.4098C88.6309 73.2418 86.5254 74.1578 84.0781 74.1578C81.8906 74.1578 80.0928 73.5426 78.6846 72.3121C77.29 71.068 76.5928 69.4957 76.5928 67.5953C76.5928 65.2848 77.4678 63.4938 79.2178 62.2223C80.9814 60.9371 83.4561 60.2946 86.6416 60.2946H90.333V58.5514C90.333 57.2252 89.9365 56.1725 89.1436 55.3932C88.3506 54.6002 87.1816 54.2037 85.6367 54.2037C84.2832 54.2037 83.1484 54.5455 82.2324 55.2291C81.3164 55.9127 80.8584 56.7399 80.8584 57.7106H77.0439C77.0439 56.6031 77.4336 55.5367 78.2129 54.5114C79.0059 53.4723 80.0723 52.652 81.4121 52.0504C82.7656 51.4489 84.249 51.1481 85.8623 51.1481C88.4189 51.1481 90.4219 51.7906 91.8711 53.0758C93.3203 54.3473 94.0723 56.1041 94.127 58.3463V68.5592C94.127 70.5963 94.3867 72.2164 94.9062 73.4196V73.7477H90.9277ZM84.6318 70.8561C85.8213 70.8561 86.9492 70.5485 88.0156 69.9332C89.082 69.318 89.8545 68.5182 90.333 67.5338V62.9811H87.3594C82.7109 62.9811 80.3867 64.3414 80.3867 67.0621C80.3867 68.2516 80.7832 69.1813 81.5762 69.8512C82.3691 70.5211 83.3877 70.8561 84.6318 70.8561Z" fill="white"/>
<path d="M104.196 73.7477H100.402V42.2477H104.196V73.7477Z" fill="white"/>
<path d="M119.188 71.0612C120.541 71.0612 121.724 70.651 122.735 69.8307C123.747 69.0104 124.308 67.985 124.417 66.7545H128.006C127.938 68.026 127.5 69.236 126.693 70.3844C125.887 71.5328 124.807 72.4489 123.453 73.1324C122.113 73.816 120.691 74.1578 119.188 74.1578C116.166 74.1578 113.76 73.153 111.969 71.1432C110.191 69.1198 109.303 66.358 109.303 62.858V62.2223C109.303 60.0621 109.699 58.1412 110.492 56.4596C111.285 54.778 112.42 53.4723 113.896 52.5426C115.387 51.6129 117.144 51.1481 119.167 51.1481C121.655 51.1481 123.72 51.8932 125.36 53.3834C127.015 54.8737 127.896 56.8082 128.006 59.1871H124.417C124.308 57.7516 123.761 56.5758 122.776 55.6598C121.806 54.7301 120.603 54.2653 119.167 54.2653C117.239 54.2653 115.742 54.9625 114.676 56.3571C113.623 57.7379 113.097 59.7408 113.097 62.3658V63.0836C113.097 65.6403 113.623 67.609 114.676 68.9899C115.729 70.3707 117.232 71.0612 119.188 71.0612Z" fill="white"/>
<path d="M145.971 71.5533C144.494 73.2897 142.327 74.1578 139.47 74.1578C137.104 74.1578 135.3 73.4742 134.056 72.1071C132.825 70.7262 132.203 68.6891 132.189 65.9957V51.5582H135.983V65.8932C135.983 69.2565 137.351 70.9381 140.085 70.9381C142.983 70.9381 144.911 69.858 145.868 67.6979V51.5582H149.662V73.7477H146.053L145.971 71.5533Z" fill="white"/>
<path d="M159.567 73.7477H155.773V42.2477H159.567V73.7477Z" fill="white"/>
<path d="M174.866 74.1578C171.858 74.1578 169.411 73.1735 167.524 71.2047C165.638 69.2223 164.694 66.5768 164.694 63.2682V62.5709C164.694 60.3698 165.111 58.4078 165.945 56.6852C166.793 54.9489 167.969 53.5953 169.473 52.6246C170.99 51.6403 172.631 51.1481 174.395 51.1481C177.279 51.1481 179.521 52.0983 181.121 53.9987C182.721 55.899 183.521 58.6198 183.521 62.1608V63.7399H168.488C168.543 65.9274 169.179 67.6979 170.396 69.0514C171.626 70.3912 173.185 71.0612 175.071 71.0612C176.411 71.0612 177.546 70.7877 178.476 70.2408C179.405 69.694 180.219 68.9694 180.916 68.067L183.233 69.8717C181.374 72.7291 178.585 74.1578 174.866 74.1578ZM174.395 54.2653C172.863 54.2653 171.578 54.8258 170.539 55.9469C169.5 57.0543 168.857 58.6129 168.611 60.6227H179.727V60.3356C179.617 58.4078 179.098 56.9176 178.168 55.8649C177.238 54.7985 175.98 54.2653 174.395 54.2653Z" fill="white"/>
<path d="M207.556 74.1578C204.548 74.1578 202.101 73.1735 200.214 71.2047C198.327 69.2223 197.384 66.5768 197.384 63.2682V62.5709C197.384 60.3698 197.801 58.4078 198.635 56.6852C199.482 54.9489 200.658 53.5953 202.162 52.6246C203.68 51.6403 205.32 51.1481 207.084 51.1481C209.969 51.1481 212.211 52.0983 213.811 53.9987C215.41 55.899 216.21 58.6198 216.21 62.1608V63.7399H201.178C201.232 65.9274 201.868 67.6979 203.085 69.0514C204.315 70.3912 205.874 71.0612 207.761 71.0612C209.101 71.0612 210.235 70.7877 211.165 70.2408C212.095 69.694 212.908 68.9694 213.605 68.067L215.923 69.8717C214.063 72.7291 211.274 74.1578 207.556 74.1578ZM207.084 54.2653C205.553 54.2653 204.268 54.8258 203.229 55.9469C202.189 57.0543 201.547 58.6129 201.301 60.6227H212.416V60.3356C212.307 58.4078 211.787 56.9176 210.857 55.8649C209.928 54.7985 208.67 54.2653 207.084 54.2653Z" fill="white"/>
<path d="M224.741 73.7477H220.947V42.2477H224.741V73.7477Z" fill="white"/>
<path d="M244.839 51.5582L244.962 54.3473C246.657 52.2145 248.872 51.1481 251.606 51.1481C256.296 51.1481 258.661 53.7936 258.702 59.0846V73.7477H254.908V59.0641C254.895 57.4645 254.525 56.2819 253.801 55.5162C253.09 54.7506 251.976 54.3678 250.458 54.3678C249.228 54.3678 248.147 54.6959 247.218 55.3522C246.288 56.0084 245.563 56.8698 245.044 57.9362V73.7477H241.25V51.5582H244.839Z" fill="white"/>
<path d="M278.123 71.5533C276.646 73.2897 274.479 74.1578 271.622 74.1578C269.257 74.1578 267.452 73.4742 266.208 72.1071C264.978 70.7262 264.355 68.6891 264.342 65.9957V51.5582H268.136V65.8932C268.136 69.2565 269.503 70.9381 272.237 70.9381C275.136 70.9381 277.063 69.858 278.021 67.6979V51.5582H281.814V73.7477H278.205L278.123 71.5533ZM275.047 42.2477H279.641L274.145 48.277H271.089L275.047 42.2477Z" fill="white"/>
<path d="M291.166 51.5582L291.269 54.0192C292.896 52.1051 295.09 51.1481 297.852 51.1481C300.955 51.1481 303.067 52.3375 304.188 54.7164C304.927 53.65 305.884 52.7887 307.06 52.1324C308.249 51.4762 309.65 51.1481 311.264 51.1481C316.131 51.1481 318.605 53.7252 318.688 58.8795V73.7477H314.894V59.1051C314.894 57.5192 314.531 56.3365 313.807 55.5573C313.082 54.7643 311.865 54.3678 310.156 54.3678C308.748 54.3678 307.579 54.7916 306.649 55.6393C305.72 56.4733 305.18 57.6012 305.029 59.0231V73.7477H301.215V59.2076C301.215 55.9811 299.636 54.3678 296.478 54.3678C293.989 54.3678 292.287 55.4274 291.371 57.5465V73.7477H287.577V51.5582H291.166Z" fill="white"/>
<path d="M333.638 74.1578C330.63 74.1578 328.183 73.1735 326.296 71.2047C324.409 69.2223 323.466 66.5768 323.466 63.2682V62.5709C323.466 60.3698 323.883 58.4078 324.717 56.6852C325.564 54.9489 326.74 53.5953 328.244 52.6246C329.762 51.6403 331.402 51.1481 333.166 51.1481C336.051 51.1481 338.293 52.0983 339.893 53.9987C341.492 55.899 342.292 58.6198 342.292 62.1608V63.7399H327.26C327.314 65.9274 327.95 67.6979 329.167 69.0514C330.397 70.3912 331.956 71.0612 333.843 71.0612C335.183 71.0612 336.317 70.7877 337.247 70.2408C338.177 69.694 338.99 68.9694 339.688 68.067L342.005 69.8717C340.146 72.7291 337.356 74.1578 333.638 74.1578ZM333.166 54.2653C331.635 54.2653 330.35 54.8258 329.311 55.9469C328.271 57.0543 327.629 58.6129 327.383 60.6227H338.498V60.3356C338.389 58.4078 337.869 56.9176 336.939 55.8649C336.01 54.7985 334.752 54.2653 333.166 54.2653Z" fill="white"/>
<path d="M357.427 54.9625C356.853 54.8668 356.23 54.819 355.561 54.819C353.072 54.819 351.384 55.8785 350.495 57.9977V73.7477H346.701V51.5582H350.393L350.454 54.1217C351.698 52.1393 353.462 51.1481 355.745 51.1481C356.483 51.1481 357.044 51.2438 357.427 51.4352V54.9625Z" fill="white"/>
<path d="M359.519 62.4479C359.519 60.274 359.942 58.319 360.79 56.5826C361.651 54.8463 362.841 53.5065 364.358 52.5631C365.89 51.6198 367.633 51.1481 369.588 51.1481C372.609 51.1481 375.05 52.194 376.909 54.2858C378.782 56.3776 379.719 59.1598 379.719 62.6324V62.899C379.719 65.0592 379.302 67.0006 378.468 68.7233C377.647 70.4323 376.465 71.7653 374.92 72.7223C373.389 73.6793 371.625 74.1578 369.629 74.1578C366.621 74.1578 364.181 73.1119 362.308 71.0201C360.448 68.9283 359.519 66.1598 359.519 62.7145V62.4479ZM363.333 62.899C363.333 65.36 363.9 67.3356 365.035 68.8258C366.184 70.316 367.715 71.0612 369.629 71.0612C371.557 71.0612 373.088 70.3092 374.223 68.8053C375.357 67.2877 375.925 65.1686 375.925 62.4479C375.925 60.0143 375.344 58.0455 374.182 56.5416C373.033 55.024 371.502 54.2653 369.588 54.2653C367.715 54.2653 366.204 55.0104 365.056 56.5006C363.907 57.9908 363.333 60.1237 363.333 62.899Z" fill="white"/>
<path d="M398.463 51.5582L398.565 54.0192C400.192 52.1051 402.387 51.1481 405.148 51.1481C408.252 51.1481 410.364 52.3375 411.485 54.7164C412.224 53.65 413.181 52.7887 414.356 52.1324C415.546 51.4762 416.947 51.1481 418.561 51.1481C423.428 51.1481 425.902 53.7252 425.984 58.8795V73.7477H422.19V59.1051C422.19 57.5192 421.828 56.3365 421.104 55.5573C420.379 54.7643 419.162 54.3678 417.453 54.3678C416.045 54.3678 414.876 54.7916 413.946 55.6393C413.017 56.4733 412.477 57.6012 412.326 59.0231V73.7477H408.512V59.2076C408.512 55.9811 406.933 54.3678 403.774 54.3678C401.286 54.3678 399.584 55.4274 398.668 57.5465V73.7477H394.874V51.5582H398.463Z" fill="white"/>
<path d="M445.426 73.7477C445.207 73.3102 445.029 72.5309 444.893 71.4098C443.129 73.2418 441.023 74.1578 438.576 74.1578C436.389 74.1578 434.591 73.5426 433.183 72.3121C431.788 71.068 431.091 69.4957 431.091 67.5953C431.091 65.2848 431.966 63.4938 433.716 62.2223C435.479 60.9371 437.954 60.2946 441.14 60.2946H444.831V58.5514C444.831 57.2252 444.435 56.1725 443.642 55.3932C442.849 54.6002 441.68 54.2037 440.135 54.2037C438.781 54.2037 437.646 54.5455 436.73 55.2291C435.814 55.9127 435.356 56.7399 435.356 57.7106H431.542C431.542 56.6031 431.932 55.5367 432.711 54.5114C433.504 53.4723 434.57 52.652 435.91 52.0504C437.264 51.4489 438.747 51.1481 440.36 51.1481C442.917 51.1481 444.92 51.7906 446.369 53.0758C447.818 54.3473 448.57 56.1041 448.625 58.3463V68.5592C448.625 70.5963 448.885 72.2164 449.404 73.4196V73.7477H445.426ZM439.13 70.8561C440.319 70.8561 441.447 70.5485 442.514 69.9332C443.58 69.318 444.353 68.5182 444.831 67.5338V62.9811H441.857C437.209 62.9811 434.885 64.3414 434.885 67.0621C434.885 68.2516 435.281 69.1813 436.074 69.8512C436.867 70.5211 437.886 70.8561 439.13 70.8561ZM442.637 42.2477H447.23L441.734 48.277H438.679L442.637 42.2477Z" fill="white"/>
<path d="M462.017 59.6588L466.938 51.5582H471.368L464.108 62.5299L471.594 73.7477H467.205L462.078 65.442L456.951 73.7477H452.542L460.027 62.5299L452.768 51.5582H457.156L462.017 59.6588Z" fill="white"/>
<path d="M479.53 73.7477H475.736V51.5582H479.53V73.7477ZM475.429 45.6725C475.429 45.0573 475.613 44.5377 475.982 44.1139C476.365 43.6901 476.926 43.4781 477.664 43.4781C478.402 43.4781 478.963 43.6901 479.346 44.1139C479.729 44.5377 479.92 45.0573 479.92 45.6725C479.92 46.2877 479.729 46.8004 479.346 47.2106C478.963 47.6207 478.402 47.8258 477.664 47.8258C476.926 47.8258 476.365 47.6207 475.982 47.2106C475.613 46.8004 475.429 46.2877 475.429 45.6725Z" fill="white"/>
<path d="M489.189 51.5582L489.292 54.0192C490.919 52.1051 493.113 51.1481 495.875 51.1481C498.979 51.1481 501.091 52.3375 502.212 54.7164C502.95 53.65 503.907 52.7887 505.083 52.1324C506.272 51.4762 507.674 51.1481 509.287 51.1481C514.154 51.1481 516.629 53.7252 516.711 58.8795V73.7477H512.917V59.1051C512.917 57.5192 512.555 56.3365 511.83 55.5573C511.105 54.7643 509.889 54.3678 508.18 54.3678C506.771 54.3678 505.603 54.7916 504.673 55.6393C503.743 56.4733 503.203 57.6012 503.053 59.0231V73.7477H499.238V59.2076C499.238 55.9811 497.659 54.3678 494.501 54.3678C492.013 54.3678 490.311 55.4274 489.395 57.5465V73.7477H485.601V51.5582H489.189Z" fill="white"/>
<path d="M521.448 62.4479C521.448 60.274 521.872 58.319 522.72 56.5826C523.581 54.8463 524.771 53.5065 526.288 52.5631C527.819 51.6198 529.562 51.1481 531.518 51.1481C534.539 51.1481 536.979 52.194 538.839 54.2858C540.712 56.3776 541.648 59.1598 541.648 62.6324V62.899C541.648 65.0592 541.231 67.0006 540.397 68.7233C539.577 70.4323 538.395 71.7653 536.85 72.7223C535.318 73.6793 533.555 74.1578 531.559 74.1578C528.551 74.1578 526.11 73.1119 524.237 71.0201C522.378 68.9283 521.448 66.1598 521.448 62.7145V62.4479ZM525.263 62.899C525.263 65.36 525.83 67.3356 526.965 68.8258C528.113 70.316 529.645 71.0612 531.559 71.0612C533.486 71.0612 535.018 70.3092 536.152 68.8053C537.287 67.2877 537.854 65.1686 537.854 62.4479C537.854 60.0143 537.273 58.0455 536.111 56.5416C534.963 55.024 533.432 54.2653 531.518 54.2653C529.645 54.2653 528.134 55.0104 526.985 56.5006C525.837 57.9908 525.263 60.1237 525.263 62.899Z" fill="white"/>
<path d="M555.901 62.4684C555.901 59.0641 556.708 56.3297 558.321 54.2653C559.935 52.1871 562.047 51.1481 564.658 51.1481C567.256 51.1481 569.313 52.0367 570.831 53.8141V42.2477H574.625V73.7477H571.139L570.954 71.3688C569.437 73.2281 567.324 74.1578 564.617 74.1578C562.047 74.1578 559.948 73.1051 558.321 70.9996C556.708 68.8942 555.901 66.1461 555.901 62.7555V62.4684ZM559.695 62.899C559.695 65.4147 560.215 67.3834 561.254 68.8053C562.293 70.2272 563.729 70.9381 565.561 70.9381C567.967 70.9381 569.724 69.858 570.831 67.6979V57.5055C569.696 55.4137 567.953 54.3678 565.602 54.3678C563.742 54.3678 562.293 55.0856 561.254 56.5211C560.215 57.9567 559.695 60.0826 559.695 62.899Z" fill="white"/>
<path d="M589.739 74.1578C586.731 74.1578 584.284 73.1735 582.397 71.2047C580.511 69.2223 579.567 66.5768 579.567 63.2682V62.5709C579.567 60.3698 579.984 58.4078 580.818 56.6852C581.666 54.9489 582.842 53.5953 584.346 52.6246C585.863 51.6403 587.504 51.1481 589.268 51.1481C592.152 51.1481 594.395 52.0983 595.994 53.9987C597.594 55.899 598.394 58.6198 598.394 62.1608V63.7399H583.361C583.416 65.9274 584.052 67.6979 585.269 69.0514C586.499 70.3912 588.058 71.0612 589.944 71.0612C591.284 71.0612 592.419 70.7877 593.349 70.2408C594.278 69.694 595.092 68.9694 595.789 68.067L598.106 69.8717C596.247 72.7291 593.458 74.1578 589.739 74.1578ZM589.268 54.2653C587.736 54.2653 586.451 54.8258 585.412 55.9469C584.373 57.0543 583.73 58.6129 583.484 60.6227H594.6V60.3356C594.49 58.4078 593.971 56.9176 593.041 55.8649C592.111 54.7985 590.854 54.2653 589.268 54.2653Z" fill="white"/>
<path d="M623.946 54.9625C623.372 54.8668 622.75 54.819 622.08 54.819C619.592 54.819 617.903 55.8785 617.015 57.9977V73.7477H613.221V51.5582H616.912L616.974 54.1217C618.218 52.1393 619.981 51.1481 622.265 51.1481C623.003 51.1481 623.563 51.2438 623.946 51.4352V54.9625Z" fill="white"/>
<path d="M626.038 62.4479C626.038 60.274 626.462 58.319 627.31 56.5826C628.171 54.8463 629.36 53.5065 630.878 52.5631C632.409 51.6198 634.152 51.1481 636.107 51.1481C639.129 51.1481 641.569 52.194 643.429 54.2858C645.302 56.3776 646.238 59.1598 646.238 62.6324V62.899C646.238 65.0592 645.821 67.0006 644.987 68.7233C644.167 70.4323 642.984 71.7653 641.439 72.7223C639.908 73.6793 638.145 74.1578 636.148 74.1578C633.141 74.1578 630.7 73.1119 628.827 71.0201C626.968 68.9283 626.038 66.1598 626.038 62.7145V62.4479ZM629.853 62.899C629.853 65.36 630.42 67.3356 631.555 68.8258C632.703 70.316 634.234 71.0612 636.148 71.0612C638.076 71.0612 639.607 70.3092 640.742 68.8053C641.877 67.2877 642.444 65.1686 642.444 62.4479C642.444 60.0143 641.863 58.0455 640.701 56.5416C639.553 55.024 638.021 54.2653 636.107 54.2653C634.234 54.2653 632.724 55.0104 631.575 56.5006C630.427 57.9908 629.853 60.1237 629.853 62.899Z" fill="white"/>
<path d="M654.564 51.5582L654.667 54.0192C656.294 52.1051 658.488 51.1481 661.25 51.1481C664.354 51.1481 666.466 52.3375 667.587 54.7164C668.325 53.65 669.282 52.7887 670.458 52.1324C671.647 51.4762 673.049 51.1481 674.662 51.1481C679.529 51.1481 682.004 53.7252 682.086 58.8795V73.7477H678.292V59.1051C678.292 57.5192 677.93 56.3365 677.205 55.5573C676.48 54.7643 675.264 54.3678 673.555 54.3678C672.146 54.3678 670.978 54.7916 670.048 55.6393C669.118 56.4733 668.578 57.6012 668.428 59.0231V73.7477H664.613V59.2076C664.613 55.9811 663.034 54.3678 659.876 54.3678C657.388 54.3678 655.686 55.4274 654.77 57.5465V73.7477H650.976V51.5582H654.564Z" fill="white"/>
<path d="M706.613 62.899C706.613 66.2897 705.834 69.0172 704.275 71.0817C702.717 73.1324 700.625 74.1578 698 74.1578C695.197 74.1578 693.03 73.1666 691.499 71.1842L691.314 73.7477H687.828V42.2477H691.622V53.9987C693.153 52.0983 695.266 51.1481 697.959 51.1481C700.652 51.1481 702.765 52.1666 704.296 54.2037C705.841 56.2408 706.613 59.0299 706.613 62.5709V62.899ZM702.819 62.4684C702.819 59.8844 702.32 57.8883 701.322 56.4801C700.324 55.0719 698.889 54.3678 697.016 54.3678C694.514 54.3678 692.716 55.5299 691.622 57.8541V67.4518C692.784 69.776 694.596 70.9381 697.057 70.9381C698.875 70.9381 700.29 70.234 701.302 68.8258C702.313 67.4176 702.819 65.2985 702.819 62.4684Z" fill="white"/>
<path d="M710.407 62.4479C710.407 60.274 710.831 58.319 711.679 56.5826C712.54 54.8463 713.729 53.5065 715.247 52.5631C716.778 51.6198 718.521 51.1481 720.477 51.1481C723.498 51.1481 725.938 52.194 727.798 54.2858C729.671 56.3776 730.607 59.1598 730.607 62.6324V62.899C730.607 65.0592 730.19 67.0006 729.356 68.7233C728.536 70.4323 727.354 71.7653 725.809 72.7223C724.277 73.6793 722.514 74.1578 720.518 74.1578C717.51 74.1578 715.069 73.1119 713.196 71.0201C711.337 68.9283 710.407 66.1598 710.407 62.7145V62.4479ZM714.222 62.899C714.222 65.36 714.789 67.3356 715.924 68.8258C717.072 70.316 718.604 71.0612 720.518 71.0612C722.445 71.0612 723.977 70.3092 725.111 68.8053C726.246 67.2877 726.813 65.1686 726.813 62.4479C726.813 60.0143 726.232 58.0455 725.07 56.5416C723.922 55.024 722.391 54.2653 720.477 54.2653C718.604 54.2653 717.093 55.0104 715.944 56.5006C714.796 57.9908 714.222 60.1237 714.222 62.899Z" fill="white"/>
<path d="M748.285 67.8619C748.285 66.8365 747.896 66.0436 747.116 65.483C746.351 64.9088 745.004 64.4166 743.076 64.0065C741.162 63.5963 739.638 63.1041 738.503 62.5299C737.382 61.9557 736.548 61.2721 736.001 60.4791C735.468 59.6862 735.201 58.7428 735.201 57.649C735.201 55.8307 735.967 54.2926 737.498 53.0348C739.043 51.777 741.012 51.1481 743.404 51.1481C745.92 51.1481 747.957 51.7975 749.516 53.0963C751.088 54.3951 751.874 56.0563 751.874 58.0797H748.06C748.06 57.0406 747.615 56.1451 746.727 55.3932C745.852 54.6412 744.744 54.2653 743.404 54.2653C742.023 54.2653 740.943 54.566 740.164 55.1676C739.385 55.7692 738.995 56.5553 738.995 57.526C738.995 58.442 739.357 59.1324 740.082 59.5973C740.807 60.0621 742.112 60.5065 743.999 60.9303C745.899 61.3541 747.438 61.86 748.613 62.4479C749.789 63.0358 750.657 63.7467 751.218 64.5807C751.792 65.401 752.079 66.4059 752.079 67.5953C752.079 69.5778 751.286 71.1705 749.7 72.3737C748.114 73.5631 746.057 74.1578 743.527 74.1578C741.75 74.1578 740.178 73.8434 738.811 73.2145C737.443 72.5856 736.37 71.7106 735.591 70.5895C734.825 69.4547 734.442 68.2311 734.442 66.9186H738.236C738.305 68.1901 738.811 69.2018 739.754 69.9537C740.711 70.692 741.969 71.0612 743.527 71.0612C744.963 71.0612 746.111 70.774 746.973 70.1998C747.848 69.6119 748.285 68.8326 748.285 67.8619Z" fill="white"/>
<path d="M766.517 62.4684C766.517 59.0641 767.323 56.3297 768.937 54.2653C770.55 52.1871 772.662 51.1481 775.273 51.1481C777.871 51.1481 779.929 52.0367 781.446 53.8141V42.2477H785.24V73.7477H781.754L781.569 71.3688C780.052 73.2281 777.939 74.1578 775.232 74.1578C772.662 74.1578 770.563 73.1051 768.937 70.9996C767.323 68.8942 766.517 66.1461 766.517 62.7555V62.4684ZM770.311 62.899C770.311 65.4147 770.83 67.3834 771.869 68.8053C772.908 70.2272 774.344 70.9381 776.176 70.9381C778.582 70.9381 780.339 69.858 781.446 67.6979V57.5055C780.312 55.4137 778.568 54.3678 776.217 54.3678C774.357 54.3678 772.908 55.0856 771.869 56.5211C770.83 57.9567 770.311 60.0826 770.311 62.899Z" fill="white"/>
<path d="M800.354 74.1578C797.347 74.1578 794.899 73.1735 793.013 71.2047C791.126 69.2223 790.183 66.5768 790.183 63.2682V62.5709C790.183 60.3698 790.6 58.4078 791.434 56.6852C792.281 54.9489 793.457 53.5953 794.961 52.6246C796.479 51.6403 798.119 51.1481 799.883 51.1481C802.768 51.1481 805.01 52.0983 806.609 53.9987C808.209 55.899 809.009 58.6198 809.009 62.1608V63.7399H793.977C794.031 65.9274 794.667 67.6979 795.884 69.0514C797.114 70.3912 798.673 71.0612 800.56 71.0612C801.899 71.0612 803.034 70.7877 803.964 70.2408C804.894 69.694 805.707 68.9694 806.404 68.067L808.722 69.8717C806.862 72.7291 804.073 74.1578 800.354 74.1578ZM799.883 54.2653C798.352 54.2653 797.066 54.8258 796.027 55.9469C794.988 57.0543 794.346 58.6129 794.1 60.6227H805.215V60.3356C805.105 58.4078 804.586 56.9176 803.656 55.8649C802.727 54.7985 801.469 54.2653 799.883 54.2653Z" fill="white"/>
<path d="M817.54 73.7477H813.746V42.2477H817.54V73.7477Z" fill="white"/>
<path d="M55.0186 95.1852V100.558H59.1611V103.491H55.0186V117.252C55.0186 118.14 55.2031 118.81 55.5723 119.261C55.9414 119.699 56.5703 119.918 57.459 119.918C57.8965 119.918 58.498 119.836 59.2637 119.672V122.748C58.2656 123.021 57.2949 123.158 56.3516 123.158C54.6562 123.158 53.3779 122.645 52.5166 121.62C51.6553 120.594 51.2246 119.138 51.2246 117.252V103.491H47.1846V100.558H51.2246V95.1852H55.0186Z" fill="white"/>
<path d="M77.3105 122.748C77.0918 122.31 76.9141 121.531 76.7773 120.41C75.0137 122.242 72.9082 123.158 70.4609 123.158C68.2734 123.158 66.4756 122.543 65.0674 121.312C63.6729 120.068 62.9756 118.496 62.9756 116.595C62.9756 114.285 63.8506 112.494 65.6006 111.222C67.3643 109.937 69.8389 109.295 73.0244 109.295H76.7158V107.551C76.7158 106.225 76.3193 105.172 75.5264 104.393C74.7334 103.6 73.5645 103.204 72.0195 103.204C70.666 103.204 69.5312 103.546 68.6152 104.229C67.6992 104.913 67.2412 105.74 67.2412 106.711H63.4268C63.4268 105.603 63.8164 104.537 64.5957 103.511C65.3887 102.472 66.4551 101.652 67.7949 101.05C69.1484 100.449 70.6318 100.148 72.2451 100.148C74.8018 100.148 76.8047 100.791 78.2539 102.076C79.7031 103.347 80.4551 105.104 80.5098 107.346V117.559C80.5098 119.596 80.7695 121.216 81.2891 122.42V122.748H77.3105ZM71.0146 119.856C72.2041 119.856 73.332 119.548 74.3984 118.933C75.4648 118.318 76.2373 117.518 76.7158 116.534V111.981H73.7422C69.0938 111.981 66.7695 113.341 66.7695 116.062C66.7695 117.252 67.166 118.181 67.959 118.851C68.752 119.521 69.7705 119.856 71.0146 119.856Z" fill="white"/>
<path d="M90.0254 100.558L90.1279 103.019C91.7549 101.105 93.9492 100.148 96.7109 100.148C99.8145 100.148 101.927 101.338 103.048 103.716C103.786 102.65 104.743 101.789 105.919 101.132C107.108 100.476 108.51 100.148 110.123 100.148C114.99 100.148 117.465 102.725 117.547 107.88V122.748H113.753V108.105C113.753 106.519 113.391 105.337 112.666 104.557C111.941 103.764 110.725 103.368 109.016 103.368C107.607 103.368 106.438 103.792 105.509 104.639C104.579 105.473 104.039 106.601 103.889 108.023V122.748H100.074V108.208C100.074 104.981 98.4951 103.368 95.3369 103.368C92.8486 103.368 91.1465 104.427 90.2305 106.547V122.748H86.4365V100.558H90.0254Z" fill="white"/>
<path d="M136.988 122.748C136.77 122.31 136.592 121.531 136.455 120.41C134.691 122.242 132.586 123.158 130.139 123.158C127.951 123.158 126.153 122.543 124.745 121.312C123.351 120.068 122.653 118.496 122.653 116.595C122.653 114.285 123.528 112.494 125.278 111.222C127.042 109.937 129.517 109.295 132.702 109.295H136.394V107.551C136.394 106.225 135.997 105.172 135.204 104.393C134.411 103.6 133.242 103.204 131.697 103.204C130.344 103.204 129.209 103.546 128.293 104.229C127.377 104.913 126.919 105.74 126.919 106.711H123.104C123.104 105.603 123.494 104.537 124.273 103.511C125.066 102.472 126.133 101.652 127.473 101.05C128.826 100.449 130.31 100.148 131.923 100.148C134.479 100.148 136.482 100.791 137.932 102.076C139.381 103.347 140.133 105.104 140.188 107.346V117.559C140.188 119.596 140.447 121.216 140.967 122.42V122.748H136.988ZM130.692 119.856C131.882 119.856 133.01 119.548 134.076 118.933C135.143 118.318 135.915 117.518 136.394 116.534V111.981H133.42C128.771 111.981 126.447 113.341 126.447 116.062C126.447 117.252 126.844 118.181 127.637 118.851C128.43 119.521 129.448 119.856 130.692 119.856Z" fill="white"/>
<path d="M149.724 100.558L149.847 103.347C151.542 101.214 153.757 100.148 156.491 100.148C161.181 100.148 163.546 102.794 163.587 108.085V122.748H159.793V108.064C159.779 106.464 159.41 105.282 158.686 104.516C157.975 103.751 156.86 103.368 155.343 103.368C154.112 103.368 153.032 103.696 152.103 104.352C151.173 105.008 150.448 105.87 149.929 106.936V122.748H146.135V100.558H149.724ZM162.274 91.9039C162.274 93.3805 161.851 94.5768 161.003 95.4928C160.169 96.4088 159.123 96.8668 157.865 96.8668C157.305 96.8668 156.819 96.7985 156.409 96.6617C155.999 96.525 155.459 96.2448 154.789 95.8209C154.133 95.3971 153.654 95.1442 153.354 95.0621C153.066 94.9664 152.731 94.9186 152.349 94.9186C151.788 94.9186 151.31 95.1373 150.913 95.5748C150.517 95.9987 150.318 96.5455 150.318 97.2155L147.775 97.0719C147.775 95.609 148.186 94.399 149.006 93.442C149.84 92.485 150.893 92.0065 152.164 92.0065C152.643 92.0065 153.073 92.0748 153.456 92.2115C153.839 92.3483 154.358 92.6149 155.015 93.0114C155.671 93.4078 156.17 93.6676 156.512 93.7906C156.867 93.9137 157.257 93.9752 157.681 93.9752C158.269 93.9752 158.754 93.7428 159.137 93.278C159.533 92.8131 159.731 92.2731 159.731 91.6578L162.274 91.9039Z" fill="white"/>
<path d="M168.304 111.448C168.304 109.274 168.728 107.319 169.575 105.583C170.437 103.846 171.626 102.506 173.144 101.563C174.675 100.62 176.418 100.148 178.373 100.148C181.395 100.148 183.835 101.194 185.694 103.286C187.567 105.378 188.504 108.16 188.504 111.632V111.899C188.504 114.059 188.087 116.001 187.253 117.723C186.433 119.432 185.25 120.765 183.705 121.722C182.174 122.679 180.41 123.158 178.414 123.158C175.406 123.158 172.966 122.112 171.093 120.02C169.233 117.928 168.304 115.16 168.304 111.714V111.448ZM172.118 111.899C172.118 114.36 172.686 116.336 173.82 117.826C174.969 119.316 176.5 120.061 178.414 120.061C180.342 120.061 181.873 119.309 183.008 117.805C184.143 116.288 184.71 114.169 184.71 111.448C184.71 109.014 184.129 107.046 182.967 105.542C181.818 104.024 180.287 103.265 178.373 103.265C176.5 103.265 174.989 104.01 173.841 105.501C172.692 106.991 172.118 109.124 172.118 111.899Z" fill="white"/>
<path d="M207.802 122.748H204.008V100.558H207.802V122.748ZM203.7 94.6725C203.7 94.0573 203.885 93.5377 204.254 93.1139C204.637 92.6901 205.197 92.4781 205.936 92.4781C206.674 92.4781 207.234 92.6901 207.617 93.1139C208 93.5377 208.191 94.0573 208.191 94.6725C208.191 95.2877 208 95.8004 207.617 96.2106C207.234 96.6207 206.674 96.8258 205.936 96.8258C205.197 96.8258 204.637 96.6207 204.254 96.2106C203.885 95.8004 203.7 95.2877 203.7 94.6725Z" fill="white"/>
<path d="M217.481 100.558L217.604 103.347C219.3 101.214 221.515 100.148 224.249 100.148C228.938 100.148 231.304 102.794 231.345 108.085V122.748H227.551V108.064C227.537 106.464 227.168 105.282 226.443 104.516C225.732 103.751 224.618 103.368 223.101 103.368C221.87 103.368 220.79 103.696 219.86 104.352C218.931 105.008 218.206 105.87 217.687 106.936V122.748H213.893V100.558H217.481Z" fill="white"/>
<path d="M236.144 111.468C236.144 108.064 236.95 105.33 238.563 103.265C240.177 101.187 242.289 100.148 244.9 100.148C247.498 100.148 249.556 101.037 251.073 102.814V91.2477H254.867V122.748H251.381L251.196 120.369C249.679 122.228 247.566 123.158 244.859 123.158C242.289 123.158 240.19 122.105 238.563 120C236.95 117.894 236.144 115.146 236.144 111.755V111.468ZM239.938 111.899C239.938 114.415 240.457 116.383 241.496 117.805C242.535 119.227 243.971 119.938 245.803 119.938C248.209 119.938 249.966 118.858 251.073 116.698V106.505C249.938 104.414 248.195 103.368 245.844 103.368C243.984 103.368 242.535 104.086 241.496 105.521C240.457 106.957 239.938 109.083 239.938 111.899Z" fill="white"/>
<path d="M264.896 122.748H261.102V100.558H264.896V122.748ZM260.794 94.6725C260.794 94.0573 260.979 93.5377 261.348 93.1139C261.73 92.6901 262.291 92.4781 263.029 92.4781C263.768 92.4781 264.328 92.6901 264.711 93.1139C265.094 93.5377 265.285 94.0573 265.285 94.6725C265.285 95.2877 265.094 95.8004 264.711 96.2106C264.328 96.6207 263.768 96.8258 263.029 96.8258C262.291 96.8258 261.73 96.6207 261.348 96.2106C260.979 95.8004 260.794 95.2877 260.794 94.6725Z" fill="white"/>
<path d="M279.887 120.061C281.24 120.061 282.423 119.651 283.435 118.831C284.446 118.01 285.007 116.985 285.116 115.755H288.705C288.637 117.026 288.199 118.236 287.393 119.384C286.586 120.533 285.506 121.449 284.152 122.132C282.812 122.816 281.391 123.158 279.887 123.158C276.865 123.158 274.459 122.153 272.668 120.143C270.891 118.12 270.002 115.358 270.002 111.858V111.222C270.002 109.062 270.398 107.141 271.191 105.46C271.984 103.778 273.119 102.472 274.596 101.543C276.086 100.613 277.843 100.148 279.866 100.148C282.354 100.148 284.419 100.893 286.06 102.383C287.714 103.874 288.596 105.808 288.705 108.187H285.116C285.007 106.752 284.46 105.576 283.476 104.66C282.505 103.73 281.302 103.265 279.866 103.265C277.938 103.265 276.441 103.963 275.375 105.357C274.322 106.738 273.796 108.741 273.796 111.366V112.084C273.796 114.64 274.322 116.609 275.375 117.99C276.428 119.371 277.932 120.061 279.887 120.061Z" fill="white"/>
<path d="M306.67 122.748C306.451 122.31 306.273 121.531 306.137 120.41C304.373 122.242 302.268 123.158 299.82 123.158C297.633 123.158 295.835 122.543 294.427 121.312C293.032 120.068 292.335 118.496 292.335 116.595C292.335 114.285 293.21 112.494 294.96 111.222C296.724 109.937 299.198 109.295 302.384 109.295H306.075V107.551C306.075 106.225 305.679 105.172 304.886 104.393C304.093 103.6 302.924 103.204 301.379 103.204C300.025 103.204 298.891 103.546 297.975 104.229C297.059 104.913 296.601 105.74 296.601 106.711H292.786C292.786 105.603 293.176 104.537 293.955 103.511C294.748 102.472 295.814 101.652 297.154 101.05C298.508 100.449 299.991 100.148 301.604 100.148C304.161 100.148 306.164 100.791 307.613 102.076C309.062 103.347 309.814 105.104 309.869 107.346V117.559C309.869 119.596 310.129 121.216 310.648 122.42V122.748H306.67ZM300.374 119.856C301.563 119.856 302.691 119.548 303.758 118.933C304.824 118.318 305.597 117.518 306.075 116.534V111.981H303.102C298.453 111.981 296.129 113.341 296.129 116.062C296.129 117.252 296.525 118.181 297.318 118.851C298.111 119.521 299.13 119.856 300.374 119.856Z" fill="white"/>
<path d="M314.894 111.468C314.894 108.064 315.7 105.33 317.313 103.265C318.927 101.187 321.039 100.148 323.65 100.148C326.248 100.148 328.306 101.037 329.823 102.814V91.2477H333.617V122.748H330.131L329.946 120.369C328.429 122.228 326.316 123.158 323.609 123.158C321.039 123.158 318.94 122.105 317.313 120C315.7 117.894 314.894 115.146 314.894 111.755V111.468ZM318.688 111.899C318.688 114.415 319.207 116.383 320.246 117.805C321.285 119.227 322.721 119.938 324.553 119.938C326.959 119.938 328.716 118.858 329.823 116.698V106.505C328.688 104.414 326.945 103.368 324.594 103.368C322.734 103.368 321.285 104.086 320.246 105.521C319.207 106.957 318.688 109.083 318.688 111.899Z" fill="white"/>
<path d="M338.519 111.448C338.519 109.274 338.942 107.319 339.79 105.583C340.651 103.846 341.841 102.506 343.358 101.563C344.89 100.62 346.633 100.148 348.588 100.148C351.609 100.148 354.05 101.194 355.909 103.286C357.782 105.378 358.719 108.16 358.719 111.632V111.899C358.719 114.059 358.302 116.001 357.468 117.723C356.647 119.432 355.465 120.765 353.92 121.722C352.389 122.679 350.625 123.158 348.629 123.158C345.621 123.158 343.181 122.112 341.308 120.02C339.448 117.928 338.519 115.16 338.519 111.714V111.448ZM342.333 111.899C342.333 114.36 342.9 116.336 344.035 117.826C345.184 119.316 346.715 120.061 348.629 120.061C350.557 120.061 352.088 119.309 353.223 117.805C354.357 116.288 354.925 114.169 354.925 111.448C354.925 109.014 354.344 107.046 353.182 105.542C352.033 104.024 350.502 103.265 348.588 103.265C346.715 103.265 345.204 104.01 344.056 105.501C342.907 106.991 342.333 109.124 342.333 111.899Z" fill="white"/>
<path d="M363.354 120.758C363.354 120.102 363.545 119.555 363.928 119.118C364.324 118.68 364.912 118.462 365.691 118.462C366.471 118.462 367.059 118.68 367.455 119.118C367.865 119.555 368.07 120.102 368.07 120.758C368.07 121.387 367.865 121.914 367.455 122.338C367.059 122.761 366.471 122.973 365.691 122.973C364.912 122.973 364.324 122.761 363.928 122.338C363.545 121.914 363.354 121.387 363.354 120.758ZM363.374 102.65C363.374 101.994 363.565 101.447 363.948 101.009C364.345 100.572 364.933 100.353 365.712 100.353C366.491 100.353 367.079 100.572 367.476 101.009C367.886 101.447 368.091 101.994 368.091 102.65C368.091 103.279 367.886 103.805 367.476 104.229C367.079 104.653 366.491 104.865 365.712 104.865C364.933 104.865 364.345 104.653 363.948 104.229C363.565 103.805 363.374 103.279 363.374 102.65Z" fill="white"/>
</g>
<g id="Group 105">
<g id="Group 104">
<g id="Group 99">
<path id="Rectangle 20 (Stroke)" fill-rule="evenodd" clip-rule="evenodd" d="M501.552 101L475.165 132.295L501.552 165.432L528.893 132.295L501.552 101ZM501.593 105.606L479.043 132.35L501.593 160.668L524.958 132.351L501.593 105.606Z" fill="white"/>
<path id="Rectangle 21 (Stroke)" fill-rule="evenodd" clip-rule="evenodd" d="M476.437 131.068L450.05 162.364L476.437 195.5L503.778 162.364L476.437 131.068ZM476.477 135.674L453.928 162.418L476.478 190.736L499.842 162.419L476.477 135.674Z" fill="white"/>
<path id="Rectangle 23 (Stroke)" fill-rule="evenodd" clip-rule="evenodd" d="M449.732 160.523L423.345 191.818L449.732 224.955L477.073 191.818L449.732 160.523ZM449.772 165.129L427.223 191.872L449.773 220.191L473.138 191.874L449.772 165.129Z" fill="white"/>
<path id="Rectangle 24 (Stroke)" fill-rule="evenodd" clip-rule="evenodd" d="M501.87 159.909L475.483 191.205L501.87 224.341L529.211 191.205L501.87 159.909ZM501.91 164.515L479.361 191.259L501.911 219.577L525.276 191.26L501.91 164.515Z" fill="white"/>
<path id="Rectangle 25 (Stroke)" fill-rule="evenodd" clip-rule="evenodd" d="M555.28 159.909L528.893 191.205L555.28 224.341L582.62 191.205L555.28 159.909ZM555.32 164.515L532.771 191.259L555.321 219.577L578.685 191.26L555.32 164.515Z" fill="white"/>
<path id="Rectangle 26 (Stroke)" fill-rule="evenodd" clip-rule="evenodd" d="M476.437 192.432L450.05 223.727L476.437 256.864L503.778 223.727L476.437 192.432ZM476.477 197.038L453.928 223.782L476.478 252.1L499.842 223.783L476.477 197.038Z" fill="white"/>
<path id="Rectangle 27 (Stroke)" fill-rule="evenodd" clip-rule="evenodd" d="M529.211 192.432L502.824 223.727L529.211 256.864L556.551 223.727L529.211 192.432ZM529.251 197.038L506.702 223.782L529.252 252.1L552.616 223.783L529.251 197.038Z" fill="white"/>
<path id="Rectangle 28 (Stroke)" fill-rule="evenodd" clip-rule="evenodd" d="M582.62 191.818L556.233 223.114L582.62 256.25L609.961 223.114L582.62 191.818ZM582.661 196.424L560.112 223.168L582.662 251.486L606.026 223.169L582.661 196.424Z" fill="white"/>
<path id="Rectangle 29 (Stroke)" fill-rule="evenodd" clip-rule="evenodd" d="M423.027 192.432L396.64 223.727L423.027 256.864L450.368 223.727L423.027 192.432ZM423.068 197.038L400.519 223.782L423.069 252.1L446.433 223.783L423.068 197.038Z" fill="white"/>
<path id="Rectangle 22 (Stroke)" fill-rule="evenodd" clip-rule="evenodd" d="M528.575 131.068L502.188 162.364L528.575 195.5L555.916 162.364L528.575 131.068ZM528.615 135.674L506.066 162.418L528.616 190.736L551.98 162.419L528.615 135.674Z" fill="white"/>
<g id="Group 98">
<path id="Rectangle 30" d="M501.87 101L529.211 132.295L501.87 165.432L475.483 132.295L501.87 101Z" fill="#D7D0D0"/>
<path id="Rectangle 30 (Stroke)" fill-rule="evenodd" clip-rule="evenodd" d="M501.87 101L475.483 132.295L501.87 165.432L529.211 132.295L501.87 101ZM501.91 105.606L479.361 132.35L501.911 160.668L525.276 132.351L501.91 105.606Z" fill="white"/>
<path id="Line 33 (Stroke)" fill-rule="evenodd" clip-rule="evenodd" d="M527.621 133.523H477.391V130.523H527.621V133.523Z" fill="white"/>
<path id="Line 34 (Stroke)" fill-rule="evenodd" clip-rule="evenodd" d="M500.28 162.977H450.05V159.977H500.28V162.977Z" fill="white"/>
<path id="Line 35 (Stroke)" fill-rule="evenodd" clip-rule="evenodd" d="M556.233 162.977H506.003V159.977H556.233V162.977Z" fill="white"/>
<path id="Line 36 (Stroke)" fill-rule="evenodd" clip-rule="evenodd" d="M582.938 192.432H532.708V189.432H582.938V192.432Z" fill="white"/>
<path id="Line 37 (Stroke)" fill-rule="evenodd" clip-rule="evenodd" d="M527.621 192.432H477.391V189.432H527.621V192.432Z" fill="white"/>
<path id="Line 38 (Stroke)" fill-rule="evenodd" clip-rule="evenodd" d="M473.576 192.432H423.345V189.432H473.576V192.432Z" fill="white"/>
<path id="Line 39 (Stroke)" fill-rule="evenodd" clip-rule="evenodd" d="M450.686 224.341H400.455V221.341H450.686V224.341Z" fill="white"/>
<path id="Line 40 (Stroke)" fill-rule="evenodd" clip-rule="evenodd" d="M502.824 224.341H452.593V221.341H502.824V224.341Z" fill="white"/>
<path id="Line 41 (Stroke)" fill-rule="evenodd" clip-rule="evenodd" d="M556.233 224.955H506.003V221.955H556.233V224.955Z" fill="white"/>
<path id="Line 42 (Stroke)" fill-rule="evenodd" clip-rule="evenodd" d="M608.372 224.341H558.141V221.341H608.372V224.341Z" fill="white"/>
<path id="Line 43 (Stroke)" fill-rule="evenodd" clip-rule="evenodd" d="M581.031 256.25H530.8V253.25H581.031V256.25Z" fill="white"/>
<path id="Line 47 (Stroke)" fill-rule="evenodd" clip-rule="evenodd" d="M635.076 256.25H584.846V253.25H635.076V256.25Z" fill="white"/>
<path id="Line 44 (Stroke)" fill-rule="evenodd" clip-rule="evenodd" d="M528.257 256.25H478.026V253.25H528.257V256.25Z" fill="white"/>
<path id="Line 45 (Stroke)" fill-rule="evenodd" clip-rule="evenodd" d="M475.483 256.864H425.253V253.864H475.483V256.864Z" fill="white"/>
<path id="Line 46 (Stroke)" fill-rule="evenodd" clip-rule="evenodd" d="M421.438 256.864H371.207V253.864H421.438V256.864Z" fill="white"/>
</g>
<path id="Polygon 13 (Stroke)" fill-rule="evenodd" clip-rule="evenodd" d="M396.322 221.273L370.167 255.33H422.478L396.322 221.273ZM396.322 226.198L376.253 252.33H416.391L396.322 226.198Z" fill="white"/>
<path id="Polygon 15 (Stroke)" fill-rule="evenodd" clip-rule="evenodd" d="M323.202 325.591L297.046 359.648H349.358L323.202 325.591ZM323.202 330.516L303.133 356.648H343.271L323.202 330.516Z" fill="white"/>
<path id="Polygon 16 (Stroke)" fill-rule="evenodd" clip-rule="evenodd" d="M370.889 325.591L344.734 359.648H397.045L370.889 325.591ZM370.889 330.516L350.82 356.648H390.958L370.889 330.516Z" fill="white"/>
<path id="Polygon 17 (Stroke)" fill-rule="evenodd" clip-rule="evenodd" d="M423.027 325.591L396.872 359.648H449.183L423.027 325.591ZM423.027 330.516L402.958 356.648H443.096L423.027 330.516Z" fill="white"/>
<path id="Polygon 18 (Stroke)" fill-rule="evenodd" clip-rule="evenodd" d="M595.973 325.591L569.817 359.648H622.128L595.973 325.591ZM595.973 330.516L575.904 356.648H616.042L595.973 330.516Z" fill="white"/>
<path id="Polygon 19 (Stroke)" fill-rule="evenodd" clip-rule="evenodd" d="M646.839 325.591L620.684 359.648H672.995L646.839 325.591ZM646.839 330.516L626.77 356.648H666.908L646.839 330.516Z" fill="white"/>
<path id="Polygon 20 (Stroke)" fill-rule="evenodd" clip-rule="evenodd" d="M695.798 325.591L669.642 359.648H721.954L695.798 325.591ZM695.798 330.516L675.729 356.648H715.867L695.798 330.516Z" fill="white"/>
<path id="Polygon 14 (Stroke)" fill-rule="evenodd" clip-rule="evenodd" d="M608.054 221.273L581.898 255.33H634.209L608.054 221.273ZM608.054 226.198L587.985 252.33H628.123L608.054 226.198Z" fill="white"/>
</g>
<g id="Group 100">
<path id="Ellipse 27" d="M366.12 269.75C366.12 271.444 364.697 272.818 362.941 272.818C361.185 272.818 359.762 271.444 359.762 269.75C359.762 268.055 361.185 266.682 362.941 266.682C364.697 266.682 366.12 268.055 366.12 269.75Z" fill="white"/>
<path id="Ellipse 28" d="M353.404 285.705C353.404 287.399 351.98 288.773 350.225 288.773C348.469 288.773 347.045 287.399 347.045 285.705C347.045 284.01 348.469 282.636 350.225 282.636C351.98 282.636 353.404 284.01 353.404 285.705Z" fill="white"/>
<path id="Ellipse 29" d="M340.687 300.432C340.687 302.126 339.264 303.5 337.508 303.5C335.752 303.5 334.329 302.126 334.329 300.432C334.329 298.737 335.752 297.364 337.508 297.364C339.264 297.364 340.687 298.737 340.687 300.432Z" fill="white"/>
</g>
<g id="Group 101">
<path id="Ellipse 27_2" d="M642.07 269.75C642.07 271.445 640.647 272.818 638.891 272.818C637.136 272.818 635.712 271.445 635.712 269.75C635.712 268.055 637.136 266.682 638.891 266.682C640.647 266.682 642.07 268.055 642.07 269.75Z" fill="white"/>
<path id="Ellipse 28_2" d="M653.515 285.705C653.515 287.399 652.092 288.773 650.336 288.773C648.58 288.773 647.157 287.399 647.157 285.705C647.157 284.01 648.58 282.636 650.336 282.636C652.092 282.636 653.515 284.01 653.515 285.705Z" fill="white"/>
<path id="Ellipse 29_2" d="M668.775 297.364C668.775 299.058 667.352 300.432 665.596 300.432C663.84 300.432 662.417 299.058 662.417 297.364C662.417 295.669 663.84 294.295 665.596 294.295C667.352 294.295 668.775 295.669 668.775 297.364Z" fill="white"/>
</g>
<g id="Group 102">
<path id="Ellipse 27_3" d="M506.003 275.886C506.003 277.581 504.58 278.955 502.824 278.955C501.068 278.955 499.645 277.581 499.645 275.886C499.645 274.192 501.068 272.818 502.824 272.818C504.58 272.818 506.003 274.192 506.003 275.886Z" fill="white"/>
<path id="Ellipse 28_3" d="M506.003 291.841C506.003 293.535 504.58 294.909 502.824 294.909C501.068 294.909 499.645 293.535 499.645 291.841C499.645 290.146 501.068 288.773 502.824 288.773C504.58 288.773 506.003 290.146 506.003 291.841Z" fill="white"/>
<path id="Ellipse 29_3" d="M506.639 303.5C506.639 305.195 505.215 306.568 503.46 306.568C501.704 306.568 500.281 305.195 500.281 303.5C500.281 301.805 501.704 300.432 503.46 300.432C505.215 300.432 506.639 301.805 506.639 303.5Z" fill="white"/>
</g>
<g id="Group 103">
<path id="Ellipse 27_4" d="M488.2 357.5C488.2 359.195 486.776 360.568 485.021 360.568C483.265 360.568 481.841 359.195 481.841 357.5C481.841 355.805 483.265 354.432 485.021 354.432C486.776 354.432 488.2 355.805 488.2 357.5Z" fill="white"/>
<path id="Ellipse 28_4" d="M506.639 357.5C506.639 359.195 505.215 360.568 503.46 360.568C501.704 360.568 500.281 359.195 500.281 357.5C500.281 355.805 501.704 354.432 503.46 354.432C505.215 354.432 506.639 355.805 506.639 357.5Z" fill="white"/>
<path id="Ellipse 29_4" d="M526.35 357.5C526.35 359.195 524.926 360.568 523.17 360.568C521.415 360.568 519.991 359.195 519.991 357.5C519.991 355.805 521.415 354.432 523.17 354.432C524.926 354.432 526.35 355.805 526.35 357.5Z" fill="white"/>
</g>
</g>
<g id="1 2 3 48 49 50">
<path d="M326.814 404H323.545V382.326L316.988 384.734V381.781L326.305 378.283H326.814V404Z" fill="white"/>
<path d="M379.9 404H363.131V401.662L371.99 391.818C373.303 390.33 374.205 389.123 374.697 388.197C375.201 387.26 375.453 386.293 375.453 385.297C375.453 383.961 375.049 382.865 374.24 382.01C373.432 381.154 372.354 380.727 371.006 380.727C369.389 380.727 368.129 381.189 367.227 382.115C366.336 383.029 365.891 384.307 365.891 385.947H362.639C362.639 383.592 363.395 381.688 364.906 380.234C366.43 378.781 368.463 378.055 371.006 378.055C373.385 378.055 375.266 378.682 376.648 379.936C378.031 381.178 378.723 382.836 378.723 384.91C378.723 387.43 377.117 390.43 373.906 393.91L367.051 401.346H379.9V404Z" fill="white"/>
<path d="M423.793 389.621H426.236C427.771 389.598 428.979 389.193 429.857 388.408C430.736 387.623 431.176 386.562 431.176 385.227C431.176 382.227 429.682 380.727 426.693 380.727C425.287 380.727 424.162 381.131 423.318 381.939C422.486 382.736 422.07 383.797 422.07 385.121H418.818C418.818 383.094 419.557 381.412 421.033 380.076C422.521 378.729 424.408 378.055 426.693 378.055C429.107 378.055 431 378.693 432.371 379.971C433.742 381.248 434.428 383.023 434.428 385.297C434.428 386.41 434.064 387.488 433.338 388.531C432.623 389.574 431.645 390.354 430.402 390.869C431.809 391.314 432.893 392.053 433.654 393.084C434.428 394.115 434.814 395.375 434.814 396.863C434.814 399.16 434.064 400.982 432.564 402.33C431.064 403.678 429.113 404.352 426.711 404.352C424.309 404.352 422.352 403.701 420.84 402.4C419.34 401.1 418.59 399.383 418.59 397.25H421.859C421.859 398.598 422.299 399.676 423.178 400.484C424.057 401.293 425.234 401.697 426.711 401.697C428.281 401.697 429.482 401.287 430.314 400.467C431.146 399.646 431.562 398.469 431.562 396.934C431.562 395.445 431.105 394.303 430.191 393.506C429.277 392.709 427.959 392.299 426.236 392.275H423.793V389.621Z" fill="white"/>
<path d="M586.953 395.404H590.504V398.059H586.953V404H583.684V398.059H572.029V396.143L583.49 378.406H586.953V395.404ZM575.721 395.404H583.684V382.854L583.297 383.557L575.721 395.404Z" fill="white"/>
<path d="M608.961 385.086C608.961 386.363 608.621 387.5 607.941 388.496C607.273 389.492 606.365 390.271 605.217 390.834C606.553 391.408 607.607 392.246 608.381 393.348C609.166 394.449 609.559 395.697 609.559 397.092C609.559 399.307 608.809 401.07 607.309 402.383C605.82 403.695 603.857 404.352 601.42 404.352C598.959 404.352 596.984 403.695 595.496 402.383C594.02 401.059 593.281 399.295 593.281 397.092C593.281 395.709 593.656 394.461 594.406 393.348C595.168 392.234 596.217 391.391 597.553 390.816C596.416 390.254 595.52 389.475 594.863 388.479C594.207 387.482 593.879 386.352 593.879 385.086C593.879 382.93 594.57 381.219 595.953 379.953C597.336 378.688 599.158 378.055 601.42 378.055C603.67 378.055 605.486 378.688 606.869 379.953C608.264 381.219 608.961 382.93 608.961 385.086ZM606.307 397.021C606.307 395.592 605.85 394.426 604.936 393.523C604.033 392.621 602.85 392.17 601.385 392.17C599.92 392.17 598.742 392.615 597.852 393.506C596.973 394.396 596.533 395.568 596.533 397.021C596.533 398.475 596.961 399.617 597.816 400.449C598.684 401.281 599.885 401.697 601.42 401.697C602.943 401.697 604.139 401.281 605.006 400.449C605.873 399.605 606.307 398.463 606.307 397.021ZM601.42 380.727C600.143 380.727 599.105 381.125 598.309 381.922C597.523 382.707 597.131 383.779 597.131 385.139C597.131 386.439 597.518 387.494 598.291 388.303C599.076 389.1 600.119 389.498 601.42 389.498C602.721 389.498 603.758 389.1 604.531 388.303C605.316 387.494 605.709 386.439 605.709 385.139C605.709 383.838 605.305 382.777 604.496 381.957C603.688 381.137 602.662 380.727 601.42 380.727Z" fill="white"/>
<path d="M645.242 395.404H648.793V398.059H645.242V404H641.973V398.059H630.318V396.143L641.779 378.406H645.242V395.404ZM634.01 395.404H641.973V382.854L641.586 383.557L634.01 395.404Z" fill="white"/>
<path d="M664.191 392.75C663.512 393.559 662.697 394.209 661.748 394.701C660.811 395.193 659.779 395.439 658.654 395.439C657.178 395.439 655.889 395.076 654.787 394.35C653.697 393.623 652.854 392.604 652.256 391.291C651.658 389.967 651.359 388.508 651.359 386.914C651.359 385.203 651.682 383.662 652.326 382.291C652.982 380.92 653.908 379.871 655.104 379.145C656.299 378.418 657.693 378.055 659.287 378.055C661.818 378.055 663.811 379.004 665.264 380.902C666.729 382.789 667.461 385.367 667.461 388.637V389.586C667.461 394.566 666.477 398.205 664.508 400.502C662.539 402.787 659.568 403.959 655.596 404.018H654.963V401.275H655.648C658.332 401.229 660.395 400.531 661.836 399.184C663.277 397.824 664.062 395.68 664.191 392.75ZM659.182 392.75C660.271 392.75 661.273 392.416 662.188 391.748C663.113 391.08 663.787 390.254 664.209 389.27V387.969C664.209 385.836 663.746 384.102 662.82 382.766C661.895 381.43 660.723 380.762 659.305 380.762C657.875 380.762 656.727 381.312 655.859 382.414C654.992 383.504 654.559 384.945 654.559 386.738C654.559 388.484 654.975 389.926 655.807 391.062C656.65 392.188 657.775 392.75 659.182 392.75Z" fill="white"/>
<path d="M691.297 391.168L692.598 378.406H705.711V381.412H695.357L694.584 388.391C695.838 387.652 697.262 387.283 698.855 387.283C701.188 387.283 703.039 388.057 704.41 389.604C705.781 391.139 706.467 393.219 706.467 395.844C706.467 398.48 705.752 400.561 704.322 402.084C702.904 403.596 700.918 404.352 698.363 404.352C696.102 404.352 694.256 403.725 692.826 402.471C691.396 401.217 690.582 399.482 690.383 397.268H693.459C693.658 398.732 694.18 399.84 695.023 400.59C695.867 401.328 696.98 401.697 698.363 401.697C699.875 401.697 701.059 401.182 701.914 400.15C702.781 399.119 703.215 397.695 703.215 395.879C703.215 394.168 702.746 392.797 701.809 391.766C700.883 390.723 699.646 390.201 698.1 390.201C696.682 390.201 695.568 390.512 694.76 391.133L693.898 391.836L691.297 391.168Z" fill="white"/>
<path d="M726.066 393.084C726.066 396.893 725.416 399.723 724.115 401.574C722.814 403.426 720.781 404.352 718.016 404.352C715.285 404.352 713.264 403.449 711.951 401.645C710.639 399.828 709.959 397.121 709.912 393.523V389.182C709.912 385.42 710.562 382.625 711.863 380.797C713.164 378.969 715.203 378.055 717.98 378.055C720.734 378.055 722.762 378.939 724.062 380.709C725.363 382.467 726.031 385.186 726.066 388.865V393.084ZM722.814 388.637C722.814 385.883 722.428 383.879 721.654 382.625C720.881 381.359 719.656 380.727 717.98 380.727C716.316 380.727 715.104 381.354 714.342 382.607C713.58 383.861 713.188 385.789 713.164 388.391V393.594C713.164 396.359 713.562 398.404 714.359 399.729C715.168 401.041 716.387 401.697 718.016 401.697C719.621 401.697 720.811 401.076 721.584 399.834C722.369 398.592 722.779 396.635 722.814 393.963V388.637Z" fill="white"/>
</g>
</g>
</g>
<g id="claves">
<path id="Rectangle 4" d="M39 471H255.745L289 511L255.745 551H39V471Z" fill="#CD08D1" fill-opacity="0.1"/>
<path id="Rectangle 4 (Stroke)" fill-rule="evenodd" clip-rule="evenodd" d="M254.338 474H42V548H254.338L285.099 511L254.338 474ZM255.745 471H39V551H255.745L289 511L255.745 471Z" fill="#CD08D1"/>
<path id="Rectangle 5" d="M43 581H259.745L293 621L259.745 661H43V581Z" fill="#CD08D1" fill-opacity="0.1"/>
<path id="Rectangle 5 (Stroke)" fill-rule="evenodd" clip-rule="evenodd" d="M258.338 584H46V658H258.338L289.099 621L258.338 584ZM259.745 581H43V661H259.745L293 621L259.745 581Z" fill="#CD08D1"/>
<path id="Rectangle 6" d="M379 468H595.745L629 508L595.745 548H379V468Z" fill="#CD08D1" fill-opacity="0.1"/>
<path id="Rectangle 6 (Stroke)" fill-rule="evenodd" clip-rule="evenodd" d="M594.338 471H382V545H594.338L625.099 508L594.338 471ZM595.745 468H379V548H595.745L629 508L595.745 468Z" fill="#CD08D1"/>
<path id="Rectangle 7" d="M382 578H598.745L632 618L598.745 658H382V578Z" fill="#CD08D1" fill-opacity="0.1"/>
<path id="Rectangle 7 (Stroke)" fill-rule="evenodd" clip-rule="evenodd" d="M597.338 581H385V655H597.338L628.099 618L597.338 581ZM598.745 578H382V658H598.745L632 618L598.745 578Z" fill="#CD08D1"/>
<path id="Rectangle 8" d="M725 527H941.745L975 567L941.745 607H725V527Z" fill="#CD08D1" fill-opacity="0.1"/>
<path id="Rectangle 8 (Stroke)" fill-rule="evenodd" clip-rule="evenodd" d="M940.338 530H728V604H940.338L971.099 567L940.338 530ZM941.745 527H725V607H941.745L975 567L941.745 527Z" fill="#CD08D1"/>
<path id="Ellipse 1" d="M80 511C80 533.091 62.0914 551 40 551C17.9086 551 0 533.091 0 511C0 488.909 17.9086 471 40 471C62.0914 471 80 488.909 80 511Z" fill="#CD08D1"/>
<path id="Ellipse 2" d="M84 621C84 643.091 66.0914 661 44 661C21.9086 661 4 643.091 4 621C4 598.909 21.9086 581 44 581C66.0914 581 84 598.909 84 621Z" fill="#CD08D1"/>
<path id="Ellipse 3" d="M420 508C420 530.091 402.091 548 380 548C357.909 548 340 530.091 340 508C340 485.909 357.909 468 380 468C402.091 468 420 485.909 420 508Z" fill="#CD08D1"/>
<path id="Ellipse 4" d="M423 618C423 640.091 405.091 658 383 658C360.909 658 343 640.091 343 618C343 595.909 360.909 578 383 578C405.091 578 423 595.909 423 618Z" fill="#CD08D1"/>
<path id="Ellipse 5" d="M766 567C766 589.091 748.091 607 726 607C703.909 607 686 589.091 686 567C686 544.909 703.909 527 726 527C748.091 527 766 544.909 766 567Z" fill="#CD08D1"/>
<path id="A" d="M48.0938 521.406H30.4688L26.7812 532H18.5625L35.75 486.5H42.8438L60.0625 532H51.8125L48.0938 521.406ZM32.6875 515.031H45.875L39.2812 496.156L32.6875 515.031Z" fill="white"/>
<path id="B" d="M27.625 637V591.5H43.2188C48.3646 591.5 52.2812 592.531 54.9688 594.594C57.6562 596.656 59 599.729 59 603.812C59 605.896 58.4375 607.771 57.3125 609.438C56.1875 611.104 54.5417 612.396 52.375 613.312C54.8333 613.979 56.7292 615.24 58.0625 617.094C59.4167 618.927 60.0938 621.135 60.0938 623.719C60.0938 627.99 58.7188 631.271 55.9688 633.562C53.2396 635.854 49.3229 637 44.2188 637H27.625ZM35.5312 616.469V630.688H44.3125C46.7917 630.688 48.7292 630.073 50.125 628.844C51.5208 627.615 52.2188 625.906 52.2188 623.719C52.2188 618.99 49.8021 616.573 44.9688 616.469H35.5312ZM35.5312 610.656H43.2812C45.7396 610.656 47.6562 610.104 49.0312 609C50.4271 607.875 51.125 606.292 51.125 604.25C51.125 602 50.4792 600.375 49.1875 599.375C47.9167 598.375 45.9271 597.875 43.2188 597.875H35.5312V610.656Z" fill="white"/>
<path id="C" d="M397.344 515.188C396.885 520.042 395.094 523.833 391.969 526.562C388.844 529.271 384.688 530.625 379.5 530.625C375.875 530.625 372.677 529.771 369.906 528.062C367.156 526.333 365.031 523.885 363.531 520.719C362.031 517.552 361.25 513.875 361.188 509.688V505.438C361.188 501.146 361.948 497.365 363.469 494.094C364.99 490.823 367.167 488.302 370 486.531C372.854 484.76 376.146 483.875 379.875 483.875C384.896 483.875 388.938 485.24 392 487.969C395.062 490.698 396.844 494.552 397.344 499.531H389.469C389.094 496.26 388.135 493.906 386.594 492.469C385.073 491.01 382.833 490.281 379.875 490.281C376.438 490.281 373.792 491.542 371.938 494.062C370.104 496.562 369.167 500.24 369.125 505.094V509.125C369.125 514.042 370 517.792 371.75 520.375C373.521 522.958 376.104 524.25 379.5 524.25C382.604 524.25 384.938 523.552 386.5 522.156C388.062 520.76 389.052 518.438 389.469 515.188H397.344Z" fill="white"/>
<path id="D" d="M365.625 640V594.5H379.062C383.083 594.5 386.646 595.396 389.75 597.188C392.875 598.979 395.292 601.521 397 604.812C398.708 608.104 399.562 611.875 399.562 616.125V618.406C399.562 622.719 398.698 626.51 396.969 629.781C395.26 633.052 392.812 635.573 389.625 637.344C386.458 639.115 382.823 640 378.719 640H365.625ZM373.531 600.875V633.688H378.688C382.833 633.688 386.01 632.396 388.219 629.812C390.448 627.208 391.583 623.479 391.625 618.625V616.094C391.625 611.156 390.552 607.385 388.406 604.781C386.26 602.177 383.146 600.875 379.062 600.875H373.531Z" fill="white"/>
<path id="E" d="M735.219 568.688H716.531V582.688H738.375V589H708.625V543.5H738.156V549.875H716.531V562.438H735.219V568.688Z" fill="white"/>
<g id="1225 3285 3675 3785 3825">
<path d="M129.95 524H126.136V498.714L118.486 501.523V498.078L129.355 493.997H129.95V524Z" fill="#CD08D1"/>
<path d="M160.63 524H141.065V521.272L151.401 509.788C152.933 508.052 153.985 506.644 154.56 505.563C155.147 504.47 155.441 503.342 155.441 502.18C155.441 500.621 154.97 499.343 154.026 498.345C153.083 497.347 151.825 496.848 150.253 496.848C148.366 496.848 146.896 497.388 145.844 498.468C144.805 499.534 144.285 501.024 144.285 502.938H140.491C140.491 500.19 141.373 497.969 143.137 496.273C144.914 494.578 147.286 493.73 150.253 493.73C153.028 493.73 155.223 494.462 156.836 495.925C158.449 497.374 159.256 499.309 159.256 501.729C159.256 504.668 157.383 508.168 153.637 512.229L145.639 520.903H160.63V524Z" fill="#CD08D1"/>
<path d="M184.214 524H164.649V521.272L174.985 509.788C176.517 508.052 177.569 506.644 178.144 505.563C178.731 504.47 179.025 503.342 179.025 502.18C179.025 500.621 178.554 499.343 177.61 498.345C176.667 497.347 175.409 496.848 173.837 496.848C171.95 496.848 170.48 497.388 169.428 498.468C168.389 499.534 167.869 501.024 167.869 502.938H164.075C164.075 500.19 164.957 497.969 166.721 496.273C168.498 494.578 170.87 493.73 173.837 493.73C176.612 493.73 178.807 494.462 180.42 495.925C182.033 497.374 182.84 499.309 182.84 501.729C182.84 504.668 180.967 508.168 177.221 512.229L169.223 520.903H184.214V524Z" fill="#CD08D1"/>
<path d="M189.977 509.029L191.494 494.141H206.793V497.647H194.714L193.812 505.789C195.274 504.928 196.936 504.497 198.795 504.497C201.516 504.497 203.676 505.399 205.275 507.204C206.875 508.995 207.675 511.422 207.675 514.484C207.675 517.561 206.841 519.987 205.173 521.765C203.519 523.528 201.201 524.41 198.221 524.41C195.582 524.41 193.429 523.679 191.761 522.216C190.093 520.753 189.143 518.729 188.91 516.146H192.499C192.731 517.854 193.34 519.146 194.324 520.021C195.309 520.883 196.607 521.313 198.221 521.313C199.984 521.313 201.365 520.712 202.363 519.509C203.375 518.306 203.881 516.645 203.881 514.525C203.881 512.529 203.334 510.93 202.24 509.727C201.16 508.51 199.718 507.901 197.913 507.901C196.259 507.901 194.96 508.264 194.017 508.988L193.012 509.809L189.977 509.029Z" fill="#CD08D1"/>
<path d="M446.529 507.225H449.38C451.171 507.197 452.579 506.726 453.604 505.81C454.63 504.894 455.143 503.656 455.143 502.098C455.143 498.598 453.399 496.848 449.913 496.848C448.272 496.848 446.96 497.319 445.976 498.263C445.005 499.192 444.52 500.43 444.52 501.975H440.726C440.726 499.609 441.587 497.647 443.31 496.089C445.046 494.517 447.247 493.73 449.913 493.73C452.729 493.73 454.938 494.476 456.537 495.966C458.137 497.456 458.937 499.527 458.937 502.18C458.937 503.479 458.513 504.736 457.665 505.953C456.831 507.17 455.689 508.079 454.24 508.681C455.881 509.2 457.146 510.062 458.034 511.265C458.937 512.468 459.388 513.938 459.388 515.674C459.388 518.354 458.513 520.479 456.763 522.052C455.013 523.624 452.736 524.41 449.934 524.41C447.131 524.41 444.848 523.651 443.084 522.134C441.334 520.616 440.459 518.613 440.459 516.125H444.273C444.273 517.697 444.786 518.955 445.812 519.898C446.837 520.842 448.211 521.313 449.934 521.313C451.766 521.313 453.167 520.835 454.138 519.878C455.108 518.921 455.594 517.547 455.594 515.756C455.594 514.02 455.061 512.687 453.994 511.757C452.928 510.827 451.39 510.349 449.38 510.321H446.529V507.225Z" fill="#CD08D1"/>
<path d="M484.161 524H464.597V521.272L474.933 509.788C476.464 508.052 477.517 506.644 478.091 505.563C478.679 504.47 478.973 503.342 478.973 502.18C478.973 500.621 478.501 499.343 477.558 498.345C476.614 497.347 475.356 496.848 473.784 496.848C471.897 496.848 470.428 497.388 469.375 498.468C468.336 499.534 467.816 501.024 467.816 502.938H464.022C464.022 500.19 464.904 497.969 466.668 496.273C468.445 494.578 470.817 493.73 473.784 493.73C476.56 493.73 478.754 494.462 480.367 495.925C481.98 497.374 482.787 499.309 482.787 501.729C482.787 504.668 480.914 508.168 477.168 512.229L469.17 520.903H484.161V524Z" fill="#CD08D1"/>
<path d="M506.289 501.934C506.289 503.424 505.893 504.75 505.1 505.912C504.32 507.074 503.261 507.983 501.921 508.64C503.479 509.31 504.71 510.287 505.612 511.572C506.528 512.857 506.986 514.313 506.986 515.94C506.986 518.524 506.111 520.582 504.361 522.113C502.625 523.645 500.335 524.41 497.491 524.41C494.62 524.41 492.316 523.645 490.58 522.113C488.857 520.568 487.996 518.511 487.996 515.94C487.996 514.327 488.434 512.871 489.309 511.572C490.197 510.273 491.421 509.289 492.979 508.619C491.653 507.963 490.607 507.054 489.842 505.892C489.076 504.729 488.693 503.41 488.693 501.934C488.693 499.418 489.5 497.422 491.113 495.945C492.727 494.469 494.853 493.73 497.491 493.73C500.116 493.73 502.235 494.469 503.849 495.945C505.476 497.422 506.289 499.418 506.289 501.934ZM503.192 515.858C503.192 514.19 502.659 512.83 501.593 511.777C500.54 510.725 499.159 510.198 497.45 510.198C495.741 510.198 494.367 510.718 493.328 511.757C492.303 512.796 491.79 514.163 491.79 515.858C491.79 517.554 492.289 518.887 493.287 519.857C494.299 520.828 495.7 521.313 497.491 521.313C499.269 521.313 500.663 520.828 501.675 519.857C502.687 518.873 503.192 517.54 503.192 515.858ZM497.491 496.848C496.001 496.848 494.791 497.312 493.861 498.242C492.945 499.158 492.487 500.409 492.487 501.995C492.487 503.513 492.938 504.743 493.841 505.687C494.757 506.616 495.974 507.081 497.491 507.081C499.009 507.081 500.219 506.616 501.121 505.687C502.037 504.743 502.495 503.513 502.495 501.995C502.495 500.478 502.023 499.24 501.08 498.283C500.137 497.326 498.94 496.848 497.491 496.848Z" fill="#CD08D1"/>
<path d="M513.508 509.029L515.025 494.141H530.324V497.647H518.245L517.343 505.789C518.806 504.928 520.467 504.497 522.326 504.497C525.047 504.497 527.207 505.399 528.807 507.204C530.406 508.995 531.206 511.422 531.206 514.484C531.206 517.561 530.372 519.987 528.704 521.765C527.05 523.528 524.732 524.41 521.752 524.41C519.113 524.41 516.96 523.679 515.292 522.216C513.624 520.753 512.674 518.729 512.441 516.146H516.03C516.263 517.854 516.871 519.146 517.855 520.021C518.84 520.883 520.139 521.313 521.752 521.313C523.516 521.313 524.896 520.712 525.895 519.509C526.906 518.306 527.412 516.645 527.412 514.525C527.412 512.529 526.865 510.93 525.771 509.727C524.691 508.51 523.249 507.901 521.444 507.901C519.79 507.901 518.491 508.264 517.548 508.988L516.543 509.809L513.508 509.029Z" fill="#CD08D1"/>
<path d="M800.166 563.225H803.017C804.808 563.197 806.216 562.726 807.241 561.81C808.267 560.894 808.779 559.656 808.779 558.098C808.779 554.598 807.036 552.848 803.55 552.848C801.909 552.848 800.597 553.319 799.612 554.263C798.642 555.192 798.156 556.43 798.156 557.975H794.362C794.362 555.609 795.224 553.647 796.946 552.089C798.683 550.517 800.884 549.73 803.55 549.73C806.366 549.73 808.574 550.476 810.174 551.966C811.773 553.456 812.573 555.527 812.573 558.18C812.573 559.479 812.149 560.736 811.302 561.953C810.468 563.17 809.326 564.079 807.877 564.681C809.518 565.2 810.782 566.062 811.671 567.265C812.573 568.468 813.024 569.938 813.024 571.674C813.024 574.354 812.149 576.479 810.399 578.052C808.649 579.624 806.373 580.41 803.57 580.41C800.768 580.41 798.484 579.651 796.721 578.134C794.971 576.616 794.096 574.613 794.096 572.125H797.91C797.91 573.697 798.423 574.955 799.448 575.898C800.474 576.842 801.848 577.313 803.57 577.313C805.402 577.313 806.804 576.835 807.774 575.878C808.745 574.921 809.23 573.547 809.23 571.756C809.23 570.02 808.697 568.687 807.631 567.757C806.564 566.827 805.026 566.349 803.017 566.321H800.166V563.225Z" fill="#CD08D1"/>
<path d="M833.122 550.12V553.34H832.425C829.472 553.395 827.12 554.27 825.37 555.965C823.62 557.66 822.608 560.046 822.335 563.122C823.907 561.317 826.054 560.415 828.774 560.415C831.372 560.415 833.443 561.331 834.988 563.163C836.547 564.995 837.326 567.36 837.326 570.259C837.326 573.335 836.485 575.796 834.804 577.642C833.136 579.487 830.894 580.41 828.077 580.41C825.22 580.41 822.902 579.316 821.125 577.129C819.348 574.928 818.459 572.098 818.459 568.639V567.183C818.459 561.687 819.628 557.489 821.966 554.591C824.317 551.679 827.811 550.188 832.445 550.12H833.122ZM828.139 563.573C826.84 563.573 825.644 563.963 824.55 564.742C823.456 565.521 822.697 566.499 822.273 567.675V569.069C822.273 571.53 822.827 573.513 823.935 575.017C825.042 576.521 826.423 577.272 828.077 577.272C829.786 577.272 831.126 576.644 832.097 575.386C833.081 574.128 833.573 572.48 833.573 570.443C833.573 568.393 833.074 566.738 832.076 565.48C831.092 564.209 829.779 563.573 828.139 563.573Z" fill="#CD08D1"/>
<path d="M861.095 552.273L848.729 580H844.75L857.075 553.258H840.915V550.141H861.095V552.273Z" fill="#CD08D1"/>
<path d="M867.145 565.029L868.662 550.141H883.961V553.647H871.882L870.979 561.789C872.442 560.928 874.104 560.497 875.963 560.497C878.684 560.497 880.844 561.399 882.443 563.204C884.043 564.995 884.843 567.422 884.843 570.484C884.843 573.561 884.009 575.987 882.341 577.765C880.687 579.528 878.369 580.41 875.389 580.41C872.75 580.41 870.597 579.679 868.929 578.216C867.261 576.753 866.311 574.729 866.078 572.146H869.667C869.899 573.854 870.508 575.146 871.492 576.021C872.477 576.883 873.775 577.313 875.389 577.313C877.152 577.313 878.533 576.712 879.531 575.509C880.543 574.306 881.049 572.645 881.049 570.525C881.049 568.529 880.502 566.93 879.408 565.727C878.328 564.51 876.886 563.901 875.081 563.901C873.427 563.901 872.128 564.264 871.185 564.988L870.18 565.809L867.145 565.029Z" fill="#CD08D1"/>
<path d="M122.998 619.225H125.849C127.64 619.197 129.048 618.726 130.073 617.81C131.099 616.894 131.611 615.656 131.611 614.098C131.611 610.598 129.868 608.848 126.382 608.848C124.741 608.848 123.429 609.319 122.444 610.263C121.474 611.192 120.988 612.43 120.988 613.975H117.194C117.194 611.609 118.056 609.647 119.778 608.089C121.515 606.517 123.716 605.73 126.382 605.73C129.198 605.73 131.406 606.476 133.006 607.966C134.605 609.456 135.405 611.527 135.405 614.18C135.405 615.479 134.981 616.736 134.134 617.953C133.3 619.17 132.158 620.079 130.709 620.681C132.35 621.2 133.614 622.062 134.503 623.265C135.405 624.468 135.856 625.938 135.856 627.674C135.856 630.354 134.981 632.479 133.231 634.052C131.481 635.624 129.205 636.41 126.402 636.41C123.6 636.41 121.316 635.651 119.553 634.134C117.803 632.616 116.928 630.613 116.928 628.125H120.742C120.742 629.697 121.255 630.955 122.28 631.898C123.306 632.842 124.68 633.313 126.402 633.313C128.234 633.313 129.636 632.835 130.606 631.878C131.577 630.921 132.062 629.547 132.062 627.756C132.062 626.02 131.529 624.687 130.463 623.757C129.396 622.827 127.858 622.349 125.849 622.321H122.998V619.225Z" fill="#CD08D1"/>
<path d="M160.343 608.273L147.977 636H143.998L156.323 609.258H140.163V606.141H160.343V608.273Z" fill="#CD08D1"/>
<path d="M182.758 613.934C182.758 615.424 182.361 616.75 181.568 617.912C180.789 619.074 179.729 619.983 178.39 620.64C179.948 621.31 181.179 622.287 182.081 623.572C182.997 624.857 183.455 626.313 183.455 627.94C183.455 630.524 182.58 632.582 180.83 634.113C179.094 635.645 176.804 636.41 173.96 636.41C171.089 636.41 168.785 635.645 167.049 634.113C165.326 632.568 164.465 630.511 164.465 627.94C164.465 626.327 164.902 624.871 165.777 623.572C166.666 622.273 167.89 621.289 169.448 620.619C168.122 619.963 167.076 619.054 166.311 617.892C165.545 616.729 165.162 615.41 165.162 613.934C165.162 611.418 165.969 609.422 167.582 607.945C169.195 606.469 171.321 605.73 173.96 605.73C176.585 605.73 178.704 606.469 180.317 607.945C181.944 609.422 182.758 611.418 182.758 613.934ZM179.661 627.858C179.661 626.19 179.128 624.83 178.062 623.777C177.009 622.725 175.628 622.198 173.919 622.198C172.21 622.198 170.836 622.718 169.797 623.757C168.771 624.796 168.259 626.163 168.259 627.858C168.259 629.554 168.758 630.887 169.756 631.857C170.768 632.828 172.169 633.313 173.96 633.313C175.737 633.313 177.132 632.828 178.144 631.857C179.155 630.873 179.661 629.54 179.661 627.858ZM173.96 608.848C172.47 608.848 171.26 609.312 170.33 610.242C169.414 611.158 168.956 612.409 168.956 613.995C168.956 615.513 169.407 616.743 170.31 617.687C171.226 618.616 172.442 619.081 173.96 619.081C175.478 619.081 176.688 618.616 177.59 617.687C178.506 616.743 178.964 615.513 178.964 613.995C178.964 612.478 178.492 611.24 177.549 610.283C176.605 609.326 175.409 608.848 173.96 608.848Z" fill="#CD08D1"/>
<path d="M189.977 621.029L191.494 606.141H206.793V609.647H194.714L193.812 617.789C195.274 616.928 196.936 616.497 198.795 616.497C201.516 616.497 203.676 617.399 205.275 619.204C206.875 620.995 207.675 623.422 207.675 626.484C207.675 629.561 206.841 631.987 205.173 633.765C203.519 635.528 201.201 636.41 198.221 636.41C195.582 636.41 193.429 635.679 191.761 634.216C190.093 632.753 189.143 630.729 188.91 628.146H192.499C192.731 629.854 193.34 631.146 194.324 632.021C195.309 632.883 196.607 633.313 198.221 633.313C199.984 633.313 201.365 632.712 202.363 631.509C203.375 630.306 203.881 628.645 203.881 626.525C203.881 624.529 203.334 622.93 202.24 621.727C201.16 620.51 199.718 619.901 197.913 619.901C196.259 619.901 194.96 620.264 194.017 620.988L193.012 621.809L189.977 621.029Z" fill="#CD08D1"/>
<path d="M456.947 619.225H459.798C461.589 619.197 462.997 618.726 464.022 617.81C465.048 616.894 465.561 615.656 465.561 614.098C465.561 610.598 463.817 608.848 460.331 608.848C458.69 608.848 457.378 609.319 456.394 610.263C455.423 611.192 454.938 612.43 454.938 613.975H451.144C451.144 611.609 452.005 609.647 453.728 608.089C455.464 606.517 457.665 605.73 460.331 605.73C463.147 605.73 465.355 606.476 466.955 607.966C468.555 609.456 469.354 611.527 469.354 614.18C469.354 615.479 468.931 616.736 468.083 617.953C467.249 619.17 466.107 620.079 464.658 620.681C466.299 621.2 467.563 622.062 468.452 623.265C469.354 624.468 469.806 625.938 469.806 627.674C469.806 630.354 468.931 632.479 467.181 634.052C465.431 635.624 463.154 636.41 460.352 636.41C457.549 636.41 455.266 635.651 453.502 634.134C451.752 632.616 450.877 630.613 450.877 628.125H454.691C454.691 629.697 455.204 630.955 456.229 631.898C457.255 632.842 458.629 633.313 460.352 633.313C462.184 633.313 463.585 632.835 464.556 631.878C465.526 630.921 466.012 629.547 466.012 627.756C466.012 626.02 465.479 624.687 464.412 623.757C463.346 622.827 461.808 622.349 459.798 622.321H456.947V619.225Z" fill="#CD08D1"/>
<path d="M493.123 613.934C493.123 615.424 492.727 616.75 491.934 617.912C491.154 619.074 490.095 619.983 488.755 620.64C490.313 621.31 491.544 622.287 492.446 623.572C493.362 624.857 493.82 626.313 493.82 627.94C493.82 630.524 492.945 632.582 491.195 634.113C489.459 635.645 487.169 636.41 484.325 636.41C481.454 636.41 479.15 635.645 477.414 634.113C475.691 632.568 474.83 630.511 474.83 627.94C474.83 626.327 475.268 624.871 476.143 623.572C477.031 622.273 478.255 621.289 479.813 620.619C478.487 619.963 477.441 619.054 476.676 617.892C475.91 616.729 475.527 615.41 475.527 613.934C475.527 611.418 476.334 609.422 477.947 607.945C479.561 606.469 481.687 605.73 484.325 605.73C486.95 605.73 489.069 606.469 490.683 607.945C492.31 609.422 493.123 611.418 493.123 613.934ZM490.026 627.858C490.026 626.19 489.493 624.83 488.427 623.777C487.374 622.725 485.993 622.198 484.284 622.198C482.575 622.198 481.201 622.718 480.162 623.757C479.137 624.796 478.624 626.163 478.624 627.858C478.624 629.554 479.123 630.887 480.121 631.857C481.133 632.828 482.534 633.313 484.325 633.313C486.103 633.313 487.497 632.828 488.509 631.857C489.521 630.873 490.026 629.54 490.026 627.858ZM484.325 608.848C482.835 608.848 481.625 609.312 480.695 610.242C479.779 611.158 479.321 612.409 479.321 613.995C479.321 615.513 479.772 616.743 480.675 617.687C481.591 618.616 482.808 619.081 484.325 619.081C485.843 619.081 487.053 618.616 487.955 617.687C488.871 616.743 489.329 615.513 489.329 613.995C489.329 612.478 488.857 611.24 487.914 610.283C486.971 609.326 485.774 608.848 484.325 608.848Z" fill="#CD08D1"/>
<path d="M518.163 636H498.599V633.272L508.935 621.788C510.466 620.052 511.519 618.644 512.093 617.563C512.681 616.47 512.975 615.342 512.975 614.18C512.975 612.621 512.503 611.343 511.56 610.345C510.616 609.347 509.358 608.848 507.786 608.848C505.899 608.848 504.43 609.388 503.377 610.468C502.338 611.534 501.818 613.024 501.818 614.938H498.024C498.024 612.19 498.906 609.969 500.67 608.273C502.447 606.578 504.819 605.73 507.786 605.73C510.562 605.73 512.756 606.462 514.369 607.925C515.982 609.374 516.789 611.309 516.789 613.729C516.789 616.668 514.916 620.168 511.17 624.229L503.172 632.903H518.163V636Z" fill="#CD08D1"/>
<path d="M523.926 621.029L525.443 606.141H540.742V609.647H528.663L527.761 617.789C529.224 616.928 530.885 616.497 532.744 616.497C535.465 616.497 537.625 617.399 539.225 619.204C540.824 620.995 541.624 623.422 541.624 626.484C541.624 629.561 540.79 631.987 539.122 633.765C537.468 635.528 535.15 636.41 532.17 636.41C529.531 636.41 527.378 635.679 525.71 634.216C524.042 632.753 523.092 630.729 522.859 628.146H526.448C526.681 629.854 527.289 631.146 528.273 632.021C529.258 632.883 530.557 633.313 532.17 633.313C533.934 633.313 535.314 632.712 536.312 631.509C537.324 630.306 537.83 628.645 537.83 626.525C537.83 624.529 537.283 622.93 536.189 621.727C535.109 620.51 533.667 619.901 531.862 619.901C530.208 619.901 528.909 620.264 527.966 620.988L526.961 621.809L523.926 621.029Z" fill="#CD08D1"/>
</g>
<g id="flecha">
<path id="Rectangle 2" d="M388.2 585.008L403.482 593.133L361.5 672.089L346.218 663.963L388.2 585.008Z" fill="#1043F5"/>
<path id="Rectangle 1_2" d="M330 597.904L420 548V605.692L375 588.096L330 597.904Z" fill="#1043F5"/>
<path id="Rectangle 3" d="M334.038 667.21L349.666 640.143L366.936 639.565L351.309 666.632L334.038 667.21Z" fill="#1043F5"/>
<path id="Rectangle 4_2" d="M360.089 681.845L375.717 654.778L366.926 639.154L351.299 666.221L360.089 681.845Z" fill="#1043F5"/>
</g>
</g>
</g>
</svg>
