<svg viewBox="0 0 948 446" fill="none" xmlns="http://www.w3.org/2000/svg">
<g id="0123210">
<g id="Group 160">
<g id="Group 162">
<path id="Rectangle 31 (Stroke)" fill-rule="evenodd" clip-rule="evenodd" d="M127 26H37L82 61.3096L37 96.6193H127L82 61.3096L127 26ZM82 65.1229L45.6831 93.6193H118.317L82 65.1229ZM82 57.4963L118.317 29H45.6831L82 57.4963Z" fill="white"/>
<path id="Polygon 32" d="M82.5 60.5L129 98L36.5 96.5L82.5 60.5Z" fill="#2CF30B"/>
<path id="Polygon 33" d="M126.5 26L82 61L37 26H126.5Z" fill="#E8A1EE"/>
</g>
<g id="= 2">
<path d="M163.221 58.3066H146.117V55.0049H163.221V58.3066ZM163.221 66.8174H146.117V63.5361H163.221V66.8174Z" fill="white"/>
<path d="M198.515 75H178.95V72.2725L189.286 60.7881C190.817 59.0518 191.87 57.6436 192.444 56.5635C193.032 55.4697 193.326 54.3418 193.326 53.1797C193.326 51.6211 192.854 50.3428 191.911 49.3447C190.968 48.3467 189.71 47.8477 188.138 47.8477C186.251 47.8477 184.781 48.3877 183.729 49.4678C182.689 50.5342 182.17 52.0244 182.17 53.9385H178.376C178.376 51.1904 179.258 48.9688 181.021 47.2734C182.799 45.5781 185.171 44.7305 188.138 44.7305C190.913 44.7305 193.107 45.4619 194.721 46.9248C196.334 48.374 197.141 50.3086 197.141 52.7285C197.141 55.668 195.268 59.168 191.521 63.2285L183.523 71.9033H198.515V75Z" fill="white"/>
</g>
</g>
<g id="Group 161">
<g id="Group 166">
<g id="Group 163">
<path id="Rectangle 31 (Stroke)_2" fill-rule="evenodd" clip-rule="evenodd" d="M140.5 147H50.5L95.5 182.31L50.5 217.619H140.5L95.5 182.31L140.5 147ZM95.5 186.123L59.1831 214.619H131.817L95.5 186.123ZM95.5 178.496L131.817 150H59.1831L95.5 178.496Z" fill="white"/>
<path id="Polygon 32_2" d="M96 181.5L142.5 219L50 217.5L96 181.5Z" fill="#2CF30B"/>
<path id="Polygon 33_2" d="M140 147L95.5 182L50.5 147H140Z" fill="#E8A1EE"/>
</g>
<g id="Group 163_2">
<path id="Rectangle 32 (Stroke)" fill-rule="evenodd" clip-rule="evenodd" d="M93 220H3L48 255.31L3 290.619H93L48 255.31L93 220ZM48 259.123L11.6831 287.619H84.3169L48 259.123ZM48 251.496L84.3169 223H11.6831L48 251.496Z" fill="white"/>
<path id="Rectangle 33 (Stroke)" fill-rule="evenodd" clip-rule="evenodd" d="M183 220H93L138 255.31L93 290.619H183L138 255.31L183 220ZM138 259.123L101.683 287.619H174.317L138 259.123ZM138 251.496L174.317 223H101.683L138 251.496Z" fill="white"/>
<path id="Polygon 34" d="M48 255L94.5 292.5L2 291L48 255Z" fill="#2CF30B"/>
<path id="Polygon 36" d="M139 255L185.5 292.5L93 291L139 255Z" fill="#2CF30B"/>
<path id="Polygon 34_2" d="M92.5 220L48 255L3 220H92.5Z" fill="#E8A1EE"/>
<path id="Polygon 35" d="M182.5 220L138 255L93 220H182.5Z" fill="#E8A1EE"/>
<path id="Polygon 37" d="M93 220L187 294L1.5 291.25L93 220Z" fill="#F3C72C"/>
<path id="Polygon 38" d="M184.5 219L94 292.5L0 219H184.5Z" fill="#492EBD"/>
</g>
</g>
<g id="= 8">
<path d="M220.221 254.307H203.117V251.005H220.221V254.307ZM220.221 262.817H203.117V259.536H220.221V262.817Z" fill="white"/>
<path d="M254.059 248.934C254.059 250.424 253.662 251.75 252.869 252.912C252.09 254.074 251.03 254.983 249.69 255.64C251.249 256.31 252.479 257.287 253.382 258.572C254.298 259.857 254.756 261.313 254.756 262.94C254.756 265.524 253.881 267.582 252.131 269.113C250.395 270.645 248.104 271.41 245.261 271.41C242.39 271.41 240.086 270.645 238.35 269.113C236.627 267.568 235.766 265.511 235.766 262.94C235.766 261.327 236.203 259.871 237.078 258.572C237.967 257.273 239.19 256.289 240.749 255.619C239.423 254.963 238.377 254.054 237.611 252.892C236.846 251.729 236.463 250.41 236.463 248.934C236.463 246.418 237.27 244.422 238.883 242.945C240.496 241.469 242.622 240.73 245.261 240.73C247.886 240.73 250.005 241.469 251.618 242.945C253.245 244.422 254.059 246.418 254.059 248.934ZM250.962 262.858C250.962 261.19 250.429 259.83 249.362 258.777C248.31 257.725 246.929 257.198 245.22 257.198C243.511 257.198 242.137 257.718 241.098 258.757C240.072 259.796 239.56 261.163 239.56 262.858C239.56 264.554 240.059 265.887 241.057 266.857C242.068 267.828 243.47 268.313 245.261 268.313C247.038 268.313 248.433 267.828 249.444 266.857C250.456 265.873 250.962 264.54 250.962 262.858ZM245.261 243.848C243.771 243.848 242.561 244.312 241.631 245.242C240.715 246.158 240.257 247.409 240.257 248.995C240.257 250.513 240.708 251.743 241.61 252.687C242.526 253.616 243.743 254.081 245.261 254.081C246.778 254.081 247.988 253.616 248.891 252.687C249.807 251.743 250.265 250.513 250.265 248.995C250.265 247.478 249.793 246.24 248.85 245.283C247.906 244.326 246.71 243.848 245.261 243.848Z" fill="white"/>
</g>
</g>
<g id="Group 164">
<g id="Group 167">
<g id="Group 163_3">
<path id="Rectangle 31 (Stroke)_3" fill-rule="evenodd" clip-rule="evenodd" d="M647.5 0H557.5L602.5 35.3096L557.5 70.6193H647.5L602.5 35.3096L647.5 0ZM602.5 39.1229L566.183 67.6193H638.817L602.5 39.1229ZM602.5 31.4963L638.817 3H566.183L602.5 31.4963Z" fill="white"/>
<path id="Polygon 32_3" d="M603 34.5L649.5 72L557 70.5L603 34.5Z" fill="#2CF30B"/>
<path id="Polygon 33_3" d="M647 0L602.5 35L557.5 0H647Z" fill="#E8A1EE"/>
</g>
<g id="Group 163_4">
<path id="Rectangle 32 (Stroke)_2" fill-rule="evenodd" clip-rule="evenodd" d="M600 73H510L555 108.31L510 143.619H600L555 108.31L600 73ZM555 112.123L518.683 140.619H591.317L555 112.123ZM555 104.496L591.317 76H518.683L555 104.496Z" fill="white"/>
<path id="Rectangle 33 (Stroke)_2" fill-rule="evenodd" clip-rule="evenodd" d="M690 73H600L645 108.31L600 143.619H690L645 108.31L690 73ZM645 112.123L608.683 140.619H681.317L645 112.123ZM645 104.496L681.317 76H608.683L645 104.496Z" fill="white"/>
<path id="Polygon 34_3" d="M555 108L601.5 145.5L509 144L555 108Z" fill="#2CF30B"/>
<path id="Polygon 36_2" d="M646 108L692.5 145.5L600 144L646 108Z" fill="#2CF30B"/>
<path id="Polygon 34_4" d="M599.5 73L555 108L510 73H599.5Z" fill="#E8A1EE"/>
<path id="Polygon 35_2" d="M689.5 73L645 108L600 73H689.5Z" fill="#E8A1EE"/>
<path id="Polygon 37_2" d="M600 73L694 147L508.5 144.25L600 73Z" fill="#F3C72C"/>
<path id="Polygon 38_2" d="M691.5 72L601 145.5L507 72H691.5Z" fill="#492EBD"/>
</g>
</g>
<g id="Group 165">
<path id="Rectangle 34 (Stroke)" fill-rule="evenodd" clip-rule="evenodd" d="M557 147H467L512 182.31L467 217.619H557L512 182.31L557 147ZM512 186.123L475.683 214.619H548.317L512 186.123ZM512 178.496L548.317 150H475.683L512 178.496Z" fill="white"/>
<path id="Rectangle 35 (Stroke)" fill-rule="evenodd" clip-rule="evenodd" d="M647 147H557L602 182.31L557 217.619H647L602 182.31L647 147ZM602 186.123L565.683 214.619H638.317L602 186.123ZM602 178.496L638.317 150H565.683L602 178.496Z" fill="white"/>
<path id="Rectangle 36 (Stroke)" fill-rule="evenodd" clip-rule="evenodd" d="M737 147H647L692 182.31L647 217.619H737L692 182.31L737 147ZM692 186.123L655.683 214.619H728.317L692 186.123ZM692 178.496L728.317 150H655.683L692 178.496Z" fill="white"/>
<path id="Polygon 34_5" d="M556.5 147L512 182L467 147H556.5Z" fill="#E8A1EE"/>
<path id="Polygon 35_3" d="M646.5 147L602 182L557 147H646.5Z" fill="#E8A1EE"/>
<path id="Polygon 37_3" d="M736.5 147L692 182L647 147H736.5Z" fill="#E8A1EE"/>
<path id="Polygon 34_6" d="M512 180L558.5 217.5L466 216L512 180Z" fill="#2CF30B"/>
<path id="Polygon 36_3" d="M602 182L648.5 219.5L556 218L602 182Z" fill="#2CF30B"/>
<path id="Polygon 38_3" d="M693 180L739.5 217.5L647 216L693 180Z" fill="#2CF30B"/>
<path id="Polygon 39" d="M557.5 146L651.5 220L466 217.25L557.5 146Z" fill="#F3C72C"/>
<path id="Polygon 40" d="M650.5 146L744.5 220L559 217.25L650.5 146Z" fill="#E47209"/>
<path id="Polygon 39_2" d="M649.5 146L559 219.5L465 146H649.5Z" fill="#492EBD"/>
<path id="Polygon 41" d="M736.5 147L646 220.5L552 147H736.5Z" fill="#19D5AD"/>
</g>
<g id="= 18">
<path d="M767.221 184.307H750.117V181.005H767.221V184.307ZM767.221 192.817H750.117V189.536H767.221V192.817Z" fill="white"/>
<path d="M795.419 201H791.604V175.714L783.955 178.523V175.078L794.824 170.997H795.419V201Z" fill="white"/>
<path d="M824.643 178.934C824.643 180.424 824.246 181.75 823.453 182.912C822.674 184.074 821.614 184.983 820.274 185.64C821.833 186.31 823.063 187.287 823.966 188.572C824.882 189.857 825.34 191.313 825.34 192.94C825.34 195.524 824.465 197.582 822.715 199.113C820.979 200.645 818.688 201.41 815.845 201.41C812.974 201.41 810.67 200.645 808.934 199.113C807.211 197.568 806.35 195.511 806.35 192.94C806.35 191.327 806.787 189.871 807.662 188.572C808.551 187.273 809.774 186.289 811.333 185.619C810.007 184.963 808.961 184.054 808.195 182.892C807.43 181.729 807.047 180.41 807.047 178.934C807.047 176.418 807.854 174.422 809.467 172.945C811.08 171.469 813.206 170.73 815.845 170.73C818.47 170.73 820.589 171.469 822.202 172.945C823.829 174.422 824.643 176.418 824.643 178.934ZM821.546 192.858C821.546 191.19 821.013 189.83 819.946 188.777C818.894 187.725 817.513 187.198 815.804 187.198C814.095 187.198 812.721 187.718 811.682 188.757C810.656 189.796 810.144 191.163 810.144 192.858C810.144 194.554 810.643 195.887 811.641 196.857C812.652 197.828 814.054 198.313 815.845 198.313C817.622 198.313 819.017 197.828 820.028 196.857C821.04 195.873 821.546 194.54 821.546 192.858ZM815.845 173.848C814.354 173.848 813.145 174.312 812.215 175.242C811.299 176.158 810.841 177.409 810.841 178.995C810.841 180.513 811.292 181.743 812.194 182.687C813.11 183.616 814.327 184.081 815.845 184.081C817.362 184.081 818.572 183.616 819.475 182.687C820.391 181.743 820.849 180.513 820.849 178.995C820.849 177.478 820.377 176.24 819.434 175.283C818.49 174.326 817.294 173.848 815.845 173.848Z" fill="white"/>
</g>
</g>
<g id="=2(1)\;&#10;=2(2^2)\;&#10;=2(3^2)\;">
<g id="Group">
<g id="Group 168">
<g id="Group_2">
<path id="Vector" d="M220 56.2169C220 55.9112 220.165 55.676 220.494 55.5114H242.966C243.319 55.6995 243.495 55.9347 243.495 56.2169C243.495 56.4756 243.33 56.6991 243.001 56.8872L231.783 56.9225H220.564C220.188 56.8049 220 56.5697 220 56.2169ZM220 63.0608C220 62.708 220.188 62.4728 220.564 62.3552H243.001C243.33 62.5904 243.495 62.8256 243.495 63.0608C243.495 63.3665 243.319 63.6017 242.966 63.7664H220.494C220.165 63.6017 220 63.3665 220 63.0608Z" fill="white"/>
</g>
<g id="Group_3">
<path id="Vector_2" d="M259.116 53.3243C258.481 53.3243 257.975 53.1127 257.599 52.6893C257.223 52.266 257.035 51.7486 257.035 51.1371C257.035 49.4673 257.658 48.0209 258.904 46.798C260.151 45.575 261.703 44.9635 263.561 44.9635C265.701 44.9635 267.489 45.622 268.923 46.9391C270.358 48.2561 271.087 49.9612 271.11 52.0543C271.11 53.0656 270.875 54.0299 270.405 54.9471C269.935 55.8643 269.37 56.664 268.712 57.346C268.053 58.028 267.112 58.8982 265.889 59.9566C265.043 60.6856 263.867 61.7675 262.362 63.2021L260.28 65.1777L262.961 65.2129C266.654 65.2129 268.618 65.1541 268.853 65.0366C269.017 64.9895 269.3 63.9429 269.699 61.8968V61.791H271.11V61.8968C271.087 61.9674 270.934 63.0375 270.652 65.1071C270.37 67.1767 270.193 68.2586 270.123 68.3527V68.4585H257.035V67.7882V67.3649C257.035 67.2003 257.105 67.0239 257.246 66.8357C257.387 66.6476 257.74 66.236 258.305 65.601C258.987 64.8484 259.575 64.1899 260.069 63.6254C260.28 63.3903 260.68 62.9552 261.268 62.3202C261.856 61.6852 262.256 61.2501 262.467 61.0149C262.679 60.7797 263.02 60.3917 263.49 59.8507C263.961 59.3098 264.29 58.91 264.478 58.6513C264.666 58.3926 264.937 58.0398 265.29 57.593C265.642 57.1461 265.889 56.7698 266.03 56.4641C266.172 56.1583 266.348 55.8173 266.56 55.441C266.771 55.0647 266.924 54.6884 267.018 54.3121C267.112 53.9358 267.195 53.583 267.265 53.2538C267.336 52.9245 267.371 52.5365 267.371 52.0896C267.371 50.608 266.971 49.3262 266.172 48.2444C265.372 47.1625 264.231 46.6216 262.75 46.6216C261.974 46.6216 261.292 46.8215 260.704 47.2213C260.116 47.6211 259.704 48.0092 259.469 48.3855C259.234 48.7618 259.116 48.9852 259.116 49.0557C259.116 49.0793 259.175 49.091 259.292 49.091C259.716 49.091 260.151 49.2556 260.598 49.5849C261.045 49.9142 261.268 50.4551 261.268 51.2077C261.268 51.7956 261.08 52.2895 260.704 52.6893C260.327 53.0892 259.798 53.3008 259.116 53.3243Z" fill="white"/>
</g>
<g id="Group_4">
<path id="Vector_3" d="M276.225 59.639C276.225 58.0162 276.343 56.4757 276.578 55.0176C276.813 53.5594 277.084 52.3012 277.389 51.2429C277.695 50.1845 278.13 49.1497 278.695 48.1384C279.259 47.1271 279.706 46.3393 280.035 45.7748C280.364 45.2104 280.858 44.5989 281.517 43.9404C282.175 43.2819 282.563 42.882 282.681 42.7409C282.799 42.5998 283.092 42.3529 283.563 42.0001H284.021H284.163C284.492 42.0001 284.656 42.1059 284.656 42.3176C284.656 42.3881 284.457 42.6351 284.057 43.0584C283.657 43.4818 283.175 44.105 282.61 44.9281C282.046 45.7513 281.47 46.7626 280.882 47.962C280.294 49.1615 279.8 50.7842 279.4 52.8304C279 54.8765 278.8 57.146 278.8 59.639C278.8 62.1319 279 64.3897 279.4 66.4123C279.8 68.4349 280.282 70.0694 280.846 71.3159C281.411 72.5624 281.987 73.5737 282.575 74.3498C283.163 75.1259 283.657 75.7491 284.057 76.2195C284.457 76.6899 284.656 76.9368 284.656 76.9603C284.656 77.172 284.48 77.2778 284.127 77.2778H284.021H283.563L282.575 76.4312C280.364 74.4321 278.753 71.9391 277.742 68.9523C276.731 65.9654 276.225 62.861 276.225 59.639Z" fill="white"/>
</g>
<g id="Group_5">
<path id="Vector_4" d="M294.147 48.068L293.688 48.2444C293.359 48.3619 292.888 48.4795 292.277 48.5971C291.665 48.7147 290.983 48.797 290.231 48.8441H289.561V47.2213H290.231C291.336 47.1743 292.359 46.9979 293.3 46.6921C294.241 46.3864 294.899 46.1042 295.276 45.8455C295.652 45.5868 295.981 45.3281 296.263 45.0694C296.31 44.9988 296.451 44.9635 296.687 44.9635C296.898 44.9635 297.098 45.0341 297.286 45.1752V55.7232L297.322 66.3066C297.486 66.4712 297.627 66.577 297.745 66.6241C297.863 66.6711 298.145 66.7181 298.592 66.7652C299.038 66.8122 299.768 66.8357 300.779 66.8357H301.696V68.4585H301.308C300.814 68.3879 298.944 68.3527 295.699 68.3527C292.5 68.3527 290.654 68.3879 290.16 68.4585H289.737V66.8357H290.654C291.172 66.8357 291.618 66.8357 291.995 66.8357C292.371 66.8357 292.665 66.824 292.877 66.8004C293.088 66.7769 293.276 66.7416 293.441 66.6946C293.606 66.6476 293.7 66.6241 293.723 66.6241C293.747 66.6241 293.817 66.5653 293.935 66.4477C294.053 66.3301 294.123 66.283 294.147 66.3066V48.068Z" fill="white"/>
</g>
<g id="Group_6">
<path id="Vector_5" d="M306.388 42.0354L306.529 42.0001C306.647 42.0001 306.765 42.0001 306.882 42.0001H307.306L308.293 42.8468C310.504 44.8458 312.115 47.3388 313.126 50.3256C314.138 53.3125 314.643 56.4169 314.643 59.639C314.643 61.2382 314.526 62.7787 314.291 64.2603C314.055 65.742 313.785 67.0003 313.479 68.0351C313.173 69.0699 312.738 70.1047 312.174 71.1395C311.609 72.1743 311.163 72.9622 310.833 73.5031C310.504 74.044 310.022 74.6438 309.387 75.3023C308.752 75.9608 308.376 76.3489 308.258 76.4664C308.14 76.584 307.87 76.8075 307.447 77.1367C307.376 77.2073 307.329 77.2543 307.306 77.2778H306.882C306.694 77.2778 306.565 77.2778 306.494 77.2778C306.424 77.2778 306.365 77.2426 306.318 77.172C306.271 77.1014 306.235 76.9956 306.212 76.8545C306.235 76.831 306.365 76.6781 306.6 76.3959C310.245 72.6094 312.068 67.0238 312.068 59.639C312.068 52.2542 310.245 46.6685 306.6 42.882C306.365 42.5998 306.235 42.4469 306.212 42.4234C306.212 42.2353 306.271 42.1059 306.388 42.0354Z" fill="white"/>
</g>
</g>
<g id="Group 169">
<g id="Group_7">
<path id="Vector_6" d="M271 253.939C271 253.633 271.165 253.398 271.494 253.234H293.966C294.319 253.422 294.495 253.657 294.495 253.939C294.495 254.198 294.33 254.421 294.001 254.609L282.783 254.645H271.564C271.188 254.527 271 254.292 271 253.939ZM271 260.783C271 260.43 271.188 260.195 271.564 260.077H294.001C294.33 260.313 294.495 260.548 294.495 260.783C294.495 261.089 294.319 261.324 293.966 261.489H271.494C271.165 261.324 271 261.089 271 260.783Z" fill="white"/>
</g>
<g id="Group_8">
<path id="Vector_7" d="M310.115 251.047C309.48 251.047 308.974 250.835 308.598 250.412C308.222 249.988 308.034 249.471 308.034 248.859C308.034 247.189 308.657 245.743 309.903 244.52C311.15 243.297 312.702 242.686 314.56 242.686C316.7 242.686 318.488 243.344 319.922 244.661C321.357 245.978 322.086 247.683 322.11 249.777C322.11 250.788 321.874 251.752 321.404 252.669C320.934 253.587 320.369 254.386 319.711 255.068C319.052 255.75 318.111 256.62 316.888 257.679C316.042 258.408 314.866 259.49 313.361 260.924L311.279 262.9L313.96 262.935C317.653 262.935 319.617 262.876 319.852 262.759C320.016 262.712 320.299 261.665 320.698 259.619V259.513H322.11V259.619C322.086 259.69 321.933 260.76 321.651 262.829C321.369 264.899 321.192 265.981 321.122 266.075V266.181H308.034V265.51V265.087C308.034 264.922 308.104 264.746 308.245 264.558C308.386 264.37 308.739 263.958 309.304 263.323C309.986 262.571 310.574 261.912 311.068 261.348C311.279 261.112 311.679 260.677 312.267 260.042C312.855 259.407 313.255 258.972 313.466 258.737C313.678 258.502 314.019 258.114 314.49 257.573C314.96 257.032 315.289 256.632 315.477 256.373C315.665 256.115 315.936 255.762 316.289 255.315C316.641 254.868 316.888 254.492 317.03 254.186C317.171 253.88 317.347 253.539 317.559 253.163C317.77 252.787 317.923 252.411 318.017 252.034C318.111 251.658 318.194 251.305 318.264 250.976C318.335 250.647 318.37 250.259 318.37 249.812C318.37 248.33 317.97 247.048 317.171 245.967C316.371 244.885 315.23 244.344 313.749 244.344C312.973 244.344 312.291 244.544 311.703 244.943C311.115 245.343 310.703 245.731 310.468 246.108C310.233 246.484 310.115 246.707 310.115 246.778C310.115 246.801 310.174 246.813 310.291 246.813C310.715 246.813 311.15 246.978 311.597 247.307C312.044 247.636 312.267 248.177 312.267 248.93C312.267 249.518 312.079 250.012 311.703 250.412C311.326 250.811 310.797 251.023 310.115 251.047Z" fill="white"/>
</g>
<g id="Group_9">
<path id="Vector_8" d="M327.226 257.361C327.226 255.738 327.344 254.198 327.579 252.74C327.814 251.282 328.084 250.023 328.39 248.965C328.696 247.907 329.131 246.872 329.696 245.861C330.26 244.849 330.707 244.061 331.036 243.497C331.365 242.933 331.859 242.321 332.518 241.663C333.176 241.004 333.564 240.604 333.682 240.463C333.799 240.322 334.093 240.075 334.564 239.722H335.022H335.164C335.493 239.722 335.657 239.828 335.657 240.04C335.657 240.11 335.458 240.357 335.058 240.781C334.658 241.204 334.176 241.827 333.611 242.65C333.047 243.473 332.471 244.485 331.883 245.684C331.295 246.884 330.801 248.506 330.401 250.553C330.001 252.599 329.801 254.868 329.801 257.361C329.801 259.854 330.001 262.112 330.401 264.134C330.801 266.157 331.283 267.792 331.847 269.038C332.412 270.285 332.988 271.296 333.576 272.072C334.164 272.848 334.658 273.471 335.058 273.942C335.458 274.412 335.657 274.659 335.657 274.683C335.657 274.894 335.481 275 335.128 275H335.022H334.564L333.576 274.153C331.365 272.154 329.754 269.661 328.743 266.674C327.732 263.688 327.226 260.583 327.226 257.361Z" fill="white"/>
</g>
<g id="Group_10">
<g id="Group_11">
<path id="Vector_9" d="M341.477 251.047C340.842 251.047 340.337 250.835 339.96 250.412C339.584 249.988 339.396 249.471 339.396 248.859C339.396 247.189 340.019 245.743 341.266 244.52C342.512 243.297 344.064 242.686 345.922 242.686C348.063 242.686 349.85 243.344 351.285 244.661C352.719 245.978 353.448 247.683 353.472 249.777C353.472 250.788 353.237 251.752 352.766 252.669C352.296 253.587 351.731 254.386 351.073 255.068C350.414 255.75 349.474 256.62 348.251 257.679C347.404 258.408 346.228 259.49 344.723 260.924L342.642 262.9L345.323 262.935C349.015 262.935 350.979 262.876 351.214 262.759C351.379 262.712 351.661 261.665 352.061 259.619V259.513H353.472V259.619C353.448 259.69 353.295 260.76 353.013 262.829C352.731 264.899 352.555 265.981 352.484 266.075V266.181H339.396V265.51V265.087C339.396 264.922 339.467 264.746 339.608 264.558C339.749 264.37 340.102 263.958 340.666 263.323C341.348 262.571 341.936 261.912 342.43 261.348C342.642 261.112 343.041 260.677 343.629 260.042C344.217 259.407 344.617 258.972 344.829 258.737C345.04 258.502 345.381 258.114 345.852 257.573C346.322 257.032 346.651 256.632 346.84 256.373C347.028 256.115 347.298 255.762 347.651 255.315C348.004 254.868 348.251 254.492 348.392 254.186C348.533 253.88 348.709 253.539 348.921 253.163C349.133 252.787 349.286 252.411 349.38 252.034C349.474 251.658 349.556 251.305 349.627 250.976C349.697 250.647 349.732 250.259 349.732 249.812C349.732 248.33 349.333 247.048 348.533 245.967C347.733 244.885 346.593 244.344 345.111 244.344C344.335 244.344 343.653 244.544 343.065 244.943C342.477 245.343 342.065 245.731 341.83 246.108C341.595 246.484 341.477 246.707 341.477 246.778C341.477 246.801 341.536 246.813 341.654 246.813C342.077 246.813 342.512 246.978 342.959 247.307C343.406 247.636 343.629 248.177 343.629 248.93C343.629 249.518 343.441 250.012 343.065 250.412C342.689 250.811 342.159 251.023 341.477 251.047Z" fill="white"/>
</g>
<g id="Group_12">
<path id="Vector_10" d="M357.99 240.911C357.541 240.911 357.184 240.762 356.918 240.462C356.652 240.163 356.519 239.797 356.519 239.365C356.519 238.184 356.959 237.162 357.84 236.297C358.722 235.432 359.819 235 361.133 235C362.646 235 363.91 235.466 364.924 236.397C365.938 237.328 366.454 238.533 366.47 240.013C366.47 240.728 366.304 241.41 365.971 242.059C365.639 242.707 365.24 243.272 364.774 243.755C364.309 244.237 363.643 244.852 362.779 245.6C362.18 246.116 361.349 246.881 360.285 247.895L358.813 249.292L360.709 249.316C363.319 249.316 364.708 249.275 364.874 249.192C364.99 249.159 365.19 248.419 365.473 246.972V246.897H366.47V246.972C366.454 247.022 366.345 247.778 366.146 249.242C365.946 250.705 365.822 251.47 365.772 251.536V251.611H356.519V251.137V250.838C356.519 250.722 356.568 250.597 356.668 250.464C356.768 250.331 357.017 250.04 357.416 249.591C357.899 249.059 358.314 248.593 358.664 248.194C358.813 248.028 359.096 247.72 359.512 247.271C359.927 246.822 360.21 246.515 360.36 246.348C360.509 246.182 360.75 245.908 361.083 245.525C361.415 245.143 361.648 244.86 361.781 244.677C361.914 244.494 362.105 244.245 362.355 243.929C362.604 243.613 362.779 243.347 362.879 243.131C362.978 242.915 363.103 242.674 363.253 242.408C363.402 242.142 363.51 241.876 363.577 241.61C363.643 241.344 363.702 241.094 363.752 240.861C363.801 240.629 363.826 240.354 363.826 240.038C363.826 238.991 363.544 238.085 362.978 237.32C362.413 236.555 361.607 236.172 360.559 236.172C360.01 236.172 359.528 236.314 359.112 236.596C358.697 236.879 358.406 237.153 358.24 237.419C358.073 237.685 357.99 237.843 357.99 237.893C357.99 237.91 358.032 237.918 358.115 237.918C358.414 237.918 358.722 238.035 359.038 238.267C359.354 238.5 359.512 238.883 359.512 239.415C359.512 239.83 359.378 240.18 359.112 240.462C358.846 240.745 358.472 240.895 357.99 240.911Z" fill="white"/>
</g>
</g>
<g id="Group_13">
<path id="Vector_11" d="M371.626 239.758L371.767 239.722C371.885 239.722 372.002 239.722 372.12 239.722H372.543L373.531 240.569C375.742 242.568 377.353 245.061 378.364 248.048C379.375 251.035 379.881 254.139 379.881 257.361C379.881 258.96 379.763 260.501 379.528 261.983C379.293 263.464 379.023 264.722 378.717 265.757C378.411 266.792 377.976 267.827 377.412 268.862C376.847 269.896 376.4 270.684 376.071 271.225C375.742 271.766 375.26 272.366 374.625 273.024C373.99 273.683 373.613 274.071 373.496 274.189C373.378 274.306 373.108 274.53 372.684 274.859C372.614 274.929 372.567 274.976 372.543 275H372.12C371.932 275 371.802 275 371.732 275C371.661 275 371.603 274.965 371.556 274.894C371.509 274.824 371.473 274.718 371.45 274.577C371.473 274.553 371.603 274.4 371.838 274.118C375.483 270.332 377.306 264.746 377.306 257.361C377.306 249.976 375.483 244.391 371.838 240.604C371.603 240.322 371.473 240.169 371.45 240.146C371.45 239.957 371.509 239.828 371.626 239.758Z" fill="white"/>
</g>
</g>
<g id="Group 170">
<g id="Group_14">
<path id="Vector_12" d="M839 185.939C839 185.633 839.165 185.398 839.494 185.234H861.966C862.319 185.422 862.495 185.657 862.495 185.939C862.495 186.198 862.33 186.421 862.001 186.609L850.783 186.645H839.564C839.188 186.527 839 186.292 839 185.939ZM839 192.783C839 192.43 839.188 192.195 839.564 192.077H862.001C862.33 192.313 862.495 192.548 862.495 192.783C862.495 193.089 862.319 193.324 861.966 193.489H839.494C839.165 193.324 839 193.089 839 192.783Z" fill="white"/>
</g>
<g id="Group_15">
<path id="Vector_13" d="M878.116 183.047C877.481 183.047 876.975 182.835 876.599 182.412C876.223 181.988 876.035 181.471 876.035 180.859C876.035 179.189 876.658 177.743 877.904 176.52C879.151 175.297 880.703 174.686 882.561 174.686C884.701 174.686 886.489 175.344 887.923 176.661C889.358 177.978 890.087 179.683 890.11 181.777C890.11 182.788 889.875 183.752 889.405 184.669C888.935 185.587 888.37 186.386 887.712 187.068C887.053 187.75 886.112 188.62 884.889 189.679C884.043 190.408 882.867 191.49 881.362 192.924L879.28 194.9L881.961 194.935C885.654 194.935 887.618 194.876 887.853 194.759C888.017 194.712 888.3 193.665 888.699 191.619V191.513H890.11V191.619C890.087 191.69 889.934 192.76 889.652 194.829C889.37 196.899 889.193 197.981 889.123 198.075V198.181H876.035V197.51V197.087C876.035 196.922 876.105 196.746 876.246 196.558C876.387 196.37 876.74 195.958 877.305 195.323C877.987 194.571 878.575 193.912 879.069 193.348C879.28 193.112 879.68 192.677 880.268 192.042C880.856 191.407 881.256 190.972 881.467 190.737C881.679 190.502 882.02 190.114 882.49 189.573C882.961 189.032 883.29 188.632 883.478 188.373C883.666 188.115 883.937 187.762 884.29 187.315C884.642 186.868 884.889 186.492 885.03 186.186C885.172 185.88 885.348 185.539 885.56 185.163C885.771 184.787 885.924 184.411 886.018 184.034C886.112 183.658 886.195 183.305 886.265 182.976C886.336 182.647 886.371 182.259 886.371 181.812C886.371 180.33 885.971 179.048 885.172 177.967C884.372 176.885 883.231 176.344 881.75 176.344C880.974 176.344 880.292 176.544 879.704 176.943C879.116 177.343 878.704 177.731 878.469 178.108C878.234 178.484 878.116 178.707 878.116 178.778C878.116 178.801 878.175 178.813 878.292 178.813C878.716 178.813 879.151 178.978 879.598 179.307C880.045 179.636 880.268 180.177 880.268 180.93C880.268 181.518 880.08 182.012 879.704 182.412C879.327 182.811 878.798 183.023 878.116 183.047Z" fill="white"/>
</g>
<g id="Group_16">
<path id="Vector_14" d="M895.226 189.361C895.226 187.738 895.343 186.198 895.578 184.74C895.814 183.282 896.084 182.023 896.39 180.965C896.695 179.907 897.131 178.872 897.695 177.861C898.259 176.849 898.706 176.061 899.036 175.497C899.365 174.933 899.859 174.321 900.517 173.663C901.176 173.004 901.564 172.604 901.681 172.463C901.799 172.322 902.093 172.075 902.563 171.722H903.022H903.163C903.492 171.722 903.657 171.828 903.657 172.04C903.657 172.11 903.457 172.357 903.057 172.781C902.657 173.204 902.175 173.827 901.611 174.65C901.046 175.473 900.47 176.485 899.882 177.684C899.294 178.884 898.8 180.506 898.401 182.553C898.001 184.599 897.801 186.868 897.801 189.361C897.801 191.854 898.001 194.112 898.401 196.134C898.8 198.157 899.283 199.792 899.847 201.038C900.411 202.285 900.988 203.296 901.576 204.072C902.164 204.848 902.657 205.471 903.057 205.942C903.457 206.412 903.657 206.659 903.657 206.683C903.657 206.894 903.481 207 903.128 207H903.022H902.563L901.576 206.153C899.365 204.154 897.754 201.661 896.743 198.674C895.731 195.688 895.226 192.583 895.226 189.361Z" fill="white"/>
</g>
<g id="Group_17">
<g id="Group_18">
<path id="Vector_15" d="M910.113 181.847C909.478 181.847 908.984 181.647 908.632 181.247C908.279 180.848 908.091 180.33 908.067 179.695C908.067 178.402 908.632 177.249 909.761 176.238C910.889 175.227 912.254 174.721 913.853 174.721C914.676 174.721 915.193 174.733 915.405 174.756C917.145 175.038 918.474 175.662 919.391 176.626C920.309 177.59 920.779 178.637 920.803 179.766C920.803 180.989 920.403 182.176 919.603 183.329C918.803 184.481 917.698 185.316 916.287 185.833L916.181 185.904C916.181 185.928 916.287 185.963 916.499 186.01C916.71 186.057 917.051 186.163 917.522 186.327C917.992 186.492 918.439 186.739 918.862 187.068C920.791 188.315 921.755 189.961 921.755 192.007C921.755 193.865 921.026 195.488 919.568 196.875C918.11 198.263 916.263 198.957 914.029 198.957C912.148 198.957 910.525 198.451 909.161 197.44C907.797 196.429 907.115 195.147 907.115 193.595C907.115 192.936 907.326 192.407 907.75 192.007C908.173 191.607 908.702 191.396 909.337 191.372C909.996 191.372 910.537 191.584 910.96 192.007C911.383 192.43 911.595 192.96 911.595 193.595C911.595 193.853 911.56 194.088 911.489 194.3C911.419 194.512 911.336 194.7 911.242 194.865C911.148 195.029 911.019 195.17 910.854 195.288C910.69 195.405 910.548 195.5 910.431 195.57C910.313 195.641 910.196 195.688 910.078 195.711C909.96 195.735 909.866 195.77 909.796 195.817L909.655 195.852C910.854 196.911 912.312 197.44 914.029 197.44C915.323 197.44 916.299 196.817 916.957 195.57C917.357 194.794 917.557 193.606 917.557 192.007V191.302C917.557 189.067 916.804 187.574 915.299 186.821C914.946 186.68 914.229 186.598 913.147 186.574L911.666 186.539L911.56 186.468C911.513 186.398 911.489 186.21 911.489 185.904C911.489 185.481 911.583 185.269 911.771 185.269C912.43 185.269 913.112 185.21 913.818 185.093C914.617 184.975 915.346 184.481 916.005 183.611C916.663 182.741 916.993 181.424 916.993 179.66V179.378C916.993 178.037 916.581 177.108 915.758 176.591C915.24 176.261 914.688 176.097 914.1 176.097C913.347 176.097 912.653 176.226 912.018 176.485C911.383 176.744 910.937 177.014 910.678 177.296C910.419 177.578 910.29 177.72 910.29 177.72H910.396C910.466 177.743 910.56 177.767 910.678 177.79C910.795 177.814 910.913 177.872 911.031 177.967C911.148 178.061 911.289 178.143 911.454 178.213C911.619 178.284 911.736 178.413 911.807 178.602C911.877 178.79 911.971 178.966 912.089 179.131C912.206 179.295 912.242 179.531 912.195 179.836C912.195 180.354 912.03 180.812 911.701 181.212C911.372 181.612 910.842 181.824 910.113 181.847Z" fill="white"/>
</g>
<g id="Group_19">
<path id="Vector_16" d="M925.99 172.911C925.541 172.911 925.184 172.761 924.918 172.462C924.652 172.163 924.519 171.797 924.519 171.365C924.519 170.184 924.959 169.162 925.84 168.297C926.722 167.432 927.819 167 929.133 167C930.646 167 931.91 167.466 932.924 168.397C933.938 169.328 934.454 170.533 934.47 172.013C934.47 172.728 934.304 173.41 933.971 174.058C933.639 174.707 933.24 175.272 932.774 175.754C932.309 176.237 931.643 176.852 930.779 177.6C930.18 178.116 929.349 178.88 928.285 179.895L926.813 181.291L928.709 181.316C931.319 181.316 932.708 181.275 932.874 181.192C932.99 181.158 933.19 180.418 933.473 178.972V178.897H934.47V178.972C934.454 179.022 934.345 179.778 934.146 181.242C933.946 182.705 933.822 183.47 933.772 183.536V183.611H924.519V183.137V182.838C924.519 182.721 924.568 182.597 924.668 182.464C924.768 182.331 925.017 182.04 925.416 181.591C925.899 181.059 926.314 180.593 926.664 180.194C926.813 180.028 927.096 179.72 927.512 179.271C927.927 178.822 928.21 178.515 928.36 178.348C928.509 178.182 928.75 177.908 929.083 177.525C929.415 177.143 929.648 176.86 929.781 176.677C929.914 176.494 930.105 176.245 930.355 175.929C930.604 175.613 930.779 175.347 930.879 175.131C930.978 174.915 931.103 174.674 931.253 174.408C931.402 174.142 931.51 173.876 931.577 173.609C931.643 173.343 931.702 173.094 931.752 172.861C931.801 172.628 931.826 172.354 931.826 172.038C931.826 170.991 931.544 170.084 930.978 169.32C930.413 168.555 929.607 168.172 928.559 168.172C928.01 168.172 927.528 168.314 927.112 168.596C926.697 168.879 926.406 169.153 926.24 169.419C926.073 169.685 925.99 169.843 925.99 169.893C925.99 169.91 926.032 169.918 926.115 169.918C926.414 169.918 926.722 170.035 927.038 170.267C927.354 170.5 927.512 170.883 927.512 171.415C927.512 171.83 927.378 172.18 927.112 172.462C926.846 172.745 926.472 172.894 925.99 172.911Z" fill="white"/>
</g>
</g>
<g id="Group_20">
<path id="Vector_17" d="M939.627 171.758L939.768 171.722C939.885 171.722 940.003 171.722 940.12 171.722H940.544L941.532 172.569C943.742 174.568 945.353 177.061 946.365 180.048C947.376 183.035 947.882 186.139 947.882 189.361C947.882 190.96 947.764 192.501 947.529 193.983C947.294 195.464 947.023 196.722 946.717 197.757C946.412 198.792 945.977 199.827 945.412 200.862C944.848 201.896 944.401 202.684 944.072 203.225C943.742 203.766 943.26 204.366 942.625 205.024C941.99 205.683 941.614 206.071 941.496 206.189C941.379 206.306 941.108 206.53 940.685 206.859C940.614 206.929 940.567 206.976 940.544 207H940.12C939.932 207 939.803 207 939.732 207C939.662 207 939.603 206.965 939.556 206.894C939.509 206.824 939.474 206.718 939.45 206.577C939.474 206.553 939.603 206.4 939.838 206.118C943.484 202.332 945.306 196.746 945.306 189.361C945.306 181.976 943.484 176.391 939.838 172.604C939.603 172.322 939.474 172.169 939.45 172.146C939.45 171.957 939.509 171.828 939.627 171.758Z" fill="white"/>
</g>
</g>
</g>
</g>
<g id="\Rightarrow\;T_n=2n^2\;&#10;T_{50}=2(50^2)=2(2500)=5000">
<g id="Group_21">
<g id="Group 171">
<g id="Group_22">
<path id="Vector_18" d="M491.485 288.048C491.485 287.79 491.674 287.66 492.05 287.66C492.168 287.66 492.262 287.66 492.332 287.66C492.403 287.66 492.462 287.66 492.509 287.66C492.556 287.66 492.603 287.672 492.65 287.696C492.697 287.719 492.72 287.731 492.72 287.731C492.72 287.731 492.744 287.766 492.791 287.837C492.838 287.907 492.861 287.943 492.861 287.943C492.861 287.943 492.897 288.001 492.967 288.119C493.837 289.859 494.99 291.4 496.424 292.74C497.859 294.081 499.164 295.033 500.34 295.598C501.516 296.162 502.645 296.597 503.727 296.903C504.127 297.021 504.327 297.174 504.327 297.362C504.327 297.55 504.221 297.679 504.009 297.75C503.797 297.82 503.362 297.95 502.704 298.138C502.045 298.326 501.363 298.608 500.658 298.985C497.271 300.631 494.708 303.171 492.967 306.605C492.873 306.816 492.791 306.934 492.72 306.957C492.65 306.981 492.473 307.004 492.191 307.028C491.721 307.028 491.485 306.946 491.485 306.781C491.485 306.687 491.544 306.487 491.662 306.181C492.485 304.558 493.496 303.112 494.696 301.842L495.049 301.489H473.494C473.165 301.325 473 301.089 473 300.784C473 300.431 473.188 300.196 473.564 300.078H496.601L496.954 299.796C497.871 299.09 499.247 298.279 501.081 297.362C501.057 297.338 500.846 297.232 500.446 297.044C500.046 296.856 499.517 296.574 498.859 296.198C498.2 295.821 497.565 295.398 496.954 294.928L496.601 294.645H473.564C473.188 294.528 473 294.293 473 293.94C473 293.634 473.165 293.399 473.494 293.234H495.049L494.696 292.881C493.92 292.058 493.191 291.106 492.509 290.024C491.827 288.942 491.485 288.284 491.485 288.048Z" fill="white"/>
</g>
<g id="Group_23">
<g id="Group_24">
<path id="Vector_19" d="M527.313 290.765C526.866 290.765 526.643 290.671 526.643 290.483C526.643 290.365 526.831 289.707 527.207 288.508C527.583 287.308 527.983 286.12 528.406 284.944L529.006 283.216C529.124 282.793 529.277 282.487 529.465 282.299H545.975H549.15C549.902 282.299 550.349 282.31 550.49 282.334C550.631 282.357 550.714 282.463 550.737 282.651C550.737 282.793 550.537 284.133 550.138 286.673C549.738 289.213 549.514 290.495 549.467 290.518C549.467 290.683 549.244 290.765 548.797 290.765C548.585 290.765 548.444 290.765 548.374 290.765C548.303 290.765 548.233 290.707 548.162 290.589L548.091 290.483C548.091 290.342 548.162 289.813 548.303 288.896C548.444 287.978 548.515 287.261 548.515 286.744C548.515 285.921 548.362 285.297 548.056 284.874C547.75 284.451 547.104 284.157 546.116 283.992C545.998 283.968 545.316 283.945 544.07 283.921C542.988 283.921 542.306 283.933 542.024 283.957C541.741 283.98 541.53 284.074 541.389 284.239C541.365 284.262 540.53 287.543 538.884 294.081C537.238 300.62 536.414 303.947 536.414 304.065C536.414 304.347 537.449 304.512 539.519 304.559C540.272 304.559 540.754 304.571 540.965 304.594C541.177 304.618 541.283 304.723 541.283 304.912C541.283 305.029 541.248 305.194 541.177 305.406C541.083 305.829 540.977 306.076 540.859 306.146L540.789 306.182C540.718 306.182 540.636 306.182 540.542 306.182C540.424 306.182 539.813 306.17 538.708 306.146C537.602 306.123 536.015 306.111 533.945 306.111C530.911 306.111 528.983 306.135 528.16 306.182H527.63C527.489 306.041 527.419 305.935 527.419 305.864C527.419 305.794 527.442 305.582 527.489 305.229C527.583 304.923 527.701 304.7 527.842 304.559H528.83H529.218C531.099 304.559 532.216 304.453 532.569 304.241C532.593 304.218 532.616 304.206 532.64 304.206C532.757 304.136 532.875 303.9 532.993 303.501C533.11 303.101 533.581 301.255 534.404 297.962C534.803 296.363 535.133 295.057 535.391 294.046C537.038 287.579 537.861 284.274 537.861 284.133C537.861 284.016 537.52 283.957 536.838 283.957H535.744C534.168 283.957 533.134 284.027 532.64 284.168C531.581 284.404 530.758 284.886 530.17 285.615C529.582 286.344 528.947 287.708 528.265 289.707C528.101 290.224 527.983 290.53 527.913 290.624C527.842 290.718 527.677 290.765 527.419 290.765H527.313Z" fill="white"/>
</g>
<g id="Group_25">
<path id="Vector_20" d="M547.028 304.315C547.045 304.215 547.07 304.082 547.103 303.916C547.136 303.749 547.236 303.434 547.402 302.968C547.569 302.502 547.735 302.112 547.901 301.796C548.068 301.48 548.342 301.172 548.724 300.873C549.107 300.574 549.489 300.432 549.872 300.449C550.47 300.449 550.969 300.599 551.368 300.898C551.767 301.197 552.017 301.48 552.116 301.746C552.216 302.012 552.266 302.186 552.266 302.27C552.266 302.303 552.274 302.32 552.291 302.32L552.565 302.045C553.58 300.981 554.735 300.449 556.032 300.449C556.93 300.449 557.653 300.673 558.202 301.122C558.751 301.571 559.033 302.228 559.05 303.093C559.067 303.957 558.751 305.263 558.102 307.008C557.454 308.754 557.138 309.81 557.154 310.176C557.154 310.608 557.296 310.824 557.578 310.824C557.678 310.824 557.753 310.816 557.803 310.8C558.285 310.716 558.717 310.4 559.1 309.852C559.482 309.303 559.773 308.638 559.973 307.856C560.006 307.723 560.172 307.657 560.472 307.657C560.804 307.657 560.971 307.723 560.971 307.856C560.971 307.873 560.937 307.998 560.871 308.231C560.738 308.713 560.555 309.187 560.322 309.652C560.089 310.118 559.707 310.583 559.175 311.049C558.643 311.515 558.069 311.739 557.454 311.722C556.672 311.722 556.107 311.498 555.758 311.049C555.409 310.6 555.234 310.134 555.234 309.652C555.234 309.336 555.533 308.339 556.132 306.659C556.73 304.98 557.038 303.716 557.055 302.868C557.055 301.887 556.689 301.397 555.957 301.397H555.833C554.403 301.397 553.197 302.236 552.216 303.916L552.042 304.215L551.218 307.557C550.67 309.735 550.354 310.908 550.271 311.074C550.055 311.523 549.697 311.747 549.198 311.747C548.982 311.747 548.807 311.697 548.674 311.598C548.541 311.498 548.45 311.398 548.4 311.298C548.35 311.199 548.334 311.115 548.35 311.049C548.35 310.833 548.666 309.478 549.298 306.984C549.93 304.489 550.262 303.134 550.296 302.918C550.312 302.835 550.321 302.644 550.321 302.344C550.321 301.696 550.121 301.372 549.722 301.372C549.09 301.372 548.566 302.203 548.151 303.866C548.051 304.198 548.001 304.373 548.001 304.39C547.968 304.489 547.81 304.539 547.527 304.539H547.178C547.078 304.44 547.028 304.365 547.028 304.315Z" fill="white"/>
</g>
</g>
<g id="Group_26">
<path id="Vector_21" d="M575.009 293.94C575.009 293.634 575.173 293.399 575.503 293.234H597.975C598.327 293.422 598.504 293.657 598.504 293.94C598.504 294.198 598.339 294.422 598.01 294.61L586.792 294.645H575.573C575.197 294.528 575.009 294.292 575.009 293.94ZM575.009 300.783C575.009 300.431 575.197 300.195 575.573 300.078H598.01C598.339 300.313 598.504 300.548 598.504 300.783C598.504 301.089 598.327 301.324 597.975 301.489H575.503C575.173 301.324 575.009 301.089 575.009 300.783Z" fill="white"/>
</g>
<g id="Group_27">
<path id="Vector_22" d="M614.124 291.047C613.489 291.047 612.983 290.835 612.607 290.412C612.231 289.988 612.042 289.471 612.042 288.859C612.042 287.19 612.666 285.743 613.912 284.52C615.159 283.297 616.711 282.686 618.569 282.686C620.709 282.686 622.496 283.344 623.931 284.661C625.366 285.978 626.095 287.683 626.118 289.777C626.118 290.788 625.883 291.752 625.413 292.669C624.942 293.587 624.378 294.386 623.719 295.068C623.061 295.75 622.12 296.62 620.897 297.679C620.051 298.408 618.875 299.49 617.369 300.924L615.288 302.9L617.969 302.935C621.662 302.935 623.625 302.876 623.86 302.759C624.025 302.712 624.307 301.665 624.707 299.619V299.513H626.118V299.619C626.095 299.69 625.942 300.76 625.66 302.829C625.377 304.899 625.201 305.981 625.13 306.075V306.181H612.042V305.51V305.087C612.042 304.922 612.113 304.746 612.254 304.558C612.395 304.37 612.748 303.958 613.312 303.323C613.995 302.571 614.582 301.912 615.076 301.348C615.288 301.112 615.688 300.677 616.276 300.042C616.864 299.407 617.264 298.972 617.475 298.737C617.687 298.502 618.028 298.114 618.498 297.573C618.969 297.032 619.298 296.632 619.486 296.373C619.674 296.115 619.945 295.762 620.297 295.315C620.65 294.868 620.897 294.492 621.038 294.186C621.179 293.881 621.356 293.54 621.567 293.163C621.779 292.787 621.932 292.411 622.026 292.034C622.12 291.658 622.202 291.305 622.273 290.976C622.344 290.647 622.379 290.259 622.379 289.812C622.379 288.33 621.979 287.048 621.179 285.967C620.38 284.885 619.239 284.344 617.757 284.344C616.981 284.344 616.299 284.544 615.711 284.944C615.123 285.343 614.712 285.731 614.477 286.108C614.241 286.484 614.124 286.707 614.124 286.778C614.124 286.801 614.183 286.813 614.3 286.813C614.724 286.813 615.159 286.978 615.606 287.307C616.052 287.636 616.276 288.177 616.276 288.93C616.276 289.518 616.088 290.012 615.711 290.412C615.335 290.811 614.806 291.023 614.124 291.047Z" fill="white"/>
</g>
<g id="Group_28">
<g id="Group_29">
<path id="Vector_23" d="M628.66 296.056C628.683 295.915 628.718 295.727 628.766 295.492C628.813 295.256 628.954 294.81 629.189 294.151C629.424 293.493 629.659 292.94 629.894 292.493C630.13 292.046 630.518 291.611 631.059 291.188C631.599 290.764 632.14 290.565 632.681 290.588C633.528 290.588 634.234 290.8 634.798 291.223C635.362 291.646 635.715 292.046 635.856 292.423C635.997 292.799 636.068 293.046 636.068 293.163C636.068 293.21 636.08 293.234 636.103 293.234L636.491 292.846C637.926 291.341 639.56 290.588 641.395 290.588C642.665 290.588 643.688 290.906 644.464 291.541C645.24 292.176 645.64 293.105 645.663 294.328C645.687 295.55 645.24 297.397 644.323 299.866C643.406 302.336 642.959 303.829 642.982 304.346C642.982 304.958 643.182 305.264 643.582 305.264C643.723 305.264 643.829 305.252 643.9 305.228C644.582 305.111 645.193 304.664 645.734 303.888C646.275 303.112 646.687 302.171 646.969 301.066C647.016 300.877 647.251 300.783 647.674 300.783C648.145 300.783 648.38 300.877 648.38 301.066C648.38 301.089 648.333 301.265 648.239 301.595C648.051 302.277 647.792 302.947 647.463 303.606C647.133 304.264 646.592 304.923 645.84 305.581C645.087 306.24 644.276 306.557 643.406 306.534C642.3 306.534 641.501 306.216 641.007 305.581C640.513 304.946 640.266 304.288 640.266 303.606C640.266 303.159 640.689 301.748 641.536 299.372C642.383 296.997 642.818 295.209 642.841 294.01C642.841 292.622 642.324 291.929 641.289 291.929H641.113C639.09 291.929 637.385 293.116 635.997 295.492L635.75 295.915L634.586 300.642C633.81 303.723 633.363 305.381 633.246 305.616C632.94 306.251 632.434 306.569 631.729 306.569C631.423 306.569 631.176 306.498 630.988 306.357C630.8 306.216 630.67 306.075 630.6 305.934C630.529 305.793 630.506 305.675 630.529 305.581C630.529 305.275 630.976 303.359 631.87 299.831C632.764 296.303 633.234 294.386 633.281 294.081C633.305 293.963 633.316 293.693 633.316 293.269C633.316 292.352 633.034 291.893 632.47 291.893C631.576 291.893 630.835 293.069 630.247 295.421C630.106 295.891 630.035 296.138 630.035 296.162C629.988 296.303 629.765 296.374 629.365 296.374H628.871C628.73 296.232 628.66 296.127 628.66 296.056Z" fill="white"/>
</g>
<g id="Group_30">
<path id="Vector_24" d="M651.804 280.911C651.355 280.911 650.997 280.761 650.731 280.462C650.465 280.163 650.332 279.797 650.332 279.365C650.332 278.184 650.773 277.162 651.654 276.297C652.535 275.432 653.633 275 654.946 275C656.459 275 657.723 275.466 658.737 276.397C659.752 277.328 660.267 278.533 660.284 280.013C660.284 280.728 660.117 281.41 659.785 282.058C659.452 282.707 659.053 283.272 658.588 283.754C658.122 284.237 657.457 284.852 656.592 285.6C655.994 286.115 655.162 286.88 654.098 287.895L652.627 289.291L654.522 289.316C657.133 289.316 658.521 289.275 658.687 289.192C658.804 289.158 659.003 288.418 659.286 286.972V286.897H660.284V286.972C660.267 287.022 660.159 287.778 659.959 289.241C659.76 290.705 659.635 291.47 659.585 291.536V291.611H650.332V291.137V290.838C650.332 290.721 650.382 290.597 650.482 290.464C650.581 290.331 650.831 290.04 651.23 289.591C651.712 289.059 652.128 288.593 652.477 288.194C652.627 288.028 652.909 287.72 653.325 287.271C653.741 286.822 654.023 286.515 654.173 286.348C654.323 286.182 654.564 285.908 654.896 285.525C655.229 285.143 655.462 284.86 655.595 284.677C655.728 284.494 655.919 284.245 656.168 283.929C656.418 283.613 656.592 283.347 656.692 283.131C656.792 282.915 656.917 282.674 657.066 282.407C657.216 282.141 657.324 281.875 657.39 281.609C657.457 281.343 657.515 281.094 657.565 280.861C657.615 280.628 657.64 280.354 657.64 280.038C657.64 278.991 657.357 278.084 656.792 277.319C656.226 276.555 655.42 276.172 654.373 276.172C653.824 276.172 653.342 276.314 652.926 276.596C652.51 276.879 652.219 277.153 652.053 277.419C651.887 277.685 651.804 277.843 651.804 277.893C651.804 277.91 651.845 277.918 651.928 277.918C652.228 277.918 652.535 278.034 652.851 278.267C653.167 278.5 653.325 278.882 653.325 279.415C653.325 279.83 653.192 280.179 652.926 280.462C652.66 280.745 652.286 280.894 651.804 280.911Z" fill="white"/>
</g>
</g>
</g>
<g id="Group 172">
<g id="Group_31">
<g id="Group_32">
<path id="Vector_25" d="M489.67 356.764C489.223 356.764 489 356.67 489 356.482C489 356.364 489.188 355.706 489.564 354.506C489.941 353.307 490.341 352.119 490.764 350.943L491.364 349.215C491.481 348.791 491.634 348.486 491.822 348.297H508.332H511.507C512.26 348.297 512.707 348.309 512.848 348.333C512.989 348.356 513.071 348.462 513.095 348.65C513.095 348.791 512.895 350.132 512.495 352.672C512.095 355.212 511.872 356.494 511.825 356.517C511.825 356.682 511.601 356.764 511.154 356.764C510.943 356.764 510.802 356.764 510.731 356.764C510.66 356.764 510.59 356.705 510.519 356.588L510.449 356.482C510.449 356.341 510.519 355.812 510.66 354.894C510.802 353.977 510.872 353.26 510.872 352.742C510.872 351.919 510.719 351.296 510.414 350.873C510.108 350.449 509.461 350.155 508.473 349.991C508.356 349.967 507.674 349.944 506.427 349.92C505.345 349.92 504.663 349.932 504.381 349.955C504.099 349.979 503.887 350.073 503.746 350.238C503.723 350.261 502.888 353.542 501.241 360.08C499.595 366.618 498.772 369.946 498.772 370.064C498.772 370.346 499.807 370.511 501.876 370.558C502.629 370.558 503.111 370.569 503.323 370.593C503.534 370.616 503.64 370.722 503.64 370.91C503.64 371.028 503.605 371.193 503.534 371.404C503.44 371.828 503.334 372.075 503.217 372.145L503.146 372.18C503.076 372.18 502.993 372.18 502.899 372.18C502.782 372.18 502.17 372.169 501.065 372.145C499.96 372.122 498.372 372.11 496.302 372.11C493.269 372.11 491.34 372.133 490.517 372.18H489.988C489.847 372.039 489.776 371.933 489.776 371.863C489.776 371.792 489.8 371.581 489.847 371.228C489.941 370.922 490.058 370.699 490.199 370.558H491.187H491.575C493.457 370.558 494.574 370.452 494.927 370.24C494.95 370.217 494.974 370.205 494.997 370.205C495.115 370.134 495.232 369.899 495.35 369.499C495.468 369.1 495.938 367.253 496.761 363.961C497.161 362.361 497.49 361.056 497.749 360.045C499.395 353.577 500.218 350.273 500.218 350.132C500.218 350.014 499.877 349.955 499.195 349.955H498.102C496.526 349.955 495.491 350.026 494.997 350.167C493.939 350.402 493.116 350.884 492.528 351.614C491.94 352.343 491.305 353.707 490.623 355.706C490.458 356.223 490.341 356.529 490.27 356.623C490.199 356.717 490.035 356.764 489.776 356.764H489.67Z" fill="white"/>
</g>
<g id="Group_33">
<g id="Group_34">
<path id="Vector_26" d="M512.952 373.557C512.952 373.956 512.819 374.288 512.553 374.554C512.287 374.82 511.962 374.953 511.58 374.953H511.405C512.17 376.267 513.184 376.924 514.448 376.924C515.612 376.924 516.46 376.425 516.992 375.427C517.308 374.878 517.466 373.814 517.466 372.235C517.466 370.522 517.242 369.366 516.793 368.768C516.36 368.219 515.878 367.945 515.346 367.945H515.196C513.899 367.945 512.918 368.51 512.253 369.641C512.187 369.757 512.129 369.824 512.079 369.84C512.029 369.857 511.904 369.874 511.705 369.89C511.422 369.89 511.264 369.84 511.231 369.74C511.198 369.674 511.181 368.219 511.181 365.376V362.158C511.181 361.327 511.222 360.911 511.306 360.911C511.339 360.878 511.372 360.861 511.405 360.861C511.422 360.861 511.597 360.928 511.929 361.061C512.262 361.194 512.719 361.327 513.301 361.46C513.883 361.593 514.506 361.659 515.171 361.659C516.352 361.659 517.483 361.427 518.564 360.961C518.697 360.895 518.805 360.861 518.888 360.861C519.021 360.861 519.087 361.011 519.087 361.31V361.635C517.724 363.247 516.019 364.054 513.974 364.054C513.459 364.054 512.993 364.004 512.578 363.904L512.328 363.854V368.144C512.644 367.911 512.894 367.729 513.076 367.596C513.259 367.463 513.559 367.329 513.974 367.196C514.39 367.063 514.814 366.997 515.246 366.997C516.593 366.997 517.732 367.537 518.663 368.618C519.594 369.699 520.06 370.979 520.06 372.459C520.06 373.989 519.528 375.294 518.464 376.375C517.4 377.456 516.103 378.004 514.573 378.021C513.226 378.021 512.145 377.572 511.331 376.674C510.516 375.776 510.108 374.762 510.108 373.631C510.108 373.232 510.2 372.916 510.383 372.684C510.566 372.451 510.757 372.301 510.956 372.235C511.156 372.168 511.347 372.135 511.53 372.135C511.946 372.135 512.287 372.276 512.553 372.559C512.819 372.842 512.952 373.174 512.952 373.557Z" fill="white"/>
<path id="Vector_27" d="M523.726 362.882C524.657 361.535 525.929 360.861 527.542 360.861C528.34 360.861 529.138 361.078 529.936 361.51C530.734 361.942 531.383 362.707 531.882 363.804C532.497 365.185 532.804 367.08 532.804 369.491C532.804 372.068 532.447 374.039 531.732 375.402C531.399 376.101 530.942 376.658 530.36 377.073C529.778 377.489 529.271 377.747 528.839 377.846C528.407 377.946 527.983 378.004 527.567 378.021C527.134 378.021 526.702 377.971 526.27 377.871C525.838 377.772 525.33 377.506 524.748 377.073C524.166 376.641 523.709 376.084 523.377 375.402C522.662 374.039 522.304 372.068 522.304 369.491C522.304 366.598 522.778 364.395 523.726 362.882ZM529.338 362.582C528.839 362.05 528.249 361.784 527.567 361.784C526.868 361.784 526.27 362.05 525.771 362.582C525.355 363.015 525.081 363.613 524.948 364.378C524.815 365.143 524.748 366.739 524.748 369.167C524.748 371.794 524.815 373.523 524.948 374.355C525.081 375.186 525.38 375.843 525.846 376.325C526.311 376.824 526.885 377.073 527.567 377.073C528.232 377.073 528.797 376.824 529.263 376.325C529.745 375.826 530.044 375.128 530.161 374.23C530.277 373.332 530.344 371.644 530.36 369.167C530.36 366.756 530.294 365.168 530.161 364.403C530.028 363.638 529.753 363.031 529.338 362.582Z" fill="white"/>
</g>
</g>
</g>
<g id="Group_35">
<path id="Vector_28" d="M547.346 359.939C547.346 359.634 547.51 359.398 547.84 359.234H570.311C570.664 359.422 570.841 359.657 570.841 359.939C570.841 360.198 570.676 360.421 570.347 360.61L559.128 360.645H547.91C547.534 360.527 547.346 360.292 547.346 359.939ZM547.346 366.783C547.346 366.43 547.534 366.195 547.91 366.078H570.347C570.676 366.313 570.841 366.548 570.841 366.783C570.841 367.089 570.664 367.324 570.311 367.489H547.84C547.51 367.324 547.346 367.089 547.346 366.783Z" fill="white"/>
</g>
<g id="Group_36">
<path id="Vector_29" d="M586.461 357.046C585.826 357.046 585.321 356.835 584.944 356.411C584.568 355.988 584.38 355.471 584.38 354.859C584.38 353.189 585.003 351.743 586.25 350.52C587.496 349.297 589.048 348.686 590.906 348.686C593.046 348.686 594.834 349.344 596.268 350.661C597.703 351.978 598.432 353.683 598.456 355.776C598.456 356.788 598.22 357.752 597.75 358.669C597.28 359.586 596.715 360.386 596.057 361.068C595.398 361.75 594.458 362.62 593.235 363.679C592.388 364.408 591.212 365.489 589.707 366.924L587.625 368.9L590.307 368.935C593.999 368.935 595.963 368.876 596.198 368.758C596.363 368.711 596.645 367.665 597.045 365.619V365.513H598.456V365.619C598.432 365.689 598.279 366.759 597.997 368.829C597.715 370.899 597.538 371.981 597.468 372.075V372.18H584.38V371.51V371.087C584.38 370.922 584.45 370.746 584.592 370.558C584.733 370.37 585.085 369.958 585.65 369.323C586.332 368.57 586.92 367.912 587.414 367.347C587.625 367.112 588.025 366.677 588.613 366.042C589.201 365.407 589.601 364.972 589.813 364.737C590.024 364.502 590.365 364.114 590.836 363.573C591.306 363.032 591.635 362.632 591.823 362.373C592.012 362.115 592.282 361.762 592.635 361.315C592.988 360.868 593.235 360.492 593.376 360.186C593.517 359.88 593.693 359.539 593.905 359.163C594.117 358.787 594.269 358.41 594.363 358.034C594.458 357.658 594.54 357.305 594.61 356.976C594.681 356.646 594.716 356.258 594.716 355.812C594.716 354.33 594.316 353.048 593.517 351.966C592.717 350.884 591.577 350.344 590.095 350.344C589.319 350.344 588.637 350.543 588.049 350.943C587.461 351.343 587.049 351.731 586.814 352.107C586.579 352.484 586.461 352.707 586.461 352.778C586.461 352.801 586.52 352.813 586.638 352.813C587.061 352.813 587.496 352.978 587.943 353.307C588.39 353.636 588.613 354.177 588.613 354.93C588.613 355.518 588.425 356.011 588.049 356.411C587.672 356.811 587.143 357.023 586.461 357.046Z" fill="white"/>
</g>
<g id="Group_37">
<path id="Vector_30" d="M603.572 363.361C603.572 361.739 603.689 360.198 603.925 358.74C604.16 357.282 604.43 356.024 604.736 354.965C605.042 353.907 605.477 352.872 606.041 351.861C606.606 350.85 607.053 350.062 607.382 349.497C607.711 348.933 608.205 348.321 608.863 347.663C609.522 347.004 609.91 346.605 610.028 346.463C610.145 346.322 610.439 346.075 610.91 345.723H611.368H611.509C611.839 345.723 612.003 345.828 612.003 346.04C612.003 346.111 611.803 346.358 611.403 346.781C611.004 347.204 610.521 347.827 609.957 348.651C609.393 349.474 608.816 350.485 608.228 351.685C607.64 352.884 607.147 354.507 606.747 356.553C606.347 358.599 606.147 360.868 606.147 363.361C606.147 365.854 606.347 368.112 606.747 370.135C607.147 372.157 607.629 373.792 608.193 375.038C608.758 376.285 609.334 377.296 609.922 378.072C610.51 378.848 611.004 379.472 611.403 379.942C611.803 380.412 612.003 380.659 612.003 380.683C612.003 380.894 611.827 381 611.474 381H611.368H610.91L609.922 380.154C607.711 378.155 606.1 375.662 605.089 372.675C604.077 369.688 603.572 366.583 603.572 363.361Z" fill="white"/>
</g>
<g id="Group_38">
<g id="Group_39">
<path id="Vector_31" d="M619.764 366.642C619.764 367.206 619.576 367.677 619.199 368.053C618.823 368.429 618.364 368.617 617.824 368.617H617.577C618.658 370.475 620.093 371.404 621.881 371.404C623.527 371.404 624.726 370.699 625.479 369.288C625.926 368.512 626.149 367.006 626.149 364.772C626.149 362.35 625.832 360.715 625.197 359.869C624.585 359.092 623.903 358.704 623.15 358.704H622.939C621.104 358.704 619.717 359.504 618.776 361.103C618.682 361.268 618.6 361.362 618.529 361.385C618.459 361.409 618.282 361.433 618 361.456C617.6 361.456 617.377 361.385 617.33 361.244C617.283 361.15 617.259 359.092 617.259 355.071V350.52C617.259 349.344 617.318 348.756 617.436 348.756C617.483 348.709 617.53 348.686 617.577 348.686C617.6 348.686 617.847 348.78 618.317 348.968C618.788 349.156 619.435 349.344 620.258 349.532C621.081 349.72 621.963 349.814 622.904 349.814C624.573 349.814 626.173 349.485 627.701 348.827C627.889 348.733 628.042 348.686 628.16 348.686C628.348 348.686 628.442 348.897 628.442 349.321V349.779C626.514 352.06 624.103 353.201 621.21 353.201C620.481 353.201 619.823 353.13 619.235 352.989L618.882 352.919V358.987C619.329 358.657 619.682 358.399 619.94 358.21C620.199 358.022 620.622 357.834 621.21 357.646C621.798 357.458 622.398 357.364 623.009 357.364C624.914 357.364 626.525 358.128 627.842 359.657C629.159 361.186 629.818 362.996 629.818 365.09C629.818 367.253 629.065 369.1 627.56 370.628C626.055 372.157 624.221 372.933 622.057 372.957C620.152 372.957 618.623 372.322 617.471 371.052C616.318 369.782 615.742 368.347 615.742 366.748C615.742 366.183 615.872 365.736 616.13 365.407C616.389 365.078 616.659 364.866 616.942 364.772C617.224 364.678 617.494 364.631 617.753 364.631C618.341 364.631 618.823 364.831 619.199 365.231C619.576 365.631 619.764 366.101 619.764 366.642Z" fill="white"/>
<path id="Vector_32" d="M635.004 351.543C636.322 349.638 638.121 348.686 640.402 348.686C641.531 348.686 642.66 348.991 643.789 349.603C644.918 350.214 645.835 351.296 646.54 352.849C647.41 354.801 647.846 357.482 647.846 360.892C647.846 364.537 647.34 367.324 646.329 369.253C645.858 370.24 645.211 371.028 644.388 371.616C643.565 372.204 642.848 372.569 642.236 372.71C641.625 372.851 641.025 372.933 640.437 372.957C639.826 372.957 639.214 372.886 638.603 372.745C637.991 372.604 637.274 372.228 636.451 371.616C635.628 371.005 634.981 370.217 634.511 369.253C633.499 367.324 632.994 364.537 632.994 360.892C632.994 356.8 633.664 353.683 635.004 351.543ZM642.942 351.12C642.236 350.367 641.401 349.991 640.437 349.991C639.449 349.991 638.603 350.367 637.897 351.12C637.309 351.731 636.921 352.578 636.733 353.66C636.545 354.742 636.451 357 636.451 360.433C636.451 364.149 636.545 366.595 636.733 367.771C636.921 368.947 637.345 369.876 638.003 370.558C638.662 371.263 639.473 371.616 640.437 371.616C641.378 371.616 642.178 371.263 642.836 370.558C643.518 369.852 643.941 368.865 644.106 367.595C644.271 366.325 644.365 363.937 644.388 360.433C644.388 357.023 644.294 354.777 644.106 353.695C643.918 352.613 643.53 351.755 642.942 351.12Z" fill="white"/>
</g>
<g id="Group_40">
<path id="Vector_33" d="M651.974 346.911C651.525 346.911 651.168 346.761 650.902 346.462C650.635 346.163 650.502 345.797 650.502 345.365C650.502 344.184 650.943 343.162 651.824 342.297C652.706 341.432 653.803 341 655.117 341C656.63 341 657.893 341.466 658.908 342.397C659.922 343.328 660.437 344.533 660.454 346.013C660.454 346.728 660.288 347.41 659.955 348.058C659.623 348.707 659.224 349.272 658.758 349.754C658.292 350.237 657.627 350.852 656.763 351.6C656.164 352.115 655.333 352.88 654.269 353.895L652.797 355.291L654.693 355.316C657.303 355.316 658.692 355.275 658.858 355.192C658.974 355.158 659.174 354.418 659.456 352.972V352.897H660.454V352.972C660.437 353.022 660.329 353.778 660.13 355.241C659.93 356.705 659.806 357.47 659.756 357.536V357.611H650.502V357.137V356.838C650.502 356.721 650.552 356.597 650.652 356.464C650.752 356.331 651.001 356.04 651.4 355.591C651.883 355.059 652.298 354.593 652.647 354.194C652.797 354.028 653.08 353.72 653.495 353.271C653.911 352.822 654.194 352.515 654.343 352.348C654.493 352.182 654.734 351.908 655.067 351.525C655.399 351.143 655.632 350.86 655.765 350.677C655.898 350.494 656.089 350.245 656.339 349.929C656.588 349.613 656.763 349.347 656.862 349.131C656.962 348.915 657.087 348.674 657.237 348.407C657.386 348.141 657.494 347.875 657.561 347.609C657.627 347.343 657.686 347.094 657.735 346.861C657.785 346.628 657.81 346.354 657.81 346.038C657.81 344.991 657.528 344.084 656.962 343.319C656.397 342.555 655.59 342.172 654.543 342.172C653.994 342.172 653.512 342.314 653.096 342.596C652.681 342.879 652.39 343.153 652.223 343.419C652.057 343.685 651.974 343.843 651.974 343.893C651.974 343.91 652.016 343.918 652.099 343.918C652.398 343.918 652.706 344.034 653.022 344.267C653.337 344.5 653.495 344.882 653.495 345.415C653.495 345.83 653.362 346.179 653.096 346.462C652.83 346.745 652.456 346.894 651.974 346.911Z" fill="white"/>
</g>
</g>
<g id="Group_41">
<path id="Vector_34" d="M665.607 345.758L665.748 345.723C665.865 345.723 665.983 345.723 666.1 345.723H666.524L667.512 346.569C669.722 348.568 671.333 351.061 672.345 354.048C673.356 357.035 673.862 360.139 673.862 363.361C673.862 364.961 673.744 366.501 673.509 367.983C673.274 369.464 673.003 370.723 672.697 371.757C672.392 372.792 671.957 373.827 671.392 374.862C670.828 375.897 670.381 376.685 670.052 377.226C669.722 377.766 669.24 378.366 668.605 379.025C667.97 379.683 667.594 380.071 667.476 380.189C667.359 380.306 667.088 380.53 666.665 380.859C666.594 380.93 666.547 380.977 666.524 381H666.1C665.912 381 665.783 381 665.712 381C665.642 381 665.583 380.965 665.536 380.894C665.489 380.824 665.454 380.718 665.43 380.577C665.454 380.553 665.583 380.401 665.818 380.118C669.464 376.332 671.286 370.746 671.286 363.361C671.286 355.977 669.464 350.391 665.818 346.605C665.583 346.322 665.454 346.169 665.43 346.146C665.43 345.958 665.489 345.828 665.607 345.758Z" fill="white"/>
</g>
</g>
<g id="Group 173">
<g id="Group_42">
<path id="Vector_35" d="M465 424.217C465 423.911 465.165 423.676 465.494 423.511H487.966C488.319 423.699 488.495 423.934 488.495 424.217C488.495 424.475 488.33 424.699 488.001 424.887L476.783 424.922H465.564C465.188 424.805 465 424.569 465 424.217ZM465 431.061C465 430.708 465.188 430.473 465.564 430.355H488.001C488.33 430.59 488.495 430.825 488.495 431.061C488.495 431.366 488.319 431.601 487.966 431.766H465.494C465.165 431.601 465 431.366 465 431.061Z" fill="white"/>
</g>
<g id="Group_43">
<path id="Vector_36" d="M504.115 421.324C503.48 421.324 502.974 421.112 502.598 420.689C502.222 420.265 502.034 419.748 502.034 419.136C502.034 417.467 502.657 416.02 503.903 414.797C505.15 413.574 506.702 412.963 508.56 412.963C510.7 412.963 512.488 413.621 513.922 414.938C515.357 416.255 516.086 417.961 516.109 420.054C516.109 421.065 515.874 422.029 515.404 422.946C514.934 423.864 514.369 424.663 513.711 425.345C513.052 426.027 512.111 426.898 510.888 427.956C510.042 428.685 508.866 429.767 507.361 431.201L505.279 433.177L507.96 433.212C511.653 433.212 513.617 433.153 513.852 433.036C514.016 432.989 514.299 431.942 514.698 429.896V429.79H516.109V429.896C516.086 429.967 515.933 431.037 515.651 433.106C515.369 435.176 515.192 436.258 515.122 436.352V436.458H502.034V435.787V435.364C502.034 435.2 502.104 435.023 502.245 434.835C502.386 434.647 502.739 434.235 503.304 433.6C503.986 432.848 504.574 432.189 505.068 431.625C505.279 431.39 505.679 430.954 506.267 430.319C506.855 429.684 507.255 429.249 507.466 429.014C507.678 428.779 508.019 428.391 508.49 427.85C508.96 427.309 509.289 426.909 509.477 426.651C509.665 426.392 509.936 426.039 510.289 425.592C510.641 425.145 510.888 424.769 511.029 424.463C511.171 424.158 511.347 423.817 511.559 423.44C511.77 423.064 511.923 422.688 512.017 422.311C512.111 421.935 512.194 421.582 512.264 421.253C512.335 420.924 512.37 420.536 512.37 420.089C512.37 418.607 511.97 417.326 511.171 416.244C510.371 415.162 509.23 414.621 507.749 414.621C506.973 414.621 506.291 414.821 505.703 415.221C505.115 415.62 504.703 416.008 504.468 416.385C504.233 416.761 504.115 416.984 504.115 417.055C504.115 417.079 504.174 417.09 504.291 417.09C504.715 417.09 505.15 417.255 505.597 417.584C506.044 417.913 506.267 418.454 506.267 419.207C506.267 419.795 506.079 420.289 505.703 420.689C505.326 421.088 504.797 421.3 504.115 421.324Z" fill="white"/>
</g>
<g id="Group_44">
<path id="Vector_37" d="M521.224 427.639C521.224 426.016 521.342 424.476 521.577 423.017C521.812 421.559 522.083 420.301 522.388 419.243C522.694 418.184 523.129 417.15 523.694 416.138C524.258 415.127 524.705 414.339 525.034 413.775C525.363 413.21 525.857 412.599 526.516 411.94C527.174 411.282 527.562 410.882 527.68 410.741C527.798 410.6 528.092 410.353 528.562 410H529.02H529.162C529.491 410 529.655 410.106 529.655 410.317C529.655 410.388 529.456 410.635 529.056 411.058C528.656 411.482 528.174 412.105 527.609 412.928C527.045 413.751 526.469 414.762 525.881 415.962C525.293 417.161 524.799 418.784 524.399 420.83C523.999 422.876 523.799 425.146 523.799 427.639C523.799 430.132 523.999 432.389 524.399 434.412C524.799 436.435 525.281 438.069 525.845 439.316C526.41 440.562 526.986 441.573 527.574 442.35C528.162 443.126 528.656 443.749 529.056 444.219C529.456 444.69 529.655 444.937 529.655 444.96C529.655 445.172 529.479 445.278 529.126 445.278H529.02H528.562L527.574 444.431C525.363 442.432 523.752 439.939 522.741 436.952C521.73 433.965 521.224 430.861 521.224 427.639Z" fill="white"/>
</g>
<g id="Group_45">
<path id="Vector_38" d="M535.477 421.324C534.842 421.324 534.337 421.112 533.96 420.689C533.584 420.266 533.396 419.748 533.396 419.137C533.396 417.467 534.019 416.02 535.266 414.798C536.512 413.575 538.064 412.963 539.922 412.963C542.063 412.963 543.85 413.622 545.285 414.939C546.719 416.256 547.448 417.961 547.472 420.054C547.472 421.065 547.237 422.029 546.766 422.947C546.296 423.864 545.731 424.664 545.073 425.346C544.414 426.028 543.474 426.898 542.251 427.956C541.404 428.685 540.228 429.767 538.723 431.202L536.642 433.177L539.323 433.212C543.015 433.212 544.979 433.154 545.214 433.036C545.379 432.989 545.661 431.942 546.061 429.896V429.791H547.472V429.896C547.448 429.967 547.295 431.037 547.013 433.107C546.731 435.176 546.555 436.258 546.484 436.352V436.458H533.396V435.788V435.364C533.396 435.2 533.467 435.023 533.608 434.835C533.749 434.647 534.102 434.236 534.666 433.601C535.348 432.848 535.936 432.189 536.43 431.625C536.642 431.39 537.041 430.955 537.629 430.32C538.217 429.685 538.617 429.25 538.829 429.014C539.04 428.779 539.381 428.391 539.852 427.85C540.322 427.309 540.651 426.91 540.84 426.651C541.028 426.392 541.298 426.039 541.651 425.592C542.004 425.146 542.251 424.769 542.392 424.464C542.533 424.158 542.709 423.817 542.921 423.441C543.133 423.064 543.286 422.688 543.38 422.312C543.474 421.935 543.556 421.583 543.627 421.253C543.697 420.924 543.732 420.536 543.732 420.089C543.732 418.608 543.333 417.326 542.533 416.244C541.733 415.162 540.593 414.621 539.111 414.621C538.335 414.621 537.653 414.821 537.065 415.221C536.477 415.621 536.065 416.009 535.83 416.385C535.595 416.761 535.477 416.985 535.477 417.055C535.477 417.079 535.536 417.091 535.654 417.091C536.077 417.091 536.512 417.255 536.959 417.584C537.406 417.914 537.629 418.455 537.629 419.207C537.629 419.795 537.441 420.289 537.065 420.689C536.689 421.089 536.159 421.3 535.477 421.324Z" fill="white"/>
<path id="Vector_39" d="M555.056 430.919C555.056 431.484 554.868 431.954 554.491 432.331C554.115 432.707 553.656 432.895 553.116 432.895H552.869C553.95 434.753 555.385 435.682 557.172 435.682C558.819 435.682 560.018 434.976 560.771 433.565C561.218 432.789 561.441 431.284 561.441 429.05C561.441 426.627 561.124 424.993 560.489 424.146C559.877 423.37 559.195 422.982 558.442 422.982H558.231C556.396 422.982 555.009 423.782 554.068 425.381C553.974 425.545 553.892 425.64 553.821 425.663C553.751 425.687 553.574 425.71 553.292 425.734C552.892 425.734 552.669 425.663 552.622 425.522C552.575 425.428 552.551 423.37 552.551 419.348V414.798C552.551 413.622 552.61 413.034 552.728 413.034C552.775 412.987 552.822 412.963 552.869 412.963C552.892 412.963 553.139 413.057 553.609 413.245C554.08 413.433 554.727 413.622 555.55 413.81C556.373 413.998 557.255 414.092 558.196 414.092C559.865 414.092 561.465 413.763 562.993 413.104C563.181 413.01 563.334 412.963 563.452 412.963C563.64 412.963 563.734 413.175 563.734 413.598V414.057C561.806 416.338 559.395 417.479 556.502 417.479C555.773 417.479 555.115 417.408 554.527 417.267L554.174 417.196V423.264C554.621 422.935 554.974 422.676 555.232 422.488C555.491 422.3 555.914 422.112 556.502 421.924C557.09 421.735 557.69 421.641 558.301 421.641C560.206 421.641 561.817 422.406 563.134 423.934C564.451 425.463 565.11 427.274 565.11 429.367C565.11 431.531 564.357 433.377 562.852 434.906C561.347 436.435 559.513 437.211 557.349 437.234C555.444 437.234 553.915 436.599 552.763 435.329C551.61 434.059 551.034 432.625 551.034 431.025C551.034 430.461 551.164 430.014 551.422 429.685C551.681 429.355 551.951 429.144 552.234 429.05C552.516 428.956 552.786 428.909 553.045 428.909C553.633 428.909 554.115 429.109 554.491 429.508C554.868 429.908 555.056 430.379 555.056 430.919Z" fill="white"/>
<path id="Vector_40" d="M570.296 415.821C571.614 413.916 573.413 412.963 575.694 412.963C576.823 412.963 577.952 413.269 579.081 413.88C580.209 414.492 581.127 415.574 581.832 417.126C582.702 419.078 583.138 421.759 583.138 425.169C583.138 428.815 582.632 431.601 581.621 433.53C581.15 434.518 580.503 435.306 579.68 435.894C578.857 436.482 578.14 436.846 577.528 436.987C576.917 437.128 576.317 437.211 575.729 437.234C575.118 437.234 574.506 437.164 573.895 437.022C573.283 436.881 572.566 436.505 571.743 435.894C570.92 435.282 570.273 434.494 569.803 433.53C568.791 431.601 568.286 428.815 568.286 425.169C568.286 421.077 568.956 417.961 570.296 415.821ZM578.234 415.397C577.528 414.645 576.693 414.268 575.729 414.268C574.741 414.268 573.895 414.645 573.189 415.397C572.601 416.009 572.213 416.855 572.025 417.937C571.837 419.019 571.743 421.277 571.743 424.711C571.743 428.426 571.837 430.872 572.025 432.048C572.213 433.224 572.637 434.153 573.295 434.835C573.954 435.541 574.765 435.894 575.729 435.894C576.67 435.894 577.47 435.541 578.128 434.835C578.81 434.13 579.233 433.142 579.398 431.872C579.563 430.602 579.657 428.215 579.68 424.711C579.68 421.3 579.586 419.054 579.398 417.973C579.21 416.891 578.822 416.032 578.234 415.397Z" fill="white"/>
<path id="Vector_41" d="M587.936 415.821C589.253 413.916 591.052 412.963 593.334 412.963C594.462 412.963 595.591 413.269 596.72 413.88C597.849 414.492 598.766 415.574 599.472 417.126C600.342 419.078 600.777 421.759 600.777 425.169C600.777 428.815 600.272 431.601 599.26 433.53C598.79 434.518 598.143 435.306 597.32 435.894C596.497 436.482 595.78 436.846 595.168 436.987C594.557 437.128 593.957 437.211 593.369 437.234C592.757 437.234 592.146 437.164 591.534 437.022C590.923 436.881 590.206 436.505 589.383 435.894C588.559 435.282 587.913 434.494 587.442 433.53C586.431 431.601 585.925 428.815 585.925 425.169C585.925 421.077 586.596 417.961 587.936 415.821ZM595.874 415.397C595.168 414.645 594.333 414.268 593.369 414.268C592.381 414.268 591.534 414.645 590.829 415.397C590.241 416.009 589.853 416.855 589.665 417.937C589.477 419.019 589.383 421.277 589.383 424.711C589.383 428.426 589.477 430.872 589.665 432.048C589.853 433.224 590.276 434.153 590.935 434.835C591.593 435.541 592.405 435.894 593.369 435.894C594.31 435.894 595.109 435.541 595.768 434.835C596.45 434.13 596.873 433.142 597.038 431.872C597.202 430.602 597.296 428.215 597.32 424.711C597.32 421.3 597.226 419.054 597.038 417.973C596.85 416.891 596.462 416.032 595.874 415.397Z" fill="white"/>
</g>
<g id="Group_46">
<path id="Vector_42" d="M604.304 410.035L604.445 410C604.563 410 604.68 410 604.798 410H605.221L606.209 410.847C608.42 412.846 610.031 415.339 611.042 418.325C612.053 421.312 612.559 424.417 612.559 427.639C612.559 429.238 612.441 430.778 612.206 432.26C611.971 433.742 611.7 435 611.395 436.035C611.089 437.07 610.654 438.104 610.089 439.139C609.525 440.174 609.078 440.962 608.749 441.503C608.42 442.044 607.937 442.644 607.302 443.302C606.667 443.961 606.291 444.349 606.174 444.466C606.056 444.584 605.785 444.807 605.362 445.136C605.292 445.207 605.245 445.254 605.221 445.278H604.798C604.61 445.278 604.48 445.278 604.41 445.278C604.339 445.278 604.28 445.242 604.233 445.172C604.186 445.101 604.151 444.995 604.127 444.854C604.151 444.831 604.28 444.678 604.515 444.396C608.161 440.609 609.984 435.024 609.984 427.639C609.984 420.254 608.161 414.668 604.515 410.882C604.28 410.6 604.151 410.447 604.127 410.423C604.127 410.235 604.186 410.106 604.304 410.035Z" fill="white"/>
</g>
<g id="Group_47">
<path id="Vector_43" d="M627.687 424.217C627.687 423.911 627.851 423.676 628.18 423.511H650.652C651.005 423.699 651.181 423.934 651.181 424.217C651.181 424.475 651.017 424.699 650.688 424.887L639.469 424.922H628.251C627.875 424.805 627.687 424.569 627.687 424.217ZM627.687 431.061C627.687 430.708 627.875 430.473 628.251 430.355H650.688C651.017 430.59 651.181 430.825 651.181 431.061C651.181 431.366 651.005 431.601 650.652 431.766H628.18C627.851 431.601 627.687 431.366 627.687 431.061Z" fill="white"/>
</g>
<g id="Group_48">
<path id="Vector_44" d="M668.738 430.919C668.738 431.484 668.55 431.954 668.174 432.33C667.798 432.707 667.339 432.895 666.798 432.895H666.551C667.633 434.753 669.068 435.682 670.855 435.682C672.501 435.682 673.701 434.976 674.453 433.565C674.9 432.789 675.124 431.284 675.124 429.049C675.124 426.627 674.806 424.993 674.171 424.146C673.56 423.37 672.878 422.982 672.125 422.982H671.913C670.079 422.982 668.691 423.781 667.751 425.381C667.657 425.545 667.574 425.639 667.504 425.663C667.433 425.686 667.257 425.71 666.975 425.733C666.575 425.733 666.351 425.663 666.304 425.522C666.257 425.428 666.234 423.37 666.234 419.348V414.797C666.234 413.621 666.293 413.033 666.41 413.033C666.457 412.986 666.504 412.963 666.551 412.963C666.575 412.963 666.822 413.057 667.292 413.245C667.762 413.433 668.409 413.621 669.232 413.81C670.055 413.998 670.937 414.092 671.878 414.092C673.548 414.092 675.147 413.762 676.676 413.104C676.864 413.01 677.017 412.963 677.135 412.963C677.323 412.963 677.417 413.175 677.417 413.598V414.056C675.488 416.338 673.078 417.478 670.185 417.478C669.456 417.478 668.797 417.408 668.209 417.267L667.857 417.196V423.264C668.303 422.935 668.656 422.676 668.915 422.488C669.174 422.3 669.597 422.112 670.185 421.923C670.773 421.735 671.373 421.641 671.984 421.641C673.889 421.641 675.5 422.406 676.817 423.934C678.134 425.463 678.793 427.274 678.793 429.367C678.793 431.531 678.04 433.377 676.535 434.906C675.03 436.434 673.195 437.21 671.031 437.234C669.127 437.234 667.598 436.599 666.445 435.329C665.293 434.059 664.717 432.624 664.717 431.025C664.717 430.461 664.846 430.014 665.105 429.684C665.364 429.355 665.634 429.144 665.916 429.049C666.198 428.955 666.469 428.908 666.728 428.908C667.316 428.908 667.798 429.108 668.174 429.508C668.55 429.908 668.738 430.378 668.738 430.919Z" fill="white"/>
<path id="Vector_45" d="M683.979 415.821C685.296 413.916 687.095 412.963 689.377 412.963C690.505 412.963 691.634 413.269 692.763 413.88C693.892 414.492 694.809 415.574 695.515 417.126C696.385 419.078 696.82 421.759 696.82 425.169C696.82 428.815 696.315 431.601 695.303 433.53C694.833 434.518 694.186 435.306 693.363 435.894C692.54 436.482 691.822 436.846 691.211 436.987C690.6 437.128 690 437.211 689.412 437.234C688.8 437.234 688.189 437.164 687.577 437.022C686.966 436.881 686.249 436.505 685.425 435.894C684.602 435.282 683.956 434.494 683.485 433.53C682.474 431.601 681.968 428.815 681.968 425.169C681.968 421.077 682.639 417.961 683.979 415.821ZM691.917 415.397C691.211 414.645 690.376 414.268 689.412 414.268C688.424 414.268 687.577 414.645 686.872 415.397C686.284 416.009 685.896 416.855 685.708 417.937C685.52 419.019 685.425 421.277 685.425 424.711C685.425 428.426 685.52 430.872 685.708 432.048C685.896 433.224 686.319 434.153 686.978 434.835C687.636 435.541 688.448 435.894 689.412 435.894C690.353 435.894 691.152 435.541 691.811 434.835C692.493 434.13 692.916 433.142 693.081 431.872C693.245 430.602 693.339 428.215 693.363 424.711C693.363 421.3 693.269 419.054 693.081 417.973C692.893 416.891 692.505 416.032 691.917 415.397Z" fill="white"/>
<path id="Vector_46" d="M701.617 415.821C702.934 413.916 704.733 412.963 707.015 412.963C708.144 412.963 709.273 413.269 710.401 413.88C711.53 414.492 712.448 415.574 713.153 417.126C714.023 419.078 714.458 421.759 714.458 425.169C714.458 428.815 713.953 431.601 712.941 433.53C712.471 434.518 711.824 435.306 711.001 435.894C710.178 436.482 709.461 436.846 708.849 436.987C708.238 437.128 707.638 437.211 707.05 437.234C706.439 437.234 705.827 437.164 705.216 437.022C704.604 436.881 703.887 436.505 703.064 435.894C702.241 435.282 701.594 434.494 701.123 433.53C700.112 431.601 699.606 428.815 699.606 425.169C699.606 421.077 700.277 417.961 701.617 415.821ZM709.555 415.397C708.849 414.645 708.014 414.268 707.05 414.268C706.062 414.268 705.216 414.645 704.51 415.397C703.922 416.009 703.534 416.855 703.346 417.937C703.158 419.019 703.064 421.277 703.064 424.711C703.064 428.426 703.158 430.872 703.346 432.048C703.534 433.224 703.957 434.153 704.616 434.835C705.274 435.541 706.086 435.894 707.05 435.894C707.991 435.894 708.79 435.541 709.449 434.835C710.131 434.13 710.554 433.142 710.719 431.872C710.884 430.602 710.978 428.215 711.001 424.711C711.001 421.3 710.907 419.054 710.719 417.973C710.531 416.891 710.143 416.032 709.555 415.397Z" fill="white"/>
<path id="Vector_47" d="M719.257 415.821C720.574 413.916 722.373 412.963 724.654 412.963C725.783 412.963 726.912 413.269 728.041 413.88C729.17 414.492 730.087 415.574 730.793 417.126C731.663 419.078 732.098 421.759 732.098 425.169C732.098 428.815 731.592 431.601 730.581 433.53C730.111 434.518 729.464 435.306 728.641 435.894C727.818 436.482 727.1 436.846 726.489 436.987C725.877 437.128 725.278 437.211 724.69 437.234C724.078 437.234 723.467 437.164 722.855 437.022C722.244 436.881 721.526 436.505 720.703 435.894C719.88 435.282 719.233 434.494 718.763 433.53C717.752 431.601 717.246 428.815 717.246 425.169C717.246 421.077 717.916 417.961 719.257 415.821ZM727.194 415.397C726.489 414.645 725.654 414.268 724.69 414.268C723.702 414.268 722.855 414.645 722.15 415.397C721.562 416.009 721.174 416.855 720.986 417.937C720.797 419.019 720.703 421.277 720.703 424.711C720.703 428.426 720.797 430.872 720.986 432.048C721.174 433.224 721.597 434.153 722.256 434.835C722.914 435.541 723.725 435.894 724.69 435.894C725.63 435.894 726.43 435.541 727.089 434.835C727.771 434.13 728.194 433.142 728.359 431.872C728.523 430.602 728.617 428.215 728.641 424.711C728.641 421.3 728.547 419.054 728.359 417.973C728.17 416.891 727.782 416.032 727.194 415.397Z" fill="white"/>
</g>
</g>
</g>
</g>
</g>
</svg>
