<svg viewBox="0 0 857 430" fill="none" xmlns="http://www.w3.org/2000/svg">
<g id="0123211">
<g id="Group 185">
<g id="Group 179">
<g id="Group 178">
<path id="Rectangle 108 (Stroke)" fill-rule="evenodd" clip-rule="evenodd" d="M125.121 14.5923H91.1528V48.5607H125.121V14.5923ZM89.5605 13V50.153H126.714V13H89.5605Z" fill="white"/>
<path id="Rectangle 109" d="M89.5605 48.5607H126.714V85.7137H89.5605V48.5607Z" fill="white"/>
<path id="Rectangle 109 (Stroke)" fill-rule="evenodd" clip-rule="evenodd" d="M125.121 50.1529H91.1528V84.1214H125.121V50.1529ZM89.5605 48.5607V85.7137H126.714V48.5607H89.5605Z" fill="white"/>
<path id="Rectangle 110 (Stroke)" fill-rule="evenodd" clip-rule="evenodd" d="M89.5607 50.1529H55.5923V84.1214H89.5607V50.1529ZM54 48.5607V85.7137H91.153V48.5607H54Z" fill="white"/>
<path id="Rectangle 111 (Stroke)" fill-rule="evenodd" clip-rule="evenodd" d="M160.682 50.1529H126.714V84.1214H160.682V50.1529ZM125.122 48.5607V85.7137H162.275V48.5607H125.122Z" fill="white"/>
</g>
<g id="1 2 3">
<path d="M74.6734 112.782H72.6488V99.3615L68.5889 100.853V99.0241L74.3577 96.8581H74.6734V112.782Z" fill="white"/>
<path d="M113.074 112.782H102.691V111.335L108.176 105.239C108.989 104.318 109.548 103.57 109.853 102.997C110.165 102.416 110.321 101.818 110.321 101.201C110.321 100.374 110.07 99.6953 109.57 99.1656C109.069 98.6359 108.401 98.371 107.567 98.371C106.565 98.371 105.785 98.6577 105.227 99.2309C104.675 99.7969 104.399 100.588 104.399 101.604H102.386C102.386 100.145 102.854 98.9661 103.79 98.0663C104.733 97.1665 105.992 96.7166 107.567 96.7166C109.04 96.7166 110.205 97.1048 111.061 97.8812C111.917 98.6504 112.345 99.6772 112.345 100.962C112.345 102.522 111.351 104.379 109.363 106.535L105.118 111.139H113.074V112.782Z" fill="white"/>
<path d="M140.253 103.879H141.766C142.717 103.864 143.464 103.614 144.009 103.128C144.553 102.641 144.825 101.985 144.825 101.157C144.825 99.2998 143.9 98.371 142.049 98.371C141.179 98.371 140.482 98.6214 139.96 99.1221C139.444 99.6155 139.187 100.272 139.187 101.092H137.173C137.173 99.8368 137.63 98.7955 138.545 97.9683C139.466 97.1338 140.634 96.7166 142.049 96.7166C143.544 96.7166 144.716 97.112 145.565 97.903C146.414 98.6939 146.839 99.7933 146.839 101.201C146.839 101.89 146.614 102.558 146.164 103.204C145.721 103.85 145.115 104.332 144.346 104.651C145.217 104.927 145.888 105.384 146.36 106.023C146.839 106.662 147.078 107.442 147.078 108.363C147.078 109.785 146.614 110.914 145.685 111.748C144.756 112.583 143.548 113 142.06 113C140.573 113 139.361 112.597 138.425 111.792C137.496 110.986 137.032 109.923 137.032 108.603H139.056C139.056 109.437 139.328 110.105 139.873 110.605C140.417 111.106 141.146 111.356 142.06 111.356C143.033 111.356 143.776 111.102 144.292 110.595C144.807 110.087 145.065 109.357 145.065 108.407C145.065 107.485 144.782 106.778 144.216 106.284C143.65 105.791 142.833 105.537 141.766 105.522H140.253V103.879Z" fill="white"/>
</g>
<g id="= 1">
<path d="M193.175 58.8078H184.098V57.0554H193.175V58.8078ZM193.175 63.3249H184.098V61.5834H193.175V63.3249Z" fill="white"/>
<path d="M208.142 67.6679H206.117V54.2471L202.057 55.7383V53.9097L207.826 51.7437H208.142V67.6679Z" fill="white"/>
</g>
</g>
<g id="Group 180">
<g id="Group 179_2">
<path id="Rectangle 108 (Stroke)_2" fill-rule="evenodd" clip-rule="evenodd" d="M141.132 163.592H107.175V197.548H141.132V163.592ZM105.583 162V199.14H142.723V162H105.583Z" fill="white"/>
<path id="Rectangle 109_2" d="M105.583 197.548H142.723V234.688H105.583V197.548Z" fill="white"/>
<path id="Rectangle 109 (Stroke)_2" fill-rule="evenodd" clip-rule="evenodd" d="M141.132 199.14H107.175V233.096H141.132V199.14ZM105.583 197.548V234.688H142.723V197.548H105.583Z" fill="white"/>
<path id="Rectangle 110 (Stroke)_2" fill-rule="evenodd" clip-rule="evenodd" d="M105.583 199.14H71.6269V233.096H105.583V199.14ZM70.0352 197.548V234.688H107.175V197.548H70.0352Z" fill="white"/>
<path id="Rectangle 111 (Stroke)_2" fill-rule="evenodd" clip-rule="evenodd" d="M176.68 199.14H142.724V233.096H176.68V199.14ZM141.132 197.548V234.688H178.272V197.548H141.132Z" fill="white"/>
<path id="Rectangle 112 (Stroke)" fill-rule="evenodd" clip-rule="evenodd" d="M105.583 234.688H71.6269V268.645H105.583V234.688ZM70.0352 233.096V270.236H107.175V233.096H70.0352Z" fill="white"/>
<path id="Rectangle 113 (Stroke)" fill-rule="evenodd" clip-rule="evenodd" d="M141.132 234.688H107.175V268.645H141.132V234.688ZM105.583 233.096V270.236H142.723V233.096H105.583Z" fill="white"/>
<path id="Rectangle 114 (Stroke)" fill-rule="evenodd" clip-rule="evenodd" d="M176.68 234.688H142.724V268.645H176.68V234.688ZM141.132 233.096V270.236H178.272V233.096H141.132Z" fill="white"/>
<path id="Rectangle 115" d="M175.619 233.096H212.759V270.236H175.619V233.096Z" fill="white"/>
<path id="Rectangle 115 (Stroke)" fill-rule="evenodd" clip-rule="evenodd" d="M211.167 234.688H177.21V268.645H211.167V234.688ZM175.619 233.096V270.236H212.759V233.096H175.619Z" fill="white"/>
<path id="Rectangle 116" d="M35.5483 233.096H72.6882V270.236H35.5483V233.096Z" fill="white"/>
<path id="Rectangle 116 (Stroke)" fill-rule="evenodd" clip-rule="evenodd" d="M71.0965 234.688H37.14V268.645H71.0965V234.688ZM35.5483 233.096V270.236H72.6882V233.096H35.5483Z" fill="white"/>
<path id="Rectangle 117 (Stroke)" fill-rule="evenodd" clip-rule="evenodd" d="M71.0965 269.706H37.14V303.662H71.0965V269.706ZM35.5483 268.114V305.254H72.6882V268.114H35.5483Z" fill="white"/>
<path id="Rectangle 122 (Stroke)" fill-rule="evenodd" clip-rule="evenodd" d="M35.5482 269.706H1.59171V303.662H35.5482V269.706ZM0 268.114V305.254H37.1399V268.114H0Z" fill="white"/>
<path id="Rectangle 118 (Stroke)" fill-rule="evenodd" clip-rule="evenodd" d="M105.583 269.706H71.6269V303.662H105.583V269.706ZM70.0352 268.114V305.254H107.175V268.114H70.0352Z" fill="white"/>
<path id="Rectangle 119" d="M105.583 268.114H142.723V305.254H105.583V268.114Z" fill="white"/>
<path id="Rectangle 119 (Stroke)" fill-rule="evenodd" clip-rule="evenodd" d="M141.132 269.706H107.175V303.662H141.132V269.706ZM105.583 268.114V305.254H142.723V268.114H105.583Z" fill="white"/>
<path id="Rectangle 120 (Stroke)" fill-rule="evenodd" clip-rule="evenodd" d="M176.68 269.706H142.724V303.662H176.68V269.706ZM141.132 268.114V305.254H178.272V268.114H141.132Z" fill="white"/>
<path id="Rectangle 121 (Stroke)" fill-rule="evenodd" clip-rule="evenodd" d="M211.167 269.706H177.21V303.662H211.167V269.706ZM175.619 268.114V305.254H212.759V268.114H175.619Z" fill="white"/>
<path id="Rectangle 123 (Stroke)" fill-rule="evenodd" clip-rule="evenodd" d="M246.715 269.706H212.759V303.662H246.715V269.706ZM211.167 268.114V305.254H248.307V268.114H211.167Z" fill="white"/>
</g>
<g id="1 2 3 4 5 6 7">
<path d="M21.7269 331.782H19.7031V318.366L15.6445 319.857V318.029L21.4114 315.864H21.7269V331.782Z" fill="white"/>
<path d="M60.1145 331.782H49.7342V330.335L55.2181 324.242C56.0305 323.321 56.5891 322.573 56.8938 322C57.2057 321.42 57.3616 320.822 57.3616 320.205C57.3616 319.378 57.1114 318.7 56.6109 318.17C56.1103 317.641 55.443 317.376 54.6088 317.376C53.6077 317.376 52.828 317.663 52.2694 318.236C51.7181 318.801 51.4425 319.592 51.4425 320.608H49.4295C49.4295 319.15 49.8974 317.971 50.8331 317.071C51.7761 316.172 53.0347 315.722 54.6088 315.722C56.0813 315.722 57.2456 316.11 58.1015 316.886C58.9575 317.655 59.3855 318.682 59.3855 319.966C59.3855 321.525 58.3917 323.382 56.4041 325.537L52.1606 330.139H60.1145V331.782Z" fill="white"/>
<path d="M87.2839 322.882H88.7963C89.7466 322.867 90.4938 322.617 91.0378 322.131C91.5818 321.645 91.8539 320.988 91.8539 320.162C91.8539 318.305 90.929 317.376 89.0792 317.376C88.2088 317.376 87.5124 317.626 86.9901 318.127C86.4751 318.62 86.2176 319.277 86.2176 320.096H84.2046C84.2046 318.841 84.6616 317.8 85.5756 316.973C86.4969 316.139 87.6647 315.722 89.0792 315.722C90.5735 315.722 91.7451 316.118 92.5938 316.908C93.4425 317.699 93.8668 318.798 93.8668 320.205C93.8668 320.894 93.6419 321.562 93.1922 322.207C92.7497 322.853 92.144 323.335 91.3751 323.654C92.2456 323.93 92.9166 324.387 93.3881 325.025C93.8668 325.664 94.1062 326.443 94.1062 327.365C94.1062 328.786 93.6419 329.914 92.7134 330.749C91.785 331.583 90.5772 332 89.0901 332C87.6031 332 86.3917 331.597 85.4559 330.792C84.5274 329.987 84.0632 328.924 84.0632 327.604H86.087C86.087 328.438 86.359 329.106 86.9031 329.606C87.4471 330.107 88.1761 330.357 89.0901 330.357C90.0622 330.357 90.8057 330.103 91.3207 329.595C91.8357 329.087 92.0932 328.358 92.0932 327.408C92.0932 326.487 91.8103 325.78 91.2445 325.286C90.6787 324.793 89.8627 324.539 88.7963 324.525H87.2839V322.882Z" fill="white"/>
<path d="M127.478 326.462H129.676V328.105H127.478V331.782H125.454V328.105H118.24V326.919L125.334 315.94H127.478V326.462ZM120.525 326.462H125.454V318.693L125.214 319.128L120.525 326.462Z" fill="white"/>
<path d="M154.527 323.839L155.333 315.94H163.45V317.8H157.041L156.562 322.12C157.338 321.663 158.22 321.435 159.206 321.435C160.65 321.435 161.796 321.913 162.645 322.871C163.493 323.821 163.918 325.109 163.918 326.734C163.918 328.366 163.475 329.653 162.59 330.596C161.712 331.532 160.483 332 158.902 332C157.502 332 156.359 331.612 155.474 330.836C154.589 330.059 154.085 328.986 153.962 327.615H155.866C155.989 328.522 156.312 329.207 156.834 329.671C157.356 330.128 158.046 330.357 158.902 330.357C159.837 330.357 160.57 330.038 161.099 329.399C161.636 328.761 161.905 327.88 161.905 326.755C161.905 325.696 161.614 324.848 161.034 324.209C160.461 323.564 159.696 323.241 158.738 323.241C157.861 323.241 157.171 323.433 156.671 323.818L156.138 324.253L154.527 323.839Z" fill="white"/>
<path d="M196.125 315.929V317.637H195.755C194.188 317.666 192.94 318.13 192.012 319.03C191.083 319.929 190.547 321.195 190.402 322.827C191.236 321.87 192.375 321.391 193.818 321.391C195.196 321.391 196.295 321.877 197.115 322.849C197.942 323.821 198.355 325.076 198.355 326.614C198.355 328.246 197.909 329.552 197.017 330.531C196.132 331.51 194.942 332 193.448 332C191.932 332 190.703 331.42 189.76 330.259C188.817 329.091 188.345 327.59 188.345 325.754V324.982C188.345 322.066 188.965 319.839 190.206 318.301C191.453 316.756 193.307 315.965 195.766 315.929H196.125ZM193.481 323.067C192.792 323.067 192.157 323.273 191.577 323.687C190.996 324.1 190.594 324.619 190.369 325.243V325.983C190.369 327.288 190.663 328.34 191.25 329.138C191.838 329.936 192.57 330.335 193.448 330.335C194.355 330.335 195.066 330.001 195.581 329.334C196.103 328.667 196.364 327.793 196.364 326.712C196.364 325.624 196.099 324.746 195.57 324.079C195.048 323.404 194.351 323.067 193.481 323.067Z" fill="white"/>
<path d="M233.076 317.071L226.515 331.782H224.404L230.943 317.594H222.369V315.94H233.076V317.071Z" fill="white"/>
</g>
<g id="= 4">
<path d="M267.524 242.809H258.45V241.057H267.524V242.809ZM267.524 247.325H258.45V245.584H267.524V247.325Z" fill="white"/>
<path d="M284.368 246.345H286.566V247.988H284.368V251.666H282.344V247.988H275.13V246.802L282.224 235.824H284.368V246.345ZM277.415 246.345H282.344V238.577L282.105 239.012L277.415 246.345Z" fill="white"/>
</g>
</g>
<g id="Group 181">
<path id="Rectangle 124 (Stroke)" fill-rule="evenodd" clip-rule="evenodd" d="M575 3H546V32H575V3ZM543 0V35H578V0H543Z" fill="white"/>
<path id="Rectangle 125" d="M543 31H578V66H543V31Z" fill="white"/>
<path id="Rectangle 125 (Stroke)" fill-rule="evenodd" clip-rule="evenodd" d="M575 34H546V63H575V34ZM543 31V66H578V31H543Z" fill="white"/>
<path id="Rectangle 126 (Stroke)" fill-rule="evenodd" clip-rule="evenodd" d="M543 34H514V63H543V34ZM511 31V66H546V31H511Z" fill="white"/>
<path id="Rectangle 127 (Stroke)" fill-rule="evenodd" clip-rule="evenodd" d="M607 34H578V63H607V34ZM575 31V66H610V31H575Z" fill="white"/>
<path id="Rectangle 128 (Stroke)" fill-rule="evenodd" clip-rule="evenodd" d="M543 66H514V95H543V66ZM511 63V98H546V63H511Z" fill="white"/>
<path id="Rectangle 129 (Stroke)" fill-rule="evenodd" clip-rule="evenodd" d="M575 66H546V95H575V66ZM543 63V98H578V63H543Z" fill="white"/>
<path id="Rectangle 130 (Stroke)" fill-rule="evenodd" clip-rule="evenodd" d="M607 66H578V95H607V66ZM575 63V98H610V63H575Z" fill="white"/>
<path id="Rectangle 131" d="M607 63H642V98H607V63Z" fill="white"/>
<path id="Rectangle 131 (Stroke)" fill-rule="evenodd" clip-rule="evenodd" d="M639 66H610V95H639V66ZM607 63V98H642V63H607Z" fill="white"/>
<path id="Rectangle 132" d="M479 63H514V98H479V63Z" fill="white"/>
<path id="Rectangle 132 (Stroke)" fill-rule="evenodd" clip-rule="evenodd" d="M511 66H482V95H511V66ZM479 63V98H514V63H479Z" fill="white"/>
<path id="Rectangle 133 (Stroke)" fill-rule="evenodd" clip-rule="evenodd" d="M511 98H482V127H511V98ZM479 95V130H514V95H479Z" fill="white"/>
<path id="Rectangle 134 (Stroke)" fill-rule="evenodd" clip-rule="evenodd" d="M543 98H514V127H543V98ZM511 95V130H546V95H511Z" fill="white"/>
<path id="Rectangle 135" d="M543 95H578V130H543V95Z" fill="white"/>
<path id="Rectangle 135 (Stroke)" fill-rule="evenodd" clip-rule="evenodd" d="M575 98H546V127H575V98ZM543 95V130H578V95H543Z" fill="white"/>
<path id="Rectangle 136 (Stroke)" fill-rule="evenodd" clip-rule="evenodd" d="M607 98H578V127H607V98ZM575 95V130H610V95H575Z" fill="white"/>
<path id="Rectangle 137 (Stroke)" fill-rule="evenodd" clip-rule="evenodd" d="M639 98H610V127H639V98ZM607 95V130H642V95H607Z" fill="white"/>
<path id="Rectangle 138 (Stroke)" fill-rule="evenodd" clip-rule="evenodd" d="M671 98H642V127H671V98ZM639 95V130H674V95H639Z" fill="white"/>
<path id="Rectangle 139 (Stroke)" fill-rule="evenodd" clip-rule="evenodd" d="M479 98H450V127H479V98ZM447 95V130H482V95H447Z" fill="white"/>
<path id="Rectangle 140" d="M447 127H482V162H447V127Z" fill="white"/>
<path id="Rectangle 140 (Stroke)" fill-rule="evenodd" clip-rule="evenodd" d="M479 130H450V159H479V130ZM447 127V162H482V127H447Z" fill="white"/>
<path id="Rectangle 149 (Stroke)" fill-rule="evenodd" clip-rule="evenodd" d="M479 162H450V191H479V162ZM447 159V194H482V159H447Z" fill="white"/>
<path id="Rectangle 141 (Stroke)" fill-rule="evenodd" clip-rule="evenodd" d="M511 130H482V159H511V130ZM479 127V162H514V127H479Z" fill="white"/>
<path id="Rectangle 150 (Stroke)" fill-rule="evenodd" clip-rule="evenodd" d="M511 162H482V191H511V162ZM479 159V194H514V159H479Z" fill="white"/>
<path id="Rectangle 142 (Stroke)" fill-rule="evenodd" clip-rule="evenodd" d="M543 130H514V159H543V130ZM511 127V162H546V127H511Z" fill="white"/>
<path id="Rectangle 151 (Stroke)" fill-rule="evenodd" clip-rule="evenodd" d="M543 162H514V191H543V162ZM511 159V194H546V159H511Z" fill="white"/>
<path id="Rectangle 143 (Stroke)" fill-rule="evenodd" clip-rule="evenodd" d="M575 130H546V159H575V130ZM543 127V162H578V127H543Z" fill="white"/>
<path id="Rectangle 152" d="M543 159H578V194H543V159Z" fill="white"/>
<path id="Rectangle 152 (Stroke)" fill-rule="evenodd" clip-rule="evenodd" d="M575 162H546V191H575V162ZM543 159V194H578V159H543Z" fill="white"/>
<path id="Rectangle 144 (Stroke)" fill-rule="evenodd" clip-rule="evenodd" d="M607 130H578V159H607V130ZM575 127V162H610V127H575Z" fill="white"/>
<path id="Rectangle 153 (Stroke)" fill-rule="evenodd" clip-rule="evenodd" d="M607 162H578V191H607V162ZM575 159V194H610V159H575Z" fill="white"/>
<path id="Rectangle 145 (Stroke)" fill-rule="evenodd" clip-rule="evenodd" d="M639 130H610V159H639V130ZM607 127V162H642V127H607Z" fill="white"/>
<path id="Rectangle 154 (Stroke)" fill-rule="evenodd" clip-rule="evenodd" d="M639 162H610V191H639V162ZM607 159V194H642V159H607Z" fill="white"/>
<path id="Rectangle 146" d="M639 127H674V162H639V127Z" fill="white"/>
<path id="Rectangle 146 (Stroke)" fill-rule="evenodd" clip-rule="evenodd" d="M671 130H642V159H671V130ZM639 127V162H674V127H639Z" fill="white"/>
<path id="Rectangle 155 (Stroke)" fill-rule="evenodd" clip-rule="evenodd" d="M671 162H642V191H671V162ZM639 159V194H674V159H639Z" fill="white"/>
<path id="Rectangle 147" d="M671 127H706V162H671V127Z" fill="white"/>
<path id="Rectangle 147 (Stroke)" fill-rule="evenodd" clip-rule="evenodd" d="M703 130H674V159H703V130ZM671 127V162H706V127H671Z" fill="white"/>
<path id="Rectangle 156 (Stroke)" fill-rule="evenodd" clip-rule="evenodd" d="M703 162H674V191H703V162ZM671 159V194H706V159H671Z" fill="white"/>
<path id="Rectangle 159 (Stroke)" fill-rule="evenodd" clip-rule="evenodd" d="M735 162H706V191H735V162ZM703 159V194H738V159H703Z" fill="white"/>
<path id="Rectangle 148" d="M415 127H450V162H415V127Z" fill="white"/>
<path id="Rectangle 148 (Stroke)" fill-rule="evenodd" clip-rule="evenodd" d="M447 130H418V159H447V130ZM415 127V162H450V127H415Z" fill="white"/>
<path id="Rectangle 157 (Stroke)" fill-rule="evenodd" clip-rule="evenodd" d="M447 162H418V191H447V162ZM415 159V194H450V159H415Z" fill="white"/>
<path id="Rectangle 158 (Stroke)" fill-rule="evenodd" clip-rule="evenodd" d="M415 162H386V191H415V162ZM383 159V194H418V159H383Z" fill="white"/>
<g id="1 2 3 4 5 6 7 8 9 10 11">
<path d="M402.543 219H400.363V204.551L395.992 206.156V204.188L402.203 201.855H402.543V219Z" fill="white"/>
<path d="M437.934 219H426.754V217.441L432.66 210.879C433.535 209.887 434.137 209.082 434.465 208.465C434.801 207.84 434.969 207.195 434.969 206.531C434.969 205.641 434.699 204.91 434.16 204.34C433.621 203.77 432.902 203.484 432.004 203.484C430.926 203.484 430.086 203.793 429.484 204.41C428.891 205.02 428.594 205.871 428.594 206.965H426.426C426.426 205.395 426.93 204.125 427.938 203.156C428.953 202.188 430.309 201.703 432.004 201.703C433.59 201.703 434.844 202.121 435.766 202.957C436.688 203.785 437.148 204.891 437.148 206.273C437.148 207.953 436.078 209.953 433.938 212.273L429.367 217.23H437.934V219Z" fill="white"/>
<path d="M461.242 209.414H462.871C463.895 209.398 464.699 209.129 465.285 208.605C465.871 208.082 466.164 207.375 466.164 206.484C466.164 204.484 465.168 203.484 463.176 203.484C462.238 203.484 461.488 203.754 460.926 204.293C460.371 204.824 460.094 205.531 460.094 206.414H457.926C457.926 205.062 458.418 203.941 459.402 203.051C460.395 202.152 461.652 201.703 463.176 201.703C464.785 201.703 466.047 202.129 466.961 202.98C467.875 203.832 468.332 205.016 468.332 206.531C468.332 207.273 468.09 207.992 467.605 208.688C467.129 209.383 466.477 209.902 465.648 210.246C466.586 210.543 467.309 211.035 467.816 211.723C468.332 212.41 468.59 213.25 468.59 214.242C468.59 215.773 468.09 216.988 467.09 217.887C466.09 218.785 464.789 219.234 463.188 219.234C461.586 219.234 460.281 218.801 459.273 217.934C458.273 217.066 457.773 215.922 457.773 214.5H459.953C459.953 215.398 460.246 216.117 460.832 216.656C461.418 217.195 462.203 217.465 463.188 217.465C464.234 217.465 465.035 217.191 465.59 216.645C466.145 216.098 466.422 215.312 466.422 214.289C466.422 213.297 466.117 212.535 465.508 212.004C464.898 211.473 464.02 211.199 462.871 211.184H461.242V209.414Z" fill="white"/>
<path d="M498.578 213.27H500.945V215.039H498.578V219H496.398V215.039H488.629V213.762L496.27 201.938H498.578V213.27ZM491.09 213.27H496.398V204.902L496.141 205.371L491.09 213.27Z" fill="white"/>
<path d="M521.758 210.445L522.625 201.938H531.367V203.941H524.465L523.949 208.594C524.785 208.102 525.734 207.855 526.797 207.855C528.352 207.855 529.586 208.371 530.5 209.402C531.414 210.426 531.871 211.812 531.871 213.562C531.871 215.32 531.395 216.707 530.441 217.723C529.496 218.73 528.172 219.234 526.469 219.234C524.961 219.234 523.73 218.816 522.777 217.98C521.824 217.145 521.281 215.988 521.148 214.512H523.199C523.332 215.488 523.68 216.227 524.242 216.727C524.805 217.219 525.547 217.465 526.469 217.465C527.477 217.465 528.266 217.121 528.836 216.434C529.414 215.746 529.703 214.797 529.703 213.586C529.703 212.445 529.391 211.531 528.766 210.844C528.148 210.148 527.324 209.801 526.293 209.801C525.348 209.801 524.605 210.008 524.066 210.422L523.492 210.891L521.758 210.445Z" fill="white"/>
<path d="M566.559 201.926V203.766H566.16C564.473 203.797 563.129 204.297 562.129 205.266C561.129 206.234 560.551 207.598 560.395 209.355C561.293 208.324 562.52 207.809 564.074 207.809C565.559 207.809 566.742 208.332 567.625 209.379C568.516 210.426 568.961 211.777 568.961 213.434C568.961 215.191 568.48 216.598 567.52 217.652C566.566 218.707 565.285 219.234 563.676 219.234C562.043 219.234 560.719 218.609 559.703 217.359C558.688 216.102 558.18 214.484 558.18 212.508V211.676C558.18 208.535 558.848 206.137 560.184 204.48C561.527 202.816 563.523 201.965 566.172 201.926H566.559ZM563.711 209.613C562.969 209.613 562.285 209.836 561.66 210.281C561.035 210.727 560.602 211.285 560.359 211.957V212.754C560.359 214.16 560.676 215.293 561.309 216.152C561.941 217.012 562.73 217.441 563.676 217.441C564.652 217.441 565.418 217.082 565.973 216.363C566.535 215.645 566.816 214.703 566.816 213.539C566.816 212.367 566.531 211.422 565.961 210.703C565.398 209.977 564.648 209.613 563.711 209.613Z" fill="white"/>
<path d="M600.402 203.156L593.336 219H591.062L598.105 203.719H588.871V201.938H600.402V203.156Z" fill="white"/>
<path d="M631.07 206.391C631.07 207.242 630.844 208 630.391 208.664C629.945 209.328 629.34 209.848 628.574 210.223C629.465 210.605 630.168 211.164 630.684 211.898C631.207 212.633 631.469 213.465 631.469 214.395C631.469 215.871 630.969 217.047 629.969 217.922C628.977 218.797 627.668 219.234 626.043 219.234C624.402 219.234 623.086 218.797 622.094 217.922C621.109 217.039 620.617 215.863 620.617 214.395C620.617 213.473 620.867 212.641 621.367 211.898C621.875 211.156 622.574 210.594 623.465 210.211C622.707 209.836 622.109 209.316 621.672 208.652C621.234 207.988 621.016 207.234 621.016 206.391C621.016 204.953 621.477 203.812 622.398 202.969C623.32 202.125 624.535 201.703 626.043 201.703C627.543 201.703 628.754 202.125 629.676 202.969C630.605 203.812 631.07 204.953 631.07 206.391ZM629.301 214.348C629.301 213.395 628.996 212.617 628.387 212.016C627.785 211.414 626.996 211.113 626.02 211.113C625.043 211.113 624.258 211.41 623.664 212.004C623.078 212.598 622.785 213.379 622.785 214.348C622.785 215.316 623.07 216.078 623.641 216.633C624.219 217.188 625.02 217.465 626.043 217.465C627.059 217.465 627.855 217.188 628.434 216.633C629.012 216.07 629.301 215.309 629.301 214.348ZM626.043 203.484C625.191 203.484 624.5 203.75 623.969 204.281C623.445 204.805 623.184 205.52 623.184 206.426C623.184 207.293 623.441 207.996 623.957 208.535C624.48 209.066 625.176 209.332 626.043 209.332C626.91 209.332 627.602 209.066 628.117 208.535C628.641 207.996 628.902 207.293 628.902 206.426C628.902 205.559 628.633 204.852 628.094 204.305C627.555 203.758 626.871 203.484 626.043 203.484Z" fill="white"/>
<path d="M660.367 211.5C659.914 212.039 659.371 212.473 658.738 212.801C658.113 213.129 657.426 213.293 656.676 213.293C655.691 213.293 654.832 213.051 654.098 212.566C653.371 212.082 652.809 211.402 652.41 210.527C652.012 209.645 651.812 208.672 651.812 207.609C651.812 206.469 652.027 205.441 652.457 204.527C652.895 203.613 653.512 202.914 654.309 202.43C655.105 201.945 656.035 201.703 657.098 201.703C658.785 201.703 660.113 202.336 661.082 203.602C662.059 204.859 662.547 206.578 662.547 208.758V209.391C662.547 212.711 661.891 215.137 660.578 216.668C659.266 218.191 657.285 218.973 654.637 219.012H654.215V217.184H654.672C656.461 217.152 657.836 216.688 658.797 215.789C659.758 214.883 660.281 213.453 660.367 211.5ZM657.027 211.5C657.754 211.5 658.422 211.277 659.031 210.832C659.648 210.387 660.098 209.836 660.379 209.18V208.312C660.379 206.891 660.07 205.734 659.453 204.844C658.836 203.953 658.055 203.508 657.109 203.508C656.156 203.508 655.391 203.875 654.812 204.609C654.234 205.336 653.945 206.297 653.945 207.492C653.945 208.656 654.223 209.617 654.777 210.375C655.34 211.125 656.09 211.5 657.027 211.5Z" fill="white"/>
<path d="M684.566 219H682.387V204.551L678.016 206.156V204.188L684.227 201.855H684.566V219Z" fill="white"/>
<path d="M701.617 211.723C701.617 214.262 701.184 216.148 700.316 217.383C699.449 218.617 698.094 219.234 696.25 219.234C694.43 219.234 693.082 218.633 692.207 217.43C691.332 216.219 690.879 214.414 690.848 212.016V209.121C690.848 206.613 691.281 204.75 692.148 203.531C693.016 202.312 694.375 201.703 696.227 201.703C698.062 201.703 699.414 202.293 700.281 203.473C701.148 204.645 701.594 206.457 701.617 208.91V211.723ZM699.449 208.758C699.449 206.922 699.191 205.586 698.676 204.75C698.16 203.906 697.344 203.484 696.227 203.484C695.117 203.484 694.309 203.902 693.801 204.738C693.293 205.574 693.031 206.859 693.016 208.594V212.062C693.016 213.906 693.281 215.27 693.812 216.152C694.352 217.027 695.164 217.465 696.25 217.465C697.32 217.465 698.113 217.051 698.629 216.223C699.152 215.395 699.426 214.09 699.449 212.309V208.758Z" fill="white"/>
<path d="M717.473 219H715.293V204.551L710.922 206.156V204.188L717.133 201.855H717.473V219Z" fill="white"/>
<path d="M730.949 219H728.77V204.551L724.398 206.156V204.188L730.609 201.855H730.949V219Z" fill="white"/>
</g>
<g id="= 9">
<path d="M755.332 116.691H740.672V113.861H755.332V116.691ZM755.332 123.986H740.672V121.174H755.332V123.986Z" fill="white"/>
<path d="M781.277 119.75C780.598 120.559 779.783 121.209 778.834 121.701C777.896 122.193 776.865 122.439 775.74 122.439C774.264 122.439 772.975 122.076 771.873 121.35C770.783 120.623 769.939 119.604 769.342 118.291C768.744 116.967 768.445 115.508 768.445 113.914C768.445 112.203 768.768 110.662 769.412 109.291C770.068 107.92 770.994 106.871 772.189 106.145C773.385 105.418 774.779 105.055 776.373 105.055C778.904 105.055 780.896 106.004 782.35 107.902C783.814 109.789 784.547 112.367 784.547 115.637V116.586C784.547 121.566 783.562 125.205 781.594 127.502C779.625 129.787 776.654 130.959 772.682 131.018H772.049V128.275H772.734C775.418 128.229 777.48 127.531 778.922 126.184C780.363 124.824 781.148 122.68 781.277 119.75ZM776.268 119.75C777.357 119.75 778.359 119.416 779.273 118.748C780.199 118.08 780.873 117.254 781.295 116.27V114.969C781.295 112.836 780.832 111.102 779.906 109.766C778.98 108.43 777.809 107.762 776.391 107.762C774.961 107.762 773.812 108.312 772.945 109.414C772.078 110.504 771.645 111.945 771.645 113.738C771.645 115.484 772.061 116.926 772.893 118.062C773.736 119.188 774.861 119.75 776.268 119.75Z" fill="white"/>
</g>
</g>
<g id="=1^2\;&#10;=2^2\:&#10;=3^2\:">
<g id="Group">
<g id="Group 182">
<g id="Group_2">
<path id="Vector" d="M219 57.8115C219 57.5563 219.137 57.3599 219.412 57.2225H238.171C238.466 57.3796 238.613 57.5759 238.613 57.8115C238.613 58.0274 238.475 58.2139 238.201 58.371L228.836 58.4005H219.471C219.157 58.3023 219 58.106 219 57.8115ZM219 63.5245C219 63.2301 219.157 63.0337 219.471 62.9356H238.201C238.475 63.1319 238.613 63.3282 238.613 63.5245C238.613 63.7798 238.466 63.9761 238.171 64.1135H219.412C219.137 63.9761 219 63.7798 219 63.5245Z" fill="white"/>
</g>
<g id="Group_3">
<g id="Group_4">
<path id="Vector_2" d="M254.716 51.0089L254.333 51.1561C254.058 51.2543 253.665 51.3524 253.155 51.4506C252.644 51.5487 252.075 51.6175 251.447 51.6567H250.887V50.3021H251.447C252.369 50.2628 253.223 50.1156 254.009 49.8603C254.794 49.6051 255.344 49.3695 255.658 49.1536C255.972 48.9376 256.247 48.7217 256.482 48.5057C256.522 48.4468 256.64 48.4174 256.836 48.4174C257.013 48.4174 257.179 48.4763 257.336 48.5941V57.3992L257.366 66.2339C257.503 66.3713 257.621 66.4597 257.719 66.4989C257.817 66.5382 258.053 66.5775 258.426 66.6167C258.799 66.656 259.408 66.6756 260.252 66.6756H261.018V68.0303H260.694C260.281 67.9714 258.721 67.9419 256.011 67.9419C253.341 67.9419 251.8 67.9714 251.388 68.0303H251.034V66.6756H251.8C252.232 66.6756 252.605 66.6756 252.919 66.6756C253.233 66.6756 253.479 66.6658 253.655 66.6462C253.832 66.6265 253.989 66.5971 254.127 66.5578C254.264 66.5186 254.343 66.4989 254.362 66.4989C254.382 66.4989 254.441 66.4499 254.539 66.3517C254.637 66.2535 254.696 66.2143 254.716 66.2339V51.0089Z" fill="white"/>
</g>
<g id="Group_5">
<path id="Vector_3" d="M265.437 46.936C265.062 46.936 264.764 46.8111 264.542 46.5612C264.32 46.3114 264.208 46.006 264.208 45.6451C264.208 44.6596 264.576 43.806 265.312 43.0842C266.048 42.3625 266.964 42.0016 268.06 42.0016C269.323 42.0016 270.378 42.3902 271.225 43.1675C272.072 43.9448 272.502 44.9511 272.516 46.1865C272.516 46.7833 272.377 47.3524 272.099 47.8937C271.822 48.4351 271.489 48.907 271.1 49.3095C270.711 49.712 270.156 50.2256 269.434 50.8502C268.935 51.2805 268.241 51.919 267.352 52.7657L266.124 53.9316L267.706 53.9525C269.886 53.9525 271.044 53.9178 271.183 53.8483C271.28 53.8206 271.447 53.2029 271.683 51.9953V51.9329H272.516V51.9953C272.502 52.037 272.412 52.6685 272.245 53.89C272.079 55.1114 271.974 55.7499 271.933 55.8055V55.8679H264.208V55.4723V55.2225C264.208 55.1253 264.25 55.0212 264.333 54.9102C264.417 54.7991 264.625 54.5562 264.958 54.1815C265.361 53.7373 265.708 53.3487 265.999 53.0155C266.124 52.8767 266.36 52.62 266.707 52.2452C267.054 51.8704 267.29 51.6136 267.415 51.4748C267.54 51.336 267.741 51.107 268.019 50.7878C268.296 50.4685 268.491 50.2326 268.602 50.0799C268.713 49.9272 268.872 49.719 269.08 49.4553C269.289 49.1915 269.434 48.9695 269.518 48.789C269.601 48.6086 269.705 48.4073 269.83 48.1852C269.955 47.9631 270.045 47.7411 270.101 47.519C270.156 47.2969 270.205 47.0887 270.246 46.8944C270.288 46.7 270.309 46.471 270.309 46.2073C270.309 45.3328 270.073 44.5764 269.601 43.9379C269.129 43.2994 268.456 42.9801 267.581 42.9801C267.123 42.9801 266.721 43.0981 266.374 43.3341C266.027 43.5701 265.784 43.7991 265.645 44.0212C265.506 44.2432 265.437 44.3751 265.437 44.4167C265.437 44.4306 265.472 44.4376 265.541 44.4376C265.791 44.4376 266.048 44.5347 266.311 44.729C266.575 44.9234 266.707 45.2426 266.707 45.6868C266.707 46.0338 266.596 46.3253 266.374 46.5612C266.152 46.7972 265.839 46.9221 265.437 46.936Z" fill="white"/>
</g>
</g>
</g>
<g id="Group 183">
<g id="Group_6">
<path id="Vector_4" d="M300 241.81C300 241.555 300.137 241.358 300.412 241.221H319.171C319.466 241.378 319.613 241.574 319.613 241.81C319.613 242.026 319.475 242.212 319.201 242.37L309.836 242.399H300.471C300.157 242.301 300 242.105 300 241.81ZM300 247.523C300 247.229 300.157 247.032 300.471 246.934H319.201C319.475 247.13 319.613 247.327 319.613 247.523C319.613 247.778 319.466 247.975 319.171 248.112H300.412C300.137 247.975 300 247.778 300 247.523Z" fill="white"/>
</g>
<g id="Group_7">
<g id="Group_8">
<path id="Vector_5" d="M332.653 239.395C332.122 239.395 331.7 239.219 331.386 238.865C331.072 238.512 330.915 238.08 330.915 237.569C330.915 236.176 331.435 234.968 332.476 233.947C333.516 232.926 334.812 232.416 336.363 232.416C338.15 232.416 339.642 232.966 340.839 234.065C342.037 235.164 342.645 236.588 342.665 238.335C342.665 239.179 342.469 239.984 342.076 240.75C341.683 241.516 341.212 242.183 340.663 242.752C340.113 243.322 339.328 244.048 338.307 244.932C337.6 245.54 336.618 246.443 335.362 247.641L333.624 249.29L335.862 249.32C338.945 249.32 340.584 249.27 340.78 249.172C340.918 249.133 341.153 248.259 341.487 246.551V246.463H342.665V246.551C342.645 246.61 342.518 247.504 342.282 249.231C342.047 250.959 341.899 251.862 341.841 251.94V252.029H330.915V251.469V251.116C330.915 250.978 330.974 250.831 331.092 250.674C331.21 250.517 331.504 250.174 331.975 249.643C332.545 249.015 333.035 248.466 333.448 247.994C333.624 247.798 333.958 247.435 334.449 246.905C334.94 246.375 335.273 246.011 335.45 245.815C335.627 245.619 335.912 245.295 336.304 244.843C336.697 244.392 336.972 244.058 337.129 243.842C337.286 243.626 337.512 243.332 337.806 242.959C338.101 242.586 338.307 242.271 338.424 242.016C338.542 241.761 338.69 241.476 338.866 241.162C339.043 240.848 339.171 240.534 339.249 240.22C339.328 239.906 339.396 239.611 339.455 239.336C339.514 239.062 339.544 238.738 339.544 238.365C339.544 237.128 339.21 236.058 338.542 235.155C337.875 234.252 336.923 233.8 335.686 233.8C335.038 233.8 334.469 233.967 333.978 234.301C333.487 234.634 333.143 234.958 332.947 235.272C332.751 235.587 332.653 235.773 332.653 235.832C332.653 235.852 332.702 235.861 332.8 235.861C333.153 235.861 333.516 235.999 333.889 236.274C334.262 236.549 334.449 237 334.449 237.628C334.449 238.119 334.292 238.531 333.978 238.865C333.664 239.199 333.222 239.376 332.653 239.395Z" fill="white"/>
</g>
<g id="Group_9">
<path id="Vector_6" d="M346.436 230.935C346.062 230.935 345.763 230.81 345.541 230.56C345.319 230.31 345.208 230.005 345.208 229.644C345.208 228.658 345.576 227.805 346.311 227.083C347.047 226.361 347.963 226 349.06 226C350.323 226 351.378 226.389 352.224 227.166C353.071 227.943 353.501 228.95 353.515 230.185C353.515 230.782 353.377 231.351 353.099 231.892C352.821 232.434 352.488 232.906 352.1 233.308C351.711 233.711 351.156 234.224 350.434 234.849C349.934 235.279 349.24 235.918 348.352 236.764L347.123 237.93L348.706 237.951C350.885 237.951 352.044 237.916 352.183 237.847C352.28 237.819 352.447 237.201 352.683 235.994V235.931H353.515V235.994C353.501 236.036 353.411 236.667 353.245 237.889C353.078 239.11 352.974 239.748 352.932 239.804V239.866H345.208V239.471V239.221C345.208 239.124 345.25 239.02 345.333 238.909C345.416 238.798 345.624 238.555 345.958 238.18C346.36 237.736 346.707 237.347 346.999 237.014C347.123 236.875 347.359 236.618 347.706 236.244C348.053 235.869 348.289 235.612 348.414 235.473C348.539 235.335 348.741 235.106 349.018 234.786C349.296 234.467 349.49 234.231 349.601 234.078C349.712 233.926 349.872 233.718 350.08 233.454C350.288 233.19 350.434 232.968 350.517 232.788C350.6 232.607 350.705 232.406 350.829 232.184C350.954 231.962 351.045 231.74 351.1 231.518C351.156 231.295 351.204 231.087 351.246 230.893C351.288 230.699 351.308 230.47 351.308 230.206C351.308 229.331 351.072 228.575 350.6 227.936C350.129 227.298 349.455 226.979 348.581 226.979C348.123 226.979 347.72 227.097 347.373 227.333C347.026 227.569 346.783 227.798 346.645 228.02C346.506 228.242 346.436 228.374 346.436 228.415C346.436 228.429 346.471 228.436 346.541 228.436C346.79 228.436 347.047 228.533 347.311 228.728C347.575 228.922 347.706 229.241 347.706 229.685C347.706 230.032 347.595 230.324 347.373 230.56C347.151 230.796 346.839 230.921 346.436 230.935Z" fill="white"/>
</g>
</g>
</g>
<g id="Group 184">
<g id="Group_10">
<path id="Vector_7" d="M796 113.456C796 113.169 796.155 112.948 796.464 112.794H817.56C817.891 112.97 818.056 113.191 818.056 113.456C818.056 113.699 817.902 113.909 817.593 114.085L807.061 114.118H796.53C796.177 114.008 796 113.787 796 113.456ZM796 119.881C796 119.55 796.177 119.329 796.53 119.219H817.593C817.902 119.439 818.056 119.66 818.056 119.881C818.056 120.168 817.891 120.389 817.56 120.543H796.464C796.155 120.389 796 120.168 796 119.881Z" fill="white"/>
</g>
<g id="Group_11">
<g id="Group_12">
<path id="Vector_8" d="M833.317 109.614C832.721 109.614 832.257 109.427 831.926 109.051C831.595 108.676 831.418 108.19 831.396 107.594C831.396 106.38 831.926 105.298 832.986 104.349C834.046 103.399 835.326 102.925 836.827 102.925C837.6 102.925 838.086 102.936 838.285 102.958C839.918 103.223 841.166 103.808 842.027 104.713C842.888 105.618 843.33 106.601 843.352 107.661C843.352 108.809 842.976 109.924 842.226 111.005C841.475 112.087 840.437 112.871 839.113 113.357L839.013 113.423C839.013 113.445 839.113 113.478 839.311 113.522C839.51 113.567 839.83 113.666 840.272 113.82C840.713 113.975 841.133 114.207 841.53 114.516C843.341 115.686 844.246 117.232 844.246 119.152C844.246 120.897 843.561 122.42 842.192 123.723C840.824 125.025 839.09 125.677 836.993 125.677C835.227 125.677 833.703 125.202 832.423 124.252C831.142 123.303 830.502 122.1 830.502 120.643C830.502 120.024 830.701 119.528 831.098 119.152C831.495 118.777 831.992 118.578 832.588 118.556C833.207 118.556 833.714 118.755 834.112 119.152C834.509 119.55 834.708 120.047 834.708 120.643C834.708 120.885 834.675 121.106 834.609 121.305C834.542 121.504 834.465 121.68 834.377 121.835C834.288 121.989 834.167 122.122 834.012 122.232C833.858 122.343 833.725 122.431 833.615 122.497C833.505 122.563 833.394 122.608 833.284 122.63C833.173 122.652 833.085 122.685 833.019 122.729L832.886 122.762C834.012 123.756 835.381 124.252 836.993 124.252C838.207 124.252 839.124 123.667 839.742 122.497C840.117 121.769 840.305 120.654 840.305 119.152V118.49C840.305 116.393 839.598 114.991 838.185 114.284C837.854 114.152 837.181 114.074 836.165 114.052L834.774 114.019L834.675 113.953C834.631 113.887 834.609 113.71 834.609 113.423C834.609 113.026 834.697 112.827 834.873 112.827C835.492 112.827 836.132 112.772 836.794 112.661C837.545 112.551 838.229 112.087 838.848 111.27C839.466 110.453 839.775 109.217 839.775 107.561V107.296C839.775 106.038 839.389 105.166 838.616 104.68C838.13 104.371 837.611 104.216 837.059 104.216C836.353 104.216 835.701 104.338 835.105 104.581C834.509 104.823 834.09 105.077 833.847 105.342C833.604 105.607 833.483 105.74 833.483 105.74H833.582C833.648 105.762 833.736 105.784 833.847 105.806C833.957 105.828 834.068 105.883 834.178 105.972C834.288 106.06 834.421 106.137 834.575 106.203C834.73 106.27 834.84 106.391 834.907 106.568C834.973 106.744 835.061 106.91 835.172 107.064C835.282 107.219 835.315 107.44 835.271 107.727C835.271 108.212 835.116 108.643 834.807 109.018C834.498 109.394 834.001 109.592 833.317 109.614Z" fill="white"/>
</g>
<g id="Group_13">
<path id="Vector_9" d="M848.222 101.226C847.801 101.226 847.465 101.085 847.215 100.804C846.966 100.523 846.841 100.18 846.841 99.774C846.841 98.6658 847.254 97.7058 848.082 96.8941C848.909 96.0824 849.939 95.6766 851.172 95.6766C852.593 95.6766 853.779 96.1136 854.731 96.9877C855.684 97.8619 856.167 98.9936 856.183 100.383C856.183 101.054 856.027 101.694 855.715 102.303C855.403 102.912 855.028 103.442 854.591 103.895C854.154 104.348 853.529 104.925 852.718 105.628C852.156 106.111 851.375 106.829 850.376 107.782L848.995 109.093L850.774 109.116C853.225 109.116 854.528 109.077 854.685 108.999C854.794 108.968 854.981 108.273 855.247 106.915V106.845H856.183V106.915C856.167 106.962 856.066 107.672 855.879 109.046C855.691 110.42 855.574 111.138 855.527 111.2V111.27H846.841V110.826V110.545C846.841 110.435 846.888 110.318 846.981 110.193C847.075 110.068 847.309 109.795 847.684 109.374C848.136 108.874 848.527 108.437 848.854 108.063C848.995 107.907 849.26 107.618 849.651 107.196C850.041 106.775 850.306 106.486 850.447 106.33C850.587 106.174 850.813 105.916 851.126 105.557C851.438 105.198 851.656 104.933 851.781 104.761C851.906 104.59 852.086 104.355 852.32 104.059C852.554 103.762 852.718 103.512 852.811 103.31C852.905 103.107 853.022 102.88 853.163 102.631C853.303 102.381 853.405 102.131 853.467 101.881C853.529 101.632 853.584 101.397 853.631 101.179C853.678 100.96 853.701 100.703 853.701 100.406C853.701 99.4228 853.436 98.5721 852.905 97.8541C852.374 97.136 851.617 96.777 850.634 96.777C850.119 96.777 849.666 96.9097 849.276 97.1751C848.886 97.4404 848.612 97.698 848.456 97.9477C848.3 98.1975 848.222 98.3458 848.222 98.3926C848.222 98.4082 848.261 98.416 848.339 98.416C848.62 98.416 848.909 98.5253 849.206 98.7438C849.502 98.9623 849.651 99.3214 849.651 99.8209C849.651 100.211 849.526 100.539 849.276 100.804C849.026 101.07 848.675 101.21 848.222 101.226Z" fill="white"/>
</g>
</g>
</g>
</g>
</g>
</g>
<g id="Group 248">
<path id="Ellipse 95 (Stroke)" fill-rule="evenodd" clip-rule="evenodd" d="M143.5 122C152.613 122 160 114.613 160 105.5C160 96.3873 152.613 89 143.5 89C134.387 89 127 96.3873 127 105.5C127 114.613 134.387 122 143.5 122ZM143.5 125C154.27 125 163 116.27 163 105.5C163 94.7304 154.27 86 143.5 86C132.73 86 124 94.7304 124 105.5C124 116.27 132.73 125 143.5 125Z" fill="#2CF30B"/>
<path id="Ellipse 96 (Stroke)" fill-rule="evenodd" clip-rule="evenodd" d="M229.5 341C238.613 341 246 333.613 246 324.5C246 315.387 238.613 308 229.5 308C220.387 308 213 315.387 213 324.5C213 333.613 220.387 341 229.5 341ZM229.5 344C240.27 344 249 335.27 249 324.5C249 313.73 240.27 305 229.5 305C218.73 305 210 313.73 210 324.5C210 335.27 218.73 344 229.5 344Z" fill="#2CF30B"/>
<path id="Ellipse 97 (Stroke)" fill-rule="evenodd" clip-rule="evenodd" d="M723.5 226C732.613 226 740 218.613 740 209.5C740 200.387 732.613 193 723.5 193C714.387 193 707 200.387 707 209.5C707 218.613 714.387 226 723.5 226ZM723.5 229C734.27 229 743 220.27 743 209.5C743 198.73 734.27 190 723.5 190C712.73 190 704 198.73 704 209.5C704 220.27 712.73 229 723.5 229Z" fill="#2CF30B"/>
</g>
<g id="T_n=4n-1">
<g id="Group_14">
<g id="Group_15">
<g id="Group_16">
<path id="Vector_10" d="M474.742 263.374C474.247 263.374 474 263.27 474 263.062C474 262.932 474.208 262.202 474.625 260.874C475.042 259.546 475.484 258.231 475.953 256.929L476.617 255.015C476.747 254.547 476.916 254.208 477.125 254H495.405H498.92C499.754 254 500.248 254.013 500.405 254.039C500.561 254.065 500.652 254.182 500.678 254.39C500.678 254.547 500.457 256.031 500.014 258.843C499.571 261.656 499.324 263.075 499.272 263.101C499.272 263.283 499.025 263.374 498.53 263.374C498.295 263.374 498.139 263.374 498.061 263.374C497.983 263.374 497.905 263.309 497.827 263.179L497.749 263.062C497.749 262.906 497.827 262.32 497.983 261.304C498.139 260.289 498.217 259.494 498.217 258.921C498.217 258.01 498.048 257.32 497.71 256.851C497.371 256.383 496.655 256.057 495.561 255.875C495.431 255.849 494.676 255.823 493.296 255.797C492.098 255.797 491.343 255.81 491.03 255.836C490.718 255.862 490.483 255.966 490.327 256.148C490.301 256.174 489.377 259.807 487.554 267.046C485.731 274.285 484.82 277.97 484.82 278.1C484.82 278.412 485.965 278.595 488.257 278.647C489.09 278.647 489.624 278.66 489.858 278.686C490.093 278.712 490.21 278.829 490.21 279.037C490.21 279.168 490.171 279.35 490.093 279.584C489.989 280.053 489.871 280.326 489.741 280.405L489.663 280.444C489.585 280.444 489.494 280.444 489.39 280.444C489.26 280.444 488.582 280.431 487.359 280.405C486.135 280.379 484.377 280.365 482.085 280.365C478.726 280.365 476.591 280.392 475.68 280.444H475.094C474.937 280.287 474.859 280.17 474.859 280.092C474.859 280.014 474.885 279.78 474.937 279.389C475.042 279.05 475.172 278.803 475.328 278.647H476.422H476.851C478.935 278.647 480.172 278.53 480.562 278.295C480.588 278.269 480.614 278.256 480.64 278.256C480.77 278.178 480.901 277.918 481.031 277.475C481.161 277.032 481.682 274.988 482.593 271.343C483.036 269.572 483.4 268.127 483.687 267.007C485.51 259.846 486.421 256.187 486.421 256.031C486.421 255.901 486.044 255.836 485.288 255.836H484.078C482.333 255.836 481.187 255.914 480.64 256.07C479.468 256.33 478.557 256.864 477.906 257.671C477.255 258.479 476.552 259.989 475.797 262.202C475.614 262.775 475.484 263.114 475.406 263.218C475.328 263.322 475.146 263.374 474.859 263.374H474.742Z" fill="white"/>
</g>
<g id="Group_17">
<path id="Vector_11" d="M496.571 278.377C496.589 278.267 496.617 278.119 496.654 277.935C496.69 277.751 496.801 277.401 496.985 276.886C497.169 276.37 497.353 275.938 497.537 275.588C497.721 275.238 498.025 274.897 498.449 274.566C498.872 274.235 499.296 274.078 499.719 274.097C500.382 274.097 500.934 274.262 501.376 274.594C501.818 274.925 502.094 275.238 502.204 275.533C502.315 275.827 502.37 276.02 502.37 276.113C502.37 276.149 502.379 276.168 502.398 276.168L502.701 275.864C503.824 274.686 505.104 274.097 506.54 274.097C507.534 274.097 508.335 274.345 508.943 274.842C509.55 275.339 509.863 276.067 509.882 277.024C509.9 277.981 509.55 279.426 508.832 281.359C508.114 283.293 507.764 284.462 507.783 284.867C507.783 285.345 507.939 285.585 508.252 285.585C508.363 285.585 508.445 285.575 508.501 285.557C509.035 285.465 509.513 285.115 509.937 284.508C510.36 283.9 510.682 283.164 510.903 282.298C510.94 282.151 511.124 282.077 511.456 282.077C511.824 282.077 512.008 282.151 512.008 282.298C512.008 282.317 511.971 282.455 511.897 282.713C511.75 283.247 511.548 283.771 511.29 284.287C511.032 284.802 510.609 285.318 510.02 285.833C509.43 286.349 508.795 286.597 508.114 286.579C507.249 286.579 506.623 286.33 506.236 285.833C505.85 285.336 505.656 284.821 505.656 284.287C505.656 283.937 505.988 282.832 506.65 280.973C507.313 279.113 507.654 277.714 507.672 276.775C507.672 275.689 507.267 275.146 506.457 275.146H506.319C504.736 275.146 503.401 276.076 502.315 277.935L502.122 278.267L501.21 281.967C500.603 284.379 500.253 285.677 500.161 285.861C499.921 286.358 499.526 286.606 498.973 286.606C498.734 286.606 498.541 286.551 498.393 286.441C498.246 286.33 498.145 286.22 498.09 286.109C498.034 285.999 498.016 285.907 498.034 285.833C498.034 285.594 498.384 284.093 499.084 281.332C499.783 278.57 500.152 277.07 500.188 276.831C500.207 276.738 500.216 276.527 500.216 276.195C500.216 275.477 499.995 275.118 499.553 275.118C498.854 275.118 498.274 276.039 497.814 277.88C497.703 278.248 497.648 278.441 497.648 278.46C497.611 278.57 497.436 278.626 497.123 278.626H496.736C496.626 278.515 496.571 278.432 496.571 278.377Z" fill="white"/>
</g>
</g>
<g id="Group_18">
<path id="Vector_12" d="M527.552 266.89C527.552 266.551 527.734 266.291 528.099 266.108H552.98C553.371 266.317 553.566 266.577 553.566 266.89C553.566 267.176 553.384 267.423 553.019 267.632L540.598 267.671H528.177C527.76 267.541 527.552 267.28 527.552 266.89ZM527.552 274.467C527.552 274.077 527.76 273.816 528.177 273.686H553.019C553.384 273.947 553.566 274.207 553.566 274.467C553.566 274.806 553.371 275.066 552.98 275.249H528.099C527.734 275.066 527.552 274.806 527.552 274.467Z" fill="white"/>
</g>
<g id="Group_19">
<path id="Vector_13" d="M584.65 280.444C584.181 280.365 582.502 280.326 579.611 280.326C576.59 280.326 574.846 280.365 574.377 280.444H574.026V278.647H575.236C575.757 278.647 576.109 278.647 576.291 278.647C576.473 278.647 576.695 278.621 576.955 278.569C577.215 278.517 577.398 278.452 577.502 278.373C577.606 278.295 577.697 278.191 577.775 278.061C577.801 278.009 577.814 277.306 577.814 275.952V273.999H567.698V272.202L573.596 263.179C577.58 257.138 579.598 254.104 579.65 254.078C579.702 254.026 579.976 254 580.47 254H581.174L581.408 254.234V272.202H585.001V273.999H581.408V275.991C581.408 277.058 581.408 277.683 581.408 277.866C581.408 278.048 581.486 278.204 581.642 278.334C581.851 278.517 582.593 278.621 583.869 278.647H585.001V280.444H584.65ZM578.049 272.202V259.156L569.495 272.163L573.752 272.202H578.049Z" fill="white"/>
</g>
<g id="Group_20">
<path id="Vector_14" d="M586.954 269.233C586.98 269.077 587.019 268.869 587.071 268.608C587.123 268.348 587.28 267.853 587.54 267.124C587.8 266.395 588.061 265.783 588.321 265.288C588.582 264.794 589.011 264.312 589.61 263.843C590.209 263.374 590.808 263.153 591.407 263.179C592.344 263.179 593.126 263.413 593.751 263.882C594.376 264.351 594.766 264.794 594.922 265.21C595.079 265.627 595.157 265.9 595.157 266.03C595.157 266.082 595.17 266.109 595.196 266.109L595.625 265.679C597.214 264.012 599.024 263.179 601.055 263.179C602.461 263.179 603.594 263.531 604.453 264.234C605.312 264.937 605.755 265.965 605.781 267.319C605.807 268.673 605.312 270.718 604.297 273.452C603.281 276.186 602.787 277.84 602.813 278.412C602.813 279.09 603.034 279.428 603.477 279.428C603.633 279.428 603.75 279.415 603.828 279.389C604.583 279.259 605.26 278.764 605.859 277.905C606.458 277.045 606.914 276.004 607.226 274.78C607.278 274.572 607.539 274.467 608.008 274.467C608.528 274.467 608.789 274.572 608.789 274.78C608.789 274.806 608.737 275.001 608.633 275.366C608.424 276.121 608.138 276.863 607.773 277.592C607.409 278.321 606.81 279.05 605.976 279.78C605.143 280.509 604.245 280.86 603.281 280.834C602.057 280.834 601.172 280.483 600.625 279.78C600.078 279.077 599.805 278.347 599.805 277.592C599.805 277.097 600.274 275.535 601.211 272.905C602.149 270.275 602.63 268.296 602.656 266.968C602.656 265.431 602.083 264.663 600.938 264.663H600.742C598.503 264.663 596.615 265.978 595.079 268.608L594.805 269.077L593.516 274.311C592.657 277.722 592.162 279.558 592.032 279.819C591.693 280.522 591.134 280.873 590.352 280.873C590.014 280.873 589.74 280.795 589.532 280.639C589.324 280.483 589.181 280.326 589.102 280.17C589.024 280.014 588.998 279.884 589.024 279.78C589.024 279.441 589.519 277.319 590.509 273.413C591.498 269.507 592.019 267.384 592.071 267.046C592.097 266.916 592.11 266.616 592.11 266.148C592.11 265.132 591.798 264.624 591.173 264.624C590.183 264.624 589.363 265.926 588.712 268.53C588.556 269.051 588.477 269.324 588.477 269.351C588.425 269.507 588.178 269.585 587.735 269.585H587.188C587.032 269.429 586.954 269.311 586.954 269.233Z" fill="white"/>
</g>
<g id="Group_21">
<path id="Vector_15" d="M621.53 271.186C621.53 271.186 621.53 271.017 621.53 270.679C621.53 270.34 621.713 270.08 622.077 269.897H644.771C645.162 270.106 645.357 270.366 645.357 270.679C645.357 270.991 645.162 271.251 644.771 271.46H622.077C621.713 271.277 621.53 271.017 621.53 270.679V271.186Z" fill="white"/>
</g>
<g id="Group_22">
<path id="Vector_16" d="M665.641 257.867L665.134 258.062C664.769 258.192 664.248 258.323 663.571 258.453C662.894 258.583 662.139 258.674 661.306 258.726H660.563V256.929H661.306C662.53 256.877 663.662 256.682 664.704 256.343C665.745 256.005 666.475 255.692 666.891 255.406C667.308 255.12 667.672 254.833 667.985 254.547C668.037 254.469 668.193 254.429 668.454 254.429C668.688 254.429 668.909 254.508 669.118 254.664V266.343L669.157 278.061C669.339 278.243 669.495 278.36 669.625 278.412C669.756 278.465 670.068 278.517 670.563 278.569C671.058 278.621 671.865 278.647 672.985 278.647H674V280.444H673.571C673.024 280.365 670.953 280.326 667.36 280.326C663.818 280.326 661.774 280.365 661.228 280.444H660.759V278.647H661.774C662.347 278.647 662.842 278.647 663.259 278.647C663.675 278.647 664.001 278.634 664.235 278.608C664.469 278.582 664.678 278.543 664.86 278.491C665.042 278.439 665.147 278.412 665.173 278.412C665.199 278.412 665.277 278.347 665.407 278.217C665.537 278.087 665.615 278.035 665.641 278.061V257.867Z" fill="white"/>
</g>
</g>
</g>
<g id="99=4n-1\;&#10;\Rightarrow\;n=\frac{100}{4}=25">
<g id="Group_23">
<g id="Group_24">
<path id="Vector_17" d="M371.464 344.016C370.281 345.89 368.802 346.827 367.027 346.827C365.104 346.827 363.526 346.1 362.293 344.645C361.06 343.19 360.321 341.637 360.074 339.985C360.025 339.591 360 339.098 360 338.506V338.21C360 335.917 360.851 333.92 362.552 332.219C364.031 330.74 365.658 330 367.433 330C367.483 330 367.557 330 367.655 330C367.754 330 367.853 330.012 367.951 330.037H368.099C368.395 330.037 368.703 330.062 369.024 330.111C369.344 330.16 369.8 330.308 370.392 330.555C370.984 330.801 371.563 331.196 372.13 331.738C372.697 332.281 373.227 333.008 373.72 333.92C374.781 336.09 375.311 338.876 375.311 342.278C375.311 345.73 374.571 348.651 373.092 351.043C372.229 352.424 371.193 353.496 369.985 354.26C368.777 355.025 367.495 355.419 366.139 355.444C364.635 355.444 363.402 355.086 362.441 354.371C361.479 353.656 360.986 352.596 360.962 351.191C360.937 349.786 361.59 349.095 362.922 349.12C363.464 349.12 363.92 349.292 364.29 349.638C364.66 349.983 364.845 350.464 364.845 351.08C364.845 351.524 364.734 351.906 364.512 352.226C364.29 352.547 364.093 352.744 363.92 352.818C363.748 352.892 363.587 352.954 363.439 353.003L363.291 353.04C363.291 353.089 363.378 353.163 363.55 353.262C363.723 353.361 364.043 353.484 364.512 353.632C364.98 353.78 365.498 353.841 366.065 353.817H366.287C367.766 353.817 369.011 353.028 370.022 351.45C370.984 350.069 371.464 347.678 371.464 344.275V344.016ZM367.47 345.459C368.654 345.459 369.603 344.855 370.318 343.647C371.033 342.438 371.403 340.799 371.428 338.728C371.428 336.805 371.329 335.424 371.132 334.586C371.082 334.339 371.008 334.093 370.91 333.846C370.811 333.6 370.639 333.279 370.392 332.885C370.145 332.49 369.776 332.157 369.283 331.886C368.789 331.615 368.21 331.492 367.544 331.516C366.607 331.516 365.806 331.849 365.141 332.515C364.623 333.057 364.29 333.698 364.142 334.438C363.994 335.178 363.908 336.472 363.883 338.321C363.883 340.367 363.945 341.748 364.068 342.463C364.191 343.178 364.438 343.757 364.808 344.201C365.424 345.04 366.312 345.459 367.47 345.459Z" fill="white"/>
<path id="Vector_18" d="M389.956 344.016C388.772 345.89 387.293 346.827 385.518 346.827C383.595 346.827 382.017 346.1 380.784 344.645C379.551 343.19 378.812 341.637 378.565 339.985C378.516 339.591 378.491 339.098 378.491 338.506V338.21C378.491 335.917 379.342 333.92 381.043 332.219C382.522 330.74 384.149 330 385.925 330C385.974 330 386.048 330 386.147 330C386.245 330 386.344 330.012 386.442 330.037H386.59C386.886 330.037 387.194 330.062 387.515 330.111C387.835 330.16 388.292 330.308 388.883 330.555C389.475 330.801 390.054 331.196 390.621 331.738C391.188 332.281 391.719 333.008 392.212 333.92C393.272 336.09 393.802 338.876 393.802 342.278C393.802 345.73 393.062 348.651 391.583 351.043C390.72 352.424 389.685 353.496 388.476 354.26C387.268 355.025 385.986 355.419 384.63 355.444C383.126 355.444 381.894 355.086 380.932 354.371C379.971 353.656 379.477 352.596 379.453 351.191C379.428 349.786 380.081 349.095 381.413 349.12C381.955 349.12 382.411 349.292 382.781 349.638C383.151 349.983 383.336 350.464 383.336 351.08C383.336 351.524 383.225 351.906 383.003 352.226C382.781 352.547 382.584 352.744 382.411 352.818C382.239 352.892 382.078 352.954 381.931 353.003L381.783 353.04C381.783 353.089 381.869 353.163 382.042 353.262C382.214 353.361 382.535 353.484 383.003 353.632C383.471 353.78 383.989 353.841 384.556 353.817H384.778C386.257 353.817 387.503 353.028 388.513 351.45C389.475 350.069 389.956 347.678 389.956 344.275V344.016ZM385.962 345.459C387.145 345.459 388.094 344.855 388.809 343.647C389.524 342.438 389.894 340.799 389.919 338.728C389.919 336.805 389.82 335.424 389.623 334.586C389.574 334.339 389.5 334.093 389.401 333.846C389.302 333.6 389.13 333.279 388.883 332.885C388.637 332.49 388.267 332.157 387.774 331.886C387.281 331.615 386.701 331.492 386.036 331.516C385.099 331.516 384.297 331.849 383.632 332.515C383.114 333.057 382.781 333.698 382.633 334.438C382.485 335.178 382.399 336.472 382.374 338.321C382.374 340.367 382.436 341.748 382.559 342.463C382.683 343.178 382.929 343.757 383.299 344.201C383.915 345.04 384.803 345.459 385.962 345.459Z" fill="white"/>
</g>
<g id="Group_25">
<path id="Vector_19" d="M407.773 341.797C407.773 341.477 407.946 341.23 408.291 341.058H431.849C432.219 341.255 432.404 341.501 432.404 341.797C432.404 342.068 432.231 342.303 431.886 342.5L420.126 342.537H408.365C407.971 342.414 407.773 342.167 407.773 341.797ZM407.773 348.972C407.773 348.602 407.971 348.355 408.365 348.232H431.886C432.231 348.479 432.404 348.725 432.404 348.972C432.404 349.292 432.219 349.539 431.849 349.711H408.291C407.946 349.539 407.773 349.292 407.773 348.972Z" fill="white"/>
</g>
<g id="Group_26">
<path id="Vector_20" d="M461.834 354.63C461.39 354.556 459.8 354.519 457.063 354.519C454.203 354.519 452.551 354.556 452.108 354.63H451.775V352.929H452.921C453.414 352.929 453.747 352.929 453.92 352.929C454.092 352.929 454.302 352.904 454.548 352.855C454.795 352.806 454.968 352.744 455.066 352.67C455.165 352.596 455.251 352.497 455.325 352.374C455.35 352.325 455.362 351.659 455.362 350.377V348.528H445.784V346.827L451.368 338.284C455.14 332.564 457.051 329.692 457.1 329.667C457.15 329.618 457.408 329.593 457.877 329.593H458.543L458.764 329.815V346.827H462.167V348.528H458.764V350.414C458.764 351.425 458.764 352.017 458.764 352.189C458.764 352.362 458.838 352.51 458.986 352.633C459.184 352.806 459.886 352.904 461.094 352.929H462.167V354.63H461.834ZM455.584 346.827V334.475L447.485 346.79L451.516 346.827H455.584Z" fill="white"/>
</g>
<g id="Group_27">
<path id="Vector_21" d="M464.016 344.016C464.041 343.868 464.078 343.671 464.127 343.425C464.176 343.178 464.324 342.71 464.571 342.019C464.817 341.329 465.064 340.75 465.31 340.281C465.557 339.813 465.964 339.357 466.531 338.913C467.098 338.469 467.665 338.259 468.232 338.284C469.12 338.284 469.859 338.506 470.451 338.95C471.043 339.394 471.413 339.813 471.56 340.207C471.708 340.602 471.782 340.861 471.782 340.984C471.782 341.033 471.795 341.058 471.819 341.058L472.226 340.651C473.73 339.073 475.444 338.284 477.367 338.284C478.698 338.284 479.771 338.617 480.584 339.283C481.398 339.948 481.817 340.922 481.842 342.204C481.866 343.486 481.398 345.422 480.436 348.01C479.475 350.599 479.006 352.165 479.031 352.707C479.031 353.348 479.24 353.669 479.66 353.669C479.808 353.669 479.918 353.656 479.992 353.632C480.707 353.509 481.348 353.04 481.916 352.226C482.483 351.413 482.914 350.427 483.21 349.268C483.259 349.071 483.506 348.972 483.95 348.972C484.443 348.972 484.689 349.071 484.689 349.268C484.689 349.293 484.64 349.477 484.541 349.823C484.344 350.538 484.073 351.24 483.728 351.931C483.382 352.621 482.815 353.311 482.026 354.002C481.238 354.692 480.387 355.025 479.475 355C478.316 355 477.478 354.667 476.96 354.002C476.442 353.336 476.183 352.646 476.183 351.931C476.183 351.462 476.627 349.983 477.515 347.493C478.402 345.003 478.858 343.129 478.883 341.871C478.883 340.417 478.341 339.689 477.256 339.689H477.071C474.951 339.689 473.163 340.935 471.708 343.425L471.45 343.868L470.229 348.824C469.416 352.054 468.947 353.792 468.824 354.039C468.503 354.704 467.973 355.037 467.234 355.037C466.913 355.037 466.654 354.963 466.457 354.815C466.26 354.667 466.124 354.519 466.05 354.371C465.976 354.223 465.952 354.1 465.976 354.002C465.976 353.681 466.445 351.672 467.381 347.974C468.318 344.275 468.811 342.266 468.861 341.945C468.885 341.822 468.898 341.539 468.898 341.095C468.898 340.133 468.602 339.652 468.01 339.652C467.073 339.652 466.297 340.885 465.68 343.351C465.532 343.844 465.458 344.103 465.458 344.127C465.409 344.275 465.175 344.349 464.756 344.349H464.238C464.09 344.201 464.016 344.09 464.016 344.016Z" fill="white"/>
</g>
<g id="Group_28">
<path id="Vector_22" d="M496.753 345.866C496.753 345.866 496.753 345.705 496.753 345.385C496.753 345.064 496.926 344.818 497.271 344.645H518.757C519.127 344.842 519.312 345.089 519.312 345.385C519.312 345.681 519.127 345.927 518.757 346.125H497.271C496.926 345.952 496.753 345.705 496.753 345.385V345.866Z" fill="white"/>
</g>
<g id="Group_29">
<path id="Vector_23" d="M538.514 333.254L538.033 333.439C537.688 333.563 537.195 333.686 536.554 333.809C535.913 333.932 535.198 334.019 534.409 334.068H533.706V332.367H534.409C535.567 332.318 536.64 332.133 537.626 331.812C538.612 331.492 539.303 331.196 539.697 330.925C540.092 330.653 540.437 330.382 540.733 330.111C540.782 330.037 540.93 330 541.176 330C541.398 330 541.608 330.074 541.805 330.222V341.28L541.842 352.374C542.015 352.547 542.163 352.658 542.286 352.707C542.409 352.756 542.705 352.806 543.174 352.855C543.642 352.904 544.406 352.929 545.466 352.929H546.428V354.63H546.021C545.503 354.556 543.543 354.519 540.141 354.519C536.788 354.519 534.853 354.556 534.335 354.63H533.891V352.929H534.853C535.395 352.929 535.863 352.929 536.258 352.929C536.652 352.929 536.96 352.917 537.182 352.892C537.404 352.867 537.602 352.83 537.774 352.781C537.947 352.732 538.045 352.707 538.07 352.707C538.095 352.707 538.169 352.645 538.292 352.522C538.415 352.399 538.489 352.35 538.514 352.374V333.254Z" fill="white"/>
</g>
<g id="Group_30">
<path id="Vector_24" d="M591.124 335.621C591.124 335.35 591.321 335.214 591.716 335.214C591.839 335.214 591.937 335.214 592.011 335.214C592.085 335.214 592.147 335.214 592.196 335.214C592.246 335.214 592.295 335.227 592.344 335.251C592.394 335.276 592.418 335.288 592.418 335.288C592.418 335.288 592.443 335.325 592.492 335.399C592.541 335.473 592.566 335.51 592.566 335.51C592.566 335.51 592.603 335.572 592.677 335.695C593.589 337.52 594.797 339.134 596.301 340.54C597.805 341.945 599.174 342.944 600.406 343.535C601.639 344.127 602.823 344.583 603.957 344.904C604.376 345.027 604.585 345.187 604.585 345.384C604.585 345.582 604.474 345.717 604.253 345.791C604.031 345.865 603.575 346.001 602.884 346.198C602.194 346.395 601.479 346.691 600.739 347.086C597.189 348.811 594.502 351.474 592.677 355.074C592.578 355.296 592.492 355.419 592.418 355.444C592.344 355.468 592.159 355.493 591.863 355.518C591.37 355.518 591.124 355.431 591.124 355.259C591.124 355.16 591.185 354.951 591.309 354.63C592.172 352.929 593.232 351.413 594.489 350.081L594.859 349.711H572.263C571.918 349.539 571.745 349.292 571.745 348.972C571.745 348.602 571.942 348.355 572.337 348.232H596.486L596.856 347.936C597.818 347.197 599.26 346.346 601.183 345.384C601.158 345.36 600.936 345.249 600.517 345.052C600.098 344.854 599.543 344.559 598.853 344.164C598.163 343.77 597.497 343.326 596.856 342.833L596.486 342.537H572.337C571.942 342.414 571.745 342.167 571.745 341.797C571.745 341.477 571.918 341.23 572.263 341.058H594.859L594.489 340.688C593.676 339.825 592.911 338.826 592.196 337.692C591.481 336.558 591.124 335.868 591.124 335.621Z" fill="white"/>
</g>
<g id="Group_31">
<path id="Vector_25" d="M627.977 344.016C628.002 343.868 628.039 343.671 628.088 343.425C628.137 343.178 628.285 342.71 628.532 342.019C628.778 341.329 629.025 340.75 629.271 340.281C629.518 339.813 629.925 339.357 630.492 338.913C631.059 338.469 631.626 338.259 632.193 338.284C633.081 338.284 633.82 338.506 634.412 338.95C635.004 339.394 635.374 339.813 635.521 340.207C635.669 340.602 635.743 340.861 635.743 340.984C635.743 341.033 635.756 341.058 635.78 341.058L636.187 340.651C637.691 339.073 639.405 338.284 641.328 338.284C642.659 338.284 643.731 338.617 644.545 339.283C645.359 339.948 645.778 340.922 645.802 342.204C645.827 343.486 645.359 345.422 644.397 348.01C643.436 350.599 642.967 352.165 642.992 352.707C642.992 353.348 643.201 353.669 643.621 353.669C643.768 353.669 643.879 353.656 643.953 353.632C644.668 353.509 645.309 353.04 645.876 352.226C646.444 351.413 646.875 350.427 647.171 349.268C647.22 349.071 647.467 348.972 647.91 348.972C648.404 348.972 648.65 349.071 648.65 349.268C648.65 349.293 648.601 349.477 648.502 349.823C648.305 350.538 648.034 351.24 647.689 351.931C647.343 352.621 646.776 353.311 645.987 354.002C645.198 354.692 644.348 355.025 643.436 355C642.277 355 641.439 354.667 640.921 354.002C640.403 353.336 640.144 352.646 640.144 351.931C640.144 351.462 640.588 349.983 641.476 347.493C642.363 345.003 642.819 343.129 642.844 341.871C642.844 340.417 642.302 339.689 641.217 339.689H641.032C638.911 339.689 637.124 340.935 635.669 343.425L635.41 343.868L634.19 348.824C633.376 352.054 632.908 353.792 632.785 354.039C632.464 354.704 631.934 355.037 631.195 355.037C630.874 355.037 630.615 354.963 630.418 354.815C630.221 354.667 630.085 354.519 630.011 354.371C629.937 354.223 629.912 354.1 629.937 354.002C629.937 353.681 630.406 351.672 631.342 347.974C632.279 344.275 632.772 342.266 632.822 341.945C632.846 341.822 632.859 341.539 632.859 341.095C632.859 340.133 632.563 339.652 631.971 339.652C631.034 339.652 630.258 340.885 629.641 343.351C629.493 343.844 629.419 344.103 629.419 344.127C629.37 344.275 629.136 344.349 628.717 344.349H628.199C628.051 344.201 627.977 344.09 627.977 344.016Z" fill="white"/>
</g>
<g id="Group_32">
<path id="Vector_26" d="M661.735 341.797C661.735 341.477 661.907 341.23 662.253 341.058H685.81C686.18 341.255 686.365 341.501 686.365 341.797C686.365 342.068 686.192 342.303 685.847 342.5L674.087 342.537H662.327C661.932 342.414 661.735 342.167 661.735 341.797ZM661.735 348.972C661.735 348.602 661.932 348.355 662.327 348.232H685.847C686.192 348.479 686.365 348.725 686.365 348.972C686.365 349.292 686.18 349.539 685.81 349.711H662.253C661.907 349.539 661.735 349.292 661.735 348.972Z" fill="white"/>
</g>
<g id="Group_33">
<g id="Group_34">
<path id="Vector_27" d="M714.723 308.254L714.242 308.439C713.897 308.563 713.404 308.686 712.763 308.809C712.122 308.932 711.407 309.019 710.618 309.068H709.916V307.367H710.618C711.777 307.318 712.849 307.133 713.836 306.812C714.822 306.492 715.512 306.196 715.907 305.925C716.301 305.653 716.646 305.382 716.942 305.111C716.991 305.037 717.139 305 717.386 305C717.608 305 717.817 305.074 718.015 305.222V316.28L718.052 327.374C718.224 327.547 718.372 327.658 718.495 327.707C718.619 327.756 718.915 327.806 719.383 327.855C719.851 327.904 720.616 327.929 721.676 327.929H722.637V329.63H722.231C721.713 329.556 719.753 329.519 716.35 329.519C712.997 329.519 711.062 329.556 710.544 329.63H710.1V327.929H711.062C711.604 327.929 712.073 327.929 712.467 327.929C712.862 327.929 713.17 327.917 713.392 327.892C713.614 327.867 713.811 327.83 713.984 327.781C714.156 327.732 714.255 327.707 714.279 327.707C714.304 327.707 714.378 327.645 714.501 327.522C714.625 327.399 714.699 327.35 714.723 327.374V308.254Z" fill="white"/>
<path id="Vector_28" d="M728.887 307.996C730.268 305.999 732.154 305 734.546 305C735.729 305 736.912 305.321 738.096 305.962C739.279 306.603 740.241 307.737 740.98 309.364C741.893 311.41 742.349 314.221 742.349 317.796C742.349 321.617 741.819 324.539 740.759 326.561C740.265 327.596 739.587 328.422 738.725 329.039C737.862 329.655 737.11 330.037 736.469 330.185C735.828 330.333 735.199 330.419 734.583 330.444C733.942 330.444 733.3 330.37 732.659 330.222C732.018 330.074 731.266 329.68 730.404 329.039C729.541 328.397 728.863 327.572 728.37 326.561C727.309 324.539 726.779 321.617 726.779 317.796C726.779 313.506 727.482 310.239 728.887 307.996ZM737.208 307.552C736.469 306.763 735.593 306.368 734.583 306.368C733.547 306.368 732.659 306.763 731.92 307.552C731.303 308.193 730.897 309.08 730.699 310.215C730.502 311.349 730.404 313.716 730.404 317.315C730.404 321.211 730.502 323.775 730.699 325.007C730.897 326.24 731.34 327.214 732.031 327.929C732.721 328.669 733.572 329.039 734.583 329.039C735.569 329.039 736.407 328.669 737.097 327.929C737.812 327.189 738.256 326.154 738.429 324.823C738.601 323.491 738.7 320.989 738.725 317.315C738.725 313.74 738.626 311.386 738.429 310.252C738.231 309.117 737.825 308.218 737.208 307.552Z" fill="white"/>
<path id="Vector_29" d="M747.378 307.996C748.759 305.999 750.645 305 753.036 305C754.22 305 755.403 305.321 756.587 305.962C757.77 306.603 758.732 307.737 759.471 309.364C760.383 311.41 760.84 314.221 760.84 317.796C760.84 321.617 760.309 324.539 759.249 326.561C758.756 327.596 758.078 328.422 757.215 329.039C756.352 329.655 755.6 330.037 754.959 330.185C754.318 330.333 753.69 330.419 753.073 330.444C752.432 330.444 751.791 330.37 751.15 330.222C750.509 330.074 749.757 329.68 748.894 329.039C748.031 328.397 747.353 327.572 746.86 326.561C745.8 324.539 745.27 321.617 745.27 317.796C745.27 313.506 745.973 310.239 747.378 307.996ZM755.699 307.552C754.959 306.763 754.084 306.368 753.073 306.368C752.038 306.368 751.15 306.763 750.411 307.552C749.794 308.193 749.387 309.08 749.19 310.215C748.993 311.349 748.894 313.716 748.894 317.315C748.894 321.211 748.993 323.775 749.19 325.007C749.387 326.24 749.831 327.214 750.521 327.929C751.212 328.669 752.062 329.039 753.073 329.039C754.059 329.039 754.898 328.669 755.588 327.929C756.303 327.189 756.747 326.154 756.919 324.823C757.092 323.491 757.191 320.989 757.215 317.315C757.215 313.74 757.117 311.386 756.919 310.252C756.722 309.117 756.315 308.218 755.699 307.552Z" fill="white"/>
</g>
<g id="Group_35">
<path id="Vector_30" d="M742.422 380C741.979 379.926 740.388 379.889 737.652 379.889C734.792 379.889 733.14 379.926 732.696 380H732.363V378.299H733.51C734.003 378.299 734.336 378.299 734.508 378.299C734.681 378.299 734.89 378.274 735.137 378.225C735.383 378.176 735.556 378.114 735.655 378.04C735.753 377.966 735.84 377.867 735.913 377.744C735.938 377.695 735.95 377.029 735.95 375.747V373.898H726.372V372.197L731.956 363.654C735.729 357.934 737.639 355.062 737.689 355.037C737.738 354.988 737.997 354.963 738.465 354.963H739.131L739.353 355.185V372.197H742.755V373.898H739.353V375.784C739.353 376.795 739.353 377.387 739.353 377.559C739.353 377.732 739.427 377.88 739.575 378.003C739.772 378.176 740.475 378.274 741.683 378.299H742.755V380H742.422ZM736.172 372.197V359.845L728.073 372.16L732.104 372.197H736.172Z" fill="white"/>
</g>
<path id="Vector_31" d="M766.017 346.494H703.147V344.275H766.017V346.494Z" fill="white"/>
</g>
<g id="Group_36">
<path id="Vector_32" d="M782.796 341.797C782.796 341.477 782.968 341.23 783.314 341.058H806.871C807.241 341.255 807.426 341.501 807.426 341.797C807.426 342.068 807.253 342.303 806.908 342.5L795.148 342.537H783.388C782.993 342.414 782.796 342.167 782.796 341.797ZM782.796 348.972C782.796 348.602 782.993 348.355 783.388 348.232H806.908C807.253 348.479 807.426 348.725 807.426 348.972C807.426 349.292 807.241 349.539 806.871 349.711H783.314C782.968 349.539 782.796 349.292 782.796 348.972Z" fill="white"/>
</g>
<g id="Group_37">
<path id="Vector_33" d="M823.803 338.765C823.137 338.765 822.607 338.543 822.212 338.099C821.818 337.655 821.621 337.113 821.621 336.472C821.621 334.721 822.274 333.205 823.581 331.923C824.887 330.641 826.515 330 828.462 330C830.706 330 832.58 330.69 834.084 332.071C835.588 333.452 836.352 335.239 836.377 337.433C836.377 338.494 836.13 339.504 835.637 340.466C835.144 341.427 834.552 342.266 833.862 342.981C833.171 343.696 832.185 344.608 830.903 345.717C830.016 346.482 828.783 347.616 827.205 349.12L825.023 351.191L827.834 351.228C831.704 351.228 833.763 351.166 834.01 351.043C834.182 350.994 834.478 349.896 834.897 347.751V347.64H836.377V347.751C836.352 347.825 836.192 348.947 835.896 351.117C835.6 353.286 835.415 354.421 835.341 354.519V354.63H821.621V353.927V353.484C821.621 353.311 821.695 353.126 821.842 352.929C821.99 352.732 822.36 352.3 822.952 351.635C823.667 350.846 824.283 350.155 824.801 349.564C825.023 349.317 825.442 348.861 826.058 348.195C826.675 347.53 827.094 347.073 827.316 346.827C827.538 346.58 827.895 346.174 828.388 345.606C828.881 345.039 829.227 344.62 829.424 344.349C829.621 344.078 829.905 343.708 830.274 343.24C830.644 342.771 830.903 342.377 831.051 342.056C831.199 341.736 831.384 341.378 831.606 340.984C831.828 340.589 831.988 340.195 832.087 339.8C832.185 339.406 832.271 339.036 832.345 338.691C832.419 338.346 832.456 337.939 832.456 337.47C832.456 335.917 832.037 334.573 831.199 333.439C830.361 332.305 829.165 331.738 827.612 331.738C826.798 331.738 826.083 331.948 825.467 332.367C824.85 332.786 824.419 333.193 824.172 333.587C823.926 333.982 823.803 334.216 823.803 334.29C823.803 334.315 823.864 334.327 823.987 334.327C824.431 334.327 824.887 334.499 825.356 334.845C825.824 335.19 826.058 335.757 826.058 336.546C826.058 337.162 825.861 337.68 825.467 338.099C825.072 338.518 824.518 338.74 823.803 338.765Z" fill="white"/>
<path id="Vector_34" d="M844.328 348.824C844.328 349.416 844.131 349.909 843.736 350.303C843.342 350.698 842.861 350.895 842.294 350.895H842.035C843.169 352.843 844.673 353.817 846.547 353.817C848.273 353.817 849.53 353.077 850.319 351.598C850.787 350.784 851.022 349.206 851.022 346.864C851.022 344.325 850.689 342.611 850.023 341.723C849.382 340.91 848.667 340.503 847.878 340.503H847.656C845.733 340.503 844.278 341.341 843.292 343.018C843.194 343.19 843.107 343.289 843.033 343.314C842.959 343.338 842.775 343.363 842.479 343.388C842.06 343.388 841.825 343.314 841.776 343.166C841.727 343.067 841.702 340.91 841.702 336.694V331.923C841.702 330.69 841.764 330.074 841.887 330.074C841.936 330.025 841.986 330 842.035 330C842.06 330 842.318 330.099 842.812 330.296C843.305 330.493 843.983 330.69 844.846 330.888C845.708 331.085 846.633 331.183 847.619 331.183C849.37 331.183 851.046 330.838 852.649 330.148C852.846 330.049 853.006 330 853.13 330C853.327 330 853.425 330.222 853.425 330.666V331.147C851.404 333.538 848.877 334.734 845.844 334.734C845.08 334.734 844.389 334.66 843.773 334.512L843.403 334.438V340.799C843.872 340.454 844.242 340.183 844.513 339.985C844.784 339.788 845.228 339.591 845.844 339.394C846.46 339.196 847.089 339.098 847.73 339.098C849.727 339.098 851.416 339.899 852.797 341.502C854.177 343.104 854.868 345.003 854.868 347.197C854.868 349.465 854.079 351.4 852.501 353.003C850.923 354.606 849 355.419 846.732 355.444C844.735 355.444 843.132 354.778 841.924 353.447C840.716 352.115 840.112 350.612 840.112 348.935C840.112 348.343 840.247 347.875 840.519 347.53C840.79 347.184 841.073 346.963 841.369 346.864C841.665 346.765 841.949 346.716 842.22 346.716C842.836 346.716 843.342 346.926 843.736 347.345C844.131 347.764 844.328 348.257 844.328 348.824Z" fill="white"/>
</g>
</g>
</g>
<g id="\therefore \#C=25^2=625">
<g id="Group_38">
<g id="Group_39">
<path id="Vector_35" d="M193.085 410.355C193.085 409.792 193.28 409.326 193.67 408.958C194.06 408.59 194.525 408.406 195.066 408.406C195.586 408.406 196.03 408.59 196.398 408.958C196.766 409.326 196.96 409.792 196.982 410.355C197.004 410.918 196.82 411.383 196.43 411.751C196.04 412.119 195.575 412.303 195.034 412.303C194.471 412.303 194.005 412.119 193.637 411.751C193.269 411.383 193.085 410.918 193.085 410.355ZM186.948 422.467C187.511 422.467 187.966 422.651 188.312 423.019C188.658 423.387 188.842 423.852 188.864 424.415C188.864 424.935 188.691 425.389 188.345 425.779C187.998 426.168 187.522 426.363 186.916 426.363C186.353 426.363 185.898 426.179 185.552 425.811C185.206 425.443 185.022 424.978 185 424.415C185 423.852 185.184 423.387 185.552 423.019C185.92 422.651 186.385 422.467 186.948 422.467ZM201.236 424.415C201.236 423.852 201.42 423.387 201.788 423.019C202.156 422.651 202.621 422.467 203.184 422.467C203.704 422.467 204.147 422.651 204.515 423.019C204.883 423.387 205.078 423.852 205.1 424.415C205.1 424.913 204.927 425.357 204.58 425.746C204.234 426.136 203.758 426.342 203.152 426.363C202.589 426.363 202.134 426.179 201.788 425.811C201.441 425.443 201.257 424.978 201.236 424.415Z" fill="white"/>
</g>
<g id="Group_40">
<path id="Vector_36" d="M216.718 412.433C216.718 412.151 216.87 411.935 217.173 411.783H225.063L226.427 406.685C227.272 403.395 227.769 401.641 227.921 401.425C228.029 401.252 228.192 401.165 228.408 401.165C228.798 401.165 229.014 401.36 229.058 401.75C229.058 401.836 228.625 403.503 227.759 406.75C226.871 409.954 226.427 411.61 226.427 411.718L226.395 411.783H232.532L233.896 406.685C234.783 403.33 235.27 401.587 235.357 401.457C235.487 401.263 235.66 401.165 235.877 401.165C236.028 401.165 236.169 401.219 236.299 401.327C236.429 401.436 236.494 401.555 236.494 401.685C236.494 401.901 236.071 403.59 235.227 406.75C234.34 409.954 233.896 411.61 233.896 411.718L233.863 411.783H239.643C239.968 411.957 240.13 412.173 240.13 412.433C240.13 412.714 240.022 412.887 239.806 412.952C239.589 413.017 239.102 413.061 238.344 413.082H236.558H233.474L232.824 415.55L232.142 418.05C232.142 418.072 233.398 418.083 235.909 418.083H238.279C239.059 418.083 239.557 418.115 239.773 418.18C239.99 418.245 240.109 418.429 240.13 418.732C240.152 419.035 239.99 419.252 239.643 419.382H231.753L230.389 424.48C229.501 427.835 229.014 429.578 228.928 429.708C228.798 429.903 228.625 430 228.408 430C228.257 430 228.116 429.946 227.986 429.838C227.856 429.729 227.791 429.6 227.791 429.448C227.791 429.232 228.213 427.543 229.058 424.382C229.945 421.222 230.389 419.577 230.389 419.447L230.421 419.382H224.284L222.92 424.48C222.033 427.835 221.546 429.578 221.459 429.708C221.329 429.903 221.156 430 220.94 430C220.788 430 220.647 429.946 220.517 429.838C220.388 429.729 220.323 429.6 220.323 429.448C220.323 429.232 220.745 427.543 221.589 424.382C222.477 421.222 222.92 419.577 222.92 419.447L222.953 419.382H217.173C216.87 419.23 216.718 419.014 216.718 418.732C216.718 418.408 216.891 418.191 217.238 418.083H223.342L223.992 415.615L224.674 413.115C224.674 413.093 223.429 413.082 220.94 413.082H217.238C216.891 412.974 216.718 412.758 216.718 412.433ZM232.142 413.115C232.142 413.093 231.125 413.082 229.09 413.082H226.005L225.356 415.55L224.674 418.05C224.674 418.072 225.691 418.083 227.726 418.083H230.811L231.46 415.615L232.142 413.115Z" fill="white"/>
</g>
<g id="Group_41">
<path id="Vector_37" d="M243.573 415.518C243.573 413.028 244.298 410.636 245.748 408.341C247.199 406.047 249.028 404.228 251.236 402.886C253.444 401.544 255.652 400.862 257.86 400.84C259.809 400.84 261.356 401.392 262.504 402.496C262.699 402.713 262.861 402.897 262.991 403.048C263.121 403.2 263.207 403.308 263.251 403.373L263.283 403.471C263.348 403.471 263.64 403.189 264.16 402.626C264.311 402.496 264.474 402.345 264.647 402.172C264.82 401.999 264.993 401.825 265.166 401.652C265.34 401.479 265.448 401.36 265.491 401.295L265.978 400.808H266.173C266.476 400.808 266.628 400.884 266.628 401.035C266.628 401.122 266.281 402.605 265.589 405.484C264.809 408.493 264.42 410.008 264.42 410.03C264.376 410.138 264.322 410.203 264.257 410.225C264.192 410.246 263.997 410.268 263.673 410.29H263.153C263.023 410.16 262.958 410.062 262.958 409.997C262.958 409.976 262.969 409.9 262.991 409.77C263.012 409.64 263.034 409.424 263.056 409.121C263.077 408.818 263.088 408.471 263.088 408.082C263.088 406.545 262.742 405.202 262.049 404.055C261.356 402.908 260.177 402.323 258.51 402.302C257.947 402.302 257.341 402.377 256.691 402.529C256.042 402.68 255.263 402.94 254.353 403.308C253.444 403.676 252.546 404.282 251.658 405.127C250.771 405.971 249.98 406.977 249.288 408.146C248.595 409.38 248.043 410.82 247.632 412.465C247.22 414.11 247.015 415.453 247.015 416.492C247.015 418.96 247.837 420.735 249.483 421.817C250.522 422.553 251.799 422.921 253.314 422.921C255.284 422.921 257.038 422.185 258.575 420.713C260.112 419.241 261.129 417.639 261.627 415.907C261.714 415.626 261.779 415.463 261.822 415.42C261.865 415.377 262.038 415.355 262.341 415.355C262.774 415.355 262.991 415.453 262.991 415.647C262.991 415.756 262.98 415.853 262.958 415.94C262.331 418.256 260.988 420.248 258.932 421.914C256.875 423.581 254.667 424.415 252.308 424.415C249.861 424.415 247.794 423.603 246.106 421.979C244.417 420.356 243.573 418.202 243.573 415.518Z" fill="white"/>
</g>
<g id="Group_42">
<path id="Vector_38" d="M277.466 412.433C277.466 412.151 277.618 411.935 277.921 411.783H298.605C298.93 411.957 299.092 412.173 299.092 412.433C299.092 412.671 298.941 412.877 298.638 413.05L288.312 413.082H277.986C277.639 412.974 277.466 412.758 277.466 412.433ZM277.466 418.732C277.466 418.408 277.639 418.191 277.986 418.083H298.638C298.941 418.299 299.092 418.516 299.092 418.732C299.092 419.014 298.93 419.23 298.605 419.382H277.921C277.618 419.23 277.466 419.014 277.466 418.732Z" fill="white"/>
</g>
<g id="Group_43">
<g id="Group_44">
<path id="Vector_39" d="M313.468 409.77C312.883 409.77 312.418 409.575 312.071 409.186C311.725 408.796 311.552 408.32 311.552 407.757C311.552 406.22 312.125 404.889 313.273 403.763C314.42 402.637 315.849 402.074 317.559 402.074C319.529 402.074 321.174 402.68 322.495 403.893C323.815 405.105 324.486 406.674 324.508 408.601C324.508 409.532 324.291 410.42 323.859 411.264C323.426 412.108 322.906 412.844 322.3 413.472C321.694 414.1 320.828 414.901 319.702 415.875C318.923 416.546 317.84 417.542 316.455 418.862L314.539 420.681L317.007 420.713C320.406 420.713 322.213 420.659 322.43 420.551C322.581 420.507 322.841 419.544 323.209 417.661V417.563H324.508V417.661C324.486 417.726 324.346 418.711 324.086 420.616C323.826 422.521 323.664 423.516 323.599 423.603V423.7H311.552V423.083V422.694C311.552 422.542 311.617 422.38 311.747 422.207C311.876 422.034 312.201 421.655 312.721 421.07C313.349 420.378 313.89 419.771 314.344 419.252C314.539 419.035 314.907 418.635 315.448 418.05C315.99 417.466 316.358 417.065 316.552 416.849C316.747 416.632 317.061 416.275 317.494 415.777C317.927 415.279 318.23 414.911 318.403 414.673C318.576 414.435 318.825 414.11 319.15 413.699C319.475 413.288 319.702 412.941 319.832 412.66C319.962 412.379 320.124 412.065 320.319 411.718C320.514 411.372 320.655 411.026 320.741 410.679C320.828 410.333 320.904 410.008 320.969 409.705C321.033 409.402 321.066 409.045 321.066 408.634C321.066 407.27 320.698 406.09 319.962 405.094C319.226 404.098 318.176 403.6 316.812 403.6C316.098 403.6 315.47 403.784 314.929 404.152C314.388 404.52 314.009 404.878 313.792 405.224C313.576 405.57 313.468 405.776 313.468 405.841C313.468 405.863 313.522 405.873 313.63 405.873C314.02 405.873 314.42 406.025 314.831 406.328C315.243 406.631 315.448 407.129 315.448 407.822C315.448 408.363 315.275 408.818 314.929 409.186C314.582 409.554 314.095 409.748 313.468 409.77Z" fill="white"/>
<path id="Vector_40" d="M331.49 418.602C331.49 419.122 331.317 419.555 330.97 419.901C330.624 420.248 330.202 420.421 329.704 420.421H329.477C330.472 422.131 331.793 422.986 333.438 422.986C334.954 422.986 336.058 422.337 336.75 421.038C337.162 420.323 337.367 418.938 337.367 416.881C337.367 414.652 337.075 413.147 336.49 412.368C335.928 411.653 335.3 411.296 334.607 411.296H334.412C332.724 411.296 331.447 412.032 330.581 413.504C330.494 413.656 330.418 413.742 330.353 413.764C330.288 413.786 330.126 413.807 329.866 413.829C329.498 413.829 329.293 413.764 329.249 413.634C329.206 413.548 329.184 411.653 329.184 407.952V403.763C329.184 402.68 329.238 402.139 329.347 402.139C329.39 402.096 329.433 402.074 329.477 402.074C329.498 402.074 329.726 402.161 330.159 402.334C330.591 402.507 331.187 402.68 331.944 402.854C332.702 403.027 333.514 403.113 334.38 403.113C335.917 403.113 337.389 402.81 338.796 402.204C338.969 402.118 339.11 402.074 339.218 402.074C339.391 402.074 339.478 402.269 339.478 402.659V403.081C337.703 405.181 335.484 406.231 332.821 406.231C332.15 406.231 331.544 406.166 331.003 406.036L330.678 405.971V411.556C331.089 411.253 331.414 411.015 331.652 410.842C331.89 410.668 332.28 410.495 332.821 410.322C333.362 410.149 333.914 410.062 334.477 410.062C336.231 410.062 337.714 410.766 338.926 412.173C340.138 413.58 340.744 415.247 340.744 417.174C340.744 419.165 340.052 420.865 338.666 422.272C337.281 423.679 335.592 424.393 333.601 424.415C331.847 424.415 330.44 423.83 329.379 422.661C328.318 421.492 327.788 420.172 327.788 418.7C327.788 418.18 327.907 417.769 328.145 417.466C328.383 417.163 328.632 416.968 328.892 416.881C329.152 416.795 329.401 416.751 329.639 416.751C330.18 416.751 330.624 416.935 330.97 417.303C331.317 417.672 331.49 418.104 331.49 418.602Z" fill="white"/>
</g>
<g id="Group_45">
<path id="Vector_41" d="M344.902 400.441C344.489 400.441 344.16 400.303 343.915 400.028C343.67 399.752 343.548 399.415 343.548 399.017C343.548 397.931 343.953 396.99 344.765 396.194C345.576 395.398 346.586 395 347.795 395C349.188 395 350.351 395.428 351.285 396.285C352.218 397.143 352.693 398.252 352.708 399.614C352.708 400.272 352.555 400.9 352.249 401.497C351.943 402.094 351.575 402.614 351.147 403.058C350.718 403.502 350.106 404.068 349.31 404.757C348.759 405.231 347.994 405.935 347.014 406.869L345.66 408.155L347.405 408.177C349.808 408.177 351.086 408.139 351.239 408.063C351.346 408.032 351.529 407.351 351.79 406.019V405.951H352.708V406.019C352.693 406.065 352.593 406.762 352.409 408.109C352.226 409.455 352.111 410.159 352.065 410.221V410.29H343.548V409.853V409.578C343.548 409.471 343.594 409.356 343.686 409.234C343.777 409.111 344.007 408.843 344.374 408.43C344.818 407.94 345.201 407.512 345.522 407.144C345.66 406.991 345.92 406.708 346.303 406.295C346.685 405.882 346.946 405.599 347.083 405.446C347.221 405.292 347.443 405.04 347.749 404.688C348.055 404.336 348.269 404.076 348.392 403.907C348.514 403.739 348.69 403.509 348.92 403.219C349.149 402.928 349.31 402.683 349.402 402.484C349.494 402.285 349.609 402.063 349.746 401.818C349.884 401.573 349.984 401.328 350.045 401.084C350.106 400.839 350.16 400.609 350.206 400.395C350.251 400.181 350.274 399.928 350.274 399.637C350.274 398.673 350.014 397.839 349.494 397.135C348.973 396.431 348.231 396.079 347.267 396.079C346.762 396.079 346.318 396.209 345.935 396.469C345.553 396.729 345.285 396.982 345.132 397.227C344.979 397.472 344.902 397.617 344.902 397.663C344.902 397.678 344.941 397.686 345.017 397.686C345.293 397.686 345.576 397.793 345.867 398.007C346.157 398.222 346.303 398.574 346.303 399.063C346.303 399.446 346.18 399.767 345.935 400.028C345.691 400.288 345.346 400.425 344.902 400.441Z" fill="white"/>
</g>
</g>
<g id="Group_46">
<path id="Vector_42" d="M366.345 412.433C366.345 412.151 366.496 411.935 366.799 411.783H387.484C387.809 411.957 387.971 412.173 387.971 412.433C387.971 412.671 387.819 412.877 387.516 413.05L377.19 413.082H366.864C366.518 412.974 366.345 412.758 366.345 412.433ZM366.345 418.732C366.345 418.408 366.518 418.191 366.864 418.083H387.516C387.819 418.299 387.971 418.516 387.971 418.732C387.971 419.014 387.809 419.23 387.484 419.382H366.799C366.496 419.23 366.345 419.014 366.345 418.732Z" fill="white"/>
</g>
<g id="Group_47">
<path id="Vector_43" d="M400.17 413.537C400.17 410.008 401.047 407.216 402.801 405.159C404.554 403.103 406.502 402.074 408.646 402.074C410.139 402.074 411.211 402.464 411.86 403.243C412.51 404.023 412.834 404.888 412.834 405.841C412.834 406.382 412.683 406.815 412.38 407.14C412.077 407.465 411.655 407.627 411.113 407.627C410.616 407.627 410.204 407.475 409.88 407.172C409.555 406.869 409.392 406.447 409.392 405.906C409.392 404.953 409.901 404.38 410.919 404.185C410.442 403.709 409.771 403.438 408.905 403.373C407.368 403.373 406.102 404.023 405.106 405.321C404.089 406.75 403.58 408.937 403.58 411.881L403.612 412.011C403.721 411.881 403.807 411.74 403.872 411.588C404.76 410.29 405.918 409.64 407.347 409.64H407.477C408.472 409.64 409.349 409.846 410.107 410.257C410.626 410.56 411.146 410.993 411.665 411.556C412.185 412.119 412.607 412.736 412.932 413.407C413.386 414.468 413.614 415.626 413.614 416.881V417.466C413.614 417.964 413.56 418.429 413.451 418.862C413.213 420.139 412.521 421.384 411.373 422.596C410.226 423.809 408.775 424.415 407.022 424.415C406.416 424.415 405.831 424.328 405.269 424.155C404.706 423.982 404.1 423.657 403.45 423.181C402.801 422.705 402.249 422.066 401.794 421.265C401.339 420.464 400.95 419.414 400.625 418.115C400.3 416.816 400.149 415.29 400.17 413.537ZM407.152 410.809C406.502 410.809 405.94 410.993 405.463 411.361C404.987 411.729 404.619 412.216 404.359 412.822C404.1 413.429 403.916 414.046 403.807 414.673C403.699 415.301 403.634 415.972 403.612 416.687C403.612 418.483 403.742 419.771 404.002 420.551C404.262 421.33 404.673 421.958 405.236 422.434C405.756 422.824 406.329 423.019 406.957 423.019C408.061 423.019 408.905 422.607 409.49 421.785C409.771 421.395 409.966 420.908 410.074 420.323C410.183 419.739 410.237 418.602 410.237 416.914C410.237 415.182 410.183 414.024 410.074 413.439C409.966 412.855 409.771 412.368 409.49 411.978C408.905 411.199 408.126 410.809 407.152 410.809Z" fill="white"/>
<path id="Vector_44" d="M418.582 409.77C417.998 409.77 417.532 409.575 417.186 409.186C416.84 408.796 416.667 408.32 416.667 407.757C416.667 406.22 417.24 404.889 418.388 403.763C419.535 402.637 420.964 402.074 422.674 402.074C424.644 402.074 426.289 402.68 427.609 403.893C428.93 405.105 429.601 406.674 429.623 408.601C429.623 409.532 429.406 410.42 428.973 411.264C428.54 412.108 428.021 412.844 427.415 413.472C426.808 414.1 425.943 414.901 424.817 415.875C424.038 416.546 422.955 417.542 421.57 418.862L419.654 420.681L422.122 420.713C425.52 420.713 427.328 420.659 427.545 420.551C427.696 420.507 427.956 419.544 428.324 417.661V417.563H429.623V417.661C429.601 417.726 429.46 418.711 429.201 420.616C428.941 422.521 428.778 423.516 428.714 423.603V423.7H416.667V423.083V422.694C416.667 422.542 416.731 422.38 416.861 422.207C416.991 422.034 417.316 421.655 417.835 421.07C418.463 420.378 419.004 419.771 419.459 419.252C419.654 419.035 420.022 418.635 420.563 418.05C421.104 417.466 421.472 417.065 421.667 416.849C421.862 416.632 422.176 416.275 422.609 415.777C423.042 415.279 423.345 414.911 423.518 414.673C423.691 414.435 423.94 414.11 424.265 413.699C424.59 413.288 424.817 412.941 424.947 412.66C425.077 412.379 425.239 412.065 425.434 411.718C425.629 411.372 425.769 411.026 425.856 410.679C425.943 410.333 426.018 410.008 426.083 409.705C426.148 409.402 426.181 409.045 426.181 408.634C426.181 407.27 425.813 406.09 425.077 405.094C424.341 404.098 423.291 403.6 421.927 403.6C421.213 403.6 420.585 403.784 420.044 404.152C419.502 404.52 419.124 404.878 418.907 405.224C418.691 405.57 418.582 405.776 418.582 405.841C418.582 405.863 418.636 405.873 418.745 405.873C419.134 405.873 419.535 406.025 419.946 406.328C420.357 406.631 420.563 407.129 420.563 407.822C420.563 408.363 420.39 408.818 420.044 409.186C419.697 409.554 419.21 409.748 418.582 409.77Z" fill="white"/>
<path id="Vector_45" d="M436.604 418.602C436.604 419.122 436.43 419.555 436.084 419.901C435.738 420.248 435.316 420.421 434.818 420.421H434.59C435.586 422.131 436.907 422.986 438.552 422.986C440.067 422.986 441.171 422.337 441.864 421.038C442.275 420.323 442.481 418.938 442.481 416.881C442.481 414.652 442.189 413.147 441.604 412.368C441.041 411.653 440.414 411.296 439.721 411.296H439.526C437.838 411.296 436.56 412.032 435.694 413.504C435.608 413.656 435.532 413.742 435.467 413.764C435.402 413.786 435.24 413.807 434.98 413.829C434.612 413.829 434.406 413.764 434.363 413.634C434.32 413.548 434.298 411.653 434.298 407.952V403.763C434.298 402.68 434.352 402.139 434.46 402.139C434.504 402.096 434.547 402.074 434.59 402.074C434.612 402.074 434.839 402.161 435.272 402.334C435.705 402.507 436.301 402.68 437.058 402.854C437.816 403.027 438.628 403.113 439.494 403.113C441.031 403.113 442.503 402.81 443.91 402.204C444.083 402.118 444.224 402.074 444.332 402.074C444.505 402.074 444.592 402.269 444.592 402.659V403.081C442.817 405.181 440.598 406.231 437.935 406.231C437.264 406.231 436.658 406.166 436.117 406.036L435.792 405.971V411.556C436.203 411.253 436.528 411.015 436.766 410.842C437.004 410.668 437.394 410.495 437.935 410.322C438.476 410.149 439.028 410.062 439.591 410.062C441.344 410.062 442.827 410.766 444.04 412.173C445.252 413.58 445.858 415.247 445.858 417.174C445.858 419.165 445.165 420.865 443.78 422.272C442.394 423.679 440.706 424.393 438.714 424.415C436.961 424.415 435.554 423.83 434.493 422.661C433.432 421.492 432.902 420.172 432.902 418.7C432.902 418.18 433.021 417.769 433.259 417.466C433.497 417.163 433.746 416.968 434.006 416.881C434.266 416.795 434.515 416.751 434.753 416.751C435.294 416.751 435.738 416.935 436.084 417.303C436.43 417.672 436.604 418.104 436.604 418.602Z" fill="white"/>
</g>
</g>
</g>
</g>
</svg>
