<svg viewBox="0 0 975 646" fill="none" xmlns="http://www.w3.org/2000/svg">
<g id="0123114">
<g id="enunciado">
<path id="Rectangle 1" d="M0 51.9261C0 24.705 23.3431 2.63794 52.1382 2.63794H951V343.712C951 370.933 927.657 393 898.862 393H0V51.9261Z" fill="#02071A"/>
<path id="Rectangle 1 (Stroke)" fill-rule="evenodd" clip-rule="evenodd" d="M945.786 7.52601H52.1382C26.2226 7.52601 5.21382 27.3884 5.21382 51.8899V388.07H898.862C924.777 388.07 945.786 368.208 945.786 343.706V7.52601ZM52.1382 2.59668C23.3431 2.59668 0 24.666 0 51.8899V392.999H898.862C927.657 392.999 951 370.93 951 343.706V2.59668H52.1382Z" fill="#CD08D1"/>
<path id="Rectangle 14" d="M56.4656 2.72626C84.3516 -3.40782 951 2.72626 951 2.72626V29.282C951 29.282 41.7105 19.5213 9.38489 29.282C19.4431 15.1972 28.5796 8.86034 56.4656 2.72626Z" fill="#CD08D1"/>
<path id="Rectangle 15" d="M918 8.44019H949V344.727C945.195 367.548 937.308 375.936 918 386.884C923.683 368.955 918 8.44019 918 8.44019Z" fill="#CD08D1"/>
<g id="En la siguiente secuencia de figuras, &#194;&#191;cu&#195;&#161;l es el n&#195;&#186;mero total total de trapecios rectangulares que conforman la figura 10?">
<path d="M38.4375 51.9263H27.3457V60.9966H40.2305V63.7563H23.9707V38.1626H40.0547V40.9399H27.3457V49.1665H38.4375V51.9263Z" fill="white"/>
<path d="M46.998 44.7368L47.1035 47.1274C48.5566 45.2993 50.4551 44.3853 52.7988 44.3853C56.8184 44.3853 58.8457 46.6528 58.8809 51.188V63.7563H55.6289V51.1704C55.6172 49.7993 55.3008 48.7856 54.6797 48.1294C54.0703 47.4731 53.1152 47.145 51.8145 47.145C50.7598 47.145 49.834 47.4263 49.0371 47.9888C48.2402 48.5513 47.6191 49.2896 47.1738 50.2036V63.7563H43.9219V44.7368H46.998Z" fill="white"/>
<path d="M76.3765 63.7563H73.1245V36.7563H76.3765V63.7563Z" fill="white"/>
<path d="M93.3394 63.7563C93.1519 63.3813 92.9995 62.7134 92.8823 61.7524C91.3706 63.3228 89.5659 64.1079 87.4683 64.1079C85.5933 64.1079 84.0522 63.5806 82.8452 62.5259C81.6499 61.4595 81.0522 60.1118 81.0522 58.4829C81.0522 56.5024 81.8022 54.9673 83.3022 53.8774C84.814 52.7759 86.9351 52.2251 89.6655 52.2251H92.8296V50.731C92.8296 49.5942 92.4897 48.6919 91.8101 48.0239C91.1304 47.3442 90.1284 47.0044 88.8042 47.0044C87.644 47.0044 86.6714 47.2974 85.8862 47.8833C85.1011 48.4692 84.7085 49.1782 84.7085 50.0103H81.439C81.439 49.061 81.7729 48.147 82.4409 47.2681C83.1206 46.3774 84.0347 45.6743 85.1831 45.1587C86.3433 44.6431 87.6147 44.3853 88.9976 44.3853C91.189 44.3853 92.9058 44.936 94.1479 46.0376C95.3901 47.1274 96.0347 48.6333 96.0815 50.5552V59.3091C96.0815 61.0552 96.3042 62.4438 96.7495 63.4751V63.7563H93.3394ZM87.9429 61.2778C88.9624 61.2778 89.9292 61.0142 90.8433 60.4868C91.7573 59.9595 92.4194 59.2739 92.8296 58.4302V54.5278H90.2808C86.2964 54.5278 84.3042 55.6938 84.3042 58.0259C84.3042 59.0454 84.644 59.8423 85.3237 60.4165C86.0034 60.9907 86.8765 61.2778 87.9429 61.2778Z" fill="white"/>
<path d="M121.312 58.7114C121.312 57.8325 120.978 57.1528 120.31 56.6724C119.653 56.1802 118.499 55.7583 116.847 55.4067C115.206 55.0552 113.899 54.6333 112.927 54.1411C111.966 53.6489 111.251 53.063 110.782 52.3833C110.325 51.7036 110.097 50.895 110.097 49.9575C110.097 48.3989 110.753 47.0806 112.065 46.0024C113.39 44.9243 115.077 44.3853 117.128 44.3853C119.284 44.3853 121.03 44.9419 122.366 46.0552C123.714 47.1685 124.388 48.5923 124.388 50.3267H121.118C121.118 49.436 120.737 48.6685 119.976 48.0239C119.226 47.3794 118.276 47.0571 117.128 47.0571C115.944 47.0571 115.019 47.3149 114.351 47.8306C113.683 48.3462 113.349 49.02 113.349 49.8521C113.349 50.6372 113.659 51.229 114.28 51.6274C114.901 52.0259 116.021 52.4067 117.638 52.77C119.267 53.1333 120.585 53.5669 121.593 54.0708C122.601 54.5747 123.345 55.1841 123.825 55.8989C124.317 56.6021 124.563 57.4634 124.563 58.4829C124.563 60.1821 123.884 61.5474 122.524 62.5786C121.165 63.5981 119.401 64.1079 117.233 64.1079C115.71 64.1079 114.362 63.8384 113.19 63.2993C112.019 62.7603 111.099 62.0103 110.431 61.0493C109.774 60.0767 109.446 59.0278 109.446 57.9028H112.698C112.757 58.9927 113.19 59.8599 113.999 60.5044C114.819 61.1372 115.897 61.4536 117.233 61.4536C118.464 61.4536 119.448 61.2075 120.187 60.7153C120.937 60.2114 121.312 59.5435 121.312 58.7114Z" fill="white"/>
<path d="M132.333 63.7563H129.081V44.7368H132.333V63.7563ZM128.817 39.6919C128.817 39.1646 128.976 38.7192 129.292 38.356C129.62 37.9927 130.101 37.811 130.733 37.811C131.366 37.811 131.847 37.9927 132.175 38.356C132.503 38.7192 132.667 39.1646 132.667 39.6919C132.667 40.2192 132.503 40.6587 132.175 41.0103C131.847 41.3618 131.366 41.5376 130.733 41.5376C130.101 41.5376 129.62 41.3618 129.292 41.0103C128.976 40.6587 128.817 40.2192 128.817 39.6919Z" fill="white"/>
<path d="M136.78 54.0884C136.78 51.1235 137.466 48.7681 138.837 47.022C140.208 45.2642 142.024 44.3853 144.286 44.3853C146.606 44.3853 148.417 45.2056 149.718 46.8462L149.876 44.7368H152.847V63.2993C152.847 65.7603 152.114 67.6997 150.649 69.1177C149.196 70.5356 147.239 71.2446 144.778 71.2446C143.407 71.2446 142.065 70.9517 140.753 70.3657C139.44 69.7798 138.438 68.9771 137.747 67.9575L139.435 66.0063C140.829 67.729 142.534 68.5903 144.55 68.5903C146.132 68.5903 147.362 68.145 148.241 67.2544C149.132 66.3638 149.577 65.1099 149.577 63.4927V61.8579C148.276 63.3579 146.501 64.1079 144.251 64.1079C142.024 64.1079 140.22 63.2114 138.837 61.4185C137.466 59.6255 136.78 57.1821 136.78 54.0884ZM140.05 54.4575C140.05 56.6021 140.489 58.2896 141.368 59.52C142.247 60.7388 143.478 61.3481 145.06 61.3481C147.11 61.3481 148.616 60.4165 149.577 58.5532V49.8696C148.581 48.0532 147.087 47.145 145.095 47.145C143.513 47.145 142.276 47.7603 141.386 48.9907C140.495 50.2212 140.05 52.0435 140.05 54.4575Z" fill="white"/>
<path d="M169.511 61.8755C168.245 63.3638 166.388 64.1079 163.938 64.1079C161.911 64.1079 160.364 63.522 159.298 62.3501C158.243 61.1665 157.71 59.4204 157.698 57.1118V44.7368H160.95V57.0239C160.95 59.9067 162.122 61.3481 164.466 61.3481C166.95 61.3481 168.603 60.4224 169.423 58.5708V44.7368H172.675V63.7563H169.581L169.511 61.8755Z" fill="white"/>
<path d="M181.165 63.7563H177.913V44.7368H181.165V63.7563ZM177.649 39.6919C177.649 39.1646 177.808 38.7192 178.124 38.356C178.452 37.9927 178.933 37.811 179.565 37.811C180.198 37.811 180.679 37.9927 181.007 38.356C181.335 38.7192 181.499 39.1646 181.499 39.6919C181.499 40.2192 181.335 40.6587 181.007 41.0103C180.679 41.3618 180.198 41.5376 179.565 41.5376C178.933 41.5376 178.452 41.3618 178.124 41.0103C177.808 40.6587 177.649 40.2192 177.649 39.6919Z" fill="white"/>
<path d="M194.278 64.1079C191.7 64.1079 189.603 63.2642 187.985 61.5767C186.368 59.8774 185.56 57.6099 185.56 54.7739V54.1763C185.56 52.2896 185.917 50.6079 186.632 49.1313C187.358 47.6431 188.366 46.4829 189.655 45.6509C190.956 44.8071 192.362 44.3853 193.874 44.3853C196.347 44.3853 198.269 45.1997 199.64 46.8286C201.011 48.4575 201.696 50.7896 201.696 53.8247V55.1782H188.812C188.858 57.0532 189.403 58.5708 190.446 59.731C191.501 60.8794 192.837 61.4536 194.454 61.4536C195.603 61.4536 196.575 61.2192 197.372 60.7505C198.169 60.2817 198.866 59.6606 199.464 58.8872L201.45 60.4341C199.856 62.8833 197.466 64.1079 194.278 64.1079ZM193.874 47.0571C192.562 47.0571 191.46 47.5376 190.569 48.4985C189.679 49.4478 189.128 50.7837 188.917 52.5063H198.444V52.2603C198.351 50.6079 197.905 49.3306 197.108 48.4282C196.312 47.5142 195.233 47.0571 193.874 47.0571Z" fill="white"/>
<path d="M208.552 44.7368L208.657 47.1274C210.11 45.2993 212.009 44.3853 214.353 44.3853C218.372 44.3853 220.399 46.6528 220.435 51.188V63.7563H217.183V51.1704C217.171 49.7993 216.854 48.7856 216.233 48.1294C215.624 47.4731 214.669 47.145 213.368 47.145C212.313 47.145 211.388 47.4263 210.591 47.9888C209.794 48.5513 209.173 49.2896 208.728 50.2036V63.7563H205.476V44.7368H208.552Z" fill="white"/>
<path d="M229.751 40.1313V44.7368H233.302V47.2505H229.751V59.0454C229.751 59.8071 229.909 60.3813 230.226 60.7681C230.542 61.1431 231.081 61.3306 231.843 61.3306C232.218 61.3306 232.733 61.2603 233.39 61.1196V63.7563C232.534 63.9907 231.702 64.1079 230.894 64.1079C229.44 64.1079 228.345 63.6685 227.606 62.7896C226.868 61.9106 226.499 60.6626 226.499 59.0454V47.2505H223.036V44.7368H226.499V40.1313H229.751Z" fill="white"/>
<path d="M245.009 64.1079C242.431 64.1079 240.333 63.2642 238.716 61.5767C237.099 59.8774 236.29 57.6099 236.29 54.7739V54.1763C236.29 52.2896 236.647 50.6079 237.362 49.1313C238.089 47.6431 239.097 46.4829 240.386 45.6509C241.687 44.8071 243.093 44.3853 244.604 44.3853C247.077 44.3853 248.999 45.1997 250.37 46.8286C251.741 48.4575 252.427 50.7896 252.427 53.8247V55.1782H239.542C239.589 57.0532 240.134 58.5708 241.177 59.731C242.231 60.8794 243.567 61.4536 245.185 61.4536C246.333 61.4536 247.306 61.2192 248.103 60.7505C248.899 60.2817 249.597 59.6606 250.194 58.8872L252.181 60.4341C250.587 62.8833 248.196 64.1079 245.009 64.1079ZM244.604 47.0571C243.292 47.0571 242.19 47.5376 241.3 48.4985C240.409 49.4478 239.858 50.7837 239.647 52.5063H249.175V52.2603C249.081 50.6079 248.636 49.3306 247.839 48.4282C247.042 47.5142 245.964 47.0571 244.604 47.0571Z" fill="white"/>
<path d="M276.338 58.7114C276.338 57.8325 276.004 57.1528 275.336 56.6724C274.68 56.1802 273.526 55.7583 271.874 55.4067C270.233 55.0552 268.926 54.6333 267.954 54.1411C266.993 53.6489 266.278 53.063 265.809 52.3833C265.352 51.7036 265.124 50.895 265.124 49.9575C265.124 48.3989 265.78 47.0806 267.092 46.0024C268.417 44.9243 270.104 44.3853 272.155 44.3853C274.311 44.3853 276.057 44.9419 277.393 46.0552C278.741 47.1685 279.415 48.5923 279.415 50.3267H276.145C276.145 49.436 275.764 48.6685 275.002 48.0239C274.252 47.3794 273.303 47.0571 272.155 47.0571C270.971 47.0571 270.045 47.3149 269.377 47.8306C268.709 48.3462 268.375 49.02 268.375 49.8521C268.375 50.6372 268.686 51.229 269.307 51.6274C269.928 52.0259 271.047 52.4067 272.665 52.77C274.293 53.1333 275.612 53.5669 276.62 54.0708C277.627 54.5747 278.372 55.1841 278.852 55.8989C279.344 56.6021 279.59 57.4634 279.59 58.4829C279.59 60.1821 278.911 61.5474 277.551 62.5786C276.192 63.5981 274.428 64.1079 272.26 64.1079C270.737 64.1079 269.389 63.8384 268.217 63.2993C267.045 62.7603 266.125 62.0103 265.458 61.0493C264.801 60.0767 264.473 59.0278 264.473 57.9028H267.725C267.784 58.9927 268.217 59.8599 269.026 60.5044C269.846 61.1372 270.924 61.4536 272.26 61.4536C273.491 61.4536 274.475 61.2075 275.213 60.7153C275.963 60.2114 276.338 59.5435 276.338 58.7114Z" fill="white"/>
<path d="M291.719 64.1079C289.141 64.1079 287.043 63.2642 285.426 61.5767C283.809 59.8774 283 57.6099 283 54.7739V54.1763C283 52.2896 283.358 50.6079 284.073 49.1313C284.799 47.6431 285.807 46.4829 287.096 45.6509C288.397 44.8071 289.803 44.3853 291.315 44.3853C293.788 44.3853 295.709 45.1997 297.081 46.8286C298.452 48.4575 299.137 50.7896 299.137 53.8247V55.1782H286.252C286.299 57.0532 286.844 58.5708 287.887 59.731C288.942 60.8794 290.278 61.4536 291.895 61.4536C293.043 61.4536 294.016 61.2192 294.813 60.7505C295.61 60.2817 296.307 59.6606 296.905 58.8872L298.891 60.4341C297.297 62.8833 294.907 64.1079 291.719 64.1079ZM291.315 47.0571C290.002 47.0571 288.901 47.5376 288.01 48.4985C287.12 49.4478 286.569 50.7837 286.358 52.5063H295.885V52.2603C295.792 50.6079 295.346 49.3306 294.549 48.4282C293.752 47.5142 292.674 47.0571 291.315 47.0571Z" fill="white"/>
<path d="M310.545 61.4536C311.706 61.4536 312.719 61.1021 313.586 60.3989C314.454 59.6958 314.934 58.8169 315.028 57.7622H318.104C318.045 58.8521 317.67 59.8892 316.979 60.8735C316.288 61.8579 315.362 62.6431 314.202 63.229C313.053 63.8149 311.834 64.1079 310.545 64.1079C307.956 64.1079 305.893 63.2466 304.358 61.5239C302.834 59.7896 302.073 57.4224 302.073 54.4224V53.8774C302.073 52.0259 302.413 50.3794 303.092 48.938C303.772 47.4966 304.745 46.3774 306.01 45.5806C307.288 44.7837 308.793 44.3853 310.528 44.3853C312.661 44.3853 314.43 45.0239 315.836 46.3013C317.254 47.5786 318.01 49.2368 318.104 51.2759H315.028C314.934 50.0454 314.465 49.0376 313.622 48.2524C312.79 47.4556 311.758 47.0571 310.528 47.0571C308.875 47.0571 307.592 47.6548 306.678 48.8501C305.776 50.0337 305.325 51.7505 305.325 54.0005V54.6157C305.325 56.8071 305.776 58.4946 306.678 59.6782C307.581 60.8618 308.87 61.4536 310.545 61.4536Z" fill="white"/>
<path d="M333.502 61.8755C332.237 63.3638 330.379 64.1079 327.93 64.1079C325.903 64.1079 324.356 63.522 323.29 62.3501C322.235 61.1665 321.702 59.4204 321.69 57.1118V44.7368H324.942V57.0239C324.942 59.9067 326.114 61.3481 328.458 61.3481C330.942 61.3481 332.594 60.4224 333.415 58.5708V44.7368H336.667V63.7563H333.573L333.502 61.8755Z" fill="white"/>
<path d="M349.516 64.1079C346.938 64.1079 344.84 63.2642 343.223 61.5767C341.606 59.8774 340.797 57.6099 340.797 54.7739V54.1763C340.797 52.2896 341.155 50.6079 341.87 49.1313C342.596 47.6431 343.604 46.4829 344.893 45.6509C346.194 44.8071 347.6 44.3853 349.112 44.3853C351.584 44.3853 353.506 45.1997 354.877 46.8286C356.249 48.4575 356.934 50.7896 356.934 53.8247V55.1782H344.049C344.096 57.0532 344.641 58.5708 345.684 59.731C346.739 60.8794 348.075 61.4536 349.692 61.4536C350.84 61.4536 351.813 61.2192 352.61 60.7505C353.407 60.2817 354.104 59.6606 354.702 58.8872L356.688 60.4341C355.094 62.8833 352.704 64.1079 349.516 64.1079ZM349.112 47.0571C347.799 47.0571 346.698 47.5376 345.807 48.4985C344.917 49.4478 344.366 50.7837 344.155 52.5063H353.682V52.2603C353.588 50.6079 353.143 49.3306 352.346 48.4282C351.549 47.5142 350.471 47.0571 349.112 47.0571Z" fill="white"/>
<path d="M363.79 44.7368L363.895 47.1274C365.348 45.2993 367.247 44.3853 369.59 44.3853C373.61 44.3853 375.637 46.6528 375.672 51.188V63.7563H372.42V51.1704C372.409 49.7993 372.092 48.7856 371.471 48.1294C370.862 47.4731 369.907 47.145 368.606 47.145C367.551 47.145 366.625 47.4263 365.829 47.9888C365.032 48.5513 364.411 49.2896 363.965 50.2036V63.7563H360.713V44.7368H363.79Z" fill="white"/>
<path d="M388.206 61.4536C389.366 61.4536 390.379 61.1021 391.247 60.3989C392.114 59.6958 392.594 58.8169 392.688 57.7622H395.764C395.706 58.8521 395.331 59.8892 394.639 60.8735C393.948 61.8579 393.022 62.6431 391.862 63.229C390.713 63.8149 389.495 64.1079 388.206 64.1079C385.616 64.1079 383.553 63.2466 382.018 61.5239C380.495 59.7896 379.733 57.4224 379.733 54.4224V53.8774C379.733 52.0259 380.073 50.3794 380.752 48.938C381.432 47.4966 382.405 46.3774 383.67 45.5806C384.948 44.7837 386.454 44.3853 388.188 44.3853C390.321 44.3853 392.09 45.0239 393.497 46.3013C394.915 47.5786 395.67 49.2368 395.764 51.2759H392.688C392.594 50.0454 392.125 49.0376 391.282 48.2524C390.45 47.4556 389.418 47.0571 388.188 47.0571C386.536 47.0571 385.252 47.6548 384.338 48.8501C383.436 50.0337 382.985 51.7505 382.985 54.0005V54.6157C382.985 56.8071 383.436 58.4946 384.338 59.6782C385.241 60.8618 386.53 61.4536 388.206 61.4536Z" fill="white"/>
<path d="M402.954 63.7563H399.702V44.7368H402.954V63.7563ZM399.438 39.6919C399.438 39.1646 399.596 38.7192 399.913 38.356C400.241 37.9927 400.721 37.811 401.354 37.811C401.987 37.811 402.467 37.9927 402.795 38.356C403.124 38.7192 403.288 39.1646 403.288 39.6919C403.288 40.2192 403.124 40.6587 402.795 41.0103C402.467 41.3618 401.987 41.5376 401.354 41.5376C400.721 41.5376 400.241 41.3618 399.913 41.0103C399.596 40.6587 399.438 40.2192 399.438 39.6919Z" fill="white"/>
<path d="M419.917 63.7563C419.729 63.3813 419.577 62.7134 419.459 61.7524C417.948 63.3228 416.143 64.1079 414.045 64.1079C412.17 64.1079 410.629 63.5806 409.422 62.5259C408.227 61.4595 407.629 60.1118 407.629 58.4829C407.629 56.5024 408.379 54.9673 409.879 53.8774C411.391 52.7759 413.512 52.2251 416.243 52.2251H419.407V50.731C419.407 49.5942 419.067 48.6919 418.387 48.0239C417.708 47.3442 416.706 47.0044 415.381 47.0044C414.221 47.0044 413.249 47.2974 412.463 47.8833C411.678 48.4692 411.286 49.1782 411.286 50.0103H408.016C408.016 49.061 408.35 48.147 409.018 47.2681C409.698 46.3774 410.612 45.6743 411.76 45.1587C412.92 44.6431 414.192 44.3853 415.575 44.3853C417.766 44.3853 419.483 44.936 420.725 46.0376C421.967 47.1274 422.612 48.6333 422.659 50.5552V59.3091C422.659 61.0552 422.881 62.4438 423.327 63.4751V63.7563H419.917ZM414.52 61.2778C415.54 61.2778 416.506 61.0142 417.42 60.4868C418.334 59.9595 418.997 59.2739 419.407 58.4302V54.5278H416.858C412.874 54.5278 410.881 55.6938 410.881 58.0259C410.881 59.0454 411.221 59.8423 411.901 60.4165C412.581 60.9907 413.454 61.2778 414.52 61.2778Z" fill="white"/>
<path d="M436.023 54.0884C436.023 51.1704 436.715 48.8267 438.098 47.0571C439.48 45.2759 441.291 44.3853 443.529 44.3853C445.756 44.3853 447.52 45.147 448.82 46.6704V36.7563H452.072V63.7563H449.084L448.926 61.7173C447.625 63.311 445.814 64.1079 443.494 64.1079C441.291 64.1079 439.492 63.2056 438.098 61.4009C436.715 59.5962 436.023 57.2407 436.023 54.3345V54.0884ZM439.275 54.4575C439.275 56.6138 439.721 58.3013 440.611 59.52C441.502 60.7388 442.732 61.3481 444.303 61.3481C446.365 61.3481 447.871 60.4224 448.82 58.5708V49.8345C447.848 48.0415 446.354 47.145 444.338 47.145C442.744 47.145 441.502 47.7603 440.611 48.9907C439.721 50.2212 439.275 52.0435 439.275 54.4575Z" fill="white"/>
<path d="M465.027 64.1079C462.449 64.1079 460.352 63.2642 458.734 61.5767C457.117 59.8774 456.309 57.6099 456.309 54.7739V54.1763C456.309 52.2896 456.666 50.6079 457.381 49.1313C458.107 47.6431 459.115 46.4829 460.404 45.6509C461.705 44.8071 463.111 44.3853 464.623 44.3853C467.096 44.3853 469.018 45.1997 470.389 46.8286C471.76 48.4575 472.445 50.7896 472.445 53.8247V55.1782H459.561C459.607 57.0532 460.152 58.5708 461.195 59.731C462.25 60.8794 463.586 61.4536 465.203 61.4536C466.352 61.4536 467.324 61.2192 468.121 60.7505C468.918 60.2817 469.615 59.6606 470.213 58.8872L472.199 60.4341C470.605 62.8833 468.215 64.1079 465.027 64.1079ZM464.623 47.0571C463.311 47.0571 462.209 47.5376 461.318 48.4985C460.428 49.4478 459.877 50.7837 459.666 52.5063H469.193V52.2603C469.1 50.6079 468.654 49.3306 467.857 48.4282C467.061 47.5142 465.982 47.0571 464.623 47.0571Z" fill="white"/>
<path d="M486.373 63.7563V47.2505H483.367V44.7368H486.373V43.1196C486.373 40.9985 486.976 39.3462 488.183 38.1626C489.402 36.979 491.119 36.3872 493.333 36.3872C494.646 36.3872 496.304 36.7446 498.308 37.4595L497.763 40.2017C496.298 39.6157 494.904 39.3228 493.58 39.3228C492.185 39.3228 491.177 39.6392 490.556 40.272C489.947 40.8931 489.642 41.8306 489.642 43.0845V44.7368H493.527V47.2505H489.642V63.7563H486.373ZM499.925 63.7563H496.656V44.7368H499.925V63.7563Z" fill="white"/>
<path d="M504.443 54.0884C504.443 51.1235 505.128 48.7681 506.5 47.022C507.871 45.2642 509.687 44.3853 511.949 44.3853C514.269 44.3853 516.08 45.2056 517.38 46.8462L517.539 44.7368H520.509V63.2993C520.509 65.7603 519.777 67.6997 518.312 69.1177C516.859 70.5356 514.902 71.2446 512.441 71.2446C511.07 71.2446 509.728 70.9517 508.416 70.3657C507.103 69.7798 506.101 68.9771 505.41 67.9575L507.097 66.0063C508.492 67.729 510.197 68.5903 512.212 68.5903C513.794 68.5903 515.025 68.145 515.904 67.2544C516.794 66.3638 517.24 65.1099 517.24 63.4927V61.8579C515.939 63.3579 514.164 64.1079 511.914 64.1079C509.687 64.1079 507.882 63.2114 506.5 61.4185C505.128 59.6255 504.443 57.1821 504.443 54.0884ZM507.712 54.4575C507.712 56.6021 508.152 58.2896 509.031 59.52C509.91 60.7388 511.14 61.3481 512.722 61.3481C514.773 61.3481 516.279 60.4165 517.24 58.5532V49.8696C516.244 48.0532 514.75 47.145 512.757 47.145C511.175 47.145 509.939 47.7603 509.048 48.9907C508.158 50.2212 507.712 52.0435 507.712 54.4575Z" fill="white"/>
<path d="M537.173 61.8755C535.908 63.3638 534.05 64.1079 531.601 64.1079C529.574 64.1079 528.027 63.522 526.96 62.3501C525.906 61.1665 525.373 59.4204 525.361 57.1118V44.7368H528.613V57.0239C528.613 59.9067 529.785 61.3481 532.128 61.3481C534.613 61.3481 536.265 60.4224 537.085 58.5708V44.7368H540.337V63.7563H537.244L537.173 61.8755Z" fill="white"/>
<path d="M554.488 47.6548C553.996 47.5728 553.462 47.5317 552.888 47.5317C550.755 47.5317 549.308 48.4399 548.546 50.2563V63.7563H545.294V44.7368H548.458L548.511 46.9341C549.578 45.2349 551.089 44.3853 553.046 44.3853C553.679 44.3853 554.16 44.4673 554.488 44.6313V47.6548Z" fill="white"/>
<path d="M568.533 63.7563C568.345 63.3813 568.193 62.7134 568.076 61.7524C566.564 63.3228 564.759 64.1079 562.662 64.1079C560.787 64.1079 559.246 63.5806 558.039 62.5259C556.843 61.4595 556.246 60.1118 556.246 58.4829C556.246 56.5024 556.996 54.9673 558.496 53.8774C560.007 52.7759 562.128 52.2251 564.859 52.2251H568.023V50.731C568.023 49.5942 567.683 48.6919 567.003 48.0239C566.324 47.3442 565.322 47.0044 563.998 47.0044C562.837 47.0044 561.865 47.2974 561.08 47.8833C560.294 48.4692 559.902 49.1782 559.902 50.0103H556.632C556.632 49.061 556.966 48.147 557.634 47.2681C558.314 46.3774 559.228 45.6743 560.376 45.1587C561.537 44.6431 562.808 44.3853 564.191 44.3853C566.382 44.3853 568.099 44.936 569.341 46.0376C570.583 47.1274 571.228 48.6333 571.275 50.5552V59.3091C571.275 61.0552 571.498 62.4438 571.943 63.4751V63.7563H568.533ZM563.136 61.2778C564.156 61.2778 565.123 61.0142 566.037 60.4868C566.951 59.9595 567.613 59.2739 568.023 58.4302V54.5278H565.474C561.49 54.5278 559.498 55.6938 559.498 58.0259C559.498 59.0454 559.837 59.8423 560.517 60.4165C561.197 60.9907 562.07 61.2778 563.136 61.2778Z" fill="white"/>
<path d="M587.447 58.7114C587.447 57.8325 587.113 57.1528 586.445 56.6724C585.789 56.1802 584.634 55.7583 582.982 55.4067C581.341 55.0552 580.035 54.6333 579.062 54.1411C578.101 53.6489 577.386 53.063 576.917 52.3833C576.46 51.7036 576.232 50.895 576.232 49.9575C576.232 48.3989 576.888 47.0806 578.201 46.0024C579.525 44.9243 581.212 44.3853 583.263 44.3853C585.419 44.3853 587.166 44.9419 588.501 46.0552C589.849 47.1685 590.523 48.5923 590.523 50.3267H587.253C587.253 49.436 586.873 48.6685 586.111 48.0239C585.361 47.3794 584.412 47.0571 583.263 47.0571C582.08 47.0571 581.154 47.3149 580.486 47.8306C579.818 48.3462 579.484 49.02 579.484 49.8521C579.484 50.6372 579.794 51.229 580.416 51.6274C581.037 52.0259 582.156 52.4067 583.773 52.77C585.402 53.1333 586.72 53.5669 587.728 54.0708C588.736 54.5747 589.48 55.1841 589.96 55.8989C590.453 56.6021 590.699 57.4634 590.699 58.4829C590.699 60.1821 590.019 61.5474 588.66 62.5786C587.3 63.5981 585.537 64.1079 583.369 64.1079C581.845 64.1079 580.498 63.8384 579.326 63.2993C578.154 62.7603 577.234 62.0103 576.566 61.0493C575.91 60.0767 575.582 59.0278 575.582 57.9028H578.833C578.892 58.9927 579.326 59.8599 580.134 60.5044C580.955 61.1372 582.033 61.4536 583.369 61.4536C584.599 61.4536 585.583 61.2075 586.322 60.7153C587.072 60.2114 587.447 59.5435 587.447 58.7114Z" fill="white"/>
<path d="M594.83 68.854L592.984 67.5884C594.085 66.0532 594.66 64.4712 594.707 62.8423V59.9067H597.888V62.4556C597.888 63.6392 597.595 64.8228 597.009 66.0063C596.435 67.1899 595.708 68.1392 594.83 68.854Z" fill="white"/>
<path d="M618.935 51.8032C618.923 53.0454 618.794 54.0415 618.548 54.7915C618.313 55.5298 617.915 56.2446 617.353 56.936C616.79 57.6274 615.97 58.5415 614.892 59.6782C613.813 60.8032 613.21 61.9458 613.081 63.106L613.046 63.7563C613.046 65.0337 613.386 66.0063 614.065 66.6743C614.745 67.354 615.724 67.6938 617.001 67.6938C618.173 67.6938 619.122 67.3599 619.849 66.6919C620.587 66.0356 620.956 65.1743 620.956 64.1079H624.208C624.185 65.9946 623.511 67.5356 622.187 68.731C620.874 69.9263 619.146 70.5239 617.001 70.5239C614.704 70.5239 612.929 69.9321 611.675 68.7485C610.421 67.5767 609.794 65.9419 609.794 63.8442C609.794 61.8169 610.731 59.7778 612.606 57.7271L614.522 55.7407C615.296 54.8267 615.683 53.5142 615.683 51.8032H618.935ZM619.075 46.231C619.075 46.7583 618.911 47.2036 618.583 47.5669C618.267 47.9302 617.792 48.1118 617.159 48.1118C616.526 48.1118 616.046 47.9302 615.718 47.5669C615.39 47.2036 615.226 46.7583 615.226 46.231C615.226 45.7153 615.39 45.2817 615.718 44.9302C616.046 44.5786 616.526 44.4028 617.159 44.4028C617.792 44.4028 618.267 44.5786 618.583 44.9302C618.911 45.2817 619.075 45.7153 619.075 46.231Z" fill="white"/>
<path d="M635.739 61.4536C636.899 61.4536 637.913 61.1021 638.78 60.3989C639.647 59.6958 640.128 58.8169 640.222 57.7622H643.298C643.239 58.8521 642.864 59.8892 642.173 60.8735C641.481 61.8579 640.556 62.6431 639.396 63.229C638.247 63.8149 637.028 64.1079 635.739 64.1079C633.149 64.1079 631.087 63.2466 629.552 61.5239C628.028 59.7896 627.267 57.4224 627.267 54.4224V53.8774C627.267 52.0259 627.606 50.3794 628.286 48.938C628.966 47.4966 629.938 46.3774 631.204 45.5806C632.481 44.7837 633.987 44.3853 635.722 44.3853C637.854 44.3853 639.624 45.0239 641.03 46.3013C642.448 47.5786 643.204 49.2368 643.298 51.2759H640.222C640.128 50.0454 639.659 49.0376 638.815 48.2524C637.983 47.4556 636.952 47.0571 635.722 47.0571C634.069 47.0571 632.786 47.6548 631.872 48.8501C630.97 50.0337 630.519 51.7505 630.519 54.0005V54.6157C630.519 56.8071 630.97 58.4946 631.872 59.6782C632.774 60.8618 634.063 61.4536 635.739 61.4536Z" fill="white"/>
<path d="M658.696 61.8755C657.431 63.3638 655.573 64.1079 653.124 64.1079C651.097 64.1079 649.55 63.522 648.483 62.3501C647.429 61.1665 646.896 59.4204 646.884 57.1118V44.7368H650.136V57.0239C650.136 59.9067 651.308 61.3481 653.651 61.3481C656.136 61.3481 657.788 60.4224 658.608 58.5708V44.7368H661.86V63.7563H658.767L658.696 61.8755Z" fill="white"/>
<path d="M678.56 63.7563C678.372 63.3813 678.22 62.7134 678.103 61.7524C676.591 63.3228 674.786 64.1079 672.688 64.1079C670.813 64.1079 669.272 63.5806 668.065 62.5259C666.87 61.4595 666.272 60.1118 666.272 58.4829C666.272 56.5024 667.022 54.9673 668.522 53.8774C670.034 52.7759 672.155 52.2251 674.886 52.2251H678.05V50.731C678.05 49.5942 677.71 48.6919 677.03 48.0239C676.351 47.3442 675.349 47.0044 674.024 47.0044C672.864 47.0044 671.892 47.2974 671.106 47.8833C670.321 48.4692 669.929 49.1782 669.929 50.0103H666.659C666.659 49.061 666.993 48.147 667.661 47.2681C668.341 46.3774 669.255 45.6743 670.403 45.1587C671.563 44.6431 672.835 44.3853 674.218 44.3853C676.409 44.3853 678.126 44.936 679.368 46.0376C680.61 47.1274 681.255 48.6333 681.302 50.5552V59.3091C681.302 61.0552 681.524 62.4438 681.97 63.4751V63.7563H678.56ZM673.163 61.2778C674.183 61.2778 675.149 61.0142 676.063 60.4868C676.978 59.9595 677.64 59.2739 678.05 58.4302V54.5278H675.501C671.517 54.5278 669.524 55.6938 669.524 58.0259C669.524 59.0454 669.864 59.8423 670.544 60.4165C671.224 60.9907 672.097 61.2778 673.163 61.2778ZM676.169 36.7563H680.106L675.396 41.9243H672.776L676.169 36.7563Z" fill="white"/>
<path d="M689.933 63.7563H686.681V36.7563H689.933V63.7563Z" fill="white"/>
<path d="M712.104 64.1079C709.526 64.1079 707.428 63.2642 705.811 61.5767C704.194 59.8774 703.385 57.6099 703.385 54.7739V54.1763C703.385 52.2896 703.743 50.6079 704.458 49.1313C705.184 47.6431 706.192 46.4829 707.481 45.6509C708.782 44.8071 710.188 44.3853 711.7 44.3853C714.172 44.3853 716.094 45.1997 717.465 46.8286C718.836 48.4575 719.522 50.7896 719.522 53.8247V55.1782H706.637C706.684 57.0532 707.229 58.5708 708.272 59.731C709.327 60.8794 710.663 61.4536 712.28 61.4536C713.428 61.4536 714.401 61.2192 715.198 60.7505C715.995 60.2817 716.692 59.6606 717.29 58.8872L719.276 60.4341C717.682 62.8833 715.292 64.1079 712.104 64.1079ZM711.7 47.0571C710.387 47.0571 709.286 47.5376 708.395 48.4985C707.504 49.4478 706.954 50.7837 706.743 52.5063H716.27V52.2603C716.176 50.6079 715.731 49.3306 714.934 48.4282C714.137 47.5142 713.059 47.0571 711.7 47.0571Z" fill="white"/>
<path d="M734.375 58.7114C734.375 57.8325 734.042 57.1528 733.374 56.6724C732.717 56.1802 731.563 55.7583 729.911 55.4067C728.27 55.0552 726.963 54.6333 725.991 54.1411C725.03 53.6489 724.315 53.063 723.846 52.3833C723.389 51.7036 723.161 50.895 723.161 49.9575C723.161 48.3989 723.817 47.0806 725.129 46.0024C726.454 44.9243 728.141 44.3853 730.192 44.3853C732.348 44.3853 734.094 44.9419 735.43 46.0552C736.778 47.1685 737.452 48.5923 737.452 50.3267H734.182C734.182 49.436 733.801 48.6685 733.04 48.0239C732.29 47.3794 731.34 47.0571 730.192 47.0571C729.008 47.0571 728.083 47.3149 727.415 47.8306C726.747 48.3462 726.413 49.02 726.413 49.8521C726.413 50.6372 726.723 51.229 727.344 51.6274C727.965 52.0259 729.084 52.4067 730.702 52.77C732.331 53.1333 733.649 53.5669 734.657 54.0708C735.665 54.5747 736.409 55.1841 736.889 55.8989C737.381 56.6021 737.627 57.4634 737.627 58.4829C737.627 60.1821 736.948 61.5474 735.588 62.5786C734.229 63.5981 732.465 64.1079 730.297 64.1079C728.774 64.1079 727.426 63.8384 726.254 63.2993C725.083 62.7603 724.163 62.0103 723.495 61.0493C722.838 60.0767 722.51 59.0278 722.51 57.9028H725.762C725.821 58.9927 726.254 59.8599 727.063 60.5044C727.883 61.1372 728.961 61.4536 730.297 61.4536C731.528 61.4536 732.512 61.2075 733.25 60.7153C734 60.2114 734.375 59.5435 734.375 58.7114Z" fill="white"/>
<path d="M758.686 64.1079C756.108 64.1079 754.01 63.2642 752.393 61.5767C750.776 59.8774 749.967 57.6099 749.967 54.7739V54.1763C749.967 52.2896 750.325 50.6079 751.04 49.1313C751.766 47.6431 752.774 46.4829 754.063 45.6509C755.364 44.8071 756.77 44.3853 758.282 44.3853C760.754 44.3853 762.676 45.1997 764.047 46.8286C765.418 48.4575 766.104 50.7896 766.104 53.8247V55.1782H753.219C753.266 57.0532 753.811 58.5708 754.854 59.731C755.909 60.8794 757.245 61.4536 758.862 61.4536C760.01 61.4536 760.983 61.2192 761.78 60.7505C762.577 60.2817 763.274 59.6606 763.872 58.8872L765.858 60.4341C764.264 62.8833 761.874 64.1079 758.686 64.1079ZM758.282 47.0571C756.969 47.0571 755.868 47.5376 754.977 48.4985C754.086 49.4478 753.536 50.7837 753.325 52.5063H762.852V52.2603C762.758 50.6079 762.313 49.3306 761.516 48.4282C760.719 47.5142 759.641 47.0571 758.282 47.0571Z" fill="white"/>
<path d="M773.417 63.7563H770.165V36.7563H773.417V63.7563Z" fill="white"/>
<path d="M790.771 44.7368L790.877 47.1274C792.33 45.2993 794.229 44.3853 796.572 44.3853C800.592 44.3853 802.619 46.6528 802.654 51.188V63.7563H799.402V51.1704C799.391 49.7993 799.074 48.7856 798.453 48.1294C797.844 47.4731 796.889 47.145 795.588 47.145C794.533 47.145 793.607 47.4263 792.811 47.9888C792.014 48.5513 791.393 49.2896 790.947 50.2036V63.7563H787.695V44.7368H790.771Z" fill="white"/>
<path d="M819.301 61.8755C818.035 63.3638 816.178 64.1079 813.729 64.1079C811.701 64.1079 810.154 63.522 809.088 62.3501C808.033 61.1665 807.5 59.4204 807.488 57.1118V44.7368H810.74V57.0239C810.74 59.9067 811.912 61.3481 814.256 61.3481C816.74 61.3481 818.393 60.4224 819.213 58.5708V44.7368H822.465V63.7563H819.371L819.301 61.8755ZM816.664 36.7563H820.602L815.891 41.9243H813.271L816.664 36.7563Z" fill="white"/>
<path d="M830.48 44.7368L830.568 46.8462C831.963 45.2056 833.844 44.3853 836.211 44.3853C838.871 44.3853 840.682 45.4048 841.643 47.4438C842.275 46.5298 843.096 45.7915 844.104 45.229C845.123 44.6665 846.324 44.3853 847.707 44.3853C851.879 44.3853 854 46.5942 854.07 51.0122V63.7563H850.818V51.2056C850.818 49.8462 850.508 48.8325 849.887 48.1646C849.266 47.4849 848.223 47.145 846.758 47.145C845.551 47.145 844.549 47.5083 843.752 48.2349C842.955 48.9497 842.492 49.9165 842.363 51.1353V63.7563H839.094V51.2935C839.094 48.5278 837.74 47.145 835.033 47.145C832.9 47.145 831.441 48.0532 830.656 49.8696V63.7563H827.404V44.7368H830.48Z" fill="white"/>
<path d="M866.885 64.1079C864.307 64.1079 862.209 63.2642 860.592 61.5767C858.975 59.8774 858.166 57.6099 858.166 54.7739V54.1763C858.166 52.2896 858.523 50.6079 859.238 49.1313C859.965 47.6431 860.973 46.4829 862.262 45.6509C863.562 44.8071 864.969 44.3853 866.48 44.3853C868.953 44.3853 870.875 45.1997 872.246 46.8286C873.617 48.4575 874.303 50.7896 874.303 53.8247V55.1782H861.418C861.465 57.0532 862.01 58.5708 863.053 59.731C864.107 60.8794 865.443 61.4536 867.061 61.4536C868.209 61.4536 869.182 61.2192 869.979 60.7505C870.775 60.2817 871.473 59.6606 872.07 58.8872L874.057 60.4341C872.463 62.8833 870.072 64.1079 866.885 64.1079ZM866.48 47.0571C865.168 47.0571 864.066 47.5376 863.176 48.4985C862.285 49.4478 861.734 50.7837 861.523 52.5063H871.051V52.2603C870.957 50.6079 870.512 49.3306 869.715 48.4282C868.918 47.5142 867.84 47.0571 866.48 47.0571Z" fill="white"/>
<path d="M887.275 47.6548C886.783 47.5728 886.25 47.5317 885.676 47.5317C883.543 47.5317 882.096 48.4399 881.334 50.2563V63.7563H878.082V44.7368H881.246L881.299 46.9341C882.365 45.2349 883.877 44.3853 885.834 44.3853C886.467 44.3853 886.947 44.4673 887.275 44.6313V47.6548Z" fill="white"/>
<path d="M889.068 54.0708C889.068 52.2075 889.432 50.5317 890.158 49.0435C890.896 47.5552 891.916 46.4067 893.217 45.5981C894.529 44.7896 896.023 44.3853 897.699 44.3853C900.289 44.3853 902.381 45.2817 903.975 47.0747C905.58 48.8677 906.383 51.2524 906.383 54.229V54.4575C906.383 56.3091 906.025 57.9731 905.311 59.4497C904.607 60.9146 903.594 62.0571 902.27 62.8774C900.957 63.6978 899.445 64.1079 897.734 64.1079C895.156 64.1079 893.064 63.2114 891.459 61.4185C889.865 59.6255 889.068 57.2524 889.068 54.2993V54.0708ZM892.338 54.4575C892.338 56.5669 892.824 58.2603 893.797 59.5376C894.781 60.8149 896.094 61.4536 897.734 61.4536C899.387 61.4536 900.699 60.8091 901.672 59.52C902.645 58.2192 903.131 56.4028 903.131 54.0708C903.131 51.9849 902.633 50.2974 901.637 49.0083C900.652 47.7075 899.34 47.0571 897.699 47.0571C896.094 47.0571 894.799 47.6958 893.814 48.9731C892.83 50.2505 892.338 52.0786 892.338 54.4575Z" fill="white"/>
<path d="M27.873 82.1313V86.7368H31.4238V89.2505H27.873V101.045C27.873 101.807 28.0312 102.381 28.3477 102.768C28.6641 103.143 29.2031 103.331 29.9648 103.331C30.3398 103.331 30.8555 103.26 31.5117 103.12V105.756C30.6562 105.991 29.8242 106.108 29.0156 106.108C27.5625 106.108 26.4668 105.668 25.7285 104.79C24.9902 103.911 24.6211 102.663 24.6211 101.045V89.2505H21.1582V86.7368H24.6211V82.1313H27.873Z" fill="white"/>
<path d="M34.0254 96.0708C34.0254 94.2075 34.3887 92.5317 35.1152 91.0435C35.8535 89.5552 36.873 88.4067 38.1738 87.5981C39.4863 86.7896 40.9805 86.3853 42.6562 86.3853C45.2461 86.3853 47.3379 87.2817 48.9316 89.0747C50.5371 90.8677 51.3398 93.2524 51.3398 96.229V96.4575C51.3398 98.3091 50.9824 99.9731 50.2676 101.45C49.5645 102.915 48.5508 104.057 47.2266 104.877C45.9141 105.698 44.4023 106.108 42.6914 106.108C40.1133 106.108 38.0215 105.211 36.416 103.418C34.8223 101.625 34.0254 99.2524 34.0254 96.2993V96.0708ZM37.2949 96.4575C37.2949 98.5669 37.7812 100.26 38.7539 101.538C39.7383 102.815 41.0508 103.454 42.6914 103.454C44.3438 103.454 45.6562 102.809 46.6289 101.52C47.6016 100.219 48.0879 98.4028 48.0879 96.0708C48.0879 93.9849 47.5898 92.2974 46.5938 91.0083C45.6094 89.7075 44.2969 89.0571 42.6562 89.0571C41.0508 89.0571 39.7559 89.6958 38.7715 90.9731C37.7871 92.2505 37.2949 94.0786 37.2949 96.4575Z" fill="white"/>
<path d="M59.8301 82.1313V86.7368H63.3809V89.2505H59.8301V101.045C59.8301 101.807 59.9883 102.381 60.3047 102.768C60.6211 103.143 61.1602 103.331 61.9219 103.331C62.2969 103.331 62.8125 103.26 63.4688 103.12V105.756C62.6133 105.991 61.7812 106.108 60.9727 106.108C59.5195 106.108 58.4238 105.668 57.6855 104.79C56.9473 103.911 56.5781 102.663 56.5781 101.045V89.2505H53.1152V86.7368H56.5781V82.1313H59.8301Z" fill="white"/>
<path d="M78.9375 105.756C78.75 105.381 78.5977 104.713 78.4805 103.752C76.9688 105.323 75.1641 106.108 73.0664 106.108C71.1914 106.108 69.6504 105.581 68.4434 104.526C67.248 103.459 66.6504 102.112 66.6504 100.483C66.6504 98.5024 67.4004 96.9673 68.9004 95.8774C70.4121 94.7759 72.5332 94.2251 75.2637 94.2251H78.4277V92.731C78.4277 91.5942 78.0879 90.6919 77.4082 90.0239C76.7285 89.3442 75.7266 89.0044 74.4023 89.0044C73.2422 89.0044 72.2695 89.2974 71.4844 89.8833C70.6992 90.4692 70.3066 91.1782 70.3066 92.0103H67.0371C67.0371 91.061 67.3711 90.147 68.0391 89.2681C68.7188 88.3774 69.6328 87.6743 70.7812 87.1587C71.9414 86.6431 73.2129 86.3853 74.5957 86.3853C76.7871 86.3853 78.5039 86.936 79.7461 88.0376C80.9883 89.1274 81.6328 90.6333 81.6797 92.5552V101.309C81.6797 103.055 81.9023 104.444 82.3477 105.475V105.756H78.9375ZM73.541 103.278C74.5605 103.278 75.5273 103.014 76.4414 102.487C77.3555 101.959 78.0176 101.274 78.4277 100.43V96.5278H75.8789C71.8945 96.5278 69.9023 97.6938 69.9023 100.026C69.9023 101.045 70.2422 101.842 70.9219 102.417C71.6016 102.991 72.4746 103.278 73.541 103.278Z" fill="white"/>
<path d="M90.3105 105.756H87.0586V78.7563H90.3105V105.756Z" fill="white"/>
<path d="M110.527 82.1313V86.7368H114.077V89.2505H110.527V101.045C110.527 101.807 110.685 102.381 111.001 102.768C111.318 103.143 111.857 103.331 112.618 103.331C112.993 103.331 113.509 103.26 114.165 103.12V105.756C113.31 105.991 112.478 106.108 111.669 106.108C110.216 106.108 109.12 105.668 108.382 104.79C107.644 103.911 107.275 102.663 107.275 101.045V89.2505H103.812V86.7368H107.275V82.1313H110.527Z" fill="white"/>
<path d="M116.679 96.0708C116.679 94.2075 117.042 92.5317 117.769 91.0435C118.507 89.5552 119.527 88.4067 120.827 87.5981C122.14 86.7896 123.634 86.3853 125.31 86.3853C127.9 86.3853 129.992 87.2817 131.585 89.0747C133.191 90.8677 133.993 93.2524 133.993 96.229V96.4575C133.993 98.3091 133.636 99.9731 132.921 101.45C132.218 102.915 131.204 104.057 129.88 104.877C128.568 105.698 127.056 106.108 125.345 106.108C122.767 106.108 120.675 105.211 119.07 103.418C117.476 101.625 116.679 99.2524 116.679 96.2993V96.0708ZM119.949 96.4575C119.949 98.5669 120.435 100.26 121.408 101.538C122.392 102.815 123.704 103.454 125.345 103.454C126.997 103.454 128.31 102.809 129.283 101.52C130.255 100.219 130.742 98.4028 130.742 96.0708C130.742 93.9849 130.243 92.2974 129.247 91.0083C128.263 89.7075 126.951 89.0571 125.31 89.0571C123.704 89.0571 122.41 89.6958 121.425 90.9731C120.441 92.2505 119.949 94.0786 119.949 96.4575Z" fill="white"/>
<path d="M142.484 82.1313V86.7368H146.035V89.2505H142.484V101.045C142.484 101.807 142.642 102.381 142.958 102.768C143.275 103.143 143.814 103.331 144.576 103.331C144.951 103.331 145.466 103.26 146.122 103.12V105.756C145.267 105.991 144.435 106.108 143.626 106.108C142.173 106.108 141.077 105.668 140.339 104.79C139.601 103.911 139.232 102.663 139.232 101.045V89.2505H135.769V86.7368H139.232V82.1313H142.484Z" fill="white"/>
<path d="M161.591 105.756C161.404 105.381 161.251 104.713 161.134 103.752C159.622 105.323 157.818 106.108 155.72 106.108C153.845 106.108 152.304 105.581 151.097 104.526C149.902 103.459 149.304 102.112 149.304 100.483C149.304 98.5024 150.054 96.9673 151.554 95.8774C153.066 94.7759 155.187 94.2251 157.917 94.2251H161.081V92.731C161.081 91.5942 160.742 90.6919 160.062 90.0239C159.382 89.3442 158.38 89.0044 157.056 89.0044C155.896 89.0044 154.923 89.2974 154.138 89.8833C153.353 90.4692 152.96 91.1782 152.96 92.0103H149.691C149.691 91.061 150.025 90.147 150.693 89.2681C151.372 88.3774 152.286 87.6743 153.435 87.1587C154.595 86.6431 155.867 86.3853 157.249 86.3853C159.441 86.3853 161.158 86.936 162.4 88.0376C163.642 89.1274 164.286 90.6333 164.333 92.5552V101.309C164.333 103.055 164.556 104.444 165.001 105.475V105.756H161.591ZM156.195 103.278C157.214 103.278 158.181 103.014 159.095 102.487C160.009 101.959 160.671 101.274 161.081 100.43V96.5278H158.533C154.548 96.5278 152.556 97.6938 152.556 100.026C152.556 101.045 152.896 101.842 153.576 102.417C154.255 102.991 155.128 103.278 156.195 103.278Z" fill="white"/>
<path d="M172.964 105.756H169.712V78.7563H172.964V105.756Z" fill="white"/>
<path d="M187.977 96.0884C187.977 93.1704 188.669 90.8267 190.051 89.0571C191.434 87.2759 193.245 86.3853 195.483 86.3853C197.71 86.3853 199.473 87.147 200.774 88.6704V78.7563H204.026V105.756H201.038L200.88 103.717C199.579 105.311 197.768 106.108 195.448 106.108C193.245 106.108 191.446 105.206 190.051 103.401C188.669 101.596 187.977 99.2407 187.977 96.3345V96.0884ZM191.229 96.4575C191.229 98.6138 191.674 100.301 192.565 101.52C193.456 102.739 194.686 103.348 196.257 103.348C198.319 103.348 199.825 102.422 200.774 100.571V91.8345C199.801 90.0415 198.307 89.145 196.292 89.145C194.698 89.145 193.456 89.7603 192.565 90.9907C191.674 92.2212 191.229 94.0435 191.229 96.4575Z" fill="white"/>
<path d="M216.981 106.108C214.403 106.108 212.305 105.264 210.688 103.577C209.071 101.877 208.262 99.6099 208.262 96.7739V96.1763C208.262 94.2896 208.62 92.6079 209.335 91.1313C210.061 89.6431 211.069 88.4829 212.358 87.6509C213.659 86.8071 215.065 86.3853 216.577 86.3853C219.049 86.3853 220.971 87.1997 222.342 88.8286C223.714 90.4575 224.399 92.7896 224.399 95.8247V97.1782H211.514C211.561 99.0532 212.106 100.571 213.149 101.731C214.204 102.879 215.54 103.454 217.157 103.454C218.305 103.454 219.278 103.219 220.075 102.75C220.872 102.282 221.569 101.661 222.167 100.887L224.153 102.434C222.559 104.883 220.169 106.108 216.981 106.108ZM216.577 89.0571C215.264 89.0571 214.163 89.5376 213.272 90.4985C212.382 91.4478 211.831 92.7837 211.62 94.5063H221.147V94.2603C221.053 92.6079 220.608 91.3306 219.811 90.4282C219.014 89.5142 217.936 89.0571 216.577 89.0571Z" fill="white"/>
<path d="M243.174 82.1313V86.7368H246.725V89.2505H243.174V101.045C243.174 101.807 243.332 102.381 243.648 102.768C243.965 103.143 244.504 103.331 245.266 103.331C245.641 103.331 246.156 103.26 246.812 103.12V105.756C245.957 105.991 245.125 106.108 244.316 106.108C242.863 106.108 241.768 105.668 241.029 104.79C240.291 103.911 239.922 102.663 239.922 101.045V89.2505H236.459V86.7368H239.922V82.1313H243.174Z" fill="white"/>
<path d="M259.732 89.6548C259.24 89.5728 258.707 89.5317 258.133 89.5317C256 89.5317 254.553 90.4399 253.791 92.2563V105.756H250.539V86.7368H253.703L253.756 88.9341C254.822 87.2349 256.334 86.3853 258.291 86.3853C258.924 86.3853 259.404 86.4673 259.732 86.6313V89.6548Z" fill="white"/>
<path d="M273.777 105.756C273.59 105.381 273.438 104.713 273.32 103.752C271.809 105.323 270.004 106.108 267.906 106.108C266.031 106.108 264.49 105.581 263.283 104.526C262.088 103.459 261.49 102.112 261.49 100.483C261.49 98.5024 262.24 96.9673 263.74 95.8774C265.252 94.7759 267.373 94.2251 270.104 94.2251H273.268V92.731C273.268 91.5942 272.928 90.6919 272.248 90.0239C271.568 89.3442 270.566 89.0044 269.242 89.0044C268.082 89.0044 267.109 89.2974 266.324 89.8833C265.539 90.4692 265.146 91.1782 265.146 92.0103H261.877C261.877 91.061 262.211 90.147 262.879 89.2681C263.559 88.3774 264.473 87.6743 265.621 87.1587C266.781 86.6431 268.053 86.3853 269.436 86.3853C271.627 86.3853 273.344 86.936 274.586 88.0376C275.828 89.1274 276.473 90.6333 276.52 92.5552V101.309C276.52 103.055 276.742 104.444 277.188 105.475V105.756H273.777ZM268.381 103.278C269.4 103.278 270.367 103.014 271.281 102.487C272.195 101.959 272.857 101.274 273.268 100.43V96.5278H270.719C266.734 96.5278 264.742 97.6938 264.742 100.026C264.742 101.045 265.082 101.842 265.762 102.417C266.441 102.991 267.314 103.278 268.381 103.278Z" fill="white"/>
<path d="M297.684 96.4575C297.684 99.3521 297.021 101.684 295.697 103.454C294.373 105.223 292.58 106.108 290.318 106.108C288.01 106.108 286.193 105.375 284.869 103.911V113.069H281.617V86.7368H284.588L284.746 88.8462C286.07 87.2056 287.91 86.3853 290.266 86.3853C292.551 86.3853 294.355 87.2466 295.68 88.9692C297.016 90.6919 297.684 93.0884 297.684 96.1587V96.4575ZM294.432 96.0884C294.432 93.9438 293.975 92.2505 293.061 91.0083C292.146 89.7661 290.893 89.145 289.299 89.145C287.33 89.145 285.854 90.0181 284.869 91.7642V100.852C285.842 102.586 287.33 103.454 289.334 103.454C290.893 103.454 292.129 102.838 293.043 101.608C293.969 100.366 294.432 98.5259 294.432 96.0884Z" fill="white"/>
<path d="M309.725 106.108C307.146 106.108 305.049 105.264 303.432 103.577C301.814 101.877 301.006 99.6099 301.006 96.7739V96.1763C301.006 94.2896 301.363 92.6079 302.078 91.1313C302.805 89.6431 303.812 88.4829 305.102 87.6509C306.402 86.8071 307.809 86.3853 309.32 86.3853C311.793 86.3853 313.715 87.1997 315.086 88.8286C316.457 90.4575 317.143 92.7896 317.143 95.8247V97.1782H304.258C304.305 99.0532 304.85 100.571 305.893 101.731C306.947 102.879 308.283 103.454 309.9 103.454C311.049 103.454 312.021 103.219 312.818 102.75C313.615 102.282 314.312 101.661 314.91 100.887L316.896 102.434C315.303 104.883 312.912 106.108 309.725 106.108ZM309.32 89.0571C308.008 89.0571 306.906 89.5376 306.016 90.4985C305.125 91.4478 304.574 92.7837 304.363 94.5063H313.891V94.2603C313.797 92.6079 313.352 91.3306 312.555 90.4282C311.758 89.5142 310.68 89.0571 309.32 89.0571Z" fill="white"/>
<path d="M328.551 103.454C329.711 103.454 330.725 103.102 331.592 102.399C332.459 101.696 332.939 100.817 333.033 99.7622H336.109C336.051 100.852 335.676 101.889 334.984 102.874C334.293 103.858 333.367 104.643 332.207 105.229C331.059 105.815 329.84 106.108 328.551 106.108C325.961 106.108 323.898 105.247 322.363 103.524C320.84 101.79 320.078 99.4224 320.078 96.4224V95.8774C320.078 94.0259 320.418 92.3794 321.098 90.938C321.777 89.4966 322.75 88.3774 324.016 87.5806C325.293 86.7837 326.799 86.3853 328.533 86.3853C330.666 86.3853 332.436 87.0239 333.842 88.3013C335.26 89.5786 336.016 91.2368 336.109 93.2759H333.033C332.939 92.0454 332.471 91.0376 331.627 90.2524C330.795 89.4556 329.764 89.0571 328.533 89.0571C326.881 89.0571 325.598 89.6548 324.684 90.8501C323.781 92.0337 323.33 93.7505 323.33 96.0005V96.6157C323.33 98.8071 323.781 100.495 324.684 101.678C325.586 102.862 326.875 103.454 328.551 103.454Z" fill="white"/>
<path d="M343.299 105.756H340.047V86.7368H343.299V105.756ZM339.783 81.6919C339.783 81.1646 339.941 80.7192 340.258 80.356C340.586 79.9927 341.066 79.811 341.699 79.811C342.332 79.811 342.812 79.9927 343.141 80.356C343.469 80.7192 343.633 81.1646 343.633 81.6919C343.633 82.2192 343.469 82.6587 343.141 83.0103C342.812 83.3618 342.332 83.5376 341.699 83.5376C341.066 83.5376 340.586 83.3618 340.258 83.0103C339.941 82.6587 339.783 82.2192 339.783 81.6919Z" fill="white"/>
<path d="M347.658 96.0708C347.658 94.2075 348.021 92.5317 348.748 91.0435C349.486 89.5552 350.506 88.4067 351.807 87.5981C353.119 86.7896 354.613 86.3853 356.289 86.3853C358.879 86.3853 360.971 87.2817 362.564 89.0747C364.17 90.8677 364.973 93.2524 364.973 96.229V96.4575C364.973 98.3091 364.615 99.9731 363.9 101.45C363.197 102.915 362.184 104.057 360.859 104.877C359.547 105.698 358.035 106.108 356.324 106.108C353.746 106.108 351.654 105.211 350.049 103.418C348.455 101.625 347.658 99.2524 347.658 96.2993V96.0708ZM350.928 96.4575C350.928 98.5669 351.414 100.26 352.387 101.538C353.371 102.815 354.684 103.454 356.324 103.454C357.977 103.454 359.289 102.809 360.262 101.52C361.234 100.219 361.721 98.4028 361.721 96.0708C361.721 93.9849 361.223 92.2974 360.227 91.0083C359.242 89.7075 357.93 89.0571 356.289 89.0571C354.684 89.0571 353.389 89.6958 352.404 90.9731C351.42 92.2505 350.928 94.0786 350.928 96.4575Z" fill="white"/>
<path d="M380.125 100.711C380.125 99.8325 379.791 99.1528 379.123 98.6724C378.467 98.1802 377.312 97.7583 375.66 97.4067C374.02 97.0552 372.713 96.6333 371.74 96.1411C370.779 95.6489 370.064 95.063 369.596 94.3833C369.139 93.7036 368.91 92.895 368.91 91.9575C368.91 90.3989 369.566 89.0806 370.879 88.0024C372.203 86.9243 373.891 86.3853 375.941 86.3853C378.098 86.3853 379.844 86.9419 381.18 88.0552C382.527 89.1685 383.201 90.5923 383.201 92.3267H379.932C379.932 91.436 379.551 90.6685 378.789 90.0239C378.039 89.3794 377.09 89.0571 375.941 89.0571C374.758 89.0571 373.832 89.3149 373.164 89.8306C372.496 90.3462 372.162 91.02 372.162 91.8521C372.162 92.6372 372.473 93.229 373.094 93.6274C373.715 94.0259 374.834 94.4067 376.451 94.77C378.08 95.1333 379.398 95.5669 380.406 96.0708C381.414 96.5747 382.158 97.1841 382.639 97.8989C383.131 98.6021 383.377 99.4634 383.377 100.483C383.377 102.182 382.697 103.547 381.338 104.579C379.979 105.598 378.215 106.108 376.047 106.108C374.523 106.108 373.176 105.838 372.004 105.299C370.832 104.76 369.912 104.01 369.244 103.049C368.588 102.077 368.26 101.028 368.26 99.9028H371.512C371.57 100.993 372.004 101.86 372.812 102.504C373.633 103.137 374.711 103.454 376.047 103.454C377.277 103.454 378.262 103.208 379 102.715C379.75 102.211 380.125 101.543 380.125 100.711Z" fill="white"/>
<path d="M405.736 89.6548C405.244 89.5728 404.711 89.5317 404.137 89.5317C402.004 89.5317 400.557 90.4399 399.795 92.2563V105.756H396.543V86.7368H399.707L399.76 88.9341C400.826 87.2349 402.338 86.3853 404.295 86.3853C404.928 86.3853 405.408 86.4673 405.736 86.6313V89.6548Z" fill="white"/>
<path d="M416.283 106.108C413.705 106.108 411.607 105.264 409.99 103.577C408.373 101.877 407.564 99.6099 407.564 96.7739V96.1763C407.564 94.2896 407.922 92.6079 408.637 91.1313C409.363 89.6431 410.371 88.4829 411.66 87.6509C412.961 86.8071 414.367 86.3853 415.879 86.3853C418.352 86.3853 420.273 87.1997 421.645 88.8286C423.016 90.4575 423.701 92.7896 423.701 95.8247V97.1782H410.816C410.863 99.0532 411.408 100.571 412.451 101.731C413.506 102.879 414.842 103.454 416.459 103.454C417.607 103.454 418.58 103.219 419.377 102.75C420.174 102.282 420.871 101.661 421.469 100.887L423.455 102.434C421.861 104.883 419.471 106.108 416.283 106.108ZM415.879 89.0571C414.566 89.0571 413.465 89.5376 412.574 90.4985C411.684 91.4478 411.133 92.7837 410.922 94.5063H420.449V94.2603C420.355 92.6079 419.91 91.3306 419.113 90.4282C418.316 89.5142 417.238 89.0571 415.879 89.0571Z" fill="white"/>
<path d="M435.109 103.454C436.27 103.454 437.283 103.102 438.15 102.399C439.018 101.696 439.498 100.817 439.592 99.7622H442.668C442.609 100.852 442.234 101.889 441.543 102.874C440.852 103.858 439.926 104.643 438.766 105.229C437.617 105.815 436.398 106.108 435.109 106.108C432.52 106.108 430.457 105.247 428.922 103.524C427.398 101.79 426.637 99.4224 426.637 96.4224V95.8774C426.637 94.0259 426.977 92.3794 427.656 90.938C428.336 89.4966 429.309 88.3774 430.574 87.5806C431.852 86.7837 433.357 86.3853 435.092 86.3853C437.225 86.3853 438.994 87.0239 440.4 88.3013C441.818 89.5786 442.574 91.2368 442.668 93.2759H439.592C439.498 92.0454 439.029 91.0376 438.186 90.2524C437.354 89.4556 436.322 89.0571 435.092 89.0571C433.439 89.0571 432.156 89.6548 431.242 90.8501C430.34 92.0337 429.889 93.7505 429.889 96.0005V96.6157C429.889 98.8071 430.34 100.495 431.242 101.678C432.145 102.862 433.434 103.454 435.109 103.454Z" fill="white"/>
<path d="M450.736 82.1313V86.7368H454.287V89.2505H450.736V101.045C450.736 101.807 450.895 102.381 451.211 102.768C451.527 103.143 452.066 103.331 452.828 103.331C453.203 103.331 453.719 103.26 454.375 103.12V105.756C453.52 105.991 452.688 106.108 451.879 106.108C450.426 106.108 449.33 105.668 448.592 104.79C447.854 103.911 447.484 102.663 447.484 101.045V89.2505H444.021V86.7368H447.484V82.1313H450.736Z" fill="white"/>
<path d="M469.844 105.756C469.656 105.381 469.504 104.713 469.387 103.752C467.875 105.323 466.07 106.108 463.973 106.108C462.098 106.108 460.557 105.581 459.35 104.526C458.154 103.459 457.557 102.112 457.557 100.483C457.557 98.5024 458.307 96.9673 459.807 95.8774C461.318 94.7759 463.439 94.2251 466.17 94.2251H469.334V92.731C469.334 91.5942 468.994 90.6919 468.314 90.0239C467.635 89.3442 466.633 89.0044 465.309 89.0044C464.148 89.0044 463.176 89.2974 462.391 89.8833C461.605 90.4692 461.213 91.1782 461.213 92.0103H457.943C457.943 91.061 458.277 90.147 458.945 89.2681C459.625 88.3774 460.539 87.6743 461.688 87.1587C462.848 86.6431 464.119 86.3853 465.502 86.3853C467.693 86.3853 469.41 86.936 470.652 88.0376C471.895 89.1274 472.539 90.6333 472.586 92.5552V101.309C472.586 103.055 472.809 104.444 473.254 105.475V105.756H469.844ZM464.447 103.278C465.467 103.278 466.434 103.014 467.348 102.487C468.262 101.959 468.924 101.274 469.334 100.43V96.5278H466.785C462.801 96.5278 460.809 97.6938 460.809 100.026C460.809 101.045 461.148 101.842 461.828 102.417C462.508 102.991 463.381 103.278 464.447 103.278Z" fill="white"/>
<path d="M480.76 86.7368L480.865 89.1274C482.318 87.2993 484.217 86.3853 486.561 86.3853C490.58 86.3853 492.607 88.6528 492.643 93.188V105.756H489.391V93.1704C489.379 91.7993 489.062 90.7856 488.441 90.1294C487.832 89.4731 486.877 89.145 485.576 89.145C484.521 89.145 483.596 89.4263 482.799 89.9888C482.002 90.5513 481.381 91.2896 480.936 92.2036V105.756H477.684V86.7368H480.76Z" fill="white"/>
<path d="M496.773 96.0884C496.773 93.1235 497.459 90.7681 498.83 89.022C500.201 87.2642 502.018 86.3853 504.279 86.3853C506.6 86.3853 508.41 87.2056 509.711 88.8462L509.869 86.7368H512.84V105.299C512.84 107.76 512.107 109.7 510.643 111.118C509.189 112.536 507.232 113.245 504.771 113.245C503.4 113.245 502.059 112.952 500.746 112.366C499.434 111.78 498.432 110.977 497.74 109.958L499.428 108.006C500.822 109.729 502.527 110.59 504.543 110.59C506.125 110.59 507.355 110.145 508.234 109.254C509.125 108.364 509.57 107.11 509.57 105.493V103.858C508.27 105.358 506.494 106.108 504.244 106.108C502.018 106.108 500.213 105.211 498.83 103.418C497.459 101.625 496.773 99.1821 496.773 96.0884ZM500.043 96.4575C500.043 98.6021 500.482 100.29 501.361 101.52C502.24 102.739 503.471 103.348 505.053 103.348C507.104 103.348 508.609 102.417 509.57 100.553V91.8696C508.574 90.0532 507.08 89.145 505.088 89.145C503.506 89.145 502.27 89.7603 501.379 90.9907C500.488 92.2212 500.043 94.0435 500.043 96.4575Z" fill="white"/>
<path d="M529.504 103.875C528.238 105.364 526.381 106.108 523.932 106.108C521.904 106.108 520.357 105.522 519.291 104.35C518.236 103.167 517.703 101.42 517.691 99.1118V86.7368H520.943V99.0239C520.943 101.907 522.115 103.348 524.459 103.348C526.943 103.348 528.596 102.422 529.416 100.571V86.7368H532.668V105.756H529.574L529.504 103.875Z" fill="white"/>
<path d="M541.158 105.756H537.906V78.7563H541.158V105.756Z" fill="white"/>
<path d="M558.121 105.756C557.934 105.381 557.781 104.713 557.664 103.752C556.152 105.323 554.348 106.108 552.25 106.108C550.375 106.108 548.834 105.581 547.627 104.526C546.432 103.459 545.834 102.112 545.834 100.483C545.834 98.5024 546.584 96.9673 548.084 95.8774C549.596 94.7759 551.717 94.2251 554.447 94.2251H557.611V92.731C557.611 91.5942 557.271 90.6919 556.592 90.0239C555.912 89.3442 554.91 89.0044 553.586 89.0044C552.426 89.0044 551.453 89.2974 550.668 89.8833C549.883 90.4692 549.49 91.1782 549.49 92.0103H546.221C546.221 91.061 546.555 90.147 547.223 89.2681C547.902 88.3774 548.816 87.6743 549.965 87.1587C551.125 86.6431 552.396 86.3853 553.779 86.3853C555.971 86.3853 557.688 86.936 558.93 88.0376C560.172 89.1274 560.816 90.6333 560.863 92.5552V101.309C560.863 103.055 561.086 104.444 561.531 105.475V105.756H558.121ZM552.725 103.278C553.744 103.278 554.711 103.014 555.625 102.487C556.539 101.959 557.201 101.274 557.611 100.43V96.5278H555.062C551.078 96.5278 549.086 97.6938 549.086 100.026C549.086 101.045 549.426 101.842 550.105 102.417C550.785 102.991 551.658 103.278 552.725 103.278Z" fill="white"/>
<path d="M575.154 89.6548C574.662 89.5728 574.129 89.5317 573.555 89.5317C571.422 89.5317 569.975 90.4399 569.213 92.2563V105.756H565.961V86.7368H569.125L569.178 88.9341C570.244 87.2349 571.756 86.3853 573.713 86.3853C574.346 86.3853 574.826 86.4673 575.154 86.6313V89.6548Z" fill="white"/>
<path d="M585.701 106.108C583.123 106.108 581.025 105.264 579.408 103.577C577.791 101.877 576.982 99.6099 576.982 96.7739V96.1763C576.982 94.2896 577.34 92.6079 578.055 91.1313C578.781 89.6431 579.789 88.4829 581.078 87.6509C582.379 86.8071 583.785 86.3853 585.297 86.3853C587.77 86.3853 589.691 87.1997 591.062 88.8286C592.434 90.4575 593.119 92.7896 593.119 95.8247V97.1782H580.234C580.281 99.0532 580.826 100.571 581.869 101.731C582.924 102.879 584.26 103.454 585.877 103.454C587.025 103.454 587.998 103.219 588.795 102.75C589.592 102.282 590.289 101.661 590.887 100.887L592.873 102.434C591.279 104.883 588.889 106.108 585.701 106.108ZM585.297 89.0571C583.984 89.0571 582.883 89.5376 581.992 90.4985C581.102 91.4478 580.551 92.7837 580.34 94.5063H589.867V94.2603C589.773 92.6079 589.328 91.3306 588.531 90.4282C587.734 89.5142 586.656 89.0571 585.297 89.0571Z" fill="white"/>
<path d="M607.973 100.711C607.973 99.8325 607.639 99.1528 606.971 98.6724C606.314 98.1802 605.16 97.7583 603.508 97.4067C601.867 97.0552 600.561 96.6333 599.588 96.1411C598.627 95.6489 597.912 95.063 597.443 94.3833C596.986 93.7036 596.758 92.895 596.758 91.9575C596.758 90.3989 597.414 89.0806 598.727 88.0024C600.051 86.9243 601.738 86.3853 603.789 86.3853C605.945 86.3853 607.691 86.9419 609.027 88.0552C610.375 89.1685 611.049 90.5923 611.049 92.3267H607.779C607.779 91.436 607.398 90.6685 606.637 90.0239C605.887 89.3794 604.938 89.0571 603.789 89.0571C602.605 89.0571 601.68 89.3149 601.012 89.8306C600.344 90.3462 600.01 91.02 600.01 91.8521C600.01 92.6372 600.32 93.229 600.941 93.6274C601.562 94.0259 602.682 94.4067 604.299 94.77C605.928 95.1333 607.246 95.5669 608.254 96.0708C609.262 96.5747 610.006 97.1841 610.486 97.8989C610.979 98.6021 611.225 99.4634 611.225 100.483C611.225 102.182 610.545 103.547 609.186 104.579C607.826 105.598 606.062 106.108 603.895 106.108C602.371 106.108 601.023 105.838 599.852 105.299C598.68 104.76 597.76 104.01 597.092 103.049C596.436 102.077 596.107 101.028 596.107 99.9028H599.359C599.418 100.993 599.852 101.86 600.66 102.504C601.48 103.137 602.559 103.454 603.895 103.454C605.125 103.454 606.109 103.208 606.848 102.715C607.598 102.211 607.973 101.543 607.973 100.711Z" fill="white"/>
<path d="M625.253 96.0884C625.253 93.1001 625.939 90.7388 627.31 89.0044C628.681 87.2583 630.521 86.3853 632.829 86.3853C635.079 86.3853 636.855 87.1411 638.156 88.6528L638.296 86.7368H641.284V113.069H638.033V103.999C636.72 105.405 634.974 106.108 632.794 106.108C630.497 106.108 628.663 105.217 627.292 103.436C625.933 101.643 625.253 99.27 625.253 96.3169V96.0884ZM628.505 96.4575C628.505 98.6372 628.962 100.348 629.876 101.59C630.802 102.833 632.044 103.454 633.603 103.454C635.536 103.454 637.013 102.598 638.033 100.887V91.5708C637.001 89.895 635.536 89.0571 633.638 89.0571C632.068 89.0571 630.82 89.6841 629.894 90.938C628.968 92.1802 628.505 94.02 628.505 96.4575Z" fill="white"/>
<path d="M658.247 103.875C656.982 105.364 655.124 106.108 652.675 106.108C650.648 106.108 649.101 105.522 648.034 104.35C646.98 103.167 646.447 101.42 646.435 99.1118V86.7368H649.687V99.0239C649.687 101.907 650.859 103.348 653.202 103.348C655.687 103.348 657.339 102.422 658.159 100.571V86.7368H661.411V105.756H658.318L658.247 103.875Z" fill="white"/>
<path d="M674.261 106.108C671.683 106.108 669.585 105.264 667.968 103.577C666.351 101.877 665.542 99.6099 665.542 96.7739V96.1763C665.542 94.2896 665.9 92.6079 666.615 91.1313C667.341 89.6431 668.349 88.4829 669.638 87.6509C670.939 86.8071 672.345 86.3853 673.857 86.3853C676.329 86.3853 678.251 87.1997 679.622 88.8286C680.993 90.4575 681.679 92.7896 681.679 95.8247V97.1782H668.794C668.841 99.0532 669.386 100.571 670.429 101.731C671.484 102.879 672.82 103.454 674.437 103.454C675.585 103.454 676.558 103.219 677.355 102.75C678.152 102.282 678.849 101.661 679.447 100.887L681.433 102.434C679.839 104.883 677.449 106.108 674.261 106.108ZM673.857 89.0571C672.544 89.0571 671.443 89.5376 670.552 90.4985C669.661 91.4478 669.111 92.7837 668.9 94.5063H678.427V94.2603C678.333 92.6079 677.888 91.3306 677.091 90.4282C676.294 89.5142 675.216 89.0571 673.857 89.0571Z" fill="white"/>
<path d="M703.671 103.454C704.831 103.454 705.844 103.102 706.712 102.399C707.579 101.696 708.059 100.817 708.153 99.7622H711.229C711.171 100.852 710.796 101.889 710.104 102.874C709.413 103.858 708.487 104.643 707.327 105.229C706.178 105.815 704.96 106.108 703.671 106.108C701.081 106.108 699.018 105.247 697.483 103.524C695.96 101.79 695.198 99.4224 695.198 96.4224V95.8774C695.198 94.0259 695.538 92.3794 696.217 90.938C696.897 89.4966 697.87 88.3774 699.135 87.5806C700.413 86.7837 701.919 86.3853 703.653 86.3853C705.786 86.3853 707.555 87.0239 708.962 88.3013C710.38 89.5786 711.135 91.2368 711.229 93.2759H708.153C708.059 92.0454 707.591 91.0376 706.747 90.2524C705.915 89.4556 704.883 89.0571 703.653 89.0571C702.001 89.0571 700.717 89.6548 699.803 90.8501C698.901 92.0337 698.45 93.7505 698.45 96.0005V96.6157C698.45 98.8071 698.901 100.495 699.803 101.678C700.706 102.862 701.995 103.454 703.671 103.454Z" fill="white"/>
<path d="M714.024 96.0708C714.024 94.2075 714.387 92.5317 715.114 91.0435C715.852 89.5552 716.872 88.4067 718.173 87.5981C719.485 86.7896 720.979 86.3853 722.655 86.3853C725.245 86.3853 727.337 87.2817 728.93 89.0747C730.536 90.8677 731.339 93.2524 731.339 96.229V96.4575C731.339 98.3091 730.981 99.9731 730.266 101.45C729.563 102.915 728.549 104.057 727.225 104.877C725.913 105.698 724.401 106.108 722.69 106.108C720.112 106.108 718.02 105.211 716.415 103.418C714.821 101.625 714.024 99.2524 714.024 96.2993V96.0708ZM717.294 96.4575C717.294 98.5669 717.78 100.26 718.753 101.538C719.737 102.815 721.049 103.454 722.69 103.454C724.342 103.454 725.655 102.809 726.628 101.52C727.6 100.219 728.087 98.4028 728.087 96.0708C728.087 93.9849 727.589 92.2974 726.592 91.0083C725.608 89.7075 724.296 89.0571 722.655 89.0571C721.049 89.0571 719.755 89.6958 718.77 90.9731C717.786 92.2505 717.294 94.0786 717.294 96.4575Z" fill="white"/>
<path d="M738.493 86.7368L738.598 89.1274C740.051 87.2993 741.95 86.3853 744.294 86.3853C748.313 86.3853 750.341 88.6528 750.376 93.188V105.756H747.124V93.1704C747.112 91.7993 746.796 90.7856 746.174 90.1294C745.565 89.4731 744.61 89.145 743.309 89.145C742.255 89.145 741.329 89.4263 740.532 89.9888C739.735 90.5513 739.114 91.2896 738.669 92.2036V105.756H735.417V86.7368H738.493Z" fill="white"/>
<path d="M756.88 105.756V89.2505H753.874V86.7368H756.88V84.7856C756.88 82.7466 757.424 81.1704 758.514 80.0571C759.604 78.9438 761.145 78.3872 763.137 78.3872C763.887 78.3872 764.632 78.4868 765.37 78.686L765.194 81.3228C764.643 81.2173 764.057 81.1646 763.436 81.1646C762.382 81.1646 761.567 81.4751 760.993 82.0962C760.419 82.7056 760.132 83.5845 760.132 84.7329V86.7368H764.192V89.2505H760.132V105.756H756.88Z" fill="white"/>
<path d="M766.934 96.0708C766.934 94.2075 767.298 92.5317 768.024 91.0435C768.762 89.5552 769.782 88.4067 771.083 87.5981C772.395 86.7896 773.889 86.3853 775.565 86.3853C778.155 86.3853 780.247 87.2817 781.841 89.0747C783.446 90.8677 784.249 93.2524 784.249 96.229V96.4575C784.249 98.3091 783.891 99.9731 783.176 101.45C782.473 102.915 781.46 104.057 780.135 104.877C778.823 105.698 777.311 106.108 775.6 106.108C773.022 106.108 770.93 105.211 769.325 103.418C767.731 101.625 766.934 99.2524 766.934 96.2993V96.0708ZM770.204 96.4575C770.204 98.5669 770.69 100.26 771.663 101.538C772.647 102.815 773.96 103.454 775.6 103.454C777.253 103.454 778.565 102.809 779.538 101.52C780.51 100.219 780.997 98.4028 780.997 96.0708C780.997 93.9849 780.499 92.2974 779.503 91.0083C778.518 89.7075 777.206 89.0571 775.565 89.0571C773.96 89.0571 772.665 89.6958 771.68 90.9731C770.696 92.2505 770.204 94.0786 770.204 96.4575Z" fill="white"/>
<path d="M797.52 89.6548C797.028 89.5728 796.495 89.5317 795.921 89.5317C793.788 89.5317 792.341 90.4399 791.579 92.2563V105.756H788.327V86.7368H791.491L791.544 88.9341C792.61 87.2349 794.122 86.3853 796.079 86.3853C796.712 86.3853 797.192 86.4673 797.52 86.6313V89.6548Z" fill="white"/>
<path d="M803.585 86.7368L803.673 88.8462C805.067 87.2056 806.948 86.3853 809.315 86.3853C811.975 86.3853 813.786 87.4048 814.747 89.4438C815.38 88.5298 816.2 87.7915 817.208 87.229C818.227 86.6665 819.428 86.3853 820.811 86.3853C824.983 86.3853 827.104 88.5942 827.174 93.0122V105.756H823.923V93.2056C823.923 91.8462 823.612 90.8325 822.991 90.1646C822.37 89.4849 821.327 89.145 819.862 89.145C818.655 89.145 817.653 89.5083 816.856 90.2349C816.059 90.9497 815.596 91.9165 815.467 93.1353V105.756H812.198V93.2935C812.198 90.5278 810.844 89.145 808.137 89.145C806.005 89.145 804.546 90.0532 803.76 91.8696V105.756H800.508V86.7368H803.585Z" fill="white"/>
<path d="M843.839 105.756C843.651 105.381 843.499 104.713 843.382 103.752C841.87 105.323 840.065 106.108 837.967 106.108C836.092 106.108 834.551 105.581 833.344 104.526C832.149 103.459 831.551 102.112 831.551 100.483C831.551 98.5024 832.301 96.9673 833.801 95.8774C835.313 94.7759 837.434 94.2251 840.165 94.2251H843.329V92.731C843.329 91.5942 842.989 90.6919 842.309 90.0239C841.63 89.3442 840.628 89.0044 839.303 89.0044C838.143 89.0044 837.171 89.2974 836.385 89.8833C835.6 90.4692 835.208 91.1782 835.208 92.0103H831.938C831.938 91.061 832.272 90.147 832.94 89.2681C833.62 88.3774 834.534 87.6743 835.682 87.1587C836.842 86.6431 838.114 86.3853 839.497 86.3853C841.688 86.3853 843.405 86.936 844.647 88.0376C845.889 89.1274 846.534 90.6333 846.581 92.5552V101.309C846.581 103.055 846.803 104.444 847.249 105.475V105.756H843.839ZM838.442 103.278C839.462 103.278 840.428 103.014 841.342 102.487C842.257 101.959 842.919 101.274 843.329 100.43V96.5278H840.78C836.796 96.5278 834.803 97.6938 834.803 100.026C834.803 101.045 835.143 101.842 835.823 102.417C836.503 102.991 837.376 103.278 838.442 103.278Z" fill="white"/>
<path d="M854.755 86.7368L854.86 89.1274C856.313 87.2993 858.212 86.3853 860.555 86.3853C864.575 86.3853 866.602 88.6528 866.637 93.188V105.756H863.385V93.1704C863.374 91.7993 863.057 90.7856 862.436 90.1294C861.827 89.4731 860.872 89.145 859.571 89.145C858.516 89.145 857.591 89.4263 856.794 89.9888C855.997 90.5513 855.376 91.2896 854.93 92.2036V105.756H851.678V86.7368H854.755Z" fill="white"/>
<path d="M885.658 105.756H882.406V78.7563H885.658V105.756Z" fill="white"/>
<path d="M902.621 105.756C902.434 105.381 902.281 104.713 902.164 103.752C900.652 105.323 898.848 106.108 896.75 106.108C894.875 106.108 893.334 105.581 892.127 104.526C890.932 103.459 890.334 102.112 890.334 100.483C890.334 98.5024 891.084 96.9673 892.584 95.8774C894.096 94.7759 896.217 94.2251 898.947 94.2251H902.111V92.731C902.111 91.5942 901.771 90.6919 901.092 90.0239C900.412 89.3442 899.41 89.0044 898.086 89.0044C896.926 89.0044 895.953 89.2974 895.168 89.8833C894.383 90.4692 893.99 91.1782 893.99 92.0103H890.721C890.721 91.061 891.055 90.147 891.723 89.2681C892.402 88.3774 893.316 87.6743 894.465 87.1587C895.625 86.6431 896.896 86.3853 898.279 86.3853C900.471 86.3853 902.188 86.936 903.43 88.0376C904.672 89.1274 905.316 90.6333 905.363 92.5552V101.309C905.363 103.055 905.586 104.444 906.031 105.475V105.756H902.621ZM897.225 103.278C898.244 103.278 899.211 103.014 900.125 102.487C901.039 101.959 901.701 101.274 902.111 100.43V96.5278H899.562C895.578 96.5278 893.586 97.6938 893.586 100.026C893.586 101.045 893.926 101.842 894.605 102.417C895.285 102.991 896.158 103.278 897.225 103.278Z" fill="white"/>
<path d="M24.5508 147.756V131.25H21.5449V128.737H24.5508V127.12C24.5508 124.999 25.1543 123.346 26.3613 122.163C27.5801 120.979 29.2969 120.387 31.5117 120.387C32.8242 120.387 34.4824 120.745 36.4863 121.459L35.9414 124.202C34.4766 123.616 33.082 123.323 31.7578 123.323C30.3633 123.323 29.3555 123.639 28.7344 124.272C28.125 124.893 27.8203 125.831 27.8203 127.084V128.737H31.7051V131.25H27.8203V147.756H24.5508ZM38.1035 147.756H34.834V128.737H38.1035V147.756Z" fill="white"/>
<path d="M42.6211 138.088C42.6211 135.124 43.3066 132.768 44.6777 131.022C46.0488 129.264 47.8652 128.385 50.127 128.385C52.4473 128.385 54.2578 129.206 55.5586 130.846L55.7168 128.737H58.6875V147.299C58.6875 149.76 57.9551 151.7 56.4902 153.118C55.0371 154.536 53.0801 155.245 50.6191 155.245C49.248 155.245 47.9062 154.952 46.5938 154.366C45.2812 153.78 44.2793 152.977 43.5879 151.958L45.2754 150.006C46.6699 151.729 48.375 152.59 50.3906 152.59C51.9727 152.59 53.2031 152.145 54.082 151.254C54.9727 150.364 55.418 149.11 55.418 147.493V145.858C54.1172 147.358 52.3418 148.108 50.0918 148.108C47.8652 148.108 46.0605 147.211 44.6777 145.418C43.3066 143.625 42.6211 141.182 42.6211 138.088ZM45.8906 138.458C45.8906 140.602 46.3301 142.29 47.209 143.52C48.0879 144.739 49.3184 145.348 50.9004 145.348C52.9512 145.348 54.457 144.417 55.418 142.553V133.87C54.4219 132.053 52.9277 131.145 50.9355 131.145C49.3535 131.145 48.1172 131.76 47.2266 132.991C46.3359 134.221 45.8906 136.043 45.8906 138.458Z" fill="white"/>
<path d="M75.3516 145.875C74.0859 147.364 72.2285 148.108 69.7793 148.108C67.752 148.108 66.2051 147.522 65.1387 146.35C64.084 145.167 63.5508 143.42 63.5391 141.112V128.737H66.791V141.024C66.791 143.907 67.9629 145.348 70.3066 145.348C72.791 145.348 74.4434 144.422 75.2637 142.571V128.737H78.5156V147.756H75.4219L75.3516 145.875Z" fill="white"/>
<path d="M92.666 131.655C92.1738 131.573 91.6406 131.532 91.0664 131.532C88.9336 131.532 87.4863 132.44 86.7246 134.256V147.756H83.4727V128.737H86.6367L86.6895 130.934C87.7559 129.235 89.2676 128.385 91.2246 128.385C91.8574 128.385 92.3379 128.467 92.666 128.631V131.655Z" fill="white"/>
<path d="M106.711 147.756C106.523 147.381 106.371 146.713 106.254 145.752C104.742 147.323 102.938 148.108 100.84 148.108C98.9648 148.108 97.4238 147.581 96.2168 146.526C95.0215 145.459 94.4238 144.112 94.4238 142.483C94.4238 140.502 95.1738 138.967 96.6738 137.877C98.1855 136.776 100.307 136.225 103.037 136.225H106.201V134.731C106.201 133.594 105.861 132.692 105.182 132.024C104.502 131.344 103.5 131.004 102.176 131.004C101.016 131.004 100.043 131.297 99.2578 131.883C98.4727 132.469 98.0801 133.178 98.0801 134.01H94.8105C94.8105 133.061 95.1445 132.147 95.8125 131.268C96.4922 130.377 97.4062 129.674 98.5547 129.159C99.7148 128.643 100.986 128.385 102.369 128.385C104.561 128.385 106.277 128.936 107.52 130.038C108.762 131.127 109.406 132.633 109.453 134.555V143.309C109.453 145.055 109.676 146.444 110.121 147.475V147.756H106.711ZM101.314 145.278C102.334 145.278 103.301 145.014 104.215 144.487C105.129 143.959 105.791 143.274 106.201 142.43V138.528H103.652C99.668 138.528 97.6758 139.694 97.6758 142.026C97.6758 143.045 98.0156 143.842 98.6953 144.417C99.375 144.991 100.248 145.278 101.314 145.278Z" fill="white"/>
<path d="M133.834 147.756H130.564V126.083L124.008 128.491V125.538L133.324 122.04H133.834V147.756Z" fill="white"/>
<path d="M159.41 136.84C159.41 140.649 158.76 143.479 157.459 145.331C156.158 147.182 154.125 148.108 151.359 148.108C148.629 148.108 146.607 147.206 145.295 145.401C143.982 143.584 143.303 140.877 143.256 137.28V132.938C143.256 129.176 143.906 126.381 145.207 124.553C146.508 122.725 148.547 121.811 151.324 121.811C154.078 121.811 156.105 122.696 157.406 124.465C158.707 126.223 159.375 128.942 159.41 132.622V136.84ZM156.158 132.393C156.158 129.639 155.771 127.635 154.998 126.381C154.225 125.116 153 124.483 151.324 124.483C149.66 124.483 148.447 125.11 147.686 126.364C146.924 127.618 146.531 129.545 146.508 132.147V137.35C146.508 140.116 146.906 142.161 147.703 143.485C148.512 144.797 149.73 145.454 151.359 145.454C152.965 145.454 154.154 144.833 154.928 143.59C155.713 142.348 156.123 140.391 156.158 137.719V132.393Z" fill="white"/>
<path d="M167.725 140.549C167.748 139.155 167.906 138.053 168.199 137.245C168.492 136.436 169.09 135.54 169.992 134.555L172.295 132.182C173.279 131.069 173.771 129.874 173.771 128.596C173.771 127.366 173.449 126.405 172.805 125.713C172.16 125.01 171.223 124.659 169.992 124.659C168.797 124.659 167.836 124.975 167.109 125.608C166.383 126.241 166.02 127.09 166.02 128.157H162.768C162.791 126.258 163.465 124.729 164.789 123.569C166.125 122.397 167.859 121.811 169.992 121.811C172.207 121.811 173.93 122.409 175.16 123.604C176.402 124.788 177.023 126.417 177.023 128.491C177.023 130.542 176.074 132.563 174.176 134.555L172.26 136.454C171.404 137.403 170.977 138.768 170.977 140.549H167.725ZM167.584 146.122C167.584 145.594 167.742 145.155 168.059 144.803C168.387 144.44 168.867 144.258 169.5 144.258C170.133 144.258 170.613 144.44 170.941 144.803C171.27 145.155 171.434 145.594 171.434 146.122C171.434 146.649 171.27 147.088 170.941 147.44C170.613 147.78 170.133 147.95 169.5 147.95C168.867 147.95 168.387 147.78 168.059 147.44C167.742 147.088 167.584 146.649 167.584 146.122Z" fill="white"/>
</g>
<g id="Group 225">
<g id="Group 226">
<path id="Rectangle 160 (Stroke)" fill-rule="evenodd" clip-rule="evenodd" d="M208.415 266H141V290H222.719L208.415 266ZM210.119 263H138V293H228L210.119 263Z" fill="white"/>
<path id="Rectangle 162 (Stroke)" fill-rule="evenodd" clip-rule="evenodd" d="M140 265H147V272H140V265ZM141 266V271H146V266H141Z" fill="black"/>
<path id="Rectangle 163 (Stroke)" fill-rule="evenodd" clip-rule="evenodd" d="M140 283H147V290H140V283ZM141 284V289H146V284H141Z" fill="black"/>
</g>
<g id="Group 201">
<path id="Rectangle 161 (Stroke)" fill-rule="evenodd" clip-rule="evenodd" d="M338.7 236H250V290H359.62L338.7 236ZM340.755 233H247V293H364L340.755 233Z" fill="white"/>
<path id="Line 61 (Stroke)" fill-rule="evenodd" clip-rule="evenodd" d="M326 291L308 236L310.851 235.067L328.851 290.067L326 291Z" fill="white"/>
<path id="Line 62 (Stroke)" fill-rule="evenodd" clip-rule="evenodd" d="M319 263H247V260H319V263Z" fill="white"/>
<path id="Rectangle 164 (Stroke)" fill-rule="evenodd" clip-rule="evenodd" d="M249 235H256V242H249V235ZM250 236V241H255V236H250Z" fill="white"/>
<path id="Rectangle 165 (Stroke)" fill-rule="evenodd" clip-rule="evenodd" d="M249 254H256V261H249V254ZM250 255V260H255V255H250Z" fill="white"/>
<path id="Rectangle 166 (Stroke)" fill-rule="evenodd" clip-rule="evenodd" d="M249 262H256V269H249V262ZM250 263V268H255V263H250Z" fill="white"/>
<path id="Rectangle 167 (Stroke)" fill-rule="evenodd" clip-rule="evenodd" d="M249 284H256V291H249V284ZM250 285V290H255V285H250Z" fill="white"/>
</g>
<g id="Group 204">
<path id="Rectangle 168 (Stroke)" fill-rule="evenodd" clip-rule="evenodd" d="M521.867 202H402V286H550.794L521.867 202ZM524.007 199H399V289H555L524.007 199Z" fill="white"/>
<g id="Group 203">
<path id="Rectangle 168 (Stroke)_2" fill-rule="evenodd" clip-rule="evenodd" d="M400 279H407V286H400V279ZM401 280V285H406V280H401Z" fill="white"/>
<path id="Rectangle 169 (Stroke)" fill-rule="evenodd" clip-rule="evenodd" d="M400 257H407V264H400V257ZM401 258V263H406V258H401Z" fill="white"/>
<path id="Rectangle 170 (Stroke)" fill-rule="evenodd" clip-rule="evenodd" d="M400 249H407V256H400V249ZM401 250V255H406V250H401Z" fill="white"/>
<path id="Rectangle 171 (Stroke)" fill-rule="evenodd" clip-rule="evenodd" d="M400 227H407V234H400V227ZM401 228V233H406V228H401Z" fill="white"/>
<path id="Rectangle 172 (Stroke)" fill-rule="evenodd" clip-rule="evenodd" d="M400 219H407V226H400V219ZM401 220V225H406V220H401Z" fill="white"/>
<path id="Rectangle 173 (Stroke)" fill-rule="evenodd" clip-rule="evenodd" d="M400 201H407V208H400V201ZM401 202V207H406V202H401Z" fill="white"/>
</g>
<path id="Line 64 (Stroke)" fill-rule="evenodd" clip-rule="evenodd" d="M520 289L490 199L492.846 198.051L522.846 288.051L520 289Z" fill="white"/>
<path id="Line 65 (Stroke)" fill-rule="evenodd" clip-rule="evenodd" d="M490 289L460 199L462.846 198.051L492.846 288.051L490 289Z" fill="white"/>
<path id="Line 66 (Stroke)" fill-rule="evenodd" clip-rule="evenodd" d="M471 229H399V226H471V229Z" fill="white"/>
<path id="Line 67 (Stroke)" fill-rule="evenodd" clip-rule="evenodd" d="M481 258H401V255H481V258Z" fill="white"/>
</g>
<g id="Group 205">
<path id="Rectangle 167 (Stroke)_2" fill-rule="evenodd" clip-rule="evenodd" d="M586 283H593V290H586V283ZM587 284V289H592V284H587Z" fill="white"/>
<path id="Rectangle 168 (Stroke)_3" fill-rule="evenodd" clip-rule="evenodd" d="M586 261H593V268H586V261ZM587 262V267H592V262H587Z" fill="white"/>
<path id="Rectangle 169 (Stroke)_2" fill-rule="evenodd" clip-rule="evenodd" d="M586 253H593V260H586V253ZM587 254V259H592V254H587Z" fill="white"/>
<path id="Rectangle 170 (Stroke)_2" fill-rule="evenodd" clip-rule="evenodd" d="M586 231H593V238H586V231ZM587 232V237H592V232H587Z" fill="white"/>
<path id="Rectangle 171 (Stroke)_2" fill-rule="evenodd" clip-rule="evenodd" d="M586 202H593V209H586V202ZM587 203V208H592V203H587Z" fill="white"/>
<path id="Rectangle 172 (Stroke)_2" fill-rule="evenodd" clip-rule="evenodd" d="M586 223H593V230H586V223ZM587 224V229H592V224H587Z" fill="white"/>
<path id="Rectangle 173 (Stroke)_2" fill-rule="evenodd" clip-rule="evenodd" d="M586 175H593V182H586V175ZM587 176V181H592V176H587Z" fill="white"/>
<path id="Rectangle 174 (Stroke)" fill-rule="evenodd" clip-rule="evenodd" d="M586 194H593V201H586V194ZM587 195V200H592V195H587Z" fill="white"/>
<g id="Group 202">
<path id="Rectangle 169 (Stroke)_3" fill-rule="evenodd" clip-rule="evenodd" d="M742.903 176H587V290H780.84L742.903 176ZM745.066 173H584V293H785L745.066 173Z" fill="white"/>
<path id="Line 68 (Stroke)" fill-rule="evenodd" clip-rule="evenodd" d="M744 291L708 173L710.869 172.125L746.869 290.125L744 291Z" fill="white"/>
<path id="Line 69 (Stroke)" fill-rule="evenodd" clip-rule="evenodd" d="M708 291L672 173L674.869 172.125L710.869 290.125L708 291Z" fill="white"/>
<path id="Line 70 (Stroke)" fill-rule="evenodd" clip-rule="evenodd" d="M672 291L636 173L638.869 172.125L674.869 290.125L672 291Z" fill="white"/>
<path id="Line 71 (Stroke)" fill-rule="evenodd" clip-rule="evenodd" d="M647 203H584V200H647V203Z" fill="white"/>
<path id="Line 72 (Stroke)" fill-rule="evenodd" clip-rule="evenodd" d="M656 232H584V229H656V232Z" fill="white"/>
<path id="Line 73 (Stroke)" fill-rule="evenodd" clip-rule="evenodd" d="M664 262H584V259H664V262Z" fill="white"/>
</g>
</g>
<g id="fig 1. fig 2. fig 3. fig 4.">
<path d="M148.551 352V335.494H145.545V332.98H148.551V331.363C148.551 329.242 149.154 327.59 150.361 326.406C151.58 325.223 153.297 324.631 155.512 324.631C156.824 324.631 158.482 324.988 160.486 325.703L159.941 328.445C158.477 327.859 157.082 327.566 155.758 327.566C154.363 327.566 153.355 327.883 152.734 328.516C152.125 329.137 151.82 330.074 151.82 331.328V332.98H155.705V335.494H151.82V352H148.551ZM162.104 352H158.834V332.98H162.104V352Z" fill="white"/>
<path d="M166.621 342.332C166.621 339.367 167.307 337.012 168.678 335.266C170.049 333.508 171.865 332.629 174.127 332.629C176.447 332.629 178.258 333.449 179.559 335.09L179.717 332.98H182.688V351.543C182.688 354.004 181.955 355.943 180.49 357.361C179.037 358.779 177.08 359.488 174.619 359.488C173.248 359.488 171.906 359.195 170.594 358.609C169.281 358.023 168.279 357.221 167.588 356.201L169.275 354.25C170.67 355.973 172.375 356.834 174.391 356.834C175.973 356.834 177.203 356.389 178.082 355.498C178.973 354.607 179.418 353.354 179.418 351.736V350.102C178.117 351.602 176.342 352.352 174.092 352.352C171.865 352.352 170.061 351.455 168.678 349.662C167.307 347.869 166.621 345.426 166.621 342.332ZM169.891 342.701C169.891 344.846 170.33 346.533 171.209 347.764C172.088 348.982 173.318 349.592 174.9 349.592C176.951 349.592 178.457 348.66 179.418 346.797V338.113C178.422 336.297 176.928 335.389 174.936 335.389C173.354 335.389 172.117 336.004 171.227 337.234C170.336 338.465 169.891 340.287 169.891 342.701Z" fill="white"/>
<path d="M206.893 352H203.623V330.326L197.066 332.734V329.781L206.383 326.283H206.893V352Z" fill="white"/>
<path d="M216.824 350.295C216.824 349.732 216.988 349.264 217.316 348.889C217.656 348.514 218.16 348.326 218.828 348.326C219.496 348.326 220 348.514 220.34 348.889C220.691 349.264 220.867 349.732 220.867 350.295C220.867 350.834 220.691 351.285 220.34 351.648C220 352.012 219.496 352.193 218.828 352.193C218.16 352.193 217.656 352.012 217.316 351.648C216.988 351.285 216.824 350.834 216.824 350.295Z" fill="white"/>
<path d="M271.984 352V335.494H268.979V332.98H271.984V331.363C271.984 329.242 272.588 327.59 273.795 326.406C275.014 325.223 276.73 324.631 278.945 324.631C280.258 324.631 281.916 324.988 283.92 325.703L283.375 328.445C281.91 327.859 280.516 327.566 279.191 327.566C277.797 327.566 276.789 327.883 276.168 328.516C275.559 329.137 275.254 330.074 275.254 331.328V332.98H279.139V335.494H275.254V352H271.984ZM285.537 352H282.268V332.98H285.537V352Z" fill="white"/>
<path d="M290.055 342.332C290.055 339.367 290.74 337.012 292.111 335.266C293.482 333.508 295.299 332.629 297.561 332.629C299.881 332.629 301.691 333.449 302.992 335.09L303.15 332.98H306.121V351.543C306.121 354.004 305.389 355.943 303.924 357.361C302.471 358.779 300.514 359.488 298.053 359.488C296.682 359.488 295.34 359.195 294.027 358.609C292.715 358.023 291.713 357.221 291.021 356.201L292.709 354.25C294.104 355.973 295.809 356.834 297.824 356.834C299.406 356.834 300.637 356.389 301.516 355.498C302.406 354.607 302.852 353.354 302.852 351.736V350.102C301.551 351.602 299.775 352.352 297.525 352.352C295.299 352.352 293.494 351.455 292.111 349.662C290.74 347.869 290.055 345.426 290.055 342.332ZM293.324 342.701C293.324 344.846 293.764 346.533 294.643 347.764C295.521 348.982 296.752 349.592 298.334 349.592C300.385 349.592 301.891 348.66 302.852 346.797V338.113C301.855 336.297 300.361 335.389 298.369 335.389C296.787 335.389 295.551 336.004 294.66 337.234C293.77 338.465 293.324 340.287 293.324 342.701Z" fill="white"/>
<path d="M336.408 352H319.639V349.662L328.498 339.818C329.811 338.33 330.713 337.123 331.205 336.197C331.709 335.26 331.961 334.293 331.961 333.297C331.961 331.961 331.557 330.865 330.748 330.01C329.939 329.154 328.861 328.727 327.514 328.727C325.896 328.727 324.637 329.189 323.734 330.115C322.844 331.029 322.398 332.307 322.398 333.947H319.146C319.146 331.592 319.902 329.688 321.414 328.234C322.938 326.781 324.971 326.055 327.514 326.055C329.893 326.055 331.773 326.682 333.156 327.936C334.539 329.178 335.23 330.836 335.23 332.91C335.23 335.43 333.625 338.43 330.414 341.91L323.559 349.346H336.408V352Z" fill="white"/>
<path d="M340.258 350.295C340.258 349.732 340.422 349.264 340.75 348.889C341.09 348.514 341.594 348.326 342.262 348.326C342.93 348.326 343.434 348.514 343.773 348.889C344.125 349.264 344.301 349.732 344.301 350.295C344.301 350.834 344.125 351.285 343.773 351.648C343.434 352.012 342.93 352.193 342.262 352.193C341.594 352.193 341.09 352.012 340.75 351.648C340.422 351.285 340.258 350.834 340.258 350.295Z" fill="white"/>
<path d="M440.066 352V335.494H437.061V332.98H440.066V331.363C440.066 329.242 440.67 327.59 441.877 326.406C443.096 325.223 444.812 324.631 447.027 324.631C448.34 324.631 449.998 324.988 452.002 325.703L451.457 328.445C449.992 327.859 448.598 327.566 447.273 327.566C445.879 327.566 444.871 327.883 444.25 328.516C443.641 329.137 443.336 330.074 443.336 331.328V332.98H447.221V335.494H443.336V352H440.066ZM453.619 352H450.35V332.98H453.619V352Z" fill="white"/>
<path d="M458.137 342.332C458.137 339.367 458.822 337.012 460.193 335.266C461.564 333.508 463.381 332.629 465.643 332.629C467.963 332.629 469.773 333.449 471.074 335.09L471.232 332.98H474.203V351.543C474.203 354.004 473.471 355.943 472.006 357.361C470.553 358.779 468.596 359.488 466.135 359.488C464.764 359.488 463.422 359.195 462.109 358.609C460.797 358.023 459.795 357.221 459.104 356.201L460.791 354.25C462.186 355.973 463.891 356.834 465.906 356.834C467.488 356.834 468.719 356.389 469.598 355.498C470.488 354.607 470.934 353.354 470.934 351.736V350.102C469.633 351.602 467.857 352.352 465.607 352.352C463.381 352.352 461.576 351.455 460.193 349.662C458.822 347.869 458.137 345.426 458.137 342.332ZM461.406 342.701C461.406 344.846 461.846 346.533 462.725 347.764C463.604 348.982 464.834 349.592 466.416 349.592C468.467 349.592 469.973 348.66 470.934 346.797V338.113C469.938 336.297 468.443 335.389 466.451 335.389C464.869 335.389 463.633 336.004 462.742 337.234C461.852 338.465 461.406 340.287 461.406 342.701Z" fill="white"/>
<path d="M492.449 337.621H494.893C496.428 337.598 497.635 337.193 498.514 336.408C499.393 335.623 499.832 334.562 499.832 333.227C499.832 330.227 498.338 328.727 495.35 328.727C493.943 328.727 492.818 329.131 491.975 329.939C491.143 330.736 490.727 331.797 490.727 333.121H487.475C487.475 331.094 488.213 329.412 489.689 328.076C491.178 326.729 493.064 326.055 495.35 326.055C497.764 326.055 499.656 326.693 501.027 327.971C502.398 329.248 503.084 331.023 503.084 333.297C503.084 334.41 502.721 335.488 501.994 336.531C501.279 337.574 500.301 338.354 499.059 338.869C500.465 339.314 501.549 340.053 502.311 341.084C503.084 342.115 503.471 343.375 503.471 344.863C503.471 347.16 502.721 348.982 501.221 350.33C499.721 351.678 497.77 352.352 495.367 352.352C492.965 352.352 491.008 351.701 489.496 350.4C487.996 349.1 487.246 347.383 487.246 345.25H490.516C490.516 346.598 490.955 347.676 491.834 348.484C492.713 349.293 493.891 349.697 495.367 349.697C496.938 349.697 498.139 349.287 498.971 348.467C499.803 347.646 500.219 346.469 500.219 344.934C500.219 343.445 499.762 342.303 498.848 341.506C497.934 340.709 496.615 340.299 494.893 340.275H492.449V337.621Z" fill="white"/>
<path d="M508.34 350.295C508.34 349.732 508.504 349.264 508.832 348.889C509.172 348.514 509.676 348.326 510.344 348.326C511.012 348.326 511.516 348.514 511.855 348.889C512.207 349.264 512.383 349.732 512.383 350.295C512.383 350.834 512.207 351.285 511.855 351.648C511.516 352.012 511.012 352.193 510.344 352.193C509.676 352.193 509.172 352.012 508.832 351.648C508.504 351.285 508.34 350.834 508.34 350.295Z" fill="white"/>
<path d="M661.727 352V335.494H658.721V332.98H661.727V331.363C661.727 329.242 662.33 327.59 663.537 326.406C664.756 325.223 666.473 324.631 668.688 324.631C670 324.631 671.658 324.988 673.662 325.703L673.117 328.445C671.652 327.859 670.258 327.566 668.934 327.566C667.539 327.566 666.531 327.883 665.91 328.516C665.301 329.137 664.996 330.074 664.996 331.328V332.98H668.881V335.494H664.996V352H661.727ZM675.279 352H672.01V332.98H675.279V352Z" fill="white"/>
<path d="M679.797 342.332C679.797 339.367 680.482 337.012 681.854 335.266C683.225 333.508 685.041 332.629 687.303 332.629C689.623 332.629 691.434 333.449 692.734 335.09L692.893 332.98H695.863V351.543C695.863 354.004 695.131 355.943 693.666 357.361C692.213 358.779 690.256 359.488 687.795 359.488C686.424 359.488 685.082 359.195 683.77 358.609C682.457 358.023 681.455 357.221 680.764 356.201L682.451 354.25C683.846 355.973 685.551 356.834 687.566 356.834C689.148 356.834 690.379 356.389 691.258 355.498C692.148 354.607 692.594 353.354 692.594 351.736V350.102C691.293 351.602 689.518 352.352 687.268 352.352C685.041 352.352 683.236 351.455 681.854 349.662C680.482 347.869 679.797 345.426 679.797 342.332ZM683.066 342.701C683.066 344.846 683.506 346.533 684.385 347.764C685.264 348.982 686.494 349.592 688.076 349.592C690.127 349.592 691.633 348.66 692.594 346.797V338.113C691.598 336.297 690.104 335.389 688.111 335.389C686.529 335.389 685.293 336.004 684.402 337.234C683.512 338.465 683.066 340.287 683.066 342.701Z" fill="white"/>
<path d="M723.109 343.404H726.66V346.059H723.109V352H719.84V346.059H708.186V344.143L719.646 326.406H723.109V343.404ZM711.877 343.404H719.84V330.854L719.453 331.557L711.877 343.404Z" fill="white"/>
<path d="M730 350.295C730 349.732 730.164 349.264 730.492 348.889C730.832 348.514 731.336 348.326 732.004 348.326C732.672 348.326 733.176 348.514 733.516 348.889C733.867 349.264 734.043 349.732 734.043 350.295C734.043 350.834 733.867 351.285 733.516 351.648C733.176 352.012 732.672 352.193 732.004 352.193C731.336 352.193 730.832 352.012 730.492 351.648C730.164 351.285 730 350.834 730 350.295Z" fill="white"/>
</g>
</g>
</g>
<g id="claves">
<path id="Rectangle 4" d="M39 443H255.745L289 483L255.745 523H39V443Z" fill="#CD08D1" fill-opacity="0.1"/>
<path id="Rectangle 4 (Stroke)" fill-rule="evenodd" clip-rule="evenodd" d="M254.338 446H42V520H254.338L285.099 483L254.338 446ZM255.745 443H39V523H255.745L289 483L255.745 443Z" fill="#CD08D1"/>
<path id="Rectangle 5" d="M43 553H259.745L293 593L259.745 633H43V553Z" fill="#CD08D1" fill-opacity="0.1"/>
<path id="Rectangle 5 (Stroke)" fill-rule="evenodd" clip-rule="evenodd" d="M258.338 556H46V630H258.338L289.099 593L258.338 556ZM259.745 553H43V633H259.745L293 593L259.745 553Z" fill="#CD08D1"/>
<path id="Rectangle 6" d="M379 440H595.745L629 480L595.745 520H379V440Z" fill="#CD08D1" fill-opacity="0.1"/>
<path id="Rectangle 6 (Stroke)" fill-rule="evenodd" clip-rule="evenodd" d="M594.338 443H382V517H594.338L625.099 480L594.338 443ZM595.745 440H379V520H595.745L629 480L595.745 440Z" fill="#CD08D1"/>
<path id="Rectangle 7" d="M382 550H598.745L632 590L598.745 630H382V550Z" fill="#CD08D1" fill-opacity="0.1"/>
<path id="Rectangle 7 (Stroke)" fill-rule="evenodd" clip-rule="evenodd" d="M597.338 553H385V627H597.338L628.099 590L597.338 553ZM598.745 550H382V630H598.745L632 590L598.745 550Z" fill="#CD08D1"/>
<path id="Rectangle 8" d="M725 499H941.745L975 539L941.745 579H725V499Z" fill="#CD08D1" fill-opacity="0.1"/>
<path id="Rectangle 8 (Stroke)" fill-rule="evenodd" clip-rule="evenodd" d="M940.338 502H728V576H940.338L971.099 539L940.338 502ZM941.745 499H725V579H941.745L975 539L941.745 499Z" fill="#CD08D1"/>
<path id="Ellipse 1" d="M80 483C80 505.091 62.0914 523 40 523C17.9086 523 0 505.091 0 483C0 460.909 17.9086 443 40 443C62.0914 443 80 460.909 80 483Z" fill="#CD08D1"/>
<path id="Ellipse 2" d="M84 593C84 615.091 66.0914 633 44 633C21.9086 633 4 615.091 4 593C4 570.909 21.9086 553 44 553C66.0914 553 84 570.909 84 593Z" fill="#CD08D1"/>
<path id="Ellipse 3" d="M420 480C420 502.091 402.091 520 380 520C357.909 520 340 502.091 340 480C340 457.909 357.909 440 380 440C402.091 440 420 457.909 420 480Z" fill="#CD08D1"/>
<path id="Ellipse 4" d="M423 590C423 612.091 405.091 630 383 630C360.909 630 343 612.091 343 590C343 567.909 360.909 550 383 550C405.091 550 423 567.909 423 590Z" fill="#CD08D1"/>
<path id="Ellipse 5" d="M766 539C766 561.091 748.091 579 726 579C703.909 579 686 561.091 686 539C686 516.909 703.909 499 726 499C748.091 499 766 516.909 766 539Z" fill="#CD08D1"/>
<path id="A" d="M48.0938 493.406H30.4688L26.7812 504H18.5625L35.75 458.5H42.8438L60.0625 504H51.8125L48.0938 493.406ZM32.6875 487.031H45.875L39.2812 468.156L32.6875 487.031Z" fill="white"/>
<path id="B" d="M27.625 609V563.5H43.2188C48.3646 563.5 52.2812 564.531 54.9688 566.594C57.6562 568.656 59 571.729 59 575.812C59 577.896 58.4375 579.771 57.3125 581.438C56.1875 583.104 54.5417 584.396 52.375 585.312C54.8333 585.979 56.7292 587.24 58.0625 589.094C59.4167 590.927 60.0938 593.135 60.0938 595.719C60.0938 599.99 58.7188 603.271 55.9688 605.562C53.2396 607.854 49.3229 609 44.2188 609H27.625ZM35.5312 588.469V602.688H44.3125C46.7917 602.688 48.7292 602.073 50.125 600.844C51.5208 599.615 52.2188 597.906 52.2188 595.719C52.2188 590.99 49.8021 588.573 44.9688 588.469H35.5312ZM35.5312 582.656H43.2812C45.7396 582.656 47.6562 582.104 49.0312 581C50.4271 579.875 51.125 578.292 51.125 576.25C51.125 574 50.4792 572.375 49.1875 571.375C47.9167 570.375 45.9271 569.875 43.2188 569.875H35.5312V582.656Z" fill="white"/>
<path id="C" d="M397.344 487.188C396.885 492.042 395.094 495.833 391.969 498.562C388.844 501.271 384.688 502.625 379.5 502.625C375.875 502.625 372.677 501.771 369.906 500.062C367.156 498.333 365.031 495.885 363.531 492.719C362.031 489.552 361.25 485.875 361.188 481.688V477.438C361.188 473.146 361.948 469.365 363.469 466.094C364.99 462.823 367.167 460.302 370 458.531C372.854 456.76 376.146 455.875 379.875 455.875C384.896 455.875 388.938 457.24 392 459.969C395.062 462.698 396.844 466.552 397.344 471.531H389.469C389.094 468.26 388.135 465.906 386.594 464.469C385.073 463.01 382.833 462.281 379.875 462.281C376.438 462.281 373.792 463.542 371.938 466.062C370.104 468.562 369.167 472.24 369.125 477.094V481.125C369.125 486.042 370 489.792 371.75 492.375C373.521 494.958 376.104 496.25 379.5 496.25C382.604 496.25 384.938 495.552 386.5 494.156C388.062 492.76 389.052 490.438 389.469 487.188H397.344Z" fill="white"/>
<path id="D" d="M365.625 612V566.5H379.062C383.083 566.5 386.646 567.396 389.75 569.188C392.875 570.979 395.292 573.521 397 576.812C398.708 580.104 399.562 583.875 399.562 588.125V590.406C399.562 594.719 398.698 598.51 396.969 601.781C395.26 605.052 392.812 607.573 389.625 609.344C386.458 611.115 382.823 612 378.719 612H365.625ZM373.531 572.875V605.688H378.688C382.833 605.688 386.01 604.396 388.219 601.812C390.448 599.208 391.583 595.479 391.625 590.625V588.094C391.625 583.156 390.552 579.385 388.406 576.781C386.26 574.177 383.146 572.875 379.062 572.875H373.531Z" fill="white"/>
<path id="E" d="M735.219 540.688H716.531V554.688H738.375V561H708.625V515.5H738.156V521.875H716.531V534.438H735.219V540.688Z" fill="white"/>
<g id="66 60 56 72 64">
<path d="M132.37 466.12V469.34H131.673C128.72 469.395 126.368 470.27 124.618 471.965C122.868 473.66 121.856 476.046 121.583 479.122C123.155 477.317 125.302 476.415 128.022 476.415C130.62 476.415 132.691 477.331 134.236 479.163C135.795 480.995 136.574 483.36 136.574 486.259C136.574 489.335 135.733 491.796 134.052 493.642C132.384 495.487 130.142 496.41 127.325 496.41C124.468 496.41 122.15 495.316 120.373 493.129C118.596 490.928 117.707 488.098 117.707 484.639V483.183C117.707 477.687 118.876 473.489 121.214 470.591C123.565 467.679 127.059 466.188 131.693 466.12H132.37ZM127.387 479.573C126.088 479.573 124.892 479.963 123.798 480.742C122.704 481.521 121.945 482.499 121.521 483.675V485.069C121.521 487.53 122.075 489.513 123.183 491.017C124.29 492.521 125.671 493.272 127.325 493.272C129.034 493.272 130.374 492.644 131.345 491.386C132.329 490.128 132.821 488.48 132.821 486.443C132.821 484.393 132.322 482.738 131.324 481.48C130.34 480.209 129.027 479.573 127.387 479.573Z" fill="#CD08D1"/>
<path d="M155.954 466.12V469.34H155.257C152.304 469.395 149.952 470.27 148.202 471.965C146.452 473.66 145.44 476.046 145.167 479.122C146.739 477.317 148.886 476.415 151.606 476.415C154.204 476.415 156.275 477.331 157.82 479.163C159.379 480.995 160.158 483.36 160.158 486.259C160.158 489.335 159.317 491.796 157.636 493.642C155.968 495.487 153.726 496.41 150.909 496.41C148.052 496.41 145.734 495.316 143.957 493.129C142.18 490.928 141.291 488.098 141.291 484.639V483.183C141.291 477.687 142.46 473.489 144.798 470.591C147.149 467.679 150.643 466.188 155.277 466.12H155.954ZM150.971 479.573C149.672 479.573 148.476 479.963 147.382 480.742C146.288 481.521 145.529 482.499 145.105 483.675V485.069C145.105 487.53 145.659 489.513 146.767 491.017C147.874 492.521 149.255 493.272 150.909 493.272C152.618 493.272 153.958 492.644 154.929 491.386C155.913 490.128 156.405 488.48 156.405 486.443C156.405 484.393 155.906 482.738 154.908 481.48C153.924 480.209 152.611 479.573 150.971 479.573Z" fill="#CD08D1"/>
<path d="M471.241 466.12V469.34H470.544C467.591 469.395 465.239 470.27 463.489 471.965C461.739 473.66 460.728 476.046 460.454 479.122C462.026 477.317 464.173 476.415 466.894 476.415C469.491 476.415 471.562 477.331 473.107 479.163C474.666 480.995 475.445 483.36 475.445 486.259C475.445 489.335 474.604 491.796 472.923 493.642C471.255 495.487 469.013 496.41 466.196 496.41C463.339 496.41 461.021 495.316 459.244 493.129C457.467 490.928 456.578 488.098 456.578 484.639V483.183C456.578 477.687 457.747 473.489 460.085 470.591C462.437 467.679 465.93 466.188 470.564 466.12H471.241ZM466.258 479.573C464.959 479.573 463.763 479.963 462.669 480.742C461.575 481.521 460.816 482.499 460.393 483.675V485.069C460.393 487.53 460.946 489.513 462.054 491.017C463.161 492.521 464.542 493.272 466.196 493.272C467.905 493.272 469.245 492.644 470.216 491.386C471.2 490.128 471.692 488.48 471.692 486.443C471.692 484.393 471.193 482.738 470.195 481.48C469.211 480.209 467.898 479.573 466.258 479.573Z" fill="#CD08D1"/>
<path d="M498.66 483.265C498.66 487.708 497.901 491.01 496.384 493.17C494.866 495.33 492.494 496.41 489.268 496.41C486.082 496.41 483.724 495.357 482.192 493.252C480.661 491.133 479.868 487.975 479.813 483.777V478.712C479.813 474.323 480.572 471.062 482.09 468.93C483.607 466.797 485.986 465.73 489.227 465.73C492.439 465.73 494.805 466.763 496.322 468.827C497.84 470.878 498.619 474.05 498.66 478.343V483.265ZM494.866 478.076C494.866 474.863 494.415 472.525 493.513 471.062C492.61 469.586 491.182 468.848 489.227 468.848C487.285 468.848 485.87 469.579 484.981 471.042C484.093 472.505 483.635 474.754 483.607 477.789V483.859C483.607 487.086 484.072 489.472 485.002 491.017C485.945 492.548 487.367 493.313 489.268 493.313C491.141 493.313 492.528 492.589 493.431 491.14C494.347 489.69 494.825 487.407 494.866 484.29V478.076Z" fill="#CD08D1"/>
<path d="M817.229 537.029L818.746 522.141H834.045V525.647H821.966L821.063 533.789C822.526 532.928 824.188 532.497 826.047 532.497C828.768 532.497 830.928 533.399 832.527 535.204C834.127 536.995 834.927 539.422 834.927 542.484C834.927 545.561 834.093 547.987 832.425 549.765C830.771 551.528 828.453 552.41 825.473 552.41C822.834 552.41 820.681 551.679 819.013 550.216C817.345 548.753 816.395 546.729 816.162 544.146H819.751C819.983 545.854 820.592 547.146 821.576 548.021C822.561 548.883 823.859 549.313 825.473 549.313C827.236 549.313 828.617 548.712 829.615 547.509C830.627 546.306 831.133 544.645 831.133 542.525C831.133 540.529 830.586 538.93 829.492 537.727C828.412 536.51 826.97 535.901 825.165 535.901C823.511 535.901 822.212 536.264 821.269 536.988L820.264 537.809L817.229 537.029Z" fill="#CD08D1"/>
<path d="M853.958 522.12V525.34H853.261C850.308 525.395 847.956 526.27 846.206 527.965C844.456 529.66 843.444 532.046 843.171 535.122C844.743 533.317 846.89 532.415 849.61 532.415C852.208 532.415 854.279 533.331 855.824 535.163C857.383 536.995 858.162 539.36 858.162 542.259C858.162 545.335 857.321 547.796 855.64 549.642C853.972 551.487 851.729 552.41 848.913 552.41C846.056 552.41 843.738 551.316 841.961 549.129C840.184 546.928 839.295 544.098 839.295 540.639V539.183C839.295 533.687 840.464 529.489 842.802 526.591C845.153 523.679 848.646 522.188 853.281 522.12H853.958ZM848.975 535.573C847.676 535.573 846.479 535.963 845.386 536.742C844.292 537.521 843.533 538.499 843.109 539.675V541.069C843.109 543.53 843.663 545.513 844.771 547.017C845.878 548.521 847.259 549.272 848.913 549.272C850.622 549.272 851.962 548.644 852.933 547.386C853.917 546.128 854.409 544.48 854.409 542.443C854.409 540.393 853.91 538.738 852.912 537.48C851.928 536.209 850.615 535.573 848.975 535.573Z" fill="#CD08D1"/>
<path d="M136.759 580.273L124.393 608H120.414L132.739 581.258H116.579V578.141H136.759V580.273Z" fill="#CD08D1"/>
<path d="M160.63 608H141.065V605.272L151.401 593.788C152.933 592.052 153.985 590.644 154.56 589.563C155.147 588.47 155.441 587.342 155.441 586.18C155.441 584.621 154.97 583.343 154.026 582.345C153.083 581.347 151.825 580.848 150.253 580.848C148.366 580.848 146.896 581.388 145.844 582.468C144.805 583.534 144.285 585.024 144.285 586.938H140.491C140.491 584.19 141.373 581.969 143.137 580.273C144.914 578.578 147.286 577.73 150.253 577.73C153.028 577.73 155.223 578.462 156.836 579.925C158.449 581.374 159.256 583.309 159.256 585.729C159.256 588.668 157.383 592.168 153.637 596.229L145.639 604.903H160.63V608Z" fill="#CD08D1"/>
<path d="M481.659 578.12V581.34H480.962C478.009 581.395 475.657 582.27 473.907 583.965C472.157 585.66 471.146 588.046 470.872 591.122C472.444 589.317 474.591 588.415 477.312 588.415C479.909 588.415 481.98 589.331 483.525 591.163C485.084 592.995 485.863 595.36 485.863 598.259C485.863 601.335 485.022 603.796 483.341 605.642C481.673 607.487 479.431 608.41 476.614 608.41C473.757 608.41 471.439 607.316 469.662 605.129C467.885 602.928 466.996 600.098 466.996 596.639V595.183C466.996 589.687 468.165 585.489 470.503 582.591C472.854 579.679 476.348 578.188 480.982 578.12H481.659ZM476.676 591.573C475.377 591.573 474.181 591.963 473.087 592.742C471.993 593.521 471.234 594.499 470.811 595.675V597.069C470.811 599.53 471.364 601.513 472.472 603.017C473.579 604.521 474.96 605.272 476.614 605.272C478.323 605.272 479.663 604.644 480.634 603.386C481.618 602.128 482.11 600.48 482.11 598.443C482.11 596.393 481.611 594.738 480.613 593.48C479.629 592.209 478.316 591.573 476.676 591.573Z" fill="#CD08D1"/>
<path d="M506.371 597.972H510.514V601.068H506.371V608H502.557V601.068H488.96V598.833L502.331 578.141H506.371V597.972ZM493.267 597.972H502.557V583.329L502.105 584.149L493.267 597.972Z" fill="#CD08D1"/>
</g>
<g id="flecha">
<path id="Rectangle 2" d="M392.2 549.008L407.482 557.133L365.5 636.089L350.219 627.963L392.2 549.008Z" fill="#1043F5"/>
<path id="Rectangle 1_2" d="M334 561.904L424 512V569.692L379 552.096L334 561.904Z" fill="#1043F5"/>
<path id="Rectangle 3" d="M338.039 631.21L353.666 604.143L370.936 603.565L355.309 630.632L338.039 631.21Z" fill="#1043F5"/>
<path id="Rectangle 4_2" d="M364.089 645.845L379.717 618.778L370.926 603.154L355.299 630.221L364.089 645.845Z" fill="#1043F5"/>
</g>
</g>
</g>
</svg>
