<svg viewBox="0 0 873 417" fill="none" xmlns="http://www.w3.org/2000/svg">
<g id="0123201">
<g id="Group 8">
<g id="Group 4">
<path id="Rectangle 16 (Stroke)" fill-rule="evenodd" clip-rule="evenodd" d="M106 40H42V104H106V40ZM39 37V107H109V37H39Z" fill="white"/>
<path id="Line 1 (Stroke)" fill-rule="evenodd" clip-rule="evenodd" d="M74 0V139.058H71V0H74Z" fill="white"/>
<path id="Line 2 (Stroke)" fill-rule="evenodd" clip-rule="evenodd" d="M147.031 72H1V69H147.031V72Z" fill="white"/>
</g>
<g id="Group 6">
<path id="Ellipse 6" d="M44 71C44 73.2091 42.2091 75 40 75C37.7909 75 36 73.2091 36 71C36 68.7909 37.7909 67 40 67C42.2091 67 44 68.7909 44 71Z" fill="#2CF30B"/>
<path id="Ellipse 7" d="M76 71C76 73.2091 74.2091 75 72 75C69.7909 75 68 73.2091 68 71C68 68.7909 69.7909 67 72 67C74.2091 67 76 68.7909 76 71Z" fill="#2CF30B"/>
<path id="Ellipse 8" d="M111 71C111 73.2091 109.209 75 107 75C104.791 75 103 73.2091 103 71C103 68.7909 104.791 67 107 67C109.209 67 111 68.7909 111 71Z" fill="#2CF30B"/>
<path id="Ellipse 9" d="M76 39C76 41.2091 74.2091 43 72 43C69.7909 43 68 41.2091 68 39C68 36.7909 69.7909 35 72 35C74.2091 35 76 36.7909 76 39Z" fill="#2CF30B"/>
<path id="Ellipse 10" d="M76 107C76 109.209 74.2091 111 72 111C69.7909 111 68 109.209 68 107C68 104.791 69.7909 103 72 103C74.2091 103 76 104.791 76 107Z" fill="#2CF30B"/>
</g>
<g id="F_1 \;\Rightarrow 5">
<g id="Group">
<g id="Group_2">
<g id="Group_3">
<path id="Vector" d="M166.819 89.7229C166.273 89.7229 166 89.5623 166 89.241C166 89.1767 166.048 88.9518 166.145 88.5663C166.273 88.0522 166.402 87.7631 166.53 87.6988C166.659 87.6345 167.028 87.5863 167.639 87.5542C168.506 87.5542 169.47 87.506 170.53 87.4096C170.98 87.3133 171.285 87.1205 171.446 86.8313C171.51 86.6707 172.651 82.1566 174.867 73.2892C177.084 64.4217 178.209 59.9237 178.241 59.7952C178.241 59.5703 178.177 59.4578 178.048 59.4578C177.791 59.3615 176.94 59.2811 175.494 59.2169H174C173.807 59.0241 173.711 58.8956 173.711 58.8313C173.711 58.7671 173.743 58.494 173.807 58.0121C173.936 57.4659 174.096 57.1285 174.289 57H200.265C200.49 57.1285 200.602 57.3052 200.602 57.5301C200.602 57.6908 200.394 59.49 199.976 62.9277C199.558 66.3655 199.333 68.1325 199.301 68.2289C199.237 68.4538 198.916 68.5663 198.337 68.5663H197.759C197.534 68.4056 197.422 68.1968 197.422 67.9398C197.422 67.9076 197.47 67.5221 197.566 66.7831C197.663 66.0442 197.711 65.1928 197.711 64.2289C197.711 63.2651 197.598 62.4779 197.373 61.8675C197.149 61.257 196.843 60.759 196.458 60.3735C196.072 59.988 195.478 59.7309 194.675 59.6024C193.871 59.4739 193.052 59.3615 192.217 59.2651C191.382 59.1687 190.225 59.1526 188.747 59.2169H187.639C185.004 59.249 183.606 59.2972 183.446 59.3615C183.285 59.4257 183.173 59.5542 183.108 59.747C183.076 59.7791 182.53 61.8835 181.47 66.0602L179.928 72.2771H182.578C182.675 72.2771 183.044 72.2771 183.687 72.2771C184.329 72.2771 184.779 72.261 185.036 72.2289C185.293 72.1968 185.647 72.1486 186.096 72.0843C186.546 72.0201 186.932 71.9076 187.253 71.747C187.574 71.5863 187.847 71.3936 188.072 71.1687C188.49 70.7831 188.843 70.253 189.133 69.5783C189.422 68.9036 189.631 68.2932 189.759 67.747C189.888 67.2008 189.968 66.9117 190 66.8795C190.096 66.7189 190.402 66.6386 190.916 66.6386H191.494C191.719 66.7992 191.831 66.9598 191.831 67.1205C191.831 67.2169 191.333 69.3213 190.337 73.4337C189.341 77.5462 188.795 79.6667 188.699 79.7952C188.635 80.0201 188.313 80.1325 187.735 80.1325H187.157C186.932 79.9398 186.819 79.747 186.819 79.5542C186.819 79.4578 186.9 79.1044 187.06 78.494C187.221 77.8835 187.301 77.241 187.301 76.5663C187.301 75.6345 186.98 75.0562 186.337 74.8313C185.695 74.6064 184.265 74.494 182.048 74.494H179.398L177.855 80.6145C176.827 84.5984 176.313 86.6868 176.313 86.8795C176.313 87.3293 177.743 87.5542 180.602 87.5542H181.807C182 87.747 182.096 87.8594 182.096 87.8916C182.096 87.9237 182.064 88.245 182 88.8554C181.871 89.2731 181.711 89.5783 181.518 89.7711H180.699C179.382 89.7068 176.956 89.6747 173.422 89.6747C171.333 89.6747 169.743 89.6747 168.651 89.6747C167.558 89.6747 166.948 89.6908 166.819 89.7229Z" fill="white"/>
</g>
<g id="Group_4">
<path id="Vector_2" d="M202.751 77.3062L202.308 77.4766C201.99 77.5902 201.536 77.7037 200.946 77.8173C200.355 77.9309 199.696 78.0104 198.969 78.0558H198.322V76.4885H198.969C200.037 76.4431 201.025 76.2727 201.934 75.9774C202.842 75.6821 203.478 75.4095 203.842 75.1597C204.205 74.9098 204.523 74.6599 204.796 74.4101C204.841 74.3419 204.977 74.3079 205.205 74.3079C205.409 74.3079 205.602 74.376 205.784 74.5123V84.6999L205.818 94.9216C205.977 95.0806 206.113 95.1828 206.227 95.2282C206.34 95.2737 206.613 95.3191 207.044 95.3645C207.476 95.41 208.18 95.4327 209.157 95.4327H210.043V97H209.668C209.191 96.9319 207.385 96.8978 204.251 96.8978C201.161 96.8978 199.378 96.9319 198.901 97H198.492V95.4327H199.378C199.878 95.4327 200.31 95.4327 200.673 95.4327C201.036 95.4327 201.32 95.4213 201.525 95.3986C201.729 95.3759 201.911 95.3418 202.07 95.2964C202.229 95.251 202.32 95.2282 202.343 95.2282C202.365 95.2282 202.433 95.1715 202.547 95.0579C202.661 94.9443 202.729 94.8989 202.751 94.9216V77.3062Z" fill="white"/>
</g>
</g>
<g id="Group_5">
<path id="Vector_3" d="M269.667 65C269.667 64.6466 269.924 64.4699 270.439 64.4699C270.599 64.4699 270.728 64.4699 270.824 64.4699C270.92 64.4699 271.001 64.4699 271.065 64.4699C271.129 64.4699 271.194 64.486 271.258 64.5181C271.322 64.5502 271.354 64.5663 271.354 64.5663C271.354 64.5663 271.386 64.6145 271.451 64.7109C271.515 64.8072 271.547 64.8554 271.547 64.8554C271.547 64.8554 271.595 64.9358 271.692 65.0964C272.88 67.4739 274.455 69.5783 276.414 71.4096C278.374 73.241 280.157 74.5422 281.764 75.3133C283.37 76.0843 284.912 76.6787 286.39 77.0964C286.937 77.257 287.21 77.4659 287.21 77.7229C287.21 77.9799 287.065 78.1566 286.776 78.253C286.487 78.3494 285.892 78.5261 284.993 78.7831C284.093 79.0402 283.161 79.4257 282.198 79.9398C277.571 82.1888 274.069 85.6586 271.692 90.3494C271.563 90.6386 271.451 90.7992 271.354 90.8313C271.258 90.8635 271.017 90.8956 270.631 90.9277C269.989 90.9277 269.667 90.8153 269.667 90.5904C269.667 90.4619 269.748 90.1888 269.908 89.7711C271.033 87.5542 272.414 85.5783 274.053 83.8434L274.535 83.3615H245.089C244.639 83.1366 244.414 82.8153 244.414 82.3976C244.414 81.9157 244.671 81.5944 245.186 81.4337H276.655L277.137 81.0482C278.39 80.0843 280.27 78.9759 282.776 77.7229C282.744 77.6908 282.455 77.5462 281.908 77.2892C281.362 77.0321 280.639 76.6466 279.74 76.1325C278.84 75.6185 277.973 75.0402 277.137 74.3976L276.655 74.0121H245.186C244.671 73.8514 244.414 73.5301 244.414 73.0482C244.414 72.6305 244.639 72.3092 245.089 72.0843H274.535L274.053 71.6024C272.993 70.4779 271.997 69.1767 271.065 67.6988C270.133 66.2209 269.667 65.3213 269.667 65Z" fill="white"/>
</g>
<g id="Group_6">
<path id="Vector_4" d="M325.494 82.5301C325.494 83.3012 325.237 83.9438 324.723 84.4578C324.209 84.9719 323.582 85.2289 322.843 85.2289H322.506C323.984 87.7671 325.944 89.0361 328.386 89.0361C330.635 89.0361 332.273 88.0723 333.301 86.1446C333.912 85.0843 334.217 83.0281 334.217 79.9759C334.217 76.6667 333.783 74.4337 332.916 73.2771C332.08 72.2169 331.149 71.6868 330.12 71.6868H329.831C327.325 71.6868 325.43 72.7791 324.145 74.9639C324.016 75.1888 323.904 75.3173 323.807 75.3494C323.711 75.3815 323.47 75.4137 323.084 75.4458C322.538 75.4458 322.233 75.3494 322.169 75.1566C322.104 75.0281 322.072 72.2169 322.072 66.7229V60.506C322.072 58.8996 322.153 58.0964 322.313 58.0964C322.378 58.0321 322.442 58 322.506 58C322.538 58 322.876 58.1285 323.518 58.3855C324.161 58.6426 325.044 58.8996 326.169 59.1566C327.293 59.4137 328.498 59.5422 329.783 59.5422C332.064 59.5422 334.249 59.0924 336.337 58.1928C336.594 58.0643 336.803 58 336.964 58C337.221 58 337.349 58.2892 337.349 58.8675V59.494C334.715 62.6104 331.422 64.1687 327.47 64.1687C326.474 64.1687 325.574 64.0723 324.771 63.8795L324.289 63.7831V72.0723C324.9 71.6225 325.382 71.2691 325.735 71.0121C326.088 70.755 326.667 70.498 327.47 70.241C328.273 69.9839 329.092 69.8554 329.928 69.8554C332.53 69.8554 334.731 70.8996 336.53 72.988C338.329 75.0763 339.229 77.5502 339.229 80.4096C339.229 83.3655 338.201 85.8876 336.145 87.9759C334.088 90.0643 331.582 91.1245 328.627 91.1566C326.024 91.1566 323.936 90.2892 322.361 88.5542C320.787 86.8193 320 84.8594 320 82.6747C320 81.9036 320.177 81.2932 320.53 80.8434C320.884 80.3936 321.253 80.1044 321.639 79.9759C322.024 79.8474 322.394 79.7831 322.747 79.7831C323.55 79.7831 324.209 80.0562 324.723 80.6024C325.237 81.1486 325.494 81.7912 325.494 82.5301Z" fill="white"/>
</g>
</g>
</g>
<g id="Group 5">
<path id="Rectangle 17 (Stroke)" fill-rule="evenodd" clip-rule="evenodd" d="M116 190H22V284H116V190ZM19 187V287H119V187H19Z" fill="white"/>
<path id="Line 3 (Stroke)" fill-rule="evenodd" clip-rule="evenodd" d="M55 160L55 304.003H52L52 160H55Z" fill="white"/>
<path id="Line 4 (Stroke)" fill-rule="evenodd" clip-rule="evenodd" d="M89 160L89 304.003H86L86 160H89Z" fill="white"/>
<path id="Line 5 (Stroke)" fill-rule="evenodd" clip-rule="evenodd" d="M144.003 222H0L0 219H144.003V222Z" fill="white"/>
<path id="Line 6 (Stroke)" fill-rule="evenodd" clip-rule="evenodd" d="M144.003 257H0L0 254H144.003V257Z" fill="white"/>
</g>
<g id="Group 7">
<path id="Ellipse 11" d="M24 256C24 258.209 22.2091 260 20 260C17.7909 260 16 258.209 16 256C16 253.791 17.7909 252 20 252C22.2091 252 24 253.791 24 256Z" fill="#1043F5"/>
<path id="Ellipse 12" d="M58 256C58 258.209 56.2091 260 54 260C51.7909 260 50 258.209 50 256C50 253.791 51.7909 252 54 252C56.2091 252 58 253.791 58 256Z" fill="#1043F5"/>
<path id="Ellipse 13" d="M91 256C91 258.209 89.2091 260 87 260C84.7909 260 83 258.209 83 256C83 253.791 84.7909 252 87 252C89.2091 252 91 253.791 91 256Z" fill="#1043F5"/>
<path id="Ellipse 14" d="M122 256C122 258.209 120.209 260 118 260C115.791 260 114 258.209 114 256C114 253.791 115.791 252 118 252C120.209 252 122 253.791 122 256Z" fill="#1043F5"/>
<path id="Ellipse 15" d="M91 285C91 287.209 89.2091 289 87 289C84.7909 289 83 287.209 83 285C83 282.791 84.7909 281 87 281C89.2091 281 91 282.791 91 285Z" fill="#1043F5"/>
<path id="Ellipse 16" d="M58 286C58 288.209 56.2091 290 54 290C51.7909 290 50 288.209 50 286C50 283.791 51.7909 282 54 282C56.2091 282 58 283.791 58 286Z" fill="#1043F5"/>
<path id="Ellipse 17" d="M24 221C24 223.209 22.2091 225 20 225C17.7909 225 16 223.209 16 221C16 218.791 17.7909 217 20 217C22.2091 217 24 218.791 24 221Z" fill="#1043F5"/>
<path id="Ellipse 18" d="M58 221C58 223.209 56.2091 225 54 225C51.7909 225 50 223.209 50 221C50 218.791 51.7909 217 54 217C56.2091 217 58 218.791 58 221Z" fill="#1043F5"/>
<path id="Ellipse 19" d="M91 221C91 223.209 89.2091 225 87 225C84.7909 225 83 223.209 83 221C83 218.791 84.7909 217 87 217C89.2091 217 91 218.791 91 221Z" fill="#1043F5"/>
<path id="Ellipse 20" d="M122 221C122 223.209 120.209 225 118 225C115.791 225 114 223.209 114 221C114 218.791 115.791 217 118 217C120.209 217 122 218.791 122 221Z" fill="#1043F5"/>
<path id="Ellipse 21" d="M92 189C92 191.209 90.2091 193 88 193C85.7909 193 84 191.209 84 189C84 186.791 85.7909 185 88 185C90.2091 185 92 186.791 92 189Z" fill="#1043F5"/>
<path id="Ellipse 22" d="M57 189C57 191.209 55.2091 193 53 193C50.7909 193 49 191.209 49 189C49 186.791 50.7909 185 53 185C55.2091 185 57 186.791 57 189Z" fill="#1043F5"/>
</g>
<g id="F_2\;\;\Rightarrow\;12\;">
<g id="Group_7">
<g id="Group_8">
<g id="Group_9">
<path id="Vector_5" d="M166.781 246.194C166.26 246.194 166 246.041 166 245.735C166 245.673 166.046 245.459 166.138 245.091C166.26 244.601 166.383 244.326 166.505 244.264C166.628 244.203 166.98 244.157 167.562 244.127C168.389 244.127 169.308 244.081 170.318 243.989C170.747 243.897 171.038 243.713 171.191 243.438C171.253 243.284 172.34 238.981 174.453 230.528C176.566 222.075 177.638 217.787 177.669 217.665C177.669 217.45 177.608 217.343 177.485 217.343C177.24 217.251 176.429 217.175 175.05 217.113H173.626C173.442 216.93 173.351 216.807 173.351 216.746C173.351 216.684 173.381 216.424 173.442 215.965C173.565 215.444 173.718 215.122 173.902 215H198.664C198.879 215.122 198.986 215.291 198.986 215.505C198.986 215.658 198.787 217.374 198.388 220.651C197.99 223.928 197.776 225.612 197.745 225.704C197.684 225.919 197.378 226.026 196.826 226.026H196.275C196.061 225.873 195.954 225.674 195.954 225.429C195.954 225.398 196 225.03 196.091 224.326C196.183 223.622 196.229 222.81 196.229 221.891C196.229 220.972 196.122 220.222 195.908 219.64C195.693 219.058 195.402 218.583 195.035 218.216C194.667 217.848 194.101 217.603 193.335 217.481C192.569 217.358 191.788 217.251 190.992 217.159C190.196 217.067 189.093 217.052 187.684 217.113H186.628C184.116 217.144 182.784 217.19 182.631 217.251C182.478 217.312 182.37 217.435 182.309 217.619C182.278 217.649 181.758 219.655 180.747 223.637L179.277 229.563H181.804C181.896 229.563 182.248 229.563 182.86 229.563C183.473 229.563 183.902 229.548 184.147 229.517C184.392 229.487 184.729 229.441 185.157 229.38C185.586 229.318 185.954 229.211 186.26 229.058C186.566 228.905 186.827 228.721 187.041 228.507C187.439 228.139 187.776 227.634 188.052 226.991C188.327 226.347 188.526 225.766 188.649 225.245C188.771 224.724 188.848 224.449 188.879 224.418C188.971 224.265 189.262 224.188 189.752 224.188H190.303C190.517 224.341 190.624 224.494 190.624 224.648C190.624 224.739 190.15 226.746 189.2 230.666C188.251 234.586 187.73 236.608 187.638 236.73C187.577 236.945 187.271 237.052 186.719 237.052H186.168C185.954 236.868 185.847 236.684 185.847 236.5C185.847 236.409 185.923 236.072 186.076 235.49C186.229 234.908 186.306 234.295 186.306 233.652C186.306 232.764 186 232.213 185.387 231.998C184.775 231.784 183.412 231.677 181.298 231.677H178.772L177.302 237.511C176.321 241.309 175.831 243.3 175.831 243.483C175.831 243.912 177.194 244.127 179.92 244.127H181.069C181.252 244.31 181.344 244.418 181.344 244.448C181.344 244.479 181.314 244.785 181.252 245.367C181.13 245.765 180.977 246.056 180.793 246.24H180.012C178.756 246.179 176.444 246.148 173.075 246.148C171.084 246.148 169.568 246.148 168.527 246.148C167.485 246.148 166.904 246.163 166.781 246.194Z" fill="white"/>
</g>
<g id="Group_10">
<path id="Vector_6" d="M197.656 239.197C197.072 239.197 196.606 239.002 196.26 238.612C195.913 238.223 195.74 237.746 195.74 237.183C195.74 235.646 196.314 234.314 197.461 233.188C198.609 232.062 200.038 231.499 201.749 231.499C203.719 231.499 205.365 232.105 206.686 233.318C208.007 234.531 208.678 236.101 208.7 238.028C208.7 238.959 208.483 239.847 208.05 240.691C207.617 241.536 207.097 242.272 206.491 242.9C205.885 243.528 205.019 244.329 203.893 245.303C203.113 245.975 202.03 246.971 200.645 248.292L198.728 250.11L201.197 250.143C204.596 250.143 206.404 250.089 206.621 249.981C206.772 249.937 207.032 248.974 207.4 247.09V246.992H208.7V247.09C208.678 247.155 208.537 248.14 208.277 250.045C208.018 251.951 207.855 252.947 207.79 253.034V253.131H195.74V252.514V252.124C195.74 251.973 195.805 251.81 195.935 251.637C196.065 251.464 196.39 251.085 196.909 250.5C197.537 249.807 198.079 249.201 198.533 248.681C198.728 248.465 199.096 248.064 199.638 247.48C200.179 246.895 200.547 246.494 200.742 246.278C200.937 246.061 201.251 245.704 201.684 245.206C202.117 244.708 202.42 244.34 202.593 244.102C202.767 243.863 203.016 243.539 203.34 243.127C203.665 242.716 203.893 242.369 204.022 242.088C204.152 241.806 204.315 241.492 204.51 241.146C204.705 240.799 204.845 240.453 204.932 240.106C205.019 239.76 205.094 239.435 205.159 239.132C205.224 238.829 205.257 238.472 205.257 238.06C205.257 236.696 204.889 235.516 204.152 234.52C203.416 233.524 202.366 233.026 201.002 233.026C200.287 233.026 199.659 233.21 199.118 233.578C198.577 233.946 198.198 234.303 197.981 234.65C197.765 234.996 197.656 235.202 197.656 235.267C197.656 235.289 197.71 235.299 197.819 235.299C198.208 235.299 198.609 235.451 199.02 235.754C199.432 236.057 199.638 236.555 199.638 237.248C199.638 237.79 199.464 238.244 199.118 238.612C198.771 238.98 198.284 239.175 197.656 239.197Z" fill="white"/>
</g>
</g>
<g id="Group_11">
<path id="Vector_7" d="M277.586 222.626C277.586 222.289 277.831 222.121 278.321 222.121C278.475 222.121 278.597 222.121 278.689 222.121C278.781 222.121 278.857 222.121 278.919 222.121C278.98 222.121 279.041 222.136 279.102 222.167C279.164 222.197 279.194 222.213 279.194 222.213C279.194 222.213 279.225 222.259 279.286 222.351C279.347 222.442 279.378 222.488 279.378 222.488C279.378 222.488 279.424 222.565 279.516 222.718C280.649 224.985 282.15 226.991 284.018 228.736C285.886 230.482 287.586 231.723 289.118 232.458C290.649 233.193 292.119 233.759 293.528 234.157C294.049 234.311 294.309 234.51 294.309 234.755C294.309 235 294.171 235.168 293.895 235.26C293.62 235.352 293.053 235.52 292.196 235.765C291.338 236.01 290.45 236.378 289.531 236.868C285.121 239.012 281.782 242.32 279.516 246.791C279.393 247.067 279.286 247.22 279.194 247.251C279.102 247.281 278.873 247.312 278.505 247.343C277.893 247.343 277.586 247.235 277.586 247.021C277.586 246.898 277.663 246.638 277.816 246.24C278.888 244.127 280.205 242.243 281.767 240.589L282.226 240.13H254.156C253.728 239.915 253.513 239.609 253.513 239.211C253.513 238.752 253.758 238.445 254.248 238.292H284.248L284.707 237.925C285.902 237.006 287.693 235.949 290.082 234.755C290.052 234.724 289.776 234.586 289.255 234.341C288.735 234.096 288.046 233.729 287.188 233.239C286.33 232.749 285.504 232.197 284.707 231.585L284.248 231.217H254.248C253.758 231.064 253.513 230.758 253.513 230.298C253.513 229.9 253.728 229.594 254.156 229.38H282.226L281.767 228.92C280.756 227.848 279.807 226.608 278.919 225.199C278.03 223.79 277.586 222.932 277.586 222.626Z" fill="white"/>
</g>
<g id="Group_12">
<path id="Vector_8" d="M332.187 219.686L331.59 219.916C331.161 220.069 330.549 220.222 329.752 220.375C328.956 220.528 328.068 220.635 327.088 220.697H326.215V218.583H327.088C328.527 218.522 329.86 218.292 331.085 217.894C332.31 217.496 333.167 217.129 333.657 216.792C334.148 216.455 334.576 216.118 334.944 215.781C335.005 215.689 335.189 215.643 335.495 215.643C335.771 215.643 336.031 215.735 336.276 215.919V229.655L336.322 243.438C336.536 243.652 336.72 243.79 336.873 243.851C337.026 243.912 337.394 243.974 337.976 244.035C338.558 244.096 339.507 244.127 340.824 244.127H342.019V246.24H341.513C340.87 246.148 338.435 246.102 334.209 246.102C330.043 246.102 327.639 246.148 326.996 246.24H326.445V244.127H327.639C328.313 244.127 328.895 244.127 329.385 244.127C329.875 244.127 330.258 244.111 330.533 244.081C330.809 244.05 331.054 244.004 331.269 243.943C331.483 243.882 331.605 243.851 331.636 243.851C331.667 243.851 331.759 243.774 331.912 243.621C332.065 243.468 332.157 243.407 332.187 243.438V219.686Z" fill="white"/>
<path id="Vector_9" d="M350.38 226.531C349.553 226.531 348.895 226.256 348.405 225.704C347.915 225.153 347.67 224.479 347.67 223.683C347.67 221.508 348.481 219.625 350.104 218.032C351.728 216.439 353.749 215.643 356.169 215.643C358.956 215.643 361.283 216.501 363.152 218.216C365.02 219.931 365.969 222.151 366 224.877C366 226.194 365.694 227.45 365.081 228.644C364.469 229.839 363.734 230.88 362.876 231.768C362.018 232.657 360.793 233.79 359.201 235.168C358.098 236.118 356.567 237.526 354.607 239.395L351.896 241.967L355.388 242.013C360.196 242.013 362.753 241.937 363.06 241.784C363.274 241.722 363.642 240.359 364.162 237.695V237.557H366V237.695C365.969 237.787 365.77 239.18 365.403 241.876C365.035 244.571 364.806 245.98 364.714 246.102V246.24H347.67V245.367V244.816C347.67 244.601 347.761 244.372 347.945 244.127C348.129 243.882 348.588 243.346 349.323 242.519C350.212 241.539 350.977 240.681 351.62 239.946C351.896 239.64 352.417 239.073 353.182 238.246C353.948 237.419 354.469 236.853 354.744 236.546C355.02 236.24 355.464 235.735 356.077 235.03C356.689 234.326 357.118 233.805 357.363 233.468C357.608 233.131 357.96 232.672 358.42 232.09C358.879 231.508 359.201 231.018 359.384 230.62C359.568 230.222 359.798 229.778 360.074 229.288C360.349 228.798 360.548 228.308 360.671 227.818C360.793 227.328 360.901 226.868 360.992 226.439C361.084 226.011 361.13 225.505 361.13 224.923C361.13 222.994 360.61 221.325 359.568 219.916C358.527 218.507 357.041 217.802 355.112 217.802C354.101 217.802 353.213 218.063 352.447 218.583C351.682 219.104 351.146 219.609 350.839 220.099C350.533 220.589 350.38 220.88 350.38 220.972C350.38 221.003 350.457 221.018 350.61 221.018C351.161 221.018 351.728 221.233 352.31 221.661C352.891 222.09 353.182 222.795 353.182 223.775C353.182 224.54 352.937 225.184 352.447 225.704C351.957 226.225 351.268 226.501 350.38 226.531Z" fill="white"/>
</g>
</g>
</g>
<g id="F_3\;\;\Rightarrow\;21">
<g id="Group_13">
<g id="Group_14">
<g id="Group_15">
<path id="Vector_10" d="M164.785 385.352C164.262 385.352 164 385.199 164 384.891C164 384.829 164.046 384.614 164.139 384.244C164.262 383.752 164.385 383.475 164.508 383.413C164.631 383.352 164.985 383.305 165.57 383.275C166.401 383.275 167.325 383.228 168.34 383.136C168.771 383.044 169.064 382.859 169.218 382.582C169.279 382.428 170.372 378.103 172.496 369.607C174.62 361.111 175.698 356.801 175.728 356.678C175.728 356.463 175.667 356.355 175.544 356.355C175.297 356.263 174.482 356.186 173.096 356.124H171.665C171.48 355.939 171.388 355.816 171.388 355.755C171.388 355.693 171.419 355.431 171.48 354.97C171.603 354.446 171.757 354.123 171.942 354H196.83C197.046 354.123 197.153 354.292 197.153 354.508C197.153 354.662 196.953 356.386 196.553 359.679C196.153 362.973 195.937 364.666 195.907 364.759C195.845 364.974 195.537 365.082 194.983 365.082H194.429C194.213 364.928 194.106 364.728 194.106 364.482C194.106 364.451 194.152 364.081 194.244 363.373C194.337 362.665 194.383 361.85 194.383 360.926C194.383 360.003 194.275 359.248 194.06 358.664C193.844 358.079 193.552 357.602 193.182 357.232C192.813 356.863 192.243 356.617 191.474 356.493C190.704 356.37 189.919 356.263 189.119 356.17C188.319 356.078 187.21 356.062 185.794 356.124H184.732C182.208 356.155 180.869 356.201 180.715 356.263C180.561 356.324 180.453 356.447 180.392 356.632C180.361 356.663 179.838 358.679 178.822 362.681L177.344 368.637H179.884C179.976 368.637 180.33 368.637 180.946 368.637C181.562 368.637 181.993 368.622 182.239 368.591C182.485 368.56 182.824 368.514 183.255 368.453C183.686 368.391 184.055 368.283 184.363 368.129C184.671 367.975 184.932 367.791 185.148 367.575C185.548 367.206 185.887 366.698 186.164 366.052C186.441 365.405 186.641 364.82 186.764 364.297C186.887 363.774 186.964 363.497 186.995 363.466C187.087 363.312 187.38 363.235 187.872 363.235H188.426C188.642 363.389 188.75 363.543 188.75 363.697C188.75 363.789 188.272 365.805 187.318 369.745C186.364 373.686 185.841 375.717 185.748 375.841C185.687 376.056 185.379 376.164 184.825 376.164H184.271C184.055 375.979 183.947 375.794 183.947 375.61C183.947 375.517 184.024 375.179 184.178 374.594C184.332 374.009 184.409 373.393 184.409 372.747C184.409 371.854 184.101 371.3 183.486 371.085C182.87 370.869 181.5 370.761 179.376 370.761H176.836L175.359 376.625C174.374 380.443 173.881 382.443 173.881 382.628C173.881 383.059 175.251 383.275 177.991 383.275H179.145C179.33 383.459 179.422 383.567 179.422 383.598C179.422 383.629 179.391 383.936 179.33 384.521C179.207 384.921 179.053 385.214 178.868 385.399H178.083C176.821 385.337 174.497 385.306 171.111 385.306C169.11 385.306 167.586 385.306 166.54 385.306C165.493 385.306 164.908 385.322 164.785 385.352Z" fill="white"/>
</g>
<g id="Group_16">
<path id="Vector_11" d="M196.405 377.21C195.817 377.21 195.36 377.025 195.034 376.655C194.707 376.285 194.533 375.806 194.511 375.219C194.511 374.022 195.034 372.955 196.078 372.019C197.123 371.084 198.385 370.616 199.865 370.616C200.627 370.616 201.106 370.627 201.302 370.648C202.912 370.909 204.142 371.486 204.99 372.378C205.839 373.271 206.274 374.239 206.296 375.284C206.296 376.416 205.926 377.515 205.186 378.581C204.446 379.648 203.423 380.42 202.118 380.899L202.02 380.964C202.02 380.986 202.118 381.019 202.314 381.062C202.509 381.106 202.825 381.204 203.26 381.356C203.696 381.508 204.109 381.737 204.501 382.041C206.285 383.195 207.178 384.718 207.178 386.612C207.178 388.331 206.503 389.833 205.154 391.117C203.804 392.401 202.096 393.043 200.028 393.043C198.287 393.043 196.786 392.575 195.523 391.639C194.261 390.703 193.63 389.517 193.63 388.081C193.63 387.471 193.826 386.982 194.217 386.612C194.609 386.242 195.099 386.046 195.687 386.024C196.296 386.024 196.796 386.22 197.188 386.612C197.58 387.004 197.776 387.493 197.776 388.081C197.776 388.32 197.743 388.538 197.678 388.734C197.613 388.93 197.536 389.104 197.449 389.256C197.362 389.408 197.243 389.539 197.09 389.648C196.938 389.757 196.807 389.844 196.699 389.909C196.59 389.974 196.481 390.018 196.372 390.04C196.263 390.061 196.176 390.094 196.111 390.138L195.98 390.17C197.09 391.15 198.44 391.639 200.028 391.639C201.225 391.639 202.129 391.062 202.738 389.909C203.108 389.191 203.293 388.092 203.293 386.612V385.959C203.293 383.891 202.596 382.509 201.204 381.813C200.877 381.682 200.213 381.606 199.212 381.584L197.841 381.552L197.743 381.487C197.7 381.421 197.678 381.247 197.678 380.964C197.678 380.572 197.765 380.377 197.939 380.377C198.548 380.377 199.18 380.322 199.832 380.213C200.572 380.105 201.247 379.648 201.856 378.842C202.466 378.037 202.771 376.818 202.771 375.186V374.925C202.771 373.684 202.39 372.825 201.628 372.346C201.149 372.041 200.638 371.889 200.094 371.889C199.397 371.889 198.755 372.008 198.168 372.248C197.58 372.487 197.166 372.738 196.927 372.999C196.688 373.26 196.568 373.39 196.568 373.39H196.666C196.731 373.412 196.818 373.434 196.927 373.456C197.036 373.478 197.145 373.532 197.253 373.619C197.362 373.706 197.493 373.782 197.645 373.848C197.798 373.913 197.906 374.033 197.972 374.207C198.037 374.381 198.124 374.544 198.233 374.696C198.342 374.849 198.374 375.066 198.331 375.349C198.331 375.828 198.178 376.252 197.874 376.622C197.569 376.992 197.079 377.188 196.405 377.21Z" fill="white"/>
</g>
</g>
<g id="Group_17">
<path id="Vector_12" d="M276.153 361.665C276.153 361.326 276.399 361.157 276.892 361.157C277.046 361.157 277.169 361.157 277.261 361.157C277.354 361.157 277.431 361.157 277.492 361.157C277.554 361.157 277.615 361.172 277.677 361.203C277.738 361.234 277.769 361.249 277.769 361.249C277.769 361.249 277.8 361.296 277.862 361.388C277.923 361.48 277.954 361.526 277.954 361.526C277.954 361.526 278 361.603 278.092 361.757C279.231 364.035 280.74 366.052 282.618 367.806C284.495 369.561 286.204 370.807 287.743 371.546C289.282 372.285 290.76 372.855 292.176 373.255C292.699 373.409 292.961 373.609 292.961 373.855C292.961 374.101 292.822 374.271 292.545 374.363C292.268 374.455 291.699 374.625 290.837 374.871C289.975 375.117 289.082 375.487 288.158 375.979C283.726 378.134 280.37 381.458 278.092 385.953C277.969 386.23 277.862 386.384 277.769 386.414C277.677 386.445 277.446 386.476 277.077 386.507C276.461 386.507 276.153 386.399 276.153 386.184C276.153 386.06 276.23 385.799 276.384 385.399C277.461 383.275 278.785 381.381 280.355 379.719L280.817 379.257H252.604C252.173 379.042 251.958 378.734 251.958 378.334C251.958 377.872 252.204 377.564 252.696 377.41H282.848L283.31 377.041C284.511 376.118 286.311 375.056 288.713 373.855C288.682 373.824 288.405 373.686 287.881 373.439C287.358 373.193 286.665 372.824 285.804 372.331C284.942 371.839 284.111 371.285 283.31 370.669L282.848 370.3H252.696C252.204 370.146 251.958 369.838 251.958 369.376C251.958 368.976 252.173 368.668 252.604 368.453H280.817L280.355 367.991C279.339 366.913 278.385 365.667 277.492 364.251C276.599 362.835 276.153 361.973 276.153 361.665Z" fill="white"/>
</g>
<g id="Group_18">
<path id="Vector_13" d="M326.229 365.59C325.398 365.59 324.736 365.313 324.244 364.759C323.751 364.205 323.505 363.527 323.505 362.727C323.505 360.541 324.321 358.648 325.952 357.048C327.584 355.447 329.615 354.646 332.047 354.646C334.849 354.646 337.188 355.508 339.066 357.232C340.944 358.956 341.898 361.188 341.929 363.928C341.929 365.251 341.621 366.513 341.005 367.714C340.389 368.914 339.651 369.961 338.789 370.854C337.927 371.746 336.696 372.885 335.095 374.271C333.987 375.225 332.447 376.641 330.477 378.519L327.753 381.104L331.262 381.151C336.095 381.151 338.666 381.074 338.973 380.92C339.189 380.858 339.558 379.488 340.082 376.81V376.672H341.929V376.81C341.898 376.903 341.698 378.303 341.328 381.012C340.959 383.721 340.728 385.137 340.636 385.26V385.399H323.505V384.521V383.967C323.505 383.752 323.597 383.521 323.782 383.275C323.967 383.028 324.428 382.49 325.167 381.658C326.06 380.673 326.83 379.812 327.476 379.073C327.753 378.765 328.276 378.195 329.046 377.364C329.816 376.533 330.339 375.964 330.616 375.656C330.893 375.348 331.339 374.84 331.955 374.132C332.571 373.424 333.002 372.901 333.248 372.562C333.494 372.224 333.848 371.762 334.31 371.177C334.772 370.592 335.095 370.099 335.279 369.699C335.464 369.299 335.695 368.853 335.972 368.36C336.249 367.868 336.449 367.375 336.572 366.883C336.696 366.39 336.803 365.928 336.896 365.497C336.988 365.066 337.034 364.559 337.034 363.974C337.034 362.034 336.511 360.357 335.464 358.941C334.418 357.525 332.925 356.817 330.985 356.817C329.969 356.817 329.077 357.078 328.307 357.602C327.538 358.125 326.999 358.633 326.691 359.125C326.383 359.618 326.229 359.91 326.229 360.003C326.229 360.033 326.306 360.049 326.46 360.049C327.014 360.049 327.584 360.264 328.169 360.695C328.754 361.126 329.046 361.834 329.046 362.819C329.046 363.589 328.8 364.235 328.307 364.759C327.815 365.282 327.122 365.559 326.229 365.59Z" fill="white"/>
<path id="Vector_14" d="M354.119 358.71L353.518 358.941C353.087 359.095 352.472 359.248 351.671 359.402C350.871 359.556 349.978 359.664 348.993 359.726H348.116V357.602H348.993C350.44 357.54 351.779 357.309 353.01 356.909C354.242 356.509 355.104 356.139 355.596 355.801C356.089 355.462 356.52 355.124 356.889 354.785C356.951 354.693 357.135 354.646 357.443 354.646C357.72 354.646 357.982 354.739 358.228 354.923V368.73L358.274 382.582C358.49 382.797 358.675 382.936 358.828 382.998C358.982 383.059 359.352 383.121 359.937 383.182C360.522 383.244 361.476 383.275 362.799 383.275H364V385.399H363.492C362.846 385.306 360.398 385.26 356.15 385.26C351.964 385.26 349.547 385.306 348.901 385.399H348.347V383.275H349.547C350.225 383.275 350.809 383.275 351.302 383.275C351.795 383.275 352.179 383.259 352.456 383.228C352.733 383.198 352.98 383.151 353.195 383.09C353.411 383.028 353.534 382.998 353.565 382.998C353.595 382.998 353.688 382.921 353.842 382.767C353.996 382.613 354.088 382.551 354.119 382.582V358.71Z" fill="white"/>
</g>
</g>
</g>
</g>
<path id="Line 13 (Stroke)" fill-rule="evenodd" clip-rule="evenodd" d="M574.513 29.984L574.513 416.016H569.513L569.513 29.984H574.513Z" fill="#CD08D1"/>
<g id="=3^2-4">
<g id="Group_19">
<g id="Group_20">
<path id="Vector_15" d="M365 72.7061C365 72.3234 365.206 72.0291 365.618 71.823H393.746C394.188 72.0585 394.408 72.3529 394.408 72.7061C394.408 73.0299 394.202 73.3096 393.79 73.5451L379.748 73.5893H365.707C365.236 73.4421 365 73.1477 365 72.7061ZM365 81.2725C365 80.831 365.236 80.5366 365.707 80.3894H393.79C394.202 80.6838 394.408 80.9782 394.408 81.2725C394.408 81.6552 394.188 81.9496 393.746 82.1557H365.618C365.206 81.9496 365 81.6552 365 81.2725Z" fill="white"/>
</g>
<g id="Group_21">
<g id="Group_22">
<path id="Vector_16" d="M414.756 67.5839C413.961 67.5839 413.343 67.3337 412.901 66.8333C412.46 66.3328 412.224 65.6852 412.195 64.8904C412.195 63.2713 412.901 61.8288 414.314 60.563C415.727 59.2972 417.435 58.6643 419.437 58.6643C420.467 58.6643 421.115 58.679 421.379 58.7084C423.558 59.0617 425.221 59.8418 426.369 61.0487C427.517 62.2557 428.106 63.5657 428.135 64.9787C428.135 66.5095 427.635 67.9961 426.634 69.4385C425.633 70.881 424.25 71.926 422.483 72.5737L422.351 72.662C422.351 72.6914 422.483 72.7356 422.748 72.7944C423.013 72.8533 423.44 72.9858 424.029 73.1919C424.618 73.3979 425.177 73.707 425.707 74.1191C428.121 75.6794 429.328 77.74 429.328 80.3011C429.328 82.6267 428.415 84.6579 426.59 86.3947C424.765 88.1316 422.454 89 419.657 89C417.302 89 415.271 88.3671 413.564 87.1013C411.856 85.8354 411.003 84.2311 411.003 82.2882C411.003 81.4639 411.268 80.8015 411.797 80.3011C412.327 79.8007 412.99 79.5357 413.784 79.5063C414.609 79.5063 415.286 79.7712 415.816 80.3011C416.346 80.831 416.611 81.4933 416.611 82.2882C416.611 82.612 416.566 82.9064 416.478 83.1713C416.39 83.4362 416.287 83.6717 416.169 83.8778C416.051 84.0839 415.889 84.2605 415.683 84.4077C415.477 84.5549 415.301 84.6726 415.153 84.7609C415.006 84.8493 414.859 84.9081 414.712 84.9376C414.565 84.967 414.447 85.0112 414.359 85.07L414.182 85.1142C415.683 86.4389 417.508 87.1013 419.657 87.1013C421.276 87.1013 422.498 86.3212 423.322 84.7609C423.823 83.7895 424.073 82.3029 424.073 80.3011V79.418C424.073 76.6214 423.131 74.7521 421.247 73.81C420.805 73.6334 419.908 73.5304 418.553 73.5009L416.699 73.4568L416.566 73.3685C416.507 73.2802 416.478 73.0447 416.478 72.662C416.478 72.1321 416.596 71.8671 416.831 71.8671C417.656 71.8671 418.509 71.7936 419.392 71.6464C420.393 71.4992 421.306 70.881 422.13 69.7918C422.954 68.7026 423.367 67.0541 423.367 64.8462V64.493C423.367 62.815 422.851 61.6522 421.821 61.0046C421.173 60.5924 420.482 60.3864 419.746 60.3864C418.804 60.3864 417.935 60.5483 417.14 60.8721C416.346 61.1959 415.786 61.5344 415.462 61.8877C415.139 62.241 414.977 62.4176 414.977 62.4176H415.109C415.197 62.447 415.315 62.4765 415.462 62.5059C415.61 62.5353 415.757 62.6089 415.904 62.7267C416.051 62.8444 416.228 62.9475 416.434 63.0358C416.64 63.1241 416.787 63.286 416.875 63.5215C416.964 63.757 417.082 63.9778 417.229 64.1839C417.376 64.3899 417.42 64.6843 417.361 65.067C417.361 65.7146 417.155 66.2887 416.743 66.7891C416.331 67.2896 415.668 67.5545 414.756 67.5839Z" fill="white"/>
</g>
<g id="Group_23">
<path id="Vector_17" d="M434.629 56.3989C434.067 56.3989 433.62 56.2116 433.287 55.8369C432.954 55.4623 432.787 55.0044 432.787 54.4633C432.787 52.9856 433.339 51.7056 434.442 50.6234C435.545 49.5411 436.919 49 438.563 49C440.457 49 442.039 49.5828 443.308 50.7483C444.578 51.9138 445.223 53.4227 445.244 55.275C445.244 56.1699 445.036 57.0233 444.619 57.8349C444.203 58.6466 443.704 59.3543 443.121 59.9578C442.538 60.5614 441.706 61.3315 440.623 62.268C439.874 62.9132 438.833 63.8706 437.501 65.1402L435.66 66.8884L438.032 66.9196C441.3 66.9196 443.038 66.8676 443.246 66.7635C443.391 66.7219 443.641 65.7958 443.995 63.9851V63.8914H445.244V63.9851C445.223 64.0475 445.088 64.9945 444.838 66.826C444.588 68.6575 444.432 69.6149 444.37 69.6981V69.7918H432.787V69.1986V68.824C432.787 68.6783 432.85 68.5222 432.975 68.3557C433.1 68.1892 433.412 67.825 433.911 67.263C434.515 66.597 435.035 66.0143 435.472 65.5148C435.66 65.3067 436.013 64.9216 436.534 64.3597C437.054 63.7978 437.408 63.4127 437.595 63.2046C437.782 62.9965 438.084 62.6531 438.5 62.1744C438.917 61.6957 439.208 61.3419 439.375 61.1129C439.541 60.884 439.78 60.5718 440.093 60.1764C440.405 59.7809 440.623 59.4479 440.748 59.1774C440.873 58.9068 441.029 58.605 441.216 58.272C441.404 57.939 441.539 57.606 441.622 57.273C441.706 56.94 441.778 56.6278 441.841 56.3364C441.903 56.0451 441.934 55.7017 441.934 55.3062C441.934 53.995 441.581 52.8607 440.873 51.9034C440.165 50.946 439.156 50.4673 437.845 50.4673C437.158 50.4673 436.554 50.6442 436.034 50.998C435.514 51.3518 435.15 51.6952 434.941 52.0282C434.733 52.3612 434.629 52.559 434.629 52.6214C434.629 52.6422 434.681 52.6526 434.785 52.6526C435.16 52.6526 435.545 52.7983 435.94 53.0897C436.336 53.3811 436.534 53.8597 436.534 54.5257C436.534 55.0461 436.367 55.4831 436.034 55.8369C435.701 56.1908 435.233 56.3781 434.629 56.3989Z" fill="white"/>
</g>
</g>
<g id="Group_24">
<path id="Vector_18" d="M462.569 77.5634C462.569 77.5634 462.569 77.372 462.569 76.9893C462.569 76.6067 462.775 76.3123 463.187 76.1062H488.842C489.284 76.3417 489.505 76.6361 489.505 76.9893C489.505 77.3426 489.284 77.637 488.842 77.8725H463.187C462.775 77.6664 462.569 77.372 462.569 76.9893V77.5634Z" fill="white"/>
</g>
<g id="Group_25">
<path id="Vector_19" d="M523.426 88.0285C522.896 87.9402 520.997 87.8961 517.73 87.8961C514.315 87.8961 512.343 87.9402 511.813 88.0285H511.415V85.9973H512.784C513.373 85.9973 513.77 85.9973 513.976 85.9973C514.182 85.9973 514.433 85.9679 514.727 85.909C515.021 85.8501 515.227 85.7766 515.345 85.6882C515.463 85.5999 515.566 85.4822 515.654 85.335C515.684 85.2761 515.698 84.4813 515.698 82.9505V80.7427H504.262V78.7115L510.93 68.5112C515.434 61.6816 517.715 58.2521 517.774 58.2227C517.833 58.1638 518.142 58.1344 518.701 58.1344H519.496L519.761 58.3993V78.7115H523.823V80.7427H519.761V82.9947C519.761 84.2016 519.761 84.9081 519.761 85.1142C519.761 85.3203 519.849 85.4969 520.026 85.6441C520.261 85.8501 521.1 85.9679 522.543 85.9973H523.823V88.0285H523.426ZM515.963 78.7115V63.9631L506.293 78.6673L511.106 78.7115H515.963Z" fill="white"/>
</g>
</g>
</g>
<g id="=4^2-4">
<g id="Group_26">
<g id="Group_27">
<path id="Vector_20" d="M387 233.443C387 233.051 387.211 232.749 387.634 232.538H416.462C416.914 232.78 417.14 233.081 417.14 233.443C417.14 233.775 416.929 234.062 416.507 234.303L402.115 234.348H387.724C387.241 234.198 387 233.896 387 233.443ZM387 242.223C387 241.77 387.241 241.469 387.724 241.318H416.507C416.929 241.62 417.14 241.921 417.14 242.223C417.14 242.615 416.914 242.917 416.462 243.128H387.634C387.211 242.917 387 242.615 387 242.223Z" fill="white"/>
</g>
<g id="Group_28">
<g id="Group_29">
<path id="Vector_21" d="M453.155 249.147C452.612 249.057 450.666 249.011 447.317 249.011C443.817 249.011 441.796 249.057 441.253 249.147H440.846V247.065H442.248C442.852 247.065 443.259 247.065 443.47 247.065C443.682 247.065 443.938 247.035 444.24 246.975C444.541 246.914 444.753 246.839 444.873 246.749C444.994 246.658 445.1 246.537 445.19 246.387C445.22 246.326 445.235 245.512 445.235 243.943V241.68H433.514V239.598L440.348 229.144C444.964 222.144 447.302 218.63 447.362 218.599C447.423 218.539 447.739 218.509 448.313 218.509H449.127L449.399 218.78V239.598H453.562V241.68H449.399V243.988C449.399 245.225 449.399 245.949 449.399 246.16C449.399 246.371 449.489 246.552 449.67 246.703C449.912 246.914 450.772 247.035 452.25 247.065H453.562V249.147H453.155ZM445.507 239.598V224.483L435.596 239.553L440.529 239.598H445.507Z" fill="white"/>
</g>
<g id="Group_30">
<path id="Vector_22" d="M458.362 216.73C457.786 216.73 457.328 216.538 456.987 216.154C456.645 215.77 456.475 215.301 456.475 214.746C456.475 213.232 457.04 211.92 458.17 210.811C459.301 209.702 460.709 209.147 462.394 209.147C464.335 209.147 465.956 209.744 467.257 210.939C468.558 212.133 469.22 213.68 469.241 215.578C469.241 216.496 469.028 217.37 468.601 218.202C468.174 219.034 467.663 219.759 467.065 220.378C466.468 220.996 465.615 221.786 464.506 222.745C463.738 223.407 462.671 224.388 461.306 225.689L459.418 227.481L461.85 227.513C465.199 227.513 466.98 227.459 467.193 227.353C467.343 227.31 467.599 226.361 467.961 224.505V224.409H469.241V224.505C469.22 224.569 469.081 225.54 468.825 227.417C468.569 229.294 468.409 230.275 468.345 230.36V230.456H456.475V229.848V229.465C456.475 229.315 456.539 229.155 456.667 228.985C456.795 228.814 457.115 228.441 457.626 227.865C458.245 227.182 458.778 226.585 459.226 226.073C459.418 225.86 459.781 225.465 460.314 224.889C460.847 224.313 461.21 223.919 461.402 223.705C461.594 223.492 461.903 223.14 462.33 222.649C462.757 222.159 463.055 221.796 463.226 221.562C463.396 221.327 463.642 221.007 463.962 220.602C464.282 220.196 464.506 219.855 464.634 219.578C464.762 219.301 464.922 218.991 465.114 218.65C465.306 218.309 465.444 217.967 465.529 217.626C465.615 217.285 465.689 216.965 465.753 216.666C465.817 216.368 465.849 216.016 465.849 215.61C465.849 214.266 465.487 213.104 464.762 212.123C464.036 211.142 463.002 210.651 461.658 210.651C460.954 210.651 460.335 210.832 459.802 211.195C459.269 211.557 458.896 211.909 458.682 212.251C458.469 212.592 458.362 212.795 458.362 212.859C458.362 212.88 458.416 212.891 458.522 212.891C458.906 212.891 459.301 213.04 459.706 213.339C460.112 213.637 460.314 214.128 460.314 214.81C460.314 215.344 460.144 215.792 459.802 216.154C459.461 216.517 458.981 216.709 458.362 216.73Z" fill="white"/>
</g>
</g>
<g id="Group_31">
<path id="Vector_23" d="M486.997 238.421C486.997 238.421 486.997 238.225 486.997 237.833C486.997 237.441 487.209 237.139 487.631 236.928H513.925C514.377 237.169 514.604 237.471 514.604 237.833C514.604 238.195 514.377 238.497 513.925 238.738H487.631C487.209 238.527 486.997 238.225 486.997 237.833V238.421Z" fill="white"/>
</g>
<g id="Group_32">
<path id="Vector_24" d="M549.369 249.147C548.826 249.057 546.88 249.011 543.531 249.011C540.031 249.011 538.01 249.057 537.467 249.147H537.06V247.065H538.463C539.066 247.065 539.473 247.065 539.684 247.065C539.896 247.065 540.152 247.035 540.454 246.975C540.756 246.914 540.967 246.839 541.087 246.749C541.208 246.658 541.314 246.537 541.404 246.387C541.434 246.326 541.449 245.512 541.449 243.943V241.68H529.728V239.598L536.562 229.144C541.178 222.144 543.516 218.63 543.576 218.599C543.637 218.539 543.954 218.509 544.527 218.509H545.341L545.613 218.78V239.598H549.777V241.68H545.613V243.988C545.613 245.225 545.613 245.949 545.613 246.16C545.613 246.371 545.703 246.552 545.885 246.703C546.126 246.914 546.986 247.035 548.464 247.065H549.777V249.147H549.369ZM541.721 239.598V224.483L531.81 239.553L536.743 239.598H541.721Z" fill="white"/>
</g>
</g>
</g>
<g id="=5^2-4">
<g id="Group_33">
<g id="Group_34">
<path id="Vector_25" d="M377 368.706C377 368.323 377.206 368.029 377.618 367.823H405.746C406.188 368.059 406.408 368.353 406.408 368.706C406.408 369.03 406.202 369.31 405.79 369.545L391.748 369.589H377.707C377.236 369.442 377 369.148 377 368.706ZM377 377.273C377 376.831 377.236 376.537 377.707 376.389H405.79C406.202 376.684 406.408 376.978 406.408 377.273C406.408 377.655 406.188 377.95 405.746 378.156H377.618C377.206 377.95 377 377.655 377 377.273Z" fill="white"/>
</g>
<g id="Group_35">
<g id="Group_36">
<path id="Vector_26" d="M428.39 377.096C428.39 377.802 428.154 378.391 427.683 378.862C427.212 379.333 426.638 379.569 425.961 379.569H425.652C427.006 381.894 428.802 383.057 431.039 383.057C433.1 383.057 434.601 382.174 435.543 380.408C436.102 379.436 436.382 377.552 436.382 374.756C436.382 371.724 435.985 369.678 435.19 368.618C434.424 367.646 433.571 367.161 432.629 367.161H432.364C430.068 367.161 428.331 368.162 427.153 370.163C427.036 370.369 426.933 370.487 426.844 370.517C426.756 370.546 426.535 370.575 426.182 370.605C425.681 370.605 425.402 370.517 425.343 370.34C425.284 370.222 425.255 367.646 425.255 362.612V356.916C425.255 355.444 425.328 354.708 425.475 354.708C425.534 354.65 425.593 354.62 425.652 354.62C425.681 354.62 425.991 354.738 426.579 354.973C427.168 355.209 427.978 355.444 429.008 355.68C430.038 355.915 431.142 356.033 432.32 356.033C434.41 356.033 436.412 355.621 438.325 354.797C438.561 354.679 438.752 354.62 438.899 354.62C439.135 354.62 439.252 354.885 439.252 355.415V355.989C436.838 358.844 433.821 360.272 430.2 360.272C429.288 360.272 428.463 360.184 427.727 360.007L427.286 359.919V367.514C427.845 367.102 428.287 366.778 428.611 366.542C428.934 366.307 429.464 366.071 430.2 365.836C430.936 365.6 431.687 365.483 432.452 365.483C434.837 365.483 436.853 366.439 438.502 368.353C440.15 370.266 440.974 372.533 440.974 375.153C440.974 377.861 440.032 380.172 438.148 382.086C436.264 383.999 433.968 384.971 431.26 385C428.875 385 426.962 384.205 425.52 382.616C424.077 381.026 423.356 379.23 423.356 377.228C423.356 376.522 423.518 375.963 423.842 375.55C424.165 375.138 424.504 374.873 424.857 374.756C425.21 374.638 425.549 374.579 425.873 374.579C426.609 374.579 427.212 374.829 427.683 375.33C428.154 375.83 428.39 376.419 428.39 377.096Z" fill="white"/>
</g>
<g id="Group_37">
<path id="Vector_27" d="M446.629 352.399C446.067 352.399 445.62 352.212 445.287 351.837C444.954 351.462 444.787 351.004 444.787 350.463C444.787 348.986 445.339 347.706 446.442 346.623C447.545 345.541 448.919 345 450.563 345C452.457 345 454.039 345.583 455.308 346.748C456.578 347.914 457.223 349.423 457.244 351.275C457.244 352.17 457.036 353.023 456.619 353.835C456.203 354.647 455.704 355.354 455.121 355.958C454.538 356.561 453.706 357.331 452.623 358.268C451.874 358.913 450.833 359.871 449.501 361.14L447.66 362.888L450.032 362.92C453.3 362.92 455.038 362.868 455.246 362.764C455.391 362.722 455.641 361.796 455.995 359.985V359.891H457.244V359.985C457.223 360.048 457.088 360.994 456.838 362.826C456.588 364.657 456.432 365.615 456.37 365.698V365.792H444.787V365.199V364.824C444.787 364.678 444.85 364.522 444.975 364.356C445.1 364.189 445.412 363.825 445.911 363.263C446.515 362.597 447.035 362.014 447.472 361.515C447.66 361.307 448.013 360.922 448.534 360.36C449.054 359.798 449.408 359.413 449.595 359.205C449.782 358.996 450.084 358.653 450.5 358.174C450.917 357.696 451.208 357.342 451.375 357.113C451.541 356.884 451.78 356.572 452.093 356.176C452.405 355.781 452.623 355.448 452.748 355.177C452.873 354.907 453.029 354.605 453.216 354.272C453.404 353.939 453.539 353.606 453.622 353.273C453.706 352.94 453.778 352.628 453.841 352.336C453.903 352.045 453.934 351.702 453.934 351.306C453.934 349.995 453.581 348.861 452.873 347.903C452.165 346.946 451.156 346.467 449.845 346.467C449.158 346.467 448.554 346.644 448.034 346.998C447.514 347.352 447.15 347.695 446.941 348.028C446.733 348.361 446.629 348.559 446.629 348.621C446.629 348.642 446.681 348.653 446.785 348.653C447.16 348.653 447.545 348.798 447.94 349.09C448.336 349.381 448.534 349.86 448.534 350.526C448.534 351.046 448.367 351.483 448.034 351.837C447.701 352.191 447.233 352.378 446.629 352.399Z" fill="white"/>
</g>
</g>
<g id="Group_38">
<path id="Vector_28" d="M474.569 373.563C474.569 373.563 474.569 373.372 474.569 372.989C474.569 372.607 474.775 372.312 475.187 372.106H500.842C501.284 372.342 501.505 372.636 501.505 372.989C501.505 373.343 501.284 373.637 500.842 373.872H475.187C474.775 373.666 474.569 373.372 474.569 372.989V373.563Z" fill="white"/>
</g>
<g id="Group_39">
<path id="Vector_29" d="M535.426 384.029C534.896 383.94 532.997 383.896 529.73 383.896C526.315 383.896 524.343 383.94 523.813 384.029H523.415V381.997H524.784C525.373 381.997 525.77 381.997 525.976 381.997C526.182 381.997 526.433 381.968 526.727 381.909C527.021 381.85 527.227 381.777 527.345 381.688C527.463 381.6 527.566 381.482 527.654 381.335C527.684 381.276 527.698 380.481 527.698 378.95V376.743H516.262V374.711L522.93 364.511C527.434 357.682 529.715 354.252 529.774 354.223C529.833 354.164 530.142 354.134 530.701 354.134H531.496L531.761 354.399V374.711H535.823V376.743H531.761V378.995C531.761 380.202 531.761 380.908 531.761 381.114C531.761 381.32 531.849 381.497 532.026 381.644C532.261 381.85 533.1 381.968 534.543 381.997H535.823V384.029H535.426ZM527.963 374.711V359.963L518.293 374.667L523.106 374.711H527.963Z" fill="white"/>
</g>
</g>
</g>
<g id="F_n=(n+2)^2-4\;&#10;\therefore\; F_{50}=52^2-4=2700">
<g id="Group_40">
<g id="Group 11">
<g id="Group_41">
<g id="Group_42">
<path id="Vector_30" d="M604.6 104.145C604.2 104.145 604 104.027 604 103.792C604 103.745 604.035 103.581 604.106 103.298C604.2 102.922 604.294 102.71 604.388 102.663C604.482 102.616 604.753 102.581 605.199 102.558C605.834 102.558 606.54 102.522 607.316 102.452C607.645 102.381 607.869 102.24 607.986 102.028C608.033 101.911 608.868 98.6064 610.491 92.1154C612.114 85.6243 612.937 82.3317 612.961 82.2376C612.961 82.073 612.913 81.9907 612.819 81.9907C612.631 81.9201 612.008 81.8613 610.95 81.8143H609.856C609.715 81.6732 609.644 81.5791 609.644 81.5321C609.644 81.485 609.668 81.2851 609.715 80.9323C609.809 80.5325 609.927 80.2856 610.068 80.1915H629.082C629.247 80.2856 629.329 80.4149 629.329 80.5796C629.329 80.6972 629.176 82.0142 628.871 84.5307C628.565 87.0471 628.4 88.3406 628.377 88.4112C628.33 88.5758 628.095 88.6581 627.671 88.6581H627.248C627.083 88.5406 627.001 88.3877 627.001 88.1995C627.001 88.176 627.036 87.8938 627.107 87.3529C627.177 86.8119 627.213 86.1887 627.213 85.4832C627.213 84.7776 627.13 84.2014 626.966 83.7545C626.801 83.3077 626.578 82.9432 626.295 82.6609C626.013 82.3787 625.578 82.1906 624.99 82.0965C624.402 82.0024 623.803 81.9201 623.191 81.8496C622.58 81.779 621.733 81.7672 620.651 81.8143H619.84C617.911 81.8378 616.888 81.8731 616.771 81.9201C616.653 81.9671 616.571 82.0612 616.524 82.2023C616.5 82.2259 616.1 83.7663 615.324 86.8237L614.195 91.3745H616.136C616.206 91.3745 616.477 91.3745 616.947 91.3745C617.417 91.3745 617.747 91.3628 617.935 91.3392C618.123 91.3157 618.382 91.2804 618.711 91.2334C619.04 91.1864 619.322 91.1041 619.557 90.9865C619.793 90.8689 619.993 90.7278 620.157 90.5631C620.463 90.2809 620.722 89.8929 620.933 89.399C621.145 88.9051 621.298 88.4582 621.392 88.0584C621.486 87.6586 621.545 87.4469 621.568 87.4234C621.639 87.3058 621.862 87.247 622.239 87.247H622.662C622.827 87.3646 622.909 87.4822 622.909 87.5998C622.909 87.6704 622.544 89.2108 621.815 92.2212C621.086 95.2315 620.686 96.7838 620.616 96.8778C620.569 97.0425 620.334 97.1248 619.91 97.1248H619.487C619.322 96.9837 619.24 96.8426 619.24 96.7014C619.24 96.6309 619.299 96.3722 619.416 95.9253C619.534 95.4785 619.593 95.0081 619.593 94.5142C619.593 93.8322 619.358 93.4089 618.887 93.2442C618.417 93.0796 617.37 92.9973 615.747 92.9973H613.807L612.678 97.4776C611.926 100.394 611.549 101.923 611.549 102.064C611.549 102.393 612.596 102.558 614.689 102.558H615.571C615.712 102.699 615.783 102.781 615.783 102.804C615.783 102.828 615.759 103.063 615.712 103.51C615.618 103.816 615.501 104.039 615.359 104.18H614.76C613.795 104.133 612.02 104.11 609.433 104.11C607.904 104.11 606.74 104.11 605.94 104.11C605.141 104.11 604.694 104.122 604.6 104.145Z" fill="white"/>
</g>
<g id="Group_43">
<path id="Vector_31" d="M626.114 102.314C626.13 102.214 626.155 102.081 626.189 101.915C626.222 101.748 626.322 101.433 626.488 100.967C626.654 100.501 626.82 100.111 626.987 99.7948C627.153 99.4788 627.427 99.1712 627.81 98.8719C628.192 98.5726 628.575 98.4313 628.957 98.4479C629.556 98.4479 630.054 98.5976 630.453 98.8969C630.853 99.1962 631.102 99.4788 631.202 99.7449C631.301 100.011 631.351 100.186 631.351 100.269C631.351 100.302 631.36 100.319 631.376 100.319L631.651 100.044C632.665 98.98 633.821 98.4479 635.118 98.4479C636.015 98.4479 636.739 98.6724 637.287 99.1213C637.836 99.5703 638.119 100.227 638.135 101.092C638.152 101.956 637.836 103.262 637.188 105.007C636.539 106.753 636.223 107.809 636.24 108.175C636.24 108.607 636.381 108.824 636.664 108.824C636.764 108.824 636.838 108.815 636.888 108.799C637.371 108.715 637.803 108.4 638.185 107.851C638.568 107.302 638.859 106.637 639.058 105.855C639.091 105.722 639.258 105.656 639.557 105.656C639.89 105.656 640.056 105.722 640.056 105.855C640.056 105.872 640.023 105.997 639.956 106.23C639.823 106.712 639.64 107.186 639.407 107.651C639.175 108.117 638.792 108.582 638.26 109.048C637.728 109.514 637.154 109.738 636.539 109.721C635.758 109.721 635.192 109.497 634.843 109.048C634.494 108.599 634.319 108.133 634.319 107.651C634.319 107.335 634.619 106.338 635.217 104.658C635.816 102.979 636.123 101.715 636.14 100.867C636.14 99.8862 635.774 99.3957 635.043 99.3957H634.918C633.488 99.3957 632.283 100.235 631.301 101.915L631.127 102.214L630.304 105.556C629.755 107.734 629.439 108.907 629.356 109.073C629.14 109.522 628.782 109.746 628.284 109.746C628.067 109.746 627.893 109.696 627.76 109.597C627.627 109.497 627.535 109.397 627.485 109.297C627.436 109.198 627.419 109.114 627.436 109.048C627.436 108.832 627.752 107.477 628.383 104.983C629.015 102.488 629.348 101.133 629.381 100.917C629.398 100.834 629.406 100.643 629.406 100.343C629.406 99.695 629.206 99.3708 628.807 99.3708C628.176 99.3708 627.652 100.202 627.236 101.865C627.136 102.197 627.086 102.372 627.086 102.389C627.053 102.488 626.895 102.538 626.613 102.538H626.263C626.164 102.439 626.114 102.364 626.114 102.314Z" fill="white"/>
</g>
</g>
<g id="Group_44">
<path id="Vector_32" d="M654.094 91.939C654.094 91.6332 654.259 91.3981 654.588 91.2334H677.06C677.413 91.4216 677.589 91.6568 677.589 91.939C677.589 92.1977 677.425 92.4211 677.095 92.6093L665.877 92.6445H654.659C654.282 92.5269 654.094 92.2918 654.094 91.939ZM654.094 98.7829C654.094 98.4301 654.282 98.1949 654.659 98.0773H677.095C677.425 98.3125 677.589 98.5477 677.589 98.7829C677.589 99.0886 677.413 99.3238 677.06 99.4884H654.588C654.259 99.3238 654.094 99.0886 654.094 98.7829Z" fill="white"/>
</g>
<g id="Group_45">
<path id="Vector_33" d="M692.681 95.3609C692.681 93.7382 692.799 92.1977 693.034 90.7396C693.269 89.2814 693.539 88.0232 693.845 86.9648C694.151 85.9065 694.586 84.8717 695.15 83.8604C695.715 82.8491 696.162 82.0612 696.491 81.4968C696.82 80.9324 697.314 80.3209 697.973 79.6624C698.631 79.0038 699.019 78.604 699.137 78.4629C699.254 78.3218 699.548 78.0749 700.019 77.7221H700.477H700.618C700.948 77.7221 701.112 77.8279 701.112 78.0396C701.112 78.1101 700.912 78.3571 700.513 78.7804C700.113 79.2038 699.631 79.827 699.066 80.6501C698.502 81.4733 697.926 82.4846 697.338 83.684C696.75 84.8835 696.256 86.5062 695.856 88.5523C695.456 90.5984 695.256 92.868 695.256 95.3609C695.256 97.8539 695.456 100.112 695.856 102.134C696.256 104.157 696.738 105.791 697.302 107.038C697.867 108.284 698.443 109.296 699.031 110.072C699.619 110.848 700.113 111.471 700.513 111.941C700.912 112.412 701.112 112.659 701.112 112.682C701.112 112.894 700.936 113 700.583 113H700.477H700.019L699.031 112.153C696.82 110.154 695.209 107.661 694.198 104.674C693.187 101.687 692.681 98.583 692.681 95.3609Z" fill="white"/>
</g>
<g id="Group_46">
<path id="Vector_34" d="M703.829 94.0556C703.852 93.9145 703.888 93.7264 703.935 93.4912C703.982 93.256 704.123 92.8092 704.358 92.1506C704.593 91.4921 704.828 90.9394 705.063 90.4926C705.299 90.0457 705.687 89.6106 706.228 89.1873C706.769 88.764 707.309 88.5641 707.85 88.5876C708.697 88.5876 709.403 88.7993 709.967 89.2226C710.531 89.6459 710.884 90.0457 711.025 90.422C711.166 90.7983 711.237 91.0453 711.237 91.1629C711.237 91.2099 711.249 91.2334 711.272 91.2334L711.66 90.8454C713.095 89.3402 714.73 88.5876 716.564 88.5876C717.834 88.5876 718.857 88.9051 719.633 89.5401C720.409 90.1751 720.809 91.1041 720.833 92.327C720.856 93.55 720.409 95.3962 719.492 97.8656C718.575 100.335 718.128 101.828 718.151 102.346C718.151 102.957 718.351 103.263 718.751 103.263C718.892 103.263 718.998 103.251 719.069 103.228C719.751 103.11 720.362 102.663 720.903 101.887C721.444 101.111 721.856 100.17 722.138 99.0651C722.185 98.8769 722.42 98.7828 722.843 98.7828C723.314 98.7828 723.549 98.8769 723.549 99.0651C723.549 99.0886 723.502 99.265 723.408 99.5942C723.22 100.276 722.961 100.947 722.632 101.605C722.302 102.264 721.762 102.922 721.009 103.581C720.256 104.239 719.445 104.557 718.575 104.533C717.469 104.533 716.67 104.216 716.176 103.581C715.682 102.946 715.435 102.287 715.435 101.605C715.435 101.158 715.858 99.7471 716.705 97.3717C717.552 94.9964 717.987 93.209 718.01 92.0095C718.01 90.6219 717.493 89.9281 716.458 89.9281H716.282C714.259 89.9281 712.554 91.1158 711.166 93.4912L710.92 93.9145L709.755 98.6417C708.979 101.723 708.532 103.381 708.415 103.616C708.109 104.251 707.603 104.568 706.898 104.568C706.592 104.568 706.345 104.498 706.157 104.357C705.969 104.216 705.84 104.074 705.769 103.933C705.698 103.792 705.675 103.675 705.698 103.581C705.698 103.275 706.145 101.358 707.039 97.8303C707.933 94.3026 708.403 92.3858 708.45 92.0801C708.474 91.9625 708.485 91.692 708.485 91.2687C708.485 90.3515 708.203 89.8929 707.639 89.8929C706.745 89.8929 706.004 91.0688 705.416 93.4206C705.275 93.891 705.205 94.1379 705.205 94.1615C705.158 94.3026 704.934 94.3731 704.534 94.3731H704.04C703.899 94.232 703.829 94.1262 703.829 94.0556Z" fill="white"/>
</g>
<g id="Group_47">
<path id="Vector_35" d="M734.069 95.8195C734.069 95.8195 734.069 95.6667 734.069 95.3609C734.069 95.0552 734.233 94.82 734.563 94.6554H745.111V89.3637L745.146 84.0721C745.381 83.7663 745.605 83.6135 745.816 83.6135C746.122 83.6135 746.357 83.7899 746.522 84.1426V94.6554H757.034C757.387 94.8435 757.564 95.0787 757.564 95.3609C757.564 95.6432 757.387 95.8783 757.034 96.0665H746.522V106.579C746.334 106.908 746.122 107.073 745.887 107.073H745.816H745.746C745.463 107.073 745.252 106.908 745.111 106.579V96.0665H734.563C734.233 95.9019 734.069 95.6667 734.069 95.3609V95.8195Z" fill="white"/>
</g>
<g id="Group_48">
<path id="Vector_36" d="M771.227 89.0462C770.592 89.0462 770.086 88.8346 769.71 88.4112C769.333 87.9879 769.145 87.4705 769.145 86.859C769.145 85.1892 769.769 83.7428 771.015 82.5199C772.261 81.2969 773.814 80.6854 775.672 80.6854C777.812 80.6854 779.599 81.344 781.034 82.661C782.468 83.978 783.198 85.6831 783.221 87.7762C783.221 88.7875 782.986 89.7518 782.516 90.669C782.045 91.5862 781.481 92.3859 780.822 93.0679C780.164 93.7499 779.223 94.6201 778 95.6784C777.153 96.4075 775.977 97.4894 774.472 98.924L772.391 100.9L775.072 100.935C778.764 100.935 780.728 100.876 780.963 100.758C781.128 100.711 781.41 99.6648 781.81 97.6187V97.5129H783.221V97.6187C783.198 97.6893 783.045 98.7594 782.762 100.829C782.48 102.899 782.304 103.98 782.233 104.075V104.18H769.145V103.51V103.087C769.145 102.922 769.216 102.746 769.357 102.558C769.498 102.369 769.851 101.958 770.415 101.323C771.097 100.57 771.685 99.9118 772.179 99.3473C772.391 99.1121 772.791 98.677 773.379 98.042C773.967 97.407 774.366 96.972 774.578 96.7368C774.79 96.5016 775.131 96.1135 775.601 95.5726C776.071 95.0317 776.401 94.6319 776.589 94.3732C776.777 94.1145 777.047 93.7617 777.4 93.3148C777.753 92.868 778 92.4917 778.141 92.186C778.282 91.8802 778.459 91.5392 778.67 91.1629C778.882 90.7866 779.035 90.4103 779.129 90.034C779.223 89.6577 779.305 89.3049 779.376 88.9757C779.446 88.6464 779.482 88.2584 779.482 87.8115C779.482 86.3299 779.082 85.0481 778.282 83.9663C777.483 82.8844 776.342 82.3435 774.86 82.3435C774.084 82.3435 773.402 82.5434 772.814 82.9432C772.226 83.343 771.815 83.7311 771.579 84.1074C771.344 84.4837 771.227 84.7071 771.227 84.7776C771.227 84.8012 771.285 84.8129 771.403 84.8129C771.826 84.8129 772.261 84.9776 772.708 85.3068C773.155 85.6361 773.379 86.177 773.379 86.9296C773.379 87.5175 773.19 88.0114 772.814 88.4112C772.438 88.8111 771.909 89.0227 771.227 89.0462Z" fill="white"/>
</g>
<g id="Group_49">
<g id="Group_50">
<path id="Vector_37" d="M787.137 77.7574L787.278 77.7221C787.396 77.7221 787.513 77.7221 787.631 77.7221H788.054L789.042 78.5688C791.253 80.5678 792.864 83.0608 793.875 86.0476C794.886 89.0345 795.392 92.1389 795.392 95.3609C795.392 96.9602 795.274 98.5006 795.039 99.9823C794.804 101.464 794.533 102.722 794.228 103.757C793.922 104.792 793.487 105.827 792.922 106.861C792.358 107.896 791.911 108.684 791.582 109.225C791.253 109.766 790.77 110.366 790.135 111.024C789.501 111.683 789.124 112.071 789.007 112.188C788.889 112.306 788.619 112.529 788.195 112.859C788.125 112.929 788.078 112.976 788.054 113H787.631C787.443 113 787.313 113 787.243 113C787.172 113 787.113 112.964 787.066 112.894C787.019 112.823 786.984 112.718 786.961 112.576C786.984 112.553 787.113 112.4 787.349 112.118C790.994 108.331 792.817 102.746 792.817 95.3609C792.817 87.9761 790.994 82.3905 787.349 78.604C787.113 78.3218 786.984 78.1689 786.961 78.1454C786.961 77.9573 787.019 77.8279 787.137 77.7574Z" fill="white"/>
</g>
<g id="Group_51">
<path id="Vector_38" d="M801.462 78.9108C801.013 78.9108 800.655 78.7612 800.389 78.4619C800.123 78.1626 799.99 77.7968 799.99 77.3645C799.99 76.1839 800.431 75.1613 801.312 74.2967C802.193 73.432 803.291 72.9997 804.604 72.9997C806.118 72.9997 807.381 73.4653 808.396 74.3964C809.41 75.3276 809.925 76.5331 809.942 78.0129C809.942 78.7279 809.776 79.4096 809.443 80.0581C809.111 80.7066 808.711 81.2719 808.246 81.7541C807.78 82.2363 807.115 82.8515 806.251 83.5998C805.652 84.1152 804.821 84.8801 803.756 85.8944L802.285 87.2911L804.18 87.316C806.791 87.316 808.179 87.2745 808.346 87.1913C808.462 87.1581 808.662 86.4182 808.944 84.9716V84.8967H809.942V84.9716C809.925 85.0214 809.817 85.778 809.618 87.2412C809.418 88.7044 809.293 89.4693 809.244 89.5358V89.6106H799.99V89.1368V88.8375C799.99 88.7211 800.04 88.5964 800.14 88.4633C800.24 88.3303 800.489 88.0393 800.888 87.5904C801.37 87.0583 801.786 86.5927 802.135 86.1937C802.285 86.0274 802.568 85.7198 802.983 85.2709C803.399 84.8219 803.682 84.5143 803.831 84.348C803.981 84.1818 804.222 83.9074 804.555 83.525C804.887 83.1425 805.12 82.8599 805.253 82.677C805.386 82.4941 805.577 82.2446 805.827 81.9287C806.076 81.6128 806.251 81.3468 806.35 81.1306C806.45 80.9144 806.575 80.6733 806.724 80.4073C806.874 80.1413 806.982 79.8752 807.049 79.6092C807.115 79.3431 807.173 79.0937 807.223 78.8609C807.273 78.6282 807.298 78.3538 807.298 78.0379C807.298 76.9903 807.015 76.0841 806.45 75.3193C805.885 74.5544 805.078 74.172 804.031 74.172C803.482 74.172 803 74.3133 802.584 74.596C802.169 74.8786 801.878 75.153 801.711 75.419C801.545 75.6851 801.462 75.843 801.462 75.8929C801.462 75.9096 801.503 75.9179 801.587 75.9179C801.886 75.9179 802.193 76.0343 802.509 76.267C802.825 76.4998 802.983 76.8823 802.983 77.4143C802.983 77.83 802.85 78.1792 802.584 78.4619C802.318 78.7445 801.944 78.8942 801.462 78.9108Z" fill="white"/>
</g>
</g>
<g id="Group_52">
<path id="Vector_39" d="M823.78 95.8196C823.78 95.8196 823.78 95.6667 823.78 95.3609C823.78 95.0552 823.944 94.82 824.274 94.6554H844.77C845.123 94.8435 845.299 95.0787 845.299 95.3609C845.299 95.6432 845.123 95.8784 844.77 96.0665H824.274C823.944 95.9019 823.78 95.6667 823.78 95.3609V95.8196Z" fill="white"/>
</g>
<g id="Group_53">
<path id="Vector_40" d="M872.403 104.18C871.98 104.11 870.463 104.075 867.852 104.075C865.124 104.075 863.548 104.11 863.125 104.18H862.808V102.558H863.901C864.371 102.558 864.689 102.558 864.854 102.558C865.018 102.558 865.218 102.534 865.453 102.487C865.689 102.44 865.853 102.381 865.947 102.311C866.041 102.24 866.124 102.146 866.194 102.028C866.218 101.981 866.229 101.346 866.229 100.123V98.3595H857.093V96.7368L862.419 88.5876C866.018 83.1314 867.84 80.3915 867.887 80.3679C867.935 80.3209 868.181 80.2974 868.628 80.2974H869.263L869.475 80.509V96.7368H872.721V98.3595H869.475V100.159C869.475 101.123 869.475 101.687 869.475 101.852C869.475 102.017 869.546 102.158 869.687 102.275C869.875 102.44 870.545 102.534 871.697 102.558H872.721V104.18H872.403ZM866.441 96.7368V84.954L858.715 96.7015L862.561 96.7368H866.441Z" fill="white"/>
</g>
</g>
<g id="Group 9">
<g id="Group_54">
<path id="Vector_41" d="M601.784 188.681C601.784 188.07 601.996 187.564 602.419 187.165C602.842 186.765 603.348 186.565 603.936 186.565C604.501 186.565 604.983 186.765 605.382 187.165C605.782 187.564 605.994 188.07 606.017 188.681C606.041 189.293 605.841 189.799 605.418 190.198C604.994 190.598 604.489 190.798 603.901 190.798C603.289 190.798 602.784 190.598 602.384 190.198C601.984 189.799 601.784 189.293 601.784 188.681ZM595.117 201.84C595.728 201.84 596.222 202.04 596.598 202.44C596.975 202.84 597.175 203.345 597.198 203.957C597.198 204.521 597.01 205.015 596.634 205.438C596.257 205.862 595.74 206.073 595.081 206.073C594.47 206.073 593.976 205.873 593.6 205.474C593.223 205.074 593.024 204.568 593 203.957C593 203.345 593.2 202.84 593.6 202.44C594 202.04 594.505 201.84 595.117 201.84ZM610.639 203.957C610.639 203.345 610.839 202.84 611.239 202.44C611.638 202.04 612.144 201.84 612.755 201.84C613.32 201.84 613.802 202.04 614.202 202.44C614.602 202.84 614.813 203.345 614.837 203.957C614.837 204.498 614.649 204.98 614.272 205.403C613.896 205.826 613.379 206.05 612.72 206.073C612.109 206.073 611.615 205.873 611.239 205.474C610.862 205.074 610.662 204.568 610.639 203.957Z" fill="white"/>
</g>
<g id="Group_55">
<g id="Group_56">
<path id="Vector_42" d="M636.977 203.145C636.577 203.145 636.377 203.028 636.377 202.793C636.377 202.745 636.413 202.581 636.483 202.299C636.577 201.922 636.671 201.711 636.765 201.664C636.86 201.617 637.13 201.581 637.577 201.558C638.212 201.558 638.917 201.523 639.694 201.452C640.023 201.381 640.246 201.24 640.364 201.029C640.411 200.911 641.246 197.607 642.869 191.116C644.491 184.625 645.314 181.332 645.338 181.238C645.338 181.073 645.291 180.991 645.197 180.991C645.009 180.92 644.385 180.862 643.327 180.815H642.234C642.092 180.673 642.022 180.579 642.022 180.532C642.022 180.485 642.045 180.285 642.092 179.933C642.186 179.533 642.304 179.286 642.445 179.192H661.46C661.624 179.286 661.707 179.415 661.707 179.58C661.707 179.697 661.554 181.014 661.248 183.531C660.942 186.047 660.778 187.341 660.754 187.411C660.707 187.576 660.472 187.658 660.049 187.658H659.625C659.461 187.541 659.378 187.388 659.378 187.2C659.378 187.176 659.414 186.894 659.484 186.353C659.555 185.812 659.59 185.189 659.59 184.483C659.59 183.778 659.508 183.202 659.343 182.755C659.179 182.308 658.955 181.943 658.673 181.661C658.391 181.379 657.956 181.191 657.368 181.097C656.78 181.003 656.18 180.92 655.568 180.85C654.957 180.779 654.11 180.768 653.028 180.815H652.217C650.289 180.838 649.266 180.873 649.148 180.92C649.03 180.967 648.948 181.061 648.901 181.203C648.877 181.226 648.478 182.767 647.702 185.824L646.573 190.375H648.513C648.584 190.375 648.854 190.375 649.324 190.375C649.795 190.375 650.124 190.363 650.312 190.34C650.5 190.316 650.759 190.281 651.088 190.234C651.417 190.187 651.7 190.104 651.935 189.987C652.17 189.869 652.37 189.728 652.535 189.563C652.84 189.281 653.099 188.893 653.311 188.399C653.522 187.905 653.675 187.458 653.769 187.059C653.863 186.659 653.922 186.447 653.946 186.424C654.016 186.306 654.24 186.247 654.616 186.247H655.039C655.204 186.365 655.286 186.482 655.286 186.6C655.286 186.671 654.922 188.211 654.193 191.221C653.464 194.232 653.064 195.784 652.993 195.878C652.946 196.043 652.711 196.125 652.288 196.125H651.864C651.7 195.984 651.617 195.843 651.617 195.702C651.617 195.631 651.676 195.372 651.794 194.926C651.911 194.479 651.97 194.008 651.97 193.514C651.97 192.832 651.735 192.409 651.265 192.244C650.794 192.08 649.748 191.998 648.125 191.998H646.185L645.056 196.478C644.303 199.394 643.927 200.923 643.927 201.064C643.927 201.393 644.973 201.558 647.067 201.558H647.949C648.09 201.699 648.16 201.781 648.16 201.805C648.16 201.828 648.137 202.063 648.09 202.51C647.996 202.816 647.878 203.039 647.737 203.181H647.137C646.173 203.134 644.397 203.11 641.81 203.11C640.282 203.11 639.117 203.11 638.318 203.11C637.518 203.11 637.071 203.122 636.977 203.145Z" fill="white"/>
</g>
<g id="Group_57">
<g id="Group_58">
<path id="Vector_43" d="M662.058 204.556C662.058 204.956 661.925 205.288 661.659 205.554C661.393 205.82 661.068 205.953 660.686 205.953H660.511C661.276 207.267 662.291 207.924 663.554 207.924C664.718 207.924 665.566 207.425 666.098 206.427C666.414 205.878 666.572 204.814 666.572 203.235C666.572 201.522 666.348 200.366 665.899 199.768C665.466 199.219 664.984 198.945 664.452 198.945H664.302C663.006 198.945 662.025 199.51 661.359 200.641C661.293 200.757 661.235 200.824 661.185 200.84C661.135 200.857 661.01 200.873 660.811 200.89C660.528 200.89 660.37 200.84 660.337 200.74C660.304 200.674 660.287 199.219 660.287 196.376V193.158C660.287 192.327 660.328 191.911 660.412 191.911C660.445 191.878 660.478 191.861 660.511 191.861C660.528 191.861 660.703 191.928 661.035 192.061C661.368 192.194 661.825 192.327 662.407 192.46C662.989 192.593 663.612 192.659 664.278 192.659C665.458 192.659 666.589 192.427 667.67 191.961C667.803 191.895 667.911 191.861 667.994 191.861C668.127 191.861 668.193 192.011 668.193 192.31V192.634C666.83 194.247 665.126 195.054 663.08 195.054C662.565 195.054 662.099 195.004 661.684 194.904L661.434 194.854V199.144C661.75 198.911 662 198.728 662.182 198.595C662.365 198.462 662.665 198.329 663.08 198.196C663.496 198.063 663.92 197.997 664.352 197.997C665.699 197.997 666.838 198.537 667.769 199.618C668.7 200.699 669.166 201.979 669.166 203.459C669.166 204.989 668.634 206.294 667.57 207.375C666.506 208.456 665.209 209.004 663.679 209.021C662.332 209.021 661.251 208.572 660.437 207.674C659.622 206.776 659.214 205.762 659.214 204.631C659.214 204.232 659.306 203.916 659.489 203.683C659.672 203.451 659.863 203.301 660.062 203.235C660.262 203.168 660.453 203.135 660.636 203.135C661.052 203.135 661.393 203.276 661.659 203.559C661.925 203.841 662.058 204.174 662.058 204.556Z" fill="white"/>
<path id="Vector_44" d="M672.832 193.882C673.764 192.535 675.036 191.861 676.648 191.861C677.447 191.861 678.245 192.077 679.043 192.51C679.841 192.942 680.489 193.707 680.988 194.804C681.603 196.184 681.911 198.08 681.911 200.491C681.911 203.068 681.554 205.039 680.839 206.402C680.506 207.1 680.049 207.657 679.467 208.073C678.885 208.489 678.378 208.747 677.945 208.846C677.513 208.946 677.089 209.004 676.673 209.021C676.241 209.021 675.809 208.971 675.376 208.871C674.944 208.772 674.437 208.505 673.855 208.073C673.273 207.641 672.816 207.084 672.483 206.402C671.768 205.039 671.411 203.068 671.411 200.491C671.411 197.598 671.885 195.395 672.832 193.882ZM678.444 193.582C677.945 193.05 677.355 192.784 676.673 192.784C675.975 192.784 675.376 193.05 674.878 193.582C674.462 194.015 674.188 194.613 674.055 195.378C673.922 196.143 673.855 197.739 673.855 200.167C673.855 202.794 673.922 204.523 674.055 205.355C674.188 206.186 674.487 206.843 674.952 207.325C675.418 207.824 675.992 208.073 676.673 208.073C677.338 208.073 677.904 207.824 678.369 207.325C678.852 206.826 679.151 206.128 679.267 205.23C679.384 204.332 679.45 202.644 679.467 200.167C679.467 197.756 679.4 196.168 679.267 195.403C679.134 194.638 678.86 194.031 678.444 193.582Z" fill="white"/>
</g>
</g>
</g>
<g id="Group_59">
<path id="Vector_45" d="M696.452 190.939C696.452 190.633 696.616 190.398 696.946 190.234H719.417C719.77 190.422 719.947 190.657 719.947 190.939C719.947 191.198 719.782 191.421 719.453 191.61L708.234 191.645H697.016C696.64 191.527 696.452 191.292 696.452 190.939ZM696.452 197.783C696.452 197.43 696.64 197.195 697.016 197.078H719.453C719.782 197.313 719.947 197.548 719.947 197.783C719.947 198.089 719.77 198.324 719.417 198.489H696.946C696.616 198.324 696.452 198.089 696.452 197.783Z" fill="white"/>
</g>
<g id="Group_60">
<g id="Group_61">
<path id="Vector_46" d="M737.504 197.642C737.504 198.206 737.316 198.677 736.94 199.053C736.564 199.429 736.105 199.618 735.564 199.618H735.317C736.399 201.475 737.834 202.404 739.621 202.404C741.267 202.404 742.467 201.699 743.219 200.288C743.666 199.512 743.89 198.006 743.89 195.772C743.89 193.35 743.572 191.715 742.937 190.869C742.326 190.093 741.644 189.704 740.891 189.704H740.679C738.845 189.704 737.457 190.504 736.517 192.103C736.423 192.268 736.34 192.362 736.27 192.386C736.199 192.409 736.023 192.433 735.74 192.456C735.341 192.456 735.117 192.386 735.07 192.244C735.023 192.15 735 190.093 735 186.071V181.52C735 180.344 735.058 179.756 735.176 179.756C735.223 179.709 735.27 179.686 735.317 179.686C735.341 179.686 735.588 179.78 736.058 179.968C736.528 180.156 737.175 180.344 737.998 180.532C738.821 180.72 739.703 180.815 740.644 180.815C742.314 180.815 743.913 180.485 745.442 179.827C745.63 179.733 745.783 179.686 745.9 179.686C746.089 179.686 746.183 179.897 746.183 180.321V180.779C744.254 183.061 741.844 184.201 738.951 184.201C738.222 184.201 737.563 184.131 736.975 183.99L736.622 183.919V189.987C737.069 189.657 737.422 189.399 737.681 189.211C737.939 189.022 738.363 188.834 738.951 188.646C739.539 188.458 740.138 188.364 740.75 188.364C742.655 188.364 744.266 189.128 745.583 190.657C746.9 192.186 747.558 193.997 747.558 196.09C747.558 198.253 746.806 200.1 745.301 201.628C743.796 203.157 741.961 203.933 739.797 203.957C737.892 203.957 736.364 203.322 735.211 202.052C734.059 200.782 733.483 199.347 733.483 197.748C733.483 197.183 733.612 196.737 733.871 196.407C734.129 196.078 734.4 195.866 734.682 195.772C734.964 195.678 735.235 195.631 735.494 195.631C736.081 195.631 736.564 195.831 736.94 196.231C737.316 196.631 737.504 197.101 737.504 197.642Z" fill="white"/>
<path id="Vector_47" d="M753.203 188.046C752.568 188.046 752.062 187.835 751.686 187.411C751.31 186.988 751.121 186.471 751.121 185.859C751.121 184.189 751.745 182.743 752.991 181.52C754.238 180.297 755.79 179.686 757.648 179.686C759.788 179.686 761.575 180.344 763.01 181.661C764.445 182.978 765.174 184.683 765.197 186.776C765.197 187.788 764.962 188.752 764.492 189.669C764.021 190.586 763.457 191.386 762.798 192.068C762.14 192.75 761.199 193.62 759.976 194.679C759.129 195.408 757.954 196.49 756.448 197.924L754.367 199.9L757.048 199.935C760.741 199.935 762.704 199.876 762.939 199.759C763.104 199.712 763.386 198.665 763.786 196.619V196.513H765.197V196.619C765.174 196.689 765.021 197.76 764.739 199.829C764.456 201.899 764.28 202.981 764.209 203.075V203.181H751.121V202.51V202.087C751.121 201.922 751.192 201.746 751.333 201.558C751.474 201.37 751.827 200.958 752.391 200.323C753.073 199.57 753.661 198.912 754.155 198.348C754.367 198.112 754.767 197.677 755.355 197.042C755.943 196.407 756.343 195.972 756.554 195.737C756.766 195.502 757.107 195.114 757.577 194.573C758.048 194.032 758.377 193.632 758.565 193.373C758.753 193.115 759.024 192.762 759.376 192.315C759.729 191.868 759.976 191.492 760.117 191.186C760.258 190.88 760.435 190.539 760.646 190.163C760.858 189.787 761.011 189.41 761.105 189.034C761.199 188.658 761.281 188.305 761.352 187.976C761.423 187.647 761.458 187.259 761.458 186.812C761.458 185.33 761.058 184.048 760.258 182.966C759.459 181.885 758.318 181.344 756.836 181.344C756.06 181.344 755.378 181.544 754.79 181.943C754.202 182.343 753.791 182.731 753.556 183.108C753.32 183.484 753.203 183.707 753.203 183.778C753.203 183.801 753.262 183.813 753.379 183.813C753.803 183.813 754.238 183.978 754.685 184.307C755.131 184.636 755.355 185.177 755.355 185.93C755.355 186.518 755.167 187.012 754.79 187.411C754.414 187.811 753.885 188.023 753.203 188.046Z" fill="white"/>
</g>
<g id="Group_62">
<path id="Vector_48" d="M769.715 177.911C769.266 177.911 768.909 177.761 768.643 177.462C768.377 177.163 768.243 176.797 768.243 176.365C768.243 175.184 768.684 174.162 769.565 173.297C770.447 172.432 771.544 172 772.858 172C774.371 172 775.634 172.466 776.649 173.397C777.663 174.328 778.178 175.533 778.195 177.013C778.195 177.728 778.029 178.41 777.696 179.058C777.364 179.707 776.965 180.272 776.499 180.754C776.034 181.237 775.368 181.852 774.504 182.6C773.905 183.115 773.074 183.88 772.01 184.895L770.538 186.291L772.434 186.316C775.044 186.316 776.433 186.275 776.599 186.192C776.715 186.158 776.915 185.418 777.197 183.972V183.897H778.195V183.972C778.178 184.022 778.07 184.778 777.871 186.241C777.671 187.705 777.547 188.47 777.497 188.536V188.611H768.243V188.137V187.838C768.243 187.721 768.293 187.597 768.393 187.464C768.493 187.331 768.742 187.04 769.141 186.591C769.624 186.059 770.039 185.593 770.388 185.194C770.538 185.028 770.821 184.72 771.236 184.271C771.652 183.822 771.935 183.515 772.084 183.348C772.234 183.182 772.475 182.908 772.808 182.525C773.14 182.143 773.373 181.86 773.506 181.677C773.639 181.494 773.83 181.245 774.08 180.929C774.329 180.613 774.504 180.347 774.604 180.131C774.703 179.915 774.828 179.674 774.978 179.408C775.127 179.141 775.235 178.875 775.302 178.609C775.368 178.343 775.427 178.094 775.476 177.861C775.526 177.628 775.551 177.354 775.551 177.038C775.551 175.991 775.269 175.084 774.703 174.32C774.138 173.555 773.332 173.172 772.284 173.172C771.735 173.172 771.253 173.314 770.837 173.596C770.422 173.879 770.131 174.153 769.964 174.419C769.798 174.685 769.715 174.843 769.715 174.893C769.715 174.91 769.757 174.918 769.84 174.918C770.139 174.918 770.447 175.034 770.763 175.267C771.078 175.5 771.236 175.882 771.236 176.415C771.236 176.83 771.103 177.179 770.837 177.462C770.571 177.745 770.197 177.894 769.715 177.911Z" fill="white"/>
</g>
</g>
<g id="Group_63">
<path id="Vector_49" d="M792.037 194.82C792.037 194.82 792.037 194.667 792.037 194.361C792.037 194.055 792.201 193.82 792.53 193.656H813.027C813.38 193.844 813.556 194.079 813.556 194.361C813.556 194.643 813.38 194.879 813.027 195.067H792.53C792.201 194.902 792.037 194.667 792.037 194.361V194.82Z" fill="white"/>
</g>
<g id="Group_64">
<path id="Vector_50" d="M840.656 203.181C840.233 203.11 838.716 203.075 836.105 203.075C833.377 203.075 831.802 203.11 831.378 203.181H831.061V201.558H832.154C832.625 201.558 832.942 201.558 833.107 201.558C833.271 201.558 833.471 201.534 833.707 201.487C833.942 201.44 834.106 201.381 834.2 201.311C834.294 201.24 834.377 201.146 834.447 201.029C834.471 200.982 834.483 200.347 834.483 199.124V197.36H825.346V195.737L830.673 187.588C834.271 182.132 836.094 179.392 836.141 179.368C836.188 179.321 836.435 179.298 836.882 179.298H837.517L837.728 179.509V195.737H840.974V197.36H837.728V199.159C837.728 200.123 837.728 200.688 837.728 200.852C837.728 201.017 837.799 201.158 837.94 201.276C838.128 201.44 838.798 201.534 839.951 201.558H840.974V203.181H840.656ZM834.694 195.737V183.954L826.969 195.702L830.814 195.737H834.694Z" fill="white"/>
</g>
<g id="Group 10">
<g id="Group_65">
<path id="Vector_51" d="M696 260.606C696 260.301 696.165 260.065 696.494 259.901H718.966C719.319 260.089 719.495 260.324 719.495 260.606C719.495 260.865 719.33 261.089 719.001 261.277L707.783 261.312H696.564C696.188 261.194 696 260.959 696 260.606ZM696 267.45C696 267.097 696.188 266.862 696.564 266.745H719.001C719.33 266.98 719.495 267.215 719.495 267.45C719.495 267.756 719.319 267.991 718.966 268.156H696.494C696.165 267.991 696 267.756 696 267.45Z" fill="white"/>
</g>
<g id="Group_66">
<path id="Vector_52" d="M735.116 257.714C734.481 257.714 733.975 257.502 733.599 257.079C733.223 256.655 733.034 256.138 733.034 255.526C733.034 253.857 733.658 252.41 734.904 251.187C736.151 249.964 737.703 249.353 739.561 249.353C741.701 249.353 743.488 250.011 744.923 251.328C746.358 252.645 747.087 254.35 747.11 256.444C747.11 257.455 746.875 258.419 746.405 259.336C745.934 260.254 745.37 261.053 744.711 261.735C744.053 262.417 743.112 263.287 741.889 264.346C741.042 265.075 739.867 266.157 738.361 267.591L736.28 269.567L738.961 269.602C742.653 269.602 744.617 269.543 744.852 269.426C745.017 269.379 745.299 268.332 745.699 266.286V266.18H747.11V266.286C747.087 266.357 746.934 267.427 746.652 269.496C746.369 271.566 746.193 272.648 746.122 272.742V272.848H733.034V272.177V271.754C733.034 271.589 733.105 271.413 733.246 271.225C733.387 271.037 733.74 270.625 734.304 269.99C734.986 269.238 735.574 268.579 736.068 268.015C736.28 267.779 736.68 267.344 737.268 266.709C737.856 266.074 738.256 265.639 738.467 265.404C738.679 265.169 739.02 264.781 739.49 264.24C739.961 263.699 740.29 263.299 740.478 263.04C740.666 262.782 740.937 262.429 741.289 261.982C741.642 261.535 741.889 261.159 742.03 260.853C742.171 260.548 742.348 260.207 742.559 259.83C742.771 259.454 742.924 259.078 743.018 258.701C743.112 258.325 743.194 257.972 743.265 257.643C743.336 257.314 743.371 256.926 743.371 256.479C743.371 254.997 742.971 253.715 742.171 252.634C741.372 251.552 740.231 251.011 738.749 251.011C737.973 251.011 737.291 251.211 736.703 251.611C736.115 252.01 735.704 252.398 735.469 252.775C735.233 253.151 735.116 253.374 735.116 253.445C735.116 253.468 735.175 253.48 735.292 253.48C735.716 253.48 736.151 253.645 736.597 253.974C737.044 254.303 737.268 254.844 737.268 255.597C737.268 256.185 737.08 256.679 736.703 257.079C736.327 257.478 735.798 257.69 735.116 257.714Z" fill="white"/>
<path id="Vector_53" d="M750.85 256.691C750.873 256.643 751.073 255.362 751.449 252.845L752.014 249.071C752.014 249.024 752.249 249 752.719 249H753.425V249.141C753.425 249.376 753.601 249.576 753.954 249.741C754.307 249.905 754.918 250.011 755.789 250.058C756.659 250.105 758.646 250.129 761.75 250.129H766.019V251.505L763.62 254.786C763.409 255.068 763.056 255.538 762.562 256.197C762.068 256.855 761.75 257.29 761.609 257.502C761.468 257.714 761.221 258.09 760.869 258.631C760.516 259.172 760.281 259.595 760.163 259.901C760.045 260.207 759.881 260.642 759.669 261.206C759.457 261.771 759.305 262.311 759.21 262.829C759.116 263.346 759.022 263.981 758.928 264.734C758.834 265.486 758.764 266.286 758.717 267.133C758.67 267.979 758.634 268.944 758.611 270.025C758.611 270.355 758.611 270.684 758.611 271.013C758.611 271.343 758.599 271.625 758.575 271.86V272.177C758.481 272.577 758.258 272.918 757.905 273.2C757.552 273.483 757.153 273.624 756.706 273.624C756.447 273.624 756.2 273.589 755.965 273.518C755.73 273.447 755.483 273.224 755.224 272.848C754.965 272.471 754.836 272.001 754.836 271.437C754.836 267.721 755.977 263.864 758.258 259.866C758.728 259.113 759.716 257.69 761.221 255.597L762.844 253.374H759.563C755.471 253.374 753.319 253.445 753.107 253.586C752.966 253.657 752.837 253.939 752.719 254.433C752.602 254.927 752.484 255.432 752.367 255.95L752.261 256.691V256.796H750.85V256.691Z" fill="white"/>
<path id="Vector_54" d="M769.935 252.21C771.252 250.305 773.051 249.353 775.332 249.353C776.461 249.353 777.59 249.659 778.719 250.27C779.848 250.881 780.765 251.963 781.471 253.516C782.341 255.468 782.776 258.149 782.776 261.559C782.776 265.204 782.27 267.991 781.259 269.92C780.789 270.907 780.142 271.695 779.319 272.283C778.496 272.871 777.778 273.236 777.167 273.377C776.555 273.518 775.956 273.6 775.368 273.624C774.756 273.624 774.145 273.553 773.533 273.412C772.922 273.271 772.204 272.895 771.381 272.283C770.558 271.672 769.911 270.884 769.441 269.92C768.43 267.991 767.924 265.204 767.924 261.559C767.924 257.467 768.594 254.35 769.935 252.21ZM777.872 251.787C777.167 251.034 776.332 250.658 775.368 250.658C774.38 250.658 773.533 251.034 772.828 251.787C772.24 252.398 771.852 253.245 771.664 254.327C771.475 255.409 771.381 257.667 771.381 261.1C771.381 264.816 771.475 267.262 771.664 268.438C771.852 269.614 772.275 270.543 772.933 271.225C773.592 271.93 774.403 272.283 775.368 272.283C776.308 272.283 777.108 271.93 777.767 271.225C778.449 270.519 778.872 269.532 779.037 268.262C779.201 266.992 779.295 264.604 779.319 261.1C779.319 257.69 779.225 255.444 779.037 254.362C778.848 253.28 778.46 252.422 777.872 251.787Z" fill="white"/>
<path id="Vector_55" d="M787.574 252.21C788.891 250.305 790.69 249.353 792.971 249.353C794.1 249.353 795.229 249.659 796.358 250.27C797.487 250.881 798.404 251.963 799.11 253.516C799.98 255.468 800.415 258.149 800.415 261.559C800.415 265.204 799.909 267.991 798.898 269.92C798.427 270.907 797.781 271.695 796.958 272.283C796.134 272.871 795.417 273.236 794.806 273.377C794.194 273.518 793.594 273.6 793.006 273.624C792.395 273.624 791.784 273.553 791.172 273.412C790.561 273.271 789.843 272.895 789.02 272.283C788.197 271.672 787.55 270.884 787.08 269.92C786.069 267.991 785.563 265.204 785.563 261.559C785.563 257.467 786.233 254.35 787.574 252.21ZM795.511 251.787C794.806 251.034 793.971 250.658 793.006 250.658C792.019 250.658 791.172 251.034 790.466 251.787C789.879 252.398 789.49 253.245 789.302 254.327C789.114 255.409 789.02 257.667 789.02 261.1C789.02 264.816 789.114 267.262 789.302 268.438C789.49 269.614 789.914 270.543 790.572 271.225C791.231 271.93 792.042 272.283 793.006 272.283C793.947 272.283 794.747 271.93 795.405 271.225C796.087 270.519 796.511 269.532 796.675 268.262C796.84 266.992 796.934 264.604 796.958 261.1C796.958 257.69 796.864 255.444 796.675 254.362C796.487 253.28 796.099 252.422 795.511 251.787Z" fill="white"/>
</g>
</g>
</g>
</g>
</g>
</g>
</svg>
