<svg viewBox="0 0 975 557" fill="none" xmlns="http://www.w3.org/2000/svg">
<g id="0123102">
<g id="enunciado">
<path id="Rectangle 1" d="M23 44.3947C23 21.1217 46.3431 2.25522 75.1382 2.25522H974V293.861C974 317.134 950.657 336 921.862 336H23V44.3947Z" fill="#02071A"/>
<path id="Rectangle 1 (Stroke)" fill-rule="evenodd" clip-rule="evenodd" d="M968.786 6.43445H75.1382C49.2226 6.43445 28.2138 23.4161 28.2138 44.3639V331.785H921.862C947.777 331.785 968.786 314.804 968.786 293.856V6.43445ZM75.1382 2.22006C46.3431 2.22006 23 21.0885 23 44.3639V336H921.862C950.657 336 974 317.131 974 293.856V2.22006H75.1382Z" fill="#CD08D1"/>
<path id="Rectangle 14" d="M79.4656 2.33085C107.352 -2.91356 974 2.33085 974 2.33085V25.035C974 25.035 64.7105 16.69 32.3849 25.035C42.4431 12.993 51.5796 7.57526 79.4656 2.33085Z" fill="#CD08D1"/>
<path id="Rectangle 15" d="M941 7.21616H972V294.729C968.195 314.24 960.308 321.411 941 330.771C946.683 315.443 941 7.21616 941 7.21616Z" fill="#CD08D1"/>
<g id="Calcule el valor de &#226;&#128;&#156;R&#226;&#128;&#157;">
<path d="M69.4297 55.821C69.0605 58.9792 67.8916 61.4196 65.9229 63.1422C63.9678 64.8512 61.3633 65.7057 58.1094 65.7057C54.582 65.7057 51.752 64.4411 49.6191 61.9118C47.5 59.3825 46.4404 55.9987 46.4404 51.7604V48.8893C46.4404 46.1139 46.9326 43.6735 47.917 41.568C48.915 39.4626 50.3232 37.8493 52.1416 36.7282C53.96 35.5934 56.0654 35.026 58.458 35.026C61.6299 35.026 64.1729 35.9147 66.0869 37.692C68.001 39.4557 69.1152 41.903 69.4297 45.0338H65.4717C65.1299 42.6549 64.3848 40.9323 63.2363 39.8659C62.1016 38.7995 60.5088 38.2663 58.458 38.2663C55.9424 38.2663 53.9668 39.196 52.5312 41.0553C51.1094 42.9147 50.3984 45.5602 50.3984 48.9919V51.8835C50.3984 55.1237 51.0752 57.7008 52.4287 59.6149C53.7822 61.529 55.6758 62.486 58.1094 62.486C60.2969 62.486 61.9717 61.9938 63.1338 61.0094C64.3096 60.0114 65.0889 58.2819 65.4717 55.821H69.4297Z" fill="white"/>
<path d="M87.9277 65.2956C87.709 64.8581 87.5312 64.0788 87.3945 62.9577C85.6309 64.7897 83.5254 65.7057 81.0781 65.7057C78.8906 65.7057 77.0928 65.0905 75.6846 63.86C74.29 62.6159 73.5928 61.0436 73.5928 59.1432C73.5928 56.8327 74.4678 55.0417 76.2178 53.7702C77.9814 52.485 80.4561 51.8424 83.6416 51.8424H87.333V50.0993C87.333 48.7731 86.9365 47.7204 86.1436 46.9411C85.3506 46.1481 84.1816 45.7516 82.6367 45.7516C81.2832 45.7516 80.1484 46.0934 79.2324 46.777C78.3164 47.4606 77.8584 48.2878 77.8584 49.2585H74.0439C74.0439 48.151 74.4336 47.0846 75.2129 46.0592C76.0059 45.0202 77.0723 44.1999 78.4121 43.5983C79.7656 42.9967 81.249 42.696 82.8623 42.696C85.4189 42.696 87.4219 43.3385 88.8711 44.6237C90.3203 45.8952 91.0723 47.652 91.127 49.8942V60.1071C91.127 62.1442 91.3867 63.7643 91.9062 64.9674V65.2956H87.9277ZM81.6318 62.404C82.8213 62.404 83.9492 62.0963 85.0156 61.4811C86.082 60.8659 86.8545 60.0661 87.333 59.0817V54.529H84.3594C79.7109 54.529 77.3867 55.8893 77.3867 58.61C77.3867 59.7995 77.7832 60.7292 78.5762 61.3991C79.3691 62.069 80.3877 62.404 81.6318 62.404Z" fill="white"/>
<path d="M101.196 65.2956H97.4023V33.7956H101.196V65.2956Z" fill="white"/>
<path d="M116.188 62.609C117.541 62.609 118.724 62.1989 119.735 61.3786C120.747 60.5583 121.308 59.5329 121.417 58.3024H125.006C124.938 59.5739 124.5 60.7838 123.693 61.9323C122.887 63.0807 121.807 63.9967 120.453 64.6803C119.113 65.3639 117.691 65.7057 116.188 65.7057C113.166 65.7057 110.76 64.7008 108.969 62.6911C107.191 60.6676 106.303 57.9059 106.303 54.4059V53.7702C106.303 51.61 106.699 49.6891 107.492 48.0075C108.285 46.3258 109.42 45.0202 110.896 44.0905C112.387 43.1608 114.144 42.696 116.167 42.696C118.655 42.696 120.72 43.4411 122.36 44.9313C124.015 46.4215 124.896 48.3561 125.006 50.735H121.417C121.308 49.2995 120.761 48.1237 119.776 47.2077C118.806 46.278 117.603 45.8131 116.167 45.8131C114.239 45.8131 112.742 46.5104 111.676 47.9049C110.623 49.2858 110.097 51.2887 110.097 53.9137V54.6315C110.097 57.1881 110.623 59.1569 111.676 60.5378C112.729 61.9186 114.232 62.609 116.188 62.609Z" fill="white"/>
<path d="M142.971 63.1012C141.494 64.8376 139.327 65.7057 136.47 65.7057C134.104 65.7057 132.3 65.0221 131.056 63.6549C129.825 62.2741 129.203 60.237 129.189 57.5436V43.1061H132.983V57.4411C132.983 60.8044 134.351 62.486 137.085 62.486C139.983 62.486 141.911 61.4059 142.868 59.2458V43.1061H146.662V65.2956H143.053L142.971 63.1012Z" fill="white"/>
<path d="M156.567 65.2956H152.773V33.7956H156.567V65.2956Z" fill="white"/>
<path d="M171.866 65.7057C168.858 65.7057 166.411 64.7213 164.524 62.7526C162.638 60.7702 161.694 58.1247 161.694 54.8161V54.1188C161.694 51.9176 162.111 49.9557 162.945 48.2331C163.793 46.4967 164.969 45.1432 166.473 44.1725C167.99 43.1881 169.631 42.696 171.395 42.696C174.279 42.696 176.521 43.6461 178.121 45.5465C179.721 47.4469 180.521 50.1676 180.521 53.7086V55.2878H165.488C165.543 57.4753 166.179 59.2458 167.396 60.5993C168.626 61.9391 170.185 62.609 172.071 62.609C173.411 62.609 174.546 62.3356 175.476 61.7887C176.405 61.2419 177.219 60.5172 177.916 59.6149L180.233 61.4196C178.374 64.277 175.585 65.7057 171.866 65.7057ZM171.395 45.8131C169.863 45.8131 168.578 46.3737 167.539 47.4948C166.5 48.6022 165.857 50.1608 165.611 52.1706H176.727V51.8835C176.617 49.9557 176.098 48.4655 175.168 47.4128C174.238 46.3463 172.98 45.8131 171.395 45.8131Z" fill="white"/>
<path d="M204.556 65.7057C201.548 65.7057 199.101 64.7213 197.214 62.7526C195.327 60.7702 194.384 58.1247 194.384 54.8161V54.1188C194.384 51.9176 194.801 49.9557 195.635 48.2331C196.482 46.4967 197.658 45.1432 199.162 44.1725C200.68 43.1881 202.32 42.696 204.084 42.696C206.969 42.696 209.211 43.6461 210.811 45.5465C212.41 47.4469 213.21 50.1676 213.21 53.7086V55.2878H198.178C198.232 57.4753 198.868 59.2458 200.085 60.5993C201.315 61.9391 202.874 62.609 204.761 62.609C206.101 62.609 207.235 62.3356 208.165 61.7887C209.095 61.2419 209.908 60.5172 210.605 59.6149L212.923 61.4196C211.063 64.277 208.274 65.7057 204.556 65.7057ZM204.084 45.8131C202.553 45.8131 201.268 46.3737 200.229 47.4948C199.189 48.6022 198.547 50.1608 198.301 52.1706H209.416V51.8835C209.307 49.9557 208.787 48.4655 207.857 47.4128C206.928 46.3463 205.67 45.8131 204.084 45.8131Z" fill="white"/>
<path d="M221.741 65.2956H217.947V33.7956H221.741V65.2956Z" fill="white"/>
<path d="M245.571 60.1481L251.067 43.1061H254.943L246.986 65.2956H244.095L236.056 43.1061H239.932L245.571 60.1481Z" fill="white"/>
<path d="M271.965 65.2956C271.746 64.8581 271.568 64.0788 271.432 62.9577C269.668 64.7897 267.562 65.7057 265.115 65.7057C262.928 65.7057 261.13 65.0905 259.722 63.86C258.327 62.6159 257.63 61.0436 257.63 59.1432C257.63 56.8327 258.505 55.0417 260.255 53.7702C262.019 52.485 264.493 51.8424 267.679 51.8424H271.37V50.0993C271.37 48.7731 270.974 47.7204 270.181 46.9411C269.388 46.1481 268.219 45.7516 266.674 45.7516C265.32 45.7516 264.186 46.0934 263.27 46.777C262.354 47.4606 261.896 48.2878 261.896 49.2585H258.081C258.081 48.151 258.471 47.0846 259.25 46.0592C260.043 45.0202 261.109 44.1999 262.449 43.5983C263.803 42.9967 265.286 42.696 266.899 42.696C269.456 42.696 271.459 43.3385 272.908 44.6237C274.357 45.8952 275.109 47.652 275.164 49.8942V60.1071C275.164 62.1442 275.424 63.7643 275.943 64.9674V65.2956H271.965ZM265.669 62.404C266.858 62.404 267.986 62.0963 269.053 61.4811C270.119 60.8659 270.892 60.0661 271.37 59.0817V54.529H268.396C263.748 54.529 261.424 55.8893 261.424 58.61C261.424 59.7995 261.82 60.7292 262.613 61.3991C263.406 62.069 264.425 62.404 265.669 62.404Z" fill="white"/>
<path d="M285.233 65.2956H281.439V33.7956H285.233V65.2956Z" fill="white"/>
<path d="M290.319 53.9958C290.319 51.8219 290.743 49.8669 291.591 48.1305C292.452 46.3942 293.642 45.0544 295.159 44.111C296.69 43.1676 298.434 42.696 300.389 42.696C303.41 42.696 305.851 43.7419 307.71 45.8336C309.583 47.9254 310.52 50.7077 310.52 54.1803V54.4469C310.52 56.6071 310.103 58.5485 309.269 60.2711C308.448 61.9801 307.266 63.3131 305.721 64.2702C304.189 65.2272 302.426 65.7057 300.43 65.7057C297.422 65.7057 294.981 64.6598 293.108 62.568C291.249 60.4762 290.319 57.7077 290.319 54.2624V53.9958ZM294.134 54.4469C294.134 56.9079 294.701 58.8835 295.836 60.3737C296.984 61.8639 298.516 62.609 300.43 62.609C302.357 62.609 303.889 61.8571 305.023 60.3532C306.158 58.8356 306.726 56.7165 306.726 53.9958C306.726 51.5622 306.145 49.5934 304.982 48.0895C303.834 46.5719 302.303 45.8131 300.389 45.8131C298.516 45.8131 297.005 46.5583 295.856 48.0485C294.708 49.5387 294.134 51.6715 294.134 54.4469Z" fill="white"/>
<path d="M326.003 46.5104C325.429 46.4147 324.807 46.3669 324.137 46.3669C321.648 46.3669 319.96 47.4264 319.071 49.5456V65.2956H315.277V43.1061H318.969L319.03 45.6696C320.274 43.6872 322.038 42.696 324.321 42.696C325.06 42.696 325.62 42.7917 326.003 42.9831V46.5104Z" fill="white"/>
<path d="M339.005 54.0163C339.005 50.612 339.812 47.8776 341.425 45.8131C343.038 43.735 345.15 42.696 347.762 42.696C350.359 42.696 352.417 43.5846 353.935 45.362V33.7956H357.729V65.2956H354.242L354.058 62.9167C352.54 64.776 350.428 65.7057 347.721 65.7057C345.15 65.7057 343.052 64.653 341.425 62.5475C339.812 60.442 339.005 57.694 339.005 54.3034V54.0163ZM342.799 54.4469C342.799 56.9626 343.318 58.9313 344.357 60.3532C345.396 61.7751 346.832 62.486 348.664 62.486C351.07 62.486 352.827 61.4059 353.935 59.2458V49.0534C352.8 46.9616 351.057 45.9157 348.705 45.9157C346.846 45.9157 345.396 46.6335 344.357 48.069C343.318 49.5045 342.799 51.6305 342.799 54.4469Z" fill="white"/>
<path d="M372.843 65.7057C369.835 65.7057 367.388 64.7213 365.501 62.7526C363.614 60.7702 362.671 58.1247 362.671 54.8161V54.1188C362.671 51.9176 363.088 49.9557 363.922 48.2331C364.77 46.4967 365.945 45.1432 367.449 44.1725C368.967 43.1881 370.607 42.696 372.371 42.696C375.256 42.696 377.498 43.6461 379.098 45.5465C380.697 47.4469 381.497 50.1676 381.497 53.7086V55.2878H366.465C366.52 57.4753 367.155 59.2458 368.372 60.5993C369.603 61.9391 371.161 62.609 373.048 62.609C374.388 62.609 375.522 62.3356 376.452 61.7887C377.382 61.2419 378.195 60.5172 378.893 59.6149L381.21 61.4196C379.351 64.277 376.562 65.7057 372.843 65.7057ZM372.371 45.8131C370.84 45.8131 369.555 46.3737 368.516 47.4948C367.477 48.6022 366.834 50.1608 366.588 52.1706H377.703V51.8835C377.594 49.9557 377.074 48.4655 376.145 47.4128C375.215 46.3463 373.957 45.8131 372.371 45.8131Z" fill="white"/>
<path d="M399.154 33.4059L401.328 34.8825C400.057 36.6188 399.4 38.4919 399.359 40.5016V43.2907H395.586V40.9118C395.586 39.5172 395.914 38.1364 396.57 36.7692C397.24 35.402 398.102 34.2809 399.154 33.4059ZM405.614 33.4059L407.788 34.8825C406.517 36.6188 405.86 38.4919 405.819 40.5016V43.2907H402.046V40.9118C402.046 39.5172 402.374 38.1364 403.03 36.7692C403.7 35.402 404.562 34.2809 405.614 33.4059Z" fill="white"/>
<path d="M422.718 53.2165H415.704V65.2956H411.746V35.4362H421.631C424.994 35.4362 427.578 36.2018 429.383 37.7331C431.201 39.2643 432.11 41.4928 432.11 44.4186C432.11 46.278 431.604 47.8981 430.593 49.279C429.595 50.6598 428.2 51.692 426.409 52.3756L433.423 65.0495V65.2956H429.198L422.718 53.2165ZM415.704 49.9967H421.754C423.709 49.9967 425.261 49.4909 426.409 48.4792C427.571 47.4674 428.152 46.1139 428.152 44.4186C428.152 42.5729 427.599 41.1579 426.491 40.1735C425.397 39.1891 423.812 38.6901 421.733 38.6764H415.704V49.9967Z" fill="white"/>
<path d="M437.565 43.8444L435.412 42.3678C436.684 40.5905 437.34 38.7174 437.381 36.7487V33.7956H441.134V36.4616C441.12 37.8288 440.778 39.196 440.108 40.5631C439.452 41.9167 438.604 43.0104 437.565 43.8444ZM443.861 43.8444L441.708 42.3678C442.979 40.5905 443.636 38.7174 443.677 36.7487V33.7956H447.43V36.4616C447.416 37.8288 447.074 39.196 446.404 40.5631C445.748 41.9167 444.9 43.0104 443.861 43.8444Z" fill="white"/>
</g>
<g id="R= \sqrt{\frac{n+\overbrace{1 \times3+3 \times5+5 \times7+\cdots}^{&#34;n&#34;\:sumandos }}{1^2+2^2+3^2+\cdots+n^2}}">
<g id="Group">
<g id="Group_2">
<path id="Vector" d="M159.521 192.243C158.834 192.243 158.426 192.23 158.299 192.204C158.172 192.179 158.108 192.039 158.108 191.784C158.108 191.097 158.248 190.677 158.528 190.525C158.579 190.499 160.793 190.486 165.171 190.486C169.549 190.512 171.915 190.55 172.272 190.601C173.697 190.805 174.893 191.161 175.86 191.67C176.828 192.179 177.515 192.764 177.922 193.426C178.329 194.088 178.596 194.635 178.724 195.068C178.851 195.5 178.927 195.933 178.953 196.366C178.953 197.511 178.584 198.58 177.846 199.572C177.108 200.565 176.255 201.329 175.288 201.863C174.321 202.398 173.468 202.83 172.73 203.161C171.992 203.492 171.508 203.657 171.279 203.657L171.546 203.848C173.252 204.815 174.104 206.215 174.104 208.048C174.104 208.328 174.041 209.104 173.913 210.376C173.786 211.649 173.723 212.693 173.723 213.507V213.851C173.723 214.309 173.735 214.665 173.761 214.919C173.786 215.174 173.926 215.403 174.181 215.607C174.435 215.81 174.766 215.925 175.173 215.95C175.886 215.95 176.471 215.67 176.929 215.11C177.387 214.55 177.718 213.952 177.922 213.316C178.049 212.96 178.151 212.743 178.227 212.667C178.304 212.591 178.495 212.553 178.8 212.553C179.309 212.553 179.564 212.705 179.564 213.011C179.564 213.469 179.258 214.194 178.647 215.187C177.68 216.637 176.535 217.363 175.211 217.363H174.868C173.315 217.363 172.03 217.045 171.012 216.408C169.994 215.772 169.434 214.78 169.332 213.431C169.332 212.743 169.523 211.674 169.905 210.224C170.287 208.773 170.478 207.844 170.478 207.437C170.478 206.139 169.93 205.197 168.836 204.612C168.454 204.434 168.136 204.332 167.881 204.306C167.627 204.281 166.723 204.255 165.171 204.23H162.537L161.315 209.193C160.475 212.553 160.055 214.258 160.055 214.309C160.055 214.41 160.068 214.474 160.093 214.5C160.119 214.525 160.208 214.576 160.361 214.652C160.513 214.729 160.73 214.754 161.01 214.729C161.29 214.703 161.71 214.729 162.27 214.805H163.453C163.606 215.009 163.682 215.123 163.682 215.149C163.682 215.174 163.644 215.403 163.568 215.836C163.466 216.167 163.338 216.408 163.186 216.561H162.613C161.697 216.51 160.03 216.485 157.612 216.485C156.747 216.485 155.945 216.485 155.207 216.485C154.469 216.485 153.883 216.485 153.451 216.485C153.018 216.485 152.751 216.497 152.649 216.523C152.216 216.523 152 216.408 152 216.179C152 216.128 152.038 215.95 152.115 215.645C152.242 215.161 152.369 214.894 152.496 214.843C152.598 214.818 152.789 214.805 153.069 214.805H153.298C153.985 214.805 154.749 214.767 155.589 214.69C155.945 214.614 156.187 214.461 156.314 214.232C156.39 214.131 157.307 210.593 159.063 203.619C160.819 196.646 161.697 192.968 161.697 192.586C161.697 192.408 160.972 192.293 159.521 192.243ZM174.791 195.411C174.791 194.597 174.524 193.91 173.99 193.35C173.455 192.79 172.361 192.433 170.707 192.281C170.656 192.281 170.363 192.281 169.829 192.281C169.294 192.281 168.81 192.268 168.378 192.243H167.538C166.342 192.243 165.655 192.37 165.476 192.624C165.451 192.701 165.018 194.393 164.178 197.702C163.338 201.01 162.919 202.703 162.919 202.779C162.919 202.805 163.797 202.817 165.553 202.817C167.538 202.792 168.861 202.703 169.523 202.55C171.152 202.296 172.425 201.545 173.341 200.298C173.748 199.712 174.092 198.949 174.372 198.007C174.651 197.066 174.791 196.2 174.791 195.411Z" fill="white"/>
</g>
<g id="Group_3">
<path id="Vector_2" d="M192.46 203.314C192.46 202.983 192.638 202.728 192.994 202.55H217.313C217.694 202.754 217.885 203.008 217.885 203.314C217.885 203.594 217.707 203.836 217.351 204.039L205.211 204.077H193.07C192.663 203.95 192.46 203.696 192.46 203.314ZM192.46 210.72C192.46 210.338 192.663 210.084 193.07 209.957H217.351C217.707 210.211 217.885 210.466 217.885 210.72C217.885 211.051 217.694 211.305 217.313 211.484H192.994C192.638 211.305 192.46 211.051 192.46 210.72Z" fill="white"/>
</g>
<g id="Group_4">
<g id="Group_5">
<g id="Group_6">
<g id="Group_7">
<g id="Group_8">
<path id="Vector_3" d="M280.144 179.797C280.169 179.644 280.208 179.441 280.258 179.186C280.309 178.932 280.462 178.448 280.717 177.735C280.971 177.023 281.226 176.425 281.48 175.941C281.735 175.457 282.155 174.987 282.74 174.529C283.325 174.07 283.911 173.854 284.496 173.88C285.412 173.88 286.176 174.109 286.787 174.567C287.397 175.025 287.779 175.457 287.932 175.865C288.085 176.272 288.161 176.539 288.161 176.666C288.161 176.717 288.174 176.743 288.199 176.743L288.619 176.323C290.172 174.694 291.941 173.88 293.926 173.88C295.3 173.88 296.407 174.223 297.247 174.91C298.087 175.597 298.52 176.603 298.545 177.926C298.571 179.25 298.087 181.248 297.094 183.92C296.102 186.592 295.618 188.208 295.644 188.768C295.644 189.43 295.86 189.761 296.293 189.761C296.445 189.761 296.56 189.748 296.636 189.723C297.374 189.596 298.036 189.112 298.621 188.272C299.207 187.432 299.652 186.414 299.958 185.218C300.009 185.014 300.263 184.913 300.721 184.913C301.23 184.913 301.485 185.014 301.485 185.218C301.485 185.243 301.434 185.434 301.332 185.791C301.128 186.529 300.848 187.254 300.492 187.967C300.136 188.679 299.55 189.392 298.736 190.105C297.922 190.817 297.043 191.161 296.102 191.135C294.906 191.135 294.04 190.792 293.506 190.105C292.971 189.417 292.704 188.705 292.704 187.967C292.704 187.483 293.162 185.956 294.078 183.386C294.995 180.815 295.465 178.881 295.491 177.583C295.491 176.081 294.931 175.33 293.811 175.33H293.62C291.431 175.33 289.586 176.616 288.085 179.186L287.817 179.644L286.558 184.76C285.718 188.094 285.234 189.888 285.107 190.143C284.776 190.83 284.229 191.174 283.465 191.174C283.134 191.174 282.867 191.097 282.664 190.944C282.46 190.792 282.32 190.639 282.244 190.486C282.167 190.334 282.142 190.206 282.167 190.105C282.167 189.774 282.651 187.699 283.618 183.882C284.585 180.064 285.094 177.99 285.145 177.659C285.171 177.532 285.183 177.239 285.183 176.781C285.183 175.788 284.878 175.292 284.267 175.292C283.3 175.292 282.498 176.565 281.862 179.11C281.709 179.619 281.633 179.886 281.633 179.911C281.582 180.064 281.34 180.14 280.907 180.14H280.373C280.22 179.988 280.144 179.873 280.144 179.797Z" fill="white"/>
</g>
<g id="Group_9">
<path id="Vector_4" d="M312.869 181.706C312.869 181.706 312.869 181.54 312.869 181.209C312.869 180.879 313.047 180.624 313.403 180.446H324.818V174.719L324.856 168.993C325.111 168.662 325.353 168.497 325.582 168.497C325.913 168.497 326.167 168.687 326.345 169.069V180.446H337.722C338.104 180.65 338.295 180.904 338.295 181.209C338.295 181.515 338.104 181.769 337.722 181.973H326.345V193.35C326.142 193.706 325.913 193.884 325.658 193.884H325.582H325.505C325.2 193.884 324.971 193.706 324.818 193.35V181.973H313.403C313.047 181.795 312.869 181.54 312.869 181.209V181.706Z" fill="white"/>
</g>
<g id="Group_10">
<g id="Group_11">
<g id="Group_12">
<g id="Group_13">
<g id="Group_14">
<path id="Vector_5" d="M357.047 168.687L356.551 168.878C356.194 169.006 355.685 169.133 355.024 169.26C354.362 169.387 353.624 169.476 352.809 169.527H352.084V167.771H352.809C354.006 167.72 355.113 167.529 356.131 167.199C357.149 166.868 357.862 166.562 358.269 166.282C358.676 166.002 359.032 165.722 359.338 165.442C359.389 165.366 359.541 165.328 359.796 165.328C360.025 165.328 360.241 165.404 360.445 165.557V176.972L360.483 188.425C360.661 188.603 360.814 188.718 360.941 188.768C361.068 188.819 361.374 188.87 361.857 188.921C362.341 188.972 363.13 188.997 364.224 188.997H365.217V190.754H364.797C364.262 190.677 362.239 190.639 358.727 190.639C355.265 190.639 353.268 190.677 352.733 190.754H352.275V188.997H353.268C353.828 188.997 354.311 188.997 354.718 188.997C355.126 188.997 355.444 188.985 355.673 188.959C355.902 188.934 356.105 188.896 356.284 188.845C356.462 188.794 356.564 188.768 356.589 188.768C356.614 188.768 356.691 188.705 356.818 188.578C356.945 188.45 357.022 188.399 357.047 188.425V168.687Z" fill="white"/>
</g>
<g id="Group_15">
<path id="Vector_6" d="M400.538 189.646C400.538 190.155 400.271 190.41 399.736 190.41C399.609 190.41 399.329 190.206 398.896 189.799C398.464 189.392 397.268 188.208 395.308 186.249L391.338 182.278L387.329 186.287C384.631 188.934 383.244 190.283 383.168 190.334C383.066 190.385 382.977 190.41 382.9 190.41C382.697 190.41 382.519 190.334 382.366 190.181C382.213 190.028 382.124 189.85 382.099 189.646C382.099 189.468 382.277 189.188 382.633 188.807C382.99 188.425 384.186 187.216 386.222 185.18L390.192 181.209L386.222 177.239C384.16 175.177 382.964 173.969 382.633 173.612C382.302 173.256 382.124 172.976 382.099 172.772C382.099 172.543 382.175 172.365 382.328 172.238C382.481 172.111 382.671 172.047 382.9 172.047C383.028 172.047 383.117 172.06 383.168 172.085C383.244 172.136 384.631 173.485 387.329 176.132L391.338 180.14L395.308 176.17C397.268 174.21 398.464 173.027 398.896 172.62C399.329 172.212 399.609 172.009 399.736 172.009C400.271 172.009 400.538 172.263 400.538 172.772C400.538 172.951 400.411 173.18 400.156 173.46C399.902 173.739 398.655 174.987 396.415 177.201L392.445 181.209L396.415 185.218C398.553 187.356 399.775 188.59 400.08 188.921C400.385 189.252 400.538 189.494 400.538 189.646Z" fill="white"/>
</g>
<g id="Group_16">
<path id="Vector_7" d="M419.519 173.078C418.832 173.078 418.298 172.861 417.916 172.429C417.534 171.996 417.33 171.436 417.305 170.749C417.305 169.349 417.916 168.102 419.137 167.008C420.359 165.913 421.835 165.366 423.566 165.366C424.457 165.366 425.017 165.379 425.246 165.404C427.129 165.71 428.567 166.384 429.56 167.428C430.552 168.471 431.061 169.604 431.087 170.825C431.087 172.149 430.654 173.434 429.789 174.681C428.923 175.928 427.727 176.832 426.2 177.392L426.086 177.468C426.086 177.494 426.2 177.532 426.429 177.583C426.658 177.634 427.027 177.748 427.536 177.926C428.045 178.104 428.529 178.372 428.987 178.728C431.074 180.077 432.117 181.858 432.117 184.073C432.117 186.083 431.329 187.839 429.751 189.341C428.173 190.843 426.175 191.593 423.757 191.593C421.721 191.593 419.965 191.046 418.488 189.952C417.012 188.857 416.274 187.47 416.274 185.791C416.274 185.078 416.503 184.505 416.961 184.073C417.419 183.64 417.992 183.411 418.679 183.385C419.392 183.385 419.977 183.615 420.435 184.073C420.894 184.531 421.123 185.103 421.123 185.791C421.123 186.071 421.084 186.325 421.008 186.554C420.932 186.783 420.843 186.987 420.741 187.165C420.639 187.343 420.499 187.496 420.321 187.623C420.143 187.75 419.99 187.852 419.863 187.929C419.736 188.005 419.608 188.056 419.481 188.081C419.354 188.107 419.252 188.145 419.176 188.196L419.023 188.234C420.321 189.379 421.899 189.952 423.757 189.952C425.157 189.952 426.213 189.277 426.925 187.929C427.358 187.089 427.574 185.803 427.574 184.073V183.309C427.574 180.891 426.76 179.275 425.131 178.461C424.749 178.308 423.973 178.219 422.802 178.193L421.199 178.155L421.084 178.079C421.034 178.003 421.008 177.799 421.008 177.468C421.008 177.01 421.11 176.781 421.313 176.781C422.026 176.781 422.764 176.717 423.528 176.59C424.393 176.463 425.182 175.928 425.895 174.987C426.607 174.045 426.964 172.62 426.964 170.711V170.405C426.964 168.955 426.518 167.949 425.627 167.389C425.068 167.033 424.469 166.855 423.833 166.855C423.019 166.855 422.268 166.995 421.581 167.275C420.894 167.555 420.41 167.848 420.13 168.153C419.85 168.458 419.71 168.611 419.71 168.611H419.825C419.901 168.637 420.003 168.662 420.13 168.687C420.257 168.713 420.385 168.777 420.512 168.878C420.639 168.98 420.792 169.069 420.97 169.146C421.148 169.222 421.275 169.362 421.352 169.566C421.428 169.769 421.53 169.96 421.657 170.138C421.784 170.316 421.823 170.571 421.772 170.902C421.772 171.462 421.593 171.958 421.237 172.391C420.881 172.823 420.308 173.052 419.519 173.078Z" fill="white"/>
</g>
<g id="Group_17">
<path id="Vector_8" d="M444.384 181.706C444.384 181.706 444.384 181.54 444.384 181.209C444.384 180.879 444.562 180.624 444.918 180.446H456.333V174.719L456.371 168.993C456.626 168.662 456.868 168.497 457.097 168.497C457.428 168.497 457.682 168.687 457.86 169.069V180.446H469.237C469.619 180.65 469.81 180.904 469.81 181.209C469.81 181.515 469.619 181.769 469.237 181.973H457.86V193.35C457.657 193.706 457.428 193.884 457.173 193.884H457.097H457.02C456.715 193.884 456.486 193.706 456.333 193.35V181.973H444.918C444.562 181.795 444.384 181.54 444.384 181.209V181.706Z" fill="white"/>
</g>
<g id="Group_18">
<path id="Vector_9" d="M485.278 173.078C484.591 173.078 484.057 172.861 483.675 172.429C483.293 171.996 483.09 171.436 483.064 170.749C483.064 169.349 483.675 168.102 484.897 167.008C486.118 165.913 487.594 165.366 489.325 165.366C490.216 165.366 490.776 165.379 491.005 165.404C492.888 165.71 494.326 166.384 495.319 167.428C496.311 168.471 496.82 169.604 496.846 170.825C496.846 172.149 496.413 173.434 495.548 174.681C494.683 175.928 493.486 176.832 491.959 177.392L491.845 177.468C491.845 177.494 491.959 177.532 492.188 177.583C492.417 177.634 492.786 177.748 493.295 177.926C493.804 178.104 494.288 178.372 494.746 178.728C496.833 180.077 497.877 181.858 497.877 184.073C497.877 186.083 497.088 187.839 495.51 189.341C493.932 190.843 491.934 191.593 489.516 191.593C487.48 191.593 485.724 191.046 484.248 189.952C482.771 188.857 482.033 187.47 482.033 185.791C482.033 185.078 482.262 184.505 482.721 184.073C483.179 183.64 483.751 183.411 484.438 183.385C485.151 183.385 485.736 183.615 486.195 184.073C486.653 184.531 486.882 185.103 486.882 185.791C486.882 186.071 486.844 186.325 486.767 186.554C486.691 186.783 486.602 186.987 486.5 187.165C486.398 187.343 486.258 187.496 486.08 187.623C485.902 187.75 485.749 187.852 485.622 187.929C485.495 188.005 485.367 188.056 485.24 188.081C485.113 188.107 485.011 188.145 484.935 188.196L484.782 188.234C486.08 189.379 487.658 189.952 489.516 189.952C490.916 189.952 491.972 189.277 492.685 187.929C493.117 187.089 493.334 185.803 493.334 184.073V183.309C493.334 180.891 492.519 179.275 490.89 178.461C490.509 178.308 489.732 178.219 488.562 178.193L486.958 178.155L486.844 178.079C486.793 178.003 486.767 177.799 486.767 177.468C486.767 177.01 486.869 176.781 487.073 176.781C487.785 176.781 488.523 176.717 489.287 176.59C490.152 176.463 490.941 175.928 491.654 174.987C492.366 174.045 492.723 172.62 492.723 170.711V170.405C492.723 168.955 492.277 167.949 491.387 167.389C490.827 167.033 490.229 166.855 489.592 166.855C488.778 166.855 488.027 166.995 487.34 167.275C486.653 167.555 486.169 167.848 485.889 168.153C485.609 168.458 485.469 168.611 485.469 168.611H485.584C485.66 168.637 485.762 168.662 485.889 168.687C486.016 168.713 486.144 168.777 486.271 168.878C486.398 168.98 486.551 169.069 486.729 169.146C486.907 169.222 487.034 169.362 487.111 169.566C487.187 169.769 487.289 169.96 487.416 170.138C487.543 170.316 487.582 170.571 487.531 170.902C487.531 171.462 487.353 171.958 486.996 172.391C486.64 172.823 486.067 173.052 485.278 173.078Z" fill="white"/>
</g>
<g id="Group_19">
<path id="Vector_10" d="M532.052 189.646C532.052 190.155 531.785 190.41 531.251 190.41C531.124 190.41 530.844 190.206 530.411 189.799C529.978 189.392 528.782 188.208 526.822 186.249L522.852 182.278L518.843 186.287C516.146 188.934 514.758 190.283 514.682 190.334C514.58 190.385 514.491 190.41 514.415 190.41C514.211 190.41 514.033 190.334 513.88 190.181C513.728 190.028 513.639 189.85 513.613 189.646C513.613 189.468 513.791 189.188 514.148 188.807C514.504 188.425 515.7 187.216 517.736 185.18L521.707 181.209L517.736 177.239C515.675 175.177 514.478 173.969 514.148 173.612C513.817 173.256 513.639 172.976 513.613 172.772C513.613 172.543 513.69 172.365 513.842 172.238C513.995 172.111 514.186 172.047 514.415 172.047C514.542 172.047 514.631 172.06 514.682 172.085C514.758 172.136 516.146 173.485 518.843 176.132L522.852 180.14L526.822 176.17C528.782 174.21 529.978 173.027 530.411 172.62C530.844 172.212 531.124 172.009 531.251 172.009C531.785 172.009 532.052 172.263 532.052 172.772C532.052 172.951 531.925 173.18 531.671 173.46C531.416 173.739 530.169 174.987 527.929 177.201L523.959 181.209L527.929 185.218C530.067 187.356 531.289 188.59 531.594 188.921C531.9 189.252 532.052 189.494 532.052 189.646Z" fill="white"/>
</g>
<g id="Group_20">
<path id="Vector_11" d="M552.447 184.76C552.447 185.371 552.243 185.88 551.836 186.287C551.428 186.694 550.932 186.898 550.347 186.898H550.08C551.25 188.908 552.803 189.914 554.737 189.914C556.519 189.914 557.817 189.15 558.631 187.623C559.115 186.783 559.356 185.154 559.356 182.736C559.356 180.115 559.013 178.346 558.326 177.43C557.664 176.59 556.926 176.17 556.111 176.17H555.882C553.897 176.17 552.396 177.035 551.378 178.766C551.276 178.944 551.187 179.046 551.11 179.072C551.034 179.097 550.843 179.122 550.538 179.148C550.105 179.148 549.863 179.072 549.812 178.919C549.761 178.817 549.736 176.59 549.736 172.238V167.313C549.736 166.041 549.8 165.404 549.927 165.404C549.978 165.353 550.029 165.328 550.08 165.328C550.105 165.328 550.372 165.43 550.881 165.633C551.39 165.837 552.09 166.041 552.981 166.244C553.872 166.448 554.826 166.55 555.844 166.55C557.651 166.55 559.382 166.193 561.036 165.481C561.24 165.379 561.405 165.328 561.533 165.328C561.736 165.328 561.838 165.557 561.838 166.015V166.511C559.751 168.98 557.142 170.215 554.012 170.215C553.223 170.215 552.51 170.138 551.874 169.985L551.492 169.909V176.476C551.976 176.119 552.357 175.839 552.637 175.636C552.917 175.432 553.375 175.228 554.012 175.025C554.648 174.821 555.297 174.719 555.959 174.719C558.02 174.719 559.764 175.547 561.189 177.201C562.614 178.855 563.327 180.815 563.327 183.08C563.327 185.422 562.512 187.419 560.884 189.074C559.255 190.728 557.269 191.568 554.928 191.593C552.866 191.593 551.212 190.906 549.965 189.532C548.718 188.158 548.094 186.605 548.094 184.874C548.094 184.264 548.234 183.78 548.514 183.424C548.794 183.067 549.087 182.838 549.392 182.736C549.698 182.635 549.99 182.584 550.27 182.584C550.907 182.584 551.428 182.8 551.836 183.233C552.243 183.665 552.447 184.174 552.447 184.76Z" fill="white"/>
</g>
<g id="Group_21">
<path id="Vector_12" d="M575.898 181.706C575.898 181.706 575.898 181.54 575.898 181.209C575.898 180.879 576.077 180.624 576.433 180.446H587.848V174.719L587.886 168.993C588.14 168.662 588.382 168.497 588.611 168.497C588.942 168.497 589.197 168.687 589.375 169.069V180.446H600.751C601.133 180.65 601.324 180.904 601.324 181.209C601.324 181.515 601.133 181.769 600.751 181.973H589.375V193.35C589.171 193.706 588.942 193.884 588.688 193.884H588.611H588.535C588.23 193.884 588 193.706 587.848 193.35V181.973H576.433C576.077 181.795 575.898 181.54 575.898 181.209V181.706Z" fill="white"/>
</g>
<g id="Group_22">
<path id="Vector_13" d="M618.206 184.76C618.206 185.371 618.002 185.88 617.595 186.287C617.188 186.694 616.692 186.898 616.106 186.898H615.839C617.01 188.908 618.562 189.914 620.497 189.914C622.278 189.914 623.576 189.15 624.391 187.623C624.874 186.783 625.116 185.154 625.116 182.736C625.116 180.115 624.772 178.346 624.085 177.43C623.424 176.59 622.685 176.17 621.871 176.17H621.642C619.657 176.17 618.155 177.035 617.137 178.766C617.035 178.944 616.946 179.046 616.87 179.072C616.793 179.097 616.603 179.122 616.297 179.148C615.865 179.148 615.623 179.072 615.572 178.919C615.521 178.817 615.495 176.59 615.495 172.238V167.313C615.495 166.041 615.559 165.404 615.686 165.404C615.737 165.353 615.788 165.328 615.839 165.328C615.865 165.328 616.132 165.43 616.641 165.633C617.15 165.837 617.85 166.041 618.74 166.244C619.631 166.448 620.586 166.55 621.604 166.55C623.411 166.55 625.141 166.193 626.796 165.481C626.999 165.379 627.165 165.328 627.292 165.328C627.496 165.328 627.597 165.557 627.597 166.015V166.511C625.51 168.98 622.902 170.215 619.771 170.215C618.982 170.215 618.27 170.138 617.633 169.985L617.252 169.909V176.476C617.735 176.119 618.117 175.839 618.397 175.636C618.677 175.432 619.135 175.228 619.771 175.025C620.408 174.821 621.057 174.719 621.718 174.719C623.78 174.719 625.523 175.547 626.948 177.201C628.374 178.855 629.086 180.815 629.086 183.08C629.086 185.422 628.272 187.419 626.643 189.074C625.014 190.728 623.029 191.568 620.688 191.593C618.626 191.593 616.972 190.906 615.725 189.532C614.477 188.158 613.854 186.605 613.854 184.874C613.854 184.264 613.994 183.78 614.274 183.424C614.554 183.067 614.846 182.838 615.152 182.736C615.457 182.635 615.75 182.584 616.03 182.584C616.666 182.584 617.188 182.8 617.595 183.233C618.002 183.665 618.206 184.174 618.206 184.76Z" fill="white"/>
</g>
<g id="Group_23">
<path id="Vector_14" d="M663.567 189.646C663.567 190.155 663.3 190.41 662.765 190.41C662.638 190.41 662.358 190.206 661.925 189.799C661.493 189.392 660.297 188.208 658.337 186.249L654.366 182.278L650.358 186.287C647.66 188.934 646.273 190.283 646.197 190.334C646.095 190.385 646.006 190.41 645.929 190.41C645.726 190.41 645.548 190.334 645.395 190.181C645.242 190.028 645.153 189.85 645.128 189.646C645.128 189.468 645.306 189.188 645.662 188.807C646.018 188.425 647.215 187.216 649.251 185.18L653.221 181.209L649.251 177.239C647.189 175.177 645.993 173.969 645.662 173.612C645.331 173.256 645.153 172.976 645.128 172.772C645.128 172.543 645.204 172.365 645.357 172.238C645.509 172.111 645.7 172.047 645.929 172.047C646.057 172.047 646.146 172.06 646.197 172.085C646.273 172.136 647.66 173.485 650.358 176.132L654.366 180.14L658.337 176.17C660.297 174.21 661.493 173.027 661.925 172.62C662.358 172.212 662.638 172.009 662.765 172.009C663.3 172.009 663.567 172.263 663.567 172.772C663.567 172.951 663.44 173.18 663.185 173.46C662.931 173.739 661.684 174.987 659.444 177.201L655.474 181.209L659.444 185.218C661.582 187.356 662.803 188.59 663.109 188.921C663.414 189.252 663.567 189.494 663.567 189.646Z" fill="white"/>
</g>
<g id="Group_24">
<path id="Vector_15" d="M679.8 173.269C679.825 173.218 680.042 171.831 680.449 169.107L681.06 165.023C681.06 164.972 681.314 164.946 681.823 164.946H682.587V165.099C682.587 165.353 682.778 165.57 683.159 165.748C683.541 165.926 684.203 166.041 685.145 166.091C686.086 166.142 688.237 166.168 691.596 166.168H696.216V167.657L693.62 171.207C693.391 171.513 693.009 172.022 692.474 172.734C691.94 173.447 691.596 173.918 691.444 174.147C691.291 174.376 691.024 174.783 690.642 175.368C690.26 175.954 690.006 176.412 689.878 176.743C689.751 177.074 689.573 177.544 689.344 178.155C689.115 178.766 688.949 179.351 688.848 179.911C688.746 180.471 688.644 181.159 688.542 181.973C688.44 182.787 688.364 183.653 688.313 184.569C688.262 185.485 688.224 186.529 688.199 187.699C688.199 188.056 688.199 188.412 688.199 188.768C688.199 189.125 688.186 189.43 688.16 189.685V190.028C688.059 190.461 687.817 190.83 687.435 191.135C687.053 191.441 686.621 191.593 686.137 191.593C685.857 191.593 685.59 191.555 685.335 191.479C685.081 191.403 684.814 191.161 684.534 190.754C684.254 190.346 684.114 189.837 684.114 189.227C684.114 185.205 685.348 181.031 687.817 176.705C688.326 175.89 689.395 174.35 691.024 172.085L692.78 169.68H689.229C684.801 169.68 682.472 169.756 682.243 169.909C682.09 169.985 681.95 170.291 681.823 170.825C681.696 171.36 681.569 171.907 681.441 172.467L681.327 173.269V173.383H679.8V173.269Z" fill="white"/>
</g>
<g id="Group_25">
<path id="Vector_16" d="M707.41 181.706C707.41 181.706 707.41 181.54 707.41 181.209C707.41 180.879 707.588 180.624 707.944 180.446H719.359V174.719L719.397 168.993C719.652 168.662 719.894 168.497 720.123 168.497C720.453 168.497 720.708 168.687 720.886 169.069V180.446H732.263C732.645 180.65 732.835 180.904 732.835 181.209C732.835 181.515 732.645 181.769 732.263 181.973H720.886V193.35C720.683 193.706 720.453 193.884 720.199 193.884H720.123H720.046C719.741 193.884 719.512 193.706 719.359 193.35V181.973H707.944C707.588 181.795 707.41 181.54 707.41 181.209V181.706Z" fill="white"/>
</g>
<g id="Group_26">
<path id="Vector_17" d="M746.437 181.209C746.437 180.599 746.654 180.064 747.086 179.606C747.519 179.148 748.066 178.919 748.728 178.919C749.339 178.919 749.873 179.122 750.331 179.53C750.79 179.937 751.031 180.484 751.057 181.171C751.057 181.807 750.84 182.355 750.408 182.813C749.975 183.271 749.428 183.5 748.766 183.5C748.104 183.5 747.557 183.284 747.125 182.851C746.692 182.418 746.463 181.871 746.437 181.209ZM763.502 181.209C763.502 180.599 763.719 180.064 764.151 179.606C764.584 179.148 765.131 178.919 765.793 178.919C766.404 178.919 766.938 179.122 767.396 179.53C767.854 179.937 768.096 180.484 768.122 181.171C768.122 181.807 767.905 182.355 767.473 182.813C767.04 183.271 766.493 183.5 765.831 183.5C765.169 183.5 764.622 183.284 764.19 182.851C763.757 182.418 763.528 181.871 763.502 181.209ZM780.567 181.209C780.567 180.599 780.784 180.064 781.216 179.606C781.649 179.148 782.196 178.919 782.858 178.919C783.469 178.919 784.003 179.122 784.461 179.53C784.919 179.937 785.161 180.484 785.187 181.171C785.187 181.807 784.97 182.355 784.538 182.813C784.105 183.271 783.558 183.5 782.896 183.5C782.234 183.5 781.687 183.284 781.255 182.851C780.822 182.418 780.593 181.871 780.567 181.209Z" fill="white"/>
</g>
</g>
<g id="Group_27">
<path id="Vector_18" d="M348.228 163.152L347.999 162.923V161.587L348.304 161.052C350.62 156.98 354.133 153.9 358.841 151.813C360.725 151.075 362.697 150.63 364.759 150.477C364.835 150.477 364.988 150.477 365.217 150.477C365.446 150.477 365.611 150.465 365.713 150.439C366.069 150.439 366.286 150.477 366.362 150.554C366.438 150.63 366.477 150.872 366.477 151.279V152.73V154.066C366.477 154.524 366.438 154.791 366.362 154.868C366.286 154.944 366.082 154.995 365.751 155.02C362.366 155.02 359.21 155.72 356.283 157.12C353.356 158.52 351.219 160.429 349.87 162.846C349.768 162.999 349.679 163.088 349.602 163.114C349.526 163.139 349.284 163.152 348.877 163.152H348.228Z" fill="white"/>
<path id="Vector_19" d="M770.642 152.73C770.642 151.61 770.642 150.961 770.642 150.783C770.642 150.604 770.705 150.515 770.832 150.515C770.934 150.465 771.125 150.439 771.405 150.439C773.594 150.439 775.885 150.897 778.277 151.813C782.985 153.9 786.498 156.98 788.814 161.052L789.119 161.587V162.923L788.89 163.152H788.241H788.088C787.834 163.152 787.668 163.152 787.592 163.152C787.516 163.152 787.439 163.101 787.363 162.999C787.287 162.897 787.223 162.808 787.172 162.732C787.121 162.656 787.007 162.465 786.829 162.159C786.65 161.854 786.421 161.548 786.141 161.243C784.487 159.182 782.298 157.629 779.575 156.585C776.852 155.542 774.116 155.02 771.367 155.02C771.036 155.02 770.832 154.982 770.756 154.906C770.68 154.829 770.642 154.549 770.642 154.066V152.73Z" fill="white"/>
<g id="Group_28">
<path id="Vector_20" d="M550.996 152.73V151.394C550.996 150.935 551.034 150.668 551.11 150.592C551.187 150.515 551.39 150.465 551.721 150.439C555.335 150.439 558.402 149.79 560.922 148.492C563.441 147.194 565.299 145.756 566.495 144.178C566.699 143.949 566.903 143.682 567.106 143.376C567.31 143.071 567.463 142.829 567.564 142.651C567.666 142.473 567.755 142.384 567.832 142.384C567.883 142.333 568.137 142.307 568.595 142.307H569.244L569.473 142.537V143.873L569.168 144.407C566.852 148.479 563.34 151.559 558.631 153.646C556.213 154.562 553.897 155.02 551.683 155.02C551.352 155.02 551.161 154.982 551.11 154.906C551.059 154.829 551.021 154.562 550.996 154.104V152.73Z" fill="white"/>
<path id="Vector_21" d="M567.641 142.537L567.87 142.307H568.519C568.824 142.307 569.028 142.307 569.13 142.307C569.231 142.307 569.32 142.358 569.397 142.46C569.473 142.562 569.537 142.651 569.588 142.727C569.639 142.804 569.74 142.982 569.893 143.262C570.046 143.542 570.288 143.847 570.618 144.178C572.171 146.24 574.347 147.792 577.147 148.836C579.946 149.879 582.695 150.414 585.393 150.439C585.724 150.439 585.927 150.477 586.004 150.554C586.08 150.63 586.118 150.91 586.118 151.394V152.73V153.951C586.118 154.46 586.08 154.766 586.004 154.868C585.927 154.969 585.736 155.02 585.431 155.02C583.217 155.02 580.901 154.562 578.483 153.646C573.774 151.559 570.262 148.479 567.946 144.407L567.641 143.873V142.537Z" fill="white"/>
</g>
<g id="Frame" clip-path="url(#clip0)">
<path id="Vector_22" d="M526.537 155.034V150.453H830.385V155.034H526.537Z" fill="white"/>
</g>
<g id="Frame_2">
<path id="Vector_23" d="M366 155V150.42H552V155H366Z" fill="white"/>
</g>
</g>
</g>
</g>
<g id="Group_29">
<g id="Group_30">
<path id="Vector_24" d="M482.604 114.239C482.604 113.789 482.748 113.411 483.035 113.105C483.323 112.799 483.71 112.637 484.196 112.619C484.7 112.619 485.159 112.853 485.573 113.321C485.986 113.789 486.202 114.589 486.22 115.723C486.22 116.695 486.022 117.621 485.627 118.503C485.231 119.385 484.826 120.042 484.412 120.473C483.998 120.905 483.746 121.121 483.656 121.121C483.584 121.121 483.467 121.04 483.305 120.878C483.143 120.716 483.053 120.599 483.035 120.527C483.035 120.473 483.143 120.329 483.359 120.096C483.575 119.862 483.809 119.583 484.061 119.259C484.313 118.935 484.565 118.467 484.817 117.855C485.069 117.243 485.204 116.596 485.222 115.912C485.222 115.696 485.213 115.588 485.195 115.588C485.177 115.588 485.132 115.615 485.06 115.669C484.988 115.723 484.871 115.768 484.709 115.804C484.547 115.84 484.385 115.867 484.223 115.885C483.773 115.885 483.395 115.732 483.089 115.426C482.784 115.12 482.622 114.724 482.604 114.239ZM488.11 114.239C488.11 113.789 488.254 113.411 488.542 113.105C488.83 112.799 489.216 112.637 489.702 112.619C490.206 112.619 490.665 112.853 491.079 113.321C491.493 113.789 491.709 114.589 491.727 115.723C491.727 116.695 491.529 117.621 491.133 118.503C490.737 119.385 490.332 120.042 489.918 120.473C489.504 120.905 489.252 121.121 489.162 121.121C489.09 121.121 488.973 121.04 488.812 120.878C488.65 120.716 488.56 120.599 488.542 120.527C488.542 120.473 488.65 120.329 488.866 120.096C489.081 119.862 489.315 119.583 489.567 119.259C489.819 118.935 490.071 118.467 490.323 117.855C490.575 117.243 490.71 116.596 490.728 115.912C490.728 115.696 490.719 115.588 490.701 115.588C490.683 115.588 490.638 115.615 490.566 115.669C490.494 115.723 490.377 115.768 490.215 115.804C490.053 115.84 489.891 115.867 489.729 115.885C489.279 115.885 488.902 115.732 488.596 115.426C488.29 115.12 488.128 114.724 488.11 114.239Z" fill="white"/>
</g>
<g id="Group_31">
<path id="Vector_25" d="M495.748 123.604C495.766 123.496 495.793 123.352 495.829 123.172C495.865 122.992 495.973 122.651 496.153 122.147C496.333 121.643 496.513 121.22 496.693 120.878C496.873 120.536 497.17 120.203 497.583 119.88C497.997 119.556 498.411 119.403 498.825 119.421C499.473 119.421 500.013 119.583 500.444 119.907C500.876 120.23 501.146 120.536 501.254 120.824C501.362 121.112 501.416 121.301 501.416 121.391C501.416 121.427 501.425 121.445 501.443 121.445L501.74 121.148C502.838 119.996 504.088 119.421 505.492 119.421C506.463 119.421 507.246 119.664 507.84 120.149C508.434 120.635 508.74 121.346 508.758 122.282C508.776 123.217 508.434 124.63 507.732 126.519C507.03 128.409 506.688 129.551 506.706 129.947C506.706 130.415 506.859 130.649 507.165 130.649C507.273 130.649 507.354 130.64 507.408 130.622C507.93 130.532 508.398 130.19 508.812 129.596C509.226 129.002 509.54 128.283 509.756 127.437C509.792 127.293 509.972 127.221 510.296 127.221C510.656 127.221 510.836 127.293 510.836 127.437C510.836 127.455 510.8 127.59 510.728 127.842C510.584 128.364 510.386 128.876 510.134 129.38C509.882 129.884 509.468 130.388 508.893 130.892C508.317 131.396 507.696 131.639 507.03 131.621C506.185 131.621 505.573 131.378 505.195 130.892C504.817 130.406 504.628 129.902 504.628 129.38C504.628 129.038 504.952 127.959 505.6 126.141C506.248 124.324 506.58 122.956 506.598 122.039C506.598 120.977 506.203 120.446 505.411 120.446H505.276C503.728 120.446 502.424 121.355 501.362 123.172L501.173 123.496L500.283 127.113C499.689 129.47 499.347 130.739 499.257 130.919C499.023 131.405 498.636 131.648 498.096 131.648C497.862 131.648 497.673 131.594 497.529 131.486C497.385 131.378 497.287 131.27 497.233 131.162C497.179 131.054 497.161 130.964 497.179 130.892C497.179 130.658 497.52 129.191 498.204 126.492C498.888 123.793 499.248 122.327 499.284 122.093C499.302 122.003 499.311 121.796 499.311 121.472C499.311 120.77 499.095 120.419 498.663 120.419C497.979 120.419 497.412 121.319 496.963 123.118C496.855 123.478 496.801 123.667 496.801 123.685C496.765 123.793 496.594 123.847 496.288 123.847H495.91C495.802 123.739 495.748 123.658 495.748 123.604Z" fill="white"/>
</g>
<g id="Group_32">
<path id="Vector_26" d="M512.293 114.239C512.293 113.789 512.437 113.411 512.725 113.105C513.013 112.799 513.4 112.637 513.886 112.619C514.39 112.619 514.849 112.853 515.262 113.321C515.676 113.789 515.892 114.589 515.91 115.723C515.91 116.695 515.712 117.621 515.316 118.503C514.921 119.385 514.516 120.042 514.102 120.473C513.688 120.905 513.436 121.121 513.346 121.121C513.274 121.121 513.157 121.04 512.995 120.878C512.833 120.716 512.743 120.599 512.725 120.527C512.725 120.473 512.833 120.329 513.049 120.096C513.265 119.862 513.499 119.583 513.751 119.259C514.003 118.935 514.255 118.467 514.507 117.855C514.759 117.243 514.894 116.596 514.912 115.912C514.912 115.696 514.903 115.588 514.885 115.588C514.867 115.588 514.822 115.615 514.75 115.669C514.678 115.723 514.561 115.768 514.399 115.804C514.237 115.84 514.075 115.867 513.913 115.885C513.463 115.885 513.085 115.732 512.779 115.426C512.473 115.12 512.311 114.724 512.293 114.239ZM517.8 114.239C517.8 113.789 517.944 113.411 518.231 113.105C518.519 112.799 518.906 112.637 519.392 112.619C519.896 112.619 520.355 112.853 520.769 113.321C521.182 113.789 521.398 114.589 521.416 115.723C521.416 116.695 521.218 117.621 520.823 118.503C520.427 119.385 520.022 120.042 519.608 120.473C519.194 120.905 518.942 121.121 518.852 121.121C518.78 121.121 518.663 121.04 518.501 120.878C518.339 120.716 518.249 120.599 518.231 120.527C518.231 120.473 518.339 120.329 518.555 120.096C518.771 119.862 519.005 119.583 519.257 119.259C519.509 118.935 519.761 118.467 520.013 117.855C520.265 117.243 520.4 116.596 520.418 115.912C520.418 115.696 520.409 115.588 520.391 115.588C520.373 115.588 520.328 115.615 520.256 115.669C520.184 115.723 520.067 115.768 519.905 115.804C519.743 115.84 519.581 115.867 519.419 115.885C518.969 115.885 518.591 115.732 518.285 115.426C517.98 115.12 517.818 114.724 517.8 114.239Z" fill="white"/>
</g>
<g id="Group_33">
<path id="Vector_27" d="M536.89 123.55C536.89 122.975 537.034 122.39 537.322 121.796C537.61 121.202 538.114 120.653 538.834 120.149C539.553 119.646 540.426 119.403 541.452 119.421C542.567 119.421 543.377 119.664 543.881 120.149C544.385 120.635 544.646 121.175 544.664 121.769C544.664 122.345 544.511 122.768 544.205 123.037C543.899 123.307 543.557 123.451 543.179 123.469C542.945 123.469 542.729 123.397 542.531 123.253C542.333 123.109 542.226 122.876 542.208 122.552C542.208 122.264 542.289 122.012 542.45 121.796C542.612 121.58 542.765 121.418 542.909 121.31C543.053 121.202 543.17 121.148 543.26 121.148C543.278 121.148 543.287 121.139 543.287 121.121C543.287 121.067 543.224 120.986 543.098 120.878C542.972 120.77 542.747 120.671 542.423 120.581C542.1 120.491 541.749 120.437 541.371 120.419C540.507 120.419 539.877 120.653 539.481 121.121C539.086 121.589 538.879 122.066 538.861 122.552C538.861 123.002 539.032 123.316 539.373 123.496C539.715 123.676 540.21 123.829 540.858 123.955C541.506 124.081 541.974 124.216 542.262 124.36C543.449 124.882 544.043 125.746 544.043 126.951C544.043 127.455 543.944 127.959 543.746 128.463C543.548 128.966 543.251 129.47 542.855 129.974C542.459 130.478 541.893 130.874 541.155 131.162C540.417 131.45 539.571 131.603 538.618 131.621C537.232 131.621 536.252 131.36 535.676 130.838C535.1 130.316 534.803 129.704 534.785 129.002C534.785 128.301 534.974 127.797 535.352 127.491C535.73 127.185 536.126 127.032 536.539 127.032C536.809 127.032 537.061 127.113 537.295 127.275C537.529 127.437 537.655 127.716 537.673 128.112C537.673 128.58 537.511 128.975 537.187 129.299C536.863 129.623 536.584 129.785 536.351 129.785C536.315 129.803 536.288 129.812 536.27 129.812C536.252 129.812 536.243 129.83 536.243 129.866C536.261 129.92 536.333 129.992 536.458 130.082C536.584 130.172 536.863 130.289 537.295 130.433C537.727 130.577 538.222 130.64 538.78 130.622C539.427 130.622 539.985 130.523 540.453 130.325C540.921 130.127 541.263 129.875 541.479 129.569C541.695 129.263 541.848 128.984 541.938 128.733C542.028 128.481 542.073 128.256 542.073 128.058C542.073 127.554 541.884 127.176 541.506 126.924C541.128 126.672 540.696 126.519 540.21 126.465C539.724 126.411 539.194 126.276 538.618 126.06C538.042 125.845 537.619 125.53 537.349 125.116C537.043 124.666 536.89 124.144 536.89 123.55Z" fill="white"/>
</g>
<g id="Group_34">
<path id="Vector_28" d="M546.58 123.604C546.58 123.46 546.661 123.181 546.823 122.768C546.985 122.354 547.21 121.886 547.498 121.364C547.786 120.842 548.182 120.392 548.686 120.014C549.19 119.637 549.72 119.439 550.278 119.421C551.106 119.421 551.727 119.646 552.141 120.095C552.554 120.545 552.761 121.076 552.761 121.688C552.761 122.012 552.455 123.019 551.844 124.711C551.232 126.402 550.926 127.671 550.926 128.517C550.926 129.29 551.052 129.83 551.304 130.136C551.556 130.442 551.934 130.604 552.437 130.622C552.941 130.64 553.418 130.487 553.868 130.163C554.318 129.839 554.651 129.533 554.867 129.245L555.164 128.787C555.2 128.715 555.541 127.347 556.189 124.684C556.729 122.525 557.053 121.265 557.161 120.905C557.269 120.545 557.395 120.284 557.539 120.122C557.845 119.853 558.169 119.718 558.51 119.718C558.816 119.718 559.041 119.808 559.185 119.987C559.329 120.167 559.401 120.338 559.401 120.5L557.35 129.083C557.332 129.173 557.323 129.317 557.323 129.515C557.323 129.965 557.386 130.262 557.512 130.406C557.638 130.55 557.827 130.631 558.079 130.649C558.474 130.595 558.789 130.316 559.023 129.812C559.257 129.308 559.527 128.517 559.833 127.437C559.869 127.293 560.049 127.221 560.373 127.221C560.715 127.221 560.886 127.302 560.886 127.464C560.868 127.554 560.85 127.68 560.832 127.842C560.814 128.004 560.733 128.292 560.589 128.706C560.445 129.119 560.292 129.506 560.13 129.866C559.968 130.226 559.743 130.568 559.455 130.892C559.167 131.216 558.843 131.441 558.483 131.567C558.339 131.603 558.124 131.621 557.836 131.621C556.648 131.621 555.829 131.117 555.379 130.109C555.343 130.127 555.245 130.217 555.083 130.379C554.921 130.541 554.759 130.676 554.597 130.784C554.435 130.892 554.237 131.027 554.003 131.189C553.769 131.351 553.508 131.459 553.22 131.513C552.932 131.567 552.626 131.612 552.303 131.648C551.511 131.648 550.809 131.486 550.197 131.162C549.262 130.604 548.794 129.65 548.794 128.301C548.794 127.275 549.109 125.934 549.738 124.279C550.368 122.624 550.683 121.571 550.683 121.121C550.683 121.103 550.683 121.085 550.683 121.067C550.683 120.905 550.683 120.797 550.683 120.743C550.683 120.689 550.647 120.626 550.575 120.554C550.503 120.482 550.404 120.446 550.278 120.446H550.17C549.756 120.446 549.379 120.617 549.037 120.959C548.695 121.301 548.425 121.67 548.227 122.066C548.029 122.462 547.876 122.84 547.768 123.199C547.66 123.559 547.588 123.757 547.552 123.793C547.516 123.829 547.372 123.847 547.12 123.847H546.742C546.634 123.739 546.58 123.658 546.58 123.604Z" fill="white"/>
</g>
<g id="Group_35">
<path id="Vector_29" d="M562.019 123.604C562.037 123.496 562.064 123.352 562.1 123.172C562.136 122.992 562.244 122.651 562.424 122.147C562.604 121.643 562.784 121.22 562.964 120.878C563.144 120.536 563.431 120.203 563.827 119.88C564.223 119.556 564.619 119.403 565.015 119.421C565.411 119.439 565.798 119.502 566.176 119.61C566.553 119.718 566.823 119.88 566.985 120.095C567.147 120.311 567.291 120.509 567.417 120.689C567.543 120.869 567.615 121.04 567.633 121.202L567.687 121.391C567.687 121.427 567.696 121.445 567.714 121.445L568.011 121.148C569.091 119.996 570.359 119.421 571.817 119.421C572.123 119.421 572.401 119.439 572.653 119.475C572.905 119.511 573.139 119.574 573.355 119.664C573.571 119.754 573.742 119.844 573.868 119.933C573.994 120.023 574.129 120.131 574.273 120.257C574.417 120.383 574.507 120.5 574.543 120.608C574.579 120.716 574.651 120.833 574.759 120.959C574.867 121.085 574.903 121.193 574.867 121.283C574.831 121.373 574.858 121.454 574.948 121.526C575.038 121.598 575.056 121.661 575.002 121.715L575.217 121.445C576.351 120.095 577.692 119.421 579.239 119.421C580.211 119.421 580.994 119.664 581.587 120.149C582.181 120.635 582.487 121.346 582.505 122.282C582.505 123.199 582.163 124.621 581.479 126.546C580.796 128.472 580.454 129.623 580.454 130.001C580.472 130.253 580.517 130.424 580.589 130.514C580.661 130.604 580.796 130.649 580.994 130.649C581.497 130.649 581.965 130.379 582.397 129.839C582.829 129.299 583.18 128.562 583.45 127.626C583.504 127.428 583.558 127.311 583.612 127.275C583.666 127.239 583.81 127.221 584.044 127.221C584.403 127.221 584.583 127.293 584.583 127.437C584.583 127.455 584.547 127.59 584.475 127.842C584.331 128.364 584.133 128.876 583.882 129.38C583.63 129.884 583.216 130.388 582.64 130.892C582.064 131.396 581.443 131.639 580.778 131.621C579.932 131.621 579.32 131.378 578.942 130.892C578.564 130.406 578.375 129.902 578.375 129.38C578.375 129.038 578.699 127.959 579.347 126.141C579.995 124.324 580.328 122.956 580.346 122.039C580.346 120.977 579.95 120.446 579.158 120.446H579.023C577.476 120.446 576.171 121.355 575.11 123.172L574.921 123.496L574.03 127.113C573.436 129.47 573.094 130.739 573.004 130.919C572.77 131.405 572.383 131.648 571.844 131.648C571.61 131.648 571.421 131.585 571.277 131.459C571.133 131.333 571.034 131.225 570.98 131.135C570.926 131.045 570.899 130.955 570.899 130.865C570.899 130.667 571.205 129.38 571.817 127.005L572.788 123.064C572.842 122.795 572.869 122.453 572.869 122.039C572.869 120.977 572.473 120.446 571.682 120.446H571.547C569.999 120.446 568.695 121.355 567.633 123.172L567.444 123.496L566.553 127.113C565.96 129.47 565.618 130.739 565.528 130.919C565.294 131.405 564.907 131.648 564.367 131.648C564.133 131.648 563.944 131.594 563.8 131.486C563.656 131.378 563.557 131.27 563.503 131.162C563.449 131.054 563.431 130.964 563.449 130.892C563.449 130.658 563.791 129.182 564.475 126.465C565.177 123.694 565.528 122.246 565.528 122.12C565.582 121.85 565.609 121.607 565.609 121.391C565.609 120.743 565.384 120.419 564.934 120.419C564.538 120.419 564.205 120.671 563.935 121.175C563.665 121.679 563.458 122.228 563.314 122.822C563.171 123.415 563.063 123.739 562.991 123.793C562.955 123.829 562.811 123.847 562.559 123.847H562.181C562.073 123.739 562.019 123.658 562.019 123.604Z" fill="white"/>
</g>
<g id="Group_36">
<path id="Vector_30" d="M586.041 127.113C586.041 125.296 586.724 123.568 588.092 121.931C589.459 120.293 590.998 119.466 592.707 119.448C593.625 119.448 594.435 119.889 595.137 120.77C595.424 120.23 595.838 119.961 596.378 119.961C596.612 119.961 596.819 120.033 596.999 120.176C597.179 120.32 597.269 120.5 597.269 120.716C597.269 120.95 596.936 122.39 596.27 125.035C595.604 127.68 595.263 129.173 595.245 129.515C595.245 129.965 595.308 130.262 595.433 130.406C595.559 130.55 595.748 130.631 596 130.649C596.162 130.631 596.342 130.55 596.54 130.406C596.918 130.046 597.287 129.182 597.647 127.815C597.755 127.455 597.845 127.266 597.917 127.248C597.953 127.23 598.043 127.221 598.187 127.221H598.295C598.636 127.221 598.807 127.302 598.807 127.464C598.807 127.572 598.762 127.815 598.672 128.193C598.582 128.571 598.402 129.056 598.133 129.65C597.863 130.244 597.575 130.694 597.269 131C597.035 131.234 596.747 131.423 596.405 131.567C596.261 131.603 596.045 131.621 595.757 131.621C595.146 131.621 594.633 131.486 594.219 131.216C593.805 130.946 593.535 130.667 593.409 130.379L593.247 129.974C593.229 129.956 593.193 129.965 593.139 130.001C593.103 130.037 593.067 130.073 593.031 130.109C591.97 131.117 590.89 131.621 589.792 131.621C588.803 131.621 587.93 131.261 587.174 130.541C586.419 129.821 586.041 128.679 586.041 127.113ZM594.624 122.498C594.624 122.39 594.579 122.192 594.489 121.904C594.399 121.616 594.192 121.301 593.868 120.959C593.544 120.617 593.13 120.437 592.626 120.419C591.997 120.419 591.394 120.698 590.818 121.256C590.242 121.814 589.792 122.543 589.468 123.442C588.947 124.864 588.578 126.339 588.362 127.869C588.362 127.923 588.362 128.022 588.362 128.166C588.362 128.31 588.353 128.418 588.335 128.49C588.335 129.299 588.497 129.857 588.821 130.163C589.145 130.469 589.531 130.631 589.981 130.649C590.665 130.649 591.34 130.352 592.006 129.758C592.671 129.164 593.067 128.706 593.193 128.382C593.229 128.31 593.472 127.347 593.922 125.494C594.372 123.64 594.606 122.642 594.624 122.498Z" fill="white"/>
</g>
<g id="Group_37">
<path id="Vector_31" d="M599.995 123.604C600.013 123.496 600.04 123.352 600.076 123.172C600.112 122.992 600.22 122.651 600.4 122.147C600.58 121.643 600.76 121.22 600.94 120.878C601.12 120.536 601.417 120.203 601.83 119.88C602.244 119.556 602.658 119.403 603.072 119.421C603.72 119.421 604.26 119.583 604.691 119.907C605.123 120.23 605.393 120.536 605.501 120.824C605.609 121.112 605.663 121.301 605.663 121.391C605.663 121.427 605.672 121.445 605.69 121.445L605.987 121.148C607.085 119.996 608.335 119.421 609.739 119.421C610.71 119.421 611.493 119.664 612.087 120.149C612.681 120.635 612.987 121.346 613.005 122.282C613.023 123.217 612.681 124.63 611.979 126.519C611.277 128.409 610.935 129.551 610.953 129.947C610.953 130.415 611.106 130.649 611.412 130.649C611.52 130.649 611.601 130.64 611.655 130.622C612.177 130.532 612.645 130.19 613.059 129.596C613.472 129.002 613.787 128.283 614.003 127.437C614.039 127.293 614.219 127.221 614.543 127.221C614.903 127.221 615.083 127.293 615.083 127.437C615.083 127.455 615.047 127.59 614.975 127.842C614.831 128.364 614.633 128.876 614.381 129.38C614.129 129.884 613.715 130.388 613.14 130.892C612.564 131.396 611.943 131.639 611.277 131.621C610.431 131.621 609.82 131.378 609.442 130.892C609.064 130.406 608.875 129.902 608.875 129.38C608.875 129.038 609.199 127.959 609.847 126.141C610.494 124.324 610.827 122.956 610.845 122.039C610.845 120.977 610.449 120.446 609.658 120.446H609.523C607.975 120.446 606.671 121.355 605.609 123.172L605.42 123.496L604.529 127.113C603.936 129.47 603.594 130.739 603.504 130.919C603.27 131.405 602.883 131.648 602.343 131.648C602.109 131.648 601.92 131.594 601.776 131.486C601.632 131.378 601.533 131.27 601.479 131.162C601.426 131.054 601.408 130.964 601.426 130.892C601.426 130.658 601.767 129.191 602.451 126.492C603.135 123.793 603.495 122.327 603.531 122.093C603.549 122.003 603.558 121.796 603.558 121.472C603.558 120.77 603.342 120.419 602.91 120.419C602.226 120.419 601.659 121.319 601.21 123.118C601.102 123.478 601.048 123.667 601.048 123.685C601.012 123.793 600.841 123.847 600.535 123.847H600.157C600.049 123.739 599.995 123.658 599.995 123.604Z" fill="white"/>
</g>
<g id="Group_38">
<path id="Vector_32" d="M625.501 112.916C625.519 112.916 626.167 112.871 627.445 112.781C628.722 112.691 629.379 112.637 629.415 112.619C629.631 112.619 629.739 112.691 629.739 112.835C629.739 112.961 629.082 115.678 627.769 120.986C626.455 126.294 625.78 129.002 625.744 129.11C625.708 129.218 625.699 129.353 625.717 129.515C625.717 130.271 625.969 130.649 626.473 130.649C626.635 130.631 626.815 130.55 627.013 130.406C627.391 130.046 627.76 129.182 628.119 127.815C628.227 127.455 628.317 127.266 628.389 127.248C628.425 127.23 628.515 127.221 628.659 127.221H628.767H628.875C629.145 127.221 629.28 127.293 629.28 127.437C629.28 127.527 629.253 127.671 629.199 127.869C628.965 128.769 628.695 129.497 628.389 130.055C628.083 130.613 627.831 130.973 627.634 131.135C627.436 131.297 627.184 131.441 626.878 131.567C626.734 131.603 626.518 131.621 626.23 131.621C625.618 131.621 625.105 131.486 624.692 131.216C624.278 130.946 624.008 130.667 623.882 130.379L623.72 129.974C623.702 129.956 623.666 129.965 623.612 130.001C623.576 130.037 623.54 130.073 623.504 130.109C622.442 131.117 621.363 131.621 620.265 131.621C619.275 131.621 618.403 131.261 617.647 130.541C616.891 129.821 616.513 128.679 616.513 127.113C616.513 126.249 616.693 125.368 617.053 124.468C617.413 123.568 617.845 122.795 618.349 122.147C619.194 121.121 620.04 120.41 620.886 120.015C621.732 119.619 622.496 119.421 623.18 119.421C624.188 119.421 624.943 119.799 625.447 120.554C625.537 120.662 625.582 120.698 625.582 120.662C625.6 120.59 625.843 119.61 626.311 117.72C626.779 115.831 627.031 114.832 627.067 114.724C627.067 114.49 627.004 114.346 626.878 114.292C626.752 114.238 626.401 114.193 625.825 114.157H625.258C625.15 114.05 625.096 113.978 625.096 113.942C625.096 113.906 625.114 113.735 625.15 113.429C625.24 113.087 625.357 112.916 625.501 112.916ZM625.123 122.552C624.71 121.13 624.035 120.419 623.099 120.419C622.469 120.419 621.867 120.698 621.291 121.256C620.715 121.814 620.265 122.543 619.941 123.442C619.419 124.864 619.05 126.339 618.835 127.869C618.835 127.923 618.835 128.022 618.835 128.166C618.835 128.31 618.826 128.418 618.808 128.49C618.808 129.299 618.969 129.857 619.293 130.163C619.617 130.469 620.004 130.631 620.454 130.649C621.426 130.649 622.424 130.001 623.45 128.706L623.666 128.409L625.123 122.552Z" fill="white"/>
</g>
<g id="Group_39">
<path id="Vector_33" d="M635.083 131.648C633.734 131.648 632.645 131.207 631.817 130.325C630.99 129.443 630.576 128.382 630.576 127.14C630.576 125.97 630.846 124.864 631.386 123.82C631.925 122.777 632.663 121.868 633.599 121.094C634.966 119.996 636.361 119.448 637.782 119.448C638.358 119.448 638.718 119.457 638.862 119.475C639.096 119.529 639.33 119.592 639.564 119.664C639.798 119.736 640.113 119.88 640.508 120.095C640.904 120.311 641.228 120.581 641.48 120.905C641.732 121.229 641.966 121.67 642.182 122.228C642.398 122.786 642.506 123.415 642.506 124.117C642.506 126.042 641.732 127.779 640.185 129.326C638.637 130.874 636.937 131.648 635.083 131.648ZM632.924 128.112C632.924 129.011 633.158 129.659 633.626 130.055C634.094 130.451 634.624 130.649 635.218 130.649C636.01 130.649 636.757 130.361 637.458 129.785C638.16 129.209 638.718 128.454 639.132 127.518C639.294 127.14 639.501 126.474 639.753 125.521C640.005 124.567 640.131 123.739 640.131 123.037C640.131 122.246 639.969 121.643 639.645 121.229C639.213 120.689 638.637 120.419 637.917 120.419C636.784 120.419 635.785 120.941 634.921 121.985C634.256 122.777 633.761 123.829 633.437 125.143C633.113 126.456 632.942 127.446 632.924 128.112Z" fill="white"/>
</g>
<g id="Group_40">
<path id="Vector_34" d="M646.285 123.55C646.285 122.975 646.429 122.39 646.717 121.796C647.004 121.202 647.508 120.653 648.228 120.149C648.948 119.646 649.821 119.403 650.846 119.421C651.962 119.421 652.772 119.664 653.275 120.149C653.779 120.635 654.04 121.175 654.058 121.769C654.058 122.345 653.905 122.768 653.599 123.037C653.293 123.307 652.951 123.451 652.574 123.469C652.34 123.469 652.124 123.397 651.926 123.253C651.728 123.109 651.62 122.876 651.602 122.552C651.602 122.264 651.683 122.012 651.845 121.796C652.007 121.58 652.16 121.418 652.304 121.31C652.448 121.202 652.565 121.148 652.655 121.148C652.673 121.148 652.682 121.139 652.682 121.121C652.682 121.067 652.619 120.986 652.493 120.878C652.367 120.77 652.142 120.671 651.818 120.581C651.494 120.491 651.143 120.437 650.765 120.419C649.902 120.419 649.272 120.653 648.876 121.121C648.48 121.589 648.273 122.066 648.255 122.552C648.255 123.002 648.426 123.316 648.768 123.496C649.11 123.676 649.605 123.829 650.252 123.955C650.9 124.081 651.368 124.216 651.656 124.36C652.844 124.882 653.437 125.746 653.437 126.951C653.437 127.455 653.338 127.959 653.14 128.463C652.942 128.966 652.646 129.47 652.25 129.974C651.854 130.478 651.287 130.874 650.549 131.162C649.812 131.45 648.966 131.603 648.012 131.621C646.627 131.621 645.646 131.36 645.07 130.838C644.494 130.316 644.197 129.704 644.179 129.002C644.179 128.301 644.368 127.797 644.746 127.491C645.124 127.185 645.52 127.032 645.934 127.032C646.204 127.032 646.456 127.113 646.69 127.275C646.924 127.437 647.049 127.716 647.067 128.112C647.067 128.58 646.906 128.975 646.582 129.299C646.258 129.623 645.979 129.785 645.745 129.785C645.709 129.803 645.682 129.812 645.664 129.812C645.646 129.812 645.637 129.83 645.637 129.866C645.655 129.92 645.727 129.992 645.853 130.082C645.979 130.172 646.258 130.289 646.69 130.433C647.121 130.577 647.616 130.64 648.174 130.622C648.822 130.622 649.38 130.523 649.848 130.325C650.315 130.127 650.657 129.875 650.873 129.569C651.089 129.263 651.242 128.984 651.332 128.733C651.422 128.481 651.467 128.256 651.467 128.058C651.467 127.554 651.278 127.176 650.9 126.924C650.522 126.672 650.09 126.519 649.605 126.465C649.119 126.411 648.588 126.276 648.012 126.06C647.436 125.845 647.013 125.53 646.744 125.116C646.438 124.666 646.285 124.144 646.285 123.55Z" fill="white"/>
</g>
</g>
</g>
</g>
<g id="Group_41">
<g id="Group_42">
<g id="Group_43">
<path id="Vector_35" d="M355.299 224.803L354.802 224.994C354.446 225.121 353.937 225.249 353.275 225.376C352.613 225.503 351.875 225.592 351.061 225.643H350.336V223.887H351.061C352.257 223.836 353.364 223.645 354.382 223.314C355.4 222.984 356.113 222.678 356.52 222.398C356.927 222.118 357.284 221.838 357.589 221.558C357.64 221.482 357.793 221.444 358.047 221.444C358.276 221.444 358.493 221.52 358.696 221.673V233.088L358.734 244.541C358.913 244.719 359.065 244.833 359.193 244.884C359.32 244.935 359.625 244.986 360.109 245.037C360.592 245.088 361.381 245.113 362.476 245.113H363.468V246.869H363.048C362.514 246.793 360.491 246.755 356.978 246.755C353.517 246.755 351.519 246.793 350.985 246.869H350.526V245.113H351.519C352.079 245.113 352.563 245.113 352.97 245.113C353.377 245.113 353.695 245.101 353.924 245.075C354.153 245.05 354.357 245.012 354.535 244.961C354.713 244.91 354.815 244.884 354.84 244.884C354.866 244.884 354.942 244.821 355.069 244.693C355.197 244.566 355.273 244.515 355.299 244.541V224.803Z" fill="white"/>
</g>
<g id="Group_44">
<path id="Vector_36" d="M369.197 221.432C368.711 221.432 368.325 221.27 368.037 220.946C367.749 220.623 367.605 220.227 367.605 219.759C367.605 218.481 368.082 217.375 369.035 216.439C369.989 215.503 371.177 215.035 372.598 215.035C374.236 215.035 375.603 215.539 376.701 216.547C377.798 217.555 378.356 218.859 378.374 220.461C378.374 221.234 378.194 221.972 377.834 222.674C377.475 223.376 377.043 223.987 376.539 224.509C376.035 225.031 375.315 225.697 374.38 226.507C373.732 227.064 372.832 227.892 371.68 228.99L370.088 230.501L372.139 230.528C374.964 230.528 376.467 230.483 376.647 230.393C376.773 230.357 376.989 229.557 377.295 227.991V227.91H378.374V227.991C378.356 228.045 378.239 228.864 378.023 230.447C377.807 232.031 377.672 232.858 377.618 232.93V233.011H367.605V232.499V232.175C367.605 232.049 367.659 231.914 367.767 231.77C367.875 231.626 368.145 231.311 368.577 230.825C369.098 230.249 369.548 229.745 369.926 229.314C370.088 229.134 370.394 228.801 370.844 228.315C371.294 227.829 371.6 227.496 371.761 227.316C371.923 227.136 372.184 226.839 372.544 226.426C372.904 226.012 373.156 225.706 373.3 225.508C373.444 225.31 373.651 225.04 373.921 224.698C374.191 224.356 374.38 224.068 374.488 223.834C374.596 223.601 374.73 223.34 374.892 223.052C375.054 222.764 375.171 222.476 375.243 222.188C375.315 221.9 375.378 221.63 375.432 221.378C375.486 221.126 375.513 220.829 375.513 220.488C375.513 219.354 375.207 218.373 374.596 217.546C373.984 216.718 373.111 216.304 371.977 216.304C371.384 216.304 370.862 216.457 370.412 216.763C369.962 217.069 369.647 217.366 369.467 217.654C369.287 217.941 369.197 218.112 369.197 218.166C369.197 218.184 369.242 218.193 369.332 218.193C369.656 218.193 369.989 218.319 370.331 218.571C370.673 218.823 370.844 219.237 370.844 219.813C370.844 220.263 370.7 220.641 370.412 220.946C370.124 221.252 369.719 221.414 369.197 221.432Z" fill="white"/>
</g>
</g>
<g id="Group_45">
<path id="Vector_37" d="M392.284 237.822C392.284 237.822 392.284 237.656 392.284 237.325C392.284 236.994 392.462 236.74 392.819 236.562H404.233V230.835L404.272 225.109C404.526 224.778 404.768 224.613 404.997 224.613C405.328 224.613 405.582 224.803 405.76 225.185V236.562H417.137C417.519 236.765 417.71 237.02 417.71 237.325C417.71 237.631 417.519 237.885 417.137 238.089H405.76V249.466C405.557 249.822 405.328 250 405.073 250H404.997H404.921C404.615 250 404.386 249.822 404.233 249.466V238.089H392.819C392.462 237.911 392.284 237.656 392.284 237.325V237.822Z" fill="white"/>
</g>
<g id="Group_46">
<g id="Group_47">
<path id="Vector_38" d="M432.492 230.492C431.804 230.492 431.257 230.263 430.85 229.804C430.443 229.346 430.239 228.786 430.239 228.125C430.239 226.318 430.914 224.752 432.262 223.429C433.611 222.106 435.291 221.444 437.302 221.444C439.618 221.444 441.552 222.156 443.105 223.582C444.657 225.007 445.446 226.852 445.472 229.117C445.472 230.212 445.217 231.255 444.708 232.248C444.199 233.24 443.588 234.106 442.876 234.844C442.163 235.582 441.145 236.524 439.821 237.669C438.905 238.458 437.633 239.629 436.004 241.181L433.751 243.319L436.653 243.357C440.649 243.357 442.774 243.294 443.028 243.166C443.206 243.115 443.512 241.983 443.945 239.769V239.654H445.472V239.769C445.446 239.845 445.281 241.003 444.975 243.243C444.67 245.482 444.479 246.653 444.403 246.755V246.869H430.239V246.144V245.686C430.239 245.508 430.315 245.317 430.468 245.113C430.621 244.91 431.003 244.464 431.613 243.777C432.352 242.963 432.988 242.25 433.522 241.639C433.751 241.385 434.184 240.914 434.82 240.227C435.457 239.54 435.889 239.069 436.118 238.814C436.347 238.56 436.716 238.14 437.225 237.554C437.734 236.969 438.091 236.536 438.294 236.256C438.498 235.976 438.791 235.595 439.172 235.111C439.554 234.627 439.821 234.22 439.974 233.889C440.127 233.559 440.318 233.189 440.547 232.782C440.776 232.375 440.941 231.968 441.043 231.561C441.145 231.153 441.234 230.772 441.31 230.415C441.387 230.059 441.425 229.639 441.425 229.155C441.425 227.552 440.992 226.165 440.127 224.994C439.262 223.823 438.027 223.238 436.424 223.238C435.584 223.238 434.846 223.454 434.21 223.887C433.573 224.32 433.128 224.74 432.873 225.147C432.619 225.554 432.492 225.796 432.492 225.872C432.492 225.898 432.555 225.91 432.682 225.91C433.141 225.91 433.611 226.089 434.095 226.445C434.579 226.801 434.82 227.387 434.82 228.201C434.82 228.837 434.617 229.372 434.21 229.804C433.802 230.237 433.23 230.466 432.492 230.492Z" fill="white"/>
</g>
<g id="Group_48">
<path id="Vector_39" d="M450.361 221.432C449.875 221.432 449.488 221.27 449.2 220.946C448.912 220.623 448.768 220.227 448.768 219.759C448.768 218.481 449.245 217.375 450.199 216.439C451.152 215.503 452.34 215.035 453.762 215.035C455.399 215.035 456.766 215.539 457.864 216.547C458.962 217.555 459.52 218.859 459.538 220.461C459.538 221.234 459.358 221.972 458.998 222.674C458.638 223.376 458.206 223.987 457.702 224.509C457.198 225.031 456.479 225.697 455.543 226.507C454.895 227.064 453.995 227.892 452.844 228.99L451.251 230.501L453.303 230.528C456.128 230.528 457.63 230.483 457.81 230.393C457.936 230.357 458.152 229.557 458.458 227.991V227.91H459.538V227.991C459.52 228.045 459.403 228.864 459.187 230.447C458.971 232.031 458.836 232.858 458.782 232.93V233.011H448.768V232.499V232.175C448.768 232.049 448.822 231.914 448.93 231.77C449.038 231.626 449.308 231.311 449.74 230.825C450.262 230.249 450.712 229.745 451.089 229.314C451.251 229.134 451.557 228.801 452.007 228.315C452.457 227.829 452.763 227.496 452.925 227.316C453.087 227.136 453.348 226.839 453.708 226.426C454.067 226.012 454.319 225.706 454.463 225.508C454.607 225.31 454.814 225.04 455.084 224.698C455.354 224.356 455.543 224.068 455.651 223.834C455.759 223.601 455.894 223.34 456.056 223.052C456.218 222.764 456.335 222.476 456.407 222.188C456.479 221.9 456.542 221.63 456.596 221.378C456.65 221.126 456.677 220.829 456.677 220.488C456.677 219.354 456.371 218.373 455.759 217.546C455.147 216.718 454.274 216.304 453.141 216.304C452.547 216.304 452.025 216.457 451.575 216.763C451.125 217.069 450.811 217.366 450.631 217.654C450.451 217.941 450.361 218.112 450.361 218.166C450.361 218.184 450.406 218.193 450.496 218.193C450.819 218.193 451.152 218.319 451.494 218.571C451.836 218.823 452.007 219.237 452.007 219.813C452.007 220.263 451.863 220.641 451.575 220.946C451.287 221.252 450.882 221.414 450.361 221.432Z" fill="white"/>
</g>
</g>
<g id="Group_49">
<path id="Vector_40" d="M473.447 237.822C473.447 237.822 473.447 237.656 473.447 237.325C473.447 236.994 473.626 236.74 473.982 236.562H485.397V230.835L485.435 225.109C485.689 224.778 485.931 224.613 486.16 224.613C486.491 224.613 486.746 224.803 486.924 225.185V236.562H498.3C498.682 236.765 498.873 237.02 498.873 237.325C498.873 237.631 498.682 237.885 498.3 238.089H486.924V249.466C486.72 249.822 486.491 250 486.237 250H486.16H486.084C485.778 250 485.549 249.822 485.397 249.466V238.089H473.982C473.626 237.911 473.447 237.656 473.447 237.325V237.822Z" fill="white"/>
</g>
<g id="Group_50">
<g id="Group_51">
<path id="Vector_41" d="M514.342 229.194C513.655 229.194 513.121 228.977 512.739 228.545C512.357 228.112 512.154 227.552 512.128 226.865C512.128 225.465 512.739 224.218 513.961 223.124C515.182 222.029 516.658 221.482 518.389 221.482C519.28 221.482 519.84 221.495 520.069 221.52C521.952 221.826 523.39 222.5 524.383 223.544C525.375 224.587 525.885 225.72 525.91 226.941C525.91 228.265 525.477 229.55 524.612 230.797C523.747 232.044 522.55 232.948 521.023 233.508L520.909 233.584C520.909 233.609 521.023 233.648 521.252 233.699C521.481 233.749 521.851 233.864 522.36 234.042C522.869 234.22 523.352 234.488 523.81 234.844C525.897 236.193 526.941 237.974 526.941 240.189C526.941 242.199 526.152 243.955 524.574 245.457C522.996 246.959 520.998 247.709 518.58 247.709C516.544 247.709 514.788 247.162 513.312 246.068C511.835 244.973 511.097 243.586 511.097 241.907C511.097 241.194 511.326 240.621 511.785 240.189C512.243 239.756 512.815 239.527 513.503 239.501C514.215 239.501 514.801 239.73 515.259 240.189C515.717 240.647 515.946 241.219 515.946 241.907C515.946 242.186 515.908 242.441 515.831 242.67C515.755 242.899 515.666 243.103 515.564 243.281C515.462 243.459 515.322 243.612 515.144 243.739C514.966 243.866 514.813 243.968 514.686 244.044C514.559 244.121 514.432 244.172 514.304 244.197C514.177 244.223 514.075 244.261 513.999 244.312L513.846 244.35C515.144 245.495 516.722 246.068 518.58 246.068C519.98 246.068 521.036 245.393 521.749 244.044C522.181 243.205 522.398 241.919 522.398 240.189V239.425C522.398 237.007 521.583 235.391 519.954 234.577C519.573 234.424 518.796 234.335 517.626 234.309L516.022 234.271L515.908 234.195C515.857 234.118 515.831 233.915 515.831 233.584C515.831 233.126 515.933 232.897 516.137 232.897C516.849 232.897 517.587 232.833 518.351 232.706C519.216 232.579 520.005 232.044 520.718 231.103C521.431 230.161 521.787 228.736 521.787 226.827V226.521C521.787 225.071 521.341 224.065 520.451 223.505C519.891 223.149 519.293 222.971 518.656 222.971C517.842 222.971 517.091 223.111 516.404 223.391C515.717 223.671 515.233 223.963 514.953 224.269C514.673 224.574 514.533 224.727 514.533 224.727H514.648C514.724 224.752 514.826 224.778 514.953 224.803C515.081 224.829 515.208 224.892 515.335 224.994C515.462 225.096 515.615 225.185 515.793 225.261C515.971 225.338 516.099 225.478 516.175 225.681C516.251 225.885 516.353 226.076 516.48 226.254C516.608 226.432 516.646 226.687 516.595 227.018C516.595 227.578 516.417 228.074 516.06 228.507C515.704 228.939 515.131 229.168 514.342 229.194Z" fill="white"/>
</g>
<g id="Group_52">
<path id="Vector_42" d="M531.524 221.432C531.039 221.432 530.652 221.27 530.364 220.946C530.076 220.623 529.932 220.227 529.932 219.759C529.932 218.481 530.409 217.375 531.363 216.439C532.316 215.503 533.504 215.035 534.925 215.035C536.563 215.035 537.93 215.539 539.028 216.547C540.126 217.555 540.683 218.859 540.701 220.461C540.701 221.234 540.521 221.972 540.162 222.674C539.802 223.376 539.37 223.987 538.866 224.509C538.362 225.031 537.642 225.697 536.707 226.507C536.059 227.064 535.159 227.892 534.008 228.99L532.415 230.501L534.466 230.528C537.292 230.528 538.794 230.483 538.974 230.393C539.1 230.357 539.316 229.557 539.622 227.991V227.91H540.701V227.991C540.683 228.045 540.566 228.864 540.35 230.447C540.135 232.031 540 232.858 539.946 232.93V233.011H529.932V232.499V232.175C529.932 232.049 529.986 231.914 530.094 231.77C530.202 231.626 530.472 231.311 530.904 230.825C531.426 230.249 531.875 229.746 532.253 229.314C532.415 229.134 532.721 228.801 533.171 228.315C533.621 227.829 533.927 227.496 534.089 227.316C534.251 227.136 534.511 226.839 534.871 226.426C535.231 226.012 535.483 225.706 535.627 225.508C535.771 225.31 535.978 225.04 536.248 224.698C536.518 224.356 536.707 224.068 536.815 223.835C536.923 223.601 537.058 223.34 537.22 223.052C537.381 222.764 537.498 222.476 537.57 222.188C537.642 221.9 537.705 221.63 537.759 221.378C537.813 221.126 537.84 220.83 537.84 220.488C537.84 219.354 537.534 218.373 536.923 217.546C536.311 216.718 535.438 216.304 534.305 216.304C533.711 216.304 533.189 216.457 532.739 216.763C532.289 217.069 531.974 217.366 531.794 217.654C531.614 217.941 531.524 218.112 531.524 218.166C531.524 218.184 531.569 218.193 531.659 218.193C531.983 218.193 532.316 218.319 532.658 218.571C533 218.823 533.171 219.237 533.171 219.813C533.171 220.263 533.027 220.641 532.739 220.946C532.451 221.252 532.046 221.414 531.524 221.432Z" fill="white"/>
</g>
</g>
<g id="Group_53">
<path id="Vector_43" d="M554.611 237.822C554.611 237.822 554.611 237.656 554.611 237.325C554.611 236.994 554.789 236.74 555.146 236.562H566.56V230.835L566.599 225.109C566.853 224.778 567.095 224.613 567.324 224.613C567.655 224.613 567.909 224.803 568.087 225.185V236.562H579.464C579.846 236.765 580.037 237.02 580.037 237.325C580.037 237.631 579.846 237.885 579.464 238.089H568.087V249.466C567.884 249.822 567.655 250 567.4 250H567.324H567.248C566.942 250 566.713 249.822 566.56 249.466V238.089H555.146C554.789 237.911 554.611 237.656 554.611 237.325V237.822Z" fill="white"/>
</g>
<g id="Group_54">
<path id="Vector_44" d="M593.635 237.325C593.635 236.715 593.852 236.18 594.284 235.722C594.717 235.264 595.264 235.035 595.926 235.035C596.537 235.035 597.071 235.238 597.529 235.646C597.987 236.053 598.229 236.6 598.255 237.287C598.255 237.923 598.038 238.471 597.606 238.929C597.173 239.387 596.626 239.616 595.964 239.616C595.302 239.616 594.755 239.4 594.322 238.967C593.89 238.534 593.661 237.987 593.635 237.325ZM610.7 237.325C610.7 236.715 610.917 236.18 611.349 235.722C611.782 235.264 612.329 235.035 612.991 235.035C613.602 235.035 614.136 235.238 614.594 235.646C615.052 236.053 615.294 236.6 615.32 237.287C615.32 237.923 615.103 238.471 614.671 238.929C614.238 239.387 613.691 239.616 613.029 239.616C612.367 239.616 611.82 239.4 611.387 238.967C610.955 238.534 610.726 237.987 610.7 237.325ZM627.765 237.325C627.765 236.715 627.982 236.18 628.414 235.722C628.847 235.264 629.394 235.035 630.056 235.035C630.667 235.035 631.201 235.238 631.659 235.646C632.117 236.053 632.359 236.6 632.385 237.287C632.385 237.923 632.168 238.471 631.736 238.929C631.303 239.387 630.756 239.616 630.094 239.616C629.432 239.616 628.885 239.4 628.452 238.967C628.02 238.534 627.791 237.987 627.765 237.325Z" fill="white"/>
</g>
<g id="Group_55">
<path id="Vector_45" d="M646.021 237.822C646.021 237.822 646.021 237.656 646.021 237.325C646.021 236.994 646.2 236.74 646.556 236.562H657.971V230.835L658.009 225.109C658.263 224.778 658.505 224.613 658.734 224.613C659.065 224.613 659.32 224.803 659.498 225.185V236.562H670.874C671.256 236.765 671.447 237.02 671.447 237.325C671.447 237.631 671.256 237.885 670.874 238.089H659.498V249.466C659.294 249.822 659.065 250 658.811 250H658.734H658.658C658.353 250 658.123 249.822 657.971 249.466V238.089H646.556C646.2 237.911 646.021 237.656 646.021 237.325V237.822Z" fill="white"/>
</g>
<g id="Group_56">
<g id="Group_57">
<path id="Vector_46" d="M682.87 235.913C682.895 235.76 682.933 235.556 682.984 235.302C683.035 235.047 683.188 234.564 683.442 233.851C683.697 233.139 683.951 232.541 684.206 232.057C684.46 231.573 684.88 231.103 685.466 230.644C686.051 230.186 686.636 229.97 687.222 229.995C688.138 229.995 688.902 230.224 689.512 230.683C690.123 231.141 690.505 231.573 690.658 231.981C690.81 232.388 690.887 232.655 690.887 232.782C690.887 232.833 690.899 232.859 690.925 232.859L691.345 232.439C692.897 230.81 694.666 229.995 696.651 229.995C698.026 229.995 699.133 230.339 699.973 231.026C700.813 231.713 701.245 232.719 701.271 234.042C701.296 235.366 700.813 237.364 699.82 240.036C698.827 242.708 698.344 244.324 698.369 244.884C698.369 245.546 698.586 245.877 699.018 245.877C699.171 245.877 699.286 245.864 699.362 245.839C700.1 245.711 700.762 245.228 701.347 244.388C701.933 243.548 702.378 242.53 702.683 241.334C702.734 241.13 702.989 241.028 703.447 241.028C703.956 241.028 704.21 241.13 704.21 241.334C704.21 241.359 704.159 241.55 704.058 241.907C703.854 242.645 703.574 243.37 703.218 244.083C702.861 244.795 702.276 245.508 701.462 246.221C700.647 246.933 699.769 247.277 698.827 247.251C697.631 247.251 696.766 246.908 696.231 246.221C695.697 245.533 695.43 244.821 695.43 244.083C695.43 243.599 695.888 242.072 696.804 239.501C697.72 236.931 698.191 234.997 698.217 233.699C698.217 232.197 697.657 231.446 696.537 231.446H696.346C694.157 231.446 692.312 232.731 690.81 235.302L690.543 235.76L689.283 240.876C688.443 244.21 687.96 246.004 687.833 246.259C687.502 246.946 686.955 247.289 686.191 247.289C685.86 247.289 685.593 247.213 685.389 247.06C685.186 246.908 685.046 246.755 684.969 246.602C684.893 246.45 684.868 246.322 684.893 246.221C684.893 245.89 685.377 243.815 686.344 239.998C687.311 236.18 687.82 234.106 687.871 233.775C687.896 233.648 687.909 233.355 687.909 232.897C687.909 231.904 687.604 231.408 686.993 231.408C686.026 231.408 685.224 232.681 684.588 235.226C684.435 235.735 684.359 236.002 684.359 236.027C684.308 236.18 684.066 236.256 683.633 236.256H683.099C682.946 236.104 682.87 235.989 682.87 235.913Z" fill="white"/>
</g>
<g id="Group_58">
<path id="Vector_47" d="M707.916 221.432C707.43 221.432 707.043 221.27 706.755 220.946C706.467 220.623 706.323 220.227 706.323 219.759C706.323 218.481 706.8 217.375 707.754 216.439C708.707 215.503 709.895 215.035 711.316 215.035C712.954 215.035 714.321 215.539 715.419 216.547C716.517 217.555 717.074 218.859 717.092 220.461C717.092 221.234 716.913 221.972 716.553 222.674C716.193 223.376 715.761 223.987 715.257 224.509C714.753 225.031 714.034 225.697 713.098 226.507C712.45 227.064 711.55 227.892 710.399 228.99L708.806 230.501L710.858 230.528C713.683 230.528 715.185 230.483 715.365 230.393C715.491 230.357 715.707 229.557 716.013 227.991V227.91H717.092V227.991C717.074 228.045 716.958 228.864 716.742 230.447C716.526 232.031 716.391 232.858 716.337 232.93V233.011H706.323V232.499V232.175C706.323 232.049 706.377 231.914 706.485 231.77C706.593 231.626 706.863 231.311 707.295 230.825C707.817 230.249 708.266 229.746 708.644 229.314C708.806 229.134 709.112 228.801 709.562 228.315C710.012 227.829 710.318 227.496 710.48 227.316C710.642 227.136 710.903 226.839 711.262 226.426C711.622 226.012 711.874 225.706 712.018 225.508C712.162 225.31 712.369 225.04 712.639 224.698C712.909 224.356 713.098 224.068 713.206 223.835C713.314 223.601 713.449 223.34 713.611 223.052C713.773 222.764 713.89 222.476 713.962 222.188C714.034 221.9 714.097 221.63 714.15 221.378C714.204 221.126 714.231 220.83 714.231 220.488C714.231 219.354 713.926 218.373 713.314 217.546C712.702 216.718 711.829 216.304 710.696 216.304C710.102 216.304 709.58 216.457 709.13 216.763C708.68 217.069 708.365 217.366 708.185 217.654C708.006 217.941 707.916 218.112 707.916 218.166C707.916 218.184 707.961 218.193 708.051 218.193C708.374 218.193 708.707 218.319 709.049 218.571C709.391 218.823 709.562 219.237 709.562 219.813C709.562 220.263 709.418 220.641 709.13 220.946C708.842 221.252 708.437 221.414 707.916 221.432Z" fill="white"/>
</g>
</g>
</g>
<path id="Vector_48" d="M792.021 208.162H275.525V205.872H792.021V208.162Z" fill="white"/>
</g>
</g>
<g id="Group_59">
<path id="Vector_49" d="M257.428 100.611C257.53 100.305 257.734 100.102 258.039 100H271.134C271.516 100.204 271.707 100.458 271.707 100.764C271.707 101.094 271.516 101.349 271.134 101.527H258.956V123.097C258.752 123.453 258.523 123.631 258.268 123.631H258.192H258.116C257.81 123.631 257.581 123.453 257.428 123.097V100.611Z" fill="white"/>
<path id="Vector_50" d="M258.956 249.466C258.905 249.516 258.841 249.58 258.765 249.656C258.689 249.733 258.638 249.784 258.612 249.809C258.587 249.835 258.549 249.86 258.498 249.885C258.447 249.911 258.37 249.936 258.269 249.962C258.167 249.987 258.04 250 257.887 250H257.429L239.104 194.491L237.5 197.736C236.432 199.899 235.884 200.981 235.859 200.981C235.706 200.854 235.541 200.688 235.363 200.485L234.866 199.989L240.745 188.116L257.429 238.585V209.8L257.467 181.015C257.721 180.684 257.963 180.518 258.192 180.518C258.498 180.518 258.752 180.709 258.956 181.091V249.466Z" fill="white"/>
<g id="Frame_3" clip-path="url(#clip1)">
<path id="Vector_51" d="M258.158 243.495H258.059C257.662 243.495 257.364 242.473 257.166 240.428V173.386L257.215 106.344C257.546 104.445 257.86 103.495 258.158 103.495C258.555 103.495 258.886 104.591 259.15 106.782V240.428C258.886 242.473 258.588 243.495 258.257 243.495H258.158Z" fill="white"/>
</g>
</g>
<path id="Vector_52" d="M796.602 102.291H270.943V100H796.602V102.291Z" fill="white"/>
</g>
</g>
</g>
</g>
<g id="claves">
<path id="Rectangle 4" d="M39 367H255.745L289 407L255.745 447H39V367Z" fill="#CD08D1" fill-opacity="0.1"/>
<path id="Rectangle 4 (Stroke)" fill-rule="evenodd" clip-rule="evenodd" d="M254.338 370H42V444H254.338L285.099 407L254.338 370ZM255.745 367H39V447H255.745L289 407L255.745 367Z" fill="#CD08D1"/>
<path id="Rectangle 5" d="M43 477H259.745L293 517L259.745 557H43V477Z" fill="#CD08D1" fill-opacity="0.1"/>
<path id="Rectangle 5 (Stroke)" fill-rule="evenodd" clip-rule="evenodd" d="M258.338 480H46V554H258.338L289.099 517L258.338 480ZM259.745 477H43V557H259.745L293 517L259.745 477Z" fill="#CD08D1"/>
<path id="Rectangle 6" d="M379 364H595.745L629 404L595.745 444H379V364Z" fill="#CD08D1" fill-opacity="0.1"/>
<path id="Rectangle 6 (Stroke)" fill-rule="evenodd" clip-rule="evenodd" d="M594.338 367H382V441H594.338L625.099 404L594.338 367ZM595.745 364H379V444H595.745L629 404L595.745 364Z" fill="#CD08D1"/>
<path id="Rectangle 7" d="M382 474H598.745L632 514L598.745 554H382V474Z" fill="#CD08D1" fill-opacity="0.1"/>
<path id="Rectangle 7 (Stroke)" fill-rule="evenodd" clip-rule="evenodd" d="M597.338 477H385V551H597.338L628.099 514L597.338 477ZM598.745 474H382V554H598.745L632 514L598.745 474Z" fill="#CD08D1"/>
<path id="Rectangle 8" d="M725 423H941.745L975 463L941.745 503H725V423Z" fill="#CD08D1" fill-opacity="0.1"/>
<path id="Rectangle 8 (Stroke)" fill-rule="evenodd" clip-rule="evenodd" d="M940.338 426H728V500H940.338L971.099 463L940.338 426ZM941.745 423H725V503H941.745L975 463L941.745 423Z" fill="#CD08D1"/>
<path id="Ellipse 1" d="M80 407C80 429.091 62.0914 447 40 447C17.9086 447 0 429.091 0 407C0 384.909 17.9086 367 40 367C62.0914 367 80 384.909 80 407Z" fill="#CD08D1"/>
<path id="Ellipse 2" d="M84 517C84 539.091 66.0914 557 44 557C21.9086 557 4 539.091 4 517C4 494.909 21.9086 477 44 477C66.0914 477 84 494.909 84 517Z" fill="#CD08D1"/>
<path id="Ellipse 3" d="M420 404C420 426.091 402.091 444 380 444C357.909 444 340 426.091 340 404C340 381.909 357.909 364 380 364C402.091 364 420 381.909 420 404Z" fill="#CD08D1"/>
<path id="Ellipse 4" d="M423 514C423 536.091 405.091 554 383 554C360.909 554 343 536.091 343 514C343 491.909 360.909 474 383 474C405.091 474 423 491.909 423 514Z" fill="#CD08D1"/>
<path id="Ellipse 5" d="M766 463C766 485.091 748.091 503 726 503C703.909 503 686 485.091 686 463C686 440.909 703.909 423 726 423C748.091 423 766 440.909 766 463Z" fill="#CD08D1"/>
<path id="A" d="M48.0938 417.406H30.4688L26.7812 428H18.5625L35.75 382.5H42.8438L60.0625 428H51.8125L48.0938 417.406ZM32.6875 411.031H45.875L39.2812 392.156L32.6875 411.031Z" fill="white"/>
<path id="B" d="M27.625 533V487.5H43.2188C48.3646 487.5 52.2812 488.531 54.9688 490.594C57.6562 492.656 59 495.729 59 499.812C59 501.896 58.4375 503.771 57.3125 505.438C56.1875 507.104 54.5417 508.396 52.375 509.312C54.8333 509.979 56.7292 511.24 58.0625 513.094C59.4167 514.927 60.0938 517.135 60.0938 519.719C60.0938 523.99 58.7188 527.271 55.9688 529.562C53.2396 531.854 49.3229 533 44.2188 533H27.625ZM35.5312 512.469V526.688H44.3125C46.7917 526.688 48.7292 526.073 50.125 524.844C51.5208 523.615 52.2188 521.906 52.2188 519.719C52.2188 514.99 49.8021 512.573 44.9688 512.469H35.5312ZM35.5312 506.656H43.2812C45.7396 506.656 47.6562 506.104 49.0312 505C50.4271 503.875 51.125 502.292 51.125 500.25C51.125 498 50.4792 496.375 49.1875 495.375C47.9167 494.375 45.9271 493.875 43.2188 493.875H35.5312V506.656Z" fill="white"/>
<path id="C" d="M397.344 411.188C396.885 416.042 395.094 419.833 391.969 422.562C388.844 425.271 384.688 426.625 379.5 426.625C375.875 426.625 372.677 425.771 369.906 424.062C367.156 422.333 365.031 419.885 363.531 416.719C362.031 413.552 361.25 409.875 361.188 405.688V401.438C361.188 397.146 361.948 393.365 363.469 390.094C364.99 386.823 367.167 384.302 370 382.531C372.854 380.76 376.146 379.875 379.875 379.875C384.896 379.875 388.938 381.24 392 383.969C395.062 386.698 396.844 390.552 397.344 395.531H389.469C389.094 392.26 388.135 389.906 386.594 388.469C385.073 387.01 382.833 386.281 379.875 386.281C376.438 386.281 373.792 387.542 371.938 390.062C370.104 392.562 369.167 396.24 369.125 401.094V405.125C369.125 410.042 370 413.792 371.75 416.375C373.521 418.958 376.104 420.25 379.5 420.25C382.604 420.25 384.938 419.552 386.5 418.156C388.062 416.76 389.052 414.438 389.469 411.188H397.344Z" fill="white"/>
<path id="D" d="M365.625 536V490.5H379.062C383.083 490.5 386.646 491.396 389.75 493.188C392.875 494.979 395.292 497.521 397 500.812C398.708 504.104 399.562 507.875 399.562 512.125V514.406C399.562 518.719 398.698 522.51 396.969 525.781C395.26 529.052 392.812 531.573 389.625 533.344C386.458 535.115 382.823 536 378.719 536H365.625ZM373.531 496.875V529.688H378.688C382.833 529.688 386.01 528.396 388.219 525.812C390.448 523.208 391.583 519.479 391.625 514.625V512.094C391.625 507.156 390.552 503.385 388.406 500.781C386.26 498.177 383.146 496.875 379.062 496.875H373.531Z" fill="white"/>
<path id="E" d="M735.219 464.688H716.531V478.688H738.375V485H708.625V439.5H738.156V445.875H716.531V458.438H735.219V464.688Z" fill="white"/>
<g id="1 2 3 4 n">
<path d="M129.95 420H126.136V394.714L118.486 397.523V394.078L129.355 389.997H129.95V420Z" fill="#CD08D1"/>
<path d="M504.423 420H484.858V417.272L495.194 405.788C496.726 404.052 497.778 402.644 498.353 401.563C498.94 400.47 499.234 399.342 499.234 398.18C499.234 396.621 498.763 395.343 497.819 394.345C496.876 393.347 495.618 392.848 494.046 392.848C492.159 392.848 490.689 393.388 489.637 394.468C488.598 395.534 488.078 397.024 488.078 398.938H484.284C484.284 396.19 485.166 393.969 486.93 392.273C488.707 390.578 491.079 389.73 494.046 389.73C496.821 389.73 499.016 390.462 500.629 391.925C502.242 393.374 503.049 395.309 503.049 397.729C503.049 400.668 501.176 404.168 497.43 408.229L489.432 416.903H504.423V420Z" fill="#CD08D1"/>
<path d="M852.256 458.225H855.106C856.897 458.197 858.306 457.726 859.331 456.81C860.356 455.894 860.869 454.656 860.869 453.098C860.869 449.598 859.126 447.848 855.64 447.848C853.999 447.848 852.687 448.319 851.702 449.263C850.731 450.192 850.246 451.43 850.246 452.975H846.452C846.452 450.609 847.313 448.647 849.036 447.089C850.772 445.517 852.974 444.73 855.64 444.73C858.456 444.73 860.664 445.476 862.264 446.966C863.863 448.456 864.663 450.527 864.663 453.18C864.663 454.479 864.239 455.736 863.392 456.953C862.558 458.17 861.416 459.079 859.967 459.681C861.607 460.2 862.872 461.062 863.761 462.265C864.663 463.468 865.114 464.938 865.114 466.674C865.114 469.354 864.239 471.479 862.489 473.052C860.739 474.624 858.463 475.41 855.66 475.41C852.857 475.41 850.574 474.651 848.811 473.134C847.061 471.616 846.186 469.613 846.186 467.125H850C850 468.697 850.513 469.955 851.538 470.898C852.563 471.842 853.938 472.313 855.66 472.313C857.492 472.313 858.894 471.835 859.864 470.878C860.835 469.921 861.32 468.547 861.32 466.756C861.32 465.02 860.787 463.687 859.721 462.757C858.654 461.827 857.116 461.349 855.106 461.321H852.256V458.225Z" fill="#CD08D1"/>
<path d="M133.498 519.972H137.641V523.068H133.498V530H129.684V523.068H116.087V520.833L129.458 500.141H133.498V519.972ZM120.394 519.972H129.684V505.329L129.232 506.149L120.394 519.972Z" fill="#CD08D1"/>
<path d="M499.255 507.811L499.378 510.6C501.073 508.467 503.288 507.4 506.022 507.4C510.712 507.4 513.077 510.046 513.118 515.337V530H509.324V515.316C509.311 513.717 508.941 512.534 508.217 511.769C507.506 511.003 506.392 510.62 504.874 510.62C503.644 510.62 502.563 510.948 501.634 511.604C500.704 512.261 499.979 513.122 499.46 514.188V530H495.666V507.811H499.255Z" fill="#CD08D1"/>
</g>
<g id="flecha">
<path id="Rectangle 2" d="M387.2 365.008L402.482 373.133L360.5 452.089L345.218 443.963L387.2 365.008Z" fill="#1043F5"/>
<path id="Rectangle 1_2" d="M329 377.904L419 328V385.692L374 368.096L329 377.904Z" fill="#1043F5"/>
<path id="Rectangle 3" d="M333.038 447.21L348.666 420.143L365.936 419.565L350.309 446.632L333.038 447.21Z" fill="#1043F5"/>
<path id="Rectangle 4_2" d="M359.089 461.845L374.717 434.778L365.926 419.154L350.299 446.221L359.089 461.845Z" fill="#1043F5"/>
</g>
</g>
</g>
<defs>
<clipPath id="clip0">
<rect width="192.918" height="27.4872" fill="white" transform="matrix(1 0 0 -1 582 166.487)"/>
</clipPath>
<clipPath id="clip1">
<rect width="40" height="104" fill="white" transform="matrix(1 0 0 -1 231 217)"/>
</clipPath>
</defs>
</svg>
