<svg viewBox="0 0 987 522" fill="none" xmlns="http://www.w3.org/2000/svg">
<g id="0123112">
<g id="enunciado">
<path id="Rectangle 1" d="M24 37.3921C24 17.7902 47.3431 1.89966 76.1382 1.89966H975V247.508C975 267.11 951.657 283 922.862 283H24V37.3921Z" fill="#02071A"/>
<path id="Rectangle 1 (Stroke)" fill-rule="evenodd" clip-rule="evenodd" d="M969.786 5.41949H76.1382C50.2226 5.41949 29.2138 19.7225 29.2138 37.3661V279.45H922.862C948.777 279.45 969.786 265.147 969.786 247.503V5.41949ZM76.1382 1.86987C47.3431 1.86987 24 17.7621 24 37.3661V283H922.862C951.657 283 975 267.107 975 247.503V1.86987H76.1382Z" fill="#CD08D1"/>
<path id="Rectangle 14" d="M80.4656 1.96318C108.352 -2.45398 975 1.96318 975 1.96318V21.086C975 21.086 65.7105 14.0573 33.3849 21.086C43.4431 10.9435 52.5796 6.38035 80.4656 1.96318Z" fill="#CD08D1"/>
<path id="Rectangle 15" d="M942 6.07788H973V248.239C969.195 264.672 961.308 270.712 942 278.596C947.683 265.686 942 6.07788 942 6.07788Z" fill="#CD08D1"/>
<g id="Calcule el valor de:">
<path d="M70.4297 51.6731C70.0605 54.8313 68.8916 57.2717 66.9229 58.9944C64.9678 60.7034 62.3633 61.5579 59.1094 61.5579C55.582 61.5579 52.752 60.2932 50.6191 57.7639C48.5 55.2346 47.4404 51.8508 47.4404 47.6125V44.7415C47.4404 41.9661 47.9326 39.5256 48.917 37.4202C49.915 35.3147 51.3232 33.7014 53.1416 32.5803C54.96 31.4456 57.0654 30.8782 59.458 30.8782C62.6299 30.8782 65.1729 31.7668 67.0869 33.5442C69.001 35.3079 70.1152 37.7551 70.4297 40.886H66.4717C66.1299 38.5071 65.3848 36.7844 64.2363 35.718C63.1016 34.6516 61.5088 34.1184 59.458 34.1184C56.9424 34.1184 54.9668 35.0481 53.5312 36.9075C52.1094 38.7668 51.3984 41.4124 51.3984 44.844V47.7356C51.3984 50.9758 52.0752 53.553 53.4287 55.467C54.7822 57.3811 56.6758 58.3381 59.1094 58.3381C61.2969 58.3381 62.9717 57.8459 64.1338 56.8616C65.3096 55.8635 66.0889 54.134 66.4717 51.6731H70.4297Z" fill="white"/>
<path d="M88.9277 61.1477C88.709 60.7102 88.5312 59.9309 88.3945 58.8098C86.6309 60.6418 84.5254 61.5579 82.0781 61.5579C79.8906 61.5579 78.0928 60.9426 76.6846 59.7122C75.29 58.468 74.5928 56.8958 74.5928 54.9954C74.5928 52.6848 75.4678 50.8938 77.2178 49.6223C78.9814 48.3372 81.4561 47.6946 84.6416 47.6946H88.333V45.9514C88.333 44.6252 87.9365 43.5725 87.1436 42.7932C86.3506 42.0002 85.1816 41.6038 83.6367 41.6038C82.2832 41.6038 81.1484 41.9456 80.2324 42.6292C79.3164 43.3127 78.8584 44.1399 78.8584 45.1106H75.0439C75.0439 44.0032 75.4336 42.9368 76.2129 41.9114C77.0059 40.8723 78.0723 40.052 79.4121 39.4504C80.7656 38.8489 82.249 38.5481 83.8623 38.5481C86.4189 38.5481 88.4219 39.1907 89.8711 40.4758C91.3203 41.7473 92.0723 43.5042 92.127 45.7463V55.9592C92.127 57.9963 92.3867 59.6165 92.9062 60.8196V61.1477H88.9277ZM82.6318 58.2561C83.8213 58.2561 84.9492 57.9485 86.0156 57.3333C87.082 56.718 87.8545 55.9182 88.333 54.9338V50.3811H85.3594C80.7109 50.3811 78.3867 51.7415 78.3867 54.4622C78.3867 55.6516 78.7832 56.5813 79.5762 57.2512C80.3691 57.9211 81.3877 58.2561 82.6318 58.2561Z" fill="white"/>
<path d="M102.196 61.1477H98.4023V29.6477H102.196V61.1477Z" fill="white"/>
<path d="M117.188 58.4612C118.541 58.4612 119.724 58.051 120.735 57.2307C121.747 56.4104 122.308 55.385 122.417 54.1545H126.006C125.938 55.426 125.5 56.636 124.693 57.7844C123.887 58.9329 122.807 59.8489 121.453 60.5325C120.113 61.2161 118.691 61.5579 117.188 61.5579C114.166 61.5579 111.76 60.553 109.969 58.5432C108.191 56.5198 107.303 53.7581 107.303 50.2581V49.6223C107.303 47.4622 107.699 45.5413 108.492 43.8596C109.285 42.178 110.42 40.8723 111.896 39.9426C113.387 39.0129 115.144 38.5481 117.167 38.5481C119.655 38.5481 121.72 39.2932 123.36 40.7834C125.015 42.2737 125.896 44.2083 126.006 46.5872H122.417C122.308 45.1516 121.761 43.9758 120.776 43.0598C119.806 42.1301 118.603 41.6653 117.167 41.6653C115.239 41.6653 113.742 42.3625 112.676 43.7571C111.623 45.1379 111.097 47.1409 111.097 49.7659V50.4836C111.097 53.0403 111.623 55.009 112.676 56.3899C113.729 57.7708 115.232 58.4612 117.188 58.4612Z" fill="white"/>
<path d="M143.971 58.9534C142.494 60.6897 140.327 61.5579 137.47 61.5579C135.104 61.5579 133.3 60.8743 132.056 59.5071C130.825 58.1262 130.203 56.0891 130.189 53.3958V38.9583H133.983V53.2932C133.983 56.6565 135.351 58.3381 138.085 58.3381C140.983 58.3381 142.911 57.2581 143.868 55.0979V38.9583H147.662V61.1477H144.053L143.971 58.9534Z" fill="white"/>
<path d="M157.567 61.1477H153.773V29.6477H157.567V61.1477Z" fill="white"/>
<path d="M172.866 61.5579C169.858 61.5579 167.411 60.5735 165.524 58.6047C163.638 56.6223 162.694 53.9768 162.694 50.6682V49.9709C162.694 47.7698 163.111 45.8079 163.945 44.0852C164.793 42.3489 165.969 40.9954 167.473 40.0247C168.99 39.0403 170.631 38.5481 172.395 38.5481C175.279 38.5481 177.521 39.4983 179.121 41.3987C180.721 43.2991 181.521 46.0198 181.521 49.5608V51.1399H166.488C166.543 53.3274 167.179 55.0979 168.396 56.4514C169.626 57.7913 171.185 58.4612 173.071 58.4612C174.411 58.4612 175.546 58.1877 176.476 57.6409C177.405 57.094 178.219 56.3694 178.916 55.467L181.233 57.2717C179.374 60.1292 176.585 61.5579 172.866 61.5579ZM172.395 41.6653C170.863 41.6653 169.578 42.2258 168.539 43.3469C167.5 44.4543 166.857 46.0129 166.611 48.0227H177.727V47.7356C177.617 45.8079 177.098 44.3176 176.168 43.2649C175.238 42.1985 173.98 41.6653 172.395 41.6653Z" fill="white"/>
<path d="M205.556 61.5579C202.548 61.5579 200.101 60.5735 198.214 58.6047C196.327 56.6223 195.384 53.9768 195.384 50.6682V49.9709C195.384 47.7698 195.801 45.8079 196.635 44.0852C197.482 42.3489 198.658 40.9954 200.162 40.0247C201.68 39.0403 203.32 38.5481 205.084 38.5481C207.969 38.5481 210.211 39.4983 211.811 41.3987C213.41 43.2991 214.21 46.0198 214.21 49.5608V51.1399H199.178C199.232 53.3274 199.868 55.0979 201.085 56.4514C202.315 57.7913 203.874 58.4612 205.761 58.4612C207.101 58.4612 208.235 58.1877 209.165 57.6409C210.095 57.094 210.908 56.3694 211.605 55.467L213.923 57.2717C212.063 60.1292 209.274 61.5579 205.556 61.5579ZM205.084 41.6653C203.553 41.6653 202.268 42.2258 201.229 43.3469C200.189 44.4543 199.547 46.0129 199.301 48.0227H210.416V47.7356C210.307 45.8079 209.787 44.3176 208.857 43.2649C207.928 42.1985 206.67 41.6653 205.084 41.6653Z" fill="white"/>
<path d="M222.741 61.1477H218.947V29.6477H222.741V61.1477Z" fill="white"/>
<path d="M246.571 56.0002L252.067 38.9583H255.943L247.986 61.1477H245.095L237.056 38.9583H240.932L246.571 56.0002Z" fill="white"/>
<path d="M272.965 61.1477C272.746 60.7102 272.568 59.9309 272.432 58.8098C270.668 60.6418 268.562 61.5579 266.115 61.5579C263.928 61.5579 262.13 60.9426 260.722 59.7122C259.327 58.468 258.63 56.8958 258.63 54.9954C258.63 52.6848 259.505 50.8938 261.255 49.6223C263.019 48.3372 265.493 47.6946 268.679 47.6946H272.37V45.9514C272.37 44.6252 271.974 43.5725 271.181 42.7932C270.388 42.0002 269.219 41.6038 267.674 41.6038C266.32 41.6038 265.186 41.9456 264.27 42.6292C263.354 43.3127 262.896 44.1399 262.896 45.1106H259.081C259.081 44.0032 259.471 42.9368 260.25 41.9114C261.043 40.8723 262.109 40.052 263.449 39.4504C264.803 38.8489 266.286 38.5481 267.899 38.5481C270.456 38.5481 272.459 39.1907 273.908 40.4758C275.357 41.7473 276.109 43.5042 276.164 45.7463V55.9592C276.164 57.9963 276.424 59.6165 276.943 60.8196V61.1477H272.965ZM266.669 58.2561C267.858 58.2561 268.986 57.9485 270.053 57.3333C271.119 56.718 271.892 55.9182 272.37 54.9338V50.3811H269.396C264.748 50.3811 262.424 51.7415 262.424 54.4622C262.424 55.6516 262.82 56.5813 263.613 57.2512C264.406 57.9211 265.425 58.2561 266.669 58.2561Z" fill="white"/>
<path d="M286.233 61.1477H282.439V29.6477H286.233V61.1477Z" fill="white"/>
<path d="M291.319 49.8479C291.319 47.6741 291.743 45.719 292.591 43.9827C293.452 42.2463 294.642 40.9065 296.159 39.9631C297.69 39.0198 299.434 38.5481 301.389 38.5481C304.41 38.5481 306.851 39.594 308.71 41.6858C310.583 43.7776 311.52 46.5598 311.52 50.0325V50.2991C311.52 52.4592 311.103 54.4006 310.269 56.1233C309.448 57.8323 308.266 59.1653 306.721 60.1223C305.189 61.0793 303.426 61.5579 301.43 61.5579C298.422 61.5579 295.981 60.512 294.108 58.4202C292.249 56.3284 291.319 53.5598 291.319 50.1145V49.8479ZM295.134 50.2991C295.134 52.76 295.701 54.7356 296.836 56.2258C297.984 57.7161 299.516 58.4612 301.43 58.4612C303.357 58.4612 304.889 57.7092 306.023 56.2053C307.158 54.6877 307.726 52.5686 307.726 49.8479C307.726 47.4143 307.145 45.4456 305.982 43.9417C304.834 42.4241 303.303 41.6653 301.389 41.6653C299.516 41.6653 298.005 42.4104 296.856 43.9006C295.708 45.3909 295.134 47.5237 295.134 50.2991Z" fill="white"/>
<path d="M327.003 42.3625C326.429 42.2668 325.807 42.219 325.137 42.219C322.648 42.219 320.96 43.2786 320.071 45.3977V61.1477H316.277V38.9583H319.969L320.03 41.5217C321.274 39.5393 323.038 38.5481 325.321 38.5481C326.06 38.5481 326.62 38.6438 327.003 38.8352V42.3625Z" fill="white"/>
<path d="M340.005 49.8684C340.005 46.4641 340.812 43.7297 342.425 41.6653C344.038 39.5872 346.15 38.5481 348.762 38.5481C351.359 38.5481 353.417 39.4368 354.935 41.2141V29.6477H358.729V61.1477H355.242L355.058 58.7688C353.54 60.6282 351.428 61.5579 348.721 61.5579C346.15 61.5579 344.052 60.5051 342.425 58.3997C340.812 56.2942 340.005 53.5461 340.005 50.1555V49.8684ZM343.799 50.2991C343.799 52.8147 344.318 54.7834 345.357 56.2053C346.396 57.6272 347.832 58.3381 349.664 58.3381C352.07 58.3381 353.827 57.2581 354.935 55.0979V44.9055C353.8 42.8137 352.057 41.7678 349.705 41.7678C347.846 41.7678 346.396 42.4856 345.357 43.9211C344.318 45.3567 343.799 47.4827 343.799 50.2991Z" fill="white"/>
<path d="M373.843 61.5579C370.835 61.5579 368.388 60.5735 366.501 58.6047C364.614 56.6223 363.671 53.9768 363.671 50.6682V49.9709C363.671 47.7698 364.088 45.8079 364.922 44.0852C365.77 42.3489 366.945 40.9954 368.449 40.0247C369.967 39.0403 371.607 38.5481 373.371 38.5481C376.256 38.5481 378.498 39.4983 380.098 41.3987C381.697 43.2991 382.497 46.0198 382.497 49.5608V51.1399H367.465C367.52 53.3274 368.155 55.0979 369.372 56.4514C370.603 57.7913 372.161 58.4612 374.048 58.4612C375.388 58.4612 376.522 58.1877 377.452 57.6409C378.382 57.094 379.195 56.3694 379.893 55.467L382.21 57.2717C380.351 60.1292 377.562 61.5579 373.843 61.5579ZM373.371 41.6653C371.84 41.6653 370.555 42.2258 369.516 43.3469C368.477 44.4543 367.834 46.0129 367.588 48.0227H378.703V47.7356C378.594 45.8079 378.074 44.3176 377.145 43.2649C376.215 42.1985 374.957 41.6653 373.371 41.6653Z" fill="white"/>
<path d="M386.783 59.1584C386.783 58.5022 386.975 57.9553 387.357 57.5178C387.754 57.0803 388.342 56.8616 389.121 56.8616C389.9 56.8616 390.488 57.0803 390.885 57.5178C391.295 57.9553 391.5 58.5022 391.5 59.1584C391.5 59.7874 391.295 60.3137 390.885 60.7375C390.488 61.1614 389.9 61.3733 389.121 61.3733C388.342 61.3733 387.754 61.1614 387.357 60.7375C386.975 60.3137 386.783 59.7874 386.783 59.1584ZM386.804 41.05C386.804 40.3938 386.995 39.8469 387.378 39.4094C387.774 38.9719 388.362 38.7532 389.142 38.7532C389.921 38.7532 390.509 38.9719 390.905 39.4094C391.315 39.8469 391.521 40.3938 391.521 41.05C391.521 41.679 391.315 42.2053 390.905 42.6292C390.509 43.053 389.921 43.2649 389.142 43.2649C388.362 43.2649 387.774 43.053 387.378 42.6292C386.995 42.2053 386.804 41.679 386.804 41.05Z" fill="white"/>
</g>
<g id="\frac{1.2^2+1.2.3^2+1.2.3...29.30^2}{(1.2.3.4....30.31)-2}">
<g id="Group">
<g id="Group_2">
<g id="Group_3">
<g id="Group_4">
<g id="Group_5">
<path id="Vector" d="M241.894 135.867L241.4 136.057C241.045 136.184 240.539 136.31 239.88 136.437C239.221 136.564 238.487 136.652 237.676 136.703H236.954V134.955H237.676C238.867 134.904 239.969 134.714 240.982 134.385C241.996 134.056 242.705 133.752 243.11 133.473C243.516 133.194 243.87 132.916 244.174 132.637C244.225 132.561 244.377 132.523 244.63 132.523C244.858 132.523 245.074 132.599 245.276 132.751V144.113L245.314 155.513C245.492 155.691 245.644 155.805 245.77 155.855C245.897 155.906 246.201 155.957 246.682 156.007C247.164 156.058 247.949 156.083 249.038 156.083H250.026V157.831H249.608C249.076 157.755 247.062 157.717 243.566 157.717C240.121 157.717 238.132 157.755 237.6 157.831H237.144V156.083H238.132C238.689 156.083 239.171 156.083 239.576 156.083C239.981 156.083 240.298 156.071 240.526 156.045C240.754 156.02 240.957 155.982 241.134 155.931C241.312 155.881 241.413 155.855 241.438 155.855C241.464 155.855 241.54 155.792 241.666 155.665C241.793 155.539 241.869 155.488 241.894 155.513V135.867Z" fill="white"/>
<path id="Vector_2" d="M255.764 155.551C255.764 154.943 255.98 154.411 256.41 153.955C256.841 153.499 257.386 153.271 258.044 153.271C258.652 153.271 259.184 153.474 259.64 153.879C260.096 154.285 260.337 154.829 260.362 155.513C260.362 156.147 260.147 156.691 259.716 157.147C259.286 157.603 258.741 157.831 258.082 157.831C257.424 157.831 256.879 157.616 256.448 157.185C256.018 156.755 255.79 156.21 255.764 155.551Z" fill="white"/>
<path id="Vector_3" d="M267.507 141.529C266.823 141.529 266.278 141.301 265.873 140.845C265.467 140.389 265.265 139.832 265.265 139.173C265.265 137.374 265.936 135.816 267.279 134.499C268.621 133.182 270.293 132.523 272.295 132.523C274.6 132.523 276.525 133.232 278.071 134.651C279.616 136.07 280.401 137.906 280.427 140.161C280.427 141.25 280.173 142.289 279.667 143.277C279.16 144.265 278.552 145.126 277.843 145.861C277.133 146.596 276.12 147.533 274.803 148.673C273.891 149.458 272.624 150.624 271.003 152.169L268.761 154.297L271.649 154.335C275.626 154.335 277.741 154.272 277.995 154.145C278.172 154.095 278.476 152.967 278.907 150.763V150.649H280.427V150.763C280.401 150.839 280.237 151.992 279.933 154.221C279.629 156.451 279.439 157.616 279.363 157.717V157.831H265.265V157.109V156.653C265.265 156.476 265.341 156.286 265.493 156.083C265.645 155.881 266.025 155.437 266.633 154.753C267.367 153.943 268.001 153.233 268.533 152.625C268.761 152.372 269.191 151.903 269.825 151.219C270.458 150.535 270.889 150.067 271.117 149.813C271.345 149.56 271.712 149.142 272.219 148.559C272.725 147.976 273.08 147.546 273.283 147.267C273.485 146.988 273.777 146.608 274.157 146.127C274.537 145.646 274.803 145.24 274.955 144.911C275.107 144.582 275.297 144.214 275.525 143.809C275.753 143.404 275.917 142.998 276.019 142.593C276.12 142.188 276.209 141.808 276.285 141.453C276.361 141.098 276.399 140.68 276.399 140.199C276.399 138.603 275.968 137.222 275.107 136.057C274.245 134.892 273.017 134.309 271.421 134.309C270.585 134.309 269.85 134.524 269.217 134.955C268.583 135.386 268.14 135.804 267.887 136.209C267.633 136.614 267.507 136.855 267.507 136.931C267.507 136.956 267.57 136.969 267.697 136.969C268.153 136.969 268.621 137.146 269.103 137.501C269.584 137.856 269.825 138.438 269.825 139.249C269.825 139.882 269.622 140.414 269.217 140.845C268.811 141.276 268.241 141.504 267.507 141.529Z" fill="white"/>
</g>
<g id="Group_6">
<path id="Vector_4" d="M285.293 131.367C284.81 131.367 284.425 131.206 284.138 130.884C283.851 130.561 283.708 130.167 283.708 129.701C283.708 128.43 284.183 127.328 285.132 126.397C286.081 125.465 287.263 125 288.678 125C290.308 125 291.67 125.501 292.762 126.504C293.855 127.507 294.41 128.806 294.428 130.4C294.428 131.17 294.249 131.904 293.891 132.603C293.532 133.302 293.102 133.91 292.601 134.43C292.099 134.949 291.383 135.612 290.452 136.418C289.807 136.973 288.911 137.797 287.765 138.89L286.18 140.394L288.222 140.421C291.034 140.421 292.529 140.376 292.708 140.287C292.834 140.251 293.049 139.454 293.353 137.896V137.815H294.428V137.896C294.41 137.949 294.294 138.764 294.079 140.341C293.864 141.917 293.729 142.741 293.676 142.812V142.893H283.708V142.382V142.06C283.708 141.935 283.762 141.8 283.869 141.657C283.977 141.514 284.245 141.2 284.675 140.717C285.195 140.143 285.643 139.642 286.019 139.212C286.18 139.033 286.484 138.702 286.932 138.218C287.38 137.734 287.684 137.403 287.846 137.224C288.007 137.045 288.266 136.749 288.625 136.337C288.983 135.925 289.234 135.621 289.377 135.424C289.52 135.227 289.726 134.958 289.995 134.618C290.264 134.278 290.452 133.991 290.559 133.758C290.667 133.525 290.801 133.266 290.962 132.979C291.123 132.693 291.24 132.406 291.311 132.119C291.383 131.833 291.446 131.564 291.499 131.313C291.553 131.063 291.58 130.767 291.58 130.427C291.58 129.298 291.276 128.322 290.667 127.498C290.058 126.674 289.189 126.263 288.061 126.263C287.469 126.263 286.95 126.415 286.502 126.719C286.054 127.024 285.741 127.319 285.562 127.606C285.383 127.892 285.293 128.063 285.293 128.116C285.293 128.134 285.338 128.143 285.428 128.143C285.75 128.143 286.081 128.269 286.422 128.519C286.762 128.77 286.932 129.182 286.932 129.755C286.932 130.203 286.789 130.579 286.502 130.884C286.216 131.188 285.813 131.349 285.293 131.367Z" fill="white"/>
</g>
</g>
<g id="Group_7">
<path id="Vector_5" d="M308.274 148.825C308.274 148.825 308.274 148.66 308.274 148.331C308.274 148.002 308.451 147.748 308.806 147.571H320.168V141.871L320.206 136.171C320.459 135.842 320.7 135.677 320.928 135.677C321.257 135.677 321.51 135.867 321.688 136.247V147.571H333.012C333.392 147.774 333.582 148.027 333.582 148.331C333.582 148.635 333.392 148.888 333.012 149.091H321.688V160.415C321.485 160.77 321.257 160.947 321.004 160.947H320.928H320.852C320.548 160.947 320.32 160.77 320.168 160.415V149.091H308.806C308.451 148.914 308.274 148.66 308.274 148.331V148.825Z" fill="white"/>
</g>
<g id="Group_8">
<path id="Vector_6" d="M352.248 135.867L351.754 136.057C351.399 136.184 350.893 136.31 350.234 136.437C349.575 136.564 348.841 136.652 348.03 136.703H347.308V134.955H348.03C349.221 134.904 350.323 134.714 351.336 134.385C352.349 134.056 353.059 133.752 353.464 133.473C353.869 133.194 354.224 132.916 354.528 132.637C354.579 132.561 354.731 132.523 354.984 132.523C355.212 132.523 355.427 132.599 355.63 132.751V144.113L355.668 155.513C355.845 155.691 355.997 155.805 356.124 155.855C356.251 155.906 356.555 155.957 357.036 156.007C357.517 156.058 358.303 156.083 359.392 156.083H360.38V157.831H359.962C359.43 157.755 357.416 157.717 353.92 157.717C350.475 157.717 348.486 157.755 347.954 157.831H347.498V156.083H348.486C349.043 156.083 349.525 156.083 349.93 156.083C350.335 156.083 350.652 156.071 350.88 156.045C351.108 156.02 351.311 155.982 351.488 155.931C351.665 155.881 351.767 155.855 351.792 155.855C351.817 155.855 351.893 155.792 352.02 155.665C352.147 155.539 352.223 155.488 352.248 155.513V135.867Z" fill="white"/>
<path id="Vector_7" d="M366.118 155.551C366.118 154.943 366.333 154.411 366.764 153.955C367.195 153.499 367.74 153.271 368.398 153.271C369.006 153.271 369.538 153.474 369.994 153.879C370.45 154.285 370.691 154.829 370.716 155.513C370.716 156.147 370.501 156.691 370.07 157.147C369.64 157.603 369.095 157.831 368.436 157.831C367.778 157.831 367.233 157.616 366.802 157.185C366.371 156.755 366.143 156.21 366.118 155.551Z" fill="white"/>
<path id="Vector_8" d="M377.86 141.529C377.176 141.529 376.632 141.301 376.226 140.845C375.821 140.389 375.618 139.832 375.618 139.173C375.618 137.374 376.29 135.816 377.632 134.499C378.975 133.182 380.647 132.523 382.648 132.523C384.954 132.523 386.879 133.232 388.424 134.651C389.97 136.07 390.755 137.906 390.781 140.161C390.781 141.25 390.527 142.289 390.021 143.277C389.514 144.265 388.906 145.126 388.196 145.861C387.487 146.596 386.474 147.533 385.156 148.673C384.244 149.458 382.978 150.624 381.356 152.169L379.114 154.297L382.002 154.335C385.98 154.335 388.095 154.272 388.348 154.145C388.526 154.095 388.83 152.967 389.261 150.763V150.649H390.781V150.763C390.755 150.839 390.591 151.992 390.287 154.221C389.983 156.451 389.793 157.616 389.717 157.717V157.831H375.618V157.109V156.653C375.618 156.476 375.694 156.286 375.846 156.083C375.998 155.881 376.378 155.437 376.986 154.753C377.721 153.943 378.354 153.233 378.886 152.625C379.114 152.372 379.545 151.903 380.178 151.219C380.812 150.535 381.242 150.067 381.47 149.813C381.698 149.56 382.066 149.142 382.572 148.559C383.079 147.976 383.434 147.546 383.636 147.267C383.839 146.988 384.13 146.608 384.51 146.127C384.89 145.646 385.156 145.24 385.308 144.911C385.46 144.582 385.65 144.214 385.878 143.809C386.106 143.404 386.271 142.998 386.372 142.593C386.474 142.188 386.562 141.808 386.638 141.453C386.714 141.098 386.752 140.68 386.752 140.199C386.752 138.603 386.322 137.222 385.46 136.057C384.599 134.892 383.37 134.309 381.774 134.309C380.938 134.309 380.204 134.524 379.57 134.955C378.937 135.386 378.494 135.804 378.24 136.209C377.987 136.614 377.86 136.855 377.86 136.931C377.86 136.956 377.924 136.969 378.05 136.969C378.506 136.969 378.975 137.146 379.456 137.501C379.938 137.856 380.178 138.438 380.178 139.249C380.178 139.882 379.976 140.414 379.57 140.845C379.165 141.276 378.595 141.504 377.86 141.529Z" fill="white"/>
</g>
<g id="Group_9">
<g id="Group_10">
<path id="Vector_9" d="M395.683 155.551C395.683 154.943 395.898 154.411 396.329 153.955C396.759 153.499 397.304 153.271 397.963 153.271C398.571 153.271 399.103 153.474 399.559 153.879C400.015 154.285 400.255 154.829 400.281 155.513C400.281 156.147 400.065 156.691 399.635 157.147C399.204 157.603 398.659 157.831 398.001 157.831C397.342 157.831 396.797 157.616 396.367 157.185C395.936 156.755 395.708 156.21 395.683 155.551Z" fill="white"/>
<path id="Vector_10" d="M408.109 140.237C407.425 140.237 406.893 140.021 406.513 139.591C406.133 139.16 405.93 138.603 405.905 137.919C405.905 136.525 406.513 135.284 407.729 134.195C408.945 133.105 410.414 132.561 412.137 132.561C413.024 132.561 413.581 132.573 413.809 132.599C415.684 132.903 417.115 133.574 418.103 134.613C419.091 135.651 419.598 136.779 419.623 137.995C419.623 139.312 419.192 140.591 418.331 141.833C417.47 143.074 416.279 143.973 414.759 144.531L414.645 144.607C414.645 144.632 414.759 144.67 414.987 144.721C415.215 144.771 415.582 144.885 416.089 145.063C416.596 145.24 417.077 145.506 417.533 145.861C419.61 147.203 420.649 148.977 420.649 151.181C420.649 153.182 419.864 154.93 418.293 156.425C416.722 157.92 414.734 158.667 412.327 158.667C410.3 158.667 408.552 158.122 407.083 157.033C405.613 155.944 404.879 154.563 404.879 152.891C404.879 152.182 405.107 151.612 405.563 151.181C406.019 150.75 406.589 150.522 407.273 150.497C407.982 150.497 408.565 150.725 409.021 151.181C409.477 151.637 409.705 152.207 409.705 152.891C409.705 153.17 409.667 153.423 409.591 153.651C409.515 153.879 409.426 154.082 409.325 154.259C409.224 154.436 409.084 154.588 408.907 154.715C408.729 154.842 408.577 154.943 408.451 155.019C408.324 155.095 408.197 155.146 408.071 155.171C407.944 155.196 407.843 155.234 407.767 155.285L407.615 155.323C408.907 156.463 410.478 157.033 412.327 157.033C413.72 157.033 414.772 156.362 415.481 155.019C415.912 154.183 416.127 152.904 416.127 151.181V150.421C416.127 148.014 415.316 146.405 413.695 145.595C413.315 145.443 412.542 145.354 411.377 145.329L409.781 145.291L409.667 145.215C409.616 145.139 409.591 144.936 409.591 144.607C409.591 144.151 409.692 143.923 409.895 143.923C410.604 143.923 411.339 143.859 412.099 143.733C412.96 143.606 413.746 143.074 414.455 142.137C415.164 141.199 415.519 139.781 415.519 137.881V137.577C415.519 136.133 415.076 135.132 414.189 134.575C413.632 134.22 413.036 134.043 412.403 134.043C411.592 134.043 410.845 134.182 410.161 134.461C409.477 134.739 408.996 135.031 408.717 135.335C408.438 135.639 408.299 135.791 408.299 135.791H408.413C408.489 135.816 408.59 135.841 408.717 135.867C408.843 135.892 408.97 135.955 409.097 136.057C409.224 136.158 409.376 136.247 409.553 136.323C409.73 136.399 409.857 136.538 409.933 136.741C410.009 136.943 410.11 137.133 410.237 137.311C410.364 137.488 410.402 137.741 410.351 138.071C410.351 138.628 410.174 139.122 409.819 139.553C409.464 139.983 408.894 140.211 408.109 140.237Z" fill="white"/>
</g>
<g id="Group_11">
<path id="Vector_11" d="M425.212 131.405C424.728 131.405 424.343 131.244 424.056 130.922C423.77 130.599 423.626 130.205 423.626 129.74C423.626 128.468 424.101 127.367 425.05 126.435C426 125.504 427.182 125.038 428.597 125.038C430.227 125.038 431.588 125.54 432.68 126.543C433.773 127.546 434.328 128.844 434.346 130.438C434.346 131.208 434.167 131.943 433.809 132.641C433.451 133.34 433.021 133.949 432.519 134.468C432.018 134.988 431.301 135.65 430.37 136.456C429.725 137.012 428.83 137.835 427.683 138.928L426.098 140.433L428.14 140.459C430.952 140.459 432.448 140.415 432.627 140.325C432.752 140.289 432.967 139.492 433.271 137.934V137.853H434.346V137.934C434.328 137.988 434.212 138.803 433.997 140.379C433.782 141.955 433.648 142.779 433.594 142.851V142.931H423.626V142.421V142.098C423.626 141.973 423.68 141.839 423.788 141.695C423.895 141.552 424.164 141.239 424.594 140.755C425.113 140.182 425.561 139.68 425.937 139.25C426.098 139.071 426.403 138.74 426.85 138.256C427.298 137.773 427.603 137.441 427.764 137.262C427.925 137.083 428.185 136.788 428.543 136.376C428.901 135.964 429.152 135.659 429.295 135.462C429.438 135.265 429.644 134.997 429.913 134.656C430.182 134.316 430.37 134.029 430.477 133.797C430.585 133.564 430.719 133.304 430.88 133.017C431.042 132.731 431.158 132.444 431.23 132.158C431.301 131.871 431.364 131.602 431.418 131.352C431.471 131.101 431.498 130.805 431.498 130.465C431.498 129.337 431.194 128.361 430.585 127.537C429.976 126.713 429.107 126.301 427.979 126.301C427.388 126.301 426.868 126.453 426.42 126.758C425.973 127.062 425.659 127.358 425.48 127.644C425.301 127.931 425.212 128.101 425.212 128.155C425.212 128.173 425.256 128.181 425.346 128.181C425.668 128.181 426 128.307 426.34 128.558C426.68 128.808 426.85 129.22 426.85 129.793C426.85 130.241 426.707 130.617 426.42 130.922C426.134 131.226 425.731 131.388 425.212 131.405Z" fill="white"/>
</g>
</g>
<g id="Group_12">
<path id="Vector_12" d="M448.192 148.825C448.192 148.825 448.192 148.66 448.192 148.331C448.192 148.002 448.369 147.748 448.724 147.571H460.086V141.871L460.124 136.171C460.377 135.842 460.618 135.677 460.846 135.677C461.175 135.677 461.429 135.867 461.606 136.247V147.571H472.93C473.31 147.774 473.5 148.027 473.5 148.331C473.5 148.635 473.31 148.888 472.93 149.091H461.606V160.415C461.403 160.77 461.175 160.947 460.922 160.947H460.846H460.77C460.466 160.947 460.238 160.77 460.086 160.415V149.091H448.724C448.369 148.914 448.192 148.66 448.192 148.331V148.825Z" fill="white"/>
</g>
<g id="Group_13">
<path id="Vector_13" d="M492.166 135.867L491.672 136.057C491.317 136.184 490.811 136.31 490.152 136.437C489.493 136.564 488.759 136.652 487.948 136.703H487.226V134.955H487.948C489.139 134.904 490.241 134.714 491.254 134.385C492.267 134.056 492.977 133.752 493.382 133.473C493.788 133.194 494.142 132.916 494.446 132.637C494.497 132.561 494.649 132.523 494.902 132.523C495.13 132.523 495.346 132.599 495.548 132.751V144.113L495.586 155.513C495.764 155.691 495.916 155.805 496.042 155.855C496.169 155.906 496.473 155.957 496.954 156.007C497.436 156.058 498.221 156.083 499.31 156.083H500.298V157.831H499.88C499.348 157.755 497.334 157.717 493.838 157.717C490.393 157.717 488.404 157.755 487.872 157.831H487.416V156.083H488.404C488.961 156.083 489.443 156.083 489.848 156.083C490.253 156.083 490.57 156.071 490.798 156.045C491.026 156.02 491.229 155.982 491.406 155.931C491.583 155.881 491.685 155.855 491.71 155.855C491.735 155.855 491.811 155.792 491.938 155.665C492.065 155.539 492.141 155.488 492.166 155.513V135.867Z" fill="white"/>
<path id="Vector_14" d="M506.036 155.551C506.036 154.943 506.252 154.411 506.682 153.955C507.113 153.499 507.658 153.271 508.316 153.271C508.924 153.271 509.456 153.474 509.912 153.879C510.368 154.285 510.609 154.829 510.634 155.513C510.634 156.147 510.419 156.691 509.988 157.147C509.558 157.603 509.013 157.831 508.354 157.831C507.696 157.831 507.151 157.616 506.72 157.185C506.29 156.755 506.062 156.21 506.036 155.551Z" fill="white"/>
<path id="Vector_15" d="M517.779 141.529C517.095 141.529 516.55 141.301 516.145 140.845C515.739 140.389 515.537 139.832 515.537 139.173C515.537 137.374 516.208 135.816 517.551 134.499C518.893 133.182 520.565 132.523 522.567 132.523C524.872 132.523 526.797 133.232 528.343 134.651C529.888 136.07 530.673 137.906 530.699 140.161C530.699 141.25 530.445 142.289 529.939 143.277C529.432 144.265 528.824 145.126 528.115 145.861C527.405 146.596 526.392 147.533 525.075 148.673C524.163 149.458 522.896 150.624 521.275 152.169L519.033 154.297L521.921 154.335C525.898 154.335 528.013 154.272 528.267 154.145C528.444 154.095 528.748 152.967 529.179 150.763V150.649H530.699V150.763C530.673 150.839 530.509 151.992 530.205 154.221C529.901 156.451 529.711 157.616 529.635 157.717V157.831H515.537V157.109V156.653C515.537 156.476 515.613 156.286 515.765 156.083C515.917 155.881 516.297 155.437 516.905 154.753C517.639 153.943 518.273 153.233 518.805 152.625C519.033 152.372 519.463 151.903 520.097 151.219C520.73 150.535 521.161 150.067 521.389 149.813C521.617 149.56 521.984 149.142 522.491 148.559C522.997 147.976 523.352 147.546 523.555 147.267C523.757 146.988 524.049 146.608 524.429 146.127C524.809 145.646 525.075 145.24 525.227 144.911C525.379 144.582 525.569 144.214 525.797 143.809C526.025 143.404 526.189 142.998 526.291 142.593C526.392 142.188 526.481 141.808 526.557 141.453C526.633 141.098 526.671 140.68 526.671 140.199C526.671 138.603 526.24 137.222 525.379 136.057C524.517 134.892 523.289 134.309 521.693 134.309C520.857 134.309 520.122 134.524 519.489 134.955C518.855 135.386 518.412 135.804 518.159 136.209C517.905 136.614 517.779 136.855 517.779 136.931C517.779 136.956 517.842 136.969 517.969 136.969C518.425 136.969 518.893 137.146 519.375 137.501C519.856 137.856 520.097 138.438 520.097 139.249C520.097 139.882 519.894 140.414 519.489 140.845C519.083 141.276 518.513 141.504 517.779 141.529Z" fill="white"/>
</g>
<g id="Group_14">
<path id="Vector_16" d="M535.601 155.551C535.601 154.943 535.816 154.411 536.247 153.955C536.678 153.499 537.222 153.271 537.881 153.271C538.489 153.271 539.021 153.474 539.477 153.879C539.933 154.285 540.174 154.829 540.199 155.513C540.199 156.147 539.984 156.691 539.553 157.147C539.122 157.603 538.578 157.831 537.919 157.831C537.26 157.831 536.716 157.616 536.285 157.185C535.854 156.755 535.626 156.21 535.601 155.551Z" fill="white"/>
<path id="Vector_17" d="M548.027 140.237C547.343 140.237 546.811 140.021 546.431 139.591C546.051 139.16 545.848 138.603 545.823 137.919C545.823 136.525 546.431 135.284 547.647 134.195C548.863 133.105 550.332 132.561 552.055 132.561C552.942 132.561 553.499 132.573 553.727 132.599C555.602 132.903 557.033 133.574 558.021 134.613C559.009 135.651 559.516 136.779 559.541 137.995C559.541 139.312 559.111 140.591 558.249 141.833C557.388 143.074 556.197 143.973 554.677 144.531L554.563 144.607C554.563 144.632 554.677 144.67 554.905 144.721C555.133 144.771 555.501 144.885 556.007 145.063C556.514 145.24 556.995 145.506 557.451 145.861C559.529 147.203 560.567 148.977 560.567 151.181C560.567 153.182 559.782 154.93 558.211 156.425C556.641 157.92 554.652 158.667 552.245 158.667C550.218 158.667 548.47 158.122 547.001 157.033C545.532 155.944 544.797 154.563 544.797 152.891C544.797 152.182 545.025 151.612 545.481 151.181C545.937 150.75 546.507 150.522 547.191 150.497C547.9 150.497 548.483 150.725 548.939 151.181C549.395 151.637 549.623 152.207 549.623 152.891C549.623 153.17 549.585 153.423 549.509 153.651C549.433 153.879 549.344 154.082 549.243 154.259C549.142 154.436 549.002 154.588 548.825 154.715C548.648 154.842 548.496 154.943 548.369 155.019C548.242 155.095 548.116 155.146 547.989 155.171C547.862 155.196 547.761 155.234 547.685 155.285L547.533 155.323C548.825 156.463 550.396 157.033 552.245 157.033C553.639 157.033 554.69 156.362 555.399 155.019C555.83 154.183 556.045 152.904 556.045 151.181V150.421C556.045 148.014 555.235 146.405 553.613 145.595C553.233 145.443 552.46 145.354 551.295 145.329L549.699 145.291L549.585 145.215C549.534 145.139 549.509 144.936 549.509 144.607C549.509 144.151 549.61 143.923 549.813 143.923C550.522 143.923 551.257 143.859 552.017 143.733C552.878 143.606 553.664 143.074 554.373 142.137C555.083 141.199 555.437 139.781 555.437 137.881V137.577C555.437 136.133 554.994 135.132 554.107 134.575C553.55 134.22 552.954 134.043 552.321 134.043C551.51 134.043 550.763 134.182 550.079 134.461C549.395 134.739 548.914 135.031 548.635 135.335C548.356 135.639 548.217 135.791 548.217 135.791H548.331C548.407 135.816 548.508 135.841 548.635 135.867C548.762 135.892 548.888 135.955 549.015 136.057C549.142 136.158 549.294 136.247 549.471 136.323C549.648 136.399 549.775 136.538 549.851 136.741C549.927 136.943 550.028 137.133 550.155 137.311C550.282 137.488 550.32 137.741 550.269 138.071C550.269 138.628 550.092 139.122 549.737 139.553C549.382 139.983 548.812 140.211 548.027 140.237Z" fill="white"/>
</g>
<g id="Group_15">
<path id="Vector_18" d="M565.165 155.551C565.165 154.943 565.381 154.411 565.811 153.955C566.242 153.499 566.787 153.271 567.445 153.271C568.053 153.271 568.585 153.474 569.041 153.879C569.497 154.285 569.738 154.829 569.763 155.513C569.763 156.147 569.548 156.691 569.117 157.147C568.687 157.603 568.142 157.831 567.483 157.831C566.825 157.831 566.28 157.616 565.849 157.185C565.419 156.755 565.191 156.21 565.165 155.551Z" fill="white"/>
</g>
<g id="Group_16">
<path id="Vector_19" d="M582.064 155.551C582.064 154.943 582.28 154.411 582.71 153.955C583.141 153.499 583.686 153.271 584.344 153.271C584.952 153.271 585.484 153.474 585.94 153.879C586.396 154.285 586.637 154.829 586.662 155.513C586.662 156.147 586.447 156.691 586.016 157.147C585.586 157.603 585.041 157.831 584.382 157.831C583.724 157.831 583.179 157.616 582.748 157.185C582.318 156.755 582.09 156.21 582.064 155.551Z" fill="white"/>
</g>
<g id="Group_17">
<path id="Vector_20" d="M598.959 155.551C598.959 154.943 599.175 154.411 599.605 153.955C600.036 153.499 600.581 153.271 601.239 153.271C601.847 153.271 602.379 153.474 602.835 153.879C603.291 154.285 603.532 154.829 603.557 155.513C603.557 156.147 603.342 156.691 602.911 157.147C602.481 157.603 601.936 157.831 601.277 157.831C600.619 157.831 600.074 157.616 599.643 157.185C599.213 156.755 598.985 156.21 598.959 155.551Z" fill="white"/>
<path id="Vector_21" d="M610.701 141.529C610.017 141.529 609.473 141.301 609.067 140.845C608.662 140.389 608.459 139.832 608.459 139.173C608.459 137.374 609.131 135.816 610.473 134.499C611.816 133.182 613.488 132.523 615.49 132.523C617.795 132.523 619.72 133.232 621.266 134.651C622.811 136.07 623.596 137.906 623.622 140.161C623.622 141.25 623.368 142.289 622.862 143.277C622.355 144.265 621.747 145.126 621.038 145.861C620.328 146.596 619.315 147.533 617.998 148.673C617.086 149.458 615.819 150.624 614.197 152.169L611.955 154.297L614.844 154.335C618.821 154.335 620.936 154.272 621.19 154.145C621.367 154.095 621.671 152.967 622.102 150.763V150.649H623.622V150.763C623.596 150.839 623.432 151.992 623.128 154.221C622.824 156.451 622.634 157.616 622.558 157.717V157.831H608.459V157.109V156.653C608.459 156.476 608.535 156.286 608.687 156.083C608.839 155.881 609.219 155.437 609.827 154.753C610.562 153.943 611.195 153.233 611.727 152.625C611.955 152.372 612.386 151.903 613.019 151.219C613.653 150.535 614.083 150.067 614.311 149.813C614.54 149.56 614.907 149.142 615.414 148.559C615.92 147.976 616.275 147.546 616.478 147.267C616.68 146.988 616.972 146.608 617.352 146.127C617.732 145.646 617.998 145.24 618.15 144.911C618.302 144.582 618.492 144.214 618.72 143.809C618.948 143.404 619.112 142.998 619.214 142.593C619.315 142.188 619.404 141.808 619.48 141.453C619.556 141.098 619.594 140.68 619.594 140.199C619.594 138.603 619.163 137.222 618.302 136.057C617.44 134.892 616.212 134.309 614.616 134.309C613.779 134.309 613.045 134.524 612.411 134.955C611.778 135.386 611.335 135.804 611.081 136.209C610.828 136.614 610.701 136.855 610.701 136.931C610.701 136.956 610.765 136.969 610.891 136.969C611.347 136.969 611.816 137.146 612.297 137.501C612.779 137.856 613.019 138.438 613.019 139.249C613.019 139.882 612.817 140.414 612.411 140.845C612.006 141.276 611.436 141.504 610.701 141.529Z" fill="white"/>
<path id="Vector_22" d="M638.936 146.925C637.72 148.85 636.2 149.813 634.376 149.813C632.4 149.813 630.778 149.066 629.512 147.571C628.245 146.076 627.485 144.48 627.232 142.783C627.181 142.377 627.156 141.871 627.156 141.263V140.959C627.156 138.603 628.03 136.551 629.778 134.803C631.298 133.283 632.97 132.523 634.794 132.523C634.845 132.523 634.921 132.523 635.022 132.523C635.123 132.523 635.225 132.535 635.326 132.561H635.478C635.782 132.561 636.099 132.586 636.428 132.637C636.757 132.687 637.226 132.839 637.834 133.093C638.442 133.346 639.037 133.751 639.62 134.309C640.203 134.866 640.747 135.613 641.254 136.551C642.343 138.78 642.888 141.643 642.888 145.139C642.888 148.686 642.128 151.688 640.608 154.145C639.721 155.564 638.657 156.666 637.416 157.451C636.175 158.236 634.857 158.642 633.464 158.667C631.918 158.667 630.652 158.3 629.664 157.565C628.676 156.83 628.169 155.741 628.144 154.297C628.118 152.853 628.79 152.144 630.158 152.169C630.715 152.169 631.184 152.346 631.564 152.701C631.944 153.056 632.134 153.55 632.134 154.183C632.134 154.639 632.02 155.032 631.792 155.361C631.564 155.69 631.361 155.893 631.184 155.969C631.006 156.045 630.842 156.108 630.69 156.159L630.538 156.197C630.538 156.248 630.626 156.324 630.804 156.425C630.981 156.526 631.31 156.653 631.792 156.805C632.273 156.957 632.805 157.02 633.388 156.995H633.616C635.136 156.995 636.415 156.184 637.454 154.563C638.442 153.144 638.936 150.687 638.936 147.191V146.925ZM634.832 148.407C636.048 148.407 637.023 147.786 637.758 146.545C638.493 145.303 638.873 143.619 638.898 141.491C638.898 139.515 638.797 138.096 638.594 137.235C638.543 136.981 638.467 136.728 638.366 136.475C638.265 136.221 638.087 135.892 637.834 135.487C637.581 135.081 637.201 134.739 636.694 134.461C636.187 134.182 635.592 134.055 634.908 134.081C633.945 134.081 633.122 134.423 632.438 135.107C631.906 135.664 631.564 136.323 631.412 137.083C631.26 137.843 631.171 139.173 631.146 141.073C631.146 143.175 631.209 144.594 631.336 145.329C631.462 146.063 631.716 146.659 632.096 147.115C632.729 147.976 633.641 148.407 634.832 148.407Z" fill="white"/>
</g>
<g id="Group_18">
<g id="Group_19">
<path id="Vector_23" d="M647.524 155.551C647.524 154.943 647.739 154.411 648.17 153.955C648.601 153.499 649.145 153.271 649.804 153.271C650.412 153.271 650.944 153.474 651.4 153.879C651.856 154.285 652.097 154.829 652.122 155.513C652.122 156.147 651.907 156.691 651.476 157.147C651.045 157.603 650.501 157.831 649.842 157.831C649.183 157.831 648.639 157.616 648.208 157.185C647.777 156.755 647.549 156.21 647.524 155.551Z" fill="white"/>
<path id="Vector_24" d="M659.95 140.237C659.266 140.237 658.734 140.021 658.354 139.591C657.974 139.16 657.772 138.603 657.746 137.919C657.746 136.525 658.354 135.284 659.57 134.195C660.786 133.105 662.256 132.561 663.978 132.561C664.865 132.561 665.422 132.573 665.65 132.599C667.525 132.903 668.956 133.574 669.944 134.613C670.932 135.651 671.439 136.779 671.464 137.995C671.464 139.312 671.034 140.591 670.172 141.833C669.311 143.074 668.12 143.973 666.6 144.531L666.486 144.607C666.486 144.632 666.6 144.67 666.828 144.721C667.056 144.771 667.424 144.885 667.93 145.063C668.437 145.24 668.918 145.506 669.374 145.861C671.452 147.203 672.49 148.977 672.49 151.181C672.49 153.182 671.705 154.93 670.134 156.425C668.564 157.92 666.575 158.667 664.168 158.667C662.142 158.667 660.394 158.122 658.924 157.033C657.455 155.944 656.72 154.563 656.72 152.891C656.72 152.182 656.948 151.612 657.404 151.181C657.86 150.75 658.43 150.522 659.114 150.497C659.824 150.497 660.406 150.725 660.862 151.181C661.318 151.637 661.546 152.207 661.546 152.891C661.546 153.17 661.508 153.423 661.432 153.651C661.356 153.879 661.268 154.082 661.166 154.259C661.065 154.436 660.926 154.588 660.748 154.715C660.571 154.842 660.419 154.943 660.292 155.019C660.166 155.095 660.039 155.146 659.912 155.171C659.786 155.196 659.684 155.234 659.608 155.285L659.456 155.323C660.748 156.463 662.319 157.033 664.168 157.033C665.562 157.033 666.613 156.362 667.322 155.019C667.753 154.183 667.968 152.904 667.968 151.181V150.421C667.968 148.014 667.158 146.405 665.536 145.595C665.156 145.443 664.384 145.354 663.218 145.329L661.622 145.291L661.508 145.215C661.458 145.139 661.432 144.936 661.432 144.607C661.432 144.151 661.534 143.923 661.736 143.923C662.446 143.923 663.18 143.859 663.94 143.733C664.802 143.606 665.587 143.074 666.296 142.137C667.006 141.199 667.36 139.781 667.36 137.881V137.577C667.36 136.133 666.917 135.132 666.03 134.575C665.473 134.22 664.878 134.043 664.244 134.043C663.434 134.043 662.686 134.182 662.002 134.461C661.318 134.739 660.837 135.031 660.558 135.335C660.28 135.639 660.14 135.791 660.14 135.791H660.254C660.33 135.816 660.432 135.841 660.558 135.867C660.685 135.892 660.812 135.955 660.938 136.057C661.065 136.158 661.217 136.247 661.394 136.323C661.572 136.399 661.698 136.538 661.774 136.741C661.85 136.943 661.952 137.133 662.078 137.311C662.205 137.488 662.243 137.741 662.192 138.071C662.192 138.628 662.015 139.122 661.66 139.553C661.306 139.983 660.736 140.211 659.95 140.237Z" fill="white"/>
<path id="Vector_25" d="M677.773 135.601C679.191 133.549 681.129 132.523 683.587 132.523C684.803 132.523 686.019 132.852 687.235 133.511C688.451 134.169 689.439 135.335 690.199 137.007C691.136 139.109 691.605 141.997 691.605 145.671C691.605 149.598 691.06 152.6 689.971 154.677C689.464 155.741 688.767 156.59 687.881 157.223C686.994 157.856 686.221 158.249 685.563 158.401C684.904 158.553 684.258 158.642 683.625 158.667C682.966 158.667 682.307 158.591 681.649 158.439C680.99 158.287 680.217 157.882 679.331 157.223C678.444 156.564 677.747 155.716 677.241 154.677C676.151 152.6 675.606 149.598 675.606 145.671C675.606 141.263 676.328 137.906 677.773 135.601ZM686.323 135.145C685.563 134.334 684.663 133.929 683.625 133.929C682.561 133.929 681.649 134.334 680.889 135.145C680.255 135.803 679.837 136.715 679.635 137.881C679.432 139.046 679.331 141.478 679.331 145.177C679.331 149.18 679.432 151.814 679.635 153.081C679.837 154.348 680.293 155.348 681.003 156.083C681.712 156.843 682.586 157.223 683.625 157.223C684.638 157.223 685.499 156.843 686.209 156.083C686.943 155.323 687.399 154.259 687.577 152.891C687.754 151.523 687.855 148.952 687.881 145.177C687.881 141.503 687.779 139.084 687.577 137.919C687.374 136.753 686.956 135.829 686.323 135.145Z" fill="white"/>
</g>
<g id="Group_20">
<path id="Vector_26" d="M696.053 131.367C695.57 131.367 695.184 131.206 694.898 130.884C694.611 130.561 694.468 130.167 694.468 129.701C694.468 128.43 694.943 127.328 695.892 126.397C696.841 125.465 698.023 125 699.438 125C701.068 125 702.429 125.501 703.522 126.504C704.615 127.507 705.17 128.806 705.188 130.4C705.188 131.17 705.009 131.904 704.65 132.603C704.292 133.302 703.862 133.91 703.361 134.43C702.859 134.949 702.143 135.612 701.211 136.418C700.567 136.973 699.671 137.797 698.525 138.89L696.94 140.394L698.982 140.421C701.794 140.421 703.289 140.376 703.468 140.287C703.594 140.251 703.809 139.454 704.113 137.896V137.815H705.188V137.896C705.17 137.949 705.053 138.764 704.838 140.341C704.624 141.917 704.489 142.741 704.435 142.812V142.893H694.468V142.382V142.06C694.468 141.935 694.522 141.8 694.629 141.657C694.737 141.514 695.005 141.2 695.435 140.717C695.955 140.143 696.402 139.642 696.779 139.212C696.94 139.033 697.244 138.702 697.692 138.218C698.14 137.734 698.444 137.403 698.605 137.224C698.767 137.045 699.026 136.749 699.385 136.337C699.743 135.925 699.994 135.621 700.137 135.424C700.28 135.227 700.486 134.958 700.755 134.618C701.023 134.278 701.211 133.991 701.319 133.758C701.426 133.525 701.561 133.266 701.722 132.979C701.883 132.693 702 132.406 702.071 132.119C702.143 131.833 702.206 131.564 702.259 131.313C702.313 131.063 702.34 130.767 702.34 130.427C702.34 129.298 702.035 128.322 701.426 127.498C700.817 126.674 699.949 126.263 698.82 126.263C698.229 126.263 697.71 126.415 697.262 126.719C696.814 127.024 696.501 127.319 696.322 127.606C696.143 127.892 696.053 128.063 696.053 128.116C696.053 128.134 696.098 128.143 696.187 128.143C696.51 128.143 696.841 128.269 697.182 128.519C697.522 128.77 697.692 129.182 697.692 129.755C697.692 130.203 697.549 130.579 697.262 130.884C696.976 131.188 696.573 131.349 696.053 131.367Z" fill="white"/>
</g>
</g>
</g>
<g id="Group_21">
<g id="Group_22">
<path id="Vector_27" d="M299.435 201C299.435 199.252 299.561 197.592 299.815 196.022C300.068 194.451 300.359 193.096 300.689 191.956C301.018 190.816 301.487 189.701 302.095 188.611C302.703 187.522 303.184 186.673 303.539 186.065C303.893 185.457 304.425 184.799 305.135 184.089C305.844 183.38 306.262 182.949 306.389 182.797C306.515 182.645 306.832 182.379 307.339 181.999H307.833H307.985C308.34 181.999 308.517 182.113 308.517 182.341C308.517 182.417 308.302 182.683 307.871 183.139C307.44 183.595 306.921 184.267 306.313 185.153C305.705 186.04 305.084 187.129 304.451 188.421C303.817 189.714 303.285 191.462 302.855 193.666C302.424 195.87 302.209 198.314 302.209 201C302.209 203.685 302.424 206.117 302.855 208.296C303.285 210.475 303.805 212.235 304.413 213.578C305.021 214.921 305.641 216.01 306.275 216.846C306.908 217.682 307.44 218.353 307.871 218.86C308.302 219.367 308.517 219.633 308.517 219.658C308.517 219.886 308.327 220 307.947 220H307.833H307.339L306.275 219.088C303.893 216.935 302.158 214.249 301.069 211.032C299.979 207.814 299.435 204.47 299.435 201Z" fill="white"/>
</g>
<g id="Group_23">
<path id="Vector_28" d="M318.739 188.535L318.245 188.725C317.89 188.852 317.384 188.979 316.725 189.105C316.066 189.232 315.332 189.321 314.521 189.371H313.799V187.623H314.521C315.712 187.573 316.814 187.383 317.827 187.053C318.84 186.724 319.55 186.42 319.955 186.141C320.36 185.863 320.715 185.584 321.019 185.305C321.07 185.229 321.222 185.191 321.475 185.191C321.703 185.191 321.918 185.267 322.121 185.419V196.782L322.159 208.182C322.336 208.359 322.488 208.473 322.615 208.524C322.742 208.574 323.046 208.625 323.527 208.676C324.008 208.726 324.794 208.752 325.883 208.752H326.871V210.5H326.453C325.921 210.424 323.907 210.386 320.411 210.386C316.966 210.386 314.977 210.424 314.445 210.5H313.989V208.752H314.977C315.534 208.752 316.016 208.752 316.421 208.752C316.826 208.752 317.143 208.739 317.371 208.714C317.599 208.688 317.802 208.65 317.979 208.6C318.156 208.549 318.258 208.524 318.283 208.524C318.308 208.524 318.384 208.46 318.511 208.334C318.638 208.207 318.714 208.156 318.739 208.182V188.535Z" fill="white"/>
<path id="Vector_29" d="M332.609 208.22C332.609 207.612 332.825 207.08 333.255 206.624C333.686 206.168 334.231 205.94 334.889 205.94C335.497 205.94 336.029 206.142 336.485 206.548C336.941 206.953 337.182 207.498 337.207 208.182C337.207 208.815 336.992 209.36 336.561 209.816C336.131 210.272 335.586 210.5 334.927 210.5C334.269 210.5 333.724 210.284 333.293 209.854C332.863 209.423 332.635 208.878 332.609 208.22Z" fill="white"/>
<path id="Vector_30" d="M344.351 194.197C343.667 194.197 343.123 193.969 342.717 193.513C342.312 193.057 342.109 192.5 342.109 191.841C342.109 190.043 342.781 188.485 344.123 187.167C345.466 185.85 347.138 185.191 349.14 185.191C351.445 185.191 353.37 185.901 354.916 187.319C356.461 188.738 357.246 190.575 357.272 192.829C357.272 193.919 357.018 194.958 356.512 195.946C356.005 196.934 355.397 197.795 354.688 198.53C353.978 199.264 352.965 200.202 351.648 201.342C350.736 202.127 349.469 203.292 347.847 204.838L345.605 206.966L348.493 207.004C352.471 207.004 354.586 206.94 354.84 206.814C355.017 206.763 355.321 205.636 355.752 203.432V203.318H357.272V203.432C357.246 203.508 357.082 204.66 356.778 206.89C356.474 209.119 356.284 210.284 356.208 210.386V210.5H342.109V209.778V209.322C342.109 209.144 342.185 208.954 342.337 208.752C342.489 208.549 342.869 208.106 343.477 207.422C344.212 206.611 344.845 205.902 345.377 205.294C345.605 205.04 346.036 204.572 346.669 203.888C347.303 203.204 347.733 202.735 347.961 202.482C348.189 202.228 348.557 201.81 349.064 201.228C349.57 200.645 349.925 200.214 350.128 199.936C350.33 199.657 350.622 199.277 351.002 198.796C351.382 198.314 351.648 197.909 351.8 197.58C351.952 197.25 352.142 196.883 352.37 196.478C352.598 196.072 352.762 195.667 352.864 195.262C352.965 194.856 353.054 194.476 353.13 194.121C353.206 193.767 353.244 193.349 353.244 192.867C353.244 191.271 352.813 189.891 351.952 188.725C351.09 187.56 349.862 186.977 348.265 186.977C347.429 186.977 346.695 187.193 346.061 187.623C345.428 188.054 344.985 188.472 344.731 188.877C344.478 189.283 344.351 189.523 344.351 189.599C344.351 189.625 344.415 189.637 344.541 189.637C344.997 189.637 345.466 189.815 345.947 190.169C346.429 190.524 346.669 191.107 346.669 191.917C346.669 192.551 346.467 193.083 346.061 193.513C345.656 193.944 345.086 194.172 344.351 194.197Z" fill="white"/>
</g>
<g id="Group_24">
<path id="Vector_31" d="M362.174 208.22C362.174 207.612 362.389 207.08 362.82 206.624C363.25 206.168 363.795 205.94 364.454 205.94C365.062 205.94 365.594 206.143 366.05 206.548C366.506 206.953 366.746 207.498 366.772 208.182C366.772 208.815 366.556 209.36 366.126 209.816C365.695 210.272 365.15 210.5 364.492 210.5C363.833 210.5 363.288 210.285 362.858 209.854C362.427 209.423 362.199 208.879 362.174 208.22Z" fill="white"/>
<path id="Vector_32" d="M374.6 192.906C373.916 192.906 373.384 192.69 373.004 192.26C372.624 191.829 372.421 191.272 372.396 190.588C372.396 189.194 373.004 187.953 374.22 186.864C375.436 185.774 376.905 185.23 378.628 185.23C379.515 185.23 380.072 185.242 380.3 185.268C382.175 185.572 383.606 186.243 384.594 187.282C385.582 188.32 386.089 189.448 386.114 190.664C386.114 191.981 385.683 193.26 384.822 194.502C383.961 195.743 382.77 196.642 381.25 197.2L381.136 197.276C381.136 197.301 381.25 197.339 381.478 197.39C381.706 197.44 382.073 197.554 382.58 197.732C383.087 197.909 383.568 198.175 384.024 198.53C386.101 199.872 387.14 201.646 387.14 203.85C387.14 205.851 386.355 207.599 384.784 209.094C383.213 210.589 381.225 211.336 378.818 211.336C376.791 211.336 375.043 210.791 373.574 209.702C372.105 208.613 371.37 207.232 371.37 205.56C371.37 204.851 371.598 204.28 372.054 203.85C372.51 203.419 373.08 203.191 373.764 203.166C374.473 203.166 375.056 203.394 375.512 203.85C375.968 204.306 376.196 204.876 376.196 205.56C376.196 205.839 376.158 206.092 376.082 206.32C376.006 206.548 375.917 206.751 375.816 206.928C375.715 207.105 375.575 207.257 375.398 207.384C375.221 207.511 375.069 207.612 374.942 207.688C374.815 207.764 374.689 207.815 374.562 207.84C374.435 207.865 374.334 207.903 374.258 207.954L374.106 207.992C375.398 209.132 376.969 209.702 378.818 209.702C380.211 209.702 381.263 209.031 381.972 207.688C382.403 206.852 382.618 205.573 382.618 203.85V203.09C382.618 200.683 381.807 199.074 380.186 198.264C379.806 198.112 379.033 198.023 377.868 197.998L376.272 197.96L376.158 197.884C376.107 197.808 376.082 197.605 376.082 197.276C376.082 196.82 376.183 196.592 376.386 196.592C377.095 196.592 377.83 196.528 378.59 196.402C379.451 196.275 380.237 195.743 380.946 194.806C381.655 193.868 382.01 192.45 382.01 190.55V190.246C382.01 188.802 381.567 187.801 380.68 187.244C380.123 186.889 379.527 186.712 378.894 186.712C378.083 186.712 377.336 186.851 376.652 187.13C375.968 187.408 375.487 187.7 375.208 188.004C374.929 188.308 374.79 188.46 374.79 188.46H374.904C374.98 188.485 375.081 188.51 375.208 188.536C375.335 188.561 375.461 188.624 375.588 188.726C375.715 188.827 375.867 188.916 376.044 188.992C376.221 189.068 376.348 189.207 376.424 189.41C376.5 189.612 376.601 189.802 376.728 189.98C376.855 190.157 376.893 190.41 376.842 190.74C376.842 191.297 376.665 191.791 376.31 192.222C375.955 192.652 375.385 192.88 374.6 192.906Z" fill="white"/>
</g>
<g id="Group_25">
<path id="Vector_33" d="M391.738 208.22C391.738 207.612 391.954 207.08 392.384 206.624C392.815 206.168 393.36 205.94 394.018 205.94C394.626 205.94 395.158 206.142 395.614 206.548C396.07 206.953 396.311 207.498 396.336 208.182C396.336 208.815 396.121 209.36 395.69 209.816C395.26 210.272 394.715 210.5 394.056 210.5C393.398 210.5 392.853 210.284 392.422 209.854C391.992 209.423 391.764 208.878 391.738 208.22Z" fill="white"/>
<path id="Vector_34" d="M416.895 210.5C416.439 210.424 414.805 210.386 411.993 210.386C409.054 210.386 407.356 210.424 406.9 210.5H406.558V208.752H407.736C408.243 208.752 408.585 208.752 408.762 208.752C408.94 208.752 409.155 208.726 409.408 208.676C409.662 208.625 409.839 208.562 409.94 208.486C410.042 208.41 410.13 208.308 410.206 208.182C410.232 208.131 410.245 207.447 410.245 206.13V204.23H400.402V202.482L406.14 193.703C410.016 187.826 411.98 184.875 412.031 184.849C412.081 184.799 412.347 184.773 412.829 184.773H413.513L413.741 185.001V202.482H417.237V204.23H413.741V206.168C413.741 207.206 413.741 207.814 413.741 207.992C413.741 208.169 413.817 208.321 413.969 208.448C414.171 208.625 414.893 208.726 416.135 208.752H417.237V210.5H416.895ZM410.473 202.482V189.789L402.15 202.444L406.292 202.482H410.473Z" fill="white"/>
</g>
<g id="Group_26">
<path id="Vector_35" d="M421.303 208.22C421.303 207.612 421.518 207.08 421.949 206.624C422.379 206.168 422.924 205.94 423.583 205.94C424.191 205.94 424.723 206.142 425.179 206.548C425.635 206.953 425.875 207.498 425.901 208.182C425.901 208.815 425.685 209.36 425.255 209.816C424.824 210.272 424.279 210.5 423.621 210.5C422.962 210.5 422.417 210.284 421.987 209.854C421.556 209.423 421.328 208.878 421.303 208.22Z" fill="white"/>
</g>
<g id="Group_27">
<path id="Vector_36" d="M438.202 208.22C438.202 207.612 438.417 207.08 438.848 206.624C439.278 206.168 439.823 205.94 440.482 205.94C441.09 205.94 441.622 206.142 442.078 206.548C442.534 206.953 442.774 207.498 442.8 208.182C442.8 208.815 442.584 209.36 442.154 209.816C441.723 210.272 441.178 210.5 440.52 210.5C439.861 210.5 439.316 210.284 438.886 209.854C438.455 209.423 438.227 208.878 438.202 208.22Z" fill="white"/>
</g>
<g id="Group_28">
<path id="Vector_37" d="M455.097 208.22C455.097 207.612 455.312 207.08 455.743 206.624C456.173 206.168 456.718 205.94 457.377 205.94C457.985 205.94 458.517 206.142 458.973 206.548C459.429 206.953 459.669 207.498 459.695 208.182C459.695 208.815 459.479 209.36 459.049 209.816C458.618 210.272 458.073 210.5 457.415 210.5C456.756 210.5 456.211 210.284 455.781 209.854C455.35 209.423 455.122 208.878 455.097 208.22Z" fill="white"/>
</g>
<g id="Group_29">
<path id="Vector_38" d="M471.995 208.22C471.995 207.612 472.211 207.08 472.641 206.624C473.072 206.168 473.617 205.94 474.275 205.94C474.883 205.94 475.415 206.143 475.872 206.548C476.328 206.953 476.568 207.498 476.594 208.182C476.594 208.815 476.378 209.36 475.948 209.816C475.517 210.272 474.972 210.5 474.313 210.5C473.655 210.5 473.11 210.285 472.679 209.854C472.249 209.423 472.021 208.879 471.995 208.22Z" fill="white"/>
<path id="Vector_39" d="M484.422 192.906C483.738 192.906 483.206 192.69 482.826 192.26C482.446 191.829 482.243 191.272 482.218 190.588C482.218 189.194 482.826 187.953 484.042 186.864C485.258 185.774 486.727 185.23 488.45 185.23C489.336 185.23 489.894 185.242 490.122 185.268C491.996 185.572 493.428 186.243 494.416 187.282C495.404 188.32 495.91 189.448 495.936 190.664C495.936 191.981 495.505 193.26 494.644 194.502C493.782 195.743 492.592 196.642 491.072 197.2L490.958 197.276C490.958 197.301 491.072 197.339 491.3 197.39C491.528 197.44 491.895 197.554 492.402 197.732C492.908 197.909 493.39 198.175 493.846 198.53C495.923 199.872 496.962 201.646 496.962 203.85C496.962 205.851 496.176 207.599 494.606 209.094C493.035 210.589 491.046 211.336 488.64 211.336C486.613 211.336 484.865 210.791 483.396 209.702C481.926 208.613 481.192 207.232 481.192 205.56C481.192 204.851 481.42 204.28 481.876 203.85C482.332 203.419 482.902 203.191 483.586 203.166C484.295 203.166 484.878 203.394 485.334 203.85C485.79 204.306 486.018 204.876 486.018 205.56C486.018 205.839 485.98 206.092 485.904 206.32C485.828 206.548 485.739 206.751 485.638 206.928C485.536 207.105 485.397 207.257 485.22 207.384C485.042 207.511 484.89 207.612 484.764 207.688C484.637 207.764 484.51 207.815 484.384 207.84C484.257 207.865 484.156 207.903 484.08 207.954L483.928 207.992C485.22 209.132 486.79 209.702 488.64 209.702C490.033 209.702 491.084 209.031 491.794 207.688C492.224 206.852 492.44 205.573 492.44 203.85V203.09C492.44 200.683 491.629 199.074 490.008 198.264C489.628 198.112 488.855 198.023 487.69 197.998L486.094 197.96L485.98 197.884C485.929 197.808 485.904 197.605 485.904 197.276C485.904 196.82 486.005 196.592 486.208 196.592C486.917 196.592 487.652 196.528 488.412 196.402C489.273 196.275 490.058 195.743 490.768 194.806C491.477 193.868 491.832 192.45 491.832 190.55V190.246C491.832 188.802 491.388 187.801 490.502 187.244C489.944 186.889 489.349 186.712 488.716 186.712C487.905 186.712 487.158 186.851 486.474 187.13C485.79 187.408 485.308 187.7 485.03 188.004C484.751 188.308 484.612 188.46 484.612 188.46H484.726C484.802 188.485 484.903 188.51 485.03 188.536C485.156 188.561 485.283 188.624 485.41 188.726C485.536 188.827 485.688 188.916 485.866 188.992C486.043 189.068 486.17 189.207 486.246 189.41C486.322 189.612 486.423 189.802 486.55 189.98C486.676 190.157 486.714 190.41 486.664 190.74C486.664 191.297 486.486 191.791 486.132 192.222C485.777 192.652 485.207 192.88 484.422 192.906Z" fill="white"/>
<path id="Vector_40" d="M502.244 188.27C503.663 186.218 505.601 185.192 508.058 185.192C509.274 185.192 510.49 185.521 511.706 186.18C512.922 186.838 513.91 188.004 514.67 189.676C515.607 191.778 516.076 194.666 516.076 198.34C516.076 202.266 515.531 205.269 514.442 207.346C513.935 208.41 513.239 209.259 512.352 209.892C511.465 210.525 510.693 210.918 510.034 211.07C509.375 211.222 508.729 211.311 508.096 211.336C507.437 211.336 506.779 211.26 506.12 211.108C505.461 210.956 504.689 210.551 503.802 209.892C502.915 209.233 502.219 208.385 501.712 207.346C500.623 205.269 500.078 202.266 500.078 198.34C500.078 193.932 500.8 190.575 502.244 188.27ZM510.794 187.814C510.034 187.003 509.135 186.598 508.096 186.598C507.032 186.598 506.12 187.003 505.36 187.814C504.727 188.472 504.309 189.384 504.106 190.55C503.903 191.715 503.802 194.147 503.802 197.846C503.802 201.848 503.903 204.483 504.106 205.75C504.309 207.017 504.765 208.017 505.474 208.752C506.183 209.512 507.057 209.892 508.096 209.892C509.109 209.892 509.971 209.512 510.68 208.752C511.415 207.992 511.871 206.928 512.048 205.56C512.225 204.192 512.327 201.62 512.352 197.846C512.352 194.172 512.251 191.753 512.048 190.588C511.845 189.422 511.427 188.498 510.794 187.814Z" fill="white"/>
</g>
<g id="Group_30">
<path id="Vector_41" d="M520.56 208.22C520.56 207.612 520.776 207.08 521.206 206.624C521.637 206.168 522.182 205.94 522.84 205.94C523.448 205.94 523.98 206.143 524.436 206.548C524.892 206.953 525.133 207.498 525.158 208.182C525.158 208.815 524.943 209.36 524.512 209.816C524.082 210.272 523.537 210.5 522.878 210.5C522.22 210.5 521.675 210.285 521.244 209.854C520.814 209.423 520.586 208.879 520.56 208.22Z" fill="white"/>
<path id="Vector_42" d="M532.986 192.906C532.302 192.906 531.77 192.69 531.39 192.26C531.01 191.829 530.808 191.272 530.782 190.588C530.782 189.194 531.39 187.953 532.606 186.864C533.822 185.774 535.292 185.23 537.015 185.23C537.901 185.23 538.459 185.242 538.687 185.268C540.561 185.572 541.993 186.243 542.981 187.282C543.969 188.32 544.475 189.448 544.501 190.664C544.501 191.981 544.07 193.26 543.209 194.502C542.347 195.743 541.157 196.642 539.637 197.2L539.523 197.276C539.523 197.301 539.637 197.339 539.865 197.39C540.093 197.44 540.46 197.554 540.967 197.732C541.473 197.909 541.955 198.175 542.411 198.53C544.488 199.872 545.527 201.646 545.527 203.85C545.527 205.851 544.741 207.599 543.171 209.094C541.6 210.589 539.611 211.336 537.205 211.336C535.178 211.336 533.43 210.791 531.96 209.702C530.491 208.613 529.756 207.232 529.756 205.56C529.756 204.851 529.984 204.28 530.44 203.85C530.896 203.419 531.466 203.191 532.15 203.166C532.86 203.166 533.442 203.394 533.898 203.85C534.354 204.306 534.582 204.876 534.582 205.56C534.582 205.839 534.544 206.092 534.468 206.32C534.392 206.548 534.304 206.751 534.202 206.928C534.101 207.105 533.962 207.257 533.784 207.384C533.607 207.511 533.455 207.612 533.328 207.688C533.202 207.764 533.075 207.815 532.948 207.84C532.822 207.865 532.72 207.903 532.644 207.954L532.492 207.992C533.784 209.132 535.355 209.702 537.205 209.702C538.598 209.702 539.649 209.031 540.359 207.688C540.789 206.852 541.005 205.573 541.005 203.85V203.09C541.005 200.683 540.194 199.074 538.573 198.264C538.193 198.112 537.42 198.023 536.255 197.998L534.658 197.96L534.544 197.884C534.494 197.808 534.468 197.605 534.468 197.276C534.468 196.82 534.57 196.592 534.772 196.592C535.482 196.592 536.216 196.528 536.977 196.402C537.838 196.275 538.623 195.743 539.333 194.806C540.042 193.868 540.397 192.45 540.397 190.55V190.246C540.397 188.802 539.953 187.801 539.067 187.244C538.509 186.889 537.914 186.712 537.281 186.712C536.47 186.712 535.722 186.851 535.038 187.13C534.354 187.408 533.873 187.7 533.594 188.004C533.316 188.308 533.176 188.46 533.176 188.46H533.29C533.366 188.485 533.468 188.51 533.594 188.536C533.721 188.561 533.848 188.624 533.974 188.726C534.101 188.827 534.253 188.916 534.43 188.992C534.608 189.068 534.734 189.207 534.81 189.41C534.886 189.612 534.988 189.802 535.114 189.98C535.241 190.157 535.279 190.41 535.228 190.74C535.228 191.297 535.051 191.791 534.696 192.222C534.342 192.652 533.772 192.88 532.986 192.906Z" fill="white"/>
<path id="Vector_43" d="M555.255 188.536L554.761 188.726C554.406 188.852 553.899 188.979 553.241 189.106C552.582 189.232 551.847 189.321 551.037 189.372H550.315V187.624H551.037C552.227 187.573 553.329 187.383 554.343 187.054C555.356 186.724 556.065 186.42 556.471 186.142C556.876 185.863 557.231 185.584 557.535 185.306C557.586 185.23 557.738 185.192 557.991 185.192C558.219 185.192 558.434 185.268 558.637 185.42V196.782L558.675 208.182C558.852 208.359 559.004 208.473 559.131 208.524C559.258 208.575 559.562 208.625 560.043 208.676C560.524 208.727 561.31 208.752 562.399 208.752H563.387V210.5H562.969C562.437 210.424 560.423 210.386 556.927 210.386C553.481 210.386 551.493 210.424 550.961 210.5H550.505V208.752H551.493C552.05 208.752 552.531 208.752 552.937 208.752C553.342 208.752 553.659 208.739 553.887 208.714C554.115 208.689 554.317 208.651 554.495 208.6C554.672 208.549 554.773 208.524 554.799 208.524C554.824 208.524 554.9 208.461 555.027 208.334C555.153 208.207 555.229 208.157 555.255 208.182V188.536Z" fill="white"/>
</g>
<g id="Group_31">
<path id="Vector_44" d="M568.441 182.037L568.593 181.999C568.72 181.999 568.846 181.999 568.973 181.999H569.429L570.493 182.911C572.874 185.065 574.61 187.75 575.699 190.968C576.788 194.185 577.333 197.529 577.333 201C577.333 202.722 577.206 204.382 576.953 205.978C576.7 207.574 576.408 208.929 576.079 210.044C575.75 211.159 575.281 212.273 574.673 213.388C574.065 214.503 573.584 215.351 573.229 215.934C572.874 216.517 572.355 217.163 571.671 217.872C570.987 218.581 570.582 218.999 570.455 219.126C570.328 219.253 570.037 219.493 569.581 219.848C569.505 219.924 569.454 219.975 569.429 220H568.973C568.77 220 568.631 220 568.555 220C568.479 220 568.416 219.962 568.365 219.886C568.314 219.81 568.276 219.696 568.251 219.544C568.276 219.519 568.416 219.354 568.669 219.05C572.596 214.971 574.559 208.954 574.559 201C574.559 193.045 572.596 187.028 568.669 182.949C568.416 182.645 568.276 182.481 568.251 182.455C568.251 182.253 568.314 182.113 568.441 182.037Z" fill="white"/>
</g>
<g id="Group_32">
<path id="Vector_45" d="M592.579 201.494C592.579 201.494 592.579 201.329 592.579 201C592.579 200.67 592.756 200.417 593.111 200.24H615.189C615.569 200.442 615.759 200.696 615.759 201C615.759 201.304 615.569 201.557 615.189 201.76H593.111C592.756 201.582 592.579 201.329 592.579 201V201.494Z" fill="white"/>
</g>
<g id="Group_33">
<path id="Vector_46" d="M631.537 194.197C630.853 194.197 630.309 193.969 629.903 193.513C629.498 193.057 629.295 192.5 629.295 191.841C629.295 190.043 629.966 188.485 631.309 187.167C632.652 185.85 634.324 185.191 636.325 185.191C638.631 185.191 640.556 185.901 642.101 187.319C643.647 188.738 644.432 190.575 644.457 192.829C644.457 193.919 644.204 194.958 643.697 195.946C643.191 196.934 642.583 197.795 641.873 198.53C641.164 199.264 640.151 200.202 638.833 201.342C637.921 202.127 636.655 203.292 635.033 204.838L632.791 206.966L635.679 207.004C639.657 207.004 641.772 206.94 642.025 206.814C642.203 206.763 642.507 205.636 642.937 203.432V203.318H644.457V203.432C644.432 203.508 644.267 204.66 643.963 206.89C643.659 209.119 643.469 210.284 643.393 210.386V210.5H629.295V209.778V209.322C629.295 209.144 629.371 208.954 629.523 208.752C629.675 208.549 630.055 208.106 630.663 207.422C631.398 206.611 632.031 205.902 632.563 205.294C632.791 205.04 633.222 204.572 633.855 203.888C634.489 203.204 634.919 202.735 635.147 202.482C635.375 202.228 635.743 201.81 636.249 201.228C636.756 200.645 637.111 200.214 637.313 199.936C637.516 199.657 637.807 199.277 638.187 198.796C638.567 198.314 638.833 197.909 638.985 197.58C639.137 197.25 639.327 196.883 639.555 196.478C639.783 196.072 639.948 195.667 640.049 195.262C640.151 194.856 640.239 194.476 640.315 194.121C640.391 193.767 640.429 193.349 640.429 192.867C640.429 191.271 639.999 189.891 639.137 188.725C638.276 187.56 637.047 186.977 635.451 186.977C634.615 186.977 633.881 187.193 633.247 187.623C632.614 188.054 632.171 188.472 631.917 188.877C631.664 189.283 631.537 189.523 631.537 189.599C631.537 189.625 631.601 189.637 631.727 189.637C632.183 189.637 632.652 189.815 633.133 190.169C633.615 190.524 633.855 191.107 633.855 191.917C633.855 192.551 633.653 193.083 633.247 193.513C632.842 193.944 632.272 194.172 631.537 194.197Z" fill="white"/>
</g>
</g>
<path id="Vector_47" d="M712.262 175.159H230V172.879H712.262V175.159Z" fill="white"/>
</g>
</g>
</g>
</g>
<g id="claves">
<path id="Rectangle 4" d="M51 332H267.745L301 372L267.745 412H51V332Z" fill="#CD08D1" fill-opacity="0.1"/>
<path id="Rectangle 4 (Stroke)" fill-rule="evenodd" clip-rule="evenodd" d="M266.338 335H54V409H266.338L297.099 372L266.338 335ZM267.745 332H51V412H267.745L301 372L267.745 332Z" fill="#CD08D1"/>
<path id="Rectangle 5" d="M55 442H271.745L305 482L271.745 522H55V442Z" fill="#CD08D1" fill-opacity="0.1"/>
<path id="Rectangle 5 (Stroke)" fill-rule="evenodd" clip-rule="evenodd" d="M270.338 445H58V519H270.338L301.099 482L270.338 445ZM271.745 442H55V522H271.745L305 482L271.745 442Z" fill="#CD08D1"/>
<path id="Rectangle 6" d="M391 329H607.745L641 369L607.745 409H391V329Z" fill="#CD08D1" fill-opacity="0.1"/>
<path id="Rectangle 6 (Stroke)" fill-rule="evenodd" clip-rule="evenodd" d="M606.338 332H394V406H606.338L637.099 369L606.338 332ZM607.745 329H391V409H607.745L641 369L607.745 329Z" fill="#CD08D1"/>
<path id="Rectangle 7" d="M394 439H610.745L644 479L610.745 519H394V439Z" fill="#CD08D1" fill-opacity="0.1"/>
<path id="Rectangle 7 (Stroke)" fill-rule="evenodd" clip-rule="evenodd" d="M609.338 442H397V516H609.338L640.099 479L609.338 442ZM610.745 439H394V519H610.745L644 479L610.745 439Z" fill="#CD08D1"/>
<path id="Rectangle 8" d="M737 388H953.745L987 428L953.745 468H737V388Z" fill="#CD08D1" fill-opacity="0.1"/>
<path id="Rectangle 8 (Stroke)" fill-rule="evenodd" clip-rule="evenodd" d="M952.338 391H740V465H952.338L983.099 428L952.338 391ZM953.745 388H737V468H953.745L987 428L953.745 388Z" fill="#CD08D1"/>
<path id="Ellipse 1" d="M92 372C92 394.091 74.0914 412 52 412C29.9086 412 12 394.091 12 372C12 349.909 29.9086 332 52 332C74.0914 332 92 349.909 92 372Z" fill="#CD08D1"/>
<path id="Ellipse 2" d="M96 482C96 504.091 78.0914 522 56 522C33.9086 522 16 504.091 16 482C16 459.909 33.9086 442 56 442C78.0914 442 96 459.909 96 482Z" fill="#CD08D1"/>
<path id="Ellipse 3" d="M432 369C432 391.091 414.091 409 392 409C369.909 409 352 391.091 352 369C352 346.909 369.909 329 392 329C414.091 329 432 346.909 432 369Z" fill="#CD08D1"/>
<path id="Ellipse 4" d="M435 479C435 501.091 417.091 519 395 519C372.909 519 355 501.091 355 479C355 456.909 372.909 439 395 439C417.091 439 435 456.909 435 479Z" fill="#CD08D1"/>
<path id="Ellipse 5" d="M778 428C778 450.091 760.091 468 738 468C715.909 468 698 450.091 698 428C698 405.909 715.909 388 738 388C760.091 388 778 405.909 778 428Z" fill="#CD08D1"/>
<path id="A" d="M60.0938 382.406H42.4688L38.7812 393H30.5625L47.75 347.5H54.8438L72.0625 393H63.8125L60.0938 382.406ZM44.6875 376.031H57.875L51.2812 357.156L44.6875 376.031Z" fill="white"/>
<path id="B" d="M39.625 498V452.5H55.2188C60.3646 452.5 64.2812 453.531 66.9688 455.594C69.6562 457.656 71 460.729 71 464.812C71 466.896 70.4375 468.771 69.3125 470.438C68.1875 472.104 66.5417 473.396 64.375 474.312C66.8333 474.979 68.7292 476.24 70.0625 478.094C71.4167 479.927 72.0938 482.135 72.0938 484.719C72.0938 488.99 70.7188 492.271 67.9688 494.562C65.2396 496.854 61.3229 498 56.2188 498H39.625ZM47.5312 477.469V491.688H56.3125C58.7917 491.688 60.7292 491.073 62.125 489.844C63.5208 488.615 64.2188 486.906 64.2188 484.719C64.2188 479.99 61.8021 477.573 56.9688 477.469H47.5312ZM47.5312 471.656H55.2812C57.7396 471.656 59.6562 471.104 61.0312 470C62.4271 468.875 63.125 467.292 63.125 465.25C63.125 463 62.4792 461.375 61.1875 460.375C59.9167 459.375 57.9271 458.875 55.2188 458.875H47.5312V471.656Z" fill="white"/>
<path id="C" d="M409.344 376.188C408.885 381.042 407.094 384.833 403.969 387.562C400.844 390.271 396.688 391.625 391.5 391.625C387.875 391.625 384.677 390.771 381.906 389.062C379.156 387.333 377.031 384.885 375.531 381.719C374.031 378.552 373.25 374.875 373.188 370.688V366.438C373.188 362.146 373.948 358.365 375.469 355.094C376.99 351.823 379.167 349.302 382 347.531C384.854 345.76 388.146 344.875 391.875 344.875C396.896 344.875 400.938 346.24 404 348.969C407.062 351.698 408.844 355.552 409.344 360.531H401.469C401.094 357.26 400.135 354.906 398.594 353.469C397.073 352.01 394.833 351.281 391.875 351.281C388.438 351.281 385.792 352.542 383.938 355.062C382.104 357.562 381.167 361.24 381.125 366.094V370.125C381.125 375.042 382 378.792 383.75 381.375C385.521 383.958 388.104 385.25 391.5 385.25C394.604 385.25 396.938 384.552 398.5 383.156C400.062 381.76 401.052 379.438 401.469 376.188H409.344Z" fill="white"/>
<path id="D" d="M377.625 501V455.5H391.062C395.083 455.5 398.646 456.396 401.75 458.188C404.875 459.979 407.292 462.521 409 465.812C410.708 469.104 411.562 472.875 411.562 477.125V479.406C411.562 483.719 410.698 487.51 408.969 490.781C407.26 494.052 404.812 496.573 401.625 498.344C398.458 500.115 394.823 501 390.719 501H377.625ZM385.531 461.875V494.688H390.688C394.833 494.688 398.01 493.396 400.219 490.812C402.448 488.208 403.583 484.479 403.625 479.625V477.094C403.625 472.156 402.552 468.385 400.406 465.781C398.26 463.177 395.146 461.875 391.062 461.875H385.531Z" fill="white"/>
<path id="E" d="M747.219 429.688H728.531V443.688H750.375V450H720.625V404.5H750.156V410.875H728.531V423.438H747.219V429.688Z" fill="white"/>
<g id="1 0 300 1/2 -1">
<path d="M141.95 385H138.136V359.714L130.486 362.523V359.078L141.355 354.997H141.95V385Z" fill="#CD08D1"/>
<path d="M505.164 372.265C505.164 376.708 504.405 380.01 502.888 382.17C501.37 384.33 498.998 385.41 495.771 385.41C492.586 385.41 490.228 384.357 488.696 382.252C487.165 380.133 486.372 376.975 486.317 372.777V367.712C486.317 363.323 487.076 360.062 488.594 357.93C490.111 355.797 492.49 354.73 495.73 354.73C498.943 354.73 501.309 355.763 502.826 357.827C504.344 359.878 505.123 363.05 505.164 367.343V372.265ZM501.37 367.076C501.37 363.863 500.919 361.525 500.017 360.062C499.114 358.586 497.686 357.848 495.73 357.848C493.789 357.848 492.374 358.579 491.485 360.042C490.597 361.505 490.139 363.754 490.111 366.789V372.859C490.111 376.086 490.576 378.472 491.506 380.017C492.449 381.548 493.871 382.313 495.771 382.313C497.645 382.313 499.032 381.589 499.935 380.14C500.851 378.69 501.329 376.407 501.37 373.29V367.076Z" fill="#CD08D1"/>
<path d="M833.002 424.225H835.853C837.644 424.197 839.052 423.726 840.077 422.81C841.103 421.894 841.615 420.656 841.615 419.098C841.615 415.598 839.872 413.848 836.386 413.848C834.745 413.848 833.433 414.319 832.448 415.263C831.478 416.192 830.992 417.43 830.992 418.975H827.198C827.198 416.609 828.06 414.647 829.782 413.089C831.519 411.517 833.72 410.73 836.386 410.73C839.202 410.73 841.41 411.476 843.01 412.966C844.609 414.456 845.409 416.527 845.409 419.18C845.409 420.479 844.985 421.736 844.138 422.953C843.304 424.17 842.162 425.079 840.713 425.681C842.354 426.2 843.618 427.062 844.507 428.265C845.409 429.468 845.86 430.938 845.86 432.674C845.86 435.354 844.985 437.479 843.235 439.052C841.485 440.624 839.209 441.41 836.406 441.41C833.604 441.41 831.32 440.651 829.557 439.134C827.807 437.616 826.932 435.613 826.932 433.125H830.746C830.746 434.697 831.259 435.955 832.284 436.898C833.31 437.842 834.684 438.313 836.406 438.313C838.238 438.313 839.64 437.835 840.61 436.878C841.581 435.921 842.066 434.547 842.066 432.756C842.066 431.02 841.533 429.687 840.467 428.757C839.4 427.827 837.862 427.349 835.853 427.321H833.002V424.225Z" fill="#CD08D1"/>
<path d="M869.793 428.265C869.793 432.708 869.034 436.01 867.517 438.17C865.999 440.33 863.627 441.41 860.4 441.41C857.215 441.41 854.856 440.357 853.325 438.252C851.794 436.133 851.001 432.975 850.946 428.777V423.712C850.946 419.323 851.705 416.062 853.223 413.93C854.74 411.797 857.119 410.73 860.359 410.73C863.572 410.73 865.938 411.763 867.455 413.827C868.973 415.878 869.752 419.05 869.793 423.343V428.265ZM865.999 423.076C865.999 419.863 865.548 417.525 864.646 416.062C863.743 414.586 862.314 413.848 860.359 413.848C858.418 413.848 857.003 414.579 856.114 416.042C855.226 417.505 854.768 419.754 854.74 422.789V428.859C854.74 432.086 855.205 434.472 856.135 436.017C857.078 437.548 858.5 438.313 860.4 438.313C862.273 438.313 863.661 437.589 864.563 436.14C865.479 434.69 865.958 432.407 865.999 429.29V423.076Z" fill="#CD08D1"/>
<path d="M893.377 428.265C893.377 432.708 892.618 436.01 891.101 438.17C889.583 440.33 887.211 441.41 883.984 441.41C880.799 441.41 878.44 440.357 876.909 438.252C875.378 436.133 874.585 432.975 874.53 428.777V423.712C874.53 419.323 875.289 416.062 876.807 413.93C878.324 411.797 880.703 410.73 883.943 410.73C887.156 410.73 889.521 411.763 891.039 413.827C892.557 415.878 893.336 419.05 893.377 423.343V428.265ZM889.583 423.076C889.583 419.863 889.132 417.525 888.229 416.062C887.327 414.586 885.898 413.848 883.943 413.848C882.002 413.848 880.587 414.579 879.698 416.042C878.81 417.505 878.352 419.754 878.324 422.789V428.859C878.324 432.086 878.789 434.472 879.719 436.017C880.662 437.548 882.084 438.313 883.984 438.313C885.857 438.313 887.245 437.589 888.147 436.14C889.063 434.69 889.542 432.407 889.583 429.29V423.076Z" fill="#CD08D1"/>
<path d="M141.95 497H138.136V471.714L130.486 474.523V471.078L141.355 466.997H141.95V497Z" fill="#CD08D1"/>
<path d="M154.214 499.563H150.953L163.422 467.141H166.662L154.214 499.563Z" fill="#CD08D1"/>
<path d="M189.938 497H170.374V494.272L180.71 482.788C182.241 481.052 183.294 479.644 183.868 478.563C184.456 477.47 184.75 476.342 184.75 475.18C184.75 473.621 184.278 472.343 183.335 471.345C182.392 470.347 181.134 469.848 179.562 469.848C177.675 469.848 176.205 470.388 175.152 471.468C174.113 472.534 173.594 474.024 173.594 475.938H169.8C169.8 473.19 170.682 470.969 172.445 469.273C174.223 467.578 176.595 466.73 179.562 466.73C182.337 466.73 184.531 467.462 186.145 468.925C187.758 470.374 188.564 472.309 188.564 474.729C188.564 477.668 186.691 481.168 182.945 485.229L174.947 493.903H189.938V497Z" fill="#CD08D1"/>
<path d="M493.946 485.864H483.938V482.768H493.946V485.864Z" fill="#CD08D1"/>
<path d="M509.737 497H505.923V471.714L498.273 474.523V471.078L509.143 466.997H509.737V497Z" fill="#CD08D1"/>
</g>
<g id="flecha">
<path id="Rectangle 2" d="M58.2001 334.008L73.4819 342.133L31.5003 421.089L16.2185 412.963L58.2001 334.008Z" fill="#1043F5"/>
<path id="Rectangle 1_2" d="M0 346.904L90 297V354.692L45 337.096L0 346.904Z" fill="#1043F5"/>
<path id="Rectangle 3" d="M4.03848 416.21L19.6656 389.143L36.9363 388.565L21.3091 415.632L4.03848 416.21Z" fill="#1043F5"/>
<path id="Rectangle 4_2" d="M30.0894 430.845L45.7166 403.778L36.9259 388.154L21.2987 415.221L30.0894 430.845Z" fill="#1043F5"/>
</g>
</g>
</g>
</svg>
