<svg viewBox="0 0 629 257" fill="none" xmlns="http://www.w3.org/2000/svg">
<g id="01232092">
<g id="Group">
<g id="Group 157">
<g id="Group_2">
<g id="Group_3">
<path id="Vector" d="M1.71252 36.9757C1.23751 36.9757 1 36.836 1 36.5565C1 36.5007 1.04191 36.3051 1.12574 35.9698C1.23751 35.5227 1.34928 35.2712 1.46104 35.2153C1.57281 35.1594 1.89414 35.1175 2.42504 35.0896C3.17948 35.0896 4.01774 35.0477 4.93982 34.9638C5.33101 34.88 5.59646 34.7124 5.73617 34.4609C5.79205 34.3212 6.784 30.3953 8.71199 22.6833C10.64 14.9713 11.618 11.0595 11.6459 10.9477C11.6459 10.7521 11.59 10.6543 11.4783 10.6543C11.2547 10.5705 10.5143 10.5006 9.25686 10.4447H7.95756C7.78991 10.2771 7.70608 10.1653 7.70608 10.1094C7.70608 10.0535 7.73402 9.81603 7.78991 9.3969C7.90168 8.92189 8.04139 8.6285 8.20904 8.51673H30.8002C30.9957 8.6285 31.0935 8.78218 31.0935 8.97777C31.0935 9.11748 30.9119 10.6822 30.5487 13.672C30.1854 16.6618 29.9898 18.1986 29.9619 18.2825C29.906 18.4781 29.6266 18.5759 29.1236 18.5759H28.6207C28.4251 18.4361 28.3273 18.2545 28.3273 18.031C28.3273 18.003 28.3692 17.6677 28.453 17.0251C28.5368 16.3824 28.5788 15.6419 28.5788 14.8037C28.5788 13.9654 28.481 13.2808 28.2854 12.7499C28.0898 12.219 27.8243 11.7859 27.489 11.4506C27.1537 11.1153 26.6368 10.8918 25.9382 10.78C25.2397 10.6683 24.5272 10.5705 23.8007 10.4866C23.0742 10.4028 22.0683 10.3888 20.7829 10.4447H19.8189C17.5277 10.4727 16.3122 10.5146 16.1725 10.5705C16.0328 10.6264 15.935 10.7381 15.8791 10.9058C15.8512 10.9337 15.3762 12.7639 14.4541 16.3964L13.1129 21.8032H15.4181C15.5019 21.8032 15.8232 21.8032 16.3821 21.8032C16.9409 21.8032 17.3321 21.7892 17.5556 21.7612C17.7792 21.7333 18.0865 21.6914 18.4777 21.6355C18.8689 21.5796 19.2042 21.4818 19.4836 21.3421C19.7631 21.2024 20.0006 21.0347 20.1962 20.8392C20.5594 20.5039 20.8668 20.0428 21.1182 19.456C21.3697 18.8692 21.5513 18.3383 21.6631 17.8633C21.7749 17.3883 21.8447 17.1368 21.8727 17.1089C21.9565 16.9692 22.222 16.8993 22.669 16.8993H23.172C23.3676 17.039 23.4654 17.1788 23.4654 17.3185C23.4654 17.4023 23.0323 19.2325 22.1661 22.8091C21.2999 26.3856 20.8249 28.2298 20.741 28.3416C20.6851 28.5372 20.4057 28.635 19.9028 28.635H19.3998C19.2042 28.4673 19.1064 28.2997 19.1064 28.132C19.1064 28.0482 19.1763 27.7408 19.316 27.2099C19.4557 26.679 19.5256 26.1202 19.5256 25.5334C19.5256 24.7231 19.2461 24.2201 18.6873 24.0245C18.1285 23.8289 16.885 23.7312 14.957 23.7312H12.6518L11.3106 29.0541C10.4165 32.5189 9.96938 34.3351 9.96938 34.5028C9.96938 34.894 11.2128 35.0896 13.6996 35.0896H14.7475C14.9151 35.2572 14.9989 35.355 14.9989 35.383C14.9989 35.4109 14.971 35.6903 14.9151 36.2212C14.8034 36.5845 14.6636 36.8499 14.496 37.0176H13.7835C12.6378 36.9617 10.5282 36.9338 7.4546 36.9338C5.63837 36.9338 4.25524 36.9338 3.30522 36.9338C2.35519 36.9338 1.82429 36.9477 1.71252 36.9757Z" fill="white"/>
</g>
<g id="Group_4">
<g id="Group_5">
<path id="Vector_2" d="M30.413 29.5848C29.8797 29.5848 29.4648 29.4169 29.1685 29.081C28.8722 28.7452 28.7141 28.3106 28.6944 27.7772C28.6944 26.6907 29.1685 25.7227 30.1167 24.8732C31.065 24.0237 32.2108 23.599 33.5541 23.599C34.2455 23.599 34.6801 23.6089 34.8579 23.6286C36.3198 23.8657 37.436 24.3892 38.2064 25.1992C38.9768 26.0091 39.3719 26.8882 39.3917 27.8365C39.3917 28.8637 39.0559 29.8613 38.3842 30.8293C37.7125 31.7973 36.784 32.4986 35.5987 32.9333L35.5098 32.9925C35.5098 33.0123 35.5987 33.0419 35.7765 33.0814C35.9543 33.1209 36.2408 33.2098 36.6359 33.3481C37.031 33.4864 37.4063 33.6938 37.7619 33.9704C39.3818 35.0174 40.1918 36.4003 40.1918 38.1189C40.1918 39.6796 39.5794 41.0427 38.3546 42.2082C37.1297 43.3738 35.579 43.9565 33.7023 43.9565C32.1219 43.9565 30.7588 43.5318 29.613 42.6823C28.4672 41.8329 27.8943 40.7562 27.8943 39.4524C27.8943 38.8993 28.0721 38.4548 28.4277 38.1189C28.7833 37.7831 29.2277 37.6053 29.7611 37.5856C30.3143 37.5856 30.7686 37.7634 31.1242 38.1189C31.4798 38.4745 31.6576 38.919 31.6576 39.4524C31.6576 39.6697 31.628 39.8673 31.5687 40.0451C31.5095 40.2228 31.4403 40.3809 31.3613 40.5192C31.2823 40.6575 31.1736 40.776 31.0353 40.8748C30.897 40.9735 30.7785 41.0526 30.6797 41.1118C30.581 41.1711 30.4822 41.2106 30.3834 41.2304C30.2846 41.2501 30.2056 41.2797 30.1464 41.3193L30.0278 41.3489C31.0353 42.2379 32.2601 42.6823 33.7023 42.6823C34.7888 42.6823 35.6086 42.1588 36.1618 41.1118C36.4976 40.4599 36.6655 39.4623 36.6655 38.1189V37.5263C36.6655 35.6496 36.0333 34.3951 34.769 33.763C34.4727 33.6444 33.8702 33.5753 32.9614 33.5555L31.7169 33.5259L31.628 33.4666C31.5885 33.4074 31.5687 33.2493 31.5687 32.9925C31.5687 32.6369 31.6477 32.4591 31.8058 32.4591C32.3589 32.4591 32.9318 32.4097 33.5245 32.311C34.1961 32.2122 34.8085 31.7973 35.3617 31.0664C35.9148 30.3355 36.1914 29.2292 36.1914 27.7476V27.5105C36.1914 26.3845 35.8457 25.6041 35.1542 25.1695C34.7196 24.893 34.2554 24.7547 33.7615 24.7547C33.1294 24.7547 32.5466 24.8633 32.0132 25.0806C31.4798 25.2979 31.1045 25.5251 30.8872 25.7622C30.6699 25.9992 30.5612 26.1178 30.5612 26.1178H30.6501C30.7094 26.1375 30.7884 26.1573 30.8872 26.177C30.9859 26.1968 31.0847 26.2462 31.1835 26.3252C31.2823 26.4042 31.4008 26.4734 31.5391 26.5326C31.6774 26.5919 31.7761 26.7005 31.8354 26.8586C31.8947 27.0166 31.9737 27.1648 32.0725 27.3031C32.1712 27.4414 32.2009 27.6389 32.1614 27.8957C32.1614 28.3303 32.0231 28.7156 31.7465 29.0514C31.4699 29.3872 31.0255 29.565 30.413 29.5848Z" fill="white"/>
<path id="Vector_3" d="M55.1559 43.3042C54.8003 43.2449 53.5261 43.2153 51.3333 43.2153C49.0417 43.2153 47.7182 43.2449 47.3626 43.3042H47.0959V41.9411H48.0145C48.4096 41.9411 48.6763 41.9411 48.8146 41.9411C48.9528 41.9411 49.1208 41.9213 49.3183 41.8818C49.5159 41.8423 49.6541 41.7929 49.7332 41.7337C49.8122 41.6744 49.8813 41.5954 49.9406 41.4966C49.9603 41.4571 49.9702 40.9237 49.9702 39.8965V38.4148H42.2954V37.0517L46.7699 30.2066C49.7924 25.6235 51.3234 23.322 51.363 23.3023C51.4025 23.2627 51.6099 23.243 51.9852 23.243H52.5186L52.6964 23.4208V37.0517H55.4226V38.4148H52.6964V39.9261C52.6964 40.736 52.6964 41.2102 52.6964 41.3485C52.6964 41.4867 52.7557 41.6053 52.8742 41.704C53.0323 41.8423 53.5953 41.9213 54.5633 41.9411H55.4226V43.3042H55.1559ZM50.148 37.0517V27.1545L43.6585 37.0221L46.8884 37.0517H50.148Z" fill="white"/>
</g>
</g>
</g>
<g id="Group_6">
<path id="Vector_4" d="M72.373 22.4737C72.373 22.1105 72.5686 21.8311 72.9598 21.6355H99.6584C100.078 21.859 100.287 22.1384 100.287 22.4737C100.287 22.7811 100.092 23.0465 99.7003 23.2701L86.372 23.312H73.0437C72.5966 23.1723 72.373 22.8929 72.373 22.4737ZM72.373 30.6049C72.373 30.1857 72.5966 29.9063 73.0437 29.7666H99.7003C100.092 30.046 100.287 30.3254 100.287 30.6049C100.287 30.9681 100.078 31.2475 99.6584 31.4431H72.9598C72.5686 31.2475 72.373 30.9681 72.373 30.6049Z" fill="white"/>
</g>
<g id="Group_7">
<path id="Vector_5" d="M123.205 12.7919L122.66 13.0014C122.269 13.1411 121.71 13.2808 120.984 13.4206C120.257 13.5603 119.447 13.6581 118.553 13.7139H117.757V11.7859H118.553C119.866 11.7301 121.082 11.5205 122.199 11.1572C123.317 10.794 124.099 10.4587 124.546 10.1513C124.994 9.84397 125.385 9.53661 125.72 9.22925C125.776 9.14542 125.944 9.10351 126.223 9.10351C126.474 9.10351 126.712 9.18734 126.936 9.35499V21.887L126.977 34.4609C127.173 34.6565 127.341 34.7822 127.48 34.8381C127.62 34.894 127.955 34.9499 128.486 35.0058C129.017 35.0616 129.883 35.0896 131.085 35.0896H132.175V37.0176H131.714C131.127 36.9338 128.905 36.8918 125.049 36.8918C121.249 36.8918 119.056 36.9338 118.469 37.0176H117.966V35.0896H119.056C119.671 35.0896 120.202 35.0896 120.649 35.0896C121.096 35.0896 121.445 35.0756 121.696 35.0477C121.948 35.0197 122.171 34.9778 122.367 34.9219C122.563 34.866 122.674 34.8381 122.702 34.8381C122.73 34.8381 122.814 34.7682 122.954 34.6285C123.094 34.4888 123.177 34.4329 123.205 34.4609V12.7919Z" fill="white"/>
</g>
<g id="Group_8">
<path id="Vector_6" d="M170.952 35.8024C170.952 36.3612 170.659 36.6406 170.072 36.6406C169.933 36.6406 169.625 36.4171 169.15 35.97C168.675 35.5229 167.362 34.2236 165.21 32.0721L160.851 27.7132L156.451 32.114C153.489 35.02 151.966 36.5009 151.882 36.5568C151.77 36.6127 151.672 36.6406 151.589 36.6406C151.365 36.6406 151.17 36.5568 151.002 36.3891C150.834 36.2215 150.736 36.0259 150.708 35.8024C150.708 35.6068 150.904 35.2994 151.295 34.8803C151.686 34.4611 153 33.1339 155.235 30.8985L159.594 26.5396L155.235 22.1806C152.972 19.9173 151.659 18.5901 151.295 18.1989C150.932 17.8077 150.736 17.5003 150.708 17.2768C150.708 17.0253 150.792 16.8297 150.96 16.69C151.128 16.5503 151.337 16.4805 151.589 16.4805C151.728 16.4805 151.826 16.4944 151.882 16.5224C151.966 16.5783 153.489 18.0592 156.451 20.9652L160.851 25.366L165.21 21.0071C167.362 18.8555 168.675 17.5562 169.15 17.1092C169.625 16.6621 169.933 16.4386 170.072 16.4386C170.659 16.4386 170.952 16.718 170.952 17.2768C170.952 17.4724 170.813 17.7239 170.533 18.0312C170.254 18.3386 168.885 19.7078 166.426 22.1387L162.067 26.5396L166.426 30.9405C168.773 33.2876 170.114 34.6428 170.45 35.006C170.785 35.3693 170.952 35.6347 170.952 35.8024Z" fill="white"/>
</g>
<g id="Group_9">
<g id="Group_10">
<path id="Vector_7" d="M188.564 26.4543C188.564 23.241 189.501 20.1534 191.373 17.1915C193.245 14.2297 195.606 11.8826 198.456 10.1502C201.306 8.41775 204.156 7.53757 207.006 7.50963C209.521 7.50963 211.519 8.22215 213 9.64719C213.251 9.92661 213.461 10.1641 213.628 10.3597C213.796 10.5553 213.908 10.695 213.964 10.7788L214.006 10.9046C214.089 10.9046 214.467 10.5413 215.137 9.81485C215.333 9.64719 215.542 9.4516 215.766 9.22806C215.99 9.00453 216.213 8.78099 216.437 8.55746C216.66 8.33392 216.8 8.18024 216.856 8.09641L217.484 7.46772H217.736C218.127 7.46772 218.323 7.56552 218.323 7.76111C218.323 7.87288 217.876 9.7869 216.981 13.5032C215.976 17.3871 215.473 19.3431 215.473 19.371C215.417 19.5107 215.347 19.5945 215.263 19.6225C215.179 19.6504 214.928 19.6784 214.509 19.7063H213.838C213.67 19.5387 213.587 19.4129 213.587 19.3291C213.587 19.3012 213.6 19.2034 213.628 19.0357C213.656 18.8681 213.684 18.5886 213.712 18.1974C213.74 17.8063 213.754 17.3592 213.754 16.8562C213.754 14.8724 213.307 13.1399 212.413 11.659C211.519 10.1781 209.996 9.42366 207.844 9.39572C207.118 9.39572 206.336 9.49351 205.497 9.68911C204.659 9.8847 203.653 10.22 202.48 10.695C201.306 11.17 200.146 11.9524 199.001 13.0421C197.855 14.1319 196.835 15.4312 195.941 16.9401C195.047 18.5328 194.334 20.3909 193.804 22.5145C193.273 24.6381 193.007 26.3705 193.007 27.7117C193.007 30.8971 194.069 33.1883 196.193 34.5854C197.534 35.5355 199.182 36.0105 201.138 36.0105C203.681 36.0105 205.944 35.0604 207.928 33.1604C209.912 31.2603 211.225 29.1926 211.868 26.9573C211.98 26.594 212.064 26.3845 212.12 26.3286C212.175 26.2727 212.399 26.2447 212.79 26.2447C213.349 26.2447 213.628 26.3705 213.628 26.622C213.628 26.7617 213.614 26.8874 213.587 26.9992C212.776 29.989 211.044 32.5596 208.389 34.7112C205.735 36.8627 202.885 37.9385 199.839 37.9385C196.682 37.9385 194.013 36.8907 191.834 34.795C189.654 32.6994 188.564 29.9191 188.564 26.4543Z" fill="white"/>
</g>
<g id="Group_11">
<g id="Group_12">
<path id="Vector_8" d="M224.56 5.98786C224.026 5.98786 223.611 5.81994 223.315 5.4841C223.019 5.14827 222.861 4.71366 222.841 4.18027C222.841 3.09375 223.315 2.12575 224.263 1.27629C225.211 0.426823 226.357 0.00209074 227.701 0.00209074C228.392 0.00209074 228.827 0.0119682 229.004 0.0317232C230.466 0.268783 231.582 0.792291 232.353 1.60225C233.123 2.4122 233.518 3.2913 233.538 4.23954C233.538 5.2668 233.202 6.26443 232.531 7.23242C231.859 8.20042 230.931 8.90172 229.745 9.33633L229.656 9.39559C229.656 9.41535 229.745 9.44498 229.923 9.48449C230.101 9.524 230.387 9.6129 230.782 9.75118C231.177 9.88947 231.553 10.0969 231.908 10.3735C233.528 11.4205 234.338 12.8033 234.338 14.522C234.338 16.0827 233.726 17.4458 232.501 18.6113C231.276 19.7768 229.725 20.3596 227.849 20.3596C226.268 20.3596 224.905 19.9349 223.759 19.0854C222.614 18.236 222.041 17.1593 222.041 15.8555C222.041 15.3023 222.219 14.8579 222.574 14.522C222.93 14.1862 223.374 14.0084 223.908 13.9886C224.461 13.9886 224.915 14.1664 225.271 14.522C225.626 14.8776 225.804 15.3221 225.804 15.8555C225.804 16.0728 225.774 16.2703 225.715 16.4481C225.656 16.6259 225.587 16.784 225.508 16.9222C225.429 17.0605 225.32 17.1791 225.182 17.2778C225.044 17.3766 224.925 17.4556 224.826 17.5149C224.727 17.5742 224.629 17.6137 224.53 17.6334C224.431 17.6532 224.352 17.6828 224.293 17.7223L224.174 17.752C225.182 18.6409 226.407 19.0854 227.849 19.0854C228.935 19.0854 229.755 18.5619 230.308 17.5149C230.644 16.863 230.812 15.8654 230.812 14.522V13.9294C230.812 12.0526 230.18 10.7982 228.916 10.166C228.619 10.0475 228.017 9.97837 227.108 9.95861L225.863 9.92898L225.774 9.86971C225.735 9.81045 225.715 9.65241 225.715 9.39559C225.715 9.04 225.794 8.86221 225.952 8.86221C226.505 8.86221 227.078 8.81282 227.671 8.71405C228.343 8.61527 228.955 8.20042 229.508 7.46948C230.061 6.73855 230.338 5.63227 230.338 4.15064V3.91358C230.338 2.78755 229.992 2.00722 229.301 1.57261C228.866 1.29604 228.402 1.15776 227.908 1.15776C227.276 1.15776 226.693 1.26641 226.16 1.48372C225.626 1.70102 225.251 1.9282 225.034 2.16526C224.816 2.40232 224.708 2.52085 224.708 2.52085H224.797C224.856 2.54061 224.935 2.56036 225.034 2.58012C225.132 2.59987 225.231 2.64926 225.33 2.72828C225.429 2.8073 225.547 2.87644 225.686 2.93571C225.824 2.99497 225.923 3.10363 225.982 3.26167C226.041 3.41971 226.12 3.56787 226.219 3.70615C226.318 3.84444 226.347 4.04199 226.308 4.2988C226.308 4.73341 226.17 5.11864 225.893 5.45447C225.616 5.79031 225.172 5.9681 224.56 5.98786Z" fill="white"/>
<path id="Vector_9" d="M239.376 5.98786C238.843 5.98786 238.428 5.81994 238.132 5.4841C237.836 5.14827 237.677 4.71366 237.658 4.18027C237.658 3.09375 238.132 2.12575 239.08 1.27629C240.028 0.426823 241.174 0.00209074 242.517 0.00209074C243.209 0.00209074 243.644 0.0119682 243.821 0.0317232C245.283 0.268783 246.399 0.792291 247.17 1.60225C247.94 2.4122 248.335 3.2913 248.355 4.23954C248.355 5.2668 248.019 6.26443 247.348 7.23242C246.676 8.20042 245.747 8.90172 244.562 9.33633L244.473 9.39559C244.473 9.41535 244.562 9.44498 244.74 9.48449C244.918 9.524 245.204 9.6129 245.599 9.75118C245.994 9.88947 246.37 10.0969 246.725 10.3735C248.345 11.4205 249.155 12.8033 249.155 14.522C249.155 16.0827 248.543 17.4458 247.318 18.6113C246.093 19.7768 244.542 20.3596 242.666 20.3596C241.085 20.3596 239.722 19.9349 238.576 19.0854C237.431 18.236 236.858 17.1593 236.858 15.8555C236.858 15.3023 237.035 14.8579 237.391 14.522C237.747 14.1862 238.191 14.0084 238.725 13.9886C239.278 13.9886 239.732 14.1664 240.088 14.522C240.443 14.8776 240.621 15.3221 240.621 15.8555C240.621 16.0728 240.591 16.2703 240.532 16.4481C240.473 16.6259 240.404 16.784 240.325 16.9222C240.246 17.0605 240.137 17.1791 239.999 17.2778C239.86 17.3766 239.742 17.4556 239.643 17.5149C239.544 17.5742 239.446 17.6137 239.347 17.6334C239.248 17.6532 239.169 17.6828 239.11 17.7223L238.991 17.752C239.999 18.6409 241.224 19.0854 242.666 19.0854C243.752 19.0854 244.572 18.5619 245.125 17.5149C245.461 16.863 245.629 15.8654 245.629 14.522V13.9294C245.629 12.0526 244.997 10.7982 243.732 10.166C243.436 10.0475 242.834 9.97837 241.925 9.95861L240.68 9.92898L240.591 9.86971C240.552 9.81045 240.532 9.65241 240.532 9.39559C240.532 9.04 240.611 8.86221 240.769 8.86221C241.322 8.86221 241.895 8.81282 242.488 8.71405C243.16 8.61527 243.772 8.20042 244.325 7.46948C244.878 6.73855 245.155 5.63227 245.155 4.15064V3.91358C245.155 2.78755 244.809 2.00722 244.118 1.57261C243.683 1.29604 243.219 1.15776 242.725 1.15776C242.093 1.15776 241.51 1.26641 240.977 1.48372C240.443 1.70102 240.068 1.9282 239.851 2.16526C239.633 2.40232 239.525 2.52085 239.525 2.52085H239.613C239.673 2.54061 239.752 2.56036 239.851 2.58012C239.949 2.59987 240.048 2.64926 240.147 2.72828C240.246 2.8073 240.364 2.87644 240.502 2.93571C240.641 2.99497 240.74 3.10363 240.799 3.26167C240.858 3.41971 240.937 3.56787 241.036 3.70615C241.135 3.84444 241.164 4.04199 241.125 4.2988C241.125 4.73341 240.986 5.11864 240.71 5.45447C240.433 5.79031 239.989 5.9681 239.376 5.98786Z" fill="white"/>
</g>
</g>
<g id="Group_13">
<g id="Group_14">
<path id="Vector_10" d="M219.281 30.3068C220.387 28.7066 221.898 27.9065 223.815 27.9065C224.763 27.9065 225.711 28.1634 226.659 28.677C227.608 29.1906 228.378 30.0993 228.971 31.4032C229.702 33.0428 230.067 35.2949 230.067 38.1594C230.067 41.2214 229.642 43.5624 228.793 45.1823C228.398 46.012 227.855 46.6738 227.163 47.1677C226.472 47.6615 225.869 47.9677 225.356 48.0863C224.842 48.2048 224.338 48.2739 223.844 48.2937C223.331 48.2937 222.817 48.2344 222.303 48.1159C221.79 47.9974 221.187 47.6813 220.496 47.1677C219.804 46.654 219.261 45.9922 218.866 45.1823C218.017 43.5624 217.592 41.2214 217.592 38.1594C217.592 34.722 218.155 32.1045 219.281 30.3068ZM225.948 29.9512C225.356 29.319 224.654 29.0029 223.844 29.0029C223.015 29.0029 222.303 29.319 221.711 29.9512C221.217 30.4648 220.891 31.176 220.733 32.0847C220.575 32.9935 220.496 34.8899 220.496 37.7742C220.496 40.8955 220.575 42.95 220.733 43.9377C220.891 44.9255 221.246 45.7058 221.8 46.2787C222.353 46.8713 223.034 47.1677 223.844 47.1677C224.634 47.1677 225.306 46.8713 225.859 46.2787C226.432 45.686 226.788 44.8563 226.926 43.7896C227.064 42.7228 227.143 40.7177 227.163 37.7742C227.163 34.9097 227.084 33.0231 226.926 32.1144C226.768 31.2056 226.442 30.4846 225.948 29.9512Z" fill="white"/>
</g>
</g>
</g>
<g id="Group_15">
<path id="Vector_11" d="M264.189 27.0831C264.189 27.0831 264.189 26.9015 264.189 26.5382C264.189 26.175 264.385 25.8956 264.776 25.7H277.308V19.413L277.35 13.1261C277.629 12.7628 277.895 12.5812 278.146 12.5812C278.509 12.5812 278.789 12.7908 278.985 13.2099V25.7H291.475C291.894 25.9235 292.103 26.2029 292.103 26.5382C292.103 26.8736 291.894 27.153 291.475 27.3765H278.985V39.8666C278.761 40.2578 278.509 40.4534 278.23 40.4534H278.146H278.062C277.727 40.4534 277.476 40.2578 277.308 39.8666V27.3765H264.776C264.385 27.1809 264.189 26.9015 264.189 26.5382V27.0831Z" fill="white"/>
</g>
<g id="Group_16">
<path id="Vector_12" d="M306.073 17.8215C306.1 17.7656 306.338 16.2427 306.785 13.2529L307.456 8.76824C307.456 8.71236 307.735 8.68441 308.294 8.68441H309.132V8.85207C309.132 9.13149 309.342 9.36899 309.761 9.56459C310.18 9.76018 310.906 9.88592 311.94 9.9418C312.974 9.99769 315.335 10.0256 319.024 10.0256H324.095V11.6602L321.245 15.5581C320.994 15.8935 320.574 16.4523 319.988 17.2347C319.401 18.017 319.024 18.534 318.856 18.7854C318.688 19.0369 318.395 19.484 317.976 20.1267C317.557 20.7693 317.277 21.2723 317.138 21.6355C316.998 21.9988 316.802 22.5157 316.551 23.1863C316.299 23.8569 316.118 24.4996 316.006 25.1143C315.894 25.729 315.782 26.4835 315.671 27.3776C315.559 28.2718 315.475 29.2218 315.419 30.2277C315.363 31.2336 315.321 32.3792 315.293 33.6646C315.293 34.0558 315.293 34.4469 315.293 34.8381C315.293 35.2293 315.279 35.5646 315.251 35.844V36.2213C315.14 36.6963 314.874 37.1014 314.455 37.4367C314.036 37.772 313.561 37.9397 313.03 37.9397C312.723 37.9397 312.429 37.8978 312.15 37.814C311.87 37.7301 311.577 37.4647 311.27 37.0176C310.962 36.5705 310.809 36.0117 310.809 35.3411C310.809 30.9263 312.164 26.3438 314.874 21.5936C315.433 20.6995 316.607 19.009 318.395 16.5221L320.323 13.8816H316.425C311.563 13.8816 309.006 13.9655 308.755 14.1331C308.587 14.2169 308.434 14.5522 308.294 15.139C308.154 15.7258 308.014 16.3266 307.875 16.9413L307.749 17.8215V17.9472H306.073V17.8215Z" fill="white"/>
</g>
<g id="Group_17">
<path id="Vector_13" d="M360.442 35.8024C360.442 36.3612 360.148 36.6406 359.562 36.6406C359.422 36.6406 359.114 36.4171 358.639 35.97C358.164 35.5229 356.851 34.2236 354.7 32.0721L350.341 27.7132L345.94 32.114C342.978 35.02 341.455 36.5009 341.371 36.5568C341.26 36.6127 341.162 36.6406 341.078 36.6406C340.854 36.6406 340.659 36.5568 340.491 36.3891C340.323 36.2215 340.226 36.0259 340.198 35.8024C340.198 35.6068 340.393 35.2994 340.785 34.8803C341.176 34.4611 342.489 33.1339 344.724 30.8985L349.083 26.5396L344.724 22.1806C342.461 19.9173 341.148 18.5901 340.785 18.1989C340.421 17.8077 340.226 17.5003 340.198 17.2768C340.198 17.0253 340.282 16.8297 340.449 16.69C340.617 16.5503 340.826 16.4805 341.078 16.4805C341.218 16.4805 341.315 16.4944 341.371 16.5224C341.455 16.5783 342.978 18.0592 345.94 20.9652L350.341 25.366L354.7 21.0071C356.851 18.8555 358.164 17.5562 358.639 17.1092C359.114 16.6621 359.422 16.4386 359.562 16.4386C360.148 16.4386 360.442 16.718 360.442 17.2768C360.442 17.4724 360.302 17.7239 360.023 18.0312C359.743 18.3386 358.374 19.7078 355.915 22.1387L351.556 26.5396L355.915 30.9405C358.262 33.2876 359.603 34.6428 359.939 35.006C360.274 35.3693 360.442 35.6347 360.442 35.8024Z" fill="white"/>
</g>
<g id="Group_18">
<g id="Group_19">
<path id="Vector_14" d="M378.054 26.4541C378.054 23.2407 378.99 20.1531 380.862 17.1913C382.734 14.2294 385.095 11.8823 387.945 10.1499C390.795 8.4175 393.645 7.53733 396.495 7.50939C399.01 7.50939 401.008 8.22191 402.489 9.64695C402.74 9.92637 402.95 10.1639 403.118 10.3595C403.285 10.5551 403.397 10.6948 403.453 10.7786L403.495 10.9043C403.579 10.9043 403.956 10.5411 404.627 9.8146C404.822 9.64695 405.032 9.45136 405.255 9.22782C405.479 9.00428 405.702 8.78075 405.926 8.55721C406.149 8.33368 406.289 8.18 406.345 8.09617L406.974 7.46747H407.225C407.616 7.46747 407.812 7.56527 407.812 7.76087C407.812 7.87263 407.365 9.78666 406.471 13.5029C405.465 17.3869 404.962 19.3428 404.962 19.3708C404.906 19.5105 404.836 19.5943 404.752 19.6222C404.668 19.6502 404.417 19.6781 403.998 19.7061H403.327C403.16 19.5384 403.076 19.4127 403.076 19.3289C403.076 19.3009 403.09 19.2031 403.118 19.0355C403.146 18.8678 403.174 18.5884 403.202 18.1972C403.229 17.806 403.243 17.3589 403.243 16.856C403.243 14.8721 402.796 13.1397 401.902 11.6588C401.008 10.1778 399.485 9.42341 397.334 9.39547C396.607 9.39547 395.825 9.49327 394.987 9.68886C394.148 9.88446 393.142 10.2198 391.969 10.6948C390.795 11.1698 389.636 11.9522 388.49 13.0419C387.344 14.1316 386.325 15.4309 385.43 16.9398C384.536 18.5325 383.824 20.3907 383.293 22.5142C382.762 24.6378 382.496 26.3702 382.496 27.7115C382.496 30.8968 383.558 33.1881 385.682 34.5852C387.023 35.5352 388.672 36.0102 390.628 36.0102C393.17 36.0102 395.434 35.0602 397.418 33.1601C399.401 31.2601 400.715 29.1924 401.357 26.957C401.469 26.5938 401.553 26.3842 401.609 26.3283C401.665 26.2724 401.888 26.2445 402.279 26.2445C402.838 26.2445 403.118 26.3702 403.118 26.6217C403.118 26.7614 403.104 26.8872 403.076 26.9989C402.265 29.9887 400.533 32.5594 397.879 34.7109C395.224 36.8625 392.374 37.9382 389.328 37.9382C386.171 37.9382 383.502 36.8904 381.323 34.7948C379.143 32.6991 378.054 29.9189 378.054 26.4541Z" fill="white"/>
</g>
<g id="Group_20">
<g id="Group_21">
<path id="Vector_15" d="M414.049 5.9859C413.515 5.9859 413.1 5.81799 412.804 5.48215C412.508 5.14632 412.35 4.71171 412.33 4.17832C412.33 3.0918 412.804 2.1238 413.752 1.27434C414.7 0.42487 415.846 0.00013762 417.19 0.00013762C417.881 0.00013762 418.316 0.0100151 418.493 0.0297701C419.955 0.26683 421.071 0.790338 421.842 1.60029C422.612 2.41025 423.007 3.28935 423.027 4.23759C423.027 5.26485 422.691 6.26247 422.02 7.23047C421.348 8.19846 420.42 8.89977 419.234 9.33438L419.145 9.39364C419.145 9.4134 419.234 9.44303 419.412 9.48254C419.59 9.52205 419.876 9.61095 420.271 9.74923C420.666 9.88752 421.042 10.0949 421.397 10.3715C423.017 11.4185 423.827 12.8014 423.827 14.5201C423.827 16.0807 423.215 17.4438 421.99 18.6093C420.765 19.7749 419.214 20.3577 417.338 20.3577C415.757 20.3577 414.394 19.9329 413.248 19.0835C412.103 18.234 411.53 17.1574 411.53 15.8535C411.53 15.3004 411.708 14.8559 412.063 14.5201C412.419 14.1842 412.863 14.0064 413.397 13.9867C413.95 13.9867 414.404 14.1645 414.76 14.5201C415.115 14.8757 415.293 15.3201 415.293 15.8535C415.293 16.0708 415.263 16.2684 415.204 16.4462C415.145 16.624 415.076 16.782 414.997 16.9203C414.918 17.0586 414.809 17.1771 414.671 17.2759C414.533 17.3747 414.414 17.4537 414.315 17.5129C414.216 17.5722 414.118 17.6117 414.019 17.6315C413.92 17.6512 413.841 17.6809 413.782 17.7204L413.663 17.75C414.671 18.639 415.896 19.0835 417.338 19.0835C418.424 19.0835 419.244 18.56 419.797 17.5129C420.133 16.861 420.301 15.8634 420.301 14.5201V13.9274C420.301 12.0507 419.669 10.7962 418.405 10.1641C418.108 10.0456 417.506 9.97641 416.597 9.95666L415.352 9.92703L415.263 9.86776C415.224 9.8085 415.204 9.65046 415.204 9.39364C415.204 9.03805 415.283 8.86026 415.441 8.86026C415.994 8.86026 416.567 8.81087 417.16 8.71209C417.832 8.61332 418.444 8.19846 418.997 7.46753C419.55 6.73659 419.827 5.63031 419.827 4.14869V3.91163C419.827 2.78559 419.481 2.00527 418.79 1.57066C418.355 1.29409 417.891 1.15581 417.397 1.15581C416.765 1.15581 416.182 1.26446 415.649 1.48176C415.115 1.69907 414.74 1.92625 414.523 2.16331C414.305 2.40037 414.197 2.5189 414.197 2.5189H414.286C414.345 2.53866 414.424 2.55841 414.523 2.57817C414.621 2.59792 414.72 2.64731 414.819 2.72633C414.918 2.80535 415.036 2.87449 415.175 2.93376C415.313 2.99302 415.412 3.10167 415.471 3.25971C415.53 3.41775 415.609 3.56592 415.708 3.7042C415.807 3.84249 415.836 4.04004 415.797 4.29685C415.797 4.73146 415.659 5.11668 415.382 5.45252C415.105 5.78835 414.661 5.96615 414.049 5.9859Z" fill="white"/>
<path id="Vector_16" d="M428.865 5.9859C428.332 5.9859 427.917 5.81799 427.621 5.48215C427.325 5.14632 427.167 4.71171 427.147 4.17832C427.147 3.0918 427.621 2.1238 428.569 1.27434C429.517 0.42487 430.663 0.00013762 432.006 0.00013762C432.698 0.00013762 433.133 0.0100151 433.31 0.0297701C434.772 0.26683 435.888 0.790338 436.659 1.60029C437.429 2.41025 437.824 3.28935 437.844 4.23759C437.844 5.26485 437.508 6.26247 436.837 7.23047C436.165 8.19846 435.236 8.89977 434.051 9.33438L433.962 9.39364C433.962 9.4134 434.051 9.44303 434.229 9.48254C434.407 9.52205 434.693 9.61095 435.088 9.74923C435.483 9.88752 435.859 10.0949 436.214 10.3715C437.834 11.4185 438.644 12.8014 438.644 14.5201C438.644 16.0807 438.032 17.4438 436.807 18.6093C435.582 19.7749 434.031 20.3577 432.155 20.3577C430.574 20.3577 429.211 19.9329 428.065 19.0835C426.92 18.234 426.347 17.1574 426.347 15.8535C426.347 15.3004 426.524 14.8559 426.88 14.5201C427.236 14.1842 427.68 14.0064 428.214 13.9867C428.767 13.9867 429.221 14.1645 429.577 14.5201C429.932 14.8757 430.11 15.3201 430.11 15.8535C430.11 16.0708 430.08 16.2684 430.021 16.4462C429.962 16.624 429.893 16.782 429.814 16.9203C429.735 17.0586 429.626 17.1771 429.488 17.2759C429.349 17.3747 429.231 17.4537 429.132 17.5129C429.033 17.5722 428.935 17.6117 428.836 17.6315C428.737 17.6512 428.658 17.6809 428.599 17.7204L428.48 17.75C429.488 18.639 430.713 19.0835 432.155 19.0835C433.241 19.0835 434.061 18.56 434.614 17.5129C434.95 16.861 435.118 15.8634 435.118 14.5201V13.9274C435.118 12.0507 434.486 10.7962 433.221 10.1641C432.925 10.0456 432.323 9.97641 431.414 9.95666L430.169 9.92703L430.08 9.86776C430.041 9.8085 430.021 9.65046 430.021 9.39364C430.021 9.03805 430.1 8.86026 430.258 8.86026C430.811 8.86026 431.384 8.81087 431.977 8.71209C432.649 8.61332 433.261 8.19846 433.814 7.46753C434.367 6.73659 434.644 5.63031 434.644 4.14869V3.91163C434.644 2.78559 434.298 2.00527 433.607 1.57066C433.172 1.29409 432.708 1.15581 432.214 1.15581C431.582 1.15581 430.999 1.26446 430.466 1.48176C429.932 1.69907 429.557 1.92625 429.34 2.16331C429.122 2.40037 429.014 2.5189 429.014 2.5189H429.103C429.162 2.53866 429.241 2.55841 429.34 2.57817C429.438 2.59792 429.537 2.64731 429.636 2.72633C429.735 2.80535 429.853 2.87449 429.991 2.93376C430.13 2.99302 430.229 3.10167 430.288 3.25971C430.347 3.41775 430.426 3.56592 430.525 3.7042C430.624 3.84249 430.653 4.04004 430.614 4.29685C430.614 4.73146 430.475 5.11668 430.199 5.45252C429.922 5.78835 429.478 5.96615 428.865 5.9859Z" fill="white"/>
</g>
</g>
<g id="Group_22">
<g id="Group_23">
<path id="Vector_17" d="M412.238 30.5138L411.853 30.6619C411.576 30.7607 411.181 30.8595 410.668 30.9583C410.154 31.057 409.581 31.1262 408.949 31.1657H408.386V29.8026H408.949C409.877 29.7631 410.737 29.6149 411.527 29.3581C412.317 29.1013 412.87 28.8642 413.186 28.6469C413.503 28.4296 413.779 28.2123 414.016 27.995C414.056 27.9357 414.174 27.9061 414.372 27.9061C414.55 27.9061 414.717 27.9654 414.876 28.0839V36.944L414.905 45.8338C415.043 45.9721 415.162 46.061 415.261 46.1005C415.36 46.14 415.597 46.1795 415.972 46.219C416.347 46.2585 416.96 46.2783 417.809 46.2783H418.58V47.6414H418.254C417.839 47.5821 416.268 47.5525 413.542 47.5525C410.855 47.5525 409.305 47.5821 408.89 47.6414H408.534V46.2783H409.305C409.739 46.2783 410.115 46.2783 410.431 46.2783C410.747 46.2783 410.994 46.2684 411.171 46.2486C411.349 46.2289 411.507 46.1992 411.646 46.1597C411.784 46.1202 411.863 46.1005 411.883 46.1005C411.902 46.1005 411.962 46.0511 412.06 45.9523C412.159 45.8535 412.218 45.814 412.238 45.8338V30.5138Z" fill="white"/>
</g>
</g>
</g>
<g id="Group_24">
<path id="Vector_18" d="M453.677 27.0831C453.677 27.0831 453.677 26.9015 453.677 26.5382C453.677 26.175 453.872 25.8956 454.264 25.7H466.796V19.413L466.837 13.1261C467.117 12.7628 467.382 12.5812 467.634 12.5812C467.997 12.5812 468.276 12.7908 468.472 13.2099V25.7H480.962C481.381 25.9235 481.591 26.2029 481.591 26.5382C481.591 26.8736 481.381 27.153 480.962 27.3765H468.472V39.8666C468.249 40.2578 467.997 40.4534 467.718 40.4534H467.634H467.55C467.215 40.4534 466.963 40.2578 466.796 39.8666V27.3765H454.264C453.872 27.1809 453.677 26.9015 453.677 26.5382V27.0831Z" fill="white"/>
</g>
<g id="Group_25">
<path id="Vector_19" d="M495.016 23.8988C495.016 19.3443 496.147 15.7398 498.411 13.0853C500.674 10.4308 503.189 9.10354 505.955 9.10354C507.883 9.10354 509.266 9.6065 510.104 10.6124C510.943 11.6183 511.362 12.736 511.362 13.9655C511.362 14.664 511.166 15.2228 510.775 15.642C510.384 16.0611 509.839 16.2707 509.14 16.2707C508.498 16.2707 507.967 16.0751 507.548 15.6839C507.128 15.2927 506.919 14.7478 506.919 14.0493C506.919 12.8198 507.575 12.0794 508.889 11.8279C508.274 11.2132 507.408 10.8639 506.29 10.7801C504.306 10.7801 502.672 11.6183 501.386 13.2948C500.073 15.139 499.416 17.9612 499.416 21.7613L499.458 21.9289C499.598 21.7613 499.71 21.5796 499.794 21.3841C500.939 19.7075 502.434 18.8693 504.278 18.8693H504.446C505.731 18.8693 506.863 19.1347 507.841 19.6656C508.512 20.0568 509.182 20.6156 509.853 21.3421C510.523 22.0686 511.068 22.865 511.487 23.7312C512.074 25.1003 512.368 26.5952 512.368 28.2159V28.9703C512.368 29.613 512.298 30.2137 512.158 30.7726C511.851 32.4211 510.956 34.0278 509.476 35.5926C507.995 37.1573 506.123 37.9397 503.859 37.9397C503.077 37.9397 502.322 37.8279 501.596 37.6044C500.869 37.3809 500.087 36.9617 499.249 36.347C498.411 35.7323 497.698 34.908 497.111 33.8741C496.524 32.8403 496.021 31.4851 495.602 29.8086C495.183 28.1321 494.988 26.1621 495.016 23.8988ZM504.027 20.3781C503.189 20.3781 502.462 20.6156 501.847 21.0907C501.233 21.5657 500.758 22.1944 500.422 22.9767C500.087 23.7591 499.85 24.5555 499.71 25.3658C499.57 26.1761 499.486 27.0423 499.458 27.9644C499.458 30.2836 499.626 31.9461 499.961 32.952C500.297 33.958 500.827 34.7683 501.554 35.383C502.225 35.886 502.965 36.1374 503.775 36.1374C505.2 36.1374 506.29 35.6065 507.045 34.5447C507.408 34.0418 507.659 33.4131 507.799 32.6587C507.939 31.9042 508.009 30.4373 508.009 28.2578C508.009 26.0224 507.939 24.5275 507.799 23.7731C507.659 23.0187 507.408 22.39 507.045 21.887C506.29 20.8811 505.284 20.3781 504.027 20.3781Z" fill="white"/>
</g>
<g id="Group_26">
<path id="Vector_20" d="M549.931 35.8024C549.931 36.3612 549.638 36.6406 549.051 36.6406C548.911 36.6406 548.604 36.4171 548.129 35.97C547.654 35.5229 546.34 34.2236 544.189 32.0721L539.83 27.7132L535.429 32.114C532.467 35.02 530.944 36.5009 530.861 36.5568C530.749 36.6127 530.651 36.6406 530.567 36.6406C530.344 36.6406 530.148 36.5568 529.98 36.3891C529.813 36.2215 529.715 36.0259 529.687 35.8024C529.687 35.6068 529.883 35.2994 530.274 34.8803C530.665 34.4611 531.978 33.1339 534.214 30.8985L538.573 26.5396L534.214 22.1806C531.95 19.9173 530.637 18.5901 530.274 18.1989C529.911 17.8077 529.715 17.5003 529.687 17.2768C529.687 17.0253 529.771 16.8297 529.938 16.69C530.106 16.5503 530.316 16.4805 530.567 16.4805C530.707 16.4805 530.805 16.4944 530.861 16.5224C530.944 16.5783 532.467 18.0592 535.429 20.9652L539.83 25.366L544.189 21.0071C546.34 18.8555 547.654 17.5562 548.129 17.1092C548.604 16.6621 548.911 16.4386 549.051 16.4386C549.638 16.4386 549.931 16.718 549.931 17.2768C549.931 17.4724 549.791 17.7239 549.512 18.0312C549.232 18.3386 547.863 19.7078 545.404 22.1387L541.045 26.5396L545.404 30.9405C547.752 33.2876 549.093 34.6428 549.428 35.006C549.763 35.3693 549.931 35.6347 549.931 35.8024Z" fill="white"/>
</g>
<g id="Group_27">
<g id="Group_28">
<path id="Vector_21" d="M567.543 26.4541C567.543 23.2407 568.479 20.1531 570.351 17.1913C572.223 14.2294 574.584 11.8823 577.434 10.1499C580.285 8.4175 583.135 7.53733 585.985 7.50939C588.499 7.50939 590.497 8.22191 591.978 9.64695C592.23 9.92637 592.439 10.1639 592.607 10.3595C592.775 10.5551 592.886 10.6948 592.942 10.7786L592.984 10.9043C593.068 10.9043 593.445 10.5411 594.116 9.8146C594.311 9.64695 594.521 9.45136 594.745 9.22782C594.968 9.00428 595.192 8.78075 595.415 8.55721C595.639 8.33368 595.778 8.18 595.834 8.09617L596.463 7.46747H596.714C597.106 7.46747 597.301 7.56527 597.301 7.76087C597.301 7.87263 596.854 9.78666 595.96 13.5029C594.954 17.3869 594.451 19.3428 594.451 19.3708C594.395 19.5105 594.325 19.5943 594.242 19.6222C594.158 19.6502 593.906 19.6781 593.487 19.7061H592.817C592.649 19.5384 592.565 19.4127 592.565 19.3289C592.565 19.3009 592.579 19.2031 592.607 19.0355C592.635 18.8678 592.663 18.5884 592.691 18.1972C592.719 17.806 592.733 17.3589 592.733 16.856C592.733 14.8721 592.286 13.1397 591.391 11.6588C590.497 10.1778 588.974 9.42341 586.823 9.39547C586.096 9.39547 585.314 9.49327 584.476 9.68886C583.638 9.88446 582.632 10.2198 581.458 10.6948C580.285 11.1698 579.125 11.9522 577.979 13.0419C576.834 14.1316 575.814 15.4309 574.92 16.9398C574.026 18.5325 573.313 20.3907 572.782 22.5142C572.251 24.6378 571.986 26.3702 571.986 27.7115C571.986 30.8968 573.048 33.1881 575.171 34.5852C576.512 35.5352 578.161 36.0102 580.117 36.0102C582.66 36.0102 584.923 35.0602 586.907 33.1601C588.891 31.2601 590.204 29.1924 590.847 26.957C590.958 26.5938 591.042 26.3842 591.098 26.3283C591.154 26.2724 591.378 26.2445 591.769 26.2445C592.328 26.2445 592.607 26.3702 592.607 26.6217C592.607 26.7614 592.593 26.8872 592.565 26.9989C591.755 29.9887 590.022 32.5594 587.368 34.7109C584.713 36.8625 581.863 37.9382 578.818 37.9382C575.66 37.9382 572.992 36.8904 570.812 34.7948C568.633 32.6991 567.543 29.9189 567.543 26.4541Z" fill="white"/>
</g>
<g id="Group_29">
<g id="Group_30">
<path id="Vector_22" d="M603.538 5.9859C603.004 5.9859 602.59 5.81799 602.293 5.48215C601.997 5.14632 601.839 4.71171 601.819 4.17832C601.819 3.0918 602.293 2.1238 603.241 1.27434C604.19 0.42487 605.336 0.00013762 606.679 0.00013762C607.37 0.00013762 607.805 0.0100151 607.983 0.0297701C609.445 0.26683 610.561 0.790338 611.331 1.60029C612.102 2.41025 612.497 3.28935 612.516 4.23759C612.516 5.26485 612.181 6.26247 611.509 7.23047C610.837 8.19846 609.909 8.89977 608.723 9.33438L608.635 9.39364C608.635 9.4134 608.723 9.44303 608.901 9.48254C609.079 9.52205 609.366 9.61095 609.761 9.74923C610.156 9.88752 610.531 10.0949 610.887 10.3715C612.507 11.4185 613.317 12.8014 613.317 14.5201C613.317 16.0807 612.704 17.4438 611.479 18.6093C610.255 19.7749 608.704 20.3577 606.827 20.3577C605.247 20.3577 603.884 19.9329 602.738 19.0835C601.592 18.234 601.019 17.1574 601.019 15.8535C601.019 15.3004 601.197 14.8559 601.552 14.5201C601.908 14.1842 602.353 14.0064 602.886 13.9867C603.439 13.9867 603.893 14.1645 604.249 14.5201C604.605 14.8757 604.782 15.3201 604.782 15.8535C604.782 16.0708 604.753 16.2684 604.693 16.4462C604.634 16.624 604.565 16.782 604.486 16.9203C604.407 17.0586 604.298 17.1771 604.16 17.2759C604.022 17.3747 603.903 17.4537 603.804 17.5129C603.706 17.5722 603.607 17.6117 603.508 17.6315C603.409 17.6512 603.33 17.6809 603.271 17.7204L603.153 17.75C604.16 18.639 605.385 19.0835 606.827 19.0835C607.914 19.0835 608.733 18.56 609.287 17.5129C609.622 16.861 609.79 15.8634 609.79 14.5201V13.9274C609.79 12.0507 609.158 10.7962 607.894 10.1641C607.597 10.0456 606.995 9.97641 606.086 9.95666L604.842 9.92703L604.753 9.86776C604.713 9.8085 604.693 9.65046 604.693 9.39364C604.693 9.03805 604.772 8.86026 604.931 8.86026C605.484 8.86026 606.057 8.81087 606.649 8.71209C607.321 8.61332 607.933 8.19846 608.486 7.46753C609.04 6.73659 609.316 5.63031 609.316 4.14869V3.91163C609.316 2.78559 608.97 2.00527 608.279 1.57066C607.844 1.29409 607.38 1.15581 606.886 1.15581C606.254 1.15581 605.671 1.26446 605.138 1.48176C604.605 1.69907 604.229 1.92625 604.012 2.16331C603.795 2.40037 603.686 2.5189 603.686 2.5189H603.775C603.834 2.53866 603.913 2.55841 604.012 2.57817C604.111 2.59792 604.209 2.64731 604.308 2.72633C604.407 2.80535 604.526 2.87449 604.664 2.93376C604.802 2.99302 604.901 3.10167 604.96 3.25971C605.019 3.41775 605.098 3.56592 605.197 3.7042C605.296 3.84249 605.326 4.04004 605.286 4.29685C605.286 4.73146 605.148 5.11668 604.871 5.45252C604.595 5.78835 604.15 5.96615 603.538 5.9859Z" fill="white"/>
<path id="Vector_23" d="M618.355 5.9859C617.821 5.9859 617.406 5.81799 617.11 5.48215C616.814 5.14632 616.656 4.71171 616.636 4.17832C616.636 3.0918 617.11 2.1238 618.058 1.27434C619.007 0.42487 620.152 0.00013762 621.496 0.00013762C622.187 0.00013762 622.622 0.0100151 622.8 0.0297701C624.261 0.26683 625.378 0.790338 626.148 1.60029C626.918 2.41025 627.314 3.28935 627.333 4.23759C627.333 5.26485 626.998 6.26247 626.326 7.23047C625.654 8.19846 624.726 8.89977 623.54 9.33438L623.451 9.39364C623.451 9.4134 623.54 9.44303 623.718 9.48254C623.896 9.52205 624.182 9.61095 624.578 9.74923C624.973 9.88752 625.348 10.0949 625.704 10.3715C627.323 11.4185 628.133 12.8014 628.133 14.5201C628.133 16.0807 627.521 17.4438 626.296 18.6093C625.071 19.7749 623.521 20.3577 621.644 20.3577C620.064 20.3577 618.7 19.9329 617.555 19.0835C616.409 18.234 615.836 17.1574 615.836 15.8535C615.836 15.3004 616.014 14.8559 616.369 14.5201C616.725 14.1842 617.169 14.0064 617.703 13.9867C618.256 13.9867 618.71 14.1645 619.066 14.5201C619.421 14.8757 619.599 15.3201 619.599 15.8535C619.599 16.0708 619.57 16.2684 619.51 16.4462C619.451 16.624 619.382 16.782 619.303 16.9203C619.224 17.0586 619.115 17.1771 618.977 17.2759C618.839 17.3747 618.72 17.4537 618.621 17.5129C618.523 17.5722 618.424 17.6117 618.325 17.6315C618.226 17.6512 618.147 17.6809 618.088 17.7204L617.969 17.75C618.977 18.639 620.202 19.0835 621.644 19.0835C622.73 19.0835 623.55 18.56 624.103 17.5129C624.439 16.861 624.607 15.8634 624.607 14.5201V13.9274C624.607 12.0507 623.975 10.7962 622.711 10.1641C622.414 10.0456 621.812 9.97641 620.903 9.95666L619.659 9.92703L619.57 9.86776C619.53 9.8085 619.51 9.65046 619.51 9.39364C619.51 9.03805 619.589 8.86026 619.747 8.86026C620.301 8.86026 620.873 8.81087 621.466 8.71209C622.138 8.61332 622.75 8.19846 623.303 7.46753C623.856 6.73659 624.133 5.63031 624.133 4.14869V3.91163C624.133 2.78559 623.787 2.00527 623.096 1.57066C622.661 1.29409 622.197 1.15581 621.703 1.15581C621.071 1.15581 620.488 1.26446 619.955 1.48176C619.421 1.69907 619.046 1.92625 618.829 2.16331C618.612 2.40037 618.503 2.5189 618.503 2.5189H618.592C618.651 2.53866 618.73 2.55841 618.829 2.57817C618.928 2.59792 619.026 2.64731 619.125 2.72633C619.224 2.80535 619.342 2.87449 619.481 2.93376C619.619 2.99302 619.718 3.10167 619.777 3.25971C619.836 3.41775 619.915 3.56592 620.014 3.7042C620.113 3.84249 620.143 4.04004 620.103 4.29685C620.103 4.73146 619.965 5.11668 619.688 5.45252C619.412 5.78835 618.967 5.96615 618.355 5.9859Z" fill="white"/>
</g>
</g>
<g id="Group_31">
<g id="Group_32">
<path id="Vector_24" d="M598.646 34.929C598.112 34.929 597.687 34.7512 597.371 34.3956C597.055 34.04 596.897 33.6054 596.897 33.0918C596.897 31.6892 597.421 30.4743 598.468 29.447C599.515 28.4197 600.819 27.9061 602.379 27.9061C604.177 27.9061 605.678 28.4593 606.883 29.5655C608.088 30.6718 608.701 32.1041 608.721 33.8622C608.721 34.7117 608.523 35.5217 608.128 36.2921C607.733 37.0626 607.259 37.7342 606.706 38.3071C606.152 38.88 605.362 39.611 604.335 40.4999C603.624 41.1123 602.636 42.0211 601.372 43.2261L599.623 44.8855L601.875 44.9152C604.977 44.9152 606.627 44.8658 606.824 44.767C606.962 44.7275 607.199 43.8484 607.535 42.1297V42.0408H608.721V42.1297C608.701 42.189 608.572 43.0878 608.335 44.8263C608.098 46.5647 607.95 47.4734 607.891 47.5525V47.6414H596.897V47.0783V46.7227C596.897 46.5845 596.956 46.4363 597.075 46.2783C597.194 46.1202 597.49 45.7745 597.964 45.2411C598.537 44.609 599.031 44.0558 599.446 43.5817C599.623 43.3842 599.959 43.0187 600.453 42.4853C600.947 41.9519 601.283 41.5865 601.461 41.3889C601.638 41.1914 601.925 40.8654 602.32 40.411C602.715 39.9567 602.992 39.6208 603.15 39.4035C603.308 39.1862 603.535 38.8899 603.831 38.5145C604.128 38.1392 604.335 37.8231 604.454 37.5663C604.572 37.3095 604.72 37.023 604.898 36.707C605.076 36.3909 605.204 36.0748 605.283 35.7587C605.362 35.4426 605.431 35.1463 605.491 34.8698C605.55 34.5932 605.58 34.2672 605.58 33.8919C605.58 32.6473 605.244 31.5707 604.572 30.6619C603.9 29.7532 602.942 29.2988 601.698 29.2988C601.046 29.2988 600.473 29.4668 599.979 29.8026C599.485 30.1384 599.139 30.4644 598.942 30.7805C598.744 31.0965 598.646 31.2842 598.646 31.3435C598.646 31.3632 598.695 31.3731 598.794 31.3731C599.149 31.3731 599.515 31.5114 599.89 31.788C600.265 32.0645 600.453 32.5189 600.453 33.1511C600.453 33.6449 600.295 34.0598 599.979 34.3956C599.663 34.7315 599.218 34.9093 598.646 34.929Z" fill="white"/>
</g>
</g>
</g>
</g>
<g id="Group 158">
<g id="Group_33">
<g id="Group_34">
<path id="Vector_25" d="M0.712521 148.976C0.237507 148.976 0 148.836 0 148.557C0 148.501 0.041913 148.305 0.125739 147.97C0.237507 147.523 0.349275 147.271 0.461043 147.215C0.572811 147.159 0.894144 147.118 1.42504 147.09C2.17948 147.09 3.01774 147.048 3.93982 146.964C4.33101 146.88 4.59646 146.712 4.73617 146.461C4.79205 146.321 5.784 142.395 7.71199 134.683C9.63999 126.971 10.618 123.059 10.6459 122.948C10.6459 122.752 10.59 122.654 10.4783 122.654C10.2547 122.57 9.51425 122.501 8.25686 122.445H6.95756C6.78991 122.277 6.70608 122.165 6.70608 122.109C6.70608 122.054 6.73402 121.816 6.78991 121.397C6.90168 120.922 7.04139 120.628 7.20904 120.517H29.8002C29.9957 120.628 30.0935 120.782 30.0935 120.978C30.0935 121.117 29.9119 122.682 29.5487 125.672C29.1854 128.662 28.9898 130.199 28.9619 130.282C28.906 130.478 28.6266 130.576 28.1236 130.576H27.6207C27.4251 130.436 27.3273 130.255 27.3273 130.031C27.3273 130.003 27.3692 129.668 27.453 129.025C27.5368 128.382 27.5788 127.642 27.5788 126.804C27.5788 125.965 27.481 125.281 27.2854 124.75C27.0898 124.219 26.8243 123.786 26.489 123.451C26.1537 123.115 25.6368 122.892 24.9382 122.78C24.2397 122.668 23.5272 122.57 22.8007 122.487C22.0742 122.403 21.0683 122.389 19.7829 122.445H18.8189C16.5277 122.473 15.3122 122.515 15.1725 122.57C15.0328 122.626 14.935 122.738 14.8791 122.906C14.8512 122.934 14.3762 124.764 13.4541 128.396L12.1129 133.803H14.4181C14.5019 133.803 14.8232 133.803 15.3821 133.803C15.9409 133.803 16.3321 133.789 16.5556 133.761C16.7792 133.733 17.0865 133.691 17.4777 133.636C17.8689 133.58 18.2042 133.482 18.4836 133.342C18.7631 133.202 19.0006 133.035 19.1962 132.839C19.5594 132.504 19.8668 132.043 20.1182 131.456C20.3697 130.869 20.5513 130.338 20.6631 129.863C20.7749 129.388 20.8447 129.137 20.8727 129.109C20.9565 128.969 21.222 128.899 21.669 128.899H22.172C22.3676 129.039 22.4654 129.179 22.4654 129.318C22.4654 129.402 22.0323 131.232 21.1661 134.809C20.2999 138.386 19.8249 140.23 19.741 140.342C19.6851 140.537 19.4057 140.635 18.9028 140.635H18.3998C18.2042 140.467 18.1064 140.3 18.1064 140.132C18.1064 140.048 18.1763 139.741 18.316 139.21C18.4557 138.679 18.5256 138.12 18.5256 137.533C18.5256 136.723 18.2461 136.22 17.6873 136.025C17.1285 135.829 15.885 135.731 13.957 135.731H11.6518L10.3106 141.054C9.41646 144.519 8.96938 146.335 8.96938 146.503C8.96938 146.894 10.2128 147.09 12.6996 147.09H13.7475C13.9151 147.257 13.9989 147.355 13.9989 147.383C13.9989 147.411 13.971 147.69 13.9151 148.221C13.8034 148.584 13.6636 148.85 13.496 149.018H12.7835C11.6378 148.962 9.52822 148.934 6.4546 148.934C4.63837 148.934 3.25524 148.934 2.30522 148.934C1.35519 148.934 0.824289 148.948 0.712521 148.976Z" fill="white"/>
</g>
<g id="Group_35">
<g id="Group_36">
<path id="Vector_26" d="M29.413 141.585C28.8797 141.585 28.4648 141.417 28.1685 141.081C27.8722 140.745 27.7141 140.311 27.6944 139.777C27.6944 138.691 28.1685 137.723 29.1167 136.873C30.065 136.024 31.2108 135.599 32.5541 135.599C33.2455 135.599 33.6801 135.609 33.8579 135.629C35.3198 135.866 36.436 136.389 37.2064 137.199C37.9768 138.009 38.3719 138.888 38.3917 139.836C38.3917 140.864 38.0559 141.861 37.3842 142.829C36.7125 143.797 35.784 144.499 34.5987 144.933L34.5098 144.993C34.5098 145.012 34.5987 145.042 34.7765 145.081C34.9543 145.121 35.2408 145.21 35.6359 145.348C36.031 145.486 36.4063 145.694 36.7619 145.97C38.3818 147.017 39.1918 148.4 39.1918 150.119C39.1918 151.68 38.5794 153.043 37.3546 154.208C36.1297 155.374 34.579 155.957 32.7023 155.957C31.1219 155.957 29.7588 155.532 28.613 154.682C27.4672 153.833 26.8943 152.756 26.8943 151.452C26.8943 150.899 27.0721 150.455 27.4277 150.119C27.7833 149.783 28.2277 149.605 28.7611 149.586C29.3143 149.586 29.7686 149.763 30.1242 150.119C30.4798 150.475 30.6576 150.919 30.6576 151.452C30.6576 151.67 30.628 151.867 30.5687 152.045C30.5095 152.223 30.4403 152.381 30.3613 152.519C30.2823 152.657 30.1736 152.776 30.0353 152.875C29.897 152.974 29.7785 153.053 29.6797 153.112C29.581 153.171 29.4822 153.211 29.3834 153.23C29.2846 153.25 29.2056 153.28 29.1464 153.319L29.0278 153.349C30.0353 154.238 31.2601 154.682 32.7023 154.682C33.7888 154.682 34.6086 154.159 35.1618 153.112C35.4976 152.46 35.6655 151.462 35.6655 150.119V149.526C35.6655 147.65 35.0333 146.395 33.769 145.763C33.4727 145.644 32.8702 145.575 31.9614 145.556L30.7169 145.526L30.628 145.467C30.5885 145.407 30.5687 145.249 30.5687 144.993C30.5687 144.637 30.6477 144.459 30.8058 144.459C31.3589 144.459 31.9318 144.41 32.5245 144.311C33.1961 144.212 33.8085 143.797 34.3617 143.066C34.9148 142.335 35.1914 141.229 35.1914 139.748V139.511C35.1914 138.384 34.8457 137.604 34.1542 137.17C33.7196 136.893 33.2554 136.755 32.7615 136.755C32.1294 136.755 31.5466 136.863 31.0132 137.081C30.4798 137.298 30.1045 137.525 29.8872 137.762C29.6699 137.999 29.5612 138.118 29.5612 138.118H29.6501C29.7094 138.138 29.7884 138.157 29.8872 138.177C29.9859 138.197 30.0847 138.246 30.1835 138.325C30.2823 138.404 30.4008 138.473 30.5391 138.533C30.6774 138.592 30.7761 138.701 30.8354 138.859C30.8947 139.017 30.9737 139.165 31.0725 139.303C31.1712 139.441 31.2009 139.639 31.1614 139.896C31.1614 140.33 31.0231 140.716 30.7465 141.051C30.4699 141.387 30.0255 141.565 29.413 141.585Z" fill="white"/>
<path id="Vector_27" d="M54.1554 155.304C53.7998 155.245 52.5256 155.215 50.3328 155.215C48.0413 155.215 46.7177 155.245 46.3621 155.304H46.0954V153.941H47.014C47.4091 153.941 47.6758 153.941 47.8141 153.941C47.9524 153.941 48.1203 153.921 48.3178 153.882C48.5154 153.842 48.6537 153.793 48.7327 153.734C48.8117 153.674 48.8808 153.595 48.9401 153.497C48.9599 153.457 48.9697 152.924 48.9697 151.896V150.415H41.2949V149.052L45.7694 142.207C48.7919 137.623 50.323 135.322 50.3625 135.302C50.402 135.263 50.6094 135.243 50.9847 135.243H51.5181L51.6959 135.421V149.052H54.4221V150.415H51.6959V151.926C51.6959 152.736 51.6959 153.21 51.6959 153.348C51.6959 153.487 51.7552 153.605 51.8737 153.704C52.0318 153.842 52.5948 153.921 53.5628 153.941H54.4221V155.304H54.1554ZM49.1475 149.052V139.154L42.658 149.022L45.888 149.052H49.1475Z" fill="white"/>
</g>
</g>
</g>
<g id="Group_37">
<path id="Vector_28" d="M71.373 134.474C71.373 134.11 71.5686 133.831 71.9598 133.635H98.6584C99.0775 133.859 99.2871 134.138 99.2871 134.474C99.2871 134.781 99.0915 135.047 98.7003 135.27L85.372 135.312H72.0437C71.5966 135.172 71.373 134.893 71.373 134.474ZM71.373 142.605C71.373 142.186 71.5966 141.906 72.0437 141.767H98.7003C99.0915 142.046 99.2871 142.325 99.2871 142.605C99.2871 142.968 99.0775 143.248 98.6584 143.443H71.9598C71.5686 143.248 71.373 142.968 71.373 142.605Z" fill="white"/>
</g>
<g id="Group_38">
<path id="Vector_29" d="M122.201 124.792L121.657 125.001C121.265 125.141 120.706 125.281 119.98 125.421C119.253 125.56 118.443 125.658 117.549 125.714H116.753V123.786H117.549C118.862 123.73 120.078 123.52 121.195 123.157C122.313 122.794 123.096 122.459 123.543 122.151C123.99 121.844 124.381 121.537 124.716 121.229C124.772 121.145 124.94 121.104 125.219 121.104C125.471 121.104 125.708 121.187 125.932 121.355V133.887L125.974 146.461C126.169 146.656 126.337 146.782 126.477 146.838C126.616 146.894 126.952 146.95 127.482 147.006C128.013 147.062 128.88 147.09 130.081 147.09H131.171V149.018H130.71C130.123 148.934 127.902 148.892 124.046 148.892C120.245 148.892 118.052 148.934 117.465 149.018H116.962V147.09H118.052C118.667 147.09 119.198 147.09 119.645 147.09C120.092 147.09 120.441 147.076 120.693 147.048C120.944 147.02 121.168 146.978 121.363 146.922C121.559 146.866 121.67 146.838 121.698 146.838C121.726 146.838 121.81 146.768 121.95 146.629C122.09 146.489 122.173 146.433 122.201 146.461V124.792Z" fill="white"/>
</g>
<g id="Group_39">
<path id="Vector_30" d="M145.894 139.083C145.894 139.083 145.894 138.901 145.894 138.538C145.894 138.175 146.089 137.896 146.481 137.7H159.013V131.413L159.054 125.126C159.334 124.763 159.599 124.581 159.851 124.581C160.214 124.581 160.493 124.791 160.689 125.21V137.7H173.179C173.598 137.924 173.808 138.203 173.808 138.538C173.808 138.874 173.598 139.153 173.179 139.377H160.689V151.867C160.466 152.258 160.214 152.453 159.935 152.453H159.851H159.767C159.432 152.453 159.18 152.258 159.013 151.867V139.377H146.481C146.089 139.181 145.894 138.901 145.894 138.538V139.083Z" fill="white"/>
</g>
<g id="Group_40">
<path id="Vector_31" d="M187.774 129.821C187.802 129.766 188.039 128.243 188.486 125.253L189.157 120.768C189.157 120.712 189.436 120.684 189.995 120.684H190.834V120.852C190.834 121.131 191.043 121.369 191.462 121.565C191.881 121.76 192.608 121.886 193.642 121.942C194.676 121.998 197.037 122.026 200.725 122.026H205.797V123.66L202.946 127.558C202.695 127.893 202.276 128.452 201.689 129.235C201.102 130.017 200.725 130.534 200.557 130.785C200.39 131.037 200.096 131.484 199.677 132.127C199.258 132.769 198.979 133.272 198.839 133.636C198.699 133.999 198.504 134.516 198.252 135.186C198.001 135.857 197.819 136.5 197.707 137.114C197.596 137.729 197.484 138.483 197.372 139.378C197.26 140.272 197.176 141.222 197.121 142.228C197.065 143.234 197.023 144.379 196.995 145.665C196.995 146.056 196.995 146.447 196.995 146.838C196.995 147.229 196.981 147.565 196.953 147.844V148.221C196.841 148.696 196.576 149.101 196.157 149.437C195.737 149.772 195.262 149.94 194.731 149.94C194.424 149.94 194.131 149.898 193.851 149.814C193.572 149.73 193.279 149.465 192.971 149.018C192.664 148.571 192.51 148.012 192.51 147.341C192.51 142.926 193.865 138.344 196.576 133.594C197.134 132.699 198.308 131.009 200.096 128.522L202.024 125.882H198.126C193.265 125.882 190.708 125.965 190.456 126.133C190.289 126.217 190.135 126.552 189.995 127.139C189.856 127.726 189.716 128.327 189.576 128.941L189.45 129.821V129.947H187.774V129.821Z" fill="white"/>
</g>
<g id="Group_41">
<path id="Vector_32" d="M242.143 147.802C242.143 148.361 241.85 148.641 241.263 148.641C241.123 148.641 240.816 148.417 240.341 147.97C239.866 147.523 238.553 146.224 236.401 144.072L232.042 139.713L227.641 144.114C224.679 147.02 223.157 148.501 223.073 148.557C222.961 148.613 222.863 148.641 222.779 148.641C222.556 148.641 222.36 148.557 222.193 148.389C222.025 148.221 221.927 148.026 221.899 147.802C221.899 147.607 222.095 147.299 222.486 146.88C222.877 146.461 224.19 145.134 226.426 142.899L230.785 138.54L226.426 134.181C224.162 131.917 222.849 130.59 222.486 130.199C222.123 129.808 221.927 129.5 221.899 129.277C221.899 129.025 221.983 128.83 222.151 128.69C222.318 128.55 222.528 128.48 222.779 128.48C222.919 128.48 223.017 128.494 223.073 128.522C223.157 128.578 224.679 130.059 227.641 132.965L232.042 137.366L236.401 133.007C238.553 130.856 239.866 129.556 240.341 129.109C240.816 128.662 241.123 128.439 241.263 128.439C241.85 128.439 242.143 128.718 242.143 129.277C242.143 129.472 242.003 129.724 241.724 130.031C241.445 130.339 240.075 131.708 237.617 134.139L233.258 138.54L237.617 142.94C239.964 145.288 241.305 146.643 241.64 147.006C241.976 147.369 242.143 147.635 242.143 147.802Z" fill="white"/>
</g>
<g id="Group_42">
<g id="Group_43">
<path id="Vector_33" d="M272.203 101.278C271.448 101.278 270.862 101.04 270.442 100.565C270.023 100.09 269.8 99.4756 269.772 98.7212C269.772 97.1844 270.442 95.8152 271.784 94.6137C273.125 93.4122 274.745 92.8115 276.646 92.8115C277.623 92.8115 278.238 92.8254 278.49 92.8534C280.557 93.1887 282.136 93.9292 283.226 95.0748C284.316 96.2204 284.874 97.4638 284.902 98.805C284.902 100.258 284.427 101.669 283.477 103.038C282.527 104.407 281.214 105.399 279.538 106.014L279.412 106.098C279.412 106.126 279.538 106.168 279.789 106.224C280.04 106.28 280.446 106.405 281.004 106.601C281.563 106.796 282.094 107.09 282.597 107.481C284.888 108.962 286.034 110.918 286.034 113.349C286.034 115.556 285.168 117.484 283.435 119.133C281.703 120.781 279.51 121.606 276.855 121.606C274.62 121.606 272.692 121.005 271.071 119.803C269.45 118.602 268.64 117.079 268.64 115.235C268.64 114.453 268.892 113.824 269.395 113.349C269.898 112.874 270.526 112.622 271.281 112.594C272.063 112.594 272.706 112.846 273.209 113.349C273.712 113.852 273.963 114.481 273.963 115.235C273.963 115.542 273.921 115.822 273.837 116.073C273.754 116.325 273.656 116.548 273.544 116.744C273.432 116.939 273.279 117.107 273.083 117.247C272.887 117.386 272.72 117.498 272.58 117.582C272.44 117.666 272.301 117.722 272.161 117.75C272.021 117.778 271.909 117.82 271.826 117.875L271.658 117.917C273.083 119.175 274.815 119.803 276.855 119.803C278.392 119.803 279.551 119.063 280.334 117.582C280.809 116.66 281.046 115.249 281.046 113.349V112.511C281.046 109.856 280.152 108.082 278.364 107.188C277.945 107.02 277.093 106.922 275.807 106.894L274.047 106.852L273.921 106.769C273.865 106.685 273.837 106.461 273.837 106.098C273.837 105.595 273.949 105.343 274.173 105.343C274.955 105.343 275.765 105.274 276.604 105.134C277.554 104.994 278.42 104.407 279.202 103.374C279.985 102.34 280.376 100.775 280.376 98.6793V98.344C280.376 96.7513 279.887 95.6476 278.909 95.0329C278.294 94.6417 277.637 94.4461 276.939 94.4461C276.045 94.4461 275.22 94.5998 274.466 94.9071C273.712 95.2145 273.181 95.5358 272.873 95.8711C272.566 96.2064 272.412 96.3741 272.412 96.3741H272.538C272.622 96.402 272.734 96.43 272.873 96.4579C273.013 96.4858 273.153 96.5557 273.292 96.6675C273.432 96.7792 273.6 96.877 273.795 96.9609C273.991 97.0447 274.131 97.1984 274.215 97.4219C274.298 97.6454 274.41 97.855 274.55 98.0506C274.69 98.2462 274.731 98.5256 274.676 98.8889C274.676 99.5036 274.48 100.048 274.089 100.523C273.698 100.998 273.069 101.25 272.203 101.278Z" fill="white"/>
<path id="Vector_34" d="M293.159 101.278C292.404 101.278 291.818 101.04 291.398 100.565C290.979 100.09 290.756 99.4756 290.728 98.7212C290.728 97.1844 291.398 95.8152 292.74 94.6137C294.081 93.4122 295.702 92.8115 297.602 92.8115C298.58 92.8115 299.194 92.8254 299.446 92.8534C301.513 93.1887 303.092 93.9292 304.182 95.0748C305.272 96.2204 305.83 97.4638 305.858 98.805C305.858 100.258 305.383 101.669 304.433 103.038C303.483 104.407 302.17 105.399 300.494 106.014L300.368 106.098C300.368 106.126 300.494 106.168 300.745 106.224C300.997 106.28 301.402 106.405 301.961 106.601C302.519 106.796 303.05 107.09 303.553 107.481C305.844 108.962 306.99 110.918 306.99 113.349C306.99 115.556 306.124 117.484 304.391 119.133C302.659 120.781 300.466 121.606 297.811 121.606C295.576 121.606 293.648 121.005 292.027 119.803C290.407 118.602 289.596 117.079 289.596 115.235C289.596 114.453 289.848 113.824 290.351 113.349C290.854 112.874 291.482 112.622 292.237 112.594C293.019 112.594 293.662 112.846 294.165 113.349C294.668 113.852 294.919 114.481 294.919 115.235C294.919 115.542 294.877 115.822 294.793 116.073C294.71 116.325 294.612 116.548 294.5 116.744C294.388 116.939 294.235 117.107 294.039 117.247C293.843 117.386 293.676 117.498 293.536 117.582C293.396 117.666 293.257 117.722 293.117 117.75C292.977 117.778 292.865 117.82 292.782 117.875L292.614 117.917C294.039 119.175 295.771 119.803 297.811 119.803C299.348 119.803 300.508 119.063 301.29 117.582C301.765 116.66 302.002 115.249 302.002 113.349V112.511C302.002 109.856 301.108 108.082 299.32 107.188C298.901 107.02 298.049 106.922 296.763 106.894L295.003 106.852L294.877 106.769C294.821 106.685 294.793 106.461 294.793 106.098C294.793 105.595 294.905 105.343 295.129 105.343C295.911 105.343 296.721 105.274 297.56 105.134C298.51 104.994 299.376 104.407 300.158 103.374C300.941 102.34 301.332 100.775 301.332 98.6793V98.344C301.332 96.7513 300.843 95.6476 299.865 95.0329C299.25 94.6417 298.594 94.4461 297.895 94.4461C297.001 94.4461 296.177 94.5998 295.422 94.9071C294.668 95.2145 294.137 95.5358 293.829 95.8711C293.522 96.2064 293.368 96.3741 293.368 96.3741H293.494C293.578 96.402 293.69 96.43 293.829 96.4579C293.969 96.4858 294.109 96.5557 294.249 96.6675C294.388 96.7792 294.556 96.877 294.751 96.9609C294.947 97.0447 295.087 97.1984 295.171 97.4219C295.254 97.6454 295.366 97.855 295.506 98.0506C295.646 98.2462 295.688 98.5256 295.632 98.8889C295.632 99.5036 295.436 100.048 295.045 100.523C294.654 100.998 294.025 101.25 293.159 101.278Z" fill="white"/>
</g>
<g id="Group_44">
<path id="Vector_35" d="M286.286 153.544L285.741 153.753C285.35 153.893 284.791 154.033 284.065 154.172C283.338 154.312 282.528 154.41 281.634 154.466H280.837V152.538H281.634C282.947 152.482 284.163 152.272 285.28 151.909C286.398 151.546 287.18 151.21 287.627 150.903C288.074 150.596 288.466 150.288 288.801 149.981C288.857 149.897 289.024 149.855 289.304 149.855C289.555 149.855 289.793 149.939 290.016 150.107V162.639L290.058 175.213C290.254 175.408 290.422 175.534 290.561 175.59C290.701 175.646 291.036 175.702 291.567 175.757C292.098 175.813 292.964 175.841 294.166 175.841H295.255V177.769H294.794C294.208 177.685 291.986 177.644 288.13 177.644C284.33 177.644 282.137 177.685 281.55 177.769H281.047V175.841H282.137C282.751 175.841 283.282 175.841 283.729 175.841C284.176 175.841 284.526 175.827 284.777 175.799C285.029 175.771 285.252 175.73 285.448 175.674C285.643 175.618 285.755 175.59 285.783 175.59C285.811 175.59 285.895 175.52 286.035 175.38C286.174 175.241 286.258 175.185 286.286 175.213V153.544Z" fill="white"/>
</g>
<path id="Vector_36" d="M312.985 139.796H262.689V137.281H312.985V139.796Z" fill="white"/>
</g>
<g id="Group_45">
<path id="Vector_37" d="M329.678 139.083C329.678 139.083 329.678 138.901 329.678 138.538C329.678 138.175 329.873 137.896 330.265 137.7H342.797V131.413L342.838 125.126C343.118 124.763 343.383 124.581 343.635 124.581C343.998 124.581 344.277 124.791 344.473 125.21V137.7H356.963C357.382 137.924 357.592 138.203 357.592 138.538C357.592 138.874 357.382 139.153 356.963 139.377H344.473V151.867C344.249 152.258 343.998 152.453 343.719 152.453H343.635H343.551C343.216 152.453 342.964 152.258 342.797 151.867V139.377H330.265C329.873 139.181 329.678 138.901 329.678 138.538V139.083Z" fill="white"/>
</g>
<g id="Group_46">
<path id="Vector_38" d="M371.013 135.899C371.013 131.344 372.145 127.74 374.408 125.085C376.671 122.431 379.186 121.104 381.952 121.104C383.88 121.104 385.264 121.606 386.102 122.612C386.94 123.618 387.359 124.736 387.359 125.965C387.359 126.664 387.164 127.223 386.772 127.642C386.381 128.061 385.836 128.271 385.138 128.271C384.495 128.271 383.964 128.075 383.545 127.684C383.126 127.293 382.916 126.748 382.916 126.049C382.916 124.82 383.573 124.079 384.886 123.828C384.272 123.213 383.405 122.864 382.288 122.78C380.304 122.78 378.669 123.618 377.384 125.295C376.071 127.139 375.414 129.961 375.414 133.761L375.456 133.929C375.596 133.761 375.707 133.58 375.791 133.384C376.937 131.708 378.432 130.869 380.276 130.869H380.444C381.729 130.869 382.861 131.135 383.838 131.666C384.509 132.057 385.18 132.616 385.85 133.342C386.521 134.069 387.066 134.865 387.485 135.731C388.072 137.1 388.365 138.595 388.365 140.216V140.97C388.365 141.613 388.295 142.214 388.156 142.773C387.848 144.421 386.954 146.028 385.473 147.593C383.992 149.157 382.12 149.94 379.857 149.94C379.074 149.94 378.32 149.828 377.593 149.604C376.867 149.381 376.085 148.962 375.246 148.347C374.408 147.732 373.696 146.908 373.109 145.874C372.522 144.84 372.019 143.485 371.6 141.809C371.181 140.132 370.985 138.162 371.013 135.899ZM380.024 132.378C379.186 132.378 378.46 132.616 377.845 133.091C377.23 133.566 376.755 134.194 376.42 134.977C376.085 135.759 375.847 136.555 375.707 137.366C375.568 138.176 375.484 139.042 375.456 139.964C375.456 142.284 375.624 143.946 375.959 144.952C376.294 145.958 376.825 146.768 377.552 147.383C378.222 147.886 378.963 148.137 379.773 148.137C381.198 148.137 382.288 147.607 383.042 146.545C383.405 146.042 383.657 145.413 383.797 144.659C383.936 143.904 384.006 142.437 384.006 140.258C384.006 138.022 383.936 136.528 383.797 135.773C383.657 135.019 383.405 134.39 383.042 133.887C382.288 132.881 381.282 132.378 380.024 132.378Z" fill="white"/>
</g>
<g id="Group_47">
<path id="Vector_39" d="M425.927 147.802C425.927 148.361 425.633 148.641 425.047 148.641C424.907 148.641 424.6 148.417 424.125 147.97C423.65 147.523 422.336 146.224 420.185 144.072L415.826 139.713L411.425 144.114C408.463 147.02 406.94 148.501 406.856 148.557C406.745 148.613 406.647 148.641 406.563 148.641C406.339 148.641 406.144 148.557 405.976 148.389C405.809 148.221 405.711 148.026 405.683 147.802C405.683 147.607 405.878 147.299 406.27 146.88C406.661 146.461 407.974 145.134 410.209 142.899L414.568 138.54L410.209 134.181C407.946 131.917 406.633 130.59 406.27 130.199C405.906 129.808 405.711 129.5 405.683 129.277C405.683 129.025 405.767 128.83 405.934 128.69C406.102 128.55 406.312 128.48 406.563 128.48C406.703 128.48 406.801 128.494 406.856 128.522C406.94 128.578 408.463 130.059 411.425 132.965L415.826 137.366L420.185 133.007C422.336 130.856 423.65 129.556 424.125 129.109C424.6 128.662 424.907 128.439 425.047 128.439C425.633 128.439 425.927 128.718 425.927 129.277C425.927 129.472 425.787 129.724 425.508 130.031C425.228 130.339 423.859 131.708 421.4 134.139L417.041 138.54L421.4 142.94C423.747 145.288 425.089 146.643 425.424 147.006C425.759 147.369 425.927 147.635 425.927 147.802Z" fill="white"/>
</g>
<g id="Group_48">
<g id="Group_49">
<g id="Group_50">
<path id="Vector_40" d="M455.987 101.278C455.232 101.278 454.645 101.04 454.226 100.565C453.807 100.09 453.584 99.4756 453.556 98.7212C453.556 97.1844 454.226 95.8152 455.568 94.6137C456.909 93.4122 458.529 92.8115 460.429 92.8115C461.407 92.8115 462.022 92.8254 462.274 92.8534C464.341 93.1887 465.92 93.9292 467.01 95.0748C468.1 96.2204 468.658 97.4638 468.686 98.805C468.686 100.258 468.211 101.669 467.261 103.038C466.311 104.407 464.998 105.399 463.321 106.014L463.196 106.098C463.196 106.126 463.321 106.168 463.573 106.224C463.824 106.28 464.23 106.405 464.788 106.601C465.347 106.796 465.878 107.09 466.381 107.481C468.672 108.962 469.818 110.918 469.818 113.349C469.818 115.556 468.952 117.484 467.219 119.133C465.487 120.781 463.294 121.606 460.639 121.606C458.404 121.606 456.476 121.005 454.855 119.803C453.234 118.602 452.424 117.079 452.424 115.235C452.424 114.453 452.676 113.824 453.179 113.349C453.681 112.874 454.31 112.622 455.065 112.594C455.847 112.594 456.49 112.846 456.993 113.349C457.496 113.852 457.747 114.481 457.747 115.235C457.747 115.542 457.705 115.822 457.621 116.073C457.537 116.325 457.44 116.548 457.328 116.744C457.216 116.939 457.062 117.107 456.867 117.247C456.671 117.386 456.504 117.498 456.364 117.582C456.224 117.666 456.084 117.722 455.945 117.75C455.805 117.778 455.693 117.82 455.609 117.875L455.442 117.917C456.867 119.175 458.599 119.803 460.639 119.803C462.176 119.803 463.335 119.063 464.118 117.582C464.593 116.66 464.83 115.249 464.83 113.349V112.511C464.83 109.856 463.936 108.082 462.148 107.188C461.729 107.02 460.877 106.922 459.591 106.894L457.831 106.852L457.705 106.769C457.649 106.685 457.621 106.461 457.621 106.098C457.621 105.595 457.733 105.343 457.957 105.343C458.739 105.343 459.549 105.274 460.388 105.134C461.338 104.994 462.204 104.407 462.986 103.374C463.769 102.34 464.16 100.775 464.16 98.6793V98.344C464.16 96.7513 463.671 95.6476 462.693 95.0329C462.078 94.6417 461.421 94.4461 460.723 94.4461C459.829 94.4461 459.004 94.5998 458.25 94.9071C457.496 95.2145 456.965 95.5358 456.657 95.8711C456.35 96.2064 456.196 96.3741 456.196 96.3741H456.322C456.406 96.402 456.518 96.43 456.657 96.4579C456.797 96.4858 456.937 96.5557 457.076 96.6675C457.216 96.7792 457.384 96.877 457.579 96.9609C457.775 97.0447 457.915 97.1984 457.999 97.4219C458.082 97.6454 458.194 97.855 458.334 98.0506C458.474 98.2462 458.515 98.5256 458.46 98.8889C458.46 99.5036 458.264 100.048 457.873 100.523C457.482 100.998 456.853 101.25 455.987 101.278Z" fill="white"/>
<path id="Vector_41" d="M476.943 101.278C476.188 101.278 475.602 101.04 475.182 100.565C474.763 100.09 474.54 99.4756 474.512 98.7212C474.512 97.1844 475.182 95.8152 476.524 94.6137C477.865 93.4122 479.485 92.8115 481.386 92.8115C482.363 92.8115 482.978 92.8254 483.23 92.8534C485.297 93.1887 486.876 93.9292 487.966 95.0748C489.056 96.2204 489.614 97.4638 489.642 98.805C489.642 100.258 489.167 101.669 488.217 103.038C487.267 104.407 485.954 105.399 484.278 106.014L484.152 106.098C484.152 106.126 484.278 106.168 484.529 106.224C484.78 106.28 485.186 106.405 485.744 106.601C486.303 106.796 486.834 107.09 487.337 107.481C489.628 108.962 490.774 110.918 490.774 113.349C490.774 115.556 489.908 117.484 488.175 119.133C486.443 120.781 484.25 121.606 481.595 121.606C479.36 121.606 477.432 121.005 475.811 119.803C474.19 118.602 473.38 117.079 473.38 115.235C473.38 114.453 473.632 113.824 474.135 113.349C474.638 112.874 475.266 112.622 476.021 112.594C476.803 112.594 477.446 112.846 477.949 113.349C478.452 113.852 478.703 114.481 478.703 115.235C478.703 115.542 478.661 115.822 478.577 116.073C478.494 116.325 478.396 116.548 478.284 116.744C478.172 116.939 478.019 117.107 477.823 117.247C477.627 117.386 477.46 117.498 477.32 117.582C477.18 117.666 477.041 117.722 476.901 117.75C476.761 117.778 476.649 117.82 476.566 117.875L476.398 117.917C477.823 119.175 479.555 119.803 481.595 119.803C483.132 119.803 484.291 119.063 485.074 117.582C485.549 116.66 485.786 115.249 485.786 113.349V112.511C485.786 109.856 484.892 108.082 483.104 107.188C482.685 107.02 481.833 106.922 480.547 106.894L478.787 106.852L478.661 106.769C478.605 106.685 478.577 106.461 478.577 106.098C478.577 105.595 478.689 105.343 478.913 105.343C479.695 105.343 480.505 105.274 481.344 105.134C482.294 104.994 483.16 104.407 483.942 103.374C484.725 102.34 485.116 100.775 485.116 98.6793V98.344C485.116 96.7513 484.627 95.6476 483.649 95.0329C483.034 94.6417 482.377 94.4461 481.679 94.4461C480.785 94.4461 479.96 94.5998 479.206 94.9071C478.452 95.2145 477.921 95.5358 477.613 95.8711C477.306 96.2064 477.152 96.3741 477.152 96.3741H477.278C477.362 96.402 477.474 96.43 477.613 96.4579C477.753 96.4858 477.893 96.5557 478.032 96.6675C478.172 96.7792 478.34 96.877 478.535 96.9609C478.731 97.0447 478.871 97.1984 478.955 97.4219C479.038 97.6454 479.15 97.855 479.29 98.0506C479.43 98.2462 479.471 98.5256 479.416 98.8889C479.416 99.5036 479.22 100.048 478.829 100.523C478.438 100.998 477.809 101.25 476.943 101.278Z" fill="white"/>
</g>
<g id="Group_51">
<path id="Vector_42" d="M528.295 119.468C528.295 120.027 528.001 120.307 527.414 120.307C527.275 120.307 526.967 120.083 526.492 119.636C526.017 119.189 524.704 117.89 522.552 115.738L518.193 111.379L513.793 115.78C510.831 118.686 509.308 120.167 509.224 120.223C509.112 120.279 509.015 120.307 508.931 120.307C508.707 120.307 508.512 120.223 508.344 120.055C508.176 119.888 508.078 119.692 508.051 119.468C508.051 119.273 508.246 118.965 508.637 118.546C509.029 118.127 510.342 116.8 512.577 114.565L516.936 110.206L512.577 105.847C510.314 103.583 509.001 102.256 508.637 101.865C508.274 101.474 508.078 101.166 508.051 100.943C508.051 100.691 508.134 100.496 508.302 100.356C508.47 100.216 508.679 100.146 508.931 100.146C509.07 100.146 509.168 100.16 509.224 100.188C509.308 100.244 510.831 101.725 513.793 104.631L518.193 109.032L522.552 104.673C524.704 102.522 526.017 101.222 526.492 100.775C526.967 100.328 527.275 100.105 527.414 100.105C528.001 100.105 528.295 100.384 528.295 100.943C528.295 101.138 528.155 101.39 527.875 101.697C527.596 102.005 526.227 103.374 523.768 105.805L519.409 110.206L523.768 114.606C526.115 116.954 527.456 118.309 527.792 118.672C528.127 119.035 528.295 119.301 528.295 119.468Z" fill="white"/>
</g>
<g id="Group_52">
<path id="Vector_43" d="M549.133 101.278C548.379 101.278 547.792 101.04 547.373 100.565C546.954 100.09 546.73 99.4756 546.702 98.7212C546.702 97.1844 547.373 95.8152 548.714 94.6137C550.055 93.4122 551.676 92.8115 553.576 92.8115C554.554 92.8115 555.169 92.8254 555.42 92.8534C557.488 93.1887 559.067 93.9292 560.157 95.0748C561.246 96.2204 561.805 97.4638 561.833 98.805C561.833 100.258 561.358 101.669 560.408 103.038C559.458 104.407 558.145 105.399 556.468 106.014L556.342 106.098C556.342 106.126 556.468 106.168 556.72 106.224C556.971 106.28 557.376 106.405 557.935 106.601C558.494 106.796 559.025 107.09 559.528 107.481C561.819 108.962 562.965 110.918 562.965 113.349C562.965 115.556 562.098 117.484 560.366 119.133C558.634 120.781 556.44 121.606 553.786 121.606C551.55 121.606 549.622 121.005 548.002 119.803C546.381 118.602 545.571 117.079 545.571 115.235C545.571 114.453 545.822 113.824 546.325 113.349C546.828 112.874 547.457 112.622 548.211 112.594C548.994 112.594 549.636 112.846 550.139 113.349C550.642 113.852 550.894 114.481 550.894 115.235C550.894 115.542 550.852 115.822 550.768 116.073C550.684 116.325 550.586 116.548 550.475 116.744C550.363 116.939 550.209 117.107 550.014 117.247C549.818 117.386 549.65 117.498 549.511 117.582C549.371 117.666 549.231 117.722 549.091 117.75C548.952 117.778 548.84 117.82 548.756 117.875L548.589 117.917C550.014 119.175 551.746 119.803 553.786 119.803C555.323 119.803 556.482 119.063 557.265 117.582C557.74 116.66 557.977 115.249 557.977 113.349V112.511C557.977 109.856 557.083 108.082 555.295 107.188C554.875 107.02 554.023 106.922 552.738 106.894L550.978 106.852L550.852 106.769C550.796 106.685 550.768 106.461 550.768 106.098C550.768 105.595 550.88 105.343 551.103 105.343C551.886 105.343 552.696 105.274 553.534 105.134C554.484 104.994 555.351 104.407 556.133 103.374C556.915 102.34 557.306 100.775 557.306 98.6793V98.344C557.306 96.7513 556.817 95.6476 555.839 95.0329C555.225 94.6417 554.568 94.4461 553.87 94.4461C552.975 94.4461 552.151 94.5998 551.397 94.9071C550.642 95.2145 550.111 95.5358 549.804 95.8711C549.497 96.2064 549.343 96.3741 549.343 96.3741H549.469C549.553 96.402 549.664 96.43 549.804 96.4579C549.944 96.4858 550.083 96.5557 550.223 96.6675C550.363 96.7792 550.531 96.877 550.726 96.9609C550.922 97.0447 551.061 97.1984 551.145 97.4219C551.229 97.6454 551.341 97.855 551.481 98.0506C551.62 98.2462 551.662 98.5256 551.606 98.8889C551.606 99.5036 551.411 100.048 551.019 100.523C550.628 100.998 550 101.25 549.133 101.278Z" fill="white"/>
<path id="Vector_44" d="M569.335 102.703C568.581 102.703 567.98 102.451 567.533 101.948C567.086 101.445 566.862 100.831 566.862 100.104C566.862 98.1202 567.603 96.4017 569.084 94.9488C570.565 93.4958 572.409 92.7693 574.616 92.7693C577.159 92.7693 579.283 93.5517 580.987 95.1164C582.691 96.6812 583.558 98.707 583.586 101.194C583.586 102.395 583.306 103.541 582.747 104.631C582.188 105.72 581.518 106.67 580.736 107.481C579.953 108.291 578.835 109.325 577.382 110.582C576.377 111.449 574.979 112.734 573.191 114.438L570.718 116.785L573.904 116.827C578.291 116.827 580.624 116.757 580.903 116.618C581.099 116.562 581.434 115.318 581.909 112.888V112.762H583.586V112.888C583.558 112.971 583.376 114.243 583.041 116.702C582.705 119.161 582.496 120.446 582.412 120.558V120.683H566.862V119.887V119.384C566.862 119.188 566.946 118.979 567.114 118.755C567.281 118.532 567.701 118.043 568.371 117.288C569.181 116.394 569.88 115.612 570.467 114.941C570.718 114.662 571.193 114.145 571.892 113.39C572.59 112.636 573.065 112.119 573.317 111.84C573.568 111.56 573.974 111.099 574.532 110.457C575.091 109.814 575.482 109.339 575.706 109.032C575.929 108.724 576.251 108.305 576.67 107.774C577.089 107.243 577.382 106.796 577.55 106.433C577.718 106.07 577.927 105.665 578.179 105.217C578.43 104.77 578.612 104.323 578.724 103.876C578.835 103.429 578.933 103.01 579.017 102.619C579.101 102.228 579.143 101.767 579.143 101.236C579.143 99.4754 578.668 97.9525 577.718 96.6672C576.768 95.3819 575.413 94.7392 573.652 94.7392C572.73 94.7392 571.92 94.9767 571.221 95.4517C570.523 95.9267 570.034 96.3878 569.754 96.8348C569.475 97.2819 569.335 97.5474 569.335 97.6312C569.335 97.6591 569.405 97.6731 569.545 97.6731C570.048 97.6731 570.565 97.8687 571.096 98.2599C571.626 98.6511 571.892 99.2937 571.892 100.188C571.892 100.886 571.668 101.473 571.221 101.948C570.774 102.423 570.145 102.675 569.335 102.703Z" fill="white"/>
</g>
</g>
<g id="Group_53">
<g id="Group_54">
<path id="Vector_45" d="M480.55 153.544L480.005 153.753C479.614 153.893 479.055 154.033 478.328 154.172C477.602 154.312 476.792 154.41 475.897 154.466H475.101V152.538H475.897C477.211 152.482 478.426 152.272 479.544 151.909C480.662 151.546 481.444 151.21 481.891 150.903C482.338 150.596 482.729 150.288 483.065 149.981C483.12 149.897 483.288 149.855 483.568 149.855C483.819 149.855 484.056 149.939 484.28 150.107V162.639L484.322 175.213C484.518 175.408 484.685 175.534 484.825 175.59C484.965 175.646 485.3 175.702 485.831 175.757C486.362 175.813 487.228 175.841 488.429 175.841H489.519V177.769H489.058C488.471 177.685 486.25 177.644 482.394 177.644C478.594 177.644 476.4 177.685 475.814 177.769H475.311V175.841H476.4C477.015 175.841 477.546 175.841 477.993 175.841C478.44 175.841 478.789 175.827 479.041 175.799C479.292 175.771 479.516 175.73 479.712 175.674C479.907 175.618 480.019 175.59 480.047 175.59C480.075 175.59 480.159 175.52 480.298 175.38C480.438 175.241 480.522 175.185 480.55 175.213V153.544Z" fill="white"/>
</g>
<g id="Group_55">
<path id="Vector_46" d="M528.297 176.554C528.297 177.113 528.004 177.392 527.417 177.392C527.277 177.392 526.97 177.169 526.495 176.722C526.02 176.275 524.706 174.975 522.555 172.824L518.196 168.465L513.795 172.866C510.833 175.772 509.31 177.253 509.227 177.309C509.115 177.364 509.017 177.392 508.933 177.392C508.71 177.392 508.514 177.309 508.346 177.141C508.179 176.973 508.081 176.778 508.053 176.554C508.053 176.358 508.249 176.051 508.64 175.632C509.031 175.213 510.344 173.886 512.58 171.65L516.939 167.291L512.58 162.932C510.316 160.669 509.003 159.342 508.64 158.951C508.277 158.559 508.081 158.252 508.053 158.029C508.053 157.777 508.137 157.581 508.304 157.442C508.472 157.302 508.682 157.232 508.933 157.232C509.073 157.232 509.171 157.246 509.227 157.274C509.31 157.33 510.833 158.811 513.795 161.717L518.196 166.118L522.555 161.759C524.706 159.607 526.02 158.308 526.495 157.861C526.97 157.414 527.277 157.19 527.417 157.19C528.004 157.19 528.297 157.47 528.297 158.029C528.297 158.224 528.157 158.476 527.878 158.783C527.598 159.09 526.229 160.459 523.77 162.89L519.411 167.291L523.77 171.692C526.117 174.039 527.459 175.394 527.794 175.758C528.129 176.121 528.297 176.386 528.297 176.554Z" fill="white"/>
</g>
<g id="Group_56">
<path id="Vector_47" d="M548.382 159.789C547.627 159.789 547.027 159.537 546.58 159.034C546.132 158.531 545.909 157.916 545.909 157.19C545.909 155.206 546.649 153.488 548.13 152.035C549.611 150.582 551.455 149.855 553.663 149.855C556.206 149.855 558.329 150.638 560.034 152.202C561.738 153.767 562.604 155.793 562.632 158.28C562.632 159.481 562.353 160.627 561.794 161.717C561.235 162.806 560.565 163.756 559.782 164.567C559 165.377 557.882 166.411 556.429 167.668C555.423 168.534 554.026 169.82 552.238 171.524L549.765 173.871L552.95 173.913C557.337 173.913 559.67 173.843 559.95 173.704C560.145 173.648 560.481 172.404 560.956 169.973V169.848H562.632V169.973C562.604 170.057 562.423 171.329 562.087 173.788C561.752 176.246 561.542 177.532 561.459 177.644V177.769H545.909V176.973V176.47C545.909 176.274 545.993 176.065 546.16 175.841C546.328 175.618 546.747 175.129 547.418 174.374C548.228 173.48 548.927 172.698 549.513 172.027C549.765 171.748 550.24 171.231 550.938 170.476C551.637 169.722 552.112 169.205 552.364 168.926C552.615 168.646 553.02 168.185 553.579 167.543C554.138 166.9 554.529 166.425 554.753 166.117C554.976 165.81 555.297 165.391 555.717 164.86C556.136 164.329 556.429 163.882 556.597 163.519C556.764 163.156 556.974 162.75 557.225 162.303C557.477 161.856 557.659 161.409 557.77 160.962C557.882 160.515 557.98 160.096 558.064 159.705C558.148 159.314 558.189 158.853 558.189 158.322C558.189 156.561 557.714 155.038 556.764 153.753C555.814 152.468 554.459 151.825 552.699 151.825C551.777 151.825 550.966 152.063 550.268 152.538C549.569 153.013 549.08 153.474 548.801 153.921C548.522 154.368 548.382 154.633 548.382 154.717C548.382 154.745 548.452 154.759 548.591 154.759C549.094 154.759 549.611 154.955 550.142 155.346C550.673 155.737 550.938 156.38 550.938 157.274C550.938 157.972 550.715 158.559 550.268 159.034C549.821 159.509 549.192 159.761 548.382 159.789Z" fill="white"/>
</g>
</g>
<path id="Vector_48" d="M589.916 139.796H446.473V137.281H589.916V139.796Z" fill="white"/>
</g>
</g>
<g id="Group 159">
<g id="Group_57">
<g id="Group_58">
<path id="Vector_49" d="M160.713 249.228C160.238 249.228 160 249.089 160 248.809C160 248.753 160.042 248.558 160.126 248.222C160.238 247.775 160.349 247.524 160.461 247.468C160.573 247.412 160.894 247.37 161.425 247.342C162.179 247.342 163.018 247.3 163.94 247.217C164.331 247.133 164.596 246.965 164.736 246.714C164.792 246.574 165.784 242.648 167.712 234.936C169.64 227.224 170.618 223.312 170.646 223.2C170.646 223.005 170.59 222.907 170.478 222.907C170.255 222.823 169.514 222.753 168.257 222.697H166.958C166.79 222.53 166.706 222.418 166.706 222.362C166.706 222.306 166.734 222.069 166.79 221.65C166.902 221.175 167.041 220.881 167.209 220.769H189.8C189.996 220.881 190.094 221.035 190.094 221.23C190.094 221.37 189.912 222.935 189.549 225.925C189.185 228.915 188.99 230.451 188.962 230.535C188.906 230.731 188.627 230.829 188.124 230.829H187.621C187.425 230.689 187.327 230.507 187.327 230.284C187.327 230.256 187.369 229.92 187.453 229.278C187.537 228.635 187.579 227.895 187.579 227.056C187.579 226.218 187.481 225.534 187.285 225.003C187.09 224.472 186.824 224.039 186.489 223.703C186.154 223.368 185.637 223.144 184.938 223.033C184.24 222.921 183.527 222.823 182.801 222.739C182.074 222.655 181.068 222.642 179.783 222.697H178.819C176.528 222.725 175.312 222.767 175.173 222.823C175.033 222.879 174.935 222.991 174.879 223.158C174.851 223.186 174.376 225.017 173.454 228.649L172.113 234.056H174.418C174.502 234.056 174.823 234.056 175.382 234.056C175.941 234.056 176.332 234.042 176.556 234.014C176.779 233.986 177.087 233.944 177.478 233.888C177.869 233.832 178.204 233.735 178.484 233.595C178.763 233.455 179.001 233.287 179.196 233.092C179.559 232.757 179.867 232.295 180.118 231.709C180.37 231.122 180.551 230.591 180.663 230.116C180.775 229.641 180.845 229.39 180.873 229.362C180.957 229.222 181.222 229.152 181.669 229.152H182.172C182.368 229.292 182.465 229.431 182.465 229.571C182.465 229.655 182.032 231.485 181.166 235.062C180.3 238.638 179.825 240.483 179.741 240.594C179.685 240.79 179.406 240.888 178.903 240.888H178.4C178.204 240.72 178.106 240.552 178.106 240.385C178.106 240.301 178.176 239.994 178.316 239.463C178.456 238.932 178.526 238.373 178.526 237.786C178.526 236.976 178.246 236.473 177.687 236.277C177.128 236.082 175.885 235.984 173.957 235.984H171.652L170.311 241.307C169.416 244.772 168.969 246.588 168.969 246.755C168.969 247.147 170.213 247.342 172.7 247.342H173.747C173.915 247.51 173.999 247.608 173.999 247.636C173.999 247.664 173.971 247.943 173.915 248.474C173.803 248.837 173.664 249.103 173.496 249.27H172.783C171.638 249.214 169.528 249.186 166.455 249.186C164.638 249.186 163.255 249.186 162.305 249.186C161.355 249.186 160.824 249.2 160.713 249.228Z" fill="white"/>
</g>
<g id="Group_59">
<g id="Group_60">
<path id="Vector_50" d="M189.413 241.837C188.88 241.837 188.465 241.67 188.168 241.334C187.872 240.998 187.714 240.563 187.694 240.03C187.694 238.943 188.168 237.975 189.117 237.126C190.065 236.276 191.211 235.852 192.554 235.852C193.246 235.852 193.68 235.862 193.858 235.881C195.32 236.118 196.436 236.642 197.206 237.452C197.977 238.262 198.372 239.141 198.392 240.089C198.392 241.116 198.056 242.114 197.384 243.082C196.713 244.05 195.784 244.751 194.599 245.186L194.51 245.245C194.51 245.265 194.599 245.295 194.777 245.334C194.954 245.374 195.241 245.463 195.636 245.601C196.031 245.739 196.406 245.947 196.762 246.223C198.382 247.27 199.192 248.653 199.192 250.372C199.192 251.932 198.579 253.295 197.355 254.461C196.13 255.626 194.579 256.209 192.702 256.209C191.122 256.209 189.759 255.784 188.613 254.935C187.467 254.086 186.894 253.009 186.894 251.705C186.894 251.152 187.072 250.707 187.428 250.372C187.783 250.036 188.228 249.858 188.761 249.838C189.314 249.838 189.769 250.016 190.124 250.372C190.48 250.727 190.658 251.172 190.658 251.705C190.658 251.922 190.628 252.12 190.569 252.298C190.509 252.476 190.44 252.634 190.361 252.772C190.282 252.91 190.174 253.029 190.035 253.127C189.897 253.226 189.779 253.305 189.68 253.365C189.581 253.424 189.482 253.463 189.383 253.483C189.285 253.503 189.206 253.532 189.146 253.572L189.028 253.602C190.035 254.491 191.26 254.935 192.702 254.935C193.789 254.935 194.609 254.412 195.162 253.365C195.498 252.713 195.666 251.715 195.666 250.372V249.779C195.666 247.902 195.033 246.648 193.769 246.016C193.473 245.897 192.87 245.828 191.961 245.808L190.717 245.779L190.628 245.719C190.588 245.66 190.569 245.502 190.569 245.245C190.569 244.89 190.648 244.712 190.806 244.712C191.359 244.712 191.932 244.662 192.524 244.564C193.196 244.465 193.809 244.05 194.362 243.319C194.915 242.588 195.191 241.482 195.191 240V239.763C195.191 238.637 194.846 237.857 194.154 237.422C193.72 237.146 193.255 237.007 192.762 237.007C192.129 237.007 191.547 237.116 191.013 237.333C190.48 237.551 190.104 237.778 189.887 238.015C189.67 238.252 189.561 238.37 189.561 238.37H189.65C189.709 238.39 189.788 238.41 189.887 238.43C189.986 238.449 190.085 238.499 190.183 238.578C190.282 238.657 190.401 238.726 190.539 238.785C190.677 238.845 190.776 238.953 190.835 239.111C190.895 239.269 190.974 239.417 191.072 239.556C191.171 239.694 191.201 239.892 191.161 240.148C191.161 240.583 191.023 240.968 190.747 241.304C190.47 241.64 190.025 241.818 189.413 241.837Z" fill="white"/>
<path id="Vector_51" d="M214.156 255.557C213.8 255.498 212.526 255.468 210.333 255.468C208.042 255.468 206.718 255.498 206.363 255.557H206.096V254.194H207.014C207.41 254.194 207.676 254.194 207.815 254.194C207.953 254.194 208.121 254.174 208.318 254.135C208.516 254.095 208.654 254.046 208.733 253.986C208.812 253.927 208.881 253.848 208.941 253.749C208.96 253.71 208.97 253.176 208.97 252.149V250.668H201.295V249.304L205.77 242.459C208.792 237.876 210.323 235.575 210.363 235.555C210.402 235.515 210.61 235.496 210.985 235.496H211.519L211.696 235.673V249.304H214.423V250.668H211.696V252.179C211.696 252.989 211.696 253.463 211.696 253.601C211.696 253.739 211.756 253.858 211.874 253.957C212.032 254.095 212.595 254.174 213.563 254.194H214.423V255.557H214.156ZM209.148 249.304V239.407L202.659 249.275L205.888 249.304H209.148Z" fill="white"/>
</g>
</g>
</g>
<g id="Group_61">
<path id="Vector_52" d="M231.375 234.726C231.375 234.363 231.571 234.084 231.962 233.888H258.66C259.08 234.112 259.289 234.391 259.289 234.726C259.289 235.034 259.093 235.299 258.702 235.523L245.374 235.565H232.046C231.599 235.425 231.375 235.146 231.375 234.726ZM231.375 242.858C231.375 242.438 231.599 242.159 232.046 242.019H258.702C259.093 242.299 259.289 242.578 259.289 242.858C259.289 243.221 259.08 243.5 258.66 243.696H231.962C231.571 243.5 231.375 243.221 231.375 242.858Z" fill="white"/>
</g>
<g id="Group_62">
<path id="Vector_53" d="M278.602 229.865C277.848 229.865 277.261 229.627 276.842 229.152C276.423 228.677 276.199 228.062 276.171 227.308C276.171 225.771 276.842 224.402 278.183 223.2C279.524 221.999 281.145 221.398 283.045 221.398C284.023 221.398 284.638 221.412 284.889 221.44C286.957 221.775 288.536 222.516 289.625 223.661C290.715 224.807 291.274 226.05 291.302 227.392C291.302 228.845 290.827 230.256 289.877 231.625C288.927 232.994 287.613 233.986 285.937 234.601L285.811 234.685C285.811 234.713 285.937 234.754 286.188 234.81C286.44 234.866 286.845 234.992 287.404 235.188C287.963 235.383 288.494 235.677 288.997 236.068C291.288 237.549 292.433 239.505 292.433 241.936C292.433 244.143 291.567 246.071 289.835 247.72C288.102 249.368 285.909 250.192 283.255 250.192C281.019 250.192 279.091 249.592 277.471 248.39C275.85 247.189 275.04 245.666 275.04 243.822C275.04 243.039 275.291 242.411 275.794 241.936C276.297 241.461 276.926 241.209 277.68 241.181C278.462 241.181 279.105 241.433 279.608 241.936C280.111 242.438 280.363 243.067 280.363 243.822C280.363 244.129 280.321 244.408 280.237 244.66C280.153 244.911 280.055 245.135 279.943 245.33C279.832 245.526 279.678 245.694 279.482 245.833C279.287 245.973 279.119 246.085 278.979 246.169C278.84 246.253 278.7 246.308 278.56 246.336C278.421 246.364 278.309 246.406 278.225 246.462L278.057 246.504C279.482 247.761 281.215 248.39 283.255 248.39C284.791 248.39 285.951 247.65 286.733 246.169C287.208 245.247 287.446 243.836 287.446 241.936V241.097C287.446 238.443 286.552 236.668 284.763 235.774C284.344 235.607 283.492 235.509 282.207 235.481L280.446 235.439L280.321 235.355C280.265 235.271 280.237 235.048 280.237 234.685C280.237 234.182 280.349 233.93 280.572 233.93C281.354 233.93 282.165 233.86 283.003 233.721C283.953 233.581 284.819 232.994 285.602 231.96C286.384 230.926 286.775 229.362 286.775 227.266V226.931C286.775 225.338 286.286 224.234 285.308 223.62C284.694 223.228 284.037 223.033 283.338 223.033C282.444 223.033 281.62 223.186 280.865 223.494C280.111 223.801 279.58 224.122 279.273 224.458C278.965 224.793 278.812 224.961 278.812 224.961H278.937C279.021 224.989 279.133 225.017 279.273 225.045C279.412 225.073 279.552 225.142 279.692 225.254C279.832 225.366 279.999 225.464 280.195 225.548C280.39 225.631 280.53 225.785 280.614 226.009C280.698 226.232 280.81 226.442 280.949 226.637C281.089 226.833 281.131 227.112 281.075 227.476C281.075 228.09 280.879 228.635 280.488 229.11C280.097 229.585 279.468 229.837 278.602 229.865Z" fill="white"/>
</g>
<g id="Group_63">
<path id="Vector_54" d="M322.913 249.27C322.41 249.186 320.608 249.144 317.506 249.144C314.265 249.144 312.393 249.186 311.89 249.27H311.513V247.342H312.812C313.371 247.342 313.748 247.342 313.944 247.342C314.139 247.342 314.377 247.314 314.656 247.258C314.935 247.202 315.131 247.132 315.243 247.049C315.355 246.965 315.452 246.853 315.536 246.713C315.564 246.657 315.578 245.903 315.578 244.45V242.354H304.723V240.426L311.052 230.744C315.327 224.262 317.492 221.007 317.548 220.979C317.604 220.923 317.897 220.895 318.428 220.895H319.183L319.434 221.146V240.426H323.29V242.354H319.434V244.492C319.434 245.638 319.434 246.308 319.434 246.504C319.434 246.699 319.518 246.867 319.686 247.007C319.909 247.202 320.705 247.314 322.075 247.342H323.29V249.27H322.913ZM315.83 240.426V226.427L306.651 240.384L311.219 240.426H315.83Z" fill="white"/>
<path id="Vector_55" d="M328.53 224.751C330.094 222.488 332.232 221.356 334.942 221.356C336.284 221.356 337.625 221.72 338.966 222.446C340.307 223.173 341.397 224.458 342.235 226.302C343.269 228.621 343.786 231.807 343.786 235.858C343.786 240.189 343.185 243.501 341.984 245.792C341.425 246.965 340.657 247.901 339.679 248.6C338.701 249.298 337.848 249.732 337.122 249.899C336.395 250.067 335.683 250.165 334.984 250.193C334.258 250.193 333.531 250.109 332.805 249.941C332.078 249.773 331.226 249.326 330.248 248.6C329.27 247.873 328.502 246.937 327.943 245.792C326.741 243.501 326.141 240.189 326.141 235.858C326.141 230.996 326.937 227.294 328.53 224.751ZM337.96 224.248C337.122 223.354 336.13 222.907 334.984 222.907C333.811 222.907 332.805 223.354 331.967 224.248C331.268 224.975 330.807 225.981 330.583 227.266C330.36 228.552 330.248 231.234 330.248 235.314C330.248 239.728 330.36 242.634 330.583 244.031C330.807 245.429 331.31 246.532 332.092 247.343C332.875 248.181 333.839 248.6 334.984 248.6C336.102 248.6 337.052 248.181 337.834 247.343C338.645 246.504 339.148 245.331 339.343 243.822C339.539 242.313 339.651 239.477 339.679 235.314C339.679 231.262 339.567 228.593 339.343 227.308C339.12 226.023 338.659 225.003 337.96 224.248Z" fill="white"/>
<path id="Vector_56" d="M349.486 224.751C351.05 222.488 353.188 221.356 355.898 221.356C357.24 221.356 358.581 221.72 359.922 222.446C361.263 223.173 362.353 224.458 363.191 226.302C364.225 228.621 364.742 231.807 364.742 235.858C364.742 240.189 364.141 243.501 362.94 245.792C362.381 246.965 361.613 247.901 360.635 248.6C359.657 249.298 358.804 249.732 358.078 249.899C357.351 250.067 356.639 250.165 355.94 250.193C355.214 250.193 354.487 250.109 353.761 249.941C353.034 249.773 352.182 249.326 351.204 248.6C350.226 247.873 349.458 246.937 348.899 245.792C347.697 243.501 347.097 240.189 347.097 235.858C347.097 230.996 347.893 227.294 349.486 224.751ZM358.916 224.248C358.078 223.354 357.086 222.907 355.94 222.907C354.767 222.907 353.761 223.354 352.923 224.248C352.224 224.975 351.763 225.981 351.539 227.266C351.316 228.552 351.204 231.234 351.204 235.314C351.204 239.728 351.316 242.634 351.539 244.031C351.763 245.429 352.266 246.532 353.048 247.343C353.831 248.181 354.795 248.6 355.94 248.6C357.058 248.6 358.008 248.181 358.79 247.343C359.601 246.504 360.104 245.331 360.299 243.822C360.495 242.313 360.607 239.477 360.635 235.314C360.635 231.262 360.523 228.593 360.299 227.308C360.076 226.023 359.615 225.003 358.916 224.248Z" fill="white"/>
</g>
</g>
</g>
</g>
</svg>
