<svg viewBox="0 0 946 342" fill="none" xmlns="http://www.w3.org/2000/svg">
<g id="0123204">
<g id="Group 51">
<g id="Group 49">
<path id="Rectangle 19 (Stroke)" fill-rule="evenodd" clip-rule="evenodd" d="M161 9.00003H7V83H161V9.00003ZM4 6.00003V86H164V6.00003H4Z" fill="white"/>
<path id="Line 16 (Stroke)" fill-rule="evenodd" clip-rule="evenodd" d="M164 10.8L8.79986 84.4L7.5144 81.6894L162.714 8.08939L164 10.8Z" fill="white"/>
<path id="Line 17 (Stroke)" fill-rule="evenodd" clip-rule="evenodd" d="M159.2 82.8L5.59999 10.8L6.87329 8.08365L160.473 80.0837L159.2 82.8Z" fill="white"/>
</g>
<path id="Polygon 1" d="M85 47L5 85V10L85 47Z" fill="#E8A1EE"/>
<path id="Polygon 2" d="M86 46.6667L163 9.00003V84L86 46.6667Z" fill="#F3C72C"/>
<path id="Polygon 3" d="M163 8.00003L86.3334 47.3334L4.66675 8.00003H163Z" fill="#E47209"/>
<path id="Polygon 4" d="M86.3334 46.6667L163.667 85H5.66675L86.3334 46.6667Z" fill="#CD08D1"/>
<path id="Polygon 5" d="M162 7.33336L163.333 85.3334L4 7.33336H162Z" fill="#2CF30B"/>
<path id="Polygon 6" d="M4.33325 7.6667L163.667 86H4.33325V7.6667Z" fill="#1941D5"/>
<path id="Polygon 11" d="M164 7.00003V86H3.5L164 7.00003Z" fill="#E47209"/>
<path id="Polygon 12" d="M4 5.50003L163 7.50003L4 85.5V5.50003Z" fill="#0E0EC3"/>
<g id="= 8">
<path d="M209.221 39.3067H192.117V36.0049H209.221V39.3067ZM209.221 47.8174H192.117V44.5362H209.221V47.8174Z" fill="white"/>
<path d="M243.059 33.9336C243.059 35.4239 242.662 36.75 241.869 37.9121C241.09 39.0742 240.03 39.9834 238.69 40.6397C240.249 41.3096 241.479 42.2871 242.382 43.5723C243.298 44.8575 243.756 46.3135 243.756 47.9405C243.756 50.5244 242.881 52.5821 241.131 54.1133C239.395 55.6446 237.104 56.4102 234.261 56.4102C231.39 56.4102 229.086 55.6446 227.35 54.1133C225.627 52.5684 224.766 50.5108 224.766 47.9405C224.766 46.3272 225.203 44.8711 226.078 43.5723C226.967 42.2735 228.19 41.2891 229.749 40.6192C228.423 39.9629 227.377 39.0537 226.611 37.8916C225.846 36.7295 225.463 35.4102 225.463 33.9336C225.463 31.418 226.27 29.4219 227.883 27.9453C229.496 26.4688 231.622 25.7305 234.261 25.7305C236.886 25.7305 239.005 26.4688 240.618 27.9453C242.245 29.4219 243.059 31.418 243.059 33.9336ZM239.962 47.8584C239.962 46.1905 239.429 44.8301 238.362 43.7774C237.31 42.7246 235.929 42.1983 234.22 42.1983C232.511 42.1983 231.137 42.7178 230.098 43.7569C229.072 44.7959 228.56 46.1631 228.56 47.8584C228.56 49.5537 229.059 50.8867 230.057 51.8575C231.068 52.8282 232.47 53.3135 234.261 53.3135C236.038 53.3135 237.433 52.8282 238.444 51.8575C239.456 50.8731 239.962 49.5401 239.962 47.8584ZM234.261 28.8477C232.771 28.8477 231.561 29.3125 230.631 30.2422C229.715 31.1582 229.257 32.4092 229.257 33.9951C229.257 35.5127 229.708 36.7432 230.61 37.6866C231.526 38.6162 232.743 39.0811 234.261 39.0811C235.778 39.0811 236.988 38.6162 237.891 37.6866C238.807 36.7432 239.265 35.5127 239.265 33.9951C239.265 32.4776 238.793 31.2403 237.85 30.2832C236.906 29.3262 235.71 28.8477 234.261 28.8477Z" fill="white"/>
</g>
</g>
<g id="Group 53">
<g id="Group 49_2">
<path id="Rectangle 19 (Stroke)_2" fill-rule="evenodd" clip-rule="evenodd" d="M162 129H8V203H162V129ZM5 126V206H165V126H5Z" fill="white"/>
<path id="Line 16 (Stroke)_2" fill-rule="evenodd" clip-rule="evenodd" d="M165 130.8L9.79986 204.4L8.5144 201.689L163.714 128.089L165 130.8Z" fill="white"/>
<path id="Line 17 (Stroke)_2" fill-rule="evenodd" clip-rule="evenodd" d="M160.2 202.8L6.59999 130.8L7.87329 128.084L161.473 200.084L160.2 202.8Z" fill="white"/>
</g>
<g id="Group 52">
<path id="Rectangle 19 (Stroke)_3" fill-rule="evenodd" clip-rule="evenodd" d="M322 129H168V203H322V129ZM165 126V206H325V126H165Z" fill="white"/>
<path id="Line 16 (Stroke)_3" fill-rule="evenodd" clip-rule="evenodd" d="M325 130.8L169.8 204.4L168.514 201.689L323.714 128.089L325 130.8Z" fill="white"/>
<path id="Line 17 (Stroke)_3" fill-rule="evenodd" clip-rule="evenodd" d="M320.2 202.8L166.6 130.8L167.873 128.084L321.473 200.084L320.2 202.8Z" fill="white"/>
</g>
<path id="8" d="M93.5898 157.934C93.5898 159.424 93.1934 160.75 92.4004 161.912C91.6211 163.074 90.5615 163.983 89.2217 164.64C90.7803 165.31 92.0107 166.287 92.9131 167.572C93.8291 168.857 94.2871 170.314 94.2871 171.94C94.2871 174.524 93.4121 176.582 91.6621 178.113C89.9258 179.645 87.6357 180.41 84.792 180.41C81.9209 180.41 79.6172 179.645 77.8809 178.113C76.1582 176.568 75.2969 174.511 75.2969 171.94C75.2969 170.327 75.7344 168.871 76.6094 167.572C77.498 166.273 78.7217 165.289 80.2803 164.619C78.9541 163.963 77.9082 163.054 77.1426 161.892C76.377 160.73 75.9941 159.41 75.9941 157.934C75.9941 155.418 76.8008 153.422 78.4141 151.945C80.0273 150.469 82.1533 149.73 84.792 149.73C87.417 149.73 89.5361 150.469 91.1494 151.945C92.7764 153.422 93.5898 155.418 93.5898 157.934ZM90.4932 171.858C90.4932 170.19 89.96 168.83 88.8936 167.777C87.8408 166.725 86.46 166.198 84.751 166.198C83.042 166.198 81.668 166.718 80.6289 167.757C79.6035 168.796 79.0908 170.163 79.0908 171.858C79.0908 173.554 79.5898 174.887 80.5879 175.857C81.5996 176.828 83.001 177.314 84.792 177.314C86.5693 177.314 87.9639 176.828 88.9756 175.857C89.9873 174.873 90.4932 173.54 90.4932 171.858ZM84.792 152.848C83.3018 152.848 82.0918 153.313 81.1621 154.242C80.2461 155.158 79.7881 156.409 79.7881 157.995C79.7881 159.513 80.2393 160.743 81.1416 161.687C82.0576 162.616 83.2744 163.081 84.792 163.081C86.3096 163.081 87.5195 162.616 88.4219 161.687C89.3379 160.743 89.7959 159.513 89.7959 157.995C89.7959 156.478 89.3242 155.24 88.3809 154.283C87.4375 153.326 86.2412 152.848 84.792 152.848Z" fill="white"/>
<path id="8_2" d="M253.59 157.934C253.59 159.424 253.193 160.75 252.4 161.912C251.621 163.074 250.562 163.983 249.222 164.64C250.78 165.31 252.011 166.287 252.913 167.572C253.829 168.857 254.287 170.314 254.287 171.94C254.287 174.524 253.412 176.582 251.662 178.113C249.926 179.645 247.636 180.41 244.792 180.41C241.921 180.41 239.617 179.645 237.881 178.113C236.158 176.568 235.297 174.511 235.297 171.94C235.297 170.327 235.734 168.871 236.609 167.572C237.498 166.273 238.722 165.289 240.28 164.619C238.954 163.963 237.908 163.054 237.143 161.892C236.377 160.73 235.994 159.41 235.994 157.934C235.994 155.418 236.801 153.422 238.414 151.945C240.027 150.469 242.153 149.73 244.792 149.73C247.417 149.73 249.536 150.469 251.149 151.945C252.776 153.422 253.59 155.418 253.59 157.934ZM250.493 171.858C250.493 170.19 249.96 168.83 248.894 167.777C247.841 166.725 246.46 166.198 244.751 166.198C243.042 166.198 241.668 166.718 240.629 167.757C239.604 168.796 239.091 170.163 239.091 171.858C239.091 173.554 239.59 174.887 240.588 175.857C241.6 176.828 243.001 177.314 244.792 177.314C246.569 177.314 247.964 176.828 248.976 175.857C249.987 174.873 250.493 173.54 250.493 171.858ZM244.792 152.848C243.302 152.848 242.092 153.313 241.162 154.242C240.246 155.158 239.788 156.409 239.788 157.995C239.788 159.513 240.239 160.743 241.142 161.687C242.058 162.616 243.274 163.081 244.792 163.081C246.31 163.081 247.52 162.616 248.422 161.687C249.338 160.743 249.796 159.513 249.796 157.995C249.796 156.478 249.324 155.24 248.381 154.283C247.438 153.326 246.241 152.848 244.792 152.848Z" fill="white"/>
<path id="Polygon 7" d="M167 126L320 200L4 205.5L167 126Z" fill="#199FD5"/>
<path id="Polygon 8" d="M6 127H329L164 207L6 127Z" fill="#0E0EC3"/>
<g id="= 18">
<path d="M363.221 163.307H346.117V160.005H363.221V163.307ZM363.221 171.817H346.117V168.536H363.221V171.817Z" fill="white"/>
<path d="M391.419 180H387.604V154.714L379.955 157.523V154.078L390.824 149.997H391.419V180Z" fill="white"/>
<path d="M420.643 157.934C420.643 159.424 420.246 160.75 419.453 161.912C418.674 163.074 417.614 163.983 416.274 164.64C417.833 165.31 419.063 166.287 419.966 167.572C420.882 168.857 421.34 170.314 421.34 171.94C421.34 174.524 420.465 176.582 418.715 178.113C416.979 179.645 414.688 180.41 411.845 180.41C408.974 180.41 406.67 179.645 404.934 178.113C403.211 176.568 402.35 174.511 402.35 171.94C402.35 170.327 402.787 168.871 403.662 167.572C404.551 166.273 405.774 165.289 407.333 164.619C406.007 163.963 404.961 163.054 404.195 161.892C403.43 160.73 403.047 159.41 403.047 157.934C403.047 155.418 403.854 153.422 405.467 151.945C407.08 150.469 409.206 149.73 411.845 149.73C414.47 149.73 416.589 150.469 418.202 151.945C419.829 153.422 420.643 155.418 420.643 157.934ZM417.546 171.858C417.546 170.19 417.013 168.83 415.946 167.777C414.894 166.725 413.513 166.198 411.804 166.198C410.095 166.198 408.721 166.718 407.682 167.757C406.656 168.796 406.144 170.163 406.144 171.858C406.144 173.554 406.643 174.887 407.641 175.857C408.652 176.828 410.054 177.314 411.845 177.314C413.622 177.314 415.017 176.828 416.028 175.857C417.04 174.873 417.546 173.54 417.546 171.858ZM411.845 152.848C410.354 152.848 409.145 153.313 408.215 154.242C407.299 155.158 406.841 156.409 406.841 157.995C406.841 159.513 407.292 160.743 408.194 161.687C409.11 162.616 410.327 163.081 411.845 163.081C413.362 163.081 414.572 162.616 415.475 161.687C416.391 160.743 416.849 159.513 416.849 157.995C416.849 156.478 416.377 155.24 415.434 154.283C414.49 153.326 413.294 152.848 411.845 152.848Z" fill="white"/>
</g>
</g>
<g id="Group 56">
<g id="Group 49_3">
<path id="Rectangle 19 (Stroke)_4" fill-rule="evenodd" clip-rule="evenodd" d="M157 265H3V339H157V265ZM0 262V342H160V262H0Z" fill="white"/>
<path id="Line 16 (Stroke)_4" fill-rule="evenodd" clip-rule="evenodd" d="M160 266.8L4.79986 340.4L3.5144 337.689L158.714 264.089L160 266.8Z" fill="white"/>
<path id="Line 17 (Stroke)_4" fill-rule="evenodd" clip-rule="evenodd" d="M155.2 338.8L1.59999 266.8L2.87329 264.084L156.473 336.084L155.2 338.8Z" fill="white"/>
</g>
<g id="Group 54">
<path id="Rectangle 19 (Stroke)_5" fill-rule="evenodd" clip-rule="evenodd" d="M316 265H162V339H316V265ZM159 262V342H319V262H159Z" fill="white"/>
<path id="Line 16 (Stroke)_5" fill-rule="evenodd" clip-rule="evenodd" d="M319 266.8L163.8 340.4L162.514 337.689L317.714 264.089L319 266.8Z" fill="white"/>
<path id="Line 17 (Stroke)_5" fill-rule="evenodd" clip-rule="evenodd" d="M314.2 338.8L160.6 266.8L161.873 264.084L315.473 336.084L314.2 338.8Z" fill="white"/>
</g>
<g id="Group 55">
<path id="Rectangle 19 (Stroke)_6" fill-rule="evenodd" clip-rule="evenodd" d="M471 265H317V339H471V265ZM314 262V342H474V262H314Z" fill="white"/>
<path id="Line 16 (Stroke)_6" fill-rule="evenodd" clip-rule="evenodd" d="M474 266.8L318.8 340.4L317.514 337.689L472.714 264.089L474 266.8Z" fill="white"/>
<path id="Line 17 (Stroke)_6" fill-rule="evenodd" clip-rule="evenodd" d="M469.2 338.8L315.6 266.8L316.873 264.084L470.473 336.084L469.2 338.8Z" fill="white"/>
</g>
<g id="18">
<path d="M151.95 316H148.136V290.714L140.486 293.523V290.078L151.355 285.997H151.95V316Z" fill="white"/>
<path d="M181.174 293.934C181.174 295.424 180.777 296.75 179.984 297.912C179.205 299.074 178.146 299.983 176.806 300.64C178.364 301.31 179.595 302.287 180.497 303.572C181.413 304.857 181.871 306.314 181.871 307.94C181.871 310.524 180.996 312.582 179.246 314.113C177.51 315.645 175.22 316.41 172.376 316.41C169.505 316.41 167.201 315.645 165.465 314.113C163.742 312.568 162.881 310.511 162.881 307.94C162.881 306.327 163.318 304.871 164.193 303.572C165.082 302.273 166.306 301.289 167.864 300.619C166.538 299.963 165.492 299.054 164.727 297.892C163.961 296.73 163.578 295.41 163.578 293.934C163.578 291.418 164.385 289.422 165.998 287.945C167.611 286.469 169.737 285.73 172.376 285.73C175.001 285.73 177.12 286.469 178.733 287.945C180.36 289.422 181.174 291.418 181.174 293.934ZM178.077 307.858C178.077 306.19 177.544 304.83 176.478 303.777C175.425 302.725 174.044 302.198 172.335 302.198C170.626 302.198 169.252 302.718 168.213 303.757C167.188 304.796 166.675 306.163 166.675 307.858C166.675 309.554 167.174 310.887 168.172 311.857C169.184 312.828 170.585 313.314 172.376 313.314C174.153 313.314 175.548 312.828 176.56 311.857C177.571 310.873 178.077 309.54 178.077 307.858ZM172.376 288.848C170.886 288.848 169.676 289.313 168.746 290.242C167.83 291.158 167.372 292.409 167.372 293.995C167.372 295.513 167.823 296.743 168.726 297.687C169.642 298.616 170.858 299.081 172.376 299.081C173.894 299.081 175.104 298.616 176.006 297.687C176.922 296.743 177.38 295.513 177.38 293.995C177.38 292.478 176.908 291.24 175.965 290.283C175.021 289.326 173.825 288.848 172.376 288.848Z" fill="white"/>
</g>
<path id="8_3" d="M399.788 287.12V290.34H399.091C396.138 290.395 393.786 291.27 392.036 292.965C390.286 294.66 389.274 297.046 389.001 300.122C390.573 298.317 392.72 297.415 395.44 297.415C398.038 297.415 400.109 298.331 401.654 300.163C403.213 301.995 403.992 304.36 403.992 307.259C403.992 310.335 403.151 312.796 401.47 314.642C399.802 316.487 397.56 317.41 394.743 317.41C391.886 317.41 389.568 316.316 387.791 314.129C386.014 311.928 385.125 309.098 385.125 305.639V304.183C385.125 298.687 386.294 294.489 388.632 291.591C390.983 288.679 394.477 287.189 399.111 287.12H399.788ZM394.805 300.573C393.506 300.573 392.31 300.963 391.216 301.742C390.122 302.522 389.363 303.499 388.939 304.675V306.069C388.939 308.53 389.493 310.513 390.601 312.017C391.708 313.521 393.089 314.272 394.743 314.272C396.452 314.272 397.792 313.644 398.763 312.386C399.747 311.128 400.239 309.48 400.239 307.443C400.239 305.393 399.74 303.738 398.742 302.48C397.758 301.209 396.445 300.573 394.805 300.573Z" fill="white"/>
<path id="Polygon 9" d="M469 264L316 338L161 264H469Z" fill="#8808A8"/>
<path id="Polygon 10" d="M315 262L475 341H159L315 262Z" fill="#F3C72C"/>
<g id="= 28">
<path d="M516.221 301.307H499.117V298.005H516.221V301.307ZM516.221 309.817H499.117V306.536H516.221V309.817Z" fill="white"/>
<path d="M551.515 318H531.95V315.272L542.286 303.788C543.817 302.052 544.87 300.644 545.444 299.564C546.032 298.47 546.326 297.342 546.326 296.18C546.326 294.621 545.854 293.343 544.911 292.345C543.968 291.347 542.71 290.848 541.138 290.848C539.251 290.848 537.781 291.388 536.729 292.468C535.689 293.534 535.17 295.024 535.17 296.939H531.376C531.376 294.19 532.258 291.969 534.021 290.273C535.799 288.578 538.171 287.73 541.138 287.73C543.913 287.73 546.107 288.462 547.721 289.925C549.334 291.374 550.141 293.309 550.141 295.729C550.141 298.668 548.268 302.168 544.521 306.229L536.523 314.903H551.515V318Z" fill="white"/>
<path d="M573.643 295.934C573.643 297.424 573.246 298.75 572.453 299.912C571.674 301.074 570.614 301.983 569.274 302.64C570.833 303.31 572.063 304.287 572.966 305.572C573.882 306.857 574.34 308.314 574.34 309.94C574.34 312.524 573.465 314.582 571.715 316.113C569.979 317.645 567.688 318.41 564.845 318.41C561.974 318.41 559.67 317.645 557.934 316.113C556.211 314.568 555.35 312.511 555.35 309.94C555.35 308.327 555.787 306.871 556.662 305.572C557.551 304.273 558.774 303.289 560.333 302.619C559.007 301.963 557.961 301.054 557.195 299.892C556.43 298.73 556.047 297.41 556.047 295.934C556.047 293.418 556.854 291.422 558.467 289.945C560.08 288.469 562.206 287.73 564.845 287.73C567.47 287.73 569.589 288.469 571.202 289.945C572.829 291.422 573.643 293.418 573.643 295.934ZM570.546 309.858C570.546 308.19 570.013 306.83 568.946 305.777C567.894 304.725 566.513 304.198 564.804 304.198C563.095 304.198 561.721 304.718 560.682 305.757C559.656 306.796 559.144 308.163 559.144 309.858C559.144 311.554 559.643 312.887 560.641 313.857C561.652 314.828 563.054 315.314 564.845 315.314C566.622 315.314 568.017 314.828 569.028 313.857C570.04 312.873 570.546 311.54 570.546 309.858ZM564.845 290.848C563.354 290.848 562.145 291.313 561.215 292.242C560.299 293.158 559.841 294.409 559.841 295.995C559.841 297.513 560.292 298.743 561.194 299.687C562.11 300.616 563.327 301.081 564.845 301.081C566.362 301.081 567.572 300.616 568.475 299.687C569.391 298.743 569.849 297.513 569.849 295.995C569.849 294.478 569.377 293.24 568.434 292.283C567.49 291.326 566.294 290.848 564.845 290.848Z" fill="white"/>
</g>
</g>
<g id="8;\;\;18;\;\;28\;&#10;+10\;+10\;">
<g id="Group">
<g id="Group 58">
<g id="Group 60">
<g id="Group_2">
<path id="Vector" d="M563.256 11.5815C563.256 11.5815 563.256 10.3877 563.256 8.00012C563.256 5.61253 564.093 3.69004 565.767 2.23268C567.442 0.775316 569.364 0.0311298 571.535 0.00012207C573.736 0.00012207 575.69 0.651285 577.395 1.95361C579.101 3.25594 579.953 4.94586 579.953 7.02338C579.953 7.95361 579.783 8.82183 579.442 9.62803C579.101 10.4342 578.698 11.0854 578.233 11.5815C577.767 12.0776 577.287 12.5117 576.791 12.8838C576.295 13.2559 575.891 13.535 575.581 13.7211C575.271 13.9071 575.101 14.0311 575.07 14.0931L575.721 14.5117C576.155 14.8218 576.589 15.1319 577.023 15.442C577.457 15.7521 577.705 15.9226 577.767 15.9536C580.093 17.7831 581.256 20.0931 581.256 22.8838C581.256 25.3335 580.357 27.4575 578.558 29.2559C576.76 31.0544 574.434 31.9691 571.581 32.0001C568.791 32.0001 566.496 31.2094 564.698 29.628C562.899 28.0466 562 26.0931 562 23.7676C562 20.4187 564 17.628 568 15.3955L567.163 14.7908C566.512 14.3877 566.093 14.0776 565.907 13.8606C564.14 12.3412 563.256 10.3877 563.256 8.00012V11.5815ZM573.302 13.0234L573.581 12.8373C573.767 12.7133 573.907 12.6203 574 12.5583C574.093 12.4962 574.248 12.3877 574.465 12.2327C574.682 12.0776 574.868 11.9226 575.023 11.7676C575.178 11.6125 575.349 11.4265 575.535 11.2094C575.721 10.9924 575.891 10.7908 576.047 10.6048C576.202 10.4187 576.357 10.1707 576.512 9.86059C576.667 9.55051 576.806 9.28694 576.93 9.06989C577.054 8.85283 577.132 8.54276 577.163 8.13966C577.194 7.73656 577.225 7.39547 577.256 7.1164C577.256 5.78307 576.806 4.65129 575.907 3.72105C575.008 2.79082 573.969 2.20167 572.791 1.95361C572.574 1.9226 572.062 1.9071 571.256 1.9071C569.984 1.9071 568.791 2.3102 567.674 3.1164C566.558 3.9226 565.984 4.93036 565.953 6.13966C565.953 6.85283 566.155 7.504 566.558 8.09315C566.961 8.68229 567.364 9.1319 567.767 9.44198C568.171 9.75206 568.946 10.2482 570.093 10.9304C570.31 11.0854 570.481 11.1939 570.605 11.2559L573.302 13.0234ZM571.628 30.0001C573.426 30.0001 574.977 29.473 576.279 28.4187C577.581 27.3645 578.233 26.0931 578.233 24.6048C578.233 24.0776 578.155 23.5815 578 23.1164C577.845 22.6513 577.659 22.2637 577.442 21.9536C577.225 21.6435 576.884 21.3024 576.419 20.9304C575.953 20.5583 575.597 20.2792 575.349 20.0931C575.101 19.9071 574.651 19.6125 574 19.2094C573.349 18.8063 572.93 18.5428 572.744 18.4187C572.31 18.1397 571.845 17.8451 571.349 17.535C570.853 17.2249 570.45 16.9614 570.14 16.7443L569.767 16.5118C569.581 16.5118 569.132 16.7753 568.419 17.3024C567.705 17.8296 566.961 18.6823 566.186 19.8606C565.411 21.0389 565.008 22.3102 564.977 23.6745C564.977 25.504 565.643 27.0079 566.977 28.1862C568.31 29.3645 569.86 29.9691 571.628 30.0001Z" fill="white"/>
</g>
<g id="Group_3">
<path id="Vector_2" d="M586.884 13.7676C586.884 13.0234 587.147 12.3722 587.674 11.8141C588.202 11.2559 588.868 10.9769 589.674 10.9769C590.419 10.9769 591.07 11.2249 591.628 11.7211C592.186 12.2172 592.481 12.8838 592.512 13.7211C592.512 14.4962 592.248 15.1629 591.721 15.7211C591.194 16.2792 590.527 16.5583 589.721 16.5583C588.915 16.5583 588.248 16.2947 587.721 15.7676C587.194 15.2404 586.915 14.5738 586.884 13.7676ZM586.884 28.1862C586.884 27.411 587.132 26.7443 587.628 26.1862C588.124 25.628 588.791 25.349 589.628 25.349C591.643 25.349 592.651 27.1009 592.651 30.6048C592.651 32.2172 592.357 33.7986 591.768 35.349C591.178 36.8993 590.574 38.0621 589.954 38.8373C589.333 39.6125 588.93 40.0001 588.744 40.0001C588.651 40.0001 588.465 39.8761 588.186 39.628C587.907 39.38 587.737 39.1939 587.674 39.0699C587.643 38.9769 587.83 38.6823 588.233 38.1862C588.636 37.69 589.101 36.9459 589.628 35.9536C590.155 34.9614 590.512 33.8916 590.698 32.7443C590.729 32.5583 590.76 32.3102 590.791 32.0001C590.822 31.69 590.868 31.411 590.93 31.1629C590.992 30.9149 590.992 30.7908 590.93 30.7908C590.93 30.7598 590.868 30.7598 590.744 30.7908C590.62 30.8218 590.326 30.8838 589.861 30.9769C588.868 30.9769 588.124 30.6978 587.628 30.1397C587.132 29.5815 586.884 28.9304 586.884 28.1862Z" fill="white"/>
</g>
</g>
<g id="Group 59">
<g id="Group_4">
<path id="Vector_3" d="M679.047 4.09315L678.442 4.3257C678.008 4.48074 677.388 4.63578 676.581 4.79082C675.775 4.94586 674.876 5.05438 673.884 5.1164H673V2.97687H673.884C675.341 2.91485 676.69 2.68229 677.93 2.27919C679.171 1.87609 680.039 1.504 680.535 1.16291C681.031 0.821827 681.465 0.480742 681.837 0.139656C681.899 0.0466328 682.085 0.00012207 682.395 0.00012207C682.674 0.00012207 682.938 0.0931435 683.186 0.27919V14.1862L683.233 28.1397C683.45 28.3567 683.636 28.4962 683.791 28.5583C683.946 28.6203 684.318 28.6823 684.907 28.7443C685.496 28.8063 686.457 28.8373 687.791 28.8373H689V30.9769H688.488C687.837 30.8838 685.372 30.8373 681.093 30.8373C676.876 30.8373 674.442 30.8838 673.791 30.9769H673.233V28.8373H674.442C675.124 28.8373 675.713 28.8373 676.209 28.8373C676.705 28.8373 677.093 28.8218 677.372 28.7908C677.651 28.7598 677.899 28.7133 678.116 28.6513C678.333 28.5893 678.457 28.5583 678.488 28.5583C678.519 28.5583 678.612 28.4807 678.767 28.3257C678.922 28.1707 679.016 28.1087 679.047 28.1397V4.09315Z" fill="white"/>
<path id="Vector_4" d="M695.651 11.5815C695.651 11.5815 695.651 10.3877 695.651 8.00012C695.651 5.61253 696.488 3.69004 698.162 2.23268C699.837 0.775316 701.759 0.0311298 703.93 0.00012207C706.131 0.00012207 708.085 0.651285 709.79 1.95361C711.496 3.25594 712.349 4.94586 712.349 7.02338C712.349 7.95361 712.178 8.82183 711.837 9.62803C711.496 10.4342 711.093 11.0854 710.628 11.5815C710.162 12.0776 709.682 12.5117 709.186 12.8838C708.69 13.2559 708.286 13.535 707.976 13.7211C707.666 13.9071 707.496 14.0311 707.465 14.0931L708.116 14.5117C708.55 14.8218 708.984 15.1319 709.418 15.442C709.852 15.7521 710.1 15.9226 710.162 15.9536C712.488 17.7831 713.651 20.0931 713.651 22.8838C713.651 25.3335 712.752 27.4575 710.953 29.2559C709.155 31.0544 706.829 31.9691 703.976 32.0001C701.186 32.0001 698.891 31.2094 697.093 29.628C695.294 28.0466 694.395 26.0931 694.395 23.7676C694.395 20.4187 696.395 17.628 700.395 15.3955L699.558 14.7908C698.907 14.3877 698.488 14.0776 698.302 13.8606C696.535 12.3412 695.651 10.3877 695.651 8.00012V11.5815ZM705.697 13.0234L705.976 12.8373C706.162 12.7133 706.302 12.6203 706.395 12.5583C706.488 12.4962 706.643 12.3877 706.86 12.2327C707.077 12.0776 707.263 11.9226 707.418 11.7676C707.573 11.6125 707.744 11.4265 707.93 11.2094C708.116 10.9924 708.286 10.7908 708.442 10.6048C708.597 10.4187 708.752 10.1707 708.907 9.86059C709.062 9.55051 709.201 9.28694 709.325 9.06989C709.449 8.85283 709.527 8.54276 709.558 8.13966C709.589 7.73656 709.62 7.39547 709.651 7.1164C709.651 5.78307 709.201 4.65129 708.302 3.72105C707.403 2.79082 706.364 2.20167 705.186 1.95361C704.969 1.9226 704.457 1.9071 703.651 1.9071C702.38 1.9071 701.186 2.3102 700.069 3.1164C698.953 3.9226 698.38 4.93036 698.349 6.13966C698.349 6.85283 698.55 7.504 698.953 8.09315C699.356 8.68229 699.759 9.1319 700.162 9.44198C700.566 9.75206 701.341 10.2482 702.488 10.9304C702.705 11.0854 702.876 11.1939 703 11.2559L705.697 13.0234ZM704.023 30.0001C705.821 30.0001 707.372 29.473 708.674 28.4187C709.976 27.3645 710.628 26.0931 710.628 24.6048C710.628 24.0776 710.55 23.5815 710.395 23.1164C710.24 22.6513 710.054 22.2637 709.837 21.9536C709.62 21.6435 709.279 21.3024 708.814 20.9304C708.349 20.5583 707.992 20.2792 707.744 20.0931C707.496 19.9071 707.046 19.6125 706.395 19.2094C705.744 18.8063 705.325 18.5428 705.139 18.4187C704.705 18.1397 704.24 17.8451 703.744 17.535C703.248 17.2249 702.845 16.9614 702.535 16.7443L702.162 16.5118C701.976 16.5118 701.527 16.7753 700.814 17.3024C700.1 17.8296 699.356 18.6823 698.581 19.8606C697.806 21.0389 697.403 22.3102 697.372 23.6745C697.372 25.504 698.038 27.0079 699.372 28.1862C700.705 29.3645 702.255 29.9691 704.023 30.0001Z" fill="white"/>
</g>
<g id="Group_5">
<path id="Vector_5" d="M719.279 13.7676C719.279 13.0234 719.542 12.3722 720.07 11.8141C720.597 11.2559 721.263 10.9769 722.07 10.9769C722.814 10.9769 723.465 11.2249 724.023 11.7211C724.581 12.2172 724.876 12.8838 724.907 13.7211C724.907 14.4962 724.643 15.1629 724.116 15.7211C723.589 16.2792 722.922 16.5583 722.116 16.5583C721.31 16.5583 720.643 16.2947 720.116 15.7676C719.589 15.2404 719.31 14.5738 719.279 13.7676ZM719.279 28.1862C719.279 27.411 719.527 26.7443 720.023 26.1862C720.519 25.628 721.186 25.349 722.023 25.349C724.038 25.349 725.046 27.1009 725.046 30.6048C725.046 32.2172 724.752 33.7986 724.163 35.349C723.573 36.8993 722.969 38.0621 722.349 38.8373C721.728 39.6125 721.325 40.0001 721.139 40.0001C721.046 40.0001 720.86 39.8761 720.581 39.628C720.302 39.38 720.132 39.1939 720.07 39.0699C720.038 38.9769 720.225 38.6823 720.628 38.1862C721.031 37.69 721.496 36.9459 722.023 35.9536C722.55 34.9614 722.907 33.8916 723.093 32.7443C723.124 32.5583 723.155 32.3102 723.186 32.0001C723.217 31.69 723.263 31.411 723.325 31.1629C723.387 30.9149 723.387 30.7908 723.325 30.7908C723.325 30.7598 723.263 30.7598 723.139 30.7908C723.015 30.8218 722.721 30.8838 722.256 30.9769C721.263 30.9769 720.519 30.6978 720.023 30.1397C719.527 29.5815 719.279 28.9304 719.279 28.1862Z" fill="white"/>
</g>
</g>
<g id="Group_6">
<path id="Vector_6" d="M807.744 11.0234C806.907 11.0234 806.24 10.7443 805.744 10.1862C805.248 9.62803 805 8.94586 805 8.13966C805 5.93811 805.822 4.03113 807.465 2.41873C809.109 0.806322 811.155 0.00012207 813.605 0.00012207C816.426 0.00012207 818.783 0.868338 820.674 2.60477C822.566 4.34121 823.527 6.58927 823.558 9.34896C823.558 10.6823 823.248 11.9536 822.628 13.1629C822.008 14.3722 821.264 15.4265 820.395 16.3257C819.527 17.2249 818.287 18.3722 816.674 19.7676C815.558 20.7288 814.008 22.1552 812.023 24.0466L809.279 26.6513L812.814 26.6978C817.682 26.6978 820.271 26.6203 820.581 26.4652C820.798 26.4032 821.171 25.0234 821.698 22.3257V22.1862H823.558V22.3257C823.527 22.4187 823.326 23.8296 822.953 26.5583C822.581 29.2869 822.349 30.7133 822.256 30.8373V30.9769H805V30.0931V29.535C805 29.318 805.093 29.0854 805.279 28.8373C805.465 28.5893 805.93 28.0466 806.674 27.2094C807.574 26.2172 808.349 25.349 809 24.6048C809.279 24.2947 809.806 23.7211 810.581 22.8838C811.357 22.0466 811.884 21.473 812.163 21.1629C812.442 20.8528 812.891 20.3412 813.512 19.628C814.132 18.9149 814.566 18.3877 814.814 18.0466C815.062 17.7055 815.419 17.2404 815.884 16.6513C816.349 16.0621 816.674 15.566 816.86 15.1629C817.047 14.7598 817.279 14.3102 817.558 13.8141C817.837 13.318 818.039 12.8218 818.163 12.3257C818.287 11.8296 818.395 11.3645 818.488 10.9304C818.581 10.4962 818.628 9.98462 818.628 9.39547C818.628 7.44198 818.101 5.75206 817.047 4.3257C815.992 2.89935 814.488 2.18617 812.535 2.18617C811.512 2.18617 810.612 2.44973 809.837 2.97687C809.062 3.504 808.519 4.01562 808.209 4.51175C807.899 5.00787 807.744 5.30245 807.744 5.39547C807.744 5.42648 807.822 5.44198 807.977 5.44198C808.535 5.44198 809.109 5.65904 809.698 6.09315C810.287 6.52725 810.581 7.24043 810.581 8.23268C810.581 9.00787 810.333 9.65904 809.837 10.1862C809.341 10.7133 808.643 10.9924 807.744 11.0234Z" fill="white"/>
<path id="Vector_7" d="M829.186 11.5815C829.186 11.5815 829.186 10.3877 829.186 8.00012C829.186 5.61253 830.023 3.69004 831.698 2.23268C833.372 0.775316 835.295 0.0311298 837.465 0.00012207C839.667 0.00012207 841.62 0.651285 843.326 1.95361C845.031 3.25594 845.884 4.94586 845.884 7.02338C845.884 7.95361 845.713 8.82183 845.372 9.62803C845.031 10.4342 844.628 11.0854 844.163 11.5815C843.698 12.0776 843.217 12.5117 842.721 12.8838C842.225 13.2559 841.822 13.535 841.512 13.7211C841.202 13.9071 841.031 14.0311 841 14.0931L841.651 14.5117C842.085 14.8218 842.52 15.1319 842.954 15.442C843.388 15.7521 843.636 15.9226 843.698 15.9536C846.023 17.7831 847.186 20.0931 847.186 22.8838C847.186 25.3335 846.287 27.4575 844.489 29.2559C842.69 31.0544 840.365 31.9691 837.512 32.0001C834.721 32.0001 832.427 31.2094 830.628 29.628C828.83 28.0466 827.93 26.0931 827.93 23.7676C827.93 20.4187 829.93 17.628 833.93 15.3955L833.093 14.7908C832.442 14.3877 832.023 14.0776 831.837 13.8606C830.07 12.3412 829.186 10.3877 829.186 8.00012V11.5815ZM839.233 13.0234L839.512 12.8373C839.698 12.7133 839.837 12.6203 839.93 12.5583C840.023 12.4962 840.178 12.3877 840.396 12.2327C840.613 12.0776 840.799 11.9226 840.954 11.7676C841.109 11.6125 841.279 11.4265 841.465 11.2094C841.651 10.9924 841.822 10.7908 841.977 10.6048C842.132 10.4187 842.287 10.1707 842.442 9.86059C842.597 9.55051 842.737 9.28694 842.861 9.06989C842.985 8.85283 843.062 8.54276 843.093 8.13966C843.124 7.73656 843.155 7.39547 843.186 7.1164C843.186 5.78307 842.737 4.65129 841.837 3.72105C840.938 2.79082 839.899 2.20167 838.721 1.95361C838.504 1.9226 837.992 1.9071 837.186 1.9071C835.915 1.9071 834.721 2.3102 833.605 3.1164C832.489 3.9226 831.915 4.93036 831.884 6.13966C831.884 6.85283 832.085 7.504 832.489 8.09315C832.892 8.68229 833.295 9.1319 833.698 9.44198C834.101 9.75206 834.876 10.2482 836.023 10.9304C836.24 11.0854 836.411 11.1939 836.535 11.2559L839.233 13.0234ZM837.558 30.0001C839.357 30.0001 840.907 29.473 842.209 28.4187C843.512 27.3645 844.163 26.0931 844.163 24.6048C844.163 24.0776 844.085 23.5815 843.93 23.1164C843.775 22.6513 843.589 22.2637 843.372 21.9536C843.155 21.6435 842.814 21.3024 842.349 20.9304C841.884 20.5583 841.527 20.2792 841.279 20.0931C841.031 19.9071 840.582 19.6125 839.93 19.2094C839.279 18.8063 838.861 18.5428 838.675 18.4187C838.24 18.1397 837.775 17.8451 837.279 17.535C836.783 17.2249 836.38 16.9614 836.07 16.7443L835.698 16.5118C835.512 16.5118 835.062 16.7753 834.349 17.3024C833.636 17.8296 832.892 18.6823 832.116 19.8606C831.341 21.0389 830.938 22.3102 830.907 23.6745C830.907 25.504 831.574 27.0079 832.907 28.1862C834.24 29.3645 835.791 29.9691 837.558 30.0001Z" fill="white"/>
</g>
</g>
<path id="Arrow 1 (Stroke)" fill-rule="evenodd" clip-rule="evenodd" d="M687.407 39.554C688.206 39.7744 688.675 40.6003 688.455 41.3989L684.864 54.4128C684.644 55.2114 683.818 55.6802 683.019 55.4599C682.221 55.2395 681.752 54.4136 681.972 53.615L684.606 44.0677C664.182 55.3868 647.562 61.7735 630.535 62.1074C612.623 62.4587 594.493 56.1107 571.225 42.2897L572.757 39.7104C595.815 53.4064 613.371 59.4434 630.476 59.108C646.758 58.7887 662.841 52.6934 683.094 41.476L673.596 38.8558C672.797 38.6355 672.328 37.8095 672.549 37.0109C672.769 36.2123 673.595 35.7435 674.394 35.9638L687.407 39.554Z" fill="#E79720"/>
<path id="Arrow 2 (Stroke)" fill-rule="evenodd" clip-rule="evenodd" d="M817.416 39.554C818.215 39.7744 818.684 40.6003 818.463 41.3989L814.873 54.4128C814.653 55.2114 813.827 55.6802 813.028 55.4599C812.23 55.2395 811.761 54.4136 811.981 53.615L814.615 44.0677C794.191 55.3868 777.571 61.7735 760.544 62.1074C742.632 62.4587 724.502 56.1107 701.234 42.2897L702.766 39.7104C725.824 53.4064 743.38 59.4434 760.485 59.108C776.767 58.7887 792.85 52.6934 813.102 41.476L803.605 38.8558C802.806 38.6355 802.337 37.8095 802.557 37.0109C802.778 36.2123 803.604 35.7435 804.402 35.9638L817.416 39.554Z" fill="#E79720"/>
<g id="Group 57">
<g id="Group 61">
<g id="Group_7">
<path id="Vector_8" d="M595 100.093C595 100.093 595 99.8915 595 99.4884C595 99.0853 595.217 98.7752 595.651 98.5582H609.558V91.5814L609.605 84.6047C609.915 84.2016 610.209 84 610.488 84C610.891 84 611.202 84.2326 611.419 84.6977V98.5582H625.279C625.744 98.8062 625.977 99.1163 625.977 99.4884C625.977 99.8605 625.744 100.171 625.279 100.419H611.419V114.279C611.171 114.713 610.891 114.93 610.581 114.93H610.488H610.395C610.023 114.93 609.744 114.713 609.558 114.279V100.419H595.651C595.217 100.202 595 99.8915 595 99.4884V100.093Z" fill="white"/>
</g>
<g id="Group_8">
<path id="Vector_9" d="M631.828 84.0931L631.223 84.3256C630.789 84.4806 630.169 84.6357 629.363 84.7907C628.557 84.9458 627.657 85.0543 626.665 85.1163H625.781V82.9768H626.665C628.123 82.9148 629.471 82.6822 630.712 82.2791C631.952 81.876 632.82 81.5039 633.316 81.1628C633.813 80.8217 634.247 80.4806 634.619 80.1396C634.681 80.0465 634.867 80 635.177 80C635.456 80 635.719 80.0931 635.968 80.2791V94.1861L636.014 108.14C636.231 108.357 636.417 108.496 636.572 108.558C636.727 108.62 637.099 108.682 637.688 108.744C638.278 108.806 639.239 108.837 640.572 108.837H641.781V110.977H641.27C640.619 110.884 638.154 110.837 633.875 110.837C629.657 110.837 627.223 110.884 626.572 110.977H626.014V108.837H627.223C627.906 108.837 628.495 108.837 628.991 108.837C629.487 108.837 629.875 108.822 630.154 108.791C630.433 108.76 630.681 108.713 630.898 108.651C631.115 108.589 631.239 108.558 631.27 108.558C631.301 108.558 631.394 108.481 631.549 108.326C631.704 108.171 631.797 108.109 631.828 108.14V84.0931Z" fill="white"/>
<path id="Vector_10" d="M649.642 83.7675C651.378 81.2558 653.75 80 656.758 80C658.246 80 659.735 80.4031 661.223 81.2093C662.711 82.0155 663.921 83.4419 664.851 85.4884C665.998 88.062 666.572 91.5969 666.572 96.0931C666.572 100.899 665.905 104.574 664.572 107.116C663.952 108.419 663.099 109.457 662.014 110.233C660.928 111.008 659.983 111.488 659.177 111.674C658.37 111.86 657.58 111.969 656.804 112C655.998 112 655.192 111.907 654.386 111.721C653.58 111.535 652.634 111.039 651.549 110.233C650.463 109.426 649.611 108.388 648.99 107.116C647.657 104.574 646.99 100.899 646.99 96.0931C646.99 90.6977 647.874 86.5892 649.642 83.7675ZM660.107 83.2093C659.177 82.2171 658.076 81.721 656.804 81.721C655.502 81.721 654.386 82.2171 653.456 83.2093C652.68 84.0155 652.169 85.1318 651.921 86.5582C651.673 87.9845 651.549 90.9613 651.549 95.4884C651.549 100.388 651.673 103.612 651.921 105.163C652.169 106.713 652.727 107.938 653.595 108.837C654.463 109.767 655.533 110.233 656.804 110.233C658.045 110.233 659.099 109.767 659.967 108.837C660.866 107.907 661.425 106.605 661.642 104.93C661.859 103.256 661.983 100.109 662.014 95.4884C662.014 90.9923 661.89 88.031 661.642 86.6047C661.394 85.1783 660.882 84.0465 660.107 83.2093Z" fill="white"/>
</g>
</g>
<g id="Group 62">
<g id="Group_9">
<path id="Vector_11" d="M733 96.0931C733 96.0931 733 95.8915 733 95.4884C733 95.0853 733.217 94.7752 733.651 94.5582H747.558V87.5814L747.605 80.6047C747.915 80.2016 748.209 80 748.488 80C748.891 80 749.202 80.2326 749.419 80.6977V94.5582H763.279C763.744 94.8062 763.977 95.1163 763.977 95.4884C763.977 95.8605 763.744 96.1706 763.279 96.4186H749.419V110.279C749.171 110.713 748.891 110.93 748.581 110.93H748.488H748.395C748.023 110.93 747.744 110.713 747.558 110.279V96.4186H733.651C733.217 96.2016 733 95.8915 733 95.4884V96.0931Z" fill="white"/>
</g>
<g id="Group_10">
<path id="Vector_12" d="M770.117 80.0931L769.512 80.3256C769.078 80.4806 768.458 80.6357 767.651 80.7907C766.845 80.9458 765.946 81.0543 764.954 81.1163H764.07V78.9768H764.954C766.411 78.9148 767.76 78.6822 769 78.2791C770.241 77.876 771.109 77.5039 771.605 77.1628C772.101 76.8217 772.535 76.4806 772.907 76.1396C772.969 76.0465 773.155 76 773.465 76C773.744 76 774.008 76.0931 774.256 76.2791V90.1861L774.303 104.14C774.52 104.357 774.706 104.496 774.861 104.558C775.016 104.62 775.388 104.682 775.977 104.744C776.566 104.806 777.527 104.837 778.861 104.837H780.07V106.977H779.558C778.907 106.884 776.442 106.837 772.163 106.837C767.946 106.837 765.512 106.884 764.861 106.977H764.303V104.837H765.512C766.194 104.837 766.783 104.837 767.279 104.837C767.775 104.837 768.163 104.822 768.442 104.791C768.721 104.76 768.969 104.713 769.186 104.651C769.403 104.589 769.527 104.558 769.558 104.558C769.589 104.558 769.682 104.481 769.838 104.326C769.993 104.171 770.086 104.109 770.117 104.14V80.0931Z" fill="white"/>
<path id="Vector_13" d="M787.93 79.7675C789.667 77.2558 792.039 76 795.046 76C796.535 76 798.023 76.4031 799.512 77.2093C801 78.0155 802.209 79.4419 803.14 81.4884C804.287 84.062 804.86 87.5969 804.86 92.0931C804.86 96.8993 804.194 100.574 802.86 103.116C802.24 104.419 801.388 105.457 800.302 106.233C799.217 107.008 798.271 107.488 797.465 107.674C796.659 107.86 795.868 107.969 795.093 108C794.287 108 793.481 107.907 792.674 107.721C791.868 107.535 790.922 107.039 789.837 106.233C788.752 105.426 787.899 104.388 787.279 103.116C785.946 100.574 785.279 96.8993 785.279 92.0931C785.279 86.6977 786.163 82.5892 787.93 79.7675ZM798.395 79.2093C797.465 78.2171 796.364 77.721 795.093 77.721C793.791 77.721 792.674 78.2171 791.744 79.2093C790.969 80.0155 790.457 81.1318 790.209 82.5582C789.961 83.9845 789.837 86.9613 789.837 91.4884C789.837 96.3876 789.961 99.6124 790.209 101.163C790.457 102.713 791.015 103.938 791.884 104.837C792.752 105.767 793.822 106.233 795.093 106.233C796.333 106.233 797.388 105.767 798.256 104.837C799.155 103.907 799.713 102.605 799.93 100.93C800.147 99.2558 800.271 96.1086 800.302 91.4884C800.302 86.9923 800.178 84.031 799.93 82.6047C799.682 81.1783 799.171 80.0465 798.395 79.2093Z" fill="white"/>
</g>
</g>
</g>
</g>
</g>
<g id="T_n=10n-2&#10;&#10;\therefore\;10(31)-2=308">
<g id="Group_11">
<g id="Group_12">
<g id="Group_13">
<path id="Vector_14" d="M550.76 165.6C550.253 165.6 550 165.493 550 165.28C550 165.147 550.213 164.4 550.64 163.04C551.067 161.68 551.52 160.333 552 159L552.68 157.04C552.813 156.56 552.987 156.213 553.2 156H571.92H575.52C576.373 156 576.88 156.013 577.04 156.04C577.2 156.067 577.293 156.187 577.32 156.4C577.32 156.56 577.093 158.08 576.64 160.96C576.187 163.84 575.933 165.293 575.88 165.32C575.88 165.507 575.627 165.6 575.12 165.6C574.88 165.6 574.72 165.6 574.64 165.6C574.56 165.6 574.48 165.533 574.4 165.4L574.32 165.28C574.32 165.12 574.4 164.52 574.56 163.48C574.72 162.44 574.8 161.627 574.8 161.04C574.8 160.107 574.627 159.4 574.28 158.92C573.933 158.44 573.2 158.107 572.08 157.92C571.947 157.893 571.173 157.867 569.76 157.84C568.533 157.84 567.76 157.853 567.44 157.88C567.12 157.907 566.88 158.013 566.72 158.2C566.693 158.227 565.747 161.947 563.88 169.36C562.013 176.773 561.08 180.547 561.08 180.68C561.08 181 562.253 181.187 564.6 181.24C565.453 181.24 566 181.253 566.24 181.28C566.48 181.307 566.6 181.427 566.6 181.64C566.6 181.773 566.56 181.96 566.48 182.2C566.373 182.68 566.253 182.96 566.12 183.04L566.04 183.08C565.96 183.08 565.867 183.08 565.76 183.08C565.627 183.08 564.933 183.067 563.68 183.04C562.427 183.013 560.627 183 558.28 183C554.84 183 552.653 183.027 551.72 183.08H551.12C550.96 182.92 550.88 182.8 550.88 182.72C550.88 182.64 550.907 182.4 550.96 182C551.067 181.653 551.2 181.4 551.36 181.24H552.48H552.92C555.053 181.24 556.32 181.12 556.72 180.88C556.747 180.853 556.773 180.84 556.8 180.84C556.933 180.76 557.067 180.493 557.2 180.04C557.333 179.587 557.867 177.493 558.8 173.76C559.253 171.947 559.627 170.467 559.92 169.32C561.787 161.987 562.72 158.24 562.72 158.08C562.72 157.947 562.333 157.88 561.56 157.88H560.32C558.533 157.88 557.36 157.96 556.8 158.12C555.6 158.387 554.667 158.933 554 159.76C553.333 160.587 552.613 162.133 551.84 164.4C551.653 164.987 551.52 165.333 551.44 165.44C551.36 165.547 551.173 165.6 550.88 165.6H550.76Z" fill="white"/>
</g>
<g id="Group_14">
<path id="Vector_15" d="M573.114 180.964C573.133 180.851 573.161 180.7 573.199 180.511C573.236 180.323 573.349 179.964 573.538 179.437C573.727 178.909 573.915 178.466 574.104 178.107C574.292 177.749 574.603 177.4 575.037 177.061C575.47 176.722 575.904 176.561 576.338 176.58C577.016 176.58 577.582 176.75 578.034 177.089C578.487 177.429 578.77 177.749 578.883 178.051C578.996 178.352 579.053 178.55 579.053 178.645C579.053 178.682 579.062 178.701 579.081 178.701L579.392 178.39C580.542 177.184 581.852 176.58 583.323 176.58C584.341 176.58 585.161 176.835 585.783 177.344C586.405 177.853 586.726 178.598 586.745 179.578C586.764 180.558 586.405 182.038 585.67 184.018C584.935 185.998 584.577 187.195 584.595 187.609C584.595 188.1 584.756 188.345 585.076 188.345C585.189 188.345 585.274 188.335 585.331 188.316C585.877 188.222 586.368 187.864 586.801 187.242C587.235 186.62 587.565 185.866 587.791 184.979C587.829 184.829 588.017 184.753 588.357 184.753C588.734 184.753 588.922 184.829 588.922 184.979C588.922 184.998 588.885 185.14 588.809 185.404C588.658 185.95 588.451 186.488 588.187 187.016C587.923 187.543 587.489 188.071 586.886 188.599C586.283 189.127 585.632 189.382 584.935 189.363C584.049 189.363 583.408 189.108 583.012 188.599C582.616 188.09 582.418 187.562 582.418 187.016C582.418 186.657 582.757 185.526 583.436 183.622C584.115 181.718 584.463 180.285 584.482 179.323C584.482 178.211 584.068 177.655 583.238 177.655H583.097C581.475 177.655 580.108 178.607 578.996 180.511L578.798 180.851L577.865 184.64C577.243 187.11 576.884 188.439 576.79 188.628C576.545 189.137 576.14 189.391 575.574 189.391C575.329 189.391 575.131 189.335 574.98 189.221C574.829 189.108 574.726 188.995 574.669 188.882C574.613 188.769 574.594 188.675 574.613 188.599C574.613 188.354 574.971 186.818 575.687 183.99C576.404 181.162 576.781 179.625 576.818 179.38C576.837 179.286 576.847 179.069 576.847 178.73C576.847 177.994 576.62 177.627 576.168 177.627C575.452 177.627 574.858 178.569 574.386 180.455C574.273 180.832 574.217 181.03 574.217 181.049C574.179 181.162 574 181.218 573.679 181.218H573.283C573.17 181.105 573.114 181.02 573.114 180.964Z" fill="white"/>
</g>
</g>
<g id="Group_15">
<path id="Vector_16" d="M604.84 169.2C604.84 168.853 605.027 168.587 605.4 168.4H630.88C631.28 168.613 631.48 168.88 631.48 169.2C631.48 169.493 631.293 169.747 630.92 169.96L618.2 170H605.48C605.053 169.867 604.84 169.6 604.84 169.2ZM604.84 176.96C604.84 176.56 605.053 176.293 605.48 176.16H630.92C631.293 176.427 631.48 176.693 631.48 176.96C631.48 177.307 631.28 177.573 630.88 177.76H605.4C605.027 177.573 604.84 177.307 604.84 176.96Z" fill="white"/>
</g>
<g id="Group_16">
<path id="Vector_17" d="M653.352 159.96L652.832 160.16C652.459 160.293 651.926 160.427 651.232 160.56C650.539 160.693 649.766 160.787 648.912 160.84H648.152V159H648.912C650.166 158.947 651.326 158.747 652.392 158.4C653.459 158.053 654.206 157.733 654.632 157.44C655.059 157.147 655.432 156.853 655.752 156.56C655.806 156.48 655.966 156.44 656.232 156.44C656.472 156.44 656.699 156.52 656.912 156.68V168.64L656.952 180.64C657.139 180.827 657.299 180.947 657.432 181C657.566 181.053 657.886 181.107 658.392 181.16C658.899 181.213 659.726 181.24 660.872 181.24H661.912V183.08H661.472C660.912 183 658.792 182.96 655.112 182.96C651.486 182.96 649.392 183 648.832 183.08H648.352V181.24H649.392C649.979 181.24 650.486 181.24 650.912 181.24C651.339 181.24 651.672 181.227 651.912 181.2C652.152 181.173 652.366 181.133 652.552 181.08C652.739 181.027 652.846 181 652.872 181C652.899 181 652.979 180.933 653.112 180.8C653.246 180.667 653.326 180.613 653.352 180.64V159.96Z" fill="white"/>
<path id="Vector_18" d="M668.672 159.68C670.166 157.52 672.206 156.44 674.792 156.44C676.072 156.44 677.352 156.787 678.632 157.48C679.912 158.173 680.952 159.4 681.752 161.16C682.739 163.373 683.232 166.413 683.232 170.28C683.232 174.413 682.659 177.573 681.512 179.76C680.979 180.88 680.246 181.773 679.312 182.44C678.379 183.107 677.566 183.52 676.872 183.68C676.179 183.84 675.499 183.933 674.832 183.96C674.139 183.96 673.446 183.88 672.752 183.72C672.059 183.56 671.246 183.133 670.312 182.44C669.379 181.747 668.646 180.853 668.112 179.76C666.966 177.573 666.392 174.413 666.392 170.28C666.392 165.64 667.152 162.107 668.672 159.68ZM677.672 159.2C676.872 158.347 675.926 157.92 674.832 157.92C673.712 157.92 672.752 158.347 671.952 159.2C671.286 159.893 670.846 160.853 670.632 162.08C670.419 163.307 670.312 165.867 670.312 169.76C670.312 173.973 670.419 176.747 670.632 178.08C670.846 179.413 671.326 180.467 672.072 181.24C672.819 182.04 673.739 182.44 674.832 182.44C675.899 182.44 676.806 182.04 677.552 181.24C678.326 180.44 678.806 179.32 678.992 177.88C679.179 176.44 679.286 173.733 679.312 169.76C679.312 165.893 679.206 163.347 678.992 162.12C678.779 160.893 678.339 159.92 677.672 159.2Z" fill="white"/>
</g>
<g id="Group_17">
<path id="Vector_19" d="M685.672 171.6C685.699 171.44 685.739 171.227 685.792 170.96C685.845 170.693 686.005 170.187 686.272 169.44C686.539 168.693 686.805 168.067 687.072 167.56C687.339 167.053 687.779 166.56 688.392 166.08C689.005 165.6 689.619 165.373 690.232 165.4C691.192 165.4 691.992 165.64 692.632 166.12C693.272 166.6 693.672 167.053 693.832 167.48C693.992 167.907 694.072 168.187 694.072 168.32C694.072 168.373 694.085 168.4 694.112 168.4L694.552 167.96C696.179 166.253 698.032 165.4 700.112 165.4C701.552 165.4 702.712 165.76 703.592 166.48C704.472 167.2 704.925 168.253 704.952 169.64C704.979 171.027 704.472 173.12 703.432 175.92C702.392 178.72 701.885 180.413 701.912 181C701.912 181.693 702.139 182.04 702.592 182.04C702.752 182.04 702.872 182.027 702.952 182C703.725 181.867 704.419 181.36 705.032 180.48C705.645 179.6 706.112 178.533 706.432 177.28C706.485 177.067 706.752 176.96 707.232 176.96C707.765 176.96 708.032 177.067 708.032 177.28C708.032 177.307 707.979 177.507 707.872 177.88C707.659 178.653 707.365 179.413 706.992 180.16C706.619 180.907 706.005 181.653 705.152 182.4C704.299 183.147 703.379 183.507 702.392 183.48C701.139 183.48 700.232 183.12 699.672 182.4C699.112 181.68 698.832 180.933 698.832 180.16C698.832 179.653 699.312 178.053 700.272 175.36C701.232 172.667 701.725 170.64 701.752 169.28C701.752 167.707 701.165 166.92 699.992 166.92H699.792C697.499 166.92 695.565 168.267 693.992 170.96L693.712 171.44L692.392 176.8C691.512 180.293 691.005 182.173 690.872 182.44C690.525 183.16 689.952 183.52 689.152 183.52C688.805 183.52 688.525 183.44 688.312 183.28C688.099 183.12 687.952 182.96 687.872 182.8C687.792 182.64 687.765 182.507 687.792 182.4C687.792 182.053 688.299 179.88 689.312 175.88C690.325 171.88 690.859 169.707 690.912 169.36C690.939 169.227 690.952 168.92 690.952 168.44C690.952 167.4 690.632 166.88 689.992 166.88C688.979 166.88 688.139 168.213 687.472 170.88C687.312 171.413 687.232 171.693 687.232 171.72C687.179 171.88 686.925 171.96 686.472 171.96H685.912C685.752 171.8 685.672 171.68 685.672 171.6Z" fill="white"/>
</g>
<g id="Group_18">
<path id="Vector_20" d="M721.08 173.6C721.08 173.6 721.08 173.427 721.08 173.08C721.08 172.733 721.267 172.467 721.64 172.28H744.88C745.28 172.493 745.48 172.76 745.48 173.08C745.48 173.4 745.28 173.667 744.88 173.88H721.64C721.267 173.693 721.08 173.427 721.08 173.08V173.6Z" fill="white"/>
</g>
<g id="Group_19">
<path id="Vector_21" d="M762.092 165.92C761.372 165.92 760.798 165.68 760.372 165.2C759.945 164.72 759.732 164.133 759.732 163.44C759.732 161.547 760.438 159.907 761.852 158.52C763.265 157.133 765.025 156.44 767.132 156.44C769.558 156.44 771.585 157.187 773.212 158.68C774.838 160.173 775.665 162.107 775.692 164.48C775.692 165.627 775.425 166.72 774.892 167.76C774.358 168.8 773.718 169.707 772.972 170.48C772.225 171.253 771.158 172.24 769.772 173.44C768.812 174.267 767.478 175.493 765.772 177.12L763.412 179.36L766.452 179.4C770.638 179.4 772.865 179.333 773.132 179.2C773.318 179.147 773.638 177.96 774.092 175.64V175.52H775.692V175.64C775.665 175.72 775.492 176.933 775.172 179.28C774.852 181.627 774.652 182.853 774.572 182.96V183.08H759.732V182.32V181.84C759.732 181.653 759.812 181.453 759.972 181.24C760.132 181.027 760.532 180.56 761.172 179.84C761.945 178.987 762.612 178.24 763.172 177.6C763.412 177.333 763.865 176.84 764.532 176.12C765.198 175.4 765.652 174.907 765.892 174.64C766.132 174.373 766.518 173.933 767.052 173.32C767.585 172.707 767.958 172.253 768.172 171.96C768.385 171.667 768.692 171.267 769.092 170.76C769.492 170.253 769.772 169.827 769.932 169.48C770.092 169.133 770.292 168.747 770.532 168.32C770.772 167.893 770.945 167.467 771.052 167.04C771.158 166.613 771.252 166.213 771.332 165.84C771.412 165.467 771.452 165.027 771.452 164.52C771.452 162.84 770.998 161.387 770.092 160.16C769.185 158.933 767.892 158.32 766.212 158.32C765.332 158.32 764.558 158.547 763.892 159C763.225 159.453 762.758 159.893 762.492 160.32C762.225 160.747 762.092 161 762.092 161.08C762.092 161.107 762.158 161.12 762.292 161.12C762.772 161.12 763.265 161.307 763.772 161.68C764.278 162.053 764.532 162.667 764.532 163.52C764.532 164.187 764.318 164.747 763.892 165.2C763.465 165.653 762.865 165.893 762.092 165.92Z" fill="white"/>
</g>
<g id="Group 63">
<g id="Group_20">
<path id="Vector_22" d="M615.96 256.64C615.96 255.947 616.2 255.373 616.68 254.92C617.16 254.467 617.733 254.24 618.4 254.24C619.04 254.24 619.587 254.467 620.04 254.92C620.493 255.373 620.733 255.947 620.76 256.64C620.787 257.333 620.56 257.907 620.08 258.36C619.6 258.813 619.027 259.04 618.36 259.04C617.667 259.04 617.093 258.813 616.64 258.36C616.187 257.907 615.96 257.333 615.96 256.64ZM608.4 271.56C609.093 271.56 609.653 271.787 610.08 272.24C610.507 272.693 610.733 273.267 610.76 273.96C610.76 274.6 610.547 275.16 610.12 275.64C609.693 276.12 609.107 276.36 608.36 276.36C607.667 276.36 607.107 276.133 606.68 275.68C606.253 275.227 606.027 274.653 606 273.96C606 273.267 606.227 272.693 606.68 272.24C607.133 271.787 607.707 271.56 608.4 271.56ZM626 273.96C626 273.267 626.227 272.693 626.68 272.24C627.133 271.787 627.707 271.56 628.4 271.56C629.04 271.56 629.587 271.787 630.04 272.24C630.493 272.693 630.733 273.267 630.76 273.96C630.76 274.573 630.547 275.12 630.12 275.6C629.693 276.08 629.107 276.333 628.36 276.36C627.667 276.36 627.107 276.133 626.68 275.68C626.253 275.227 626.027 274.653 626 273.96Z" fill="white"/>
</g>
<g id="Group_21">
<path id="Vector_23" d="M662.464 249.96L661.944 250.16C661.571 250.293 661.037 250.427 660.344 250.56C659.651 250.693 658.877 250.787 658.024 250.84H657.264V249H658.024C659.277 248.947 660.437 248.747 661.504 248.4C662.571 248.053 663.317 247.733 663.744 247.44C664.171 247.147 664.544 246.853 664.864 246.56C664.917 246.48 665.077 246.44 665.344 246.44C665.584 246.44 665.811 246.52 666.024 246.68V258.64L666.064 270.64C666.251 270.827 666.411 270.947 666.544 271C666.677 271.053 666.997 271.107 667.504 271.16C668.011 271.213 668.837 271.24 669.984 271.24H671.024V273.08H670.584C670.024 273 667.904 272.96 664.224 272.96C660.597 272.96 658.504 273 657.944 273.08H657.464V271.24H658.504C659.091 271.24 659.597 271.24 660.024 271.24C660.451 271.24 660.784 271.227 661.024 271.2C661.264 271.173 661.477 271.133 661.664 271.08C661.851 271.027 661.957 271 661.984 271C662.011 271 662.091 270.933 662.224 270.8C662.357 270.667 662.437 270.613 662.464 270.64V249.96Z" fill="white"/>
<path id="Vector_24" d="M677.784 249.68C679.277 247.52 681.317 246.44 683.904 246.44C685.184 246.44 686.464 246.787 687.744 247.48C689.024 248.173 690.064 249.4 690.864 251.16C691.851 253.373 692.344 256.413 692.344 260.28C692.344 264.413 691.771 267.573 690.624 269.76C690.091 270.88 689.357 271.773 688.424 272.44C687.491 273.107 686.677 273.52 685.984 273.68C685.291 273.84 684.611 273.933 683.944 273.96C683.251 273.96 682.557 273.88 681.864 273.72C681.171 273.56 680.357 273.133 679.424 272.44C678.491 271.747 677.757 270.853 677.224 269.76C676.077 267.573 675.504 264.413 675.504 260.28C675.504 255.64 676.264 252.107 677.784 249.68ZM686.784 249.2C685.984 248.347 685.037 247.92 683.944 247.92C682.824 247.92 681.864 248.347 681.064 249.2C680.397 249.893 679.957 250.853 679.744 252.08C679.531 253.307 679.424 255.867 679.424 259.76C679.424 263.973 679.531 266.747 679.744 268.08C679.957 269.413 680.437 270.467 681.184 271.24C681.931 272.04 682.851 272.44 683.944 272.44C685.011 272.44 685.917 272.04 686.664 271.24C687.437 270.44 687.917 269.32 688.104 267.88C688.291 266.44 688.397 263.733 688.424 259.76C688.424 255.893 688.317 253.347 688.104 252.12C687.891 250.893 687.451 249.92 686.784 249.2Z" fill="white"/>
</g>
<g id="Group_22">
<path id="Vector_25" d="M697.704 263.08C697.704 261.24 697.837 259.493 698.104 257.84C698.371 256.187 698.677 254.76 699.024 253.56C699.371 252.36 699.864 251.187 700.504 250.04C701.144 248.893 701.651 248 702.024 247.36C702.397 246.72 702.957 246.027 703.704 245.28C704.451 244.533 704.891 244.08 705.024 243.92C705.157 243.76 705.491 243.48 706.024 243.08H706.544H706.704C707.077 243.08 707.264 243.2 707.264 243.44C707.264 243.52 707.037 243.8 706.584 244.28C706.131 244.76 705.584 245.467 704.944 246.4C704.304 247.333 703.651 248.48 702.984 249.84C702.317 251.2 701.757 253.04 701.304 255.36C700.851 257.68 700.624 260.253 700.624 263.08C700.624 265.907 700.851 268.467 701.304 270.76C701.757 273.053 702.304 274.907 702.944 276.32C703.584 277.733 704.237 278.88 704.904 279.76C705.571 280.64 706.131 281.347 706.584 281.88C707.037 282.413 707.264 282.693 707.264 282.72C707.264 282.96 707.064 283.08 706.664 283.08H706.544H706.024L704.904 282.12C702.397 279.853 700.571 277.027 699.424 273.64C698.277 270.253 697.704 266.733 697.704 263.08Z" fill="white"/>
</g>
<g id="Group_23">
<path id="Vector_26" d="M714.584 254.56C713.864 254.56 713.304 254.333 712.904 253.88C712.504 253.427 712.291 252.84 712.264 252.12C712.264 250.653 712.904 249.347 714.184 248.2C715.464 247.053 717.011 246.48 718.824 246.48C719.757 246.48 720.344 246.493 720.584 246.52C722.557 246.84 724.064 247.547 725.104 248.64C726.144 249.733 726.677 250.92 726.704 252.2C726.704 253.587 726.251 254.933 725.344 256.24C724.437 257.547 723.184 258.493 721.584 259.08L721.464 259.16C721.464 259.187 721.584 259.227 721.824 259.28C722.064 259.333 722.451 259.453 722.984 259.64C723.517 259.827 724.024 260.107 724.504 260.48C726.691 261.893 727.784 263.76 727.784 266.08C727.784 268.187 726.957 270.027 725.304 271.6C723.651 273.173 721.557 273.96 719.024 273.96C716.891 273.96 715.051 273.387 713.504 272.24C711.957 271.093 711.184 269.64 711.184 267.88C711.184 267.133 711.424 266.533 711.904 266.08C712.384 265.627 712.984 265.387 713.704 265.36C714.451 265.36 715.064 265.6 715.544 266.08C716.024 266.56 716.264 267.16 716.264 267.88C716.264 268.173 716.224 268.44 716.144 268.68C716.064 268.92 715.971 269.133 715.864 269.32C715.757 269.507 715.611 269.667 715.424 269.8C715.237 269.933 715.077 270.04 714.944 270.12C714.811 270.2 714.677 270.253 714.544 270.28C714.411 270.307 714.304 270.347 714.224 270.4L714.064 270.44C715.424 271.64 717.077 272.24 719.024 272.24C720.491 272.24 721.597 271.533 722.344 270.12C722.797 269.24 723.024 267.893 723.024 266.08V265.28C723.024 262.747 722.171 261.053 720.464 260.2C720.064 260.04 719.251 259.947 718.024 259.92L716.344 259.88L716.224 259.8C716.171 259.72 716.144 259.507 716.144 259.16C716.144 258.68 716.251 258.44 716.464 258.44C717.211 258.44 717.984 258.373 718.784 258.24C719.691 258.107 720.517 257.547 721.264 256.56C722.011 255.573 722.384 254.08 722.384 252.08V251.76C722.384 250.24 721.917 249.187 720.984 248.6C720.397 248.227 719.771 248.04 719.104 248.04C718.251 248.04 717.464 248.187 716.744 248.48C716.024 248.773 715.517 249.08 715.224 249.4C714.931 249.72 714.784 249.88 714.784 249.88H714.904C714.984 249.907 715.091 249.933 715.224 249.96C715.357 249.987 715.491 250.053 715.624 250.16C715.757 250.267 715.917 250.36 716.104 250.44C716.291 250.52 716.424 250.667 716.504 250.88C716.584 251.093 716.691 251.293 716.824 251.48C716.957 251.667 716.997 251.933 716.944 252.28C716.944 252.867 716.757 253.387 716.384 253.84C716.011 254.293 715.411 254.533 714.584 254.56Z" fill="white"/>
<path id="Vector_27" d="M738.024 249.96L737.504 250.16C737.13 250.293 736.597 250.427 735.904 250.56C735.21 250.693 734.437 250.787 733.584 250.84H732.824V249H733.584C734.837 248.947 735.997 248.747 737.064 248.4C738.13 248.053 738.877 247.733 739.304 247.44C739.73 247.147 740.104 246.853 740.424 246.56C740.477 246.48 740.637 246.44 740.904 246.44C741.144 246.44 741.37 246.52 741.584 246.68V258.64L741.624 270.64C741.81 270.827 741.97 270.947 742.104 271C742.237 271.053 742.557 271.107 743.064 271.16C743.57 271.213 744.397 271.24 745.544 271.24H746.584V273.08H746.144C745.584 273 743.464 272.96 739.784 272.96C736.157 272.96 734.064 273 733.504 273.08H733.024V271.24H734.064C734.65 271.24 735.157 271.24 735.584 271.24C736.01 271.24 736.344 271.227 736.584 271.2C736.824 271.173 737.037 271.133 737.224 271.08C737.41 271.027 737.517 271 737.544 271C737.57 271 737.65 270.933 737.784 270.8C737.917 270.667 737.997 270.613 738.024 270.64V249.96Z" fill="white"/>
</g>
<g id="Group_24">
<path id="Vector_28" d="M751.904 243.12L752.064 243.08C752.197 243.08 752.331 243.08 752.464 243.08H752.944L754.064 244.04C756.571 246.307 758.397 249.133 759.544 252.52C760.691 255.907 761.264 259.427 761.264 263.08C761.264 264.893 761.131 266.64 760.864 268.32C760.597 270 760.291 271.427 759.944 272.6C759.597 273.773 759.104 274.947 758.464 276.12C757.824 277.293 757.317 278.187 756.944 278.8C756.571 279.413 756.024 280.093 755.304 280.84C754.584 281.587 754.157 282.027 754.024 282.16C753.891 282.293 753.584 282.547 753.104 282.92C753.024 283 752.971 283.053 752.944 283.08H752.464C752.251 283.08 752.104 283.08 752.024 283.08C751.944 283.08 751.877 283.04 751.824 282.96C751.771 282.88 751.731 282.76 751.704 282.6C751.731 282.573 751.877 282.4 752.144 282.08C756.277 277.787 758.344 271.453 758.344 263.08C758.344 254.707 756.277 248.373 752.144 244.08C751.877 243.76 751.731 243.587 751.704 243.56C751.704 243.347 751.771 243.2 751.904 243.12Z" fill="white"/>
</g>
<g id="Group_25">
<path id="Vector_29" d="M777.312 263.6C777.312 263.6 777.312 263.427 777.312 263.08C777.312 262.733 777.499 262.467 777.872 262.28H801.112C801.512 262.493 801.712 262.76 801.712 263.08C801.712 263.4 801.512 263.667 801.112 263.88H777.872C777.499 263.693 777.312 263.427 777.312 263.08V263.6Z" fill="white"/>
</g>
<g id="Group_26">
<path id="Vector_30" d="M818.32 255.92C817.6 255.92 817.027 255.68 816.6 255.2C816.174 254.72 815.96 254.133 815.96 253.44C815.96 251.547 816.667 249.907 818.08 248.52C819.494 247.133 821.254 246.44 823.36 246.44C825.787 246.44 827.814 247.187 829.44 248.68C831.067 250.173 831.894 252.107 831.92 254.48C831.92 255.627 831.654 256.72 831.12 257.76C830.587 258.8 829.947 259.707 829.2 260.48C828.454 261.253 827.387 262.24 826 263.44C825.04 264.267 823.707 265.493 822 267.12L819.64 269.36L822.68 269.4C826.867 269.4 829.094 269.333 829.36 269.2C829.547 269.147 829.867 267.96 830.32 265.64V265.52H831.92V265.64C831.894 265.72 831.72 266.933 831.4 269.28C831.08 271.627 830.88 272.853 830.8 272.96V273.08H815.96V272.32V271.84C815.96 271.653 816.04 271.453 816.2 271.24C816.36 271.027 816.76 270.56 817.4 269.84C818.174 268.987 818.84 268.24 819.4 267.6C819.64 267.333 820.094 266.84 820.76 266.12C821.427 265.4 821.88 264.907 822.12 264.64C822.36 264.373 822.747 263.933 823.28 263.32C823.814 262.707 824.187 262.253 824.4 261.96C824.614 261.667 824.92 261.267 825.32 260.76C825.72 260.253 826 259.827 826.16 259.48C826.32 259.133 826.52 258.747 826.76 258.32C827 257.893 827.174 257.467 827.28 257.04C827.387 256.613 827.48 256.213 827.56 255.84C827.64 255.467 827.68 255.027 827.68 254.52C827.68 252.84 827.227 251.387 826.32 250.16C825.414 248.933 824.12 248.32 822.44 248.32C821.56 248.32 820.787 248.547 820.12 249C819.454 249.453 818.987 249.893 818.72 250.32C818.454 250.747 818.32 251 818.32 251.08C818.32 251.107 818.387 251.12 818.52 251.12C819 251.12 819.494 251.307 820 251.68C820.507 252.053 820.76 252.667 820.76 253.52C820.76 254.187 820.547 254.747 820.12 255.2C819.694 255.653 819.094 255.893 818.32 255.92Z" fill="white"/>
</g>
<g id="Group_27">
<path id="Vector_31" d="M847.312 259.2C847.312 258.853 847.499 258.587 847.872 258.4H873.352C873.752 258.613 873.952 258.88 873.952 259.2C873.952 259.493 873.766 259.747 873.392 259.96L860.672 260H847.952C847.526 259.867 847.312 259.6 847.312 259.2ZM847.312 266.96C847.312 266.56 847.526 266.293 847.952 266.16H873.392C873.766 266.427 873.952 266.693 873.952 266.96C873.952 267.307 873.752 267.573 873.352 267.76H847.872C847.499 267.573 847.312 267.307 847.312 266.96Z" fill="white"/>
</g>
<g id="Group_28">
<path id="Vector_32" d="M892.384 254.56C891.664 254.56 891.104 254.333 890.704 253.88C890.304 253.427 890.09 252.84 890.064 252.12C890.064 250.653 890.704 249.347 891.984 248.2C893.264 247.053 894.81 246.48 896.624 246.48C897.557 246.48 898.144 246.493 898.384 246.52C900.357 246.84 901.864 247.547 902.904 248.64C903.944 249.733 904.477 250.92 904.504 252.2C904.504 253.587 904.05 254.933 903.144 256.24C902.237 257.547 900.984 258.493 899.384 259.08L899.264 259.16C899.264 259.187 899.384 259.227 899.624 259.28C899.864 259.333 900.25 259.453 900.784 259.64C901.317 259.827 901.824 260.107 902.304 260.48C904.49 261.893 905.584 263.76 905.584 266.08C905.584 268.187 904.757 270.027 903.104 271.6C901.45 273.173 899.357 273.96 896.824 273.96C894.69 273.96 892.85 273.387 891.304 272.24C889.757 271.093 888.984 269.64 888.984 267.88C888.984 267.133 889.224 266.533 889.704 266.08C890.184 265.627 890.784 265.387 891.504 265.36C892.25 265.36 892.864 265.6 893.344 266.08C893.824 266.56 894.064 267.16 894.064 267.88C894.064 268.173 894.024 268.44 893.944 268.68C893.864 268.92 893.77 269.133 893.664 269.32C893.557 269.507 893.41 269.667 893.224 269.8C893.037 269.933 892.877 270.04 892.744 270.12C892.61 270.2 892.477 270.253 892.344 270.28C892.21 270.307 892.104 270.347 892.024 270.4L891.864 270.44C893.224 271.64 894.877 272.24 896.824 272.24C898.29 272.24 899.397 271.533 900.144 270.12C900.597 269.24 900.824 267.893 900.824 266.08V265.28C900.824 262.747 899.97 261.053 898.264 260.2C897.864 260.04 897.05 259.947 895.824 259.92L894.144 259.88L894.024 259.8C893.97 259.72 893.944 259.507 893.944 259.16C893.944 258.68 894.05 258.44 894.264 258.44C895.01 258.44 895.784 258.373 896.584 258.24C897.49 258.107 898.317 257.547 899.064 256.56C899.81 255.573 900.184 254.08 900.184 252.08V251.76C900.184 250.24 899.717 249.187 898.784 248.6C898.197 248.227 897.57 248.04 896.904 248.04C896.05 248.04 895.264 248.187 894.544 248.48C893.824 248.773 893.317 249.08 893.024 249.4C892.73 249.72 892.584 249.88 892.584 249.88H892.704C892.784 249.907 892.89 249.933 893.024 249.96C893.157 249.987 893.29 250.053 893.424 250.16C893.557 250.267 893.717 250.36 893.904 250.44C894.09 250.52 894.224 250.667 894.304 250.88C894.384 251.093 894.49 251.293 894.624 251.48C894.757 251.667 894.797 251.933 894.744 252.28C894.744 252.867 894.557 253.387 894.184 253.84C893.81 254.293 893.21 254.533 892.384 254.56Z" fill="white"/>
<path id="Vector_33" d="M911.144 249.68C912.637 247.52 914.677 246.44 917.264 246.44C918.544 246.44 919.824 246.787 921.104 247.48C922.384 248.173 923.424 249.4 924.224 251.16C925.211 253.373 925.704 256.413 925.704 260.28C925.704 264.413 925.131 267.573 923.984 269.76C923.451 270.88 922.717 271.773 921.784 272.44C920.851 273.107 920.037 273.52 919.344 273.68C918.651 273.84 917.971 273.933 917.304 273.96C916.611 273.96 915.917 273.88 915.224 273.72C914.531 273.56 913.717 273.133 912.784 272.44C911.851 271.747 911.117 270.853 910.584 269.76C909.437 267.573 908.864 264.413 908.864 260.28C908.864 255.64 909.624 252.107 911.144 249.68ZM920.144 249.2C919.344 248.347 918.397 247.92 917.304 247.92C916.184 247.92 915.224 248.347 914.424 249.2C913.757 249.893 913.317 250.853 913.104 252.08C912.891 253.307 912.784 255.867 912.784 259.76C912.784 263.973 912.891 266.747 913.104 268.08C913.317 269.413 913.797 270.467 914.544 271.24C915.291 272.04 916.211 272.44 917.304 272.44C918.371 272.44 919.277 272.04 920.024 271.24C920.797 270.44 921.277 269.32 921.464 267.88C921.651 266.44 921.757 263.733 921.784 259.76C921.784 255.893 921.677 253.347 921.464 252.12C921.251 250.893 920.811 249.92 920.144 249.2Z" fill="white"/>
<path id="Vector_34" d="M930.103 256.4C930.103 256.4 930.103 255.373 930.103 253.32C930.103 251.267 930.823 249.613 932.263 248.36C933.703 247.107 935.357 246.467 937.223 246.44C939.117 246.44 940.797 247 942.263 248.12C943.73 249.24 944.463 250.693 944.463 252.48C944.463 253.28 944.317 254.027 944.023 254.72C943.73 255.413 943.383 255.973 942.983 256.4C942.583 256.827 942.17 257.2 941.743 257.52C941.317 257.84 940.97 258.08 940.703 258.24C940.437 258.4 940.29 258.507 940.263 258.56L940.823 258.92C941.197 259.187 941.57 259.453 941.943 259.72C942.317 259.987 942.53 260.133 942.583 260.16C944.583 261.733 945.583 263.72 945.583 266.12C945.583 268.227 944.81 270.053 943.263 271.6C941.717 273.147 939.717 273.933 937.263 273.96C934.863 273.96 932.89 273.28 931.343 271.92C929.797 270.56 929.023 268.88 929.023 266.88C929.023 264 930.743 261.6 934.183 259.68L933.463 259.16C932.903 258.813 932.543 258.547 932.383 258.36C930.863 257.053 930.103 255.373 930.103 253.32V256.4ZM938.743 257.64L938.983 257.48C939.143 257.373 939.263 257.293 939.343 257.24C939.423 257.187 939.557 257.093 939.743 256.96C939.93 256.827 940.09 256.693 940.223 256.56C940.357 256.427 940.503 256.267 940.663 256.08C940.823 255.893 940.97 255.72 941.103 255.56C941.237 255.4 941.37 255.187 941.503 254.92C941.637 254.653 941.757 254.427 941.863 254.24C941.97 254.053 942.037 253.787 942.063 253.44C942.09 253.093 942.117 252.8 942.143 252.56C942.143 251.413 941.757 250.44 940.983 249.64C940.21 248.84 939.317 248.333 938.303 248.12C938.117 248.093 937.677 248.08 936.983 248.08C935.89 248.08 934.863 248.427 933.903 249.12C932.943 249.813 932.45 250.68 932.423 251.72C932.423 252.333 932.597 252.893 932.943 253.4C933.29 253.907 933.637 254.293 933.983 254.56C934.33 254.827 934.997 255.253 935.983 255.84C936.17 255.973 936.317 256.067 936.423 256.12L938.743 257.64ZM937.303 272.24C938.85 272.24 940.183 271.787 941.303 270.88C942.423 269.973 942.983 268.88 942.983 267.6C942.983 267.147 942.917 266.72 942.783 266.32C942.65 265.92 942.49 265.587 942.303 265.32C942.117 265.053 941.823 264.76 941.423 264.44C941.023 264.12 940.717 263.88 940.503 263.72C940.29 263.56 939.903 263.307 939.343 262.96C938.783 262.613 938.423 262.387 938.263 262.28C937.89 262.04 937.49 261.787 937.063 261.52C936.637 261.253 936.29 261.027 936.023 260.84L935.703 260.64C935.543 260.64 935.157 260.867 934.543 261.32C933.93 261.773 933.29 262.507 932.623 263.52C931.957 264.533 931.61 265.627 931.583 266.8C931.583 268.373 932.157 269.667 933.303 270.68C934.45 271.693 935.783 272.213 937.303 272.24Z" fill="white"/>
</g>
</g>
</g>
</g>
</g>
</svg>
