<svg viewBox="0 0 845 380" fill="none" xmlns="http://www.w3.org/2000/svg">
<path fill-rule="evenodd" clip-rule="evenodd" d="M70.4148 79H3V103H84.7195L70.4148 79ZM72.1192 76H0V106H90L72.1192 76Z" fill="white"/>
<path d="M121.221 91.3066H104.117V88.0049H121.221V91.3066ZM121.221 99.8174H104.117V96.5361H121.221V99.8174Z" fill="white"/>
<path d="M149.419 108H145.604V82.7139L137.955 85.5234V82.0781L148.824 77.9971H149.419V108Z" fill="white"/>
<path fill-rule="evenodd" clip-rule="evenodd" d="M91.7 179H3V233H112.62L91.7 179ZM93.755 176H0V236H117L93.755 176Z" fill="white"/>
<path fill-rule="evenodd" clip-rule="evenodd" d="M79 234L61 179L63.8512 178.067L81.8512 233.067L79 234Z" fill="white"/>
<path fill-rule="evenodd" clip-rule="evenodd" d="M72 206H0V203H72V206Z" fill="white"/>
<path fill-rule="evenodd" clip-rule="evenodd" d="M2 178H9V185H2V178ZM3 179V184H8V179H3Z" fill="white"/>
<path fill-rule="evenodd" clip-rule="evenodd" d="M2 197H9V204H2V197ZM3 198V203H8V198H3Z" fill="white"/>
<path fill-rule="evenodd" clip-rule="evenodd" d="M2 205H9V212H2V205ZM3 206V211H8V206H3Z" fill="white"/>
<path fill-rule="evenodd" clip-rule="evenodd" d="M2 227H9V234H2V227ZM3 228V233H8V228H3Z" fill="white"/>
<path d="M2 204H70L81 236H2V204Z" fill="#E47209"/>
<path d="M0 177H61.1139L71 204H0V177Z" fill="#8808A8"/>
<path d="M0 177H61L79 236H0V177Z" fill="#0E0EC3"/>
<path d="M0 177H92.5L117 236H0V177Z" fill="#19D5AD"/>
<path d="M150.221 198.307H133.117V195.005H150.221V198.307ZM150.221 206.817H133.117V203.536H150.221V206.817Z" fill="white"/>
<path d="M181.967 204.972H186.109V208.068H181.967V215H178.152V208.068H164.556V205.833L177.927 185.141H181.967V204.972ZM168.862 204.972H178.152V190.329L177.701 191.149L168.862 204.972Z" fill="white"/>
<path fill-rule="evenodd" clip-rule="evenodd" d="M122.867 293H3V377H151.794L122.867 293ZM125.007 290H0V380H156L125.007 290Z" fill="white"/>
<path fill-rule="evenodd" clip-rule="evenodd" d="M1 370H8V377H1V370ZM2 371V376H7V371H2Z" fill="white"/>
<path fill-rule="evenodd" clip-rule="evenodd" d="M1 348H8V355H1V348ZM2 349V354H7V349H2Z" fill="white"/>
<path fill-rule="evenodd" clip-rule="evenodd" d="M1 340H8V347H1V340ZM2 341V346H7V341H2Z" fill="white"/>
<path fill-rule="evenodd" clip-rule="evenodd" d="M1 318H8V325H1V318ZM2 319V324H7V319H2Z" fill="white"/>
<path fill-rule="evenodd" clip-rule="evenodd" d="M1 310H8V317H1V310ZM2 311V316H7V311H2Z" fill="white"/>
<path fill-rule="evenodd" clip-rule="evenodd" d="M1 292H8V299H1V292ZM2 293V298H7V293H2Z" fill="white"/>
<path fill-rule="evenodd" clip-rule="evenodd" d="M121 380L91 290L93.8461 289.051L123.846 379.051L121 380Z" fill="white"/>
<path fill-rule="evenodd" clip-rule="evenodd" d="M91 380L61 290L63.8461 289.051L93.8461 379.051L91 380Z" fill="white"/>
<path fill-rule="evenodd" clip-rule="evenodd" d="M72 320H0V317H72V320Z" fill="white"/>
<path fill-rule="evenodd" clip-rule="evenodd" d="M82 349H2V346H82V349Z" fill="white"/>
<path d="M0 346H83L93 377H0V346Z" fill="#8808A8"/>
<path d="M0 317H72.2903L81 348H0V317Z" fill="#C4C4C4"/>
<path d="M0 290H63.3656L71 319H0V290Z" fill="#F3C72C"/>
<path d="M3 319H72L93 380H3V319Z" fill="#19D5AD"/>
<path d="M0 290H62.5L81 348H0V290Z" fill="#2CF30B"/>
<path d="M0 291H63.5L93 377H0V291Z" fill="#4D0A5E"/>
<path d="M0 291L91.5 293.867L121 377H0V291Z" fill="#D51919"/>
<path d="M0 290H121.5L154 380H0V290Z" fill="#091FE3"/>
<path d="M184.221 333.307H167.117V330.005H184.221V333.307ZM184.221 341.817H167.117V338.536H184.221V341.817Z" fill="white"/>
<path d="M218.059 327.934C218.059 329.424 217.662 330.75 216.869 331.912C216.09 333.074 215.03 333.983 213.69 334.64C215.249 335.31 216.479 336.287 217.382 337.572C218.298 338.857 218.756 340.313 218.756 341.94C218.756 344.524 217.881 346.582 216.131 348.113C214.395 349.645 212.104 350.41 209.261 350.41C206.39 350.41 204.086 349.645 202.35 348.113C200.627 346.568 199.766 344.511 199.766 341.94C199.766 340.327 200.203 338.871 201.078 337.572C201.967 336.273 203.19 335.289 204.749 334.619C203.423 333.963 202.377 333.054 201.611 331.892C200.846 330.729 200.463 329.41 200.463 327.934C200.463 325.418 201.27 323.422 202.883 321.945C204.496 320.469 206.622 319.73 209.261 319.73C211.886 319.73 214.005 320.469 215.618 321.945C217.245 323.422 218.059 325.418 218.059 327.934ZM214.962 341.858C214.962 340.19 214.429 338.83 213.362 337.777C212.31 336.725 210.929 336.198 209.22 336.198C207.511 336.198 206.137 336.718 205.098 337.757C204.072 338.796 203.56 340.163 203.56 341.858C203.56 343.554 204.059 344.887 205.057 345.857C206.068 346.828 207.47 347.313 209.261 347.313C211.038 347.313 212.433 346.828 213.444 345.857C214.456 344.873 214.962 343.54 214.962 341.858ZM209.261 322.848C207.771 322.848 206.561 323.312 205.631 324.242C204.715 325.158 204.257 326.409 204.257 327.995C204.257 329.513 204.708 330.743 205.61 331.687C206.526 332.616 207.743 333.081 209.261 333.081C210.778 333.081 211.988 332.616 212.891 331.687C213.807 330.743 214.265 329.513 214.265 327.995C214.265 326.478 213.793 325.24 212.85 324.283C211.906 323.326 210.71 322.848 209.261 322.848Z" fill="white"/>
<path d="M345.995 18.5653L345.395 18.7958C344.965 18.9495 344.35 19.1032 343.551 19.257C342.751 19.4107 341.86 19.5183 340.876 19.5798H340V17.4585H340.876C342.321 17.3971 343.658 17.1665 344.888 16.7668C346.118 16.3672 346.978 15.9983 347.47 15.6601C347.962 15.322 348.393 14.9838 348.762 14.6456C348.823 14.5534 349.007 14.5073 349.315 14.5073C349.592 14.5073 349.853 14.5995 350.099 14.784V28.5718L350.145 42.4058C350.36 42.621 350.545 42.7594 350.698 42.8209C350.852 42.8823 351.221 42.9438 351.805 43.0053C352.389 43.0668 353.342 43.0975 354.664 43.0975H355.863V45.2188H355.356C354.71 45.1265 352.266 45.0804 348.024 45.0804C343.843 45.0804 341.43 45.1265 340.784 45.2188H340.231V43.0975H341.43C342.106 43.0975 342.69 43.0975 343.182 43.0975C343.674 43.0975 344.058 43.0822 344.335 43.0514C344.611 43.0207 344.857 42.9746 345.072 42.9131C345.288 42.8516 345.411 42.8209 345.441 42.8209C345.472 42.8209 345.564 42.744 345.718 42.5903C345.872 42.4366 345.964 42.3751 345.995 42.4058V18.5653Z" fill="white"/>
<path d="M473.013 43.2188C472.46 43.1265 470.477 43.0804 467.065 43.0804C463.498 43.0804 461.439 43.1265 460.885 43.2188H460.47V41.0975H461.9C462.515 41.0975 462.93 41.0975 463.145 41.0975C463.36 41.0975 463.621 41.0668 463.929 41.0053C464.236 40.9438 464.451 40.867 464.574 40.7747C464.697 40.6825 464.805 40.5595 464.897 40.4058C464.928 40.3444 464.943 39.5143 464.943 37.9157V35.6101H453V33.4888L459.963 22.8367C464.667 15.7045 467.049 12.123 467.111 12.0923C467.172 12.0308 467.495 12 468.079 12H468.909L469.186 12.2767V33.4888H473.428V35.6101H469.186V37.9618C469.186 39.2223 469.186 39.9601 469.186 40.1753C469.186 40.3905 469.278 40.5749 469.462 40.7286C469.708 40.9438 470.585 41.0668 472.091 41.0975H473.428V43.2188H473.013ZM465.22 33.4888V18.087L455.121 33.4427L460.148 33.4888H465.22Z" fill="white"/>
<path d="M576.245 28.4823C576.245 28.4823 576.245 27.2988 576.245 24.9316C576.245 22.5645 577.075 20.6584 578.735 19.2136C580.395 17.7687 582.301 17.0309 584.453 17.0001C586.636 17.0001 588.573 17.6457 590.264 18.9369C591.954 20.228 592.8 21.9035 592.8 23.9632C592.8 24.8855 592.631 25.7463 592.292 26.5456C591.954 27.3449 591.555 27.9905 591.094 28.4823C590.632 28.9742 590.156 29.4046 589.664 29.7735C589.172 30.1424 588.773 30.4191 588.465 30.6035C588.158 30.788 587.989 30.911 587.958 30.9725L588.603 31.3875C589.034 31.6949 589.464 32.0023 589.895 32.3097C590.325 32.6172 590.571 32.7862 590.632 32.817C592.938 34.6308 594.091 36.9211 594.091 39.6879C594.091 42.1165 593.199 44.2223 591.416 46.0054C589.633 47.7884 587.328 48.6953 584.499 48.7261C581.733 48.7261 579.458 47.9421 577.675 46.3743C575.892 44.8064 575 42.8697 575 40.564C575 37.2439 576.983 34.4771 580.949 32.2636L580.119 31.6642C579.473 31.2645 579.058 30.9571 578.874 30.7419C577.121 29.2355 576.245 27.2988 576.245 24.9316V28.4823ZM586.206 29.9118L586.482 29.7274C586.667 29.6044 586.805 29.5122 586.897 29.4507C586.989 29.3892 587.143 29.2816 587.358 29.1279C587.574 28.9742 587.758 28.8205 587.912 28.6668C588.065 28.5131 588.235 28.3286 588.419 28.1134C588.603 27.8982 588.773 27.6984 588.926 27.514C589.08 27.3295 589.234 27.0836 589.387 26.7761C589.541 26.4687 589.679 26.2074 589.802 25.9922C589.925 25.777 590.002 25.4696 590.033 25.0699C590.064 24.6703 590.094 24.3321 590.125 24.0555C590.125 22.7335 589.679 21.6114 588.788 20.6892C587.896 19.7669 586.866 19.1828 585.698 18.9369C585.483 18.9061 584.976 18.8908 584.177 18.8908C582.916 18.8908 581.733 19.2904 580.626 20.0897C579.519 20.889 578.95 21.8881 578.92 23.0871C578.92 23.7941 579.119 24.4397 579.519 25.0238C579.919 25.6079 580.318 26.0537 580.718 26.3611C581.118 26.6685 581.886 27.1604 583.024 27.8367C583.239 27.9905 583.408 28.0981 583.531 28.1595L586.206 29.9118ZM584.545 46.7432C586.329 46.7432 587.866 46.2206 589.157 45.1753C590.448 44.1301 591.094 42.8697 591.094 41.3941C591.094 40.8714 591.017 40.3796 590.863 39.9184C590.709 39.4573 590.525 39.073 590.31 38.7656C590.094 38.4582 589.756 38.12 589.295 37.7511C588.834 37.3822 588.48 37.1055 588.235 36.9211C587.989 36.7366 587.543 36.4446 586.897 36.0449C586.252 35.6453 585.837 35.384 585.652 35.261C585.222 34.9843 584.761 34.6923 584.269 34.3848C583.777 34.0774 583.377 33.8161 583.07 33.6009L582.701 33.3703C582.516 33.3703 582.071 33.6317 581.364 34.1543C580.657 34.6769 579.919 35.5223 579.15 36.6905C578.382 37.8587 577.982 39.1191 577.951 40.4718C577.951 42.2856 578.612 43.7766 579.934 44.9448C581.256 46.113 582.793 46.7125 584.545 46.7432Z" fill="white"/>
<path d="M703.995 17.0582L703.395 17.2887C702.965 17.4425 702.35 17.5962 701.551 17.7499C700.751 17.9036 699.86 18.0112 698.876 18.0727H698V15.9515H698.876C700.321 15.89 701.658 15.6594 702.888 15.2598C704.118 14.8601 704.978 14.4912 705.47 14.153C705.962 13.8149 706.393 13.4767 706.762 13.1385C706.823 13.0463 707.007 13.0002 707.315 13.0002C707.592 13.0002 707.853 13.0924 708.099 13.2769V27.0648L708.145 40.8988C708.36 41.114 708.545 41.2523 708.698 41.3138C708.852 41.3753 709.221 41.4367 709.805 41.4982C710.389 41.5597 711.342 41.5905 712.664 41.5905H713.863V43.7117H713.356C712.71 43.6194 710.266 43.5733 706.024 43.5733C701.843 43.5733 699.43 43.6194 698.784 43.7117H698.231V41.5905H699.43C700.106 41.5905 700.69 41.5905 701.182 41.5905C701.674 41.5905 702.058 41.5751 702.335 41.5443C702.611 41.5136 702.857 41.4675 703.072 41.406C703.288 41.3445 703.411 41.3138 703.441 41.3138C703.472 41.3138 703.564 41.2369 703.718 41.0832C703.872 40.9295 703.964 40.868 703.995 40.8988V17.0582Z" fill="white"/>
<path d="M723.086 22.3611C722.256 22.3611 721.61 22.0998 721.149 21.5772C720.688 21.0546 720.442 20.3782 720.411 19.5482C720.411 17.8574 721.149 16.351 722.625 15.0291C724.1 13.7072 725.883 13.0462 727.974 13.0462C729.05 13.0462 729.726 13.0616 730.003 13.0923C732.278 13.4613 734.015 14.2759 735.213 15.5364C736.412 16.7968 737.027 18.1648 737.058 19.6404C737.058 21.239 736.535 22.7915 735.49 24.2979C734.445 25.8042 733 26.8956 731.155 27.5719L731.017 27.6642C731.017 27.6949 731.155 27.741 731.432 27.8025C731.709 27.864 732.155 28.0023 732.769 28.2175C733.384 28.4327 733.968 28.7555 734.522 29.1859C737.043 30.8152 738.303 32.9672 738.303 35.6418C738.303 38.0704 737.35 40.1916 735.444 42.0054C733.538 43.8192 731.125 44.7261 728.204 44.7261C725.745 44.7261 723.624 44.0651 721.841 42.7432C720.058 41.4213 719.166 39.7458 719.166 37.7169C719.166 36.8561 719.443 36.1644 719.996 35.6418C720.549 35.1191 721.241 34.8425 722.071 34.8117C722.932 34.8117 723.639 35.0884 724.192 35.6418C724.746 36.1951 725.022 36.8868 725.022 37.7169C725.022 38.055 724.976 38.3624 724.884 38.6391C724.792 38.9158 724.684 39.1617 724.561 39.3769C724.438 39.5921 724.269 39.7766 724.054 39.9303C723.839 40.084 723.654 40.207 723.501 40.2992C723.347 40.3914 723.193 40.4529 723.04 40.4836C722.886 40.5144 722.763 40.5605 722.671 40.622L722.486 40.6681C724.054 42.0515 725.96 42.7432 728.204 42.7432C729.895 42.7432 731.171 41.9285 732.032 40.2992C732.554 39.2847 732.816 37.7322 732.816 35.6418V34.7195C732.816 31.799 731.832 29.8468 729.864 28.8631C729.403 28.6786 728.466 28.571 727.051 28.5403L725.115 28.4942L724.976 28.402C724.915 28.3097 724.884 28.0638 724.884 27.6642C724.884 27.1108 725.007 26.8341 725.253 26.8341C726.114 26.8341 727.005 26.7573 727.928 26.6035C728.973 26.4498 729.926 25.8042 730.787 24.6668C731.647 23.5293 732.078 21.8078 732.078 19.5021V19.1332C732.078 17.3809 731.54 16.1666 730.464 15.4902C729.787 15.0598 729.065 14.8447 728.296 14.8447C727.313 14.8447 726.406 15.0137 725.576 15.3519C724.746 15.6901 724.162 16.0436 723.823 16.4125C723.485 16.7814 723.316 16.9659 723.316 16.9659H723.455C723.547 16.9966 723.67 17.0273 723.823 17.0581C723.977 17.0888 724.131 17.1657 724.285 17.2887C724.438 17.4116 724.623 17.5192 724.838 17.6114C725.053 17.7037 725.207 17.8728 725.299 18.1187C725.391 18.3646 725.514 18.5952 725.668 18.8104C725.822 19.0256 725.868 19.333 725.806 19.7327C725.806 20.409 725.591 21.0085 725.161 21.5311C724.73 22.0537 724.039 22.3304 723.086 22.3611Z" fill="white"/>
<path fill-rule="evenodd" clip-rule="evenodd" d="M464.386 48.5483C465.188 48.7568 465.669 49.5758 465.46 50.3775L462.063 63.443C461.854 64.2448 461.035 64.7257 460.234 64.5172C459.432 64.3087 458.951 63.4897 459.159 62.688L461.652 53.1026C439.76 65.6592 422.291 72.3622 405.013 72.5233C386.896 72.6923 369.244 65.6685 347.171 51.256L348.812 48.7441C370.679 63.0224 387.731 69.6844 404.985 69.5235C421.478 69.3697 438.387 62.9819 460.101 50.5337L450.566 48.0541C449.764 47.8456 449.283 47.0267 449.492 46.2249C449.7 45.4231 450.519 44.9422 451.321 45.1507L464.386 48.5483Z" fill="#41D519"/>
<path fill-rule="evenodd" clip-rule="evenodd" d="M582.395 48.5483C583.197 48.7568 583.677 49.5758 583.469 50.3775L580.071 63.443C579.863 64.2448 579.044 64.7257 578.242 64.5172C577.44 64.3087 576.959 63.4897 577.168 62.688L579.661 53.1026C557.769 65.6592 540.299 72.3622 523.022 72.5233C504.904 72.6923 487.253 65.6685 465.18 51.256L466.82 48.7441C488.688 63.0224 505.74 69.6844 522.994 69.5235C539.486 69.3697 556.395 62.9819 578.109 50.5337L568.574 48.0541C567.773 47.8456 567.292 47.0267 567.5 46.2249C567.709 45.4231 568.528 44.9422 569.329 45.1507L582.395 48.5483Z" fill="#41D519"/>
<path fill-rule="evenodd" clip-rule="evenodd" d="M700.395 48.5483C701.197 48.7568 701.677 49.5758 701.469 50.3775L698.071 63.443C697.863 64.2448 697.044 64.7257 696.242 64.5172C695.44 64.3087 694.959 63.4897 695.168 62.688L697.661 53.1026C675.769 65.6592 658.299 72.3622 641.022 72.5233C622.904 72.6923 605.253 65.6685 583.18 51.256L584.82 48.7441C606.688 63.0224 623.74 69.6844 640.994 69.5235C657.486 69.3697 674.395 62.9819 696.109 50.5337L686.574 48.0541C685.773 47.8456 685.292 47.0267 685.5 46.2249C685.709 45.4231 686.528 44.9422 687.329 45.1507L700.395 48.5483Z" fill="#41D519"/>
<path d="M356 109.737C356 109.737 356 109.537 356 109.137C356 108.738 356.215 108.43 356.646 108.215H370.433V101.298L370.48 94.3809C370.787 93.9812 371.079 93.7814 371.356 93.7814C371.755 93.7814 372.063 94.012 372.278 94.4731V108.215H386.02C386.481 108.461 386.711 108.768 386.711 109.137C386.711 109.506 386.481 109.813 386.02 110.059H372.278V123.801C372.032 124.232 371.755 124.447 371.448 124.447H371.356H371.264C370.895 124.447 370.618 124.232 370.433 123.801V110.059H356.646C356.215 109.844 356 109.537 356 109.137V109.737Z" fill="white"/>
<path d="M405.396 99.315C404.566 99.315 403.92 99.0537 403.459 98.5311C402.998 98.0084 402.752 97.3321 402.721 96.5021C402.721 94.8112 403.459 93.3049 404.935 91.983C406.41 90.661 408.193 90.0001 410.284 90.0001C411.36 90.0001 412.036 90.0155 412.313 90.0462C414.588 90.4151 416.325 91.2298 417.524 92.4902C418.723 93.7506 419.338 95.1187 419.368 96.5943C419.368 98.1929 418.846 99.7454 417.8 101.252C416.755 102.758 415.31 103.849 413.466 104.526L413.327 104.618C413.327 104.649 413.466 104.695 413.742 104.756C414.019 104.818 414.465 104.956 415.08 105.171C415.695 105.387 416.279 105.709 416.832 106.14C419.353 107.769 420.613 109.921 420.613 112.596C420.613 115.024 419.66 117.145 417.754 118.959C415.848 120.773 413.435 121.68 410.515 121.68C408.055 121.68 405.934 121.019 404.151 119.697C402.368 118.375 401.476 116.7 401.476 114.671C401.476 113.81 401.753 113.118 402.306 112.596C402.86 112.073 403.551 111.796 404.381 111.766C405.242 111.766 405.949 112.042 406.503 112.596C407.056 113.149 407.333 113.841 407.333 114.671C407.333 115.009 407.287 115.316 407.194 115.593C407.102 115.87 406.995 116.116 406.872 116.331C406.749 116.546 406.58 116.73 406.364 116.884C406.149 117.038 405.965 117.161 405.811 117.253C405.657 117.345 405.504 117.407 405.35 117.438C405.196 117.468 405.073 117.514 404.981 117.576L404.796 117.622C406.364 119.005 408.27 119.697 410.515 119.697C412.205 119.697 413.481 118.882 414.342 117.253C414.865 116.239 415.126 114.686 415.126 112.596V111.673C415.126 108.753 414.142 106.801 412.175 105.817C411.713 105.633 410.776 105.525 409.362 105.494L407.425 105.448L407.287 105.356C407.225 105.264 407.194 105.018 407.194 104.618C407.194 104.065 407.317 103.788 407.563 103.788C408.424 103.788 409.316 103.711 410.238 103.557C411.283 103.404 412.236 102.758 413.097 101.621C413.958 100.483 414.388 98.7616 414.388 96.456V96.087C414.388 94.3347 413.85 93.1204 412.774 92.4441C412.098 92.0137 411.375 91.7985 410.607 91.7985C409.623 91.7985 408.716 91.9676 407.886 92.3058C407.056 92.6439 406.472 92.9975 406.134 93.3664C405.796 93.7353 405.627 93.9197 405.627 93.9197H405.765C405.857 93.9505 405.98 93.9812 406.134 94.0119C406.287 94.0427 406.441 94.1195 406.595 94.2425C406.749 94.3655 406.933 94.4731 407.148 94.5653C407.363 94.6575 407.517 94.8266 407.609 95.0726C407.702 95.3185 407.825 95.5491 407.978 95.7643C408.132 95.9794 408.178 96.2869 408.117 96.6865C408.117 97.3628 407.901 97.9623 407.471 98.4849C407.041 99.0076 406.349 99.2842 405.396 99.315Z" fill="white"/>
<path d="M482 108.29C482 108.29 482 108.09 482 107.69C482 107.291 482.215 106.983 482.646 106.768H496.433V99.8511L496.48 92.9341C496.787 92.5345 497.079 92.3346 497.356 92.3346C497.755 92.3346 498.063 92.5652 498.278 93.0263V106.768H512.02C512.481 107.014 512.711 107.321 512.711 107.69C512.711 108.059 512.481 108.367 512.02 108.613H498.278V122.354C498.032 122.785 497.755 123 497.448 123H497.356H497.264C496.895 123 496.618 122.785 496.433 122.354V108.613H482.646C482.215 108.397 482 108.09 482 107.69V108.29Z" fill="white"/>
<path d="M546.844 119.219C546.291 119.127 544.308 119.08 540.896 119.08C537.33 119.08 535.27 119.127 534.717 119.219H534.302V117.098H535.731C536.346 117.098 536.761 117.098 536.976 117.098C537.191 117.098 537.453 117.067 537.76 117.005C538.068 116.944 538.283 116.867 538.406 116.775C538.529 116.683 538.636 116.56 538.729 116.406C538.759 116.344 538.775 115.514 538.775 113.916V111.61H526.831V109.489L533.794 98.8367C538.498 91.7045 540.88 88.123 540.942 88.0923C541.003 88.0308 541.326 88 541.91 88H542.74L543.017 88.2767V109.489H547.259V111.61H543.017V113.962C543.017 115.222 543.017 115.96 543.017 116.175C543.017 116.39 543.109 116.575 543.294 116.729C543.54 116.944 544.416 117.067 545.922 117.098H547.259V119.219H546.844ZM539.051 109.489V94.087L528.953 109.443L533.979 109.489H539.051Z" fill="white"/>
<path d="M608 111.783C608 111.783 608 111.583 608 111.183C608 110.784 608.215 110.476 608.646 110.261H622.433V103.344L622.48 96.427C622.787 96.0274 623.079 95.8276 623.356 95.8276C623.755 95.8276 624.063 96.0581 624.278 96.5193V110.261H638.02C638.481 110.507 638.711 110.814 638.711 111.183C638.711 111.552 638.481 111.86 638.02 112.106H624.278V125.847C624.032 126.278 623.755 126.493 623.448 126.493H623.356H623.264C622.895 126.493 622.618 126.278 622.433 125.847V112.106H608.646C608.215 111.89 608 111.583 608 111.183V111.783Z" fill="white"/>
<path d="M659.108 115.472C659.108 116.21 658.862 116.824 658.37 117.316C657.878 117.808 657.278 118.054 656.571 118.054H656.248C657.663 120.483 659.538 121.697 661.874 121.697C664.026 121.697 665.594 120.775 666.578 118.93C667.162 117.916 667.454 115.948 667.454 113.028C667.454 109.861 667.039 107.725 666.209 106.618C665.41 105.604 664.518 105.096 663.534 105.096H663.258C660.86 105.096 659.046 106.142 657.816 108.232C657.693 108.447 657.586 108.57 657.494 108.601C657.401 108.632 657.171 108.662 656.802 108.693C656.279 108.693 655.987 108.601 655.926 108.416C655.864 108.293 655.833 105.604 655.833 100.347V94.398C655.833 92.8609 655.91 92.0923 656.064 92.0923C656.126 92.0309 656.187 92.0001 656.248 92.0001C656.279 92.0001 656.602 92.1231 657.217 92.369C657.832 92.615 658.677 92.8609 659.753 93.1068C660.829 93.3528 661.982 93.4757 663.212 93.4757C665.394 93.4757 667.485 93.0454 669.483 92.1846C669.729 92.0616 669.929 92.0001 670.082 92.0001C670.328 92.0001 670.451 92.2768 670.451 92.8302V93.4296C667.931 96.4116 664.779 97.9026 660.998 97.9026C660.045 97.9026 659.184 97.8104 658.416 97.6259L657.955 97.5337V105.465C658.539 105.035 659 104.697 659.338 104.451C659.676 104.205 660.23 103.959 660.998 103.713C661.767 103.467 662.551 103.344 663.35 103.344C665.84 103.344 667.946 104.343 669.667 106.341C671.389 108.34 672.25 110.707 672.25 113.443C672.25 116.271 671.266 118.684 669.299 120.683C667.331 122.681 664.933 123.695 662.105 123.726C659.615 123.726 657.617 122.896 656.11 121.236C654.604 119.576 653.851 117.701 653.851 115.61C653.851 114.872 654.02 114.288 654.358 113.858C654.696 113.427 655.05 113.151 655.418 113.028C655.787 112.905 656.141 112.843 656.479 112.843C657.248 112.843 657.878 113.105 658.37 113.627C658.862 114.15 659.108 114.765 659.108 115.472Z" fill="white"/>
<path fill-rule="evenodd" clip-rule="evenodd" d="M531.182 123.989C532.004 124.088 532.59 124.836 532.491 125.658L530.873 139.061C530.773 139.883 530.026 140.469 529.204 140.37C528.381 140.271 527.795 139.524 527.894 138.701L529.082 128.866C509.988 143.501 493.894 152.156 476.106 152.775C457.453 153.425 437.274 145.23 410.152 126.717L411.843 124.239C438.821 142.654 458.333 150.393 476.002 149.777C492.815 149.192 508.265 141.033 527.198 126.53L517.419 125.349C516.597 125.25 516.011 124.502 516.11 123.68C516.209 122.857 516.957 122.271 517.779 122.371L531.182 123.989Z" fill="#E8A1EE"/>
<path fill-rule="evenodd" clip-rule="evenodd" d="M656.184 123.511C657.006 123.61 657.593 124.357 657.493 125.18L655.875 138.582C655.776 139.405 655.028 139.991 654.206 139.892C653.383 139.792 652.797 139.045 652.896 138.223L654.084 128.388C634.99 143.023 618.897 151.678 601.109 152.297C582.455 152.947 562.276 144.752 535.154 126.239L536.846 123.761C563.823 142.176 583.335 149.914 601.004 149.299C617.817 148.713 633.267 140.555 652.2 126.052L642.422 124.871C641.599 124.771 641.013 124.024 641.112 123.202C641.212 122.379 641.959 121.793 642.781 121.892L656.184 123.511Z" fill="#E8A1EE"/>
<path d="M434 185.783C434 185.783 434 185.583 434 185.183C434 184.783 434.215 184.476 434.646 184.261H448.433V177.344L448.48 170.427C448.787 170.027 449.079 169.827 449.356 169.827C449.755 169.827 450.063 170.058 450.278 170.519V184.261H464.02C464.481 184.507 464.711 184.814 464.711 185.183C464.711 185.552 464.481 185.859 464.02 186.105H450.278V199.847C450.032 200.277 449.755 200.493 449.448 200.493H449.356H449.264C448.895 200.493 448.618 200.277 448.433 199.847V186.105H434.646C434.215 185.89 434 185.583 434 185.183V185.783Z" fill="white"/>
<path d="M487.363 170.058L486.764 170.288C486.333 170.442 485.718 170.596 484.919 170.75C484.12 170.903 483.228 171.011 482.245 171.072H481.368V168.951H482.245C483.689 168.89 485.027 168.659 486.256 168.26C487.486 167.86 488.347 167.491 488.839 167.153C489.331 166.815 489.761 166.476 490.13 166.138C490.191 166.046 490.376 166 490.683 166C490.96 166 491.221 166.092 491.467 166.277V180.065L491.513 193.899C491.729 194.114 491.913 194.252 492.067 194.314C492.22 194.375 492.589 194.437 493.173 194.498C493.758 194.559 494.711 194.59 496.032 194.59H497.231V196.711H496.724C496.079 196.619 493.635 196.573 489.392 196.573C485.211 196.573 482.798 196.619 482.152 196.711H481.599V194.59H482.798C483.474 194.59 484.058 194.59 484.55 194.59C485.042 194.59 485.426 194.575 485.703 194.544C485.98 194.513 486.226 194.467 486.441 194.406C486.656 194.344 486.779 194.314 486.81 194.314C486.841 194.314 486.933 194.237 487.086 194.083C487.24 193.929 487.332 193.868 487.363 193.899V170.058Z" fill="white"/>
<path d="M576 185.783C576 185.783 576 185.583 576 185.183C576 184.783 576.215 184.476 576.646 184.261H590.433V177.344L590.48 170.427C590.787 170.027 591.079 169.827 591.356 169.827C591.755 169.827 592.063 170.058 592.278 170.519V184.261H606.02C606.481 184.507 606.711 184.814 606.711 185.183C606.711 185.552 606.481 185.859 606.02 186.105H592.278V199.847C592.032 200.277 591.755 200.493 591.448 200.493H591.356H591.264C590.895 200.493 590.618 200.277 590.433 199.847V186.105H576.646C576.215 185.89 576 185.583 576 185.183V185.783Z" fill="white"/>
<path d="M629.362 170.058L628.763 170.288C628.333 170.442 627.718 170.596 626.918 170.75C626.119 170.903 625.228 171.011 624.244 171.072H623.368V168.951H624.244C625.689 168.89 627.026 168.659 628.256 168.26C629.485 167.86 630.346 167.491 630.838 167.153C631.33 166.815 631.76 166.476 632.129 166.138C632.191 166.046 632.375 166 632.683 166C632.959 166 633.221 166.092 633.466 166.277V180.065L633.513 193.899C633.728 194.114 633.912 194.252 634.066 194.314C634.22 194.375 634.589 194.437 635.173 194.498C635.757 194.559 636.71 194.59 638.032 194.59H639.231V196.711H638.723C638.078 196.619 635.634 196.573 631.391 196.573C627.21 196.573 624.797 196.619 624.152 196.711H623.598V194.59H624.797C625.474 194.59 626.058 194.59 626.549 194.59C627.041 194.59 627.426 194.575 627.702 194.544C627.979 194.513 628.225 194.467 628.44 194.406C628.655 194.344 628.778 194.314 628.809 194.314C628.84 194.314 628.932 194.237 629.086 194.083C629.239 193.929 629.332 193.868 629.362 193.899V170.058Z" fill="white"/>
<path fill-rule="evenodd" clip-rule="evenodd" d="M349 57C363.912 57 376 44.9117 376 30C376 15.0883 363.912 3 349 3C334.088 3 322 15.0883 322 30C322 44.9117 334.088 57 349 57ZM349 60C365.569 60 379 46.5685 379 30C379 13.4315 365.569 0 349 0C332.431 0 319 13.4315 319 30C319 46.5685 332.431 60 349 60Z" fill="#13EBF9"/>
<path fill-rule="evenodd" clip-rule="evenodd" d="M395 137C412.673 137 427 122.673 427 105C427 87.3269 412.673 73 395 73C377.327 73 363 87.3269 363 105C363 122.673 377.327 137 395 137ZM395 140C414.33 140 430 124.33 430 105C430 85.67 414.33 70 395 70C375.67 70 360 85.67 360 105C360 124.33 375.67 140 395 140Z" fill="#13EBF9"/>
<path fill-rule="evenodd" clip-rule="evenodd" d="M474 219C491.673 219 506 204.673 506 187C506 169.327 491.673 155 474 155C456.327 155 442 169.327 442 187C442 204.673 456.327 219 474 219ZM474 222C493.33 222 509 206.33 509 187C509 167.67 493.33 152 474 152C454.67 152 439 167.67 439 187C439 206.33 454.67 222 474 222Z" fill="#13EBF9"/>
<path d="M298.703 252.526C298.234 252.526 298 252.428 298 252.23C298 252.107 298.197 251.417 298.592 250.159C298.986 248.902 299.405 247.657 299.849 246.424L300.478 244.612C300.601 244.168 300.761 243.848 300.959 243.65H318.266H321.595C322.383 243.65 322.852 243.663 323 243.687C323.148 243.712 323.234 243.823 323.259 244.02C323.259 244.168 323.049 245.574 322.63 248.236C322.211 250.899 321.977 252.243 321.927 252.267C321.927 252.44 321.693 252.526 321.225 252.526C321.003 252.526 320.855 252.526 320.781 252.526C320.707 252.526 320.633 252.464 320.559 252.341L320.485 252.23C320.485 252.082 320.559 251.528 320.707 250.566C320.855 249.605 320.929 248.853 320.929 248.31C320.929 247.447 320.769 246.794 320.448 246.35C320.128 245.906 319.45 245.598 318.414 245.426C318.291 245.401 317.576 245.376 316.269 245.352C315.135 245.352 314.42 245.364 314.124 245.389C313.828 245.413 313.606 245.512 313.458 245.684C313.434 245.709 312.559 249.148 310.833 256.002C309.107 262.856 308.244 266.345 308.244 266.468C308.244 266.764 309.329 266.937 311.498 266.986C312.287 266.986 312.793 266.998 313.015 267.023C313.237 267.048 313.348 267.159 313.348 267.356C313.348 267.479 313.311 267.652 313.237 267.874C313.138 268.317 313.027 268.576 312.904 268.65L312.83 268.687C312.756 268.687 312.67 268.687 312.571 268.687C312.448 268.687 311.807 268.675 310.648 268.65C309.489 268.626 307.825 268.613 305.655 268.613C302.475 268.613 300.453 268.638 299.59 268.687H299.035C298.888 268.539 298.814 268.428 298.814 268.354C298.814 268.28 298.838 268.059 298.888 267.689C298.986 267.368 299.109 267.134 299.257 266.986H300.293H300.7C302.672 266.986 303.843 266.875 304.213 266.653C304.238 266.629 304.262 266.616 304.287 266.616C304.41 266.542 304.533 266.296 304.657 265.877C304.78 265.457 305.273 263.522 306.136 260.07C306.555 258.394 306.9 257.026 307.172 255.965C308.897 249.185 309.76 245.721 309.76 245.574C309.76 245.45 309.403 245.389 308.688 245.389H307.541C305.889 245.389 304.805 245.463 304.287 245.61C303.177 245.857 302.315 246.362 301.698 247.127C301.082 247.891 300.416 249.321 299.701 251.417C299.529 251.959 299.405 252.28 299.331 252.378C299.257 252.477 299.085 252.526 298.814 252.526H298.703Z" fill="white"/>
<path d="M324.389 259.123L324.05 259.254C323.806 259.341 323.457 259.428 323.004 259.515C322.551 259.602 322.045 259.663 321.487 259.698H320.99V258.495H321.487C322.307 258.46 323.065 258.33 323.762 258.103C324.459 257.877 324.947 257.667 325.226 257.476C325.505 257.284 325.749 257.092 325.958 256.9C325.993 256.848 326.098 256.822 326.272 256.822C326.429 256.822 326.577 256.874 326.717 256.979V264.797L326.743 272.64C326.865 272.762 326.969 272.841 327.056 272.876C327.144 272.911 327.353 272.945 327.684 272.98C328.015 273.015 328.555 273.033 329.305 273.033H329.985V274.235H329.697C329.331 274.183 327.945 274.157 325.54 274.157C323.169 274.157 321.801 274.183 321.435 274.235H321.121V273.033H321.801C322.184 273.033 322.516 273.033 322.795 273.033C323.073 273.033 323.291 273.024 323.448 273.006C323.605 272.989 323.745 272.963 323.867 272.928C323.989 272.893 324.058 272.876 324.076 272.876C324.093 272.876 324.145 272.832 324.233 272.745C324.32 272.658 324.372 272.623 324.389 272.64V259.123Z" fill="white"/>
<path d="M334.404 258.94C335.38 257.528 336.714 256.822 338.405 256.822C339.241 256.822 340.078 257.048 340.915 257.501C341.751 257.955 342.431 258.756 342.954 259.907C343.599 261.354 343.921 263.341 343.921 265.868C343.921 268.57 343.547 270.636 342.797 272.065C342.448 272.797 341.969 273.381 341.359 273.817C340.749 274.253 340.217 274.523 339.764 274.627C339.311 274.732 338.866 274.793 338.431 274.81C337.977 274.81 337.524 274.758 337.071 274.653C336.618 274.549 336.086 274.27 335.476 273.817C334.866 273.364 334.387 272.78 334.038 272.065C333.289 270.636 332.914 268.57 332.914 265.868C332.914 262.835 333.411 260.526 334.404 258.94ZM340.287 258.626C339.764 258.068 339.145 257.789 338.431 257.789C337.699 257.789 337.071 258.068 336.548 258.626C336.112 259.079 335.825 259.706 335.685 260.508C335.546 261.31 335.476 262.983 335.476 265.528C335.476 268.282 335.546 270.095 335.685 270.967C335.825 271.838 336.139 272.527 336.627 273.032C337.115 273.555 337.716 273.817 338.431 273.817C339.128 273.817 339.721 273.555 340.209 273.032C340.714 272.509 341.028 271.777 341.15 270.836C341.272 269.895 341.342 268.126 341.359 265.528C341.359 263.001 341.289 261.336 341.15 260.534C341.01 259.733 340.723 259.096 340.287 258.626Z" fill="white"/>
<path d="M359.165 255.855C359.165 255.534 359.337 255.288 359.682 255.115H383.24C383.61 255.312 383.795 255.559 383.795 255.855C383.795 256.126 383.622 256.36 383.277 256.558L371.517 256.595H359.756C359.362 256.471 359.165 256.225 359.165 255.855ZM359.165 263.029C359.165 262.66 359.362 262.413 359.756 262.29H383.277C383.622 262.536 383.795 262.783 383.795 263.029C383.795 263.35 383.61 263.596 383.24 263.769H359.682C359.337 263.596 359.165 263.35 359.165 263.029Z" fill="white"/>
<path d="M404.016 247.312L403.535 247.497C403.19 247.62 402.697 247.743 402.056 247.866C401.415 247.99 400.7 248.076 399.911 248.125H399.208V246.424H399.911C401.069 246.375 402.142 246.19 403.128 245.869C404.114 245.549 404.805 245.253 405.199 244.982C405.594 244.711 405.939 244.439 406.235 244.168C406.284 244.094 406.432 244.057 406.678 244.057C406.9 244.057 407.11 244.131 407.307 244.279V255.337L407.344 266.431C407.517 266.604 407.665 266.715 407.788 266.764C407.911 266.814 408.207 266.863 408.675 266.912C409.144 266.961 409.908 266.986 410.968 266.986H411.93V268.687H411.523C411.005 268.613 409.045 268.576 405.643 268.576C402.29 268.576 400.354 268.613 399.837 268.687H399.393V266.986H400.354C400.897 266.986 401.365 266.986 401.76 266.986C402.154 266.986 402.462 266.974 402.684 266.949C402.906 266.924 403.103 266.887 403.276 266.838C403.449 266.789 403.547 266.764 403.572 266.764C403.597 266.764 403.671 266.703 403.794 266.579C403.917 266.456 403.991 266.407 404.016 266.431V247.312Z" fill="white"/>
<path d="M446.146 267.615C446.146 268.108 445.887 268.355 445.37 268.355C445.246 268.355 444.975 268.158 444.556 267.763C444.137 267.369 442.978 266.222 441.08 264.324L437.234 260.478L433.35 264.361C430.737 266.925 429.393 268.232 429.319 268.281C429.221 268.33 429.135 268.355 429.061 268.355C428.863 268.355 428.691 268.281 428.543 268.133C428.395 267.985 428.309 267.813 428.284 267.615C428.284 267.443 428.457 267.172 428.802 266.802C429.147 266.432 430.306 265.261 432.278 263.288L436.124 259.442L432.278 255.596C430.281 253.599 429.122 252.428 428.802 252.083C428.481 251.738 428.309 251.467 428.284 251.269C428.284 251.047 428.358 250.875 428.506 250.752C428.654 250.628 428.839 250.567 429.061 250.567C429.184 250.567 429.27 250.579 429.319 250.604C429.393 250.653 430.737 251.96 433.35 254.524L437.234 258.407L441.08 254.561C442.978 252.662 444.137 251.516 444.556 251.121C444.975 250.727 445.246 250.53 445.37 250.53C445.887 250.53 446.146 250.776 446.146 251.269C446.146 251.442 446.023 251.664 445.776 251.935C445.53 252.206 444.322 253.414 442.152 255.559L438.306 259.442L442.152 263.325C444.223 265.396 445.407 266.592 445.702 266.913C445.998 267.233 446.146 267.467 446.146 267.615Z" fill="white"/>
<path d="M461.686 259.368C461.686 256.532 462.512 253.808 464.164 251.195C465.816 248.581 467.899 246.51 470.414 244.982C472.929 243.453 475.444 242.676 477.958 242.652C480.177 242.652 481.94 243.28 483.247 244.538C483.469 244.784 483.654 244.994 483.802 245.167C483.949 245.339 484.048 245.462 484.097 245.536L484.134 245.647C484.208 245.647 484.541 245.327 485.133 244.686C485.305 244.538 485.49 244.365 485.688 244.168C485.885 243.971 486.082 243.774 486.279 243.576C486.477 243.379 486.6 243.244 486.649 243.17L487.204 242.615H487.426C487.771 242.615 487.943 242.701 487.943 242.874C487.943 242.972 487.549 244.661 486.76 247.94C485.873 251.367 485.429 253.093 485.429 253.118C485.379 253.241 485.318 253.315 485.244 253.34C485.17 253.364 484.948 253.389 484.578 253.414H483.986C483.838 253.266 483.765 253.155 483.765 253.081C483.765 253.056 483.777 252.97 483.802 252.822C483.826 252.674 483.851 252.427 483.875 252.082C483.9 251.737 483.912 251.343 483.912 250.899C483.912 249.148 483.518 247.62 482.729 246.313C481.94 245.006 480.596 244.341 478.698 244.316C478.057 244.316 477.367 244.402 476.627 244.575C475.887 244.747 475 245.043 473.964 245.462C472.929 245.882 471.906 246.572 470.895 247.533C469.884 248.495 468.984 249.641 468.195 250.973C467.406 252.378 466.777 254.018 466.309 255.891C465.841 257.765 465.606 259.294 465.606 260.477C465.606 263.288 466.543 265.309 468.417 266.542C469.6 267.38 471.055 267.8 472.781 267.8C475.024 267.8 477.021 266.961 478.772 265.285C480.522 263.608 481.681 261.784 482.248 259.811C482.347 259.491 482.421 259.306 482.47 259.257C482.519 259.207 482.717 259.183 483.062 259.183C483.555 259.183 483.802 259.294 483.802 259.516C483.802 259.639 483.789 259.75 483.765 259.848C483.05 262.486 481.521 264.755 479.179 266.653C476.837 268.552 474.322 269.501 471.634 269.501C468.848 269.501 466.494 268.576 464.571 266.727C462.648 264.878 461.686 262.425 461.686 259.368Z" fill="white"/>
<path d="M499.328 245.91C498.492 247.234 497.446 247.897 496.191 247.897C494.831 247.897 493.716 247.382 492.844 246.354C491.973 245.326 491.45 244.227 491.275 243.06C491.241 242.781 491.223 242.432 491.223 242.014V241.805C491.223 240.184 491.825 238.772 493.027 237.569C494.073 236.523 495.224 236 496.479 236C496.513 236 496.566 236 496.635 236C496.705 236 496.775 236.009 496.845 236.026H496.949C497.158 236.026 497.376 236.044 497.603 236.079C497.829 236.113 498.152 236.218 498.57 236.392C498.989 236.567 499.398 236.846 499.799 237.229C500.2 237.612 500.575 238.127 500.923 238.772C501.673 240.306 502.048 242.275 502.048 244.681C502.048 247.121 501.525 249.187 500.479 250.877C499.869 251.853 499.137 252.612 498.283 253.152C497.429 253.692 496.522 253.971 495.563 253.989C494.5 253.989 493.629 253.736 492.949 253.231C492.269 252.725 491.92 251.976 491.903 250.982C491.886 249.988 492.347 249.5 493.289 249.518C493.672 249.518 493.995 249.64 494.256 249.884C494.518 250.128 494.648 250.468 494.648 250.904C494.648 251.217 494.57 251.487 494.413 251.714C494.256 251.941 494.117 252.08 493.995 252.132C493.873 252.185 493.759 252.228 493.655 252.263L493.55 252.289C493.55 252.324 493.611 252.376 493.733 252.446C493.855 252.516 494.082 252.603 494.413 252.708C494.744 252.812 495.11 252.856 495.511 252.838H495.668C496.714 252.838 497.594 252.281 498.309 251.165C498.989 250.189 499.328 248.498 499.328 246.093V245.91ZM496.505 246.929C497.341 246.929 498.012 246.502 498.518 245.648C499.023 244.794 499.285 243.635 499.302 242.171C499.302 240.811 499.233 239.835 499.093 239.242C499.058 239.068 499.006 238.894 498.936 238.719C498.867 238.545 498.745 238.318 498.57 238.04C498.396 237.761 498.134 237.525 497.786 237.334C497.437 237.142 497.028 237.055 496.557 237.072C495.895 237.072 495.328 237.307 494.857 237.778C494.491 238.162 494.256 238.615 494.152 239.138C494.047 239.661 493.986 240.576 493.969 241.883C493.969 243.33 494.012 244.306 494.099 244.811C494.186 245.317 494.361 245.727 494.622 246.04C495.058 246.633 495.685 246.929 496.505 246.929Z" fill="white"/>
<path d="M488.789 262.767C489.765 261.355 491.098 260.649 492.789 260.649C493.626 260.649 494.462 260.876 495.299 261.329C496.136 261.782 496.816 262.584 497.339 263.734C497.983 265.181 498.306 267.168 498.306 269.696C498.306 272.397 497.931 274.463 497.182 275.892C496.833 276.624 496.354 277.208 495.744 277.644C495.134 278.08 494.602 278.35 494.149 278.455C493.695 278.559 493.251 278.62 492.815 278.638C492.362 278.638 491.909 278.585 491.456 278.481C491.002 278.376 490.471 278.097 489.861 277.644C489.251 277.191 488.771 276.607 488.423 275.892C487.673 274.463 487.298 272.397 487.298 269.696C487.298 266.663 487.795 264.353 488.789 262.767ZM494.672 262.453C494.149 261.895 493.53 261.616 492.815 261.616C492.083 261.616 491.456 261.895 490.933 262.453C490.497 262.906 490.209 263.534 490.07 264.336C489.93 265.138 489.861 266.811 489.861 269.356C489.861 272.11 489.93 273.923 490.07 274.794C490.209 275.666 490.523 276.354 491.011 276.86C491.499 277.383 492.101 277.644 492.815 277.644C493.512 277.644 494.105 277.383 494.593 276.86C495.099 276.337 495.412 275.605 495.534 274.663C495.656 273.722 495.726 271.953 495.744 269.356C495.744 266.828 495.674 265.164 495.534 264.362C495.395 263.56 495.107 262.924 494.672 262.453Z" fill="white"/>
<path d="M515.34 259.923C515.34 259.923 515.34 259.762 515.34 259.442C515.34 259.121 515.512 258.875 515.857 258.702H526.915V253.155L526.952 247.608C527.198 247.287 527.433 247.127 527.655 247.127C527.975 247.127 528.222 247.312 528.394 247.682V258.702H539.415C539.785 258.9 539.97 259.146 539.97 259.442C539.97 259.738 539.785 259.984 539.415 260.182H528.394V271.202C528.197 271.547 527.975 271.72 527.729 271.72H527.655H527.581C527.285 271.72 527.063 271.547 526.915 271.202V260.182H515.857C515.512 260.009 515.34 259.762 515.34 259.442V259.923Z" fill="white"/>
<path d="M554.954 251.564C554.289 251.564 553.771 251.355 553.401 250.936C553.031 250.517 552.834 249.974 552.809 249.309C552.809 247.953 553.401 246.744 554.584 245.684C555.768 244.624 557.198 244.094 558.874 244.094C559.737 244.094 560.28 244.106 560.502 244.131C562.326 244.427 563.719 245.08 564.681 246.091C565.642 247.102 566.135 248.199 566.16 249.383C566.16 250.665 565.741 251.91 564.902 253.118C564.064 254.326 562.905 255.201 561.426 255.743L561.315 255.817C561.315 255.842 561.426 255.879 561.648 255.928C561.87 255.978 562.227 256.089 562.72 256.261C563.214 256.434 563.682 256.693 564.126 257.038C566.147 258.344 567.158 260.07 567.158 262.215C567.158 264.163 566.394 265.864 564.865 267.319C563.337 268.773 561.401 269.501 559.059 269.501C557.087 269.501 555.386 268.971 553.956 267.911C552.526 266.85 551.811 265.507 551.811 263.879C551.811 263.189 552.033 262.634 552.476 262.215C552.92 261.796 553.475 261.574 554.141 261.55C554.831 261.55 555.398 261.771 555.842 262.215C556.286 262.659 556.508 263.214 556.508 263.879C556.508 264.151 556.471 264.397 556.397 264.619C556.323 264.841 556.236 265.038 556.138 265.211C556.039 265.383 555.903 265.531 555.731 265.655C555.558 265.778 555.41 265.876 555.287 265.95C555.164 266.024 555.041 266.074 554.917 266.098C554.794 266.123 554.695 266.16 554.621 266.209L554.473 266.246C555.731 267.356 557.259 267.911 559.059 267.911C560.415 267.911 561.438 267.257 562.129 265.95C562.548 265.137 562.757 263.892 562.757 262.215V261.476C562.757 259.133 561.969 257.568 560.391 256.779C560.021 256.631 559.269 256.545 558.135 256.52L556.581 256.483L556.471 256.409C556.421 256.335 556.397 256.138 556.397 255.817C556.397 255.374 556.495 255.152 556.692 255.152C557.383 255.152 558.098 255.09 558.837 254.967C559.676 254.844 560.44 254.326 561.13 253.414C561.821 252.501 562.166 251.121 562.166 249.272V248.976C562.166 247.57 561.734 246.597 560.871 246.054C560.329 245.709 559.75 245.536 559.133 245.536C558.344 245.536 557.617 245.672 556.951 245.943C556.286 246.214 555.817 246.498 555.546 246.794C555.275 247.09 555.139 247.238 555.139 247.238H555.25C555.324 247.262 555.423 247.287 555.546 247.312C555.669 247.336 555.793 247.398 555.916 247.496C556.039 247.595 556.187 247.681 556.36 247.755C556.532 247.829 556.655 247.965 556.729 248.162C556.803 248.359 556.902 248.544 557.025 248.717C557.149 248.889 557.186 249.136 557.136 249.456C557.136 249.999 556.964 250.48 556.618 250.899C556.273 251.318 555.719 251.54 554.954 251.564Z" fill="white"/>
<path d="M600.265 267.615C600.265 268.108 600.006 268.355 599.488 268.355C599.365 268.355 599.094 268.158 598.674 267.763C598.255 267.369 597.097 266.222 595.198 264.324L591.352 260.478L587.469 264.361C584.855 266.925 583.512 268.232 583.438 268.281C583.339 268.33 583.253 268.355 583.179 268.355C582.982 268.355 582.809 268.281 582.661 268.133C582.513 267.985 582.427 267.813 582.402 267.615C582.402 267.443 582.575 267.172 582.92 266.802C583.265 266.432 584.424 265.261 586.396 263.288L590.243 259.442L586.396 255.596C584.399 253.599 583.241 252.428 582.92 252.083C582.6 251.738 582.427 251.467 582.402 251.269C582.402 251.047 582.476 250.875 582.624 250.752C582.772 250.628 582.957 250.567 583.179 250.567C583.302 250.567 583.389 250.579 583.438 250.604C583.512 250.653 584.855 251.96 587.469 254.524L591.352 258.407L595.198 254.561C597.097 252.662 598.255 251.516 598.674 251.121C599.094 250.727 599.365 250.53 599.488 250.53C600.006 250.53 600.265 250.776 600.265 251.269C600.265 251.442 600.141 251.664 599.895 251.935C599.648 252.206 598.44 253.414 596.271 255.559L592.424 259.442L596.271 263.325C598.342 265.396 599.525 266.592 599.821 266.913C600.117 267.233 600.265 267.467 600.265 267.615Z" fill="white"/>
<path d="M615.805 259.369C615.805 256.533 616.631 253.809 618.282 251.196C619.934 248.582 622.018 246.511 624.532 244.983C627.047 243.454 629.562 242.677 632.077 242.653C634.296 242.653 636.058 243.281 637.365 244.539C637.587 244.785 637.772 244.995 637.92 245.168C638.068 245.34 638.166 245.463 638.216 245.537L638.253 245.648C638.327 245.648 638.66 245.328 639.251 244.687C639.424 244.539 639.609 244.366 639.806 244.169C640.003 243.972 640.2 243.775 640.398 243.577C640.595 243.38 640.718 243.244 640.768 243.171L641.322 242.616H641.544C641.889 242.616 642.062 242.702 642.062 242.875C642.062 242.973 641.667 244.662 640.878 247.941C639.991 251.368 639.547 253.094 639.547 253.119C639.498 253.242 639.436 253.316 639.362 253.341C639.288 253.365 639.066 253.39 638.697 253.415H638.105C637.957 253.267 637.883 253.156 637.883 253.082C637.883 253.057 637.895 252.971 637.92 252.823C637.945 252.675 637.969 252.428 637.994 252.083C638.019 251.738 638.031 251.344 638.031 250.9C638.031 249.149 637.636 247.621 636.847 246.314C636.058 245.007 634.715 244.342 632.816 244.317C632.175 244.317 631.485 244.403 630.745 244.576C630.006 244.748 629.118 245.044 628.083 245.463C627.047 245.883 626.024 246.573 625.013 247.534C624.002 248.496 623.102 249.642 622.314 250.974C621.525 252.379 620.896 254.019 620.427 255.892C619.959 257.766 619.725 259.295 619.725 260.478C619.725 263.289 620.662 265.31 622.535 266.543C623.719 267.381 625.173 267.801 626.899 267.801C629.143 267.801 631.14 266.962 632.89 265.286C634.641 263.609 635.8 261.785 636.367 259.812C636.465 259.492 636.539 259.307 636.589 259.258C636.638 259.208 636.835 259.184 637.18 259.184C637.673 259.184 637.92 259.295 637.92 259.517C637.92 259.64 637.908 259.751 637.883 259.849C637.168 262.487 635.639 264.756 633.297 266.654C630.955 268.553 628.44 269.502 625.753 269.502C622.967 269.502 620.612 268.577 618.689 266.728C616.766 264.879 615.805 262.426 615.805 259.369Z" fill="white"/>
<path d="M653.447 245.911C652.611 247.235 651.565 247.898 650.31 247.898C648.95 247.898 647.835 247.383 646.963 246.355C646.092 245.327 645.569 244.228 645.394 243.061C645.359 242.782 645.342 242.433 645.342 242.015V241.806C645.342 240.185 645.943 238.773 647.146 237.57C648.192 236.524 649.342 236.001 650.597 236.001C650.632 236.001 650.685 236.001 650.754 236.001C650.824 236.001 650.894 236.01 650.963 236.027H651.068C651.277 236.027 651.495 236.045 651.722 236.08C651.948 236.114 652.271 236.219 652.689 236.393C653.107 236.568 653.517 236.847 653.918 237.23C654.319 237.613 654.694 238.128 655.042 238.773C655.792 240.307 656.167 242.276 656.167 244.682C656.167 247.122 655.644 249.188 654.598 250.878C653.988 251.854 653.256 252.613 652.402 253.153C651.547 253.693 650.641 253.972 649.682 253.99C648.619 253.99 647.747 253.737 647.068 253.232C646.388 252.726 646.039 251.976 646.022 250.983C646.004 249.989 646.466 249.501 647.408 249.519C647.791 249.519 648.114 249.641 648.375 249.885C648.636 250.129 648.767 250.469 648.767 250.904C648.767 251.218 648.689 251.488 648.532 251.715C648.375 251.942 648.236 252.081 648.114 252.133C647.992 252.186 647.878 252.229 647.774 252.264L647.669 252.29C647.669 252.325 647.73 252.377 647.852 252.447C647.974 252.517 648.201 252.604 648.532 252.709C648.863 252.813 649.229 252.857 649.63 252.839H649.787C650.833 252.839 651.713 252.282 652.428 251.166C653.107 250.19 653.447 248.499 653.447 246.094V245.911ZM650.624 246.93C651.46 246.93 652.131 246.503 652.637 245.649C653.142 244.795 653.404 243.636 653.421 242.172C653.421 240.812 653.352 239.836 653.212 239.243C653.177 239.069 653.125 238.895 653.055 238.72C652.985 238.546 652.863 238.319 652.689 238.041C652.515 237.762 652.253 237.526 651.905 237.335C651.556 237.143 651.147 237.056 650.676 237.073C650.014 237.073 649.447 237.308 648.976 237.779C648.61 238.163 648.375 238.616 648.27 239.139C648.166 239.662 648.105 240.577 648.087 241.884C648.087 243.331 648.131 244.307 648.218 244.812C648.305 245.318 648.48 245.728 648.741 246.041C649.177 246.634 649.804 246.93 650.624 246.93Z" fill="white"/>
<path d="M645.967 262.95L645.627 263.081C645.383 263.168 645.034 263.255 644.581 263.342C644.128 263.43 643.622 263.491 643.064 263.525H642.568V262.323H643.064C643.884 262.288 644.642 262.157 645.339 261.93C646.036 261.704 646.524 261.495 646.803 261.303C647.082 261.111 647.326 260.92 647.535 260.728C647.57 260.675 647.675 260.649 647.849 260.649C648.006 260.649 648.154 260.702 648.294 260.806V268.624L648.32 276.468C648.442 276.59 648.546 276.668 648.634 276.703C648.721 276.738 648.93 276.773 649.261 276.808C649.592 276.843 650.133 276.86 650.882 276.86H651.562V278.063H651.274C650.908 278.01 649.523 277.984 647.117 277.984C644.746 277.984 643.378 278.01 643.012 278.063H642.698V276.86H643.378C643.762 276.86 644.093 276.86 644.372 276.86C644.651 276.86 644.868 276.851 645.025 276.834C645.182 276.816 645.322 276.79 645.444 276.755C645.566 276.721 645.635 276.703 645.653 276.703C645.67 276.703 645.723 276.66 645.81 276.572C645.897 276.485 645.949 276.45 645.967 276.468V262.95Z" fill="white"/>
<path d="M669.458 259.923C669.458 259.923 669.458 259.762 669.458 259.442C669.458 259.121 669.63 258.875 669.976 258.702H681.033V253.155L681.07 247.608C681.317 247.287 681.551 247.127 681.773 247.127C682.093 247.127 682.34 247.312 682.512 247.682V258.702H693.533C693.903 258.9 694.088 259.146 694.088 259.442C694.088 259.738 693.903 259.984 693.533 260.182H682.512V271.202C682.315 271.547 682.093 271.72 681.847 271.72H681.773H681.699C681.403 271.72 681.181 271.547 681.033 271.202V260.182H669.976C669.63 260.009 669.458 259.762 669.458 259.442V259.923Z" fill="white"/>
<path d="M712.253 247.312L711.773 247.497C711.428 247.62 710.934 247.743 710.293 247.866C709.652 247.99 708.937 248.076 708.148 248.125H707.446V246.424H708.148C709.307 246.375 710.38 246.19 711.366 245.869C712.352 245.549 713.042 245.253 713.437 244.982C713.831 244.711 714.177 244.439 714.472 244.168C714.522 244.094 714.67 244.057 714.916 244.057C715.138 244.057 715.348 244.131 715.545 244.279V255.337L715.582 266.431C715.754 266.604 715.902 266.715 716.026 266.764C716.149 266.814 716.445 266.863 716.913 266.912C717.382 266.961 718.146 266.986 719.206 266.986H720.168V268.687H719.761C719.243 268.613 717.283 268.576 713.881 268.576C710.528 268.576 708.592 268.613 708.074 268.687H707.631V266.986H708.592C709.135 266.986 709.603 266.986 709.998 266.986C710.392 266.986 710.7 266.974 710.922 266.949C711.144 266.924 711.341 266.887 711.514 266.838C711.686 266.789 711.785 266.764 711.81 266.764C711.834 266.764 711.908 266.703 712.032 266.579C712.155 266.456 712.229 266.407 712.253 266.431V247.312Z" fill="white"/>
<path d="M754.388 267.615C754.388 268.108 754.129 268.355 753.612 268.355C753.488 268.355 753.217 268.158 752.798 267.763C752.379 267.369 751.22 266.222 749.322 264.324L745.476 260.478L741.592 264.361C738.979 266.925 737.635 268.232 737.561 268.281C737.463 268.33 737.376 268.355 737.303 268.355C737.105 268.355 736.933 268.281 736.785 268.133C736.637 267.985 736.551 267.813 736.526 267.615C736.526 267.443 736.698 267.172 737.044 266.802C737.389 266.432 738.548 265.261 740.52 263.288L744.366 259.442L740.52 255.596C738.523 253.599 737.364 252.428 737.044 252.083C736.723 251.738 736.551 251.467 736.526 251.269C736.526 251.047 736.6 250.875 736.748 250.752C736.896 250.628 737.081 250.567 737.303 250.567C737.426 250.567 737.512 250.579 737.561 250.604C737.635 250.653 738.979 251.96 741.592 254.524L745.476 258.407L749.322 254.561C751.22 252.662 752.379 251.516 752.798 251.121C753.217 250.727 753.488 250.53 753.612 250.53C754.129 250.53 754.388 250.776 754.388 251.269C754.388 251.442 754.265 251.664 754.018 251.935C753.772 252.206 752.564 253.414 750.394 255.559L746.548 259.442L750.394 263.325C752.465 265.396 753.649 266.592 753.944 266.913C754.24 267.233 754.388 267.467 754.388 267.615Z" fill="white"/>
<path d="M769.928 259.369C769.928 256.533 770.754 253.809 772.406 251.196C774.057 248.582 776.141 246.511 778.655 244.983C781.17 243.454 783.685 242.677 786.2 242.653C788.419 242.653 790.182 243.281 791.488 244.539C791.71 244.785 791.895 244.995 792.043 245.168C792.191 245.34 792.29 245.463 792.339 245.537L792.376 245.648C792.45 245.648 792.783 245.328 793.374 244.687C793.547 244.539 793.732 244.366 793.929 244.169C794.126 243.972 794.324 243.775 794.521 243.577C794.718 243.38 794.841 243.244 794.891 243.171L795.445 242.616H795.667C796.012 242.616 796.185 242.702 796.185 242.875C796.185 242.973 795.79 244.662 795.002 247.941C794.114 251.368 793.67 253.094 793.67 253.119C793.621 253.242 793.559 253.316 793.485 253.341C793.411 253.365 793.189 253.39 792.82 253.415H792.228C792.08 253.267 792.006 253.156 792.006 253.082C792.006 253.057 792.018 252.971 792.043 252.823C792.068 252.675 792.092 252.428 792.117 252.083C792.142 251.738 792.154 251.344 792.154 250.9C792.154 249.149 791.759 247.621 790.97 246.314C790.182 245.007 788.838 244.342 786.939 244.317C786.298 244.317 785.608 244.403 784.868 244.576C784.129 244.748 783.241 245.044 782.206 245.463C781.17 245.883 780.147 246.573 779.136 247.534C778.125 248.496 777.226 249.642 776.437 250.974C775.648 252.379 775.019 254.019 774.55 255.892C774.082 257.766 773.848 259.295 773.848 260.478C773.848 263.289 774.785 265.31 776.658 266.543C777.842 267.381 779.297 267.801 781.022 267.801C783.266 267.801 785.263 266.962 787.013 265.286C788.764 263.609 789.923 261.785 790.49 259.812C790.588 259.492 790.662 259.307 790.712 259.258C790.761 259.208 790.958 259.184 791.303 259.184C791.796 259.184 792.043 259.295 792.043 259.517C792.043 259.64 792.031 259.751 792.006 259.849C791.291 262.487 789.762 264.756 787.42 266.654C785.078 268.553 782.563 269.502 779.876 269.502C777.09 269.502 774.735 268.577 772.812 266.728C770.889 264.879 769.928 262.426 769.928 259.369Z" fill="white"/>
<path d="M807.57 245.911C806.733 247.235 805.687 247.898 804.432 247.898C803.073 247.898 801.957 247.383 801.085 246.355C800.214 245.327 799.691 244.228 799.517 243.061C799.482 242.782 799.464 242.433 799.464 242.015V241.806C799.464 240.185 800.066 238.773 801.268 237.57C802.314 236.524 803.465 236.001 804.72 236.001C804.755 236.001 804.807 236.001 804.877 236.001C804.946 236.001 805.016 236.01 805.086 236.027H805.19C805.4 236.027 805.617 236.045 805.844 236.08C806.071 236.114 806.393 236.219 806.811 236.393C807.23 236.568 807.639 236.847 808.04 237.23C808.441 237.613 808.816 238.128 809.165 238.773C809.914 240.307 810.289 242.276 810.289 244.682C810.289 247.122 809.766 249.188 808.72 250.878C808.11 251.854 807.378 252.613 806.524 253.153C805.67 253.693 804.763 253.972 803.805 253.99C802.741 253.99 801.87 253.737 801.19 253.232C800.51 252.726 800.162 251.976 800.144 250.983C800.127 249.989 800.589 249.501 801.53 249.519C801.913 249.519 802.236 249.641 802.497 249.885C802.759 250.129 802.89 250.469 802.89 250.904C802.89 251.218 802.811 251.488 802.654 251.715C802.497 251.942 802.358 252.081 802.236 252.133C802.114 252.186 802.001 252.229 801.896 252.264L801.791 252.29C801.791 252.325 801.852 252.377 801.974 252.447C802.096 252.517 802.323 252.604 802.654 252.709C802.985 252.813 803.351 252.857 803.752 252.839H803.909C804.955 252.839 805.835 252.282 806.55 251.166C807.23 250.19 807.57 248.499 807.57 246.094V245.911ZM804.746 246.93C805.583 246.93 806.254 246.503 806.759 245.649C807.265 244.795 807.526 243.636 807.544 242.172C807.544 240.812 807.474 239.836 807.334 239.243C807.3 239.069 807.247 238.895 807.178 238.72C807.108 238.546 806.986 238.319 806.811 238.041C806.637 237.762 806.376 237.526 806.027 237.335C805.678 237.143 805.269 237.056 804.798 237.073C804.136 237.073 803.569 237.308 803.099 237.779C802.733 238.163 802.497 238.616 802.393 239.139C802.288 239.662 802.227 240.577 802.21 241.884C802.21 243.331 802.253 244.307 802.34 244.812C802.428 245.318 802.602 245.728 802.863 246.041C803.299 246.634 803.927 246.93 804.746 246.93Z" fill="white"/>
<path d="M797.371 266.846C796.901 266.846 796.526 266.689 796.247 266.375C795.968 266.062 795.829 265.678 795.829 265.225C795.829 263.987 796.291 262.915 797.214 262.009C798.138 261.103 799.289 260.649 800.666 260.649C802.252 260.649 803.577 261.137 804.64 262.114C805.703 263.09 806.244 264.353 806.261 265.905C806.261 266.654 806.087 267.369 805.738 268.049C805.389 268.729 804.971 269.321 804.483 269.827C803.995 270.332 803.298 270.977 802.391 271.761C801.764 272.302 800.892 273.104 799.777 274.167L798.234 275.631L800.221 275.657C802.958 275.657 804.413 275.614 804.588 275.527C804.71 275.492 804.919 274.716 805.215 273.2V273.121H806.261V273.2C806.244 273.252 806.13 274.045 805.921 275.579C805.712 277.113 805.581 277.915 805.529 277.984V278.063H795.829V277.566V277.252C795.829 277.13 795.881 276.999 795.985 276.86C796.09 276.721 796.352 276.416 796.77 275.945C797.275 275.387 797.711 274.899 798.077 274.481C798.234 274.306 798.53 273.984 798.966 273.513C799.402 273.043 799.698 272.72 799.855 272.546C800.012 272.372 800.265 272.084 800.613 271.683C800.962 271.282 801.206 270.986 801.345 270.794C801.485 270.602 801.685 270.341 801.947 270.01C802.208 269.679 802.391 269.4 802.496 269.173C802.6 268.946 802.731 268.694 802.888 268.415C803.045 268.136 803.158 267.857 803.228 267.578C803.298 267.299 803.359 267.038 803.411 266.794C803.463 266.55 803.489 266.262 803.489 265.931C803.489 264.833 803.193 263.883 802.6 263.081C802.008 262.279 801.162 261.878 800.064 261.878C799.489 261.878 798.984 262.026 798.548 262.323C798.112 262.619 797.807 262.907 797.633 263.186C797.458 263.464 797.371 263.63 797.371 263.682C797.371 263.7 797.415 263.708 797.502 263.708C797.816 263.708 798.138 263.83 798.469 264.074C798.801 264.319 798.966 264.719 798.966 265.277C798.966 265.713 798.827 266.079 798.548 266.375C798.269 266.672 797.877 266.829 797.371 266.846Z" fill="white"/>
<path d="M359 338.798C359 338.477 359.173 338.231 359.518 338.058H383.075C383.445 338.255 383.63 338.502 383.63 338.798C383.63 339.069 383.457 339.303 383.112 339.5L371.352 339.537H359.592C359.197 339.414 359 339.168 359 338.798ZM359 345.972C359 345.602 359.197 345.356 359.592 345.233H383.112C383.457 345.479 383.63 345.726 383.63 345.972C383.63 346.293 383.445 346.539 383.075 346.712H359.518C359.173 346.539 359 346.293 359 345.972Z" fill="white"/>
<path d="M403.852 330.255L403.371 330.439C403.026 330.563 402.533 330.686 401.892 330.809C401.251 330.933 400.536 331.019 399.747 331.068H399.044V329.367H399.747C400.906 329.318 401.978 329.133 402.964 328.812C403.95 328.492 404.641 328.196 405.035 327.925C405.43 327.653 405.775 327.382 406.071 327.111C406.12 327.037 406.268 327 406.515 327C406.736 327 406.946 327.074 407.143 327.222V338.28L407.18 349.374C407.353 349.547 407.501 349.658 407.624 349.707C407.747 349.756 408.043 349.806 408.512 349.855C408.98 349.904 409.744 349.929 410.804 349.929H411.766V351.63H411.359C410.841 351.556 408.881 351.519 405.479 351.519C402.126 351.519 400.191 351.556 399.673 351.63H399.229V349.929H400.191C400.733 349.929 401.201 349.929 401.596 349.929C401.99 349.929 402.299 349.917 402.52 349.892C402.742 349.867 402.94 349.83 403.112 349.781C403.285 349.732 403.383 349.707 403.408 349.707C403.433 349.707 403.507 349.645 403.63 349.522C403.753 349.399 403.827 349.35 403.852 349.374V330.255Z" fill="white"/>
<path d="M424.754 342.866C424.754 342.866 424.754 342.705 424.754 342.385C424.754 342.064 424.927 341.818 425.272 341.645H436.33V336.098L436.366 330.551C436.613 330.23 436.847 330.07 437.069 330.07C437.39 330.07 437.636 330.255 437.809 330.625V341.645H448.829C449.199 341.842 449.384 342.089 449.384 342.385C449.384 342.681 449.199 342.927 448.829 343.124H437.809V354.145C437.612 354.49 437.39 354.663 437.143 354.663H437.069H436.995C436.699 354.663 436.477 354.49 436.33 354.145V343.124H425.272C424.927 342.952 424.754 342.705 424.754 342.385V342.866Z" fill="white"/>
<path d="M464.368 334.507C463.703 334.507 463.185 334.298 462.815 333.879C462.445 333.46 462.248 332.917 462.223 332.251C462.223 330.895 462.815 329.687 463.999 328.627C465.182 327.567 466.612 327.037 468.288 327.037C469.151 327.037 469.694 327.049 469.916 327.074C471.74 327.37 473.133 328.023 474.095 329.034C475.056 330.045 475.549 331.142 475.574 332.325C475.574 333.607 475.155 334.852 474.316 336.061C473.478 337.269 472.319 338.144 470.84 338.686L470.729 338.76C470.729 338.785 470.84 338.822 471.062 338.871C471.284 338.921 471.641 339.031 472.135 339.204C472.628 339.377 473.096 339.636 473.54 339.981C475.562 341.287 476.572 343.013 476.572 345.158C476.572 347.106 475.808 348.807 474.279 350.262C472.751 351.716 470.816 352.444 468.473 352.444C466.501 352.444 464.8 351.914 463.37 350.853C461.94 349.793 461.225 348.45 461.225 346.822C461.225 346.132 461.447 345.577 461.891 345.158C462.334 344.739 462.889 344.517 463.555 344.492C464.245 344.492 464.812 344.714 465.256 345.158C465.7 345.602 465.922 346.157 465.922 346.822C465.922 347.094 465.885 347.34 465.811 347.562C465.737 347.784 465.65 347.981 465.552 348.154C465.453 348.326 465.318 348.474 465.145 348.597C464.972 348.721 464.824 348.819 464.701 348.893C464.578 348.967 464.455 349.017 464.331 349.041C464.208 349.066 464.109 349.103 464.035 349.152L463.888 349.189C465.145 350.299 466.674 350.853 468.473 350.853C469.829 350.853 470.853 350.2 471.543 348.893C471.962 348.08 472.172 346.835 472.172 345.158V344.419C472.172 342.076 471.383 340.511 469.805 339.722C469.435 339.574 468.683 339.488 467.549 339.463L465.996 339.426L465.885 339.352C465.835 339.278 465.811 339.081 465.811 338.76C465.811 338.316 465.909 338.095 466.106 338.095C466.797 338.095 467.512 338.033 468.251 337.91C469.09 337.786 469.854 337.269 470.544 336.356C471.235 335.444 471.58 334.064 471.58 332.214V331.919C471.58 330.513 471.148 329.539 470.285 328.997C469.743 328.652 469.164 328.479 468.547 328.479C467.758 328.479 467.031 328.615 466.365 328.886C465.7 329.157 465.231 329.441 464.96 329.737C464.689 330.033 464.553 330.18 464.553 330.18H464.664C464.738 330.205 464.837 330.23 464.96 330.254C465.083 330.279 465.207 330.341 465.33 330.439C465.453 330.538 465.601 330.624 465.774 330.698C465.946 330.772 466.069 330.908 466.143 331.105C466.217 331.302 466.316 331.487 466.439 331.66C466.563 331.832 466.6 332.079 466.55 332.399C466.55 332.942 466.378 333.423 466.033 333.842C465.687 334.261 465.133 334.483 464.368 334.507Z" fill="white"/>
<path d="M509.679 350.558C509.679 351.051 509.42 351.298 508.903 351.298C508.779 351.298 508.508 351.101 508.089 350.706C507.67 350.312 506.511 349.165 504.613 347.267L500.767 343.421L496.883 347.304C494.27 349.868 492.926 351.175 492.852 351.224C492.754 351.273 492.667 351.298 492.594 351.298C492.396 351.298 492.224 351.224 492.076 351.076C491.928 350.928 491.842 350.755 491.817 350.558C491.817 350.386 491.989 350.114 492.335 349.745C492.68 349.375 493.839 348.204 495.811 346.231L499.657 342.385L495.811 338.539C493.814 336.542 492.655 335.371 492.335 335.026C492.014 334.681 491.842 334.409 491.817 334.212C491.817 333.99 491.891 333.818 492.039 333.694C492.187 333.571 492.372 333.51 492.594 333.51C492.717 333.51 492.803 333.522 492.852 333.546C492.926 333.596 494.27 334.902 496.883 337.467L500.767 341.35L504.613 337.504C506.511 335.605 507.67 334.459 508.089 334.064C508.508 333.67 508.779 333.473 508.903 333.473C509.42 333.473 509.679 333.719 509.679 334.212C509.679 334.385 509.556 334.607 509.309 334.878C509.063 335.149 507.855 336.357 505.685 338.502L501.839 342.385L505.685 346.268C507.756 348.339 508.94 349.535 509.235 349.856C509.531 350.176 509.679 350.41 509.679 350.558Z" fill="white"/>
<path d="M536.392 341.016C535.209 342.89 533.73 343.827 531.955 343.827C530.031 343.827 528.454 343.099 527.221 341.645C525.988 340.19 525.248 338.637 525.002 336.985C524.953 336.591 524.928 336.098 524.928 335.506V335.21C524.928 332.917 525.779 330.92 527.48 329.219C528.959 327.74 530.586 327 532.361 327C532.411 327 532.485 327 532.583 327C532.682 327 532.78 327.012 532.879 327.037H533.027C533.323 327.037 533.631 327.062 533.952 327.111C534.272 327.16 534.728 327.308 535.32 327.555C535.912 327.801 536.491 328.196 537.058 328.738C537.625 329.281 538.155 330.008 538.648 330.92C539.708 333.09 540.239 335.876 540.239 339.278C540.239 342.73 539.499 345.651 538.02 348.043C537.157 349.423 536.121 350.496 534.913 351.26C533.705 352.024 532.423 352.419 531.067 352.444C529.563 352.444 528.33 352.086 527.369 351.371C526.407 350.656 525.914 349.596 525.89 348.191C525.865 346.785 526.518 346.095 527.85 346.12C528.392 346.12 528.848 346.292 529.218 346.637C529.588 346.983 529.773 347.463 529.773 348.08C529.773 348.524 529.662 348.906 529.44 349.226C529.218 349.547 529.021 349.744 528.848 349.818C528.675 349.892 528.515 349.953 528.367 350.003L528.219 350.04C528.219 350.089 528.306 350.163 528.478 350.262C528.651 350.36 528.971 350.484 529.44 350.631C529.908 350.779 530.426 350.841 530.993 350.816H531.215C532.694 350.816 533.939 350.027 534.95 348.45C535.912 347.069 536.392 344.677 536.392 341.275V341.016ZM532.398 342.458C533.582 342.458 534.531 341.854 535.246 340.646C535.961 339.438 536.331 337.799 536.355 335.728C536.355 333.805 536.257 332.424 536.06 331.586C536.01 331.339 535.936 331.093 535.838 330.846C535.739 330.6 535.566 330.279 535.32 329.885C535.073 329.49 534.704 329.157 534.21 328.886C533.717 328.615 533.138 328.492 532.472 328.516C531.535 328.516 530.734 328.849 530.068 329.515C529.551 330.057 529.218 330.698 529.07 331.438C528.922 332.177 528.836 333.472 528.811 335.321C528.811 337.367 528.873 338.748 528.996 339.463C529.119 340.178 529.366 340.757 529.736 341.201C530.352 342.039 531.24 342.458 532.398 342.458Z" fill="white"/>
<path d="M552.153 342.866C552.153 342.866 552.153 342.705 552.153 342.385C552.153 342.064 552.326 341.818 552.671 341.645H563.728V336.098L563.765 330.551C564.012 330.23 564.246 330.07 564.468 330.07C564.789 330.07 565.035 330.255 565.208 330.625V341.645H576.228C576.598 341.842 576.783 342.089 576.783 342.385C576.783 342.681 576.598 342.927 576.228 343.124H565.208V354.145C565.01 354.49 564.789 354.663 564.542 354.663H564.468H564.394C564.098 354.663 563.876 354.49 563.728 354.145V343.124H552.671C552.326 342.952 552.153 342.705 552.153 342.385V342.866Z" fill="white"/>
<path d="M594.949 330.255L594.468 330.439C594.123 330.563 593.63 330.686 592.988 330.809C592.347 330.933 591.632 331.019 590.844 331.068H590.141V329.367H590.844C592.002 329.318 593.075 329.133 594.061 328.812C595.047 328.492 595.737 328.196 596.132 327.925C596.526 327.653 596.872 327.382 597.167 327.111C597.217 327.037 597.365 327 597.611 327C597.833 327 598.043 327.074 598.24 327.222V338.28L598.277 349.374C598.449 349.547 598.597 349.658 598.721 349.707C598.844 349.756 599.14 349.806 599.608 349.855C600.077 349.904 600.841 349.929 601.901 349.929H602.863V351.63H602.456C601.938 351.556 599.978 351.519 596.576 351.519C593.223 351.519 591.287 351.556 590.77 351.63H590.326V349.929H591.287C591.83 349.929 592.298 349.929 592.693 349.929C593.087 349.929 593.395 349.917 593.617 349.892C593.839 349.867 594.036 349.83 594.209 349.781C594.381 349.732 594.48 349.707 594.505 349.707C594.529 349.707 594.603 349.645 594.727 349.522C594.85 349.399 594.924 349.35 594.949 349.374V330.255Z" fill="white"/>
<path d="M637.08 350.558C637.08 351.051 636.821 351.298 636.303 351.298C636.18 351.298 635.908 351.101 635.489 350.706C635.07 350.312 633.911 349.165 632.013 347.267L628.167 343.421L624.284 347.304C621.67 349.868 620.327 351.175 620.253 351.224C620.154 351.273 620.068 351.298 619.994 351.298C619.797 351.298 619.624 351.224 619.476 351.076C619.328 350.928 619.242 350.755 619.217 350.558C619.217 350.386 619.39 350.114 619.735 349.745C620.08 349.375 621.239 348.204 623.211 346.231L627.057 342.385L623.211 338.539C621.214 336.542 620.056 335.371 619.735 335.026C619.415 334.681 619.242 334.409 619.217 334.212C619.217 333.99 619.291 333.818 619.439 333.694C619.587 333.571 619.772 333.51 619.994 333.51C620.117 333.51 620.203 333.522 620.253 333.546C620.327 333.596 621.67 334.902 624.284 337.467L628.167 341.35L632.013 337.504C633.911 335.605 635.07 334.459 635.489 334.064C635.908 333.67 636.18 333.473 636.303 333.473C636.821 333.473 637.08 333.719 637.08 334.212C637.08 334.385 636.956 334.607 636.71 334.878C636.463 335.149 635.255 336.357 633.086 338.502L629.239 342.385L633.086 346.268C635.157 348.339 636.34 349.535 636.636 349.856C636.932 350.176 637.08 350.41 637.08 350.558Z" fill="white"/>
<path d="M671.927 316.016C670.744 317.89 669.264 318.827 667.489 318.827C665.566 318.827 663.988 318.099 662.756 316.645C661.523 315.19 660.783 313.637 660.537 311.985C660.487 311.591 660.463 311.098 660.463 310.506V310.21C660.463 307.917 661.313 305.92 663.014 304.219C664.494 302.74 666.121 302 667.896 302C667.945 302 668.019 302 668.118 302C668.217 302 668.315 302.012 668.414 302.037H668.562C668.858 302.037 669.166 302.062 669.486 302.111C669.807 302.16 670.263 302.308 670.855 302.555C671.446 302.801 672.026 303.196 672.593 303.738C673.16 304.281 673.69 305.008 674.183 305.92C675.243 308.09 675.773 310.876 675.773 314.278C675.773 317.73 675.034 320.651 673.554 323.043C672.691 324.423 671.656 325.496 670.448 326.26C669.24 327.024 667.958 327.419 666.602 327.444C665.098 327.444 663.865 327.086 662.903 326.371C661.942 325.656 661.449 324.596 661.424 323.191C661.4 321.785 662.053 321.095 663.384 321.12C663.927 321.12 664.383 321.292 664.753 321.637C665.122 321.983 665.307 322.463 665.307 323.08C665.307 323.524 665.196 323.906 664.974 324.226C664.753 324.547 664.555 324.744 664.383 324.818C664.21 324.892 664.05 324.953 663.902 325.003L663.754 325.04C663.754 325.089 663.84 325.163 664.013 325.262C664.186 325.36 664.506 325.484 664.974 325.631C665.443 325.779 665.961 325.841 666.528 325.816H666.75C668.229 325.816 669.474 325.027 670.485 323.45C671.446 322.069 671.927 319.677 671.927 316.275V316.016ZM667.933 317.458C669.116 317.458 670.066 316.854 670.781 315.646C671.496 314.438 671.865 312.799 671.89 310.728C671.89 308.805 671.791 307.424 671.594 306.586C671.545 306.339 671.471 306.093 671.372 305.846C671.274 305.6 671.101 305.279 670.855 304.885C670.608 304.49 670.238 304.157 669.745 303.886C669.252 303.615 668.673 303.492 668.007 303.516C667.07 303.516 666.269 303.849 665.603 304.515C665.085 305.057 664.753 305.698 664.605 306.438C664.457 307.177 664.37 308.472 664.346 310.321C664.346 312.367 664.407 313.748 664.531 314.463C664.654 315.178 664.9 315.757 665.27 316.201C665.887 317.039 666.774 317.458 667.933 317.458Z" fill="white"/>
<path d="M708.917 325.558C708.917 326.051 708.658 326.298 708.14 326.298C708.017 326.298 707.746 326.101 707.327 325.706C706.907 325.312 705.749 324.165 703.85 322.267L700.004 318.421L696.121 322.304C693.508 324.868 692.164 326.175 692.09 326.224C691.991 326.273 691.905 326.298 691.831 326.298C691.634 326.298 691.461 326.224 691.313 326.076C691.165 325.928 691.079 325.755 691.054 325.558C691.054 325.386 691.227 325.114 691.572 324.745C691.917 324.375 693.076 323.204 695.048 321.231L698.895 317.385L695.048 313.539C693.051 311.542 691.893 310.371 691.572 310.026C691.252 309.681 691.079 309.409 691.054 309.212C691.054 308.99 691.128 308.818 691.276 308.694C691.424 308.571 691.609 308.51 691.831 308.51C691.954 308.51 692.041 308.522 692.09 308.546C692.164 308.596 693.508 309.902 696.121 312.467L700.004 316.35L703.85 312.504C705.749 310.605 706.907 309.459 707.327 309.064C707.746 308.67 708.017 308.473 708.14 308.473C708.658 308.473 708.917 308.719 708.917 309.212C708.917 309.385 708.793 309.607 708.547 309.878C708.3 310.149 707.092 311.357 704.923 313.502L701.077 317.385L704.923 321.268C706.994 323.339 708.177 324.535 708.473 324.856C708.769 325.176 708.917 325.41 708.917 325.558Z" fill="white"/>
<path d="M725.197 311.209C725.197 311.209 725.197 310.259 725.197 308.361C725.197 306.462 725.862 304.934 727.194 303.775C728.525 302.616 730.053 302.025 731.779 302C733.53 302 735.083 302.518 736.439 303.553C737.795 304.589 738.473 305.932 738.473 307.584C738.473 308.324 738.337 309.014 738.066 309.655C737.795 310.296 737.475 310.814 737.105 311.209C736.735 311.603 736.353 311.948 735.958 312.244C735.564 312.54 735.243 312.762 734.997 312.91C734.75 313.058 734.615 313.156 734.59 313.206L735.108 313.538C735.453 313.785 735.798 314.031 736.143 314.278C736.488 314.525 736.686 314.66 736.735 314.685C738.584 316.139 739.509 317.976 739.509 320.195C739.509 322.143 738.794 323.832 737.364 325.262C735.934 326.692 734.085 327.419 731.816 327.444C729.597 327.444 727.773 326.815 726.343 325.558C724.913 324.3 724.198 322.747 724.198 320.898C724.198 318.235 725.788 316.016 728.969 314.241L728.303 313.76C727.785 313.44 727.452 313.193 727.304 313.021C725.899 311.813 725.197 310.259 725.197 308.361V311.209ZM733.185 312.355L733.407 312.207C733.554 312.108 733.665 312.034 733.739 311.985C733.813 311.936 733.937 311.85 734.109 311.726C734.282 311.603 734.43 311.48 734.553 311.356C734.676 311.233 734.812 311.085 734.96 310.913C735.108 310.74 735.243 310.58 735.367 310.432C735.49 310.284 735.613 310.087 735.736 309.84C735.86 309.594 735.971 309.384 736.069 309.211C736.168 309.039 736.229 308.792 736.254 308.472C736.279 308.151 736.303 307.88 736.328 307.658C736.328 306.598 735.971 305.698 735.256 304.959C734.541 304.219 733.715 303.75 732.778 303.553C732.605 303.529 732.198 303.516 731.557 303.516C730.547 303.516 729.597 303.837 728.71 304.478C727.822 305.119 727.366 305.92 727.341 306.882C727.341 307.449 727.502 307.966 727.822 308.435C728.143 308.903 728.463 309.261 728.784 309.507C729.104 309.754 729.721 310.148 730.633 310.691C730.805 310.814 730.941 310.9 731.04 310.95L733.185 312.355ZM731.853 325.853C733.283 325.853 734.516 325.434 735.551 324.596C736.587 323.758 737.105 322.747 737.105 321.563C737.105 321.144 737.043 320.75 736.92 320.38C736.797 320.01 736.649 319.702 736.476 319.455C736.303 319.209 736.032 318.938 735.662 318.642C735.293 318.346 735.009 318.124 734.812 317.976C734.615 317.828 734.257 317.594 733.739 317.274C733.222 316.953 732.889 316.743 732.741 316.645C732.396 316.423 732.026 316.189 731.631 315.942C731.237 315.696 730.916 315.486 730.67 315.314L730.374 315.129C730.226 315.129 729.869 315.338 729.302 315.757C728.734 316.176 728.143 316.854 727.526 317.791C726.91 318.728 726.59 319.739 726.565 320.824C726.565 322.278 727.095 323.474 728.155 324.411C729.215 325.348 730.448 325.829 731.853 325.853Z" fill="white"/>
<path d="M666.786 355.624L666.305 355.809C665.96 355.933 665.467 356.056 664.826 356.179C664.185 356.302 663.47 356.389 662.681 356.438H661.978V354.737H662.681C663.84 354.688 664.912 354.503 665.898 354.182C666.885 353.862 667.575 353.566 667.969 353.295C668.364 353.023 668.709 352.752 669.005 352.481C669.054 352.407 669.202 352.37 669.449 352.37C669.671 352.37 669.88 352.444 670.077 352.592V363.649L670.114 374.744C670.287 374.917 670.435 375.028 670.558 375.077C670.681 375.126 670.977 375.176 671.446 375.225C671.914 375.274 672.678 375.299 673.739 375.299H674.7V377H674.293C673.776 376.926 671.815 376.889 668.413 376.889C665.06 376.889 663.125 376.926 662.607 377H662.163V375.299H663.125C663.667 375.299 664.136 375.299 664.53 375.299C664.925 375.299 665.233 375.287 665.455 375.262C665.676 375.237 665.874 375.2 666.046 375.151C666.219 375.102 666.317 375.077 666.342 375.077C666.367 375.077 666.441 375.015 666.564 374.892C666.687 374.769 666.761 374.719 666.786 374.744V355.624Z" fill="white"/>
<path d="M708.915 375.928C708.915 376.421 708.656 376.668 708.138 376.668C708.015 376.668 707.744 376.47 707.325 376.076C706.906 375.682 705.747 374.535 703.849 372.637L700.002 368.791L696.119 372.674C693.506 375.238 692.162 376.544 692.088 376.594C691.99 376.643 691.903 376.668 691.829 376.668C691.632 376.668 691.46 376.594 691.312 376.446C691.164 376.298 691.077 376.125 691.053 375.928C691.053 375.756 691.225 375.484 691.57 375.114C691.916 374.745 693.074 373.574 695.047 371.601L698.893 367.755L695.047 363.909C693.05 361.912 691.891 360.741 691.57 360.396C691.25 360.05 691.077 359.779 691.053 359.582C691.053 359.36 691.127 359.188 691.275 359.064C691.423 358.941 691.607 358.879 691.829 358.879C691.953 358.879 692.039 358.892 692.088 358.916C692.162 358.966 693.506 360.272 696.119 362.836L700.002 366.72L703.849 362.873C705.747 360.975 706.906 359.829 707.325 359.434C707.744 359.04 708.015 358.842 708.138 358.842C708.656 358.842 708.915 359.089 708.915 359.582C708.915 359.755 708.792 359.977 708.545 360.248C708.299 360.519 707.091 361.727 704.921 363.872L701.075 367.755L704.921 371.638C706.992 373.709 708.175 374.905 708.471 375.225C708.767 375.546 708.915 375.78 708.915 375.928Z" fill="white"/>
<path d="M726.638 361.135C725.972 361.135 725.442 360.913 725.048 360.469C724.653 360.025 724.456 359.483 724.456 358.842C724.456 357.091 725.109 355.575 726.416 354.293C727.723 353.011 729.35 352.37 731.298 352.37C733.541 352.37 735.415 353.06 736.919 354.441C738.423 355.822 739.187 357.609 739.212 359.803C739.212 360.864 738.965 361.874 738.472 362.836C737.979 363.797 737.387 364.636 736.697 365.351C736.007 366.066 735.021 366.978 733.739 368.087C732.851 368.852 731.618 369.986 730.04 371.49L727.858 373.561L730.669 373.598C734.54 373.598 736.598 373.536 736.845 373.413C737.018 373.363 737.313 372.266 737.733 370.121V370.01H739.212V370.121C739.187 370.195 739.027 371.317 738.731 373.487C738.435 375.656 738.25 376.79 738.176 376.889V377H724.456V376.297V375.854C724.456 375.681 724.53 375.496 724.678 375.299C724.826 375.102 725.196 374.67 725.787 374.004C726.502 373.216 727.119 372.525 727.637 371.933C727.858 371.687 728.278 371.231 728.894 370.565C729.51 369.899 729.929 369.443 730.151 369.197C730.373 368.95 730.731 368.543 731.224 367.976C731.717 367.409 732.062 366.99 732.259 366.719C732.456 366.448 732.74 366.078 733.11 365.61C733.48 365.141 733.739 364.747 733.886 364.426C734.034 364.106 734.219 363.748 734.441 363.354C734.663 362.959 734.823 362.565 734.922 362.17C735.021 361.776 735.107 361.406 735.181 361.061C735.255 360.716 735.292 360.309 735.292 359.84C735.292 358.287 734.873 356.943 734.034 355.809C733.196 354.675 732 354.108 730.447 354.108C729.634 354.108 728.919 354.318 728.302 354.737C727.686 355.156 727.254 355.563 727.008 355.957C726.761 356.352 726.638 356.586 726.638 356.66C726.638 356.685 726.7 356.697 726.823 356.697C727.267 356.697 727.723 356.869 728.191 357.215C728.66 357.56 728.894 358.127 728.894 358.916C728.894 359.532 728.697 360.05 728.302 360.469C727.908 360.888 727.353 361.11 726.638 361.135Z" fill="white"/>
<path d="M744.796 343.495H655.211V341.276H744.796V343.495Z" fill="white"/>
<path d="M771.852 338.798C771.852 338.477 772.024 338.231 772.37 338.058H795.927C796.297 338.255 796.482 338.502 796.482 338.798C796.482 339.069 796.309 339.303 795.964 339.5L784.204 339.537H772.444C772.049 339.414 771.852 339.168 771.852 338.798ZM771.852 345.972C771.852 345.602 772.049 345.356 772.444 345.233H795.964C796.309 345.479 796.482 345.726 796.482 345.972C796.482 346.293 796.297 346.539 795.927 346.712H772.37C772.024 346.539 771.852 346.293 771.852 345.972Z" fill="white"/>
<path d="M810.376 340.055C810.376 336.036 811.374 332.855 813.371 330.513C815.368 328.171 817.587 327 820.028 327C821.729 327 822.949 327.444 823.689 328.331C824.429 329.219 824.799 330.205 824.799 331.29C824.799 331.906 824.626 332.399 824.281 332.769C823.936 333.139 823.455 333.324 822.839 333.324C822.271 333.324 821.803 333.151 821.433 332.806C821.063 332.461 820.878 331.98 820.878 331.364C820.878 330.279 821.458 329.626 822.617 329.404C822.074 328.861 821.31 328.553 820.324 328.479C818.573 328.479 817.131 329.219 815.997 330.698C814.838 332.325 814.259 334.816 814.259 338.169L814.296 338.316C814.419 338.169 814.518 338.008 814.592 337.836C815.602 336.356 816.921 335.617 818.549 335.617H818.697C819.831 335.617 820.829 335.851 821.692 336.319C822.284 336.665 822.876 337.158 823.467 337.799C824.059 338.44 824.54 339.142 824.91 339.907C825.427 341.115 825.686 342.434 825.686 343.864V344.529C825.686 345.097 825.625 345.627 825.501 346.12C825.23 347.574 824.441 348.992 823.134 350.373C821.828 351.753 820.176 352.444 818.179 352.444C817.488 352.444 816.823 352.345 816.182 352.148C815.541 351.951 814.85 351.581 814.111 351.038C813.371 350.496 812.742 349.769 812.225 348.856C811.707 347.944 811.263 346.748 810.893 345.269C810.524 343.79 810.351 342.052 810.376 340.055ZM818.327 336.948C817.587 336.948 816.946 337.158 816.404 337.577C815.861 337.996 815.442 338.551 815.146 339.241C814.85 339.931 814.641 340.634 814.518 341.349C814.394 342.064 814.32 342.828 814.296 343.642C814.296 345.688 814.444 347.155 814.739 348.043C815.035 348.93 815.504 349.645 816.145 350.188C816.737 350.631 817.39 350.853 818.105 350.853C819.362 350.853 820.324 350.385 820.989 349.448C821.31 349.004 821.532 348.45 821.655 347.784C821.778 347.118 821.84 345.824 821.84 343.901C821.84 341.928 821.778 340.609 821.655 339.944C821.532 339.278 821.31 338.723 820.989 338.279C820.324 337.392 819.436 336.948 818.327 336.948Z" fill="white"/>
<path d="M844.4 351.63C843.956 351.556 842.366 351.519 839.629 351.519C836.769 351.519 835.117 351.556 834.674 351.63H834.341V349.929H835.487C835.98 349.929 836.313 349.929 836.486 349.929C836.658 349.929 836.868 349.904 837.114 349.855C837.361 349.806 837.533 349.744 837.632 349.67C837.731 349.596 837.817 349.497 837.891 349.374C837.916 349.325 837.928 348.659 837.928 347.377V345.528H828.35V343.827L833.934 335.284C837.706 329.564 839.617 326.692 839.666 326.667C839.715 326.618 839.974 326.593 840.443 326.593H841.108L841.33 326.815V343.827H844.733V345.528H841.33V347.414C841.33 348.425 841.33 349.017 841.33 349.189C841.33 349.362 841.404 349.51 841.552 349.633C841.749 349.806 842.452 349.904 843.66 349.929H844.733V351.63H844.4ZM838.15 343.827V331.475L830.051 343.79L834.082 343.827H838.15Z" fill="white"/>
</svg>
