<svg viewBox="0 0 975 574" fill="none" xmlns="http://www.w3.org/2000/svg">
<g id="0123101">
<g id="enunciado">
<path id="Rectangle 1" d="M23 44.3947C23 21.1217 46.3431 2.25522 75.1382 2.25522H974V293.861C974 317.134 950.657 336 921.862 336H23V44.3947Z" fill="#02071A"/>
<path id="Rectangle 1 (Stroke)" fill-rule="evenodd" clip-rule="evenodd" d="M968.786 6.43445H75.1382C49.2226 6.43445 28.2138 23.4161 28.2138 44.3639V331.785H921.862C947.777 331.785 968.786 314.804 968.786 293.856V6.43445ZM75.1382 2.22006C46.3431 2.22006 23 21.0885 23 44.3639V336H921.862C950.657 336 974 317.131 974 293.856V2.22006H75.1382Z" fill="#CD08D1"/>
<path id="Rectangle 14" d="M79.4656 2.33085C107.352 -2.91356 974 2.33085 974 2.33085V25.035C974 25.035 64.7105 16.69 32.3849 25.035C42.4431 12.993 51.5796 7.57526 79.4656 2.33085Z" fill="#CD08D1"/>
<path id="Rectangle 15" d="M941 7.21616H972V294.729C968.195 314.24 960.308 321.411 941 330.771C946.683 315.443 941 7.21616 941 7.21616Z" fill="#CD08D1"/>
<g id="&#194;&#191;Cu&#195;&#161;ntos puntos de corte hay en F50?">
<path d="M56.0586 51.3503C56.0449 52.7995 55.8945 53.9616 55.6074 54.8366C55.334 55.6979 54.8691 56.5319 54.2129 57.3385C53.5566 58.1452 52.5996 59.2116 51.3418 60.5378C50.084 61.8503 49.3799 63.1833 49.2295 64.5368L49.1885 65.2956C49.1885 66.7858 49.585 67.9206 50.3779 68.6999C51.1709 69.4928 52.3125 69.8893 53.8027 69.8893C55.1699 69.8893 56.2773 69.4997 57.125 68.7204C57.9863 67.9547 58.417 66.9499 58.417 65.7057H62.2109C62.1836 67.9069 61.3975 69.7047 59.8525 71.0993C58.3213 72.4938 56.3047 73.1911 53.8027 73.1911C51.123 73.1911 49.0518 72.5006 47.5889 71.1198C46.126 69.7526 45.3945 67.8454 45.3945 65.3981C45.3945 63.0329 46.4883 60.654 48.6758 58.2614L50.9111 55.944C51.8135 54.8776 52.2646 53.3463 52.2646 51.3503H56.0586ZM56.2227 44.8493C56.2227 45.4645 56.0312 45.984 55.6484 46.4079C55.2793 46.8317 54.7256 47.0436 53.9873 47.0436C53.249 47.0436 52.6885 46.8317 52.3057 46.4079C51.9229 45.984 51.7314 45.4645 51.7314 44.8493C51.7314 44.2477 51.9229 43.7419 52.3057 43.3317C52.6885 42.9215 53.249 42.7165 53.9873 42.7165C54.7256 42.7165 55.2793 42.9215 55.6484 43.3317C56.0312 43.7419 56.2227 44.2477 56.2227 44.8493Z" fill="white"/>
<path d="M89.3223 55.821C88.9531 58.9792 87.7842 61.4196 85.8154 63.1422C83.8604 64.8512 81.2559 65.7057 78.002 65.7057C74.4746 65.7057 71.6445 64.4411 69.5117 61.9118C67.3926 59.3825 66.333 55.9987 66.333 51.7604V48.8893C66.333 46.1139 66.8252 43.6735 67.8096 41.568C68.8076 39.4626 70.2158 37.8493 72.0342 36.7282C73.8525 35.5934 75.958 35.026 78.3506 35.026C81.5225 35.026 84.0654 35.9147 85.9795 37.692C87.8936 39.4557 89.0078 41.903 89.3223 45.0338H85.3643C85.0225 42.6549 84.2773 40.9323 83.1289 39.8659C81.9941 38.7995 80.4014 38.2663 78.3506 38.2663C75.835 38.2663 73.8594 39.196 72.4238 41.0553C71.002 42.9147 70.291 45.5602 70.291 48.9919V51.8835C70.291 55.1237 70.9678 57.7008 72.3213 59.6149C73.6748 61.529 75.5684 62.486 78.002 62.486C80.1895 62.486 81.8643 61.9938 83.0264 61.0094C84.2021 60.0114 84.9814 58.2819 85.3643 55.821H89.3223Z" fill="white"/>
<path d="M107.82 63.1012C106.344 64.8376 104.177 65.7057 101.319 65.7057C98.9541 65.7057 97.1494 65.0221 95.9053 63.6549C94.6748 62.2741 94.0527 60.237 94.0391 57.5436V43.1061H97.833V57.4411C97.833 60.8044 99.2002 62.486 101.935 62.486C104.833 62.486 106.761 61.4059 107.718 59.2458V43.1061H111.512V65.2956H107.902L107.82 63.1012Z" fill="white"/>
<path d="M130.994 65.2956C130.775 64.8581 130.598 64.0788 130.461 62.9577C128.697 64.7897 126.592 65.7057 124.145 65.7057C121.957 65.7057 120.159 65.0905 118.751 63.86C117.356 62.6159 116.659 61.0436 116.659 59.1432C116.659 56.8327 117.534 55.0417 119.284 53.7702C121.048 52.485 123.522 51.8424 126.708 51.8424H130.399V50.0993C130.399 48.7731 130.003 47.7204 129.21 46.9411C128.417 46.1481 127.248 45.7516 125.703 45.7516C124.35 45.7516 123.215 46.0934 122.299 46.777C121.383 47.4606 120.925 48.2878 120.925 49.2585H117.11C117.11 48.151 117.5 47.0846 118.279 46.0592C119.072 45.0202 120.139 44.1999 121.479 43.5983C122.832 42.9967 124.315 42.696 125.929 42.696C128.485 42.696 130.488 43.3385 131.938 44.6237C133.387 45.8952 134.139 47.652 134.193 49.8942V60.1071C134.193 62.1442 134.453 63.7643 134.973 64.9674V65.2956H130.994ZM124.698 62.404C125.888 62.404 127.016 62.0963 128.082 61.4811C129.148 60.8659 129.921 60.0661 130.399 59.0817V54.529H127.426C122.777 54.529 120.453 55.8893 120.453 58.61C120.453 59.7995 120.85 60.7292 121.643 61.3991C122.436 62.069 123.454 62.404 124.698 62.404ZM128.205 33.7956H132.799L127.303 39.8249H124.247L128.205 33.7956Z" fill="white"/>
<path d="M143.729 43.1061L143.853 45.8952C145.548 43.7624 147.763 42.696 150.497 42.696C155.187 42.696 157.552 45.3415 157.593 50.6325V65.2956H153.799V50.612C153.785 49.0124 153.416 47.8297 152.691 47.0641C151.98 46.2985 150.866 45.9157 149.349 45.9157C148.118 45.9157 147.038 46.2438 146.108 46.9001C145.179 47.5563 144.454 48.4176 143.935 49.484V65.2956H140.141V43.1061H143.729Z" fill="white"/>
<path d="M168.462 37.7331V43.1061H172.604V46.0387H168.462V59.7995C168.462 60.6881 168.646 61.3581 169.016 61.8092C169.385 62.2467 170.014 62.4655 170.902 62.4655C171.34 62.4655 171.941 62.3835 172.707 62.2194V65.2956C171.709 65.569 170.738 65.7057 169.795 65.7057C168.1 65.7057 166.821 65.193 165.96 64.1676C165.099 63.1422 164.668 61.6862 164.668 59.7995V46.0387H160.628V43.1061H164.668V37.7331H168.462Z" fill="white"/>
<path d="M175.64 53.9958C175.64 51.8219 176.063 49.8669 176.911 48.1305C177.772 46.3942 178.962 45.0544 180.479 44.111C182.011 43.1676 183.754 42.696 185.709 42.696C188.73 42.696 191.171 43.7419 193.03 45.8336C194.903 47.9254 195.84 50.7077 195.84 54.1803V54.4469C195.84 56.6071 195.423 58.5485 194.589 60.2711C193.769 61.9801 192.586 63.3131 191.041 64.2702C189.51 65.2272 187.746 65.7057 185.75 65.7057C182.742 65.7057 180.302 64.6598 178.429 62.568C176.569 60.4762 175.64 57.7077 175.64 54.2624V53.9958ZM179.454 54.4469C179.454 56.9079 180.021 58.8835 181.156 60.3737C182.305 61.8639 183.836 62.609 185.75 62.609C187.678 62.609 189.209 61.8571 190.344 60.3532C191.479 58.8356 192.046 56.7165 192.046 53.9958C192.046 51.5622 191.465 49.5934 190.303 48.0895C189.154 46.5719 187.623 45.8131 185.709 45.8131C183.836 45.8131 182.325 46.5583 181.177 48.0485C180.028 49.5387 179.454 51.6715 179.454 54.4469Z" fill="white"/>
<path d="M213.518 59.4098C213.518 58.3844 213.128 57.5915 212.349 57.0309C211.583 56.4567 210.236 55.9645 208.309 55.5544C206.395 55.1442 204.87 54.652 203.735 54.0778C202.614 53.5036 201.78 52.82 201.233 52.027C200.7 51.234 200.434 50.2907 200.434 49.1969C200.434 47.3786 201.199 45.8405 202.73 44.5827C204.275 43.3249 206.244 42.696 208.637 42.696C211.152 42.696 213.189 43.3454 214.748 44.6442C216.32 45.943 217.106 47.6042 217.106 49.6276H213.292C213.292 48.5885 212.848 47.693 211.959 46.9411C211.084 46.1891 209.977 45.8131 208.637 45.8131C207.256 45.8131 206.176 46.1139 205.396 46.7155C204.617 47.317 204.228 48.1032 204.228 49.0739C204.228 49.9899 204.59 50.6803 205.314 51.1452C206.039 51.61 207.345 52.0544 209.231 52.4782C211.132 52.902 212.67 53.4079 213.846 53.9958C215.021 54.5836 215.89 55.2946 216.45 56.1286C217.024 56.9489 217.312 57.9538 217.312 59.1432C217.312 61.1256 216.519 62.7184 214.933 63.9215C213.347 65.111 211.289 65.7057 208.76 65.7057C206.982 65.7057 205.41 65.3913 204.043 64.7624C202.676 64.1335 201.603 63.2585 200.823 62.1374C200.058 61.0026 199.675 59.779 199.675 58.4665H203.469C203.537 59.7379 204.043 60.7497 204.986 61.5016C205.943 62.2399 207.201 62.609 208.76 62.609C210.195 62.609 211.344 62.3219 212.205 61.7477C213.08 61.1598 213.518 60.3805 213.518 59.4098Z" fill="white"/>
<path d="M251.416 54.4469C251.416 57.8239 250.644 60.5446 249.099 62.609C247.554 64.6735 245.462 65.7057 242.823 65.7057C240.13 65.7057 238.011 64.8512 236.466 63.1422V73.8268H232.672V43.1061H236.138L236.322 45.567C237.867 43.653 240.014 42.696 242.762 42.696C245.428 42.696 247.533 43.7008 249.078 45.7106C250.637 47.7204 251.416 50.5163 251.416 54.0983V54.4469ZM247.622 54.0163C247.622 51.5143 247.089 49.5387 246.022 48.0895C244.956 46.6403 243.493 45.9157 241.634 45.9157C239.337 45.9157 237.614 46.9342 236.466 48.9713V59.5739C237.601 61.5973 239.337 62.609 241.675 62.609C243.493 62.609 244.936 61.8913 246.002 60.4557C247.082 59.0065 247.622 56.86 247.622 54.0163Z" fill="white"/>
<path d="M269.955 63.1012C268.479 64.8376 266.312 65.7057 263.454 65.7057C261.089 65.7057 259.284 65.0221 258.04 63.6549C256.81 62.2741 256.188 60.237 256.174 57.5436V43.1061H259.968V57.4411C259.968 60.8044 261.335 62.486 264.069 62.486C266.968 62.486 268.896 61.4059 269.853 59.2458V43.1061H273.646V65.2956H270.037L269.955 63.1012Z" fill="white"/>
<path d="M283.019 43.1061L283.142 45.8952C284.837 43.7624 287.052 42.696 289.786 42.696C294.476 42.696 296.841 45.3415 296.882 50.6325V65.2956H293.088V50.612C293.074 49.0124 292.705 47.8297 291.98 47.0641C291.27 46.2985 290.155 45.9157 288.638 45.9157C287.407 45.9157 286.327 46.2438 285.397 46.9001C284.468 47.5563 283.743 48.4176 283.224 49.484V65.2956H279.43V43.1061H283.019Z" fill="white"/>
<path d="M307.751 37.7331V43.1061H311.894V46.0387H307.751V59.7995C307.751 60.6881 307.936 61.3581 308.305 61.8092C308.674 62.2467 309.303 62.4655 310.191 62.4655C310.629 62.4655 311.23 62.3835 311.996 62.2194V65.2956C310.998 65.569 310.027 65.7057 309.084 65.7057C307.389 65.7057 306.11 65.193 305.249 64.1676C304.388 63.1422 303.957 61.6862 303.957 59.7995V46.0387H299.917V43.1061H303.957V37.7331H307.751Z" fill="white"/>
<path d="M314.929 53.9958C314.929 51.8219 315.353 49.8669 316.2 48.1305C317.062 46.3942 318.251 45.0544 319.769 44.111C321.3 43.1676 323.043 42.696 324.998 42.696C328.02 42.696 330.46 43.7419 332.319 45.8336C334.192 47.9254 335.129 50.7077 335.129 54.1803V54.4469C335.129 56.6071 334.712 58.5485 333.878 60.2711C333.058 61.9801 331.875 63.3131 330.33 64.2702C328.799 65.2272 327.035 65.7057 325.039 65.7057C322.031 65.7057 319.591 64.6598 317.718 62.568C315.858 60.4762 314.929 57.7077 314.929 54.2624V53.9958ZM318.743 54.4469C318.743 56.9079 319.311 58.8835 320.445 60.3737C321.594 61.8639 323.125 62.609 325.039 62.609C326.967 62.609 328.498 61.8571 329.633 60.3532C330.768 58.8356 331.335 56.7165 331.335 53.9958C331.335 51.5622 330.754 49.5934 329.592 48.0895C328.443 46.5719 326.912 45.8131 324.998 45.8131C323.125 45.8131 321.614 46.5583 320.466 48.0485C319.317 49.5387 318.743 51.6715 318.743 54.4469Z" fill="white"/>
<path d="M352.807 59.4098C352.807 58.3844 352.417 57.5915 351.638 57.0309C350.872 56.4567 349.525 55.9645 347.598 55.5544C345.684 55.1442 344.159 54.652 343.024 54.0778C341.903 53.5036 341.069 52.82 340.522 52.027C339.989 51.234 339.723 50.2907 339.723 49.1969C339.723 47.3786 340.488 45.8405 342.02 44.5827C343.564 43.3249 345.533 42.696 347.926 42.696C350.441 42.696 352.479 43.3454 354.037 44.6442C355.609 45.943 356.396 47.6042 356.396 49.6276H352.581C352.581 48.5885 352.137 47.693 351.248 46.9411C350.373 46.1891 349.266 45.8131 347.926 45.8131C346.545 45.8131 345.465 46.1139 344.686 46.7155C343.906 47.317 343.517 48.1032 343.517 49.0739C343.517 49.9899 343.879 50.6803 344.604 51.1452C345.328 51.61 346.634 52.0544 348.521 52.4782C350.421 52.902 351.959 53.4079 353.135 53.9958C354.311 54.5836 355.179 55.2946 355.739 56.1286C356.313 56.9489 356.601 57.9538 356.601 59.1432C356.601 61.1256 355.808 62.7184 354.222 63.9215C352.636 65.111 350.578 65.7057 348.049 65.7057C346.271 65.7057 344.699 65.3913 343.332 64.7624C341.965 64.1335 340.892 63.2585 340.112 62.1374C339.347 61.0026 338.964 59.779 338.964 58.4665H342.758C342.826 59.7379 343.332 60.7497 344.275 61.5016C345.232 62.2399 346.49 62.609 348.049 62.609C349.484 62.609 350.633 62.3219 351.494 61.7477C352.369 61.1598 352.807 60.3805 352.807 59.4098Z" fill="white"/>
<path d="M371.038 54.0163C371.038 50.612 371.845 47.8776 373.458 45.8131C375.071 43.735 377.184 42.696 379.795 42.696C382.393 42.696 384.45 43.5846 385.968 45.362V33.7956H389.762V65.2956H386.275L386.091 62.9167C384.573 64.776 382.461 65.7057 379.754 65.7057C377.184 65.7057 375.085 64.653 373.458 62.5475C371.845 60.442 371.038 57.694 371.038 54.3034V54.0163ZM374.832 54.4469C374.832 56.9626 375.352 58.9313 376.391 60.3532C377.43 61.7751 378.865 62.486 380.697 62.486C383.104 62.486 384.86 61.4059 385.968 59.2458V49.0534C384.833 46.9616 383.09 45.9157 380.738 45.9157C378.879 45.9157 377.43 46.6335 376.391 48.069C375.352 49.5045 374.832 51.6305 374.832 54.4469Z" fill="white"/>
<path d="M404.876 65.7057C401.868 65.7057 399.421 64.7213 397.534 62.7526C395.647 60.7702 394.704 58.1247 394.704 54.8161V54.1188C394.704 51.9176 395.121 49.9557 395.955 48.2331C396.803 46.4967 397.979 45.1432 399.482 44.1725C401 43.1881 402.641 42.696 404.404 42.696C407.289 42.696 409.531 43.6461 411.131 45.5465C412.73 47.4469 413.53 50.1676 413.53 53.7086V55.2878H398.498C398.553 57.4753 399.188 59.2458 400.405 60.5993C401.636 61.9391 403.194 62.609 405.081 62.609C406.421 62.609 407.556 62.3356 408.485 61.7887C409.415 61.2419 410.229 60.5172 410.926 59.6149L413.243 61.4196C411.384 64.277 408.595 65.7057 404.876 65.7057ZM404.404 45.8131C402.873 45.8131 401.588 46.3737 400.549 47.4948C399.51 48.6022 398.867 50.1608 398.621 52.1706H409.736V51.8835C409.627 49.9557 409.107 48.4655 408.178 47.4128C407.248 46.3463 405.99 45.8131 404.404 45.8131Z" fill="white"/>
<path d="M437.258 62.609C438.611 62.609 439.794 62.1989 440.806 61.3786C441.817 60.5583 442.378 59.5329 442.487 58.3024H446.076C446.008 59.5739 445.57 60.7838 444.764 61.9323C443.957 63.0807 442.877 63.9967 441.523 64.6803C440.184 65.3639 438.762 65.7057 437.258 65.7057C434.236 65.7057 431.83 64.7008 430.039 62.6911C428.262 60.6676 427.373 57.9059 427.373 54.4059V53.7702C427.373 51.61 427.77 49.6891 428.562 48.0075C429.355 46.3258 430.49 45.0202 431.967 44.0905C433.457 43.1608 435.214 42.696 437.237 42.696C439.726 42.696 441.79 43.4411 443.431 44.9313C445.085 46.4215 445.967 48.3561 446.076 50.735H442.487C442.378 49.2995 441.831 48.1237 440.847 47.2077C439.876 46.278 438.673 45.8131 437.237 45.8131C435.31 45.8131 433.812 46.5104 432.746 47.9049C431.693 49.2858 431.167 51.2887 431.167 53.9137V54.6315C431.167 57.1881 431.693 59.1569 432.746 60.5378C433.799 61.9186 435.303 62.609 437.258 62.609Z" fill="white"/>
<path d="M449.337 53.9958C449.337 51.8219 449.761 49.8669 450.608 48.1305C451.47 46.3942 452.659 45.0544 454.177 44.111C455.708 43.1676 457.451 42.696 459.406 42.696C462.428 42.696 464.868 43.7419 466.728 45.8336C468.601 47.9254 469.537 50.7077 469.537 54.1803V54.4469C469.537 56.6071 469.12 58.5485 468.286 60.2711C467.466 61.9801 466.283 63.3131 464.738 64.2702C463.207 65.2272 461.443 65.7057 459.447 65.7057C456.439 65.7057 453.999 64.6598 452.126 62.568C450.267 60.4762 449.337 57.7077 449.337 54.2624V53.9958ZM453.151 54.4469C453.151 56.9079 453.719 58.8835 454.854 60.3737C456.002 61.8639 457.533 62.609 459.447 62.609C461.375 62.609 462.906 61.8571 464.041 60.3532C465.176 58.8356 465.743 56.7165 465.743 53.9958C465.743 51.5622 465.162 49.5934 464 48.0895C462.852 46.5719 461.32 45.8131 459.406 45.8131C457.533 45.8131 456.022 46.5583 454.874 48.0485C453.726 49.5387 453.151 51.6715 453.151 54.4469Z" fill="white"/>
<path d="M485.021 46.5104C484.446 46.4147 483.824 46.3669 483.154 46.3669C480.666 46.3669 478.978 47.4264 478.089 49.5456V65.2956H474.295V43.1061H477.986L478.048 45.6696C479.292 43.6872 481.056 42.696 483.339 42.696C484.077 42.696 484.638 42.7917 485.021 42.9831V46.5104Z" fill="white"/>
<path d="M494.7 37.7331V43.1061H498.843V46.0387H494.7V59.7995C494.7 60.6881 494.885 61.3581 495.254 61.8092C495.623 62.2467 496.252 62.4655 497.141 62.4655C497.578 62.4655 498.18 62.3835 498.945 62.2194V65.2956C497.947 65.569 496.977 65.7057 496.033 65.7057C494.338 65.7057 493.06 65.193 492.198 64.1676C491.337 63.1422 490.906 61.6862 490.906 59.7995V46.0387H486.866V43.1061H490.906V37.7331H494.7Z" fill="white"/>
<path d="M512.501 65.7057C509.493 65.7057 507.046 64.7213 505.159 62.7526C503.272 60.7702 502.329 58.1247 502.329 54.8161V54.1188C502.329 51.9176 502.746 49.9557 503.58 48.2331C504.428 46.4967 505.604 45.1432 507.107 44.1725C508.625 43.1881 510.266 42.696 512.029 42.696C514.914 42.696 517.156 43.6461 518.756 45.5465C520.355 47.4469 521.155 50.1676 521.155 53.7086V55.2878H506.123C506.178 57.4753 506.813 59.2458 508.03 60.5993C509.261 61.9391 510.819 62.609 512.706 62.609C514.046 62.609 515.181 62.3356 516.11 61.7887C517.04 61.2419 517.854 60.5172 518.551 59.6149L520.868 61.4196C519.009 64.277 516.22 65.7057 512.501 65.7057ZM512.029 45.8131C510.498 45.8131 509.213 46.3737 508.174 47.4948C507.135 48.6022 506.492 50.1608 506.246 52.1706H517.361V51.8835C517.252 49.9557 516.732 48.4655 515.803 47.4128C514.873 46.3463 513.615 45.8131 512.029 45.8131Z" fill="white"/>
<path d="M539.776 45.7926C541.458 43.7282 543.646 42.696 546.339 42.696C551.028 42.696 553.394 45.3415 553.435 50.6325V65.2956H549.641V50.612C549.627 49.0124 549.258 47.8297 548.533 47.0641C547.822 46.2985 546.708 45.9157 545.19 45.9157C543.96 45.9157 542.88 46.2438 541.95 46.9001C541.021 47.5563 540.296 48.4176 539.776 49.484V65.2956H535.982V33.7956H539.776V45.7926Z" fill="white"/>
<path d="M572.814 65.2956C572.596 64.8581 572.418 64.0788 572.281 62.9577C570.518 64.7897 568.412 65.7057 565.965 65.7057C563.777 65.7057 561.979 65.0905 560.571 63.86C559.177 62.6159 558.479 61.0436 558.479 59.1432C558.479 56.8327 559.354 55.0417 561.104 53.7702C562.868 52.485 565.343 51.8424 568.528 51.8424H572.22V50.0993C572.22 48.7731 571.823 47.7204 571.03 46.9411C570.237 46.1481 569.068 45.7516 567.523 45.7516C566.17 45.7516 565.035 46.0934 564.119 46.777C563.203 47.4606 562.745 48.2878 562.745 49.2585H558.931C558.931 48.151 559.32 47.0846 560.1 46.0592C560.893 45.0202 561.959 44.1999 563.299 43.5983C564.652 42.9967 566.136 42.696 567.749 42.696C570.306 42.696 572.309 43.3385 573.758 44.6237C575.207 45.8952 575.959 47.652 576.014 49.8942V60.1071C576.014 62.1442 576.273 63.7643 576.793 64.9674V65.2956H572.814ZM566.519 62.404C567.708 62.404 568.836 62.0963 569.902 61.4811C570.969 60.8659 571.741 60.0661 572.22 59.0817V54.529H569.246C564.598 54.529 562.273 55.8893 562.273 58.61C562.273 59.7995 562.67 60.7292 563.463 61.3991C564.256 62.069 565.274 62.404 566.519 62.404Z" fill="white"/>
<path d="M588.893 59.7379L594.061 43.1061H598.121L589.2 68.7204C587.819 72.4118 585.625 74.2575 582.617 74.2575L581.899 74.196L580.484 73.9294V70.8532L581.51 70.9352C582.795 70.9352 583.793 70.6754 584.504 70.1559C585.229 69.6364 585.823 68.6862 586.288 67.3053L587.129 65.0495L579.213 43.1061H583.355L588.893 59.7379Z" fill="white"/>
<path d="M621.151 65.7057C618.144 65.7057 615.696 64.7213 613.81 62.7526C611.923 60.7702 610.979 58.1247 610.979 54.8161V54.1188C610.979 51.9176 611.396 49.9557 612.23 48.2331C613.078 46.4967 614.254 45.1432 615.758 44.1725C617.275 43.1881 618.916 42.696 620.68 42.696C623.564 42.696 625.807 43.6461 627.406 45.5465C629.006 47.4469 629.806 50.1676 629.806 53.7086V55.2878H614.773C614.828 57.4753 615.464 59.2458 616.681 60.5993C617.911 61.9391 619.47 62.609 621.356 62.609C622.696 62.609 623.831 62.3356 624.761 61.7887C625.69 61.2419 626.504 60.5172 627.201 59.6149L629.519 61.4196C627.659 64.277 624.87 65.7057 621.151 65.7057ZM620.68 45.8131C619.148 45.8131 617.863 46.3737 616.824 47.4948C615.785 48.6022 615.143 50.1608 614.896 52.1706H626.012V51.8835C625.902 49.9557 625.383 48.4655 624.453 47.4128C623.523 46.3463 622.266 45.8131 620.68 45.8131Z" fill="white"/>
<path d="M637.804 43.1061L637.927 45.8952C639.622 43.7624 641.837 42.696 644.571 42.696C649.261 42.696 651.626 45.3415 651.667 50.6325V65.2956H647.873V50.612C647.859 49.0124 647.49 47.8297 646.766 47.0641C646.055 46.2985 644.94 45.9157 643.423 45.9157C642.192 45.9157 641.112 46.2438 640.183 46.9001C639.253 47.5563 638.528 48.4176 638.009 49.484V65.2956H634.215V43.1061H637.804Z" fill="white"/>
<path d="M684.869 52.109H672.339V65.2956H668.401V35.4362H686.899V38.6764H672.339V48.8893H684.869V52.109Z" fill="white"/>
<path d="M690.564 56.7409L691.432 48.2331H700.174V50.237H693.271L692.756 54.8893C693.592 54.3971 694.541 54.151 695.604 54.151C697.158 54.151 698.393 54.6667 699.307 55.6979C700.221 56.7213 700.678 58.1081 700.678 59.8581C700.678 61.6159 700.201 63.0026 699.248 64.0182C698.303 65.026 696.979 65.5299 695.275 65.5299C693.768 65.5299 692.537 65.112 691.584 64.276C690.631 63.4401 690.088 62.2838 689.955 60.8073H692.006C692.139 61.7838 692.486 62.5221 693.049 63.0221C693.611 63.5143 694.354 63.7604 695.275 63.7604C696.283 63.7604 697.072 63.4167 697.643 62.7292C698.221 62.0417 698.51 61.0924 698.51 59.8815C698.51 58.7409 698.197 57.8268 697.572 57.1393C696.955 56.444 696.131 56.0963 695.1 56.0963C694.154 56.0963 693.412 56.3034 692.873 56.7174L692.299 57.1862L690.564 56.7409Z" fill="white"/>
<path d="M713.744 58.0182C713.744 60.5573 713.311 62.444 712.443 63.6784C711.576 64.9128 710.221 65.5299 708.377 65.5299C706.557 65.5299 705.209 64.9284 704.334 63.7253C703.459 62.5143 703.006 60.7096 702.975 58.3112V55.4167C702.975 52.9088 703.408 51.0456 704.275 49.8268C705.143 48.6081 706.502 47.9987 708.354 47.9987C710.189 47.9987 711.541 48.5885 712.408 49.7682C713.275 50.9401 713.721 52.7526 713.744 55.2057V58.0182ZM711.576 55.0534C711.576 53.2174 711.318 51.8815 710.803 51.0456C710.287 50.2018 709.471 49.7799 708.354 49.7799C707.244 49.7799 706.436 50.1979 705.928 51.0338C705.42 51.8698 705.158 53.1549 705.143 54.8893V58.3581C705.143 60.2018 705.408 61.5651 705.939 62.4479C706.479 63.3229 707.291 63.7604 708.377 63.7604C709.447 63.7604 710.24 63.3463 710.756 62.5182C711.279 61.6901 711.553 60.3854 711.576 58.6042V55.0534Z" fill="white"/>
<path d="M722.425 56.8874C722.452 55.2604 722.637 53.9753 722.979 53.0319C723.32 52.0885 724.018 51.0426 725.07 49.8942L727.757 47.1256C728.905 45.8268 729.479 44.4323 729.479 42.942C729.479 41.5065 729.104 40.3854 728.352 39.5788C727.6 38.7585 726.506 38.3483 725.07 38.3483C723.676 38.3483 722.555 38.7174 721.707 39.4557C720.859 40.194 720.436 41.1852 720.436 42.4294H716.642C716.669 40.2145 717.455 38.4303 719 37.0768C720.559 35.7096 722.582 35.026 725.07 35.026C727.654 35.026 729.664 35.7233 731.1 37.1178C732.549 38.4987 733.273 40.3991 733.273 42.819C733.273 45.2116 732.166 47.57 729.951 49.8942L727.716 52.109C726.718 53.2165 726.219 54.8092 726.219 56.8874H722.425ZM722.261 63.3883C722.261 62.7731 722.445 62.2604 722.814 61.8503C723.197 61.4264 723.758 61.2145 724.496 61.2145C725.234 61.2145 725.795 61.4264 726.178 61.8503C726.561 62.2604 726.752 62.7731 726.752 63.3883C726.752 64.0036 726.561 64.5163 726.178 64.9264C725.795 65.3229 725.234 65.5211 724.496 65.5211C723.758 65.5211 723.197 65.3229 722.814 64.9264C722.445 64.5163 722.261 64.0036 722.261 63.3883Z" fill="white"/>
</g>
<g id="F_{1}\:\;\;F_{2}\;\;F_{3}">
<g id="Group">
<g id="Group_2">
<g id="Group_3">
<path id="Vector" d="M232.402 281.06C232.134 281.06 232 280.982 232 280.824C232 280.792 232.024 280.682 232.071 280.493C232.134 280.24 232.197 280.099 232.26 280.067C232.323 280.035 232.505 280.012 232.804 279.996C233.23 279.996 233.703 279.972 234.223 279.925C234.444 279.878 234.594 279.783 234.673 279.641C234.704 279.562 235.264 277.347 236.352 272.995C237.44 268.643 237.992 266.435 238.008 266.372C238.008 266.261 237.976 266.206 237.913 266.206C237.787 266.159 237.369 266.12 236.66 266.088H235.926C235.832 265.993 235.785 265.93 235.785 265.899C235.785 265.867 235.8 265.733 235.832 265.497C235.895 265.229 235.974 265.063 236.068 265H248.817C248.928 265.063 248.983 265.15 248.983 265.26C248.983 265.339 248.88 266.222 248.675 267.909C248.47 269.597 248.36 270.464 248.344 270.511C248.313 270.622 248.155 270.677 247.871 270.677H247.587C247.477 270.598 247.422 270.495 247.422 270.369C247.422 270.353 247.445 270.164 247.493 269.802C247.54 269.439 247.564 269.021 247.564 268.548C247.564 268.075 247.509 267.689 247.398 267.389C247.288 267.089 247.138 266.845 246.949 266.656C246.76 266.466 246.468 266.34 246.074 266.277C245.679 266.214 245.277 266.159 244.867 266.112C244.457 266.064 243.89 266.056 243.164 266.088H242.62C241.327 266.104 240.641 266.127 240.562 266.159C240.484 266.191 240.428 266.254 240.397 266.348C240.381 266.364 240.113 267.397 239.593 269.447L238.836 272.498H240.137C240.184 272.498 240.365 272.498 240.681 272.498C240.996 272.498 241.217 272.49 241.343 272.474C241.469 272.459 241.643 272.435 241.863 272.403C242.084 272.372 242.273 272.317 242.431 272.238C242.589 272.159 242.723 272.064 242.833 271.954C243.038 271.765 243.212 271.505 243.354 271.173C243.495 270.842 243.598 270.543 243.661 270.275C243.724 270.007 243.763 269.865 243.779 269.849C243.827 269.77 243.976 269.731 244.229 269.731H244.513C244.623 269.809 244.678 269.888 244.678 269.967C244.678 270.014 244.434 271.047 243.945 273.066C243.456 275.084 243.188 276.125 243.141 276.188C243.109 276.298 242.951 276.353 242.668 276.353H242.384C242.273 276.259 242.218 276.164 242.218 276.07C242.218 276.022 242.258 275.849 242.336 275.549C242.415 275.25 242.455 274.934 242.455 274.603C242.455 274.146 242.297 273.862 241.982 273.752C241.666 273.641 240.965 273.586 239.876 273.586H238.576L237.819 276.59C237.314 278.545 237.062 279.57 237.062 279.665C237.062 279.886 237.763 279.996 239.167 279.996H239.758C239.853 280.091 239.9 280.146 239.9 280.162C239.9 280.177 239.884 280.335 239.853 280.635C239.79 280.84 239.711 280.99 239.616 281.084H239.214C238.568 281.053 237.377 281.037 235.643 281.037C234.618 281.037 233.837 281.037 233.301 281.037C232.765 281.037 232.465 281.045 232.402 281.06Z" fill="white"/>
</g>
<g id="Group_4">
<g id="Group_5">
<path id="Vector_2" d="M250.038 274.966L249.82 275.05C249.664 275.106 249.441 275.161 249.151 275.217C248.862 275.273 248.538 275.312 248.181 275.334H247.864V274.565H248.181C248.705 274.543 249.19 274.459 249.636 274.314C250.082 274.169 250.394 274.035 250.573 273.913C250.751 273.79 250.907 273.668 251.041 273.545C251.063 273.511 251.13 273.495 251.242 273.495C251.342 273.495 251.437 273.528 251.526 273.595V278.595L251.543 283.612C251.621 283.69 251.688 283.74 251.743 283.763C251.799 283.785 251.933 283.807 252.145 283.829C252.357 283.852 252.702 283.863 253.182 283.863H253.616V284.632H253.432C253.198 284.599 252.312 284.582 250.773 284.582C249.257 284.582 248.382 284.599 248.148 284.632H247.947V283.863H248.382C248.627 283.863 248.839 283.863 249.018 283.863C249.196 283.863 249.335 283.857 249.436 283.846C249.536 283.835 249.625 283.818 249.703 283.796C249.781 283.774 249.826 283.763 249.837 283.763C249.848 283.763 249.882 283.735 249.937 283.679C249.993 283.623 250.027 283.601 250.038 283.612V274.966Z" fill="white"/>
</g>
</g>
</g>
<g id="Group_6">
<g id="Group_7">
<path id="Vector_3" d="M463.402 301.06C463.134 301.06 463 300.982 463 300.824C463 300.792 463.024 300.682 463.071 300.493C463.134 300.241 463.197 300.099 463.26 300.067C463.323 300.036 463.505 300.012 463.804 299.996C464.23 299.996 464.703 299.972 465.223 299.925C465.444 299.878 465.594 299.783 465.673 299.641C465.704 299.562 466.264 297.347 467.352 292.995C468.44 288.643 468.992 286.435 469.008 286.372C469.008 286.262 468.976 286.206 468.913 286.206C468.787 286.159 468.369 286.12 467.66 286.088H466.926C466.832 285.993 466.785 285.93 466.785 285.899C466.785 285.867 466.8 285.733 466.832 285.497C466.895 285.229 466.974 285.063 467.068 285H479.817C479.928 285.063 479.983 285.15 479.983 285.26C479.983 285.339 479.88 286.222 479.675 287.909C479.47 289.597 479.36 290.464 479.344 290.511C479.313 290.622 479.155 290.677 478.871 290.677H478.587C478.477 290.598 478.422 290.495 478.422 290.369C478.422 290.353 478.445 290.164 478.493 289.802C478.54 289.439 478.564 289.021 478.564 288.548C478.564 288.075 478.509 287.689 478.398 287.389C478.288 287.089 478.138 286.845 477.949 286.656C477.76 286.467 477.468 286.34 477.074 286.277C476.679 286.214 476.277 286.159 475.867 286.112C475.457 286.064 474.89 286.057 474.164 286.088H473.62C472.327 286.104 471.641 286.127 471.562 286.159C471.484 286.191 471.428 286.254 471.397 286.348C471.381 286.364 471.113 287.397 470.593 289.447L469.836 292.498H471.137C471.184 292.498 471.365 292.498 471.681 292.498C471.996 292.498 472.217 292.49 472.343 292.474C472.469 292.459 472.643 292.435 472.863 292.403C473.084 292.372 473.273 292.317 473.431 292.238C473.589 292.159 473.723 292.064 473.833 291.954C474.038 291.765 474.212 291.505 474.354 291.173C474.495 290.842 474.598 290.543 474.661 290.275C474.724 290.007 474.763 289.865 474.779 289.849C474.827 289.77 474.976 289.731 475.229 289.731H475.513C475.623 289.809 475.678 289.888 475.678 289.967C475.678 290.014 475.434 291.047 474.945 293.066C474.456 295.084 474.188 296.125 474.141 296.188C474.109 296.298 473.951 296.354 473.668 296.354H473.384C473.273 296.259 473.218 296.164 473.218 296.07C473.218 296.022 473.258 295.849 473.336 295.549C473.415 295.25 473.455 294.934 473.455 294.603C473.455 294.146 473.297 293.862 472.982 293.752C472.666 293.641 471.965 293.586 470.876 293.586H469.576L468.819 296.59C468.314 298.545 468.062 299.57 468.062 299.665C468.062 299.886 468.763 299.996 470.167 299.996H470.758C470.853 300.091 470.9 300.146 470.9 300.162C470.9 300.177 470.884 300.335 470.853 300.635C470.79 300.84 470.711 300.99 470.616 301.084H470.214C469.568 301.053 468.377 301.037 466.643 301.037C465.618 301.037 464.837 301.037 464.301 301.037C463.765 301.037 463.465 301.045 463.402 301.06Z" fill="white"/>
</g>
<g id="Group_8">
<g id="Group_9">
<path id="Vector_4" d="M479.298 297.458C478.997 297.458 478.758 297.358 478.579 297.157C478.401 296.956 478.312 296.711 478.312 296.421C478.312 295.63 478.607 294.944 479.198 294.364C479.789 293.785 480.525 293.495 481.406 293.495C482.42 293.495 483.267 293.807 483.947 294.431C484.627 295.056 484.973 295.864 484.984 296.856C484.984 297.335 484.873 297.793 484.65 298.227C484.427 298.662 484.159 299.041 483.847 299.364C483.535 299.688 483.089 300.1 482.509 300.602C482.108 300.948 481.55 301.46 480.837 302.14L479.85 303.077L481.121 303.094C482.872 303.094 483.802 303.066 483.914 303.01C483.992 302.988 484.126 302.492 484.315 301.522V301.472H484.984V301.522C484.973 301.555 484.901 302.062 484.767 303.043C484.633 304.025 484.549 304.537 484.516 304.582V304.632H478.312V304.314V304.114C478.312 304.036 478.345 303.952 478.412 303.863C478.479 303.774 478.646 303.579 478.914 303.278C479.237 302.921 479.516 302.609 479.75 302.341C479.85 302.23 480.04 302.023 480.319 301.722C480.597 301.421 480.787 301.215 480.887 301.104C480.987 300.992 481.149 300.808 481.372 300.552C481.595 300.295 481.751 300.106 481.84 299.983C481.93 299.861 482.058 299.693 482.225 299.481C482.392 299.27 482.509 299.091 482.576 298.946C482.643 298.801 482.727 298.64 482.827 298.461C482.927 298.283 483 298.105 483.044 297.926C483.089 297.748 483.128 297.581 483.161 297.425C483.195 297.269 483.212 297.085 483.212 296.873C483.212 296.17 483.022 295.563 482.643 295.05C482.264 294.537 481.723 294.281 481.021 294.281C480.653 294.281 480.33 294.375 480.051 294.565C479.772 294.755 479.577 294.938 479.466 295.117C479.354 295.295 479.298 295.401 479.298 295.435C479.298 295.446 479.326 295.451 479.382 295.451C479.583 295.451 479.789 295.529 480.001 295.685C480.213 295.842 480.319 296.098 480.319 296.455C480.319 296.733 480.229 296.968 480.051 297.157C479.873 297.347 479.622 297.447 479.298 297.458Z" fill="white"/>
</g>
</g>
</g>
<g id="Group_10">
<g id="Group_11">
<path id="Vector_5" d="M706.402 311.06C706.134 311.06 706 310.982 706 310.824C706 310.792 706.024 310.682 706.071 310.493C706.134 310.24 706.197 310.099 706.26 310.067C706.323 310.035 706.505 310.012 706.804 309.996C707.23 309.996 707.703 309.972 708.223 309.925C708.444 309.878 708.594 309.783 708.673 309.641C708.704 309.562 709.264 307.347 710.352 302.995C711.44 298.643 711.992 296.435 712.008 296.372C712.008 296.261 711.976 296.206 711.913 296.206C711.787 296.159 711.369 296.12 710.66 296.088H709.926C709.832 295.993 709.785 295.93 709.785 295.899C709.785 295.867 709.8 295.733 709.832 295.497C709.895 295.229 709.974 295.063 710.068 295H722.817C722.928 295.063 722.983 295.15 722.983 295.26C722.983 295.339 722.88 296.222 722.675 297.909C722.47 299.597 722.36 300.464 722.344 300.511C722.313 300.622 722.155 300.677 721.871 300.677H721.587C721.477 300.598 721.422 300.495 721.422 300.369C721.422 300.353 721.445 300.164 721.493 299.802C721.54 299.439 721.564 299.021 721.564 298.548C721.564 298.075 721.509 297.689 721.398 297.389C721.288 297.089 721.138 296.845 720.949 296.656C720.76 296.466 720.468 296.34 720.074 296.277C719.679 296.214 719.277 296.159 718.867 296.112C718.457 296.064 717.89 296.056 717.164 296.088H716.62C715.327 296.104 714.641 296.127 714.562 296.159C714.484 296.191 714.428 296.254 714.397 296.348C714.381 296.364 714.113 297.397 713.593 299.447L712.836 302.498H714.137C714.184 302.498 714.365 302.498 714.681 302.498C714.996 302.498 715.217 302.49 715.343 302.474C715.469 302.459 715.643 302.435 715.863 302.403C716.084 302.372 716.273 302.317 716.431 302.238C716.589 302.159 716.723 302.064 716.833 301.954C717.038 301.765 717.212 301.505 717.354 301.173C717.495 300.842 717.598 300.543 717.661 300.275C717.724 300.007 717.763 299.865 717.779 299.849C717.827 299.77 717.976 299.731 718.229 299.731H718.513C718.623 299.809 718.678 299.888 718.678 299.967C718.678 300.014 718.434 301.047 717.945 303.066C717.456 305.084 717.188 306.125 717.141 306.188C717.109 306.298 716.951 306.353 716.668 306.353H716.384C716.273 306.259 716.218 306.164 716.218 306.07C716.218 306.022 716.258 305.849 716.336 305.549C716.415 305.25 716.455 304.934 716.455 304.603C716.455 304.146 716.297 303.862 715.982 303.752C715.666 303.641 714.965 303.586 713.876 303.586H712.576L711.819 306.59C711.314 308.545 711.062 309.57 711.062 309.665C711.062 309.886 711.763 309.996 713.167 309.996H713.758C713.853 310.091 713.9 310.146 713.9 310.162C713.9 310.177 713.884 310.335 713.853 310.635C713.79 310.84 713.711 310.99 713.616 311.084H713.214C712.568 311.053 711.377 311.037 709.643 311.037C708.618 311.037 707.837 311.037 707.301 311.037C706.765 311.037 706.465 311.045 706.402 311.06Z" fill="white"/>
</g>
<g id="Group_12">
<g id="Group_13">
<path id="Vector_6" d="M722.6 306.889C722.298 306.889 722.064 306.795 721.897 306.605C721.73 306.416 721.641 306.17 721.63 305.869C721.63 305.256 721.897 304.71 722.432 304.231C722.967 303.751 723.614 303.511 724.372 303.511C724.762 303.511 725.008 303.517 725.108 303.528C725.933 303.662 726.563 303.957 726.998 304.414C727.432 304.872 727.655 305.368 727.667 305.903C727.667 306.483 727.477 307.046 727.098 307.592C726.719 308.138 726.195 308.534 725.526 308.779L725.476 308.813C725.476 308.824 725.526 308.84 725.626 308.863C725.727 308.885 725.888 308.935 726.111 309.013C726.334 309.091 726.546 309.208 726.747 309.364C727.661 309.955 728.118 310.736 728.118 311.706C728.118 312.586 727.772 313.356 727.081 314.013C726.39 314.671 725.515 315 724.456 315C723.564 315 722.795 314.76 722.148 314.281C721.501 313.802 721.178 313.194 721.178 312.458C721.178 312.146 721.278 311.895 721.479 311.706C721.68 311.516 721.931 311.416 722.232 311.405C722.544 311.405 722.8 311.505 723.001 311.706C723.202 311.906 723.302 312.157 723.302 312.458C723.302 312.581 723.285 312.692 723.252 312.793C723.218 312.893 723.179 312.982 723.135 313.06C723.09 313.138 723.029 313.205 722.951 313.261C722.873 313.317 722.806 313.361 722.75 313.395C722.694 313.428 722.639 313.45 722.583 313.462C722.527 313.473 722.482 313.489 722.449 313.512L722.382 313.528C722.951 314.03 723.642 314.281 724.456 314.281C725.069 314.281 725.532 313.985 725.844 313.395C726.033 313.027 726.128 312.464 726.128 311.706V311.371C726.128 310.312 725.771 309.604 725.058 309.247C724.891 309.18 724.55 309.141 724.038 309.13L723.335 309.114L723.285 309.08C723.263 309.047 723.252 308.958 723.252 308.813C723.252 308.612 723.296 308.512 723.385 308.512C723.698 308.512 724.021 308.484 724.355 308.428C724.734 308.372 725.08 308.138 725.392 307.726C725.704 307.313 725.86 306.689 725.86 305.853V305.719C725.86 305.083 725.665 304.643 725.275 304.398C725.03 304.242 724.768 304.164 724.489 304.164C724.132 304.164 723.804 304.225 723.503 304.348C723.202 304.47 722.99 304.598 722.867 304.732C722.744 304.866 722.683 304.933 722.683 304.933H722.733C722.767 304.944 722.811 304.955 722.867 304.966C722.923 304.977 722.979 305.005 723.034 305.05C723.09 305.095 723.157 305.134 723.235 305.167C723.313 305.2 723.369 305.262 723.402 305.351C723.436 305.44 723.48 305.524 723.536 305.602C723.592 305.68 723.608 305.791 723.586 305.936C723.586 306.182 723.508 306.399 723.352 306.588C723.196 306.778 722.945 306.878 722.6 306.889Z" fill="white"/>
</g>
</g>
</g>
</g>
</g>
<g id="Group 4">
<g id="Group 2">
<path id="Rectangle 16 (Stroke)" fill-rule="evenodd" clip-rule="evenodd" d="M277 137H213V201H277V137ZM210 134V204H280V134H210Z" fill="white"/>
<path id="Line 1 (Stroke)" fill-rule="evenodd" clip-rule="evenodd" d="M245 97V236.058H242V97H245Z" fill="white"/>
<path id="Line 2 (Stroke)" fill-rule="evenodd" clip-rule="evenodd" d="M318.031 169H172V166H318.031V169Z" fill="white"/>
</g>
<g id="Group 1">
<path id="Rectangle 17 (Stroke)" fill-rule="evenodd" clip-rule="evenodd" d="M515 137H421V231H515V137ZM418 134V234H518V134H418Z" fill="white"/>
<path id="Line 3 (Stroke)" fill-rule="evenodd" clip-rule="evenodd" d="M454 107V251.003H451V107H454Z" fill="white"/>
<path id="Line 4 (Stroke)" fill-rule="evenodd" clip-rule="evenodd" d="M488 107V251.003H485V107H488Z" fill="white"/>
<path id="Line 5 (Stroke)" fill-rule="evenodd" clip-rule="evenodd" d="M543.003 169H399V166H543.003V169Z" fill="white"/>
<path id="Line 6 (Stroke)" fill-rule="evenodd" clip-rule="evenodd" d="M543.003 204H399V201H543.003V204Z" fill="white"/>
</g>
<g id="Group 3">
<path id="Rectangle 18 (Stroke)" fill-rule="evenodd" clip-rule="evenodd" d="M782 116H648V250H782V116ZM645 113V253H785V113H645Z" fill="white"/>
<path id="Line 7 (Stroke)" fill-rule="evenodd" clip-rule="evenodd" d="M682 79V287.01H679V79H682Z" fill="white"/>
<path id="Line 8 (Stroke)" fill-rule="evenodd" clip-rule="evenodd" d="M718 79V287.01H715V79H718Z" fill="white"/>
<path id="Line 9 (Stroke)" fill-rule="evenodd" clip-rule="evenodd" d="M753 79V287.01H750V79H753Z" fill="white"/>
<path id="Line 10 (Stroke)" fill-rule="evenodd" clip-rule="evenodd" d="M815.01 150L607 150V147L815.01 147V150Z" fill="white"/>
<path id="Line 11 (Stroke)" fill-rule="evenodd" clip-rule="evenodd" d="M815.01 186L607 186V183L815.01 183V186Z" fill="white"/>
<path id="Line 12 (Stroke)" fill-rule="evenodd" clip-rule="evenodd" d="M815.01 220L607 220V217L815.01 217V220Z" fill="white"/>
</g>
</g>
</g>
<g id="claves">
<path id="Rectangle 4" d="M39 372H255.745L289 412L255.745 452H39V372Z" fill="#CD08D1" fill-opacity="0.1"/>
<path id="Rectangle 4 (Stroke)" fill-rule="evenodd" clip-rule="evenodd" d="M254.338 375H42V449H254.338L285.099 412L254.338 375ZM255.745 372H39V452H255.745L289 412L255.745 372Z" fill="#CD08D1"/>
<path id="Rectangle 5" d="M43 482H259.745L293 522L259.745 562H43V482Z" fill="#CD08D1" fill-opacity="0.1"/>
<path id="Rectangle 5 (Stroke)" fill-rule="evenodd" clip-rule="evenodd" d="M258.338 485H46V559H258.338L289.099 522L258.338 485ZM259.745 482H43V562H259.745L293 522L259.745 482Z" fill="#CD08D1"/>
<path id="Rectangle 6" d="M379 369H595.745L629 409L595.745 449H379V369Z" fill="#CD08D1" fill-opacity="0.1"/>
<path id="Rectangle 6 (Stroke)" fill-rule="evenodd" clip-rule="evenodd" d="M594.338 372H382V446H594.338L625.099 409L594.338 372ZM595.745 369H379V449H595.745L629 409L595.745 369Z" fill="#CD08D1"/>
<path id="Rectangle 7" d="M382 479H598.745L632 519L598.745 559H382V479Z" fill="#CD08D1" fill-opacity="0.1"/>
<path id="Rectangle 7 (Stroke)" fill-rule="evenodd" clip-rule="evenodd" d="M597.338 482H385V556H597.338L628.099 519L597.338 482ZM598.745 479H382V559H598.745L632 519L598.745 479Z" fill="#CD08D1"/>
<path id="Rectangle 8" d="M725 428H941.745L975 468L941.745 508H725V428Z" fill="#CD08D1" fill-opacity="0.1"/>
<path id="Rectangle 8 (Stroke)" fill-rule="evenodd" clip-rule="evenodd" d="M940.338 431H728V505H940.338L971.099 468L940.338 431ZM941.745 428H725V508H941.745L975 468L941.745 428Z" fill="#CD08D1"/>
<path id="Ellipse 1" d="M80 412C80 434.091 62.0914 452 40 452C17.9086 452 0 434.091 0 412C0 389.909 17.9086 372 40 372C62.0914 372 80 389.909 80 412Z" fill="#CD08D1"/>
<path id="Ellipse 2" d="M84 522C84 544.091 66.0914 562 44 562C21.9086 562 4 544.091 4 522C4 499.909 21.9086 482 44 482C66.0914 482 84 499.909 84 522Z" fill="#CD08D1"/>
<path id="Ellipse 3" d="M420 409C420 431.091 402.091 449 380 449C357.909 449 340 431.091 340 409C340 386.909 357.909 369 380 369C402.091 369 420 386.909 420 409Z" fill="#CD08D1"/>
<path id="Ellipse 4" d="M423 519C423 541.091 405.091 559 383 559C360.909 559 343 541.091 343 519C343 496.909 360.909 479 383 479C405.091 479 423 496.909 423 519Z" fill="#CD08D1"/>
<path id="Ellipse 5" d="M766 468C766 490.091 748.091 508 726 508C703.909 508 686 490.091 686 468C686 445.909 703.909 428 726 428C748.091 428 766 445.909 766 468Z" fill="#CD08D1"/>
<path id="A" d="M48.0938 422.406H30.4688L26.7812 433H18.5625L35.75 387.5H42.8438L60.0625 433H51.8125L48.0938 422.406ZM32.6875 416.031H45.875L39.2812 397.156L32.6875 416.031Z" fill="white"/>
<path id="B" d="M27.625 538V492.5H43.2188C48.3646 492.5 52.2812 493.531 54.9688 495.594C57.6562 497.656 59 500.729 59 504.812C59 506.896 58.4375 508.771 57.3125 510.438C56.1875 512.104 54.5417 513.396 52.375 514.312C54.8333 514.979 56.7292 516.24 58.0625 518.094C59.4167 519.927 60.0938 522.135 60.0938 524.719C60.0938 528.99 58.7188 532.271 55.9688 534.562C53.2396 536.854 49.3229 538 44.2188 538H27.625ZM35.5312 517.469V531.688H44.3125C46.7917 531.688 48.7292 531.073 50.125 529.844C51.5208 528.615 52.2188 526.906 52.2188 524.719C52.2188 519.99 49.8021 517.573 44.9688 517.469H35.5312ZM35.5312 511.656H43.2812C45.7396 511.656 47.6562 511.104 49.0312 510C50.4271 508.875 51.125 507.292 51.125 505.25C51.125 503 50.4792 501.375 49.1875 500.375C47.9167 499.375 45.9271 498.875 43.2188 498.875H35.5312V511.656Z" fill="white"/>
<path id="C" d="M397.344 416.188C396.885 421.042 395.094 424.833 391.969 427.562C388.844 430.271 384.688 431.625 379.5 431.625C375.875 431.625 372.677 430.771 369.906 429.062C367.156 427.333 365.031 424.885 363.531 421.719C362.031 418.552 361.25 414.875 361.188 410.688V406.438C361.188 402.146 361.948 398.365 363.469 395.094C364.99 391.823 367.167 389.302 370 387.531C372.854 385.76 376.146 384.875 379.875 384.875C384.896 384.875 388.938 386.24 392 388.969C395.062 391.698 396.844 395.552 397.344 400.531H389.469C389.094 397.26 388.135 394.906 386.594 393.469C385.073 392.01 382.833 391.281 379.875 391.281C376.438 391.281 373.792 392.542 371.938 395.062C370.104 397.562 369.167 401.24 369.125 406.094V410.125C369.125 415.042 370 418.792 371.75 421.375C373.521 423.958 376.104 425.25 379.5 425.25C382.604 425.25 384.938 424.552 386.5 423.156C388.062 421.76 389.052 419.438 389.469 416.188H397.344Z" fill="white"/>
<path id="D" d="M365.625 541V495.5H379.062C383.083 495.5 386.646 496.396 389.75 498.188C392.875 499.979 395.292 502.521 397 505.812C398.708 509.104 399.562 512.875 399.562 517.125V519.406C399.562 523.719 398.698 527.51 396.969 530.781C395.26 534.052 392.812 536.573 389.625 538.344C386.458 540.115 382.823 541 378.719 541H365.625ZM373.531 501.875V534.688H378.688C382.833 534.688 386.01 533.396 388.219 530.812C390.448 528.208 391.583 524.479 391.625 519.625V517.094C391.625 512.156 390.552 508.385 388.406 505.781C386.26 503.177 383.146 501.875 379.062 501.875H373.531Z" fill="white"/>
<path id="E" d="M735.219 469.688H716.531V483.688H738.375V490H708.625V444.5H738.156V450.875H716.531V463.438H735.219V469.688Z" fill="white"/>
<g id="2400 2480 2500 2000 2700">
<path d="M147.771 425H127.694V421.575L137.641 410.727C139.076 409.127 140.095 407.794 140.696 406.728C141.312 405.647 141.619 404.567 141.619 403.487C141.619 402.065 141.216 400.917 140.409 400.042C139.616 399.167 138.543 398.729 137.189 398.729C135.576 398.729 134.325 399.222 133.437 400.206C132.548 401.19 132.104 402.537 132.104 404.246H127.12C127.12 402.428 127.53 400.794 128.351 399.345C129.185 397.882 130.367 396.747 131.898 395.94C133.443 395.134 135.221 394.73 137.23 394.73C140.129 394.73 142.412 395.462 144.08 396.925C145.762 398.374 146.603 400.384 146.603 402.954C146.603 404.444 146.179 406.01 145.331 407.65C144.497 409.277 143.123 411.13 141.209 413.208L133.908 421.021H147.771V425Z" fill="#CD08D1"/>
<path d="M168.423 414.356H172.135V418.355H168.423V425H163.439V418.355H150.54L150.396 415.32L163.275 395.141H168.423V414.356ZM155.626 414.356H163.439V401.888L163.07 402.544L155.626 414.356Z" fill="#CD08D1"/>
<path d="M194.898 412.429C194.898 416.722 194.092 419.962 192.479 422.149C190.879 424.323 188.438 425.41 185.157 425.41C181.931 425.41 179.497 424.351 177.856 422.231C176.229 420.099 175.396 416.947 175.354 412.777V407.609C175.354 403.316 176.154 400.097 177.754 397.95C179.367 395.804 181.821 394.73 185.116 394.73C188.384 394.73 190.817 395.776 192.417 397.868C194.03 399.96 194.857 403.091 194.898 407.261V412.429ZM189.915 406.851C189.915 404.048 189.532 401.997 188.767 400.698C188.001 399.386 186.784 398.729 185.116 398.729C183.489 398.729 182.293 399.352 181.527 400.596C180.762 401.826 180.358 403.754 180.317 406.379V413.146C180.317 415.936 180.707 418.014 181.486 419.381C182.266 420.748 183.489 421.432 185.157 421.432C186.757 421.432 187.939 420.803 188.705 419.545C189.471 418.273 189.874 416.291 189.915 413.598V406.851Z" fill="#CD08D1"/>
<path d="M218.77 412.429C218.77 416.722 217.963 419.962 216.35 422.149C214.75 424.323 212.31 425.41 209.028 425.41C205.802 425.41 203.368 424.351 201.728 422.231C200.101 420.099 199.267 416.947 199.226 412.777V407.609C199.226 403.316 200.025 400.097 201.625 397.95C203.238 395.804 205.692 394.73 208.987 394.73C212.255 394.73 214.688 395.776 216.288 397.868C217.901 399.96 218.729 403.091 218.77 407.261V412.429ZM213.786 406.851C213.786 404.048 213.403 401.997 212.638 400.698C211.872 399.386 210.655 398.729 208.987 398.729C207.36 398.729 206.164 399.352 205.398 400.596C204.633 401.826 204.229 403.754 204.188 406.379V413.146C204.188 415.936 204.578 418.014 205.357 419.381C206.137 420.748 207.36 421.432 209.028 421.432C210.628 421.432 211.811 420.803 212.576 419.545C213.342 418.273 213.745 416.291 213.786 413.598V406.851Z" fill="#CD08D1"/>
<path d="M483.812 425H463.735V421.575L473.682 410.727C475.117 409.127 476.136 407.794 476.737 406.728C477.353 405.647 477.66 404.567 477.66 403.487C477.66 402.065 477.257 400.917 476.45 400.042C475.657 399.167 474.584 398.729 473.23 398.729C471.617 398.729 470.366 399.222 469.478 400.206C468.589 401.19 468.145 402.537 468.145 404.246H463.161C463.161 402.428 463.571 400.794 464.392 399.345C465.226 397.882 466.408 396.747 467.939 395.94C469.484 395.134 471.262 394.73 473.271 394.73C476.17 394.73 478.453 395.462 480.121 396.925C481.803 398.374 482.644 400.384 482.644 402.954C482.644 404.444 482.22 406.01 481.372 407.65C480.538 409.277 479.164 411.13 477.25 413.208L469.949 421.021H483.812V425Z" fill="#CD08D1"/>
<path d="M504.464 414.356H508.176V418.355H504.464V425H499.48V418.355H486.581L486.438 415.32L499.316 395.141H504.464V414.356ZM491.667 414.356H499.48V401.888L499.111 402.544L491.667 414.356Z" fill="#CD08D1"/>
<path d="M530.283 403.016C530.283 404.479 529.907 405.784 529.155 406.933C528.403 408.067 527.378 408.963 526.079 409.619C527.638 410.344 528.834 411.335 529.668 412.593C530.516 413.851 530.939 415.272 530.939 416.858C530.939 419.483 530.051 421.568 528.273 423.113C526.496 424.645 524.131 425.41 521.178 425.41C518.211 425.41 515.832 424.638 514.041 423.093C512.264 421.548 511.375 419.47 511.375 416.858C511.375 415.259 511.799 413.823 512.646 412.552C513.494 411.28 514.684 410.303 516.215 409.619C514.93 408.963 513.911 408.067 513.159 406.933C512.421 405.784 512.052 404.479 512.052 403.016C512.052 400.473 512.872 398.456 514.513 396.966C516.153 395.476 518.368 394.73 521.157 394.73C523.96 394.73 526.182 395.476 527.822 396.966C529.463 398.456 530.283 400.473 530.283 403.016ZM525.956 416.612C525.956 415.136 525.512 413.946 524.623 413.044C523.748 412.128 522.586 411.67 521.137 411.67C519.688 411.67 518.525 412.121 517.65 413.023C516.789 413.926 516.358 415.122 516.358 416.612C516.358 418.075 516.782 419.244 517.63 420.119C518.491 420.994 519.674 421.432 521.178 421.432C522.682 421.432 523.851 421.008 524.685 420.16C525.532 419.312 525.956 418.13 525.956 416.612ZM525.32 403.2C525.32 401.901 524.944 400.835 524.192 400.001C523.44 399.153 522.429 398.729 521.157 398.729C519.886 398.729 518.881 399.133 518.143 399.939C517.404 400.732 517.035 401.819 517.035 403.2C517.035 404.567 517.404 405.654 518.143 406.461C518.895 407.268 519.906 407.671 521.178 407.671C522.449 407.671 523.454 407.268 524.192 406.461C524.944 405.654 525.32 404.567 525.32 403.2Z" fill="#CD08D1"/>
<path d="M554.811 412.429C554.811 416.722 554.004 419.962 552.391 422.149C550.791 424.323 548.351 425.41 545.069 425.41C541.843 425.41 539.409 424.351 537.769 422.231C536.142 420.099 535.308 416.947 535.267 412.777V407.609C535.267 403.316 536.066 400.097 537.666 397.95C539.279 395.804 541.733 394.73 545.028 394.73C548.296 394.73 550.729 395.776 552.329 397.868C553.942 399.96 554.77 403.091 554.811 407.261V412.429ZM549.827 406.851C549.827 404.048 549.444 401.997 548.679 400.698C547.913 399.386 546.696 398.729 545.028 398.729C543.401 398.729 542.205 399.352 541.439 400.596C540.674 401.826 540.271 403.754 540.229 406.379V413.146C540.229 415.936 540.619 418.014 541.398 419.381C542.178 420.748 543.401 421.432 545.069 421.432C546.669 421.432 547.852 420.803 548.617 419.545C549.383 418.273 549.786 416.291 549.827 413.598V406.851Z" fill="#CD08D1"/>
<path d="M827.605 480H807.528V476.575L817.475 465.727C818.91 464.127 819.929 462.794 820.53 461.728C821.146 460.647 821.453 459.567 821.453 458.487C821.453 457.065 821.05 455.917 820.243 455.042C819.45 454.167 818.377 453.729 817.023 453.729C815.41 453.729 814.159 454.222 813.271 455.206C812.382 456.19 811.938 457.537 811.938 459.246H806.954C806.954 457.428 807.364 455.794 808.185 454.345C809.019 452.882 810.201 451.747 811.732 450.94C813.277 450.134 815.055 449.73 817.064 449.73C819.963 449.73 822.246 450.462 823.914 451.925C825.596 453.374 826.437 455.384 826.437 457.954C826.437 459.444 826.013 461.01 825.165 462.65C824.331 464.277 822.957 466.13 821.043 468.208L813.742 476.021H827.605V480Z" fill="#CD08D1"/>
<path d="M832.732 465.193L834.353 450.141H850.39V454.447H838.495L837.675 461.584C839.056 460.791 840.614 460.395 842.351 460.395C845.194 460.395 847.402 461.304 848.975 463.122C850.561 464.94 851.354 467.388 851.354 470.464C851.354 473.499 850.479 475.919 848.729 477.724C846.979 479.515 844.579 480.41 841.53 480.41C838.796 480.41 836.526 479.638 834.722 478.093C832.931 476.534 831.96 474.483 831.81 471.94H836.629C836.82 473.39 837.34 474.504 838.188 475.283C839.035 476.049 840.143 476.432 841.51 476.432C843.041 476.432 844.23 475.885 845.078 474.791C845.939 473.697 846.37 472.207 846.37 470.32C846.37 468.502 845.898 467.066 844.955 466.014C844.012 464.947 842.713 464.414 841.059 464.414C840.156 464.414 839.391 464.537 838.762 464.783C838.133 465.016 837.449 465.48 836.711 466.178L832.732 465.193Z" fill="#CD08D1"/>
<path d="M874.732 467.429C874.732 471.722 873.926 474.962 872.312 477.149C870.713 479.323 868.272 480.41 864.991 480.41C861.765 480.41 859.331 479.351 857.69 477.231C856.063 475.099 855.229 471.947 855.188 467.777V462.609C855.188 458.316 855.988 455.097 857.588 452.95C859.201 450.804 861.655 449.73 864.95 449.73C868.218 449.73 870.651 450.776 872.251 452.868C873.864 454.96 874.691 458.091 874.732 462.261V467.429ZM869.749 461.851C869.749 459.048 869.366 456.997 868.601 455.698C867.835 454.386 866.618 453.729 864.95 453.729C863.323 453.729 862.127 454.352 861.361 455.596C860.596 456.826 860.192 458.754 860.151 461.379V468.146C860.151 470.936 860.541 473.014 861.32 474.381C862.1 475.748 863.323 476.432 864.991 476.432C866.591 476.432 867.773 475.803 868.539 474.545C869.305 473.273 869.708 471.291 869.749 468.598V461.851Z" fill="#CD08D1"/>
<path d="M898.604 467.429C898.604 471.722 897.797 474.962 896.184 477.149C894.584 479.323 892.144 480.41 888.862 480.41C885.636 480.41 883.202 479.351 881.562 477.231C879.935 475.099 879.101 471.947 879.06 467.777V462.609C879.06 458.316 879.859 455.097 881.459 452.95C883.072 450.804 885.526 449.73 888.821 449.73C892.089 449.73 894.522 450.776 896.122 452.868C897.735 454.96 898.562 458.091 898.604 462.261V467.429ZM893.62 461.851C893.62 459.048 893.237 456.997 892.472 455.698C891.706 454.386 890.489 453.729 888.821 453.729C887.194 453.729 885.998 454.352 885.232 455.596C884.467 456.826 884.063 458.754 884.022 461.379V468.146C884.022 470.936 884.412 473.014 885.191 474.381C885.971 475.748 887.194 476.432 888.862 476.432C890.462 476.432 891.645 475.803 892.41 474.545C893.176 473.273 893.579 471.291 893.62 468.598V461.851Z" fill="#CD08D1"/>
<path d="M137.312 535H117.235V531.575L127.182 520.727C128.617 519.127 129.636 517.794 130.237 516.728C130.853 515.647 131.16 514.567 131.16 513.487C131.16 512.065 130.757 510.917 129.95 510.042C129.157 509.167 128.084 508.729 126.73 508.729C125.117 508.729 123.866 509.222 122.978 510.206C122.089 511.19 121.645 512.537 121.645 514.246H116.661C116.661 512.428 117.071 510.794 117.892 509.345C118.726 507.882 119.908 506.747 121.439 505.94C122.984 505.134 124.762 504.73 126.771 504.73C129.67 504.73 131.953 505.462 133.621 506.925C135.303 508.374 136.144 510.384 136.144 512.954C136.144 514.444 135.72 516.01 134.872 517.65C134.038 519.277 132.664 521.13 130.75 523.208L123.449 531.021H137.312V535Z" fill="#CD08D1"/>
<path d="M160.568 522.429C160.568 526.722 159.762 529.962 158.148 532.149C156.549 534.323 154.108 535.41 150.827 535.41C147.601 535.41 145.167 534.351 143.526 532.231C141.899 530.099 141.065 526.947 141.024 522.777V517.609C141.024 513.316 141.824 510.097 143.424 507.95C145.037 505.804 147.491 504.73 150.786 504.73C154.054 504.73 156.487 505.776 158.087 507.868C159.7 509.96 160.527 513.091 160.568 517.261V522.429ZM155.585 516.851C155.585 514.048 155.202 511.997 154.437 510.698C153.671 509.386 152.454 508.729 150.786 508.729C149.159 508.729 147.963 509.352 147.197 510.596C146.432 511.826 146.028 513.754 145.987 516.379V523.146C145.987 525.936 146.377 528.014 147.156 529.381C147.936 530.748 149.159 531.432 150.827 531.432C152.427 531.432 153.609 530.803 154.375 529.545C155.141 528.273 155.544 526.291 155.585 523.598V516.851Z" fill="#CD08D1"/>
<path d="M184.439 522.429C184.439 526.722 183.633 529.962 182.02 532.149C180.42 534.323 177.979 535.41 174.698 535.41C171.472 535.41 169.038 534.351 167.397 532.231C165.771 530.099 164.937 526.947 164.896 522.777V517.609C164.896 513.316 165.695 510.097 167.295 507.95C168.908 505.804 171.362 504.73 174.657 504.73C177.925 504.73 180.358 505.776 181.958 507.868C183.571 509.96 184.398 513.091 184.439 517.261V522.429ZM179.456 516.851C179.456 514.048 179.073 511.997 178.308 510.698C177.542 509.386 176.325 508.729 174.657 508.729C173.03 508.729 171.834 509.352 171.068 510.596C170.303 511.826 169.899 513.754 169.858 516.379V523.146C169.858 525.936 170.248 528.014 171.027 529.381C171.807 530.748 173.03 531.432 174.698 531.432C176.298 531.432 177.48 530.803 178.246 529.545C179.012 528.273 179.415 526.291 179.456 523.598V516.851Z" fill="#CD08D1"/>
<path d="M208.311 522.429C208.311 526.722 207.504 529.962 205.891 532.149C204.291 534.323 201.851 535.41 198.569 535.41C195.343 535.41 192.909 534.351 191.269 532.231C189.642 530.099 188.808 526.947 188.767 522.777V517.609C188.767 513.316 189.566 510.097 191.166 507.95C192.779 505.804 195.233 504.73 198.528 504.73C201.796 504.73 204.229 505.776 205.829 507.868C207.442 509.96 208.27 513.091 208.311 517.261V522.429ZM203.327 516.851C203.327 514.048 202.944 511.997 202.179 510.698C201.413 509.386 200.196 508.729 198.528 508.729C196.901 508.729 195.705 509.352 194.939 510.596C194.174 511.826 193.771 513.754 193.729 516.379V523.146C193.729 525.936 194.119 528.014 194.898 529.381C195.678 530.748 196.901 531.432 198.569 531.432C200.169 531.432 201.352 530.803 202.117 529.545C202.883 528.273 203.286 526.291 203.327 523.598V516.851Z" fill="#CD08D1"/>
<path d="M483.812 535H463.735V531.575L473.682 520.727C475.117 519.127 476.136 517.794 476.737 516.728C477.353 515.647 477.66 514.567 477.66 513.487C477.66 512.065 477.257 510.917 476.45 510.042C475.657 509.167 474.584 508.729 473.23 508.729C471.617 508.729 470.366 509.222 469.478 510.206C468.589 511.19 468.145 512.537 468.145 514.246H463.161C463.161 512.428 463.571 510.794 464.392 509.345C465.226 507.882 466.408 506.747 467.939 505.94C469.484 505.134 471.262 504.73 473.271 504.73C476.17 504.73 478.453 505.462 480.121 506.925C481.803 508.374 482.644 510.384 482.644 512.954C482.644 514.444 482.22 516.01 481.372 517.65C480.538 519.277 479.164 521.13 477.25 523.208L469.949 531.021H483.812V535Z" fill="#CD08D1"/>
<path d="M507.479 507.909L495.543 535H490.313L502.229 509.14H486.786V505.141H507.479V507.909Z" fill="#CD08D1"/>
<path d="M530.939 522.429C530.939 526.722 530.133 529.962 528.52 532.149C526.92 534.323 524.479 535.41 521.198 535.41C517.972 535.41 515.538 534.351 513.897 532.231C512.271 530.099 511.437 526.947 511.396 522.777V517.609C511.396 513.316 512.195 510.097 513.795 507.95C515.408 505.804 517.862 504.73 521.157 504.73C524.425 504.73 526.858 505.776 528.458 507.868C530.071 509.96 530.898 513.091 530.939 517.261V522.429ZM525.956 516.851C525.956 514.048 525.573 511.997 524.808 510.698C524.042 509.386 522.825 508.729 521.157 508.729C519.53 508.729 518.334 509.352 517.568 510.596C516.803 511.826 516.399 513.754 516.358 516.379V523.146C516.358 525.936 516.748 528.014 517.527 529.381C518.307 530.748 519.53 531.432 521.198 531.432C522.798 531.432 523.98 530.803 524.746 529.545C525.512 528.273 525.915 526.291 525.956 523.598V516.851Z" fill="#CD08D1"/>
<path d="M554.811 522.429C554.811 526.722 554.004 529.962 552.391 532.149C550.791 534.323 548.351 535.41 545.069 535.41C541.843 535.41 539.409 534.351 537.769 532.231C536.142 530.099 535.308 526.947 535.267 522.777V517.609C535.267 513.316 536.066 510.097 537.666 507.95C539.279 505.804 541.733 504.73 545.028 504.73C548.296 504.73 550.729 505.776 552.329 507.868C553.942 509.96 554.77 513.091 554.811 517.261V522.429ZM549.827 516.851C549.827 514.048 549.444 511.997 548.679 510.698C547.913 509.386 546.696 508.729 545.028 508.729C543.401 508.729 542.205 509.352 541.439 510.596C540.674 511.826 540.271 513.754 540.229 516.379V523.146C540.229 525.936 540.619 528.014 541.398 529.381C542.178 530.748 543.401 531.432 545.069 531.432C546.669 531.432 547.852 530.803 548.617 529.545C549.383 528.273 549.786 526.291 549.827 523.598V516.851Z" fill="#CD08D1"/>
</g>
<g id="flecha">
<path id="Rectangle 2" d="M391.2 477.008L406.482 485.133L364.5 564.089L349.219 555.963L391.2 477.008Z" fill="#1043F5"/>
<path id="Rectangle 1_2" d="M333 489.904L423 440V497.692L378 480.096L333 489.904Z" fill="#1043F5"/>
<path id="Rectangle 3" d="M337.038 559.21L352.666 532.143L369.936 531.565L354.309 558.632L337.038 559.21Z" fill="#1043F5"/>
<path id="Rectangle 4_2" d="M363.089 573.845L378.717 546.778L369.926 531.154L354.299 558.221L363.089 573.845Z" fill="#1043F5"/>
</g>
</g>
</g>
</svg>
