<svg viewBox="0 0 986 767" fill="none" xmlns="http://www.w3.org/2000/svg">
<g id="0123111">
<g id="enunciado">
<path id="Rectangle 1" d="M35 72.0093C35 34.26 58.3431 3.65808 87.1382 3.65808H986V476.649C986 514.398 962.657 545 933.862 545H35V72.0093Z" fill="#02071A"/>
<path id="Rectangle 1 (Stroke)" fill-rule="evenodd" clip-rule="evenodd" d="M980.786 10.4368H87.1382C61.2226 10.4368 40.2138 37.9814 40.2138 71.9593V538.164H933.862C959.777 538.164 980.786 510.619 980.786 476.641V10.4368ZM87.1382 3.60095C58.3431 3.60095 35 34.206 35 71.9593V544.999H933.862C962.657 544.999 986 514.394 986 476.641V3.60095H87.1382Z" fill="#CD08D1"/>
<path id="Rectangle 14" d="M91.4655 3.78069C119.352 -4.72586 985.999 3.78069 985.999 3.78069V40.6073C985.999 40.6073 76.7104 27.0716 44.3848 40.6073C54.443 21.075 63.5795 12.2872 91.4655 3.78069Z" fill="#CD08D1"/>
<path id="Rectangle 15" d="M953 11.7047H984V478.057C980.195 509.705 972.308 521.336 953 536.519C958.683 511.656 953 11.7047 953 11.7047Z" fill="#CD08D1"/>
<g id="&#194;&#191;Cu&#195;&#161;ntos cuadritos sombreados hay en total?">
<path d="M68.0586 67.7067C68.0449 69.1559 67.8945 70.318 67.6074 71.193C67.334 72.0543 66.8691 72.8883 66.2129 73.6949C65.5566 74.5016 64.5996 75.568 63.3418 76.8942C62.084 78.2067 61.3799 79.5397 61.2295 80.8932L61.1885 81.652C61.1885 83.1422 61.585 84.277 62.3779 85.0563C63.1709 85.8492 64.3125 86.2457 65.8027 86.2457C67.1699 86.2457 68.2773 85.8561 69.125 85.0768C69.9863 84.3112 70.417 83.3063 70.417 82.0621H74.2109C74.1836 84.2633 73.3975 86.0612 71.8525 87.4557C70.3213 88.8502 68.3047 89.5475 65.8027 89.5475C63.123 89.5475 61.0518 88.8571 59.5889 87.4762C58.126 86.109 57.3945 84.2018 57.3945 81.7545C57.3945 79.3893 58.4883 77.0104 60.6758 74.6178L62.9111 72.3004C63.8135 71.234 64.2646 69.7028 64.2646 67.7067H68.0586ZM68.2227 61.2057C68.2227 61.8209 68.0312 62.3405 67.6484 62.7643C67.2793 63.1881 66.7256 63.4 65.9873 63.4C65.249 63.4 64.6885 63.1881 64.3057 62.7643C63.9229 62.3405 63.7314 61.8209 63.7314 61.2057C63.7314 60.6041 63.9229 60.0983 64.3057 59.6881C64.6885 59.278 65.249 59.0729 65.9873 59.0729C66.7256 59.0729 67.2793 59.278 67.6484 59.6881C68.0312 60.0983 68.2227 60.6041 68.2227 61.2057Z" fill="white"/>
<path d="M101.322 72.1774C100.953 75.3356 99.7842 77.776 97.8154 79.4987C95.8604 81.2076 93.2559 82.0621 90.002 82.0621C86.4746 82.0621 83.6445 80.7975 81.5117 78.2682C79.3926 75.7389 78.333 72.3551 78.333 68.1168V65.2457C78.333 62.4703 78.8252 60.0299 79.8096 57.9244C80.8076 55.819 82.2158 54.2057 84.0342 53.0846C85.8525 51.9498 87.958 51.3824 90.3506 51.3824C93.5225 51.3824 96.0654 52.2711 97.9795 54.0485C99.8936 55.8121 101.008 58.2594 101.322 61.3903H97.3643C97.0225 59.0114 96.2773 57.2887 95.1289 56.2223C93.9941 55.1559 92.4014 54.6227 90.3506 54.6227C87.835 54.6227 85.8594 55.5524 84.4238 57.4117C83.002 59.2711 82.291 61.9166 82.291 65.3483V68.2399C82.291 71.4801 82.9678 74.0573 84.3213 75.9713C85.6748 77.8854 87.5684 78.8424 90.002 78.8424C92.1895 78.8424 93.8643 78.3502 95.0264 77.3658C96.2021 76.3678 96.9814 74.6383 97.3643 72.1774H101.322Z" fill="white"/>
<path d="M119.82 79.4576C118.344 81.194 116.177 82.0621 113.319 82.0621C110.954 82.0621 109.149 81.3785 107.905 80.0114C106.675 78.6305 106.053 76.5934 106.039 73.9V59.4625H109.833V73.7975C109.833 77.1608 111.2 78.8424 113.935 78.8424C116.833 78.8424 118.761 77.7623 119.718 75.6022V59.4625H123.512V81.652H119.902L119.82 79.4576Z" fill="white"/>
<path d="M142.994 81.652C142.775 81.2145 142.598 80.4352 142.461 79.3141C140.697 81.1461 138.592 82.0621 136.145 82.0621C133.957 82.0621 132.159 81.4469 130.751 80.2164C129.356 78.9723 128.659 77.4 128.659 75.4996C128.659 73.1891 129.534 71.3981 131.284 70.1266C133.048 68.8414 135.522 68.1989 138.708 68.1989H142.399V66.4557C142.399 65.1295 142.003 64.0768 141.21 63.2975C140.417 62.5045 139.248 62.108 137.703 62.108C136.35 62.108 135.215 62.4498 134.299 63.1334C133.383 63.817 132.925 64.6442 132.925 65.6149H129.11C129.11 64.5074 129.5 63.441 130.279 62.4156C131.072 61.3766 132.139 60.5563 133.479 59.9547C134.832 59.3531 136.315 59.0524 137.929 59.0524C140.485 59.0524 142.488 59.6949 143.938 60.9801C145.387 62.2516 146.139 64.0084 146.193 66.2506V76.4635C146.193 78.5006 146.453 80.1207 146.973 81.3239V81.652H142.994ZM136.698 78.7604C137.888 78.7604 139.016 78.4528 140.082 77.8375C141.148 77.2223 141.921 76.4225 142.399 75.4381V70.8854H139.426C134.777 70.8854 132.453 72.2457 132.453 74.9664C132.453 76.1559 132.85 77.0856 133.643 77.7555C134.436 78.4254 135.454 78.7604 136.698 78.7604ZM140.205 50.152H144.799L139.303 56.1813H136.247L140.205 50.152Z" fill="white"/>
<path d="M155.729 59.4625L155.853 62.2516C157.548 60.1188 159.763 59.0524 162.497 59.0524C167.187 59.0524 169.552 61.6979 169.593 66.9889V81.652H165.799V66.9684C165.785 65.3688 165.416 64.1862 164.691 63.4205C163.98 62.6549 162.866 62.2721 161.349 62.2721C160.118 62.2721 159.038 62.6002 158.108 63.2565C157.179 63.9127 156.454 64.774 155.935 65.8405V81.652H152.141V59.4625H155.729Z" fill="white"/>
<path d="M180.462 54.0895V59.4625H184.604V62.3951H180.462V76.1559C180.462 77.0446 180.646 77.7145 181.016 78.1656C181.385 78.6031 182.014 78.8219 182.902 78.8219C183.34 78.8219 183.941 78.7399 184.707 78.5758V81.652C183.709 81.9254 182.738 82.0621 181.795 82.0621C180.1 82.0621 178.821 81.5494 177.96 80.524C177.099 79.4987 176.668 78.0426 176.668 76.1559V62.3951H172.628V59.4625H176.668V54.0895H180.462Z" fill="white"/>
<path d="M187.64 70.3522C187.64 68.1783 188.063 66.2233 188.911 64.4869C189.772 62.7506 190.962 61.4108 192.479 60.4674C194.011 59.524 195.754 59.0524 197.709 59.0524C200.73 59.0524 203.171 60.0983 205.03 62.1901C206.903 64.2819 207.84 67.0641 207.84 70.5367V70.8033C207.84 72.9635 207.423 74.9049 206.589 76.6276C205.769 78.3365 204.586 79.6696 203.041 80.6266C201.51 81.5836 199.746 82.0621 197.75 82.0621C194.742 82.0621 192.302 81.0162 190.429 78.9244C188.569 76.8326 187.64 74.0641 187.64 70.6188V70.3522ZM191.454 70.8033C191.454 73.2643 192.021 75.2399 193.156 76.7301C194.305 78.2203 195.836 78.9655 197.75 78.9655C199.678 78.9655 201.209 78.2135 202.344 76.7096C203.479 75.192 204.046 73.0729 204.046 70.3522C204.046 67.9186 203.465 65.9498 202.303 64.4459C201.154 62.9283 199.623 62.1696 197.709 62.1696C195.836 62.1696 194.325 62.9147 193.177 64.4049C192.028 65.8951 191.454 68.028 191.454 70.8033Z" fill="white"/>
<path d="M225.518 75.7662C225.518 74.7408 225.128 73.9479 224.349 73.3873C223.583 72.8131 222.236 72.3209 220.309 71.9108C218.395 71.5006 216.87 71.0084 215.735 70.4342C214.614 69.86 213.78 69.1764 213.233 68.3834C212.7 67.5905 212.434 66.6471 212.434 65.5533C212.434 63.735 213.199 62.1969 214.73 60.9391C216.275 59.6813 218.244 59.0524 220.637 59.0524C223.152 59.0524 225.189 59.7018 226.748 61.0006C228.32 62.2994 229.106 63.9606 229.106 65.984H225.292C225.292 64.9449 224.848 64.0494 223.959 63.2975C223.084 62.5455 221.977 62.1696 220.637 62.1696C219.256 62.1696 218.176 62.4703 217.396 63.0719C216.617 63.6735 216.228 64.4596 216.228 65.4303C216.228 66.3463 216.59 67.0367 217.314 67.5016C218.039 67.9664 219.345 68.4108 221.231 68.8346C223.132 69.2584 224.67 69.7643 225.846 70.3522C227.021 70.9401 227.89 71.651 228.45 72.485C229.024 73.3053 229.312 74.3102 229.312 75.4996C229.312 77.4821 228.519 79.0748 226.933 80.278C225.347 81.4674 223.289 82.0621 220.76 82.0621C218.982 82.0621 217.41 81.7477 216.043 81.1188C214.676 80.4899 213.603 79.6149 212.823 78.4938C212.058 77.359 211.675 76.1354 211.675 74.8229H215.469C215.537 76.0944 216.043 77.1061 216.986 77.858C217.943 78.5963 219.201 78.9655 220.76 78.9655C222.195 78.9655 223.344 78.6783 224.205 78.1041C225.08 77.5162 225.518 76.7369 225.518 75.7662Z" fill="white"/>
<path d="M253.572 78.9655C254.926 78.9655 256.108 78.5553 257.12 77.735C258.132 76.9147 258.692 75.8893 258.802 74.6588H262.391C262.322 75.9303 261.885 77.1403 261.078 78.2887C260.271 79.4371 259.191 80.3531 257.838 81.0367C256.498 81.7203 255.076 82.0621 253.572 82.0621C250.551 82.0621 248.145 81.0573 246.354 79.0475C244.576 77.024 243.688 74.2623 243.688 70.7623V70.1266C243.688 67.9664 244.084 66.0455 244.877 64.3639C245.67 62.6823 246.805 61.3766 248.281 60.4469C249.771 59.5172 251.528 59.0524 253.552 59.0524C256.04 59.0524 258.104 59.7975 259.745 61.2877C261.399 62.778 262.281 64.7125 262.391 67.0914H258.802C258.692 65.6559 258.146 64.4801 257.161 63.5641C256.19 62.6344 254.987 62.1696 253.552 62.1696C251.624 62.1696 250.127 62.8668 249.061 64.2614C248.008 65.6422 247.481 67.6451 247.481 70.2701V70.9879C247.481 73.5446 248.008 75.5133 249.061 76.8942C250.113 78.275 251.617 78.9655 253.572 78.9655Z" fill="white"/>
<path d="M280.355 79.4576C278.879 81.194 276.712 82.0621 273.854 82.0621C271.489 82.0621 269.685 81.3785 268.44 80.0114C267.21 78.6305 266.588 76.5934 266.574 73.9V59.4625H270.368V73.7975C270.368 77.1608 271.735 78.8424 274.47 78.8424C277.368 78.8424 279.296 77.7623 280.253 75.6022V59.4625H284.047V81.652H280.438L280.355 79.4576Z" fill="white"/>
<path d="M303.529 81.652C303.311 81.2145 303.133 80.4352 302.996 79.3141C301.232 81.1461 299.127 82.0621 296.68 82.0621C294.492 82.0621 292.694 81.4469 291.286 80.2164C289.892 78.9723 289.194 77.4 289.194 75.4996C289.194 73.1891 290.069 71.3981 291.819 70.1266C293.583 68.8414 296.058 68.1989 299.243 68.1989H302.935V66.4557C302.935 65.1295 302.538 64.0768 301.745 63.2975C300.952 62.5045 299.783 62.108 298.238 62.108C296.885 62.108 295.75 62.4498 294.834 63.1334C293.918 63.817 293.46 64.6442 293.46 65.6149H289.646C289.646 64.5074 290.035 63.441 290.814 62.4156C291.607 61.3766 292.674 60.5563 294.014 59.9547C295.367 59.3531 296.851 59.0524 298.464 59.0524C301.021 59.0524 303.023 59.6949 304.473 60.9801C305.922 62.2516 306.674 64.0084 306.729 66.2506V76.4635C306.729 78.5006 306.988 80.1207 307.508 81.3239V81.652H303.529ZM297.233 78.7604C298.423 78.7604 299.551 78.4528 300.617 77.8375C301.684 77.2223 302.456 76.4225 302.935 75.4381V70.8854H299.961C295.312 70.8854 292.988 72.2457 292.988 74.9664C292.988 76.1559 293.385 77.0856 294.178 77.7555C294.971 78.4254 295.989 78.7604 297.233 78.7604Z" fill="white"/>
<path d="M311.753 70.3727C311.753 66.9684 312.56 64.234 314.173 62.1696C315.786 60.0914 317.898 59.0524 320.51 59.0524C323.107 59.0524 325.165 59.941 326.683 61.7184V50.152H330.477V81.652H326.99L326.806 79.2731C325.288 81.1324 323.176 82.0621 320.469 82.0621C317.898 82.0621 315.8 81.0094 314.173 78.9039C312.56 76.7985 311.753 74.0504 311.753 70.6598V70.3727ZM315.547 70.8033C315.547 73.319 316.066 75.2877 317.105 76.7096C318.145 78.1315 319.58 78.8424 321.412 78.8424C323.818 78.8424 325.575 77.7623 326.683 75.6022V65.4098C325.548 63.318 323.805 62.2721 321.453 62.2721C319.594 62.2721 318.145 62.9899 317.105 64.4254C316.066 65.861 315.547 67.9869 315.547 70.8033Z" fill="white"/>
<path d="M347.108 62.8668C346.534 62.7711 345.912 62.7233 345.242 62.7233C342.754 62.7233 341.065 63.7828 340.177 65.902V81.652H336.383V59.4625H340.074L340.136 62.026C341.38 60.0436 343.144 59.0524 345.427 59.0524C346.165 59.0524 346.726 59.1481 347.108 59.3395V62.8668Z" fill="white"/>
<path d="M354.737 81.652H350.943V59.4625H354.737V81.652ZM350.636 53.5768C350.636 52.9615 350.82 52.442 351.189 52.0182C351.572 51.5944 352.133 51.3824 352.871 51.3824C353.609 51.3824 354.17 51.5944 354.553 52.0182C354.936 52.442 355.127 52.9615 355.127 53.5768C355.127 54.192 354.936 54.7047 354.553 55.1149C354.17 55.525 353.609 55.7301 352.871 55.7301C352.133 55.7301 351.572 55.525 351.189 55.1149C350.82 54.7047 350.636 54.192 350.636 53.5768Z" fill="white"/>
<path d="M365.976 54.0895V59.4625H370.118V62.3951H365.976V76.1559C365.976 77.0446 366.16 77.7145 366.529 78.1656C366.898 78.6031 367.527 78.8219 368.416 78.8219C368.854 78.8219 369.455 78.7399 370.221 78.5758V81.652C369.223 81.9254 368.252 82.0621 367.309 82.0621C365.613 82.0621 364.335 81.5494 363.474 80.524C362.612 79.4987 362.182 78.0426 362.182 76.1559V62.3951H358.142V59.4625H362.182V54.0895H365.976Z" fill="white"/>
<path d="M373.153 70.3522C373.153 68.1783 373.577 66.2233 374.425 64.4869C375.286 62.7506 376.476 61.4108 377.993 60.4674C379.524 59.524 381.268 59.0524 383.223 59.0524C386.244 59.0524 388.685 60.0983 390.544 62.1901C392.417 64.2819 393.354 67.0641 393.354 70.5367V70.8033C393.354 72.9635 392.937 74.9049 392.103 76.6276C391.282 78.3365 390.1 79.6696 388.555 80.6266C387.023 81.5836 385.26 82.0621 383.264 82.0621C380.256 82.0621 377.815 81.0162 375.942 78.9244C374.083 76.8326 373.153 74.0641 373.153 70.6188V70.3522ZM376.968 70.8033C376.968 73.2643 377.535 75.2399 378.67 76.7301C379.818 78.2203 381.35 78.9655 383.264 78.9655C385.191 78.9655 386.723 78.2135 387.857 76.7096C388.992 75.192 389.56 73.0729 389.56 70.3522C389.56 67.9186 388.979 65.9498 387.816 64.4459C386.668 62.9283 385.137 62.1696 383.223 62.1696C381.35 62.1696 379.839 62.9147 378.69 64.4049C377.542 65.8951 376.968 68.028 376.968 70.8033Z" fill="white"/>
<path d="M411.031 75.7662C411.031 74.7408 410.642 73.9479 409.862 73.3873C409.097 72.8131 407.75 72.3209 405.822 71.9108C403.908 71.5006 402.384 71.0084 401.249 70.4342C400.128 69.86 399.294 69.1764 398.747 68.3834C398.214 67.5905 397.947 66.6471 397.947 65.5533C397.947 63.735 398.713 62.1969 400.244 60.9391C401.789 59.6813 403.758 59.0524 406.15 59.0524C408.666 59.0524 410.703 59.7018 412.262 61.0006C413.834 62.2994 414.62 63.9606 414.62 65.984H410.806C410.806 64.9449 410.361 64.0494 409.473 63.2975C408.598 62.5455 407.49 62.1696 406.15 62.1696C404.77 62.1696 403.689 62.4703 402.91 63.0719C402.131 63.6735 401.741 64.4596 401.741 65.4303C401.741 66.3463 402.104 67.0367 402.828 67.5016C403.553 67.9664 404.858 68.4108 406.745 68.8346C408.646 69.2584 410.184 69.7643 411.359 70.3522C412.535 70.9401 413.403 71.651 413.964 72.485C414.538 73.3053 414.825 74.3102 414.825 75.4996C414.825 77.4821 414.032 79.0748 412.446 80.278C410.86 81.4674 408.803 82.0621 406.273 82.0621C404.496 82.0621 402.924 81.7477 401.557 81.1188C400.189 80.4899 399.116 79.6149 398.337 78.4938C397.571 77.359 397.188 76.1354 397.188 74.8229H400.982C401.051 76.0944 401.557 77.1061 402.5 77.858C403.457 78.5963 404.715 78.9655 406.273 78.9655C407.709 78.9655 408.857 78.6783 409.719 78.1041C410.594 77.5162 411.031 76.7369 411.031 75.7662Z" fill="white"/>
<path d="M443.105 75.7662C443.105 74.7408 442.716 73.9479 441.937 73.3873C441.171 72.8131 439.824 72.3209 437.896 71.9108C435.982 71.5006 434.458 71.0084 433.323 70.4342C432.202 69.86 431.368 69.1764 430.821 68.3834C430.288 67.5905 430.021 66.6471 430.021 65.5533C430.021 63.735 430.787 62.1969 432.318 60.9391C433.863 59.6813 435.832 59.0524 438.225 59.0524C440.74 59.0524 442.777 59.7018 444.336 61.0006C445.908 62.2994 446.694 63.9606 446.694 65.984H442.88C442.88 64.9449 442.436 64.0494 441.547 63.2975C440.672 62.5455 439.564 62.1696 438.225 62.1696C436.844 62.1696 435.764 62.4703 434.984 63.0719C434.205 63.6735 433.815 64.4596 433.815 65.4303C433.815 66.3463 434.178 67.0367 434.902 67.5016C435.627 67.9664 436.933 68.4108 438.819 68.8346C440.72 69.2584 442.258 69.7643 443.434 70.3522C444.609 70.9401 445.478 71.651 446.038 72.485C446.612 73.3053 446.899 74.3102 446.899 75.4996C446.899 77.4821 446.106 79.0748 444.521 80.278C442.935 81.4674 440.877 82.0621 438.348 82.0621C436.57 82.0621 434.998 81.7477 433.631 81.1188C432.264 80.4899 431.19 79.6149 430.411 78.4938C429.646 77.359 429.263 76.1354 429.263 74.8229H433.057C433.125 76.0944 433.631 77.1061 434.574 77.858C435.531 78.5963 436.789 78.9655 438.348 78.9655C439.783 78.9655 440.932 78.6783 441.793 78.1041C442.668 77.5162 443.105 76.7369 443.105 75.7662Z" fill="white"/>
<path d="M450.837 70.3522C450.837 68.1783 451.261 66.2233 452.108 64.4869C452.97 62.7506 454.159 61.4108 455.677 60.4674C457.208 59.524 458.951 59.0524 460.906 59.0524C463.928 59.0524 466.368 60.0983 468.228 62.1901C470.101 64.2819 471.037 67.0641 471.037 70.5367V70.8033C471.037 72.9635 470.62 74.9049 469.786 76.6276C468.966 78.3365 467.783 79.6696 466.238 80.6266C464.707 81.5836 462.943 82.0621 460.947 82.0621C457.939 82.0621 455.499 81.0162 453.626 78.9244C451.767 76.8326 450.837 74.0641 450.837 70.6188V70.3522ZM454.651 70.8033C454.651 73.2643 455.219 75.2399 456.354 76.7301C457.502 78.2203 459.033 78.9655 460.947 78.9655C462.875 78.9655 464.406 78.2135 465.541 76.7096C466.676 75.192 467.243 73.0729 467.243 70.3522C467.243 67.9186 466.662 65.9498 465.5 64.4459C464.352 62.9283 462.82 62.1696 460.906 62.1696C459.033 62.1696 457.522 62.9147 456.374 64.4049C455.226 65.8951 454.651 68.028 454.651 70.8033Z" fill="white"/>
<path d="M479.363 59.4625L479.466 61.9235C481.093 60.0094 483.287 59.0524 486.049 59.0524C489.152 59.0524 491.265 60.2418 492.386 62.6207C493.124 61.5543 494.081 60.693 495.257 60.0367C496.446 59.3805 497.848 59.0524 499.461 59.0524C504.328 59.0524 506.803 61.6295 506.885 66.7838V81.652H503.091V67.0094C503.091 65.4235 502.729 64.2408 502.004 63.4615C501.279 62.6686 500.062 62.2721 498.354 62.2721C496.945 62.2721 495.776 62.6959 494.847 63.5436C493.917 64.3776 493.377 65.5055 493.227 66.9274V81.652H489.412V67.1119C489.412 63.8854 487.833 62.2721 484.675 62.2721C482.187 62.2721 480.484 63.3317 479.568 65.4508V81.652H475.774V59.4625H479.363Z" fill="white"/>
<path d="M531.412 70.8033C531.412 74.194 530.633 76.9215 529.074 78.986C527.516 81.0367 525.424 82.0621 522.799 82.0621C519.996 82.0621 517.829 81.0709 516.298 79.0885L516.113 81.652H512.627V50.152H516.421V61.903C517.952 60.0026 520.064 59.0524 522.758 59.0524C525.451 59.0524 527.563 60.0709 529.095 62.108C530.64 64.1451 531.412 66.9342 531.412 70.4752V70.8033ZM527.618 70.3727C527.618 67.7887 527.119 65.7926 526.121 64.3844C525.123 62.9762 523.688 62.2721 521.814 62.2721C519.312 62.2721 517.515 63.4342 516.421 65.7584V75.3561C517.583 77.6803 519.395 78.8424 521.855 78.8424C523.674 78.8424 525.089 78.1383 526.101 76.7301C527.112 75.3219 527.618 73.2028 527.618 70.3727Z" fill="white"/>
<path d="M546.937 62.8668C546.362 62.7711 545.74 62.7233 545.07 62.7233C542.582 62.7233 540.894 63.7828 540.005 65.902V81.652H536.211V59.4625H539.902L539.964 62.026C541.208 60.0436 542.972 59.0524 545.255 59.0524C545.993 59.0524 546.554 59.1481 546.937 59.3395V62.8668Z" fill="white"/>
<path d="M559.241 82.0621C556.233 82.0621 553.786 81.0778 551.899 79.109C550.013 77.1266 549.069 74.4811 549.069 71.1725V70.4752C549.069 68.274 549.486 66.3121 550.32 64.5895C551.168 62.8531 552.344 61.4996 553.848 60.5289C555.365 59.5446 557.006 59.0524 558.77 59.0524C561.654 59.0524 563.896 60.0026 565.496 61.903C567.096 63.8033 567.896 66.524 567.896 70.0651V71.6442H552.863C552.918 73.8317 553.554 75.6022 554.771 76.9557C556.001 78.2955 557.56 78.9655 559.446 78.9655C560.786 78.9655 561.921 78.692 562.851 78.1451C563.78 77.5983 564.594 76.8737 565.291 75.9713L567.608 77.776C565.749 80.6334 562.96 82.0621 559.241 82.0621ZM558.77 62.1696C557.238 62.1696 555.953 62.7301 554.914 63.8512C553.875 64.9586 553.232 66.5172 552.986 68.527H564.102V68.2399C563.992 66.3121 563.473 64.8219 562.543 63.7692C561.613 62.7028 560.355 62.1696 558.77 62.1696Z" fill="white"/>
<path d="M586.004 81.652C585.785 81.2145 585.607 80.4352 585.471 79.3141C583.707 81.1461 581.602 82.0621 579.154 82.0621C576.967 82.0621 575.169 81.4469 573.761 80.2164C572.366 78.9723 571.669 77.4 571.669 75.4996C571.669 73.1891 572.544 71.3981 574.294 70.1266C576.058 68.8414 578.532 68.1989 581.718 68.1989H585.409V66.4557C585.409 65.1295 585.013 64.0768 584.22 63.2975C583.427 62.5045 582.258 62.108 580.713 62.108C579.359 62.108 578.225 62.4498 577.309 63.1334C576.393 63.817 575.935 64.6442 575.935 65.6149H572.12C572.12 64.5074 572.51 63.441 573.289 62.4156C574.082 61.3766 575.148 60.5563 576.488 59.9547C577.842 59.3531 579.325 59.0524 580.938 59.0524C583.495 59.0524 585.498 59.6949 586.947 60.9801C588.396 62.2516 589.148 64.0084 589.203 66.2506V76.4635C589.203 78.5006 589.463 80.1207 589.982 81.3239V81.652H586.004ZM579.708 78.7604C580.897 78.7604 582.025 78.4528 583.092 77.8375C584.158 77.2223 584.931 76.4225 585.409 75.4381V70.8854H582.436C577.787 70.8854 575.463 72.2457 575.463 74.9664C575.463 76.1559 575.859 77.0856 576.652 77.7555C577.445 78.4254 578.464 78.7604 579.708 78.7604Z" fill="white"/>
<path d="M594.228 70.3727C594.228 66.9684 595.034 64.234 596.647 62.1696C598.261 60.0914 600.373 59.0524 602.984 59.0524C605.582 59.0524 607.64 59.941 609.157 61.7184V50.152H612.951V81.652H609.465L609.28 79.2731C607.763 81.1324 605.65 82.0621 602.943 82.0621C600.373 82.0621 598.274 81.0094 596.647 78.9039C595.034 76.7985 594.228 74.0504 594.228 70.6598V70.3727ZM598.021 70.8033C598.021 73.319 598.541 75.2877 599.58 76.7096C600.619 78.1315 602.055 78.8424 603.887 78.8424C606.293 78.8424 608.05 77.7623 609.157 75.6022V65.4098C608.022 63.318 606.279 62.2721 603.928 62.2721C602.068 62.2721 600.619 62.9899 599.58 64.4254C598.541 65.861 598.021 67.9869 598.021 70.8033Z" fill="white"/>
<path d="M617.853 70.3522C617.853 68.1783 618.276 66.2233 619.124 64.4869C619.985 62.7506 621.175 61.4108 622.692 60.4674C624.224 59.524 625.967 59.0524 627.922 59.0524C630.943 59.0524 633.384 60.0983 635.243 62.1901C637.116 64.2819 638.053 67.0641 638.053 70.5367V70.8033C638.053 72.9635 637.636 74.9049 636.802 76.6276C635.981 78.3365 634.799 79.6696 633.254 80.6266C631.723 81.5836 629.959 82.0621 627.963 82.0621C624.955 82.0621 622.515 81.0162 620.642 78.9244C618.782 76.8326 617.853 74.0641 617.853 70.6188V70.3522ZM621.667 70.8033C621.667 73.2643 622.234 75.2399 623.369 76.7301C624.518 78.2203 626.049 78.9655 627.963 78.9655C629.891 78.9655 631.422 78.2135 632.557 76.7096C633.691 75.192 634.259 73.0729 634.259 70.3522C634.259 67.9186 633.678 65.9498 632.516 64.4459C631.367 62.9283 629.836 62.1696 627.922 62.1696C626.049 62.1696 624.538 62.9147 623.39 64.4049C622.241 65.8951 621.667 68.028 621.667 70.8033Z" fill="white"/>
<path d="M655.73 75.7662C655.73 74.7408 655.341 73.9479 654.562 73.3873C653.796 72.8131 652.449 72.3209 650.521 71.9108C648.607 71.5006 647.083 71.0084 645.948 70.4342C644.827 69.86 643.993 69.1764 643.446 68.3834C642.913 67.5905 642.646 66.6471 642.646 65.5533C642.646 63.735 643.412 62.1969 644.943 60.9391C646.488 59.6813 648.457 59.0524 650.85 59.0524C653.365 59.0524 655.402 59.7018 656.961 61.0006C658.533 62.2994 659.319 63.9606 659.319 65.984H655.505C655.505 64.9449 655.061 64.0494 654.172 63.2975C653.297 62.5455 652.189 62.1696 650.85 62.1696C649.469 62.1696 648.389 62.4703 647.609 63.0719C646.83 63.6735 646.44 64.4596 646.44 65.4303C646.44 66.3463 646.803 67.0367 647.527 67.5016C648.252 67.9664 649.558 68.4108 651.444 68.8346C653.345 69.2584 654.883 69.7643 656.059 70.3522C657.234 70.9401 658.103 71.651 658.663 72.485C659.237 73.3053 659.524 74.3102 659.524 75.4996C659.524 77.4821 658.731 79.0748 657.146 80.278C655.56 81.4674 653.502 82.0621 650.973 82.0621C649.195 82.0621 647.623 81.7477 646.256 81.1188C644.889 80.4899 643.815 79.6149 643.036 78.4938C642.271 77.359 641.888 76.1354 641.888 74.8229H645.682C645.75 76.0944 646.256 77.1061 647.199 77.858C648.156 78.5963 649.414 78.9655 650.973 78.9655C652.408 78.9655 653.557 78.6783 654.418 78.1041C655.293 77.5162 655.73 76.7369 655.73 75.7662Z" fill="white"/>
<path d="M678.679 62.149C680.36 60.0846 682.548 59.0524 685.241 59.0524C689.931 59.0524 692.296 61.6979 692.337 66.9889V81.652H688.543V66.9684C688.529 65.3688 688.16 64.1862 687.436 63.4205C686.725 62.6549 685.61 62.2721 684.093 62.2721C682.862 62.2721 681.782 62.6002 680.853 63.2565C679.923 63.9127 679.198 64.774 678.679 65.8405V81.652H674.885V50.152H678.679V62.149Z" fill="white"/>
<path d="M711.717 81.652C711.498 81.2145 711.32 80.4352 711.184 79.3141C709.42 81.1461 707.314 82.0621 704.867 82.0621C702.68 82.0621 700.882 81.4469 699.474 80.2164C698.079 78.9723 697.382 77.4 697.382 75.4996C697.382 73.1891 698.257 71.3981 700.007 70.1266C701.771 68.8414 704.245 68.1989 707.431 68.1989H711.122V66.4557C711.122 65.1295 710.726 64.0768 709.933 63.2975C709.14 62.5045 707.971 62.108 706.426 62.108C705.072 62.108 703.938 62.4498 703.021 63.1334C702.105 63.817 701.647 64.6442 701.647 65.6149H697.833C697.833 64.5074 698.223 63.441 699.002 62.4156C699.795 61.3766 700.861 60.5563 702.201 59.9547C703.555 59.3531 705.038 59.0524 706.651 59.0524C709.208 59.0524 711.211 59.6949 712.66 60.9801C714.109 62.2516 714.861 64.0084 714.916 66.2506V76.4635C714.916 78.5006 715.176 80.1207 715.695 81.3239V81.652H711.717ZM705.421 78.7604C706.61 78.7604 707.738 78.4528 708.805 77.8375C709.871 77.2223 710.644 76.4225 711.122 75.4381V70.8854H708.148C703.5 70.8854 701.176 72.2457 701.176 74.9664C701.176 76.1559 701.572 77.0856 702.365 77.7555C703.158 78.4254 704.177 78.7604 705.421 78.7604Z" fill="white"/>
<path d="M727.795 76.0944L732.963 59.4625H737.023L728.103 85.0768C726.722 88.7682 724.527 90.6139 721.52 90.6139L720.802 90.5524L719.387 90.2858V87.2096L720.412 87.2916C721.697 87.2916 722.695 87.0319 723.406 86.5123C724.131 85.9928 724.726 85.0426 725.19 83.6617L726.031 81.4059L718.115 59.4625H722.258L727.795 76.0944Z" fill="white"/>
<path d="M760.054 82.0621C757.046 82.0621 754.599 81.0778 752.712 79.109C750.825 77.1266 749.882 74.4811 749.882 71.1725V70.4752C749.882 68.274 750.299 66.3121 751.133 64.5895C751.98 62.8531 753.156 61.4996 754.66 60.5289C756.178 59.5446 757.818 59.0524 759.582 59.0524C762.467 59.0524 764.709 60.0026 766.309 61.903C767.908 63.8033 768.708 66.524 768.708 70.0651V71.6442H753.676C753.73 73.8317 754.366 75.6022 755.583 76.9557C756.813 78.2955 758.372 78.9655 760.259 78.9655C761.599 78.9655 762.733 78.692 763.663 78.1451C764.593 77.5983 765.406 76.8737 766.104 75.9713L768.421 77.776C766.562 80.6334 763.772 82.0621 760.054 82.0621ZM759.582 62.1696C758.051 62.1696 756.766 62.7301 755.727 63.8512C754.688 64.9586 754.045 66.5172 753.799 68.527H764.914V68.2399C764.805 66.3121 764.285 64.8219 763.355 63.7692C762.426 62.7028 761.168 62.1696 759.582 62.1696Z" fill="white"/>
<path d="M776.706 59.4625L776.829 62.2516C778.524 60.1188 780.739 59.0524 783.474 59.0524C788.163 59.0524 790.528 61.6979 790.569 66.9889V81.652H786.775V66.9684C786.762 65.3688 786.393 64.1862 785.668 63.4205C784.957 62.6549 783.843 62.2721 782.325 62.2721C781.095 62.2721 780.015 62.6002 779.085 63.2565C778.155 63.9127 777.431 64.774 776.911 65.8405V81.652H773.117V59.4625H776.706Z" fill="white"/>
<path d="M64.0186 103.089V108.463H68.1611V111.395H64.0186V125.156C64.0186 126.045 64.2031 126.714 64.5723 127.166C64.9414 127.603 65.5703 127.822 66.459 127.822C66.8965 127.822 67.498 127.74 68.2637 127.576V130.652C67.2656 130.925 66.2949 131.062 65.3516 131.062C63.6562 131.062 62.3779 130.549 61.5166 129.524C60.6553 128.499 60.2246 127.043 60.2246 125.156V111.395H56.1846V108.463H60.2246V103.089H64.0186Z" fill="white"/>
<path d="M71.1963 119.352C71.1963 117.178 71.6201 115.223 72.4678 113.487C73.3291 111.751 74.5186 110.411 76.0361 109.467C77.5674 108.524 79.3105 108.052 81.2656 108.052C84.2871 108.052 86.7275 109.098 88.5869 111.19C90.46 113.282 91.3965 116.064 91.3965 119.537V119.803C91.3965 121.964 90.9795 123.905 90.1455 125.628C89.3252 127.337 88.1426 128.67 86.5977 129.627C85.0664 130.584 83.3027 131.062 81.3066 131.062C78.2988 131.062 75.8584 130.016 73.9854 127.924C72.126 125.833 71.1963 123.064 71.1963 119.619V119.352ZM75.0107 119.803C75.0107 122.264 75.5781 124.24 76.7129 125.73C77.8613 127.22 79.3926 127.965 81.3066 127.965C83.2344 127.965 84.7656 127.214 85.9004 125.71C87.0352 124.192 87.6025 122.073 87.6025 119.352C87.6025 116.919 87.0215 114.95 85.8594 113.446C84.7109 111.928 83.1797 111.17 81.2656 111.17C79.3926 111.17 77.8818 111.915 76.7334 113.405C75.585 114.895 75.0107 117.028 75.0107 119.803Z" fill="white"/>
<path d="M101.302 103.089V108.463H105.444V111.395H101.302V125.156C101.302 126.045 101.486 126.714 101.855 127.166C102.225 127.603 102.854 127.822 103.742 127.822C104.18 127.822 104.781 127.74 105.547 127.576V130.652C104.549 130.925 103.578 131.062 102.635 131.062C100.939 131.062 99.6611 130.549 98.7998 129.524C97.9385 128.499 97.5078 127.043 97.5078 125.156V111.395H93.4678V108.463H97.5078V103.089H101.302Z" fill="white"/>
<path d="M123.594 130.652C123.375 130.214 123.197 129.435 123.061 128.314C121.297 130.146 119.191 131.062 116.744 131.062C114.557 131.062 112.759 130.447 111.351 129.216C109.956 127.972 109.259 126.4 109.259 124.5C109.259 122.189 110.134 120.398 111.884 119.127C113.647 117.841 116.122 117.199 119.308 117.199H122.999V115.456C122.999 114.13 122.603 113.077 121.81 112.297C121.017 111.505 119.848 111.108 118.303 111.108C116.949 111.108 115.814 111.45 114.898 112.133C113.982 112.817 113.524 113.644 113.524 114.615H109.71C109.71 113.507 110.1 112.441 110.879 111.416C111.672 110.377 112.738 109.556 114.078 108.955C115.432 108.353 116.915 108.052 118.528 108.052C121.085 108.052 123.088 108.695 124.537 109.98C125.986 111.252 126.738 113.008 126.793 115.251V125.464C126.793 127.501 127.053 129.121 127.572 130.324V130.652H123.594ZM117.298 127.76C118.487 127.76 119.615 127.453 120.682 126.838C121.748 126.222 122.521 125.422 122.999 124.438V119.885H120.025C115.377 119.885 113.053 121.246 113.053 123.966C113.053 125.156 113.449 126.086 114.242 126.755C115.035 127.425 116.054 127.76 117.298 127.76Z" fill="white"/>
<path d="M136.862 130.652H133.068V99.152H136.862V130.652Z" fill="white"/>
<path d="M147.403 122.244C147.431 120.617 147.615 119.332 147.957 118.388C148.299 117.445 148.996 116.399 150.049 115.251L152.735 112.482C153.884 111.183 154.458 109.789 154.458 108.298C154.458 106.863 154.082 105.742 153.33 104.935C152.578 104.115 151.484 103.705 150.049 103.705C148.654 103.705 147.533 104.074 146.686 104.812C145.838 105.55 145.414 106.542 145.414 107.786H141.62C141.647 105.571 142.434 103.787 143.979 102.433C145.537 101.066 147.561 100.382 150.049 100.382C152.633 100.382 154.643 101.08 156.078 102.474C157.527 103.855 158.252 105.755 158.252 108.175C158.252 110.568 157.145 112.926 154.93 115.251L152.694 117.465C151.696 118.573 151.197 120.166 151.197 122.244H147.403ZM147.239 128.745C147.239 128.13 147.424 127.617 147.793 127.207C148.176 126.783 148.736 126.571 149.475 126.571C150.213 126.571 150.773 126.783 151.156 127.207C151.539 127.617 151.73 128.13 151.73 128.745C151.73 129.36 151.539 129.873 151.156 130.283C150.773 130.679 150.213 130.878 149.475 130.878C148.736 130.878 148.176 130.679 147.793 130.283C147.424 129.873 147.239 129.36 147.239 128.745Z" fill="white"/>
</g>
</g>
<g id="Group 177">
<g id="Group 176">
<path id="Rectangle 46 (Stroke)" fill-rule="evenodd" clip-rule="evenodd" d="M470.867 137.46H439.726V168.601H470.867V137.46ZM438.267 136V170.061H472.327V136H438.267Z" fill="white"/>
<path id="Rectangle 47" d="M438.267 168.601H472.327V202.661H438.267V168.601Z" fill="white"/>
<path id="Rectangle 47 (Stroke)" fill-rule="evenodd" clip-rule="evenodd" d="M470.867 170.061H439.726V201.202H470.867V170.061ZM438.267 168.601V202.661H472.327V168.601H438.267Z" fill="white"/>
<path id="Rectangle 48 (Stroke)" fill-rule="evenodd" clip-rule="evenodd" d="M438.266 170.061H407.125V201.202H438.266V170.061ZM405.666 168.601V202.661H439.726V168.601H405.666Z" fill="white"/>
<path id="Rectangle 50 (Stroke)" fill-rule="evenodd" clip-rule="evenodd" d="M438.266 202.661H407.125V233.802H438.266V202.661ZM405.666 201.202V235.262H439.726V201.202H405.666Z" fill="white"/>
<path id="Rectangle 51 (Stroke)" fill-rule="evenodd" clip-rule="evenodd" d="M470.867 202.661H439.726V233.802H470.867V202.661ZM438.267 201.202V235.262H472.327V201.202H438.267Z" fill="white"/>
<path id="Rectangle 52 (Stroke)" fill-rule="evenodd" clip-rule="evenodd" d="M503.468 202.661H472.327V233.802H503.468V202.661ZM470.867 201.202V235.262H504.928V201.202H470.867Z" fill="white"/>
<path id="Rectangle 53" d="M503.468 201.202H537.529V235.262H503.468V201.202Z" fill="white"/>
<path id="Rectangle 53 (Stroke)" fill-rule="evenodd" clip-rule="evenodd" d="M536.069 202.661H504.928V233.802H536.069V202.661ZM503.468 201.202V235.262H537.529V201.202H503.468Z" fill="white"/>
<path id="Rectangle 54" d="M373.065 201.202H407.126V235.262H373.065V201.202Z" fill="white"/>
<path id="Rectangle 54 (Stroke)" fill-rule="evenodd" clip-rule="evenodd" d="M405.666 202.661H374.525V233.802H405.666V202.661ZM373.065 201.202V235.262H407.126V201.202H373.065Z" fill="white"/>
<path id="Rectangle 55 (Stroke)" fill-rule="evenodd" clip-rule="evenodd" d="M373.065 235.749H341.924V266.89H373.065V235.749ZM340.464 234.289V268.35H374.524V234.289H340.464Z" fill="white"/>
<path id="Rectangle 62" d="M340.464 266.403H374.524V300.464H340.464V266.403Z" fill="white"/>
<path id="Rectangle 62 (Stroke)" fill-rule="evenodd" clip-rule="evenodd" d="M373.065 267.863H341.924V299.004H373.065V267.863ZM340.464 266.403V300.464H374.524V266.403H340.464Z" fill="white"/>
<path id="Rectangle 76" d="M307.863 266.403H341.924V300.464H307.863V266.403Z" fill="white"/>
<path id="Rectangle 76 (Stroke)" fill-rule="evenodd" clip-rule="evenodd" d="M340.464 267.863H309.323V299.004H340.464V267.863ZM307.863 266.403V300.464H341.924V266.403H307.863Z" fill="white"/>
<path id="Rectangle 77 (Stroke)" fill-rule="evenodd" clip-rule="evenodd" d="M340.464 300.95H309.323V332.092H340.464V300.95ZM307.863 299.491V333.551H341.924V299.491H307.863Z" fill="white"/>
<path id="Rectangle 82" d="M307.863 331.605H341.924V365.666H307.863V331.605Z" fill="white"/>
<path id="Rectangle 82 (Stroke)" fill-rule="evenodd" clip-rule="evenodd" d="M340.464 333.065H309.323V364.206H340.464V333.065ZM307.863 331.605V365.666H341.924V331.605H307.863Z" fill="white"/>
<path id="Rectangle 95 (Stroke)" fill-rule="evenodd" clip-rule="evenodd" d="M273.802 444.978H242.661V476.119H273.802V444.978ZM241.202 443.518V477.579H275.262V443.518H241.202Z" fill="white"/>
<path id="Rectangle 78 (Stroke)" fill-rule="evenodd" clip-rule="evenodd" d="M307.863 300.95H276.722V332.092H307.863V300.95ZM275.262 299.491V333.551H309.323V299.491H275.262Z" fill="white"/>
<path id="Rectangle 83" d="M275.262 331.605H309.323V365.666H275.262V331.605Z" fill="white"/>
<path id="Rectangle 83 (Stroke)" fill-rule="evenodd" clip-rule="evenodd" d="M307.863 333.065H276.722V364.206H307.863V333.065ZM275.262 331.605V365.666H309.323V331.605H275.262Z" fill="white"/>
<path id="Rectangle 96 (Stroke)" fill-rule="evenodd" clip-rule="evenodd" d="M241.201 444.978H210.06V476.119H241.201V444.978ZM208.601 443.518V477.579H242.661V443.518H208.601Z" fill="white"/>
<path id="Rectangle 93" d="M242.662 331.605H276.722V365.666H242.662V331.605Z" fill="white"/>
<path id="Rectangle 93 (Stroke)" fill-rule="evenodd" clip-rule="evenodd" d="M275.262 333.065H244.121V364.206H275.262V333.065ZM242.662 331.605V365.666H276.722V331.605H242.662Z" fill="white"/>
<path id="Rectangle 97 (Stroke)" fill-rule="evenodd" clip-rule="evenodd" d="M208.601 444.978H177.46V476.119H208.601V444.978ZM176 443.518V477.579H210.061V443.518H176Z" fill="white"/>
<path id="Rectangle 69 (Stroke)" fill-rule="evenodd" clip-rule="evenodd" d="M373.065 300.95H341.924V332.092H373.065V300.95ZM340.464 299.491V333.551H374.524V299.491H340.464Z" fill="white"/>
<path id="Rectangle 84 (Stroke)" fill-rule="evenodd" clip-rule="evenodd" d="M373.065 333.065H341.924V364.206H373.065V333.065ZM340.464 331.605V365.666H374.524V331.605H340.464Z" fill="white"/>
<path id="Rectangle 98 (Stroke)" fill-rule="evenodd" clip-rule="evenodd" d="M306.403 444.978H275.262V476.119H306.403V444.978ZM273.802 443.518V477.579H307.863V443.518H273.802Z" fill="white"/>
<path id="Rectangle 56 (Stroke)" fill-rule="evenodd" clip-rule="evenodd" d="M405.666 235.749H374.525V266.89H405.666V235.749ZM373.065 234.289V268.35H407.126V234.289H373.065Z" fill="white"/>
<path id="Rectangle 63 (Stroke)" fill-rule="evenodd" clip-rule="evenodd" d="M405.666 267.863H374.525V299.004H405.666V267.863ZM373.065 266.403V300.464H407.126V266.403H373.065Z" fill="white"/>
<path id="Rectangle 70 (Stroke)" fill-rule="evenodd" clip-rule="evenodd" d="M405.666 300.95H374.525V332.092H405.666V300.95ZM373.065 299.491V333.551H407.126V299.491H373.065Z" fill="white"/>
<path id="Rectangle 85 (Stroke)" fill-rule="evenodd" clip-rule="evenodd" d="M405.666 333.065H374.525V364.206H405.666V333.065ZM373.065 331.605V365.666H407.126V331.605H373.065Z" fill="white"/>
<path id="Rectangle 99 (Stroke)" fill-rule="evenodd" clip-rule="evenodd" d="M436.806 444.978H405.665V476.119H436.806V444.978ZM404.206 443.518V477.579H438.266V443.518H404.206Z" fill="white"/>
<path id="Rectangle 57 (Stroke)" fill-rule="evenodd" clip-rule="evenodd" d="M438.266 235.749H407.125V266.89H438.266V235.749ZM405.666 234.289V268.35H439.726V234.289H405.666Z" fill="white"/>
<path id="Rectangle 64 (Stroke)" fill-rule="evenodd" clip-rule="evenodd" d="M438.266 267.863H407.125V299.004H438.266V267.863ZM405.666 266.403V300.464H439.726V266.403H405.666Z" fill="white"/>
<path id="Rectangle 71 (Stroke)" fill-rule="evenodd" clip-rule="evenodd" d="M438.266 300.95H407.125V332.092H438.266V300.95ZM405.666 299.491V333.551H439.726V299.491H405.666Z" fill="white"/>
<path id="Rectangle 86 (Stroke)" fill-rule="evenodd" clip-rule="evenodd" d="M438.266 333.065H407.125V364.206H438.266V333.065ZM405.666 331.605V365.666H439.726V331.605H405.666Z" fill="white"/>
<path id="Rectangle 100" d="M436.807 443.518H470.867V477.579H436.807V443.518Z" fill="white"/>
<path id="Rectangle 100 (Stroke)" fill-rule="evenodd" clip-rule="evenodd" d="M469.407 444.978H438.266V476.119H469.407V444.978ZM436.807 443.518V477.579H470.867V443.518H436.807Z" fill="white"/>
<path id="Rectangle 58" d="M438.267 234.289H472.327V268.35H438.267V234.289Z" fill="white"/>
<path id="Rectangle 58 (Stroke)" fill-rule="evenodd" clip-rule="evenodd" d="M470.867 235.749H439.726V266.89H470.867V235.749ZM438.267 234.289V268.35H472.327V234.289H438.267Z" fill="white"/>
<path id="Rectangle 65 (Stroke)" fill-rule="evenodd" clip-rule="evenodd" d="M470.867 267.863H439.726V299.004H470.867V267.863ZM438.267 266.403V300.464H472.327V266.403H438.267Z" fill="white"/>
<path id="Rectangle 72" d="M438.267 299.491H472.327V333.551H438.267V299.491Z" fill="white"/>
<path id="Rectangle 72 (Stroke)" fill-rule="evenodd" clip-rule="evenodd" d="M470.867 300.95H439.726V332.092H470.867V300.95ZM438.267 299.491V333.551H472.327V299.491H438.267Z" fill="white"/>
<path id="Rectangle 87 (Stroke)" fill-rule="evenodd" clip-rule="evenodd" d="M470.867 333.065H439.726V364.206H470.867V333.065ZM438.267 331.605V365.666H472.327V331.605H438.267Z" fill="white"/>
<path id="Rectangle 101 (Stroke)" fill-rule="evenodd" clip-rule="evenodd" d="M502.008 444.978H470.867V476.119H502.008V444.978ZM469.407 443.518V477.579H503.468V443.518H469.407Z" fill="white"/>
<path id="Rectangle 59 (Stroke)" fill-rule="evenodd" clip-rule="evenodd" d="M503.468 235.749H472.327V266.89H503.468V235.749ZM470.867 234.289V268.35H504.928V234.289H470.867Z" fill="white"/>
<path id="Rectangle 66 (Stroke)" fill-rule="evenodd" clip-rule="evenodd" d="M503.468 267.863H472.327V299.004H503.468V267.863ZM470.867 266.403V300.464H504.928V266.403H470.867Z" fill="white"/>
<path id="Rectangle 73 (Stroke)" fill-rule="evenodd" clip-rule="evenodd" d="M503.468 300.95H472.327V332.092H503.468V300.95ZM470.867 299.491V333.551H504.928V299.491H470.867Z" fill="white"/>
<path id="Rectangle 88 (Stroke)" fill-rule="evenodd" clip-rule="evenodd" d="M503.468 333.065H472.327V364.206H503.468V333.065ZM470.867 331.605V365.666H504.928V331.605H470.867Z" fill="white"/>
<path id="Rectangle 60 (Stroke)" fill-rule="evenodd" clip-rule="evenodd" d="M536.069 235.749H504.928V266.89H536.069V235.749ZM503.468 234.289V268.35H537.529V234.289H503.468Z" fill="white"/>
<path id="Rectangle 67 (Stroke)" fill-rule="evenodd" clip-rule="evenodd" d="M536.069 267.863H504.928V299.004H536.069V267.863ZM503.468 266.403V300.464H537.529V266.403H503.468Z" fill="white"/>
<path id="Rectangle 74 (Stroke)" fill-rule="evenodd" clip-rule="evenodd" d="M536.069 300.95H504.928V332.092H536.069V300.95ZM503.468 299.491V333.551H537.529V299.491H503.468Z" fill="white"/>
<path id="Rectangle 89 (Stroke)" fill-rule="evenodd" clip-rule="evenodd" d="M536.069 333.065H504.928V364.206H536.069V333.065ZM503.468 331.605V365.666H537.529V331.605H503.468Z" fill="white"/>
<path id="Rectangle 103 (Stroke)" fill-rule="evenodd" clip-rule="evenodd" d="M633.871 444.978H602.73V476.119H633.871V444.978ZM601.271 443.518V477.579H635.331V443.518H601.271Z" fill="white"/>
<path id="Rectangle 61 (Stroke)" fill-rule="evenodd" clip-rule="evenodd" d="M568.67 235.749H537.529V266.89H568.67V235.749ZM536.069 234.289V268.35H570.129V234.289H536.069Z" fill="white"/>
<path id="Rectangle 68" d="M536.069 266.403H570.129V300.464H536.069V266.403Z" fill="white"/>
<path id="Rectangle 68 (Stroke)" fill-rule="evenodd" clip-rule="evenodd" d="M568.67 267.863H537.529V299.004H568.67V267.863ZM536.069 266.403V300.464H570.129V266.403H536.069Z" fill="white"/>
<path id="Rectangle 79" d="M568.67 266.403H602.73V300.464H568.67V266.403Z" fill="white"/>
<path id="Rectangle 79 (Stroke)" fill-rule="evenodd" clip-rule="evenodd" d="M601.271 267.863H570.13V299.004H601.271V267.863ZM568.67 266.403V300.464H602.73V266.403H568.67Z" fill="white"/>
<path id="Rectangle 80 (Stroke)" fill-rule="evenodd" clip-rule="evenodd" d="M601.271 300.95H570.13V332.092H601.271V300.95ZM568.67 299.491V333.551H602.73V299.491H568.67Z" fill="white"/>
<path id="Rectangle 90" d="M568.67 331.605H602.73V365.666H568.67V331.605Z" fill="white"/>
<path id="Rectangle 90 (Stroke)" fill-rule="evenodd" clip-rule="evenodd" d="M601.271 333.065H570.13V364.206H601.271V333.065ZM568.67 331.605V365.666H602.73V331.605H568.67Z" fill="white"/>
<path id="Rectangle 104 (Stroke)" fill-rule="evenodd" clip-rule="evenodd" d="M699.073 444.978H667.932V476.119H699.073V444.978ZM666.472 443.518V477.579H700.533V443.518H666.472Z" fill="white"/>
<path id="Rectangle 81 (Stroke)" fill-rule="evenodd" clip-rule="evenodd" d="M633.871 300.95H602.73V332.092H633.871V300.95ZM601.271 299.491V333.551H635.331V299.491H601.271Z" fill="white"/>
<path id="Rectangle 91" d="M601.271 331.605H635.331V365.666H601.271V331.605Z" fill="white"/>
<path id="Rectangle 91 (Stroke)" fill-rule="evenodd" clip-rule="evenodd" d="M633.871 333.065H602.73V364.206H633.871V333.065ZM601.271 331.605V365.666H635.331V331.605H601.271Z" fill="white"/>
<path id="Rectangle 105 (Stroke)" fill-rule="evenodd" clip-rule="evenodd" d="M731.674 444.978H700.533V476.119H731.674V444.978ZM699.073 443.518V477.579H733.134V443.518H699.073Z" fill="white"/>
<path id="Rectangle 94" d="M633.872 331.605H667.932V365.666H633.872V331.605Z" fill="white"/>
<path id="Rectangle 94 (Stroke)" fill-rule="evenodd" clip-rule="evenodd" d="M666.472 333.065H635.331V364.206H666.472V333.065ZM633.872 331.605V365.666H667.932V331.605H633.872Z" fill="white"/>
<path id="Rectangle 75 (Stroke)" fill-rule="evenodd" clip-rule="evenodd" d="M568.67 300.95H537.529V332.092H568.67V300.95ZM536.069 299.491V333.551H570.129V299.491H536.069Z" fill="white"/>
<path id="Rectangle 92 (Stroke)" fill-rule="evenodd" clip-rule="evenodd" d="M568.67 333.065H537.529V364.206H568.67V333.065ZM536.069 331.605V365.666H570.129V331.605H536.069Z" fill="white"/>
<path id="Rectangle 107 (Stroke)" fill-rule="evenodd" clip-rule="evenodd" d="M666.472 444.978H635.331V476.119H666.472V444.978ZM633.872 443.518V477.579H667.932V443.518H633.872Z" fill="white"/>
<path id="Rectangle 49 (Stroke)" fill-rule="evenodd" clip-rule="evenodd" d="M503.468 170.061H472.327V201.202H503.468V170.061ZM470.867 168.601V202.661H504.928V168.601H470.867Z" fill="white"/>
</g>
<path id="Line 54 (Stroke)" fill-rule="evenodd" clip-rule="evenodd" d="M238.858 372.926C239.176 373.174 239.233 373.633 238.985 373.951L237.508 375.846C237.26 376.164 236.801 376.221 236.483 375.973C236.165 375.725 236.108 375.266 236.356 374.948L237.834 373.053C238.081 372.735 238.54 372.679 238.858 372.926ZM234.426 378.612C234.744 378.86 234.801 379.318 234.553 379.636L231.598 383.426C231.35 383.744 230.892 383.801 230.574 383.553C230.256 383.306 230.199 382.847 230.447 382.529L233.402 378.739C233.649 378.421 234.108 378.364 234.426 378.612ZM228.517 386.192C228.835 386.44 228.892 386.899 228.644 387.217L225.689 391.007C225.441 391.325 224.983 391.382 224.665 391.134C224.347 390.886 224.29 390.427 224.538 390.11L227.492 386.319C227.74 386.001 228.199 385.945 228.517 386.192ZM222.608 393.773C222.925 394.021 222.982 394.479 222.734 394.797L219.78 398.588C219.532 398.905 219.073 398.962 218.755 398.714C218.438 398.467 218.381 398.008 218.629 397.69L221.583 393.9C221.831 393.582 222.29 393.525 222.608 393.773ZM216.698 401.353C217.016 401.601 217.073 402.06 216.825 402.378L213.871 406.168C213.623 406.486 213.164 406.543 212.846 406.295C212.528 406.047 212.472 405.589 212.719 405.271L215.674 401.48C215.922 401.162 216.38 401.106 216.698 401.353ZM210.789 408.934C211.107 409.182 211.164 409.64 210.916 409.958L207.961 413.749C207.714 414.067 207.255 414.123 206.937 413.876C206.619 413.628 206.562 413.169 206.81 412.851L209.765 409.061C210.013 408.743 210.471 408.686 210.789 408.934ZM204.88 416.515C205.198 416.762 205.255 417.221 205.007 417.539L202.052 421.329C201.804 421.647 201.346 421.704 201.028 421.456C200.71 421.208 200.653 420.75 200.901 420.432L203.855 416.641C204.103 416.324 204.562 416.267 204.88 416.515ZM198.971 424.095C199.288 424.343 199.345 424.801 199.097 425.119L196.143 428.91C195.895 429.228 195.436 429.284 195.119 429.037C194.801 428.789 194.744 428.33 194.992 428.012L197.946 424.222C198.194 423.904 198.653 423.847 198.971 424.095ZM193.061 431.676C193.379 431.923 193.436 432.382 193.188 432.7L191.711 434.595C191.463 434.913 191.005 434.97 190.687 434.722C190.369 434.474 190.312 434.016 190.56 433.698L192.037 431.802C192.285 431.485 192.743 431.428 193.061 431.676Z" fill="white"/>
<path id="Line 55 (Stroke)" fill-rule="evenodd" clip-rule="evenodd" d="M667.041 372.021C667.356 371.768 667.815 371.818 668.067 372.133L669.59 374.028C669.842 374.342 669.792 374.802 669.478 375.054C669.163 375.307 668.704 375.256 668.452 374.942L666.929 373.047C666.677 372.732 666.727 372.273 667.041 372.021ZM671.609 377.707C671.923 377.455 672.382 377.505 672.635 377.819L675.679 381.61C675.932 381.925 675.882 382.384 675.567 382.636C675.253 382.889 674.794 382.839 674.541 382.524L671.496 378.733C671.244 378.419 671.294 377.96 671.609 377.707ZM677.698 385.289C678.012 385.037 678.472 385.087 678.724 385.401L681.769 389.193C682.021 389.507 681.971 389.966 681.657 390.219C681.343 390.471 680.883 390.421 680.631 390.107L677.586 386.315C677.334 386.001 677.384 385.542 677.698 385.289ZM683.788 392.872C684.102 392.619 684.561 392.669 684.814 392.984L687.859 396.775C688.111 397.089 688.061 397.548 687.747 397.801C687.432 398.053 686.973 398.003 686.721 397.689L683.676 393.898C683.423 393.583 683.473 393.124 683.788 392.872ZM689.877 400.454C690.192 400.201 690.651 400.252 690.903 400.566L693.948 404.357C694.201 404.671 694.151 405.131 693.836 405.383C693.522 405.635 693.063 405.585 692.81 405.271L689.765 401.48C689.513 401.166 689.563 400.706 689.877 400.454ZM695.967 408.036C696.281 407.784 696.741 407.834 696.993 408.148L700.038 411.939C700.29 412.253 700.24 412.713 699.926 412.965C699.612 413.218 699.152 413.167 698.9 412.853L695.855 409.062C695.603 408.748 695.653 408.288 695.967 408.036ZM702.057 415.618C702.371 415.366 702.83 415.416 703.083 415.73L706.128 419.521C706.38 419.836 706.33 420.295 706.016 420.547C705.701 420.8 705.242 420.75 704.989 420.435L701.945 416.644C701.692 416.33 701.742 415.871 702.057 415.618ZM708.146 423.2C708.461 422.948 708.92 422.998 709.172 423.312L712.217 427.103C712.47 427.418 712.419 427.877 712.105 428.13C711.791 428.382 711.332 428.332 711.079 428.018L708.034 424.226C707.782 423.912 707.832 423.453 708.146 423.2ZM714.236 430.783C714.55 430.53 715.01 430.58 715.262 430.895L716.784 432.79C717.037 433.104 716.987 433.564 716.672 433.816C716.358 434.069 715.899 434.018 715.646 433.704L714.124 431.809C713.871 431.494 713.922 431.035 714.236 430.783Z" fill="white"/>
<path id="Line 56 (Stroke)" fill-rule="evenodd" clip-rule="evenodd" d="M449.944 434.436C449.541 434.436 449.214 434.109 449.214 433.706V431.199C449.214 430.796 449.541 430.469 449.944 430.469C450.347 430.469 450.674 430.796 450.674 431.199V433.706C450.674 434.109 450.347 434.436 449.944 434.436ZM449.944 426.914C449.541 426.914 449.214 426.587 449.214 426.184V421.17C449.214 420.767 449.541 420.44 449.944 420.44C450.347 420.44 450.674 420.767 450.674 421.17V426.184C450.674 426.587 450.347 426.914 449.944 426.914ZM449.944 416.885C449.541 416.885 449.214 416.558 449.214 416.155V411.141C449.214 410.737 449.541 410.411 449.944 410.411C450.347 410.411 450.674 410.737 450.674 411.141V416.155C450.674 416.558 450.347 416.885 449.944 416.885ZM449.944 406.856C449.541 406.856 449.214 406.529 449.214 406.126V401.111C449.214 400.708 449.541 400.382 449.944 400.382C450.347 400.382 450.674 400.708 450.674 401.111V406.126C450.674 406.529 450.347 406.856 449.944 406.856ZM449.944 396.827C449.541 396.827 449.214 396.5 449.214 396.097V391.082C449.214 390.679 449.541 390.352 449.944 390.352C450.347 390.352 450.674 390.679 450.674 391.082V396.097C450.674 396.5 450.347 396.827 449.944 396.827ZM449.944 386.798C449.541 386.798 449.214 386.471 449.214 386.068V381.053C449.214 380.65 449.541 380.323 449.944 380.323C450.347 380.323 450.674 380.65 450.674 381.053V386.068C450.674 386.471 450.347 386.798 449.944 386.798ZM449.944 376.768C449.541 376.768 449.214 376.442 449.214 376.039V373.531C449.214 373.128 449.541 372.801 449.944 372.801C450.347 372.801 450.674 373.128 450.674 373.531V376.039C450.674 376.442 450.347 376.768 449.944 376.768Z" fill="white"/>
<path id="Line 57 (Stroke)" fill-rule="evenodd" clip-rule="evenodd" d="M324.893 459.819C324.893 459.416 325.22 459.089 325.623 459.089H328.13C328.533 459.089 328.86 459.416 328.86 459.819C328.86 460.222 328.533 460.548 328.13 460.548H325.623C325.22 460.548 324.893 460.222 324.893 459.819ZM332.415 459.819C332.415 459.416 332.742 459.089 333.145 459.089H338.159C338.562 459.089 338.889 459.416 338.889 459.819C338.889 460.222 338.562 460.548 338.159 460.548H333.145C332.742 460.548 332.415 460.222 332.415 459.819ZM342.444 459.819C342.444 459.416 342.771 459.089 343.174 459.089H348.188C348.592 459.089 348.918 459.416 348.918 459.819C348.918 460.222 348.592 460.548 348.188 460.548H343.174C342.771 460.548 342.444 460.222 342.444 459.819ZM352.473 459.819C352.473 459.416 352.8 459.089 353.203 459.089H358.218C358.621 459.089 358.947 459.416 358.947 459.819C358.947 460.222 358.621 460.548 358.218 460.548H353.203C352.8 460.548 352.473 460.222 352.473 459.819ZM362.502 459.819C362.502 459.416 362.829 459.089 363.232 459.089H368.247C368.65 459.089 368.977 459.416 368.977 459.819C368.977 460.222 368.65 460.548 368.247 460.548H363.232C362.829 460.548 362.502 460.222 362.502 459.819ZM372.531 459.819C372.531 459.416 372.858 459.089 373.261 459.089H378.276C378.679 459.089 379.006 459.416 379.006 459.819C379.006 460.222 378.679 460.548 378.276 460.548H373.261C372.858 460.548 372.531 460.222 372.531 459.819ZM382.561 459.819C382.561 459.416 382.887 459.089 383.29 459.089H385.798C386.201 459.089 386.528 459.416 386.528 459.819C386.528 460.222 386.201 460.548 385.798 460.548H383.29C382.887 460.548 382.561 460.222 382.561 459.819Z" fill="white"/>
<path id="Line 58 (Stroke)" fill-rule="evenodd" clip-rule="evenodd" d="M520.498 459.819C520.498 459.416 520.825 459.089 521.228 459.089H523.735C524.138 459.089 524.465 459.416 524.465 459.819C524.465 460.222 524.138 460.548 523.735 460.548H521.228C520.825 460.548 520.498 460.222 520.498 459.819ZM528.02 459.819C528.02 459.416 528.347 459.089 528.75 459.089H533.764C534.167 459.089 534.494 459.416 534.494 459.819C534.494 460.222 534.167 460.548 533.764 460.548H528.75C528.347 460.548 528.02 460.222 528.02 459.819ZM538.049 459.819C538.049 459.416 538.376 459.089 538.779 459.089H543.793C544.197 459.089 544.523 459.416 544.523 459.819C544.523 460.222 544.197 460.548 543.793 460.548H538.779C538.376 460.548 538.049 460.222 538.049 459.819ZM548.078 459.819C548.078 459.416 548.405 459.089 548.808 459.089H553.823C554.226 459.089 554.552 459.416 554.552 459.819C554.552 460.222 554.226 460.548 553.823 460.548H548.808C548.405 460.548 548.078 460.222 548.078 459.819ZM558.107 459.819C558.107 459.416 558.434 459.089 558.837 459.089H563.852C564.255 459.089 564.582 459.416 564.582 459.819C564.582 460.222 564.255 460.548 563.852 460.548H558.837C558.434 460.548 558.107 460.222 558.107 459.819ZM568.136 459.819C568.136 459.416 568.463 459.089 568.866 459.089H573.881C574.284 459.089 574.611 459.416 574.611 459.819C574.611 460.222 574.284 460.548 573.881 460.548H568.866C568.463 460.548 568.136 460.222 568.136 459.819ZM578.166 459.819C578.166 459.416 578.492 459.089 578.895 459.089H581.403C581.806 459.089 582.133 459.416 582.133 459.819C582.133 460.222 581.806 460.548 581.403 460.548H578.895C578.492 460.548 578.166 460.222 578.166 459.819Z" fill="white"/>
<g id="1 2 3 4 .... ... 98 99">
<path d="M190.086 505.8H188.23V493.497L184.508 494.864V493.187L189.797 491.202H190.086V505.8Z" fill="white"/>
<path d="M230.36 505.8H220.841V504.473L225.87 498.885C226.615 498.04 227.127 497.355 227.407 496.83C227.693 496.297 227.836 495.749 227.836 495.183C227.836 494.425 227.606 493.803 227.147 493.317C226.688 492.831 226.076 492.589 225.311 492.589C224.393 492.589 223.678 492.851 223.166 493.377C222.66 493.896 222.407 494.621 222.407 495.552H220.561C220.561 494.215 220.99 493.134 221.849 492.309C222.713 491.484 223.868 491.072 225.311 491.072C226.662 491.072 227.729 491.428 228.514 492.14C229.299 492.845 229.692 493.786 229.692 494.964C229.692 496.394 228.78 498.097 226.958 500.073L223.066 504.294H230.36V505.8Z" fill="white"/>
<path d="M255.277 497.638H256.664C257.536 497.625 258.221 497.395 258.72 496.949C259.219 496.504 259.468 495.902 259.468 495.143C259.468 493.44 258.62 492.589 256.924 492.589C256.125 492.589 255.487 492.818 255.008 493.277C254.535 493.73 254.299 494.332 254.299 495.083H252.453C252.453 493.932 252.872 492.978 253.71 492.219C254.555 491.454 255.626 491.072 256.924 491.072C258.294 491.072 259.368 491.434 260.147 492.16C260.925 492.885 261.314 493.893 261.314 495.183C261.314 495.815 261.108 496.427 260.696 497.019C260.29 497.611 259.734 498.054 259.029 498.346C259.827 498.599 260.443 499.018 260.875 499.604C261.314 500.189 261.534 500.904 261.534 501.749C261.534 503.053 261.108 504.087 260.256 504.852C259.405 505.617 258.297 506 256.934 506C255.57 506 254.459 505.631 253.601 504.892C252.749 504.154 252.323 503.179 252.323 501.969H254.179C254.179 502.734 254.429 503.346 254.928 503.805C255.427 504.264 256.095 504.493 256.934 504.493C257.825 504.493 258.507 504.26 258.979 503.795C259.452 503.329 259.688 502.66 259.688 501.789C259.688 500.944 259.428 500.296 258.909 499.843C258.39 499.391 257.642 499.158 256.664 499.145H255.277V497.638Z" fill="white"/>
<path d="M297.208 500.921H299.223V502.428H297.208V505.8H295.351V502.428H288.736V501.34L295.242 491.271H297.208V500.921ZM290.831 500.921H295.351V493.796L295.132 494.195L290.831 500.921Z" fill="white"/>
<path d="M311.258 504.833C311.258 504.513 311.351 504.247 311.537 504.034C311.73 503.821 312.016 503.715 312.395 503.715C312.774 503.715 313.06 503.821 313.253 504.034C313.453 504.247 313.553 504.513 313.553 504.833C313.553 505.139 313.453 505.395 313.253 505.601C313.06 505.807 312.774 505.91 312.395 505.91C312.016 505.91 311.73 505.807 311.537 505.601C311.351 505.395 311.258 505.139 311.258 504.833Z" fill="white"/>
<path d="M316.646 504.833C316.646 504.513 316.739 504.247 316.925 504.034C317.118 503.821 317.404 503.715 317.784 503.715C318.163 503.715 318.449 503.821 318.642 504.034C318.841 504.247 318.941 504.513 318.941 504.833C318.941 505.139 318.841 505.395 318.642 505.601C318.449 505.807 318.163 505.91 317.784 505.91C317.404 505.91 317.118 505.807 316.925 505.601C316.739 505.395 316.646 505.139 316.646 504.833Z" fill="white"/>
<path d="M322.034 504.833C322.034 504.513 322.128 504.247 322.314 504.034C322.507 503.821 322.793 503.715 323.172 503.715C323.551 503.715 323.837 503.821 324.03 504.034C324.23 504.247 324.33 504.513 324.33 504.833C324.33 505.139 324.23 505.395 324.03 505.601C323.837 505.807 323.551 505.91 323.172 505.91C322.793 505.91 322.507 505.807 322.314 505.601C322.128 505.395 322.034 505.139 322.034 504.833Z" fill="white"/>
<path d="M327.423 504.833C327.423 504.513 327.516 504.247 327.702 504.034C327.895 503.821 328.181 503.715 328.561 503.715C328.94 503.715 329.226 503.821 329.419 504.034C329.618 504.247 329.718 504.513 329.718 504.833C329.718 505.139 329.618 505.395 329.419 505.601C329.226 505.807 328.94 505.91 328.561 505.91C328.181 505.91 327.895 505.807 327.702 505.601C327.516 505.395 327.423 505.139 327.423 504.833Z" fill="white"/>
<path d="M616.685 504.833C616.685 504.513 616.778 504.247 616.964 504.034C617.157 503.821 617.443 503.715 617.823 503.715C618.202 503.715 618.488 503.821 618.681 504.034C618.88 504.247 618.98 504.513 618.98 504.833C618.98 505.139 618.88 505.395 618.681 505.601C618.488 505.807 618.202 505.91 617.823 505.91C617.443 505.91 617.157 505.807 616.964 505.601C616.778 505.395 616.685 505.139 616.685 504.833Z" fill="white"/>
<path d="M622.073 504.833C622.073 504.513 622.167 504.247 622.353 504.034C622.546 503.821 622.832 503.715 623.211 503.715C623.59 503.715 623.876 503.821 624.069 504.034C624.269 504.247 624.369 504.513 624.369 504.833C624.369 505.139 624.269 505.395 624.069 505.601C623.876 505.807 623.59 505.91 623.211 505.91C622.832 505.91 622.546 505.807 622.353 505.601C622.167 505.395 622.073 505.139 622.073 504.833Z" fill="white"/>
<path d="M627.462 504.833C627.462 504.513 627.555 504.247 627.741 504.034C627.934 503.821 628.22 503.715 628.6 503.715C628.979 503.715 629.265 503.821 629.458 504.034C629.657 504.247 629.757 504.513 629.757 504.833C629.757 505.139 629.657 505.395 629.458 505.601C629.265 505.807 628.979 505.91 628.6 505.91C628.22 505.91 627.934 505.807 627.741 505.601C627.555 505.395 627.462 505.139 627.462 504.833Z" fill="white"/>
<path d="M680.249 499.414C679.863 499.873 679.401 500.242 678.862 500.522C678.33 500.801 677.745 500.941 677.106 500.941C676.268 500.941 675.536 500.735 674.911 500.322C674.292 499.91 673.813 499.331 673.474 498.586C673.134 497.834 672.965 497.006 672.965 496.101C672.965 495.13 673.148 494.255 673.514 493.477C673.886 492.698 674.412 492.103 675.09 491.691C675.769 491.278 676.56 491.072 677.465 491.072C678.902 491.072 680.033 491.611 680.858 492.688C681.689 493.759 682.105 495.223 682.105 497.079V497.618C682.105 500.445 681.546 502.511 680.429 503.815C679.311 505.112 677.625 505.777 675.37 505.81H675.01V504.254H675.4C676.923 504.227 678.094 503.831 678.912 503.066C679.73 502.295 680.176 501.077 680.249 499.414ZM677.405 499.414C678.024 499.414 678.593 499.224 679.112 498.845C679.637 498.466 680.02 497.997 680.259 497.438V496.7C680.259 495.489 679.996 494.505 679.471 493.746C678.945 492.988 678.28 492.609 677.475 492.609C676.664 492.609 676.012 492.921 675.519 493.547C675.027 494.165 674.781 494.984 674.781 496.001C674.781 496.993 675.017 497.811 675.489 498.456C675.968 499.095 676.607 499.414 677.405 499.414Z" fill="white"/>
<path d="M693.461 495.063C693.461 495.788 693.268 496.434 692.882 496.999C692.503 497.565 691.987 498.007 691.336 498.326C692.094 498.652 692.693 499.128 693.132 499.753C693.577 500.379 693.8 501.087 693.8 501.879C693.8 503.136 693.374 504.137 692.523 504.882C691.678 505.627 690.564 506 689.18 506C687.783 506 686.662 505.627 685.817 504.882C684.979 504.131 684.56 503.129 684.56 501.879C684.56 501.094 684.773 500.385 685.199 499.753C685.631 499.121 686.226 498.642 686.985 498.316C686.34 497.997 685.831 497.555 685.458 496.989C685.086 496.424 684.899 495.782 684.899 495.063C684.899 493.839 685.292 492.868 686.077 492.15C686.862 491.431 687.896 491.072 689.18 491.072C690.457 491.072 691.489 491.431 692.273 492.15C693.065 492.868 693.461 493.839 693.461 495.063ZM691.954 501.839C691.954 501.027 691.695 500.365 691.176 499.853C690.664 499.341 689.992 499.085 689.16 499.085C688.329 499.085 687.66 499.338 687.154 499.843C686.656 500.349 686.406 501.014 686.406 501.839C686.406 502.664 686.649 503.312 687.134 503.785C687.627 504.257 688.309 504.493 689.18 504.493C690.045 504.493 690.723 504.257 691.216 503.785C691.708 503.306 691.954 502.657 691.954 501.839ZM689.18 492.589C688.455 492.589 687.866 492.815 687.414 493.267C686.968 493.713 686.745 494.322 686.745 495.093C686.745 495.832 686.965 496.43 687.404 496.889C687.85 497.342 688.442 497.568 689.18 497.568C689.919 497.568 690.507 497.342 690.946 496.889C691.392 496.43 691.615 495.832 691.615 495.093C691.615 494.355 691.385 493.753 690.926 493.287C690.467 492.821 689.885 492.589 689.18 492.589Z" fill="white"/>
<path d="M718.408 499.414C718.022 499.873 717.559 500.242 717.021 500.522C716.488 500.801 715.903 500.941 715.264 500.941C714.426 500.941 713.694 500.735 713.069 500.322C712.45 499.91 711.971 499.331 711.632 498.586C711.293 497.834 711.123 497.006 711.123 496.101C711.123 495.13 711.306 494.255 711.672 493.477C712.045 492.698 712.57 492.103 713.249 491.691C713.927 491.278 714.719 491.072 715.624 491.072C717.061 491.072 718.191 491.611 719.016 492.688C719.848 493.759 720.264 495.223 720.264 497.079V497.618C720.264 500.445 719.705 502.511 718.587 503.815C717.47 505.112 715.783 505.777 713.528 505.81H713.169V504.254H713.558C715.081 504.227 716.252 503.831 717.07 503.066C717.889 502.295 718.334 501.077 718.408 499.414ZM715.564 499.414C716.182 499.414 716.751 499.224 717.27 498.845C717.796 498.466 718.178 497.997 718.418 497.438V496.7C718.418 495.489 718.155 494.505 717.629 493.746C717.104 492.988 716.439 492.609 715.634 492.609C714.822 492.609 714.17 492.921 713.678 493.547C713.186 494.165 712.939 494.984 712.939 496.001C712.939 496.993 713.176 497.811 713.648 498.456C714.127 499.095 714.765 499.414 715.564 499.414Z" fill="white"/>
<path d="M729.883 499.414C729.497 499.873 729.035 500.242 728.496 500.522C727.964 500.801 727.379 500.941 726.74 500.941C725.902 500.941 725.17 500.735 724.545 500.322C723.926 499.91 723.447 499.331 723.108 498.586C722.768 497.834 722.599 497.006 722.599 496.101C722.599 495.13 722.782 494.255 723.148 493.477C723.52 492.698 724.046 492.103 724.724 491.691C725.403 491.278 726.194 491.072 727.099 491.072C728.536 491.072 729.667 491.611 730.492 492.688C731.323 493.759 731.739 495.223 731.739 497.079V497.618C731.739 500.445 731.18 502.511 730.063 503.815C728.945 505.112 727.259 505.777 725.004 505.81H724.644V504.254H725.034C726.557 504.227 727.728 503.831 728.546 503.066C729.364 502.295 729.81 501.077 729.883 499.414ZM727.039 499.414C727.658 499.414 728.227 499.224 728.746 498.845C729.271 498.466 729.654 497.997 729.893 497.438V496.7C729.893 495.489 729.63 494.505 729.105 493.746C728.579 492.988 727.914 492.609 727.109 492.609C726.297 492.609 725.646 492.921 725.153 493.547C724.661 494.165 724.415 494.984 724.415 496.001C724.415 496.993 724.651 497.811 725.123 498.456C725.602 499.095 726.241 499.414 727.039 499.414Z" fill="white"/>
</g>
</g>
<g id="claves">
<path id="Rectangle 4" d="M39 577H255.745L289 617L255.745 657H39V577Z" fill="#CD08D1" fill-opacity="0.1"/>
<path id="Rectangle 4 (Stroke)" fill-rule="evenodd" clip-rule="evenodd" d="M254.338 580H42V654H254.338L285.099 617L254.338 580ZM255.745 577H39V657H255.745L289 617L255.745 577Z" fill="#CD08D1"/>
<path id="Rectangle 5" d="M43 687H259.745L293 727L259.745 767H43V687Z" fill="#CD08D1" fill-opacity="0.1"/>
<path id="Rectangle 5 (Stroke)" fill-rule="evenodd" clip-rule="evenodd" d="M258.338 690H46V764H258.338L289.099 727L258.338 690ZM259.745 687H43V767H259.745L293 727L259.745 687Z" fill="#CD08D1"/>
<path id="Rectangle 6" d="M379 574H595.745L629 614L595.745 654H379V574Z" fill="#CD08D1" fill-opacity="0.1"/>
<path id="Rectangle 6 (Stroke)" fill-rule="evenodd" clip-rule="evenodd" d="M594.338 577H382V651H594.338L625.099 614L594.338 577ZM595.745 574H379V654H595.745L629 614L595.745 574Z" fill="#CD08D1"/>
<path id="Rectangle 7" d="M382 684H598.745L632 724L598.745 764H382V684Z" fill="#CD08D1" fill-opacity="0.1"/>
<path id="Rectangle 7 (Stroke)" fill-rule="evenodd" clip-rule="evenodd" d="M597.338 687H385V761H597.338L628.099 724L597.338 687ZM598.745 684H382V764H598.745L632 724L598.745 684Z" fill="#CD08D1"/>
<path id="Rectangle 8" d="M725 633H941.745L975 673L941.745 713H725V633Z" fill="#CD08D1" fill-opacity="0.1"/>
<path id="Rectangle 8 (Stroke)" fill-rule="evenodd" clip-rule="evenodd" d="M940.338 636H728V710H940.338L971.099 673L940.338 636ZM941.745 633H725V713H941.745L975 673L941.745 633Z" fill="#CD08D1"/>
<path id="Ellipse 1" d="M80 617C80 639.091 62.0914 657 40 657C17.9086 657 0 639.091 0 617C0 594.909 17.9086 577 40 577C62.0914 577 80 594.909 80 617Z" fill="#CD08D1"/>
<path id="Ellipse 2" d="M84 727C84 749.091 66.0914 767 44 767C21.9086 767 4 749.091 4 727C4 704.909 21.9086 687 44 687C66.0914 687 84 704.909 84 727Z" fill="#CD08D1"/>
<path id="Ellipse 3" d="M420 614C420 636.091 402.091 654 380 654C357.909 654 340 636.091 340 614C340 591.909 357.909 574 380 574C402.091 574 420 591.909 420 614Z" fill="#CD08D1"/>
<path id="Ellipse 4" d="M423 724C423 746.091 405.091 764 383 764C360.909 764 343 746.091 343 724C343 701.909 360.909 684 383 684C405.091 684 423 701.909 423 724Z" fill="#CD08D1"/>
<path id="Ellipse 5" d="M766 673C766 695.091 748.091 713 726 713C703.909 713 686 695.091 686 673C686 650.909 703.909 633 726 633C748.091 633 766 650.909 766 673Z" fill="#CD08D1"/>
<path id="A" d="M48.0938 627.406H30.4688L26.7812 638H18.5625L35.75 592.5H42.8438L60.0625 638H51.8125L48.0938 627.406ZM32.6875 621.031H45.875L39.2812 602.156L32.6875 621.031Z" fill="white"/>
<path id="B" d="M27.625 743V697.5H43.2188C48.3646 697.5 52.2812 698.531 54.9688 700.594C57.6562 702.656 59 705.729 59 709.812C59 711.896 58.4375 713.771 57.3125 715.438C56.1875 717.104 54.5417 718.396 52.375 719.312C54.8333 719.979 56.7292 721.24 58.0625 723.094C59.4167 724.927 60.0938 727.135 60.0938 729.719C60.0938 733.99 58.7188 737.271 55.9688 739.562C53.2396 741.854 49.3229 743 44.2188 743H27.625ZM35.5312 722.469V736.688H44.3125C46.7917 736.688 48.7292 736.073 50.125 734.844C51.5208 733.615 52.2188 731.906 52.2188 729.719C52.2188 724.99 49.8021 722.573 44.9688 722.469H35.5312ZM35.5312 716.656H43.2812C45.7396 716.656 47.6562 716.104 49.0312 715C50.4271 713.875 51.125 712.292 51.125 710.25C51.125 708 50.4792 706.375 49.1875 705.375C47.9167 704.375 45.9271 703.875 43.2188 703.875H35.5312V716.656Z" fill="white"/>
<path id="C" d="M397.344 621.188C396.885 626.042 395.094 629.833 391.969 632.562C388.844 635.271 384.688 636.625 379.5 636.625C375.875 636.625 372.677 635.771 369.906 634.062C367.156 632.333 365.031 629.885 363.531 626.719C362.031 623.552 361.25 619.875 361.188 615.688V611.438C361.188 607.146 361.948 603.365 363.469 600.094C364.99 596.823 367.167 594.302 370 592.531C372.854 590.76 376.146 589.875 379.875 589.875C384.896 589.875 388.938 591.24 392 593.969C395.062 596.698 396.844 600.552 397.344 605.531H389.469C389.094 602.26 388.135 599.906 386.594 598.469C385.073 597.01 382.833 596.281 379.875 596.281C376.438 596.281 373.792 597.542 371.938 600.062C370.104 602.562 369.167 606.24 369.125 611.094V615.125C369.125 620.042 370 623.792 371.75 626.375C373.521 628.958 376.104 630.25 379.5 630.25C382.604 630.25 384.938 629.552 386.5 628.156C388.062 626.76 389.052 624.438 389.469 621.188H397.344Z" fill="white"/>
<path id="D" d="M365.625 746V700.5H379.062C383.083 700.5 386.646 701.396 389.75 703.188C392.875 704.979 395.292 707.521 397 710.812C398.708 714.104 399.562 717.875 399.562 722.125V724.406C399.562 728.719 398.698 732.51 396.969 735.781C395.26 739.052 392.812 741.573 389.625 743.344C386.458 745.115 382.823 746 378.719 746H365.625ZM373.531 706.875V739.688H378.688C382.833 739.688 386.01 738.396 388.219 735.812C390.448 733.208 391.583 729.479 391.625 724.625V722.094C391.625 717.156 390.552 713.385 388.406 710.781C386.26 708.177 383.146 706.875 379.062 706.875H373.531Z" fill="white"/>
<path id="E" d="M735.219 674.688H716.531V688.688H738.375V695H708.625V649.5H738.156V655.875H716.531V668.438H735.219V674.688Z" fill="white"/>
<g id="1000 800 625 425 5000">
<path d="M129.95 630H126.136V604.714L118.486 607.523V604.078L129.355 599.997H129.95V630Z" fill="#CD08D1"/>
<path d="M159.789 617.265C159.789 621.708 159.03 625.01 157.513 627.17C155.995 629.33 153.623 630.41 150.396 630.41C147.211 630.41 144.853 629.357 143.321 627.252C141.79 625.133 140.997 621.975 140.942 617.777V612.712C140.942 608.323 141.701 605.062 143.219 602.93C144.736 600.797 147.115 599.73 150.355 599.73C153.568 599.73 155.934 600.763 157.451 602.827C158.969 604.878 159.748 608.05 159.789 612.343V617.265ZM155.995 612.076C155.995 608.863 155.544 606.525 154.642 605.062C153.739 603.586 152.311 602.848 150.355 602.848C148.414 602.848 146.999 603.579 146.11 605.042C145.222 606.505 144.764 608.754 144.736 611.789V617.859C144.736 621.086 145.201 623.472 146.131 625.017C147.074 626.548 148.496 627.313 150.396 627.313C152.27 627.313 153.657 626.589 154.56 625.14C155.476 623.69 155.954 621.407 155.995 618.29V612.076Z" fill="#CD08D1"/>
<path d="M183.373 617.265C183.373 621.708 182.614 625.01 181.097 627.17C179.579 629.33 177.207 630.41 173.98 630.41C170.795 630.41 168.437 629.357 166.905 627.252C165.374 625.133 164.581 621.975 164.526 617.777V612.712C164.526 608.323 165.285 605.062 166.803 602.93C168.32 600.797 170.699 599.73 173.939 599.73C177.152 599.73 179.518 600.763 181.035 602.827C182.553 604.878 183.332 608.05 183.373 612.343V617.265ZM179.579 612.076C179.579 608.863 179.128 606.525 178.226 605.062C177.323 603.586 175.895 602.848 173.939 602.848C171.998 602.848 170.583 603.579 169.694 605.042C168.806 606.505 168.348 608.754 168.32 611.789V617.859C168.32 621.086 168.785 623.472 169.715 625.017C170.658 626.548 172.08 627.313 173.98 627.313C175.854 627.313 177.241 626.589 178.144 625.14C179.06 623.69 179.538 621.407 179.579 618.29V612.076Z" fill="#CD08D1"/>
<path d="M206.957 617.265C206.957 621.708 206.198 625.01 204.681 627.17C203.163 629.33 200.791 630.41 197.564 630.41C194.379 630.41 192.021 629.357 190.489 627.252C188.958 625.133 188.165 621.975 188.11 617.777V612.712C188.11 608.323 188.869 605.062 190.387 602.93C191.904 600.797 194.283 599.73 197.523 599.73C200.736 599.73 203.102 600.763 204.619 602.827C206.137 604.878 206.916 608.05 206.957 612.343V617.265ZM203.163 612.076C203.163 608.863 202.712 606.525 201.81 605.062C200.907 603.586 199.479 602.848 197.523 602.848C195.582 602.848 194.167 603.579 193.278 605.042C192.39 606.505 191.932 608.754 191.904 611.789V617.859C191.904 621.086 192.369 623.472 193.299 625.017C194.242 626.548 195.664 627.313 197.564 627.313C199.438 627.313 200.825 626.589 201.728 625.14C202.644 623.69 203.122 621.407 203.163 618.29V612.076Z" fill="#CD08D1"/>
<path d="M469.539 607.934C469.539 609.424 469.143 610.75 468.35 611.912C467.57 613.074 466.511 613.983 465.171 614.64C466.729 615.31 467.96 616.287 468.862 617.572C469.778 618.857 470.236 620.313 470.236 621.94C470.236 624.524 469.361 626.582 467.611 628.113C465.875 629.645 463.585 630.41 460.741 630.41C457.87 630.41 455.566 629.645 453.83 628.113C452.107 626.568 451.246 624.511 451.246 621.94C451.246 620.327 451.684 618.871 452.559 617.572C453.447 616.273 454.671 615.289 456.229 614.619C454.903 613.963 453.857 613.054 453.092 611.892C452.326 610.729 451.943 609.41 451.943 607.934C451.943 605.418 452.75 603.422 454.363 601.945C455.977 600.469 458.103 599.73 460.741 599.73C463.366 599.73 465.485 600.469 467.099 601.945C468.726 603.422 469.539 605.418 469.539 607.934ZM466.442 621.858C466.442 620.19 465.909 618.83 464.843 617.777C463.79 616.725 462.409 616.198 460.7 616.198C458.991 616.198 457.617 616.718 456.578 617.757C455.553 618.796 455.04 620.163 455.04 621.858C455.04 623.554 455.539 624.887 456.537 625.857C457.549 626.828 458.95 627.313 460.741 627.313C462.519 627.313 463.913 626.828 464.925 625.857C465.937 624.873 466.442 623.54 466.442 621.858ZM460.741 602.848C459.251 602.848 458.041 603.312 457.111 604.242C456.195 605.158 455.737 606.409 455.737 607.995C455.737 609.513 456.188 610.743 457.091 611.687C458.007 612.616 459.224 613.081 460.741 613.081C462.259 613.081 463.469 612.616 464.371 611.687C465.287 610.743 465.745 609.513 465.745 607.995C465.745 606.478 465.273 605.24 464.33 604.283C463.387 603.326 462.19 602.848 460.741 602.848Z" fill="#CD08D1"/>
<path d="M493.738 617.265C493.738 621.708 492.979 625.01 491.462 627.17C489.944 629.33 487.572 630.41 484.346 630.41C481.16 630.41 478.802 629.357 477.271 627.252C475.739 625.133 474.946 621.975 474.892 617.777V612.712C474.892 608.323 475.65 605.062 477.168 602.93C478.686 600.797 481.064 599.73 484.305 599.73C487.518 599.73 489.883 600.763 491.4 602.827C492.918 604.878 493.697 608.05 493.738 612.343V617.265ZM489.944 612.076C489.944 608.863 489.493 606.525 488.591 605.062C487.688 603.586 486.26 602.848 484.305 602.848C482.363 602.848 480.948 603.579 480.06 605.042C479.171 606.505 478.713 608.754 478.686 611.789V617.859C478.686 621.086 479.15 623.472 480.08 625.017C481.023 626.548 482.445 627.313 484.346 627.313C486.219 627.313 487.606 626.589 488.509 625.14C489.425 623.69 489.903 621.407 489.944 618.29V612.076Z" fill="#CD08D1"/>
<path d="M517.322 617.265C517.322 621.708 516.563 625.01 515.046 627.17C513.528 629.33 511.156 630.41 507.93 630.41C504.744 630.41 502.386 629.357 500.854 627.252C499.323 625.133 498.53 621.975 498.476 617.777V612.712C498.476 608.323 499.234 605.062 500.752 602.93C502.27 600.797 504.648 599.73 507.889 599.73C511.102 599.73 513.467 600.763 514.984 602.827C516.502 604.878 517.281 608.05 517.322 612.343V617.265ZM513.528 612.076C513.528 608.863 513.077 606.525 512.175 605.062C511.272 603.586 509.844 602.848 507.889 602.848C505.947 602.848 504.532 603.579 503.644 605.042C502.755 606.505 502.297 608.754 502.27 611.789V617.859C502.27 621.086 502.734 623.472 503.664 625.017C504.607 626.548 506.029 627.313 507.93 627.313C509.803 627.313 511.19 626.589 512.093 625.14C513.009 623.69 513.487 621.407 513.528 618.29V612.076Z" fill="#CD08D1"/>
<path d="M819.956 656.12V659.34H819.259C816.306 659.395 813.954 660.27 812.204 661.965C810.454 663.66 809.442 666.046 809.169 669.122C810.741 667.317 812.888 666.415 815.608 666.415C818.206 666.415 820.277 667.331 821.822 669.163C823.381 670.995 824.16 673.36 824.16 676.259C824.16 679.335 823.319 681.796 821.638 683.642C819.97 685.487 817.728 686.41 814.911 686.41C812.054 686.41 809.736 685.316 807.959 683.129C806.182 680.928 805.293 678.098 805.293 674.639V673.183C805.293 667.687 806.462 663.489 808.8 660.591C811.151 657.679 814.645 656.188 819.279 656.12H819.956ZM814.973 669.573C813.674 669.573 812.478 669.963 811.384 670.742C810.29 671.521 809.531 672.499 809.107 673.675V675.069C809.107 677.53 809.661 679.513 810.769 681.017C811.876 682.521 813.257 683.272 814.911 683.272C816.62 683.272 817.96 682.644 818.931 681.386C819.915 680.128 820.407 678.48 820.407 676.443C820.407 674.393 819.908 672.738 818.91 671.48C817.926 670.209 816.613 669.573 814.973 669.573Z" fill="#CD08D1"/>
<path d="M848.216 686H828.651V683.272L838.987 671.788C840.519 670.052 841.571 668.644 842.146 667.563C842.733 666.47 843.027 665.342 843.027 664.18C843.027 662.621 842.556 661.343 841.612 660.345C840.669 659.347 839.411 658.848 837.839 658.848C835.952 658.848 834.482 659.388 833.43 660.468C832.391 661.534 831.871 663.024 831.871 664.938H828.077C828.077 662.19 828.959 659.969 830.723 658.273C832.5 656.578 834.872 655.73 837.839 655.73C840.614 655.73 842.809 656.462 844.422 657.925C846.035 659.374 846.842 661.309 846.842 663.729C846.842 666.668 844.969 670.168 841.223 674.229L833.225 682.903H848.216V686Z" fill="#CD08D1"/>
<path d="M853.979 671.029L855.496 656.141H870.795V659.647H858.716L857.813 667.789C859.276 666.928 860.938 666.497 862.797 666.497C865.518 666.497 867.678 667.399 869.277 669.204C870.877 670.995 871.677 673.422 871.677 676.484C871.677 679.561 870.843 681.987 869.175 683.765C867.521 685.528 865.203 686.41 862.223 686.41C859.584 686.41 857.431 685.679 855.763 684.216C854.095 682.753 853.145 680.729 852.912 678.146H856.501C856.733 679.854 857.342 681.146 858.326 682.021C859.311 682.883 860.609 683.313 862.223 683.313C863.986 683.313 865.367 682.712 866.365 681.509C867.377 680.306 867.883 678.645 867.883 676.525C867.883 674.529 867.336 672.93 866.242 671.727C865.162 670.51 863.72 669.901 861.915 669.901C860.261 669.901 858.962 670.264 858.019 670.988L857.014 671.809L853.979 671.029Z" fill="#CD08D1"/>
<path d="M143.916 731.972H148.059V735.068H143.916V742H140.102V735.068H126.505V732.833L139.876 712.141H143.916V731.972ZM130.812 731.972H140.102V717.329L139.65 718.149L130.812 731.972Z" fill="#CD08D1"/>
<path d="M171.048 742H151.483V739.272L161.819 727.788C163.351 726.052 164.403 724.644 164.978 723.563C165.565 722.47 165.859 721.342 165.859 720.18C165.859 718.621 165.388 717.343 164.444 716.345C163.501 715.347 162.243 714.848 160.671 714.848C158.784 714.848 157.314 715.388 156.262 716.468C155.223 717.534 154.703 719.024 154.703 720.938H150.909C150.909 718.19 151.791 715.969 153.555 714.273C155.332 712.578 157.704 711.73 160.671 711.73C163.446 711.73 165.641 712.462 167.254 713.925C168.867 715.374 169.674 717.309 169.674 719.729C169.674 722.668 167.801 726.168 164.055 730.229L156.057 738.903H171.048V742Z" fill="#CD08D1"/>
<path d="M176.811 727.029L178.328 712.141H193.627V715.647H181.548L180.646 723.789C182.108 722.928 183.77 722.497 185.629 722.497C188.35 722.497 190.51 723.399 192.109 725.204C193.709 726.995 194.509 729.422 194.509 732.484C194.509 735.561 193.675 737.987 192.007 739.765C190.353 741.528 188.035 742.41 185.055 742.41C182.416 742.41 180.263 741.679 178.595 740.216C176.927 738.753 175.977 736.729 175.744 734.146H179.333C179.565 735.854 180.174 737.146 181.158 738.021C182.143 738.883 183.441 739.313 185.055 739.313C186.818 739.313 188.199 738.712 189.197 737.509C190.209 736.306 190.715 734.645 190.715 732.525C190.715 730.529 190.168 728.93 189.074 727.727C187.994 726.51 186.552 725.901 184.747 725.901C183.093 725.901 181.794 726.264 180.851 726.988L179.846 727.809L176.811 727.029Z" fill="#CD08D1"/>
<path d="M450.426 727.029L451.943 712.141H467.242V715.647H455.163L454.261 723.789C455.724 722.928 457.385 722.497 459.244 722.497C461.965 722.497 464.125 723.399 465.725 725.204C467.324 726.995 468.124 729.422 468.124 732.484C468.124 735.561 467.29 737.987 465.622 739.765C463.968 741.528 461.65 742.41 458.67 742.41C456.031 742.41 453.878 741.679 452.21 740.216C450.542 738.753 449.592 736.729 449.359 734.146H452.948C453.181 735.854 453.789 737.146 454.773 738.021C455.758 738.883 457.057 739.313 458.67 739.313C460.434 739.313 461.814 738.712 462.812 737.509C463.824 736.306 464.33 734.645 464.33 732.525C464.33 730.529 463.783 728.93 462.689 727.727C461.609 726.51 460.167 725.901 458.362 725.901C456.708 725.901 455.409 726.264 454.466 726.988L453.461 727.809L450.426 727.029Z" fill="#CD08D1"/>
<path d="M490.99 729.265C490.99 733.708 490.231 737.01 488.714 739.17C487.196 741.33 484.824 742.41 481.598 742.41C478.412 742.41 476.054 741.357 474.522 739.252C472.991 737.133 472.198 733.975 472.144 729.777V724.712C472.144 720.323 472.902 717.062 474.42 714.93C475.938 712.797 478.316 711.73 481.557 711.73C484.77 711.73 487.135 712.763 488.652 714.827C490.17 716.878 490.949 720.05 490.99 724.343V729.265ZM487.196 724.076C487.196 720.863 486.745 718.525 485.843 717.062C484.94 715.586 483.512 714.848 481.557 714.848C479.615 714.848 478.2 715.579 477.312 717.042C476.423 718.505 475.965 720.754 475.938 723.789V729.859C475.938 733.086 476.402 735.472 477.332 737.017C478.275 738.548 479.697 739.313 481.598 739.313C483.471 739.313 484.858 738.589 485.761 737.14C486.677 735.69 487.155 733.407 487.196 730.29V724.076Z" fill="#CD08D1"/>
<path d="M514.574 729.265C514.574 733.708 513.815 737.01 512.298 739.17C510.78 741.33 508.408 742.41 505.182 742.41C501.996 742.41 499.638 741.357 498.106 739.252C496.575 737.133 495.782 733.975 495.728 729.777V724.712C495.728 720.323 496.486 717.062 498.004 714.93C499.521 712.797 501.9 711.73 505.141 711.73C508.354 711.73 510.719 712.763 512.236 714.827C513.754 716.878 514.533 720.05 514.574 724.343V729.265ZM510.78 724.076C510.78 720.863 510.329 718.525 509.427 717.062C508.524 715.586 507.096 714.848 505.141 714.848C503.199 714.848 501.784 715.579 500.896 717.042C500.007 718.505 499.549 720.754 499.521 723.789V729.859C499.521 733.086 499.986 735.472 500.916 737.017C501.859 738.548 503.281 739.313 505.182 739.313C507.055 739.313 508.442 738.589 509.345 737.14C510.261 735.69 510.739 733.407 510.78 730.29V724.076Z" fill="#CD08D1"/>
<path d="M538.158 729.265C538.158 733.708 537.399 737.01 535.882 739.17C534.364 741.33 531.992 742.41 528.766 742.41C525.58 742.41 523.222 741.357 521.69 739.252C520.159 737.133 519.366 733.975 519.312 729.777V724.712C519.312 720.323 520.07 717.062 521.588 714.93C523.105 712.797 525.484 711.73 528.725 711.73C531.938 711.73 534.303 712.763 535.82 714.827C537.338 716.878 538.117 720.05 538.158 724.343V729.265ZM534.364 724.076C534.364 720.863 533.913 718.525 533.011 717.062C532.108 715.586 530.68 714.848 528.725 714.848C526.783 714.848 525.368 715.579 524.479 717.042C523.591 718.505 523.133 720.754 523.105 723.789V729.859C523.105 733.086 523.57 735.472 524.5 737.017C525.443 738.548 526.865 739.313 528.766 739.313C530.639 739.313 532.026 738.589 532.929 737.14C533.845 735.69 534.323 733.407 534.364 730.29V724.076Z" fill="#CD08D1"/>
</g>
<g id="flecha">
<path id="Rectangle 2" d="M744.2 627.008L759.482 635.133L717.5 714.089L702.219 705.963L744.2 627.008Z" fill="#1043F5"/>
<path id="Rectangle 1_2" d="M686 639.904L776 590V647.692L731 630.096L686 639.904Z" fill="#1043F5"/>
<path id="Rectangle 3" d="M690.039 709.21L705.666 682.143L722.936 681.565L707.309 708.632L690.039 709.21Z" fill="#1043F5"/>
<path id="Rectangle 4_2" d="M716.089 723.845L731.717 696.778L722.926 681.154L707.299 708.221L716.089 723.845Z" fill="#1043F5"/>
</g>
</g>
</g>
</svg>
