<svg viewBox="0 0 991 544" fill="none" xmlns="http://www.w3.org/2000/svg">
<g id="0118129">
<g id="Group 8">
<path id="Rectangle 1" d="M6 39.5845C6 18.9604 30.1776 2.24121 60.0022 2.24121H991V260.657C991 281.281 966.822 298 936.997 298H6V39.5845Z" fill="#02071A"/>
<path id="Rectangle 1 (Stroke)" fill-rule="evenodd" clip-rule="evenodd" d="M985.599 5.97554H60.0022C33.1601 5.97554 11.4002 21.0228 11.4002 39.5845V294.266H936.997C963.84 294.266 985.599 279.218 985.599 260.657V5.97554ZM60.0022 2.24121C30.1776 2.24121 6 18.9604 6 39.5845V298H936.997C966.822 298 991 281.281 991 260.657V2.24121H60.0022Z" fill="#CD08D1"/>
<path id="Rectangle 14" d="M64.4842 2.29468C93.3672 -2.86835 991 2.29468 991 2.29468V24.6466C991 24.6466 49.2016 16.431 15.7202 24.6466C26.138 12.7914 35.6012 7.45772 64.4842 2.29468Z" fill="#CD08D1"/>
<path id="Rectangle 15" d="M958.599 2.24121H991V261.403C987.023 278.991 978.78 285.455 958.599 293.892C964.538 280.075 958.599 2.24121 958.599 2.24121Z" fill="#CD08D1"/>
</g>
<g id="claves01">
<path id="Rectangle 4" d="M39 337H255.745L289 377L255.745 417H39V337Z" fill="#CD08D1" fill-opacity="0.1"/>
<path id="Rectangle 4 (Stroke)" fill-rule="evenodd" clip-rule="evenodd" d="M254.338 340H42V414H254.338L285.099 377L254.338 340ZM255.745 337H39V417H255.745L289 377L255.745 337Z" fill="#CD08D1"/>
<path id="Rectangle 5" d="M43 447H259.745L293 487L259.745 527H43V447Z" fill="#CD08D1" fill-opacity="0.1"/>
<path id="Rectangle 5 (Stroke)" fill-rule="evenodd" clip-rule="evenodd" d="M258.338 450H46V524H258.338L289.099 487L258.338 450ZM259.745 447H43V527H259.745L293 487L259.745 447Z" fill="#CD08D1"/>
<path id="Rectangle 6" d="M379 334H595.745L629 374L595.745 414H379V334Z" fill="#CD08D1" fill-opacity="0.1"/>
<path id="Rectangle 6 (Stroke)" fill-rule="evenodd" clip-rule="evenodd" d="M594.338 337H382V411H594.338L625.099 374L594.338 337ZM595.745 334H379V414H595.745L629 374L595.745 334Z" fill="#CD08D1"/>
<path id="Rectangle 7" d="M382 444H598.745L632 484L598.745 524H382V444Z" fill="#CD08D1" fill-opacity="0.1"/>
<path id="Rectangle 7 (Stroke)" fill-rule="evenodd" clip-rule="evenodd" d="M597.338 447H385V521H597.338L628.099 484L597.338 447ZM598.745 444H382V524H598.745L632 484L598.745 444Z" fill="#CD08D1"/>
<path id="Rectangle 8" d="M725 393H941.745L975 433L941.745 473H725V393Z" fill="#CD08D1" fill-opacity="0.1"/>
<path id="Rectangle 8 (Stroke)" fill-rule="evenodd" clip-rule="evenodd" d="M940.338 396H728V470H940.338L971.099 433L940.338 396ZM941.745 393H725V473H941.745L975 433L941.745 393Z" fill="#CD08D1"/>
<path id="Ellipse 1" d="M80 377C80 399.091 62.0914 417 40 417C17.9086 417 0 399.091 0 377C0 354.909 17.9086 337 40 337C62.0914 337 80 354.909 80 377Z" fill="#CD08D1"/>
<path id="Ellipse 2" d="M84 487C84 509.091 66.0914 527 44 527C21.9086 527 4 509.091 4 487C4 464.909 21.9086 447 44 447C66.0914 447 84 464.909 84 487Z" fill="#CD08D1"/>
<path id="Ellipse 3" d="M420 374C420 396.091 402.091 414 380 414C357.909 414 340 396.091 340 374C340 351.909 357.909 334 380 334C402.091 334 420 351.909 420 374Z" fill="#CD08D1"/>
<path id="Ellipse 4" d="M423 484C423 506.091 405.091 524 383 524C360.909 524 343 506.091 343 484C343 461.909 360.909 444 383 444C405.091 444 423 461.909 423 484Z" fill="#CD08D1"/>
<path id="Ellipse 5" d="M766 433C766 455.091 748.091 473 726 473C703.909 473 686 455.091 686 433C686 410.909 703.909 393 726 393C748.091 393 766 410.909 766 433Z" fill="#CD08D1"/>
<path id="A" d="M48.0938 387.406H30.4688L26.7812 398H18.5625L35.75 352.5H42.8438L60.0625 398H51.8125L48.0938 387.406ZM32.6875 381.031H45.875L39.2812 362.156L32.6875 381.031Z" fill="white"/>
<path id="B" d="M27.625 503V457.5H43.2188C48.3646 457.5 52.2812 458.531 54.9688 460.594C57.6562 462.656 59 465.729 59 469.812C59 471.896 58.4375 473.771 57.3125 475.438C56.1875 477.104 54.5417 478.396 52.375 479.312C54.8333 479.979 56.7292 481.24 58.0625 483.094C59.4167 484.927 60.0938 487.135 60.0938 489.719C60.0938 493.99 58.7188 497.271 55.9688 499.562C53.2396 501.854 49.3229 503 44.2188 503H27.625ZM35.5312 482.469V496.688H44.3125C46.7917 496.688 48.7292 496.073 50.125 494.844C51.5208 493.615 52.2188 491.906 52.2188 489.719C52.2188 484.99 49.8021 482.573 44.9688 482.469H35.5312ZM35.5312 476.656H43.2812C45.7396 476.656 47.6562 476.104 49.0312 475C50.4271 473.875 51.125 472.292 51.125 470.25C51.125 468 50.4792 466.375 49.1875 465.375C47.9167 464.375 45.9271 463.875 43.2188 463.875H35.5312V476.656Z" fill="white"/>
<path id="C" d="M397.344 381.188C396.885 386.042 395.094 389.833 391.969 392.562C388.844 395.271 384.688 396.625 379.5 396.625C375.875 396.625 372.677 395.771 369.906 394.062C367.156 392.333 365.031 389.885 363.531 386.719C362.031 383.552 361.25 379.875 361.188 375.688V371.438C361.188 367.146 361.948 363.365 363.469 360.094C364.99 356.823 367.167 354.302 370 352.531C372.854 350.76 376.146 349.875 379.875 349.875C384.896 349.875 388.938 351.24 392 353.969C395.062 356.698 396.844 360.552 397.344 365.531H389.469C389.094 362.26 388.135 359.906 386.594 358.469C385.073 357.01 382.833 356.281 379.875 356.281C376.438 356.281 373.792 357.542 371.938 360.062C370.104 362.562 369.167 366.24 369.125 371.094V375.125C369.125 380.042 370 383.792 371.75 386.375C373.521 388.958 376.104 390.25 379.5 390.25C382.604 390.25 384.938 389.552 386.5 388.156C388.062 386.76 389.052 384.438 389.469 381.188H397.344Z" fill="white"/>
<path id="D" d="M365.625 506V460.5H379.062C383.083 460.5 386.646 461.396 389.75 463.188C392.875 464.979 395.292 467.521 397 470.812C398.708 474.104 399.562 477.875 399.562 482.125V484.406C399.562 488.719 398.698 492.51 396.969 495.781C395.26 499.052 392.812 501.573 389.625 503.344C386.458 505.115 382.823 506 378.719 506H365.625ZM373.531 466.875V499.688H378.688C382.833 499.688 386.01 498.396 388.219 495.812C390.448 493.208 391.583 489.479 391.625 484.625V482.094C391.625 477.156 390.552 473.385 388.406 470.781C386.26 468.177 383.146 466.875 379.062 466.875H373.531Z" fill="white"/>
<path id="E" d="M735.219 434.688H716.531V448.688H738.375V455H708.625V409.5H738.156V415.875H716.531V428.438H735.219V434.688Z" fill="white"/>
<g id="flecha">
<path id="Rectangle 2" d="M388.2 447.008L403.482 455.133L361.5 534.089L346.219 525.964L388.2 447.008Z" fill="#1043F5"/>
<path id="Rectangle 1_2" d="M330 459.904L420 410V467.692L375 450.096L330 459.904Z" fill="#1043F5"/>
<path id="Rectangle 3" d="M334.039 529.21L349.666 502.143L366.936 501.565L351.309 528.632L334.039 529.21Z" fill="#1043F5"/>
<path id="Rectangle 4_2" d="M360.089 543.846L375.717 516.779L366.926 501.154L351.299 528.221L360.089 543.846Z" fill="#1043F5"/>
</g>
<g id="14">
<path d="M143.814 391H140.545V369.326L133.988 371.734V368.781L143.305 365.283H143.814V391Z" fill="white"/>
<path d="M167.07 382.404H170.621V385.059H167.07V391H163.801V385.059H152.146V383.143L163.607 365.406H167.07V382.404ZM155.838 382.404H163.801V369.854L163.414 370.557L155.838 382.404Z" fill="white"/>
</g>
<g id="-14">
<path d="M144.229 493.455H135.65V490.801H144.229V493.455Z" fill="white"/>
<path d="M157.764 503H154.494V481.326L147.938 483.734V480.781L157.254 477.283H157.764V503Z" fill="white"/>
<path d="M181.02 494.404H184.57V497.059H181.02V503H177.75V497.059H166.096V495.143L177.557 477.406H181.02V494.404ZM169.787 494.404H177.75V481.854L177.363 482.557L169.787 494.404Z" fill="white"/>
</g>
<path id="7" d="M490.65 361.234L480.051 385H476.641L487.205 362.078H473.354V359.406H490.65V361.234Z" fill="white"/>
<g id="-7">
<path d="M483.229 489.455H474.65V486.801H483.229V489.455Z" fill="white"/>
<path d="M502.6 475.234L492 499H488.59L499.154 476.078H485.303V473.406H502.6V475.234Z" fill="white"/>
</g>
<path id="0" d="M847.176 434.084C847.176 437.893 846.525 440.723 845.225 442.574C843.924 444.426 841.891 445.352 839.125 445.352C836.395 445.352 834.373 444.449 833.061 442.645C831.748 440.828 831.068 438.121 831.021 434.523V430.182C831.021 426.42 831.672 423.625 832.973 421.797C834.273 419.969 836.312 419.055 839.09 419.055C841.844 419.055 843.871 419.939 845.172 421.709C846.473 423.467 847.141 426.186 847.176 429.865V434.084ZM843.924 429.637C843.924 426.883 843.537 424.879 842.764 423.625C841.99 422.359 840.766 421.727 839.09 421.727C837.426 421.727 836.213 422.354 835.451 423.607C834.689 424.861 834.297 426.789 834.273 429.391V434.594C834.273 437.359 834.672 439.404 835.469 440.729C836.277 442.041 837.496 442.697 839.125 442.697C840.73 442.697 841.92 442.076 842.693 440.834C843.479 439.592 843.889 437.635 843.924 434.963V429.637Z" fill="white"/>
</g>
<g id="Group 390">
<g id="Se define Halle el elemento neutro.">
<path d="M37.5117 107.592C34.6172 106.76 32.5078 105.74 31.1836 104.533C29.8711 103.314 29.2148 101.814 29.2148 100.033C29.2148 98.0176 30.0176 96.3535 31.623 95.041C33.2402 93.7168 35.3379 93.0547 37.916 93.0547C39.6738 93.0547 41.2383 93.3945 42.6094 94.0742C43.9922 94.7539 45.0586 95.6914 45.8086 96.8867C46.5703 98.082 46.9512 99.3887 46.9512 100.807H43.5586C43.5586 99.2598 43.0664 98.0469 42.082 97.168C41.0977 96.2773 39.709 95.832 37.916 95.832C36.252 95.832 34.9512 96.2012 34.0137 96.9395C33.0879 97.666 32.625 98.6797 32.625 99.9805C32.625 101.023 33.0645 101.908 33.9434 102.635C34.834 103.35 36.3398 104.006 38.4609 104.604C40.5938 105.201 42.2578 105.863 43.4531 106.59C44.6602 107.305 45.5508 108.143 46.125 109.104C46.7109 110.064 47.0039 111.195 47.0039 112.496C47.0039 114.57 46.1953 116.234 44.5781 117.488C42.9609 118.73 40.7988 119.352 38.0918 119.352C36.334 119.352 34.6934 119.018 33.1699 118.35C31.6465 117.67 30.4688 116.744 29.6367 115.572C28.8164 114.4 28.4062 113.07 28.4062 111.582H31.7988C31.7988 113.129 32.3672 114.354 33.5039 115.256C34.6523 116.146 36.1816 116.592 38.0918 116.592C39.873 116.592 41.2383 116.229 42.1875 115.502C43.1367 114.775 43.6113 113.785 43.6113 112.531C43.6113 111.277 43.1719 110.311 42.293 109.631C41.4141 108.939 39.8203 108.26 37.5117 107.592Z" fill="white"/>
<path d="M58.7285 119.352C56.1504 119.352 54.0527 118.508 52.4355 116.82C50.8184 115.121 50.0098 112.854 50.0098 110.018V109.42C50.0098 107.533 50.3672 105.852 51.082 104.375C51.8086 102.887 52.8164 101.727 54.1055 100.895C55.4062 100.051 56.8125 99.6289 58.3242 99.6289C60.7969 99.6289 62.7188 100.443 64.0898 102.072C65.4609 103.701 66.1465 106.033 66.1465 109.068V110.422H53.2617C53.3086 112.297 53.8535 113.814 54.8965 114.975C55.9512 116.123 57.2871 116.697 58.9043 116.697C60.0527 116.697 61.0254 116.463 61.8223 115.994C62.6191 115.525 63.3164 114.904 63.9141 114.131L65.9004 115.678C64.3066 118.127 61.916 119.352 58.7285 119.352ZM58.3242 102.301C57.0117 102.301 55.9102 102.781 55.0195 103.742C54.1289 104.691 53.5781 106.027 53.3672 107.75H62.8945V107.504C62.8008 105.852 62.3555 104.574 61.5586 103.672C60.7617 102.758 59.6836 102.301 58.3242 102.301Z" fill="white"/>
<path d="M78.0645 109.332C78.0645 106.414 78.7559 104.07 80.1387 102.301C81.5215 100.52 83.332 99.6289 85.5703 99.6289C87.7969 99.6289 89.5605 100.391 90.8613 101.914V92H94.1133V119H91.125L90.9668 116.961C89.666 118.555 87.8555 119.352 85.5352 119.352C83.332 119.352 81.5332 118.449 80.1387 116.645C78.7559 114.84 78.0645 112.484 78.0645 109.578V109.332ZM81.3164 109.701C81.3164 111.857 81.7617 113.545 82.6523 114.764C83.543 115.982 84.7734 116.592 86.3438 116.592C88.4062 116.592 89.9121 115.666 90.8613 113.814V105.078C89.8887 103.285 88.3945 102.389 86.3789 102.389C84.7852 102.389 83.543 103.004 82.6523 104.234C81.7617 105.465 81.3164 107.287 81.3164 109.701Z" fill="white"/>
<path d="M107.068 119.352C104.49 119.352 102.393 118.508 100.775 116.82C99.1582 115.121 98.3496 112.854 98.3496 110.018V109.42C98.3496 107.533 98.707 105.852 99.4219 104.375C100.148 102.887 101.156 101.727 102.445 100.895C103.746 100.051 105.152 99.6289 106.664 99.6289C109.137 99.6289 111.059 100.443 112.43 102.072C113.801 103.701 114.486 106.033 114.486 109.068V110.422H101.602C101.648 112.297 102.193 113.814 103.236 114.975C104.291 116.123 105.627 116.697 107.244 116.697C108.393 116.697 109.365 116.463 110.162 115.994C110.959 115.525 111.656 114.904 112.254 114.131L114.24 115.678C112.646 118.127 110.256 119.352 107.068 119.352ZM106.664 102.301C105.352 102.301 104.25 102.781 103.359 103.742C102.469 104.691 101.918 106.027 101.707 107.75H111.234V107.504C111.141 105.852 110.695 104.574 109.898 103.672C109.102 102.758 108.023 102.301 106.664 102.301Z" fill="white"/>
<path d="M119.355 119V102.494H116.35V99.9805H119.355V98.3633C119.355 96.2422 119.959 94.5898 121.166 93.4062C122.385 92.2227 124.102 91.6309 126.316 91.6309C127.629 91.6309 129.287 91.9883 131.291 92.7031L130.746 95.4453C129.281 94.8594 127.887 94.5664 126.562 94.5664C125.168 94.5664 124.16 94.8828 123.539 95.5156C122.93 96.1367 122.625 97.0742 122.625 98.3281V99.9805H126.51V102.494H122.625V119H119.355ZM132.908 119H129.639V99.9805H132.908V119Z" fill="white"/>
<path d="M141.275 99.9805L141.381 102.371C142.834 100.543 144.732 99.6289 147.076 99.6289C151.096 99.6289 153.123 101.896 153.158 106.432V119H149.906V106.414C149.895 105.043 149.578 104.029 148.957 103.373C148.348 102.717 147.393 102.389 146.092 102.389C145.037 102.389 144.111 102.67 143.314 103.232C142.518 103.795 141.896 104.533 141.451 105.447V119H138.199V99.9805H141.275Z" fill="white"/>
<path d="M165.955 119.352C163.377 119.352 161.279 118.508 159.662 116.82C158.045 115.121 157.236 112.854 157.236 110.018V109.42C157.236 107.533 157.594 105.852 158.309 104.375C159.035 102.887 160.043 101.727 161.332 100.895C162.633 100.051 164.039 99.6289 165.551 99.6289C168.023 99.6289 169.945 100.443 171.316 102.072C172.688 103.701 173.373 106.033 173.373 109.068V110.422H160.488C160.535 112.297 161.08 113.814 162.123 114.975C163.178 116.123 164.514 116.697 166.131 116.697C167.279 116.697 168.252 116.463 169.049 115.994C169.846 115.525 170.543 114.904 171.141 114.131L173.127 115.678C171.533 118.127 169.143 119.352 165.955 119.352ZM165.551 102.301C164.238 102.301 163.137 102.781 162.246 103.742C161.355 104.691 160.805 106.027 160.594 107.75H170.121V107.504C170.027 105.852 169.582 104.574 168.785 103.672C167.988 102.758 166.91 102.301 165.551 102.301Z" fill="white"/>
<path d="M49.6406 249H46.248V237.17H33.3457V249H29.9707V223.406H33.3457V234.41H46.248V223.406H49.6406V249Z" fill="white"/>
<path d="M66.8672 249C66.6797 248.625 66.5273 247.957 66.4102 246.996C64.8984 248.566 63.0938 249.352 60.9961 249.352C59.1211 249.352 57.5801 248.824 56.373 247.77C55.1777 246.703 54.5801 245.355 54.5801 243.727C54.5801 241.746 55.3301 240.211 56.8301 239.121C58.3418 238.02 60.4629 237.469 63.1934 237.469H66.3574V235.975C66.3574 234.838 66.0176 233.936 65.3379 233.268C64.6582 232.588 63.6562 232.248 62.332 232.248C61.1719 232.248 60.1992 232.541 59.4141 233.127C58.6289 233.713 58.2363 234.422 58.2363 235.254H54.9668C54.9668 234.305 55.3008 233.391 55.9688 232.512C56.6484 231.621 57.5625 230.918 58.7109 230.402C59.8711 229.887 61.1426 229.629 62.5254 229.629C64.7168 229.629 66.4336 230.18 67.6758 231.281C68.918 232.371 69.5625 233.877 69.6094 235.799V244.553C69.6094 246.299 69.832 247.688 70.2773 248.719V249H66.8672ZM61.4707 246.521C62.4902 246.521 63.457 246.258 64.3711 245.73C65.2852 245.203 65.9473 244.518 66.3574 243.674V239.771H63.8086C59.8242 239.771 57.832 240.938 57.832 243.27C57.832 244.289 58.1719 245.086 58.8516 245.66C59.5312 246.234 60.4043 246.521 61.4707 246.521Z" fill="white"/>
<path d="M78.2402 249H74.9883V222H78.2402V249Z" fill="white"/>
<path d="M86.9941 249H83.7422V222H86.9941V249Z" fill="white"/>
<path d="M100.107 249.352C97.5293 249.352 95.4316 248.508 93.8145 246.82C92.1973 245.121 91.3887 242.854 91.3887 240.018V239.42C91.3887 237.533 91.7461 235.852 92.4609 234.375C93.1875 232.887 94.1953 231.727 95.4844 230.895C96.7852 230.051 98.1914 229.629 99.7031 229.629C102.176 229.629 104.098 230.443 105.469 232.072C106.84 233.701 107.525 236.033 107.525 239.068V240.422H94.6406C94.6875 242.297 95.2324 243.814 96.2754 244.975C97.3301 246.123 98.666 246.697 100.283 246.697C101.432 246.697 102.404 246.463 103.201 245.994C103.998 245.525 104.695 244.904 105.293 244.131L107.279 245.678C105.686 248.127 103.295 249.352 100.107 249.352ZM99.7031 232.301C98.3906 232.301 97.2891 232.781 96.3984 233.742C95.5078 234.691 94.957 236.027 94.7461 237.75H104.273V237.504C104.18 235.852 103.734 234.574 102.938 233.672C102.141 232.758 101.062 232.301 99.7031 232.301Z" fill="white"/>
<path d="M128.127 249.352C125.549 249.352 123.451 248.508 121.834 246.82C120.217 245.121 119.408 242.854 119.408 240.018V239.42C119.408 237.533 119.766 235.852 120.48 234.375C121.207 232.887 122.215 231.727 123.504 230.895C124.805 230.051 126.211 229.629 127.723 229.629C130.195 229.629 132.117 230.443 133.488 232.072C134.859 233.701 135.545 236.033 135.545 239.068V240.422H122.66C122.707 242.297 123.252 243.814 124.295 244.975C125.35 246.123 126.686 246.697 128.303 246.697C129.451 246.697 130.424 246.463 131.221 245.994C132.018 245.525 132.715 244.904 133.312 244.131L135.299 245.678C133.705 248.127 131.314 249.352 128.127 249.352ZM127.723 232.301C126.41 232.301 125.309 232.781 124.418 233.742C123.527 234.691 122.977 236.027 122.766 237.75H132.293V237.504C132.199 235.852 131.754 234.574 130.957 233.672C130.16 232.758 129.082 232.301 127.723 232.301Z" fill="white"/>
<path d="M142.857 249H139.605V222H142.857V249Z" fill="white"/>
<path d="M164.9 249.352C162.322 249.352 160.225 248.508 158.607 246.82C156.99 245.121 156.182 242.854 156.182 240.018V239.42C156.182 237.533 156.539 235.852 157.254 234.375C157.98 232.887 158.988 231.727 160.277 230.895C161.578 230.051 162.984 229.629 164.496 229.629C166.969 229.629 168.891 230.443 170.262 232.072C171.633 233.701 172.318 236.033 172.318 239.068V240.422H159.434C159.48 242.297 160.025 243.814 161.068 244.975C162.123 246.123 163.459 246.697 165.076 246.697C166.225 246.697 167.197 246.463 167.994 245.994C168.791 245.525 169.488 244.904 170.086 244.131L172.072 245.678C170.479 248.127 168.088 249.352 164.9 249.352ZM164.496 232.301C163.184 232.301 162.082 232.781 161.191 233.742C160.301 234.691 159.75 236.027 159.539 237.75H169.066V237.504C168.973 235.852 168.527 234.574 167.73 233.672C166.934 232.758 165.855 232.301 164.496 232.301Z" fill="white"/>
<path d="M179.631 249H176.379V222H179.631V249Z" fill="white"/>
<path d="M192.744 249.352C190.166 249.352 188.068 248.508 186.451 246.82C184.834 245.121 184.025 242.854 184.025 240.018V239.42C184.025 237.533 184.383 235.852 185.098 234.375C185.824 232.887 186.832 231.727 188.121 230.895C189.422 230.051 190.828 229.629 192.34 229.629C194.812 229.629 196.734 230.443 198.105 232.072C199.477 233.701 200.162 236.033 200.162 239.068V240.422H187.277C187.324 242.297 187.869 243.814 188.912 244.975C189.967 246.123 191.303 246.697 192.92 246.697C194.068 246.697 195.041 246.463 195.838 245.994C196.635 245.525 197.332 244.904 197.93 244.131L199.916 245.678C198.322 248.127 195.932 249.352 192.744 249.352ZM192.34 232.301C191.027 232.301 189.926 232.781 189.035 233.742C188.145 234.691 187.594 236.027 187.383 237.75H196.91V237.504C196.816 235.852 196.371 234.574 195.574 233.672C194.777 232.758 193.699 232.301 192.34 232.301Z" fill="white"/>
<path d="M207 229.98L207.088 232.09C208.482 230.449 210.363 229.629 212.73 229.629C215.391 229.629 217.201 230.648 218.162 232.688C218.795 231.773 219.615 231.035 220.623 230.473C221.643 229.91 222.844 229.629 224.227 229.629C228.398 229.629 230.52 231.838 230.59 236.256V249H227.338V236.449C227.338 235.09 227.027 234.076 226.406 233.408C225.785 232.729 224.742 232.389 223.277 232.389C222.07 232.389 221.068 232.752 220.271 233.479C219.475 234.193 219.012 235.16 218.883 236.379V249H215.613V236.537C215.613 233.771 214.26 232.389 211.553 232.389C209.42 232.389 207.961 233.297 207.176 235.113V249H203.924V229.98H207Z" fill="white"/>
<path d="M243.404 249.352C240.826 249.352 238.729 248.508 237.111 246.82C235.494 245.121 234.686 242.854 234.686 240.018V239.42C234.686 237.533 235.043 235.852 235.758 234.375C236.484 232.887 237.492 231.727 238.781 230.895C240.082 230.051 241.488 229.629 243 229.629C245.473 229.629 247.395 230.443 248.766 232.072C250.137 233.701 250.822 236.033 250.822 239.068V240.422H237.938C237.984 242.297 238.529 243.814 239.572 244.975C240.627 246.123 241.963 246.697 243.58 246.697C244.729 246.697 245.701 246.463 246.498 245.994C247.295 245.525 247.992 244.904 248.59 244.131L250.576 245.678C248.982 248.127 246.592 249.352 243.404 249.352ZM243 232.301C241.688 232.301 240.586 232.781 239.695 233.742C238.805 234.691 238.254 236.027 238.043 237.75H247.57V237.504C247.477 235.852 247.031 234.574 246.234 233.672C245.438 232.758 244.359 232.301 243 232.301Z" fill="white"/>
<path d="M257.678 229.98L257.783 232.371C259.236 230.543 261.135 229.629 263.479 229.629C267.498 229.629 269.525 231.896 269.561 236.432V249H266.309V236.414C266.297 235.043 265.98 234.029 265.359 233.373C264.75 232.717 263.795 232.389 262.494 232.389C261.439 232.389 260.514 232.67 259.717 233.232C258.92 233.795 258.299 234.533 257.854 235.447V249H254.602V229.98H257.678Z" fill="white"/>
<path d="M278.877 225.375V229.98H282.428V232.494H278.877V244.289C278.877 245.051 279.035 245.625 279.352 246.012C279.668 246.387 280.207 246.574 280.969 246.574C281.344 246.574 281.859 246.504 282.516 246.363V249C281.66 249.234 280.828 249.352 280.02 249.352C278.566 249.352 277.471 248.912 276.732 248.033C275.994 247.154 275.625 245.906 275.625 244.289V232.494H272.162V229.98H275.625V225.375H278.877Z" fill="white"/>
<path d="M285.029 239.314C285.029 237.451 285.393 235.775 286.119 234.287C286.857 232.799 287.877 231.65 289.178 230.842C290.49 230.033 291.984 229.629 293.66 229.629C296.25 229.629 298.342 230.525 299.936 232.318C301.541 234.111 302.344 236.496 302.344 239.473V239.701C302.344 241.553 301.986 243.217 301.271 244.693C300.568 246.158 299.555 247.301 298.23 248.121C296.918 248.941 295.406 249.352 293.695 249.352C291.117 249.352 289.025 248.455 287.42 246.662C285.826 244.869 285.029 242.496 285.029 239.543V239.314ZM288.299 239.701C288.299 241.811 288.785 243.504 289.758 244.781C290.742 246.059 292.055 246.697 293.695 246.697C295.348 246.697 296.66 246.053 297.633 244.764C298.605 243.463 299.092 241.646 299.092 239.314C299.092 237.229 298.594 235.541 297.598 234.252C296.613 232.951 295.301 232.301 293.66 232.301C292.055 232.301 290.76 232.939 289.775 234.217C288.791 235.494 288.299 237.322 288.299 239.701Z" fill="white"/>
<path d="M318.428 229.98L318.533 232.371C319.986 230.543 321.885 229.629 324.229 229.629C328.248 229.629 330.275 231.896 330.311 236.432V249H327.059V236.414C327.047 235.043 326.73 234.029 326.109 233.373C325.5 232.717 324.545 232.389 323.244 232.389C322.189 232.389 321.264 232.67 320.467 233.232C319.67 233.795 319.049 234.533 318.604 235.447V249H315.352V229.98H318.428Z" fill="white"/>
<path d="M343.107 249.352C340.529 249.352 338.432 248.508 336.814 246.82C335.197 245.121 334.389 242.854 334.389 240.018V239.42C334.389 237.533 334.746 235.852 335.461 234.375C336.188 232.887 337.195 231.727 338.484 230.895C339.785 230.051 341.191 229.629 342.703 229.629C345.176 229.629 347.098 230.443 348.469 232.072C349.84 233.701 350.525 236.033 350.525 239.068V240.422H337.641C337.688 242.297 338.232 243.814 339.275 244.975C340.33 246.123 341.666 246.697 343.283 246.697C344.432 246.697 345.404 246.463 346.201 245.994C346.998 245.525 347.695 244.904 348.293 244.131L350.279 245.678C348.686 248.127 346.295 249.352 343.107 249.352ZM342.703 232.301C341.391 232.301 340.289 232.781 339.398 233.742C338.508 234.691 337.957 236.027 337.746 237.75H347.273V237.504C347.18 235.852 346.734 234.574 345.938 233.672C345.141 232.758 344.062 232.301 342.703 232.301Z" fill="white"/>
<path d="M366.047 247.119C364.781 248.607 362.924 249.352 360.475 249.352C358.447 249.352 356.9 248.766 355.834 247.594C354.779 246.41 354.246 244.664 354.234 242.355V229.98H357.486V242.268C357.486 245.15 358.658 246.592 361.002 246.592C363.486 246.592 365.139 245.666 365.959 243.814V229.98H369.211V249H366.117L366.047 247.119Z" fill="white"/>
<path d="M378.58 225.375V229.98H382.131V232.494H378.58V244.289C378.58 245.051 378.738 245.625 379.055 246.012C379.371 246.387 379.91 246.574 380.672 246.574C381.047 246.574 381.562 246.504 382.219 246.363V249C381.363 249.234 380.531 249.352 379.723 249.352C378.27 249.352 377.174 248.912 376.436 248.033C375.697 247.154 375.328 245.906 375.328 244.289V232.494H371.865V229.98H375.328V225.375H378.58Z" fill="white"/>
<path d="M395.139 232.898C394.646 232.816 394.113 232.775 393.539 232.775C391.406 232.775 389.959 233.684 389.197 235.5V249H385.945V229.98H389.109L389.162 232.178C390.229 230.479 391.74 229.629 393.697 229.629C394.33 229.629 394.811 229.711 395.139 229.875V232.898Z" fill="white"/>
<path d="M396.932 239.314C396.932 237.451 397.295 235.775 398.021 234.287C398.76 232.799 399.779 231.65 401.08 230.842C402.393 230.033 403.887 229.629 405.562 229.629C408.152 229.629 410.244 230.525 411.838 232.318C413.443 234.111 414.246 236.496 414.246 239.473V239.701C414.246 241.553 413.889 243.217 413.174 244.693C412.471 246.158 411.457 247.301 410.133 248.121C408.82 248.941 407.309 249.352 405.598 249.352C403.02 249.352 400.928 248.455 399.322 246.662C397.729 244.869 396.932 242.496 396.932 239.543V239.314ZM400.201 239.701C400.201 241.811 400.688 243.504 401.66 244.781C402.645 246.059 403.957 246.697 405.598 246.697C407.25 246.697 408.562 246.053 409.535 244.764C410.508 243.463 410.994 241.646 410.994 239.314C410.994 237.229 410.496 235.541 409.5 234.252C408.516 232.951 407.203 232.301 405.562 232.301C403.957 232.301 402.662 232.939 401.678 234.217C400.693 235.494 400.201 237.322 400.201 239.701Z" fill="white"/>
<path d="M418.395 247.295C418.395 246.732 418.559 246.264 418.887 245.889C419.227 245.514 419.73 245.326 420.398 245.326C421.066 245.326 421.57 245.514 421.91 245.889C422.262 246.264 422.438 246.732 422.438 247.295C422.438 247.834 422.262 248.285 421.91 248.648C421.57 249.012 421.066 249.193 420.398 249.193C419.73 249.193 419.227 249.012 418.887 248.648C418.559 248.285 418.395 247.834 418.395 247.295Z" fill="white"/>
</g>
</g>
<g id="a*b=(2a*b)+(2b*a)-2(b*a)+7">
<g id="Group">
<g id="Group_2">
<path id="Vector" d="M132 166.685C132 163.655 133.14 160.775 135.42 158.045C137.7 155.315 140.265 153.935 143.115 153.905C144.645 153.905 145.995 154.64 147.165 156.11C147.645 155.21 148.335 154.76 149.235 154.76C149.625 154.76 149.97 154.88 150.27 155.12C150.57 155.36 150.72 155.66 150.72 156.02C150.72 156.41 150.165 158.81 149.055 163.22C147.945 167.63 147.375 170.12 147.345 170.69C147.345 171.44 147.45 171.935 147.66 172.175C147.87 172.415 148.185 172.55 148.605 172.58C148.875 172.55 149.175 172.415 149.505 172.175C150.135 171.575 150.75 170.135 151.35 167.855C151.53 167.255 151.68 166.94 151.8 166.91C151.86 166.88 152.01 166.865 152.25 166.865H152.43C153 166.865 153.285 167 153.285 167.27C153.285 167.45 153.21 167.855 153.06 168.485C152.91 169.115 152.61 169.925 152.16 170.915C151.71 171.905 151.23 172.655 150.72 173.165C150.33 173.555 149.85 173.87 149.28 174.11C149.04 174.17 148.68 174.2 148.2 174.2C147.18 174.2 146.325 173.975 145.635 173.525C144.945 173.075 144.495 172.61 144.285 172.13L144.015 171.455C143.985 171.425 143.925 171.44 143.835 171.5C143.775 171.56 143.715 171.62 143.655 171.68C141.885 173.36 140.085 174.2 138.255 174.2C136.605 174.2 135.15 173.6 133.89 172.4C132.63 171.2 132 169.295 132 166.685ZM146.31 158.99C146.31 158.81 146.235 158.48 146.085 158C145.935 157.52 145.59 156.995 145.05 156.425C144.51 155.855 143.82 155.555 142.98 155.525C141.93 155.525 140.925 155.99 139.965 156.92C139.005 157.85 138.255 159.065 137.715 160.565C136.845 162.935 136.23 165.395 135.87 167.945C135.87 168.035 135.87 168.2 135.87 168.44C135.87 168.68 135.855 168.86 135.825 168.98C135.825 170.33 136.095 171.26 136.635 171.77C137.175 172.28 137.82 172.55 138.57 172.58C139.71 172.58 140.835 172.085 141.945 171.095C143.055 170.105 143.715 169.34 143.925 168.8C143.985 168.68 144.39 167.075 145.14 163.985C145.89 160.895 146.28 159.23 146.31 158.99Z" fill="white"/>
</g>
<g id="Group_3">
<path id="Vector_2" d="M174.625 160.882C174.235 156.862 174.04 154.612 174.04 154.132C174.04 153.592 174.4 153.172 175.12 152.872C175.15 152.872 175.225 152.872 175.345 152.872C175.465 152.872 175.555 152.857 175.615 152.827C175.975 152.857 176.305 152.992 176.605 153.232C176.905 153.472 177.055 153.772 177.055 154.132C177.055 154.642 176.965 155.842 176.785 157.732C176.605 159.622 176.5 160.672 176.47 160.882L179.08 158.992C180.76 157.762 181.675 157.102 181.825 157.012C181.975 156.922 182.125 156.877 182.275 156.877C182.665 156.877 183.025 157.027 183.355 157.327C183.685 157.627 183.865 158.032 183.895 158.542C183.895 158.932 183.745 159.277 183.445 159.577C183.295 159.667 182.275 160.162 180.385 161.062C178.495 161.962 177.475 162.442 177.325 162.502L180.295 163.897L183.445 165.472C183.715 165.742 183.85 166.087 183.85 166.507C183.85 166.957 183.715 167.332 183.445 167.632C183.175 167.932 182.815 168.097 182.365 168.127C182.125 168.127 181.855 168.037 181.555 167.857C181.255 167.677 180.43 167.077 179.08 166.057L176.47 164.167C176.86 168.187 177.055 170.437 177.055 170.917C177.055 171.217 176.95 171.502 176.74 171.772C176.53 172.042 176.14 172.177 175.57 172.177C175 172.177 174.61 172.042 174.4 171.772C174.19 171.502 174.07 171.217 174.04 170.917C174.04 170.407 174.13 169.207 174.31 167.317C174.49 165.427 174.595 164.377 174.625 164.167L172.015 166.057C170.335 167.287 169.42 167.947 169.27 168.037C169.15 168.127 169 168.172 168.82 168.172C168.43 168.172 168.07 168.022 167.74 167.722C167.41 167.422 167.23 167.017 167.2 166.507C167.2 166.357 167.2 166.237 167.2 166.147C167.2 166.057 167.245 165.967 167.335 165.877C167.425 165.787 167.5 165.697 167.56 165.607C167.62 165.517 167.755 165.412 167.965 165.292C168.175 165.172 168.37 165.067 168.55 164.977C168.73 164.887 169.015 164.752 169.405 164.572C169.795 164.392 170.17 164.227 170.53 164.077C170.89 163.927 171.37 163.702 171.97 163.402C172.57 163.102 173.17 162.802 173.77 162.502L167.65 159.577C167.38 159.307 167.245 158.962 167.245 158.542C167.245 158.092 167.38 157.717 167.65 157.417C167.92 157.117 168.28 156.952 168.73 156.922C168.97 156.922 169.24 157.012 169.54 157.192C169.84 157.372 170.665 157.972 172.015 158.992L174.625 160.882Z" fill="white"/>
</g>
<g id="Group_4">
<path id="Vector_3" d="M200.103 144.634C200.103 144.334 200.163 143.989 200.283 143.599C200.403 143.209 200.583 143.014 200.823 143.014C200.853 143.014 201.933 142.939 204.063 142.789C206.193 142.639 207.288 142.549 207.348 142.519C207.708 142.519 207.888 142.654 207.888 142.924C207.888 143.194 207.378 145.339 206.358 149.359C206.118 150.379 205.863 151.429 205.593 152.509C205.323 153.589 205.098 154.399 204.918 154.939L204.738 155.794C204.738 155.884 204.828 155.839 205.008 155.659C206.478 154.459 207.993 153.859 209.553 153.859C211.413 153.859 212.913 154.549 214.053 155.929C215.193 157.309 215.778 159.049 215.808 161.149C215.808 164.479 214.623 167.494 212.253 170.194C209.883 172.894 207.333 174.244 204.603 174.244C203.103 174.244 201.738 173.674 200.508 172.534C199.278 171.394 198.648 169.549 198.618 166.999V166.594C198.618 165.964 198.738 165.094 198.978 163.984C199.218 162.874 199.953 159.919 201.183 155.119C202.683 149.209 203.433 146.074 203.433 145.714C203.433 145.354 202.863 145.144 201.723 145.084C201.573 145.084 201.453 145.084 201.363 145.084H201.138C200.838 145.084 200.643 145.084 200.553 145.084C200.463 145.084 200.358 145.039 200.238 144.949C200.118 144.859 200.073 144.754 200.103 144.634ZM211.938 159.124V158.854C211.938 156.634 211.023 155.524 209.193 155.524C208.683 155.524 208.158 155.644 207.618 155.884C207.078 156.124 206.583 156.439 206.133 156.829C205.683 157.219 205.293 157.579 204.963 157.909C204.633 158.239 204.363 158.569 204.153 158.899L203.883 159.259L202.938 163.129C202.278 165.709 201.948 167.539 201.948 168.619C201.948 170.059 202.308 171.139 203.028 171.859C203.508 172.339 204.108 172.579 204.828 172.579C205.818 172.579 206.823 172.099 207.843 171.139C208.593 170.449 209.193 169.609 209.643 168.619C210.093 167.629 210.588 166.054 211.128 163.894C211.668 161.734 211.938 160.144 211.938 159.124Z" fill="white"/>
</g>
<g id="Group_5">
<path id="Vector_4" d="M231.145 158.136C231.145 157.746 231.355 157.446 231.775 157.236H260.44C260.89 157.476 261.115 157.776 261.115 158.136C261.115 158.466 260.905 158.751 260.485 158.991L246.175 159.036H231.865C231.385 158.886 231.145 158.586 231.145 158.136ZM231.145 166.866C231.145 166.416 231.385 166.116 231.865 165.966H260.485C260.905 166.266 261.115 166.566 261.115 166.866C261.115 167.256 260.89 167.556 260.44 167.766H231.775C231.355 167.556 231.145 167.256 231.145 166.866Z" fill="white"/>
</g>
<g id="Group_6">
<path id="Vector_5" d="M280.365 162.5C280.365 160.43 280.515 158.465 280.815 156.605C281.115 154.745 281.46 153.14 281.85 151.79C282.24 150.44 282.795 149.12 283.515 147.83C284.235 146.54 284.805 145.535 285.225 144.815C285.645 144.095 286.275 143.315 287.115 142.475C287.955 141.635 288.45 141.125 288.6 140.945C288.75 140.765 289.125 140.45 289.725 140H290.31H290.49C290.91 140 291.12 140.135 291.12 140.405C291.12 140.495 290.865 140.81 290.355 141.35C289.845 141.89 289.23 142.685 288.51 143.735C287.79 144.785 287.055 146.075 286.305 147.605C285.555 149.135 284.925 151.205 284.415 153.815C283.905 156.425 283.65 159.32 283.65 162.5C283.65 165.68 283.905 168.56 284.415 171.14C284.925 173.72 285.54 175.805 286.26 177.395C286.98 178.985 287.715 180.275 288.465 181.265C289.215 182.255 289.845 183.05 290.355 183.65C290.865 184.25 291.12 184.565 291.12 184.595C291.12 184.865 290.895 185 290.445 185H290.31H289.725L288.465 183.92C285.645 181.37 283.59 178.19 282.3 174.38C281.01 170.57 280.365 166.61 280.365 162.5Z" fill="white"/>
</g>
<g id="Group_7">
<path id="Vector_6" d="M298.545 154.446C297.735 154.446 297.09 154.176 296.61 153.636C296.13 153.096 295.89 152.436 295.89 151.656C295.89 149.526 296.685 147.681 298.275 146.121C299.865 144.561 301.845 143.781 304.215 143.781C306.945 143.781 309.225 144.621 311.055 146.301C312.885 147.981 313.815 150.156 313.845 152.826C313.845 154.116 313.545 155.346 312.945 156.516C312.345 157.686 311.625 158.706 310.785 159.576C309.945 160.446 308.745 161.556 307.185 162.906C306.105 163.836 304.605 165.216 302.685 167.046L300.03 169.566L303.45 169.611C308.16 169.611 310.665 169.536 310.965 169.386C311.175 169.326 311.535 167.991 312.045 165.381V165.246H313.845V165.381C313.815 165.471 313.62 166.836 313.26 169.476C312.9 172.116 312.675 173.496 312.585 173.616V173.751H295.89V172.896V172.356C295.89 172.146 295.98 171.921 296.16 171.681C296.34 171.441 296.79 170.916 297.51 170.106C298.38 169.146 299.13 168.306 299.76 167.586C300.03 167.286 300.54 166.731 301.29 165.921C302.04 165.111 302.55 164.556 302.82 164.256C303.09 163.956 303.525 163.461 304.125 162.771C304.725 162.081 305.145 161.571 305.385 161.241C305.625 160.911 305.97 160.461 306.42 159.891C306.87 159.321 307.185 158.841 307.365 158.451C307.545 158.061 307.77 157.626 308.04 157.146C308.31 156.666 308.505 156.186 308.625 155.706C308.745 155.226 308.85 154.776 308.94 154.356C309.03 153.936 309.075 153.441 309.075 152.871C309.075 150.981 308.565 149.346 307.545 147.966C306.525 146.586 305.07 145.896 303.18 145.896C302.19 145.896 301.32 146.151 300.57 146.661C299.82 147.171 299.295 147.666 298.995 148.146C298.695 148.626 298.545 148.911 298.545 149.001C298.545 149.031 298.62 149.046 298.77 149.046C299.31 149.046 299.865 149.256 300.435 149.676C301.005 150.096 301.29 150.786 301.29 151.746C301.29 152.496 301.05 153.126 300.57 153.636C300.09 154.146 299.415 154.416 298.545 154.446Z" fill="white"/>
</g>
<g id="Group_8">
<path id="Vector_7" d="M317.625 166.685C317.625 163.655 318.765 160.775 321.045 158.045C323.325 155.315 325.89 153.935 328.74 153.905C330.27 153.905 331.62 154.64 332.79 156.11C333.27 155.21 333.96 154.76 334.86 154.76C335.25 154.76 335.595 154.88 335.895 155.12C336.195 155.36 336.345 155.66 336.345 156.02C336.345 156.41 335.79 158.81 334.68 163.22C333.57 167.63 333 170.12 332.97 170.69C332.97 171.44 333.075 171.935 333.285 172.175C333.495 172.415 333.81 172.55 334.23 172.58C334.5 172.55 334.8 172.415 335.13 172.175C335.76 171.575 336.375 170.135 336.975 167.855C337.155 167.255 337.305 166.94 337.425 166.91C337.485 166.88 337.635 166.865 337.875 166.865H338.055C338.625 166.865 338.91 167 338.91 167.27C338.91 167.45 338.835 167.855 338.685 168.485C338.535 169.115 338.235 169.925 337.785 170.915C337.335 171.905 336.855 172.655 336.345 173.165C335.955 173.555 335.475 173.87 334.905 174.11C334.665 174.17 334.305 174.2 333.825 174.2C332.805 174.2 331.95 173.975 331.26 173.525C330.57 173.075 330.12 172.61 329.91 172.13L329.64 171.455C329.61 171.425 329.55 171.44 329.46 171.5C329.4 171.56 329.34 171.62 329.28 171.68C327.51 173.36 325.71 174.2 323.88 174.2C322.23 174.2 320.775 173.6 319.515 172.4C318.255 171.2 317.625 169.295 317.625 166.685ZM331.935 158.99C331.935 158.81 331.86 158.48 331.71 158C331.56 157.52 331.215 156.995 330.675 156.425C330.135 155.855 329.445 155.555 328.605 155.525C327.555 155.525 326.55 155.99 325.59 156.92C324.63 157.85 323.88 159.065 323.34 160.565C322.47 162.935 321.855 165.395 321.495 167.945C321.495 168.035 321.495 168.2 321.495 168.44C321.495 168.68 321.48 168.86 321.45 168.98C321.45 170.33 321.72 171.26 322.26 171.77C322.8 172.28 323.445 172.55 324.195 172.58C325.335 172.58 326.46 172.085 327.57 171.095C328.68 170.105 329.34 169.34 329.55 168.8C329.61 168.68 330.015 167.075 330.765 163.985C331.515 160.895 331.905 159.23 331.935 158.99Z" fill="white"/>
</g>
<g id="Group_9">
<path id="Vector_8" d="M360.25 160.882C359.86 156.862 359.665 154.612 359.665 154.132C359.665 153.592 360.025 153.172 360.745 152.872C360.775 152.872 360.85 152.872 360.97 152.872C361.09 152.872 361.18 152.857 361.24 152.827C361.6 152.857 361.93 152.992 362.23 153.232C362.53 153.472 362.68 153.772 362.68 154.132C362.68 154.642 362.59 155.842 362.41 157.732C362.23 159.622 362.125 160.672 362.095 160.882L364.705 158.992C366.385 157.762 367.3 157.102 367.45 157.012C367.6 156.922 367.75 156.877 367.9 156.877C368.29 156.877 368.65 157.027 368.98 157.327C369.31 157.627 369.49 158.032 369.52 158.542C369.52 158.932 369.37 159.277 369.07 159.577C368.92 159.667 367.9 160.162 366.01 161.062C364.12 161.962 363.1 162.442 362.95 162.502L365.92 163.897L369.07 165.472C369.34 165.742 369.475 166.087 369.475 166.507C369.475 166.957 369.34 167.332 369.07 167.632C368.8 167.932 368.44 168.097 367.99 168.127C367.75 168.127 367.48 168.037 367.18 167.857C366.88 167.677 366.055 167.077 364.705 166.057L362.095 164.167C362.485 168.187 362.68 170.437 362.68 170.917C362.68 171.217 362.575 171.502 362.365 171.772C362.155 172.042 361.765 172.177 361.195 172.177C360.625 172.177 360.235 172.042 360.025 171.772C359.815 171.502 359.695 171.217 359.665 170.917C359.665 170.407 359.755 169.207 359.935 167.317C360.115 165.427 360.22 164.377 360.25 164.167L357.64 166.057C355.96 167.287 355.045 167.947 354.895 168.037C354.775 168.127 354.625 168.172 354.445 168.172C354.055 168.172 353.695 168.022 353.365 167.722C353.035 167.422 352.855 167.017 352.825 166.507C352.825 166.357 352.825 166.237 352.825 166.147C352.825 166.057 352.87 165.967 352.96 165.877C353.05 165.787 353.125 165.697 353.185 165.607C353.245 165.517 353.38 165.412 353.59 165.292C353.8 165.172 353.995 165.067 354.175 164.977C354.355 164.887 354.64 164.752 355.03 164.572C355.42 164.392 355.795 164.227 356.155 164.077C356.515 163.927 356.995 163.702 357.595 163.402C358.195 163.102 358.795 162.802 359.395 162.502L353.275 159.577C353.005 159.307 352.87 158.962 352.87 158.542C352.87 158.092 353.005 157.717 353.275 157.417C353.545 157.117 353.905 156.952 354.355 156.922C354.595 156.922 354.865 157.012 355.165 157.192C355.465 157.372 356.29 157.972 357.64 158.992L360.25 160.882Z" fill="white"/>
</g>
<g id="Group_10">
<path id="Vector_9" d="M385.728 144.634C385.728 144.334 385.788 143.989 385.908 143.599C386.028 143.209 386.208 143.014 386.448 143.014C386.478 143.014 387.558 142.939 389.688 142.789C391.818 142.639 392.913 142.549 392.973 142.519C393.333 142.519 393.513 142.654 393.513 142.924C393.513 143.194 393.003 145.339 391.983 149.359C391.743 150.379 391.488 151.429 391.218 152.509C390.948 153.589 390.723 154.399 390.543 154.939L390.363 155.794C390.363 155.884 390.453 155.839 390.633 155.659C392.103 154.459 393.618 153.859 395.178 153.859C397.038 153.859 398.538 154.549 399.678 155.929C400.818 157.309 401.403 159.049 401.433 161.149C401.433 164.479 400.248 167.494 397.878 170.194C395.508 172.894 392.958 174.244 390.228 174.244C388.728 174.244 387.363 173.674 386.133 172.534C384.903 171.394 384.273 169.549 384.243 166.999V166.594C384.243 165.964 384.363 165.094 384.603 163.984C384.843 162.874 385.578 159.919 386.808 155.119C388.308 149.209 389.058 146.074 389.058 145.714C389.058 145.354 388.488 145.144 387.348 145.084C387.198 145.084 387.078 145.084 386.988 145.084H386.763C386.463 145.084 386.268 145.084 386.178 145.084C386.088 145.084 385.983 145.039 385.863 144.949C385.743 144.859 385.698 144.754 385.728 144.634ZM397.563 159.124V158.854C397.563 156.634 396.648 155.524 394.818 155.524C394.308 155.524 393.783 155.644 393.243 155.884C392.703 156.124 392.208 156.439 391.758 156.829C391.308 157.219 390.918 157.579 390.588 157.909C390.258 158.239 389.988 158.569 389.778 158.899L389.508 159.259L388.563 163.129C387.903 165.709 387.573 167.539 387.573 168.619C387.573 170.059 387.933 171.139 388.653 171.859C389.133 172.339 389.733 172.579 390.453 172.579C391.443 172.579 392.448 172.099 393.468 171.139C394.218 170.449 394.818 169.609 395.268 168.619C395.718 167.629 396.213 166.054 396.753 163.894C397.293 161.734 397.563 160.144 397.563 159.124Z" fill="white"/>
</g>
<g id="Group_11">
<path id="Vector_10" d="M404.448 140.045L404.628 140C404.778 140 404.928 140 405.078 140H405.618L406.878 141.08C409.698 143.63 411.753 146.81 413.043 150.62C414.333 154.43 414.978 158.39 414.978 162.5C414.978 164.54 414.828 166.505 414.528 168.395C414.228 170.285 413.883 171.89 413.493 173.21C413.103 174.53 412.548 175.85 411.828 177.17C411.108 178.49 410.538 179.495 410.118 180.185C409.698 180.875 409.083 181.64 408.273 182.48C407.463 183.32 406.983 183.815 406.833 183.965C406.683 184.115 406.338 184.4 405.798 184.82C405.708 184.91 405.648 184.97 405.618 185H405.078C404.838 185 404.673 185 404.583 185C404.493 185 404.418 184.955 404.358 184.865C404.298 184.775 404.253 184.64 404.223 184.46C404.253 184.43 404.418 184.235 404.718 183.875C409.368 179.045 411.693 171.92 411.693 162.5C411.693 153.08 409.368 145.955 404.718 141.125C404.418 140.765 404.253 140.57 404.223 140.54C404.223 140.3 404.298 140.135 404.448 140.045Z" fill="white"/>
</g>
<g id="Group_12">
<path id="Vector_11" d="M431.776 163.086C431.776 163.086 431.776 162.891 431.776 162.501C431.776 162.111 431.986 161.811 432.406 161.601H445.861V154.851L445.906 148.101C446.206 147.711 446.491 147.516 446.761 147.516C447.151 147.516 447.451 147.741 447.661 148.191V161.601H461.071C461.521 161.841 461.746 162.141 461.746 162.501C461.746 162.861 461.521 163.161 461.071 163.401H447.661V176.811C447.421 177.231 447.151 177.441 446.851 177.441H446.761H446.671C446.311 177.441 446.041 177.231 445.861 176.811V163.401H432.406C431.986 163.191 431.776 162.891 431.776 162.501V163.086Z" fill="white"/>
</g>
<g id="Group_13">
<path id="Vector_12" d="M478.497 162.5C478.497 160.43 478.647 158.465 478.947 156.605C479.247 154.745 479.592 153.14 479.982 151.79C480.372 150.44 480.927 149.12 481.647 147.83C482.367 146.54 482.937 145.535 483.357 144.815C483.777 144.095 484.407 143.315 485.247 142.475C486.087 141.635 486.582 141.125 486.732 140.945C486.882 140.765 487.257 140.45 487.857 140H488.442H488.622C489.042 140 489.252 140.135 489.252 140.405C489.252 140.495 488.997 140.81 488.487 141.35C487.977 141.89 487.362 142.685 486.642 143.735C485.922 144.785 485.187 146.075 484.437 147.605C483.687 149.135 483.057 151.205 482.547 153.815C482.037 156.425 481.782 159.32 481.782 162.5C481.782 165.68 482.037 168.56 482.547 171.14C483.057 173.72 483.672 175.805 484.392 177.395C485.112 178.985 485.847 180.275 486.597 181.265C487.347 182.255 487.977 183.05 488.487 183.65C488.997 184.25 489.252 184.565 489.252 184.595C489.252 184.865 489.027 185 488.577 185H488.442H487.857L486.597 183.92C483.777 181.37 481.722 178.19 480.432 174.38C479.142 170.57 478.497 166.61 478.497 162.5Z" fill="white"/>
</g>
<g id="Group_14">
<path id="Vector_13" d="M496.676 154.446C495.866 154.446 495.221 154.176 494.741 153.636C494.261 153.096 494.021 152.436 494.021 151.656C494.021 149.526 494.816 147.681 496.406 146.121C497.996 144.561 499.976 143.781 502.346 143.781C505.076 143.781 507.356 144.621 509.186 146.301C511.016 147.981 511.946 150.156 511.976 152.826C511.976 154.116 511.676 155.346 511.076 156.516C510.476 157.686 509.756 158.706 508.916 159.576C508.076 160.446 506.876 161.556 505.316 162.906C504.236 163.836 502.736 165.216 500.816 167.046L498.161 169.566L501.581 169.611C506.291 169.611 508.796 169.536 509.096 169.386C509.306 169.326 509.666 167.991 510.176 165.381V165.246H511.976V165.381C511.946 165.471 511.751 166.836 511.391 169.476C511.031 172.116 510.806 173.496 510.716 173.616V173.751H494.021V172.896V172.356C494.021 172.146 494.111 171.921 494.291 171.681C494.471 171.441 494.921 170.916 495.641 170.106C496.511 169.146 497.261 168.306 497.891 167.586C498.161 167.286 498.671 166.731 499.421 165.921C500.171 165.111 500.681 164.556 500.951 164.256C501.221 163.956 501.656 163.461 502.256 162.771C502.856 162.081 503.276 161.571 503.516 161.241C503.756 160.911 504.101 160.461 504.551 159.891C505.001 159.321 505.316 158.841 505.496 158.451C505.676 158.061 505.901 157.626 506.171 157.146C506.441 156.666 506.636 156.186 506.756 155.706C506.876 155.226 506.981 154.776 507.071 154.356C507.161 153.936 507.206 153.441 507.206 152.871C507.206 150.981 506.696 149.346 505.676 147.966C504.656 146.586 503.201 145.896 501.311 145.896C500.321 145.896 499.451 146.151 498.701 146.661C497.951 147.171 497.426 147.666 497.126 148.146C496.826 148.626 496.676 148.911 496.676 149.001C496.676 149.031 496.751 149.046 496.901 149.046C497.441 149.046 497.996 149.256 498.566 149.676C499.136 150.096 499.421 150.786 499.421 151.746C499.421 152.496 499.181 153.126 498.701 153.636C498.221 154.146 497.546 154.416 496.676 154.446Z" fill="white"/>
</g>
<g id="Group_15">
<path id="Vector_14" d="M517.555 144.634C517.555 144.334 517.615 143.989 517.735 143.599C517.855 143.209 518.035 143.014 518.275 143.014C518.305 143.014 519.385 142.939 521.515 142.789C523.645 142.639 524.74 142.549 524.8 142.519C525.16 142.519 525.34 142.654 525.34 142.924C525.34 143.194 524.83 145.339 523.81 149.359C523.57 150.379 523.315 151.429 523.045 152.509C522.775 153.589 522.55 154.399 522.37 154.939L522.19 155.794C522.19 155.884 522.28 155.839 522.46 155.659C523.93 154.459 525.445 153.859 527.005 153.859C528.865 153.859 530.365 154.549 531.505 155.929C532.645 157.309 533.23 159.049 533.26 161.149C533.26 164.479 532.075 167.494 529.705 170.194C527.335 172.894 524.785 174.244 522.055 174.244C520.555 174.244 519.19 173.674 517.96 172.534C516.73 171.394 516.1 169.549 516.07 166.999V166.594C516.07 165.964 516.19 165.094 516.43 163.984C516.67 162.874 517.405 159.919 518.635 155.119C520.135 149.209 520.885 146.074 520.885 145.714C520.885 145.354 520.315 145.144 519.175 145.084C519.025 145.084 518.905 145.084 518.815 145.084H518.59C518.29 145.084 518.095 145.084 518.005 145.084C517.915 145.084 517.81 145.039 517.69 144.949C517.57 144.859 517.525 144.754 517.555 144.634ZM529.39 159.124V158.854C529.39 156.634 528.475 155.524 526.645 155.524C526.135 155.524 525.61 155.644 525.07 155.884C524.53 156.124 524.035 156.439 523.585 156.829C523.135 157.219 522.745 157.579 522.415 157.909C522.085 158.239 521.815 158.569 521.605 158.899L521.335 159.259L520.39 163.129C519.73 165.709 519.4 167.539 519.4 168.619C519.4 170.059 519.76 171.139 520.48 171.859C520.96 172.339 521.56 172.579 522.28 172.579C523.27 172.579 524.275 172.099 525.295 171.139C526.045 170.449 526.645 169.609 527.095 168.619C527.545 167.629 528.04 166.054 528.58 163.894C529.12 161.734 529.39 160.144 529.39 159.124Z" fill="white"/>
</g>
<g id="Group_16">
<path id="Vector_15" d="M553.88 160.882C553.49 156.862 553.295 154.612 553.295 154.132C553.295 153.592 553.655 153.172 554.375 152.872C554.405 152.872 554.48 152.872 554.6 152.872C554.72 152.872 554.81 152.857 554.87 152.827C555.23 152.857 555.56 152.992 555.86 153.232C556.16 153.472 556.31 153.772 556.31 154.132C556.31 154.642 556.22 155.842 556.04 157.732C555.86 159.622 555.755 160.672 555.725 160.882L558.335 158.992C560.015 157.762 560.93 157.102 561.08 157.012C561.23 156.922 561.38 156.877 561.53 156.877C561.92 156.877 562.28 157.027 562.61 157.327C562.94 157.627 563.12 158.032 563.15 158.542C563.15 158.932 563 159.277 562.7 159.577C562.55 159.667 561.53 160.162 559.64 161.062C557.75 161.962 556.73 162.442 556.58 162.502L559.55 163.897L562.7 165.472C562.97 165.742 563.105 166.087 563.105 166.507C563.105 166.957 562.97 167.332 562.7 167.632C562.43 167.932 562.07 168.097 561.62 168.127C561.38 168.127 561.11 168.037 560.81 167.857C560.51 167.677 559.685 167.077 558.335 166.057L555.725 164.167C556.115 168.187 556.31 170.437 556.31 170.917C556.31 171.217 556.205 171.502 555.995 171.772C555.785 172.042 555.395 172.177 554.825 172.177C554.255 172.177 553.865 172.042 553.655 171.772C553.445 171.502 553.325 171.217 553.295 170.917C553.295 170.407 553.385 169.207 553.565 167.317C553.745 165.427 553.85 164.377 553.88 164.167L551.27 166.057C549.59 167.287 548.675 167.947 548.525 168.037C548.405 168.127 548.255 168.172 548.075 168.172C547.685 168.172 547.325 168.022 546.995 167.722C546.665 167.422 546.485 167.017 546.455 166.507C546.455 166.357 546.455 166.237 546.455 166.147C546.455 166.057 546.5 165.967 546.59 165.877C546.68 165.787 546.755 165.697 546.815 165.607C546.875 165.517 547.01 165.412 547.22 165.292C547.43 165.172 547.625 165.067 547.805 164.977C547.985 164.887 548.27 164.752 548.66 164.572C549.05 164.392 549.425 164.227 549.785 164.077C550.145 163.927 550.625 163.702 551.225 163.402C551.825 163.102 552.425 162.802 553.025 162.502L546.905 159.577C546.635 159.307 546.5 158.962 546.5 158.542C546.5 158.092 546.635 157.717 546.905 157.417C547.175 157.117 547.535 156.952 547.985 156.922C548.225 156.922 548.495 157.012 548.795 157.192C549.095 157.372 549.92 157.972 551.27 158.992L553.88 160.882Z" fill="white"/>
</g>
<g id="Group_17">
<path id="Vector_16" d="M577.559 166.685C577.559 163.655 578.699 160.775 580.979 158.045C583.259 155.315 585.824 153.935 588.674 153.905C590.204 153.905 591.554 154.64 592.724 156.11C593.204 155.21 593.894 154.76 594.794 154.76C595.184 154.76 595.529 154.88 595.829 155.12C596.129 155.36 596.279 155.66 596.279 156.02C596.279 156.41 595.724 158.81 594.614 163.22C593.504 167.63 592.934 170.12 592.904 170.69C592.904 171.44 593.009 171.935 593.219 172.175C593.429 172.415 593.744 172.55 594.164 172.58C594.434 172.55 594.734 172.415 595.064 172.175C595.694 171.575 596.309 170.135 596.909 167.855C597.089 167.255 597.239 166.94 597.359 166.91C597.419 166.88 597.569 166.865 597.809 166.865H597.989C598.559 166.865 598.844 167 598.844 167.27C598.844 167.45 598.769 167.855 598.619 168.485C598.469 169.115 598.169 169.925 597.719 170.915C597.269 171.905 596.789 172.655 596.279 173.165C595.889 173.555 595.409 173.87 594.839 174.11C594.599 174.17 594.239 174.2 593.759 174.2C592.739 174.2 591.884 173.975 591.194 173.525C590.504 173.075 590.054 172.61 589.844 172.13L589.574 171.455C589.544 171.425 589.484 171.44 589.394 171.5C589.334 171.56 589.274 171.62 589.214 171.68C587.444 173.36 585.644 174.2 583.814 174.2C582.164 174.2 580.709 173.6 579.449 172.4C578.189 171.2 577.559 169.295 577.559 166.685ZM591.869 158.99C591.869 158.81 591.794 158.48 591.644 158C591.494 157.52 591.149 156.995 590.609 156.425C590.069 155.855 589.379 155.555 588.539 155.525C587.489 155.525 586.484 155.99 585.524 156.92C584.564 157.85 583.814 159.065 583.274 160.565C582.404 162.935 581.789 165.395 581.429 167.945C581.429 168.035 581.429 168.2 581.429 168.44C581.429 168.68 581.414 168.86 581.384 168.98C581.384 170.33 581.654 171.26 582.194 171.77C582.734 172.28 583.379 172.55 584.129 172.58C585.269 172.58 586.394 172.085 587.504 171.095C588.614 170.105 589.274 169.34 589.484 168.8C589.544 168.68 589.949 167.075 590.699 163.985C591.449 160.895 591.839 159.23 591.869 158.99Z" fill="white"/>
</g>
<g id="Group_18">
<path id="Vector_17" d="M602.579 140.045L602.759 140C602.909 140 603.059 140 603.209 140H603.749L605.009 141.08C607.829 143.63 609.884 146.81 611.174 150.62C612.464 154.43 613.109 158.39 613.109 162.5C613.109 164.54 612.959 166.505 612.659 168.395C612.359 170.285 612.014 171.89 611.624 173.21C611.234 174.53 610.679 175.85 609.959 177.17C609.239 178.49 608.669 179.495 608.249 180.185C607.829 180.875 607.214 181.64 606.404 182.48C605.594 183.32 605.114 183.815 604.964 183.965C604.814 184.115 604.469 184.4 603.929 184.82C603.839 184.91 603.779 184.97 603.749 185H603.209C602.969 185 602.804 185 602.714 185C602.624 185 602.549 184.955 602.489 184.865C602.429 184.775 602.384 184.64 602.354 184.46C602.384 184.43 602.549 184.235 602.849 183.875C607.499 179.045 609.824 171.92 609.824 162.5C609.824 153.08 607.499 145.955 602.849 141.125C602.549 140.765 602.384 140.57 602.354 140.54C602.354 140.3 602.429 140.135 602.579 140.045Z" fill="white"/>
</g>
<g id="Group_19">
<path id="Vector_18" d="M631.166 163.084C631.166 163.084 631.166 162.889 631.166 162.499C631.166 162.109 631.376 161.809 631.796 161.599H657.941C658.391 161.839 658.616 162.139 658.616 162.499C658.616 162.859 658.391 163.159 657.941 163.399H631.796C631.376 163.189 631.166 162.889 631.166 162.499V163.084Z" fill="white"/>
</g>
<g id="Group_20">
<path id="Vector_19" d="M677.3 154.446C676.49 154.446 675.845 154.176 675.365 153.636C674.885 153.096 674.645 152.436 674.645 151.656C674.645 149.526 675.44 147.681 677.03 146.121C678.62 144.561 680.6 143.781 682.97 143.781C685.7 143.781 687.98 144.621 689.81 146.301C691.64 147.981 692.57 150.156 692.6 152.826C692.6 154.116 692.3 155.346 691.7 156.516C691.1 157.686 690.38 158.706 689.54 159.576C688.7 160.446 687.5 161.556 685.94 162.906C684.86 163.836 683.36 165.216 681.44 167.046L678.785 169.566L682.205 169.611C686.915 169.611 689.42 169.536 689.72 169.386C689.93 169.326 690.29 167.991 690.8 165.381V165.246H692.6V165.381C692.57 165.471 692.375 166.836 692.015 169.476C691.655 172.116 691.43 173.496 691.34 173.616V173.751H674.645V172.896V172.356C674.645 172.146 674.735 171.921 674.915 171.681C675.095 171.441 675.545 170.916 676.265 170.106C677.135 169.146 677.885 168.306 678.515 167.586C678.785 167.286 679.295 166.731 680.045 165.921C680.795 165.111 681.305 164.556 681.575 164.256C681.845 163.956 682.28 163.461 682.88 162.771C683.48 162.081 683.9 161.571 684.14 161.241C684.38 160.911 684.725 160.461 685.175 159.891C685.625 159.321 685.94 158.841 686.12 158.451C686.3 158.061 686.525 157.626 686.795 157.146C687.065 156.666 687.26 156.186 687.38 155.706C687.5 155.226 687.605 154.776 687.695 154.356C687.785 153.936 687.83 153.441 687.83 152.871C687.83 150.981 687.32 149.346 686.3 147.966C685.28 146.586 683.825 145.896 681.935 145.896C680.945 145.896 680.075 146.151 679.325 146.661C678.575 147.171 678.05 147.666 677.75 148.146C677.45 148.626 677.3 148.911 677.3 149.001C677.3 149.031 677.375 149.046 677.525 149.046C678.065 149.046 678.62 149.256 679.19 149.676C679.76 150.096 680.045 150.786 680.045 151.746C680.045 152.496 679.805 153.126 679.325 153.636C678.845 154.146 678.17 154.416 677.3 154.446Z" fill="white"/>
</g>
<g id="Group_21">
<path id="Vector_20" d="M699.126 162.5C699.126 160.43 699.276 158.465 699.576 156.605C699.876 154.745 700.221 153.14 700.611 151.79C701.001 150.44 701.556 149.12 702.276 147.83C702.996 146.54 703.566 145.535 703.986 144.815C704.406 144.095 705.036 143.315 705.876 142.475C706.716 141.635 707.211 141.125 707.361 140.945C707.511 140.765 707.886 140.45 708.486 140H709.071H709.251C709.671 140 709.881 140.135 709.881 140.405C709.881 140.495 709.626 140.81 709.116 141.35C708.606 141.89 707.991 142.685 707.271 143.735C706.551 144.785 705.816 146.075 705.066 147.605C704.316 149.135 703.686 151.205 703.176 153.815C702.666 156.425 702.411 159.32 702.411 162.5C702.411 165.68 702.666 168.56 703.176 171.14C703.686 173.72 704.301 175.805 705.021 177.395C705.741 178.985 706.476 180.275 707.226 181.265C707.976 182.255 708.606 183.05 709.116 183.65C709.626 184.25 709.881 184.565 709.881 184.595C709.881 184.865 709.656 185 709.206 185H709.071H708.486L707.226 183.92C704.406 181.37 702.351 178.19 701.061 174.38C699.771 170.57 699.126 166.61 699.126 162.5Z" fill="white"/>
</g>
<g id="Group_22">
<path id="Vector_21" d="M715.687 144.634C715.687 144.334 715.747 143.989 715.867 143.599C715.987 143.209 716.167 143.014 716.407 143.014C716.437 143.014 717.517 142.939 719.647 142.789C721.777 142.639 722.872 142.549 722.932 142.519C723.292 142.519 723.472 142.654 723.472 142.924C723.472 143.194 722.962 145.339 721.942 149.359C721.702 150.379 721.447 151.429 721.177 152.509C720.907 153.589 720.682 154.399 720.502 154.939L720.322 155.794C720.322 155.884 720.412 155.839 720.592 155.659C722.062 154.459 723.577 153.859 725.137 153.859C726.997 153.859 728.497 154.549 729.637 155.929C730.777 157.309 731.362 159.049 731.392 161.149C731.392 164.479 730.207 167.494 727.837 170.194C725.467 172.894 722.917 174.244 720.187 174.244C718.687 174.244 717.322 173.674 716.092 172.534C714.862 171.394 714.232 169.549 714.202 166.999V166.594C714.202 165.964 714.322 165.094 714.562 163.984C714.802 162.874 715.537 159.919 716.767 155.119C718.267 149.209 719.017 146.074 719.017 145.714C719.017 145.354 718.447 145.144 717.307 145.084C717.157 145.084 717.037 145.084 716.947 145.084H716.722C716.422 145.084 716.227 145.084 716.137 145.084C716.047 145.084 715.942 145.039 715.822 144.949C715.702 144.859 715.657 144.754 715.687 144.634ZM727.522 159.124V158.854C727.522 156.634 726.607 155.524 724.777 155.524C724.267 155.524 723.742 155.644 723.202 155.884C722.662 156.124 722.167 156.439 721.717 156.829C721.267 157.219 720.877 157.579 720.547 157.909C720.217 158.239 719.947 158.569 719.737 158.899L719.467 159.259L718.522 163.129C717.862 165.709 717.532 167.539 717.532 168.619C717.532 170.059 717.892 171.139 718.612 171.859C719.092 172.339 719.692 172.579 720.412 172.579C721.402 172.579 722.407 172.099 723.427 171.139C724.177 170.449 724.777 169.609 725.227 168.619C725.677 167.629 726.172 166.054 726.712 163.894C727.252 161.734 727.522 160.144 727.522 159.124Z" fill="white"/>
</g>
<g id="Group_23">
<path id="Vector_22" d="M752.009 160.882C751.619 156.862 751.424 154.612 751.424 154.132C751.424 153.592 751.784 153.172 752.504 152.872C752.534 152.872 752.609 152.872 752.729 152.872C752.849 152.872 752.939 152.857 752.999 152.827C753.359 152.857 753.689 152.992 753.989 153.232C754.289 153.472 754.439 153.772 754.439 154.132C754.439 154.642 754.349 155.842 754.169 157.732C753.989 159.622 753.884 160.672 753.854 160.882L756.464 158.992C758.144 157.762 759.059 157.102 759.209 157.012C759.359 156.922 759.509 156.877 759.659 156.877C760.049 156.877 760.409 157.027 760.739 157.327C761.069 157.627 761.249 158.032 761.279 158.542C761.279 158.932 761.129 159.277 760.829 159.577C760.679 159.667 759.659 160.162 757.769 161.062C755.879 161.962 754.859 162.442 754.709 162.502L757.679 163.897L760.829 165.472C761.099 165.742 761.234 166.087 761.234 166.507C761.234 166.957 761.099 167.332 760.829 167.632C760.559 167.932 760.199 168.097 759.749 168.127C759.509 168.127 759.239 168.037 758.939 167.857C758.639 167.677 757.814 167.077 756.464 166.057L753.854 164.167C754.244 168.187 754.439 170.437 754.439 170.917C754.439 171.217 754.334 171.502 754.124 171.772C753.914 172.042 753.524 172.177 752.954 172.177C752.384 172.177 751.994 172.042 751.784 171.772C751.574 171.502 751.454 171.217 751.424 170.917C751.424 170.407 751.514 169.207 751.694 167.317C751.874 165.427 751.979 164.377 752.009 164.167L749.399 166.057C747.719 167.287 746.804 167.947 746.654 168.037C746.534 168.127 746.384 168.172 746.204 168.172C745.814 168.172 745.454 168.022 745.124 167.722C744.794 167.422 744.614 167.017 744.584 166.507C744.584 166.357 744.584 166.237 744.584 166.147C744.584 166.057 744.629 165.967 744.719 165.877C744.809 165.787 744.884 165.697 744.944 165.607C745.004 165.517 745.139 165.412 745.349 165.292C745.559 165.172 745.754 165.067 745.934 164.977C746.114 164.887 746.399 164.752 746.789 164.572C747.179 164.392 747.554 164.227 747.914 164.077C748.274 163.927 748.754 163.702 749.354 163.402C749.954 163.102 750.554 162.802 751.154 162.502L745.034 159.577C744.764 159.307 744.629 158.962 744.629 158.542C744.629 158.092 744.764 157.717 745.034 157.417C745.304 157.117 745.664 156.952 746.114 156.922C746.354 156.922 746.624 157.012 746.924 157.192C747.224 157.372 748.049 157.972 749.399 158.992L752.009 160.882Z" fill="white"/>
</g>
<g id="Group_24">
<path id="Vector_23" d="M775.688 166.685C775.688 163.655 776.828 160.775 779.108 158.045C781.388 155.315 783.953 153.935 786.803 153.905C788.333 153.905 789.683 154.64 790.853 156.11C791.333 155.21 792.023 154.76 792.923 154.76C793.313 154.76 793.658 154.88 793.958 155.12C794.258 155.36 794.408 155.66 794.408 156.02C794.408 156.41 793.853 158.81 792.743 163.22C791.633 167.63 791.063 170.12 791.033 170.69C791.033 171.44 791.138 171.935 791.348 172.175C791.558 172.415 791.873 172.55 792.293 172.58C792.563 172.55 792.863 172.415 793.193 172.175C793.823 171.575 794.438 170.135 795.038 167.855C795.218 167.255 795.368 166.94 795.488 166.91C795.548 166.88 795.698 166.865 795.938 166.865H796.118C796.688 166.865 796.973 167 796.973 167.27C796.973 167.45 796.898 167.855 796.748 168.485C796.598 169.115 796.298 169.925 795.848 170.915C795.398 171.905 794.918 172.655 794.408 173.165C794.018 173.555 793.538 173.87 792.968 174.11C792.728 174.17 792.368 174.2 791.888 174.2C790.868 174.2 790.013 173.975 789.323 173.525C788.633 173.075 788.183 172.61 787.973 172.13L787.703 171.455C787.673 171.425 787.613 171.44 787.523 171.5C787.463 171.56 787.403 171.62 787.343 171.68C785.573 173.36 783.773 174.2 781.943 174.2C780.293 174.2 778.838 173.6 777.578 172.4C776.318 171.2 775.688 169.295 775.688 166.685ZM789.998 158.99C789.998 158.81 789.923 158.48 789.773 158C789.623 157.52 789.278 156.995 788.738 156.425C788.198 155.855 787.508 155.555 786.668 155.525C785.618 155.525 784.613 155.99 783.653 156.92C782.693 157.85 781.943 159.065 781.403 160.565C780.533 162.935 779.918 165.395 779.558 167.945C779.558 168.035 779.558 168.2 779.558 168.44C779.558 168.68 779.543 168.86 779.513 168.98C779.513 170.33 779.783 171.26 780.323 171.77C780.863 172.28 781.508 172.55 782.258 172.58C783.398 172.58 784.523 172.085 785.633 171.095C786.743 170.105 787.403 169.34 787.613 168.8C787.673 168.68 788.078 167.075 788.828 163.985C789.578 160.895 789.968 159.23 789.998 158.99Z" fill="white"/>
</g>
<g id="Group_25">
<path id="Vector_24" d="M800.709 140.045L800.889 140C801.039 140 801.189 140 801.339 140H801.879L803.139 141.08C805.959 143.63 808.014 146.81 809.304 150.62C810.594 154.43 811.239 158.39 811.239 162.5C811.239 164.54 811.089 166.505 810.789 168.395C810.489 170.285 810.144 171.89 809.754 173.21C809.364 174.53 808.809 175.85 808.089 177.17C807.369 178.49 806.799 179.495 806.379 180.185C805.959 180.875 805.344 181.64 804.534 182.48C803.724 183.32 803.244 183.815 803.094 183.965C802.944 184.115 802.599 184.4 802.059 184.82C801.969 184.91 801.909 184.97 801.879 185H801.339C801.099 185 800.934 185 800.844 185C800.754 185 800.679 184.955 800.619 184.865C800.559 184.775 800.514 184.64 800.484 184.46C800.514 184.43 800.679 184.235 800.979 183.875C805.629 179.045 807.954 171.92 807.954 162.5C807.954 153.08 805.629 145.955 800.979 141.125C800.679 140.765 800.514 140.57 800.484 140.54C800.484 140.3 800.559 140.135 800.709 140.045Z" fill="white"/>
</g>
<g id="Group_26">
<path id="Vector_25" d="M828.033 163.086C828.033 163.086 828.033 162.891 828.033 162.501C828.033 162.111 828.243 161.811 828.663 161.601H842.118V154.851L842.163 148.101C842.463 147.711 842.748 147.516 843.018 147.516C843.408 147.516 843.708 147.741 843.918 148.191V161.601H857.328C857.778 161.841 858.003 162.141 858.003 162.501C858.003 162.861 857.778 163.161 857.328 163.401H843.918V176.811C843.678 177.231 843.408 177.441 843.108 177.441H843.018H842.928C842.568 177.441 842.298 177.231 842.118 176.811V163.401H828.663C828.243 163.191 828.033 162.891 828.033 162.501V163.086Z" fill="white"/>
</g>
<g id="Group_27">
<path id="Vector_26" d="M873.001 153.138C873.031 153.078 873.286 151.443 873.766 148.233L874.486 143.418C874.486 143.358 874.786 143.328 875.386 143.328H876.286V143.508C876.286 143.808 876.511 144.063 876.961 144.273C877.411 144.483 878.191 144.618 879.301 144.678C880.411 144.738 882.946 144.768 886.906 144.768H892.351V146.523L889.291 150.708C889.021 151.068 888.571 151.668 887.941 152.508C887.311 153.348 886.906 153.903 886.726 154.173C886.546 154.443 886.231 154.923 885.781 155.613C885.331 156.303 885.031 156.843 884.881 157.233C884.731 157.623 884.521 158.178 884.251 158.898C883.981 159.618 883.786 160.308 883.666 160.968C883.546 161.628 883.426 162.438 883.306 163.398C883.186 164.358 883.096 165.378 883.036 166.458C882.976 167.538 882.931 168.768 882.901 170.148C882.901 170.568 882.901 170.988 882.901 171.408C882.901 171.828 882.886 172.188 882.856 172.488V172.893C882.736 173.403 882.451 173.838 882.001 174.198C881.551 174.558 881.041 174.738 880.471 174.738C880.141 174.738 879.826 174.693 879.526 174.603C879.226 174.513 878.911 174.228 878.581 173.748C878.251 173.268 878.086 172.668 878.086 171.948C878.086 167.208 879.541 162.288 882.451 157.188C883.051 156.228 884.311 154.413 886.231 151.743L888.301 148.908H884.116C878.896 148.908 876.151 148.998 875.881 149.178C875.701 149.268 875.536 149.628 875.386 150.258C875.236 150.888 875.086 151.533 874.936 152.193L874.801 153.138V153.273H873.001V153.138Z" fill="white"/>
</g>
</g>
</g>
</g>
</svg>
