<svg  viewBox="0 0 852 312" fill="none" xmlns="http://www.w3.org/2000/svg">
<g id="0118222">
<g id="x^2+x=-1\;\;&#10;x^2+x+1=0\;\;">
<g id="Group">
<g id="Group 302">
<g id="Group_2">
<g id="Group_3">
<path id="Vector" d="M28.7392 25.867C28.9422 24.6494 29.7249 23.2434 31.0874 21.649C32.4499 20.0546 34.1313 19.2429 36.1316 19.2139C37.1462 19.2139 38.0739 19.4748 38.9146 19.9966C39.7553 20.5184 40.3786 21.1707 40.7844 21.9534C42.002 20.1271 43.466 19.2139 45.1764 19.2139C46.249 19.2139 47.1767 19.5328 47.9594 20.1705C48.7421 20.8083 49.1479 21.6635 49.1769 22.7361C49.1769 23.5768 48.974 24.2581 48.5682 24.7799C48.1623 25.3017 47.7709 25.6206 47.3941 25.7366C47.0172 25.8525 46.6838 25.9105 46.3939 25.9105C45.8431 25.9105 45.3938 25.7511 45.0459 25.4322C44.698 25.1133 44.5241 24.6929 44.5241 24.1711C44.5241 22.8376 45.2488 21.9244 46.6983 21.4316C46.3794 21.0547 45.7996 20.8663 44.9589 20.8663C44.5821 20.8663 44.3067 20.8953 44.1327 20.9533C43.0311 21.4171 42.2194 22.3738 41.6976 23.8232C39.9582 30.23 39.0885 33.9696 39.0885 35.0422C39.0885 35.8539 39.3205 36.4337 39.7843 36.7816C40.2481 37.1295 40.7554 37.3034 41.3062 37.3034C42.3789 37.3034 43.437 36.8251 44.4806 35.8684C45.5242 34.9118 46.2345 33.7377 46.6114 32.3462C46.6983 32.0563 46.7853 31.8969 46.8723 31.8679C46.9592 31.8389 47.1911 31.8099 47.568 31.7809H47.742C48.1768 31.7809 48.3942 31.8969 48.3942 32.1288C48.3942 32.1578 48.3652 32.3172 48.3072 32.6071C47.8434 34.2595 46.9447 35.7235 45.6112 36.999C44.2777 38.2746 42.7267 38.9124 40.9584 38.9124C38.9291 38.9124 37.3926 37.9992 36.349 36.1728C35.1604 37.9702 33.7979 38.8689 32.2615 38.8689H32.0006C30.5801 38.8689 29.5654 38.492 28.9567 37.7383C28.3479 36.9845 28.029 36.1873 28 35.3466C28 34.419 28.2754 33.6652 28.8262 33.0854C29.377 32.5056 30.0293 32.2157 30.783 32.2157C32.0296 32.2157 32.6528 32.8245 32.6528 34.0421C32.6528 34.6219 32.4789 35.1292 32.131 35.564C31.7831 35.9989 31.4498 36.2888 31.1309 36.4337C30.812 36.5787 30.6236 36.6512 30.5656 36.6512L30.4351 36.6946C30.4351 36.7236 30.5221 36.7816 30.696 36.8686C30.87 36.9556 31.1019 37.057 31.3918 37.173C31.6817 37.2889 31.9571 37.3324 32.218 37.3034C33.2616 37.3034 34.1603 36.6512 34.914 35.3466C35.1749 34.8828 35.5083 33.8971 35.9142 32.3897C36.32 30.8822 36.7259 29.3168 37.1317 27.6934C37.5376 26.0699 37.7695 25.1133 37.8275 24.8234C37.9724 24.0407 38.0449 23.4754 38.0449 23.1275C38.0449 22.3158 37.8275 21.736 37.3926 21.3881C36.9578 21.0402 36.465 20.8663 35.9142 20.8663C34.7546 20.8663 33.6675 21.3301 32.6528 22.2578C31.6382 23.1855 30.928 24.374 30.5221 25.8235C30.4641 26.0844 30.3916 26.2294 30.3047 26.2584C30.2177 26.2874 29.9858 26.3164 29.6089 26.3453H29.0001C28.8262 26.1714 28.7392 26.012 28.7392 25.867Z" fill="white"/>
</g>
<g id="Group_4">
<path id="Vector_2" d="M54.7025 7.28637C54.1492 7.28637 53.7085 7.10191 53.3806 6.73299C53.0526 6.36407 52.8887 5.91316 52.8887 5.38027C52.8887 3.92508 53.4318 2.66459 54.5181 1.59882C55.6043 0.533045 56.9571 0.000156403 58.5762 0.000156403C60.4413 0.000156403 61.999 0.574036 63.2492 1.72179C64.4995 2.86955 65.1348 4.35549 65.1553 6.1796C65.1553 7.06092 64.9504 7.90124 64.5405 8.70057C64.1306 9.4999 63.6387 10.1968 63.0648 10.7911C62.4909 11.3855 61.6711 12.1438 60.6053 13.0662C59.8675 13.7015 58.8427 14.6443 57.5309 15.8946L55.7171 17.6162L58.0536 17.6469C61.2714 17.6469 62.9828 17.5957 63.1878 17.4932C63.3312 17.4522 63.5772 16.5402 63.9256 14.757V14.6648H65.1553V14.757C65.1348 14.8185 65.0016 15.7511 64.7557 17.5547C64.5097 19.3583 64.356 20.3011 64.2945 20.3831V20.4753H52.8887V19.8912V19.5223C52.8887 19.3788 52.9502 19.2251 53.0731 19.0611C53.1961 18.8972 53.5035 18.5385 53.9954 17.9851C54.5898 17.3293 55.1022 16.7554 55.5326 16.2635C55.7171 16.0585 56.0655 15.6794 56.5779 15.126C57.0903 14.5726 57.4387 14.1934 57.6232 13.9885C57.8076 13.7835 58.1048 13.4453 58.5147 12.9739C58.9246 12.5025 59.2116 12.1541 59.3756 11.9286C59.5395 11.7032 59.7752 11.3958 60.0827 11.0063C60.3901 10.6169 60.6053 10.289 60.7283 10.0225C60.8512 9.7561 61.005 9.45891 61.1894 9.13098C61.3739 8.80305 61.5071 8.47512 61.5891 8.14719C61.6711 7.81926 61.7428 7.51182 61.8043 7.22488C61.8658 6.93794 61.8965 6.59977 61.8965 6.21035C61.8965 4.91912 61.5481 3.8021 60.8512 2.8593C60.1544 1.9165 59.1604 1.4451 57.8691 1.4451C57.1928 1.4451 56.5984 1.61932 56.086 1.96774C55.5736 2.31617 55.2149 2.65435 55.01 2.98228C54.805 3.31021 54.7025 3.50492 54.7025 3.56641C54.7025 3.5869 54.7538 3.59715 54.8563 3.59715C55.2252 3.59715 55.6043 3.74062 55.9938 4.02756C56.3832 4.3145 56.5779 4.7859 56.5779 5.44176C56.5779 5.95415 56.4139 6.38456 56.086 6.73299C55.7581 7.08141 55.2969 7.26588 54.7025 7.28637Z" fill="white"/>
</g>
</g>
<g id="Group_5">
<path id="Vector_3" d="M80.9995 28.1282C80.9995 28.1282 80.9995 27.9398 80.9995 27.5629C80.9995 27.186 81.2024 26.8961 81.6083 26.6932H94.6102V20.1706L94.6536 13.6479C94.9435 13.271 95.2189 13.0826 95.4798 13.0826C95.8567 13.0826 96.1466 13.3 96.3495 13.7348V26.6932H109.308C109.743 26.9251 109.96 27.215 109.96 27.5629C109.96 27.9108 109.743 28.2007 109.308 28.4326H96.3495V41.391C96.1176 41.7968 95.8567 41.9998 95.5668 41.9998H95.4798H95.3929C95.045 41.9998 94.7841 41.7968 94.6102 41.391V28.4326H81.6083C81.2024 28.2297 80.9995 27.9398 80.9995 27.5629V28.1282Z" fill="white"/>
</g>
<g id="Group_6">
<path id="Vector_4" d="M124.318 25.867C124.521 24.6494 125.303 23.2434 126.666 21.649C128.029 20.0546 129.71 19.2429 131.71 19.2139C132.725 19.2139 133.653 19.4748 134.493 19.9966C135.334 20.5184 135.957 21.1707 136.363 21.9534C137.581 20.1271 139.045 19.2139 140.755 19.2139C141.828 19.2139 142.755 19.5328 143.538 20.1705C144.321 20.8083 144.727 21.6635 144.756 22.7361C144.756 23.5768 144.553 24.2581 144.147 24.7799C143.741 25.3017 143.35 25.6206 142.973 25.7366C142.596 25.8525 142.262 25.9105 141.973 25.9105C141.422 25.9105 140.972 25.7511 140.625 25.4322C140.277 25.1133 140.103 24.6929 140.103 24.1711C140.103 22.8376 140.827 21.9244 142.277 21.4316C141.958 21.0547 141.378 20.8663 140.538 20.8663C140.161 20.8663 139.885 20.8953 139.711 20.9533C138.61 21.4171 137.798 22.3738 137.276 23.8232C135.537 30.23 134.667 33.9696 134.667 35.0422C134.667 35.8539 134.899 36.4337 135.363 36.7816C135.827 37.1295 136.334 37.3034 136.885 37.3034C137.957 37.3034 139.016 36.8251 140.059 35.8684C141.103 34.9118 141.813 33.7377 142.19 32.3462C142.277 32.0563 142.364 31.8969 142.451 31.8679C142.538 31.8389 142.77 31.8099 143.147 31.7809H143.321C143.755 31.7809 143.973 31.8969 143.973 32.1288C143.973 32.1578 143.944 32.3172 143.886 32.6071C143.422 34.2595 142.523 35.7235 141.19 36.999C139.856 38.2746 138.305 38.9124 136.537 38.9124C134.508 38.9124 132.971 37.9992 131.928 36.1728C130.739 37.9702 129.377 38.8689 127.84 38.8689H127.579C126.159 38.8689 125.144 38.492 124.535 37.7383C123.926 36.9845 123.608 36.1873 123.579 35.3466C123.579 34.419 123.854 33.6652 124.405 33.0854C124.956 32.5056 125.608 32.2157 126.362 32.2157C127.608 32.2157 128.231 32.8245 128.231 34.0421C128.231 34.6219 128.058 35.1292 127.71 35.564C127.362 35.9989 127.028 36.2888 126.709 36.4337C126.391 36.5787 126.202 36.6512 126.144 36.6512L126.014 36.6946C126.014 36.7236 126.101 36.7816 126.275 36.8686C126.449 36.9556 126.681 37.057 126.97 37.173C127.26 37.2889 127.536 37.3324 127.797 37.3034C128.84 37.3034 129.739 36.6512 130.493 35.3466C130.754 34.8828 131.087 33.8971 131.493 32.3897C131.899 30.8822 132.304 29.3168 132.71 27.6934C133.116 26.0699 133.348 25.1133 133.406 24.8234C133.551 24.0407 133.624 23.4754 133.624 23.1275C133.624 22.3158 133.406 21.736 132.971 21.3881C132.536 21.0402 132.044 20.8663 131.493 20.8663C130.333 20.8663 129.246 21.3301 128.231 22.2578C127.217 23.1855 126.507 24.374 126.101 25.8235C126.043 26.0844 125.97 26.2294 125.883 26.2584C125.796 26.2874 125.564 26.3164 125.188 26.3453H124.579C124.405 26.1714 124.318 26.012 124.318 25.867Z" fill="white"/>
</g>
<g id="Group_7">
<path id="Vector_5" d="M161.445 23.3447C161.445 22.9678 161.648 22.678 162.054 22.475H189.754C190.189 22.7069 190.406 22.9968 190.406 23.3447C190.406 23.6636 190.203 23.939 189.797 24.1709L175.969 24.2144H162.141C161.677 24.0695 161.445 23.7796 161.445 23.3447ZM161.445 31.7807C161.445 31.3459 161.677 31.056 162.141 30.911H189.797C190.203 31.2009 190.406 31.4908 190.406 31.7807C190.406 32.1576 190.189 32.4475 189.754 32.6504H162.054C161.648 32.4475 161.445 32.1576 161.445 31.7807Z" fill="white"/>
</g>
<g id="Group_8">
<path id="Vector_6" d="M208.574 28.1285C208.574 28.1285 208.574 27.94 208.574 27.5632C208.574 27.1863 208.777 26.8964 209.183 26.6935H234.447C234.882 26.9254 235.1 27.2153 235.1 27.5632C235.1 27.911 234.882 28.2009 234.447 28.4329H209.183C208.777 28.2299 208.574 27.94 208.574 27.5632V28.1285Z" fill="white"/>
</g>
<g id="Group_9">
<path id="Vector_7" d="M248.014 13.3003L247.449 13.5177C247.043 13.6627 246.463 13.8076 245.71 13.9526C244.956 14.0975 244.115 14.199 243.188 14.257H242.361V12.2567H243.188C244.55 12.1987 245.811 11.9813 246.971 11.6044C248.13 11.2275 248.942 10.8797 249.406 10.5608C249.87 10.2419 250.276 9.92301 250.623 9.60412C250.681 9.51715 250.855 9.47367 251.145 9.47367C251.406 9.47367 251.653 9.56064 251.884 9.73458V22.7364L251.928 35.7818C252.131 35.9847 252.305 36.1152 252.45 36.1731C252.595 36.2311 252.943 36.2891 253.493 36.3471C254.044 36.4051 254.943 36.434 256.189 36.434H257.32V38.4343H256.842C256.233 38.3474 253.928 38.3039 249.928 38.3039C245.985 38.3039 243.709 38.3474 243.101 38.4343H242.579V36.434H243.709C244.347 36.434 244.898 36.434 245.362 36.434C245.826 36.434 246.188 36.4195 246.449 36.3906C246.71 36.3616 246.942 36.3181 247.145 36.2601C247.348 36.2021 247.464 36.1731 247.492 36.1731C247.521 36.1731 247.608 36.1007 247.753 35.9557C247.898 35.8108 247.985 35.7528 248.014 35.7818V13.3003Z" fill="white"/>
</g>
</g>
<g id="Group 301">
<g id="Group_10">
<g id="Group_11">
<path id="Vector_8" d="M3.73924 107.867C3.94216 106.649 4.72488 105.243 6.0874 103.649C7.44991 102.055 9.13131 101.243 11.1316 101.214C12.1462 101.214 13.0739 101.475 13.9146 101.997C14.7553 102.518 15.3786 103.171 15.7844 103.953C17.002 102.127 18.466 101.214 20.1764 101.214C21.249 101.214 22.1767 101.533 22.9594 102.171C23.7421 102.808 24.1479 103.664 24.1769 104.736C24.1769 105.577 23.974 106.258 23.5682 106.78C23.1623 107.302 22.7709 107.621 22.3941 107.737C22.0172 107.853 21.6838 107.91 21.3939 107.91C20.8431 107.91 20.3938 107.751 20.0459 107.432C19.698 107.113 19.5241 106.693 19.5241 106.171C19.5241 104.838 20.2488 103.924 21.6983 103.432C21.3794 103.055 20.7996 102.866 19.9589 102.866C19.5821 102.866 19.3067 102.895 19.1327 102.953C18.0311 103.417 17.2194 104.374 16.6976 105.823C14.9582 112.23 14.0885 115.97 14.0885 117.042C14.0885 117.854 14.3205 118.434 14.7843 118.782C15.2481 119.129 15.7554 119.303 16.3062 119.303C17.3789 119.303 18.437 118.825 19.4806 117.868C20.5242 116.912 21.2345 115.738 21.6114 114.346C21.6983 114.056 21.7853 113.897 21.8723 113.868C21.9592 113.839 22.1911 113.81 22.568 113.781H22.742C23.1768 113.781 23.3942 113.897 23.3942 114.129C23.3942 114.158 23.3652 114.317 23.3072 114.607C22.8434 116.26 21.9447 117.723 20.6112 118.999C19.2777 120.275 17.7267 120.912 15.9584 120.912C13.9291 120.912 12.3926 119.999 11.349 118.173C10.1604 119.97 8.79793 120.869 7.26148 120.869H7.00057C5.58008 120.869 4.56544 120.492 3.95666 119.738C3.34788 118.985 3.02899 118.187 3 117.347C3 116.419 3.2754 115.665 3.8262 115.085C4.37701 114.506 5.02928 114.216 5.78301 114.216C7.02956 114.216 7.65284 114.825 7.65284 116.042C7.65284 116.622 7.4789 117.129 7.13102 117.564C6.78315 117.999 6.44977 118.289 6.13088 118.434C5.812 118.579 5.62356 118.651 5.56558 118.651L5.43513 118.695C5.43513 118.724 5.5221 118.782 5.69604 118.869C5.86998 118.956 6.10189 119.057 6.39179 119.173C6.68169 119.289 6.95709 119.332 7.21799 119.303C8.26162 119.303 9.1603 118.651 9.91403 117.347C10.1749 116.883 10.5083 115.897 10.9142 114.39C11.32 112.882 11.7259 111.317 12.1317 109.693C12.5376 108.07 12.7695 107.113 12.8275 106.823C12.9724 106.041 13.0449 105.475 13.0449 105.127C13.0449 104.316 12.8275 103.736 12.3926 103.388C11.9578 103.04 11.465 102.866 10.9142 102.866C9.75459 102.866 8.66748 103.33 7.65284 104.258C6.6382 105.185 5.92795 106.374 5.5221 107.824C5.46412 108.084 5.39165 108.229 5.30468 108.258C5.21771 108.287 4.98579 108.316 4.60893 108.345H4.00014C3.8262 108.171 3.73924 108.012 3.73924 107.867Z" fill="white"/>
</g>
<g id="Group_12">
<path id="Vector_9" d="M29.7025 89.2864C29.1492 89.2864 28.7085 89.1019 28.3806 88.733C28.0526 88.3641 27.8887 87.9132 27.8887 87.3803C27.8887 85.9251 28.4318 84.6646 29.5181 83.5988C30.6043 82.533 31.9571 82.0002 33.5762 82.0002C35.4413 82.0002 36.999 82.574 38.2492 83.7218C39.4995 84.8696 40.1348 86.3555 40.1553 88.1796C40.1553 89.0609 39.9504 89.9012 39.5405 90.7006C39.1306 91.4999 38.6387 92.1968 38.0648 92.7911C37.4909 93.3855 36.6711 94.1438 35.6053 95.0662C34.8675 95.7015 33.8427 96.6443 32.5309 97.8946L30.7171 99.6162L33.0536 99.6469C36.2714 99.6469 37.9828 99.5957 38.1878 99.4932C38.3312 99.4522 38.5772 98.5402 38.9256 96.757V96.6648H40.1553V96.757C40.1348 96.8185 40.0016 97.7511 39.7557 99.5547C39.5097 101.358 39.356 102.301 39.2945 102.383V102.475H27.8887V101.891V101.522C27.8887 101.379 27.9502 101.225 28.0731 101.061C28.1961 100.897 28.5035 100.538 28.9954 99.9851C29.5898 99.3293 30.1022 98.7554 30.5326 98.2635C30.7171 98.0585 31.0655 97.6794 31.5779 97.126C32.0903 96.5726 32.4387 96.1934 32.6232 95.9885C32.8076 95.7835 33.1048 95.4453 33.5147 94.9739C33.9246 94.5025 34.2116 94.1541 34.3756 93.9286C34.5395 93.7032 34.7752 93.3958 35.0827 93.0063C35.3901 92.6169 35.6053 92.289 35.7283 92.0225C35.8512 91.7561 36.005 91.4589 36.1894 91.131C36.3739 90.8031 36.5071 90.4751 36.5891 90.1472C36.6711 89.8193 36.7428 89.5118 36.8043 89.2249C36.8658 88.9379 36.8965 88.5998 36.8965 88.2103C36.8965 86.9191 36.5481 85.8021 35.8512 84.8593C35.1544 83.9165 34.1604 83.4451 32.8691 83.4451C32.1928 83.4451 31.5984 83.6193 31.086 83.9677C30.5736 84.3162 30.2149 84.6543 30.01 84.9823C29.805 85.3102 29.7025 85.5049 29.7025 85.5664C29.7025 85.5869 29.7538 85.5971 29.8563 85.5971C30.2252 85.5971 30.6043 85.7406 30.9938 86.0276C31.3832 86.3145 31.5779 86.7859 31.5779 87.4418C31.5779 87.9542 31.4139 88.3846 31.086 88.733C30.7581 89.0814 30.2969 89.2659 29.7025 89.2864Z" fill="white"/>
</g>
</g>
<g id="Group_13">
<path id="Vector_10" d="M55.9995 110.128C55.9995 110.128 55.9995 109.94 55.9995 109.563C55.9995 109.186 56.2024 108.896 56.6083 108.693H69.6102V102.171L69.6536 95.6479C69.9435 95.271 70.2189 95.0826 70.4798 95.0826C70.8567 95.0826 71.1466 95.3 71.3495 95.7348V108.693H84.3079C84.7427 108.925 84.9602 109.215 84.9602 109.563C84.9602 109.911 84.7427 110.201 84.3079 110.433H71.3495V123.391C71.1176 123.797 70.8567 124 70.5668 124H70.4798H70.3929C70.045 124 69.7841 123.797 69.6102 123.391V110.433H56.6083C56.2024 110.23 55.9995 109.94 55.9995 109.563V110.128Z" fill="white"/>
</g>
<g id="Group_14">
<path id="Vector_11" d="M99.3193 107.867C99.5222 106.649 100.305 105.243 101.667 103.649C103.03 102.055 104.711 101.243 106.712 101.214C107.726 101.214 108.654 101.475 109.495 101.997C110.335 102.518 110.959 103.171 111.365 103.953C112.582 102.127 114.046 101.214 115.756 101.214C116.829 101.214 117.757 101.533 118.539 102.171C119.322 102.808 119.728 103.664 119.757 104.736C119.757 105.577 119.554 106.258 119.148 106.78C118.742 107.302 118.351 107.621 117.974 107.737C117.597 107.853 117.264 107.91 116.974 107.91C116.423 107.91 115.974 107.751 115.626 107.432C115.278 107.113 115.104 106.693 115.104 106.171C115.104 104.838 115.829 103.924 117.278 103.432C116.96 103.055 116.38 102.866 115.539 102.866C115.162 102.866 114.887 102.895 114.713 102.953C113.611 103.417 112.8 104.374 112.278 105.823C110.538 112.23 109.669 115.97 109.669 117.042C109.669 117.854 109.901 118.434 110.364 118.782C110.828 119.129 111.336 119.303 111.886 119.303C112.959 119.303 114.017 118.825 115.061 117.868C116.104 116.912 116.815 115.738 117.191 114.346C117.278 114.056 117.365 113.897 117.452 113.868C117.539 113.839 117.771 113.81 118.148 113.781H118.322C118.757 113.781 118.974 113.897 118.974 114.129C118.974 114.158 118.945 114.317 118.887 114.607C118.423 116.26 117.525 117.723 116.191 118.999C114.858 120.275 113.307 120.912 111.538 120.912C109.509 120.912 107.973 119.999 106.929 118.173C105.741 119.97 104.378 120.869 102.842 120.869H102.581C101.16 120.869 100.146 120.492 99.5367 119.738C98.928 118.985 98.6091 118.187 98.5801 117.347C98.5801 116.419 98.8555 115.665 99.4063 115.085C99.9571 114.506 100.609 114.216 101.363 114.216C102.61 114.216 103.233 114.825 103.233 116.042C103.233 116.622 103.059 117.129 102.711 117.564C102.363 117.999 102.03 118.289 101.711 118.434C101.392 118.579 101.204 118.651 101.146 118.651L101.015 118.695C101.015 118.724 101.102 118.782 101.276 118.869C101.45 118.956 101.682 119.057 101.972 119.173C102.262 119.289 102.537 119.332 102.798 119.303C103.842 119.303 104.74 118.651 105.494 117.347C105.755 116.883 106.088 115.897 106.494 114.39C106.9 112.882 107.306 111.317 107.712 109.693C108.118 108.07 108.35 107.113 108.408 106.823C108.553 106.041 108.625 105.475 108.625 105.127C108.625 104.316 108.408 103.736 107.973 103.388C107.538 103.04 107.045 102.866 106.494 102.866C105.335 102.866 104.248 103.33 103.233 104.258C102.218 105.185 101.508 106.374 101.102 107.824C101.044 108.084 100.972 108.229 100.885 108.258C100.798 108.287 100.566 108.316 100.189 108.345H99.5802C99.4063 108.171 99.3193 108.012 99.3193 107.867Z" fill="white"/>
</g>
<g id="Group_15">
<path id="Vector_12" d="M134.028 110.128C134.028 110.128 134.028 109.94 134.028 109.563C134.028 109.186 134.231 108.896 134.637 108.693H147.639V102.171L147.682 95.6479C147.972 95.271 148.248 95.0826 148.509 95.0826C148.886 95.0826 149.175 95.3 149.378 95.7348V108.693H162.337C162.772 108.925 162.989 109.215 162.989 109.563C162.989 109.911 162.772 110.201 162.337 110.433H149.378V123.391C149.146 123.797 148.886 124 148.596 124H148.509H148.422C148.074 124 147.813 123.797 147.639 123.391V110.433H134.637C134.231 110.23 134.028 109.94 134.028 109.563V110.128Z" fill="white"/>
</g>
<g id="Group_16">
<path id="Vector_13" d="M184.353 95.3003L183.788 95.5177C183.382 95.6627 182.802 95.8076 182.048 95.9526C181.295 96.0975 180.454 96.199 179.526 96.257H178.7V94.2567H179.526C180.889 94.1987 182.15 93.9813 183.31 93.6044C184.469 93.2275 185.281 92.8797 185.745 92.5608C186.209 92.2419 186.614 91.923 186.962 91.6041C187.02 91.5172 187.194 91.4737 187.484 91.4737C187.745 91.4737 187.991 91.5606 188.223 91.7346V104.736L188.267 117.782C188.47 117.985 188.644 118.115 188.789 118.173C188.934 118.231 189.281 118.289 189.832 118.347C190.383 118.405 191.282 118.434 192.528 118.434H193.659V120.434H193.181C192.572 120.347 190.267 120.304 186.266 120.304C182.324 120.304 180.048 120.347 179.439 120.434H178.918V118.434H180.048C180.686 118.434 181.237 118.434 181.701 118.434C182.164 118.434 182.527 118.42 182.788 118.391C183.049 118.362 183.281 118.318 183.483 118.26C183.686 118.202 183.802 118.173 183.831 118.173C183.86 118.173 183.947 118.101 184.092 117.956C184.237 117.811 184.324 117.753 184.353 117.782V95.3003Z" fill="white"/>
</g>
<g id="Group_17">
<path id="Vector_14" d="M211.343 105.345C211.343 104.968 211.546 104.678 211.952 104.475H239.652C240.086 104.707 240.304 104.997 240.304 105.345C240.304 105.664 240.101 105.939 239.695 106.171L225.867 106.214H212.039C211.575 106.069 211.343 105.78 211.343 105.345ZM211.343 113.781C211.343 113.346 211.575 113.056 212.039 112.911H239.695C240.101 113.201 240.304 113.491 240.304 113.781C240.304 114.158 240.086 114.447 239.652 114.65H211.952C211.546 114.447 211.343 114.158 211.343 113.781Z" fill="white"/>
</g>
<g id="Group_18">
<path id="Vector_15" d="M258.994 94.9955C260.618 92.6474 262.835 91.4733 265.647 91.4733C267.039 91.4733 268.43 91.8502 269.822 92.6039C271.213 93.3576 272.344 94.6912 273.214 96.6045C274.286 99.0106 274.823 102.315 274.823 106.519C274.823 111.012 274.199 114.448 272.953 116.825C272.373 118.042 271.576 119.013 270.561 119.738C269.546 120.463 268.662 120.912 267.909 121.086C267.155 121.26 266.416 121.362 265.691 121.391C264.937 121.391 264.183 121.304 263.43 121.13C262.676 120.956 261.792 120.492 260.777 119.738C259.762 118.984 258.965 118.013 258.385 116.825C257.139 114.448 256.516 111.012 256.516 106.519C256.516 101.475 257.342 97.6336 258.994 94.9955ZM268.778 94.4737C267.909 93.5461 266.879 93.0822 265.691 93.0822C264.473 93.0822 263.43 93.5461 262.56 94.4737C261.835 95.2275 261.357 96.2711 261.125 97.6046C260.893 98.9381 260.777 101.721 260.777 105.954C260.777 110.534 260.893 113.549 261.125 114.998C261.357 116.448 261.879 117.593 262.69 118.434C263.502 119.303 264.502 119.738 265.691 119.738C266.85 119.738 267.836 119.303 268.648 118.434C269.488 117.564 270.01 116.346 270.213 114.781C270.416 113.216 270.532 110.273 270.561 105.954C270.561 101.75 270.445 98.9816 270.213 97.6481C269.981 96.3146 269.503 95.2565 268.778 94.4737Z" fill="white"/>
</g>
</g>
</g>
</g>
<path id="Line 34 (Stroke)" fill-rule="evenodd" clip-rule="evenodd" d="M329 4.97049L329 311.029H324L324 4.97049H329Z" fill="#CD08D1"/>
<g id="x^3-1=(x-1)(x^2+x+1)\;">
<g id="Group_19">
<g id="Group_20">
<g id="Group_21">
<path id="Vector_16" d="M410.6 37.9851C410.764 36.9973 411.399 35.8566 412.505 34.5631C413.61 33.2696 414.974 32.6111 416.597 32.5876C417.42 32.5876 418.173 32.7992 418.855 33.2226C419.537 33.6459 420.042 34.1751 420.372 34.8101C421.359 33.3284 422.547 32.5876 423.935 32.5876C424.805 32.5876 425.557 32.8463 426.192 33.3637C426.827 33.8811 427.157 34.5749 427.18 35.4451C427.18 36.1271 427.016 36.6798 426.686 37.1031C426.357 37.5265 426.04 37.7852 425.734 37.8792C425.428 37.9733 425.158 38.0203 424.922 38.0203C424.476 38.0203 424.111 37.891 423.829 37.6323C423.547 37.3736 423.406 37.0326 423.406 36.6092C423.406 35.5274 423.993 34.7866 425.169 34.3867C424.911 34.081 424.44 33.9281 423.758 33.9281C423.453 33.9281 423.229 33.9516 423.088 33.9987C422.194 34.375 421.536 35.1511 421.112 36.327C419.701 41.5246 418.996 44.5585 418.996 45.4286C418.996 46.0872 419.184 46.5575 419.56 46.8398C419.937 47.122 420.348 47.2631 420.795 47.2631C421.665 47.2631 422.524 46.875 423.37 46.0989C424.217 45.3228 424.793 44.3703 425.099 43.2414C425.169 43.0062 425.24 42.8769 425.311 42.8534C425.381 42.8299 425.569 42.8063 425.875 42.7828H426.016C426.369 42.7828 426.545 42.8769 426.545 43.065C426.545 43.0886 426.522 43.2179 426.475 43.4531C426.098 44.7936 425.369 45.9813 424.287 47.0161C423.206 48.051 421.947 48.5684 420.513 48.5684C418.866 48.5684 417.62 47.8275 416.773 46.3459C415.809 47.804 414.704 48.5331 413.457 48.5331H413.246C412.093 48.5331 411.27 48.2273 410.776 47.6159C410.282 47.0044 410.024 46.3576 410 45.6756C410 44.923 410.223 44.3115 410.67 43.8412C411.117 43.3708 411.646 43.1356 412.258 43.1356C413.269 43.1356 413.775 43.6295 413.775 44.6173C413.775 45.0876 413.634 45.4992 413.351 45.852C413.069 46.2048 412.799 46.4399 412.54 46.5575C412.281 46.6751 412.128 46.7339 412.081 46.7339L411.976 46.7692C411.976 46.7927 412.046 46.8398 412.187 46.9103C412.328 46.9809 412.516 47.0632 412.752 47.1573C412.987 47.2513 413.21 47.2866 413.422 47.2631C414.269 47.2631 414.998 46.7339 415.609 45.6756C415.821 45.2993 416.091 44.4997 416.421 43.2767C416.75 42.0538 417.079 40.7838 417.408 39.4667C417.738 38.1497 417.926 37.3736 417.973 37.1384C418.09 36.5034 418.149 36.0448 418.149 35.7626C418.149 35.1041 417.973 34.6337 417.62 34.3515C417.267 34.0692 416.867 33.9281 416.421 33.9281C415.48 33.9281 414.598 34.3044 413.775 35.057C412.952 35.8096 412.375 36.7739 412.046 37.9498C411.999 38.1614 411.94 38.279 411.87 38.3026C411.799 38.3261 411.611 38.3496 411.305 38.3731H410.811C410.67 38.232 410.6 38.1027 410.6 37.9851Z" fill="white"/>
</g>
<g id="Group_22">
<path id="Vector_17" d="M432.112 22.0626C431.663 22.0626 431.314 21.9213 431.064 21.6386C430.815 21.356 430.682 20.9902 430.665 20.5412C430.665 19.6267 431.064 18.812 431.862 18.097C432.66 17.382 433.625 17.0245 434.755 17.0245C435.337 17.0245 435.703 17.0328 435.853 17.0494C437.083 17.249 438.023 17.6896 438.671 18.3713C439.32 19.0531 439.652 19.793 439.669 20.5911C439.669 21.4557 439.386 22.2954 438.821 23.1102C438.256 23.9249 437.474 24.5152 436.476 24.881L436.402 24.9309C436.402 24.9475 436.476 24.9725 436.626 25.0057C436.776 25.039 437.017 25.1138 437.349 25.2302C437.682 25.3466 437.998 25.5212 438.297 25.754C439.661 26.6352 440.342 27.7991 440.342 29.2457C440.342 30.5593 439.827 31.7066 438.796 32.6876C437.765 33.6687 436.46 34.1592 434.88 34.1592C433.55 34.1592 432.403 33.8017 431.438 33.0867C430.474 32.3717 429.992 31.4655 429.992 30.3681C429.992 29.9025 430.141 29.5284 430.441 29.2457C430.74 28.9631 431.114 28.8134 431.563 28.7968C432.029 28.7968 432.411 28.9464 432.71 29.2457C433.01 29.545 433.159 29.9192 433.159 30.3681C433.159 30.551 433.134 30.7173 433.084 30.8669C433.035 31.0166 432.976 31.1496 432.91 31.266C432.843 31.3824 432.752 31.4821 432.635 31.5653C432.519 31.6484 432.419 31.7149 432.336 31.7648C432.253 31.8147 432.17 31.848 432.087 31.8646C432.004 31.8812 431.937 31.9061 431.887 31.9394L431.787 31.9643C432.635 32.7126 433.666 33.0867 434.88 33.0867C435.795 33.0867 436.485 32.6461 436.95 31.7648C437.233 31.2161 437.374 30.3764 437.374 29.2457V28.7469C437.374 27.1673 436.842 26.1115 435.778 25.5794C435.529 25.4796 435.022 25.4214 434.257 25.4048L433.209 25.3798L433.134 25.33C433.101 25.2801 433.084 25.1471 433.084 24.9309C433.084 24.6316 433.151 24.482 433.284 24.482C433.75 24.482 434.232 24.4404 434.731 24.3572C435.296 24.2741 435.811 23.9249 436.277 23.3097C436.742 22.6945 436.975 21.7634 436.975 20.5163V20.3168C436.975 19.369 436.684 18.7122 436.102 18.3464C435.737 18.1136 435.346 17.9972 434.93 17.9972C434.398 17.9972 433.907 18.0887 433.459 18.2716C433.01 18.4545 432.694 18.6457 432.511 18.8452C432.328 19.0447 432.236 19.1445 432.236 19.1445H432.311C432.361 19.1611 432.428 19.1778 432.511 19.1944C432.594 19.211 432.677 19.2526 432.76 19.3191C432.843 19.3856 432.943 19.4438 433.059 19.4937C433.176 19.5436 433.259 19.635 433.309 19.768C433.359 19.9011 433.425 20.0258 433.508 20.1422C433.592 20.2586 433.617 20.4248 433.583 20.641C433.583 21.0068 433.467 21.331 433.234 21.6137C433.001 21.8964 432.627 22.046 432.112 22.0626Z" fill="white"/>
</g>
</g>
<g id="Group_23">
<path id="Vector_18" d="M453.984 39.8195C453.984 39.8195 453.984 39.6666 453.984 39.3609C453.984 39.0551 454.149 38.8199 454.478 38.6553H474.975C475.327 38.8434 475.504 39.0786 475.504 39.3609C475.504 39.6431 475.327 39.8783 474.975 40.0664H454.478C454.149 39.9018 453.984 39.6666 453.984 39.3609V39.8195Z" fill="white"/>
</g>
<g id="Group_24">
<path id="Vector_19" d="M493.819 27.7899L493.361 27.9663C493.032 28.0839 492.561 28.2015 491.95 28.3191C491.338 28.4367 490.656 28.519 489.904 28.566H489.233V26.9433H489.904C491.009 26.8962 492.032 26.7198 492.973 26.4141C493.914 26.1084 494.572 25.8261 494.948 25.5674C495.325 25.3087 495.654 25.05 495.936 24.7913C495.983 24.7208 496.124 24.6855 496.359 24.6855C496.571 24.6855 496.771 24.7561 496.959 24.8972V35.4452L496.994 46.0285C497.159 46.1931 497.3 46.2989 497.418 46.346C497.535 46.393 497.818 46.4401 498.264 46.4871C498.711 46.5341 499.44 46.5576 500.452 46.5576H501.369V48.1804H500.981C500.487 48.1099 498.617 48.0746 495.372 48.0746C492.173 48.0746 490.327 48.1099 489.833 48.1804H489.41V46.5576H490.327C490.844 46.5576 491.291 46.5576 491.668 46.5576C492.044 46.5576 492.338 46.5459 492.549 46.5224C492.761 46.4989 492.949 46.4636 493.114 46.4165C493.279 46.3695 493.373 46.346 493.396 46.346C493.42 46.346 493.49 46.2872 493.608 46.1696C493.725 46.052 493.796 46.005 493.819 46.0285V27.7899Z" fill="white"/>
</g>
<g id="Group_25">
<path id="Vector_20" d="M515.72 35.9391C515.72 35.6334 515.885 35.3982 516.214 35.2336H538.686C539.039 35.4217 539.215 35.6569 539.215 35.9391C539.215 36.1978 539.051 36.4212 538.721 36.6094L527.503 36.6447H516.285C515.908 36.5271 515.72 36.2919 515.72 35.9391ZM515.72 42.783C515.72 42.4302 515.908 42.195 516.285 42.0774H538.721C539.051 42.3126 539.215 42.5478 539.215 42.783C539.215 43.0887 539.039 43.3239 538.686 43.4885H516.214C515.885 43.3239 515.72 43.0887 515.72 42.783Z" fill="white"/>
</g>
<g id="Group_26">
<path id="Vector_21" d="M554.307 39.3609C554.307 37.7382 554.425 36.1977 554.66 34.7396C554.895 33.2814 555.166 32.0232 555.471 30.9648C555.777 29.9065 556.212 28.8717 556.777 27.8604C557.341 26.8491 557.788 26.0612 558.117 25.4968C558.446 24.9324 558.94 24.3209 559.599 23.6624C560.257 23.0038 560.645 22.604 560.763 22.4629C560.881 22.3218 561.175 22.0749 561.645 21.7221H562.103H562.245C562.574 21.7221 562.738 21.8279 562.738 22.0396C562.738 22.1101 562.539 22.3571 562.139 22.7804C561.739 23.2038 561.257 23.827 560.692 24.6501C560.128 25.4733 559.552 26.4846 558.964 27.684C558.376 28.8835 557.882 30.5062 557.482 32.5523C557.082 34.5984 556.882 36.868 556.882 39.3609C556.882 41.8539 557.082 44.1117 557.482 46.1342C557.882 48.1568 558.364 49.7914 558.929 51.0378C559.493 52.2843 560.069 53.2956 560.657 54.0717C561.245 54.8478 561.739 55.4711 562.139 55.9414C562.539 56.4118 562.738 56.6587 562.738 56.6823C562.738 56.8939 562.562 56.9998 562.209 56.9998H562.103H561.645L560.657 56.1531C558.446 54.154 556.835 51.6611 555.824 48.6742C554.813 45.6874 554.307 42.583 554.307 39.3609Z" fill="white"/>
</g>
<g id="Group_27">
<path id="Vector_22" d="M566.548 37.9851C566.713 36.9973 567.348 35.8566 568.453 34.5631C569.558 33.2696 570.922 32.6111 572.545 32.5876C573.368 32.5876 574.121 32.7992 574.803 33.2226C575.485 33.6459 575.991 34.1751 576.32 34.8101C577.308 33.3284 578.495 32.5876 579.883 32.5876C580.753 32.5876 581.506 32.8463 582.141 33.3637C582.776 33.8811 583.105 34.5749 583.128 35.4451C583.128 36.1271 582.964 36.6798 582.635 37.1031C582.305 37.5265 581.988 37.7852 581.682 37.8792C581.376 37.9733 581.106 38.0203 580.871 38.0203C580.424 38.0203 580.059 37.891 579.777 37.6323C579.495 37.3736 579.354 37.0326 579.354 36.6092C579.354 35.5274 579.942 34.7866 581.118 34.3867C580.859 34.081 580.389 33.9281 579.707 33.9281C579.401 33.9281 579.177 33.9516 579.036 33.9987C578.143 34.375 577.484 35.1511 577.061 36.327C575.65 41.5246 574.944 44.5585 574.944 45.4286C574.944 46.0872 575.132 46.5575 575.508 46.8398C575.885 47.122 576.296 47.2631 576.743 47.2631C577.613 47.2631 578.472 46.875 579.318 46.0989C580.165 45.3228 580.741 44.3703 581.047 43.2414C581.118 43.0062 581.188 42.8769 581.259 42.8534C581.329 42.8299 581.517 42.8063 581.823 42.7828H581.964C582.317 42.7828 582.493 42.8769 582.493 43.065C582.493 43.0886 582.47 43.2179 582.423 43.4531C582.047 44.7936 581.318 45.9813 580.236 47.0161C579.154 48.051 577.896 48.5684 576.461 48.5684C574.815 48.5684 573.568 47.8275 572.722 46.3459C571.757 47.804 570.652 48.5331 569.405 48.5331H569.194C568.041 48.5331 567.218 48.2273 566.724 47.6159C566.23 47.0044 565.972 46.3576 565.948 45.6756C565.948 44.923 566.172 44.3115 566.619 43.8412C567.065 43.3708 567.595 43.1356 568.206 43.1356C569.217 43.1356 569.723 43.6295 569.723 44.6173C569.723 45.0876 569.582 45.4992 569.3 45.852C569.017 46.2048 568.747 46.4399 568.488 46.5575C568.23 46.6751 568.077 46.7339 568.03 46.7339L567.924 46.7692C567.924 46.7927 567.994 46.8398 568.135 46.9103C568.277 46.9809 568.465 47.0632 568.7 47.1573C568.935 47.2513 569.159 47.2866 569.37 47.2631C570.217 47.2631 570.946 46.7339 571.557 45.6756C571.769 45.2993 572.04 44.4997 572.369 43.2767C572.698 42.0538 573.027 40.7838 573.357 39.4667C573.686 38.1497 573.874 37.3736 573.921 37.1384C574.039 36.5034 574.097 36.0448 574.097 35.7626C574.097 35.1041 573.921 34.6337 573.568 34.3515C573.215 34.0692 572.816 33.9281 572.369 33.9281C571.428 33.9281 570.546 34.3044 569.723 35.057C568.9 35.8096 568.324 36.7739 567.994 37.9498C567.947 38.1614 567.889 38.279 567.818 38.3026C567.747 38.3261 567.559 38.3496 567.254 38.3731H566.76C566.619 38.232 566.548 38.1027 566.548 37.9851Z" fill="white"/>
</g>
<g id="Group_28">
<path id="Vector_23" d="M595.695 39.8195C595.695 39.8195 595.695 39.6666 595.695 39.3609C595.695 39.0551 595.859 38.8199 596.189 38.6553H616.685C617.038 38.8434 617.214 39.0786 617.214 39.3609C617.214 39.6431 617.038 39.8783 616.685 40.0664H596.189C595.859 39.9018 595.695 39.6666 595.695 39.3609V39.8195Z" fill="white"/>
</g>
<g id="Group_29">
<path id="Vector_24" d="M635.53 27.7899L635.071 27.9663C634.742 28.0839 634.272 28.2015 633.66 28.3191C633.049 28.4367 632.367 28.519 631.614 28.566H630.944V26.9433H631.614C632.719 26.8962 633.743 26.7198 634.683 26.4141C635.624 26.1084 636.283 25.8261 636.659 25.5674C637.035 25.3087 637.364 25.05 637.647 24.7913C637.694 24.7208 637.835 24.6855 638.07 24.6855C638.282 24.6855 638.482 24.7561 638.67 24.8972V35.4452L638.705 46.0285C638.87 46.1931 639.011 46.2989 639.128 46.346C639.246 46.393 639.528 46.4401 639.975 46.4871C640.422 46.5341 641.151 46.5576 642.162 46.5576H643.079V48.1804H642.691C642.197 48.1099 640.328 48.0746 637.082 48.0746C633.884 48.0746 632.037 48.1099 631.544 48.1804H631.12V46.5576H632.037C632.555 46.5576 633.002 46.5576 633.378 46.5576C633.754 46.5576 634.048 46.5459 634.26 46.5224C634.472 46.4989 634.66 46.4636 634.824 46.4165C634.989 46.3695 635.083 46.346 635.107 46.346C635.13 46.346 635.201 46.2872 635.318 46.1696C635.436 46.052 635.506 46.005 635.53 46.0285V27.7899Z" fill="white"/>
</g>
<g id="Group_30">
<path id="Vector_25" d="M647.771 21.7574L647.912 21.7221C648.03 21.7221 648.147 21.7221 648.265 21.7221H648.688L649.676 22.5688C651.887 24.5678 653.498 27.0608 654.509 30.0476C655.52 33.0345 656.026 36.1389 656.026 39.3609C656.026 40.9602 655.908 42.5006 655.673 43.9823C655.438 45.464 655.168 46.7222 654.862 47.757C654.556 48.7918 654.121 49.8266 653.557 50.8614C652.992 51.8963 652.545 52.6841 652.216 53.225C651.887 53.766 651.405 54.3657 650.77 55.0242C650.135 55.6827 649.758 56.0708 649.641 56.1884C649.523 56.306 649.253 56.5294 648.829 56.8586C648.759 56.9292 648.712 56.9762 648.688 56.9998H648.265C648.077 56.9998 647.948 56.9998 647.877 56.9998C647.806 56.9998 647.748 56.9645 647.701 56.8939C647.654 56.8234 647.618 56.7175 647.595 56.5764C647.618 56.5529 647.748 56.4 647.983 56.1178C651.628 52.3313 653.451 46.7457 653.451 39.3609C653.451 31.9761 651.628 26.3905 647.983 22.604C647.748 22.3218 647.618 22.1689 647.595 22.1454C647.595 21.9573 647.654 21.8279 647.771 21.7574Z" fill="white"/>
</g>
<g id="Group_31">
<path id="Vector_26" d="M662.694 39.3609C662.694 37.7382 662.811 36.1977 663.047 34.7396C663.282 33.2814 663.552 32.0232 663.858 30.9648C664.164 29.9065 664.599 28.8717 665.163 27.8604C665.728 26.8491 666.175 26.0612 666.504 25.4968C666.833 24.9324 667.327 24.3209 667.985 23.6624C668.644 23.0038 669.032 22.604 669.15 22.4629C669.267 22.3218 669.561 22.0749 670.032 21.7221H670.49H670.631C670.961 21.7221 671.125 21.8279 671.125 22.0396C671.125 22.1101 670.925 22.3571 670.525 22.7804C670.126 23.2038 669.644 23.827 669.079 24.6501C668.515 25.4733 667.938 26.4846 667.35 27.684C666.763 28.8835 666.269 30.5062 665.869 32.5523C665.469 34.5984 665.269 36.868 665.269 39.3609C665.269 41.8539 665.469 44.1117 665.869 46.1342C666.269 48.1568 666.751 49.7914 667.315 51.0378C667.88 52.2843 668.456 53.2956 669.044 54.0717C669.632 54.8478 670.126 55.4711 670.525 55.9414C670.925 56.4118 671.125 56.6587 671.125 56.6823C671.125 56.8939 670.949 56.9998 670.596 56.9998H670.49H670.032L669.044 56.1531C666.833 54.154 665.222 51.6611 664.211 48.6742C663.199 45.6874 662.694 42.583 662.694 39.3609Z" fill="white"/>
</g>
<g id="Group_32">
<g id="Group_33">
<path id="Vector_27" d="M674.935 37.9851C675.1 36.9973 675.735 35.8566 676.84 34.5631C677.946 33.2696 679.31 32.6111 680.932 32.5876C681.756 32.5876 682.508 32.7992 683.19 33.2226C683.872 33.6459 684.378 34.1751 684.707 34.8101C685.695 33.3284 686.883 32.5876 688.27 32.5876C689.14 32.5876 689.893 32.8463 690.528 33.3637C691.163 33.8811 691.492 34.5749 691.516 35.4451C691.516 36.1271 691.351 36.6798 691.022 37.1031C690.693 37.5265 690.375 37.7852 690.069 37.8792C689.764 37.9733 689.493 38.0203 689.258 38.0203C688.811 38.0203 688.447 37.891 688.164 37.6323C687.882 37.3736 687.741 37.0326 687.741 36.6092C687.741 35.5274 688.329 34.7866 689.505 34.3867C689.246 34.081 688.776 33.9281 688.094 33.9281C687.788 33.9281 687.565 33.9516 687.423 33.9987C686.53 34.375 685.871 35.1511 685.448 36.327C684.037 41.5246 683.331 44.5585 683.331 45.4286C683.331 46.0872 683.519 46.5575 683.896 46.8398C684.272 47.122 684.684 47.2631 685.13 47.2631C686.001 47.2631 686.859 46.875 687.706 46.0989C688.552 45.3228 689.129 44.3703 689.434 43.2414C689.505 43.0062 689.575 42.8769 689.646 42.8534C689.717 42.8299 689.905 42.8063 690.21 42.7828H690.352C690.704 42.7828 690.881 42.8769 690.881 43.065C690.881 43.0886 690.857 43.2179 690.81 43.4531C690.434 44.7936 689.705 45.9813 688.623 47.0161C687.541 48.051 686.283 48.5684 684.848 48.5684C683.202 48.5684 681.955 47.8275 681.109 46.3459C680.145 47.804 679.039 48.5331 677.793 48.5331H677.581C676.429 48.5331 675.605 48.2273 675.112 47.6159C674.618 47.0044 674.359 46.3576 674.335 45.6756C674.335 44.923 674.559 44.3115 675.006 43.8412C675.453 43.3708 675.982 43.1356 676.593 43.1356C677.605 43.1356 678.11 43.6295 678.11 44.6173C678.11 45.0876 677.969 45.4992 677.687 45.852C677.405 46.2048 677.134 46.4399 676.875 46.5575C676.617 46.6751 676.464 46.7339 676.417 46.7339L676.311 46.7692C676.311 46.7927 676.382 46.8398 676.523 46.9103C676.664 46.9809 676.852 47.0632 677.087 47.1573C677.322 47.2513 677.546 47.2866 677.757 47.2631C678.604 47.2631 679.333 46.7339 679.945 45.6756C680.156 45.2993 680.427 44.4997 680.756 43.2767C681.085 42.0538 681.414 40.7838 681.744 39.4667C682.073 38.1497 682.261 37.3736 682.308 37.1384C682.426 36.5034 682.485 36.0448 682.485 35.7626C682.485 35.1041 682.308 34.6337 681.955 34.3515C681.603 34.0692 681.203 33.9281 680.756 33.9281C679.815 33.9281 678.933 34.3044 678.11 35.057C677.287 35.8096 676.711 36.7739 676.382 37.9498C676.335 38.1614 676.276 38.279 676.205 38.3026C676.135 38.3261 675.946 38.3496 675.641 38.3731H675.147C675.006 38.232 674.935 38.1027 674.935 37.9851Z" fill="white"/>
</g>
<g id="Group_34">
<path id="Vector_28" d="M695.998 22.911C695.549 22.911 695.191 22.7614 694.925 22.4621C694.659 22.1628 694.526 21.797 694.526 21.3647C694.526 20.1841 694.967 19.1615 695.848 18.2969C696.73 17.4322 697.827 16.9999 699.141 16.9999C700.654 16.9999 701.917 17.4655 702.932 18.3966C703.946 19.3278 704.461 20.5333 704.478 22.0131C704.478 22.7281 704.312 23.4098 703.979 24.0583C703.647 24.7068 703.248 25.2721 702.782 25.7543C702.316 26.2365 701.651 26.8517 700.787 27.6C700.188 28.1154 699.357 28.8803 698.293 29.8946L696.821 31.2913L698.717 31.3162C701.327 31.3162 702.715 31.2747 702.882 31.1915C702.998 31.1583 703.198 30.4184 703.48 28.9718V28.8969H704.478V28.9718C704.461 29.0216 704.353 29.7782 704.154 31.2414C703.954 32.7046 703.829 33.4695 703.78 33.536V33.6108H694.526V33.137V32.8377C694.526 32.7213 694.576 32.5966 694.676 32.4635C694.776 32.3305 695.025 32.0395 695.424 31.5906C695.906 31.0585 696.322 30.5929 696.671 30.1939C696.821 30.0276 697.104 29.72 697.519 29.2711C697.935 28.8221 698.218 28.5145 698.367 28.3482C698.517 28.1819 698.758 27.9076 699.091 27.5252C699.423 27.1427 699.656 26.8601 699.789 26.6772C699.922 26.4943 700.113 26.2448 700.363 25.9289C700.612 25.613 700.787 25.347 700.886 25.1308C700.986 24.9146 701.111 24.6735 701.261 24.4075C701.41 24.1415 701.518 23.8754 701.585 23.6094C701.651 23.3433 701.709 23.0939 701.759 22.8611C701.809 22.6284 701.834 22.354 701.834 22.0381C701.834 20.9905 701.552 20.0843 700.986 19.3195C700.421 18.5546 699.614 18.1722 698.567 18.1722C698.018 18.1722 697.536 18.3135 697.12 18.5962C696.705 18.8788 696.414 19.1532 696.247 19.4192C696.081 19.6853 695.998 19.8432 695.998 19.8931C695.998 19.9097 696.039 19.9181 696.123 19.9181C696.422 19.9181 696.73 20.0345 697.045 20.2672C697.361 20.5 697.519 20.8825 697.519 21.4145C697.519 21.8302 697.386 22.1794 697.12 22.4621C696.854 22.7447 696.48 22.8944 695.998 22.911Z" fill="white"/>
</g>
</g>
<g id="Group_35">
<path id="Vector_29" d="M717.332 39.8194C717.332 39.8194 717.332 39.6666 717.332 39.3608C717.332 39.0551 717.496 38.8199 717.825 38.6553H728.373V33.3636L728.409 28.072C728.644 27.7662 728.867 27.6134 729.079 27.6134C729.385 27.6134 729.62 27.7897 729.785 28.1425V38.6553H740.297C740.65 38.8434 740.826 39.0786 740.826 39.3608C740.826 39.643 740.65 39.8782 740.297 40.0664H729.785V50.5791C729.596 50.9084 729.385 51.073 729.15 51.073H729.079H729.008C728.726 51.073 728.515 50.9084 728.373 50.5791V40.0664H717.825C717.496 39.9017 717.332 39.6666 717.332 39.3608V39.8194Z" fill="white"/>
</g>
<g id="Group_36">
<path id="Vector_30" d="M752.476 37.9851C752.641 36.9973 753.276 35.8566 754.381 34.5631C755.487 33.2696 756.851 32.6111 758.473 32.5876C759.297 32.5876 760.049 32.7992 760.731 33.2226C761.413 33.6459 761.919 34.1751 762.248 34.8101C763.236 33.3284 764.424 32.5876 765.811 32.5876C766.681 32.5876 767.434 32.8463 768.069 33.3637C768.704 33.8811 769.033 34.5749 769.057 35.4451C769.057 36.1271 768.892 36.6798 768.563 37.1031C768.234 37.5265 767.916 37.7852 767.61 37.8792C767.305 37.9733 767.034 38.0203 766.799 38.0203C766.352 38.0203 765.988 37.891 765.705 37.6323C765.423 37.3736 765.282 37.0326 765.282 36.6092C765.282 35.5274 765.87 34.7866 767.046 34.3867C766.787 34.081 766.317 33.9281 765.635 33.9281C765.329 33.9281 765.106 33.9516 764.964 33.9987C764.071 34.375 763.412 35.1511 762.989 36.327C761.578 41.5246 760.872 44.5585 760.872 45.4286C760.872 46.0872 761.06 46.5575 761.437 46.8398C761.813 47.122 762.225 47.2631 762.671 47.2631C763.542 47.2631 764.4 46.875 765.247 46.0989C766.093 45.3228 766.67 44.3703 766.975 43.2414C767.046 43.0062 767.116 42.8769 767.187 42.8534C767.258 42.8299 767.446 42.8063 767.751 42.7828H767.893C768.245 42.7828 768.422 42.8769 768.422 43.065C768.422 43.0886 768.398 43.2179 768.351 43.4531C767.975 44.7936 767.246 45.9813 766.164 47.0161C765.082 48.051 763.824 48.5684 762.389 48.5684C760.743 48.5684 759.496 47.8275 758.65 46.3459C757.686 47.804 756.58 48.5331 755.334 48.5331H755.122C753.97 48.5331 753.146 48.2273 752.653 47.6159C752.159 47.0044 751.9 46.3576 751.876 45.6756C751.876 44.923 752.1 44.3115 752.547 43.8412C752.994 43.3708 753.523 43.1356 754.134 43.1356C755.146 43.1356 755.651 43.6295 755.651 44.6173C755.651 45.0876 755.51 45.4992 755.228 45.852C754.946 46.2048 754.675 46.4399 754.416 46.5575C754.158 46.6751 754.005 46.7339 753.958 46.7339L753.852 46.7692C753.852 46.7927 753.923 46.8398 754.064 46.9103C754.205 46.9809 754.393 47.0632 754.628 47.1573C754.863 47.2513 755.087 47.2866 755.298 47.2631C756.145 47.2631 756.874 46.7339 757.486 45.6756C757.697 45.2993 757.968 44.4997 758.297 43.2767C758.626 42.0538 758.956 40.7838 759.285 39.4667C759.614 38.1497 759.802 37.3736 759.849 37.1384C759.967 36.5034 760.026 36.0448 760.026 35.7626C760.026 35.1041 759.849 34.6337 759.496 34.3515C759.144 34.0692 758.744 33.9281 758.297 33.9281C757.356 33.9281 756.474 34.3044 755.651 35.057C754.828 35.8096 754.252 36.7739 753.923 37.9498C753.876 38.1614 753.817 38.279 753.746 38.3026C753.676 38.3261 753.487 38.3496 753.182 38.3731H752.688C752.547 38.232 752.476 38.1027 752.476 37.9851Z" fill="white"/>
</g>
<g id="Group_37">
<path id="Vector_31" d="M780.635 39.8194C780.635 39.8194 780.635 39.6666 780.635 39.3608C780.635 39.0551 780.799 38.8199 781.129 38.6553H791.677V33.3636L791.712 28.072C791.947 27.7662 792.171 27.6134 792.382 27.6134C792.688 27.6134 792.923 27.7897 793.088 28.1425V38.6553H803.601C803.953 38.8434 804.13 39.0786 804.13 39.3608C804.13 39.643 803.953 39.8782 803.601 40.0664H793.088V50.5791C792.9 50.9084 792.688 51.073 792.453 51.073H792.382H792.312C792.029 51.073 791.818 50.9084 791.677 50.5791V40.0664H781.129C780.799 39.9017 780.635 39.6666 780.635 39.3608V39.8194Z" fill="white"/>
</g>
<g id="Group_38">
<path id="Vector_32" d="M821.458 27.7899L821 27.9663C820.67 28.0839 820.2 28.2015 819.588 28.3191C818.977 28.4367 818.295 28.519 817.542 28.566H816.872V26.9433H817.542C818.648 26.8962 819.671 26.7198 820.612 26.4141C821.552 26.1084 822.211 25.8261 822.587 25.5674C822.963 25.3087 823.293 25.05 823.575 24.7913C823.622 24.7208 823.763 24.6855 823.998 24.6855C824.21 24.6855 824.41 24.7561 824.598 24.8972V35.4452L824.633 46.0285C824.798 46.1931 824.939 46.2989 825.056 46.346C825.174 46.393 825.456 46.4401 825.903 46.4871C826.35 46.5341 827.079 46.5576 828.09 46.5576H829.008V48.1804H828.62C828.126 48.1099 826.256 48.0746 823.01 48.0746C819.812 48.0746 817.966 48.1099 817.472 48.1804H817.048V46.5576H817.966C818.483 46.5576 818.93 46.5576 819.306 46.5576C819.683 46.5576 819.977 46.5459 820.188 46.5224C820.4 46.4989 820.588 46.4636 820.753 46.4165C820.917 46.3695 821.011 46.346 821.035 46.346C821.058 46.346 821.129 46.2872 821.247 46.1696C821.364 46.052 821.435 46.005 821.458 46.0285V27.7899Z" fill="white"/>
</g>
<g id="Group_39">
<path id="Vector_33" d="M833.699 21.7574L833.84 21.7221C833.958 21.7221 834.075 21.7221 834.193 21.7221H834.616L835.604 22.5688C837.815 24.5678 839.426 27.0608 840.437 30.0476C841.448 33.0345 841.954 36.1389 841.954 39.3609C841.954 40.9602 841.836 42.5006 841.601 43.9823C841.366 45.464 841.095 46.7222 840.79 47.757C840.484 48.7918 840.049 49.8266 839.484 50.8614C838.92 51.8963 838.473 52.6841 838.144 53.225C837.815 53.766 837.332 54.3657 836.697 55.0242C836.062 55.6827 835.686 56.0708 835.569 56.1884C835.451 56.306 835.181 56.5294 834.757 56.8586C834.687 56.9292 834.64 56.9762 834.616 56.9998H834.193C834.005 56.9998 833.875 56.9998 833.805 56.9998C833.734 56.9998 833.675 56.9645 833.628 56.8939C833.581 56.8234 833.546 56.7175 833.522 56.5764C833.546 56.5529 833.675 56.4 833.911 56.1178C837.556 52.3313 839.379 46.7457 839.379 39.3609C839.379 31.9761 837.556 26.3905 833.911 22.604C833.675 22.3218 833.546 22.1689 833.522 22.1454C833.522 21.9573 833.581 21.8279 833.699 21.7574Z" fill="white"/>
</g>
</g>
<rect x="2" y="-2" width="447.954" height="55.9997" transform="matrix(1 0 0 -1 400 62.9998)" stroke="#E79720" stroke-width="4"/>
</g>
<g id="x^3-1=(x-1)(x^2+x+1)\;\;x^3-1=(x-1)(0)\;\;\Rightarrow\;\;x^3-1=0\;\;\therefore \;x^3=1">
<g id="Group_40">
<g id="Group 305">
<g id="Group_41">
<g id="Group_42">
<path id="Vector_34" d="M453.675 129.581C453.86 128.469 454.574 127.186 455.818 125.731C457.061 124.276 458.596 123.535 460.422 123.508C461.348 123.508 462.194 123.747 462.962 124.223C463.729 124.699 464.298 125.294 464.668 126.009C465.779 124.342 467.115 123.508 468.677 123.508C469.655 123.508 470.502 123.799 471.217 124.382C471.931 124.964 472.301 125.744 472.328 126.723C472.328 127.49 472.143 128.112 471.772 128.588C471.402 129.065 471.045 129.356 470.701 129.462C470.357 129.567 470.052 129.62 469.788 129.62C469.285 129.62 468.875 129.475 468.557 129.184C468.24 128.893 468.081 128.509 468.081 128.033C468.081 126.816 468.743 125.982 470.066 125.532C469.775 125.189 469.245 125.017 468.478 125.017C468.134 125.017 467.883 125.043 467.724 125.096C466.719 125.519 465.978 126.392 465.502 127.715C463.914 133.563 463.12 136.976 463.12 137.955C463.12 138.695 463.332 139.225 463.755 139.542C464.179 139.86 464.642 140.018 465.144 140.018C466.123 140.018 467.089 139.582 468.042 138.709C468.994 137.836 469.642 136.764 469.986 135.494C470.066 135.229 470.145 135.084 470.224 135.057C470.304 135.031 470.515 135.005 470.859 134.978H471.018C471.415 134.978 471.613 135.084 471.613 135.296C471.613 135.322 471.587 135.468 471.534 135.732C471.111 137.24 470.29 138.576 469.073 139.741C467.856 140.905 466.441 141.487 464.827 141.487C462.975 141.487 461.572 140.653 460.62 138.987C459.535 140.627 458.292 141.447 456.889 141.447H456.651C455.355 141.447 454.429 141.103 453.873 140.415C453.317 139.727 453.026 139 453 138.232C453 137.386 453.251 136.698 453.754 136.169C454.257 135.64 454.852 135.375 455.54 135.375C456.678 135.375 457.247 135.931 457.247 137.042C457.247 137.571 457.088 138.034 456.77 138.431C456.453 138.828 456.149 139.092 455.857 139.225C455.566 139.357 455.394 139.423 455.342 139.423L455.222 139.463C455.222 139.489 455.302 139.542 455.461 139.622C455.619 139.701 455.831 139.793 456.096 139.899C456.36 140.005 456.612 140.045 456.85 140.018C457.802 140.018 458.622 139.423 459.31 138.232C459.548 137.809 459.853 136.91 460.223 135.534C460.594 134.158 460.964 132.729 461.334 131.247C461.705 129.766 461.916 128.893 461.969 128.628C462.102 127.914 462.168 127.398 462.168 127.08C462.168 126.339 461.969 125.81 461.572 125.493C461.176 125.175 460.726 125.017 460.223 125.017C459.165 125.017 458.173 125.44 457.247 126.287C456.321 127.133 455.672 128.218 455.302 129.541C455.249 129.779 455.183 129.911 455.103 129.938C455.024 129.964 454.812 129.991 454.468 130.017H453.913C453.754 129.858 453.675 129.713 453.675 129.581Z" fill="white"/>
</g>
<g id="Group_43">
<path id="Vector_35" d="M477.874 111.668C477.369 111.668 476.976 111.509 476.696 111.191C476.415 110.873 476.266 110.461 476.247 109.956C476.247 108.927 476.696 108.011 477.594 107.206C478.492 106.402 479.577 106 480.849 106C481.503 106 481.915 106.009 482.083 106.028C483.467 106.252 484.524 106.748 485.254 107.515C485.983 108.282 486.357 109.114 486.376 110.012C486.376 110.985 486.058 111.93 485.422 112.846C484.786 113.763 483.907 114.427 482.785 114.838L482.7 114.895C482.7 114.913 482.785 114.941 482.953 114.979C483.121 115.016 483.393 115.1 483.767 115.231C484.141 115.362 484.496 115.559 484.833 115.82C486.367 116.812 487.134 118.121 487.134 119.749C487.134 121.227 486.554 122.517 485.394 123.621C484.234 124.725 482.766 125.276 480.989 125.276C479.492 125.276 478.202 124.874 477.117 124.07C476.032 123.265 475.489 122.246 475.489 121.011C475.489 120.488 475.658 120.067 475.994 119.749C476.331 119.431 476.752 119.262 477.257 119.244C477.781 119.244 478.211 119.412 478.548 119.749C478.884 120.085 479.053 120.506 479.053 121.011C479.053 121.217 479.025 121.404 478.969 121.573C478.912 121.741 478.847 121.891 478.772 122.022C478.697 122.152 478.594 122.265 478.464 122.358C478.333 122.452 478.22 122.527 478.127 122.583C478.033 122.639 477.94 122.676 477.846 122.695C477.753 122.714 477.678 122.742 477.622 122.779L477.51 122.807C478.464 123.649 479.623 124.07 480.989 124.07C482.018 124.07 482.794 123.574 483.318 122.583C483.636 121.965 483.795 121.021 483.795 119.749V119.188C483.795 117.411 483.196 116.223 481.999 115.624C481.718 115.512 481.148 115.446 480.287 115.428L479.109 115.4L479.025 115.343C478.987 115.287 478.969 115.138 478.969 114.895C478.969 114.558 479.043 114.389 479.193 114.389C479.717 114.389 480.259 114.343 480.82 114.249C481.456 114.156 482.036 113.763 482.56 113.071C483.084 112.379 483.346 111.331 483.346 109.928V109.704C483.346 108.637 483.018 107.899 482.364 107.487C481.952 107.225 481.513 107.094 481.045 107.094C480.446 107.094 479.895 107.197 479.389 107.403C478.884 107.609 478.529 107.824 478.323 108.048C478.117 108.273 478.015 108.385 478.015 108.385H478.099C478.155 108.404 478.23 108.422 478.323 108.441C478.417 108.46 478.51 108.506 478.604 108.581C478.697 108.656 478.81 108.722 478.941 108.778C479.071 108.834 479.165 108.937 479.221 109.086C479.277 109.236 479.352 109.376 479.446 109.507C479.539 109.638 479.567 109.825 479.53 110.068C479.53 110.48 479.399 110.845 479.137 111.163C478.875 111.481 478.454 111.649 477.874 111.668Z" fill="white"/>
</g>
</g>
<g id="Group_44">
<path id="Vector_36" d="M502.482 131.644C502.482 131.644 502.482 131.472 502.482 131.128C502.482 130.784 502.667 130.519 503.038 130.334H526.096C526.493 130.546 526.691 130.81 526.691 131.128C526.691 131.445 526.493 131.71 526.096 131.922H503.038C502.667 131.736 502.482 131.472 502.482 131.128V131.644Z" fill="white"/>
</g>
<g id="Group_45">
<path id="Vector_37" d="M547.295 118.111L546.779 118.309C546.408 118.441 545.879 118.574 545.191 118.706C544.503 118.838 543.736 118.931 542.889 118.984H542.135V117.158H542.889C544.133 117.105 545.284 116.907 546.342 116.563C547.4 116.219 548.141 115.901 548.565 115.61C548.988 115.319 549.358 115.028 549.676 114.737C549.729 114.658 549.888 114.618 550.152 114.618C550.39 114.618 550.615 114.698 550.827 114.856V126.723L550.866 138.629C551.052 138.814 551.21 138.933 551.343 138.986C551.475 139.039 551.793 139.092 552.295 139.145C552.798 139.198 553.618 139.224 554.756 139.224H555.788V141.05H555.351C554.796 140.971 552.692 140.931 549.041 140.931C545.443 140.931 543.366 140.971 542.81 141.05H542.334V139.224H543.366C543.948 139.224 544.45 139.224 544.874 139.224C545.297 139.224 545.628 139.211 545.866 139.185C546.104 139.158 546.316 139.119 546.501 139.066C546.686 139.013 546.792 138.986 546.818 138.986C546.845 138.986 546.924 138.92 547.056 138.788C547.189 138.656 547.268 138.603 547.295 138.629V118.111Z" fill="white"/>
</g>
<g id="Group_46">
<path id="Vector_38" d="M571.936 127.279C571.936 126.935 572.121 126.67 572.491 126.485H597.772C598.169 126.697 598.367 126.961 598.367 127.279C598.367 127.57 598.182 127.821 597.812 128.033L585.191 128.073H572.571C572.147 127.94 571.936 127.676 571.936 127.279ZM571.936 134.978C571.936 134.581 572.147 134.317 572.571 134.184H597.812C598.182 134.449 598.367 134.714 598.367 134.978C598.367 135.322 598.169 135.587 597.772 135.772H572.491C572.121 135.587 571.936 135.322 571.936 134.978Z" fill="white"/>
</g>
<g id="Group_47">
<path id="Vector_39" d="M615.341 131.128C615.341 129.302 615.474 127.569 615.738 125.929C616.003 124.289 616.307 122.873 616.651 121.682C616.995 120.492 617.484 119.328 618.119 118.19C618.754 117.052 619.257 116.166 619.628 115.531C619.998 114.896 620.554 114.208 621.294 113.467C622.035 112.726 622.472 112.276 622.604 112.118C622.736 111.959 623.067 111.681 623.596 111.284H624.112H624.271C624.641 111.284 624.827 111.403 624.827 111.642C624.827 111.721 624.602 111.999 624.152 112.475C623.702 112.951 623.16 113.652 622.525 114.578C621.89 115.504 621.241 116.642 620.58 117.991C619.919 119.341 619.363 121.166 618.913 123.468C618.463 125.77 618.238 128.323 618.238 131.128C618.238 133.933 618.463 136.473 618.913 138.748C619.363 141.023 619.905 142.862 620.54 144.265C621.175 145.667 621.824 146.805 622.485 147.678C623.146 148.551 623.702 149.252 624.152 149.781C624.602 150.31 624.827 150.588 624.827 150.614C624.827 150.853 624.628 150.972 624.231 150.972H624.112H623.596L622.485 150.019C619.998 147.77 618.186 144.966 617.048 141.605C615.91 138.245 615.341 134.753 615.341 131.128Z" fill="white"/>
</g>
<g id="Group_48">
<path id="Vector_40" d="M629.112 129.581C629.297 128.469 630.012 127.186 631.255 125.731C632.499 124.276 634.033 123.535 635.859 123.508C636.785 123.508 637.632 123.747 638.399 124.223C639.166 124.699 639.735 125.294 640.106 126.009C641.217 124.342 642.553 123.508 644.114 123.508C645.093 123.508 645.94 123.799 646.654 124.382C647.368 124.964 647.739 125.744 647.765 126.723C647.765 127.49 647.58 128.112 647.21 128.588C646.839 129.065 646.482 129.356 646.138 129.462C645.794 129.567 645.49 129.62 645.225 129.62C644.723 129.62 644.312 129.475 643.995 129.184C643.677 128.893 643.519 128.509 643.519 128.033C643.519 126.816 644.18 125.982 645.503 125.532C645.212 125.189 644.683 125.017 643.916 125.017C643.572 125.017 643.32 125.043 643.162 125.096C642.156 125.519 641.415 126.392 640.939 127.715C639.352 133.563 638.558 136.976 638.558 137.955C638.558 138.695 638.769 139.225 639.193 139.542C639.616 139.86 640.079 140.018 640.582 140.018C641.561 140.018 642.527 139.582 643.479 138.709C644.432 137.836 645.08 136.764 645.424 135.494C645.503 135.229 645.582 135.084 645.662 135.057C645.741 135.031 645.953 135.005 646.297 134.978H646.456C646.852 134.978 647.051 135.084 647.051 135.296C647.051 135.322 647.024 135.468 646.972 135.732C646.548 137.24 645.728 138.576 644.511 139.741C643.294 140.905 641.878 141.487 640.264 141.487C638.412 141.487 637.01 140.653 636.057 138.987C634.973 140.627 633.729 141.447 632.327 141.447H632.089C630.792 141.447 629.866 141.103 629.311 140.415C628.755 139.727 628.464 139 628.438 138.232C628.438 137.386 628.689 136.698 629.192 136.169C629.694 135.64 630.29 135.375 630.977 135.375C632.115 135.375 632.684 135.931 632.684 137.042C632.684 137.571 632.525 138.034 632.208 138.431C631.89 138.828 631.586 139.092 631.295 139.225C631.004 139.357 630.832 139.423 630.779 139.423L630.66 139.463C630.66 139.489 630.739 139.542 630.898 139.622C631.057 139.701 631.269 139.793 631.533 139.899C631.798 140.005 632.049 140.045 632.287 140.018C633.24 140.018 634.06 139.423 634.748 138.232C634.986 137.809 635.29 136.91 635.661 135.534C636.031 134.158 636.401 132.729 636.772 131.247C637.142 129.766 637.354 128.893 637.407 128.628C637.539 127.914 637.605 127.398 637.605 127.08C637.605 126.339 637.407 125.81 637.01 125.493C636.613 125.175 636.163 125.017 635.661 125.017C634.602 125.017 633.61 125.44 632.684 126.287C631.758 127.133 631.11 128.218 630.739 129.541C630.686 129.779 630.62 129.911 630.541 129.938C630.462 129.964 630.25 129.991 629.906 130.017H629.35C629.192 129.858 629.112 129.713 629.112 129.581Z" fill="white"/>
</g>
<g id="Group_49">
<path id="Vector_41" d="M661.906 131.644C661.906 131.644 661.906 131.472 661.906 131.128C661.906 130.784 662.091 130.519 662.461 130.334H685.52C685.917 130.546 686.115 130.81 686.115 131.128C686.115 131.445 685.917 131.71 685.52 131.922H662.461C662.091 131.736 661.906 131.472 661.906 131.128V131.644Z" fill="white"/>
</g>
<g id="Group_50">
<path id="Vector_42" d="M706.719 118.111L706.203 118.309C705.833 118.441 705.303 118.574 704.615 118.706C703.928 118.838 703.16 118.931 702.314 118.984H701.56V117.158H702.314C703.557 117.105 704.708 116.907 705.766 116.563C706.825 116.219 707.566 115.901 707.989 115.61C708.412 115.319 708.783 115.028 709.1 114.737C709.153 114.658 709.312 114.618 709.576 114.618C709.815 114.618 710.039 114.698 710.251 114.856V126.723L710.291 138.629C710.476 138.814 710.635 138.933 710.767 138.986C710.899 139.039 711.217 139.092 711.72 139.145C712.222 139.198 713.042 139.224 714.18 139.224H715.212V141.05H714.775C714.22 140.971 712.116 140.931 708.465 140.931C704.867 140.931 702.79 140.971 702.234 141.05H701.758V139.224H702.79C703.372 139.224 703.875 139.224 704.298 139.224C704.721 139.224 705.052 139.211 705.29 139.185C705.528 139.158 705.74 139.119 705.925 139.066C706.11 139.013 706.216 138.986 706.243 138.986C706.269 138.986 706.349 138.92 706.481 138.788C706.613 138.656 706.692 138.603 706.719 138.629V118.111Z" fill="white"/>
</g>
<g id="Group_51">
<path id="Vector_43" d="M720.492 111.324L720.651 111.284C720.783 111.284 720.916 111.284 721.048 111.284H721.524L722.636 112.237C725.123 114.486 726.935 117.29 728.073 120.651C729.21 124.011 729.779 127.503 729.779 131.128C729.779 132.927 729.647 134.66 729.382 136.327C729.118 137.994 728.814 139.409 728.47 140.574C728.126 141.738 727.636 142.902 727.001 144.066C726.366 145.23 725.863 146.117 725.493 146.725C725.123 147.334 724.58 148.008 723.866 148.749C723.151 149.49 722.728 149.927 722.596 150.059C722.464 150.191 722.159 150.443 721.683 150.813C721.604 150.892 721.551 150.945 721.524 150.972H721.048C720.836 150.972 720.691 150.972 720.611 150.972C720.532 150.972 720.466 150.932 720.413 150.853C720.36 150.773 720.32 150.654 720.294 150.495C720.32 150.469 720.466 150.297 720.731 149.979C724.832 145.72 726.882 139.436 726.882 131.128C726.882 122.82 724.832 116.536 720.731 112.276C720.466 111.959 720.32 111.787 720.294 111.761C720.294 111.549 720.36 111.403 720.492 111.324Z" fill="white"/>
</g>
<g id="Group_52">
<path id="Vector_44" d="M737.281 131.128C737.281 129.302 737.413 127.569 737.678 125.929C737.942 124.289 738.246 122.873 738.59 121.682C738.934 120.492 739.424 119.328 740.059 118.19C740.694 117.052 741.197 116.166 741.567 115.531C741.937 114.896 742.493 114.208 743.234 113.467C743.975 112.726 744.411 112.276 744.544 112.118C744.676 111.959 745.007 111.681 745.536 111.284H746.052H746.21C746.581 111.284 746.766 111.403 746.766 111.642C746.766 111.721 746.541 111.999 746.091 112.475C745.642 112.951 745.099 113.652 744.464 114.578C743.829 115.504 743.181 116.642 742.519 117.991C741.858 119.341 741.302 121.166 740.853 123.468C740.403 125.77 740.178 128.323 740.178 131.128C740.178 133.933 740.403 136.473 740.853 138.748C741.302 141.023 741.845 142.862 742.48 144.265C743.115 145.667 743.763 146.805 744.424 147.678C745.086 148.551 745.642 149.252 746.091 149.781C746.541 150.31 746.766 150.588 746.766 150.614C746.766 150.853 746.568 150.972 746.171 150.972H746.052H745.536L744.424 150.019C741.937 147.77 740.125 144.966 738.987 141.605C737.85 138.245 737.281 134.753 737.281 131.128Z" fill="white"/>
</g>
<g id="Group_53">
<path id="Vector_45" d="M752.797 117.833C754.279 115.69 756.303 114.619 758.87 114.619C760.139 114.619 761.409 114.963 762.679 115.651C763.949 116.338 764.981 117.556 765.775 119.302C766.754 121.498 767.244 124.514 767.244 128.351C767.244 132.452 766.675 135.587 765.537 137.756C765.008 138.868 764.28 139.754 763.354 140.415C762.428 141.077 761.621 141.487 760.933 141.646C760.245 141.805 759.571 141.897 758.909 141.924C758.221 141.924 757.533 141.844 756.845 141.685C756.158 141.527 755.351 141.103 754.425 140.415C753.498 139.728 752.771 138.841 752.242 137.756C751.104 135.587 750.535 132.452 750.535 128.351C750.535 123.747 751.289 120.241 752.797 117.833ZM761.727 117.357C760.933 116.51 759.994 116.087 758.909 116.087C757.798 116.087 756.845 116.51 756.052 117.357C755.39 118.045 754.954 118.998 754.742 120.215C754.53 121.432 754.425 123.972 754.425 127.835C754.425 132.015 754.53 134.767 754.742 136.09C754.954 137.412 755.43 138.458 756.171 139.225C756.912 140.019 757.824 140.415 758.909 140.415C759.968 140.415 760.867 140.019 761.608 139.225C762.375 138.431 762.851 137.32 763.037 135.891C763.222 134.462 763.328 131.777 763.354 127.835C763.354 123.998 763.248 121.471 763.037 120.254C762.825 119.037 762.388 118.071 761.727 117.357Z" fill="white"/>
</g>
<g id="Group_54">
<path id="Vector_46" d="M771.212 111.324L771.37 111.284C771.503 111.284 771.635 111.284 771.767 111.284H772.243L773.355 112.237C775.842 114.486 777.654 117.29 778.792 120.651C779.93 124.011 780.498 127.503 780.498 131.128C780.498 132.927 780.366 134.66 780.102 136.327C779.837 137.994 779.533 139.409 779.189 140.574C778.845 141.738 778.355 142.902 777.72 144.066C777.085 145.23 776.583 146.117 776.212 146.725C775.842 147.334 775.299 148.008 774.585 148.749C773.871 149.49 773.447 149.927 773.315 150.059C773.183 150.191 772.878 150.443 772.402 150.813C772.323 150.892 772.27 150.945 772.243 150.972H771.767C771.556 150.972 771.41 150.972 771.331 150.972C771.251 150.972 771.185 150.932 771.132 150.853C771.079 150.773 771.04 150.654 771.013 150.495C771.04 150.469 771.185 150.297 771.45 149.979C775.551 145.72 777.601 139.436 777.601 131.128C777.601 122.82 775.551 116.536 771.45 112.276C771.185 111.959 771.04 111.787 771.013 111.761C771.013 111.549 771.079 111.403 771.212 111.324Z" fill="white"/>
</g>
</g>
<g id="Group 304">
<g id="Group_55">
<path id="Vector_47" d="M449.796 190.41C449.796 190.119 450.008 189.973 450.431 189.973C450.563 189.973 450.669 189.973 450.749 189.973C450.828 189.973 450.894 189.973 450.947 189.973C451 189.973 451.053 189.986 451.106 190.013C451.159 190.039 451.185 190.052 451.185 190.052C451.185 190.052 451.212 190.092 451.265 190.172C451.318 190.251 451.344 190.291 451.344 190.291C451.344 190.291 451.384 190.357 451.463 190.489C452.442 192.447 453.738 194.18 455.352 195.688C456.966 197.196 458.435 198.268 459.758 198.903C461.081 199.538 462.351 200.027 463.568 200.371C464.017 200.503 464.242 200.675 464.242 200.887C464.242 201.099 464.123 201.244 463.885 201.324C463.647 201.403 463.158 201.549 462.417 201.76C461.676 201.972 460.909 202.289 460.115 202.713C456.305 204.565 453.421 207.422 451.463 211.285C451.357 211.523 451.265 211.656 451.185 211.682C451.106 211.709 450.907 211.735 450.59 211.761C450.061 211.761 449.796 211.669 449.796 211.484C449.796 211.378 449.862 211.153 449.995 210.809C450.921 208.983 452.058 207.356 453.408 205.927L453.805 205.531H429.556C429.185 205.345 429 205.081 429 204.737C429 204.34 429.212 204.075 429.635 203.943H455.551L455.948 203.626C456.98 202.832 458.527 201.919 460.591 200.887C460.565 200.861 460.327 200.742 459.877 200.53C459.427 200.318 458.832 200.001 458.091 199.577C457.35 199.154 456.636 198.678 455.948 198.149L455.551 197.831H429.635C429.212 197.699 429 197.434 429 197.037C429 196.694 429.185 196.429 429.556 196.244H453.805L453.408 195.847C452.535 194.921 451.714 193.849 450.947 192.632C450.18 191.415 449.796 190.674 449.796 190.41Z" fill="white"/>
</g>
<g id="Group_56">
<g id="Group_57">
<path id="Vector_48" d="M501.604 199.581C501.789 198.469 502.503 197.186 503.747 195.731C504.991 194.276 506.525 193.535 508.351 193.508C509.277 193.508 510.123 193.747 510.891 194.223C511.658 194.699 512.227 195.294 512.597 196.009C513.709 194.342 515.045 193.508 516.606 193.508C517.585 193.508 518.431 193.799 519.146 194.382C519.86 194.964 520.23 195.744 520.257 196.723C520.257 197.49 520.072 198.112 519.701 198.588C519.331 199.065 518.974 199.356 518.63 199.462C518.286 199.567 517.982 199.62 517.717 199.62C517.214 199.62 516.804 199.475 516.487 199.184C516.169 198.893 516.01 198.509 516.01 198.033C516.01 196.816 516.672 195.982 517.995 195.532C517.704 195.189 517.175 195.017 516.407 195.017C516.063 195.017 515.812 195.043 515.653 195.096C514.648 195.519 513.907 196.392 513.431 197.715C511.843 203.563 511.049 206.976 511.049 207.955C511.049 208.695 511.261 209.225 511.684 209.542C512.108 209.86 512.571 210.018 513.074 210.018C514.052 210.018 515.018 209.582 515.971 208.709C516.923 207.836 517.571 206.764 517.915 205.494C517.995 205.229 518.074 205.084 518.154 205.057C518.233 205.031 518.445 205.005 518.789 204.978H518.947C519.344 204.978 519.543 205.084 519.543 205.296C519.543 205.322 519.516 205.468 519.463 205.732C519.04 207.24 518.22 208.576 517.003 209.741C515.786 210.905 514.37 211.487 512.756 211.487C510.904 211.487 509.502 210.653 508.549 208.987C507.464 210.627 506.221 211.447 504.819 211.447H504.58C503.284 211.447 502.358 211.103 501.802 210.415C501.247 209.727 500.956 209 500.929 208.232C500.929 207.386 501.181 206.698 501.683 206.169C502.186 205.64 502.781 205.375 503.469 205.375C504.607 205.375 505.176 205.931 505.176 207.042C505.176 207.571 505.017 208.034 504.699 208.431C504.382 208.828 504.078 209.092 503.787 209.225C503.496 209.357 503.324 209.423 503.271 209.423L503.152 209.463C503.152 209.489 503.231 209.542 503.39 209.622C503.549 209.701 503.76 209.793 504.025 209.899C504.289 210.005 504.541 210.045 504.779 210.018C505.731 210.018 506.552 209.423 507.239 208.232C507.478 207.809 507.782 206.91 508.152 205.534C508.523 204.158 508.893 202.729 509.264 201.247C509.634 199.766 509.846 198.893 509.899 198.628C510.031 197.914 510.097 197.398 510.097 197.08C510.097 196.339 509.899 195.81 509.502 195.493C509.105 195.175 508.655 195.017 508.152 195.017C507.094 195.017 506.102 195.44 505.176 196.287C504.25 197.133 503.601 198.218 503.231 199.541C503.178 199.779 503.112 199.911 503.033 199.938C502.953 199.964 502.742 199.991 502.398 200.017H501.842C501.683 199.858 501.604 199.713 501.604 199.581Z" fill="white"/>
</g>
<g id="Group_58">
<path id="Vector_49" d="M525.803 181.668C525.298 181.668 524.906 181.509 524.625 181.191C524.344 180.873 524.195 180.461 524.176 179.956C524.176 178.927 524.625 178.011 525.523 177.206C526.421 176.402 527.506 176 528.778 176C529.432 176 529.844 176.009 530.012 176.028C531.397 176.252 532.453 176.748 533.183 177.515C533.913 178.282 534.287 179.114 534.305 180.012C534.305 180.985 533.987 181.93 533.351 182.846C532.715 183.763 531.836 184.427 530.714 184.838L530.63 184.895C530.63 184.913 530.714 184.941 530.882 184.979C531.05 185.016 531.322 185.1 531.696 185.231C532.07 185.362 532.425 185.559 532.762 185.82C534.296 186.812 535.063 188.121 535.063 189.749C535.063 191.227 534.483 192.517 533.323 193.621C532.164 194.725 530.695 195.276 528.918 195.276C527.422 195.276 526.131 194.874 525.046 194.07C523.961 193.265 523.418 192.246 523.418 191.011C523.418 190.488 523.587 190.067 523.924 189.749C524.26 189.431 524.681 189.262 525.186 189.244C525.71 189.244 526.14 189.412 526.477 189.749C526.814 190.085 526.982 190.506 526.982 191.011C526.982 191.217 526.954 191.404 526.898 191.573C526.842 191.741 526.776 191.891 526.701 192.022C526.627 192.152 526.524 192.265 526.393 192.358C526.262 192.452 526.15 192.527 526.056 192.583C525.962 192.639 525.869 192.676 525.775 192.695C525.682 192.714 525.607 192.742 525.551 192.779L525.439 192.807C526.393 193.649 527.552 194.07 528.918 194.07C529.947 194.07 530.723 193.574 531.247 192.583C531.565 191.965 531.724 191.021 531.724 189.749V189.188C531.724 187.411 531.125 186.223 529.928 185.624C529.648 185.512 529.077 185.446 528.217 185.428L527.038 185.4L526.954 185.343C526.916 185.287 526.898 185.138 526.898 184.895C526.898 184.558 526.973 184.389 527.122 184.389C527.646 184.389 528.188 184.343 528.75 184.249C529.386 184.156 529.966 183.763 530.489 183.071C531.013 182.379 531.275 181.331 531.275 179.928V179.704C531.275 178.637 530.948 177.899 530.293 177.487C529.881 177.225 529.442 177.094 528.974 177.094C528.376 177.094 527.824 177.197 527.319 177.403C526.814 177.609 526.458 177.824 526.252 178.048C526.047 178.273 525.944 178.385 525.944 178.385H526.028C526.084 178.404 526.159 178.422 526.252 178.441C526.346 178.46 526.439 178.506 526.533 178.581C526.627 178.656 526.739 178.722 526.87 178.778C527.001 178.834 527.094 178.937 527.15 179.086C527.206 179.236 527.281 179.376 527.375 179.507C527.468 179.638 527.496 179.825 527.459 180.068C527.459 180.48 527.328 180.845 527.066 181.163C526.804 181.481 526.383 181.649 525.803 181.668Z" fill="white"/>
</g>
</g>
<g id="Group_59">
<path id="Vector_50" d="M550.408 201.644C550.408 201.644 550.408 201.472 550.408 201.128C550.408 200.784 550.593 200.519 550.963 200.334H574.022C574.419 200.546 574.617 200.81 574.617 201.128C574.617 201.445 574.419 201.71 574.022 201.922H550.963C550.593 201.736 550.408 201.472 550.408 201.128V201.644Z" fill="white"/>
</g>
<g id="Group_60">
<path id="Vector_51" d="M595.227 188.111L594.711 188.309C594.341 188.441 593.812 188.574 593.124 188.706C592.436 188.838 591.669 188.931 590.822 188.984H590.068V187.158H590.822C592.065 187.105 593.216 186.907 594.275 186.563C595.333 186.219 596.074 185.901 596.497 185.61C596.921 185.319 597.291 185.028 597.608 184.737C597.661 184.658 597.82 184.618 598.085 184.618C598.323 184.618 598.548 184.698 598.759 184.856V196.723L598.799 208.629C598.984 208.814 599.143 208.933 599.275 208.986C599.408 209.039 599.725 209.092 600.228 209.145C600.731 209.198 601.551 209.224 602.688 209.224H603.72V211.05H603.284C602.728 210.971 600.625 210.931 596.973 210.931C593.375 210.931 591.298 210.971 590.743 211.05H590.266V209.224H591.298C591.88 209.224 592.383 209.224 592.806 209.224C593.23 209.224 593.56 209.211 593.798 209.185C594.037 209.158 594.248 209.119 594.433 209.066C594.619 209.013 594.725 208.986 594.751 208.986C594.777 208.986 594.857 208.92 594.989 208.788C595.121 208.656 595.201 208.603 595.227 208.629V188.111Z" fill="white"/>
</g>
<g id="Group_61">
<path id="Vector_52" d="M619.862 197.279C619.862 196.935 620.047 196.67 620.417 196.485H645.698C646.095 196.697 646.294 196.961 646.294 197.279C646.294 197.57 646.108 197.821 645.738 198.033L633.117 198.073H620.497C620.073 197.94 619.862 197.676 619.862 197.279ZM619.862 204.978C619.862 204.581 620.073 204.317 620.497 204.184H645.738C646.108 204.449 646.294 204.714 646.294 204.978C646.294 205.322 646.095 205.587 645.698 205.772H620.417C620.047 205.587 619.862 205.322 619.862 204.978Z" fill="white"/>
</g>
<g id="Group_62">
<path id="Vector_53" d="M663.351 187.833C664.832 185.69 666.856 184.619 669.423 184.619C670.693 184.619 671.963 184.963 673.233 185.651C674.503 186.338 675.535 187.556 676.328 189.302C677.307 191.498 677.797 194.514 677.797 198.351C677.797 202.452 677.228 205.587 676.09 207.756C675.561 208.868 674.833 209.754 673.907 210.415C672.981 211.077 672.174 211.487 671.486 211.646C670.799 211.805 670.124 211.897 669.462 211.924C668.774 211.924 668.087 211.844 667.399 211.685C666.711 211.527 665.904 211.103 664.978 210.415C664.052 209.728 663.324 208.841 662.795 207.756C661.657 205.587 661.088 202.452 661.088 198.351C661.088 193.747 661.842 190.241 663.351 187.833ZM672.28 187.357C671.486 186.51 670.547 186.087 669.462 186.087C668.351 186.087 667.399 186.51 666.605 187.357C665.943 188.045 665.507 188.998 665.295 190.215C665.084 191.432 664.978 193.972 664.978 197.835C664.978 202.015 665.084 204.767 665.295 206.09C665.507 207.412 665.983 208.458 666.724 209.225C667.465 210.019 668.378 210.415 669.462 210.415C670.521 210.415 671.42 210.019 672.161 209.225C672.928 208.431 673.405 207.32 673.59 205.891C673.775 204.462 673.881 201.777 673.907 197.835C673.907 193.998 673.802 191.471 673.59 190.254C673.378 189.037 672.942 188.071 672.28 187.357Z" fill="white"/>
</g>
</g>
<g id="Group 303">
<g id="Group_63">
<path id="Vector_54" d="M488.882 266.738C488.882 266.05 489.12 265.481 489.597 265.032C490.073 264.582 490.642 264.357 491.303 264.357C491.938 264.357 492.48 264.582 492.93 265.032C493.38 265.481 493.618 266.05 493.645 266.738C493.671 267.426 493.446 267.995 492.97 268.445C492.494 268.894 491.925 269.119 491.263 269.119C490.575 269.119 490.007 268.894 489.557 268.445C489.107 267.995 488.882 267.426 488.882 266.738ZM481.381 281.541C482.069 281.541 482.625 281.766 483.048 282.216C483.471 282.666 483.696 283.235 483.723 283.923C483.723 284.558 483.511 285.113 483.088 285.59C482.664 286.066 482.082 286.304 481.342 286.304C480.654 286.304 480.098 286.079 479.675 285.629C479.251 285.179 479.026 284.611 479 283.923C479 283.235 479.225 282.666 479.675 282.216C480.124 281.766 480.693 281.541 481.381 281.541ZM498.844 283.923C498.844 283.235 499.069 282.666 499.518 282.216C499.968 281.766 500.537 281.541 501.225 281.541C501.86 281.541 502.402 281.766 502.852 282.216C503.302 282.666 503.54 283.235 503.566 283.923C503.566 284.531 503.355 285.074 502.931 285.55C502.508 286.026 501.926 286.277 501.185 286.304C500.497 286.304 499.942 286.079 499.518 285.629C499.095 285.179 498.87 284.611 498.844 283.923Z" fill="white"/>
</g>
<g id="Group_64">
<g id="Group_65">
<path id="Vector_55" d="M528.634 271.581C528.819 270.469 529.534 269.186 530.777 267.731C532.021 266.276 533.555 265.535 535.381 265.508C536.307 265.508 537.154 265.747 537.921 266.223C538.688 266.699 539.257 267.294 539.628 268.009C540.739 266.342 542.075 265.508 543.636 265.508C544.615 265.508 545.462 265.799 546.176 266.382C546.89 266.964 547.261 267.744 547.287 268.723C547.287 269.49 547.102 270.112 546.732 270.588C546.361 271.065 546.004 271.356 545.66 271.462C545.316 271.567 545.012 271.62 544.747 271.62C544.245 271.62 543.834 271.475 543.517 271.184C543.199 270.893 543.041 270.509 543.041 270.033C543.041 268.816 543.702 267.982 545.025 267.532C544.734 267.189 544.205 267.017 543.438 267.017C543.094 267.017 542.842 267.043 542.683 267.096C541.678 267.519 540.937 268.392 540.461 269.715C538.873 275.563 538.08 278.976 538.08 279.955C538.08 280.695 538.291 281.225 538.715 281.542C539.138 281.86 539.601 282.018 540.104 282.018C541.083 282.018 542.048 281.582 543.001 280.709C543.953 279.836 544.602 278.764 544.946 277.494C545.025 277.229 545.104 277.084 545.184 277.057C545.263 277.031 545.475 277.005 545.819 276.978H545.978C546.374 276.978 546.573 277.084 546.573 277.296C546.573 277.322 546.546 277.468 546.493 277.732C546.07 279.24 545.25 280.576 544.033 281.741C542.816 282.905 541.4 283.487 539.786 283.487C537.934 283.487 536.532 282.653 535.579 280.987C534.495 282.627 533.251 283.447 531.849 283.447H531.611C530.314 283.447 529.388 283.103 528.833 282.415C528.277 281.727 527.986 281 527.959 280.232C527.959 279.386 528.211 278.698 528.714 278.169C529.216 277.64 529.812 277.375 530.499 277.375C531.637 277.375 532.206 277.931 532.206 279.042C532.206 279.571 532.047 280.034 531.73 280.431C531.412 280.828 531.108 281.092 530.817 281.225C530.526 281.357 530.354 281.423 530.301 281.423L530.182 281.463C530.182 281.489 530.261 281.542 530.42 281.622C530.579 281.701 530.791 281.793 531.055 281.899C531.32 282.005 531.571 282.045 531.809 282.018C532.762 282.018 533.582 281.423 534.27 280.232C534.508 279.809 534.812 278.91 535.183 277.534C535.553 276.158 535.923 274.729 536.294 273.247C536.664 271.766 536.876 270.893 536.929 270.628C537.061 269.914 537.127 269.398 537.127 269.08C537.127 268.339 536.929 267.81 536.532 267.493C536.135 267.175 535.685 267.017 535.183 267.017C534.124 267.017 533.132 267.44 532.206 268.287C531.28 269.133 530.632 270.218 530.261 271.541C530.208 271.779 530.142 271.911 530.063 271.938C529.984 271.964 529.772 271.991 529.428 272.017H528.872C528.714 271.858 528.634 271.713 528.634 271.581Z" fill="white"/>
</g>
<g id="Group_66">
<path id="Vector_56" d="M552.834 253.668C552.329 253.668 551.936 253.509 551.655 253.191C551.375 252.873 551.225 252.461 551.206 251.956C551.206 250.927 551.655 250.011 552.553 249.206C553.451 248.402 554.536 248 555.808 248C556.463 248 556.874 248.009 557.043 248.028C558.427 248.252 559.484 248.748 560.213 249.515C560.943 250.282 561.317 251.114 561.336 252.012C561.336 252.985 561.018 253.93 560.382 254.846C559.746 255.763 558.866 256.427 557.744 256.838L557.66 256.895C557.66 256.913 557.744 256.941 557.912 256.979C558.081 257.016 558.352 257.1 558.726 257.231C559.1 257.362 559.456 257.559 559.792 257.82C561.326 258.812 562.093 260.121 562.093 261.749C562.093 263.227 561.513 264.517 560.354 265.621C559.194 266.725 557.725 267.276 555.948 267.276C554.452 267.276 553.161 266.874 552.076 266.07C550.991 265.265 550.449 264.246 550.449 263.011C550.449 262.488 550.617 262.067 550.954 261.749C551.29 261.431 551.711 261.262 552.216 261.244C552.74 261.244 553.17 261.412 553.507 261.749C553.844 262.085 554.012 262.506 554.012 263.011C554.012 263.217 553.984 263.404 553.928 263.573C553.872 263.741 553.806 263.891 553.732 264.022C553.657 264.152 553.554 264.265 553.423 264.358C553.292 264.452 553.18 264.527 553.086 264.583C552.993 264.639 552.899 264.676 552.806 264.695C552.712 264.714 552.637 264.742 552.581 264.779L552.469 264.807C553.423 265.649 554.583 266.07 555.948 266.07C556.977 266.07 557.753 265.574 558.277 264.583C558.595 263.965 558.754 263.021 558.754 261.749V261.188C558.754 259.411 558.156 258.223 556.958 257.624C556.678 257.512 556.107 257.446 555.247 257.428L554.068 257.4L553.984 257.343C553.947 257.287 553.928 257.138 553.928 256.895C553.928 256.558 554.003 256.389 554.153 256.389C554.676 256.389 555.219 256.343 555.78 256.249C556.416 256.156 556.996 255.763 557.52 255.071C558.043 254.379 558.305 253.331 558.305 251.928V251.704C558.305 250.637 557.978 249.899 557.323 249.487C556.912 249.225 556.472 249.094 556.004 249.094C555.406 249.094 554.854 249.197 554.349 249.403C553.844 249.609 553.488 249.824 553.283 250.048C553.077 250.273 552.974 250.385 552.974 250.385H553.058C553.114 250.404 553.189 250.422 553.283 250.441C553.376 250.46 553.47 250.506 553.563 250.581C553.657 250.656 553.769 250.722 553.9 250.778C554.031 250.834 554.124 250.937 554.181 251.086C554.237 251.236 554.312 251.376 554.405 251.507C554.499 251.638 554.527 251.825 554.489 252.068C554.489 252.48 554.358 252.845 554.096 253.163C553.835 253.481 553.414 253.649 552.834 253.668Z" fill="white"/>
</g>
</g>
<g id="Group_67">
<path id="Vector_57" d="M578.534 269.279C578.534 268.935 578.719 268.67 579.09 268.485H604.371C604.768 268.697 604.966 268.961 604.966 269.279C604.966 269.57 604.781 269.821 604.41 270.033L591.79 270.072H579.169C578.746 269.94 578.534 269.676 578.534 269.279ZM578.534 276.978C578.534 276.581 578.746 276.317 579.169 276.184H604.41C604.781 276.449 604.966 276.713 604.966 276.978C604.966 277.322 604.768 277.587 604.371 277.772H579.09C578.719 277.587 578.534 277.322 578.534 276.978Z" fill="white"/>
</g>
<g id="Group_68">
<path id="Vector_58" d="M626.667 260.111L626.151 260.309C625.781 260.441 625.252 260.574 624.564 260.706C623.876 260.838 623.109 260.931 622.262 260.984H621.508V259.158H622.262C623.505 259.105 624.656 258.907 625.715 258.563C626.773 258.219 627.514 257.901 627.937 257.61C628.36 257.319 628.731 257.028 629.048 256.737C629.101 256.658 629.26 256.618 629.525 256.618C629.763 256.618 629.988 256.698 630.199 256.856V268.723L630.239 280.629C630.424 280.814 630.583 280.933 630.715 280.986C630.848 281.039 631.165 281.092 631.668 281.145C632.17 281.198 632.991 281.224 634.128 281.224H635.16V283.05H634.724C634.168 282.971 632.065 282.931 628.413 282.931C624.815 282.931 622.738 282.971 622.182 283.05H621.706V281.224H622.738C623.32 281.224 623.823 281.224 624.246 281.224C624.67 281.224 625 281.211 625.238 281.185C625.477 281.158 625.688 281.119 625.873 281.066C626.059 281.013 626.164 280.986 626.191 280.986C626.217 280.986 626.297 280.92 626.429 280.788C626.561 280.656 626.641 280.603 626.667 280.629V260.111Z" fill="white"/>
</g>
</g>
</g>
</g>
<g id="\therefore\;\;P_{(-1)}=1">
<g id="Group_69">
<g id="Group_70">
<path id="Vector_59" d="M10.8109 230.81C10.8109 230.057 11.0714 229.435 11.5925 228.943C12.1135 228.451 12.7358 228.205 13.4594 228.205C14.1541 228.205 14.7475 228.451 15.2395 228.943C15.7316 229.435 15.9921 230.057 16.021 230.81C16.05 231.562 15.8039 232.184 15.2829 232.677C14.7619 233.169 14.1396 233.415 13.416 233.415C12.6634 233.415 12.0411 233.169 11.549 232.677C11.057 232.184 10.8109 231.562 10.8109 230.81ZM2.60505 247.004C3.35761 247.004 3.96546 247.25 4.42858 247.742C4.8917 248.234 5.13773 248.857 5.16667 249.609C5.16667 250.304 4.93512 250.912 4.472 251.433C4.00888 251.954 3.37209 252.214 2.56163 252.214C1.80906 252.214 1.20122 251.968 0.738096 251.476C0.274977 250.984 0.028945 250.362 0 249.609C0 248.857 0.246032 248.234 0.738096 247.742C1.23016 247.25 1.85248 247.004 2.60505 247.004ZM21.7087 249.609C21.7087 248.857 21.9548 248.234 22.4468 247.742C22.9389 247.25 23.5612 247.004 24.3138 247.004C25.0084 247.004 25.6018 247.25 26.0939 247.742C26.5859 248.234 26.8464 248.857 26.8754 249.609C26.8754 250.275 26.6438 250.868 26.1807 251.389C25.7176 251.91 25.0808 252.185 24.2703 252.214C23.5178 252.214 22.9099 251.968 22.4468 251.476C21.9837 250.984 21.7377 250.362 21.7087 249.609Z" fill="white"/>
</g>
<g id="Group_71">
<g id="Group_72">
<path id="Vector_60" d="M76.5583 221.388C76.5583 221.185 75.7334 221.055 74.0835 220.997C73.3888 220.997 72.9402 220.983 72.7376 220.954C72.535 220.925 72.4336 220.78 72.4336 220.52C72.4336 220.491 72.4626 220.331 72.5205 220.042C72.6942 219.463 72.8244 219.145 72.9112 219.087C72.9981 219.029 75.8057 219 81.3342 219C86.8338 219.029 89.7717 219.072 90.148 219.13C92.0004 219.449 93.549 220.158 94.7936 221.258C96.0383 222.358 96.675 223.819 96.704 225.643C96.704 227.872 95.7488 229.912 93.8384 231.765C91.8412 233.733 89.2651 234.978 86.1101 235.499C85.9075 235.528 84.3879 235.556 81.5513 235.585H77.4267L76.1241 240.752C75.2558 244.11 74.8216 245.89 74.8216 246.092C74.8216 246.208 74.8361 246.281 74.865 246.31C74.894 246.338 74.9953 246.396 75.1689 246.483C75.3426 246.57 75.5886 246.599 75.907 246.57C76.2254 246.541 76.703 246.57 77.3398 246.657H78.6858C78.8594 246.917 78.9463 247.077 78.9463 247.134C78.9463 247.598 78.845 248.032 78.6423 248.437C78.4976 248.582 78.2661 248.654 77.9477 248.654C77.8608 248.654 77.3253 248.64 76.3412 248.611C75.3571 248.582 73.9098 248.567 71.9995 248.567C70.2049 248.567 68.83 248.567 67.8748 248.567C66.9196 248.567 66.3986 248.582 66.3118 248.611C65.7908 248.611 65.5303 248.466 65.5303 248.176C65.5303 248.119 65.5737 247.916 65.6605 247.569C65.7763 247.105 65.8921 246.845 66.0079 246.787C66.1236 246.729 66.4565 246.686 67.0065 246.657C67.788 246.657 68.6563 246.613 69.6115 246.527C70.0167 246.44 70.2917 246.266 70.4364 246.006C70.5233 245.89 71.5653 241.866 73.5625 233.936C75.5597 226.005 76.5583 221.822 76.5583 221.388ZM92.1017 224.601C92.1017 224.225 92.0728 223.921 92.0149 223.689C91.957 223.457 91.8268 223.139 91.6242 222.734C91.4215 222.329 91.0597 222.01 90.5387 221.779C90.0177 221.547 89.3086 221.316 88.4113 221.084C88.2086 221.055 87.0508 221.026 84.9379 220.997C84.4458 220.997 83.9393 220.997 83.4183 220.997C82.8972 220.997 82.4775 221.012 82.1592 221.041C81.8408 221.07 81.6671 221.07 81.6381 221.041C81.2619 221.07 81.0014 221.2 80.8566 221.431C80.7987 221.605 80.5238 222.719 80.0317 224.774C79.5396 226.83 79.0331 228.827 78.5121 230.766C77.9911 232.705 77.7306 233.69 77.7306 233.718C77.7306 233.776 78.9028 233.805 81.2474 233.805H81.7684H82.767C86.0088 233.805 88.3244 233.082 89.7138 231.634C90.4953 230.853 91.0887 229.71 91.4939 228.204C91.8991 226.699 92.1017 225.498 92.1017 224.601Z" fill="white"/>
</g>
<g id="Group_73">
<g id="Group_74">
<path id="Vector_61" d="M94.8564 248.652C94.8564 247.24 94.9588 245.9 95.1634 244.631C95.368 243.362 95.6034 242.267 95.8694 241.346C96.1355 240.425 96.514 239.525 97.0052 238.645C97.4963 237.765 97.8851 237.079 98.1716 236.588C98.4581 236.097 98.8879 235.565 99.4609 234.992C100.034 234.419 100.372 234.071 100.474 233.948C100.576 233.826 100.832 233.611 101.241 233.304H101.64H101.763C102.05 233.304 102.193 233.396 102.193 233.58C102.193 233.642 102.019 233.856 101.671 234.225C101.323 234.593 100.904 235.135 100.412 235.852C99.9213 236.568 99.4199 237.448 98.9083 238.492C98.3967 239.535 97.967 240.947 97.6191 242.728C97.2712 244.508 97.0973 246.483 97.0973 248.652C97.0973 250.821 97.2712 252.786 97.6191 254.546C97.967 256.306 98.3865 257.728 98.8776 258.812C99.3688 259.897 99.8701 260.777 100.382 261.452C100.893 262.128 101.323 262.67 101.671 263.079C102.019 263.488 102.193 263.703 102.193 263.724C102.193 263.908 102.039 264 101.732 264H101.64H101.241L100.382 263.263C98.4581 261.524 97.0563 259.355 96.1764 256.756C95.2964 254.157 94.8564 251.456 94.8564 248.652Z" fill="white"/>
</g>
<g id="Group_75">
<path id="Vector_62" d="M106.49 249.051C106.49 249.051 106.49 248.918 106.49 248.652C106.49 248.386 106.633 248.181 106.919 248.038H124.754C125.061 248.201 125.214 248.406 125.214 248.652C125.214 248.897 125.061 249.102 124.754 249.266H106.919C106.633 249.122 106.49 248.918 106.49 248.652V249.051Z" fill="white"/>
</g>
<g id="Group_76">
<path id="Vector_63" d="M134.331 238.584L133.932 238.737C133.646 238.84 133.236 238.942 132.704 239.044C132.172 239.147 131.579 239.218 130.924 239.259H130.341V237.847H130.924C131.886 237.806 132.776 237.653 133.595 237.387C134.413 237.121 134.986 236.875 135.314 236.65C135.641 236.425 135.928 236.2 136.173 235.975C136.214 235.913 136.337 235.883 136.541 235.883C136.726 235.883 136.9 235.944 137.063 236.067V245.245L137.094 254.454C137.237 254.597 137.36 254.689 137.462 254.73C137.565 254.771 137.81 254.812 138.199 254.853C138.588 254.894 139.222 254.914 140.102 254.914H140.9V256.326H140.563C140.133 256.265 138.506 256.234 135.682 256.234C132.899 256.234 131.292 256.265 130.863 256.326H130.494V254.914H131.292C131.743 254.914 132.131 254.914 132.459 254.914C132.786 254.914 133.042 254.904 133.226 254.883C133.41 254.863 133.574 254.832 133.717 254.791C133.861 254.75 133.942 254.73 133.963 254.73C133.983 254.73 134.045 254.679 134.147 254.576C134.249 254.474 134.311 254.433 134.331 254.454V238.584Z" fill="white"/>
</g>
<g id="Group_77">
<path id="Vector_64" d="M144.983 233.335L145.106 233.304C145.208 233.304 145.31 233.304 145.413 233.304H145.781L146.641 234.041C148.564 235.78 149.966 237.949 150.846 240.548C151.726 243.147 152.166 245.848 152.166 248.652C152.166 250.043 152.064 251.384 151.859 252.673C151.654 253.962 151.419 255.057 151.153 255.958C150.887 256.858 150.508 257.758 150.017 258.659C149.526 259.559 149.137 260.245 148.851 260.716C148.564 261.186 148.145 261.708 147.592 262.281C147.04 262.854 146.712 263.192 146.61 263.294C146.508 263.396 146.272 263.591 145.904 263.877C145.843 263.939 145.802 263.98 145.781 264H145.413C145.249 264 145.137 264 145.075 264C145.014 264 144.963 263.969 144.922 263.908C144.881 263.847 144.85 263.754 144.83 263.632C144.85 263.611 144.963 263.478 145.167 263.233C148.339 259.938 149.925 255.078 149.925 248.652C149.925 242.226 148.339 237.366 145.167 234.071C144.963 233.826 144.85 233.693 144.83 233.672C144.83 233.509 144.881 233.396 144.983 233.335Z" fill="white"/>
</g>
</g>
</g>
<g id="Group_78">
<path id="Vector_65" d="M171.755 233.588C171.755 233.212 171.958 232.923 172.363 232.72H200.02C200.454 232.952 200.671 233.241 200.671 233.588C200.671 233.907 200.469 234.182 200.064 234.413L186.257 234.457H172.45C171.987 234.312 171.755 234.022 171.755 233.588ZM171.755 242.011C171.755 241.577 171.987 241.288 172.45 241.143H200.064C200.469 241.432 200.671 241.722 200.671 242.011C200.671 242.388 200.454 242.677 200.02 242.88H172.363C171.958 242.677 171.755 242.388 171.755 242.011Z" fill="white"/>
</g>
<g id="Group_79">
<path id="Vector_66" d="M224.412 223.559L223.847 223.776C223.442 223.921 222.863 224.065 222.111 224.21C221.358 224.355 220.519 224.456 219.593 224.514H218.768V222.517H219.593C220.953 222.459 222.212 222.242 223.37 221.865C224.528 221.489 225.338 221.142 225.801 220.823C226.264 220.505 226.67 220.187 227.017 219.868C227.075 219.781 227.248 219.738 227.538 219.738C227.798 219.738 228.044 219.825 228.276 219.999V232.98L228.319 246.006C228.522 246.208 228.696 246.338 228.84 246.396C228.985 246.454 229.332 246.512 229.882 246.57C230.432 246.628 231.33 246.657 232.574 246.657H233.703V248.654H233.226C232.618 248.567 230.317 248.524 226.322 248.524C222.386 248.524 220.114 248.567 219.506 248.654H218.985V246.657H220.114C220.75 246.657 221.3 246.657 221.763 246.657C222.227 246.657 222.588 246.642 222.849 246.613C223.109 246.584 223.341 246.541 223.543 246.483C223.746 246.425 223.862 246.396 223.891 246.396C223.92 246.396 224.007 246.324 224.151 246.179C224.296 246.035 224.383 245.977 224.412 246.006V223.559Z" fill="white"/>
</g>
</g>
</g>
</g>
</svg>
