<svg  viewBox="0 0 986 516" fill="none" xmlns="http://www.w3.org/2000/svg">
<g id="0118111">
<g id="Group 8">
<path id="Rectangle 1" d="M41 41.1779C41 19.7233 62.453 2.33081 88.9166 2.33081H915V271.153C915 292.608 893.547 310 867.083 310H41V41.1779Z" fill="#02071A"/>
<path id="Rectangle 1 (Stroke)" fill-rule="evenodd" clip-rule="evenodd" d="M910.208 6.21552H88.9166C65.0994 6.21552 45.7917 21.8687 45.7917 41.1779V306.115H867.083C890.9 306.115 910.208 290.462 910.208 271.153V6.21552ZM88.9166 2.33081C62.453 2.33081 41 19.7233 41 41.1779V310H867.083C893.547 310 915 292.608 915 271.153V2.33081H88.9166Z" fill="#CD08D1"/>
<path id="Rectangle 14" d="M92.8937 2.38709C118.522 -2.98387 915 2.38709 915 2.38709V25.6391C915 25.6391 79.3333 17.0927 49.625 25.6391C58.8688 13.3065 67.2656 7.75805 92.8937 2.38709Z" fill="#CD08D1"/>
<path id="Rectangle 15" d="M886.25 2.33081H915V271.93C911.471 290.225 904.157 296.95 886.25 305.727C891.52 291.353 886.25 2.33081 886.25 2.33081Z" fill="#CD08D1"/>
</g>
<g id="Group 339">
<g id="Si: Calcular:">
<path d="M79.5117 57.486C76.6172 56.6539 74.5078 55.6344 73.1836 54.4274C71.8711 53.2086 71.2148 51.7086 71.2148 49.9274C71.2148 47.9117 72.0176 46.2477 73.623 44.9352C75.2402 43.611 77.3379 42.9489 79.916 42.9489C81.6738 42.9489 83.2383 43.2887 84.6094 43.9684C85.9922 44.6481 87.0586 45.5856 87.8086 46.7809C88.5703 47.9762 88.9512 49.2828 88.9512 50.7008H85.5586C85.5586 49.1539 85.0664 47.941 84.082 47.0621C83.0977 46.1715 81.709 45.7262 79.916 45.7262C78.252 45.7262 76.9512 46.0953 76.0137 46.8336C75.0879 47.5602 74.625 48.5739 74.625 49.8746C74.625 50.9176 75.0645 51.8024 75.9434 52.5289C76.834 53.2438 78.3398 53.9 80.4609 54.4977C82.5938 55.0953 84.2578 55.7574 85.4531 56.484C86.6602 57.1989 87.5508 58.0367 88.125 58.9977C88.7109 59.9586 89.0039 61.0895 89.0039 62.3903C89.0039 64.4645 88.1953 66.1285 86.5781 67.3824C84.9609 68.6246 82.7988 69.2457 80.0918 69.2457C78.334 69.2457 76.6934 68.9117 75.1699 68.2438C73.6465 67.5641 72.4688 66.6383 71.6367 65.4664C70.8164 64.2946 70.4062 62.9645 70.4062 61.4762H73.7988C73.7988 63.0231 74.3672 64.2477 75.5039 65.15C76.6523 66.0406 78.1816 66.486 80.0918 66.486C81.873 66.486 83.2383 66.1227 84.1875 65.3961C85.1367 64.6696 85.6113 63.6793 85.6113 62.4254C85.6113 61.1715 85.1719 60.2047 84.293 59.525C83.4141 58.8336 81.8203 58.1539 79.5117 57.486Z" fill="white"/>
<path d="M96.3691 68.8942H93.1172V49.8746H96.3691V68.8942ZM92.8535 44.8297C92.8535 44.3024 93.0117 43.8571 93.3281 43.4938C93.6562 43.1305 94.1367 42.9489 94.7695 42.9489C95.4023 42.9489 95.8828 43.1305 96.2109 43.4938C96.5391 43.8571 96.7031 44.3024 96.7031 44.8297C96.7031 45.3571 96.5391 45.7965 96.2109 46.1481C95.8828 46.4996 95.4023 46.6754 94.7695 46.6754C94.1367 46.6754 93.6562 46.4996 93.3281 46.1481C93.0117 45.7965 92.8535 45.3571 92.8535 44.8297Z" fill="white"/>
<path d="M101.484 67.1891C101.484 66.6266 101.648 66.1578 101.977 65.7828C102.316 65.4078 102.82 65.2203 103.488 65.2203C104.156 65.2203 104.66 65.4078 105 65.7828C105.352 66.1578 105.527 66.6266 105.527 67.1891C105.527 67.7281 105.352 68.1793 105 68.5426C104.66 68.9059 104.156 69.0875 103.488 69.0875C102.82 69.0875 102.316 68.9059 101.977 68.5426C101.648 68.1793 101.484 67.7281 101.484 67.1891ZM101.502 51.6676C101.502 51.1051 101.666 50.6364 101.994 50.2614C102.334 49.8864 102.838 49.6989 103.506 49.6989C104.174 49.6989 104.678 49.8864 105.018 50.2614C105.369 50.6364 105.545 51.1051 105.545 51.6676C105.545 52.2067 105.369 52.6578 105.018 53.0211C104.678 53.3844 104.174 53.566 103.506 53.566C102.838 53.566 102.334 53.3844 101.994 53.0211C101.666 52.6578 101.502 52.2067 101.502 51.6676Z" fill="white"/>
<path d="M90.7969 160.773C90.4805 163.48 89.4785 165.572 87.791 167.048C86.1152 168.513 83.8828 169.246 81.0938 169.246C78.0703 169.246 75.6445 168.162 73.8164 165.994C72 163.826 71.0918 160.925 71.0918 157.293V154.832C71.0918 152.453 71.5137 150.361 72.3574 148.556C73.2129 146.752 74.4199 145.369 75.9785 144.408C77.5371 143.435 79.3418 142.949 81.3926 142.949C84.1113 142.949 86.291 143.711 87.9316 145.234C89.5723 146.746 90.5273 148.843 90.7969 151.527H87.4043C87.1113 149.488 86.4727 148.011 85.4883 147.097C84.5156 146.183 83.1504 145.726 81.3926 145.726C79.2363 145.726 77.543 146.523 76.3125 148.117C75.0938 149.711 74.4844 151.978 74.4844 154.92V157.398C74.4844 160.175 75.0645 162.384 76.2246 164.025C77.3848 165.666 79.0078 166.486 81.0938 166.486C82.9688 166.486 84.4043 166.064 85.4004 165.22C86.4082 164.365 87.0762 162.882 87.4043 160.773H90.7969Z" fill="white"/>
<path d="M106.652 168.894C106.465 168.519 106.312 167.851 106.195 166.89C104.684 168.461 102.879 169.246 100.781 169.246C98.9062 169.246 97.3652 168.718 96.1582 167.664C94.9629 166.597 94.3652 165.25 94.3652 163.621C94.3652 161.64 95.1152 160.105 96.6152 159.015C98.127 157.914 100.248 157.363 102.979 157.363H106.143V155.869C106.143 154.732 105.803 153.83 105.123 153.162C104.443 152.482 103.441 152.142 102.117 152.142C100.957 152.142 99.9844 152.435 99.1992 153.021C98.4141 153.607 98.0215 154.316 98.0215 155.148H94.752C94.752 154.199 95.0859 153.285 95.7539 152.406C96.4336 151.515 97.3477 150.812 98.4961 150.297C99.6562 149.781 100.928 149.523 102.311 149.523C104.502 149.523 106.219 150.074 107.461 151.175C108.703 152.265 109.348 153.771 109.395 155.693V164.447C109.395 166.193 109.617 167.582 110.062 168.613V168.894H106.652ZM101.256 166.416C102.275 166.416 103.242 166.152 104.156 165.625C105.07 165.097 105.732 164.412 106.143 163.568V159.666H103.594C99.6094 159.666 97.6172 160.832 97.6172 163.164C97.6172 164.183 97.957 164.98 98.6367 165.554C99.3164 166.129 100.189 166.416 101.256 166.416Z" fill="white"/>
<path d="M118.025 168.894H114.773V141.894H118.025V168.894Z" fill="white"/>
<path d="M130.875 166.591C132.035 166.591 133.049 166.24 133.916 165.537C134.783 164.834 135.264 163.955 135.357 162.9H138.434C138.375 163.99 138 165.027 137.309 166.011C136.617 166.996 135.691 167.781 134.531 168.367C133.383 168.953 132.164 169.246 130.875 169.246C128.285 169.246 126.223 168.384 124.688 166.662C123.164 164.927 122.402 162.56 122.402 159.56V159.015C122.402 157.164 122.742 155.517 123.422 154.076C124.102 152.634 125.074 151.515 126.34 150.718C127.617 149.922 129.123 149.523 130.857 149.523C132.99 149.523 134.76 150.162 136.166 151.439C137.584 152.716 138.34 154.375 138.434 156.414H135.357C135.264 155.183 134.795 154.175 133.951 153.39C133.119 152.593 132.088 152.195 130.857 152.195C129.205 152.195 127.922 152.793 127.008 153.988C126.105 155.172 125.654 156.888 125.654 159.138V159.754C125.654 161.945 126.105 163.632 127.008 164.816C127.91 166 129.199 166.591 130.875 166.591Z" fill="white"/>
<path d="M153.832 167.013C152.566 168.502 150.709 169.246 148.26 169.246C146.232 169.246 144.686 168.66 143.619 167.488C142.564 166.304 142.031 164.558 142.02 162.25V149.875H145.271V162.162C145.271 165.045 146.443 166.486 148.787 166.486C151.271 166.486 152.924 165.56 153.744 163.709V149.875H156.996V168.894H153.902L153.832 167.013Z" fill="white"/>
<path d="M165.486 168.894H162.234V141.894H165.486V168.894Z" fill="white"/>
<path d="M182.449 168.894C182.262 168.519 182.109 167.851 181.992 166.89C180.48 168.461 178.676 169.246 176.578 169.246C174.703 169.246 173.162 168.718 171.955 167.664C170.76 166.597 170.162 165.25 170.162 163.621C170.162 161.64 170.912 160.105 172.412 159.015C173.924 157.914 176.045 157.363 178.775 157.363H181.939V155.869C181.939 154.732 181.6 153.83 180.92 153.162C180.24 152.482 179.238 152.142 177.914 152.142C176.754 152.142 175.781 152.435 174.996 153.021C174.211 153.607 173.818 154.316 173.818 155.148H170.549C170.549 154.199 170.883 153.285 171.551 152.406C172.23 151.515 173.145 150.812 174.293 150.297C175.453 149.781 176.725 149.523 178.107 149.523C180.299 149.523 182.016 150.074 183.258 151.175C184.5 152.265 185.145 153.771 185.191 155.693V164.447C185.191 166.193 185.414 167.582 185.859 168.613V168.894H182.449ZM177.053 166.416C178.072 166.416 179.039 166.152 179.953 165.625C180.867 165.097 181.529 164.412 181.939 163.568V159.666H179.391C175.406 159.666 173.414 160.832 173.414 163.164C173.414 164.183 173.754 164.98 174.434 165.554C175.113 166.129 175.986 166.416 177.053 166.416Z" fill="white"/>
<path d="M199.482 152.793C198.99 152.711 198.457 152.67 197.883 152.67C195.75 152.67 194.303 153.578 193.541 155.394V168.894H190.289V149.875H193.453L193.506 152.072C194.572 150.373 196.084 149.523 198.041 149.523C198.674 149.523 199.154 149.605 199.482 149.769V152.793Z" fill="white"/>
<path d="M202.383 167.189C202.383 166.627 202.547 166.158 202.875 165.783C203.215 165.408 203.719 165.22 204.387 165.22C205.055 165.22 205.559 165.408 205.898 165.783C206.25 166.158 206.426 166.627 206.426 167.189C206.426 167.728 206.25 168.179 205.898 168.543C205.559 168.906 205.055 169.088 204.387 169.088C203.719 169.088 203.215 168.906 202.875 168.543C202.547 168.179 202.383 167.728 202.383 167.189ZM202.4 151.668C202.4 151.105 202.564 150.636 202.893 150.261C203.232 149.886 203.736 149.699 204.404 149.699C205.072 149.699 205.576 149.886 205.916 150.261C206.268 150.636 206.443 151.105 206.443 151.668C206.443 152.207 206.268 152.658 205.916 153.021C205.576 153.384 205.072 153.566 204.404 153.566C203.736 153.566 203.232 153.384 202.893 153.021C202.564 152.658 202.4 152.207 202.4 151.668Z" fill="white"/>
</g>
<g id="a\;\psi\;b=3(b\;\psi\;a)+ab   5\:\psi\:4">
<g id="Group">
<g id="Group 88">
<g id="Group_2">
<path id="Vector" d="M164 85.7197C164 83.0263 165.013 80.4663 167.04 78.0397C169.067 75.613 171.347 74.3863 173.88 74.3597C175.24 74.3597 176.44 75.013 177.48 76.3197C177.907 75.5197 178.52 75.1197 179.32 75.1197C179.667 75.1197 179.973 75.2263 180.24 75.4397C180.507 75.653 180.64 75.9197 180.64 76.2397C180.64 76.5863 180.147 78.7197 179.16 82.6397C178.173 86.5597 177.667 88.773 177.64 89.2797C177.64 89.9463 177.733 90.3863 177.92 90.5997C178.107 90.813 178.387 90.933 178.76 90.9597C179 90.933 179.267 90.813 179.56 90.5997C180.12 90.0663 180.667 88.7863 181.2 86.7597C181.36 86.2263 181.493 85.9463 181.6 85.9197C181.653 85.893 181.787 85.8797 182 85.8797H182.16C182.667 85.8797 182.92 85.9997 182.92 86.2397C182.92 86.3997 182.853 86.7597 182.72 87.3197C182.587 87.8797 182.32 88.5997 181.92 89.4797C181.52 90.3597 181.093 91.0263 180.64 91.4797C180.293 91.8263 179.867 92.1063 179.36 92.3197C179.147 92.373 178.827 92.3997 178.4 92.3997C177.493 92.3997 176.733 92.1997 176.12 91.7997C175.507 91.3997 175.107 90.9863 174.92 90.5597L174.68 89.9597C174.653 89.933 174.6 89.9463 174.52 89.9997C174.467 90.053 174.413 90.1063 174.36 90.1597C172.787 91.653 171.187 92.3997 169.56 92.3997C168.093 92.3997 166.8 91.8663 165.68 90.7997C164.56 89.733 164 88.0397 164 85.7197ZM176.72 78.8797C176.72 78.7197 176.653 78.4263 176.52 77.9997C176.387 77.573 176.08 77.1063 175.6 76.5997C175.12 76.093 174.507 75.8263 173.76 75.7997C172.827 75.7997 171.933 76.213 171.08 77.0397C170.227 77.8663 169.56 78.9463 169.08 80.2797C168.307 82.3863 167.76 84.573 167.44 86.8397C167.44 86.9197 167.44 87.0663 167.44 87.2797C167.44 87.493 167.427 87.653 167.4 87.7597C167.4 88.9597 167.64 89.7863 168.12 90.2397C168.6 90.693 169.173 90.933 169.84 90.9597C170.853 90.9597 171.853 90.5197 172.84 89.6397C173.827 88.7597 174.413 88.0797 174.6 87.5997C174.653 87.493 175.013 86.0663 175.68 83.3197C176.347 80.573 176.693 79.093 176.72 78.8797Z" fill="white"/>
</g>
<g id="Group_3">
<path id="Vector_2" d="M201.392 74.3587C202.485 74.3587 203.352 74.6787 203.992 75.3187C204.632 75.9587 204.952 76.7454 204.952 77.6787C204.952 78.2121 204.525 79.6254 203.672 81.9187C202.819 84.2121 202.405 85.8787 202.432 86.9187C202.512 88.0387 202.872 88.9187 203.512 89.5587C204.072 90.0387 204.645 90.3587 205.232 90.5187C205.712 90.7321 206.125 90.8387 206.472 90.8387H206.512L209.792 77.5987C212.032 68.7721 213.165 64.3454 213.192 64.3187C213.272 64.2654 213.485 64.2387 213.832 64.2387C214.365 64.2387 214.632 64.3321 214.632 64.5187C214.632 64.7587 213.552 69.1721 211.392 77.7587C209.205 86.5054 208.112 90.8921 208.112 90.9187C208.112 90.9454 208.192 90.9587 208.352 90.9587C210.645 90.9587 212.819 89.7854 214.872 87.4387C216.925 85.0921 217.965 82.9054 217.992 80.8787C217.992 80.2387 217.885 79.6921 217.672 79.2387C217.459 78.7854 217.219 78.4654 216.952 78.2787C216.685 78.0921 216.445 77.8521 216.232 77.5587C216.019 77.2654 215.912 76.9587 215.912 76.6387C215.912 76.0787 216.139 75.5454 216.592 75.0387C217.045 74.5321 217.605 74.2787 218.272 74.2787C218.779 74.2787 219.245 74.5187 219.672 74.9987C220.099 75.4787 220.312 76.2654 220.312 77.3587C220.312 78.1321 220.165 79.1721 219.872 80.4787C219.579 81.7854 219.339 82.6921 219.152 83.1987C218.299 85.7321 216.792 87.9054 214.632 89.7187C212.472 91.5321 210.299 92.4387 208.112 92.4387H207.712L206.792 96.1587C206.152 98.6654 205.832 99.9321 205.832 99.9587C205.779 100.119 205.512 100.199 205.032 100.199H204.512C204.352 100.039 204.272 99.9321 204.272 99.8787C204.272 99.7454 204.579 98.4787 205.192 96.0787C205.805 93.6787 206.112 92.4387 206.112 92.3587C205.925 92.3321 205.739 92.3187 205.552 92.3187C201.312 91.7321 199.192 89.7721 199.192 86.4387C199.192 85.5054 199.632 83.8387 200.512 81.4387C201.392 79.0387 201.845 77.5054 201.872 76.8387C201.872 76.8121 201.872 76.7854 201.872 76.7587C201.872 76.5187 201.872 76.3587 201.872 76.2787C201.872 76.1987 201.819 76.1054 201.712 75.9987C201.605 75.8921 201.459 75.8387 201.272 75.8387H201.112C200.499 75.8387 199.939 76.0921 199.432 76.5987C198.925 77.1054 198.525 77.6521 198.232 78.2387C197.939 78.8254 197.712 79.3854 197.552 79.9187C197.392 80.4521 197.285 80.7454 197.232 80.7987C197.179 80.8521 196.965 80.8787 196.592 80.8787H196.032C195.872 80.7187 195.792 80.5987 195.792 80.5187C195.792 80.1987 195.965 79.5854 196.312 78.6787C196.659 77.7721 197.299 76.8254 198.232 75.8387C199.165 74.8521 200.219 74.3587 201.392 74.3587Z" fill="white"/>
</g>
<g id="Group_4">
<path id="Vector_3" d="M235.025 66.1187C235.025 65.8521 235.078 65.5454 235.185 65.1987C235.291 64.8521 235.451 64.6787 235.665 64.6787C235.691 64.6787 236.651 64.6121 238.545 64.4787C240.438 64.3454 241.411 64.2654 241.465 64.2387C241.785 64.2387 241.945 64.3587 241.945 64.5987C241.945 64.8387 241.491 66.7454 240.585 70.3187C240.371 71.2254 240.145 72.1587 239.905 73.1187C239.665 74.0787 239.465 74.7987 239.305 75.2787L239.145 76.0387C239.145 76.1187 239.225 76.0787 239.385 75.9187C240.691 74.8521 242.038 74.3187 243.425 74.3187C245.078 74.3187 246.411 74.9321 247.425 76.1587C248.438 77.3854 248.958 78.9321 248.985 80.7987C248.985 83.7587 247.931 86.4387 245.825 88.8387C243.718 91.2387 241.451 92.4387 239.025 92.4387C237.691 92.4387 236.478 91.9321 235.385 90.9187C234.291 89.9054 233.731 88.2654 233.705 85.9987V85.6387C233.705 85.0787 233.811 84.3054 234.025 83.3187C234.238 82.3321 234.891 79.7054 235.985 75.4387C237.318 70.1854 237.985 67.3987 237.985 67.0787C237.985 66.7587 237.478 66.5721 236.465 66.5187C236.331 66.5187 236.225 66.5187 236.145 66.5187H235.945C235.678 66.5187 235.505 66.5187 235.425 66.5187C235.345 66.5187 235.251 66.4787 235.145 66.3987C235.038 66.3187 234.998 66.2254 235.025 66.1187ZM245.545 78.9987V78.7587C245.545 76.7854 244.731 75.7987 243.105 75.7987C242.651 75.7987 242.185 75.9054 241.705 76.1187C241.225 76.3321 240.785 76.6121 240.385 76.9587C239.985 77.3054 239.638 77.6254 239.345 77.9187C239.051 78.2121 238.811 78.5054 238.625 78.7987L238.385 79.1187L237.545 82.5587C236.958 84.8521 236.665 86.4787 236.665 87.4387C236.665 88.7187 236.985 89.6787 237.625 90.3187C238.051 90.7454 238.585 90.9587 239.225 90.9587C240.105 90.9587 240.998 90.5321 241.905 89.6787C242.571 89.0654 243.105 88.3187 243.505 87.4387C243.905 86.5587 244.345 85.1587 244.825 83.2387C245.305 81.3187 245.545 79.9054 245.545 78.9987Z" fill="white"/>
</g>
<g id="Group_5">
<path id="Vector_4" d="M262.611 78.1194C262.611 77.7728 262.798 77.5061 263.171 77.3194H288.651C289.051 77.5328 289.251 77.7994 289.251 78.1194C289.251 78.4128 289.064 78.6661 288.691 78.8794L275.971 78.9194H263.251C262.824 78.7861 262.611 78.5194 262.611 78.1194ZM262.611 85.8794C262.611 85.4794 262.824 85.2128 263.251 85.0794H288.691C289.064 85.3461 289.251 85.6128 289.251 85.8794C289.251 86.2261 289.051 86.4928 288.651 86.6794H263.171C262.798 86.4928 262.611 86.2261 262.611 85.8794Z" fill="white"/>
</g>
<g id="Group_6">
<path id="Vector_5" d="M307.683 73.4794C306.963 73.4794 306.403 73.2527 306.003 72.7994C305.603 72.3461 305.39 71.7594 305.363 71.0394C305.363 69.5727 306.003 68.2661 307.283 67.1194C308.563 65.9727 310.11 65.3994 311.923 65.3994C312.857 65.3994 313.443 65.4127 313.683 65.4394C315.657 65.7594 317.163 66.4661 318.203 67.5594C319.243 68.6527 319.777 69.8394 319.803 71.1194C319.803 72.5061 319.35 73.8527 318.443 75.1594C317.537 76.4661 316.283 77.4127 314.683 77.9994L314.563 78.0794C314.563 78.1061 314.683 78.1461 314.923 78.1994C315.163 78.2527 315.55 78.3727 316.083 78.5594C316.617 78.7461 317.123 79.0261 317.603 79.3994C319.79 80.8127 320.883 82.6794 320.883 84.9994C320.883 87.1061 320.057 88.9461 318.403 90.5194C316.75 92.0927 314.657 92.8794 312.123 92.8794C309.99 92.8794 308.15 92.3061 306.603 91.1594C305.057 90.0127 304.283 88.5594 304.283 86.7994C304.283 86.0527 304.523 85.4527 305.003 84.9994C305.483 84.5461 306.083 84.3061 306.803 84.2794C307.55 84.2794 308.163 84.5194 308.643 84.9994C309.123 85.4794 309.363 86.0794 309.363 86.7994C309.363 87.0927 309.323 87.3594 309.243 87.5994C309.163 87.8394 309.07 88.0527 308.963 88.2394C308.857 88.4261 308.71 88.5861 308.523 88.7194C308.337 88.8527 308.177 88.9594 308.043 89.0394C307.91 89.1194 307.777 89.1727 307.643 89.1994C307.51 89.2261 307.403 89.2661 307.323 89.3194L307.163 89.3594C308.523 90.5594 310.177 91.1594 312.123 91.1594C313.59 91.1594 314.697 90.4527 315.443 89.0394C315.897 88.1594 316.123 86.8127 316.123 84.9994V84.1994C316.123 81.6661 315.27 79.9727 313.563 79.1194C313.163 78.9594 312.35 78.8661 311.123 78.8394L309.443 78.7994L309.323 78.7194C309.27 78.6394 309.243 78.4261 309.243 78.0794C309.243 77.5994 309.35 77.3594 309.563 77.3594C310.31 77.3594 311.083 77.2927 311.883 77.1594C312.79 77.0261 313.617 76.4661 314.363 75.4794C315.11 74.4927 315.483 72.9994 315.483 70.9994V70.6794C315.483 69.1594 315.017 68.1061 314.083 67.5194C313.497 67.1461 312.87 66.9594 312.203 66.9594C311.35 66.9594 310.563 67.1061 309.843 67.3994C309.123 67.6927 308.617 67.9994 308.323 68.3194C308.03 68.6394 307.883 68.7994 307.883 68.7994H308.003C308.083 68.8261 308.19 68.8527 308.323 68.8794C308.457 68.9061 308.59 68.9727 308.723 69.0794C308.857 69.1861 309.017 69.2794 309.203 69.3594C309.39 69.4394 309.523 69.5861 309.603 69.7994C309.683 70.0127 309.79 70.2127 309.923 70.3994C310.057 70.5861 310.097 70.8527 310.043 71.1994C310.043 71.7861 309.857 72.3061 309.483 72.7594C309.11 73.2127 308.51 73.4527 307.683 73.4794Z" fill="white"/>
</g>
<g id="Group_7">
<path id="Vector_6" d="M326.363 81.9993C326.363 80.1593 326.497 78.4126 326.763 76.7593C327.03 75.1059 327.337 73.6793 327.683 72.4793C328.03 71.2793 328.523 70.1059 329.163 68.9593C329.803 67.8126 330.31 66.9193 330.683 66.2793C331.057 65.6393 331.617 64.9459 332.363 64.1993C333.11 63.4526 333.55 62.9993 333.683 62.8393C333.817 62.6793 334.15 62.3993 334.683 61.9993H335.203H335.363C335.737 61.9993 335.923 62.1193 335.923 62.3593C335.923 62.4393 335.697 62.7193 335.243 63.1993C334.79 63.6793 334.243 64.3859 333.603 65.3193C332.963 66.2526 332.31 67.3993 331.643 68.7593C330.977 70.1193 330.417 71.9593 329.963 74.2793C329.51 76.5993 329.283 79.1726 329.283 81.9993C329.283 84.8259 329.51 87.3859 329.963 89.6793C330.417 91.9726 330.963 93.8259 331.603 95.2393C332.243 96.6526 332.897 97.7993 333.563 98.6793C334.23 99.5593 334.79 100.266 335.243 100.799C335.697 101.333 335.923 101.613 335.923 101.639C335.923 101.879 335.723 101.999 335.323 101.999H335.203H334.683L333.563 101.039C331.057 98.7726 329.23 95.9459 328.083 92.5593C326.937 89.1726 326.363 85.6526 326.363 81.9993Z" fill="white"/>
</g>
<g id="Group_8">
<path id="Vector_7" d="M341.084 66.1187C341.084 65.8521 341.137 65.5454 341.244 65.1987C341.351 64.8521 341.511 64.6787 341.724 64.6787C341.751 64.6787 342.711 64.6121 344.604 64.4787C346.497 64.3454 347.471 64.2654 347.524 64.2387C347.844 64.2387 348.004 64.3587 348.004 64.5987C348.004 64.8387 347.551 66.7454 346.644 70.3187C346.431 71.2254 346.204 72.1587 345.964 73.1187C345.724 74.0787 345.524 74.7987 345.364 75.2787L345.204 76.0387C345.204 76.1187 345.284 76.0787 345.444 75.9187C346.751 74.8521 348.097 74.3187 349.484 74.3187C351.137 74.3187 352.471 74.9321 353.484 76.1587C354.497 77.3854 355.017 78.9321 355.044 80.7987C355.044 83.7587 353.991 86.4387 351.884 88.8387C349.777 91.2387 347.511 92.4387 345.084 92.4387C343.751 92.4387 342.537 91.9321 341.444 90.9187C340.351 89.9054 339.791 88.2654 339.764 85.9987V85.6387C339.764 85.0787 339.871 84.3054 340.084 83.3187C340.297 82.3321 340.951 79.7054 342.044 75.4387C343.377 70.1854 344.044 67.3987 344.044 67.0787C344.044 66.7587 343.537 66.5721 342.524 66.5187C342.391 66.5187 342.284 66.5187 342.204 66.5187H342.004C341.737 66.5187 341.564 66.5187 341.484 66.5187C341.404 66.5187 341.311 66.4787 341.204 66.3987C341.097 66.3187 341.057 66.2254 341.084 66.1187ZM351.604 78.9987V78.7587C351.604 76.7854 350.791 75.7987 349.164 75.7987C348.711 75.7987 348.244 75.9054 347.764 76.1187C347.284 76.3321 346.844 76.6121 346.444 76.9587C346.044 77.3054 345.697 77.6254 345.404 77.9187C345.111 78.2121 344.871 78.5054 344.684 78.7987L344.444 79.1187L343.604 82.5587C343.017 84.8521 342.724 86.4787 342.724 87.4387C342.724 88.7187 343.044 89.6787 343.684 90.3187C344.111 90.7454 344.644 90.9587 345.284 90.9587C346.164 90.9587 347.057 90.5321 347.964 89.6787C348.631 89.0654 349.164 88.3187 349.564 87.4387C349.964 86.5587 350.404 85.1587 350.884 83.2387C351.364 81.3187 351.604 79.9054 351.604 78.9987Z" fill="white"/>
</g>
<g id="Group_9">
<path id="Vector_8" d="M372.876 74.3587C373.97 74.3587 374.836 74.6787 375.476 75.3187C376.116 75.9587 376.436 76.7454 376.436 77.6787C376.436 78.2121 376.01 79.6254 375.156 81.9187C374.303 84.2121 373.89 85.8787 373.916 86.9187C373.996 88.0387 374.356 88.9187 374.996 89.5587C375.556 90.0387 376.13 90.3587 376.716 90.5187C377.196 90.7321 377.61 90.8387 377.956 90.8387H377.996L381.276 77.5987C383.516 68.7721 384.65 64.3454 384.676 64.3187C384.756 64.2654 384.97 64.2387 385.316 64.2387C385.85 64.2387 386.116 64.3321 386.116 64.5187C386.116 64.7587 385.036 69.1721 382.876 77.7587C380.69 86.5054 379.596 90.8921 379.596 90.9187C379.596 90.9454 379.676 90.9587 379.836 90.9587C382.13 90.9587 384.303 89.7854 386.356 87.4387C388.41 85.0921 389.45 82.9054 389.476 80.8787C389.476 80.2387 389.37 79.6921 389.156 79.2387C388.943 78.7854 388.703 78.4654 388.436 78.2787C388.17 78.0921 387.93 77.8521 387.716 77.5587C387.503 77.2654 387.396 76.9587 387.396 76.6387C387.396 76.0787 387.623 75.5454 388.076 75.0387C388.53 74.5321 389.09 74.2787 389.756 74.2787C390.263 74.2787 390.73 74.5187 391.156 74.9987C391.583 75.4787 391.796 76.2654 391.796 77.3587C391.796 78.1321 391.65 79.1721 391.356 80.4787C391.063 81.7854 390.823 82.6921 390.636 83.1987C389.783 85.7321 388.276 87.9054 386.116 89.7187C383.956 91.5321 381.783 92.4387 379.596 92.4387H379.196L378.276 96.1587C377.636 98.6654 377.316 99.9321 377.316 99.9587C377.263 100.119 376.996 100.199 376.516 100.199H375.996C375.836 100.039 375.756 99.9321 375.756 99.8787C375.756 99.7454 376.063 98.4787 376.676 96.0787C377.29 93.6787 377.596 92.4387 377.596 92.3587C377.41 92.3321 377.223 92.3187 377.036 92.3187C372.796 91.7321 370.676 89.7721 370.676 86.4387C370.676 85.5054 371.116 83.8387 371.996 81.4387C372.876 79.0387 373.33 77.5054 373.356 76.8387C373.356 76.8121 373.356 76.7854 373.356 76.7587C373.356 76.5187 373.356 76.3587 373.356 76.2787C373.356 76.1987 373.303 76.1054 373.196 75.9987C373.09 75.8921 372.943 75.8387 372.756 75.8387H372.596C371.983 75.8387 371.423 76.0921 370.916 76.5987C370.41 77.1054 370.01 77.6521 369.716 78.2387C369.423 78.8254 369.196 79.3854 369.036 79.9187C368.876 80.4521 368.77 80.7454 368.716 80.7987C368.663 80.8521 368.45 80.8787 368.076 80.8787H367.516C367.356 80.7187 367.276 80.5987 367.276 80.5187C367.276 80.1987 367.45 79.5854 367.796 78.6787C368.143 77.7721 368.783 76.8254 369.716 75.8387C370.65 74.8521 371.703 74.3587 372.876 74.3587Z" fill="white"/>
</g>
<g id="Group_10">
<path id="Vector_9" d="M404.908 85.7197C404.908 83.0263 405.922 80.4663 407.948 78.0397C409.975 75.613 412.255 74.3863 414.788 74.3597C416.148 74.3597 417.348 75.013 418.388 76.3197C418.815 75.5197 419.428 75.1197 420.228 75.1197C420.575 75.1197 420.882 75.2263 421.148 75.4397C421.415 75.653 421.548 75.9197 421.548 76.2397C421.548 76.5863 421.055 78.7197 420.068 82.6397C419.082 86.5597 418.575 88.773 418.548 89.2797C418.548 89.9463 418.642 90.3863 418.828 90.5997C419.015 90.813 419.295 90.933 419.668 90.9597C419.908 90.933 420.175 90.813 420.468 90.5997C421.028 90.0663 421.575 88.7863 422.108 86.7597C422.268 86.2263 422.402 85.9463 422.508 85.9197C422.562 85.893 422.695 85.8797 422.908 85.8797H423.068C423.575 85.8797 423.828 85.9997 423.828 86.2397C423.828 86.3997 423.762 86.7597 423.628 87.3197C423.495 87.8797 423.228 88.5997 422.828 89.4797C422.428 90.3597 422.002 91.0263 421.548 91.4797C421.202 91.8263 420.775 92.1063 420.268 92.3197C420.055 92.373 419.735 92.3997 419.308 92.3997C418.402 92.3997 417.642 92.1997 417.028 91.7997C416.415 91.3997 416.015 90.9863 415.828 90.5597L415.588 89.9597C415.562 89.933 415.508 89.9463 415.428 89.9997C415.375 90.053 415.322 90.1063 415.268 90.1597C413.695 91.653 412.095 92.3997 410.468 92.3997C409.002 92.3997 407.708 91.8663 406.588 90.7997C405.468 89.733 404.908 88.0397 404.908 85.7197ZM417.628 78.8797C417.628 78.7197 417.562 78.4263 417.428 77.9997C417.295 77.573 416.988 77.1063 416.508 76.5997C416.028 76.093 415.415 75.8263 414.668 75.7997C413.735 75.7997 412.842 76.213 411.988 77.0397C411.135 77.8663 410.468 78.9463 409.988 80.2797C409.215 82.3863 408.668 84.573 408.348 86.8397C408.348 86.9197 408.348 87.0663 408.348 87.2797C408.348 87.493 408.335 87.653 408.308 87.7597C408.308 88.9597 408.548 89.7863 409.028 90.2397C409.508 90.693 410.082 90.933 410.748 90.9597C411.762 90.9597 412.762 90.5197 413.748 89.6397C414.735 88.7597 415.322 88.0797 415.508 87.5997C415.562 87.493 415.922 86.0663 416.588 83.3197C417.255 80.573 417.602 79.093 417.628 78.8797Z" fill="white"/>
</g>
<g id="Group_11">
<path id="Vector_10" d="M427.147 62.0393L427.307 61.9993C427.44 61.9993 427.573 61.9993 427.707 61.9993H428.187L429.307 62.9593C431.813 65.2259 433.64 68.0526 434.787 71.4393C435.933 74.8259 436.507 78.3459 436.507 81.9993C436.507 83.8126 436.373 85.5593 436.107 87.2393C435.84 88.9193 435.533 90.3459 435.187 91.5193C434.84 92.6926 434.347 93.8659 433.707 95.0393C433.067 96.2126 432.56 97.1059 432.187 97.7193C431.813 98.3326 431.267 99.0126 430.547 99.7593C429.827 100.506 429.4 100.946 429.267 101.079C429.133 101.213 428.827 101.466 428.347 101.839C428.267 101.919 428.213 101.973 428.187 101.999H427.707C427.493 101.999 427.347 101.999 427.267 101.999C427.187 101.999 427.12 101.959 427.067 101.879C427.013 101.799 426.973 101.679 426.947 101.519C426.973 101.493 427.12 101.319 427.387 100.999C431.52 96.7059 433.587 90.3726 433.587 81.9993C433.587 73.6259 431.52 67.2926 427.387 62.9993C427.12 62.6793 426.973 62.5059 426.947 62.4793C426.947 62.2659 427.013 62.1193 427.147 62.0393Z" fill="white"/>
</g>
<g id="Group_12">
<path id="Vector_11" d="M451.437 82.5193C451.437 82.5193 451.437 82.346 451.437 81.9993C451.437 81.6526 451.623 81.386 451.997 81.1993H463.957V75.1993L463.997 69.1993C464.263 68.8526 464.517 68.6793 464.757 68.6793C465.103 68.6793 465.37 68.8793 465.557 69.2793V81.1993H477.477C477.877 81.4126 478.077 81.6793 478.077 81.9993C478.077 82.3193 477.877 82.586 477.477 82.7993H465.557V94.7193C465.343 95.0926 465.103 95.2793 464.837 95.2793H464.757H464.677C464.357 95.2793 464.117 95.0926 463.957 94.7193V82.7993H451.997C451.623 82.6126 451.437 82.346 451.437 81.9993V82.5193Z" fill="white"/>
</g>
<g id="Group_13">
<path id="Vector_12" d="M490.523 85.7197C490.523 83.0263 491.537 80.4663 493.563 78.0397C495.59 75.613 497.87 74.3863 500.403 74.3597C501.763 74.3597 502.963 75.013 504.003 76.3197C504.43 75.5197 505.043 75.1197 505.843 75.1197C506.19 75.1197 506.497 75.2263 506.763 75.4397C507.03 75.653 507.163 75.9197 507.163 76.2397C507.163 76.5863 506.67 78.7197 505.683 82.6397C504.697 86.5597 504.19 88.773 504.163 89.2797C504.163 89.9463 504.257 90.3863 504.443 90.5997C504.63 90.813 504.91 90.933 505.283 90.9597C505.523 90.933 505.79 90.813 506.083 90.5997C506.643 90.0663 507.19 88.7863 507.723 86.7597C507.883 86.2263 508.017 85.9463 508.123 85.9197C508.177 85.893 508.31 85.8797 508.523 85.8797H508.683C509.19 85.8797 509.443 85.9997 509.443 86.2397C509.443 86.3997 509.377 86.7597 509.243 87.3197C509.11 87.8797 508.843 88.5997 508.443 89.4797C508.043 90.3597 507.617 91.0263 507.163 91.4797C506.817 91.8263 506.39 92.1063 505.883 92.3197C505.67 92.373 505.35 92.3997 504.923 92.3997C504.017 92.3997 503.257 92.1997 502.643 91.7997C502.03 91.3997 501.63 90.9863 501.443 90.5597L501.203 89.9597C501.177 89.933 501.123 89.9463 501.043 89.9997C500.99 90.053 500.937 90.1063 500.883 90.1597C499.31 91.653 497.71 92.3997 496.083 92.3997C494.617 92.3997 493.323 91.8663 492.203 90.7997C491.083 89.733 490.523 88.0397 490.523 85.7197ZM503.243 78.8797C503.243 78.7197 503.177 78.4263 503.043 77.9997C502.91 77.573 502.603 77.1063 502.123 76.5997C501.643 76.093 501.03 75.8263 500.283 75.7997C499.35 75.7997 498.457 76.213 497.603 77.0397C496.75 77.8663 496.083 78.9463 495.603 80.2797C494.83 82.3863 494.283 84.573 493.963 86.8397C493.963 86.9197 493.963 87.0663 493.963 87.2797C493.963 87.493 493.95 87.653 493.923 87.7597C493.923 88.9597 494.163 89.7863 494.643 90.2397C495.123 90.693 495.697 90.933 496.363 90.9597C497.377 90.9597 498.377 90.5197 499.363 89.6397C500.35 88.7597 500.937 88.0797 501.123 87.5997C501.177 87.493 501.537 86.0663 502.203 83.3197C502.87 80.573 503.217 79.093 503.243 78.8797Z" fill="white"/>
</g>
<g id="Group_14">
<path id="Vector_13" d="M513.284 66.1187C513.284 65.8521 513.337 65.5454 513.444 65.1987C513.551 64.8521 513.711 64.6787 513.924 64.6787C513.951 64.6787 514.911 64.6121 516.804 64.4787C518.697 64.3454 519.671 64.2654 519.724 64.2387C520.044 64.2387 520.204 64.3587 520.204 64.5987C520.204 64.8387 519.751 66.7454 518.844 70.3187C518.631 71.2254 518.404 72.1587 518.164 73.1187C517.924 74.0787 517.724 74.7987 517.564 75.2787L517.404 76.0387C517.404 76.1187 517.484 76.0787 517.644 75.9187C518.951 74.8521 520.297 74.3187 521.684 74.3187C523.337 74.3187 524.671 74.9321 525.684 76.1587C526.697 77.3854 527.217 78.9321 527.244 80.7987C527.244 83.7587 526.191 86.4387 524.084 88.8387C521.977 91.2387 519.711 92.4387 517.284 92.4387C515.951 92.4387 514.737 91.9321 513.644 90.9187C512.551 89.9054 511.991 88.2654 511.964 85.9987V85.6387C511.964 85.0787 512.071 84.3054 512.284 83.3187C512.497 82.3321 513.151 79.7054 514.244 75.4387C515.577 70.1854 516.244 67.3987 516.244 67.0787C516.244 66.7587 515.737 66.5721 514.724 66.5187C514.591 66.5187 514.484 66.5187 514.404 66.5187H514.204C513.937 66.5187 513.764 66.5187 513.684 66.5187C513.604 66.5187 513.511 66.4787 513.404 66.3987C513.297 66.3187 513.257 66.2254 513.284 66.1187ZM523.804 78.9987V78.7587C523.804 76.7854 522.991 75.7987 521.364 75.7987C520.911 75.7987 520.444 75.9054 519.964 76.1187C519.484 76.3321 519.044 76.6121 518.644 76.9587C518.244 77.3054 517.897 77.6254 517.604 77.9187C517.311 78.2121 517.071 78.5054 516.884 78.7987L516.644 79.1187L515.804 82.5587C515.217 84.8521 514.924 86.4787 514.924 87.4387C514.924 88.7187 515.244 89.6787 515.884 90.3187C516.311 90.7454 516.844 90.9587 517.484 90.9587C518.364 90.9587 519.257 90.5321 520.164 89.6787C520.831 89.0654 521.364 88.3187 521.764 87.4387C522.164 86.5587 522.604 85.1587 523.084 83.2387C523.564 81.3187 523.804 79.9054 523.804 78.9987Z" fill="white"/>
</g>
</g>
<g id="Group 87">
<g id="Group_15">
<path id="Vector_14" d="M240.56 195.481C240.56 196.121 240.347 196.654 239.92 197.081C239.493 197.507 238.973 197.721 238.36 197.721H238.08C239.307 199.827 240.933 200.881 242.96 200.881C244.827 200.881 246.187 200.081 247.04 198.481C247.547 197.601 247.8 195.894 247.8 193.361C247.8 190.614 247.44 188.761 246.72 187.801C246.027 186.921 245.253 186.481 244.4 186.481H244.16C242.08 186.481 240.507 187.387 239.44 189.201C239.333 189.387 239.24 189.494 239.16 189.521C239.08 189.547 238.88 189.574 238.56 189.601C238.107 189.601 237.853 189.521 237.8 189.361C237.747 189.254 237.72 186.921 237.72 182.361V177.201C237.72 175.867 237.787 175.201 237.92 175.201C237.973 175.147 238.027 175.121 238.08 175.121C238.107 175.121 238.387 175.227 238.92 175.441C239.453 175.654 240.187 175.867 241.12 176.081C242.053 176.294 243.053 176.401 244.12 176.401C246.013 176.401 247.827 176.027 249.56 175.281C249.773 175.174 249.947 175.121 250.08 175.121C250.293 175.121 250.4 175.361 250.4 175.841V176.361C248.213 178.947 245.48 180.241 242.2 180.241C241.373 180.241 240.627 180.161 239.96 180.001L239.56 179.921V186.801C240.067 186.427 240.467 186.134 240.76 185.921C241.053 185.707 241.533 185.494 242.2 185.281C242.867 185.067 243.547 184.961 244.24 184.961C246.4 184.961 248.227 185.827 249.72 187.561C251.213 189.294 251.96 191.347 251.96 193.721C251.96 196.174 251.107 198.267 249.4 200.001C247.693 201.734 245.613 202.614 243.16 202.641C241 202.641 239.267 201.921 237.96 200.481C236.653 199.041 236 197.414 236 195.601C236 194.961 236.147 194.454 236.44 194.081C236.733 193.707 237.04 193.467 237.36 193.361C237.68 193.254 237.987 193.201 238.28 193.201C238.947 193.201 239.493 193.427 239.92 193.881C240.347 194.334 240.56 194.867 240.56 195.481Z" fill="white"/>
</g>
<g id="Group_16">
<path id="Vector_15" d="M269.327 184.12C270.42 184.12 271.287 184.44 271.927 185.08C272.567 185.72 272.887 186.507 272.887 187.44C272.887 187.973 272.46 189.387 271.607 191.68C270.754 193.973 270.34 195.64 270.367 196.68C270.447 197.8 270.807 198.68 271.447 199.32C272.007 199.8 272.58 200.12 273.167 200.28C273.647 200.493 274.06 200.6 274.407 200.6H274.447L277.727 187.36C279.967 178.533 281.1 174.107 281.127 174.08C281.207 174.027 281.42 174 281.767 174C282.3 174 282.567 174.093 282.567 174.28C282.567 174.52 281.487 178.933 279.327 187.52C277.14 196.267 276.047 200.653 276.047 200.68C276.047 200.707 276.127 200.72 276.287 200.72C278.58 200.72 280.754 199.547 282.807 197.2C284.86 194.853 285.9 192.667 285.927 190.64C285.927 190 285.82 189.453 285.607 189C285.394 188.547 285.154 188.227 284.887 188.04C284.62 187.853 284.38 187.613 284.167 187.32C283.954 187.027 283.847 186.72 283.847 186.4C283.847 185.84 284.074 185.307 284.527 184.8C284.98 184.293 285.54 184.04 286.207 184.04C286.714 184.04 287.18 184.28 287.607 184.76C288.034 185.24 288.247 186.027 288.247 187.12C288.247 187.893 288.1 188.933 287.807 190.24C287.514 191.547 287.274 192.453 287.087 192.96C286.234 195.493 284.727 197.667 282.567 199.48C280.407 201.293 278.234 202.2 276.047 202.2H275.647L274.727 205.92C274.087 208.427 273.767 209.693 273.767 209.72C273.714 209.88 273.447 209.96 272.967 209.96H272.447C272.287 209.8 272.207 209.693 272.207 209.64C272.207 209.507 272.514 208.24 273.127 205.84C273.74 203.44 274.047 202.2 274.047 202.12C273.86 202.093 273.674 202.08 273.487 202.08C269.247 201.493 267.127 199.533 267.127 196.2C267.127 195.267 267.567 193.6 268.447 191.2C269.327 188.8 269.78 187.267 269.807 186.6C269.807 186.573 269.807 186.547 269.807 186.52C269.807 186.28 269.807 186.12 269.807 186.04C269.807 185.96 269.754 185.867 269.647 185.76C269.54 185.653 269.394 185.6 269.207 185.6H269.047C268.434 185.6 267.874 185.853 267.367 186.36C266.86 186.867 266.46 187.413 266.167 188C265.874 188.587 265.647 189.147 265.487 189.68C265.327 190.213 265.22 190.507 265.167 190.56C265.114 190.613 264.9 190.64 264.527 190.64H263.967C263.807 190.48 263.727 190.36 263.727 190.28C263.727 189.96 263.9 189.347 264.247 188.44C264.594 187.533 265.234 186.587 266.167 185.6C267.1 184.613 268.154 184.12 269.327 184.12Z" fill="white"/>
</g>
<g id="Group_17">
<path id="Vector_16" d="M316.299 201.76C315.819 201.68 314.099 201.64 311.139 201.64C308.046 201.64 306.259 201.68 305.779 201.76H305.419V199.92H306.659C307.193 199.92 307.553 199.92 307.739 199.92C307.926 199.92 308.153 199.894 308.419 199.84C308.686 199.787 308.873 199.72 308.979 199.64C309.086 199.56 309.179 199.454 309.259 199.32C309.286 199.267 309.299 198.547 309.299 197.16V195.16H298.939V193.32L304.979 184.08C309.059 177.894 311.126 174.787 311.179 174.76C311.233 174.707 311.513 174.68 312.019 174.68H312.739L312.979 174.92V193.32H316.659V195.16H312.979V197.2C312.979 198.294 312.979 198.934 312.979 199.12C312.979 199.307 313.059 199.467 313.219 199.6C313.433 199.787 314.193 199.894 315.499 199.92H316.659V201.76H316.299ZM309.539 193.32V179.96L300.779 193.28L305.139 193.32H309.539Z" fill="white"/>
</g>
</g>
</g>
</g>
</g>
<g id="claves01">
<path id="Rectangle 4" d="M50 326H266.745L300 366L266.745 406H50V326Z" fill="#CD08D1" fill-opacity="0.1"/>
<path id="Rectangle 4 (Stroke)" fill-rule="evenodd" clip-rule="evenodd" d="M265.338 329H53V403H265.338L296.099 366L265.338 329ZM266.745 326H50V406H266.745L300 366L266.745 326Z" fill="#CD08D1"/>
<path id="Rectangle 5" d="M54 436H270.745L304 476L270.745 516H54V436Z" fill="#CD08D1" fill-opacity="0.1"/>
<path id="Rectangle 5 (Stroke)" fill-rule="evenodd" clip-rule="evenodd" d="M269.338 439H57V513H269.338L300.099 476L269.338 439ZM270.745 436H54V516H270.745L304 476L270.745 436Z" fill="#CD08D1"/>
<path id="Rectangle 6" d="M390 323H606.745L640 363L606.745 403H390V323Z" fill="#CD08D1" fill-opacity="0.1"/>
<path id="Rectangle 6 (Stroke)" fill-rule="evenodd" clip-rule="evenodd" d="M605.338 326H393V400H605.338L636.099 363L605.338 326ZM606.745 323H390V403H606.745L640 363L606.745 323Z" fill="#CD08D1"/>
<path id="Rectangle 7" d="M393 433H609.745L643 473L609.745 513H393V433Z" fill="#CD08D1" fill-opacity="0.1"/>
<path id="Rectangle 7 (Stroke)" fill-rule="evenodd" clip-rule="evenodd" d="M608.338 436H396V510H608.338L639.099 473L608.338 436ZM609.745 433H393V513H609.745L643 473L609.745 433Z" fill="#CD08D1"/>
<path id="Rectangle 8" d="M736 382H952.745L986 422L952.745 462H736V382Z" fill="#CD08D1" fill-opacity="0.1"/>
<path id="Rectangle 8 (Stroke)" fill-rule="evenodd" clip-rule="evenodd" d="M951.338 385H739V459H951.338L982.099 422L951.338 385ZM952.745 382H736V462H952.745L986 422L952.745 382Z" fill="#CD08D1"/>
<path id="Ellipse 1" d="M91 366C91 388.091 73.0914 406 51 406C28.9086 406 11 388.091 11 366C11 343.909 28.9086 326 51 326C73.0914 326 91 343.909 91 366Z" fill="#CD08D1"/>
<path id="Ellipse 2" d="M95 476C95 498.091 77.0914 516 55 516C32.9086 516 15 498.091 15 476C15 453.909 32.9086 436 55 436C77.0914 436 95 453.909 95 476Z" fill="#CD08D1"/>
<path id="Ellipse 3" d="M431 363C431 385.091 413.091 403 391 403C368.909 403 351 385.091 351 363C351 340.909 368.909 323 391 323C413.091 323 431 340.909 431 363Z" fill="#CD08D1"/>
<path id="Ellipse 4" d="M434 473C434 495.091 416.091 513 394 513C371.909 513 354 495.091 354 473C354 450.909 371.909 433 394 433C416.091 433 434 450.909 434 473Z" fill="#CD08D1"/>
<path id="Ellipse 5" d="M777 422C777 444.091 759.091 462 737 462C714.909 462 697 444.091 697 422C697 399.909 714.909 382 737 382C759.091 382 777 399.909 777 422Z" fill="#CD08D1"/>
<path id="A" d="M59.0938 376.406H41.4688L37.7812 387H29.5625L46.75 341.5H53.8438L71.0625 387H62.8125L59.0938 376.406ZM43.6875 370.031H56.875L50.2812 351.156L43.6875 370.031Z" fill="white"/>
<path id="B" d="M38.625 492V446.5H54.2188C59.3646 446.5 63.2812 447.531 65.9688 449.594C68.6562 451.656 70 454.729 70 458.812C70 460.896 69.4375 462.771 68.3125 464.438C67.1875 466.104 65.5417 467.396 63.375 468.312C65.8333 468.979 67.7292 470.24 69.0625 472.094C70.4167 473.927 71.0938 476.135 71.0938 478.719C71.0938 482.99 69.7188 486.271 66.9688 488.562C64.2396 490.854 60.3229 492 55.2188 492H38.625ZM46.5312 471.469V485.688H55.3125C57.7917 485.688 59.7292 485.073 61.125 483.844C62.5208 482.615 63.2188 480.906 63.2188 478.719C63.2188 473.99 60.8021 471.573 55.9688 471.469H46.5312ZM46.5312 465.656H54.2812C56.7396 465.656 58.6562 465.104 60.0312 464C61.4271 462.875 62.125 461.292 62.125 459.25C62.125 457 61.4792 455.375 60.1875 454.375C58.9167 453.375 56.9271 452.875 54.2188 452.875H46.5312V465.656Z" fill="white"/>
<path id="C" d="M408.344 370.188C407.885 375.042 406.094 378.833 402.969 381.562C399.844 384.271 395.688 385.625 390.5 385.625C386.875 385.625 383.677 384.771 380.906 383.062C378.156 381.333 376.031 378.885 374.531 375.719C373.031 372.552 372.25 368.875 372.188 364.688V360.438C372.188 356.146 372.948 352.365 374.469 349.094C375.99 345.823 378.167 343.302 381 341.531C383.854 339.76 387.146 338.875 390.875 338.875C395.896 338.875 399.938 340.24 403 342.969C406.062 345.698 407.844 349.552 408.344 354.531H400.469C400.094 351.26 399.135 348.906 397.594 347.469C396.073 346.01 393.833 345.281 390.875 345.281C387.438 345.281 384.792 346.542 382.938 349.062C381.104 351.562 380.167 355.24 380.125 360.094V364.125C380.125 369.042 381 372.792 382.75 375.375C384.521 377.958 387.104 379.25 390.5 379.25C393.604 379.25 395.938 378.552 397.5 377.156C399.062 375.76 400.052 373.438 400.469 370.188H408.344Z" fill="white"/>
<path id="D" d="M376.625 495V449.5H390.062C394.083 449.5 397.646 450.396 400.75 452.188C403.875 453.979 406.292 456.521 408 459.812C409.708 463.104 410.562 466.875 410.562 471.125V473.406C410.562 477.719 409.698 481.51 407.969 484.781C406.26 488.052 403.812 490.573 400.625 492.344C397.458 494.115 393.823 495 389.719 495H376.625ZM384.531 455.875V488.688H389.688C393.833 488.688 397.01 487.396 399.219 484.812C401.448 482.208 402.583 478.479 402.625 473.625V471.094C402.625 466.156 401.552 462.385 399.406 459.781C397.26 457.177 394.146 455.875 390.062 455.875H384.531Z" fill="white"/>
<path id="E" d="M746.219 423.688H727.531V437.688H749.375V444H719.625V398.5H749.156V404.875H727.531V417.438H746.219V423.688Z" fill="white"/>
<g id="Group 340">
<g id="-10">
<path d="M140.305 372.273H128.867V368.734H140.305V372.273Z" fill="#CD08D1"/>
<path d="M158.352 385H153.992V356.102L145.25 359.312V355.375L157.672 350.711H158.352V385Z" fill="#CD08D1"/>
<path d="M192.453 370.445C192.453 375.523 191.586 379.297 189.852 381.766C188.117 384.234 185.406 385.469 181.719 385.469C178.078 385.469 175.383 384.266 173.633 381.859C171.883 379.438 170.977 375.828 170.914 371.031V365.242C170.914 360.227 171.781 356.5 173.516 354.062C175.25 351.625 177.969 350.406 181.672 350.406C185.344 350.406 188.047 351.586 189.781 353.945C191.516 356.289 192.406 359.914 192.453 364.82V370.445ZM188.117 364.516C188.117 360.844 187.602 358.172 186.57 356.5C185.539 354.812 183.906 353.969 181.672 353.969C179.453 353.969 177.836 354.805 176.82 356.477C175.805 358.148 175.281 360.719 175.25 364.188V371.125C175.25 374.812 175.781 377.539 176.844 379.305C177.922 381.055 179.547 381.93 181.719 381.93C183.859 381.93 185.445 381.102 186.477 379.445C187.523 377.789 188.07 375.18 188.117 371.617V364.516Z" fill="#CD08D1"/>
</g>
<g id="-80">
<path d="M140.305 486.273H128.867V482.734H140.305V486.273Z" fill="#CD08D1"/>
<path d="M164.797 473.781C164.797 475.484 164.344 477 163.438 478.328C162.547 479.656 161.336 480.695 159.805 481.445C161.586 482.211 162.992 483.328 164.023 484.797C165.07 486.266 165.594 487.93 165.594 489.789C165.594 492.742 164.594 495.094 162.594 496.844C160.609 498.594 157.992 499.469 154.742 499.469C151.461 499.469 148.828 498.594 146.844 496.844C144.875 495.078 143.891 492.727 143.891 489.789C143.891 487.945 144.391 486.281 145.391 484.797C146.406 483.312 147.805 482.188 149.586 481.422C148.07 480.672 146.875 479.633 146 478.305C145.125 476.977 144.688 475.469 144.688 473.781C144.688 470.906 145.609 468.625 147.453 466.938C149.297 465.25 151.727 464.406 154.742 464.406C157.742 464.406 160.164 465.25 162.008 466.938C163.867 468.625 164.797 470.906 164.797 473.781ZM161.258 489.695C161.258 487.789 160.648 486.234 159.43 485.031C158.227 483.828 156.648 483.227 154.695 483.227C152.742 483.227 151.172 483.82 149.984 485.008C148.812 486.195 148.227 487.758 148.227 489.695C148.227 491.633 148.797 493.156 149.938 494.266C151.094 495.375 152.695 495.93 154.742 495.93C156.773 495.93 158.367 495.375 159.523 494.266C160.68 493.141 161.258 491.617 161.258 489.695ZM154.742 467.969C153.039 467.969 151.656 468.5 150.594 469.562C149.547 470.609 149.023 472.039 149.023 473.852C149.023 475.586 149.539 476.992 150.57 478.07C151.617 479.133 153.008 479.664 154.742 479.664C156.477 479.664 157.859 479.133 158.891 478.07C159.938 476.992 160.461 475.586 160.461 473.852C160.461 472.117 159.922 470.703 158.844 469.609C157.766 468.516 156.398 467.969 154.742 467.969Z" fill="#CD08D1"/>
<path d="M192.453 484.445C192.453 489.523 191.586 493.297 189.852 495.766C188.117 498.234 185.406 499.469 181.719 499.469C178.078 499.469 175.383 498.266 173.633 495.859C171.883 493.438 170.977 489.828 170.914 485.031V479.242C170.914 474.227 171.781 470.5 173.516 468.062C175.25 465.625 177.969 464.406 181.672 464.406C185.344 464.406 188.047 465.586 189.781 467.945C191.516 470.289 192.406 473.914 192.453 478.82V484.445ZM188.117 478.516C188.117 474.844 187.602 472.172 186.57 470.5C185.539 468.812 183.906 467.969 181.672 467.969C179.453 467.969 177.836 468.805 176.82 470.477C175.805 472.148 175.281 474.719 175.25 478.188V485.125C175.25 488.812 175.781 491.539 176.844 493.305C177.922 495.055 179.547 495.93 181.719 495.93C183.859 495.93 185.445 495.102 186.477 493.445C187.523 491.789 188.07 489.18 188.117 485.617V478.516Z" fill="#CD08D1"/>
</g>
<g id="24">
<path d="M492.195 495H469.836V491.883L481.648 478.758C483.398 476.773 484.602 475.164 485.258 473.93C485.93 472.68 486.266 471.391 486.266 470.062C486.266 468.281 485.727 466.82 484.648 465.68C483.57 464.539 482.133 463.969 480.336 463.969C478.18 463.969 476.5 464.586 475.297 465.82C474.109 467.039 473.516 468.742 473.516 470.93H469.18C469.18 467.789 470.188 465.25 472.203 463.312C474.234 461.375 476.945 460.406 480.336 460.406C483.508 460.406 486.016 461.242 487.859 462.914C489.703 464.57 490.625 466.781 490.625 469.547C490.625 472.906 488.484 476.906 484.203 481.547L475.062 491.461H492.195V495Z" fill="#CD08D1"/>
<path d="M515.094 483.539H519.828V487.078H515.094V495H510.734V487.078H495.195V484.523L510.477 460.875H515.094V483.539ZM500.117 483.539H510.734V466.805L510.219 467.742L500.117 483.539Z" fill="#CD08D1"/>
</g>
<g id="19">
<path d="M845.867 412.312L831.734 444H827.188L841.273 413.438H822.805V409.875H845.867V412.312Z" fill="#CD08D1"/>
<path d="M865.039 444H860.68V415.102L851.938 418.312V414.375L864.359 409.711H865.039V444Z" fill="#CD08D1"/>
</g>
<g id="17">
<path d="M484.305 370.273H472.867V366.734H484.305V370.273Z" fill="#CD08D1"/>
<path d="M502.352 383H497.992V354.102L489.25 357.312V353.375L501.672 348.711H502.352V383Z" fill="#CD08D1"/>
<path d="M517.047 365.891L518.781 348.875H536.266V352.883H522.461L521.43 362.188C523.102 361.203 525 360.711 527.125 360.711C530.234 360.711 532.703 361.742 534.531 363.805C536.359 365.852 537.273 368.625 537.273 372.125C537.273 375.641 536.32 378.414 534.414 380.445C532.523 382.461 529.875 383.469 526.469 383.469C523.453 383.469 520.992 382.633 519.086 380.961C517.18 379.289 516.094 376.977 515.828 374.023H519.93C520.195 375.977 520.891 377.453 522.016 378.453C523.141 379.438 524.625 379.93 526.469 379.93C528.484 379.93 530.062 379.242 531.203 377.867C532.359 376.492 532.938 374.594 532.938 372.172C532.938 369.891 532.312 368.062 531.062 366.688C529.828 365.297 528.18 364.602 526.117 364.602C524.227 364.602 522.742 365.016 521.664 365.844L520.516 366.781L517.047 365.891Z" fill="#CD08D1"/>
</g>
</g>
<g id="flecha">
<path id="Rectangle 2" d="M58.2002 325.008L73.482 333.133L31.5004 412.089L16.2186 403.963L58.2002 325.008Z" fill="#1043F5"/>
<path id="Rectangle 1_2" d="M0 337.904L90 288V345.692L45 328.096L0 337.904Z" fill="#1043F5"/>
<path id="Rectangle 3" d="M4.03857 407.21L19.6657 380.143L36.9364 379.565L21.3092 406.632L4.03857 407.21Z" fill="#1043F5"/>
<path id="Rectangle 4_2" d="M30.0894 421.845L45.7165 394.778L36.9258 379.154L21.2986 406.221L30.0894 421.845Z" fill="#1043F5"/>
</g>
</g>
</g>
</svg>
