<svg viewBox="0 0 975 817" fill="none" xmlns="http://www.w3.org/2000/svg">
<g id="0118119">
<g id="Group 8">
<path id="Rectangle 1" d="M48 71.1986C48 34.1028 69.3794 4.03076 95.7522 4.03076H919V468.832C919 505.928 897.62 536 871.247 536H48V71.1986Z" fill="#02071A"/>
<path id="Rectangle 1 (Stroke)" fill-rule="evenodd" clip-rule="evenodd" d="M914.224 10.7475H95.7522C72.0167 10.7475 52.7752 37.8124 52.7752 71.1986V529.284H871.247C894.983 529.284 914.224 502.219 914.224 468.832V10.7475ZM95.7522 4.03076C69.3794 4.03076 48 34.1028 48 71.1986V536H871.247C897.62 536 919 505.928 919 468.832V4.03076H95.7522Z" fill="#CD08D1"/>
<path id="Rectangle 14" d="M99.7157 4.12736C125.256 -5.1592 919 4.12736 919 4.12736V44.3308C919 44.3308 86.2018 29.5539 56.5955 44.3308C65.8076 23.0074 74.1755 13.4139 99.7157 4.12736Z" fill="#CD08D1"/>
<path id="Rectangle 15" d="M890.349 4.03076H919V470.176C915.483 501.809 908.194 513.436 890.349 528.612C895.601 503.76 890.349 4.03076 890.349 4.03076Z" fill="#CD08D1"/>
</g>
<g id="claves01">
<path id="Rectangle 4" d="M39 617H255.745L289 657L255.745 697H39V617Z" fill="#CD08D1" fill-opacity="0.1"/>
<path id="Rectangle 4 (Stroke)" fill-rule="evenodd" clip-rule="evenodd" d="M254.338 620H42V694H254.338L285.099 657L254.338 620ZM255.745 617H39V697H255.745L289 657L255.745 617Z" fill="#CD08D1"/>
<path id="Rectangle 5" d="M43 727H259.745L293 767L259.745 807H43V727Z" fill="#CD08D1" fill-opacity="0.1"/>
<path id="Rectangle 5 (Stroke)" fill-rule="evenodd" clip-rule="evenodd" d="M258.338 730H46V804H258.338L289.099 767L258.338 730ZM259.745 727H43V807H259.745L293 767L259.745 727Z" fill="#CD08D1"/>
<path id="Rectangle 6" d="M379 614H595.745L629 654L595.745 694H379V614Z" fill="#CD08D1" fill-opacity="0.1"/>
<path id="Rectangle 6 (Stroke)" fill-rule="evenodd" clip-rule="evenodd" d="M594.338 617H382V691H594.338L625.099 654L594.338 617ZM595.745 614H379V694H595.745L629 654L595.745 614Z" fill="#CD08D1"/>
<path id="Rectangle 7" d="M382 724H598.745L632 764L598.745 804H382V724Z" fill="#CD08D1" fill-opacity="0.1"/>
<path id="Rectangle 7 (Stroke)" fill-rule="evenodd" clip-rule="evenodd" d="M597.338 727H385V801H597.338L628.099 764L597.338 727ZM598.745 724H382V804H598.745L632 764L598.745 724Z" fill="#CD08D1"/>
<path id="Rectangle 8" d="M725 673H941.745L975 713L941.745 753H725V673Z" fill="#CD08D1" fill-opacity="0.1"/>
<path id="Rectangle 8 (Stroke)" fill-rule="evenodd" clip-rule="evenodd" d="M940.338 676H728V750H940.338L971.099 713L940.338 676ZM941.745 673H725V753H941.745L975 713L941.745 673Z" fill="#CD08D1"/>
<path id="Ellipse 1" d="M80 657C80 679.091 62.0914 697 40 697C17.9086 697 0 679.091 0 657C0 634.909 17.9086 617 40 617C62.0914 617 80 634.909 80 657Z" fill="#CD08D1"/>
<path id="Ellipse 2" d="M84 767C84 789.091 66.0914 807 44 807C21.9086 807 4 789.091 4 767C4 744.909 21.9086 727 44 727C66.0914 727 84 744.909 84 767Z" fill="#CD08D1"/>
<path id="Ellipse 3" d="M420 654C420 676.091 402.091 694 380 694C357.909 694 340 676.091 340 654C340 631.909 357.909 614 380 614C402.091 614 420 631.909 420 654Z" fill="#CD08D1"/>
<path id="Ellipse 4" d="M423 764C423 786.091 405.091 804 383 804C360.909 804 343 786.091 343 764C343 741.909 360.909 724 383 724C405.091 724 423 741.909 423 764Z" fill="#CD08D1"/>
<path id="Ellipse 5" d="M766 713C766 735.091 748.091 753 726 753C703.909 753 686 735.091 686 713C686 690.909 703.909 673 726 673C748.091 673 766 690.909 766 713Z" fill="#CD08D1"/>
<path id="A" d="M48.0938 667.406H30.4688L26.7812 678H18.5625L35.75 632.5H42.8438L60.0625 678H51.8125L48.0938 667.406ZM32.6875 661.031H45.875L39.2812 642.156L32.6875 661.031Z" fill="white"/>
<path id="B" d="M27.625 783V737.5H43.2188C48.3646 737.5 52.2812 738.531 54.9688 740.594C57.6562 742.656 59 745.729 59 749.812C59 751.896 58.4375 753.771 57.3125 755.438C56.1875 757.104 54.5417 758.396 52.375 759.312C54.8333 759.979 56.7292 761.24 58.0625 763.094C59.4167 764.927 60.0938 767.135 60.0938 769.719C60.0938 773.99 58.7188 777.271 55.9688 779.562C53.2396 781.854 49.3229 783 44.2188 783H27.625ZM35.5312 762.469V776.688H44.3125C46.7917 776.688 48.7292 776.073 50.125 774.844C51.5208 773.615 52.2188 771.906 52.2188 769.719C52.2188 764.99 49.8021 762.573 44.9688 762.469H35.5312ZM35.5312 756.656H43.2812C45.7396 756.656 47.6562 756.104 49.0312 755C50.4271 753.875 51.125 752.292 51.125 750.25C51.125 748 50.4792 746.375 49.1875 745.375C47.9167 744.375 45.9271 743.875 43.2188 743.875H35.5312V756.656Z" fill="white"/>
<path id="C" d="M397.344 661.188C396.885 666.042 395.094 669.833 391.969 672.562C388.844 675.271 384.688 676.625 379.5 676.625C375.875 676.625 372.677 675.771 369.906 674.062C367.156 672.333 365.031 669.885 363.531 666.719C362.031 663.552 361.25 659.875 361.188 655.688V651.438C361.188 647.146 361.948 643.365 363.469 640.094C364.99 636.823 367.167 634.302 370 632.531C372.854 630.76 376.146 629.875 379.875 629.875C384.896 629.875 388.938 631.24 392 633.969C395.062 636.698 396.844 640.552 397.344 645.531H389.469C389.094 642.26 388.135 639.906 386.594 638.469C385.073 637.01 382.833 636.281 379.875 636.281C376.438 636.281 373.792 637.542 371.938 640.062C370.104 642.562 369.167 646.24 369.125 651.094V655.125C369.125 660.042 370 663.792 371.75 666.375C373.521 668.958 376.104 670.25 379.5 670.25C382.604 670.25 384.938 669.552 386.5 668.156C388.062 666.76 389.052 664.438 389.469 661.188H397.344Z" fill="white"/>
<path id="D" d="M365.625 786V740.5H379.062C383.083 740.5 386.646 741.396 389.75 743.188C392.875 744.979 395.292 747.521 397 750.812C398.708 754.104 399.562 757.875 399.562 762.125V764.406C399.562 768.719 398.698 772.51 396.969 775.781C395.26 779.052 392.812 781.573 389.625 783.344C386.458 785.115 382.823 786 378.719 786H365.625ZM373.531 746.875V779.688H378.688C382.833 779.688 386.01 778.396 388.219 775.812C390.448 773.208 391.583 769.479 391.625 764.625V762.094C391.625 757.156 390.552 753.385 388.406 750.781C386.26 748.177 383.146 746.875 379.062 746.875H373.531Z" fill="white"/>
<path id="E" d="M735.219 714.688H716.531V728.688H738.375V735H708.625V689.5H738.156V695.875H716.531V708.438H735.219V714.688Z" fill="white"/>
<g id="189">
<path d="M136.729 675H131.767V651.026L124.445 653.528V649.324L136.094 645.038H136.729V675Z" fill="#CD08D1"/>
<path d="M165.912 653.016C165.912 654.479 165.536 655.784 164.784 656.933C164.032 658.067 163.007 658.963 161.708 659.619C163.267 660.344 164.463 661.335 165.297 662.593C166.145 663.851 166.568 665.272 166.568 666.858C166.568 669.483 165.68 671.568 163.902 673.113C162.125 674.645 159.76 675.41 156.807 675.41C153.84 675.41 151.461 674.638 149.67 673.093C147.893 671.548 147.004 669.47 147.004 666.858C147.004 665.259 147.428 663.823 148.275 662.552C149.123 661.28 150.312 660.303 151.844 659.619C150.559 658.963 149.54 658.067 148.788 656.933C148.05 655.784 147.681 654.479 147.681 653.016C147.681 650.473 148.501 648.456 150.142 646.966C151.782 645.476 153.997 644.73 156.786 644.73C159.589 644.73 161.811 645.476 163.451 646.966C165.092 648.456 165.912 650.473 165.912 653.016ZM161.585 666.612C161.585 665.136 161.141 663.946 160.252 663.044C159.377 662.128 158.215 661.67 156.766 661.67C155.316 661.67 154.154 662.121 153.279 663.023C152.418 663.926 151.987 665.122 151.987 666.612C151.987 668.075 152.411 669.244 153.259 670.119C154.12 670.994 155.303 671.432 156.807 671.432C158.311 671.432 159.479 671.008 160.313 670.16C161.161 669.312 161.585 668.13 161.585 666.612ZM160.949 653.2C160.949 651.901 160.573 650.835 159.821 650.001C159.069 649.153 158.058 648.729 156.786 648.729C155.515 648.729 154.51 649.133 153.771 649.939C153.033 650.732 152.664 651.819 152.664 653.2C152.664 654.567 153.033 655.654 153.771 656.461C154.523 657.268 155.535 657.671 156.807 657.671C158.078 657.671 159.083 657.268 159.821 656.461C160.573 655.654 160.949 654.567 160.949 653.2Z" fill="#CD08D1"/>
<path d="M185.107 662.511C183.439 664.274 181.491 665.156 179.263 665.156C176.638 665.156 174.546 664.24 172.987 662.408C171.429 660.562 170.649 658.143 170.649 655.148C170.649 653.18 171.046 651.396 171.839 649.796C172.632 648.196 173.76 646.952 175.223 646.063C176.686 645.175 178.381 644.73 180.309 644.73C183.316 644.73 185.702 645.852 187.466 648.094C189.229 650.336 190.111 653.337 190.111 657.097V658.491C190.111 663.878 188.895 667.986 186.461 670.816C184.027 673.646 180.397 675.082 175.571 675.123H174.977V671.001H175.694C178.634 670.96 180.89 670.256 182.462 668.889C184.034 667.508 184.916 665.382 185.107 662.511ZM180.309 661.26C181.307 661.26 182.243 660.973 183.118 660.398C183.993 659.824 184.67 659.031 185.148 658.02V656.071C185.148 653.87 184.697 652.1 183.795 650.76C182.893 649.42 181.724 648.75 180.288 648.75C178.853 648.75 177.704 649.345 176.843 650.534C175.995 651.71 175.571 653.2 175.571 655.005C175.571 656.878 176.002 658.389 176.863 659.537C177.725 660.686 178.873 661.26 180.309 661.26Z" fill="#CD08D1"/>
</g>
<g id="70">
<path d="M164.107 752.909L152.172 780H146.942L158.857 754.14H143.415V750.141H164.107V752.909Z" fill="#CD08D1"/>
<path d="M187.568 767.429C187.568 771.722 186.762 774.962 185.148 777.149C183.549 779.323 181.108 780.41 177.827 780.41C174.601 780.41 172.167 779.351 170.526 777.231C168.899 775.099 168.065 771.947 168.024 767.777V762.609C168.024 758.316 168.824 755.097 170.424 752.95C172.037 750.804 174.491 749.73 177.786 749.73C181.054 749.73 183.487 750.776 185.087 752.868C186.7 754.96 187.527 758.091 187.568 762.261V767.429ZM182.585 761.851C182.585 759.048 182.202 756.997 181.437 755.698C180.671 754.386 179.454 753.729 177.786 753.729C176.159 753.729 174.963 754.352 174.197 755.596C173.432 756.826 173.028 758.754 172.987 761.379V768.146C172.987 770.936 173.377 773.014 174.156 774.381C174.936 775.748 176.159 776.432 177.827 776.432C179.427 776.432 180.609 775.803 181.375 774.545C182.141 773.273 182.544 771.291 182.585 768.598V761.851Z" fill="#CD08D1"/>
</g>
<g id="180">
<path d="M491.729 667H486.767V643.026L479.445 645.528V641.324L491.094 637.038H491.729V667Z" fill="#CD08D1"/>
<path d="M520.912 645.016C520.912 646.479 520.536 647.784 519.784 648.933C519.032 650.067 518.007 650.963 516.708 651.619C518.267 652.344 519.463 653.335 520.297 654.593C521.145 655.851 521.568 657.272 521.568 658.858C521.568 661.483 520.68 663.568 518.902 665.113C517.125 666.645 514.76 667.41 511.807 667.41C508.84 667.41 506.461 666.638 504.67 665.093C502.893 663.548 502.004 661.47 502.004 658.858C502.004 657.259 502.428 655.823 503.275 654.552C504.123 653.28 505.312 652.303 506.844 651.619C505.559 650.963 504.54 650.067 503.788 648.933C503.05 647.784 502.681 646.479 502.681 645.016C502.681 642.473 503.501 640.456 505.142 638.966C506.782 637.476 508.997 636.73 511.786 636.73C514.589 636.73 516.811 637.476 518.451 638.966C520.092 640.456 520.912 642.473 520.912 645.016ZM516.585 658.612C516.585 657.136 516.141 655.946 515.252 655.044C514.377 654.128 513.215 653.67 511.766 653.67C510.316 653.67 509.154 654.121 508.279 655.023C507.418 655.926 506.987 657.122 506.987 658.612C506.987 660.075 507.411 661.244 508.259 662.119C509.12 662.994 510.303 663.432 511.807 663.432C513.311 663.432 514.479 663.008 515.313 662.16C516.161 661.312 516.585 660.13 516.585 658.612ZM515.949 645.2C515.949 643.901 515.573 642.835 514.821 642.001C514.069 641.153 513.058 640.729 511.786 640.729C510.515 640.729 509.51 641.133 508.771 641.939C508.033 642.732 507.664 643.819 507.664 645.2C507.664 646.567 508.033 647.654 508.771 648.461C509.523 649.268 510.535 649.671 511.807 649.671C513.078 649.671 514.083 649.268 514.821 648.461C515.573 647.654 515.949 646.567 515.949 645.2Z" fill="#CD08D1"/>
<path d="M545.439 654.429C545.439 658.722 544.633 661.962 543.02 664.149C541.42 666.323 538.979 667.41 535.698 667.41C532.472 667.41 530.038 666.351 528.397 664.231C526.771 662.099 525.937 658.947 525.896 654.777V649.609C525.896 645.316 526.695 642.097 528.295 639.95C529.908 637.804 532.362 636.73 535.657 636.73C538.925 636.73 541.358 637.776 542.958 639.868C544.571 641.96 545.398 645.091 545.439 649.261V654.429ZM540.456 648.851C540.456 646.048 540.073 643.997 539.308 642.698C538.542 641.386 537.325 640.729 535.657 640.729C534.03 640.729 532.834 641.352 532.068 642.596C531.303 643.826 530.899 645.754 530.858 648.379V655.146C530.858 657.936 531.248 660.014 532.027 661.381C532.807 662.748 534.03 663.432 535.698 663.432C537.298 663.432 538.48 662.803 539.246 661.545C540.012 660.273 540.415 658.291 540.456 655.598V648.851Z" fill="#CD08D1"/>
</g>
<g id="180_2">
<path d="M830.729 729H825.767V705.026L818.445 707.528V703.324L830.094 699.038H830.729V729Z" fill="#CD08D1"/>
<path d="M859.912 707.016C859.912 708.479 859.536 709.784 858.784 710.933C858.032 712.067 857.007 712.963 855.708 713.619C857.267 714.344 858.463 715.335 859.297 716.593C860.145 717.851 860.568 719.272 860.568 720.858C860.568 723.483 859.68 725.568 857.902 727.113C856.125 728.645 853.76 729.41 850.807 729.41C847.84 729.41 845.461 728.638 843.67 727.093C841.893 725.548 841.004 723.47 841.004 720.858C841.004 719.259 841.428 717.823 842.275 716.552C843.123 715.28 844.312 714.303 845.844 713.619C844.559 712.963 843.54 712.067 842.788 710.933C842.05 709.784 841.681 708.479 841.681 707.016C841.681 704.473 842.501 702.456 844.142 700.966C845.782 699.476 847.997 698.73 850.786 698.73C853.589 698.73 855.811 699.476 857.451 700.966C859.092 702.456 859.912 704.473 859.912 707.016ZM855.585 720.612C855.585 719.136 855.141 717.946 854.252 717.044C853.377 716.128 852.215 715.67 850.766 715.67C849.316 715.67 848.154 716.121 847.279 717.023C846.418 717.926 845.987 719.122 845.987 720.612C845.987 722.075 846.411 723.244 847.259 724.119C848.12 724.994 849.303 725.432 850.807 725.432C852.311 725.432 853.479 725.008 854.313 724.16C855.161 723.312 855.585 722.13 855.585 720.612ZM854.949 707.2C854.949 705.901 854.573 704.835 853.821 704.001C853.069 703.153 852.058 702.729 850.786 702.729C849.515 702.729 848.51 703.133 847.771 703.939C847.033 704.732 846.664 705.819 846.664 707.2C846.664 708.567 847.033 709.654 847.771 710.461C848.523 711.268 849.535 711.671 850.807 711.671C852.078 711.671 853.083 711.268 853.821 710.461C854.573 709.654 854.949 708.567 854.949 707.2Z" fill="#CD08D1"/>
<path d="M884.439 716.429C884.439 720.722 883.633 723.962 882.02 726.149C880.42 728.323 877.979 729.41 874.698 729.41C871.472 729.41 869.038 728.351 867.397 726.231C865.771 724.099 864.937 720.947 864.896 716.777V711.609C864.896 707.316 865.695 704.097 867.295 701.95C868.908 699.804 871.362 698.73 874.657 698.73C877.925 698.73 880.358 699.776 881.958 701.868C883.571 703.96 884.398 707.091 884.439 711.261V716.429ZM879.456 710.851C879.456 708.048 879.073 705.997 878.308 704.698C877.542 703.386 876.325 702.729 874.657 702.729C873.03 702.729 871.834 703.352 871.068 704.596C870.303 705.826 869.899 707.754 869.858 710.379V717.146C869.858 719.936 870.248 722.014 871.027 723.381C871.807 724.748 873.03 725.432 874.698 725.432C876.298 725.432 877.48 724.803 878.246 723.545C879.012 722.273 879.415 720.291 879.456 717.598V710.851Z" fill="#CD08D1"/>
</g>
<g id="119">
<path d="M491.729 774H486.767V750.026L479.445 752.528V748.324L491.094 744.038H491.729V774Z" fill="#CD08D1"/>
<path d="M515.601 774H510.638V750.026L503.316 752.528V748.324L514.965 744.038H515.601V774Z" fill="#CD08D1"/>
<path d="M540.107 761.511C538.439 763.274 536.491 764.156 534.263 764.156C531.638 764.156 529.546 763.24 527.987 761.408C526.429 759.562 525.649 757.143 525.649 754.148C525.649 752.18 526.046 750.396 526.839 748.796C527.632 747.196 528.76 745.952 530.223 745.063C531.686 744.175 533.381 743.73 535.309 743.73C538.316 743.73 540.702 744.852 542.466 747.094C544.229 749.336 545.111 752.337 545.111 756.097V757.491C545.111 762.878 543.895 766.986 541.461 769.816C539.027 772.646 535.397 774.082 530.571 774.123H529.977V770.001H530.694C533.634 769.96 535.89 769.256 537.462 767.889C539.034 766.508 539.916 764.382 540.107 761.511ZM535.309 760.26C536.307 760.26 537.243 759.973 538.118 759.398C538.993 758.824 539.67 758.031 540.148 757.02V755.071C540.148 752.87 539.697 751.1 538.795 749.76C537.893 748.42 536.724 747.75 535.288 747.75C533.853 747.75 532.704 748.345 531.843 749.534C530.995 750.71 530.571 752.2 530.571 754.005C530.571 755.878 531.002 757.389 531.863 758.537C532.725 759.686 533.873 760.26 535.309 760.26Z" fill="#CD08D1"/>
</g>
<g id="flecha">
<path id="Rectangle 2" d="M394.2 720.008L409.482 728.133L367.5 807.089L352.219 798.964L394.2 720.008Z" fill="#1043F5"/>
<path id="Rectangle 1_2" d="M336 732.904L426 683V740.692L381 723.096L336 732.904Z" fill="#1043F5"/>
<path id="Rectangle 3" d="M340.039 802.209L355.666 775.142L372.936 774.564L357.309 801.631L340.039 802.209Z" fill="#1043F5"/>
<path id="Rectangle 4_2" d="M366.089 816.845L381.717 789.778L372.926 774.154L357.299 801.221L366.089 816.845Z" fill="#1043F5"/>
</g>
</g>
<g id="Group 132">
<g id="Despu&#195;&#169;s de reconstruir la tabla: Hallar:">
<path d="M92.6836 112V111.277H93.6797C94.7995 111.277 95.5938 110.919 96.0625 110.203C96.349 109.773 96.4922 108.81 96.4922 107.312V90.2031C96.4922 88.5495 96.3099 87.5143 95.9453 87.0977C95.4375 86.5247 94.6823 86.2383 93.6797 86.2383H92.6836V85.5156H103.465C107.423 85.5156 110.431 85.9648 112.488 86.8633C114.559 87.7617 116.219 89.2591 117.469 91.3555C118.732 93.4518 119.363 95.8737 119.363 98.6211C119.363 102.306 118.243 105.385 116.004 107.859C113.491 110.62 109.663 112 104.52 112H92.6836ZM100.242 110.086C101.896 110.451 103.283 110.633 104.402 110.633C107.423 110.633 109.93 109.572 111.922 107.449C113.914 105.327 114.91 102.449 114.91 98.8164C114.91 95.1576 113.914 92.2734 111.922 90.1641C109.93 88.0547 107.371 87 104.246 87C103.074 87 101.74 87.1888 100.242 87.5664V110.086Z" fill="white"/>
<path d="M125.164 100.848C125.151 103.504 125.796 105.587 127.098 107.098C128.4 108.608 129.93 109.363 131.688 109.363C132.859 109.363 133.875 109.044 134.734 108.406C135.607 107.755 136.336 106.648 136.922 105.086L137.527 105.477C137.254 107.26 136.46 108.888 135.145 110.359C133.829 111.818 132.182 112.547 130.203 112.547C128.055 112.547 126.212 111.714 124.676 110.047C123.152 108.367 122.391 106.115 122.391 103.289C122.391 100.229 123.172 97.8464 124.734 96.1406C126.31 94.4219 128.283 93.5625 130.652 93.5625C132.658 93.5625 134.305 94.2266 135.594 95.5547C136.883 96.8698 137.527 98.6341 137.527 100.848H125.164ZM125.164 99.7148H133.445C133.38 98.569 133.243 97.7617 133.035 97.293C132.71 96.5638 132.221 95.9909 131.57 95.5742C130.932 95.1576 130.262 94.9492 129.559 94.9492C128.478 94.9492 127.508 95.3724 126.648 96.2188C125.802 97.0521 125.307 98.2174 125.164 99.7148Z" fill="white"/>
<path d="M151.492 93.582V99.6758H150.848C150.353 97.7617 149.715 96.4596 148.934 95.7695C148.165 95.0794 147.182 94.7344 145.984 94.7344C145.073 94.7344 144.337 94.9753 143.777 95.457C143.217 95.9388 142.938 96.4727 142.938 97.0586C142.938 97.7878 143.146 98.4128 143.562 98.9336C143.966 99.4674 144.786 100.034 146.023 100.633L148.875 102.02C151.518 103.309 152.84 105.008 152.84 107.117C152.84 108.745 152.221 110.06 150.984 111.062C149.76 112.052 148.387 112.547 146.863 112.547C145.77 112.547 144.52 112.352 143.113 111.961C142.684 111.831 142.332 111.766 142.059 111.766C141.759 111.766 141.525 111.935 141.355 112.273H140.711V105.887H141.355C141.72 107.71 142.417 109.083 143.445 110.008C144.474 110.932 145.626 111.395 146.902 111.395C147.801 111.395 148.53 111.134 149.09 110.613C149.663 110.079 149.949 109.441 149.949 108.699C149.949 107.801 149.63 107.046 148.992 106.434C148.367 105.822 147.111 105.047 145.223 104.109C143.335 103.172 142.098 102.326 141.512 101.57C140.926 100.828 140.633 99.8906 140.633 98.7578C140.633 97.2865 141.134 96.056 142.137 95.0664C143.152 94.0768 144.461 93.582 146.062 93.582C146.766 93.582 147.618 93.7318 148.621 94.0312C149.285 94.2266 149.728 94.3242 149.949 94.3242C150.158 94.3242 150.32 94.2786 150.438 94.1875C150.555 94.0964 150.691 93.8945 150.848 93.582H151.492Z" fill="white"/>
<path d="M154.227 95.8867L159.734 93.6602H160.477V97.8398C161.401 96.2643 162.326 95.1641 163.25 94.5391C164.188 93.901 165.171 93.582 166.199 93.582C167.996 93.582 169.493 94.2852 170.691 95.6914C172.163 97.4102 172.898 99.6497 172.898 102.41C172.898 105.496 172.013 108.048 170.242 110.066C168.784 111.72 166.948 112.547 164.734 112.547C163.771 112.547 162.938 112.41 162.234 112.137C161.714 111.941 161.128 111.551 160.477 110.965V116.414C160.477 117.638 160.548 118.413 160.691 118.738C160.848 119.077 161.108 119.344 161.473 119.539C161.85 119.734 162.527 119.832 163.504 119.832V120.555H154.129V119.832H154.617C155.333 119.845 155.945 119.708 156.453 119.422C156.701 119.279 156.889 119.044 157.02 118.719C157.163 118.406 157.234 117.599 157.234 116.297V99.3828C157.234 98.224 157.182 97.4883 157.078 97.1758C156.974 96.8633 156.805 96.6289 156.57 96.4727C156.349 96.3164 156.043 96.2383 155.652 96.2383C155.34 96.2383 154.943 96.3294 154.461 96.5117L154.227 95.8867ZM160.477 98.9922V105.672C160.477 107.117 160.535 108.068 160.652 108.523C160.835 109.279 161.277 109.943 161.98 110.516C162.697 111.089 163.595 111.375 164.676 111.375C165.978 111.375 167.033 110.867 167.84 109.852C168.895 108.523 169.422 106.655 169.422 104.246C169.422 101.512 168.823 99.4089 167.625 97.9375C166.792 96.9219 165.802 96.4141 164.656 96.4141C164.031 96.4141 163.413 96.5703 162.801 96.8828C162.332 97.1172 161.557 97.8203 160.477 98.9922Z" fill="white"/>
<path d="M191.199 94.1094V104.949C191.199 107.02 191.245 108.289 191.336 108.758C191.44 109.214 191.596 109.533 191.805 109.715C192.026 109.897 192.28 109.988 192.566 109.988C192.97 109.988 193.426 109.878 193.934 109.656L194.207 110.34L188.855 112.547H187.977V108.758C186.44 110.424 185.268 111.473 184.461 111.902C183.654 112.332 182.801 112.547 181.902 112.547C180.9 112.547 180.027 112.26 179.285 111.688C178.556 111.102 178.048 110.353 177.762 109.441C177.475 108.53 177.332 107.241 177.332 105.574V97.5859C177.332 96.7396 177.241 96.1536 177.059 95.8281C176.876 95.5026 176.603 95.2552 176.238 95.0859C175.887 94.9036 175.242 94.819 174.305 94.832V94.1094H180.574V106.082C180.574 107.749 180.861 108.842 181.434 109.363C182.02 109.884 182.723 110.145 183.543 110.145C184.103 110.145 184.734 109.969 185.438 109.617C186.154 109.266 187 108.595 187.977 107.605V97.4688C187.977 96.4531 187.788 95.7695 187.41 95.418C187.046 95.0534 186.277 94.8581 185.105 94.832V94.1094H191.199Z" fill="white"/>
<path d="M198.523 100.848C198.51 103.504 199.155 105.587 200.457 107.098C201.759 108.608 203.289 109.363 205.047 109.363C206.219 109.363 207.234 109.044 208.094 108.406C208.966 107.755 209.695 106.648 210.281 105.086L210.887 105.477C210.613 107.26 209.819 108.888 208.504 110.359C207.189 111.818 205.542 112.547 203.562 112.547C201.414 112.547 199.572 111.714 198.035 110.047C196.512 108.367 195.75 106.115 195.75 103.289C195.75 100.229 196.531 97.8464 198.094 96.1406C199.669 94.4219 201.642 93.5625 204.012 93.5625C206.017 93.5625 207.664 94.2266 208.953 95.5547C210.242 96.8698 210.887 98.6341 210.887 100.848H198.523ZM198.523 99.7148H206.805C206.74 98.569 206.603 97.7617 206.395 97.293C206.069 96.5638 205.581 95.9909 204.93 95.5742C204.292 95.1576 203.621 94.9492 202.918 94.9492C201.837 94.9492 200.867 95.3724 200.008 96.2188C199.161 97.0521 198.667 98.2174 198.523 99.7148ZM207.84 84.8516L202.078 91.5898H201.414L203.465 84.8516H207.84Z" fill="white"/>
<path d="M224.852 93.582V99.6758H224.207C223.712 97.7617 223.074 96.4596 222.293 95.7695C221.525 95.0794 220.542 94.7344 219.344 94.7344C218.432 94.7344 217.697 94.9753 217.137 95.457C216.577 95.9388 216.297 96.4727 216.297 97.0586C216.297 97.7878 216.505 98.4128 216.922 98.9336C217.326 99.4674 218.146 100.034 219.383 100.633L222.234 102.02C224.878 103.309 226.199 105.008 226.199 107.117C226.199 108.745 225.581 110.06 224.344 111.062C223.12 112.052 221.746 112.547 220.223 112.547C219.129 112.547 217.879 112.352 216.473 111.961C216.043 111.831 215.691 111.766 215.418 111.766C215.118 111.766 214.884 111.935 214.715 112.273H214.07V105.887H214.715C215.079 107.71 215.776 109.083 216.805 110.008C217.833 110.932 218.986 111.395 220.262 111.395C221.16 111.395 221.889 111.134 222.449 110.613C223.022 110.079 223.309 109.441 223.309 108.699C223.309 107.801 222.99 107.046 222.352 106.434C221.727 105.822 220.47 105.047 218.582 104.109C216.694 103.172 215.457 102.326 214.871 101.57C214.285 100.828 213.992 99.8906 213.992 98.7578C213.992 97.2865 214.493 96.056 215.496 95.0664C216.512 94.0768 217.82 93.582 219.422 93.582C220.125 93.582 220.978 93.7318 221.98 94.0312C222.645 94.2266 223.087 94.3242 223.309 94.3242C223.517 94.3242 223.68 94.2786 223.797 94.1875C223.914 94.0964 224.051 93.8945 224.207 93.582H224.852Z" fill="white"/>
<path d="M251.512 109.988C250.639 110.9 249.786 111.557 248.953 111.961C248.12 112.352 247.221 112.547 246.258 112.547C244.305 112.547 242.599 111.733 241.141 110.105C239.682 108.465 238.953 106.362 238.953 103.797C238.953 101.232 239.76 98.888 241.375 96.7656C242.99 94.6302 245.066 93.5625 247.605 93.5625C249.181 93.5625 250.483 94.0638 251.512 95.0664V91.7656C251.512 89.7214 251.46 88.4648 251.355 87.9961C251.264 87.5273 251.115 87.2083 250.906 87.0391C250.698 86.8698 250.438 86.7852 250.125 86.7852C249.786 86.7852 249.337 86.8893 248.777 87.0977L248.523 86.4141L253.855 84.2266H254.734V104.91C254.734 107.007 254.78 108.289 254.871 108.758C254.975 109.214 255.132 109.533 255.34 109.715C255.561 109.897 255.815 109.988 256.102 109.988C256.453 109.988 256.922 109.878 257.508 109.656L257.723 110.34L252.41 112.547H251.512V109.988ZM251.512 108.621V99.4023C251.434 98.5169 251.199 97.7096 250.809 96.9805C250.418 96.2513 249.897 95.7044 249.246 95.3398C248.608 94.9622 247.983 94.7734 247.371 94.7734C246.225 94.7734 245.203 95.2878 244.305 96.3164C243.12 97.6706 242.527 99.6497 242.527 102.254C242.527 104.884 243.1 106.902 244.246 108.309C245.392 109.702 246.668 110.398 248.074 110.398C249.259 110.398 250.405 109.806 251.512 108.621Z" fill="white"/>
<path d="M261.883 100.848C261.87 103.504 262.514 105.587 263.816 107.098C265.118 108.608 266.648 109.363 268.406 109.363C269.578 109.363 270.594 109.044 271.453 108.406C272.326 107.755 273.055 106.648 273.641 105.086L274.246 105.477C273.973 107.26 273.178 108.888 271.863 110.359C270.548 111.818 268.901 112.547 266.922 112.547C264.773 112.547 262.931 111.714 261.395 110.047C259.871 108.367 259.109 106.115 259.109 103.289C259.109 100.229 259.891 97.8464 261.453 96.1406C263.029 94.4219 265.001 93.5625 267.371 93.5625C269.376 93.5625 271.023 94.2266 272.312 95.5547C273.602 96.8698 274.246 98.6341 274.246 100.848H261.883ZM261.883 99.7148H270.164C270.099 98.569 269.962 97.7617 269.754 97.293C269.428 96.5638 268.94 95.9909 268.289 95.5742C267.651 95.1576 266.98 94.9492 266.277 94.9492C265.197 94.9492 264.227 95.3724 263.367 96.2188C262.521 97.0521 262.026 98.2174 261.883 99.7148Z" fill="white"/>
<path d="M291.883 93.582V97.6055C293.38 94.9232 294.917 93.582 296.492 93.582C297.208 93.582 297.801 93.8034 298.27 94.2461C298.738 94.6758 298.973 95.1771 298.973 95.75C298.973 96.2578 298.803 96.6875 298.465 97.0391C298.126 97.3906 297.723 97.5664 297.254 97.5664C296.798 97.5664 296.284 97.3451 295.711 96.9023C295.151 96.4466 294.734 96.2188 294.461 96.2188C294.227 96.2188 293.973 96.349 293.699 96.6094C293.113 97.1432 292.508 98.0221 291.883 99.2461V107.82C291.883 108.81 292.007 109.559 292.254 110.066C292.423 110.418 292.723 110.711 293.152 110.945C293.582 111.18 294.201 111.297 295.008 111.297V112H285.848V111.297C286.759 111.297 287.436 111.154 287.879 110.867C288.204 110.659 288.432 110.327 288.562 109.871C288.628 109.65 288.66 109.018 288.66 107.977V101.043C288.66 98.9596 288.615 97.7227 288.523 97.332C288.445 96.9284 288.289 96.6354 288.055 96.4531C287.833 96.2708 287.553 96.1797 287.215 96.1797C286.811 96.1797 286.355 96.2773 285.848 96.4727L285.652 95.7695L291.062 93.582H291.883Z" fill="white"/>
<path d="M302.977 100.848C302.964 103.504 303.608 105.587 304.91 107.098C306.212 108.608 307.742 109.363 309.5 109.363C310.672 109.363 311.688 109.044 312.547 108.406C313.419 107.755 314.148 106.648 314.734 105.086L315.34 105.477C315.066 107.26 314.272 108.888 312.957 110.359C311.642 111.818 309.995 112.547 308.016 112.547C305.867 112.547 304.025 111.714 302.488 110.047C300.965 108.367 300.203 106.115 300.203 103.289C300.203 100.229 300.984 97.8464 302.547 96.1406C304.122 94.4219 306.095 93.5625 308.465 93.5625C310.47 93.5625 312.117 94.2266 313.406 95.5547C314.695 96.8698 315.34 98.6341 315.34 100.848H302.977ZM302.977 99.7148H311.258C311.193 98.569 311.056 97.7617 310.848 97.293C310.522 96.5638 310.034 95.9909 309.383 95.5742C308.745 95.1576 308.074 94.9492 307.371 94.9492C306.29 94.9492 305.32 95.3724 304.461 96.2188C303.615 97.0521 303.12 98.2174 302.977 99.7148Z" fill="white"/>
<path d="M332.938 105.203C332.456 107.56 331.512 109.376 330.105 110.652C328.699 111.915 327.143 112.547 325.438 112.547C323.406 112.547 321.635 111.694 320.125 109.988C318.615 108.283 317.859 105.978 317.859 103.074C317.859 100.262 318.693 97.9766 320.359 96.2188C322.039 94.4609 324.051 93.582 326.395 93.582C328.152 93.582 329.598 94.0508 330.73 94.9883C331.863 95.9128 332.43 96.8763 332.43 97.8789C332.43 98.3737 332.267 98.7773 331.941 99.0898C331.629 99.3893 331.186 99.5391 330.613 99.5391C329.845 99.5391 329.266 99.2917 328.875 98.7969C328.654 98.5234 328.504 98.0026 328.426 97.2344C328.361 96.4661 328.1 95.8802 327.645 95.4766C327.189 95.0859 326.557 94.8906 325.75 94.8906C324.448 94.8906 323.4 95.3724 322.605 96.3359C321.551 97.612 321.023 99.2982 321.023 101.395C321.023 103.53 321.544 105.418 322.586 107.059C323.641 108.686 325.06 109.5 326.844 109.5C328.12 109.5 329.266 109.064 330.281 108.191C330.997 107.592 331.694 106.505 332.371 104.93L332.938 105.203Z" fill="white"/>
<path d="M344.266 93.582C346.974 93.582 349.148 94.6107 350.789 96.668C352.182 98.4258 352.879 100.444 352.879 102.723C352.879 104.324 352.495 105.945 351.727 107.586C350.958 109.227 349.897 110.464 348.543 111.297C347.202 112.13 345.704 112.547 344.051 112.547C341.355 112.547 339.214 111.473 337.625 109.324C336.284 107.514 335.613 105.483 335.613 103.23C335.613 101.59 336.017 99.9622 336.824 98.3477C337.645 96.7201 338.719 95.5221 340.047 94.7539C341.375 93.9727 342.781 93.582 344.266 93.582ZM343.66 94.8516C342.97 94.8516 342.273 95.0599 341.57 95.4766C340.88 95.8802 340.32 96.5964 339.891 97.625C339.461 98.6536 339.246 99.9753 339.246 101.59C339.246 104.194 339.76 106.44 340.789 108.328C341.831 110.216 343.198 111.16 344.891 111.16C346.154 111.16 347.195 110.639 348.016 109.598C348.836 108.556 349.246 106.766 349.246 104.227C349.246 101.049 348.562 98.5495 347.195 96.7266C346.271 95.4766 345.092 94.8516 343.66 94.8516Z" fill="white"/>
<path d="M360.73 97.3711C362.827 94.8451 364.826 93.582 366.727 93.582C367.703 93.582 368.543 93.8294 369.246 94.3242C369.949 94.806 370.509 95.6068 370.926 96.7266C371.212 97.5078 371.355 98.7057 371.355 100.32V107.957C371.355 109.09 371.447 109.858 371.629 110.262C371.772 110.587 372 110.841 372.312 111.023C372.638 111.206 373.23 111.297 374.09 111.297V112H365.242V111.297H365.613C366.447 111.297 367.026 111.173 367.352 110.926C367.69 110.665 367.924 110.288 368.055 109.793C368.107 109.598 368.133 108.986 368.133 107.957V100.633C368.133 99.0052 367.918 97.8268 367.488 97.0977C367.072 96.3555 366.362 95.9844 365.359 95.9844C363.81 95.9844 362.267 96.8307 360.73 98.5234V107.957C360.73 109.168 360.802 109.917 360.945 110.203C361.128 110.581 361.375 110.861 361.688 111.043C362.013 111.212 362.664 111.297 363.641 111.297V112H354.793V111.297H355.184C356.095 111.297 356.707 111.069 357.02 110.613C357.345 110.145 357.508 109.259 357.508 107.957V101.316C357.508 99.168 357.456 97.8594 357.352 97.3906C357.26 96.9219 357.111 96.6029 356.902 96.4336C356.707 96.2643 356.44 96.1797 356.102 96.1797C355.737 96.1797 355.301 96.2773 354.793 96.4727L354.5 95.7695L359.891 93.582H360.73V97.3711Z" fill="white"/>
<path d="M387.078 93.582V99.6758H386.434C385.939 97.7617 385.301 96.4596 384.52 95.7695C383.751 95.0794 382.768 94.7344 381.57 94.7344C380.659 94.7344 379.923 94.9753 379.363 95.457C378.803 95.9388 378.523 96.4727 378.523 97.0586C378.523 97.7878 378.732 98.4128 379.148 98.9336C379.552 99.4674 380.372 100.034 381.609 100.633L384.461 102.02C387.104 103.309 388.426 105.008 388.426 107.117C388.426 108.745 387.807 110.06 386.57 111.062C385.346 112.052 383.973 112.547 382.449 112.547C381.355 112.547 380.105 112.352 378.699 111.961C378.27 111.831 377.918 111.766 377.645 111.766C377.345 111.766 377.111 111.935 376.941 112.273H376.297V105.887H376.941C377.306 107.71 378.003 109.083 379.031 110.008C380.06 110.932 381.212 111.395 382.488 111.395C383.387 111.395 384.116 111.134 384.676 110.613C385.249 110.079 385.535 109.441 385.535 108.699C385.535 107.801 385.216 107.046 384.578 106.434C383.953 105.822 382.697 105.047 380.809 104.109C378.921 103.172 377.684 102.326 377.098 101.57C376.512 100.828 376.219 99.8906 376.219 98.7578C376.219 97.2865 376.72 96.056 377.723 95.0664C378.738 94.0768 380.047 93.582 381.648 93.582C382.352 93.582 383.204 93.7318 384.207 94.0312C384.871 94.2266 385.314 94.3242 385.535 94.3242C385.743 94.3242 385.906 94.2786 386.023 94.1875C386.141 94.0964 386.277 93.8945 386.434 93.582H387.078Z" fill="white"/>
<path d="M396.297 88.2305V94.1094H400.477V95.4766H396.297V107.078C396.297 108.237 396.46 109.018 396.785 109.422C397.124 109.826 397.553 110.027 398.074 110.027C398.504 110.027 398.921 109.897 399.324 109.637C399.728 109.363 400.04 108.966 400.262 108.445H401.023C400.568 109.721 399.923 110.685 399.09 111.336C398.257 111.974 397.397 112.293 396.512 112.293C395.913 112.293 395.327 112.13 394.754 111.805C394.181 111.466 393.758 110.991 393.484 110.379C393.211 109.754 393.074 108.797 393.074 107.508V95.4766H390.242V94.832C390.958 94.5456 391.688 94.0638 392.43 93.3867C393.185 92.6966 393.855 91.8828 394.441 90.9453C394.741 90.4505 395.158 89.5456 395.691 88.2305H396.297Z" fill="white"/>
<path d="M407.469 93.582V97.6055C408.966 94.9232 410.503 93.582 412.078 93.582C412.794 93.582 413.387 93.8034 413.855 94.2461C414.324 94.6758 414.559 95.1771 414.559 95.75C414.559 96.2578 414.389 96.6875 414.051 97.0391C413.712 97.3906 413.309 97.5664 412.84 97.5664C412.384 97.5664 411.87 97.3451 411.297 96.9023C410.737 96.4466 410.32 96.2188 410.047 96.2188C409.812 96.2188 409.559 96.349 409.285 96.6094C408.699 97.1432 408.094 98.0221 407.469 99.2461V107.82C407.469 108.81 407.592 109.559 407.84 110.066C408.009 110.418 408.309 110.711 408.738 110.945C409.168 111.18 409.786 111.297 410.594 111.297V112H401.434V111.297C402.345 111.297 403.022 111.154 403.465 110.867C403.79 110.659 404.018 110.327 404.148 109.871C404.214 109.65 404.246 109.018 404.246 107.977V101.043C404.246 98.9596 404.201 97.7227 404.109 97.332C404.031 96.9284 403.875 96.6354 403.641 96.4531C403.419 96.2708 403.139 96.1797 402.801 96.1797C402.397 96.1797 401.941 96.2773 401.434 96.4727L401.238 95.7695L406.648 93.582H407.469Z" fill="white"/>
<path d="M431.238 94.1094V104.949C431.238 107.02 431.284 108.289 431.375 108.758C431.479 109.214 431.635 109.533 431.844 109.715C432.065 109.897 432.319 109.988 432.605 109.988C433.009 109.988 433.465 109.878 433.973 109.656L434.246 110.34L428.895 112.547H428.016V108.758C426.479 110.424 425.307 111.473 424.5 111.902C423.693 112.332 422.84 112.547 421.941 112.547C420.939 112.547 420.066 112.26 419.324 111.688C418.595 111.102 418.087 110.353 417.801 109.441C417.514 108.53 417.371 107.241 417.371 105.574V97.5859C417.371 96.7396 417.28 96.1536 417.098 95.8281C416.915 95.5026 416.642 95.2552 416.277 95.0859C415.926 94.9036 415.281 94.819 414.344 94.832V94.1094H420.613V106.082C420.613 107.749 420.9 108.842 421.473 109.363C422.059 109.884 422.762 110.145 423.582 110.145C424.142 110.145 424.773 109.969 425.477 109.617C426.193 109.266 427.039 108.595 428.016 107.605V97.4688C428.016 96.4531 427.827 95.7695 427.449 95.418C427.085 95.0534 426.316 94.8581 425.145 94.832V94.1094H431.238Z" fill="white"/>
<path d="M440.105 84.2266C440.652 84.2266 441.115 84.4219 441.492 84.8125C441.883 85.1901 442.078 85.6523 442.078 86.1992C442.078 86.7461 441.883 87.2148 441.492 87.6055C441.115 87.9961 440.652 88.1914 440.105 88.1914C439.559 88.1914 439.09 87.9961 438.699 87.6055C438.309 87.2148 438.113 86.7461 438.113 86.1992C438.113 85.6523 438.302 85.1901 438.68 84.8125C439.07 84.4219 439.546 84.2266 440.105 84.2266ZM441.727 93.582V107.957C441.727 109.077 441.805 109.826 441.961 110.203C442.13 110.568 442.371 110.841 442.684 111.023C443.009 111.206 443.595 111.297 444.441 111.297V112H435.75V111.297C436.622 111.297 437.208 111.212 437.508 111.043C437.807 110.874 438.042 110.594 438.211 110.203C438.393 109.812 438.484 109.064 438.484 107.957V101.062C438.484 99.1224 438.426 97.8659 438.309 97.293C438.217 96.8763 438.074 96.5898 437.879 96.4336C437.684 96.2643 437.417 96.1797 437.078 96.1797C436.714 96.1797 436.271 96.2773 435.75 96.4727L435.477 95.7695L440.867 93.582H441.727Z" fill="white"/>
<path d="M451.922 93.582V97.6055C453.419 94.9232 454.956 93.582 456.531 93.582C457.247 93.582 457.84 93.8034 458.309 94.2461C458.777 94.6758 459.012 95.1771 459.012 95.75C459.012 96.2578 458.842 96.6875 458.504 97.0391C458.165 97.3906 457.762 97.5664 457.293 97.5664C456.837 97.5664 456.323 97.3451 455.75 96.9023C455.19 96.4466 454.773 96.2188 454.5 96.2188C454.266 96.2188 454.012 96.349 453.738 96.6094C453.152 97.1432 452.547 98.0221 451.922 99.2461V107.82C451.922 108.81 452.046 109.559 452.293 110.066C452.462 110.418 452.762 110.711 453.191 110.945C453.621 111.18 454.24 111.297 455.047 111.297V112H445.887V111.297C446.798 111.297 447.475 111.154 447.918 110.867C448.243 110.659 448.471 110.327 448.602 109.871C448.667 109.65 448.699 109.018 448.699 107.977V101.043C448.699 98.9596 448.654 97.7227 448.562 97.332C448.484 96.9284 448.328 96.6354 448.094 96.4531C447.872 96.2708 447.592 96.1797 447.254 96.1797C446.85 96.1797 446.395 96.2773 445.887 96.4727L445.691 95.7695L451.102 93.582H451.922Z" fill="white"/>
<path d="M476.16 84.2266V107.957C476.16 109.077 476.238 109.819 476.395 110.184C476.564 110.548 476.818 110.828 477.156 111.023C477.495 111.206 478.126 111.297 479.051 111.297V112H470.281V111.297C471.102 111.297 471.661 111.212 471.961 111.043C472.26 110.874 472.495 110.594 472.664 110.203C472.833 109.812 472.918 109.064 472.918 107.957V91.707C472.918 89.6888 472.872 88.4518 472.781 87.9961C472.69 87.5273 472.54 87.2083 472.332 87.0391C472.137 86.8698 471.883 86.7852 471.57 86.7852C471.232 86.7852 470.802 86.8893 470.281 87.0977L469.949 86.4141L475.281 84.2266H476.16Z" fill="white"/>
<path d="M491.277 109.422C489.441 110.841 488.289 111.661 487.82 111.883C487.117 112.208 486.368 112.371 485.574 112.371C484.337 112.371 483.315 111.948 482.508 111.102C481.714 110.255 481.316 109.142 481.316 107.762C481.316 106.889 481.512 106.134 481.902 105.496C482.436 104.611 483.361 103.777 484.676 102.996C486.004 102.215 488.204 101.264 491.277 100.145V99.4414C491.277 97.6576 490.991 96.4336 490.418 95.7695C489.858 95.1055 489.038 94.7734 487.957 94.7734C487.137 94.7734 486.486 94.9948 486.004 95.4375C485.509 95.8802 485.262 96.388 485.262 96.9609L485.301 98.0938C485.301 98.6927 485.145 99.1549 484.832 99.4805C484.533 99.806 484.135 99.9688 483.641 99.9688C483.159 99.9688 482.762 99.7995 482.449 99.4609C482.15 99.1224 482 98.6602 482 98.0742C482 96.9544 482.573 95.9258 483.719 94.9883C484.865 94.0508 486.473 93.582 488.543 93.582C490.132 93.582 491.434 93.849 492.449 94.3828C493.217 94.7865 493.784 95.418 494.148 96.2773C494.383 96.8372 494.5 97.9831 494.5 99.7148V105.789C494.5 107.495 494.533 108.543 494.598 108.934C494.663 109.311 494.767 109.565 494.91 109.695C495.066 109.826 495.242 109.891 495.438 109.891C495.646 109.891 495.828 109.845 495.984 109.754C496.258 109.585 496.785 109.109 497.566 108.328V109.422C496.108 111.375 494.715 112.352 493.387 112.352C492.749 112.352 492.241 112.13 491.863 111.688C491.486 111.245 491.29 110.49 491.277 109.422ZM491.277 108.152V101.336C489.311 102.117 488.042 102.671 487.469 102.996C486.44 103.569 485.704 104.168 485.262 104.793C484.819 105.418 484.598 106.102 484.598 106.844C484.598 107.781 484.878 108.562 485.438 109.188C485.997 109.799 486.642 110.105 487.371 110.105C488.361 110.105 489.663 109.454 491.277 108.152Z" fill="white"/>
<path d="M514.109 88.2305V94.1094H518.289V95.4766H514.109V107.078C514.109 108.237 514.272 109.018 514.598 109.422C514.936 109.826 515.366 110.027 515.887 110.027C516.316 110.027 516.733 109.897 517.137 109.637C517.54 109.363 517.853 108.966 518.074 108.445H518.836C518.38 109.721 517.736 110.685 516.902 111.336C516.069 111.974 515.21 112.293 514.324 112.293C513.725 112.293 513.139 112.13 512.566 111.805C511.993 111.466 511.57 110.991 511.297 110.379C511.023 109.754 510.887 108.797 510.887 107.508V95.4766H508.055V94.832C508.771 94.5456 509.5 94.0638 510.242 93.3867C510.997 92.6966 511.668 91.8828 512.254 90.9453C512.553 90.4505 512.97 89.5456 513.504 88.2305H514.109Z" fill="white"/>
<path d="M530.184 109.422C528.348 110.841 527.195 111.661 526.727 111.883C526.023 112.208 525.275 112.371 524.48 112.371C523.243 112.371 522.221 111.948 521.414 111.102C520.62 110.255 520.223 109.142 520.223 107.762C520.223 106.889 520.418 106.134 520.809 105.496C521.342 104.611 522.267 103.777 523.582 102.996C524.91 102.215 527.111 101.264 530.184 100.145V99.4414C530.184 97.6576 529.897 96.4336 529.324 95.7695C528.764 95.1055 527.944 94.7734 526.863 94.7734C526.043 94.7734 525.392 94.9948 524.91 95.4375C524.415 95.8802 524.168 96.388 524.168 96.9609L524.207 98.0938C524.207 98.6927 524.051 99.1549 523.738 99.4805C523.439 99.806 523.042 99.9688 522.547 99.9688C522.065 99.9688 521.668 99.7995 521.355 99.4609C521.056 99.1224 520.906 98.6602 520.906 98.0742C520.906 96.9544 521.479 95.9258 522.625 94.9883C523.771 94.0508 525.379 93.582 527.449 93.582C529.038 93.582 530.34 93.849 531.355 94.3828C532.124 94.7865 532.69 95.418 533.055 96.2773C533.289 96.8372 533.406 97.9831 533.406 99.7148V105.789C533.406 107.495 533.439 108.543 533.504 108.934C533.569 109.311 533.673 109.565 533.816 109.695C533.973 109.826 534.148 109.891 534.344 109.891C534.552 109.891 534.734 109.845 534.891 109.754C535.164 109.585 535.691 109.109 536.473 108.328V109.422C535.014 111.375 533.621 112.352 532.293 112.352C531.655 112.352 531.147 112.13 530.77 111.688C530.392 111.245 530.197 110.49 530.184 109.422ZM530.184 108.152V101.336C528.217 102.117 526.948 102.671 526.375 102.996C525.346 103.569 524.611 104.168 524.168 104.793C523.725 105.418 523.504 106.102 523.504 106.844C523.504 107.781 523.784 108.562 524.344 109.188C524.904 109.799 525.548 110.105 526.277 110.105C527.267 110.105 528.569 109.454 530.184 108.152Z" fill="white"/>
<path d="M542.723 97.1953C544.454 94.7865 546.323 93.582 548.328 93.582C550.164 93.582 551.766 94.3698 553.133 95.9453C554.5 97.5078 555.184 99.6497 555.184 102.371C555.184 105.548 554.129 108.107 552.02 110.047C550.21 111.714 548.191 112.547 545.965 112.547C544.923 112.547 543.862 112.358 542.781 111.98C541.714 111.603 540.62 111.036 539.5 110.281V91.7461C539.5 89.7148 539.448 88.4648 539.344 87.9961C539.253 87.5273 539.103 87.2083 538.895 87.0391C538.686 86.8698 538.426 86.7852 538.113 86.7852C537.749 86.7852 537.293 86.8893 536.746 87.0977L536.473 86.4141L541.844 84.2266H542.723V97.1953ZM542.723 98.4453V109.148C543.387 109.799 544.07 110.294 544.773 110.633C545.49 110.958 546.219 111.121 546.961 111.121C548.146 111.121 549.246 110.47 550.262 109.168C551.29 107.866 551.805 105.971 551.805 103.484C551.805 101.193 551.29 99.4349 550.262 98.2109C549.246 96.974 548.087 96.3555 546.785 96.3555C546.095 96.3555 545.405 96.5312 544.715 96.8828C544.194 97.1432 543.53 97.6641 542.723 98.4453Z" fill="white"/>
<path d="M563.973 84.2266V107.957C563.973 109.077 564.051 109.819 564.207 110.184C564.376 110.548 564.63 110.828 564.969 111.023C565.307 111.206 565.939 111.297 566.863 111.297V112H558.094V111.297C558.914 111.297 559.474 111.212 559.773 111.043C560.073 110.874 560.307 110.594 560.477 110.203C560.646 109.812 560.73 109.064 560.73 107.957V91.707C560.73 89.6888 560.685 88.4518 560.594 87.9961C560.503 87.5273 560.353 87.2083 560.145 87.0391C559.949 86.8698 559.695 86.7852 559.383 86.7852C559.044 86.7852 558.615 86.8893 558.094 87.0977L557.762 86.4141L563.094 84.2266H563.973Z" fill="white"/>
<path d="M579.09 109.422C577.254 110.841 576.102 111.661 575.633 111.883C574.93 112.208 574.181 112.371 573.387 112.371C572.15 112.371 571.128 111.948 570.32 111.102C569.526 110.255 569.129 109.142 569.129 107.762C569.129 106.889 569.324 106.134 569.715 105.496C570.249 104.611 571.173 103.777 572.488 102.996C573.816 102.215 576.017 101.264 579.09 100.145V99.4414C579.09 97.6576 578.803 96.4336 578.23 95.7695C577.671 95.1055 576.85 94.7734 575.77 94.7734C574.949 94.7734 574.298 94.9948 573.816 95.4375C573.322 95.8802 573.074 96.388 573.074 96.9609L573.113 98.0938C573.113 98.6927 572.957 99.1549 572.645 99.4805C572.345 99.806 571.948 99.9688 571.453 99.9688C570.971 99.9688 570.574 99.7995 570.262 99.4609C569.962 99.1224 569.812 98.6602 569.812 98.0742C569.812 96.9544 570.385 95.9258 571.531 94.9883C572.677 94.0508 574.285 93.582 576.355 93.582C577.944 93.582 579.246 93.849 580.262 94.3828C581.03 94.7865 581.596 95.418 581.961 96.2773C582.195 96.8372 582.312 97.9831 582.312 99.7148V105.789C582.312 107.495 582.345 108.543 582.41 108.934C582.475 109.311 582.579 109.565 582.723 109.695C582.879 109.826 583.055 109.891 583.25 109.891C583.458 109.891 583.641 109.845 583.797 109.754C584.07 109.585 584.598 109.109 585.379 108.328V109.422C583.921 111.375 582.527 112.352 581.199 112.352C580.561 112.352 580.053 112.13 579.676 111.688C579.298 111.245 579.103 110.49 579.09 109.422ZM579.09 108.152V101.336C577.124 102.117 575.854 102.671 575.281 102.996C574.253 103.569 573.517 104.168 573.074 104.793C572.632 105.418 572.41 106.102 572.41 106.844C572.41 107.781 572.69 108.562 573.25 109.188C573.81 109.799 574.454 110.105 575.184 110.105C576.173 110.105 577.475 109.454 579.09 108.152Z" fill="white"/>
<path d="M591.121 93.5625C591.72 93.5625 592.228 93.7773 592.645 94.207C593.074 94.6237 593.289 95.1315 593.289 95.7305C593.289 96.3294 593.074 96.8438 592.645 97.2734C592.228 97.6901 591.72 97.8984 591.121 97.8984C590.522 97.8984 590.008 97.6901 589.578 97.2734C589.161 96.8438 588.953 96.3294 588.953 95.7305C588.953 95.1315 589.161 94.6237 589.578 94.207C590.008 93.7773 590.522 93.5625 591.121 93.5625ZM591.082 108.191C591.694 108.191 592.208 108.406 592.625 108.836C593.055 109.266 593.27 109.78 593.27 110.379C593.27 110.978 593.055 111.492 592.625 111.922C592.195 112.339 591.681 112.547 591.082 112.547C590.483 112.547 589.969 112.339 589.539 111.922C589.122 111.492 588.914 110.978 588.914 110.379C588.914 109.78 589.122 109.266 589.539 108.836C589.969 108.406 590.483 108.191 591.082 108.191Z" fill="white"/>
<path d="M100.223 465.801H112.527V458.223C112.527 456.868 112.443 455.977 112.273 455.547C112.143 455.221 111.87 454.941 111.453 454.707C110.893 454.395 110.301 454.238 109.676 454.238H108.738V453.516H120.066V454.238H119.129C118.504 454.238 117.911 454.388 117.352 454.688C116.935 454.896 116.648 455.215 116.492 455.645C116.349 456.061 116.277 456.921 116.277 458.223V475.312C116.277 476.654 116.362 477.539 116.531 477.969C116.661 478.294 116.928 478.574 117.332 478.809C117.905 479.121 118.504 479.277 119.129 479.277H120.066V480H108.738V479.277H109.676C110.757 479.277 111.544 478.958 112.039 478.32C112.365 477.904 112.527 476.901 112.527 475.312V467.246H100.223V475.312C100.223 476.654 100.307 477.539 100.477 477.969C100.607 478.294 100.88 478.574 101.297 478.809C101.857 479.121 102.449 479.277 103.074 479.277H104.031V480H92.6836V479.277H93.6211C94.7148 479.277 95.5091 478.958 96.0039 478.32C96.3164 477.904 96.4727 476.901 96.4727 475.312V458.223C96.4727 456.868 96.388 455.977 96.2188 455.547C96.0885 455.221 95.8216 454.941 95.418 454.707C94.8451 454.395 94.2461 454.238 93.6211 454.238H92.6836V453.516H104.031V454.238H103.074C102.449 454.238 101.857 454.388 101.297 454.688C100.893 454.896 100.613 455.215 100.457 455.645C100.301 456.061 100.223 456.921 100.223 458.223V465.801Z" fill="white"/>
<path d="M132.293 477.422C130.457 478.841 129.305 479.661 128.836 479.883C128.133 480.208 127.384 480.371 126.59 480.371C125.353 480.371 124.331 479.948 123.523 479.102C122.729 478.255 122.332 477.142 122.332 475.762C122.332 474.889 122.527 474.134 122.918 473.496C123.452 472.611 124.376 471.777 125.691 470.996C127.02 470.215 129.22 469.264 132.293 468.145V467.441C132.293 465.658 132.007 464.434 131.434 463.77C130.874 463.105 130.053 462.773 128.973 462.773C128.152 462.773 127.501 462.995 127.02 463.438C126.525 463.88 126.277 464.388 126.277 464.961L126.316 466.094C126.316 466.693 126.16 467.155 125.848 467.48C125.548 467.806 125.151 467.969 124.656 467.969C124.174 467.969 123.777 467.799 123.465 467.461C123.165 467.122 123.016 466.66 123.016 466.074C123.016 464.954 123.589 463.926 124.734 462.988C125.88 462.051 127.488 461.582 129.559 461.582C131.147 461.582 132.449 461.849 133.465 462.383C134.233 462.786 134.799 463.418 135.164 464.277C135.398 464.837 135.516 465.983 135.516 467.715V473.789C135.516 475.495 135.548 476.543 135.613 476.934C135.678 477.311 135.783 477.565 135.926 477.695C136.082 477.826 136.258 477.891 136.453 477.891C136.661 477.891 136.844 477.845 137 477.754C137.273 477.585 137.801 477.109 138.582 476.328V477.422C137.124 479.375 135.73 480.352 134.402 480.352C133.764 480.352 133.257 480.13 132.879 479.688C132.501 479.245 132.306 478.49 132.293 477.422ZM132.293 476.152V469.336C130.327 470.117 129.057 470.671 128.484 470.996C127.456 471.569 126.72 472.168 126.277 472.793C125.835 473.418 125.613 474.102 125.613 474.844C125.613 475.781 125.893 476.562 126.453 477.188C127.013 477.799 127.658 478.105 128.387 478.105C129.376 478.105 130.678 477.454 132.293 476.152Z" fill="white"/>
<path d="M146.082 452.227V475.957C146.082 477.077 146.16 477.819 146.316 478.184C146.486 478.548 146.74 478.828 147.078 479.023C147.417 479.206 148.048 479.297 148.973 479.297V480H140.203V479.297C141.023 479.297 141.583 479.212 141.883 479.043C142.182 478.874 142.417 478.594 142.586 478.203C142.755 477.812 142.84 477.064 142.84 475.957V459.707C142.84 457.689 142.794 456.452 142.703 455.996C142.612 455.527 142.462 455.208 142.254 455.039C142.059 454.87 141.805 454.785 141.492 454.785C141.154 454.785 140.724 454.889 140.203 455.098L139.871 454.414L145.203 452.227H146.082Z" fill="white"/>
<path d="M157.215 452.227V475.957C157.215 477.077 157.293 477.819 157.449 478.184C157.618 478.548 157.872 478.828 158.211 479.023C158.549 479.206 159.181 479.297 160.105 479.297V480H151.336V479.297C152.156 479.297 152.716 479.212 153.016 479.043C153.315 478.874 153.549 478.594 153.719 478.203C153.888 477.812 153.973 477.064 153.973 475.957V459.707C153.973 457.689 153.927 456.452 153.836 455.996C153.745 455.527 153.595 455.208 153.387 455.039C153.191 454.87 152.938 454.785 152.625 454.785C152.286 454.785 151.857 454.889 151.336 455.098L151.004 454.414L156.336 452.227H157.215Z" fill="white"/>
<path d="M172.332 477.422C170.496 478.841 169.344 479.661 168.875 479.883C168.172 480.208 167.423 480.371 166.629 480.371C165.392 480.371 164.37 479.948 163.562 479.102C162.768 478.255 162.371 477.142 162.371 475.762C162.371 474.889 162.566 474.134 162.957 473.496C163.491 472.611 164.415 471.777 165.73 470.996C167.059 470.215 169.259 469.264 172.332 468.145V467.441C172.332 465.658 172.046 464.434 171.473 463.77C170.913 463.105 170.092 462.773 169.012 462.773C168.191 462.773 167.54 462.995 167.059 463.438C166.564 463.88 166.316 464.388 166.316 464.961L166.355 466.094C166.355 466.693 166.199 467.155 165.887 467.48C165.587 467.806 165.19 467.969 164.695 467.969C164.214 467.969 163.816 467.799 163.504 467.461C163.204 467.122 163.055 466.66 163.055 466.074C163.055 464.954 163.628 463.926 164.773 462.988C165.919 462.051 167.527 461.582 169.598 461.582C171.186 461.582 172.488 461.849 173.504 462.383C174.272 462.786 174.839 463.418 175.203 464.277C175.438 464.837 175.555 465.983 175.555 467.715V473.789C175.555 475.495 175.587 476.543 175.652 476.934C175.717 477.311 175.822 477.565 175.965 477.695C176.121 477.826 176.297 477.891 176.492 477.891C176.701 477.891 176.883 477.845 177.039 477.754C177.312 477.585 177.84 477.109 178.621 476.328V477.422C177.163 479.375 175.77 480.352 174.441 480.352C173.803 480.352 173.296 480.13 172.918 479.688C172.54 479.245 172.345 478.49 172.332 477.422ZM172.332 476.152V469.336C170.366 470.117 169.096 470.671 168.523 470.996C167.495 471.569 166.759 472.168 166.316 472.793C165.874 473.418 165.652 474.102 165.652 474.844C165.652 475.781 165.932 476.562 166.492 477.188C167.052 477.799 167.697 478.105 168.426 478.105C169.415 478.105 170.717 477.454 172.332 476.152Z" fill="white"/>
<path d="M185.203 461.582V465.605C186.701 462.923 188.237 461.582 189.812 461.582C190.529 461.582 191.121 461.803 191.59 462.246C192.059 462.676 192.293 463.177 192.293 463.75C192.293 464.258 192.124 464.688 191.785 465.039C191.447 465.391 191.043 465.566 190.574 465.566C190.118 465.566 189.604 465.345 189.031 464.902C188.471 464.447 188.055 464.219 187.781 464.219C187.547 464.219 187.293 464.349 187.02 464.609C186.434 465.143 185.828 466.022 185.203 467.246V475.82C185.203 476.81 185.327 477.559 185.574 478.066C185.743 478.418 186.043 478.711 186.473 478.945C186.902 479.18 187.521 479.297 188.328 479.297V480H179.168V479.297C180.079 479.297 180.757 479.154 181.199 478.867C181.525 478.659 181.753 478.327 181.883 477.871C181.948 477.65 181.98 477.018 181.98 475.977V469.043C181.98 466.96 181.935 465.723 181.844 465.332C181.766 464.928 181.609 464.635 181.375 464.453C181.154 464.271 180.874 464.18 180.535 464.18C180.132 464.18 179.676 464.277 179.168 464.473L178.973 463.77L184.383 461.582H185.203Z" fill="white"/>
<path d="M197.684 461.562C198.283 461.562 198.79 461.777 199.207 462.207C199.637 462.624 199.852 463.132 199.852 463.73C199.852 464.329 199.637 464.844 199.207 465.273C198.79 465.69 198.283 465.898 197.684 465.898C197.085 465.898 196.57 465.69 196.141 465.273C195.724 464.844 195.516 464.329 195.516 463.73C195.516 463.132 195.724 462.624 196.141 462.207C196.57 461.777 197.085 461.562 197.684 461.562ZM197.645 476.191C198.257 476.191 198.771 476.406 199.188 476.836C199.617 477.266 199.832 477.78 199.832 478.379C199.832 478.978 199.617 479.492 199.188 479.922C198.758 480.339 198.243 480.547 197.645 480.547C197.046 480.547 196.531 480.339 196.102 479.922C195.685 479.492 195.477 478.978 195.477 478.379C195.477 477.78 195.685 477.266 196.102 476.836C196.531 476.406 197.046 476.191 197.645 476.191Z" fill="white"/>
</g>
<g id="E=15\;\triangle\;37 \triangle">
<g id="Group">
<g id="Group_2">
<path id="Vector" d="M241.491 477.084C240.985 477.084 240.732 476.92 240.732 476.591C240.732 476.49 240.795 476.186 240.921 475.68C241.048 475.175 241.111 474.732 241.111 474.353C241.111 473.568 240.846 473.088 240.314 472.911C239.783 472.734 238.556 472.645 236.634 472.645H234.661C234.636 472.696 234.193 474.441 233.333 477.881C232.473 481.321 232.043 483.091 232.043 483.193C232.043 483.294 232.182 483.344 232.461 483.344C232.739 483.344 233.751 483.37 235.496 483.42C237.874 483.42 239.442 483.395 240.201 483.344C240.959 483.294 241.718 483.129 242.477 482.851C243.716 482.446 244.741 481.738 245.55 480.727C246.36 479.715 247.257 478.058 248.244 475.756C248.497 475.2 248.661 474.896 248.737 474.846C248.914 474.795 249.104 474.77 249.306 474.77C249.812 474.77 250.065 474.934 250.065 475.263C247.409 481.688 246.018 484.963 245.892 485.09C245.816 485.14 242.199 485.166 235.041 485.166H227.87C225.29 485.166 224 485.026 224 484.748C224 484.698 224.038 484.521 224.114 484.217C224.215 483.812 224.316 483.585 224.417 483.534C224.519 483.484 224.809 483.446 225.29 483.42C225.973 483.42 226.732 483.382 227.566 483.306C227.921 483.231 228.161 483.079 228.287 482.851C228.338 482.725 229.236 479.171 230.981 472.19C232.726 465.209 233.612 461.668 233.637 461.567C233.637 461.39 233.586 461.301 233.485 461.301C233.283 461.225 232.612 461.162 231.474 461.111H230.298C230.146 460.96 230.07 460.858 230.07 460.808C230.07 460.757 230.096 460.542 230.146 460.163C230.248 459.733 230.374 459.467 230.526 459.366H251.545C251.722 459.467 251.81 459.606 251.81 459.783C251.81 459.91 251.646 461.326 251.317 464.033C250.988 466.739 250.811 468.13 250.786 468.206C250.735 468.383 250.482 468.472 250.027 468.472H249.572C249.395 468.345 249.306 468.181 249.306 467.979L249.42 467.106C249.496 466.499 249.534 465.841 249.534 465.133C249.534 464.374 249.445 463.742 249.268 463.236C249.091 462.73 248.851 462.338 248.547 462.06C248.244 461.782 247.801 461.579 247.22 461.453C246.638 461.326 246.043 461.238 245.436 461.187C244.829 461.137 244.02 461.111 243.008 461.111H241.225C238.999 461.137 237.823 461.175 237.696 461.225C237.595 461.276 237.519 461.39 237.469 461.567C237.444 461.642 237.051 463.198 236.293 466.233C235.534 469.269 235.142 470.811 235.117 470.862C235.698 470.887 236.305 470.9 236.938 470.9H237.924C239.593 470.9 240.744 470.71 241.377 470.331C242.009 469.951 242.578 468.927 243.084 467.258C243.185 466.853 243.261 466.625 243.312 466.575C243.362 466.524 243.577 466.486 243.957 466.461C244.083 466.461 244.184 466.461 244.26 466.461C244.336 466.461 244.399 466.474 244.45 466.499C244.5 466.524 244.526 466.537 244.526 466.537C244.526 466.537 244.551 466.587 244.602 466.689C244.652 466.79 244.69 466.84 244.715 466.84L243.463 471.848C242.629 475.213 242.173 476.92 242.098 476.97C242.022 477.046 241.819 477.084 241.491 477.084Z" fill="white"/>
</g>
<g id="Group_3">
<path id="Vector_2" d="M264.475 472.001C264.475 471.672 264.652 471.419 265.006 471.242H289.174C289.553 471.444 289.743 471.697 289.743 472.001C289.743 472.279 289.566 472.519 289.212 472.722L277.147 472.76H265.082C264.677 472.633 264.475 472.38 264.475 472.001ZM264.475 479.361C264.475 478.982 264.677 478.729 265.082 478.603H289.212C289.566 478.855 289.743 479.108 289.743 479.361C289.743 479.69 289.553 479.943 289.174 480.12H265.006C264.652 479.943 264.475 479.69 264.475 479.361Z" fill="white"/>
</g>
<g id="Group_4">
<path id="Vector_3" d="M310.489 463.236L309.996 463.426C309.642 463.552 309.136 463.679 308.478 463.805C307.82 463.932 307.087 464.02 306.278 464.071H305.557V462.325H306.278C307.466 462.275 308.567 462.085 309.578 461.756C310.59 461.427 311.298 461.124 311.703 460.846C312.108 460.568 312.462 460.289 312.765 460.011C312.816 459.935 312.968 459.897 313.221 459.897C313.448 459.897 313.663 459.973 313.866 460.125V471.469L313.904 482.851C314.081 483.028 314.232 483.142 314.359 483.193C314.485 483.243 314.789 483.294 315.269 483.344C315.75 483.395 316.534 483.42 317.622 483.42H318.608V485.166H318.191C317.66 485.09 315.649 485.052 312.158 485.052C308.718 485.052 306.733 485.09 306.202 485.166H305.746V483.42H306.733C307.289 483.42 307.77 483.42 308.175 483.42C308.579 483.42 308.895 483.408 309.123 483.382C309.351 483.357 309.553 483.319 309.73 483.269C309.907 483.218 310.008 483.193 310.034 483.193C310.059 483.193 310.135 483.129 310.261 483.003C310.388 482.876 310.464 482.826 310.489 482.851V463.236Z" fill="white"/>
<path id="Vector_4" d="M327.6 479.209C327.6 479.816 327.398 480.322 326.993 480.727C326.588 481.131 326.095 481.334 325.513 481.334H325.248C326.411 483.332 327.954 484.331 329.876 484.331C331.647 484.331 332.937 483.572 333.746 482.055C334.227 481.22 334.467 479.601 334.467 477.198C334.467 474.593 334.126 472.835 333.443 471.925C332.785 471.09 332.052 470.673 331.242 470.673H331.014C329.042 470.673 327.549 471.533 326.538 473.253C326.436 473.43 326.348 473.531 326.272 473.556C326.196 473.581 326.006 473.607 325.703 473.632C325.273 473.632 325.033 473.556 324.982 473.404C324.931 473.303 324.906 471.09 324.906 466.765V461.87C324.906 460.606 324.969 459.973 325.096 459.973C325.146 459.923 325.197 459.898 325.248 459.898C325.273 459.898 325.538 459.999 326.044 460.201C326.55 460.403 327.246 460.606 328.131 460.808C329.016 461.01 329.965 461.112 330.977 461.112C332.772 461.112 334.492 460.757 336.136 460.049C336.339 459.948 336.503 459.898 336.63 459.898C336.832 459.898 336.933 460.125 336.933 460.58V461.074C334.859 463.527 332.267 464.754 329.155 464.754C328.371 464.754 327.663 464.678 327.031 464.526L326.651 464.45V470.976C327.132 470.622 327.511 470.344 327.79 470.141C328.068 469.939 328.523 469.737 329.155 469.534C329.788 469.332 330.433 469.231 331.09 469.231C333.139 469.231 334.872 470.053 336.288 471.697C337.705 473.341 338.413 475.289 338.413 477.54C338.413 479.867 337.603 481.852 335.985 483.496C334.366 485.141 332.393 485.975 330.066 486C328.017 486 326.373 485.318 325.134 483.952C323.894 482.586 323.275 481.043 323.275 479.323C323.275 478.716 323.414 478.235 323.692 477.881C323.97 477.527 324.261 477.299 324.565 477.198C324.868 477.097 325.159 477.047 325.437 477.047C326.07 477.047 326.588 477.262 326.993 477.692C327.398 478.122 327.6 478.627 327.6 479.209Z" fill="white"/>
</g>
<g id="Group_5">
<path id="Vector_5" d="M353.729 485.166L353.616 485.09C353.54 485.064 353.476 485.026 353.426 484.976C353.375 484.925 353.312 484.849 353.236 484.748C353.16 484.647 353.122 484.533 353.122 484.407C353.122 484.306 353.16 484.179 353.236 484.027C353.312 483.85 355.626 479.55 360.179 471.128C364.732 462.705 367.046 458.443 367.122 458.342C367.122 458.316 367.148 458.278 367.198 458.228C367.249 458.177 367.325 458.127 367.426 458.076C367.527 458.026 367.628 458 367.729 458C367.906 458 368.046 458.051 368.147 458.152C368.248 458.203 370.638 462.553 375.317 471.203L382.298 484.141V484.407C382.298 484.736 382.121 484.988 381.767 485.166H353.729ZM374.027 472L367.729 460.39C367.704 460.39 365.605 464.26 361.431 472C357.258 479.74 355.171 483.623 355.171 483.648H380.288C380.288 483.597 378.201 479.715 374.027 472Z" fill="white"/>
</g>
<g id="Group_6">
<path id="Vector_6" d="M399.971 467.599C399.288 467.599 398.757 467.384 398.378 466.954C397.998 466.524 397.796 465.968 397.771 465.285C397.771 463.894 398.378 462.655 399.592 461.567C400.806 460.479 402.273 459.935 403.993 459.935C404.878 459.935 405.435 459.948 405.662 459.973C407.534 460.277 408.963 460.947 409.95 461.984C410.936 463.021 411.442 464.147 411.467 465.361C411.467 466.676 411.037 467.954 410.177 469.193C409.317 470.432 408.128 471.33 406.611 471.887L406.497 471.963C406.497 471.988 406.611 472.026 406.838 472.076C407.066 472.127 407.433 472.241 407.939 472.418C408.445 472.595 408.925 472.86 409.38 473.215C411.455 474.555 412.492 476.326 412.492 478.526C412.492 480.524 411.707 482.27 410.139 483.762C408.571 485.254 406.586 486 404.183 486C402.159 486 400.414 485.457 398.947 484.369C397.48 483.281 396.746 481.903 396.746 480.234C396.746 479.525 396.974 478.956 397.429 478.526C397.885 478.096 398.454 477.869 399.137 477.843C399.845 477.843 400.427 478.071 400.882 478.526C401.337 478.982 401.565 479.551 401.565 480.234C401.565 480.512 401.527 480.765 401.451 480.992C401.375 481.22 401.287 481.422 401.185 481.599C401.084 481.776 400.945 481.928 400.768 482.055C400.591 482.181 400.439 482.282 400.313 482.358C400.186 482.434 400.06 482.485 399.933 482.51C399.807 482.535 399.706 482.573 399.63 482.624L399.478 482.662C400.768 483.8 402.336 484.369 404.183 484.369C405.574 484.369 406.623 483.699 407.332 482.358C407.762 481.524 407.977 480.246 407.977 478.526V477.767C407.977 475.365 407.167 473.758 405.549 472.949C405.169 472.797 404.398 472.709 403.234 472.683L401.641 472.645L401.527 472.57C401.476 472.494 401.451 472.291 401.451 471.963C401.451 471.507 401.552 471.28 401.754 471.28C402.463 471.28 403.196 471.216 403.955 471.09C404.815 470.963 405.599 470.432 406.307 469.496C407.016 468.561 407.37 467.144 407.37 465.247V464.944C407.37 463.502 406.927 462.503 406.042 461.946C405.485 461.592 404.891 461.415 404.259 461.415C403.449 461.415 402.703 461.554 402.02 461.832C401.337 462.111 400.857 462.402 400.578 462.705C400.3 463.009 400.161 463.16 400.161 463.16H400.275C400.351 463.186 400.452 463.211 400.578 463.236C400.705 463.262 400.831 463.325 400.958 463.426C401.084 463.527 401.236 463.616 401.413 463.692C401.59 463.767 401.717 463.907 401.792 464.109C401.868 464.311 401.969 464.501 402.096 464.678C402.222 464.855 402.26 465.108 402.21 465.437C402.21 465.993 402.033 466.486 401.679 466.916C401.324 467.346 400.755 467.574 399.971 467.599Z" fill="white"/>
<path id="Vector_7" d="M416.21 467.789C416.235 467.739 416.45 466.36 416.855 463.654L417.462 459.594C417.462 459.543 417.715 459.518 418.221 459.518H418.98V459.67C418.98 459.923 419.169 460.138 419.549 460.315C419.928 460.492 420.586 460.606 421.522 460.656C422.457 460.707 424.595 460.732 427.934 460.732H432.524V462.212L429.944 465.74C429.717 466.044 429.337 466.55 428.806 467.258C428.275 467.966 427.934 468.434 427.782 468.662C427.63 468.889 427.364 469.294 426.985 469.876C426.606 470.458 426.353 470.913 426.226 471.242C426.1 471.57 425.923 472.038 425.695 472.645C425.467 473.253 425.303 473.834 425.202 474.391C425.101 474.947 424.999 475.63 424.898 476.44C424.797 477.249 424.721 478.109 424.671 479.019C424.62 479.93 424.582 480.967 424.557 482.131C424.557 482.485 424.557 482.839 424.557 483.193C424.557 483.547 424.544 483.851 424.519 484.103V484.445C424.418 484.875 424.177 485.242 423.798 485.545C423.419 485.849 422.989 486 422.508 486C422.23 486 421.964 485.963 421.711 485.887C421.458 485.811 421.193 485.57 420.915 485.166C420.636 484.761 420.497 484.255 420.497 483.648C420.497 479.652 421.724 475.504 424.177 471.204C424.683 470.394 425.746 468.864 427.364 466.613L429.11 464.223H425.581C421.18 464.223 418.866 464.299 418.638 464.45C418.486 464.526 418.347 464.83 418.221 465.361C418.094 465.892 417.968 466.436 417.841 466.992L417.728 467.789V467.903H416.21V467.789Z" fill="white"/>
</g>
</g>
</g>
</g>
<g id="Group 235">
<path id="Line 30 (Stroke)" fill-rule="evenodd" clip-rule="evenodd" d="M691.021 180L308 180V175L691.021 175V180Z" fill="#CD08D1"/>
<path id="Line 31 (Stroke)" fill-rule="evenodd" clip-rule="evenodd" d="M355.997 128.987L355.01 444L350.01 443.984L350.997 128.971L355.997 128.987Z" fill="#CD08D1"/>
<g id="Group_7">
<path id="Vector_8" d="M312.607 166.166L312.493 166.09C312.417 166.064 312.354 166.026 312.304 165.976C312.253 165.925 312.19 165.849 312.114 165.748C312.038 165.647 312 165.533 312 165.407C312 165.306 312.038 165.179 312.114 165.027C312.19 164.85 314.504 160.55 319.057 152.128C323.61 143.705 325.924 139.443 326 139.342C326 139.316 326.025 139.278 326.076 139.228C326.126 139.177 326.202 139.127 326.304 139.076C326.405 139.026 326.506 139 326.607 139C326.784 139 326.923 139.051 327.024 139.152C327.126 139.203 329.516 143.553 334.195 152.203L341.176 165.141V165.407C341.176 165.736 340.999 165.988 340.645 166.166H312.607ZM332.905 153L326.607 141.39C326.582 141.39 324.482 145.26 320.309 153C316.136 160.74 314.049 164.623 314.049 164.648H339.165C339.165 164.597 337.079 160.715 332.905 153Z" fill="white"/>
</g>
<g id="1 2 3 4 1 5 7 9 11 2 8 10 12 14 3 11 13 15 17 4 14 16 18 20">
<path d="M407.412 166H402.449V142.026L395.127 144.528V140.324L406.776 136.038H407.412V166Z" fill="white"/>
<path d="M500.62 166H480.542V162.575L490.489 151.727C491.924 150.127 492.943 148.794 493.544 147.728C494.16 146.647 494.467 145.567 494.467 144.487C494.467 143.065 494.064 141.917 493.257 141.042C492.464 140.167 491.391 139.729 490.038 139.729C488.424 139.729 487.173 140.222 486.285 141.206C485.396 142.19 484.952 143.537 484.952 145.246H479.968C479.968 143.428 480.378 141.794 481.199 140.345C482.033 138.882 483.215 137.747 484.747 136.94C486.292 136.134 488.069 135.73 490.079 135.73C492.977 135.73 495.26 136.462 496.928 137.925C498.61 139.374 499.451 141.384 499.451 143.954C499.451 145.444 499.027 147.01 498.179 148.65C497.345 150.277 495.971 152.13 494.057 154.208L486.756 162.021H500.62V166Z" fill="white"/>
<path d="M572.93 148.794H575.965C577.497 148.78 578.707 148.384 579.595 147.604C580.498 146.825 580.949 145.697 580.949 144.221C580.949 142.799 580.573 141.698 579.821 140.919C579.083 140.126 577.948 139.729 576.417 139.729C575.077 139.729 573.976 140.119 573.115 140.898C572.253 141.664 571.823 142.669 571.823 143.913H566.839C566.839 142.382 567.243 140.987 568.049 139.729C568.87 138.472 570.004 137.494 571.454 136.797C572.917 136.086 574.55 135.73 576.355 135.73C579.335 135.73 581.673 136.482 583.369 137.986C585.078 139.477 585.932 141.555 585.932 144.221C585.932 145.561 585.501 146.825 584.64 148.015C583.792 149.19 582.692 150.079 581.338 150.681C582.979 151.241 584.223 152.123 585.071 153.326C585.932 154.529 586.363 155.965 586.363 157.633C586.363 160.312 585.44 162.445 583.594 164.031C581.762 165.617 579.349 166.41 576.355 166.41C573.484 166.41 571.132 165.645 569.3 164.113C567.468 162.582 566.552 160.545 566.552 158.002H571.536C571.536 159.314 571.973 160.381 572.848 161.201C573.737 162.021 574.926 162.432 576.417 162.432C577.961 162.432 579.178 162.021 580.067 161.201C580.956 160.381 581.4 159.191 581.4 157.633C581.4 156.061 580.935 154.851 580.005 154.003C579.076 153.155 577.695 152.731 575.863 152.731H572.93V148.794Z" fill="white"/>
<path d="M681.109 155.356H684.821V159.355H681.109V166H676.125V159.355H663.226L663.083 156.32L675.961 136.141H681.109V155.356ZM668.312 155.356H676.125V142.888L675.756 143.544L668.312 155.356Z" fill="white"/>
<path d="M323.74 231H318.777V207.026L311.456 209.528V205.324L323.104 201.038H323.74V231Z" fill="white"/>
<path d="M398.204 216.193L399.824 201.141H415.861V205.447H403.966L403.146 212.584C404.527 211.791 406.085 211.395 407.822 211.395C410.666 211.395 412.874 212.304 414.446 214.122C416.032 215.94 416.825 218.388 416.825 221.464C416.825 224.499 415.95 226.919 414.2 228.724C412.45 230.515 410.05 231.41 407.001 231.41C404.267 231.41 401.998 230.638 400.193 229.093C398.402 227.534 397.431 225.483 397.281 222.94H402.1C402.292 224.39 402.811 225.504 403.659 226.283C404.506 227.049 405.614 227.432 406.981 227.432C408.512 227.432 409.702 226.885 410.549 225.791C411.411 224.697 411.841 223.207 411.841 221.32C411.841 219.502 411.37 218.066 410.426 217.014C409.483 215.947 408.184 215.414 406.53 215.414C405.627 215.414 404.862 215.537 404.233 215.783C403.604 216.016 402.92 216.48 402.182 217.178L398.204 216.193Z" fill="white"/>
<path d="M503.368 203.909L491.432 231H486.203L498.118 205.14H482.675V201.141H503.368V203.909Z" fill="white"/>
<path d="M584.25 218.511C582.583 220.274 580.634 221.156 578.406 221.156C575.781 221.156 573.689 220.24 572.13 218.408C570.572 216.562 569.792 214.143 569.792 211.148C569.792 209.18 570.189 207.396 570.982 205.796C571.775 204.196 572.903 202.952 574.366 202.063C575.829 201.175 577.524 200.73 579.452 200.73C582.459 200.73 584.845 201.852 586.609 204.094C588.373 206.336 589.254 209.337 589.254 213.097V214.491C589.254 219.878 588.038 223.986 585.604 226.816C583.17 229.646 579.541 231.082 574.714 231.123H574.12V227.001H574.837C577.777 226.96 580.033 226.256 581.605 224.889C583.177 223.508 584.059 221.382 584.25 218.511ZM579.452 217.26C580.45 217.26 581.386 216.973 582.261 216.398C583.136 215.824 583.813 215.031 584.292 214.02V212.071C584.292 209.87 583.84 208.1 582.938 206.76C582.036 205.42 580.867 204.75 579.431 204.75C577.996 204.75 576.847 205.345 575.986 206.534C575.138 207.71 574.714 209.2 574.714 211.005C574.714 212.878 575.145 214.389 576.006 215.537C576.868 216.686 578.016 217.26 579.452 217.26Z" fill="white"/>
<path d="M670.24 231H665.277V207.026L657.956 209.528V205.324L669.604 201.038H670.24V231Z" fill="white"/>
<path d="M694.111 231H689.148V207.026L681.827 209.528V205.324L693.475 201.038H694.111V231Z" fill="white"/>
<path d="M330.323 296H310.246V292.575L320.192 281.727C321.627 280.127 322.646 278.794 323.248 277.728C323.863 276.647 324.17 275.567 324.17 274.487C324.17 273.065 323.767 271.917 322.96 271.042C322.167 270.167 321.094 269.729 319.741 269.729C318.127 269.729 316.876 270.222 315.988 271.206C315.099 272.19 314.655 273.537 314.655 275.246H309.671C309.671 273.428 310.082 271.794 310.902 270.345C311.736 268.882 312.918 267.747 314.45 266.94C315.995 266.134 317.772 265.73 319.782 265.73C322.68 265.73 324.963 266.462 326.631 267.925C328.313 269.374 329.154 271.384 329.154 273.954C329.154 275.444 328.73 277.01 327.882 278.65C327.048 280.277 325.674 282.13 323.76 284.208L316.459 292.021H330.323V296Z" fill="white"/>
<path d="M415.676 274.016C415.676 275.479 415.3 276.784 414.548 277.933C413.796 279.067 412.771 279.963 411.472 280.619C413.031 281.344 414.227 282.335 415.061 283.593C415.909 284.851 416.333 286.272 416.333 287.858C416.333 290.483 415.444 292.568 413.667 294.113C411.889 295.645 409.524 296.41 406.571 296.41C403.604 296.41 401.225 295.638 399.434 294.093C397.657 292.548 396.768 290.47 396.768 287.858C396.768 286.259 397.192 284.823 398.04 283.552C398.887 282.28 400.077 281.303 401.608 280.619C400.323 279.963 399.304 279.067 398.552 277.933C397.814 276.784 397.445 275.479 397.445 274.016C397.445 271.473 398.265 269.456 399.906 267.966C401.546 266.476 403.761 265.73 406.55 265.73C409.353 265.73 411.575 266.476 413.215 267.966C414.856 269.456 415.676 271.473 415.676 274.016ZM411.349 287.612C411.349 286.136 410.905 284.946 410.016 284.044C409.141 283.128 407.979 282.67 406.53 282.67C405.081 282.67 403.918 283.121 403.043 284.023C402.182 284.926 401.751 286.122 401.751 287.612C401.751 289.075 402.175 290.244 403.023 291.119C403.884 291.994 405.067 292.432 406.571 292.432C408.075 292.432 409.244 292.008 410.078 291.16C410.925 290.312 411.349 289.13 411.349 287.612ZM410.713 274.2C410.713 272.901 410.337 271.835 409.585 271.001C408.833 270.153 407.822 269.729 406.55 269.729C405.279 269.729 404.274 270.133 403.536 270.939C402.797 271.732 402.428 272.819 402.428 274.2C402.428 275.567 402.797 276.654 403.536 277.461C404.288 278.268 405.299 278.671 406.571 278.671C407.842 278.671 408.847 278.268 409.585 277.461C410.337 276.654 410.713 275.567 410.713 274.2Z" fill="white"/>
<path d="M486.531 296H481.568V272.026L474.247 274.528V270.324L485.895 266.038H486.531V296Z" fill="white"/>
<path d="M516.37 283.429C516.37 287.722 515.563 290.962 513.95 293.149C512.35 295.323 509.91 296.41 506.628 296.41C503.402 296.41 500.968 295.351 499.328 293.231C497.701 291.099 496.867 287.947 496.826 283.777V278.609C496.826 274.316 497.625 271.097 499.225 268.95C500.838 266.804 503.292 265.73 506.587 265.73C509.855 265.73 512.289 266.776 513.888 268.868C515.501 270.96 516.329 274.091 516.37 278.261V283.429ZM511.386 277.851C511.386 275.048 511.003 272.997 510.238 271.698C509.472 270.386 508.255 269.729 506.587 269.729C504.96 269.729 503.764 270.352 502.999 271.596C502.233 272.826 501.83 274.754 501.789 277.379V284.146C501.789 286.936 502.178 289.014 502.958 290.381C503.737 291.748 504.96 292.432 506.628 292.432C508.228 292.432 509.411 291.803 510.176 290.545C510.942 289.273 511.345 287.291 511.386 284.598V277.851Z" fill="white"/>
<path d="M576.109 296H571.146V272.026L563.825 274.528V270.324L575.473 266.038H576.109V296Z" fill="white"/>
<path d="M606.563 296H586.486V292.575L596.432 281.727C597.868 280.127 598.886 278.794 599.488 277.728C600.103 276.647 600.411 275.567 600.411 274.487C600.411 273.065 600.007 271.917 599.201 271.042C598.408 270.167 597.334 269.729 595.981 269.729C594.368 269.729 593.117 270.222 592.228 271.206C591.339 272.19 590.895 273.537 590.895 275.246H585.912C585.912 273.428 586.322 271.794 587.142 270.345C587.976 268.882 589.159 267.747 590.69 266.94C592.235 266.134 594.012 265.73 596.022 265.73C598.92 265.73 601.204 266.462 602.872 267.925C604.553 269.374 605.394 271.384 605.394 273.954C605.394 275.444 604.97 277.01 604.123 278.65C603.289 280.277 601.915 282.13 600 284.208L592.7 292.021H606.563V296Z" fill="white"/>
<path d="M665.687 296H660.724V272.026L653.403 274.528V270.324L665.051 266.038H665.687V296Z" fill="white"/>
<path d="M692.921 285.356H696.633V289.355H692.921V296H687.938V289.355H675.039L674.895 286.32L687.774 266.141H692.921V285.356ZM680.125 285.356H687.938V272.888L687.569 273.544L680.125 285.356Z" fill="white"/>
<path d="M316.008 343.794H319.043C320.575 343.78 321.785 343.384 322.673 342.604C323.576 341.825 324.027 340.697 324.027 339.221C324.027 337.799 323.651 336.698 322.899 335.919C322.161 335.126 321.026 334.729 319.495 334.729C318.155 334.729 317.054 335.119 316.193 335.898C315.332 336.664 314.901 337.669 314.901 338.913H309.917C309.917 337.382 310.321 335.987 311.127 334.729C311.948 333.472 313.083 332.494 314.532 331.797C315.995 331.086 317.628 330.73 319.433 330.73C322.414 330.73 324.751 331.482 326.447 332.986C328.156 334.477 329.01 336.555 329.01 339.221C329.01 340.561 328.58 341.825 327.718 343.015C326.871 344.19 325.77 345.079 324.417 345.681C326.057 346.241 327.301 347.123 328.149 348.326C329.01 349.529 329.441 350.965 329.441 352.633C329.441 355.312 328.518 357.445 326.672 359.031C324.84 360.617 322.427 361.41 319.433 361.41C316.562 361.41 314.21 360.645 312.378 359.113C310.546 357.582 309.63 355.545 309.63 353.002H314.614C314.614 354.314 315.051 355.381 315.926 356.201C316.815 357.021 318.004 357.432 319.495 357.432C321.04 357.432 322.256 357.021 323.145 356.201C324.034 355.381 324.478 354.191 324.478 352.633C324.478 351.061 324.013 349.851 323.083 349.003C322.154 348.155 320.773 347.731 318.941 347.731H316.008V343.794Z" fill="white"/>
<path d="M399.906 361H394.943V337.026L387.622 339.528V335.324L399.27 331.038H399.906V361Z" fill="white"/>
<path d="M423.777 361H418.814V337.026L411.493 339.528V335.324L423.141 331.038H423.777V361Z" fill="white"/>
<path d="M489.484 361H484.521V337.026L477.2 339.528V335.324L488.848 331.038H489.484V361Z" fill="white"/>
<path d="M505.624 343.794H508.659C510.19 343.78 511.4 343.384 512.289 342.604C513.191 341.825 513.642 340.697 513.642 339.221C513.642 337.799 513.266 336.698 512.514 335.919C511.776 335.126 510.641 334.729 509.11 334.729C507.77 334.729 506.669 335.119 505.808 335.898C504.947 336.664 504.516 337.669 504.516 338.913H499.533C499.533 337.382 499.936 335.987 500.743 334.729C501.563 333.472 502.698 332.494 504.147 331.797C505.61 331.086 507.244 330.73 509.048 330.73C512.029 330.73 514.367 331.482 516.062 332.986C517.771 334.477 518.625 336.555 518.625 339.221C518.625 340.561 518.195 341.825 517.333 343.015C516.486 344.19 515.385 345.079 514.032 345.681C515.672 346.241 516.917 347.123 517.764 348.326C518.625 349.529 519.056 350.965 519.056 352.633C519.056 355.312 518.133 357.445 516.288 359.031C514.456 360.617 512.042 361.41 509.048 361.41C506.177 361.41 503.826 360.645 501.994 359.113C500.162 357.582 499.246 355.545 499.246 353.002H504.229C504.229 354.314 504.667 355.381 505.542 356.201C506.43 357.021 507.62 357.432 509.11 357.432C510.655 357.432 511.872 357.021 512.76 356.201C513.649 355.381 514.093 354.191 514.093 352.633C514.093 351.061 513.628 349.851 512.699 349.003C511.769 348.155 510.388 347.731 508.556 347.731H505.624V343.794Z" fill="white"/>
<path d="M579.062 361H574.099V337.026L566.778 339.528V335.324L578.426 331.038H579.062V361Z" fill="white"/>
<path d="M590.772 346.193L592.392 331.141H608.429V335.447H596.535L595.714 342.584C597.095 341.791 598.654 341.395 600.39 341.395C603.234 341.395 605.442 342.304 607.014 344.122C608.6 345.94 609.393 348.388 609.393 351.464C609.393 354.499 608.518 356.919 606.768 358.724C605.018 360.515 602.619 361.41 599.57 361.41C596.835 361.41 594.566 360.638 592.761 359.093C590.97 357.534 590 355.483 589.849 352.94H594.668C594.86 354.39 595.379 355.504 596.227 356.283C597.075 357.049 598.182 357.432 599.549 357.432C601.081 357.432 602.27 356.885 603.118 355.791C603.979 354.697 604.41 353.207 604.41 351.32C604.41 349.502 603.938 348.066 602.995 347.014C602.051 345.947 600.752 345.414 599.098 345.414C598.196 345.414 597.43 345.537 596.801 345.783C596.172 346.016 595.489 346.48 594.75 347.178L590.772 346.193Z" fill="white"/>
<path d="M668.64 361H663.677V337.026L656.356 339.528V335.324L668.004 331.038H668.64V361Z" fill="white"/>
<path d="M698.889 333.909L686.954 361H681.724L693.639 335.14H678.197V331.141H698.889V333.909Z" fill="white"/>
<path d="M327.103 415.356H330.815V419.355H327.103V426H322.12V419.355H309.22L309.077 416.32L321.956 396.141H327.103V415.356ZM314.306 415.356H322.12V402.888L321.75 403.544L314.306 415.356Z" fill="white"/>
<path d="M399.906 426H394.943V402.026L387.622 404.528V400.324L399.27 396.038H399.906V426Z" fill="white"/>
<path d="M427.14 415.356H430.852V419.355H427.14V426H422.157V419.355H409.257L409.114 416.32L421.993 396.141H427.14V415.356ZM414.343 415.356H422.157V402.888L421.788 403.544L414.343 415.356Z" fill="white"/>
<path d="M489.484 426H484.521V402.026L477.2 404.528V400.324L488.848 396.038H489.484V426Z" fill="white"/>
<path d="M515.365 395.997V400.119H514.75C511.96 400.16 509.732 400.926 508.064 402.416C506.396 403.906 505.405 406.019 505.09 408.753C506.69 407.071 508.734 406.23 511.222 406.23C513.861 406.23 515.939 407.16 517.457 409.02C518.988 410.879 519.753 413.278 519.753 416.218C519.753 419.253 518.858 421.714 517.067 423.601C515.29 425.474 512.952 426.41 510.053 426.41C507.073 426.41 504.653 425.31 502.793 423.108C500.948 420.907 500.025 418.022 500.025 414.454V412.752C500.025 407.516 501.296 403.414 503.839 400.447C506.396 397.48 510.067 395.997 514.852 395.997H515.365ZM510.012 410.25C508.918 410.25 507.914 410.558 506.998 411.173C506.095 411.788 505.432 412.608 505.008 413.634V415.151C505.008 417.366 505.473 419.13 506.403 420.442C507.333 421.741 508.536 422.391 510.012 422.391C511.489 422.391 512.658 421.837 513.519 420.729C514.38 419.622 514.811 418.166 514.811 416.361C514.811 414.557 514.374 413.087 513.499 411.952C512.624 410.817 511.461 410.25 510.012 410.25Z" fill="white"/>
<path d="M579.062 426H574.099V402.026L566.778 404.528V400.324L578.426 396.038H579.062V426Z" fill="white"/>
<path d="M608.245 404.016C608.245 405.479 607.869 406.784 607.117 407.933C606.365 409.067 605.339 409.963 604.041 410.619C605.599 411.344 606.795 412.335 607.629 413.593C608.477 414.851 608.901 416.272 608.901 417.858C608.901 420.483 608.012 422.568 606.235 424.113C604.458 425.645 602.092 426.41 599.139 426.41C596.172 426.41 593.793 425.638 592.002 424.093C590.225 422.548 589.336 420.47 589.336 417.858C589.336 416.259 589.76 414.823 590.608 413.552C591.456 412.28 592.645 411.303 594.176 410.619C592.891 409.963 591.873 409.067 591.121 407.933C590.382 406.784 590.013 405.479 590.013 404.016C590.013 401.473 590.833 399.456 592.474 397.966C594.115 396.476 596.33 395.73 599.119 395.73C601.921 395.73 604.143 396.476 605.784 397.966C607.424 399.456 608.245 401.473 608.245 404.016ZM603.917 417.612C603.917 416.136 603.473 414.946 602.584 414.044C601.709 413.128 600.547 412.67 599.098 412.67C597.649 412.67 596.487 413.121 595.612 414.023C594.75 414.926 594.32 416.122 594.32 417.612C594.32 419.075 594.744 420.244 595.591 421.119C596.453 421.994 597.635 422.432 599.139 422.432C600.643 422.432 601.812 422.008 602.646 421.16C603.494 420.312 603.917 419.13 603.917 417.612ZM603.282 404.2C603.282 402.901 602.906 401.835 602.154 401.001C601.402 400.153 600.39 399.729 599.119 399.729C597.847 399.729 596.842 400.133 596.104 400.939C595.366 401.732 594.997 402.819 594.997 404.2C594.997 405.567 595.366 406.654 596.104 407.461C596.856 408.268 597.868 408.671 599.139 408.671C600.411 408.671 601.416 408.268 602.154 407.461C602.906 406.654 603.282 405.567 603.282 404.2Z" fill="white"/>
<path d="M675.223 426H655.146V422.575L665.092 411.727C666.528 410.127 667.546 408.794 668.148 407.728C668.763 406.647 669.071 405.567 669.071 404.487C669.071 403.065 668.667 401.917 667.861 401.042C667.068 400.167 665.995 399.729 664.641 399.729C663.028 399.729 661.777 400.222 660.888 401.206C660 402.19 659.555 403.537 659.555 405.246H654.572C654.572 403.428 654.982 401.794 655.802 400.345C656.636 398.882 657.819 397.747 659.35 396.94C660.895 396.134 662.672 395.73 664.682 395.73C667.581 395.73 669.864 396.462 671.532 397.925C673.213 399.374 674.054 401.384 674.054 403.954C674.054 405.444 673.63 407.01 672.783 408.65C671.949 410.277 670.575 412.13 668.661 414.208L661.36 422.021H675.223V426Z" fill="white"/>
<path d="M698.479 413.429C698.479 417.722 697.672 420.962 696.059 423.149C694.459 425.323 692.019 426.41 688.738 426.41C685.511 426.41 683.078 425.351 681.437 423.231C679.81 421.099 678.976 417.947 678.935 413.777V408.609C678.935 404.316 679.735 401.097 681.334 398.95C682.948 396.804 685.402 395.73 688.697 395.73C691.964 395.73 694.398 396.776 695.998 398.868C697.611 400.96 698.438 404.091 698.479 408.261V413.429ZM693.496 407.851C693.496 405.048 693.113 402.997 692.347 401.698C691.582 400.386 690.365 399.729 688.697 399.729C687.07 399.729 685.874 400.352 685.108 401.596C684.342 402.826 683.939 404.754 683.898 407.379V414.146C683.898 416.936 684.288 419.014 685.067 420.381C685.846 421.748 687.07 422.432 688.738 422.432C690.337 422.432 691.52 421.803 692.286 420.545C693.051 419.273 693.455 417.291 693.496 414.598V407.851Z" fill="white"/>
</g>
</g>
</g>
</svg>
