<svg viewBox="0 0 975 615" fill="none" xmlns="http://www.w3.org/2000/svg">
<g id="0118110">
<g id="Group 8">
<path id="Rectangle 1" d="M16 51.1404C16 24.4951 38.8276 2.89478 66.9868 2.89478H946V336.754C946 363.4 923.172 385 895.013 385H16V51.1404Z" fill="#02071A"/>
<path id="Rectangle 1 (Stroke)" fill-rule="evenodd" clip-rule="evenodd" d="M940.901 7.71934H66.9868C41.6435 7.71934 21.0987 27.1596 21.0987 51.1404V380.175H895.013C920.356 380.175 940.901 360.735 940.901 336.754V7.71934ZM66.9868 2.89478C38.8276 2.89478 16 24.4951 16 51.1404V385H895.013C923.172 385 946 363.4 946 336.754V2.89478H66.9868Z" fill="#CD08D1"/>
<path id="Rectangle 14" d="M71.2188 2.96462C98.4891 -3.70577 946 2.96462 946 2.96462V31.8421C946 31.8421 56.7896 21.2281 25.1777 31.8421C35.0138 16.5259 43.9486 9.635 71.2188 2.96462Z" fill="#CD08D1"/>
<path id="Rectangle 15" d="M915.408 2.89478H946V337.719C942.245 360.441 934.462 368.792 915.408 379.693C921.016 361.842 915.408 2.89478 915.408 2.89478Z" fill="#CD08D1"/>
</g>
<g id="Group 342">
<g id="Si: Adem&#195;&#161;s: (a es el inverso de a) Calcula:">
<path d="M59.5117 62.5918C56.6172 61.7598 54.5078 60.7402 53.1836 59.5332C51.8711 58.3145 51.2148 56.8145 51.2148 55.0332C51.2148 53.0176 52.0176 51.3535 53.623 50.041C55.2402 48.7168 57.3379 48.0547 59.916 48.0547C61.6738 48.0547 63.2383 48.3945 64.6094 49.0742C65.9922 49.7539 67.0586 50.6914 67.8086 51.8867C68.5703 53.082 68.9512 54.3887 68.9512 55.8066H65.5586C65.5586 54.2598 65.0664 53.0469 64.082 52.168C63.0977 51.2773 61.709 50.832 59.916 50.832C58.252 50.832 56.9512 51.2012 56.0137 51.9395C55.0879 52.666 54.625 53.6797 54.625 54.9805C54.625 56.0234 55.0645 56.9082 55.9434 57.6348C56.834 58.3496 58.3398 59.0059 60.4609 59.6035C62.5938 60.2012 64.2578 60.8633 65.4531 61.5898C66.6602 62.3047 67.5508 63.1426 68.125 64.1035C68.7109 65.0645 69.0039 66.1953 69.0039 67.4961C69.0039 69.5703 68.1953 71.2344 66.5781 72.4883C64.9609 73.7305 62.7988 74.3516 60.0918 74.3516C58.334 74.3516 56.6934 74.0176 55.1699 73.3496C53.6465 72.6699 52.4688 71.7441 51.6367 70.5723C50.8164 69.4004 50.4062 68.0703 50.4062 66.582H53.7988C53.7988 68.1289 54.3672 69.3535 55.5039 70.2559C56.6523 71.1465 58.1816 71.5918 60.0918 71.5918C61.873 71.5918 63.2383 71.2285 64.1875 70.502C65.1367 69.7754 65.6113 68.7852 65.6113 67.5312C65.6113 66.2773 65.1719 65.3105 64.293 64.6309C63.4141 63.9395 61.8203 63.2598 59.5117 62.5918Z" fill="white"/>
<path d="M76.3691 74H73.1172V54.9805H76.3691V74ZM72.8535 49.9355C72.8535 49.4082 73.0117 48.9629 73.3281 48.5996C73.6562 48.2363 74.1367 48.0547 74.7695 48.0547C75.4023 48.0547 75.8828 48.2363 76.2109 48.5996C76.5391 48.9629 76.7031 49.4082 76.7031 49.9355C76.7031 50.4629 76.5391 50.9023 76.2109 51.2539C75.8828 51.6055 75.4023 51.7812 74.7695 51.7812C74.1367 51.7812 73.6562 51.6055 73.3281 51.2539C73.0117 50.9023 72.8535 50.4629 72.8535 49.9355Z" fill="white"/>
<path d="M81.4844 72.2949C81.4844 71.7324 81.6484 71.2637 81.9766 70.8887C82.3164 70.5137 82.8203 70.3262 83.4883 70.3262C84.1562 70.3262 84.6602 70.5137 85 70.8887C85.3516 71.2637 85.5273 71.7324 85.5273 72.2949C85.5273 72.834 85.3516 73.2852 85 73.6484C84.6602 74.0117 84.1562 74.1934 83.4883 74.1934C82.8203 74.1934 82.3164 74.0117 81.9766 73.6484C81.6484 73.2852 81.4844 72.834 81.4844 72.2949ZM81.502 56.7734C81.502 56.2109 81.666 55.7422 81.9941 55.3672C82.334 54.9922 82.8379 54.8047 83.5059 54.8047C84.1738 54.8047 84.6777 54.9922 85.0176 55.3672C85.3691 55.7422 85.5449 56.2109 85.5449 56.7734C85.5449 57.3125 85.3691 57.7637 85.0176 58.127C84.6777 58.4902 84.1738 58.6719 83.5059 58.6719C82.8379 58.6719 82.334 58.4902 81.9941 58.127C81.666 57.7637 81.502 57.3125 81.502 56.7734Z" fill="white"/>
<path d="M66.1035 167.32H55.3809L52.9727 174H49.4922L59.2656 148.406H62.2188L72.0098 174H68.5469L66.1035 167.32ZM56.4004 164.543H65.1016L60.7422 152.572L56.4004 164.543Z" fill="white"/>
<path d="M74.1543 164.332C74.1543 161.414 74.8457 159.07 76.2285 157.301C77.6113 155.52 79.4219 154.629 81.6602 154.629C83.8867 154.629 85.6504 155.391 86.9512 156.914V147H90.2031V174H87.2148L87.0566 171.961C85.7559 173.555 83.9453 174.352 81.625 174.352C79.4219 174.352 77.623 173.449 76.2285 171.645C74.8457 169.84 74.1543 167.484 74.1543 164.578V164.332ZM77.4062 164.701C77.4062 166.857 77.8516 168.545 78.7422 169.764C79.6328 170.982 80.8633 171.592 82.4336 171.592C84.4961 171.592 86.002 170.666 86.9512 168.814V160.078C85.9785 158.285 84.4844 157.389 82.4688 157.389C80.875 157.389 79.6328 158.004 78.7422 159.234C77.8516 160.465 77.4062 162.287 77.4062 164.701Z" fill="white"/>
<path d="M103.158 174.352C100.58 174.352 98.4824 173.508 96.8652 171.82C95.248 170.121 94.4395 167.854 94.4395 165.018V164.42C94.4395 162.533 94.7969 160.852 95.5117 159.375C96.2383 157.887 97.2461 156.727 98.5352 155.895C99.8359 155.051 101.242 154.629 102.754 154.629C105.227 154.629 107.148 155.443 108.52 157.072C109.891 158.701 110.576 161.033 110.576 164.068V165.422H97.6914C97.7383 167.297 98.2832 168.814 99.3262 169.975C100.381 171.123 101.717 171.697 103.334 171.697C104.482 171.697 105.455 171.463 106.252 170.994C107.049 170.525 107.746 169.904 108.344 169.131L110.33 170.678C108.736 173.127 106.346 174.352 103.158 174.352ZM102.754 157.301C101.441 157.301 100.34 157.781 99.4492 158.742C98.5586 159.691 98.0078 161.027 97.7969 162.75H107.324V162.504C107.23 160.852 106.785 159.574 105.988 158.672C105.191 157.758 104.113 157.301 102.754 157.301Z" fill="white"/>
<path d="M117.414 154.98L117.502 157.09C118.896 155.449 120.777 154.629 123.145 154.629C125.805 154.629 127.615 155.648 128.576 157.688C129.209 156.773 130.029 156.035 131.037 155.473C132.057 154.91 133.258 154.629 134.641 154.629C138.812 154.629 140.934 156.838 141.004 161.256V174H137.752V161.449C137.752 160.09 137.441 159.076 136.82 158.408C136.199 157.729 135.156 157.389 133.691 157.389C132.484 157.389 131.482 157.752 130.686 158.479C129.889 159.193 129.426 160.16 129.297 161.379V174H126.027V161.537C126.027 158.771 124.674 157.389 121.967 157.389C119.834 157.389 118.375 158.297 117.59 160.113V174H114.338V154.98H117.414Z" fill="white"/>
<path d="M157.668 174C157.48 173.625 157.328 172.957 157.211 171.996C155.699 173.566 153.895 174.352 151.797 174.352C149.922 174.352 148.381 173.824 147.174 172.77C145.979 171.703 145.381 170.355 145.381 168.727C145.381 166.746 146.131 165.211 147.631 164.121C149.143 163.02 151.264 162.469 153.994 162.469H157.158V160.975C157.158 159.838 156.818 158.936 156.139 158.268C155.459 157.588 154.457 157.248 153.133 157.248C151.973 157.248 151 157.541 150.215 158.127C149.43 158.713 149.037 159.422 149.037 160.254H145.768C145.768 159.305 146.102 158.391 146.77 157.512C147.449 156.621 148.363 155.918 149.512 155.402C150.672 154.887 151.943 154.629 153.326 154.629C155.518 154.629 157.234 155.18 158.477 156.281C159.719 157.371 160.363 158.877 160.41 160.799V169.553C160.41 171.299 160.633 172.688 161.078 173.719V174H157.668ZM152.271 171.521C153.291 171.521 154.258 171.258 155.172 170.73C156.086 170.203 156.748 169.518 157.158 168.674V164.771H154.609C150.625 164.771 148.633 165.938 148.633 168.27C148.633 169.289 148.973 170.086 149.652 170.66C150.332 171.234 151.205 171.521 152.271 171.521ZM155.277 147H159.215L154.504 152.168H151.885L155.277 147Z" fill="white"/>
<path d="M176.582 168.955C176.582 168.076 176.248 167.396 175.58 166.916C174.924 166.424 173.77 166.002 172.117 165.65C170.477 165.299 169.17 164.877 168.197 164.385C167.236 163.893 166.521 163.307 166.053 162.627C165.596 161.947 165.367 161.139 165.367 160.201C165.367 158.643 166.023 157.324 167.336 156.246C168.66 155.168 170.348 154.629 172.398 154.629C174.555 154.629 176.301 155.186 177.637 156.299C178.984 157.412 179.658 158.836 179.658 160.57H176.389C176.389 159.68 176.008 158.912 175.246 158.268C174.496 157.623 173.547 157.301 172.398 157.301C171.215 157.301 170.289 157.559 169.621 158.074C168.953 158.59 168.619 159.264 168.619 160.096C168.619 160.881 168.93 161.473 169.551 161.871C170.172 162.27 171.291 162.65 172.908 163.014C174.537 163.377 175.855 163.811 176.863 164.314C177.871 164.818 178.615 165.428 179.096 166.143C179.588 166.846 179.834 167.707 179.834 168.727C179.834 170.426 179.154 171.791 177.795 172.822C176.436 173.842 174.672 174.352 172.504 174.352C170.98 174.352 169.633 174.082 168.461 173.543C167.289 173.004 166.369 172.254 165.701 171.293C165.045 170.32 164.717 169.271 164.717 168.146H167.969C168.027 169.236 168.461 170.104 169.27 170.748C170.09 171.381 171.168 171.697 172.504 171.697C173.734 171.697 174.719 171.451 175.457 170.959C176.207 170.455 176.582 169.787 176.582 168.955Z" fill="white"/>
<path d="M183.965 172.295C183.965 171.732 184.129 171.264 184.457 170.889C184.797 170.514 185.301 170.326 185.969 170.326C186.637 170.326 187.141 170.514 187.48 170.889C187.832 171.264 188.008 171.732 188.008 172.295C188.008 172.834 187.832 173.285 187.48 173.648C187.141 174.012 186.637 174.193 185.969 174.193C185.301 174.193 184.797 174.012 184.457 173.648C184.129 173.285 183.965 172.834 183.965 172.295ZM183.982 156.773C183.982 156.211 184.146 155.742 184.475 155.367C184.814 154.992 185.318 154.805 185.986 154.805C186.654 154.805 187.158 154.992 187.498 155.367C187.85 155.742 188.025 156.211 188.025 156.773C188.025 157.312 187.85 157.764 187.498 158.127C187.158 158.49 186.654 158.672 185.986 158.672C185.318 158.672 184.814 158.49 184.475 158.127C184.146 157.764 183.982 157.312 183.982 156.773Z" fill="white"/>
<path d="M60.2676 213.611C60.2676 210.963 60.6191 208.42 61.3223 205.982C62.0371 203.545 63.0977 201.33 64.5039 199.338C65.9102 197.346 67.3691 195.939 68.8809 195.119L69.5488 197.264C67.8379 198.576 66.4316 200.58 65.3301 203.275C64.2402 205.971 63.6426 208.988 63.5371 212.328L63.5195 213.822C63.5195 218.346 64.3457 222.271 65.998 225.6C66.9941 227.592 68.1777 229.15 69.5488 230.275L68.8809 232.262C67.3223 231.395 65.834 229.941 64.416 227.902C61.6504 223.918 60.2676 219.154 60.2676 213.611Z" fill="white"/>
<path d="M84.4375 224C84.25 223.625 84.0977 222.957 83.9805 221.996C82.4688 223.566 80.6641 224.352 78.5664 224.352C76.6914 224.352 75.1504 223.824 73.9434 222.77C72.748 221.703 72.1504 220.355 72.1504 218.727C72.1504 216.746 72.9004 215.211 74.4004 214.121C75.9121 213.02 78.0332 212.469 80.7637 212.469H83.9277V210.975C83.9277 209.838 83.5879 208.936 82.9082 208.268C82.2285 207.588 81.2266 207.248 79.9023 207.248C78.7422 207.248 77.7695 207.541 76.9844 208.127C76.1992 208.713 75.8066 209.422 75.8066 210.254H72.5371C72.5371 209.305 72.8711 208.391 73.5391 207.512C74.2188 206.621 75.1328 205.918 76.2812 205.402C77.4414 204.887 78.7129 204.629 80.0957 204.629C82.2871 204.629 84.0039 205.18 85.2461 206.281C86.4883 207.371 87.1328 208.877 87.1797 210.799V219.553C87.1797 221.299 87.4023 222.688 87.8477 223.719V224H84.4375ZM79.041 221.521C80.0605 221.521 81.0273 221.258 81.9414 220.73C82.8555 220.203 83.5176 219.518 83.9277 218.674V214.771H81.3789C77.3945 214.771 75.4023 215.938 75.4023 218.27C75.4023 219.289 75.7422 220.086 76.4219 220.66C77.1016 221.234 77.9746 221.521 79.041 221.521Z" fill="white"/>
<path d="M118.029 224.352C115.451 224.352 113.354 223.508 111.736 221.82C110.119 220.121 109.311 217.854 109.311 215.018V214.42C109.311 212.533 109.668 210.852 110.383 209.375C111.109 207.887 112.117 206.727 113.406 205.895C114.707 205.051 116.113 204.629 117.625 204.629C120.098 204.629 122.02 205.443 123.391 207.072C124.762 208.701 125.447 211.033 125.447 214.068V215.422H112.562C112.609 217.297 113.154 218.814 114.197 219.975C115.252 221.123 116.588 221.697 118.205 221.697C119.354 221.697 120.326 221.463 121.123 220.994C121.92 220.525 122.617 219.904 123.215 219.131L125.201 220.678C123.607 223.127 121.217 224.352 118.029 224.352ZM117.625 207.301C116.312 207.301 115.211 207.781 114.32 208.742C113.43 209.691 112.879 211.027 112.668 212.75H122.195V212.504C122.102 210.852 121.656 209.574 120.859 208.672C120.062 207.758 118.984 207.301 117.625 207.301Z" fill="white"/>
<path d="M140.301 218.955C140.301 218.076 139.967 217.396 139.299 216.916C138.643 216.424 137.488 216.002 135.836 215.65C134.195 215.299 132.889 214.877 131.916 214.385C130.955 213.893 130.24 213.307 129.771 212.627C129.314 211.947 129.086 211.139 129.086 210.201C129.086 208.643 129.742 207.324 131.055 206.246C132.379 205.168 134.066 204.629 136.117 204.629C138.273 204.629 140.02 205.186 141.355 206.299C142.703 207.412 143.377 208.836 143.377 210.57H140.107C140.107 209.68 139.727 208.912 138.965 208.268C138.215 207.623 137.266 207.301 136.117 207.301C134.934 207.301 134.008 207.559 133.34 208.074C132.672 208.59 132.338 209.264 132.338 210.096C132.338 210.881 132.648 211.473 133.27 211.871C133.891 212.27 135.01 212.65 136.627 213.014C138.256 213.377 139.574 213.811 140.582 214.314C141.59 214.818 142.334 215.428 142.814 216.143C143.307 216.846 143.553 217.707 143.553 218.727C143.553 220.426 142.873 221.791 141.514 222.822C140.154 223.842 138.391 224.352 136.223 224.352C134.699 224.352 133.352 224.082 132.18 223.543C131.008 223.004 130.088 222.254 129.42 221.293C128.764 220.32 128.436 219.271 128.436 218.146H131.688C131.746 219.236 132.18 220.104 132.988 220.748C133.809 221.381 134.887 221.697 136.223 221.697C137.453 221.697 138.438 221.451 139.176 220.959C139.926 220.455 140.301 219.787 140.301 218.955Z" fill="white"/>
<path d="M164.611 224.352C162.033 224.352 159.936 223.508 158.318 221.82C156.701 220.121 155.893 217.854 155.893 215.018V214.42C155.893 212.533 156.25 210.852 156.965 209.375C157.691 207.887 158.699 206.727 159.988 205.895C161.289 205.051 162.695 204.629 164.207 204.629C166.68 204.629 168.602 205.443 169.973 207.072C171.344 208.701 172.029 211.033 172.029 214.068V215.422H159.145C159.191 217.297 159.736 218.814 160.779 219.975C161.834 221.123 163.17 221.697 164.787 221.697C165.936 221.697 166.908 221.463 167.705 220.994C168.502 220.525 169.199 219.904 169.797 219.131L171.783 220.678C170.189 223.127 167.799 224.352 164.611 224.352ZM164.207 207.301C162.895 207.301 161.793 207.781 160.902 208.742C160.012 209.691 159.461 211.027 159.25 212.75H168.777V212.504C168.684 210.852 168.238 209.574 167.441 208.672C166.645 207.758 165.566 207.301 164.207 207.301Z" fill="white"/>
<path d="M179.342 224H176.09V197H179.342V224Z" fill="white"/>
<path d="M197.025 224H193.773V204.98H197.025V224ZM193.51 199.936C193.51 199.408 193.668 198.963 193.984 198.6C194.312 198.236 194.793 198.055 195.426 198.055C196.059 198.055 196.539 198.236 196.867 198.6C197.195 198.963 197.359 199.408 197.359 199.936C197.359 200.463 197.195 200.902 196.867 201.254C196.539 201.605 196.059 201.781 195.426 201.781C194.793 201.781 194.312 201.605 193.984 201.254C193.668 200.902 193.51 200.463 193.51 199.936Z" fill="white"/>
<path d="M205.322 204.98L205.428 207.371C206.881 205.543 208.779 204.629 211.123 204.629C215.143 204.629 217.17 206.896 217.205 211.432V224H213.953V211.414C213.941 210.043 213.625 209.029 213.004 208.373C212.395 207.717 211.439 207.389 210.139 207.389C209.084 207.389 208.158 207.67 207.361 208.232C206.564 208.795 205.943 209.533 205.498 210.447V224H202.246V204.98H205.322Z" fill="white"/>
<path d="M228.385 219.588L233.096 204.98H236.418L229.598 224H227.119L220.229 204.98H223.551L228.385 219.588Z" fill="white"/>
<path d="M247.193 224.352C244.615 224.352 242.518 223.508 240.9 221.82C239.283 220.121 238.475 217.854 238.475 215.018V214.42C238.475 212.533 238.832 210.852 239.547 209.375C240.273 207.887 241.281 206.727 242.57 205.895C243.871 205.051 245.277 204.629 246.789 204.629C249.262 204.629 251.184 205.443 252.555 207.072C253.926 208.701 254.611 211.033 254.611 214.068V215.422H241.727C241.773 217.297 242.318 218.814 243.361 219.975C244.416 221.123 245.752 221.697 247.369 221.697C248.518 221.697 249.49 221.463 250.287 220.994C251.084 220.525 251.781 219.904 252.379 219.131L254.365 220.678C252.771 223.127 250.381 224.352 247.193 224.352ZM246.789 207.301C245.477 207.301 244.375 207.781 243.484 208.742C242.594 209.691 242.043 211.027 241.832 212.75H251.359V212.504C251.266 210.852 250.82 209.574 250.023 208.672C249.227 207.758 248.148 207.301 246.789 207.301Z" fill="white"/>
<path d="M267.584 207.898C267.092 207.816 266.559 207.775 265.984 207.775C263.852 207.775 262.404 208.684 261.643 210.5V224H258.391V204.98H261.555L261.607 207.178C262.674 205.479 264.186 204.629 266.143 204.629C266.775 204.629 267.256 204.711 267.584 204.875V207.898Z" fill="white"/>
<path d="M281.664 218.955C281.664 218.076 281.33 217.396 280.662 216.916C280.006 216.424 278.852 216.002 277.199 215.65C275.559 215.299 274.252 214.877 273.279 214.385C272.318 213.893 271.604 213.307 271.135 212.627C270.678 211.947 270.449 211.139 270.449 210.201C270.449 208.643 271.105 207.324 272.418 206.246C273.742 205.168 275.43 204.629 277.48 204.629C279.637 204.629 281.383 205.186 282.719 206.299C284.066 207.412 284.74 208.836 284.74 210.57H281.471C281.471 209.68 281.09 208.912 280.328 208.268C279.578 207.623 278.629 207.301 277.48 207.301C276.297 207.301 275.371 207.559 274.703 208.074C274.035 208.59 273.701 209.264 273.701 210.096C273.701 210.881 274.012 211.473 274.633 211.871C275.254 212.27 276.373 212.65 277.99 213.014C279.619 213.377 280.938 213.811 281.945 214.314C282.953 214.818 283.697 215.428 284.178 216.143C284.67 216.846 284.916 217.707 284.916 218.727C284.916 220.426 284.236 221.791 282.877 222.822C281.518 223.842 279.754 224.352 277.586 224.352C276.062 224.352 274.715 224.082 273.543 223.543C272.371 223.004 271.451 222.254 270.783 221.293C270.127 220.32 269.799 219.271 269.799 218.146H273.051C273.109 219.236 273.543 220.104 274.352 220.748C275.172 221.381 276.25 221.697 277.586 221.697C278.816 221.697 279.801 221.451 280.539 220.959C281.289 220.455 281.664 219.787 281.664 218.955Z" fill="white"/>
<path d="M288.291 214.314C288.291 212.451 288.654 210.775 289.381 209.287C290.119 207.799 291.139 206.65 292.439 205.842C293.752 205.033 295.246 204.629 296.922 204.629C299.512 204.629 301.604 205.525 303.197 207.318C304.803 209.111 305.605 211.496 305.605 214.473V214.701C305.605 216.553 305.248 218.217 304.533 219.693C303.83 221.158 302.816 222.301 301.492 223.121C300.18 223.941 298.668 224.352 296.957 224.352C294.379 224.352 292.287 223.455 290.682 221.662C289.088 219.869 288.291 217.496 288.291 214.543V214.314ZM291.561 214.701C291.561 216.811 292.047 218.504 293.02 219.781C294.004 221.059 295.316 221.697 296.957 221.697C298.609 221.697 299.922 221.053 300.895 219.764C301.867 218.463 302.354 216.646 302.354 214.314C302.354 212.229 301.855 210.541 300.859 209.252C299.875 207.951 298.562 207.301 296.922 207.301C295.316 207.301 294.021 207.939 293.037 209.217C292.053 210.494 291.561 212.322 291.561 214.701Z" fill="white"/>
<path d="M317.822 214.332C317.822 211.414 318.514 209.07 319.896 207.301C321.279 205.52 323.09 204.629 325.328 204.629C327.555 204.629 329.318 205.391 330.619 206.914V197H333.871V224H330.883L330.725 221.961C329.424 223.555 327.613 224.352 325.293 224.352C323.09 224.352 321.291 223.449 319.896 221.645C318.514 219.84 317.822 217.484 317.822 214.578V214.332ZM321.074 214.701C321.074 216.857 321.52 218.545 322.41 219.764C323.301 220.982 324.531 221.592 326.102 221.592C328.164 221.592 329.67 220.666 330.619 218.814V210.078C329.646 208.285 328.152 207.389 326.137 207.389C324.543 207.389 323.301 208.004 322.41 209.234C321.52 210.465 321.074 212.287 321.074 214.701Z" fill="white"/>
<path d="M346.826 224.352C344.248 224.352 342.15 223.508 340.533 221.82C338.916 220.121 338.107 217.854 338.107 215.018V214.42C338.107 212.533 338.465 210.852 339.18 209.375C339.906 207.887 340.914 206.727 342.203 205.895C343.504 205.051 344.91 204.629 346.422 204.629C348.895 204.629 350.816 205.443 352.188 207.072C353.559 208.701 354.244 211.033 354.244 214.068V215.422H341.359C341.406 217.297 341.951 218.814 342.994 219.975C344.049 221.123 345.385 221.697 347.002 221.697C348.15 221.697 349.123 221.463 349.92 220.994C350.717 220.525 351.414 219.904 352.012 219.131L353.998 220.678C352.404 223.127 350.014 224.352 346.826 224.352ZM346.422 207.301C345.109 207.301 344.008 207.781 343.117 208.742C342.227 209.691 341.676 211.027 341.465 212.75H350.992V212.504C350.898 210.852 350.453 209.574 349.656 208.672C348.859 207.758 347.781 207.301 346.422 207.301Z" fill="white"/>
<path d="M378.695 224C378.508 223.625 378.355 222.957 378.238 221.996C376.727 223.566 374.922 224.352 372.824 224.352C370.949 224.352 369.408 223.824 368.201 222.77C367.006 221.703 366.408 220.355 366.408 218.727C366.408 216.746 367.158 215.211 368.658 214.121C370.17 213.02 372.291 212.469 375.021 212.469H378.186V210.975C378.186 209.838 377.846 208.936 377.166 208.268C376.486 207.588 375.484 207.248 374.16 207.248C373 207.248 372.027 207.541 371.242 208.127C370.457 208.713 370.064 209.422 370.064 210.254H366.795C366.795 209.305 367.129 208.391 367.797 207.512C368.477 206.621 369.391 205.918 370.539 205.402C371.699 204.887 372.971 204.629 374.354 204.629C376.545 204.629 378.262 205.18 379.504 206.281C380.746 207.371 381.391 208.877 381.438 210.799V219.553C381.438 221.299 381.66 222.688 382.105 223.719V224H378.695ZM373.299 221.521C374.318 221.521 375.285 221.258 376.199 220.73C377.113 220.203 377.775 219.518 378.186 218.674V214.771H375.637C371.652 214.771 369.66 215.938 369.66 218.27C369.66 219.289 370 220.086 370.68 220.66C371.359 221.234 372.232 221.521 373.299 221.521Z" fill="white"/>
<path d="M394.041 213.787C394.041 216.4 393.695 218.908 393.004 221.311C392.324 223.701 391.275 225.91 389.857 227.938C388.451 229.965 386.975 231.406 385.428 232.262L384.742 230.275C386.547 228.893 387.994 226.748 389.084 223.842C390.186 220.924 390.748 217.689 390.771 214.139V213.576C390.771 211.115 390.514 208.83 389.998 206.721C389.482 204.6 388.762 202.701 387.836 201.025C386.922 199.35 385.891 198.043 384.742 197.105L385.428 195.119C386.975 195.975 388.445 197.404 389.84 199.408C391.246 201.412 392.295 203.621 392.986 206.035C393.689 208.449 394.041 211.033 394.041 213.787Z" fill="white"/>
<path d="M70.7969 315.879C70.4805 318.586 69.4785 320.678 67.791 322.154C66.1152 323.619 63.8828 324.352 61.0938 324.352C58.0703 324.352 55.6445 323.268 53.8164 321.1C52 318.932 51.0918 316.031 51.0918 312.398V309.938C51.0918 307.559 51.5137 305.467 52.3574 303.662C53.2129 301.857 54.4199 300.475 55.9785 299.514C57.5371 298.541 59.3418 298.055 61.3926 298.055C64.1113 298.055 66.291 298.816 67.9316 300.34C69.5723 301.852 70.5273 303.949 70.7969 306.633H67.4043C67.1113 304.594 66.4727 303.117 65.4883 302.203C64.5156 301.289 63.1504 300.832 61.3926 300.832C59.2363 300.832 57.543 301.629 56.3125 303.223C55.0938 304.816 54.4844 307.084 54.4844 310.025V312.504C54.4844 315.281 55.0645 317.49 56.2246 319.131C57.3848 320.771 59.0078 321.592 61.0938 321.592C62.9688 321.592 64.4043 321.17 65.4004 320.326C66.4082 319.471 67.0762 317.988 67.4043 315.879H70.7969Z" fill="white"/>
<path d="M86.6523 324C86.4648 323.625 86.3125 322.957 86.1953 321.996C84.6836 323.566 82.8789 324.352 80.7812 324.352C78.9062 324.352 77.3652 323.824 76.1582 322.77C74.9629 321.703 74.3652 320.355 74.3652 318.727C74.3652 316.746 75.1152 315.211 76.6152 314.121C78.127 313.02 80.248 312.469 82.9785 312.469H86.1426V310.975C86.1426 309.838 85.8027 308.936 85.123 308.268C84.4434 307.588 83.4414 307.248 82.1172 307.248C80.957 307.248 79.9844 307.541 79.1992 308.127C78.4141 308.713 78.0215 309.422 78.0215 310.254H74.752C74.752 309.305 75.0859 308.391 75.7539 307.512C76.4336 306.621 77.3477 305.918 78.4961 305.402C79.6562 304.887 80.9277 304.629 82.3105 304.629C84.502 304.629 86.2188 305.18 87.4609 306.281C88.7031 307.371 89.3477 308.877 89.3945 310.799V319.553C89.3945 321.299 89.6172 322.688 90.0625 323.719V324H86.6523ZM81.2559 321.521C82.2754 321.521 83.2422 321.258 84.1562 320.73C85.0703 320.203 85.7324 319.518 86.1426 318.674V314.771H83.5938C79.6094 314.771 77.6172 315.938 77.6172 318.27C77.6172 319.289 77.957 320.086 78.6367 320.66C79.3164 321.234 80.1895 321.521 81.2559 321.521Z" fill="white"/>
<path d="M98.0254 324H94.7734V297H98.0254V324Z" fill="white"/>
<path d="M110.875 321.697C112.035 321.697 113.049 321.346 113.916 320.643C114.783 319.939 115.264 319.061 115.357 318.006H118.434C118.375 319.096 118 320.133 117.309 321.117C116.617 322.102 115.691 322.887 114.531 323.473C113.383 324.059 112.164 324.352 110.875 324.352C108.285 324.352 106.223 323.49 104.688 321.768C103.164 320.033 102.402 317.666 102.402 314.666V314.121C102.402 312.27 102.742 310.623 103.422 309.182C104.102 307.74 105.074 306.621 106.34 305.824C107.617 305.027 109.123 304.629 110.857 304.629C112.99 304.629 114.76 305.268 116.166 306.545C117.584 307.822 118.34 309.48 118.434 311.52H115.357C115.264 310.289 114.795 309.281 113.951 308.496C113.119 307.699 112.088 307.301 110.857 307.301C109.205 307.301 107.922 307.898 107.008 309.094C106.105 310.277 105.654 311.994 105.654 314.244V314.859C105.654 317.051 106.105 318.738 107.008 319.922C107.91 321.105 109.199 321.697 110.875 321.697Z" fill="white"/>
<path d="M133.832 322.119C132.566 323.607 130.709 324.352 128.26 324.352C126.232 324.352 124.686 323.766 123.619 322.594C122.564 321.41 122.031 319.664 122.02 317.355V304.98H125.271V317.268C125.271 320.15 126.443 321.592 128.787 321.592C131.271 321.592 132.924 320.666 133.744 318.814V304.98H136.996V324H133.902L133.832 322.119Z" fill="white"/>
<path d="M145.486 324H142.234V297H145.486V324Z" fill="white"/>
<path d="M162.449 324C162.262 323.625 162.109 322.957 161.992 321.996C160.48 323.566 158.676 324.352 156.578 324.352C154.703 324.352 153.162 323.824 151.955 322.77C150.76 321.703 150.162 320.355 150.162 318.727C150.162 316.746 150.912 315.211 152.412 314.121C153.924 313.02 156.045 312.469 158.775 312.469H161.939V310.975C161.939 309.838 161.6 308.936 160.92 308.268C160.24 307.588 159.238 307.248 157.914 307.248C156.754 307.248 155.781 307.541 154.996 308.127C154.211 308.713 153.818 309.422 153.818 310.254H150.549C150.549 309.305 150.883 308.391 151.551 307.512C152.23 306.621 153.145 305.918 154.293 305.402C155.453 304.887 156.725 304.629 158.107 304.629C160.299 304.629 162.016 305.18 163.258 306.281C164.5 307.371 165.145 308.877 165.191 310.799V319.553C165.191 321.299 165.414 322.688 165.859 323.719V324H162.449ZM157.053 321.521C158.072 321.521 159.039 321.258 159.953 320.73C160.867 320.203 161.529 319.518 161.939 318.674V314.771H159.391C155.406 314.771 153.414 315.938 153.414 318.27C153.414 319.289 153.754 320.086 154.434 320.66C155.113 321.234 155.986 321.521 157.053 321.521Z" fill="white"/>
<path d="M170.184 322.295C170.184 321.732 170.348 321.264 170.676 320.889C171.016 320.514 171.52 320.326 172.188 320.326C172.855 320.326 173.359 320.514 173.699 320.889C174.051 321.264 174.227 321.732 174.227 322.295C174.227 322.834 174.051 323.285 173.699 323.648C173.359 324.012 172.855 324.193 172.188 324.193C171.52 324.193 171.016 324.012 170.676 323.648C170.348 323.285 170.184 322.834 170.184 322.295ZM170.201 306.773C170.201 306.211 170.365 305.742 170.693 305.367C171.033 304.992 171.537 304.805 172.205 304.805C172.873 304.805 173.377 304.992 173.717 305.367C174.068 305.742 174.244 306.211 174.244 306.773C174.244 307.312 174.068 307.764 173.717 308.127C173.377 308.49 172.873 308.672 172.205 308.672C171.537 308.672 171.033 308.49 170.693 308.127C170.365 307.764 170.201 307.312 170.201 306.773Z" fill="white"/>
</g>
<g id="-1">
<path d="M93.2285 197.455H84.6504V194.801H93.2285V197.455Z" fill="white"/>
<path d="M102.492 207H100.312V192.551L95.9414 194.156V192.188L102.152 189.855H102.492V207Z" fill="white"/>
</g>
<g id="x\;\;=4x-5  \;a*b\;\;=4(a+b)+3\;\;S=\left(3^{-1}*4^{-1}\right)^{-1}*\left(\;\;3\;\;^{-1}*\;\;2\;\;^{-1}\right)">
<g id="Group">
<g id="Group 69">
<g id="Group_2">
<path id="Vector" d="M174.713 73.27C174.909 72.0958 175.663 70.74 176.977 69.2025C178.291 67.665 179.913 66.8822 181.841 66.8543C182.82 66.8543 183.714 67.1058 184.525 67.609C185.336 68.1122 185.937 68.7412 186.328 69.496C187.502 67.7348 188.914 66.8543 190.563 66.8543C191.598 66.8543 192.492 67.1618 193.247 67.7768C194.002 68.3918 194.393 69.2165 194.421 70.2508C194.421 71.0615 194.226 71.7185 193.834 72.2216C193.443 72.7248 193.065 73.0323 192.702 73.1442C192.339 73.256 192.017 73.3119 191.738 73.3119C191.206 73.3119 190.773 73.1581 190.438 72.8506C190.102 72.5431 189.934 72.1378 189.934 71.6346C189.934 70.3486 190.633 69.4681 192.031 68.9928C191.724 68.6294 191.164 68.4477 190.354 68.4477C189.99 68.4477 189.725 68.4757 189.557 68.5316C188.495 68.9788 187.712 69.9014 187.209 71.2991C185.532 77.4772 184.693 81.0834 184.693 82.1178C184.693 82.9005 184.916 83.4596 185.364 83.7951C185.811 84.1305 186.3 84.2983 186.831 84.2983C187.866 84.2983 188.886 83.837 189.893 82.9145C190.899 81.992 191.584 80.8598 191.947 79.5179C192.031 79.2384 192.115 79.0846 192.199 79.0567C192.283 79.0287 192.506 79.0008 192.87 78.9728H193.037C193.457 78.9728 193.666 79.0846 193.666 79.3083C193.666 79.3362 193.639 79.49 193.583 79.7695C193.135 81.363 192.269 82.7747 190.983 84.0048C189.697 85.2348 188.201 85.8498 186.496 85.8498C184.539 85.8498 183.057 84.9692 182.051 83.208C180.905 84.9412 179.591 85.8079 178.109 85.8079H177.858C176.488 85.8079 175.51 85.4444 174.923 84.7176C174.335 83.9908 174.028 83.222 174 82.4113C174 81.5167 174.266 80.7899 174.797 80.2308C175.328 79.6717 175.957 79.3921 176.684 79.3921C177.886 79.3921 178.487 79.9792 178.487 81.1533C178.487 81.7124 178.319 82.2016 177.984 82.621C177.648 83.0403 177.327 83.3198 177.019 83.4596C176.712 83.5994 176.53 83.6693 176.474 83.6693L176.348 83.7112C176.348 83.7392 176.432 83.7951 176.6 83.879C176.768 83.9628 176.991 84.0607 177.271 84.1725C177.55 84.2843 177.816 84.3262 178.067 84.2983C179.074 84.2983 179.94 83.6693 180.667 82.4113C180.919 81.964 181.24 81.0135 181.632 79.5599C182.023 78.1062 182.415 76.5966 182.806 75.0311C183.197 73.4657 183.421 72.5431 183.477 72.2636C183.617 71.5088 183.686 70.9637 183.686 70.6282C183.686 69.8455 183.477 69.2864 183.057 68.9509C182.638 68.6154 182.163 68.4477 181.632 68.4477C180.514 68.4477 179.465 68.895 178.487 69.7895C177.508 70.6841 176.823 71.8303 176.432 73.228C176.376 73.4796 176.306 73.6194 176.222 73.6474C176.139 73.6753 175.915 73.7033 175.552 73.7312H174.964C174.797 73.5635 174.713 73.4097 174.713 73.27Z" fill="white"/>
</g>
<path id="Rectangle 28 (Stroke)" fill-rule="evenodd" clip-rule="evenodd" d="M208 52H164V96H208V52ZM161 49V99H211V49H161Z" fill="white"/>
<g id="Group_3">
<path id="Vector_2" d="M233.808 70.8378C233.808 70.4744 234.004 70.1948 234.395 69.9991H261.107C261.526 70.2228 261.736 70.5023 261.736 70.8378C261.736 71.1453 261.54 71.4109 261.149 71.6345L247.814 71.6764H234.479C234.032 71.5367 233.808 71.2571 233.808 70.8378ZM233.808 78.9727C233.808 78.5534 234.032 78.2739 234.479 78.1341H261.149C261.54 78.4136 261.736 78.6932 261.736 78.9727C261.736 79.3362 261.526 79.6157 261.107 79.8114H234.395C234.004 79.6157 233.808 79.3362 233.808 78.9727Z" fill="white"/>
</g>
<g id="Group_4">
<path id="Vector_3" d="M295.106 85.3885C294.603 85.3046 292.8 85.2627 289.697 85.2627C286.454 85.2627 284.581 85.3046 284.078 85.3885H283.701V83.4596H285C285.56 83.4596 285.937 83.4596 286.133 83.4596C286.328 83.4596 286.566 83.4316 286.846 83.3757C287.125 83.3198 287.321 83.2499 287.433 83.1661C287.544 83.0822 287.642 82.9704 287.726 82.8306C287.754 82.7747 287.768 82.0199 287.768 80.5662V78.4696H276.907V76.5407L283.239 66.8542C287.516 60.3686 289.683 57.1118 289.739 57.0839C289.795 57.028 290.088 57 290.619 57H291.374L291.626 57.2516V76.5407H295.484V78.4696H291.626V80.6082C291.626 81.7543 291.626 82.4252 291.626 82.6209C291.626 82.8166 291.71 82.9843 291.877 83.1241C292.101 83.3198 292.898 83.4316 294.268 83.4596H295.484V85.3885H295.106ZM288.02 76.5407V62.5351L278.836 76.4987L283.407 76.5407H288.02Z" fill="white"/>
</g>
<g id="Group_5">
<path id="Vector_4" d="M298.88 73.27C299.076 72.0958 299.831 70.74 301.144 69.2025C302.458 67.665 304.08 66.8822 306.009 66.8543C306.987 66.8543 307.882 67.1058 308.692 67.609C309.503 68.1122 310.104 68.7412 310.495 69.496C311.67 67.7348 313.081 66.8543 314.731 66.8543C315.765 66.8543 316.66 67.1618 317.414 67.7768C318.169 68.3918 318.561 69.2165 318.588 70.2508C318.588 71.0615 318.393 71.7185 318.001 72.2216C317.61 72.7248 317.233 73.0323 316.869 73.1442C316.506 73.256 316.184 73.3119 315.905 73.3119C315.374 73.3119 314.94 73.1581 314.605 72.8506C314.269 72.5431 314.102 72.1378 314.102 71.6346C314.102 70.3486 314.801 69.4681 316.198 68.9928C315.891 68.6294 315.332 68.4477 314.521 68.4477C314.158 68.4477 313.892 68.4757 313.724 68.5316C312.662 68.9788 311.879 69.9014 311.376 71.2991C309.699 77.4772 308.86 81.0834 308.86 82.1178C308.86 82.9005 309.084 83.4596 309.531 83.7951C309.978 84.1305 310.468 84.2983 310.999 84.2983C312.033 84.2983 313.053 83.837 314.06 82.9145C315.066 81.992 315.751 80.8598 316.114 79.5179C316.198 79.2384 316.282 79.0846 316.366 79.0567C316.45 79.0287 316.674 79.0008 317.037 78.9728H317.205C317.624 78.9728 317.834 79.0846 317.834 79.3083C317.834 79.3362 317.806 79.49 317.75 79.7695C317.303 81.363 316.436 82.7747 315.15 84.0048C313.864 85.2348 312.368 85.8498 310.663 85.8498C308.706 85.8498 307.225 84.9692 306.218 83.208C305.072 84.9412 303.758 85.8079 302.277 85.8079H302.025C300.655 85.8079 299.677 85.4444 299.09 84.7176C298.503 83.9908 298.195 83.222 298.167 82.4113C298.167 81.5167 298.433 80.7899 298.964 80.2308C299.495 79.6717 300.124 79.3921 300.851 79.3921C302.053 79.3921 302.654 79.9792 302.654 81.1533C302.654 81.7124 302.486 82.2016 302.151 82.621C301.815 83.0403 301.494 83.3198 301.186 83.4596C300.879 83.5994 300.697 83.6693 300.641 83.6693L300.515 83.7112C300.515 83.7392 300.599 83.7951 300.767 83.879C300.935 83.9628 301.158 84.0607 301.438 84.1725C301.718 84.2843 301.983 84.3262 302.235 84.2983C303.241 84.2983 304.108 83.6693 304.835 82.4113C305.086 81.964 305.408 81.0135 305.799 79.5599C306.19 78.1062 306.582 76.5966 306.973 75.0311C307.364 73.4657 307.588 72.5431 307.644 72.2636C307.784 71.5088 307.854 70.9637 307.854 70.6282C307.854 69.8455 307.644 69.2864 307.225 68.9509C306.805 68.6154 306.33 68.4477 305.799 68.4477C304.681 68.4477 303.632 68.895 302.654 69.7895C301.676 70.6841 300.991 71.8303 300.599 73.228C300.543 73.4796 300.474 73.6194 300.39 73.6474C300.306 73.6753 300.082 73.7033 299.719 73.7312H299.132C298.964 73.5635 298.88 73.4097 298.88 73.27Z" fill="white"/>
</g>
<g id="Group_6">
<path id="Vector_5" d="M333.525 75.4504C333.525 75.4504 333.525 75.2687 333.525 74.9053C333.525 74.5419 333.721 74.2623 334.112 74.0666H358.475C358.895 74.2903 359.104 74.5698 359.104 74.9053C359.104 75.2408 358.895 75.5203 358.475 75.744H334.112C333.721 75.5483 333.525 75.2687 333.525 74.9053V75.4504Z" fill="white"/>
</g>
<g id="Group_7">
<path id="Vector_6" d="M378.825 78.8051C378.825 79.476 378.601 80.0351 378.154 80.4824C377.707 80.9297 377.162 81.1533 376.519 81.1533H376.225C377.511 83.3618 379.216 84.466 381.341 84.466C383.298 84.466 384.724 83.6273 385.618 81.95C386.149 81.0275 386.415 79.2384 386.415 76.5826C386.415 73.7033 386.037 71.7604 385.283 70.754C384.556 69.8315 383.745 69.3702 382.851 69.3702H382.599C380.418 69.3702 378.769 70.3207 377.651 72.2216C377.539 72.4173 377.441 72.5291 377.357 72.5571C377.274 72.585 377.064 72.613 376.728 72.641C376.253 72.641 375.988 72.5571 375.932 72.3894C375.876 72.2775 375.848 69.8315 375.848 65.0511V59.6418C375.848 58.244 375.918 57.5452 376.057 57.5452C376.113 57.4893 376.169 57.4613 376.225 57.4613C376.253 57.4613 376.547 57.5731 377.106 57.7968C377.665 58.0204 378.434 58.244 379.412 58.4677C380.391 58.6913 381.439 58.8031 382.557 58.8031C384.542 58.8031 386.443 58.4118 388.26 57.629C388.484 57.5172 388.665 57.4613 388.805 57.4613C389.029 57.4613 389.14 57.7129 389.14 58.2161V58.7612C386.848 61.4729 383.983 62.8287 380.544 62.8287C379.678 62.8287 378.895 62.7448 378.196 62.5771L377.777 62.4932V69.7057C378.308 69.3143 378.727 69.0068 379.035 68.7831C379.342 68.5595 379.845 68.3359 380.544 68.1122C381.243 67.8886 381.956 67.7768 382.683 67.7768C384.947 67.7768 386.862 68.6853 388.428 70.5024C389.993 72.3195 390.776 74.472 390.776 76.96C390.776 79.5319 389.881 81.7264 388.092 83.5435C386.303 85.3606 384.123 86.2831 381.551 86.311C379.286 86.311 377.469 85.5562 376.099 84.0467C374.73 82.5371 374.045 80.8318 374.045 78.9309C374.045 78.2599 374.198 77.7288 374.506 77.3374C374.813 76.9461 375.135 76.6945 375.47 76.5826C375.806 76.4708 376.127 76.4149 376.435 76.4149C377.134 76.4149 377.707 76.6525 378.154 77.1278C378.601 77.603 378.825 78.1621 378.825 78.8051Z" fill="white"/>
</g>
</g>
<g id="Group 70">
<g id="Group_8">
<path id="Vector_7" d="M232 158.866C232 156.043 233.062 153.359 235.187 150.815C237.311 148.271 239.702 146.985 242.357 146.957C243.783 146.957 245.041 147.642 246.131 149.012C246.579 148.173 247.222 147.754 248.06 147.754C248.424 147.754 248.745 147.866 249.025 148.089C249.304 148.313 249.444 148.593 249.444 148.928C249.444 149.292 248.927 151.528 247.893 155.637C246.858 159.747 246.327 162.067 246.299 162.598C246.299 163.297 246.397 163.758 246.593 163.982C246.788 164.206 247.082 164.331 247.473 164.359C247.725 164.331 248.004 164.206 248.312 163.982C248.899 163.423 249.472 162.081 250.031 159.956C250.199 159.397 250.339 159.104 250.45 159.076C250.506 159.048 250.646 159.034 250.87 159.034H251.037C251.569 159.034 251.834 159.16 251.834 159.411C251.834 159.579 251.764 159.956 251.625 160.543C251.485 161.131 251.205 161.885 250.786 162.808C250.367 163.73 249.919 164.429 249.444 164.905C249.081 165.268 248.633 165.561 248.102 165.785C247.879 165.841 247.543 165.869 247.096 165.869C246.145 165.869 245.349 165.659 244.706 165.24C244.063 164.821 243.643 164.387 243.448 163.94L243.196 163.311C243.168 163.283 243.112 163.297 243.028 163.353C242.972 163.409 242.916 163.465 242.861 163.521C241.211 165.086 239.534 165.869 237.829 165.869C236.291 165.869 234.935 165.31 233.761 164.192C232.587 163.073 232 161.298 232 158.866ZM245.335 151.696C245.335 151.528 245.265 151.22 245.125 150.773C244.985 150.326 244.664 149.837 244.161 149.306C243.657 148.774 243.014 148.495 242.232 148.467C241.253 148.467 240.317 148.9 239.422 149.767C238.528 150.633 237.829 151.766 237.325 153.163C236.515 155.372 235.942 157.664 235.606 160.04C235.606 160.124 235.606 160.278 235.606 160.502C235.606 160.725 235.592 160.893 235.564 161.005C235.564 162.263 235.816 163.129 236.319 163.605C236.822 164.08 237.423 164.331 238.122 164.359C239.184 164.359 240.233 163.898 241.267 162.976C242.301 162.053 242.916 161.34 243.112 160.837C243.168 160.725 243.545 159.23 244.244 156.35C244.943 153.471 245.307 151.919 245.335 151.696Z" fill="white"/>
</g>
<g id="Group_9">
<path id="Vector_8" d="M271.724 153.457C271.36 149.711 271.179 147.614 271.179 147.167C271.179 146.664 271.514 146.272 272.185 145.993C272.213 145.993 272.283 145.993 272.395 145.993C272.507 145.993 272.59 145.979 272.646 145.951C272.982 145.979 273.289 146.105 273.569 146.328C273.848 146.552 273.988 146.831 273.988 147.167C273.988 147.642 273.904 148.76 273.737 150.522C273.569 152.283 273.471 153.261 273.443 153.457L275.875 151.696C277.441 150.549 278.293 149.934 278.433 149.851C278.573 149.767 278.713 149.725 278.852 149.725C279.216 149.725 279.551 149.865 279.859 150.144C280.166 150.424 280.334 150.801 280.362 151.276C280.362 151.64 280.222 151.961 279.943 152.241C279.803 152.325 278.852 152.786 277.091 153.625C275.33 154.463 274.38 154.91 274.24 154.966L277.007 156.266L279.943 157.734C280.194 157.986 280.32 158.307 280.32 158.698C280.32 159.118 280.194 159.467 279.943 159.747C279.691 160.026 279.356 160.18 278.936 160.208C278.713 160.208 278.461 160.124 278.181 159.956C277.902 159.789 277.133 159.23 275.875 158.279L273.443 156.518C273.806 160.264 273.988 162.361 273.988 162.808C273.988 163.087 273.89 163.353 273.695 163.605C273.499 163.856 273.136 163.982 272.604 163.982C272.073 163.982 271.71 163.856 271.514 163.605C271.318 163.353 271.207 163.087 271.179 162.808C271.179 162.333 271.263 161.214 271.43 159.453C271.598 157.692 271.696 156.714 271.724 156.518L269.292 158.279C267.726 159.425 266.874 160.04 266.734 160.124C266.622 160.208 266.482 160.25 266.315 160.25C265.951 160.25 265.616 160.11 265.308 159.831C265.001 159.551 264.833 159.174 264.805 158.698C264.805 158.559 264.805 158.447 264.805 158.363C264.805 158.279 264.847 158.195 264.931 158.111C265.015 158.027 265.084 157.944 265.14 157.86C265.196 157.776 265.322 157.678 265.518 157.566C265.713 157.454 265.895 157.357 266.063 157.273C266.231 157.189 266.496 157.063 266.86 156.895C267.223 156.728 267.572 156.574 267.908 156.434C268.243 156.294 268.691 156.085 269.25 155.805C269.809 155.525 270.368 155.246 270.927 154.966L265.224 152.241C264.973 151.989 264.847 151.668 264.847 151.276C264.847 150.857 264.973 150.508 265.224 150.228C265.476 149.948 265.811 149.795 266.231 149.767C266.454 149.767 266.706 149.851 266.985 150.018C267.265 150.186 268.034 150.745 269.292 151.696L271.724 153.457Z" fill="white"/>
</g>
<g id="Group_10">
<path id="Vector_9" d="M295.466 138.319C295.466 138.04 295.522 137.718 295.634 137.355C295.746 136.991 295.913 136.81 296.137 136.81C296.165 136.81 297.171 136.74 299.156 136.6C301.141 136.46 302.161 136.376 302.217 136.348C302.553 136.348 302.72 136.474 302.72 136.726C302.72 136.977 302.245 138.976 301.295 142.722C301.071 143.673 300.833 144.651 300.582 145.657C300.33 146.664 300.121 147.419 299.953 147.922L299.785 148.719C299.785 148.802 299.869 148.76 300.037 148.593C301.407 147.475 302.818 146.915 304.272 146.915C306.005 146.915 307.403 147.558 308.465 148.844C309.528 150.13 310.073 151.752 310.101 153.709C310.101 156.812 308.996 159.621 306.788 162.137C304.579 164.653 302.203 165.911 299.659 165.911C298.262 165.911 296.99 165.38 295.843 164.318C294.697 163.255 294.11 161.536 294.082 159.16V158.782C294.082 158.195 294.194 157.385 294.418 156.35C294.641 155.316 295.326 152.562 296.472 148.09C297.87 142.582 298.569 139.661 298.569 139.326C298.569 138.99 298.038 138.794 296.976 138.739C296.836 138.739 296.724 138.739 296.64 138.739H296.431C296.151 138.739 295.969 138.739 295.885 138.739C295.802 138.739 295.704 138.697 295.592 138.613C295.48 138.529 295.438 138.431 295.466 138.319ZM306.494 151.822V151.57C306.494 149.501 305.642 148.467 303.936 148.467C303.461 148.467 302.972 148.579 302.469 148.802C301.966 149.026 301.504 149.32 301.085 149.683C300.666 150.046 300.302 150.382 299.995 150.689C299.687 150.997 299.436 151.304 299.24 151.612L298.988 151.947L298.108 155.554C297.493 157.958 297.185 159.663 297.185 160.669C297.185 162.011 297.521 163.018 298.192 163.689C298.639 164.136 299.198 164.359 299.869 164.359C300.792 164.359 301.728 163.912 302.678 163.018C303.377 162.375 303.936 161.592 304.356 160.669C304.775 159.747 305.236 158.279 305.74 156.266C306.243 154.254 306.494 152.772 306.494 151.822Z" fill="white"/>
</g>
<path id="Rectangle 29 (Stroke)" fill-rule="evenodd" clip-rule="evenodd" d="M319 130H223V171H319V130ZM220 127V174H322V127H220Z" fill="white"/>
<g id="Group_11">
<path id="Vector_10" d="M347.685 150.899C347.685 150.536 347.88 150.256 348.272 150.06H374.983C375.402 150.284 375.612 150.563 375.612 150.899C375.612 151.206 375.416 151.472 375.025 151.696L361.69 151.738H348.355C347.908 151.598 347.685 151.318 347.685 150.899ZM347.685 159.034C347.685 158.615 347.908 158.335 348.355 158.195H375.025C375.416 158.475 375.612 158.754 375.612 159.034C375.612 159.397 375.402 159.677 374.983 159.873H348.272C347.88 159.677 347.685 159.397 347.685 159.034Z" fill="white"/>
</g>
<g id="Group_12">
<path id="Vector_11" d="M408.983 165.45C408.479 165.366 406.676 165.324 403.573 165.324C400.33 165.324 398.457 165.366 397.954 165.45H397.577V163.521H398.877C399.436 163.521 399.813 163.521 400.009 163.521C400.205 163.521 400.442 163.493 400.722 163.437C401.001 163.381 401.197 163.311 401.309 163.227C401.421 163.143 401.518 163.032 401.602 162.892C401.63 162.836 401.644 162.081 401.644 160.627V158.531H390.784V156.602L397.116 146.915C401.393 140.43 403.559 137.173 403.615 137.145C403.671 137.089 403.965 137.061 404.496 137.061H405.25L405.502 137.313V156.602H409.36V158.531H405.502V160.669C405.502 161.815 405.502 162.486 405.502 162.682C405.502 162.878 405.586 163.046 405.754 163.185C405.977 163.381 406.774 163.493 408.144 163.521H409.36V165.45H408.983ZM401.896 156.602V142.596L392.713 156.56L397.283 156.602H401.896Z" fill="white"/>
</g>
<g id="Group_13">
<path id="Vector_12" d="M414.517 154.966C414.517 153.038 414.657 151.206 414.936 149.473C415.216 147.74 415.537 146.244 415.901 144.986C416.264 143.728 416.781 142.498 417.452 141.296C418.123 140.094 418.654 139.158 419.046 138.487C419.437 137.816 420.024 137.089 420.807 136.306C421.59 135.524 422.051 135.048 422.191 134.881C422.331 134.713 422.68 134.419 423.239 134H423.784H423.952C424.343 134 424.539 134.126 424.539 134.377C424.539 134.461 424.301 134.755 423.826 135.258C423.351 135.761 422.778 136.502 422.107 137.48C421.436 138.459 420.751 139.661 420.052 141.087C419.353 142.512 418.766 144.441 418.291 146.873C417.816 149.305 417.578 152.003 417.578 154.966C417.578 157.93 417.816 160.613 418.291 163.018C418.766 165.422 419.339 167.365 420.01 168.846C420.681 170.328 421.366 171.53 422.065 172.452C422.764 173.375 423.351 174.116 423.826 174.675C424.301 175.234 424.539 175.527 424.539 175.555C424.539 175.807 424.329 175.933 423.91 175.933H423.784H423.239L422.065 174.926C419.437 172.55 417.522 169.587 416.32 166.037C415.118 162.486 414.517 158.796 414.517 154.966Z" fill="white"/>
</g>
<g id="Group_14">
<path id="Vector_13" d="M428.27 158.866C428.27 156.043 429.333 153.359 431.457 150.815C433.582 148.271 435.972 146.985 438.628 146.957C440.053 146.957 441.311 147.642 442.402 149.012C442.849 148.173 443.492 147.754 444.331 147.754C444.694 147.754 445.015 147.866 445.295 148.089C445.575 148.313 445.714 148.593 445.714 148.928C445.714 149.292 445.197 151.528 444.163 155.637C443.128 159.747 442.597 162.067 442.569 162.598C442.569 163.297 442.667 163.758 442.863 163.982C443.059 164.206 443.352 164.331 443.743 164.359C443.995 164.331 444.275 164.206 444.582 163.982C445.169 163.423 445.742 162.081 446.301 159.956C446.469 159.397 446.609 159.104 446.721 159.076C446.777 159.048 446.916 159.034 447.14 159.034H447.308C447.839 159.034 448.104 159.16 448.104 159.411C448.104 159.579 448.035 159.956 447.895 160.543C447.755 161.131 447.475 161.885 447.056 162.808C446.637 163.73 446.19 164.429 445.714 164.905C445.351 165.268 444.904 165.561 444.372 165.785C444.149 165.841 443.813 165.869 443.366 165.869C442.416 165.869 441.619 165.659 440.976 165.24C440.333 164.821 439.914 164.387 439.718 163.94L439.466 163.311C439.438 163.283 439.382 163.297 439.299 163.353C439.243 163.409 439.187 163.465 439.131 163.521C437.481 165.086 435.804 165.869 434.099 165.869C432.561 165.869 431.206 165.31 430.031 164.192C428.857 163.073 428.27 161.298 428.27 158.866ZM441.605 151.696C441.605 151.528 441.535 151.22 441.395 150.773C441.255 150.326 440.934 149.837 440.431 149.306C439.928 148.774 439.285 148.495 438.502 148.467C437.523 148.467 436.587 148.9 435.692 149.767C434.798 150.633 434.099 151.766 433.596 153.163C432.785 155.372 432.212 157.664 431.876 160.04C431.876 160.124 431.876 160.278 431.876 160.502C431.876 160.725 431.863 160.893 431.835 161.005C431.835 162.263 432.086 163.129 432.589 163.605C433.093 164.08 433.694 164.331 434.392 164.359C435.455 164.359 436.503 163.898 437.537 162.976C438.572 162.053 439.187 161.34 439.382 160.837C439.438 160.725 439.816 159.23 440.515 156.35C441.214 153.471 441.577 151.919 441.605 151.696Z" fill="white"/>
</g>
<g id="Group_15">
<path id="Vector_14" d="M460.735 155.512C460.735 155.512 460.735 155.33 460.735 154.967C460.735 154.603 460.931 154.324 461.322 154.128H473.86V147.838L473.902 141.548C474.181 141.185 474.447 141.003 474.698 141.003C475.062 141.003 475.341 141.213 475.537 141.632V154.128H488.033C488.452 154.351 488.662 154.631 488.662 154.967C488.662 155.302 488.452 155.582 488.033 155.805H475.537V168.301C475.313 168.692 475.062 168.888 474.782 168.888H474.698H474.615C474.279 168.888 474.028 168.692 473.86 168.301V155.805H461.322C460.931 155.609 460.735 155.33 460.735 154.967V155.512Z" fill="white"/>
</g>
<g id="Group_16">
<path id="Vector_15" d="M503.389 138.319C503.389 138.04 503.445 137.718 503.557 137.355C503.668 136.991 503.836 136.81 504.06 136.81C504.088 136.81 505.094 136.74 507.079 136.6C509.064 136.46 510.084 136.376 510.14 136.348C510.476 136.348 510.643 136.474 510.643 136.726C510.643 136.977 510.168 138.976 509.218 142.722C508.994 143.673 508.756 144.651 508.505 145.657C508.253 146.664 508.043 147.419 507.876 147.922L507.708 148.719C507.708 148.802 507.792 148.76 507.96 148.593C509.329 147.475 510.741 146.915 512.195 146.915C513.928 146.915 515.326 147.558 516.388 148.844C517.45 150.13 517.995 151.752 518.023 153.709C518.023 156.812 516.919 159.621 514.711 162.137C512.502 164.653 510.126 165.911 507.582 165.911C506.184 165.911 504.912 165.38 503.766 164.318C502.62 163.255 502.033 161.536 502.005 159.16V158.782C502.005 158.195 502.117 157.385 502.341 156.35C502.564 155.316 503.249 152.562 504.395 148.09C505.793 142.582 506.492 139.661 506.492 139.326C506.492 138.99 505.961 138.794 504.898 138.739C504.759 138.739 504.647 138.739 504.563 138.739H504.353C504.074 138.739 503.892 138.739 503.808 138.739C503.724 138.739 503.627 138.697 503.515 138.613C503.403 138.529 503.361 138.431 503.389 138.319ZM514.417 151.822V151.57C514.417 149.501 513.565 148.467 511.859 148.467C511.384 148.467 510.895 148.579 510.392 148.802C509.888 149.026 509.427 149.32 509.008 149.683C508.589 150.046 508.225 150.382 507.918 150.689C507.61 150.997 507.359 151.304 507.163 151.612L506.911 151.947L506.031 155.554C505.416 157.958 505.108 159.663 505.108 160.669C505.108 162.011 505.444 163.018 506.115 163.689C506.562 164.136 507.121 164.359 507.792 164.359C508.714 164.359 509.651 163.912 510.601 163.018C511.3 162.375 511.859 161.592 512.279 160.669C512.698 159.747 513.159 158.279 513.662 156.266C514.166 154.254 514.417 152.772 514.417 151.822Z" fill="white"/>
</g>
<g id="Group_17">
<path id="Vector_16" d="M520.834 134.042L521.002 134C521.141 134 521.281 134 521.421 134H521.924L523.098 135.006C525.726 137.383 527.641 140.346 528.843 143.896C530.045 147.446 530.646 151.137 530.646 154.966C530.646 156.867 530.506 158.698 530.227 160.46C529.947 162.221 529.626 163.716 529.262 164.946C528.899 166.176 528.382 167.406 527.711 168.636C527.04 169.867 526.509 170.803 526.117 171.446C525.726 172.089 525.153 172.802 524.398 173.585C523.643 174.367 523.196 174.829 523.056 174.968C522.917 175.108 522.595 175.374 522.092 175.765C522.008 175.849 521.952 175.905 521.924 175.933H521.421C521.197 175.933 521.044 175.933 520.96 175.933C520.876 175.933 520.806 175.891 520.75 175.807C520.694 175.723 520.652 175.597 520.624 175.43C520.652 175.402 520.806 175.22 521.086 174.884C525.419 170.384 527.585 163.744 527.585 154.966C527.585 146.188 525.419 139.549 521.086 135.048C520.806 134.713 520.652 134.531 520.624 134.503C520.624 134.28 520.694 134.126 520.834 134.042Z" fill="white"/>
</g>
<g id="Group_18">
<path id="Vector_17" d="M546.299 155.512C546.299 155.512 546.299 155.33 546.299 154.967C546.299 154.603 546.495 154.324 546.886 154.128H559.424V147.838L559.466 141.548C559.745 141.185 560.011 141.003 560.262 141.003C560.626 141.003 560.905 141.213 561.101 141.632V154.128H573.597C574.016 154.351 574.226 154.631 574.226 154.967C574.226 155.302 574.016 155.582 573.597 155.805H561.101V168.301C560.877 168.692 560.626 168.888 560.346 168.888H560.262H560.179C559.843 168.888 559.592 168.692 559.424 168.301V155.805H546.886C546.495 155.609 546.299 155.33 546.299 154.967V155.512Z" fill="white"/>
</g>
<g id="Group_19">
<path id="Vector_18" d="M591.218 146.035C590.463 146.035 589.876 145.797 589.457 145.322C589.037 144.847 588.814 144.232 588.786 143.477C588.786 141.939 589.457 140.57 590.799 139.367C592.14 138.165 593.762 137.564 595.663 137.564C596.641 137.564 597.256 137.578 597.508 137.606C599.576 137.942 601.156 138.683 602.246 139.829C603.336 140.975 603.896 142.219 603.923 143.561C603.923 145.014 603.448 146.426 602.498 147.796C601.547 149.166 600.233 150.158 598.556 150.773L598.43 150.857C598.43 150.885 598.556 150.927 598.808 150.983C599.059 151.039 599.465 151.165 600.024 151.36C600.583 151.556 601.114 151.849 601.617 152.241C603.909 153.722 605.056 155.679 605.056 158.111C605.056 160.32 604.189 162.249 602.456 163.898C600.723 165.548 598.528 166.372 595.872 166.372C593.636 166.372 591.707 165.771 590.086 164.569C588.464 163.367 587.654 161.843 587.654 159.998C587.654 159.216 587.905 158.587 588.408 158.111C588.912 157.636 589.541 157.385 590.295 157.357C591.078 157.357 591.721 157.608 592.224 158.111C592.727 158.615 592.979 159.244 592.979 159.998C592.979 160.306 592.937 160.585 592.853 160.837C592.769 161.089 592.672 161.312 592.56 161.508C592.448 161.704 592.294 161.871 592.098 162.011C591.903 162.151 591.735 162.263 591.595 162.347C591.455 162.431 591.316 162.486 591.176 162.514C591.036 162.542 590.924 162.584 590.84 162.64L590.673 162.682C592.098 163.94 593.832 164.569 595.872 164.569C597.41 164.569 598.57 163.828 599.353 162.347C599.828 161.424 600.066 160.012 600.066 158.111V157.273C600.066 154.617 599.171 152.842 597.382 151.947C596.963 151.78 596.11 151.682 594.824 151.654L593.063 151.612L592.937 151.528C592.881 151.444 592.853 151.22 592.853 150.857C592.853 150.354 592.965 150.102 593.189 150.102C593.971 150.102 594.782 150.032 595.621 149.893C596.571 149.753 597.438 149.166 598.221 148.131C599.003 147.097 599.395 145.532 599.395 143.435V143.1C599.395 141.506 598.906 140.402 597.927 139.787C597.312 139.395 596.655 139.2 595.956 139.2C595.062 139.2 594.237 139.354 593.482 139.661C592.727 139.969 592.196 140.29 591.889 140.625C591.581 140.961 591.428 141.129 591.428 141.129H591.553C591.637 141.157 591.749 141.185 591.889 141.213C592.029 141.24 592.168 141.31 592.308 141.422C592.448 141.534 592.616 141.632 592.811 141.716C593.007 141.8 593.147 141.953 593.231 142.177C593.314 142.401 593.426 142.61 593.566 142.806C593.706 143.002 593.748 143.281 593.692 143.645C593.692 144.26 593.496 144.805 593.105 145.28C592.713 145.755 592.084 146.007 591.218 146.035Z" fill="white"/>
</g>
</g>
<g id="Group 71">
<g id="Group_20">
<path id="Vector_19" d="M218.735 313.359C220.384 313.359 221.894 312.632 223.264 311.179C224.633 309.725 225.332 308.034 225.36 306.105C225.36 304.344 224.633 303.128 223.18 302.457C220.216 301.702 218.315 301.185 217.477 300.905C216.638 300.626 216.051 300.346 215.716 300.066C214.038 298.892 213.2 297.201 213.2 294.993C213.2 293.287 213.647 291.736 214.542 290.338C215.436 288.94 216.345 287.892 217.267 287.193C218.078 286.494 219.056 285.935 220.202 285.516C221.349 285.096 222.243 284.873 222.886 284.845H223.347H223.641C226.325 284.845 228.268 285.739 229.47 287.529C229.498 287.529 229.679 287.347 230.015 286.983C230.35 286.62 230.714 286.215 231.105 285.767C231.496 285.32 231.776 285.013 231.944 284.845C231.972 284.845 232.027 284.845 232.111 284.845C232.195 284.845 232.265 284.831 232.321 284.803C232.684 284.803 232.866 284.901 232.866 285.096C232.866 285.292 232.475 286.983 231.692 290.17C230.909 293.357 230.462 295.007 230.35 295.118C230.238 295.23 230.015 295.272 229.679 295.244C229.12 295.244 228.841 295.118 228.841 294.867C228.841 294.699 228.855 294.559 228.883 294.448C228.883 294.364 228.896 294.098 228.924 293.651C228.952 293.203 228.98 292.84 229.008 292.561C229.008 291.61 228.883 290.785 228.631 290.086C228.379 289.388 228.128 288.87 227.876 288.535C227.625 288.2 227.275 287.85 226.828 287.487C225.821 286.9 224.675 286.606 223.389 286.606C221.796 286.606 220.314 287.249 218.944 288.535C217.575 289.821 216.876 291.303 216.848 292.98C216.848 293.819 217.057 294.545 217.477 295.16C217.896 295.775 218.469 296.209 219.196 296.46C219.308 296.516 220.286 296.782 222.131 297.257C223.976 297.732 224.913 297.984 224.941 298.012C225.891 298.319 226.814 298.99 227.708 300.025C228.603 301.059 229.05 302.457 229.05 304.218C229.05 304.945 228.938 305.727 228.715 306.566C228.575 307.181 228.323 307.866 227.96 308.621C227.597 309.376 227.093 310.2 226.45 311.095C225.807 311.989 224.885 312.828 223.683 313.611C222.481 314.394 221.167 314.925 219.741 315.204C219.406 315.26 218.93 315.288 218.315 315.288C215.548 315.288 213.395 314.519 211.858 312.982L211.438 312.521L210.264 313.82C209.621 314.575 209.23 315.009 209.09 315.12C208.95 315.232 208.769 315.288 208.545 315.288C208.182 315.288 208 315.176 208 314.953C208 314.869 208.811 311.584 210.432 305.098C210.488 304.931 210.768 304.847 211.271 304.847H211.816C211.984 305.015 212.067 305.168 212.067 305.308C212.067 305.364 212.054 305.49 212.026 305.685C211.998 305.881 211.942 306.175 211.858 306.566C211.774 306.957 211.746 307.419 211.774 307.95C211.83 309.04 212.081 309.963 212.529 310.717C212.976 311.472 213.577 312.031 214.332 312.395C215.087 312.758 215.813 313.01 216.512 313.15C217.211 313.289 217.952 313.359 218.735 313.359Z" fill="white"/>
</g>
<g id="Group_21">
<path id="Vector_20" d="M246.862 299.815C246.862 299.451 247.058 299.172 247.449 298.976H274.161C274.58 299.2 274.79 299.479 274.79 299.815C274.79 300.122 274.594 300.388 274.202 300.612L260.868 300.653H247.533C247.086 300.514 246.862 300.234 246.862 299.815ZM246.862 307.95C246.862 307.53 247.086 307.251 247.533 307.111H274.202C274.594 307.391 274.79 307.67 274.79 307.95C274.79 308.313 274.58 308.593 274.161 308.788H247.449C247.058 308.593 246.862 308.313 246.862 307.95Z" fill="white"/>
</g>
<g id="Group_22">
<g id="Group_23">
<g id="Group_24">
<path id="Vector_21" d="M295.162 303.84C295.162 292.798 298.46 284.426 305.058 278.723H306.232C306.4 278.89 306.483 279.016 306.483 279.1C306.483 279.212 306.218 279.561 305.687 280.148C305.156 280.735 304.513 281.616 303.758 282.79C303.003 283.964 302.234 285.418 301.452 287.151C300.669 288.884 300.012 291.219 299.481 294.154C298.95 297.089 298.684 300.332 298.684 303.882C298.684 307.405 298.95 310.634 299.481 313.569C300.012 316.504 300.655 318.824 301.41 320.53C302.164 322.235 302.933 323.689 303.716 324.891C304.499 326.093 305.156 326.987 305.687 327.574C306.218 328.161 306.483 328.511 306.483 328.623C306.483 328.707 306.4 328.832 306.232 329H305.058C304.247 328.329 303.464 327.588 302.71 326.778C301.955 325.967 301.102 324.807 300.152 323.297C299.201 321.788 298.376 320.166 297.678 318.433C296.979 316.7 296.392 314.561 295.916 312.017C295.441 309.473 295.19 306.748 295.162 303.84Z" fill="white"/>
</g>
<g id="Group_25">
<g id="Group_26">
<path id="Vector_22" d="M313.319 294.951C312.564 294.951 311.977 294.713 311.558 294.238C311.139 293.763 310.915 293.148 310.887 292.393C310.887 290.855 311.558 289.485 312.9 288.283C314.242 287.081 315.863 286.48 317.764 286.48C318.742 286.48 319.357 286.494 319.609 286.522C321.678 286.858 323.257 287.598 324.347 288.745C325.438 289.891 325.997 291.135 326.025 292.477C326.025 293.93 325.55 295.342 324.599 296.712C323.649 298.082 322.335 299.074 320.657 299.689L320.532 299.773C320.532 299.801 320.657 299.843 320.909 299.899C321.161 299.955 321.566 300.08 322.125 300.276C322.684 300.472 323.215 300.765 323.718 301.157C326.011 302.638 327.157 304.595 327.157 307.027C327.157 309.236 326.29 311.165 324.557 312.814C322.824 314.463 320.629 315.288 317.974 315.288C315.737 315.288 313.808 314.687 312.187 313.485C310.566 312.283 309.755 310.759 309.755 308.914C309.755 308.132 310.006 307.503 310.51 307.027C311.013 306.552 311.642 306.3 312.397 306.273C313.179 306.273 313.822 306.524 314.326 307.027C314.829 307.531 315.08 308.16 315.08 308.914C315.08 309.222 315.038 309.501 314.955 309.753C314.871 310.005 314.773 310.228 314.661 310.424C314.549 310.62 314.395 310.787 314.2 310.927C314.004 311.067 313.836 311.179 313.697 311.263C313.557 311.346 313.417 311.402 313.277 311.43C313.137 311.458 313.026 311.5 312.942 311.556L312.774 311.598C314.2 312.856 315.933 313.485 317.974 313.485C319.511 313.485 320.671 312.744 321.454 311.263C321.929 310.34 322.167 308.928 322.167 307.027V306.189C322.167 303.533 321.272 301.758 319.483 300.863C319.064 300.695 318.211 300.598 316.925 300.57L315.164 300.528L315.038 300.444C314.983 300.36 314.955 300.136 314.955 299.773C314.955 299.27 315.066 299.018 315.29 299.018C316.073 299.018 316.883 298.948 317.722 298.809C318.673 298.669 319.539 298.082 320.322 297.047C321.105 296.013 321.496 294.448 321.496 292.351V292.015C321.496 290.422 321.007 289.318 320.028 288.703C319.413 288.311 318.756 288.116 318.058 288.116C317.163 288.116 316.338 288.269 315.584 288.577C314.829 288.884 314.298 289.206 313.99 289.541C313.683 289.877 313.529 290.045 313.529 290.045H313.655C313.738 290.073 313.85 290.1 313.99 290.128C314.13 290.156 314.27 290.226 314.409 290.338C314.549 290.45 314.717 290.548 314.913 290.632C315.108 290.715 315.248 290.869 315.332 291.093C315.416 291.317 315.528 291.526 315.667 291.722C315.807 291.918 315.849 292.197 315.793 292.561C315.793 293.176 315.598 293.721 315.206 294.196C314.815 294.671 314.186 294.923 313.319 294.951Z" fill="white"/>
</g>
<g id="Group_27">
<g id="Group_28">
<path id="Vector_23" d="M331.45 290.021C331.45 290.021 331.45 289.893 331.45 289.636C331.45 289.379 331.589 289.181 331.865 289.043H349.09C349.386 289.201 349.535 289.399 349.535 289.636C349.535 289.873 349.386 290.071 349.09 290.229H331.865C331.589 290.091 331.45 289.893 331.45 289.636V290.021Z" fill="white"/>
</g>
<g id="Group_29">
<path id="Vector_24" d="M358.34 279.912L357.954 280.06C357.678 280.159 357.282 280.258 356.768 280.356C356.255 280.455 355.681 280.524 355.049 280.564H354.486V279.2H355.049C355.978 279.161 356.838 279.013 357.628 278.756C358.419 278.499 358.972 278.261 359.288 278.044C359.605 277.827 359.881 277.609 360.118 277.392C360.158 277.333 360.277 277.303 360.474 277.303C360.652 277.303 360.82 277.362 360.978 277.481V286.345L361.008 295.239C361.146 295.377 361.265 295.466 361.364 295.506C361.462 295.545 361.7 295.585 362.075 295.624C362.451 295.664 363.063 295.684 363.913 295.684H364.684V297.047H364.358C363.943 296.988 362.372 296.959 359.644 296.959C356.956 296.959 355.405 296.988 354.99 297.047H354.634V295.684H355.405C355.839 295.684 356.215 295.684 356.531 295.684C356.847 295.684 357.094 295.674 357.272 295.654C357.45 295.634 357.608 295.605 357.747 295.565C357.885 295.526 357.964 295.506 357.984 295.506C358.004 295.506 358.063 295.456 358.162 295.358C358.261 295.259 358.32 295.219 358.34 295.239V279.912Z" fill="white"/>
</g>
</g>
</g>
<g id="Group_30">
<path id="Vector_25" d="M387.871 302.373C387.508 298.627 387.326 296.53 387.326 296.083C387.326 295.58 387.661 295.188 388.332 294.909C388.36 294.909 388.43 294.909 388.542 294.909C388.654 294.909 388.738 294.895 388.794 294.867C389.129 294.895 389.437 295.02 389.716 295.244C389.996 295.468 390.135 295.747 390.135 296.083C390.135 296.558 390.052 297.676 389.884 299.437C389.716 301.199 389.618 302.177 389.59 302.373L392.022 300.612C393.588 299.465 394.441 298.85 394.58 298.766C394.72 298.683 394.86 298.641 395 298.641C395.363 298.641 395.699 298.78 396.006 299.06C396.314 299.34 396.481 299.717 396.509 300.192C396.509 300.556 396.369 300.877 396.09 301.157C395.95 301.241 395 301.702 393.238 302.54C391.477 303.379 390.527 303.826 390.387 303.882L393.155 305.182L396.09 306.65C396.341 306.901 396.467 307.223 396.467 307.614C396.467 308.034 396.341 308.383 396.09 308.663C395.838 308.942 395.503 309.096 395.083 309.124C394.86 309.124 394.608 309.04 394.329 308.872C394.049 308.705 393.28 308.145 392.022 307.195L389.59 305.434C389.954 309.18 390.135 311.276 390.135 311.724C390.135 312.003 390.038 312.269 389.842 312.52C389.646 312.772 389.283 312.898 388.752 312.898C388.22 312.898 387.857 312.772 387.661 312.52C387.466 312.269 387.354 312.003 387.326 311.724C387.326 311.248 387.41 310.13 387.578 308.369C387.745 306.608 387.843 305.629 387.871 305.434L385.439 307.195C383.873 308.341 383.021 308.956 382.881 309.04C382.769 309.124 382.629 309.166 382.462 309.166C382.098 309.166 381.763 309.026 381.455 308.746C381.148 308.467 380.98 308.09 380.952 307.614C380.952 307.475 380.952 307.363 380.952 307.279C380.952 307.195 380.994 307.111 381.078 307.027C381.162 306.943 381.232 306.86 381.288 306.776C381.344 306.692 381.469 306.594 381.665 306.482C381.861 306.37 382.042 306.272 382.21 306.189C382.378 306.105 382.643 305.979 383.007 305.811C383.37 305.643 383.72 305.49 384.055 305.35C384.391 305.21 384.838 305 385.397 304.721C385.956 304.441 386.515 304.162 387.074 303.882L381.371 301.157C381.12 300.905 380.994 300.584 380.994 300.192C380.994 299.773 381.12 299.423 381.371 299.144C381.623 298.864 381.959 298.711 382.378 298.683C382.602 298.683 382.853 298.766 383.133 298.934C383.412 299.102 384.181 299.661 385.439 300.612L387.871 302.373Z" fill="white"/>
</g>
<g id="Group_31">
<g id="Group_32">
<path id="Vector_26" d="M427.925 314.366C427.422 314.282 425.619 314.24 422.516 314.24C419.273 314.24 417.4 314.282 416.897 314.366H416.52V312.437H417.82C418.379 312.437 418.756 312.437 418.952 312.437C419.147 312.437 419.385 312.409 419.665 312.353C419.944 312.297 420.14 312.227 420.252 312.143C420.364 312.059 420.461 311.947 420.545 311.808C420.573 311.752 420.587 310.997 420.587 309.543V307.447H409.727V305.518L416.058 295.831C420.336 289.346 422.502 286.089 422.558 286.061C422.614 286.005 422.907 285.977 423.439 285.977H424.193L424.445 286.229V305.518H428.303V307.447H424.445V309.585C424.445 310.731 424.445 311.402 424.445 311.598C424.445 311.794 424.529 311.961 424.697 312.101C424.92 312.297 425.717 312.409 427.087 312.437H428.303V314.366H427.925ZM420.839 305.518V291.512L411.655 305.476L416.226 305.518H420.839Z" fill="white"/>
</g>
<g id="Group_33">
<g id="Group_34">
<path id="Vector_27" d="M432.009 290.021C432.009 290.021 432.009 289.893 432.009 289.636C432.009 289.379 432.148 289.181 432.424 289.043H449.649C449.945 289.201 450.094 289.399 450.094 289.636C450.094 289.873 449.945 290.071 449.649 290.229H432.424C432.148 290.09 432.009 289.893 432.009 289.636V290.021Z" fill="white"/>
</g>
<g id="Group_35">
<path id="Vector_28" d="M458.899 279.912L458.513 280.06C458.237 280.159 457.841 280.257 457.327 280.356C456.814 280.455 456.24 280.524 455.608 280.564H455.045V279.2H455.608C456.537 279.161 457.397 279.012 458.187 278.755C458.978 278.498 459.531 278.261 459.847 278.044C460.164 277.826 460.44 277.609 460.678 277.392C460.717 277.332 460.836 277.303 461.033 277.303C461.211 277.303 461.379 277.362 461.537 277.481V286.345L461.567 295.239C461.705 295.377 461.824 295.466 461.923 295.506C462.021 295.545 462.259 295.585 462.634 295.624C463.01 295.664 463.622 295.684 464.472 295.684H465.243V297.047H464.917C464.502 296.988 462.931 296.958 460.203 296.958C457.515 296.958 455.964 296.988 455.549 297.047H455.193V295.684H455.964C456.399 295.684 456.774 295.684 457.09 295.684C457.407 295.684 457.654 295.674 457.831 295.654C458.009 295.634 458.167 295.604 458.306 295.565C458.444 295.525 458.523 295.506 458.543 295.506C458.563 295.506 458.622 295.456 458.721 295.357C458.82 295.259 458.879 295.219 458.899 295.239V279.912Z" fill="white"/>
</g>
</g>
</g>
<g id="Group_36">
<path id="Vector_29" d="M482.3 303.84C482.3 314.911 479.001 323.297 472.403 329H471.858C471.495 329 471.257 328.972 471.146 328.916C471.034 328.86 470.978 328.734 470.978 328.539C471.034 328.399 471.383 327.966 472.026 327.239C472.669 326.512 473.34 325.562 474.039 324.387C474.738 323.213 475.465 321.774 476.219 320.068C476.974 318.363 477.589 316.085 478.064 313.233C478.54 310.382 478.777 307.265 478.777 303.882C478.777 300.5 478.54 297.383 478.064 294.531C477.589 291.68 476.974 289.402 476.219 287.696C475.465 285.991 474.738 284.537 474.039 283.335C473.34 282.133 472.669 281.197 472.026 280.526C471.383 279.855 471.034 279.408 470.978 279.184C470.978 278.876 471.187 278.723 471.607 278.723H471.858H472.403C475.982 281.714 478.596 285.684 480.245 290.632C481.615 294.573 482.3 298.976 482.3 303.84Z" fill="white"/>
</g>
</g>
<g id="Group_37">
<g id="Group_38">
<path id="Vector_30" d="M491.205 281.718C491.205 281.718 491.205 281.59 491.205 281.333C491.205 281.076 491.344 280.878 491.62 280.74H508.845C509.141 280.898 509.29 281.096 509.29 281.333C509.29 281.57 509.141 281.768 508.845 281.926H491.62C491.344 281.788 491.205 281.59 491.205 281.333V281.718Z" fill="white"/>
</g>
<g id="Group_39">
<path id="Vector_31" d="M518.095 271.609L517.709 271.757C517.433 271.856 517.037 271.955 516.524 272.054C516.01 272.152 515.436 272.222 514.804 272.261H514.241V270.897H514.804C515.733 270.858 516.593 270.71 517.383 270.453C518.174 270.196 518.727 269.959 519.043 269.741C519.36 269.524 519.636 269.306 519.874 269.089C519.913 269.03 520.032 269 520.229 269C520.407 269 520.575 269.059 520.733 269.178V278.042L520.763 286.936C520.901 287.074 521.02 287.163 521.119 287.203C521.218 287.242 521.455 287.282 521.83 287.321C522.206 287.361 522.818 287.381 523.668 287.381H524.439V288.745H524.113C523.698 288.685 522.127 288.656 519.399 288.656C516.711 288.656 515.16 288.685 514.745 288.745H514.389V287.381H515.16C515.595 287.381 515.97 287.381 516.286 287.381C516.603 287.381 516.85 287.371 517.027 287.351C517.205 287.331 517.363 287.302 517.502 287.262C517.64 287.223 517.719 287.203 517.739 287.203C517.759 287.203 517.818 287.153 517.917 287.055C518.016 286.956 518.075 286.916 518.095 286.936V271.609Z" fill="white"/>
</g>
</g>
</g>
<g id="Group_40">
<path id="Vector_32" d="M547.626 302.373C547.263 298.627 547.081 296.53 547.081 296.083C547.081 295.58 547.417 295.188 548.087 294.909C548.115 294.909 548.185 294.909 548.297 294.909C548.409 294.909 548.493 294.895 548.549 294.867C548.884 294.895 549.192 295.02 549.471 295.244C549.751 295.468 549.891 295.747 549.891 296.083C549.891 296.558 549.807 297.676 549.639 299.437C549.471 301.199 549.373 302.177 549.345 302.373L551.778 300.612C553.343 299.465 554.196 298.85 554.335 298.766C554.475 298.683 554.615 298.641 554.755 298.641C555.118 298.641 555.454 298.78 555.761 299.06C556.069 299.34 556.236 299.717 556.264 300.192C556.264 300.556 556.125 300.877 555.845 301.157C555.705 301.241 554.755 301.702 552.994 302.54C551.232 303.379 550.282 303.826 550.142 303.882L552.91 305.182L555.845 306.65C556.097 306.901 556.222 307.223 556.222 307.614C556.222 308.034 556.097 308.383 555.845 308.663C555.593 308.942 555.258 309.096 554.839 309.124C554.615 309.124 554.363 309.04 554.084 308.872C553.804 308.705 553.036 308.145 551.778 307.195L549.345 305.434C549.709 309.18 549.891 311.276 549.891 311.724C549.891 312.003 549.793 312.269 549.597 312.52C549.401 312.772 549.038 312.898 548.507 312.898C547.976 312.898 547.612 312.772 547.417 312.52C547.221 312.269 547.109 312.003 547.081 311.724C547.081 311.248 547.165 310.13 547.333 308.369C547.5 306.608 547.598 305.629 547.626 305.434L545.194 307.195C543.629 308.341 542.776 308.956 542.636 309.04C542.524 309.124 542.385 309.166 542.217 309.166C541.853 309.166 541.518 309.026 541.21 308.746C540.903 308.467 540.735 308.09 540.707 307.614C540.707 307.475 540.707 307.363 540.707 307.279C540.707 307.195 540.749 307.111 540.833 307.027C540.917 306.943 540.987 306.86 541.043 306.776C541.099 306.692 541.224 306.594 541.42 306.482C541.616 306.37 541.798 306.272 541.965 306.189C542.133 306.105 542.399 305.979 542.762 305.811C543.125 305.643 543.475 305.49 543.81 305.35C544.146 305.21 544.593 305 545.152 304.721C545.711 304.441 546.27 304.162 546.829 303.882L541.127 301.157C540.875 300.905 540.749 300.584 540.749 300.192C540.749 299.773 540.875 299.423 541.127 299.144C541.378 298.864 541.714 298.711 542.133 298.683C542.357 298.683 542.608 298.766 542.888 298.934C543.167 299.102 543.936 299.661 545.194 300.612L547.626 302.373Z" fill="white"/>
</g>
<g id="Group_41">
<g id="Group_42">
<path id="Vector_33" d="M574.68 303.84C574.68 292.798 577.979 284.426 584.576 278.723H585.75C585.918 278.89 586.002 279.016 586.002 279.1C586.002 279.212 585.736 279.561 585.205 280.148C584.674 280.735 584.031 281.616 583.276 282.79C582.521 283.964 581.753 285.418 580.97 287.151C580.187 288.884 579.53 291.219 578.999 294.154C578.468 297.089 578.202 300.332 578.202 303.882C578.202 307.405 578.468 310.634 578.999 313.569C579.53 316.504 580.173 318.824 580.928 320.53C581.683 322.235 582.451 323.689 583.234 324.891C584.017 326.093 584.674 326.987 585.205 327.574C585.736 328.161 586.002 328.511 586.002 328.623C586.002 328.707 585.918 328.832 585.75 329H584.576C583.765 328.329 582.983 327.588 582.228 326.778C581.473 325.967 580.62 324.807 579.67 323.297C578.719 321.788 577.895 320.166 577.196 318.433C576.497 316.7 575.91 314.561 575.435 312.017C574.959 309.473 574.708 306.748 574.68 303.84Z" fill="white"/>
</g>
<g id="Group_43">
<path id="Vector_34" d="M616.135 294.951C615.38 294.951 614.793 294.713 614.374 294.238C613.955 293.763 613.731 293.148 613.703 292.393C613.703 290.855 614.374 289.485 615.716 288.283C617.058 287.081 618.679 286.48 620.58 286.48C621.558 286.48 622.173 286.494 622.425 286.522C624.494 286.858 626.073 287.598 627.163 288.745C628.254 289.891 628.813 291.135 628.841 292.477C628.841 293.93 628.365 295.342 627.415 296.712C626.465 298.082 625.151 299.074 623.473 299.689L623.348 299.773C623.348 299.801 623.473 299.843 623.725 299.899C623.977 299.955 624.382 300.08 624.941 300.276C625.5 300.472 626.031 300.765 626.534 301.157C628.827 302.638 629.973 304.595 629.973 307.027C629.973 309.236 629.106 311.165 627.373 312.814C625.64 314.463 623.445 315.288 620.79 315.288C618.553 315.288 616.624 314.687 615.003 313.485C613.382 312.283 612.571 310.759 612.571 308.914C612.571 308.132 612.822 307.503 613.326 307.027C613.829 306.552 614.458 306.3 615.213 306.273C615.995 306.273 616.638 306.524 617.141 307.027C617.645 307.531 617.896 308.16 617.896 308.914C617.896 309.222 617.854 309.501 617.77 309.753C617.687 310.005 617.589 310.228 617.477 310.424C617.365 310.62 617.211 310.787 617.016 310.927C616.82 311.067 616.652 311.179 616.512 311.263C616.373 311.346 616.233 311.402 616.093 311.43C615.953 311.458 615.842 311.5 615.758 311.556L615.59 311.598C617.016 312.856 618.749 313.485 620.79 313.485C622.327 313.485 623.487 312.744 624.27 311.263C624.745 310.34 624.983 308.928 624.983 307.027V306.189C624.983 303.533 624.088 301.758 622.299 300.863C621.88 300.695 621.027 300.598 619.741 300.57L617.98 300.528L617.854 300.444C617.798 300.36 617.77 300.136 617.77 299.773C617.77 299.27 617.882 299.018 618.106 299.018C618.889 299.018 619.699 298.948 620.538 298.809C621.489 298.669 622.355 298.082 623.138 297.047C623.921 296.013 624.312 294.448 624.312 292.351V292.015C624.312 290.422 623.823 289.318 622.844 288.703C622.229 288.311 621.572 288.116 620.873 288.116C619.979 288.116 619.154 288.269 618.399 288.577C617.645 288.884 617.114 289.206 616.806 289.541C616.499 289.877 616.345 290.045 616.345 290.045H616.471C616.554 290.073 616.666 290.1 616.806 290.128C616.946 290.156 617.086 290.226 617.225 290.338C617.365 290.45 617.533 290.548 617.729 290.632C617.924 290.715 618.064 290.869 618.148 291.093C618.232 291.317 618.344 291.526 618.483 291.722C618.623 291.918 618.665 292.197 618.609 292.561C618.609 293.176 618.413 293.721 618.022 294.196C617.631 294.671 617.002 294.923 616.135 294.951Z" fill="white"/>
</g>
<path id="Rectangle 30 (Stroke)" fill-rule="evenodd" clip-rule="evenodd" d="M643 277H599V321H643V277ZM596 274V324H646V274H596Z" fill="white"/>
<g id="Group_44">
<g id="Group_45">
<g id="Group_46">
<path id="Vector_35" d="M657.56 290.021C657.56 290.021 657.56 289.893 657.56 289.636C657.56 289.379 657.698 289.181 657.975 289.043H675.199C675.496 289.201 675.644 289.399 675.644 289.636C675.644 289.873 675.496 290.071 675.199 290.229H657.975C657.698 290.09 657.56 289.893 657.56 289.636V290.021Z" fill="white"/>
</g>
<g id="Group_47">
<path id="Vector_36" d="M684.449 279.912L684.064 280.06C683.787 280.159 683.392 280.257 682.878 280.356C682.364 280.455 681.791 280.524 681.158 280.564H680.595V279.2H681.158C682.087 279.161 682.947 279.012 683.737 278.755C684.528 278.498 685.081 278.261 685.398 278.044C685.714 277.826 685.991 277.609 686.228 277.392C686.267 277.332 686.386 277.303 686.584 277.303C686.761 277.303 686.929 277.362 687.088 277.481V286.345L687.117 295.239C687.256 295.377 687.374 295.466 687.473 295.506C687.572 295.545 687.809 295.585 688.184 295.624C688.56 295.664 689.173 295.684 690.023 295.684H690.793V297.047H690.467C690.052 296.988 688.481 296.958 685.753 296.958C683.066 296.958 681.514 296.988 681.099 297.047H680.743V295.684H681.514C681.949 295.684 682.324 295.684 682.641 295.684C682.957 295.684 683.204 295.674 683.382 295.654C683.56 295.634 683.718 295.604 683.856 295.565C683.994 295.525 684.073 295.506 684.093 295.506C684.113 295.506 684.172 295.456 684.271 295.357C684.37 295.259 684.429 295.219 684.449 295.239V279.912Z" fill="white"/>
</g>
</g>
</g>
<g id="Group_48">
<path id="Vector_37" d="M713.98 302.373C713.617 298.627 713.435 296.53 713.435 296.083C713.435 295.58 713.771 295.188 714.441 294.909C714.469 294.909 714.539 294.909 714.651 294.909C714.763 294.909 714.847 294.895 714.903 294.867C715.238 294.895 715.546 295.02 715.825 295.244C716.105 295.468 716.245 295.747 716.245 296.083C716.245 296.558 716.161 297.676 715.993 299.437C715.825 301.199 715.727 302.177 715.699 302.373L718.132 300.612C719.697 299.465 720.55 298.85 720.689 298.766C720.829 298.683 720.969 298.641 721.109 298.641C721.472 298.641 721.808 298.78 722.115 299.06C722.423 299.34 722.59 299.717 722.618 300.192C722.618 300.556 722.479 300.877 722.199 301.157C722.059 301.241 721.109 301.702 719.348 302.54C717.586 303.379 716.636 303.826 716.496 303.882L719.264 305.182L722.199 306.65C722.451 306.901 722.576 307.223 722.576 307.614C722.576 308.034 722.451 308.383 722.199 308.663C721.947 308.942 721.612 309.096 721.193 309.124C720.969 309.124 720.717 309.04 720.438 308.872C720.158 308.705 719.39 308.145 718.132 307.195L715.699 305.434C716.063 309.18 716.245 311.276 716.245 311.724C716.245 312.003 716.147 312.269 715.951 312.52C715.755 312.772 715.392 312.898 714.861 312.898C714.33 312.898 713.966 312.772 713.771 312.52C713.575 312.269 713.463 312.003 713.435 311.724C713.435 311.248 713.519 310.13 713.687 308.369C713.854 306.608 713.952 305.629 713.98 305.434L711.548 307.195C709.983 308.341 709.13 308.956 708.99 309.04C708.878 309.124 708.739 309.166 708.571 309.166C708.207 309.166 707.872 309.026 707.564 308.746C707.257 308.467 707.089 308.09 707.061 307.614C707.061 307.475 707.061 307.363 707.061 307.279C707.061 307.195 707.103 307.111 707.187 307.027C707.271 306.943 707.341 306.86 707.397 306.776C707.453 306.692 707.578 306.594 707.774 306.482C707.97 306.37 708.152 306.272 708.319 306.189C708.487 306.105 708.753 305.979 709.116 305.811C709.479 305.643 709.829 305.49 710.164 305.35C710.5 305.21 710.947 305 711.506 304.721C712.065 304.441 712.624 304.162 713.183 303.882L707.481 301.157C707.229 300.905 707.103 300.584 707.103 300.192C707.103 299.773 707.229 299.423 707.481 299.144C707.732 298.864 708.068 298.711 708.487 298.683C708.711 298.683 708.962 298.766 709.242 298.934C709.521 299.102 710.29 299.661 711.548 300.612L713.98 302.373Z" fill="white"/>
</g>
<g id="Group_49">
<path id="Vector_38" d="M762.53 296.376C761.775 296.376 761.174 296.125 760.727 295.622C760.28 295.118 760.056 294.503 760.056 293.777C760.056 291.792 760.797 290.073 762.279 288.619C763.76 287.165 765.605 286.438 767.814 286.438C770.358 286.438 772.482 287.221 774.187 288.787C775.893 290.352 776.759 292.379 776.787 294.867C776.787 296.069 776.508 297.215 775.949 298.305C775.39 299.396 774.719 300.346 773.936 301.157C773.153 301.967 772.035 303.002 770.581 304.26C769.575 305.126 768.177 306.412 766.388 308.118L763.914 310.466L767.101 310.508C771.49 310.508 773.824 310.438 774.104 310.298C774.299 310.242 774.635 308.998 775.11 306.566V306.44H776.787V306.566C776.759 306.65 776.578 307.922 776.242 310.382C775.907 312.842 775.697 314.128 775.613 314.24V314.366H760.056V313.569V313.066C760.056 312.87 760.14 312.66 760.308 312.437C760.475 312.213 760.895 311.724 761.566 310.969C762.376 310.074 763.075 309.292 763.662 308.621C763.914 308.341 764.389 307.824 765.088 307.069C765.787 306.314 766.262 305.797 766.514 305.518C766.765 305.238 767.171 304.777 767.73 304.134C768.289 303.491 768.68 303.016 768.904 302.708C769.128 302.401 769.449 301.981 769.868 301.45C770.288 300.919 770.581 300.472 770.749 300.108C770.917 299.745 771.126 299.34 771.378 298.892C771.63 298.445 771.811 297.998 771.923 297.551C772.035 297.103 772.133 296.684 772.217 296.293C772.301 295.901 772.342 295.44 772.342 294.909C772.342 293.148 771.867 291.624 770.917 290.338C769.966 289.052 768.61 288.409 766.849 288.409C765.927 288.409 765.116 288.647 764.417 289.122C763.718 289.597 763.229 290.059 762.95 290.506C762.67 290.953 762.53 291.219 762.53 291.303C762.53 291.331 762.6 291.344 762.74 291.344C763.243 291.344 763.76 291.54 764.291 291.932C764.823 292.323 765.088 292.966 765.088 293.86C765.088 294.559 764.864 295.146 764.417 295.622C763.97 296.097 763.341 296.348 762.53 296.376Z" fill="white"/>
</g>
<path id="Rectangle 31 (Stroke)" fill-rule="evenodd" clip-rule="evenodd" d="M788 277H744V321H788V277ZM741 274V324H791V274H741Z" fill="white"/>
<g id="Group_50">
<g id="Group_51">
<g id="Group_52">
<path id="Vector_39" d="M804.714 290.021C804.714 290.021 804.714 289.893 804.714 289.636C804.714 289.379 804.852 289.181 805.129 289.043H822.354C822.65 289.201 822.798 289.399 822.798 289.636C822.798 289.873 822.65 290.071 822.354 290.229H805.129C804.852 290.09 804.714 289.893 804.714 289.636V290.021Z" fill="white"/>
</g>
<g id="Group_53">
<path id="Vector_40" d="M831.603 279.912L831.218 280.06C830.941 280.159 830.546 280.257 830.032 280.356C829.518 280.455 828.945 280.524 828.313 280.564H827.749V279.2H828.313C829.241 279.161 830.101 279.012 830.892 278.755C831.682 278.498 832.236 278.261 832.552 278.044C832.868 277.826 833.145 277.609 833.382 277.392C833.422 277.332 833.54 277.303 833.738 277.303C833.916 277.303 834.084 277.362 834.242 277.481V286.345L834.271 295.239C834.41 295.377 834.528 295.466 834.627 295.506C834.726 295.545 834.963 295.585 835.339 295.624C835.714 295.664 836.327 295.684 837.177 295.684H837.948V297.047H837.622C837.206 296.988 835.635 296.958 832.908 296.958C830.22 296.958 828.668 296.988 828.253 297.047H827.897V295.684H828.668C829.103 295.684 829.479 295.684 829.795 295.684C830.111 295.684 830.358 295.674 830.536 295.654C830.714 295.634 830.872 295.604 831.01 295.565C831.149 295.525 831.228 295.506 831.248 295.506C831.267 295.506 831.327 295.456 831.425 295.357C831.524 295.259 831.584 295.219 831.603 295.239V279.912Z" fill="white"/>
</g>
</g>
</g>
<g id="Group_54">
<path id="Vector_41" d="M855 303.84C855 314.911 851.701 323.297 845.103 329H844.558C844.195 329 843.957 328.972 843.845 328.916C843.734 328.86 843.678 328.734 843.678 328.539C843.734 328.399 844.083 327.966 844.726 327.239C845.369 326.512 846.04 325.562 846.739 324.387C847.438 323.213 848.165 321.774 848.919 320.068C849.674 318.363 850.289 316.085 850.764 313.233C851.24 310.382 851.477 307.265 851.477 303.882C851.477 300.5 851.24 297.383 850.764 294.531C850.289 291.68 849.674 289.402 848.919 287.696C848.165 285.991 847.438 284.537 846.739 283.335C846.04 282.133 845.369 281.197 844.726 280.526C844.083 279.855 843.734 279.408 843.678 279.184C843.678 278.876 843.887 278.723 844.307 278.723H844.558H845.103C848.682 281.714 851.296 285.684 852.945 290.632C854.315 294.573 855 298.976 855 303.84Z" fill="white"/>
</g>
<g id="Group_55">
<g id="Group_56">
<path id="Vector_42" d="M855 278.718C855 278.718 855 278.59 855 278.333C855 278.076 855.138 277.878 855.415 277.74H872.64C872.936 277.898 873.084 278.096 873.084 278.333C873.084 278.57 872.936 278.768 872.64 278.926H855.415C855.138 278.788 855 278.59 855 278.333V278.718Z" fill="white"/>
</g>
<g id="Group_57">
<path id="Vector_43" d="M881.889 268.609L881.504 268.757C881.227 268.856 880.832 268.955 880.318 269.054C879.804 269.152 879.231 269.222 878.599 269.261H878.035V267.897H878.599C879.528 267.858 880.387 267.71 881.178 267.453C881.968 267.196 882.522 266.959 882.838 266.741C883.154 266.524 883.431 266.306 883.668 266.089C883.708 266.03 883.826 266 884.024 266C884.202 266 884.37 266.059 884.528 266.178V275.042L884.558 283.936C884.696 284.074 884.815 284.163 884.913 284.203C885.012 284.242 885.249 284.282 885.625 284.322C886 284.361 886.613 284.381 887.463 284.381H888.234V285.745H887.908C887.493 285.685 885.921 285.656 883.194 285.656C880.506 285.656 878.954 285.685 878.539 285.745H878.184V284.381H878.954C879.389 284.381 879.765 284.381 880.081 284.381C880.397 284.381 880.644 284.371 880.822 284.351C881 284.331 881.158 284.302 881.297 284.262C881.435 284.223 881.514 284.203 881.534 284.203C881.553 284.203 881.613 284.154 881.712 284.055C881.81 283.956 881.87 283.916 881.889 283.936V268.609Z" fill="white"/>
</g>
</g>
</g>
</g>
</g>
</g>
</g>
<g id="claves01">
<path id="Rectangle 4" d="M39 425H255.745L289 465L255.745 505H39V425Z" fill="#CD08D1" fill-opacity="0.1"/>
<path id="Rectangle 4 (Stroke)" fill-rule="evenodd" clip-rule="evenodd" d="M254.338 428H42V502H254.338L285.099 465L254.338 428ZM255.745 425H39V505H255.745L289 465L255.745 425Z" fill="#CD08D1"/>
<path id="Rectangle 5" d="M43 535H259.745L293 575L259.745 615H43V535Z" fill="#CD08D1" fill-opacity="0.1"/>
<path id="Rectangle 5 (Stroke)" fill-rule="evenodd" clip-rule="evenodd" d="M258.338 538H46V612H258.338L289.099 575L258.338 538ZM259.745 535H43V615H259.745L293 575L259.745 535Z" fill="#CD08D1"/>
<path id="Rectangle 6" d="M379 422H595.745L629 462L595.745 502H379V422Z" fill="#CD08D1" fill-opacity="0.1"/>
<path id="Rectangle 6 (Stroke)" fill-rule="evenodd" clip-rule="evenodd" d="M594.338 425H382V499H594.338L625.099 462L594.338 425ZM595.745 422H379V502H595.745L629 462L595.745 422Z" fill="#CD08D1"/>
<path id="Rectangle 7" d="M382 532H598.745L632 572L598.745 612H382V532Z" fill="#CD08D1" fill-opacity="0.1"/>
<path id="Rectangle 7 (Stroke)" fill-rule="evenodd" clip-rule="evenodd" d="M597.338 535H385V609H597.338L628.099 572L597.338 535ZM598.745 532H382V612H598.745L632 572L598.745 532Z" fill="#CD08D1"/>
<path id="Rectangle 8" d="M725 481H941.745L975 521L941.745 561H725V481Z" fill="#CD08D1" fill-opacity="0.1"/>
<path id="Rectangle 8 (Stroke)" fill-rule="evenodd" clip-rule="evenodd" d="M940.338 484H728V558H940.338L971.099 521L940.338 484ZM941.745 481H725V561H941.745L975 521L941.745 481Z" fill="#CD08D1"/>
<path id="Ellipse 1" d="M80 465C80 487.091 62.0914 505 40 505C17.9086 505 0 487.091 0 465C0 442.909 17.9086 425 40 425C62.0914 425 80 442.909 80 465Z" fill="#CD08D1"/>
<path id="Ellipse 2" d="M84 575C84 597.091 66.0914 615 44 615C21.9086 615 4 597.091 4 575C4 552.909 21.9086 535 44 535C66.0914 535 84 552.909 84 575Z" fill="#CD08D1"/>
<path id="Ellipse 3" d="M420 462C420 484.091 402.091 502 380 502C357.909 502 340 484.091 340 462C340 439.909 357.909 422 380 422C402.091 422 420 439.909 420 462Z" fill="#CD08D1"/>
<path id="Ellipse 4" d="M423 572C423 594.091 405.091 612 383 612C360.909 612 343 594.091 343 572C343 549.909 360.909 532 383 532C405.091 532 423 549.909 423 572Z" fill="#CD08D1"/>
<path id="Ellipse 5" d="M766 521C766 543.091 748.091 561 726 561C703.909 561 686 543.091 686 521C686 498.909 703.909 481 726 481C748.091 481 766 498.909 766 521Z" fill="#CD08D1"/>
<path id="A" d="M48.0938 475.406H30.4688L26.7812 486H18.5625L35.75 440.5H42.8438L60.0625 486H51.8125L48.0938 475.406ZM32.6875 469.031H45.875L39.2812 450.156L32.6875 469.031Z" fill="white"/>
<path id="B" d="M27.625 591V545.5H43.2188C48.3646 545.5 52.2812 546.531 54.9688 548.594C57.6562 550.656 59 553.729 59 557.812C59 559.896 58.4375 561.771 57.3125 563.438C56.1875 565.104 54.5417 566.396 52.375 567.312C54.8333 567.979 56.7292 569.24 58.0625 571.094C59.4167 572.927 60.0938 575.135 60.0938 577.719C60.0938 581.99 58.7188 585.271 55.9688 587.562C53.2396 589.854 49.3229 591 44.2188 591H27.625ZM35.5312 570.469V584.688H44.3125C46.7917 584.688 48.7292 584.073 50.125 582.844C51.5208 581.615 52.2188 579.906 52.2188 577.719C52.2188 572.99 49.8021 570.573 44.9688 570.469H35.5312ZM35.5312 564.656H43.2812C45.7396 564.656 47.6562 564.104 49.0312 563C50.4271 561.875 51.125 560.292 51.125 558.25C51.125 556 50.4792 554.375 49.1875 553.375C47.9167 552.375 45.9271 551.875 43.2188 551.875H35.5312V564.656Z" fill="white"/>
<path id="C" d="M397.344 469.188C396.885 474.042 395.094 477.833 391.969 480.562C388.844 483.271 384.688 484.625 379.5 484.625C375.875 484.625 372.677 483.771 369.906 482.062C367.156 480.333 365.031 477.885 363.531 474.719C362.031 471.552 361.25 467.875 361.188 463.688V459.438C361.188 455.146 361.948 451.365 363.469 448.094C364.99 444.823 367.167 442.302 370 440.531C372.854 438.76 376.146 437.875 379.875 437.875C384.896 437.875 388.938 439.24 392 441.969C395.062 444.698 396.844 448.552 397.344 453.531H389.469C389.094 450.26 388.135 447.906 386.594 446.469C385.073 445.01 382.833 444.281 379.875 444.281C376.438 444.281 373.792 445.542 371.938 448.062C370.104 450.562 369.167 454.24 369.125 459.094V463.125C369.125 468.042 370 471.792 371.75 474.375C373.521 476.958 376.104 478.25 379.5 478.25C382.604 478.25 384.938 477.552 386.5 476.156C388.062 474.76 389.052 472.438 389.469 469.188H397.344Z" fill="white"/>
<path id="D" d="M365.625 594V548.5H379.062C383.083 548.5 386.646 549.396 389.75 551.188C392.875 552.979 395.292 555.521 397 558.812C398.708 562.104 399.562 565.875 399.562 570.125V572.406C399.562 576.719 398.698 580.51 396.969 583.781C395.26 587.052 392.812 589.573 389.625 591.344C386.458 593.115 382.823 594 378.719 594H365.625ZM373.531 554.875V587.688H378.688C382.833 587.688 386.01 586.396 388.219 583.812C390.448 581.208 391.583 577.479 391.625 572.625V570.094C391.625 565.156 390.552 561.385 388.406 558.781C386.26 556.177 383.146 554.875 379.062 554.875H373.531Z" fill="white"/>
<path id="E" d="M735.219 522.688H716.531V536.688H738.375V543H708.625V497.5H738.156V503.875H716.531V516.438H735.219V522.688Z" fill="white"/>
<g id="16">
<path d="M134.086 484H129.727V455.102L120.984 458.312V454.375L133.406 449.711H134.086V484Z" fill="#CD08D1"/>
<path d="M163.805 449.852V453.531H163.008C159.633 453.594 156.945 454.594 154.945 456.531C152.945 458.469 151.789 461.195 151.477 464.711C153.273 462.648 155.727 461.617 158.836 461.617C161.805 461.617 164.172 462.664 165.938 464.758C167.719 466.852 168.609 469.555 168.609 472.867C168.609 476.383 167.648 479.195 165.727 481.305C163.82 483.414 161.258 484.469 158.039 484.469C154.773 484.469 152.125 483.219 150.094 480.719C148.062 478.203 147.047 474.969 147.047 471.016V469.352C147.047 463.07 148.383 458.273 151.055 454.961C153.742 451.633 157.734 449.93 163.031 449.852H163.805ZM158.109 465.227C156.625 465.227 155.258 465.672 154.008 466.562C152.758 467.453 151.891 468.57 151.406 469.914V471.508C151.406 474.32 152.039 476.586 153.305 478.305C154.57 480.023 156.148 480.883 158.039 480.883C159.992 480.883 161.523 480.164 162.633 478.727C163.758 477.289 164.32 475.406 164.32 473.078C164.32 470.734 163.75 468.844 162.609 467.406C161.484 465.953 159.984 465.227 158.109 465.227Z" fill="#CD08D1"/>
</g>
<g id="14">
<path d="M134.086 598H129.727V569.102L120.984 572.312V568.375L133.406 563.711H134.086V598Z" fill="#CD08D1"/>
<path d="M165.094 586.539H169.828V590.078H165.094V598H160.734V590.078H145.195V587.523L160.477 563.875H165.094V586.539ZM150.117 586.539H160.734V569.805L160.219 570.742L150.117 586.539Z" fill="#CD08D1"/>
</g>
<g id="10">
<path d="M473.086 594H468.727V565.102L459.984 568.312V564.375L472.406 559.711H473.086V594Z" fill="#CD08D1"/>
<path d="M507.188 579.445C507.188 584.523 506.32 588.297 504.586 590.766C502.852 593.234 500.141 594.469 496.453 594.469C492.812 594.469 490.117 593.266 488.367 590.859C486.617 588.438 485.711 584.828 485.648 580.031V574.242C485.648 569.227 486.516 565.5 488.25 563.062C489.984 560.625 492.703 559.406 496.406 559.406C500.078 559.406 502.781 560.586 504.516 562.945C506.25 565.289 507.141 568.914 507.188 573.82V579.445ZM502.852 573.516C502.852 569.844 502.336 567.172 501.305 565.5C500.273 563.812 498.641 562.969 496.406 562.969C494.188 562.969 492.57 563.805 491.555 565.477C490.539 567.148 490.016 569.719 489.984 573.188V580.125C489.984 583.812 490.516 586.539 491.578 588.305C492.656 590.055 494.281 590.93 496.453 590.93C498.594 590.93 500.18 590.102 501.211 588.445C502.258 586.789 502.805 584.18 502.852 580.617V573.516Z" fill="#CD08D1"/>
</g>
<g id="19">
<path d="M835.195 543H812.836V539.883L824.648 526.758C826.398 524.773 827.602 523.164 828.258 521.93C828.93 520.68 829.266 519.391 829.266 518.062C829.266 516.281 828.727 514.82 827.648 513.68C826.57 512.539 825.133 511.969 823.336 511.969C821.18 511.969 819.5 512.586 818.297 513.82C817.109 515.039 816.516 516.742 816.516 518.93H812.18C812.18 515.789 813.188 513.25 815.203 511.312C817.234 509.375 819.945 508.406 823.336 508.406C826.508 508.406 829.016 509.242 830.859 510.914C832.703 512.57 833.625 514.781 833.625 517.547C833.625 520.906 831.484 524.906 827.203 529.547L818.062 539.461H835.195V543Z" fill="#CD08D1"/>
<path d="M862.148 543H839.789V539.883L851.602 526.758C853.352 524.773 854.555 523.164 855.211 521.93C855.883 520.68 856.219 519.391 856.219 518.062C856.219 516.281 855.68 514.82 854.602 513.68C853.523 512.539 852.086 511.969 850.289 511.969C848.133 511.969 846.453 512.586 845.25 513.82C844.062 515.039 843.469 516.742 843.469 518.93H839.133C839.133 515.789 840.141 513.25 842.156 511.312C844.188 509.375 846.898 508.406 850.289 508.406C853.461 508.406 855.969 509.242 857.812 510.914C859.656 512.57 860.578 514.781 860.578 517.547C860.578 520.906 858.438 524.906 854.156 529.547L845.016 539.461H862.148V543Z" fill="#CD08D1"/>
</g>
<g id="17">
<path d="M486.195 482H463.836V478.883L475.648 465.758C477.398 463.773 478.602 462.164 479.258 460.93C479.93 459.68 480.266 458.391 480.266 457.062C480.266 455.281 479.727 453.82 478.648 452.68C477.57 451.539 476.133 450.969 474.336 450.969C472.18 450.969 470.5 451.586 469.297 452.82C468.109 454.039 467.516 455.742 467.516 457.93H463.18C463.18 454.789 464.188 452.25 466.203 450.312C468.234 448.375 470.945 447.406 474.336 447.406C477.508 447.406 480.016 448.242 481.859 449.914C483.703 451.57 484.625 453.781 484.625 456.547C484.625 459.906 482.484 463.906 478.203 468.547L469.062 478.461H486.195V482Z" fill="#CD08D1"/>
<path d="M497.094 462.828H500.352C502.398 462.797 504.008 462.258 505.18 461.211C506.352 460.164 506.938 458.75 506.938 456.969C506.938 452.969 504.945 450.969 500.961 450.969C499.086 450.969 497.586 451.508 496.461 452.586C495.352 453.648 494.797 455.062 494.797 456.828H490.461C490.461 454.125 491.445 451.883 493.414 450.102C495.398 448.305 497.914 447.406 500.961 447.406C504.18 447.406 506.703 448.258 508.531 449.961C510.359 451.664 511.273 454.031 511.273 457.062C511.273 458.547 510.789 459.984 509.82 461.375C508.867 462.766 507.562 463.805 505.906 464.492C507.781 465.086 509.227 466.07 510.242 467.445C511.273 468.82 511.789 470.5 511.789 472.484C511.789 475.547 510.789 477.977 508.789 479.773C506.789 481.57 504.188 482.469 500.984 482.469C497.781 482.469 495.172 481.602 493.156 479.867C491.156 478.133 490.156 475.844 490.156 473H494.516C494.516 474.797 495.102 476.234 496.273 477.312C497.445 478.391 499.016 478.93 500.984 478.93C503.078 478.93 504.68 478.383 505.789 477.289C506.898 476.195 507.453 474.625 507.453 472.578C507.453 470.594 506.844 469.07 505.625 468.008C504.406 466.945 502.648 466.398 500.352 466.367H497.094V462.828Z" fill="#CD08D1"/>
</g>
<g id="flecha">
<path id="Rectangle 2" d="M390.2 420.008L405.482 428.133L363.5 507.089L348.219 498.963L390.2 420.008Z" fill="#1043F5"/>
<path id="Rectangle 1_2" d="M332 432.904L422 383V440.692L377 423.096L332 432.904Z" fill="#1043F5"/>
<path id="Rectangle 3" d="M336.039 502.21L351.666 475.143L368.936 474.565L353.309 501.632L336.039 502.21Z" fill="#1043F5"/>
<path id="Rectangle 4_2" d="M362.089 516.845L377.717 489.778L368.926 474.154L353.299 501.221L362.089 516.845Z" fill="#1043F5"/>
</g>
</g>
</g>
</svg>
