<svg  viewBox="0 0 975 602" fill="none" xmlns="http://www.w3.org/2000/svg">
<g id="0118113">
<g id="Group 8">
<path id="Rectangle 1" d="M63 50.4762C63 24.1769 84.3794 2.85718 110.752 2.85718H934V332.381C934 358.68 912.62 380 886.247 380H63V50.4762Z" fill="#02071A"/>
<path id="Rectangle 1 (Stroke)" fill-rule="evenodd" clip-rule="evenodd" d="M929.224 7.61908H110.752C87.0167 7.61908 67.7752 26.8069 67.7752 50.4762V375.238H886.247C909.983 375.238 929.224 356.05 929.224 332.381V7.61908ZM110.752 2.85718C84.3794 2.85718 63 24.1769 63 50.4762V380H886.247C912.62 380 934 358.68 934 332.381V2.85718H110.752Z" fill="#CD08D1"/>
<path id="Rectangle 14" d="M114.715 2.92611C140.256 -3.65764 934 2.92611 934 2.92611V31.4286C934 31.4286 101.202 20.9524 71.5952 31.4286C80.8073 16.3113 89.1752 9.50987 114.715 2.92611Z" fill="#CD08D1"/>
<path id="Rectangle 15" d="M905.349 2.85718H934V333.333C930.483 355.76 923.194 364.003 905.349 374.762C910.601 357.143 905.349 2.85718 905.349 2.85718Z" fill="#CD08D1"/>
</g>
<g id="claves01">
<path id="Rectangle 4" d="M39 412H255.745L289 452L255.745 492H39V412Z" fill="#CD08D1" fill-opacity="0.1"/>
<path id="Rectangle 4 (Stroke)" fill-rule="evenodd" clip-rule="evenodd" d="M254.338 415H42V489H254.338L285.099 452L254.338 415ZM255.745 412H39V492H255.745L289 452L255.745 412Z" fill="#CD08D1"/>
<path id="Rectangle 5" d="M43 522H259.745L293 562L259.745 602H43V522Z" fill="#CD08D1" fill-opacity="0.1"/>
<path id="Rectangle 5 (Stroke)" fill-rule="evenodd" clip-rule="evenodd" d="M258.338 525H46V599H258.338L289.099 562L258.338 525ZM259.745 522H43V602H259.745L293 562L259.745 522Z" fill="#CD08D1"/>
<path id="Rectangle 6" d="M379 409H595.745L629 449L595.745 489H379V409Z" fill="#CD08D1" fill-opacity="0.1"/>
<path id="Rectangle 6 (Stroke)" fill-rule="evenodd" clip-rule="evenodd" d="M594.338 412H382V486H594.338L625.099 449L594.338 412ZM595.745 409H379V489H595.745L629 449L595.745 409Z" fill="#CD08D1"/>
<path id="Rectangle 7" d="M382 519H598.745L632 559L598.745 599H382V519Z" fill="#CD08D1" fill-opacity="0.1"/>
<path id="Rectangle 7 (Stroke)" fill-rule="evenodd" clip-rule="evenodd" d="M597.338 522H385V596H597.338L628.099 559L597.338 522ZM598.745 519H382V599H598.745L632 559L598.745 519Z" fill="#CD08D1"/>
<path id="Rectangle 8" d="M725 468H941.745L975 508L941.745 548H725V468Z" fill="#CD08D1" fill-opacity="0.1"/>
<path id="Rectangle 8 (Stroke)" fill-rule="evenodd" clip-rule="evenodd" d="M940.338 471H728V545H940.338L971.099 508L940.338 471ZM941.745 468H725V548H941.745L975 508L941.745 468Z" fill="#CD08D1"/>
<path id="Ellipse 1" d="M80 452C80 474.091 62.0914 492 40 492C17.9086 492 0 474.091 0 452C0 429.909 17.9086 412 40 412C62.0914 412 80 429.909 80 452Z" fill="#CD08D1"/>
<path id="Ellipse 2" d="M84 562C84 584.091 66.0914 602 44 602C21.9086 602 4 584.091 4 562C4 539.909 21.9086 522 44 522C66.0914 522 84 539.909 84 562Z" fill="#CD08D1"/>
<path id="Ellipse 3" d="M420 449C420 471.091 402.091 489 380 489C357.909 489 340 471.091 340 449C340 426.909 357.909 409 380 409C402.091 409 420 426.909 420 449Z" fill="#CD08D1"/>
<path id="Ellipse 4" d="M423 559C423 581.091 405.091 599 383 599C360.909 599 343 581.091 343 559C343 536.909 360.909 519 383 519C405.091 519 423 536.909 423 559Z" fill="#CD08D1"/>
<path id="Ellipse 5" d="M766 508C766 530.091 748.091 548 726 548C703.909 548 686 530.091 686 508C686 485.909 703.909 468 726 468C748.091 468 766 485.909 766 508Z" fill="#CD08D1"/>
<path id="A" d="M48.0938 462.406H30.4688L26.7812 473H18.5625L35.75 427.5H42.8438L60.0625 473H51.8125L48.0938 462.406ZM32.6875 456.031H45.875L39.2812 437.156L32.6875 456.031Z" fill="white"/>
<path id="B" d="M27.625 578V532.5H43.2188C48.3646 532.5 52.2812 533.531 54.9688 535.594C57.6562 537.656 59 540.729 59 544.812C59 546.896 58.4375 548.771 57.3125 550.438C56.1875 552.104 54.5417 553.396 52.375 554.312C54.8333 554.979 56.7292 556.24 58.0625 558.094C59.4167 559.927 60.0938 562.135 60.0938 564.719C60.0938 568.99 58.7188 572.271 55.9688 574.562C53.2396 576.854 49.3229 578 44.2188 578H27.625ZM35.5312 557.469V571.688H44.3125C46.7917 571.688 48.7292 571.073 50.125 569.844C51.5208 568.615 52.2188 566.906 52.2188 564.719C52.2188 559.99 49.8021 557.573 44.9688 557.469H35.5312ZM35.5312 551.656H43.2812C45.7396 551.656 47.6562 551.104 49.0312 550C50.4271 548.875 51.125 547.292 51.125 545.25C51.125 543 50.4792 541.375 49.1875 540.375C47.9167 539.375 45.9271 538.875 43.2188 538.875H35.5312V551.656Z" fill="white"/>
<path id="C" d="M397.344 456.188C396.885 461.042 395.094 464.833 391.969 467.562C388.844 470.271 384.688 471.625 379.5 471.625C375.875 471.625 372.677 470.771 369.906 469.062C367.156 467.333 365.031 464.885 363.531 461.719C362.031 458.552 361.25 454.875 361.188 450.688V446.438C361.188 442.146 361.948 438.365 363.469 435.094C364.99 431.823 367.167 429.302 370 427.531C372.854 425.76 376.146 424.875 379.875 424.875C384.896 424.875 388.938 426.24 392 428.969C395.062 431.698 396.844 435.552 397.344 440.531H389.469C389.094 437.26 388.135 434.906 386.594 433.469C385.073 432.01 382.833 431.281 379.875 431.281C376.438 431.281 373.792 432.542 371.938 435.062C370.104 437.562 369.167 441.24 369.125 446.094V450.125C369.125 455.042 370 458.792 371.75 461.375C373.521 463.958 376.104 465.25 379.5 465.25C382.604 465.25 384.938 464.552 386.5 463.156C388.062 461.76 389.052 459.438 389.469 456.188H397.344Z" fill="white"/>
<path id="D" d="M365.625 581V535.5H379.062C383.083 535.5 386.646 536.396 389.75 538.188C392.875 539.979 395.292 542.521 397 545.812C398.708 549.104 399.562 552.875 399.562 557.125V559.406C399.562 563.719 398.698 567.51 396.969 570.781C395.26 574.052 392.812 576.573 389.625 578.344C386.458 580.115 382.823 581 378.719 581H365.625ZM373.531 541.875V574.688H378.688C382.833 574.688 386.01 573.396 388.219 570.812C390.448 568.208 391.583 564.479 391.625 559.625V557.094C391.625 552.156 390.552 548.385 388.406 545.781C386.26 543.177 383.146 541.875 379.062 541.875H373.531Z" fill="white"/>
<path id="E" d="M735.219 509.688H716.531V523.688H738.375V530H708.625V484.5H738.156V490.875H716.531V503.438H735.219V509.688Z" fill="white"/>
<g id="-2">
<path d="M142.223 455.315H131.456V451.296H142.223V455.315Z" fill="#CD08D1"/>
<path d="M166.094 466H146.017V462.575L155.963 451.727C157.398 450.127 158.417 448.794 159.019 447.728C159.634 446.647 159.941 445.567 159.941 444.487C159.941 443.065 159.538 441.917 158.731 441.042C157.938 440.167 156.865 439.729 155.512 439.729C153.898 439.729 152.647 440.222 151.759 441.206C150.87 442.19 150.426 443.537 150.426 445.246H145.442C145.442 443.428 145.853 441.794 146.673 440.345C147.507 438.882 148.689 437.747 150.221 436.94C151.766 436.134 153.543 435.73 155.553 435.73C158.451 435.73 160.734 436.462 162.402 437.925C164.084 439.374 164.925 441.384 164.925 443.954C164.925 445.444 164.501 447.01 163.653 448.65C162.819 450.277 161.445 452.13 159.531 454.208L152.23 462.021H166.094V466Z" fill="#CD08D1"/>
</g>
<g id="-7">
<path d="M142.223 567.315H131.456V563.296H142.223V567.315Z" fill="#CD08D1"/>
<path d="M165.889 550.909L153.953 578H148.724L160.639 552.14H145.196V548.141H165.889V550.909Z" fill="#CD08D1"/>
</g>
<g id="-11">
<path d="M485.223 453.315H474.456V449.296H485.223V453.315Z" fill="#CD08D1"/>
<path d="M502.511 464H497.548V440.026L490.227 442.528V438.324L501.875 434.038H502.511V464Z" fill="#CD08D1"/>
<path d="M526.382 464H521.419V440.026L514.098 442.528V438.324L525.746 434.038H526.382V464Z" fill="#CD08D1"/>
</g>
<g id="-9">
<path d="M831.223 514.315H820.456V510.296H831.223V514.315Z" fill="#CD08D1"/>
<path d="M849.146 512.511C847.479 514.274 845.53 515.156 843.302 515.156C840.677 515.156 838.585 514.24 837.026 512.408C835.468 510.562 834.688 508.143 834.688 505.148C834.688 503.18 835.085 501.396 835.878 499.796C836.671 498.196 837.799 496.952 839.262 496.063C840.725 495.175 842.42 494.73 844.348 494.73C847.355 494.73 849.741 495.852 851.505 498.094C853.269 500.336 854.15 503.337 854.15 507.097V508.491C854.15 513.878 852.934 517.986 850.5 520.816C848.066 523.646 844.437 525.082 839.61 525.123H839.016V521.001H839.733C842.673 520.96 844.929 520.256 846.501 518.889C848.073 517.508 848.955 515.382 849.146 512.511ZM844.348 511.26C845.346 511.26 846.282 510.973 847.157 510.398C848.032 509.824 848.709 509.031 849.188 508.02V506.071C849.188 503.87 848.736 502.1 847.834 500.76C846.932 499.42 845.763 498.75 844.327 498.75C842.892 498.75 841.743 499.345 840.882 500.534C840.034 501.71 839.61 503.2 839.61 505.005C839.61 506.878 840.041 508.389 840.902 509.537C841.764 510.686 842.912 511.26 844.348 511.26Z" fill="#CD08D1"/>
</g>
<g id="-10">
<path d="M488.223 563.315H477.456V559.296H488.223V563.315Z" fill="#CD08D1"/>
<path d="M505.511 574H500.548V550.026L493.227 552.528V548.324L504.875 544.038H505.511V574Z" fill="#CD08D1"/>
<path d="M535.35 561.429C535.35 565.722 534.543 568.962 532.93 571.149C531.33 573.323 528.89 574.41 525.608 574.41C522.382 574.41 519.948 573.351 518.308 571.231C516.681 569.099 515.847 565.947 515.806 561.777V556.609C515.806 552.316 516.605 549.097 518.205 546.95C519.818 544.804 522.272 543.73 525.567 543.73C528.835 543.73 531.269 544.776 532.868 546.868C534.481 548.96 535.309 552.091 535.35 556.261V561.429ZM530.366 555.851C530.366 553.048 529.983 550.997 529.218 549.698C528.452 548.386 527.235 547.729 525.567 547.729C523.94 547.729 522.744 548.352 521.979 549.596C521.213 550.826 520.81 552.754 520.769 555.379V562.146C520.769 564.936 521.158 567.014 521.938 568.381C522.717 569.748 523.94 570.432 525.608 570.432C527.208 570.432 528.391 569.803 529.156 568.545C529.922 567.273 530.325 565.291 530.366 562.598V555.851Z" fill="#CD08D1"/>
</g>
</g>
<g id="flecha">
<path id="Rectangle 2" d="M388.2 417.008L403.482 425.133L361.5 504.089L346.219 495.963L388.2 417.008Z" fill="#1043F5"/>
<path id="Rectangle 1_2" d="M330 429.904L420 380V437.692L375 420.096L330 429.904Z" fill="#1043F5"/>
<path id="Rectangle 3" d="M334.039 499.21L349.666 472.143L366.936 471.565L351.309 498.632L334.039 499.21Z" fill="#1043F5"/>
<path id="Rectangle 4_2" d="M360.089 513.845L375.717 486.778L366.926 471.154L351.299 498.221L360.089 513.845Z" fill="#1043F5"/>
</g>
<g id="Group 109">
<g id="Group 107">
<g id="Group 121">
<path id="Rectangle 96 (Stroke)" fill-rule="evenodd" clip-rule="evenodd" d="M362 53H211V204H362V53ZM207 49V208H366V49H207Z" fill="white"/>
<path id="Rectangle 97 (Stroke)" fill-rule="evenodd" clip-rule="evenodd" d="M338 77H236V179H338V77ZM232 73V183H342V73H232Z" fill="white"/>
<path id="Rectangle 98 (Stroke)" fill-rule="evenodd" clip-rule="evenodd" d="M318 97H256V159H318V97ZM252 93V163H322V93H252Z" fill="white"/>
</g>
<g id="x\;\;\;=64x-63">
<g id="Group">
<g id="Group_2">
<path id="Vector" d="M274.07 127.423C274.364 125.661 275.497 123.626 277.469 121.317C279.442 119.009 281.876 117.834 284.771 117.792C286.24 117.792 287.583 118.17 288.8 118.925C290.017 119.681 290.919 120.625 291.506 121.758C293.269 119.114 295.388 117.792 297.864 117.792C299.417 117.792 300.76 118.254 301.893 119.177C303.026 120.1 303.613 121.338 303.655 122.891C303.655 124.108 303.362 125.094 302.774 125.85C302.187 126.605 301.62 127.067 301.074 127.234C300.529 127.402 300.046 127.486 299.627 127.486C298.829 127.486 298.179 127.255 297.675 126.794C297.172 126.332 296.92 125.724 296.92 124.968C296.92 123.038 297.969 121.716 300.067 121.003C299.606 120.457 298.766 120.184 297.549 120.184C297.004 120.184 296.605 120.226 296.353 120.31C294.759 120.982 293.584 122.367 292.828 124.465C290.31 133.739 289.052 139.152 289.052 140.705C289.052 141.88 289.387 142.719 290.059 143.223C290.73 143.727 291.465 143.978 292.262 143.978C293.815 143.978 295.346 143.286 296.857 141.901C298.368 140.516 299.396 138.817 299.941 136.802C300.067 136.383 300.193 136.152 300.319 136.11C300.445 136.068 300.781 136.026 301.326 135.984H301.578C302.207 135.984 302.522 136.152 302.522 136.488C302.522 136.53 302.48 136.76 302.396 137.18C301.725 139.572 300.424 141.691 298.494 143.538C296.563 145.384 294.318 146.307 291.758 146.307C288.821 146.307 286.597 144.986 285.086 142.342C283.365 144.944 281.393 146.245 279.169 146.245H278.791C276.735 146.245 275.266 145.699 274.385 144.608C273.504 143.517 273.042 142.363 273 141.146C273 139.803 273.399 138.712 274.196 137.873C274.993 137.033 275.938 136.614 277.029 136.614C278.833 136.614 279.735 137.495 279.735 139.257C279.735 140.097 279.484 140.831 278.98 141.461C278.476 142.09 277.994 142.51 277.532 142.719C277.071 142.929 276.798 143.034 276.714 143.034L276.525 143.097C276.525 143.139 276.651 143.223 276.903 143.349C277.155 143.475 277.49 143.622 277.91 143.79C278.33 143.957 278.728 144.02 279.106 143.978C280.617 143.978 281.918 143.034 283.009 141.146C283.386 140.474 283.869 139.048 284.456 136.865C285.044 134.683 285.631 132.417 286.219 130.067C286.806 127.717 287.142 126.332 287.226 125.913C287.436 124.78 287.541 123.961 287.541 123.458C287.541 122.283 287.226 121.443 286.597 120.94C285.967 120.436 285.254 120.184 284.456 120.184C282.778 120.184 281.204 120.856 279.735 122.199C278.267 123.542 277.238 125.262 276.651 127.36C276.567 127.738 276.462 127.948 276.336 127.99C276.21 128.032 275.875 128.074 275.329 128.116H274.448C274.196 127.864 274.07 127.633 274.07 127.423Z" fill="white"/>
</g>
<g id="Group_3">
<path id="Vector_2" d="M380.269 123.772C380.269 123.227 380.562 122.807 381.15 122.513H421.247C421.877 122.849 422.191 123.269 422.191 123.772C422.191 124.234 421.898 124.633 421.31 124.968L401.293 125.031H381.276C380.604 124.822 380.269 124.402 380.269 123.772ZM380.269 135.984C380.269 135.355 380.604 134.935 381.276 134.725H421.31C421.898 135.145 422.191 135.565 422.191 135.984C422.191 136.53 421.877 136.949 421.247 137.243H381.15C380.562 136.949 380.269 136.53 380.269 135.984Z" fill="white"/>
</g>
<g id="Group_4">
<path id="Vector_3" d="M445.847 125.913C445.847 119.072 447.546 113.659 450.945 109.672C454.345 105.686 458.121 103.692 462.276 103.692C465.171 103.692 467.249 104.448 468.508 105.958C469.767 107.469 470.396 109.148 470.396 110.994C470.396 112.043 470.102 112.883 469.515 113.512C468.927 114.142 468.109 114.456 467.06 114.456C466.095 114.456 465.297 114.163 464.668 113.575C464.038 112.987 463.724 112.169 463.724 111.12C463.724 109.274 464.71 108.162 466.682 107.784C465.759 106.861 464.458 106.336 462.779 106.21C459.8 106.21 457.345 107.469 455.415 109.987C453.442 112.757 452.456 116.995 452.456 122.702L452.519 122.954C452.729 122.702 452.897 122.43 453.023 122.136C454.743 119.618 456.988 118.359 459.758 118.359H460.01C461.94 118.359 463.64 118.758 465.109 119.555C466.116 120.142 467.123 120.982 468.13 122.073C469.137 123.164 469.955 124.36 470.585 125.661C471.466 127.717 471.907 129.962 471.907 132.396V133.529C471.907 134.494 471.802 135.397 471.592 136.236C471.13 138.712 469.788 141.125 467.563 143.475C465.339 145.825 462.528 147 459.129 147C457.954 147 456.82 146.832 455.729 146.496C454.638 146.161 453.463 145.531 452.204 144.608C450.945 143.685 449.875 142.447 448.994 140.894C448.113 139.341 447.357 137.306 446.728 134.788C446.098 132.27 445.805 129.312 445.847 125.913ZM459.38 120.625C458.121 120.625 457.03 120.982 456.107 121.695C455.184 122.409 454.47 123.353 453.967 124.528C453.463 125.703 453.107 126.899 452.897 128.116C452.687 129.333 452.561 130.634 452.519 132.019C452.519 135.502 452.771 137.998 453.274 139.509C453.778 141.02 454.575 142.237 455.666 143.16C456.674 143.916 457.786 144.293 459.003 144.293C461.143 144.293 462.779 143.496 463.913 141.901C464.458 141.146 464.836 140.202 465.046 139.069C465.255 137.936 465.36 135.732 465.36 132.459C465.36 129.102 465.255 126.857 465.046 125.724C464.836 124.591 464.458 123.647 463.913 122.891C462.779 121.38 461.269 120.625 459.38 120.625Z" fill="white"/>
<path id="Vector_4" d="M503.758 145.615C503.003 145.489 500.296 145.426 495.638 145.426C490.77 145.426 487.958 145.489 487.203 145.615H486.636V142.72H488.588C489.427 142.72 489.994 142.72 490.287 142.72C490.581 142.72 490.938 142.678 491.357 142.594C491.777 142.51 492.071 142.405 492.239 142.279C492.407 142.153 492.553 141.985 492.679 141.775C492.721 141.691 492.742 140.558 492.742 138.376V135.229H476.439V132.333L485.944 117.792C492.365 108.057 495.617 103.168 495.701 103.126C495.785 103.042 496.225 103 497.023 103H498.156L498.533 103.378V132.333H504.325V135.229H498.533V138.439C498.533 140.16 498.533 141.167 498.533 141.461C498.533 141.754 498.659 142.006 498.911 142.216C499.247 142.51 500.443 142.678 502.499 142.72H504.325V145.615H503.758ZM493.12 132.333V111.309L479.335 132.27L486.196 132.333H493.12Z" fill="white"/>
</g>
<g id="Group_5">
<path id="Vector_5" d="M509.424 127.423C509.717 125.661 510.85 123.626 512.823 121.317C514.795 119.009 517.229 117.834 520.125 117.792C521.593 117.792 522.936 118.17 524.153 118.925C525.37 119.681 526.272 120.625 526.86 121.758C528.623 119.114 530.742 117.792 533.218 117.792C534.77 117.792 536.113 118.254 537.246 119.177C538.379 120.1 538.967 121.338 539.009 122.891C539.009 124.108 538.715 125.094 538.128 125.85C537.54 126.605 536.973 127.067 536.428 127.234C535.882 127.402 535.4 127.486 534.98 127.486C534.183 127.486 533.532 127.255 533.029 126.794C532.525 126.332 532.273 125.724 532.273 124.968C532.273 123.038 533.323 121.716 535.421 121.003C534.959 120.457 534.12 120.184 532.903 120.184C532.357 120.184 531.959 120.226 531.707 120.31C530.112 120.982 528.937 122.367 528.182 124.465C525.664 133.739 524.405 139.152 524.405 140.705C524.405 141.88 524.741 142.719 525.412 143.223C526.084 143.727 526.818 143.978 527.615 143.978C529.168 143.978 530.7 143.286 532.21 141.901C533.721 140.516 534.749 138.817 535.295 136.802C535.421 136.383 535.547 136.152 535.673 136.11C535.798 136.068 536.134 136.026 536.68 135.984H536.932C537.561 135.984 537.876 136.152 537.876 136.488C537.876 136.53 537.834 136.76 537.75 137.18C537.078 139.572 535.777 141.691 533.847 143.538C531.917 145.384 529.672 146.307 527.112 146.307C524.174 146.307 521.95 144.986 520.439 142.342C518.719 144.944 516.746 146.245 514.522 146.245H514.145C512.088 146.245 510.62 145.699 509.738 144.608C508.857 143.517 508.395 142.363 508.354 141.146C508.354 139.803 508.752 138.712 509.55 137.873C510.347 137.033 511.291 136.614 512.382 136.614C514.187 136.614 515.089 137.495 515.089 139.257C515.089 140.097 514.837 140.831 514.333 141.461C513.83 142.09 513.347 142.51 512.886 142.719C512.424 142.929 512.151 143.034 512.067 143.034L511.879 143.097C511.879 143.139 512.004 143.223 512.256 143.349C512.508 143.475 512.844 143.622 513.263 143.79C513.683 143.957 514.082 144.02 514.459 143.978C515.97 143.978 517.271 143.034 518.362 141.146C518.74 140.474 519.222 139.048 519.81 136.865C520.397 134.683 520.985 132.417 521.572 130.067C522.16 127.717 522.496 126.332 522.58 125.913C522.789 124.78 522.894 123.961 522.894 123.458C522.894 122.283 522.58 121.443 521.95 120.94C521.321 120.436 520.607 120.184 519.81 120.184C518.131 120.184 516.558 120.856 515.089 122.199C513.62 123.542 512.592 125.262 512.004 127.36C511.921 127.738 511.816 127.948 511.69 127.99C511.564 128.032 511.228 128.074 510.683 128.116H509.801C509.55 127.864 509.424 127.633 509.424 127.423Z" fill="white"/>
</g>
<g id="Group_6">
<path id="Vector_6" d="M561.43 130.697C561.43 130.697 561.43 130.424 561.43 129.878C561.43 129.333 561.723 128.913 562.311 128.619H598.883C599.513 128.955 599.827 129.375 599.827 129.878C599.827 130.382 599.513 130.801 598.883 131.137H562.311C561.723 130.843 561.43 130.424 561.43 129.878V130.697Z" fill="white"/>
</g>
<g id="Group_7">
<path id="Vector_7" d="M621.746 125.913C621.746 119.072 623.446 113.659 626.845 109.672C630.244 105.686 634.021 103.692 638.175 103.692C641.071 103.692 643.148 104.448 644.407 105.958C645.666 107.469 646.296 109.148 646.296 110.994C646.296 112.043 646.002 112.883 645.414 113.512C644.827 114.142 644.008 114.456 642.959 114.456C641.994 114.456 641.197 114.163 640.567 113.575C639.938 112.987 639.623 112.169 639.623 111.12C639.623 109.274 640.609 108.162 642.582 107.784C641.658 106.861 640.357 106.336 638.679 106.21C635.699 106.21 633.244 107.469 631.314 109.987C629.342 112.757 628.356 116.995 628.356 122.702L628.419 122.954C628.628 122.702 628.796 122.43 628.922 122.136C630.643 119.618 632.888 118.359 635.657 118.359H635.909C637.84 118.359 639.539 118.758 641.008 119.555C642.015 120.142 643.022 120.982 644.029 122.073C645.037 123.164 645.855 124.36 646.484 125.661C647.366 127.717 647.806 129.962 647.806 132.396V133.529C647.806 134.494 647.701 135.397 647.492 136.236C647.03 138.712 645.687 141.125 643.463 143.475C641.239 145.825 638.427 147 635.028 147C633.853 147 632.72 146.832 631.629 146.496C630.538 146.161 629.363 145.531 628.104 144.608C626.845 143.685 625.775 142.447 624.893 140.894C624.012 139.341 623.257 137.306 622.627 134.788C621.998 132.27 621.704 129.312 621.746 125.913ZM635.28 120.625C634.021 120.625 632.93 120.982 632.007 121.695C631.083 122.409 630.37 123.353 629.866 124.528C629.363 125.703 629.006 126.899 628.796 128.116C628.586 129.333 628.46 130.634 628.419 132.019C628.419 135.502 628.67 137.998 629.174 139.509C629.677 141.02 630.475 142.237 631.566 143.16C632.573 143.916 633.685 144.293 634.902 144.293C637.042 144.293 638.679 143.496 639.812 141.901C640.358 141.146 640.735 140.202 640.945 139.069C641.155 137.936 641.26 135.732 641.26 132.459C641.26 129.102 641.155 126.857 640.945 125.724C640.735 124.591 640.358 123.647 639.812 122.891C638.679 121.38 637.168 120.625 635.28 120.625Z" fill="white"/>
<path id="Vector_8" d="M658.571 116.471C657.438 116.471 656.556 116.114 655.927 115.4C655.297 114.687 654.962 113.764 654.92 112.631C654.92 110.323 655.927 108.266 657.941 106.462C659.956 104.657 662.39 103.755 665.243 103.755C666.712 103.755 667.635 103.776 668.013 103.818C671.118 104.322 673.489 105.434 675.126 107.154C676.762 108.875 677.602 110.742 677.644 112.757C677.644 114.939 676.93 117.058 675.504 119.114C674.077 121.171 672.104 122.66 669.586 123.584L669.398 123.709C669.398 123.751 669.586 123.814 669.964 123.898C670.342 123.982 670.95 124.171 671.79 124.465C672.629 124.759 673.426 125.199 674.182 125.787C677.623 128.011 679.343 130.948 679.343 134.599C679.343 137.915 678.042 140.81 675.441 143.286C672.839 145.762 669.545 147 665.558 147C662.201 147 659.305 146.098 656.871 144.293C654.437 142.489 653.22 140.202 653.22 137.432C653.22 136.257 653.598 135.313 654.353 134.599C655.109 133.886 656.053 133.508 657.186 133.466C658.361 133.466 659.326 133.844 660.081 134.599C660.837 135.355 661.215 136.299 661.215 137.432C661.215 137.894 661.152 138.313 661.026 138.691C660.9 139.069 660.753 139.404 660.585 139.698C660.417 139.992 660.186 140.244 659.893 140.453C659.599 140.663 659.347 140.831 659.137 140.957C658.927 141.083 658.718 141.167 658.508 141.209C658.298 141.251 658.13 141.314 658.004 141.398L657.752 141.461C659.893 143.349 662.494 144.293 665.558 144.293C667.866 144.293 669.607 143.181 670.782 140.957C671.496 139.572 671.853 137.453 671.853 134.599V133.34C671.853 129.354 670.51 126.689 667.824 125.346C667.194 125.094 665.915 124.947 663.984 124.905L661.34 124.843L661.152 124.717C661.068 124.591 661.026 124.255 661.026 123.709C661.026 122.954 661.194 122.576 661.529 122.576C662.704 122.576 663.921 122.472 665.18 122.262C666.607 122.052 667.908 121.171 669.083 119.618C670.258 118.065 670.845 115.715 670.845 112.568V112.064C670.845 109.672 670.111 108.015 668.642 107.091C667.719 106.504 666.733 106.21 665.684 106.21C664.341 106.21 663.103 106.441 661.97 106.903C660.837 107.364 660.039 107.847 659.578 108.35C659.116 108.854 658.885 109.106 658.885 109.106H659.074C659.2 109.148 659.368 109.19 659.578 109.232C659.788 109.274 659.998 109.379 660.207 109.546C660.417 109.714 660.669 109.861 660.963 109.987C661.256 110.113 661.466 110.344 661.592 110.679C661.718 111.015 661.886 111.33 662.096 111.624C662.306 111.917 662.369 112.337 662.285 112.883C662.285 113.806 661.991 114.624 661.403 115.338C660.816 116.051 659.872 116.429 658.571 116.471Z" fill="white"/>
</g>
</g>
</g>
</g>
<g id="Group 108">
<path id="Rectangle 99 (Stroke)" fill-rule="evenodd" clip-rule="evenodd" d="M329 254H265V318H329V254ZM262 251V321H332V251H262Z" fill="white"/>
<g id="-2_2">
<g id="Group_8">
<g id="Group_9">
<path id="Vector_9" d="M273.2 288.636C273.2 288.636 273.2 288.454 273.2 288.089C273.2 287.725 273.396 287.445 273.788 287.249H298.215C298.635 287.473 298.845 287.753 298.845 288.089C298.845 288.426 298.635 288.706 298.215 288.93H273.788C273.396 288.734 273.2 288.454 273.2 288.089V288.636Z" fill="white"/>
</g>
<g id="Group_10">
<path id="Vector_10" d="M306.959 280.564C306.203 280.564 305.6 280.312 305.152 279.807C304.703 279.303 304.479 278.686 304.479 277.957C304.479 275.967 305.222 274.244 306.707 272.786C308.193 271.329 310.043 270.6 312.257 270.6C314.807 270.6 316.937 271.385 318.647 272.954C320.357 274.524 321.226 276.556 321.254 279.05C321.254 280.256 320.973 281.405 320.413 282.498C319.852 283.591 319.18 284.544 318.395 285.357C317.61 286.17 316.489 287.207 315.032 288.468C314.023 289.337 312.621 290.626 310.827 292.336L308.347 294.69L311.542 294.732C315.942 294.732 318.283 294.662 318.563 294.522C318.759 294.466 319.096 293.219 319.572 290.78V290.654H321.254V290.78C321.226 290.864 321.044 292.14 320.707 294.606C320.371 297.072 320.161 298.362 320.077 298.474V298.6H304.479V297.801V297.297C304.479 297.1 304.563 296.89 304.731 296.666C304.899 296.442 305.32 295.951 305.993 295.195C306.805 294.298 307.506 293.513 308.095 292.84C308.347 292.56 308.823 292.041 309.524 291.285C310.225 290.528 310.701 290.009 310.953 289.729C311.206 289.449 311.612 288.986 312.173 288.342C312.733 287.697 313.126 287.221 313.35 286.912C313.574 286.604 313.896 286.184 314.317 285.651C314.737 285.118 315.032 284.67 315.2 284.306C315.368 283.941 315.578 283.535 315.83 283.086C316.083 282.638 316.265 282.19 316.377 281.741C316.489 281.293 316.587 280.872 316.671 280.48C316.755 280.087 316.797 279.625 316.797 279.092C316.797 277.327 316.321 275.799 315.368 274.51C314.415 273.221 313.056 272.576 311.29 272.576C310.365 272.576 309.552 272.814 308.851 273.291C308.151 273.767 307.66 274.23 307.38 274.678C307.1 275.127 306.959 275.393 306.959 275.477C306.959 275.505 307.03 275.519 307.17 275.519C307.674 275.519 308.193 275.715 308.725 276.107C309.258 276.5 309.524 277.145 309.524 278.041C309.524 278.742 309.3 279.331 308.851 279.807C308.403 280.284 307.772 280.536 306.959 280.564Z" fill="white"/>
</g>
</g>
</g>
</g>
<g id="Si: Calcula:">
<path d="M112.512 78.5918C109.617 77.7598 107.508 76.7402 106.184 75.5332C104.871 74.3145 104.215 72.8145 104.215 71.0332C104.215 69.0176 105.018 67.3535 106.623 66.041C108.24 64.7168 110.338 64.0547 112.916 64.0547C114.674 64.0547 116.238 64.3945 117.609 65.0742C118.992 65.7539 120.059 66.6914 120.809 67.8867C121.57 69.082 121.951 70.3887 121.951 71.8066H118.559C118.559 70.2598 118.066 69.0469 117.082 68.168C116.098 67.2773 114.709 66.832 112.916 66.832C111.252 66.832 109.951 67.2012 109.014 67.9395C108.088 68.666 107.625 69.6797 107.625 70.9805C107.625 72.0234 108.064 72.9082 108.943 73.6348C109.834 74.3496 111.34 75.0059 113.461 75.6035C115.594 76.2012 117.258 76.8633 118.453 77.5898C119.66 78.3047 120.551 79.1426 121.125 80.1035C121.711 81.0645 122.004 82.1953 122.004 83.4961C122.004 85.5703 121.195 87.2344 119.578 88.4883C117.961 89.7305 115.799 90.3516 113.092 90.3516C111.334 90.3516 109.693 90.0176 108.17 89.3496C106.646 88.6699 105.469 87.7441 104.637 86.5723C103.816 85.4004 103.406 84.0703 103.406 82.582H106.799C106.799 84.1289 107.367 85.3535 108.504 86.2559C109.652 87.1465 111.182 87.5918 113.092 87.5918C114.873 87.5918 116.238 87.2285 117.188 86.502C118.137 85.7754 118.611 84.7852 118.611 83.5312C118.611 82.2773 118.172 81.3105 117.293 80.6309C116.414 79.9395 114.82 79.2598 112.512 78.5918Z" fill="white"/>
<path d="M129.369 90H126.117V70.9805H129.369V90ZM125.854 65.9355C125.854 65.4082 126.012 64.9629 126.328 64.5996C126.656 64.2363 127.137 64.0547 127.77 64.0547C128.402 64.0547 128.883 64.2363 129.211 64.5996C129.539 64.9629 129.703 65.4082 129.703 65.9355C129.703 66.4629 129.539 66.9023 129.211 67.2539C128.883 67.6055 128.402 67.7812 127.77 67.7812C127.137 67.7812 126.656 67.6055 126.328 67.2539C126.012 66.9023 125.854 66.4629 125.854 65.9355Z" fill="white"/>
<path d="M134.484 88.2949C134.484 87.7324 134.648 87.2637 134.977 86.8887C135.316 86.5137 135.82 86.3262 136.488 86.3262C137.156 86.3262 137.66 86.5137 138 86.8887C138.352 87.2637 138.527 87.7324 138.527 88.2949C138.527 88.834 138.352 89.2852 138 89.6484C137.66 90.0117 137.156 90.1934 136.488 90.1934C135.82 90.1934 135.316 90.0117 134.977 89.6484C134.648 89.2852 134.484 88.834 134.484 88.2949ZM134.502 72.7734C134.502 72.2109 134.666 71.7422 134.994 71.3672C135.334 70.9922 135.838 70.8047 136.506 70.8047C137.174 70.8047 137.678 70.9922 138.018 71.3672C138.369 71.7422 138.545 72.2109 138.545 72.7734C138.545 73.3125 138.369 73.7637 138.018 74.127C137.678 74.4902 137.174 74.6719 136.506 74.6719C135.838 74.6719 135.334 74.4902 134.994 74.127C134.666 73.7637 134.502 73.3125 134.502 72.7734Z" fill="white"/>
<path d="M123.797 249.879C123.48 252.586 122.479 254.678 120.791 256.154C119.115 257.619 116.883 258.352 114.094 258.352C111.07 258.352 108.645 257.268 106.816 255.1C105 252.932 104.092 250.031 104.092 246.398V243.938C104.092 241.559 104.514 239.467 105.357 237.662C106.213 235.857 107.42 234.475 108.979 233.514C110.537 232.541 112.342 232.055 114.393 232.055C117.111 232.055 119.291 232.816 120.932 234.34C122.572 235.852 123.527 237.949 123.797 240.633H120.404C120.111 238.594 119.473 237.117 118.488 236.203C117.516 235.289 116.15 234.832 114.393 234.832C112.236 234.832 110.543 235.629 109.312 237.223C108.094 238.816 107.484 241.084 107.484 244.025V246.504C107.484 249.281 108.064 251.49 109.225 253.131C110.385 254.771 112.008 255.592 114.094 255.592C115.969 255.592 117.404 255.17 118.4 254.326C119.408 253.471 120.076 251.988 120.404 249.879H123.797Z" fill="white"/>
<path d="M139.652 258C139.465 257.625 139.312 256.957 139.195 255.996C137.684 257.566 135.879 258.352 133.781 258.352C131.906 258.352 130.365 257.824 129.158 256.77C127.963 255.703 127.365 254.355 127.365 252.727C127.365 250.746 128.115 249.211 129.615 248.121C131.127 247.02 133.248 246.469 135.979 246.469H139.143V244.975C139.143 243.838 138.803 242.936 138.123 242.268C137.443 241.588 136.441 241.248 135.117 241.248C133.957 241.248 132.984 241.541 132.199 242.127C131.414 242.713 131.021 243.422 131.021 244.254H127.752C127.752 243.305 128.086 242.391 128.754 241.512C129.434 240.621 130.348 239.918 131.496 239.402C132.656 238.887 133.928 238.629 135.311 238.629C137.502 238.629 139.219 239.18 140.461 240.281C141.703 241.371 142.348 242.877 142.395 244.799V253.553C142.395 255.299 142.617 256.688 143.062 257.719V258H139.652ZM134.256 255.521C135.275 255.521 136.242 255.258 137.156 254.73C138.07 254.203 138.732 253.518 139.143 252.674V248.771H136.594C132.609 248.771 130.617 249.938 130.617 252.27C130.617 253.289 130.957 254.086 131.637 254.66C132.316 255.234 133.189 255.521 134.256 255.521Z" fill="white"/>
<path d="M151.025 258H147.773V231H151.025V258Z" fill="white"/>
<path d="M163.875 255.697C165.035 255.697 166.049 255.346 166.916 254.643C167.783 253.939 168.264 253.061 168.357 252.006H171.434C171.375 253.096 171 254.133 170.309 255.117C169.617 256.102 168.691 256.887 167.531 257.473C166.383 258.059 165.164 258.352 163.875 258.352C161.285 258.352 159.223 257.49 157.688 255.768C156.164 254.033 155.402 251.666 155.402 248.666V248.121C155.402 246.27 155.742 244.623 156.422 243.182C157.102 241.74 158.074 240.621 159.34 239.824C160.617 239.027 162.123 238.629 163.857 238.629C165.99 238.629 167.76 239.268 169.166 240.545C170.584 241.822 171.34 243.48 171.434 245.52H168.357C168.264 244.289 167.795 243.281 166.951 242.496C166.119 241.699 165.088 241.301 163.857 241.301C162.205 241.301 160.922 241.898 160.008 243.094C159.105 244.277 158.654 245.994 158.654 248.244V248.859C158.654 251.051 159.105 252.738 160.008 253.922C160.91 255.105 162.199 255.697 163.875 255.697Z" fill="white"/>
<path d="M186.832 256.119C185.566 257.607 183.709 258.352 181.26 258.352C179.232 258.352 177.686 257.766 176.619 256.594C175.564 255.41 175.031 253.664 175.02 251.355V238.98H178.271V251.268C178.271 254.15 179.443 255.592 181.787 255.592C184.271 255.592 185.924 254.666 186.744 252.814V238.98H189.996V258H186.902L186.832 256.119Z" fill="white"/>
<path d="M198.486 258H195.234V231H198.486V258Z" fill="white"/>
<path d="M215.449 258C215.262 257.625 215.109 256.957 214.992 255.996C213.48 257.566 211.676 258.352 209.578 258.352C207.703 258.352 206.162 257.824 204.955 256.77C203.76 255.703 203.162 254.355 203.162 252.727C203.162 250.746 203.912 249.211 205.412 248.121C206.924 247.02 209.045 246.469 211.775 246.469H214.939V244.975C214.939 243.838 214.6 242.936 213.92 242.268C213.24 241.588 212.238 241.248 210.914 241.248C209.754 241.248 208.781 241.541 207.996 242.127C207.211 242.713 206.818 243.422 206.818 244.254H203.549C203.549 243.305 203.883 242.391 204.551 241.512C205.23 240.621 206.145 239.918 207.293 239.402C208.453 238.887 209.725 238.629 211.107 238.629C213.299 238.629 215.016 239.18 216.258 240.281C217.5 241.371 218.145 242.877 218.191 244.799V253.553C218.191 255.299 218.414 256.688 218.859 257.719V258H215.449ZM210.053 255.521C211.072 255.521 212.039 255.258 212.953 254.73C213.867 254.203 214.529 253.518 214.939 252.674V248.771H212.391C208.406 248.771 206.414 249.938 206.414 252.27C206.414 253.289 206.754 254.086 207.434 254.66C208.113 255.234 208.986 255.521 210.053 255.521Z" fill="white"/>
<path d="M223.184 256.295C223.184 255.732 223.348 255.264 223.676 254.889C224.016 254.514 224.52 254.326 225.188 254.326C225.855 254.326 226.359 254.514 226.699 254.889C227.051 255.264 227.227 255.732 227.227 256.295C227.227 256.834 227.051 257.285 226.699 257.648C226.359 258.012 225.855 258.193 225.188 258.193C224.52 258.193 224.016 258.012 223.676 257.648C223.348 257.285 223.184 256.834 223.184 256.295ZM223.201 240.773C223.201 240.211 223.365 239.742 223.693 239.367C224.033 238.992 224.537 238.805 225.205 238.805C225.873 238.805 226.377 238.992 226.717 239.367C227.068 239.742 227.244 240.211 227.244 240.773C227.244 241.312 227.068 241.764 226.717 242.127C226.377 242.49 225.873 242.672 225.205 242.672C224.537 242.672 224.033 242.49 223.693 242.127C223.365 241.764 223.201 241.312 223.201 240.773Z" fill="white"/>
</g>
</g>
</g>
</svg>
