<svg viewBox="0 0 975 384" fill="none" xmlns="http://www.w3.org/2000/svg">
<g id="0121102">
<g id="claves01">
<path id="Rectangle 4" d="M39 194H255.745L289 234L255.745 274H39V194Z" fill="#CD08D1" fill-opacity="0.1"/>
<path id="Rectangle 4 (Stroke)" fill-rule="evenodd" clip-rule="evenodd" d="M254.338 197H42V271H254.338L285.099 234L254.338 197ZM255.745 194H39V274H255.745L289 234L255.745 194Z" fill="#CD08D1"/>
<path id="Rectangle 5" d="M43 304H259.745L293 344L259.745 384H43V304Z" fill="#CD08D1" fill-opacity="0.1"/>
<path id="Rectangle 5 (Stroke)" fill-rule="evenodd" clip-rule="evenodd" d="M258.338 307H46V381H258.338L289.099 344L258.338 307ZM259.745 304H43V384H259.745L293 344L259.745 304Z" fill="#CD08D1"/>
<path id="Rectangle 6" d="M379 191H595.745L629 231L595.745 271H379V191Z" fill="#CD08D1" fill-opacity="0.1"/>
<path id="Rectangle 6 (Stroke)" fill-rule="evenodd" clip-rule="evenodd" d="M594.338 194H382V268H594.338L625.099 231L594.338 194ZM595.745 191H379V271H595.745L629 231L595.745 191Z" fill="#CD08D1"/>
<path id="Rectangle 7" d="M382 301H598.745L632 341L598.745 381H382V301Z" fill="#CD08D1" fill-opacity="0.1"/>
<path id="Rectangle 7 (Stroke)" fill-rule="evenodd" clip-rule="evenodd" d="M597.338 304H385V378H597.338L628.099 341L597.338 304ZM598.745 301H382V381H598.745L632 341L598.745 301Z" fill="#CD08D1"/>
<path id="Rectangle 8" d="M725 250H941.745L975 290L941.745 330H725V250Z" fill="#CD08D1" fill-opacity="0.1"/>
<path id="Rectangle 8 (Stroke)" fill-rule="evenodd" clip-rule="evenodd" d="M940.338 253H728V327H940.338L971.099 290L940.338 253ZM941.745 250H725V330H941.745L975 290L941.745 250Z" fill="#CD08D1"/>
<path id="Ellipse 1" d="M80 234C80 256.091 62.0914 274 40 274C17.9086 274 0 256.091 0 234C0 211.909 17.9086 194 40 194C62.0914 194 80 211.909 80 234Z" fill="#CD08D1"/>
<path id="Ellipse 2" d="M84 344C84 366.091 66.0914 384 44 384C21.9086 384 4 366.091 4 344C4 321.909 21.9086 304 44 304C66.0914 304 84 321.909 84 344Z" fill="#CD08D1"/>
<path id="Ellipse 3" d="M420 231C420 253.091 402.091 271 380 271C357.909 271 340 253.091 340 231C340 208.909 357.909 191 380 191C402.091 191 420 208.909 420 231Z" fill="#CD08D1"/>
<path id="Ellipse 4" d="M423 341C423 363.091 405.091 381 383 381C360.909 381 343 363.091 343 341C343 318.909 360.909 301 383 301C405.091 301 423 318.909 423 341Z" fill="#CD08D1"/>
<path id="Ellipse 5" d="M766 290C766 312.091 748.091 330 726 330C703.909 330 686 312.091 686 290C686 267.909 703.909 250 726 250C748.091 250 766 267.909 766 290Z" fill="#CD08D1"/>
<path id="A" d="M48.0938 244.406H30.4688L26.7812 255H18.5625L35.75 209.5H42.8438L60.0625 255H51.8125L48.0938 244.406ZM32.6875 238.031H45.875L39.2812 219.156L32.6875 238.031Z" fill="white"/>
<path id="B" d="M27.625 360V314.5H43.2188C48.3646 314.5 52.2812 315.531 54.9688 317.594C57.6562 319.656 59 322.729 59 326.812C59 328.896 58.4375 330.771 57.3125 332.438C56.1875 334.104 54.5417 335.396 52.375 336.312C54.8333 336.979 56.7292 338.24 58.0625 340.094C59.4167 341.927 60.0938 344.135 60.0938 346.719C60.0938 350.99 58.7188 354.271 55.9688 356.562C53.2396 358.854 49.3229 360 44.2188 360H27.625ZM35.5312 339.469V353.688H44.3125C46.7917 353.688 48.7292 353.073 50.125 351.844C51.5208 350.615 52.2188 348.906 52.2188 346.719C52.2188 341.99 49.8021 339.573 44.9688 339.469H35.5312ZM35.5312 333.656H43.2812C45.7396 333.656 47.6562 333.104 49.0312 332C50.4271 330.875 51.125 329.292 51.125 327.25C51.125 325 50.4792 323.375 49.1875 322.375C47.9167 321.375 45.9271 320.875 43.2188 320.875H35.5312V333.656Z" fill="white"/>
<path id="C" d="M397.344 238.188C396.885 243.042 395.094 246.833 391.969 249.562C388.844 252.271 384.688 253.625 379.5 253.625C375.875 253.625 372.677 252.771 369.906 251.062C367.156 249.333 365.031 246.885 363.531 243.719C362.031 240.552 361.25 236.875 361.188 232.688V228.438C361.188 224.146 361.948 220.365 363.469 217.094C364.99 213.823 367.167 211.302 370 209.531C372.854 207.76 376.146 206.875 379.875 206.875C384.896 206.875 388.938 208.24 392 210.969C395.062 213.698 396.844 217.552 397.344 222.531H389.469C389.094 219.26 388.135 216.906 386.594 215.469C385.073 214.01 382.833 213.281 379.875 213.281C376.438 213.281 373.792 214.542 371.938 217.062C370.104 219.562 369.167 223.24 369.125 228.094V232.125C369.125 237.042 370 240.792 371.75 243.375C373.521 245.958 376.104 247.25 379.5 247.25C382.604 247.25 384.938 246.552 386.5 245.156C388.062 243.76 389.052 241.438 389.469 238.188H397.344Z" fill="white"/>
<path id="D" d="M365.625 363V317.5H379.062C383.083 317.5 386.646 318.396 389.75 320.188C392.875 321.979 395.292 324.521 397 327.812C398.708 331.104 399.562 334.875 399.562 339.125V341.406C399.562 345.719 398.698 349.51 396.969 352.781C395.26 356.052 392.812 358.573 389.625 360.344C386.458 362.115 382.823 363 378.719 363H365.625ZM373.531 323.875V356.688H378.688C382.833 356.688 386.01 355.396 388.219 352.812C390.448 350.208 391.583 346.479 391.625 341.625V339.094C391.625 334.156 390.552 330.385 388.406 327.781C386.26 325.177 383.146 323.875 379.062 323.875H373.531Z" fill="white"/>
<path id="E" d="M735.219 291.688H716.531V305.688H738.375V312H708.625V266.5H738.156V272.875H716.531V285.438H735.219V291.688Z" fill="white"/>
<g id="44">
<path d="M165.141 245.539H169.875V249.078H165.141V257H160.781V249.078H145.242V246.523L160.523 222.875H165.141V245.539ZM150.164 245.539H160.781V228.805L160.266 229.742L150.164 245.539Z" fill="#CD08D1"/>
<path d="M192.094 245.539H196.828V249.078H192.094V257H187.734V249.078H172.195V246.523L187.477 222.875H192.094V245.539ZM177.117 245.539H187.734V228.805L187.219 229.742L177.117 245.539Z" fill="#CD08D1"/>
</g>
<g id="48">
<path d="M165.141 355.539H169.875V359.078H165.141V367H160.781V359.078H145.242V356.523L160.523 332.875H165.141V355.539ZM150.164 355.539H160.781V338.805L160.266 339.742L150.164 355.539Z" fill="#CD08D1"/>
<path d="M194.484 341.781C194.484 343.484 194.031 345 193.125 346.328C192.234 347.656 191.023 348.695 189.492 349.445C191.273 350.211 192.68 351.328 193.711 352.797C194.758 354.266 195.281 355.93 195.281 357.789C195.281 360.742 194.281 363.094 192.281 364.844C190.297 366.594 187.68 367.469 184.43 367.469C181.148 367.469 178.516 366.594 176.531 364.844C174.562 363.078 173.578 360.727 173.578 357.789C173.578 355.945 174.078 354.281 175.078 352.797C176.094 351.312 177.492 350.188 179.273 349.422C177.758 348.672 176.562 347.633 175.688 346.305C174.812 344.977 174.375 343.469 174.375 341.781C174.375 338.906 175.297 336.625 177.141 334.938C178.984 333.25 181.414 332.406 184.43 332.406C187.43 332.406 189.852 333.25 191.695 334.938C193.555 336.625 194.484 338.906 194.484 341.781ZM190.945 357.695C190.945 355.789 190.336 354.234 189.117 353.031C187.914 351.828 186.336 351.227 184.383 351.227C182.43 351.227 180.859 351.82 179.672 353.008C178.5 354.195 177.914 355.758 177.914 357.695C177.914 359.633 178.484 361.156 179.625 362.266C180.781 363.375 182.383 363.93 184.43 363.93C186.461 363.93 188.055 363.375 189.211 362.266C190.367 361.141 190.945 359.617 190.945 357.695ZM184.43 335.969C182.727 335.969 181.344 336.5 180.281 337.562C179.234 338.609 178.711 340.039 178.711 341.852C178.711 343.586 179.227 344.992 180.258 346.07C181.305 347.133 182.695 347.664 184.43 347.664C186.164 347.664 187.547 347.133 188.578 346.07C189.625 344.992 190.148 343.586 190.148 341.852C190.148 340.117 189.609 338.703 188.531 337.609C187.453 336.516 186.086 335.969 184.43 335.969Z" fill="#CD08D1"/>
</g>
<g id="35">
<path d="M485.141 347.828H488.398C490.445 347.797 492.055 347.258 493.227 346.211C494.398 345.164 494.984 343.75 494.984 341.969C494.984 337.969 492.992 335.969 489.008 335.969C487.133 335.969 485.633 336.508 484.508 337.586C483.398 338.648 482.844 340.062 482.844 341.828H478.508C478.508 339.125 479.492 336.883 481.461 335.102C483.445 333.305 485.961 332.406 489.008 332.406C492.227 332.406 494.75 333.258 496.578 334.961C498.406 336.664 499.32 339.031 499.32 342.062C499.32 343.547 498.836 344.984 497.867 346.375C496.914 347.766 495.609 348.805 493.953 349.492C495.828 350.086 497.273 351.07 498.289 352.445C499.32 353.82 499.836 355.5 499.836 357.484C499.836 360.547 498.836 362.977 496.836 364.773C494.836 366.57 492.234 367.469 489.031 367.469C485.828 367.469 483.219 366.602 481.203 364.867C479.203 363.133 478.203 360.844 478.203 358H482.562C482.562 359.797 483.148 361.234 484.32 362.312C485.492 363.391 487.062 363.93 489.031 363.93C491.125 363.93 492.727 363.383 493.836 362.289C494.945 361.195 495.5 359.625 495.5 357.578C495.5 355.594 494.891 354.07 493.672 353.008C492.453 351.945 490.695 351.398 488.398 351.367H485.141V347.828Z" fill="#CD08D1"/>
<path d="M507.781 349.891L509.516 332.875H527V336.883H513.195L512.164 346.188C513.836 345.203 515.734 344.711 517.859 344.711C520.969 344.711 523.438 345.742 525.266 347.805C527.094 349.852 528.008 352.625 528.008 356.125C528.008 359.641 527.055 362.414 525.148 364.445C523.258 366.461 520.609 367.469 517.203 367.469C514.188 367.469 511.727 366.633 509.82 364.961C507.914 363.289 506.828 360.977 506.562 358.023H510.664C510.93 359.977 511.625 361.453 512.75 362.453C513.875 363.438 515.359 363.93 517.203 363.93C519.219 363.93 520.797 363.242 521.938 361.867C523.094 360.492 523.672 358.594 523.672 356.172C523.672 353.891 523.047 352.062 521.797 350.688C520.562 349.297 518.914 348.602 516.852 348.602C514.961 348.602 513.477 349.016 512.398 349.844L511.25 350.781L507.781 349.891Z" fill="#CD08D1"/>
</g>
<g id="19">
<path d="M849.141 298.539H853.875V302.078H849.141V310H844.781V302.078H829.242V299.523L844.523 275.875H849.141V298.539ZM834.164 298.539H844.781V281.805L844.266 282.742L834.164 298.539Z" fill="#CD08D1"/>
<path d="M879.188 295.445C879.188 300.523 878.32 304.297 876.586 306.766C874.852 309.234 872.141 310.469 868.453 310.469C864.812 310.469 862.117 309.266 860.367 306.859C858.617 304.438 857.711 300.828 857.648 296.031V290.242C857.648 285.227 858.516 281.5 860.25 279.062C861.984 276.625 864.703 275.406 868.406 275.406C872.078 275.406 874.781 276.586 876.516 278.945C878.25 281.289 879.141 284.914 879.188 289.82V295.445ZM874.852 289.516C874.852 285.844 874.336 283.172 873.305 281.5C872.273 279.812 870.641 278.969 868.406 278.969C866.188 278.969 864.57 279.805 863.555 281.477C862.539 283.148 862.016 285.719 861.984 289.188V296.125C861.984 299.812 862.516 302.539 863.578 304.305C864.656 306.055 866.281 306.93 868.453 306.93C870.594 306.93 872.18 306.102 873.211 304.445C874.258 302.789 874.805 300.18 874.852 296.617V289.516Z" fill="#CD08D1"/>
</g>
<g id="17">
<path d="M497.141 241.539H501.875V245.078H497.141V253H492.781V245.078H477.242V242.523L492.523 218.875H497.141V241.539ZM482.164 241.539H492.781V224.805L492.266 225.742L482.164 241.539Z" fill="#CD08D1"/>
<path d="M527.82 221.312L513.688 253H509.141L523.227 222.438H504.758V218.875H527.82V221.312Z" fill="#CD08D1"/>
</g>
<g id="flecha">
<path id="Rectangle 2" d="M735.2 250.008L750.482 258.133L708.5 337.089L693.218 328.963L735.2 250.008Z" fill="#1043F5"/>
<path id="Rectangle 1" d="M677 262.904L767 213V270.692L722 253.096L677 262.904Z" fill="#1043F5"/>
<path id="Rectangle 3" d="M681.038 332.21L696.666 305.143L713.936 304.565L698.309 331.632L681.038 332.21Z" fill="#1043F5"/>
<path id="Rectangle 4_2" d="M707.089 346.845L722.717 319.778L713.926 304.154L698.299 331.221L707.089 346.845Z" fill="#1043F5"/>
</g>
</g>
<g id="enun01">
<path id="Rectangle 1_2" d="M65 0H877.539L946 78.3561L877.539 159H65V0Z" fill="#02071A"/>
<path id="Rectangle 1 (Stroke)" fill-rule="evenodd" clip-rule="evenodd" d="M875.722 4H69V155H875.688L940.721 78.3937L875.722 4ZM877.539 0H65V159H877.539L946 78.3561L877.539 0Z" fill="#CD08D1"/>
<path id="Ellipse 1_2" d="M115 79C115 106.614 92.6142 129 65 129C37.3858 129 15 106.614 15 79C15 51.3858 37.3858 29 65 29C92.6142 29 115 51.3858 115 79Z" fill="#CD08D1"/>
<path id="Ellipse 1 (Stroke)" fill-rule="evenodd" clip-rule="evenodd" d="M65 128C92.062 128 114 106.062 114 79C114 51.938 92.062 30 65 30C37.938 30 16 51.938 16 79C16 106.062 37.938 128 65 128ZM65 129C92.6142 129 115 106.614 115 79C115 51.3858 92.6142 29 65 29C37.3858 29 15 51.3858 15 79C15 106.614 37.3858 129 65 129Z" fill="black"/>
<g id="Se divide una soga de 200 metros en partes iguales mediante 4 cortes. &#194;&#191;Cu&#195;&#161;nto mide cada pedazo?">
<path d="M152.512 36.5918C149.617 35.7598 147.508 34.7402 146.184 33.5332C144.871 32.3145 144.215 30.8145 144.215 29.0332C144.215 27.0176 145.018 25.3535 146.623 24.041C148.24 22.7168 150.338 22.0547 152.916 22.0547C154.674 22.0547 156.238 22.3945 157.609 23.0742C158.992 23.7539 160.059 24.6914 160.809 25.8867C161.57 27.082 161.951 28.3887 161.951 29.8066H158.559C158.559 28.2598 158.066 27.0469 157.082 26.168C156.098 25.2773 154.709 24.832 152.916 24.832C151.252 24.832 149.951 25.2012 149.014 25.9395C148.088 26.666 147.625 27.6797 147.625 28.9805C147.625 30.0234 148.064 30.9082 148.943 31.6348C149.834 32.3496 151.34 33.0059 153.461 33.6035C155.594 34.2012 157.258 34.8633 158.453 35.5898C159.66 36.3047 160.551 37.1426 161.125 38.1035C161.711 39.0645 162.004 40.1953 162.004 41.4961C162.004 43.5703 161.195 45.2344 159.578 46.4883C157.961 47.7305 155.799 48.3516 153.092 48.3516C151.334 48.3516 149.693 48.0176 148.17 47.3496C146.646 46.6699 145.469 45.7441 144.637 44.5723C143.816 43.4004 143.406 42.0703 143.406 40.582H146.799C146.799 42.1289 147.367 43.3535 148.504 44.2559C149.652 45.1465 151.182 45.5918 153.092 45.5918C154.873 45.5918 156.238 45.2285 157.188 44.502C158.137 43.7754 158.611 42.7852 158.611 41.5312C158.611 40.2773 158.172 39.3105 157.293 38.6309C156.414 37.9395 154.82 37.2598 152.512 36.5918Z" fill="white"/>
<path d="M173.729 48.3516C171.15 48.3516 169.053 47.5078 167.436 45.8203C165.818 44.1211 165.01 41.8535 165.01 39.0176V38.4199C165.01 36.5332 165.367 34.8516 166.082 33.375C166.809 31.8867 167.816 30.7266 169.105 29.8945C170.406 29.0508 171.812 28.6289 173.324 28.6289C175.797 28.6289 177.719 29.4434 179.09 31.0723C180.461 32.7012 181.146 35.0332 181.146 38.0684V39.4219H168.262C168.309 41.2969 168.854 42.8145 169.896 43.9746C170.951 45.123 172.287 45.6973 173.904 45.6973C175.053 45.6973 176.025 45.4629 176.822 44.9941C177.619 44.5254 178.316 43.9043 178.914 43.1309L180.9 44.6777C179.307 47.127 176.916 48.3516 173.729 48.3516ZM173.324 31.3008C172.012 31.3008 170.91 31.7812 170.02 32.7422C169.129 33.6914 168.578 35.0273 168.367 36.75H177.895V36.5039C177.801 34.8516 177.355 33.5742 176.559 32.6719C175.762 31.7578 174.684 31.3008 173.324 31.3008Z" fill="white"/>
<path d="M193.064 38.332C193.064 35.4141 193.756 33.0703 195.139 31.3008C196.521 29.5195 198.332 28.6289 200.57 28.6289C202.797 28.6289 204.561 29.3906 205.861 30.9141V21H209.113V48H206.125L205.967 45.9609C204.666 47.5547 202.855 48.3516 200.535 48.3516C198.332 48.3516 196.533 47.4492 195.139 45.6445C193.756 43.8398 193.064 41.4844 193.064 38.5781V38.332ZM196.316 38.7012C196.316 40.8574 196.762 42.5449 197.652 43.7637C198.543 44.9824 199.773 45.5918 201.344 45.5918C203.406 45.5918 204.912 44.666 205.861 42.8145V34.0781C204.889 32.2852 203.395 31.3887 201.379 31.3887C199.785 31.3887 198.543 32.0039 197.652 33.2344C196.762 34.4648 196.316 36.2871 196.316 38.7012Z" fill="white"/>
<path d="M217.709 48H214.457V28.9805H217.709V48ZM214.193 23.9355C214.193 23.4082 214.352 22.9629 214.668 22.5996C214.996 22.2363 215.477 22.0547 216.109 22.0547C216.742 22.0547 217.223 22.2363 217.551 22.5996C217.879 22.9629 218.043 23.4082 218.043 23.9355C218.043 24.4629 217.879 24.9023 217.551 25.2539C217.223 25.6055 216.742 25.7812 216.109 25.7812C215.477 25.7812 214.996 25.6055 214.668 25.2539C214.352 24.9023 214.193 24.4629 214.193 23.9355Z" fill="white"/>
<path d="M229.205 43.5879L233.916 28.9805H237.238L230.418 48H227.939L221.049 28.9805H224.371L229.205 43.5879Z" fill="white"/>
<path d="M243.9 48H240.648V28.9805H243.9V48ZM240.385 23.9355C240.385 23.4082 240.543 22.9629 240.859 22.5996C241.188 22.2363 241.668 22.0547 242.301 22.0547C242.934 22.0547 243.414 22.2363 243.742 22.5996C244.07 22.9629 244.234 23.4082 244.234 23.9355C244.234 24.4629 244.07 24.9023 243.742 25.2539C243.414 25.6055 242.934 25.7812 242.301 25.7812C241.668 25.7812 241.188 25.6055 240.859 25.2539C240.543 24.9023 240.385 24.4629 240.385 23.9355Z" fill="white"/>
<path d="M248.33 38.332C248.33 35.4141 249.021 33.0703 250.404 31.3008C251.787 29.5195 253.598 28.6289 255.836 28.6289C258.062 28.6289 259.826 29.3906 261.127 30.9141V21H264.379V48H261.391L261.232 45.9609C259.932 47.5547 258.121 48.3516 255.801 48.3516C253.598 48.3516 251.799 47.4492 250.404 45.6445C249.021 43.8398 248.33 41.4844 248.33 38.5781V38.332ZM251.582 38.7012C251.582 40.8574 252.027 42.5449 252.918 43.7637C253.809 44.9824 255.039 45.5918 256.609 45.5918C258.672 45.5918 260.178 44.666 261.127 42.8145V34.0781C260.154 32.2852 258.66 31.3887 256.645 31.3887C255.051 31.3887 253.809 32.0039 252.918 33.2344C252.027 34.4648 251.582 36.2871 251.582 38.7012Z" fill="white"/>
<path d="M277.334 48.3516C274.756 48.3516 272.658 47.5078 271.041 45.8203C269.424 44.1211 268.615 41.8535 268.615 39.0176V38.4199C268.615 36.5332 268.973 34.8516 269.688 33.375C270.414 31.8867 271.422 30.7266 272.711 29.8945C274.012 29.0508 275.418 28.6289 276.93 28.6289C279.402 28.6289 281.324 29.4434 282.695 31.0723C284.066 32.7012 284.752 35.0332 284.752 38.0684V39.4219H271.867C271.914 41.2969 272.459 42.8145 273.502 43.9746C274.557 45.123 275.893 45.6973 277.51 45.6973C278.658 45.6973 279.631 45.4629 280.428 44.9941C281.225 44.5254 281.922 43.9043 282.52 43.1309L284.506 44.6777C282.912 47.127 280.521 48.3516 277.334 48.3516ZM276.93 31.3008C275.617 31.3008 274.516 31.7812 273.625 32.7422C272.734 33.6914 272.184 35.0273 271.973 36.75H281.5V36.5039C281.406 34.8516 280.961 33.5742 280.164 32.6719C279.367 31.7578 278.289 31.3008 276.93 31.3008Z" fill="white"/>
<path d="M309.203 46.1191C307.938 47.6074 306.08 48.3516 303.631 48.3516C301.604 48.3516 300.057 47.7656 298.99 46.5938C297.936 45.4102 297.402 43.6641 297.391 41.3555V28.9805H300.643V41.2676C300.643 44.1504 301.814 45.5918 304.158 45.5918C306.643 45.5918 308.295 44.666 309.115 42.8145V28.9805H312.367V48H309.273L309.203 46.1191Z" fill="white"/>
<path d="M320.4 28.9805L320.506 31.3711C321.959 29.543 323.857 28.6289 326.201 28.6289C330.221 28.6289 332.248 30.8965 332.283 35.4316V48H329.031V35.4141C329.02 34.043 328.703 33.0293 328.082 32.373C327.473 31.7168 326.518 31.3887 325.217 31.3887C324.162 31.3887 323.236 31.6699 322.439 32.2324C321.643 32.7949 321.021 33.5332 320.576 34.4473V48H317.324V28.9805H320.4Z" fill="white"/>
<path d="M348.93 48C348.742 47.625 348.59 46.957 348.473 45.9961C346.961 47.5664 345.156 48.3516 343.059 48.3516C341.184 48.3516 339.643 47.8242 338.436 46.7695C337.24 45.7031 336.643 44.3555 336.643 42.7266C336.643 40.7461 337.393 39.2109 338.893 38.1211C340.404 37.0195 342.525 36.4688 345.256 36.4688H348.42V34.9746C348.42 33.8379 348.08 32.9355 347.4 32.2676C346.721 31.5879 345.719 31.248 344.395 31.248C343.234 31.248 342.262 31.541 341.477 32.127C340.691 32.7129 340.299 33.4219 340.299 34.2539H337.029C337.029 33.3047 337.363 32.3906 338.031 31.5117C338.711 30.6211 339.625 29.918 340.773 29.4023C341.934 28.8867 343.205 28.6289 344.588 28.6289C346.779 28.6289 348.496 29.1797 349.738 30.2812C350.98 31.3711 351.625 32.877 351.672 34.7988V43.5527C351.672 45.2988 351.895 46.6875 352.34 47.7188V48H348.93ZM343.533 45.5215C344.553 45.5215 345.52 45.2578 346.434 44.7305C347.348 44.2031 348.01 43.5176 348.42 42.6738V38.7715H345.871C341.887 38.7715 339.895 39.9375 339.895 42.2695C339.895 43.2891 340.234 44.0859 340.914 44.6602C341.594 45.2344 342.467 45.5215 343.533 45.5215Z" fill="white"/>
<path d="M376.773 42.9551C376.773 42.0762 376.439 41.3965 375.771 40.916C375.115 40.4238 373.961 40.002 372.309 39.6504C370.668 39.2988 369.361 38.877 368.389 38.3848C367.428 37.8926 366.713 37.3066 366.244 36.627C365.787 35.9473 365.559 35.1387 365.559 34.2012C365.559 32.6426 366.215 31.3242 367.527 30.2461C368.852 29.168 370.539 28.6289 372.59 28.6289C374.746 28.6289 376.492 29.1855 377.828 30.2988C379.176 31.4121 379.85 32.8359 379.85 34.5703H376.58C376.58 33.6797 376.199 32.9121 375.438 32.2676C374.688 31.623 373.738 31.3008 372.59 31.3008C371.406 31.3008 370.48 31.5586 369.812 32.0742C369.145 32.5898 368.811 33.2637 368.811 34.0957C368.811 34.8809 369.121 35.4727 369.742 35.8711C370.363 36.2695 371.482 36.6504 373.1 37.0137C374.729 37.377 376.047 37.8105 377.055 38.3145C378.062 38.8184 378.807 39.4277 379.287 40.1426C379.779 40.8457 380.025 41.707 380.025 42.7266C380.025 44.4258 379.346 45.791 377.986 46.8223C376.627 47.8418 374.863 48.3516 372.695 48.3516C371.172 48.3516 369.824 48.082 368.652 47.543C367.48 47.0039 366.561 46.2539 365.893 45.293C365.236 44.3203 364.908 43.2715 364.908 42.1465H368.16C368.219 43.2363 368.652 44.1035 369.461 44.748C370.281 45.3809 371.359 45.6973 372.695 45.6973C373.926 45.6973 374.91 45.4512 375.648 44.959C376.398 44.4551 376.773 43.7871 376.773 42.9551Z" fill="white"/>
<path d="M383.4 38.3145C383.4 36.4512 383.764 34.7754 384.49 33.2871C385.229 31.7988 386.248 30.6504 387.549 29.8418C388.861 29.0332 390.355 28.6289 392.031 28.6289C394.621 28.6289 396.713 29.5254 398.307 31.3184C399.912 33.1113 400.715 35.4961 400.715 38.4727V38.7012C400.715 40.5527 400.357 42.2168 399.643 43.6934C398.939 45.1582 397.926 46.3008 396.602 47.1211C395.289 47.9414 393.777 48.3516 392.066 48.3516C389.488 48.3516 387.396 47.4551 385.791 45.6621C384.197 43.8691 383.4 41.4961 383.4 38.543V38.3145ZM386.67 38.7012C386.67 40.8105 387.156 42.5039 388.129 43.7812C389.113 45.0586 390.426 45.6973 392.066 45.6973C393.719 45.6973 395.031 45.0527 396.004 43.7637C396.977 42.4629 397.463 40.6465 397.463 38.3145C397.463 36.2285 396.965 34.541 395.969 33.252C394.984 31.9512 393.672 31.3008 392.031 31.3008C390.426 31.3008 389.131 31.9395 388.146 33.2168C387.162 34.4941 386.67 36.3223 386.67 38.7012Z" fill="white"/>
<path d="M404.02 38.332C404.02 35.3672 404.705 33.0117 406.076 31.2656C407.447 29.5078 409.264 28.6289 411.525 28.6289C413.846 28.6289 415.656 29.4492 416.957 31.0898L417.115 28.9805H420.086V47.543C420.086 50.0039 419.354 51.9434 417.889 53.3613C416.436 54.7793 414.479 55.4883 412.018 55.4883C410.646 55.4883 409.305 55.1953 407.992 54.6094C406.68 54.0234 405.678 53.2207 404.986 52.2012L406.674 50.25C408.068 51.9727 409.773 52.834 411.789 52.834C413.371 52.834 414.602 52.3887 415.48 51.498C416.371 50.6074 416.816 49.3535 416.816 47.7363V46.1016C415.516 47.6016 413.74 48.3516 411.49 48.3516C409.264 48.3516 407.459 47.4551 406.076 45.6621C404.705 43.8691 404.02 41.4258 404.02 38.332ZM407.289 38.7012C407.289 40.8457 407.729 42.5332 408.607 43.7637C409.486 44.9824 410.717 45.5918 412.299 45.5918C414.35 45.5918 415.855 44.6602 416.816 42.7969V34.1133C415.82 32.2969 414.326 31.3887 412.334 31.3887C410.752 31.3887 409.516 32.0039 408.625 33.2344C407.734 34.4648 407.289 36.2871 407.289 38.7012Z" fill="white"/>
<path d="M436.75 48C436.562 47.625 436.41 46.957 436.293 45.9961C434.781 47.5664 432.977 48.3516 430.879 48.3516C429.004 48.3516 427.463 47.8242 426.256 46.7695C425.061 45.7031 424.463 44.3555 424.463 42.7266C424.463 40.7461 425.213 39.2109 426.713 38.1211C428.225 37.0195 430.346 36.4688 433.076 36.4688H436.24V34.9746C436.24 33.8379 435.9 32.9355 435.221 32.2676C434.541 31.5879 433.539 31.248 432.215 31.248C431.055 31.248 430.082 31.541 429.297 32.127C428.512 32.7129 428.119 33.4219 428.119 34.2539H424.85C424.85 33.3047 425.184 32.3906 425.852 31.5117C426.531 30.6211 427.445 29.918 428.594 29.4023C429.754 28.8867 431.025 28.6289 432.408 28.6289C434.6 28.6289 436.316 29.1797 437.559 30.2812C438.801 31.3711 439.445 32.877 439.492 34.7988V43.5527C439.492 45.2988 439.715 46.6875 440.16 47.7188V48H436.75ZM431.354 45.5215C432.373 45.5215 433.34 45.2578 434.254 44.7305C435.168 44.2031 435.83 43.5176 436.24 42.6738V38.7715H433.691C429.707 38.7715 427.715 39.9375 427.715 42.2695C427.715 43.2891 428.055 44.0859 428.734 44.6602C429.414 45.2344 430.287 45.5215 431.354 45.5215Z" fill="white"/>
<path d="M452.729 38.332C452.729 35.4141 453.42 33.0703 454.803 31.3008C456.186 29.5195 457.996 28.6289 460.234 28.6289C462.461 28.6289 464.225 29.3906 465.525 30.9141V21H468.777V48H465.789L465.631 45.9609C464.33 47.5547 462.52 48.3516 460.199 48.3516C457.996 48.3516 456.197 47.4492 454.803 45.6445C453.42 43.8398 452.729 41.4844 452.729 38.5781V38.332ZM455.98 38.7012C455.98 40.8574 456.426 42.5449 457.316 43.7637C458.207 44.9824 459.438 45.5918 461.008 45.5918C463.07 45.5918 464.576 44.666 465.525 42.8145V34.0781C464.553 32.2852 463.059 31.3887 461.043 31.3887C459.449 31.3887 458.207 32.0039 457.316 33.2344C456.426 34.4648 455.98 36.2871 455.98 38.7012Z" fill="white"/>
<path d="M481.732 48.3516C479.154 48.3516 477.057 47.5078 475.439 45.8203C473.822 44.1211 473.014 41.8535 473.014 39.0176V38.4199C473.014 36.5332 473.371 34.8516 474.086 33.375C474.812 31.8867 475.82 30.7266 477.109 29.8945C478.41 29.0508 479.816 28.6289 481.328 28.6289C483.801 28.6289 485.723 29.4434 487.094 31.0723C488.465 32.7012 489.15 35.0332 489.15 38.0684V39.4219H476.266C476.312 41.2969 476.857 42.8145 477.9 43.9746C478.955 45.123 480.291 45.6973 481.908 45.6973C483.057 45.6973 484.029 45.4629 484.826 44.9941C485.623 44.5254 486.32 43.9043 486.918 43.1309L488.904 44.6777C487.311 47.127 484.92 48.3516 481.732 48.3516ZM481.328 31.3008C480.016 31.3008 478.914 31.7812 478.023 32.7422C477.133 33.6914 476.582 35.0273 476.371 36.75H485.898V36.5039C485.805 34.8516 485.359 33.5742 484.562 32.6719C483.766 31.7578 482.688 31.3008 481.328 31.3008Z" fill="white"/>
<path d="M518.295 48H501.525V45.6621L510.385 35.8184C511.697 34.3301 512.6 33.123 513.092 32.1973C513.596 31.2598 513.848 30.293 513.848 29.2969C513.848 27.9609 513.443 26.8652 512.635 26.0098C511.826 25.1543 510.748 24.7266 509.4 24.7266C507.783 24.7266 506.523 25.1895 505.621 26.1152C504.73 27.0293 504.285 28.3066 504.285 29.9473H501.033C501.033 27.5918 501.789 25.6875 503.301 24.2344C504.824 22.7812 506.857 22.0547 509.4 22.0547C511.779 22.0547 513.66 22.6816 515.043 23.9355C516.426 25.1777 517.117 26.8359 517.117 28.9102C517.117 31.4297 515.512 34.4297 512.301 37.9102L505.445 45.3457H518.295V48Z" fill="white"/>
<path d="M537.789 37.084C537.789 40.8926 537.139 43.7227 535.838 45.5742C534.537 47.4258 532.504 48.3516 529.738 48.3516C527.008 48.3516 524.986 47.4492 523.674 45.6445C522.361 43.8281 521.682 41.1211 521.635 37.5234V33.1816C521.635 29.4199 522.285 26.625 523.586 24.7969C524.887 22.9688 526.926 22.0547 529.703 22.0547C532.457 22.0547 534.484 22.9395 535.785 24.709C537.086 26.4668 537.754 29.1855 537.789 32.8652V37.084ZM534.537 32.6367C534.537 29.8828 534.15 27.8789 533.377 26.625C532.604 25.3594 531.379 24.7266 529.703 24.7266C528.039 24.7266 526.826 25.3535 526.064 26.6074C525.303 27.8613 524.91 29.7891 524.887 32.3906V37.5938C524.887 40.3594 525.285 42.4043 526.082 43.7285C526.891 45.041 528.109 45.6973 529.738 45.6973C531.344 45.6973 532.533 45.0762 533.307 43.834C534.092 42.5918 534.502 40.6348 534.537 37.9629V32.6367Z" fill="white"/>
<path d="M558.004 37.084C558.004 40.8926 557.354 43.7227 556.053 45.5742C554.752 47.4258 552.719 48.3516 549.953 48.3516C547.223 48.3516 545.201 47.4492 543.889 45.6445C542.576 43.8281 541.896 41.1211 541.85 37.5234V33.1816C541.85 29.4199 542.5 26.625 543.801 24.7969C545.102 22.9688 547.141 22.0547 549.918 22.0547C552.672 22.0547 554.699 22.9395 556 24.709C557.301 26.4668 557.969 29.1855 558.004 32.8652V37.084ZM554.752 32.6367C554.752 29.8828 554.365 27.8789 553.592 26.625C552.818 25.3594 551.594 24.7266 549.918 24.7266C548.254 24.7266 547.041 25.3535 546.279 26.6074C545.518 27.8613 545.125 29.7891 545.102 32.3906V37.5938C545.102 40.3594 545.5 42.4043 546.297 43.7285C547.105 45.041 548.324 45.6973 549.953 45.6973C551.559 45.6973 552.748 45.0762 553.521 43.834C554.307 42.5918 554.717 40.6348 554.752 37.9629V32.6367Z" fill="white"/>
<path d="M574.492 28.9805L574.58 31.0898C575.975 29.4492 577.855 28.6289 580.223 28.6289C582.883 28.6289 584.693 29.6484 585.654 31.6875C586.287 30.7734 587.107 30.0352 588.115 29.4727C589.135 28.9102 590.336 28.6289 591.719 28.6289C595.891 28.6289 598.012 30.8379 598.082 35.2559V48H594.83V35.4492C594.83 34.0898 594.52 33.0762 593.898 32.4082C593.277 31.7285 592.234 31.3887 590.77 31.3887C589.562 31.3887 588.561 31.752 587.764 32.4785C586.967 33.1934 586.504 34.1602 586.375 35.3789V48H583.105V35.5371C583.105 32.7715 581.752 31.3887 579.045 31.3887C576.912 31.3887 575.453 32.2969 574.668 34.1133V48H571.416V28.9805H574.492Z" fill="white"/>
<path d="M610.896 48.3516C608.318 48.3516 606.221 47.5078 604.604 45.8203C602.986 44.1211 602.178 41.8535 602.178 39.0176V38.4199C602.178 36.5332 602.535 34.8516 603.25 33.375C603.977 31.8867 604.984 30.7266 606.273 29.8945C607.574 29.0508 608.98 28.6289 610.492 28.6289C612.965 28.6289 614.887 29.4434 616.258 31.0723C617.629 32.7012 618.314 35.0332 618.314 38.0684V39.4219H605.43C605.477 41.2969 606.021 42.8145 607.064 43.9746C608.119 45.123 609.455 45.6973 611.072 45.6973C612.221 45.6973 613.193 45.4629 613.99 44.9941C614.787 44.5254 615.484 43.9043 616.082 43.1309L618.068 44.6777C616.475 47.127 614.084 48.3516 610.896 48.3516ZM610.492 31.3008C609.18 31.3008 608.078 31.7812 607.188 32.7422C606.297 33.6914 605.746 35.0273 605.535 36.75H615.062V36.5039C614.969 34.8516 614.523 33.5742 613.727 32.6719C612.93 31.7578 611.852 31.3008 610.492 31.3008Z" fill="white"/>
<path d="M626.506 24.375V28.9805H630.057V31.4941H626.506V43.2891C626.506 44.0508 626.664 44.625 626.98 45.0117C627.297 45.3867 627.836 45.5742 628.598 45.5742C628.973 45.5742 629.488 45.5039 630.145 45.3633V48C629.289 48.2344 628.457 48.3516 627.648 48.3516C626.195 48.3516 625.1 47.9121 624.361 47.0332C623.623 46.1543 623.254 44.9062 623.254 43.2891V31.4941H619.791V28.9805H623.254V24.375H626.506Z" fill="white"/>
<path d="M643.064 31.8984C642.572 31.8164 642.039 31.7754 641.465 31.7754C639.332 31.7754 637.885 32.6836 637.123 34.5V48H633.871V28.9805H637.035L637.088 31.1777C638.154 29.4785 639.666 28.6289 641.623 28.6289C642.256 28.6289 642.736 28.7109 643.064 28.875V31.8984Z" fill="white"/>
<path d="M644.857 38.3145C644.857 36.4512 645.221 34.7754 645.947 33.2871C646.686 31.7988 647.705 30.6504 649.006 29.8418C650.318 29.0332 651.812 28.6289 653.488 28.6289C656.078 28.6289 658.17 29.5254 659.764 31.3184C661.369 33.1113 662.172 35.4961 662.172 38.4727V38.7012C662.172 40.5527 661.814 42.2168 661.1 43.6934C660.396 45.1582 659.383 46.3008 658.059 47.1211C656.746 47.9414 655.234 48.3516 653.523 48.3516C650.945 48.3516 648.854 47.4551 647.248 45.6621C645.654 43.8691 644.857 41.4961 644.857 38.543V38.3145ZM648.127 38.7012C648.127 40.8105 648.613 42.5039 649.586 43.7812C650.57 45.0586 651.883 45.6973 653.523 45.6973C655.176 45.6973 656.488 45.0527 657.461 43.7637C658.434 42.4629 658.92 40.6465 658.92 38.3145C658.92 36.2285 658.422 34.541 657.426 33.252C656.441 31.9512 655.129 31.3008 653.488 31.3008C651.883 31.3008 650.588 31.9395 649.604 33.2168C648.619 34.4941 648.127 36.3223 648.127 38.7012Z" fill="white"/>
<path d="M677.324 42.9551C677.324 42.0762 676.99 41.3965 676.322 40.916C675.666 40.4238 674.512 40.002 672.859 39.6504C671.219 39.2988 669.912 38.877 668.939 38.3848C667.979 37.8926 667.264 37.3066 666.795 36.627C666.338 35.9473 666.109 35.1387 666.109 34.2012C666.109 32.6426 666.766 31.3242 668.078 30.2461C669.402 29.168 671.09 28.6289 673.141 28.6289C675.297 28.6289 677.043 29.1855 678.379 30.2988C679.727 31.4121 680.4 32.8359 680.4 34.5703H677.131C677.131 33.6797 676.75 32.9121 675.988 32.2676C675.238 31.623 674.289 31.3008 673.141 31.3008C671.957 31.3008 671.031 31.5586 670.363 32.0742C669.695 32.5898 669.361 33.2637 669.361 34.0957C669.361 34.8809 669.672 35.4727 670.293 35.8711C670.914 36.2695 672.033 36.6504 673.65 37.0137C675.279 37.377 676.598 37.8105 677.605 38.3145C678.613 38.8184 679.357 39.4277 679.838 40.1426C680.33 40.8457 680.576 41.707 680.576 42.7266C680.576 44.4258 679.896 45.791 678.537 46.8223C677.178 47.8418 675.414 48.3516 673.246 48.3516C671.723 48.3516 670.375 48.082 669.203 47.543C668.031 47.0039 667.111 46.2539 666.443 45.293C665.787 44.3203 665.459 43.2715 665.459 42.1465H668.711C668.77 43.2363 669.203 44.1035 670.012 44.748C670.832 45.3809 671.91 45.6973 673.246 45.6973C674.477 45.6973 675.461 45.4512 676.199 44.959C676.949 44.4551 677.324 43.7871 677.324 42.9551Z" fill="white"/>
<path d="M701.635 48.3516C699.057 48.3516 696.959 47.5078 695.342 45.8203C693.725 44.1211 692.916 41.8535 692.916 39.0176V38.4199C692.916 36.5332 693.273 34.8516 693.988 33.375C694.715 31.8867 695.723 30.7266 697.012 29.8945C698.312 29.0508 699.719 28.6289 701.23 28.6289C703.703 28.6289 705.625 29.4434 706.996 31.0723C708.367 32.7012 709.053 35.0332 709.053 38.0684V39.4219H696.168C696.215 41.2969 696.76 42.8145 697.803 43.9746C698.857 45.123 700.193 45.6973 701.811 45.6973C702.959 45.6973 703.932 45.4629 704.729 44.9941C705.525 44.5254 706.223 43.9043 706.82 43.1309L708.807 44.6777C707.213 47.127 704.822 48.3516 701.635 48.3516ZM701.23 31.3008C699.918 31.3008 698.816 31.7812 697.926 32.7422C697.035 33.6914 696.484 35.0273 696.273 36.75H705.801V36.5039C705.707 34.8516 705.262 33.5742 704.465 32.6719C703.668 31.7578 702.59 31.3008 701.23 31.3008Z" fill="white"/>
<path d="M715.908 28.9805L716.014 31.3711C717.467 29.543 719.365 28.6289 721.709 28.6289C725.729 28.6289 727.756 30.8965 727.791 35.4316V48H724.539V35.4141C724.527 34.043 724.211 33.0293 723.59 32.373C722.98 31.7168 722.025 31.3887 720.725 31.3887C719.67 31.3887 718.744 31.6699 717.947 32.2324C717.15 32.7949 716.529 33.5332 716.084 34.4473V48H712.832V28.9805H715.908Z" fill="white"/>
<path d="M757.691 38.7012C757.691 41.5957 757.029 43.9277 755.705 45.6973C754.381 47.4668 752.588 48.3516 750.326 48.3516C748.018 48.3516 746.201 47.6191 744.877 46.1543V55.3125H741.625V28.9805H744.596L744.754 31.0898C746.078 29.4492 747.918 28.6289 750.273 28.6289C752.559 28.6289 754.363 29.4902 755.688 31.2129C757.023 32.9355 757.691 35.332 757.691 38.4023V38.7012ZM754.439 38.332C754.439 36.1875 753.982 34.4941 753.068 33.252C752.154 32.0098 750.9 31.3887 749.307 31.3887C747.338 31.3887 745.861 32.2617 744.877 34.0078V43.0957C745.85 44.8301 747.338 45.6973 749.342 45.6973C750.9 45.6973 752.137 45.082 753.051 43.8516C753.977 42.6094 754.439 40.7695 754.439 38.332Z" fill="white"/>
<path d="M773.582 48C773.395 47.625 773.242 46.957 773.125 45.9961C771.613 47.5664 769.809 48.3516 767.711 48.3516C765.836 48.3516 764.295 47.8242 763.088 46.7695C761.893 45.7031 761.295 44.3555 761.295 42.7266C761.295 40.7461 762.045 39.2109 763.545 38.1211C765.057 37.0195 767.178 36.4688 769.908 36.4688H773.072V34.9746C773.072 33.8379 772.732 32.9355 772.053 32.2676C771.373 31.5879 770.371 31.248 769.047 31.248C767.887 31.248 766.914 31.541 766.129 32.127C765.344 32.7129 764.951 33.4219 764.951 34.2539H761.682C761.682 33.3047 762.016 32.3906 762.684 31.5117C763.363 30.6211 764.277 29.918 765.426 29.4023C766.586 28.8867 767.857 28.6289 769.24 28.6289C771.432 28.6289 773.148 29.1797 774.391 30.2812C775.633 31.3711 776.277 32.877 776.324 34.7988V43.5527C776.324 45.2988 776.547 46.6875 776.992 47.7188V48H773.582ZM768.186 45.5215C769.205 45.5215 770.172 45.2578 771.086 44.7305C772 44.2031 772.662 43.5176 773.072 42.6738V38.7715H770.523C766.539 38.7715 764.547 39.9375 764.547 42.2695C764.547 43.2891 764.887 44.0859 765.566 44.6602C766.246 45.2344 767.119 45.5215 768.186 45.5215Z" fill="white"/>
<path d="M790.615 31.8984C790.123 31.8164 789.59 31.7754 789.016 31.7754C786.883 31.7754 785.436 32.6836 784.674 34.5V48H781.422V28.9805H784.586L784.639 31.1777C785.705 29.4785 787.217 28.6289 789.174 28.6289C789.807 28.6289 790.287 28.7109 790.615 28.875V31.8984Z" fill="white"/>
<path d="M798.912 24.375V28.9805H802.463V31.4941H798.912V43.2891C798.912 44.0508 799.07 44.625 799.387 45.0117C799.703 45.3867 800.242 45.5742 801.004 45.5742C801.379 45.5742 801.895 45.5039 802.551 45.3633V48C801.695 48.2344 800.863 48.3516 800.055 48.3516C798.602 48.3516 797.506 47.9121 796.768 47.0332C796.029 46.1543 795.66 44.9062 795.66 43.2891V31.4941H792.197V28.9805H795.66V24.375H798.912Z" fill="white"/>
<path d="M814.17 48.3516C811.592 48.3516 809.494 47.5078 807.877 45.8203C806.26 44.1211 805.451 41.8535 805.451 39.0176V38.4199C805.451 36.5332 805.809 34.8516 806.523 33.375C807.25 31.8867 808.258 30.7266 809.547 29.8945C810.848 29.0508 812.254 28.6289 813.766 28.6289C816.238 28.6289 818.16 29.4434 819.531 31.0723C820.902 32.7012 821.588 35.0332 821.588 38.0684V39.4219H808.703C808.75 41.2969 809.295 42.8145 810.338 43.9746C811.393 45.123 812.729 45.6973 814.346 45.6973C815.494 45.6973 816.467 45.4629 817.264 44.9941C818.061 44.5254 818.758 43.9043 819.355 43.1309L821.342 44.6777C819.748 47.127 817.357 48.3516 814.17 48.3516ZM813.766 31.3008C812.453 31.3008 811.352 31.7812 810.461 32.7422C809.57 33.6914 809.02 35.0273 808.809 36.75H818.336V36.5039C818.242 34.8516 817.797 33.5742 817 32.6719C816.203 31.7578 815.125 31.3008 813.766 31.3008Z" fill="white"/>
<path d="M836.441 42.9551C836.441 42.0762 836.107 41.3965 835.439 40.916C834.783 40.4238 833.629 40.002 831.977 39.6504C830.336 39.2988 829.029 38.877 828.057 38.3848C827.096 37.8926 826.381 37.3066 825.912 36.627C825.455 35.9473 825.227 35.1387 825.227 34.2012C825.227 32.6426 825.883 31.3242 827.195 30.2461C828.52 29.168 830.207 28.6289 832.258 28.6289C834.414 28.6289 836.16 29.1855 837.496 30.2988C838.844 31.4121 839.518 32.8359 839.518 34.5703H836.248C836.248 33.6797 835.867 32.9121 835.105 32.2676C834.355 31.623 833.406 31.3008 832.258 31.3008C831.074 31.3008 830.148 31.5586 829.48 32.0742C828.812 32.5898 828.479 33.2637 828.479 34.0957C828.479 34.8809 828.789 35.4727 829.41 35.8711C830.031 36.2695 831.15 36.6504 832.768 37.0137C834.396 37.377 835.715 37.8105 836.723 38.3145C837.73 38.8184 838.475 39.4277 838.955 40.1426C839.447 40.8457 839.693 41.707 839.693 42.7266C839.693 44.4258 839.014 45.791 837.654 46.8223C836.295 47.8418 834.531 48.3516 832.363 48.3516C830.84 48.3516 829.492 48.082 828.32 47.543C827.148 47.0039 826.229 46.2539 825.561 45.293C824.904 44.3203 824.576 43.2715 824.576 42.1465H827.828C827.887 43.2363 828.32 44.1035 829.129 44.748C829.949 45.3809 831.027 45.6973 832.363 45.6973C833.594 45.6973 834.578 45.4512 835.316 44.959C836.066 44.4551 836.441 43.7871 836.441 42.9551Z" fill="white"/>
<path d="M147.994 88H144.742V68.9805H147.994V88ZM144.479 63.9355C144.479 63.4082 144.637 62.9629 144.953 62.5996C145.281 62.2363 145.762 62.0547 146.395 62.0547C147.027 62.0547 147.508 62.2363 147.836 62.5996C148.164 62.9629 148.328 63.4082 148.328 63.9355C148.328 64.4629 148.164 64.9023 147.836 65.2539C147.508 65.6055 147.027 65.7812 146.395 65.7812C145.762 65.7812 145.281 65.6055 144.953 65.2539C144.637 64.9023 144.479 64.4629 144.479 63.9355Z" fill="white"/>
<path d="M152.441 78.332C152.441 75.3672 153.127 73.0117 154.498 71.2656C155.869 69.5078 157.686 68.6289 159.947 68.6289C162.268 68.6289 164.078 69.4492 165.379 71.0898L165.537 68.9805H168.508V87.543C168.508 90.0039 167.775 91.9434 166.311 93.3613C164.857 94.7793 162.9 95.4883 160.439 95.4883C159.068 95.4883 157.727 95.1953 156.414 94.6094C155.102 94.0234 154.1 93.2207 153.408 92.2012L155.096 90.25C156.49 91.9727 158.195 92.834 160.211 92.834C161.793 92.834 163.023 92.3887 163.902 91.498C164.793 90.6074 165.238 89.3535 165.238 87.7363V86.1016C163.938 87.6016 162.162 88.3516 159.912 88.3516C157.686 88.3516 155.881 87.4551 154.498 85.6621C153.127 83.8691 152.441 81.4258 152.441 78.332ZM155.711 78.7012C155.711 80.8457 156.15 82.5332 157.029 83.7637C157.908 84.9824 159.139 85.5918 160.721 85.5918C162.771 85.5918 164.277 84.6602 165.238 82.7969V74.1133C164.242 72.2969 162.748 71.3887 160.756 71.3887C159.174 71.3887 157.938 72.0039 157.047 73.2344C156.156 74.4648 155.711 76.2871 155.711 78.7012Z" fill="white"/>
<path d="M185.172 86.1191C183.906 87.6074 182.049 88.3516 179.6 88.3516C177.572 88.3516 176.025 87.7656 174.959 86.5938C173.904 85.4102 173.371 83.6641 173.359 81.3555V68.9805H176.611V81.2676C176.611 84.1504 177.783 85.5918 180.127 85.5918C182.611 85.5918 184.264 84.666 185.084 82.8145V68.9805H188.336V88H185.242L185.172 86.1191Z" fill="white"/>
<path d="M205.035 88C204.848 87.625 204.695 86.957 204.578 85.9961C203.066 87.5664 201.262 88.3516 199.164 88.3516C197.289 88.3516 195.748 87.8242 194.541 86.7695C193.346 85.7031 192.748 84.3555 192.748 82.7266C192.748 80.7461 193.498 79.2109 194.998 78.1211C196.51 77.0195 198.631 76.4688 201.361 76.4688H204.525V74.9746C204.525 73.8379 204.186 72.9355 203.506 72.2676C202.826 71.5879 201.824 71.248 200.5 71.248C199.34 71.248 198.367 71.541 197.582 72.127C196.797 72.7129 196.404 73.4219 196.404 74.2539H193.135C193.135 73.3047 193.469 72.3906 194.137 71.5117C194.816 70.6211 195.73 69.918 196.879 69.4023C198.039 68.8867 199.311 68.6289 200.693 68.6289C202.885 68.6289 204.602 69.1797 205.844 70.2812C207.086 71.3711 207.73 72.877 207.777 74.7988V83.5527C207.777 85.2988 208 86.6875 208.445 87.7188V88H205.035ZM199.639 85.5215C200.658 85.5215 201.625 85.2578 202.539 84.7305C203.453 84.2031 204.115 83.5176 204.525 82.6738V78.7715H201.977C197.992 78.7715 196 79.9375 196 82.2695C196 83.2891 196.34 84.0859 197.02 84.6602C197.699 85.2344 198.572 85.5215 199.639 85.5215Z" fill="white"/>
<path d="M216.408 88H213.156V61H216.408V88Z" fill="white"/>
<path d="M229.521 88.3516C226.943 88.3516 224.846 87.5078 223.229 85.8203C221.611 84.1211 220.803 81.8535 220.803 79.0176V78.4199C220.803 76.5332 221.16 74.8516 221.875 73.375C222.602 71.8867 223.609 70.7266 224.898 69.8945C226.199 69.0508 227.605 68.6289 229.117 68.6289C231.59 68.6289 233.512 69.4434 234.883 71.0723C236.254 72.7012 236.939 75.0332 236.939 78.0684V79.4219H224.055C224.102 81.2969 224.646 82.8145 225.689 83.9746C226.744 85.123 228.08 85.6973 229.697 85.6973C230.846 85.6973 231.818 85.4629 232.615 84.9941C233.412 84.5254 234.109 83.9043 234.707 83.1309L236.693 84.6777C235.1 87.127 232.709 88.3516 229.521 88.3516ZM229.117 71.3008C227.805 71.3008 226.703 71.7812 225.812 72.7422C224.922 73.6914 224.371 75.0273 224.16 76.75H233.688V76.5039C233.594 74.8516 233.148 73.5742 232.352 72.6719C231.555 71.7578 230.477 71.3008 229.117 71.3008Z" fill="white"/>
<path d="M251.793 82.9551C251.793 82.0762 251.459 81.3965 250.791 80.916C250.135 80.4238 248.98 80.002 247.328 79.6504C245.688 79.2988 244.381 78.877 243.408 78.3848C242.447 77.8926 241.732 77.3066 241.264 76.627C240.807 75.9473 240.578 75.1387 240.578 74.2012C240.578 72.6426 241.234 71.3242 242.547 70.2461C243.871 69.168 245.559 68.6289 247.609 68.6289C249.766 68.6289 251.512 69.1855 252.848 70.2988C254.195 71.4121 254.869 72.8359 254.869 74.5703H251.6C251.6 73.6797 251.219 72.9121 250.457 72.2676C249.707 71.623 248.758 71.3008 247.609 71.3008C246.426 71.3008 245.5 71.5586 244.832 72.0742C244.164 72.5898 243.83 73.2637 243.83 74.0957C243.83 74.8809 244.141 75.4727 244.762 75.8711C245.383 76.2695 246.502 76.6504 248.119 77.0137C249.748 77.377 251.066 77.8105 252.074 78.3145C253.082 78.8184 253.826 79.4277 254.307 80.1426C254.799 80.8457 255.045 81.707 255.045 82.7266C255.045 84.4258 254.365 85.791 253.006 86.8223C251.646 87.8418 249.883 88.3516 247.715 88.3516C246.191 88.3516 244.844 88.082 243.672 87.543C242.5 87.0039 241.58 86.2539 240.912 85.293C240.256 84.3203 239.928 83.2715 239.928 82.1465H243.18C243.238 83.2363 243.672 84.1035 244.48 84.748C245.301 85.3809 246.379 85.6973 247.715 85.6973C248.945 85.6973 249.93 85.4512 250.668 84.959C251.418 84.4551 251.793 83.7871 251.793 82.9551Z" fill="white"/>
<path d="M271.27 68.9805L271.357 71.0898C272.752 69.4492 274.633 68.6289 277 68.6289C279.66 68.6289 281.471 69.6484 282.432 71.6875C283.064 70.7734 283.885 70.0352 284.893 69.4727C285.912 68.9102 287.113 68.6289 288.496 68.6289C292.668 68.6289 294.789 70.8379 294.859 75.2559V88H291.607V75.4492C291.607 74.0898 291.297 73.0762 290.676 72.4082C290.055 71.7285 289.012 71.3887 287.547 71.3887C286.34 71.3887 285.338 71.752 284.541 72.4785C283.744 73.1934 283.281 74.1602 283.152 75.3789V88H279.883V75.5371C279.883 72.7715 278.529 71.3887 275.822 71.3887C273.689 71.3887 272.23 72.2969 271.445 74.1133V88H268.193V68.9805H271.27Z" fill="white"/>
<path d="M307.674 88.3516C305.096 88.3516 302.998 87.5078 301.381 85.8203C299.764 84.1211 298.955 81.8535 298.955 79.0176V78.4199C298.955 76.5332 299.312 74.8516 300.027 73.375C300.754 71.8867 301.762 70.7266 303.051 69.8945C304.352 69.0508 305.758 68.6289 307.27 68.6289C309.742 68.6289 311.664 69.4434 313.035 71.0723C314.406 72.7012 315.092 75.0332 315.092 78.0684V79.4219H302.207C302.254 81.2969 302.799 82.8145 303.842 83.9746C304.896 85.123 306.232 85.6973 307.85 85.6973C308.998 85.6973 309.971 85.4629 310.768 84.9941C311.564 84.5254 312.262 83.9043 312.859 83.1309L314.846 84.6777C313.252 87.127 310.861 88.3516 307.674 88.3516ZM307.27 71.3008C305.957 71.3008 304.855 71.7812 303.965 72.7422C303.074 73.6914 302.523 75.0273 302.312 76.75H311.84V76.5039C311.746 74.8516 311.301 73.5742 310.504 72.6719C309.707 71.7578 308.629 71.3008 307.27 71.3008Z" fill="white"/>
<path d="M318.08 78.332C318.08 75.4141 318.771 73.0703 320.154 71.3008C321.537 69.5195 323.348 68.6289 325.586 68.6289C327.812 68.6289 329.576 69.3906 330.877 70.9141V61H334.129V88H331.141L330.982 85.9609C329.682 87.5547 327.871 88.3516 325.551 88.3516C323.348 88.3516 321.549 87.4492 320.154 85.6445C318.771 83.8398 318.08 81.4844 318.08 78.5781V78.332ZM321.332 78.7012C321.332 80.8574 321.777 82.5449 322.668 83.7637C323.559 84.9824 324.789 85.5918 326.359 85.5918C328.422 85.5918 329.928 84.666 330.877 82.8145V74.0781C329.904 72.2852 328.41 71.3887 326.395 71.3887C324.801 71.3887 323.559 72.0039 322.668 73.2344C321.777 74.4648 321.332 76.2871 321.332 78.7012Z" fill="white"/>
<path d="M342.725 88H339.473V68.9805H342.725V88ZM339.209 63.9355C339.209 63.4082 339.367 62.9629 339.684 62.5996C340.012 62.2363 340.492 62.0547 341.125 62.0547C341.758 62.0547 342.238 62.2363 342.566 62.5996C342.895 62.9629 343.059 63.4082 343.059 63.9355C343.059 64.4629 342.895 64.9023 342.566 65.2539C342.238 65.6055 341.758 65.7812 341.125 65.7812C340.492 65.7812 340.012 65.6055 339.684 65.2539C339.367 64.9023 339.209 64.4629 339.209 63.9355Z" fill="white"/>
<path d="M359.688 88C359.5 87.625 359.348 86.957 359.23 85.9961C357.719 87.5664 355.914 88.3516 353.816 88.3516C351.941 88.3516 350.4 87.8242 349.193 86.7695C347.998 85.7031 347.4 84.3555 347.4 82.7266C347.4 80.7461 348.15 79.2109 349.65 78.1211C351.162 77.0195 353.283 76.4688 356.014 76.4688H359.178V74.9746C359.178 73.8379 358.838 72.9355 358.158 72.2676C357.479 71.5879 356.477 71.248 355.152 71.248C353.992 71.248 353.02 71.541 352.234 72.127C351.449 72.7129 351.057 73.4219 351.057 74.2539H347.787C347.787 73.3047 348.121 72.3906 348.789 71.5117C349.469 70.6211 350.383 69.918 351.531 69.4023C352.691 68.8867 353.963 68.6289 355.346 68.6289C357.537 68.6289 359.254 69.1797 360.496 70.2812C361.738 71.3711 362.383 72.877 362.43 74.7988V83.5527C362.43 85.2988 362.652 86.6875 363.098 87.7188V88H359.688ZM354.291 85.5215C355.311 85.5215 356.277 85.2578 357.191 84.7305C358.105 84.2031 358.768 83.5176 359.178 82.6738V78.7715H356.629C352.645 78.7715 350.652 79.9375 350.652 82.2695C350.652 83.2891 350.992 84.0859 351.672 84.6602C352.352 85.2344 353.225 85.5215 354.291 85.5215Z" fill="white"/>
<path d="M370.604 68.9805L370.709 71.3711C372.162 69.543 374.061 68.6289 376.404 68.6289C380.424 68.6289 382.451 70.8965 382.486 75.4316V88H379.234V75.4141C379.223 74.043 378.906 73.0293 378.285 72.373C377.676 71.7168 376.721 71.3887 375.42 71.3887C374.365 71.3887 373.439 71.6699 372.643 72.2324C371.846 72.7949 371.225 73.5332 370.779 74.4473V88H367.527V68.9805H370.604Z" fill="white"/>
<path d="M391.803 64.375V68.9805H395.354V71.4941H391.803V83.2891C391.803 84.0508 391.961 84.625 392.277 85.0117C392.594 85.3867 393.133 85.5742 393.895 85.5742C394.27 85.5742 394.785 85.5039 395.441 85.3633V88C394.586 88.2344 393.754 88.3516 392.945 88.3516C391.492 88.3516 390.396 87.9121 389.658 87.0332C388.92 86.1543 388.551 84.9062 388.551 83.2891V71.4941H385.088V68.9805H388.551V64.375H391.803Z" fill="white"/>
<path d="M407.061 88.3516C404.482 88.3516 402.385 87.5078 400.768 85.8203C399.15 84.1211 398.342 81.8535 398.342 79.0176V78.4199C398.342 76.5332 398.699 74.8516 399.414 73.375C400.141 71.8867 401.148 70.7266 402.438 69.8945C403.738 69.0508 405.145 68.6289 406.656 68.6289C409.129 68.6289 411.051 69.4434 412.422 71.0723C413.793 72.7012 414.479 75.0332 414.479 78.0684V79.4219H401.594C401.641 81.2969 402.186 82.8145 403.229 83.9746C404.283 85.123 405.619 85.6973 407.236 85.6973C408.385 85.6973 409.357 85.4629 410.154 84.9941C410.951 84.5254 411.648 83.9043 412.246 83.1309L414.232 84.6777C412.639 87.127 410.248 88.3516 407.061 88.3516ZM406.656 71.3008C405.344 71.3008 404.242 71.7812 403.352 72.7422C402.461 73.6914 401.91 75.0273 401.699 76.75H411.227V76.5039C411.133 74.8516 410.688 73.5742 409.891 72.6719C409.094 71.7578 408.016 71.3008 406.656 71.3008Z" fill="white"/>
<path d="M440.582 79.4043H444.133V82.0586H440.582V88H437.312V82.0586H425.658V80.1426L437.119 62.4062H440.582V79.4043ZM429.35 79.4043H437.312V66.8535L436.926 67.5566L429.35 79.4043Z" fill="white"/>
<path d="M463.961 85.6973C465.121 85.6973 466.135 85.3457 467.002 84.6426C467.869 83.9395 468.35 83.0605 468.443 82.0059H471.52C471.461 83.0957 471.086 84.1328 470.395 85.1172C469.703 86.1016 468.777 86.8867 467.617 87.4727C466.469 88.0586 465.25 88.3516 463.961 88.3516C461.371 88.3516 459.309 87.4902 457.773 85.7676C456.25 84.0332 455.488 81.666 455.488 78.666V78.1211C455.488 76.2695 455.828 74.623 456.508 73.1816C457.188 71.7402 458.16 70.6211 459.426 69.8242C460.703 69.0273 462.209 68.6289 463.943 68.6289C466.076 68.6289 467.846 69.2676 469.252 70.5449C470.67 71.8223 471.426 73.4805 471.52 75.5195H468.443C468.35 74.2891 467.881 73.2812 467.037 72.4961C466.205 71.6992 465.174 71.3008 463.943 71.3008C462.291 71.3008 461.008 71.8984 460.094 73.0938C459.191 74.2773 458.74 75.9941 458.74 78.2441V78.8594C458.74 81.0508 459.191 82.7383 460.094 83.9219C460.996 85.1055 462.285 85.6973 463.961 85.6973Z" fill="white"/>
<path d="M474.314 78.3145C474.314 76.4512 474.678 74.7754 475.404 73.2871C476.143 71.7988 477.162 70.6504 478.463 69.8418C479.775 69.0332 481.27 68.6289 482.945 68.6289C485.535 68.6289 487.627 69.5254 489.221 71.3184C490.826 73.1113 491.629 75.4961 491.629 78.4727V78.7012C491.629 80.5527 491.271 82.2168 490.557 83.6934C489.854 85.1582 488.84 86.3008 487.516 87.1211C486.203 87.9414 484.691 88.3516 482.98 88.3516C480.402 88.3516 478.311 87.4551 476.705 85.6621C475.111 83.8691 474.314 81.4961 474.314 78.543V78.3145ZM477.584 78.7012C477.584 80.8105 478.07 82.5039 479.043 83.7812C480.027 85.0586 481.34 85.6973 482.98 85.6973C484.633 85.6973 485.945 85.0527 486.918 83.7637C487.891 82.4629 488.377 80.6465 488.377 78.3145C488.377 76.2285 487.879 74.541 486.883 73.252C485.898 71.9512 484.586 71.3008 482.945 71.3008C481.34 71.3008 480.045 71.9395 479.061 73.2168C478.076 74.4941 477.584 76.3223 477.584 78.7012Z" fill="white"/>
<path d="M504.9 71.8984C504.408 71.8164 503.875 71.7754 503.301 71.7754C501.168 71.7754 499.721 72.6836 498.959 74.5V88H495.707V68.9805H498.871L498.924 71.1777C499.99 69.4785 501.502 68.6289 503.459 68.6289C504.092 68.6289 504.572 68.7109 504.9 68.875V71.8984Z" fill="white"/>
<path d="M513.197 64.375V68.9805H516.748V71.4941H513.197V83.2891C513.197 84.0508 513.355 84.625 513.672 85.0117C513.988 85.3867 514.527 85.5742 515.289 85.5742C515.664 85.5742 516.18 85.5039 516.836 85.3633V88C515.98 88.2344 515.148 88.3516 514.34 88.3516C512.887 88.3516 511.791 87.9121 511.053 87.0332C510.314 86.1543 509.945 84.9062 509.945 83.2891V71.4941H506.482V68.9805H509.945V64.375H513.197Z" fill="white"/>
<path d="M528.455 88.3516C525.877 88.3516 523.779 87.5078 522.162 85.8203C520.545 84.1211 519.736 81.8535 519.736 79.0176V78.4199C519.736 76.5332 520.094 74.8516 520.809 73.375C521.535 71.8867 522.543 70.7266 523.832 69.8945C525.133 69.0508 526.539 68.6289 528.051 68.6289C530.523 68.6289 532.445 69.4434 533.816 71.0723C535.188 72.7012 535.873 75.0332 535.873 78.0684V79.4219H522.988C523.035 81.2969 523.58 82.8145 524.623 83.9746C525.678 85.123 527.014 85.6973 528.631 85.6973C529.779 85.6973 530.752 85.4629 531.549 84.9941C532.346 84.5254 533.043 83.9043 533.641 83.1309L535.627 84.6777C534.033 87.127 531.643 88.3516 528.455 88.3516ZM528.051 71.3008C526.738 71.3008 525.637 71.7812 524.746 72.7422C523.855 73.6914 523.305 75.0273 523.094 76.75H532.621V76.5039C532.527 74.8516 532.082 73.5742 531.285 72.6719C530.488 71.7578 529.41 71.3008 528.051 71.3008Z" fill="white"/>
<path d="M550.727 82.9551C550.727 82.0762 550.393 81.3965 549.725 80.916C549.068 80.4238 547.914 80.002 546.262 79.6504C544.621 79.2988 543.314 78.877 542.342 78.3848C541.381 77.8926 540.666 77.3066 540.197 76.627C539.74 75.9473 539.512 75.1387 539.512 74.2012C539.512 72.6426 540.168 71.3242 541.48 70.2461C542.805 69.168 544.492 68.6289 546.543 68.6289C548.699 68.6289 550.445 69.1855 551.781 70.2988C553.129 71.4121 553.803 72.8359 553.803 74.5703H550.533C550.533 73.6797 550.152 72.9121 549.391 72.2676C548.641 71.623 547.691 71.3008 546.543 71.3008C545.359 71.3008 544.434 71.5586 543.766 72.0742C543.098 72.5898 542.764 73.2637 542.764 74.0957C542.764 74.8809 543.074 75.4727 543.695 75.8711C544.316 76.2695 545.436 76.6504 547.053 77.0137C548.682 77.377 550 77.8105 551.008 78.3145C552.016 78.8184 552.76 79.4277 553.24 80.1426C553.732 80.8457 553.979 81.707 553.979 82.7266C553.979 84.4258 553.299 85.791 551.939 86.8223C550.58 87.8418 548.816 88.3516 546.648 88.3516C545.125 88.3516 543.777 88.082 542.605 87.543C541.434 87.0039 540.514 86.2539 539.846 85.293C539.189 84.3203 538.861 83.2715 538.861 82.1465H542.113C542.172 83.2363 542.605 84.1035 543.414 84.748C544.234 85.3809 545.312 85.6973 546.648 85.6973C547.879 85.6973 548.863 85.4512 549.602 84.959C550.352 84.4551 550.727 83.7871 550.727 82.9551Z" fill="white"/>
<path d="M558.285 86.2949C558.285 85.7324 558.449 85.2637 558.777 84.8887C559.117 84.5137 559.621 84.3262 560.289 84.3262C560.957 84.3262 561.461 84.5137 561.801 84.8887C562.152 85.2637 562.328 85.7324 562.328 86.2949C562.328 86.834 562.152 87.2852 561.801 87.6484C561.461 88.0117 560.957 88.1934 560.289 88.1934C559.621 88.1934 559.117 88.0117 558.777 87.6484C558.449 87.2852 558.285 86.834 558.285 86.2949Z" fill="white"/>
<path d="M584.512 76.0469C584.5 77.2891 584.371 78.2852 584.125 79.0352C583.891 79.7734 583.492 80.4883 582.93 81.1797C582.367 81.8711 581.547 82.7852 580.469 83.9219C579.391 85.0469 578.787 86.1895 578.658 87.3496L578.623 88C578.623 89.2773 578.963 90.25 579.643 90.918C580.322 91.5977 581.301 91.9375 582.578 91.9375C583.75 91.9375 584.699 91.6035 585.426 90.9355C586.164 90.2793 586.533 89.418 586.533 88.3516H589.785C589.762 90.2383 589.088 91.7793 587.764 92.9746C586.451 94.1699 584.723 94.7676 582.578 94.7676C580.281 94.7676 578.506 94.1758 577.252 92.9922C575.998 91.8203 575.371 90.1855 575.371 88.0879C575.371 86.0605 576.309 84.0215 578.184 81.9707L580.1 79.9844C580.873 79.0703 581.26 77.7578 581.26 76.0469H584.512ZM584.652 70.4746C584.652 71.002 584.488 71.4473 584.16 71.8105C583.844 72.1738 583.369 72.3555 582.736 72.3555C582.104 72.3555 581.623 72.1738 581.295 71.8105C580.967 71.4473 580.803 71.002 580.803 70.4746C580.803 69.959 580.967 69.5254 581.295 69.1738C581.623 68.8223 582.104 68.6465 582.736 68.6465C583.369 68.6465 583.844 68.8223 584.16 69.1738C584.488 69.5254 584.652 69.959 584.652 70.4746Z" fill="white"/>
<path d="M613.023 79.8789C612.707 82.5859 611.705 84.6777 610.018 86.1543C608.342 87.6191 606.109 88.3516 603.32 88.3516C600.297 88.3516 597.871 87.2676 596.043 85.0996C594.227 82.9316 593.318 80.0312 593.318 76.3984V73.9375C593.318 71.5586 593.74 69.4668 594.584 67.6621C595.439 65.8574 596.646 64.4746 598.205 63.5137C599.764 62.541 601.568 62.0547 603.619 62.0547C606.338 62.0547 608.518 62.8164 610.158 64.3398C611.799 65.8516 612.754 67.9492 613.023 70.6328H609.631C609.338 68.5938 608.699 67.1172 607.715 66.2031C606.742 65.2891 605.377 64.832 603.619 64.832C601.463 64.832 599.77 65.6289 598.539 67.2227C597.32 68.8164 596.711 71.084 596.711 74.0254V76.5039C596.711 79.2812 597.291 81.4902 598.451 83.1309C599.611 84.7715 601.234 85.5918 603.32 85.5918C605.195 85.5918 606.631 85.1699 607.627 84.3262C608.635 83.4707 609.303 81.9883 609.631 79.8789H613.023Z" fill="white"/>
<path d="M628.879 86.1191C627.613 87.6074 625.756 88.3516 623.307 88.3516C621.279 88.3516 619.732 87.7656 618.666 86.5938C617.611 85.4102 617.078 83.6641 617.066 81.3555V68.9805H620.318V81.2676C620.318 84.1504 621.49 85.5918 623.834 85.5918C626.318 85.5918 627.971 84.666 628.791 82.8145V68.9805H632.043V88H628.949L628.879 86.1191Z" fill="white"/>
<path d="M648.742 88C648.555 87.625 648.402 86.957 648.285 85.9961C646.773 87.5664 644.969 88.3516 642.871 88.3516C640.996 88.3516 639.455 87.8242 638.248 86.7695C637.053 85.7031 636.455 84.3555 636.455 82.7266C636.455 80.7461 637.205 79.2109 638.705 78.1211C640.217 77.0195 642.338 76.4688 645.068 76.4688H648.232V74.9746C648.232 73.8379 647.893 72.9355 647.213 72.2676C646.533 71.5879 645.531 71.248 644.207 71.248C643.047 71.248 642.074 71.541 641.289 72.127C640.504 72.7129 640.111 73.4219 640.111 74.2539H636.842C636.842 73.3047 637.176 72.3906 637.844 71.5117C638.523 70.6211 639.438 69.918 640.586 69.4023C641.746 68.8867 643.018 68.6289 644.4 68.6289C646.592 68.6289 648.309 69.1797 649.551 70.2812C650.793 71.3711 651.438 72.877 651.484 74.7988V83.5527C651.484 85.2988 651.707 86.6875 652.152 87.7188V88H648.742ZM643.346 85.5215C644.365 85.5215 645.332 85.2578 646.246 84.7305C647.16 84.2031 647.822 83.5176 648.232 82.6738V78.7715H645.684C641.699 78.7715 639.707 79.9375 639.707 82.2695C639.707 83.2891 640.047 84.0859 640.727 84.6602C641.406 85.2344 642.279 85.5215 643.346 85.5215ZM646.352 61H650.289L645.578 66.168H642.959L646.352 61Z" fill="white"/>
<path d="M659.658 68.9805L659.764 71.3711C661.217 69.543 663.115 68.6289 665.459 68.6289C669.479 68.6289 671.506 70.8965 671.541 75.4316V88H668.289V75.4141C668.277 74.043 667.961 73.0293 667.34 72.373C666.73 71.7168 665.775 71.3887 664.475 71.3887C663.42 71.3887 662.494 71.6699 661.697 72.2324C660.9 72.7949 660.279 73.5332 659.834 74.4473V88H656.582V68.9805H659.658Z" fill="white"/>
<path d="M680.857 64.375V68.9805H684.408V71.4941H680.857V83.2891C680.857 84.0508 681.016 84.625 681.332 85.0117C681.648 85.3867 682.188 85.5742 682.949 85.5742C683.324 85.5742 683.84 85.5039 684.496 85.3633V88C683.641 88.2344 682.809 88.3516 682 88.3516C680.547 88.3516 679.451 87.9121 678.713 87.0332C677.975 86.1543 677.605 84.9062 677.605 83.2891V71.4941H674.143V68.9805H677.605V64.375H680.857Z" fill="white"/>
<path d="M687.01 78.3145C687.01 76.4512 687.373 74.7754 688.1 73.2871C688.838 71.7988 689.857 70.6504 691.158 69.8418C692.471 69.0332 693.965 68.6289 695.641 68.6289C698.23 68.6289 700.322 69.5254 701.916 71.3184C703.521 73.1113 704.324 75.4961 704.324 78.4727V78.7012C704.324 80.5527 703.967 82.2168 703.252 83.6934C702.549 85.1582 701.535 86.3008 700.211 87.1211C698.898 87.9414 697.387 88.3516 695.676 88.3516C693.098 88.3516 691.006 87.4551 689.4 85.6621C687.807 83.8691 687.01 81.4961 687.01 78.543V78.3145ZM690.279 78.7012C690.279 80.8105 690.766 82.5039 691.738 83.7812C692.723 85.0586 694.035 85.6973 695.676 85.6973C697.328 85.6973 698.641 85.0527 699.613 83.7637C700.586 82.4629 701.072 80.6465 701.072 78.3145C701.072 76.2285 700.574 74.541 699.578 73.252C698.594 71.9512 697.281 71.3008 695.641 71.3008C694.035 71.3008 692.74 71.9395 691.756 73.2168C690.771 74.4941 690.279 76.3223 690.279 78.7012Z" fill="white"/>
<path d="M720.391 68.9805L720.479 71.0898C721.873 69.4492 723.754 68.6289 726.121 68.6289C728.781 68.6289 730.592 69.6484 731.553 71.6875C732.186 70.7734 733.006 70.0352 734.014 69.4727C735.033 68.9102 736.234 68.6289 737.617 68.6289C741.789 68.6289 743.91 70.8379 743.98 75.2559V88H740.729V75.4492C740.729 74.0898 740.418 73.0762 739.797 72.4082C739.176 71.7285 738.133 71.3887 736.668 71.3887C735.461 71.3887 734.459 71.752 733.662 72.4785C732.865 73.1934 732.402 74.1602 732.273 75.3789V88H729.004V75.5371C729.004 72.7715 727.65 71.3887 724.943 71.3887C722.811 71.3887 721.352 72.2969 720.566 74.1133V88H717.314V68.9805H720.391Z" fill="white"/>
<path d="M752.436 88H749.184V68.9805H752.436V88ZM748.92 63.9355C748.92 63.4082 749.078 62.9629 749.395 62.5996C749.723 62.2363 750.203 62.0547 750.836 62.0547C751.469 62.0547 751.949 62.2363 752.277 62.5996C752.605 62.9629 752.77 63.4082 752.77 63.9355C752.77 64.4629 752.605 64.9023 752.277 65.2539C751.949 65.6055 751.469 65.7812 750.836 65.7812C750.203 65.7812 749.723 65.6055 749.395 65.2539C749.078 64.9023 748.92 64.4629 748.92 63.9355Z" fill="white"/>
<path d="M756.865 78.332C756.865 75.4141 757.557 73.0703 758.939 71.3008C760.322 69.5195 762.133 68.6289 764.371 68.6289C766.598 68.6289 768.361 69.3906 769.662 70.9141V61H772.914V88H769.926L769.768 85.9609C768.467 87.5547 766.656 88.3516 764.336 88.3516C762.133 88.3516 760.334 87.4492 758.939 85.6445C757.557 83.8398 756.865 81.4844 756.865 78.5781V78.332ZM760.117 78.7012C760.117 80.8574 760.562 82.5449 761.453 83.7637C762.344 84.9824 763.574 85.5918 765.145 85.5918C767.207 85.5918 768.713 84.666 769.662 82.8145V74.0781C768.689 72.2852 767.195 71.3887 765.18 71.3887C763.586 71.3887 762.344 72.0039 761.453 73.2344C760.562 74.4648 760.117 76.2871 760.117 78.7012Z" fill="white"/>
<path d="M785.869 88.3516C783.291 88.3516 781.193 87.5078 779.576 85.8203C777.959 84.1211 777.15 81.8535 777.15 79.0176V78.4199C777.15 76.5332 777.508 74.8516 778.223 73.375C778.949 71.8867 779.957 70.7266 781.246 69.8945C782.547 69.0508 783.953 68.6289 785.465 68.6289C787.938 68.6289 789.859 69.4434 791.23 71.0723C792.602 72.7012 793.287 75.0332 793.287 78.0684V79.4219H780.402C780.449 81.2969 780.994 82.8145 782.037 83.9746C783.092 85.123 784.428 85.6973 786.045 85.6973C787.193 85.6973 788.166 85.4629 788.963 84.9941C789.76 84.5254 790.457 83.9043 791.055 83.1309L793.041 84.6777C791.447 87.127 789.057 88.3516 785.869 88.3516ZM785.465 71.3008C784.152 71.3008 783.051 71.7812 782.16 72.7422C781.27 73.6914 780.719 75.0273 780.508 76.75H790.035V76.5039C789.941 74.8516 789.496 73.5742 788.699 72.6719C787.902 71.7578 786.824 71.3008 785.465 71.3008Z" fill="white"/>
<path d="M152.09 125.697C153.25 125.697 154.264 125.346 155.131 124.643C155.998 123.939 156.479 123.061 156.572 122.006H159.648C159.59 123.096 159.215 124.133 158.523 125.117C157.832 126.102 156.906 126.887 155.746 127.473C154.598 128.059 153.379 128.352 152.09 128.352C149.5 128.352 147.438 127.49 145.902 125.768C144.379 124.033 143.617 121.666 143.617 118.666V118.121C143.617 116.27 143.957 114.623 144.637 113.182C145.316 111.74 146.289 110.621 147.555 109.824C148.832 109.027 150.338 108.629 152.072 108.629C154.205 108.629 155.975 109.268 157.381 110.545C158.799 111.822 159.555 113.48 159.648 115.52H156.572C156.479 114.289 156.01 113.281 155.166 112.496C154.334 111.699 153.303 111.301 152.072 111.301C150.42 111.301 149.137 111.898 148.223 113.094C147.32 114.277 146.869 115.994 146.869 118.244V118.859C146.869 121.051 147.32 122.738 148.223 123.922C149.125 125.105 150.414 125.697 152.09 125.697Z" fill="white"/>
<path d="M175.047 128C174.859 127.625 174.707 126.957 174.59 125.996C173.078 127.566 171.273 128.352 169.176 128.352C167.301 128.352 165.76 127.824 164.553 126.77C163.357 125.703 162.76 124.355 162.76 122.727C162.76 120.746 163.51 119.211 165.01 118.121C166.521 117.02 168.643 116.469 171.373 116.469H174.537V114.975C174.537 113.838 174.197 112.936 173.518 112.268C172.838 111.588 171.836 111.248 170.512 111.248C169.352 111.248 168.379 111.541 167.594 112.127C166.809 112.713 166.416 113.422 166.416 114.254H163.146C163.146 113.305 163.48 112.391 164.148 111.512C164.828 110.621 165.742 109.918 166.891 109.402C168.051 108.887 169.322 108.629 170.705 108.629C172.896 108.629 174.613 109.18 175.855 110.281C177.098 111.371 177.742 112.877 177.789 114.799V123.553C177.789 125.299 178.012 126.688 178.457 127.719V128H175.047ZM169.65 125.521C170.67 125.521 171.637 125.258 172.551 124.73C173.465 124.203 174.127 123.518 174.537 122.674V118.771H171.988C168.004 118.771 166.012 119.938 166.012 122.27C166.012 123.289 166.352 124.086 167.031 124.66C167.711 125.234 168.584 125.521 169.65 125.521Z" fill="white"/>
<path d="M182.096 118.332C182.096 115.414 182.787 113.07 184.17 111.301C185.553 109.52 187.363 108.629 189.602 108.629C191.828 108.629 193.592 109.391 194.893 110.914V101H198.145V128H195.156L194.998 125.961C193.697 127.555 191.887 128.352 189.566 128.352C187.363 128.352 185.564 127.449 184.17 125.645C182.787 123.84 182.096 121.484 182.096 118.578V118.332ZM185.348 118.701C185.348 120.857 185.793 122.545 186.684 123.764C187.574 124.982 188.805 125.592 190.375 125.592C192.438 125.592 193.943 124.666 194.893 122.814V114.078C193.92 112.285 192.426 111.389 190.41 111.389C188.816 111.389 187.574 112.004 186.684 113.234C185.793 114.465 185.348 116.287 185.348 118.701Z" fill="white"/>
<path d="M214.949 128C214.762 127.625 214.609 126.957 214.492 125.996C212.98 127.566 211.176 128.352 209.078 128.352C207.203 128.352 205.662 127.824 204.455 126.77C203.26 125.703 202.662 124.355 202.662 122.727C202.662 120.746 203.412 119.211 204.912 118.121C206.424 117.02 208.545 116.469 211.275 116.469H214.439V114.975C214.439 113.838 214.1 112.936 213.42 112.268C212.74 111.588 211.738 111.248 210.414 111.248C209.254 111.248 208.281 111.541 207.496 112.127C206.711 112.713 206.318 113.422 206.318 114.254H203.049C203.049 113.305 203.383 112.391 204.051 111.512C204.73 110.621 205.645 109.918 206.793 109.402C207.953 108.887 209.225 108.629 210.607 108.629C212.799 108.629 214.516 109.18 215.758 110.281C217 111.371 217.645 112.877 217.691 114.799V123.553C217.691 125.299 217.914 126.688 218.359 127.719V128H214.949ZM209.553 125.521C210.572 125.521 211.539 125.258 212.453 124.73C213.367 124.203 214.029 123.518 214.439 122.674V118.771H211.891C207.906 118.771 205.914 119.938 205.914 122.27C205.914 123.289 206.254 124.086 206.934 124.66C207.613 125.234 208.486 125.521 209.553 125.521Z" fill="white"/>
<path d="M247.785 118.701C247.785 121.596 247.123 123.928 245.799 125.697C244.475 127.467 242.682 128.352 240.42 128.352C238.111 128.352 236.295 127.619 234.971 126.154V135.312H231.719V108.98H234.689L234.848 111.09C236.172 109.449 238.012 108.629 240.367 108.629C242.652 108.629 244.457 109.49 245.781 111.213C247.117 112.936 247.785 115.332 247.785 118.402V118.701ZM244.533 118.332C244.533 116.188 244.076 114.494 243.162 113.252C242.248 112.01 240.994 111.389 239.4 111.389C237.432 111.389 235.955 112.262 234.971 114.008V123.096C235.943 124.83 237.432 125.697 239.436 125.697C240.994 125.697 242.23 125.082 243.145 123.852C244.07 122.609 244.533 120.77 244.533 118.332Z" fill="white"/>
<path d="M259.826 128.352C257.248 128.352 255.15 127.508 253.533 125.82C251.916 124.121 251.107 121.854 251.107 119.018V118.42C251.107 116.533 251.465 114.852 252.18 113.375C252.906 111.887 253.914 110.727 255.203 109.895C256.504 109.051 257.91 108.629 259.422 108.629C261.895 108.629 263.816 109.443 265.188 111.072C266.559 112.701 267.244 115.033 267.244 118.068V119.422H254.359C254.406 121.297 254.951 122.814 255.994 123.975C257.049 125.123 258.385 125.697 260.002 125.697C261.15 125.697 262.123 125.463 262.92 124.994C263.717 124.525 264.414 123.904 265.012 123.131L266.998 124.678C265.404 127.127 263.014 128.352 259.826 128.352ZM259.422 111.301C258.109 111.301 257.008 111.781 256.117 112.742C255.227 113.691 254.676 115.027 254.465 116.75H263.992V116.504C263.898 114.852 263.453 113.574 262.656 112.672C261.859 111.758 260.781 111.301 259.422 111.301Z" fill="white"/>
<path d="M270.232 118.332C270.232 115.414 270.924 113.07 272.307 111.301C273.689 109.52 275.5 108.629 277.738 108.629C279.965 108.629 281.729 109.391 283.029 110.914V101H286.281V128H283.293L283.135 125.961C281.834 127.555 280.023 128.352 277.703 128.352C275.5 128.352 273.701 127.449 272.307 125.645C270.924 123.84 270.232 121.484 270.232 118.578V118.332ZM273.484 118.701C273.484 120.857 273.93 122.545 274.82 123.764C275.711 124.982 276.941 125.592 278.512 125.592C280.574 125.592 282.08 124.666 283.029 122.814V114.078C282.057 112.285 280.562 111.389 278.547 111.389C276.953 111.389 275.711 112.004 274.82 113.234C273.93 114.465 273.484 116.287 273.484 118.701Z" fill="white"/>
<path d="M303.086 128C302.898 127.625 302.746 126.957 302.629 125.996C301.117 127.566 299.312 128.352 297.215 128.352C295.34 128.352 293.799 127.824 292.592 126.77C291.396 125.703 290.799 124.355 290.799 122.727C290.799 120.746 291.549 119.211 293.049 118.121C294.561 117.02 296.682 116.469 299.412 116.469H302.576V114.975C302.576 113.838 302.236 112.936 301.557 112.268C300.877 111.588 299.875 111.248 298.551 111.248C297.391 111.248 296.418 111.541 295.633 112.127C294.848 112.713 294.455 113.422 294.455 114.254H291.186C291.186 113.305 291.52 112.391 292.188 111.512C292.867 110.621 293.781 109.918 294.93 109.402C296.09 108.887 297.361 108.629 298.744 108.629C300.936 108.629 302.652 109.18 303.895 110.281C305.137 111.371 305.781 112.877 305.828 114.799V123.553C305.828 125.299 306.051 126.688 306.496 127.719V128H303.086ZM297.689 125.521C298.709 125.521 299.676 125.258 300.59 124.73C301.504 124.203 302.166 123.518 302.576 122.674V118.771H300.027C296.043 118.771 294.051 119.938 294.051 122.27C294.051 123.289 294.391 124.086 295.07 124.66C295.75 125.234 296.623 125.521 297.689 125.521Z" fill="white"/>
<path d="M313.984 125.346H325.111V128H310.012V125.609L320.506 111.67H310.17V108.98H324.584V111.283L313.984 125.346Z" fill="white"/>
<path d="M327.643 118.314C327.643 116.451 328.006 114.775 328.732 113.287C329.471 111.799 330.49 110.65 331.791 109.842C333.104 109.033 334.598 108.629 336.273 108.629C338.863 108.629 340.955 109.525 342.549 111.318C344.154 113.111 344.957 115.496 344.957 118.473V118.701C344.957 120.553 344.6 122.217 343.885 123.693C343.182 125.158 342.168 126.301 340.844 127.121C339.531 127.941 338.02 128.352 336.309 128.352C333.73 128.352 331.639 127.455 330.033 125.662C328.439 123.869 327.643 121.496 327.643 118.543V118.314ZM330.912 118.701C330.912 120.811 331.398 122.504 332.371 123.781C333.355 125.059 334.668 125.697 336.309 125.697C337.961 125.697 339.273 125.053 340.246 123.764C341.219 122.463 341.705 120.646 341.705 118.314C341.705 116.229 341.207 114.541 340.211 113.252C339.227 111.951 337.914 111.301 336.273 111.301C334.668 111.301 333.373 111.939 332.389 113.217C331.404 114.494 330.912 116.322 330.912 118.701Z" fill="white"/>
<path d="M352.85 120.793C352.873 119.398 353.031 118.297 353.324 117.488C353.617 116.68 354.215 115.783 355.117 114.799L357.42 112.426C358.404 111.312 358.896 110.117 358.896 108.84C358.896 107.609 358.574 106.648 357.93 105.957C357.285 105.254 356.348 104.902 355.117 104.902C353.922 104.902 352.961 105.219 352.234 105.852C351.508 106.484 351.145 107.334 351.145 108.4H347.893C347.916 106.502 348.59 104.973 349.914 103.812C351.25 102.641 352.984 102.055 355.117 102.055C357.332 102.055 359.055 102.652 360.285 103.848C361.527 105.031 362.148 106.66 362.148 108.734C362.148 110.785 361.199 112.807 359.301 114.799L357.385 116.697C356.529 117.646 356.102 119.012 356.102 120.793H352.85ZM352.709 126.365C352.709 125.838 352.867 125.398 353.184 125.047C353.512 124.684 353.992 124.502 354.625 124.502C355.258 124.502 355.738 124.684 356.066 125.047C356.395 125.398 356.559 125.838 356.559 126.365C356.559 126.893 356.395 127.332 356.066 127.684C355.738 128.023 355.258 128.193 354.625 128.193C353.992 128.193 353.512 128.023 353.184 127.684C352.867 127.332 352.709 126.893 352.709 126.365Z" fill="white"/>
</g>
</g>
</g>
</svg>
