<svg viewBox="0 0 900 438" fill="none" xmlns="http://www.w3.org/2000/svg">
<g id="0121202">
<g id="tabla">
<g id="Tabla Campanadas">
<path id="Rectangle 1" d="M0 102.068H900V152.068H0V102.068Z" fill="#E8A1EE" fill-opacity="0.1"/>
<path id="Rectangle 1 (Stroke)" fill-rule="evenodd" clip-rule="evenodd" d="M896 106.068H4V148.068H896V106.068ZM0 102.068V152.068H900V102.068H0Z" fill="#E8A1EE"/>
<path id="Rectangle 2 (Stroke)" fill-rule="evenodd" clip-rule="evenodd" d="M896 156.068H4V198.068H896V156.068ZM0 152.068V202.068H900V152.068H0Z" fill="#E8A1EE"/>
<path id="Rectangle 3 (Stroke)" fill-rule="evenodd" clip-rule="evenodd" d="M896 206.068H4V248.068H896V206.068ZM0 202.068V252.068H900V202.068H0Z" fill="#E8A1EE"/>
<path id="Line 3 (Stroke)" fill-rule="evenodd" clip-rule="evenodd" d="M332 248.068L330 102.068L335 102L337 248L332 248.068Z" fill="#E8A1EE"/>
<path id="Line 4 (Stroke)" fill-rule="evenodd" clip-rule="evenodd" d="M681 248.068L679 102.068L684 102L686 248L681 248.068Z" fill="#E8A1EE"/>
</g>
<g id="# Cortes">
<path d="M101.646 131.861H97.0059L95.5996 139.068H93.0859L94.4922 131.861H90.291V129.453H94.9492L96.1621 123.231H91.627V120.787H96.6367L98.0781 113.475H100.592L99.1504 120.787H103.791L105.232 113.475H107.764L106.322 120.787H109.908V123.231H105.848L104.635 129.453H108.59V131.861H104.178L102.771 139.068H100.24L101.646 131.861ZM97.4629 129.453H102.104L103.316 123.231H98.6758L97.4629 129.453Z" fill="#E8A1EE"/>
<path d="M141.109 130.947C140.793 133.654 139.791 135.746 138.104 137.223C136.428 138.688 134.195 139.42 131.406 139.42C128.383 139.42 125.957 138.336 124.129 136.168C122.312 134 121.404 131.1 121.404 127.467V125.006C121.404 122.627 121.826 120.535 122.67 118.731C123.525 116.926 124.732 115.543 126.291 114.582C127.85 113.61 129.654 113.123 131.705 113.123C134.424 113.123 136.604 113.885 138.244 115.408C139.885 116.92 140.84 119.018 141.109 121.701H137.717C137.424 119.662 136.785 118.186 135.801 117.272C134.828 116.358 133.463 115.901 131.705 115.901C129.549 115.901 127.855 116.697 126.625 118.291C125.406 119.885 124.797 122.152 124.797 125.094V127.572C124.797 130.35 125.377 132.559 126.537 134.199C127.697 135.84 129.32 136.66 131.406 136.66C133.281 136.66 134.717 136.238 135.713 135.395C136.721 134.539 137.389 133.057 137.717 130.947H141.109Z" fill="#E8A1EE"/>
<path d="M144.361 129.383C144.361 127.52 144.725 125.844 145.451 124.356C146.189 122.867 147.209 121.719 148.51 120.91C149.822 120.102 151.316 119.697 152.992 119.697C155.582 119.697 157.674 120.594 159.268 122.387C160.873 124.18 161.676 126.565 161.676 129.541V129.77C161.676 131.621 161.318 133.285 160.604 134.762C159.9 136.227 158.887 137.369 157.562 138.19C156.25 139.01 154.738 139.42 153.027 139.42C150.449 139.42 148.357 138.524 146.752 136.731C145.158 134.938 144.361 132.565 144.361 129.611V129.383ZM147.631 129.77C147.631 131.879 148.117 133.572 149.09 134.85C150.074 136.127 151.387 136.766 153.027 136.766C154.68 136.766 155.992 136.121 156.965 134.832C157.938 133.531 158.424 131.715 158.424 129.383C158.424 127.297 157.926 125.61 156.93 124.32C155.945 123.02 154.633 122.369 152.992 122.369C151.387 122.369 150.092 123.008 149.107 124.285C148.123 125.563 147.631 127.391 147.631 129.77Z" fill="#E8A1EE"/>
<path d="M174.947 122.967C174.455 122.885 173.922 122.844 173.348 122.844C171.215 122.844 169.768 123.752 169.006 125.568V139.068H165.754V120.049H168.918L168.971 122.246C170.037 120.547 171.549 119.697 173.506 119.697C174.139 119.697 174.619 119.779 174.947 119.943V122.967Z" fill="#E8A1EE"/>
<path d="M183.244 115.443V120.049H186.795V122.563H183.244V134.358C183.244 135.119 183.402 135.693 183.719 136.08C184.035 136.455 184.574 136.643 185.336 136.643C185.711 136.643 186.227 136.572 186.883 136.432V139.068C186.027 139.303 185.195 139.42 184.387 139.42C182.934 139.42 181.838 138.981 181.1 138.102C180.361 137.223 179.992 135.975 179.992 134.358V122.563H176.529V120.049H179.992V115.443H183.244Z" fill="#E8A1EE"/>
<path d="M198.502 139.42C195.924 139.42 193.826 138.576 192.209 136.889C190.592 135.19 189.783 132.922 189.783 130.086V129.488C189.783 127.602 190.141 125.92 190.855 124.443C191.582 122.955 192.59 121.795 193.879 120.963C195.18 120.119 196.586 119.697 198.098 119.697C200.57 119.697 202.492 120.512 203.863 122.141C205.234 123.77 205.92 126.102 205.92 129.137V130.49H193.035C193.082 132.365 193.627 133.883 194.67 135.043C195.725 136.192 197.061 136.766 198.678 136.766C199.826 136.766 200.799 136.531 201.596 136.063C202.393 135.594 203.09 134.973 203.688 134.199L205.674 135.746C204.08 138.195 201.689 139.42 198.502 139.42ZM198.098 122.369C196.785 122.369 195.684 122.85 194.793 123.811C193.902 124.76 193.352 126.096 193.141 127.818H202.668V127.572C202.574 125.92 202.129 124.643 201.332 123.74C200.535 122.826 199.457 122.369 198.098 122.369Z" fill="#E8A1EE"/>
<path d="M220.773 134.024C220.773 133.145 220.439 132.465 219.771 131.985C219.115 131.492 217.961 131.07 216.309 130.719C214.668 130.367 213.361 129.945 212.389 129.453C211.428 128.961 210.713 128.375 210.244 127.695C209.787 127.016 209.559 126.207 209.559 125.27C209.559 123.711 210.215 122.393 211.527 121.315C212.852 120.236 214.539 119.697 216.59 119.697C218.746 119.697 220.492 120.254 221.828 121.367C223.176 122.481 223.85 123.904 223.85 125.639H220.58C220.58 124.748 220.199 123.981 219.438 123.336C218.688 122.692 217.738 122.369 216.59 122.369C215.406 122.369 214.48 122.627 213.812 123.143C213.145 123.658 212.811 124.332 212.811 125.164C212.811 125.949 213.121 126.541 213.742 126.94C214.363 127.338 215.482 127.719 217.1 128.082C218.729 128.445 220.047 128.879 221.055 129.383C222.062 129.887 222.807 130.496 223.287 131.211C223.779 131.914 224.025 132.776 224.025 133.795C224.025 135.494 223.346 136.86 221.986 137.891C220.627 138.91 218.863 139.42 216.695 139.42C215.172 139.42 213.824 139.151 212.652 138.611C211.48 138.072 210.561 137.322 209.893 136.361C209.236 135.389 208.908 134.34 208.908 133.215H212.16C212.219 134.305 212.652 135.172 213.461 135.817C214.281 136.449 215.359 136.766 216.695 136.766C217.926 136.766 218.91 136.52 219.648 136.027C220.398 135.524 220.773 134.856 220.773 134.024Z" fill="#E8A1EE"/>
</g>
<path id="# Cortes (Stroke)" fill-rule="evenodd" clip-rule="evenodd" d="M101.646 131.861H97.0059L95.5996 139.068H93.0859L94.4922 131.861H90.291V129.453H94.9492L96.1621 123.231H91.627V120.787H96.6367L98.0781 113.475H100.592L99.1504 120.787H103.791L105.232 113.475H107.764L106.322 120.787H109.908V123.231H105.848L104.635 129.453H108.59V131.861H104.178L102.771 139.068H100.24L101.646 131.861ZM105.001 132.861L103.595 140.068H99.0263L100.433 132.861H97.8296L96.4233 140.068H91.872L93.2782 132.861H89.291V128.453H94.1253L94.9484 124.231H90.627V119.787H95.8146L97.256 112.475H101.808L100.367 119.787H102.969L104.41 112.475H108.98L107.539 119.787H110.908V124.231H106.672L105.849 128.453H109.59V132.861H105.001ZM101.28 128.453L102.103 124.231H99.4997L98.6766 128.453H101.28ZM97.4629 129.453H102.104L103.316 123.231H98.6758L97.4629 129.453ZM142.233 129.947L142.103 131.063C141.764 133.961 140.674 136.302 138.762 137.975C136.861 139.637 134.374 140.42 131.406 140.42C128.11 140.42 125.396 139.222 123.364 136.813L123.362 136.81C121.357 134.416 120.404 131.266 120.404 127.467V125.006C120.404 122.509 120.847 120.268 121.764 118.307L121.766 118.302C122.696 116.34 124.027 114.804 125.764 113.732C127.499 112.65 129.49 112.123 131.705 112.123C134.619 112.123 137.06 112.945 138.923 114.674C140.779 116.385 141.816 118.728 142.104 121.601L142.215 122.701H136.85L136.727 121.844C136.45 119.916 135.868 118.699 135.12 118.004L135.116 118C134.381 117.31 133.291 116.901 131.705 116.901C129.834 116.901 128.444 117.573 127.418 118.901C126.383 120.255 125.797 122.275 125.797 125.094V127.572C125.797 130.22 126.351 132.204 127.354 133.622C128.318 134.986 129.63 135.66 131.406 135.66C133.146 135.66 134.315 135.268 135.066 134.632C135.807 134.003 136.416 132.802 136.729 130.794L136.86 129.947H142.233ZM135.713 135.395C134.717 136.238 133.281 136.66 131.406 136.66C129.32 136.66 127.697 135.84 126.537 134.199C125.377 132.559 124.797 130.35 124.797 127.572V125.094C124.797 122.152 125.406 119.885 126.625 118.291C127.855 116.697 129.549 115.901 131.705 115.901C133.463 115.901 134.828 116.358 135.801 117.272C136.785 118.186 137.424 119.662 137.717 121.701H141.109C141.075 121.358 141.029 121.025 140.972 120.701C140.585 118.491 139.675 116.727 138.244 115.408C136.604 113.885 134.424 113.123 131.705 113.123C129.654 113.123 127.85 113.61 126.291 114.582C124.732 115.543 123.525 116.926 122.67 118.731C121.826 120.535 121.404 122.627 121.404 125.006V127.467C121.404 131.1 122.312 134 124.129 136.168C125.957 138.336 128.383 139.42 131.406 139.42C134.195 139.42 136.428 138.688 138.104 137.223C139.577 135.933 140.528 134.175 140.956 131.947C141.018 131.624 141.069 131.291 141.109 130.947H137.717C137.389 133.057 136.721 134.539 135.713 135.395ZM144.553 123.917L144.555 123.911C145.369 122.271 146.51 120.976 147.982 120.061L147.985 120.059C149.469 119.145 151.148 118.697 152.992 118.697C155.841 118.697 158.213 119.697 160.013 121.72C161.819 123.737 162.676 126.379 162.676 129.541V129.77C162.676 131.752 162.292 133.568 161.504 135.197C161.504 135.197 161.504 135.197 161.504 135.197L160.604 134.762M146.752 136.731C145.158 134.938 144.361 132.565 144.361 129.611V129.383C144.361 127.52 144.725 125.844 145.451 124.356C146.189 122.867 147.209 121.719 148.51 120.91C149.822 120.102 151.316 119.697 152.992 119.697C155.582 119.697 157.674 120.594 159.268 122.387M158.091 139.038C156.604 139.968 154.905 140.42 153.027 140.42C150.188 140.42 147.817 139.419 146.007 137.398L146.005 137.395C144.213 135.379 143.361 132.75 143.361 129.611V129.383C143.361 127.387 143.751 125.558 144.553 123.917M156.138 124.932L156.132 124.924C155.338 123.875 154.322 123.369 152.992 123.369C151.699 123.369 150.696 123.863 149.9 124.896C149.101 125.932 148.631 127.511 148.631 129.77C148.631 131.728 149.081 133.186 149.884 134.242C150.675 135.267 151.692 135.766 153.027 135.766C154.374 135.766 155.387 135.262 156.165 134.231C156.962 133.164 157.424 131.589 157.424 129.383C157.424 127.456 156.965 126.002 156.138 124.932ZM156.965 134.832C155.992 136.121 154.68 136.766 153.027 136.766C151.387 136.766 150.074 136.127 149.09 134.85C148.117 133.572 147.631 131.879 147.631 129.77C147.631 127.391 148.123 125.563 149.107 124.285C150.092 123.008 151.387 122.369 152.992 122.369C154.633 122.369 155.945 123.02 156.93 124.32C157.926 125.61 158.424 127.297 158.424 129.383C158.424 131.715 157.938 133.531 156.965 134.832ZM175.947 124.147L174.783 123.953C174.352 123.882 173.875 123.844 173.348 123.844C172.423 123.844 171.723 124.04 171.194 124.372C170.713 124.674 170.311 125.127 170.006 125.78V140.068H164.754V119.049H169.894L169.912 119.781C170.924 119.065 172.129 118.697 173.506 118.697C174.197 118.697 174.861 118.782 175.394 119.049L175.529 119.116V119.049H178.992V114.443H184.244V119.049H187.795V123.563H184.244V134.358C184.244 134.993 184.377 135.301 184.487 135.44C184.536 135.494 184.724 135.643 185.336 135.643C185.606 135.643 186.041 135.589 186.673 135.454L187.883 135.195V139.831L187.147 140.033C186.214 140.289 185.293 140.42 184.387 140.42C182.723 140.42 181.311 139.908 180.334 138.745C179.393 137.624 178.992 136.115 178.992 134.358V123.563H175.947V124.147ZM179.992 122.563V134.358C179.992 135.975 180.361 137.223 181.1 138.102C181.838 138.981 182.934 139.42 184.387 139.42C185.195 139.42 186.027 139.303 186.883 139.068V136.432C186.502 136.513 186.169 136.571 185.883 136.606C185.676 136.63 185.493 136.643 185.336 136.643C184.574 136.643 184.035 136.455 183.719 136.08C183.402 135.693 183.244 135.119 183.244 134.358V122.563H186.795V120.049H183.244V115.443H179.992V120.049H176.529V122.563H179.992ZM169.942 121.046C169.585 121.383 169.261 121.783 168.971 122.246L168.918 120.049H165.754V139.068H169.006V125.568C169.768 123.752 171.215 122.844 173.348 122.844C173.553 122.844 173.753 122.849 173.947 122.86C174.298 122.878 174.631 122.914 174.947 122.967V119.943C174.619 119.779 174.139 119.697 173.506 119.697C172.082 119.697 170.894 120.147 169.942 121.046ZM191.487 137.581L191.485 137.578C189.655 135.656 188.783 133.122 188.783 130.086V129.488C188.783 127.473 189.166 125.639 189.955 124.008L189.957 124.005C190.756 122.367 191.881 121.062 193.335 120.124C194.793 119.178 196.388 118.697 198.098 118.697C200.812 118.697 203.036 119.605 204.628 121.497C206.204 123.369 206.92 125.965 206.92 129.137V131.49H194.122C194.3 132.679 194.741 133.625 195.41 134.371C196.267 135.302 197.331 135.766 198.678 135.766C199.691 135.766 200.479 135.56 201.089 135.201C201.77 134.8 202.372 134.266 202.896 133.588L203.51 132.794L207.013 135.522L206.512 136.292C204.715 139.054 201.991 140.42 198.502 140.42C195.682 140.42 193.313 139.486 191.487 137.581ZM194.67 135.043C193.819 134.097 193.3 132.912 193.112 131.49C193.069 131.169 193.044 130.836 193.035 130.49H205.92V129.137C205.92 126.102 205.234 123.77 203.863 122.141C202.492 120.512 200.57 119.697 198.098 119.697C196.586 119.697 195.18 120.119 193.879 120.963C192.59 121.795 191.582 122.955 190.855 124.443C190.141 125.92 189.783 127.602 189.783 129.488V130.086C189.783 132.922 190.592 135.19 192.209 136.889C193.826 138.576 195.924 139.42 198.502 139.42C201.689 139.42 204.08 138.195 205.674 135.746L203.688 134.199C203.675 134.216 203.662 134.232 203.649 134.249C203.06 134.999 202.376 135.604 201.596 136.063C200.799 136.531 199.826 136.766 198.678 136.766C197.061 136.766 195.725 136.192 194.67 135.043ZM195.526 124.49L195.522 124.495C194.998 125.053 194.592 125.814 194.338 126.818H201.587C201.425 125.737 201.07 124.954 200.582 124.402L200.578 124.398C199.996 123.729 199.207 123.369 198.098 123.369C197.063 123.369 196.227 123.734 195.526 124.49ZM202.597 126.818C202.63 127.06 202.653 127.312 202.668 127.572V127.818H193.141C193.183 127.469 193.24 127.136 193.311 126.818C193.589 125.57 194.083 124.567 194.793 123.811C195.684 122.85 196.785 122.369 198.098 122.369C199.457 122.369 200.535 122.826 201.332 123.74C202.003 124.5 202.425 125.526 202.597 126.818ZM219.179 132.79L219.171 132.785C218.7 132.431 217.73 132.044 216.1 131.697L216.099 131.697C214.414 131.336 213.016 130.891 211.937 130.346L211.933 130.343C210.868 129.798 210.008 129.114 209.421 128.263L209.414 128.253C208.831 127.386 208.559 126.376 208.559 125.27C208.559 123.383 209.372 121.791 210.893 120.542L210.896 120.539C212.433 119.288 214.357 118.697 216.59 118.697C218.921 118.697 220.911 119.302 222.467 120.598C224.041 121.899 224.85 123.604 224.85 125.639V126.639H219.58V125.639C219.58 125.08 219.359 124.58 218.792 124.099L218.786 124.095C218.246 123.631 217.54 123.369 216.59 123.369C215.54 123.369 214.858 123.599 214.424 123.934C213.997 124.264 213.811 124.647 213.811 125.164C213.811 125.635 213.969 125.897 214.282 126.098C214.743 126.393 215.709 126.745 217.319 127.106C218.992 127.48 220.396 127.935 221.502 128.489C222.615 129.045 223.51 129.754 224.112 130.646C224.739 131.545 225.025 132.613 225.025 133.795C225.025 135.809 224.198 137.468 222.591 138.687L222.586 138.691C221.011 139.872 219.019 140.42 216.695 140.42C215.053 140.42 213.559 140.129 212.234 139.52C210.917 138.914 209.851 138.054 209.071 136.932L209.064 136.921C208.301 135.79 207.908 134.548 207.908 133.215V132.215H213.108L213.159 133.161C213.203 133.981 213.51 134.575 214.078 135.03C214.678 135.49 215.52 135.766 216.695 135.766C217.801 135.766 218.57 135.544 219.092 135.196C219.593 134.86 219.773 134.49 219.773 134.024C219.773 133.441 219.574 133.074 219.188 132.796L219.179 132.79ZM219.648 136.027C218.91 136.52 217.926 136.766 216.695 136.766C215.359 136.766 214.281 136.449 213.461 135.817C212.652 135.172 212.219 134.305 212.16 133.215H208.908C208.908 133.555 208.938 133.889 208.998 134.215C209.137 134.968 209.435 135.683 209.893 136.361C210.561 137.322 211.48 138.072 212.652 138.611C213.824 139.151 215.172 139.42 216.695 139.42C218.863 139.42 220.627 138.91 221.986 137.891C223.346 136.86 224.025 135.494 224.025 133.795C224.025 132.776 223.779 131.914 223.287 131.211C222.807 130.496 222.062 129.887 221.055 129.383C220.047 128.879 218.729 128.445 217.1 128.082C215.482 127.719 214.363 127.338 213.742 126.94C213.121 126.541 212.811 125.949 212.811 125.164C212.811 124.332 213.145 123.658 213.812 123.143C214.48 122.627 215.406 122.369 216.59 122.369C217.738 122.369 218.688 122.692 219.438 123.336C220.199 123.981 220.58 124.748 220.58 125.639H223.85C223.85 125.293 223.823 124.96 223.769 124.639C223.554 123.349 222.907 122.259 221.828 121.367C220.492 120.254 218.746 119.697 216.59 119.697C214.539 119.697 212.852 120.236 211.527 121.315C210.215 122.393 209.559 123.711 209.559 125.27C209.559 126.207 209.787 127.016 210.244 127.695C210.713 128.375 211.428 128.961 212.389 129.453C213.361 129.945 214.668 130.367 216.309 130.719C217.961 131.07 219.115 131.492 219.771 131.985C220.439 132.465 220.773 133.145 220.773 134.024C220.773 134.856 220.398 135.524 219.648 136.027Z" fill="#E8A1EE"/>
<g id="# Partes">
<path d="M434.596 131.861H429.955L428.549 139.068H426.035L427.441 131.861H423.24V129.453H427.898L429.111 123.231H424.576V120.787H429.586L431.027 113.475H433.541L432.1 120.787H436.74L438.182 113.475H440.713L439.271 120.787H442.857V123.231H438.797L437.584 129.453H441.539V131.861H437.127L435.721 139.068H433.189L434.596 131.861ZM430.412 129.453H435.053L436.266 123.231H431.625L430.412 129.453Z" fill="#E8A1EE"/>
<path d="M458.607 129.049V139.068H455.232V113.475H464.672C467.473 113.475 469.664 114.19 471.246 115.619C472.84 117.049 473.637 118.942 473.637 121.297C473.637 123.781 472.857 125.697 471.299 127.045C469.752 128.381 467.531 129.049 464.637 129.049H458.607ZM458.607 126.289H464.672C466.477 126.289 467.859 125.867 468.82 125.024C469.781 124.168 470.262 122.938 470.262 121.332C470.262 119.809 469.781 118.59 468.82 117.676C467.859 116.762 466.541 116.287 464.865 116.252H458.607V126.289Z" fill="#E8A1EE"/>
<path d="M488.965 139.068C488.777 138.693 488.625 138.026 488.508 137.065C486.996 138.635 485.191 139.42 483.094 139.42C481.219 139.42 479.678 138.893 478.471 137.838C477.275 136.772 476.678 135.424 476.678 133.795C476.678 131.815 477.428 130.279 478.928 129.19C480.439 128.088 482.561 127.537 485.291 127.537H488.455V126.043C488.455 124.906 488.115 124.004 487.436 123.336C486.756 122.656 485.754 122.317 484.43 122.317C483.27 122.317 482.297 122.61 481.512 123.195C480.727 123.781 480.334 124.49 480.334 125.322H477.064C477.064 124.373 477.398 123.459 478.066 122.58C478.746 121.69 479.66 120.986 480.809 120.471C481.969 119.955 483.24 119.697 484.623 119.697C486.814 119.697 488.531 120.248 489.773 121.35C491.016 122.44 491.66 123.945 491.707 125.867V134.621C491.707 136.367 491.93 137.756 492.375 138.787V139.068H488.965ZM483.568 136.59C484.588 136.59 485.555 136.326 486.469 135.799C487.383 135.272 488.045 134.586 488.455 133.742V129.84H485.906C481.922 129.84 479.93 131.006 479.93 133.338C479.93 134.358 480.27 135.154 480.949 135.729C481.629 136.303 482.502 136.59 483.568 136.59Z" fill="#E8A1EE"/>
<path d="M505.998 122.967C505.506 122.885 504.973 122.844 504.398 122.844C502.266 122.844 500.818 123.752 500.057 125.568V139.068H496.805V120.049H499.969L500.021 122.246C501.088 120.547 502.6 119.697 504.557 119.697C505.189 119.697 505.67 119.779 505.998 119.943V122.967Z" fill="#E8A1EE"/>
<path d="M514.295 115.443V120.049H517.846V122.563H514.295V134.358C514.295 135.119 514.453 135.693 514.77 136.08C515.086 136.455 515.625 136.643 516.387 136.643C516.762 136.643 517.277 136.572 517.934 136.432V139.068C517.078 139.303 516.246 139.42 515.438 139.42C513.984 139.42 512.889 138.981 512.15 138.102C511.412 137.223 511.043 135.975 511.043 134.358V122.563H507.58V120.049H511.043V115.443H514.295Z" fill="#E8A1EE"/>
<path d="M529.553 139.42C526.975 139.42 524.877 138.576 523.26 136.889C521.643 135.19 520.834 132.922 520.834 130.086V129.488C520.834 127.602 521.191 125.92 521.906 124.443C522.633 122.955 523.641 121.795 524.93 120.963C526.23 120.119 527.637 119.697 529.148 119.697C531.621 119.697 533.543 120.512 534.914 122.141C536.285 123.77 536.971 126.102 536.971 129.137V130.49H524.086C524.133 132.365 524.678 133.883 525.721 135.043C526.775 136.192 528.111 136.766 529.729 136.766C530.877 136.766 531.85 136.531 532.646 136.063C533.443 135.594 534.141 134.973 534.738 134.199L536.725 135.746C535.131 138.195 532.74 139.42 529.553 139.42ZM529.148 122.369C527.836 122.369 526.734 122.85 525.844 123.811C524.953 124.76 524.402 126.096 524.191 127.818H533.719V127.572C533.625 125.92 533.18 124.643 532.383 123.74C531.586 122.826 530.508 122.369 529.148 122.369Z" fill="#E8A1EE"/>
<path d="M551.824 134.024C551.824 133.145 551.49 132.465 550.822 131.985C550.166 131.492 549.012 131.07 547.359 130.719C545.719 130.367 544.412 129.945 543.439 129.453C542.479 128.961 541.764 128.375 541.295 127.695C540.838 127.016 540.609 126.207 540.609 125.27C540.609 123.711 541.266 122.393 542.578 121.315C543.902 120.236 545.59 119.697 547.641 119.697C549.797 119.697 551.543 120.254 552.879 121.367C554.227 122.481 554.9 123.904 554.9 125.639H551.631C551.631 124.748 551.25 123.981 550.488 123.336C549.738 122.692 548.789 122.369 547.641 122.369C546.457 122.369 545.531 122.627 544.863 123.143C544.195 123.658 543.861 124.332 543.861 125.164C543.861 125.949 544.172 126.541 544.793 126.94C545.414 127.338 546.533 127.719 548.15 128.082C549.779 128.445 551.098 128.879 552.105 129.383C553.113 129.887 553.857 130.496 554.338 131.211C554.83 131.914 555.076 132.776 555.076 133.795C555.076 135.494 554.396 136.86 553.037 137.891C551.678 138.91 549.914 139.42 547.746 139.42C546.223 139.42 544.875 139.151 543.703 138.611C542.531 138.072 541.611 137.322 540.943 136.361C540.287 135.389 539.959 134.34 539.959 133.215H543.211C543.27 134.305 543.703 135.172 544.512 135.817C545.332 136.449 546.41 136.766 547.746 136.766C548.977 136.766 549.961 136.52 550.699 136.027C551.449 135.524 551.824 134.856 551.824 134.024Z" fill="#E8A1EE"/>
</g>
<path id="# Partes (Stroke)" fill-rule="evenodd" clip-rule="evenodd" d="M434.596 131.861H429.955L428.549 139.068H426.035L427.441 131.861H423.24V129.453H427.898L429.111 123.231H424.576V120.787H429.586L431.027 113.475H433.541L432.1 120.787H436.74L438.182 113.475H440.713L439.271 120.787H442.857V123.231H438.797L437.584 129.453H441.539V131.861H437.127L435.721 139.068H433.189L434.596 131.861ZM437.951 132.861L436.544 140.068H431.975L433.382 132.861H430.779L429.373 140.068H424.821L426.227 132.861H422.24V128.453H427.075L427.898 124.231H423.576V119.787H428.764L430.205 112.475H434.757L433.316 119.787H435.918L437.36 112.475H441.929L440.488 119.787H443.857V124.231H439.621L438.798 128.453H442.539V132.861H437.951ZM434.229 128.453L435.052 124.231H432.449L431.626 128.453H434.229ZM430.412 129.453H435.053L436.266 123.231H431.625L430.412 129.453ZM459.607 140.068H454.232V112.475H464.672C467.64 112.475 470.098 113.235 471.915 114.876C473.742 116.516 474.637 118.69 474.637 121.297C474.637 124.006 473.776 126.225 471.953 127.801C470.161 129.349 467.672 130.049 464.637 130.049H459.607V140.068ZM458.607 129.049H464.637C467.531 129.049 469.752 128.381 471.299 127.045C472.857 125.697 473.637 123.781 473.637 121.297C473.637 118.942 472.84 117.049 471.246 115.619C469.664 114.19 467.473 113.475 464.672 113.475H455.232V139.068H458.607V129.049ZM459.607 125.289H464.672C466.331 125.289 467.442 124.901 468.158 124.274C468.853 123.654 469.262 122.727 469.262 121.332C469.262 120.038 468.863 119.097 468.131 118.4C467.397 117.702 466.344 117.285 464.854 117.252H459.607V125.289ZM458.607 126.289V116.252H464.865C466.541 116.287 467.859 116.762 468.82 117.676C469.781 118.59 470.262 119.809 470.262 121.332C470.262 122.938 469.781 124.168 468.82 125.024C467.859 125.867 466.477 126.289 464.672 126.289H458.607ZM488.347 140.068L488.07 139.516C487.988 139.35 487.914 139.158 487.85 138.944C486.454 139.921 484.862 140.42 483.094 140.42C481.02 140.42 479.232 139.831 477.813 138.591L477.805 138.584C476.393 137.324 475.678 135.703 475.678 133.795C475.678 131.52 476.561 129.673 478.34 128.381C480.085 127.109 482.443 126.537 485.291 126.537H487.455V126.043C487.455 125.119 487.187 124.494 486.735 124.049L486.728 124.043C486.298 123.613 485.591 123.317 484.43 123.317C483.444 123.317 482.692 123.562 482.11 123.997C481.527 124.432 481.334 124.864 481.334 125.322V126.322H476.064V125.322C476.064 124.12 476.492 122.999 477.27 121.975L477.271 121.974C478.064 120.935 479.118 120.134 480.399 119.559L480.402 119.557C481.702 118.98 483.113 118.697 484.623 118.697C486.978 118.697 488.958 119.291 490.435 120.6C491.921 121.905 492.654 123.693 492.707 125.843L492.707 125.855V134.621C492.707 136.299 492.923 137.535 493.293 138.391L493.375 138.581V140.068H488.347ZM489.773 121.35C488.531 120.248 486.814 119.697 484.623 119.697C483.24 119.697 481.969 119.955 480.809 120.471C479.66 120.986 478.746 121.69 478.066 122.58C477.636 123.146 477.344 123.727 477.191 124.322C477.107 124.651 477.064 124.985 477.064 125.322H480.334C480.334 124.49 480.727 123.781 481.512 123.195C482.297 122.61 483.27 122.317 484.43 122.317C485.754 122.317 486.756 122.656 487.436 123.336C488.115 124.004 488.455 124.906 488.455 126.043V127.537H485.291C482.561 127.537 480.439 128.088 478.928 129.19C477.428 130.279 476.678 131.815 476.678 133.795C476.678 135.424 477.275 136.772 478.471 137.838C479.678 138.893 481.219 139.42 483.094 139.42C484.792 139.42 486.298 138.905 487.613 137.876C487.922 137.634 488.22 137.364 488.508 137.065C488.565 137.534 488.631 137.934 488.705 138.264C488.782 138.609 488.869 138.877 488.965 139.068H492.375V138.787C492.279 138.564 492.193 138.325 492.117 138.068C491.844 137.139 491.707 135.99 491.707 134.621V125.867C491.66 123.945 491.016 122.44 489.773 121.35ZM483.568 135.59C484.406 135.59 485.201 135.376 485.969 134.933C486.655 134.537 487.138 134.056 487.455 133.497V130.84H485.906C483.979 130.84 482.697 131.128 481.929 131.578C481.243 131.979 480.93 132.523 480.93 133.338C480.93 134.111 481.174 134.609 481.595 134.965C482.06 135.358 482.689 135.59 483.568 135.59ZM485.906 129.84C481.922 129.84 479.93 131.006 479.93 133.338C479.93 134.358 480.27 135.154 480.949 135.729C481.629 136.303 482.502 136.59 483.568 136.59C484.588 136.59 485.555 136.326 486.469 135.799C487.383 135.272 488.045 134.586 488.455 133.742V129.84H485.906ZM506.998 124.147L505.834 123.953C505.403 123.882 504.926 123.844 504.398 123.844C503.474 123.844 502.774 124.04 502.245 124.372C501.764 124.674 501.362 125.127 501.057 125.78V140.068H495.805V119.049H500.945L500.963 119.781C501.975 119.065 503.18 118.697 504.557 118.697C505.247 118.697 505.912 118.782 506.445 119.049L506.58 119.116V119.049H510.043V114.443H515.295V119.049H518.846V123.563H515.295V134.358C515.295 134.993 515.428 135.301 515.538 135.44C515.586 135.494 515.775 135.643 516.387 135.643C516.657 135.643 517.092 135.589 517.724 135.454L518.934 135.195V139.831L518.198 140.033C517.265 140.289 516.344 140.42 515.438 140.42C513.774 140.42 512.362 139.908 511.385 138.745C510.444 137.624 510.043 136.115 510.043 134.358V123.563H506.998V124.147ZM511.043 122.563V134.358C511.043 135.975 511.412 137.223 512.15 138.102C512.889 138.981 513.984 139.42 515.438 139.42C516.246 139.42 517.078 139.303 517.934 139.068V136.432C517.553 136.513 517.22 136.571 516.934 136.606C516.727 136.63 516.544 136.643 516.387 136.643C515.625 136.643 515.086 136.455 514.77 136.08C514.453 135.693 514.295 135.119 514.295 134.358V122.563H517.846V120.049H514.295V115.443H511.043V120.049H507.58V122.563H511.043ZM500.993 121.046C500.636 121.383 500.312 121.783 500.021 122.246L499.969 120.049H496.805V139.068H500.057V125.568C500.818 123.752 502.266 122.844 504.398 122.844C504.604 122.844 504.803 122.849 504.998 122.86C505.348 122.878 505.682 122.914 505.998 122.967V119.943C505.67 119.779 505.189 119.697 504.557 119.697C503.133 119.697 501.945 120.147 500.993 121.046ZM522.538 137.581L522.535 137.578C520.706 135.656 519.834 133.122 519.834 130.086V129.488C519.834 127.473 520.216 125.639 521.006 124.008L521.008 124.005C521.807 122.367 522.932 121.062 524.386 120.124C525.844 119.178 527.439 118.697 529.148 118.697C531.863 118.697 534.086 119.605 535.679 121.497C537.255 123.369 537.971 125.965 537.971 129.137V131.49H525.172C525.351 132.679 525.792 133.625 526.461 134.371C527.318 135.302 528.382 135.766 529.729 135.766C530.741 135.766 531.529 135.56 532.139 135.201C532.82 134.8 533.423 134.266 533.947 133.588L534.561 132.794L538.064 135.522L537.563 136.292C535.765 139.054 533.042 140.42 529.553 140.42C526.733 140.42 524.364 139.486 522.538 137.581ZM525.721 135.043C524.87 134.097 524.351 132.912 524.163 131.49C524.12 131.169 524.095 130.836 524.086 130.49H536.971V129.137C536.971 126.102 536.285 123.77 534.914 122.141C533.543 120.512 531.621 119.697 529.148 119.697C527.637 119.697 526.23 120.119 524.93 120.963C523.641 121.795 522.633 122.955 521.906 124.443C521.191 125.92 520.834 127.602 520.834 129.488V130.086C520.834 132.922 521.643 135.19 523.26 136.889C524.877 138.576 526.975 139.42 529.553 139.42C532.74 139.42 535.131 138.195 536.725 135.746L534.738 134.199C534.725 134.216 534.713 134.232 534.7 134.249C534.111 134.999 533.426 135.604 532.646 136.063C531.85 136.531 530.877 136.766 529.729 136.766C528.111 136.766 526.775 136.192 525.721 135.043ZM526.577 124.49L526.573 124.495C526.049 125.053 525.642 125.814 525.389 126.818H532.638C532.475 125.737 532.12 124.954 531.633 124.402L531.629 124.398C531.046 123.729 530.258 123.369 529.148 123.369C528.114 123.369 527.278 123.734 526.577 124.49ZM533.648 126.818C533.68 127.06 533.704 127.312 533.719 127.572V127.818H524.191C524.234 127.469 524.291 127.136 524.362 126.818C524.64 125.57 525.134 124.567 525.844 123.811C526.734 122.85 527.836 122.369 529.148 122.369C530.508 122.369 531.586 122.826 532.383 123.74C533.054 124.5 533.476 125.526 533.648 126.818ZM550.23 132.79L550.222 132.785C549.751 132.431 548.781 132.044 547.151 131.697L547.15 131.697C545.465 131.336 544.067 130.891 542.988 130.346L542.984 130.343C541.919 129.798 541.059 129.114 540.472 128.263L540.465 128.253C539.882 127.386 539.609 126.376 539.609 125.27C539.609 123.383 540.423 121.791 541.943 120.542L541.947 120.539C543.483 119.288 545.408 118.697 547.641 118.697C549.972 118.697 551.962 119.302 553.517 120.598C555.092 121.899 555.9 123.604 555.9 125.639V126.639H550.631V125.639C550.631 125.08 550.41 124.58 549.842 124.099L549.837 124.095C549.297 123.631 548.591 123.369 547.641 123.369C546.591 123.369 545.909 123.599 545.474 123.934C545.048 124.264 544.861 124.647 544.861 125.164C544.861 125.635 545.02 125.897 545.333 126.098C545.793 126.393 546.76 126.745 548.369 127.106C550.043 127.48 551.446 127.935 552.553 128.489C553.666 129.045 554.561 129.754 555.163 130.646C555.789 131.545 556.076 132.613 556.076 133.795C556.076 135.809 555.249 137.468 553.641 138.687L553.637 138.691C552.062 139.872 550.07 140.42 547.746 140.42C546.104 140.42 544.61 140.129 543.285 139.52C541.968 138.914 540.902 138.054 540.122 136.932L540.114 136.921C539.352 135.79 538.959 134.548 538.959 133.215V132.215H544.159L544.209 133.161C544.254 133.981 544.561 134.575 545.129 135.03C545.729 135.49 546.571 135.766 547.746 135.766C548.852 135.766 549.621 135.544 550.143 135.196C550.643 134.86 550.824 134.49 550.824 134.024C550.824 133.441 550.625 133.074 550.238 132.796L550.23 132.79ZM550.699 136.027C549.961 136.52 548.977 136.766 547.746 136.766C546.41 136.766 545.332 136.449 544.512 135.817C543.703 135.172 543.27 134.305 543.211 133.215H539.959C539.959 133.555 539.989 133.889 540.049 134.215C540.188 134.968 540.486 135.683 540.943 136.361C541.611 137.322 542.531 138.072 543.703 138.611C544.875 139.151 546.223 139.42 547.746 139.42C549.914 139.42 551.678 138.91 553.037 137.891C554.396 136.86 555.076 135.494 555.076 133.795C555.076 132.776 554.83 131.914 554.338 131.211C553.857 130.496 553.113 129.887 552.105 129.383C551.098 128.879 549.779 128.445 548.15 128.082C546.533 127.719 545.414 127.338 544.793 126.94C544.172 126.541 543.861 125.949 543.861 125.164C543.861 124.332 544.195 123.658 544.863 123.143C545.531 122.627 546.457 122.369 547.641 122.369C548.789 122.369 549.738 122.692 550.488 123.336C551.25 123.981 551.631 124.748 551.631 125.639H554.9C554.9 125.293 554.874 124.96 554.82 124.639C554.605 123.349 553.958 122.259 552.879 121.367C551.543 120.254 549.797 119.697 547.641 119.697C545.59 119.697 543.902 120.236 542.578 121.315C541.266 122.393 540.609 123.711 540.609 125.27C540.609 126.207 540.838 127.016 541.295 127.695C541.764 128.375 542.479 128.961 543.439 129.453C544.412 129.945 545.719 130.367 547.359 130.719C549.012 131.07 550.166 131.492 550.822 131.985C551.49 132.465 551.824 133.145 551.824 134.024C551.824 134.856 551.449 135.524 550.699 136.027Z" fill="#E8A1EE"/>
<g id="Distancia">
<path d="M716.299 139.068V113.475H723.523C725.75 113.475 727.719 113.967 729.43 114.951C731.141 115.936 732.459 117.336 733.385 119.152C734.322 120.969 734.797 123.055 734.809 125.41V127.045C734.809 129.459 734.34 131.574 733.402 133.391C732.477 135.207 731.146 136.602 729.412 137.574C727.689 138.547 725.68 139.045 723.383 139.068H716.299ZM719.674 116.252V136.309H723.225C725.826 136.309 727.848 135.5 729.289 133.883C730.742 132.266 731.469 129.963 731.469 126.975V125.481C731.469 122.574 730.783 120.318 729.412 118.713C728.053 117.096 726.119 116.276 723.611 116.252H719.674Z" fill="#E8A1EE"/>
<path d="M742.947 139.068H739.695V120.049H742.947V139.068ZM739.432 115.004C739.432 114.477 739.59 114.031 739.906 113.668C740.234 113.305 740.715 113.123 741.348 113.123C741.98 113.123 742.461 113.305 742.789 113.668C743.117 114.031 743.281 114.477 743.281 115.004C743.281 115.531 743.117 115.971 742.789 116.322C742.461 116.674 741.98 116.85 741.348 116.85C740.715 116.85 740.234 116.674 739.906 116.322C739.59 115.971 739.432 115.531 739.432 115.004Z" fill="#E8A1EE"/>
<path d="M759.242 134.024C759.242 133.145 758.908 132.465 758.24 131.985C757.584 131.492 756.43 131.07 754.777 130.719C753.137 130.367 751.83 129.945 750.857 129.453C749.896 128.961 749.182 128.375 748.713 127.695C748.256 127.016 748.027 126.207 748.027 125.27C748.027 123.711 748.684 122.393 749.996 121.315C751.32 120.236 753.008 119.697 755.059 119.697C757.215 119.697 758.961 120.254 760.297 121.367C761.645 122.481 762.318 123.904 762.318 125.639H759.049C759.049 124.748 758.668 123.981 757.906 123.336C757.156 122.692 756.207 122.369 755.059 122.369C753.875 122.369 752.949 122.627 752.281 123.143C751.613 123.658 751.279 124.332 751.279 125.164C751.279 125.949 751.59 126.541 752.211 126.94C752.832 127.338 753.951 127.719 755.568 128.082C757.197 128.445 758.516 128.879 759.523 129.383C760.531 129.887 761.275 130.496 761.756 131.211C762.248 131.914 762.494 132.776 762.494 133.795C762.494 135.494 761.814 136.86 760.455 137.891C759.096 138.91 757.332 139.42 755.164 139.42C753.641 139.42 752.293 139.151 751.121 138.611C749.949 138.072 749.029 137.322 748.361 136.361C747.705 135.389 747.377 134.34 747.377 133.215H750.629C750.688 134.305 751.121 135.172 751.93 135.817C752.75 136.449 753.828 136.766 755.164 136.766C756.395 136.766 757.379 136.52 758.117 136.027C758.867 135.524 759.242 134.856 759.242 134.024Z" fill="#E8A1EE"/>
<path d="M771.143 115.443V120.049H774.693V122.563H771.143V134.358C771.143 135.119 771.301 135.693 771.617 136.08C771.934 136.455 772.473 136.643 773.234 136.643C773.609 136.643 774.125 136.572 774.781 136.432V139.068C773.926 139.303 773.094 139.42 772.285 139.42C770.832 139.42 769.736 138.981 768.998 138.102C768.26 137.223 767.891 135.975 767.891 134.358V122.563H764.428V120.049H767.891V115.443H771.143Z" fill="#E8A1EE"/>
<path d="M790.25 139.068C790.062 138.693 789.91 138.026 789.793 137.065C788.281 138.635 786.477 139.42 784.379 139.42C782.504 139.42 780.963 138.893 779.756 137.838C778.561 136.772 777.963 135.424 777.963 133.795C777.963 131.815 778.713 130.279 780.213 129.19C781.725 128.088 783.846 127.537 786.576 127.537H789.74V126.043C789.74 124.906 789.4 124.004 788.721 123.336C788.041 122.656 787.039 122.317 785.715 122.317C784.555 122.317 783.582 122.61 782.797 123.195C782.012 123.781 781.619 124.49 781.619 125.322H778.35C778.35 124.373 778.684 123.459 779.352 122.58C780.031 121.69 780.945 120.986 782.094 120.471C783.254 119.955 784.525 119.697 785.908 119.697C788.1 119.697 789.816 120.248 791.059 121.35C792.301 122.44 792.945 123.945 792.992 125.867V134.621C792.992 136.367 793.215 137.756 793.66 138.787V139.068H790.25ZM784.854 136.59C785.873 136.59 786.84 136.326 787.754 135.799C788.668 135.272 789.33 134.586 789.74 133.742V129.84H787.191C783.207 129.84 781.215 131.006 781.215 133.338C781.215 134.358 781.555 135.154 782.234 135.729C782.914 136.303 783.787 136.59 784.854 136.59Z" fill="#E8A1EE"/>
<path d="M801.166 120.049L801.271 122.44C802.725 120.611 804.623 119.697 806.967 119.697C810.986 119.697 813.014 121.965 813.049 126.5V139.068H809.797V126.483C809.785 125.111 809.469 124.098 808.848 123.442C808.238 122.785 807.283 122.457 805.982 122.457C804.928 122.457 804.002 122.738 803.205 123.301C802.408 123.863 801.787 124.602 801.342 125.516V139.068H798.09V120.049H801.166Z" fill="#E8A1EE"/>
<path d="M825.582 136.766C826.742 136.766 827.756 136.414 828.623 135.711C829.49 135.008 829.971 134.129 830.064 133.074H833.141C833.082 134.164 832.707 135.201 832.016 136.186C831.324 137.17 830.398 137.955 829.238 138.541C828.09 139.127 826.871 139.42 825.582 139.42C822.992 139.42 820.93 138.559 819.395 136.836C817.871 135.102 817.109 132.735 817.109 129.735V129.19C817.109 127.338 817.449 125.692 818.129 124.25C818.809 122.809 819.781 121.69 821.047 120.893C822.324 120.096 823.83 119.697 825.564 119.697C827.697 119.697 829.467 120.336 830.873 121.613C832.291 122.891 833.047 124.549 833.141 126.588H830.064C829.971 125.358 829.502 124.35 828.658 123.565C827.826 122.768 826.795 122.369 825.564 122.369C823.912 122.369 822.629 122.967 821.715 124.162C820.812 125.346 820.361 127.063 820.361 129.313V129.928C820.361 132.119 820.812 133.807 821.715 134.99C822.617 136.174 823.906 136.766 825.582 136.766Z" fill="#E8A1EE"/>
<path d="M840.33 139.068H837.078V120.049H840.33V139.068ZM836.814 115.004C836.814 114.477 836.973 114.031 837.289 113.668C837.617 113.305 838.098 113.123 838.73 113.123C839.363 113.123 839.844 113.305 840.172 113.668C840.5 114.031 840.664 114.477 840.664 115.004C840.664 115.531 840.5 115.971 840.172 116.322C839.844 116.674 839.363 116.85 838.73 116.85C838.098 116.85 837.617 116.674 837.289 116.322C836.973 115.971 836.814 115.531 836.814 115.004Z" fill="#E8A1EE"/>
<path d="M857.293 139.068C857.105 138.693 856.953 138.026 856.836 137.065C855.324 138.635 853.52 139.42 851.422 139.42C849.547 139.42 848.006 138.893 846.799 137.838C845.604 136.772 845.006 135.424 845.006 133.795C845.006 131.815 845.756 130.279 847.256 129.19C848.768 128.088 850.889 127.537 853.619 127.537H856.783V126.043C856.783 124.906 856.443 124.004 855.764 123.336C855.084 122.656 854.082 122.317 852.758 122.317C851.598 122.317 850.625 122.61 849.84 123.195C849.055 123.781 848.662 124.49 848.662 125.322H845.393C845.393 124.373 845.727 123.459 846.395 122.58C847.074 121.69 847.988 120.986 849.137 120.471C850.297 119.955 851.568 119.697 852.951 119.697C855.143 119.697 856.859 120.248 858.102 121.35C859.344 122.44 859.988 123.945 860.035 125.867V134.621C860.035 136.367 860.258 137.756 860.703 138.787V139.068H857.293ZM851.896 136.59C852.916 136.59 853.883 136.326 854.797 135.799C855.711 135.272 856.373 134.586 856.783 133.742V129.84H854.234C850.25 129.84 848.258 131.006 848.258 133.338C848.258 134.358 848.598 135.154 849.277 135.729C849.957 136.303 850.83 136.59 851.896 136.59Z" fill="#E8A1EE"/>
</g>
<path id="Distancia (Stroke)" fill-rule="evenodd" clip-rule="evenodd" d="M715.299 140.068V112.475H723.523C725.902 112.475 728.047 113.002 729.928 114.085C731.812 115.168 733.264 116.714 734.275 118.696C735.294 120.672 735.796 122.917 735.809 125.405L735.809 125.41L735.809 127.045C735.809 129.589 735.314 131.866 734.292 133.847C733.279 135.833 731.813 137.374 729.903 138.446C728.011 139.513 725.831 140.044 723.393 140.068L723.383 140.069L715.299 140.068ZM733.402 133.391C734.34 131.574 734.809 129.459 734.809 127.045V125.41C734.797 123.055 734.322 120.969 733.385 119.152C732.459 117.336 731.141 115.936 729.43 114.951C727.719 113.967 725.75 113.475 723.523 113.475H716.299V139.068H723.383C725.68 139.045 727.689 138.547 729.412 137.574C731.146 136.602 732.477 135.207 733.402 133.391ZM728.543 133.218L728.545 133.215C729.78 131.84 730.469 129.809 730.469 126.975V125.481C730.469 122.723 729.819 120.729 728.652 119.362L728.647 119.356C727.511 118.006 725.88 117.274 723.607 117.252H720.674V135.309H723.225C725.603 135.309 727.329 134.579 728.543 133.218ZM719.674 136.309V116.252H723.611C726.119 116.276 728.053 117.096 729.412 118.713C730.783 120.318 731.469 122.574 731.469 125.481V126.975C731.469 129.963 730.742 132.266 729.289 133.883C727.848 135.5 725.826 136.309 723.225 136.309H719.674ZM743.947 140.068H738.695V119.049H743.947V140.068ZM739.158 113.005L739.164 112.998C739.734 112.367 740.52 112.123 741.348 112.123C742.175 112.123 742.962 112.367 743.531 112.998C744.039 113.56 744.281 114.25 744.281 115.004C744.281 115.758 744.038 116.449 743.52 117.005C742.948 117.618 742.166 117.85 741.348 117.85C740.53 117.85 739.747 117.618 739.175 117.005L739.169 116.998L739.163 116.991C738.662 116.435 738.432 115.748 738.432 115.004C738.432 114.26 738.662 113.574 739.152 113.011L739.158 113.005ZM757.648 132.79L757.64 132.785C757.169 132.431 756.199 132.044 754.569 131.697L754.568 131.697C752.883 131.336 751.485 130.891 750.406 130.346L750.402 130.343C749.337 129.798 748.477 129.114 747.89 128.263L747.883 128.253C747.3 127.386 747.027 126.376 747.027 125.27C747.027 123.383 747.841 121.791 749.361 120.542L749.365 120.539C750.901 119.288 752.826 118.697 755.059 118.697C757.39 118.697 759.38 119.302 760.935 120.598C762.51 121.899 763.318 123.604 763.318 125.639V126.639H758.049V125.639C758.049 125.08 757.828 124.58 757.26 124.099L757.254 124.095C756.715 123.631 756.009 123.369 755.059 123.369C754.009 123.369 753.327 123.599 752.892 123.934C752.466 124.264 752.279 124.647 752.279 125.164C752.279 125.635 752.438 125.897 752.751 126.098C753.211 126.393 754.178 126.745 755.787 127.106C757.461 127.48 758.864 127.935 759.971 128.489C761.083 129.045 761.979 129.753 762.581 130.645C763.207 131.545 763.494 132.613 763.494 133.795C763.494 135.809 762.667 137.468 761.059 138.687L761.055 138.691C759.48 139.872 757.488 140.42 755.164 140.42C753.522 140.42 752.028 140.129 750.703 139.52C749.386 138.914 748.32 138.054 747.54 136.932L747.532 136.921C746.77 135.79 746.377 134.548 746.377 133.215V132.215H751.577L751.627 133.161C751.672 133.981 751.979 134.575 752.547 135.03C753.147 135.49 753.989 135.766 755.164 135.766C756.27 135.766 757.039 135.544 757.561 135.196C758.061 134.86 758.242 134.49 758.242 134.024C758.242 133.441 758.043 133.074 757.656 132.796L757.648 132.79ZM758.117 136.027C757.379 136.52 756.395 136.766 755.164 136.766C753.828 136.766 752.75 136.449 751.93 135.817C751.121 135.172 750.688 134.305 750.629 133.215H747.377C747.377 133.555 747.407 133.889 747.467 134.215C747.605 134.968 747.904 135.683 748.361 136.361C749.029 137.322 749.949 138.072 751.121 138.611C752.293 139.151 753.641 139.42 755.164 139.42C757.332 139.42 759.096 138.91 760.455 137.891C761.814 136.86 762.494 135.494 762.494 133.795C762.494 132.776 762.248 131.914 761.756 131.211C761.275 130.496 760.531 129.887 759.523 129.383C758.516 128.879 757.197 128.445 755.568 128.082C753.951 127.719 752.832 127.338 752.211 126.94C751.59 126.541 751.279 125.949 751.279 125.164C751.279 124.332 751.613 123.658 752.281 123.143C752.949 122.627 753.875 122.369 755.059 122.369C756.207 122.369 757.156 122.692 757.906 123.336C758.668 123.981 759.049 124.748 759.049 125.639H762.318C762.318 125.293 762.292 124.96 762.238 124.639C762.023 123.349 761.376 122.259 760.297 121.367C758.961 120.254 757.215 119.697 755.059 119.697C753.008 119.697 751.32 120.236 749.996 121.315C748.684 122.393 748.027 123.711 748.027 125.27C748.027 126.207 748.256 127.016 748.713 127.695C749.182 128.375 749.896 128.961 750.857 129.453C751.83 129.945 753.137 130.367 754.777 130.719C756.43 131.07 757.584 131.492 758.24 131.985C758.908 132.465 759.242 133.145 759.242 134.024C759.242 134.856 758.867 135.524 758.117 136.027ZM772.143 114.443V119.049H775.693V123.563H772.143V134.358C772.143 134.993 772.276 135.301 772.385 135.44C772.434 135.494 772.623 135.643 773.234 135.643C773.504 135.643 773.939 135.589 774.572 135.454L775.781 135.195V139.831L775.045 140.033C774.112 140.289 773.191 140.42 772.285 140.42C770.622 140.42 769.209 139.908 768.232 138.745C767.291 137.624 766.891 136.115 766.891 134.358V123.563H763.428V119.049H766.891V114.443H772.143ZM767.891 120.049H764.428V122.563H767.891V134.358C767.891 135.975 768.26 137.223 768.998 138.102C769.736 138.981 770.832 139.42 772.285 139.42C773.094 139.42 773.926 139.303 774.781 139.068V136.432C774.401 136.513 774.067 136.571 773.781 136.606C773.574 136.63 773.392 136.643 773.234 136.643C772.473 136.643 771.934 136.455 771.617 136.08C771.301 135.693 771.143 135.119 771.143 134.358V122.563H774.693V120.049H771.143V115.443H767.891V120.049ZM789.632 140.068L789.356 139.516C789.273 139.35 789.2 139.158 789.135 138.944C787.739 139.921 786.147 140.42 784.379 140.42C782.305 140.42 780.517 139.831 779.098 138.591L779.09 138.584C777.678 137.324 776.963 135.703 776.963 133.795C776.963 131.52 777.846 129.673 779.625 128.381C781.37 127.109 783.728 126.537 786.576 126.537H788.74V126.043C788.74 125.119 788.472 124.494 788.02 124.049L788.014 124.043C787.583 123.613 786.876 123.317 785.715 123.317C784.729 123.317 783.977 123.562 783.395 123.997C782.812 124.432 782.619 124.864 782.619 125.322V126.322H777.35V125.322C777.35 124.12 777.778 122.999 778.555 121.975L778.557 121.974C779.349 120.935 780.403 120.134 781.684 119.559L781.688 119.557C782.987 118.98 784.398 118.697 785.908 118.697C788.264 118.697 790.244 119.291 791.721 120.6C793.206 121.905 793.939 123.693 793.992 125.843L793.992 125.855V134.621C793.992 136.299 794.209 137.535 794.578 138.391L794.66 138.581V140.068H789.632ZM791.059 121.35C789.816 120.248 788.1 119.697 785.908 119.697C784.525 119.697 783.254 119.955 782.094 120.471C780.945 120.986 780.031 121.69 779.352 122.58C778.921 123.146 778.63 123.727 778.476 124.322C778.392 124.651 778.35 124.985 778.35 125.322H781.619C781.619 124.49 782.012 123.781 782.797 123.195C783.582 122.61 784.555 122.317 785.715 122.317C787.039 122.317 788.041 122.656 788.721 123.336C789.4 124.004 789.74 124.906 789.74 126.043V127.537H786.576C783.846 127.537 781.725 128.088 780.213 129.19C778.713 130.279 777.963 131.815 777.963 133.795C777.963 135.424 778.561 136.772 779.756 137.838C780.963 138.893 782.504 139.42 784.379 139.42C786.077 139.42 787.584 138.905 788.898 137.876C789.207 137.634 789.505 137.364 789.793 137.065C789.85 137.534 789.916 137.934 789.99 138.264C790.068 138.609 790.154 138.877 790.25 139.068H793.66V138.787C793.564 138.564 793.478 138.325 793.403 138.068C793.129 137.139 792.992 135.99 792.992 134.621V125.867C792.945 123.945 792.301 122.44 791.059 121.35ZM784.854 135.59C785.691 135.59 786.487 135.376 787.254 134.933C787.941 134.537 788.423 134.056 788.74 133.497V130.84H787.191C785.264 130.84 783.983 131.128 783.214 131.578C782.528 131.979 782.215 132.523 782.215 133.338C782.215 134.111 782.459 134.609 782.88 134.965C783.345 135.358 783.974 135.59 784.854 135.59ZM787.191 129.84C783.207 129.84 781.215 131.006 781.215 133.338C781.215 134.358 781.555 135.154 782.234 135.729C782.914 136.303 783.787 136.59 784.854 136.59C785.873 136.59 786.84 136.326 787.754 135.799C788.668 135.272 789.33 134.586 789.74 133.742V129.84H787.191ZM802.123 119.049L802.173 120.187C803.534 119.198 805.141 118.697 806.967 118.697C809.165 118.697 810.988 119.323 812.247 120.732C813.487 122.118 814.03 124.098 814.049 126.492L814.049 126.5L814.049 140.068H808.797V126.487C808.786 125.244 808.497 124.526 808.121 124.129L808.115 124.122C807.767 123.747 807.133 123.457 805.982 123.457C805.117 123.457 804.396 123.684 803.782 124.118C803.185 124.539 802.706 125.08 802.342 125.757V140.068H797.09V119.049H802.123ZM801.342 125.516C801.787 124.602 802.408 123.863 803.205 123.301C804.002 122.738 804.928 122.457 805.982 122.457C807.283 122.457 808.238 122.785 808.848 123.442C809.469 124.098 809.785 125.111 809.797 126.483V139.068H813.049V126.5C813.014 121.965 810.986 119.697 806.967 119.697C805.107 119.697 803.527 120.273 802.228 121.425C801.89 121.724 801.571 122.062 801.271 122.44L801.166 120.049H798.09V139.068H801.342V125.516ZM829.149 132.074H834.196L834.139 133.128C834.07 134.424 833.622 135.639 832.834 136.76C832.041 137.889 830.985 138.779 829.691 139.433C828.403 140.09 827.029 140.42 825.582 140.42C822.746 140.42 820.397 139.464 818.648 137.501L818.643 137.496C816.916 135.53 816.109 132.903 816.109 129.735V129.19C816.109 127.214 816.472 125.418 817.224 123.824C817.98 122.222 819.076 120.952 820.514 120.046L820.518 120.044C821.977 119.134 823.672 118.697 825.564 118.697C827.912 118.697 829.931 119.407 831.544 120.872C833.174 122.341 834.035 124.257 834.14 126.542L834.188 127.588H829.138L829.067 126.664C828.991 125.665 828.623 124.898 827.977 124.297L827.972 124.292L827.967 124.287C827.334 123.681 826.556 123.369 825.564 123.369C824.189 123.369 823.214 123.848 822.51 124.769C821.793 125.71 821.361 127.176 821.361 129.313V129.928C821.361 131.999 821.79 133.44 822.51 134.384C823.198 135.286 824.173 135.766 825.582 135.766C826.523 135.766 827.312 135.487 827.993 134.934C828.663 134.391 829 133.755 829.068 132.986L829.149 132.074ZM821.715 124.162C822.629 122.967 823.912 122.369 825.564 122.369C826.795 122.369 827.826 122.768 828.658 123.565C829.502 124.35 829.971 125.358 830.064 126.588H833.141C833.125 126.244 833.09 125.91 833.037 125.588C832.773 124 832.052 122.675 830.873 121.613C829.467 120.336 827.697 119.697 825.564 119.697C823.83 119.697 822.324 120.096 821.047 120.893C819.781 121.69 818.809 122.809 818.129 124.25C817.449 125.692 817.109 127.338 817.109 129.19V129.735C817.109 132.735 817.871 135.102 819.395 136.836C820.93 138.559 822.992 139.42 825.582 139.42C826.871 139.42 828.09 139.127 829.238 138.541C830.398 137.955 831.324 137.17 832.016 136.186C832.492 135.507 832.819 134.803 832.995 134.074C833.074 133.746 833.122 133.413 833.141 133.074H830.064C829.971 134.129 829.49 135.008 828.623 135.711C827.756 136.414 826.742 136.766 825.582 136.766C823.906 136.766 822.617 136.174 821.715 134.99C820.812 133.807 820.361 132.119 820.361 129.928V129.313C820.361 127.063 820.812 125.346 821.715 124.162ZM841.33 140.068H836.078V119.049H841.33V140.068ZM836.541 113.005L836.547 112.998C837.117 112.367 837.903 112.123 838.73 112.123C839.558 112.123 840.344 112.367 840.914 112.998C841.422 113.56 841.664 114.25 841.664 115.004C841.664 115.758 841.421 116.449 840.903 117.005C840.331 117.618 839.549 117.85 838.73 117.85C837.912 117.85 837.13 117.618 836.558 117.005L836.552 116.998L836.546 116.991C836.045 116.435 835.814 115.748 835.814 115.004C835.814 114.26 836.045 113.574 836.535 113.011L836.541 113.005ZM856.675 140.068L856.399 139.516C856.316 139.35 856.243 139.158 856.178 138.944C854.782 139.921 853.19 140.42 851.422 140.42C849.348 140.42 847.56 139.831 846.141 138.591L846.133 138.584C844.721 137.324 844.006 135.703 844.006 133.795C844.006 131.52 844.889 129.673 846.668 128.381C848.413 127.109 850.771 126.537 853.619 126.537H855.783V126.043C855.783 125.119 855.515 124.494 855.063 124.049L855.057 124.043C854.626 123.613 853.919 123.317 852.758 123.317C851.772 123.317 851.02 123.562 850.438 123.997C849.855 124.432 849.662 124.864 849.662 125.322V126.322H844.393V125.322C844.393 124.12 844.821 122.999 845.598 121.975L845.6 121.974C846.392 120.935 847.446 120.134 848.727 119.559L848.731 119.557C850.03 118.98 851.441 118.697 852.951 118.697C855.306 118.697 857.286 119.291 858.763 120.6C860.249 121.904 860.982 123.693 861.035 125.843L861.035 125.855V134.621C861.035 136.299 861.251 137.535 861.621 138.391L861.703 138.581V140.068H856.675ZM858.102 121.35C856.859 120.248 855.143 119.697 852.951 119.697C851.568 119.697 850.297 119.955 849.137 120.471C847.988 120.986 847.074 121.69 846.395 122.58C845.964 123.146 845.673 123.727 845.519 124.322C845.435 124.651 845.393 124.985 845.393 125.322H848.662C848.662 124.49 849.055 123.781 849.84 123.195C850.625 122.61 851.598 122.317 852.758 122.317C854.082 122.317 855.084 122.656 855.764 123.336C856.443 124.004 856.783 124.906 856.783 126.043V127.537H853.619C850.889 127.537 848.768 128.088 847.256 129.19C845.756 130.279 845.006 131.815 845.006 133.795C845.006 135.424 845.604 136.772 846.799 137.838C848.006 138.893 849.547 139.42 851.422 139.42C853.12 139.42 854.627 138.905 855.941 137.876C856.25 137.634 856.548 137.364 856.836 137.065C856.893 137.534 856.959 137.934 857.033 138.264C857.111 138.609 857.197 138.877 857.293 139.068H860.703V138.787C860.607 138.564 860.521 138.325 860.446 138.068C860.172 137.139 860.035 135.99 860.035 134.621V125.867C859.988 123.945 859.344 122.44 858.102 121.35ZM851.896 135.59C852.734 135.59 853.529 135.376 854.297 134.933C854.983 134.537 855.466 134.056 855.783 133.497V130.84H854.234C852.307 130.84 851.025 131.128 850.257 131.578C849.571 131.979 849.258 132.523 849.258 133.338C849.258 134.111 849.502 134.609 849.923 134.965C850.388 135.358 851.017 135.59 851.896 135.59ZM854.234 129.84C850.25 129.84 848.258 131.006 848.258 133.338C848.258 134.358 848.598 135.154 849.277 135.729C849.957 136.303 850.83 136.59 851.896 136.59C852.916 136.59 853.883 136.326 854.797 135.799C855.711 135.272 856.373 134.586 856.783 133.742V129.84H854.234ZM742.947 139.068V120.049H739.695V139.068H742.947ZM739.906 113.668C739.59 114.031 739.432 114.477 739.432 115.004C739.432 115.531 739.59 115.971 739.906 116.322C740.234 116.674 740.715 116.85 741.348 116.85C741.98 116.85 742.461 116.674 742.789 116.322C743.117 115.971 743.281 115.531 743.281 115.004C743.281 114.477 743.117 114.031 742.789 113.668C742.461 113.305 741.98 113.123 741.348 113.123C740.715 113.123 740.234 113.305 739.906 113.668ZM840.33 139.068V120.049H837.078V139.068H840.33ZM837.289 113.668C836.973 114.031 836.814 114.477 836.814 115.004C836.814 115.531 836.973 115.971 837.289 116.322C837.617 116.674 838.098 116.85 838.73 116.85C839.363 116.85 839.844 116.674 840.172 116.322C840.5 115.971 840.664 115.531 840.664 115.004C840.664 114.477 840.5 114.031 840.172 113.668C839.844 113.305 839.363 113.123 838.73 113.123C838.098 113.123 837.617 113.305 837.289 113.668Z" fill="#E8A1EE"/>
</g>
<g id="-1 \;\; +1">
<g id="Group">
<g id="Group 4">
<path id="Arrow 1 (Stroke)" fill-rule="evenodd" clip-rule="evenodd" d="M313.368 60.2876C267.076 59.5292 220.759 68.9291 161.697 90.8747L160.303 87.1251C219.67 65.0666 266.496 55.5192 313.434 56.2881C359.129 57.0367 404.795 67.5621 462.072 85.6364L456.025 73.9229C455.518 72.9414 455.903 71.735 456.885 71.2283C457.866 70.7216 459.073 71.1065 459.579 72.088L467.836 88.0825C468.343 89.064 467.958 90.2704 466.976 90.7771L450.982 99.034C450 99.5407 448.794 99.1558 448.287 98.1743C447.781 97.1928 448.166 95.9864 449.147 95.4797L460.842 89.4426C403.704 71.4137 358.481 61.0266 313.368 60.2876Z" fill="#E8A1EE"/>
<g id="Group 8">
<g id="Group_2">
<path id="Vector" d="M269 25.2427C269 25.2427 269 24.9877 269 24.4778C269 23.9678 269.275 23.5756 269.824 23.301H287.417V14.4748L287.476 5.64871C287.868 5.13876 288.241 4.88378 288.594 4.88378C289.104 4.88378 289.496 5.17799 289.771 5.7664V23.301H307.305C307.894 23.6148 308.188 24.0071 308.188 24.4778C308.188 24.9485 307.894 25.3408 307.305 25.6546H289.771V43.1892C289.457 43.7383 289.104 44.0129 288.712 44.0129H288.594H288.476C288.006 44.0129 287.653 43.7383 287.417 43.1892V25.6546H269.824C269.275 25.38 269 24.9877 269 24.4778V25.2427Z" fill="#E8A1EE"/>
</g>
<g id="Group_3">
<path id="Vector_2" d="M337.091 5.17799L336.326 5.47219C335.776 5.66832 334.992 5.86446 333.972 6.0606C332.952 6.25673 331.815 6.39403 330.559 6.47248H329.441V3.7658H330.559C332.403 3.68735 334.109 3.39315 335.678 2.88319C337.248 2.37324 338.346 1.90251 338.973 1.47101C339.601 1.03951 340.15 0.608013 340.621 0.176514C340.699 0.058832 340.935 -7.62939e-06 341.327 -7.62939e-06C341.68 -7.62939e-06 342.014 0.117672 342.327 0.353035V17.9464L342.386 35.5987C342.661 35.8733 342.896 36.0498 343.092 36.1283C343.288 36.2067 343.759 36.2852 344.505 36.3636C345.25 36.4421 346.466 36.4813 348.153 36.4813H349.683V39.188H349.035C348.212 39.0703 345.093 39.0115 339.68 39.0115C334.345 39.0115 331.265 39.0703 330.442 39.188H329.735V36.4813H331.265C332.128 36.4813 332.874 36.4813 333.501 36.4813C334.129 36.4813 334.619 36.4617 334.972 36.4225C335.325 36.3832 335.639 36.3244 335.914 36.2459C336.188 36.1675 336.345 36.1283 336.385 36.1283C336.424 36.1283 336.541 36.0302 336.738 35.8341C336.934 35.6379 337.051 35.5595 337.091 35.5987V5.17799Z" fill="#E8A1EE"/>
</g>
</g>
</g>
<g id="Group 5">
<path id="Arrow 2 (Stroke)" fill-rule="evenodd" clip-rule="evenodd" d="M316.72 288.712C363.012 289.471 409.329 280.071 468.392 258.125L469.785 261.875C410.418 283.933 363.592 293.481 316.655 292.712C270.96 291.963 225.294 281.438 168.017 263.363L174.064 275.077C174.57 276.058 174.185 277.265 173.204 277.772C172.222 278.278 171.016 277.893 170.509 276.912L162.252 260.917C161.746 259.936 162.131 258.729 163.112 258.223L179.107 249.966C180.088 249.459 181.294 249.844 181.801 250.826C182.308 251.807 181.923 253.013 180.941 253.52L169.247 259.557C226.385 277.586 271.608 287.973 316.72 288.712Z" fill="#E8A1EE"/>
<g id="Group 9">
<g id="Group_4">
<path id="Vector_3" d="M281 337.243C281 337.243 281 336.988 281 336.478C281 335.968 281.275 335.576 281.824 335.301H316.01C316.599 335.615 316.893 336.007 316.893 336.478C316.893 336.949 316.599 337.341 316.01 337.655H281.824C281.275 337.38 281 336.988 281 336.478V337.243Z" fill="#E8A1EE"/>
</g>
<g id="Group_5">
<path id="Vector_4" d="M334.369 317.178L333.604 317.472C333.054 317.668 332.27 317.864 331.25 318.061C330.23 318.257 329.093 318.394 327.837 318.472H326.719V315.766H327.837C329.681 315.687 331.387 315.393 332.956 314.883C334.526 314.373 335.624 313.903 336.252 313.471C336.879 313.04 337.428 312.608 337.899 312.177C337.978 312.059 338.213 312 338.605 312C338.958 312 339.292 312.118 339.605 312.353V329.946L339.664 347.599C339.939 347.873 340.174 348.05 340.37 348.128C340.567 348.207 341.037 348.285 341.783 348.364C342.528 348.442 343.744 348.481 345.431 348.481H346.961V351.188H346.313C345.49 351.07 342.371 351.011 336.958 351.011C331.623 351.011 328.543 351.07 327.72 351.188H327.014V348.481H328.543C329.406 348.481 330.152 348.481 330.779 348.481C331.407 348.481 331.897 348.462 332.25 348.422C332.603 348.383 332.917 348.324 333.192 348.246C333.466 348.167 333.623 348.128 333.663 348.128C333.702 348.128 333.819 348.03 334.016 347.834C334.212 347.638 334.329 347.559 334.369 347.599V317.178Z" fill="#E8A1EE"/>
</g>
</g>
</g>
</g>
</g>
<g id="4 \;200\; 5&#10;x\; 1">
<g id="Group_6">
<g id="Group_7">
<path id="Vector_5" d="M171.385 187.119C170.904 187.039 169.182 186.999 166.217 186.999C163.12 186.999 161.33 187.039 160.85 187.119H160.489V185.276H161.731C162.265 185.276 162.626 185.276 162.813 185.276C163 185.276 163.227 185.249 163.494 185.196C163.761 185.143 163.948 185.076 164.054 184.996C164.161 184.916 164.255 184.809 164.335 184.675C164.361 184.622 164.375 183.901 164.375 182.512V180.509H154V178.667L160.049 169.413C164.134 163.218 166.204 160.107 166.258 160.08C166.311 160.027 166.591 160 167.099 160H167.82L168.06 160.24V178.667H171.745V180.509H168.06V182.552C168.06 183.647 168.06 184.288 168.06 184.475C168.06 184.662 168.14 184.822 168.3 184.956C168.514 185.143 169.275 185.249 170.584 185.276H171.745V187.119H171.385ZM164.615 178.667V165.287L155.843 178.627L160.209 178.667H164.615Z" fill="white"/>
</g>
<g id="Group_8">
<path id="Vector_6" d="M764.363 173.494C763.642 173.494 763.068 173.253 762.641 172.772C762.214 172.292 762 171.704 762 171.01C762 169.114 762.708 167.472 764.123 166.083C765.538 164.694 767.301 164 769.411 164C771.841 164 773.87 164.748 775.499 166.243C777.128 167.739 777.956 169.675 777.983 172.051C777.983 173.2 777.716 174.295 777.182 175.336C776.648 176.378 776.007 177.286 775.259 178.06C774.511 178.834 773.443 179.823 772.054 181.024C771.093 181.852 769.758 183.081 768.049 184.71L765.685 186.953L768.73 186.993C772.922 186.993 775.152 186.926 775.419 186.793C775.606 186.739 775.927 185.551 776.381 183.227V183.107H777.983V183.227C777.956 183.308 777.783 184.523 777.462 186.873C777.142 189.223 776.941 190.451 776.861 190.558V190.678H762V189.917V189.436C762 189.249 762.08 189.049 762.24 188.835C762.401 188.622 762.801 188.154 763.442 187.433C764.216 186.579 764.884 185.831 765.445 185.19C765.685 184.923 766.139 184.429 766.807 183.708C767.474 182.987 767.928 182.493 768.169 182.226C768.409 181.959 768.796 181.518 769.33 180.904C769.865 180.29 770.238 179.836 770.452 179.542C770.666 179.248 770.973 178.848 771.373 178.34C771.774 177.833 772.054 177.406 772.215 177.059C772.375 176.711 772.575 176.324 772.815 175.897C773.056 175.47 773.229 175.042 773.336 174.615C773.443 174.188 773.536 173.787 773.617 173.413C773.697 173.04 773.737 172.599 773.737 172.092C773.737 170.409 773.283 168.954 772.375 167.725C771.467 166.497 770.172 165.883 768.489 165.883C767.608 165.883 766.834 166.11 766.166 166.564C765.498 167.018 765.031 167.458 764.764 167.885C764.497 168.313 764.363 168.566 764.363 168.647C764.363 168.673 764.43 168.687 764.564 168.687C765.044 168.687 765.538 168.874 766.046 169.247C766.553 169.621 766.807 170.236 766.807 171.09C766.807 171.758 766.593 172.318 766.166 172.772C765.739 173.226 765.138 173.467 764.363 173.494Z" fill="white"/>
<path id="Vector_7" d="M783.871 167.245C785.367 165.081 787.41 164 790 164C791.282 164 792.564 164.347 793.846 165.041C795.127 165.736 796.169 166.964 796.97 168.727C797.958 170.943 798.452 173.988 798.452 177.86C798.452 181.999 797.878 185.164 796.73 187.353C796.196 188.475 795.461 189.37 794.526 190.037C793.592 190.705 792.777 191.119 792.083 191.279C791.389 191.439 790.708 191.533 790.04 191.559C789.346 191.559 788.651 191.479 787.957 191.319C787.263 191.159 786.448 190.731 785.514 190.037C784.579 189.343 783.845 188.448 783.31 187.353C782.162 185.164 781.588 181.999 781.588 177.86C781.588 173.213 782.349 169.675 783.871 167.245ZM792.884 166.764C792.083 165.909 791.135 165.482 790.04 165.482C788.918 165.482 787.957 165.909 787.156 166.764C786.488 167.458 786.048 168.42 785.834 169.648C785.62 170.876 785.514 173.44 785.514 177.339C785.514 181.558 785.62 184.336 785.834 185.671C786.048 187.006 786.528 188.061 787.276 188.835C788.024 189.637 788.945 190.037 790.04 190.037C791.108 190.037 792.016 189.637 792.764 188.835C793.538 188.034 794.019 186.913 794.206 185.471C794.393 184.029 794.5 181.318 794.526 177.339C794.526 173.467 794.42 170.916 794.206 169.688C793.992 168.46 793.552 167.485 792.884 166.764Z" fill="white"/>
<path id="Vector_8" d="M803.9 167.245C805.395 165.081 807.438 164 810.029 164C811.31 164 812.592 164.347 813.874 165.041C815.156 165.736 816.197 166.964 816.999 168.727C817.987 170.943 818.481 173.988 818.481 177.86C818.481 181.999 817.907 185.164 816.758 187.353C816.224 188.475 815.49 189.37 814.555 190.037C813.62 190.705 812.806 191.119 812.112 191.279C811.417 191.439 810.736 191.533 810.069 191.559C809.374 191.559 808.68 191.479 807.986 191.319C807.291 191.159 806.477 190.731 805.542 190.037C804.608 189.343 803.873 188.448 803.339 187.353C802.191 185.164 801.617 181.999 801.617 177.86C801.617 173.213 802.378 169.675 803.9 167.245ZM812.913 166.764C812.112 165.909 811.164 165.482 810.069 165.482C808.947 165.482 807.986 165.909 807.185 166.764C806.517 167.458 806.076 168.42 805.863 169.648C805.649 170.876 805.542 173.44 805.542 177.339C805.542 181.558 805.649 184.336 805.863 185.671C806.076 187.006 806.557 188.061 807.305 188.835C808.052 189.637 808.974 190.037 810.069 190.037C811.137 190.037 812.045 189.637 812.793 188.835C813.567 188.034 814.048 186.913 814.235 185.471C814.422 184.029 814.528 181.318 814.555 177.339C814.555 173.467 814.448 170.916 814.235 169.688C814.021 168.46 813.58 167.485 812.913 166.764Z" fill="white"/>
</g>
<g id="Group_9">
<path id="Vector_9" d="M496.567 183.389C496.567 184.03 496.353 184.564 495.926 184.991C495.498 185.419 494.978 185.632 494.363 185.632H494.083C495.311 187.742 496.94 188.797 498.97 188.797C500.839 188.797 502.201 187.996 503.056 186.393C503.563 185.512 503.817 183.803 503.817 181.266C503.817 178.515 503.456 176.66 502.735 175.698C502.041 174.817 501.267 174.376 500.412 174.376H500.172C498.089 174.376 496.513 175.284 495.445 177.1C495.338 177.287 495.245 177.394 495.165 177.421C495.084 177.447 494.884 177.474 494.564 177.501C494.11 177.501 493.856 177.421 493.803 177.26C493.749 177.154 493.722 174.817 493.722 170.25V165.083C493.722 163.748 493.789 163.08 493.923 163.08C493.976 163.027 494.03 163 494.083 163C494.11 163 494.39 163.107 494.924 163.32C495.458 163.534 496.193 163.748 497.127 163.961C498.062 164.175 499.063 164.282 500.132 164.282C502.028 164.282 503.844 163.908 505.579 163.16C505.793 163.053 505.967 163 506.1 163C506.314 163 506.421 163.24 506.421 163.721V164.242C504.231 166.832 501.494 168.127 498.209 168.127C497.381 168.127 496.633 168.047 495.966 167.887L495.565 167.807V174.697C496.072 174.323 496.473 174.029 496.767 173.815C497.061 173.602 497.541 173.388 498.209 173.175C498.876 172.961 499.557 172.854 500.252 172.854C502.415 172.854 504.244 173.722 505.74 175.458C507.235 177.194 507.983 179.25 507.983 181.627C507.983 184.083 507.128 186.18 505.419 187.916C503.71 189.651 501.627 190.533 499.17 190.559C497.007 190.559 495.271 189.838 493.963 188.396C492.654 186.954 492 185.325 492 183.509C492 182.868 492.147 182.361 492.441 181.987C492.734 181.613 493.041 181.373 493.362 181.266C493.682 181.159 493.99 181.106 494.283 181.106C494.951 181.106 495.498 181.333 495.926 181.787C496.353 182.241 496.567 182.775 496.567 183.389Z" fill="white"/>
</g>
<g id="Group_10">
<path id="Vector_10" d="M782.681 225.129C782.868 224.007 783.589 222.712 784.844 221.243C786.099 219.774 787.648 219.027 789.491 219C790.425 219 791.28 219.24 792.054 219.721C792.829 220.202 793.403 220.803 793.777 221.524C794.898 219.841 796.247 219 797.823 219C798.811 219 799.665 219.294 800.386 219.881C801.107 220.469 801.481 221.257 801.508 222.245C801.508 223.019 801.321 223.647 800.947 224.127C800.573 224.608 800.213 224.902 799.866 225.009C799.518 225.115 799.211 225.169 798.944 225.169C798.437 225.169 798.023 225.022 797.702 224.728C797.382 224.434 797.222 224.047 797.222 223.567C797.222 222.338 797.889 221.497 799.225 221.043C798.931 220.696 798.397 220.522 797.622 220.522C797.275 220.522 797.021 220.549 796.861 220.602C795.846 221.03 795.099 221.911 794.618 223.246C793.016 229.148 792.215 232.593 792.215 233.581C792.215 234.329 792.428 234.863 792.856 235.183C793.283 235.504 793.75 235.664 794.258 235.664C795.246 235.664 796.22 235.223 797.182 234.342C798.143 233.461 798.797 232.379 799.144 231.097C799.225 230.83 799.305 230.683 799.385 230.657C799.465 230.63 799.679 230.603 800.026 230.577H800.186C800.587 230.577 800.787 230.683 800.787 230.897C800.787 230.924 800.76 231.071 800.707 231.338C800.279 232.86 799.452 234.208 798.223 235.383C796.995 236.558 795.566 237.146 793.937 237.146C792.068 237.146 790.652 236.305 789.691 234.622C788.596 236.278 787.341 237.106 785.926 237.106H785.685C784.377 237.106 783.442 236.759 782.881 236.064C782.32 235.37 782.027 234.636 782 233.861C782 233.007 782.254 232.312 782.761 231.778C783.268 231.244 783.869 230.977 784.564 230.977C785.712 230.977 786.286 231.538 786.286 232.66C786.286 233.194 786.126 233.661 785.805 234.062C785.485 234.462 785.178 234.729 784.884 234.863C784.59 234.996 784.417 235.063 784.363 235.063L784.243 235.103C784.243 235.13 784.323 235.183 784.484 235.263C784.644 235.343 784.857 235.437 785.124 235.544C785.392 235.65 785.645 235.691 785.886 235.664C786.847 235.664 787.675 235.063 788.369 233.861C788.609 233.434 788.917 232.526 789.29 231.137C789.664 229.749 790.038 228.307 790.412 226.811C790.786 225.316 791 224.434 791.053 224.167C791.186 223.446 791.253 222.926 791.253 222.605C791.253 221.857 791.053 221.323 790.652 221.003C790.252 220.682 789.798 220.522 789.29 220.522C788.222 220.522 787.221 220.949 786.286 221.804C785.351 222.659 784.697 223.753 784.323 225.089C784.27 225.329 784.203 225.463 784.123 225.489C784.043 225.516 783.829 225.543 783.482 225.569H782.921C782.761 225.409 782.681 225.262 782.681 225.129Z" fill="white"/>
</g>
<g id="Group_11">
<path id="Vector_11" d="M499.207 213.525L498.687 213.725C498.313 213.859 497.779 213.992 497.084 214.126C496.39 214.259 495.616 214.353 494.761 214.406H494V212.564H494.761C496.016 212.51 497.178 212.31 498.246 211.963C499.314 211.616 500.062 211.295 500.489 211.001C500.917 210.708 501.29 210.414 501.611 210.12C501.664 210.04 501.825 210 502.092 210C502.332 210 502.559 210.08 502.773 210.24V222.217L502.813 234.235C503 234.422 503.16 234.542 503.293 234.595C503.427 234.649 503.747 234.702 504.255 234.755C504.762 234.809 505.59 234.835 506.738 234.835H507.78V236.678H507.339C506.778 236.598 504.655 236.558 500.97 236.558C497.338 236.558 495.242 236.598 494.681 236.678H494.2V234.835H495.242C495.829 234.835 496.337 234.835 496.764 234.835C497.191 234.835 497.525 234.822 497.765 234.795C498.006 234.769 498.219 234.729 498.406 234.675C498.593 234.622 498.7 234.595 498.727 234.595C498.753 234.595 498.834 234.528 498.967 234.395C499.101 234.261 499.181 234.208 499.207 234.235V213.525Z" fill="white"/>
</g>
</g>
</g>
<g id="flechas">
<path id="Arrow 3 (Stroke)" fill-rule="evenodd" clip-rule="evenodd" d="M725.664 163.723L745.234 174.826C746.435 175.507 746.856 177.033 746.174 178.234L735.072 197.803C734.39 199.004 732.864 199.426 731.663 198.744C730.463 198.063 730.041 196.537 730.723 195.336L738.847 181.016L552.665 232.41L551.335 227.59L737.517 176.196L723.197 168.072C721.996 167.39 721.574 165.864 722.256 164.663C722.937 163.463 724.463 163.041 725.664 163.723Z" fill="#E8A1EE"/>
<path id="Arrow 4 (Stroke)" fill-rule="evenodd" clip-rule="evenodd" d="M735.072 209.197L746.174 228.766C746.856 229.967 746.435 231.493 745.234 232.174L725.664 243.277C724.463 243.959 722.937 243.537 722.256 242.337C721.574 241.136 721.996 239.61 723.197 238.928L737.517 230.804L551.335 179.41L552.665 174.59L738.847 225.984L730.723 211.664C730.041 210.463 730.463 208.937 731.663 208.256C732.864 207.574 734.39 207.996 735.072 209.197Z" fill="#E8A1EE"/>
</g>
<g id="5 \times x=1 \times 200\;\;&#10;\therefore \;x=\frac{200}{5}=40">
<g id="Group_12">
<g id="Group 11">
<g id="Group_13">
<path id="Vector_12" d="M543.005 308.024C543.005 308.727 542.771 309.312 542.302 309.78C541.834 310.249 541.263 310.483 540.59 310.483H540.283C541.629 312.795 543.415 313.951 545.639 313.951C547.688 313.951 549.18 313.073 550.117 311.317C550.673 310.351 550.951 308.478 550.951 305.698C550.951 302.683 550.556 300.649 549.766 299.595C549.005 298.629 548.156 298.146 547.22 298.146H546.956C544.673 298.146 542.946 299.141 541.776 301.132C541.659 301.337 541.556 301.454 541.468 301.483C541.38 301.512 541.161 301.541 540.81 301.571C540.312 301.571 540.034 301.483 539.976 301.307C539.917 301.19 539.888 298.629 539.888 293.624V287.961C539.888 286.498 539.961 285.766 540.107 285.766C540.166 285.707 540.224 285.678 540.283 285.678C540.312 285.678 540.62 285.795 541.205 286.029C541.79 286.263 542.595 286.498 543.62 286.732C544.644 286.966 545.741 287.083 546.912 287.083C548.99 287.083 550.98 286.673 552.883 285.854C553.117 285.737 553.307 285.678 553.454 285.678C553.688 285.678 553.805 285.941 553.805 286.468V287.039C551.405 289.878 548.405 291.298 544.805 291.298C543.898 291.298 543.078 291.21 542.346 291.034L541.907 290.946V298.498C542.463 298.088 542.902 297.766 543.224 297.532C543.546 297.298 544.073 297.063 544.805 296.829C545.537 296.595 546.283 296.478 547.044 296.478C549.415 296.478 551.42 297.429 553.059 299.332C554.698 301.234 555.517 303.488 555.517 306.093C555.517 308.785 554.58 311.083 552.707 312.985C550.834 314.888 548.551 315.854 545.859 315.883C543.488 315.883 541.585 315.093 540.151 313.512C538.717 311.932 538 310.146 538 308.156C538 307.454 538.161 306.898 538.483 306.488C538.805 306.078 539.141 305.815 539.493 305.698C539.844 305.58 540.18 305.522 540.502 305.522C541.234 305.522 541.834 305.771 542.302 306.268C542.771 306.766 543.005 307.351 543.005 308.024Z" fill="white"/>
</g>
<g id="Group_14">
<path id="Vector_13" d="M595.17 313.644C595.17 314.229 594.862 314.522 594.248 314.522C594.101 314.522 593.779 314.288 593.282 313.82C592.784 313.351 591.409 311.99 589.155 309.737L584.589 305.171L579.979 309.781C576.877 312.824 575.282 314.376 575.194 314.434C575.077 314.493 574.975 314.522 574.887 314.522C574.653 314.522 574.448 314.434 574.272 314.259C574.097 314.083 573.994 313.878 573.965 313.644C573.965 313.439 574.17 313.117 574.579 312.678C574.989 312.239 576.365 310.849 578.706 308.507L583.272 303.941L578.706 299.376C576.336 297.005 574.96 295.615 574.579 295.205C574.199 294.795 573.994 294.473 573.965 294.239C573.965 293.976 574.053 293.771 574.228 293.624C574.404 293.478 574.623 293.405 574.887 293.405C575.033 293.405 575.136 293.42 575.194 293.449C575.282 293.507 576.877 295.059 579.979 298.102L584.589 302.712L589.155 298.146C591.409 295.893 592.784 294.532 593.282 294.063C593.779 293.595 594.101 293.361 594.248 293.361C594.862 293.361 595.17 293.654 595.17 294.239C595.17 294.444 595.023 294.707 594.731 295.029C594.438 295.351 593.004 296.785 590.428 299.332L585.862 303.941L590.428 308.551C592.887 311.01 594.292 312.429 594.643 312.81C594.994 313.19 595.17 313.468 595.17 313.644Z" fill="white"/>
</g>
<g id="Group_15">
<path id="Vector_14" d="M613.705 302.229C613.91 301 614.701 299.58 616.076 297.971C617.452 296.361 619.149 295.541 621.169 295.512C622.193 295.512 623.13 295.776 623.979 296.302C624.827 296.829 625.457 297.488 625.866 298.278C627.096 296.434 628.574 295.512 630.301 295.512C631.383 295.512 632.32 295.834 633.11 296.478C633.901 297.122 634.31 297.985 634.34 299.068C634.34 299.917 634.135 300.605 633.725 301.132C633.315 301.659 632.92 301.98 632.54 302.098C632.159 302.215 631.823 302.273 631.53 302.273C630.974 302.273 630.52 302.112 630.169 301.79C629.818 301.468 629.642 301.044 629.642 300.517C629.642 299.171 630.374 298.249 631.837 297.751C631.515 297.371 630.93 297.18 630.081 297.18C629.701 297.18 629.423 297.21 629.247 297.268C628.135 297.737 627.315 298.702 626.788 300.166C625.032 306.634 624.154 310.41 624.154 311.493C624.154 312.312 624.388 312.898 624.857 313.249C625.325 313.6 625.837 313.776 626.393 313.776C627.476 313.776 628.544 313.293 629.598 312.327C630.652 311.361 631.369 310.176 631.749 308.771C631.837 308.478 631.925 308.317 632.013 308.288C632.101 308.259 632.335 308.229 632.715 308.2H632.891C633.33 308.2 633.549 308.317 633.549 308.551C633.549 308.58 633.52 308.741 633.462 309.034C632.993 310.702 632.086 312.18 630.74 313.468C629.393 314.756 627.827 315.4 626.042 315.4C623.993 315.4 622.442 314.478 621.388 312.634C620.188 314.449 618.813 315.356 617.262 315.356H616.998C615.564 315.356 614.54 314.976 613.925 314.215C613.31 313.454 612.988 312.649 612.959 311.8C612.959 310.863 613.237 310.102 613.793 309.517C614.349 308.932 615.008 308.639 615.769 308.639C617.027 308.639 617.657 309.254 617.657 310.483C617.657 311.068 617.481 311.58 617.13 312.019C616.779 312.459 616.442 312.751 616.12 312.898C615.798 313.044 615.608 313.117 615.549 313.117L615.418 313.161C615.418 313.19 615.505 313.249 615.681 313.337C615.857 313.424 616.091 313.527 616.383 313.644C616.676 313.761 616.954 313.805 617.218 313.776C618.271 313.776 619.179 313.117 619.94 311.8C620.203 311.332 620.54 310.337 620.949 308.815C621.359 307.293 621.769 305.712 622.179 304.073C622.588 302.434 622.823 301.468 622.881 301.176C623.027 300.385 623.101 299.815 623.101 299.463C623.101 298.644 622.881 298.059 622.442 297.707C622.003 297.356 621.505 297.18 620.949 297.18C619.779 297.18 618.681 297.649 617.657 298.585C616.632 299.522 615.915 300.722 615.505 302.185C615.447 302.449 615.374 302.595 615.286 302.624C615.198 302.654 614.964 302.683 614.583 302.712H613.969C613.793 302.537 613.705 302.376 613.705 302.229Z" fill="white"/>
</g>
<g id="Group_16">
<path id="Vector_15" d="M651.189 299.683C651.189 299.302 651.394 299.01 651.804 298.805H679.77C680.209 299.039 680.428 299.332 680.428 299.683C680.428 300.005 680.223 300.283 679.814 300.517L665.853 300.561H651.892C651.423 300.415 651.189 300.122 651.189 299.683ZM651.189 308.2C651.189 307.761 651.423 307.468 651.892 307.322H679.814C680.223 307.615 680.428 307.907 680.428 308.2C680.428 308.58 680.209 308.873 679.77 309.078H651.804C651.394 308.873 651.189 308.58 651.189 308.2Z" fill="white"/>
</g>
<g id="Group_17">
<path id="Vector_16" d="M704.434 289.541L703.864 289.761C703.454 289.907 702.869 290.054 702.108 290.2C701.347 290.346 700.498 290.449 699.561 290.507H698.727V288.488H699.561C700.937 288.429 702.21 288.21 703.381 287.829C704.551 287.449 705.371 287.098 705.839 286.776C706.308 286.454 706.717 286.132 707.069 285.81C707.127 285.722 707.303 285.678 707.595 285.678C707.859 285.678 708.108 285.766 708.342 285.941V299.068L708.386 312.239C708.59 312.444 708.766 312.576 708.912 312.634C709.059 312.693 709.41 312.751 709.966 312.81C710.522 312.868 711.429 312.898 712.688 312.898H713.829V314.917H713.347C712.732 314.829 710.405 314.785 706.366 314.785C702.386 314.785 700.088 314.829 699.473 314.917H698.947V312.898H700.088C700.732 312.898 701.288 312.898 701.756 312.898C702.225 312.898 702.59 312.883 702.854 312.854C703.117 312.824 703.351 312.78 703.556 312.722C703.761 312.663 703.878 312.634 703.908 312.634C703.937 312.634 704.025 312.561 704.171 312.415C704.317 312.268 704.405 312.21 704.434 312.239V289.541Z" fill="white"/>
</g>
<g id="Group_18">
<path id="Vector_17" d="M754.448 313.644C754.448 314.229 754.141 314.522 753.526 314.522C753.38 314.522 753.058 314.288 752.56 313.82C752.063 313.351 750.687 311.99 748.433 309.737L743.867 305.171L739.258 309.781C736.155 312.824 734.56 314.376 734.472 314.434C734.355 314.493 734.253 314.522 734.165 314.522C733.931 314.522 733.726 314.434 733.55 314.259C733.375 314.083 733.272 313.878 733.243 313.644C733.243 313.439 733.448 313.117 733.858 312.678C734.267 312.239 735.643 310.849 737.985 308.507L742.55 303.941L737.985 299.376C735.614 297.005 734.238 295.615 733.858 295.205C733.477 294.795 733.272 294.473 733.243 294.239C733.243 293.976 733.331 293.771 733.506 293.624C733.682 293.478 733.902 293.405 734.165 293.405C734.311 293.405 734.414 293.42 734.472 293.449C734.56 293.507 736.155 295.059 739.258 298.102L743.867 302.712L748.433 298.146C750.687 295.893 752.063 294.532 752.56 294.063C753.058 293.595 753.38 293.361 753.526 293.361C754.141 293.361 754.448 293.654 754.448 294.239C754.448 294.444 754.302 294.707 754.009 295.029C753.716 295.351 752.282 296.785 749.706 299.332L745.141 303.941L749.706 308.551C752.165 311.01 753.57 312.429 753.921 312.81C754.272 313.19 754.448 313.468 754.448 313.644Z" fill="white"/>
</g>
<g id="Group_19">
<path id="Vector_18" d="M775.486 296.083C774.696 296.083 774.066 295.819 773.598 295.293C773.13 294.766 772.896 294.122 772.896 293.361C772.896 291.283 773.671 289.483 775.223 287.961C776.774 286.439 778.706 285.678 781.018 285.678C783.681 285.678 785.906 286.498 787.691 288.137C789.476 289.776 790.384 291.898 790.413 294.502C790.413 295.761 790.12 296.961 789.535 298.102C788.949 299.244 788.247 300.239 787.427 301.088C786.608 301.937 785.437 303.019 783.915 304.337C782.862 305.244 781.398 306.59 779.525 308.376L776.935 310.834L780.271 310.878C784.866 310.878 787.31 310.805 787.603 310.659C787.808 310.6 788.159 309.298 788.657 306.751V306.619H790.413V306.751C790.384 306.839 790.193 308.171 789.842 310.746C789.491 313.322 789.271 314.668 789.184 314.785V314.917H772.896V314.083V313.556C772.896 313.351 772.984 313.132 773.159 312.898C773.335 312.663 773.774 312.151 774.476 311.361C775.325 310.424 776.057 309.605 776.671 308.902C776.935 308.61 777.432 308.068 778.164 307.278C778.896 306.488 779.393 305.946 779.657 305.654C779.92 305.361 780.345 304.878 780.93 304.205C781.515 303.532 781.925 303.034 782.159 302.712C782.393 302.39 782.73 301.951 783.169 301.395C783.608 300.839 783.915 300.371 784.091 299.99C784.266 299.61 784.486 299.185 784.749 298.717C785.013 298.249 785.203 297.78 785.32 297.312C785.437 296.844 785.54 296.405 785.627 295.995C785.715 295.585 785.759 295.102 785.759 294.546C785.759 292.702 785.262 291.107 784.266 289.761C783.271 288.415 781.852 287.741 780.008 287.741C779.042 287.741 778.193 287.99 777.462 288.488C776.73 288.985 776.218 289.468 775.925 289.937C775.632 290.405 775.486 290.683 775.486 290.771C775.486 290.8 775.559 290.815 775.706 290.815C776.232 290.815 776.774 291.019 777.33 291.429C777.886 291.839 778.164 292.512 778.164 293.449C778.164 294.18 777.93 294.795 777.462 295.293C776.993 295.79 776.335 296.054 775.486 296.083Z" fill="white"/>
<path id="Vector_19" d="M796.866 289.234C798.505 286.863 800.744 285.678 803.583 285.678C804.988 285.678 806.393 286.059 807.798 286.82C809.203 287.58 810.344 288.927 811.222 290.859C812.305 293.288 812.847 296.624 812.847 300.868C812.847 305.405 812.218 308.873 810.959 311.273C810.374 312.502 809.569 313.483 808.544 314.215C807.52 314.946 806.627 315.4 805.866 315.576C805.105 315.751 804.359 315.854 803.627 315.883C802.866 315.883 802.105 315.795 801.344 315.62C800.583 315.444 799.691 314.976 798.666 314.215C797.642 313.454 796.837 312.473 796.252 311.273C794.993 308.873 794.364 305.405 794.364 300.868C794.364 295.776 795.198 291.898 796.866 289.234ZM806.744 288.707C805.866 287.771 804.827 287.302 803.627 287.302C802.398 287.302 801.344 287.771 800.466 288.707C799.735 289.468 799.252 290.522 799.018 291.868C798.783 293.215 798.666 296.024 798.666 300.298C798.666 304.922 798.783 307.966 799.018 309.429C799.252 310.893 799.779 312.049 800.598 312.898C801.418 313.776 802.427 314.215 803.627 314.215C804.798 314.215 805.793 313.776 806.613 312.898C807.461 312.02 807.988 310.79 808.193 309.21C808.398 307.629 808.515 304.659 808.544 300.298C808.544 296.054 808.427 293.259 808.193 291.912C807.959 290.566 807.476 289.498 806.744 288.707Z" fill="white"/>
<path id="Vector_20" d="M818.818 289.234C820.457 286.863 822.696 285.678 825.535 285.678C826.94 285.678 828.344 286.059 829.749 286.82C831.154 287.58 832.296 288.927 833.174 290.859C834.257 293.288 834.798 296.624 834.798 300.868C834.798 305.405 834.169 308.873 832.91 311.273C832.325 312.502 831.52 313.483 830.496 314.215C829.471 314.946 828.579 315.4 827.818 315.576C827.057 315.751 826.31 315.854 825.579 315.883C824.818 315.883 824.057 315.795 823.296 315.62C822.535 315.444 821.642 314.976 820.618 314.215C819.593 313.454 818.788 312.473 818.203 311.273C816.944 308.873 816.315 305.405 816.315 300.868C816.315 295.776 817.149 291.898 818.818 289.234ZM828.696 288.707C827.818 287.771 826.779 287.302 825.579 287.302C824.349 287.302 823.296 287.771 822.418 288.707C821.686 289.468 821.203 290.522 820.969 291.868C820.735 293.215 820.618 296.024 820.618 300.298C820.618 304.922 820.735 307.966 820.969 309.429C821.203 310.893 821.73 312.049 822.549 312.898C823.369 313.776 824.379 314.215 825.579 314.215C826.749 314.215 827.744 313.776 828.564 312.898C829.413 312.02 829.94 310.79 830.144 309.21C830.349 307.629 830.466 304.659 830.496 300.298C830.496 296.054 830.379 293.259 830.144 291.912C829.91 290.566 829.427 289.498 828.696 288.707Z" fill="white"/>
</g>
</g>
<g id="Group 10">
<g id="Group_20">
<path id="Vector_21" d="M557.932 388.873C557.932 388.112 558.195 387.483 558.722 386.985C559.249 386.488 559.878 386.239 560.61 386.239C561.312 386.239 561.912 386.488 562.41 386.985C562.907 387.483 563.171 388.112 563.2 388.873C563.229 389.634 562.98 390.263 562.454 390.761C561.927 391.259 561.298 391.507 560.566 391.507C559.805 391.507 559.176 391.259 558.678 390.761C558.18 390.263 557.932 389.634 557.932 388.873ZM549.634 405.249C550.395 405.249 551.01 405.498 551.478 405.995C551.946 406.493 552.195 407.122 552.224 407.883C552.224 408.585 551.99 409.2 551.522 409.727C551.054 410.254 550.41 410.517 549.59 410.517C548.829 410.517 548.215 410.268 547.746 409.771C547.278 409.273 547.029 408.644 547 407.883C547 407.122 547.249 406.493 547.746 405.995C548.244 405.498 548.873 405.249 549.634 405.249ZM568.951 407.883C568.951 407.122 569.2 406.493 569.698 405.995C570.195 405.498 570.824 405.249 571.585 405.249C572.288 405.249 572.888 405.498 573.385 405.995C573.883 406.493 574.146 407.122 574.176 407.883C574.176 408.556 573.941 409.156 573.473 409.683C573.005 410.21 572.361 410.488 571.541 410.517C570.78 410.517 570.166 410.268 569.698 409.771C569.229 409.273 568.98 408.644 568.951 407.883Z" fill="white"/>
</g>
<g id="Group_21">
<path id="Vector_22" d="M601.9 394.229C602.105 393 602.895 391.58 604.271 389.971C605.646 388.361 607.344 387.541 609.363 387.512C610.388 387.512 611.324 387.776 612.173 388.302C613.022 388.829 613.651 389.488 614.061 390.278C615.29 388.434 616.768 387.512 618.495 387.512C619.578 387.512 620.515 387.834 621.305 388.478C622.095 389.122 622.505 389.985 622.534 391.068C622.534 391.917 622.329 392.605 621.919 393.132C621.51 393.659 621.115 393.98 620.734 394.098C620.354 394.215 620.017 394.273 619.724 394.273C619.168 394.273 618.715 394.112 618.363 393.79C618.012 393.468 617.836 393.044 617.836 392.517C617.836 391.171 618.568 390.249 620.032 389.751C619.71 389.371 619.124 389.18 618.276 389.18C617.895 389.18 617.617 389.21 617.441 389.268C616.329 389.737 615.51 390.702 614.983 392.166C613.227 398.634 612.349 402.41 612.349 403.493C612.349 404.312 612.583 404.898 613.051 405.249C613.519 405.6 614.032 405.776 614.588 405.776C615.671 405.776 616.739 405.293 617.793 404.327C618.846 403.361 619.563 402.176 619.944 400.771C620.032 400.478 620.119 400.317 620.207 400.288C620.295 400.259 620.529 400.229 620.91 400.2H621.085C621.524 400.2 621.744 400.317 621.744 400.551C621.744 400.58 621.715 400.741 621.656 401.034C621.188 402.702 620.28 404.18 618.934 405.468C617.588 406.756 616.022 407.4 614.236 407.4C612.188 407.4 610.636 406.478 609.583 404.634C608.383 406.449 607.007 407.356 605.456 407.356H605.193C603.758 407.356 602.734 406.976 602.119 406.215C601.505 405.454 601.183 404.649 601.154 403.8C601.154 402.863 601.432 402.102 601.988 401.517C602.544 400.932 603.202 400.639 603.963 400.639C605.222 400.639 605.851 401.254 605.851 402.483C605.851 403.068 605.676 403.58 605.324 404.019C604.973 404.459 604.636 404.751 604.315 404.898C603.993 405.044 603.802 405.117 603.744 405.117L603.612 405.161C603.612 405.19 603.7 405.249 603.876 405.337C604.051 405.424 604.285 405.527 604.578 405.644C604.871 405.761 605.149 405.805 605.412 405.776C606.466 405.776 607.373 405.117 608.134 403.8C608.397 403.332 608.734 402.337 609.144 400.815C609.554 399.293 609.963 397.712 610.373 396.073C610.783 394.434 611.017 393.468 611.076 393.176C611.222 392.385 611.295 391.815 611.295 391.463C611.295 390.644 611.076 390.059 610.636 389.707C610.197 389.356 609.7 389.18 609.144 389.18C607.973 389.18 606.876 389.649 605.851 390.585C604.827 391.522 604.11 392.722 603.7 394.185C603.641 394.449 603.568 394.595 603.48 394.624C603.393 394.654 603.158 394.683 602.778 394.712H602.163C601.988 394.537 601.9 394.376 601.9 394.229Z" fill="white"/>
</g>
<g id="Group_22">
<path id="Vector_23" d="M639.384 391.683C639.384 391.302 639.589 391.01 639.998 390.805H667.964C668.403 391.039 668.623 391.332 668.623 391.683C668.623 392.005 668.418 392.283 668.008 392.517L654.047 392.561H640.086C639.618 392.415 639.384 392.122 639.384 391.683ZM639.384 400.2C639.384 399.761 639.618 399.468 640.086 399.322H668.008C668.418 399.615 668.623 399.907 668.623 400.2C668.623 400.58 668.403 400.873 667.964 401.078H639.998C639.589 400.873 639.384 400.58 639.384 400.2Z" fill="white"/>
</g>
<g id="Group_23">
<g id="Group_24">
<path id="Vector_24" d="M697.721 358.405C696.931 358.405 696.302 358.141 695.833 357.615C695.365 357.088 695.131 356.444 695.131 355.683C695.131 353.605 695.906 351.805 697.458 350.283C699.009 348.761 700.941 348 703.253 348C705.916 348 708.141 348.82 709.926 350.459C711.711 352.098 712.619 354.22 712.648 356.824C712.648 358.083 712.355 359.283 711.77 360.424C711.185 361.566 710.482 362.561 709.663 363.41C708.843 364.259 707.672 365.341 706.15 366.659C705.097 367.566 703.633 368.912 701.76 370.698L699.17 373.156L702.506 373.2C707.102 373.2 709.545 373.127 709.838 372.98C710.043 372.922 710.394 371.62 710.892 369.073V368.941H712.648V369.073C712.619 369.161 712.428 370.493 712.077 373.068C711.726 375.644 711.506 376.99 711.419 377.107V377.239H695.131V376.405V375.878C695.131 375.673 695.219 375.454 695.394 375.22C695.57 374.985 696.009 374.473 696.711 373.683C697.56 372.746 698.292 371.927 698.906 371.224C699.17 370.932 699.667 370.39 700.399 369.6C701.131 368.81 701.628 368.268 701.892 367.976C702.155 367.683 702.58 367.2 703.165 366.527C703.75 365.854 704.16 365.356 704.394 365.034C704.628 364.712 704.965 364.273 705.404 363.717C705.843 363.161 706.15 362.693 706.326 362.312C706.502 361.932 706.721 361.507 706.985 361.039C707.248 360.571 707.438 360.102 707.555 359.634C707.672 359.166 707.775 358.727 707.863 358.317C707.95 357.907 707.994 357.424 707.994 356.868C707.994 355.024 707.497 353.429 706.502 352.083C705.506 350.737 704.087 350.063 702.243 350.063C701.277 350.063 700.428 350.312 699.697 350.81C698.965 351.307 698.453 351.79 698.16 352.259C697.867 352.727 697.721 353.005 697.721 353.093C697.721 353.122 697.794 353.137 697.941 353.137C698.467 353.137 699.009 353.341 699.565 353.751C700.121 354.161 700.399 354.834 700.399 355.771C700.399 356.502 700.165 357.117 699.697 357.615C699.228 358.112 698.57 358.376 697.721 358.405Z" fill="white"/>
<path id="Vector_25" d="M719.101 351.556C720.74 349.185 722.979 348 725.819 348C727.223 348 728.628 348.38 730.033 349.141C731.438 349.902 732.579 351.249 733.458 353.18C734.54 355.61 735.082 358.946 735.082 363.19C735.082 367.727 734.453 371.195 733.194 373.595C732.609 374.824 731.804 375.805 730.779 376.537C729.755 377.268 728.862 377.722 728.101 377.898C727.34 378.073 726.594 378.176 725.862 378.205C725.101 378.205 724.34 378.117 723.579 377.941C722.819 377.766 721.926 377.298 720.901 376.537C719.877 375.776 719.072 374.795 718.487 373.595C717.228 371.195 716.599 367.727 716.599 363.19C716.599 358.098 717.433 354.22 719.101 351.556ZM728.979 351.029C728.101 350.093 727.062 349.624 725.862 349.624C724.633 349.624 723.579 350.093 722.701 351.029C721.97 351.79 721.487 352.844 721.253 354.19C721.019 355.537 720.901 358.346 720.901 362.62C720.901 367.244 721.019 370.288 721.253 371.751C721.487 373.215 722.014 374.371 722.833 375.219C723.653 376.098 724.662 376.537 725.862 376.537C727.033 376.537 728.028 376.098 728.848 375.219C729.697 374.341 730.223 373.112 730.428 371.532C730.633 369.951 730.75 366.98 730.779 362.62C730.779 358.376 730.662 355.58 730.428 354.234C730.194 352.888 729.711 351.82 728.979 351.029Z" fill="white"/>
<path id="Vector_26" d="M741.053 351.556C742.692 349.185 744.931 348 747.77 348C749.175 348 750.58 348.38 751.984 349.141C753.389 349.902 754.531 351.249 755.409 353.18C756.492 355.61 757.033 358.946 757.033 363.19C757.033 367.727 756.404 371.195 755.145 373.595C754.56 374.824 753.755 375.805 752.731 376.537C751.706 377.268 750.814 377.722 750.053 377.898C749.292 378.073 748.545 378.176 747.814 378.205C747.053 378.205 746.292 378.117 745.531 377.941C744.77 377.766 743.877 377.298 742.853 376.537C741.828 375.776 741.023 374.795 740.438 373.595C739.18 371.195 738.55 367.727 738.55 363.19C738.55 358.098 739.384 354.22 741.053 351.556ZM750.931 351.029C750.053 350.093 749.014 349.624 747.814 349.624C746.584 349.624 745.531 350.093 744.653 351.029C743.921 351.79 743.438 352.844 743.204 354.19C742.97 355.537 742.853 358.346 742.853 362.62C742.853 367.244 742.97 370.288 743.204 371.751C743.438 373.215 743.965 374.371 744.784 375.219C745.604 376.098 746.614 376.537 747.814 376.537C748.984 376.537 749.98 376.098 750.799 375.219C751.648 374.341 752.175 373.112 752.38 371.532C752.584 369.951 752.702 366.98 752.731 362.62C752.731 358.376 752.614 355.58 752.38 354.234C752.145 352.888 751.662 351.82 750.931 351.029Z" fill="white"/>
</g>
<g id="Group_25">
<path id="Vector_27" d="M722.087 430.141C722.087 430.844 721.853 431.429 721.384 431.898C720.916 432.366 720.345 432.6 719.672 432.6H719.365C720.711 434.912 722.497 436.068 724.721 436.068C726.77 436.068 728.263 435.19 729.199 433.434C729.755 432.468 730.033 430.595 730.033 427.815C730.033 424.8 729.638 422.766 728.848 421.712C728.087 420.746 727.238 420.263 726.302 420.263H726.038C723.755 420.263 722.028 421.259 720.858 423.249C720.741 423.454 720.638 423.571 720.55 423.6C720.463 423.629 720.243 423.659 719.892 423.688C719.394 423.688 719.116 423.6 719.058 423.424C718.999 423.307 718.97 420.746 718.97 415.741V410.078C718.97 408.615 719.043 407.883 719.189 407.883C719.248 407.824 719.306 407.795 719.365 407.795C719.394 407.795 719.702 407.912 720.287 408.146C720.872 408.38 721.677 408.615 722.702 408.849C723.726 409.083 724.823 409.2 725.994 409.2C728.072 409.2 730.063 408.79 731.965 407.971C732.199 407.854 732.389 407.795 732.536 407.795C732.77 407.795 732.887 408.059 732.887 408.585V409.156C730.487 411.995 727.487 413.415 723.887 413.415C722.98 413.415 722.16 413.327 721.428 413.151L720.989 413.063V420.615C721.545 420.205 721.984 419.883 722.306 419.649C722.628 419.415 723.155 419.18 723.887 418.946C724.619 418.712 725.365 418.595 726.126 418.595C728.497 418.595 730.502 419.546 732.141 421.449C733.78 423.351 734.599 425.605 734.599 428.21C734.599 430.902 733.663 433.2 731.789 435.102C729.916 437.005 727.633 437.971 724.941 438C722.57 438 720.667 437.21 719.233 435.629C717.799 434.049 717.082 432.263 717.082 430.273C717.082 429.571 717.243 429.015 717.565 428.605C717.887 428.195 718.223 427.932 718.575 427.815C718.926 427.698 719.263 427.639 719.584 427.639C720.316 427.639 720.916 427.888 721.384 428.385C721.853 428.883 722.087 429.468 722.087 430.141Z" fill="white"/>
</g>
<path id="Vector_28" d="M763.18 397.259H688.546V394.624H763.18V397.259Z" fill="white"/>
</g>
<g id="Group_26">
<path id="Vector_29" d="M783.103 391.683C783.103 391.302 783.308 391.01 783.717 390.805H811.683C812.122 391.039 812.342 391.332 812.342 391.683C812.342 392.005 812.137 392.283 811.727 392.517L797.766 392.561H783.805C783.337 392.415 783.103 392.122 783.103 391.683ZM783.103 400.2C783.103 399.761 783.337 399.468 783.805 399.322H811.727C812.137 399.615 812.342 399.907 812.342 400.2C812.342 400.58 812.122 400.873 811.683 401.078H783.717C783.308 400.873 783.103 400.58 783.103 400.2Z" fill="white"/>
</g>
<g id="Group_27">
<path id="Vector_30" d="M847.275 406.917C846.748 406.829 844.86 406.785 841.612 406.785C838.217 406.785 836.256 406.829 835.729 406.917H835.334V404.898H836.695C837.28 404.898 837.675 404.898 837.88 404.898C838.085 404.898 838.334 404.868 838.626 404.81C838.919 404.751 839.124 404.678 839.241 404.59C839.358 404.502 839.46 404.385 839.548 404.239C839.578 404.18 839.592 403.39 839.592 401.868V399.673H828.221V397.654L834.851 387.512C839.329 380.722 841.597 377.312 841.656 377.283C841.714 377.224 842.021 377.195 842.578 377.195H843.368L843.631 377.459V397.654H847.67V399.673H843.631V401.912C843.631 403.112 843.631 403.815 843.631 404.02C843.631 404.224 843.719 404.4 843.895 404.546C844.129 404.751 844.963 404.868 846.397 404.898H847.67V406.917H847.275ZM839.856 397.654V382.99L830.241 397.61L835.026 397.654H839.856Z" fill="white"/>
<path id="Vector_31" d="M853.158 381.234C854.797 378.863 857.036 377.678 859.875 377.678C861.28 377.678 862.685 378.059 864.09 378.82C865.495 379.58 866.636 380.927 867.514 382.859C868.597 385.288 869.138 388.624 869.138 392.868C869.138 397.405 868.509 400.873 867.251 403.273C866.665 404.502 865.86 405.483 864.836 406.215C863.812 406.946 862.919 407.4 862.158 407.576C861.397 407.751 860.651 407.854 859.919 407.883C859.158 407.883 858.397 407.795 857.636 407.62C856.875 407.444 855.982 406.976 854.958 406.215C853.934 405.454 853.129 404.473 852.543 403.273C851.285 400.873 850.656 397.405 850.656 392.868C850.656 387.776 851.49 383.898 853.158 381.234ZM863.036 380.707C862.158 379.771 861.119 379.302 859.919 379.302C858.69 379.302 857.636 379.771 856.758 380.707C856.026 381.468 855.543 382.522 855.309 383.868C855.075 385.215 854.958 388.024 854.958 392.298C854.958 396.922 855.075 399.966 855.309 401.429C855.543 402.893 856.07 404.049 856.89 404.898C857.709 405.776 858.719 406.215 859.919 406.215C861.09 406.215 862.085 405.776 862.904 404.898C863.753 404.02 864.28 402.79 864.485 401.21C864.69 399.629 864.807 396.659 864.836 392.298C864.836 388.054 864.719 385.259 864.485 383.912C864.251 382.566 863.768 381.498 863.036 380.707Z" fill="white"/>
</g>
</g>
</g>
</g>
</g>
</svg>
