<svg viewBox="0 0 900 406" fill="none" xmlns="http://www.w3.org/2000/svg">
<g id="0121207">
<g id="tabla">
<g id="Tabla Campanadas">
<path id="Rectangle 1" d="M0 90.0686H900V140.069H0V90.0686Z" fill="#FA5712" fill-opacity="0.1"/>
<path id="Rectangle 1 (Stroke)" fill-rule="evenodd" clip-rule="evenodd" d="M896 94.0686H4V136.069H896V94.0686ZM0 90.0686V140.069H900V90.0686H0Z" fill="#FA5712"/>
<path id="Rectangle 2 (Stroke)" fill-rule="evenodd" clip-rule="evenodd" d="M896 144.069H4V186.069H896V144.069ZM0 140.069V190.069H900V140.069H0Z" fill="#FA5712"/>
<path id="Rectangle 3 (Stroke)" fill-rule="evenodd" clip-rule="evenodd" d="M896 194.069H4V236.069H896V194.069ZM0 190.069V240.069H900V190.069H0Z" fill="#FA5712"/>
<path id="Line 3 (Stroke)" fill-rule="evenodd" clip-rule="evenodd" d="M332 236.068L330 90.0685L335 90L337 236L332 236.068Z" fill="#FA5712"/>
<path id="Line 4 (Stroke)" fill-rule="evenodd" clip-rule="evenodd" d="M681 236.068L679 90.0685L684 90L686 236L681 236.068Z" fill="#FA5712"/>
</g>
<g id="# Intervalos">
<path d="M408.57 119.861H403.93L402.523 127.068H400.01L401.416 119.861H397.215V117.453H401.873L403.086 111.23H398.551V108.787H403.561L405.002 101.475H407.516L406.074 108.787H410.715L412.156 101.475H414.688L413.246 108.787H416.832V111.23H412.771L411.559 117.453H415.514V119.861H411.102L409.695 127.068H407.164L408.57 119.861ZM404.387 117.453H409.027L410.24 111.23H405.6L404.387 117.453Z" fill="#FA5712"/>
<path d="M432.828 127.068H429.453V101.475H432.828V127.068Z" fill="#FA5712"/>
<path d="M441.582 108.049L441.688 110.439C443.141 108.611 445.039 107.697 447.383 107.697C451.402 107.697 453.43 109.965 453.465 114.5V127.068H450.213V114.482C450.201 113.111 449.885 112.098 449.264 111.441C448.654 110.785 447.699 110.457 446.398 110.457C445.344 110.457 444.418 110.738 443.621 111.301C442.824 111.863 442.203 112.602 441.758 113.516V127.068H438.506V108.049H441.582Z" fill="#FA5712"/>
<path d="M462.781 103.443V108.049H466.332V110.562H462.781V122.357C462.781 123.119 462.939 123.693 463.256 124.08C463.572 124.455 464.111 124.643 464.873 124.643C465.248 124.643 465.764 124.572 466.42 124.432V127.068C465.564 127.303 464.732 127.42 463.924 127.42C462.471 127.42 461.375 126.98 460.637 126.102C459.898 125.223 459.529 123.975 459.529 122.357V110.562H456.066V108.049H459.529V103.443H462.781Z" fill="#FA5712"/>
<path d="M478.039 127.42C475.461 127.42 473.363 126.576 471.746 124.889C470.129 123.189 469.32 120.922 469.32 118.086V117.488C469.32 115.602 469.678 113.92 470.393 112.443C471.119 110.955 472.127 109.795 473.416 108.963C474.717 108.119 476.123 107.697 477.635 107.697C480.107 107.697 482.029 108.512 483.4 110.141C484.771 111.77 485.457 114.102 485.457 117.137V118.49H472.572C472.619 120.365 473.164 121.883 474.207 123.043C475.262 124.191 476.598 124.766 478.215 124.766C479.363 124.766 480.336 124.531 481.133 124.062C481.93 123.594 482.627 122.973 483.225 122.199L485.211 123.746C483.617 126.195 481.227 127.42 478.039 127.42ZM477.635 110.369C476.322 110.369 475.221 110.85 474.33 111.811C473.439 112.76 472.889 114.096 472.678 115.818H482.205V115.572C482.111 113.92 481.666 112.643 480.869 111.74C480.072 110.826 478.994 110.369 477.635 110.369Z" fill="#FA5712"/>
<path d="M498.43 110.967C497.938 110.885 497.404 110.844 496.83 110.844C494.697 110.844 493.25 111.752 492.488 113.568V127.068H489.236V108.049H492.4L492.453 110.246C493.52 108.547 495.031 107.697 496.988 107.697C497.621 107.697 498.102 107.779 498.43 107.943V110.967Z" fill="#FA5712"/>
<path d="M508.027 122.656L512.738 108.049H516.061L509.24 127.068H506.762L499.871 108.049H503.193L508.027 122.656Z" fill="#FA5712"/>
<path d="M530.65 127.068C530.463 126.693 530.311 126.025 530.193 125.064C528.682 126.635 526.877 127.42 524.779 127.42C522.904 127.42 521.363 126.893 520.156 125.838C518.961 124.771 518.363 123.424 518.363 121.795C518.363 119.814 519.113 118.279 520.613 117.189C522.125 116.088 524.246 115.537 526.977 115.537H530.141V114.043C530.141 112.906 529.801 112.004 529.121 111.336C528.441 110.656 527.439 110.316 526.115 110.316C524.955 110.316 523.982 110.609 523.197 111.195C522.412 111.781 522.02 112.49 522.02 113.322H518.75C518.75 112.373 519.084 111.459 519.752 110.58C520.432 109.689 521.346 108.986 522.494 108.471C523.654 107.955 524.926 107.697 526.309 107.697C528.5 107.697 530.217 108.248 531.459 109.35C532.701 110.439 533.346 111.945 533.393 113.867V122.621C533.393 124.367 533.615 125.756 534.061 126.787V127.068H530.65ZM525.254 124.59C526.273 124.59 527.24 124.326 528.154 123.799C529.068 123.271 529.73 122.586 530.141 121.742V117.84H527.592C523.607 117.84 521.615 119.006 521.615 121.338C521.615 122.357 521.955 123.154 522.635 123.729C523.314 124.303 524.188 124.59 525.254 124.59Z" fill="#FA5712"/>
<path d="M542.023 127.068H538.771V100.068H542.023V127.068Z" fill="#FA5712"/>
<path d="M546.383 117.383C546.383 115.52 546.746 113.844 547.473 112.355C548.211 110.867 549.23 109.719 550.531 108.91C551.844 108.102 553.338 107.697 555.014 107.697C557.604 107.697 559.695 108.594 561.289 110.387C562.895 112.18 563.697 114.564 563.697 117.541V117.77C563.697 119.621 563.34 121.285 562.625 122.762C561.922 124.227 560.908 125.369 559.584 126.189C558.271 127.01 556.76 127.42 555.049 127.42C552.471 127.42 550.379 126.523 548.773 124.73C547.18 122.938 546.383 120.564 546.383 117.611V117.383ZM549.652 117.77C549.652 119.879 550.139 121.572 551.111 122.85C552.096 124.127 553.408 124.766 555.049 124.766C556.701 124.766 558.014 124.121 558.986 122.832C559.959 121.531 560.445 119.715 560.445 117.383C560.445 115.297 559.947 113.609 558.951 112.32C557.967 111.02 556.654 110.369 555.014 110.369C553.408 110.369 552.113 111.008 551.129 112.285C550.145 113.562 549.652 115.391 549.652 117.77Z" fill="#FA5712"/>
<path d="M578.85 122.023C578.85 121.145 578.516 120.465 577.848 119.984C577.191 119.492 576.037 119.07 574.385 118.719C572.744 118.367 571.438 117.945 570.465 117.453C569.504 116.961 568.789 116.375 568.32 115.695C567.863 115.016 567.635 114.207 567.635 113.27C567.635 111.711 568.291 110.393 569.604 109.314C570.928 108.236 572.615 107.697 574.666 107.697C576.822 107.697 578.568 108.254 579.904 109.367C581.252 110.48 581.926 111.904 581.926 113.639H578.656C578.656 112.748 578.275 111.98 577.514 111.336C576.764 110.691 575.814 110.369 574.666 110.369C573.482 110.369 572.557 110.627 571.889 111.143C571.221 111.658 570.887 112.332 570.887 113.164C570.887 113.949 571.197 114.541 571.818 114.939C572.439 115.338 573.559 115.719 575.176 116.082C576.805 116.445 578.123 116.879 579.131 117.383C580.139 117.887 580.883 118.496 581.363 119.211C581.855 119.914 582.102 120.775 582.102 121.795C582.102 123.494 581.422 124.859 580.062 125.891C578.703 126.91 576.939 127.42 574.771 127.42C573.248 127.42 571.9 127.15 570.729 126.611C569.557 126.072 568.637 125.322 567.969 124.361C567.312 123.389 566.984 122.34 566.984 121.215H570.236C570.295 122.305 570.729 123.172 571.537 123.816C572.357 124.449 573.436 124.766 574.771 124.766C576.002 124.766 576.986 124.52 577.725 124.027C578.475 123.523 578.85 122.855 578.85 122.023Z" fill="#FA5712"/>
</g>
<g id="Tiempo">
<path d="M747.834 104.252H739.607V127.068H736.25V104.252H728.041V101.475H747.834V104.252Z" fill="#FA5712"/>
<path d="M754.654 127.068H751.402V108.049H754.654V127.068ZM751.139 103.004C751.139 102.477 751.297 102.031 751.613 101.668C751.941 101.305 752.422 101.123 753.055 101.123C753.688 101.123 754.168 101.305 754.496 101.668C754.824 102.031 754.988 102.477 754.988 103.004C754.988 103.531 754.824 103.971 754.496 104.322C754.168 104.674 753.688 104.85 753.055 104.85C752.422 104.85 751.941 104.674 751.613 104.322C751.297 103.971 751.139 103.531 751.139 103.004Z" fill="#FA5712"/>
<path d="M767.768 127.42C765.189 127.42 763.092 126.576 761.475 124.889C759.857 123.189 759.049 120.922 759.049 118.086V117.488C759.049 115.602 759.406 113.92 760.121 112.443C760.848 110.955 761.855 109.795 763.145 108.963C764.445 108.119 765.852 107.697 767.363 107.697C769.836 107.697 771.758 108.512 773.129 110.141C774.5 111.77 775.186 114.102 775.186 117.137V118.49H762.301C762.348 120.365 762.893 121.883 763.936 123.043C764.99 124.191 766.326 124.766 767.943 124.766C769.092 124.766 770.064 124.531 770.861 124.062C771.658 123.594 772.355 122.973 772.953 122.199L774.939 123.746C773.346 126.195 770.955 127.42 767.768 127.42ZM767.363 110.369C766.051 110.369 764.949 110.85 764.059 111.811C763.168 112.76 762.617 114.096 762.406 115.818H771.934V115.572C771.84 113.92 771.395 112.643 770.598 111.74C769.801 110.826 768.723 110.369 767.363 110.369Z" fill="#FA5712"/>
<path d="M782.023 108.049L782.111 110.158C783.506 108.518 785.387 107.697 787.754 107.697C790.414 107.697 792.225 108.717 793.186 110.756C793.818 109.842 794.639 109.104 795.646 108.541C796.666 107.979 797.867 107.697 799.25 107.697C803.422 107.697 805.543 109.906 805.613 114.324V127.068H802.361V114.518C802.361 113.158 802.051 112.145 801.43 111.477C800.809 110.797 799.766 110.457 798.301 110.457C797.094 110.457 796.092 110.82 795.295 111.547C794.498 112.262 794.035 113.229 793.906 114.447V127.068H790.637V114.605C790.637 111.84 789.283 110.457 786.576 110.457C784.443 110.457 782.984 111.365 782.199 113.182V127.068H778.947V108.049H782.023Z" fill="#FA5712"/>
<path d="M826.602 117.77C826.602 120.664 825.939 122.996 824.615 124.766C823.291 126.535 821.498 127.42 819.236 127.42C816.928 127.42 815.111 126.688 813.787 125.223V134.381H810.535V108.049H813.506L813.664 110.158C814.988 108.518 816.828 107.697 819.184 107.697C821.469 107.697 823.273 108.559 824.598 110.281C825.934 112.004 826.602 114.4 826.602 117.471V117.77ZM823.35 117.4C823.35 115.256 822.893 113.562 821.979 112.32C821.064 111.078 819.811 110.457 818.217 110.457C816.248 110.457 814.771 111.33 813.787 113.076V122.164C814.76 123.898 816.248 124.766 818.252 124.766C819.811 124.766 821.047 124.15 821.961 122.92C822.887 121.678 823.35 119.838 823.35 117.4Z" fill="#FA5712"/>
<path d="M829.889 117.383C829.889 115.52 830.252 113.844 830.979 112.355C831.717 110.867 832.736 109.719 834.037 108.91C835.35 108.102 836.844 107.697 838.52 107.697C841.109 107.697 843.201 108.594 844.795 110.387C846.4 112.18 847.203 114.564 847.203 117.541V117.77C847.203 119.621 846.846 121.285 846.131 122.762C845.428 124.227 844.414 125.369 843.09 126.189C841.777 127.01 840.266 127.42 838.555 127.42C835.977 127.42 833.885 126.523 832.279 124.73C830.686 122.938 829.889 120.564 829.889 117.611V117.383ZM833.158 117.77C833.158 119.879 833.645 121.572 834.617 122.85C835.602 124.127 836.914 124.766 838.555 124.766C840.207 124.766 841.52 124.121 842.492 122.832C843.465 121.531 843.951 119.715 843.951 117.383C843.951 115.297 843.453 113.609 842.457 112.32C841.473 111.02 840.16 110.369 838.52 110.369C836.914 110.369 835.619 111.008 834.635 112.285C833.65 113.562 833.158 115.391 833.158 117.77Z" fill="#FA5712"/>
</g>
<g id="\#Golpes">
<g id="Group">
<g id="Group_2">
<path id="Vector" d="M73 112.141C73 111.823 73.1713 111.578 73.5139 111.407H82.4338L83.9755 105.644C84.9299 101.924 85.4928 99.9422 85.6641 99.6974C85.7864 99.5017 85.97 99.4038 86.2147 99.4038C86.6552 99.4038 86.8999 99.624 86.9488 100.065C86.9488 100.162 86.4594 102.047 85.4805 105.717C84.4772 109.339 83.9755 111.211 83.9755 111.334L83.9388 111.407H90.8765L92.4182 105.644C93.4216 101.851 93.9722 99.881 94.0701 99.7341C94.2169 99.5139 94.4127 99.4038 94.6574 99.4038C94.8287 99.4038 94.9878 99.465 95.1346 99.5873C95.2814 99.7097 95.3548 99.8443 95.3548 99.9911C95.3548 100.236 94.8776 102.145 93.9232 105.717C92.9199 109.339 92.4182 111.211 92.4182 111.334L92.3815 111.407H98.9155C99.2825 111.603 99.4661 111.848 99.4661 112.141C99.4661 112.459 99.3437 112.655 99.099 112.729C98.8543 112.802 98.3037 112.851 97.4472 112.875H95.4282H91.941L91.2069 115.665L90.436 118.492C90.436 118.516 91.8554 118.528 94.6941 118.528H97.3737C98.2547 118.528 98.8176 118.565 99.0623 118.638C99.307 118.712 99.4416 118.92 99.4661 119.263C99.4905 119.605 99.307 119.85 98.9155 119.997H89.9955L88.4538 125.76C87.4505 129.553 86.8999 131.523 86.802 131.67C86.6552 131.89 86.4594 132 86.2147 132C86.0434 132 85.8843 131.939 85.7375 131.816C85.5907 131.694 85.5172 131.547 85.5172 131.376C85.5172 131.131 85.9944 129.222 86.9488 125.65C87.9522 122.077 88.4538 120.217 88.4538 120.07L88.4905 119.997H81.5528L80.0111 125.76C79.0078 129.553 78.4572 131.523 78.3593 131.67C78.2125 131.89 78.0167 132 77.772 132C77.6007 132 77.4416 131.939 77.2948 131.816C77.1479 131.694 77.0745 131.547 77.0745 131.376C77.0745 131.131 77.5517 129.222 78.5061 125.65C79.5095 122.077 80.0111 120.217 80.0111 120.07L80.0478 119.997H73.5139C73.1713 119.825 73 119.581 73 119.263C73 118.895 73.1958 118.651 73.5873 118.528H80.4883L81.2225 115.739L81.9933 112.912C81.9933 112.888 80.5862 112.875 77.772 112.875H73.5873C73.1958 112.753 73 112.508 73 112.141ZM90.436 112.912C90.436 112.888 89.2859 112.875 86.9855 112.875H83.4983L82.7642 115.665L81.9933 118.492C81.9933 118.516 83.1435 118.528 85.4438 118.528H88.931L89.6652 115.739L90.436 112.912Z" fill="#FA5712"/>
</g>
<g id="Group_3">
<path id="Vector_2" d="M103.357 115.628C103.357 112.814 104.177 110.11 105.816 107.516C107.456 104.922 109.524 102.866 112.02 101.349C114.516 99.832 117.012 99.0611 119.508 99.0367C121.711 99.0367 123.461 99.6607 124.757 100.909C124.978 101.153 125.161 101.361 125.308 101.533C125.455 101.704 125.553 101.826 125.602 101.9L125.638 102.01C125.712 102.01 126.042 101.692 126.63 101.056C126.801 100.909 126.984 100.737 127.18 100.542C127.376 100.346 127.572 100.15 127.768 99.9544C127.963 99.7586 128.086 99.624 128.135 99.5506L128.685 99H128.905C129.248 99 129.419 99.0856 129.419 99.2569C129.419 99.3548 129.028 101.031 128.245 104.286C127.364 107.687 126.923 109.4 126.923 109.425C126.874 109.547 126.813 109.621 126.74 109.645C126.666 109.67 126.446 109.694 126.079 109.719H125.492C125.345 109.572 125.271 109.462 125.271 109.388C125.271 109.364 125.284 109.278 125.308 109.131C125.333 108.984 125.357 108.74 125.382 108.397C125.406 108.054 125.418 107.663 125.418 107.222C125.418 105.485 125.027 103.968 124.244 102.671C123.461 101.374 122.127 100.713 120.242 100.689C119.802 100.689 119.325 100.725 118.811 100.799C118.297 100.872 117.648 101.031 116.865 101.276C116.082 101.521 115.336 101.863 114.626 102.304C113.917 102.744 113.146 103.331 112.314 104.066C111.482 104.8 110.772 105.668 110.185 106.672C109.597 107.675 109.022 108.923 108.459 110.416C107.897 111.909 107.517 113.548 107.321 115.335C107.273 115.775 107.248 116.252 107.248 116.766C107.248 117.941 107.419 118.981 107.762 119.887C108.105 120.792 108.545 121.489 109.083 121.979C109.622 122.468 110.234 122.884 110.919 123.227C111.604 123.569 112.24 123.777 112.828 123.851C113.415 123.924 113.966 123.973 114.479 123.998C115.801 123.998 117.012 123.716 118.113 123.153C119.215 122.591 119.973 121.869 120.389 120.988C120.463 120.792 120.646 120.119 120.94 118.969C121.234 117.819 121.38 117.17 121.38 117.023C121.38 116.828 121.221 116.705 120.903 116.656C120.585 116.607 119.851 116.571 118.701 116.546H117.343C117.196 116.399 117.122 116.301 117.122 116.252C117.122 116.204 117.147 115.971 117.196 115.555C117.294 115.237 117.416 115.004 117.563 114.858H118.187C119.166 114.907 120.879 114.931 123.326 114.931C124.305 114.931 125.1 114.931 125.712 114.931C126.324 114.931 126.764 114.919 127.033 114.894C127.303 114.87 127.449 114.87 127.474 114.894C127.816 114.894 127.988 115.004 127.988 115.225C127.988 115.274 127.963 115.445 127.914 115.739C127.792 116.204 127.67 116.46 127.547 116.509C127.474 116.534 127.29 116.546 126.997 116.546C126.507 116.546 126.006 116.583 125.492 116.656C125.32 116.73 125.198 116.84 125.125 116.987C125.051 117.133 124.88 117.757 124.611 118.859C124.39 119.666 124.207 120.351 124.06 120.914C123.448 123.41 123.106 124.695 123.032 124.769C122.983 124.818 122.922 124.842 122.849 124.842C122.604 124.842 122.261 124.597 121.821 124.108C121.38 123.618 121.099 123.239 120.977 122.97C120.977 122.945 120.952 122.945 120.903 122.97C120.854 122.994 120.781 123.056 120.683 123.153C118.872 124.842 116.425 125.686 113.341 125.686C110.38 125.686 107.982 124.744 106.147 122.86C104.311 120.975 103.382 118.565 103.357 115.628Z" fill="#FA5712"/>
</g>
<g id="Group_4">
<path id="Vector_3" d="M137.752 125.283C135.917 125.283 134.436 124.683 133.31 123.484C132.185 122.285 131.622 120.841 131.622 119.153C131.622 117.562 131.989 116.057 132.723 114.638C133.457 113.218 134.461 111.982 135.733 110.93C137.593 109.437 139.489 108.691 141.423 108.691C142.206 108.691 142.695 108.703 142.891 108.728C143.209 108.801 143.527 108.887 143.845 108.985C144.164 109.082 144.592 109.278 145.13 109.572C145.669 109.866 146.109 110.233 146.452 110.673C146.794 111.114 147.112 111.713 147.406 112.472C147.7 113.23 147.846 114.087 147.846 115.041C147.846 117.66 146.794 120.021 144.69 122.126C142.585 124.23 140.273 125.283 137.752 125.283ZM134.815 120.474C134.815 121.698 135.133 122.579 135.77 123.117C136.406 123.655 137.128 123.925 137.935 123.925C139.012 123.925 140.028 123.533 140.982 122.75C141.937 121.967 142.695 120.939 143.258 119.666C143.478 119.153 143.76 118.247 144.102 116.95C144.445 115.653 144.616 114.527 144.616 113.573C144.616 112.496 144.396 111.676 143.955 111.114C143.368 110.379 142.585 110.012 141.606 110.012C140.065 110.012 138.706 110.722 137.532 112.141C136.626 113.218 135.953 114.65 135.513 116.436C135.072 118.223 134.84 119.569 134.815 120.474Z" fill="#FA5712"/>
</g>
<g id="Group_5">
<path id="Vector_4" d="M152.472 122.713C152.472 123.521 152.778 123.924 153.389 123.924C154.295 123.924 155.066 122.64 155.702 120.07C155.849 119.581 155.971 119.324 156.069 119.299C156.118 119.275 156.24 119.262 156.436 119.262H156.583C156.803 119.262 156.95 119.262 157.023 119.262C157.097 119.262 157.158 119.287 157.207 119.336C157.256 119.385 157.28 119.47 157.28 119.593C157.256 119.74 157.219 119.935 157.17 120.18C157.121 120.425 156.987 120.89 156.766 121.575C156.546 122.26 156.301 122.835 156.032 123.3C155.763 123.765 155.384 124.218 154.894 124.658C154.405 125.099 153.842 125.307 153.206 125.282C152.325 125.282 151.505 125.013 150.746 124.475C149.988 123.937 149.596 123.031 149.572 121.759C149.572 121.465 149.584 121.257 149.608 121.135L151.994 111.664C153.536 105.424 154.307 102.206 154.307 102.01C154.307 101.937 154.295 101.875 154.27 101.826C154.246 101.777 154.197 101.729 154.123 101.68C154.05 101.631 153.989 101.606 153.94 101.606C153.891 101.606 153.793 101.594 153.646 101.569C153.499 101.545 153.402 101.533 153.353 101.533C153.304 101.533 153.194 101.521 153.022 101.496C152.851 101.472 152.729 101.472 152.655 101.496C152.41 101.496 152.251 101.496 152.178 101.496C152.105 101.496 152.007 101.484 151.884 101.459C151.762 101.435 151.689 101.398 151.664 101.349C151.64 101.3 151.627 101.227 151.627 101.129C151.627 101.08 151.652 100.909 151.701 100.615C151.823 100.15 151.958 99.8932 152.105 99.8442C152.251 99.7953 153.132 99.7219 154.747 99.624C155.115 99.5995 155.531 99.575 155.996 99.5506C156.461 99.5261 156.828 99.4894 157.097 99.4404C157.366 99.3915 157.501 99.3793 157.501 99.4037C157.794 99.4037 157.941 99.5016 157.941 99.6974C157.941 99.9666 157.048 103.637 155.261 110.71C153.475 117.782 152.557 121.489 152.508 121.832C152.508 121.881 152.508 121.979 152.508 122.126C152.508 122.272 152.496 122.395 152.472 122.493V122.713Z" fill="#FA5712"/>
</g>
<g id="Group_6">
<path id="Vector_5" d="M159.96 114.344C159.984 114.27 160.009 114.172 160.033 114.05C160.058 113.928 160.119 113.659 160.217 113.242C160.315 112.826 160.437 112.447 160.584 112.105C160.731 111.762 160.914 111.358 161.135 110.893C161.355 110.428 161.6 110.061 161.869 109.792C162.138 109.523 162.456 109.254 162.823 108.984C163.19 108.715 163.594 108.605 164.034 108.654C165.87 108.654 167.044 109.437 167.558 111.003L167.925 110.673C169.443 109.327 170.887 108.654 172.257 108.654C173.848 108.654 175.096 109.229 176.001 110.379C176.907 111.529 177.359 112.924 177.359 114.564C177.359 117.207 176.429 119.642 174.57 121.869C172.71 124.096 170.605 125.221 168.256 125.246C167.717 125.246 167.24 125.172 166.824 125.026C166.555 124.903 166.274 124.72 165.98 124.475C165.686 124.23 165.454 124.022 165.283 123.851L165.026 123.557C165.001 123.582 164.732 124.646 164.218 126.751C163.704 128.855 163.447 129.92 163.447 129.944C163.447 130.091 163.545 130.177 163.741 130.201C163.937 130.226 164.389 130.263 165.099 130.311H166.017C166.164 130.483 166.237 130.593 166.237 130.642C166.237 130.691 166.2 130.911 166.127 131.303C166.053 131.596 165.98 131.78 165.907 131.853C165.833 131.927 165.674 131.976 165.429 132C165.38 132 165.246 132 165.026 132C164.805 132 164.389 131.988 163.778 131.963C163.166 131.939 162.407 131.927 161.502 131.927C159.789 131.927 158.7 131.951 158.235 132H157.941C157.77 131.829 157.684 131.694 157.684 131.596C157.733 130.935 157.892 130.507 158.161 130.311H158.895C159.727 130.287 160.205 130.14 160.327 129.871C160.4 129.724 161.147 126.8 162.566 121.098C163.986 115.396 164.732 112.374 164.805 112.031C164.83 111.909 164.842 111.737 164.842 111.517C164.842 110.514 164.536 110.012 163.924 110.012C163.386 110.012 162.933 110.355 162.566 111.04C162.199 111.725 161.918 112.472 161.722 113.279C161.526 114.087 161.379 114.527 161.281 114.601C161.232 114.65 161.037 114.674 160.694 114.674H160.18C160.033 114.527 159.96 114.417 159.96 114.344ZM165.65 121.135C166.188 122.994 167.093 123.924 168.366 123.924C169.1 123.924 169.81 123.643 170.495 123.08C171.18 122.517 171.743 121.808 172.184 120.951C172.624 120.119 173.065 118.798 173.505 116.987C173.945 115.176 174.178 113.83 174.202 112.949V112.729C174.202 110.918 173.456 110.012 171.963 110.012C171.694 110.012 171.425 110.049 171.156 110.122C170.887 110.196 170.617 110.306 170.348 110.453C170.079 110.6 169.834 110.759 169.614 110.93C169.394 111.101 169.186 111.285 168.99 111.481C168.794 111.676 168.611 111.86 168.439 112.031C168.268 112.202 168.133 112.374 168.036 112.545C167.938 112.716 167.84 112.839 167.742 112.912L167.632 113.059C167.632 113.083 167.595 113.255 167.522 113.573C167.448 113.891 167.314 114.429 167.118 115.188C166.922 115.947 166.751 116.583 166.604 117.097C165.968 119.691 165.65 121.037 165.65 121.135Z" fill="#FA5712"/>
</g>
<g id="Group_7">
<path id="Vector_6" d="M179.011 118.712C179.011 117.317 179.244 116.045 179.709 114.895C180.174 113.744 180.773 112.79 181.507 112.031C182.241 111.273 183.061 110.636 183.967 110.123C184.872 109.609 185.729 109.229 186.536 108.985C187.344 108.74 188.115 108.63 188.849 108.654H188.959C190.06 108.654 191.014 108.923 191.822 109.462C192.63 110 193.033 110.796 193.033 111.848C193.033 114.05 191.675 115.494 188.959 116.179C187.76 116.497 186.12 116.669 184.04 116.693C183.135 116.693 182.67 116.718 182.645 116.767C182.645 116.816 182.572 117.244 182.425 118.051C182.278 118.859 182.192 119.569 182.168 120.18C182.168 121.331 182.425 122.236 182.939 122.897C183.453 123.557 184.224 123.9 185.251 123.925C186.279 123.949 187.417 123.717 188.665 123.227C189.913 122.738 191.039 121.93 192.042 120.804C192.262 120.56 192.409 120.437 192.483 120.437C192.581 120.437 192.74 120.547 192.96 120.768C193.18 120.988 193.303 121.159 193.327 121.282C193.351 121.404 193.241 121.6 192.997 121.869C192.752 122.138 192.385 122.468 191.895 122.86C191.406 123.252 190.843 123.631 190.207 123.998C189.571 124.365 188.8 124.671 187.894 124.916C186.989 125.16 186.059 125.283 185.105 125.283C183.171 125.283 181.679 124.634 180.626 123.337C179.574 122.04 179.036 120.499 179.011 118.712ZM191.271 111.921C191.125 110.649 190.293 110.012 188.775 110.012C187.968 110.012 187.221 110.184 186.536 110.526C185.851 110.869 185.3 111.285 184.884 111.774C184.468 112.264 184.113 112.765 183.82 113.279C183.526 113.793 183.33 114.234 183.232 114.601C183.135 114.968 183.073 115.2 183.049 115.298C183.049 115.323 183.294 115.335 183.783 115.335C186.548 115.335 188.482 115.041 189.583 114.454C190.684 113.867 191.247 113.022 191.271 111.921Z" fill="#FA5712"/>
</g>
<g id="Group_8">
<path id="Vector_7" d="M199.494 114.27C199.494 113.487 199.69 112.692 200.081 111.884C200.473 111.077 201.158 110.33 202.137 109.645C203.116 108.96 204.303 108.63 205.697 108.654C207.215 108.654 208.316 108.984 209.001 109.645C209.686 110.306 210.041 111.04 210.066 111.848C210.066 112.631 209.858 113.206 209.442 113.573C209.026 113.94 208.561 114.136 208.047 114.16C207.729 114.16 207.435 114.062 207.166 113.867C206.897 113.671 206.75 113.353 206.725 112.912C206.725 112.521 206.835 112.178 207.056 111.884C207.276 111.591 207.484 111.37 207.68 111.224C207.875 111.077 208.034 111.003 208.157 111.003C208.181 111.003 208.194 110.991 208.194 110.967C208.194 110.893 208.108 110.783 207.937 110.636C207.765 110.489 207.459 110.355 207.019 110.233C206.578 110.11 206.101 110.037 205.587 110.012C204.413 110.012 203.556 110.33 203.018 110.967C202.479 111.603 202.198 112.251 202.174 112.912C202.174 113.524 202.406 113.952 202.871 114.197C203.336 114.442 204.009 114.65 204.89 114.821C205.771 114.992 206.407 115.176 206.799 115.372C208.414 116.081 209.221 117.256 209.221 118.895C209.221 119.581 209.087 120.266 208.818 120.951C208.548 121.636 208.145 122.321 207.606 123.007C207.068 123.692 206.297 124.23 205.294 124.622C204.29 125.013 203.14 125.221 201.843 125.246C199.959 125.246 198.625 124.891 197.842 124.181C197.059 123.472 196.655 122.64 196.631 121.685C196.631 120.731 196.888 120.046 197.402 119.63C197.915 119.214 198.454 119.006 199.017 119.006C199.384 119.006 199.726 119.116 200.044 119.336C200.363 119.556 200.534 119.936 200.558 120.474C200.558 121.11 200.338 121.649 199.898 122.089C199.457 122.529 199.078 122.75 198.76 122.75C198.711 122.774 198.674 122.786 198.65 122.786C198.625 122.786 198.613 122.811 198.613 122.86C198.637 122.933 198.735 123.031 198.907 123.154C199.078 123.276 199.457 123.435 200.044 123.631C200.632 123.826 201.305 123.912 202.063 123.888C202.944 123.888 203.703 123.753 204.339 123.484C204.976 123.215 205.44 122.872 205.734 122.456C206.028 122.04 206.236 121.661 206.358 121.318C206.481 120.976 206.542 120.67 206.542 120.4C206.542 119.715 206.285 119.201 205.771 118.859C205.257 118.516 204.67 118.308 204.009 118.235C203.348 118.161 202.626 117.978 201.843 117.684C201.06 117.39 200.485 116.962 200.118 116.399C199.702 115.788 199.494 115.078 199.494 114.27Z" fill="#FA5712"/>
</g>
</g>
</g>
</g>
<g id="-1 \;\; +1">
<g id="Group_9">
<g id="Group 4">
<path id="Arrow 1 (Stroke)" fill-rule="evenodd" clip-rule="evenodd" d="M334.339 54.2877C288.047 53.5293 241.73 62.9292 182.667 84.8748L181.274 81.1252C240.641 59.0667 287.467 49.5193 334.404 50.2882C380.099 51.0368 425.765 61.5622 483.042 79.6365L476.995 67.923C476.489 66.9415 476.874 65.7351 477.855 65.2284C478.837 64.7217 480.043 65.1066 480.55 66.0881L488.807 82.0826C489.313 83.0641 488.928 84.2705 487.947 84.7772L471.952 93.0341C470.971 93.5408 469.765 93.1559 469.258 92.1744C468.751 91.1929 469.136 89.9865 470.118 89.4798L481.812 83.4427C424.674 65.4139 379.451 55.0268 334.339 54.2877Z" fill="#E79720"/>
<g id="Group_10">
<path id="Vector_8" d="M282 25.2427C282 25.2427 282 24.9877 282 24.4777C282 23.9678 282.275 23.5755 282.824 23.3009H317.01C317.599 23.6147 317.893 24.007 317.893 24.4777C317.893 24.9485 317.599 25.3407 317.01 25.6545H282.824C282.275 25.38 282 24.9877 282 24.4777V25.2427Z" fill="#E79720"/>
</g>
<g id="Group_11">
<path id="Vector_9" d="M335.369 5.17799L334.604 5.47219C334.055 5.66833 333.27 5.86446 332.25 6.0606C331.23 6.25674 330.093 6.39403 328.837 6.47249H327.719V3.76581H328.837C330.681 3.68735 332.387 3.39315 333.956 2.8832C335.526 2.37324 336.624 1.90252 337.252 1.47102C337.879 1.03952 338.428 0.608017 338.899 0.176517C338.978 0.0588358 339.213 -3.8147e-06 339.605 -3.8147e-06C339.958 -3.8147e-06 340.292 0.117675 340.605 0.353039V17.9464L340.664 35.5987C340.939 35.8733 341.174 36.0498 341.37 36.1283C341.567 36.2067 342.037 36.2852 342.783 36.3636C343.528 36.4421 344.744 36.4813 346.431 36.4813H347.961V39.188H347.313C346.49 39.0703 343.371 39.0115 337.958 39.0115C332.623 39.0115 329.543 39.0703 328.72 39.188H328.014V36.4813H329.543C330.406 36.4813 331.152 36.4813 331.779 36.4813C332.407 36.4813 332.897 36.4617 333.25 36.4225C333.603 36.3832 333.917 36.3244 334.192 36.2459C334.466 36.1675 334.623 36.1283 334.663 36.1283C334.702 36.1283 334.819 36.0302 335.016 35.8341C335.212 35.6379 335.329 35.5595 335.369 35.5987V5.17799Z" fill="#E79720"/>
</g>
</g>
<g id="Group 5">
<path id="Arrow 2 (Stroke)" fill-rule="evenodd" clip-rule="evenodd" d="M337.691 282.712C383.983 283.471 430.3 274.071 489.362 252.125L490.756 255.875C431.389 277.933 384.563 287.481 337.625 286.712C291.93 285.963 246.265 275.438 188.987 257.363L195.034 269.077C195.541 270.059 195.156 271.265 194.174 271.772C193.193 272.278 191.986 271.893 191.48 270.912L183.223 254.917C182.716 253.936 183.101 252.73 184.083 252.223L200.077 243.966C201.059 243.459 202.265 243.844 202.772 244.826C203.278 245.807 202.893 247.014 201.912 247.52L190.217 253.557C247.355 271.586 292.578 281.973 337.691 282.712Z" fill="#E79720"/>
<g id="Group_12">
<path id="Vector_10" d="M282 323.243C282 323.243 282 322.988 282 322.478C282 321.968 282.275 321.576 282.824 321.301H300.417V312.475L300.476 303.649C300.868 303.139 301.241 302.884 301.594 302.884C302.104 302.884 302.496 303.178 302.771 303.766V321.301H320.305C320.894 321.615 321.188 322.007 321.188 322.478C321.188 322.949 320.894 323.341 320.305 323.655H302.771V341.189C302.457 341.738 302.104 342.013 301.712 342.013H301.594H301.476C301.006 342.013 300.653 341.738 300.417 341.189V323.655H282.824C282.275 323.38 282 322.988 282 322.478V323.243Z" fill="#E79720"/>
</g>
<g id="Group_13">
<path id="Vector_11" d="M350.091 303.178L349.326 303.472C348.776 303.668 347.992 303.864 346.972 304.061C345.952 304.257 344.815 304.394 343.559 304.472H342.441V301.766H343.559C345.403 301.687 347.109 301.393 348.678 300.883C350.248 300.373 351.346 299.903 351.973 299.471C352.601 299.04 353.15 298.608 353.621 298.177C353.699 298.059 353.935 298 354.327 298C354.68 298 355.014 298.118 355.327 298.353V315.946L355.386 333.599C355.661 333.873 355.896 334.05 356.092 334.128C356.288 334.207 356.759 334.285 357.505 334.364C358.25 334.442 359.466 334.481 361.153 334.481H362.683V337.188H362.035C361.212 337.07 358.093 337.011 352.68 337.011C347.345 337.011 344.265 337.07 343.442 337.188H342.735V334.481H344.265C345.128 334.481 345.874 334.481 346.501 334.481C347.129 334.481 347.619 334.462 347.972 334.422C348.325 334.383 348.639 334.324 348.914 334.246C349.188 334.167 349.345 334.128 349.385 334.128C349.424 334.128 349.541 334.03 349.738 333.834C349.934 333.638 350.051 333.559 350.091 333.599V303.178Z" fill="#E79720"/>
</g>
</g>
</g>
</g>
<g id="5 \;    4 \;   2\;&#10;x\;  6\;">
<g id="Group_14">
<g id="Group_15">
<path id="Vector_12" d="M137.219 170.804C137.219 171.536 136.975 172.147 136.486 172.635C135.998 173.123 135.403 173.367 134.701 173.367H134.381C135.784 175.778 137.646 176.984 139.966 176.984C142.102 176.984 143.659 176.068 144.635 174.237C145.215 173.23 145.505 171.277 145.505 168.377C145.505 165.234 145.093 163.113 144.269 162.014C143.475 161.007 142.59 160.503 141.614 160.503H141.339C138.959 160.503 137.158 161.541 135.937 163.616C135.815 163.83 135.708 163.952 135.617 163.983C135.525 164.013 135.296 164.044 134.93 164.074C134.411 164.074 134.121 163.983 134.06 163.799C133.999 163.677 133.969 161.007 133.969 155.788V149.882C133.969 148.356 134.045 147.593 134.197 147.593C134.258 147.532 134.32 147.502 134.381 147.502C134.411 147.502 134.732 147.624 135.342 147.868C135.952 148.112 136.792 148.356 137.86 148.601C138.928 148.845 140.072 148.967 141.293 148.967C143.46 148.967 145.536 148.54 147.519 147.685C147.763 147.563 147.962 147.502 148.114 147.502C148.359 147.502 148.481 147.777 148.481 148.326V148.921C145.978 151.881 142.85 153.362 139.096 153.362C138.15 153.362 137.295 153.27 136.532 153.087L136.074 152.995V160.87C136.654 160.442 137.112 160.107 137.448 159.862C137.784 159.618 138.333 159.374 139.096 159.13C139.859 158.886 140.637 158.764 141.431 158.764C143.903 158.764 145.993 159.756 147.702 161.739C149.412 163.723 150.266 166.073 150.266 168.789C150.266 171.597 149.289 173.993 147.336 175.977C145.383 177.961 143.002 178.968 140.195 178.998C137.722 178.998 135.739 178.174 134.243 176.526C132.748 174.878 132 173.016 132 170.941C132 170.209 132.168 169.629 132.504 169.201C132.839 168.774 133.19 168.499 133.557 168.377C133.923 168.255 134.274 168.194 134.609 168.194C135.372 168.194 135.998 168.454 136.486 168.973C136.975 169.491 137.219 170.102 137.219 170.804Z" fill="white"/>
</g>
<g id="Group_16">
<path id="Vector_13" d="M505.868 178.993C505.319 178.901 503.35 178.856 499.963 178.856C496.423 178.856 494.378 178.901 493.828 178.993H493.416V176.887H494.835C495.446 176.887 495.858 176.887 496.072 176.887C496.285 176.887 496.545 176.857 496.85 176.795C497.155 176.734 497.369 176.658 497.491 176.567C497.613 176.475 497.72 176.353 497.811 176.2C497.842 176.139 497.857 175.315 497.857 173.728V171.439H486V169.333L492.913 158.758C497.582 151.678 499.948 148.122 500.009 148.092C500.07 148.031 500.39 148 500.97 148H501.794L502.069 148.275V169.333H506.28V171.439H502.069V173.774C502.069 175.025 502.069 175.758 502.069 175.971C502.069 176.185 502.16 176.368 502.343 176.521C502.588 176.734 503.457 176.857 504.953 176.887H506.28V178.993H505.868ZM498.132 169.333V154.043L488.106 169.288L493.096 169.333H498.132Z" fill="white"/>
</g>
<g id="Group_17">
<path id="Vector_14" d="M793.701 159.85C792.877 159.85 792.221 159.575 791.732 159.026C791.244 158.476 791 157.805 791 157.011C791 154.845 791.809 152.968 793.426 151.381C795.044 149.794 797.058 149 799.469 149C802.247 149 804.566 149.855 806.428 151.564C808.289 153.273 809.236 155.485 809.266 158.202C809.266 159.514 808.961 160.765 808.351 161.956C807.74 163.146 807.008 164.184 806.153 165.069C805.299 165.954 804.078 167.083 802.491 168.456C801.392 169.402 799.866 170.806 797.913 172.668L795.212 175.232L798.691 175.278C803.483 175.278 806.031 175.201 806.336 175.049C806.55 174.988 806.916 173.629 807.435 170.974V170.837H809.266V170.974C809.236 171.066 809.037 172.454 808.671 175.14C808.305 177.826 808.076 179.23 807.984 179.352V179.489H791V178.619V178.07C791 177.856 791.092 177.628 791.275 177.383C791.458 177.139 791.916 176.605 792.648 175.781C793.533 174.804 794.296 173.95 794.937 173.217C795.212 172.912 795.731 172.348 796.494 171.524C797.257 170.7 797.775 170.135 798.05 169.83C798.325 169.525 798.767 169.021 799.378 168.319C799.988 167.617 800.415 167.098 800.66 166.763C800.904 166.427 801.255 165.969 801.712 165.389C802.17 164.809 802.491 164.321 802.674 163.924C802.857 163.527 803.086 163.085 803.361 162.597C803.635 162.108 803.834 161.62 803.956 161.132C804.078 160.643 804.185 160.185 804.276 159.758C804.368 159.331 804.413 158.827 804.413 158.247C804.413 156.325 803.895 154.661 802.857 153.257C801.819 151.854 800.339 151.152 798.416 151.152C797.409 151.152 796.524 151.411 795.761 151.93C794.998 152.449 794.464 152.952 794.159 153.441C793.854 153.929 793.701 154.219 793.701 154.31C793.701 154.341 793.777 154.356 793.93 154.356C794.479 154.356 795.044 154.57 795.624 154.997C796.204 155.424 796.494 156.126 796.494 157.103C796.494 157.866 796.249 158.507 795.761 159.026C795.273 159.545 794.586 159.819 793.701 159.85Z" fill="white"/>
</g>
<g id="Group_18">
<path id="Vector_15" d="M484.778 211.004C484.992 209.723 485.816 208.242 487.25 206.564C488.685 204.885 490.455 204.031 492.561 204C493.629 204 494.606 204.275 495.491 204.824C496.376 205.373 497.032 206.06 497.459 206.884C498.741 204.961 500.282 204 502.083 204C503.212 204 504.189 204.336 505.013 205.007C505.837 205.679 506.264 206.579 506.295 207.708C506.295 208.593 506.081 209.311 505.654 209.86C505.227 210.409 504.814 210.745 504.418 210.867C504.021 210.989 503.67 211.05 503.365 211.05C502.785 211.05 502.312 210.882 501.946 210.547C501.579 210.211 501.396 209.768 501.396 209.219C501.396 207.815 502.159 206.854 503.685 206.335C503.35 205.938 502.739 205.74 501.854 205.74C501.457 205.74 501.167 205.77 500.984 205.831C499.825 206.32 498.97 207.327 498.421 208.853C496.589 215.598 495.674 219.535 495.674 220.664C495.674 221.518 495.918 222.129 496.406 222.495C496.895 222.861 497.429 223.044 498.009 223.044C499.138 223.044 500.252 222.541 501.351 221.534C502.449 220.527 503.197 219.29 503.594 217.826C503.685 217.52 503.777 217.352 503.868 217.322C503.96 217.291 504.204 217.261 504.601 217.23H504.784C505.242 217.23 505.471 217.352 505.471 217.597C505.471 217.627 505.44 217.795 505.379 218.1C504.891 219.84 503.945 221.381 502.541 222.724C501.137 224.067 499.504 224.738 497.642 224.738C495.506 224.738 493.888 223.777 492.79 221.854C491.538 223.746 490.104 224.693 488.486 224.693H488.212C486.716 224.693 485.648 224.296 485.007 223.502C484.366 222.709 484.031 221.869 484 220.984C484 220.008 484.29 219.214 484.87 218.604C485.45 217.993 486.136 217.688 486.93 217.688C488.242 217.688 488.898 218.329 488.898 219.611C488.898 220.221 488.715 220.755 488.349 221.213C487.983 221.671 487.632 221.976 487.296 222.129C486.96 222.281 486.762 222.358 486.701 222.358L486.564 222.404C486.564 222.434 486.655 222.495 486.838 222.587C487.021 222.678 487.266 222.785 487.571 222.907C487.876 223.029 488.166 223.075 488.441 223.044C489.539 223.044 490.485 222.358 491.279 220.984C491.554 220.496 491.905 219.458 492.332 217.871C492.759 216.284 493.186 214.636 493.614 212.927C494.041 211.218 494.285 210.211 494.346 209.906C494.499 209.082 494.575 208.486 494.575 208.12C494.575 207.266 494.346 206.655 493.888 206.289C493.431 205.923 492.912 205.74 492.332 205.74C491.111 205.74 489.967 206.228 488.898 207.205C487.83 208.181 487.082 209.433 486.655 210.959C486.594 211.233 486.518 211.386 486.426 211.416C486.335 211.447 486.091 211.477 485.694 211.508H485.053C484.87 211.325 484.778 211.157 484.778 211.004Z" fill="white"/>
</g>
<g id="Group_19">
<path id="Vector_16" d="M791.003 214.16C791.003 209.185 792.239 205.248 794.711 202.349C797.183 199.45 799.93 198 802.951 198C805.057 198 806.568 198.549 807.484 199.648C808.399 200.747 808.857 201.967 808.857 203.31C808.857 204.073 808.643 204.684 808.216 205.142C807.789 205.599 807.194 205.828 806.431 205.828C805.729 205.828 805.149 205.615 804.691 205.187C804.233 204.76 804.004 204.165 804.004 203.402C804.004 202.059 804.722 201.25 806.156 200.976C805.485 200.304 804.538 199.923 803.318 199.831C801.151 199.831 799.365 200.747 797.961 202.578C796.527 204.592 795.81 207.675 795.81 211.825L795.856 212.008C796.008 211.825 796.13 211.627 796.222 211.413C797.473 209.582 799.106 208.667 801.12 208.667H801.303C802.707 208.667 803.943 208.957 805.011 209.536C805.744 209.964 806.476 210.574 807.209 211.368C807.941 212.161 808.536 213.031 808.994 213.977C809.635 215.472 809.956 217.105 809.956 218.875V219.699C809.956 220.401 809.879 221.058 809.727 221.668C809.391 223.469 808.414 225.224 806.797 226.933C805.179 228.642 803.134 229.496 800.662 229.496C799.808 229.496 798.984 229.374 798.19 229.13C797.397 228.886 796.542 228.428 795.627 227.757C794.711 227.085 793.933 226.185 793.292 225.056C792.651 223.926 792.102 222.446 791.644 220.615C791.186 218.784 790.972 216.632 791.003 214.16ZM800.845 210.315C799.93 210.315 799.136 210.574 798.465 211.093C797.794 211.612 797.275 212.298 796.908 213.153C796.542 214.008 796.283 214.877 796.13 215.762C795.978 216.648 795.886 217.594 795.856 218.601C795.856 221.134 796.039 222.95 796.405 224.049C796.771 225.147 797.351 226.032 798.144 226.704C798.877 227.253 799.686 227.528 800.571 227.528C802.127 227.528 803.318 226.948 804.142 225.788C804.538 225.239 804.813 224.552 804.966 223.728C805.118 222.904 805.195 221.302 805.195 218.921C805.195 216.48 805.118 214.847 804.966 214.023C804.813 213.199 804.538 212.512 804.142 211.963C803.318 210.864 802.219 210.315 800.845 210.315Z" fill="white"/>
</g>
</g>
</g>
<g id="flechas">
<path id="Arrow 3 (Stroke)" fill-rule="evenodd" clip-rule="evenodd" d="M724.664 149.723L744.234 160.826C745.435 161.507 745.856 163.033 745.174 164.234L734.072 183.804C733.39 185.004 731.864 185.426 730.663 184.744C729.463 184.063 729.041 182.537 729.723 181.336L737.847 167.016L551.665 218.41L550.335 213.59L736.517 162.196L722.197 154.072C720.996 153.39 720.574 151.864 721.256 150.664C721.937 149.463 723.463 149.041 724.664 149.723Z" fill="#FA5712"/>
<path id="Arrow 4 (Stroke)" fill-rule="evenodd" clip-rule="evenodd" d="M734.072 195.197L745.174 214.766C745.856 215.967 745.435 217.493 744.234 218.175L724.664 229.277C723.463 229.959 721.937 229.538 721.256 228.337C720.574 227.136 720.996 225.61 722.197 224.929L736.517 216.804L550.335 165.41L551.665 160.59L737.847 211.984L729.723 197.664C729.041 196.463 729.463 194.937 730.663 194.256C731.864 193.575 733.39 193.996 734.072 195.197Z" fill="#FA5712"/>
</g>
<g id="2 \times x=6 \times4\;1\;2\;&#10;\therefore\;x=6 \times 2=12\; 13">
<g id="Group_20">
<g id="Group 41">
<g id="Group 40">
<g id="Group_21">
<path id="Vector_17" d="M589.332 329.802C588.621 329.802 588.054 329.565 587.632 329.091C587.211 328.616 587 328.037 587 327.352C587 325.481 587.698 323.86 589.095 322.49C590.491 321.12 592.231 320.435 594.312 320.435C596.71 320.435 598.713 321.172 600.32 322.648C601.928 324.124 602.744 326.034 602.771 328.379C602.771 329.512 602.507 330.593 601.98 331.62C601.453 332.648 600.821 333.544 600.083 334.308C599.345 335.072 598.291 336.047 596.921 337.233C595.972 338.05 594.655 339.262 592.968 340.869L590.636 343.083L593.64 343.122C597.777 343.122 599.978 343.057 600.241 342.925C600.426 342.872 600.742 341.699 601.19 339.407V339.288H602.771V339.407C602.744 339.486 602.573 340.685 602.257 343.004C601.941 345.323 601.743 346.535 601.664 346.64V346.759H587V346.008V345.533C587 345.349 587.079 345.151 587.237 344.941C587.395 344.73 587.791 344.269 588.423 343.557C589.187 342.714 589.846 341.976 590.399 341.344C590.636 341.08 591.084 340.593 591.743 339.881C592.402 339.17 592.85 338.682 593.087 338.419C593.324 338.155 593.706 337.721 594.233 337.115C594.76 336.508 595.129 336.061 595.34 335.771C595.551 335.481 595.854 335.086 596.249 334.585C596.644 334.084 596.921 333.663 597.079 333.32C597.237 332.977 597.435 332.595 597.672 332.174C597.909 331.752 598.08 331.331 598.186 330.909C598.291 330.487 598.383 330.092 598.462 329.723C598.542 329.354 598.581 328.92 598.581 328.419C598.581 326.759 598.133 325.323 597.237 324.111C596.341 322.898 595.063 322.292 593.403 322.292C592.534 322.292 591.769 322.516 591.111 322.964C590.452 323.412 589.991 323.847 589.727 324.269C589.464 324.69 589.332 324.941 589.332 325.02C589.332 325.046 589.398 325.059 589.53 325.059C590.004 325.059 590.491 325.244 590.992 325.613C591.493 325.981 591.743 326.588 591.743 327.431C591.743 328.089 591.532 328.643 591.111 329.091C590.689 329.539 590.096 329.776 589.332 329.802Z" fill="white"/>
</g>
<g id="Group_22">
<path id="Vector_18" d="M638.47 345.613C638.47 346.14 638.194 346.403 637.64 346.403C637.509 346.403 637.219 346.192 636.771 345.771C636.323 345.349 635.084 344.124 633.055 342.095L628.945 337.984L624.794 342.134C622.001 344.875 620.565 346.271 620.486 346.324C620.381 346.377 620.289 346.403 620.209 346.403C619.999 346.403 619.814 346.324 619.656 346.166C619.498 346.008 619.406 345.823 619.379 345.613C619.379 345.428 619.564 345.138 619.933 344.743C620.302 344.348 621.54 343.096 623.648 340.988L627.759 336.877L623.648 332.767C621.514 330.632 620.275 329.381 619.933 329.012C619.59 328.643 619.406 328.353 619.379 328.142C619.379 327.905 619.459 327.721 619.617 327.589C619.775 327.457 619.972 327.391 620.209 327.391C620.341 327.391 620.433 327.404 620.486 327.431C620.565 327.483 622.001 328.88 624.794 331.62L628.945 335.771L633.055 331.66C635.084 329.631 636.323 328.406 636.771 327.984C637.219 327.562 637.509 327.352 637.64 327.352C638.194 327.352 638.47 327.615 638.47 328.142C638.47 328.327 638.339 328.564 638.075 328.854C637.812 329.144 636.52 330.435 634.202 332.727L630.091 336.877L634.202 341.028C636.415 343.241 637.68 344.519 637.996 344.862C638.312 345.204 638.47 345.454 638.47 345.613Z" fill="white"/>
</g>
<g id="Group_23">
<path id="Vector_19" d="M655.158 335.336C655.343 334.229 656.054 332.951 657.292 331.502C658.531 330.052 660.059 329.315 661.877 329.288C662.8 329.288 663.643 329.525 664.407 330C665.171 330.474 665.738 331.067 666.107 331.778C667.213 330.118 668.544 329.288 670.099 329.288C671.074 329.288 671.917 329.578 672.628 330.158C673.34 330.737 673.709 331.515 673.735 332.49C673.735 333.254 673.551 333.873 673.182 334.348C672.813 334.822 672.457 335.112 672.115 335.217C671.772 335.322 671.469 335.375 671.206 335.375C670.705 335.375 670.296 335.23 669.98 334.94C669.664 334.651 669.506 334.268 669.506 333.794C669.506 332.582 670.165 331.752 671.482 331.304C671.192 330.961 670.665 330.79 669.901 330.79C669.559 330.79 669.308 330.817 669.15 330.869C668.149 331.291 667.411 332.16 666.937 333.478C665.356 339.301 664.565 342.701 664.565 343.676C664.565 344.413 664.776 344.94 665.198 345.257C665.619 345.573 666.08 345.731 666.581 345.731C667.556 345.731 668.518 345.296 669.466 344.427C670.415 343.557 671.061 342.49 671.403 341.225C671.482 340.961 671.561 340.817 671.64 340.79C671.719 340.764 671.93 340.737 672.273 340.711H672.431C672.826 340.711 673.024 340.817 673.024 341.027C673.024 341.054 672.997 341.199 672.945 341.462C672.523 342.964 671.706 344.295 670.494 345.454C669.282 346.614 667.872 347.193 666.265 347.193C664.42 347.193 663.024 346.363 662.075 344.703C660.995 346.337 659.756 347.154 658.36 347.154H658.123C656.831 347.154 655.909 346.811 655.356 346.126C654.802 345.441 654.513 344.716 654.486 343.952C654.486 343.109 654.736 342.424 655.237 341.897C655.738 341.37 656.331 341.106 657.016 341.106C658.149 341.106 658.715 341.66 658.715 342.766C658.715 343.293 658.557 343.755 658.241 344.15C657.925 344.545 657.622 344.809 657.332 344.94C657.042 345.072 656.871 345.138 656.818 345.138L656.7 345.178C656.7 345.204 656.779 345.257 656.937 345.336C657.095 345.415 657.306 345.507 657.569 345.612C657.833 345.718 658.083 345.757 658.32 345.731C659.269 345.731 660.086 345.138 660.771 343.952C661.008 343.531 661.311 342.635 661.68 341.265C662.049 339.894 662.418 338.471 662.787 336.996C663.155 335.52 663.366 334.651 663.419 334.387C663.551 333.676 663.617 333.162 663.617 332.846C663.617 332.108 663.419 331.581 663.024 331.265C662.628 330.948 662.18 330.79 661.68 330.79C660.626 330.79 659.638 331.212 658.715 332.055C657.793 332.898 657.148 333.979 656.779 335.296C656.726 335.533 656.66 335.665 656.581 335.691C656.502 335.718 656.291 335.744 655.949 335.77H655.395C655.237 335.612 655.158 335.467 655.158 335.336Z" fill="white"/>
</g>
<g id="Group_24">
<path id="Vector_20" d="M688.905 333.043C688.905 332.701 689.09 332.437 689.459 332.253H714.636C715.032 332.463 715.229 332.727 715.229 333.043C715.229 333.333 715.045 333.583 714.676 333.794L702.107 333.834H689.538C689.116 333.702 688.905 333.438 688.905 333.043ZM688.905 340.711C688.905 340.316 689.116 340.052 689.538 339.921H714.676C715.045 340.184 715.229 340.448 715.229 340.711C715.229 341.054 715.032 341.317 714.636 341.502H689.459C689.09 341.317 688.905 341.054 688.905 340.711Z" fill="white"/>
</g>
<g id="Group_25">
<path id="Vector_21" d="M730.083 334.388C730.083 330.092 731.15 326.693 733.285 324.19C735.419 321.687 737.79 320.435 740.399 320.435C742.217 320.435 743.522 320.909 744.312 321.858C745.103 322.807 745.498 323.861 745.498 325.02C745.498 325.679 745.314 326.206 744.945 326.601C744.576 326.996 744.062 327.194 743.403 327.194C742.797 327.194 742.296 327.009 741.901 326.641C741.506 326.272 741.308 325.758 741.308 325.099C741.308 323.94 741.928 323.241 743.166 323.004C742.586 322.424 741.769 322.095 740.715 322.016C738.845 322.016 737.303 322.807 736.091 324.388C734.852 326.127 734.233 328.788 734.233 332.372L734.273 332.53C734.404 332.372 734.51 332.2 734.589 332.016C735.669 330.435 737.079 329.644 738.818 329.644H738.976C740.188 329.644 741.256 329.895 742.178 330.395C742.81 330.764 743.443 331.291 744.075 331.976C744.707 332.662 745.221 333.413 745.617 334.229C746.17 335.521 746.447 336.93 746.447 338.459V339.17C746.447 339.776 746.381 340.343 746.249 340.87C745.959 342.424 745.116 343.94 743.719 345.415C742.323 346.891 740.557 347.629 738.423 347.629C737.685 347.629 736.974 347.523 736.289 347.312C735.603 347.102 734.866 346.706 734.075 346.127C733.285 345.547 732.613 344.77 732.059 343.795C731.506 342.82 731.032 341.542 730.636 339.961C730.241 338.38 730.057 336.522 730.083 334.388ZM738.581 331.067C737.79 331.067 737.105 331.291 736.526 331.739C735.946 332.187 735.498 332.78 735.182 333.518C734.866 334.256 734.642 335.007 734.51 335.771C734.378 336.535 734.299 337.352 734.273 338.222C734.273 340.409 734.431 341.976 734.747 342.925C735.063 343.874 735.564 344.638 736.249 345.218C736.881 345.692 737.58 345.929 738.344 345.929C739.688 345.929 740.715 345.428 741.427 344.427C741.769 343.953 742.007 343.36 742.138 342.648C742.27 341.937 742.336 340.554 742.336 338.498C742.336 336.39 742.27 334.98 742.138 334.269C742.007 333.558 741.769 332.965 741.427 332.49C740.715 331.542 739.767 331.067 738.581 331.067Z" fill="white"/>
</g>
<g id="Group_26">
<path id="Vector_22" d="M781.87 345.613C781.87 346.14 781.593 346.403 781.04 346.403C780.908 346.403 780.618 346.192 780.17 345.771C779.722 345.349 778.484 344.124 776.455 342.095L772.344 337.984L768.194 342.134C765.401 344.875 763.964 346.271 763.885 346.324C763.78 346.377 763.688 346.403 763.609 346.403C763.398 346.403 763.213 346.324 763.055 346.166C762.897 346.008 762.805 345.823 762.779 345.613C762.779 345.428 762.963 345.138 763.332 344.743C763.701 344.348 764.939 343.096 767.047 340.988L771.158 336.877L767.047 332.767C764.913 330.632 763.675 329.381 763.332 329.012C762.99 328.643 762.805 328.353 762.779 328.142C762.779 327.905 762.858 327.721 763.016 327.589C763.174 327.457 763.372 327.391 763.609 327.391C763.741 327.391 763.833 327.404 763.885 327.431C763.964 327.483 765.401 328.88 768.194 331.62L772.344 335.771L776.455 331.66C778.484 329.631 779.722 328.406 780.17 327.984C780.618 327.562 780.908 327.352 781.04 327.352C781.593 327.352 781.87 327.615 781.87 328.142C781.87 328.327 781.738 328.564 781.474 328.854C781.211 329.144 779.92 330.435 777.601 332.727L773.49 336.877L777.601 341.028C779.814 343.241 781.079 344.519 781.395 344.862C781.712 345.204 781.87 345.454 781.87 345.613Z" fill="white"/>
</g>
<g id="Group_27">
<path id="Vector_23" d="M814.763 346.759C814.288 346.68 812.589 346.64 809.664 346.64C806.607 346.64 804.842 346.68 804.368 346.759H804.012V344.941H805.237C805.764 344.941 806.12 344.941 806.304 344.941C806.489 344.941 806.713 344.914 806.976 344.862C807.24 344.809 807.424 344.743 807.53 344.664C807.635 344.585 807.727 344.479 807.806 344.348C807.833 344.295 807.846 343.584 807.846 342.213V340.237H797.609V338.419L803.577 329.288C807.609 323.175 809.651 320.105 809.704 320.079C809.756 320.026 810.033 320 810.534 320H811.245L811.482 320.237V338.419H815.119V340.237H811.482V342.253C811.482 343.333 811.482 343.966 811.482 344.15C811.482 344.335 811.561 344.493 811.719 344.624C811.93 344.809 812.681 344.914 813.972 344.941H815.119V346.759H814.763ZM808.083 338.419V325.217L799.427 338.379L803.735 338.419H808.083Z" fill="white"/>
</g>
<path id="Arrow 19 (Stroke)" fill-rule="evenodd" clip-rule="evenodd" d="M606.252 315.31L619.359 318.544C620.164 318.742 620.655 319.555 620.456 320.359L617.222 333.466C617.024 334.271 616.211 334.762 615.406 334.563C614.602 334.365 614.111 333.552 614.31 332.748L616.676 323.157L571.776 350.284L570.224 347.716L615.125 320.589L605.534 318.222C604.729 318.024 604.238 317.211 604.437 316.407C604.635 315.602 605.448 315.111 606.252 315.31Z" fill="#FD0C0C"/>
<path id="Arrow 20 (Stroke)" fill-rule="evenodd" clip-rule="evenodd" d="M821.252 317.31L834.359 320.544C835.164 320.742 835.655 321.555 835.456 322.359L832.222 335.466C832.024 336.271 831.211 336.762 830.406 336.563C829.602 336.365 829.111 335.552 829.31 334.748L831.676 325.157L786.776 352.284L785.224 349.716L830.125 322.589L820.534 320.222C819.729 320.024 819.238 319.211 819.437 318.407C819.635 317.602 820.448 317.111 821.252 317.31Z" fill="#FD0C0C"/>
</g>
<g id="Group 39">
<g id="Group_28">
<path id="Vector_24" d="M598.138 282.478L597.625 282.676C597.256 282.808 596.729 282.94 596.043 283.071C595.358 283.203 594.594 283.295 593.751 283.348H593V281.53H593.751C594.989 281.477 596.136 281.279 597.19 280.937C598.244 280.594 598.982 280.278 599.403 279.988C599.825 279.698 600.194 279.409 600.51 279.119C600.563 279.04 600.721 279 600.984 279C601.221 279 601.445 279.079 601.656 279.237V291.055L601.696 302.913C601.88 303.098 602.038 303.216 602.17 303.269C602.302 303.322 602.618 303.374 603.119 303.427C603.619 303.48 604.436 303.506 605.569 303.506H606.597V305.324H606.162C605.609 305.245 603.514 305.206 599.877 305.206C596.294 305.206 594.225 305.245 593.672 305.324H593.198V303.506H594.225C594.805 303.506 595.306 303.506 595.727 303.506C596.149 303.506 596.478 303.493 596.715 303.467C596.953 303.44 597.163 303.401 597.348 303.348C597.532 303.295 597.638 303.269 597.664 303.269C597.69 303.269 597.769 303.203 597.901 303.071C598.033 302.94 598.112 302.887 598.138 302.913V282.478Z" fill="white"/>
</g>
<g id="Group_29">
<path id="Vector_25" d="M807.332 288.368C806.621 288.368 806.054 288.131 805.632 287.656C805.211 287.182 805 286.602 805 285.917C805 284.046 805.698 282.426 807.095 281.055C808.491 279.685 810.231 279 812.312 279C814.71 279 816.713 279.738 818.32 281.214C819.928 282.689 820.744 284.6 820.771 286.945C820.771 288.078 820.507 289.158 819.98 290.186C819.453 291.214 818.821 292.109 818.083 292.874C817.345 293.638 816.291 294.613 814.921 295.799C813.972 296.615 812.655 297.828 810.968 299.435L808.636 301.648L811.64 301.688C815.777 301.688 817.978 301.622 818.241 301.49C818.426 301.438 818.742 300.265 819.19 297.972V297.854H820.771V297.972C820.744 298.051 820.573 299.25 820.257 301.569C819.941 303.888 819.743 305.1 819.664 305.206V305.324H805V304.573V304.099C805 303.914 805.079 303.717 805.237 303.506C805.395 303.295 805.791 302.834 806.423 302.123C807.187 301.279 807.846 300.542 808.399 299.909C808.636 299.646 809.084 299.158 809.743 298.447C810.402 297.735 810.85 297.248 811.087 296.984C811.324 296.721 811.706 296.286 812.233 295.68C812.76 295.074 813.129 294.626 813.34 294.336C813.551 294.046 813.854 293.651 814.249 293.15C814.644 292.65 814.921 292.228 815.079 291.885C815.237 291.543 815.435 291.161 815.672 290.739C815.909 290.318 816.08 289.896 816.186 289.474C816.291 289.053 816.383 288.658 816.462 288.289C816.542 287.92 816.581 287.485 816.581 286.984C816.581 285.324 816.133 283.888 815.237 282.676C814.341 281.464 813.063 280.858 811.403 280.858C810.534 280.858 809.769 281.082 809.111 281.53C808.452 281.978 807.991 282.412 807.727 282.834C807.464 283.256 807.332 283.506 807.332 283.585C807.332 283.611 807.398 283.625 807.53 283.625C808.004 283.625 808.491 283.809 808.992 284.178C809.493 284.547 809.743 285.153 809.743 285.996C809.743 286.655 809.532 287.208 809.111 287.656C808.689 288.104 808.096 288.341 807.332 288.368Z" fill="white"/>
</g>
</g>
<g id="Group 38">
<g id="Group_30">
<path id="Vector_26" d="M551.842 386.079C551.842 385.394 552.079 384.827 552.553 384.379C553.028 383.931 553.594 383.707 554.253 383.707C554.885 383.707 555.426 383.931 555.874 384.379C556.321 384.827 556.559 385.394 556.585 386.079C556.611 386.764 556.387 387.33 555.913 387.778C555.439 388.226 554.872 388.45 554.213 388.45C553.528 388.45 552.962 388.226 552.514 387.778C552.066 387.33 551.842 386.764 551.842 386.079ZM544.372 400.822C545.057 400.822 545.61 401.046 546.032 401.494C546.453 401.942 546.677 402.508 546.704 403.193C546.704 403.826 546.493 404.379 546.071 404.853C545.65 405.328 545.07 405.565 544.332 405.565C543.647 405.565 543.094 405.341 542.672 404.893C542.25 404.445 542.026 403.879 542 403.193C542 402.508 542.224 401.942 542.672 401.494C543.12 401.046 543.686 400.822 544.372 400.822ZM561.763 403.193C561.763 402.508 561.987 401.942 562.435 401.494C562.883 401.046 563.449 400.822 564.134 400.822C564.767 400.822 565.307 401.046 565.755 401.494C566.203 401.942 566.44 402.508 566.466 403.193C566.466 403.799 566.256 404.34 565.834 404.814C565.412 405.288 564.833 405.539 564.095 405.565C563.41 405.565 562.856 405.341 562.435 404.893C562.013 404.445 561.789 403.879 561.763 403.193Z" fill="white"/>
</g>
<g id="Group_31">
<path id="Vector_27" d="M591.427 390.901C591.611 389.794 592.323 388.516 593.561 387.067C594.8 385.618 596.328 384.88 598.146 384.853C599.068 384.853 599.912 385.091 600.676 385.565C601.44 386.039 602.007 386.632 602.375 387.344C603.482 385.683 604.813 384.853 606.368 384.853C607.342 384.853 608.186 385.143 608.897 385.723C609.609 386.303 609.978 387.08 610.004 388.055C610.004 388.819 609.819 389.438 609.451 389.913C609.082 390.387 608.726 390.677 608.383 390.782C608.041 390.888 607.738 390.94 607.474 390.94C606.974 390.94 606.565 390.795 606.249 390.506C605.933 390.216 605.775 389.834 605.775 389.359C605.775 388.147 606.433 387.317 607.751 386.869C607.461 386.527 606.934 386.355 606.17 386.355C605.827 386.355 605.577 386.382 605.419 386.434C604.418 386.856 603.68 387.726 603.205 389.043C601.624 394.867 600.834 398.266 600.834 399.241C600.834 399.979 601.045 400.506 601.466 400.822C601.888 401.138 602.349 401.296 602.85 401.296C603.825 401.296 604.787 400.861 605.735 399.992C606.684 399.122 607.329 398.055 607.672 396.79C607.751 396.527 607.83 396.382 607.909 396.355C607.988 396.329 608.199 396.303 608.541 396.276H608.7C609.095 396.276 609.292 396.382 609.292 396.593C609.292 396.619 609.266 396.764 609.213 397.027C608.792 398.529 607.975 399.86 606.763 401.019C605.551 402.179 604.141 402.759 602.534 402.759C600.689 402.759 599.292 401.929 598.344 400.268C597.263 401.902 596.025 402.719 594.628 402.719H594.391C593.1 402.719 592.178 402.376 591.624 401.691C591.071 401.006 590.781 400.282 590.755 399.517C590.755 398.674 591.005 397.989 591.506 397.462C592.007 396.935 592.599 396.672 593.285 396.672C594.418 396.672 594.984 397.225 594.984 398.332C594.984 398.859 594.826 399.32 594.51 399.715C594.194 400.11 593.891 400.374 593.601 400.506C593.311 400.637 593.14 400.703 593.087 400.703L592.968 400.743C592.968 400.769 593.047 400.822 593.205 400.901C593.364 400.98 593.574 401.072 593.838 401.178C594.101 401.283 594.352 401.322 594.589 401.296C595.537 401.296 596.354 400.703 597.039 399.517C597.277 399.096 597.58 398.2 597.949 396.83C598.317 395.459 598.686 394.037 599.055 392.561C599.424 391.085 599.635 390.216 599.688 389.952C599.819 389.241 599.885 388.727 599.885 388.411C599.885 387.673 599.688 387.146 599.292 386.83C598.897 386.513 598.449 386.355 597.949 386.355C596.895 386.355 595.906 386.777 594.984 387.62C594.062 388.463 593.416 389.544 593.047 390.861C592.995 391.098 592.929 391.23 592.85 391.257C592.771 391.283 592.56 391.309 592.217 391.336H591.664C591.506 391.178 591.427 391.033 591.427 390.901Z" fill="white"/>
</g>
<g id="Group_32">
<path id="Vector_28" d="M625.174 388.608C625.174 388.266 625.358 388.002 625.727 387.818H650.905C651.3 388.029 651.498 388.292 651.498 388.608C651.498 388.898 651.314 389.149 650.945 389.359L638.376 389.399H625.806C625.385 389.267 625.174 389.004 625.174 388.608ZM625.174 396.276C625.174 395.881 625.385 395.618 625.806 395.486H650.945C651.314 395.749 651.498 396.013 651.498 396.276C651.498 396.619 651.3 396.882 650.905 397.067H625.727C625.358 396.882 625.174 396.619 625.174 396.276Z" fill="white"/>
</g>
<g id="Group_33">
<path id="Vector_29" d="M666.352 389.953C666.352 385.658 667.419 382.258 669.553 379.755C671.688 377.252 674.059 376 676.668 376C678.486 376 679.791 376.474 680.581 377.423C681.372 378.372 681.767 379.426 681.767 380.585C681.767 381.244 681.582 381.771 681.213 382.166C680.845 382.561 680.331 382.759 679.672 382.759C679.066 382.759 678.565 382.575 678.17 382.206C677.775 381.837 677.577 381.323 677.577 380.664C677.577 379.505 678.196 378.806 679.435 378.569C678.855 377.99 678.038 377.66 676.984 377.581C675.113 377.581 673.572 378.372 672.36 379.953C671.121 381.692 670.502 384.353 670.502 387.937L670.542 388.095C670.673 387.937 670.779 387.766 670.858 387.581C671.938 386 673.348 385.21 675.087 385.21H675.245C676.457 385.21 677.524 385.46 678.447 385.961C679.079 386.33 679.711 386.857 680.344 387.542C680.976 388.227 681.49 388.978 681.885 389.795C682.439 391.086 682.715 392.496 682.715 394.024V394.735C682.715 395.341 682.65 395.908 682.518 396.435C682.228 397.99 681.385 399.505 679.988 400.98C678.592 402.456 676.826 403.194 674.692 403.194C673.954 403.194 673.242 403.088 672.557 402.878C671.872 402.667 671.134 402.272 670.344 401.692C669.553 401.112 668.881 400.335 668.328 399.36C667.775 398.385 667.3 397.107 666.905 395.526C666.51 393.945 666.325 392.087 666.352 389.953ZM674.85 386.633C674.059 386.633 673.374 386.857 672.794 387.305C672.215 387.752 671.767 388.345 671.451 389.083C671.134 389.821 670.91 390.572 670.779 391.336C670.647 392.1 670.568 392.917 670.542 393.787C670.542 395.974 670.7 397.542 671.016 398.49C671.332 399.439 671.833 400.203 672.518 400.783C673.15 401.257 673.849 401.494 674.613 401.494C675.957 401.494 676.984 400.994 677.696 399.992C678.038 399.518 678.275 398.925 678.407 398.214C678.539 397.502 678.605 396.119 678.605 394.063C678.605 391.955 678.539 390.546 678.407 389.834C678.275 389.123 678.038 388.53 677.696 388.056C676.984 387.107 676.036 386.633 674.85 386.633Z" fill="white"/>
</g>
<g id="Group_34">
<path id="Vector_30" d="M718.138 401.178C718.138 401.705 717.862 401.968 717.308 401.968C717.177 401.968 716.887 401.757 716.439 401.336C715.991 400.914 714.752 399.689 712.723 397.66L708.613 393.549L704.462 397.699C701.669 400.44 700.233 401.837 700.154 401.889C700.049 401.942 699.957 401.968 699.877 401.968C699.667 401.968 699.482 401.889 699.324 401.731C699.166 401.573 699.074 401.389 699.047 401.178C699.047 400.993 699.232 400.703 699.601 400.308C699.97 399.913 701.208 398.661 703.316 396.553L707.427 392.443L703.316 388.332C701.182 386.198 699.943 384.946 699.601 384.577C699.258 384.208 699.074 383.918 699.047 383.707C699.047 383.47 699.126 383.286 699.285 383.154C699.443 383.022 699.64 382.956 699.877 382.956C700.009 382.956 700.101 382.97 700.154 382.996C700.233 383.049 701.669 384.445 704.462 387.186L708.613 391.336L712.723 387.225C714.752 385.196 715.991 383.971 716.439 383.549C716.887 383.128 717.177 382.917 717.308 382.917C717.862 382.917 718.138 383.18 718.138 383.707C718.138 383.892 718.007 384.129 717.743 384.419C717.48 384.709 716.188 386 713.87 388.292L709.759 392.443L713.87 396.593C716.083 398.806 717.348 400.084 717.664 400.427C717.98 400.769 718.138 401.02 718.138 401.178Z" fill="white"/>
</g>
<g id="Group_35">
<path id="Vector_31" d="M737.079 385.367C736.368 385.367 735.801 385.13 735.379 384.656C734.958 384.182 734.747 383.602 734.747 382.917C734.747 381.046 735.445 379.425 736.842 378.055C738.239 376.685 739.978 376 742.059 376C744.457 376 746.46 376.738 748.067 378.213C749.675 379.689 750.491 381.599 750.518 383.945C750.518 385.078 750.254 386.158 749.727 387.186C749.2 388.213 748.568 389.109 747.83 389.873C747.092 390.638 746.038 391.613 744.668 392.798C743.719 393.615 742.402 394.827 740.715 396.435L738.383 398.648L741.387 398.688C745.524 398.688 747.725 398.622 747.988 398.49C748.173 398.437 748.489 397.265 748.937 394.972V394.854H750.518V394.972C750.491 395.051 750.32 396.25 750.004 398.569C749.688 400.888 749.49 402.1 749.411 402.205V402.324H734.747V401.573V401.099C734.747 400.914 734.826 400.717 734.984 400.506C735.142 400.295 735.538 399.834 736.17 399.122C736.934 398.279 737.593 397.541 738.146 396.909C738.383 396.645 738.831 396.158 739.49 395.447C740.149 394.735 740.597 394.248 740.834 393.984C741.071 393.721 741.453 393.286 741.98 392.68C742.507 392.074 742.876 391.626 743.087 391.336C743.298 391.046 743.601 390.651 743.996 390.15C744.391 389.649 744.668 389.228 744.826 388.885C744.984 388.543 745.182 388.161 745.419 387.739C745.656 387.317 745.827 386.896 745.933 386.474C746.038 386.053 746.13 385.657 746.21 385.288C746.289 384.919 746.328 384.485 746.328 383.984C746.328 382.324 745.88 380.888 744.984 379.676C744.088 378.464 742.81 377.858 741.15 377.858C740.281 377.858 739.517 378.082 738.858 378.53C738.199 378.977 737.738 379.412 737.474 379.834C737.211 380.255 737.079 380.506 737.079 380.585C737.079 380.611 737.145 380.624 737.277 380.624C737.751 380.624 738.239 380.809 738.739 381.178C739.24 381.547 739.49 382.153 739.49 382.996C739.49 383.655 739.279 384.208 738.858 384.656C738.436 385.104 737.843 385.341 737.079 385.367Z" fill="white"/>
</g>
<g id="Group_36">
<path id="Vector_32" d="M765.727 388.608C765.727 388.266 765.912 388.002 766.281 387.818H791.459C791.854 388.029 792.051 388.292 792.051 388.608C792.051 388.898 791.867 389.149 791.498 389.359L778.929 389.399H766.36C765.938 389.267 765.727 389.004 765.727 388.608ZM765.727 396.276C765.727 395.881 765.938 395.618 766.36 395.486H791.498C791.867 395.749 792.051 396.013 792.051 396.276C792.051 396.619 791.854 396.882 791.459 397.067H766.281C765.912 396.882 765.727 396.619 765.727 396.276Z" fill="white"/>
</g>
<g id="Group_37">
<path id="Vector_33" d="M813.664 379.478L813.15 379.676C812.781 379.808 812.254 379.939 811.569 380.071C810.884 380.203 810.12 380.295 809.277 380.348H808.526V378.53H809.277C810.515 378.477 811.661 378.279 812.715 377.937C813.769 377.594 814.507 377.278 814.929 376.988C815.35 376.698 815.719 376.408 816.036 376.118C816.088 376.039 816.246 376 816.51 376C816.747 376 816.971 376.079 817.182 376.237V388.055L817.221 399.913C817.406 400.097 817.564 400.216 817.696 400.269C817.827 400.321 818.144 400.374 818.644 400.427C819.145 400.479 819.962 400.506 821.095 400.506H822.123V402.324H821.688C821.134 402.245 819.04 402.205 815.403 402.205C811.82 402.205 809.751 402.245 809.198 402.324H808.723V400.506H809.751C810.331 400.506 810.831 400.506 811.253 400.506C811.675 400.506 812.004 400.493 812.241 400.466C812.478 400.44 812.689 400.4 812.874 400.348C813.058 400.295 813.163 400.269 813.19 400.269C813.216 400.269 813.295 400.203 813.427 400.071C813.559 399.939 813.638 399.887 813.664 399.913V379.478Z" fill="white"/>
<path id="Vector_34" d="M829.316 385.367C828.605 385.367 828.038 385.13 827.617 384.656C827.195 384.182 826.984 383.602 826.984 382.917C826.984 381.046 827.682 379.425 829.079 378.055C830.476 376.685 832.215 376 834.296 376C836.694 376 838.697 376.738 840.304 378.213C841.912 379.689 842.729 381.599 842.755 383.945C842.755 385.078 842.491 386.158 841.964 387.186C841.437 388.213 840.805 389.109 840.067 389.873C839.329 390.638 838.275 391.613 836.905 392.798C835.956 393.615 834.639 394.827 832.953 396.435L830.62 398.648L833.624 398.688C837.761 398.688 839.962 398.622 840.225 398.49C840.41 398.437 840.726 397.265 841.174 394.972V394.854H842.755V394.972C842.729 395.051 842.557 396.25 842.241 398.569C841.925 400.888 841.727 402.1 841.648 402.205V402.324H826.984V401.573V401.099C826.984 400.914 827.063 400.717 827.221 400.506C827.379 400.295 827.775 399.834 828.407 399.122C829.171 398.279 829.83 397.541 830.383 396.909C830.62 396.645 831.068 396.158 831.727 395.447C832.386 394.735 832.834 394.248 833.071 393.984C833.308 393.721 833.69 393.286 834.217 392.68C834.744 392.074 835.113 391.626 835.324 391.336C835.535 391.046 835.838 390.651 836.233 390.15C836.628 389.649 836.905 389.228 837.063 388.885C837.221 388.543 837.419 388.161 837.656 387.739C837.893 387.317 838.065 386.896 838.17 386.474C838.275 386.053 838.368 385.657 838.447 385.288C838.526 384.919 838.565 384.485 838.565 383.984C838.565 382.324 838.117 380.888 837.221 379.676C836.325 378.464 835.047 377.858 833.387 377.858C832.518 377.858 831.754 378.082 831.095 378.53C830.436 378.977 829.975 379.412 829.711 379.834C829.448 380.255 829.316 380.506 829.316 380.585C829.316 380.611 829.382 380.624 829.514 380.624C829.988 380.624 830.476 380.809 830.976 381.178C831.477 381.547 831.727 382.153 831.727 382.996C831.727 383.655 831.516 384.208 831.095 384.656C830.673 385.104 830.08 385.341 829.316 385.367Z" fill="white"/>
</g>
</g>
</g>
<g id="Group_38">
<path id="Vector_35" d="M140.138 204.478L139.625 204.676C139.256 204.808 138.729 204.939 138.043 205.071C137.358 205.203 136.594 205.295 135.751 205.348H135V203.53H135.751C136.989 203.477 138.136 203.279 139.19 202.937C140.244 202.594 140.982 202.278 141.403 201.988C141.825 201.698 142.194 201.408 142.51 201.118C142.563 201.039 142.721 201 142.984 201C143.221 201 143.445 201.079 143.656 201.237V213.055L143.696 224.913C143.88 225.097 144.038 225.216 144.17 225.269C144.302 225.321 144.618 225.374 145.119 225.427C145.619 225.479 146.436 225.506 147.569 225.506H148.597V227.324H148.162C147.609 227.245 145.514 227.205 141.877 227.205C138.294 227.205 136.225 227.245 135.672 227.324H135.198V225.506H136.225C136.805 225.506 137.306 225.506 137.727 225.506C138.149 225.506 138.478 225.493 138.715 225.466C138.953 225.44 139.163 225.4 139.348 225.348C139.532 225.295 139.638 225.269 139.664 225.269C139.69 225.269 139.769 225.203 139.901 225.071C140.033 224.939 140.112 224.887 140.138 224.913V204.478Z" fill="white"/>
<path id="Vector_36" d="M156.502 209.024C155.791 209.024 155.237 208.8 154.842 208.352C154.447 207.904 154.236 207.324 154.21 206.613C154.21 205.164 154.842 203.872 156.107 202.739C157.372 201.606 158.9 201.04 160.692 201.04C161.614 201.04 162.194 201.053 162.431 201.079C164.381 201.395 165.87 202.094 166.897 203.174C167.925 204.254 168.452 205.427 168.478 206.692C168.478 208.062 168.03 209.393 167.134 210.684C166.239 211.975 165 212.911 163.419 213.49L163.3 213.569C163.3 213.596 163.419 213.635 163.656 213.688C163.893 213.741 164.275 213.859 164.802 214.044C165.329 214.228 165.83 214.505 166.304 214.874C168.465 216.27 169.546 218.115 169.546 220.407C169.546 222.489 168.729 224.307 167.095 225.862C165.461 227.417 163.393 228.194 160.889 228.194C158.781 228.194 156.963 227.627 155.435 226.494C153.907 225.361 153.142 223.925 153.142 222.186C153.142 221.448 153.38 220.855 153.854 220.407C154.328 219.959 154.921 219.722 155.632 219.696C156.37 219.696 156.976 219.933 157.451 220.407C157.925 220.882 158.162 221.474 158.162 222.186C158.162 222.476 158.123 222.739 158.044 222.976C157.964 223.214 157.872 223.424 157.767 223.609C157.661 223.793 157.517 223.951 157.332 224.083C157.148 224.215 156.99 224.32 156.858 224.399C156.726 224.478 156.594 224.531 156.463 224.557C156.331 224.584 156.225 224.623 156.146 224.676L155.988 224.716C157.332 225.901 158.966 226.494 160.889 226.494C162.339 226.494 163.432 225.796 164.17 224.399C164.618 223.53 164.842 222.199 164.842 220.407V219.617C164.842 217.113 163.999 215.44 162.312 214.597C161.917 214.439 161.113 214.347 159.901 214.32L158.241 214.281L158.123 214.202C158.07 214.123 158.044 213.912 158.044 213.569C158.044 213.095 158.149 212.858 158.36 212.858C159.098 212.858 159.862 212.792 160.652 212.66C161.548 212.528 162.365 211.975 163.103 211C163.841 210.025 164.21 208.55 164.21 206.573V206.257C164.21 204.755 163.748 203.714 162.826 203.135C162.246 202.766 161.627 202.581 160.968 202.581C160.125 202.581 159.348 202.726 158.636 203.016C157.925 203.306 157.424 203.609 157.134 203.925C156.845 204.241 156.7 204.399 156.7 204.399H156.818C156.897 204.426 157.003 204.452 157.134 204.478C157.266 204.505 157.398 204.571 157.53 204.676C157.661 204.781 157.82 204.874 158.004 204.953C158.188 205.032 158.32 205.177 158.399 205.388C158.478 205.598 158.584 205.796 158.715 205.98C158.847 206.165 158.887 206.428 158.834 206.771C158.834 207.351 158.65 207.864 158.281 208.312C157.912 208.76 157.319 208.998 156.502 209.024Z" fill="white"/>
</g>
</g>
</g>
</g>
</svg>
