<svg viewBox="0 0 1074 150" fill="none" xmlns="http://www.w3.org/2000/svg"><g id="0121005B1"><g id="title"><g id="N&#195;&#186;mero de Saludos"><path d="M339.227 78H334.703L317.523 51.7031V78H313V43.875H317.523L334.75 70.2891V43.875H339.227V78z" fill="#d00959"/><path d="M362.195 75.4922C360.508 77.4766 358.031 78.4688 354.766 78.4688 352.062 78.4688 350 77.6875 348.578 76.125 347.172 74.5469 346.461 72.2188 346.445 69.1406V52.6406H350.781V69.0234C350.781 72.8672 352.344 74.7891 355.469 74.7891 358.781 74.7891 360.984 73.5547 362.078 71.0859V52.6406H366.414V78h-4.125L362.195 75.4922zM358.68 42h5.25L357.648 48.8906H354.156L358.68 42z" fill="#d00959"/><path d="M377.102 52.6406 377.219 55.4531C379.078 53.2656 381.586 52.1719 384.742 52.1719 388.289 52.1719 390.703 53.5312 391.984 56.25 392.828 55.0312 393.922 54.0469 395.266 53.2969 396.625 52.5469 398.227 52.1719 400.07 52.1719 405.633 52.1719 408.461 55.1172 408.555 61.0078V78H404.219V61.2656C404.219 59.4531 403.805 58.1016 402.977 57.2109 402.148 56.3047 400.758 55.8516 398.805 55.8516 397.195 55.8516 395.859 56.3359 394.797 57.3047 393.734 58.2578 393.117 59.5469 392.945 61.1719V78H388.586V61.3828C388.586 57.6953 386.781 55.8516 383.172 55.8516 380.328 55.8516 378.383 57.0625 377.336 59.4844V78H373V52.6406H377.102z" fill="#d00959"/><path d="M425.641 78.4688C422.203 78.4688 419.406 77.3438 417.25 75.0938 415.094 72.8281 414.016 69.8047 414.016 66.0234V65.2266C414.016 62.7109 414.492 60.4688 415.445 58.5 416.414 56.5156 417.758 54.9688 419.477 53.8594 421.211 52.7344 423.086 52.1719 425.102 52.1719 428.398 52.1719 430.961 53.2578 432.789 55.4297 434.617 57.6016 435.531 60.7109 435.531 64.7578V66.5625H418.352C418.414 69.0625 419.141 71.0859 420.531 72.6328 421.938 74.1641 423.719 74.9297 425.875 74.9297 427.406 74.9297 428.703 74.6172 429.766 73.9922 430.828 73.3672 431.758 72.5391 432.555 71.5078L435.203 73.5703C433.078 76.8359 429.891 78.4688 425.641 78.4688zM425.102 55.7344C423.352 55.7344 421.883 56.375 420.695 57.6562 419.508 58.9219 418.773 60.7031 418.492 63H431.195V62.6719C431.07 60.4688 430.477 58.7656 429.414 57.5625 428.352 56.3438 426.914 55.7344 425.102 55.7344z" fill="#d00959"/><path d="M452.828 56.5312C452.172 56.4219 451.461 56.3672 450.695 56.3672 447.852 56.3672 445.922 57.5781 444.906 60V78H440.57V52.6406H444.789L444.859 55.5703C446.281 53.3047 448.297 52.1719 450.906 52.1719 451.75 52.1719 452.391 52.2812 452.828 52.5V56.5312z" fill="#d00959"/><path d="M455.219 65.0859C455.219 62.6016 455.703 60.3672 456.672 58.3828 457.656 56.3984 459.016 54.8672 460.75 53.7891 462.5 52.7109 464.492 52.1719 466.727 52.1719 470.18 52.1719 472.969 53.3672 475.094 55.7578 477.234 58.1484 478.305 61.3281 478.305 65.2969V65.6016C478.305 68.0703 477.828 70.2891 476.875 72.2578 475.938 74.2109 474.586 75.7344 472.82 76.8281 471.07 77.9219 469.055 78.4688 466.773 78.4688 463.336 78.4688 460.547 77.2734 458.406 74.8828 456.281 72.4922 455.219 69.3281 455.219 65.3906V65.0859zM459.578 65.6016C459.578 68.4141 460.227 70.6719 461.523 72.375 462.836 74.0781 464.586 74.9297 466.773 74.9297 468.977 74.9297 470.727 74.0703 472.023 72.3516 473.32 70.6172 473.969 68.1953 473.969 65.0859 473.969 62.3047 473.305 60.0547 471.977 58.3359 470.664 56.6016 468.914 55.7344 466.727 55.7344 464.586 55.7344 462.859 56.5859 461.547 58.2891 460.234 59.9922 459.578 62.4297 459.578 65.6016z" fill="#d00959"/><path d="M494.594 65.1094C494.594 61.2188 495.516 58.0938 497.359 55.7344 499.203 53.3594 501.617 52.1719 504.602 52.1719 507.57 52.1719 509.922 53.1875 511.656 55.2188V42H515.992V78H512.008L511.797 75.2812C510.062 77.4062 507.648 78.4688 504.555 78.4688 501.617 78.4688 499.219 77.2656 497.359 74.8594 495.516 72.4531 494.594 69.3125 494.594 65.4375V65.1094zM498.93 65.6016C498.93 68.4766 499.523 70.7266 500.711 72.3516 501.898 73.9766 503.539 74.7891 505.633 74.7891 508.383 74.7891 510.391 73.5547 511.656 71.0859V59.4375C510.359 57.0469 508.367 55.8516 505.68 55.8516 503.555 55.8516 501.898 56.6719 500.711 58.3125 499.523 59.9531 498.93 62.3828 498.93 65.6016z" fill="#d00959"/><path d="M533.266 78.4688C529.828 78.4688 527.031 77.3438 524.875 75.0938 522.719 72.8281 521.641 69.8047 521.641 66.0234V65.2266C521.641 62.7109 522.117 60.4688 523.07 58.5 524.039 56.5156 525.383 54.9688 527.102 53.8594 528.836 52.7344 530.711 52.1719 532.727 52.1719 536.023 52.1719 538.586 53.2578 540.414 55.4297 542.242 57.6016 543.156 60.7109 543.156 64.7578V66.5625H525.977C526.039 69.0625 526.766 71.0859 528.156 72.6328 529.562 74.1641 531.344 74.9297 533.5 74.9297 535.031 74.9297 536.328 74.6172 537.391 73.9922 538.453 73.3672 539.383 72.5391 540.18 71.5078L542.828 73.5703C540.703 76.8359 537.516 78.4688 533.266 78.4688zM532.727 55.7344C530.977 55.7344 529.508 56.375 528.32 57.6562 527.133 58.9219 526.398 60.7031 526.117 63H538.82V62.6719C538.695 60.4688 538.102 58.7656 537.039 57.5625 535.977 56.3438 534.539 55.7344 532.727 55.7344z" fill="#d00959"/><path d="M570.836 62.7891C566.977 61.6797 564.164 60.3203 562.398 58.7109c-1.75-1.625-2.625-3.625-2.625-6C559.773 50.0234 560.844 47.8047 562.984 46.0547 565.141 44.2891 567.938 43.4062 571.375 43.4062 573.719 43.4062 575.805 43.8594 577.633 44.7656 579.477 45.6719 580.898 46.9219 581.898 48.5156 582.914 50.1094 583.422 51.8516 583.422 53.7422H578.898C578.898 51.6797 578.242 50.0625 576.93 48.8906 575.617 47.7031 573.766 47.1094 571.375 47.1094 569.156 47.1094 567.422 47.6016 566.172 48.5859 564.938 49.5547 564.32 50.9062 564.32 52.6406 564.32 54.0312 564.906 55.2109 566.078 56.1797 567.266 57.1328 569.273 58.0078 572.102 58.8047 574.945 59.6016 577.164 60.4844 578.758 61.4531 580.367 62.4062 581.555 63.5234 582.32 64.8047 583.102 66.0859 583.492 67.5938 583.492 69.3281 583.492 72.0938 582.414 74.3125 580.258 75.9844 578.102 77.6406 575.219 78.4688 571.609 78.4688 569.266 78.4688 567.078 78.0234 565.047 77.1328 563.016 76.2266 561.445 74.9922 560.336 73.4297 559.242 71.8672 558.695 70.0938 558.695 68.1094H563.219C563.219 70.1719 563.977 71.8047 565.492 73.0078 567.023 74.1953 569.062 74.7891 571.609 74.7891 573.984 74.7891 575.805 74.3047 577.07 73.3359 578.336 72.3672 578.969 71.0469 578.969 69.375 578.969 67.7031 578.383 66.4141 577.211 65.5078 576.039 64.5859 573.914 63.6797 570.836 62.7891z" fill="#d00959"/><path d="M604.258 78C604.008 77.5 603.805 76.6094 603.648 75.3281 601.633 77.4219 599.227 78.4688 596.43 78.4688 593.93 78.4688 591.875 77.7656 590.266 76.3594 588.672 74.9375 587.875 73.1406 587.875 70.9688 587.875 68.3281 588.875 66.2812 590.875 64.8281 592.891 63.3594 595.719 62.625 599.359 62.625H603.578V60.6328C603.578 59.1172 603.125 57.9141 602.219 57.0234 601.312 56.1172 599.977 55.6641 598.211 55.6641 596.664 55.6641 595.367 56.0547 594.32 56.8359 593.273 57.6172 592.75 58.5625 592.75 59.6719H588.391C588.391 58.4062 588.836 57.1875 589.727 56.0156 590.633 54.8281 591.852 53.8906 593.383 53.2031 594.93 52.5156 596.625 52.1719 598.469 52.1719 601.391 52.1719 603.68 52.9062 605.336 54.375 606.992 55.8281 607.852 57.8359 607.914 60.3984V72.0703C607.914 74.3984 608.211 76.25 608.805 77.625V78H604.258zM597.062 74.6953C598.422 74.6953 599.711 74.3438 600.93 73.6406 602.148 72.9375 603.031 72.0234 603.578 70.8984V65.6953H600.18C594.867 65.6953 592.211 67.25 592.211 70.3594 592.211 71.7188 592.664 72.7812 593.57 73.5469 594.477 74.3125 595.641 74.6953 597.062 74.6953z" fill="#d00959"/><path d="M619.422 78H615.086V42H619.422V78z" fill="#d00959"/><path d="M642.039 75.4922C640.352 77.4766 637.875 78.4688 634.609 78.4688 631.906 78.4688 629.844 77.6875 628.422 76.125 627.016 74.5469 626.305 72.2188 626.289 69.1406V52.6406H630.625V69.0234C630.625 72.8672 632.188 74.7891 635.312 74.7891 638.625 74.7891 640.828 73.5547 641.922 71.0859V52.6406H646.258V78h-4.125L642.039 75.4922z" fill="#d00959"/><path d="M651.812 65.1094C651.812 61.2188 652.734 58.0938 654.578 55.7344 656.422 53.3594 658.836 52.1719 661.82 52.1719 664.789 52.1719 667.141 53.1875 668.875 55.2188V42H673.211V78H669.227L669.016 75.2812C667.281 77.4062 664.867 78.4688 661.773 78.4688 658.836 78.4688 656.438 77.2656 654.578 74.8594 652.734 72.4531 651.812 69.3125 651.812 65.4375V65.1094zM656.148 65.6016C656.148 68.4766 656.742 70.7266 657.93 72.3516 659.117 73.9766 660.758 74.7891 662.852 74.7891 665.602 74.7891 667.609 73.5547 668.875 71.0859V59.4375C667.578 57.0469 665.586 55.8516 662.898 55.8516 660.773 55.8516 659.117 56.6719 657.93 58.3125 656.742 59.9531 656.148 62.3828 656.148 65.6016z" fill="#d00959"/><path d="M678.812 65.0859C678.812 62.6016 679.297 60.3672 680.266 58.3828 681.25 56.3984 682.609 54.8672 684.344 53.7891 686.094 52.7109 688.086 52.1719 690.32 52.1719 693.773 52.1719 696.562 53.3672 698.688 55.7578 700.828 58.1484 701.898 61.3281 701.898 65.2969V65.6016C701.898 68.0703 701.422 70.2891 700.469 72.2578 699.531 74.2109 698.18 75.7344 696.414 76.8281 694.664 77.9219 692.648 78.4688 690.367 78.4688 686.93 78.4688 684.141 77.2734 682 74.8828 679.875 72.4922 678.812 69.3281 678.812 65.3906V65.0859zM683.172 65.6016C683.172 68.4141 683.82 70.6719 685.117 72.375 686.43 74.0781 688.18 74.9297 690.367 74.9297 692.57 74.9297 694.32 74.0703 695.617 72.3516 696.914 70.6172 697.562 68.1953 697.562 65.0859 697.562 62.3047 696.898 60.0547 695.57 58.3359 694.258 56.6016 692.508 55.7344 690.32 55.7344 688.18 55.7344 686.453 56.5859 685.141 58.2891 683.828 59.9922 683.172 62.4297 683.172 65.6016z" fill="#d00959"/><path d="M722.102 71.2734C722.102 70.1016 721.656 69.1953 720.766 68.5547 719.891 67.8984 718.352 67.3359 716.148 66.8672 713.961 66.3984 712.219 65.8359 710.922 65.1797 709.641 64.5234 708.688 63.7422 708.062 62.8359 707.453 61.9297 707.148 60.8516 707.148 59.6016 707.148 57.5234 708.023 55.7656 709.773 54.3281 711.539 52.8906 713.789 52.1719 716.523 52.1719 719.398 52.1719 721.727 52.9141 723.508 54.3984 725.305 55.8828 726.203 57.7812 726.203 60.0938H721.844C721.844 58.9062 721.336 57.8828 720.32 57.0234 719.32 56.1641 718.055 55.7344 716.523 55.7344 714.945 55.7344 713.711 56.0781 712.82 56.7656 711.93 57.4531 711.484 58.3516 711.484 59.4609 711.484 60.5078 711.898 61.2969 712.727 61.8281 713.555 62.3594 715.047 62.8672 717.203 63.3516 719.375 63.8359 721.133 64.4141 722.477 65.0859 723.82 65.7578 724.812 66.5703 725.453 67.5234 726.109 68.4609 726.438 69.6094 726.438 70.9688 726.438 73.2344 725.531 75.0547 723.719 76.4297 721.906 77.7891 719.555 78.4688 716.664 78.4688 714.633 78.4688 712.836 78.1094 711.273 77.3906 709.711 76.6719 708.484 75.6719 707.594 74.3906 706.719 73.0938 706.281 71.6953 706.281 70.1953H710.617C710.695 71.6484 711.273 72.8047 712.352 73.6641 713.445 74.5078 714.883 74.9297 716.664 74.9297 718.305 74.9297 719.617 74.6016 720.602 73.9453 721.602 73.2734 722.102 72.3828 722.102 71.2734z" fill="#d00959"/></g><path d="M313 24H754V78.4688C754 88.4099 745.941 96.4688 736 96.4688H295V42C295 32.0589 303.059 24 313 24z" stroke="#d40303" stroke-width="4"/></g></g></svg>