<svg viewBox="0 0 975 441" fill="none" xmlns="http://www.w3.org/2000/svg">
<g id="0121110">
<g id="claves01">
<path id="Rectangle 4" d="M39 251H255.745L289 291L255.745 331H39V251Z" fill="#CD08D1" fill-opacity="0.1"/>
<path id="Rectangle 4 (Stroke)" fill-rule="evenodd" clip-rule="evenodd" d="M254.338 254H42V328H254.338L285.099 291L254.338 254ZM255.745 251H39V331H255.745L289 291L255.745 251Z" fill="#CD08D1"/>
<path id="Rectangle 5" d="M43 361H259.745L293 401L259.745 441H43V361Z" fill="#CD08D1" fill-opacity="0.1"/>
<path id="Rectangle 5 (Stroke)" fill-rule="evenodd" clip-rule="evenodd" d="M258.338 364H46V438H258.338L289.099 401L258.338 364ZM259.745 361H43V441H259.745L293 401L259.745 361Z" fill="#CD08D1"/>
<path id="Rectangle 6" d="M379 248H595.745L629 288L595.745 328H379V248Z" fill="#CD08D1" fill-opacity="0.1"/>
<path id="Rectangle 6 (Stroke)" fill-rule="evenodd" clip-rule="evenodd" d="M594.338 251H382V325H594.338L625.099 288L594.338 251ZM595.745 248H379V328H595.745L629 288L595.745 248Z" fill="#CD08D1"/>
<path id="Rectangle 7" d="M382 358H598.745L632 398L598.745 438H382V358Z" fill="#CD08D1" fill-opacity="0.1"/>
<path id="Rectangle 7 (Stroke)" fill-rule="evenodd" clip-rule="evenodd" d="M597.338 361H385V435H597.338L628.099 398L597.338 361ZM598.745 358H382V438H598.745L632 398L598.745 358Z" fill="#CD08D1"/>
<path id="Rectangle 8" d="M725 307H941.745L975 347L941.745 387H725V307Z" fill="#CD08D1" fill-opacity="0.1"/>
<path id="Rectangle 8 (Stroke)" fill-rule="evenodd" clip-rule="evenodd" d="M940.338 310H728V384H940.338L971.099 347L940.338 310ZM941.745 307H725V387H941.745L975 347L941.745 307Z" fill="#CD08D1"/>
<path id="Ellipse 1" d="M80 291C80 313.091 62.0914 331 40 331C17.9086 331 0 313.091 0 291C0 268.909 17.9086 251 40 251C62.0914 251 80 268.909 80 291Z" fill="#CD08D1"/>
<path id="Ellipse 2" d="M84 401C84 423.091 66.0914 441 44 441C21.9086 441 4 423.091 4 401C4 378.909 21.9086 361 44 361C66.0914 361 84 378.909 84 401Z" fill="#CD08D1"/>
<path id="Ellipse 3" d="M420 288C420 310.091 402.091 328 380 328C357.909 328 340 310.091 340 288C340 265.909 357.909 248 380 248C402.091 248 420 265.909 420 288Z" fill="#CD08D1"/>
<path id="Ellipse 4" d="M423 398C423 420.091 405.091 438 383 438C360.909 438 343 420.091 343 398C343 375.909 360.909 358 383 358C405.091 358 423 375.909 423 398Z" fill="#CD08D1"/>
<path id="Ellipse 5" d="M766 347C766 369.091 748.091 387 726 387C703.909 387 686 369.091 686 347C686 324.909 703.909 307 726 307C748.091 307 766 324.909 766 347Z" fill="#CD08D1"/>
<path id="A" d="M48.0938 301.406H30.4688L26.7812 312H18.5625L35.75 266.5H42.8438L60.0625 312H51.8125L48.0938 301.406ZM32.6875 295.031H45.875L39.2812 276.156L32.6875 295.031Z" fill="white"/>
<path id="B" d="M27.625 417V371.5H43.2188C48.3646 371.5 52.2812 372.531 54.9688 374.594C57.6562 376.656 59 379.729 59 383.812C59 385.896 58.4375 387.771 57.3125 389.438C56.1875 391.104 54.5417 392.396 52.375 393.312C54.8333 393.979 56.7292 395.24 58.0625 397.094C59.4167 398.927 60.0938 401.135 60.0938 403.719C60.0938 407.99 58.7188 411.271 55.9688 413.562C53.2396 415.854 49.3229 417 44.2188 417H27.625ZM35.5312 396.469V410.688H44.3125C46.7917 410.688 48.7292 410.073 50.125 408.844C51.5208 407.615 52.2188 405.906 52.2188 403.719C52.2188 398.99 49.8021 396.573 44.9688 396.469H35.5312ZM35.5312 390.656H43.2812C45.7396 390.656 47.6562 390.104 49.0312 389C50.4271 387.875 51.125 386.292 51.125 384.25C51.125 382 50.4792 380.375 49.1875 379.375C47.9167 378.375 45.9271 377.875 43.2188 377.875H35.5312V390.656Z" fill="white"/>
<path id="C" d="M397.344 295.188C396.885 300.042 395.094 303.833 391.969 306.562C388.844 309.271 384.688 310.625 379.5 310.625C375.875 310.625 372.677 309.771 369.906 308.062C367.156 306.333 365.031 303.885 363.531 300.719C362.031 297.552 361.25 293.875 361.188 289.688V285.438C361.188 281.146 361.948 277.365 363.469 274.094C364.99 270.823 367.167 268.302 370 266.531C372.854 264.76 376.146 263.875 379.875 263.875C384.896 263.875 388.938 265.24 392 267.969C395.062 270.698 396.844 274.552 397.344 279.531H389.469C389.094 276.26 388.135 273.906 386.594 272.469C385.073 271.01 382.833 270.281 379.875 270.281C376.438 270.281 373.792 271.542 371.938 274.062C370.104 276.562 369.167 280.24 369.125 285.094V289.125C369.125 294.042 370 297.792 371.75 300.375C373.521 302.958 376.104 304.25 379.5 304.25C382.604 304.25 384.938 303.552 386.5 302.156C388.062 300.76 389.052 298.438 389.469 295.188H397.344Z" fill="white"/>
<path id="D" d="M365.625 420V374.5H379.062C383.083 374.5 386.646 375.396 389.75 377.188C392.875 378.979 395.292 381.521 397 384.812C398.708 388.104 399.562 391.875 399.562 396.125V398.406C399.562 402.719 398.698 406.51 396.969 409.781C395.26 413.052 392.812 415.573 389.625 417.344C386.458 419.115 382.823 420 378.719 420H365.625ZM373.531 380.875V413.688H378.688C382.833 413.688 386.01 412.396 388.219 409.812C390.448 407.208 391.583 403.479 391.625 398.625V396.094C391.625 391.156 390.552 387.385 388.406 384.781C386.26 382.177 383.146 380.875 379.062 380.875H373.531Z" fill="white"/>
<path id="E" d="M735.219 348.688H716.531V362.688H738.375V369H708.625V323.5H738.156V329.875H716.531V342.438H735.219V348.688Z" fill="white"/>
<g id="13">
<path d="M161.086 314H156.727V285.102L147.984 288.312V284.375L160.406 279.711H161.086V314Z" fill="#CD08D1"/>
<path d="M180.094 294.828H183.352C185.398 294.797 187.008 294.258 188.18 293.211C189.352 292.164 189.938 290.75 189.938 288.969C189.938 284.969 187.945 282.969 183.961 282.969C182.086 282.969 180.586 283.508 179.461 284.586C178.352 285.648 177.797 287.062 177.797 288.828H173.461C173.461 286.125 174.445 283.883 176.414 282.102C178.398 280.305 180.914 279.406 183.961 279.406C187.18 279.406 189.703 280.258 191.531 281.961C193.359 283.664 194.273 286.031 194.273 289.062C194.273 290.547 193.789 291.984 192.82 293.375C191.867 294.766 190.562 295.805 188.906 296.492C190.781 297.086 192.227 298.07 193.242 299.445C194.273 300.82 194.789 302.5 194.789 304.484C194.789 307.547 193.789 309.977 191.789 311.773C189.789 313.57 187.188 314.469 183.984 314.469C180.781 314.469 178.172 313.602 176.156 311.867C174.156 310.133 173.156 307.844 173.156 305H177.516C177.516 306.797 178.102 308.234 179.273 309.312C180.445 310.391 182.016 310.93 183.984 310.93C186.078 310.93 187.68 310.383 188.789 309.289C189.898 308.195 190.453 306.625 190.453 304.578C190.453 302.594 189.844 301.07 188.625 300.008C187.406 298.945 185.648 298.398 183.352 298.367H180.094V294.828Z" fill="#CD08D1"/>
</g>
<g id="12">
<path d="M161.086 424H156.727V395.102L147.984 398.312V394.375L160.406 389.711H161.086V424Z" fill="#CD08D1"/>
<path d="M196.148 424H173.789V420.883L185.602 407.758C187.352 405.773 188.555 404.164 189.211 402.93C189.883 401.68 190.219 400.391 190.219 399.062C190.219 397.281 189.68 395.82 188.602 394.68C187.523 393.539 186.086 392.969 184.289 392.969C182.133 392.969 180.453 393.586 179.25 394.82C178.062 396.039 177.469 397.742 177.469 399.93H173.133C173.133 396.789 174.141 394.25 176.156 392.312C178.188 390.375 180.898 389.406 184.289 389.406C187.461 389.406 189.969 390.242 191.812 391.914C193.656 393.57 194.578 395.781 194.578 398.547C194.578 401.906 192.438 405.906 188.156 410.547L179.016 420.461H196.148V424Z" fill="#CD08D1"/>
</g>
<g id="11">
<path d="M493.086 424H488.727V395.102L479.984 398.312V394.375L492.406 389.711H493.086V424Z" fill="#CD08D1"/>
<path d="M520.039 424H515.68V395.102L506.938 398.312V394.375L519.359 389.711H520.039V424Z" fill="#CD08D1"/>
</g>
<g id="19">
<path d="M845.086 367H840.727V338.102L831.984 341.312V337.375L844.406 332.711H845.086V367Z" fill="#CD08D1"/>
<path d="M876.094 355.539H880.828V359.078H876.094V367H871.734V359.078H856.195V356.523L871.477 332.875H876.094V355.539ZM861.117 355.539H871.734V338.805L871.219 339.742L861.117 355.539Z" fill="#CD08D1"/>
</g>
<g id="17">
<path d="M493.086 310H488.727V281.102L479.984 284.312V280.375L492.406 275.711H493.086V310Z" fill="#CD08D1"/>
<path d="M507.781 292.891L509.516 275.875H527V279.883H513.195L512.164 289.188C513.836 288.203 515.734 287.711 517.859 287.711C520.969 287.711 523.438 288.742 525.266 290.805C527.094 292.852 528.008 295.625 528.008 299.125C528.008 302.641 527.055 305.414 525.148 307.445C523.258 309.461 520.609 310.469 517.203 310.469C514.188 310.469 511.727 309.633 509.82 307.961C507.914 306.289 506.828 303.977 506.562 301.023H510.664C510.93 302.977 511.625 304.453 512.75 305.453C513.875 306.438 515.359 306.93 517.203 306.93C519.219 306.93 520.797 306.242 521.938 304.867C523.094 303.492 523.672 301.594 523.672 299.172C523.672 296.891 523.047 295.062 521.797 293.688C520.562 292.297 518.914 291.602 516.852 291.602C514.961 291.602 513.477 292.016 512.398 292.844L511.25 293.781L507.781 292.891Z" fill="#CD08D1"/>
</g>
<g id="flecha">
<path id="Rectangle 2" d="M390.2 249.008L405.482 257.133L363.5 336.089L348.219 327.963L390.2 249.008Z" fill="#1043F5"/>
<path id="Rectangle 1" d="M332 261.904L422 212V269.692L377 252.096L332 261.904Z" fill="#1043F5"/>
<path id="Rectangle 3" d="M336.039 331.21L351.666 304.143L368.936 303.565L353.309 330.632L336.039 331.21Z" fill="#1043F5"/>
<path id="Rectangle 4_2" d="M362.089 345.845L377.717 318.778L368.926 303.154L353.299 330.221L362.089 345.845Z" fill="#1043F5"/>
</g>
</g>
<g id="enun01">
<path id="Rectangle 1_2" d="M68 0H880.539L949 101.518L880.539 206H68V0Z" fill="#02071A"/>
<path id="Rectangle 1 (Stroke)" fill-rule="evenodd" clip-rule="evenodd" d="M878.412 4H72V202H878.378L944.197 101.55L878.412 4ZM880.539 0H68V206H880.539L949 101.518L880.539 0Z" fill="#CD08D1"/>
<path id="Ellipse 1_2" d="M125 103C125 130.614 102.614 153 75 153C47.3858 153 25 130.614 25 103C25 75.3858 47.3858 53 75 53C102.614 53 125 75.3858 125 103Z" fill="#CD08D1"/>
<path id="Ellipse 1 (Stroke)" fill-rule="evenodd" clip-rule="evenodd" d="M75 152C102.062 152 124 130.062 124 103C124 75.938 102.062 54 75 54C47.938 54 26 75.938 26 103C26 130.062 47.938 152 75 152ZM75 153C102.614 153 125 130.614 125 103C125 75.3858 102.614 53 75 53C47.3858 53 25 75.3858 25 103C25 130.614 47.3858 153 75 153Z" fill="black"/>
<g id="Un campeonato de fulbito convoc&#195;&#179; a 6 equipos. Si todos juegan contra todos, &#194;&#191;cu&#195;&#161;ntos partidos se realizaron?">
<path d="M151.988 41.4062V58.8086C151.977 61.2227 151.215 63.1973 149.703 64.7324C148.203 66.2676 146.164 67.1289 143.586 67.3164L142.689 67.3516C139.889 67.3516 137.656 66.5957 135.992 65.084C134.328 63.5723 133.484 61.4922 133.461 58.8438V41.4062H136.801V58.7383C136.801 60.5898 137.311 62.0312 138.33 63.0625C139.35 64.082 140.803 64.5918 142.689 64.5918C144.6 64.5918 146.059 64.082 147.066 63.0625C148.086 62.043 148.596 60.6074 148.596 58.7559V41.4062H151.988Z" fill="white"/>
<path d="M159.881 47.9805L159.986 50.3711C161.439 48.543 163.338 47.6289 165.682 47.6289C169.701 47.6289 171.729 49.8965 171.764 54.4316V67H168.512V54.4141C168.5 53.043 168.184 52.0293 167.562 51.373C166.953 50.7168 165.998 50.3887 164.697 50.3887C163.643 50.3887 162.717 50.6699 161.92 51.2324C161.123 51.7949 160.502 52.5332 160.057 53.4473V67H156.805V47.9805H159.881Z" fill="white"/>
<path d="M193.227 64.6973C194.387 64.6973 195.4 64.3457 196.268 63.6426C197.135 62.9395 197.615 62.0605 197.709 61.0059H200.785C200.727 62.0957 200.352 63.1328 199.66 64.1172C198.969 65.1016 198.043 65.8867 196.883 66.4727C195.734 67.0586 194.516 67.3516 193.227 67.3516C190.637 67.3516 188.574 66.4902 187.039 64.7676C185.516 63.0332 184.754 60.666 184.754 57.666V57.1211C184.754 55.2695 185.094 53.623 185.773 52.1816C186.453 50.7402 187.426 49.6211 188.691 48.8242C189.969 48.0273 191.475 47.6289 193.209 47.6289C195.342 47.6289 197.111 48.2676 198.518 49.5449C199.936 50.8223 200.691 52.4805 200.785 54.5195H197.709C197.615 53.2891 197.146 52.2812 196.303 51.4961C195.471 50.6992 194.439 50.3008 193.209 50.3008C191.557 50.3008 190.273 50.8984 189.359 52.0938C188.457 53.2773 188.006 54.9941 188.006 57.2441V57.8594C188.006 60.0508 188.457 61.7383 189.359 62.9219C190.262 64.1055 191.551 64.6973 193.227 64.6973Z" fill="white"/>
<path d="M216.184 67C215.996 66.625 215.844 65.957 215.727 64.9961C214.215 66.5664 212.41 67.3516 210.312 67.3516C208.438 67.3516 206.896 66.8242 205.689 65.7695C204.494 64.7031 203.896 63.3555 203.896 61.7266C203.896 59.7461 204.646 58.2109 206.146 57.1211C207.658 56.0195 209.779 55.4688 212.51 55.4688H215.674V53.9746C215.674 52.8379 215.334 51.9355 214.654 51.2676C213.975 50.5879 212.973 50.248 211.648 50.248C210.488 50.248 209.516 50.541 208.73 51.127C207.945 51.7129 207.553 52.4219 207.553 53.2539H204.283C204.283 52.3047 204.617 51.3906 205.285 50.5117C205.965 49.6211 206.879 48.918 208.027 48.4023C209.188 47.8867 210.459 47.6289 211.842 47.6289C214.033 47.6289 215.75 48.1797 216.992 49.2812C218.234 50.3711 218.879 51.877 218.926 53.7988V62.5527C218.926 64.2988 219.148 65.6875 219.594 66.7188V67H216.184ZM210.787 64.5215C211.807 64.5215 212.773 64.2578 213.688 63.7305C214.602 63.2031 215.264 62.5176 215.674 61.6738V57.7715H213.125C209.141 57.7715 207.148 58.9375 207.148 61.2695C207.148 62.2891 207.488 63.0859 208.168 63.6602C208.848 64.2344 209.721 64.5215 210.787 64.5215Z" fill="white"/>
<path d="M227.082 47.9805L227.17 50.0898C228.564 48.4492 230.445 47.6289 232.812 47.6289C235.473 47.6289 237.283 48.6484 238.244 50.6875C238.877 49.7734 239.697 49.0352 240.705 48.4727C241.725 47.9102 242.926 47.6289 244.309 47.6289C248.48 47.6289 250.602 49.8379 250.672 54.2559V67H247.42V54.4492C247.42 53.0898 247.109 52.0762 246.488 51.4082C245.867 50.7285 244.824 50.3887 243.359 50.3887C242.152 50.3887 241.15 50.752 240.354 51.4785C239.557 52.1934 239.094 53.1602 238.965 54.3789V67H235.695V54.5371C235.695 51.7715 234.342 50.3887 231.635 50.3887C229.502 50.3887 228.043 51.2969 227.258 53.1133V67H224.006V47.9805H227.082Z" fill="white"/>
<path d="M271.66 57.7012C271.66 60.5957 270.998 62.9277 269.674 64.6973C268.35 66.4668 266.557 67.3516 264.295 67.3516C261.986 67.3516 260.17 66.6191 258.846 65.1543V74.3125H255.594V47.9805H258.564L258.723 50.0898C260.047 48.4492 261.887 47.6289 264.242 47.6289C266.527 47.6289 268.332 48.4902 269.656 50.2129C270.992 51.9355 271.66 54.332 271.66 57.4023V57.7012ZM268.408 57.332C268.408 55.1875 267.951 53.4941 267.037 52.252C266.123 51.0098 264.869 50.3887 263.275 50.3887C261.307 50.3887 259.83 51.2617 258.846 53.0078V62.0957C259.818 63.8301 261.307 64.6973 263.311 64.6973C264.869 64.6973 266.105 64.082 267.02 62.8516C267.945 61.6094 268.408 59.7695 268.408 57.332Z" fill="white"/>
<path d="M283.701 67.3516C281.123 67.3516 279.025 66.5078 277.408 64.8203C275.791 63.1211 274.982 60.8535 274.982 58.0176V57.4199C274.982 55.5332 275.34 53.8516 276.055 52.375C276.781 50.8867 277.789 49.7266 279.078 48.8945C280.379 48.0508 281.785 47.6289 283.297 47.6289C285.77 47.6289 287.691 48.4434 289.062 50.0723C290.434 51.7012 291.119 54.0332 291.119 57.0684V58.4219H278.234C278.281 60.2969 278.826 61.8145 279.869 62.9746C280.924 64.123 282.26 64.6973 283.877 64.6973C285.025 64.6973 285.998 64.4629 286.795 63.9941C287.592 63.5254 288.289 62.9043 288.887 62.1309L290.873 63.6777C289.279 66.127 286.889 67.3516 283.701 67.3516ZM283.297 50.3008C281.984 50.3008 280.883 50.7812 279.992 51.7422C279.102 52.6914 278.551 54.0273 278.34 55.75H287.867V55.5039C287.773 53.8516 287.328 52.5742 286.531 51.6719C285.734 50.7578 284.656 50.3008 283.297 50.3008Z" fill="white"/>
<path d="M294.037 57.3145C294.037 55.4512 294.4 53.7754 295.127 52.2871C295.865 50.7988 296.885 49.6504 298.186 48.8418C299.498 48.0332 300.992 47.6289 302.668 47.6289C305.258 47.6289 307.35 48.5254 308.943 50.3184C310.549 52.1113 311.352 54.4961 311.352 57.4727V57.7012C311.352 59.5527 310.994 61.2168 310.279 62.6934C309.576 64.1582 308.562 65.3008 307.238 66.1211C305.926 66.9414 304.414 67.3516 302.703 67.3516C300.125 67.3516 298.033 66.4551 296.428 64.6621C294.834 62.8691 294.037 60.4961 294.037 57.543V57.3145ZM297.307 57.7012C297.307 59.8105 297.793 61.5039 298.766 62.7812C299.75 64.0586 301.062 64.6973 302.703 64.6973C304.355 64.6973 305.668 64.0527 306.641 62.7637C307.613 61.4629 308.1 59.6465 308.1 57.3145C308.1 55.2285 307.602 53.541 306.605 52.252C305.621 50.9512 304.309 50.3008 302.668 50.3008C301.062 50.3008 299.768 50.9395 298.783 52.2168C297.799 53.4941 297.307 55.3223 297.307 57.7012Z" fill="white"/>
<path d="M318.506 47.9805L318.611 50.3711C320.064 48.543 321.963 47.6289 324.307 47.6289C328.326 47.6289 330.354 49.8965 330.389 54.4316V67H327.137V54.4141C327.125 53.043 326.809 52.0293 326.188 51.373C325.578 50.7168 324.623 50.3887 323.322 50.3887C322.268 50.3887 321.342 50.6699 320.545 51.2324C319.748 51.7949 319.127 52.5332 318.682 53.4473V67H315.43V47.9805H318.506Z" fill="white"/>
<path d="M347.035 67C346.848 66.625 346.695 65.957 346.578 64.9961C345.066 66.5664 343.262 67.3516 341.164 67.3516C339.289 67.3516 337.748 66.8242 336.541 65.7695C335.346 64.7031 334.748 63.3555 334.748 61.7266C334.748 59.7461 335.498 58.2109 336.998 57.1211C338.51 56.0195 340.631 55.4688 343.361 55.4688H346.525V53.9746C346.525 52.8379 346.186 51.9355 345.506 51.2676C344.826 50.5879 343.824 50.248 342.5 50.248C341.34 50.248 340.367 50.541 339.582 51.127C338.797 51.7129 338.404 52.4219 338.404 53.2539H335.135C335.135 52.3047 335.469 51.3906 336.137 50.5117C336.816 49.6211 337.73 48.918 338.879 48.4023C340.039 47.8867 341.311 47.6289 342.693 47.6289C344.885 47.6289 346.602 48.1797 347.844 49.2812C349.086 50.3711 349.73 51.877 349.777 53.7988V62.5527C349.777 64.2988 350 65.6875 350.445 66.7188V67H347.035ZM341.639 64.5215C342.658 64.5215 343.625 64.2578 344.539 63.7305C345.453 63.2031 346.115 62.5176 346.525 61.6738V57.7715H343.977C339.992 57.7715 338 58.9375 338 61.2695C338 62.2891 338.34 63.0859 339.02 63.6602C339.699 64.2344 340.572 64.5215 341.639 64.5215Z" fill="white"/>
<path d="M359.287 43.375V47.9805H362.838V50.4941H359.287V62.2891C359.287 63.0508 359.445 63.625 359.762 64.0117C360.078 64.3867 360.617 64.5742 361.379 64.5742C361.754 64.5742 362.27 64.5039 362.926 64.3633V67C362.07 67.2344 361.238 67.3516 360.43 67.3516C358.977 67.3516 357.881 66.9121 357.143 66.0332C356.404 65.1543 356.035 63.9062 356.035 62.2891V50.4941H352.572V47.9805H356.035V43.375H359.287Z" fill="white"/>
<path d="M365.439 57.3145C365.439 55.4512 365.803 53.7754 366.529 52.2871C367.268 50.7988 368.287 49.6504 369.588 48.8418C370.9 48.0332 372.395 47.6289 374.07 47.6289C376.66 47.6289 378.752 48.5254 380.346 50.3184C381.951 52.1113 382.754 54.4961 382.754 57.4727V57.7012C382.754 59.5527 382.396 61.2168 381.682 62.6934C380.979 64.1582 379.965 65.3008 378.641 66.1211C377.328 66.9414 375.816 67.3516 374.105 67.3516C371.527 67.3516 369.436 66.4551 367.83 64.6621C366.236 62.8691 365.439 60.4961 365.439 57.543V57.3145ZM368.709 57.7012C368.709 59.8105 369.195 61.5039 370.168 62.7812C371.152 64.0586 372.465 64.6973 374.105 64.6973C375.758 64.6973 377.07 64.0527 378.043 62.7637C379.016 61.4629 379.502 59.6465 379.502 57.3145C379.502 55.2285 379.004 53.541 378.008 52.252C377.023 50.9512 375.711 50.3008 374.07 50.3008C372.465 50.3008 371.17 50.9395 370.186 52.2168C369.201 53.4941 368.709 55.3223 368.709 57.7012Z" fill="white"/>
<path d="M394.971 57.332C394.971 54.4141 395.662 52.0703 397.045 50.3008C398.428 48.5195 400.238 47.6289 402.477 47.6289C404.703 47.6289 406.467 48.3906 407.768 49.9141V40H411.02V67H408.031L407.873 64.9609C406.572 66.5547 404.762 67.3516 402.441 67.3516C400.238 67.3516 398.439 66.4492 397.045 64.6445C395.662 62.8398 394.971 60.4844 394.971 57.5781V57.332ZM398.223 57.7012C398.223 59.8574 398.668 61.5449 399.559 62.7637C400.449 63.9824 401.68 64.5918 403.25 64.5918C405.312 64.5918 406.818 63.666 407.768 61.8145V53.0781C406.795 51.2852 405.301 50.3887 403.285 50.3887C401.691 50.3887 400.449 51.0039 399.559 52.2344C398.668 53.4648 398.223 55.2871 398.223 57.7012Z" fill="white"/>
<path d="M423.975 67.3516C421.396 67.3516 419.299 66.5078 417.682 64.8203C416.064 63.1211 415.256 60.8535 415.256 58.0176V57.4199C415.256 55.5332 415.613 53.8516 416.328 52.375C417.055 50.8867 418.062 49.7266 419.352 48.8945C420.652 48.0508 422.059 47.6289 423.57 47.6289C426.043 47.6289 427.965 48.4434 429.336 50.0723C430.707 51.7012 431.393 54.0332 431.393 57.0684V58.4219H418.508C418.555 60.2969 419.1 61.8145 420.143 62.9746C421.197 64.123 422.533 64.6973 424.15 64.6973C425.299 64.6973 426.271 64.4629 427.068 63.9941C427.865 63.5254 428.562 62.9043 429.16 62.1309L431.146 63.6777C429.553 66.127 427.162 67.3516 423.975 67.3516ZM423.57 50.3008C422.258 50.3008 421.156 50.7812 420.266 51.7422C419.375 52.6914 418.824 54.0273 418.613 55.75H428.141V55.5039C428.047 53.8516 427.602 52.5742 426.805 51.6719C426.008 50.7578 424.93 50.3008 423.57 50.3008Z" fill="white"/>
<path d="M445.701 67V50.4941H442.695V47.9805H445.701V46.0293C445.701 43.9902 446.246 42.4141 447.336 41.3008C448.426 40.1875 449.967 39.6309 451.959 39.6309C452.709 39.6309 453.453 39.7305 454.191 39.9297L454.016 42.5664C453.465 42.4609 452.879 42.4082 452.258 42.4082C451.203 42.4082 450.389 42.7188 449.814 43.3398C449.24 43.9492 448.953 44.8281 448.953 45.9766V47.9805H453.014V50.4941H448.953V67H445.701Z" fill="white"/>
<path d="M468.359 65.1191C467.094 66.6074 465.236 67.3516 462.787 67.3516C460.76 67.3516 459.213 66.7656 458.146 65.5938C457.092 64.4102 456.559 62.6641 456.547 60.3555V47.9805H459.799V60.2676C459.799 63.1504 460.971 64.5918 463.314 64.5918C465.799 64.5918 467.451 63.666 468.271 61.8145V47.9805H471.523V67H468.43L468.359 65.1191Z" fill="white"/>
<path d="M480.014 67H476.762V40H480.014V67Z" fill="white"/>
<path d="M501.336 57.7012C501.336 60.6074 500.668 62.9453 499.332 64.7148C497.996 66.4727 496.203 67.3516 493.953 67.3516C491.551 67.3516 489.693 66.502 488.381 64.8027L488.223 67H485.234V40H488.486V50.0723C489.799 48.4434 491.609 47.6289 493.918 47.6289C496.227 47.6289 498.037 48.502 499.35 50.248C500.674 51.9941 501.336 54.3848 501.336 57.4199V57.7012ZM498.084 57.332C498.084 55.1172 497.656 53.4062 496.801 52.1992C495.945 50.9922 494.715 50.3887 493.109 50.3887C490.965 50.3887 489.424 51.3848 488.486 53.377V61.6035C489.482 63.5957 491.035 64.5918 493.145 64.5918C494.703 64.5918 495.916 63.9883 496.783 62.7812C497.65 61.5742 498.084 59.7578 498.084 57.332Z" fill="white"/>
<path d="M508.982 67H505.73V47.9805H508.982V67ZM505.467 42.9355C505.467 42.4082 505.625 41.9629 505.941 41.5996C506.27 41.2363 506.75 41.0547 507.383 41.0547C508.016 41.0547 508.496 41.2363 508.824 41.5996C509.152 41.9629 509.316 42.4082 509.316 42.9355C509.316 43.4629 509.152 43.9023 508.824 44.2539C508.496 44.6055 508.016 44.7812 507.383 44.7812C506.75 44.7812 506.27 44.6055 505.941 44.2539C505.625 43.9023 505.467 43.4629 505.467 42.9355Z" fill="white"/>
<path d="M518.615 43.375V47.9805H522.166V50.4941H518.615V62.2891C518.615 63.0508 518.773 63.625 519.09 64.0117C519.406 64.3867 519.945 64.5742 520.707 64.5742C521.082 64.5742 521.598 64.5039 522.254 64.3633V67C521.398 67.2344 520.566 67.3516 519.758 67.3516C518.305 67.3516 517.209 66.9121 516.471 66.0332C515.732 65.1543 515.363 63.9062 515.363 62.2891V50.4941H511.9V47.9805H515.363V43.375H518.615Z" fill="white"/>
<path d="M524.768 57.3145C524.768 55.4512 525.131 53.7754 525.857 52.2871C526.596 50.7988 527.615 49.6504 528.916 48.8418C530.229 48.0332 531.723 47.6289 533.398 47.6289C535.988 47.6289 538.08 48.5254 539.674 50.3184C541.279 52.1113 542.082 54.4961 542.082 57.4727V57.7012C542.082 59.5527 541.725 61.2168 541.01 62.6934C540.307 64.1582 539.293 65.3008 537.969 66.1211C536.656 66.9414 535.145 67.3516 533.434 67.3516C530.855 67.3516 528.764 66.4551 527.158 64.6621C525.564 62.8691 524.768 60.4961 524.768 57.543V57.3145ZM528.037 57.7012C528.037 59.8105 528.523 61.5039 529.496 62.7812C530.48 64.0586 531.793 64.6973 533.434 64.6973C535.086 64.6973 536.398 64.0527 537.371 62.7637C538.344 61.4629 538.83 59.6465 538.83 57.3145C538.83 55.2285 538.332 53.541 537.336 52.252C536.352 50.9512 535.039 50.3008 533.398 50.3008C531.793 50.3008 530.498 50.9395 529.514 52.2168C528.529 53.4941 528.037 55.3223 528.037 57.7012Z" fill="white"/>
<path d="M562.719 64.6973C563.879 64.6973 564.893 64.3457 565.76 63.6426C566.627 62.9395 567.107 62.0605 567.201 61.0059H570.277C570.219 62.0957 569.844 63.1328 569.152 64.1172C568.461 65.1016 567.535 65.8867 566.375 66.4727C565.227 67.0586 564.008 67.3516 562.719 67.3516C560.129 67.3516 558.066 66.4902 556.531 64.7676C555.008 63.0332 554.246 60.666 554.246 57.666V57.1211C554.246 55.2695 554.586 53.623 555.266 52.1816C555.945 50.7402 556.918 49.6211 558.184 48.8242C559.461 48.0273 560.967 47.6289 562.701 47.6289C564.834 47.6289 566.604 48.2676 568.01 49.5449C569.428 50.8223 570.184 52.4805 570.277 54.5195H567.201C567.107 53.2891 566.639 52.2812 565.795 51.4961C564.963 50.6992 563.932 50.3008 562.701 50.3008C561.049 50.3008 559.766 50.8984 558.852 52.0938C557.949 53.2773 557.498 54.9941 557.498 57.2441V57.8594C557.498 60.0508 557.949 61.7383 558.852 62.9219C559.754 64.1055 561.043 64.6973 562.719 64.6973Z" fill="white"/>
<path d="M573.072 57.3145C573.072 55.4512 573.436 53.7754 574.162 52.2871C574.9 50.7988 575.92 49.6504 577.221 48.8418C578.533 48.0332 580.027 47.6289 581.703 47.6289C584.293 47.6289 586.385 48.5254 587.979 50.3184C589.584 52.1113 590.387 54.4961 590.387 57.4727V57.7012C590.387 59.5527 590.029 61.2168 589.314 62.6934C588.611 64.1582 587.598 65.3008 586.273 66.1211C584.961 66.9414 583.449 67.3516 581.738 67.3516C579.16 67.3516 577.068 66.4551 575.463 64.6621C573.869 62.8691 573.072 60.4961 573.072 57.543V57.3145ZM576.342 57.7012C576.342 59.8105 576.828 61.5039 577.801 62.7812C578.785 64.0586 580.098 64.6973 581.738 64.6973C583.391 64.6973 584.703 64.0527 585.676 62.7637C586.648 61.4629 587.135 59.6465 587.135 57.3145C587.135 55.2285 586.637 53.541 585.641 52.252C584.656 50.9512 583.344 50.3008 581.703 50.3008C580.098 50.3008 578.803 50.9395 577.818 52.2168C576.834 53.4941 576.342 55.3223 576.342 57.7012Z" fill="white"/>
<path d="M597.541 47.9805L597.646 50.3711C599.1 48.543 600.998 47.6289 603.342 47.6289C607.361 47.6289 609.389 49.8965 609.424 54.4316V67H606.172V54.4141C606.16 53.043 605.844 52.0293 605.223 51.373C604.613 50.7168 603.658 50.3887 602.357 50.3887C601.303 50.3887 600.377 50.6699 599.58 51.2324C598.783 51.7949 598.162 52.5332 597.717 53.4473V67H594.465V47.9805H597.541Z" fill="white"/>
<path d="M620.604 62.5879L625.314 47.9805H628.637L621.816 67H619.338L612.447 47.9805H615.77L620.604 62.5879Z" fill="white"/>
<path d="M630.623 57.3145C630.623 55.4512 630.986 53.7754 631.713 52.2871C632.451 50.7988 633.471 49.6504 634.771 48.8418C636.084 48.0332 637.578 47.6289 639.254 47.6289C641.844 47.6289 643.936 48.5254 645.529 50.3184C647.135 52.1113 647.938 54.4961 647.938 57.4727V57.7012C647.938 59.5527 647.58 61.2168 646.865 62.6934C646.162 64.1582 645.148 65.3008 643.824 66.1211C642.512 66.9414 641 67.3516 639.289 67.3516C636.711 67.3516 634.619 66.4551 633.014 64.6621C631.42 62.8691 630.623 60.4961 630.623 57.543V57.3145ZM633.893 57.7012C633.893 59.8105 634.379 61.5039 635.352 62.7812C636.336 64.0586 637.648 64.6973 639.289 64.6973C640.941 64.6973 642.254 64.0527 643.227 62.7637C644.199 61.4629 644.686 59.6465 644.686 57.3145C644.686 55.2285 644.188 53.541 643.191 52.252C642.207 50.9512 640.895 50.3008 639.254 50.3008C637.648 50.3008 636.354 50.9395 635.369 52.2168C634.385 53.4941 633.893 55.3223 633.893 57.7012Z" fill="white"/>
<path d="M659.645 64.6973C660.805 64.6973 661.818 64.3457 662.686 63.6426C663.553 62.9395 664.033 62.0605 664.127 61.0059H667.203C667.145 62.0957 666.77 63.1328 666.078 64.1172C665.387 65.1016 664.461 65.8867 663.301 66.4727C662.152 67.0586 660.934 67.3516 659.645 67.3516C657.055 67.3516 654.992 66.4902 653.457 64.7676C651.934 63.0332 651.172 60.666 651.172 57.666V57.1211C651.172 55.2695 651.512 53.623 652.191 52.1816C652.871 50.7402 653.844 49.6211 655.109 48.8242C656.387 48.0273 657.893 47.6289 659.627 47.6289C661.76 47.6289 663.529 48.2676 664.936 49.5449C666.354 50.8223 667.109 52.4805 667.203 54.5195H664.127C664.033 53.2891 663.564 52.2812 662.721 51.4961C661.889 50.6992 660.857 50.3008 659.627 50.3008C657.975 50.3008 656.691 50.8984 655.777 52.0938C654.875 53.2773 654.424 54.9941 654.424 57.2441V57.8594C654.424 60.0508 654.875 61.7383 655.777 62.9219C656.68 64.1055 657.969 64.6973 659.645 64.6973Z" fill="white"/>
<path d="M669.998 57.3145C669.998 55.4512 670.361 53.7754 671.088 52.2871C671.826 50.7988 672.846 49.6504 674.146 48.8418C675.459 48.0332 676.953 47.6289 678.629 47.6289C681.219 47.6289 683.311 48.5254 684.904 50.3184C686.51 52.1113 687.312 54.4961 687.312 57.4727V57.7012C687.312 59.5527 686.955 61.2168 686.24 62.6934C685.537 64.1582 684.523 65.3008 683.199 66.1211C681.887 66.9414 680.375 67.3516 678.664 67.3516C676.086 67.3516 673.994 66.4551 672.389 64.6621C670.795 62.8691 669.998 60.4961 669.998 57.543V57.3145ZM673.268 57.7012C673.268 59.8105 673.754 61.5039 674.727 62.7812C675.711 64.0586 677.023 64.6973 678.664 64.6973C680.316 64.6973 681.629 64.0527 682.602 62.7637C683.574 61.4629 684.061 59.6465 684.061 57.3145C684.061 55.2285 683.562 53.541 682.566 52.252C681.582 50.9512 680.27 50.3008 678.629 50.3008C677.023 50.3008 675.729 50.9395 674.744 52.2168C673.76 53.4941 673.268 55.3223 673.268 57.7012ZM680.105 40H684.043L679.332 45.168H676.713L680.105 40Z" fill="white"/>
<path d="M712.062 67C711.875 66.625 711.723 65.957 711.605 64.9961C710.094 66.5664 708.289 67.3516 706.191 67.3516C704.316 67.3516 702.775 66.8242 701.568 65.7695C700.373 64.7031 699.775 63.3555 699.775 61.7266C699.775 59.7461 700.525 58.2109 702.025 57.1211C703.537 56.0195 705.658 55.4688 708.389 55.4688H711.553V53.9746C711.553 52.8379 711.213 51.9355 710.533 51.2676C709.854 50.5879 708.852 50.248 707.527 50.248C706.367 50.248 705.395 50.541 704.609 51.127C703.824 51.7129 703.432 52.4219 703.432 53.2539H700.162C700.162 52.3047 700.496 51.3906 701.164 50.5117C701.844 49.6211 702.758 48.918 703.906 48.4023C705.066 47.8867 706.338 47.6289 707.721 47.6289C709.912 47.6289 711.629 48.1797 712.871 49.2812C714.113 50.3711 714.758 51.877 714.805 53.7988V62.5527C714.805 64.2988 715.027 65.6875 715.473 66.7188V67H712.062ZM706.666 64.5215C707.686 64.5215 708.652 64.2578 709.566 63.7305C710.48 63.2031 711.143 62.5176 711.553 61.6738V57.7715H709.004C705.02 57.7715 703.027 58.9375 703.027 61.2695C703.027 62.2891 703.367 63.0859 704.047 63.6602C704.727 64.2344 705.6 64.5215 706.666 64.5215Z" fill="white"/>
<path d="M741.26 41.3887V44.1484H740.662C738.131 44.1953 736.115 44.9453 734.615 46.3984C733.115 47.8516 732.248 49.8965 732.014 52.5332C733.361 50.9863 735.201 50.2129 737.533 50.2129C739.76 50.2129 741.535 50.998 742.859 52.5684C744.195 54.1387 744.863 56.166 744.863 58.6504C744.863 61.2871 744.143 63.3965 742.701 64.9785C741.271 66.5605 739.35 67.3516 736.936 67.3516C734.486 67.3516 732.5 66.4141 730.977 64.5391C729.453 62.6523 728.691 60.2266 728.691 57.2617V56.0137C728.691 51.3027 729.693 47.7051 731.697 45.2207C733.713 42.7246 736.707 41.4473 740.68 41.3887H741.26ZM736.988 52.9199C735.875 52.9199 734.85 53.2539 733.912 53.9219C732.975 54.5898 732.324 55.4277 731.961 56.4355V57.6309C731.961 59.7402 732.436 61.4395 733.385 62.7285C734.334 64.0176 735.518 64.6621 736.936 64.6621C738.4 64.6621 739.549 64.123 740.381 63.0449C741.225 61.9668 741.646 60.5547 741.646 58.8086C741.646 57.0508 741.219 55.6328 740.363 54.5547C739.52 53.4648 738.395 52.9199 736.988 52.9199Z" fill="white"/>
<path d="M765.869 67.3516C763.291 67.3516 761.193 66.5078 759.576 64.8203C757.959 63.1211 757.15 60.8535 757.15 58.0176V57.4199C757.15 55.5332 757.508 53.8516 758.223 52.375C758.949 50.8867 759.957 49.7266 761.246 48.8945C762.547 48.0508 763.953 47.6289 765.465 47.6289C767.938 47.6289 769.859 48.4434 771.23 50.0723C772.602 51.7012 773.287 54.0332 773.287 57.0684V58.4219H760.402C760.449 60.2969 760.994 61.8145 762.037 62.9746C763.092 64.123 764.428 64.6973 766.045 64.6973C767.193 64.6973 768.166 64.4629 768.963 63.9941C769.76 63.5254 770.457 62.9043 771.055 62.1309L773.041 63.6777C771.447 66.127 769.057 67.3516 765.869 67.3516ZM765.465 50.3008C764.152 50.3008 763.051 50.7812 762.16 51.7422C761.27 52.6914 760.719 54.0273 760.508 55.75H770.035V55.5039C769.941 53.8516 769.496 52.5742 768.699 51.6719C767.902 50.7578 766.824 50.3008 765.465 50.3008Z" fill="white"/>
<path d="M776.275 57.332C776.275 54.3438 776.961 51.9824 778.332 50.248C779.703 48.502 781.543 47.6289 783.852 47.6289C786.102 47.6289 787.877 48.3848 789.178 49.8965L789.318 47.9805H792.307V74.3125H789.055V65.2422C787.742 66.6484 785.996 67.3516 783.816 67.3516C781.52 67.3516 779.686 66.4609 778.314 64.6797C776.955 62.8867 776.275 60.5137 776.275 57.5605V57.332ZM779.527 57.7012C779.527 59.8809 779.984 61.5918 780.898 62.834C781.824 64.0762 783.066 64.6973 784.625 64.6973C786.559 64.6973 788.035 63.8418 789.055 62.1309V52.8145C788.023 51.1387 786.559 50.3008 784.66 50.3008C783.09 50.3008 781.842 50.9277 780.916 52.1816C779.99 53.4238 779.527 55.2637 779.527 57.7012Z" fill="white"/>
<path d="M809.27 65.1191C808.004 66.6074 806.146 67.3516 803.697 67.3516C801.67 67.3516 800.123 66.7656 799.057 65.5938C798.002 64.4102 797.469 62.6641 797.457 60.3555V47.9805H800.709V60.2676C800.709 63.1504 801.881 64.5918 804.225 64.5918C806.709 64.5918 808.361 63.666 809.182 61.8145V47.9805H812.434V67H809.34L809.27 65.1191Z" fill="white"/>
<path d="M820.924 67H817.672V47.9805H820.924V67ZM817.408 42.9355C817.408 42.4082 817.566 41.9629 817.883 41.5996C818.211 41.2363 818.691 41.0547 819.324 41.0547C819.957 41.0547 820.438 41.2363 820.766 41.5996C821.094 41.9629 821.258 42.4082 821.258 42.9355C821.258 43.4629 821.094 43.9023 820.766 44.2539C820.438 44.6055 819.957 44.7812 819.324 44.7812C818.691 44.7812 818.211 44.6055 817.883 44.2539C817.566 43.9023 817.408 43.4629 817.408 42.9355Z" fill="white"/>
<path d="M842.211 57.7012C842.211 60.5957 841.549 62.9277 840.225 64.6973C838.9 66.4668 837.107 67.3516 834.846 67.3516C832.537 67.3516 830.721 66.6191 829.396 65.1543V74.3125H826.145V47.9805H829.115L829.273 50.0898C830.598 48.4492 832.438 47.6289 834.793 47.6289C837.078 47.6289 838.883 48.4902 840.207 50.2129C841.543 51.9355 842.211 54.332 842.211 57.4023V57.7012ZM838.959 57.332C838.959 55.1875 838.502 53.4941 837.588 52.252C836.674 51.0098 835.42 50.3887 833.826 50.3887C831.857 50.3887 830.381 51.2617 829.396 53.0078V62.0957C830.369 63.8301 831.857 64.6973 833.861 64.6973C835.42 64.6973 836.656 64.082 837.57 62.8516C838.496 61.6094 838.959 59.7695 838.959 57.332Z" fill="white"/>
<path d="M845.498 57.3145C845.498 55.4512 845.861 53.7754 846.588 52.2871C847.326 50.7988 848.346 49.6504 849.646 48.8418C850.959 48.0332 852.453 47.6289 854.129 47.6289C856.719 47.6289 858.811 48.5254 860.404 50.3184C862.01 52.1113 862.812 54.4961 862.812 57.4727V57.7012C862.812 59.5527 862.455 61.2168 861.74 62.6934C861.037 64.1582 860.023 65.3008 858.699 66.1211C857.387 66.9414 855.875 67.3516 854.164 67.3516C851.586 67.3516 849.494 66.4551 847.889 64.6621C846.295 62.8691 845.498 60.4961 845.498 57.543V57.3145ZM848.768 57.7012C848.768 59.8105 849.254 61.5039 850.227 62.7812C851.211 64.0586 852.523 64.6973 854.164 64.6973C855.816 64.6973 857.129 64.0527 858.102 62.7637C859.074 61.4629 859.561 59.6465 859.561 57.3145C859.561 55.2285 859.062 53.541 858.066 52.252C857.082 50.9512 855.77 50.3008 854.129 50.3008C852.523 50.3008 851.229 50.9395 850.244 52.2168C849.26 53.4941 848.768 55.3223 848.768 57.7012Z" fill="white"/>
<path d="M877.965 61.9551C877.965 61.0762 877.631 60.3965 876.963 59.916C876.307 59.4238 875.152 59.002 873.5 58.6504C871.859 58.2988 870.553 57.877 869.58 57.3848C868.619 56.8926 867.904 56.3066 867.436 55.627C866.979 54.9473 866.75 54.1387 866.75 53.2012C866.75 51.6426 867.406 50.3242 868.719 49.2461C870.043 48.168 871.73 47.6289 873.781 47.6289C875.938 47.6289 877.684 48.1855 879.02 49.2988C880.367 50.4121 881.041 51.8359 881.041 53.5703H877.771C877.771 52.6797 877.391 51.9121 876.629 51.2676C875.879 50.623 874.93 50.3008 873.781 50.3008C872.598 50.3008 871.672 50.5586 871.004 51.0742C870.336 51.5898 870.002 52.2637 870.002 53.0957C870.002 53.8809 870.312 54.4727 870.934 54.8711C871.555 55.2695 872.674 55.6504 874.291 56.0137C875.92 56.377 877.238 56.8105 878.246 57.3145C879.254 57.8184 879.998 58.4277 880.479 59.1426C880.971 59.8457 881.217 60.707 881.217 61.7266C881.217 63.4258 880.537 64.791 879.178 65.8223C877.818 66.8418 876.055 67.3516 873.887 67.3516C872.363 67.3516 871.016 67.082 869.844 66.543C868.672 66.0039 867.752 65.2539 867.084 64.293C866.428 63.3203 866.1 62.2715 866.1 61.1465H869.352C869.41 62.2363 869.844 63.1035 870.652 63.748C871.473 64.3809 872.551 64.6973 873.887 64.6973C875.117 64.6973 876.102 64.4512 876.84 63.959C877.59 63.4551 877.965 62.7871 877.965 61.9551Z" fill="white"/>
<path d="M885.523 65.2949C885.523 64.7324 885.688 64.2637 886.016 63.8887C886.355 63.5137 886.859 63.3262 887.527 63.3262C888.195 63.3262 888.699 63.5137 889.039 63.8887C889.391 64.2637 889.566 64.7324 889.566 65.2949C889.566 65.834 889.391 66.2852 889.039 66.6484C888.699 67.0117 888.195 67.1934 887.527 67.1934C886.859 67.1934 886.355 67.0117 886.016 66.6484C885.688 66.2852 885.523 65.834 885.523 65.2949Z" fill="white"/>
<path d="M141.512 95.5918C138.617 94.7598 136.508 93.7402 135.184 92.5332C133.871 91.3145 133.215 89.8145 133.215 88.0332C133.215 86.0176 134.018 84.3535 135.623 83.041C137.24 81.7168 139.338 81.0547 141.916 81.0547C143.674 81.0547 145.238 81.3945 146.609 82.0742C147.992 82.7539 149.059 83.6914 149.809 84.8867C150.57 86.082 150.951 87.3887 150.951 88.8066H147.559C147.559 87.2598 147.066 86.0469 146.082 85.168C145.098 84.2773 143.709 83.832 141.916 83.832C140.252 83.832 138.951 84.2012 138.014 84.9395C137.088 85.666 136.625 86.6797 136.625 87.9805C136.625 89.0234 137.064 89.9082 137.943 90.6348C138.834 91.3496 140.34 92.0059 142.461 92.6035C144.594 93.2012 146.258 93.8633 147.453 94.5898C148.66 95.3047 149.551 96.1426 150.125 97.1035C150.711 98.0645 151.004 99.1953 151.004 100.496C151.004 102.57 150.195 104.234 148.578 105.488C146.961 106.73 144.799 107.352 142.092 107.352C140.334 107.352 138.693 107.018 137.17 106.35C135.646 105.67 134.469 104.744 133.637 103.572C132.816 102.4 132.406 101.07 132.406 99.582H135.799C135.799 101.129 136.367 102.354 137.504 103.256C138.652 104.146 140.182 104.592 142.092 104.592C143.873 104.592 145.238 104.229 146.188 103.502C147.137 102.775 147.611 101.785 147.611 100.531C147.611 99.2773 147.172 98.3105 146.293 97.6309C145.414 96.9395 143.82 96.2598 141.512 95.5918Z" fill="white"/>
<path d="M158.369 107H155.117V87.9805H158.369V107ZM154.854 82.9355C154.854 82.4082 155.012 81.9629 155.328 81.5996C155.656 81.2363 156.137 81.0547 156.77 81.0547C157.402 81.0547 157.883 81.2363 158.211 81.5996C158.539 81.9629 158.703 82.4082 158.703 82.9355C158.703 83.4629 158.539 83.9023 158.211 84.2539C157.883 84.6055 157.402 84.7812 156.77 84.7812C156.137 84.7812 155.656 84.6055 155.328 84.2539C155.012 83.9023 154.854 83.4629 154.854 82.9355Z" fill="white"/>
<path d="M176.932 83.375V87.9805H180.482V90.4941H176.932V102.289C176.932 103.051 177.09 103.625 177.406 104.012C177.723 104.387 178.262 104.574 179.023 104.574C179.398 104.574 179.914 104.504 180.57 104.363V107C179.715 107.234 178.883 107.352 178.074 107.352C176.621 107.352 175.525 106.912 174.787 106.033C174.049 105.154 173.68 103.906 173.68 102.289V90.4941H170.217V87.9805H173.68V83.375H176.932Z" fill="white"/>
<path d="M183.084 97.3145C183.084 95.4512 183.447 93.7754 184.174 92.2871C184.912 90.7988 185.932 89.6504 187.232 88.8418C188.545 88.0332 190.039 87.6289 191.715 87.6289C194.305 87.6289 196.396 88.5254 197.99 90.3184C199.596 92.1113 200.398 94.4961 200.398 97.4727V97.7012C200.398 99.5527 200.041 101.217 199.326 102.693C198.623 104.158 197.609 105.301 196.285 106.121C194.973 106.941 193.461 107.352 191.75 107.352C189.172 107.352 187.08 106.455 185.475 104.662C183.881 102.869 183.084 100.496 183.084 97.543V97.3145ZM186.354 97.7012C186.354 99.8105 186.84 101.504 187.812 102.781C188.797 104.059 190.109 104.697 191.75 104.697C193.402 104.697 194.715 104.053 195.688 102.764C196.66 101.463 197.146 99.6465 197.146 97.3145C197.146 95.2285 196.648 93.541 195.652 92.252C194.668 90.9512 193.355 90.3008 191.715 90.3008C190.109 90.3008 188.814 90.9395 187.83 92.2168C186.846 93.4941 186.354 95.3223 186.354 97.7012Z" fill="white"/>
<path d="M203.686 97.332C203.686 94.4141 204.377 92.0703 205.76 90.3008C207.143 88.5195 208.953 87.6289 211.191 87.6289C213.418 87.6289 215.182 88.3906 216.482 89.9141V80H219.734V107H216.746L216.588 104.961C215.287 106.555 213.477 107.352 211.156 107.352C208.953 107.352 207.154 106.449 205.76 104.645C204.377 102.84 203.686 100.484 203.686 97.5781V97.332ZM206.938 97.7012C206.938 99.8574 207.383 101.545 208.273 102.764C209.164 103.982 210.395 104.592 211.965 104.592C214.027 104.592 215.533 103.666 216.482 101.814V93.0781C215.51 91.2852 214.016 90.3887 212 90.3887C210.406 90.3887 209.164 91.0039 208.273 92.2344C207.383 93.4648 206.938 95.2871 206.938 97.7012Z" fill="white"/>
<path d="M223.936 97.3145C223.936 95.4512 224.299 93.7754 225.025 92.2871C225.764 90.7988 226.783 89.6504 228.084 88.8418C229.396 88.0332 230.891 87.6289 232.566 87.6289C235.156 87.6289 237.248 88.5254 238.842 90.3184C240.447 92.1113 241.25 94.4961 241.25 97.4727V97.7012C241.25 99.5527 240.893 101.217 240.178 102.693C239.475 104.158 238.461 105.301 237.137 106.121C235.824 106.941 234.312 107.352 232.602 107.352C230.023 107.352 227.932 106.455 226.326 104.662C224.732 102.869 223.936 100.496 223.936 97.543V97.3145ZM227.205 97.7012C227.205 99.8105 227.691 101.504 228.664 102.781C229.648 104.059 230.961 104.697 232.602 104.697C234.254 104.697 235.566 104.053 236.539 102.764C237.512 101.463 237.998 99.6465 237.998 97.3145C237.998 95.2285 237.5 93.541 236.504 92.252C235.52 90.9512 234.207 90.3008 232.566 90.3008C230.961 90.3008 229.666 90.9395 228.682 92.2168C227.697 93.4941 227.205 95.3223 227.205 97.7012Z" fill="white"/>
<path d="M256.402 101.955C256.402 101.076 256.068 100.396 255.4 99.916C254.744 99.4238 253.59 99.002 251.938 98.6504C250.297 98.2988 248.99 97.877 248.018 97.3848C247.057 96.8926 246.342 96.3066 245.873 95.627C245.416 94.9473 245.188 94.1387 245.188 93.2012C245.188 91.6426 245.844 90.3242 247.156 89.2461C248.48 88.168 250.168 87.6289 252.219 87.6289C254.375 87.6289 256.121 88.1855 257.457 89.2988C258.805 90.4121 259.479 91.8359 259.479 93.5703H256.209C256.209 92.6797 255.828 91.9121 255.066 91.2676C254.316 90.623 253.367 90.3008 252.219 90.3008C251.035 90.3008 250.109 90.5586 249.441 91.0742C248.773 91.5898 248.439 92.2637 248.439 93.0957C248.439 93.8809 248.75 94.4727 249.371 94.8711C249.992 95.2695 251.111 95.6504 252.729 96.0137C254.357 96.377 255.676 96.8105 256.684 97.3145C257.691 97.8184 258.436 98.4277 258.916 99.1426C259.408 99.8457 259.654 100.707 259.654 101.727C259.654 103.426 258.975 104.791 257.615 105.822C256.256 106.842 254.492 107.352 252.324 107.352C250.801 107.352 249.453 107.082 248.281 106.543C247.109 106.004 246.189 105.254 245.521 104.293C244.865 103.32 244.537 102.271 244.537 101.146H247.789C247.848 102.236 248.281 103.104 249.09 103.748C249.91 104.381 250.988 104.697 252.324 104.697C253.555 104.697 254.539 104.451 255.277 103.959C256.027 103.455 256.402 102.787 256.402 101.955Z" fill="white"/>
<path d="M276.178 87.9805V109.197C276.178 112.854 274.52 114.682 271.203 114.682C270.488 114.682 269.826 114.576 269.217 114.365V111.764C269.592 111.857 270.084 111.904 270.693 111.904C271.42 111.904 271.971 111.705 272.346 111.307C272.732 110.92 272.926 110.24 272.926 109.268V87.9805H276.178ZM272.592 82.9355C272.592 82.4199 272.75 81.9805 273.066 81.6172C273.395 81.2422 273.869 81.0547 274.49 81.0547C275.123 81.0547 275.604 81.2363 275.932 81.5996C276.26 81.9629 276.424 82.4082 276.424 82.9355C276.424 83.4629 276.26 83.9023 275.932 84.2539C275.604 84.6055 275.123 84.7812 274.49 84.7812C273.857 84.7812 273.383 84.6055 273.066 84.2539C272.75 83.9023 272.592 83.4629 272.592 82.9355Z" fill="white"/>
<path d="M293.176 105.119C291.91 106.607 290.053 107.352 287.604 107.352C285.576 107.352 284.029 106.766 282.963 105.594C281.908 104.41 281.375 102.664 281.363 100.355V87.9805H284.615V100.268C284.615 103.15 285.787 104.592 288.131 104.592C290.615 104.592 292.268 103.666 293.088 101.814V87.9805H296.34V107H293.246L293.176 105.119Z" fill="white"/>
<path d="M309.189 107.352C306.611 107.352 304.514 106.508 302.896 104.82C301.279 103.121 300.471 100.854 300.471 98.0176V97.4199C300.471 95.5332 300.828 93.8516 301.543 92.375C302.27 90.8867 303.277 89.7266 304.566 88.8945C305.867 88.0508 307.273 87.6289 308.785 87.6289C311.258 87.6289 313.18 88.4434 314.551 90.0723C315.922 91.7012 316.607 94.0332 316.607 97.0684V98.4219H303.723C303.77 100.297 304.314 101.814 305.357 102.975C306.412 104.123 307.748 104.697 309.365 104.697C310.514 104.697 311.486 104.463 312.283 103.994C313.08 103.525 313.777 102.904 314.375 102.131L316.361 103.678C314.768 106.127 312.377 107.352 309.189 107.352ZM308.785 90.3008C307.473 90.3008 306.371 90.7812 305.48 91.7422C304.59 92.6914 304.039 94.0273 303.828 95.75H313.355V95.5039C313.262 93.8516 312.816 92.5742 312.02 91.6719C311.223 90.7578 310.145 90.3008 308.785 90.3008Z" fill="white"/>
<path d="M319.613 97.332C319.613 94.3672 320.299 92.0117 321.67 90.2656C323.041 88.5078 324.857 87.6289 327.119 87.6289C329.439 87.6289 331.25 88.4492 332.551 90.0898L332.709 87.9805H335.68V106.543C335.68 109.004 334.947 110.943 333.482 112.361C332.029 113.779 330.072 114.488 327.611 114.488C326.24 114.488 324.898 114.195 323.586 113.609C322.273 113.023 321.271 112.221 320.58 111.201L322.268 109.25C323.662 110.973 325.367 111.834 327.383 111.834C328.965 111.834 330.195 111.389 331.074 110.498C331.965 109.607 332.41 108.354 332.41 106.736V105.102C331.109 106.602 329.334 107.352 327.084 107.352C324.857 107.352 323.053 106.455 321.67 104.662C320.299 102.869 319.613 100.426 319.613 97.332ZM322.883 97.7012C322.883 99.8457 323.322 101.533 324.201 102.764C325.08 103.982 326.311 104.592 327.893 104.592C329.943 104.592 331.449 103.66 332.41 101.797V93.1133C331.414 91.2969 329.92 90.3887 327.928 90.3887C326.346 90.3887 325.109 91.0039 324.219 92.2344C323.328 93.4648 322.883 95.2871 322.883 97.7012Z" fill="white"/>
<path d="M352.344 107C352.156 106.625 352.004 105.957 351.887 104.996C350.375 106.566 348.57 107.352 346.473 107.352C344.598 107.352 343.057 106.824 341.85 105.77C340.654 104.703 340.057 103.355 340.057 101.727C340.057 99.7461 340.807 98.2109 342.307 97.1211C343.818 96.0195 345.939 95.4688 348.67 95.4688H351.834V93.9746C351.834 92.8379 351.494 91.9355 350.814 91.2676C350.135 90.5879 349.133 90.248 347.809 90.248C346.648 90.248 345.676 90.541 344.891 91.127C344.105 91.7129 343.713 92.4219 343.713 93.2539H340.443C340.443 92.3047 340.777 91.3906 341.445 90.5117C342.125 89.6211 343.039 88.918 344.188 88.4023C345.348 87.8867 346.619 87.6289 348.002 87.6289C350.193 87.6289 351.91 88.1797 353.152 89.2812C354.395 90.3711 355.039 91.877 355.086 93.7988V102.553C355.086 104.299 355.309 105.688 355.754 106.719V107H352.344ZM346.947 104.521C347.967 104.521 348.934 104.258 349.848 103.73C350.762 103.203 351.424 102.518 351.834 101.674V97.7715H349.285C345.301 97.7715 343.309 98.9375 343.309 101.27C343.309 102.289 343.648 103.086 344.328 103.66C345.008 104.234 345.881 104.521 346.947 104.521Z" fill="white"/>
<path d="M363.26 87.9805L363.365 90.3711C364.818 88.543 366.717 87.6289 369.061 87.6289C373.08 87.6289 375.107 89.8965 375.143 94.4316V107H371.891V94.4141C371.879 93.043 371.562 92.0293 370.941 91.373C370.332 90.7168 369.377 90.3887 368.076 90.3887C367.021 90.3887 366.096 90.6699 365.299 91.2324C364.502 91.7949 363.881 92.5332 363.436 93.4473V107H360.184V87.9805H363.26Z" fill="white"/>
<path d="M396.605 104.697C397.766 104.697 398.779 104.346 399.646 103.643C400.514 102.939 400.994 102.061 401.088 101.006H404.164C404.105 102.096 403.73 103.133 403.039 104.117C402.348 105.102 401.422 105.887 400.262 106.473C399.113 107.059 397.895 107.352 396.605 107.352C394.016 107.352 391.953 106.49 390.418 104.768C388.895 103.033 388.133 100.666 388.133 97.666V97.1211C388.133 95.2695 388.473 93.623 389.152 92.1816C389.832 90.7402 390.805 89.6211 392.07 88.8242C393.348 88.0273 394.854 87.6289 396.588 87.6289C398.721 87.6289 400.49 88.2676 401.896 89.5449C403.314 90.8223 404.07 92.4805 404.164 94.5195H401.088C400.994 93.2891 400.525 92.2812 399.682 91.4961C398.85 90.6992 397.818 90.3008 396.588 90.3008C394.936 90.3008 393.652 90.8984 392.738 92.0938C391.836 93.2773 391.385 94.9941 391.385 97.2441V97.8594C391.385 100.051 391.836 101.738 392.738 102.922C393.641 104.105 394.93 104.697 396.605 104.697Z" fill="white"/>
<path d="M406.959 97.3145C406.959 95.4512 407.322 93.7754 408.049 92.2871C408.787 90.7988 409.807 89.6504 411.107 88.8418C412.42 88.0332 413.914 87.6289 415.59 87.6289C418.18 87.6289 420.271 88.5254 421.865 90.3184C423.471 92.1113 424.273 94.4961 424.273 97.4727V97.7012C424.273 99.5527 423.916 101.217 423.201 102.693C422.498 104.158 421.484 105.301 420.16 106.121C418.848 106.941 417.336 107.352 415.625 107.352C413.047 107.352 410.955 106.455 409.35 104.662C407.756 102.869 406.959 100.496 406.959 97.543V97.3145ZM410.229 97.7012C410.229 99.8105 410.715 101.504 411.688 102.781C412.672 104.059 413.984 104.697 415.625 104.697C417.277 104.697 418.59 104.053 419.562 102.764C420.535 101.463 421.021 99.6465 421.021 97.3145C421.021 95.2285 420.523 93.541 419.527 92.252C418.543 90.9512 417.23 90.3008 415.59 90.3008C413.984 90.3008 412.689 90.9395 411.705 92.2168C410.721 93.4941 410.229 95.3223 410.229 97.7012Z" fill="white"/>
<path d="M431.428 87.9805L431.533 90.3711C432.986 88.543 434.885 87.6289 437.229 87.6289C441.248 87.6289 443.275 89.8965 443.311 94.4316V107H440.059V94.4141C440.047 93.043 439.73 92.0293 439.109 91.373C438.5 90.7168 437.545 90.3887 436.244 90.3887C435.189 90.3887 434.264 90.6699 433.467 91.2324C432.67 91.7949 432.049 92.5332 431.604 93.4473V107H428.352V87.9805H431.428Z" fill="white"/>
<path d="M452.627 83.375V87.9805H456.178V90.4941H452.627V102.289C452.627 103.051 452.785 103.625 453.102 104.012C453.418 104.387 453.957 104.574 454.719 104.574C455.094 104.574 455.609 104.504 456.266 104.363V107C455.41 107.234 454.578 107.352 453.77 107.352C452.316 107.352 451.221 106.912 450.482 106.033C449.744 105.154 449.375 103.906 449.375 102.289V90.4941H445.912V87.9805H449.375V83.375H452.627Z" fill="white"/>
<path d="M469.186 90.8984C468.693 90.8164 468.16 90.7754 467.586 90.7754C465.453 90.7754 464.006 91.6836 463.244 93.5V107H459.992V87.9805H463.156L463.209 90.1777C464.275 88.4785 465.787 87.6289 467.744 87.6289C468.377 87.6289 468.857 87.7109 469.186 87.875V90.8984Z" fill="white"/>
<path d="M483.23 107C483.043 106.625 482.891 105.957 482.773 104.996C481.262 106.566 479.457 107.352 477.359 107.352C475.484 107.352 473.943 106.824 472.736 105.77C471.541 104.703 470.943 103.355 470.943 101.727C470.943 99.7461 471.693 98.2109 473.193 97.1211C474.705 96.0195 476.826 95.4688 479.557 95.4688H482.721V93.9746C482.721 92.8379 482.381 91.9355 481.701 91.2676C481.021 90.5879 480.02 90.248 478.695 90.248C477.535 90.248 476.562 90.541 475.777 91.127C474.992 91.7129 474.6 92.4219 474.6 93.2539H471.33C471.33 92.3047 471.664 91.3906 472.332 90.5117C473.012 89.6211 473.926 88.918 475.074 88.4023C476.234 87.8867 477.506 87.6289 478.889 87.6289C481.08 87.6289 482.797 88.1797 484.039 89.2812C485.281 90.3711 485.926 91.877 485.973 93.7988V102.553C485.973 104.299 486.195 105.688 486.641 106.719V107H483.23ZM477.834 104.521C478.854 104.521 479.82 104.258 480.734 103.73C481.648 103.203 482.311 102.518 482.721 101.674V97.7715H480.172C476.188 97.7715 474.195 98.9375 474.195 101.27C474.195 102.289 474.535 103.086 475.215 103.66C475.895 104.234 476.768 104.521 477.834 104.521Z" fill="white"/>
<path d="M504.412 83.375V87.9805H507.963V90.4941H504.412V102.289C504.412 103.051 504.57 103.625 504.887 104.012C505.203 104.387 505.742 104.574 506.504 104.574C506.879 104.574 507.395 104.504 508.051 104.363V107C507.195 107.234 506.363 107.352 505.555 107.352C504.102 107.352 503.006 106.912 502.268 106.033C501.529 105.154 501.16 103.906 501.16 102.289V90.4941H497.697V87.9805H501.16V83.375H504.412Z" fill="white"/>
<path d="M510.564 97.3145C510.564 95.4512 510.928 93.7754 511.654 92.2871C512.393 90.7988 513.412 89.6504 514.713 88.8418C516.025 88.0332 517.52 87.6289 519.195 87.6289C521.785 87.6289 523.877 88.5254 525.471 90.3184C527.076 92.1113 527.879 94.4961 527.879 97.4727V97.7012C527.879 99.5527 527.521 101.217 526.807 102.693C526.104 104.158 525.09 105.301 523.766 106.121C522.453 106.941 520.941 107.352 519.23 107.352C516.652 107.352 514.561 106.455 512.955 104.662C511.361 102.869 510.564 100.496 510.564 97.543V97.3145ZM513.834 97.7012C513.834 99.8105 514.32 101.504 515.293 102.781C516.277 104.059 517.59 104.697 519.23 104.697C520.883 104.697 522.195 104.053 523.168 102.764C524.141 101.463 524.627 99.6465 524.627 97.3145C524.627 95.2285 524.129 93.541 523.133 92.252C522.148 90.9512 520.836 90.3008 519.195 90.3008C517.59 90.3008 516.295 90.9395 515.311 92.2168C514.326 93.4941 513.834 95.3223 513.834 97.7012Z" fill="white"/>
<path d="M531.166 97.332C531.166 94.4141 531.857 92.0703 533.24 90.3008C534.623 88.5195 536.434 87.6289 538.672 87.6289C540.898 87.6289 542.662 88.3906 543.963 89.9141V80H547.215V107H544.227L544.068 104.961C542.768 106.555 540.957 107.352 538.637 107.352C536.434 107.352 534.635 106.449 533.24 104.645C531.857 102.84 531.166 100.484 531.166 97.5781V97.332ZM534.418 97.7012C534.418 99.8574 534.863 101.545 535.754 102.764C536.645 103.982 537.875 104.592 539.445 104.592C541.508 104.592 543.014 103.666 543.963 101.814V93.0781C542.99 91.2852 541.496 90.3887 539.48 90.3887C537.887 90.3887 536.645 91.0039 535.754 92.2344C534.863 93.4648 534.418 95.2871 534.418 97.7012Z" fill="white"/>
<path d="M551.416 97.3145C551.416 95.4512 551.779 93.7754 552.506 92.2871C553.244 90.7988 554.264 89.6504 555.564 88.8418C556.877 88.0332 558.371 87.6289 560.047 87.6289C562.637 87.6289 564.729 88.5254 566.322 90.3184C567.928 92.1113 568.73 94.4961 568.73 97.4727V97.7012C568.73 99.5527 568.373 101.217 567.658 102.693C566.955 104.158 565.941 105.301 564.617 106.121C563.305 106.941 561.793 107.352 560.082 107.352C557.504 107.352 555.412 106.455 553.807 104.662C552.213 102.869 551.416 100.496 551.416 97.543V97.3145ZM554.686 97.7012C554.686 99.8105 555.172 101.504 556.145 102.781C557.129 104.059 558.441 104.697 560.082 104.697C561.734 104.697 563.047 104.053 564.02 102.764C564.992 101.463 565.479 99.6465 565.479 97.3145C565.479 95.2285 564.98 93.541 563.984 92.252C563 90.9512 561.688 90.3008 560.047 90.3008C558.441 90.3008 557.146 90.9395 556.162 92.2168C555.178 93.4941 554.686 95.3223 554.686 97.7012Z" fill="white"/>
<path d="M583.883 101.955C583.883 101.076 583.549 100.396 582.881 99.916C582.225 99.4238 581.07 99.002 579.418 98.6504C577.777 98.2988 576.471 97.877 575.498 97.3848C574.537 96.8926 573.822 96.3066 573.354 95.627C572.896 94.9473 572.668 94.1387 572.668 93.2012C572.668 91.6426 573.324 90.3242 574.637 89.2461C575.961 88.168 577.648 87.6289 579.699 87.6289C581.855 87.6289 583.602 88.1855 584.938 89.2988C586.285 90.4121 586.959 91.8359 586.959 93.5703H583.689C583.689 92.6797 583.309 91.9121 582.547 91.2676C581.797 90.623 580.848 90.3008 579.699 90.3008C578.516 90.3008 577.59 90.5586 576.922 91.0742C576.254 91.5898 575.92 92.2637 575.92 93.0957C575.92 93.8809 576.23 94.4727 576.852 94.8711C577.473 95.2695 578.592 95.6504 580.209 96.0137C581.838 96.377 583.156 96.8105 584.164 97.3145C585.172 97.8184 585.916 98.4277 586.396 99.1426C586.889 99.8457 587.135 100.707 587.135 101.727C587.135 103.426 586.455 104.791 585.096 105.822C583.736 106.842 581.973 107.352 579.805 107.352C578.281 107.352 576.934 107.082 575.762 106.543C574.59 106.004 573.67 105.254 573.002 104.293C572.346 103.32 572.018 102.271 572.018 101.146H575.27C575.328 102.236 575.762 103.104 576.57 103.748C577.391 104.381 578.469 104.697 579.805 104.697C581.035 104.697 582.02 104.451 582.758 103.959C583.508 103.455 583.883 102.787 583.883 101.955Z" fill="white"/>
<path d="M591.266 112.098L589.42 110.832C590.521 109.297 591.096 107.715 591.143 106.086V103.15H594.324V105.699C594.324 106.883 594.031 108.066 593.445 109.25C592.871 110.434 592.145 111.383 591.266 112.098Z" fill="white"/>
<path d="M615.242 95.0469C615.23 96.2891 615.102 97.2852 614.855 98.0352C614.621 98.7734 614.223 99.4883 613.66 100.18C613.098 100.871 612.277 101.785 611.199 102.922C610.121 104.047 609.518 105.189 609.389 106.35L609.354 107C609.354 108.277 609.693 109.25 610.373 109.918C611.053 110.598 612.031 110.938 613.309 110.938C614.48 110.938 615.43 110.604 616.156 109.936C616.895 109.279 617.264 108.418 617.264 107.352H620.516C620.492 109.238 619.818 110.779 618.494 111.975C617.182 113.17 615.453 113.768 613.309 113.768C611.012 113.768 609.236 113.176 607.982 111.992C606.729 110.82 606.102 109.186 606.102 107.088C606.102 105.061 607.039 103.021 608.914 100.971L610.83 98.9844C611.604 98.0703 611.99 96.7578 611.99 95.0469H615.242ZM615.383 89.4746C615.383 90.002 615.219 90.4473 614.891 90.8105C614.574 91.1738 614.1 91.3555 613.467 91.3555C612.834 91.3555 612.354 91.1738 612.025 90.8105C611.697 90.4473 611.533 90.002 611.533 89.4746C611.533 88.959 611.697 88.5254 612.025 88.1738C612.354 87.8223 612.834 87.6465 613.467 87.6465C614.1 87.6465 614.574 87.8223 614.891 88.1738C615.219 88.5254 615.383 88.959 615.383 89.4746Z" fill="white"/>
<path d="M632.047 104.697C633.207 104.697 634.221 104.346 635.088 103.643C635.955 102.939 636.436 102.061 636.529 101.006H639.605C639.547 102.096 639.172 103.133 638.48 104.117C637.789 105.102 636.863 105.887 635.703 106.473C634.555 107.059 633.336 107.352 632.047 107.352C629.457 107.352 627.395 106.49 625.859 104.768C624.336 103.033 623.574 100.666 623.574 97.666V97.1211C623.574 95.2695 623.914 93.623 624.594 92.1816C625.273 90.7402 626.246 89.6211 627.512 88.8242C628.789 88.0273 630.295 87.6289 632.029 87.6289C634.162 87.6289 635.932 88.2676 637.338 89.5449C638.756 90.8223 639.512 92.4805 639.605 94.5195H636.529C636.436 93.2891 635.967 92.2812 635.123 91.4961C634.291 90.6992 633.26 90.3008 632.029 90.3008C630.377 90.3008 629.094 90.8984 628.18 92.0938C627.277 93.2773 626.826 94.9941 626.826 97.2441V97.8594C626.826 100.051 627.277 101.738 628.18 102.922C629.082 104.105 630.371 104.697 632.047 104.697Z" fill="white"/>
<path d="M655.004 105.119C653.738 106.607 651.881 107.352 649.432 107.352C647.404 107.352 645.857 106.766 644.791 105.594C643.736 104.41 643.203 102.664 643.191 100.355V87.9805H646.443V100.268C646.443 103.15 647.615 104.592 649.959 104.592C652.443 104.592 654.096 103.666 654.916 101.814V87.9805H658.168V107H655.074L655.004 105.119Z" fill="white"/>
<path d="M674.867 107C674.68 106.625 674.527 105.957 674.41 104.996C672.898 106.566 671.094 107.352 668.996 107.352C667.121 107.352 665.58 106.824 664.373 105.77C663.178 104.703 662.58 103.355 662.58 101.727C662.58 99.7461 663.33 98.2109 664.83 97.1211C666.342 96.0195 668.463 95.4688 671.193 95.4688H674.357V93.9746C674.357 92.8379 674.018 91.9355 673.338 91.2676C672.658 90.5879 671.656 90.248 670.332 90.248C669.172 90.248 668.199 90.541 667.414 91.127C666.629 91.7129 666.236 92.4219 666.236 93.2539H662.967C662.967 92.3047 663.301 91.3906 663.969 90.5117C664.648 89.6211 665.562 88.918 666.711 88.4023C667.871 87.8867 669.143 87.6289 670.525 87.6289C672.717 87.6289 674.434 88.1797 675.676 89.2812C676.918 90.3711 677.562 91.877 677.609 93.7988V102.553C677.609 104.299 677.832 105.688 678.277 106.719V107H674.867ZM669.471 104.521C670.49 104.521 671.457 104.258 672.371 103.73C673.285 103.203 673.947 102.518 674.357 101.674V97.7715H671.809C667.824 97.7715 665.832 98.9375 665.832 101.27C665.832 102.289 666.172 103.086 666.852 103.66C667.531 104.234 668.404 104.521 669.471 104.521ZM672.477 80H676.414L671.703 85.168H669.084L672.477 80Z" fill="white"/>
<path d="M685.783 87.9805L685.889 90.3711C687.342 88.543 689.24 87.6289 691.584 87.6289C695.604 87.6289 697.631 89.8965 697.666 94.4316V107H694.414V94.4141C694.402 93.043 694.086 92.0293 693.465 91.373C692.855 90.7168 691.9 90.3887 690.6 90.3887C689.545 90.3887 688.619 90.6699 687.822 91.2324C687.025 91.7949 686.404 92.5332 685.959 93.4473V107H682.707V87.9805H685.783Z" fill="white"/>
<path d="M706.982 83.375V87.9805H710.533V90.4941H706.982V102.289C706.982 103.051 707.141 103.625 707.457 104.012C707.773 104.387 708.312 104.574 709.074 104.574C709.449 104.574 709.965 104.504 710.621 104.363V107C709.766 107.234 708.934 107.352 708.125 107.352C706.672 107.352 705.576 106.912 704.838 106.033C704.1 105.154 703.73 103.906 703.73 102.289V90.4941H700.268V87.9805H703.73V83.375H706.982Z" fill="white"/>
<path d="M713.135 97.3145C713.135 95.4512 713.498 93.7754 714.225 92.2871C714.963 90.7988 715.982 89.6504 717.283 88.8418C718.596 88.0332 720.09 87.6289 721.766 87.6289C724.355 87.6289 726.447 88.5254 728.041 90.3184C729.646 92.1113 730.449 94.4961 730.449 97.4727V97.7012C730.449 99.5527 730.092 101.217 729.377 102.693C728.674 104.158 727.66 105.301 726.336 106.121C725.023 106.941 723.512 107.352 721.801 107.352C719.223 107.352 717.131 106.455 715.525 104.662C713.932 102.869 713.135 100.496 713.135 97.543V97.3145ZM716.404 97.7012C716.404 99.8105 716.891 101.504 717.863 102.781C718.848 104.059 720.16 104.697 721.801 104.697C723.453 104.697 724.766 104.053 725.738 102.764C726.711 101.463 727.197 99.6465 727.197 97.3145C727.197 95.2285 726.699 93.541 725.703 92.252C724.719 90.9512 723.406 90.3008 721.766 90.3008C720.16 90.3008 718.865 90.9395 717.881 92.2168C716.896 93.4941 716.404 95.3223 716.404 97.7012Z" fill="white"/>
<path d="M745.602 101.955C745.602 101.076 745.268 100.396 744.6 99.916C743.943 99.4238 742.789 99.002 741.137 98.6504C739.496 98.2988 738.189 97.877 737.217 97.3848C736.256 96.8926 735.541 96.3066 735.072 95.627C734.615 94.9473 734.387 94.1387 734.387 93.2012C734.387 91.6426 735.043 90.3242 736.355 89.2461C737.68 88.168 739.367 87.6289 741.418 87.6289C743.574 87.6289 745.32 88.1855 746.656 89.2988C748.004 90.4121 748.678 91.8359 748.678 93.5703H745.408C745.408 92.6797 745.027 91.9121 744.266 91.2676C743.516 90.623 742.566 90.3008 741.418 90.3008C740.234 90.3008 739.309 90.5586 738.641 91.0742C737.973 91.5898 737.639 92.2637 737.639 93.0957C737.639 93.8809 737.949 94.4727 738.57 94.8711C739.191 95.2695 740.311 95.6504 741.928 96.0137C743.557 96.377 744.875 96.8105 745.883 97.3145C746.891 97.8184 747.635 98.4277 748.115 99.1426C748.607 99.8457 748.854 100.707 748.854 101.727C748.854 103.426 748.174 104.791 746.814 105.822C745.455 106.842 743.691 107.352 741.523 107.352C740 107.352 738.652 107.082 737.48 106.543C736.309 106.004 735.389 105.254 734.721 104.293C734.064 103.32 733.736 102.271 733.736 101.146H736.988C737.047 102.236 737.48 103.104 738.289 103.748C739.109 104.381 740.188 104.697 741.523 104.697C742.754 104.697 743.738 104.451 744.477 103.959C745.227 103.455 745.602 102.787 745.602 101.955Z" fill="white"/>
<path d="M778.086 97.7012C778.086 100.596 777.424 102.928 776.1 104.697C774.775 106.467 772.982 107.352 770.721 107.352C768.412 107.352 766.596 106.619 765.271 105.154V114.312H762.02V87.9805H764.99L765.148 90.0898C766.473 88.4492 768.312 87.6289 770.668 87.6289C772.953 87.6289 774.758 88.4902 776.082 90.2129C777.418 91.9355 778.086 94.332 778.086 97.4023V97.7012ZM774.834 97.332C774.834 95.1875 774.377 93.4941 773.463 92.252C772.549 91.0098 771.295 90.3887 769.701 90.3887C767.732 90.3887 766.256 91.2617 765.271 93.0078V102.096C766.244 103.83 767.732 104.697 769.736 104.697C771.295 104.697 772.531 104.082 773.445 102.852C774.371 101.609 774.834 99.7695 774.834 97.332Z" fill="white"/>
<path d="M793.977 107C793.789 106.625 793.637 105.957 793.52 104.996C792.008 106.566 790.203 107.352 788.105 107.352C786.23 107.352 784.689 106.824 783.482 105.77C782.287 104.703 781.689 103.355 781.689 101.727C781.689 99.7461 782.439 98.2109 783.939 97.1211C785.451 96.0195 787.572 95.4688 790.303 95.4688H793.467V93.9746C793.467 92.8379 793.127 91.9355 792.447 91.2676C791.768 90.5879 790.766 90.248 789.441 90.248C788.281 90.248 787.309 90.541 786.523 91.127C785.738 91.7129 785.346 92.4219 785.346 93.2539H782.076C782.076 92.3047 782.41 91.3906 783.078 90.5117C783.758 89.6211 784.672 88.918 785.82 88.4023C786.98 87.8867 788.252 87.6289 789.635 87.6289C791.826 87.6289 793.543 88.1797 794.785 89.2812C796.027 90.3711 796.672 91.877 796.719 93.7988V102.553C796.719 104.299 796.941 105.688 797.387 106.719V107H793.977ZM788.58 104.521C789.6 104.521 790.566 104.258 791.48 103.73C792.395 103.203 793.057 102.518 793.467 101.674V97.7715H790.918C786.934 97.7715 784.941 98.9375 784.941 101.27C784.941 102.289 785.281 103.086 785.961 103.66C786.641 104.234 787.514 104.521 788.58 104.521Z" fill="white"/>
<path d="M811.01 90.8984C810.518 90.8164 809.984 90.7754 809.41 90.7754C807.277 90.7754 805.83 91.6836 805.068 93.5V107H801.816V87.9805H804.98L805.033 90.1777C806.1 88.4785 807.611 87.6289 809.568 87.6289C810.201 87.6289 810.682 87.7109 811.01 87.875V90.8984Z" fill="white"/>
<path d="M819.307 83.375V87.9805H822.857V90.4941H819.307V102.289C819.307 103.051 819.465 103.625 819.781 104.012C820.098 104.387 820.637 104.574 821.398 104.574C821.773 104.574 822.289 104.504 822.945 104.363V107C822.09 107.234 821.258 107.352 820.449 107.352C818.996 107.352 817.9 106.912 817.162 106.033C816.424 105.154 816.055 103.906 816.055 102.289V90.4941H812.592V87.9805H816.055V83.375H819.307Z" fill="white"/>
<path d="M830.205 107H826.953V87.9805H830.205V107ZM826.689 82.9355C826.689 82.4082 826.848 81.9629 827.164 81.5996C827.492 81.2363 827.973 81.0547 828.605 81.0547C829.238 81.0547 829.719 81.2363 830.047 81.5996C830.375 81.9629 830.539 82.4082 830.539 82.9355C830.539 83.4629 830.375 83.9023 830.047 84.2539C829.719 84.6055 829.238 84.7812 828.605 84.7812C827.973 84.7812 827.492 84.6055 827.164 84.2539C826.848 83.9023 826.689 83.4629 826.689 82.9355Z" fill="white"/>
<path d="M834.635 97.332C834.635 94.4141 835.326 92.0703 836.709 90.3008C838.092 88.5195 839.902 87.6289 842.141 87.6289C844.367 87.6289 846.131 88.3906 847.432 89.9141V80H850.684V107H847.695L847.537 104.961C846.236 106.555 844.426 107.352 842.105 107.352C839.902 107.352 838.104 106.449 836.709 104.645C835.326 102.84 834.635 100.484 834.635 97.5781V97.332ZM837.887 97.7012C837.887 99.8574 838.332 101.545 839.223 102.764C840.113 103.982 841.344 104.592 842.914 104.592C844.977 104.592 846.482 103.666 847.432 101.814V93.0781C846.459 91.2852 844.965 90.3887 842.949 90.3887C841.355 90.3887 840.113 91.0039 839.223 92.2344C838.332 93.4648 837.887 95.2871 837.887 97.7012Z" fill="white"/>
<path d="M854.885 97.3145C854.885 95.4512 855.248 93.7754 855.975 92.2871C856.713 90.7988 857.732 89.6504 859.033 88.8418C860.346 88.0332 861.84 87.6289 863.516 87.6289C866.105 87.6289 868.197 88.5254 869.791 90.3184C871.396 92.1113 872.199 94.4961 872.199 97.4727V97.7012C872.199 99.5527 871.842 101.217 871.127 102.693C870.424 104.158 869.41 105.301 868.086 106.121C866.773 106.941 865.262 107.352 863.551 107.352C860.973 107.352 858.881 106.455 857.275 104.662C855.682 102.869 854.885 100.496 854.885 97.543V97.3145ZM858.154 97.7012C858.154 99.8105 858.641 101.504 859.613 102.781C860.598 104.059 861.91 104.697 863.551 104.697C865.203 104.697 866.516 104.053 867.488 102.764C868.461 101.463 868.947 99.6465 868.947 97.3145C868.947 95.2285 868.449 93.541 867.453 92.252C866.469 90.9512 865.156 90.3008 863.516 90.3008C861.91 90.3008 860.615 90.9395 859.631 92.2168C858.646 93.4941 858.154 95.3223 858.154 97.7012Z" fill="white"/>
<path d="M887.352 101.955C887.352 101.076 887.018 100.396 886.35 99.916C885.693 99.4238 884.539 99.002 882.887 98.6504C881.246 98.2988 879.939 97.877 878.967 97.3848C878.006 96.8926 877.291 96.3066 876.822 95.627C876.365 94.9473 876.137 94.1387 876.137 93.2012C876.137 91.6426 876.793 90.3242 878.105 89.2461C879.43 88.168 881.117 87.6289 883.168 87.6289C885.324 87.6289 887.07 88.1855 888.406 89.2988C889.754 90.4121 890.428 91.8359 890.428 93.5703H887.158C887.158 92.6797 886.777 91.9121 886.016 91.2676C885.266 90.623 884.316 90.3008 883.168 90.3008C881.984 90.3008 881.059 90.5586 880.391 91.0742C879.723 91.5898 879.389 92.2637 879.389 93.0957C879.389 93.8809 879.699 94.4727 880.32 94.8711C880.941 95.2695 882.061 95.6504 883.678 96.0137C885.307 96.377 886.625 96.8105 887.633 97.3145C888.641 97.8184 889.385 98.4277 889.865 99.1426C890.357 99.8457 890.604 100.707 890.604 101.727C890.604 103.426 889.924 104.791 888.564 105.822C887.205 106.842 885.441 107.352 883.273 107.352C881.75 107.352 880.402 107.082 879.23 106.543C878.059 106.004 877.139 105.254 876.471 104.293C875.814 103.32 875.486 102.271 875.486 101.146H878.738C878.797 102.236 879.23 103.104 880.039 103.748C880.859 104.381 881.938 104.697 883.273 104.697C884.504 104.697 885.488 104.451 886.227 103.959C886.977 103.455 887.352 102.787 887.352 101.955Z" fill="white"/>
<path d="M144.535 141.955C144.535 141.076 144.201 140.396 143.533 139.916C142.877 139.424 141.723 139.002 140.07 138.65C138.43 138.299 137.123 137.877 136.15 137.385C135.189 136.893 134.475 136.307 134.006 135.627C133.549 134.947 133.32 134.139 133.32 133.201C133.32 131.643 133.977 130.324 135.289 129.246C136.613 128.168 138.301 127.629 140.352 127.629C142.508 127.629 144.254 128.186 145.59 129.299C146.938 130.412 147.611 131.836 147.611 133.57H144.342C144.342 132.68 143.961 131.912 143.199 131.268C142.449 130.623 141.5 130.301 140.352 130.301C139.168 130.301 138.242 130.559 137.574 131.074C136.906 131.59 136.572 132.264 136.572 133.096C136.572 133.881 136.883 134.473 137.504 134.871C138.125 135.27 139.244 135.65 140.861 136.014C142.49 136.377 143.809 136.811 144.816 137.314C145.824 137.818 146.568 138.428 147.049 139.143C147.541 139.846 147.787 140.707 147.787 141.727C147.787 143.426 147.107 144.791 145.748 145.822C144.389 146.842 142.625 147.352 140.457 147.352C138.934 147.352 137.586 147.082 136.414 146.543C135.242 146.004 134.322 145.254 133.654 144.293C132.998 143.32 132.67 142.271 132.67 141.146H135.922C135.98 142.236 136.414 143.104 137.223 143.748C138.043 144.381 139.121 144.697 140.457 144.697C141.688 144.697 142.672 144.451 143.41 143.959C144.16 143.455 144.535 142.787 144.535 141.955Z" fill="white"/>
<path d="M159.916 147.352C157.338 147.352 155.24 146.508 153.623 144.82C152.006 143.121 151.197 140.854 151.197 138.018V137.42C151.197 135.533 151.555 133.852 152.27 132.375C152.996 130.887 154.004 129.727 155.293 128.895C156.594 128.051 158 127.629 159.512 127.629C161.984 127.629 163.906 128.443 165.277 130.072C166.648 131.701 167.334 134.033 167.334 137.068V138.422H154.449C154.496 140.297 155.041 141.814 156.084 142.975C157.139 144.123 158.475 144.697 160.092 144.697C161.24 144.697 162.213 144.463 163.01 143.994C163.807 143.525 164.504 142.904 165.102 142.131L167.088 143.678C165.494 146.127 163.104 147.352 159.916 147.352ZM159.512 130.301C158.199 130.301 157.098 130.781 156.207 131.742C155.316 132.691 154.766 134.027 154.555 135.75H164.082V135.504C163.988 133.852 163.543 132.574 162.746 131.672C161.949 130.758 160.871 130.301 159.512 130.301Z" fill="white"/>
<path d="M189.236 130.898C188.744 130.816 188.211 130.775 187.637 130.775C185.504 130.775 184.057 131.684 183.295 133.5V147H180.043V127.98H183.207L183.26 130.178C184.326 128.479 185.838 127.629 187.795 127.629C188.428 127.629 188.908 127.711 189.236 127.875V130.898Z" fill="white"/>
<path d="M199.783 147.352C197.205 147.352 195.107 146.508 193.49 144.82C191.873 143.121 191.064 140.854 191.064 138.018V137.42C191.064 135.533 191.422 133.852 192.137 132.375C192.863 130.887 193.871 129.727 195.16 128.895C196.461 128.051 197.867 127.629 199.379 127.629C201.852 127.629 203.773 128.443 205.145 130.072C206.516 131.701 207.201 134.033 207.201 137.068V138.422H194.316C194.363 140.297 194.908 141.814 195.951 142.975C197.006 144.123 198.342 144.697 199.959 144.697C201.107 144.697 202.08 144.463 202.877 143.994C203.674 143.525 204.371 142.904 204.969 142.131L206.955 143.678C205.361 146.127 202.971 147.352 199.783 147.352ZM199.379 130.301C198.066 130.301 196.965 130.781 196.074 131.742C195.184 132.691 194.633 134.027 194.422 135.75H203.949V135.504C203.855 133.852 203.41 132.574 202.613 131.672C201.816 130.758 200.738 130.301 199.379 130.301Z" fill="white"/>
<path d="M222.723 147C222.535 146.625 222.383 145.957 222.266 144.996C220.754 146.566 218.949 147.352 216.852 147.352C214.977 147.352 213.436 146.824 212.229 145.77C211.033 144.703 210.436 143.355 210.436 141.727C210.436 139.746 211.186 138.211 212.686 137.121C214.197 136.02 216.318 135.469 219.049 135.469H222.213V133.975C222.213 132.838 221.873 131.936 221.193 131.268C220.514 130.588 219.512 130.248 218.188 130.248C217.027 130.248 216.055 130.541 215.27 131.127C214.484 131.713 214.092 132.422 214.092 133.254H210.822C210.822 132.305 211.156 131.391 211.824 130.512C212.504 129.621 213.418 128.918 214.566 128.402C215.727 127.887 216.998 127.629 218.381 127.629C220.572 127.629 222.289 128.18 223.531 129.281C224.773 130.371 225.418 131.877 225.465 133.799V142.553C225.465 144.299 225.688 145.688 226.133 146.719V147H222.723ZM217.326 144.521C218.346 144.521 219.312 144.258 220.227 143.73C221.141 143.203 221.803 142.518 222.213 141.674V137.771H219.664C215.68 137.771 213.688 138.938 213.688 141.27C213.688 142.289 214.027 143.086 214.707 143.66C215.387 144.234 216.26 144.521 217.326 144.521Z" fill="white"/>
<path d="M234.096 147H230.844V120H234.096V147Z" fill="white"/>
<path d="M242.85 147H239.598V127.98H242.85V147ZM239.334 122.936C239.334 122.408 239.492 121.963 239.809 121.6C240.137 121.236 240.617 121.055 241.25 121.055C241.883 121.055 242.363 121.236 242.691 121.6C243.02 121.963 243.184 122.408 243.184 122.936C243.184 123.463 243.02 123.902 242.691 124.254C242.363 124.605 241.883 124.781 241.25 124.781C240.617 124.781 240.137 124.605 239.809 124.254C239.492 123.902 239.334 123.463 239.334 122.936Z" fill="white"/>
<path d="M251.129 144.346H262.256V147H247.156V144.609L257.65 130.67H247.314V127.98H261.729V130.283L251.129 144.346Z" fill="white"/>
<path d="M277.672 147C277.484 146.625 277.332 145.957 277.215 144.996C275.703 146.566 273.898 147.352 271.801 147.352C269.926 147.352 268.385 146.824 267.178 145.77C265.982 144.703 265.385 143.355 265.385 141.727C265.385 139.746 266.135 138.211 267.635 137.121C269.146 136.02 271.268 135.469 273.998 135.469H277.162V133.975C277.162 132.838 276.822 131.936 276.143 131.268C275.463 130.588 274.461 130.248 273.137 130.248C271.977 130.248 271.004 130.541 270.219 131.127C269.434 131.713 269.041 132.422 269.041 133.254H265.771C265.771 132.305 266.105 131.391 266.773 130.512C267.453 129.621 268.367 128.918 269.516 128.402C270.676 127.887 271.947 127.629 273.33 127.629C275.521 127.629 277.238 128.18 278.48 129.281C279.723 130.371 280.367 131.877 280.414 133.799V142.553C280.414 144.299 280.637 145.688 281.082 146.719V147H277.672ZM272.275 144.521C273.295 144.521 274.262 144.258 275.176 143.73C276.09 143.203 276.752 142.518 277.162 141.674V137.771H274.613C270.629 137.771 268.637 138.938 268.637 141.27C268.637 142.289 268.977 143.086 269.656 143.66C270.336 144.234 271.209 144.521 272.275 144.521Z" fill="white"/>
<path d="M294.705 130.898C294.213 130.816 293.68 130.775 293.105 130.775C290.973 130.775 289.525 131.684 288.764 133.5V147H285.512V127.98H288.676L288.729 130.178C289.795 128.479 291.307 127.629 293.264 127.629C293.896 127.629 294.377 127.711 294.705 127.875V130.898Z" fill="white"/>
<path d="M296.498 137.314C296.498 135.451 296.861 133.775 297.588 132.287C298.326 130.799 299.346 129.65 300.646 128.842C301.959 128.033 303.453 127.629 305.129 127.629C307.719 127.629 309.811 128.525 311.404 130.318C313.01 132.111 313.812 134.496 313.812 137.473V137.701C313.812 139.553 313.455 141.217 312.74 142.693C312.037 144.158 311.023 145.301 309.699 146.121C308.387 146.941 306.875 147.352 305.164 147.352C302.586 147.352 300.494 146.455 298.889 144.662C297.295 142.869 296.498 140.496 296.498 137.543V137.314ZM299.768 137.701C299.768 139.811 300.254 141.504 301.227 142.781C302.211 144.059 303.523 144.697 305.164 144.697C306.816 144.697 308.129 144.053 309.102 142.764C310.074 141.463 310.561 139.646 310.561 137.314C310.561 135.229 310.062 133.541 309.066 132.252C308.082 130.951 306.77 130.301 305.129 130.301C303.523 130.301 302.229 130.939 301.244 132.217C300.26 133.494 299.768 135.322 299.768 137.701Z" fill="white"/>
<path d="M320.967 127.98L321.072 130.371C322.525 128.543 324.424 127.629 326.768 127.629C330.787 127.629 332.814 129.896 332.85 134.432V147H329.598V134.414C329.586 133.043 329.27 132.029 328.648 131.373C328.039 130.717 327.084 130.389 325.783 130.389C324.729 130.389 323.803 130.67 323.006 131.232C322.209 131.795 321.588 132.533 321.143 133.447V147H317.891V127.98H320.967Z" fill="white"/>
<path d="M341.568 139.793C341.592 138.398 341.75 137.297 342.043 136.488C342.336 135.68 342.934 134.783 343.836 133.799L346.139 131.426C347.123 130.312 347.615 129.117 347.615 127.84C347.615 126.609 347.293 125.648 346.648 124.957C346.004 124.254 345.066 123.902 343.836 123.902C342.641 123.902 341.68 124.219 340.953 124.852C340.227 125.484 339.863 126.334 339.863 127.4H336.611C336.635 125.502 337.309 123.973 338.633 122.812C339.969 121.641 341.703 121.055 343.836 121.055C346.051 121.055 347.773 121.652 349.004 122.848C350.246 124.031 350.867 125.66 350.867 127.734C350.867 129.785 349.918 131.807 348.02 133.799L346.104 135.697C345.248 136.646 344.82 138.012 344.82 139.793H341.568ZM341.428 145.365C341.428 144.838 341.586 144.398 341.902 144.047C342.23 143.684 342.711 143.502 343.344 143.502C343.977 143.502 344.457 143.684 344.785 144.047C345.113 144.398 345.277 144.838 345.277 145.365C345.277 145.893 345.113 146.332 344.785 146.684C344.457 147.023 343.977 147.193 343.344 147.193C342.711 147.193 342.23 147.023 341.902 146.684C341.586 146.332 341.428 145.893 341.428 145.365Z" fill="white"/>
</g>
</g>
</g>
</svg>
