<svg viewBox="0 0 900 398" fill="none" xmlns="http://www.w3.org/2000/svg">
<g id="0121201">
<g id="tabla">
<g id="Tabla Campanadas">
<path id="Rectangle 1" d="M0 90.0685H900V140.069H0V90.0685Z" fill="#FA5712" fill-opacity="0.1"/>
<path id="Rectangle 1 (Stroke)" fill-rule="evenodd" clip-rule="evenodd" d="M896 94.0685H4V136.069H896V94.0685ZM0 90.0685V140.069H900V90.0685H0Z" fill="#FA5712"/>
<path id="Rectangle 2 (Stroke)" fill-rule="evenodd" clip-rule="evenodd" d="M896 144.069H4V186.069H896V144.069ZM0 140.069V190.069H900V140.069H0Z" fill="#FA5712"/>
<path id="Rectangle 3 (Stroke)" fill-rule="evenodd" clip-rule="evenodd" d="M896 194.069H4V236.069H896V194.069ZM0 190.069V240.069H900V190.069H0Z" fill="#FA5712"/>
<path id="Line 3 (Stroke)" fill-rule="evenodd" clip-rule="evenodd" d="M332 236.069L330 90.0685L335 90L337 236L332 236.069Z" fill="#FA5712"/>
<path id="Line 4 (Stroke)" fill-rule="evenodd" clip-rule="evenodd" d="M681 236.069L679 90.0685L684 90L686 236L681 236.069Z" fill="#FA5712"/>
</g>
<g id="# Campanadas">
<path d="M48.7363 119.861H44.0957L42.6895 127.069H40.1758L41.582 119.861H37.3809V117.453H42.0391L43.252 111.231H38.7168V108.787H43.7266L45.168 101.475H47.6816L46.2402 108.787H50.8809L52.3223 101.475H54.8535L53.4121 108.787H56.998V111.231H52.9375L51.7246 117.453H55.6797V119.861H51.2676L49.8613 127.069H47.3301L48.7363 119.861ZM44.5527 117.453H49.1934L50.4062 111.231H45.7656L44.5527 117.453Z" fill="#FA5712"/>
<path d="M88.1992 118.947C87.8828 121.654 86.8809 123.746 85.1934 125.223C83.5176 126.688 81.2852 127.42 78.4961 127.42C75.4727 127.42 73.0469 126.336 71.2188 124.168C69.4023 122 68.4941 119.1 68.4941 115.467V113.006C68.4941 110.627 68.916 108.535 69.7598 106.731C70.6152 104.926 71.8223 103.543 73.3809 102.582C74.9395 101.61 76.7441 101.123 78.7949 101.123C81.5137 101.123 83.6934 101.885 85.334 103.408C86.9746 104.92 87.9297 107.018 88.1992 109.701H84.8066C84.5137 107.662 83.875 106.186 82.8906 105.272C81.918 104.358 80.5527 103.901 78.7949 103.901C76.6387 103.901 74.9453 104.697 73.7148 106.291C72.4961 107.885 71.8867 110.152 71.8867 113.094V115.572C71.8867 118.35 72.4668 120.559 73.627 122.199C74.7871 123.84 76.4102 124.66 78.4961 124.66C80.3711 124.66 81.8066 124.238 82.8027 123.395C83.8105 122.539 84.4785 121.057 84.8066 118.947H88.1992Z" fill="#FA5712"/>
<path d="M104.055 127.069C103.867 126.694 103.715 126.026 103.598 125.065C102.086 126.635 100.281 127.42 98.1836 127.42C96.3086 127.42 94.7676 126.893 93.5605 125.838C92.3652 124.772 91.7676 123.424 91.7676 121.795C91.7676 119.815 92.5176 118.279 94.0176 117.19C95.5293 116.088 97.6504 115.537 100.381 115.537H103.545V114.043C103.545 112.906 103.205 112.004 102.525 111.336C101.846 110.656 100.844 110.317 99.5195 110.317C98.3594 110.317 97.3867 110.61 96.6016 111.195C95.8164 111.781 95.4238 112.49 95.4238 113.322H92.1543C92.1543 112.373 92.4883 111.459 93.1562 110.58C93.8359 109.69 94.75 108.986 95.8984 108.471C97.0586 107.955 98.3301 107.697 99.7129 107.697C101.904 107.697 103.621 108.248 104.863 109.35C106.105 110.44 106.75 111.945 106.797 113.867V122.621C106.797 124.367 107.02 125.756 107.465 126.787V127.069H104.055ZM98.6582 124.59C99.6777 124.59 100.645 124.326 101.559 123.799C102.473 123.272 103.135 122.586 103.545 121.742V117.84H100.996C97.0117 117.84 95.0195 119.006 95.0195 121.338C95.0195 122.358 95.3594 123.154 96.0391 123.729C96.7188 124.303 97.5918 124.59 98.6582 124.59Z" fill="#FA5712"/>
<path d="M114.953 108.049L115.041 110.158C116.436 108.518 118.316 107.697 120.684 107.697C123.344 107.697 125.154 108.717 126.115 110.756C126.748 109.842 127.568 109.104 128.576 108.541C129.596 107.979 130.797 107.697 132.18 107.697C136.352 107.697 138.473 109.906 138.543 114.324V127.069H135.291V114.518C135.291 113.158 134.98 112.145 134.359 111.477C133.738 110.797 132.695 110.457 131.23 110.457C130.023 110.457 129.021 110.82 128.225 111.547C127.428 112.262 126.965 113.229 126.836 114.447V127.069H123.566V114.606C123.566 111.84 122.213 110.457 119.506 110.457C117.373 110.457 115.914 111.365 115.129 113.182V127.069H111.877V108.049H114.953Z" fill="#FA5712"/>
<path d="M159.531 117.77C159.531 120.664 158.869 122.996 157.545 124.766C156.221 126.535 154.428 127.42 152.166 127.42C149.857 127.42 148.041 126.688 146.717 125.223V134.381H143.465V108.049H146.436L146.594 110.158C147.918 108.518 149.758 107.697 152.113 107.697C154.398 107.697 156.203 108.559 157.527 110.281C158.863 112.004 159.531 114.401 159.531 117.471V117.77ZM156.279 117.401C156.279 115.256 155.822 113.563 154.908 112.32C153.994 111.078 152.74 110.457 151.146 110.457C149.178 110.457 147.701 111.33 146.717 113.076V122.164C147.689 123.899 149.178 124.766 151.182 124.766C152.74 124.766 153.977 124.151 154.891 122.92C155.816 121.678 156.279 119.838 156.279 117.401Z" fill="#FA5712"/>
<path d="M175.422 127.069C175.234 126.694 175.082 126.026 174.965 125.065C173.453 126.635 171.648 127.42 169.551 127.42C167.676 127.42 166.135 126.893 164.928 125.838C163.732 124.772 163.135 123.424 163.135 121.795C163.135 119.815 163.885 118.279 165.385 117.19C166.896 116.088 169.018 115.537 171.748 115.537H174.912V114.043C174.912 112.906 174.572 112.004 173.893 111.336C173.213 110.656 172.211 110.317 170.887 110.317C169.727 110.317 168.754 110.61 167.969 111.195C167.184 111.781 166.791 112.49 166.791 113.322H163.521C163.521 112.373 163.855 111.459 164.523 110.58C165.203 109.69 166.117 108.986 167.266 108.471C168.426 107.955 169.697 107.697 171.08 107.697C173.271 107.697 174.988 108.248 176.23 109.35C177.473 110.44 178.117 111.945 178.164 113.867V122.621C178.164 124.367 178.387 125.756 178.832 126.787V127.069H175.422ZM170.025 124.59C171.045 124.59 172.012 124.326 172.926 123.799C173.84 123.272 174.502 122.586 174.912 121.742V117.84H172.363C168.379 117.84 166.387 119.006 166.387 121.338C166.387 122.358 166.727 123.154 167.406 123.729C168.086 124.303 168.959 124.59 170.025 124.59Z" fill="#FA5712"/>
<path d="M186.338 108.049L186.443 110.44C187.896 108.611 189.795 107.697 192.139 107.697C196.158 107.697 198.186 109.965 198.221 114.5V127.069H194.969V114.483C194.957 113.111 194.641 112.098 194.02 111.442C193.41 110.785 192.455 110.457 191.154 110.457C190.1 110.457 189.174 110.738 188.377 111.301C187.58 111.863 186.959 112.602 186.514 113.516V127.069H183.262V108.049H186.338Z" fill="#FA5712"/>
<path d="M214.867 127.069C214.68 126.694 214.527 126.026 214.41 125.065C212.898 126.635 211.094 127.42 208.996 127.42C207.121 127.42 205.58 126.893 204.373 125.838C203.178 124.772 202.58 123.424 202.58 121.795C202.58 119.815 203.33 118.279 204.83 117.19C206.342 116.088 208.463 115.537 211.193 115.537H214.357V114.043C214.357 112.906 214.018 112.004 213.338 111.336C212.658 110.656 211.656 110.317 210.332 110.317C209.172 110.317 208.199 110.61 207.414 111.195C206.629 111.781 206.236 112.49 206.236 113.322H202.967C202.967 112.373 203.301 111.459 203.969 110.58C204.648 109.69 205.562 108.986 206.711 108.471C207.871 107.955 209.143 107.697 210.525 107.697C212.717 107.697 214.434 108.248 215.676 109.35C216.918 110.44 217.562 111.945 217.609 113.867V122.621C217.609 124.367 217.832 125.756 218.277 126.787V127.069H214.867ZM209.471 124.59C210.49 124.59 211.457 124.326 212.371 123.799C213.285 123.272 213.947 122.586 214.357 121.742V117.84H211.809C207.824 117.84 205.832 119.006 205.832 121.338C205.832 122.358 206.172 123.154 206.852 123.729C207.531 124.303 208.404 124.59 209.471 124.59Z" fill="#FA5712"/>
<path d="M221.916 117.401C221.916 114.483 222.607 112.139 223.99 110.369C225.373 108.588 227.184 107.697 229.422 107.697C231.648 107.697 233.412 108.459 234.713 109.983V100.069H237.965V127.069H234.977L234.818 125.029C233.518 126.623 231.707 127.42 229.387 127.42C227.184 127.42 225.385 126.518 223.99 124.713C222.607 122.908 221.916 120.553 221.916 117.647V117.401ZM225.168 117.77C225.168 119.926 225.613 121.613 226.504 122.832C227.395 124.051 228.625 124.66 230.195 124.66C232.258 124.66 233.764 123.735 234.713 121.883V113.147C233.74 111.354 232.246 110.457 230.23 110.457C228.637 110.457 227.395 111.072 226.504 112.303C225.613 113.533 225.168 115.356 225.168 117.77Z" fill="#FA5712"/>
<path d="M254.77 127.069C254.582 126.694 254.43 126.026 254.312 125.065C252.801 126.635 250.996 127.42 248.898 127.42C247.023 127.42 245.482 126.893 244.275 125.838C243.08 124.772 242.482 123.424 242.482 121.795C242.482 119.815 243.232 118.279 244.732 117.19C246.244 116.088 248.365 115.537 251.096 115.537H254.26V114.043C254.26 112.906 253.92 112.004 253.24 111.336C252.561 110.656 251.559 110.317 250.234 110.317C249.074 110.317 248.102 110.61 247.316 111.195C246.531 111.781 246.139 112.49 246.139 113.322H242.869C242.869 112.373 243.203 111.459 243.871 110.58C244.551 109.69 245.465 108.986 246.613 108.471C247.773 107.955 249.045 107.697 250.428 107.697C252.619 107.697 254.336 108.248 255.578 109.35C256.82 110.44 257.465 111.945 257.512 113.867V122.621C257.512 124.367 257.734 125.756 258.18 126.787V127.069H254.77ZM249.373 124.59C250.393 124.59 251.359 124.326 252.273 123.799C253.188 123.272 253.85 122.586 254.26 121.742V117.84H251.711C247.727 117.84 245.734 119.006 245.734 121.338C245.734 122.358 246.074 123.154 246.754 123.729C247.434 124.303 248.307 124.59 249.373 124.59Z" fill="#FA5712"/>
<path d="M273.684 122.024C273.684 121.145 273.35 120.465 272.682 119.985C272.025 119.492 270.871 119.07 269.219 118.719C267.578 118.367 266.271 117.945 265.299 117.453C264.338 116.961 263.623 116.375 263.154 115.695C262.697 115.016 262.469 114.207 262.469 113.27C262.469 111.711 263.125 110.393 264.438 109.315C265.762 108.236 267.449 107.697 269.5 107.697C271.656 107.697 273.402 108.254 274.738 109.367C276.086 110.481 276.76 111.904 276.76 113.639H273.49C273.49 112.748 273.109 111.981 272.348 111.336C271.598 110.692 270.648 110.369 269.5 110.369C268.316 110.369 267.391 110.627 266.723 111.143C266.055 111.658 265.721 112.332 265.721 113.164C265.721 113.949 266.031 114.541 266.652 114.94C267.273 115.338 268.393 115.719 270.01 116.082C271.639 116.445 272.957 116.879 273.965 117.383C274.973 117.887 275.717 118.496 276.197 119.211C276.689 119.914 276.936 120.776 276.936 121.795C276.936 123.494 276.256 124.86 274.896 125.891C273.537 126.91 271.773 127.42 269.605 127.42C268.082 127.42 266.734 127.151 265.562 126.611C264.391 126.072 263.471 125.322 262.803 124.361C262.146 123.389 261.818 122.34 261.818 121.215H265.07C265.129 122.305 265.562 123.172 266.371 123.817C267.191 124.449 268.27 124.766 269.605 124.766C270.836 124.766 271.82 124.52 272.559 124.027C273.309 123.524 273.684 122.856 273.684 122.024Z" fill="#FA5712"/>
</g>
<g id="# Intervalos">
<path d="M408.57 119.861H403.93L402.523 127.069H400.01L401.416 119.861H397.215V117.453H401.873L403.086 111.231H398.551V108.787H403.561L405.002 101.475H407.516L406.074 108.787H410.715L412.156 101.475H414.688L413.246 108.787H416.832V111.231H412.771L411.559 117.453H415.514V119.861H411.102L409.695 127.069H407.164L408.57 119.861ZM404.387 117.453H409.027L410.24 111.231H405.6L404.387 117.453Z" fill="#FA5712"/>
<path d="M432.828 127.069H429.453V101.475H432.828V127.069Z" fill="#FA5712"/>
<path d="M441.582 108.049L441.688 110.44C443.141 108.611 445.039 107.697 447.383 107.697C451.402 107.697 453.43 109.965 453.465 114.5V127.069H450.213V114.483C450.201 113.111 449.885 112.098 449.264 111.442C448.654 110.785 447.699 110.457 446.398 110.457C445.344 110.457 444.418 110.738 443.621 111.301C442.824 111.863 442.203 112.602 441.758 113.516V127.069H438.506V108.049H441.582Z" fill="#FA5712"/>
<path d="M462.781 103.444V108.049H466.332V110.563H462.781V122.358C462.781 123.119 462.939 123.694 463.256 124.08C463.572 124.455 464.111 124.643 464.873 124.643C465.248 124.643 465.764 124.572 466.42 124.432V127.069C465.564 127.303 464.732 127.42 463.924 127.42C462.471 127.42 461.375 126.981 460.637 126.102C459.898 125.223 459.529 123.975 459.529 122.358V110.563H456.066V108.049H459.529V103.444H462.781Z" fill="#FA5712"/>
<path d="M478.039 127.42C475.461 127.42 473.363 126.576 471.746 124.889C470.129 123.19 469.32 120.922 469.32 118.086V117.488C469.32 115.602 469.678 113.92 470.393 112.444C471.119 110.955 472.127 109.795 473.416 108.963C474.717 108.119 476.123 107.697 477.635 107.697C480.107 107.697 482.029 108.512 483.4 110.141C484.771 111.77 485.457 114.102 485.457 117.137V118.49H472.572C472.619 120.365 473.164 121.883 474.207 123.043C475.262 124.192 476.598 124.766 478.215 124.766C479.363 124.766 480.336 124.531 481.133 124.063C481.93 123.594 482.627 122.973 483.225 122.199L485.211 123.746C483.617 126.195 481.227 127.42 478.039 127.42ZM477.635 110.369C476.322 110.369 475.221 110.85 474.33 111.811C473.439 112.76 472.889 114.096 472.678 115.819H482.205V115.572C482.111 113.92 481.666 112.643 480.869 111.74C480.072 110.826 478.994 110.369 477.635 110.369Z" fill="#FA5712"/>
<path d="M498.43 110.967C497.938 110.885 497.404 110.844 496.83 110.844C494.697 110.844 493.25 111.752 492.488 113.569V127.069H489.236V108.049H492.4L492.453 110.246C493.52 108.547 495.031 107.697 496.988 107.697C497.621 107.697 498.102 107.779 498.43 107.944V110.967Z" fill="#FA5712"/>
<path d="M508.027 122.656L512.738 108.049H516.061L509.24 127.069H506.762L499.871 108.049H503.193L508.027 122.656Z" fill="#FA5712"/>
<path d="M530.65 127.069C530.463 126.694 530.311 126.026 530.193 125.065C528.682 126.635 526.877 127.42 524.779 127.42C522.904 127.42 521.363 126.893 520.156 125.838C518.961 124.772 518.363 123.424 518.363 121.795C518.363 119.815 519.113 118.279 520.613 117.19C522.125 116.088 524.246 115.537 526.977 115.537H530.141V114.043C530.141 112.906 529.801 112.004 529.121 111.336C528.441 110.656 527.439 110.317 526.115 110.317C524.955 110.317 523.982 110.61 523.197 111.195C522.412 111.781 522.02 112.49 522.02 113.322H518.75C518.75 112.373 519.084 111.459 519.752 110.58C520.432 109.69 521.346 108.986 522.494 108.471C523.654 107.955 524.926 107.697 526.309 107.697C528.5 107.697 530.217 108.248 531.459 109.35C532.701 110.44 533.346 111.945 533.393 113.867V122.621C533.393 124.367 533.615 125.756 534.061 126.787V127.069H530.65ZM525.254 124.59C526.273 124.59 527.24 124.326 528.154 123.799C529.068 123.272 529.73 122.586 530.141 121.742V117.84H527.592C523.607 117.84 521.615 119.006 521.615 121.338C521.615 122.358 521.955 123.154 522.635 123.729C523.314 124.303 524.188 124.59 525.254 124.59Z" fill="#FA5712"/>
<path d="M542.023 127.069H538.771V100.069H542.023V127.069Z" fill="#FA5712"/>
<path d="M546.383 117.383C546.383 115.52 546.746 113.844 547.473 112.356C548.211 110.867 549.23 109.719 550.531 108.91C551.844 108.102 553.338 107.697 555.014 107.697C557.604 107.697 559.695 108.594 561.289 110.387C562.895 112.18 563.697 114.565 563.697 117.541V117.77C563.697 119.621 563.34 121.285 562.625 122.762C561.922 124.227 560.908 125.369 559.584 126.19C558.271 127.01 556.76 127.42 555.049 127.42C552.471 127.42 550.379 126.524 548.773 124.731C547.18 122.938 546.383 120.565 546.383 117.611V117.383ZM549.652 117.77C549.652 119.879 550.139 121.572 551.111 122.85C552.096 124.127 553.408 124.766 555.049 124.766C556.701 124.766 558.014 124.121 558.986 122.832C559.959 121.531 560.445 119.715 560.445 117.383C560.445 115.297 559.947 113.61 558.951 112.32C557.967 111.02 556.654 110.369 555.014 110.369C553.408 110.369 552.113 111.008 551.129 112.285C550.145 113.563 549.652 115.391 549.652 117.77Z" fill="#FA5712"/>
<path d="M578.85 122.024C578.85 121.145 578.516 120.465 577.848 119.985C577.191 119.492 576.037 119.07 574.385 118.719C572.744 118.367 571.438 117.945 570.465 117.453C569.504 116.961 568.789 116.375 568.32 115.695C567.863 115.016 567.635 114.207 567.635 113.27C567.635 111.711 568.291 110.393 569.604 109.315C570.928 108.236 572.615 107.697 574.666 107.697C576.822 107.697 578.568 108.254 579.904 109.367C581.252 110.481 581.926 111.904 581.926 113.639H578.656C578.656 112.748 578.275 111.981 577.514 111.336C576.764 110.692 575.814 110.369 574.666 110.369C573.482 110.369 572.557 110.627 571.889 111.143C571.221 111.658 570.887 112.332 570.887 113.164C570.887 113.949 571.197 114.541 571.818 114.94C572.439 115.338 573.559 115.719 575.176 116.082C576.805 116.445 578.123 116.879 579.131 117.383C580.139 117.887 580.883 118.496 581.363 119.211C581.855 119.914 582.102 120.776 582.102 121.795C582.102 123.494 581.422 124.86 580.062 125.891C578.703 126.91 576.939 127.42 574.771 127.42C573.248 127.42 571.9 127.151 570.729 126.611C569.557 126.072 568.637 125.322 567.969 124.361C567.312 123.389 566.984 122.34 566.984 121.215H570.236C570.295 122.305 570.729 123.172 571.537 123.817C572.357 124.449 573.436 124.766 574.771 124.766C576.002 124.766 576.986 124.52 577.725 124.027C578.475 123.524 578.85 122.856 578.85 122.024Z" fill="#FA5712"/>
</g>
<g id="Tiempo">
<path d="M747.834 104.252H739.607V127.069H736.25V104.252H728.041V101.475H747.834V104.252Z" fill="#FA5712"/>
<path d="M754.654 127.069H751.402V108.049H754.654V127.069ZM751.139 103.004C751.139 102.477 751.297 102.031 751.613 101.668C751.941 101.305 752.422 101.123 753.055 101.123C753.688 101.123 754.168 101.305 754.496 101.668C754.824 102.031 754.988 102.477 754.988 103.004C754.988 103.531 754.824 103.971 754.496 104.322C754.168 104.674 753.688 104.85 753.055 104.85C752.422 104.85 751.941 104.674 751.613 104.322C751.297 103.971 751.139 103.531 751.139 103.004Z" fill="#FA5712"/>
<path d="M767.768 127.42C765.189 127.42 763.092 126.576 761.475 124.889C759.857 123.19 759.049 120.922 759.049 118.086V117.488C759.049 115.602 759.406 113.92 760.121 112.444C760.848 110.955 761.855 109.795 763.145 108.963C764.445 108.119 765.852 107.697 767.363 107.697C769.836 107.697 771.758 108.512 773.129 110.141C774.5 111.77 775.186 114.102 775.186 117.137V118.49H762.301C762.348 120.365 762.893 121.883 763.936 123.043C764.99 124.192 766.326 124.766 767.943 124.766C769.092 124.766 770.064 124.531 770.861 124.063C771.658 123.594 772.355 122.973 772.953 122.199L774.939 123.746C773.346 126.195 770.955 127.42 767.768 127.42ZM767.363 110.369C766.051 110.369 764.949 110.85 764.059 111.811C763.168 112.76 762.617 114.096 762.406 115.819H771.934V115.572C771.84 113.92 771.395 112.643 770.598 111.74C769.801 110.826 768.723 110.369 767.363 110.369Z" fill="#FA5712"/>
<path d="M782.023 108.049L782.111 110.158C783.506 108.518 785.387 107.697 787.754 107.697C790.414 107.697 792.225 108.717 793.186 110.756C793.818 109.842 794.639 109.104 795.646 108.541C796.666 107.979 797.867 107.697 799.25 107.697C803.422 107.697 805.543 109.906 805.613 114.324V127.069H802.361V114.518C802.361 113.158 802.051 112.145 801.43 111.477C800.809 110.797 799.766 110.457 798.301 110.457C797.094 110.457 796.092 110.82 795.295 111.547C794.498 112.262 794.035 113.229 793.906 114.447V127.069H790.637V114.606C790.637 111.84 789.283 110.457 786.576 110.457C784.443 110.457 782.984 111.365 782.199 113.182V127.069H778.947V108.049H782.023Z" fill="#FA5712"/>
<path d="M826.602 117.77C826.602 120.664 825.939 122.996 824.615 124.766C823.291 126.535 821.498 127.42 819.236 127.42C816.928 127.42 815.111 126.688 813.787 125.223V134.381H810.535V108.049H813.506L813.664 110.158C814.988 108.518 816.828 107.697 819.184 107.697C821.469 107.697 823.273 108.559 824.598 110.281C825.934 112.004 826.602 114.401 826.602 117.471V117.77ZM823.35 117.401C823.35 115.256 822.893 113.563 821.979 112.32C821.064 111.078 819.811 110.457 818.217 110.457C816.248 110.457 814.771 111.33 813.787 113.076V122.164C814.76 123.899 816.248 124.766 818.252 124.766C819.811 124.766 821.047 124.151 821.961 122.92C822.887 121.678 823.35 119.838 823.35 117.401Z" fill="#FA5712"/>
<path d="M829.889 117.383C829.889 115.52 830.252 113.844 830.979 112.356C831.717 110.867 832.736 109.719 834.037 108.91C835.35 108.102 836.844 107.697 838.52 107.697C841.109 107.697 843.201 108.594 844.795 110.387C846.4 112.18 847.203 114.565 847.203 117.541V117.77C847.203 119.621 846.846 121.285 846.131 122.762C845.428 124.227 844.414 125.369 843.09 126.19C841.777 127.01 840.266 127.42 838.555 127.42C835.977 127.42 833.885 126.524 832.279 124.731C830.686 122.938 829.889 120.565 829.889 117.611V117.383ZM833.158 117.77C833.158 119.879 833.645 121.572 834.617 122.85C835.602 124.127 836.914 124.766 838.555 124.766C840.207 124.766 841.52 124.121 842.492 122.832C843.465 121.531 843.951 119.715 843.951 117.383C843.951 115.297 843.453 113.61 842.457 112.32C841.473 111.02 840.16 110.369 838.52 110.369C836.914 110.369 835.619 111.008 834.635 112.285C833.65 113.563 833.158 115.391 833.158 117.77Z" fill="#FA5712"/>
</g>
</g>
<g id="-1 \;\; +1">
<g id="Group">
<g id="Group 4">
<path id="Arrow 1 (Stroke)" fill-rule="evenodd" clip-rule="evenodd" d="M334.339 54.2877C288.047 53.5293 241.73 62.9292 182.667 84.8747L181.274 81.1252C240.641 59.0667 287.467 49.5192 334.404 50.2882C380.099 51.0368 425.765 61.5622 483.042 79.6365L476.995 67.923C476.489 66.9415 476.874 65.735 477.855 65.2284C478.837 64.7217 480.043 65.1066 480.55 66.0881L488.807 82.0825C489.313 83.064 488.928 84.2705 487.947 84.7771L471.952 93.0341C470.971 93.5408 469.765 93.1559 469.258 92.1744C468.751 91.1929 469.136 89.9864 470.118 89.4798L481.812 83.4427C424.674 65.4138 379.451 55.0267 334.339 54.2877Z" fill="#E79720"/>
<g id="Group_2">
<path id="Vector" d="M282 25.2427C282 25.2427 282 24.9878 282 24.4778C282 23.9679 282.275 23.5756 282.824 23.301H317.01C317.599 23.6148 317.893 24.0071 317.893 24.4778C317.893 24.9485 317.599 25.3408 317.01 25.6546H282.824C282.275 25.38 282 24.9878 282 24.4778V25.2427Z" fill="#E79720"/>
</g>
<g id="Group_3">
<path id="Vector_2" d="M335.369 5.17802L334.604 5.47222C334.055 5.66835 333.27 5.86449 332.25 6.06063C331.23 6.25676 330.093 6.39406 328.837 6.47252H327.719V3.76583H328.837C330.681 3.68738 332.387 3.39318 333.956 2.88322C335.526 2.37327 336.624 1.90254 337.252 1.47104C337.879 1.03954 338.428 0.608044 338.899 0.176544C338.978 0.0588625 339.213 2.28882e-05 339.605 2.28882e-05C339.958 2.28882e-05 340.292 0.117702 340.605 0.353065V17.9465L340.664 35.5987C340.939 35.8733 341.174 36.0498 341.37 36.1283C341.567 36.2067 342.037 36.2852 342.783 36.3637C343.528 36.4421 344.744 36.4813 346.431 36.4813H347.961V39.188H347.313C346.49 39.0703 343.371 39.0115 337.958 39.0115C332.623 39.0115 329.543 39.0703 328.72 39.188H328.014V36.4813H329.543C330.406 36.4813 331.152 36.4813 331.779 36.4813C332.407 36.4813 332.897 36.4617 333.25 36.4225C333.603 36.3833 333.917 36.3244 334.192 36.246C334.466 36.1675 334.623 36.1283 334.663 36.1283C334.702 36.1283 334.819 36.0302 335.016 35.8341C335.212 35.638 335.329 35.5595 335.369 35.5987V5.17802Z" fill="#E79720"/>
</g>
</g>
<g id="Group 5">
<path id="Arrow 2 (Stroke)" fill-rule="evenodd" clip-rule="evenodd" d="M337.691 282.712C383.983 283.471 430.3 274.071 489.362 252.125L490.756 255.875C431.389 277.933 384.563 287.481 337.625 286.712C291.93 285.963 246.265 275.438 188.987 257.364L195.034 269.077C195.541 270.059 195.156 271.265 194.174 271.772C193.193 272.278 191.986 271.893 191.48 270.912L183.223 254.917C182.716 253.936 183.101 252.73 184.083 252.223L200.077 243.966C201.059 243.459 202.265 243.844 202.772 244.826C203.278 245.807 202.893 247.014 201.912 247.52L190.217 253.557C247.355 271.586 292.578 281.973 337.691 282.712Z" fill="#E79720"/>
<g id="Group_4">
<path id="Vector_3" d="M282 323.243C282 323.243 282 322.988 282 322.478C282 321.968 282.275 321.576 282.824 321.301H300.417V312.475L300.476 303.649C300.868 303.139 301.241 302.884 301.594 302.884C302.104 302.884 302.496 303.178 302.771 303.766V321.301H320.305C320.894 321.615 321.188 322.007 321.188 322.478C321.188 322.949 320.894 323.341 320.305 323.655H302.771V341.189C302.457 341.738 302.104 342.013 301.712 342.013H301.594H301.476C301.006 342.013 300.653 341.738 300.417 341.189V323.655H282.824C282.275 323.38 282 322.988 282 322.478V323.243Z" fill="#E79720"/>
</g>
<g id="Group_5">
<path id="Vector_4" d="M350.091 303.178L349.326 303.472C348.776 303.668 347.992 303.864 346.972 304.061C345.952 304.257 344.815 304.394 343.559 304.473H342.441V301.766H343.559C345.403 301.687 347.109 301.393 348.678 300.883C350.248 300.373 351.346 299.903 351.973 299.471C352.601 299.04 353.15 298.608 353.621 298.177C353.699 298.059 353.935 298 354.327 298C354.68 298 355.014 298.118 355.327 298.353V315.946L355.386 333.599C355.661 333.873 355.896 334.05 356.092 334.128C356.288 334.207 356.759 334.285 357.505 334.364C358.25 334.442 359.466 334.481 361.153 334.481H362.683V337.188H362.035C361.212 337.07 358.093 337.011 352.68 337.011C347.345 337.011 344.265 337.07 343.442 337.188H342.735V334.481H344.265C345.128 334.481 345.874 334.481 346.501 334.481C347.129 334.481 347.619 334.462 347.972 334.422C348.325 334.383 348.639 334.324 348.914 334.246C349.188 334.168 349.345 334.128 349.385 334.128C349.424 334.128 349.541 334.03 349.738 333.834C349.934 333.638 350.051 333.56 350.091 333.599V303.178Z" fill="#E79720"/>
</g>
</g>
</g>
</g>
<g id="5 \;  4\;    5\; 13 \; x">
<g id="Group_6">
<g id="Group_7">
<path id="Vector_5" d="M780.584 170.932C780.584 171.716 780.323 172.369 779.8 172.891C779.278 173.414 778.641 173.675 777.89 173.675H777.547C779.049 176.255 781.041 177.545 783.523 177.545C785.809 177.545 787.474 176.565 788.519 174.606C789.14 173.528 789.45 171.438 789.45 168.336C789.45 164.973 789.009 162.703 788.127 161.527C787.278 160.45 786.331 159.911 785.286 159.911H784.992C782.445 159.911 780.519 161.021 779.212 163.242C779.082 163.47 778.968 163.601 778.87 163.634C778.772 163.666 778.527 163.699 778.135 163.732C777.58 163.732 777.27 163.634 777.204 163.438C777.139 163.307 777.106 160.45 777.106 154.866V148.547C777.106 146.914 777.188 146.098 777.351 146.098C777.416 146.033 777.482 146 777.547 146C777.58 146 777.923 146.131 778.576 146.392C779.229 146.653 780.127 146.914 781.27 147.176C782.413 147.437 783.637 147.567 784.943 147.567C787.262 147.567 789.482 147.11 791.605 146.196C791.866 146.065 792.079 146 792.242 146C792.503 146 792.634 146.294 792.634 146.882V147.518C789.956 150.686 786.609 152.27 782.592 152.27C781.58 152.27 780.666 152.172 779.849 151.976L779.359 151.878V160.303C779.98 159.846 780.47 159.487 780.829 159.225C781.188 158.964 781.776 158.703 782.592 158.442C783.409 158.18 784.241 158.05 785.09 158.05C787.735 158.05 789.972 159.111 791.801 161.234C793.63 163.356 794.544 165.871 794.544 168.777C794.544 171.781 793.499 174.344 791.409 176.467C789.319 178.59 786.772 179.667 783.768 179.7C781.123 179.7 779 178.818 777.4 177.055C775.8 175.291 775 173.3 775 171.079C775 170.295 775.18 169.675 775.539 169.218C775.898 168.761 776.274 168.467 776.665 168.336C777.057 168.205 777.433 168.14 777.792 168.14C778.608 168.14 779.278 168.418 779.8 168.973C780.323 169.528 780.584 170.181 780.584 170.932Z" fill="white"/>
</g>
<g id="Group_8">
<path id="Vector_6" d="M155.584 170.932C155.584 171.716 155.323 172.369 154.8 172.891C154.278 173.414 153.641 173.675 152.89 173.675H152.547C154.049 176.255 156.041 177.545 158.523 177.545C160.809 177.545 162.474 176.565 163.519 174.606C164.14 173.528 164.45 171.438 164.45 168.336C164.45 164.973 164.009 162.703 163.127 161.527C162.278 160.45 161.331 159.911 160.286 159.911H159.992C157.445 159.911 155.519 161.021 154.212 163.242C154.082 163.47 153.968 163.601 153.87 163.634C153.772 163.666 153.527 163.699 153.135 163.732C152.58 163.732 152.27 163.634 152.204 163.438C152.139 163.307 152.106 160.45 152.106 154.866V148.547C152.106 146.914 152.188 146.098 152.351 146.098C152.416 146.033 152.482 146 152.547 146C152.58 146 152.923 146.131 153.576 146.392C154.229 146.653 155.127 146.914 156.27 147.176C157.413 147.437 158.637 147.567 159.943 147.567C162.262 147.567 164.482 147.11 166.605 146.196C166.866 146.065 167.079 146 167.242 146C167.503 146 167.634 146.294 167.634 146.882V147.518C164.956 150.686 161.609 152.27 157.592 152.27C156.58 152.27 155.666 152.172 154.849 151.976L154.359 151.878V160.303C154.98 159.846 155.47 159.487 155.829 159.225C156.188 158.964 156.776 158.703 157.592 158.442C158.409 158.18 159.241 158.05 160.09 158.05C162.735 158.05 164.972 159.111 166.801 161.234C168.63 163.356 169.544 165.871 169.544 168.777C169.544 171.781 168.499 174.344 166.409 176.467C164.319 178.59 161.772 179.667 158.768 179.7C156.123 179.7 154 178.818 152.4 177.055C150.8 175.291 150 173.3 150 171.079C150 170.295 150.18 169.675 150.539 169.218C150.898 168.761 151.274 168.467 151.665 168.336C152.057 168.205 152.433 168.14 152.792 168.14C153.608 168.14 154.278 168.418 154.8 168.973C155.323 169.528 155.584 170.181 155.584 170.932Z" fill="white"/>
</g>
<g id="Group_9">
<path id="Vector_7" d="M492.258 180.161C491.671 180.063 489.564 180.014 485.94 180.014C482.152 180.014 479.964 180.063 479.376 180.161H478.935V177.908H480.454C481.107 177.908 481.548 177.908 481.776 177.908C482.005 177.908 482.282 177.875 482.609 177.81C482.935 177.745 483.164 177.663 483.295 177.565C483.425 177.467 483.539 177.336 483.637 177.173C483.67 177.108 483.686 176.226 483.686 174.528V172.079H471V169.826L478.396 158.511C483.393 150.935 485.923 147.131 485.989 147.098C486.054 147.033 486.397 147 487.017 147H487.899L488.193 147.294V169.826H492.699V172.079H488.193V174.577C488.193 175.916 488.193 176.7 488.193 176.928C488.193 177.157 488.291 177.353 488.487 177.516C488.748 177.745 489.679 177.875 491.279 177.908H492.699V180.161H492.258ZM483.98 169.826V153.466L473.253 169.777L478.592 169.826H483.98Z" fill="white"/>
</g>
<g id="Group_10">
<path id="Vector_8" d="M145.368 203.311L144.731 203.555C144.274 203.719 143.621 203.882 142.772 204.045C141.923 204.209 140.976 204.323 139.931 204.388H139V202.135H139.931C141.465 202.07 142.886 201.825 144.192 201.4C145.498 200.976 146.413 200.584 146.935 200.225C147.458 199.865 147.915 199.506 148.307 199.147C148.372 199.049 148.568 199 148.894 199C149.188 199 149.466 199.098 149.727 199.294V213.94L149.776 228.634C150.005 228.863 150.201 229.01 150.364 229.075C150.527 229.141 150.919 229.206 151.539 229.271C152.16 229.337 153.172 229.369 154.576 229.369H155.85V231.622H155.311C154.625 231.524 152.029 231.475 147.523 231.475C143.082 231.475 140.518 231.524 139.833 231.622H139.245V229.369H140.518C141.237 229.369 141.857 229.369 142.38 229.369C142.902 229.369 143.31 229.353 143.604 229.32C143.898 229.288 144.159 229.239 144.388 229.173C144.617 229.108 144.747 229.075 144.78 229.075C144.813 229.075 144.911 228.994 145.074 228.83C145.237 228.667 145.335 228.602 145.368 228.634V203.311Z" fill="white"/>
<path id="Vector_9" d="M165.646 208.943C164.765 208.943 164.079 208.666 163.589 208.111C163.099 207.556 162.838 206.837 162.805 205.956C162.805 204.16 163.589 202.559 165.157 201.155C166.724 199.751 168.618 199.049 170.839 199.049C171.981 199.049 172.7 199.065 172.994 199.098C175.41 199.49 177.255 200.355 178.529 201.694C179.802 203.033 180.455 204.486 180.488 206.054C180.488 207.752 179.933 209.401 178.823 211.001C177.712 212.601 176.178 213.76 174.218 214.479L174.071 214.576C174.071 214.609 174.218 214.658 174.512 214.723C174.806 214.789 175.28 214.936 175.933 215.164C176.586 215.393 177.206 215.736 177.794 216.193C180.472 217.924 181.811 220.209 181.811 223.05C181.811 225.63 180.798 227.883 178.774 229.81C176.749 231.737 174.186 232.7 171.083 232.7C168.471 232.7 166.218 231.998 164.324 230.594C162.43 229.19 161.483 227.41 161.483 225.255C161.483 224.34 161.777 223.606 162.365 223.05C162.952 222.495 163.687 222.201 164.569 222.169C165.483 222.169 166.234 222.463 166.822 223.05C167.41 223.638 167.704 224.373 167.704 225.255C167.704 225.614 167.655 225.94 167.557 226.234C167.459 226.528 167.344 226.789 167.214 227.018C167.083 227.247 166.904 227.443 166.675 227.606C166.446 227.769 166.251 227.9 166.087 227.998C165.924 228.096 165.761 228.161 165.597 228.194C165.434 228.226 165.304 228.275 165.206 228.341L165.01 228.39C166.675 229.859 168.7 230.594 171.083 230.594C172.879 230.594 174.235 229.728 175.149 227.998C175.704 226.92 175.982 225.271 175.982 223.05V222.071C175.982 218.969 174.937 216.895 172.847 215.85C172.357 215.654 171.361 215.54 169.859 215.507L167.802 215.458L167.655 215.36C167.589 215.262 167.557 215.001 167.557 214.576C167.557 213.989 167.687 213.695 167.949 213.695C168.863 213.695 169.81 213.613 170.79 213.45C171.9 213.287 172.912 212.601 173.826 211.393C174.741 210.184 175.198 208.356 175.198 205.907V205.515C175.198 203.653 174.627 202.364 173.484 201.645C172.765 201.188 171.998 200.959 171.181 200.959C170.136 200.959 169.173 201.139 168.291 201.498C167.41 201.857 166.789 202.233 166.43 202.625C166.071 203.017 165.891 203.213 165.891 203.213H166.038C166.136 203.245 166.267 203.278 166.43 203.311C166.593 203.343 166.757 203.425 166.92 203.555C167.083 203.686 167.279 203.8 167.508 203.898C167.736 203.996 167.9 204.176 167.998 204.437C168.096 204.698 168.226 204.943 168.389 205.172C168.553 205.4 168.602 205.727 168.536 206.151C168.536 206.87 168.308 207.507 167.851 208.062C167.393 208.617 166.659 208.911 165.646 208.943Z" fill="white"/>
</g>
<g id="Group_11">
<path id="Vector_10" d="M771.833 212.494C772.061 211.123 772.943 209.539 774.478 207.743C776.013 205.947 777.907 205.033 780.16 205C781.303 205 782.348 205.294 783.295 205.882C784.242 206.47 784.944 207.204 785.401 208.086C786.772 206.029 788.421 205 790.348 205C791.556 205 792.601 205.359 793.483 206.078C794.365 206.796 794.822 207.759 794.854 208.968C794.854 209.915 794.626 210.682 794.169 211.27C793.712 211.858 793.271 212.217 792.846 212.347C792.422 212.478 792.046 212.543 791.72 212.543C791.099 212.543 790.593 212.364 790.201 212.005C789.809 211.645 789.613 211.172 789.613 210.584C789.613 209.082 790.43 208.053 792.062 207.498C791.703 207.074 791.05 206.861 790.103 206.861C789.679 206.861 789.368 206.894 789.172 206.959C787.932 207.482 787.017 208.559 786.429 210.192C784.47 217.409 783.491 221.621 783.491 222.83C783.491 223.744 783.752 224.397 784.274 224.789C784.797 225.181 785.368 225.377 785.989 225.377C787.197 225.377 788.389 224.838 789.564 223.76C790.74 222.683 791.54 221.36 791.964 219.793C792.062 219.466 792.16 219.287 792.258 219.254C792.356 219.221 792.618 219.189 793.042 219.156H793.238C793.728 219.156 793.973 219.287 793.973 219.548C793.973 219.58 793.94 219.76 793.875 220.087C793.352 221.948 792.34 223.597 790.838 225.034C789.336 226.471 787.589 227.189 785.597 227.189C783.311 227.189 781.58 226.16 780.405 224.103C779.066 226.128 777.531 227.14 775.8 227.14H775.506C773.906 227.14 772.763 226.716 772.078 225.867C771.392 225.018 771.033 224.119 771 223.173C771 222.128 771.31 221.279 771.931 220.625C772.551 219.972 773.286 219.646 774.135 219.646C775.539 219.646 776.241 220.332 776.241 221.703C776.241 222.356 776.045 222.928 775.653 223.417C775.261 223.907 774.886 224.234 774.527 224.397C774.168 224.56 773.955 224.642 773.89 224.642L773.743 224.691C773.743 224.724 773.841 224.789 774.037 224.887C774.233 224.985 774.494 225.099 774.821 225.23C775.147 225.36 775.457 225.409 775.751 225.377C776.927 225.377 777.939 224.642 778.788 223.173C779.082 222.65 779.458 221.54 779.915 219.842C780.372 218.144 780.829 216.38 781.286 214.552C781.743 212.723 782.005 211.645 782.07 211.319C782.233 210.437 782.315 209.8 782.315 209.408C782.315 208.494 782.07 207.841 781.58 207.449C781.09 207.057 780.535 206.861 779.915 206.861C778.609 206.861 777.384 207.384 776.241 208.429C775.098 209.474 774.298 210.813 773.841 212.445C773.776 212.739 773.694 212.903 773.596 212.935C773.498 212.968 773.237 213 772.812 213.033H772.127C771.931 212.837 771.833 212.658 771.833 212.494Z" fill="white"/>
</g>
<g id="12">
<g id="Group_12">
<g id="Group_13">
<path id="Vector_11" d="M465.832 201.625L465.149 201.887C464.658 202.063 463.957 202.238 463.047 202.413C462.136 202.588 461.12 202.711 459.998 202.781H459V200.363H459.998C461.645 200.293 463.169 200.031 464.571 199.575C465.972 199.12 466.953 198.699 467.514 198.314C468.074 197.928 468.565 197.543 468.985 197.158C469.055 197.053 469.265 197 469.616 197C469.931 197 470.229 197.105 470.509 197.315V213.029L470.562 228.794C470.807 229.04 471.017 229.197 471.192 229.267C471.367 229.337 471.788 229.407 472.453 229.478C473.119 229.548 474.205 229.583 475.712 229.583H477.078V232H476.5C475.764 231.895 472.979 231.842 468.144 231.842C463.379 231.842 460.629 231.895 459.893 232H459.263V229.583H460.629C461.4 229.583 462.066 229.583 462.626 229.583C463.187 229.583 463.625 229.565 463.94 229.53C464.255 229.495 464.536 229.442 464.781 229.372C465.026 229.302 465.166 229.267 465.201 229.267C465.236 229.267 465.341 229.18 465.517 229.005C465.692 228.829 465.797 228.759 465.832 228.794V201.625Z" fill="white"/>
<path id="Vector_12" d="M486.643 209.455C485.697 209.455 484.943 209.14 484.383 208.509C483.822 207.878 483.542 207.108 483.542 206.197C483.542 203.709 484.47 201.555 486.327 199.733C488.184 197.911 490.496 197 493.264 197C496.452 197 499.115 197.981 501.252 199.943C503.389 201.905 504.475 204.445 504.511 207.563C504.511 209.07 504.16 210.506 503.459 211.872C502.759 213.239 501.918 214.43 500.937 215.446C499.956 216.462 498.555 217.758 496.733 219.335C495.471 220.421 493.72 222.033 491.477 224.17L488.377 227.113L492.371 227.165C497.871 227.165 500.797 227.078 501.147 226.902C501.392 226.832 501.813 225.273 502.408 222.225V222.068H504.511V222.225C504.475 222.33 504.248 223.924 503.827 227.008C503.407 230.091 503.144 231.702 503.039 231.842V232H483.542V231.002V230.371C483.542 230.126 483.647 229.863 483.857 229.583C484.068 229.302 484.593 228.689 485.434 227.743C486.45 226.622 487.326 225.641 488.062 224.8C488.377 224.45 488.972 223.802 489.848 222.856C490.724 221.91 491.32 221.262 491.635 220.911C491.95 220.561 492.458 219.983 493.159 219.177C493.86 218.371 494.35 217.776 494.631 217.39C494.911 217.005 495.314 216.48 495.839 215.814C496.365 215.148 496.733 214.588 496.943 214.132C497.153 213.677 497.416 213.169 497.731 212.608C498.047 212.048 498.274 211.487 498.414 210.926C498.555 210.366 498.677 209.84 498.782 209.35C498.887 208.859 498.94 208.281 498.94 207.616C498.94 205.408 498.344 203.499 497.153 201.887C495.962 200.276 494.263 199.47 492.056 199.47C490.899 199.47 489.883 199.768 489.008 200.363C488.132 200.959 487.519 201.537 487.168 202.098C486.818 202.658 486.643 202.991 486.643 203.096C486.643 203.131 486.73 203.149 486.905 203.149C487.536 203.149 488.184 203.394 488.85 203.884C489.516 204.375 489.848 205.181 489.848 206.302C489.848 207.178 489.568 207.913 489.008 208.509C488.447 209.105 487.659 209.42 486.643 209.455Z" fill="white"/>
</g>
</g>
</g>
</g>
</g>
<g id="flechas">
<path id="Arrow 3 (Stroke)" fill-rule="evenodd" clip-rule="evenodd" d="M724.664 149.723L744.234 160.826C745.435 161.507 745.856 163.033 745.174 164.234L734.072 183.803C733.39 185.004 731.864 185.426 730.663 184.744C729.463 184.063 729.041 182.537 729.723 181.336L737.847 167.016L551.665 218.41L550.335 213.59L736.517 162.196L722.197 154.072C720.996 153.39 720.574 151.864 721.256 150.664C721.937 149.463 723.463 149.041 724.664 149.723Z" fill="#FA5712"/>
<path id="Arrow 4 (Stroke)" fill-rule="evenodd" clip-rule="evenodd" d="M734.072 195.197L745.174 214.766C745.856 215.967 745.435 217.493 744.234 218.174L724.664 229.277C723.463 229.959 721.937 229.537 721.256 228.337C720.574 227.136 720.996 225.61 722.197 224.928L736.517 216.804L550.335 165.41L551.665 160.59L737.847 211.984L729.723 197.664C729.041 196.463 729.463 194.937 730.663 194.256C731.864 193.574 733.39 193.996 734.072 195.197Z" fill="#FA5712"/>
</g>
<g id="Group 7">
<g id="4 \times x =12 \times 5\;&#10;">
<g id="Group_14">
<g id="Group_15">
<path id="Vector_13" d="M549.731 324.898C549.13 324.798 546.977 324.748 543.272 324.748C539.4 324.748 537.163 324.798 536.562 324.898H536.112V322.595H537.664C538.331 322.595 538.782 322.595 539.016 322.595C539.249 322.595 539.533 322.562 539.867 322.495C540.201 322.428 540.434 322.345 540.568 322.245C540.701 322.145 540.818 322.011 540.918 321.844C540.952 321.777 540.969 320.876 540.969 319.14V316.637H528V314.333L535.561 302.767C540.668 295.022 543.255 291.134 543.322 291.1C543.389 291.033 543.739 291 544.373 291H545.275L545.575 291.3V314.333H550.182V316.637H545.575V319.19C545.575 320.559 545.575 321.36 545.575 321.594C545.575 321.827 545.675 322.028 545.876 322.195C546.143 322.428 547.094 322.562 548.73 322.595H550.182V324.898H549.731ZM541.269 314.333V297.609L530.303 314.283L535.761 314.333H541.269Z" fill="white"/>
</g>
<g id="Group_16">
<path id="Vector_14" d="M594.305 323.446C594.305 324.114 593.954 324.448 593.253 324.448C593.086 324.448 592.719 324.181 592.152 323.647C591.584 323.113 590.015 321.56 587.445 318.99L582.237 313.783L576.98 319.04C573.442 322.512 571.622 324.281 571.522 324.348C571.389 324.414 571.272 324.448 571.172 324.448C570.905 324.448 570.671 324.348 570.471 324.147C570.27 323.947 570.154 323.713 570.12 323.446C570.12 323.213 570.354 322.846 570.821 322.345C571.288 321.844 572.857 320.258 575.528 317.588L580.735 312.381L575.528 307.173C572.824 304.469 571.255 302.884 570.821 302.416C570.387 301.949 570.154 301.582 570.12 301.315C570.12 301.014 570.22 300.781 570.421 300.614C570.621 300.447 570.871 300.363 571.172 300.363C571.339 300.363 571.455 300.38 571.522 300.413C571.622 300.48 573.442 302.249 576.98 305.721L582.237 310.979L587.445 305.771C590.015 303.201 591.584 301.649 592.152 301.114C592.719 300.58 593.086 300.313 593.253 300.313C593.954 300.313 594.305 300.647 594.305 301.315C594.305 301.548 594.138 301.849 593.804 302.216C593.47 302.583 591.835 304.219 588.897 307.123L583.69 312.381L588.897 317.638C591.701 320.442 593.303 322.061 593.704 322.495C594.104 322.929 594.305 323.246 594.305 323.446Z" fill="white"/>
</g>
<g id="Group_17">
<path id="Vector_15" d="M615.445 310.428C615.679 309.026 616.58 307.407 618.149 305.571C619.718 303.735 621.654 302.8 623.957 302.767C625.125 302.767 626.194 303.067 627.162 303.668C628.13 304.269 628.847 305.02 629.315 305.921C630.717 303.818 632.402 302.767 634.372 302.767C635.607 302.767 636.675 303.134 637.577 303.868C638.478 304.603 638.945 305.588 638.979 306.823C638.979 307.791 638.745 308.575 638.278 309.176C637.81 309.777 637.36 310.144 636.926 310.278C636.492 310.411 636.108 310.478 635.774 310.478C635.14 310.478 634.622 310.294 634.222 309.927C633.821 309.56 633.621 309.076 633.621 308.475C633.621 306.939 634.455 305.888 636.124 305.32C635.757 304.887 635.09 304.67 634.122 304.67C633.688 304.67 633.371 304.703 633.17 304.77C631.902 305.304 630.967 306.405 630.366 308.074C628.363 315.452 627.362 319.758 627.362 320.993C627.362 321.928 627.629 322.595 628.163 322.996C628.697 323.396 629.281 323.597 629.916 323.597C631.151 323.597 632.369 323.046 633.571 321.944C634.773 320.843 635.59 319.491 636.024 317.888C636.124 317.555 636.225 317.371 636.325 317.338C636.425 317.304 636.692 317.271 637.126 317.238H637.326C637.827 317.238 638.077 317.371 638.077 317.638C638.077 317.671 638.044 317.855 637.977 318.189C637.443 320.092 636.408 321.777 634.873 323.246C633.337 324.715 631.551 325.449 629.515 325.449C627.178 325.449 625.409 324.398 624.207 322.295C622.839 324.364 621.27 325.399 619.501 325.399H619.2C617.565 325.399 616.396 324.965 615.695 324.097C614.994 323.229 614.627 322.311 614.594 321.343C614.594 320.275 614.911 319.407 615.545 318.74C616.179 318.072 616.93 317.738 617.798 317.738C619.234 317.738 619.951 318.439 619.951 319.841C619.951 320.509 619.751 321.093 619.35 321.594C618.95 322.094 618.566 322.428 618.199 322.595C617.832 322.762 617.615 322.846 617.548 322.846L617.398 322.896C617.398 322.929 617.498 322.996 617.698 323.096C617.898 323.196 618.165 323.313 618.499 323.446C618.833 323.58 619.15 323.63 619.451 323.597C620.652 323.597 621.687 322.846 622.555 321.343C622.855 320.809 623.239 319.674 623.707 317.939C624.174 316.203 624.641 314.4 625.109 312.531C625.576 310.661 625.843 309.56 625.91 309.226C626.077 308.325 626.16 307.674 626.16 307.273C626.16 306.339 625.91 305.671 625.409 305.27C624.908 304.87 624.341 304.67 623.707 304.67C622.371 304.67 621.12 305.204 619.951 306.272C618.783 307.34 617.965 308.709 617.498 310.378C617.431 310.678 617.348 310.845 617.247 310.878C617.147 310.912 616.88 310.945 616.446 310.979H615.745C615.545 310.778 615.445 310.595 615.445 310.428Z" fill="white"/>
</g>
<g id="Group_18">
<path id="Vector_16" d="M658.196 307.524C658.196 307.09 658.43 306.756 658.897 306.522H690.793C691.293 306.789 691.544 307.123 691.544 307.524C691.544 307.891 691.31 308.208 690.843 308.475L674.92 308.525H658.997C658.463 308.358 658.196 308.024 658.196 307.524ZM658.196 317.238C658.196 316.737 658.463 316.403 658.997 316.236H690.843C691.31 316.57 691.544 316.904 691.544 317.238C691.544 317.671 691.293 318.005 690.793 318.239H658.897C658.43 318.005 658.196 317.671 658.196 317.238Z" fill="white"/>
</g>
<g id="Group_19">
<path id="Vector_17" d="M718.923 295.957L718.272 296.207C717.804 296.374 717.137 296.541 716.269 296.708C715.401 296.875 714.433 296.992 713.365 297.059H712.413V294.755H713.365C714.934 294.689 716.386 294.438 717.721 294.004C719.056 293.57 719.991 293.17 720.525 292.803C721.059 292.435 721.526 292.068 721.927 291.701C721.994 291.601 722.194 291.551 722.528 291.551C722.828 291.551 723.112 291.651 723.379 291.851V306.823L723.429 321.844C723.663 322.078 723.863 322.228 724.03 322.295C724.197 322.361 724.598 322.428 725.232 322.495C725.866 322.562 726.901 322.595 728.336 322.595H729.638V324.898H729.087C728.386 324.798 725.732 324.748 721.126 324.748C716.586 324.748 713.966 324.798 713.265 324.898H712.664V322.595H713.966C714.7 322.595 715.334 322.595 715.868 322.595C716.402 322.595 716.82 322.578 717.12 322.545C717.421 322.512 717.688 322.462 717.921 322.395C718.155 322.328 718.289 322.295 718.322 322.295C718.355 322.295 718.455 322.211 718.622 322.044C718.789 321.877 718.889 321.811 718.923 321.844V295.957Z" fill="white"/>
<path id="Vector_18" d="M738.751 303.418C737.85 303.418 737.132 303.117 736.598 302.516C736.064 301.916 735.797 301.181 735.797 300.313C735.797 297.943 736.681 295.89 738.451 294.155C740.22 292.419 742.423 291.551 745.06 291.551C748.098 291.551 750.635 292.485 752.671 294.355C754.707 296.224 755.742 298.644 755.775 301.615C755.775 303.051 755.442 304.419 754.774 305.721C754.106 307.023 753.305 308.158 752.371 309.126C751.436 310.094 750.101 311.329 748.365 312.831C747.163 313.866 745.494 315.402 743.358 317.438L740.403 320.242L744.209 320.292C749.45 320.292 752.237 320.208 752.571 320.042C752.805 319.975 753.205 318.489 753.773 315.585V315.435H755.775V315.585C755.742 315.685 755.525 317.204 755.124 320.142C754.724 323.079 754.474 324.615 754.373 324.748V324.898H735.797V323.947V323.346C735.797 323.113 735.897 322.862 736.097 322.595C736.298 322.328 736.798 321.744 737.599 320.843C738.567 319.774 739.402 318.84 740.103 318.039C740.403 317.705 740.971 317.087 741.805 316.186C742.64 315.285 743.207 314.667 743.508 314.333C743.808 314 744.292 313.449 744.96 312.681C745.628 311.913 746.095 311.346 746.362 310.979C746.629 310.611 747.013 310.111 747.514 309.476C748.014 308.842 748.365 308.308 748.565 307.874C748.765 307.44 749.016 306.956 749.316 306.422C749.617 305.888 749.834 305.354 749.967 304.82C750.101 304.286 750.217 303.785 750.318 303.318C750.418 302.85 750.468 302.299 750.468 301.665C750.468 299.562 749.9 297.743 748.765 296.207C747.63 294.672 746.011 293.904 743.908 293.904C742.807 293.904 741.839 294.188 741.004 294.755C740.17 295.323 739.586 295.874 739.252 296.408C738.918 296.942 738.751 297.259 738.751 297.359C738.751 297.392 738.835 297.409 739.001 297.409C739.602 297.409 740.22 297.643 740.854 298.11C741.488 298.578 741.805 299.345 741.805 300.413C741.805 301.248 741.538 301.949 741.004 302.516C740.47 303.084 739.719 303.384 738.751 303.418Z" fill="white"/>
</g>
<g id="Group_20">
<path id="Vector_19" d="M801 323.446C801 324.114 800.65 324.448 799.949 324.448C799.782 324.448 799.414 324.181 798.847 323.647C798.279 323.113 796.711 321.56 794.14 318.99L788.933 313.783L783.675 319.04C780.137 322.512 778.318 324.281 778.217 324.348C778.084 324.414 777.967 324.448 777.867 324.448C777.6 324.448 777.366 324.348 777.166 324.147C776.966 323.947 776.849 323.713 776.815 323.446C776.815 323.213 777.049 322.846 777.516 322.345C777.984 321.844 779.553 320.258 782.223 317.588L787.431 312.381L782.223 307.173C779.519 304.469 777.95 302.884 777.516 302.416C777.083 301.949 776.849 301.582 776.815 301.315C776.815 301.014 776.916 300.781 777.116 300.614C777.316 300.447 777.567 300.363 777.867 300.363C778.034 300.363 778.151 300.38 778.217 300.413C778.318 300.48 780.137 302.249 783.675 305.721L788.933 310.979L794.14 305.771C796.711 303.201 798.279 301.649 798.847 301.114C799.414 300.58 799.782 300.313 799.949 300.313C800.65 300.313 801 300.647 801 301.315C801 301.548 800.833 301.849 800.499 302.216C800.165 302.583 798.53 304.219 795.592 307.123L790.385 312.381L795.592 317.638C798.396 320.442 799.999 322.061 800.399 322.495C800.8 322.929 801 323.246 801 323.446Z" fill="white"/>
</g>
<g id="Group_21">
<path id="Vector_20" d="M827.748 317.037C827.748 317.838 827.481 318.506 826.947 319.04C826.413 319.574 825.762 319.841 824.994 319.841H824.644C826.179 322.478 828.216 323.797 830.753 323.797C833.089 323.797 834.792 322.795 835.86 320.793C836.494 319.691 836.811 317.555 836.811 314.383C836.811 310.945 836.361 308.625 835.459 307.423C834.591 306.322 833.623 305.771 832.555 305.771H832.255C829.651 305.771 827.681 306.906 826.346 309.176C826.213 309.41 826.096 309.543 825.996 309.577C825.896 309.61 825.645 309.643 825.245 309.677C824.677 309.677 824.36 309.577 824.293 309.376C824.227 309.243 824.193 306.322 824.193 300.614V294.155C824.193 292.485 824.277 291.651 824.444 291.651C824.51 291.584 824.577 291.551 824.644 291.551C824.677 291.551 825.028 291.684 825.695 291.951C826.363 292.218 827.281 292.485 828.449 292.753C829.618 293.02 830.869 293.153 832.205 293.153C834.575 293.153 836.845 292.686 839.014 291.751C839.281 291.618 839.498 291.551 839.665 291.551C839.932 291.551 840.066 291.851 840.066 292.452V293.103C837.329 296.341 833.907 297.96 829.801 297.96C828.766 297.96 827.832 297.86 826.997 297.66L826.496 297.559V306.172C827.131 305.704 827.631 305.337 827.999 305.07C828.366 304.803 828.967 304.536 829.801 304.269C830.636 304.002 831.487 303.868 832.355 303.868C835.059 303.868 837.345 304.953 839.215 307.123C841.084 309.293 842.019 311.863 842.019 314.834C842.019 317.905 840.95 320.526 838.814 322.695C836.678 324.865 834.074 325.967 831.003 326C828.299 326 826.129 325.099 824.494 323.296C822.858 321.494 822.04 319.457 822.04 317.187C822.04 316.386 822.224 315.752 822.591 315.285C822.958 314.817 823.342 314.517 823.743 314.383C824.143 314.25 824.527 314.183 824.894 314.183C825.729 314.183 826.413 314.467 826.947 315.034C827.481 315.602 827.748 316.269 827.748 317.037Z" fill="white"/>
</g>
</g>
<g id="Group 6">
<path id="Arrow 5 (Stroke)" fill-rule="evenodd" clip-rule="evenodd" d="M555.762 279.444L573.4 283.04C574.482 283.261 575.18 284.317 574.96 285.4L571.364 303.037C571.143 304.119 570.087 304.818 569.005 304.597C567.922 304.376 567.224 303.32 567.444 302.238L570.076 289.332L512.103 327.668L509.897 324.332L567.869 285.995L554.963 283.364C553.881 283.143 553.182 282.087 553.403 281.005C553.624 279.922 554.68 279.224 555.762 279.444Z" fill="#D51919"/>
<path id="Arrow 6 (Stroke)" fill-rule="evenodd" clip-rule="evenodd" d="M749.762 279.444L767.4 283.04C768.482 283.261 769.18 284.317 768.96 285.4L765.364 303.037C765.143 304.119 764.087 304.818 763.005 304.597C761.922 304.376 761.224 303.32 761.444 302.238L764.076 289.332L706.103 327.668L703.897 324.332L761.869 285.995L748.963 283.364C747.881 283.143 747.182 282.087 747.403 281.005C747.624 279.922 748.68 279.224 749.762 279.444Z" fill="#D51919"/>
</g>
<g id="Group_22">
<path id="Vector_21" d="M530.246 254.228L529.622 254.468C529.173 254.629 528.533 254.789 527.7 254.949C526.867 255.109 525.938 255.221 524.913 255.285H524V253.075H524.913C526.418 253.011 527.812 252.771 529.093 252.354C530.374 251.938 531.271 251.554 531.784 251.201C532.296 250.849 532.745 250.497 533.129 250.144C533.193 250.048 533.385 250 533.706 250C533.994 250 534.266 250.096 534.523 250.288V264.655L534.571 279.069C534.795 279.293 534.987 279.437 535.147 279.502C535.307 279.566 535.692 279.63 536.3 279.694C536.909 279.758 537.902 279.79 539.279 279.79H540.529V282H540C539.327 281.904 536.781 281.856 532.36 281.856C528.004 281.856 525.489 281.904 524.817 282H524.24V279.79H525.489C526.194 279.79 526.803 279.79 527.315 279.79C527.828 279.79 528.228 279.774 528.517 279.742C528.805 279.71 529.061 279.662 529.285 279.598C529.509 279.534 529.638 279.502 529.67 279.502C529.702 279.502 529.798 279.421 529.958 279.261C530.118 279.101 530.214 279.037 530.246 279.069V254.228Z" fill="white"/>
</g>
<g id="Group_23">
<path id="Vector_22" d="M723.977 256.452C723.135 256.452 722.48 256.187 722.012 255.656C721.544 255.126 721.295 254.44 721.263 253.598C721.263 251.882 722.012 250.353 723.509 249.012C725.007 247.671 726.816 247 728.937 247C730.029 247 730.715 247.016 730.996 247.047C733.304 247.421 735.067 248.248 736.283 249.527C737.5 250.806 738.124 252.194 738.155 253.691C738.155 255.313 737.625 256.889 736.564 258.417C735.504 259.946 734.037 261.053 732.166 261.739L732.025 261.833C732.025 261.864 732.166 261.911 732.447 261.973C732.727 262.036 733.18 262.176 733.803 262.394C734.427 262.613 735.02 262.94 735.582 263.377C738.139 265.03 739.418 267.214 739.418 269.928C739.418 272.392 738.451 274.545 736.517 276.385C734.583 278.226 732.135 279.146 729.171 279.146C726.676 279.146 724.523 278.475 722.714 277.134C720.905 275.792 720 274.092 720 272.033C720 271.16 720.281 270.458 720.842 269.928C721.404 269.398 722.106 269.117 722.948 269.086C723.821 269.086 724.539 269.366 725.1 269.928C725.662 270.489 725.943 271.191 725.943 272.033C725.943 272.377 725.896 272.689 725.802 272.969C725.709 273.25 725.599 273.5 725.475 273.718C725.35 273.936 725.178 274.123 724.96 274.279C724.742 274.435 724.554 274.56 724.398 274.654C724.242 274.747 724.086 274.81 723.93 274.841C723.775 274.872 723.65 274.919 723.556 274.981L723.369 275.028C724.96 276.432 726.894 277.134 729.171 277.134C730.887 277.134 732.181 276.307 733.055 274.654C733.585 273.624 733.85 272.049 733.85 269.928V268.992C733.85 266.029 732.852 264.048 730.856 263.049C730.388 262.862 729.436 262.753 728.001 262.722L726.036 262.675L725.896 262.582C725.833 262.488 725.802 262.238 725.802 261.833C725.802 261.271 725.927 260.991 726.176 260.991C727.05 260.991 727.955 260.913 728.89 260.757C729.951 260.601 730.918 259.946 731.791 258.791C732.665 257.637 733.102 255.89 733.102 253.551V253.176C733.102 251.398 732.556 250.166 731.464 249.48C730.778 249.043 730.045 248.825 729.265 248.825C728.266 248.825 727.346 248.996 726.504 249.34C725.662 249.683 725.069 250.041 724.726 250.416C724.383 250.79 724.211 250.977 724.211 250.977H724.352C724.445 251.008 724.57 251.04 724.726 251.071C724.882 251.102 725.038 251.18 725.194 251.305C725.35 251.43 725.537 251.539 725.755 251.632C725.974 251.726 726.13 251.898 726.223 252.147C726.317 252.397 726.442 252.631 726.598 252.849C726.754 253.067 726.8 253.379 726.738 253.785C726.738 254.471 726.52 255.079 726.083 255.61C725.646 256.14 724.944 256.421 723.977 256.452Z" fill="white"/>
</g>
</g>
<g id="\therefore \;x=3 \times 5=15s">
<g id="Group_24">
<g id="Group_25">
<path id="Vector_23" d="M516.651 374.932C516.651 374.121 516.932 373.45 517.493 372.92C518.055 372.39 518.725 372.124 519.505 372.124C520.254 372.124 520.893 372.39 521.424 372.92C521.954 373.45 522.235 374.121 522.266 374.932C522.297 375.743 522.032 376.414 521.471 376.944C520.909 377.474 520.238 377.739 519.459 377.739C518.647 377.739 517.977 377.474 517.447 376.944C516.916 376.414 516.651 375.743 516.651 374.932ZM507.807 392.385C508.619 392.385 509.274 392.65 509.773 393.181C510.272 393.711 510.537 394.381 510.568 395.193C510.568 395.941 510.319 396.596 509.82 397.158C509.32 397.719 508.634 398 507.761 398C506.95 398 506.295 397.735 505.795 397.205C505.296 396.674 505.031 396.004 505 395.193C505 394.381 505.265 393.711 505.795 393.181C506.326 392.65 506.996 392.385 507.807 392.385ZM528.396 395.193C528.396 394.381 528.661 393.711 529.191 393.181C529.721 392.65 530.392 392.385 531.203 392.385C531.952 392.385 532.591 392.65 533.122 393.181C533.652 393.711 533.933 394.381 533.964 395.193C533.964 395.91 533.714 396.549 533.215 397.111C532.716 397.672 532.03 397.969 531.156 398C530.345 398 529.69 397.735 529.191 397.205C528.692 396.674 528.427 396.004 528.396 395.193Z" fill="white"/>
</g>
<g id="Group_26">
<path id="Vector_24" d="M563.517 380.64C563.736 379.33 564.578 377.817 566.044 376.102C567.51 374.386 569.32 373.512 571.472 373.481C572.564 373.481 573.562 373.762 574.467 374.324C575.371 374.885 576.042 375.587 576.479 376.429C577.789 374.464 579.364 373.481 581.205 373.481C582.359 373.481 583.357 373.824 584.199 374.511C585.041 375.197 585.478 376.117 585.509 377.271C585.509 378.176 585.291 378.909 584.854 379.471C584.418 380.032 583.996 380.375 583.591 380.5C583.185 380.625 582.827 380.687 582.515 380.687C581.922 380.687 581.438 380.516 581.064 380.172C580.69 379.829 580.503 379.377 580.503 378.816C580.503 377.381 581.283 376.398 582.842 375.868C582.499 375.462 581.875 375.259 580.971 375.259C580.565 375.259 580.269 375.291 580.082 375.353C578.896 375.852 578.023 376.881 577.461 378.441C575.59 385.335 574.654 389.359 574.654 390.513C574.654 391.387 574.903 392.011 575.402 392.385C575.901 392.759 576.447 392.947 577.04 392.947C578.194 392.947 579.333 392.432 580.456 391.402C581.579 390.373 582.343 389.11 582.749 387.612C582.842 387.3 582.936 387.129 583.029 387.098C583.123 387.066 583.373 387.035 583.778 387.004H583.965C584.433 387.004 584.667 387.129 584.667 387.378C584.667 387.41 584.636 387.581 584.574 387.893C584.074 389.671 583.107 391.246 581.672 392.619C580.238 393.992 578.569 394.678 576.666 394.678C574.482 394.678 572.829 393.695 571.706 391.73C570.427 393.664 568.961 394.631 567.307 394.631H567.027C565.498 394.631 564.406 394.226 563.751 393.414C563.096 392.603 562.753 391.746 562.722 390.841C562.722 389.843 563.018 389.032 563.611 388.408C564.204 387.784 564.906 387.472 565.717 387.472C567.058 387.472 567.729 388.127 567.729 389.437C567.729 390.061 567.541 390.607 567.167 391.075C566.793 391.543 566.434 391.855 566.091 392.011C565.748 392.167 565.545 392.245 565.483 392.245L565.342 392.291C565.342 392.323 565.436 392.385 565.623 392.479C565.81 392.572 566.06 392.681 566.372 392.806C566.684 392.931 566.98 392.978 567.261 392.947C568.384 392.947 569.351 392.245 570.162 390.841C570.442 390.342 570.801 389.281 571.238 387.659C571.675 386.037 572.111 384.353 572.548 382.606C572.985 380.859 573.234 379.829 573.297 379.517C573.453 378.675 573.531 378.067 573.531 377.693C573.531 376.819 573.297 376.195 572.829 375.821C572.361 375.447 571.831 375.259 571.238 375.259C569.99 375.259 568.82 375.758 567.729 376.757C566.637 377.755 565.873 379.034 565.436 380.594C565.373 380.874 565.295 381.03 565.202 381.062C565.108 381.093 564.859 381.124 564.453 381.155H563.798C563.611 380.968 563.517 380.796 563.517 380.64Z" fill="white"/>
</g>
<g id="Group_27">
<path id="Vector_25" d="M603.463 377.927C603.463 377.521 603.682 377.209 604.118 376.991H633.924C634.392 377.24 634.626 377.552 634.626 377.927C634.626 378.27 634.408 378.566 633.971 378.816L619.092 378.862H604.212C603.713 378.706 603.463 378.394 603.463 377.927ZM603.463 387.004C603.463 386.536 603.713 386.224 604.212 386.068H633.971C634.408 386.38 634.626 386.692 634.626 387.004C634.626 387.41 634.392 387.722 633.924 387.94H604.118C603.682 387.722 603.463 387.41 603.463 387.004Z" fill="white"/>
</g>
<g id="Group_28">
<path id="Vector_26" d="M656.188 372.499C655.346 372.499 654.691 372.234 654.223 371.703C653.755 371.173 653.505 370.487 653.474 369.644C653.474 367.929 654.223 366.4 655.72 365.059C657.217 363.717 659.027 363.047 661.148 363.047C662.24 363.047 662.926 363.062 663.207 363.094C665.515 363.468 667.277 364.295 668.494 365.574C669.711 366.853 670.334 368.241 670.366 369.738C670.366 371.36 669.835 372.935 668.775 374.464C667.714 375.992 666.248 377.1 664.376 377.786L664.236 377.88C664.236 377.911 664.376 377.958 664.657 378.02C664.938 378.082 665.39 378.223 666.014 378.441C666.638 378.66 667.231 378.987 667.792 379.424C670.35 381.077 671.629 383.261 671.629 385.975C671.629 388.439 670.662 390.591 668.728 392.432C666.794 394.272 664.345 395.193 661.382 395.193C658.886 395.193 656.734 394.522 654.924 393.181C653.115 391.839 652.211 390.139 652.211 388.08C652.211 387.207 652.491 386.505 653.053 385.975C653.614 385.444 654.316 385.164 655.158 385.132C656.032 385.132 656.749 385.413 657.311 385.975C657.872 386.536 658.153 387.238 658.153 388.08C658.153 388.423 658.106 388.735 658.013 389.016C657.919 389.297 657.81 389.546 657.685 389.765C657.56 389.983 657.389 390.17 657.17 390.326C656.952 390.482 656.765 390.607 656.609 390.701C656.453 390.794 656.297 390.857 656.141 390.888C655.985 390.919 655.86 390.966 655.767 391.028L655.58 391.075C657.17 392.479 659.104 393.181 661.382 393.181C663.097 393.181 664.392 392.354 665.265 390.701C665.796 389.671 666.061 388.096 666.061 385.975V385.039C666.061 382.075 665.063 380.094 663.066 379.096C662.598 378.909 661.647 378.8 660.212 378.769L658.247 378.722L658.106 378.628C658.044 378.535 658.013 378.285 658.013 377.88C658.013 377.318 658.137 377.037 658.387 377.037C659.26 377.037 660.165 376.959 661.101 376.803C662.162 376.648 663.129 375.992 664.002 374.838C664.875 373.684 665.312 371.937 665.312 369.598V369.223C665.312 367.445 664.766 366.213 663.674 365.527C662.988 365.09 662.255 364.872 661.475 364.872C660.477 364.872 659.557 365.043 658.715 365.386C657.872 365.73 657.28 366.088 656.936 366.463C656.593 366.837 656.422 367.024 656.422 367.024H656.562C656.656 367.055 656.781 367.086 656.936 367.118C657.092 367.149 657.248 367.227 657.404 367.352C657.56 367.476 657.748 367.586 657.966 367.679C658.184 367.773 658.34 367.944 658.434 368.194C658.527 368.443 658.652 368.677 658.808 368.896C658.964 369.114 659.011 369.426 658.949 369.832C658.949 370.518 658.73 371.126 658.293 371.656C657.857 372.187 657.155 372.467 656.188 372.499Z" fill="white"/>
</g>
<g id="Group_29">
<path id="Vector_27" d="M713.517 392.806C713.517 393.43 713.189 393.742 712.534 393.742C712.378 393.742 712.035 393.492 711.505 392.993C710.974 392.494 709.508 391.044 707.106 388.642L702.24 383.775L697.327 388.689C694.02 391.933 692.32 393.586 692.227 393.648C692.102 393.711 691.993 393.742 691.899 393.742C691.649 393.742 691.431 393.648 691.244 393.461C691.057 393.274 690.948 393.056 690.916 392.806C690.916 392.588 691.135 392.245 691.572 391.777C692.008 391.309 693.474 389.827 695.97 387.332L700.836 382.465L695.97 377.599C693.443 375.072 691.977 373.59 691.572 373.154C691.166 372.717 690.948 372.374 690.916 372.124C690.916 371.844 691.01 371.625 691.197 371.469C691.384 371.313 691.618 371.235 691.899 371.235C692.055 371.235 692.164 371.251 692.227 371.282C692.32 371.344 694.02 372.998 697.327 376.242L702.24 381.155L707.106 376.289C709.508 373.887 710.974 372.436 711.505 371.937C712.035 371.438 712.378 371.189 712.534 371.189C713.189 371.189 713.517 371.5 713.517 372.124C713.517 372.343 713.361 372.623 713.049 372.967C712.737 373.31 711.208 374.838 708.463 377.552L703.597 382.465L708.463 387.378C711.084 389.999 712.581 391.512 712.955 391.917C713.33 392.323 713.517 392.619 713.517 392.806Z" fill="white"/>
</g>
<g id="Group_30">
<path id="Vector_28" d="M738.517 386.817C738.517 387.566 738.268 388.189 737.769 388.689C737.27 389.188 736.661 389.437 735.944 389.437H735.616C737.051 391.902 738.954 393.134 741.325 393.134C743.508 393.134 745.099 392.198 746.098 390.326C746.69 389.297 746.987 387.3 746.987 384.337C746.987 381.124 746.565 378.956 745.723 377.833C744.912 376.803 744.008 376.289 743.009 376.289H742.729C740.295 376.289 738.455 377.349 737.207 379.471C737.082 379.689 736.973 379.814 736.88 379.845C736.786 379.876 736.552 379.907 736.178 379.939C735.647 379.939 735.351 379.845 735.289 379.658C735.226 379.533 735.195 376.803 735.195 371.469V365.433C735.195 363.873 735.273 363.094 735.429 363.094C735.492 363.031 735.554 363 735.616 363C735.647 363 735.975 363.125 736.599 363.374C737.223 363.624 738.081 363.873 739.172 364.123C740.264 364.373 741.434 364.497 742.682 364.497C744.897 364.497 747.018 364.061 749.045 363.187C749.295 363.062 749.498 363 749.654 363C749.903 363 750.028 363.281 750.028 363.842V364.451C747.47 367.476 744.273 368.989 740.436 368.989C739.469 368.989 738.595 368.896 737.815 368.709L737.348 368.615V376.663C737.94 376.226 738.408 375.883 738.751 375.634C739.094 375.384 739.656 375.135 740.436 374.885C741.216 374.635 742.011 374.511 742.822 374.511C745.349 374.511 747.486 375.525 749.233 377.552C750.979 379.58 751.853 381.982 751.853 384.758C751.853 387.628 750.855 390.077 748.858 392.104C746.862 394.132 744.429 395.161 741.559 395.193C739.032 395.193 737.004 394.35 735.476 392.666C733.947 390.981 733.183 389.078 733.183 386.957C733.183 386.209 733.355 385.616 733.698 385.179C734.041 384.742 734.4 384.462 734.774 384.337C735.148 384.212 735.507 384.15 735.85 384.15C736.63 384.15 737.27 384.415 737.769 384.945C738.268 385.476 738.517 386.099 738.517 386.817Z" fill="white"/>
</g>
<g id="Group_31">
<path id="Vector_29" d="M769.854 377.927C769.854 377.521 770.072 377.209 770.509 376.991H800.315C800.783 377.24 801.017 377.552 801.017 377.927C801.017 378.27 800.798 378.566 800.362 378.816L785.482 378.862H770.602C770.103 378.706 769.854 378.394 769.854 377.927ZM769.854 387.004C769.854 386.536 770.103 386.224 770.602 386.068H800.362C800.798 386.38 801.017 386.692 801.017 387.004C801.017 387.41 800.783 387.722 800.315 387.94H770.509C770.072 387.722 769.854 387.41 769.854 387.004Z" fill="white"/>
</g>
<g id="Group_32">
<path id="Vector_30" d="M826.602 367.118L825.994 367.352C825.557 367.508 824.933 367.664 824.122 367.82C823.311 367.976 822.407 368.085 821.408 368.147H820.519V365.995H821.408C822.875 365.932 824.232 365.698 825.479 365.293C826.727 364.887 827.601 364.513 828.1 364.17C828.599 363.827 829.035 363.484 829.41 363.14C829.472 363.047 829.659 363 829.971 363C830.252 363 830.517 363.094 830.767 363.281V377.271L830.814 391.309C831.032 391.527 831.219 391.668 831.375 391.73C831.531 391.792 831.905 391.855 832.498 391.917C833.091 391.98 834.058 392.011 835.399 392.011H836.616V394.163H836.101C835.446 394.07 832.966 394.023 828.661 394.023C824.419 394.023 821.97 394.07 821.315 394.163H820.753V392.011H821.97C822.656 392.011 823.249 392.011 823.748 392.011C824.247 392.011 824.637 391.995 824.918 391.964C825.199 391.933 825.448 391.886 825.666 391.824C825.885 391.761 826.01 391.73 826.041 391.73C826.072 391.73 826.166 391.652 826.322 391.496C826.478 391.34 826.571 391.278 826.602 391.309V367.118Z" fill="white"/>
<path id="Vector_31" d="M847.705 386.817C847.705 387.566 847.456 388.189 846.957 388.689C846.457 389.188 845.849 389.437 845.132 389.437H844.804C846.239 391.902 848.142 393.134 850.513 393.134C852.696 393.134 854.287 392.198 855.285 390.326C855.878 389.297 856.174 387.3 856.174 384.337C856.174 381.124 855.753 378.956 854.911 377.833C854.1 376.803 853.195 376.289 852.197 376.289H851.916C849.483 376.289 847.643 377.349 846.395 379.471C846.27 379.689 846.161 379.814 846.068 379.845C845.974 379.876 845.74 379.907 845.366 379.939C844.835 379.939 844.539 379.845 844.477 379.658C844.414 379.533 844.383 376.803 844.383 371.469V365.433C844.383 363.873 844.461 363.094 844.617 363.094C844.679 363.031 844.742 363 844.804 363C844.835 363 845.163 363.125 845.787 363.374C846.411 363.624 847.269 363.873 848.36 364.123C849.452 364.373 850.622 364.497 851.87 364.497C854.084 364.497 856.206 364.061 858.233 363.187C858.483 363.062 858.686 363 858.842 363C859.091 363 859.216 363.281 859.216 363.842V364.451C856.658 367.476 853.461 368.989 849.624 368.989C848.657 368.989 847.783 368.896 847.003 368.709L846.535 368.615V376.663C847.128 376.226 847.596 375.883 847.939 375.634C848.282 375.384 848.844 375.135 849.624 374.885C850.404 374.635 851.199 374.511 852.01 374.511C854.537 374.511 856.674 375.525 858.42 377.552C860.167 379.58 861.041 381.982 861.041 384.758C861.041 387.628 860.043 390.077 858.046 392.104C856.05 394.132 853.617 395.161 850.747 395.193C848.22 395.193 846.192 394.35 844.664 392.666C843.135 390.981 842.371 389.078 842.371 386.957C842.371 386.209 842.543 385.616 842.886 385.179C843.229 384.742 843.588 384.462 843.962 384.337C844.336 384.212 844.695 384.15 845.038 384.15C845.818 384.15 846.457 384.415 846.957 384.945C847.456 385.476 847.705 386.099 847.705 386.817Z" fill="white"/>
</g>
<g id="Group_33">
<path id="Vector_32" d="M869.557 380.64C869.557 379.642 869.806 378.628 870.306 377.599C870.805 376.57 871.678 375.618 872.926 374.745C874.174 373.871 875.687 373.45 877.465 373.481C879.399 373.481 880.802 373.902 881.676 374.745C882.549 375.587 883.002 376.523 883.033 377.552C883.033 378.55 882.768 379.283 882.237 379.751C881.707 380.219 881.114 380.469 880.459 380.5C880.054 380.5 879.679 380.375 879.336 380.126C878.993 379.876 878.806 379.471 878.775 378.909C878.775 378.41 878.915 377.973 879.196 377.599C879.477 377.225 879.742 376.944 879.991 376.757C880.241 376.57 880.444 376.476 880.6 376.476C880.631 376.476 880.646 376.46 880.646 376.429C880.646 376.336 880.537 376.195 880.319 376.008C880.101 375.821 879.711 375.649 879.149 375.493C878.588 375.337 877.979 375.244 877.324 375.213C875.827 375.213 874.735 375.618 874.049 376.429C873.363 377.24 873.004 378.067 872.973 378.909C872.973 379.689 873.269 380.235 873.862 380.547C874.454 380.859 875.312 381.124 876.435 381.342C877.558 381.561 878.369 381.795 878.868 382.044C880.927 382.949 881.957 384.446 881.957 386.536C881.957 387.41 881.785 388.283 881.442 389.156C881.099 390.03 880.584 390.903 879.898 391.777C879.212 392.65 878.229 393.336 876.95 393.836C875.671 394.335 874.205 394.6 872.552 394.631C870.15 394.631 868.449 394.179 867.451 393.274C866.453 392.369 865.938 391.309 865.907 390.092C865.907 388.876 866.235 388.002 866.89 387.472C867.545 386.942 868.231 386.676 868.949 386.676C869.416 386.676 869.853 386.817 870.259 387.098C870.664 387.378 870.883 387.862 870.914 388.548C870.914 389.359 870.633 390.045 870.072 390.607C869.51 391.168 869.027 391.449 868.621 391.449C868.559 391.48 868.512 391.496 868.481 391.496C868.449 391.496 868.434 391.527 868.434 391.59C868.465 391.683 868.59 391.808 868.808 391.964C869.027 392.12 869.51 392.323 870.259 392.572C871.007 392.822 871.865 392.931 872.832 392.9C873.955 392.9 874.922 392.728 875.733 392.385C876.544 392.042 877.137 391.605 877.511 391.075C877.886 390.545 878.151 390.061 878.307 389.624C878.463 389.188 878.541 388.798 878.541 388.455C878.541 387.581 878.213 386.926 877.558 386.489C876.903 386.053 876.154 385.787 875.312 385.694C874.47 385.6 873.55 385.366 872.552 384.992C871.553 384.618 870.82 384.072 870.352 383.354C869.822 382.574 869.557 381.67 869.557 380.64Z" fill="white"/>
</g>
</g>
</g>
</g>
</g>
</svg>
