<svg viewBox="0 0 509 344" fill="none" xmlns="http://www.w3.org/2000/svg">
<g id="0121203">
<g id="formula">
<g id="Group">
<g id="Group_2">
<path id="Vector" d="M26 54.0843C26 53.7411 26.1848 53.477 26.5545 53.2922H36.1794L37.843 47.0736C38.8728 43.0599 39.4801 40.9211 39.665 40.657C39.797 40.4458 39.995 40.3402 40.2591 40.3402C40.7344 40.3402 40.9984 40.5778 41.0513 41.0531C41.0513 41.1587 40.5231 43.192 39.4669 47.1528C38.3843 51.0609 37.843 53.0809 37.843 53.2129L37.8034 53.2922H45.2894L46.9529 47.0736C48.0356 42.9807 48.6297 40.8551 48.7353 40.6966C48.8938 40.459 49.105 40.3402 49.3691 40.3402C49.5539 40.3402 49.7255 40.4062 49.884 40.5382C50.0424 40.6702 50.1216 40.8155 50.1216 40.9739C50.1216 41.238 49.6067 43.2976 48.5769 47.1528C47.4943 51.0609 46.9529 53.0809 46.9529 53.2129L46.9133 53.2922H53.9637C54.3597 53.5034 54.5578 53.7675 54.5578 54.0843C54.5578 54.4276 54.4258 54.6389 54.1617 54.7181C53.8976 54.7973 53.3035 54.8501 52.3793 54.8765H50.2008H46.438L45.6459 57.8868L44.8141 60.9366C44.8141 60.963 46.3456 60.9762 49.4087 60.9762H52.3001C53.2507 60.9762 53.858 61.0158 54.1221 61.0951C54.3861 61.1743 54.5314 61.3987 54.5578 61.7684C54.5842 62.1381 54.3861 62.4021 53.9637 62.5606H44.3388L42.6752 68.7791C41.5926 72.872 40.9984 74.9977 40.8928 75.1561C40.7344 75.3937 40.5231 75.5126 40.2591 75.5126C40.0742 75.5126 39.9026 75.4466 39.7442 75.3145C39.5857 75.1825 39.5065 75.0241 39.5065 74.8392C39.5065 74.5752 40.0214 72.5155 41.0513 68.6603C42.1339 64.8051 42.6752 62.7982 42.6752 62.6398L42.7148 62.5606H35.2288L33.5652 68.7791C32.4826 72.872 31.8885 74.9977 31.7829 75.1561C31.6244 75.3937 31.4132 75.5126 31.1491 75.5126C30.9643 75.5126 30.7926 75.4466 30.6342 75.3145C30.4758 75.1825 30.3966 75.0241 30.3966 74.8392C30.3966 74.5752 30.9115 72.5155 31.9413 68.6603C33.0239 64.8051 33.5652 62.7982 33.5652 62.6398L33.6048 62.5606H26.5545C26.1848 62.3757 26 62.1117 26 61.7684C26 61.3723 26.2112 61.1083 26.6337 60.9762H34.0801L34.8723 57.966L35.7041 54.9161C35.7041 54.8897 34.1858 54.8765 31.1491 54.8765H26.6337C26.2112 54.7445 26 54.4804 26 54.0843ZM44.8141 54.9161C44.8141 54.8897 43.573 54.8765 41.0909 54.8765H37.3281L36.5359 57.8868L35.7041 60.9366C35.7041 60.963 36.9452 60.9762 39.4273 60.9762H43.1901L43.9823 57.966L44.8141 54.9161Z" fill="white"/>
</g>
<g id="Group_3">
<path id="Vector_2" d="M68.9752 66.8778C70.5332 66.8778 71.9591 66.1913 73.253 64.8182C74.5468 63.4451 75.207 61.8475 75.2334 60.0256C75.2334 58.362 74.5468 57.2133 73.1738 56.5796C70.3747 55.8667 68.5792 55.3781 67.787 55.1141C66.9948 54.85 66.4403 54.586 66.1234 54.3219C64.5391 53.2129 63.7469 51.6153 63.7469 49.5293C63.7469 47.9185 64.1694 46.453 65.0144 45.1327C65.8594 43.8124 66.7176 42.8222 67.5889 42.1621C68.3547 41.5019 69.2789 40.9738 70.3615 40.5777C71.4442 40.1817 72.2892 39.9704 72.8965 39.944H73.3322H73.6094C76.1444 39.944 77.9796 40.789 79.115 42.479C79.1414 42.479 79.3131 42.3073 79.6299 41.964C79.9468 41.6208 80.2901 41.2379 80.6598 40.8154C81.0295 40.3929 81.2935 40.1024 81.4519 39.944C81.4784 39.944 81.5312 39.944 81.6104 39.944C81.6896 39.944 81.7556 39.9308 81.8084 39.9044C82.1517 39.9044 82.3233 39.9968 82.3233 40.1817C82.3233 40.3665 81.9537 41.964 81.2143 44.9743C80.4749 47.9845 80.0524 49.5425 79.9468 49.6481C79.8412 49.7537 79.6299 49.7933 79.3131 49.7669C78.785 49.7669 78.5209 49.6481 78.5209 49.4105C78.5209 49.252 78.5341 49.12 78.5605 49.0144C78.5605 48.9352 78.5737 48.6843 78.6001 48.2618C78.6265 47.8393 78.6529 47.496 78.6793 47.232C78.6793 46.3342 78.5605 45.5552 78.3229 44.8951C78.0852 44.2349 77.8476 43.7464 77.6099 43.4296C77.3723 43.1127 77.0422 42.7826 76.6197 42.4393C75.6691 41.8848 74.5865 41.6076 73.3718 41.6076C71.8667 41.6076 70.4672 42.2149 69.1733 43.4296C67.8794 44.6442 67.2193 46.0437 67.1929 47.6281C67.1929 48.4202 67.3909 49.1068 67.787 49.6877C68.1831 50.2686 68.7244 50.6779 69.4109 50.9156C69.5166 50.9684 70.4408 51.2192 72.1835 51.6681C73.9263 52.117 74.8109 52.3547 74.8373 52.3811C75.7351 52.6716 76.6065 53.3053 77.4515 54.2823C78.2965 55.2593 78.719 56.5796 78.719 58.2432C78.719 58.9297 78.6133 59.6691 78.4021 60.4612C78.2701 61.0422 78.0324 61.6891 77.6891 62.4021C77.3459 63.115 76.8706 63.894 76.2632 64.739C75.6559 65.584 74.7845 66.3761 73.6491 67.1155C72.5136 67.8548 71.2725 68.3566 69.9258 68.6206C69.609 68.6734 69.1601 68.6998 68.5792 68.6998C65.965 68.6998 63.9318 67.9737 62.4794 66.5214L62.0834 66.0857L60.9743 67.3135C60.367 68.0265 59.9973 68.4358 59.8653 68.5414C59.7332 68.647 59.5616 68.6998 59.3504 68.6998C59.0071 68.6998 58.8354 68.5942 58.8354 68.383C58.8354 68.3037 59.6012 65.2011 61.1327 59.0749C61.1856 58.9165 61.4496 58.8373 61.9249 58.8373H62.4398C62.5983 58.9957 62.6775 59.141 62.6775 59.273C62.6775 59.3258 62.6643 59.4446 62.6379 59.6295C62.6115 59.8143 62.5587 60.0916 62.4794 60.4612C62.4002 60.8309 62.3738 61.2666 62.4002 61.7683C62.453 62.7982 62.6907 63.6695 63.1132 64.3825C63.5357 65.0954 64.1034 65.6236 64.8163 65.9668C65.5293 66.3101 66.2158 66.5478 66.876 66.6798C67.5361 66.8118 68.2359 66.8778 68.9752 66.8778Z" fill="white"/>
</g>
<g id="Group_4">
<path id="Vector_3" d="M83.6304 61.61C83.6304 58.943 84.6338 56.4081 86.6407 54.0051C88.6475 51.6022 90.9052 50.3875 93.4138 50.3611C94.7604 50.3611 95.9487 51.0081 96.9785 52.302C97.401 51.5098 98.0083 51.1137 98.8005 51.1137C99.1438 51.1137 99.4475 51.2193 99.7115 51.4306C99.9756 51.6418 100.108 51.9059 100.108 52.2227C100.108 52.566 99.6191 54.6785 98.6421 58.5601C97.6651 62.4418 97.1634 64.6334 97.137 65.1351C97.137 65.7953 97.2294 66.231 97.4142 66.4422C97.5991 66.6535 97.8763 66.7723 98.246 66.7987C98.4836 66.7723 98.7477 66.6535 99.0382 66.4422C99.5927 65.9141 100.134 64.6466 100.662 62.6398C100.821 62.1117 100.953 61.8344 101.058 61.808C101.111 61.7816 101.243 61.7684 101.454 61.7684H101.613C102.114 61.7684 102.365 61.8872 102.365 62.1249C102.365 62.2833 102.299 62.6398 102.167 63.1943C102.035 63.7488 101.771 64.4618 101.375 65.3332C100.979 66.2046 100.556 66.8647 100.108 67.3136C99.7643 67.6569 99.3418 67.9341 98.8401 68.1454C98.6289 68.1982 98.312 68.2246 97.8895 68.2246C96.9917 68.2246 96.2392 68.0266 95.6318 67.6305C95.0245 67.2344 94.6284 66.8251 94.4436 66.4026L94.2059 65.8085C94.1795 65.7821 94.1267 65.7953 94.0475 65.8481C93.9947 65.9009 93.9419 65.9537 93.8891 66.0065C92.3311 67.4852 90.7468 68.2246 89.136 68.2246C87.6837 68.2246 86.403 67.6965 85.294 66.6403C84.185 65.584 83.6304 63.9073 83.6304 61.61ZM96.226 54.8369C96.226 54.6785 96.1599 54.388 96.0279 53.9655C95.8959 53.543 95.5922 53.0809 95.1169 52.5792C94.6416 52.0775 94.0343 51.8135 93.2949 51.7871C92.3707 51.7871 91.4861 52.1963 90.6411 53.0149C89.7962 53.8335 89.136 54.9029 88.6607 56.2232C87.895 58.3093 87.3536 60.4745 87.0368 62.719C87.0368 62.7982 87.0368 62.9435 87.0368 63.1547C87.0368 63.366 87.0236 63.5244 86.9972 63.63C86.9972 64.8183 87.2348 65.6368 87.7101 66.0857C88.1854 66.5346 88.7531 66.7723 89.4133 66.7987C90.4167 66.7987 91.4069 66.363 92.3839 65.4916C93.3609 64.6202 93.9419 63.9469 94.1267 63.4716C94.1795 63.366 94.536 61.9533 95.1961 59.2335C95.8563 56.5137 96.1996 55.0482 96.226 54.8369Z" fill="white"/>
</g>
<g id="Group_5">
<path id="Vector_4" d="M107.91 65.4917C107.91 66.3631 108.241 66.7988 108.901 66.7988C109.878 66.7988 110.709 65.4125 111.396 62.6399C111.554 62.1117 111.686 61.8345 111.792 61.8081C111.845 61.7817 111.977 61.7685 112.188 61.7685H112.347C112.584 61.7685 112.743 61.7685 112.822 61.7685C112.901 61.7685 112.967 61.7949 113.02 61.8477C113.073 61.9005 113.099 61.9929 113.099 62.1249C113.073 62.2834 113.033 62.4946 112.98 62.7587C112.928 63.0227 112.782 63.5244 112.545 64.2638C112.307 65.0032 112.043 65.6237 111.753 66.1254C111.462 66.6271 111.053 67.1156 110.525 67.5909C109.997 68.0662 109.389 68.2907 108.703 68.2643C107.752 68.2643 106.867 67.9738 106.049 67.3929C105.23 66.812 104.808 65.8349 104.781 64.4618C104.781 64.145 104.795 63.9205 104.821 63.7885L107.396 53.5695C109.059 46.836 109.891 43.3637 109.891 43.1524C109.891 43.0732 109.878 43.0072 109.851 42.9544C109.825 42.9016 109.772 42.8488 109.693 42.796C109.614 42.7431 109.548 42.7167 109.495 42.7167C109.442 42.7167 109.336 42.7035 109.178 42.6771C109.02 42.6507 108.914 42.6375 108.861 42.6375C108.808 42.6375 108.689 42.6243 108.505 42.5979C108.32 42.5715 108.188 42.5715 108.109 42.5979C107.844 42.5979 107.673 42.5979 107.594 42.5979C107.514 42.5979 107.409 42.5847 107.277 42.5583C107.145 42.5319 107.065 42.4923 107.039 42.4395C107.013 42.3867 106.999 42.3075 106.999 42.2018C106.999 42.149 107.026 41.9642 107.079 41.6473C107.211 41.1456 107.356 40.8683 107.514 40.8155C107.673 40.7627 108.623 40.6835 110.366 40.5779C110.762 40.5515 111.211 40.5251 111.713 40.4987C112.215 40.4723 112.611 40.4326 112.901 40.3798C113.192 40.327 113.337 40.3138 113.337 40.3402C113.654 40.3402 113.812 40.4459 113.812 40.6571C113.812 40.9476 112.848 44.9084 110.921 52.5397C108.993 60.1709 108.003 64.1714 107.95 64.5411C107.95 64.5939 107.95 64.6995 107.95 64.8579C107.95 65.0164 107.937 65.1484 107.91 65.254V65.4917Z" fill="white"/>
</g>
<g id="Group_6">
<path id="Vector_5" d="M115.911 56.4608C115.911 56.2496 116.03 55.8403 116.268 55.2329C116.506 54.6256 116.836 53.9391 117.258 53.1733C117.681 52.4075 118.262 51.7474 119.001 51.1929C119.74 50.6383 120.519 50.3479 121.338 50.3215C122.552 50.3215 123.463 50.6515 124.071 51.3117C124.678 51.9718 124.982 52.7508 124.982 53.6486C124.982 54.1239 124.533 55.6026 123.635 58.0848C122.737 60.5669 122.288 62.4285 122.288 63.6696C122.288 64.805 122.473 65.5972 122.843 66.0461C123.213 66.495 123.767 66.7326 124.507 66.759C125.246 66.7854 125.946 66.561 126.606 66.0857C127.266 65.6104 127.754 65.1615 128.071 64.739L128.507 64.0657C128.56 63.96 129.062 61.9532 130.012 58.0451C130.804 54.8765 131.28 53.0281 131.438 52.4999C131.596 51.9718 131.781 51.589 131.993 51.3513C132.441 50.9552 132.917 50.7572 133.418 50.7572C133.867 50.7572 134.197 50.8892 134.409 51.1533C134.62 51.4173 134.726 51.6682 134.726 51.9058L131.715 64.5013C131.689 64.6334 131.676 64.8446 131.676 65.1351C131.676 65.7952 131.768 66.2309 131.953 66.4422C132.138 66.6534 132.415 66.7722 132.785 66.7986C133.366 66.7194 133.828 66.3101 134.171 65.5708C134.514 64.8314 134.91 63.6696 135.359 62.0852C135.412 61.874 135.676 61.7684 136.151 61.7684C136.653 61.7684 136.904 61.8872 136.904 62.1248C136.878 62.2569 136.851 62.4417 136.825 62.6794C136.798 62.917 136.68 63.3395 136.468 63.9468C136.257 64.5542 136.033 65.1219 135.795 65.65C135.557 66.1781 135.227 66.6798 134.805 67.1551C134.382 67.6304 133.907 67.9605 133.379 68.1453C133.168 68.1981 132.851 68.2246 132.428 68.2246C130.685 68.2246 129.484 67.4852 128.824 66.0065C128.771 66.0329 128.626 66.1649 128.388 66.4026C128.151 66.6402 127.913 66.8383 127.675 66.9967C127.438 67.1551 127.147 67.3532 126.804 67.5908C126.461 67.8285 126.078 67.9869 125.655 68.0661C125.233 68.1453 124.784 68.2113 124.308 68.2642C123.147 68.2642 122.117 68.0265 121.219 67.5512C119.846 66.7326 119.159 65.3331 119.159 63.3527C119.159 61.8476 119.621 59.8803 120.546 57.451C121.47 55.0217 121.932 53.477 121.932 52.8168C121.932 52.7904 121.932 52.764 121.932 52.7376C121.932 52.4999 121.932 52.3415 121.932 52.2623C121.932 52.1831 121.879 52.0907 121.774 51.985C121.668 51.8794 121.523 51.8266 121.338 51.8266H121.179C120.572 51.8266 120.018 52.0775 119.516 52.5792C119.014 53.0809 118.618 53.6222 118.328 54.2031C118.037 54.784 117.813 55.3386 117.654 55.8667C117.496 56.3948 117.39 56.6853 117.337 56.7381C117.285 56.7909 117.073 56.8173 116.704 56.8173H116.149C115.991 56.6588 115.911 56.54 115.911 56.4608Z" fill="white"/>
</g>
<g id="Group_7">
<path id="Vector_6" d="M152.233 40.7759C152.259 40.7759 153.21 40.7099 155.084 40.5778C156.959 40.4458 157.923 40.3666 157.976 40.3402C158.293 40.3402 158.451 40.4458 158.451 40.657C158.451 40.8419 157.487 44.8291 155.56 52.6188C153.632 60.4085 152.642 64.3826 152.589 64.541C152.536 64.6994 152.523 64.8975 152.549 65.1351C152.549 66.2442 152.919 66.7987 153.658 66.7987C153.896 66.7723 154.16 66.6535 154.451 66.4422C155.005 65.9141 155.546 64.6466 156.075 62.6398C156.233 62.1117 156.365 61.8344 156.471 61.808C156.523 61.7816 156.656 61.7684 156.867 61.7684H157.025H157.184C157.58 61.7684 157.778 61.874 157.778 62.0853C157.778 62.2173 157.738 62.4286 157.659 62.719C157.316 64.0393 156.92 65.1087 156.471 65.9273C156.022 66.7459 155.652 67.274 155.362 67.5117C155.071 67.7493 154.701 67.9606 154.253 68.1454C154.041 68.1982 153.724 68.2246 153.302 68.2246C152.404 68.2246 151.652 68.0266 151.044 67.6305C150.437 67.2344 150.041 66.8251 149.856 66.4026L149.618 65.8085C149.592 65.7821 149.539 65.7953 149.46 65.8481C149.407 65.9009 149.354 65.9537 149.302 66.0065C147.744 67.4852 146.159 68.2246 144.548 68.2246C143.096 68.2246 141.816 67.6965 140.706 66.6403C139.597 65.584 139.043 63.9073 139.043 61.61C139.043 60.3425 139.307 59.0486 139.835 57.7283C140.363 56.4081 140.997 55.2726 141.736 54.322C142.977 52.8169 144.218 51.7739 145.459 51.1929C146.701 50.612 147.823 50.3215 148.826 50.3215C150.305 50.3215 151.414 50.8761 152.153 51.9851C152.285 52.1435 152.351 52.1963 152.351 52.1435C152.378 52.0379 152.734 50.5988 153.421 47.8262C154.107 45.0536 154.477 43.5881 154.53 43.4296C154.53 43.0864 154.437 42.8751 154.253 42.7959C154.068 42.7167 153.553 42.6507 152.708 42.5979H151.876C151.718 42.4394 151.638 42.3338 151.638 42.281C151.638 42.2282 151.665 41.9773 151.718 41.5284C151.85 41.0267 152.021 40.7759 152.233 40.7759ZM151.678 54.9161C151.071 52.8301 150.08 51.7871 148.707 51.7871C147.783 51.7871 146.899 52.1963 146.054 53.0149C145.209 53.8335 144.548 54.9029 144.073 56.2232C143.307 58.3093 142.766 60.4745 142.449 62.719C142.449 62.7982 142.449 62.9435 142.449 63.1547C142.449 63.366 142.436 63.5244 142.41 63.63C142.41 64.8183 142.647 65.6368 143.123 66.0857C143.598 66.5346 144.166 66.7723 144.826 66.7987C146.252 66.7987 147.717 65.8481 149.222 63.9469L149.539 63.5112L151.678 54.9161Z" fill="white"/>
</g>
<g id="Group_8">
<path id="Vector_7" d="M166.294 68.2642C164.313 68.2642 162.716 67.6172 161.501 66.3233C160.286 65.0295 159.679 63.4715 159.679 61.6495C159.679 59.9332 160.075 58.3092 160.867 56.7777C161.659 55.2461 162.742 53.9127 164.115 52.7772C166.122 51.1665 168.168 50.3611 170.254 50.3611C171.099 50.3611 171.627 50.3743 171.839 50.4007C172.182 50.4799 172.525 50.5723 172.869 50.678C173.212 50.7836 173.674 50.9948 174.255 51.3117C174.836 51.6286 175.311 52.0246 175.681 52.4999C176.05 52.9753 176.394 53.6222 176.711 54.4408C177.027 55.2593 177.186 56.1835 177.186 57.2134C177.186 60.0388 176.05 62.5869 173.78 64.8578C171.509 67.1287 169.013 68.2642 166.294 68.2642ZM163.125 63.0754C163.125 64.3957 163.468 65.3463 164.155 65.9273C164.841 66.5082 165.62 66.7986 166.492 66.7986C167.653 66.7986 168.749 66.3762 169.779 65.5312C170.809 64.6862 171.627 63.5771 172.235 62.204C172.472 61.6495 172.776 60.6725 173.146 59.273C173.516 57.8735 173.7 56.6588 173.7 55.629C173.7 54.4672 173.463 53.5826 172.987 52.9753C172.354 52.1831 171.509 51.787 170.452 51.787C168.789 51.787 167.323 52.5528 166.056 54.0843C165.079 55.2461 164.353 56.7909 163.877 58.7185C163.402 60.6461 163.151 62.0984 163.125 63.0754Z" fill="white"/>
</g>
<g id="Group_9">
<path id="Vector_8" d="M182.731 56.3816C182.731 55.5367 182.942 54.6785 183.365 53.8071C183.787 52.9357 184.527 52.1303 185.583 51.391C186.639 50.6516 187.92 50.2951 189.425 50.3215C191.062 50.3215 192.25 50.678 192.99 51.391C193.729 52.1039 194.112 52.8961 194.138 53.7675C194.138 54.6125 193.914 55.233 193.465 55.6291C193.016 56.0252 192.514 56.2364 191.96 56.2628C191.617 56.2628 191.3 56.1572 191.009 55.946C190.719 55.7347 190.56 55.3914 190.534 54.9161C190.534 54.4936 190.653 54.124 190.891 53.8071C191.128 53.4902 191.353 53.2526 191.564 53.0941C191.775 52.9357 191.947 52.8565 192.079 52.8565C192.105 52.8565 192.118 52.8433 192.118 52.8169C192.118 52.7377 192.026 52.6188 191.841 52.4604C191.656 52.302 191.326 52.1567 190.851 52.0247C190.376 51.8927 189.861 51.8135 189.306 51.7871C188.039 51.7871 187.114 52.1303 186.534 52.8169C185.953 53.5034 185.649 54.2032 185.623 54.9161C185.623 55.5763 185.873 56.0384 186.375 56.3024C186.877 56.5665 187.603 56.7909 188.554 56.9758C189.504 57.1606 190.191 57.3587 190.613 57.5699C192.356 58.3357 193.227 59.6031 193.227 61.3723C193.227 62.1117 193.082 62.851 192.792 63.5904C192.501 64.3298 192.066 65.0691 191.485 65.8085C190.904 66.5478 190.072 67.1288 188.989 67.5513C187.907 67.9738 186.666 68.1982 185.266 68.2246C183.233 68.2246 181.794 67.8417 180.949 67.076C180.104 66.3102 179.668 65.4124 179.642 64.3826C179.642 63.3528 179.919 62.6134 180.473 62.1645C181.028 61.7156 181.609 61.4912 182.216 61.4912C182.612 61.4912 182.982 61.61 183.325 61.8476C183.669 62.0853 183.853 62.4946 183.88 63.0755C183.88 63.762 183.642 64.343 183.167 64.8183C182.692 65.2936 182.282 65.5312 181.939 65.5312C181.886 65.5576 181.847 65.5708 181.82 65.5708C181.794 65.5708 181.781 65.5972 181.781 65.6501C181.807 65.7293 181.913 65.8349 182.097 65.9669C182.282 66.0989 182.692 66.2706 183.325 66.4818C183.959 66.6931 184.685 66.7855 185.504 66.7591C186.454 66.7591 187.273 66.6139 187.959 66.3234C188.646 66.0329 189.148 65.6633 189.465 65.2144C189.781 64.7655 190.006 64.3562 190.138 63.9865C190.27 63.6168 190.336 63.2867 190.336 62.9963C190.336 62.2569 190.059 61.7024 189.504 61.3327C188.95 60.963 188.316 60.7386 187.603 60.6594C186.89 60.5802 186.111 60.3821 185.266 60.0652C184.421 59.7484 183.801 59.2863 183.404 58.6789C182.956 58.0188 182.731 57.253 182.731 56.3816Z" fill="white"/>
</g>
<g id="Group_10">
<path id="Vector_9" d="M209.34 54.0844C209.34 53.7412 209.525 53.4771 209.895 53.2923H235.125C235.521 53.5035 235.72 53.7676 235.72 54.0844C235.72 54.3749 235.535 54.6258 235.165 54.837L222.569 54.8766H209.974C209.551 54.7446 209.34 54.4805 209.34 54.0844ZM209.34 61.7685C209.34 61.3724 209.551 61.1084 209.974 60.9763H235.165C235.535 61.2404 235.72 61.5044 235.72 61.7685C235.72 62.1118 235.521 62.3758 235.125 62.5607H209.895C209.525 62.3758 209.34 62.1118 209.34 61.7685Z" fill="white"/>
</g>
<g id="Group_11">
<g id="Group_12">
<g id="Group_13">
<path id="Vector_10" d="M258.487 28.3389C258.513 28.1804 258.553 27.9692 258.605 27.7051C258.658 27.4411 258.817 26.9394 259.081 26.2C259.345 25.4606 259.609 24.8401 259.873 24.3384C260.137 23.8367 260.573 23.3482 261.18 22.8729C261.787 22.3976 262.395 22.1731 263.002 22.1995C263.953 22.1995 264.745 22.4372 265.378 22.9125C266.012 23.3878 266.408 23.8367 266.567 24.2592C266.725 24.6817 266.804 24.9589 266.804 25.091C266.804 25.1438 266.818 25.1702 266.844 25.1702L267.28 24.7345C268.89 23.0445 270.726 22.1995 272.785 22.1995C274.211 22.1995 275.36 22.556 276.231 23.269C277.103 23.9819 277.552 25.0249 277.578 26.398C277.604 27.7711 277.103 29.844 276.073 32.6166C275.043 35.3892 274.541 37.0659 274.568 37.6469C274.568 38.3334 274.792 38.6767 275.241 38.6767C275.399 38.6767 275.518 38.6635 275.597 38.6371C276.363 38.5051 277.05 38.0033 277.657 37.132C278.264 36.2606 278.727 35.2043 279.043 33.9633C279.096 33.752 279.36 33.6464 279.836 33.6464C280.364 33.6464 280.628 33.752 280.628 33.9633C280.628 33.9897 280.575 34.1877 280.469 34.5574C280.258 35.3232 279.968 36.0757 279.598 36.8151C279.228 37.5545 278.621 38.2938 277.776 39.0332C276.931 39.7725 276.02 40.129 275.043 40.1026C273.802 40.1026 272.904 39.7461 272.35 39.0332C271.795 38.3202 271.518 37.5809 271.518 36.8151C271.518 36.3134 271.993 34.729 272.944 32.0621C273.894 29.3951 274.383 27.3883 274.409 26.0416C274.409 24.4836 273.828 23.7047 272.666 23.7047H272.468C270.198 23.7047 268.283 25.0381 266.725 27.7051L266.448 28.1804L265.141 33.488C264.269 36.9471 263.768 38.8087 263.636 39.0728C263.292 39.7857 262.725 40.1422 261.933 40.1422C261.589 40.1422 261.312 40.063 261.101 39.9046C260.89 39.7461 260.744 39.5877 260.665 39.4293C260.586 39.2708 260.559 39.1388 260.586 39.0332C260.586 38.6899 261.088 36.5378 262.091 32.577C263.094 28.6161 263.622 26.4641 263.675 26.1208C263.702 25.9887 263.715 25.6851 263.715 25.2098C263.715 24.18 263.398 23.665 262.764 23.665C261.761 23.665 260.929 24.9853 260.269 27.6259C260.111 28.154 260.031 28.4313 260.031 28.4577C259.979 28.6161 259.728 28.6953 259.279 28.6953H258.724C258.566 28.5369 258.487 28.4181 258.487 28.3389Z" fill="white"/>
</g>
<g id="Group_14">
<path id="Vector_11" d="M315.174 38.5578C315.174 39.0859 314.897 39.35 314.342 39.35C314.21 39.35 313.92 39.1387 313.471 38.7162C313.022 38.2937 311.781 37.0659 309.748 35.0326L305.629 30.9134L301.47 35.0722C298.671 37.8184 297.232 39.2179 297.152 39.2708C297.047 39.3236 296.954 39.35 296.875 39.35C296.664 39.35 296.479 39.2708 296.321 39.1123C296.162 38.9539 296.07 38.769 296.043 38.5578C296.043 38.373 296.228 38.0825 296.598 37.6864C296.968 37.2903 298.209 36.0361 300.321 33.9236L304.44 29.8043L300.321 25.685C298.182 23.5462 296.941 22.2919 296.598 21.9222C296.255 21.5525 296.07 21.2621 296.043 21.0508C296.043 20.8132 296.123 20.6283 296.281 20.4963C296.439 20.3643 296.637 20.2983 296.875 20.2983C297.007 20.2983 297.1 20.3115 297.152 20.3379C297.232 20.3907 298.671 21.7902 301.47 24.5364L305.629 28.6953L309.748 24.576C311.781 22.5427 313.022 21.3149 313.471 20.8924C313.92 20.4699 314.21 20.2586 314.342 20.2586C314.897 20.2586 315.174 20.5227 315.174 21.0508C315.174 21.2357 315.042 21.4733 314.778 21.7638C314.514 22.0542 313.22 23.3481 310.897 25.6454L306.777 29.8043L310.897 33.9632C313.115 36.1813 314.382 37.462 314.699 37.8052C315.016 38.1485 315.174 38.3994 315.174 38.5578Z" fill="white"/>
</g>
<g id="Group_15">
<path id="Vector_12" d="M333.561 29.8044C333.561 27.9824 333.693 26.2528 333.957 24.6156C334.221 22.9785 334.524 21.5658 334.868 20.3775C335.211 19.1893 335.7 18.0274 336.333 16.892C336.967 15.7565 337.469 14.8719 337.838 14.2382C338.208 13.6044 338.763 12.9179 339.502 12.1785C340.241 11.4392 340.677 10.9903 340.809 10.8318C340.941 10.6734 341.271 10.3962 341.799 10.0001H342.314H342.473C342.842 10.0001 343.027 10.1189 343.027 10.3565C343.027 10.4358 342.803 10.713 342.354 11.1883C341.905 11.6636 341.364 12.3634 340.73 13.2876C340.096 14.2118 339.449 15.3472 338.789 16.6939C338.129 18.0406 337.574 19.8626 337.125 22.1599C336.677 24.4572 336.452 27.0053 336.452 29.8044C336.452 32.6034 336.677 35.1383 337.125 37.4092C337.574 39.6801 338.116 41.5153 338.749 42.9148C339.383 44.3143 340.03 45.4497 340.69 46.3211C341.35 47.1925 341.905 47.8923 342.354 48.4204C342.803 48.9485 343.027 49.2258 343.027 49.2522C343.027 49.4898 342.829 49.6086 342.433 49.6086H342.314H341.799L340.69 48.658C338.208 46.4136 336.399 43.6145 335.264 40.261C334.128 36.9075 333.561 33.4219 333.561 29.8044Z" fill="white"/>
</g>
<g id="Group_16">
<path id="Vector_13" d="M346.077 28.3389C346.103 28.1804 346.143 27.9692 346.196 27.7051C346.249 27.4411 346.407 26.9394 346.671 26.2C346.935 25.4606 347.199 24.8401 347.463 24.3384C347.727 23.8367 348.163 23.3482 348.77 22.8729C349.378 22.3976 349.985 22.1731 350.592 22.1995C351.543 22.1995 352.335 22.4372 352.969 22.9125C353.603 23.3878 353.999 23.8367 354.157 24.2592C354.316 24.6817 354.395 24.9589 354.395 25.091C354.395 25.1438 354.408 25.1702 354.434 25.1702L354.87 24.7345C356.481 23.0445 358.316 22.1995 360.376 22.1995C361.802 22.1995 362.95 22.556 363.822 23.269C364.693 23.9819 365.142 25.0249 365.168 26.398C365.195 27.7711 364.693 29.844 363.663 32.6166C362.633 35.3892 362.132 37.0659 362.158 37.6469C362.158 38.3334 362.382 38.6767 362.831 38.6767C362.99 38.6767 363.109 38.6635 363.188 38.6371C363.954 38.5051 364.64 38.0033 365.247 37.132C365.855 36.2606 366.317 35.2043 366.634 33.9633C366.687 33.752 366.951 33.6464 367.426 33.6464C367.954 33.6464 368.218 33.752 368.218 33.9633C368.218 33.9897 368.165 34.1877 368.06 34.5574C367.848 35.3232 367.558 36.0757 367.188 36.8151C366.819 37.5545 366.211 38.2938 365.366 39.0332C364.521 39.7725 363.61 40.129 362.633 40.1026C361.392 40.1026 360.494 39.7461 359.94 39.0332C359.385 38.3202 359.108 37.5809 359.108 36.8151C359.108 36.3134 359.583 34.729 360.534 32.0621C361.485 29.3951 361.973 27.3883 362 26.0416C362 24.4836 361.419 23.7047 360.257 23.7047H360.059C357.788 23.7047 355.873 25.0381 354.316 27.7051L354.038 28.1804L352.731 33.488C351.86 36.9471 351.358 38.8087 351.226 39.0728C350.883 39.7857 350.315 40.1422 349.523 40.1422C349.18 40.1422 348.902 40.063 348.691 39.9046C348.48 39.7461 348.335 39.5877 348.255 39.4293C348.176 39.2708 348.15 39.1388 348.176 39.0332C348.176 38.6899 348.678 36.5378 349.681 32.577C350.685 28.6161 351.213 26.4641 351.266 26.1208C351.292 25.9887 351.305 25.6851 351.305 25.2098C351.305 24.18 350.988 23.665 350.355 23.665C349.351 23.665 348.519 24.9853 347.859 27.6259C347.701 28.154 347.622 28.4313 347.622 28.4577C347.569 28.6161 347.318 28.6953 346.869 28.6953H346.315C346.156 28.5369 346.077 28.4181 346.077 28.3389Z" fill="white"/>
</g>
<g id="Group_17">
<path id="Vector_14" d="M381.142 30.3192C381.142 30.3192 381.142 30.1475 381.142 29.8043C381.142 29.461 381.327 29.1969 381.697 29.0121H404.71C405.106 29.2233 405.304 29.4874 405.304 29.8043C405.304 30.1211 405.106 30.3852 404.71 30.5964H381.697C381.327 30.4116 381.142 30.1475 381.142 29.8043V30.3192Z" fill="white"/>
</g>
<g id="Group_18">
<path id="Vector_15" d="M425.868 16.8128L425.353 17.0108C424.984 17.1429 424.456 17.2749 423.769 17.4069C423.083 17.5389 422.317 17.6314 421.472 17.6842H420.719V15.8622H421.472C422.713 15.8094 423.861 15.6113 424.918 15.2681C425.974 14.9248 426.713 14.6079 427.136 14.3174C427.558 14.027 427.928 13.7365 428.245 13.4461C428.298 13.3668 428.456 13.3272 428.72 13.3272C428.958 13.3272 429.182 13.4064 429.393 13.5649V25.4078L429.433 37.2904C429.618 37.4753 429.776 37.5941 429.908 37.6469C430.04 37.6997 430.357 37.7525 430.859 37.8053C431.361 37.8581 432.179 37.8845 433.315 37.8845H434.345V39.7065H433.909C433.354 39.6273 431.255 39.5877 427.611 39.5877C424.02 39.5877 421.947 39.6273 421.393 39.7065H420.917V37.8845H421.947C422.528 37.8845 423.03 37.8845 423.452 37.8845C423.875 37.8845 424.205 37.8713 424.442 37.8449C424.68 37.8185 424.891 37.7789 425.076 37.7261C425.261 37.6733 425.367 37.6469 425.393 37.6469C425.419 37.6469 425.499 37.5809 425.631 37.4489C425.763 37.3168 425.842 37.264 425.868 37.2904V16.8128Z" fill="white"/>
</g>
<g id="Group_19">
<path id="Vector_16" d="M439.613 10.0397L439.771 10.0001C439.903 10.0001 440.035 10.0001 440.167 10.0001H440.643L441.752 10.9507C444.234 13.1952 446.042 15.9942 447.178 19.3477C448.313 22.7012 448.881 26.1868 448.881 29.8044C448.881 31.5999 448.749 33.3295 448.485 34.9931C448.221 36.6566 447.917 38.0693 447.574 39.2312C447.231 40.393 446.742 41.5549 446.109 42.7168C445.475 43.8786 444.973 44.7632 444.603 45.3705C444.234 45.9779 443.692 46.6512 442.979 47.3906C442.266 48.1299 441.844 48.5656 441.712 48.6976C441.58 48.8297 441.276 49.0805 440.801 49.4502C440.722 49.5294 440.669 49.5822 440.643 49.6086H440.167C439.956 49.6086 439.811 49.6086 439.732 49.6086C439.652 49.6086 439.586 49.569 439.533 49.4898C439.481 49.4106 439.441 49.2918 439.415 49.1333C439.441 49.1069 439.586 48.9353 439.85 48.6184C443.943 44.3671 445.99 38.0958 445.99 29.8044C445.99 21.513 443.943 15.2416 439.85 10.9903C439.586 10.6734 439.441 10.5018 439.415 10.4754C439.415 10.2641 439.481 10.1189 439.613 10.0397Z" fill="white"/>
</g>
</g>
<g id="Group_20">
<path id="Vector_17" d="M349.563 78.0079C348.85 78.0079 348.282 77.7703 347.859 77.295C347.437 76.8197 347.226 76.2387 347.226 75.5522C347.226 73.6774 347.925 72.0534 349.325 70.6803C350.725 69.3072 352.467 68.6207 354.553 68.6207C356.956 68.6207 358.963 69.36 360.574 70.8388C362.185 72.3175 363.003 74.2319 363.03 76.582C363.03 77.7175 362.766 78.8001 362.237 79.8299C361.709 80.8597 361.076 81.7575 360.336 82.5233C359.597 83.2891 358.541 84.2661 357.167 85.4543C356.217 86.2729 354.897 87.4876 353.207 89.0983L350.87 91.3164L353.88 91.356C358.026 91.356 360.231 91.29 360.495 91.158C360.679 91.1052 360.996 89.9301 361.445 87.6328V87.514H363.03V87.6328C363.003 87.712 362.832 88.9135 362.515 91.2372C362.198 93.5609 362 94.7756 361.921 94.8812V95H347.226V94.2474V93.7721C347.226 93.5873 347.305 93.3893 347.463 93.178C347.622 92.9668 348.018 92.5047 348.652 91.7917C349.417 90.9467 350.078 90.2074 350.632 89.5736C350.87 89.3096 351.319 88.8211 351.979 88.1081C352.639 87.3952 353.088 86.9066 353.325 86.6426C353.563 86.3785 353.946 85.9428 354.474 85.3355C355.002 84.7282 355.372 84.2793 355.583 83.9888C355.794 83.6984 356.098 83.3023 356.494 82.8006C356.89 82.2989 357.167 81.8764 357.326 81.5331C357.484 81.1898 357.682 80.8069 357.92 80.3844C358.158 79.9619 358.329 79.5395 358.435 79.117C358.541 78.6945 358.633 78.2984 358.712 77.9287C358.791 77.559 358.831 77.1233 358.831 76.6216C358.831 74.9581 358.382 73.5189 357.484 72.3043C356.587 71.0896 355.306 70.4823 353.642 70.4823C352.771 70.4823 352.005 70.7067 351.345 71.1556C350.685 71.6045 350.223 72.0402 349.959 72.4627C349.695 72.8852 349.563 73.1361 349.563 73.2153C349.563 73.2417 349.629 73.2549 349.761 73.2549C350.236 73.2549 350.725 73.4397 351.226 73.8094C351.728 74.1791 351.979 74.7864 351.979 75.6314C351.979 76.2915 351.768 76.8461 351.345 77.295C350.923 77.7439 350.328 77.9815 349.563 78.0079Z" fill="white"/>
</g>
<path id="Vector_18" d="M456.605 59.1146H253.694V56.7381H456.605V59.1146Z" fill="white"/>
</g>
</g>
<rect x="2.5" y="-2.5" width="445.605" height="100" transform="matrix(1 0 0 -1 16 100)" stroke="#D40303" stroke-width="5"/>
</g>
<g id="\#Saludos=\frac{20 \times 19}{2}&#10;&#10;\therefore\; \#Saludos = 10 \times 19=190">
<g id="Group_21">
<g id="Group 13">
<g id="Group_22">
<path id="Vector_19" d="M87 192.742C87 192.396 87.1841 192.129 87.5523 191.943H97.1381L98.7949 185.672C99.8205 181.625 100.425 179.468 100.609 179.202C100.741 178.989 100.938 178.882 101.201 178.882C101.675 178.882 101.938 179.122 101.99 179.601C101.99 179.708 101.464 181.758 100.412 185.752C99.334 189.693 98.7949 191.73 98.7949 191.863L98.7554 191.943H106.211L107.868 185.672C108.946 181.545 109.538 179.401 109.643 179.242C109.801 179.002 110.011 178.882 110.274 178.882C110.458 178.882 110.629 178.949 110.787 179.082C110.945 179.215 111.024 179.362 111.024 179.521C111.024 179.788 110.511 181.865 109.485 185.752C108.407 189.693 107.868 191.73 107.868 191.863L107.828 191.943H114.85C115.245 192.156 115.442 192.422 115.442 192.742C115.442 193.088 115.31 193.301 115.047 193.381C114.784 193.461 114.193 193.514 113.272 193.541H111.103H107.355L106.566 196.576L105.738 199.652C105.738 199.678 107.263 199.692 110.314 199.692H113.193C114.14 199.692 114.745 199.731 115.008 199.811C115.271 199.891 115.416 200.118 115.442 200.49C115.468 200.863 115.271 201.129 114.85 201.289H105.264L103.607 207.56C102.529 211.687 101.938 213.831 101.832 213.99C101.675 214.23 101.464 214.35 101.201 214.35C101.017 214.35 100.846 214.283 100.688 214.15C100.531 214.017 100.452 213.857 100.452 213.671C100.452 213.405 100.964 211.328 101.99 207.44C103.068 203.552 103.607 201.529 103.607 201.369L103.647 201.289H96.1913L94.5345 207.56C93.4563 211.687 92.8646 213.831 92.7594 213.99C92.6016 214.23 92.3912 214.35 92.1282 214.35C91.9441 214.35 91.7732 214.283 91.6154 214.15C91.4576 214.017 91.3787 213.857 91.3787 213.671C91.3787 213.405 91.8915 211.328 92.9172 207.44C93.9954 203.552 94.5345 201.529 94.5345 201.369L94.574 201.289H87.5523C87.1841 201.103 87 200.836 87 200.49C87 200.091 87.2104 199.825 87.6312 199.692H95.0473L95.8363 196.656L96.6647 193.581C96.6647 193.554 95.1525 193.541 92.1282 193.541H87.6312C87.2104 193.407 87 193.141 87 192.742ZM105.738 193.581C105.738 193.554 104.502 193.541 102.03 193.541H98.2821L97.4931 196.576L96.6647 199.652C96.6647 199.678 97.9007 199.692 100.373 199.692H104.12L104.909 196.656L105.738 193.581Z" fill="white"/>
</g>
<g id="Group_23">
<path id="Vector_20" d="M129.801 205.643C131.352 205.643 132.772 204.95 134.061 203.566C135.35 202.181 136.007 200.57 136.033 198.733C136.033 197.055 135.35 195.897 133.982 195.258C131.195 194.539 129.406 194.046 128.617 193.78C127.828 193.514 127.276 193.248 126.961 192.981C125.383 191.863 124.594 190.252 124.594 188.148C124.594 186.524 125.014 185.046 125.856 183.715C126.698 182.384 127.552 181.385 128.42 180.719C129.183 180.054 130.103 179.521 131.181 179.122C132.26 178.722 133.101 178.509 133.706 178.483H134.14H134.416C136.941 178.483 138.769 179.335 139.899 181.039C139.926 181.039 140.097 180.866 140.412 180.52C140.728 180.174 141.07 179.787 141.438 179.361C141.806 178.935 142.069 178.642 142.227 178.483C142.253 178.483 142.306 178.483 142.385 178.483C142.463 178.483 142.529 178.469 142.582 178.443C142.924 178.443 143.095 178.536 143.095 178.722C143.095 178.909 142.726 180.52 141.99 183.555C141.254 186.591 140.833 188.162 140.728 188.268C140.623 188.375 140.412 188.415 140.097 188.388C139.571 188.388 139.308 188.268 139.308 188.029C139.308 187.869 139.321 187.736 139.347 187.629C139.347 187.549 139.36 187.296 139.387 186.87C139.413 186.444 139.439 186.098 139.465 185.832C139.465 184.927 139.347 184.141 139.11 183.475C138.874 182.81 138.637 182.317 138.4 181.997C138.164 181.678 137.835 181.345 137.414 180.999C136.467 180.44 135.389 180.16 134.179 180.16C132.68 180.16 131.287 180.773 129.998 181.997C128.709 183.222 128.052 184.634 128.026 186.231C128.026 187.03 128.223 187.722 128.617 188.308C129.012 188.894 129.551 189.307 130.235 189.546C130.34 189.6 131.26 189.853 132.996 190.305C134.732 190.758 135.613 190.998 135.639 191.024C136.533 191.317 137.401 191.956 138.243 192.941C139.084 193.927 139.505 195.258 139.505 196.935C139.505 197.628 139.4 198.373 139.189 199.172C139.058 199.758 138.821 200.41 138.479 201.129C138.137 201.848 137.664 202.634 137.059 203.486C136.454 204.338 135.586 205.137 134.456 205.882C133.325 206.628 132.089 207.134 130.747 207.4C130.432 207.453 129.985 207.48 129.406 207.48C126.803 207.48 124.778 206.748 123.331 205.283L122.937 204.844L121.832 206.082C121.227 206.801 120.859 207.214 120.728 207.32C120.596 207.427 120.425 207.48 120.215 207.48C119.873 207.48 119.702 207.373 119.702 207.16C119.702 207.08 120.465 203.952 121.99 197.774C122.043 197.614 122.306 197.535 122.779 197.535H123.292C123.45 197.694 123.529 197.841 123.529 197.974C123.529 198.027 123.515 198.147 123.489 198.333C123.463 198.52 123.41 198.799 123.331 199.172C123.252 199.545 123.226 199.984 123.252 200.49C123.305 201.529 123.542 202.407 123.962 203.126C124.383 203.845 124.949 204.378 125.659 204.724C126.369 205.07 127.053 205.31 127.71 205.443C128.367 205.576 129.064 205.643 129.801 205.643Z" fill="white"/>
</g>
<g id="Group_24">
<path id="Vector_21" d="M144.396 200.33C144.396 197.64 145.396 195.084 147.394 192.661C149.393 190.238 151.642 189.013 154.14 188.987C155.481 188.987 156.665 189.639 157.69 190.944C158.111 190.145 158.716 189.745 159.505 189.745C159.847 189.745 160.149 189.852 160.412 190.065C160.675 190.278 160.807 190.544 160.807 190.864C160.807 191.21 160.32 193.34 159.347 197.254C158.374 201.169 157.874 203.379 157.848 203.885C157.848 204.55 157.94 204.99 158.124 205.203C158.308 205.416 158.584 205.535 158.953 205.562C159.189 205.535 159.452 205.416 159.742 205.203C160.294 204.67 160.833 203.392 161.359 201.368C161.517 200.836 161.648 200.556 161.753 200.53C161.806 200.503 161.938 200.49 162.148 200.49H162.306C162.805 200.49 163.055 200.609 163.055 200.849C163.055 201.009 162.989 201.368 162.858 201.927C162.726 202.487 162.464 203.206 162.069 204.084C161.675 204.963 161.254 205.629 160.807 206.081C160.465 206.428 160.044 206.707 159.544 206.92C159.334 206.973 159.018 207 158.598 207C157.703 207 156.954 206.8 156.349 206.401C155.744 206.001 155.35 205.589 155.166 205.163L154.929 204.564C154.903 204.537 154.85 204.55 154.771 204.604C154.719 204.657 154.666 204.71 154.613 204.763C153.062 206.254 151.484 207 149.88 207C148.433 207 147.158 206.467 146.053 205.402C144.949 204.337 144.396 202.646 144.396 200.33ZM156.941 193.5C156.941 193.34 156.875 193.047 156.744 192.621C156.612 192.195 156.31 191.729 155.836 191.223C155.363 190.717 154.758 190.451 154.022 190.424C153.101 190.424 152.22 190.837 151.379 191.663C150.537 192.488 149.88 193.567 149.406 194.898C148.644 197.001 148.105 199.185 147.789 201.448C147.789 201.528 147.789 201.675 147.789 201.888C147.789 202.101 147.776 202.26 147.75 202.367C147.75 203.565 147.986 204.391 148.46 204.843C148.933 205.296 149.498 205.535 150.156 205.562C151.155 205.562 152.141 205.123 153.114 204.244C154.087 203.365 154.666 202.686 154.85 202.207C154.903 202.101 155.258 200.676 155.915 197.933C156.573 195.191 156.915 193.713 156.941 193.5Z" fill="white"/>
</g>
<g id="Group_25">
<path id="Vector_22" d="M168.578 204.244C168.578 205.123 168.907 205.562 169.564 205.562C170.537 205.562 171.366 204.165 172.049 201.369C172.207 200.836 172.339 200.556 172.444 200.53C172.496 200.503 172.628 200.49 172.838 200.49H172.996C173.233 200.49 173.391 200.49 173.469 200.49C173.548 200.49 173.614 200.517 173.667 200.57C173.719 200.623 173.746 200.716 173.746 200.849C173.719 201.009 173.68 201.222 173.627 201.488C173.575 201.755 173.43 202.261 173.193 203.006C172.957 203.752 172.694 204.378 172.404 204.883C172.115 205.389 171.707 205.882 171.181 206.361C170.655 206.841 170.051 207.067 169.367 207.04C168.42 207.04 167.539 206.747 166.724 206.162C165.909 205.576 165.488 204.591 165.462 203.206C165.462 202.886 165.475 202.66 165.501 202.527L168.065 192.222C169.722 185.432 170.55 181.931 170.55 181.718C170.55 181.638 170.537 181.571 170.511 181.518C170.485 181.465 170.432 181.411 170.353 181.358C170.274 181.305 170.208 181.278 170.156 181.278C170.103 181.278 169.998 181.265 169.84 181.238C169.682 181.212 169.577 181.198 169.525 181.198C169.472 181.198 169.354 181.185 169.17 181.158C168.986 181.132 168.854 181.132 168.775 181.158C168.512 181.158 168.341 181.158 168.262 181.158C168.183 181.158 168.078 181.145 167.947 181.119C167.815 181.092 167.736 181.052 167.71 180.999C167.684 180.945 167.671 180.866 167.671 180.759C167.671 180.706 167.697 180.519 167.75 180.2C167.881 179.694 168.026 179.414 168.183 179.361C168.341 179.308 169.288 179.228 171.024 179.121C171.418 179.095 171.865 179.068 172.365 179.042C172.865 179.015 173.259 178.975 173.548 178.922C173.838 178.869 173.982 178.855 173.982 178.882C174.298 178.882 174.456 178.988 174.456 179.201C174.456 179.494 173.496 183.488 171.576 191.184C169.656 198.879 168.67 202.913 168.617 203.286C168.617 203.339 168.617 203.446 168.617 203.605C168.617 203.765 168.604 203.898 168.578 204.005V204.244Z" fill="white"/>
</g>
<g id="Group_26">
<path id="Vector_23" d="M176.546 195.138C176.546 194.925 176.665 194.512 176.901 193.9C177.138 193.287 177.467 192.595 177.888 191.823C178.308 191.05 178.887 190.385 179.623 189.826C180.36 189.266 181.135 188.974 181.951 188.947C183.16 188.947 184.068 189.28 184.673 189.945C185.277 190.611 185.58 191.397 185.58 192.302C185.58 192.781 185.133 194.272 184.239 196.775C183.344 199.278 182.897 201.156 182.897 202.407C182.897 203.552 183.082 204.351 183.45 204.803C183.818 205.256 184.37 205.496 185.106 205.522C185.843 205.549 186.54 205.323 187.197 204.843C187.855 204.364 188.341 203.911 188.657 203.485L189.091 202.806C189.143 202.7 189.643 200.676 190.59 196.735C191.379 193.54 191.852 191.676 192.01 191.144C192.168 190.611 192.352 190.225 192.562 189.985C193.009 189.586 193.483 189.386 193.982 189.386C194.429 189.386 194.758 189.519 194.968 189.786C195.179 190.052 195.284 190.305 195.284 190.545L192.286 203.246C192.26 203.379 192.247 203.592 192.247 203.885C192.247 204.551 192.339 204.99 192.523 205.203C192.707 205.416 192.983 205.536 193.351 205.562C193.93 205.482 194.39 205.07 194.732 204.324C195.074 203.579 195.468 202.407 195.915 200.809C195.968 200.596 196.231 200.49 196.704 200.49C197.204 200.49 197.454 200.61 197.454 200.849C197.427 200.982 197.401 201.169 197.375 201.408C197.348 201.648 197.23 202.074 197.02 202.687C196.809 203.299 196.586 203.872 196.349 204.404C196.112 204.937 195.784 205.443 195.363 205.922C194.942 206.401 194.469 206.734 193.943 206.92C193.732 206.974 193.417 207 192.996 207C191.26 207 190.064 206.255 189.406 204.764C189.354 204.79 189.209 204.923 188.972 205.163C188.736 205.403 188.499 205.602 188.262 205.762C188.026 205.922 187.736 206.122 187.394 206.361C187.053 206.601 186.671 206.761 186.25 206.84C185.83 206.92 185.383 206.987 184.909 207.04C183.752 207.04 182.726 206.801 181.832 206.321C180.465 205.496 179.781 204.085 179.781 202.087C179.781 200.57 180.241 198.586 181.162 196.136C182.082 193.687 182.542 192.129 182.542 191.463C182.542 191.437 182.542 191.41 182.542 191.383C182.542 191.144 182.542 190.984 182.542 190.904C182.542 190.824 182.49 190.731 182.385 190.624C182.279 190.518 182.135 190.465 181.951 190.465H181.793C181.188 190.465 180.636 190.718 180.136 191.224C179.636 191.729 179.242 192.275 178.953 192.861C178.663 193.447 178.44 194.006 178.282 194.539C178.124 195.071 178.019 195.364 177.966 195.417C177.914 195.471 177.703 195.497 177.335 195.497H176.783C176.625 195.337 176.546 195.218 176.546 195.138Z" fill="white"/>
</g>
<g id="Group_27">
<path id="Vector_24" d="M212.72 179.321C212.746 179.321 213.693 179.254 215.56 179.121C217.427 178.988 218.387 178.908 218.44 178.882C218.755 178.882 218.913 178.988 218.913 179.201C218.913 179.387 217.953 183.408 216.034 191.263C214.114 199.118 213.128 203.126 213.075 203.285C213.022 203.445 213.009 203.645 213.035 203.885C213.035 205.003 213.404 205.562 214.14 205.562C214.377 205.535 214.64 205.416 214.929 205.203C215.481 204.67 216.02 203.392 216.546 201.368C216.704 200.836 216.836 200.556 216.941 200.53C216.993 200.503 217.125 200.49 217.335 200.49H217.493H217.651C218.045 200.49 218.243 200.596 218.243 200.809C218.243 200.942 218.203 201.155 218.124 201.448C217.782 202.78 217.388 203.858 216.941 204.683C216.494 205.509 216.126 206.041 215.836 206.281C215.547 206.521 215.179 206.734 214.732 206.92C214.521 206.973 214.206 207 213.785 207C212.891 207 212.141 206.8 211.536 206.401C210.932 206.001 210.537 205.589 210.353 205.163L210.116 204.564C210.09 204.537 210.037 204.55 209.959 204.604C209.906 204.657 209.853 204.71 209.801 204.763C208.249 206.254 206.671 207 205.067 207C203.621 207 202.345 206.467 201.241 205.402C200.136 204.337 199.584 202.646 199.584 200.33C199.584 199.052 199.847 197.747 200.373 196.416C200.899 195.084 201.53 193.939 202.266 192.981C203.502 191.463 204.738 190.411 205.974 189.825C207.21 189.24 208.328 188.947 209.327 188.947C210.8 188.947 211.905 189.506 212.641 190.624C212.772 190.784 212.838 190.837 212.838 190.784C212.865 190.677 213.22 189.226 213.903 186.43C214.587 183.635 214.955 182.157 215.008 181.997C215.008 181.651 214.916 181.438 214.732 181.358C214.548 181.278 214.035 181.211 213.193 181.158H212.365C212.207 180.998 212.128 180.892 212.128 180.839C212.128 180.785 212.154 180.532 212.207 180.08C212.339 179.574 212.51 179.321 212.72 179.321ZM212.168 193.58C211.563 191.476 210.577 190.424 209.209 190.424C208.289 190.424 207.408 190.837 206.566 191.663C205.724 192.488 205.067 193.567 204.594 194.898C203.831 197.001 203.292 199.185 202.976 201.448C202.976 201.528 202.976 201.675 202.976 201.888C202.976 202.101 202.963 202.26 202.937 202.367C202.937 203.565 203.174 204.391 203.647 204.843C204.12 205.296 204.686 205.535 205.343 205.562C206.763 205.562 208.223 204.604 209.722 202.686L210.037 202.247L212.168 193.58Z" fill="white"/>
</g>
<g id="Group_28">
<path id="Vector_25" d="M226.724 207.04C224.751 207.04 223.16 206.388 221.951 205.083C220.741 203.778 220.136 202.207 220.136 200.37C220.136 198.639 220.531 197.002 221.32 195.457C222.108 193.913 223.187 192.568 224.554 191.423C226.553 189.799 228.591 188.987 230.669 188.987C231.51 188.987 232.036 189 232.247 189.027C232.588 189.107 232.93 189.2 233.272 189.306C233.614 189.413 234.074 189.626 234.653 189.945C235.231 190.265 235.705 190.664 236.073 191.144C236.441 191.623 236.783 192.275 237.099 193.101C237.414 193.926 237.572 194.858 237.572 195.897C237.572 198.746 236.441 201.315 234.179 203.605C231.918 205.895 229.433 207.04 226.724 207.04ZM223.568 201.808C223.568 203.139 223.91 204.098 224.594 204.684C225.277 205.269 226.053 205.562 226.921 205.562C228.078 205.562 229.17 205.136 230.195 204.284C231.221 203.432 232.036 202.314 232.641 200.929C232.878 200.37 233.18 199.385 233.548 197.974C233.917 196.562 234.101 195.337 234.101 194.299C234.101 193.127 233.864 192.235 233.391 191.623C232.759 190.824 231.918 190.425 230.866 190.425C229.209 190.425 227.75 191.197 226.487 192.741C225.514 193.913 224.791 195.471 224.318 197.414C223.844 199.358 223.594 200.823 223.568 201.808Z" fill="white"/>
</g>
<g id="Group_29">
<path id="Vector_26" d="M243.095 195.058C243.095 194.206 243.305 193.34 243.726 192.461C244.147 191.583 244.883 190.771 245.935 190.025C246.987 189.28 248.262 188.92 249.761 188.947C251.392 188.947 252.575 189.306 253.312 190.025C254.048 190.744 254.429 191.543 254.456 192.422C254.456 193.274 254.232 193.899 253.785 194.299C253.338 194.698 252.838 194.911 252.286 194.938C251.944 194.938 251.629 194.831 251.339 194.618C251.05 194.405 250.892 194.059 250.866 193.58C250.866 193.154 250.984 192.781 251.221 192.461C251.458 192.142 251.681 191.902 251.892 191.743C252.102 191.583 252.273 191.503 252.404 191.503C252.431 191.503 252.444 191.49 252.444 191.463C252.444 191.383 252.352 191.263 252.168 191.103C251.984 190.944 251.655 190.797 251.182 190.664C250.708 190.531 250.195 190.451 249.643 190.424C248.381 190.424 247.46 190.771 246.882 191.463C246.303 192.155 246.001 192.861 245.974 193.58C245.974 194.246 246.224 194.711 246.724 194.978C247.224 195.244 247.947 195.47 248.894 195.657C249.84 195.843 250.524 196.043 250.945 196.256C252.681 197.028 253.548 198.306 253.548 200.09C253.548 200.836 253.404 201.581 253.114 202.327C252.825 203.072 252.391 203.818 251.813 204.564C251.234 205.309 250.406 205.895 249.327 206.321C248.249 206.747 247.013 206.973 245.619 207C243.594 207 242.161 206.614 241.32 205.842C240.478 205.07 240.044 204.164 240.018 203.126C240.018 202.087 240.294 201.342 240.846 200.889C241.398 200.436 241.977 200.21 242.582 200.21C242.976 200.21 243.345 200.33 243.686 200.569C244.028 200.809 244.212 201.222 244.239 201.808C244.239 202.5 244.002 203.086 243.529 203.565C243.055 204.044 242.648 204.284 242.306 204.284C242.253 204.311 242.214 204.324 242.187 204.324C242.161 204.324 242.148 204.351 242.148 204.404C242.174 204.484 242.279 204.59 242.464 204.723C242.648 204.856 243.055 205.03 243.686 205.243C244.318 205.456 245.041 205.549 245.856 205.522C246.803 205.522 247.618 205.376 248.302 205.083C248.986 204.79 249.485 204.417 249.801 203.964C250.116 203.512 250.34 203.099 250.471 202.726C250.603 202.354 250.669 202.021 250.669 201.728C250.669 200.982 250.393 200.423 249.84 200.05C249.288 199.677 248.657 199.451 247.947 199.371C247.237 199.291 246.461 199.092 245.619 198.772C244.778 198.453 244.16 197.987 243.765 197.374C243.318 196.709 243.095 195.936 243.095 195.058Z" fill="white"/>
</g>
<g id="Group_30">
<path id="Vector_27" d="M269.596 192.742C269.596 192.395 269.78 192.129 270.148 191.943H295.276C295.671 192.156 295.868 192.422 295.868 192.742C295.868 193.034 295.684 193.287 295.316 193.5L282.771 193.54H270.227C269.806 193.407 269.596 193.141 269.596 192.742ZM269.596 200.49C269.596 200.091 269.806 199.824 270.227 199.691H295.316C295.684 199.958 295.868 200.224 295.868 200.49C295.868 200.836 295.671 201.103 295.276 201.289H270.148C269.78 201.103 269.596 200.836 269.596 200.49Z" fill="white"/>
</g>
<g id="Group_31">
<g id="Group_32">
<g id="Group_33">
<path id="Vector_28" d="M322.014 162.466C321.304 162.466 320.738 162.226 320.318 161.747C319.897 161.268 319.686 160.682 319.686 159.989C319.686 158.099 320.383 156.461 321.777 155.077C323.171 153.692 324.907 153 326.984 153C329.377 153 331.376 153.745 332.98 155.236C334.584 156.728 335.4 158.658 335.426 161.028C335.426 162.173 335.163 163.265 334.637 164.303C334.111 165.342 333.48 166.247 332.744 167.019C332.007 167.791 330.955 168.776 329.588 169.975C328.641 170.8 327.326 172.025 325.643 173.649L323.316 175.886L326.314 175.926C330.442 175.926 332.638 175.859 332.901 175.726C333.085 175.673 333.401 174.488 333.848 172.171V172.052H335.426V172.171C335.4 172.251 335.229 173.463 334.913 175.806C334.598 178.149 334.4 179.374 334.321 179.481V179.6H319.686V178.842V178.362C319.686 178.176 319.765 177.976 319.923 177.763C320.081 177.55 320.475 177.084 321.106 176.365C321.869 175.513 322.527 174.768 323.079 174.129C323.316 173.862 323.763 173.37 324.42 172.651C325.078 171.932 325.525 171.439 325.761 171.173C325.998 170.907 326.379 170.467 326.905 169.855C327.431 169.242 327.799 168.79 328.01 168.497C328.22 168.204 328.523 167.805 328.917 167.299C329.312 166.793 329.588 166.367 329.746 166.021C329.903 165.674 330.101 165.288 330.337 164.862C330.574 164.436 330.745 164.01 330.85 163.584C330.955 163.158 331.047 162.759 331.126 162.386C331.205 162.013 331.245 161.574 331.245 161.068C331.245 159.39 330.797 157.939 329.903 156.714C329.009 155.489 327.734 154.877 326.077 154.877C325.209 154.877 324.446 155.103 323.789 155.556C323.131 156.009 322.671 156.448 322.408 156.874C322.145 157.3 322.014 157.553 322.014 157.633C322.014 157.66 322.08 157.673 322.211 157.673C322.684 157.673 323.171 157.859 323.671 158.232C324.17 158.605 324.42 159.217 324.42 160.069C324.42 160.735 324.21 161.294 323.789 161.747C323.368 162.199 322.776 162.439 322.014 162.466Z" fill="white"/>
<path id="Vector_29" d="M341.225 156.235C342.698 154.079 344.709 153 347.26 153C348.523 153 349.785 153.346 351.047 154.039C352.31 154.731 353.335 155.956 354.124 157.713C355.097 159.923 355.584 162.959 355.584 166.82C355.584 170.947 355.018 174.102 353.888 176.286C353.362 177.404 352.638 178.296 351.718 178.962C350.798 179.628 349.995 180.04 349.312 180.2C348.628 180.36 347.957 180.453 347.3 180.48C346.616 180.48 345.932 180.4 345.249 180.24C344.565 180.08 343.763 179.654 342.842 178.962C341.922 178.27 341.199 177.378 340.673 176.286C339.542 174.102 338.976 170.947 338.976 166.82C338.976 162.187 339.726 158.659 341.225 156.235ZM350.101 155.756C349.312 154.904 348.378 154.478 347.3 154.478C346.195 154.478 345.249 154.904 344.46 155.756C343.802 156.448 343.368 157.407 343.158 158.632C342.947 159.857 342.842 162.413 342.842 166.301C342.842 170.508 342.947 173.277 343.158 174.608C343.368 175.94 343.842 176.991 344.578 177.764C345.314 178.562 346.222 178.962 347.3 178.962C348.352 178.962 349.246 178.562 349.982 177.764C350.745 176.965 351.218 175.846 351.402 174.409C351.586 172.971 351.692 170.268 351.718 166.301C351.718 162.44 351.613 159.897 351.402 158.672C351.192 157.447 350.758 156.475 350.101 155.756Z" fill="white"/>
</g>
<g id="Group_34">
<path id="Vector_30" d="M390.779 178.443C390.779 178.975 390.503 179.241 389.951 179.241C389.819 179.241 389.53 179.028 389.083 178.602C388.636 178.176 387.4 176.938 385.375 174.888L381.272 170.734L377.13 174.928C374.342 177.697 372.909 179.108 372.83 179.161C372.725 179.215 372.633 179.241 372.554 179.241C372.344 179.241 372.16 179.161 372.002 179.002C371.844 178.842 371.752 178.656 371.726 178.443C371.726 178.256 371.91 177.963 372.278 177.564C372.646 177.164 373.882 175.9 375.986 173.769L380.089 169.616L375.986 165.462C373.856 163.305 372.62 162.04 372.278 161.667C371.936 161.295 371.752 161.002 371.726 160.789C371.726 160.549 371.805 160.363 371.962 160.229C372.12 160.096 372.318 160.03 372.554 160.03C372.686 160.03 372.778 160.043 372.83 160.07C372.909 160.123 374.342 161.534 377.13 164.303L381.272 168.497L385.375 164.343C387.4 162.293 388.636 161.055 389.083 160.629C389.53 160.203 389.819 159.99 389.951 159.99C390.503 159.99 390.779 160.256 390.779 160.789C390.779 160.975 390.648 161.215 390.385 161.508C390.122 161.8 388.833 163.105 386.519 165.422L382.416 169.616L386.519 173.809C388.728 176.046 389.99 177.337 390.306 177.684C390.621 178.03 390.779 178.283 390.779 178.443Z" fill="white"/>
</g>
<g id="Group_35">
<path id="Vector_31" d="M413.785 156.515L413.272 156.714C412.904 156.847 412.378 156.981 411.694 157.114C411.011 157.247 410.248 157.34 409.406 157.393H408.657V155.556H409.406C410.642 155.503 411.786 155.303 412.838 154.957C413.89 154.611 414.627 154.291 415.047 153.998C415.468 153.705 415.836 153.412 416.152 153.12C416.204 153.04 416.362 153 416.625 153C416.862 153 417.085 153.08 417.296 153.239V165.182L417.335 177.164C417.519 177.35 417.677 177.47 417.809 177.524C417.94 177.577 418.256 177.63 418.755 177.683C419.255 177.737 420.07 177.763 421.201 177.763H422.227V179.6H421.793C421.241 179.521 419.15 179.481 415.521 179.481C411.944 179.481 409.88 179.521 409.327 179.6H408.854V177.763H409.88C410.458 177.763 410.958 177.763 411.379 177.763C411.799 177.763 412.128 177.75 412.365 177.723C412.602 177.697 412.812 177.657 412.996 177.603C413.18 177.55 413.285 177.524 413.312 177.524C413.338 177.524 413.417 177.457 413.548 177.324C413.68 177.191 413.759 177.137 413.785 177.164V156.515Z" fill="white"/>
<path id="Vector_32" d="M438.992 168.138C437.73 170.162 436.152 171.173 434.258 171.173C432.207 171.173 430.524 170.388 429.209 168.817C427.894 167.246 427.105 165.568 426.842 163.784C426.79 163.358 426.763 162.826 426.763 162.187V161.867C426.763 159.391 427.671 157.234 429.485 155.397C431.063 153.799 432.799 153 434.692 153C434.745 153 434.824 153 434.929 153C435.034 153 435.139 153.014 435.245 153.04H435.402C435.718 153.04 436.047 153.067 436.389 153.12C436.73 153.173 437.217 153.333 437.848 153.599C438.479 153.866 439.097 154.292 439.702 154.877C440.307 155.463 440.872 156.249 441.398 157.234C442.529 159.577 443.095 162.586 443.095 166.261C443.095 169.988 442.306 173.144 440.728 175.727C439.807 177.218 438.703 178.376 437.414 179.202C436.126 180.027 434.758 180.453 433.312 180.48C431.707 180.48 430.392 180.094 429.367 179.321C428.341 178.549 427.815 177.404 427.789 175.886C427.763 174.369 428.46 173.623 429.88 173.65C430.458 173.65 430.945 173.836 431.339 174.209C431.734 174.582 431.931 175.101 431.931 175.767C431.931 176.246 431.813 176.659 431.576 177.005C431.339 177.351 431.129 177.564 430.945 177.644C430.761 177.724 430.59 177.79 430.432 177.844L430.274 177.883C430.274 177.937 430.366 178.017 430.55 178.123C430.734 178.23 431.076 178.363 431.576 178.523C432.076 178.682 432.628 178.749 433.233 178.722H433.469C435.047 178.722 436.375 177.87 437.454 176.166C438.479 174.675 438.992 172.092 438.992 168.417V168.138ZM434.732 169.696C435.994 169.696 437.007 169.043 437.769 167.738C438.532 166.434 438.926 164.663 438.953 162.426C438.953 160.349 438.847 158.858 438.637 157.953C438.584 157.687 438.506 157.42 438.4 157.154C438.295 156.888 438.111 156.542 437.848 156.116C437.585 155.69 437.191 155.33 436.665 155.037C436.139 154.744 435.521 154.611 434.811 154.638C433.811 154.638 432.957 154.997 432.247 155.716C431.694 156.302 431.339 156.994 431.181 157.793C431.024 158.592 430.932 159.99 430.905 161.987C430.905 164.197 430.971 165.688 431.103 166.46C431.234 167.233 431.497 167.858 431.891 168.338C432.549 169.243 433.496 169.696 434.732 169.696Z" fill="white"/>
</g>
</g>
<g id="Group_36">
<path id="Vector_33" d="M375.71 216.866C375 216.866 374.435 216.626 374.014 216.147C373.593 215.668 373.383 215.082 373.383 214.389C373.383 212.499 374.08 210.861 375.473 209.477C376.867 208.092 378.603 207.4 380.68 207.4C383.074 207.4 385.072 208.145 386.677 209.636C388.281 211.128 389.096 213.058 389.122 215.428C389.122 216.573 388.859 217.665 388.333 218.703C387.807 219.742 387.176 220.647 386.44 221.419C385.703 222.191 384.652 223.176 383.284 224.375C382.337 225.2 381.022 226.425 379.339 228.049L377.012 230.286L380.01 230.326C384.139 230.326 386.335 230.259 386.598 230.126C386.782 230.073 387.097 228.888 387.544 226.571V226.452H389.122V226.571C389.096 226.651 388.925 227.863 388.609 230.206C388.294 232.549 388.097 233.774 388.018 233.881V234H373.383V233.242V232.762C373.383 232.576 373.462 232.376 373.619 232.163C373.777 231.95 374.172 231.484 374.803 230.765C375.565 229.913 376.223 229.168 376.775 228.529C377.012 228.262 377.459 227.77 378.116 227.051C378.774 226.332 379.221 225.839 379.458 225.573C379.694 225.307 380.076 224.867 380.602 224.255C381.128 223.642 381.496 223.19 381.706 222.897C381.916 222.604 382.219 222.205 382.613 221.699C383.008 221.193 383.284 220.767 383.442 220.421C383.6 220.074 383.797 219.688 384.034 219.262C384.27 218.836 384.441 218.41 384.546 217.984C384.652 217.558 384.744 217.159 384.822 216.786C384.901 216.413 384.941 215.974 384.941 215.468C384.941 213.79 384.494 212.339 383.6 211.114C382.705 209.889 381.43 209.277 379.773 209.277C378.905 209.277 378.143 209.503 377.485 209.956C376.828 210.409 376.368 210.848 376.105 211.274C375.842 211.7 375.71 211.953 375.71 212.033C375.71 212.06 375.776 212.073 375.907 212.073C376.381 212.073 376.867 212.259 377.367 212.632C377.867 213.005 378.116 213.617 378.116 214.469C378.116 215.135 377.906 215.694 377.485 216.147C377.064 216.6 376.473 216.839 375.71 216.866Z" fill="white"/>
</g>
<path id="Vector_34" d="M448.775 197.814H313.769V195.417H448.775V197.814Z" fill="white"/>
</g>
<g id="Group_37">
<path id="Vector_35" d="M286.128 119.471L285.615 119.668C285.247 119.8 284.721 119.931 284.037 120.063C283.354 120.194 282.591 120.286 281.749 120.339H281V118.524H281.749C282.985 118.472 284.129 118.274 285.181 117.933C286.233 117.591 286.97 117.275 287.39 116.986C287.811 116.697 288.179 116.407 288.495 116.118C288.548 116.039 288.705 116 288.968 116C289.205 116 289.429 116.079 289.639 116.236V128.031L289.678 139.866C289.863 140.05 290.02 140.168 290.152 140.221C290.283 140.273 290.599 140.326 291.099 140.378C291.598 140.431 292.413 140.457 293.544 140.457H294.57V142.272H294.136C293.584 142.193 291.493 142.154 287.864 142.154C284.287 142.154 282.223 142.193 281.671 142.272H281.197V140.457H282.223C282.801 140.457 283.301 140.457 283.722 140.457C284.143 140.457 284.471 140.444 284.708 140.418C284.945 140.392 285.155 140.352 285.339 140.299C285.523 140.247 285.628 140.221 285.655 140.221C285.681 140.221 285.76 140.155 285.891 140.023C286.023 139.892 286.102 139.839 286.128 139.866V119.471Z" fill="white"/>
<path id="Vector_36" d="M301.237 119.195C302.709 117.065 304.721 116 307.272 116C308.534 116 309.797 116.342 311.059 117.025C312.321 117.709 313.347 118.919 314.136 120.655C315.109 122.837 315.596 125.835 315.596 129.649C315.596 133.725 315.03 136.841 313.899 138.998C313.373 140.102 312.65 140.983 311.73 141.641C310.809 142.298 310.007 142.706 309.323 142.864C308.64 143.022 307.969 143.114 307.312 143.14C306.628 143.14 305.944 143.061 305.26 142.903C304.577 142.745 303.774 142.325 302.854 141.641C301.934 140.957 301.21 140.076 300.684 138.998C299.553 136.841 298.988 133.725 298.988 129.649C298.988 125.073 299.738 121.588 301.237 119.195ZM310.112 118.722C309.323 117.88 308.39 117.459 307.312 117.459C306.207 117.459 305.26 117.88 304.471 118.722C303.814 119.406 303.38 120.352 303.17 121.562C302.959 122.772 302.854 125.296 302.854 129.136C302.854 133.291 302.959 136.026 303.17 137.341C303.38 138.656 303.853 139.695 304.59 140.457C305.326 141.246 306.233 141.641 307.312 141.641C308.363 141.641 309.258 141.246 309.994 140.457C310.757 139.668 311.23 138.564 311.414 137.144C311.598 135.724 311.703 133.054 311.73 129.136C311.73 125.323 311.625 122.811 311.414 121.601C311.204 120.392 310.77 119.432 310.112 118.722Z" fill="white"/>
</g>
<path id="Vector_37" d="M406.128 237.471L405.615 237.668C405.247 237.8 404.721 237.931 404.037 238.063C403.354 238.194 402.591 238.286 401.75 238.339H401V236.524H401.75C402.986 236.472 404.13 236.275 405.181 235.933C406.233 235.591 406.97 235.275 407.391 234.986C407.811 234.697 408.179 234.407 408.495 234.118C408.548 234.039 408.705 234 408.968 234C409.205 234 409.429 234.079 409.639 234.236V246.031L409.679 257.866C409.863 258.05 410.02 258.168 410.152 258.221C410.283 258.273 410.599 258.326 411.099 258.378C411.598 258.431 412.414 258.457 413.544 258.457H414.57V260.272H414.136C413.584 260.193 411.493 260.154 407.864 260.154C404.287 260.154 402.223 260.193 401.671 260.272H401.197V258.457H402.223C402.801 258.457 403.301 258.457 403.722 258.457C404.143 258.457 404.471 258.444 404.708 258.418C404.945 258.392 405.155 258.352 405.339 258.3C405.523 258.247 405.629 258.221 405.655 258.221C405.681 258.221 405.76 258.155 405.892 258.023C406.023 257.892 406.102 257.839 406.128 257.866V237.471Z" fill="white"/>
<path id="Arrow 7 (Stroke)" fill-rule="evenodd" clip-rule="evenodd" d="M340.556 146.41L357.632 152.102C358.68 152.452 359.247 153.584 358.897 154.632L353.205 171.708C352.856 172.756 351.723 173.323 350.675 172.973C349.628 172.624 349.061 171.491 349.411 170.444L353.576 157.948L309.894 179.789L308.106 176.211L351.787 154.37L339.291 150.205C338.243 149.856 337.677 148.723 338.026 147.675C338.376 146.627 339.508 146.061 340.556 146.41Z" fill="#FD0C0C"/>
<path id="Arrow 8 (Stroke)" fill-rule="evenodd" clip-rule="evenodd" d="M388.556 200.41L405.632 206.102C406.68 206.452 407.247 207.584 406.897 208.632L401.205 225.708C400.856 226.756 399.723 227.323 398.675 226.973C397.628 226.624 397.061 225.491 397.411 224.444L401.576 211.948L357.894 233.789L356.106 230.211L399.787 208.37L387.291 204.205C386.243 203.856 385.677 202.723 386.026 201.675C386.376 200.627 387.508 200.061 388.556 200.41Z" fill="#FD0C0C"/>
</g>
<g id="Group 12">
<g id="Group_38">
<path id="Vector_38" d="M9.82248 319.597C9.82248 318.913 10.0592 318.348 10.5325 317.901C11.0059 317.454 11.5713 317.23 12.2288 317.23C12.86 317.23 13.3991 317.454 13.8462 317.901C14.2932 318.348 14.5299 318.913 14.5562 319.597C14.5825 320.281 14.359 320.846 13.8856 321.293C13.4122 321.741 12.8468 321.964 12.1893 321.964C11.5056 321.964 10.9402 321.741 10.4931 321.293C10.046 320.846 9.82248 320.281 9.82248 319.597ZM2.36686 334.311C3.05062 334.311 3.60289 334.535 4.02367 334.982C4.44444 335.429 4.66798 335.994 4.69428 336.678C4.69428 337.309 4.48389 337.861 4.06312 338.335C3.64234 338.808 3.06377 339.045 2.32742 339.045C1.64366 339.045 1.09139 338.821 0.670611 338.374C0.249836 337.927 0.0262985 337.362 0 336.678C0 335.994 0.223537 335.429 0.670611 334.982C1.11769 334.535 1.6831 334.311 2.36686 334.311ZM19.7239 336.678C19.7239 335.994 19.9474 335.429 20.3945 334.982C20.8416 334.535 21.407 334.311 22.0907 334.311C22.7219 334.311 23.261 334.535 23.7081 334.982C24.1552 335.429 24.3918 335.994 24.4181 336.678C24.4181 337.283 24.2078 337.822 23.787 338.295C23.3662 338.769 22.7876 339.019 22.0513 339.045C21.3675 339.045 20.8153 338.821 20.3945 338.374C19.9737 337.927 19.7502 337.362 19.7239 336.678Z" fill="white"/>
</g>
<g id="Group_39">
<path id="Vector_39" d="M49.4872 322.122C49.4872 321.78 49.6712 321.517 50.0394 321.333H59.6252L61.282 315.14C62.3077 311.143 62.9125 309.012 63.0966 308.749C63.2281 308.539 63.4254 308.434 63.6883 308.434C64.1617 308.434 64.4247 308.671 64.4773 309.144C64.4773 309.249 63.9513 311.274 62.8994 315.219C61.8211 319.111 61.282 321.123 61.282 321.254L61.2426 321.333H68.6982L70.355 315.14C71.4332 311.064 72.025 308.947 72.1301 308.789C72.2879 308.552 72.4983 308.434 72.7613 308.434C72.9454 308.434 73.1163 308.5 73.2741 308.631C73.4319 308.763 73.5108 308.907 73.5108 309.065C73.5108 309.328 72.998 311.379 71.9724 315.219C70.8941 319.111 70.355 321.123 70.355 321.254L70.3156 321.333H77.3373C77.7317 321.544 77.929 321.807 77.929 322.122C77.929 322.464 77.7975 322.675 77.5345 322.753C77.2715 322.832 76.6798 322.885 75.7593 322.911H73.5897H69.8422L69.0532 325.909L68.2248 328.947C68.2248 328.973 69.7501 328.986 72.8008 328.986H75.6804C76.6272 328.986 77.2321 329.026 77.495 329.105C77.758 329.183 77.9027 329.407 77.929 329.775C77.9553 330.143 77.758 330.406 77.3373 330.564H67.7515L66.0946 336.757C65.0164 340.834 64.4247 342.951 64.3195 343.108C64.1617 343.345 63.9513 343.464 63.6883 343.464C63.5042 343.464 63.3333 343.398 63.1755 343.266C63.0177 343.135 62.9388 342.977 62.9388 342.793C62.9388 342.53 63.4516 340.479 64.4773 336.639C65.5555 332.799 66.0946 330.801 66.0946 330.643L66.1341 330.564H58.6785L57.0217 336.757C55.9434 340.834 55.3517 342.951 55.2465 343.108C55.0887 343.345 54.8783 343.464 54.6154 343.464C54.4313 343.464 54.2603 343.398 54.1025 343.266C53.9447 343.135 53.8659 342.977 53.8659 342.793C53.8659 342.53 54.3787 340.479 55.4043 336.639C56.4826 332.799 57.0217 330.801 57.0217 330.643L57.0611 330.564H50.0394C49.6712 330.38 49.4872 330.117 49.4872 329.775C49.4872 329.381 49.6975 329.118 50.1183 328.986H57.5345L58.3234 325.988L59.1518 322.951C59.1518 322.924 57.6397 322.911 54.6154 322.911H50.1183C49.6975 322.78 49.4872 322.517 49.4872 322.122ZM68.2248 322.951C68.2248 322.924 66.9888 322.911 64.5167 322.911H60.7692L59.9802 325.909L59.1518 328.947C59.1518 328.973 60.3879 328.986 62.8599 328.986H66.6075L67.3964 325.988L68.2248 322.951Z" fill="white"/>
</g>
<g id="Group_40">
<path id="Vector_40" d="M92.2879 334.864C93.8396 334.864 95.2597 334.18 96.5483 332.813C97.8369 331.445 98.4944 329.854 98.5207 328.039C98.5207 326.383 97.8369 325.239 96.4694 324.607C93.6818 323.897 91.8935 323.411 91.1045 323.148C90.3156 322.885 89.7633 322.622 89.4477 322.359C87.8698 321.254 87.0808 319.663 87.0808 317.586C87.0808 315.982 87.5016 314.522 88.3432 313.207C89.1847 311.892 90.0394 310.906 90.9073 310.248C91.6699 309.591 92.5904 309.065 93.6686 308.671C94.7469 308.276 95.5884 308.066 96.1933 308.039H96.6272H96.9033C99.428 308.039 101.256 308.881 102.387 310.564C102.413 310.564 102.584 310.393 102.899 310.051C103.215 309.709 103.557 309.328 103.925 308.907C104.293 308.486 104.556 308.197 104.714 308.039C104.74 308.039 104.793 308.039 104.872 308.039C104.951 308.039 105.016 308.026 105.069 308C105.411 308 105.582 308.092 105.582 308.276C105.582 308.46 105.214 310.051 104.477 313.049C103.741 316.047 103.32 317.599 103.215 317.704C103.11 317.809 102.899 317.849 102.584 317.822C102.058 317.822 101.795 317.704 101.795 317.467C101.795 317.31 101.808 317.178 101.834 317.073C101.834 316.994 101.847 316.744 101.874 316.323C101.9 315.903 101.926 315.561 101.953 315.298C101.953 314.404 101.834 313.628 101.598 312.97C101.361 312.313 101.124 311.826 100.888 311.511C100.651 311.195 100.322 310.867 99.9014 310.525C98.9546 309.972 97.8764 309.696 96.6666 309.696C95.1676 309.696 93.7738 310.301 92.4852 311.511C91.1966 312.721 90.5391 314.114 90.5128 315.692C90.5128 316.481 90.71 317.165 91.1045 317.744C91.499 318.322 92.0381 318.73 92.7219 318.966C92.8271 319.019 93.7475 319.269 95.4832 319.716C97.2189 320.163 98.0999 320.4 98.1262 320.426C99.0204 320.715 99.8882 321.346 100.73 322.319C101.571 323.293 101.992 324.607 101.992 326.264C101.992 326.948 101.887 327.684 101.677 328.473C101.545 329.052 101.308 329.696 100.966 330.406C100.625 331.116 100.151 331.892 99.5463 332.734C98.9415 333.575 98.0736 334.364 96.9428 335.101C95.8119 335.837 94.5759 336.337 93.2347 336.6C92.9191 336.652 92.472 336.678 91.8935 336.678C89.2899 336.678 87.2649 335.955 85.8185 334.509L85.424 334.075L84.3195 335.298C83.7146 336.008 83.3465 336.415 83.215 336.521C83.0835 336.626 82.9125 336.678 82.7022 336.678C82.3603 336.678 82.1893 336.573 82.1893 336.363C82.1893 336.284 82.952 333.194 84.4773 327.093C84.5299 326.935 84.7929 326.856 85.2663 326.856H85.7791C85.9369 327.014 86.0158 327.158 86.0158 327.29C86.0158 327.343 86.0026 327.461 85.9763 327.645C85.95 327.829 85.8974 328.105 85.8185 328.473C85.7396 328.842 85.7133 329.275 85.7396 329.775C85.7922 330.801 86.0289 331.669 86.4497 332.379C86.8705 333.089 87.4359 333.615 88.1459 333.957C88.856 334.298 89.5398 334.535 90.1972 334.667C90.8547 334.798 91.5516 334.864 92.2879 334.864Z" fill="white"/>
</g>
<g id="Group_41">
<path id="Vector_41" d="M106.884 329.617C106.884 326.961 107.883 324.436 109.882 322.043C111.88 319.65 114.129 318.44 116.627 318.414C117.968 318.414 119.152 319.058 120.178 320.347C120.598 319.558 121.203 319.163 121.992 319.163C122.334 319.163 122.636 319.268 122.899 319.479C123.162 319.689 123.294 319.952 123.294 320.268C123.294 320.61 122.807 322.713 121.834 326.579C120.861 330.445 120.362 332.628 120.335 333.128C120.335 333.785 120.427 334.219 120.611 334.429C120.796 334.64 121.072 334.758 121.44 334.784C121.677 334.758 121.94 334.64 122.229 334.429C122.781 333.903 123.32 332.641 123.846 330.642C124.004 330.116 124.135 329.84 124.241 329.814C124.293 329.788 124.425 329.775 124.635 329.775H124.793C125.293 329.775 125.542 329.893 125.542 330.13C125.542 330.287 125.477 330.642 125.345 331.195C125.214 331.747 124.951 332.457 124.556 333.325C124.162 334.193 123.741 334.85 123.294 335.297C122.952 335.639 122.531 335.915 122.032 336.126C121.821 336.178 121.506 336.205 121.085 336.205C120.191 336.205 119.441 336.007 118.836 335.613C118.231 335.218 117.837 334.811 117.653 334.39L117.416 333.798C117.39 333.772 117.337 333.785 117.258 333.838C117.206 333.89 117.153 333.943 117.101 333.996C115.549 335.468 113.971 336.205 112.367 336.205C110.92 336.205 109.645 335.679 108.54 334.627C107.436 333.575 106.884 331.905 106.884 329.617ZM119.428 322.871C119.428 322.713 119.362 322.424 119.231 322.003C119.099 321.583 118.797 321.122 118.323 320.623C117.85 320.123 117.245 319.86 116.509 319.834C115.588 319.834 114.707 320.241 113.866 321.057C113.024 321.872 112.367 322.937 111.893 324.252C111.131 326.33 110.592 328.486 110.276 330.721C110.276 330.8 110.276 330.945 110.276 331.155C110.276 331.366 110.263 331.523 110.237 331.629C110.237 332.812 110.473 333.627 110.947 334.074C111.42 334.521 111.986 334.758 112.643 334.784C113.642 334.784 114.629 334.351 115.602 333.483C116.575 332.615 117.153 331.944 117.337 331.471C117.39 331.366 117.745 329.959 118.402 327.25C119.06 324.541 119.402 323.082 119.428 322.871Z" fill="white"/>
</g>
<g id="Group_42">
<path id="Vector_42" d="M131.065 333.483C131.065 334.351 131.394 334.785 132.051 334.785C133.024 334.785 133.853 333.404 134.536 330.643C134.694 330.117 134.826 329.841 134.931 329.814C134.984 329.788 135.115 329.775 135.325 329.775H135.483C135.72 329.775 135.878 329.775 135.957 329.775C136.035 329.775 136.101 329.801 136.154 329.854C136.206 329.906 136.233 329.998 136.233 330.13C136.206 330.288 136.167 330.498 136.114 330.761C136.062 331.024 135.917 331.524 135.68 332.26C135.444 332.997 135.181 333.615 134.891 334.114C134.602 334.614 134.195 335.1 133.669 335.574C133.143 336.047 132.538 336.271 131.854 336.244C130.907 336.244 130.026 335.955 129.211 335.377C128.396 334.798 127.975 333.825 127.949 332.457C127.949 332.142 127.962 331.918 127.988 331.787L130.552 321.609C132.209 314.903 133.037 311.445 133.037 311.235C133.037 311.156 133.024 311.09 132.998 311.037C132.972 310.985 132.919 310.932 132.84 310.879C132.761 310.827 132.696 310.801 132.643 310.801C132.59 310.801 132.485 310.787 132.327 310.761C132.17 310.735 132.064 310.722 132.012 310.722C131.959 310.722 131.841 310.709 131.657 310.682C131.473 310.656 131.341 310.656 131.262 310.682C130.999 310.682 130.828 310.682 130.749 310.682C130.671 310.682 130.565 310.669 130.434 310.643C130.302 310.617 130.224 310.577 130.197 310.524C130.171 310.472 130.158 310.393 130.158 310.288C130.158 310.235 130.184 310.051 130.237 309.736C130.368 309.236 130.513 308.96 130.671 308.907C130.828 308.855 131.775 308.776 133.511 308.67C133.905 308.644 134.352 308.618 134.852 308.592C135.352 308.565 135.746 308.526 136.035 308.473C136.325 308.421 136.469 308.407 136.469 308.434C136.785 308.434 136.943 308.539 136.943 308.749C136.943 309.039 135.983 312.983 134.063 320.584C132.143 328.184 131.157 332.168 131.105 332.536C131.105 332.589 131.105 332.694 131.105 332.852C131.105 333.01 131.091 333.141 131.065 333.246V333.483Z" fill="white"/>
</g>
<g id="Group_43">
<path id="Vector_43" d="M139.034 324.489C139.034 324.278 139.152 323.871 139.389 323.266C139.625 322.661 139.954 321.977 140.375 321.215C140.796 320.452 141.374 319.794 142.11 319.242C142.847 318.69 143.623 318.401 144.438 318.374C145.648 318.374 146.555 318.703 147.16 319.361C147.765 320.018 148.067 320.794 148.067 321.688C148.067 322.161 147.62 323.634 146.726 326.106C145.832 328.578 145.385 330.432 145.385 331.668C145.385 332.799 145.569 333.588 145.937 334.035C146.305 334.482 146.857 334.719 147.594 334.745C148.33 334.771 149.027 334.548 149.684 334.075C150.342 333.601 150.828 333.154 151.144 332.733L151.578 332.063C151.631 331.957 152.13 329.959 153.077 326.067C153.866 322.911 154.339 321.07 154.497 320.544C154.655 320.018 154.839 319.637 155.049 319.4C155.496 319.005 155.97 318.808 156.469 318.808C156.917 318.808 157.245 318.94 157.456 319.203C157.666 319.466 157.771 319.716 157.771 319.952L154.773 332.497C154.747 332.628 154.734 332.838 154.734 333.128C154.734 333.785 154.826 334.219 155.01 334.43C155.194 334.64 155.47 334.758 155.838 334.785C156.417 334.706 156.877 334.298 157.219 333.562C157.561 332.825 157.955 331.668 158.402 330.09C158.455 329.88 158.718 329.775 159.191 329.775C159.691 329.775 159.941 329.893 159.941 330.13C159.915 330.261 159.888 330.445 159.862 330.682C159.836 330.919 159.717 331.339 159.507 331.944C159.297 332.549 159.073 333.115 158.836 333.641C158.6 334.167 158.271 334.666 157.85 335.14C157.429 335.613 156.956 335.942 156.43 336.126C156.22 336.178 155.904 336.205 155.483 336.205C153.748 336.205 152.551 335.468 151.894 333.996C151.841 334.022 151.696 334.153 151.46 334.39C151.223 334.627 150.986 334.824 150.75 334.982C150.513 335.14 150.224 335.337 149.882 335.574C149.54 335.81 149.158 335.968 148.738 336.047C148.317 336.126 147.87 336.192 147.396 336.244C146.239 336.244 145.214 336.007 144.32 335.534C142.952 334.719 142.268 333.325 142.268 331.353C142.268 329.854 142.729 327.894 143.649 325.475C144.569 323.055 145.03 321.517 145.03 320.86C145.03 320.833 145.03 320.807 145.03 320.781C145.03 320.544 145.03 320.386 145.03 320.307C145.03 320.228 144.977 320.136 144.872 320.031C144.767 319.926 144.622 319.873 144.438 319.873H144.28C143.675 319.873 143.123 320.123 142.623 320.623C142.124 321.123 141.729 321.662 141.44 322.24C141.151 322.819 140.927 323.371 140.769 323.897C140.611 324.423 140.506 324.712 140.454 324.765C140.401 324.817 140.191 324.844 139.823 324.844H139.27C139.112 324.686 139.034 324.568 139.034 324.489Z" fill="white"/>
</g>
<g id="Group_44">
<path id="Vector_44" d="M175.207 308.867C175.233 308.867 176.18 308.802 178.047 308.67C179.915 308.539 180.874 308.46 180.927 308.433C181.243 308.433 181.4 308.539 181.4 308.749C181.4 308.933 180.44 312.904 178.521 320.662C176.601 328.42 175.615 332.378 175.562 332.536C175.51 332.694 175.496 332.891 175.523 333.128C175.523 334.232 175.891 334.784 176.627 334.784C176.864 334.758 177.127 334.64 177.416 334.429C177.968 333.903 178.508 332.641 179.034 330.642C179.191 330.116 179.323 329.84 179.428 329.814C179.481 329.788 179.612 329.775 179.822 329.775H179.98H180.138C180.533 329.775 180.73 329.88 180.73 330.09C180.73 330.222 180.69 330.432 180.611 330.721C180.27 332.036 179.875 333.101 179.428 333.917C178.981 334.732 178.613 335.258 178.323 335.495C178.034 335.731 177.666 335.942 177.219 336.126C177.009 336.178 176.693 336.205 176.272 336.205C175.378 336.205 174.629 336.007 174.024 335.613C173.419 335.218 173.024 334.811 172.84 334.39L172.604 333.798C172.577 333.772 172.525 333.785 172.446 333.838C172.393 333.89 172.341 333.943 172.288 333.996C170.736 335.468 169.158 336.205 167.554 336.205C166.108 336.205 164.832 335.679 163.728 334.627C162.623 333.575 162.071 331.905 162.071 329.617C162.071 328.354 162.334 327.066 162.86 325.751C163.386 324.436 164.017 323.305 164.753 322.358C165.989 320.859 167.225 319.821 168.462 319.242C169.698 318.664 170.815 318.374 171.815 318.374C173.287 318.374 174.392 318.926 175.128 320.031C175.26 320.189 175.325 320.241 175.325 320.189C175.352 320.084 175.707 318.65 176.391 315.889C177.074 313.128 177.442 311.668 177.495 311.51C177.495 311.168 177.403 310.958 177.219 310.879C177.035 310.8 176.522 310.735 175.68 310.682H174.852C174.694 310.524 174.615 310.419 174.615 310.366C174.615 310.314 174.642 310.064 174.694 309.617C174.826 309.117 174.997 308.867 175.207 308.867ZM174.655 322.95C174.05 320.873 173.064 319.834 171.696 319.834C170.776 319.834 169.895 320.241 169.053 321.057C168.212 321.872 167.554 322.937 167.081 324.252C166.318 326.33 165.779 328.486 165.463 330.721C165.463 330.8 165.463 330.945 165.463 331.155C165.463 331.366 165.45 331.523 165.424 331.629C165.424 332.812 165.661 333.627 166.134 334.074C166.607 334.521 167.173 334.758 167.83 334.784C169.25 334.784 170.71 333.838 172.209 331.944L172.525 331.51L174.655 322.95Z" fill="white"/>
</g>
<g id="Group_45">
<path id="Vector_45" d="M189.211 336.244C187.239 336.244 185.648 335.6 184.438 334.311C183.228 333.023 182.623 331.471 182.623 329.656C182.623 327.947 183.018 326.33 183.807 324.804C184.596 323.279 185.674 321.951 187.041 320.82C189.04 319.216 191.078 318.414 193.156 318.414C193.997 318.414 194.523 318.427 194.734 318.453C195.076 318.532 195.418 318.624 195.759 318.729C196.101 318.835 196.561 319.045 197.14 319.361C197.719 319.676 198.192 320.071 198.56 320.544C198.928 321.017 199.27 321.662 199.586 322.477C199.901 323.292 200.059 324.213 200.059 325.238C200.059 328.052 198.928 330.59 196.667 332.852C194.405 335.113 191.92 336.244 189.211 336.244ZM186.055 331.076C186.055 332.391 186.397 333.338 187.081 333.917C187.765 334.495 188.54 334.785 189.408 334.785C190.565 334.785 191.657 334.364 192.682 333.522C193.708 332.681 194.523 331.576 195.128 330.209C195.365 329.656 195.667 328.683 196.036 327.29C196.404 325.896 196.588 324.686 196.588 323.66C196.588 322.503 196.351 321.622 195.878 321.017C195.247 320.228 194.405 319.834 193.353 319.834C191.696 319.834 190.237 320.597 188.974 322.122C188.001 323.279 187.278 324.817 186.805 326.737C186.331 328.657 186.082 330.103 186.055 331.076Z" fill="white"/>
</g>
<g id="Group_46">
<path id="Vector_46" d="M205.582 324.41C205.582 323.568 205.792 322.713 206.213 321.846C206.634 320.978 207.37 320.176 208.422 319.439C209.474 318.703 210.75 318.348 212.249 318.374C213.879 318.374 215.062 318.729 215.799 319.439C216.535 320.149 216.917 320.938 216.943 321.806C216.943 322.648 216.719 323.266 216.272 323.66C215.825 324.055 215.325 324.265 214.773 324.291C214.431 324.291 214.116 324.186 213.826 323.976C213.537 323.765 213.379 323.424 213.353 322.95C213.353 322.529 213.471 322.161 213.708 321.846C213.945 321.53 214.168 321.293 214.379 321.136C214.589 320.978 214.76 320.899 214.892 320.899C214.918 320.899 214.931 320.886 214.931 320.859C214.931 320.781 214.839 320.662 214.655 320.504C214.471 320.347 214.142 320.202 213.669 320.07C213.195 319.939 212.682 319.86 212.13 319.834C210.868 319.834 209.947 320.176 209.369 320.859C208.79 321.543 208.488 322.24 208.462 322.95C208.462 323.608 208.711 324.068 209.211 324.331C209.711 324.594 210.434 324.817 211.381 325.001C212.327 325.186 213.011 325.383 213.432 325.593C215.168 326.356 216.036 327.618 216.036 329.38C216.036 330.116 215.891 330.853 215.602 331.589C215.312 332.326 214.878 333.062 214.3 333.798C213.721 334.535 212.893 335.113 211.815 335.534C210.736 335.955 209.5 336.178 208.107 336.205C206.082 336.205 204.648 335.823 203.807 335.061C202.965 334.298 202.531 333.404 202.505 332.378C202.505 331.353 202.781 330.616 203.333 330.169C203.886 329.722 204.464 329.498 205.069 329.498C205.464 329.498 205.832 329.617 206.174 329.854C206.515 330.09 206.7 330.498 206.726 331.076C206.726 331.76 206.489 332.339 206.016 332.812C205.542 333.285 205.135 333.522 204.793 333.522C204.74 333.548 204.701 333.562 204.675 333.562C204.648 333.562 204.635 333.588 204.635 333.64C204.661 333.719 204.767 333.825 204.951 333.956C205.135 334.088 205.542 334.259 206.174 334.469C206.805 334.679 207.528 334.771 208.343 334.745C209.29 334.745 210.105 334.6 210.789 334.311C211.473 334.022 211.972 333.654 212.288 333.207C212.604 332.759 212.827 332.352 212.959 331.984C213.09 331.616 213.156 331.287 213.156 330.997C213.156 330.261 212.88 329.709 212.327 329.341C211.775 328.973 211.144 328.749 210.434 328.67C209.724 328.591 208.948 328.394 208.107 328.078C207.265 327.763 206.647 327.303 206.252 326.698C205.805 326.04 205.582 325.278 205.582 324.41Z" fill="white"/>
</g>
<g id="Group_47">
<path id="Vector_47" d="M232.083 322.122C232.083 321.78 232.267 321.517 232.635 321.333H257.763C258.158 321.544 258.355 321.807 258.355 322.122C258.355 322.411 258.171 322.661 257.803 322.872L245.258 322.911H232.714C232.293 322.78 232.083 322.517 232.083 322.122ZM232.083 329.775C232.083 329.381 232.293 329.118 232.714 328.986H257.803C258.171 329.249 258.355 329.512 258.355 329.775C258.355 330.117 258.158 330.38 257.763 330.564H232.635C232.267 330.38 232.083 330.117 232.083 329.775Z" fill="white"/>
</g>
<g id="Group_48">
<path id="Vector_48" d="M279.925 313.01L279.412 313.207C279.044 313.338 278.518 313.47 277.834 313.601C277.151 313.733 276.388 313.825 275.546 313.877H274.797V312.063H275.546C276.782 312.01 277.926 311.813 278.978 311.471C280.03 311.129 280.767 310.814 281.187 310.524C281.608 310.235 281.976 309.946 282.292 309.657C282.345 309.578 282.502 309.538 282.765 309.538C283.002 309.538 283.226 309.617 283.436 309.775V321.57L283.475 333.404C283.659 333.588 283.817 333.707 283.949 333.759C284.08 333.812 284.396 333.864 284.895 333.917C285.395 333.97 286.21 333.996 287.341 333.996H288.367V335.81H287.933C287.381 335.732 285.29 335.692 281.661 335.692C278.084 335.692 276.02 335.732 275.467 335.81H274.994V333.996H276.02C276.598 333.996 277.098 333.996 277.519 333.996C277.94 333.996 278.268 333.983 278.505 333.956C278.742 333.93 278.952 333.891 279.136 333.838C279.32 333.785 279.425 333.759 279.452 333.759C279.478 333.759 279.557 333.693 279.688 333.562C279.82 333.43 279.899 333.378 279.925 333.404V313.01Z" fill="white"/>
<path id="Vector_49" d="M295.034 312.734C296.506 310.604 298.518 309.538 301.069 309.538C302.331 309.538 303.594 309.88 304.856 310.564C306.118 311.248 307.144 312.458 307.933 314.193C308.906 316.376 309.393 319.374 309.393 323.187C309.393 327.264 308.827 330.38 307.696 332.536C307.17 333.641 306.447 334.522 305.527 335.179C304.606 335.837 303.804 336.245 303.12 336.402C302.437 336.56 301.766 336.652 301.108 336.678C300.425 336.678 299.741 336.6 299.057 336.442C298.373 336.284 297.571 335.863 296.651 335.179C295.73 334.496 295.007 333.615 294.481 332.536C293.35 330.38 292.785 327.264 292.785 323.187C292.785 318.611 293.535 315.127 295.034 312.734ZM303.909 312.26C303.12 311.419 302.187 310.998 301.108 310.998C300.004 310.998 299.057 311.419 298.268 312.26C297.611 312.944 297.177 313.891 296.966 315.101C296.756 316.31 296.651 318.835 296.651 322.675C296.651 326.83 296.756 329.565 296.966 330.88C297.177 332.195 297.65 333.233 298.387 333.996C299.123 334.785 300.03 335.179 301.108 335.179C302.16 335.179 303.055 334.785 303.791 333.996C304.554 333.207 305.027 332.103 305.211 330.682C305.395 329.262 305.5 326.593 305.527 322.675C305.527 318.861 305.421 316.35 305.211 315.14C305.001 313.93 304.567 312.97 303.909 312.26Z" fill="white"/>
</g>
<g id="Group_49">
<path id="Vector_50" d="M344.588 334.666C344.588 335.192 344.312 335.455 343.759 335.455C343.628 335.455 343.339 335.245 342.891 334.824C342.444 334.403 341.208 333.18 339.183 331.155L335.081 327.053L330.939 331.195C328.151 333.93 326.718 335.324 326.639 335.376C326.534 335.429 326.442 335.455 326.363 335.455C326.152 335.455 325.968 335.376 325.811 335.219C325.653 335.061 325.561 334.877 325.534 334.666C325.534 334.482 325.719 334.193 326.087 333.798C326.455 333.404 327.691 332.155 329.795 330.051L333.897 325.948L329.795 321.846C327.665 319.716 326.429 318.466 326.087 318.098C325.745 317.73 325.561 317.441 325.534 317.23C325.534 316.994 325.613 316.81 325.771 316.678C325.929 316.547 326.126 316.481 326.363 316.481C326.494 316.481 326.586 316.494 326.639 316.52C326.718 316.573 328.151 317.967 330.939 320.702L335.081 324.844L339.183 320.741C341.208 318.716 342.444 317.493 342.891 317.073C343.339 316.652 343.628 316.441 343.759 316.441C344.312 316.441 344.588 316.704 344.588 317.23C344.588 317.414 344.456 317.651 344.193 317.94C343.93 318.23 342.642 319.518 340.327 321.806L336.225 325.948L340.327 330.09C342.536 332.299 343.799 333.575 344.114 333.917C344.43 334.259 344.588 334.508 344.588 334.666Z" fill="white"/>
</g>
<g id="Group_50">
<path id="Vector_51" d="M367.594 313.01L367.081 313.207C366.713 313.338 366.187 313.47 365.503 313.601C364.819 313.733 364.057 313.825 363.215 313.877H362.465V312.063H363.215C364.451 312.01 365.595 311.813 366.647 311.471C367.699 311.129 368.435 310.814 368.856 310.524C369.277 310.235 369.645 309.946 369.961 309.657C370.013 309.578 370.171 309.538 370.434 309.538C370.671 309.538 370.894 309.617 371.105 309.775V321.57L371.144 333.404C371.328 333.588 371.486 333.707 371.617 333.759C371.749 333.812 372.064 333.864 372.564 333.917C373.064 333.97 373.879 333.996 375.01 333.996H376.035V335.81H375.602C375.049 335.732 372.959 335.692 369.329 335.692C365.753 335.692 363.688 335.732 363.136 335.81H362.663V333.996H363.688C364.267 333.996 364.767 333.996 365.187 333.996C365.608 333.996 365.937 333.983 366.174 333.956C366.41 333.93 366.621 333.891 366.805 333.838C366.989 333.785 367.094 333.759 367.12 333.759C367.147 333.759 367.225 333.693 367.357 333.562C367.488 333.43 367.567 333.378 367.594 333.404V313.01Z" fill="white"/>
<path id="Vector_52" d="M392.801 324.489C391.538 326.488 389.961 327.487 388.067 327.487C386.016 327.487 384.333 326.711 383.018 325.16C381.703 323.608 380.914 321.951 380.651 320.189C380.598 319.769 380.572 319.243 380.572 318.611V318.296C380.572 315.85 381.479 313.72 383.294 311.905C384.872 310.327 386.607 309.538 388.501 309.538C388.554 309.538 388.632 309.538 388.738 309.538C388.843 309.538 388.948 309.552 389.053 309.578H389.211C389.527 309.578 389.855 309.604 390.197 309.657C390.539 309.709 391.026 309.867 391.657 310.13C392.288 310.393 392.906 310.814 393.511 311.392C394.116 311.971 394.681 312.747 395.207 313.72C396.338 316.034 396.903 319.006 396.903 322.635C396.903 326.317 396.114 329.433 394.536 331.984C393.616 333.457 392.511 334.601 391.223 335.416C389.934 336.231 388.567 336.652 387.12 336.678C385.516 336.678 384.201 336.297 383.176 335.534C382.15 334.772 381.624 333.641 381.598 332.142C381.571 330.643 382.268 329.907 383.688 329.933C384.267 329.933 384.753 330.117 385.148 330.485C385.542 330.853 385.74 331.366 385.74 332.024C385.74 332.497 385.621 332.905 385.385 333.247C385.148 333.588 384.938 333.799 384.753 333.878C384.569 333.957 384.398 334.022 384.241 334.075L384.083 334.114C384.083 334.167 384.175 334.246 384.359 334.351C384.543 334.456 384.885 334.588 385.385 334.746C385.884 334.903 386.437 334.969 387.041 334.943H387.278C388.856 334.943 390.184 334.101 391.262 332.418C392.288 330.945 392.801 328.394 392.801 324.765V324.489ZM388.54 326.028C389.803 326.028 390.815 325.383 391.578 324.095C392.341 322.806 392.735 321.057 392.761 318.848C392.761 316.797 392.656 315.324 392.446 314.43C392.393 314.167 392.314 313.904 392.209 313.641C392.104 313.378 391.92 313.036 391.657 312.615C391.394 312.195 390.999 311.84 390.473 311.55C389.947 311.261 389.329 311.129 388.619 311.156C387.62 311.156 386.765 311.511 386.055 312.221C385.503 312.799 385.148 313.483 384.99 314.272C384.832 315.061 384.74 316.442 384.714 318.414C384.714 320.597 384.78 322.07 384.911 322.832C385.043 323.595 385.306 324.213 385.7 324.686C386.358 325.581 387.304 326.028 388.54 326.028Z" fill="white"/>
</g>
<g id="Group_51">
<path id="Vector_53" d="M411.807 322.122C411.807 321.78 411.991 321.517 412.359 321.333H437.487C437.882 321.544 438.079 321.807 438.079 322.122C438.079 322.411 437.895 322.661 437.527 322.872L424.982 322.911H412.438C412.017 322.78 411.807 322.517 411.807 322.122ZM411.807 329.775C411.807 329.381 412.017 329.118 412.438 328.986H437.527C437.895 329.249 438.079 329.512 438.079 329.775C438.079 330.117 437.882 330.38 437.487 330.564H412.359C411.991 330.38 411.807 330.117 411.807 329.775Z" fill="white"/>
</g>
<g id="Group_52">
<path id="Vector_54" d="M459.649 313.01L459.136 313.207C458.768 313.338 458.242 313.47 457.558 313.601C456.874 313.733 456.112 313.825 455.27 313.877H454.521V312.063H455.27C456.506 312.01 457.65 311.813 458.702 311.471C459.754 311.129 460.49 310.814 460.911 310.524C461.332 310.235 461.7 309.946 462.016 309.657C462.068 309.578 462.226 309.538 462.489 309.538C462.726 309.538 462.949 309.617 463.16 309.775V321.57L463.199 333.404C463.383 333.588 463.541 333.707 463.673 333.759C463.804 333.812 464.12 333.864 464.619 333.917C465.119 333.97 465.934 333.996 467.065 333.996H468.091V335.81H467.657C467.105 335.732 465.014 335.692 461.385 335.692C457.808 335.692 455.744 335.732 455.191 335.81H454.718V333.996H455.744C456.322 333.996 456.822 333.996 457.243 333.996C457.663 333.996 457.992 333.983 458.229 333.956C458.465 333.93 458.676 333.891 458.86 333.838C459.044 333.785 459.149 333.759 459.176 333.759C459.202 333.759 459.281 333.693 459.412 333.562C459.544 333.43 459.623 333.378 459.649 333.404V313.01Z" fill="white"/>
<path id="Vector_55" d="M484.856 324.489C483.594 326.488 482.016 327.487 480.122 327.487C478.071 327.487 476.388 326.711 475.073 325.16C473.758 323.608 472.969 321.951 472.706 320.189C472.653 319.769 472.627 319.243 472.627 318.611V318.296C472.627 315.85 473.534 313.72 475.349 311.905C476.927 310.327 478.663 309.538 480.556 309.538C480.609 309.538 480.688 309.538 480.793 309.538C480.898 309.538 481.003 309.552 481.108 309.578H481.266C481.582 309.578 481.911 309.604 482.252 309.657C482.594 309.709 483.081 309.867 483.712 310.13C484.343 310.393 484.961 310.814 485.566 311.392C486.171 311.971 486.736 312.747 487.262 313.72C488.393 316.034 488.959 319.006 488.959 322.635C488.959 326.317 488.17 329.433 486.592 331.984C485.671 333.457 484.567 334.601 483.278 335.416C481.989 336.231 480.622 336.652 479.176 336.678C477.571 336.678 476.256 336.297 475.231 335.534C474.205 334.772 473.679 333.641 473.653 332.142C473.627 330.643 474.323 329.907 475.744 329.933C476.322 329.933 476.809 330.117 477.203 330.485C477.598 330.853 477.795 331.366 477.795 332.024C477.795 332.497 477.676 332.905 477.44 333.247C477.203 333.588 476.993 333.799 476.809 333.878C476.625 333.957 476.454 334.022 476.296 334.075L476.138 334.114C476.138 334.167 476.23 334.246 476.414 334.351C476.598 334.456 476.94 334.588 477.44 334.746C477.939 334.903 478.492 334.969 479.097 334.943H479.333C480.911 334.943 482.239 334.101 483.318 332.418C484.343 330.945 484.856 328.394 484.856 324.765V324.489ZM480.596 326.028C481.858 326.028 482.87 325.383 483.633 324.095C484.396 322.806 484.79 321.057 484.817 318.848C484.817 316.797 484.711 315.324 484.501 314.43C484.448 314.167 484.369 313.904 484.264 313.641C484.159 313.378 483.975 313.036 483.712 312.615C483.449 312.195 483.055 311.84 482.529 311.55C482.003 311.261 481.385 311.129 480.675 311.156C479.675 311.156 478.82 311.511 478.11 312.221C477.558 312.799 477.203 313.483 477.045 314.272C476.888 315.061 476.795 316.442 476.769 318.414C476.769 320.597 476.835 322.07 476.966 322.832C477.098 323.595 477.361 324.213 477.755 324.686C478.413 325.581 479.36 326.028 480.596 326.028Z" fill="white"/>
<path id="Vector_56" d="M494.481 312.734C495.954 310.604 497.966 309.538 500.517 309.538C501.779 309.538 503.041 309.88 504.304 310.564C505.566 311.248 506.592 312.458 507.381 314.193C508.354 316.376 508.84 319.374 508.84 323.187C508.84 327.264 508.275 330.38 507.144 332.536C506.618 333.641 505.895 334.522 504.974 335.179C504.054 335.837 503.252 336.245 502.568 336.402C501.884 336.56 501.214 336.652 500.556 336.678C499.872 336.678 499.189 336.6 498.505 336.442C497.821 336.284 497.019 335.863 496.099 335.179C495.178 334.496 494.455 333.615 493.929 332.536C492.798 330.38 492.233 327.264 492.233 323.187C492.233 318.611 492.982 315.127 494.481 312.734ZM503.357 312.26C502.568 311.419 501.634 310.998 500.556 310.998C499.452 310.998 498.505 311.419 497.716 312.26C497.059 312.944 496.625 313.891 496.414 315.101C496.204 316.31 496.099 318.835 496.099 322.675C496.099 326.83 496.204 329.565 496.414 330.88C496.625 332.195 497.098 333.233 497.834 333.996C498.571 334.785 499.478 335.179 500.556 335.179C501.608 335.179 502.502 334.785 503.239 333.996C504.001 333.207 504.475 332.103 504.659 330.682C504.843 329.262 504.948 326.593 504.974 322.675C504.974 318.861 504.869 316.35 504.659 315.14C504.448 313.93 504.014 312.97 503.357 312.26Z" fill="white"/>
</g>
</g>
</g>
</g>
</g>
</svg>
