<svg viewBox="0 0 975 399" fill="none" xmlns="http://www.w3.org/2000/svg">
<g id="0121106">
<g id="claves01">
<path id="Rectangle 4" d="M39 194H255.745L289 234L255.745 274H39V194Z" fill="#CD08D1" fill-opacity="0.1"/>
<path id="Rectangle 4 (Stroke)" fill-rule="evenodd" clip-rule="evenodd" d="M254.338 197H42V271H254.338L285.099 234L254.338 197ZM255.745 194H39V274H255.745L289 234L255.745 194Z" fill="#CD08D1"/>
<path id="Rectangle 5" d="M43 304H259.745L293 344L259.745 384H43V304Z" fill="#CD08D1" fill-opacity="0.1"/>
<path id="Rectangle 5 (Stroke)" fill-rule="evenodd" clip-rule="evenodd" d="M258.338 307H46V381H258.338L289.099 344L258.338 307ZM259.745 304H43V384H259.745L293 344L259.745 304Z" fill="#CD08D1"/>
<path id="Rectangle 6" d="M379 191H595.745L629 231L595.745 271H379V191Z" fill="#CD08D1" fill-opacity="0.1"/>
<path id="Rectangle 6 (Stroke)" fill-rule="evenodd" clip-rule="evenodd" d="M594.338 194H382V268H594.338L625.099 231L594.338 194ZM595.745 191H379V271H595.745L629 231L595.745 191Z" fill="#CD08D1"/>
<path id="Rectangle 7" d="M382 301H598.745L632 341L598.745 381H382V301Z" fill="#CD08D1" fill-opacity="0.1"/>
<path id="Rectangle 7 (Stroke)" fill-rule="evenodd" clip-rule="evenodd" d="M597.338 304H385V378H597.338L628.099 341L597.338 304ZM598.745 301H382V381H598.745L632 341L598.745 301Z" fill="#CD08D1"/>
<path id="Rectangle 8" d="M725 250H941.745L975 290L941.745 330H725V250Z" fill="#CD08D1" fill-opacity="0.1"/>
<path id="Rectangle 8 (Stroke)" fill-rule="evenodd" clip-rule="evenodd" d="M940.338 253H728V327H940.338L971.099 290L940.338 253ZM941.745 250H725V330H941.745L975 290L941.745 250Z" fill="#CD08D1"/>
<path id="Ellipse 1" d="M80 234C80 256.091 62.0914 274 40 274C17.9086 274 0 256.091 0 234C0 211.909 17.9086 194 40 194C62.0914 194 80 211.909 80 234Z" fill="#CD08D1"/>
<path id="Ellipse 2" d="M84 344C84 366.091 66.0914 384 44 384C21.9086 384 4 366.091 4 344C4 321.909 21.9086 304 44 304C66.0914 304 84 321.909 84 344Z" fill="#CD08D1"/>
<path id="Ellipse 3" d="M420 231C420 253.091 402.091 271 380 271C357.909 271 340 253.091 340 231C340 208.909 357.909 191 380 191C402.091 191 420 208.909 420 231Z" fill="#CD08D1"/>
<path id="Ellipse 4" d="M423 341C423 363.091 405.091 381 383 381C360.909 381 343 363.091 343 341C343 318.909 360.909 301 383 301C405.091 301 423 318.909 423 341Z" fill="#CD08D1"/>
<path id="Ellipse 5" d="M766 290C766 312.091 748.091 330 726 330C703.909 330 686 312.091 686 290C686 267.909 703.909 250 726 250C748.091 250 766 267.909 766 290Z" fill="#CD08D1"/>
<path id="A" d="M48.0938 244.406H30.4688L26.7812 255H18.5625L35.75 209.5H42.8438L60.0625 255H51.8125L48.0938 244.406ZM32.6875 238.031H45.875L39.2812 219.156L32.6875 238.031Z" fill="white"/>
<path id="B" d="M27.625 360V314.5H43.2188C48.3646 314.5 52.2812 315.531 54.9688 317.594C57.6562 319.656 59 322.729 59 326.812C59 328.896 58.4375 330.771 57.3125 332.438C56.1875 334.104 54.5417 335.396 52.375 336.312C54.8333 336.979 56.7292 338.24 58.0625 340.094C59.4167 341.927 60.0938 344.135 60.0938 346.719C60.0938 350.99 58.7188 354.271 55.9688 356.562C53.2396 358.854 49.3229 360 44.2188 360H27.625ZM35.5312 339.469V353.688H44.3125C46.7917 353.688 48.7292 353.073 50.125 351.844C51.5208 350.615 52.2188 348.906 52.2188 346.719C52.2188 341.99 49.8021 339.573 44.9688 339.469H35.5312ZM35.5312 333.656H43.2812C45.7396 333.656 47.6562 333.104 49.0312 332C50.4271 330.875 51.125 329.292 51.125 327.25C51.125 325 50.4792 323.375 49.1875 322.375C47.9167 321.375 45.9271 320.875 43.2188 320.875H35.5312V333.656Z" fill="white"/>
<path id="C" d="M397.344 238.188C396.885 243.042 395.094 246.833 391.969 249.562C388.844 252.271 384.688 253.625 379.5 253.625C375.875 253.625 372.677 252.771 369.906 251.062C367.156 249.333 365.031 246.885 363.531 243.719C362.031 240.552 361.25 236.875 361.188 232.688V228.438C361.188 224.146 361.948 220.365 363.469 217.094C364.99 213.823 367.167 211.302 370 209.531C372.854 207.76 376.146 206.875 379.875 206.875C384.896 206.875 388.938 208.24 392 210.969C395.062 213.698 396.844 217.552 397.344 222.531H389.469C389.094 219.26 388.135 216.906 386.594 215.469C385.073 214.01 382.833 213.281 379.875 213.281C376.438 213.281 373.792 214.542 371.938 217.062C370.104 219.562 369.167 223.24 369.125 228.094V232.125C369.125 237.042 370 240.792 371.75 243.375C373.521 245.958 376.104 247.25 379.5 247.25C382.604 247.25 384.938 246.552 386.5 245.156C388.062 243.76 389.052 241.438 389.469 238.188H397.344Z" fill="white"/>
<path id="D" d="M365.625 363V317.5H379.062C383.083 317.5 386.646 318.396 389.75 320.188C392.875 321.979 395.292 324.521 397 327.812C398.708 331.104 399.562 334.875 399.562 339.125V341.406C399.562 345.719 398.698 349.51 396.969 352.781C395.26 356.052 392.812 358.573 389.625 360.344C386.458 362.115 382.823 363 378.719 363H365.625ZM373.531 323.875V356.688H378.688C382.833 356.688 386.01 355.396 388.219 352.812C390.448 350.208 391.583 346.479 391.625 341.625V339.094C391.625 334.156 390.552 330.385 388.406 327.781C386.26 325.177 383.146 323.875 379.062 323.875H373.531Z" fill="white"/>
<path id="E" d="M735.219 291.688H716.531V305.688H738.375V312H708.625V266.5H738.156V272.875H716.531V285.438H735.219V291.688Z" fill="white"/>
<g id="14">
<path d="M161.086 257H156.727V228.102L147.984 231.312V227.375L160.406 222.711H161.086V257Z" fill="#CD08D1"/>
<path d="M192.094 245.539H196.828V249.078H192.094V257H187.734V249.078H172.195V246.523L187.477 222.875H192.094V245.539ZM177.117 245.539H187.734V228.805L187.219 229.742L177.117 245.539Z" fill="#CD08D1"/>
</g>
<g id="28">
<path d="M169.195 367H146.836V363.883L158.648 350.758C160.398 348.773 161.602 347.164 162.258 345.93C162.93 344.68 163.266 343.391 163.266 342.062C163.266 340.281 162.727 338.82 161.648 337.68C160.57 336.539 159.133 335.969 157.336 335.969C155.18 335.969 153.5 336.586 152.297 337.82C151.109 339.039 150.516 340.742 150.516 342.93H146.18C146.18 339.789 147.188 337.25 149.203 335.312C151.234 333.375 153.945 332.406 157.336 332.406C160.508 332.406 163.016 333.242 164.859 334.914C166.703 336.57 167.625 338.781 167.625 341.547C167.625 344.906 165.484 348.906 161.203 353.547L152.062 363.461H169.195V367Z" fill="#CD08D1"/>
<path d="M194.484 341.781C194.484 343.484 194.031 345 193.125 346.328C192.234 347.656 191.023 348.695 189.492 349.445C191.273 350.211 192.68 351.328 193.711 352.797C194.758 354.266 195.281 355.93 195.281 357.789C195.281 360.742 194.281 363.094 192.281 364.844C190.297 366.594 187.68 367.469 184.43 367.469C181.148 367.469 178.516 366.594 176.531 364.844C174.562 363.078 173.578 360.727 173.578 357.789C173.578 355.945 174.078 354.281 175.078 352.797C176.094 351.312 177.492 350.188 179.273 349.422C177.758 348.672 176.562 347.633 175.688 346.305C174.812 344.977 174.375 343.469 174.375 341.781C174.375 338.906 175.297 336.625 177.141 334.938C178.984 333.25 181.414 332.406 184.43 332.406C187.43 332.406 189.852 333.25 191.695 334.938C193.555 336.625 194.484 338.906 194.484 341.781ZM190.945 357.695C190.945 355.789 190.336 354.234 189.117 353.031C187.914 351.828 186.336 351.227 184.383 351.227C182.43 351.227 180.859 351.82 179.672 353.008C178.5 354.195 177.914 355.758 177.914 357.695C177.914 359.633 178.484 361.156 179.625 362.266C180.781 363.375 182.383 363.93 184.43 363.93C186.461 363.93 188.055 363.375 189.211 362.266C190.367 361.141 190.945 359.617 190.945 357.695ZM184.43 335.969C182.727 335.969 181.344 336.5 180.281 337.562C179.234 338.609 178.711 340.039 178.711 341.852C178.711 343.586 179.227 344.992 180.258 346.07C181.305 347.133 182.695 347.664 184.43 347.664C186.164 347.664 187.547 347.133 188.578 346.07C189.625 344.992 190.148 343.586 190.148 341.852C190.148 340.117 189.609 338.703 188.531 337.609C187.453 336.516 186.086 335.969 184.43 335.969Z" fill="#CD08D1"/>
</g>
<g id="21">
<path d="M501.195 367H478.836V363.883L490.648 350.758C492.398 348.773 493.602 347.164 494.258 345.93C494.93 344.68 495.266 343.391 495.266 342.062C495.266 340.281 494.727 338.82 493.648 337.68C492.57 336.539 491.133 335.969 489.336 335.969C487.18 335.969 485.5 336.586 484.297 337.82C483.109 339.039 482.516 340.742 482.516 342.93H478.18C478.18 339.789 479.188 337.25 481.203 335.312C483.234 333.375 485.945 332.406 489.336 332.406C492.508 332.406 495.016 333.242 496.859 334.914C498.703 336.57 499.625 338.781 499.625 341.547C499.625 344.906 497.484 348.906 493.203 353.547L484.062 363.461H501.195V367Z" fill="#CD08D1"/>
<path d="M520.039 367H515.68V338.102L506.938 341.312V337.375L519.359 332.711H520.039V367Z" fill="#CD08D1"/>
</g>
<g id="19">
<path d="M845.086 310H840.727V281.102L831.984 284.312V280.375L844.406 275.711H845.086V310Z" fill="#CD08D1"/>
<path d="M874.406 295C873.5 296.078 872.414 296.945 871.148 297.602C869.898 298.258 868.523 298.586 867.023 298.586C865.055 298.586 863.336 298.102 861.867 297.133C860.414 296.164 859.289 294.805 858.492 293.055C857.695 291.289 857.297 289.344 857.297 287.219C857.297 284.938 857.727 282.883 858.586 281.055C859.461 279.227 860.695 277.828 862.289 276.859C863.883 275.891 865.742 275.406 867.867 275.406C871.242 275.406 873.898 276.672 875.836 279.203C877.789 281.719 878.766 285.156 878.766 289.516V290.781C878.766 297.422 877.453 302.273 874.828 305.336C872.203 308.383 868.242 309.945 862.945 310.023H862.102V306.367H863.016C866.594 306.305 869.344 305.375 871.266 303.578C873.188 301.766 874.234 298.906 874.406 295ZM867.727 295C869.18 295 870.516 294.555 871.734 293.664C872.969 292.773 873.867 291.672 874.43 290.359V288.625C874.43 285.781 873.812 283.469 872.578 281.688C871.344 279.906 869.781 279.016 867.891 279.016C865.984 279.016 864.453 279.75 863.297 281.219C862.141 282.672 861.562 284.594 861.562 286.984C861.562 289.312 862.117 291.234 863.227 292.75C864.352 294.25 865.852 295 867.727 295Z" fill="#CD08D1"/>
</g>
<g id="17">
<path d="M493.086 253H488.727V224.102L479.984 227.312V223.375L492.406 218.711H493.086V253Z" fill="#CD08D1"/>
<path d="M527.82 221.312L513.688 253H509.141L523.227 222.438H504.758V218.875H527.82V221.312Z" fill="#CD08D1"/>
</g>
<g id="flecha">
<path id="Rectangle 2" d="M389.2 302.008L404.482 310.133L362.5 389.089L347.219 380.963L389.2 302.008Z" fill="#1043F5"/>
<path id="Rectangle 1" d="M331 314.904L421 265V322.692L376 305.096L331 314.904Z" fill="#1043F5"/>
<path id="Rectangle 3" d="M335.039 384.21L350.666 357.143L367.936 356.565L352.309 383.632L335.039 384.21Z" fill="#1043F5"/>
<path id="Rectangle 4_2" d="M361.089 398.845L376.717 371.778L367.926 356.154L352.299 383.221L361.089 398.845Z" fill="#1043F5"/>
</g>
</g>
<g id="enun01">
<path id="Rectangle 1_2" d="M65 0H877.539L946 78.3561L877.539 159H65V0Z" fill="#02071A"/>
<path id="Rectangle 1 (Stroke)" fill-rule="evenodd" clip-rule="evenodd" d="M875.722 4H69V155H875.688L940.721 78.3937L875.722 4ZM877.539 0H65V159H877.539L946 78.3561L877.539 0Z" fill="#CD08D1"/>
<path id="Ellipse 1_2" d="M115 79C115 106.614 92.6142 129 65 129C37.3858 129 15 106.614 15 79C15 51.3858 37.3858 29 65 29C92.6142 29 115 51.3858 115 79Z" fill="#CD08D1"/>
<path id="Ellipse 1 (Stroke)" fill-rule="evenodd" clip-rule="evenodd" d="M65 128C92.062 128 114 106.062 114 79C114 51.938 92.062 30 65 30C37.938 30 16 51.938 16 79C16 106.062 37.938 128 65 128ZM65 129C92.6142 129 115 106.614 115 79C115 51.3858 92.6142 29 65 29C37.3858 29 15 51.3858 15 79C15 106.614 37.3858 129 65 129Z" fill="black"/>
<g id="Si un campanario demor&#195;&#179; 6 segundos en dar 3 campanadas, &#194;&#191;cu&#195;&#161;nto tiempo demorar&#195;&#161; en dar 8 campanadas?">
<path d="M152.512 36.5918C149.617 35.7598 147.508 34.7402 146.184 33.5332C144.871 32.3145 144.215 30.8145 144.215 29.0332C144.215 27.0176 145.018 25.3535 146.623 24.041C148.24 22.7168 150.338 22.0547 152.916 22.0547C154.674 22.0547 156.238 22.3945 157.609 23.0742C158.992 23.7539 160.059 24.6914 160.809 25.8867C161.57 27.082 161.951 28.3887 161.951 29.8066H158.559C158.559 28.2598 158.066 27.0469 157.082 26.168C156.098 25.2773 154.709 24.832 152.916 24.832C151.252 24.832 149.951 25.2012 149.014 25.9395C148.088 26.666 147.625 27.6797 147.625 28.9805C147.625 30.0234 148.064 30.9082 148.943 31.6348C149.834 32.3496 151.34 33.0059 153.461 33.6035C155.594 34.2012 157.258 34.8633 158.453 35.5898C159.66 36.3047 160.551 37.1426 161.125 38.1035C161.711 39.0645 162.004 40.1953 162.004 41.4961C162.004 43.5703 161.195 45.2344 159.578 46.4883C157.961 47.7305 155.799 48.3516 153.092 48.3516C151.334 48.3516 149.693 48.0176 148.17 47.3496C146.646 46.6699 145.469 45.7441 144.637 44.5723C143.816 43.4004 143.406 42.0703 143.406 40.582H146.799C146.799 42.1289 147.367 43.3535 148.504 44.2559C149.652 45.1465 151.182 45.5918 153.092 45.5918C154.873 45.5918 156.238 45.2285 157.188 44.502C158.137 43.7754 158.611 42.7852 158.611 41.5312C158.611 40.2773 158.172 39.3105 157.293 38.6309C156.414 37.9395 154.82 37.2598 152.512 36.5918Z" fill="white"/>
<path d="M169.369 48H166.117V28.9805H169.369V48ZM165.854 23.9355C165.854 23.4082 166.012 22.9629 166.328 22.5996C166.656 22.2363 167.137 22.0547 167.77 22.0547C168.402 22.0547 168.883 22.2363 169.211 22.5996C169.539 22.9629 169.703 23.4082 169.703 23.9355C169.703 24.4629 169.539 24.9023 169.211 25.2539C168.883 25.6055 168.402 25.7812 167.77 25.7812C167.137 25.7812 166.656 25.6055 166.328 25.2539C166.012 24.9023 165.854 24.4629 165.854 23.9355Z" fill="white"/>
<path d="M195.262 46.1191C193.996 47.6074 192.139 48.3516 189.689 48.3516C187.662 48.3516 186.115 47.7656 185.049 46.5938C183.994 45.4102 183.461 43.6641 183.449 41.3555V28.9805H186.701V41.2676C186.701 44.1504 187.873 45.5918 190.217 45.5918C192.701 45.5918 194.354 44.666 195.174 42.8145V28.9805H198.426V48H195.332L195.262 46.1191Z" fill="white"/>
<path d="M206.459 28.9805L206.564 31.3711C208.018 29.543 209.916 28.6289 212.26 28.6289C216.279 28.6289 218.307 30.8965 218.342 35.4316V48H215.09V35.4141C215.078 34.043 214.762 33.0293 214.141 32.373C213.531 31.7168 212.576 31.3887 211.275 31.3887C210.221 31.3887 209.295 31.6699 208.498 32.2324C207.701 32.7949 207.08 33.5332 206.635 34.4473V48H203.383V28.9805H206.459Z" fill="white"/>
<path d="M239.805 45.6973C240.965 45.6973 241.979 45.3457 242.846 44.6426C243.713 43.9395 244.193 43.0605 244.287 42.0059H247.363C247.305 43.0957 246.93 44.1328 246.238 45.1172C245.547 46.1016 244.621 46.8867 243.461 47.4727C242.312 48.0586 241.094 48.3516 239.805 48.3516C237.215 48.3516 235.152 47.4902 233.617 45.7676C232.094 44.0332 231.332 41.666 231.332 38.666V38.1211C231.332 36.2695 231.672 34.623 232.352 33.1816C233.031 31.7402 234.004 30.6211 235.27 29.8242C236.547 29.0273 238.053 28.6289 239.787 28.6289C241.92 28.6289 243.689 29.2676 245.096 30.5449C246.514 31.8223 247.27 33.4805 247.363 35.5195H244.287C244.193 34.2891 243.725 33.2812 242.881 32.4961C242.049 31.6992 241.018 31.3008 239.787 31.3008C238.135 31.3008 236.852 31.8984 235.938 33.0938C235.035 34.2773 234.584 35.9941 234.584 38.2441V38.8594C234.584 41.0508 235.035 42.7383 235.938 43.9219C236.84 45.1055 238.129 45.6973 239.805 45.6973Z" fill="white"/>
<path d="M262.762 48C262.574 47.625 262.422 46.957 262.305 45.9961C260.793 47.5664 258.988 48.3516 256.891 48.3516C255.016 48.3516 253.475 47.8242 252.268 46.7695C251.072 45.7031 250.475 44.3555 250.475 42.7266C250.475 40.7461 251.225 39.2109 252.725 38.1211C254.236 37.0195 256.357 36.4688 259.088 36.4688H262.252V34.9746C262.252 33.8379 261.912 32.9355 261.232 32.2676C260.553 31.5879 259.551 31.248 258.227 31.248C257.066 31.248 256.094 31.541 255.309 32.127C254.523 32.7129 254.131 33.4219 254.131 34.2539H250.861C250.861 33.3047 251.195 32.3906 251.863 31.5117C252.543 30.6211 253.457 29.918 254.605 29.4023C255.766 28.8867 257.037 28.6289 258.42 28.6289C260.611 28.6289 262.328 29.1797 263.57 30.2812C264.812 31.3711 265.457 32.877 265.504 34.7988V43.5527C265.504 45.2988 265.727 46.6875 266.172 47.7188V48H262.762ZM257.365 45.5215C258.385 45.5215 259.352 45.2578 260.266 44.7305C261.18 44.2031 261.842 43.5176 262.252 42.6738V38.7715H259.703C255.719 38.7715 253.727 39.9375 253.727 42.2695C253.727 43.2891 254.066 44.0859 254.746 44.6602C255.426 45.2344 256.299 45.5215 257.365 45.5215Z" fill="white"/>
<path d="M273.66 28.9805L273.748 31.0898C275.143 29.4492 277.023 28.6289 279.391 28.6289C282.051 28.6289 283.861 29.6484 284.822 31.6875C285.455 30.7734 286.275 30.0352 287.283 29.4727C288.303 28.9102 289.504 28.6289 290.887 28.6289C295.059 28.6289 297.18 30.8379 297.25 35.2559V48H293.998V35.4492C293.998 34.0898 293.688 33.0762 293.066 32.4082C292.445 31.7285 291.402 31.3887 289.938 31.3887C288.73 31.3887 287.729 31.752 286.932 32.4785C286.135 33.1934 285.672 34.1602 285.543 35.3789V48H282.273V35.5371C282.273 32.7715 280.92 31.3887 278.213 31.3887C276.08 31.3887 274.621 32.2969 273.836 34.1133V48H270.584V28.9805H273.66Z" fill="white"/>
<path d="M318.238 38.7012C318.238 41.5957 317.576 43.9277 316.252 45.6973C314.928 47.4668 313.135 48.3516 310.873 48.3516C308.564 48.3516 306.748 47.6191 305.424 46.1543V55.3125H302.172V28.9805H305.143L305.301 31.0898C306.625 29.4492 308.465 28.6289 310.82 28.6289C313.105 28.6289 314.91 29.4902 316.234 31.2129C317.57 32.9355 318.238 35.332 318.238 38.4023V38.7012ZM314.986 38.332C314.986 36.1875 314.529 34.4941 313.615 33.252C312.701 32.0098 311.447 31.3887 309.854 31.3887C307.885 31.3887 306.408 32.2617 305.424 34.0078V43.0957C306.396 44.8301 307.885 45.6973 309.889 45.6973C311.447 45.6973 312.684 45.082 313.598 43.8516C314.523 42.6094 314.986 40.7695 314.986 38.332Z" fill="white"/>
<path d="M334.129 48C333.941 47.625 333.789 46.957 333.672 45.9961C332.16 47.5664 330.355 48.3516 328.258 48.3516C326.383 48.3516 324.842 47.8242 323.635 46.7695C322.439 45.7031 321.842 44.3555 321.842 42.7266C321.842 40.7461 322.592 39.2109 324.092 38.1211C325.604 37.0195 327.725 36.4688 330.455 36.4688H333.619V34.9746C333.619 33.8379 333.279 32.9355 332.6 32.2676C331.92 31.5879 330.918 31.248 329.594 31.248C328.434 31.248 327.461 31.541 326.676 32.127C325.891 32.7129 325.498 33.4219 325.498 34.2539H322.229C322.229 33.3047 322.562 32.3906 323.23 31.5117C323.91 30.6211 324.824 29.918 325.973 29.4023C327.133 28.8867 328.404 28.6289 329.787 28.6289C331.979 28.6289 333.695 29.1797 334.938 30.2812C336.18 31.3711 336.824 32.877 336.871 34.7988V43.5527C336.871 45.2988 337.094 46.6875 337.539 47.7188V48H334.129ZM328.732 45.5215C329.752 45.5215 330.719 45.2578 331.633 44.7305C332.547 44.2031 333.209 43.5176 333.619 42.6738V38.7715H331.07C327.086 38.7715 325.094 39.9375 325.094 42.2695C325.094 43.2891 325.434 44.0859 326.113 44.6602C326.793 45.2344 327.666 45.5215 328.732 45.5215Z" fill="white"/>
<path d="M345.045 28.9805L345.15 31.3711C346.604 29.543 348.502 28.6289 350.846 28.6289C354.865 28.6289 356.893 30.8965 356.928 35.4316V48H353.676V35.4141C353.664 34.043 353.348 33.0293 352.727 32.373C352.117 31.7168 351.162 31.3887 349.861 31.3887C348.807 31.3887 347.881 31.6699 347.084 32.2324C346.287 32.7949 345.666 33.5332 345.221 34.4473V48H341.969V28.9805H345.045Z" fill="white"/>
<path d="M373.574 48C373.387 47.625 373.234 46.957 373.117 45.9961C371.605 47.5664 369.801 48.3516 367.703 48.3516C365.828 48.3516 364.287 47.8242 363.08 46.7695C361.885 45.7031 361.287 44.3555 361.287 42.7266C361.287 40.7461 362.037 39.2109 363.537 38.1211C365.049 37.0195 367.17 36.4688 369.9 36.4688H373.064V34.9746C373.064 33.8379 372.725 32.9355 372.045 32.2676C371.365 31.5879 370.363 31.248 369.039 31.248C367.879 31.248 366.906 31.541 366.121 32.127C365.336 32.7129 364.943 33.4219 364.943 34.2539H361.674C361.674 33.3047 362.008 32.3906 362.676 31.5117C363.355 30.6211 364.27 29.918 365.418 29.4023C366.578 28.8867 367.85 28.6289 369.232 28.6289C371.424 28.6289 373.141 29.1797 374.383 30.2812C375.625 31.3711 376.27 32.877 376.316 34.7988V43.5527C376.316 45.2988 376.539 46.6875 376.984 47.7188V48H373.574ZM368.178 45.5215C369.197 45.5215 370.164 45.2578 371.078 44.7305C371.992 44.2031 372.654 43.5176 373.064 42.6738V38.7715H370.516C366.531 38.7715 364.539 39.9375 364.539 42.2695C364.539 43.2891 364.879 44.0859 365.559 44.6602C366.238 45.2344 367.111 45.5215 368.178 45.5215Z" fill="white"/>
<path d="M390.607 31.8984C390.115 31.8164 389.582 31.7754 389.008 31.7754C386.875 31.7754 385.428 32.6836 384.666 34.5V48H381.414V28.9805H384.578L384.631 31.1777C385.697 29.4785 387.209 28.6289 389.166 28.6289C389.799 28.6289 390.279 28.7109 390.607 28.875V31.8984Z" fill="white"/>
<path d="M397.146 48H393.895V28.9805H397.146V48ZM393.631 23.9355C393.631 23.4082 393.789 22.9629 394.105 22.5996C394.434 22.2363 394.914 22.0547 395.547 22.0547C396.18 22.0547 396.66 22.2363 396.988 22.5996C397.316 22.9629 397.48 23.4082 397.48 23.9355C397.48 24.4629 397.316 24.9023 396.988 25.2539C396.66 25.6055 396.18 25.7812 395.547 25.7812C394.914 25.7812 394.434 25.6055 394.105 25.2539C393.789 24.9023 393.631 24.4629 393.631 23.9355Z" fill="white"/>
<path d="M401.506 38.3145C401.506 36.4512 401.869 34.7754 402.596 33.2871C403.334 31.7988 404.354 30.6504 405.654 29.8418C406.967 29.0332 408.461 28.6289 410.137 28.6289C412.727 28.6289 414.818 29.5254 416.412 31.3184C418.018 33.1113 418.82 35.4961 418.82 38.4727V38.7012C418.82 40.5527 418.463 42.2168 417.748 43.6934C417.045 45.1582 416.031 46.3008 414.707 47.1211C413.395 47.9414 411.883 48.3516 410.172 48.3516C407.594 48.3516 405.502 47.4551 403.896 45.6621C402.303 43.8691 401.506 41.4961 401.506 38.543V38.3145ZM404.775 38.7012C404.775 40.8105 405.262 42.5039 406.234 43.7812C407.219 45.0586 408.531 45.6973 410.172 45.6973C411.824 45.6973 413.137 45.0527 414.109 43.7637C415.082 42.4629 415.568 40.6465 415.568 38.3145C415.568 36.2285 415.07 34.541 414.074 33.252C413.09 31.9512 411.777 31.3008 410.137 31.3008C408.531 31.3008 407.236 31.9395 406.252 33.2168C405.268 34.4941 404.775 36.3223 404.775 38.7012Z" fill="white"/>
<path d="M431.037 38.332C431.037 35.4141 431.729 33.0703 433.111 31.3008C434.494 29.5195 436.305 28.6289 438.543 28.6289C440.77 28.6289 442.533 29.3906 443.834 30.9141V21H447.086V48H444.098L443.939 45.9609C442.639 47.5547 440.828 48.3516 438.508 48.3516C436.305 48.3516 434.506 47.4492 433.111 45.6445C431.729 43.8398 431.037 41.4844 431.037 38.5781V38.332ZM434.289 38.7012C434.289 40.8574 434.734 42.5449 435.625 43.7637C436.516 44.9824 437.746 45.5918 439.316 45.5918C441.379 45.5918 442.885 44.666 443.834 42.8145V34.0781C442.861 32.2852 441.367 31.3887 439.352 31.3887C437.758 31.3887 436.516 32.0039 435.625 33.2344C434.734 34.4648 434.289 36.2871 434.289 38.7012Z" fill="white"/>
<path d="M460.041 48.3516C457.463 48.3516 455.365 47.5078 453.748 45.8203C452.131 44.1211 451.322 41.8535 451.322 39.0176V38.4199C451.322 36.5332 451.68 34.8516 452.395 33.375C453.121 31.8867 454.129 30.7266 455.418 29.8945C456.719 29.0508 458.125 28.6289 459.637 28.6289C462.109 28.6289 464.031 29.4434 465.402 31.0723C466.773 32.7012 467.459 35.0332 467.459 38.0684V39.4219H454.574C454.621 41.2969 455.166 42.8145 456.209 43.9746C457.264 45.123 458.6 45.6973 460.217 45.6973C461.365 45.6973 462.338 45.4629 463.135 44.9941C463.932 44.5254 464.629 43.9043 465.227 43.1309L467.213 44.6777C465.619 47.127 463.229 48.3516 460.041 48.3516ZM459.637 31.3008C458.324 31.3008 457.223 31.7812 456.332 32.7422C455.441 33.6914 454.891 35.0273 454.68 36.75H464.207V36.5039C464.113 34.8516 463.668 33.5742 462.871 32.6719C462.074 31.7578 460.996 31.3008 459.637 31.3008Z" fill="white"/>
<path d="M474.297 28.9805L474.385 31.0898C475.779 29.4492 477.66 28.6289 480.027 28.6289C482.688 28.6289 484.498 29.6484 485.459 31.6875C486.092 30.7734 486.912 30.0352 487.92 29.4727C488.939 28.9102 490.141 28.6289 491.523 28.6289C495.695 28.6289 497.816 30.8379 497.887 35.2559V48H494.635V35.4492C494.635 34.0898 494.324 33.0762 493.703 32.4082C493.082 31.7285 492.039 31.3887 490.574 31.3887C489.367 31.3887 488.365 31.752 487.568 32.4785C486.771 33.1934 486.309 34.1602 486.18 35.3789V48H482.91V35.5371C482.91 32.7715 481.557 31.3887 478.85 31.3887C476.717 31.3887 475.258 32.2969 474.473 34.1133V48H471.221V28.9805H474.297Z" fill="white"/>
<path d="M501.947 38.3145C501.947 36.4512 502.311 34.7754 503.037 33.2871C503.775 31.7988 504.795 30.6504 506.096 29.8418C507.408 29.0332 508.902 28.6289 510.578 28.6289C513.168 28.6289 515.26 29.5254 516.854 31.3184C518.459 33.1113 519.262 35.4961 519.262 38.4727V38.7012C519.262 40.5527 518.904 42.2168 518.189 43.6934C517.486 45.1582 516.473 46.3008 515.148 47.1211C513.836 47.9414 512.324 48.3516 510.613 48.3516C508.035 48.3516 505.943 47.4551 504.338 45.6621C502.744 43.8691 501.947 41.4961 501.947 38.543V38.3145ZM505.217 38.7012C505.217 40.8105 505.703 42.5039 506.676 43.7812C507.66 45.0586 508.973 45.6973 510.613 45.6973C512.266 45.6973 513.578 45.0527 514.551 43.7637C515.523 42.4629 516.01 40.6465 516.01 38.3145C516.01 36.2285 515.512 34.541 514.516 33.252C513.531 31.9512 512.219 31.3008 510.578 31.3008C508.973 31.3008 507.678 31.9395 506.693 33.2168C505.709 34.4941 505.217 36.3223 505.217 38.7012Z" fill="white"/>
<path d="M532.533 31.8984C532.041 31.8164 531.508 31.7754 530.934 31.7754C528.801 31.7754 527.354 32.6836 526.592 34.5V48H523.34V28.9805H526.504L526.557 31.1777C527.623 29.4785 529.135 28.6289 531.092 28.6289C531.725 28.6289 532.205 28.7109 532.533 28.875V31.8984Z" fill="white"/>
<path d="M534.326 38.3145C534.326 36.4512 534.689 34.7754 535.416 33.2871C536.154 31.7988 537.174 30.6504 538.475 29.8418C539.787 29.0332 541.281 28.6289 542.957 28.6289C545.547 28.6289 547.639 29.5254 549.232 31.3184C550.838 33.1113 551.641 35.4961 551.641 38.4727V38.7012C551.641 40.5527 551.283 42.2168 550.568 43.6934C549.865 45.1582 548.852 46.3008 547.527 47.1211C546.215 47.9414 544.703 48.3516 542.992 48.3516C540.414 48.3516 538.322 47.4551 536.717 45.6621C535.123 43.8691 534.326 41.4961 534.326 38.543V38.3145ZM537.596 38.7012C537.596 40.8105 538.082 42.5039 539.055 43.7812C540.039 45.0586 541.352 45.6973 542.992 45.6973C544.645 45.6973 545.957 45.0527 546.93 43.7637C547.902 42.4629 548.389 40.6465 548.389 38.3145C548.389 36.2285 547.891 34.541 546.895 33.252C545.91 31.9512 544.598 31.3008 542.957 31.3008C541.352 31.3008 540.057 31.9395 539.072 33.2168C538.088 34.4941 537.596 36.3223 537.596 38.7012ZM544.434 21H548.371L543.66 26.168H541.041L544.434 21Z" fill="white"/>
<path d="M577.076 22.3887V25.1484H576.479C573.947 25.1953 571.932 25.9453 570.432 27.3984C568.932 28.8516 568.064 30.8965 567.83 33.5332C569.178 31.9863 571.018 31.2129 573.35 31.2129C575.576 31.2129 577.352 31.998 578.676 33.5684C580.012 35.1387 580.68 37.166 580.68 39.6504C580.68 42.2871 579.959 44.3965 578.518 45.9785C577.088 47.5605 575.166 48.3516 572.752 48.3516C570.303 48.3516 568.316 47.4141 566.793 45.5391C565.27 43.6523 564.508 41.2266 564.508 38.2617V37.0137C564.508 32.3027 565.51 28.7051 567.514 26.2207C569.529 23.7246 572.523 22.4473 576.496 22.3887H577.076ZM572.805 33.9199C571.691 33.9199 570.666 34.2539 569.729 34.9219C568.791 35.5898 568.141 36.4277 567.777 37.4355V38.6309C567.777 40.7402 568.252 42.4395 569.201 43.7285C570.15 45.0176 571.334 45.6621 572.752 45.6621C574.217 45.6621 575.365 45.123 576.197 44.0449C577.041 42.9668 577.463 41.5547 577.463 39.8086C577.463 38.0508 577.035 36.6328 576.18 35.5547C575.336 34.4648 574.211 33.9199 572.805 33.9199Z" fill="white"/>
<path d="M604.867 42.9551C604.867 42.0762 604.533 41.3965 603.865 40.916C603.209 40.4238 602.055 40.002 600.402 39.6504C598.762 39.2988 597.455 38.877 596.482 38.3848C595.521 37.8926 594.807 37.3066 594.338 36.627C593.881 35.9473 593.652 35.1387 593.652 34.2012C593.652 32.6426 594.309 31.3242 595.621 30.2461C596.945 29.168 598.633 28.6289 600.684 28.6289C602.84 28.6289 604.586 29.1855 605.922 30.2988C607.27 31.4121 607.943 32.8359 607.943 34.5703H604.674C604.674 33.6797 604.293 32.9121 603.531 32.2676C602.781 31.623 601.832 31.3008 600.684 31.3008C599.5 31.3008 598.574 31.5586 597.906 32.0742C597.238 32.5898 596.904 33.2637 596.904 34.0957C596.904 34.8809 597.215 35.4727 597.836 35.8711C598.457 36.2695 599.576 36.6504 601.193 37.0137C602.822 37.377 604.141 37.8105 605.148 38.3145C606.156 38.8184 606.9 39.4277 607.381 40.1426C607.873 40.8457 608.119 41.707 608.119 42.7266C608.119 44.4258 607.439 45.791 606.08 46.8223C604.721 47.8418 602.957 48.3516 600.789 48.3516C599.266 48.3516 597.918 48.082 596.746 47.543C595.574 47.0039 594.654 46.2539 593.986 45.293C593.33 44.3203 593.002 43.2715 593.002 42.1465H596.254C596.312 43.2363 596.746 44.1035 597.555 44.748C598.375 45.3809 599.453 45.6973 600.789 45.6973C602.02 45.6973 603.004 45.4512 603.742 44.959C604.492 44.4551 604.867 43.7871 604.867 42.9551Z" fill="white"/>
<path d="M620.248 48.3516C617.67 48.3516 615.572 47.5078 613.955 45.8203C612.338 44.1211 611.529 41.8535 611.529 39.0176V38.4199C611.529 36.5332 611.887 34.8516 612.602 33.375C613.328 31.8867 614.336 30.7266 615.625 29.8945C616.926 29.0508 618.332 28.6289 619.844 28.6289C622.316 28.6289 624.238 29.4434 625.609 31.0723C626.98 32.7012 627.666 35.0332 627.666 38.0684V39.4219H614.781C614.828 41.2969 615.373 42.8145 616.416 43.9746C617.471 45.123 618.807 45.6973 620.424 45.6973C621.572 45.6973 622.545 45.4629 623.342 44.9941C624.139 44.5254 624.836 43.9043 625.434 43.1309L627.42 44.6777C625.826 47.127 623.436 48.3516 620.248 48.3516ZM619.844 31.3008C618.531 31.3008 617.43 31.7812 616.539 32.7422C615.648 33.6914 615.098 35.0273 614.887 36.75H624.414V36.5039C624.32 34.8516 623.875 33.5742 623.078 32.6719C622.281 31.7578 621.203 31.3008 619.844 31.3008Z" fill="white"/>
<path d="M630.672 38.332C630.672 35.3672 631.357 33.0117 632.729 31.2656C634.1 29.5078 635.916 28.6289 638.178 28.6289C640.498 28.6289 642.309 29.4492 643.609 31.0898L643.768 28.9805H646.738V47.543C646.738 50.0039 646.006 51.9434 644.541 53.3613C643.088 54.7793 641.131 55.4883 638.67 55.4883C637.299 55.4883 635.957 55.1953 634.645 54.6094C633.332 54.0234 632.33 53.2207 631.639 52.2012L633.326 50.25C634.721 51.9727 636.426 52.834 638.441 52.834C640.023 52.834 641.254 52.3887 642.133 51.498C643.023 50.6074 643.469 49.3535 643.469 47.7363V46.1016C642.168 47.6016 640.393 48.3516 638.143 48.3516C635.916 48.3516 634.111 47.4551 632.729 45.6621C631.357 43.8691 630.672 41.4258 630.672 38.332ZM633.941 38.7012C633.941 40.8457 634.381 42.5332 635.26 43.7637C636.139 44.9824 637.369 45.5918 638.951 45.5918C641.002 45.5918 642.508 44.6602 643.469 42.7969V34.1133C642.473 32.2969 640.979 31.3887 638.986 31.3887C637.404 31.3887 636.168 32.0039 635.277 33.2344C634.387 34.4648 633.941 36.2871 633.941 38.7012Z" fill="white"/>
<path d="M663.402 46.1191C662.137 47.6074 660.279 48.3516 657.83 48.3516C655.803 48.3516 654.256 47.7656 653.189 46.5938C652.135 45.4102 651.602 43.6641 651.59 41.3555V28.9805H654.842V41.2676C654.842 44.1504 656.014 45.5918 658.357 45.5918C660.842 45.5918 662.494 44.666 663.314 42.8145V28.9805H666.566V48H663.473L663.402 46.1191Z" fill="white"/>
<path d="M674.6 28.9805L674.705 31.3711C676.158 29.543 678.057 28.6289 680.4 28.6289C684.42 28.6289 686.447 30.8965 686.482 35.4316V48H683.23V35.4141C683.219 34.043 682.902 33.0293 682.281 32.373C681.672 31.7168 680.717 31.3887 679.416 31.3887C678.361 31.3887 677.436 31.6699 676.639 32.2324C675.842 32.7949 675.221 33.5332 674.775 34.4473V48H671.523V28.9805H674.6Z" fill="white"/>
<path d="M690.596 38.332C690.596 35.4141 691.287 33.0703 692.67 31.3008C694.053 29.5195 695.863 28.6289 698.102 28.6289C700.328 28.6289 702.092 29.3906 703.393 30.9141V21H706.645V48H703.656L703.498 45.9609C702.197 47.5547 700.387 48.3516 698.066 48.3516C695.863 48.3516 694.064 47.4492 692.67 45.6445C691.287 43.8398 690.596 41.4844 690.596 38.5781V38.332ZM693.848 38.7012C693.848 40.8574 694.293 42.5449 695.184 43.7637C696.074 44.9824 697.305 45.5918 698.875 45.5918C700.938 45.5918 702.443 44.666 703.393 42.8145V34.0781C702.42 32.2852 700.926 31.3887 698.91 31.3887C697.316 31.3887 696.074 32.0039 695.184 33.2344C694.293 34.4648 693.848 36.2871 693.848 38.7012Z" fill="white"/>
<path d="M710.846 38.3145C710.846 36.4512 711.209 34.7754 711.936 33.2871C712.674 31.7988 713.693 30.6504 714.994 29.8418C716.307 29.0332 717.801 28.6289 719.477 28.6289C722.066 28.6289 724.158 29.5254 725.752 31.3184C727.357 33.1113 728.16 35.4961 728.16 38.4727V38.7012C728.16 40.5527 727.803 42.2168 727.088 43.6934C726.385 45.1582 725.371 46.3008 724.047 47.1211C722.734 47.9414 721.223 48.3516 719.512 48.3516C716.934 48.3516 714.842 47.4551 713.236 45.6621C711.643 43.8691 710.846 41.4961 710.846 38.543V38.3145ZM714.115 38.7012C714.115 40.8105 714.602 42.5039 715.574 43.7812C716.559 45.0586 717.871 45.6973 719.512 45.6973C721.164 45.6973 722.477 45.0527 723.449 43.7637C724.422 42.4629 724.908 40.6465 724.908 38.3145C724.908 36.2285 724.41 34.541 723.414 33.252C722.43 31.9512 721.117 31.3008 719.477 31.3008C717.871 31.3008 716.576 31.9395 715.592 33.2168C714.607 34.4941 714.115 36.3223 714.115 38.7012Z" fill="white"/>
<path d="M743.312 42.9551C743.312 42.0762 742.979 41.3965 742.311 40.916C741.654 40.4238 740.5 40.002 738.848 39.6504C737.207 39.2988 735.9 38.877 734.928 38.3848C733.967 37.8926 733.252 37.3066 732.783 36.627C732.326 35.9473 732.098 35.1387 732.098 34.2012C732.098 32.6426 732.754 31.3242 734.066 30.2461C735.391 29.168 737.078 28.6289 739.129 28.6289C741.285 28.6289 743.031 29.1855 744.367 30.2988C745.715 31.4121 746.389 32.8359 746.389 34.5703H743.119C743.119 33.6797 742.738 32.9121 741.977 32.2676C741.227 31.623 740.277 31.3008 739.129 31.3008C737.945 31.3008 737.02 31.5586 736.352 32.0742C735.684 32.5898 735.35 33.2637 735.35 34.0957C735.35 34.8809 735.66 35.4727 736.281 35.8711C736.902 36.2695 738.021 36.6504 739.639 37.0137C741.268 37.377 742.586 37.8105 743.594 38.3145C744.602 38.8184 745.346 39.4277 745.826 40.1426C746.318 40.8457 746.564 41.707 746.564 42.7266C746.564 44.4258 745.885 45.791 744.525 46.8223C743.166 47.8418 741.402 48.3516 739.234 48.3516C737.711 48.3516 736.363 48.082 735.191 47.543C734.02 47.0039 733.1 46.2539 732.432 45.293C731.775 44.3203 731.447 43.2715 731.447 42.1465H734.699C734.758 43.2363 735.191 44.1035 736 44.748C736.82 45.3809 737.898 45.6973 739.234 45.6973C740.465 45.6973 741.449 45.4512 742.188 44.959C742.938 44.4551 743.312 43.7871 743.312 42.9551Z" fill="white"/>
<path d="M767.623 48.3516C765.045 48.3516 762.947 47.5078 761.33 45.8203C759.713 44.1211 758.904 41.8535 758.904 39.0176V38.4199C758.904 36.5332 759.262 34.8516 759.977 33.375C760.703 31.8867 761.711 30.7266 763 29.8945C764.301 29.0508 765.707 28.6289 767.219 28.6289C769.691 28.6289 771.613 29.4434 772.984 31.0723C774.355 32.7012 775.041 35.0332 775.041 38.0684V39.4219H762.156C762.203 41.2969 762.748 42.8145 763.791 43.9746C764.846 45.123 766.182 45.6973 767.799 45.6973C768.947 45.6973 769.92 45.4629 770.717 44.9941C771.514 44.5254 772.211 43.9043 772.809 43.1309L774.795 44.6777C773.201 47.127 770.811 48.3516 767.623 48.3516ZM767.219 31.3008C765.906 31.3008 764.805 31.7812 763.914 32.7422C763.023 33.6914 762.473 35.0273 762.262 36.75H771.789V36.5039C771.695 34.8516 771.25 33.5742 770.453 32.6719C769.656 31.7578 768.578 31.3008 767.219 31.3008Z" fill="white"/>
<path d="M781.896 28.9805L782.002 31.3711C783.455 29.543 785.354 28.6289 787.697 28.6289C791.717 28.6289 793.744 30.8965 793.779 35.4316V48H790.527V35.4141C790.516 34.043 790.199 33.0293 789.578 32.373C788.969 31.7168 788.014 31.3887 786.713 31.3887C785.658 31.3887 784.732 31.6699 783.936 32.2324C783.139 32.7949 782.518 33.5332 782.072 34.4473V48H778.82V28.9805H781.896Z" fill="white"/>
<path d="M806.822 38.332C806.822 35.4141 807.514 33.0703 808.896 31.3008C810.279 29.5195 812.09 28.6289 814.328 28.6289C816.555 28.6289 818.318 29.3906 819.619 30.9141V21H822.871V48H819.883L819.725 45.9609C818.424 47.5547 816.613 48.3516 814.293 48.3516C812.09 48.3516 810.291 47.4492 808.896 45.6445C807.514 43.8398 806.822 41.4844 806.822 38.5781V38.332ZM810.074 38.7012C810.074 40.8574 810.52 42.5449 811.41 43.7637C812.301 44.9824 813.531 45.5918 815.102 45.5918C817.164 45.5918 818.67 44.666 819.619 42.8145V34.0781C818.646 32.2852 817.152 31.3887 815.137 31.3887C813.543 31.3887 812.301 32.0039 811.41 33.2344C810.52 34.4648 810.074 36.2871 810.074 38.7012Z" fill="white"/>
<path d="M839.676 48C839.488 47.625 839.336 46.957 839.219 45.9961C837.707 47.5664 835.902 48.3516 833.805 48.3516C831.93 48.3516 830.389 47.8242 829.182 46.7695C827.986 45.7031 827.389 44.3555 827.389 42.7266C827.389 40.7461 828.139 39.2109 829.639 38.1211C831.15 37.0195 833.271 36.4688 836.002 36.4688H839.166V34.9746C839.166 33.8379 838.826 32.9355 838.146 32.2676C837.467 31.5879 836.465 31.248 835.141 31.248C833.98 31.248 833.008 31.541 832.223 32.127C831.438 32.7129 831.045 33.4219 831.045 34.2539H827.775C827.775 33.3047 828.109 32.3906 828.777 31.5117C829.457 30.6211 830.371 29.918 831.52 29.4023C832.68 28.8867 833.951 28.6289 835.334 28.6289C837.525 28.6289 839.242 29.1797 840.484 30.2812C841.727 31.3711 842.371 32.877 842.418 34.7988V43.5527C842.418 45.2988 842.641 46.6875 843.086 47.7188V48H839.676ZM834.279 45.5215C835.299 45.5215 836.266 45.2578 837.18 44.7305C838.094 44.2031 838.756 43.5176 839.166 42.6738V38.7715H836.617C832.633 38.7715 830.641 39.9375 830.641 42.2695C830.641 43.2891 830.98 44.0859 831.66 44.6602C832.34 45.2344 833.213 45.5215 834.279 45.5215Z" fill="white"/>
<path d="M856.709 31.8984C856.217 31.8164 855.684 31.7754 855.109 31.7754C852.977 31.7754 851.529 32.6836 850.768 34.5V48H847.516V28.9805H850.68L850.732 31.1777C851.799 29.4785 853.311 28.6289 855.268 28.6289C855.9 28.6289 856.381 28.7109 856.709 28.875V31.8984Z" fill="white"/>
<path d="M148.855 73.6211H151.299C152.834 73.5977 154.041 73.1934 154.92 72.4082C155.799 71.623 156.238 70.5625 156.238 69.2266C156.238 66.2266 154.744 64.7266 151.756 64.7266C150.35 64.7266 149.225 65.1309 148.381 65.9395C147.549 66.7363 147.133 67.7969 147.133 69.1211H143.881C143.881 67.0938 144.619 65.4121 146.096 64.0762C147.584 62.7285 149.471 62.0547 151.756 62.0547C154.17 62.0547 156.062 62.6934 157.434 63.9707C158.805 65.248 159.49 67.0234 159.49 69.2969C159.49 70.4102 159.127 71.4883 158.4 72.5312C157.686 73.5742 156.707 74.3535 155.465 74.8691C156.871 75.3145 157.955 76.0527 158.717 77.084C159.49 78.1152 159.877 79.375 159.877 80.8633C159.877 83.1602 159.127 84.9824 157.627 86.3301C156.127 87.6777 154.176 88.3516 151.773 88.3516C149.371 88.3516 147.414 87.7012 145.902 86.4004C144.402 85.0996 143.652 83.3828 143.652 81.25H146.922C146.922 82.5977 147.361 83.6758 148.24 84.4844C149.119 85.293 150.297 85.6973 151.773 85.6973C153.344 85.6973 154.545 85.2871 155.377 84.4668C156.209 83.6465 156.625 82.4688 156.625 80.9336C156.625 79.4453 156.168 78.3027 155.254 77.5059C154.34 76.709 153.021 76.2988 151.299 76.2754H148.855V73.6211Z" fill="white"/>
<path d="M181.234 85.6973C182.395 85.6973 183.408 85.3457 184.275 84.6426C185.143 83.9395 185.623 83.0605 185.717 82.0059H188.793C188.734 83.0957 188.359 84.1328 187.668 85.1172C186.977 86.1016 186.051 86.8867 184.891 87.4727C183.742 88.0586 182.523 88.3516 181.234 88.3516C178.645 88.3516 176.582 87.4902 175.047 85.7676C173.523 84.0332 172.762 81.666 172.762 78.666V78.1211C172.762 76.2695 173.102 74.623 173.781 73.1816C174.461 71.7402 175.434 70.6211 176.699 69.8242C177.977 69.0273 179.482 68.6289 181.217 68.6289C183.35 68.6289 185.119 69.2676 186.525 70.5449C187.943 71.8223 188.699 73.4805 188.793 75.5195H185.717C185.623 74.2891 185.154 73.2812 184.311 72.4961C183.479 71.6992 182.447 71.3008 181.217 71.3008C179.564 71.3008 178.281 71.8984 177.367 73.0938C176.465 74.2773 176.014 75.9941 176.014 78.2441V78.8594C176.014 81.0508 176.465 82.7383 177.367 83.9219C178.27 85.1055 179.559 85.6973 181.234 85.6973Z" fill="white"/>
<path d="M204.191 88C204.004 87.625 203.852 86.957 203.734 85.9961C202.223 87.5664 200.418 88.3516 198.32 88.3516C196.445 88.3516 194.904 87.8242 193.697 86.7695C192.502 85.7031 191.904 84.3555 191.904 82.7266C191.904 80.7461 192.654 79.2109 194.154 78.1211C195.666 77.0195 197.787 76.4688 200.518 76.4688H203.682V74.9746C203.682 73.8379 203.342 72.9355 202.662 72.2676C201.982 71.5879 200.98 71.248 199.656 71.248C198.496 71.248 197.523 71.541 196.738 72.127C195.953 72.7129 195.561 73.4219 195.561 74.2539H192.291C192.291 73.3047 192.625 72.3906 193.293 71.5117C193.973 70.6211 194.887 69.918 196.035 69.4023C197.195 68.8867 198.467 68.6289 199.85 68.6289C202.041 68.6289 203.758 69.1797 205 70.2812C206.242 71.3711 206.887 72.877 206.934 74.7988V83.5527C206.934 85.2988 207.156 86.6875 207.602 87.7188V88H204.191ZM198.795 85.5215C199.814 85.5215 200.781 85.2578 201.695 84.7305C202.609 84.2031 203.271 83.5176 203.682 82.6738V78.7715H201.133C197.148 78.7715 195.156 79.9375 195.156 82.2695C195.156 83.2891 195.496 84.0859 196.176 84.6602C196.855 85.2344 197.729 85.5215 198.795 85.5215Z" fill="white"/>
<path d="M215.09 68.9805L215.178 71.0898C216.572 69.4492 218.453 68.6289 220.82 68.6289C223.48 68.6289 225.291 69.6484 226.252 71.6875C226.885 70.7734 227.705 70.0352 228.713 69.4727C229.732 68.9102 230.934 68.6289 232.316 68.6289C236.488 68.6289 238.609 70.8379 238.68 75.2559V88H235.428V75.4492C235.428 74.0898 235.117 73.0762 234.496 72.4082C233.875 71.7285 232.832 71.3887 231.367 71.3887C230.16 71.3887 229.158 71.752 228.361 72.4785C227.564 73.1934 227.102 74.1602 226.973 75.3789V88H223.703V75.5371C223.703 72.7715 222.35 71.3887 219.643 71.3887C217.51 71.3887 216.051 72.2969 215.266 74.1133V88H212.014V68.9805H215.09Z" fill="white"/>
<path d="M259.668 78.7012C259.668 81.5957 259.006 83.9277 257.682 85.6973C256.357 87.4668 254.564 88.3516 252.303 88.3516C249.994 88.3516 248.178 87.6191 246.854 86.1543V95.3125H243.602V68.9805H246.572L246.73 71.0898C248.055 69.4492 249.895 68.6289 252.25 68.6289C254.535 68.6289 256.34 69.4902 257.664 71.2129C259 72.9355 259.668 75.332 259.668 78.4023V78.7012ZM256.416 78.332C256.416 76.1875 255.959 74.4941 255.045 73.252C254.131 72.0098 252.877 71.3887 251.283 71.3887C249.314 71.3887 247.838 72.2617 246.854 74.0078V83.0957C247.826 84.8301 249.314 85.6973 251.318 85.6973C252.877 85.6973 254.113 85.082 255.027 83.8516C255.953 82.6094 256.416 80.7695 256.416 78.332Z" fill="white"/>
<path d="M275.559 88C275.371 87.625 275.219 86.957 275.102 85.9961C273.59 87.5664 271.785 88.3516 269.688 88.3516C267.812 88.3516 266.271 87.8242 265.064 86.7695C263.869 85.7031 263.271 84.3555 263.271 82.7266C263.271 80.7461 264.021 79.2109 265.521 78.1211C267.033 77.0195 269.154 76.4688 271.885 76.4688H275.049V74.9746C275.049 73.8379 274.709 72.9355 274.029 72.2676C273.35 71.5879 272.348 71.248 271.023 71.248C269.863 71.248 268.891 71.541 268.105 72.127C267.32 72.7129 266.928 73.4219 266.928 74.2539H263.658C263.658 73.3047 263.992 72.3906 264.66 71.5117C265.34 70.6211 266.254 69.918 267.402 69.4023C268.562 68.8867 269.834 68.6289 271.217 68.6289C273.408 68.6289 275.125 69.1797 276.367 70.2812C277.609 71.3711 278.254 72.877 278.301 74.7988V83.5527C278.301 85.2988 278.523 86.6875 278.969 87.7188V88H275.559ZM270.162 85.5215C271.182 85.5215 272.148 85.2578 273.062 84.7305C273.977 84.2031 274.639 83.5176 275.049 82.6738V78.7715H272.5C268.516 78.7715 266.523 79.9375 266.523 82.2695C266.523 83.2891 266.863 84.0859 267.543 84.6602C268.223 85.2344 269.096 85.5215 270.162 85.5215Z" fill="white"/>
<path d="M286.475 68.9805L286.58 71.3711C288.033 69.543 289.932 68.6289 292.275 68.6289C296.295 68.6289 298.322 70.8965 298.357 75.4316V88H295.105V75.4141C295.094 74.043 294.777 73.0293 294.156 72.373C293.547 71.7168 292.592 71.3887 291.291 71.3887C290.236 71.3887 289.311 71.6699 288.514 72.2324C287.717 72.7949 287.096 73.5332 286.65 74.4473V88H283.398V68.9805H286.475Z" fill="white"/>
<path d="M315.004 88C314.816 87.625 314.664 86.957 314.547 85.9961C313.035 87.5664 311.23 88.3516 309.133 88.3516C307.258 88.3516 305.717 87.8242 304.51 86.7695C303.314 85.7031 302.717 84.3555 302.717 82.7266C302.717 80.7461 303.467 79.2109 304.967 78.1211C306.479 77.0195 308.6 76.4688 311.33 76.4688H314.494V74.9746C314.494 73.8379 314.154 72.9355 313.475 72.2676C312.795 71.5879 311.793 71.248 310.469 71.248C309.309 71.248 308.336 71.541 307.551 72.127C306.766 72.7129 306.373 73.4219 306.373 74.2539H303.104C303.104 73.3047 303.438 72.3906 304.105 71.5117C304.785 70.6211 305.699 69.918 306.848 69.4023C308.008 68.8867 309.279 68.6289 310.662 68.6289C312.854 68.6289 314.57 69.1797 315.812 70.2812C317.055 71.3711 317.699 72.877 317.746 74.7988V83.5527C317.746 85.2988 317.969 86.6875 318.414 87.7188V88H315.004ZM309.607 85.5215C310.627 85.5215 311.594 85.2578 312.508 84.7305C313.422 84.2031 314.084 83.5176 314.494 82.6738V78.7715H311.945C307.961 78.7715 305.969 79.9375 305.969 82.2695C305.969 83.2891 306.309 84.0859 306.988 84.6602C307.668 85.2344 308.541 85.5215 309.607 85.5215Z" fill="white"/>
<path d="M322.053 78.332C322.053 75.4141 322.744 73.0703 324.127 71.3008C325.51 69.5195 327.32 68.6289 329.559 68.6289C331.785 68.6289 333.549 69.3906 334.85 70.9141V61H338.102V88H335.113L334.955 85.9609C333.654 87.5547 331.844 88.3516 329.523 88.3516C327.32 88.3516 325.521 87.4492 324.127 85.6445C322.744 83.8398 322.053 81.4844 322.053 78.5781V78.332ZM325.305 78.7012C325.305 80.8574 325.75 82.5449 326.641 83.7637C327.531 84.9824 328.762 85.5918 330.332 85.5918C332.395 85.5918 333.9 84.666 334.85 82.8145V74.0781C333.877 72.2852 332.383 71.3887 330.367 71.3887C328.773 71.3887 327.531 72.0039 326.641 73.2344C325.75 74.4648 325.305 76.2871 325.305 78.7012Z" fill="white"/>
<path d="M354.906 88C354.719 87.625 354.566 86.957 354.449 85.9961C352.938 87.5664 351.133 88.3516 349.035 88.3516C347.16 88.3516 345.619 87.8242 344.412 86.7695C343.217 85.7031 342.619 84.3555 342.619 82.7266C342.619 80.7461 343.369 79.2109 344.869 78.1211C346.381 77.0195 348.502 76.4688 351.232 76.4688H354.396V74.9746C354.396 73.8379 354.057 72.9355 353.377 72.2676C352.697 71.5879 351.695 71.248 350.371 71.248C349.211 71.248 348.238 71.541 347.453 72.127C346.668 72.7129 346.275 73.4219 346.275 74.2539H343.006C343.006 73.3047 343.34 72.3906 344.008 71.5117C344.688 70.6211 345.602 69.918 346.75 69.4023C347.91 68.8867 349.182 68.6289 350.564 68.6289C352.756 68.6289 354.473 69.1797 355.715 70.2812C356.957 71.3711 357.602 72.877 357.648 74.7988V83.5527C357.648 85.2988 357.871 86.6875 358.316 87.7188V88H354.906ZM349.51 85.5215C350.529 85.5215 351.496 85.2578 352.41 84.7305C353.324 84.2031 353.986 83.5176 354.396 82.6738V78.7715H351.848C347.863 78.7715 345.871 79.9375 345.871 82.2695C345.871 83.2891 346.211 84.0859 346.891 84.6602C347.57 85.2344 348.443 85.5215 349.51 85.5215Z" fill="white"/>
<path d="M373.82 82.9551C373.82 82.0762 373.486 81.3965 372.818 80.916C372.162 80.4238 371.008 80.002 369.355 79.6504C367.715 79.2988 366.408 78.877 365.436 78.3848C364.475 77.8926 363.76 77.3066 363.291 76.627C362.834 75.9473 362.605 75.1387 362.605 74.2012C362.605 72.6426 363.262 71.3242 364.574 70.2461C365.898 69.168 367.586 68.6289 369.637 68.6289C371.793 68.6289 373.539 69.1855 374.875 70.2988C376.223 71.4121 376.896 72.8359 376.896 74.5703H373.627C373.627 73.6797 373.246 72.9121 372.484 72.2676C371.734 71.623 370.785 71.3008 369.637 71.3008C368.453 71.3008 367.527 71.5586 366.859 72.0742C366.191 72.5898 365.857 73.2637 365.857 74.0957C365.857 74.8809 366.168 75.4727 366.789 75.8711C367.41 76.2695 368.529 76.6504 370.146 77.0137C371.775 77.377 373.094 77.8105 374.102 78.3145C375.109 78.8184 375.854 79.4277 376.334 80.1426C376.826 80.8457 377.072 81.707 377.072 82.7266C377.072 84.4258 376.393 85.791 375.033 86.8223C373.674 87.8418 371.91 88.3516 369.742 88.3516C368.219 88.3516 366.871 88.082 365.699 87.543C364.527 87.0039 363.607 86.2539 362.939 85.293C362.283 84.3203 361.955 83.2715 361.955 82.1465H365.207C365.266 83.2363 365.699 84.1035 366.508 84.748C367.328 85.3809 368.406 85.6973 369.742 85.6973C370.973 85.6973 371.957 85.4512 372.695 84.959C373.445 84.4551 373.82 83.7871 373.82 82.9551Z" fill="white"/>
<path d="M381.203 93.0977L379.357 91.832C380.459 90.2969 381.033 88.7148 381.08 87.0859V84.1504H384.262V86.6992C384.262 87.8828 383.969 89.0664 383.383 90.25C382.809 91.4336 382.082 92.3828 381.203 93.0977Z" fill="white"/>
<path d="M405.18 76.0469C405.168 77.2891 405.039 78.2852 404.793 79.0352C404.559 79.7734 404.16 80.4883 403.598 81.1797C403.035 81.8711 402.215 82.7852 401.137 83.9219C400.059 85.0469 399.455 86.1895 399.326 87.3496L399.291 88C399.291 89.2773 399.631 90.25 400.311 90.918C400.99 91.5977 401.969 91.9375 403.246 91.9375C404.418 91.9375 405.367 91.6035 406.094 90.9355C406.832 90.2793 407.201 89.418 407.201 88.3516H410.453C410.43 90.2383 409.756 91.7793 408.432 92.9746C407.119 94.1699 405.391 94.7676 403.246 94.7676C400.949 94.7676 399.174 94.1758 397.92 92.9922C396.666 91.8203 396.039 90.1855 396.039 88.0879C396.039 86.0605 396.977 84.0215 398.852 81.9707L400.768 79.9844C401.541 79.0703 401.928 77.7578 401.928 76.0469H405.18ZM405.32 70.4746C405.32 71.002 405.156 71.4473 404.828 71.8105C404.512 72.1738 404.037 72.3555 403.404 72.3555C402.771 72.3555 402.291 72.1738 401.963 71.8105C401.635 71.4473 401.471 71.002 401.471 70.4746C401.471 69.959 401.635 69.5254 401.963 69.1738C402.291 68.8223 402.771 68.6465 403.404 68.6465C404.037 68.6465 404.512 68.8223 404.828 69.1738C405.156 69.5254 405.32 69.959 405.32 70.4746Z" fill="white"/>
<path d="M421.984 85.6973C423.145 85.6973 424.158 85.3457 425.025 84.6426C425.893 83.9395 426.373 83.0605 426.467 82.0059H429.543C429.484 83.0957 429.109 84.1328 428.418 85.1172C427.727 86.1016 426.801 86.8867 425.641 87.4727C424.492 88.0586 423.273 88.3516 421.984 88.3516C419.395 88.3516 417.332 87.4902 415.797 85.7676C414.273 84.0332 413.512 81.666 413.512 78.666V78.1211C413.512 76.2695 413.852 74.623 414.531 73.1816C415.211 71.7402 416.184 70.6211 417.449 69.8242C418.727 69.0273 420.232 68.6289 421.967 68.6289C424.1 68.6289 425.869 69.2676 427.275 70.5449C428.693 71.8223 429.449 73.4805 429.543 75.5195H426.467C426.373 74.2891 425.904 73.2812 425.061 72.4961C424.229 71.6992 423.197 71.3008 421.967 71.3008C420.314 71.3008 419.031 71.8984 418.117 73.0938C417.215 74.2773 416.764 75.9941 416.764 78.2441V78.8594C416.764 81.0508 417.215 82.7383 418.117 83.9219C419.02 85.1055 420.309 85.6973 421.984 85.6973Z" fill="white"/>
<path d="M444.941 86.1191C443.676 87.6074 441.818 88.3516 439.369 88.3516C437.342 88.3516 435.795 87.7656 434.729 86.5938C433.674 85.4102 433.141 83.6641 433.129 81.3555V68.9805H436.381V81.2676C436.381 84.1504 437.553 85.5918 439.896 85.5918C442.381 85.5918 444.033 84.666 444.854 82.8145V68.9805H448.105V88H445.012L444.941 86.1191Z" fill="white"/>
<path d="M464.805 88C464.617 87.625 464.465 86.957 464.348 85.9961C462.836 87.5664 461.031 88.3516 458.934 88.3516C457.059 88.3516 455.518 87.8242 454.311 86.7695C453.115 85.7031 452.518 84.3555 452.518 82.7266C452.518 80.7461 453.268 79.2109 454.768 78.1211C456.279 77.0195 458.4 76.4688 461.131 76.4688H464.295V74.9746C464.295 73.8379 463.955 72.9355 463.275 72.2676C462.596 71.5879 461.594 71.248 460.27 71.248C459.109 71.248 458.137 71.541 457.352 72.127C456.566 72.7129 456.174 73.4219 456.174 74.2539H452.904C452.904 73.3047 453.238 72.3906 453.906 71.5117C454.586 70.6211 455.5 69.918 456.648 69.4023C457.809 68.8867 459.08 68.6289 460.463 68.6289C462.654 68.6289 464.371 69.1797 465.613 70.2812C466.855 71.3711 467.5 72.877 467.547 74.7988V83.5527C467.547 85.2988 467.77 86.6875 468.215 87.7188V88H464.805ZM459.408 85.5215C460.428 85.5215 461.395 85.2578 462.309 84.7305C463.223 84.2031 463.885 83.5176 464.295 82.6738V78.7715H461.746C457.762 78.7715 455.77 79.9375 455.77 82.2695C455.77 83.2891 456.109 84.0859 456.789 84.6602C457.469 85.2344 458.342 85.5215 459.408 85.5215ZM462.414 61H466.352L461.641 66.168H459.021L462.414 61Z" fill="white"/>
<path d="M475.721 68.9805L475.826 71.3711C477.279 69.543 479.178 68.6289 481.521 68.6289C485.541 68.6289 487.568 70.8965 487.604 75.4316V88H484.352V75.4141C484.34 74.043 484.023 73.0293 483.402 72.373C482.793 71.7168 481.838 71.3887 480.537 71.3887C479.482 71.3887 478.557 71.6699 477.76 72.2324C476.963 72.7949 476.342 73.5332 475.896 74.4473V88H472.645V68.9805H475.721Z" fill="white"/>
<path d="M496.92 64.375V68.9805H500.471V71.4941H496.92V83.2891C496.92 84.0508 497.078 84.625 497.395 85.0117C497.711 85.3867 498.25 85.5742 499.012 85.5742C499.387 85.5742 499.902 85.5039 500.559 85.3633V88C499.703 88.2344 498.871 88.3516 498.062 88.3516C496.609 88.3516 495.514 87.9121 494.775 87.0332C494.037 86.1543 493.668 84.9062 493.668 83.2891V71.4941H490.205V68.9805H493.668V64.375H496.92Z" fill="white"/>
<path d="M503.072 78.3145C503.072 76.4512 503.436 74.7754 504.162 73.2871C504.9 71.7988 505.92 70.6504 507.221 69.8418C508.533 69.0332 510.027 68.6289 511.703 68.6289C514.293 68.6289 516.385 69.5254 517.979 71.3184C519.584 73.1113 520.387 75.4961 520.387 78.4727V78.7012C520.387 80.5527 520.029 82.2168 519.314 83.6934C518.611 85.1582 517.598 86.3008 516.273 87.1211C514.961 87.9414 513.449 88.3516 511.738 88.3516C509.16 88.3516 507.068 87.4551 505.463 85.6621C503.869 83.8691 503.072 81.4961 503.072 78.543V78.3145ZM506.342 78.7012C506.342 80.8105 506.828 82.5039 507.801 83.7812C508.785 85.0586 510.098 85.6973 511.738 85.6973C513.391 85.6973 514.703 85.0527 515.676 83.7637C516.648 82.4629 517.135 80.6465 517.135 78.3145C517.135 76.2285 516.637 74.541 515.641 73.252C514.656 71.9512 513.344 71.3008 511.703 71.3008C510.098 71.3008 508.803 71.9395 507.818 73.2168C506.834 74.4941 506.342 76.3223 506.342 78.7012Z" fill="white"/>
<path d="M537.807 64.375V68.9805H541.357V71.4941H537.807V83.2891C537.807 84.0508 537.965 84.625 538.281 85.0117C538.598 85.3867 539.137 85.5742 539.898 85.5742C540.273 85.5742 540.789 85.5039 541.445 85.3633V88C540.59 88.2344 539.758 88.3516 538.949 88.3516C537.496 88.3516 536.4 87.9121 535.662 87.0332C534.924 86.1543 534.555 84.9062 534.555 83.2891V71.4941H531.092V68.9805H534.555V64.375H537.807Z" fill="white"/>
<path d="M548.705 88H545.453V68.9805H548.705V88ZM545.189 63.9355C545.189 63.4082 545.348 62.9629 545.664 62.5996C545.992 62.2363 546.473 62.0547 547.105 62.0547C547.738 62.0547 548.219 62.2363 548.547 62.5996C548.875 62.9629 549.039 63.4082 549.039 63.9355C549.039 64.4629 548.875 64.9023 548.547 65.2539C548.219 65.6055 547.738 65.7812 547.105 65.7812C546.473 65.7812 545.992 65.6055 545.664 65.2539C545.348 64.9023 545.189 64.4629 545.189 63.9355Z" fill="white"/>
<path d="M561.818 88.3516C559.24 88.3516 557.143 87.5078 555.525 85.8203C553.908 84.1211 553.1 81.8535 553.1 79.0176V78.4199C553.1 76.5332 553.457 74.8516 554.172 73.375C554.898 71.8867 555.906 70.7266 557.195 69.8945C558.496 69.0508 559.902 68.6289 561.414 68.6289C563.887 68.6289 565.809 69.4434 567.18 71.0723C568.551 72.7012 569.236 75.0332 569.236 78.0684V79.4219H556.352C556.398 81.2969 556.943 82.8145 557.986 83.9746C559.041 85.123 560.377 85.6973 561.994 85.6973C563.143 85.6973 564.115 85.4629 564.912 84.9941C565.709 84.5254 566.406 83.9043 567.004 83.1309L568.99 84.6777C567.396 87.127 565.006 88.3516 561.818 88.3516ZM561.414 71.3008C560.102 71.3008 559 71.7812 558.109 72.7422C557.219 73.6914 556.668 75.0273 556.457 76.75H565.984V76.5039C565.891 74.8516 565.445 73.5742 564.648 72.6719C563.852 71.7578 562.773 71.3008 561.414 71.3008Z" fill="white"/>
<path d="M576.074 68.9805L576.162 71.0898C577.557 69.4492 579.438 68.6289 581.805 68.6289C584.465 68.6289 586.275 69.6484 587.236 71.6875C587.869 70.7734 588.689 70.0352 589.697 69.4727C590.717 68.9102 591.918 68.6289 593.301 68.6289C597.473 68.6289 599.594 70.8379 599.664 75.2559V88H596.412V75.4492C596.412 74.0898 596.102 73.0762 595.48 72.4082C594.859 71.7285 593.816 71.3887 592.352 71.3887C591.145 71.3887 590.143 71.752 589.346 72.4785C588.549 73.1934 588.086 74.1602 587.957 75.3789V88H584.688V75.5371C584.688 72.7715 583.334 71.3887 580.627 71.3887C578.494 71.3887 577.035 72.2969 576.25 74.1133V88H572.998V68.9805H576.074Z" fill="white"/>
<path d="M620.652 78.7012C620.652 81.5957 619.99 83.9277 618.666 85.6973C617.342 87.4668 615.549 88.3516 613.287 88.3516C610.979 88.3516 609.162 87.6191 607.838 86.1543V95.3125H604.586V68.9805H607.557L607.715 71.0898C609.039 69.4492 610.879 68.6289 613.234 68.6289C615.52 68.6289 617.324 69.4902 618.648 71.2129C619.984 72.9355 620.652 75.332 620.652 78.4023V78.7012ZM617.4 78.332C617.4 76.1875 616.943 74.4941 616.029 73.252C615.115 72.0098 613.861 71.3887 612.268 71.3887C610.299 71.3887 608.822 72.2617 607.838 74.0078V83.0957C608.811 84.8301 610.299 85.6973 612.303 85.6973C613.861 85.6973 615.098 85.082 616.012 83.8516C616.938 82.6094 617.4 80.7695 617.4 78.332Z" fill="white"/>
<path d="M623.939 78.3145C623.939 76.4512 624.303 74.7754 625.029 73.2871C625.768 71.7988 626.787 70.6504 628.088 69.8418C629.4 69.0332 630.895 68.6289 632.57 68.6289C635.16 68.6289 637.252 69.5254 638.846 71.3184C640.451 73.1113 641.254 75.4961 641.254 78.4727V78.7012C641.254 80.5527 640.896 82.2168 640.182 83.6934C639.479 85.1582 638.465 86.3008 637.141 87.1211C635.828 87.9414 634.316 88.3516 632.605 88.3516C630.027 88.3516 627.936 87.4551 626.33 85.6621C624.736 83.8691 623.939 81.4961 623.939 78.543V78.3145ZM627.209 78.7012C627.209 80.8105 627.695 82.5039 628.668 83.7812C629.652 85.0586 630.965 85.6973 632.605 85.6973C634.258 85.6973 635.57 85.0527 636.543 83.7637C637.516 82.4629 638.002 80.6465 638.002 78.3145C638.002 76.2285 637.504 74.541 636.508 73.252C635.523 71.9512 634.211 71.3008 632.57 71.3008C630.965 71.3008 629.67 71.9395 628.686 73.2168C627.701 74.4941 627.209 76.3223 627.209 78.7012Z" fill="white"/>
<path d="M653.471 78.332C653.471 75.4141 654.162 73.0703 655.545 71.3008C656.928 69.5195 658.738 68.6289 660.977 68.6289C663.203 68.6289 664.967 69.3906 666.268 70.9141V61H669.52V88H666.531L666.373 85.9609C665.072 87.5547 663.262 88.3516 660.941 88.3516C658.738 88.3516 656.939 87.4492 655.545 85.6445C654.162 83.8398 653.471 81.4844 653.471 78.5781V78.332ZM656.723 78.7012C656.723 80.8574 657.168 82.5449 658.059 83.7637C658.949 84.9824 660.18 85.5918 661.75 85.5918C663.812 85.5918 665.318 84.666 666.268 82.8145V74.0781C665.295 72.2852 663.801 71.3887 661.785 71.3887C660.191 71.3887 658.949 72.0039 658.059 73.2344C657.168 74.4648 656.723 76.2871 656.723 78.7012Z" fill="white"/>
<path d="M682.475 88.3516C679.896 88.3516 677.799 87.5078 676.182 85.8203C674.564 84.1211 673.756 81.8535 673.756 79.0176V78.4199C673.756 76.5332 674.113 74.8516 674.828 73.375C675.555 71.8867 676.562 70.7266 677.852 69.8945C679.152 69.0508 680.559 68.6289 682.07 68.6289C684.543 68.6289 686.465 69.4434 687.836 71.0723C689.207 72.7012 689.893 75.0332 689.893 78.0684V79.4219H677.008C677.055 81.2969 677.6 82.8145 678.643 83.9746C679.697 85.123 681.033 85.6973 682.65 85.6973C683.799 85.6973 684.771 85.4629 685.568 84.9941C686.365 84.5254 687.062 83.9043 687.66 83.1309L689.646 84.6777C688.053 87.127 685.662 88.3516 682.475 88.3516ZM682.07 71.3008C680.758 71.3008 679.656 71.7812 678.766 72.7422C677.875 73.6914 677.324 75.0273 677.113 76.75H686.641V76.5039C686.547 74.8516 686.102 73.5742 685.305 72.6719C684.508 71.7578 683.43 71.3008 682.07 71.3008Z" fill="white"/>
<path d="M696.73 68.9805L696.818 71.0898C698.213 69.4492 700.094 68.6289 702.461 68.6289C705.121 68.6289 706.932 69.6484 707.893 71.6875C708.525 70.7734 709.346 70.0352 710.354 69.4727C711.373 68.9102 712.574 68.6289 713.957 68.6289C718.129 68.6289 720.25 70.8379 720.32 75.2559V88H717.068V75.4492C717.068 74.0898 716.758 73.0762 716.137 72.4082C715.516 71.7285 714.473 71.3887 713.008 71.3887C711.801 71.3887 710.799 71.752 710.002 72.4785C709.205 73.1934 708.742 74.1602 708.613 75.3789V88H705.344V75.5371C705.344 72.7715 703.99 71.3887 701.283 71.3887C699.15 71.3887 697.691 72.2969 696.906 74.1133V88H693.654V68.9805H696.73Z" fill="white"/>
<path d="M724.381 78.3145C724.381 76.4512 724.744 74.7754 725.471 73.2871C726.209 71.7988 727.229 70.6504 728.529 69.8418C729.842 69.0332 731.336 68.6289 733.012 68.6289C735.602 68.6289 737.693 69.5254 739.287 71.3184C740.893 73.1113 741.695 75.4961 741.695 78.4727V78.7012C741.695 80.5527 741.338 82.2168 740.623 83.6934C739.92 85.1582 738.906 86.3008 737.582 87.1211C736.27 87.9414 734.758 88.3516 733.047 88.3516C730.469 88.3516 728.377 87.4551 726.771 85.6621C725.178 83.8691 724.381 81.4961 724.381 78.543V78.3145ZM727.65 78.7012C727.65 80.8105 728.137 82.5039 729.109 83.7812C730.094 85.0586 731.406 85.6973 733.047 85.6973C734.699 85.6973 736.012 85.0527 736.984 83.7637C737.957 82.4629 738.443 80.6465 738.443 78.3145C738.443 76.2285 737.945 74.541 736.949 73.252C735.965 71.9512 734.652 71.3008 733.012 71.3008C731.406 71.3008 730.111 71.9395 729.127 73.2168C728.143 74.4941 727.65 76.3223 727.65 78.7012Z" fill="white"/>
<path d="M754.967 71.8984C754.475 71.8164 753.941 71.7754 753.367 71.7754C751.234 71.7754 749.787 72.6836 749.025 74.5V88H745.773V68.9805H748.938L748.99 71.1777C750.057 69.4785 751.568 68.6289 753.525 68.6289C754.158 68.6289 754.639 68.7109 754.967 68.875V71.8984Z" fill="white"/>
<path d="M769.012 88C768.824 87.625 768.672 86.957 768.555 85.9961C767.043 87.5664 765.238 88.3516 763.141 88.3516C761.266 88.3516 759.725 87.8242 758.518 86.7695C757.322 85.7031 756.725 84.3555 756.725 82.7266C756.725 80.7461 757.475 79.2109 758.975 78.1211C760.486 77.0195 762.607 76.4688 765.338 76.4688H768.502V74.9746C768.502 73.8379 768.162 72.9355 767.482 72.2676C766.803 71.5879 765.801 71.248 764.477 71.248C763.316 71.248 762.344 71.541 761.559 72.127C760.773 72.7129 760.381 73.4219 760.381 74.2539H757.111C757.111 73.3047 757.445 72.3906 758.113 71.5117C758.793 70.6211 759.707 69.918 760.855 69.4023C762.016 68.8867 763.287 68.6289 764.67 68.6289C766.861 68.6289 768.578 69.1797 769.82 70.2812C771.062 71.3711 771.707 72.877 771.754 74.7988V83.5527C771.754 85.2988 771.977 86.6875 772.422 87.7188V88H769.012ZM763.615 85.5215C764.635 85.5215 765.602 85.2578 766.516 84.7305C767.43 84.2031 768.092 83.5176 768.502 82.6738V78.7715H765.953C761.969 78.7715 759.977 79.9375 759.977 82.2695C759.977 83.2891 760.316 84.0859 760.996 84.6602C761.676 85.2344 762.549 85.5215 763.615 85.5215Z" fill="white"/>
<path d="M786.045 71.8984C785.553 71.8164 785.02 71.7754 784.445 71.7754C782.312 71.7754 780.865 72.6836 780.104 74.5V88H776.852V68.9805H780.016L780.068 71.1777C781.135 69.4785 782.646 68.6289 784.604 68.6289C785.236 68.6289 785.717 68.7109 786.045 68.875V71.8984Z" fill="white"/>
<path d="M800.09 88C799.902 87.625 799.75 86.957 799.633 85.9961C798.121 87.5664 796.316 88.3516 794.219 88.3516C792.344 88.3516 790.803 87.8242 789.596 86.7695C788.4 85.7031 787.803 84.3555 787.803 82.7266C787.803 80.7461 788.553 79.2109 790.053 78.1211C791.564 77.0195 793.686 76.4688 796.416 76.4688H799.58V74.9746C799.58 73.8379 799.24 72.9355 798.561 72.2676C797.881 71.5879 796.879 71.248 795.555 71.248C794.395 71.248 793.422 71.541 792.637 72.127C791.852 72.7129 791.459 73.4219 791.459 74.2539H788.189C788.189 73.3047 788.523 72.3906 789.191 71.5117C789.871 70.6211 790.785 69.918 791.934 69.4023C793.094 68.8867 794.365 68.6289 795.748 68.6289C797.939 68.6289 799.656 69.1797 800.898 70.2812C802.141 71.3711 802.785 72.877 802.832 74.7988V83.5527C802.832 85.2988 803.055 86.6875 803.5 87.7188V88H800.09ZM794.693 85.5215C795.713 85.5215 796.68 85.2578 797.594 84.7305C798.508 84.2031 799.17 83.5176 799.58 82.6738V78.7715H797.031C793.047 78.7715 791.055 79.9375 791.055 82.2695C791.055 83.2891 791.395 84.0859 792.074 84.6602C792.754 85.2344 793.627 85.5215 794.693 85.5215ZM797.699 61H801.637L796.926 66.168H794.307L797.699 61Z" fill="white"/>
<path d="M824.752 88.3516C822.174 88.3516 820.076 87.5078 818.459 85.8203C816.842 84.1211 816.033 81.8535 816.033 79.0176V78.4199C816.033 76.5332 816.391 74.8516 817.105 73.375C817.832 71.8867 818.84 70.7266 820.129 69.8945C821.43 69.0508 822.836 68.6289 824.348 68.6289C826.82 68.6289 828.742 69.4434 830.113 71.0723C831.484 72.7012 832.17 75.0332 832.17 78.0684V79.4219H819.285C819.332 81.2969 819.877 82.8145 820.92 83.9746C821.975 85.123 823.311 85.6973 824.928 85.6973C826.076 85.6973 827.049 85.4629 827.846 84.9941C828.643 84.5254 829.34 83.9043 829.938 83.1309L831.924 84.6777C830.33 87.127 827.939 88.3516 824.752 88.3516ZM824.348 71.3008C823.035 71.3008 821.934 71.7812 821.043 72.7422C820.152 73.6914 819.602 75.0273 819.391 76.75H828.918V76.5039C828.824 74.8516 828.379 73.5742 827.582 72.6719C826.785 71.7578 825.707 71.3008 824.348 71.3008Z" fill="white"/>
<path d="M839.025 68.9805L839.131 71.3711C840.584 69.543 842.482 68.6289 844.826 68.6289C848.846 68.6289 850.873 70.8965 850.908 75.4316V88H847.656V75.4141C847.645 74.043 847.328 73.0293 846.707 72.373C846.098 71.7168 845.143 71.3887 843.842 71.3887C842.787 71.3887 841.861 71.6699 841.064 72.2324C840.268 72.7949 839.646 73.5332 839.201 74.4473V88H835.949V68.9805H839.025Z" fill="white"/>
<path d="M143.67 118.332C143.67 115.414 144.361 113.07 145.744 111.301C147.127 109.52 148.938 108.629 151.176 108.629C153.402 108.629 155.166 109.391 156.467 110.914V101H159.719V128H156.73L156.572 125.961C155.271 127.555 153.461 128.352 151.141 128.352C148.938 128.352 147.139 127.449 145.744 125.645C144.361 123.84 143.67 121.484 143.67 118.578V118.332ZM146.922 118.701C146.922 120.857 147.367 122.545 148.258 123.764C149.148 124.982 150.379 125.592 151.949 125.592C154.012 125.592 155.518 124.666 156.467 122.814V114.078C155.494 112.285 154 111.389 151.984 111.389C150.391 111.389 149.148 112.004 148.258 113.234C147.367 114.465 146.922 116.287 146.922 118.701Z" fill="white"/>
<path d="M176.523 128C176.336 127.625 176.184 126.957 176.066 125.996C174.555 127.566 172.75 128.352 170.652 128.352C168.777 128.352 167.236 127.824 166.029 126.77C164.834 125.703 164.236 124.355 164.236 122.727C164.236 120.746 164.986 119.211 166.486 118.121C167.998 117.02 170.119 116.469 172.85 116.469H176.014V114.975C176.014 113.838 175.674 112.936 174.994 112.268C174.314 111.588 173.312 111.248 171.988 111.248C170.828 111.248 169.855 111.541 169.07 112.127C168.285 112.713 167.893 113.422 167.893 114.254H164.623C164.623 113.305 164.957 112.391 165.625 111.512C166.305 110.621 167.219 109.918 168.367 109.402C169.527 108.887 170.799 108.629 172.182 108.629C174.373 108.629 176.09 109.18 177.332 110.281C178.574 111.371 179.219 112.877 179.266 114.799V123.553C179.266 125.299 179.488 126.688 179.934 127.719V128H176.523ZM171.127 125.521C172.146 125.521 173.113 125.258 174.027 124.73C174.941 124.203 175.604 123.518 176.014 122.674V118.771H173.465C169.48 118.771 167.488 119.938 167.488 122.27C167.488 123.289 167.828 124.086 168.508 124.66C169.188 125.234 170.061 125.521 171.127 125.521Z" fill="white"/>
<path d="M193.557 111.898C193.064 111.816 192.531 111.775 191.957 111.775C189.824 111.775 188.377 112.684 187.615 114.5V128H184.363V108.98H187.527L187.58 111.178C188.646 109.479 190.158 108.629 192.115 108.629C192.748 108.629 193.229 108.711 193.557 108.875V111.898Z" fill="white"/>
<path d="M220.68 109.086C220.68 110.363 220.34 111.5 219.66 112.496C218.992 113.492 218.084 114.271 216.936 114.834C218.271 115.408 219.326 116.246 220.1 117.348C220.885 118.449 221.277 119.697 221.277 121.092C221.277 123.307 220.527 125.07 219.027 126.383C217.539 127.695 215.576 128.352 213.139 128.352C210.678 128.352 208.703 127.695 207.215 126.383C205.738 125.059 205 123.295 205 121.092C205 119.709 205.375 118.461 206.125 117.348C206.887 116.234 207.936 115.391 209.271 114.816C208.135 114.254 207.238 113.475 206.582 112.479C205.926 111.482 205.598 110.352 205.598 109.086C205.598 106.93 206.289 105.219 207.672 103.953C209.055 102.688 210.877 102.055 213.139 102.055C215.389 102.055 217.205 102.688 218.588 103.953C219.982 105.219 220.68 106.93 220.68 109.086ZM218.025 121.021C218.025 119.592 217.568 118.426 216.654 117.523C215.752 116.621 214.568 116.17 213.104 116.17C211.639 116.17 210.461 116.615 209.57 117.506C208.691 118.396 208.252 119.568 208.252 121.021C208.252 122.475 208.68 123.617 209.535 124.449C210.402 125.281 211.604 125.697 213.139 125.697C214.662 125.697 215.857 125.281 216.725 124.449C217.592 123.605 218.025 122.463 218.025 121.021ZM213.139 104.727C211.861 104.727 210.824 105.125 210.027 105.922C209.242 106.707 208.85 107.779 208.85 109.139C208.85 110.439 209.236 111.494 210.01 112.303C210.795 113.1 211.838 113.498 213.139 113.498C214.439 113.498 215.477 113.1 216.25 112.303C217.035 111.494 217.428 110.439 217.428 109.139C217.428 107.838 217.023 106.777 216.215 105.957C215.406 105.137 214.381 104.727 213.139 104.727Z" fill="white"/>
<path d="M242.266 125.697C243.426 125.697 244.439 125.346 245.307 124.643C246.174 123.939 246.654 123.061 246.748 122.006H249.824C249.766 123.096 249.391 124.133 248.699 125.117C248.008 126.102 247.082 126.887 245.922 127.473C244.773 128.059 243.555 128.352 242.266 128.352C239.676 128.352 237.613 127.49 236.078 125.768C234.555 124.033 233.793 121.666 233.793 118.666V118.121C233.793 116.27 234.133 114.623 234.812 113.182C235.492 111.74 236.465 110.621 237.73 109.824C239.008 109.027 240.514 108.629 242.248 108.629C244.381 108.629 246.15 109.268 247.557 110.545C248.975 111.822 249.73 113.48 249.824 115.52H246.748C246.654 114.289 246.186 113.281 245.342 112.496C244.51 111.699 243.479 111.301 242.248 111.301C240.596 111.301 239.312 111.898 238.398 113.094C237.496 114.277 237.045 115.994 237.045 118.244V118.859C237.045 121.051 237.496 122.738 238.398 123.922C239.301 125.105 240.59 125.697 242.266 125.697Z" fill="white"/>
<path d="M265.223 128C265.035 127.625 264.883 126.957 264.766 125.996C263.254 127.566 261.449 128.352 259.352 128.352C257.477 128.352 255.936 127.824 254.729 126.77C253.533 125.703 252.936 124.355 252.936 122.727C252.936 120.746 253.686 119.211 255.186 118.121C256.697 117.02 258.818 116.469 261.549 116.469H264.713V114.975C264.713 113.838 264.373 112.936 263.693 112.268C263.014 111.588 262.012 111.248 260.688 111.248C259.527 111.248 258.555 111.541 257.77 112.127C256.984 112.713 256.592 113.422 256.592 114.254H253.322C253.322 113.305 253.656 112.391 254.324 111.512C255.004 110.621 255.918 109.918 257.066 109.402C258.227 108.887 259.498 108.629 260.881 108.629C263.072 108.629 264.789 109.18 266.031 110.281C267.273 111.371 267.918 112.877 267.965 114.799V123.553C267.965 125.299 268.188 126.688 268.633 127.719V128H265.223ZM259.826 125.521C260.846 125.521 261.812 125.258 262.727 124.73C263.641 124.203 264.303 123.518 264.713 122.674V118.771H262.164C258.18 118.771 256.188 119.938 256.188 122.27C256.188 123.289 256.527 124.086 257.207 124.66C257.887 125.234 258.76 125.521 259.826 125.521Z" fill="white"/>
<path d="M276.121 108.98L276.209 111.09C277.604 109.449 279.484 108.629 281.852 108.629C284.512 108.629 286.322 109.648 287.283 111.688C287.916 110.773 288.736 110.035 289.744 109.473C290.764 108.91 291.965 108.629 293.348 108.629C297.52 108.629 299.641 110.838 299.711 115.256V128H296.459V115.449C296.459 114.09 296.148 113.076 295.527 112.408C294.906 111.729 293.863 111.389 292.398 111.389C291.191 111.389 290.189 111.752 289.393 112.479C288.596 113.193 288.133 114.16 288.004 115.379V128H284.734V115.537C284.734 112.771 283.381 111.389 280.674 111.389C278.541 111.389 277.082 112.297 276.297 114.113V128H273.045V108.98H276.121Z" fill="white"/>
<path d="M320.699 118.701C320.699 121.596 320.037 123.928 318.713 125.697C317.389 127.467 315.596 128.352 313.334 128.352C311.025 128.352 309.209 127.619 307.885 126.154V135.312H304.633V108.98H307.604L307.762 111.09C309.086 109.449 310.926 108.629 313.281 108.629C315.566 108.629 317.371 109.49 318.695 111.213C320.031 112.936 320.699 115.332 320.699 118.402V118.701ZM317.447 118.332C317.447 116.188 316.99 114.494 316.076 113.252C315.162 112.01 313.908 111.389 312.314 111.389C310.346 111.389 308.869 112.262 307.885 114.008V123.096C308.857 124.83 310.346 125.697 312.35 125.697C313.908 125.697 315.145 125.082 316.059 123.852C316.984 122.609 317.447 120.77 317.447 118.332Z" fill="white"/>
<path d="M336.59 128C336.402 127.625 336.25 126.957 336.133 125.996C334.621 127.566 332.816 128.352 330.719 128.352C328.844 128.352 327.303 127.824 326.096 126.77C324.9 125.703 324.303 124.355 324.303 122.727C324.303 120.746 325.053 119.211 326.553 118.121C328.064 117.02 330.186 116.469 332.916 116.469H336.08V114.975C336.08 113.838 335.74 112.936 335.061 112.268C334.381 111.588 333.379 111.248 332.055 111.248C330.895 111.248 329.922 111.541 329.137 112.127C328.352 112.713 327.959 113.422 327.959 114.254H324.689C324.689 113.305 325.023 112.391 325.691 111.512C326.371 110.621 327.285 109.918 328.434 109.402C329.594 108.887 330.865 108.629 332.248 108.629C334.439 108.629 336.156 109.18 337.398 110.281C338.641 111.371 339.285 112.877 339.332 114.799V123.553C339.332 125.299 339.555 126.688 340 127.719V128H336.59ZM331.193 125.521C332.213 125.521 333.18 125.258 334.094 124.73C335.008 124.203 335.67 123.518 336.08 122.674V118.771H333.531C329.547 118.771 327.555 119.938 327.555 122.27C327.555 123.289 327.895 124.086 328.574 124.66C329.254 125.234 330.127 125.521 331.193 125.521Z" fill="white"/>
<path d="M347.506 108.98L347.611 111.371C349.064 109.543 350.963 108.629 353.307 108.629C357.326 108.629 359.354 110.896 359.389 115.432V128H356.137V115.414C356.125 114.043 355.809 113.029 355.188 112.373C354.578 111.717 353.623 111.389 352.322 111.389C351.268 111.389 350.342 111.67 349.545 112.232C348.748 112.795 348.127 113.533 347.682 114.447V128H344.43V108.98H347.506Z" fill="white"/>
<path d="M376.035 128C375.848 127.625 375.695 126.957 375.578 125.996C374.066 127.566 372.262 128.352 370.164 128.352C368.289 128.352 366.748 127.824 365.541 126.77C364.346 125.703 363.748 124.355 363.748 122.727C363.748 120.746 364.498 119.211 365.998 118.121C367.51 117.02 369.631 116.469 372.361 116.469H375.525V114.975C375.525 113.838 375.186 112.936 374.506 112.268C373.826 111.588 372.824 111.248 371.5 111.248C370.34 111.248 369.367 111.541 368.582 112.127C367.797 112.713 367.404 113.422 367.404 114.254H364.135C364.135 113.305 364.469 112.391 365.137 111.512C365.816 110.621 366.73 109.918 367.879 109.402C369.039 108.887 370.311 108.629 371.693 108.629C373.885 108.629 375.602 109.18 376.844 110.281C378.086 111.371 378.73 112.877 378.777 114.799V123.553C378.777 125.299 379 126.688 379.445 127.719V128H376.035ZM370.639 125.521C371.658 125.521 372.625 125.258 373.539 124.73C374.453 124.203 375.115 123.518 375.525 122.674V118.771H372.977C368.992 118.771 367 119.938 367 122.27C367 123.289 367.34 124.086 368.02 124.66C368.699 125.234 369.572 125.521 370.639 125.521Z" fill="white"/>
<path d="M383.084 118.332C383.084 115.414 383.775 113.07 385.158 111.301C386.541 109.52 388.352 108.629 390.59 108.629C392.816 108.629 394.58 109.391 395.881 110.914V101H399.133V128H396.145L395.986 125.961C394.686 127.555 392.875 128.352 390.555 128.352C388.352 128.352 386.553 127.449 385.158 125.645C383.775 123.84 383.084 121.484 383.084 118.578V118.332ZM386.336 118.701C386.336 120.857 386.781 122.545 387.672 123.764C388.562 124.982 389.793 125.592 391.363 125.592C393.426 125.592 394.932 124.666 395.881 122.814V114.078C394.908 112.285 393.414 111.389 391.398 111.389C389.805 111.389 388.562 112.004 387.672 113.234C386.781 114.465 386.336 116.287 386.336 118.701Z" fill="white"/>
<path d="M415.938 128C415.75 127.625 415.598 126.957 415.48 125.996C413.969 127.566 412.164 128.352 410.066 128.352C408.191 128.352 406.65 127.824 405.443 126.77C404.248 125.703 403.65 124.355 403.65 122.727C403.65 120.746 404.4 119.211 405.9 118.121C407.412 117.02 409.533 116.469 412.264 116.469H415.428V114.975C415.428 113.838 415.088 112.936 414.408 112.268C413.729 111.588 412.727 111.248 411.402 111.248C410.242 111.248 409.27 111.541 408.484 112.127C407.699 112.713 407.307 113.422 407.307 114.254H404.037C404.037 113.305 404.371 112.391 405.039 111.512C405.719 110.621 406.633 109.918 407.781 109.402C408.941 108.887 410.213 108.629 411.596 108.629C413.787 108.629 415.504 109.18 416.746 110.281C417.988 111.371 418.633 112.877 418.68 114.799V123.553C418.68 125.299 418.902 126.688 419.348 127.719V128H415.938ZM410.541 125.521C411.561 125.521 412.527 125.258 413.441 124.73C414.355 124.203 415.018 123.518 415.428 122.674V118.771H412.879C408.895 118.771 406.902 119.938 406.902 122.27C406.902 123.289 407.242 124.086 407.922 124.66C408.602 125.234 409.475 125.521 410.541 125.521Z" fill="white"/>
<path d="M434.852 122.955C434.852 122.076 434.518 121.396 433.85 120.916C433.193 120.424 432.039 120.002 430.387 119.65C428.746 119.299 427.439 118.877 426.467 118.385C425.506 117.893 424.791 117.307 424.322 116.627C423.865 115.947 423.637 115.139 423.637 114.201C423.637 112.643 424.293 111.324 425.605 110.246C426.93 109.168 428.617 108.629 430.668 108.629C432.824 108.629 434.57 109.186 435.906 110.299C437.254 111.412 437.928 112.836 437.928 114.57H434.658C434.658 113.68 434.277 112.912 433.516 112.268C432.766 111.623 431.816 111.301 430.668 111.301C429.484 111.301 428.559 111.559 427.891 112.074C427.223 112.59 426.889 113.264 426.889 114.096C426.889 114.881 427.199 115.473 427.82 115.871C428.441 116.27 429.561 116.65 431.178 117.014C432.807 117.377 434.125 117.811 435.133 118.314C436.141 118.818 436.885 119.428 437.365 120.143C437.857 120.846 438.104 121.707 438.104 122.727C438.104 124.426 437.424 125.791 436.064 126.822C434.705 127.842 432.941 128.352 430.773 128.352C429.25 128.352 427.902 128.082 426.73 127.543C425.559 127.004 424.639 126.254 423.971 125.293C423.314 124.32 422.986 123.271 422.986 122.146H426.238C426.297 123.236 426.73 124.104 427.539 124.748C428.359 125.381 429.438 125.697 430.773 125.697C432.004 125.697 432.988 125.451 433.727 124.959C434.477 124.455 434.852 123.787 434.852 122.955Z" fill="white"/>
<path d="M446.154 120.793C446.178 119.398 446.336 118.297 446.629 117.488C446.922 116.68 447.52 115.783 448.422 114.799L450.725 112.426C451.709 111.312 452.201 110.117 452.201 108.84C452.201 107.609 451.879 106.648 451.234 105.957C450.59 105.254 449.652 104.902 448.422 104.902C447.227 104.902 446.266 105.219 445.539 105.852C444.812 106.484 444.449 107.334 444.449 108.4H441.197C441.221 106.502 441.895 104.973 443.219 103.812C444.555 102.641 446.289 102.055 448.422 102.055C450.637 102.055 452.359 102.652 453.59 103.848C454.832 105.031 455.453 106.66 455.453 108.734C455.453 110.785 454.504 112.807 452.605 114.799L450.689 116.697C449.834 117.646 449.406 119.012 449.406 120.793H446.154ZM446.014 126.365C446.014 125.838 446.172 125.398 446.488 125.047C446.816 124.684 447.297 124.502 447.93 124.502C448.562 124.502 449.043 124.684 449.371 125.047C449.699 125.398 449.863 125.838 449.863 126.365C449.863 126.893 449.699 127.332 449.371 127.684C449.043 128.023 448.562 128.193 447.93 128.193C447.297 128.193 446.816 128.023 446.488 127.684C446.172 127.332 446.014 126.893 446.014 126.365Z" fill="white"/>
</g>
</g>
</g>
</svg>
