<svg viewBox="0 0 1076 148" fill="none" xmlns="http://www.w3.org/2000/svg"><g id="121002A"><path d="M0 0h1080v148H0z" transform="translate(-4)" fill="#02071a"/><g id="title"><g id="Intervalos de tiempo y campanadas"><path d="M125.5 87H121V52.875h4.5V87z" fill="#fa5712"/><path d="M137.172 61.6406 137.312 64.8281C139.25 62.3906 141.781 61.1719 144.906 61.1719 150.266 61.1719 152.969 64.1953 153.016 70.2422V87H148.68V70.2188C148.664 68.3906 148.242 67.0391 147.414 66.1641 146.602 65.2891 145.328 64.8516 143.594 64.8516 142.188 64.8516 140.953 65.2266 139.891 65.9766 138.828 66.7266 138 67.7109 137.406 68.9297V87H133.07V61.6406H137.172z" fill="#fa5712"/><path d="M165.438 55.5V61.6406H170.172V64.9922H165.438V80.7188C165.438 81.7344 165.648 82.5 166.07 83.0156 166.492 83.5156 167.211 83.7656 168.227 83.7656 168.727 83.7656 169.414 83.6719 170.289 83.4844V87C169.148 87.3125 168.039 87.4688 166.961 87.4688 165.023 87.4688 163.562 86.8828 162.578 85.7109 161.594 84.5391 161.102 82.875 161.102 80.7188V64.9922H156.484V61.6406H161.102V55.5H165.438z" fill="#fa5712"/><path d="M185.781 87.4688C182.344 87.4688 179.547 86.3438 177.391 84.0938 175.234 81.8281 174.156 78.8047 174.156 75.0234V74.2266C174.156 71.7109 174.633 69.4688 175.586 67.5 176.555 65.5156 177.898 63.9688 179.617 62.8594 181.352 61.7344 183.227 61.1719 185.242 61.1719 188.539 61.1719 191.102 62.2578 192.93 64.4297 194.758 66.6016 195.672 69.7109 195.672 73.7578V75.5625H178.492C178.555 78.0625 179.281 80.0859 180.672 81.6328 182.078 83.1641 183.859 83.9297 186.016 83.9297 187.547 83.9297 188.844 83.6172 189.906 82.9922 190.969 82.3672 191.898 81.5391 192.695 80.5078L195.344 82.5703C193.219 85.8359 190.031 87.4688 185.781 87.4688zM185.242 64.7344C183.492 64.7344 182.023 65.375 180.836 66.6562 179.648 67.9219 178.914 69.7031 178.633 72H191.336V71.6719C191.211 69.4688 190.617 67.7656 189.555 66.5625 188.492 65.3438 187.055 64.7344 185.242 64.7344z" fill="#fa5712"/><path d="M212.969 65.5312C212.312 65.4219 211.602 65.3672 210.836 65.3672 207.992 65.3672 206.062 66.5781 205.047 69V87H200.711V61.6406H204.93L205 64.5703C206.422 62.3047 208.438 61.1719 211.047 61.1719 211.891 61.1719 212.531 61.2812 212.969 61.5V65.5312z" fill="#fa5712"/><path d="M225.766 81.1172 232.047 61.6406H236.477L227.383 87H224.078L214.891 61.6406H219.32L225.766 81.1172z" fill="#fa5712"/><path d="M255.93 87C255.68 86.5 255.477 85.6094 255.32 84.3281 253.305 86.4219 250.898 87.4688 248.102 87.4688 245.602 87.4688 243.547 86.7656 241.938 85.3594 240.344 83.9375 239.547 82.1406 239.547 79.9688 239.547 77.3281 240.547 75.2812 242.547 73.8281 244.562 72.3594 247.391 71.625 251.031 71.625H255.25V69.6328C255.25 68.1172 254.797 66.9141 253.891 66.0234 252.984 65.1172 251.648 64.6641 249.883 64.6641 248.336 64.6641 247.039 65.0547 245.992 65.8359 244.945 66.6172 244.422 67.5625 244.422 68.6719H240.062C240.062 67.4062 240.508 66.1875 241.398 65.0156 242.305 63.8281 243.523 62.8906 245.055 62.2031 246.602 61.5156 248.297 61.1719 250.141 61.1719 253.062 61.1719 255.352 61.9062 257.008 63.375 258.664 64.8281 259.523 66.8359 259.586 69.3984V81.0703C259.586 83.3984 259.883 85.25 260.477 86.625V87H255.93zM248.734 83.6953C250.094 83.6953 251.383 83.3438 252.602 82.6406 253.82 81.9375 254.703 81.0234 255.25 79.8984V74.6953H251.852C246.539 74.6953 243.883 76.25 243.883 79.3594 243.883 80.7188 244.336 81.7812 245.242 82.5469 246.148 83.3125 247.312 83.6953 248.734 83.6953z" fill="#fa5712"/><path d="M271.094 87H266.758V51H271.094V87z" fill="#fa5712"/><path d="M276.906 74.0859C276.906 71.6016 277.391 69.3672 278.359 67.3828 279.344 65.3984 280.703 63.8672 282.438 62.7891 284.188 61.7109 286.18 61.1719 288.414 61.1719 291.867 61.1719 294.656 62.3672 296.781 64.7578 298.922 67.1484 299.992 70.3281 299.992 74.2969V74.6016C299.992 77.0703 299.516 79.2891 298.562 81.2578 297.625 83.2109 296.273 84.7344 294.508 85.8281 292.758 86.9219 290.742 87.4688 288.461 87.4688 285.023 87.4688 282.234 86.2734 280.094 83.8828 277.969 81.4922 276.906 78.3281 276.906 74.3906V74.0859zM281.266 74.6016C281.266 77.4141 281.914 79.6719 283.211 81.375 284.523 83.0781 286.273 83.9297 288.461 83.9297 290.664 83.9297 292.414 83.0703 293.711 81.3516 295.008 79.6172 295.656 77.1953 295.656 74.0859 295.656 71.3047 294.992 69.0547 293.664 67.3359 292.352 65.6016 290.602 64.7344 288.414 64.7344 286.273 64.7344 284.547 65.5859 283.234 67.2891 281.922 68.9922 281.266 71.4297 281.266 74.6016z" fill="#fa5712"/><path d="M320.195 80.2734C320.195 79.1016 319.75 78.1953 318.859 77.5547 317.984 76.8984 316.445 76.3359 314.242 75.8672 312.055 75.3984 310.312 74.8359 309.016 74.1797 307.734 73.5234 306.781 72.7422 306.156 71.8359 305.547 70.9297 305.242 69.8516 305.242 68.6016 305.242 66.5234 306.117 64.7656 307.867 63.3281 309.633 61.8906 311.883 61.1719 314.617 61.1719 317.492 61.1719 319.82 61.9141 321.602 63.3984 323.398 64.8828 324.297 66.7812 324.297 69.0938H319.938C319.938 67.9062 319.43 66.8828 318.414 66.0234 317.414 65.1641 316.148 64.7344 314.617 64.7344 313.039 64.7344 311.805 65.0781 310.914 65.7656 310.023 66.4531 309.578 67.3516 309.578 68.4609 309.578 69.5078 309.992 70.2969 310.82 70.8281 311.648 71.3594 313.141 71.8672 315.297 72.3516 317.469 72.8359 319.227 73.4141 320.57 74.0859 321.914 74.7578 322.906 75.5703 323.547 76.5234 324.203 77.4609 324.531 78.6094 324.531 79.9688 324.531 82.2344 323.625 84.0547 321.812 85.4297 320 86.7891 317.648 87.4688 314.758 87.4688 312.727 87.4688 310.93 87.1094 309.367 86.3906 307.805 85.6719 306.578 84.6719 305.688 83.3906 304.812 82.0938 304.375 80.6953 304.375 79.1953H308.711C308.789 80.6484 309.367 81.8047 310.445 82.6641 311.539 83.5078 312.977 83.9297 314.758 83.9297 316.398 83.9297 317.711 83.6016 318.695 82.9453 319.695 82.2734 320.195 81.3828 320.195 80.2734z" fill="#fa5712"/><path d="M341.031 74.1094C341.031 70.2188 341.953 67.0938 343.797 64.7344 345.641 62.3594 348.055 61.1719 351.039 61.1719 354.008 61.1719 356.359 62.1875 358.094 64.2188V51H362.43V87H358.445L358.234 84.2812C356.5 86.4062 354.086 87.4688 350.992 87.4688 348.055 87.4688 345.656 86.2656 343.797 83.8594 341.953 81.4531 341.031 78.3125 341.031 74.4375V74.1094zM345.367 74.6016C345.367 77.4766 345.961 79.7266 347.148 81.3516 348.336 82.9766 349.977 83.7891 352.07 83.7891 354.82 83.7891 356.828 82.5547 358.094 80.0859V68.4375C356.797 66.0469 354.805 64.8516 352.117 64.8516 349.992 64.8516 348.336 65.6719 347.148 67.3125 345.961 68.9531 345.367 71.3828 345.367 74.6016z" fill="#fa5712"/><path d="M379.703 87.4688C376.266 87.4688 373.469 86.3438 371.312 84.0938 369.156 81.8281 368.078 78.8047 368.078 75.0234V74.2266C368.078 71.7109 368.555 69.4688 369.508 67.5 370.477 65.5156 371.82 63.9688 373.539 62.8594 375.273 61.7344 377.148 61.1719 379.164 61.1719 382.461 61.1719 385.023 62.2578 386.852 64.4297 388.68 66.6016 389.594 69.7109 389.594 73.7578V75.5625H372.414C372.477 78.0625 373.203 80.0859 374.594 81.6328 376 83.1641 377.781 83.9297 379.938 83.9297 381.469 83.9297 382.766 83.6172 383.828 82.9922 384.891 82.3672 385.82 81.5391 386.617 80.5078L389.266 82.5703C387.141 85.8359 383.953 87.4688 379.703 87.4688zM379.164 64.7344C377.414 64.7344 375.945 65.375 374.758 66.6562 373.57 67.9219 372.836 69.7031 372.555 72H385.258V71.6719C385.133 69.4688 384.539 67.7656 383.477 66.5625 382.414 65.3438 380.977 64.7344 379.164 64.7344z" fill="#fa5712"/><path d="M412.422 55.5V61.6406H417.156V64.9922H412.422V80.7188C412.422 81.7344 412.633 82.5 413.055 83.0156 413.477 83.5156 414.195 83.7656 415.211 83.7656 415.711 83.7656 416.398 83.6719 417.273 83.4844V87C416.133 87.3125 415.023 87.4688 413.945 87.4688 412.008 87.4688 410.547 86.8828 409.562 85.7109 408.578 84.5391 408.086 82.875 408.086 80.7188V64.9922H403.469V61.6406H408.086V55.5H412.422z" fill="#fa5712"/><path d="M426.953 87H422.617V61.6406H426.953V87zM422.266 54.9141C422.266 54.2109 422.477 53.6172 422.898 53.1328 423.336 52.6484 423.977 52.4062 424.82 52.4062 425.664 52.4062 426.305 52.6484 426.742 53.1328 427.18 53.6172 427.398 54.2109 427.398 54.9141 427.398 55.6172 427.18 56.2031 426.742 56.6719 426.305 57.1406 425.664 57.375 424.82 57.375 423.977 57.375 423.336 57.1406 422.898 56.6719 422.477 56.2031 422.266 55.6172 422.266 54.9141z" fill="#fa5712"/><path d="M444.438 87.4688C441 87.4688 438.203 86.3438 436.047 84.0938 433.891 81.8281 432.812 78.8047 432.812 75.0234V74.2266C432.812 71.7109 433.289 69.4688 434.242 67.5 435.211 65.5156 436.555 63.9688 438.273 62.8594 440.008 61.7344 441.883 61.1719 443.898 61.1719 447.195 61.1719 449.758 62.2578 451.586 64.4297 453.414 66.6016 454.328 69.7109 454.328 73.7578V75.5625H437.148C437.211 78.0625 437.938 80.0859 439.328 81.6328 440.734 83.1641 442.516 83.9297 444.672 83.9297 446.203 83.9297 447.5 83.6172 448.562 82.9922 449.625 82.3672 450.555 81.5391 451.352 80.5078L454 82.5703C451.875 85.8359 448.688 87.4688 444.438 87.4688zM443.898 64.7344C442.148 64.7344 440.68 65.375 439.492 66.6562 438.305 67.9219 437.57 69.7031 437.289 72H449.992V71.6719C449.867 69.4688 449.273 67.7656 448.211 66.5625 447.148 65.3438 445.711 64.7344 443.898 64.7344z" fill="#fa5712"/><path d="M463.445 61.6406 463.562 64.4531C465.422 62.2656 467.93 61.1719 471.086 61.1719 474.633 61.1719 477.047 62.5312 478.328 65.25 479.172 64.0312 480.266 63.0469 481.609 62.2969 482.969 61.5469 484.57 61.1719 486.414 61.1719 491.977 61.1719 494.805 64.1172 494.898 70.0078V87H490.562V70.2656C490.562 68.4531 490.148 67.1016 489.32 66.2109 488.492 65.3047 487.102 64.8516 485.148 64.8516 483.539 64.8516 482.203 65.3359 481.141 66.3047 480.078 67.2578 479.461 68.5469 479.289 70.1719V87H474.93V70.3828C474.93 66.6953 473.125 64.8516 469.516 64.8516 466.672 64.8516 464.727 66.0625 463.68 68.4844V87H459.344V61.6406H463.445z" fill="#fa5712"/><path d="M522.883 74.6016C522.883 78.4609 522 81.5703 520.234 83.9297 518.469 86.2891 516.078 87.4688 513.062 87.4688 509.984 87.4688 507.562 86.4922 505.797 84.5391V96.75H501.461V61.6406H505.422L505.633 64.4531C507.398 62.2656 509.852 61.1719 512.992 61.1719 516.039 61.1719 518.445 62.3203 520.211 64.6172 521.992 66.9141 522.883 70.1094 522.883 74.2031V74.6016zM518.547 74.1094C518.547 71.25 517.938 68.9922 516.719 67.3359 515.5 65.6797 513.828 64.8516 511.703 64.8516 509.078 64.8516 507.109 66.0156 505.797 68.3438V80.4609C507.094 82.7734 509.078 83.9297 511.75 83.9297 513.828 83.9297 515.477 83.1094 516.695 81.4688 517.93 79.8125 518.547 77.3594 518.547 74.1094z" fill="#fa5712"/><path d="M527.266 74.0859C527.266 71.6016 527.75 69.3672 528.719 67.3828 529.703 65.3984 531.062 63.8672 532.797 62.7891 534.547 61.7109 536.539 61.1719 538.773 61.1719 542.227 61.1719 545.016 62.3672 547.141 64.7578 549.281 67.1484 550.352 70.3281 550.352 74.2969V74.6016C550.352 77.0703 549.875 79.2891 548.922 81.2578 547.984 83.2109 546.633 84.7344 544.867 85.8281 543.117 86.9219 541.102 87.4688 538.82 87.4688 535.383 87.4688 532.594 86.2734 530.453 83.8828 528.328 81.4922 527.266 78.3281 527.266 74.3906V74.0859zM531.625 74.6016C531.625 77.4141 532.273 79.6719 533.57 81.375 534.883 83.0781 536.633 83.9297 538.82 83.9297 541.023 83.9297 542.773 83.0703 544.07 81.3516 545.367 79.6172 546.016 77.1953 546.016 74.0859 546.016 71.3047 545.352 69.0547 544.023 67.3359 542.711 65.6016 540.961 64.7344 538.773 64.7344 536.633 64.7344 534.906 65.5859 533.594 67.2891 532.281 68.9922 531.625 71.4297 531.625 74.6016z" fill="#fa5712"/><path d="M575.992 80.6484 581.898 61.6406H586.539L576.344 90.9141C574.766 95.1328 572.258 97.2422 568.82 97.2422L568 97.1719 566.383 96.8672V93.3516L567.555 93.4453C569.023 93.4453 570.164 93.1484 570.977 92.5547 571.805 91.9609 572.484 90.875 573.016 89.2969L573.977 86.7188 564.93 61.6406H569.664L575.992 80.6484z" fill="#fa5712"/><path d="M612.508 83.9297C614.055 83.9297 615.406 83.4609 616.562 82.5234 617.719 81.5859 618.359 80.4141 618.484 79.0078H622.586C622.508 80.4609 622.008 81.8438 621.086 83.1562 620.164 84.4688 618.93 85.5156 617.383 86.2969 615.852 87.0781 614.227 87.4688 612.508 87.4688 609.055 87.4688 606.305 86.3203 604.258 84.0234 602.227 81.7109 601.211 78.5547 601.211 74.5547V73.8281C601.211 71.3594 601.664 69.1641 602.57 67.2422 603.477 65.3203 604.773 63.8281 606.461 62.7656 608.164 61.7031 610.172 61.1719 612.484 61.1719 615.328 61.1719 617.688 62.0234 619.562 63.7266 621.453 65.4297 622.461 67.6406 622.586 70.3594H618.484C618.359 68.7188 617.734 67.375 616.609 66.3281 615.5 65.2656 614.125 64.7344 612.484 64.7344 610.281 64.7344 608.57 65.5312 607.352 67.125 606.148 68.7031 605.547 70.9922 605.547 73.9922V74.8125C605.547 77.7344 606.148 79.9844 607.352 81.5625 608.555 83.1406 610.273 83.9297 612.508 83.9297z" fill="#fa5712"/><path d="M643.117 87C642.867 86.5 642.664 85.6094 642.508 84.3281 640.492 86.4219 638.086 87.4688 635.289 87.4688 632.789 87.4688 630.734 86.7656 629.125 85.3594 627.531 83.9375 626.734 82.1406 626.734 79.9688 626.734 77.3281 627.734 75.2812 629.734 73.8281 631.75 72.3594 634.578 71.625 638.219 71.625H642.438V69.6328C642.438 68.1172 641.984 66.9141 641.078 66.0234 640.172 65.1172 638.836 64.6641 637.07 64.6641 635.523 64.6641 634.227 65.0547 633.18 65.8359 632.133 66.6172 631.609 67.5625 631.609 68.6719H627.25C627.25 67.4062 627.695 66.1875 628.586 65.0156 629.492 63.8281 630.711 62.8906 632.242 62.2031 633.789 61.5156 635.484 61.1719 637.328 61.1719 640.25 61.1719 642.539 61.9062 644.195 63.375 645.852 64.8281 646.711 66.8359 646.773 69.3984V81.0703C646.773 83.3984 647.07 85.25 647.664 86.625V87H643.117zM635.922 83.6953C637.281 83.6953 638.57 83.3438 639.789 82.6406 641.008 81.9375 641.891 81.0234 642.438 79.8984V74.6953H639.039C633.727 74.6953 631.07 76.25 631.07 79.3594 631.07 80.7188 631.523 81.7812 632.43 82.5469 633.336 83.3125 634.5 83.6953 635.922 83.6953z" fill="#fa5712"/><path d="M657.648 61.6406 657.766 64.4531C659.625 62.2656 662.133 61.1719 665.289 61.1719 668.836 61.1719 671.25 62.5312 672.531 65.25 673.375 64.0312 674.469 63.0469 675.812 62.2969 677.172 61.5469 678.773 61.1719 680.617 61.1719 686.18 61.1719 689.008 64.1172 689.102 70.0078V87H684.766V70.2656C684.766 68.4531 684.352 67.1016 683.523 66.2109 682.695 65.3047 681.305 64.8516 679.352 64.8516 677.742 64.8516 676.406 65.3359 675.344 66.3047 674.281 67.2578 673.664 68.5469 673.492 70.1719V87H669.133V70.3828C669.133 66.6953 667.328 64.8516 663.719 64.8516 660.875 64.8516 658.93 66.0625 657.883 68.4844V87H653.547V61.6406H657.648z" fill="#fa5712"/><path d="M717.086 74.6016C717.086 78.4609 716.203 81.5703 714.438 83.9297 712.672 86.2891 710.281 87.4688 707.266 87.4688 704.188 87.4688 701.766 86.4922 7e2 84.5391V96.75H695.664V61.6406H699.625L699.836 64.4531C701.602 62.2656 704.055 61.1719 707.195 61.1719 710.242 61.1719 712.648 62.3203 714.414 64.6172 716.195 66.9141 717.086 70.1094 717.086 74.2031V74.6016zM712.75 74.1094C712.75 71.25 712.141 68.9922 710.922 67.3359 709.703 65.6797 708.031 64.8516 705.906 64.8516 703.281 64.8516 701.312 66.0156 7e2 68.3438V80.4609C701.297 82.7734 703.281 83.9297 705.953 83.9297 708.031 83.9297 709.68 83.1094 710.898 81.4688 712.133 79.8125 712.75 77.3594 712.75 74.1094z" fill="#fa5712"/><path d="M738.273 87C738.023 86.5 737.82 85.6094 737.664 84.3281 735.648 86.4219 733.242 87.4688 730.445 87.4688 727.945 87.4688 725.891 86.7656 724.281 85.3594 722.688 83.9375 721.891 82.1406 721.891 79.9688 721.891 77.3281 722.891 75.2812 724.891 73.8281 726.906 72.3594 729.734 71.625 733.375 71.625H737.594V69.6328C737.594 68.1172 737.141 66.9141 736.234 66.0234 735.328 65.1172 733.992 64.6641 732.227 64.6641 730.68 64.6641 729.383 65.0547 728.336 65.8359 727.289 66.6172 726.766 67.5625 726.766 68.6719H722.406C722.406 67.4062 722.852 66.1875 723.742 65.0156 724.648 63.8281 725.867 62.8906 727.398 62.2031 728.945 61.5156 730.641 61.1719 732.484 61.1719 735.406 61.1719 737.695 61.9062 739.352 63.375 741.008 64.8281 741.867 66.8359 741.93 69.3984V81.0703C741.93 83.3984 742.227 85.25 742.82 86.625V87H738.273zM731.078 83.6953C732.438 83.6953 733.727 83.3438 734.945 82.6406 736.164 81.9375 737.047 81.0234 737.594 79.8984V74.6953H734.195C728.883 74.6953 726.227 76.25 726.227 79.3594 726.227 80.7188 726.68 81.7812 727.586 82.5469 728.492 83.3125 729.656 83.6953 731.078 83.6953z" fill="#fa5712"/><path d="M752.828 61.6406 752.969 64.8281C754.906 62.3906 757.438 61.1719 760.562 61.1719 765.922 61.1719 768.625 64.1953 768.672 70.2422V87H764.336V70.2188C764.32 68.3906 763.898 67.0391 763.07 66.1641 762.258 65.2891 760.984 64.8516 759.25 64.8516 757.844 64.8516 756.609 65.2266 755.547 65.9766 754.484 66.7266 753.656 67.7109 753.062 68.9297V87H748.727V61.6406H752.828z" fill="#fa5712"/><path d="M790.867 87C790.617 86.5 790.414 85.6094 790.258 84.3281 788.242 86.4219 785.836 87.4688 783.039 87.4688 780.539 87.4688 778.484 86.7656 776.875 85.3594 775.281 83.9375 774.484 82.1406 774.484 79.9688 774.484 77.3281 775.484 75.2812 777.484 73.8281 779.5 72.3594 782.328 71.625 785.969 71.625H790.188V69.6328C790.188 68.1172 789.734 66.9141 788.828 66.0234 787.922 65.1172 786.586 64.6641 784.82 64.6641 783.273 64.6641 781.977 65.0547 780.93 65.8359 779.883 66.6172 779.359 67.5625 779.359 68.6719H775C775 67.4062 775.445 66.1875 776.336 65.0156 777.242 63.8281 778.461 62.8906 779.992 62.2031 781.539 61.5156 783.234 61.1719 785.078 61.1719 788 61.1719 790.289 61.9062 791.945 63.375 793.602 64.8281 794.461 66.8359 794.523 69.3984V81.0703C794.523 83.3984 794.82 85.25 795.414 86.625V87H790.867zM783.672 83.6953C785.031 83.6953 786.32 83.3438 787.539 82.6406 788.758 81.9375 789.641 81.0234 790.188 79.8984V74.6953H786.789C781.477 74.6953 778.82 76.25 778.82 79.3594 778.82 80.7188 779.273 81.7812 780.18 82.5469 781.086 83.3125 782.25 83.6953 783.672 83.6953z" fill="#fa5712"/><path d="M800.266 74.1094C800.266 70.2188 801.188 67.0938 803.031 64.7344 804.875 62.3594 807.289 61.1719 810.273 61.1719 813.242 61.1719 815.594 62.1875 817.328 64.2188V51H821.664V87H817.68L817.469 84.2812C815.734 86.4062 813.32 87.4688 810.227 87.4688 807.289 87.4688 804.891 86.2656 803.031 83.8594 801.188 81.4531 800.266 78.3125 800.266 74.4375V74.1094zM804.602 74.6016C804.602 77.4766 805.195 79.7266 806.383 81.3516 807.57 82.9766 809.211 83.7891 811.305 83.7891 814.055 83.7891 816.062 82.5547 817.328 80.0859V68.4375C816.031 66.0469 814.039 64.8516 811.352 64.8516 809.227 64.8516 807.57 65.6719 806.383 67.3125 805.195 68.9531 804.602 71.3828 804.602 74.6016z" fill="#fa5712"/><path d="M844.07 87C843.82 86.5 843.617 85.6094 843.461 84.3281 841.445 86.4219 839.039 87.4688 836.242 87.4688 833.742 87.4688 831.688 86.7656 830.078 85.3594 828.484 83.9375 827.688 82.1406 827.688 79.9688 827.688 77.3281 828.688 75.2812 830.688 73.8281 832.703 72.3594 835.531 71.625 839.172 71.625H843.391V69.6328C843.391 68.1172 842.938 66.9141 842.031 66.0234 841.125 65.1172 839.789 64.6641 838.023 64.6641 836.477 64.6641 835.18 65.0547 834.133 65.8359 833.086 66.6172 832.562 67.5625 832.562 68.6719H828.203C828.203 67.4062 828.648 66.1875 829.539 65.0156 830.445 63.8281 831.664 62.8906 833.195 62.2031 834.742 61.5156 836.438 61.1719 838.281 61.1719 841.203 61.1719 843.492 61.9062 845.148 63.375 846.805 64.8281 847.664 66.8359 847.727 69.3984V81.0703C847.727 83.3984 848.023 85.25 848.617 86.625V87H844.07zM836.875 83.6953C838.234 83.6953 839.523 83.3438 840.742 82.6406 841.961 81.9375 842.844 81.0234 843.391 79.8984V74.6953H839.992C834.68 74.6953 832.023 76.25 832.023 79.3594 832.023 80.7188 832.477 81.7812 833.383 82.5469 834.289 83.3125 835.453 83.6953 836.875 83.6953z" fill="#fa5712"/><path d="M869.289 80.2734C869.289 79.1016 868.844 78.1953 867.953 77.5547 867.078 76.8984 865.539 76.3359 863.336 75.8672 861.148 75.3984 859.406 74.8359 858.109 74.1797 856.828 73.5234 855.875 72.7422 855.25 71.8359 854.641 70.9297 854.336 69.8516 854.336 68.6016 854.336 66.5234 855.211 64.7656 856.961 63.3281 858.727 61.8906 860.977 61.1719 863.711 61.1719 866.586 61.1719 868.914 61.9141 870.695 63.3984 872.492 64.8828 873.391 66.7812 873.391 69.0938H869.031C869.031 67.9062 868.523 66.8828 867.508 66.0234 866.508 65.1641 865.242 64.7344 863.711 64.7344 862.133 64.7344 860.898 65.0781 860.008 65.7656 859.117 66.4531 858.672 67.3516 858.672 68.4609 858.672 69.5078 859.086 70.2969 859.914 70.8281 860.742 71.3594 862.234 71.8672 864.391 72.3516 866.562 72.8359 868.32 73.4141 869.664 74.0859 871.008 74.7578 872 75.5703 872.641 76.5234 873.297 77.4609 873.625 78.6094 873.625 79.9688 873.625 82.2344 872.719 84.0547 870.906 85.4297 869.094 86.7891 866.742 87.4688 863.852 87.4688 861.82 87.4688 860.023 87.1094 858.461 86.3906 856.898 85.6719 855.672 84.6719 854.781 83.3906 853.906 82.0938 853.469 80.6953 853.469 79.1953H857.805C857.883 80.6484 858.461 81.8047 859.539 82.6641 860.633 83.5078 862.07 83.9297 863.852 83.9297 865.492 83.9297 866.805 83.6016 867.789 82.9453 868.789 82.2734 869.289 81.3828 869.289 80.2734z" fill="#fa5712"/></g><path d="M121 33H926V97.2422C926 107.183 917.941 115.242 908 115.242H103V51C103 41.0589 111.059 33 121 33z" stroke="#f3c72c" stroke-width="4"/></g></g></svg>