<svg viewBox="0 0 152 74" fill="none" xmlns="http://www.w3.org/2000/svg">
    <path
        d="M39.984 25.416C41.5413 25.416 42.9173 25.768 44.112 26.472C45.328 27.1547 46.2667 28.1253 46.928 29.384C47.5893 30.6213 47.92 32.072 47.92 33.736C47.92 35.4213 47.5787 36.8827 46.896 38.12C46.2347 39.3573 45.296 40.3173 44.08 41C42.864 41.6613 41.4667 41.992 39.888 41.992C38.992 41.992 38.1387 41.9067 37.328 41.736C36.5173 41.544 35.92 41.352 35.536 41.16L35.504 44.232C35.4613 45.5547 35.44 46.568 35.44 47.272C35.44 47.784 35.216 48.2 34.768 48.52C34.32 48.84 33.7547 49 33.072 49C32.3467 49 31.7813 48.8187 31.376 48.456C30.9707 48.0933 30.7893 47.6347 30.832 47.08C30.9173 46.1627 30.9707 45.1387 30.992 44.008C31.0133 42.8773 31.024 41.4587 31.024 39.752L31.056 35.976C31.0987 34.0987 31.12 32.424 31.12 30.952C31.12 30.3973 31.0667 29.9813 30.96 29.704C30.8747 29.4053 30.736 29.1493 30.544 28.936C30.352 28.7227 30.2133 28.552 30.128 28.424C30.0427 28.2747 30 28.104 30 27.912C30 27.4213 30.2773 26.9413 30.832 26.472C31.3867 26.0027 31.952 25.768 32.528 25.768C32.848 25.768 33.136 25.8747 33.392 26.088C33.904 26.5573 34.32 27.08 34.64 27.656C35.1307 27.016 35.824 26.4827 36.72 26.056C37.616 25.6293 38.704 25.416 39.984 25.416ZM39.312 38.44C40.5707 38.44 41.5413 38.024 42.224 37.192C42.928 36.36 43.28 35.176 43.28 33.64C43.28 32.1893 42.9707 31.0693 42.352 30.28C41.7333 29.4693 40.8267 29.064 39.632 29.064C38.864 29.064 38.192 29.2133 37.616 29.512C37.04 29.8107 36.592 30.184 36.272 30.632C35.952 31.0587 35.792 31.464 35.792 31.848L35.728 37.512C35.8347 37.6827 36.2827 37.8853 37.072 38.12C37.8613 38.3333 38.608 38.44 39.312 38.44Z"
        fill="#E19C5D" />
    <path
        d="M66.2843 38.28C66.6896 38.344 66.9989 38.4933 67.2122 38.728C67.4469 38.9627 67.5643 39.3787 67.5643 39.976C67.5643 40.488 67.4256 40.9253 67.1483 41.288C66.8923 41.6507 66.5403 41.832 66.0923 41.832C65.1749 41.832 64.4709 41.7253 63.9803 41.512C63.4896 41.2773 63.0416 40.8613 62.6362 40.264C62.1669 40.968 61.5269 41.4693 60.7163 41.768C59.9056 42.0453 58.9563 42.184 57.8683 42.184C55.4576 42.184 53.6229 41.4907 52.3643 40.104C51.1056 38.7173 50.4762 36.7867 50.4762 34.312C50.4762 32.6907 50.8069 31.2507 51.4683 29.992C52.1296 28.7333 53.0469 27.752 54.2202 27.048C55.4149 26.344 56.7802 25.992 58.3162 25.992C59.0842 25.992 59.7989 26.1413 60.4603 26.44C61.1216 26.7387 61.6229 27.1333 61.9643 27.624L62.0283 27.208C62.0709 26.9093 62.2416 26.664 62.5403 26.472C62.8389 26.2587 63.3082 26.152 63.9482 26.152C64.6309 26.152 65.1323 26.2907 65.4523 26.568C65.7723 26.8453 65.9323 27.1973 65.9323 27.624C65.9323 27.7733 65.9216 27.8907 65.9002 27.976C65.7722 28.7013 65.6443 29.9173 65.5163 31.624C65.4523 32.4133 65.4202 33.4267 65.4202 34.664V36.264C65.4202 36.8827 65.4736 37.3627 65.5802 37.704C65.6869 38.024 65.9216 38.216 66.2843 38.28ZM60.9403 36.072C60.9616 35.1973 60.9723 33.8427 60.9723 32.008C60.9723 31.2827 60.7269 30.696 60.2363 30.248C59.7669 29.7787 59.1589 29.544 58.4123 29.544C57.4523 29.544 56.6629 29.992 56.0443 30.888C55.4256 31.7627 55.1162 32.8933 55.1162 34.28C55.1162 35.6027 55.3936 36.6587 55.9482 37.448C56.5029 38.2373 57.2496 38.632 58.1883 38.632C59.0629 38.632 59.7349 38.4187 60.2043 37.992C60.6736 37.544 60.9189 36.904 60.9403 36.072Z"
        fill="#E19C5D" />
    <path
        d="M84.5005 36.776C84.5005 37.5227 84.5645 38.1093 84.6925 38.536C84.8205 38.9627 84.9592 39.304 85.1085 39.56C85.2578 39.816 85.3325 39.9653 85.3325 40.008C85.3325 40.5413 85.1298 40.9893 84.7245 41.352C84.3405 41.6933 83.8178 41.864 83.1565 41.864C82.7512 41.864 82.3032 41.6507 81.8125 41.224C81.3432 40.776 81.0338 40.2853 80.8845 39.752C80.1378 41.1813 78.7405 41.896 76.6925 41.896C74.8152 41.896 73.3538 41.2347 72.3085 39.912C71.2845 38.5893 70.7725 36.904 70.7725 34.856V27.304C70.7725 26.8133 70.9858 26.4187 71.4125 26.12C71.8605 25.8 72.4045 25.64 73.0445 25.64C73.6845 25.64 74.2285 25.8 74.6765 26.12C75.1458 26.4187 75.3805 26.8133 75.3805 27.304V34.792C75.3805 35.7093 75.5405 36.5307 75.8605 37.256C76.1805 37.9813 76.6712 38.344 77.3325 38.344C78.1645 38.344 78.7725 37.9707 79.1565 37.224C79.5618 36.4773 79.7645 35.1653 79.7645 33.288V27.368C79.7645 26.792 79.9672 26.3333 80.3725 25.992C80.7992 25.6507 81.3538 25.48 82.0365 25.48C82.7405 25.48 83.3058 25.6507 83.7325 25.992C84.1805 26.3333 84.4045 26.792 84.4045 27.368L84.5005 36.776Z"
        fill="#E19C5D" />
    <path
        d="M95.2282 42.12C93.7562 42.12 92.4443 41.7787 91.2923 41.096C90.1403 40.392 89.3189 39.464 88.8283 38.312C88.7003 37.992 88.6362 37.7253 88.6362 37.512C88.6362 37.064 88.8709 36.6373 89.3402 36.232C89.8096 35.8267 90.3216 35.624 90.8763 35.624C91.1963 35.624 91.4522 35.6987 91.6442 35.848C91.8362 35.976 91.9856 36.104 92.0923 36.232C92.1989 36.3387 92.2629 36.4133 92.2842 36.456C92.9029 37.1813 93.4149 37.6933 93.8203 37.992C94.2256 38.2907 94.7163 38.44 95.2923 38.44C95.8256 38.44 96.2843 38.3333 96.6683 38.12C97.0523 37.8853 97.2442 37.5653 97.2442 37.16C97.2442 36.712 97.0203 36.36 96.5723 36.104C96.1243 35.848 95.3989 35.56 94.3962 35.24C93.2869 34.856 92.3803 34.4933 91.6763 34.152C90.9936 33.8107 90.3856 33.3093 89.8522 32.648C89.3402 31.9653 89.0843 31.1013 89.0843 30.056C89.0843 29.0107 89.3829 28.1147 89.9803 27.368C90.5776 26.6 91.3669 26.0133 92.3483 25.608C93.3509 25.2027 94.4283 25 95.5803 25C96.8176 25 97.8843 25.2347 98.7803 25.704C99.6976 26.152 100.391 26.76 100.86 27.528C101.33 28.2747 101.564 29.0747 101.564 29.928C101.564 30.504 101.404 30.9413 101.084 31.24C100.764 31.5387 100.231 31.688 99.4843 31.688C98.8229 31.688 98.3643 31.5813 98.1083 31.368C97.8736 31.1547 97.7242 30.856 97.6602 30.472C97.5962 29.9387 97.4256 29.512 97.1483 29.192C96.8923 28.872 96.3696 28.712 95.5803 28.712C94.9829 28.712 94.5136 28.8187 94.1722 29.032C93.8522 29.2453 93.6922 29.544 93.6922 29.928C93.6922 30.3973 93.9163 30.76 94.3643 31.016C94.8336 31.272 95.5802 31.5493 96.6042 31.848C97.6922 32.1893 98.5883 32.5307 99.2923 32.872C99.9963 33.192 100.604 33.6827 101.116 34.344C101.628 34.984 101.884 35.8373 101.884 36.904C101.884 38.12 101.543 39.1227 100.86 39.912C100.178 40.7013 99.3242 41.2667 98.3002 41.608C97.2762 41.9493 96.2522 42.12 95.2282 42.12Z"
        fill="#E19C5D" />
    <path
        d="M113.497 42.152C111.556 42.152 109.913 41.7893 108.569 41.064C107.247 40.3387 106.255 39.336 105.593 38.056C104.932 36.776 104.601 35.3253 104.601 33.704C104.601 32.0827 104.975 30.6427 105.721 29.384C106.489 28.104 107.524 27.112 108.825 26.408C110.148 25.704 111.62 25.352 113.241 25.352C114.692 25.352 116.015 25.64 117.209 26.216C118.425 26.792 119.375 27.624 120.057 28.712C120.761 29.7787 121.113 31.0373 121.113 32.488C121.113 33.4053 120.943 34.0667 120.601 34.472C120.281 34.856 119.727 35.048 118.937 35.048H108.601C108.601 35.56 108.783 36.0827 109.145 36.616C109.508 37.128 110.052 37.5653 110.777 37.928C111.503 38.2907 112.367 38.472 113.369 38.472C114.265 38.472 114.969 38.344 115.481 38.088C115.993 37.8107 116.527 37.4053 117.081 36.872C117.487 36.5093 117.903 36.328 118.329 36.328C118.82 36.328 119.279 36.52 119.705 36.904C120.132 37.2667 120.345 37.6827 120.345 38.152C120.345 38.536 120.217 38.9093 119.961 39.272C119.513 39.976 118.756 40.6373 117.689 41.256C116.623 41.8533 115.225 42.152 113.497 42.152ZM116.889 32.168C117.081 32.168 117.199 32.136 117.241 32.072C117.305 32.008 117.337 31.8907 117.337 31.72C117.337 30.888 116.932 30.1947 116.121 29.64C115.332 29.0853 114.351 28.808 113.177 28.808C112.239 28.808 111.417 28.9893 110.713 29.352C110.031 29.7147 109.508 30.1627 109.145 30.696C108.783 31.208 108.601 31.6987 108.601 32.168H116.889Z"
        fill="#E19C5D" />
    <rect x="5" y="5" width="141.113" height="64" rx="15" stroke="#E19C5D" stroke-width="10" />
</svg>