<svg  viewBox="0 0 174 74" fill="none" xmlns="http://www.w3.org/2000/svg">
<path d="M38.8737 30.8338C39.7273 30.8338 40.5169 31.0365 41.2425 31.442C41.9681 31.8261 42.5443 32.381 42.9712 33.1066C43.398 33.8322 43.6114 34.6752 43.6114 35.6355C43.6114 37.0227 43.1526 38.1004 42.2349 38.8687C41.3386 39.6157 40.1755 39.9891 38.7456 39.9891C37.9987 39.9891 37.4758 39.8824 37.177 39.669C36.8783 39.4343 36.7289 39.0501 36.7289 38.5166C36.7289 38.0044 36.8356 37.6523 37.049 37.4602C37.2624 37.2468 37.5612 37.1187 37.9453 37.0761C39.2044 36.948 39.834 36.4252 39.834 35.5075C39.834 35.1233 39.738 34.8352 39.5459 34.6432C39.3752 34.4298 39.1298 34.3231 38.8096 34.3231C38.2334 34.3231 37.6999 34.6538 37.209 35.3154C36.7182 35.9557 36.3127 36.7133 35.9926 37.5883C35.6725 38.4419 35.4697 39.1675 35.3844 39.7651C35.235 40.7041 35.1603 42.3687 35.1603 44.7589C35.1603 45.9113 34.9896 46.7009 34.6481 47.1278C34.328 47.5332 33.7518 47.736 32.9195 47.736C32.1512 47.736 31.5643 47.5866 31.1588 47.2878C30.7747 46.989 30.5719 46.5302 30.5506 45.9113V40.7254C30.5506 39.3596 30.5186 38.2071 30.4546 37.2681C30.3905 36.3078 30.2838 35.0807 30.1344 33.5868L30.0064 32.2743C29.9637 31.7408 30.1344 31.3033 30.5186 30.9618C30.9241 30.6204 31.4789 30.4496 32.1832 30.4496C33.3783 30.4496 34.0185 30.9832 34.1039 32.0502C34.1466 32.5624 34.1893 33.288 34.232 34.227C34.6588 33.224 35.2563 32.413 36.0246 31.7941C36.8142 31.1539 37.7639 30.8338 38.8737 30.8338Z" fill="#E19C5D"/>
<path d="M54.9591 47.768C53.017 47.768 51.3737 47.4052 50.0293 46.6796C48.7061 45.954 47.7137 44.951 47.0522 43.6705C46.3906 42.39 46.0598 40.9388 46.0598 39.3169C46.0598 37.695 46.4333 36.2544 47.1802 34.9953C47.9485 33.7148 48.9835 32.7225 50.2853 32.0182C51.6085 31.3139 53.081 30.9618 54.703 30.9618C56.1542 30.9618 57.4773 31.2499 58.6724 31.8261C59.8889 32.4023 60.8386 33.2347 61.5215 34.3231C62.2257 35.3901 62.5779 36.6492 62.5779 38.1004C62.5779 39.0181 62.4071 39.6797 62.0657 40.0852C61.7456 40.4693 61.1907 40.6614 60.4011 40.6614H50.0613C50.0613 41.1736 50.2427 41.6964 50.6055 42.23C50.9683 42.7421 51.5125 43.1796 52.2381 43.5424C52.9637 43.9052 53.828 44.0866 54.831 44.0866C55.7273 44.0866 56.4316 43.9586 56.9438 43.7025C57.456 43.4251 57.9895 43.0196 58.5444 42.486C58.9499 42.1232 59.366 41.9419 59.7928 41.9419C60.2837 41.9419 60.7425 42.1339 61.1693 42.5181C61.5962 42.8809 61.8096 43.297 61.8096 43.7665C61.8096 44.1507 61.6815 44.5241 61.4254 44.8869C60.9773 45.5912 60.2197 46.2528 59.1526 46.8717C58.0855 47.4692 56.6877 47.768 54.9591 47.768ZM58.3523 37.7803C58.5444 37.7803 58.6618 37.7483 58.7044 37.6843C58.7685 37.6203 58.8005 37.5029 58.8005 37.3322C58.8005 36.4999 58.395 35.8063 57.584 35.2514C56.7944 34.6965 55.8127 34.4191 54.6389 34.4191C53.6999 34.4191 52.8783 34.6005 52.174 34.9633C51.4911 35.3261 50.9683 35.7743 50.6055 36.3078C50.2427 36.82 50.0613 37.3108 50.0613 37.7803H58.3523Z" fill="#E19C5D"/>
<path d="M71.8838 47.736C70.4112 47.736 69.0988 47.3945 67.9463 46.7116C66.7939 46.0073 65.9723 45.079 65.4814 43.9266C65.3534 43.6065 65.2894 43.3397 65.2894 43.1263C65.2894 42.6781 65.5241 42.2513 65.9936 41.8458C66.4631 41.4403 66.9753 41.2376 67.5302 41.2376C67.8503 41.2376 68.1064 41.3123 68.2985 41.4617C68.4905 41.5897 68.6399 41.7178 68.7466 41.8458C68.8533 41.9525 68.9174 42.0272 68.9387 42.0699C69.5576 42.7955 70.0698 43.3077 70.4753 43.6065C70.8807 43.9052 71.3716 44.0546 71.9478 44.0546C72.4813 44.0546 72.9402 43.9479 73.3243 43.7345C73.7084 43.4998 73.9005 43.1796 73.9005 42.7742C73.9005 42.326 73.6764 41.9739 73.2283 41.7178C72.7801 41.4617 72.0545 41.1736 71.0515 40.8534C69.9417 40.4693 69.0347 40.1065 68.3305 39.7651C67.6475 39.4236 67.0393 38.9221 66.5058 38.2605C65.9936 37.5776 65.7375 36.7133 65.7375 35.6675C65.7375 34.6218 66.0363 33.7255 66.6338 32.9786C67.2314 32.2103 68.021 31.6234 69.0027 31.2179C70.0057 30.8124 71.0835 30.6097 72.2359 30.6097C73.4737 30.6097 74.5407 30.8444 75.4371 31.314C76.3547 31.7621 77.0483 32.3703 77.5178 33.1386C77.9873 33.8856 78.2221 34.6859 78.2221 35.5395C78.2221 36.1157 78.062 36.5532 77.7419 36.852C77.4218 37.1508 76.8883 37.3001 76.1413 37.3001C75.4798 37.3001 75.0209 37.1934 74.7648 36.98C74.5301 36.7666 74.3807 36.4678 74.3167 36.0837C74.2526 35.5502 74.0819 35.1233 73.8045 34.8032C73.5484 34.4831 73.0255 34.3231 72.2359 34.3231C71.6384 34.3231 71.1688 34.4298 70.8274 34.6432C70.5073 34.8566 70.3472 35.1554 70.3472 35.5395C70.3472 36.009 70.5713 36.3718 71.0195 36.6279C71.489 36.884 72.2359 37.1614 73.2603 37.4602C74.3487 37.8017 75.245 38.1431 75.9493 38.4846C76.6535 38.8047 77.2617 39.2955 77.7739 39.9571C78.2861 40.5974 78.5422 41.451 78.5422 42.5181C78.5422 43.7345 78.2008 44.7375 77.5178 45.5272C76.8349 46.3168 75.9813 46.8823 74.9569 47.2238C73.9325 47.5652 72.9081 47.736 71.8838 47.736Z" fill="#E19C5D"/>
<path d="M91.2159 41.0775C91.9201 41.0775 92.4323 41.2163 92.7524 41.4937C93.0726 41.7711 93.2326 42.2193 93.2326 42.8382C93.2326 44.2467 92.7844 45.3778 91.8881 46.2314C90.9918 47.0851 89.8607 47.5119 88.4949 47.5119C86.6382 47.5119 85.283 46.765 84.4294 45.2711C83.5757 43.7558 83.1489 41.3656 83.1489 38.1004C83.1489 37.1187 83.1596 36.4038 83.1809 35.9557C83.0315 35.9343 82.7861 35.9236 82.4446 35.9236C81.2282 35.9023 80.62 35.3154 80.62 34.163C80.62 33.5654 80.7694 33.1173 81.0681 32.8185C81.3883 32.5197 81.9431 32.381 82.7328 32.4023L83.437 32.4344C83.5864 31.1112 83.8318 29.4893 84.1733 27.5686C84.2586 27.0564 84.4934 26.6722 84.8775 26.4162C85.283 26.1387 85.7952 26 86.4141 26C87.1397 26 87.7052 26.1707 88.1107 26.5122C88.5162 26.8536 88.719 27.2698 88.719 27.7606L88.6869 28.0167L88.5269 29.0411C88.2708 30.7911 88.1001 31.9862 88.0147 32.6264C88.7403 32.6691 89.2952 32.6905 89.6793 32.6905C90.7677 32.7118 91.3119 33.2773 91.3119 34.3871C91.3119 34.9419 91.1625 35.3581 90.8637 35.6355C90.565 35.913 90.0634 36.0517 89.3592 36.0517H87.7586C87.7373 36.4785 87.7266 37.1614 87.7266 38.1004C87.7266 39.6797 87.7586 40.8961 87.8226 41.7498C87.908 42.5821 88.0254 43.1476 88.1748 43.4464C88.3241 43.7452 88.5162 43.8946 88.751 43.8946C89.0497 43.8946 89.2418 43.7985 89.3272 43.6065C89.4125 43.4144 89.4552 43.0729 89.4552 42.5821C89.4552 41.579 90.0421 41.0775 91.2159 41.0775Z" fill="#E19C5D"/>
<path d="M111.298 43.8946C111.703 43.9586 112.013 44.108 112.226 44.3427C112.461 44.5775 112.578 44.9936 112.578 45.5912C112.578 46.1034 112.44 46.5409 112.162 46.9037C111.906 47.2665 111.554 47.4479 111.106 47.4479C110.188 47.4479 109.484 47.3412 108.993 47.1278C108.502 46.893 108.054 46.4768 107.649 45.8793C107.179 46.5836 106.539 47.0851 105.728 47.3838C104.917 47.6613 103.967 47.8 102.879 47.8C100.467 47.8 98.632 47.1064 97.3729 45.7192C96.1138 44.3321 95.4842 42.4007 95.4842 39.9251C95.4842 38.3032 95.815 36.8627 96.4765 35.6035C97.1381 34.3444 98.0558 33.3627 99.2296 32.6584C100.425 31.9542 101.79 31.6021 103.327 31.6021C104.095 31.6021 104.81 31.7514 105.472 32.0502C106.133 32.349 106.635 32.7438 106.976 33.2347L107.04 32.8185C107.083 32.5197 107.254 32.2743 107.553 32.0822C107.851 31.8688 108.321 31.7621 108.961 31.7621C109.644 31.7621 110.146 31.9008 110.466 32.1783C110.786 32.4557 110.946 32.8078 110.946 33.2347C110.946 33.384 110.935 33.5014 110.914 33.5868C110.786 34.3124 110.658 35.5288 110.53 37.2361C110.466 38.0257 110.434 39.0395 110.434 40.2772V41.8778C110.434 42.4967 110.487 42.9769 110.594 43.3184C110.7 43.6385 110.935 43.8305 111.298 43.8946ZM105.952 41.6858C105.973 40.8108 105.984 39.4556 105.984 37.6203C105.984 36.8947 105.739 36.3078 105.248 35.8596C104.778 35.3901 104.17 35.1554 103.423 35.1554C102.463 35.1554 101.673 35.6035 101.054 36.4999C100.435 37.3748 100.126 38.5059 100.126 39.8931C100.126 41.2163 100.403 42.2726 100.958 43.0623C101.513 43.8519 102.26 44.2467 103.199 44.2467C104.074 44.2467 104.746 44.0333 105.216 43.6065C105.685 43.1583 105.931 42.5181 105.952 41.6858Z" fill="#E19C5D"/>
<path d="M124.655 30.8338C125.509 30.8338 126.298 31.0365 127.024 31.442C127.75 31.8261 128.326 32.381 128.753 33.1066C129.179 33.8322 129.393 34.6752 129.393 35.6355C129.393 37.0227 128.934 38.1004 128.016 38.8687C127.12 39.6157 125.957 39.9891 124.527 39.9891C123.78 39.9891 123.257 39.8824 122.959 39.669C122.66 39.4343 122.51 39.0501 122.51 38.5166C122.51 38.0044 122.617 37.6523 122.83 37.4602C123.044 37.2468 123.343 37.1187 123.727 37.0761C124.986 36.948 125.615 36.4252 125.615 35.5075C125.615 35.1233 125.519 34.8352 125.327 34.6432C125.157 34.4298 124.911 34.3231 124.591 34.3231C124.015 34.3231 123.481 34.6538 122.991 35.3154C122.5 35.9557 122.094 36.7133 121.774 37.5883C121.454 38.4419 121.251 39.1675 121.166 39.7651C121.016 40.7041 120.942 42.3687 120.942 44.7589C120.942 45.9113 120.771 46.7009 120.43 47.1278C120.109 47.5332 119.533 47.736 118.701 47.736C117.933 47.736 117.346 47.5866 116.94 47.2878C116.556 46.989 116.353 46.5302 116.332 45.9113V40.7254C116.332 39.3596 116.3 38.2071 116.236 37.2681C116.172 36.3078 116.065 35.0807 115.916 33.5868L115.788 32.2743C115.745 31.7408 115.916 31.3033 116.3 30.9618C116.706 30.6204 117.26 30.4496 117.965 30.4496C119.16 30.4496 119.8 30.9832 119.885 32.0502C119.928 32.5624 119.971 33.288 120.013 34.227C120.44 33.224 121.038 32.413 121.806 31.7941C122.596 31.1539 123.545 30.8338 124.655 30.8338Z" fill="#E19C5D"/>
<path d="M141.797 41.0775C142.501 41.0775 143.013 41.2163 143.333 41.4937C143.654 41.7711 143.814 42.2193 143.814 42.8382C143.814 44.2467 143.366 45.3778 142.469 46.2314C141.573 47.0851 140.442 47.5119 139.076 47.5119C137.219 47.5119 135.864 46.765 135.01 45.2711C134.157 43.7558 133.73 41.3656 133.73 38.1004C133.73 37.1187 133.741 36.4038 133.762 35.9557C133.613 35.9343 133.367 35.9236 133.026 35.9236C131.809 35.9023 131.201 35.3154 131.201 34.163C131.201 33.5654 131.35 33.1173 131.649 32.8185C131.969 32.5197 132.524 32.381 133.314 32.4023L134.018 32.4344C134.167 31.1112 134.413 29.4893 134.754 27.5686C134.84 27.0564 135.074 26.6722 135.459 26.4162C135.864 26.1387 136.376 26 136.995 26C137.721 26 138.286 26.1707 138.692 26.5122C139.097 26.8536 139.3 27.2698 139.3 27.7606L139.268 28.0167L139.108 29.0411C138.852 30.7911 138.681 31.9862 138.596 32.6264C139.321 32.6691 139.876 32.6905 140.26 32.6905C141.349 32.7118 141.893 33.2773 141.893 34.3871C141.893 34.9419 141.744 35.3581 141.445 35.6355C141.146 35.913 140.645 36.0517 139.94 36.0517H138.34C138.318 36.4785 138.308 37.1614 138.308 38.1004C138.308 39.6797 138.34 40.8961 138.404 41.7498C138.489 42.5821 138.606 43.1476 138.756 43.4464C138.905 43.7452 139.097 43.8946 139.332 43.8946C139.631 43.8946 139.823 43.7985 139.908 43.6065C139.994 43.4144 140.036 43.0729 140.036 42.5821C140.036 41.579 140.623 41.0775 141.797 41.0775Z" fill="#E19C5D"/>
<rect x="5" y="5" width="163.814" height="63.8" rx="15" stroke="#E19C5D" stroke-width="10"/>
</svg>
