<svg viewBox="0 0 240 40" fill="none" xmlns="http://www.w3.org/2000/svg">
<path d="M14.4035 3.76183C14.4035 3.4972 13.326 3.32708 11.1712 3.25147C10.2639 3.25147 9.67792 3.23257 9.41329 3.19476C9.14865 3.15696 9.01634 2.96794 9.01634 2.6277C9.01634 2.58989 9.05414 2.38197 9.12975 2.00393C9.35658 1.24784 9.5267 0.83199 9.64011 0.756381C9.75352 0.680772 13.4205 0.642968 20.6412 0.642968C27.824 0.680773 31.6611 0.737479 32.1526 0.813088C34.5721 1.22894 36.5946 2.15514 38.2202 3.59171C39.8458 5.02827 40.6775 6.93739 40.7153 9.31907C40.7153 12.23 39.4677 14.8952 36.9727 17.3147C34.3642 19.8854 30.9996 21.511 26.8789 22.1915C26.6143 22.2293 24.6295 22.2671 20.9247 22.3049H15.5376L13.8364 29.0529C12.7023 33.4383 12.1352 35.7632 12.1352 36.0278C12.1352 36.1791 12.1541 36.2736 12.1919 36.3114C12.2297 36.3492 12.362 36.4248 12.5889 36.5382C12.8157 36.6516 13.137 36.6894 13.5529 36.6516C13.9687 36.6138 14.5925 36.6516 15.4242 36.765H17.1821C17.4089 37.1053 17.5223 37.3132 17.5223 37.3888C17.5223 37.9937 17.39 38.5607 17.1254 39.09C16.9364 39.279 16.6339 39.3735 16.2181 39.3735C16.1047 39.3735 15.4053 39.3546 14.1199 39.3168C12.8346 39.279 10.9444 39.2601 8.44927 39.2601C6.1054 39.2601 4.3097 39.2601 3.06215 39.2601C1.81461 39.2601 1.13413 39.279 1.02072 39.3168C0.340239 39.3168 0 39.1278 0 38.7498C0 38.6742 0.0567065 38.4095 0.17012 37.9559C0.321337 37.351 0.472554 37.0108 0.623772 36.9352C0.774989 36.8595 1.20974 36.8028 1.92802 36.765C2.94874 36.765 4.08287 36.7083 5.33041 36.5949C5.85968 36.4815 6.21882 36.2547 6.40784 35.9144C6.52125 35.7632 7.88221 30.5084 10.4907 20.15C13.0992 9.79162 14.4035 4.32889 14.4035 3.76183ZM34.7044 7.95811C34.7044 7.46666 34.6666 7.06971 34.591 6.76727C34.5154 6.46484 34.3453 6.04899 34.0806 5.51973C33.816 4.99047 33.3434 4.57462 32.663 4.27219C31.9825 3.96975 31.0563 3.66732 29.8843 3.36488C29.6197 3.32708 28.1075 3.28927 25.3478 3.25147C24.7051 3.25147 24.0436 3.25147 23.3631 3.25147C22.6826 3.25147 22.1345 3.27037 21.7186 3.30818C21.3028 3.34598 21.0759 3.34598 21.0381 3.30818C20.5467 3.34598 20.2064 3.5161 20.0174 3.81853C19.9418 4.04536 19.5827 5.50083 18.94 8.18494C18.2973 10.869 17.6357 13.4775 16.9553 16.0104C16.2748 18.5433 15.9345 19.8287 15.9345 19.8665C15.9345 19.9421 17.4656 19.9799 20.5278 19.9799H21.2082H22.5125C26.7466 19.9799 29.7709 19.0348 31.5855 17.1446C32.6063 16.1239 33.3812 14.6306 33.9105 12.6648C34.4398 10.6989 34.7044 9.13005 34.7044 7.95811Z" fill="#F7FB0F"/>
<path d="M41.9053 23.0985C41.9431 22.9851 41.9809 22.8339 42.0187 22.6449C42.0565 22.4558 42.151 22.04 42.3022 21.3973C42.4534 20.7546 42.6425 20.1687 42.8693 19.6394C43.0961 19.1102 43.3796 18.4864 43.7199 17.7681C44.0601 17.0498 44.4382 16.4828 44.854 16.0669C45.2699 15.6511 45.7613 15.2352 46.3284 14.8194C46.8954 14.4035 47.5192 14.2334 48.1997 14.309C49.296 14.309 50.26 14.5358 51.0917 14.9895C51.9234 15.4431 52.5094 15.859 52.8496 16.237C53.1899 16.6151 53.3978 16.9931 53.4734 17.3712C53.549 17.598 53.6057 17.7114 53.6435 17.7114C53.6813 17.7114 53.8325 17.5791 54.0972 17.3145C55.9118 15.3486 58.0099 14.3657 60.3916 14.3657H60.5617C62.3763 14.3657 63.7373 15.1407 64.6446 16.6907C64.947 17.409 65.0982 18.1083 65.0982 18.7888C65.0982 19.923 64.8525 20.8303 64.3611 21.5107C63.8696 22.1912 63.3782 22.626 62.8867 22.815C62.3952 23.004 61.9227 23.0796 61.469 23.0418C60.7129 23.0418 60.1081 22.8339 59.6544 22.418C59.2008 22.0022 58.9739 21.454 58.9739 20.7736C58.9739 18.9589 60.0325 17.7492 62.1495 17.1443C61.3178 16.6529 60.6373 16.4071 60.1081 16.4071C57.991 16.4071 56.0441 17.8059 54.2673 20.6034C53.8893 21.2083 53.6057 21.8321 53.4167 22.4747C53.2277 23.1174 52.585 25.6314 51.4887 30.0167C50.2033 35.3093 49.4661 38.1258 49.2771 38.466C48.7857 39.4867 47.9729 39.9971 46.8387 39.9971C46.3473 39.9971 45.9503 39.8837 45.6479 39.6568C45.3455 39.43 45.1375 39.2032 45.0241 38.9764C44.9107 38.7495 44.8729 38.5605 44.9107 38.4093C44.9107 37.9178 45.6668 34.6667 47.179 28.6558C48.6912 22.6449 49.4472 19.2992 49.4472 18.6187C49.4472 17.1443 48.9558 16.4071 47.9729 16.4071C47.179 16.4071 46.4985 16.9364 45.9314 17.9949C45.3644 19.0535 44.9107 20.2065 44.5705 21.454C44.2302 22.7016 44.0223 23.3821 43.9467 23.4955C43.8711 23.5711 43.5687 23.6089 43.0394 23.6089H42.2455C42.0187 23.3821 41.9053 23.2119 41.9053 23.0985Z" fill="#F7FB0F"/>
<path d="M77.6878 39.9971C74.8524 39.9971 72.5653 39.0709 70.8263 37.2185C69.0873 35.366 68.2178 33.1356 68.2178 30.5271C68.2178 28.0698 68.7848 25.7448 69.919 23.5522C71.0531 21.3595 72.6031 19.4504 74.5689 17.8248C77.442 15.5187 80.3719 14.3657 83.3584 14.3657C84.5682 14.3657 85.3243 14.3846 85.6267 14.4224C86.1181 14.5358 86.6096 14.6682 87.1011 14.8194C87.5925 14.9706 88.2541 15.273 89.0858 15.7267C89.9175 16.1803 90.598 16.7474 91.1272 17.4279C91.6565 18.1083 92.1479 19.0346 92.6016 20.2065C93.0552 21.3784 93.2821 22.7016 93.2821 24.1759C93.2821 28.221 91.6565 31.8691 88.4053 35.1203C85.1541 38.3715 81.5816 39.9971 77.6878 39.9971ZM73.1512 32.5685C73.1512 34.4587 73.6427 35.8197 74.6256 36.6514C75.6085 37.4831 76.7238 37.8989 77.9713 37.8989C79.6347 37.8989 81.2036 37.2941 82.6779 36.0843C84.1523 34.8746 85.3243 33.2868 86.1938 31.321C86.534 30.5271 86.9687 29.1283 87.498 27.1247C88.0273 25.1211 88.2919 23.3821 88.2919 21.9077C88.2919 20.2443 87.9517 18.9778 87.2712 18.1083C86.3639 16.9742 85.1541 16.4072 83.642 16.4072C81.2603 16.4072 79.1621 17.5035 77.3475 19.6961C75.9488 21.3595 74.9091 23.5711 74.2287 26.3308C73.5482 29.0905 73.189 31.1698 73.1512 32.5685Z" fill="#F7FB0F"/>
<path d="M97.9322 2.68416C97.9322 2.30612 98.0078 1.87137 98.159 1.37991C98.3102 0.888455 98.537 0.642726 98.8395 0.642726C98.8773 0.642726 100.238 0.548215 102.922 0.359193C105.606 0.170172 106.986 0.0567585 107.062 0.0189542C107.516 0.0189542 107.742 0.189074 107.742 0.529313C107.742 0.869552 107.1 3.57256 105.814 8.63835C105.512 9.9237 105.191 11.2469 104.85 12.6078C104.51 13.9688 104.227 14.9895 104 15.67L103.773 16.7474C103.773 16.8608 103.886 16.8041 104.113 16.5773C105.966 15.0651 107.875 14.309 109.841 14.309C112.184 14.309 114.075 15.1785 115.511 16.9175C116.948 18.6565 117.685 20.8492 117.723 23.4955C117.723 27.6917 116.229 31.4911 113.243 34.8935C110.256 38.2959 107.043 39.9971 103.603 39.9971C101.713 39.9971 99.9925 39.2788 98.4425 37.8422C96.8925 36.4057 96.0987 34.0807 96.0609 30.8673V30.357C96.0609 29.5631 96.2121 28.4667 96.5145 27.068C96.8169 25.6692 97.7431 21.9455 99.2931 15.8968C101.183 8.44933 102.128 4.49877 102.128 4.04512C102.128 3.59147 101.41 3.32684 99.9736 3.25123C99.7846 3.25123 99.6334 3.25123 99.52 3.25123H99.2364C98.8584 3.25123 98.6126 3.25123 98.4992 3.25123C98.3858 3.25123 98.2535 3.19452 98.1023 3.08111C97.9511 2.96769 97.8944 2.83538 97.9322 2.68416ZM112.846 20.9437V20.6034C112.846 17.8059 111.693 16.4071 109.387 16.4071C108.744 16.4071 108.083 16.5584 107.402 16.8608C106.722 17.1632 106.098 17.5602 105.531 18.0516C104.964 18.5431 104.472 18.9967 104.056 19.4126C103.641 19.8284 103.3 20.2443 103.036 20.6601L102.696 21.1138L101.505 25.9906C100.673 29.2417 100.257 31.5478 100.257 32.9088C100.257 34.7234 100.711 36.0843 101.618 36.9916C102.223 37.5965 102.979 37.8989 103.886 37.8989C105.134 37.8989 106.4 37.2941 107.686 36.0843C108.631 35.2148 109.387 34.1563 109.954 32.9088C110.521 31.6612 111.145 29.6765 111.825 26.9546C112.506 24.2327 112.846 22.229 112.846 20.9437Z" fill="#F7FB0F"/>
<path d="M124.755 36.0276C124.755 37.2751 125.227 37.8989 126.172 37.8989C127.571 37.8989 128.762 35.9141 129.745 31.9447C129.972 31.1886 130.161 30.7917 130.312 30.7538C130.388 30.716 130.577 30.6971 130.879 30.6971H131.106C131.446 30.6971 131.673 30.6971 131.786 30.6971C131.9 30.6971 131.994 30.7349 132.07 30.8106C132.145 30.8862 132.183 31.0185 132.183 31.2075C132.145 31.4343 132.089 31.7368 132.013 32.1148C131.938 32.4929 131.73 33.2111 131.389 34.2697C131.049 35.3282 130.671 36.2166 130.255 36.9349C129.839 37.6531 129.253 38.3525 128.497 39.033C127.741 39.7135 126.872 40.0348 125.889 39.997C124.528 39.997 123.261 39.5812 122.09 38.7495C120.918 37.9178 120.313 36.519 120.275 34.5532C120.275 34.0995 120.294 33.7782 120.332 33.5892L124.018 18.9589C126.399 9.31878 127.59 4.3475 127.59 4.04507C127.59 3.93166 127.571 3.83715 127.533 3.76154C127.496 3.68593 127.42 3.61032 127.307 3.53471C127.193 3.4591 127.099 3.4213 127.023 3.4213C126.947 3.4213 126.796 3.4024 126.569 3.36459C126.343 3.32679 126.191 3.30788 126.116 3.30788C126.04 3.30788 125.87 3.28898 125.605 3.25118C125.341 3.21337 125.152 3.21337 125.038 3.25118C124.66 3.25118 124.414 3.25118 124.301 3.25118C124.188 3.25118 124.036 3.23228 123.847 3.19447C123.658 3.15667 123.545 3.09996 123.507 3.02435C123.469 2.94874 123.45 2.83533 123.45 2.68411C123.45 2.6085 123.488 2.34387 123.564 1.89022C123.753 1.17194 123.961 0.774993 124.188 0.699384C124.414 0.623775 125.775 0.510362 128.271 0.359145C128.838 0.321341 129.48 0.283536 130.199 0.245732C130.917 0.207927 131.484 0.151221 131.9 0.0756122C132.316 3.45386e-06 132.524 -0.0188987 132.524 0.0189056C132.977 0.0189056 133.204 0.170123 133.204 0.472558C133.204 0.888406 131.824 6.55906 129.064 17.4845C126.305 28.41 124.887 34.1373 124.811 34.6666C124.811 34.7422 124.811 34.8934 124.811 35.1203C124.811 35.3471 124.793 35.5361 124.755 35.6873V36.0276Z" fill="#F7FB0F"/>
<path d="M137.229 29.8466C137.229 27.6918 137.588 25.7259 138.306 23.9491C139.024 22.1723 139.951 20.6979 141.085 19.526C142.219 18.3541 143.485 17.3712 144.884 16.5773C146.283 15.7834 147.606 15.1974 148.854 14.8194C150.101 14.4413 151.292 14.2712 152.426 14.309H152.596C154.297 14.309 155.772 14.7249 157.019 15.5566C158.267 16.3882 158.891 17.6169 158.891 19.2425C158.891 22.6449 156.793 24.8753 152.596 25.9338C150.744 26.4253 148.211 26.6899 144.998 26.7277C143.599 26.7277 142.881 26.7655 142.843 26.8412C142.843 26.9168 142.729 27.5783 142.502 28.8259C142.276 30.0734 142.143 31.1698 142.106 32.1149C142.106 33.8917 142.502 35.2904 143.296 36.3111C144.09 37.3319 145.281 37.8611 146.869 37.8989C148.457 37.9367 150.215 37.5776 152.143 36.8215C154.071 36.0654 155.81 34.8179 157.36 33.0789C157.7 32.7008 157.927 32.5118 158.04 32.5118C158.191 32.5118 158.437 32.6819 158.777 33.0222C159.117 33.3624 159.307 33.627 159.344 33.8161C159.382 34.0051 159.212 34.3075 158.834 34.7234C158.456 35.1392 157.889 35.6496 157.133 36.2544C156.377 36.8593 155.507 37.4453 154.524 38.0123C153.541 38.5794 152.351 39.052 150.952 39.43C149.553 39.808 148.116 39.9971 146.642 39.9971C143.656 39.9971 141.349 38.9953 139.724 36.9916C138.098 34.988 137.267 32.6063 137.229 29.8466ZM156.169 19.3559C155.942 17.3901 154.657 16.4071 152.313 16.4071C151.065 16.4071 149.912 16.6718 148.854 17.201C147.795 17.7303 146.944 18.373 146.302 19.1291C145.659 19.8852 145.111 20.6601 144.657 21.454C144.204 22.2479 143.901 22.9284 143.75 23.4955C143.599 24.0625 143.504 24.4217 143.466 24.5729C143.466 24.6107 143.845 24.6296 144.601 24.6296C148.873 24.6296 151.859 24.1759 153.56 23.2686C155.261 22.3613 156.131 21.0571 156.169 19.3559Z" fill="#F7FB0F"/>
<path d="M162.636 23.0985C162.673 22.8717 162.73 22.5693 162.806 22.1912C162.881 21.8132 163.108 21.0949 163.486 20.0364C163.864 18.9778 164.242 18.0894 164.62 17.3712C164.998 16.6529 165.603 15.9535 166.435 15.273C167.267 14.5925 168.098 14.2712 168.93 14.309C169.762 14.3468 170.575 14.4791 171.368 14.706C172.162 14.9328 172.729 15.273 173.07 15.7267C173.41 16.1803 173.712 16.5962 173.977 16.9742C174.242 17.3523 174.393 17.7114 174.431 18.0516L174.544 18.4486C174.544 18.5242 174.563 18.562 174.601 18.562L175.224 17.9382C177.493 15.5187 180.158 14.309 183.22 14.309C183.863 14.309 184.449 14.3468 184.978 14.4224C185.507 14.498 185.999 14.6303 186.452 14.8194C186.906 15.0084 187.265 15.1974 187.53 15.3864C187.794 15.5755 188.078 15.8023 188.38 16.0669C188.683 16.3315 188.872 16.5773 188.947 16.8041C189.023 17.0309 189.174 17.2766 189.401 17.5413C189.628 17.8059 189.704 18.0327 189.628 18.2218C189.552 18.4108 189.609 18.5809 189.798 18.7321C189.987 18.8833 190.025 19.0156 189.911 19.1291L190.365 18.562C192.747 15.7267 195.563 14.309 198.814 14.309C200.856 14.309 202.5 14.8194 203.748 15.8401C204.995 16.8608 205.638 18.3541 205.676 20.3199C205.676 22.2479 204.958 25.2345 203.521 29.2795C202.084 33.3246 201.366 35.7441 201.366 36.538C201.404 37.0672 201.499 37.4264 201.65 37.6154C201.801 37.8044 202.084 37.8989 202.5 37.8989C203.559 37.8989 204.542 37.3319 205.449 36.1977C206.356 35.0636 207.094 33.5136 207.661 31.5478C207.774 31.1319 207.887 30.8862 208.001 30.8106C208.114 30.735 208.417 30.6972 208.908 30.6972C209.664 30.6972 210.042 30.8484 210.042 31.1508C210.042 31.1887 209.967 31.4722 209.815 32.0014C209.513 33.0978 209.097 34.1752 208.568 35.2337C208.039 36.2922 207.169 37.3508 205.959 38.4093C204.75 39.4678 203.445 39.9782 202.047 39.9404C200.27 39.9404 198.985 39.43 198.191 38.4093C197.397 37.3886 197 36.33 197 35.2337C197 34.5154 197.68 32.2472 199.041 28.4289C200.402 24.6107 201.102 21.7376 201.139 19.8095C201.139 17.5791 200.308 16.4639 198.644 16.4639H198.361C195.11 16.4639 192.369 18.373 190.138 22.1912L189.741 22.8717L187.87 30.4704C186.622 35.4227 185.904 38.088 185.715 38.466C185.224 39.4867 184.411 39.9971 183.277 39.9971C182.785 39.9971 182.388 39.8648 182.086 39.6001C181.784 39.3355 181.576 39.1087 181.462 38.9196C181.349 38.7306 181.292 38.5416 181.292 38.3526C181.292 37.9367 181.935 35.2337 183.22 30.2435L185.262 21.9644C185.375 21.3973 185.432 20.679 185.432 19.8095C185.432 17.5791 184.6 16.4639 182.937 16.4639H182.653C179.402 16.4639 176.661 18.373 174.431 22.1912L174.034 22.8717L172.162 30.4704C170.915 35.4227 170.196 38.088 170.007 38.466C169.516 39.4867 168.703 39.9971 167.569 39.9971C167.078 39.9971 166.681 39.8837 166.378 39.6568C166.076 39.43 165.868 39.2032 165.754 38.9764C165.641 38.7495 165.603 38.5605 165.641 38.4093C165.641 37.9178 166.359 34.8179 167.796 29.1094C169.27 23.2875 170.007 20.2443 170.007 19.9797C170.121 19.4126 170.178 18.9022 170.178 18.4486C170.178 17.0876 169.705 16.4071 168.76 16.4071C167.928 16.4071 167.229 16.9364 166.662 17.9949C166.095 19.0535 165.66 20.2065 165.358 21.454C165.055 22.7016 164.828 23.3821 164.677 23.4955C164.601 23.5711 164.299 23.6089 163.77 23.6089H162.976C162.749 23.3821 162.636 23.2119 162.636 23.0985Z" fill="#F7FB0F"/>
<path d="M213.105 30.4704C213.105 26.6522 214.541 23.023 217.414 19.5828C220.287 16.1426 223.52 14.4036 227.111 14.3658C229.039 14.3658 230.74 15.292 232.215 17.1444C232.82 16.0103 233.689 15.4432 234.823 15.4432C235.315 15.4432 235.749 15.5944 236.127 15.8969C236.506 16.1993 236.695 16.5773 236.695 17.031C236.695 17.5224 235.995 20.5468 234.596 26.104C233.198 31.6613 232.479 34.799 232.442 35.5173C232.442 36.4624 232.574 37.0862 232.838 37.3886C233.103 37.6911 233.5 37.8612 234.029 37.899C234.37 37.8612 234.748 37.6911 235.163 37.3886C235.957 36.6325 236.732 34.8179 237.488 31.9448C237.715 31.1887 237.904 30.7918 238.055 30.754C238.131 30.7162 238.32 30.6973 238.623 30.6973H238.849C239.568 30.6973 239.927 30.8674 239.927 31.2076C239.927 31.4344 239.832 31.9448 239.643 32.7387C239.454 33.5326 239.076 34.5533 238.509 35.8009C237.942 37.0484 237.337 37.9935 236.695 38.6362C236.203 39.1276 235.598 39.5246 234.88 39.827C234.577 39.9026 234.124 39.9404 233.519 39.9404C232.234 39.9404 231.156 39.6569 230.287 39.0898C229.417 38.5228 228.85 37.9368 228.585 37.3319L228.245 36.4813C228.207 36.4435 228.132 36.4624 228.018 36.538C227.943 36.6136 227.867 36.6893 227.792 36.7649C225.561 38.8819 223.293 39.9404 220.987 39.9404C218.908 39.9404 217.074 39.1843 215.486 37.6722C213.899 36.16 213.105 33.7594 213.105 30.4704ZM231.137 20.7736C231.137 20.5468 231.043 20.1309 230.854 19.5261C230.665 18.9212 230.23 18.2596 229.55 17.5413C228.869 16.8231 228 16.445 226.941 16.4072C225.618 16.4072 224.351 16.9932 223.142 18.1651C221.932 19.3371 220.987 20.8681 220.306 22.7583C219.21 25.7449 218.435 28.8448 217.981 32.0582C217.981 32.1716 217.981 32.3796 217.981 32.682C217.981 32.9844 217.962 33.2113 217.925 33.3625C217.925 35.0637 218.265 36.2356 218.945 36.8783C219.626 37.521 220.439 37.8612 221.384 37.899C222.82 37.899 224.238 37.2752 225.637 36.0277C227.036 34.7801 227.867 33.8161 228.132 33.1356C228.207 32.9844 228.718 30.9619 229.663 27.068C230.608 23.1742 231.099 21.0761 231.137 20.7736Z" fill="#F7FB0F"/>
</svg>
