<svg viewBox="0 0 240 42" fill="none" xmlns="http://www.w3.org/2000/svg">
<g id="solucion">
<g id="Group">
<g id="Group_2">
<path id="Vector" d="M15.0853 38.4691C17.2494 38.4691 19.2302 37.5154 21.0275 35.608C22.8249 33.7006 23.7419 31.4814 23.7785 28.9505C23.7785 26.6396 22.8249 25.044 20.9175 24.1637C17.0293 23.1733 14.5351 22.4947 13.4347 22.1279C12.3343 21.7611 11.564 21.3943 11.1238 21.0275C8.92297 19.4869 7.82256 17.2678 7.82256 14.37C7.82256 12.1325 8.40945 10.0967 9.58322 8.26272C10.757 6.4287 11.9491 5.05319 13.1596 4.13618C14.2233 3.21916 15.5071 2.48556 17.011 1.93535C18.5149 1.38514 19.6887 1.0917 20.5323 1.05502H21.1376H21.5227C25.044 1.05502 27.5933 2.22879 29.1706 4.57634C29.2072 4.57634 29.4457 4.33792 29.8858 3.86107C30.326 3.38423 30.8028 2.85236 31.3164 2.26547C31.8299 1.67859 32.1967 1.2751 32.4168 1.05502C32.4535 1.05502 32.5268 1.05502 32.6369 1.05502C32.7469 1.05502 32.8386 1.03668 32.912 0.999999C33.3888 0.999999 33.6272 1.12838 33.6272 1.38514C33.6272 1.64191 33.1137 3.86107 32.0867 8.04264C31.0596 12.2242 30.4727 14.3884 30.326 14.5351C30.1793 14.6818 29.8858 14.7368 29.4457 14.7001C28.7121 14.7001 28.3453 14.5351 28.3453 14.205C28.3453 13.9849 28.3636 13.8015 28.4003 13.6547C28.4003 13.5447 28.4186 13.1962 28.4553 12.6094C28.492 12.0225 28.5287 11.5456 28.5653 11.1788C28.5653 9.93168 28.4003 8.84961 28.0702 7.9326C27.74 7.01559 27.4099 6.337 27.0798 5.89684C26.7497 5.45667 26.2912 4.99817 25.7043 4.52132C24.3838 3.75103 22.8799 3.36589 21.1926 3.36589C19.1018 3.36589 17.1577 4.20954 15.3604 5.89684C13.563 7.58413 12.646 9.5282 12.6094 11.729C12.6094 12.8294 12.8845 13.7831 13.4347 14.5901C13.9849 15.3971 14.7368 15.9656 15.6905 16.2957C15.8372 16.3691 17.121 16.7176 19.542 17.3411C21.9629 17.9647 23.1917 18.2948 23.2283 18.3315C24.4755 18.735 25.6859 19.6153 26.8597 20.9725C28.0335 22.3297 28.6204 24.1637 28.6204 26.4746C28.6204 27.4282 28.4736 28.4553 28.1802 29.5557C27.9968 30.3627 27.6667 31.2613 27.1898 32.2517C26.713 33.2421 26.0527 34.3242 25.2091 35.4979C24.3654 36.6717 23.155 37.7721 21.5777 38.7992C20.0005 39.8262 18.2765 40.5232 16.4058 40.89C15.9656 40.9633 15.342 41 14.5351 41C10.9037 41 8.07932 39.9913 6.0619 37.9739L5.51169 37.3686L3.97111 39.0743C3.12746 40.0646 2.61394 40.6332 2.43054 40.7799C2.24713 40.9266 2.00871 41 1.71527 41C1.23842 41 1 40.8533 1 40.5598C1 40.4498 2.06373 36.1398 4.1912 27.63C4.26456 27.4099 4.63136 27.2999 5.29161 27.2999H6.00688C6.22696 27.5199 6.337 27.7217 6.337 27.9051C6.337 27.9784 6.31866 28.1435 6.28198 28.4003C6.2453 28.657 6.17194 29.0422 6.0619 29.5557C5.95186 30.0692 5.91518 30.6745 5.95186 31.3714C6.02522 32.8019 6.35534 34.0124 6.94223 35.0028C7.52912 35.9931 8.31774 36.7267 9.30812 37.2036C10.2985 37.6804 11.2522 38.0105 12.1692 38.1939C13.0862 38.3773 14.0582 38.4691 15.0853 38.4691Z" fill="#FD0C0C" stroke="#FD0C0C"/>
</g>
<g id="Group_3">
<path id="Vector_2" d="M42.9251 40.395C40.1741 40.395 37.9549 39.4963 36.2676 37.699C34.5803 35.9017 33.7367 33.7375 33.7367 31.2066C33.7367 28.8223 34.2869 26.5665 35.3873 24.439C36.4877 22.3116 37.9916 20.4592 39.899 18.882C42.6867 16.6444 45.5294 15.5257 48.4272 15.5257C49.601 15.5257 50.3346 15.544 50.628 15.5807C51.1049 15.6908 51.5817 15.8191 52.0586 15.9659C52.5354 16.1126 53.1773 16.406 53.9843 16.8462C54.7913 17.2864 55.4515 17.8366 55.965 18.4968C56.4786 19.1571 56.9554 20.0557 57.3956 21.1928C57.8357 22.3299 58.0558 23.6137 58.0558 25.0443C58.0558 28.9691 56.4786 32.5087 53.324 35.6632C50.1695 38.8178 46.7032 40.395 42.9251 40.395ZM38.5235 33.1873C38.5235 35.0213 39.0003 36.3418 39.954 37.1488C40.9077 37.9558 41.9898 38.3593 43.2002 38.3593C44.8142 38.3593 46.3364 37.7724 47.767 36.5986C49.1975 35.4248 50.3346 33.8842 51.1782 31.9769C51.5084 31.2066 51.9302 29.8494 52.4437 27.9053C52.9572 25.9613 53.214 24.274 53.214 22.8434C53.214 21.2295 52.8839 20.0007 52.2236 19.1571C51.3433 18.0566 50.1695 17.5064 48.7023 17.5064C46.3914 17.5064 44.3557 18.5702 42.595 20.6976C41.2378 22.3116 40.2291 24.4574 39.5689 27.135C38.9086 29.8127 38.5602 31.8301 38.5235 33.1873Z" fill="#FD0C0C" stroke="#FD0C0C"/>
</g>
<g id="Group_4">
<path id="Vector_3" d="M64.9882 36.5431C64.9882 37.7536 65.4467 38.3588 66.3637 38.3588C67.7209 38.3588 68.8764 36.4331 69.83 32.5816C70.0501 31.848 70.2335 31.4629 70.3803 31.4262C70.4536 31.3895 70.637 31.3712 70.9305 31.3712H71.1505C71.4807 31.3712 71.7008 31.3712 71.8108 31.3712C71.9208 31.3712 72.0125 31.4079 72.0859 31.4812C72.1593 31.5546 72.1959 31.683 72.1959 31.8664C72.1593 32.0864 72.1042 32.3799 72.0309 32.7467C71.9575 33.1135 71.7558 33.8104 71.4256 34.8375C71.0955 35.8645 70.7287 36.7265 70.3252 37.4235C69.9217 38.1204 69.3532 38.799 68.6196 39.4592C67.886 40.1195 67.0423 40.4312 66.0886 40.3946C64.7681 40.3946 63.5394 39.9911 62.4023 39.1841C61.2652 38.3771 60.6783 37.02 60.6416 35.1126C60.6416 34.6724 60.6599 34.3606 60.6966 34.1772L64.273 19.9819C66.5838 10.6284 67.7393 5.80493 67.7393 5.51148C67.7393 5.40144 67.7209 5.30974 67.6842 5.23638C67.6476 5.16302 67.5742 5.08966 67.4642 5.0163C67.3541 4.94294 67.2624 4.90625 67.1891 4.90625C67.1157 4.90625 66.969 4.88791 66.7489 4.85123C66.5288 4.81455 66.3821 4.79621 66.3087 4.79621C66.2354 4.79621 66.0703 4.77787 65.8135 4.74119C65.5568 4.70451 65.3734 4.70451 65.2633 4.74119C64.8965 4.74119 64.6581 4.74119 64.5481 4.74119C64.438 4.74119 64.2913 4.72285 64.1079 4.68617C63.9245 4.64949 63.8145 4.59447 63.7778 4.52111C63.7411 4.44775 63.7228 4.33771 63.7228 4.19099C63.7228 4.11763 63.7594 3.86086 63.8328 3.4207C64.0162 2.72377 64.2179 2.33863 64.438 2.26526C64.6581 2.1919 65.9786 2.08186 68.3995 1.93514C68.9497 1.89846 69.5733 1.86178 70.2702 1.8251C70.9671 1.78842 71.5173 1.7334 71.9208 1.66004C72.3243 1.58668 72.5261 1.56834 72.5261 1.60502C72.9662 1.60502 73.1863 1.75174 73.1863 2.04518C73.1863 2.44867 71.8475 7.95073 69.1698 18.5514C66.4921 29.152 65.1166 34.7091 65.0433 35.2226C65.0433 35.296 65.0433 35.4427 65.0433 35.6628C65.0433 35.8829 65.0249 36.0663 64.9882 36.213V36.5431Z" fill="#FD0C0C" stroke="#FD0C0C"/>
</g>
<g id="Group_5">
<path id="Vector_4" d="M76.1028 23.9989C76.1028 23.7054 76.2678 23.1369 76.598 22.2932C76.9281 21.4496 77.3866 20.4959 77.9735 19.4322C78.5604 18.3684 79.3673 17.4514 80.3944 16.6811C81.4214 15.9108 82.5035 15.5073 83.6406 15.4707C85.3279 15.4707 86.5934 15.9292 87.437 16.8462C88.2807 17.7632 88.7025 18.8453 88.7025 20.0924C88.7025 20.7527 88.0789 22.8068 86.8318 26.2547C85.5847 29.7027 84.9611 32.2886 84.9611 34.0126C84.9611 35.5899 85.2179 36.6903 85.7314 37.3139C86.2449 37.9374 87.0152 38.2676 88.0423 38.3042C89.0693 38.3409 90.0413 38.0291 90.9583 37.3689C91.8754 36.7086 92.5539 36.0851 92.9941 35.4982L93.5993 34.5628C93.6727 34.4161 94.3696 31.6284 95.6901 26.1997C96.7905 21.798 97.4508 19.2304 97.6709 18.4968C97.8909 17.7632 98.1477 17.2313 98.4412 16.9012C99.0647 16.351 99.725 16.0759 100.422 16.0759C101.045 16.0759 101.504 16.2593 101.797 16.6261C102.091 16.9929 102.238 17.3414 102.238 17.6715L98.056 35.1681C98.0193 35.3515 98.001 35.6449 98.001 36.0484C98.001 36.9654 98.1294 37.5706 98.3861 37.8641C98.6429 38.1575 99.028 38.3226 99.5416 38.3593C100.349 38.2492 100.99 37.6807 101.467 36.6536C101.944 35.6266 102.494 34.0126 103.118 31.8118C103.191 31.5184 103.558 31.3716 104.218 31.3716C104.915 31.3716 105.264 31.5367 105.264 31.8668C105.227 32.0502 105.19 32.307 105.154 32.6371C105.117 32.9672 104.952 33.5541 104.658 34.3978C104.365 35.2414 104.053 36.03 103.723 36.7637C103.393 37.4973 102.935 38.1942 102.348 38.8544C101.761 39.5147 101.1 39.9732 100.367 40.23C100.073 40.3033 99.6333 40.34 99.0464 40.34C96.6255 40.34 94.9565 39.3129 94.0395 37.2588C93.9661 37.2955 93.7644 37.4789 93.4343 37.809C93.1042 38.1392 92.774 38.4143 92.4439 38.6344C92.1138 38.8544 91.7103 39.1295 91.2335 39.4597C90.7566 39.7898 90.2247 40.0099 89.6379 40.1199C89.051 40.23 88.4274 40.3217 87.7672 40.395C86.1532 40.395 84.7227 40.0649 83.4755 39.4046C81.5682 38.2676 80.6145 36.3235 80.6145 33.5725C80.6145 31.4817 81.2564 28.749 82.5402 25.3744C83.824 21.9998 84.4659 19.854 84.4659 18.937C84.4659 18.9003 84.4659 18.8636 84.4659 18.8269C84.4659 18.4968 84.4659 18.2767 84.4659 18.1667C84.4659 18.0566 84.3926 17.9283 84.2458 17.7815C84.0991 17.6348 83.8974 17.5615 83.6406 17.5615H83.4205C82.5769 17.5615 81.8066 17.9099 81.1097 18.6068C80.4127 19.3038 79.8625 20.0557 79.459 20.8627C79.0556 21.6697 78.7438 22.44 78.5237 23.1736C78.3036 23.9072 78.1569 24.3107 78.0835 24.384C78.0102 24.4574 77.7167 24.4941 77.2032 24.4941H76.4329C76.2128 24.274 76.1028 24.1089 76.1028 23.9989Z" fill="#FD0C0C" stroke="#FD0C0C"/>
</g>
<g id="Group_6">
<path id="Vector_5" d="M108.29 31.0415C108.29 27.0433 109.867 23.4486 113.022 20.2574C116.176 17.0662 119.588 15.4706 123.256 15.4706C125.31 15.4706 126.924 15.9108 128.098 16.7911C129.271 17.6715 129.877 18.8269 129.913 20.2574C129.913 21.3212 129.565 22.2198 128.868 22.9535C128.171 23.6871 127.291 24.0722 126.227 24.1089C125.53 24.1089 124.98 23.9255 124.576 23.5587C124.173 23.1919 123.971 22.6417 123.971 21.9081C123.971 21.1745 124.173 20.5509 124.576 20.0374C124.98 19.5238 125.383 19.1387 125.787 18.8819C126.19 18.6252 126.447 18.5151 126.557 18.5518H126.612C126.612 18.4784 126.502 18.3684 126.282 18.2217C126.062 18.075 125.677 17.9282 125.126 17.7815C124.576 17.6348 123.953 17.5614 123.256 17.5614C122.155 17.5614 121.11 17.8182 120.12 18.3317C119.349 18.6618 118.561 19.2304 117.754 20.0374C116.14 21.6513 114.966 23.9255 114.232 26.8599C113.499 29.7944 113.114 31.9218 113.077 33.2423C113.077 34.9296 113.554 36.1951 114.507 37.0387C115.314 37.9191 116.378 38.3592 117.699 38.3592H117.919C122.027 38.3592 125.42 36.8003 128.098 33.6825C128.428 33.3157 128.648 33.1323 128.758 33.1323C128.905 33.1323 129.143 33.2973 129.473 33.6275C129.803 33.9576 129.987 34.2143 130.023 34.3977C130.06 34.5811 129.895 34.8563 129.528 35.2231C129.161 35.5899 128.629 36.1034 127.933 36.7636C127.236 37.4239 126.41 37.9741 125.457 38.4143C124.503 38.8544 123.329 39.3129 121.935 39.7898C120.541 40.2666 119.074 40.4684 117.534 40.395C114.783 40.395 112.563 39.5147 110.876 37.754C109.189 35.9933 108.327 33.7558 108.29 31.0415Z" fill="#FD0C0C" stroke="#FD0C0C"/>
</g>
<g id="Group_7">
<path id="Vector_6" d="M140.369 6.77741C140.369 5.89708 140.717 5.12679 141.414 4.46654C142.111 3.8063 142.918 3.45783 143.835 3.42115C144.495 3.42115 145.045 3.64123 145.486 4.0814C145.926 4.52156 146.164 5.07177 146.201 5.73202C146.201 6.57567 145.834 7.34596 145.1 8.04288C144.367 8.73981 143.56 9.10662 142.68 9.1433C142.129 9.1433 141.616 8.9599 141.139 8.59309C140.662 8.22629 140.405 7.62106 140.369 6.77741ZM131.4 23.9989C131.4 23.7054 131.565 23.1369 131.895 22.2932C132.226 21.4496 132.666 20.5142 133.216 19.4872C133.766 18.4601 134.573 17.5248 135.637 16.6811C136.701 15.8375 137.801 15.434 138.938 15.4707C140.369 15.4707 141.561 15.8925 142.514 16.7361C143.468 17.5798 143.963 18.7169 144 20.1474C144 20.771 143.743 21.798 143.23 23.2286C142.716 24.6591 141.983 26.5848 141.029 29.0057C140.075 31.4267 139.305 33.4991 138.718 35.2231C138.535 36.03 138.443 36.6169 138.443 36.9837C138.443 37.9008 138.755 38.3593 139.378 38.3593C139.708 38.3593 140.057 38.3042 140.424 38.1942C140.79 38.0842 141.212 37.8274 141.689 37.4239C142.166 37.0204 142.661 36.3785 143.175 35.4982C143.688 34.6179 144.147 33.5358 144.55 32.252C144.66 31.8118 144.752 31.555 144.825 31.4817C144.899 31.4083 145.21 31.3716 145.761 31.3716C146.494 31.3716 146.861 31.555 146.861 31.9218C146.861 32.2153 146.696 32.7838 146.366 33.6275C146.036 34.4711 145.577 35.4065 144.99 36.4335C144.403 37.4606 143.578 38.3776 142.514 39.1846C141.451 39.9915 140.314 40.395 139.103 40.395C137.929 40.395 136.847 40.0099 135.857 39.2396C134.867 38.4693 134.353 37.2955 134.316 35.7183C134.316 35.0947 134.408 34.5078 134.591 33.9576C134.775 33.4074 135.563 31.3166 136.957 27.6853C138.351 23.9805 139.158 21.7614 139.378 21.0278C139.598 20.2941 139.727 19.5789 139.763 18.882C139.763 18.0016 139.452 17.5615 138.828 17.5615H138.718C137.618 17.5615 136.609 18.1667 135.692 19.3771C134.775 20.5876 134.078 22.1282 133.601 23.9989C133.564 24.0355 133.528 24.0906 133.491 24.1639C133.454 24.2373 133.436 24.2923 133.436 24.329C133.436 24.3657 133.399 24.4024 133.326 24.439C133.253 24.4757 133.198 24.4941 133.161 24.4941C133.124 24.4941 133.051 24.4941 132.941 24.4941C132.831 24.4941 132.684 24.4941 132.501 24.4941H131.73C131.51 24.274 131.4 24.1089 131.4 23.9989Z" fill="#FD0C0C" stroke="#FD0C0C"/>
</g>
<g id="Group_8">
<g id="Group_9">
<g id="Group_10">
<path id="Vector_7" d="M160.697 40.395C157.946 40.395 155.727 39.4963 154.039 37.699C152.352 35.9017 151.508 33.7375 151.508 31.2066C151.508 28.8223 152.059 26.5665 153.159 24.439C154.259 22.3116 155.763 20.4592 157.671 18.882C160.458 16.6444 163.301 15.5257 166.199 15.5257C167.373 15.5257 168.106 15.544 168.4 15.5807C168.877 15.6908 169.353 15.8191 169.83 15.9659C170.307 16.1126 170.949 16.406 171.756 16.8462C172.563 17.2864 173.223 17.8366 173.737 18.4968C174.25 19.1571 174.727 20.0557 175.167 21.1928C175.607 22.3299 175.828 23.6137 175.828 25.0443C175.828 28.9691 174.25 32.5087 171.096 35.6632C167.941 38.8178 164.475 40.395 160.697 40.395ZM156.295 33.1873C156.295 35.0213 156.772 36.3418 157.726 37.1488C158.679 37.9558 159.762 38.3593 160.972 38.3593C162.586 38.3593 164.108 37.7724 165.539 36.5986C166.969 35.4248 168.106 33.8842 168.95 31.9769C169.28 31.2066 169.702 29.8494 170.215 27.9053C170.729 25.9613 170.986 24.274 170.986 22.8434C170.986 21.2295 170.656 20.0007 169.995 19.1571C169.115 18.0566 167.941 17.5064 166.474 17.5064C164.163 17.5064 162.127 18.5702 160.367 20.6976C159.01 22.3116 158.001 24.4574 157.341 27.135C156.68 29.8127 156.332 31.8301 156.295 33.1873Z" fill="#FD0C0C" stroke="#FD0C0C"/>
</g>
<g id="Group_11">
<path id="Vector_8" d="M171.486 1.55061C172.146 1.55061 172.715 1.78903 173.192 2.26588C173.669 2.74272 173.907 3.29293 173.907 3.91649C173.907 4.0999 173.889 4.26496 173.852 4.41168C173.815 4.5584 173.724 4.7418 173.577 4.96189C173.43 5.18197 173.302 5.36537 173.192 5.51209C173.082 5.65881 172.843 5.86056 172.476 6.11732C172.11 6.37408 171.816 6.63085 171.596 6.88761C171.376 7.14437 170.991 7.45615 170.441 7.82296C169.89 8.18976 169.395 8.59325 168.955 9.03341L165.049 12.2246L164.223 11.4543C163.71 10.9408 163.471 10.684 163.508 10.684C163.508 10.6474 163.967 10.0238 164.884 8.81333C165.801 7.60288 166.773 6.3374 167.8 5.01691C168.827 3.69641 169.395 2.92612 169.505 2.70604L169.67 2.54098C169.744 2.43094 169.835 2.33924 169.945 2.26588C170.056 2.19251 170.184 2.08247 170.331 1.93575C170.477 1.78903 170.642 1.69733 170.826 1.66065C171.009 1.62397 171.229 1.58729 171.486 1.55061Z" fill="#FD0C0C" stroke="#FD0C0C"/>
</g>
</g>
</g>
<g id="Group_12">
<path id="Vector_9" d="M180.949 23.9989C180.986 23.7788 181.041 23.4853 181.114 23.1185C181.188 22.7517 181.408 22.0548 181.775 21.0278C182.141 20.0007 182.508 19.1387 182.875 18.4418C183.242 17.7449 183.847 17.0663 184.691 16.406C185.534 15.7458 186.378 15.434 187.222 15.4707C188.542 15.4707 189.642 15.8008 190.523 16.461C191.403 17.1213 191.953 17.7449 192.173 18.3317C192.394 18.9186 192.504 19.3038 192.504 19.4872C192.504 19.5605 192.522 19.5972 192.559 19.5972L193.164 18.992C195.401 16.6444 197.951 15.4707 200.812 15.4707C202.792 15.4707 204.388 15.9659 205.598 16.9562C206.809 17.9466 207.432 19.3955 207.469 21.3029C207.506 23.2102 206.809 26.0897 205.378 29.9411C203.948 33.7925 203.251 36.1217 203.288 36.9287C203.288 37.8824 203.599 38.3593 204.223 38.3593C204.443 38.3593 204.608 38.3409 204.718 38.3042C205.782 38.1208 206.736 37.4239 207.579 36.2135C208.423 35.003 209.065 33.5358 209.505 31.8118C209.578 31.5184 209.945 31.3716 210.605 31.3716C211.339 31.3716 211.706 31.5184 211.706 31.8118C211.706 31.8485 211.632 32.1236 211.486 32.6371C211.192 33.7008 210.789 34.7462 210.275 35.7733C209.762 36.8003 208.918 37.8274 207.744 38.8544C206.57 39.8815 205.305 40.3767 203.948 40.34C202.224 40.34 200.977 39.8448 200.206 38.8544C199.436 37.8641 199.051 36.837 199.051 35.7733C199.051 35.0764 199.711 32.8755 201.032 29.1708C202.352 25.4661 203.031 22.6784 203.068 20.8077C203.068 18.6435 202.261 17.5615 200.647 17.5615H200.371C197.217 17.5615 194.558 19.4138 192.394 23.1185L192.008 23.7788L190.193 31.1516C188.982 35.9567 188.285 38.5427 188.102 38.9095C187.625 39.8998 186.836 40.395 185.736 40.395C185.259 40.395 184.874 40.285 184.581 40.0649C184.287 39.8448 184.085 39.6247 183.975 39.4046C183.865 39.1846 183.829 39.0012 183.865 38.8544C183.865 38.3776 184.562 35.3881 185.956 29.8861C187.35 24.384 188.084 21.3946 188.157 20.9177C188.194 20.7343 188.212 20.3125 188.212 19.6522C188.212 18.2217 187.772 17.5064 186.891 17.5064C185.498 17.5064 184.342 19.3405 183.425 23.0085C183.205 23.7421 183.095 24.1272 183.095 24.1639C183.022 24.384 182.673 24.4941 182.05 24.4941H181.279C181.059 24.274 180.949 24.1089 180.949 23.9989Z" fill="#FD0C0C" stroke="#FD0C0C"/>
</g>
<g id="Group_13">
<path id="Vector_10" d="M232.384 19.4319C232.384 18.5516 232.695 17.7813 233.319 17.121C233.942 16.4608 234.731 16.1307 235.685 16.1307C236.565 16.1307 237.335 16.4241 237.996 17.011C238.656 17.5979 239.004 18.3865 239.041 19.3769C239.041 20.2939 238.729 21.0825 238.106 21.7428C237.482 22.403 236.693 22.7332 235.74 22.7332C234.786 22.7332 233.997 22.4214 233.374 21.7978C232.75 21.1742 232.42 20.3856 232.384 19.4319ZM232.384 36.4883C232.384 35.608 232.695 34.8377 233.319 34.1774C233.942 33.5172 234.731 33.1871 235.685 33.1871C236.565 33.1871 237.335 33.4805 237.996 34.0674C238.656 34.6543 239.004 35.4429 239.041 36.4333C239.041 37.3503 238.729 38.1389 238.106 38.7992C237.482 39.4594 236.693 39.7896 235.74 39.7896C234.786 39.7896 233.997 39.4778 233.374 38.8542C232.75 38.2306 232.42 37.442 232.384 36.4883Z" fill="#FD0C0C" stroke="#FD0C0C"/>
</g>
</g>
</g>
</svg>
