<svg  viewBox="0 0 1020 267" fill="none" xmlns="http://www.w3.org/2000/svg">
<g id="0119208">
<g id="213 (1) 221 35 (4) 22 21 (x) 12">
<path d="M22.1455 38H0.717773V35.0127L12.0381 22.4346C13.7152 20.5329 14.8682 18.9906 15.4971 17.8076C16.141 16.6097 16.4629 15.3743 16.4629 14.1016C16.4629 12.3945 15.9463 10.9945 14.9131 9.90137C13.8799 8.80827 12.5023 8.26172 10.7803 8.26172C8.71387 8.26172 7.10417 8.85319 5.95117 10.0361C4.81315 11.2041 4.24414 12.8363 4.24414 14.9326H0.0888672C0.0888672 11.9229 1.05469 9.48958 2.98633 7.63281C4.93294 5.77604 7.53092 4.84766 10.7803 4.84766C13.82 4.84766 16.2233 5.64876 17.9902 7.25098C19.7572 8.83822 20.6406 10.957 20.6406 13.6074C20.6406 16.8268 18.5892 20.6602 14.4863 25.1074L5.72656 34.6084H22.1455V38Z" fill="white"/>
<path d="M40.2041 38H36.0264V10.3057L27.6484 13.3828V9.60938L39.5527 5.13965H40.2041V38Z" fill="white"/>
<path d="M58.4199 19.627H61.542C63.5036 19.597 65.0459 19.0804 66.1689 18.0771C67.292 17.0739 67.8535 15.7188 67.8535 14.0117C67.8535 10.1784 65.9443 8.26172 62.126 8.26172C60.3291 8.26172 58.8916 8.77832 57.8135 9.81152C56.7503 10.8298 56.2188 12.1849 56.2188 13.877H52.0635C52.0635 11.2865 53.0068 9.1377 54.8936 7.43066C56.7952 5.70866 59.2061 4.84766 62.126 4.84766C65.2106 4.84766 67.6289 5.66374 69.3809 7.2959C71.1328 8.92806 72.0088 11.1966 72.0088 14.1016C72.0088 15.5241 71.5446 16.9017 70.6162 18.2344C69.7028 19.5671 68.4525 20.5628 66.8652 21.2217C68.6621 21.7907 70.0472 22.734 71.0205 24.0518C72.0088 25.3695 72.5029 26.9792 72.5029 28.8809C72.5029 31.8158 71.5446 34.1442 69.6279 35.8662C67.7113 37.5882 65.2181 38.4492 62.1484 38.4492C59.0788 38.4492 56.5781 37.6182 54.6465 35.9561C52.7298 34.2939 51.7715 32.1003 51.7715 29.375H55.9492C55.9492 31.097 56.5107 32.4746 57.6338 33.5078C58.7568 34.541 60.2617 35.0576 62.1484 35.0576C64.1549 35.0576 65.6898 34.5335 66.7529 33.4854C67.8161 32.4372 68.3477 30.9323 68.3477 28.9707C68.3477 27.069 67.7637 25.609 66.5957 24.5908C65.4277 23.5726 63.7432 23.0485 61.542 23.0186H58.4199V19.627Z" fill="white"/>
<path d="M135.528 24.7256C135.528 21.3415 135.978 18.0921 136.876 14.9775C137.789 11.863 139.145 9.03288 140.941 6.4873C142.738 3.94173 144.603 2.14486 146.534 1.09668L147.388 3.83691C145.201 5.514 143.405 8.07454 141.997 11.5186C140.604 14.9626 139.841 18.8184 139.706 23.0859L139.684 24.9951C139.684 30.7751 140.739 35.7913 142.851 40.0439C144.123 42.5895 145.636 44.5811 147.388 46.0186L146.534 48.5566C144.543 47.4486 142.641 45.5918 140.829 42.9863C137.295 37.8952 135.528 31.8083 135.528 24.7256Z" fill="white"/>
<path d="M164.638 38H160.46V10.3057L152.082 13.3828V9.60938L163.986 5.13965H164.638V38Z" fill="white"/>
<path d="M186.829 24.9502C186.829 28.2894 186.387 31.4938 185.504 34.5635C184.635 37.6182 183.295 40.4408 181.483 43.0312C179.687 45.6217 177.8 47.4635 175.823 48.5566L174.947 46.0186C177.253 44.2516 179.103 41.5114 180.495 37.7979C181.903 34.0693 182.621 29.9365 182.651 25.3994V24.6807C182.651 21.5361 182.322 18.6162 181.663 15.9209C181.004 13.2106 180.083 10.7848 178.9 8.64355C177.732 6.50228 176.415 4.83268 174.947 3.63477L175.823 1.09668C177.8 2.18978 179.679 4.0166 181.461 6.57715C183.258 9.1377 184.598 11.9603 185.481 15.0449C186.38 18.1296 186.829 21.4313 186.829 24.9502Z" fill="white"/>
<path d="M271.282 38H249.854V35.0127L261.175 22.4346C262.852 20.5329 264.005 18.9906 264.634 17.8076C265.278 16.6097 265.6 15.3743 265.6 14.1016C265.6 12.3945 265.083 10.9945 264.05 9.90137C263.017 8.80827 261.639 8.26172 259.917 8.26172C257.851 8.26172 256.241 8.85319 255.088 10.0361C253.95 11.2041 253.381 12.8363 253.381 14.9326H249.226C249.226 11.9229 250.191 9.48958 252.123 7.63281C254.07 5.77604 256.668 4.84766 259.917 4.84766C262.957 4.84766 265.36 5.64876 267.127 7.25098C268.894 8.83822 269.777 10.957 269.777 13.6074C269.777 16.8268 267.726 20.6602 263.623 25.1074L254.863 34.6084H271.282V38Z" fill="white"/>
<path d="M297.112 38H275.685V35.0127L287.005 22.4346C288.682 20.5329 289.835 18.9906 290.464 17.8076C291.108 16.6097 291.43 15.3743 291.43 14.1016C291.43 12.3945 290.913 10.9945 289.88 9.90137C288.847 8.80827 287.469 8.26172 285.747 8.26172C283.681 8.26172 282.071 8.85319 280.918 10.0361C279.78 11.2041 279.211 12.8363 279.211 14.9326H275.056C275.056 11.9229 276.021 9.48958 277.953 7.63281C279.9 5.77604 282.498 4.84766 285.747 4.84766C288.787 4.84766 291.19 5.64876 292.957 7.25098C294.724 8.83822 295.607 10.957 295.607 13.6074C295.607 16.8268 293.556 20.6602 289.453 25.1074L280.693 34.6084H297.112V38Z" fill="white"/>
<path d="M315.171 38H310.993V10.3057L302.615 13.3828V9.60938L314.52 5.13965H315.171V38Z" fill="white"/>
<path d="M6.75977 96.627H9.88184C11.8434 96.597 13.3857 96.0804 14.5088 95.0771C15.6318 94.0739 16.1934 92.7188 16.1934 91.0117C16.1934 87.1784 14.2842 85.2617 10.4658 85.2617C8.66895 85.2617 7.23145 85.7783 6.15332 86.8115C5.09017 87.8298 4.55859 89.1849 4.55859 90.877H0.40332C0.40332 88.2865 1.34668 86.1377 3.2334 84.4307C5.13509 82.7087 7.5459 81.8477 10.4658 81.8477C13.5505 81.8477 15.9688 82.6637 17.7207 84.2959C19.4727 85.9281 20.3486 88.1966 20.3486 91.1016C20.3486 92.5241 19.8844 93.9017 18.9561 95.2344C18.0426 96.5671 16.7923 97.5628 15.2051 98.2217C17.002 98.7907 18.387 99.734 19.3604 101.052C20.3486 102.369 20.8428 103.979 20.8428 105.881C20.8428 108.816 19.8844 111.144 17.9678 112.866C16.0511 114.588 13.5579 115.449 10.4883 115.449C7.41862 115.449 4.91797 114.618 2.98633 112.956C1.06966 111.294 0.111328 109.1 0.111328 106.375H4.28906C4.28906 108.097 4.85059 109.475 5.97363 110.508C7.09668 111.541 8.60156 112.058 10.4883 112.058C12.4948 112.058 14.0296 111.534 15.0928 110.485C16.1559 109.437 16.6875 107.932 16.6875 105.971C16.6875 104.069 16.1035 102.609 14.9355 101.591C13.7676 100.573 12.083 100.049 9.88184 100.019H6.75977V96.627Z" fill="white"/>
<path d="M28.457 98.6035L30.1191 82.2969H46.875V86.1377H33.6455L32.6572 95.0547C34.2594 94.1113 36.0788 93.6396 38.1152 93.6396C41.0951 93.6396 43.4609 94.6279 45.2129 96.6045C46.9648 98.5661 47.8408 101.224 47.8408 104.578C47.8408 107.947 46.9274 110.605 45.1006 112.552C43.2887 114.483 40.7507 115.449 37.4863 115.449C34.5964 115.449 32.238 114.648 30.4111 113.046C28.5843 111.444 27.5436 109.228 27.2891 106.397H31.2197C31.4743 108.269 32.1406 109.684 33.2188 110.643C34.2969 111.586 35.7194 112.058 37.4863 112.058C39.418 112.058 40.9303 111.399 42.0234 110.081C43.1315 108.763 43.6855 106.944 43.6855 104.623C43.6855 102.437 43.0866 100.685 41.8887 99.3672C40.7057 98.0345 39.126 97.3682 37.1494 97.3682C35.3376 97.3682 33.915 97.765 32.8818 98.5586L31.7812 99.457L28.457 98.6035Z" fill="white"/>
<path d="M132.519 101.726C132.519 98.3415 132.968 95.0921 133.866 91.9775C134.78 88.863 136.135 86.0329 137.932 83.4873C139.729 80.9417 141.593 79.1449 143.524 78.0967L144.378 80.8369C142.192 82.514 140.395 85.0745 138.987 88.5186C137.595 91.9626 136.831 95.8184 136.696 100.086L136.674 101.995C136.674 107.775 137.729 112.791 139.841 117.044C141.114 119.59 142.626 121.581 144.378 123.019L143.524 125.557C141.533 124.449 139.631 122.592 137.819 119.986C134.285 114.895 132.519 108.808 132.519 101.726Z" fill="white"/>
<path d="M165.514 104.017H170.051V107.408H165.514V115H161.336V107.408H146.444V104.96L161.089 82.2969H165.514V104.017ZM151.161 104.017H161.336V87.9795L160.842 88.8779L151.161 104.017Z" fill="white"/>
<path d="M183.819 101.95C183.819 105.289 183.378 108.494 182.494 111.563C181.626 114.618 180.285 117.441 178.474 120.031C176.677 122.622 174.79 124.464 172.813 125.557L171.938 123.019C174.243 121.252 176.093 118.511 177.485 114.798C178.893 111.069 179.612 106.937 179.642 102.399V101.681C179.642 98.5361 179.312 95.6162 178.653 92.9209C177.994 90.2106 177.074 87.7848 175.891 85.6436C174.723 83.5023 173.405 81.8327 171.938 80.6348L172.813 78.0967C174.79 79.1898 176.669 81.0166 178.451 83.5771C180.248 86.1377 181.588 88.9603 182.472 92.0449C183.37 95.1296 183.819 98.4313 183.819 101.95Z" fill="white"/>
<path d="M291.093 115H269.665V112.013L280.985 99.4346C282.662 97.5329 283.815 95.9906 284.444 94.8076C285.088 93.6097 285.41 92.3743 285.41 91.1016C285.41 89.3945 284.894 87.9945 283.86 86.9014C282.827 85.8083 281.45 85.2617 279.728 85.2617C277.661 85.2617 276.051 85.8532 274.898 87.0361C273.76 88.2041 273.191 89.8363 273.191 91.9326H269.036C269.036 88.9229 270.002 86.4896 271.934 84.6328C273.88 82.776 276.478 81.8477 279.728 81.8477C282.767 81.8477 285.171 82.6488 286.938 84.251C288.704 85.8382 289.588 87.957 289.588 90.6074C289.588 93.8268 287.536 97.6602 283.434 102.107L274.674 111.608H291.093V115Z" fill="white"/>
<path d="M316.923 115H295.495V112.013L306.815 99.4346C308.493 97.5329 309.646 95.9906 310.274 94.8076C310.918 93.6097 311.24 92.3743 311.24 91.1016C311.24 89.3945 310.724 87.9945 309.69 86.9014C308.657 85.8083 307.28 85.2617 305.558 85.2617C303.491 85.2617 301.882 85.8532 300.729 87.0361C299.59 88.2041 299.021 89.8363 299.021 91.9326H294.866C294.866 88.9229 295.832 86.4896 297.764 84.6328C299.71 82.776 302.308 81.8477 305.558 81.8477C308.597 81.8477 311.001 82.6488 312.768 84.251C314.535 85.8382 315.418 87.957 315.418 90.6074C315.418 93.8268 313.367 97.6602 309.264 102.107L300.504 111.608H316.923V115Z" fill="white"/>
<path d="M22.1455 192H0.717773V189.013L12.0381 176.435C13.7152 174.533 14.8682 172.991 15.4971 171.808C16.141 170.61 16.4629 169.374 16.4629 168.102C16.4629 166.395 15.9463 164.994 14.9131 163.901C13.8799 162.808 12.5023 162.262 10.7803 162.262C8.71387 162.262 7.10417 162.853 5.95117 164.036C4.81315 165.204 4.24414 166.836 4.24414 168.933H0.0888672C0.0888672 165.923 1.05469 163.49 2.98633 161.633C4.93294 159.776 7.53092 158.848 10.7803 158.848C13.82 158.848 16.2233 159.649 17.9902 161.251C19.7572 162.838 20.6406 164.957 20.6406 167.607C20.6406 170.827 18.5892 174.66 14.4863 179.107L5.72656 188.608H22.1455V192Z" fill="white"/>
<path d="M40.2041 192H36.0264V164.306L27.6484 167.383V163.609L39.5527 159.14H40.2041V192Z" fill="white"/>
<path d="M132.519 178.726C132.519 175.341 132.968 172.092 133.866 168.978C134.78 165.863 136.135 163.033 137.932 160.487C139.729 157.942 141.593 156.145 143.524 155.097L144.378 157.837C142.192 159.514 140.395 162.075 138.987 165.519C137.595 168.963 136.831 172.818 136.696 177.086L136.674 178.995C136.674 184.775 137.729 189.791 139.841 194.044C141.114 196.59 142.626 198.581 144.378 200.019L143.524 202.557C141.533 201.449 139.631 199.592 137.819 196.986C134.285 191.895 132.519 185.808 132.519 178.726Z" fill="white"/>
<path d="M156.552 176.569L161.942 167.697H166.794L158.843 179.714L167.041 192H162.234L156.619 182.903L151.004 192H146.175L154.373 179.714L146.422 167.697H151.229L156.552 176.569Z" fill="white"/>
<path d="M180.81 178.95C180.81 182.289 180.368 185.494 179.484 188.563C178.616 191.618 177.276 194.441 175.464 197.031C173.667 199.622 171.78 201.464 169.804 202.557L168.928 200.019C171.234 198.252 173.083 195.511 174.476 191.798C175.883 188.069 176.602 183.937 176.632 179.399V178.681C176.632 175.536 176.302 172.616 175.644 169.921C174.985 167.211 174.064 164.785 172.881 162.644C171.713 160.502 170.395 158.833 168.928 157.635L169.804 155.097C171.78 156.19 173.66 158.017 175.441 160.577C177.238 163.138 178.578 165.96 179.462 169.045C180.36 172.13 180.81 175.431 180.81 178.95Z" fill="white"/>
<path d="M280.312 192H276.134V164.306L267.756 167.383V163.609L279.66 159.14H280.312V192Z" fill="white"/>
<path d="M313.913 192H292.485V189.013L303.806 176.435C305.483 174.533 306.636 172.991 307.265 171.808C307.909 170.61 308.23 169.374 308.23 168.102C308.23 166.395 307.714 164.994 306.681 163.901C305.647 162.808 304.27 162.262 302.548 162.262C300.481 162.262 298.872 162.853 297.719 164.036C296.581 165.204 296.012 166.836 296.012 168.933H291.856C291.856 165.923 292.822 163.49 294.754 161.633C296.701 159.776 299.299 158.848 302.548 158.848C305.588 158.848 307.991 159.649 309.758 161.251C311.525 162.838 312.408 164.957 312.408 167.607C312.408 170.827 310.357 174.66 306.254 179.107L297.494 188.608H313.913V192Z" fill="white"/>
</g>
<g id="\Rightarrow\;(2+1+3)-(2+2+1)=6-5=1">
<g id="Group">
<g id="Group_2">
<path id="Vector" d="M374.912 8.96786C374.912 8.6892 375.115 8.54987 375.52 8.54987C375.647 8.54987 375.748 8.54987 375.824 8.54987C375.9 8.54987 375.963 8.54987 376.014 8.54987C376.065 8.54987 376.115 8.56253 376.166 8.58787C376.217 8.6132 376.242 8.62587 376.242 8.62587C376.242 8.62587 376.267 8.66387 376.318 8.73987C376.369 8.81587 376.394 8.85387 376.394 8.85387C376.394 8.85387 376.432 8.9172 376.508 9.04387C377.445 10.9185 378.687 12.5779 380.232 14.0219C381.777 15.4659 383.183 16.4919 384.45 17.0999C385.717 17.7079 386.933 18.1765 388.098 18.5059C388.529 18.6325 388.744 18.7972 388.744 18.9999C388.744 19.2025 388.63 19.3419 388.402 19.4179C388.174 19.4939 387.705 19.6332 386.996 19.8359C386.287 20.0385 385.552 20.3425 384.792 20.7479C381.144 22.5212 378.383 25.2572 376.508 28.9559C376.407 29.1839 376.318 29.3105 376.242 29.3359C376.166 29.3612 375.976 29.3865 375.672 29.4119C375.165 29.4119 374.912 29.3232 374.912 29.1459C374.912 29.0445 374.975 28.8292 375.102 28.4999C375.989 26.7519 377.078 25.1939 378.37 23.8259L378.75 23.4459H355.532C355.177 23.2685 355 23.0152 355 22.6859C355 22.3059 355.203 22.0525 355.608 21.9259H380.422L380.802 21.6219C381.79 20.8619 383.272 19.9879 385.248 18.9999C385.223 18.9745 384.995 18.8605 384.564 18.6579C384.133 18.4552 383.563 18.1512 382.854 17.7459C382.145 17.3405 381.461 16.8845 380.802 16.3779L380.422 16.0739H355.608C355.203 15.9472 355 15.6939 355 15.3139C355 14.9845 355.177 14.7312 355.532 14.5539H378.75L378.37 14.1739C377.534 13.2872 376.749 12.2612 376.014 11.0959C375.279 9.93053 374.912 9.2212 374.912 8.96786Z" fill="white"/>
</g>
<g id="Group_3">
<path id="Vector_2" d="M415.557 19C415.557 17.252 415.683 15.5927 415.937 14.022C416.19 12.4513 416.481 11.096 416.811 9.956C417.14 8.816 417.609 7.70133 418.217 6.612C418.825 5.52267 419.306 4.674 419.661 4.066C420.015 3.458 420.547 2.79933 421.257 2.09C421.966 1.38067 422.384 0.95 422.511 0.798C422.637 0.646 422.954 0.38 423.461 0H423.955H424.107C424.461 0 424.639 0.114003 424.639 0.342003C424.639 0.418003 424.423 0.683999 423.993 1.14C423.562 1.596 423.043 2.26733 422.435 3.154C421.827 4.04067 421.206 5.13 420.573 6.422C419.939 7.714 419.407 9.462 418.977 11.666C418.546 13.87 418.331 16.3147 418.331 19C418.331 21.6853 418.546 24.1173 418.977 26.296C419.407 28.4747 419.927 30.2353 420.535 31.578C421.143 32.9207 421.763 34.01 422.397 34.846C423.03 35.682 423.562 36.3533 423.993 36.86C424.423 37.3667 424.639 37.6327 424.639 37.658C424.639 37.886 424.449 38 424.069 38H423.955H423.461L422.397 37.088C420.015 34.9347 418.28 32.2493 417.191 29.032C416.101 25.8147 415.557 22.4707 415.557 19Z" fill="white"/>
</g>
<g id="Group_4">
<path id="Vector_3" d="M430.909 12.1982C430.225 12.1982 429.68 11.9702 429.275 11.5142C428.869 11.0582 428.667 10.5009 428.667 9.84225C428.667 8.04358 429.338 6.48558 430.681 5.16825C432.023 3.85091 433.695 3.19225 435.697 3.19225C438.002 3.19225 439.927 3.90158 441.473 5.32025C443.018 6.73891 443.803 8.57558 443.829 10.8302C443.829 11.9196 443.575 12.9582 443.069 13.9462C442.562 14.9342 441.954 15.7956 441.245 16.5302C440.535 17.2649 439.522 18.2022 438.205 19.3422C437.293 20.1276 436.026 21.2929 434.405 22.8382L432.163 24.9662L435.051 25.0042C439.028 25.0042 441.143 24.9409 441.397 24.8142C441.574 24.7636 441.878 23.6362 442.309 21.4322V21.3182H443.829V21.4322C443.803 21.5082 443.639 22.6609 443.335 24.8902C443.031 27.1196 442.841 28.2849 442.765 28.3862V28.5002H428.667V27.7782V27.3222C428.667 27.1449 428.743 26.9549 428.895 26.7522C429.047 26.5496 429.427 26.1062 430.035 25.4222C430.769 24.6116 431.403 23.9022 431.935 23.2942C432.163 23.0409 432.593 22.5722 433.227 21.8882C433.86 21.2042 434.291 20.7356 434.519 20.4822C434.747 20.2289 435.114 19.8109 435.621 19.2282C436.127 18.6456 436.482 18.2149 436.685 17.9362C436.887 17.6576 437.179 17.2776 437.559 16.7962C437.939 16.3149 438.205 15.9096 438.357 15.5802C438.509 15.2509 438.699 14.8836 438.927 14.4782C439.155 14.0729 439.319 13.6676 439.421 13.2622C439.522 12.8569 439.611 12.4769 439.687 12.1222C439.763 11.7676 439.801 11.3496 439.801 10.8682C439.801 9.27224 439.37 7.89158 438.509 6.72624C437.647 5.56091 436.419 4.97824 434.823 4.97824C433.987 4.97824 433.252 5.19358 432.619 5.62424C431.985 6.05491 431.542 6.47291 431.289 6.87824C431.035 7.28358 430.909 7.52424 430.909 7.60024C430.909 7.62558 430.972 7.63824 431.099 7.63824C431.555 7.63824 432.023 7.81558 432.505 8.17024C432.986 8.52491 433.227 9.10758 433.227 9.91825C433.227 10.5516 433.024 11.0836 432.619 11.5142C432.213 11.9449 431.643 12.1729 430.909 12.1982Z" fill="white"/>
</g>
<g id="Group_5">
<path id="Vector_4" d="M456.339 19.4942C456.339 19.4942 456.339 19.3295 456.339 19.0002C456.339 18.6709 456.516 18.4175 456.871 18.2402H468.233V12.5402L468.271 6.84021C468.524 6.51088 468.765 6.34621 468.993 6.34621C469.322 6.34621 469.575 6.53621 469.753 6.91621V18.2402H481.077C481.457 18.4429 481.647 18.6962 481.647 19.0002C481.647 19.3042 481.457 19.5575 481.077 19.7602H469.753V31.0842C469.55 31.4389 469.322 31.6162 469.069 31.6162H468.993H468.917C468.613 31.6162 468.385 31.4389 468.233 31.0842V19.7602H456.871C456.516 19.5829 456.339 19.3295 456.339 19.0002V19.4942Z" fill="white"/>
</g>
<g id="Group_6">
<path id="Vector_5" d="M500.312 6.53625L499.818 6.72624C499.463 6.85291 498.956 6.97958 498.298 7.10625C497.639 7.23291 496.904 7.32158 496.094 7.37224H495.372V5.62424H496.094C497.284 5.57358 498.386 5.38358 499.4 5.05424C500.413 4.72491 501.122 4.42091 501.528 4.14224C501.933 3.86358 502.288 3.58491 502.592 3.30625C502.642 3.23025 502.794 3.19225 503.048 3.19225C503.276 3.19225 503.491 3.26824 503.694 3.42024V14.7822L503.732 26.1822C503.909 26.3596 504.061 26.4736 504.188 26.5242C504.314 26.5749 504.618 26.6256 505.1 26.6762C505.581 26.7269 506.366 26.7522 507.456 26.7522H508.444V28.5002H508.026C507.494 28.4242 505.48 28.3862 501.984 28.3862C498.538 28.3862 496.55 28.4242 496.018 28.5002H495.562V26.7522H496.55C497.107 26.7522 497.588 26.7522 497.994 26.7522C498.399 26.7522 498.716 26.7396 498.944 26.7142C499.172 26.6889 499.374 26.6509 499.552 26.6002C499.729 26.5496 499.83 26.5242 499.856 26.5242C499.881 26.5242 499.957 26.4609 500.084 26.3342C500.21 26.2076 500.286 26.1569 500.312 26.1822V6.53625Z" fill="white"/>
</g>
<g id="Group_7">
<path id="Vector_6" d="M521.789 19.4942C521.789 19.4942 521.789 19.3295 521.789 19.0002C521.789 18.6709 521.967 18.4175 522.321 18.2402H533.683V12.5402L533.721 6.84021C533.975 6.51088 534.215 6.34621 534.443 6.34621C534.773 6.34621 535.026 6.53621 535.203 6.91621V18.2402H546.527C546.907 18.4429 547.097 18.6962 547.097 19.0002C547.097 19.3042 546.907 19.5575 546.527 19.7602H535.203V31.0842C535.001 31.4389 534.773 31.6162 534.519 31.6162H534.443H534.367C534.063 31.6162 533.835 31.4389 533.683 31.0842V19.7602H522.321C521.967 19.5829 521.789 19.3295 521.789 19.0002V19.4942Z" fill="white"/>
</g>
<g id="Group_8">
<path id="Vector_7" d="M562.495 10.9057C561.811 10.9057 561.279 10.6904 560.899 10.2597C560.519 9.82903 560.316 9.27169 560.291 8.58769C560.291 7.19436 560.899 5.95303 562.115 4.86369C563.331 3.77436 564.8 3.22969 566.523 3.22969C567.41 3.22969 567.967 3.24236 568.195 3.26769C570.07 3.57169 571.501 4.24303 572.489 5.28169C573.477 6.32036 573.984 7.44769 574.009 8.66369C574.009 9.98103 573.578 11.2604 572.717 12.5017C571.856 13.743 570.665 14.6424 569.145 15.1997L569.031 15.2757C569.031 15.301 569.145 15.339 569.373 15.3897C569.601 15.4404 569.968 15.5544 570.475 15.7317C570.982 15.909 571.463 16.175 571.919 16.5297C573.996 17.8724 575.035 19.6457 575.035 21.8497C575.035 23.851 574.25 25.599 572.679 27.0937C571.108 28.5884 569.12 29.3357 566.713 29.3357C564.686 29.3357 562.938 28.791 561.469 27.7017C560 26.6124 559.265 25.2317 559.265 23.5597C559.265 22.8504 559.493 22.2804 559.949 21.8497C560.405 21.419 560.975 21.191 561.659 21.1657C562.368 21.1657 562.951 21.3937 563.407 21.8497C563.863 22.3057 564.091 22.8757 564.091 23.5597C564.091 23.8384 564.053 24.0917 563.977 24.3197C563.901 24.5477 563.812 24.7504 563.711 24.9277C563.61 25.105 563.47 25.257 563.293 25.3837C563.116 25.5104 562.964 25.6117 562.837 25.6877C562.71 25.7637 562.584 25.8144 562.457 25.8397C562.33 25.865 562.229 25.903 562.153 25.9537L562.001 25.9917C563.293 27.1317 564.864 27.7017 566.713 27.7017C568.106 27.7017 569.158 27.0304 569.867 25.6877C570.298 24.8517 570.513 23.5724 570.513 21.8497V21.0897C570.513 18.683 569.702 17.0744 568.081 16.2637C567.701 16.1117 566.928 16.023 565.763 15.9977L564.167 15.9597L564.053 15.8837C564.002 15.8077 563.977 15.605 563.977 15.2757C563.977 14.8197 564.078 14.5917 564.281 14.5917C564.99 14.5917 565.725 14.5284 566.485 14.4017C567.346 14.275 568.132 13.743 568.841 12.8057C569.55 11.8684 569.905 10.4497 569.905 8.54969V8.24569C569.905 6.80169 569.462 5.80103 568.575 5.24369C568.018 4.88903 567.422 4.71169 566.789 4.71169C565.978 4.71169 565.231 4.85103 564.547 5.12969C563.863 5.40836 563.382 5.69969 563.103 6.00369C562.824 6.30769 562.685 6.45969 562.685 6.45969H562.799C562.875 6.48503 562.976 6.51036 563.103 6.53569C563.23 6.56103 563.356 6.62436 563.483 6.72569C563.61 6.82703 563.762 6.91569 563.939 6.99169C564.116 7.06769 564.243 7.20703 564.319 7.40969C564.395 7.61236 564.496 7.80236 564.623 7.97969C564.75 8.15703 564.788 8.41036 564.737 8.73969C564.737 9.29703 564.56 9.79103 564.205 10.2217C563.85 10.6524 563.28 10.8804 562.495 10.9057Z" fill="white"/>
</g>
<g id="Group_9">
<path id="Vector_8" d="M578.949 0.038002L579.101 0C579.228 0 579.355 0 579.481 0H579.937L581.001 0.912003C583.383 3.06534 585.118 5.75067 586.207 8.968C587.297 12.1853 587.841 15.5293 587.841 19C587.841 20.7227 587.715 22.382 587.461 23.978C587.208 25.574 586.917 26.9293 586.587 28.044C586.258 29.1587 585.789 30.2733 585.181 31.388C584.573 32.5027 584.092 33.3513 583.737 33.934C583.383 34.5167 582.863 35.1627 582.179 35.872C581.495 36.5813 581.09 36.9993 580.963 37.126C580.837 37.2527 580.545 37.4933 580.089 37.848C580.013 37.924 579.963 37.9747 579.937 38H579.481C579.279 38 579.139 38 579.063 38C578.987 38 578.924 37.962 578.873 37.886C578.823 37.81 578.785 37.696 578.759 37.544C578.785 37.5187 578.924 37.354 579.177 37.05C583.104 32.9713 585.067 26.9547 585.067 19C585.067 11.0453 583.104 5.02867 579.177 0.950001C578.924 0.646001 578.785 0.481335 578.759 0.456001C578.759 0.253335 578.823 0.114002 578.949 0.038002Z" fill="white"/>
</g>
<g id="Group_10">
<path id="Vector_9" d="M603.09 19.4938C603.09 19.4938 603.09 19.3291 603.09 18.9998C603.09 18.6704 603.268 18.4171 603.622 18.2398H625.7C626.08 18.4424 626.27 18.6958 626.27 18.9998C626.27 19.3038 626.08 19.5571 625.7 19.7598H603.622C603.268 19.5824 603.09 19.3291 603.09 18.9998V19.4938Z" fill="white"/>
</g>
<g id="Group_11">
<path id="Vector_10" d="M641.478 19C641.478 17.252 641.605 15.5927 641.858 14.022C642.111 12.4513 642.403 11.096 642.732 9.956C643.061 8.816 643.53 7.70133 644.138 6.612C644.746 5.52267 645.227 4.674 645.582 4.066C645.937 3.458 646.469 2.79933 647.178 2.09C647.887 1.38067 648.305 0.95 648.432 0.798C648.559 0.646 648.875 0.38 649.382 0H649.876H650.028C650.383 0 650.56 0.114003 650.56 0.342003C650.56 0.418003 650.345 0.683999 649.914 1.14C649.483 1.596 648.964 2.26733 648.356 3.154C647.748 4.04067 647.127 5.13 646.494 6.422C645.861 7.714 645.329 9.462 644.898 11.666C644.467 13.87 644.252 16.3147 644.252 19C644.252 21.6853 644.467 24.1173 644.898 26.296C645.329 28.4747 645.848 30.2353 646.456 31.578C647.064 32.9207 647.685 34.01 648.318 34.846C648.951 35.682 649.483 36.3533 649.914 36.86C650.345 37.3667 650.56 37.6327 650.56 37.658C650.56 37.886 650.37 38 649.99 38H649.876H649.382L648.318 37.088C645.937 34.9347 644.201 32.2493 643.112 29.032C642.023 25.8147 641.478 22.4707 641.478 19Z" fill="white"/>
</g>
<g id="Group_12">
<path id="Vector_11" d="M656.83 12.1982C656.146 12.1982 655.601 11.9702 655.196 11.5142C654.791 11.0582 654.588 10.5009 654.588 9.84225C654.588 8.04358 655.259 6.48558 656.602 5.16825C657.945 3.85091 659.617 3.19225 661.618 3.19225C663.923 3.19225 665.849 3.90158 667.394 5.32025C668.939 6.73891 669.725 8.57558 669.75 10.8302C669.75 11.9196 669.497 12.9582 668.99 13.9462C668.483 14.9342 667.875 15.7956 667.166 16.5302C666.457 17.2649 665.443 18.2022 664.126 19.3422C663.214 20.1276 661.947 21.2929 660.326 22.8382L658.084 24.9662L660.972 25.0042C664.949 25.0042 667.065 24.9409 667.318 24.8142C667.495 24.7636 667.799 23.6362 668.23 21.4322V21.3182H669.75V21.4322C669.725 21.5082 669.56 22.6609 669.256 24.8902C668.952 27.1196 668.762 28.2849 668.686 28.3862V28.5002H654.588V27.7782V27.3222C654.588 27.1449 654.664 26.9549 654.816 26.7522C654.968 26.5496 655.348 26.1062 655.956 25.4222C656.691 24.6116 657.324 23.9022 657.856 23.2942C658.084 23.0409 658.515 22.5722 659.148 21.8882C659.781 21.2042 660.212 20.7356 660.44 20.4822C660.668 20.2289 661.035 19.8109 661.542 19.2282C662.049 18.6456 662.403 18.2149 662.606 17.9362C662.809 17.6576 663.1 17.2776 663.48 16.7962C663.86 16.3149 664.126 15.9096 664.278 15.5802C664.43 15.2509 664.62 14.8836 664.848 14.4782C665.076 14.0729 665.241 13.6676 665.342 13.2622C665.443 12.8569 665.532 12.4769 665.608 12.1222C665.684 11.7676 665.722 11.3496 665.722 10.8682C665.722 9.27224 665.291 7.89158 664.43 6.72624C663.569 5.56091 662.34 4.97824 660.744 4.97824C659.908 4.97824 659.173 5.19358 658.54 5.62424C657.907 6.05491 657.463 6.47291 657.21 6.87824C656.957 7.28358 656.83 7.52424 656.83 7.60024C656.83 7.62558 656.893 7.63824 657.02 7.63824C657.476 7.63824 657.945 7.81558 658.426 8.17024C658.907 8.52491 659.148 9.10758 659.148 9.91825C659.148 10.5516 658.945 11.0836 658.54 11.5142C658.135 11.9449 657.565 12.1729 656.83 12.1982Z" fill="white"/>
</g>
<g id="Group_13">
<path id="Vector_12" d="M682.26 19.4942C682.26 19.4942 682.26 19.3295 682.26 19.0002C682.26 18.6709 682.437 18.4175 682.792 18.2402H694.154V12.5402L694.192 6.84021C694.445 6.51088 694.686 6.34621 694.914 6.34621C695.243 6.34621 695.496 6.53621 695.674 6.91621V18.2402H706.998C707.378 18.4429 707.568 18.6962 707.568 19.0002C707.568 19.3042 707.378 19.5575 706.998 19.7602H695.674V31.0842C695.471 31.4389 695.243 31.6162 694.99 31.6162H694.914H694.838C694.534 31.6162 694.306 31.4389 694.154 31.0842V19.7602H682.792C682.437 19.5829 682.26 19.3295 682.26 19.0002V19.4942Z" fill="white"/>
</g>
<g id="Group_14">
<path id="Vector_13" d="M722.281 12.1982C721.597 12.1982 721.053 11.9702 720.647 11.5142C720.242 11.0582 720.039 10.5009 720.039 9.84225C720.039 8.04358 720.711 6.48558 722.053 5.16825C723.396 3.85091 725.068 3.19225 727.069 3.19225C729.375 3.19225 731.3 3.90158 732.845 5.32025C734.391 6.73891 735.176 8.57558 735.201 10.8302C735.201 11.9196 734.948 12.9582 734.441 13.9462C733.935 14.9342 733.327 15.7956 732.617 16.5302C731.908 17.2649 730.895 18.2022 729.577 19.3422C728.665 20.1276 727.399 21.2929 725.777 22.8382L723.535 24.9662L726.423 25.0042C730.401 25.0042 732.516 24.9409 732.769 24.8142C732.947 24.7636 733.251 23.6362 733.681 21.4322V21.3182H735.201V21.4322C735.176 21.5082 735.011 22.6609 734.707 24.8902C734.403 27.1196 734.213 28.2849 734.137 28.3862V28.5002H720.039V27.7782V27.3222C720.039 27.1449 720.115 26.9549 720.267 26.7522C720.419 26.5496 720.799 26.1062 721.407 25.4222C722.142 24.6116 722.775 23.9022 723.307 23.2942C723.535 23.0409 723.966 22.5722 724.599 21.8882C725.233 21.2042 725.663 20.7356 725.891 20.4822C726.119 20.2289 726.487 19.8109 726.993 19.2282C727.5 18.6456 727.855 18.2149 728.057 17.9362C728.26 17.6576 728.551 17.2776 728.931 16.7962C729.311 16.3149 729.577 15.9096 729.729 15.5802C729.881 15.2509 730.071 14.8836 730.299 14.4782C730.527 14.0729 730.692 13.6676 730.793 13.2622C730.895 12.8569 730.983 12.4769 731.059 12.1222C731.135 11.7676 731.173 11.3496 731.173 10.8682C731.173 9.27224 730.743 7.89158 729.881 6.72624C729.02 5.56091 727.791 4.97824 726.195 4.97824C725.359 4.97824 724.625 5.19358 723.991 5.62424C723.358 6.05491 722.915 6.47291 722.661 6.87824C722.408 7.28358 722.281 7.52424 722.281 7.60024C722.281 7.62558 722.345 7.63824 722.471 7.63824C722.927 7.63824 723.396 7.81558 723.877 8.17024C724.359 8.52491 724.599 9.10758 724.599 9.91825C724.599 10.5516 724.397 11.0836 723.991 11.5142C723.586 11.9449 723.016 12.1729 722.281 12.1982Z" fill="white"/>
</g>
<g id="Group_15">
<path id="Vector_14" d="M747.715 19.4942C747.715 19.4942 747.715 19.3295 747.715 19.0002C747.715 18.6709 747.892 18.4175 748.247 18.2402H759.609V12.5402L759.647 6.84021C759.9 6.51088 760.141 6.34621 760.369 6.34621C760.698 6.34621 760.952 6.53621 761.129 6.91621V18.2402H772.453C772.833 18.4429 773.023 18.6962 773.023 19.0002C773.023 19.3042 772.833 19.5575 772.453 19.7602H761.129V31.0842C760.926 31.4389 760.698 31.6162 760.445 31.6162H760.369H760.293C759.989 31.6162 759.761 31.4389 759.609 31.0842V19.7602H748.247C747.892 19.5829 747.715 19.3295 747.715 19.0002V19.4942Z" fill="white"/>
</g>
<g id="Group_16">
<path id="Vector_15" d="M791.688 6.53625L791.194 6.72624C790.84 6.85291 790.333 6.97958 789.674 7.10625C789.016 7.23291 788.281 7.32158 787.47 7.37224H786.748V5.62424H787.47C788.661 5.57358 789.763 5.38358 790.776 5.05424C791.79 4.72491 792.499 4.42091 792.904 4.14224C793.31 3.86358 793.664 3.58491 793.968 3.30625C794.019 3.23025 794.171 3.19225 794.424 3.19225C794.652 3.19225 794.868 3.26824 795.07 3.42024V14.7822L795.108 26.1822C795.286 26.3596 795.438 26.4736 795.564 26.5242C795.691 26.5749 795.995 26.6256 796.476 26.6762C796.958 26.7269 797.743 26.7522 798.832 26.7522H799.82V28.5002H799.402C798.87 28.4242 796.856 28.3862 793.36 28.3862C789.915 28.3862 787.926 28.4242 787.394 28.5002H786.938V26.7522H787.926C788.484 26.7522 788.965 26.7522 789.37 26.7522C789.776 26.7522 790.092 26.7396 790.32 26.7142C790.548 26.6889 790.751 26.6509 790.928 26.6002C791.106 26.5496 791.207 26.5242 791.232 26.5242C791.258 26.5242 791.334 26.4609 791.46 26.3342C791.587 26.2076 791.663 26.1569 791.688 26.1822V6.53625Z" fill="white"/>
</g>
<g id="Group_17">
<path id="Vector_16" d="M804.874 0.038002L805.026 0C805.153 0 805.28 0 805.406 0H805.862L806.926 0.912003C809.308 3.06534 811.043 5.75067 812.132 8.968C813.222 12.1853 813.766 15.5293 813.766 19C813.766 20.7227 813.64 22.382 813.386 23.978C813.133 25.574 812.842 26.9293 812.512 28.044C812.183 29.1587 811.714 30.2733 811.106 31.388C810.498 32.5027 810.017 33.3513 809.662 33.934C809.308 34.5167 808.788 35.1627 808.104 35.872C807.42 36.5813 807.015 36.9993 806.888 37.126C806.762 37.2527 806.47 37.4933 806.014 37.848C805.938 37.924 805.888 37.9747 805.862 38H805.406C805.204 38 805.064 38 804.988 38C804.912 38 804.849 37.962 804.798 37.886C804.748 37.81 804.71 37.696 804.684 37.544C804.71 37.5187 804.849 37.354 805.102 37.05C809.029 32.9713 810.992 26.9547 810.992 19C810.992 11.0453 809.029 5.02867 805.102 0.950001C804.849 0.646001 804.71 0.481335 804.684 0.456001C804.684 0.253335 804.748 0.114002 804.874 0.038002Z" fill="white"/>
</g>
<g id="Group_18">
<path id="Vector_17" d="M830.061 15.314C830.061 14.9847 830.238 14.7314 830.593 14.554H854.799C855.179 14.7567 855.369 15.01 855.369 15.314C855.369 15.5927 855.191 15.8334 854.837 16.036L842.753 16.074H830.669C830.263 15.9474 830.061 15.694 830.061 15.314ZM830.061 22.686C830.061 22.306 830.263 22.0527 830.669 21.926H854.837C855.191 22.1794 855.369 22.4327 855.369 22.686C855.369 23.0154 855.179 23.2687 854.799 23.446H830.593C830.238 23.2687 830.061 23.0154 830.061 22.686Z" fill="white"/>
</g>
<g id="Group_19">
<path id="Vector_18" d="M869.645 16.6057C869.645 12.4764 870.671 9.20836 872.723 6.80169C874.775 4.39502 877.055 3.19169 879.563 3.19169C881.311 3.19169 882.565 3.64769 883.325 4.55969C884.085 5.47169 884.465 6.48502 884.465 7.59969C884.465 8.23302 884.288 8.73969 883.933 9.11969C883.579 9.49969 883.085 9.68969 882.451 9.68969C881.869 9.68969 881.387 9.51236 881.007 9.15769C880.627 8.80303 880.437 8.30902 880.437 7.67569C880.437 6.56102 881.033 5.88969 882.223 5.66169C881.666 5.10436 880.881 4.78769 879.867 4.71169C878.069 4.71169 876.587 5.47169 875.421 6.99169C874.231 8.66369 873.635 11.2224 873.635 14.6677L873.673 14.8197C873.8 14.6677 873.901 14.503 873.977 14.3257C875.016 12.8057 876.371 12.0457 878.043 12.0457H878.195C879.361 12.0457 880.387 12.2864 881.273 12.7677C881.881 13.1224 882.489 13.629 883.097 14.2877C883.705 14.9464 884.199 15.6684 884.579 16.4537C885.111 17.695 885.377 19.0504 885.377 20.5197V21.2037C885.377 21.7864 885.314 22.331 885.187 22.8377C884.909 24.3324 884.098 25.789 882.755 27.2077C881.413 28.6264 879.715 29.3357 877.663 29.3357C876.954 29.3357 876.27 29.2344 875.611 29.0317C874.953 28.829 874.243 28.449 873.483 27.8917C872.723 27.3344 872.077 26.587 871.545 25.6497C871.013 24.7124 870.557 23.4837 870.177 21.9637C869.797 20.4437 869.62 18.6577 869.645 16.6057ZM877.815 13.4137C877.055 13.4137 876.397 13.629 875.839 14.0597C875.282 14.4904 874.851 15.0604 874.547 15.7697C874.243 16.479 874.028 17.201 873.901 17.9357C873.775 18.6704 873.699 19.4557 873.673 20.2917C873.673 22.3944 873.825 23.9017 874.129 24.8137C874.433 25.7257 874.915 26.4604 875.573 27.0177C876.181 27.4737 876.853 27.7017 877.587 27.7017C878.879 27.7017 879.867 27.2204 880.551 26.2577C880.881 25.8017 881.109 25.2317 881.235 24.5477C881.362 23.8637 881.425 22.5337 881.425 20.5577C881.425 18.531 881.362 17.1757 881.235 16.4917C881.109 15.8077 880.881 15.2377 880.551 14.7817C879.867 13.8697 878.955 13.4137 877.815 13.4137Z" fill="white"/>
</g>
<g id="Group_20">
<path id="Vector_19" d="M898.689 19.4938C898.689 19.4938 898.689 19.3291 898.689 18.9998C898.689 18.6704 898.866 18.4171 899.221 18.2398H921.299C921.679 18.4424 921.869 18.6958 921.869 18.9998C921.869 19.3038 921.679 19.5571 921.299 19.7598H899.221C898.866 19.5824 898.689 19.3291 898.689 18.9998V19.4938Z" fill="white"/>
</g>
<g id="Group_21">
<path id="Vector_20" d="M939.737 22.5337C939.737 23.1417 939.534 23.6484 939.129 24.0537C938.723 24.459 938.229 24.6617 937.647 24.6617H937.381C938.546 26.663 940.091 27.6637 942.017 27.6637C943.79 27.6637 945.082 26.9037 945.893 25.3837C946.374 24.5477 946.615 22.9264 946.615 20.5197C946.615 17.9104 946.273 16.1497 945.589 15.2377C944.93 14.4017 944.195 13.9837 943.385 13.9837H943.157C941.181 13.9837 939.686 14.845 938.673 16.5677C938.571 16.745 938.483 16.8464 938.407 16.8717C938.331 16.897 938.141 16.9224 937.837 16.9477C937.406 16.9477 937.165 16.8717 937.115 16.7197C937.064 16.6184 937.039 14.4017 937.039 10.0697V5.16769C937.039 3.90103 937.102 3.26769 937.229 3.26769C937.279 3.21703 937.33 3.19169 937.381 3.19169C937.406 3.19169 937.672 3.29302 938.179 3.49569C938.685 3.69836 939.382 3.90102 940.269 4.10369C941.155 4.30636 942.105 4.40769 943.119 4.40769C944.917 4.40769 946.64 4.05302 948.287 3.34369C948.489 3.24236 948.654 3.19169 948.781 3.19169C948.983 3.19169 949.085 3.41969 949.085 3.87569V4.36969C947.007 6.82703 944.411 8.05569 941.295 8.05569C940.509 8.05569 939.8 7.97969 939.167 7.82769L938.787 7.75169V14.2877C939.268 13.933 939.648 13.6544 939.927 13.4517C940.205 13.249 940.661 13.0464 941.295 12.8437C941.928 12.641 942.574 12.5397 943.233 12.5397C945.285 12.5397 947.02 13.363 948.439 15.0097C949.857 16.6564 950.567 18.607 950.567 20.8617C950.567 23.1924 949.756 25.181 948.135 26.8277C946.513 28.4744 944.537 29.3104 942.207 29.3357C940.155 29.3357 938.508 28.6517 937.267 27.2837C936.025 25.9157 935.405 24.3704 935.405 22.6477C935.405 22.0397 935.544 21.5584 935.823 21.2037C936.101 20.849 936.393 20.621 936.697 20.5197C937.001 20.4184 937.292 20.3677 937.571 20.3677C938.204 20.3677 938.723 20.583 939.129 21.0137C939.534 21.4444 939.737 21.951 939.737 22.5337Z" fill="white"/>
</g>
<g id="Group_22">
<path id="Vector_21" d="M965.189 15.314C965.189 14.9847 965.366 14.7314 965.721 14.554H989.927C990.307 14.7567 990.497 15.01 990.497 15.314C990.497 15.5927 990.319 15.8334 989.965 16.036L977.881 16.074H965.797C965.391 15.9474 965.189 15.694 965.189 15.314ZM965.189 22.686C965.189 22.306 965.391 22.0527 965.797 21.926H989.965C990.319 22.1794 990.497 22.4327 990.497 22.686C990.497 23.0154 990.307 23.2687 989.927 23.446H965.721C965.366 23.2687 965.189 23.0154 965.189 22.686Z" fill="white"/>
</g>
<g id="Group_23">
<path id="Vector_22" d="M1011.27 6.53625L1010.78 6.72624C1010.42 6.85291 1009.92 6.97958 1009.26 7.10625C1008.6 7.23291 1007.86 7.32158 1007.05 7.37224H1006.33V5.62424H1007.05C1008.24 5.57358 1009.35 5.38358 1010.36 5.05424C1011.37 4.72491 1012.08 4.42091 1012.49 4.14224C1012.89 3.86358 1013.25 3.58491 1013.55 3.30625C1013.6 3.23025 1013.75 3.19225 1014.01 3.19225C1014.24 3.19225 1014.45 3.26824 1014.65 3.42024V14.7822L1014.69 26.1822C1014.87 26.3596 1015.02 26.4736 1015.15 26.5242C1015.27 26.5749 1015.58 26.6256 1016.06 26.6762C1016.54 26.7269 1017.33 26.7522 1018.42 26.7522H1019.4V28.5002H1018.99C1018.45 28.4242 1016.44 28.3862 1012.94 28.3862C1009.5 28.3862 1007.51 28.4242 1006.98 28.5002H1006.52V26.7522H1007.51C1008.07 26.7522 1008.55 26.7522 1008.95 26.7522C1009.36 26.7522 1009.68 26.7396 1009.9 26.7142C1010.13 26.6889 1010.33 26.6509 1010.51 26.6002C1010.69 26.5496 1010.79 26.5242 1010.82 26.5242C1010.84 26.5242 1010.92 26.4609 1011.04 26.3342C1011.17 26.2076 1011.25 26.1569 1011.27 26.1822V6.53625Z" fill="white"/>
</g>
</g>
</g>
<g id="\Rightarrow\;(3+5)-(2+4)=8-4=4">
<g id="Group_24">
<g id="Group_25">
<path id="Vector_23" d="M378.96 84.44C378.96 84.1466 379.173 84 379.6 84C379.733 84 379.84 84 379.92 84C380 84 380.067 84 380.12 84C380.173 84 380.227 84.0133 380.28 84.04C380.333 84.0666 380.36 84.08 380.36 84.08C380.36 84.08 380.387 84.12 380.44 84.2C380.493 84.28 380.52 84.32 380.52 84.32C380.52 84.32 380.56 84.3866 380.64 84.52C381.627 86.4933 382.933 88.24 384.56 89.76C386.187 91.28 387.667 92.36 389 93C390.333 93.64 391.613 94.1333 392.84 94.48C393.293 94.6133 393.52 94.7866 393.52 95C393.52 95.2133 393.4 95.36 393.16 95.44C392.92 95.52 392.427 95.6666 391.68 95.88C390.933 96.0933 390.16 96.4133 389.36 96.84C385.52 98.7066 382.613 101.587 380.64 105.48C380.533 105.72 380.44 105.853 380.36 105.88C380.28 105.907 380.08 105.933 379.76 105.96C379.227 105.96 378.96 105.867 378.96 105.68C378.96 105.573 379.027 105.347 379.16 105C380.093 103.16 381.24 101.52 382.6 100.08L383 99.68H358.56C358.187 99.4933 358 99.2266 358 98.88C358 98.48 358.213 98.2133 358.64 98.08H384.76L385.16 97.76C386.2 96.96 387.76 96.04 389.84 95C389.813 94.9733 389.573 94.8533 389.12 94.64C388.667 94.4266 388.067 94.1066 387.32 93.68C386.573 93.2533 385.853 92.7733 385.16 92.24L384.76 91.92H358.64C358.213 91.7866 358 91.52 358 91.12C358 90.7733 358.187 90.5066 358.56 90.32H383L382.6 89.92C381.72 88.9866 380.893 87.9066 380.12 86.68C379.347 85.4533 378.96 84.7066 378.96 84.44Z" fill="white"/>
</g>
<g id="Group_26">
<path id="Vector_24" d="M421.744 95C421.744 93.16 421.877 91.4133 422.144 89.76C422.411 88.1067 422.717 86.68 423.064 85.48C423.411 84.28 423.904 83.1067 424.544 81.96C425.184 80.8133 425.691 79.92 426.064 79.28C426.437 78.64 426.997 77.9467 427.744 77.2C428.491 76.4533 428.931 76 429.064 75.84C429.197 75.68 429.531 75.4 430.064 75H430.584H430.744C431.117 75 431.304 75.12 431.304 75.36C431.304 75.44 431.077 75.72 430.624 76.2C430.171 76.68 429.624 77.3867 428.984 78.32C428.344 79.2533 427.691 80.4 427.024 81.76C426.357 83.12 425.797 84.96 425.344 87.28C424.891 89.6 424.664 92.1733 424.664 95C424.664 97.8267 424.891 100.387 425.344 102.68C425.797 104.973 426.344 106.827 426.984 108.24C427.624 109.653 428.277 110.8 428.944 111.68C429.611 112.56 430.171 113.267 430.624 113.8C431.077 114.333 431.304 114.613 431.304 114.64C431.304 114.88 431.104 115 430.704 115H430.584H430.064L428.944 114.04C426.437 111.773 424.611 108.947 423.464 105.56C422.317 102.173 421.744 98.6533 421.744 95Z" fill="white"/>
</g>
<g id="Group_27">
<path id="Vector_25" d="M438.624 86.4801C437.904 86.4801 437.344 86.2535 436.944 85.8001C436.544 85.3468 436.331 84.7601 436.304 84.0401C436.304 82.5735 436.944 81.2668 438.224 80.1201C439.504 78.9735 441.051 78.4001 442.864 78.4001C443.797 78.4001 444.384 78.4135 444.624 78.4401C446.597 78.7601 448.104 79.4668 449.144 80.5601C450.184 81.6535 450.717 82.8401 450.744 84.1201C450.744 85.5068 450.291 86.8535 449.384 88.1601C448.477 89.4668 447.224 90.4135 445.624 91.0001L445.504 91.0801C445.504 91.1068 445.624 91.1468 445.864 91.2001C446.104 91.2535 446.491 91.3735 447.024 91.5601C447.557 91.7468 448.064 92.0268 448.544 92.4001C450.731 93.8135 451.824 95.6801 451.824 98.0001C451.824 100.107 450.997 101.947 449.344 103.52C447.691 105.093 445.597 105.88 443.064 105.88C440.931 105.88 439.091 105.307 437.544 104.16C435.997 103.013 435.224 101.56 435.224 99.8001C435.224 99.0535 435.464 98.4535 435.944 98.0001C436.424 97.5468 437.024 97.3068 437.744 97.2801C438.491 97.2801 439.104 97.5201 439.584 98.0001C440.064 98.4801 440.304 99.0801 440.304 99.8001C440.304 100.093 440.264 100.36 440.184 100.6C440.104 100.84 440.011 101.053 439.904 101.24C439.797 101.427 439.651 101.587 439.464 101.72C439.277 101.853 439.117 101.96 438.984 102.04C438.851 102.12 438.717 102.173 438.584 102.2C438.451 102.227 438.344 102.267 438.264 102.32L438.104 102.36C439.464 103.56 441.117 104.16 443.064 104.16C444.531 104.16 445.637 103.453 446.384 102.04C446.837 101.16 447.064 99.8135 447.064 98.0001V97.2001C447.064 94.6668 446.211 92.9735 444.504 92.1201C444.104 91.9601 443.291 91.8668 442.064 91.8401L440.384 91.8001L440.264 91.7201C440.211 91.6401 440.184 91.4268 440.184 91.0801C440.184 90.6001 440.291 90.3601 440.504 90.3601C441.251 90.3601 442.024 90.2935 442.824 90.1601C443.731 90.0268 444.557 89.4668 445.304 88.4801C446.051 87.4935 446.424 86.0001 446.424 84.0001V83.6801C446.424 82.1601 445.957 81.1068 445.024 80.5201C444.437 80.1468 443.811 79.9601 443.144 79.9601C442.291 79.9601 441.504 80.1068 440.784 80.4001C440.064 80.6935 439.557 81.0001 439.264 81.3201C438.971 81.6401 438.824 81.8001 438.824 81.8001H438.944C439.024 81.8268 439.131 81.8535 439.264 81.8801C439.397 81.9068 439.531 81.9735 439.664 82.0801C439.797 82.1868 439.957 82.2801 440.144 82.3601C440.331 82.4401 440.464 82.5868 440.544 82.8001C440.624 83.0135 440.731 83.2135 440.864 83.4001C440.997 83.5868 441.037 83.8535 440.984 84.2001C440.984 84.7868 440.797 85.3068 440.424 85.7601C440.051 86.2135 439.451 86.4535 438.624 86.4801Z" fill="white"/>
</g>
<g id="Group_28">
<path id="Vector_26" d="M464.672 95.52C464.672 95.52 464.672 95.3467 464.672 95C464.672 94.6534 464.859 94.3867 465.232 94.2H477.192V88.2L477.232 82.2C477.499 81.8534 477.752 81.68 477.992 81.68C478.339 81.68 478.605 81.88 478.792 82.28V94.2H490.712C491.112 94.4134 491.312 94.68 491.312 95C491.312 95.32 491.112 95.5867 490.712 95.8H478.792V107.72C478.579 108.093 478.339 108.28 478.072 108.28H477.992H477.912C477.592 108.28 477.352 108.093 477.192 107.72V95.8H465.232C464.859 95.6134 464.672 95.3467 464.672 95V95.52Z" fill="white"/>
</g>
<g id="Group_29">
<path id="Vector_27" d="M509 98.7201C509 99.3601 508.786 99.8935 508.36 100.32C507.933 100.747 507.413 100.96 506.8 100.96H506.52C507.746 103.067 509.373 104.12 511.4 104.12C513.266 104.12 514.626 103.32 515.48 101.72C515.986 100.84 516.24 99.1335 516.24 96.6001C516.24 93.8535 515.88 92.0001 515.16 91.0401C514.466 90.1601 513.693 89.7201 512.84 89.7201H512.6C510.52 89.7201 508.946 90.6268 507.88 92.4401C507.773 92.6268 507.68 92.7335 507.6 92.7601C507.52 92.7868 507.32 92.8135 507 92.8401C506.546 92.8401 506.293 92.7601 506.24 92.6001C506.186 92.4935 506.16 90.1601 506.16 85.6001V80.4401C506.16 79.1068 506.226 78.4401 506.36 78.4401C506.413 78.3868 506.466 78.3601 506.52 78.3601C506.546 78.3601 506.826 78.4668 507.36 78.6801C507.893 78.8935 508.626 79.1068 509.56 79.3201C510.493 79.5335 511.493 79.6401 512.56 79.6401C514.453 79.6401 516.266 79.2668 518 78.5201C518.213 78.4135 518.386 78.3601 518.52 78.3601C518.733 78.3601 518.84 78.6001 518.84 79.0801V79.6001C516.653 82.1868 513.92 83.4801 510.64 83.4801C509.813 83.4801 509.066 83.4001 508.4 83.2401L508 83.1601V90.0401C508.506 89.6668 508.906 89.3735 509.2 89.1601C509.493 88.9468 509.973 88.7335 510.64 88.5201C511.306 88.3068 511.986 88.2001 512.68 88.2001C514.84 88.2001 516.666 89.0668 518.16 90.8001C519.653 92.5335 520.4 94.5868 520.4 96.9601C520.4 99.4135 519.546 101.507 517.84 103.24C516.133 104.973 514.053 105.853 511.6 105.88C509.44 105.88 507.706 105.16 506.4 103.72C505.093 102.28 504.44 100.653 504.44 98.8401C504.44 98.2001 504.586 97.6935 504.88 97.3201C505.173 96.9468 505.48 96.7068 505.8 96.6001C506.12 96.4935 506.426 96.4401 506.72 96.4401C507.386 96.4401 507.933 96.6668 508.36 97.1201C508.786 97.5735 509 98.1068 509 98.7201Z" fill="white"/>
</g>
<g id="Group_30">
<path id="Vector_28" d="M524.84 75.04L525 75C525.133 75 525.267 75 525.4 75H525.88L527 75.96C529.507 78.2267 531.333 81.0533 532.48 84.44C533.627 87.8267 534.2 91.3467 534.2 95C534.2 96.8133 534.067 98.56 533.8 100.24C533.533 101.92 533.227 103.347 532.88 104.52C532.533 105.693 532.04 106.867 531.4 108.04C530.76 109.213 530.253 110.107 529.88 110.72C529.507 111.333 528.96 112.013 528.24 112.76C527.52 113.507 527.093 113.947 526.96 114.08C526.827 114.213 526.52 114.467 526.04 114.84C525.96 114.92 525.907 114.973 525.88 115H525.4C525.187 115 525.04 115 524.96 115C524.88 115 524.813 114.96 524.76 114.88C524.707 114.8 524.667 114.68 524.64 114.52C524.667 114.493 524.813 114.32 525.08 114C529.213 109.707 531.28 103.373 531.28 95C531.28 86.6267 529.213 80.2933 525.08 76C524.813 75.68 524.667 75.5067 524.64 75.48C524.64 75.2667 524.707 75.12 524.84 75.04Z" fill="white"/>
</g>
<g id="Group_31">
<path id="Vector_29" d="M550.248 95.5196C550.248 95.5196 550.248 95.3462 550.248 94.9996C550.248 94.6529 550.435 94.3862 550.808 94.1996H574.048C574.448 94.4129 574.648 94.6796 574.648 94.9996C574.648 95.3196 574.448 95.5862 574.048 95.7996H550.808C550.435 95.6129 550.248 95.3462 550.248 94.9996V95.5196Z" fill="white"/>
</g>
<g id="Group_32">
<path id="Vector_30" d="M590.656 95C590.656 93.16 590.789 91.4133 591.056 89.76C591.323 88.1067 591.629 86.68 591.976 85.48C592.323 84.28 592.816 83.1067 593.456 81.96C594.096 80.8133 594.603 79.92 594.976 79.28C595.349 78.64 595.909 77.9467 596.656 77.2C597.403 76.4533 597.843 76 597.976 75.84C598.109 75.68 598.443 75.4 598.976 75H599.496H599.656C600.029 75 600.216 75.12 600.216 75.36C600.216 75.44 599.989 75.72 599.536 76.2C599.083 76.68 598.536 77.3867 597.896 78.32C597.256 79.2533 596.603 80.4 595.936 81.76C595.269 83.12 594.709 84.96 594.256 87.28C593.803 89.6 593.576 92.1733 593.576 95C593.576 97.8267 593.803 100.387 594.256 102.68C594.709 104.973 595.256 106.827 595.896 108.24C596.536 109.653 597.189 110.8 597.856 111.68C598.523 112.56 599.083 113.267 599.536 113.8C599.989 114.333 600.216 114.613 600.216 114.64C600.216 114.88 600.016 115 599.616 115H599.496H598.976L597.856 114.04C595.349 111.773 593.523 108.947 592.376 105.56C591.229 102.173 590.656 98.6533 590.656 95Z" fill="white"/>
</g>
<g id="Group_33">
<path id="Vector_31" d="M606.816 87.84C606.096 87.84 605.523 87.6 605.096 87.12C604.669 86.64 604.456 86.0533 604.456 85.36C604.456 83.4667 605.163 81.8267 606.576 80.44C607.989 79.0533 609.749 78.36 611.856 78.36C614.283 78.36 616.309 79.1067 617.936 80.6C619.563 82.0933 620.389 84.0267 620.416 86.4C620.416 87.5467 620.149 88.64 619.616 89.68C619.083 90.72 618.443 91.6267 617.696 92.4C616.949 93.1733 615.883 94.16 614.496 95.36C613.536 96.1867 612.203 97.4133 610.496 99.04L608.136 101.28L611.176 101.32C615.363 101.32 617.589 101.253 617.856 101.12C618.043 101.067 618.363 99.88 618.816 97.56V97.44H620.416V97.56C620.389 97.64 620.216 98.8533 619.896 101.2C619.576 103.547 619.376 104.773 619.296 104.88V105H604.456V104.24V103.76C604.456 103.573 604.536 103.373 604.696 103.16C604.856 102.947 605.256 102.48 605.896 101.76C606.669 100.907 607.336 100.16 607.896 99.52C608.136 99.2533 608.589 98.76 609.256 98.04C609.923 97.32 610.376 96.8267 610.616 96.56C610.856 96.2933 611.243 95.8533 611.776 95.24C612.309 94.6267 612.683 94.1733 612.896 93.88C613.109 93.5867 613.416 93.1867 613.816 92.68C614.216 92.1733 614.496 91.7467 614.656 91.4C614.816 91.0533 615.016 90.6667 615.256 90.24C615.496 89.8133 615.669 89.3867 615.776 88.96C615.883 88.5333 615.976 88.1333 616.056 87.76C616.136 87.3867 616.176 86.9467 616.176 86.44C616.176 84.76 615.723 83.3067 614.816 82.08C613.909 80.8533 612.616 80.24 610.936 80.24C610.056 80.24 609.283 80.4667 608.616 80.92C607.949 81.3733 607.483 81.8133 607.216 82.24C606.949 82.6667 606.816 82.92 606.816 83C606.816 83.0267 606.883 83.04 607.016 83.04C607.496 83.04 607.989 83.2267 608.496 83.6C609.003 83.9733 609.256 84.5867 609.256 85.44C609.256 86.1067 609.043 86.6667 608.616 87.12C608.189 87.5733 607.589 87.8133 606.816 87.84Z" fill="white"/>
</g>
<g id="Group_34">
<path id="Vector_32" d="M633.588 95.52C633.588 95.52 633.588 95.3467 633.588 95C633.588 94.6534 633.775 94.3867 634.148 94.2H646.108V88.2L646.148 82.2C646.415 81.8534 646.668 81.68 646.908 81.68C647.255 81.68 647.521 81.88 647.708 82.28V94.2H659.628C660.028 94.4134 660.228 94.68 660.228 95C660.228 95.32 660.028 95.5867 659.628 95.8H647.708V107.72C647.495 108.093 647.255 108.28 646.988 108.28H646.908H646.828C646.508 108.28 646.268 108.093 646.108 107.72V95.8H634.148C633.775 95.6134 633.588 95.3467 633.588 95V95.52Z" fill="white"/>
</g>
<g id="Group_35">
<path id="Vector_33" d="M689.836 105C689.356 104.92 687.636 104.88 684.676 104.88C681.582 104.88 679.796 104.92 679.316 105H678.956V103.16H680.196C680.729 103.16 681.089 103.16 681.276 103.16C681.462 103.16 681.689 103.133 681.956 103.08C682.222 103.027 682.409 102.96 682.516 102.88C682.622 102.8 682.716 102.693 682.796 102.56C682.822 102.507 682.836 101.787 682.836 100.4V98.4H672.476V96.56L678.516 87.32C682.596 81.1333 684.662 78.0267 684.716 78C684.769 77.9467 685.049 77.92 685.556 77.92H686.276L686.516 78.16V96.56H690.196V98.4H686.516V100.44C686.516 101.533 686.516 102.173 686.516 102.36C686.516 102.547 686.596 102.707 686.756 102.84C686.969 103.027 687.729 103.133 689.036 103.16H690.196V105H689.836ZM683.076 96.56V83.2L674.316 96.52L678.676 96.56H683.076Z" fill="white"/>
</g>
<g id="Group_36">
<path id="Vector_34" d="M693.756 75.04L693.916 75C694.049 75 694.183 75 694.316 75H694.796L695.916 75.96C698.423 78.2267 700.249 81.0533 701.396 84.44C702.543 87.8267 703.116 91.3467 703.116 95C703.116 96.8133 702.983 98.56 702.716 100.24C702.449 101.92 702.143 103.347 701.796 104.52C701.449 105.693 700.956 106.867 700.316 108.04C699.676 109.213 699.169 110.107 698.796 110.72C698.423 111.333 697.876 112.013 697.156 112.76C696.436 113.507 696.009 113.947 695.876 114.08C695.743 114.213 695.436 114.467 694.956 114.84C694.876 114.92 694.823 114.973 694.796 115H694.316C694.103 115 693.956 115 693.876 115C693.796 115 693.729 114.96 693.676 114.88C693.623 114.8 693.583 114.68 693.556 114.52C693.583 114.493 693.729 114.32 693.996 114C698.129 109.707 700.196 103.373 700.196 95C700.196 86.6267 698.129 80.2933 693.996 76C693.729 75.68 693.583 75.5067 693.556 75.48C693.556 75.2667 693.623 75.12 693.756 75.04Z" fill="white"/>
</g>
<g id="Group_37">
<path id="Vector_35" d="M720.268 91.1202C720.268 90.7735 720.455 90.5068 720.828 90.3202H746.308C746.708 90.5335 746.908 90.8002 746.908 91.1202C746.908 91.4135 746.721 91.6668 746.348 91.8802L733.628 91.9202H720.908C720.481 91.7868 720.268 91.5202 720.268 91.1202ZM720.268 98.8802C720.268 98.4802 720.481 98.2135 720.908 98.0802H746.348C746.721 98.3468 746.908 98.6135 746.908 98.8802C746.908 99.2268 746.708 99.4935 746.308 99.6802H720.828C720.455 99.4935 720.268 99.2268 720.268 98.8802Z" fill="white"/>
</g>
<g id="Group_38">
<path id="Vector_36" d="M763.056 88.3201C763.056 88.3201 763.056 87.2935 763.056 85.2401C763.056 83.1868 763.776 81.5335 765.216 80.2801C766.656 79.0268 768.309 78.3868 770.176 78.3601C772.069 78.3601 773.749 78.9201 775.216 80.0401C776.683 81.1601 777.416 82.6135 777.416 84.4001C777.416 85.2001 777.269 85.9468 776.976 86.6401C776.683 87.3335 776.336 87.8935 775.936 88.3201C775.536 88.7468 775.123 89.1201 774.696 89.4401C774.269 89.7601 773.923 90.0001 773.656 90.1601C773.389 90.3201 773.243 90.4268 773.216 90.4801L773.776 90.8401C774.149 91.1068 774.523 91.3735 774.896 91.6401C775.269 91.9068 775.483 92.0535 775.536 92.0801C777.536 93.6535 778.536 95.6401 778.536 98.0401C778.536 100.147 777.763 101.973 776.216 103.52C774.669 105.067 772.669 105.853 770.216 105.88C767.816 105.88 765.843 105.2 764.296 103.84C762.749 102.48 761.976 100.8 761.976 98.8001C761.976 95.9201 763.696 93.5201 767.136 91.6001L766.416 91.0801C765.856 90.7335 765.496 90.4668 765.336 90.2801C763.816 88.9735 763.056 87.2935 763.056 85.2401V88.3201ZM771.696 89.5601L771.936 89.4001C772.096 89.2935 772.216 89.2135 772.296 89.1601C772.376 89.1068 772.509 89.0135 772.696 88.8801C772.883 88.7468 773.043 88.6135 773.176 88.4801C773.309 88.3468 773.456 88.1868 773.616 88.0001C773.776 87.8135 773.923 87.6401 774.056 87.4801C774.189 87.3201 774.323 87.1068 774.456 86.8401C774.589 86.5735 774.709 86.3468 774.816 86.1601C774.923 85.9735 774.989 85.7068 775.016 85.3601C775.043 85.0135 775.069 84.7201 775.096 84.4801C775.096 83.3335 774.709 82.3601 773.936 81.5601C773.163 80.7601 772.269 80.2535 771.256 80.0401C771.069 80.0135 770.629 80.0001 769.936 80.0001C768.843 80.0001 767.816 80.3468 766.856 81.0401C765.896 81.7335 765.403 82.6001 765.376 83.6401C765.376 84.2535 765.549 84.8135 765.896 85.3201C766.243 85.8268 766.589 86.2135 766.936 86.4801C767.283 86.7468 767.949 87.1735 768.936 87.7601C769.123 87.8935 769.269 87.9868 769.376 88.0401L771.696 89.5601ZM770.256 104.16C771.803 104.16 773.136 103.707 774.256 102.8C775.376 101.893 775.936 100.8 775.936 99.5201C775.936 99.0668 775.869 98.6401 775.736 98.2401C775.603 97.8401 775.443 97.5068 775.256 97.2401C775.069 96.9735 774.776 96.6801 774.376 96.3601C773.976 96.0401 773.669 95.8001 773.456 95.6401C773.243 95.4801 772.856 95.2268 772.296 94.8801C771.736 94.5335 771.376 94.3068 771.216 94.2001C770.843 93.9601 770.443 93.7068 770.016 93.4401C769.589 93.1735 769.243 92.9468 768.976 92.7601L768.656 92.5601C768.496 92.5601 768.109 92.7868 767.496 93.2401C766.883 93.6935 766.243 94.4268 765.576 95.4401C764.909 96.4535 764.563 97.5468 764.536 98.7201C764.536 100.293 765.109 101.587 766.256 102.6C767.403 103.613 768.736 104.133 770.256 104.16Z" fill="white"/>
</g>
<g id="Group_39">
<path id="Vector_37" d="M792.508 95.5196C792.508 95.5196 792.508 95.3462 792.508 94.9996C792.508 94.6529 792.695 94.3862 793.068 94.1996H816.308C816.708 94.4129 816.908 94.6796 816.908 94.9996C816.908 95.3196 816.708 95.5862 816.308 95.7996H793.068C792.695 95.6129 792.508 95.3462 792.508 94.9996V95.5196Z" fill="white"/>
</g>
<g id="Group_40">
<path id="Vector_38" d="M847.636 105C847.156 104.92 845.436 104.88 842.476 104.88C839.383 104.88 837.596 104.92 837.116 105H836.756V103.16H837.996C838.529 103.16 838.889 103.16 839.076 103.16C839.263 103.16 839.489 103.133 839.756 103.08C840.023 103.027 840.209 102.96 840.316 102.88C840.423 102.8 840.516 102.693 840.596 102.56C840.623 102.507 840.636 101.787 840.636 100.4V98.4H830.276V96.56L836.316 87.32C840.396 81.1333 842.463 78.0267 842.516 78C842.569 77.9467 842.849 77.92 843.356 77.92H844.076L844.316 78.16V96.56H847.996V98.4H844.316V100.44C844.316 101.533 844.316 102.173 844.316 102.36C844.316 102.547 844.396 102.707 844.556 102.84C844.769 103.027 845.529 103.133 846.836 103.16H847.996V105H847.636ZM840.876 96.56V83.2L832.116 96.52L836.476 96.56H840.876Z" fill="white"/>
</g>
<g id="Group_41">
<path id="Vector_39" d="M862.508 91.1202C862.508 90.7735 862.694 90.5068 863.068 90.3202H888.548C888.948 90.5335 889.148 90.8002 889.148 91.1202C889.148 91.4135 888.961 91.6668 888.588 91.8802L875.868 91.9202H863.148C862.721 91.7868 862.508 91.5202 862.508 91.1202ZM862.508 98.8802C862.508 98.4802 862.721 98.2135 863.148 98.0802H888.588C888.961 98.3468 889.148 98.6135 889.148 98.8802C889.148 99.2268 888.948 99.4935 888.548 99.6802H863.068C862.694 99.4935 862.508 99.2268 862.508 98.8802Z" fill="white"/>
</g>
<g id="Group_42">
<path id="Vector_40" d="M920.976 105C920.496 104.92 918.776 104.88 915.816 104.88C912.723 104.88 910.936 104.92 910.456 105H910.096V103.16H911.336C911.869 103.16 912.229 103.16 912.416 103.16C912.603 103.16 912.829 103.133 913.096 103.08C913.363 103.027 913.549 102.96 913.656 102.88C913.763 102.8 913.856 102.693 913.936 102.56C913.963 102.507 913.976 101.787 913.976 100.4V98.4H903.616V96.56L909.656 87.32C913.736 81.1333 915.803 78.0267 915.856 78C915.909 77.9467 916.189 77.92 916.696 77.92H917.416L917.656 78.16V96.56H921.336V98.4H917.656V100.44C917.656 101.533 917.656 102.173 917.656 102.36C917.656 102.547 917.736 102.707 917.896 102.84C918.109 103.027 918.869 103.133 920.176 103.16H921.336V105H920.976ZM914.216 96.56V83.2L905.456 96.52L909.816 96.56H914.216Z" fill="white"/>
</g>
</g>
</g>
<g id="\Rightarrow\;x=(2+1)-(1+2)&#10;\therefore\;x=3-3=0">
<g id="Group_43">
<g id="Group 33">
<g id="Group_44">
<path id="Vector_41" d="M465.96 175.44C465.96 175.147 466.173 175 466.6 175C466.733 175 466.84 175 466.92 175C467 175 467.067 175 467.12 175C467.173 175 467.227 175.013 467.28 175.04C467.333 175.067 467.36 175.08 467.36 175.08C467.36 175.08 467.387 175.12 467.44 175.2C467.493 175.28 467.52 175.32 467.52 175.32C467.52 175.32 467.56 175.387 467.64 175.52C468.627 177.493 469.933 179.24 471.56 180.76C473.187 182.28 474.667 183.36 476 184C477.333 184.64 478.613 185.133 479.84 185.48C480.293 185.613 480.52 185.787 480.52 186C480.52 186.213 480.4 186.36 480.16 186.44C479.92 186.52 479.427 186.667 478.68 186.88C477.933 187.093 477.16 187.413 476.36 187.84C472.52 189.707 469.613 192.587 467.64 196.48C467.533 196.72 467.44 196.853 467.36 196.88C467.28 196.907 467.08 196.933 466.76 196.96C466.227 196.96 465.96 196.867 465.96 196.68C465.96 196.573 466.027 196.347 466.16 196C467.093 194.16 468.24 192.52 469.6 191.08L470 190.68H445.56C445.187 190.493 445 190.227 445 189.88C445 189.48 445.213 189.213 445.64 189.08H471.76L472.16 188.76C473.2 187.96 474.76 187.04 476.84 186C476.813 185.973 476.573 185.853 476.12 185.64C475.667 185.427 475.067 185.107 474.32 184.68C473.573 184.253 472.853 183.773 472.16 183.24L471.76 182.92H445.64C445.213 182.787 445 182.52 445 182.12C445 181.773 445.187 181.507 445.56 181.32H470L469.6 180.92C468.72 179.987 467.893 178.907 467.12 177.68C466.347 176.453 465.96 175.707 465.96 175.44Z" fill="white"/>
</g>
<g id="Group_45">
<path id="Vector_42" d="M507.064 184.44C507.25 183.32 507.97 182.027 509.224 180.56C510.477 179.093 512.024 178.347 513.864 178.32C514.797 178.32 515.65 178.56 516.424 179.04C517.197 179.52 517.77 180.12 518.144 180.84C519.264 179.16 520.61 178.32 522.184 178.32C523.17 178.32 524.024 178.613 524.744 179.2C525.464 179.787 525.837 180.573 525.864 181.56C525.864 182.333 525.677 182.96 525.304 183.44C524.93 183.92 524.57 184.213 524.224 184.32C523.877 184.427 523.57 184.48 523.304 184.48C522.797 184.48 522.384 184.333 522.064 184.04C521.744 183.747 521.584 183.36 521.584 182.88C521.584 181.653 522.25 180.813 523.584 180.36C523.29 180.013 522.757 179.84 521.984 179.84C521.637 179.84 521.384 179.867 521.224 179.92C520.21 180.347 519.464 181.227 518.984 182.56C517.384 188.453 516.584 191.893 516.584 192.88C516.584 193.627 516.797 194.16 517.224 194.48C517.65 194.8 518.117 194.96 518.624 194.96C519.61 194.96 520.584 194.52 521.544 193.64C522.504 192.76 523.157 191.68 523.504 190.4C523.584 190.133 523.664 189.987 523.744 189.96C523.824 189.933 524.037 189.907 524.384 189.88H524.544C524.944 189.88 525.144 189.987 525.144 190.2C525.144 190.227 525.117 190.373 525.064 190.64C524.637 192.16 523.81 193.507 522.584 194.68C521.357 195.853 519.93 196.44 518.304 196.44C516.437 196.44 515.024 195.6 514.064 193.92C512.97 195.573 511.717 196.4 510.304 196.4H510.064C508.757 196.4 507.824 196.053 507.264 195.36C506.704 194.667 506.41 193.933 506.384 193.16C506.384 192.307 506.637 191.613 507.144 191.08C507.65 190.547 508.25 190.28 508.944 190.28C510.09 190.28 510.664 190.84 510.664 191.96C510.664 192.493 510.504 192.96 510.184 193.36C509.864 193.76 509.557 194.027 509.264 194.16C508.97 194.293 508.797 194.36 508.744 194.36L508.624 194.4C508.624 194.427 508.704 194.48 508.864 194.56C509.024 194.64 509.237 194.733 509.504 194.84C509.77 194.947 510.024 194.987 510.264 194.96C511.224 194.96 512.05 194.36 512.744 193.16C512.984 192.733 513.29 191.827 513.664 190.44C514.037 189.053 514.41 187.613 514.784 186.12C515.157 184.627 515.37 183.747 515.424 183.48C515.557 182.76 515.624 182.24 515.624 181.92C515.624 181.173 515.424 180.64 515.024 180.32C514.624 180 514.17 179.84 513.664 179.84C512.597 179.84 511.597 180.267 510.664 181.12C509.73 181.973 509.077 183.067 508.704 184.4C508.65 184.64 508.584 184.773 508.504 184.8C508.424 184.827 508.21 184.853 507.864 184.88H507.304C507.144 184.72 507.064 184.573 507.064 184.44Z" fill="white"/>
</g>
<g id="Group_46">
<path id="Vector_43" d="M541.212 182.12C541.212 181.774 541.399 181.507 541.772 181.32H567.252C567.652 181.534 567.852 181.8 567.852 182.12C567.852 182.414 567.665 182.667 567.292 182.88L554.572 182.92H541.852C541.425 182.787 541.212 182.52 541.212 182.12ZM541.212 189.88C541.212 189.48 541.425 189.214 541.852 189.08H567.292C567.665 189.347 567.852 189.614 567.852 189.88C567.852 190.227 567.652 190.494 567.252 190.68H541.772C541.399 190.494 541.212 190.227 541.212 189.88Z" fill="white"/>
</g>
<g id="Group_47">
<path id="Vector_44" d="M584.964 186C584.964 184.16 585.097 182.413 585.364 180.76C585.631 179.107 585.937 177.68 586.284 176.48C586.631 175.28 587.124 174.107 587.764 172.96C588.404 171.813 588.911 170.92 589.284 170.28C589.657 169.64 590.217 168.947 590.964 168.2C591.711 167.453 592.151 167 592.284 166.84C592.417 166.68 592.751 166.4 593.284 166H593.804H593.964C594.337 166 594.524 166.12 594.524 166.36C594.524 166.44 594.297 166.72 593.844 167.2C593.391 167.68 592.844 168.387 592.204 169.32C591.564 170.253 590.911 171.4 590.244 172.76C589.577 174.12 589.017 175.96 588.564 178.28C588.111 180.6 587.884 183.173 587.884 186C587.884 188.827 588.111 191.387 588.564 193.68C589.017 195.973 589.564 197.827 590.204 199.24C590.844 200.653 591.497 201.8 592.164 202.68C592.831 203.56 593.391 204.267 593.844 204.8C594.297 205.333 594.524 205.613 594.524 205.64C594.524 205.88 594.324 206 593.924 206H593.804H593.284L592.164 205.04C589.657 202.773 587.831 199.947 586.684 196.56C585.537 193.173 584.964 189.653 584.964 186Z" fill="white"/>
</g>
<g id="Group_48">
<path id="Vector_45" d="M601.124 178.84C600.404 178.84 599.83 178.6 599.404 178.12C598.977 177.64 598.764 177.053 598.764 176.36C598.764 174.467 599.47 172.827 600.884 171.44C602.297 170.053 604.057 169.36 606.164 169.36C608.59 169.36 610.617 170.107 612.244 171.6C613.87 173.093 614.697 175.027 614.724 177.4C614.724 178.547 614.457 179.64 613.924 180.68C613.39 181.72 612.75 182.627 612.004 183.4C611.257 184.173 610.19 185.16 608.804 186.36C607.844 187.187 606.51 188.413 604.804 190.04L602.444 192.28L605.484 192.32C609.67 192.32 611.897 192.253 612.164 192.12C612.35 192.067 612.67 190.88 613.124 188.56V188.44H614.724V188.56C614.697 188.64 614.524 189.853 614.204 192.2C613.884 194.547 613.684 195.773 613.604 195.88V196H598.764V195.24V194.76C598.764 194.573 598.844 194.373 599.004 194.16C599.164 193.947 599.564 193.48 600.204 192.76C600.977 191.907 601.644 191.16 602.204 190.52C602.444 190.253 602.897 189.76 603.564 189.04C604.23 188.32 604.684 187.827 604.924 187.56C605.164 187.293 605.55 186.853 606.084 186.24C606.617 185.627 606.99 185.173 607.204 184.88C607.417 184.587 607.724 184.187 608.124 183.68C608.524 183.173 608.804 182.747 608.964 182.4C609.124 182.053 609.324 181.667 609.564 181.24C609.804 180.813 609.977 180.387 610.084 179.96C610.19 179.533 610.284 179.133 610.364 178.76C610.444 178.387 610.484 177.947 610.484 177.44C610.484 175.76 610.03 174.307 609.124 173.08C608.217 171.853 606.924 171.24 605.244 171.24C604.364 171.24 603.59 171.467 602.924 171.92C602.257 172.373 601.79 172.813 601.524 173.24C601.257 173.667 601.124 173.92 601.124 174C601.124 174.027 601.19 174.04 601.324 174.04C601.804 174.04 602.297 174.227 602.804 174.6C603.31 174.973 603.564 175.587 603.564 176.44C603.564 177.107 603.35 177.667 602.924 178.12C602.497 178.573 601.897 178.813 601.124 178.84Z" fill="white"/>
</g>
<g id="Group_49">
<path id="Vector_46" d="M627.892 186.52C627.892 186.52 627.892 186.346 627.892 186C627.892 185.653 628.079 185.386 628.452 185.2H640.412V179.2L640.452 173.2C640.719 172.853 640.972 172.68 641.212 172.68C641.559 172.68 641.825 172.88 642.012 173.28V185.2H653.932C654.332 185.413 654.532 185.68 654.532 186C654.532 186.32 654.332 186.586 653.932 186.8H642.012V198.72C641.799 199.093 641.559 199.28 641.292 199.28H641.212H641.132C640.812 199.28 640.572 199.093 640.412 198.72V186.8H628.452C628.079 186.613 627.892 186.346 627.892 186V186.52Z" fill="white"/>
</g>
<g id="Group_50">
<path id="Vector_47" d="M674.184 172.88L673.664 173.08C673.291 173.213 672.757 173.347 672.064 173.48C671.371 173.613 670.597 173.707 669.744 173.76H668.984V171.92H669.744C670.997 171.867 672.157 171.667 673.224 171.32C674.291 170.973 675.037 170.653 675.464 170.36C675.891 170.067 676.264 169.773 676.584 169.48C676.637 169.4 676.797 169.36 677.064 169.36C677.304 169.36 677.531 169.44 677.744 169.6V181.56L677.784 193.56C677.971 193.747 678.131 193.867 678.264 193.92C678.397 193.973 678.717 194.027 679.224 194.08C679.731 194.133 680.557 194.16 681.704 194.16H682.744V196H682.304C681.744 195.92 679.624 195.88 675.944 195.88C672.317 195.88 670.224 195.92 669.664 196H669.184V194.16H670.224C670.811 194.16 671.317 194.16 671.744 194.16C672.171 194.16 672.504 194.147 672.744 194.12C672.984 194.093 673.197 194.053 673.384 194C673.571 193.947 673.677 193.92 673.704 193.92C673.731 193.92 673.811 193.853 673.944 193.72C674.077 193.587 674.157 193.533 674.184 193.56V172.88Z" fill="white"/>
</g>
<g id="Group_51">
<path id="Vector_48" d="M688.064 166.04L688.224 166C688.357 166 688.49 166 688.624 166H689.104L690.224 166.96C692.73 169.227 694.557 172.053 695.704 175.44C696.85 178.827 697.424 182.347 697.424 186C697.424 187.813 697.29 189.56 697.024 191.24C696.757 192.92 696.45 194.347 696.104 195.52C695.757 196.693 695.264 197.867 694.624 199.04C693.984 200.213 693.477 201.107 693.104 201.72C692.73 202.333 692.184 203.013 691.464 203.76C690.744 204.507 690.317 204.947 690.184 205.08C690.05 205.213 689.744 205.467 689.264 205.84C689.184 205.92 689.13 205.973 689.104 206H688.624C688.41 206 688.264 206 688.184 206C688.104 206 688.037 205.96 687.984 205.88C687.93 205.8 687.89 205.68 687.864 205.52C687.89 205.493 688.037 205.32 688.304 205C692.437 200.707 694.504 194.373 694.504 186C694.504 177.627 692.437 171.293 688.304 167C688.037 166.68 687.89 166.507 687.864 166.48C687.864 166.267 687.93 166.12 688.064 166.04Z" fill="white"/>
</g>
<g id="Group_52">
<path id="Vector_49" d="M713.472 186.52C713.472 186.52 713.472 186.347 713.472 186C713.472 185.654 713.658 185.387 714.032 185.2H737.272C737.672 185.414 737.872 185.68 737.872 186C737.872 186.32 737.672 186.587 737.272 186.8H714.032C713.658 186.614 713.472 186.347 713.472 186V186.52Z" fill="white"/>
</g>
<g id="Group_53">
<path id="Vector_50" d="M753.88 186C753.88 184.16 754.013 182.413 754.28 180.76C754.547 179.107 754.853 177.68 755.2 176.48C755.547 175.28 756.04 174.107 756.68 172.96C757.32 171.813 757.827 170.92 758.2 170.28C758.573 169.64 759.133 168.947 759.88 168.2C760.627 167.453 761.067 167 761.2 166.84C761.333 166.68 761.667 166.4 762.2 166H762.72H762.88C763.253 166 763.44 166.12 763.44 166.36C763.44 166.44 763.213 166.72 762.76 167.2C762.307 167.68 761.76 168.387 761.12 169.32C760.48 170.253 759.827 171.4 759.16 172.76C758.493 174.12 757.933 175.96 757.48 178.28C757.027 180.6 756.8 183.173 756.8 186C756.8 188.827 757.027 191.387 757.48 193.68C757.933 195.973 758.48 197.827 759.12 199.24C759.76 200.653 760.413 201.8 761.08 202.68C761.747 203.56 762.307 204.267 762.76 204.8C763.213 205.333 763.44 205.613 763.44 205.64C763.44 205.88 763.24 206 762.84 206H762.72H762.2L761.08 205.04C758.573 202.773 756.747 199.947 755.6 196.56C754.453 193.173 753.88 189.653 753.88 186Z" fill="white"/>
</g>
<g id="Group_54">
<path id="Vector_51" d="M774.2 172.88L773.68 173.08C773.306 173.213 772.773 173.347 772.08 173.48C771.386 173.613 770.613 173.707 769.76 173.76H769V171.92H769.76C771.013 171.867 772.173 171.667 773.24 171.32C774.306 170.973 775.053 170.653 775.48 170.36C775.906 170.067 776.28 169.773 776.6 169.48C776.653 169.4 776.813 169.36 777.08 169.36C777.32 169.36 777.546 169.44 777.76 169.6V181.56L777.8 193.56C777.986 193.747 778.146 193.867 778.28 193.92C778.413 193.973 778.733 194.027 779.24 194.08C779.746 194.133 780.573 194.16 781.72 194.16H782.76V196H782.32C781.76 195.92 779.64 195.88 775.96 195.88C772.333 195.88 770.24 195.92 769.68 196H769.2V194.16H770.24C770.826 194.16 771.333 194.16 771.76 194.16C772.186 194.16 772.52 194.147 772.76 194.12C773 194.093 773.213 194.053 773.4 194C773.586 193.947 773.693 193.92 773.72 193.92C773.746 193.92 773.826 193.853 773.96 193.72C774.093 193.587 774.173 193.533 774.2 193.56V172.88Z" fill="white"/>
</g>
<g id="Group_55">
<path id="Vector_52" d="M796.808 186.52C796.808 186.52 796.808 186.346 796.808 186C796.808 185.653 796.995 185.386 797.368 185.2H809.328V179.2L809.368 173.2C809.635 172.853 809.888 172.68 810.128 172.68C810.475 172.68 810.741 172.88 810.928 173.28V185.2H822.848C823.248 185.413 823.448 185.68 823.448 186C823.448 186.32 823.248 186.586 822.848 186.8H810.928V198.72C810.715 199.093 810.475 199.28 810.208 199.28H810.128H810.048C809.728 199.28 809.488 199.093 809.328 198.72V186.8H797.368C796.995 186.613 796.808 186.346 796.808 186V186.52Z" fill="white"/>
</g>
<g id="Group_56">
<path id="Vector_53" d="M838.936 178.84C838.216 178.84 837.643 178.6 837.216 178.12C836.79 177.64 836.576 177.053 836.576 176.36C836.576 174.467 837.283 172.827 838.696 171.44C840.11 170.053 841.87 169.36 843.976 169.36C846.403 169.36 848.43 170.107 850.056 171.6C851.683 173.093 852.51 175.027 852.536 177.4C852.536 178.547 852.27 179.64 851.736 180.68C851.203 181.72 850.563 182.627 849.816 183.4C849.07 184.173 848.003 185.16 846.616 186.36C845.656 187.187 844.323 188.413 842.616 190.04L840.256 192.28L843.296 192.32C847.483 192.32 849.71 192.253 849.976 192.12C850.163 192.067 850.483 190.88 850.936 188.56V188.44H852.536V188.56C852.51 188.64 852.336 189.853 852.016 192.2C851.696 194.547 851.496 195.773 851.416 195.88V196H836.576V195.24V194.76C836.576 194.573 836.656 194.373 836.816 194.16C836.976 193.947 837.376 193.48 838.016 192.76C838.79 191.907 839.456 191.16 840.016 190.52C840.256 190.253 840.71 189.76 841.376 189.04C842.043 188.32 842.496 187.827 842.736 187.56C842.976 187.293 843.363 186.853 843.896 186.24C844.43 185.627 844.803 185.173 845.016 184.88C845.23 184.587 845.536 184.187 845.936 183.68C846.336 183.173 846.616 182.747 846.776 182.4C846.936 182.053 847.136 181.667 847.376 181.24C847.616 180.813 847.79 180.387 847.896 179.96C848.003 179.533 848.096 179.133 848.176 178.76C848.256 178.387 848.296 177.947 848.296 177.44C848.296 175.76 847.843 174.307 846.936 173.08C846.03 171.853 844.736 171.24 843.056 171.24C842.176 171.24 841.403 171.467 840.736 171.92C840.07 172.373 839.603 172.813 839.336 173.24C839.07 173.667 838.936 173.92 838.936 174C838.936 174.027 839.003 174.04 839.136 174.04C839.616 174.04 840.11 174.227 840.616 174.6C841.123 174.973 841.376 175.587 841.376 176.44C841.376 177.107 841.163 177.667 840.736 178.12C840.31 178.573 839.71 178.813 838.936 178.84Z" fill="white"/>
</g>
<g id="Group_57">
<path id="Vector_54" d="M856.976 166.04L857.136 166C857.269 166 857.403 166 857.536 166H858.016L859.136 166.96C861.643 169.227 863.469 172.053 864.616 175.44C865.763 178.827 866.336 182.347 866.336 186C866.336 187.813 866.203 189.56 865.936 191.24C865.669 192.92 865.363 194.347 865.016 195.52C864.669 196.693 864.176 197.867 863.536 199.04C862.896 200.213 862.389 201.107 862.016 201.72C861.643 202.333 861.096 203.013 860.376 203.76C859.656 204.507 859.229 204.947 859.096 205.08C858.963 205.213 858.656 205.467 858.176 205.84C858.096 205.92 858.043 205.973 858.016 206H857.536C857.323 206 857.176 206 857.096 206C857.016 206 856.949 205.96 856.896 205.88C856.843 205.8 856.803 205.68 856.776 205.52C856.803 205.493 856.949 205.32 857.216 205C861.349 200.707 863.416 194.373 863.416 186C863.416 177.627 861.349 171.293 857.216 167C856.949 166.68 856.803 166.507 856.776 166.48C856.776 166.267 856.843 166.12 856.976 166.04Z" fill="white"/>
</g>
</g>
<g id="Group 32">
<g id="Group_58">
<path id="Vector_55" d="M493.96 247.2C493.96 246.506 494.2 245.933 494.68 245.48C495.16 245.026 495.733 244.8 496.4 244.8C497.04 244.8 497.587 245.026 498.04 245.48C498.493 245.933 498.733 246.506 498.76 247.2C498.787 247.893 498.56 248.466 498.08 248.92C497.6 249.373 497.027 249.6 496.36 249.6C495.667 249.6 495.093 249.373 494.64 248.92C494.187 248.466 493.96 247.893 493.96 247.2ZM486.4 262.12C487.093 262.12 487.653 262.346 488.08 262.8C488.507 263.253 488.733 263.826 488.76 264.52C488.76 265.16 488.547 265.72 488.12 266.2C487.693 266.68 487.107 266.92 486.36 266.92C485.667 266.92 485.107 266.693 484.68 266.24C484.253 265.786 484.027 265.213 484 264.52C484 263.826 484.227 263.253 484.68 262.8C485.133 262.346 485.707 262.12 486.4 262.12ZM504 264.52C504 263.826 504.227 263.253 504.68 262.8C505.133 262.346 505.707 262.12 506.4 262.12C507.04 262.12 507.587 262.346 508.04 262.8C508.493 263.253 508.733 263.826 508.76 264.52C508.76 265.133 508.547 265.68 508.12 266.16C507.693 266.64 507.107 266.893 506.36 266.92C505.667 266.92 505.107 266.693 504.68 266.24C504.253 265.786 504.027 265.213 504 264.52Z" fill="white"/>
</g>
<g id="Group_59">
<path id="Vector_56" d="M534.024 252.08C534.211 250.96 534.931 249.667 536.184 248.2C537.437 246.733 538.984 245.987 540.824 245.96C541.757 245.96 542.611 246.2 543.384 246.68C544.157 247.16 544.731 247.76 545.104 248.48C546.224 246.8 547.571 245.96 549.144 245.96C550.131 245.96 550.984 246.253 551.704 246.84C552.424 247.427 552.797 248.213 552.824 249.2C552.824 249.973 552.637 250.6 552.264 251.08C551.891 251.56 551.531 251.853 551.184 251.96C550.837 252.067 550.531 252.12 550.264 252.12C549.757 252.12 549.344 251.973 549.024 251.68C548.704 251.387 548.544 251 548.544 250.52C548.544 249.293 549.211 248.453 550.544 248C550.251 247.653 549.717 247.48 548.944 247.48C548.597 247.48 548.344 247.507 548.184 247.56C547.171 247.987 546.424 248.867 545.944 250.2C544.344 256.093 543.544 259.533 543.544 260.52C543.544 261.267 543.757 261.8 544.184 262.12C544.611 262.44 545.077 262.6 545.584 262.6C546.571 262.6 547.544 262.16 548.504 261.28C549.464 260.4 550.117 259.32 550.464 258.04C550.544 257.773 550.624 257.627 550.704 257.6C550.784 257.573 550.997 257.547 551.344 257.52H551.504C551.904 257.52 552.104 257.627 552.104 257.84C552.104 257.867 552.077 258.013 552.024 258.28C551.597 259.8 550.771 261.147 549.544 262.32C548.317 263.493 546.891 264.08 545.264 264.08C543.397 264.08 541.984 263.24 541.024 261.56C539.931 263.213 538.677 264.04 537.264 264.04H537.024C535.717 264.04 534.784 263.693 534.224 263C533.664 262.307 533.371 261.573 533.344 260.8C533.344 259.947 533.597 259.253 534.104 258.72C534.611 258.187 535.211 257.92 535.904 257.92C537.051 257.92 537.624 258.48 537.624 259.6C537.624 260.133 537.464 260.6 537.144 261C536.824 261.4 536.517 261.667 536.224 261.8C535.931 261.933 535.757 262 535.704 262L535.584 262.04C535.584 262.067 535.664 262.12 535.824 262.2C535.984 262.28 536.197 262.373 536.464 262.48C536.731 262.587 536.984 262.627 537.224 262.6C538.184 262.6 539.011 262 539.704 260.8C539.944 260.373 540.251 259.467 540.624 258.08C540.997 256.693 541.371 255.253 541.744 253.76C542.117 252.267 542.331 251.387 542.384 251.12C542.517 250.4 542.584 249.88 542.584 249.56C542.584 248.813 542.384 248.28 541.984 247.96C541.584 247.64 541.131 247.48 540.624 247.48C539.557 247.48 538.557 247.907 537.624 248.76C536.691 249.613 536.037 250.707 535.664 252.04C535.611 252.28 535.544 252.413 535.464 252.44C535.384 252.467 535.171 252.493 534.824 252.52H534.264C534.104 252.36 534.024 252.213 534.024 252.08Z" fill="white"/>
</g>
<g id="Group_60">
<path id="Vector_57" d="M568.176 249.76C568.176 249.414 568.362 249.147 568.736 248.96H594.216C594.616 249.174 594.816 249.44 594.816 249.76C594.816 250.054 594.629 250.307 594.256 250.52L581.536 250.56H568.816C568.389 250.427 568.176 250.16 568.176 249.76ZM568.176 257.52C568.176 257.12 568.389 256.854 568.816 256.72H594.256C594.629 256.987 594.816 257.254 594.816 257.52C594.816 257.867 594.616 258.134 594.216 258.32H568.736C568.362 258.134 568.176 257.867 568.176 257.52Z" fill="white"/>
</g>
<g id="Group_61">
<path id="Vector_58" d="M613.244 245.12C612.524 245.12 611.964 244.893 611.564 244.44C611.164 243.986 610.951 243.4 610.924 242.68C610.924 241.213 611.564 239.906 612.844 238.76C614.124 237.613 615.671 237.04 617.484 237.04C618.417 237.04 619.004 237.053 619.244 237.08C621.217 237.4 622.724 238.106 623.764 239.2C624.804 240.293 625.337 241.48 625.364 242.76C625.364 244.146 624.911 245.493 624.004 246.8C623.097 248.106 621.844 249.053 620.244 249.64L620.124 249.72C620.124 249.746 620.244 249.786 620.484 249.84C620.724 249.893 621.111 250.013 621.644 250.2C622.177 250.386 622.684 250.666 623.164 251.04C625.351 252.453 626.444 254.32 626.444 256.64C626.444 258.746 625.617 260.586 623.964 262.16C622.311 263.733 620.217 264.52 617.684 264.52C615.551 264.52 613.711 263.946 612.164 262.8C610.617 261.653 609.844 260.2 609.844 258.44C609.844 257.693 610.084 257.093 610.564 256.64C611.044 256.186 611.644 255.946 612.364 255.92C613.111 255.92 613.724 256.16 614.204 256.64C614.684 257.12 614.924 257.72 614.924 258.44C614.924 258.733 614.884 259 614.804 259.24C614.724 259.48 614.631 259.693 614.524 259.88C614.417 260.066 614.271 260.226 614.084 260.36C613.897 260.493 613.737 260.6 613.604 260.68C613.471 260.76 613.337 260.813 613.204 260.84C613.071 260.866 612.964 260.906 612.884 260.96L612.724 261C614.084 262.2 615.737 262.8 617.684 262.8C619.151 262.8 620.257 262.093 621.004 260.68C621.457 259.8 621.684 258.453 621.684 256.64V255.84C621.684 253.306 620.831 251.613 619.124 250.76C618.724 250.6 617.911 250.506 616.684 250.48L615.004 250.44L614.884 250.36C614.831 250.28 614.804 250.066 614.804 249.72C614.804 249.24 614.911 249 615.124 249C615.871 249 616.644 248.933 617.444 248.8C618.351 248.666 619.177 248.106 619.924 247.12C620.671 246.133 621.044 244.64 621.044 242.64V242.32C621.044 240.8 620.577 239.746 619.644 239.16C619.057 238.786 618.431 238.6 617.764 238.6C616.911 238.6 616.124 238.746 615.404 239.04C614.684 239.333 614.177 239.64 613.884 239.96C613.591 240.28 613.444 240.44 613.444 240.44H613.564C613.644 240.466 613.751 240.493 613.884 240.52C614.017 240.546 614.151 240.613 614.284 240.72C614.417 240.826 614.577 240.92 614.764 241C614.951 241.08 615.084 241.226 615.164 241.44C615.244 241.653 615.351 241.853 615.484 242.04C615.617 242.226 615.657 242.493 615.604 242.84C615.604 243.426 615.417 243.946 615.044 244.4C614.671 244.853 614.071 245.093 613.244 245.12Z" fill="white"/>
</g>
<g id="Group_62">
<path id="Vector_59" d="M640.416 254.16C640.416 254.16 640.416 253.987 640.416 253.64C640.416 253.294 640.602 253.027 640.976 252.84H664.216C664.616 253.054 664.816 253.32 664.816 253.64C664.816 253.96 664.616 254.227 664.216 254.44H640.976C640.602 254.254 640.416 253.987 640.416 253.64V254.16Z" fill="white"/>
</g>
<g id="Group_63">
<path id="Vector_60" d="M682.143 245.12C681.423 245.12 680.863 244.893 680.463 244.44C680.063 243.986 679.85 243.4 679.823 242.68C679.823 241.213 680.463 239.906 681.743 238.76C683.023 237.613 684.57 237.04 686.383 237.04C687.317 237.04 687.903 237.053 688.143 237.08C690.117 237.4 691.623 238.106 692.663 239.2C693.703 240.293 694.237 241.48 694.263 242.76C694.263 244.146 693.81 245.493 692.903 246.8C691.997 248.106 690.743 249.053 689.143 249.64L689.023 249.72C689.023 249.746 689.143 249.786 689.383 249.84C689.623 249.893 690.01 250.013 690.543 250.2C691.077 250.386 691.583 250.666 692.063 251.04C694.25 252.453 695.343 254.32 695.343 256.64C695.343 258.746 694.517 260.586 692.863 262.16C691.21 263.733 689.117 264.52 686.583 264.52C684.45 264.52 682.61 263.946 681.063 262.8C679.517 261.653 678.743 260.2 678.743 258.44C678.743 257.693 678.983 257.093 679.463 256.64C679.943 256.186 680.543 255.946 681.263 255.92C682.01 255.92 682.623 256.16 683.103 256.64C683.583 257.12 683.823 257.72 683.823 258.44C683.823 258.733 683.783 259 683.703 259.24C683.623 259.48 683.53 259.693 683.423 259.88C683.317 260.066 683.17 260.226 682.983 260.36C682.797 260.493 682.637 260.6 682.503 260.68C682.37 260.76 682.237 260.813 682.103 260.84C681.97 260.866 681.863 260.906 681.783 260.96L681.623 261C682.983 262.2 684.637 262.8 686.583 262.8C688.05 262.8 689.157 262.093 689.903 260.68C690.357 259.8 690.583 258.453 690.583 256.64V255.84C690.583 253.306 689.73 251.613 688.023 250.76C687.623 250.6 686.81 250.506 685.583 250.48L683.903 250.44L683.783 250.36C683.73 250.28 683.703 250.066 683.703 249.72C683.703 249.24 683.81 249 684.023 249C684.77 249 685.543 248.933 686.343 248.8C687.25 248.666 688.077 248.106 688.823 247.12C689.57 246.133 689.943 244.64 689.943 242.64V242.32C689.943 240.8 689.477 239.746 688.543 239.16C687.957 238.786 687.33 238.6 686.663 238.6C685.81 238.6 685.023 238.746 684.303 239.04C683.583 239.333 683.077 239.64 682.783 239.96C682.49 240.28 682.343 240.44 682.343 240.44H682.463C682.543 240.466 682.65 240.493 682.783 240.52C682.917 240.546 683.05 240.613 683.183 240.72C683.317 240.826 683.477 240.92 683.663 241C683.85 241.08 683.983 241.226 684.063 241.44C684.143 241.653 684.25 241.853 684.383 242.04C684.517 242.226 684.557 242.493 684.503 242.84C684.503 243.426 684.317 243.946 683.943 244.4C683.57 244.853 682.97 245.093 682.143 245.12Z" fill="white"/>
</g>
<g id="Group_64">
<path id="Vector_61" d="M710.416 249.76C710.416 249.414 710.602 249.147 710.976 248.96H736.456C736.856 249.174 737.056 249.44 737.056 249.76C737.056 250.054 736.869 250.307 736.496 250.52L723.776 250.56H711.056C710.629 250.427 710.416 250.16 710.416 249.76ZM710.416 257.52C710.416 257.12 710.629 256.854 711.056 256.72H736.496C736.869 256.987 737.056 257.254 737.056 257.52C737.056 257.867 736.856 258.134 736.456 258.32H710.976C710.602 258.134 710.416 257.867 710.416 257.52Z" fill="white"/>
</g>
<g id="Group_65">
<path id="Vector_62" d="M754.244 240.24C755.737 238.08 757.777 237 760.364 237C761.644 237 762.924 237.346 764.204 238.04C765.484 238.733 766.524 239.96 767.324 241.72C768.31 243.933 768.804 246.973 768.804 250.84C768.804 254.973 768.23 258.133 767.084 260.32C766.55 261.44 765.817 262.333 764.884 263C763.95 263.666 763.137 264.08 762.444 264.24C761.75 264.4 761.07 264.493 760.404 264.52C759.71 264.52 759.017 264.44 758.324 264.28C757.63 264.12 756.817 263.693 755.884 263C754.95 262.306 754.217 261.413 753.684 260.32C752.537 258.133 751.964 254.973 751.964 250.84C751.964 246.2 752.724 242.666 754.244 240.24ZM763.244 239.76C762.444 238.906 761.497 238.48 760.404 238.48C759.284 238.48 758.324 238.906 757.524 239.76C756.857 240.453 756.417 241.413 756.204 242.64C755.99 243.866 755.884 246.426 755.884 250.32C755.884 254.533 755.99 257.306 756.204 258.64C756.417 259.973 756.897 261.026 757.644 261.8C758.39 262.6 759.31 263 760.404 263C761.47 263 762.377 262.6 763.124 261.8C763.897 261 764.377 259.88 764.564 258.44C764.75 257 764.857 254.293 764.884 250.32C764.884 246.453 764.777 243.906 764.564 242.68C764.35 241.453 763.91 240.48 763.244 239.76Z" fill="white"/>
</g>
</g>
</g>
</g>
</g>
</svg>
