<svg viewBox="0 0 985 593" fill="none" xmlns="http://www.w3.org/2000/svg">
<g id="0119101">
<g id="Group 8">
<path id="Rectangle 1" d="M62 48.6165C62 23.2861 83.3794 2.75183 109.752 2.75183H933V320.135C933 345.466 911.62 366 885.247 366H62V48.6165Z" fill="#02071A"/>
<path id="Rectangle 1 (Stroke)" fill-rule="evenodd" clip-rule="evenodd" d="M928.224 7.3383H109.752C86.0167 7.3383 66.7752 25.8192 66.7752 48.6165V361.413H885.247C908.983 361.413 928.224 342.933 928.224 320.135V7.3383ZM109.752 2.75183C83.3794 2.75183 62 23.2861 62 48.6165V366H885.247C911.62 366 933 345.466 933 320.135V2.75183H109.752Z" fill="#CD08D1"/>
<path id="Rectangle 14" d="M113.716 2.81831C139.256 -3.52289 933 2.81831 933 2.81831V30.2707C933 30.2707 100.202 20.1805 70.5954 30.2707C79.8075 15.7103 88.1754 9.15951 113.716 2.81831Z" fill="#CD08D1"/>
<path id="Rectangle 15" d="M904.349 2.75183H933V321.053C929.483 342.653 922.194 350.592 904.349 360.955C909.601 343.985 904.349 2.75183 904.349 2.75183Z" fill="#CD08D1"/>
</g>
<g id="claves01">
<path id="Rectangle 4" d="M49 403H265.745L299 443L265.745 483H49V403Z" fill="#CD08D1" fill-opacity="0.1"/>
<path id="Rectangle 4 (Stroke)" fill-rule="evenodd" clip-rule="evenodd" d="M264.338 406H52V480H264.338L295.099 443L264.338 406ZM265.745 403H49V483H265.745L299 443L265.745 403Z" fill="#CD08D1"/>
<path id="Rectangle 5" d="M53 513H269.745L303 553L269.745 593H53V513Z" fill="#CD08D1" fill-opacity="0.1"/>
<path id="Rectangle 5 (Stroke)" fill-rule="evenodd" clip-rule="evenodd" d="M268.338 516H56V590H268.338L299.099 553L268.338 516ZM269.745 513H53V593H269.745L303 553L269.745 513Z" fill="#CD08D1"/>
<path id="Rectangle 6" d="M389 400H605.745L639 440L605.745 480H389V400Z" fill="#CD08D1" fill-opacity="0.1"/>
<path id="Rectangle 6 (Stroke)" fill-rule="evenodd" clip-rule="evenodd" d="M604.338 403H392V477H604.338L635.099 440L604.338 403ZM605.745 400H389V480H605.745L639 440L605.745 400Z" fill="#CD08D1"/>
<path id="Rectangle 7" d="M392 510H608.745L642 550L608.745 590H392V510Z" fill="#CD08D1" fill-opacity="0.1"/>
<path id="Rectangle 7 (Stroke)" fill-rule="evenodd" clip-rule="evenodd" d="M607.338 513H395V587H607.338L638.099 550L607.338 513ZM608.745 510H392V590H608.745L642 550L608.745 510Z" fill="#CD08D1"/>
<path id="Rectangle 8" d="M735 459H951.745L985 499L951.745 539H735V459Z" fill="#CD08D1" fill-opacity="0.1"/>
<path id="Rectangle 8 (Stroke)" fill-rule="evenodd" clip-rule="evenodd" d="M950.338 462H738V536H950.338L981.099 499L950.338 462ZM951.745 459H735V539H951.745L985 499L951.745 459Z" fill="#CD08D1"/>
<path id="Ellipse 1" d="M90 443C90 465.091 72.0914 483 50 483C27.9086 483 10 465.091 10 443C10 420.909 27.9086 403 50 403C72.0914 403 90 420.909 90 443Z" fill="#CD08D1"/>
<path id="Ellipse 2" d="M94 553C94 575.091 76.0914 593 54 593C31.9086 593 14 575.091 14 553C14 530.909 31.9086 513 54 513C76.0914 513 94 530.909 94 553Z" fill="#CD08D1"/>
<path id="Ellipse 3" d="M430 440C430 462.091 412.091 480 390 480C367.909 480 350 462.091 350 440C350 417.909 367.909 400 390 400C412.091 400 430 417.909 430 440Z" fill="#CD08D1"/>
<path id="Ellipse 4" d="M433 550C433 572.091 415.091 590 393 590C370.909 590 353 572.091 353 550C353 527.909 370.909 510 393 510C415.091 510 433 527.909 433 550Z" fill="#CD08D1"/>
<path id="Ellipse 5" d="M776 499C776 521.091 758.091 539 736 539C713.909 539 696 521.091 696 499C696 476.909 713.909 459 736 459C758.091 459 776 476.909 776 499Z" fill="#CD08D1"/>
<path id="A" d="M58.0938 453.406H40.4688L36.7812 464H28.5625L45.75 418.5H52.8438L70.0625 464H61.8125L58.0938 453.406ZM42.6875 447.031H55.875L49.2812 428.156L42.6875 447.031Z" fill="white"/>
<path id="B" d="M37.625 569V523.5H53.2188C58.3646 523.5 62.2812 524.531 64.9688 526.594C67.6562 528.656 69 531.729 69 535.812C69 537.896 68.4375 539.771 67.3125 541.438C66.1875 543.104 64.5417 544.396 62.375 545.312C64.8333 545.979 66.7292 547.24 68.0625 549.094C69.4167 550.927 70.0938 553.135 70.0938 555.719C70.0938 559.99 68.7188 563.271 65.9688 565.562C63.2396 567.854 59.3229 569 54.2188 569H37.625ZM45.5312 548.469V562.688H54.3125C56.7917 562.688 58.7292 562.073 60.125 560.844C61.5208 559.615 62.2188 557.906 62.2188 555.719C62.2188 550.99 59.8021 548.573 54.9688 548.469H45.5312ZM45.5312 542.656H53.2812C55.7396 542.656 57.6562 542.104 59.0312 541C60.4271 539.875 61.125 538.292 61.125 536.25C61.125 534 60.4792 532.375 59.1875 531.375C57.9167 530.375 55.9271 529.875 53.2188 529.875H45.5312V542.656Z" fill="white"/>
<path id="C" d="M407.344 447.188C406.885 452.042 405.094 455.833 401.969 458.562C398.844 461.271 394.688 462.625 389.5 462.625C385.875 462.625 382.677 461.771 379.906 460.062C377.156 458.333 375.031 455.885 373.531 452.719C372.031 449.552 371.25 445.875 371.188 441.688V437.438C371.188 433.146 371.948 429.365 373.469 426.094C374.99 422.823 377.167 420.302 380 418.531C382.854 416.76 386.146 415.875 389.875 415.875C394.896 415.875 398.938 417.24 402 419.969C405.062 422.698 406.844 426.552 407.344 431.531H399.469C399.094 428.26 398.135 425.906 396.594 424.469C395.073 423.01 392.833 422.281 389.875 422.281C386.438 422.281 383.792 423.542 381.938 426.062C380.104 428.562 379.167 432.24 379.125 437.094V441.125C379.125 446.042 380 449.792 381.75 452.375C383.521 454.958 386.104 456.25 389.5 456.25C392.604 456.25 394.938 455.552 396.5 454.156C398.062 452.76 399.052 450.438 399.469 447.188H407.344Z" fill="white"/>
<path id="D" d="M375.625 572V526.5H389.062C393.083 526.5 396.646 527.396 399.75 529.188C402.875 530.979 405.292 533.521 407 536.812C408.708 540.104 409.562 543.875 409.562 548.125V550.406C409.562 554.719 408.698 558.51 406.969 561.781C405.26 565.052 402.812 567.573 399.625 569.344C396.458 571.115 392.823 572 388.719 572H375.625ZM383.531 532.875V565.688H388.688C392.833 565.688 396.01 564.396 398.219 561.812C400.448 559.208 401.583 555.479 401.625 550.625V548.094C401.625 543.156 400.552 539.385 398.406 536.781C396.26 534.177 393.146 532.875 389.062 532.875H383.531Z" fill="white"/>
<path id="E" d="M745.219 500.688H726.531V514.688H748.375V521H718.625V475.5H748.156V481.875H726.531V494.438H745.219V500.688Z" fill="white"/>
<g id="14">
<path d="M145.729 457H140.767V433.026L133.445 435.528V431.324L145.094 427.038H145.729V457Z" fill="#CD08D1"/>
<path d="M172.964 446.356H176.676V450.355H172.964V457H167.98V450.355H155.081L154.938 447.32L167.816 427.141H172.964V446.356ZM160.167 446.356H167.98V433.888L167.611 434.544L160.167 446.356Z" fill="#CD08D1"/>
</g>
<g id="15">
<path d="M145.729 572H140.767V548.026L133.445 550.528V546.324L145.094 542.038H145.729V572Z" fill="#CD08D1"/>
<path d="M157.439 557.193L159.06 542.141H175.097V546.447H163.202L162.382 553.584C163.763 552.791 165.321 552.395 167.058 552.395C169.901 552.395 172.109 553.304 173.682 555.122C175.268 556.94 176.061 559.388 176.061 562.464C176.061 565.499 175.186 567.919 173.436 569.724C171.686 571.515 169.286 572.41 166.237 572.41C163.503 572.41 161.233 571.638 159.429 570.093C157.638 568.534 156.667 566.483 156.517 563.94H161.336C161.527 565.39 162.047 566.504 162.895 567.283C163.742 568.049 164.85 568.432 166.217 568.432C167.748 568.432 168.938 567.885 169.785 566.791C170.646 565.697 171.077 564.207 171.077 562.32C171.077 560.502 170.605 559.066 169.662 558.014C168.719 556.947 167.42 556.414 165.766 556.414C164.863 556.414 164.098 556.537 163.469 556.783C162.84 557.016 162.156 557.48 161.418 558.178L157.439 557.193Z" fill="#CD08D1"/>
</g>
<g id="16">
<path d="M501.729 454H496.767V430.026L489.445 432.528V428.324L501.094 424.038H501.729V454Z" fill="#CD08D1"/>
<path d="M527.61 423.997V428.119H526.995C524.206 428.16 521.978 428.926 520.31 430.416C518.642 431.906 517.65 434.019 517.336 436.753C518.936 435.071 520.979 434.23 523.468 434.23C526.106 434.23 528.185 435.16 529.702 437.02C531.233 438.879 531.999 441.278 531.999 444.218C531.999 447.253 531.104 449.714 529.312 451.601C527.535 453.474 525.197 454.41 522.299 454.41C519.318 454.41 516.898 453.31 515.039 451.108C513.193 448.907 512.271 446.022 512.271 442.454V440.752C512.271 435.516 513.542 431.414 516.085 428.447C518.642 425.48 522.312 423.997 527.098 423.997H527.61ZM522.258 438.25C521.164 438.25 520.159 438.558 519.243 439.173C518.341 439.788 517.678 440.608 517.254 441.634V443.151C517.254 445.366 517.719 447.13 518.648 448.442C519.578 449.741 520.781 450.391 522.258 450.391C523.734 450.391 524.903 449.837 525.765 448.729C526.626 447.622 527.057 446.166 527.057 444.361C527.057 442.557 526.619 441.087 525.744 439.952C524.869 438.817 523.707 438.25 522.258 438.25Z" fill="#CD08D1"/>
</g>
<g id="17">
<path d="M501.729 563H496.767V539.026L489.445 541.528V537.324L501.094 533.038H501.729V563Z" fill="#CD08D1"/>
<path d="M531.979 535.909L520.043 563H514.813L526.729 537.14H511.286V533.141H531.979V535.909Z" fill="#CD08D1"/>
</g>
<g id="20">
<path d="M854.312 517H834.235V513.575L844.182 502.727C845.617 501.127 846.636 499.794 847.237 498.728C847.853 497.647 848.16 496.567 848.16 495.487C848.16 494.065 847.757 492.917 846.95 492.042C846.157 491.167 845.084 490.729 843.73 490.729C842.117 490.729 840.866 491.222 839.978 492.206C839.089 493.19 838.645 494.537 838.645 496.246H833.661C833.661 494.428 834.071 492.794 834.892 491.345C835.726 489.882 836.908 488.747 838.439 487.94C839.984 487.134 841.762 486.73 843.771 486.73C846.67 486.73 848.953 487.462 850.621 488.925C852.303 490.374 853.144 492.384 853.144 494.954C853.144 496.444 852.72 498.01 851.872 499.65C851.038 501.277 849.664 503.13 847.75 505.208L840.449 513.021H854.312V517Z" fill="#CD08D1"/>
<path d="M877.568 504.429C877.568 508.722 876.762 511.962 875.148 514.149C873.549 516.323 871.108 517.41 867.827 517.41C864.601 517.41 862.167 516.351 860.526 514.231C858.899 512.099 858.065 508.947 858.024 504.777V499.609C858.024 495.316 858.824 492.097 860.424 489.95C862.037 487.804 864.491 486.73 867.786 486.73C871.054 486.73 873.487 487.776 875.087 489.868C876.7 491.96 877.527 495.091 877.568 499.261V504.429ZM872.585 498.851C872.585 496.048 872.202 493.997 871.437 492.698C870.671 491.386 869.454 490.729 867.786 490.729C866.159 490.729 864.963 491.352 864.197 492.596C863.432 493.826 863.028 495.754 862.987 498.379V505.146C862.987 507.936 863.377 510.014 864.156 511.381C864.936 512.748 866.159 513.432 867.827 513.432C869.427 513.432 870.609 512.803 871.375 511.545C872.141 510.273 872.544 508.291 872.585 505.598V498.851Z" fill="#CD08D1"/>
</g>
</g>
<g id="Resuelve:">
<path d="M108.357 75.6465H102.346V86H98.9531V60.4062H107.426C110.309 60.4062 112.523 61.0625 114.07 62.375C115.629 63.6875 116.408 65.5977 116.408 68.1055C116.408 69.6992 115.975 71.0879 115.107 72.2715C114.252 73.4551 113.057 74.3398 111.521 74.9258L117.533 85.7891V86H113.912L108.357 75.6465ZM102.346 72.8867H107.531C109.207 72.8867 110.537 72.4531 111.521 71.5859C112.518 70.7188 113.016 69.5586 113.016 68.1055C113.016 66.5234 112.541 65.3105 111.592 64.4668C110.654 63.623 109.295 63.1953 107.514 63.1836H102.346V72.8867Z" fill="white"/>
<path d="M128.537 86.3516C125.959 86.3516 123.861 85.5078 122.244 83.8203C120.627 82.1211 119.818 79.8535 119.818 77.0176V76.4199C119.818 74.5332 120.176 72.8516 120.891 71.375C121.617 69.8867 122.625 68.7266 123.914 67.8945C125.215 67.0508 126.621 66.6289 128.133 66.6289C130.605 66.6289 132.527 67.4434 133.898 69.0723C135.27 70.7012 135.955 73.0332 135.955 76.0684V77.4219H123.07C123.117 79.2969 123.662 80.8145 124.705 81.9746C125.76 83.123 127.096 83.6973 128.713 83.6973C129.861 83.6973 130.834 83.4629 131.631 82.9941C132.428 82.5254 133.125 81.9043 133.723 81.1309L135.709 82.6777C134.115 85.127 131.725 86.3516 128.537 86.3516ZM128.133 69.3008C126.82 69.3008 125.719 69.7812 124.828 70.7422C123.938 71.6914 123.387 73.0273 123.176 74.75H132.703V74.5039C132.609 72.8516 132.164 71.5742 131.367 70.6719C130.57 69.7578 129.492 69.3008 128.133 69.3008Z" fill="white"/>
<path d="M150.809 80.9551C150.809 80.0762 150.475 79.3965 149.807 78.916C149.15 78.4238 147.996 78.002 146.344 77.6504C144.703 77.2988 143.396 76.877 142.424 76.3848C141.463 75.8926 140.748 75.3066 140.279 74.627C139.822 73.9473 139.594 73.1387 139.594 72.2012C139.594 70.6426 140.25 69.3242 141.562 68.2461C142.887 67.168 144.574 66.6289 146.625 66.6289C148.781 66.6289 150.527 67.1855 151.863 68.2988C153.211 69.4121 153.885 70.8359 153.885 72.5703H150.615C150.615 71.6797 150.234 70.9121 149.473 70.2676C148.723 69.623 147.773 69.3008 146.625 69.3008C145.441 69.3008 144.516 69.5586 143.848 70.0742C143.18 70.5898 142.846 71.2637 142.846 72.0957C142.846 72.8809 143.156 73.4727 143.777 73.8711C144.398 74.2695 145.518 74.6504 147.135 75.0137C148.764 75.377 150.082 75.8105 151.09 76.3145C152.098 76.8184 152.842 77.4277 153.322 78.1426C153.814 78.8457 154.061 79.707 154.061 80.7266C154.061 82.4258 153.381 83.791 152.021 84.8223C150.662 85.8418 148.898 86.3516 146.73 86.3516C145.207 86.3516 143.859 86.082 142.688 85.543C141.516 85.0039 140.596 84.2539 139.928 83.293C139.271 82.3203 138.943 81.2715 138.943 80.1465H142.195C142.254 81.2363 142.688 82.1035 143.496 82.748C144.316 83.3809 145.395 83.6973 146.73 83.6973C147.961 83.6973 148.945 83.4512 149.684 82.959C150.434 82.4551 150.809 81.7871 150.809 80.9551Z" fill="white"/>
<path d="M170.039 84.1191C168.773 85.6074 166.916 86.3516 164.467 86.3516C162.439 86.3516 160.893 85.7656 159.826 84.5938C158.771 83.4102 158.238 81.6641 158.227 79.3555V66.9805H161.479V79.2676C161.479 82.1504 162.65 83.5918 164.994 83.5918C167.479 83.5918 169.131 82.666 169.951 80.8145V66.9805H173.203V86H170.109L170.039 84.1191Z" fill="white"/>
<path d="M186.053 86.3516C183.475 86.3516 181.377 85.5078 179.76 83.8203C178.143 82.1211 177.334 79.8535 177.334 77.0176V76.4199C177.334 74.5332 177.691 72.8516 178.406 71.375C179.133 69.8867 180.141 68.7266 181.43 67.8945C182.73 67.0508 184.137 66.6289 185.648 66.6289C188.121 66.6289 190.043 67.4434 191.414 69.0723C192.785 70.7012 193.471 73.0332 193.471 76.0684V77.4219H180.586C180.633 79.2969 181.178 80.8145 182.221 81.9746C183.275 83.123 184.611 83.6973 186.229 83.6973C187.377 83.6973 188.35 83.4629 189.146 82.9941C189.943 82.5254 190.641 81.9043 191.238 81.1309L193.225 82.6777C191.631 85.127 189.24 86.3516 186.053 86.3516ZM185.648 69.3008C184.336 69.3008 183.234 69.7812 182.344 70.7422C181.453 71.6914 180.902 73.0273 180.691 74.75H190.219V74.5039C190.125 72.8516 189.68 71.5742 188.883 70.6719C188.086 69.7578 187.008 69.3008 185.648 69.3008Z" fill="white"/>
<path d="M200.783 86H197.531V59H200.783V86Z" fill="white"/>
<path d="M212.279 81.5879L216.99 66.9805H220.312L213.492 86H211.014L204.123 66.9805H207.445L212.279 81.5879Z" fill="white"/>
<path d="M231.088 86.3516C228.51 86.3516 226.412 85.5078 224.795 83.8203C223.178 82.1211 222.369 79.8535 222.369 77.0176V76.4199C222.369 74.5332 222.727 72.8516 223.441 71.375C224.168 69.8867 225.176 68.7266 226.465 67.8945C227.766 67.0508 229.172 66.6289 230.684 66.6289C233.156 66.6289 235.078 67.4434 236.449 69.0723C237.82 70.7012 238.506 73.0332 238.506 76.0684V77.4219H225.621C225.668 79.2969 226.213 80.8145 227.256 81.9746C228.311 83.123 229.646 83.6973 231.264 83.6973C232.412 83.6973 233.385 83.4629 234.182 82.9941C234.979 82.5254 235.676 81.9043 236.273 81.1309L238.26 82.6777C236.666 85.127 234.275 86.3516 231.088 86.3516ZM230.684 69.3008C229.371 69.3008 228.27 69.7812 227.379 70.7422C226.488 71.6914 225.938 73.0273 225.727 74.75H235.254V74.5039C235.16 72.8516 234.715 71.5742 233.918 70.6719C233.121 69.7578 232.043 69.3008 230.684 69.3008Z" fill="white"/>
<path d="M242.18 84.2949C242.18 83.7324 242.344 83.2637 242.672 82.8887C243.012 82.5137 243.516 82.3262 244.184 82.3262C244.852 82.3262 245.355 82.5137 245.695 82.8887C246.047 83.2637 246.223 83.7324 246.223 84.2949C246.223 84.834 246.047 85.2852 245.695 85.6484C245.355 86.0117 244.852 86.1934 244.184 86.1934C243.516 86.1934 243.012 86.0117 242.672 85.6484C242.344 85.2852 242.18 84.834 242.18 84.2949ZM242.197 68.7734C242.197 68.2109 242.361 67.7422 242.689 67.3672C243.029 66.9922 243.533 66.8047 244.201 66.8047C244.869 66.8047 245.373 66.9922 245.713 67.3672C246.064 67.7422 246.24 68.2109 246.24 68.7734C246.24 69.3125 246.064 69.7637 245.713 70.127C245.373 70.4902 244.869 70.6719 244.201 70.6719C243.533 70.6719 243.029 70.4902 242.689 70.127C242.361 69.7637 242.197 69.3125 242.197 68.7734Z" fill="white"/>
</g>
<g id="10 11 5 13 3 10 4 8 x">
<path d="M335.95 142H332.136V116.714L324.486 119.523V116.078L335.355 111.997H335.95V142Z" fill="white"/>
<path d="M365.789 129.265C365.789 133.708 365.03 137.01 363.513 139.17C361.995 141.33 359.623 142.41 356.396 142.41C353.211 142.41 350.853 141.357 349.321 139.252C347.79 137.133 346.997 133.975 346.942 129.777V124.712C346.942 120.323 347.701 117.062 349.219 114.93C350.736 112.797 353.115 111.73 356.355 111.73C359.568 111.73 361.934 112.763 363.451 114.827C364.969 116.878 365.748 120.05 365.789 124.343V129.265ZM361.995 124.076C361.995 120.863 361.544 118.525 360.642 117.062C359.739 115.586 358.311 114.848 356.355 114.848C354.414 114.848 352.999 115.579 352.11 117.042C351.222 118.505 350.764 120.754 350.736 123.789V129.859C350.736 133.086 351.201 135.472 352.131 137.017C353.074 138.548 354.496 139.313 356.396 139.313C358.27 139.313 359.657 138.589 360.56 137.14C361.476 135.69 361.954 133.407 361.995 130.29V124.076Z" fill="white"/>
<path d="M466.462 142H462.647V116.714L454.998 119.523V116.078L465.867 111.997H466.462V142Z" fill="white"/>
<path d="M490.046 142H486.231V116.714L478.582 119.523V116.078L489.451 111.997H490.046V142Z" fill="white"/>
<path d="M575.83 127.029L577.348 112.141H592.646V115.647H580.567L579.665 123.789C581.128 122.928 582.789 122.497 584.648 122.497C587.369 122.497 589.529 123.399 591.129 125.204C592.729 126.995 593.528 129.422 593.528 132.484C593.528 135.561 592.694 137.987 591.026 139.765C589.372 141.528 587.055 142.41 584.074 142.41C581.436 142.41 579.282 141.679 577.614 140.216C575.946 138.753 574.996 136.729 574.764 134.146H578.353C578.585 135.854 579.193 137.146 580.178 138.021C581.162 138.883 582.461 139.313 584.074 139.313C585.838 139.313 587.219 138.712 588.217 137.509C589.229 136.306 589.734 134.645 589.734 132.525C589.734 130.529 589.188 128.93 588.094 127.727C587.014 126.51 585.571 125.901 583.767 125.901C582.112 125.901 580.813 126.264 579.87 126.988L578.865 127.809L575.83 127.029Z" fill="white"/>
<path d="M335.95 222H332.136V196.714L324.486 199.523V196.078L335.355 191.997H335.95V222Z" fill="white"/>
<path d="M352.582 205.225H355.433C357.224 205.197 358.632 204.726 359.657 203.81C360.683 202.894 361.195 201.656 361.195 200.098C361.195 196.598 359.452 194.848 355.966 194.848C354.325 194.848 353.013 195.319 352.028 196.263C351.058 197.192 350.572 198.43 350.572 199.975H346.778C346.778 197.609 347.64 195.647 349.362 194.089C351.099 192.517 353.3 191.73 355.966 191.73C358.782 191.73 360.99 192.476 362.59 193.966C364.189 195.456 364.989 197.527 364.989 200.18C364.989 201.479 364.565 202.736 363.718 203.953C362.884 205.17 361.742 206.079 360.293 206.681C361.934 207.2 363.198 208.062 364.087 209.265C364.989 210.468 365.44 211.938 365.44 213.674C365.44 216.354 364.565 218.479 362.815 220.052C361.065 221.624 358.789 222.41 355.986 222.41C353.184 222.41 350.9 221.651 349.137 220.134C347.387 218.616 346.512 216.613 346.512 214.125H350.326C350.326 215.697 350.839 216.955 351.864 217.898C352.89 218.842 354.264 219.313 355.986 219.313C357.818 219.313 359.22 218.835 360.19 217.878C361.161 216.921 361.646 215.547 361.646 213.756C361.646 212.02 361.113 210.687 360.047 209.757C358.98 208.827 357.442 208.349 355.433 208.321H352.582V205.225Z" fill="white"/>
<path d="M480.346 205.225H483.196C484.987 205.197 486.396 204.726 487.421 203.81C488.446 202.894 488.959 201.656 488.959 200.098C488.959 196.598 487.216 194.848 483.729 194.848C482.089 194.848 480.776 195.319 479.792 196.263C478.821 197.192 478.336 198.43 478.336 199.975H474.542C474.542 197.609 475.403 195.647 477.126 194.089C478.862 192.517 481.063 191.73 483.729 191.73C486.546 191.73 488.754 192.476 490.354 193.966C491.953 195.456 492.753 197.527 492.753 200.18C492.753 201.479 492.329 202.736 491.481 203.953C490.647 205.17 489.506 206.079 488.057 206.681C489.697 207.2 490.962 208.062 491.851 209.265C492.753 210.468 493.204 211.938 493.204 213.674C493.204 216.354 492.329 218.479 490.579 220.052C488.829 221.624 486.553 222.41 483.75 222.41C480.947 222.41 478.664 221.651 476.9 220.134C475.15 218.616 474.275 216.613 474.275 214.125H478.09C478.09 215.697 478.603 216.955 479.628 217.898C480.653 218.842 482.027 219.313 483.75 219.313C485.582 219.313 486.983 218.835 487.954 217.878C488.925 216.921 489.41 215.547 489.41 213.756C489.41 212.02 488.877 210.687 487.811 209.757C486.744 208.827 485.206 208.349 483.196 208.321H480.346V205.225Z" fill="white"/>
<path d="M583.808 222H579.993V196.714L572.344 199.523V196.078L583.213 191.997H583.808V222Z" fill="white"/>
<path d="M613.646 209.265C613.646 213.708 612.888 217.01 611.37 219.17C609.853 221.33 607.48 222.41 604.254 222.41C601.068 222.41 598.71 221.357 597.179 219.252C595.647 217.133 594.854 213.975 594.8 209.777V204.712C594.8 200.323 595.559 197.062 597.076 194.93C598.594 192.797 600.973 191.73 604.213 191.73C607.426 191.73 609.791 192.763 611.309 194.827C612.826 196.878 613.605 200.05 613.646 204.343V209.265ZM609.853 204.076C609.853 200.863 609.401 198.525 608.499 197.062C607.597 195.586 606.168 194.848 604.213 194.848C602.271 194.848 600.856 195.579 599.968 197.042C599.079 198.505 598.621 200.754 598.594 203.789V209.859C598.594 213.086 599.059 215.472 599.988 217.017C600.932 218.548 602.354 219.313 604.254 219.313C606.127 219.313 607.515 218.589 608.417 217.14C609.333 215.69 609.812 213.407 609.853 210.29V204.076Z" fill="white"/>
<path d="M360.334 291.972H364.477V295.068H360.334V302H356.52V295.068H342.923V292.833L356.294 272.141H360.334V291.972ZM347.229 291.972H356.52V277.329L356.068 278.149L347.229 291.972Z" fill="white"/>
<path d="M490.189 279.934C490.189 281.424 489.793 282.75 489 283.912C488.221 285.074 487.161 285.983 485.821 286.64C487.38 287.31 488.61 288.287 489.513 289.572C490.429 290.857 490.887 292.313 490.887 293.94C490.887 296.524 490.012 298.582 488.262 300.113C486.525 301.645 484.235 302.41 481.392 302.41C478.521 302.41 476.217 301.645 474.48 300.113C472.758 298.568 471.896 296.511 471.896 293.94C471.896 292.327 472.334 290.871 473.209 289.572C474.098 288.273 475.321 287.289 476.88 286.619C475.554 285.963 474.508 285.054 473.742 283.892C472.977 282.729 472.594 281.41 472.594 279.934C472.594 277.418 473.4 275.422 475.014 273.945C476.627 272.469 478.753 271.73 481.392 271.73C484.017 271.73 486.136 272.469 487.749 273.945C489.376 275.422 490.189 277.418 490.189 279.934ZM487.093 293.858C487.093 292.19 486.56 290.83 485.493 289.777C484.44 288.725 483.06 288.198 481.351 288.198C479.642 288.198 478.268 288.718 477.229 289.757C476.203 290.796 475.69 292.163 475.69 293.858C475.69 295.554 476.189 296.887 477.188 297.857C478.199 298.828 479.601 299.313 481.392 299.313C483.169 299.313 484.563 298.828 485.575 297.857C486.587 296.873 487.093 295.54 487.093 293.858ZM481.392 274.848C479.901 274.848 478.691 275.312 477.762 276.242C476.846 277.158 476.388 278.409 476.388 279.995C476.388 281.513 476.839 282.743 477.741 283.687C478.657 284.616 479.874 285.081 481.392 285.081C482.909 285.081 484.119 284.616 485.021 283.687C485.938 282.743 486.396 281.513 486.396 279.995C486.396 278.478 485.924 277.24 484.98 276.283C484.037 275.326 482.841 274.848 481.392 274.848Z" fill="white"/>
<path d="M586.843 287.911L591.765 279.811H596.194L588.935 290.782L596.42 302H592.031L586.904 293.694L581.777 302H577.368L584.854 290.782L577.594 279.811H581.982L586.843 287.911Z" fill="white"/>
</g>
<g id="flecha">
<path id="Rectangle 2" d="M58.2001 412.008L73.4819 420.133L31.5003 499.089L16.2185 490.963L58.2001 412.008Z" fill="#1043F5"/>
<path id="Rectangle 1_2" d="M0 424.904L90 375V432.692L45 415.096L0 424.904Z" fill="#1043F5"/>
<path id="Rectangle 3" d="M4.03848 494.21L19.6656 467.143L36.9363 466.565L21.3091 493.632L4.03848 494.21Z" fill="#1043F5"/>
<path id="Rectangle 4_2" d="M30.0894 508.845L45.7166 481.778L36.9259 466.154L21.2987 493.221L30.0894 508.845Z" fill="#1043F5"/>
</g>
</g>
</svg>
