<svg viewBox="0 0 975 593" fill="none" xmlns="http://www.w3.org/2000/svg">
<g id="0119104">
<g id="Group 8">
<path id="Rectangle 1" d="M52 48.6165C52 23.2861 73.3794 2.75185 99.7522 2.75185H923V320.135C923 345.466 901.62 366 875.247 366H52V48.6165Z" fill="#02071A"/>
<path id="Rectangle 1 (Stroke)" fill-rule="evenodd" clip-rule="evenodd" d="M918.224 7.33831H99.7522C76.0167 7.33831 56.7752 25.8192 56.7752 48.6165V361.413H875.247C898.983 361.413 918.224 342.933 918.224 320.135V7.33831ZM99.7522 2.75185C73.3794 2.75185 52 23.2861 52 48.6165V366H875.247C901.62 366 923 345.466 923 320.135V2.75185H99.7522Z" fill="#CD08D1"/>
<path id="Rectangle 14" d="M103.716 2.81831C129.256 -3.52289 923 2.81831 923 2.81831V30.2707C923 30.2707 90.2017 20.1805 60.5954 30.2707C69.8075 15.7103 78.1754 9.15951 103.716 2.81831Z" fill="#CD08D1"/>
<path id="Rectangle 15" d="M894.349 2.75185H923V321.053C919.483 342.653 912.194 350.592 894.349 360.955C899.601 343.985 894.349 2.75185 894.349 2.75185Z" fill="#CD08D1"/>
</g>
<g id="claves01">
<path id="Rectangle 4" d="M39 403H255.745L289 443L255.745 483H39V403Z" fill="#CD08D1" fill-opacity="0.1"/>
<path id="Rectangle 4 (Stroke)" fill-rule="evenodd" clip-rule="evenodd" d="M254.338 406H42V480H254.338L285.099 443L254.338 406ZM255.745 403H39V483H255.745L289 443L255.745 403Z" fill="#CD08D1"/>
<path id="Rectangle 5" d="M43 513H259.745L293 553L259.745 593H43V513Z" fill="#CD08D1" fill-opacity="0.1"/>
<path id="Rectangle 5 (Stroke)" fill-rule="evenodd" clip-rule="evenodd" d="M258.338 516H46V590H258.338L289.099 553L258.338 516ZM259.745 513H43V593H259.745L293 553L259.745 513Z" fill="#CD08D1"/>
<path id="Rectangle 6" d="M379 400H595.745L629 440L595.745 480H379V400Z" fill="#CD08D1" fill-opacity="0.1"/>
<path id="Rectangle 6 (Stroke)" fill-rule="evenodd" clip-rule="evenodd" d="M594.338 403H382V477H594.338L625.099 440L594.338 403ZM595.745 400H379V480H595.745L629 440L595.745 400Z" fill="#CD08D1"/>
<path id="Rectangle 7" d="M382 510H598.745L632 550L598.745 590H382V510Z" fill="#CD08D1" fill-opacity="0.1"/>
<path id="Rectangle 7 (Stroke)" fill-rule="evenodd" clip-rule="evenodd" d="M597.338 513H385V587H597.338L628.099 550L597.338 513ZM598.745 510H382V590H598.745L632 550L598.745 510Z" fill="#CD08D1"/>
<path id="Rectangle 8" d="M725 459H941.745L975 499L941.745 539H725V459Z" fill="#CD08D1" fill-opacity="0.1"/>
<path id="Rectangle 8 (Stroke)" fill-rule="evenodd" clip-rule="evenodd" d="M940.338 462H728V536H940.338L971.099 499L940.338 462ZM941.745 459H725V539H941.745L975 499L941.745 459Z" fill="#CD08D1"/>
<path id="Ellipse 1" d="M80 443C80 465.091 62.0914 483 40 483C17.9086 483 0 465.091 0 443C0 420.909 17.9086 403 40 403C62.0914 403 80 420.909 80 443Z" fill="#CD08D1"/>
<path id="Ellipse 2" d="M84 553C84 575.091 66.0914 593 44 593C21.9086 593 4 575.091 4 553C4 530.909 21.9086 513 44 513C66.0914 513 84 530.909 84 553Z" fill="#CD08D1"/>
<path id="Ellipse 3" d="M420 440C420 462.091 402.091 480 380 480C357.909 480 340 462.091 340 440C340 417.909 357.909 400 380 400C402.091 400 420 417.909 420 440Z" fill="#CD08D1"/>
<path id="Ellipse 4" d="M423 550C423 572.091 405.091 590 383 590C360.909 590 343 572.091 343 550C343 527.909 360.909 510 383 510C405.091 510 423 527.909 423 550Z" fill="#CD08D1"/>
<path id="Ellipse 5" d="M766 499C766 521.091 748.091 539 726 539C703.909 539 686 521.091 686 499C686 476.909 703.909 459 726 459C748.091 459 766 476.909 766 499Z" fill="#CD08D1"/>
<path id="A" d="M48.0938 453.406H30.4688L26.7812 464H18.5625L35.75 418.5H42.8438L60.0625 464H51.8125L48.0938 453.406ZM32.6875 447.031H45.875L39.2812 428.156L32.6875 447.031Z" fill="white"/>
<path id="B" d="M27.625 569V523.5H43.2188C48.3646 523.5 52.2812 524.531 54.9688 526.594C57.6562 528.656 59 531.729 59 535.812C59 537.896 58.4375 539.771 57.3125 541.438C56.1875 543.104 54.5417 544.396 52.375 545.312C54.8333 545.979 56.7292 547.24 58.0625 549.094C59.4167 550.927 60.0938 553.135 60.0938 555.719C60.0938 559.99 58.7188 563.271 55.9688 565.562C53.2396 567.854 49.3229 569 44.2188 569H27.625ZM35.5312 548.469V562.688H44.3125C46.7917 562.688 48.7292 562.073 50.125 560.844C51.5208 559.615 52.2188 557.906 52.2188 555.719C52.2188 550.99 49.8021 548.573 44.9688 548.469H35.5312ZM35.5312 542.656H43.2812C45.7396 542.656 47.6562 542.104 49.0312 541C50.4271 539.875 51.125 538.292 51.125 536.25C51.125 534 50.4792 532.375 49.1875 531.375C47.9167 530.375 45.9271 529.875 43.2188 529.875H35.5312V542.656Z" fill="white"/>
<path id="C" d="M397.344 447.188C396.885 452.042 395.094 455.833 391.969 458.562C388.844 461.271 384.688 462.625 379.5 462.625C375.875 462.625 372.677 461.771 369.906 460.062C367.156 458.333 365.031 455.885 363.531 452.719C362.031 449.552 361.25 445.875 361.188 441.688V437.438C361.188 433.146 361.948 429.365 363.469 426.094C364.99 422.823 367.167 420.302 370 418.531C372.854 416.76 376.146 415.875 379.875 415.875C384.896 415.875 388.938 417.24 392 419.969C395.062 422.698 396.844 426.552 397.344 431.531H389.469C389.094 428.26 388.135 425.906 386.594 424.469C385.073 423.01 382.833 422.281 379.875 422.281C376.438 422.281 373.792 423.542 371.938 426.062C370.104 428.562 369.167 432.24 369.125 437.094V441.125C369.125 446.042 370 449.792 371.75 452.375C373.521 454.958 376.104 456.25 379.5 456.25C382.604 456.25 384.938 455.552 386.5 454.156C388.062 452.76 389.052 450.438 389.469 447.188H397.344Z" fill="white"/>
<path id="D" d="M365.625 572V526.5H379.062C383.083 526.5 386.646 527.396 389.75 529.188C392.875 530.979 395.292 533.521 397 536.812C398.708 540.104 399.562 543.875 399.562 548.125V550.406C399.562 554.719 398.698 558.51 396.969 561.781C395.26 565.052 392.812 567.573 389.625 569.344C386.458 571.115 382.823 572 378.719 572H365.625ZM373.531 532.875V565.688H378.688C382.833 565.688 386.01 564.396 388.219 561.812C390.448 559.208 391.583 555.479 391.625 550.625V548.094C391.625 543.156 390.552 539.385 388.406 536.781C386.26 534.177 383.146 532.875 379.062 532.875H373.531Z" fill="white"/>
<path id="E" d="M735.219 500.688H716.531V514.688H738.375V521H708.625V475.5H738.156V481.875H716.531V494.438H735.219V500.688Z" fill="white"/>
<g id="14">
<path d="M135.729 457H130.767V433.026L123.445 435.528V431.324L135.094 427.038H135.729V457Z" fill="#CD08D1"/>
<path d="M162.964 446.356H166.676V450.355H162.964V457H157.98V450.355H145.081L144.938 447.32L157.816 427.141H162.964V446.356ZM150.167 446.356H157.98V433.888L157.611 434.544L150.167 446.356Z" fill="#CD08D1"/>
</g>
<g id="15">
<path d="M135.729 572H130.767V548.026L123.445 550.528V546.324L135.094 542.038H135.729V572Z" fill="#CD08D1"/>
<path d="M147.439 557.193L149.06 542.141H165.097V546.447H153.202L152.382 553.584C153.763 552.791 155.321 552.395 157.058 552.395C159.901 552.395 162.109 553.304 163.682 555.122C165.268 556.94 166.061 559.388 166.061 562.464C166.061 565.499 165.186 567.919 163.436 569.724C161.686 571.515 159.286 572.41 156.237 572.41C153.503 572.41 151.233 571.638 149.429 570.093C147.638 568.534 146.667 566.483 146.517 563.94H151.336C151.527 565.39 152.047 566.504 152.895 567.283C153.742 568.049 154.85 568.432 156.217 568.432C157.748 568.432 158.938 567.885 159.785 566.791C160.646 565.697 161.077 564.207 161.077 562.32C161.077 560.502 160.605 559.066 159.662 558.014C158.719 556.947 157.42 556.414 155.766 556.414C154.863 556.414 154.098 556.537 153.469 556.783C152.84 557.016 152.156 557.48 151.418 558.178L147.439 557.193Z" fill="#CD08D1"/>
</g>
<g id="16">
<path d="M491.729 454H486.767V430.026L479.445 432.528V428.324L491.094 424.038H491.729V454Z" fill="#CD08D1"/>
<path d="M517.61 423.997V428.119H516.995C514.206 428.16 511.978 428.926 510.31 430.416C508.642 431.906 507.65 434.019 507.336 436.753C508.936 435.071 510.979 434.23 513.468 434.23C516.106 434.23 518.185 435.16 519.702 437.02C521.233 438.879 521.999 441.278 521.999 444.218C521.999 447.253 521.104 449.714 519.312 451.601C517.535 453.474 515.197 454.41 512.299 454.41C509.318 454.41 506.898 453.31 505.039 451.108C503.193 448.907 502.271 446.022 502.271 442.454V440.752C502.271 435.516 503.542 431.414 506.085 428.447C508.642 425.48 512.312 423.997 517.098 423.997H517.61ZM512.258 438.25C511.164 438.25 510.159 438.558 509.243 439.173C508.341 439.788 507.678 440.608 507.254 441.634V443.151C507.254 445.366 507.719 447.13 508.648 448.442C509.578 449.741 510.781 450.391 512.258 450.391C513.734 450.391 514.903 449.837 515.765 448.729C516.626 447.622 517.057 446.166 517.057 444.361C517.057 442.557 516.619 441.087 515.744 439.952C514.869 438.817 513.707 438.25 512.258 438.25Z" fill="#CD08D1"/>
</g>
<g id="12">
<path d="M491.729 563H486.767V539.026L479.445 541.528V537.324L491.094 533.038H491.729V563Z" fill="#CD08D1"/>
<path d="M522.184 563H502.106V559.575L512.053 548.727C513.488 547.127 514.507 545.794 515.108 544.728C515.724 543.647 516.031 542.567 516.031 541.487C516.031 540.065 515.628 538.917 514.821 538.042C514.028 537.167 512.955 536.729 511.602 536.729C509.988 536.729 508.737 537.222 507.849 538.206C506.96 539.19 506.516 540.537 506.516 542.246H501.532C501.532 540.428 501.942 538.794 502.763 537.345C503.597 535.882 504.779 534.747 506.311 533.94C507.855 533.134 509.633 532.73 511.643 532.73C514.541 532.73 516.824 533.462 518.492 534.925C520.174 536.374 521.015 538.384 521.015 540.954C521.015 542.444 520.591 544.01 519.743 545.65C518.909 547.277 517.535 549.13 515.621 551.208L508.32 559.021H522.184V563Z" fill="#CD08D1"/>
</g>
<g id="13">
<path d="M837.729 517H832.767V493.026L825.445 495.528V491.324L837.094 487.038H837.729V517Z" fill="#CD08D1"/>
<path d="M853.869 499.794H856.904C858.436 499.78 859.646 499.384 860.534 498.604C861.437 497.825 861.888 496.697 861.888 495.221C861.888 493.799 861.512 492.698 860.76 491.919C860.021 491.126 858.887 490.729 857.355 490.729C856.016 490.729 854.915 491.119 854.054 491.898C853.192 492.664 852.762 493.669 852.762 494.913H847.778C847.778 493.382 848.182 491.987 848.988 490.729C849.809 489.472 850.943 488.494 852.393 487.797C853.855 487.086 855.489 486.73 857.294 486.73C860.274 486.73 862.612 487.482 864.308 488.986C866.017 490.477 866.871 492.555 866.871 495.221C866.871 496.561 866.44 497.825 865.579 499.015C864.731 500.19 863.631 501.079 862.277 501.681C863.918 502.241 865.162 503.123 866.01 504.326C866.871 505.529 867.302 506.965 867.302 508.633C867.302 511.312 866.379 513.445 864.533 515.031C862.701 516.617 860.288 517.41 857.294 517.41C854.423 517.41 852.071 516.645 850.239 515.113C848.407 513.582 847.491 511.545 847.491 509.002H852.475C852.475 510.314 852.912 511.381 853.787 512.201C854.676 513.021 855.865 513.432 857.355 513.432C858.9 513.432 860.117 513.021 861.006 512.201C861.895 511.381 862.339 510.191 862.339 508.633C862.339 507.061 861.874 505.851 860.944 505.003C860.015 504.155 858.634 503.731 856.802 503.731H853.869V499.794Z" fill="#CD08D1"/>
</g>
</g>
<g id="Resuelve:">
<path d="M98.3574 75.6465H92.3457V86H88.9531V60.4062H97.4258C100.309 60.4062 102.523 61.0625 104.07 62.375C105.629 63.6875 106.408 65.5977 106.408 68.1055C106.408 69.6992 105.975 71.0879 105.107 72.2715C104.252 73.4551 103.057 74.3398 101.521 74.9258L107.533 85.7891V86H103.912L98.3574 75.6465ZM92.3457 72.8867H97.5312C99.207 72.8867 100.537 72.4531 101.521 71.5859C102.518 70.7188 103.016 69.5586 103.016 68.1055C103.016 66.5234 102.541 65.3105 101.592 64.4668C100.654 63.623 99.2949 63.1953 97.5137 63.1836H92.3457V72.8867Z" fill="white"/>
<path d="M118.537 86.3516C115.959 86.3516 113.861 85.5078 112.244 83.8203C110.627 82.1211 109.818 79.8535 109.818 77.0176V76.4199C109.818 74.5332 110.176 72.8516 110.891 71.375C111.617 69.8867 112.625 68.7266 113.914 67.8945C115.215 67.0508 116.621 66.6289 118.133 66.6289C120.605 66.6289 122.527 67.4434 123.898 69.0723C125.27 70.7012 125.955 73.0332 125.955 76.0684V77.4219H113.07C113.117 79.2969 113.662 80.8145 114.705 81.9746C115.76 83.123 117.096 83.6973 118.713 83.6973C119.861 83.6973 120.834 83.4629 121.631 82.9941C122.428 82.5254 123.125 81.9043 123.723 81.1309L125.709 82.6777C124.115 85.127 121.725 86.3516 118.537 86.3516ZM118.133 69.3008C116.82 69.3008 115.719 69.7812 114.828 70.7422C113.938 71.6914 113.387 73.0273 113.176 74.75H122.703V74.5039C122.609 72.8516 122.164 71.5742 121.367 70.6719C120.57 69.7578 119.492 69.3008 118.133 69.3008Z" fill="white"/>
<path d="M140.809 80.9551C140.809 80.0762 140.475 79.3965 139.807 78.916C139.15 78.4238 137.996 78.002 136.344 77.6504C134.703 77.2988 133.396 76.877 132.424 76.3848C131.463 75.8926 130.748 75.3066 130.279 74.627C129.822 73.9473 129.594 73.1387 129.594 72.2012C129.594 70.6426 130.25 69.3242 131.562 68.2461C132.887 67.168 134.574 66.6289 136.625 66.6289C138.781 66.6289 140.527 67.1855 141.863 68.2988C143.211 69.4121 143.885 70.8359 143.885 72.5703H140.615C140.615 71.6797 140.234 70.9121 139.473 70.2676C138.723 69.623 137.773 69.3008 136.625 69.3008C135.441 69.3008 134.516 69.5586 133.848 70.0742C133.18 70.5898 132.846 71.2637 132.846 72.0957C132.846 72.8809 133.156 73.4727 133.777 73.8711C134.398 74.2695 135.518 74.6504 137.135 75.0137C138.764 75.377 140.082 75.8105 141.09 76.3145C142.098 76.8184 142.842 77.4277 143.322 78.1426C143.814 78.8457 144.061 79.707 144.061 80.7266C144.061 82.4258 143.381 83.791 142.021 84.8223C140.662 85.8418 138.898 86.3516 136.73 86.3516C135.207 86.3516 133.859 86.082 132.688 85.543C131.516 85.0039 130.596 84.2539 129.928 83.293C129.271 82.3203 128.943 81.2715 128.943 80.1465H132.195C132.254 81.2363 132.688 82.1035 133.496 82.748C134.316 83.3809 135.395 83.6973 136.73 83.6973C137.961 83.6973 138.945 83.4512 139.684 82.959C140.434 82.4551 140.809 81.7871 140.809 80.9551Z" fill="white"/>
<path d="M160.039 84.1191C158.773 85.6074 156.916 86.3516 154.467 86.3516C152.439 86.3516 150.893 85.7656 149.826 84.5938C148.771 83.4102 148.238 81.6641 148.227 79.3555V66.9805H151.479V79.2676C151.479 82.1504 152.65 83.5918 154.994 83.5918C157.479 83.5918 159.131 82.666 159.951 80.8145V66.9805H163.203V86H160.109L160.039 84.1191Z" fill="white"/>
<path d="M176.053 86.3516C173.475 86.3516 171.377 85.5078 169.76 83.8203C168.143 82.1211 167.334 79.8535 167.334 77.0176V76.4199C167.334 74.5332 167.691 72.8516 168.406 71.375C169.133 69.8867 170.141 68.7266 171.43 67.8945C172.73 67.0508 174.137 66.6289 175.648 66.6289C178.121 66.6289 180.043 67.4434 181.414 69.0723C182.785 70.7012 183.471 73.0332 183.471 76.0684V77.4219H170.586C170.633 79.2969 171.178 80.8145 172.221 81.9746C173.275 83.123 174.611 83.6973 176.229 83.6973C177.377 83.6973 178.35 83.4629 179.146 82.9941C179.943 82.5254 180.641 81.9043 181.238 81.1309L183.225 82.6777C181.631 85.127 179.24 86.3516 176.053 86.3516ZM175.648 69.3008C174.336 69.3008 173.234 69.7812 172.344 70.7422C171.453 71.6914 170.902 73.0273 170.691 74.75H180.219V74.5039C180.125 72.8516 179.68 71.5742 178.883 70.6719C178.086 69.7578 177.008 69.3008 175.648 69.3008Z" fill="white"/>
<path d="M190.783 86H187.531V59H190.783V86Z" fill="white"/>
<path d="M202.279 81.5879L206.99 66.9805H210.312L203.492 86H201.014L194.123 66.9805H197.445L202.279 81.5879Z" fill="white"/>
<path d="M221.088 86.3516C218.51 86.3516 216.412 85.5078 214.795 83.8203C213.178 82.1211 212.369 79.8535 212.369 77.0176V76.4199C212.369 74.5332 212.727 72.8516 213.441 71.375C214.168 69.8867 215.176 68.7266 216.465 67.8945C217.766 67.0508 219.172 66.6289 220.684 66.6289C223.156 66.6289 225.078 67.4434 226.449 69.0723C227.82 70.7012 228.506 73.0332 228.506 76.0684V77.4219H215.621C215.668 79.2969 216.213 80.8145 217.256 81.9746C218.311 83.123 219.646 83.6973 221.264 83.6973C222.412 83.6973 223.385 83.4629 224.182 82.9941C224.979 82.5254 225.676 81.9043 226.273 81.1309L228.26 82.6777C226.666 85.127 224.275 86.3516 221.088 86.3516ZM220.684 69.3008C219.371 69.3008 218.27 69.7812 217.379 70.7422C216.488 71.6914 215.938 73.0273 215.727 74.75H225.254V74.5039C225.16 72.8516 224.715 71.5742 223.918 70.6719C223.121 69.7578 222.043 69.3008 220.684 69.3008Z" fill="white"/>
<path d="M232.18 84.2949C232.18 83.7324 232.344 83.2637 232.672 82.8887C233.012 82.5137 233.516 82.3262 234.184 82.3262C234.852 82.3262 235.355 82.5137 235.695 82.8887C236.047 83.2637 236.223 83.7324 236.223 84.2949C236.223 84.834 236.047 85.2852 235.695 85.6484C235.355 86.0117 234.852 86.1934 234.184 86.1934C233.516 86.1934 233.012 86.0117 232.672 85.6484C232.344 85.2852 232.18 84.834 232.18 84.2949ZM232.197 68.7734C232.197 68.2109 232.361 67.7422 232.689 67.3672C233.029 66.9922 233.533 66.8047 234.201 66.8047C234.869 66.8047 235.373 66.9922 235.713 67.3672C236.064 67.7422 236.24 68.2109 236.24 68.7734C236.24 69.3125 236.064 69.7637 235.713 70.127C235.373 70.4902 234.869 70.6719 234.201 70.6719C233.533 70.6719 233.029 70.4902 232.689 70.127C232.361 69.7637 232.197 69.3125 232.197 68.7734Z" fill="white"/>
</g>
<g id="12 (26) 40 23 (20) 17 14 ( x ) 12">
<path d="M361.374 140H357.196V112.306L348.818 115.383V111.609L360.723 107.14H361.374V140Z" fill="white"/>
<path d="M394.976 140H373.548V137.013L384.868 124.435C386.545 122.533 387.698 120.991 388.327 119.808C388.971 118.61 389.293 117.374 389.293 116.102C389.293 114.395 388.776 112.994 387.743 111.901C386.71 110.808 385.332 110.262 383.61 110.262C381.544 110.262 379.934 110.853 378.781 112.036C377.643 113.204 377.074 114.836 377.074 116.933H372.919C372.919 113.923 373.885 111.49 375.816 109.633C377.763 107.776 380.361 106.848 383.61 106.848C386.65 106.848 389.053 107.649 390.82 109.251C392.587 110.838 393.471 112.957 393.471 115.607C393.471 118.827 391.419 122.66 387.316 127.107L378.557 136.608H394.976V140Z" fill="white"/>
<path d="M456.698 126.726C456.698 123.341 457.147 120.092 458.046 116.978C458.959 113.863 460.314 111.033 462.111 108.487C463.908 105.942 465.772 104.145 467.704 103.097L468.558 105.837C466.371 107.514 464.575 110.075 463.167 113.519C461.774 116.963 461.011 120.818 460.876 125.086L460.854 126.995C460.854 132.775 461.909 137.791 464.021 142.044C465.293 144.59 466.806 146.581 468.558 148.019L467.704 150.557C465.713 149.449 463.811 147.592 461.999 144.986C458.465 139.895 456.698 133.808 456.698 126.726Z" fill="white"/>
<path d="M493.579 140H472.151V137.013L483.472 124.435C485.149 122.533 486.302 120.991 486.931 119.808C487.575 118.61 487.896 117.374 487.896 116.102C487.896 114.395 487.38 112.994 486.347 111.901C485.313 110.808 483.936 110.262 482.214 110.262C480.147 110.262 478.538 110.853 477.385 112.036C476.247 113.204 475.678 114.836 475.678 116.933H471.522C471.522 113.923 472.488 111.49 474.42 109.633C476.367 107.776 478.965 106.848 482.214 106.848C485.254 106.848 487.657 107.649 489.424 109.251C491.191 110.838 492.074 112.957 492.074 115.607C492.074 118.827 490.023 122.66 485.92 127.107L477.16 136.608H493.579V140Z" fill="white"/>
<path d="M514.288 107.274V110.801H513.524C510.29 110.861 507.715 111.819 505.798 113.676C503.881 115.533 502.773 118.146 502.474 121.515C504.196 119.538 506.547 118.55 509.526 118.55C512.371 118.55 514.64 119.553 516.332 121.56C518.039 123.566 518.893 126.157 518.893 129.331C518.893 132.7 517.972 135.396 516.13 137.417C514.303 139.438 511.847 140.449 508.763 140.449C505.633 140.449 503.095 139.251 501.148 136.855C499.202 134.445 498.229 131.345 498.229 127.557V125.962C498.229 119.942 499.509 115.345 502.069 112.171C504.645 108.981 508.471 107.349 513.547 107.274H514.288ZM508.83 122.009C507.408 122.009 506.097 122.436 504.899 123.289C503.701 124.143 502.87 125.213 502.406 126.501V128.028C502.406 130.724 503.013 132.895 504.226 134.542C505.438 136.189 506.951 137.013 508.763 137.013C510.634 137.013 512.102 136.324 513.165 134.946C514.243 133.569 514.782 131.764 514.782 129.533C514.782 127.287 514.236 125.475 513.143 124.098C512.064 122.705 510.627 122.009 508.83 122.009Z" fill="white"/>
<path d="M533.829 126.95C533.829 130.289 533.387 133.494 532.504 136.563C531.635 139.618 530.295 142.441 528.483 145.031C526.687 147.622 524.8 149.464 522.823 150.557L521.947 148.019C524.253 146.252 526.103 143.511 527.495 139.798C528.903 136.069 529.621 131.937 529.651 127.399V126.681C529.651 123.536 529.322 120.616 528.663 117.921C528.004 115.211 527.083 112.785 525.9 110.644C524.732 108.502 523.415 106.833 521.947 105.635L522.823 103.097C524.8 104.19 526.679 106.017 528.461 108.577C530.258 111.138 531.598 113.96 532.481 117.045C533.38 120.13 533.829 123.431 533.829 126.95Z" fill="white"/>
<path d="M614.396 129.017H618.934V132.408H614.396V140H610.219V132.408H595.327V129.96L609.972 107.297H614.396V129.017ZM600.044 129.017H610.219V112.979L609.725 113.878L600.044 129.017Z" fill="white"/>
<path d="M643.191 126.052C643.191 130.918 642.36 134.535 640.698 136.9C639.036 139.266 636.438 140.449 632.904 140.449C629.415 140.449 626.832 139.296 625.155 136.99C623.478 134.669 622.61 131.21 622.55 126.613V121.065C622.55 116.259 623.381 112.688 625.043 110.352C626.705 108.016 629.311 106.848 632.859 106.848C636.378 106.848 638.969 107.978 640.631 110.239C642.293 112.485 643.146 115.959 643.191 120.661V126.052ZM639.036 120.369C639.036 116.85 638.542 114.29 637.554 112.688C636.565 111.07 635.001 110.262 632.859 110.262C630.733 110.262 629.183 111.063 628.21 112.665C627.237 114.267 626.735 116.73 626.705 120.055V126.703C626.705 130.237 627.214 132.85 628.232 134.542C629.266 136.219 630.823 137.058 632.904 137.058C634.956 137.058 636.476 136.264 637.464 134.677C638.467 133.09 638.991 130.589 639.036 127.175V120.369Z" fill="white"/>
<path d="M369.146 217H347.718V214.013L359.038 201.435C360.715 199.533 361.868 197.991 362.497 196.808C363.141 195.61 363.463 194.374 363.463 193.102C363.463 191.395 362.946 189.994 361.913 188.901C360.88 187.808 359.502 187.262 357.78 187.262C355.714 187.262 354.104 187.853 352.951 189.036C351.813 190.204 351.244 191.836 351.244 193.933H347.089C347.089 190.923 348.055 188.49 349.986 186.633C351.933 184.776 354.531 183.848 357.78 183.848C360.82 183.848 363.223 184.649 364.99 186.251C366.757 187.838 367.641 189.957 367.641 192.607C367.641 195.827 365.589 199.66 361.486 204.107L352.727 213.608H369.146V217Z" fill="white"/>
<path d="M379.59 198.627H382.712C384.674 198.597 386.216 198.08 387.339 197.077C388.462 196.074 389.023 194.719 389.023 193.012C389.023 189.178 387.114 187.262 383.296 187.262C381.499 187.262 380.062 187.778 378.983 188.812C377.92 189.83 377.389 191.185 377.389 192.877H373.233C373.233 190.286 374.177 188.138 376.063 186.431C377.965 184.709 380.376 183.848 383.296 183.848C386.381 183.848 388.799 184.664 390.551 186.296C392.303 187.928 393.179 190.197 393.179 193.102C393.179 194.524 392.715 195.902 391.786 197.234C390.873 198.567 389.622 199.563 388.035 200.222C389.832 200.791 391.217 201.734 392.19 203.052C393.179 204.369 393.673 205.979 393.673 207.881C393.673 210.816 392.715 213.144 390.798 214.866C388.881 216.588 386.388 217.449 383.318 217.449C380.249 217.449 377.748 216.618 375.816 214.956C373.9 213.294 372.941 211.1 372.941 208.375H377.119C377.119 210.097 377.681 211.475 378.804 212.508C379.927 213.541 381.432 214.058 383.318 214.058C385.325 214.058 386.86 213.534 387.923 212.485C388.986 211.437 389.518 209.932 389.518 207.971C389.518 206.069 388.934 204.609 387.766 203.591C386.598 202.573 384.913 202.049 382.712 202.019H379.59V198.627Z" fill="white"/>
<path d="M468.108 203.726C468.108 200.341 468.558 197.092 469.456 193.978C470.369 190.863 471.725 188.033 473.521 185.487C475.318 182.942 477.183 181.145 479.114 180.097L479.968 182.837C477.782 184.514 475.985 187.075 474.577 190.519C473.185 193.963 472.421 197.818 472.286 202.086L472.264 203.995C472.264 209.775 473.319 214.791 475.431 219.044C476.703 221.59 478.216 223.581 479.968 225.019L479.114 227.557C477.123 226.449 475.221 224.592 473.409 221.986C469.875 216.895 468.108 210.808 468.108 203.726Z" fill="white"/>
<path d="M504.989 217H483.562V214.013L494.882 201.435C496.559 199.533 497.712 197.991 498.341 196.808C498.985 195.61 499.307 194.374 499.307 193.102C499.307 191.395 498.79 189.994 497.757 188.901C496.724 187.808 495.346 187.262 493.624 187.262C491.558 187.262 489.948 187.853 488.795 189.036C487.657 190.204 487.088 191.836 487.088 193.933H482.933C482.933 190.923 483.898 188.49 485.83 186.633C487.777 184.776 490.375 183.848 493.624 183.848C496.664 183.848 499.067 184.649 500.834 186.251C502.601 187.838 503.484 189.957 503.484 192.607C503.484 195.827 501.433 199.66 497.33 204.107L488.57 213.608H504.989V217Z" fill="white"/>
<path d="M529.898 203.052C529.898 207.918 529.067 211.535 527.405 213.9C525.743 216.266 523.145 217.449 519.611 217.449C516.122 217.449 513.539 216.296 511.862 213.99C510.185 211.669 509.317 208.21 509.257 203.613V198.065C509.257 193.259 510.088 189.688 511.75 187.352C513.412 185.016 516.018 183.848 519.566 183.848C523.085 183.848 525.676 184.978 527.338 187.239C529 189.485 529.854 192.959 529.898 197.661V203.052ZM525.743 197.369C525.743 193.85 525.249 191.29 524.261 189.688C523.272 188.07 521.708 187.262 519.566 187.262C517.44 187.262 515.89 188.063 514.917 189.665C513.944 191.267 513.442 193.73 513.412 197.055V203.703C513.412 207.237 513.921 209.85 514.939 211.542C515.973 213.219 517.53 214.058 519.611 214.058C521.663 214.058 523.183 213.264 524.171 211.677C525.174 210.09 525.698 207.589 525.743 204.175V197.369Z" fill="white"/>
<path d="M545.239 203.95C545.239 207.289 544.798 210.494 543.914 213.563C543.046 216.618 541.705 219.441 539.894 222.031C538.097 224.622 536.21 226.464 534.233 227.557L533.357 225.019C535.663 223.252 537.513 220.511 538.905 216.798C540.313 213.069 541.032 208.937 541.062 204.399V203.681C541.062 200.536 540.732 197.616 540.073 194.921C539.414 192.211 538.493 189.785 537.311 187.644C536.143 185.502 534.825 183.833 533.357 182.635L534.233 180.097C536.21 181.19 538.089 183.017 539.871 185.577C541.668 188.138 543.008 190.96 543.892 194.045C544.79 197.13 545.239 200.431 545.239 203.95Z" fill="white"/>
<path d="M610.511 217H606.333V189.306L597.955 192.383V188.609L609.859 184.14H610.511V217Z" fill="white"/>
<path d="M643.798 186.633L630.254 217H625.896L639.396 187.711H621.696V184.297H643.798V186.633Z" fill="white"/>
<path d="M361.374 294H357.196V266.306L348.818 269.383V265.609L360.723 261.14H361.374V294Z" fill="white"/>
<path d="M391.09 283.017H395.627V286.408H391.09V294H386.912V286.408H372.021V283.96L386.665 261.297H391.09V283.017ZM376.737 283.017H386.912V266.979L386.418 267.878L376.737 283.017Z" fill="white"/>
<path d="M468.108 280.726C468.108 277.341 468.558 274.092 469.456 270.978C470.369 267.863 471.725 265.033 473.521 262.487C475.318 259.942 477.183 258.145 479.114 257.097L479.968 259.837C477.782 261.514 475.985 264.075 474.577 267.519C473.185 270.963 472.421 274.818 472.286 279.086L472.264 280.995C472.264 286.775 473.319 291.791 475.431 296.044C476.703 298.59 478.216 300.581 479.968 302.019L479.114 304.557C477.123 303.449 475.221 301.592 473.409 298.986C469.875 293.895 468.108 287.808 468.108 280.726Z" fill="white"/>
<path d="M503.552 278.569L508.942 269.697H513.794L505.843 281.714L514.041 294H509.234L503.619 284.903L498.004 294H493.175L501.373 281.714L493.422 269.697H498.229L503.552 278.569Z" fill="white"/>
<path d="M539.22 280.95C539.22 284.289 538.778 287.494 537.895 290.563C537.026 293.618 535.686 296.441 533.874 299.031C532.077 301.622 530.19 303.464 528.214 304.557L527.338 302.019C529.644 300.252 531.493 297.511 532.886 293.798C534.293 290.069 535.012 285.937 535.042 281.399V280.681C535.042 277.536 534.713 274.616 534.054 271.921C533.395 269.211 532.474 266.785 531.291 264.644C530.123 262.502 528.805 260.833 527.338 259.635L528.214 257.097C530.19 258.19 532.07 260.017 533.852 262.577C535.648 265.138 536.989 267.96 537.872 271.045C538.771 274.13 539.22 277.431 539.22 280.95Z" fill="white"/>
<path d="M615.901 294H611.724V266.306L603.346 269.383V265.609L615.25 261.14H615.901V294Z" fill="white"/>
<path d="M649.503 294H628.075V291.013L639.396 278.435C641.073 276.533 642.226 274.991 642.854 273.808C643.498 272.61 643.82 271.374 643.82 270.102C643.82 268.395 643.304 266.994 642.271 265.901C641.237 264.808 639.86 264.262 638.138 264.262C636.071 264.262 634.462 264.853 633.309 266.036C632.171 267.204 631.602 268.836 631.602 270.933H627.446C627.446 267.923 628.412 265.49 630.344 263.633C632.29 261.776 634.888 260.848 638.138 260.848C641.177 260.848 643.581 261.649 645.348 263.251C647.115 264.838 647.998 266.957 647.998 269.607C647.998 272.827 645.947 276.66 641.844 281.107L633.084 290.608H649.503V294Z" fill="white"/>
</g>
<g id="flecha">
<path id="Rectangle 2" d="M734.2 460.008L749.482 468.133L707.5 547.089L692.218 538.963L734.2 460.008Z" fill="#1043F5"/>
<path id="Rectangle 1_2" d="M676 472.904L766 423V480.692L721 463.096L676 472.904Z" fill="#1043F5"/>
<path id="Rectangle 3" d="M680.038 542.21L695.666 515.143L712.936 514.565L697.309 541.632L680.038 542.21Z" fill="#1043F5"/>
<path id="Rectangle 4_2" d="M706.089 556.845L721.717 529.778L712.926 514.154L697.299 541.221L706.089 556.845Z" fill="#1043F5"/>
</g>
</g>
</svg>
