<svg viewBox="0 0 975 593" fill="none" xmlns="http://www.w3.org/2000/svg">
<g id="0119106">
<g id="Group 8">
<path id="Rectangle 1" d="M52 48.6165C52 23.2861 73.3794 2.75185 99.7522 2.75185H923V320.135C923 345.466 901.62 366 875.247 366H52V48.6165Z" fill="#02071A"/>
<path id="Rectangle 1 (Stroke)" fill-rule="evenodd" clip-rule="evenodd" d="M918.224 7.33831H99.7522C76.0167 7.33831 56.7752 25.8192 56.7752 48.6165V361.413H875.247C898.983 361.413 918.224 342.933 918.224 320.135V7.33831ZM99.7522 2.75185C73.3794 2.75185 52 23.2861 52 48.6165V366H875.247C901.62 366 923 345.466 923 320.135V2.75185H99.7522Z" fill="#CD08D1"/>
<path id="Rectangle 14" d="M103.716 2.81831C129.256 -3.52289 923 2.81831 923 2.81831V30.2707C923 30.2707 90.2017 20.1805 60.5953 30.2707C69.8074 15.7103 78.1754 9.15951 103.716 2.81831Z" fill="#CD08D1"/>
<path id="Rectangle 15" d="M894.349 2.75185H923V321.053C919.483 342.653 912.194 350.592 894.349 360.955C899.601 343.985 894.349 2.75185 894.349 2.75185Z" fill="#CD08D1"/>
</g>
<g id="claves01">
<path id="Rectangle 4" d="M39 403H255.745L289 443L255.745 483H39V403Z" fill="#CD08D1" fill-opacity="0.1"/>
<path id="Rectangle 4 (Stroke)" fill-rule="evenodd" clip-rule="evenodd" d="M254.338 406H42V480H254.338L285.099 443L254.338 406ZM255.745 403H39V483H255.745L289 443L255.745 403Z" fill="#CD08D1"/>
<path id="Rectangle 5" d="M43 513H259.745L293 553L259.745 593H43V513Z" fill="#CD08D1" fill-opacity="0.1"/>
<path id="Rectangle 5 (Stroke)" fill-rule="evenodd" clip-rule="evenodd" d="M258.338 516H46V590H258.338L289.099 553L258.338 516ZM259.745 513H43V593H259.745L293 553L259.745 513Z" fill="#CD08D1"/>
<path id="Rectangle 6" d="M379 400H595.745L629 440L595.745 480H379V400Z" fill="#CD08D1" fill-opacity="0.1"/>
<path id="Rectangle 6 (Stroke)" fill-rule="evenodd" clip-rule="evenodd" d="M594.338 403H382V477H594.338L625.099 440L594.338 403ZM595.745 400H379V480H595.745L629 440L595.745 400Z" fill="#CD08D1"/>
<path id="Rectangle 7" d="M382 510H598.745L632 550L598.745 590H382V510Z" fill="#CD08D1" fill-opacity="0.1"/>
<path id="Rectangle 7 (Stroke)" fill-rule="evenodd" clip-rule="evenodd" d="M597.338 513H385V587H597.338L628.099 550L597.338 513ZM598.745 510H382V590H598.745L632 550L598.745 510Z" fill="#CD08D1"/>
<path id="Rectangle 8" d="M725 459H941.745L975 499L941.745 539H725V459Z" fill="#CD08D1" fill-opacity="0.1"/>
<path id="Rectangle 8 (Stroke)" fill-rule="evenodd" clip-rule="evenodd" d="M940.338 462H728V536H940.338L971.099 499L940.338 462ZM941.745 459H725V539H941.745L975 499L941.745 459Z" fill="#CD08D1"/>
<path id="Ellipse 1" d="M80 443C80 465.091 62.0914 483 40 483C17.9086 483 0 465.091 0 443C0 420.909 17.9086 403 40 403C62.0914 403 80 420.909 80 443Z" fill="#CD08D1"/>
<path id="Ellipse 2" d="M84 553C84 575.091 66.0914 593 44 593C21.9086 593 4 575.091 4 553C4 530.909 21.9086 513 44 513C66.0914 513 84 530.909 84 553Z" fill="#CD08D1"/>
<path id="Ellipse 3" d="M420 440C420 462.091 402.091 480 380 480C357.909 480 340 462.091 340 440C340 417.909 357.909 400 380 400C402.091 400 420 417.909 420 440Z" fill="#CD08D1"/>
<path id="Ellipse 4" d="M423 550C423 572.091 405.091 590 383 590C360.909 590 343 572.091 343 550C343 527.909 360.909 510 383 510C405.091 510 423 527.909 423 550Z" fill="#CD08D1"/>
<path id="Ellipse 5" d="M766 499C766 521.091 748.091 539 726 539C703.909 539 686 521.091 686 499C686 476.909 703.909 459 726 459C748.091 459 766 476.909 766 499Z" fill="#CD08D1"/>
<path id="A" d="M48.0938 453.406H30.4688L26.7812 464H18.5625L35.75 418.5H42.8438L60.0625 464H51.8125L48.0938 453.406ZM32.6875 447.031H45.875L39.2812 428.156L32.6875 447.031Z" fill="white"/>
<path id="B" d="M27.625 569V523.5H43.2188C48.3646 523.5 52.2812 524.531 54.9688 526.594C57.6562 528.656 59 531.729 59 535.812C59 537.896 58.4375 539.771 57.3125 541.438C56.1875 543.104 54.5417 544.396 52.375 545.312C54.8333 545.979 56.7292 547.24 58.0625 549.094C59.4167 550.927 60.0938 553.135 60.0938 555.719C60.0938 559.99 58.7188 563.271 55.9688 565.562C53.2396 567.854 49.3229 569 44.2188 569H27.625ZM35.5312 548.469V562.688H44.3125C46.7917 562.688 48.7292 562.073 50.125 560.844C51.5208 559.615 52.2188 557.906 52.2188 555.719C52.2188 550.99 49.8021 548.573 44.9688 548.469H35.5312ZM35.5312 542.656H43.2812C45.7396 542.656 47.6562 542.104 49.0312 541C50.4271 539.875 51.125 538.292 51.125 536.25C51.125 534 50.4792 532.375 49.1875 531.375C47.9167 530.375 45.9271 529.875 43.2188 529.875H35.5312V542.656Z" fill="white"/>
<path id="C" d="M397.344 447.188C396.885 452.042 395.094 455.833 391.969 458.562C388.844 461.271 384.688 462.625 379.5 462.625C375.875 462.625 372.677 461.771 369.906 460.062C367.156 458.333 365.031 455.885 363.531 452.719C362.031 449.552 361.25 445.875 361.188 441.688V437.438C361.188 433.146 361.948 429.365 363.469 426.094C364.99 422.823 367.167 420.302 370 418.531C372.854 416.76 376.146 415.875 379.875 415.875C384.896 415.875 388.938 417.24 392 419.969C395.062 422.698 396.844 426.552 397.344 431.531H389.469C389.094 428.26 388.135 425.906 386.594 424.469C385.073 423.01 382.833 422.281 379.875 422.281C376.438 422.281 373.792 423.542 371.938 426.062C370.104 428.562 369.167 432.24 369.125 437.094V441.125C369.125 446.042 370 449.792 371.75 452.375C373.521 454.958 376.104 456.25 379.5 456.25C382.604 456.25 384.938 455.552 386.5 454.156C388.062 452.76 389.052 450.438 389.469 447.188H397.344Z" fill="white"/>
<path id="D" d="M365.625 572V526.5H379.062C383.083 526.5 386.646 527.396 389.75 529.188C392.875 530.979 395.292 533.521 397 536.812C398.708 540.104 399.562 543.875 399.562 548.125V550.406C399.562 554.719 398.698 558.51 396.969 561.781C395.26 565.052 392.812 567.573 389.625 569.344C386.458 571.115 382.823 572 378.719 572H365.625ZM373.531 532.875V565.688H378.688C382.833 565.688 386.01 564.396 388.219 561.812C390.448 559.208 391.583 555.479 391.625 550.625V548.094C391.625 543.156 390.552 539.385 388.406 536.781C386.26 534.177 383.146 532.875 379.062 532.875H373.531Z" fill="white"/>
<path id="E" d="M735.219 500.688H716.531V514.688H738.375V521H708.625V475.5H738.156V481.875H716.531V494.438H735.219V500.688Z" fill="white"/>
<g id="14">
<path d="M135.729 457H130.767V433.026L123.445 435.528V431.324L135.094 427.038H135.729V457Z" fill="#CD08D1"/>
<path d="M162.964 446.356H166.676V450.355H162.964V457H157.98V450.355H145.081L144.938 447.32L157.816 427.141H162.964V446.356ZM150.167 446.356H157.98V433.888L157.611 434.544L150.167 446.356Z" fill="#CD08D1"/>
</g>
<g id="15">
<path d="M135.729 572H130.767V548.026L123.445 550.528V546.324L135.094 542.038H135.729V572Z" fill="#CD08D1"/>
<path d="M147.439 557.193L149.06 542.141H165.097V546.447H153.202L152.382 553.584C153.763 552.791 155.321 552.395 157.058 552.395C159.901 552.395 162.109 553.304 163.682 555.122C165.268 556.94 166.061 559.388 166.061 562.464C166.061 565.499 165.186 567.919 163.436 569.724C161.686 571.515 159.286 572.41 156.237 572.41C153.503 572.41 151.233 571.638 149.429 570.093C147.638 568.534 146.667 566.483 146.517 563.94H151.336C151.527 565.39 152.047 566.504 152.895 567.283C153.742 568.049 154.85 568.432 156.217 568.432C157.748 568.432 158.938 567.885 159.785 566.791C160.646 565.697 161.077 564.207 161.077 562.32C161.077 560.502 160.605 559.066 159.662 558.014C158.719 556.947 157.42 556.414 155.766 556.414C154.863 556.414 154.098 556.537 153.469 556.783C152.84 557.016 152.156 557.48 151.418 558.178L147.439 557.193Z" fill="#CD08D1"/>
</g>
<g id="16">
<path d="M491.729 454H486.767V430.026L479.445 432.528V428.324L491.094 424.038H491.729V454Z" fill="#CD08D1"/>
<path d="M517.61 423.997V428.119H516.995C514.206 428.16 511.978 428.926 510.31 430.416C508.642 431.906 507.65 434.019 507.336 436.753C508.936 435.071 510.979 434.23 513.468 434.23C516.106 434.23 518.185 435.16 519.702 437.02C521.233 438.879 521.999 441.278 521.999 444.218C521.999 447.253 521.104 449.714 519.312 451.601C517.535 453.474 515.197 454.41 512.299 454.41C509.318 454.41 506.898 453.31 505.039 451.108C503.193 448.907 502.271 446.022 502.271 442.454V440.752C502.271 435.516 503.542 431.414 506.085 428.447C508.642 425.48 512.312 423.997 517.098 423.997H517.61ZM512.258 438.25C511.164 438.25 510.159 438.558 509.243 439.173C508.341 439.788 507.678 440.608 507.254 441.634V443.151C507.254 445.366 507.719 447.13 508.648 448.442C509.578 449.741 510.781 450.391 512.258 450.391C513.734 450.391 514.903 449.837 515.765 448.729C516.626 447.622 517.057 446.166 517.057 444.361C517.057 442.557 516.619 441.087 515.744 439.952C514.869 438.817 513.707 438.25 512.258 438.25Z" fill="#CD08D1"/>
</g>
<g id="20">
<path d="M498.312 563H478.235V559.575L488.182 548.727C489.617 547.127 490.636 545.794 491.237 544.728C491.853 543.647 492.16 542.567 492.16 541.487C492.16 540.065 491.757 538.917 490.95 538.042C490.157 537.167 489.084 536.729 487.73 536.729C486.117 536.729 484.866 537.222 483.978 538.206C483.089 539.19 482.645 540.537 482.645 542.246H477.661C477.661 540.428 478.071 538.794 478.892 537.345C479.726 535.882 480.908 534.747 482.439 533.94C483.984 533.134 485.762 532.73 487.771 532.73C490.67 532.73 492.953 533.462 494.621 534.925C496.303 536.374 497.144 538.384 497.144 540.954C497.144 542.444 496.72 544.01 495.872 545.65C495.038 547.277 493.664 549.13 491.75 551.208L484.449 559.021H498.312V563Z" fill="#CD08D1"/>
<path d="M521.568 550.429C521.568 554.722 520.762 557.962 519.148 560.149C517.549 562.323 515.108 563.41 511.827 563.41C508.601 563.41 506.167 562.351 504.526 560.231C502.899 558.099 502.065 554.947 502.024 550.777V545.609C502.024 541.316 502.824 538.097 504.424 535.95C506.037 533.804 508.491 532.73 511.786 532.73C515.054 532.73 517.487 533.776 519.087 535.868C520.7 537.96 521.527 541.091 521.568 545.261V550.429ZM516.585 544.851C516.585 542.048 516.202 539.997 515.437 538.698C514.671 537.386 513.454 536.729 511.786 536.729C510.159 536.729 508.963 537.352 508.197 538.596C507.432 539.826 507.028 541.754 506.987 544.379V551.146C506.987 553.936 507.377 556.014 508.156 557.381C508.936 558.748 510.159 559.432 511.827 559.432C513.427 559.432 514.609 558.803 515.375 557.545C516.141 556.273 516.544 554.291 516.585 551.598V544.851Z" fill="#CD08D1"/>
</g>
<g id="18">
<path d="M837.729 517H832.767V493.026L825.445 495.528V491.324L837.094 487.038H837.729V517Z" fill="#CD08D1"/>
<path d="M866.912 495.016C866.912 496.479 866.536 497.784 865.784 498.933C865.032 500.067 864.007 500.963 862.708 501.619C864.267 502.344 865.463 503.335 866.297 504.593C867.145 505.851 867.568 507.272 867.568 508.858C867.568 511.483 866.68 513.568 864.902 515.113C863.125 516.645 860.76 517.41 857.807 517.41C854.84 517.41 852.461 516.638 850.67 515.093C848.893 513.548 848.004 511.47 848.004 508.858C848.004 507.259 848.428 505.823 849.275 504.552C850.123 503.28 851.312 502.303 852.844 501.619C851.559 500.963 850.54 500.067 849.788 498.933C849.05 497.784 848.681 496.479 848.681 495.016C848.681 492.473 849.501 490.456 851.142 488.966C852.782 487.476 854.997 486.73 857.786 486.73C860.589 486.73 862.811 487.476 864.451 488.966C866.092 490.456 866.912 492.473 866.912 495.016ZM862.585 508.612C862.585 507.136 862.141 505.946 861.252 505.044C860.377 504.128 859.215 503.67 857.766 503.67C856.316 503.67 855.154 504.121 854.279 505.023C853.418 505.926 852.987 507.122 852.987 508.612C852.987 510.075 853.411 511.244 854.259 512.119C855.12 512.994 856.303 513.432 857.807 513.432C859.311 513.432 860.479 513.008 861.313 512.16C862.161 511.312 862.585 510.13 862.585 508.612ZM861.949 495.2C861.949 493.901 861.573 492.835 860.821 492.001C860.069 491.153 859.058 490.729 857.786 490.729C856.515 490.729 855.51 491.133 854.771 491.939C854.033 492.732 853.664 493.819 853.664 495.2C853.664 496.567 854.033 497.654 854.771 498.461C855.523 499.268 856.535 499.671 857.807 499.671C859.078 499.671 860.083 499.268 860.821 498.461C861.573 497.654 861.949 496.567 861.949 495.2Z" fill="#CD08D1"/>
</g>
</g>
<g id="Calcula el valor de &#194;&#171;x&#194;&#187;.">
<path d="M107.797 77.8789C107.48 80.5859 106.479 82.6777 104.791 84.1543C103.115 85.6191 100.883 86.3516 98.0938 86.3516C95.0703 86.3516 92.6445 85.2676 90.8164 83.0996C89 80.9316 88.0918 78.0312 88.0918 74.3984V71.9375C88.0918 69.5586 88.5137 67.4668 89.3574 65.6621C90.2129 63.8574 91.4199 62.4746 92.9785 61.5137C94.5371 60.541 96.3418 60.0547 98.3926 60.0547C101.111 60.0547 103.291 60.8164 104.932 62.3398C106.572 63.8516 107.527 65.9492 107.797 68.6328H104.404C104.111 66.5938 103.473 65.1172 102.488 64.2031C101.516 63.2891 100.15 62.832 98.3926 62.832C96.2363 62.832 94.543 63.6289 93.3125 65.2227C92.0938 66.8164 91.4844 69.084 91.4844 72.0254V74.5039C91.4844 77.2812 92.0645 79.4902 93.2246 81.1309C94.3848 82.7715 96.0078 83.5918 98.0938 83.5918C99.9688 83.5918 101.404 83.1699 102.4 82.3262C103.408 81.4707 104.076 79.9883 104.404 77.8789H107.797Z" fill="white"/>
<path d="M123.652 86C123.465 85.625 123.312 84.957 123.195 83.9961C121.684 85.5664 119.879 86.3516 117.781 86.3516C115.906 86.3516 114.365 85.8242 113.158 84.7695C111.963 83.7031 111.365 82.3555 111.365 80.7266C111.365 78.7461 112.115 77.2109 113.615 76.1211C115.127 75.0195 117.248 74.4688 119.979 74.4688H123.143V72.9746C123.143 71.8379 122.803 70.9355 122.123 70.2676C121.443 69.5879 120.441 69.248 119.117 69.248C117.957 69.248 116.984 69.541 116.199 70.127C115.414 70.7129 115.021 71.4219 115.021 72.2539H111.752C111.752 71.3047 112.086 70.3906 112.754 69.5117C113.434 68.6211 114.348 67.918 115.496 67.4023C116.656 66.8867 117.928 66.6289 119.311 66.6289C121.502 66.6289 123.219 67.1797 124.461 68.2812C125.703 69.3711 126.348 70.877 126.395 72.7988V81.5527C126.395 83.2988 126.617 84.6875 127.062 85.7188V86H123.652ZM118.256 83.5215C119.275 83.5215 120.242 83.2578 121.156 82.7305C122.07 82.2031 122.732 81.5176 123.143 80.6738V76.7715H120.594C116.609 76.7715 114.617 77.9375 114.617 80.2695C114.617 81.2891 114.957 82.0859 115.637 82.6602C116.316 83.2344 117.189 83.5215 118.256 83.5215Z" fill="white"/>
<path d="M135.025 86H131.773V59H135.025V86Z" fill="white"/>
<path d="M147.875 83.6973C149.035 83.6973 150.049 83.3457 150.916 82.6426C151.783 81.9395 152.264 81.0605 152.357 80.0059H155.434C155.375 81.0957 155 82.1328 154.309 83.1172C153.617 84.1016 152.691 84.8867 151.531 85.4727C150.383 86.0586 149.164 86.3516 147.875 86.3516C145.285 86.3516 143.223 85.4902 141.688 83.7676C140.164 82.0332 139.402 79.666 139.402 76.666V76.1211C139.402 74.2695 139.742 72.623 140.422 71.1816C141.102 69.7402 142.074 68.6211 143.34 67.8242C144.617 67.0273 146.123 66.6289 147.857 66.6289C149.99 66.6289 151.76 67.2676 153.166 68.5449C154.584 69.8223 155.34 71.4805 155.434 73.5195H152.357C152.264 72.2891 151.795 71.2812 150.951 70.4961C150.119 69.6992 149.088 69.3008 147.857 69.3008C146.205 69.3008 144.922 69.8984 144.008 71.0938C143.105 72.2773 142.654 73.9941 142.654 76.2441V76.8594C142.654 79.0508 143.105 80.7383 144.008 81.9219C144.91 83.1055 146.199 83.6973 147.875 83.6973Z" fill="white"/>
<path d="M170.832 84.1191C169.566 85.6074 167.709 86.3516 165.26 86.3516C163.232 86.3516 161.686 85.7656 160.619 84.5938C159.564 83.4102 159.031 81.6641 159.02 79.3555V66.9805H162.271V79.2676C162.271 82.1504 163.443 83.5918 165.787 83.5918C168.271 83.5918 169.924 82.666 170.744 80.8145V66.9805H173.996V86H170.902L170.832 84.1191Z" fill="white"/>
<path d="M182.486 86H179.234V59H182.486V86Z" fill="white"/>
<path d="M199.449 86C199.262 85.625 199.109 84.957 198.992 83.9961C197.48 85.5664 195.676 86.3516 193.578 86.3516C191.703 86.3516 190.162 85.8242 188.955 84.7695C187.76 83.7031 187.162 82.3555 187.162 80.7266C187.162 78.7461 187.912 77.2109 189.412 76.1211C190.924 75.0195 193.045 74.4688 195.775 74.4688H198.939V72.9746C198.939 71.8379 198.6 70.9355 197.92 70.2676C197.24 69.5879 196.238 69.248 194.914 69.248C193.754 69.248 192.781 69.541 191.996 70.127C191.211 70.7129 190.818 71.4219 190.818 72.2539H187.549C187.549 71.3047 187.883 70.3906 188.551 69.5117C189.23 68.6211 190.145 67.918 191.293 67.4023C192.453 66.8867 193.725 66.6289 195.107 66.6289C197.299 66.6289 199.016 67.1797 200.258 68.2812C201.5 69.3711 202.145 70.877 202.191 72.7988V81.5527C202.191 83.2988 202.414 84.6875 202.859 85.7188V86H199.449ZM194.053 83.5215C195.072 83.5215 196.039 83.2578 196.953 82.7305C197.867 82.2031 198.529 81.5176 198.939 80.6738V76.7715H196.391C192.406 76.7715 190.414 77.9375 190.414 80.2695C190.414 81.2891 190.754 82.0859 191.434 82.6602C192.113 83.2344 192.986 83.5215 194.053 83.5215Z" fill="white"/>
<path d="M224.111 86.3516C221.533 86.3516 219.436 85.5078 217.818 83.8203C216.201 82.1211 215.393 79.8535 215.393 77.0176V76.4199C215.393 74.5332 215.75 72.8516 216.465 71.375C217.191 69.8867 218.199 68.7266 219.488 67.8945C220.789 67.0508 222.195 66.6289 223.707 66.6289C226.18 66.6289 228.102 67.4434 229.473 69.0723C230.844 70.7012 231.529 73.0332 231.529 76.0684V77.4219H218.645C218.691 79.2969 219.236 80.8145 220.279 81.9746C221.334 83.123 222.67 83.6973 224.287 83.6973C225.436 83.6973 226.408 83.4629 227.205 82.9941C228.002 82.5254 228.699 81.9043 229.297 81.1309L231.283 82.6777C229.689 85.127 227.299 86.3516 224.111 86.3516ZM223.707 69.3008C222.395 69.3008 221.293 69.7812 220.402 70.7422C219.512 71.6914 218.961 73.0273 218.75 74.75H228.277V74.5039C228.184 72.8516 227.738 71.5742 226.941 70.6719C226.145 69.7578 225.066 69.3008 223.707 69.3008Z" fill="white"/>
<path d="M238.842 86H235.59V59H238.842V86Z" fill="white"/>
<path d="M259.268 81.5879L263.979 66.9805H267.301L260.48 86H258.002L251.111 66.9805H254.434L259.268 81.5879Z" fill="white"/>
<path d="M281.891 86C281.703 85.625 281.551 84.957 281.434 83.9961C279.922 85.5664 278.117 86.3516 276.02 86.3516C274.145 86.3516 272.604 85.8242 271.396 84.7695C270.201 83.7031 269.604 82.3555 269.604 80.7266C269.604 78.7461 270.354 77.2109 271.854 76.1211C273.365 75.0195 275.486 74.4688 278.217 74.4688H281.381V72.9746C281.381 71.8379 281.041 70.9355 280.361 70.2676C279.682 69.5879 278.68 69.248 277.355 69.248C276.195 69.248 275.223 69.541 274.438 70.127C273.652 70.7129 273.26 71.4219 273.26 72.2539H269.99C269.99 71.3047 270.324 70.3906 270.992 69.5117C271.672 68.6211 272.586 67.918 273.734 67.4023C274.895 66.8867 276.166 66.6289 277.549 66.6289C279.74 66.6289 281.457 67.1797 282.699 68.2812C283.941 69.3711 284.586 70.877 284.633 72.7988V81.5527C284.633 83.2988 284.855 84.6875 285.301 85.7188V86H281.891ZM276.494 83.5215C277.514 83.5215 278.48 83.2578 279.395 82.7305C280.309 82.2031 280.971 81.5176 281.381 80.6738V76.7715H278.832C274.848 76.7715 272.855 77.9375 272.855 80.2695C272.855 81.2891 273.195 82.0859 273.875 82.6602C274.555 83.2344 275.428 83.5215 276.494 83.5215Z" fill="white"/>
<path d="M293.264 86H290.012V59H293.264V86Z" fill="white"/>
<path d="M297.623 76.3145C297.623 74.4512 297.986 72.7754 298.713 71.2871C299.451 69.7988 300.471 68.6504 301.771 67.8418C303.084 67.0332 304.578 66.6289 306.254 66.6289C308.844 66.6289 310.936 67.5254 312.529 69.3184C314.135 71.1113 314.938 73.4961 314.938 76.4727V76.7012C314.938 78.5527 314.58 80.2168 313.865 81.6934C313.162 83.1582 312.148 84.3008 310.824 85.1211C309.512 85.9414 308 86.3516 306.289 86.3516C303.711 86.3516 301.619 85.4551 300.014 83.6621C298.42 81.8691 297.623 79.4961 297.623 76.543V76.3145ZM300.893 76.7012C300.893 78.8105 301.379 80.5039 302.352 81.7812C303.336 83.0586 304.648 83.6973 306.289 83.6973C307.941 83.6973 309.254 83.0527 310.227 81.7637C311.199 80.4629 311.686 78.6465 311.686 76.3145C311.686 74.2285 311.188 72.541 310.191 71.252C309.207 69.9512 307.895 69.3008 306.254 69.3008C304.648 69.3008 303.354 69.9395 302.369 71.2168C301.385 72.4941 300.893 74.3223 300.893 76.7012Z" fill="white"/>
<path d="M328.209 69.8984C327.717 69.8164 327.184 69.7754 326.609 69.7754C324.477 69.7754 323.029 70.6836 322.268 72.5V86H319.016V66.9805H322.18L322.232 69.1777C323.299 67.4785 324.811 66.6289 326.768 66.6289C327.4 66.6289 327.881 66.7109 328.209 66.875V69.8984Z" fill="white"/>
<path d="M339.354 76.332C339.354 73.4141 340.045 71.0703 341.428 69.3008C342.811 67.5195 344.621 66.6289 346.859 66.6289C349.086 66.6289 350.85 67.3906 352.15 68.9141V59H355.402V86H352.414L352.256 83.9609C350.955 85.5547 349.145 86.3516 346.824 86.3516C344.621 86.3516 342.822 85.4492 341.428 83.6445C340.045 81.8398 339.354 79.4844 339.354 76.5781V76.332ZM342.605 76.7012C342.605 78.8574 343.051 80.5449 343.941 81.7637C344.832 82.9824 346.062 83.5918 347.633 83.5918C349.695 83.5918 351.201 82.666 352.15 80.8145V72.0781C351.178 70.2852 349.684 69.3887 347.668 69.3887C346.074 69.3887 344.832 70.0039 343.941 71.2344C343.051 72.4648 342.605 74.2871 342.605 76.7012Z" fill="white"/>
<path d="M368.357 86.3516C365.779 86.3516 363.682 85.5078 362.064 83.8203C360.447 82.1211 359.639 79.8535 359.639 77.0176V76.4199C359.639 74.5332 359.996 72.8516 360.711 71.375C361.438 69.8867 362.445 68.7266 363.734 67.8945C365.035 67.0508 366.441 66.6289 367.953 66.6289C370.426 66.6289 372.348 67.4434 373.719 69.0723C375.09 70.7012 375.775 73.0332 375.775 76.0684V77.4219H362.891C362.938 79.2969 363.482 80.8145 364.525 81.9746C365.58 83.123 366.916 83.6973 368.533 83.6973C369.682 83.6973 370.654 83.4629 371.451 82.9941C372.248 82.5254 372.945 81.9043 373.543 81.1309L375.529 82.6777C373.936 85.127 371.545 86.3516 368.357 86.3516ZM367.953 69.3008C366.641 69.3008 365.539 69.7812 364.648 70.7422C363.758 71.6914 363.207 73.0273 362.996 74.75H372.523V74.5039C372.43 72.8516 371.984 71.5742 371.188 70.6719C370.391 69.7578 369.312 69.3008 367.953 69.3008Z" fill="white"/>
<path d="M390.945 76.3672L395.48 83.3457H393.002L387.816 76.5254V76.1914L393.002 69.3535H395.48L390.945 76.3672ZM396.746 76.3672L401.281 83.3457H398.803L393.617 76.5254V76.1914L398.803 69.3535H401.281L396.746 76.3672Z" fill="white"/>
<path d="M411.775 73.9238L415.994 66.9805H419.791L413.568 76.3848L419.984 86H416.223L411.828 78.8809L407.434 86H403.654L410.07 76.3848L403.848 66.9805H407.609L411.775 73.9238Z" fill="white"/>
<path d="M425.082 69.3184L430.268 76.1562V76.4902L425.082 83.3281H422.586L427.121 76.332L422.586 69.3184H425.082ZM431.217 69.3184L436.402 76.1562V76.4902L431.217 83.3281H428.721L433.256 76.332L428.721 69.3184H431.217Z" fill="white"/>
<path d="M440.199 84.2949C440.199 83.7324 440.363 83.2637 440.691 82.8887C441.031 82.5137 441.535 82.3262 442.203 82.3262C442.871 82.3262 443.375 82.5137 443.715 82.8887C444.066 83.2637 444.242 83.7324 444.242 84.2949C444.242 84.834 444.066 85.2852 443.715 85.6484C443.375 86.0117 442.871 86.1934 442.203 86.1934C441.535 86.1934 441.031 86.0117 440.691 85.6484C440.363 85.2852 440.199 84.834 440.199 84.2949Z" fill="white"/>
</g>
<g id="4 10 3 12 5 10 8 x 14">
<path d="M368.67 159.017H373.207V162.408H368.67V170H364.492V162.408H349.601V159.96L364.245 137.297H368.67V159.017ZM354.317 159.017H364.492V142.979L363.998 143.878L354.317 159.017Z" fill="white"/>
<path d="M447.665 170H443.487V142.306L435.109 145.383V141.609L447.014 137.14H447.665V170Z" fill="white"/>
<path d="M480.346 156.052C480.346 160.918 479.515 164.535 477.853 166.9C476.19 169.266 473.592 170.449 470.059 170.449C466.57 170.449 463.987 169.296 462.31 166.99C460.632 164.669 459.764 161.21 459.704 156.613V151.065C459.704 146.259 460.535 142.688 462.197 140.352C463.859 138.016 466.465 136.848 470.014 136.848C473.533 136.848 476.123 137.978 477.785 140.239C479.447 142.485 480.301 145.959 480.346 150.661V156.052ZM476.19 150.369C476.19 146.85 475.696 144.29 474.708 142.688C473.72 141.07 472.155 140.262 470.014 140.262C467.887 140.262 466.338 141.063 465.364 142.665C464.391 144.267 463.889 146.73 463.859 150.055V156.703C463.859 160.237 464.368 162.85 465.387 164.542C466.42 166.219 467.977 167.058 470.059 167.058C472.11 167.058 473.63 166.264 474.618 164.677C475.621 163.09 476.146 160.589 476.19 157.175V150.369Z" fill="white"/>
<path d="M560.172 151.627H563.294C565.256 151.597 566.798 151.08 567.921 150.077C569.044 149.074 569.605 147.719 569.605 146.012C569.605 142.178 567.696 140.262 563.878 140.262C562.081 140.262 560.644 140.778 559.565 141.812C558.502 142.83 557.971 144.185 557.971 145.877H553.815C553.815 143.286 554.759 141.138 556.646 139.431C558.547 137.709 560.958 136.848 563.878 136.848C566.963 136.848 569.381 137.664 571.133 139.296C572.885 140.928 573.761 143.197 573.761 146.102C573.761 147.524 573.297 148.902 572.368 150.234C571.455 151.567 570.204 152.563 568.617 153.222C570.414 153.791 571.799 154.734 572.772 156.052C573.761 157.369 574.255 158.979 574.255 160.881C574.255 163.816 573.297 166.144 571.38 167.866C569.463 169.588 566.97 170.449 563.9 170.449C560.831 170.449 558.33 169.618 556.398 167.956C554.482 166.294 553.523 164.1 553.523 161.375H557.701C557.701 163.097 558.263 164.475 559.386 165.508C560.509 166.541 562.014 167.058 563.9 167.058C565.907 167.058 567.442 166.534 568.505 165.485C569.568 164.437 570.1 162.932 570.1 160.971C570.1 159.069 569.516 157.609 568.348 156.591C567.18 155.573 565.495 155.049 563.294 155.019H560.172V151.627Z" fill="white"/>
<path d="M364.784 247H360.606V219.306L352.229 222.383V218.609L364.133 214.14H364.784V247Z" fill="white"/>
<path d="M398.386 247H376.958V244.013L388.278 231.435C389.955 229.533 391.108 227.991 391.737 226.808C392.381 225.61 392.703 224.374 392.703 223.102C392.703 221.395 392.187 219.994 391.153 218.901C390.12 217.808 388.743 217.262 387.021 217.262C384.954 217.262 383.344 217.853 382.191 219.036C381.053 220.204 380.484 221.836 380.484 223.933H376.329C376.329 220.923 377.295 218.49 379.227 216.633C381.173 214.776 383.771 213.848 387.021 213.848C390.06 213.848 392.464 214.649 394.23 216.251C395.997 217.838 396.881 219.957 396.881 222.607C396.881 225.827 394.829 229.66 390.727 234.107L381.967 243.608H398.386V247Z" fill="white"/>
<path d="M461.748 230.604L463.41 214.297H480.166V218.138H466.937L465.948 227.055C467.55 226.111 469.37 225.64 471.406 225.64C474.386 225.64 476.752 226.628 478.504 228.604C480.256 230.566 481.132 233.224 481.132 236.578C481.132 239.947 480.218 242.605 478.392 244.552C476.58 246.483 474.042 247.449 470.777 247.449C467.887 247.449 465.529 246.648 463.702 245.046C461.875 243.444 460.835 241.228 460.58 238.397H464.511C464.765 240.269 465.432 241.684 466.51 242.643C467.588 243.586 469.01 244.058 470.777 244.058C472.709 244.058 474.221 243.399 475.314 242.081C476.423 240.763 476.977 238.944 476.977 236.623C476.977 234.437 476.378 232.685 475.18 231.367C473.997 230.035 472.417 229.368 470.44 229.368C468.629 229.368 467.206 229.765 466.173 230.559L465.072 231.457L461.748 230.604Z" fill="white"/>
<path d="M556.376 247H552.198V219.306L543.82 222.383V218.609L555.725 214.14H556.376V247Z" fill="white"/>
<path d="M589.057 233.052C589.057 237.918 588.226 241.535 586.563 243.9C584.901 246.266 582.303 247.449 578.77 247.449C575.281 247.449 572.698 246.296 571.021 243.99C569.343 241.669 568.475 238.21 568.415 233.613V228.065C568.415 223.259 569.246 219.688 570.908 217.352C572.57 215.016 575.176 213.848 578.725 213.848C582.243 213.848 584.834 214.978 586.496 217.239C588.158 219.485 589.012 222.959 589.057 227.661V233.052ZM584.901 227.369C584.901 223.85 584.407 221.29 583.419 219.688C582.431 218.07 580.866 217.262 578.725 217.262C576.598 217.262 575.049 218.063 574.075 219.665C573.102 221.267 572.6 223.73 572.57 227.055V233.703C572.57 237.237 573.079 239.85 574.098 241.542C575.131 243.219 576.688 244.058 578.77 244.058C580.821 244.058 582.341 243.264 583.329 241.677C584.332 240.09 584.856 237.589 584.901 234.175V227.369Z" fill="white"/>
<path d="M370.961 299.832C370.961 301.464 370.527 302.917 369.658 304.189C368.805 305.462 367.644 306.458 366.177 307.177C367.884 307.91 369.231 308.981 370.22 310.389C371.223 311.796 371.725 313.391 371.725 315.173C371.725 318.003 370.766 320.257 368.85 321.934C366.948 323.611 364.44 324.449 361.325 324.449C358.181 324.449 355.658 323.611 353.756 321.934C351.869 320.242 350.926 317.988 350.926 315.173C350.926 313.406 351.405 311.811 352.363 310.389C353.337 308.966 354.677 307.888 356.384 307.154C354.931 306.436 353.786 305.44 352.947 304.167C352.109 302.894 351.689 301.449 351.689 299.832C351.689 297.077 352.573 294.891 354.34 293.273C356.107 291.656 358.435 290.848 361.325 290.848C364.2 290.848 366.521 291.656 368.288 293.273C370.07 294.891 370.961 297.077 370.961 299.832ZM367.569 315.083C367.569 313.256 366.985 311.766 365.817 310.613C364.664 309.46 363.152 308.884 361.28 308.884C359.409 308.884 357.904 309.453 356.766 310.591C355.643 311.729 355.081 313.226 355.081 315.083C355.081 316.94 355.628 318.4 356.721 319.463C357.829 320.526 359.364 321.058 361.325 321.058C363.272 321.058 364.799 320.526 365.907 319.463C367.015 318.385 367.569 316.925 367.569 315.083ZM361.325 294.262C359.693 294.262 358.368 294.771 357.35 295.789C356.346 296.792 355.845 298.162 355.845 299.899C355.845 301.562 356.339 302.909 357.327 303.942C358.33 304.961 359.663 305.47 361.325 305.47C362.987 305.47 364.312 304.961 365.301 303.942C366.304 302.909 366.806 301.562 366.806 299.899C366.806 298.237 366.289 296.882 365.256 295.834C364.223 294.786 362.912 294.262 361.325 294.262Z" fill="white"/>
<path d="M465.409 308.569L470.8 299.697H475.651L467.7 311.714L475.898 324H471.092L465.477 314.903L459.861 324H455.032L463.23 311.714L455.279 299.697H460.086L465.409 308.569Z" fill="white"/>
<path d="M561.767 324H557.589V296.306L549.211 299.383V295.609L561.115 291.14H561.767V324Z" fill="white"/>
<path d="M591.482 313.017H596.02V316.408H591.482V324H587.305V316.408H572.413V313.96L587.058 291.297H591.482V313.017ZM577.13 313.017H587.305V296.979L586.811 297.878L577.13 313.017Z" fill="white"/>
</g>
<g id="flecha">
<path id="Rectangle 2" d="M737.2 456.008L752.482 464.133L710.5 543.089L695.219 534.963L737.2 456.008Z" fill="#1043F5"/>
<path id="Rectangle 1_2" d="M679 468.904L769 419V476.692L724 459.096L679 468.904Z" fill="#1043F5"/>
<path id="Rectangle 3" d="M683.039 538.21L698.666 511.143L715.936 510.565L700.309 537.632L683.039 538.21Z" fill="#1043F5"/>
<path id="Rectangle 4_2" d="M709.089 552.845L724.717 525.778L715.926 510.154L700.299 537.221L709.089 552.845Z" fill="#1043F5"/>
</g>
</g>
</svg>
