<svg viewBox="0 0 975 602" fill="none" xmlns="http://www.w3.org/2000/svg">
<g id="0119109">
<g id="Group 8">
<path id="Rectangle 1" d="M63 50.4762C63 24.1769 84.3794 2.85718 110.752 2.85718H934V332.381C934 358.68 912.62 380 886.247 380H63V50.4762Z" fill="#02071A"/>
<path id="Rectangle 1 (Stroke)" fill-rule="evenodd" clip-rule="evenodd" d="M929.224 7.61908H110.752C87.0167 7.61908 67.7752 26.8069 67.7752 50.4762V375.238H886.247C909.983 375.238 929.224 356.05 929.224 332.381V7.61908ZM110.752 2.85718C84.3794 2.85718 63 24.1769 63 50.4762V380H886.247C912.62 380 934 358.68 934 332.381V2.85718H110.752Z" fill="#CD08D1"/>
<path id="Rectangle 14" d="M114.716 2.92611C140.256 -3.65764 934 2.92611 934 2.92611V31.4286C934 31.4286 101.202 20.9524 71.5953 31.4286C80.8074 16.3113 89.1754 9.50987 114.716 2.92611Z" fill="#CD08D1"/>
<path id="Rectangle 15" d="M905.349 2.85718H934V333.333C930.483 355.76 923.194 364.003 905.349 374.762C910.601 357.143 905.349 2.85718 905.349 2.85718Z" fill="#CD08D1"/>
</g>
<g id="claves01">
<path id="Rectangle 4" d="M39 412H255.745L289 452L255.745 492H39V412Z" fill="#CD08D1" fill-opacity="0.1"/>
<path id="Rectangle 4 (Stroke)" fill-rule="evenodd" clip-rule="evenodd" d="M254.338 415H42V489H254.338L285.099 452L254.338 415ZM255.745 412H39V492H255.745L289 452L255.745 412Z" fill="#CD08D1"/>
<path id="Rectangle 5" d="M43 522H259.745L293 562L259.745 602H43V522Z" fill="#CD08D1" fill-opacity="0.1"/>
<path id="Rectangle 5 (Stroke)" fill-rule="evenodd" clip-rule="evenodd" d="M258.338 525H46V599H258.338L289.099 562L258.338 525ZM259.745 522H43V602H259.745L293 562L259.745 522Z" fill="#CD08D1"/>
<path id="Rectangle 6" d="M379 409H595.745L629 449L595.745 489H379V409Z" fill="#CD08D1" fill-opacity="0.1"/>
<path id="Rectangle 6 (Stroke)" fill-rule="evenodd" clip-rule="evenodd" d="M594.338 412H382V486H594.338L625.099 449L594.338 412ZM595.745 409H379V489H595.745L629 449L595.745 409Z" fill="#CD08D1"/>
<path id="Rectangle 7" d="M382 519H598.745L632 559L598.745 599H382V519Z" fill="#CD08D1" fill-opacity="0.1"/>
<path id="Rectangle 7 (Stroke)" fill-rule="evenodd" clip-rule="evenodd" d="M597.338 522H385V596H597.338L628.099 559L597.338 522ZM598.745 519H382V599H598.745L632 559L598.745 519Z" fill="#CD08D1"/>
<path id="Rectangle 8" d="M725 468H941.745L975 508L941.745 548H725V468Z" fill="#CD08D1" fill-opacity="0.1"/>
<path id="Rectangle 8 (Stroke)" fill-rule="evenodd" clip-rule="evenodd" d="M940.338 471H728V545H940.338L971.099 508L940.338 471ZM941.745 468H725V548H941.745L975 508L941.745 468Z" fill="#CD08D1"/>
<path id="Ellipse 1" d="M80 452C80 474.091 62.0914 492 40 492C17.9086 492 0 474.091 0 452C0 429.909 17.9086 412 40 412C62.0914 412 80 429.909 80 452Z" fill="#CD08D1"/>
<path id="Ellipse 2" d="M84 562C84 584.091 66.0914 602 44 602C21.9086 602 4 584.091 4 562C4 539.909 21.9086 522 44 522C66.0914 522 84 539.909 84 562Z" fill="#CD08D1"/>
<path id="Ellipse 3" d="M420 449C420 471.091 402.091 489 380 489C357.909 489 340 471.091 340 449C340 426.909 357.909 409 380 409C402.091 409 420 426.909 420 449Z" fill="#CD08D1"/>
<path id="Ellipse 4" d="M423 559C423 581.091 405.091 599 383 599C360.909 599 343 581.091 343 559C343 536.909 360.909 519 383 519C405.091 519 423 536.909 423 559Z" fill="#CD08D1"/>
<path id="Ellipse 5" d="M766 508C766 530.091 748.091 548 726 548C703.909 548 686 530.091 686 508C686 485.909 703.909 468 726 468C748.091 468 766 485.909 766 508Z" fill="#CD08D1"/>
<path id="A" d="M48.0938 462.406H30.4688L26.7812 473H18.5625L35.75 427.5H42.8438L60.0625 473H51.8125L48.0938 462.406ZM32.6875 456.031H45.875L39.2812 437.156L32.6875 456.031Z" fill="white"/>
<path id="B" d="M27.625 578V532.5H43.2188C48.3646 532.5 52.2812 533.531 54.9688 535.594C57.6562 537.656 59 540.729 59 544.812C59 546.896 58.4375 548.771 57.3125 550.438C56.1875 552.104 54.5417 553.396 52.375 554.312C54.8333 554.979 56.7292 556.24 58.0625 558.094C59.4167 559.927 60.0938 562.135 60.0938 564.719C60.0938 568.99 58.7188 572.271 55.9688 574.562C53.2396 576.854 49.3229 578 44.2188 578H27.625ZM35.5312 557.469V571.688H44.3125C46.7917 571.688 48.7292 571.073 50.125 569.844C51.5208 568.615 52.2188 566.906 52.2188 564.719C52.2188 559.99 49.8021 557.573 44.9688 557.469H35.5312ZM35.5312 551.656H43.2812C45.7396 551.656 47.6562 551.104 49.0312 550C50.4271 548.875 51.125 547.292 51.125 545.25C51.125 543 50.4792 541.375 49.1875 540.375C47.9167 539.375 45.9271 538.875 43.2188 538.875H35.5312V551.656Z" fill="white"/>
<path id="C" d="M397.344 456.188C396.885 461.042 395.094 464.833 391.969 467.562C388.844 470.271 384.688 471.625 379.5 471.625C375.875 471.625 372.677 470.771 369.906 469.062C367.156 467.333 365.031 464.885 363.531 461.719C362.031 458.552 361.25 454.875 361.188 450.688V446.438C361.188 442.146 361.948 438.365 363.469 435.094C364.99 431.823 367.167 429.302 370 427.531C372.854 425.76 376.146 424.875 379.875 424.875C384.896 424.875 388.938 426.24 392 428.969C395.062 431.698 396.844 435.552 397.344 440.531H389.469C389.094 437.26 388.135 434.906 386.594 433.469C385.073 432.01 382.833 431.281 379.875 431.281C376.438 431.281 373.792 432.542 371.938 435.062C370.104 437.562 369.167 441.24 369.125 446.094V450.125C369.125 455.042 370 458.792 371.75 461.375C373.521 463.958 376.104 465.25 379.5 465.25C382.604 465.25 384.938 464.552 386.5 463.156C388.062 461.76 389.052 459.438 389.469 456.188H397.344Z" fill="white"/>
<path id="D" d="M365.625 581V535.5H379.062C383.083 535.5 386.646 536.396 389.75 538.188C392.875 539.979 395.292 542.521 397 545.812C398.708 549.104 399.562 552.875 399.562 557.125V559.406C399.562 563.719 398.698 567.51 396.969 570.781C395.26 574.052 392.812 576.573 389.625 578.344C386.458 580.115 382.823 581 378.719 581H365.625ZM373.531 541.875V574.688H378.688C382.833 574.688 386.01 573.396 388.219 570.812C390.448 568.208 391.583 564.479 391.625 559.625V557.094C391.625 552.156 390.552 548.385 388.406 545.781C386.26 543.177 383.146 541.875 379.062 541.875H373.531Z" fill="white"/>
<path id="E" d="M735.219 509.688H716.531V523.688H738.375V530H708.625V484.5H738.156V490.875H716.531V503.438H735.219V509.688Z" fill="white"/>
<g id="10">
<path d="M135.729 466H130.767V442.026L123.445 444.528V440.324L135.094 436.038H135.729V466Z" fill="#CD08D1"/>
<path d="M165.568 453.429C165.568 457.722 164.762 460.962 163.148 463.149C161.549 465.323 159.108 466.41 155.827 466.41C152.601 466.41 150.167 465.351 148.526 463.231C146.899 461.099 146.065 457.947 146.024 453.777V448.609C146.024 444.316 146.824 441.097 148.424 438.95C150.037 436.804 152.491 435.73 155.786 435.73C159.054 435.73 161.487 436.776 163.087 438.868C164.7 440.96 165.527 444.091 165.568 448.261V453.429ZM160.585 447.851C160.585 445.048 160.202 442.997 159.437 441.698C158.671 440.386 157.454 439.729 155.786 439.729C154.159 439.729 152.963 440.352 152.197 441.596C151.432 442.826 151.028 444.754 150.987 447.379V454.146C150.987 456.936 151.377 459.014 152.156 460.381C152.936 461.748 154.159 462.432 155.827 462.432C157.427 462.432 158.609 461.803 159.375 460.545C160.141 459.273 160.544 457.291 160.585 454.598V447.851Z" fill="#CD08D1"/>
</g>
<g id="15">
<path d="M135.729 581H130.767V557.026L123.445 559.528V555.324L135.094 551.038H135.729V581Z" fill="#CD08D1"/>
<path d="M147.439 566.193L149.06 551.141H165.097V555.447H153.202L152.382 562.584C153.763 561.791 155.321 561.395 157.058 561.395C159.901 561.395 162.109 562.304 163.682 564.122C165.268 565.94 166.061 568.388 166.061 571.464C166.061 574.499 165.186 576.919 163.436 578.724C161.686 580.515 159.286 581.41 156.237 581.41C153.503 581.41 151.233 580.638 149.429 579.093C147.638 577.534 146.667 575.483 146.517 572.94H151.336C151.527 574.39 152.047 575.504 152.895 576.283C153.742 577.049 154.85 577.432 156.217 577.432C157.748 577.432 158.938 576.885 159.785 575.791C160.646 574.697 161.077 573.207 161.077 571.32C161.077 569.502 160.605 568.066 159.662 567.014C158.719 565.947 157.42 565.414 155.766 565.414C154.863 565.414 154.098 565.537 153.469 565.783C152.84 566.016 152.156 566.48 151.418 567.178L147.439 566.193Z" fill="#CD08D1"/>
</g>
<g id="20">
<path d="M498.312 463H478.235V459.575L488.182 448.727C489.617 447.127 490.636 445.794 491.237 444.728C491.853 443.647 492.16 442.567 492.16 441.487C492.16 440.065 491.757 438.917 490.95 438.042C490.157 437.167 489.084 436.729 487.73 436.729C486.117 436.729 484.866 437.222 483.978 438.206C483.089 439.19 482.645 440.537 482.645 442.246H477.661C477.661 440.428 478.071 438.794 478.892 437.345C479.726 435.882 480.908 434.747 482.439 433.94C483.984 433.134 485.762 432.73 487.771 432.73C490.67 432.73 492.953 433.462 494.621 434.925C496.303 436.374 497.144 438.384 497.144 440.954C497.144 442.444 496.72 444.01 495.872 445.65C495.038 447.277 493.664 449.13 491.75 451.208L484.449 459.021H498.312V463Z" fill="#CD08D1"/>
<path d="M521.568 450.429C521.568 454.722 520.762 457.962 519.148 460.149C517.549 462.323 515.108 463.41 511.827 463.41C508.601 463.41 506.167 462.351 504.526 460.231C502.899 458.099 502.065 454.947 502.024 450.777V445.609C502.024 441.316 502.824 438.097 504.424 435.95C506.037 433.804 508.491 432.73 511.786 432.73C515.054 432.73 517.487 433.776 519.087 435.868C520.7 437.96 521.527 441.091 521.568 445.261V450.429ZM516.585 444.851C516.585 442.048 516.202 439.997 515.437 438.698C514.671 437.386 513.454 436.729 511.786 436.729C510.159 436.729 508.963 437.352 508.197 438.596C507.432 439.826 507.028 441.754 506.987 444.379V451.146C506.987 453.936 507.377 456.014 508.156 457.381C508.936 458.748 510.159 459.432 511.827 459.432C513.427 459.432 514.609 458.803 515.375 457.545C516.141 456.273 516.544 454.291 516.585 451.598V444.851Z" fill="#CD08D1"/>
</g>
<g id="25">
<path d="M498.312 572H478.235V568.575L488.182 557.727C489.617 556.127 490.636 554.794 491.237 553.728C491.853 552.647 492.16 551.567 492.16 550.487C492.16 549.065 491.757 547.917 490.95 547.042C490.157 546.167 489.084 545.729 487.73 545.729C486.117 545.729 484.866 546.222 483.978 547.206C483.089 548.19 482.645 549.537 482.645 551.246H477.661C477.661 549.428 478.071 547.794 478.892 546.345C479.726 544.882 480.908 543.747 482.439 542.94C483.984 542.134 485.762 541.73 487.771 541.73C490.67 541.73 492.953 542.462 494.621 543.925C496.303 545.374 497.144 547.384 497.144 549.954C497.144 551.444 496.72 553.01 495.872 554.65C495.038 556.277 493.664 558.13 491.75 560.208L484.449 568.021H498.312V572Z" fill="#CD08D1"/>
<path d="M503.439 557.193L505.06 542.141H521.097V546.447H509.202L508.382 553.584C509.763 552.791 511.321 552.395 513.058 552.395C515.901 552.395 518.109 553.304 519.682 555.122C521.268 556.94 522.061 559.388 522.061 562.464C522.061 565.499 521.186 567.919 519.436 569.724C517.686 571.515 515.286 572.41 512.237 572.41C509.503 572.41 507.233 571.638 505.429 570.093C503.638 568.534 502.667 566.483 502.517 563.94H507.336C507.527 565.39 508.047 566.504 508.895 567.283C509.742 568.049 510.85 568.432 512.217 568.432C513.748 568.432 514.938 567.885 515.785 566.791C516.646 565.697 517.077 564.207 517.077 562.32C517.077 560.502 516.605 559.066 515.662 558.014C514.719 556.947 513.42 556.414 511.766 556.414C510.863 556.414 510.098 556.537 509.469 556.783C508.84 557.016 508.156 557.48 507.418 558.178L503.439 557.193Z" fill="#CD08D1"/>
</g>
<g id="30">
<path d="M829.998 508.794H833.033C834.564 508.78 835.774 508.384 836.663 507.604C837.565 506.825 838.017 505.697 838.017 504.221C838.017 502.799 837.641 501.698 836.889 500.919C836.15 500.126 835.016 499.729 833.484 499.729C832.145 499.729 831.044 500.119 830.183 500.898C829.321 501.664 828.891 502.669 828.891 503.913H823.907C823.907 502.382 824.311 500.987 825.117 499.729C825.938 498.472 827.072 497.494 828.521 496.797C829.984 496.086 831.618 495.73 833.423 495.73C836.403 495.73 838.741 496.482 840.437 497.986C842.146 499.477 843 501.555 843 504.221C843 505.561 842.569 506.825 841.708 508.015C840.86 509.19 839.76 510.079 838.406 510.681C840.047 511.241 841.291 512.123 842.139 513.326C843 514.529 843.431 515.965 843.431 517.633C843.431 520.312 842.508 522.445 840.662 524.031C838.83 525.617 836.417 526.41 833.423 526.41C830.552 526.41 828.2 525.645 826.368 524.113C824.536 522.582 823.62 520.545 823.62 518.002H828.604C828.604 519.314 829.041 520.381 829.916 521.201C830.805 522.021 831.994 522.432 833.484 522.432C835.029 522.432 836.246 522.021 837.135 521.201C838.023 520.381 838.468 519.191 838.468 517.633C838.468 516.061 838.003 514.851 837.073 514.003C836.144 513.155 834.763 512.731 832.931 512.731H829.998V508.794Z" fill="#CD08D1"/>
<path d="M867.568 513.429C867.568 517.722 866.762 520.962 865.148 523.149C863.549 525.323 861.108 526.41 857.827 526.41C854.601 526.41 852.167 525.351 850.526 523.231C848.899 521.099 848.065 517.947 848.024 513.777V508.609C848.024 504.316 848.824 501.097 850.424 498.95C852.037 496.804 854.491 495.73 857.786 495.73C861.054 495.73 863.487 496.776 865.087 498.868C866.7 500.96 867.527 504.091 867.568 508.261V513.429ZM862.585 507.851C862.585 505.048 862.202 502.997 861.437 501.698C860.671 500.386 859.454 499.729 857.786 499.729C856.159 499.729 854.963 500.352 854.197 501.596C853.432 502.826 853.028 504.754 852.987 507.379V514.146C852.987 516.936 853.377 519.014 854.156 520.381C854.936 521.748 856.159 522.432 857.827 522.432C859.427 522.432 860.609 521.803 861.375 520.545C862.141 519.273 862.544 517.291 862.585 514.598V507.851Z" fill="#CD08D1"/>
</g>
</g>
<g id="Determina el valor de &#194;&#171;x&#194;&#187;.">
<path d="M99.9707 86V60.4062H107.195C109.422 60.4062 111.391 60.8984 113.102 61.8828C114.812 62.8672 116.131 64.2676 117.057 66.084C117.994 67.9004 118.469 69.9863 118.48 72.3418V73.9766C118.48 76.3906 118.012 78.5059 117.074 80.3223C116.148 82.1387 114.818 83.5332 113.084 84.5059C111.361 85.4785 109.352 85.9766 107.055 86H99.9707ZM103.346 63.1836V83.2402H106.896C109.498 83.2402 111.52 82.4316 112.961 80.8145C114.414 79.1973 115.141 76.8945 115.141 73.9062V72.4121C115.141 69.5059 114.455 67.25 113.084 65.6445C111.725 64.0273 109.791 63.207 107.283 63.1836H103.346Z" fill="white"/>
<path d="M130.979 86.3516C128.4 86.3516 126.303 85.5078 124.686 83.8203C123.068 82.1211 122.26 79.8535 122.26 77.0176V76.4199C122.26 74.5332 122.617 72.8516 123.332 71.375C124.059 69.8867 125.066 68.7266 126.355 67.8945C127.656 67.0508 129.062 66.6289 130.574 66.6289C133.047 66.6289 134.969 67.4434 136.34 69.0723C137.711 70.7012 138.396 73.0332 138.396 76.0684V77.4219H125.512C125.559 79.2969 126.104 80.8145 127.146 81.9746C128.201 83.123 129.537 83.6973 131.154 83.6973C132.303 83.6973 133.275 83.4629 134.072 82.9941C134.869 82.5254 135.566 81.9043 136.164 81.1309L138.15 82.6777C136.557 85.127 134.166 86.3516 130.979 86.3516ZM130.574 69.3008C129.262 69.3008 128.16 69.7812 127.27 70.7422C126.379 71.6914 125.828 73.0273 125.617 74.75H135.145V74.5039C135.051 72.8516 134.605 71.5742 133.809 70.6719C133.012 69.7578 131.934 69.3008 130.574 69.3008Z" fill="white"/>
<path d="M146.588 62.375V66.9805H150.139V69.4941H146.588V81.2891C146.588 82.0508 146.746 82.625 147.062 83.0117C147.379 83.3867 147.918 83.5742 148.68 83.5742C149.055 83.5742 149.57 83.5039 150.227 83.3633V86C149.371 86.2344 148.539 86.3516 147.73 86.3516C146.277 86.3516 145.182 85.9121 144.443 85.0332C143.705 84.1543 143.336 82.9062 143.336 81.2891V69.4941H139.873V66.9805H143.336V62.375H146.588Z" fill="white"/>
<path d="M161.846 86.3516C159.268 86.3516 157.17 85.5078 155.553 83.8203C153.936 82.1211 153.127 79.8535 153.127 77.0176V76.4199C153.127 74.5332 153.484 72.8516 154.199 71.375C154.926 69.8867 155.934 68.7266 157.223 67.8945C158.523 67.0508 159.93 66.6289 161.441 66.6289C163.914 66.6289 165.836 67.4434 167.207 69.0723C168.578 70.7012 169.264 73.0332 169.264 76.0684V77.4219H156.379C156.426 79.2969 156.971 80.8145 158.014 81.9746C159.068 83.123 160.404 83.6973 162.021 83.6973C163.17 83.6973 164.143 83.4629 164.939 82.9941C165.736 82.5254 166.434 81.9043 167.031 81.1309L169.018 82.6777C167.424 85.127 165.033 86.3516 161.846 86.3516ZM161.441 69.3008C160.129 69.3008 159.027 69.7812 158.137 70.7422C157.246 71.6914 156.695 73.0273 156.484 74.75H166.012V74.5039C165.918 72.8516 165.473 71.5742 164.676 70.6719C163.879 69.7578 162.801 69.3008 161.441 69.3008Z" fill="white"/>
<path d="M182.236 69.8984C181.744 69.8164 181.211 69.7754 180.637 69.7754C178.504 69.7754 177.057 70.6836 176.295 72.5V86H173.043V66.9805H176.207L176.26 69.1777C177.326 67.4785 178.838 66.6289 180.795 66.6289C181.428 66.6289 181.908 66.7109 182.236 66.875V69.8984Z" fill="white"/>
<path d="M188.301 66.9805L188.389 69.0898C189.783 67.4492 191.664 66.6289 194.031 66.6289C196.691 66.6289 198.502 67.6484 199.463 69.6875C200.096 68.7734 200.916 68.0352 201.924 67.4727C202.943 66.9102 204.145 66.6289 205.527 66.6289C209.699 66.6289 211.82 68.8379 211.891 73.2559V86H208.639V73.4492C208.639 72.0898 208.328 71.0762 207.707 70.4082C207.086 69.7285 206.043 69.3887 204.578 69.3887C203.371 69.3887 202.369 69.752 201.572 70.4785C200.775 71.1934 200.312 72.1602 200.184 73.3789V86H196.914V73.5371C196.914 70.7715 195.561 69.3887 192.854 69.3887C190.721 69.3887 189.262 70.2969 188.477 72.1133V86H185.225V66.9805H188.301Z" fill="white"/>
<path d="M220.346 86H217.094V66.9805H220.346V86ZM216.83 61.9355C216.83 61.4082 216.988 60.9629 217.305 60.5996C217.633 60.2363 218.113 60.0547 218.746 60.0547C219.379 60.0547 219.859 60.2363 220.188 60.5996C220.516 60.9629 220.68 61.4082 220.68 61.9355C220.68 62.4629 220.516 62.9023 220.188 63.2539C219.859 63.6055 219.379 63.7812 218.746 63.7812C218.113 63.7812 217.633 63.6055 217.305 63.2539C216.988 62.9023 216.83 62.4629 216.83 61.9355Z" fill="white"/>
<path d="M228.643 66.9805L228.748 69.3711C230.201 67.543 232.1 66.6289 234.443 66.6289C238.463 66.6289 240.49 68.8965 240.525 73.4316V86H237.273V73.4141C237.262 72.043 236.945 71.0293 236.324 70.373C235.715 69.7168 234.76 69.3887 233.459 69.3887C232.404 69.3887 231.479 69.6699 230.682 70.2324C229.885 70.7949 229.264 71.5332 228.818 72.4473V86H225.566V66.9805H228.643Z" fill="white"/>
<path d="M257.172 86C256.984 85.625 256.832 84.957 256.715 83.9961C255.203 85.5664 253.398 86.3516 251.301 86.3516C249.426 86.3516 247.885 85.8242 246.678 84.7695C245.482 83.7031 244.885 82.3555 244.885 80.7266C244.885 78.7461 245.635 77.2109 247.135 76.1211C248.646 75.0195 250.768 74.4688 253.498 74.4688H256.662V72.9746C256.662 71.8379 256.322 70.9355 255.643 70.2676C254.963 69.5879 253.961 69.248 252.637 69.248C251.477 69.248 250.504 69.541 249.719 70.127C248.934 70.7129 248.541 71.4219 248.541 72.2539H245.271C245.271 71.3047 245.605 70.3906 246.273 69.5117C246.953 68.6211 247.867 67.918 249.016 67.4023C250.176 66.8867 251.447 66.6289 252.83 66.6289C255.021 66.6289 256.738 67.1797 257.98 68.2812C259.223 69.3711 259.867 70.877 259.914 72.7988V81.5527C259.914 83.2988 260.137 84.6875 260.582 85.7188V86H257.172ZM251.775 83.5215C252.795 83.5215 253.762 83.2578 254.676 82.7305C255.59 82.2031 256.252 81.5176 256.662 80.6738V76.7715H254.113C250.129 76.7715 248.137 77.9375 248.137 80.2695C248.137 81.2891 248.477 82.0859 249.156 82.6602C249.836 83.2344 250.709 83.5215 251.775 83.5215Z" fill="white"/>
<path d="M281.834 86.3516C279.256 86.3516 277.158 85.5078 275.541 83.8203C273.924 82.1211 273.115 79.8535 273.115 77.0176V76.4199C273.115 74.5332 273.473 72.8516 274.188 71.375C274.914 69.8867 275.922 68.7266 277.211 67.8945C278.512 67.0508 279.918 66.6289 281.43 66.6289C283.902 66.6289 285.824 67.4434 287.195 69.0723C288.566 70.7012 289.252 73.0332 289.252 76.0684V77.4219H276.367C276.414 79.2969 276.959 80.8145 278.002 81.9746C279.057 83.123 280.393 83.6973 282.01 83.6973C283.158 83.6973 284.131 83.4629 284.928 82.9941C285.725 82.5254 286.422 81.9043 287.02 81.1309L289.006 82.6777C287.412 85.127 285.021 86.3516 281.834 86.3516ZM281.43 69.3008C280.117 69.3008 279.016 69.7812 278.125 70.7422C277.234 71.6914 276.684 73.0273 276.473 74.75H286V74.5039C285.906 72.8516 285.461 71.5742 284.664 70.6719C283.867 69.7578 282.789 69.3008 281.43 69.3008Z" fill="white"/>
<path d="M296.564 86H293.312V59H296.564V86Z" fill="white"/>
<path d="M316.99 81.5879L321.701 66.9805H325.023L318.203 86H315.725L308.834 66.9805H312.156L316.99 81.5879Z" fill="white"/>
<path d="M339.613 86C339.426 85.625 339.273 84.957 339.156 83.9961C337.645 85.5664 335.84 86.3516 333.742 86.3516C331.867 86.3516 330.326 85.8242 329.119 84.7695C327.924 83.7031 327.326 82.3555 327.326 80.7266C327.326 78.7461 328.076 77.2109 329.576 76.1211C331.088 75.0195 333.209 74.4688 335.939 74.4688H339.104V72.9746C339.104 71.8379 338.764 70.9355 338.084 70.2676C337.404 69.5879 336.402 69.248 335.078 69.248C333.918 69.248 332.945 69.541 332.16 70.127C331.375 70.7129 330.982 71.4219 330.982 72.2539H327.713C327.713 71.3047 328.047 70.3906 328.715 69.5117C329.395 68.6211 330.309 67.918 331.457 67.4023C332.617 66.8867 333.889 66.6289 335.271 66.6289C337.463 66.6289 339.18 67.1797 340.422 68.2812C341.664 69.3711 342.309 70.877 342.355 72.7988V81.5527C342.355 83.2988 342.578 84.6875 343.023 85.7188V86H339.613ZM334.217 83.5215C335.236 83.5215 336.203 83.2578 337.117 82.7305C338.031 82.2031 338.693 81.5176 339.104 80.6738V76.7715H336.555C332.57 76.7715 330.578 77.9375 330.578 80.2695C330.578 81.2891 330.918 82.0859 331.598 82.6602C332.277 83.2344 333.15 83.5215 334.217 83.5215Z" fill="white"/>
<path d="M350.986 86H347.734V59H350.986V86Z" fill="white"/>
<path d="M355.346 76.3145C355.346 74.4512 355.709 72.7754 356.436 71.2871C357.174 69.7988 358.193 68.6504 359.494 67.8418C360.807 67.0332 362.301 66.6289 363.977 66.6289C366.566 66.6289 368.658 67.5254 370.252 69.3184C371.857 71.1113 372.66 73.4961 372.66 76.4727V76.7012C372.66 78.5527 372.303 80.2168 371.588 81.6934C370.885 83.1582 369.871 84.3008 368.547 85.1211C367.234 85.9414 365.723 86.3516 364.012 86.3516C361.434 86.3516 359.342 85.4551 357.736 83.6621C356.143 81.8691 355.346 79.4961 355.346 76.543V76.3145ZM358.615 76.7012C358.615 78.8105 359.102 80.5039 360.074 81.7812C361.059 83.0586 362.371 83.6973 364.012 83.6973C365.664 83.6973 366.977 83.0527 367.949 81.7637C368.922 80.4629 369.408 78.6465 369.408 76.3145C369.408 74.2285 368.91 72.541 367.914 71.252C366.93 69.9512 365.617 69.3008 363.977 69.3008C362.371 69.3008 361.076 69.9395 360.092 71.2168C359.107 72.4941 358.615 74.3223 358.615 76.7012Z" fill="white"/>
<path d="M385.932 69.8984C385.439 69.8164 384.906 69.7754 384.332 69.7754C382.199 69.7754 380.752 70.6836 379.99 72.5V86H376.738V66.9805H379.902L379.955 69.1777C381.021 67.4785 382.533 66.6289 384.49 66.6289C385.123 66.6289 385.604 66.7109 385.932 66.875V69.8984Z" fill="white"/>
<path d="M397.076 76.332C397.076 73.4141 397.768 71.0703 399.15 69.3008C400.533 67.5195 402.344 66.6289 404.582 66.6289C406.809 66.6289 408.572 67.3906 409.873 68.9141V59H413.125V86H410.137L409.979 83.9609C408.678 85.5547 406.867 86.3516 404.547 86.3516C402.344 86.3516 400.545 85.4492 399.15 83.6445C397.768 81.8398 397.076 79.4844 397.076 76.5781V76.332ZM400.328 76.7012C400.328 78.8574 400.773 80.5449 401.664 81.7637C402.555 82.9824 403.785 83.5918 405.355 83.5918C407.418 83.5918 408.924 82.666 409.873 80.8145V72.0781C408.9 70.2852 407.406 69.3887 405.391 69.3887C403.797 69.3887 402.555 70.0039 401.664 71.2344C400.773 72.4648 400.328 74.2871 400.328 76.7012Z" fill="white"/>
<path d="M426.08 86.3516C423.502 86.3516 421.404 85.5078 419.787 83.8203C418.17 82.1211 417.361 79.8535 417.361 77.0176V76.4199C417.361 74.5332 417.719 72.8516 418.434 71.375C419.16 69.8867 420.168 68.7266 421.457 67.8945C422.758 67.0508 424.164 66.6289 425.676 66.6289C428.148 66.6289 430.07 67.4434 431.441 69.0723C432.812 70.7012 433.498 73.0332 433.498 76.0684V77.4219H420.613C420.66 79.2969 421.205 80.8145 422.248 81.9746C423.303 83.123 424.639 83.6973 426.256 83.6973C427.404 83.6973 428.377 83.4629 429.174 82.9941C429.971 82.5254 430.668 81.9043 431.266 81.1309L433.252 82.6777C431.658 85.127 429.268 86.3516 426.08 86.3516ZM425.676 69.3008C424.363 69.3008 423.262 69.7812 422.371 70.7422C421.48 71.6914 420.93 73.0273 420.719 74.75H430.246V74.5039C430.152 72.8516 429.707 71.5742 428.91 70.6719C428.113 69.7578 427.035 69.3008 425.676 69.3008Z" fill="white"/>
<path d="M448.668 76.3672L453.203 83.3457H450.725L445.539 76.5254V76.1914L450.725 69.3535H453.203L448.668 76.3672ZM454.469 76.3672L459.004 83.3457H456.525L451.34 76.5254V76.1914L456.525 69.3535H459.004L454.469 76.3672Z" fill="white"/>
<path d="M469.498 73.9238L473.717 66.9805H477.514L471.291 76.3848L477.707 86H473.945L469.551 78.8809L465.156 86H461.377L467.793 76.3848L461.57 66.9805H465.332L469.498 73.9238Z" fill="white"/>
<path d="M482.805 69.3184L487.99 76.1562V76.4902L482.805 83.3281H480.309L484.844 76.332L480.309 69.3184H482.805ZM488.939 69.3184L494.125 76.1562V76.4902L488.939 83.3281H486.443L490.979 76.332L486.443 69.3184H488.939Z" fill="white"/>
<path d="M497.922 84.2949C497.922 83.7324 498.086 83.2637 498.414 82.8887C498.754 82.5137 499.258 82.3262 499.926 82.3262C500.594 82.3262 501.098 82.5137 501.438 82.8887C501.789 83.2637 501.965 83.7324 501.965 84.2949C501.965 84.834 501.789 85.2852 501.438 85.6484C501.098 86.0117 500.594 86.1934 499.926 86.1934C499.258 86.1934 498.754 86.0117 498.414 85.6484C498.086 85.2852 497.922 84.834 497.922 84.2949Z" fill="white"/>
</g>
<g id="491 (16) 20 111 ( 8 ) 23 37 ( x ) 73">
<path d="M352.26 151.017H356.797V154.408H352.26V162H348.082V154.408H333.19V151.96L347.835 129.297H352.26V151.017ZM337.907 151.017H348.082V134.979L347.588 135.878L337.907 151.017Z" fill="white"/>
<path d="M376.473 147.625C375.604 148.658 374.563 149.489 373.351 150.118C372.153 150.747 370.835 151.062 369.397 151.062C367.511 151.062 365.864 150.597 364.456 149.669C363.063 148.741 361.985 147.438 361.222 145.761C360.458 144.069 360.076 142.204 360.076 140.168C360.076 137.982 360.488 136.013 361.312 134.261C362.15 132.509 363.333 131.169 364.86 130.24C366.388 129.312 368.17 128.848 370.206 128.848C373.44 128.848 375.986 130.061 377.843 132.486C379.715 134.897 380.65 138.191 380.65 142.369V143.582C380.65 149.946 379.393 154.595 376.877 157.53C374.361 160.45 370.565 161.948 365.489 162.022H364.681V158.519H365.557C368.986 158.459 371.621 157.568 373.463 155.846C375.305 154.109 376.308 151.368 376.473 147.625ZM370.071 147.625C371.464 147.625 372.744 147.198 373.912 146.345C375.095 145.491 375.956 144.436 376.495 143.178V141.516C376.495 138.79 375.904 136.574 374.721 134.867C373.538 133.16 372.04 132.307 370.229 132.307C368.402 132.307 366.934 133.01 365.826 134.418C364.718 135.811 364.164 137.652 364.164 139.943C364.164 142.174 364.696 144.016 365.759 145.469C366.837 146.906 368.274 147.625 370.071 147.625Z" fill="white"/>
<path d="M400.034 162H395.856V134.306L387.479 137.383V133.609L399.383 129.14H400.034V162Z" fill="white"/>
<path d="M446.708 148.726C446.708 145.341 447.157 142.092 448.056 138.978C448.969 135.863 450.324 133.033 452.121 130.487C453.918 127.942 455.782 126.145 457.714 125.097L458.567 127.837C456.381 129.514 454.584 132.075 453.177 135.519C451.784 138.963 451.021 142.818 450.886 147.086L450.863 148.995C450.863 154.775 451.919 159.791 454.03 164.044C455.303 166.59 456.815 168.581 458.567 170.019L457.714 172.557C455.722 171.449 453.821 169.592 452.009 166.986C448.475 161.895 446.708 155.808 446.708 148.726Z" fill="white"/>
<path d="M475.817 162H471.64V134.306L463.262 137.383V133.609L475.166 129.14H475.817V162Z" fill="white"/>
<path d="M504.298 129.274V132.801H503.534C500.3 132.861 497.724 133.819 495.808 135.676C493.891 137.533 492.783 140.146 492.483 143.515C494.205 141.538 496.556 140.55 499.536 140.55C502.381 140.55 504.65 141.553 506.342 143.56C508.049 145.566 508.902 148.157 508.902 151.331C508.902 154.7 507.981 157.396 506.14 159.417C504.313 161.438 501.857 162.449 498.772 162.449C495.643 162.449 493.105 161.251 491.158 158.855C489.212 156.445 488.238 153.345 488.238 149.557V147.962C488.238 141.942 489.519 137.345 492.079 134.171C494.655 130.981 498.48 129.349 503.557 129.274H504.298ZM498.84 144.009C497.417 144.009 496.107 144.436 494.909 145.289C493.711 146.143 492.88 147.213 492.416 148.501V150.028C492.416 152.724 493.022 154.895 494.235 156.542C495.448 158.189 496.961 159.013 498.772 159.013C500.644 159.013 502.112 158.324 503.175 156.946C504.253 155.569 504.792 153.764 504.792 151.533C504.792 149.287 504.245 147.475 503.152 146.098C502.074 144.705 500.637 144.009 498.84 144.009Z" fill="white"/>
<path d="M523.839 148.95C523.839 152.289 523.397 155.494 522.514 158.563C521.645 161.618 520.305 164.441 518.493 167.031C516.696 169.622 514.81 171.464 512.833 172.557L511.957 170.019C514.263 168.252 516.112 165.511 517.505 161.798C518.912 158.069 519.631 153.937 519.661 149.399V148.681C519.661 145.536 519.332 142.616 518.673 139.921C518.014 137.211 517.093 134.785 515.91 132.644C514.742 130.502 513.424 128.833 511.957 127.635L512.833 125.097C514.81 126.19 516.689 128.017 518.471 130.577C520.268 133.138 521.608 135.96 522.491 139.045C523.39 142.13 523.839 145.431 523.839 148.95Z" fill="white"/>
<path d="M608.292 162H586.864V159.013L598.185 146.435C599.862 144.533 601.015 142.991 601.644 141.808C602.287 140.61 602.609 139.374 602.609 138.102C602.609 136.395 602.093 134.994 601.06 133.901C600.026 132.808 598.649 132.262 596.927 132.262C594.86 132.262 593.251 132.853 592.098 134.036C590.96 135.204 590.391 136.836 590.391 138.933H586.235C586.235 135.923 587.201 133.49 589.133 131.633C591.079 129.776 593.677 128.848 596.927 128.848C599.966 128.848 602.37 129.649 604.137 131.251C605.904 132.838 606.787 134.957 606.787 137.607C606.787 140.827 604.736 144.66 600.633 149.107L591.873 158.608H608.292V162Z" fill="white"/>
<path d="M633.201 148.052C633.201 152.918 632.37 156.535 630.708 158.9C629.046 161.266 626.448 162.449 622.914 162.449C619.425 162.449 616.842 161.296 615.165 158.99C613.488 156.669 612.619 153.21 612.56 148.613V143.065C612.56 138.259 613.391 134.688 615.053 132.352C616.715 130.016 619.32 128.848 622.869 128.848C626.388 128.848 628.979 129.978 630.641 132.239C632.303 134.485 633.156 137.959 633.201 142.661V148.052ZM629.046 142.369C629.046 138.85 628.552 136.29 627.563 134.688C626.575 133.07 625.01 132.262 622.869 132.262C620.743 132.262 619.193 133.063 618.22 134.665C617.246 136.267 616.745 138.73 616.715 142.055V148.703C616.715 152.237 617.224 154.85 618.242 156.542C619.275 158.219 620.833 159.058 622.914 159.058C624.965 159.058 626.485 158.264 627.474 156.677C628.477 155.09 629.001 152.589 629.046 149.175V142.369Z" fill="white"/>
<path d="M348.374 239H344.196V211.306L335.818 214.383V210.609L347.723 206.14H348.374V239Z" fill="white"/>
<path d="M374.204 239H370.026V211.306L361.648 214.383V210.609L373.553 206.14H374.204V239Z" fill="white"/>
<path d="M400.034 239H395.856V211.306L387.479 214.383V210.609L399.383 206.14H400.034V239Z" fill="white"/>
<path d="M446.708 225.726C446.708 222.341 447.157 219.092 448.056 215.978C448.969 212.863 450.324 210.033 452.121 207.487C453.918 204.942 455.782 203.145 457.714 202.097L458.567 204.837C456.381 206.514 454.584 209.075 453.177 212.519C451.784 215.963 451.021 219.818 450.886 224.086L450.863 225.995C450.863 231.775 451.919 236.791 454.03 241.044C455.303 243.59 456.815 245.581 458.567 247.019L457.714 249.557C455.722 248.449 453.821 246.592 452.009 243.986C448.475 238.895 446.708 232.808 446.708 225.726Z" fill="white"/>
<path d="M493.404 214.832C493.404 216.464 492.97 217.917 492.102 219.189C491.248 220.462 490.088 221.458 488.62 222.177C490.327 222.91 491.675 223.981 492.663 225.389C493.666 226.796 494.168 228.391 494.168 230.173C494.168 233.003 493.21 235.257 491.293 236.934C489.391 238.611 486.883 239.449 483.769 239.449C480.624 239.449 478.101 238.611 476.199 236.934C474.312 235.242 473.369 232.988 473.369 230.173C473.369 228.406 473.848 226.811 474.807 225.389C475.78 223.966 477.12 222.888 478.827 222.154C477.375 221.436 476.229 220.44 475.391 219.167C474.552 217.894 474.133 216.449 474.133 214.832C474.133 212.077 475.016 209.891 476.783 208.273C478.55 206.656 480.879 205.848 483.769 205.848C486.644 205.848 488.965 206.656 490.731 208.273C492.513 209.891 493.404 212.077 493.404 214.832ZM490.013 230.083C490.013 228.256 489.429 226.766 488.261 225.613C487.108 224.46 485.595 223.884 483.724 223.884C481.852 223.884 480.347 224.453 479.209 225.591C478.086 226.729 477.524 228.226 477.524 230.083C477.524 231.94 478.071 233.4 479.164 234.463C480.272 235.526 481.807 236.058 483.769 236.058C485.715 236.058 487.243 235.526 488.351 234.463C489.459 233.385 490.013 231.925 490.013 230.083ZM483.769 209.262C482.136 209.262 480.811 209.771 479.793 210.789C478.79 211.792 478.288 213.162 478.288 214.899C478.288 216.562 478.782 217.909 479.771 218.942C480.774 219.961 482.106 220.47 483.769 220.47C485.431 220.47 486.756 219.961 487.744 218.942C488.747 217.909 489.249 216.562 489.249 214.899C489.249 213.237 488.732 211.882 487.699 210.834C486.666 209.786 485.356 209.262 483.769 209.262Z" fill="white"/>
<path d="M520.829 225.95C520.829 229.289 520.387 232.494 519.504 235.563C518.635 238.618 517.295 241.441 515.483 244.031C513.687 246.622 511.8 248.464 509.823 249.557L508.947 247.019C511.253 245.252 513.103 242.511 514.495 238.798C515.903 235.069 516.621 230.937 516.651 226.399V225.681C516.651 222.536 516.322 219.616 515.663 216.921C515.004 214.211 514.083 211.785 512.9 209.644C511.732 207.502 510.415 205.833 508.947 204.635L509.823 202.097C511.8 203.19 513.679 205.017 515.461 207.577C517.258 210.138 518.598 212.96 519.481 216.045C520.38 219.13 520.829 222.431 520.829 225.95Z" fill="white"/>
<path d="M605.282 239H583.854V236.013L595.175 223.435C596.852 221.533 598.005 219.991 598.634 218.808C599.278 217.61 599.6 216.374 599.6 215.102C599.6 213.395 599.083 211.994 598.05 210.901C597.017 209.808 595.639 209.262 593.917 209.262C591.851 209.262 590.241 209.853 589.088 211.036C587.95 212.204 587.381 213.836 587.381 215.933H583.226C583.226 212.923 584.191 210.49 586.123 208.633C588.07 206.776 590.668 205.848 593.917 205.848C596.957 205.848 599.36 206.649 601.127 208.251C602.894 209.838 603.777 211.957 603.777 214.607C603.777 217.827 601.726 221.66 597.623 226.107L588.863 235.608H605.282V239Z" fill="white"/>
<path d="M615.727 220.627H618.849C620.81 220.597 622.353 220.08 623.476 219.077C624.599 218.074 625.16 216.719 625.16 215.012C625.16 211.178 623.251 209.262 619.433 209.262C617.636 209.262 616.198 209.778 615.12 210.812C614.057 211.83 613.525 213.185 613.525 214.877H609.37C609.37 212.286 610.313 210.138 612.2 208.431C614.102 206.709 616.513 205.848 619.433 205.848C622.517 205.848 624.936 206.664 626.688 208.296C628.439 209.928 629.315 212.197 629.315 215.102C629.315 216.524 628.851 217.902 627.923 219.234C627.009 220.567 625.759 221.563 624.172 222.222C625.969 222.791 627.354 223.734 628.327 225.052C629.315 226.369 629.81 227.979 629.81 229.881C629.81 232.816 628.851 235.144 626.935 236.866C625.018 238.588 622.525 239.449 619.455 239.449C616.385 239.449 613.885 238.618 611.953 236.956C610.036 235.294 609.078 233.1 609.078 230.375H613.256C613.256 232.097 613.817 233.475 614.94 234.508C616.063 235.541 617.568 236.058 619.455 236.058C621.462 236.058 622.996 235.534 624.06 234.485C625.123 233.437 625.654 231.932 625.654 229.971C625.654 228.069 625.07 226.609 623.902 225.591C622.734 224.573 621.05 224.049 618.849 224.019H615.727V220.627Z" fill="white"/>
<path d="M340.76 297.627H343.882C345.843 297.597 347.386 297.08 348.509 296.077C349.632 295.074 350.193 293.719 350.193 292.012C350.193 288.178 348.284 286.262 344.466 286.262C342.669 286.262 341.231 286.778 340.153 287.812C339.09 288.83 338.559 290.185 338.559 291.877H334.403C334.403 289.286 335.347 287.138 337.233 285.431C339.135 283.709 341.546 282.848 344.466 282.848C347.55 282.848 349.969 283.664 351.721 285.296C353.473 286.928 354.349 289.197 354.349 292.102C354.349 293.524 353.884 294.902 352.956 296.234C352.043 297.567 350.792 298.563 349.205 299.222C351.002 299.791 352.387 300.734 353.36 302.052C354.349 303.369 354.843 304.979 354.843 306.881C354.843 309.816 353.884 312.144 351.968 313.866C350.051 315.588 347.558 316.449 344.488 316.449C341.419 316.449 338.918 315.618 336.986 313.956C335.07 312.294 334.111 310.1 334.111 307.375H338.289C338.289 309.097 338.851 310.475 339.974 311.508C341.097 312.541 342.602 313.058 344.488 313.058C346.495 313.058 348.03 312.534 349.093 311.485C350.156 310.437 350.688 308.932 350.688 306.971C350.688 305.069 350.104 303.609 348.936 302.591C347.768 301.573 346.083 301.049 343.882 301.019H340.76V297.627Z" fill="white"/>
<path d="M381.661 285.633L368.117 316H363.76L377.259 286.711H359.56V283.297H381.661V285.633Z" fill="white"/>
<path d="M443.698 302.726C443.698 299.341 444.147 296.092 445.046 292.978C445.959 289.863 447.314 287.033 449.111 284.487C450.908 281.942 452.772 280.145 454.704 279.097L455.558 281.837C453.371 283.514 451.575 286.075 450.167 289.519C448.774 292.963 448.011 296.818 447.876 301.086L447.854 302.995C447.854 308.775 448.909 313.791 451.021 318.044C452.293 320.59 453.806 322.581 455.558 324.019L454.704 326.557C452.713 325.449 450.811 323.592 448.999 320.986C445.465 315.895 443.698 309.808 443.698 302.726Z" fill="white"/>
<path d="M479.142 300.569L484.532 291.697H489.384L481.433 303.714L489.631 316H484.824L479.209 306.903L473.594 316H468.765L476.963 303.714L469.012 291.697H473.818L479.142 300.569Z" fill="white"/>
<path d="M514.81 302.95C514.81 306.289 514.368 309.494 513.484 312.563C512.616 315.618 511.276 318.441 509.464 321.031C507.667 323.622 505.78 325.464 503.804 326.557L502.928 324.019C505.234 322.252 507.083 319.511 508.476 315.798C509.883 312.069 510.602 307.937 510.632 303.399V302.681C510.632 299.536 510.302 296.616 509.644 293.921C508.985 291.211 508.064 288.785 506.881 286.644C505.713 284.502 504.395 282.833 502.928 281.635L503.804 279.097C505.78 280.19 507.66 282.017 509.441 284.577C511.238 287.138 512.578 289.96 513.462 293.045C514.36 296.13 514.81 299.431 514.81 302.95Z" fill="white"/>
<path d="M610.358 285.633L596.814 316H592.457L605.956 286.711H588.257V283.297H610.358V285.633Z" fill="white"/>
<path d="M621.117 297.627H624.239C626.201 297.597 627.743 297.08 628.866 296.077C629.989 295.074 630.551 293.719 630.551 292.012C630.551 288.178 628.642 286.262 624.823 286.262C623.026 286.262 621.589 286.778 620.511 287.812C619.448 288.83 618.916 290.185 618.916 291.877H614.761C614.761 289.286 615.704 287.138 617.591 285.431C619.493 283.709 621.903 282.848 624.823 282.848C627.908 282.848 630.326 283.664 632.078 285.296C633.83 286.928 634.706 289.197 634.706 292.102C634.706 293.524 634.242 294.902 633.313 296.234C632.4 297.567 631.15 298.563 629.562 299.222C631.359 299.791 632.744 300.734 633.718 302.052C634.706 303.369 635.2 304.979 635.2 306.881C635.2 309.816 634.242 312.144 632.325 313.866C630.409 315.588 627.915 316.449 624.846 316.449C621.776 316.449 619.275 315.618 617.344 313.956C615.427 312.294 614.469 310.1 614.469 307.375H618.646C618.646 309.097 619.208 310.475 620.331 311.508C621.454 312.541 622.959 313.058 624.846 313.058C626.852 313.058 628.387 312.534 629.45 311.485C630.513 310.437 631.045 308.932 631.045 306.971C631.045 305.069 630.461 303.609 629.293 302.591C628.125 301.573 626.44 301.049 624.239 301.019H621.117V297.627Z" fill="white"/>
</g>
<g id="flecha">
<path id="Rectangle 2" d="M394.2 410.008L409.482 418.133L367.5 497.089L352.219 488.963L394.2 410.008Z" fill="#1043F5"/>
<path id="Rectangle 1_2" d="M336 422.904L426 373V430.692L381 413.096L336 422.904Z" fill="#1043F5"/>
<path id="Rectangle 3" d="M340.039 492.21L355.666 465.143L372.936 464.565L357.309 491.632L340.039 492.21Z" fill="#1043F5"/>
<path id="Rectangle 4_2" d="M366.089 506.845L381.717 479.778L372.926 464.154L357.299 491.221L366.089 506.845Z" fill="#1043F5"/>
</g>
</g>
</svg>
