<svg viewBox="0 0 975 626" fill="none" xmlns="http://www.w3.org/2000/svg">
<g id="0119108">
<g id="Group 8">
<path id="Rectangle 1" d="M63 50.4762C63 24.1769 84.3794 2.85718 110.752 2.85718H934V332.381C934 358.68 912.62 380 886.247 380H63V50.4762Z" fill="#02071A"/>
<path id="Rectangle 1 (Stroke)" fill-rule="evenodd" clip-rule="evenodd" d="M929.224 7.61908H110.752C87.0167 7.61908 67.7752 26.8069 67.7752 50.4762V375.238H886.247C909.983 375.238 929.224 356.05 929.224 332.381V7.61908ZM110.752 2.85718C84.3794 2.85718 63 24.1769 63 50.4762V380H886.247C912.62 380 934 358.68 934 332.381V2.85718H110.752Z" fill="#CD08D1"/>
<path id="Rectangle 14" d="M114.716 2.92611C140.256 -3.65764 934 2.92611 934 2.92611V31.4286C934 31.4286 101.202 20.9524 71.5954 31.4286C80.8075 16.3113 89.1754 9.50987 114.716 2.92611Z" fill="#CD08D1"/>
<path id="Rectangle 15" d="M905.349 2.85718H934V333.333C930.483 355.76 923.194 364.003 905.349 374.762C910.601 357.143 905.349 2.85718 905.349 2.85718Z" fill="#CD08D1"/>
</g>
<g id="claves01">
<path id="Rectangle 4" d="M39 412H255.745L289 452L255.745 492H39V412Z" fill="#CD08D1" fill-opacity="0.1"/>
<path id="Rectangle 4 (Stroke)" fill-rule="evenodd" clip-rule="evenodd" d="M254.338 415H42V489H254.338L285.099 452L254.338 415ZM255.745 412H39V492H255.745L289 452L255.745 412Z" fill="#CD08D1"/>
<path id="Rectangle 5" d="M43 522H259.745L293 562L259.745 602H43V522Z" fill="#CD08D1" fill-opacity="0.1"/>
<path id="Rectangle 5 (Stroke)" fill-rule="evenodd" clip-rule="evenodd" d="M258.338 525H46V599H258.338L289.099 562L258.338 525ZM259.745 522H43V602H259.745L293 562L259.745 522Z" fill="#CD08D1"/>
<path id="Rectangle 6" d="M379 409H595.745L629 449L595.745 489H379V409Z" fill="#CD08D1" fill-opacity="0.1"/>
<path id="Rectangle 6 (Stroke)" fill-rule="evenodd" clip-rule="evenodd" d="M594.338 412H382V486H594.338L625.099 449L594.338 412ZM595.745 409H379V489H595.745L629 449L595.745 409Z" fill="#CD08D1"/>
<path id="Rectangle 7" d="M382 519H598.745L632 559L598.745 599H382V519Z" fill="#CD08D1" fill-opacity="0.1"/>
<path id="Rectangle 7 (Stroke)" fill-rule="evenodd" clip-rule="evenodd" d="M597.338 522H385V596H597.338L628.099 559L597.338 522ZM598.745 519H382V599H598.745L632 559L598.745 519Z" fill="#CD08D1"/>
<path id="Rectangle 8" d="M725 468H941.745L975 508L941.745 548H725V468Z" fill="#CD08D1" fill-opacity="0.1"/>
<path id="Rectangle 8 (Stroke)" fill-rule="evenodd" clip-rule="evenodd" d="M940.338 471H728V545H940.338L971.099 508L940.338 471ZM941.745 468H725V548H941.745L975 508L941.745 468Z" fill="#CD08D1"/>
<path id="Ellipse 1" d="M80 452C80 474.091 62.0914 492 40 492C17.9086 492 0 474.091 0 452C0 429.909 17.9086 412 40 412C62.0914 412 80 429.909 80 452Z" fill="#CD08D1"/>
<path id="Ellipse 2" d="M84 562C84 584.091 66.0914 602 44 602C21.9086 602 4 584.091 4 562C4 539.909 21.9086 522 44 522C66.0914 522 84 539.909 84 562Z" fill="#CD08D1"/>
<path id="Ellipse 3" d="M420 449C420 471.091 402.091 489 380 489C357.909 489 340 471.091 340 449C340 426.909 357.909 409 380 409C402.091 409 420 426.909 420 449Z" fill="#CD08D1"/>
<path id="Ellipse 4" d="M423 559C423 581.091 405.091 599 383 599C360.909 599 343 581.091 343 559C343 536.909 360.909 519 383 519C405.091 519 423 536.909 423 559Z" fill="#CD08D1"/>
<path id="Ellipse 5" d="M766 508C766 530.091 748.091 548 726 548C703.909 548 686 530.091 686 508C686 485.909 703.909 468 726 468C748.091 468 766 485.909 766 508Z" fill="#CD08D1"/>
<path id="A" d="M48.0938 462.406H30.4688L26.7812 473H18.5625L35.75 427.5H42.8438L60.0625 473H51.8125L48.0938 462.406ZM32.6875 456.031H45.875L39.2812 437.156L32.6875 456.031Z" fill="white"/>
<path id="B" d="M27.625 578V532.5H43.2188C48.3646 532.5 52.2812 533.531 54.9688 535.594C57.6562 537.656 59 540.729 59 544.812C59 546.896 58.4375 548.771 57.3125 550.438C56.1875 552.104 54.5417 553.396 52.375 554.312C54.8333 554.979 56.7292 556.24 58.0625 558.094C59.4167 559.927 60.0938 562.135 60.0938 564.719C60.0938 568.99 58.7188 572.271 55.9688 574.562C53.2396 576.854 49.3229 578 44.2188 578H27.625ZM35.5312 557.469V571.688H44.3125C46.7917 571.688 48.7292 571.073 50.125 569.844C51.5208 568.615 52.2188 566.906 52.2188 564.719C52.2188 559.99 49.8021 557.573 44.9688 557.469H35.5312ZM35.5312 551.656H43.2812C45.7396 551.656 47.6562 551.104 49.0312 550C50.4271 548.875 51.125 547.292 51.125 545.25C51.125 543 50.4792 541.375 49.1875 540.375C47.9167 539.375 45.9271 538.875 43.2188 538.875H35.5312V551.656Z" fill="white"/>
<path id="C" d="M397.344 456.188C396.885 461.042 395.094 464.833 391.969 467.562C388.844 470.271 384.688 471.625 379.5 471.625C375.875 471.625 372.677 470.771 369.906 469.062C367.156 467.333 365.031 464.885 363.531 461.719C362.031 458.552 361.25 454.875 361.188 450.688V446.438C361.188 442.146 361.948 438.365 363.469 435.094C364.99 431.823 367.167 429.302 370 427.531C372.854 425.76 376.146 424.875 379.875 424.875C384.896 424.875 388.938 426.24 392 428.969C395.062 431.698 396.844 435.552 397.344 440.531H389.469C389.094 437.26 388.135 434.906 386.594 433.469C385.073 432.01 382.833 431.281 379.875 431.281C376.438 431.281 373.792 432.542 371.938 435.062C370.104 437.562 369.167 441.24 369.125 446.094V450.125C369.125 455.042 370 458.792 371.75 461.375C373.521 463.958 376.104 465.25 379.5 465.25C382.604 465.25 384.938 464.552 386.5 463.156C388.062 461.76 389.052 459.438 389.469 456.188H397.344Z" fill="white"/>
<path id="D" d="M365.625 581V535.5H379.062C383.083 535.5 386.646 536.396 389.75 538.188C392.875 539.979 395.292 542.521 397 545.812C398.708 549.104 399.562 552.875 399.562 557.125V559.406C399.562 563.719 398.698 567.51 396.969 570.781C395.26 574.052 392.812 576.573 389.625 578.344C386.458 580.115 382.823 581 378.719 581H365.625ZM373.531 541.875V574.688H378.688C382.833 574.688 386.01 573.396 388.219 570.812C390.448 568.208 391.583 564.479 391.625 559.625V557.094C391.625 552.156 390.552 548.385 388.406 545.781C386.26 543.177 383.146 541.875 379.062 541.875H373.531Z" fill="white"/>
<path id="E" d="M735.219 509.688H716.531V523.688H738.375V530H708.625V484.5H738.156V490.875H716.531V503.438H735.219V509.688Z" fill="white"/>
<path id="1" d="M135.729 466H130.767V442.026L123.445 444.528V440.324L135.094 436.038H135.729V466Z" fill="#CD08D1"/>
<path id="5" d="M123.568 566.193L125.188 551.141H141.226V555.447H129.331L128.511 562.584C129.892 561.791 131.45 561.395 133.187 561.395C136.03 561.395 138.238 562.304 139.811 564.122C141.396 565.94 142.189 568.388 142.189 571.464C142.189 574.499 141.314 576.919 139.564 578.724C137.814 580.515 135.415 581.41 132.366 581.41C129.632 581.41 127.362 580.638 125.558 579.093C123.767 577.534 122.796 575.483 122.646 572.94H127.465C127.656 574.39 128.176 575.504 129.023 576.283C129.871 577.049 130.979 577.432 132.346 577.432C133.877 577.432 135.066 576.885 135.914 575.791C136.775 574.697 137.206 573.207 137.206 571.32C137.206 569.502 136.734 568.066 135.791 567.014C134.848 565.947 133.549 565.414 131.895 565.414C130.992 565.414 130.227 565.537 129.598 565.783C128.969 566.016 128.285 566.48 127.547 567.178L123.568 566.193Z" fill="#CD08D1"/>
<path id="2" d="M498.312 463H478.235V459.575L488.182 448.727C489.617 447.127 490.636 445.794 491.237 444.728C491.853 443.647 492.16 442.567 492.16 441.487C492.16 440.065 491.757 438.917 490.95 438.042C490.157 437.167 489.084 436.729 487.73 436.729C486.117 436.729 484.866 437.222 483.978 438.206C483.089 439.19 482.645 440.537 482.645 442.246H477.661C477.661 440.428 478.071 438.794 478.892 437.345C479.726 435.882 480.908 434.747 482.439 433.94C483.984 433.134 485.762 432.73 487.771 432.73C490.67 432.73 492.953 433.462 494.621 434.925C496.303 436.374 497.144 438.384 497.144 440.954C497.144 442.444 496.72 444.01 495.872 445.65C495.038 447.277 493.664 449.13 491.75 451.208L484.449 459.021H498.312V463Z" fill="#CD08D1"/>
<path id="0" d="M497.697 559.429C497.697 563.722 496.891 566.962 495.277 569.149C493.678 571.323 491.237 572.41 487.956 572.41C484.729 572.41 482.296 571.351 480.655 569.231C479.028 567.099 478.194 563.947 478.153 559.777V554.609C478.153 550.316 478.953 547.097 480.553 544.95C482.166 542.804 484.62 541.73 487.915 541.73C491.183 541.73 493.616 542.776 495.216 544.868C496.829 546.96 497.656 550.091 497.697 554.261V559.429ZM492.714 553.851C492.714 551.048 492.331 548.997 491.565 547.698C490.8 546.386 489.583 545.729 487.915 545.729C486.288 545.729 485.092 546.352 484.326 547.596C483.561 548.826 483.157 550.754 483.116 553.379V560.146C483.116 562.936 483.506 565.014 484.285 566.381C485.064 567.748 486.288 568.432 487.956 568.432C489.556 568.432 490.738 567.803 491.504 566.545C492.27 565.273 492.673 563.291 492.714 560.598V553.851Z" fill="#CD08D1"/>
<path id="3" d="M829.998 508.794H833.033C834.564 508.78 835.774 508.384 836.663 507.604C837.565 506.825 838.017 505.697 838.017 504.221C838.017 502.799 837.641 501.698 836.889 500.919C836.15 500.126 835.016 499.729 833.484 499.729C832.145 499.729 831.044 500.119 830.183 500.898C829.321 501.664 828.891 502.669 828.891 503.913H823.907C823.907 502.382 824.311 500.987 825.117 499.729C825.938 498.472 827.072 497.494 828.521 496.797C829.984 496.086 831.618 495.73 833.423 495.73C836.403 495.73 838.741 496.482 840.437 497.986C842.146 499.477 843 501.555 843 504.221C843 505.561 842.569 506.825 841.708 508.015C840.86 509.19 839.76 510.079 838.406 510.681C840.047 511.241 841.291 512.123 842.139 513.326C843 514.529 843.431 515.965 843.431 517.633C843.431 520.312 842.508 522.445 840.662 524.031C838.83 525.617 836.417 526.41 833.423 526.41C830.552 526.41 828.2 525.645 826.368 524.113C824.536 522.582 823.62 520.545 823.62 518.002H828.604C828.604 519.314 829.041 520.381 829.916 521.201C830.805 522.021 831.994 522.432 833.484 522.432C835.029 522.432 836.246 522.021 837.135 521.201C838.023 520.381 838.468 519.191 838.468 517.633C838.468 516.061 838.003 514.851 837.073 514.003C836.144 513.155 834.763 512.731 832.931 512.731H829.998V508.794Z" fill="#CD08D1"/>
</g>
<g id="Calcula el valor de &#194;&#171;x&#194;&#187;.">
<path d="M118.797 77.8789C118.48 80.5859 117.479 82.6777 115.791 84.1543C114.115 85.6191 111.883 86.3516 109.094 86.3516C106.07 86.3516 103.645 85.2676 101.816 83.0996C100 80.9316 99.0918 78.0312 99.0918 74.3984V71.9375C99.0918 69.5586 99.5137 67.4668 100.357 65.6621C101.213 63.8574 102.42 62.4746 103.979 61.5137C105.537 60.541 107.342 60.0547 109.393 60.0547C112.111 60.0547 114.291 60.8164 115.932 62.3398C117.572 63.8516 118.527 65.9492 118.797 68.6328H115.404C115.111 66.5938 114.473 65.1172 113.488 64.2031C112.516 63.2891 111.15 62.832 109.393 62.832C107.236 62.832 105.543 63.6289 104.312 65.2227C103.094 66.8164 102.484 69.084 102.484 72.0254V74.5039C102.484 77.2812 103.064 79.4902 104.225 81.1309C105.385 82.7715 107.008 83.5918 109.094 83.5918C110.969 83.5918 112.404 83.1699 113.4 82.3262C114.408 81.4707 115.076 79.9883 115.404 77.8789H118.797Z" fill="white"/>
<path d="M134.652 86C134.465 85.625 134.312 84.957 134.195 83.9961C132.684 85.5664 130.879 86.3516 128.781 86.3516C126.906 86.3516 125.365 85.8242 124.158 84.7695C122.963 83.7031 122.365 82.3555 122.365 80.7266C122.365 78.7461 123.115 77.2109 124.615 76.1211C126.127 75.0195 128.248 74.4688 130.979 74.4688H134.143V72.9746C134.143 71.8379 133.803 70.9355 133.123 70.2676C132.443 69.5879 131.441 69.248 130.117 69.248C128.957 69.248 127.984 69.541 127.199 70.127C126.414 70.7129 126.021 71.4219 126.021 72.2539H122.752C122.752 71.3047 123.086 70.3906 123.754 69.5117C124.434 68.6211 125.348 67.918 126.496 67.4023C127.656 66.8867 128.928 66.6289 130.311 66.6289C132.502 66.6289 134.219 67.1797 135.461 68.2812C136.703 69.3711 137.348 70.877 137.395 72.7988V81.5527C137.395 83.2988 137.617 84.6875 138.062 85.7188V86H134.652ZM129.256 83.5215C130.275 83.5215 131.242 83.2578 132.156 82.7305C133.07 82.2031 133.732 81.5176 134.143 80.6738V76.7715H131.594C127.609 76.7715 125.617 77.9375 125.617 80.2695C125.617 81.2891 125.957 82.0859 126.637 82.6602C127.316 83.2344 128.189 83.5215 129.256 83.5215Z" fill="white"/>
<path d="M146.025 86H142.773V59H146.025V86Z" fill="white"/>
<path d="M158.875 83.6973C160.035 83.6973 161.049 83.3457 161.916 82.6426C162.783 81.9395 163.264 81.0605 163.357 80.0059H166.434C166.375 81.0957 166 82.1328 165.309 83.1172C164.617 84.1016 163.691 84.8867 162.531 85.4727C161.383 86.0586 160.164 86.3516 158.875 86.3516C156.285 86.3516 154.223 85.4902 152.688 83.7676C151.164 82.0332 150.402 79.666 150.402 76.666V76.1211C150.402 74.2695 150.742 72.623 151.422 71.1816C152.102 69.7402 153.074 68.6211 154.34 67.8242C155.617 67.0273 157.123 66.6289 158.857 66.6289C160.99 66.6289 162.76 67.2676 164.166 68.5449C165.584 69.8223 166.34 71.4805 166.434 73.5195H163.357C163.264 72.2891 162.795 71.2812 161.951 70.4961C161.119 69.6992 160.088 69.3008 158.857 69.3008C157.205 69.3008 155.922 69.8984 155.008 71.0938C154.105 72.2773 153.654 73.9941 153.654 76.2441V76.8594C153.654 79.0508 154.105 80.7383 155.008 81.9219C155.91 83.1055 157.199 83.6973 158.875 83.6973Z" fill="white"/>
<path d="M181.832 84.1191C180.566 85.6074 178.709 86.3516 176.26 86.3516C174.232 86.3516 172.686 85.7656 171.619 84.5938C170.564 83.4102 170.031 81.6641 170.02 79.3555V66.9805H173.271V79.2676C173.271 82.1504 174.443 83.5918 176.787 83.5918C179.271 83.5918 180.924 82.666 181.744 80.8145V66.9805H184.996V86H181.902L181.832 84.1191Z" fill="white"/>
<path d="M193.486 86H190.234V59H193.486V86Z" fill="white"/>
<path d="M210.449 86C210.262 85.625 210.109 84.957 209.992 83.9961C208.48 85.5664 206.676 86.3516 204.578 86.3516C202.703 86.3516 201.162 85.8242 199.955 84.7695C198.76 83.7031 198.162 82.3555 198.162 80.7266C198.162 78.7461 198.912 77.2109 200.412 76.1211C201.924 75.0195 204.045 74.4688 206.775 74.4688H209.939V72.9746C209.939 71.8379 209.6 70.9355 208.92 70.2676C208.24 69.5879 207.238 69.248 205.914 69.248C204.754 69.248 203.781 69.541 202.996 70.127C202.211 70.7129 201.818 71.4219 201.818 72.2539H198.549C198.549 71.3047 198.883 70.3906 199.551 69.5117C200.23 68.6211 201.145 67.918 202.293 67.4023C203.453 66.8867 204.725 66.6289 206.107 66.6289C208.299 66.6289 210.016 67.1797 211.258 68.2812C212.5 69.3711 213.145 70.877 213.191 72.7988V81.5527C213.191 83.2988 213.414 84.6875 213.859 85.7188V86H210.449ZM205.053 83.5215C206.072 83.5215 207.039 83.2578 207.953 82.7305C208.867 82.2031 209.529 81.5176 209.939 80.6738V76.7715H207.391C203.406 76.7715 201.414 77.9375 201.414 80.2695C201.414 81.2891 201.754 82.0859 202.434 82.6602C203.113 83.2344 203.986 83.5215 205.053 83.5215Z" fill="white"/>
<path d="M235.111 86.3516C232.533 86.3516 230.436 85.5078 228.818 83.8203C227.201 82.1211 226.393 79.8535 226.393 77.0176V76.4199C226.393 74.5332 226.75 72.8516 227.465 71.375C228.191 69.8867 229.199 68.7266 230.488 67.8945C231.789 67.0508 233.195 66.6289 234.707 66.6289C237.18 66.6289 239.102 67.4434 240.473 69.0723C241.844 70.7012 242.529 73.0332 242.529 76.0684V77.4219H229.645C229.691 79.2969 230.236 80.8145 231.279 81.9746C232.334 83.123 233.67 83.6973 235.287 83.6973C236.436 83.6973 237.408 83.4629 238.205 82.9941C239.002 82.5254 239.699 81.9043 240.297 81.1309L242.283 82.6777C240.689 85.127 238.299 86.3516 235.111 86.3516ZM234.707 69.3008C233.395 69.3008 232.293 69.7812 231.402 70.7422C230.512 71.6914 229.961 73.0273 229.75 74.75H239.277V74.5039C239.184 72.8516 238.738 71.5742 237.941 70.6719C237.145 69.7578 236.066 69.3008 234.707 69.3008Z" fill="white"/>
<path d="M249.842 86H246.59V59H249.842V86Z" fill="white"/>
<path d="M270.268 81.5879L274.979 66.9805H278.301L271.48 86H269.002L262.111 66.9805H265.434L270.268 81.5879Z" fill="white"/>
<path d="M292.891 86C292.703 85.625 292.551 84.957 292.434 83.9961C290.922 85.5664 289.117 86.3516 287.02 86.3516C285.145 86.3516 283.604 85.8242 282.396 84.7695C281.201 83.7031 280.604 82.3555 280.604 80.7266C280.604 78.7461 281.354 77.2109 282.854 76.1211C284.365 75.0195 286.486 74.4688 289.217 74.4688H292.381V72.9746C292.381 71.8379 292.041 70.9355 291.361 70.2676C290.682 69.5879 289.68 69.248 288.355 69.248C287.195 69.248 286.223 69.541 285.438 70.127C284.652 70.7129 284.26 71.4219 284.26 72.2539H280.99C280.99 71.3047 281.324 70.3906 281.992 69.5117C282.672 68.6211 283.586 67.918 284.734 67.4023C285.895 66.8867 287.166 66.6289 288.549 66.6289C290.74 66.6289 292.457 67.1797 293.699 68.2812C294.941 69.3711 295.586 70.877 295.633 72.7988V81.5527C295.633 83.2988 295.855 84.6875 296.301 85.7188V86H292.891ZM287.494 83.5215C288.514 83.5215 289.48 83.2578 290.395 82.7305C291.309 82.2031 291.971 81.5176 292.381 80.6738V76.7715H289.832C285.848 76.7715 283.855 77.9375 283.855 80.2695C283.855 81.2891 284.195 82.0859 284.875 82.6602C285.555 83.2344 286.428 83.5215 287.494 83.5215Z" fill="white"/>
<path d="M304.264 86H301.012V59H304.264V86Z" fill="white"/>
<path d="M308.623 76.3145C308.623 74.4512 308.986 72.7754 309.713 71.2871C310.451 69.7988 311.471 68.6504 312.771 67.8418C314.084 67.0332 315.578 66.6289 317.254 66.6289C319.844 66.6289 321.936 67.5254 323.529 69.3184C325.135 71.1113 325.938 73.4961 325.938 76.4727V76.7012C325.938 78.5527 325.58 80.2168 324.865 81.6934C324.162 83.1582 323.148 84.3008 321.824 85.1211C320.512 85.9414 319 86.3516 317.289 86.3516C314.711 86.3516 312.619 85.4551 311.014 83.6621C309.42 81.8691 308.623 79.4961 308.623 76.543V76.3145ZM311.893 76.7012C311.893 78.8105 312.379 80.5039 313.352 81.7812C314.336 83.0586 315.648 83.6973 317.289 83.6973C318.941 83.6973 320.254 83.0527 321.227 81.7637C322.199 80.4629 322.686 78.6465 322.686 76.3145C322.686 74.2285 322.188 72.541 321.191 71.252C320.207 69.9512 318.895 69.3008 317.254 69.3008C315.648 69.3008 314.354 69.9395 313.369 71.2168C312.385 72.4941 311.893 74.3223 311.893 76.7012Z" fill="white"/>
<path d="M339.209 69.8984C338.717 69.8164 338.184 69.7754 337.609 69.7754C335.477 69.7754 334.029 70.6836 333.268 72.5V86H330.016V66.9805H333.18L333.232 69.1777C334.299 67.4785 335.811 66.6289 337.768 66.6289C338.4 66.6289 338.881 66.7109 339.209 66.875V69.8984Z" fill="white"/>
<path d="M350.354 76.332C350.354 73.4141 351.045 71.0703 352.428 69.3008C353.811 67.5195 355.621 66.6289 357.859 66.6289C360.086 66.6289 361.85 67.3906 363.15 68.9141V59H366.402V86H363.414L363.256 83.9609C361.955 85.5547 360.145 86.3516 357.824 86.3516C355.621 86.3516 353.822 85.4492 352.428 83.6445C351.045 81.8398 350.354 79.4844 350.354 76.5781V76.332ZM353.605 76.7012C353.605 78.8574 354.051 80.5449 354.941 81.7637C355.832 82.9824 357.062 83.5918 358.633 83.5918C360.695 83.5918 362.201 82.666 363.15 80.8145V72.0781C362.178 70.2852 360.684 69.3887 358.668 69.3887C357.074 69.3887 355.832 70.0039 354.941 71.2344C354.051 72.4648 353.605 74.2871 353.605 76.7012Z" fill="white"/>
<path d="M379.357 86.3516C376.779 86.3516 374.682 85.5078 373.064 83.8203C371.447 82.1211 370.639 79.8535 370.639 77.0176V76.4199C370.639 74.5332 370.996 72.8516 371.711 71.375C372.438 69.8867 373.445 68.7266 374.734 67.8945C376.035 67.0508 377.441 66.6289 378.953 66.6289C381.426 66.6289 383.348 67.4434 384.719 69.0723C386.09 70.7012 386.775 73.0332 386.775 76.0684V77.4219H373.891C373.938 79.2969 374.482 80.8145 375.525 81.9746C376.58 83.123 377.916 83.6973 379.533 83.6973C380.682 83.6973 381.654 83.4629 382.451 82.9941C383.248 82.5254 383.945 81.9043 384.543 81.1309L386.529 82.6777C384.936 85.127 382.545 86.3516 379.357 86.3516ZM378.953 69.3008C377.641 69.3008 376.539 69.7812 375.648 70.7422C374.758 71.6914 374.207 73.0273 373.996 74.75H383.523V74.5039C383.43 72.8516 382.984 71.5742 382.188 70.6719C381.391 69.7578 380.312 69.3008 378.953 69.3008Z" fill="white"/>
<path d="M401.945 76.3672L406.48 83.3457H404.002L398.816 76.5254V76.1914L404.002 69.3535H406.48L401.945 76.3672ZM407.746 76.3672L412.281 83.3457H409.803L404.617 76.5254V76.1914L409.803 69.3535H412.281L407.746 76.3672Z" fill="white"/>
<path d="M422.775 73.9238L426.994 66.9805H430.791L424.568 76.3848L430.984 86H427.223L422.828 78.8809L418.434 86H414.654L421.07 76.3848L414.848 66.9805H418.609L422.775 73.9238Z" fill="white"/>
<path d="M436.082 69.3184L441.268 76.1562V76.4902L436.082 83.3281H433.586L438.121 76.332L433.586 69.3184H436.082ZM442.217 69.3184L447.402 76.1562V76.4902L442.217 83.3281H439.721L444.256 76.332L439.721 69.3184H442.217Z" fill="white"/>
<path d="M451.199 84.2949C451.199 83.7324 451.363 83.2637 451.691 82.8887C452.031 82.5137 452.535 82.3262 453.203 82.3262C453.871 82.3262 454.375 82.5137 454.715 82.8887C455.066 83.2637 455.242 83.7324 455.242 84.2949C455.242 84.834 455.066 85.2852 454.715 85.6484C454.375 86.0117 453.871 86.1934 453.203 86.1934C452.535 86.1934 452.031 86.0117 451.691 85.6484C451.363 85.2852 451.199 84.834 451.199 84.2949Z" fill="white"/>
</g>
<g id="213 (1) 221 35 (4) 22 21 (x) 12">
<path d="M356.146 162H334.718V159.013L346.038 146.435C347.715 144.533 348.868 142.991 349.497 141.808C350.141 140.61 350.463 139.374 350.463 138.102C350.463 136.395 349.946 134.994 348.913 133.901C347.88 132.808 346.502 132.262 344.78 132.262C342.714 132.262 341.104 132.853 339.951 134.036C338.813 135.204 338.244 136.836 338.244 138.933H334.089C334.089 135.923 335.055 133.49 336.986 131.633C338.933 129.776 341.531 128.848 344.78 128.848C347.82 128.848 350.223 129.649 351.99 131.251C353.757 132.838 354.641 134.957 354.641 137.607C354.641 140.827 352.589 144.66 348.486 149.107L339.727 158.608H356.146V162Z" fill="white"/>
<path d="M374.204 162H370.026V134.306L361.648 137.383V133.609L373.553 129.14H374.204V162Z" fill="white"/>
<path d="M392.42 143.627H395.542C397.504 143.597 399.046 143.08 400.169 142.077C401.292 141.074 401.854 139.719 401.854 138.012C401.854 134.178 399.944 132.262 396.126 132.262C394.329 132.262 392.892 132.778 391.813 133.812C390.75 134.83 390.219 136.185 390.219 137.877H386.063C386.063 135.286 387.007 133.138 388.894 131.431C390.795 129.709 393.206 128.848 396.126 128.848C399.211 128.848 401.629 129.664 403.381 131.296C405.133 132.928 406.009 135.197 406.009 138.102C406.009 139.524 405.545 140.902 404.616 142.234C403.703 143.567 402.452 144.563 400.865 145.222C402.662 145.791 404.047 146.734 405.021 148.052C406.009 149.369 406.503 150.979 406.503 152.881C406.503 155.816 405.545 158.144 403.628 159.866C401.711 161.588 399.218 162.449 396.148 162.449C393.079 162.449 390.578 161.618 388.646 159.956C386.73 158.294 385.771 156.1 385.771 153.375H389.949C389.949 155.097 390.511 156.475 391.634 157.508C392.757 158.541 394.262 159.058 396.148 159.058C398.155 159.058 399.69 158.534 400.753 157.485C401.816 156.437 402.348 154.932 402.348 152.971C402.348 151.069 401.764 149.609 400.596 148.591C399.428 147.573 397.743 147.049 395.542 147.019H392.42V143.627Z" fill="white"/>
<path d="M469.528 148.726C469.528 145.341 469.978 142.092 470.876 138.978C471.789 135.863 473.145 133.033 474.941 130.487C476.738 127.942 478.603 126.145 480.534 125.097L481.388 127.837C479.201 129.514 477.405 132.075 475.997 135.519C474.604 138.963 473.841 142.818 473.706 147.086L473.684 148.995C473.684 154.775 474.739 159.791 476.851 164.044C478.123 166.59 479.636 168.581 481.388 170.019L480.534 172.557C478.543 171.449 476.641 169.592 474.829 166.986C471.295 161.895 469.528 155.808 469.528 148.726Z" fill="white"/>
<path d="M498.638 162H494.46V134.306L486.082 137.383V133.609L497.986 129.14H498.638V162Z" fill="white"/>
<path d="M520.829 148.95C520.829 152.289 520.387 155.494 519.504 158.563C518.635 161.618 517.295 164.441 515.483 167.031C513.687 169.622 511.8 171.464 509.823 172.557L508.947 170.019C511.253 168.252 513.103 165.511 514.495 161.798C515.903 158.069 516.621 153.937 516.651 149.399V148.681C516.651 145.536 516.322 142.616 515.663 139.921C515.004 137.211 514.083 134.785 512.9 132.644C511.732 130.502 510.415 128.833 508.947 127.635L509.823 125.097C511.8 126.19 513.679 128.017 515.461 130.577C517.258 133.138 518.598 135.96 519.481 139.045C520.38 142.13 520.829 145.431 520.829 148.95Z" fill="white"/>
<path d="M605.282 162H583.854V159.013L595.175 146.435C596.852 144.533 598.005 142.991 598.634 141.808C599.278 140.61 599.6 139.374 599.6 138.102C599.6 136.395 599.083 134.994 598.05 133.901C597.017 132.808 595.639 132.262 593.917 132.262C591.851 132.262 590.241 132.853 589.088 134.036C587.95 135.204 587.381 136.836 587.381 138.933H583.226C583.226 135.923 584.191 133.49 586.123 131.633C588.07 129.776 590.668 128.848 593.917 128.848C596.957 128.848 599.36 129.649 601.127 131.251C602.894 132.838 603.777 134.957 603.777 137.607C603.777 140.827 601.726 144.66 597.623 149.107L588.863 158.608H605.282V162Z" fill="white"/>
<path d="M631.112 162H609.685V159.013L621.005 146.435C622.682 144.533 623.835 142.991 624.464 141.808C625.108 140.61 625.43 139.374 625.43 138.102C625.43 136.395 624.913 134.994 623.88 133.901C622.847 132.808 621.469 132.262 619.747 132.262C617.681 132.262 616.071 132.853 614.918 134.036C613.78 135.204 613.211 136.836 613.211 138.933H609.056C609.056 135.923 610.021 133.49 611.953 131.633C613.9 129.776 616.498 128.848 619.747 128.848C622.787 128.848 625.19 129.649 626.957 131.251C628.724 132.838 629.607 134.957 629.607 137.607C629.607 140.827 627.556 144.66 623.453 149.107L614.693 158.608H631.112V162Z" fill="white"/>
<path d="M649.171 162H644.993V134.306L636.615 137.383V133.609L648.52 129.14H649.171V162Z" fill="white"/>
<path d="M340.76 220.627H343.882C345.843 220.597 347.386 220.08 348.509 219.077C349.632 218.074 350.193 216.719 350.193 215.012C350.193 211.178 348.284 209.262 344.466 209.262C342.669 209.262 341.231 209.778 340.153 210.812C339.09 211.83 338.559 213.185 338.559 214.877H334.403C334.403 212.286 335.347 210.138 337.233 208.431C339.135 206.709 341.546 205.848 344.466 205.848C347.55 205.848 349.969 206.664 351.721 208.296C353.473 209.928 354.349 212.197 354.349 215.102C354.349 216.524 353.884 217.902 352.956 219.234C352.043 220.567 350.792 221.563 349.205 222.222C351.002 222.791 352.387 223.734 353.36 225.052C354.349 226.369 354.843 227.979 354.843 229.881C354.843 232.816 353.884 235.144 351.968 236.866C350.051 238.588 347.558 239.449 344.488 239.449C341.419 239.449 338.918 238.618 336.986 236.956C335.07 235.294 334.111 233.1 334.111 230.375H338.289C338.289 232.097 338.851 233.475 339.974 234.508C341.097 235.541 342.602 236.058 344.488 236.058C346.495 236.058 348.03 235.534 349.093 234.485C350.156 233.437 350.688 231.932 350.688 229.971C350.688 228.069 350.104 226.609 348.936 225.591C347.768 224.573 346.083 224.049 343.882 224.019H340.76V220.627Z" fill="white"/>
<path d="M362.457 222.604L364.119 206.297H380.875V210.138H367.646L366.657 219.055C368.259 218.111 370.079 217.64 372.115 217.64C375.095 217.64 377.461 218.628 379.213 220.604C380.965 222.566 381.841 225.224 381.841 228.578C381.841 231.947 380.927 234.605 379.101 236.552C377.289 238.483 374.751 239.449 371.486 239.449C368.596 239.449 366.238 238.648 364.411 237.046C362.584 235.444 361.544 233.228 361.289 230.397H365.22C365.474 232.269 366.141 233.684 367.219 234.643C368.297 235.586 369.719 236.058 371.486 236.058C373.418 236.058 374.93 235.399 376.023 234.081C377.132 232.763 377.686 230.944 377.686 228.623C377.686 226.437 377.087 224.685 375.889 223.367C374.706 222.035 373.126 221.368 371.149 221.368C369.338 221.368 367.915 221.765 366.882 222.559L365.781 223.457L362.457 222.604Z" fill="white"/>
<path d="M466.519 225.726C466.519 222.341 466.968 219.092 467.866 215.978C468.78 212.863 470.135 210.033 471.932 207.487C473.729 204.942 475.593 203.145 477.524 202.097L478.378 204.837C476.192 206.514 474.395 209.075 472.987 212.519C471.595 215.963 470.831 219.818 470.696 224.086L470.674 225.995C470.674 231.775 471.729 236.791 473.841 241.044C475.114 243.59 476.626 245.581 478.378 247.019L477.524 249.557C475.533 248.449 473.631 246.592 471.819 243.986C468.285 238.895 466.519 232.808 466.519 225.726Z" fill="white"/>
<path d="M499.514 228.017H504.051V231.408H499.514V239H495.336V231.408H480.444V228.96L495.089 206.297H499.514V228.017ZM485.161 228.017H495.336V211.979L494.842 212.878L485.161 228.017Z" fill="white"/>
<path d="M517.819 225.95C517.819 229.289 517.378 232.494 516.494 235.563C515.626 238.618 514.285 241.441 512.474 244.031C510.677 246.622 508.79 248.464 506.813 249.557L505.938 247.019C508.243 245.252 510.093 242.511 511.485 238.798C512.893 235.069 513.612 230.937 513.642 226.399V225.681C513.642 222.536 513.312 219.616 512.653 216.921C511.994 214.211 511.074 211.785 509.891 209.644C508.723 207.502 507.405 205.833 505.938 204.635L506.813 202.097C508.79 203.19 510.669 205.017 512.451 207.577C514.248 210.138 515.588 212.96 516.472 216.045C517.37 219.13 517.819 222.431 517.819 225.95Z" fill="white"/>
<path d="M625.093 239H603.665V236.013L614.985 223.435C616.662 221.533 617.815 219.991 618.444 218.808C619.088 217.61 619.41 216.374 619.41 215.102C619.41 213.395 618.894 211.994 617.86 210.901C616.827 209.808 615.45 209.262 613.728 209.262C611.661 209.262 610.051 209.853 608.898 211.036C607.76 212.204 607.191 213.836 607.191 215.933H603.036C603.036 212.923 604.002 210.49 605.934 208.633C607.88 206.776 610.478 205.848 613.728 205.848C616.767 205.848 619.171 206.649 620.938 208.251C622.704 209.838 623.588 211.957 623.588 214.607C623.588 217.827 621.536 221.66 617.434 226.107L608.674 235.608H625.093V239Z" fill="white"/>
<path d="M650.923 239H629.495V236.013L640.815 223.435C642.493 221.533 643.646 219.991 644.274 218.808C644.918 217.61 645.24 216.374 645.24 215.102C645.24 213.395 644.724 211.994 643.69 210.901C642.657 209.808 641.28 209.262 639.558 209.262C637.491 209.262 635.882 209.853 634.729 211.036C633.59 212.204 633.021 213.836 633.021 215.933H628.866C628.866 212.923 629.832 210.49 631.764 208.633C633.71 206.776 636.308 205.848 639.558 205.848C642.597 205.848 645.001 206.649 646.768 208.251C648.535 209.838 649.418 211.957 649.418 214.607C649.418 217.827 647.367 221.66 643.264 226.107L634.504 235.608H650.923V239Z" fill="white"/>
<path d="M356.146 316H334.718V313.013L346.038 300.435C347.715 298.533 348.868 296.991 349.497 295.808C350.141 294.61 350.463 293.374 350.463 292.102C350.463 290.395 349.946 288.994 348.913 287.901C347.88 286.808 346.502 286.262 344.78 286.262C342.714 286.262 341.104 286.853 339.951 288.036C338.813 289.204 338.244 290.836 338.244 292.933H334.089C334.089 289.923 335.055 287.49 336.986 285.633C338.933 283.776 341.531 282.848 344.78 282.848C347.82 282.848 350.223 283.649 351.99 285.251C353.757 286.838 354.641 288.957 354.641 291.607C354.641 294.827 352.589 298.66 348.486 303.107L339.727 312.608H356.146V316Z" fill="white"/>
<path d="M374.204 316H370.026V288.306L361.648 291.383V287.609L373.553 283.14H374.204V316Z" fill="white"/>
<path d="M466.519 302.726C466.519 299.341 466.968 296.092 467.866 292.978C468.78 289.863 470.135 287.033 471.932 284.487C473.729 281.942 475.593 280.145 477.524 279.097L478.378 281.837C476.192 283.514 474.395 286.075 472.987 289.519C471.595 292.963 470.831 296.818 470.696 301.086L470.674 302.995C470.674 308.775 471.729 313.791 473.841 318.044C475.114 320.59 476.626 322.581 478.378 324.019L477.524 326.557C475.533 325.449 473.631 323.592 471.819 320.986C468.285 315.895 466.519 309.808 466.519 302.726Z" fill="white"/>
<path d="M490.552 300.569L495.942 291.697H500.794L492.843 303.714L501.041 316H496.234L490.619 306.903L485.004 316H480.175L488.373 303.714L480.422 291.697H485.229L490.552 300.569Z" fill="white"/>
<path d="M514.81 302.95C514.81 306.289 514.368 309.494 513.484 312.563C512.616 315.618 511.276 318.441 509.464 321.031C507.667 323.622 505.78 325.464 503.804 326.557L502.928 324.019C505.234 322.252 507.083 319.511 508.476 315.798C509.883 312.069 510.602 307.937 510.632 303.399V302.681C510.632 299.536 510.302 296.616 509.644 293.921C508.985 291.211 508.064 288.785 506.881 286.644C505.713 284.502 504.395 282.833 502.928 281.635L503.804 279.097C505.78 280.19 507.66 282.017 509.441 284.577C511.238 287.138 512.578 289.96 513.462 293.045C514.36 296.13 514.81 299.431 514.81 302.95Z" fill="white"/>
<path d="M614.312 316H610.134V288.306L601.756 291.383V287.609L613.66 283.14H614.312V316Z" fill="white"/>
<path d="M647.913 316H626.485V313.013L637.806 300.435C639.483 298.533 640.636 296.991 641.265 295.808C641.909 294.61 642.23 293.374 642.23 292.102C642.23 290.395 641.714 288.994 640.681 287.901C639.647 286.808 638.27 286.262 636.548 286.262C634.481 286.262 632.872 286.853 631.719 288.036C630.581 289.204 630.012 290.836 630.012 292.933H625.856C625.856 289.923 626.822 287.49 628.754 285.633C630.701 283.776 633.299 282.848 636.548 282.848C639.588 282.848 641.991 283.649 643.758 285.251C645.525 286.838 646.408 288.957 646.408 291.607C646.408 294.827 644.357 298.66 640.254 303.107L631.494 312.608H647.913V316Z" fill="white"/>
</g>
<g id="flecha">
<path id="Rectangle 2" d="M394.2 529.008L409.482 537.133L367.5 616.089L352.219 607.963L394.2 529.008Z" fill="#1043F5"/>
<path id="Rectangle 1_2" d="M336 541.904L426 492V549.692L381 532.096L336 541.904Z" fill="#1043F5"/>
<path id="Rectangle 3" d="M340.038 611.21L355.666 584.143L372.936 583.565L357.309 610.632L340.038 611.21Z" fill="#1043F5"/>
<path id="Rectangle 4_2" d="M366.089 625.845L381.717 598.778L372.926 583.154L357.299 610.221L366.089 625.845Z" fill="#1043F5"/>
</g>
</g>
</svg>
