<svg viewBox="0 0 980 593" fill="none" xmlns="http://www.w3.org/2000/svg">
<g id="0119105">
<g id="Group 8">
<path id="Rectangle 1" d="M57 48.6165C57 23.2861 78.3794 2.75183 104.752 2.75183H928V320.135C928 345.466 906.62 366 880.247 366H57V48.6165Z" fill="#02071A"/>
<path id="Rectangle 1 (Stroke)" fill-rule="evenodd" clip-rule="evenodd" d="M923.224 7.3383H104.752C81.0167 7.3383 61.7752 25.8192 61.7752 48.6165V361.413H880.247C903.983 361.413 923.224 342.933 923.224 320.135V7.3383ZM104.752 2.75183C78.3794 2.75183 57 23.2861 57 48.6165V366H880.247C906.62 366 928 345.466 928 320.135V2.75183H104.752Z" fill="#CD08D1"/>
<path id="Rectangle 14" d="M108.716 2.81831C134.256 -3.52289 928 2.81831 928 2.81831V30.2707C928 30.2707 95.2017 20.1805 65.5953 30.2707C74.8074 15.7103 83.1754 9.15951 108.716 2.81831Z" fill="#CD08D1"/>
<path id="Rectangle 15" d="M899.349 2.75183H928V321.053C924.483 342.653 917.194 350.592 899.349 360.955C904.601 343.985 899.349 2.75183 899.349 2.75183Z" fill="#CD08D1"/>
</g>
<g id="claves01">
<path id="Rectangle 4" d="M44 403H260.745L294 443L260.745 483H44V403Z" fill="#CD08D1" fill-opacity="0.1"/>
<path id="Rectangle 4 (Stroke)" fill-rule="evenodd" clip-rule="evenodd" d="M259.338 406H47V480H259.338L290.099 443L259.338 406ZM260.745 403H44V483H260.745L294 443L260.745 403Z" fill="#CD08D1"/>
<path id="Rectangle 5" d="M48 513H264.745L298 553L264.745 593H48V513Z" fill="#CD08D1" fill-opacity="0.1"/>
<path id="Rectangle 5 (Stroke)" fill-rule="evenodd" clip-rule="evenodd" d="M263.338 516H51V590H263.338L294.099 553L263.338 516ZM264.745 513H48V593H264.745L298 553L264.745 513Z" fill="#CD08D1"/>
<path id="Rectangle 6" d="M384 400H600.745L634 440L600.745 480H384V400Z" fill="#CD08D1" fill-opacity="0.1"/>
<path id="Rectangle 6 (Stroke)" fill-rule="evenodd" clip-rule="evenodd" d="M599.338 403H387V477H599.338L630.099 440L599.338 403ZM600.745 400H384V480H600.745L634 440L600.745 400Z" fill="#CD08D1"/>
<path id="Rectangle 7" d="M387 510H603.745L637 550L603.745 590H387V510Z" fill="#CD08D1" fill-opacity="0.1"/>
<path id="Rectangle 7 (Stroke)" fill-rule="evenodd" clip-rule="evenodd" d="M602.338 513H390V587H602.338L633.099 550L602.338 513ZM603.745 510H387V590H603.745L637 550L603.745 510Z" fill="#CD08D1"/>
<path id="Rectangle 8" d="M730 459H946.745L980 499L946.745 539H730V459Z" fill="#CD08D1" fill-opacity="0.1"/>
<path id="Rectangle 8 (Stroke)" fill-rule="evenodd" clip-rule="evenodd" d="M945.338 462H733V536H945.338L976.099 499L945.338 462ZM946.745 459H730V539H946.745L980 499L946.745 459Z" fill="#CD08D1"/>
<path id="Ellipse 1" d="M85 443C85 465.091 67.0914 483 45 483C22.9086 483 5 465.091 5 443C5 420.909 22.9086 403 45 403C67.0914 403 85 420.909 85 443Z" fill="#CD08D1"/>
<path id="Ellipse 2" d="M89 553C89 575.091 71.0914 593 49 593C26.9086 593 9 575.091 9 553C9 530.909 26.9086 513 49 513C71.0914 513 89 530.909 89 553Z" fill="#CD08D1"/>
<path id="Ellipse 3" d="M425 440C425 462.091 407.091 480 385 480C362.909 480 345 462.091 345 440C345 417.909 362.909 400 385 400C407.091 400 425 417.909 425 440Z" fill="#CD08D1"/>
<path id="Ellipse 4" d="M428 550C428 572.091 410.091 590 388 590C365.909 590 348 572.091 348 550C348 527.909 365.909 510 388 510C410.091 510 428 527.909 428 550Z" fill="#CD08D1"/>
<path id="Ellipse 5" d="M771 499C771 521.091 753.091 539 731 539C708.909 539 691 521.091 691 499C691 476.909 708.909 459 731 459C753.091 459 771 476.909 771 499Z" fill="#CD08D1"/>
<path id="A" d="M53.0938 453.406H35.4688L31.7812 464H23.5625L40.75 418.5H47.8438L65.0625 464H56.8125L53.0938 453.406ZM37.6875 447.031H50.875L44.2812 428.156L37.6875 447.031Z" fill="white"/>
<path id="B" d="M32.625 569V523.5H48.2188C53.3646 523.5 57.2812 524.531 59.9688 526.594C62.6562 528.656 64 531.729 64 535.812C64 537.896 63.4375 539.771 62.3125 541.438C61.1875 543.104 59.5417 544.396 57.375 545.312C59.8333 545.979 61.7292 547.24 63.0625 549.094C64.4167 550.927 65.0938 553.135 65.0938 555.719C65.0938 559.99 63.7188 563.271 60.9688 565.562C58.2396 567.854 54.3229 569 49.2188 569H32.625ZM40.5312 548.469V562.688H49.3125C51.7917 562.688 53.7292 562.073 55.125 560.844C56.5208 559.615 57.2188 557.906 57.2188 555.719C57.2188 550.99 54.8021 548.573 49.9688 548.469H40.5312ZM40.5312 542.656H48.2812C50.7396 542.656 52.6562 542.104 54.0312 541C55.4271 539.875 56.125 538.292 56.125 536.25C56.125 534 55.4792 532.375 54.1875 531.375C52.9167 530.375 50.9271 529.875 48.2188 529.875H40.5312V542.656Z" fill="white"/>
<path id="C" d="M402.344 447.188C401.885 452.042 400.094 455.833 396.969 458.562C393.844 461.271 389.688 462.625 384.5 462.625C380.875 462.625 377.677 461.771 374.906 460.062C372.156 458.333 370.031 455.885 368.531 452.719C367.031 449.552 366.25 445.875 366.188 441.688V437.438C366.188 433.146 366.948 429.365 368.469 426.094C369.99 422.823 372.167 420.302 375 418.531C377.854 416.76 381.146 415.875 384.875 415.875C389.896 415.875 393.938 417.24 397 419.969C400.062 422.698 401.844 426.552 402.344 431.531H394.469C394.094 428.26 393.135 425.906 391.594 424.469C390.073 423.01 387.833 422.281 384.875 422.281C381.438 422.281 378.792 423.542 376.938 426.062C375.104 428.562 374.167 432.24 374.125 437.094V441.125C374.125 446.042 375 449.792 376.75 452.375C378.521 454.958 381.104 456.25 384.5 456.25C387.604 456.25 389.938 455.552 391.5 454.156C393.062 452.76 394.052 450.438 394.469 447.188H402.344Z" fill="white"/>
<path id="D" d="M370.625 572V526.5H384.062C388.083 526.5 391.646 527.396 394.75 529.188C397.875 530.979 400.292 533.521 402 536.812C403.708 540.104 404.562 543.875 404.562 548.125V550.406C404.562 554.719 403.698 558.51 401.969 561.781C400.26 565.052 397.812 567.573 394.625 569.344C391.458 571.115 387.823 572 383.719 572H370.625ZM378.531 532.875V565.688H383.688C387.833 565.688 391.01 564.396 393.219 561.812C395.448 559.208 396.583 555.479 396.625 550.625V548.094C396.625 543.156 395.552 539.385 393.406 536.781C391.26 534.177 388.146 532.875 384.062 532.875H378.531Z" fill="white"/>
<path id="E" d="M740.219 500.688H721.531V514.688H743.375V521H713.625V475.5H743.156V481.875H721.531V494.438H740.219V500.688Z" fill="white"/>
<g id="24">
<path d="M147.312 457H127.235V453.575L137.182 442.727C138.617 441.127 139.636 439.794 140.237 438.728C140.853 437.647 141.16 436.567 141.16 435.487C141.16 434.065 140.757 432.917 139.95 432.042C139.157 431.167 138.084 430.729 136.73 430.729C135.117 430.729 133.866 431.222 132.978 432.206C132.089 433.19 131.645 434.537 131.645 436.246H126.661C126.661 434.428 127.071 432.794 127.892 431.345C128.726 429.882 129.908 428.747 131.439 427.94C132.984 427.134 134.762 426.73 136.771 426.73C139.67 426.73 141.953 427.462 143.621 428.925C145.303 430.374 146.144 432.384 146.144 434.954C146.144 436.444 145.72 438.01 144.872 439.65C144.038 441.277 142.664 443.13 140.75 445.208L133.449 453.021H147.312V457Z" fill="#CD08D1"/>
<path d="M167.964 446.356H171.676V450.355H167.964V457H162.98V450.355H150.081L149.938 447.32L162.816 427.141H167.964V446.356ZM155.167 446.356H162.98V433.888L162.611 434.544L155.167 446.356Z" fill="#CD08D1"/>
</g>
<g id="25">
<path d="M147.312 572H127.235V568.575L137.182 557.727C138.617 556.127 139.636 554.794 140.237 553.728C140.853 552.647 141.16 551.567 141.16 550.487C141.16 549.065 140.757 547.917 139.95 547.042C139.157 546.167 138.084 545.729 136.73 545.729C135.117 545.729 133.866 546.222 132.978 547.206C132.089 548.19 131.645 549.537 131.645 551.246H126.661C126.661 549.428 127.071 547.794 127.892 546.345C128.726 544.882 129.908 543.747 131.439 542.94C132.984 542.134 134.762 541.73 136.771 541.73C139.67 541.73 141.953 542.462 143.621 543.925C145.303 545.374 146.144 547.384 146.144 549.954C146.144 551.444 145.72 553.01 144.872 554.65C144.038 556.277 142.664 558.13 140.75 560.208L133.449 568.021H147.312V572Z" fill="#CD08D1"/>
<path d="M152.439 557.193L154.06 542.141H170.097V546.447H158.202L157.382 553.584C158.763 552.791 160.321 552.395 162.058 552.395C164.901 552.395 167.109 553.304 168.682 555.122C170.268 556.94 171.061 559.388 171.061 562.464C171.061 565.499 170.186 567.919 168.436 569.724C166.686 571.515 164.286 572.41 161.237 572.41C158.503 572.41 156.233 571.638 154.429 570.093C152.638 568.534 151.667 566.483 151.517 563.94H156.336C156.527 565.39 157.047 566.504 157.895 567.283C158.742 568.049 159.85 568.432 161.217 568.432C162.748 568.432 163.938 567.885 164.785 566.791C165.646 565.697 166.077 564.207 166.077 562.32C166.077 560.502 165.605 559.066 164.662 558.014C163.719 556.947 162.42 556.414 160.766 556.414C159.863 556.414 159.098 556.537 158.469 556.783C157.84 557.016 157.156 557.48 156.418 558.178L152.439 557.193Z" fill="#CD08D1"/>
</g>
<g id="26">
<path d="M503.312 454H483.235V450.575L493.182 439.727C494.617 438.127 495.636 436.794 496.237 435.728C496.853 434.647 497.16 433.567 497.16 432.487C497.16 431.065 496.757 429.917 495.95 429.042C495.157 428.167 494.084 427.729 492.73 427.729C491.117 427.729 489.866 428.222 488.978 429.206C488.089 430.19 487.645 431.537 487.645 433.246H482.661C482.661 431.428 483.071 429.794 483.892 428.345C484.726 426.882 485.908 425.747 487.439 424.94C488.984 424.134 490.762 423.73 492.771 423.73C495.67 423.73 497.953 424.462 499.621 425.925C501.303 427.374 502.144 429.384 502.144 431.954C502.144 433.444 501.72 435.01 500.872 436.65C500.038 438.277 498.664 440.13 496.75 442.208L489.449 450.021H503.312V454Z" fill="#CD08D1"/>
<path d="M522.61 423.997V428.119H521.995C519.206 428.16 516.978 428.926 515.31 430.416C513.642 431.906 512.65 434.019 512.336 436.753C513.936 435.071 515.979 434.23 518.468 434.23C521.106 434.23 523.185 435.16 524.702 437.02C526.233 438.879 526.999 441.278 526.999 444.218C526.999 447.253 526.104 449.714 524.312 451.601C522.535 453.474 520.197 454.41 517.299 454.41C514.318 454.41 511.898 453.31 510.039 451.108C508.193 448.907 507.271 446.022 507.271 442.454V440.752C507.271 435.516 508.542 431.414 511.085 428.447C513.642 425.48 517.312 423.997 522.098 423.997H522.61ZM517.258 438.25C516.164 438.25 515.159 438.558 514.243 439.173C513.341 439.788 512.678 440.608 512.254 441.634V443.151C512.254 445.366 512.719 447.13 513.648 448.442C514.578 449.741 515.781 450.391 517.258 450.391C518.734 450.391 519.903 449.837 520.765 448.729C521.626 447.622 522.057 446.166 522.057 444.361C522.057 442.557 521.619 441.087 520.744 439.952C519.869 438.817 518.707 438.25 517.258 438.25Z" fill="#CD08D1"/>
</g>
<g id="22">
<path d="M503.312 563H483.235V559.575L493.182 548.727C494.617 547.127 495.636 545.794 496.237 544.728C496.853 543.647 497.16 542.567 497.16 541.487C497.16 540.065 496.757 538.917 495.95 538.042C495.157 537.167 494.084 536.729 492.73 536.729C491.117 536.729 489.866 537.222 488.978 538.206C488.089 539.19 487.645 540.537 487.645 542.246H482.661C482.661 540.428 483.071 538.794 483.892 537.345C484.726 535.882 485.908 534.747 487.439 533.94C488.984 533.134 490.762 532.73 492.771 532.73C495.67 532.73 497.953 533.462 499.621 534.925C501.303 536.374 502.144 538.384 502.144 540.954C502.144 542.444 501.72 544.01 500.872 545.65C500.038 547.277 498.664 549.13 496.75 551.208L489.449 559.021H503.312V563Z" fill="#CD08D1"/>
<path d="M527.184 563H507.106V559.575L517.053 548.727C518.488 547.127 519.507 545.794 520.108 544.728C520.724 543.647 521.031 542.567 521.031 541.487C521.031 540.065 520.628 538.917 519.821 538.042C519.028 537.167 517.955 536.729 516.602 536.729C514.988 536.729 513.737 537.222 512.849 538.206C511.96 539.19 511.516 540.537 511.516 542.246H506.532C506.532 540.428 506.942 538.794 507.763 537.345C508.597 535.882 509.779 534.747 511.311 533.94C512.855 533.134 514.633 532.73 516.643 532.73C519.541 532.73 521.824 533.462 523.492 534.925C525.174 536.374 526.015 538.384 526.015 540.954C526.015 542.444 525.591 544.01 524.743 545.65C523.909 547.277 522.535 549.13 520.621 551.208L513.32 559.021H527.184V563Z" fill="#CD08D1"/>
</g>
<g id="23">
<path d="M849.312 517H829.235V513.575L839.182 502.727C840.617 501.127 841.636 499.794 842.237 498.728C842.853 497.647 843.16 496.567 843.16 495.487C843.16 494.065 842.757 492.917 841.95 492.042C841.157 491.167 840.084 490.729 838.73 490.729C837.117 490.729 835.866 491.222 834.978 492.206C834.089 493.19 833.645 494.537 833.645 496.246H828.661C828.661 494.428 829.071 492.794 829.892 491.345C830.726 489.882 831.908 488.747 833.439 487.94C834.984 487.134 836.762 486.73 838.771 486.73C841.67 486.73 843.953 487.462 845.621 488.925C847.303 490.374 848.144 492.384 848.144 494.954C848.144 496.444 847.72 498.01 846.872 499.65C846.038 501.277 844.664 503.13 842.75 505.208L835.449 513.021H849.312V517Z" fill="#CD08D1"/>
<path d="M858.869 499.794H861.904C863.436 499.78 864.646 499.384 865.534 498.604C866.437 497.825 866.888 496.697 866.888 495.221C866.888 493.799 866.512 492.698 865.76 491.919C865.021 491.126 863.887 490.729 862.355 490.729C861.016 490.729 859.915 491.119 859.054 491.898C858.192 492.664 857.762 493.669 857.762 494.913H852.778C852.778 493.382 853.182 491.987 853.988 490.729C854.809 489.472 855.943 488.494 857.393 487.797C858.855 487.086 860.489 486.73 862.294 486.73C865.274 486.73 867.612 487.482 869.308 488.986C871.017 490.477 871.871 492.555 871.871 495.221C871.871 496.561 871.44 497.825 870.579 499.015C869.731 500.19 868.631 501.079 867.277 501.681C868.918 502.241 870.162 503.123 871.01 504.326C871.871 505.529 872.302 506.965 872.302 508.633C872.302 511.312 871.379 513.445 869.533 515.031C867.701 516.617 865.288 517.41 862.294 517.41C859.423 517.41 857.071 516.645 855.239 515.113C853.407 513.582 852.491 511.545 852.491 509.002H857.475C857.475 510.314 857.912 511.381 858.787 512.201C859.676 513.021 860.865 513.432 862.355 513.432C863.9 513.432 865.117 513.021 866.006 512.201C866.895 511.381 867.339 510.191 867.339 508.633C867.339 507.061 866.874 505.851 865.944 505.003C865.015 504.155 863.634 503.731 861.802 503.731H858.869V499.794Z" fill="#CD08D1"/>
</g>
</g>
<g id="Calcula el valor de &#194;&#171;x&#194;&#187;.">
<path d="M112.797 77.8789C112.48 80.5859 111.479 82.6777 109.791 84.1543C108.115 85.6191 105.883 86.3516 103.094 86.3516C100.07 86.3516 97.6445 85.2676 95.8164 83.0996C94 80.9316 93.0918 78.0312 93.0918 74.3984V71.9375C93.0918 69.5586 93.5137 67.4668 94.3574 65.6621C95.2129 63.8574 96.4199 62.4746 97.9785 61.5137C99.5371 60.541 101.342 60.0547 103.393 60.0547C106.111 60.0547 108.291 60.8164 109.932 62.3398C111.572 63.8516 112.527 65.9492 112.797 68.6328H109.404C109.111 66.5938 108.473 65.1172 107.488 64.2031C106.516 63.2891 105.15 62.832 103.393 62.832C101.236 62.832 99.543 63.6289 98.3125 65.2227C97.0938 66.8164 96.4844 69.084 96.4844 72.0254V74.5039C96.4844 77.2812 97.0645 79.4902 98.2246 81.1309C99.3848 82.7715 101.008 83.5918 103.094 83.5918C104.969 83.5918 106.404 83.1699 107.4 82.3262C108.408 81.4707 109.076 79.9883 109.404 77.8789H112.797Z" fill="white"/>
<path d="M128.652 86C128.465 85.625 128.312 84.957 128.195 83.9961C126.684 85.5664 124.879 86.3516 122.781 86.3516C120.906 86.3516 119.365 85.8242 118.158 84.7695C116.963 83.7031 116.365 82.3555 116.365 80.7266C116.365 78.7461 117.115 77.2109 118.615 76.1211C120.127 75.0195 122.248 74.4688 124.979 74.4688H128.143V72.9746C128.143 71.8379 127.803 70.9355 127.123 70.2676C126.443 69.5879 125.441 69.248 124.117 69.248C122.957 69.248 121.984 69.541 121.199 70.127C120.414 70.7129 120.021 71.4219 120.021 72.2539H116.752C116.752 71.3047 117.086 70.3906 117.754 69.5117C118.434 68.6211 119.348 67.918 120.496 67.4023C121.656 66.8867 122.928 66.6289 124.311 66.6289C126.502 66.6289 128.219 67.1797 129.461 68.2812C130.703 69.3711 131.348 70.877 131.395 72.7988V81.5527C131.395 83.2988 131.617 84.6875 132.062 85.7188V86H128.652ZM123.256 83.5215C124.275 83.5215 125.242 83.2578 126.156 82.7305C127.07 82.2031 127.732 81.5176 128.143 80.6738V76.7715H125.594C121.609 76.7715 119.617 77.9375 119.617 80.2695C119.617 81.2891 119.957 82.0859 120.637 82.6602C121.316 83.2344 122.189 83.5215 123.256 83.5215Z" fill="white"/>
<path d="M140.025 86H136.773V59H140.025V86Z" fill="white"/>
<path d="M152.875 83.6973C154.035 83.6973 155.049 83.3457 155.916 82.6426C156.783 81.9395 157.264 81.0605 157.357 80.0059H160.434C160.375 81.0957 160 82.1328 159.309 83.1172C158.617 84.1016 157.691 84.8867 156.531 85.4727C155.383 86.0586 154.164 86.3516 152.875 86.3516C150.285 86.3516 148.223 85.4902 146.688 83.7676C145.164 82.0332 144.402 79.666 144.402 76.666V76.1211C144.402 74.2695 144.742 72.623 145.422 71.1816C146.102 69.7402 147.074 68.6211 148.34 67.8242C149.617 67.0273 151.123 66.6289 152.857 66.6289C154.99 66.6289 156.76 67.2676 158.166 68.5449C159.584 69.8223 160.34 71.4805 160.434 73.5195H157.357C157.264 72.2891 156.795 71.2812 155.951 70.4961C155.119 69.6992 154.088 69.3008 152.857 69.3008C151.205 69.3008 149.922 69.8984 149.008 71.0938C148.105 72.2773 147.654 73.9941 147.654 76.2441V76.8594C147.654 79.0508 148.105 80.7383 149.008 81.9219C149.91 83.1055 151.199 83.6973 152.875 83.6973Z" fill="white"/>
<path d="M175.832 84.1191C174.566 85.6074 172.709 86.3516 170.26 86.3516C168.232 86.3516 166.686 85.7656 165.619 84.5938C164.564 83.4102 164.031 81.6641 164.02 79.3555V66.9805H167.271V79.2676C167.271 82.1504 168.443 83.5918 170.787 83.5918C173.271 83.5918 174.924 82.666 175.744 80.8145V66.9805H178.996V86H175.902L175.832 84.1191Z" fill="white"/>
<path d="M187.486 86H184.234V59H187.486V86Z" fill="white"/>
<path d="M204.449 86C204.262 85.625 204.109 84.957 203.992 83.9961C202.48 85.5664 200.676 86.3516 198.578 86.3516C196.703 86.3516 195.162 85.8242 193.955 84.7695C192.76 83.7031 192.162 82.3555 192.162 80.7266C192.162 78.7461 192.912 77.2109 194.412 76.1211C195.924 75.0195 198.045 74.4688 200.775 74.4688H203.939V72.9746C203.939 71.8379 203.6 70.9355 202.92 70.2676C202.24 69.5879 201.238 69.248 199.914 69.248C198.754 69.248 197.781 69.541 196.996 70.127C196.211 70.7129 195.818 71.4219 195.818 72.2539H192.549C192.549 71.3047 192.883 70.3906 193.551 69.5117C194.23 68.6211 195.145 67.918 196.293 67.4023C197.453 66.8867 198.725 66.6289 200.107 66.6289C202.299 66.6289 204.016 67.1797 205.258 68.2812C206.5 69.3711 207.145 70.877 207.191 72.7988V81.5527C207.191 83.2988 207.414 84.6875 207.859 85.7188V86H204.449ZM199.053 83.5215C200.072 83.5215 201.039 83.2578 201.953 82.7305C202.867 82.2031 203.529 81.5176 203.939 80.6738V76.7715H201.391C197.406 76.7715 195.414 77.9375 195.414 80.2695C195.414 81.2891 195.754 82.0859 196.434 82.6602C197.113 83.2344 197.986 83.5215 199.053 83.5215Z" fill="white"/>
<path d="M229.111 86.3516C226.533 86.3516 224.436 85.5078 222.818 83.8203C221.201 82.1211 220.393 79.8535 220.393 77.0176V76.4199C220.393 74.5332 220.75 72.8516 221.465 71.375C222.191 69.8867 223.199 68.7266 224.488 67.8945C225.789 67.0508 227.195 66.6289 228.707 66.6289C231.18 66.6289 233.102 67.4434 234.473 69.0723C235.844 70.7012 236.529 73.0332 236.529 76.0684V77.4219H223.645C223.691 79.2969 224.236 80.8145 225.279 81.9746C226.334 83.123 227.67 83.6973 229.287 83.6973C230.436 83.6973 231.408 83.4629 232.205 82.9941C233.002 82.5254 233.699 81.9043 234.297 81.1309L236.283 82.6777C234.689 85.127 232.299 86.3516 229.111 86.3516ZM228.707 69.3008C227.395 69.3008 226.293 69.7812 225.402 70.7422C224.512 71.6914 223.961 73.0273 223.75 74.75H233.277V74.5039C233.184 72.8516 232.738 71.5742 231.941 70.6719C231.145 69.7578 230.066 69.3008 228.707 69.3008Z" fill="white"/>
<path d="M243.842 86H240.59V59H243.842V86Z" fill="white"/>
<path d="M264.268 81.5879L268.979 66.9805H272.301L265.48 86H263.002L256.111 66.9805H259.434L264.268 81.5879Z" fill="white"/>
<path d="M286.891 86C286.703 85.625 286.551 84.957 286.434 83.9961C284.922 85.5664 283.117 86.3516 281.02 86.3516C279.145 86.3516 277.604 85.8242 276.396 84.7695C275.201 83.7031 274.604 82.3555 274.604 80.7266C274.604 78.7461 275.354 77.2109 276.854 76.1211C278.365 75.0195 280.486 74.4688 283.217 74.4688H286.381V72.9746C286.381 71.8379 286.041 70.9355 285.361 70.2676C284.682 69.5879 283.68 69.248 282.355 69.248C281.195 69.248 280.223 69.541 279.438 70.127C278.652 70.7129 278.26 71.4219 278.26 72.2539H274.99C274.99 71.3047 275.324 70.3906 275.992 69.5117C276.672 68.6211 277.586 67.918 278.734 67.4023C279.895 66.8867 281.166 66.6289 282.549 66.6289C284.74 66.6289 286.457 67.1797 287.699 68.2812C288.941 69.3711 289.586 70.877 289.633 72.7988V81.5527C289.633 83.2988 289.855 84.6875 290.301 85.7188V86H286.891ZM281.494 83.5215C282.514 83.5215 283.48 83.2578 284.395 82.7305C285.309 82.2031 285.971 81.5176 286.381 80.6738V76.7715H283.832C279.848 76.7715 277.855 77.9375 277.855 80.2695C277.855 81.2891 278.195 82.0859 278.875 82.6602C279.555 83.2344 280.428 83.5215 281.494 83.5215Z" fill="white"/>
<path d="M298.264 86H295.012V59H298.264V86Z" fill="white"/>
<path d="M302.623 76.3145C302.623 74.4512 302.986 72.7754 303.713 71.2871C304.451 69.7988 305.471 68.6504 306.771 67.8418C308.084 67.0332 309.578 66.6289 311.254 66.6289C313.844 66.6289 315.936 67.5254 317.529 69.3184C319.135 71.1113 319.938 73.4961 319.938 76.4727V76.7012C319.938 78.5527 319.58 80.2168 318.865 81.6934C318.162 83.1582 317.148 84.3008 315.824 85.1211C314.512 85.9414 313 86.3516 311.289 86.3516C308.711 86.3516 306.619 85.4551 305.014 83.6621C303.42 81.8691 302.623 79.4961 302.623 76.543V76.3145ZM305.893 76.7012C305.893 78.8105 306.379 80.5039 307.352 81.7812C308.336 83.0586 309.648 83.6973 311.289 83.6973C312.941 83.6973 314.254 83.0527 315.227 81.7637C316.199 80.4629 316.686 78.6465 316.686 76.3145C316.686 74.2285 316.188 72.541 315.191 71.252C314.207 69.9512 312.895 69.3008 311.254 69.3008C309.648 69.3008 308.354 69.9395 307.369 71.2168C306.385 72.4941 305.893 74.3223 305.893 76.7012Z" fill="white"/>
<path d="M333.209 69.8984C332.717 69.8164 332.184 69.7754 331.609 69.7754C329.477 69.7754 328.029 70.6836 327.268 72.5V86H324.016V66.9805H327.18L327.232 69.1777C328.299 67.4785 329.811 66.6289 331.768 66.6289C332.4 66.6289 332.881 66.7109 333.209 66.875V69.8984Z" fill="white"/>
<path d="M344.354 76.332C344.354 73.4141 345.045 71.0703 346.428 69.3008C347.811 67.5195 349.621 66.6289 351.859 66.6289C354.086 66.6289 355.85 67.3906 357.15 68.9141V59H360.402V86H357.414L357.256 83.9609C355.955 85.5547 354.145 86.3516 351.824 86.3516C349.621 86.3516 347.822 85.4492 346.428 83.6445C345.045 81.8398 344.354 79.4844 344.354 76.5781V76.332ZM347.605 76.7012C347.605 78.8574 348.051 80.5449 348.941 81.7637C349.832 82.9824 351.062 83.5918 352.633 83.5918C354.695 83.5918 356.201 82.666 357.15 80.8145V72.0781C356.178 70.2852 354.684 69.3887 352.668 69.3887C351.074 69.3887 349.832 70.0039 348.941 71.2344C348.051 72.4648 347.605 74.2871 347.605 76.7012Z" fill="white"/>
<path d="M373.357 86.3516C370.779 86.3516 368.682 85.5078 367.064 83.8203C365.447 82.1211 364.639 79.8535 364.639 77.0176V76.4199C364.639 74.5332 364.996 72.8516 365.711 71.375C366.438 69.8867 367.445 68.7266 368.734 67.8945C370.035 67.0508 371.441 66.6289 372.953 66.6289C375.426 66.6289 377.348 67.4434 378.719 69.0723C380.09 70.7012 380.775 73.0332 380.775 76.0684V77.4219H367.891C367.938 79.2969 368.482 80.8145 369.525 81.9746C370.58 83.123 371.916 83.6973 373.533 83.6973C374.682 83.6973 375.654 83.4629 376.451 82.9941C377.248 82.5254 377.945 81.9043 378.543 81.1309L380.529 82.6777C378.936 85.127 376.545 86.3516 373.357 86.3516ZM372.953 69.3008C371.641 69.3008 370.539 69.7812 369.648 70.7422C368.758 71.6914 368.207 73.0273 367.996 74.75H377.523V74.5039C377.43 72.8516 376.984 71.5742 376.188 70.6719C375.391 69.7578 374.312 69.3008 372.953 69.3008Z" fill="white"/>
<path d="M395.945 76.3672L400.48 83.3457H398.002L392.816 76.5254V76.1914L398.002 69.3535H400.48L395.945 76.3672ZM401.746 76.3672L406.281 83.3457H403.803L398.617 76.5254V76.1914L403.803 69.3535H406.281L401.746 76.3672Z" fill="white"/>
<path d="M416.775 73.9238L420.994 66.9805H424.791L418.568 76.3848L424.984 86H421.223L416.828 78.8809L412.434 86H408.654L415.07 76.3848L408.848 66.9805H412.609L416.775 73.9238Z" fill="white"/>
<path d="M430.082 69.3184L435.268 76.1562V76.4902L430.082 83.3281H427.586L432.121 76.332L427.586 69.3184H430.082ZM436.217 69.3184L441.402 76.1562V76.4902L436.217 83.3281H433.721L438.256 76.332L433.721 69.3184H436.217Z" fill="white"/>
<path d="M445.199 84.2949C445.199 83.7324 445.363 83.2637 445.691 82.8887C446.031 82.5137 446.535 82.3262 447.203 82.3262C447.871 82.3262 448.375 82.5137 448.715 82.8887C449.066 83.2637 449.242 83.7324 449.242 84.2949C449.242 84.834 449.066 85.2852 448.715 85.6484C448.375 86.0117 447.871 86.1934 447.203 86.1934C446.535 86.1934 446.031 86.0117 445.691 85.6484C445.363 85.2852 445.199 84.834 445.199 84.2949Z" fill="white"/>
</g>
<g id="12 (15) 18 20 (29) 38 36 ( x ) 12">
<path d="M364.374 149H360.196V121.306L351.818 124.383V120.609L363.723 116.14H364.374V149Z" fill="white"/>
<path d="M397.976 149H376.548V146.013L387.868 133.435C389.545 131.533 390.698 129.991 391.327 128.808C391.971 127.61 392.293 126.374 392.293 125.102C392.293 123.395 391.776 121.994 390.743 120.901C389.71 119.808 388.332 119.262 386.61 119.262C384.544 119.262 382.934 119.853 381.781 121.036C380.643 122.204 380.074 123.836 380.074 125.933H375.919C375.919 122.923 376.885 120.49 378.816 118.633C380.763 116.776 383.361 115.848 386.61 115.848C389.65 115.848 392.053 116.649 393.82 118.251C395.587 119.838 396.471 121.957 396.471 124.607C396.471 127.827 394.419 131.66 390.316 136.107L381.557 145.608H397.976V149Z" fill="white"/>
<path d="M448.288 135.726C448.288 132.341 448.737 129.092 449.636 125.978C450.549 122.863 451.904 120.033 453.701 117.487C455.498 114.942 457.362 113.145 459.294 112.097L460.147 114.837C457.961 116.514 456.164 119.075 454.757 122.519C453.364 125.963 452.601 129.818 452.466 134.086L452.443 135.995C452.443 141.775 453.499 146.791 455.61 151.044C456.883 153.59 458.396 155.581 460.147 157.019L459.294 159.557C457.302 158.449 455.401 156.592 453.589 153.986C450.055 148.895 448.288 142.808 448.288 135.726Z" fill="white"/>
<path d="M477.397 149H473.22V121.306L464.842 124.383V120.609L476.746 116.14H477.397V149Z" fill="white"/>
<path d="M491.48 132.604L493.143 116.297H509.898V120.138H496.669L495.681 129.055C497.283 128.111 499.102 127.64 501.139 127.64C504.118 127.64 506.484 128.628 508.236 130.604C509.988 132.566 510.864 135.224 510.864 138.578C510.864 141.947 509.951 144.605 508.124 146.552C506.312 148.483 503.774 149.449 500.51 149.449C497.62 149.449 495.261 148.648 493.435 147.046C491.608 145.444 490.567 143.228 490.312 140.397H494.243C494.498 142.269 495.164 143.684 496.242 144.643C497.32 145.586 498.743 146.058 500.51 146.058C502.441 146.058 503.954 145.399 505.047 144.081C506.155 142.763 506.709 140.944 506.709 138.623C506.709 136.437 506.11 134.685 504.912 133.367C503.729 132.035 502.149 131.368 500.173 131.368C498.361 131.368 496.938 131.765 495.905 132.559L494.805 133.457L491.48 132.604Z" fill="white"/>
<path d="M525.419 135.95C525.419 139.289 524.977 142.494 524.094 145.563C523.225 148.618 521.885 151.441 520.073 154.031C518.276 156.622 516.39 158.464 514.413 159.557L513.537 157.019C515.843 155.252 517.692 152.511 519.085 148.798C520.493 145.069 521.211 140.937 521.241 136.399V135.681C521.241 132.536 520.912 129.616 520.253 126.921C519.594 124.211 518.673 121.785 517.49 119.644C516.322 117.502 515.005 115.833 513.537 114.635L514.413 112.097C516.39 113.19 518.269 115.017 520.051 117.577C521.848 120.138 523.188 122.96 524.071 126.045C524.97 129.13 525.419 132.431 525.419 135.95Z" fill="white"/>
<path d="M602.101 149H597.923V121.306L589.545 124.383V120.609L601.449 116.14H602.101V149Z" fill="white"/>
<path d="M634.107 124.832C634.107 126.464 633.673 127.917 632.805 129.189C631.951 130.462 630.791 131.458 629.323 132.177C631.03 132.91 632.378 133.981 633.366 135.389C634.369 136.796 634.871 138.391 634.871 140.173C634.871 143.003 633.913 145.257 631.996 146.934C630.094 148.611 627.586 149.449 624.472 149.449C621.327 149.449 618.804 148.611 616.902 146.934C615.016 145.242 614.072 142.988 614.072 140.173C614.072 138.406 614.551 136.811 615.51 135.389C616.483 133.966 617.823 132.888 619.53 132.154C618.078 131.436 616.932 130.44 616.094 129.167C615.255 127.894 614.836 126.449 614.836 124.832C614.836 122.077 615.719 119.891 617.486 118.273C619.253 116.656 621.582 115.848 624.472 115.848C627.347 115.848 629.668 116.656 631.435 118.273C633.216 119.891 634.107 122.077 634.107 124.832ZM630.716 140.083C630.716 138.256 630.132 136.766 628.964 135.613C627.811 134.46 626.299 133.884 624.427 133.884C622.555 133.884 621.05 134.453 619.912 135.591C618.789 136.729 618.228 138.226 618.228 140.083C618.228 141.94 618.774 143.4 619.867 144.463C620.975 145.526 622.51 146.058 624.472 146.058C626.418 146.058 627.946 145.526 629.054 144.463C630.162 143.385 630.716 141.925 630.716 140.083ZM624.472 119.262C622.84 119.262 621.514 119.771 620.496 120.789C619.493 121.792 618.991 123.162 618.991 124.899C618.991 126.562 619.485 127.909 620.474 128.942C621.477 129.961 622.81 130.47 624.472 130.47C626.134 130.47 627.459 129.961 628.447 128.942C629.451 127.909 629.952 126.562 629.952 124.899C629.952 123.237 629.436 121.882 628.402 120.834C627.369 119.786 626.059 119.262 624.472 119.262Z" fill="white"/>
<path d="M372.146 226H350.718V223.013L362.038 210.435C363.715 208.533 364.868 206.991 365.497 205.808C366.141 204.61 366.463 203.374 366.463 202.102C366.463 200.395 365.946 198.994 364.913 197.901C363.88 196.808 362.502 196.262 360.78 196.262C358.714 196.262 357.104 196.853 355.951 198.036C354.813 199.204 354.244 200.836 354.244 202.933H350.089C350.089 199.923 351.055 197.49 352.986 195.633C354.933 193.776 357.531 192.848 360.78 192.848C363.82 192.848 366.223 193.649 367.99 195.251C369.757 196.838 370.641 198.957 370.641 201.607C370.641 204.827 368.589 208.66 364.486 213.107L355.727 222.608H372.146V226Z" fill="white"/>
<path d="M397.055 212.052C397.055 216.918 396.224 220.535 394.562 222.9C392.899 225.266 390.301 226.449 386.768 226.449C383.279 226.449 380.696 225.296 379.019 222.99C377.341 220.669 376.473 217.21 376.413 212.613V207.065C376.413 202.259 377.244 198.688 378.906 196.352C380.568 194.016 383.174 192.848 386.723 192.848C390.242 192.848 392.832 193.978 394.494 196.239C396.156 198.485 397.01 201.959 397.055 206.661V212.052ZM392.899 206.369C392.899 202.85 392.405 200.29 391.417 198.688C390.429 197.07 388.864 196.262 386.723 196.262C384.596 196.262 383.047 197.063 382.073 198.665C381.1 200.267 380.598 202.73 380.568 206.055V212.703C380.568 216.237 381.077 218.85 382.096 220.542C383.129 222.219 384.686 223.058 386.768 223.058C388.819 223.058 390.339 222.264 391.327 220.677C392.33 219.09 392.854 216.589 392.899 213.175V206.369Z" fill="white"/>
<path d="M459.698 212.726C459.698 209.341 460.147 206.092 461.046 202.978C461.959 199.863 463.314 197.033 465.111 194.487C466.908 191.942 468.772 190.145 470.704 189.097L471.558 191.837C469.371 193.514 467.575 196.075 466.167 199.519C464.774 202.963 464.011 206.818 463.876 211.086L463.854 212.995C463.854 218.775 464.909 223.791 467.021 228.044C468.293 230.59 469.806 232.581 471.558 234.019L470.704 236.557C468.713 235.449 466.811 233.592 464.999 230.986C461.465 225.895 459.698 219.808 459.698 212.726Z" fill="white"/>
<path d="M496.579 226H475.151V223.013L486.472 210.435C488.149 208.533 489.302 206.991 489.931 205.808C490.575 204.61 490.896 203.374 490.896 202.102C490.896 200.395 490.38 198.994 489.347 197.901C488.313 196.808 486.936 196.262 485.214 196.262C483.147 196.262 481.538 196.853 480.385 198.036C479.247 199.204 478.678 200.836 478.678 202.933H474.522C474.522 199.923 475.488 197.49 477.42 195.633C479.367 193.776 481.965 192.848 485.214 192.848C488.254 192.848 490.657 193.649 492.424 195.251C494.191 196.838 495.074 198.957 495.074 201.607C495.074 204.827 493.023 208.66 488.92 213.107L480.16 222.608H496.579V226Z" fill="white"/>
<path d="M516.906 211.625C516.038 212.658 514.997 213.489 513.784 214.118C512.586 214.747 511.269 215.062 509.831 215.062C507.944 215.062 506.297 214.597 504.89 213.669C503.497 212.741 502.419 211.438 501.655 209.761C500.892 208.069 500.51 206.204 500.51 204.168C500.51 201.982 500.922 200.013 501.745 198.261C502.584 196.509 503.767 195.169 505.294 194.24C506.821 193.312 508.603 192.848 510.64 192.848C513.874 192.848 516.42 194.061 518.276 196.486C520.148 198.897 521.084 202.191 521.084 206.369V207.582C521.084 213.946 519.826 218.595 517.311 221.53C514.795 224.45 510.999 225.948 505.923 226.022H505.114V222.519H505.99C509.419 222.459 512.055 221.568 513.896 219.846C515.738 218.109 516.742 215.368 516.906 211.625ZM510.505 211.625C511.897 211.625 513.178 211.198 514.346 210.345C515.529 209.491 516.39 208.436 516.929 207.178V205.516C516.929 202.79 516.337 200.574 515.154 198.867C513.971 197.16 512.474 196.307 510.662 196.307C508.835 196.307 507.368 197.01 506.26 198.418C505.152 199.811 504.598 201.652 504.598 203.943C504.598 206.174 505.129 208.016 506.192 209.469C507.271 210.906 508.708 211.625 510.505 211.625Z" fill="white"/>
<path d="M536.829 212.95C536.829 216.289 536.387 219.494 535.504 222.563C534.635 225.618 533.295 228.441 531.483 231.031C529.687 233.622 527.8 235.464 525.823 236.557L524.947 234.019C527.253 232.252 529.103 229.511 530.495 225.798C531.903 222.069 532.621 217.937 532.651 213.399V212.681C532.651 209.536 532.322 206.616 531.663 203.921C531.004 201.211 530.083 198.785 528.9 196.644C527.732 194.502 526.415 192.833 524.947 191.635L525.823 189.097C527.8 190.19 529.679 192.017 531.461 194.577C533.258 197.138 534.598 199.96 535.481 203.045C536.38 206.13 536.829 209.431 536.829 212.95Z" fill="white"/>
<path d="M605.896 207.627H609.019C610.98 207.597 612.522 207.08 613.646 206.077C614.769 205.074 615.33 203.719 615.33 202.012C615.33 198.178 613.421 196.262 609.603 196.262C607.806 196.262 606.368 196.778 605.29 197.812C604.227 198.83 603.695 200.185 603.695 201.877H599.54C599.54 199.286 600.483 197.138 602.37 195.431C604.272 193.709 606.683 192.848 609.603 192.848C612.687 192.848 615.105 193.664 616.857 195.296C618.609 196.928 619.485 199.197 619.485 202.102C619.485 203.524 619.021 204.902 618.093 206.234C617.179 207.567 615.929 208.563 614.342 209.222C616.139 209.791 617.524 210.734 618.497 212.052C619.485 213.369 619.979 214.979 619.979 216.881C619.979 219.816 619.021 222.144 617.104 223.866C615.188 225.588 612.695 226.449 609.625 226.449C606.555 226.449 604.055 225.618 602.123 223.956C600.206 222.294 599.248 220.1 599.248 217.375H603.426C603.426 219.097 603.987 220.475 605.11 221.508C606.233 222.541 607.738 223.058 609.625 223.058C611.632 223.058 613.166 222.534 614.229 221.485C615.293 220.437 615.824 218.932 615.824 216.971C615.824 215.069 615.24 213.609 614.072 212.591C612.904 211.573 611.22 211.049 609.019 211.019H605.896V207.627Z" fill="white"/>
<path d="M645.518 201.832C645.518 203.464 645.083 204.917 644.215 206.189C643.361 207.462 642.201 208.458 640.733 209.177C642.44 209.91 643.788 210.981 644.776 212.389C645.78 213.796 646.281 215.391 646.281 217.173C646.281 220.003 645.323 222.257 643.406 223.934C641.505 225.611 638.996 226.449 635.882 226.449C632.737 226.449 630.214 225.611 628.312 223.934C626.426 222.242 625.482 219.988 625.482 217.173C625.482 215.406 625.962 213.811 626.92 212.389C627.893 210.966 629.233 209.888 630.94 209.154C629.488 208.436 628.342 207.44 627.504 206.167C626.665 204.894 626.246 203.449 626.246 201.832C626.246 199.077 627.13 196.891 628.896 195.273C630.663 193.656 632.992 192.848 635.882 192.848C638.757 192.848 641.078 193.656 642.845 195.273C644.627 196.891 645.518 199.077 645.518 201.832ZM642.126 217.083C642.126 215.256 641.542 213.766 640.374 212.613C639.221 211.46 637.709 210.884 635.837 210.884C633.965 210.884 632.46 211.453 631.322 212.591C630.199 213.729 629.638 215.226 629.638 217.083C629.638 218.94 630.184 220.4 631.277 221.463C632.385 222.526 633.92 223.058 635.882 223.058C637.828 223.058 639.356 222.526 640.464 221.463C641.572 220.385 642.126 218.925 642.126 217.083ZM635.882 196.262C634.25 196.262 632.924 196.771 631.906 197.789C630.903 198.792 630.401 200.162 630.401 201.899C630.401 203.562 630.896 204.909 631.884 205.942C632.887 206.961 634.22 207.47 635.882 207.47C637.544 207.47 638.869 206.961 639.857 205.942C640.861 204.909 641.362 203.562 641.362 201.899C641.362 200.237 640.846 198.882 639.812 197.834C638.779 196.786 637.469 196.262 635.882 196.262Z" fill="white"/>
<path d="M368.17 284.627H371.292C373.254 284.597 374.796 284.08 375.919 283.077C377.042 282.074 377.604 280.719 377.604 279.012C377.604 275.178 375.694 273.262 371.876 273.262C370.079 273.262 368.642 273.778 367.563 274.812C366.5 275.83 365.969 277.185 365.969 278.877H361.813C361.813 276.286 362.757 274.138 364.644 272.431C366.545 270.709 368.956 269.848 371.876 269.848C374.961 269.848 377.379 270.664 379.131 272.296C380.883 273.928 381.759 276.197 381.759 279.102C381.759 280.524 381.295 281.902 380.366 283.234C379.453 284.567 378.202 285.563 376.615 286.222C378.412 286.791 379.797 287.734 380.771 289.052C381.759 290.369 382.253 291.979 382.253 293.881C382.253 296.816 381.295 299.144 379.378 300.866C377.461 302.588 374.968 303.449 371.898 303.449C368.829 303.449 366.328 302.618 364.396 300.956C362.48 299.294 361.521 297.1 361.521 294.375H365.699C365.699 296.097 366.261 297.475 367.384 298.508C368.507 299.541 370.012 300.058 371.898 300.058C373.905 300.058 375.44 299.534 376.503 298.485C377.566 297.437 378.098 295.932 378.098 293.971C378.098 292.069 377.514 290.609 376.346 289.591C375.178 288.573 373.493 288.049 371.292 288.019H368.17V284.627Z" fill="white"/>
<path d="M404.265 270.274V273.801H403.501C400.267 273.861 397.691 274.819 395.774 276.676C393.858 278.533 392.75 281.146 392.45 284.515C394.172 282.538 396.523 281.55 399.503 281.55C402.348 281.55 404.617 282.553 406.309 284.56C408.016 286.566 408.869 289.157 408.869 292.331C408.869 295.7 407.948 298.396 406.106 300.417C404.28 302.438 401.824 303.449 398.739 303.449C395.61 303.449 393.072 302.251 391.125 299.855C389.178 297.445 388.205 294.345 388.205 290.557V288.962C388.205 282.942 389.485 278.345 392.046 275.171C394.621 271.981 398.447 270.349 403.523 270.274H404.265ZM398.807 285.009C397.384 285.009 396.074 285.436 394.876 286.289C393.678 287.143 392.847 288.213 392.383 289.501V291.028C392.383 293.724 392.989 295.895 394.202 297.542C395.415 299.189 396.927 300.013 398.739 300.013C400.611 300.013 402.078 299.324 403.142 297.946C404.22 296.569 404.759 294.764 404.759 292.533C404.759 290.287 404.212 288.475 403.119 287.098C402.041 285.705 400.604 285.009 398.807 285.009Z" fill="white"/>
<path d="M459.698 289.726C459.698 286.341 460.147 283.092 461.046 279.978C461.959 276.863 463.314 274.033 465.111 271.487C466.908 268.942 468.772 267.145 470.704 266.097L471.558 268.837C469.371 270.514 467.575 273.075 466.167 276.519C464.774 279.963 464.011 283.818 463.876 288.086L463.854 289.995C463.854 295.775 464.909 300.791 467.021 305.044C468.293 307.59 469.806 309.581 471.558 311.019L470.704 313.557C468.713 312.449 466.811 310.592 464.999 307.986C461.465 302.895 459.698 296.808 459.698 289.726Z" fill="white"/>
<path d="M495.142 287.569L500.532 278.697H505.384L497.433 290.714L505.631 303H500.824L495.209 293.903L489.594 303H484.765L492.963 290.714L485.012 278.697H489.818L495.142 287.569Z" fill="white"/>
<path d="M530.81 289.95C530.81 293.289 530.368 296.494 529.484 299.563C528.616 302.618 527.276 305.441 525.464 308.031C523.667 310.622 521.78 312.464 519.804 313.557L518.928 311.019C521.234 309.252 523.083 306.511 524.476 302.798C525.883 299.069 526.602 294.937 526.632 290.399V289.681C526.632 286.536 526.302 283.616 525.644 280.921C524.985 278.211 524.064 275.785 522.881 273.644C521.713 271.502 520.395 269.833 518.928 268.635L519.804 266.097C521.78 267.19 523.66 269.017 525.441 271.577C527.238 274.138 528.578 276.96 529.462 280.045C530.36 283.13 530.81 286.431 530.81 289.95Z" fill="white"/>
<path d="M618.901 303H614.724V275.306L606.346 278.383V274.609L618.25 270.14H618.901V303Z" fill="white"/>
<path d="M652.503 303H631.075V300.013L642.396 287.435C644.073 285.533 645.226 283.991 645.854 282.808C646.498 281.61 646.82 280.374 646.82 279.102C646.82 277.395 646.304 275.994 645.271 274.901C644.237 273.808 642.86 273.262 641.138 273.262C639.071 273.262 637.462 273.853 636.309 275.036C635.171 276.204 634.602 277.836 634.602 279.933H630.446C630.446 276.923 631.412 274.49 633.344 272.633C635.29 270.776 637.888 269.848 641.138 269.848C644.177 269.848 646.581 270.649 648.348 272.251C650.115 273.838 650.998 275.957 650.998 278.607C650.998 281.827 648.947 285.66 644.844 290.107L636.084 299.608H652.503V303Z" fill="white"/>
</g>
<g id="flecha">
<path id="Rectangle 2" d="M58.2001 401.008L73.4819 409.133L31.5003 488.089L16.2185 479.963L58.2001 401.008Z" fill="#1043F5"/>
<path id="Rectangle 1_2" d="M0 413.904L90 364V421.692L45 404.096L0 413.904Z" fill="#1043F5"/>
<path id="Rectangle 3" d="M4.03845 483.21L19.6656 456.143L36.9362 455.565L21.3091 482.632L4.03845 483.21Z" fill="#1043F5"/>
<path id="Rectangle 4_2" d="M30.0895 497.845L45.7166 470.778L36.9259 455.154L21.2987 482.221L30.0895 497.845Z" fill="#1043F5"/>
</g>
</g>
</svg>
