<svg viewBox="0 0 975 622" fill="none" xmlns="http://www.w3.org/2000/svg">
<g id="0119110">
<g id="Group 8">
<path id="Rectangle 1" d="M63 50.4762C63 24.1769 84.3794 2.85718 110.752 2.85718H934V332.381C934 358.68 912.62 380 886.247 380H63V50.4762Z" fill="#02071A"/>
<path id="Rectangle 1 (Stroke)" fill-rule="evenodd" clip-rule="evenodd" d="M929.224 7.61908H110.752C87.0167 7.61908 67.7752 26.8069 67.7752 50.4762V375.238H886.247C909.983 375.238 929.224 356.05 929.224 332.381V7.61908ZM110.752 2.85718C84.3794 2.85718 63 24.1769 63 50.4762V380H886.247C912.62 380 934 358.68 934 332.381V2.85718H110.752Z" fill="#CD08D1"/>
<path id="Rectangle 14" d="M114.716 2.92611C140.256 -3.65764 934 2.92611 934 2.92611V31.4286C934 31.4286 101.202 20.9524 71.5955 31.4286C80.8076 16.3113 89.1755 9.50987 114.716 2.92611Z" fill="#CD08D1"/>
<path id="Rectangle 15" d="M905.349 2.85718H934V333.333C930.483 355.76 923.194 364.003 905.349 374.762C910.601 357.143 905.349 2.85718 905.349 2.85718Z" fill="#CD08D1"/>
</g>
<g id="claves01">
<path id="Rectangle 4" d="M39 412H255.745L289 452L255.745 492H39V412Z" fill="#CD08D1" fill-opacity="0.1"/>
<path id="Rectangle 4 (Stroke)" fill-rule="evenodd" clip-rule="evenodd" d="M254.338 415H42V489H254.338L285.099 452L254.338 415ZM255.745 412H39V492H255.745L289 452L255.745 412Z" fill="#CD08D1"/>
<path id="Rectangle 5" d="M43 522H259.745L293 562L259.745 602H43V522Z" fill="#CD08D1" fill-opacity="0.1"/>
<path id="Rectangle 5 (Stroke)" fill-rule="evenodd" clip-rule="evenodd" d="M258.338 525H46V599H258.338L289.099 562L258.338 525ZM259.745 522H43V602H259.745L293 562L259.745 522Z" fill="#CD08D1"/>
<path id="Rectangle 6" d="M379 409H595.745L629 449L595.745 489H379V409Z" fill="#CD08D1" fill-opacity="0.1"/>
<path id="Rectangle 6 (Stroke)" fill-rule="evenodd" clip-rule="evenodd" d="M594.338 412H382V486H594.338L625.099 449L594.338 412ZM595.745 409H379V489H595.745L629 449L595.745 409Z" fill="#CD08D1"/>
<path id="Rectangle 7" d="M382 519H598.745L632 559L598.745 599H382V519Z" fill="#CD08D1" fill-opacity="0.1"/>
<path id="Rectangle 7 (Stroke)" fill-rule="evenodd" clip-rule="evenodd" d="M597.338 522H385V596H597.338L628.099 559L597.338 522ZM598.745 519H382V599H598.745L632 559L598.745 519Z" fill="#CD08D1"/>
<path id="Rectangle 8" d="M725 468H941.745L975 508L941.745 548H725V468Z" fill="#CD08D1" fill-opacity="0.1"/>
<path id="Rectangle 8 (Stroke)" fill-rule="evenodd" clip-rule="evenodd" d="M940.338 471H728V545H940.338L971.099 508L940.338 471ZM941.745 468H725V548H941.745L975 508L941.745 468Z" fill="#CD08D1"/>
<path id="Ellipse 1" d="M80 452C80 474.091 62.0914 492 40 492C17.9086 492 0 474.091 0 452C0 429.909 17.9086 412 40 412C62.0914 412 80 429.909 80 452Z" fill="#CD08D1"/>
<path id="Ellipse 2" d="M84 562C84 584.091 66.0914 602 44 602C21.9086 602 4 584.091 4 562C4 539.909 21.9086 522 44 522C66.0914 522 84 539.909 84 562Z" fill="#CD08D1"/>
<path id="Ellipse 3" d="M420 449C420 471.091 402.091 489 380 489C357.909 489 340 471.091 340 449C340 426.909 357.909 409 380 409C402.091 409 420 426.909 420 449Z" fill="#CD08D1"/>
<path id="Ellipse 4" d="M423 559C423 581.091 405.091 599 383 599C360.909 599 343 581.091 343 559C343 536.909 360.909 519 383 519C405.091 519 423 536.909 423 559Z" fill="#CD08D1"/>
<path id="Ellipse 5" d="M766 508C766 530.091 748.091 548 726 548C703.909 548 686 530.091 686 508C686 485.909 703.909 468 726 468C748.091 468 766 485.909 766 508Z" fill="#CD08D1"/>
<path id="A" d="M48.0938 462.406H30.4688L26.7812 473H18.5625L35.75 427.5H42.8438L60.0625 473H51.8125L48.0938 462.406ZM32.6875 456.031H45.875L39.2812 437.156L32.6875 456.031Z" fill="white"/>
<path id="B" d="M27.625 578V532.5H43.2188C48.3646 532.5 52.2812 533.531 54.9688 535.594C57.6562 537.656 59 540.729 59 544.812C59 546.896 58.4375 548.771 57.3125 550.438C56.1875 552.104 54.5417 553.396 52.375 554.312C54.8333 554.979 56.7292 556.24 58.0625 558.094C59.4167 559.927 60.0938 562.135 60.0938 564.719C60.0938 568.99 58.7188 572.271 55.9688 574.562C53.2396 576.854 49.3229 578 44.2188 578H27.625ZM35.5312 557.469V571.688H44.3125C46.7917 571.688 48.7292 571.073 50.125 569.844C51.5208 568.615 52.2188 566.906 52.2188 564.719C52.2188 559.99 49.8021 557.573 44.9688 557.469H35.5312ZM35.5312 551.656H43.2812C45.7396 551.656 47.6562 551.104 49.0312 550C50.4271 548.875 51.125 547.292 51.125 545.25C51.125 543 50.4792 541.375 49.1875 540.375C47.9167 539.375 45.9271 538.875 43.2188 538.875H35.5312V551.656Z" fill="white"/>
<path id="C" d="M397.344 456.188C396.885 461.042 395.094 464.833 391.969 467.562C388.844 470.271 384.688 471.625 379.5 471.625C375.875 471.625 372.677 470.771 369.906 469.062C367.156 467.333 365.031 464.885 363.531 461.719C362.031 458.552 361.25 454.875 361.188 450.688V446.438C361.188 442.146 361.948 438.365 363.469 435.094C364.99 431.823 367.167 429.302 370 427.531C372.854 425.76 376.146 424.875 379.875 424.875C384.896 424.875 388.938 426.24 392 428.969C395.062 431.698 396.844 435.552 397.344 440.531H389.469C389.094 437.26 388.135 434.906 386.594 433.469C385.073 432.01 382.833 431.281 379.875 431.281C376.438 431.281 373.792 432.542 371.938 435.062C370.104 437.562 369.167 441.24 369.125 446.094V450.125C369.125 455.042 370 458.792 371.75 461.375C373.521 463.958 376.104 465.25 379.5 465.25C382.604 465.25 384.938 464.552 386.5 463.156C388.062 461.76 389.052 459.438 389.469 456.188H397.344Z" fill="white"/>
<path id="D" d="M365.625 581V535.5H379.062C383.083 535.5 386.646 536.396 389.75 538.188C392.875 539.979 395.292 542.521 397 545.812C398.708 549.104 399.562 552.875 399.562 557.125V559.406C399.562 563.719 398.698 567.51 396.969 570.781C395.26 574.052 392.812 576.573 389.625 578.344C386.458 580.115 382.823 581 378.719 581H365.625ZM373.531 541.875V574.688H378.688C382.833 574.688 386.01 573.396 388.219 570.812C390.448 568.208 391.583 564.479 391.625 559.625V557.094C391.625 552.156 390.552 548.385 388.406 545.781C386.26 543.177 383.146 541.875 379.062 541.875H373.531Z" fill="white"/>
<path id="E" d="M735.219 509.688H716.531V523.688H738.375V530H708.625V484.5H738.156V490.875H716.531V503.438H735.219V509.688Z" fill="white"/>
<g id="10">
<path d="M135.729 466H130.767V442.026L123.445 444.528V440.324L135.094 436.038H135.729V466Z" fill="#CD08D1"/>
<path d="M165.568 453.429C165.568 457.722 164.762 460.962 163.148 463.149C161.549 465.323 159.108 466.41 155.827 466.41C152.601 466.41 150.167 465.351 148.526 463.231C146.899 461.099 146.065 457.947 146.024 453.777V448.609C146.024 444.316 146.824 441.097 148.424 438.95C150.037 436.804 152.491 435.73 155.786 435.73C159.054 435.73 161.487 436.776 163.087 438.868C164.7 440.96 165.527 444.091 165.568 448.261V453.429ZM160.585 447.851C160.585 445.048 160.202 442.997 159.437 441.698C158.671 440.386 157.454 439.729 155.786 439.729C154.159 439.729 152.963 440.352 152.197 441.596C151.432 442.826 151.028 444.754 150.987 447.379V454.146C150.987 456.936 151.377 459.014 152.156 460.381C152.936 461.748 154.159 462.432 155.827 462.432C157.427 462.432 158.609 461.803 159.375 460.545C160.141 459.273 160.544 457.291 160.585 454.598V447.851Z" fill="#CD08D1"/>
</g>
<g id="15">
<path d="M135.729 581H130.767V557.026L123.445 559.528V555.324L135.094 551.038H135.729V581Z" fill="#CD08D1"/>
<path d="M147.439 566.193L149.06 551.141H165.097V555.447H153.202L152.382 562.584C153.763 561.791 155.321 561.395 157.058 561.395C159.901 561.395 162.109 562.304 163.682 564.122C165.268 565.94 166.061 568.388 166.061 571.464C166.061 574.499 165.186 576.919 163.436 578.724C161.686 580.515 159.286 581.41 156.237 581.41C153.503 581.41 151.233 580.638 149.429 579.093C147.638 577.534 146.667 575.483 146.517 572.94H151.336C151.527 574.39 152.047 575.504 152.895 576.283C153.742 577.049 154.85 577.432 156.217 577.432C157.748 577.432 158.938 576.885 159.785 575.791C160.646 574.697 161.077 573.207 161.077 571.32C161.077 569.502 160.605 568.066 159.662 567.014C158.719 565.947 157.42 565.414 155.766 565.414C154.863 565.414 154.098 565.537 153.469 565.783C152.84 566.016 152.156 566.48 151.418 567.178L147.439 566.193Z" fill="#CD08D1"/>
</g>
<g id="20">
<path d="M498.312 463H478.235V459.575L488.182 448.727C489.617 447.127 490.636 445.794 491.237 444.728C491.853 443.647 492.16 442.567 492.16 441.487C492.16 440.065 491.757 438.917 490.95 438.042C490.157 437.167 489.084 436.729 487.73 436.729C486.117 436.729 484.866 437.222 483.978 438.206C483.089 439.19 482.645 440.537 482.645 442.246H477.661C477.661 440.428 478.071 438.794 478.892 437.345C479.726 435.882 480.908 434.747 482.439 433.94C483.984 433.134 485.762 432.73 487.771 432.73C490.67 432.73 492.953 433.462 494.621 434.925C496.303 436.374 497.144 438.384 497.144 440.954C497.144 442.444 496.72 444.01 495.872 445.65C495.038 447.277 493.664 449.13 491.75 451.208L484.449 459.021H498.312V463Z" fill="#CD08D1"/>
<path d="M521.568 450.429C521.568 454.722 520.762 457.962 519.148 460.149C517.549 462.323 515.108 463.41 511.827 463.41C508.601 463.41 506.167 462.351 504.526 460.231C502.899 458.099 502.065 454.947 502.024 450.777V445.609C502.024 441.316 502.824 438.097 504.424 435.95C506.037 433.804 508.491 432.73 511.786 432.73C515.054 432.73 517.487 433.776 519.087 435.868C520.7 437.96 521.527 441.091 521.568 445.261V450.429ZM516.585 444.851C516.585 442.048 516.202 439.997 515.437 438.698C514.671 437.386 513.454 436.729 511.786 436.729C510.159 436.729 508.963 437.352 508.197 438.596C507.432 439.826 507.028 441.754 506.987 444.379V451.146C506.987 453.936 507.377 456.014 508.156 457.381C508.936 458.748 510.159 459.432 511.827 459.432C513.427 459.432 514.609 458.803 515.375 457.545C516.141 456.273 516.544 454.291 516.585 451.598V444.851Z" fill="#CD08D1"/>
</g>
<g id="25">
<path d="M498.312 572H478.235V568.575L488.182 557.727C489.617 556.127 490.636 554.794 491.237 553.728C491.853 552.647 492.16 551.567 492.16 550.487C492.16 549.065 491.757 547.917 490.95 547.042C490.157 546.167 489.084 545.729 487.73 545.729C486.117 545.729 484.866 546.222 483.978 547.206C483.089 548.19 482.645 549.537 482.645 551.246H477.661C477.661 549.428 478.071 547.794 478.892 546.345C479.726 544.882 480.908 543.747 482.439 542.94C483.984 542.134 485.762 541.73 487.771 541.73C490.67 541.73 492.953 542.462 494.621 543.925C496.303 545.374 497.144 547.384 497.144 549.954C497.144 551.444 496.72 553.01 495.872 554.65C495.038 556.277 493.664 558.13 491.75 560.208L484.449 568.021H498.312V572Z" fill="#CD08D1"/>
<path d="M503.439 557.193L505.06 542.141H521.097V546.447H509.202L508.382 553.584C509.763 552.791 511.321 552.395 513.058 552.395C515.901 552.395 518.109 553.304 519.682 555.122C521.268 556.94 522.061 559.388 522.061 562.464C522.061 565.499 521.186 567.919 519.436 569.724C517.686 571.515 515.286 572.41 512.237 572.41C509.503 572.41 507.233 571.638 505.429 570.093C503.638 568.534 502.667 566.483 502.517 563.94H507.336C507.527 565.39 508.047 566.504 508.895 567.283C509.742 568.049 510.85 568.432 512.217 568.432C513.748 568.432 514.938 567.885 515.785 566.791C516.646 565.697 517.077 564.207 517.077 562.32C517.077 560.502 516.605 559.066 515.662 558.014C514.719 556.947 513.42 556.414 511.766 556.414C510.863 556.414 510.098 556.537 509.469 556.783C508.84 557.016 508.156 557.48 507.418 558.178L503.439 557.193Z" fill="#CD08D1"/>
</g>
<g id="30">
<path d="M829.998 508.794H833.033C834.564 508.78 835.774 508.384 836.663 507.604C837.565 506.825 838.017 505.697 838.017 504.221C838.017 502.799 837.641 501.698 836.889 500.919C836.15 500.126 835.016 499.729 833.484 499.729C832.145 499.729 831.044 500.119 830.183 500.898C829.321 501.664 828.891 502.669 828.891 503.913H823.907C823.907 502.382 824.311 500.987 825.117 499.729C825.938 498.472 827.072 497.494 828.521 496.797C829.984 496.086 831.618 495.73 833.423 495.73C836.403 495.73 838.741 496.482 840.437 497.986C842.146 499.477 843 501.555 843 504.221C843 505.561 842.569 506.825 841.708 508.015C840.86 509.19 839.76 510.079 838.406 510.681C840.047 511.241 841.291 512.123 842.139 513.326C843 514.529 843.431 515.965 843.431 517.633C843.431 520.312 842.508 522.445 840.662 524.031C838.83 525.617 836.417 526.41 833.423 526.41C830.552 526.41 828.2 525.645 826.368 524.113C824.536 522.582 823.62 520.545 823.62 518.002H828.604C828.604 519.314 829.041 520.381 829.916 521.201C830.805 522.021 831.994 522.432 833.484 522.432C835.029 522.432 836.246 522.021 837.135 521.201C838.023 520.381 838.468 519.191 838.468 517.633C838.468 516.061 838.003 514.851 837.073 514.003C836.144 513.155 834.763 512.731 832.931 512.731H829.998V508.794Z" fill="#CD08D1"/>
<path d="M867.568 513.429C867.568 517.722 866.762 520.962 865.148 523.149C863.549 525.323 861.108 526.41 857.827 526.41C854.601 526.41 852.167 525.351 850.526 523.231C848.899 521.099 848.065 517.947 848.024 513.777V508.609C848.024 504.316 848.824 501.097 850.424 498.95C852.037 496.804 854.491 495.73 857.786 495.73C861.054 495.73 863.487 496.776 865.087 498.868C866.7 500.96 867.527 504.091 867.568 508.261V513.429ZM862.585 507.851C862.585 505.048 862.202 502.997 861.437 501.698C860.671 500.386 859.454 499.729 857.786 499.729C856.159 499.729 854.963 500.352 854.197 501.596C853.432 502.826 853.028 504.754 852.987 507.379V514.146C852.987 516.936 853.377 519.014 854.156 520.381C854.936 521.748 856.159 522.432 857.827 522.432C859.427 522.432 860.609 521.803 861.375 520.545C862.141 519.273 862.544 517.291 862.585 514.598V507.851Z" fill="#CD08D1"/>
</g>
</g>
<g id="Resuelve:">
<path d="M109.357 75.6465H103.346V86H99.9531V60.4062H108.426C111.309 60.4062 113.523 61.0625 115.07 62.375C116.629 63.6875 117.408 65.5977 117.408 68.1055C117.408 69.6992 116.975 71.0879 116.107 72.2715C115.252 73.4551 114.057 74.3398 112.521 74.9258L118.533 85.7891V86H114.912L109.357 75.6465ZM103.346 72.8867H108.531C110.207 72.8867 111.537 72.4531 112.521 71.5859C113.518 70.7188 114.016 69.5586 114.016 68.1055C114.016 66.5234 113.541 65.3105 112.592 64.4668C111.654 63.623 110.295 63.1953 108.514 63.1836H103.346V72.8867Z" fill="white"/>
<path d="M129.537 86.3516C126.959 86.3516 124.861 85.5078 123.244 83.8203C121.627 82.1211 120.818 79.8535 120.818 77.0176V76.4199C120.818 74.5332 121.176 72.8516 121.891 71.375C122.617 69.8867 123.625 68.7266 124.914 67.8945C126.215 67.0508 127.621 66.6289 129.133 66.6289C131.605 66.6289 133.527 67.4434 134.898 69.0723C136.27 70.7012 136.955 73.0332 136.955 76.0684V77.4219H124.07C124.117 79.2969 124.662 80.8145 125.705 81.9746C126.76 83.123 128.096 83.6973 129.713 83.6973C130.861 83.6973 131.834 83.4629 132.631 82.9941C133.428 82.5254 134.125 81.9043 134.723 81.1309L136.709 82.6777C135.115 85.127 132.725 86.3516 129.537 86.3516ZM129.133 69.3008C127.82 69.3008 126.719 69.7812 125.828 70.7422C124.938 71.6914 124.387 73.0273 124.176 74.75H133.703V74.5039C133.609 72.8516 133.164 71.5742 132.367 70.6719C131.57 69.7578 130.492 69.3008 129.133 69.3008Z" fill="white"/>
<path d="M151.809 80.9551C151.809 80.0762 151.475 79.3965 150.807 78.916C150.15 78.4238 148.996 78.002 147.344 77.6504C145.703 77.2988 144.396 76.877 143.424 76.3848C142.463 75.8926 141.748 75.3066 141.279 74.627C140.822 73.9473 140.594 73.1387 140.594 72.2012C140.594 70.6426 141.25 69.3242 142.562 68.2461C143.887 67.168 145.574 66.6289 147.625 66.6289C149.781 66.6289 151.527 67.1855 152.863 68.2988C154.211 69.4121 154.885 70.8359 154.885 72.5703H151.615C151.615 71.6797 151.234 70.9121 150.473 70.2676C149.723 69.623 148.773 69.3008 147.625 69.3008C146.441 69.3008 145.516 69.5586 144.848 70.0742C144.18 70.5898 143.846 71.2637 143.846 72.0957C143.846 72.8809 144.156 73.4727 144.777 73.8711C145.398 74.2695 146.518 74.6504 148.135 75.0137C149.764 75.377 151.082 75.8105 152.09 76.3145C153.098 76.8184 153.842 77.4277 154.322 78.1426C154.814 78.8457 155.061 79.707 155.061 80.7266C155.061 82.4258 154.381 83.791 153.021 84.8223C151.662 85.8418 149.898 86.3516 147.73 86.3516C146.207 86.3516 144.859 86.082 143.688 85.543C142.516 85.0039 141.596 84.2539 140.928 83.293C140.271 82.3203 139.943 81.2715 139.943 80.1465H143.195C143.254 81.2363 143.688 82.1035 144.496 82.748C145.316 83.3809 146.395 83.6973 147.73 83.6973C148.961 83.6973 149.945 83.4512 150.684 82.959C151.434 82.4551 151.809 81.7871 151.809 80.9551Z" fill="white"/>
<path d="M171.039 84.1191C169.773 85.6074 167.916 86.3516 165.467 86.3516C163.439 86.3516 161.893 85.7656 160.826 84.5938C159.771 83.4102 159.238 81.6641 159.227 79.3555V66.9805H162.479V79.2676C162.479 82.1504 163.65 83.5918 165.994 83.5918C168.479 83.5918 170.131 82.666 170.951 80.8145V66.9805H174.203V86H171.109L171.039 84.1191Z" fill="white"/>
<path d="M187.053 86.3516C184.475 86.3516 182.377 85.5078 180.76 83.8203C179.143 82.1211 178.334 79.8535 178.334 77.0176V76.4199C178.334 74.5332 178.691 72.8516 179.406 71.375C180.133 69.8867 181.141 68.7266 182.43 67.8945C183.73 67.0508 185.137 66.6289 186.648 66.6289C189.121 66.6289 191.043 67.4434 192.414 69.0723C193.785 70.7012 194.471 73.0332 194.471 76.0684V77.4219H181.586C181.633 79.2969 182.178 80.8145 183.221 81.9746C184.275 83.123 185.611 83.6973 187.229 83.6973C188.377 83.6973 189.35 83.4629 190.146 82.9941C190.943 82.5254 191.641 81.9043 192.238 81.1309L194.225 82.6777C192.631 85.127 190.24 86.3516 187.053 86.3516ZM186.648 69.3008C185.336 69.3008 184.234 69.7812 183.344 70.7422C182.453 71.6914 181.902 73.0273 181.691 74.75H191.219V74.5039C191.125 72.8516 190.68 71.5742 189.883 70.6719C189.086 69.7578 188.008 69.3008 186.648 69.3008Z" fill="white"/>
<path d="M201.783 86H198.531V59H201.783V86Z" fill="white"/>
<path d="M213.279 81.5879L217.99 66.9805H221.312L214.492 86H212.014L205.123 66.9805H208.445L213.279 81.5879Z" fill="white"/>
<path d="M232.088 86.3516C229.51 86.3516 227.412 85.5078 225.795 83.8203C224.178 82.1211 223.369 79.8535 223.369 77.0176V76.4199C223.369 74.5332 223.727 72.8516 224.441 71.375C225.168 69.8867 226.176 68.7266 227.465 67.8945C228.766 67.0508 230.172 66.6289 231.684 66.6289C234.156 66.6289 236.078 67.4434 237.449 69.0723C238.82 70.7012 239.506 73.0332 239.506 76.0684V77.4219H226.621C226.668 79.2969 227.213 80.8145 228.256 81.9746C229.311 83.123 230.646 83.6973 232.264 83.6973C233.412 83.6973 234.385 83.4629 235.182 82.9941C235.979 82.5254 236.676 81.9043 237.273 81.1309L239.26 82.6777C237.666 85.127 235.275 86.3516 232.088 86.3516ZM231.684 69.3008C230.371 69.3008 229.27 69.7812 228.379 70.7422C227.488 71.6914 226.938 73.0273 226.727 74.75H236.254V74.5039C236.16 72.8516 235.715 71.5742 234.918 70.6719C234.121 69.7578 233.043 69.3008 231.684 69.3008Z" fill="white"/>
<path d="M243.18 84.2949C243.18 83.7324 243.344 83.2637 243.672 82.8887C244.012 82.5137 244.516 82.3262 245.184 82.3262C245.852 82.3262 246.355 82.5137 246.695 82.8887C247.047 83.2637 247.223 83.7324 247.223 84.2949C247.223 84.834 247.047 85.2852 246.695 85.6484C246.355 86.0117 245.852 86.1934 245.184 86.1934C244.516 86.1934 244.012 86.0117 243.672 85.6484C243.344 85.2852 243.18 84.834 243.18 84.2949ZM243.197 68.7734C243.197 68.2109 243.361 67.7422 243.689 67.3672C244.029 66.9922 244.533 66.8047 245.201 66.8047C245.869 66.8047 246.373 66.9922 246.713 67.3672C247.064 67.7422 247.24 68.2109 247.24 68.7734C247.24 69.3125 247.064 69.7637 246.713 70.127C246.373 70.4902 245.869 70.6719 245.201 70.6719C244.533 70.6719 244.029 70.4902 243.689 70.127C243.361 69.7637 243.197 69.3125 243.197 68.7734Z" fill="white"/>
</g>
<g id="26 (25) 30 56 ( 9 ) 26 43 ( x ) 20">
<path d="M360.146 149H338.718V146.013L350.038 133.435C351.715 131.533 352.868 129.991 353.497 128.808C354.141 127.61 354.463 126.374 354.463 125.102C354.463 123.395 353.946 121.994 352.913 120.901C351.88 119.808 350.502 119.262 348.78 119.262C346.714 119.262 345.104 119.853 343.951 121.036C342.813 122.204 342.244 123.836 342.244 125.933H338.089C338.089 122.923 339.055 120.49 340.986 118.633C342.933 116.776 345.531 115.848 348.78 115.848C351.82 115.848 354.223 116.649 355.99 118.251C357.757 119.838 358.641 121.957 358.641 124.607C358.641 127.827 356.589 131.66 352.486 136.107L343.727 145.608H360.146V149Z" fill="white"/>
<path d="M380.854 116.274V119.801H380.091C376.856 119.861 374.281 120.819 372.364 122.676C370.448 124.533 369.34 127.146 369.04 130.515C370.762 128.538 373.113 127.55 376.093 127.55C378.938 127.55 381.206 128.553 382.898 130.56C384.605 132.566 385.459 135.157 385.459 138.331C385.459 141.7 384.538 144.396 382.696 146.417C380.869 148.438 378.414 149.449 375.329 149.449C372.2 149.449 369.661 148.251 367.715 145.855C365.768 143.445 364.795 140.345 364.795 136.557V134.962C364.795 128.942 366.075 124.345 368.636 121.171C371.211 117.981 375.037 116.349 380.113 116.274H380.854ZM375.396 131.009C373.974 131.009 372.664 131.436 371.466 132.289C370.268 133.143 369.437 134.213 368.973 135.501V137.028C368.973 139.724 369.579 141.895 370.792 143.542C372.005 145.189 373.517 146.013 375.329 146.013C377.201 146.013 378.668 145.324 379.731 143.946C380.81 142.569 381.349 140.764 381.349 138.533C381.349 136.287 380.802 134.475 379.709 133.098C378.631 131.705 377.193 131.009 375.396 131.009Z" fill="white"/>
<path d="M447.698 135.726C447.698 132.341 448.147 129.092 449.046 125.978C449.959 122.863 451.314 120.033 453.111 117.487C454.908 114.942 456.772 113.145 458.704 112.097L459.558 114.837C457.371 116.514 455.575 119.075 454.167 122.519C452.774 125.963 452.011 129.818 451.876 134.086L451.854 135.995C451.854 141.775 452.909 146.791 455.021 151.044C456.293 153.59 457.806 155.581 459.558 157.019L458.704 159.557C456.713 158.449 454.811 156.592 452.999 153.986C449.465 148.895 447.698 142.808 447.698 135.726Z" fill="white"/>
<path d="M484.579 149H463.151V146.013L474.472 133.435C476.149 131.533 477.302 129.991 477.931 128.808C478.575 127.61 478.896 126.374 478.896 125.102C478.896 123.395 478.38 121.994 477.347 120.901C476.313 119.808 474.936 119.262 473.214 119.262C471.147 119.262 469.538 119.853 468.385 121.036C467.247 122.204 466.678 123.836 466.678 125.933H462.522C462.522 122.923 463.488 120.49 465.42 118.633C467.367 116.776 469.965 115.848 473.214 115.848C476.254 115.848 478.657 116.649 480.424 118.251C482.191 119.838 483.074 121.957 483.074 124.607C483.074 127.827 481.023 131.66 476.92 136.107L468.16 145.608H484.579V149Z" fill="white"/>
<path d="M490.891 132.604L492.553 116.297H509.309V120.138H496.079L495.091 129.055C496.693 128.111 498.512 127.64 500.549 127.64C503.529 127.64 505.895 128.628 507.646 130.604C509.398 132.566 510.274 135.224 510.274 138.578C510.274 141.947 509.361 144.605 507.534 146.552C505.722 148.483 503.184 149.449 499.92 149.449C497.03 149.449 494.672 148.648 492.845 147.046C491.018 145.444 489.977 143.228 489.723 140.397H493.653C493.908 142.269 494.574 143.684 495.652 144.643C496.73 145.586 498.153 146.058 499.92 146.058C501.852 146.058 503.364 145.399 504.457 144.081C505.565 142.763 506.119 140.944 506.119 138.623C506.119 136.437 505.52 134.685 504.322 133.367C503.139 132.035 501.56 131.368 499.583 131.368C497.771 131.368 496.349 131.765 495.315 132.559L494.215 133.457L490.891 132.604Z" fill="white"/>
<path d="M524.829 135.95C524.829 139.289 524.387 142.494 523.504 145.563C522.635 148.618 521.295 151.441 519.483 154.031C517.687 156.622 515.8 158.464 513.823 159.557L512.947 157.019C515.253 155.252 517.103 152.511 518.495 148.798C519.903 145.069 520.621 140.937 520.651 136.399V135.681C520.651 132.536 520.322 129.616 519.663 126.921C519.004 124.211 518.083 121.785 516.9 119.644C515.732 117.502 514.415 115.833 512.947 114.635L513.823 112.097C515.8 113.19 517.679 115.017 519.461 117.577C521.258 120.138 522.598 122.96 523.481 126.045C524.38 129.13 524.829 132.431 524.829 135.95Z" fill="white"/>
<path d="M593.896 130.627H597.019C598.98 130.597 600.522 130.08 601.646 129.077C602.769 128.074 603.33 126.719 603.33 125.012C603.33 121.178 601.421 119.262 597.603 119.262C595.806 119.262 594.368 119.778 593.29 120.812C592.227 121.83 591.695 123.185 591.695 124.877H587.54C587.54 122.286 588.483 120.138 590.37 118.431C592.272 116.709 594.683 115.848 597.603 115.848C600.687 115.848 603.105 116.664 604.857 118.296C606.609 119.928 607.485 122.197 607.485 125.102C607.485 126.524 607.021 127.902 606.093 129.234C605.179 130.567 603.929 131.563 602.342 132.222C604.139 132.791 605.524 133.734 606.497 135.052C607.485 136.369 607.979 137.979 607.979 139.881C607.979 142.816 607.021 145.144 605.104 146.866C603.188 148.588 600.695 149.449 597.625 149.449C594.555 149.449 592.055 148.618 590.123 146.956C588.206 145.294 587.248 143.1 587.248 140.375H591.426C591.426 142.097 591.987 143.475 593.11 144.508C594.233 145.541 595.738 146.058 597.625 146.058C599.632 146.058 601.166 145.534 602.229 144.485C603.293 143.437 603.824 141.932 603.824 139.971C603.824 138.069 603.24 136.609 602.072 135.591C600.904 134.573 599.22 134.049 597.019 134.019H593.896V130.627Z" fill="white"/>
<path d="M634.191 135.052C634.191 139.918 633.36 143.535 631.698 145.9C630.036 148.266 627.438 149.449 623.904 149.449C620.415 149.449 617.832 148.296 616.155 145.99C614.478 143.669 613.61 140.21 613.55 135.613V130.065C613.55 125.259 614.381 121.688 616.043 119.352C617.705 117.016 620.311 115.848 623.859 115.848C627.378 115.848 629.969 116.978 631.631 119.239C633.293 121.485 634.146 124.959 634.191 129.661V135.052ZM630.036 129.369C630.036 125.85 629.542 123.29 628.554 121.688C627.565 120.07 626.001 119.262 623.859 119.262C621.733 119.262 620.183 120.063 619.21 121.665C618.237 123.267 617.735 125.73 617.705 129.055V135.703C617.705 139.237 618.214 141.85 619.232 143.542C620.266 145.219 621.823 146.058 623.904 146.058C625.956 146.058 627.476 145.264 628.464 143.677C629.467 142.09 629.991 139.589 630.036 136.175V129.369Z" fill="white"/>
<path d="M340.627 209.604L342.289 193.297H359.045V197.138H345.815L344.827 206.055C346.429 205.111 348.249 204.64 350.285 204.64C353.265 204.64 355.631 205.628 357.383 207.604C359.135 209.566 360.011 212.224 360.011 215.578C360.011 218.947 359.097 221.605 357.271 223.552C355.459 225.483 352.921 226.449 349.656 226.449C346.766 226.449 344.408 225.648 342.581 224.046C340.754 222.444 339.714 220.228 339.459 217.397H343.39C343.644 219.269 344.311 220.684 345.389 221.643C346.467 222.586 347.889 223.058 349.656 223.058C351.588 223.058 353.1 222.399 354.193 221.081C355.301 219.763 355.855 217.944 355.855 215.623C355.855 213.437 355.257 211.685 354.059 210.367C352.876 209.035 351.296 208.368 349.319 208.368C347.507 208.368 346.085 208.765 345.052 209.559L343.951 210.457L340.627 209.604Z" fill="white"/>
<path d="M380.854 193.274V196.801H380.091C376.856 196.861 374.281 197.819 372.364 199.676C370.448 201.533 369.34 204.146 369.04 207.515C370.762 205.538 373.113 204.55 376.093 204.55C378.938 204.55 381.206 205.553 382.898 207.56C384.605 209.566 385.459 212.157 385.459 215.331C385.459 218.7 384.538 221.396 382.696 223.417C380.869 225.438 378.414 226.449 375.329 226.449C372.2 226.449 369.661 225.251 367.715 222.855C365.768 220.445 364.795 217.345 364.795 213.557V211.962C364.795 205.942 366.075 201.345 368.636 198.171C371.211 194.981 375.037 193.349 380.113 193.274H380.854ZM375.396 208.009C373.974 208.009 372.664 208.436 371.466 209.289C370.268 210.143 369.437 211.213 368.973 212.501V214.028C368.973 216.724 369.579 218.895 370.792 220.542C372.005 222.189 373.517 223.013 375.329 223.013C377.201 223.013 378.668 222.324 379.731 220.946C380.81 219.569 381.349 217.764 381.349 215.533C381.349 213.287 380.802 211.475 379.709 210.098C378.631 208.705 377.193 208.009 375.396 208.009Z" fill="white"/>
<path d="M447.698 212.726C447.698 209.341 448.147 206.092 449.046 202.978C449.959 199.863 451.314 197.033 453.111 194.487C454.908 191.942 456.772 190.145 458.704 189.097L459.558 191.837C457.371 193.514 455.575 196.075 454.167 199.519C452.774 202.963 452.011 206.818 451.876 211.086L451.854 212.995C451.854 218.775 452.909 223.791 455.021 228.044C456.293 230.59 457.806 232.581 459.558 234.019L458.704 236.557C456.713 235.449 454.811 233.592 452.999 230.986C449.465 225.895 447.698 219.808 447.698 212.726Z" fill="white"/>
<path d="M490.486 211.625C489.618 212.658 488.577 213.489 487.364 214.118C486.166 214.747 484.849 215.062 483.411 215.062C481.524 215.062 479.877 214.597 478.47 213.669C477.077 212.741 475.999 211.438 475.235 209.761C474.472 208.069 474.09 206.204 474.09 204.168C474.09 201.982 474.502 200.013 475.325 198.261C476.164 196.509 477.347 195.169 478.874 194.24C480.401 193.312 482.183 192.848 484.22 192.848C487.454 192.848 490 194.061 491.856 196.486C493.728 198.897 494.664 202.191 494.664 206.369V207.582C494.664 213.946 493.406 218.595 490.891 221.53C488.375 224.45 484.579 225.948 479.503 226.022H478.694V222.519H479.57C482.999 222.459 485.635 221.568 487.477 219.846C489.318 218.109 490.322 215.368 490.486 211.625ZM484.085 211.625C485.478 211.625 486.758 211.198 487.926 210.345C489.109 209.491 489.97 208.436 490.509 207.178V205.516C490.509 202.79 489.917 200.574 488.734 198.867C487.551 197.16 486.054 196.307 484.242 196.307C482.415 196.307 480.948 197.01 479.84 198.418C478.732 199.811 478.178 201.652 478.178 203.943C478.178 206.174 478.709 208.016 479.772 209.469C480.851 210.906 482.288 211.625 484.085 211.625Z" fill="white"/>
<path d="M521.819 212.95C521.819 216.289 521.378 219.494 520.494 222.563C519.626 225.618 518.285 228.441 516.474 231.031C514.677 233.622 512.79 235.464 510.813 236.557L509.938 234.019C512.243 232.252 514.093 229.511 515.485 225.798C516.893 222.069 517.612 217.937 517.642 213.399V212.681C517.642 209.536 517.312 206.616 516.653 203.921C515.994 201.211 515.074 198.785 513.891 196.644C512.723 194.502 511.405 192.833 509.938 191.635L510.813 189.097C512.79 190.19 514.669 192.017 516.451 194.577C518.248 197.138 519.588 199.96 520.472 203.045C521.37 206.13 521.819 209.431 521.819 212.95Z" fill="white"/>
<path d="M617.683 226H596.255V223.013L607.575 210.435C609.252 208.533 610.405 206.991 611.034 205.808C611.678 204.61 612 203.374 612 202.102C612 200.395 611.483 198.994 610.45 197.901C609.417 196.808 608.039 196.262 606.317 196.262C604.251 196.262 602.641 196.853 601.488 198.036C600.35 199.204 599.781 200.836 599.781 202.933H595.626C595.626 199.923 596.592 197.49 598.523 195.633C600.47 193.776 603.068 192.848 606.317 192.848C609.357 192.848 611.76 193.649 613.527 195.251C615.294 196.838 616.178 198.957 616.178 201.607C616.178 204.827 614.126 208.66 610.023 213.107L601.264 222.608H617.683V226Z" fill="white"/>
<path d="M638.392 193.274V196.801H637.628C634.394 196.861 631.818 197.819 629.901 199.676C627.985 201.533 626.877 204.146 626.577 207.515C628.299 205.538 630.65 204.55 633.63 204.55C636.475 204.55 638.743 205.553 640.436 207.56C642.143 209.566 642.996 212.157 642.996 215.331C642.996 218.7 642.075 221.396 640.233 223.417C638.407 225.438 635.951 226.449 632.866 226.449C629.737 226.449 627.199 225.251 625.252 222.855C623.305 220.445 622.332 217.345 622.332 213.557V211.962C622.332 205.942 623.612 201.345 626.173 198.171C628.748 194.981 632.574 193.349 637.65 193.274H638.392ZM632.934 208.009C631.511 208.009 630.201 208.436 629.003 209.289C627.805 210.143 626.974 211.213 626.51 212.501V214.028C626.51 216.724 627.116 218.895 628.329 220.542C629.542 222.189 631.054 223.013 632.866 223.013C634.738 223.013 636.205 222.324 637.269 220.946C638.347 219.569 638.886 217.764 638.886 215.533C638.886 213.287 638.339 211.475 637.246 210.098C636.168 208.705 634.73 208.009 632.934 208.009Z" fill="white"/>
<path d="M356.26 292.017H360.797V295.408H356.26V303H352.082V295.408H337.19V292.96L351.835 270.297H356.26V292.017ZM341.907 292.017H352.082V275.979L351.588 276.878L341.907 292.017Z" fill="white"/>
<path d="M370.59 284.627H373.712C375.674 284.597 377.216 284.08 378.339 283.077C379.462 282.074 380.023 280.719 380.023 279.012C380.023 275.178 378.114 273.262 374.296 273.262C372.499 273.262 371.062 273.778 369.983 274.812C368.92 275.83 368.389 277.185 368.389 278.877H364.233C364.233 276.286 365.177 274.138 367.063 272.431C368.965 270.709 371.376 269.848 374.296 269.848C377.381 269.848 379.799 270.664 381.551 272.296C383.303 273.928 384.179 276.197 384.179 279.102C384.179 280.524 383.715 281.902 382.786 283.234C381.873 284.567 380.622 285.563 379.035 286.222C380.832 286.791 382.217 287.734 383.19 289.052C384.179 290.369 384.673 291.979 384.673 293.881C384.673 296.816 383.715 299.144 381.798 300.866C379.881 302.588 377.388 303.449 374.318 303.449C371.249 303.449 368.748 302.618 366.816 300.956C364.9 299.294 363.941 297.1 363.941 294.375H368.119C368.119 296.097 368.681 297.475 369.804 298.508C370.927 299.541 372.432 300.058 374.318 300.058C376.325 300.058 377.86 299.534 378.923 298.485C379.986 297.437 380.518 295.932 380.518 293.971C380.518 292.069 379.934 290.609 378.766 289.591C377.598 288.573 375.913 288.049 373.712 288.019H370.59V284.627Z" fill="white"/>
<path d="M447.698 289.726C447.698 286.341 448.147 283.092 449.046 279.978C449.959 276.863 451.314 274.033 453.111 271.487C454.908 268.942 456.772 267.145 458.704 266.097L459.558 268.837C457.371 270.514 455.575 273.075 454.167 276.519C452.774 279.963 452.011 283.818 451.876 288.086L451.854 289.995C451.854 295.775 452.909 300.791 455.021 305.044C456.293 307.59 457.806 309.581 459.558 311.019L458.704 313.557C456.713 312.449 454.811 310.592 452.999 307.986C449.465 302.895 447.698 296.808 447.698 289.726Z" fill="white"/>
<path d="M483.142 287.569L488.532 278.697H493.384L485.433 290.714L493.631 303H488.824L483.209 293.903L477.594 303H472.765L480.963 290.714L473.012 278.697H477.818L483.142 287.569Z" fill="white"/>
<path d="M518.81 289.95C518.81 293.289 518.368 296.494 517.484 299.563C516.616 302.618 515.276 305.441 513.464 308.031C511.667 310.622 509.78 312.464 507.804 313.557L506.928 311.019C509.234 309.252 511.083 306.511 512.476 302.798C513.883 299.069 514.602 294.937 514.632 290.399V289.681C514.632 286.536 514.302 283.616 513.644 280.921C512.985 278.211 512.064 275.785 510.881 273.644C509.713 271.502 508.395 269.833 506.928 268.635L507.804 266.097C509.78 267.19 511.66 269.017 513.441 271.577C515.238 274.138 516.578 276.96 517.462 280.045C518.36 283.13 518.81 286.431 518.81 289.95Z" fill="white"/>
<path d="M614.673 303H593.245V300.013L604.565 287.435C606.243 285.533 607.396 283.991 608.024 282.808C608.668 281.61 608.99 280.374 608.99 279.102C608.99 277.395 608.474 275.994 607.44 274.901C606.407 273.808 605.03 273.262 603.308 273.262C601.241 273.262 599.632 273.853 598.479 275.036C597.34 276.204 596.771 277.836 596.771 279.933H592.616C592.616 276.923 593.582 274.49 595.514 272.633C597.46 270.776 600.058 269.848 603.308 269.848C606.347 269.848 608.751 270.649 610.518 272.251C612.285 273.838 613.168 275.957 613.168 278.607C613.168 281.827 611.117 285.66 607.014 290.107L598.254 299.608H614.673V303Z" fill="white"/>
<path d="M639.582 289.052C639.582 293.918 638.751 297.535 637.089 299.9C635.427 302.266 632.829 303.449 629.295 303.449C625.806 303.449 623.223 302.296 621.546 299.99C619.869 297.669 619 294.21 618.94 289.613V284.065C618.94 279.259 619.771 275.688 621.434 273.352C623.096 271.016 625.701 269.848 629.25 269.848C632.769 269.848 635.359 270.978 637.021 273.239C638.684 275.485 639.537 278.959 639.582 283.661V289.052ZM635.427 283.369C635.427 279.85 634.933 277.29 633.944 275.688C632.956 274.07 631.391 273.262 629.25 273.262C627.124 273.262 625.574 274.063 624.601 275.665C623.627 277.267 623.126 279.73 623.096 283.055V289.703C623.096 293.237 623.605 295.85 624.623 297.542C625.656 299.219 627.214 300.058 629.295 300.058C631.346 300.058 632.866 299.264 633.854 297.677C634.858 296.09 635.382 293.589 635.427 290.175V283.369Z" fill="white"/>
</g>
<g id="flecha">
<path id="Rectangle 2" d="M388.2 525.008L403.482 533.133L361.5 612.089L346.219 603.963L388.2 525.008Z" fill="#1043F5"/>
<path id="Rectangle 1_2" d="M330 537.904L420 488V545.692L375 528.096L330 537.904Z" fill="#1043F5"/>
<path id="Rectangle 3" d="M334.039 607.21L349.666 580.143L366.936 579.565L351.309 606.632L334.039 607.21Z" fill="#1043F5"/>
<path id="Rectangle 4_2" d="M360.089 621.845L375.717 594.778L366.926 579.154L351.299 606.221L360.089 621.845Z" fill="#1043F5"/>
</g>
</g>
</svg>
