<svg viewBox="0 0 877 252" fill="none" xmlns="http://www.w3.org/2000/svg">
<path d="M34.5557 38H13.1279V35.0127L24.4482 22.4346C26.1253 20.5329 27.2783 18.9906 27.9072 17.8076C28.5511 16.6097 28.873 15.3743 28.873 14.1016C28.873 12.3945 28.3564 10.9945 27.3232 9.90137C26.29 8.80827 24.9124 8.26172 23.1904 8.26172C21.124 8.26172 19.5143 8.85319 18.3613 10.0361C17.2233 11.2041 16.6543 12.8363 16.6543 14.9326H12.499C12.499 11.9229 13.4648 9.48958 15.3965 7.63281C17.3431 5.77604 19.9411 4.84766 23.1904 4.84766C26.2301 4.84766 28.6335 5.64876 30.4004 7.25098C32.1673 8.83822 33.0508 10.957 33.0508 13.6074C33.0508 16.8268 30.9993 20.6602 26.8965 25.1074L18.1367 34.6084H34.5557V38Z" fill="white"/>
<path d="M96.2783 24.7256C96.2783 21.3415 96.7275 18.0921 97.626 14.9775C98.5394 11.863 99.8945 9.03288 101.691 6.4873C103.488 3.94173 105.353 2.14486 107.284 1.09668L108.138 3.83691C105.951 5.514 104.155 8.07454 102.747 11.5186C101.354 14.9626 100.591 18.8184 100.456 23.0859L100.434 24.9951C100.434 30.7751 101.489 35.7913 103.601 40.0439C104.873 42.5895 106.386 44.5811 108.138 46.0186L107.284 48.5566C105.293 47.4486 103.391 45.5918 101.579 42.9863C98.0452 37.8952 96.2783 31.8083 96.2783 24.7256Z" fill="white"/>
<path d="M132.845 7.63281L119.301 38H114.943L128.442 8.71094H110.743V5.29688H132.845V7.63281Z" fill="white"/>
<path d="M158.989 38H137.562V35.0127L148.882 22.4346C150.559 20.5329 151.712 18.9906 152.341 17.8076C152.985 16.6097 153.307 15.3743 153.307 14.1016C153.307 12.3945 152.79 10.9945 151.757 9.90137C150.724 8.80827 149.346 8.26172 147.624 8.26172C145.558 8.26172 143.948 8.85319 142.795 10.0361C141.657 11.2041 141.088 12.8363 141.088 14.9326H136.933C136.933 11.9229 137.898 9.48958 139.83 7.63281C141.777 5.77604 144.375 4.84766 147.624 4.84766C150.664 4.84766 153.067 5.64876 154.834 7.25098C156.601 8.83822 157.484 10.957 157.484 13.6074C157.484 16.8268 155.433 20.6602 151.33 25.1074L142.57 34.6084H158.989V38Z" fill="white"/>
<path d="M173.409 24.9502C173.409 28.2894 172.967 31.4938 172.084 34.5635C171.215 37.6182 169.875 40.4408 168.063 43.0312C166.267 45.6217 164.38 47.4635 162.403 48.5566L161.527 46.0186C163.833 44.2516 165.683 41.5114 167.075 37.7979C168.483 34.0693 169.201 29.9365 169.231 25.3994V24.6807C169.231 21.5361 168.902 18.6162 168.243 15.9209C167.584 13.2106 166.663 10.7848 165.48 8.64355C164.312 6.50228 162.995 4.83268 161.527 3.63477L162.403 1.09668C164.38 2.18978 166.259 4.0166 168.041 6.57715C169.838 9.1377 171.178 11.9603 172.062 15.0449C172.96 18.1296 173.409 21.4313 173.409 24.9502Z" fill="white"/>
<path d="M242.477 19.627H245.599C247.56 19.597 249.103 19.0804 250.226 18.0771C251.349 17.0739 251.91 15.7188 251.91 14.0117C251.91 10.1784 250.001 8.26172 246.183 8.26172C244.386 8.26172 242.948 8.77832 241.87 9.81152C240.807 10.8298 240.275 12.1849 240.275 13.877H236.12C236.12 11.2865 237.063 9.1377 238.95 7.43066C240.852 5.70866 243.263 4.84766 246.183 4.84766C249.267 4.84766 251.686 5.66374 253.438 7.2959C255.189 8.92806 256.065 11.1966 256.065 14.1016C256.065 15.5241 255.601 16.9017 254.673 18.2344C253.759 19.5671 252.509 20.5628 250.922 21.2217C252.719 21.7907 254.104 22.734 255.077 24.0518C256.065 25.3695 256.56 26.9792 256.56 28.8809C256.56 31.8158 255.601 34.1442 253.685 35.8662C251.768 37.5882 249.275 38.4492 246.205 38.4492C243.135 38.4492 240.635 37.6182 238.703 35.9561C236.786 34.2939 235.828 32.1003 235.828 29.375H240.006C240.006 31.097 240.567 32.4746 241.69 33.5078C242.813 34.541 244.318 35.0576 246.205 35.0576C248.212 35.0576 249.746 34.5335 250.81 33.4854C251.873 32.4372 252.404 30.9323 252.404 28.9707C252.404 27.069 251.82 25.609 250.652 24.5908C249.484 23.5726 247.8 23.0485 245.599 23.0186H242.477V19.627Z" fill="white"/>
<path d="M19.2598 104.017H23.7969V107.408H19.2598V115H15.082V107.408H0.19043V104.96L14.835 82.2969H19.2598V104.017ZM4.90723 104.017H15.082V87.9795L14.5879 88.8779L4.90723 104.017Z" fill="white"/>
<path d="M73.458 101.726C73.458 98.3415 73.9072 95.0921 74.8057 91.9775C75.7191 88.863 77.0742 86.0329 78.8711 83.4873C80.668 80.9417 82.5322 79.1449 84.4639 78.0967L85.3174 80.8369C83.1312 82.514 81.3343 85.0745 79.9268 88.5186C78.5342 91.9626 77.7705 95.8184 77.6357 100.086L77.6133 101.995C77.6133 107.775 78.6689 112.791 80.7803 117.044C82.0531 119.59 83.5654 121.581 85.3174 123.019L84.4639 125.557C82.4723 124.449 80.5706 122.592 78.7588 119.986C75.2249 114.895 73.458 108.808 73.458 101.726Z" fill="white"/>
<path d="M102.567 115H98.3896V87.3057L90.0117 90.3828V86.6094L101.916 82.1396H102.567V115Z" fill="white"/>
<path d="M131.048 82.2744V85.8008H130.284C127.05 85.8607 124.474 86.819 122.558 88.6758C120.641 90.5326 119.533 93.1455 119.233 96.5146C120.955 94.5381 123.306 93.5498 126.286 93.5498C129.131 93.5498 131.4 94.5531 133.092 96.5596C134.799 98.5661 135.652 101.157 135.652 104.331C135.652 107.7 134.731 110.396 132.89 112.417C131.063 114.438 128.607 115.449 125.522 115.449C122.393 115.449 119.855 114.251 117.908 111.855C115.962 109.445 114.988 106.345 114.988 102.557V100.962C114.988 94.9424 116.269 90.3454 118.829 87.1709C121.405 83.9814 125.23 82.3493 130.307 82.2744H131.048ZM125.59 97.0088C124.167 97.0088 122.857 97.4355 121.659 98.2891C120.461 99.1426 119.63 100.213 119.166 101.501V103.028C119.166 105.724 119.772 107.895 120.985 109.542C122.198 111.189 123.711 112.013 125.522 112.013C127.394 112.013 128.862 111.324 129.925 109.946C131.003 108.569 131.542 106.764 131.542 104.533C131.542 102.287 130.995 100.475 129.902 99.0977C128.824 97.7051 127.387 97.0088 125.59 97.0088Z" fill="white"/>
<path d="M161.078 101.052C161.078 105.918 160.247 109.535 158.585 111.9C156.923 114.266 154.325 115.449 150.791 115.449C147.302 115.449 144.719 114.296 143.042 111.99C141.365 109.669 140.496 106.21 140.437 101.613V96.0654C140.437 91.2588 141.268 87.6875 142.93 85.3516C144.592 83.0156 147.197 81.8477 150.746 81.8477C154.265 81.8477 156.855 82.9782 158.518 85.2393C160.18 87.4854 161.033 90.9593 161.078 95.6611V101.052ZM156.923 95.3691C156.923 91.8503 156.429 89.2897 155.44 87.6875C154.452 86.0703 152.887 85.2617 150.746 85.2617C148.62 85.2617 147.07 86.0628 146.097 87.665C145.123 89.2673 144.622 91.7305 144.592 95.0547V101.703C144.592 105.237 145.101 107.85 146.119 109.542C147.152 111.219 148.71 112.058 150.791 112.058C152.842 112.058 154.362 111.264 155.351 109.677C156.354 108.09 156.878 105.589 156.923 102.175V95.3691Z" fill="white"/>
<path d="M186.908 101.052C186.908 105.918 186.077 109.535 184.415 111.9C182.753 114.266 180.155 115.449 176.621 115.449C173.132 115.449 170.549 114.296 168.872 111.99C167.195 109.669 166.326 106.21 166.267 101.613V96.0654C166.267 91.2588 167.098 87.6875 168.76 85.3516C170.422 83.0156 173.027 81.8477 176.576 81.8477C180.095 81.8477 182.686 82.9782 184.348 85.2393C186.01 87.4854 186.863 90.9593 186.908 95.6611V101.052ZM182.753 95.3691C182.753 91.8503 182.259 89.2897 181.271 87.6875C180.282 86.0703 178.717 85.2617 176.576 85.2617C174.45 85.2617 172.9 86.0628 171.927 87.665C170.953 89.2673 170.452 91.7305 170.422 95.0547V101.703C170.422 105.237 170.931 107.85 171.949 109.542C172.982 111.219 174.54 112.058 176.621 112.058C178.673 112.058 180.192 111.264 181.181 109.677C182.184 108.09 182.708 105.589 182.753 102.175V95.3691Z" fill="white"/>
<path d="M202.249 101.95C202.249 105.289 201.807 108.494 200.924 111.563C200.055 114.618 198.715 117.441 196.903 120.031C195.106 122.622 193.22 124.464 191.243 125.557L190.367 123.019C192.673 121.252 194.522 118.511 195.915 114.798C197.323 111.069 198.041 106.937 198.071 102.399V101.681C198.071 98.5361 197.742 95.6162 197.083 92.9209C196.424 90.2106 195.503 87.7848 194.32 85.6436C193.152 83.5023 191.835 81.8327 190.367 80.6348L191.243 78.0967C193.22 79.1898 195.099 81.0166 196.881 83.5771C198.678 86.1377 200.018 88.9603 200.901 92.0449C201.8 95.1296 202.249 98.4313 202.249 101.95Z" fill="white"/>
<path d="M244.363 98.6035L246.025 82.2969H262.781V86.1377H249.552L248.563 95.0547C250.166 94.1113 251.985 93.6396 254.021 93.6396C257.001 93.6396 259.367 94.6279 261.119 96.6045C262.871 98.5661 263.747 101.224 263.747 104.578C263.747 107.947 262.834 110.605 261.007 112.552C259.195 114.483 256.657 115.449 253.393 115.449C250.503 115.449 248.144 114.648 246.317 113.046C244.491 111.444 243.45 109.228 243.195 106.397H247.126C247.381 108.269 248.047 109.684 249.125 110.643C250.203 111.586 251.626 112.058 253.393 112.058C255.324 112.058 256.837 111.399 257.93 110.081C259.038 108.763 259.592 106.944 259.592 104.623C259.592 102.437 258.993 100.685 257.795 99.3672C256.612 98.0345 255.032 97.3682 253.056 97.3682C251.244 97.3682 249.821 97.765 248.788 98.5586L247.688 99.457L244.363 98.6035Z" fill="white"/>
<path d="M18.0244 159.274V162.801H17.2607C14.0264 162.861 11.4508 163.819 9.53418 165.676C7.61751 167.533 6.50944 170.146 6.20996 173.515C7.93197 171.538 10.2829 170.55 13.2627 170.55C16.1077 170.55 18.3763 171.553 20.0684 173.56C21.7754 175.566 22.6289 178.157 22.6289 181.331C22.6289 184.7 21.708 187.396 19.8662 189.417C18.0394 191.438 15.5837 192.449 12.499 192.449C9.36947 192.449 6.83138 191.251 4.88477 188.855C2.93815 186.445 1.96484 183.345 1.96484 179.557V177.962C1.96484 171.942 3.24512 167.345 5.80566 164.171C8.38118 160.981 12.207 159.349 17.2832 159.274H18.0244ZM12.5664 174.009C11.1439 174.009 9.83366 174.436 8.63574 175.289C7.43783 176.143 6.60677 177.213 6.14258 178.501V180.028C6.14258 182.724 6.74902 184.895 7.96191 186.542C9.1748 188.189 10.6872 189.013 12.499 189.013C14.3708 189.013 15.8382 188.324 16.9014 186.946C17.9795 185.569 18.5186 183.764 18.5186 181.533C18.5186 179.287 17.972 177.475 16.8789 176.098C15.8008 174.705 14.3633 174.009 12.5664 174.009Z" fill="white"/>
<path d="M107.688 178.726C107.688 175.341 108.138 172.092 109.036 168.978C109.95 165.863 111.305 163.033 113.102 160.487C114.898 157.942 116.763 156.145 118.694 155.097L119.548 157.837C117.362 159.514 115.565 162.075 114.157 165.519C112.765 168.963 112.001 172.818 111.866 177.086L111.844 178.995C111.844 184.775 112.899 189.791 115.011 194.044C116.284 196.59 117.796 198.581 119.548 200.019L118.694 202.557C116.703 201.449 114.801 199.592 112.989 196.986C109.455 191.895 107.688 185.808 107.688 178.726Z" fill="white"/>
<path d="M143.132 176.569L148.522 167.697H153.374L145.423 179.714L153.621 192H148.814L143.199 182.903L137.584 192H132.755L140.953 179.714L133.002 167.697H137.809L143.132 176.569Z" fill="white"/>
<path d="M178.8 178.95C178.8 182.289 178.358 185.494 177.475 188.563C176.606 191.618 175.266 194.441 173.454 197.031C171.657 199.622 169.771 201.464 167.794 202.557L166.918 200.019C169.224 198.252 171.073 195.511 172.466 191.798C173.873 188.069 174.592 183.937 174.622 179.399V178.681C174.622 175.536 174.293 172.616 173.634 169.921C172.975 167.211 172.054 164.785 170.871 162.644C169.703 160.502 168.385 158.833 166.918 157.635L167.794 155.097C169.771 156.19 171.65 158.017 173.432 160.577C175.229 163.138 176.569 165.96 177.452 169.045C178.351 172.13 178.8 175.431 178.8 178.95Z" fill="white"/>
<path d="M263.253 192H241.825V189.013L253.146 176.435C254.823 174.533 255.976 172.991 256.604 171.808C257.248 170.61 257.57 169.374 257.57 168.102C257.57 166.395 257.054 164.994 256.021 163.901C254.987 162.808 253.61 162.262 251.888 162.262C249.821 162.262 248.212 162.853 247.059 164.036C245.921 165.204 245.352 166.836 245.352 168.933H241.196C241.196 165.923 242.162 163.49 244.094 161.633C246.04 159.776 248.638 158.848 251.888 158.848C254.927 158.848 257.331 159.649 259.098 161.251C260.865 162.838 261.748 164.957 261.748 167.607C261.748 170.827 259.697 174.66 255.594 179.107L246.834 188.608H263.253V192Z" fill="white"/>
<path d="M393.701 15.3173C393.701 15.0136 393.922 14.8617 394.363 14.8617C394.501 14.8617 394.612 14.8617 394.695 14.8617C394.778 14.8617 394.847 14.8617 394.902 14.8617C394.957 14.8617 395.012 14.8755 395.067 14.9031C395.123 14.9308 395.15 14.9446 395.15 14.9446C395.15 14.9446 395.178 14.986 395.233 15.0688C395.288 15.1516 395.316 15.193 395.316 15.193C395.316 15.193 395.357 15.2621 395.44 15.4001C396.462 17.4432 397.815 19.2516 399.499 20.8253C401.183 22.399 402.715 23.5172 404.096 24.1798C405.476 24.8425 406.801 25.3532 408.071 25.7121C408.541 25.8502 408.775 26.0297 408.775 26.2505C408.775 26.4714 408.651 26.6232 408.403 26.7061C408.154 26.7889 407.643 26.9408 406.87 27.1616C406.097 27.3825 405.297 27.7138 404.468 28.1556C400.493 30.0882 397.483 33.07 395.44 37.1009C395.33 37.3494 395.233 37.4875 395.15 37.5151C395.067 37.5427 394.86 37.5703 394.529 37.5979C393.977 37.5979 393.701 37.5013 393.701 37.308C393.701 37.1976 393.77 36.9629 393.908 36.604C394.874 34.6989 396.061 33.001 397.469 31.5101L397.884 31.0959H372.58C372.193 30.9027 372 30.6266 372 30.2677C372 29.8535 372.221 29.5774 372.663 29.4394H399.706L400.12 29.1081C401.197 28.2798 402.812 27.3273 404.965 26.2505C404.938 26.2229 404.689 26.0987 404.22 25.8778C403.751 25.6569 403.129 25.3256 402.356 24.8839C401.583 24.4421 400.838 23.9452 400.12 23.393L399.706 23.0617H372.663C372.221 22.9236 372 22.6475 372 22.2334C372 21.8745 372.193 21.5984 372.58 21.4051H397.884L397.469 20.991C396.558 20.0247 395.702 18.9065 394.902 17.6365C394.101 16.3664 393.701 15.5934 393.701 15.3173Z" fill="white"/>
<path d="M427.114 18.838C426.368 18.838 425.775 18.5895 425.333 18.0925C424.891 17.5956 424.67 16.9882 424.67 16.2703C424.67 14.3101 425.402 12.6121 426.865 11.1764C428.329 9.74075 430.151 9.02291 432.332 9.02291C434.844 9.02291 436.943 9.79597 438.627 11.3421C440.311 12.8882 441.167 14.8899 441.195 17.3471C441.195 18.5343 440.918 19.6663 440.366 20.743C439.814 21.8198 439.151 22.7585 438.378 23.5592C437.605 24.3598 436.501 25.3814 435.065 26.6238C434.071 27.4797 432.691 28.7497 430.924 30.4338L428.48 32.753L431.628 32.7944C435.963 32.7944 438.268 32.7254 438.544 32.5874C438.737 32.5321 439.069 31.3035 439.538 28.9015V28.7773H441.195V28.9015C441.167 28.9844 440.987 30.2406 440.656 32.6702C440.325 35.0998 440.118 36.3698 440.035 36.4803V36.6045H424.67V35.8176V35.3207C424.67 35.1274 424.753 34.9203 424.919 34.6995C425.085 34.4786 425.499 33.9954 426.161 33.25C426.962 32.3665 427.652 31.5934 428.232 30.9308C428.48 30.6547 428.95 30.1439 429.64 29.3985C430.33 28.653 430.8 28.1423 431.048 27.8662C431.297 27.5901 431.697 27.1345 432.249 26.4995C432.801 25.8645 433.188 25.3952 433.409 25.0915C433.63 24.7878 433.947 24.3736 434.361 23.849C434.775 23.3245 435.065 22.8827 435.231 22.5238C435.397 22.1649 435.604 21.7646 435.852 21.3228C436.101 20.8811 436.28 20.4393 436.391 19.9976C436.501 19.5558 436.598 19.1417 436.68 18.7552C436.763 18.3686 436.805 17.9131 436.805 17.3885C436.805 15.6491 436.335 14.1444 435.397 12.8744C434.458 11.6044 433.119 10.9694 431.379 10.9694C430.468 10.9694 429.668 11.204 428.977 11.6734C428.287 12.1427 427.804 12.5983 427.528 13.04C427.252 13.4818 427.114 13.7441 427.114 13.8269C427.114 13.8545 427.183 13.8683 427.321 13.8683C427.818 13.8683 428.329 14.0616 428.853 14.4481C429.378 14.8346 429.64 15.4697 429.64 16.3532C429.64 17.0434 429.419 17.6232 428.977 18.0925C428.536 18.5619 427.914 18.8104 427.114 18.838Z" fill="white"/>
<path d="M447.024 5.94468C446.497 5.94468 446.087 5.77877 445.794 5.44693C445.502 5.1151 445.345 4.68566 445.326 4.15863C445.326 3.08505 445.794 2.12858 446.731 1.28924C447.668 0.449889 448.8 0.0302162 450.128 0.0302162C450.811 0.0302162 451.24 0.0399762 451.416 0.0594959C452.861 0.293732 453.963 0.811003 454.725 1.61131C455.486 2.41162 455.876 3.28025 455.896 4.21719C455.896 5.23222 455.564 6.21796 454.9 7.17443C454.237 8.13089 453.319 8.82384 452.148 9.25327L452.06 9.31183C452.06 9.33135 452.148 9.36063 452.324 9.39967C452.499 9.43871 452.782 9.52655 453.173 9.66319C453.563 9.79982 453.934 10.0048 454.285 10.2781C455.886 11.3126 456.686 12.679 456.686 14.3772C456.686 15.9192 456.081 17.2661 454.871 18.4178C453.661 19.5694 452.129 20.1453 450.274 20.1453C448.713 20.1453 447.366 19.7256 446.234 18.8862C445.101 18.0469 444.535 16.9831 444.535 15.6948C444.535 15.1482 444.711 14.709 445.062 14.3772C445.414 14.0454 445.853 13.8697 446.38 13.8502C446.927 13.8502 447.376 14.0258 447.727 14.3772C448.078 14.7285 448.254 15.1677 448.254 15.6948C448.254 15.9095 448.225 16.1047 448.166 16.2804C448.108 16.456 448.039 16.6122 447.961 16.7488C447.883 16.8855 447.776 17.0026 447.639 17.1002C447.502 17.1978 447.385 17.2759 447.288 17.3344C447.19 17.393 447.092 17.432 446.995 17.4515C446.897 17.4711 446.819 17.5003 446.761 17.5394L446.644 17.5687C447.639 18.447 448.849 18.8862 450.274 18.8862C451.348 18.8862 452.158 18.369 452.704 17.3344C453.036 16.6903 453.202 15.7045 453.202 14.3772V13.7916C453.202 11.9372 452.578 10.6977 451.328 10.0731C451.035 9.95598 450.44 9.88766 449.542 9.86814L448.312 9.83886L448.225 9.7803C448.186 9.72175 448.166 9.56559 448.166 9.31183C448.166 8.96048 448.244 8.7848 448.4 8.7848C448.947 8.7848 449.513 8.736 450.099 8.6384C450.762 8.5408 451.367 8.13089 451.914 7.40866C452.46 6.68643 452.734 5.59333 452.734 4.12935V3.89512C452.734 2.78249 452.392 2.01146 451.709 1.58203C451.279 1.30876 450.821 1.17212 450.333 1.17212C449.708 1.17212 449.132 1.27948 448.605 1.49419C448.078 1.70891 447.707 1.93339 447.493 2.16762C447.278 2.40186 447.171 2.51898 447.171 2.51898H447.258C447.317 2.5385 447.395 2.55802 447.493 2.57754C447.59 2.59706 447.688 2.64586 447.785 2.72393C447.883 2.80201 448 2.87033 448.137 2.92889C448.273 2.98745 448.371 3.09481 448.43 3.25097C448.488 3.40712 448.566 3.55352 448.664 3.69016C448.761 3.8268 448.791 4.02199 448.752 4.27575C448.752 4.70518 448.615 5.08582 448.342 5.41765C448.068 5.74949 447.629 5.92516 447.024 5.94468Z" fill="white"/>
<path d="M495.313 35.4039C495.313 35.9561 495.024 36.2322 494.444 36.2322C494.306 36.2322 494.002 36.0113 493.533 35.5696C493.063 35.1278 491.766 33.844 489.64 31.7181L485.333 27.411L480.984 31.7595C478.058 34.6308 476.553 36.0941 476.47 36.1494C476.36 36.2046 476.263 36.2322 476.18 36.2322C475.959 36.2322 475.766 36.1494 475.6 35.9837C475.435 35.818 475.338 35.6248 475.311 35.4039C475.311 35.2106 475.504 34.9069 475.89 34.4928C476.277 34.0787 477.575 32.7672 479.783 30.5585L484.09 26.2515L479.783 21.9444C477.547 19.7081 476.249 18.3966 475.89 18.0101C475.531 17.6236 475.338 17.3199 475.311 17.099C475.311 16.8505 475.393 16.6573 475.559 16.5192C475.725 16.3812 475.932 16.3121 476.18 16.3121C476.318 16.3121 476.415 16.326 476.47 16.3536C476.553 16.4088 478.058 17.8721 480.984 20.7434L485.333 25.0919L489.64 20.7848C491.766 18.6589 493.063 17.3751 493.533 16.9334C494.002 16.4916 494.306 16.2707 494.444 16.2707C495.024 16.2707 495.313 16.5468 495.313 17.099C495.313 17.2923 495.175 17.5408 494.899 17.8445C494.623 18.1482 493.27 19.501 490.841 21.903L486.534 26.2515L490.841 30.5999C493.16 32.9191 494.485 34.2581 494.816 34.617C495.148 34.976 495.313 35.2382 495.313 35.4039Z" fill="white"/>
<path d="M515.903 17.4304C515.158 17.4304 514.578 17.1957 514.164 16.7264C513.749 16.257 513.529 15.6496 513.501 14.9042C513.501 13.3857 514.164 12.0328 515.489 10.8456C516.814 9.65844 518.415 9.06484 520.293 9.06484C521.259 9.06484 521.867 9.07865 522.115 9.10625C524.158 9.43756 525.718 10.1692 526.795 11.3012C527.872 12.4332 528.424 13.6618 528.451 14.987C528.451 16.4227 527.982 17.817 527.043 19.1698C526.105 20.5227 524.807 21.5028 523.15 22.1102L523.026 22.193C523.026 22.2206 523.15 22.262 523.399 22.3173C523.647 22.3725 524.048 22.4967 524.6 22.69C525.152 22.8832 525.677 23.1731 526.174 23.5597C528.438 25.023 529.57 26.9556 529.57 29.3576C529.57 31.5387 528.714 33.4438 527.002 35.0727C525.29 36.7016 523.123 37.5161 520.5 37.5161C518.291 37.5161 516.386 36.9225 514.785 35.7353C513.183 34.5481 512.383 33.0434 512.383 31.2212C512.383 30.4482 512.631 29.827 513.128 29.3576C513.625 28.8882 514.246 28.6398 514.992 28.6121C515.765 28.6121 516.4 28.8606 516.897 29.3576C517.394 29.8546 517.642 30.4758 517.642 31.2212C517.642 31.5249 517.601 31.801 517.518 32.0495C517.435 32.298 517.339 32.5188 517.228 32.7121C517.118 32.9054 516.966 33.071 516.773 33.2091C516.579 33.3471 516.414 33.4576 516.276 33.5404C516.138 33.6232 516 33.6784 515.862 33.706C515.724 33.7337 515.613 33.7751 515.53 33.8303L515.365 33.8717C516.773 35.1141 518.484 35.7353 520.5 35.7353C522.018 35.7353 523.164 35.0037 523.937 33.5404C524.407 32.6293 524.641 31.235 524.641 29.3576V28.5293C524.641 25.9064 523.758 24.1533 521.991 23.2698C521.577 23.1041 520.735 23.0075 519.465 22.9799L517.725 22.9385L517.601 22.8556C517.546 22.7728 517.518 22.5519 517.518 22.193C517.518 21.696 517.629 21.4476 517.849 21.4476C518.622 21.4476 519.423 21.3785 520.251 21.2405C521.19 21.1024 522.046 20.5227 522.819 19.5011C523.592 18.4796 523.979 16.9335 523.979 14.8628V14.5315C523.979 12.9577 523.496 11.8672 522.529 11.2598C521.922 10.8732 521.273 10.68 520.583 10.68C519.699 10.68 518.885 10.8318 518.139 11.1355C517.394 11.4392 516.869 11.7567 516.566 12.088C516.262 12.4194 516.11 12.585 516.11 12.585H516.234C516.317 12.6126 516.428 12.6402 516.566 12.6678C516.704 12.6955 516.842 12.7645 516.98 12.8749C517.118 12.9853 517.283 13.082 517.477 13.1648C517.67 13.2476 517.808 13.3995 517.891 13.6204C517.974 13.8412 518.084 14.0483 518.222 14.2416C518.36 14.4348 518.402 14.7109 518.346 15.0698C518.346 15.6772 518.153 16.2156 517.767 16.685C517.38 17.1543 516.759 17.4028 515.903 17.4304Z" fill="white"/>
<path d="M534.54 6.93932C534.013 6.93932 533.594 6.76364 533.281 6.41229C532.969 6.06093 532.813 5.6315 532.813 5.12399C532.813 3.73809 533.33 2.53763 534.365 1.5226C535.399 0.50758 536.688 6.67572e-05 538.23 6.67572e-05C540.006 6.67572e-05 541.489 0.546618 542.68 1.63972C543.871 2.73282 544.476 4.148 544.496 5.88526C544.496 6.7246 544.3 7.52491 543.91 8.28618C543.52 9.04745 543.051 9.71112 542.505 10.2772C541.958 10.8433 541.177 11.5655 540.162 12.4439C539.459 13.049 538.483 13.9469 537.234 15.1376L535.507 16.7772L537.732 16.8065C540.797 16.8065 542.426 16.7577 542.622 16.6601C542.758 16.6211 542.993 15.7525 543.324 14.0542V13.9664H544.496V14.0542C544.476 14.1128 544.349 15.001 544.115 16.7187C543.881 18.4364 543.734 19.3343 543.676 19.4124V19.5002H532.813V18.9439V18.5926C532.813 18.4559 532.872 18.3095 532.989 18.1534C533.106 17.9972 533.399 17.6556 533.867 17.1286C534.433 16.504 534.921 15.9574 535.331 15.4889C535.507 15.2937 535.839 14.9326 536.327 14.4056C536.815 13.8786 537.146 13.5175 537.322 13.3223C537.498 13.1271 537.781 12.805 538.171 12.356C538.562 11.9071 538.835 11.5752 538.991 11.3605C539.147 11.1458 539.372 10.853 539.664 10.4821C539.957 10.1113 540.162 9.79895 540.279 9.5452C540.396 9.29144 540.543 9.00841 540.718 8.69609C540.894 8.38378 541.021 8.07146 541.099 7.75915C541.177 7.44683 541.245 7.15404 541.304 6.88076C541.363 6.60748 541.392 6.28541 541.392 5.91454C541.392 4.68479 541.06 3.62097 540.396 2.72306C539.733 1.82516 538.786 1.37621 537.556 1.37621C536.912 1.37621 536.346 1.54212 535.858 1.87396C535.37 2.20579 535.028 2.52787 534.833 2.84018C534.638 3.1525 534.54 3.33793 534.54 3.39649C534.54 3.41601 534.589 3.42577 534.687 3.42577C535.038 3.42577 535.399 3.56241 535.77 3.83569C536.141 4.10896 536.327 4.55792 536.327 5.18255C536.327 5.67054 536.17 6.08045 535.858 6.41229C535.546 6.74412 535.107 6.9198 534.54 6.93932Z" fill="white"/>
<path d="M561.886 22.2339C561.886 21.875 562.079 21.5989 562.466 21.4056H588.846C589.26 21.6265 589.467 21.9026 589.467 22.2339C589.467 22.5376 589.274 22.7999 588.888 23.0207L575.718 23.0622H562.548C562.107 22.9241 561.886 22.648 561.886 22.2339ZM561.886 30.2682C561.886 29.854 562.107 29.5779 562.548 29.4399H588.888C589.274 29.716 589.467 29.9921 589.467 30.2682C589.467 30.6271 589.26 30.9032 588.846 31.0964H562.466C562.079 30.9032 561.886 30.6271 561.886 30.2682Z" fill="white"/>
<path d="M606.19 19.3355C606.19 19.3355 606.19 18.2725 606.19 16.1466C606.19 14.0207 606.935 12.3089 608.426 11.0113C609.917 9.71366 611.629 9.05104 613.562 9.02343C615.522 9.02343 617.261 9.60322 618.78 10.7628C620.298 11.9224 621.057 13.4271 621.057 15.2769C621.057 16.1052 620.906 16.8782 620.602 17.5961C620.298 18.3139 619.939 18.8937 619.525 19.3355C619.111 19.7772 618.683 20.1637 618.241 20.495C617.8 20.8264 617.441 21.0748 617.165 21.2405C616.889 21.4062 616.737 21.5166 616.709 21.5718L617.289 21.9445C617.675 22.2206 618.062 22.4967 618.448 22.7728C618.835 23.0489 619.056 23.2007 619.111 23.2284C621.182 24.8573 622.217 26.9142 622.217 29.399C622.217 31.5801 621.416 33.4714 619.815 35.0727C618.214 36.674 616.143 37.4885 613.603 37.5161C611.118 37.5161 609.075 36.8121 607.474 35.404C605.872 33.9959 605.072 32.2566 605.072 30.1859C605.072 27.2041 606.853 24.7193 610.414 22.7314L609.669 22.193C609.089 21.8341 608.716 21.558 608.551 21.3647C606.977 20.0119 606.19 18.2725 606.19 16.1466V19.3355ZM615.135 20.6193L615.384 20.4536C615.549 20.3432 615.674 20.2604 615.757 20.2052C615.839 20.1499 615.977 20.0533 616.171 19.9153C616.364 19.7772 616.53 19.6392 616.668 19.5011C616.806 19.3631 616.958 19.1974 617.123 19.0042C617.289 18.8109 617.441 18.6314 617.579 18.4658C617.717 18.3001 617.855 18.0792 617.993 17.8032C618.131 17.5271 618.255 17.2924 618.366 17.0991C618.476 16.9059 618.545 16.6298 618.573 16.2708C618.6 15.9119 618.628 15.6082 618.655 15.3597C618.655 14.1725 618.255 13.1648 617.454 12.3365C616.654 11.5083 615.729 10.9837 614.68 10.7628C614.487 10.7352 614.031 10.7214 613.313 10.7214C612.181 10.7214 611.118 11.0803 610.124 11.7982C609.13 12.516 608.62 13.4133 608.592 14.49C608.592 15.1251 608.771 15.7049 609.13 16.2294C609.489 16.754 609.848 17.1543 610.207 17.4304C610.566 17.7065 611.256 18.1483 612.278 18.7557C612.471 18.8937 612.623 18.9903 612.733 19.0456L615.135 20.6193ZM613.644 35.7353C615.246 35.7353 616.626 35.266 617.786 34.3273C618.945 33.3885 619.525 32.2566 619.525 30.9313C619.525 30.462 619.456 30.0202 619.318 29.6061C619.18 29.1919 619.014 28.8468 618.821 28.5707C618.628 28.2946 618.324 27.9909 617.91 27.6596C617.496 27.3283 617.178 27.0798 616.958 26.9142C616.737 26.7485 616.336 26.4862 615.757 26.1273C615.177 25.7684 614.804 25.5337 614.638 25.4233C614.252 25.1748 613.838 24.9125 613.396 24.6364C612.954 24.3603 612.595 24.1257 612.319 23.9324L611.988 23.7253C611.822 23.7253 611.422 23.96 610.787 24.4294C610.152 24.8987 609.489 25.658 608.799 26.7071C608.109 27.7563 607.75 28.8882 607.722 30.103C607.722 31.732 608.316 33.071 609.503 34.1202C610.69 35.1693 612.071 35.7077 613.644 35.7353Z" fill="white"/>
<path d="M659.29 35.4039C659.29 35.9561 659.001 36.2322 658.421 36.2322C658.283 36.2322 657.979 36.0113 657.51 35.5696C657.04 35.1278 655.743 33.844 653.617 31.7181L649.31 27.411L644.961 31.7595C642.035 34.6308 640.53 36.0941 640.447 36.1494C640.337 36.2046 640.24 36.2322 640.157 36.2322C639.936 36.2322 639.743 36.1494 639.577 35.9837C639.412 35.818 639.315 35.6248 639.288 35.4039C639.288 35.2106 639.481 34.9069 639.867 34.4928C640.254 34.0787 641.552 32.7672 643.76 30.5585L648.067 26.2515L643.76 21.9444C641.524 19.7081 640.226 18.3966 639.867 18.0101C639.508 17.6236 639.315 17.3199 639.288 17.099C639.288 16.8505 639.37 16.6573 639.536 16.5192C639.702 16.3812 639.909 16.3121 640.157 16.3121C640.295 16.3121 640.392 16.326 640.447 16.3536C640.53 16.4088 642.035 17.8721 644.961 20.7434L649.31 25.0919L653.617 20.7848C655.743 18.6589 657.04 17.3751 657.51 16.9334C657.979 16.4916 658.283 16.2707 658.421 16.2707C659.001 16.2707 659.29 16.5468 659.29 17.099C659.29 17.2923 659.152 17.5408 658.876 17.8445C658.6 18.1482 657.247 19.501 654.818 21.903L650.511 26.2515L654.818 30.5999C657.137 32.9191 658.462 34.2581 658.793 34.617C659.125 34.976 659.29 35.2382 659.29 35.4039Z" fill="white"/>
<path d="M689.202 24.7193C687.877 26.8176 686.22 27.8667 684.232 27.8667C682.079 27.8667 680.312 27.0522 678.931 25.4233C677.551 23.7943 676.723 22.055 676.447 20.2052C676.391 19.7634 676.364 19.2112 676.364 18.5486V18.2173C676.364 15.6496 677.316 13.4133 679.221 11.5083C680.878 9.85171 682.7 9.02343 684.688 9.02343C684.743 9.02343 684.826 9.02343 684.936 9.02343C685.047 9.02343 685.157 9.03723 685.268 9.06484H685.433C685.765 9.06484 686.11 9.09245 686.469 9.14767C686.828 9.20289 687.338 9.36854 688.001 9.64464C688.664 9.92073 689.312 10.3625 689.947 10.9699C690.583 11.5773 691.176 12.3918 691.728 13.4133C692.915 15.8429 693.509 18.9627 693.509 22.7728C693.509 26.6381 692.681 29.9098 691.024 32.5879C690.058 34.134 688.898 35.335 687.545 36.1909C686.193 37.0468 684.757 37.4885 683.238 37.5161C681.554 37.5161 680.174 37.1158 679.097 36.3151C678.02 35.5144 677.468 34.3273 677.441 32.7535C677.413 31.1798 678.145 30.4067 679.635 30.4344C680.243 30.4344 680.754 30.6276 681.168 31.0141C681.582 31.4007 681.789 31.9391 681.789 32.6293C681.789 33.1263 681.665 33.5542 681.416 33.9131C681.168 34.272 680.947 34.4929 680.754 34.5757C680.56 34.6586 680.381 34.7276 680.215 34.7828L680.05 34.8242C680.05 34.8794 680.146 34.9623 680.339 35.0727C680.533 35.1831 680.892 35.3212 681.416 35.4868C681.941 35.6525 682.521 35.7215 683.156 35.6939H683.404C685.061 35.6939 686.455 34.8104 687.587 33.0434C688.664 31.4973 689.202 28.8192 689.202 25.0092V24.7193ZM684.729 26.3344C686.055 26.3344 687.118 25.658 687.918 24.3051C688.719 22.9523 689.133 21.1163 689.161 18.7971C689.161 16.6436 689.05 15.0975 688.829 14.1587C688.774 13.8826 688.691 13.6066 688.581 13.3305C688.47 13.0544 688.277 12.6955 688.001 12.2537C687.725 11.812 687.311 11.4392 686.759 11.1355C686.206 10.8318 685.558 10.6938 684.812 10.7214C683.763 10.7214 682.866 11.0941 682.12 11.8396C681.54 12.447 681.168 13.1648 681.002 13.9931C680.836 14.8214 680.74 16.2708 680.712 18.3415C680.712 20.6331 680.781 22.1792 680.919 22.9799C681.057 23.7805 681.333 24.4294 681.748 24.9263C682.438 25.865 683.432 26.3344 684.729 26.3344Z" fill="white"/>
<path d="M709.154 22.2339C709.154 21.875 709.347 21.5989 709.734 21.4056H736.114C736.528 21.6265 736.735 21.9026 736.735 22.2339C736.735 22.5376 736.542 22.7999 736.156 23.0207L722.986 23.0622H709.816C709.375 22.9241 709.154 22.648 709.154 22.2339ZM709.154 30.2682C709.154 29.854 709.375 29.5779 709.816 29.4399H736.156C736.542 29.716 736.735 29.9921 736.735 30.2682C736.735 30.6271 736.528 30.9032 736.114 31.0964H709.734C709.347 30.9032 709.154 30.6271 709.154 30.2682Z" fill="white"/>
<path d="M752.839 17.6375C752.866 17.5823 753.101 16.0776 753.543 13.1234L754.206 8.69212C754.206 8.6369 754.482 8.60929 755.034 8.60929H755.862V8.77495C755.862 9.05104 756.069 9.28572 756.483 9.47898C756.897 9.67225 757.615 9.79649 758.637 9.85171C759.658 9.90692 761.991 9.93453 765.636 9.93453H770.647V11.5497L767.831 15.4012C767.582 15.7325 767.168 16.2846 766.588 17.0577C766.008 17.8308 765.636 18.3415 765.47 18.59C765.304 18.8385 765.015 19.2802 764.6 19.9153C764.186 20.5503 763.91 21.0472 763.772 21.4062C763.634 21.7651 763.441 22.2758 763.192 22.9385C762.944 23.6011 762.764 24.2361 762.654 24.8435C762.543 25.4509 762.433 26.1963 762.323 27.0798C762.212 27.9633 762.129 28.902 762.074 29.896C762.019 30.8899 761.978 32.0219 761.95 33.2919C761.95 33.6784 761.95 34.065 761.95 34.4515C761.95 34.838 761.936 35.1693 761.908 35.4454V35.8181C761.798 36.2875 761.536 36.6878 761.122 37.0191C760.707 37.3505 760.238 37.5161 759.714 37.5161C759.41 37.5161 759.12 37.4747 758.844 37.3919C758.568 37.309 758.278 37.0468 757.974 36.605C757.67 36.1633 757.519 35.6111 757.519 34.9485C757.519 30.5862 758.858 26.0583 761.536 21.3647C762.088 20.4812 763.248 18.8109 765.015 16.3537L766.92 13.7446H763.068C758.264 13.7446 755.738 13.8274 755.489 13.9931C755.324 14.0759 755.172 14.4072 755.034 14.987C754.896 15.5668 754.758 16.1604 754.62 16.7678L754.495 17.6375V17.7617H752.839V17.6375Z" fill="white"/>
<path d="M775.782 18.8377C775.037 18.8377 774.443 18.5893 774.001 18.0923C773.56 17.5953 773.339 16.9879 773.339 16.2701C773.339 14.3098 774.071 12.6119 775.534 11.1762C776.997 9.74051 778.819 9.02267 781 9.02267C783.513 9.02267 785.611 9.79572 787.295 11.3418C788.979 12.888 789.835 14.8896 789.863 17.3468C789.863 18.534 789.587 19.666 789.035 20.7428C788.483 21.8195 787.82 22.7582 787.047 23.5589C786.274 24.3596 785.169 25.3811 783.734 26.6235C782.74 27.4794 781.359 28.7494 779.592 30.4336L777.149 32.7528L780.296 32.7942C784.631 32.7942 786.936 32.7252 787.212 32.5871C787.406 32.5319 787.737 31.3033 788.206 28.9013V28.777H789.863V28.9013C789.835 28.9841 789.656 30.2403 789.325 32.6699C788.993 35.0995 788.786 36.3696 788.703 36.48V36.6042H773.339V35.8174V35.3204C773.339 35.1272 773.422 34.9201 773.587 34.6992C773.753 34.4783 774.167 33.9952 774.83 33.2497C775.63 32.3662 776.321 31.5932 776.9 30.9306C777.149 30.6545 777.618 30.1437 778.309 29.3982C778.999 28.6528 779.468 28.142 779.717 27.8659C779.965 27.5898 780.365 27.1343 780.918 26.4993C781.47 25.8643 781.856 25.3949 782.077 25.0912C782.298 24.7875 782.616 24.3734 783.03 23.8488C783.444 23.3242 783.734 22.8825 783.899 22.5236C784.065 22.1646 784.272 21.7643 784.521 21.3226C784.769 20.8808 784.949 20.4391 785.059 19.9973C785.169 19.5556 785.266 19.1414 785.349 18.7549C785.432 18.3684 785.473 17.9128 785.473 17.3883C785.473 15.6489 785.004 14.1442 784.065 12.8741C783.126 11.6041 781.787 10.9691 780.048 10.9691C779.137 10.9691 778.336 11.2038 777.646 11.6731C776.956 12.1425 776.473 12.5981 776.196 13.0398C775.92 13.4816 775.782 13.7438 775.782 13.8267C775.782 13.8543 775.851 13.8681 775.989 13.8681C776.486 13.8681 776.997 14.0613 777.522 14.4479C778.046 14.8344 778.309 15.4694 778.309 16.3529C778.309 17.0431 778.088 17.6229 777.646 18.0923C777.204 18.5616 776.583 18.8101 775.782 18.8377Z" fill="white"/>
<path d="M396.701 84.2951C396.701 83.9914 396.922 83.8395 397.363 83.8395C397.501 83.8395 397.612 83.8395 397.695 83.8395C397.778 83.8395 397.847 83.8395 397.902 83.8395C397.957 83.8395 398.012 83.8533 398.067 83.8809C398.123 83.9085 398.15 83.9223 398.15 83.9223C398.15 83.9223 398.178 83.9638 398.233 84.0466C398.288 84.1294 398.316 84.1708 398.316 84.1708C398.316 84.1708 398.357 84.2398 398.44 84.3779C399.462 86.421 400.815 88.2294 402.499 89.8031C404.183 91.3768 405.715 92.495 407.096 93.1576C408.476 93.8202 409.801 94.331 411.071 94.6899C411.541 94.828 411.775 95.0074 411.775 95.2283C411.775 95.4492 411.651 95.601 411.403 95.6839C411.154 95.7667 410.643 95.9185 409.87 96.1394C409.097 96.3603 408.297 96.6916 407.468 97.1333C403.493 99.066 400.483 102.048 398.44 106.079C398.33 106.327 398.233 106.465 398.15 106.493C398.067 106.52 397.86 106.548 397.529 106.576C396.977 106.576 396.701 106.479 396.701 106.286C396.701 106.175 396.77 105.941 396.908 105.582C397.874 103.677 399.061 101.979 400.469 100.488L400.884 100.074H375.58C375.193 99.8805 375 99.6044 375 99.2454C375 98.8313 375.221 98.5552 375.663 98.4172H402.706L403.12 98.0859C404.197 97.2576 405.812 96.3051 407.965 95.2283C407.938 95.2007 407.689 95.0765 407.22 94.8556C406.751 94.6347 406.129 94.3034 405.356 93.8617C404.583 93.4199 403.838 92.9229 403.12 92.3708L402.706 92.0394H375.663C375.221 91.9014 375 91.6253 375 91.2112C375 90.8523 375.193 90.5762 375.58 90.3829H400.884L400.469 89.9688C399.558 89.0024 398.702 87.8843 397.902 86.6142C397.101 85.3442 396.701 84.5712 396.701 84.2951Z" fill="white"/>
<path d="M444.526 105.604C444.029 105.522 442.248 105.48 439.183 105.48C435.981 105.48 434.131 105.522 433.634 105.604H433.261V103.699H434.545C435.097 103.699 435.47 103.699 435.663 103.699C435.857 103.699 436.091 103.672 436.367 103.617C436.643 103.561 436.837 103.492 436.947 103.41C437.058 103.327 437.154 103.216 437.237 103.078C437.265 103.023 437.278 102.278 437.278 100.842V98.7712H426.552V96.8662L432.806 87.2996C437.03 80.8943 439.17 77.6778 439.225 77.6502C439.28 77.595 439.57 77.5674 440.095 77.5674H440.84L441.088 77.8158V96.8662H444.899V98.7712H441.088V100.883C441.088 102.015 441.088 102.678 441.088 102.871C441.088 103.064 441.171 103.23 441.337 103.368C441.558 103.561 442.345 103.672 443.698 103.699H444.899V105.604H444.526ZM437.527 96.8662V83.034L428.457 96.8248L432.971 96.8662H437.527Z" fill="white"/>
<path d="M449.818 74.9447C449.291 74.9447 448.881 74.7788 448.588 74.4469C448.295 74.1151 448.139 73.6857 448.119 73.1586C448.119 72.085 448.588 71.1286 449.525 70.2892C450.462 69.4499 451.594 69.0302 452.921 69.0302C453.604 69.0302 454.034 69.04 454.21 69.0595C455.654 69.2937 456.757 69.811 457.518 70.6113C458.279 71.4116 458.67 72.2802 458.689 73.2172C458.689 74.2322 458.357 75.218 457.694 76.1744C457.03 77.1309 456.113 77.8238 454.942 78.2533L454.854 78.3118C454.854 78.3314 454.942 78.3606 455.117 78.3997C455.293 78.4387 455.576 78.5265 455.966 78.6632C456.357 78.7998 456.728 79.0048 457.079 79.2781C458.68 80.3126 459.48 81.679 459.48 83.3772C459.48 84.9192 458.875 86.2661 457.665 87.4178C456.454 88.5694 454.922 89.1453 453.068 89.1453C451.506 89.1453 450.159 88.7256 449.027 87.8862C447.895 87.0469 447.329 85.9831 447.329 84.6948C447.329 84.1482 447.505 83.709 447.856 83.3772C448.207 83.0454 448.646 82.8697 449.173 82.8502C449.72 82.8502 450.169 83.0258 450.52 83.3772C450.872 83.7285 451.047 84.1677 451.047 84.6948C451.047 84.9095 451.018 85.1047 450.96 85.2804C450.901 85.456 450.833 85.6122 450.755 85.7488C450.676 85.8855 450.569 86.0026 450.432 86.1002C450.296 86.1978 450.179 86.2759 450.081 86.3344C449.984 86.393 449.886 86.432 449.788 86.4515C449.691 86.4711 449.613 86.5003 449.554 86.5394L449.437 86.5687C450.432 87.447 451.643 87.8862 453.068 87.8862C454.141 87.8862 454.951 87.369 455.498 86.3344C455.83 85.6903 455.996 84.7045 455.996 83.3772V82.7916C455.996 80.9372 455.371 79.6977 454.122 79.0731C453.829 78.956 453.234 78.8877 452.336 78.8681L451.106 78.8389L451.018 78.7803C450.979 78.7217 450.96 78.5656 450.96 78.3118C450.96 77.9605 451.038 77.7848 451.194 77.7848C451.74 77.7848 452.306 77.736 452.892 77.6384C453.556 77.5408 454.161 77.1309 454.707 76.4087C455.254 75.6864 455.527 74.5933 455.527 73.1294V72.8951C455.527 71.7825 455.186 71.0115 454.502 70.582C454.073 70.3088 453.614 70.1721 453.126 70.1721C452.502 70.1721 451.926 70.2795 451.399 70.4942C450.872 70.7089 450.501 70.9334 450.286 71.1676C450.071 71.4019 449.964 71.519 449.964 71.519H450.052C450.11 71.5385 450.188 71.558 450.286 71.5775C450.384 71.5971 450.481 71.6459 450.579 71.7239C450.676 71.802 450.794 71.8703 450.93 71.9289C451.067 71.9875 451.164 72.0948 451.223 72.251C451.282 72.4071 451.36 72.5535 451.457 72.6902C451.555 72.8268 451.584 73.022 451.545 73.2758C451.545 73.7052 451.408 74.0858 451.135 74.4177C450.862 74.7495 450.423 74.9252 449.818 74.9447Z" fill="white"/>
<path d="M498.107 104.404C498.107 104.956 497.817 105.232 497.238 105.232C497.1 105.232 496.796 105.011 496.327 104.57C495.857 104.128 494.56 102.844 492.434 100.718L488.127 96.411L483.778 100.759C480.852 103.631 479.347 105.094 479.264 105.149C479.154 105.205 479.057 105.232 478.974 105.232C478.753 105.232 478.56 105.149 478.394 104.984C478.229 104.818 478.132 104.625 478.104 104.404C478.104 104.211 478.298 103.907 478.684 103.493C479.071 103.079 480.368 101.767 482.577 99.5585L486.884 95.2515L482.577 90.9444C480.341 88.7081 479.043 87.3966 478.684 87.0101C478.325 86.6236 478.132 86.3199 478.104 86.099C478.104 85.8505 478.187 85.6573 478.353 85.5192C478.519 85.3812 478.726 85.3121 478.974 85.3121C479.112 85.3121 479.209 85.326 479.264 85.3536C479.347 85.4088 480.852 86.8721 483.778 89.7434L488.127 94.0919L492.434 89.7848C494.56 87.6589 495.857 86.3751 496.327 85.9334C496.796 85.4916 497.1 85.2707 497.238 85.2707C497.817 85.2707 498.107 85.5468 498.107 86.099C498.107 86.2923 497.969 86.5408 497.693 86.8445C497.417 87.1482 496.064 88.501 493.635 90.903L489.328 95.2515L493.635 99.5999C495.954 101.919 497.279 103.258 497.61 103.617C497.942 103.976 498.107 104.238 498.107 104.404Z" fill="white"/>
<path d="M520.229 99.103C520.229 99.7657 520.008 100.318 519.566 100.76C519.125 101.201 518.586 101.422 517.951 101.422H517.661C518.931 103.603 520.616 104.694 522.714 104.694C524.646 104.694 526.055 103.866 526.938 102.209C527.463 101.298 527.725 99.531 527.725 96.9081C527.725 94.0644 527.352 92.1455 526.607 91.1516C525.889 90.2405 525.088 89.7849 524.205 89.7849H523.956C521.803 89.7849 520.174 90.7237 519.069 92.6011C518.959 92.7943 518.862 92.9048 518.78 92.9324C518.697 92.96 518.49 92.9876 518.158 93.0152C517.689 93.0152 517.427 92.9324 517.371 92.7667C517.316 92.6563 517.289 90.2405 517.289 85.5193V80.1769C517.289 78.7965 517.358 78.1063 517.496 78.1063C517.551 78.051 517.606 78.0234 517.661 78.0234C517.689 78.0234 517.979 78.1339 518.531 78.3547C519.083 78.5756 519.842 78.7965 520.809 79.0174C521.775 79.2382 522.81 79.3487 523.915 79.3487C525.875 79.3487 527.752 78.9621 529.547 78.1891C529.768 78.0786 529.947 78.0234 530.085 78.0234C530.306 78.0234 530.417 78.2719 530.417 78.7689V79.3073C528.153 81.9853 525.323 83.3244 521.927 83.3244C521.071 83.3244 520.298 83.2416 519.608 83.0759L519.194 82.9931V90.1163C519.718 89.7297 520.132 89.426 520.436 89.2052C520.74 88.9843 521.237 88.7634 521.927 88.5425C522.617 88.3217 523.321 88.2112 524.039 88.2112C526.275 88.2112 528.167 89.1085 529.713 90.9031C531.259 92.6977 532.032 94.8236 532.032 97.2808C532.032 99.8209 531.148 101.988 529.381 103.783C527.614 105.577 525.461 106.489 522.921 106.516C520.685 106.516 518.89 105.771 517.537 104.28C516.184 102.789 515.508 101.105 515.508 99.2273C515.508 98.5647 515.66 98.0401 515.963 97.6536C516.267 97.267 516.585 97.0186 516.916 96.9081C517.247 96.7977 517.565 96.7425 517.868 96.7425C518.559 96.7425 519.125 96.9771 519.566 97.4465C520.008 97.9159 520.229 98.468 520.229 99.103Z" fill="white"/>
<path d="M537.334 75.9393C536.807 75.9393 536.387 75.7636 536.075 75.4123C535.763 75.0609 535.606 74.6315 535.606 74.124C535.606 72.7381 536.124 71.5376 537.158 70.5226C538.193 69.5076 539.481 69.0001 541.023 69.0001C542.799 69.0001 544.283 69.5466 545.474 70.6397C546.664 71.7328 547.269 73.148 547.289 74.8853C547.289 75.7246 547.094 76.5249 546.703 77.2862C546.313 78.0474 545.845 78.7111 545.298 79.2772C544.751 79.8433 543.971 80.5655 542.956 81.4439C542.253 82.049 541.277 82.9469 540.028 84.1376L538.3 85.7772L540.525 85.8065C543.59 85.8065 545.22 85.7577 545.415 85.6601C545.552 85.6211 545.786 84.7525 546.118 83.0542V82.9664H547.289V83.0542C547.269 83.1128 547.143 84.001 546.908 85.7187C546.674 87.4364 546.528 88.3343 546.469 88.4124V88.5002H535.606V87.9439V87.5926C535.606 87.4559 535.665 87.3095 535.782 87.1534C535.899 86.9972 536.192 86.6556 536.661 86.1286C537.227 85.504 537.715 84.9574 538.124 84.4889C538.3 84.2937 538.632 83.9326 539.12 83.4056C539.608 82.8786 539.94 82.5175 540.115 82.3223C540.291 82.1271 540.574 81.805 540.965 81.356C541.355 80.9071 541.628 80.5752 541.784 80.3605C541.941 80.1458 542.165 79.853 542.458 79.4821C542.751 79.1113 542.956 78.799 543.073 78.5452C543.19 78.2914 543.336 78.0084 543.512 77.6961C543.688 77.3838 543.814 77.0715 543.893 76.7591C543.971 76.4468 544.039 76.154 544.098 75.8808C544.156 75.6075 544.185 75.2854 544.185 74.9145C544.185 73.6848 543.854 72.621 543.19 71.7231C542.526 70.8252 541.579 70.3762 540.35 70.3762C539.706 70.3762 539.14 70.5421 538.652 70.874C538.164 71.2058 537.822 71.5279 537.627 71.8402C537.432 72.1525 537.334 72.3379 537.334 72.3965C537.334 72.416 537.383 72.4258 537.48 72.4258C537.832 72.4258 538.193 72.5624 538.564 72.8357C538.935 73.109 539.12 73.5579 539.12 74.1825C539.12 74.6705 538.964 75.0805 538.652 75.4123C538.339 75.7441 537.9 75.9198 537.334 75.9393Z" fill="white"/>
<path d="M564.683 91.2339C564.683 90.875 564.876 90.5989 565.263 90.4056H591.643C592.058 90.6265 592.265 90.9026 592.265 91.2339C592.265 91.5376 592.071 91.7999 591.685 92.0207L578.515 92.0622H565.346C564.904 91.9241 564.683 91.648 564.683 91.2339ZM564.683 99.2682C564.683 98.854 564.904 98.5779 565.346 98.4399H591.685C592.071 98.716 592.265 98.9921 592.265 99.2682C592.265 99.6271 592.058 99.9032 591.643 100.096H565.263C564.876 99.9032 564.683 99.6271 564.683 99.2682Z" fill="white"/>
<path d="M607.825 92.6425C607.825 88.1422 608.943 84.5806 611.179 81.9577C613.416 79.3349 615.901 78.0234 618.634 78.0234C620.539 78.0234 621.906 78.5204 622.734 79.5143C623.562 80.5083 623.976 81.6126 623.976 82.8274C623.976 83.5177 623.783 84.0698 623.396 84.484C623.01 84.8981 622.472 85.1052 621.781 85.1052C621.146 85.1052 620.622 84.9119 620.208 84.5254C619.793 84.1389 619.586 83.6005 619.586 82.9103C619.586 81.6955 620.235 80.9638 621.533 80.7153C620.925 80.1079 620.07 79.7628 618.965 79.68C617.005 79.68 615.39 80.5083 614.12 82.1648C612.822 83.987 612.173 86.7755 612.173 90.5304L612.215 90.696C612.353 90.5304 612.463 90.3509 612.546 90.1577C613.678 88.5011 615.155 87.6728 616.977 87.6728H617.143C618.413 87.6728 619.531 87.9351 620.497 88.4597C621.16 88.8462 621.823 89.3984 622.485 90.1163C623.148 90.8341 623.686 91.621 624.1 92.4768C624.68 93.8297 624.97 95.3068 624.97 96.9081V97.6536C624.97 98.2886 624.901 98.8822 624.763 99.4344C624.459 101.063 623.576 102.651 622.113 104.197C620.649 105.743 618.8 106.516 616.563 106.516C615.79 106.516 615.045 106.406 614.327 106.185C613.609 105.964 612.836 105.55 612.008 104.942C611.179 104.335 610.475 103.521 609.896 102.499C609.316 101.477 608.819 100.138 608.405 98.4818C607.991 96.8253 607.797 94.8788 607.825 92.6425ZM616.729 89.1637C615.901 89.1637 615.183 89.3984 614.575 89.8678C613.968 90.3371 613.499 90.9583 613.167 91.7314C612.836 92.5044 612.601 93.2913 612.463 94.092C612.325 94.8926 612.242 95.7485 612.215 96.6596C612.215 98.9512 612.38 100.594 612.712 101.588C613.043 102.582 613.568 103.382 614.285 103.99C614.948 104.487 615.68 104.735 616.48 104.735C617.888 104.735 618.965 104.211 619.711 103.162C620.07 102.665 620.318 102.043 620.456 101.298C620.594 100.553 620.663 99.103 620.663 96.9495C620.663 94.7408 620.594 93.2637 620.456 92.5183C620.318 91.7728 620.07 91.1516 619.711 90.6546C618.965 89.6607 617.971 89.1637 616.729 89.1637Z" fill="white"/>
<path d="M645.926 105.604C645.429 105.521 643.648 105.48 640.583 105.48C637.381 105.48 635.531 105.521 635.034 105.604H634.661V103.699H635.945C636.497 103.699 636.87 103.699 637.063 103.699C637.256 103.699 637.491 103.672 637.767 103.616C638.043 103.561 638.237 103.492 638.347 103.409C638.457 103.326 638.554 103.216 638.637 103.078C638.665 103.023 638.678 102.277 638.678 100.842V98.771H627.952V96.8659L634.206 87.2994C638.43 80.894 640.57 77.6776 640.625 77.6499C640.68 77.5947 640.97 77.5671 641.494 77.5671H642.24L642.488 77.8156V96.8659H646.298V98.771H642.488V100.883C642.488 102.015 642.488 102.678 642.488 102.871C642.488 103.064 642.571 103.23 642.737 103.368C642.958 103.561 643.745 103.672 645.097 103.699H646.298V105.604H645.926ZM638.927 96.8659V83.0337L629.857 96.8245L634.371 96.8659H638.927Z" fill="white"/>
<path d="M682.795 104.404C682.795 104.956 682.505 105.232 681.925 105.232C681.787 105.232 681.483 105.011 681.014 104.57C680.545 104.128 679.247 102.844 677.121 100.718L672.814 96.411L668.466 100.759C665.539 103.631 664.034 105.094 663.952 105.149C663.841 105.205 663.745 105.232 663.662 105.232C663.441 105.232 663.248 105.149 663.082 104.984C662.916 104.818 662.82 104.625 662.792 104.404C662.792 104.211 662.985 103.907 663.372 103.493C663.758 103.079 665.056 101.767 667.265 99.5585L671.572 95.2515L667.265 90.9444C665.028 88.7081 663.731 87.3966 663.372 87.0101C663.013 86.6236 662.82 86.3199 662.792 86.099C662.792 85.8505 662.875 85.6573 663.04 85.5192C663.206 85.3812 663.413 85.3121 663.662 85.3121C663.8 85.3121 663.896 85.326 663.952 85.3536C664.034 85.4088 665.539 86.8721 668.466 89.7434L672.814 94.0919L677.121 89.7848C679.247 87.6589 680.545 86.3751 681.014 85.9334C681.483 85.4916 681.787 85.2707 681.925 85.2707C682.505 85.2707 682.795 85.5468 682.795 86.099C682.795 86.2923 682.657 86.5408 682.381 86.8445C682.105 87.1482 680.752 88.501 678.322 90.903L674.015 95.2515L678.322 99.5999C680.641 101.919 681.967 103.258 682.298 103.617C682.629 103.976 682.795 104.238 682.795 104.404Z" fill="white"/>
<path d="M702.643 87.8377C701.897 87.8377 701.304 87.5893 700.862 87.0923C700.42 86.5953 700.199 85.9879 700.199 85.2701C700.199 83.3098 700.931 81.6119 702.394 80.1762C703.857 78.7405 705.68 78.0227 707.861 78.0227C710.373 78.0227 712.472 78.7957 714.156 80.3418C715.84 81.888 716.696 83.8896 716.723 86.3468C716.723 87.534 716.447 88.666 715.895 89.7428C715.343 90.8195 714.68 91.7582 713.907 92.5589C713.134 93.3596 712.03 94.3811 710.594 95.6235C709.6 96.4794 708.22 97.7494 706.453 99.4336L704.009 101.753L707.157 101.794C711.491 101.794 713.797 101.725 714.073 101.587C714.266 101.532 714.597 100.303 715.067 97.9013V97.777H716.723V97.9013C716.696 97.9841 716.516 99.2403 716.185 101.67C715.854 104.1 715.647 105.37 715.564 105.48V105.604H700.199V104.817V104.32C700.199 104.127 700.282 103.92 700.448 103.699C700.613 103.478 701.027 102.995 701.69 102.25C702.491 101.366 703.181 100.593 703.761 99.9306C704.009 99.6545 704.479 99.1437 705.169 98.3982C705.859 97.6528 706.328 97.142 706.577 96.8659C706.825 96.5898 707.226 96.1343 707.778 95.4993C708.33 94.8643 708.717 94.3949 708.938 94.0912C709.158 93.7875 709.476 93.3734 709.89 92.8488C710.304 92.3242 710.594 91.8825 710.76 91.5236C710.925 91.1646 711.132 90.7643 711.381 90.3226C711.629 89.8808 711.809 89.4391 711.919 88.9973C712.03 88.5556 712.126 88.1414 712.209 87.7549C712.292 87.3684 712.333 86.9128 712.333 86.3883C712.333 84.6489 711.864 83.1442 710.925 81.8741C709.987 80.6041 708.648 79.9691 706.908 79.9691C705.997 79.9691 705.196 80.2038 704.506 80.6731C703.816 81.1425 703.333 81.5981 703.057 82.0398C702.781 82.4816 702.643 82.7438 702.643 82.8267C702.643 82.8543 702.712 82.8681 702.85 82.8681C703.347 82.8681 703.857 83.0613 704.382 83.4479C704.907 83.8344 705.169 84.4694 705.169 85.3529C705.169 86.0431 704.948 86.6229 704.506 87.0923C704.065 87.5616 703.443 87.8101 702.643 87.8377Z" fill="white"/>
<path d="M725.627 99.103C725.627 99.7657 725.406 100.318 724.964 100.76C724.523 101.201 723.984 101.422 723.349 101.422H723.059C724.329 103.603 726.013 104.694 728.112 104.694C730.044 104.694 731.452 103.866 732.336 102.209C732.861 101.298 733.123 99.531 733.123 96.9081C733.123 94.0644 732.75 92.1455 732.005 91.1516C731.287 90.2405 730.486 89.7849 729.603 89.7849H729.354C727.201 89.7849 725.572 90.7237 724.467 92.6011C724.357 92.7943 724.26 92.9048 724.177 92.9324C724.095 92.96 723.888 92.9876 723.556 93.0152C723.087 93.0152 722.825 92.9324 722.769 92.7667C722.714 92.6563 722.687 90.2405 722.687 85.5193V80.1769C722.687 78.7965 722.756 78.1063 722.894 78.1063C722.949 78.051 723.004 78.0234 723.059 78.0234C723.087 78.0234 723.377 78.1339 723.929 78.3547C724.481 78.5756 725.24 78.7965 726.207 79.0174C727.173 79.2382 728.208 79.3487 729.313 79.3487C731.273 79.3487 733.15 78.9621 734.945 78.1891C735.166 78.0786 735.345 78.0234 735.483 78.0234C735.704 78.0234 735.815 78.2719 735.815 78.7689V79.3073C733.551 81.9853 730.721 83.3244 727.325 83.3244C726.469 83.3244 725.696 83.2416 725.006 83.0759L724.592 82.9931V90.1163C725.116 89.7297 725.53 89.426 725.834 89.2052C726.138 88.9843 726.635 88.7634 727.325 88.5425C728.015 88.3217 728.719 88.2112 729.437 88.2112C731.673 88.2112 733.565 89.1085 735.111 90.9031C736.657 92.6977 737.43 94.8236 737.43 97.2808C737.43 99.8209 736.546 101.988 734.779 103.783C733.012 105.577 730.859 106.489 728.319 106.516C726.082 106.516 724.288 105.771 722.935 104.28C721.582 102.789 720.906 101.105 720.906 99.2273C720.906 98.5647 721.058 98.0401 721.361 97.6536C721.665 97.267 721.983 97.0186 722.314 96.9081C722.645 96.7977 722.963 96.7425 723.266 96.7425C723.957 96.7425 724.523 96.9771 724.964 97.4465C725.406 97.9159 725.627 98.468 725.627 99.103Z" fill="white"/>
<path d="M753.364 91.2339C753.364 90.875 753.558 90.5989 753.944 90.4056H780.325C780.739 90.6265 780.946 90.9026 780.946 91.2339C780.946 91.5376 780.753 91.7999 780.366 92.0207L767.196 92.0622H754.027C753.585 91.9241 753.364 91.648 753.364 91.2339ZM753.364 99.2682C753.364 98.854 753.585 98.5779 754.027 98.4399H780.366C780.753 98.716 780.946 98.9921 780.946 99.2682C780.946 99.6271 780.739 99.9032 780.325 100.096H753.944C753.558 99.9032 753.364 99.6271 753.364 99.2682Z" fill="white"/>
<path d="M803.789 81.6449L803.251 81.8519C802.864 81.99 802.312 82.128 801.594 82.2661C800.876 82.4041 800.076 82.5007 799.192 82.556H798.405V80.6509H799.192C800.49 80.5957 801.691 80.3886 802.795 80.0297C803.9 79.6708 804.673 79.3395 805.114 79.0358C805.556 78.7321 805.943 78.4284 806.274 78.1247C806.329 78.0419 806.495 78.0005 806.771 78.0005C807.019 78.0005 807.254 78.0833 807.475 78.2489V90.6317L807.516 103.056C807.71 103.249 807.875 103.373 808.013 103.429C808.151 103.484 808.483 103.539 809.007 103.594C809.532 103.649 810.388 103.677 811.575 103.677H812.652V105.582H812.196C811.616 105.499 809.421 105.458 805.611 105.458C801.856 105.458 799.689 105.499 799.109 105.582H798.612V103.677H799.689C800.297 103.677 800.821 103.677 801.263 103.677C801.705 103.677 802.05 103.663 802.298 103.636C802.547 103.608 802.768 103.567 802.961 103.511C803.154 103.456 803.264 103.429 803.292 103.429C803.32 103.429 803.403 103.359 803.541 103.221C803.679 103.083 803.761 103.028 803.789 103.056V81.6449Z" fill="white"/>
<path d="M817.415 92.6203C817.415 88.12 818.534 84.5584 820.77 81.9355C823.006 79.3126 825.491 78.0012 828.224 78.0012C830.129 78.0012 831.496 78.4982 832.324 79.4921C833.153 80.486 833.567 81.5904 833.567 82.8052C833.567 83.4954 833.374 84.0476 832.987 84.4618C832.6 84.8759 832.062 85.083 831.372 85.083C830.737 85.083 830.212 84.8897 829.798 84.5032C829.384 84.1166 829.177 83.5783 829.177 82.888C829.177 81.6732 829.826 80.9416 831.123 80.6931C830.516 80.0857 829.66 79.7406 828.556 79.6578C826.595 79.6578 824.98 80.486 823.71 82.1426C822.413 83.9648 821.764 86.7533 821.764 90.5082L821.805 90.6738C821.943 90.5082 822.054 90.3287 822.137 90.1355C823.269 88.4789 824.746 87.6506 826.568 87.6506H826.734C828.004 87.6506 829.122 87.9129 830.088 88.4375C830.751 88.824 831.413 89.3762 832.076 90.094C832.739 90.8119 833.277 91.5987 833.691 92.4546C834.271 93.8075 834.561 95.2846 834.561 96.8859V97.6313C834.561 98.2664 834.492 98.86 834.354 99.4121C834.05 101.041 833.166 102.629 831.703 104.175C830.24 105.721 828.39 106.494 826.154 106.494C825.381 106.494 824.635 106.383 823.917 106.163C823.2 105.942 822.426 105.528 821.598 104.92C820.77 104.313 820.066 103.498 819.486 102.477C818.906 101.455 818.409 100.116 817.995 98.4596C817.581 96.8031 817.388 94.8566 817.415 92.6203ZM826.319 89.1415C825.491 89.1415 824.773 89.3762 824.166 89.8456C823.558 90.3149 823.089 90.9361 822.758 91.7092C822.426 92.4822 822.192 93.2691 822.054 94.0698C821.916 94.8704 821.833 95.7263 821.805 96.6374C821.805 98.929 821.971 100.572 822.302 101.566C822.634 102.56 823.158 103.36 823.876 103.968C824.539 104.465 825.27 104.713 826.071 104.713C827.479 104.713 828.556 104.189 829.301 103.139C829.66 102.642 829.909 102.021 830.047 101.276C830.185 100.53 830.254 99.0808 830.254 96.9273C830.254 94.7186 830.185 93.2415 830.047 92.496C829.909 91.7506 829.66 91.1294 829.301 90.6324C828.556 89.6385 827.562 89.1415 826.319 89.1415Z" fill="white"/>
<path d="M840.359 81.3557C841.905 79.1194 844.018 78.0012 846.696 78.0012C848.021 78.0012 849.346 78.3601 850.671 79.078C851.997 79.7958 853.073 81.0658 853.902 82.888C854.923 85.1796 855.434 88.3271 855.434 92.3304C855.434 96.6098 854.84 99.8815 853.653 102.145C853.101 103.305 852.342 104.23 851.375 104.92C850.409 105.61 849.567 106.038 848.849 106.204C848.131 106.37 847.427 106.466 846.737 106.494C846.019 106.494 845.301 106.411 844.584 106.245C843.866 106.08 843.024 105.638 842.057 104.92C841.091 104.202 840.332 103.277 839.78 102.145C838.592 99.8815 837.999 96.6098 837.999 92.3304C837.999 87.5264 838.786 83.8682 840.359 81.3557ZM849.677 80.8588C848.849 79.9753 847.869 79.5335 846.737 79.5335C845.578 79.5335 844.584 79.9753 843.755 80.8588C843.065 81.5766 842.61 82.5705 842.389 83.8406C842.168 85.1106 842.057 87.7611 842.057 91.792C842.057 96.1543 842.168 99.0256 842.389 100.406C842.61 101.787 843.106 102.877 843.88 103.678C844.653 104.506 845.605 104.92 846.737 104.92C847.841 104.92 848.78 104.506 849.553 103.678C850.354 102.849 850.851 101.69 851.044 100.199C851.237 98.7081 851.348 95.9058 851.375 91.792C851.375 87.7887 851.265 85.152 851.044 83.882C850.823 82.6119 850.368 81.6042 849.677 80.8588Z" fill="white"/>
<path d="M861.066 81.3557C862.612 79.1194 864.724 78.0012 867.402 78.0012C868.727 78.0012 870.053 78.3601 871.378 79.078C872.703 79.7958 873.78 81.0658 874.608 82.888C875.63 85.1796 876.141 88.3271 876.141 92.3304C876.141 96.6098 875.547 99.8815 874.36 102.145C873.808 103.305 873.048 104.23 872.082 104.92C871.116 105.61 870.274 106.038 869.556 106.204C868.838 106.37 868.134 106.466 867.444 106.494C866.726 106.494 866.008 106.411 865.29 106.245C864.572 106.08 863.73 105.638 862.764 104.92C861.798 104.202 861.038 103.277 860.486 102.145C859.299 99.8815 858.705 96.6098 858.705 92.3304C858.705 87.5264 859.492 83.8682 861.066 81.3557ZM870.384 80.8588C869.556 79.9753 868.576 79.5335 867.444 79.5335C866.284 79.5335 865.29 79.9753 864.462 80.8588C863.772 81.5766 863.316 82.5705 863.095 83.8406C862.874 85.1106 862.764 87.7611 862.764 91.792C862.764 96.1543 862.874 99.0256 863.095 100.406C863.316 101.787 863.813 102.877 864.586 103.678C865.359 104.506 866.312 104.92 867.444 104.92C868.548 104.92 869.487 104.506 870.26 103.678C871.06 102.849 871.557 101.69 871.751 100.199C871.944 98.7081 872.054 95.9058 872.082 91.792C872.082 87.7887 871.972 85.152 871.751 83.882C871.53 82.6119 871.074 81.6042 870.384 80.8588Z" fill="white"/>
<path d="M478.701 173.317C478.701 173.013 478.922 172.861 479.363 172.861C479.501 172.861 479.612 172.861 479.695 172.861C479.778 172.861 479.847 172.861 479.902 172.861C479.957 172.861 480.012 172.875 480.067 172.903C480.123 172.931 480.15 172.944 480.15 172.944C480.15 172.944 480.178 172.986 480.233 173.069C480.288 173.151 480.316 173.193 480.316 173.193C480.316 173.193 480.357 173.262 480.44 173.4C481.462 175.443 482.815 177.251 484.499 178.825C486.183 180.399 487.715 181.517 489.096 182.18C490.476 182.842 491.801 183.353 493.071 183.712C493.541 183.85 493.775 184.029 493.775 184.25C493.775 184.471 493.651 184.623 493.403 184.706C493.154 184.789 492.643 184.941 491.87 185.161C491.097 185.382 490.297 185.714 489.468 186.155C485.493 188.088 482.483 191.07 480.44 195.101C480.33 195.349 480.233 195.487 480.15 195.515C480.067 195.542 479.86 195.57 479.529 195.598C478.977 195.598 478.701 195.501 478.701 195.308C478.701 195.197 478.77 194.963 478.908 194.604C479.874 192.699 481.061 191.001 482.469 189.51L482.884 189.096H457.58C457.193 188.902 457 188.626 457 188.267C457 187.853 457.221 187.577 457.663 187.439H484.706L485.12 187.108C486.197 186.28 487.812 185.327 489.965 184.25C489.938 184.223 489.689 184.098 489.22 183.878C488.751 183.657 488.129 183.325 487.356 182.884C486.583 182.442 485.838 181.945 485.12 181.393L484.706 181.061H457.663C457.221 180.923 457 180.647 457 180.233C457 179.874 457.193 179.598 457.58 179.405H482.884L482.469 178.991C481.558 178.024 480.702 176.906 479.902 175.636C479.101 174.366 478.701 173.593 478.701 173.317Z" fill="white"/>
<path d="M509.751 182.636C509.944 181.476 510.69 180.137 511.987 178.619C513.285 177.1 514.886 176.327 516.791 176.3C517.758 176.3 518.641 176.548 519.442 177.045C520.242 177.542 520.836 178.163 521.223 178.909C522.382 177.169 523.776 176.3 525.405 176.3C526.427 176.3 527.31 176.603 528.056 177.211C528.801 177.818 529.188 178.633 529.215 179.654C529.215 180.455 529.022 181.104 528.636 181.601C528.249 182.098 527.876 182.401 527.517 182.512C527.159 182.622 526.841 182.677 526.565 182.677C526.04 182.677 525.612 182.525 525.281 182.222C524.95 181.918 524.784 181.518 524.784 181.021C524.784 179.751 525.474 178.881 526.855 178.412C526.551 178.053 525.999 177.873 525.198 177.873C524.839 177.873 524.577 177.901 524.411 177.956C523.362 178.398 522.589 179.309 522.092 180.689C520.436 186.791 519.607 190.353 519.607 191.374C519.607 192.147 519.828 192.699 520.27 193.031C520.712 193.362 521.195 193.528 521.719 193.528C522.741 193.528 523.749 193.072 524.743 192.161C525.737 191.25 526.413 190.132 526.772 188.807C526.855 188.53 526.938 188.379 527.02 188.351C527.103 188.323 527.324 188.296 527.683 188.268H527.849C528.263 188.268 528.47 188.379 528.47 188.6C528.47 188.627 528.442 188.779 528.387 189.055C527.945 190.629 527.089 192.023 525.819 193.238C524.549 194.453 523.072 195.06 521.388 195.06C519.456 195.06 517.992 194.19 516.998 192.451C515.866 194.163 514.569 195.019 513.105 195.019H512.857C511.504 195.019 510.538 194.66 509.958 193.942C509.378 193.224 509.074 192.465 509.047 191.664C509.047 190.781 509.309 190.063 509.834 189.511C510.358 188.958 510.98 188.682 511.697 188.682C512.885 188.682 513.478 189.262 513.478 190.422C513.478 190.974 513.312 191.457 512.981 191.871C512.65 192.285 512.332 192.561 512.029 192.699C511.725 192.838 511.546 192.907 511.49 192.907L511.366 192.948C511.366 192.976 511.449 193.031 511.615 193.114C511.78 193.196 512.001 193.293 512.277 193.404C512.553 193.514 512.816 193.555 513.064 193.528C514.058 193.528 514.914 192.907 515.632 191.664C515.88 191.222 516.198 190.284 516.584 188.848C516.971 187.412 517.357 185.921 517.744 184.375C518.13 182.829 518.351 181.918 518.406 181.642C518.544 180.897 518.613 180.358 518.613 180.027C518.613 179.254 518.406 178.702 517.992 178.37C517.578 178.039 517.109 177.873 516.584 177.873C515.48 177.873 514.444 178.315 513.478 179.199C512.512 180.082 511.835 181.214 511.449 182.595C511.394 182.843 511.325 182.981 511.242 183.009C511.159 183.036 510.938 183.064 510.579 183.091H509.999C509.834 182.926 509.751 182.774 509.751 182.636Z" fill="white"/>
<path d="M545.114 180.234C545.114 179.875 545.307 179.599 545.694 179.405H572.074C572.488 179.626 572.695 179.902 572.695 180.234C572.695 180.537 572.502 180.8 572.116 181.021L558.946 181.062H545.776C545.335 180.924 545.114 180.648 545.114 180.234ZM545.114 188.268C545.114 187.854 545.335 187.578 545.776 187.44H572.116C572.502 187.716 572.695 187.992 572.695 188.268C572.695 188.627 572.488 188.903 572.074 189.096H545.694C545.307 188.903 545.114 188.627 545.114 188.268Z" fill="white"/>
<path d="M588.256 181.642C588.256 177.142 589.374 173.58 591.611 170.957C593.847 168.335 596.332 167.023 599.065 167.023C600.97 167.023 602.337 167.52 603.165 168.514C603.993 169.508 604.407 170.612 604.407 171.827C604.407 172.517 604.214 173.07 603.828 173.484C603.441 173.898 602.903 174.105 602.212 174.105C601.577 174.105 601.053 173.912 600.639 173.525C600.225 173.139 600.018 172.6 600.018 171.91C600.018 170.695 600.666 169.964 601.964 169.715C601.357 169.108 600.501 168.763 599.396 168.68C597.436 168.68 595.821 169.508 594.551 171.165C593.253 172.987 592.604 175.775 592.604 179.53L592.646 179.696C592.784 179.53 592.894 179.351 592.977 179.157C594.109 177.501 595.586 176.673 597.408 176.673H597.574C598.844 176.673 599.962 176.935 600.929 177.459C601.591 177.846 602.254 178.398 602.916 179.116C603.579 179.834 604.117 180.621 604.532 181.477C605.111 182.829 605.401 184.307 605.401 185.908V186.653C605.401 187.288 605.332 187.882 605.194 188.434C604.891 190.063 604.007 191.651 602.544 193.197C601.08 194.743 599.231 195.516 596.994 195.516C596.221 195.516 595.476 195.405 594.758 195.185C594.04 194.964 593.267 194.55 592.439 193.942C591.611 193.335 590.906 192.52 590.327 191.499C589.747 190.477 589.25 189.138 588.836 187.482C588.422 185.825 588.228 183.879 588.256 181.642ZM597.16 178.163C596.332 178.163 595.614 178.398 595.006 178.868C594.399 179.337 593.93 179.958 593.598 180.731C593.267 181.504 593.032 182.291 592.894 183.092C592.756 183.892 592.673 184.748 592.646 185.659C592.646 187.951 592.812 189.594 593.143 190.588C593.474 191.582 593.999 192.382 594.717 192.99C595.379 193.487 596.111 193.735 596.911 193.735C598.32 193.735 599.396 193.211 600.142 192.161C600.501 191.664 600.749 191.043 600.887 190.298C601.025 189.552 601.094 188.103 601.094 185.949C601.094 183.741 601.025 182.263 600.887 181.518C600.749 180.773 600.501 180.151 600.142 179.654C599.396 178.66 598.402 178.163 597.16 178.163Z" fill="white"/>
<path d="M610.942 163.944C610.415 163.944 610.005 163.778 609.712 163.446C609.419 163.115 609.263 162.685 609.244 162.158C609.244 161.085 609.712 160.128 610.649 159.289C611.586 158.449 612.718 158.03 614.046 158.03C614.729 158.03 615.158 158.039 615.334 158.059C616.778 158.293 617.881 158.811 618.642 159.611C619.404 160.411 619.794 161.28 619.814 162.217C619.814 163.232 619.482 164.217 618.818 165.174C618.154 166.13 617.237 166.823 616.066 167.253L615.978 167.311C615.978 167.331 616.066 167.36 616.241 167.399C616.417 167.438 616.7 167.526 617.091 167.663C617.481 167.799 617.852 168.004 618.203 168.278C619.804 169.312 620.604 170.678 620.604 172.377C620.604 173.919 619.999 175.266 618.789 176.417C617.579 177.569 616.046 178.145 614.192 178.145C612.63 178.145 611.283 177.725 610.151 176.886C609.019 176.046 608.453 174.983 608.453 173.694C608.453 173.148 608.629 172.709 608.98 172.377C609.332 172.045 609.771 171.869 610.298 171.85C610.844 171.85 611.293 172.025 611.645 172.377C611.996 172.728 612.172 173.167 612.172 173.694C612.172 173.909 612.142 174.104 612.084 174.28C612.025 174.456 611.957 174.612 611.879 174.748C611.801 174.885 611.693 175.002 611.557 175.1C611.42 175.197 611.303 175.275 611.205 175.334C611.108 175.392 611.01 175.432 610.913 175.451C610.815 175.471 610.737 175.5 610.678 175.539L610.561 175.568C611.557 176.447 612.767 176.886 614.192 176.886C615.265 176.886 616.076 176.368 616.622 175.334C616.954 174.69 617.12 173.704 617.12 172.377V171.791C617.12 169.937 616.495 168.697 615.246 168.073C614.953 167.955 614.358 167.887 613.46 167.868L612.23 167.838L612.142 167.78C612.103 167.721 612.084 167.565 612.084 167.311C612.084 166.96 612.162 166.784 612.318 166.784C612.865 166.784 613.431 166.736 614.016 166.638C614.68 166.54 615.285 166.13 615.832 165.408C616.378 164.686 616.651 163.593 616.651 162.129V161.895C616.651 160.782 616.31 160.011 615.627 159.582C615.197 159.308 614.738 159.172 614.25 159.172C613.626 159.172 613.05 159.279 612.523 159.494C611.996 159.708 611.625 159.933 611.41 160.167C611.196 160.401 611.088 160.518 611.088 160.518H611.176C611.235 160.538 611.313 160.558 611.41 160.577C611.508 160.597 611.606 160.645 611.703 160.723C611.801 160.802 611.918 160.87 612.055 160.928C612.191 160.987 612.289 161.094 612.347 161.25C612.406 161.407 612.484 161.553 612.582 161.69C612.679 161.826 612.708 162.022 612.669 162.275C612.669 162.705 612.533 163.085 612.259 163.417C611.986 163.749 611.547 163.925 610.942 163.944Z" fill="white"/>
<path d="M659.227 193.404C659.227 193.956 658.938 194.232 658.358 194.232C658.22 194.232 657.916 194.011 657.447 193.569C656.977 193.128 655.68 191.844 653.554 189.718L649.247 185.411L644.898 189.759C641.972 192.631 640.467 194.094 640.384 194.149C640.274 194.204 640.177 194.232 640.094 194.232C639.873 194.232 639.68 194.149 639.515 193.983C639.349 193.818 639.252 193.625 639.225 193.404C639.225 193.21 639.418 192.907 639.804 192.493C640.191 192.078 641.489 190.767 643.697 188.558L648.004 184.251L643.697 179.944C641.461 177.708 640.163 176.396 639.804 176.01C639.445 175.623 639.252 175.32 639.225 175.099C639.225 174.85 639.307 174.657 639.473 174.519C639.639 174.381 639.846 174.312 640.094 174.312C640.232 174.312 640.329 174.326 640.384 174.353C640.467 174.409 641.972 175.872 644.898 178.743L649.247 183.092L653.554 178.785C655.68 176.659 656.977 175.375 657.447 174.933C657.916 174.491 658.22 174.27 658.358 174.27C658.938 174.27 659.227 174.547 659.227 175.099C659.227 175.292 659.089 175.541 658.813 175.844C658.537 176.148 657.184 177.501 654.755 179.903L650.448 184.251L654.755 188.6C657.074 190.919 658.399 192.258 658.731 192.617C659.062 192.976 659.227 193.238 659.227 193.404Z" fill="white"/>
<path d="M679.076 176.838C678.33 176.838 677.737 176.589 677.295 176.092C676.853 175.595 676.632 174.988 676.632 174.27C676.632 172.31 677.364 170.612 678.827 169.176C680.291 167.741 682.113 167.023 684.294 167.023C686.806 167.023 688.905 167.796 690.589 169.342C692.273 170.888 693.129 172.89 693.156 175.347C693.156 176.534 692.88 177.666 692.328 178.743C691.776 179.82 691.113 180.758 690.34 181.559C689.567 182.36 688.463 183.381 687.027 184.624C686.033 185.479 684.653 186.749 682.886 188.434L680.442 190.753L683.59 190.794C687.924 190.794 690.23 190.725 690.506 190.587C690.699 190.532 691.031 189.303 691.5 186.901V186.777H693.156V186.901C693.129 186.984 692.949 188.24 692.618 190.67C692.287 193.1 692.08 194.37 691.997 194.48V194.604H676.632V193.817V193.32C676.632 193.127 676.715 192.92 676.881 192.699C677.046 192.478 677.461 191.995 678.123 191.25C678.924 190.366 679.614 189.593 680.194 188.931C680.442 188.654 680.912 188.144 681.602 187.398C682.292 186.653 682.762 186.142 683.01 185.866C683.259 185.59 683.659 185.134 684.211 184.499C684.763 183.864 685.15 183.395 685.371 183.091C685.592 182.788 685.909 182.373 686.323 181.849C686.737 181.324 687.027 180.882 687.193 180.524C687.358 180.165 687.566 179.764 687.814 179.323C688.063 178.881 688.242 178.439 688.352 177.997C688.463 177.556 688.559 177.141 688.642 176.755C688.725 176.368 688.767 175.913 688.767 175.388C688.767 173.649 688.297 172.144 687.358 170.874C686.42 169.604 685.081 168.969 683.341 168.969C682.43 168.969 681.63 169.204 680.939 169.673C680.249 170.143 679.766 170.598 679.49 171.04C679.214 171.482 679.076 171.744 679.076 171.827C679.076 171.854 679.145 171.868 679.283 171.868C679.78 171.868 680.291 172.061 680.815 172.448C681.34 172.834 681.602 173.469 681.602 174.353C681.602 175.043 681.381 175.623 680.939 176.092C680.498 176.562 679.876 176.81 679.076 176.838Z" fill="white"/>
<path d="M698.458 164.939C697.931 164.939 697.512 164.764 697.199 164.412C696.887 164.061 696.731 163.631 696.731 163.124C696.731 161.738 697.248 160.538 698.283 159.523C699.317 158.508 700.605 158 702.147 158C703.924 158 705.407 158.547 706.598 159.64C707.789 160.733 708.394 162.148 708.413 163.885C708.413 164.725 708.218 165.525 707.828 166.286C707.437 167.047 706.969 167.711 706.422 168.277C705.876 168.843 705.095 169.565 704.08 170.444C703.377 171.049 702.401 171.947 701.152 173.138L699.424 174.777L701.65 174.807C704.714 174.807 706.344 174.758 706.539 174.66C706.676 174.621 706.91 173.752 707.242 172.054V171.966H708.413V172.054C708.394 172.113 708.267 173.001 708.033 174.719C707.798 176.436 707.652 177.334 707.593 177.412V177.5H696.731V176.944V176.593C696.731 176.456 696.789 176.31 696.906 176.153C697.024 175.997 697.316 175.656 697.785 175.129C698.351 174.504 698.839 173.957 699.249 173.489C699.424 173.294 699.756 172.933 700.244 172.406C700.732 171.879 701.064 171.517 701.24 171.322C701.415 171.127 701.698 170.805 702.089 170.356C702.479 169.907 702.753 169.575 702.909 169.361C703.065 169.146 703.289 168.853 703.582 168.482C703.875 168.111 704.08 167.799 704.197 167.545C704.314 167.291 704.461 167.008 704.636 166.696C704.812 166.384 704.939 166.071 705.017 165.759C705.095 165.447 705.163 165.154 705.222 164.881C705.28 164.607 705.31 164.285 705.31 163.915C705.31 162.685 704.978 161.621 704.314 160.723C703.65 159.825 702.704 159.376 701.474 159.376C700.83 159.376 700.264 159.542 699.776 159.874C699.288 160.206 698.946 160.528 698.751 160.84C698.556 161.152 698.458 161.338 698.458 161.396C698.458 161.416 698.507 161.426 698.605 161.426C698.956 161.426 699.317 161.562 699.688 161.836C700.059 162.109 700.244 162.558 700.244 163.183C700.244 163.671 700.088 164.08 699.776 164.412C699.463 164.744 699.024 164.92 698.458 164.939Z" fill="white"/>
<path d="M399.312 231.016C399.312 230.298 399.561 229.705 400.057 229.235C400.554 228.766 401.148 228.531 401.838 228.531C402.501 228.531 403.067 228.766 403.536 229.235C404.006 229.705 404.254 230.298 404.282 231.016C404.309 231.734 404.075 232.328 403.578 232.797C403.081 233.266 402.487 233.501 401.797 233.501C401.079 233.501 400.485 233.266 400.016 232.797C399.547 232.328 399.312 231.734 399.312 231.016ZM391.485 246.463C392.203 246.463 392.782 246.698 393.224 247.167C393.666 247.637 393.901 248.23 393.928 248.948C393.928 249.611 393.707 250.191 393.266 250.688C392.824 251.185 392.216 251.433 391.443 251.433C390.726 251.433 390.146 251.198 389.704 250.729C389.262 250.26 389.028 249.666 389 248.948C389 248.23 389.235 247.637 389.704 247.167C390.173 246.698 390.767 246.463 391.485 246.463ZM409.707 248.948C409.707 248.23 409.942 247.637 410.411 247.167C410.88 246.698 411.474 246.463 412.192 246.463C412.854 246.463 413.42 246.698 413.89 247.167C414.359 247.637 414.608 248.23 414.635 248.948C414.635 249.583 414.414 250.149 413.973 250.646C413.531 251.143 412.923 251.405 412.15 251.433C411.432 251.433 410.853 251.198 410.411 250.729C409.969 250.26 409.735 249.666 409.707 248.948Z" fill="white"/>
<path d="M440.789 236.069C440.982 234.909 441.727 233.57 443.025 232.052C444.322 230.533 445.924 229.76 447.829 229.733C448.795 229.733 449.679 229.981 450.479 230.478C451.28 230.975 451.874 231.596 452.26 232.342C453.42 230.602 454.814 229.733 456.443 229.733C457.464 229.733 458.348 230.036 459.093 230.644C459.839 231.251 460.225 232.066 460.253 233.087C460.253 233.888 460.06 234.537 459.673 235.034C459.287 235.531 458.914 235.834 458.555 235.945C458.196 236.055 457.879 236.11 457.603 236.11C457.078 236.11 456.65 235.959 456.319 235.655C455.987 235.351 455.822 234.951 455.822 234.454C455.822 233.184 456.512 232.314 457.892 231.845C457.589 231.486 457.037 231.306 456.236 231.306C455.877 231.306 455.615 231.334 455.449 231.389C454.4 231.831 453.627 232.742 453.13 234.123C451.473 240.224 450.645 243.786 450.645 244.807C450.645 245.58 450.866 246.133 451.308 246.464C451.749 246.795 452.233 246.961 452.757 246.961C453.779 246.961 454.786 246.505 455.78 245.594C456.774 244.683 457.451 243.565 457.81 242.24C457.892 241.964 457.975 241.812 458.058 241.784C458.141 241.757 458.362 241.729 458.721 241.701H458.886C459.3 241.701 459.508 241.812 459.508 242.033C459.508 242.06 459.48 242.212 459.425 242.488C458.983 244.062 458.127 245.456 456.857 246.671C455.587 247.886 454.11 248.493 452.426 248.493C450.493 248.493 449.03 247.623 448.036 245.884C446.904 247.596 445.606 248.452 444.143 248.452H443.895C442.542 248.452 441.575 248.093 440.996 247.375C440.416 246.657 440.112 245.898 440.084 245.097C440.084 244.214 440.347 243.496 440.871 242.944C441.396 242.392 442.017 242.115 442.735 242.115C443.922 242.115 444.516 242.695 444.516 243.855C444.516 244.407 444.35 244.89 444.019 245.304C443.687 245.718 443.37 245.995 443.066 246.133C442.763 246.271 442.583 246.34 442.528 246.34L442.404 246.381C442.404 246.409 442.486 246.464 442.652 246.547C442.818 246.63 443.039 246.726 443.315 246.837C443.591 246.947 443.853 246.988 444.102 246.961C445.096 246.961 445.951 246.34 446.669 245.097C446.918 244.655 447.235 243.717 447.622 242.281C448.008 240.845 448.395 239.355 448.781 237.808C449.168 236.262 449.389 235.351 449.444 235.075C449.582 234.33 449.651 233.791 449.651 233.46C449.651 232.687 449.444 232.135 449.03 231.803C448.616 231.472 448.146 231.306 447.622 231.306C446.517 231.306 445.482 231.748 444.516 232.632C443.549 233.515 442.873 234.647 442.486 236.028C442.431 236.276 442.362 236.414 442.279 236.442C442.197 236.469 441.976 236.497 441.617 236.525H441.037C440.871 236.359 440.789 236.207 440.789 236.069Z" fill="white"/>
<path d="M476.147 233.667C476.147 233.308 476.341 233.032 476.727 232.838H503.108C503.522 233.059 503.729 233.335 503.729 233.667C503.729 233.97 503.536 234.233 503.149 234.454L489.98 234.495H476.81C476.368 234.357 476.147 234.081 476.147 233.667ZM476.147 241.701C476.147 241.287 476.368 241.011 476.81 240.873H503.149C503.536 241.149 503.729 241.425 503.729 241.701C503.729 242.06 503.522 242.336 503.108 242.529H476.727C476.341 242.336 476.147 242.06 476.147 241.701Z" fill="white"/>
<path d="M522.065 230.271C521.32 230.271 520.726 230.022 520.285 229.525C519.843 229.028 519.622 228.421 519.622 227.703C519.622 225.743 520.354 224.045 521.817 222.609C523.28 221.173 525.102 220.456 527.284 220.456C529.796 220.456 531.894 221.229 533.579 222.775C535.263 224.321 536.119 226.322 536.146 228.78C536.146 229.967 535.87 231.099 535.318 232.176C534.766 233.252 534.103 234.191 533.33 234.992C532.557 235.792 531.453 236.814 530.017 238.056C529.023 238.912 527.643 240.182 525.876 241.866L523.432 244.186L526.58 244.227C530.914 244.227 533.22 244.158 533.496 244.02C533.689 243.965 534.02 242.736 534.49 240.334V240.21H536.146V240.334C536.119 240.417 535.939 241.673 535.608 244.103C535.276 246.532 535.069 247.802 534.987 247.913V248.037H519.622V247.25V246.753C519.622 246.56 519.705 246.353 519.871 246.132C520.036 245.911 520.45 245.428 521.113 244.683C521.914 243.799 522.604 243.026 523.184 242.363C523.432 242.087 523.901 241.577 524.592 240.831C525.282 240.086 525.751 239.575 526 239.299C526.248 239.023 526.649 238.567 527.201 237.932C527.753 237.297 528.14 236.828 528.36 236.524C528.581 236.22 528.899 235.806 529.313 235.282C529.727 234.757 530.017 234.315 530.183 233.956C530.348 233.598 530.555 233.197 530.804 232.755C531.052 232.314 531.232 231.872 531.342 231.43C531.453 230.988 531.549 230.574 531.632 230.188C531.715 229.801 531.756 229.346 531.756 228.821C531.756 227.082 531.287 225.577 530.348 224.307C529.41 223.037 528.07 222.402 526.331 222.402C525.42 222.402 524.619 222.637 523.929 223.106C523.239 223.575 522.756 224.031 522.48 224.473C522.204 224.914 522.065 225.177 522.065 225.26C522.065 225.287 522.135 225.301 522.273 225.301C522.77 225.301 523.28 225.494 523.805 225.881C524.329 226.267 524.592 226.902 524.592 227.786C524.592 228.476 524.371 229.056 523.929 229.525C523.487 229.995 522.866 230.243 522.065 230.271Z" fill="white"/>
<path d="M547.08 224.1L546.542 224.307C546.155 224.445 545.603 224.583 544.885 224.721C544.167 224.859 543.367 224.956 542.483 225.011H541.696V223.106H542.483C543.781 223.051 544.982 222.844 546.086 222.485C547.191 222.126 547.964 221.795 548.405 221.491C548.847 221.187 549.234 220.883 549.565 220.58C549.62 220.497 549.786 220.456 550.062 220.456C550.31 220.456 550.545 220.538 550.766 220.704V233.087L550.807 245.511C551.001 245.704 551.166 245.828 551.304 245.884C551.442 245.939 551.774 245.994 552.298 246.049C552.823 246.104 553.679 246.132 554.866 246.132H555.943V248.037H555.487C554.907 247.954 552.712 247.913 548.902 247.913C545.147 247.913 542.98 247.954 542.4 248.037H541.903V246.132H542.98C543.588 246.132 544.112 246.132 544.554 246.132C544.996 246.132 545.341 246.118 545.589 246.091C545.838 246.063 546.059 246.022 546.252 245.966C546.445 245.911 546.556 245.884 546.583 245.884C546.611 245.884 546.694 245.815 546.832 245.677C546.97 245.538 547.052 245.483 547.08 245.511V224.1Z" fill="white"/>
<path d="M560.703 235.075C560.703 230.575 561.821 227.013 564.057 224.391C566.294 221.768 568.778 220.456 571.512 220.456C573.417 220.456 574.783 220.953 575.612 221.947C576.44 222.941 576.854 224.045 576.854 225.26C576.854 225.951 576.661 226.503 576.274 226.917C575.888 227.331 575.349 227.538 574.659 227.538C574.024 227.538 573.5 227.345 573.086 226.958C572.671 226.572 572.464 226.033 572.464 225.343C572.464 224.128 573.113 223.397 574.411 223.148C573.803 222.541 572.947 222.196 571.843 222.113C569.883 222.113 568.268 222.941 566.998 224.598C565.7 226.42 565.051 229.208 565.051 232.963L565.093 233.129C565.231 232.963 565.341 232.784 565.424 232.591C566.556 230.934 568.033 230.106 569.855 230.106H570.021C571.291 230.106 572.409 230.368 573.375 230.893C574.038 231.279 574.701 231.831 575.363 232.549C576.026 233.267 576.564 234.054 576.978 234.91C577.558 236.263 577.848 237.74 577.848 239.341V240.086C577.848 240.721 577.779 241.315 577.641 241.867C577.337 243.496 576.454 245.084 574.991 246.63C573.527 248.176 571.677 248.949 569.441 248.949C568.668 248.949 567.923 248.839 567.205 248.618C566.487 248.397 565.714 247.983 564.886 247.375C564.057 246.768 563.353 245.953 562.773 244.932C562.194 243.91 561.697 242.571 561.283 240.915C560.868 239.258 560.675 237.312 560.703 235.075ZM569.607 231.597C568.778 231.597 568.061 231.831 567.453 232.301C566.846 232.77 566.376 233.391 566.045 234.164C565.714 234.937 565.479 235.724 565.341 236.525C565.203 237.326 565.12 238.181 565.093 239.092C565.093 241.384 565.258 243.027 565.59 244.021C565.921 245.015 566.445 245.815 567.163 246.423C567.826 246.92 568.558 247.168 569.358 247.168C570.766 247.168 571.843 246.644 572.589 245.594C572.947 245.097 573.196 244.476 573.334 243.731C573.472 242.985 573.541 241.536 573.541 239.382C573.541 237.174 573.472 235.697 573.334 234.951C573.196 234.206 572.947 233.584 572.589 233.087C571.843 232.094 570.849 231.597 569.607 231.597Z" fill="white"/>
<path d="M614.966 246.837C614.966 247.389 614.676 247.665 614.096 247.665C613.958 247.665 613.654 247.444 613.185 247.002C612.716 246.561 611.418 245.277 609.292 243.151L604.985 238.844L600.637 243.192C597.71 246.064 596.205 247.527 596.122 247.582C596.012 247.637 595.915 247.665 595.833 247.665C595.612 247.665 595.418 247.582 595.253 247.417C595.087 247.251 594.99 247.058 594.963 246.837C594.963 246.643 595.156 246.34 595.543 245.926C595.929 245.512 597.227 244.2 599.436 241.991L603.743 237.684L599.436 233.377C597.199 231.141 595.902 229.83 595.543 229.443C595.184 229.056 594.99 228.753 594.963 228.532C594.963 228.283 595.046 228.09 595.211 227.952C595.377 227.814 595.584 227.745 595.833 227.745C595.971 227.745 596.067 227.759 596.122 227.786C596.205 227.842 597.71 229.305 600.637 232.176L604.985 236.525L609.292 232.218C611.418 230.092 612.716 228.808 613.185 228.366C613.654 227.924 613.958 227.704 614.096 227.704C614.676 227.704 614.966 227.98 614.966 228.532C614.966 228.725 614.828 228.974 614.552 229.277C614.276 229.581 612.923 230.934 610.493 233.336L606.186 237.684L610.493 242.033C612.812 244.352 614.137 245.691 614.469 246.05C614.8 246.409 614.966 246.671 614.966 246.837Z" fill="white"/>
<path d="M649.432 248.037C648.935 247.954 647.154 247.913 644.09 247.913C640.887 247.913 639.037 247.954 638.54 248.037H638.168V246.132H639.451C640.004 246.132 640.376 246.132 640.57 246.132C640.763 246.132 640.997 246.104 641.274 246.049C641.55 245.994 641.743 245.925 641.853 245.842C641.964 245.759 642.06 245.649 642.143 245.511C642.171 245.456 642.185 244.71 642.185 243.275V241.204H631.458V239.299L637.712 229.732C641.936 223.327 644.076 220.11 644.131 220.083C644.186 220.028 644.476 220 645.001 220H645.746L645.995 220.248V239.299H649.805V241.204H645.995V243.316C645.995 244.448 645.995 245.111 645.995 245.304C645.995 245.497 646.078 245.663 646.243 245.801C646.464 245.994 647.251 246.104 648.604 246.132H649.805V248.037H649.432ZM642.433 239.299V225.467L633.364 239.257L637.878 239.299H642.433Z" fill="white"/>
<path d="M664.829 233.667C664.829 233.308 665.022 233.032 665.409 232.838H691.789C692.204 233.059 692.411 233.335 692.411 233.667C692.411 233.97 692.217 234.233 691.831 234.454L678.661 234.495H665.492C665.05 234.357 664.829 234.081 664.829 233.667ZM664.829 241.701C664.829 241.287 665.05 241.011 665.492 240.873H691.831C692.217 241.149 692.411 241.425 692.411 241.701C692.411 242.06 692.204 242.336 691.789 242.529H665.409C665.022 242.336 664.829 242.06 664.829 241.701Z" fill="white"/>
<path d="M709.133 230.768C709.133 230.768 709.133 229.705 709.133 227.579C709.133 225.454 709.879 223.742 711.37 222.444C712.861 221.147 714.572 220.484 716.505 220.456C718.465 220.456 720.205 221.036 721.723 222.196C723.242 223.355 724.001 224.86 724.001 226.71C724.001 227.538 723.849 228.311 723.545 229.029C723.242 229.747 722.883 230.327 722.469 230.768C722.054 231.21 721.626 231.597 721.185 231.928C720.743 232.259 720.384 232.508 720.108 232.673C719.832 232.839 719.68 232.949 719.652 233.005L720.232 233.377C720.619 233.653 721.005 233.93 721.392 234.206C721.778 234.482 721.999 234.634 722.054 234.661C724.125 236.29 725.16 238.347 725.16 240.832C725.16 243.013 724.36 244.904 722.758 246.506C721.157 248.107 719.086 248.921 716.546 248.949C714.062 248.949 712.018 248.245 710.417 246.837C708.816 245.429 708.015 243.689 708.015 241.619C708.015 238.637 709.796 236.152 713.358 234.164L712.612 233.626C712.032 233.267 711.66 232.991 711.494 232.798C709.92 231.445 709.133 229.705 709.133 227.579V230.768ZM718.079 232.052L718.327 231.886C718.493 231.776 718.617 231.693 718.7 231.638C718.783 231.583 718.921 231.486 719.114 231.348C719.307 231.21 719.473 231.072 719.611 230.934C719.749 230.796 719.901 230.63 720.067 230.437C720.232 230.244 720.384 230.064 720.522 229.899C720.66 229.733 720.798 229.512 720.936 229.236C721.074 228.96 721.199 228.725 721.309 228.532C721.419 228.339 721.488 228.063 721.516 227.704C721.544 227.345 721.571 227.041 721.599 226.793C721.599 225.605 721.199 224.598 720.398 223.769C719.597 222.941 718.672 222.417 717.623 222.196C717.43 222.168 716.974 222.154 716.256 222.154C715.125 222.154 714.062 222.513 713.068 223.231C712.074 223.949 711.563 224.846 711.535 225.923C711.535 226.558 711.715 227.138 712.074 227.662C712.433 228.187 712.792 228.587 713.15 228.863C713.509 229.139 714.2 229.581 715.221 230.189C715.414 230.327 715.566 230.423 715.677 230.478L718.079 232.052ZM716.588 247.168C718.189 247.168 719.57 246.699 720.729 245.76C721.889 244.821 722.469 243.689 722.469 242.364C722.469 241.895 722.4 241.453 722.261 241.039C722.123 240.625 721.958 240.28 721.765 240.004C721.571 239.728 721.268 239.424 720.853 239.092C720.439 238.761 720.122 238.513 719.901 238.347C719.68 238.181 719.28 237.919 718.7 237.56C718.12 237.201 717.747 236.967 717.582 236.856C717.195 236.608 716.781 236.345 716.339 236.069C715.898 235.793 715.539 235.559 715.263 235.365L714.931 235.158C714.766 235.158 714.365 235.393 713.73 235.862C713.095 236.332 712.433 237.091 711.742 238.14C711.052 239.189 710.693 240.321 710.666 241.536C710.666 243.165 711.259 244.504 712.446 245.553C713.634 246.602 715.014 247.141 716.588 247.168Z" fill="white"/>
<path d="M728.682 235.075C728.682 230.575 729.8 227.013 732.036 224.391C734.272 221.768 736.757 220.456 739.491 220.456C741.396 220.456 742.762 220.953 743.591 221.947C744.419 222.941 744.833 224.045 744.833 225.26C744.833 225.951 744.64 226.503 744.253 226.917C743.867 227.331 743.328 227.538 742.638 227.538C742.003 227.538 741.478 227.345 741.064 226.958C740.65 226.572 740.443 226.033 740.443 225.343C740.443 224.128 741.092 223.397 742.39 223.148C741.782 222.541 740.926 222.196 739.822 222.113C737.862 222.113 736.246 222.941 734.976 224.598C733.679 226.42 733.03 229.208 733.03 232.963L733.071 233.129C733.209 232.963 733.32 232.784 733.403 232.591C734.535 230.934 736.012 230.106 737.834 230.106H738C739.27 230.106 740.388 230.368 741.354 230.893C742.017 231.279 742.679 231.831 743.342 232.549C744.005 233.267 744.543 234.054 744.957 234.91C745.537 236.263 745.827 237.74 745.827 239.341V240.086C745.827 240.721 745.758 241.315 745.62 241.867C745.316 243.496 744.433 245.084 742.969 246.63C741.506 248.176 739.656 248.949 737.42 248.949C736.647 248.949 735.901 248.839 735.184 248.618C734.466 248.397 733.693 247.983 732.864 247.375C732.036 246.768 731.332 245.953 730.752 244.932C730.172 243.91 729.675 242.571 729.261 240.915C728.847 239.258 728.654 237.312 728.682 235.075ZM737.586 231.597C736.757 231.597 736.039 231.831 735.432 232.301C734.825 232.77 734.355 233.391 734.024 234.164C733.693 234.937 733.458 235.724 733.32 236.525C733.182 237.326 733.099 238.181 733.071 239.092C733.071 241.384 733.237 243.027 733.568 244.021C733.9 245.015 734.424 245.815 735.142 246.423C735.805 246.92 736.536 247.168 737.337 247.168C738.745 247.168 739.822 246.644 740.567 245.594C740.926 245.097 741.175 244.476 741.313 243.731C741.451 242.985 741.52 241.536 741.52 239.382C741.52 237.174 741.451 235.697 741.313 234.951C741.175 234.206 740.926 233.584 740.567 233.087C739.822 232.094 738.828 231.597 737.586 231.597Z" fill="white"/>
<path d="M766.782 248.037C766.285 247.954 764.505 247.913 761.44 247.913C758.237 247.913 756.388 247.954 755.891 248.037H755.518V246.132H756.802C757.354 246.132 757.727 246.132 757.92 246.132C758.113 246.132 758.348 246.104 758.624 246.049C758.9 245.994 759.093 245.925 759.204 245.842C759.314 245.759 759.411 245.649 759.494 245.511C759.521 245.456 759.535 244.71 759.535 243.275V241.204H748.809V239.299L755.062 229.732C759.287 223.327 761.426 220.11 761.481 220.083C761.537 220.028 761.827 220 762.351 220H763.097L763.345 220.248V239.299H767.155V241.204H763.345V243.316C763.345 244.448 763.345 245.111 763.345 245.304C763.345 245.497 763.428 245.663 763.594 245.801C763.814 245.994 764.601 246.104 765.954 246.132H767.155V248.037H766.782ZM759.783 239.299V225.467L750.714 239.257L755.228 239.299H759.783Z" fill="white"/>
</svg>
