<svg viewBox="0 0 975 602" fill="none" xmlns="http://www.w3.org/2000/svg">
<g id="0119112">
<g id="Group 8">
<path id="Rectangle 1" d="M63 50.4762C63 24.1769 84.3794 2.85718 110.752 2.85718H934V332.381C934 358.68 912.62 380 886.247 380H63V50.4762Z" fill="#02071A"/>
<path id="Rectangle 1 (Stroke)" fill-rule="evenodd" clip-rule="evenodd" d="M929.224 7.61908H110.752C87.0167 7.61908 67.7752 26.8069 67.7752 50.4762V375.238H886.247C909.983 375.238 929.224 356.05 929.224 332.381V7.61908ZM110.752 2.85718C84.3794 2.85718 63 24.1769 63 50.4762V380H886.247C912.62 380 934 358.68 934 332.381V2.85718H110.752Z" fill="#CD08D1"/>
<path id="Rectangle 14" d="M114.716 2.92611C140.256 -3.65764 934 2.92611 934 2.92611V31.4286C934 31.4286 101.202 20.9524 71.5955 31.4286C80.8076 16.3113 89.1755 9.50987 114.716 2.92611Z" fill="#CD08D1"/>
<path id="Rectangle 15" d="M905.349 2.85718H934V333.333C930.483 355.76 923.194 364.003 905.349 374.762C910.601 357.143 905.349 2.85718 905.349 2.85718Z" fill="#CD08D1"/>
</g>
<g id="claves01">
<path id="Rectangle 4" d="M39 412H255.745L289 452L255.745 492H39V412Z" fill="#CD08D1" fill-opacity="0.1"/>
<path id="Rectangle 4 (Stroke)" fill-rule="evenodd" clip-rule="evenodd" d="M254.338 415H42V489H254.338L285.099 452L254.338 415ZM255.745 412H39V492H255.745L289 452L255.745 412Z" fill="#CD08D1"/>
<path id="Rectangle 5" d="M43 522H259.745L293 562L259.745 602H43V522Z" fill="#CD08D1" fill-opacity="0.1"/>
<path id="Rectangle 5 (Stroke)" fill-rule="evenodd" clip-rule="evenodd" d="M258.338 525H46V599H258.338L289.099 562L258.338 525ZM259.745 522H43V602H259.745L293 562L259.745 522Z" fill="#CD08D1"/>
<path id="Rectangle 6" d="M379 409H595.745L629 449L595.745 489H379V409Z" fill="#CD08D1" fill-opacity="0.1"/>
<path id="Rectangle 6 (Stroke)" fill-rule="evenodd" clip-rule="evenodd" d="M594.338 412H382V486H594.338L625.099 449L594.338 412ZM595.745 409H379V489H595.745L629 449L595.745 409Z" fill="#CD08D1"/>
<path id="Rectangle 7" d="M382 519H598.745L632 559L598.745 599H382V519Z" fill="#CD08D1" fill-opacity="0.1"/>
<path id="Rectangle 7 (Stroke)" fill-rule="evenodd" clip-rule="evenodd" d="M597.338 522H385V596H597.338L628.099 559L597.338 522ZM598.745 519H382V599H598.745L632 559L598.745 519Z" fill="#CD08D1"/>
<path id="Rectangle 8" d="M725 468H941.745L975 508L941.745 548H725V468Z" fill="#CD08D1" fill-opacity="0.1"/>
<path id="Rectangle 8 (Stroke)" fill-rule="evenodd" clip-rule="evenodd" d="M940.338 471H728V545H940.338L971.099 508L940.338 471ZM941.745 468H725V548H941.745L975 508L941.745 468Z" fill="#CD08D1"/>
<path id="Ellipse 1" d="M80 452C80 474.091 62.0914 492 40 492C17.9086 492 0 474.091 0 452C0 429.909 17.9086 412 40 412C62.0914 412 80 429.909 80 452Z" fill="#CD08D1"/>
<path id="Ellipse 2" d="M84 562C84 584.091 66.0914 602 44 602C21.9086 602 4 584.091 4 562C4 539.909 21.9086 522 44 522C66.0914 522 84 539.909 84 562Z" fill="#CD08D1"/>
<path id="Ellipse 3" d="M420 449C420 471.091 402.091 489 380 489C357.909 489 340 471.091 340 449C340 426.909 357.909 409 380 409C402.091 409 420 426.909 420 449Z" fill="#CD08D1"/>
<path id="Ellipse 4" d="M423 559C423 581.091 405.091 599 383 599C360.909 599 343 581.091 343 559C343 536.909 360.909 519 383 519C405.091 519 423 536.909 423 559Z" fill="#CD08D1"/>
<path id="Ellipse 5" d="M766 508C766 530.091 748.091 548 726 548C703.909 548 686 530.091 686 508C686 485.909 703.909 468 726 468C748.091 468 766 485.909 766 508Z" fill="#CD08D1"/>
<path id="A" d="M48.0938 462.406H30.4688L26.7812 473H18.5625L35.75 427.5H42.8438L60.0625 473H51.8125L48.0938 462.406ZM32.6875 456.031H45.875L39.2812 437.156L32.6875 456.031Z" fill="white"/>
<path id="B" d="M27.625 578V532.5H43.2188C48.3646 532.5 52.2812 533.531 54.9688 535.594C57.6562 537.656 59 540.729 59 544.812C59 546.896 58.4375 548.771 57.3125 550.438C56.1875 552.104 54.5417 553.396 52.375 554.312C54.8333 554.979 56.7292 556.24 58.0625 558.094C59.4167 559.927 60.0938 562.135 60.0938 564.719C60.0938 568.99 58.7188 572.271 55.9688 574.562C53.2396 576.854 49.3229 578 44.2188 578H27.625ZM35.5312 557.469V571.688H44.3125C46.7917 571.688 48.7292 571.073 50.125 569.844C51.5208 568.615 52.2188 566.906 52.2188 564.719C52.2188 559.99 49.8021 557.573 44.9688 557.469H35.5312ZM35.5312 551.656H43.2812C45.7396 551.656 47.6562 551.104 49.0312 550C50.4271 548.875 51.125 547.292 51.125 545.25C51.125 543 50.4792 541.375 49.1875 540.375C47.9167 539.375 45.9271 538.875 43.2188 538.875H35.5312V551.656Z" fill="white"/>
<path id="C" d="M397.344 456.188C396.885 461.042 395.094 464.833 391.969 467.562C388.844 470.271 384.688 471.625 379.5 471.625C375.875 471.625 372.677 470.771 369.906 469.062C367.156 467.333 365.031 464.885 363.531 461.719C362.031 458.552 361.25 454.875 361.188 450.688V446.438C361.188 442.146 361.948 438.365 363.469 435.094C364.99 431.823 367.167 429.302 370 427.531C372.854 425.76 376.146 424.875 379.875 424.875C384.896 424.875 388.938 426.24 392 428.969C395.062 431.698 396.844 435.552 397.344 440.531H389.469C389.094 437.26 388.135 434.906 386.594 433.469C385.073 432.01 382.833 431.281 379.875 431.281C376.438 431.281 373.792 432.542 371.938 435.062C370.104 437.562 369.167 441.24 369.125 446.094V450.125C369.125 455.042 370 458.792 371.75 461.375C373.521 463.958 376.104 465.25 379.5 465.25C382.604 465.25 384.938 464.552 386.5 463.156C388.062 461.76 389.052 459.438 389.469 456.188H397.344Z" fill="white"/>
<path id="D" d="M365.625 581V535.5H379.062C383.083 535.5 386.646 536.396 389.75 538.188C392.875 539.979 395.292 542.521 397 545.812C398.708 549.104 399.562 552.875 399.562 557.125V559.406C399.562 563.719 398.698 567.51 396.969 570.781C395.26 574.052 392.812 576.573 389.625 578.344C386.458 580.115 382.823 581 378.719 581H365.625ZM373.531 541.875V574.688H378.688C382.833 574.688 386.01 573.396 388.219 570.812C390.448 568.208 391.583 564.479 391.625 559.625V557.094C391.625 552.156 390.552 548.385 388.406 545.781C386.26 543.177 383.146 541.875 379.062 541.875H373.531Z" fill="white"/>
<path id="E" d="M735.219 509.688H716.531V523.688H738.375V530H708.625V484.5H738.156V490.875H716.531V503.438H735.219V509.688Z" fill="white"/>
<g id="450">
<path d="M139.093 455.356H142.805V459.355H139.093V466H134.109V459.355H121.21L121.066 456.32L133.945 436.141H139.093V455.356ZM126.296 455.356H134.109V442.888L133.74 443.544L126.296 455.356Z" fill="#CD08D1"/>
<path d="M147.439 451.193L149.06 436.141H165.097V440.447H153.202L152.382 447.584C153.763 446.791 155.321 446.395 157.058 446.395C159.901 446.395 162.109 447.304 163.682 449.122C165.268 450.94 166.061 453.388 166.061 456.464C166.061 459.499 165.186 461.919 163.436 463.724C161.686 465.515 159.286 466.41 156.237 466.41C153.503 466.41 151.233 465.638 149.429 464.093C147.638 462.534 146.667 460.483 146.517 457.94H151.336C151.527 459.39 152.047 460.504 152.895 461.283C153.742 462.049 154.85 462.432 156.217 462.432C157.748 462.432 158.938 461.885 159.785 460.791C160.646 459.697 161.077 458.207 161.077 456.32C161.077 454.502 160.605 453.066 159.662 452.014C158.719 450.947 157.42 450.414 155.766 450.414C154.863 450.414 154.098 450.537 153.469 450.783C152.84 451.016 152.156 451.48 151.418 452.178L147.439 451.193Z" fill="#CD08D1"/>
<path d="M189.439 453.429C189.439 457.722 188.633 460.962 187.02 463.149C185.42 465.323 182.979 466.41 179.698 466.41C176.472 466.41 174.038 465.351 172.397 463.231C170.771 461.099 169.937 457.947 169.896 453.777V448.609C169.896 444.316 170.695 441.097 172.295 438.95C173.908 436.804 176.362 435.73 179.657 435.73C182.925 435.73 185.358 436.776 186.958 438.868C188.571 440.96 189.398 444.091 189.439 448.261V453.429ZM184.456 447.851C184.456 445.048 184.073 442.997 183.308 441.698C182.542 440.386 181.325 439.729 179.657 439.729C178.03 439.729 176.834 440.352 176.068 441.596C175.303 442.826 174.899 444.754 174.858 447.379V454.146C174.858 456.936 175.248 459.014 176.027 460.381C176.807 461.748 178.03 462.432 179.698 462.432C181.298 462.432 182.48 461.803 183.246 460.545C184.012 459.273 184.415 457.291 184.456 454.598V447.851Z" fill="#CD08D1"/>
</g>
<g id="784">
<path d="M142.107 553.909L130.172 581H124.942L136.857 555.14H121.415V551.141H142.107V553.909Z" fill="#CD08D1"/>
<path d="M164.912 559.016C164.912 560.479 164.536 561.784 163.784 562.933C163.032 564.067 162.007 564.963 160.708 565.619C162.267 566.344 163.463 567.335 164.297 568.593C165.145 569.851 165.568 571.272 165.568 572.858C165.568 575.483 164.68 577.568 162.902 579.113C161.125 580.645 158.76 581.41 155.807 581.41C152.84 581.41 150.461 580.638 148.67 579.093C146.893 577.548 146.004 575.47 146.004 572.858C146.004 571.259 146.428 569.823 147.275 568.552C148.123 567.28 149.312 566.303 150.844 565.619C149.559 564.963 148.54 564.067 147.788 562.933C147.05 561.784 146.681 560.479 146.681 559.016C146.681 556.473 147.501 554.456 149.142 552.966C150.782 551.476 152.997 550.73 155.786 550.73C158.589 550.73 160.811 551.476 162.451 552.966C164.092 554.456 164.912 556.473 164.912 559.016ZM160.585 572.612C160.585 571.136 160.141 569.946 159.252 569.044C158.377 568.128 157.215 567.67 155.766 567.67C154.316 567.67 153.154 568.121 152.279 569.023C151.418 569.926 150.987 571.122 150.987 572.612C150.987 574.075 151.411 575.244 152.259 576.119C153.12 576.994 154.303 577.432 155.807 577.432C157.311 577.432 158.479 577.008 159.313 576.16C160.161 575.312 160.585 574.13 160.585 572.612ZM159.949 559.2C159.949 557.901 159.573 556.835 158.821 556.001C158.069 555.153 157.058 554.729 155.786 554.729C154.515 554.729 153.51 555.133 152.771 555.939C152.033 556.732 151.664 557.819 151.664 559.2C151.664 560.567 152.033 561.654 152.771 562.461C153.523 563.268 154.535 563.671 155.807 563.671C157.078 563.671 158.083 563.268 158.821 562.461C159.573 561.654 159.949 560.567 159.949 559.2Z" fill="#CD08D1"/>
<path d="M186.835 570.356H190.547V574.355H186.835V581H181.852V574.355H168.952L168.809 571.32L181.688 551.141H186.835V570.356ZM174.038 570.356H181.852V557.888L181.482 558.544L174.038 570.356Z" fill="#CD08D1"/>
</g>
<g id="684">
<path d="M493.739 432.997V437.119H493.124C490.335 437.16 488.106 437.926 486.438 439.416C484.771 440.906 483.779 443.019 483.465 445.753C485.064 444.071 487.108 443.23 489.597 443.23C492.235 443.23 494.313 444.16 495.831 446.02C497.362 447.879 498.128 450.278 498.128 453.218C498.128 456.253 497.232 458.714 495.441 460.601C493.664 462.474 491.326 463.41 488.428 463.41C485.447 463.41 483.027 462.31 481.168 460.108C479.322 457.907 478.399 455.022 478.399 451.454V449.752C478.399 444.516 479.671 440.414 482.214 437.447C484.771 434.48 488.441 432.997 493.227 432.997H493.739ZM488.387 447.25C487.293 447.25 486.288 447.558 485.372 448.173C484.47 448.788 483.807 449.608 483.383 450.634V452.151C483.383 454.366 483.848 456.13 484.777 457.442C485.707 458.741 486.91 459.391 488.387 459.391C489.863 459.391 491.032 458.837 491.894 457.729C492.755 456.622 493.186 455.166 493.186 453.361C493.186 451.557 492.748 450.087 491.873 448.952C490.998 447.817 489.836 447.25 488.387 447.25Z" fill="#CD08D1"/>
<path d="M520.912 441.016C520.912 442.479 520.536 443.784 519.784 444.933C519.032 446.067 518.007 446.963 516.708 447.619C518.267 448.344 519.463 449.335 520.297 450.593C521.145 451.851 521.568 453.272 521.568 454.858C521.568 457.483 520.68 459.568 518.902 461.113C517.125 462.645 514.76 463.41 511.807 463.41C508.84 463.41 506.461 462.638 504.67 461.093C502.893 459.548 502.004 457.47 502.004 454.858C502.004 453.259 502.428 451.823 503.275 450.552C504.123 449.28 505.312 448.303 506.844 447.619C505.559 446.963 504.54 446.067 503.788 444.933C503.05 443.784 502.681 442.479 502.681 441.016C502.681 438.473 503.501 436.456 505.142 434.966C506.782 433.476 508.997 432.73 511.786 432.73C514.589 432.73 516.811 433.476 518.451 434.966C520.092 436.456 520.912 438.473 520.912 441.016ZM516.585 454.612C516.585 453.136 516.141 451.946 515.252 451.044C514.377 450.128 513.215 449.67 511.766 449.67C510.316 449.67 509.154 450.121 508.279 451.023C507.418 451.926 506.987 453.122 506.987 454.612C506.987 456.075 507.411 457.244 508.259 458.119C509.12 458.994 510.303 459.432 511.807 459.432C513.311 459.432 514.479 459.008 515.313 458.16C516.161 457.312 516.585 456.13 516.585 454.612ZM515.949 441.2C515.949 439.901 515.573 438.835 514.821 438.001C514.069 437.153 513.058 436.729 511.786 436.729C510.515 436.729 509.51 437.133 508.771 437.939C508.033 438.732 507.664 439.819 507.664 441.2C507.664 442.567 508.033 443.654 508.771 444.461C509.523 445.268 510.535 445.671 511.807 445.671C513.078 445.671 514.083 445.268 514.821 444.461C515.573 443.654 515.949 442.567 515.949 441.2Z" fill="#CD08D1"/>
<path d="M542.835 452.356H546.547V456.355H542.835V463H537.852V456.355H524.952L524.809 453.32L537.688 433.141H542.835V452.356ZM530.038 452.356H537.852V439.888L537.482 440.544L530.038 452.356Z" fill="#CD08D1"/>
</g>
<g id="486">
<path d="M495.093 561.356H498.805V565.355H495.093V572H490.109V565.355H477.21L477.066 562.32L489.945 542.141H495.093V561.356ZM482.296 561.356H490.109V548.888L489.74 549.544L482.296 561.356Z" fill="#CD08D1"/>
<path d="M520.912 550.016C520.912 551.479 520.536 552.784 519.784 553.933C519.032 555.067 518.007 555.963 516.708 556.619C518.267 557.344 519.463 558.335 520.297 559.593C521.145 560.851 521.568 562.272 521.568 563.858C521.568 566.483 520.68 568.568 518.902 570.113C517.125 571.645 514.76 572.41 511.807 572.41C508.84 572.41 506.461 571.638 504.67 570.093C502.893 568.548 502.004 566.47 502.004 563.858C502.004 562.259 502.428 560.823 503.275 559.552C504.123 558.28 505.312 557.303 506.844 556.619C505.559 555.963 504.54 555.067 503.788 553.933C503.05 552.784 502.681 551.479 502.681 550.016C502.681 547.473 503.501 545.456 505.142 543.966C506.782 542.476 508.997 541.73 511.786 541.73C514.589 541.73 516.811 542.476 518.451 543.966C520.092 545.456 520.912 547.473 520.912 550.016ZM516.585 563.612C516.585 562.136 516.141 560.946 515.252 560.044C514.377 559.128 513.215 558.67 511.766 558.67C510.316 558.67 509.154 559.121 508.279 560.023C507.418 560.926 506.987 562.122 506.987 563.612C506.987 565.075 507.411 566.244 508.259 567.119C509.12 567.994 510.303 568.432 511.807 568.432C513.311 568.432 514.479 568.008 515.313 567.16C516.161 566.312 516.585 565.13 516.585 563.612ZM515.949 550.2C515.949 548.901 515.573 547.835 514.821 547.001C514.069 546.153 513.058 545.729 511.786 545.729C510.515 545.729 509.51 546.133 508.771 546.939C508.033 547.732 507.664 548.819 507.664 550.2C507.664 551.567 508.033 552.654 508.771 553.461C509.523 554.268 510.535 554.671 511.807 554.671C513.078 554.671 514.083 554.268 514.821 553.461C515.573 552.654 515.949 551.567 515.949 550.2Z" fill="#CD08D1"/>
<path d="M541.481 541.997V546.119H540.866C538.077 546.16 535.849 546.926 534.181 548.416C532.513 549.906 531.521 552.019 531.207 554.753C532.807 553.071 534.851 552.23 537.339 552.23C539.978 552.23 542.056 553.16 543.573 555.02C545.104 556.879 545.87 559.278 545.87 562.218C545.87 565.253 544.975 567.714 543.184 569.601C541.406 571.474 539.068 572.41 536.17 572.41C533.189 572.41 530.77 571.31 528.91 569.108C527.064 566.907 526.142 564.022 526.142 560.454V558.752C526.142 553.516 527.413 549.414 529.956 546.447C532.513 543.48 536.184 541.997 540.969 541.997H541.481ZM536.129 556.25C535.035 556.25 534.03 556.558 533.114 557.173C532.212 557.788 531.549 558.608 531.125 559.634V561.151C531.125 563.366 531.59 565.13 532.52 566.442C533.449 567.741 534.652 568.391 536.129 568.391C537.605 568.391 538.774 567.837 539.636 566.729C540.497 565.622 540.928 564.166 540.928 562.361C540.928 560.557 540.49 559.087 539.615 557.952C538.74 556.817 537.578 556.25 536.129 556.25Z" fill="#CD08D1"/>
</g>
<g id="864">
<path d="M843.041 504.016C843.041 505.479 842.665 506.784 841.913 507.933C841.161 509.067 840.136 509.963 838.837 510.619C840.396 511.344 841.592 512.335 842.426 513.593C843.273 514.851 843.697 516.272 843.697 517.858C843.697 520.483 842.809 522.568 841.031 524.113C839.254 525.645 836.889 526.41 833.936 526.41C830.969 526.41 828.59 525.638 826.799 524.093C825.021 522.548 824.133 520.47 824.133 517.858C824.133 516.259 824.557 514.823 825.404 513.552C826.252 512.28 827.441 511.303 828.973 510.619C827.688 509.963 826.669 509.067 825.917 507.933C825.179 506.784 824.81 505.479 824.81 504.016C824.81 501.473 825.63 499.456 827.271 497.966C828.911 496.476 831.126 495.73 833.915 495.73C836.718 495.73 838.939 496.476 840.58 497.966C842.221 499.456 843.041 501.473 843.041 504.016ZM838.714 517.612C838.714 516.136 838.27 514.946 837.381 514.044C836.506 513.128 835.344 512.67 833.895 512.67C832.445 512.67 831.283 513.121 830.408 514.023C829.547 514.926 829.116 516.122 829.116 517.612C829.116 519.075 829.54 520.244 830.388 521.119C831.249 521.994 832.432 522.432 833.936 522.432C835.439 522.432 836.608 522.008 837.442 521.16C838.29 520.312 838.714 519.13 838.714 517.612ZM838.078 504.2C838.078 502.901 837.702 501.835 836.95 501.001C836.198 500.153 835.187 499.729 833.915 499.729C832.644 499.729 831.639 500.133 830.9 500.939C830.162 501.732 829.793 502.819 829.793 504.2C829.793 505.567 830.162 506.654 830.9 507.461C831.652 508.268 832.664 508.671 833.936 508.671C835.207 508.671 836.212 508.268 836.95 507.461C837.702 506.654 838.078 505.567 838.078 504.2Z" fill="#CD08D1"/>
<path d="M863.61 495.997V500.119H862.995C860.206 500.16 857.978 500.926 856.31 502.416C854.642 503.906 853.65 506.019 853.336 508.753C854.936 507.071 856.979 506.23 859.468 506.23C862.106 506.23 864.185 507.16 865.702 509.02C867.233 510.879 867.999 513.278 867.999 516.218C867.999 519.253 867.104 521.714 865.312 523.601C863.535 525.474 861.197 526.41 858.299 526.41C855.318 526.41 852.898 525.31 851.039 523.108C849.193 520.907 848.271 518.022 848.271 514.454V512.752C848.271 507.516 849.542 503.414 852.085 500.447C854.642 497.48 858.312 495.997 863.098 495.997H863.61ZM858.258 510.25C857.164 510.25 856.159 510.558 855.243 511.173C854.341 511.788 853.678 512.608 853.254 513.634V515.151C853.254 517.366 853.719 519.13 854.648 520.442C855.578 521.741 856.781 522.391 858.258 522.391C859.734 522.391 860.903 521.837 861.765 520.729C862.626 519.622 863.057 518.166 863.057 516.361C863.057 514.557 862.619 513.087 861.744 511.952C860.869 510.817 859.707 510.25 858.258 510.25Z" fill="#CD08D1"/>
<path d="M888.835 515.356H892.547V519.355H888.835V526H883.852V519.355H870.952L870.809 516.32L883.688 496.141H888.835V515.356ZM876.038 515.356H883.852V502.888L883.482 503.544L876.038 515.356Z" fill="#CD08D1"/>
</g>
</g>
<g id="Resuelve:">
<path d="M109.357 75.6465H103.346V86H99.9531V60.4062H108.426C111.309 60.4062 113.523 61.0625 115.07 62.375C116.629 63.6875 117.408 65.5977 117.408 68.1055C117.408 69.6992 116.975 71.0879 116.107 72.2715C115.252 73.4551 114.057 74.3398 112.521 74.9258L118.533 85.7891V86H114.912L109.357 75.6465ZM103.346 72.8867H108.531C110.207 72.8867 111.537 72.4531 112.521 71.5859C113.518 70.7188 114.016 69.5586 114.016 68.1055C114.016 66.5234 113.541 65.3105 112.592 64.4668C111.654 63.623 110.295 63.1953 108.514 63.1836H103.346V72.8867Z" fill="white"/>
<path d="M129.537 86.3516C126.959 86.3516 124.861 85.5078 123.244 83.8203C121.627 82.1211 120.818 79.8535 120.818 77.0176V76.4199C120.818 74.5332 121.176 72.8516 121.891 71.375C122.617 69.8867 123.625 68.7266 124.914 67.8945C126.215 67.0508 127.621 66.6289 129.133 66.6289C131.605 66.6289 133.527 67.4434 134.898 69.0723C136.27 70.7012 136.955 73.0332 136.955 76.0684V77.4219H124.07C124.117 79.2969 124.662 80.8145 125.705 81.9746C126.76 83.123 128.096 83.6973 129.713 83.6973C130.861 83.6973 131.834 83.4629 132.631 82.9941C133.428 82.5254 134.125 81.9043 134.723 81.1309L136.709 82.6777C135.115 85.127 132.725 86.3516 129.537 86.3516ZM129.133 69.3008C127.82 69.3008 126.719 69.7812 125.828 70.7422C124.938 71.6914 124.387 73.0273 124.176 74.75H133.703V74.5039C133.609 72.8516 133.164 71.5742 132.367 70.6719C131.57 69.7578 130.492 69.3008 129.133 69.3008Z" fill="white"/>
<path d="M151.809 80.9551C151.809 80.0762 151.475 79.3965 150.807 78.916C150.15 78.4238 148.996 78.002 147.344 77.6504C145.703 77.2988 144.396 76.877 143.424 76.3848C142.463 75.8926 141.748 75.3066 141.279 74.627C140.822 73.9473 140.594 73.1387 140.594 72.2012C140.594 70.6426 141.25 69.3242 142.562 68.2461C143.887 67.168 145.574 66.6289 147.625 66.6289C149.781 66.6289 151.527 67.1855 152.863 68.2988C154.211 69.4121 154.885 70.8359 154.885 72.5703H151.615C151.615 71.6797 151.234 70.9121 150.473 70.2676C149.723 69.623 148.773 69.3008 147.625 69.3008C146.441 69.3008 145.516 69.5586 144.848 70.0742C144.18 70.5898 143.846 71.2637 143.846 72.0957C143.846 72.8809 144.156 73.4727 144.777 73.8711C145.398 74.2695 146.518 74.6504 148.135 75.0137C149.764 75.377 151.082 75.8105 152.09 76.3145C153.098 76.8184 153.842 77.4277 154.322 78.1426C154.814 78.8457 155.061 79.707 155.061 80.7266C155.061 82.4258 154.381 83.791 153.021 84.8223C151.662 85.8418 149.898 86.3516 147.73 86.3516C146.207 86.3516 144.859 86.082 143.688 85.543C142.516 85.0039 141.596 84.2539 140.928 83.293C140.271 82.3203 139.943 81.2715 139.943 80.1465H143.195C143.254 81.2363 143.688 82.1035 144.496 82.748C145.316 83.3809 146.395 83.6973 147.73 83.6973C148.961 83.6973 149.945 83.4512 150.684 82.959C151.434 82.4551 151.809 81.7871 151.809 80.9551Z" fill="white"/>
<path d="M171.039 84.1191C169.773 85.6074 167.916 86.3516 165.467 86.3516C163.439 86.3516 161.893 85.7656 160.826 84.5938C159.771 83.4102 159.238 81.6641 159.227 79.3555V66.9805H162.479V79.2676C162.479 82.1504 163.65 83.5918 165.994 83.5918C168.479 83.5918 170.131 82.666 170.951 80.8145V66.9805H174.203V86H171.109L171.039 84.1191Z" fill="white"/>
<path d="M187.053 86.3516C184.475 86.3516 182.377 85.5078 180.76 83.8203C179.143 82.1211 178.334 79.8535 178.334 77.0176V76.4199C178.334 74.5332 178.691 72.8516 179.406 71.375C180.133 69.8867 181.141 68.7266 182.43 67.8945C183.73 67.0508 185.137 66.6289 186.648 66.6289C189.121 66.6289 191.043 67.4434 192.414 69.0723C193.785 70.7012 194.471 73.0332 194.471 76.0684V77.4219H181.586C181.633 79.2969 182.178 80.8145 183.221 81.9746C184.275 83.123 185.611 83.6973 187.229 83.6973C188.377 83.6973 189.35 83.4629 190.146 82.9941C190.943 82.5254 191.641 81.9043 192.238 81.1309L194.225 82.6777C192.631 85.127 190.24 86.3516 187.053 86.3516ZM186.648 69.3008C185.336 69.3008 184.234 69.7812 183.344 70.7422C182.453 71.6914 181.902 73.0273 181.691 74.75H191.219V74.5039C191.125 72.8516 190.68 71.5742 189.883 70.6719C189.086 69.7578 188.008 69.3008 186.648 69.3008Z" fill="white"/>
<path d="M201.783 86H198.531V59H201.783V86Z" fill="white"/>
<path d="M213.279 81.5879L217.99 66.9805H221.312L214.492 86H212.014L205.123 66.9805H208.445L213.279 81.5879Z" fill="white"/>
<path d="M232.088 86.3516C229.51 86.3516 227.412 85.5078 225.795 83.8203C224.178 82.1211 223.369 79.8535 223.369 77.0176V76.4199C223.369 74.5332 223.727 72.8516 224.441 71.375C225.168 69.8867 226.176 68.7266 227.465 67.8945C228.766 67.0508 230.172 66.6289 231.684 66.6289C234.156 66.6289 236.078 67.4434 237.449 69.0723C238.82 70.7012 239.506 73.0332 239.506 76.0684V77.4219H226.621C226.668 79.2969 227.213 80.8145 228.256 81.9746C229.311 83.123 230.646 83.6973 232.264 83.6973C233.412 83.6973 234.385 83.4629 235.182 82.9941C235.979 82.5254 236.676 81.9043 237.273 81.1309L239.26 82.6777C237.666 85.127 235.275 86.3516 232.088 86.3516ZM231.684 69.3008C230.371 69.3008 229.27 69.7812 228.379 70.7422C227.488 71.6914 226.938 73.0273 226.727 74.75H236.254V74.5039C236.16 72.8516 235.715 71.5742 234.918 70.6719C234.121 69.7578 233.043 69.3008 231.684 69.3008Z" fill="white"/>
<path d="M243.18 84.2949C243.18 83.7324 243.344 83.2637 243.672 82.8887C244.012 82.5137 244.516 82.3262 245.184 82.3262C245.852 82.3262 246.355 82.5137 246.695 82.8887C247.047 83.2637 247.223 83.7324 247.223 84.2949C247.223 84.834 247.047 85.2852 246.695 85.6484C246.355 86.0117 245.852 86.1934 245.184 86.1934C244.516 86.1934 244.012 86.0117 243.672 85.6484C243.344 85.2852 243.18 84.834 243.18 84.2949ZM243.197 68.7734C243.197 68.2109 243.361 67.7422 243.689 67.3672C244.029 66.9922 244.533 66.8047 245.201 66.8047C245.869 66.8047 246.373 66.9922 246.713 67.3672C247.064 67.7422 247.24 68.2109 247.24 68.7734C247.24 69.3125 247.064 69.7637 246.713 70.127C246.373 70.4902 245.869 70.6719 245.201 70.6719C244.533 70.6719 244.029 70.4902 243.689 70.127C243.361 69.7637 243.197 69.3125 243.197 68.7734Z" fill="white"/>
</g>
<g id="2 (72) 3 4 (1600) 5 6 ( x ) 2">
<path d="M371.556 149H350.128V146.013L361.448 133.435C363.125 131.533 364.278 129.991 364.907 128.808C365.551 127.61 365.873 126.374 365.873 125.102C365.873 123.395 365.356 121.994 364.323 120.901C363.29 119.808 361.912 119.262 360.19 119.262C358.124 119.262 356.514 119.853 355.361 121.036C354.223 122.204 353.654 123.836 353.654 125.933H349.499C349.499 122.923 350.465 120.49 352.396 118.633C354.343 116.776 356.941 115.848 360.19 115.848C363.23 115.848 365.633 116.649 367.4 118.251C369.167 119.838 370.051 121.957 370.051 124.607C370.051 127.827 367.999 131.66 363.896 136.107L355.137 145.608H371.556V149Z" fill="white"/>
<path d="M433.278 135.726C433.278 132.341 433.728 129.092 434.626 125.978C435.539 122.863 436.895 120.033 438.691 117.487C440.488 114.942 442.353 113.145 444.284 112.097L445.138 114.837C442.951 116.514 441.155 119.075 439.747 122.519C438.354 125.963 437.591 129.818 437.456 134.086L437.434 135.995C437.434 141.775 438.489 146.791 440.601 151.044C441.873 153.59 443.386 155.581 445.138 157.019L444.284 159.557C442.293 158.449 440.391 156.592 438.579 153.986C435.045 148.895 433.278 142.808 433.278 135.726Z" fill="white"/>
<path d="M469.845 118.633L456.301 149H451.943L465.442 119.711H447.743V116.297H469.845V118.633Z" fill="white"/>
<path d="M495.989 149H474.562V146.013L485.882 133.435C487.559 131.533 488.712 129.991 489.341 128.808C489.985 127.61 490.307 126.374 490.307 125.102C490.307 123.395 489.79 121.994 488.757 120.901C487.724 119.808 486.346 119.262 484.624 119.262C482.558 119.262 480.948 119.853 479.795 121.036C478.657 122.204 478.088 123.836 478.088 125.933H473.933C473.933 122.923 474.898 120.49 476.83 118.633C478.777 116.776 481.375 115.848 484.624 115.848C487.664 115.848 490.067 116.649 491.834 118.251C493.601 119.838 494.484 121.957 494.484 124.607C494.484 127.827 492.433 131.66 488.33 136.107L479.57 145.608H495.989V149Z" fill="white"/>
<path d="M510.409 135.95C510.409 139.289 509.967 142.494 509.084 145.563C508.215 148.618 506.875 151.441 505.063 154.031C503.267 156.622 501.38 158.464 499.403 159.557L498.527 157.019C500.833 155.252 502.683 152.511 504.075 148.798C505.483 145.069 506.201 140.937 506.231 136.399V135.681C506.231 132.536 505.902 129.616 505.243 126.921C504.584 124.211 503.663 121.785 502.48 119.644C501.312 117.502 499.995 115.833 498.527 114.635L499.403 112.097C501.38 113.19 503.259 115.017 505.041 117.577C506.838 120.138 508.178 122.96 509.062 126.045C509.96 129.13 510.409 132.431 510.409 135.95Z" fill="white"/>
<path d="M579.477 130.627H582.599C584.56 130.597 586.103 130.08 587.226 129.077C588.349 128.074 588.91 126.719 588.91 125.012C588.91 121.178 587.001 119.262 583.183 119.262C581.386 119.262 579.948 119.778 578.87 120.812C577.807 121.83 577.275 123.185 577.275 124.877H573.12C573.12 122.286 574.063 120.138 575.95 118.431C577.852 116.709 580.263 115.848 583.183 115.848C586.267 115.848 588.686 116.664 590.438 118.296C592.189 119.928 593.065 122.197 593.065 125.102C593.065 126.524 592.601 127.902 591.673 129.234C590.759 130.567 589.509 131.563 587.922 132.222C589.719 132.791 591.104 133.734 592.077 135.052C593.065 136.369 593.56 137.979 593.56 139.881C593.56 142.816 592.601 145.144 590.685 146.866C588.768 148.588 586.275 149.449 583.205 149.449C580.135 149.449 577.635 148.618 575.703 146.956C573.786 145.294 572.828 143.1 572.828 140.375H577.006C577.006 142.097 577.567 143.475 578.69 144.508C579.813 145.541 581.318 146.058 583.205 146.058C585.212 146.058 586.746 145.534 587.81 144.485C588.873 143.437 589.404 141.932 589.404 139.971C589.404 138.069 588.82 136.609 587.652 135.591C586.484 134.573 584.8 134.049 582.599 134.019H579.477V130.627Z" fill="white"/>
<path d="M356.26 215.017H360.797V218.408H356.26V226H352.082V218.408H337.19V215.96L351.835 193.297H356.26V215.017ZM341.907 215.017H352.082V198.979L351.588 199.878L341.907 215.017Z" fill="white"/>
<path d="M410.458 212.726C410.458 209.341 410.907 206.092 411.806 202.978C412.719 199.863 414.074 197.033 415.871 194.487C417.668 191.942 419.532 190.145 421.464 189.097L422.317 191.837C420.131 193.514 418.334 196.075 416.927 199.519C415.534 202.963 414.771 206.818 414.636 211.086L414.613 212.995C414.613 218.775 415.669 223.791 417.78 228.044C419.053 230.59 420.565 232.581 422.317 234.019L421.464 236.557C419.472 235.449 417.571 233.592 415.759 230.986C412.225 225.895 410.458 219.808 410.458 212.726Z" fill="white"/>
<path d="M439.567 226H435.39V198.306L427.012 201.383V197.609L438.916 193.14H439.567V226Z" fill="white"/>
<path d="M468.048 193.274V196.801H467.284C464.05 196.861 461.474 197.819 459.558 199.676C457.641 201.533 456.533 204.146 456.233 207.515C457.955 205.538 460.306 204.55 463.286 204.55C466.131 204.55 468.4 205.553 470.092 207.56C471.799 209.566 472.652 212.157 472.652 215.331C472.652 218.7 471.731 221.396 469.89 223.417C468.063 225.438 465.607 226.449 462.522 226.449C459.393 226.449 456.855 225.251 454.908 222.855C452.962 220.445 451.988 217.345 451.988 213.557V211.962C451.988 205.942 453.269 201.345 455.829 198.171C458.405 194.981 462.23 193.349 467.307 193.274H468.048ZM462.59 208.009C461.167 208.009 459.857 208.436 458.659 209.289C457.461 210.143 456.63 211.213 456.166 212.501V214.028C456.166 216.724 456.772 218.895 457.985 220.542C459.198 222.189 460.711 223.013 462.522 223.013C464.394 223.013 465.862 222.324 466.925 220.946C468.003 219.569 468.542 217.764 468.542 215.533C468.542 213.287 467.995 211.475 466.902 210.098C465.824 208.705 464.387 208.009 462.59 208.009Z" fill="white"/>
<path d="M498.078 212.052C498.078 216.918 497.247 220.535 495.585 222.9C493.923 225.266 491.325 226.449 487.791 226.449C484.302 226.449 481.719 225.296 480.042 222.99C478.365 220.669 477.496 217.21 477.437 212.613V207.065C477.437 202.259 478.268 198.688 479.93 196.352C481.592 194.016 484.197 192.848 487.746 192.848C491.265 192.848 493.855 193.978 495.518 196.239C497.18 198.485 498.033 201.959 498.078 206.661V212.052ZM493.923 206.369C493.923 202.85 493.429 200.29 492.44 198.688C491.452 197.07 489.887 196.262 487.746 196.262C485.62 196.262 484.07 197.063 483.097 198.665C482.123 200.267 481.622 202.73 481.592 206.055V212.703C481.592 216.237 482.101 218.85 483.119 220.542C484.152 222.219 485.71 223.058 487.791 223.058C489.842 223.058 491.362 222.264 492.351 220.677C493.354 219.09 493.878 216.589 493.923 213.175V206.369Z" fill="white"/>
<path d="M523.908 212.052C523.908 216.918 523.077 220.535 521.415 222.9C519.753 225.266 517.155 226.449 513.621 226.449C510.132 226.449 507.549 225.296 505.872 222.99C504.195 220.669 503.326 217.21 503.267 212.613V207.065C503.267 202.259 504.098 198.688 505.76 196.352C507.422 194.016 510.027 192.848 513.576 192.848C517.095 192.848 519.686 193.978 521.348 196.239C523.01 198.485 523.863 201.959 523.908 206.661V212.052ZM519.753 206.369C519.753 202.85 519.259 200.29 518.271 198.688C517.282 197.07 515.717 196.262 513.576 196.262C511.45 196.262 509.9 197.063 508.927 198.665C507.953 200.267 507.452 202.73 507.422 206.055V212.703C507.422 216.237 507.931 218.85 508.949 220.542C509.982 222.219 511.54 223.058 513.621 223.058C515.673 223.058 517.192 222.264 518.181 220.677C519.184 219.09 519.708 216.589 519.753 213.175V206.369Z" fill="white"/>
<path d="M539.249 212.95C539.249 216.289 538.807 219.494 537.924 222.563C537.055 225.618 535.715 228.441 533.903 231.031C532.106 233.622 530.22 235.464 528.243 236.557L527.367 234.019C529.673 232.252 531.522 229.511 532.915 225.798C534.323 222.069 535.041 217.937 535.071 213.399V212.681C535.071 209.536 534.742 206.616 534.083 203.921C533.424 201.211 532.503 198.785 531.32 196.644C530.152 194.502 528.835 192.833 527.367 191.635L528.243 189.097C530.22 190.19 532.099 192.017 533.881 194.577C535.678 197.138 537.018 199.96 537.901 203.045C538.8 206.13 539.249 209.431 539.249 212.95Z" fill="white"/>
<path d="M581.363 209.604L583.025 193.297H599.781V197.138H586.552L585.563 206.055C587.166 205.111 588.985 204.64 591.021 204.64C594.001 204.64 596.367 205.628 598.119 207.604C599.871 209.566 600.747 212.224 600.747 215.578C600.747 218.947 599.834 221.605 598.007 223.552C596.195 225.483 593.657 226.449 590.393 226.449C587.503 226.449 585.144 225.648 583.317 224.046C581.491 222.444 580.45 220.228 580.195 217.397H584.126C584.381 219.269 585.047 220.684 586.125 221.643C587.203 222.586 588.626 223.058 590.393 223.058C592.324 223.058 593.837 222.399 594.93 221.081C596.038 219.763 596.592 217.944 596.592 215.623C596.592 213.437 595.993 211.685 594.795 210.367C593.612 209.035 592.032 208.368 590.056 208.368C588.244 208.368 586.821 208.765 585.788 209.559L584.688 210.457L581.363 209.604Z" fill="white"/>
<path d="M355.024 270.274V273.801H354.261C351.026 273.861 348.451 274.819 346.534 276.676C344.618 278.533 343.509 281.146 343.21 284.515C344.932 282.538 347.283 281.55 350.263 281.55C353.108 281.55 355.376 282.553 357.068 284.56C358.775 286.566 359.629 289.157 359.629 292.331C359.629 295.7 358.708 298.396 356.866 300.417C355.039 302.438 352.584 303.449 349.499 303.449C346.369 303.449 343.831 302.251 341.885 299.855C339.938 297.445 338.965 294.345 338.965 290.557V288.962C338.965 282.942 340.245 278.345 342.806 275.171C345.381 271.981 349.207 270.349 354.283 270.274H355.024ZM349.566 285.009C348.144 285.009 346.834 285.436 345.636 286.289C344.438 287.143 343.607 288.213 343.143 289.501V291.028C343.143 293.724 343.749 295.895 344.962 297.542C346.175 299.189 347.687 300.013 349.499 300.013C351.371 300.013 352.838 299.324 353.901 297.946C354.979 296.569 355.519 294.764 355.519 292.533C355.519 290.287 354.972 288.475 353.879 287.098C352.801 285.705 351.363 285.009 349.566 285.009Z" fill="white"/>
<path d="M444.688 289.726C444.688 286.341 445.138 283.092 446.036 279.978C446.95 276.863 448.305 274.033 450.102 271.487C451.898 268.942 453.763 267.145 455.694 266.097L456.548 268.837C454.362 270.514 452.565 273.075 451.157 276.519C449.765 279.963 449.001 283.818 448.866 288.086L448.844 289.995C448.844 295.775 449.899 300.791 452.011 305.044C453.284 307.59 454.796 309.581 456.548 311.019L455.694 313.557C453.703 312.449 451.801 310.592 449.989 307.986C446.455 302.895 444.688 296.808 444.688 289.726Z" fill="white"/>
<path d="M480.132 287.569L485.522 278.697H490.374L482.423 290.714L490.621 303H485.814L480.199 293.903L474.584 303H469.755L477.953 290.714L470.002 278.697H474.809L480.132 287.569Z" fill="white"/>
<path d="M515.8 289.95C515.8 293.289 515.358 296.494 514.475 299.563C513.606 302.618 512.266 305.441 510.454 308.031C508.657 310.622 506.771 312.464 504.794 313.557L503.918 311.019C506.224 309.252 508.073 306.511 509.466 302.798C510.873 299.069 511.592 294.937 511.622 290.399V289.681C511.622 286.536 511.293 283.616 510.634 280.921C509.975 278.211 509.054 275.785 507.871 273.644C506.703 271.502 505.385 269.833 503.918 268.635L504.794 266.097C506.771 267.19 508.65 269.017 510.432 271.577C512.229 274.138 513.569 276.96 514.452 280.045C515.351 283.13 515.8 286.431 515.8 289.95Z" fill="white"/>
<path d="M600.253 303H578.825V300.013L590.146 287.435C591.823 285.533 592.976 283.991 593.604 282.808C594.248 281.61 594.57 280.374 594.57 279.102C594.57 277.395 594.054 275.994 593.021 274.901C591.987 273.808 590.61 273.262 588.888 273.262C586.821 273.262 585.212 273.853 584.059 275.036C582.921 276.204 582.352 277.836 582.352 279.933H578.196C578.196 276.923 579.162 274.49 581.094 272.633C583.04 270.776 585.638 269.848 588.888 269.848C591.927 269.848 594.331 270.649 596.098 272.251C597.865 273.838 598.748 275.957 598.748 278.607C598.748 281.827 596.697 285.66 592.594 290.107L583.834 299.608H600.253V303Z" fill="white"/>
</g>
<g id="flecha">
<path id="Rectangle 2" d="M726.2 469.008L741.482 477.133L699.5 556.089L684.219 547.963L726.2 469.008Z" fill="#1043F5"/>
<path id="Rectangle 1_2" d="M668 481.904L758 432V489.692L713 472.096L668 481.904Z" fill="#1043F5"/>
<path id="Rectangle 3" d="M672.039 551.21L687.666 524.143L704.936 523.565L689.309 550.632L672.039 551.21Z" fill="#1043F5"/>
<path id="Rectangle 4_2" d="M698.089 565.845L713.717 538.778L704.926 523.154L689.299 550.221L698.089 565.845Z" fill="#1043F5"/>
</g>
</g>
</svg>
