<svg viewBox="0 0 966 422" fill="none" xmlns="http://www.w3.org/2000/svg">
<g id="0119211">
<g id="Group 46">
<g id="Group 42">
<g id="Group 39">
<path id="Rectangle 16 (Stroke)" fill-rule="evenodd" clip-rule="evenodd" d="M321 3H147V177H321V3ZM144 0V180H324V0H144Z" fill="#E79720"/>
<path id="Line 5 (Stroke)" fill-rule="evenodd" clip-rule="evenodd" d="M234 0V180H231V0H234Z" fill="#E79720"/>
<path id="Line 6 (Stroke)" fill-rule="evenodd" clip-rule="evenodd" d="M324 90H144V87H324V90Z" fill="#E79720"/>
</g>
<path id="2" d="M200.146 67H178.718V64.0127L190.038 51.4346C191.715 49.5329 192.868 47.9906 193.497 46.8076C194.141 45.6097 194.463 44.3743 194.463 43.1016C194.463 41.3945 193.946 39.9945 192.913 38.9014C191.88 37.8083 190.502 37.2617 188.78 37.2617C186.714 37.2617 185.104 37.8532 183.951 39.0361C182.813 40.2041 182.244 41.8363 182.244 43.9326H178.089C178.089 40.9229 179.055 38.4896 180.986 36.6328C182.933 34.776 185.531 33.8477 188.78 33.8477C191.82 33.8477 194.223 34.6488 195.99 36.251C197.757 37.8382 198.641 39.957 198.641 42.6074C198.641 45.8268 196.589 49.6602 192.486 54.1074L183.727 63.6084H200.146V67Z" fill="white"/>
<path id="3" d="M273.76 48.627H276.882C278.843 48.597 280.386 48.0804 281.509 47.0771C282.632 46.0739 283.193 44.7188 283.193 43.0117C283.193 39.1784 281.284 37.2617 277.466 37.2617C275.669 37.2617 274.231 37.7783 273.153 38.8115C272.09 39.8298 271.559 41.1849 271.559 42.877H267.403C267.403 40.2865 268.347 38.1377 270.233 36.4307C272.135 34.7087 274.546 33.8477 277.466 33.8477C280.55 33.8477 282.969 34.6637 284.721 36.2959C286.473 37.9281 287.349 40.1966 287.349 43.1016C287.349 44.5241 286.884 45.9017 285.956 47.2344C285.043 48.5671 283.792 49.5628 282.205 50.2217C284.002 50.7907 285.387 51.734 286.36 53.0518C287.349 54.3695 287.843 55.9792 287.843 57.8809C287.843 60.8158 286.884 63.1442 284.968 64.8662C283.051 66.5882 280.558 67.4492 277.488 67.4492C274.419 67.4492 271.918 66.6182 269.986 64.9561C268.07 63.2939 267.111 61.1003 267.111 58.375H271.289C271.289 60.097 271.851 61.4746 272.974 62.5078C274.097 63.541 275.602 64.0576 277.488 64.0576C279.495 64.0576 281.03 63.5335 282.093 62.4854C283.156 61.4372 283.688 59.9323 283.688 57.9707C283.688 56.069 283.104 54.609 281.936 53.5908C280.768 52.5726 279.083 52.0485 276.882 52.0186H273.76V48.627Z" fill="white"/>
<path id="9" d="M194.643 142.625C193.774 143.658 192.733 144.489 191.521 145.118C190.323 145.747 189.005 146.062 187.567 146.062C185.681 146.062 184.034 145.597 182.626 144.669C181.233 143.741 180.155 142.438 179.392 140.761C178.628 139.069 178.246 137.204 178.246 135.168C178.246 132.982 178.658 131.013 179.481 129.261C180.32 127.509 181.503 126.169 183.03 125.24C184.558 124.312 186.34 123.848 188.376 123.848C191.61 123.848 194.156 125.061 196.013 127.486C197.884 129.897 198.82 133.191 198.82 137.369V138.582C198.82 144.946 197.562 149.595 195.047 152.53C192.531 155.45 188.735 156.948 183.659 157.022H182.851V153.519H183.727C187.156 153.459 189.791 152.568 191.633 150.846C193.475 149.109 194.478 146.368 194.643 142.625ZM188.241 142.625C189.634 142.625 190.914 142.198 192.082 141.345C193.265 140.491 194.126 139.436 194.665 138.178V136.516C194.665 133.79 194.074 131.574 192.891 129.867C191.708 128.16 190.21 127.307 188.398 127.307C186.572 127.307 185.104 128.01 183.996 129.418C182.888 130.811 182.334 132.652 182.334 134.943C182.334 137.174 182.866 139.016 183.929 140.469C185.007 141.906 186.444 142.625 188.241 142.625Z" fill="white"/>
<g id="17">
<path d="M268.374 157H264.196V129.306L255.818 132.383V128.609L267.723 124.14H268.374V157Z" fill="white"/>
<path d="M301.661 126.633L288.117 157H283.76L297.259 127.711H279.56V124.297H301.661V126.633Z" fill="white"/>
</g>
</g>
<g id="Group 43">
<g id="Group 40">
<path id="Rectangle 16 (Stroke)_2" fill-rule="evenodd" clip-rule="evenodd" d="M531 3H357V177H531V3ZM354 0V180H534V0H354Z" fill="#FD0C0C"/>
<path id="Line 5 (Stroke)_2" fill-rule="evenodd" clip-rule="evenodd" d="M444 0V180H441V0H444Z" fill="#FD0C0C"/>
<path id="Line 6 (Stroke)_2" fill-rule="evenodd" clip-rule="evenodd" d="M534 90H354V87H534V90Z" fill="#FD0C0C"/>
</g>
<path id="3_2" d="M394.76 48.627H397.882C399.843 48.597 401.386 48.0804 402.509 47.0771C403.632 46.0739 404.193 44.7188 404.193 43.0117C404.193 39.1784 402.284 37.2617 398.466 37.2617C396.669 37.2617 395.231 37.7783 394.153 38.8115C393.09 39.8298 392.559 41.1849 392.559 42.877H388.403C388.403 40.2865 389.347 38.1377 391.233 36.4307C393.135 34.7087 395.546 33.8477 398.466 33.8477C401.55 33.8477 403.969 34.6637 405.721 36.2959C407.473 37.9281 408.349 40.1966 408.349 43.1016C408.349 44.5241 407.884 45.9017 406.956 47.2344C406.043 48.5671 404.792 49.5628 403.205 50.2217C405.002 50.7907 406.387 51.734 407.36 53.0518C408.349 54.3695 408.843 55.9792 408.843 57.8809C408.843 60.8158 407.884 63.1442 405.968 64.8662C404.051 66.5882 401.558 67.4492 398.488 67.4492C395.419 67.4492 392.918 66.6182 390.986 64.9561C389.07 63.2939 388.111 61.1003 388.111 58.375H392.289C392.289 60.097 392.851 61.4746 393.974 62.5078C395.097 63.541 396.602 64.0576 398.488 64.0576C400.495 64.0576 402.03 63.5335 403.093 62.4854C404.156 61.4372 404.688 59.9323 404.688 57.9707C404.688 56.069 404.104 54.609 402.936 53.5908C401.768 52.5726 400.083 52.0485 397.882 52.0186H394.76V48.627Z" fill="white"/>
<path id="4" d="M495.26 56.0166H499.797V59.4082H495.26V67H491.082V59.4082H476.19V56.96L490.835 34.2969H495.26V56.0166ZM480.907 56.0166H491.082V39.9795L490.588 40.8779L480.907 56.0166Z" fill="white"/>
<path id="1" d="M402.374 157H398.196V129.306L389.818 132.383V128.609L401.723 124.14H402.374V157Z" fill="white"/>
<g id="82">
<path d="M484.551 132.832C484.551 134.464 484.117 135.917 483.248 137.189C482.395 138.462 481.234 139.458 479.767 140.177C481.474 140.91 482.821 141.981 483.81 143.389C484.813 144.796 485.314 146.391 485.314 148.173C485.314 151.003 484.356 153.257 482.439 154.934C480.538 156.611 478.03 157.449 474.915 157.449C471.771 157.449 469.247 156.611 467.346 154.934C465.459 153.242 464.516 150.988 464.516 148.173C464.516 146.406 464.995 144.811 465.953 143.389C466.926 141.966 468.267 140.888 469.974 140.154C468.521 139.436 467.376 138.44 466.537 137.167C465.699 135.894 465.279 134.449 465.279 132.832C465.279 130.077 466.163 127.891 467.93 126.273C469.697 124.656 472.025 123.848 474.915 123.848C477.79 123.848 480.111 124.656 481.878 126.273C483.66 127.891 484.551 130.077 484.551 132.832ZM481.159 148.083C481.159 146.256 480.575 144.766 479.407 143.613C478.254 142.46 476.742 141.884 474.87 141.884C472.998 141.884 471.493 142.453 470.355 143.591C469.232 144.729 468.671 146.226 468.671 148.083C468.671 149.94 469.217 151.4 470.311 152.463C471.419 153.526 472.953 154.058 474.915 154.058C476.862 154.058 478.389 153.526 479.497 152.463C480.605 151.385 481.159 149.925 481.159 148.083ZM474.915 127.262C473.283 127.262 471.958 127.771 470.939 128.789C469.936 129.792 469.435 131.162 469.435 132.899C469.435 134.562 469.929 135.909 470.917 136.942C471.92 137.961 473.253 138.47 474.915 138.47C476.577 138.47 477.902 137.961 478.891 136.942C479.894 135.909 480.396 134.562 480.396 132.899C480.396 131.237 479.879 129.882 478.846 128.834C477.812 127.786 476.502 127.262 474.915 127.262Z" fill="white"/>
<path d="M511.976 157H490.548V154.013L501.868 141.435C503.545 139.533 504.698 137.991 505.327 136.808C505.971 135.61 506.293 134.374 506.293 133.102C506.293 131.395 505.776 129.994 504.743 128.901C503.71 127.808 502.332 127.262 500.61 127.262C498.544 127.262 496.934 127.853 495.781 129.036C494.643 130.204 494.074 131.836 494.074 133.933H489.919C489.919 130.923 490.885 128.49 492.816 126.633C494.763 124.776 497.361 123.848 500.61 123.848C503.65 123.848 506.053 124.649 507.82 126.251C509.587 127.838 510.471 129.957 510.471 132.607C510.471 135.827 508.419 139.66 504.316 144.107L495.557 153.608H511.976V157Z" fill="white"/>
</g>
</g>
<g id="Group 44">
<g id="Group 41">
<path id="Rectangle 16 (Stroke)_3" fill-rule="evenodd" clip-rule="evenodd" d="M741 3H567V177H741V3ZM564 0V180H744V0H564Z" fill="#E8A1EE"/>
<path id="Line 5 (Stroke)_3" fill-rule="evenodd" clip-rule="evenodd" d="M654 0V180H651V0H654Z" fill="#E8A1EE"/>
<path id="Line 6 (Stroke)_3" fill-rule="evenodd" clip-rule="evenodd" d="M744 90H564V87H744V90Z" fill="#E8A1EE"/>
</g>
<path id="2_2" d="M620.146 67H598.718V64.0127L610.038 51.4346C611.715 49.5329 612.868 47.9906 613.497 46.8076C614.141 45.6097 614.463 44.3743 614.463 43.1016C614.463 41.3945 613.946 39.9945 612.913 38.9014C611.88 37.8083 610.502 37.2617 608.78 37.2617C606.714 37.2617 605.104 37.8532 603.951 39.0361C602.813 40.2041 602.244 41.8363 602.244 43.9326H598.089C598.089 40.9229 599.055 38.4896 600.986 36.6328C602.933 34.776 605.531 33.8477 608.78 33.8477C611.82 33.8477 614.223 34.6488 615.99 36.251C617.757 37.8382 618.641 39.957 618.641 42.6074C618.641 45.8268 616.589 49.6602 612.486 54.1074L603.727 63.6084H620.146V67Z" fill="white"/>
<path id="x" d="M696.298 51.5693L701.688 42.6973H706.54L698.589 54.7139L706.787 67H701.98L696.365 57.9033L690.75 67H685.921L694.119 54.7139L686.168 42.6973H690.975L696.298 51.5693Z" fill="white"/>
<path id="8" d="M618.551 132.832C618.551 134.464 618.117 135.917 617.248 137.189C616.395 138.462 615.234 139.458 613.767 140.177C615.474 140.91 616.821 141.981 617.81 143.389C618.813 144.796 619.314 146.391 619.314 148.173C619.314 151.003 618.356 153.257 616.439 154.934C614.538 156.611 612.03 157.449 608.915 157.449C605.771 157.449 603.247 156.611 601.346 154.934C599.459 153.242 598.516 150.988 598.516 148.173C598.516 146.406 598.995 144.811 599.953 143.389C600.926 141.966 602.267 140.888 603.974 140.154C602.521 139.436 601.376 138.44 600.537 137.167C599.699 135.894 599.279 134.449 599.279 132.832C599.279 130.077 600.163 127.891 601.93 126.273C603.697 124.656 606.025 123.848 608.915 123.848C611.79 123.848 614.111 124.656 615.878 126.273C617.66 127.891 618.551 130.077 618.551 132.832ZM615.159 148.083C615.159 146.256 614.575 144.766 613.407 143.613C612.254 142.46 610.742 141.884 608.87 141.884C606.998 141.884 605.493 142.453 604.355 143.591C603.232 144.729 602.671 146.226 602.671 148.083C602.671 149.94 603.217 151.4 604.311 152.463C605.419 153.526 606.953 154.058 608.915 154.058C610.862 154.058 612.389 153.526 613.497 152.463C614.605 151.385 615.159 149.925 615.159 148.083ZM608.915 127.262C607.283 127.262 605.958 127.771 604.939 128.789C603.936 129.792 603.435 131.162 603.435 132.899C603.435 134.562 603.929 135.909 604.917 136.942C605.92 137.961 607.253 138.47 608.915 138.47C610.577 138.47 611.902 137.961 612.891 136.942C613.894 135.909 614.396 134.562 614.396 132.899C614.396 131.237 613.879 129.882 612.846 128.834C611.812 127.786 610.502 127.262 608.915 127.262Z" fill="white"/>
<g id="40">
<path d="M692.26 146.017H696.797V149.408H692.26V157H688.082V149.408H673.19V146.96L687.835 124.297H692.26V146.017ZM677.907 146.017H688.082V129.979L687.588 130.878L677.907 146.017Z" fill="white"/>
<path d="M721.055 143.052C721.055 147.918 720.224 151.535 718.562 153.9C716.899 156.266 714.301 157.449 710.768 157.449C707.279 157.449 704.696 156.296 703.019 153.99C701.341 151.669 700.473 148.21 700.413 143.613V138.065C700.413 133.259 701.244 129.688 702.906 127.352C704.568 125.016 707.174 123.848 710.723 123.848C714.242 123.848 716.832 124.978 718.494 127.239C720.156 129.485 721.01 132.959 721.055 137.661V143.052ZM716.899 137.369C716.899 133.85 716.405 131.29 715.417 129.688C714.429 128.07 712.864 127.262 710.723 127.262C708.596 127.262 707.047 128.063 706.073 129.665C705.1 131.267 704.598 133.73 704.568 137.055V143.703C704.568 147.237 705.077 149.85 706.096 151.542C707.129 153.219 708.686 154.058 710.768 154.058C712.819 154.058 714.339 153.264 715.327 151.677C716.33 150.09 716.854 147.589 716.899 144.175V137.369Z" fill="white"/>
</g>
</g>
</g>
<g id="\Rightarrow\; 2^3+9=8+9=17&#10;\Rightarrow\; 3^4+1=81+1=82&#10;\Rightarrow\; 2^x+8=40&#10;              2^x=40-8&#10;              2^x=32&#10;              2^x=2^5  &#10;\therefore \; x=5">
<g id="Group">
<g id="Group 53">
<g id="Group_2">
<path id="Vector" d="M21.5275 257.166C21.5275 256.865 21.7466 256.714 22.1848 256.714C22.3218 256.714 22.4313 256.714 22.5135 256.714C22.5956 256.714 22.6641 256.714 22.7189 256.714C22.7737 256.714 22.8284 256.728 22.8832 256.755C22.938 256.783 22.9654 256.796 22.9654 256.796C22.9654 256.796 22.9928 256.837 23.0476 256.92C23.1023 257.002 23.1297 257.043 23.1297 257.043C23.1297 257.043 23.1708 257.111 23.253 257.248C24.2664 259.275 25.6084 261.069 27.2791 262.63C28.9498 264.191 30.4699 265.301 31.8393 265.958C33.2088 266.615 34.5234 267.122 35.7833 267.478C36.2489 267.615 36.4817 267.793 36.4817 268.012C36.4817 268.231 36.3584 268.382 36.1119 268.464C35.8655 268.546 35.3588 268.697 34.5919 268.916C33.825 269.135 33.0307 269.464 32.2091 269.902C28.2651 271.819 25.2797 274.777 23.253 278.776C23.1434 279.022 23.0476 279.159 22.9654 279.187C22.8832 279.214 22.6778 279.241 22.3491 279.269C21.8014 279.269 21.5275 279.173 21.5275 278.981C21.5275 278.872 21.596 278.639 21.7329 278.283C22.6915 276.393 23.8692 274.709 25.266 273.23L25.6769 272.819H0.575162C0.191721 272.627 0 272.353 0 271.997C0 271.586 0.219109 271.312 0.657328 271.175H27.4845L27.8954 270.847C28.9635 270.025 30.5657 269.08 32.7021 268.012C32.6747 267.985 32.4282 267.861 31.9626 267.642C31.497 267.423 30.8807 267.095 30.1138 266.656C29.347 266.218 28.6075 265.725 27.8954 265.177L27.4845 264.849H0.657328C0.219109 264.712 0 264.438 0 264.027C0 263.671 0.191721 263.397 0.575162 263.205H25.6769L25.266 262.795C24.3622 261.836 23.5132 260.727 22.7189 259.467C21.9246 258.207 21.5275 257.44 21.5275 257.166Z" fill="white"/>
</g>
<g id="Group_3">
<g id="Group_4">
<path id="Vector_2" d="M66.087 260.658C65.3475 260.658 64.7586 260.412 64.3204 259.919C63.8822 259.426 63.6631 258.823 63.6631 258.111C63.6631 256.166 64.3889 254.482 65.8405 253.058C67.2921 251.634 69.0997 250.921 71.2634 250.921C73.7558 250.921 75.8373 251.688 77.5081 253.222C79.1788 254.756 80.0278 256.742 80.0552 259.179C80.0552 260.357 79.7813 261.48 79.2335 262.548C78.6858 263.616 78.0284 264.547 77.2616 265.342C76.4947 266.136 75.3991 267.149 73.9749 268.382C72.9889 269.231 71.6195 270.491 69.8666 272.161L67.4427 274.462L70.565 274.503C74.865 274.503 77.152 274.435 77.4259 274.298C77.6176 274.243 77.9463 273.024 78.4119 270.641V270.518H80.0552V270.641C80.0278 270.723 79.8498 271.97 79.5211 274.38C79.1925 276.79 78.987 278.05 78.9049 278.159V278.283H63.6631V277.502V277.009C63.6631 276.817 63.7453 276.612 63.9096 276.393C64.0739 276.174 64.4847 275.694 65.1421 274.955C65.9363 274.079 66.6211 273.312 67.1962 272.654C67.4427 272.38 67.9083 271.874 68.593 271.134C69.2778 270.395 69.7434 269.888 69.9899 269.614C70.2364 269.34 70.6335 268.888 71.1813 268.258C71.729 267.629 72.1125 267.163 72.3316 266.862C72.5507 266.56 72.8657 266.15 73.2765 265.629C73.6873 265.109 73.9749 264.671 74.1392 264.314C74.3036 263.958 74.509 263.561 74.7555 263.123C75.002 262.685 75.18 262.247 75.2896 261.808C75.3991 261.37 75.495 260.959 75.5772 260.576C75.6593 260.193 75.7004 259.741 75.7004 259.22C75.7004 257.495 75.2348 256.002 74.3036 254.742C73.3724 253.482 72.044 252.852 70.3185 252.852C69.4147 252.852 68.6204 253.085 67.9357 253.551C67.251 254.016 66.7717 254.468 66.4978 254.906C66.2239 255.345 66.087 255.605 66.087 255.687C66.087 255.714 66.1555 255.728 66.2924 255.728C66.7854 255.728 67.2921 255.92 67.8125 256.303C68.3329 256.687 68.593 257.317 68.593 258.193C68.593 258.878 68.3739 259.453 67.9357 259.919C67.4975 260.384 66.8813 260.631 66.087 260.658Z" fill="white"/>
</g>
<g id="Group_5">
<path id="Vector_3" d="M85.8402 247.867C85.3174 247.867 84.9108 247.703 84.6203 247.374C84.3298 247.044 84.1749 246.618 84.1556 246.096C84.1556 245.031 84.6203 244.082 85.5498 243.249C86.4792 242.416 87.6023 242 88.9191 242C89.5968 242 90.0228 242.01 90.1971 242.029C91.63 242.262 92.724 242.775 93.4792 243.569C94.2344 244.362 94.6217 245.224 94.6411 246.154C94.6411 247.161 94.3119 248.138 93.6535 249.087C92.9951 250.036 92.085 250.723 90.9232 251.149L90.8361 251.208C90.8361 251.227 90.9232 251.256 91.0975 251.295C91.2718 251.333 91.5525 251.421 91.9398 251.556C92.3271 251.692 92.695 251.895 93.0435 252.166C94.6314 253.192 95.4253 254.548 95.4253 256.232C95.4253 257.762 94.825 259.098 93.6245 260.241C92.4239 261.383 90.9038 261.954 89.0643 261.954C87.5152 261.954 86.1791 261.538 85.056 260.706C83.9329 259.873 83.3713 258.818 83.3713 257.54C83.3713 256.997 83.5456 256.562 83.8942 256.232C84.2427 255.903 84.6784 255.729 85.2012 255.71C85.7434 255.71 86.1888 255.884 86.5373 256.232C86.8859 256.581 87.0601 257.017 87.0601 257.54C87.0601 257.753 87.0311 257.946 86.973 258.12C86.9149 258.295 86.8471 258.45 86.7697 258.585C86.6922 258.721 86.5857 258.837 86.4502 258.934C86.3146 259.031 86.1985 259.108 86.1016 259.166C86.0048 259.224 85.908 259.263 85.8112 259.282C85.7144 259.302 85.6369 259.331 85.5788 259.369L85.4626 259.398C86.4502 260.27 87.6507 260.706 89.0643 260.706C90.1293 260.706 90.9329 260.192 91.4751 259.166C91.8043 258.527 91.9689 257.549 91.9689 256.232V255.652C91.9689 253.812 91.3492 252.582 90.1099 251.963C89.8195 251.847 89.2289 251.779 88.3381 251.759L87.1182 251.73L87.0311 251.672C86.9924 251.614 86.973 251.459 86.973 251.208C86.973 250.859 87.0505 250.685 87.2054 250.685C87.7476 250.685 88.3091 250.636 88.89 250.54C89.5484 250.443 90.1487 250.036 90.6908 249.32C91.233 248.603 91.5041 247.519 91.5041 246.066V245.834C91.5041 244.73 91.1653 243.966 90.4875 243.54C90.0615 243.268 89.6065 243.133 89.1224 243.133C88.5027 243.133 87.9315 243.239 87.4087 243.452C86.8859 243.665 86.518 243.888 86.305 244.12C86.0919 244.353 85.9854 244.469 85.9854 244.469H86.0726C86.1307 244.488 86.2081 244.508 86.305 244.527C86.4018 244.546 86.4986 244.595 86.5954 244.672C86.6922 244.75 86.8084 244.818 86.944 244.876C87.0795 244.934 87.1763 245.04 87.2344 245.195C87.2925 245.35 87.37 245.495 87.4668 245.631C87.5636 245.766 87.5926 245.96 87.5539 246.212C87.5539 246.638 87.4184 247.015 87.1473 247.344C86.8762 247.674 86.4405 247.848 85.8402 247.867Z" fill="white"/>
</g>
</g>
<g id="Group_6">
<path id="Vector_4" d="M110.155 268.546C110.155 268.546 110.155 268.368 110.155 268.012C110.155 267.656 110.347 267.382 110.73 267.19H123.014V261.028L123.055 254.865C123.329 254.509 123.589 254.331 123.836 254.331C124.192 254.331 124.466 254.537 124.657 254.947V267.19H136.9C137.311 267.409 137.516 267.683 137.516 268.012C137.516 268.34 137.311 268.614 136.9 268.833H124.657V281.076C124.438 281.46 124.192 281.651 123.918 281.651H123.836H123.753C123.425 281.651 123.178 281.46 123.014 281.076V268.833H110.73C110.347 268.642 110.155 268.368 110.155 268.012V268.546Z" fill="white"/>
</g>
<g id="Group_7">
<path id="Vector_5" d="M163.413 266.492C162.098 268.573 160.455 269.614 158.483 269.614C156.347 269.614 154.594 268.806 153.224 267.19C151.855 265.574 151.033 263.849 150.759 262.014C150.705 261.575 150.677 261.028 150.677 260.37V260.042C150.677 257.494 151.622 255.276 153.512 253.386C155.155 251.743 156.963 250.921 158.935 250.921C158.99 250.921 159.072 250.921 159.181 250.921C159.291 250.921 159.401 250.935 159.51 250.962H159.674C160.003 250.962 160.345 250.99 160.701 251.044C161.058 251.099 161.564 251.264 162.222 251.537C162.879 251.811 163.523 252.25 164.152 252.852C164.782 253.455 165.371 254.263 165.919 255.276C167.097 257.686 167.686 260.781 167.686 264.561C167.686 268.395 166.864 271.641 165.221 274.297C164.262 275.831 163.112 277.023 161.77 277.872C160.428 278.721 159.003 279.159 157.497 279.186C155.826 279.186 154.457 278.789 153.389 277.995C152.321 277.201 151.773 276.023 151.745 274.462C151.718 272.901 152.444 272.134 153.923 272.161C154.525 272.161 155.032 272.353 155.443 272.736C155.854 273.12 156.059 273.654 156.059 274.338C156.059 274.831 155.936 275.256 155.689 275.612C155.443 275.968 155.224 276.187 155.032 276.269C154.84 276.352 154.662 276.42 154.498 276.475L154.334 276.516C154.334 276.571 154.429 276.653 154.621 276.762C154.813 276.872 155.169 277.009 155.689 277.173C156.21 277.338 156.785 277.406 157.415 277.379H157.661C159.305 277.379 160.688 276.502 161.811 274.749C162.879 273.216 163.413 270.559 163.413 266.779V266.492ZM158.976 268.094C160.291 268.094 161.345 267.423 162.139 266.081C162.934 264.739 163.345 262.917 163.372 260.617C163.372 258.48 163.262 256.947 163.043 256.015C162.988 255.742 162.906 255.468 162.797 255.194C162.687 254.92 162.495 254.564 162.222 254.126C161.948 253.687 161.537 253.318 160.989 253.016C160.441 252.715 159.798 252.578 159.058 252.606C158.017 252.606 157.127 252.975 156.388 253.715C155.813 254.317 155.443 255.029 155.279 255.851C155.114 256.673 155.018 258.111 154.991 260.165C154.991 262.438 155.059 263.972 155.196 264.766C155.333 265.56 155.607 266.204 156.018 266.697C156.703 267.628 157.689 268.094 158.976 268.094Z" fill="white"/>
</g>
<g id="Group_8">
<path id="Vector_6" d="M183.202 264.027C183.202 263.671 183.393 263.397 183.777 263.205H209.947C210.358 263.424 210.563 263.698 210.563 264.027C210.563 264.328 210.371 264.588 209.988 264.807L196.923 264.848H183.859C183.421 264.711 183.202 264.438 183.202 264.027ZM183.202 271.997C183.202 271.586 183.421 271.312 183.859 271.175H209.988C210.371 271.449 210.563 271.723 210.563 271.997C210.563 272.353 210.358 272.627 209.947 272.818H183.777C183.393 272.627 183.202 272.353 183.202 271.997Z" fill="white"/>
</g>
<g id="Group_9">
<path id="Vector_7" d="M227.152 261.151C227.152 261.151 227.152 260.096 227.152 257.987C227.152 255.879 227.891 254.18 229.37 252.893C230.849 251.606 232.547 250.949 234.464 250.921C236.409 250.921 238.135 251.496 239.641 252.647C241.147 253.797 241.901 255.29 241.901 257.125C241.901 257.946 241.75 258.713 241.449 259.425C241.147 260.137 240.791 260.713 240.38 261.151C239.97 261.589 239.545 261.973 239.107 262.301C238.669 262.63 238.313 262.876 238.039 263.041C237.765 263.205 237.614 263.315 237.587 263.369L238.162 263.739C238.545 264.013 238.929 264.287 239.312 264.561C239.696 264.835 239.915 264.985 239.97 265.013C242.024 266.629 243.051 268.669 243.051 271.134C243.051 273.298 242.257 275.174 240.668 276.762C239.079 278.351 237.025 279.159 234.506 279.186C232.041 279.186 230.014 278.488 228.425 277.091C226.837 275.694 226.042 273.969 226.042 271.915C226.042 268.957 227.809 266.492 231.342 264.52L230.603 263.986C230.028 263.63 229.658 263.356 229.493 263.164C227.932 261.822 227.152 260.096 227.152 257.987V261.151ZM236.026 262.424L236.272 262.26C236.436 262.151 236.56 262.068 236.642 262.014C236.724 261.959 236.861 261.863 237.053 261.726C237.244 261.589 237.409 261.452 237.546 261.315C237.683 261.178 237.833 261.014 237.998 260.822C238.162 260.63 238.313 260.452 238.45 260.288C238.586 260.124 238.723 259.905 238.86 259.631C238.997 259.357 239.121 259.124 239.23 258.932C239.34 258.741 239.408 258.467 239.436 258.111C239.463 257.755 239.49 257.453 239.518 257.207C239.518 256.029 239.121 255.029 238.326 254.208C237.532 253.386 236.615 252.866 235.574 252.647C235.382 252.619 234.93 252.606 234.218 252.606C233.095 252.606 232.041 252.962 231.055 253.674C230.069 254.386 229.562 255.276 229.535 256.344C229.535 256.974 229.713 257.549 230.069 258.07C230.425 258.59 230.781 258.987 231.137 259.261C231.493 259.535 232.178 259.973 233.191 260.576C233.383 260.713 233.533 260.808 233.643 260.863L236.026 262.424ZM234.547 277.42C236.135 277.42 237.505 276.954 238.655 276.023C239.805 275.092 240.38 273.969 240.38 272.654C240.38 272.188 240.312 271.75 240.175 271.339C240.038 270.929 239.874 270.586 239.682 270.312C239.49 270.038 239.189 269.737 238.778 269.409C238.367 269.08 238.052 268.833 237.833 268.669C237.614 268.505 237.217 268.245 236.642 267.888C236.067 267.532 235.697 267.3 235.533 267.19C235.149 266.944 234.738 266.683 234.3 266.409C233.862 266.136 233.506 265.903 233.232 265.711L232.903 265.506C232.739 265.506 232.342 265.738 231.712 266.204C231.082 266.67 230.425 267.423 229.74 268.464C229.055 269.504 228.699 270.627 228.672 271.832C228.672 273.448 229.261 274.777 230.438 275.817C231.616 276.858 232.986 277.392 234.547 277.42Z" fill="white"/>
</g>
<g id="Group_10">
<path id="Vector_8" d="M256.246 268.546C256.246 268.546 256.246 268.368 256.246 268.012C256.246 267.656 256.438 267.382 256.821 267.19H269.105V261.028L269.146 254.865C269.42 254.509 269.68 254.331 269.927 254.331C270.283 254.331 270.557 254.537 270.748 254.947V267.19H282.991C283.402 267.409 283.607 267.683 283.607 268.012C283.607 268.34 283.402 268.614 282.991 268.833H270.748V281.076C270.529 281.46 270.283 281.651 270.009 281.651H269.927H269.845C269.516 281.651 269.269 281.46 269.105 281.076V268.833H256.821C256.438 268.642 256.246 268.368 256.246 268.012V268.546Z" fill="white"/>
</g>
<g id="Group_11">
<path id="Vector_9" d="M309.504 266.492C308.189 268.573 306.546 269.614 304.574 269.614C302.438 269.614 300.685 268.806 299.315 267.19C297.946 265.574 297.124 263.849 296.85 262.014C296.795 261.575 296.768 261.028 296.768 260.37V260.042C296.768 257.494 297.713 255.276 299.603 253.386C301.246 251.743 303.054 250.921 305.026 250.921C305.081 250.921 305.163 250.921 305.272 250.921C305.382 250.921 305.491 250.935 305.601 250.962H305.765C306.094 250.962 306.436 250.99 306.792 251.044C307.148 251.099 307.655 251.264 308.312 251.537C308.97 251.811 309.613 252.25 310.243 252.852C310.873 253.455 311.462 254.263 312.01 255.276C313.188 257.686 313.776 260.781 313.776 264.561C313.776 268.395 312.955 271.641 311.311 274.297C310.353 275.831 309.203 277.023 307.86 277.872C306.518 278.721 305.094 279.159 303.588 279.186C301.917 279.186 300.548 278.789 299.48 277.995C298.411 277.201 297.864 276.023 297.836 274.462C297.809 272.901 298.535 272.134 300.014 272.161C300.616 272.161 301.123 272.353 301.534 272.736C301.945 273.12 302.15 273.654 302.15 274.338C302.15 274.831 302.027 275.256 301.78 275.612C301.534 275.968 301.315 276.187 301.123 276.269C300.931 276.352 300.753 276.42 300.589 276.475L300.424 276.516C300.424 276.571 300.52 276.653 300.712 276.762C300.904 276.872 301.26 277.009 301.78 277.173C302.301 277.338 302.876 277.406 303.506 277.379H303.752C305.395 277.379 306.779 276.502 307.902 274.749C308.97 273.216 309.504 270.559 309.504 266.779V266.492ZM305.067 268.094C306.381 268.094 307.436 267.423 308.23 266.081C309.024 264.739 309.435 262.917 309.463 260.617C309.463 258.48 309.353 256.947 309.134 256.015C309.079 255.742 308.997 255.468 308.888 255.194C308.778 254.92 308.586 254.564 308.312 254.126C308.038 253.687 307.628 253.318 307.08 253.016C306.532 252.715 305.888 252.578 305.149 252.606C304.108 252.606 303.218 252.975 302.479 253.715C301.903 254.317 301.534 255.029 301.369 255.851C301.205 256.673 301.109 258.111 301.082 260.165C301.082 262.438 301.15 263.972 301.287 264.766C301.424 265.56 301.698 266.204 302.109 266.697C302.794 267.628 303.78 268.094 305.067 268.094Z" fill="white"/>
</g>
<g id="Group_12">
<path id="Vector_10" d="M329.293 264.027C329.293 263.671 329.485 263.397 329.868 263.205H356.038C356.449 263.424 356.654 263.698 356.654 264.027C356.654 264.328 356.463 264.588 356.079 264.807L343.015 264.848H329.95C329.512 264.711 329.293 264.438 329.293 264.027ZM329.293 271.997C329.293 271.586 329.512 271.312 329.95 271.175H356.079C356.463 271.449 356.654 271.723 356.654 271.997C356.654 272.353 356.449 272.627 356.038 272.818H329.868C329.485 272.627 329.293 272.353 329.293 271.997Z" fill="white"/>
</g>
<g id="Group_13">
<path id="Vector_11" d="M379.117 254.537L378.583 254.742C378.2 254.879 377.652 255.016 376.94 255.153C376.228 255.29 375.433 255.386 374.557 255.441H373.776V253.551H374.557C375.844 253.496 377.036 253.291 378.131 252.935C379.227 252.578 379.994 252.25 380.432 251.949C380.87 251.647 381.253 251.346 381.582 251.045C381.637 250.963 381.801 250.921 382.075 250.921C382.322 250.921 382.554 251.004 382.774 251.168V263.452L382.815 275.777C383.006 275.968 383.171 276.092 383.308 276.146C383.445 276.201 383.773 276.256 384.294 276.311C384.814 276.366 385.663 276.393 386.841 276.393H387.909V278.283H387.457C386.882 278.201 384.704 278.159 380.925 278.159C377.2 278.159 375.05 278.201 374.475 278.283H373.982V276.393H375.05C375.652 276.393 376.173 276.393 376.611 276.393C377.049 276.393 377.392 276.379 377.638 276.352C377.885 276.324 378.104 276.283 378.295 276.229C378.487 276.174 378.597 276.146 378.624 276.146C378.652 276.146 378.734 276.078 378.871 275.941C379.008 275.804 379.09 275.749 379.117 275.777V254.537Z" fill="white"/>
<path id="Vector_12" d="M393.167 259.466C393.195 259.412 393.427 257.919 393.866 254.988L394.523 250.593C394.523 250.538 394.797 250.51 395.345 250.51H396.166V250.675C396.166 250.949 396.372 251.181 396.783 251.373C397.193 251.565 397.905 251.688 398.919 251.743C399.932 251.798 402.247 251.825 405.862 251.825H410.833V253.427L408.039 257.248C407.793 257.577 407.382 258.124 406.807 258.891C406.232 259.658 405.862 260.165 405.698 260.411C405.533 260.658 405.246 261.096 404.835 261.726C404.424 262.356 404.15 262.849 404.013 263.205C403.876 263.561 403.684 264.068 403.438 264.725C403.191 265.382 403.013 266.012 402.904 266.615C402.794 267.217 402.685 267.957 402.575 268.833C402.466 269.71 402.384 270.641 402.329 271.627C402.274 272.613 402.233 273.736 402.205 274.996C402.205 275.379 402.205 275.763 402.205 276.146C402.205 276.53 402.192 276.858 402.164 277.132V277.502C402.055 277.967 401.795 278.365 401.384 278.693C400.973 279.022 400.507 279.186 399.987 279.186C399.686 279.186 399.398 279.145 399.124 279.063C398.85 278.981 398.563 278.721 398.262 278.282C397.96 277.844 397.81 277.296 397.81 276.639C397.81 272.312 399.138 267.82 401.795 263.164C402.342 262.287 403.493 260.63 405.246 258.193L407.135 255.605H403.315C398.549 255.605 396.043 255.687 395.797 255.851C395.632 255.933 395.482 256.262 395.345 256.837C395.208 257.412 395.071 258.001 394.934 258.604L394.811 259.466V259.59H393.167V259.466Z" fill="white"/>
</g>
</g>
<g id="Group 52">
<g id="Group_14">
<path id="Vector_13" d="M28.5275 331.515C28.5275 331.213 28.7466 331.063 29.1848 331.063C29.3218 331.063 29.4313 331.063 29.5135 331.063C29.5956 331.063 29.6641 331.063 29.7189 331.063C29.7737 331.063 29.8284 331.076 29.8832 331.104C29.938 331.131 29.9654 331.145 29.9654 331.145C29.9654 331.145 29.9928 331.186 30.0476 331.268C30.1023 331.35 30.1297 331.391 30.1297 331.391C30.1297 331.391 30.1708 331.46 30.253 331.597C31.2664 333.624 32.6084 335.418 34.2791 336.979C35.9498 338.54 37.4699 339.649 38.8393 340.306C40.2088 340.964 41.5234 341.47 42.7833 341.826C43.2489 341.963 43.4817 342.141 43.4817 342.361C43.4817 342.58 43.3584 342.73 43.1119 342.812C42.8655 342.895 42.3588 343.045 41.5919 343.264C40.825 343.484 40.0307 343.812 39.2091 344.25C35.2651 346.168 32.2797 349.126 30.253 353.124C30.1434 353.371 30.0476 353.508 29.9654 353.535C29.8832 353.563 29.6778 353.59 29.3491 353.617C28.8014 353.617 28.5275 353.521 28.5275 353.33C28.5275 353.22 28.596 352.987 28.7329 352.631C29.6915 350.742 30.8692 349.057 32.266 347.578L32.6769 347.167H7.57516C7.19172 346.976 7 346.702 7 346.346C7 345.935 7.21911 345.661 7.65733 345.524H34.4845L34.8954 345.195C35.9635 344.374 37.5657 343.429 39.7021 342.361C39.6747 342.333 39.4282 342.21 38.9626 341.991C38.497 341.772 37.8807 341.443 37.1138 341.005C36.347 340.567 35.6075 340.074 34.8954 339.526L34.4845 339.197H7.65733C7.21911 339.06 7 338.786 7 338.376C7 338.019 7.19172 337.746 7.57516 337.554H32.6769L32.266 337.143C31.3622 336.184 30.5132 335.075 29.7189 333.815C28.9246 332.555 28.5275 331.789 28.5275 331.515Z" fill="white"/>
</g>
<g id="Group_15">
<g id="Group_16">
<path id="Vector_14" d="M73.8231 333.61C73.0836 333.61 72.5085 333.377 72.0976 332.911C71.6868 332.446 71.4677 331.843 71.4403 331.103C71.4403 329.597 72.0976 328.255 73.4123 327.077C74.7269 325.9 76.3155 325.311 78.1779 325.311C79.1365 325.311 79.7391 325.324 79.9856 325.352C82.0123 325.681 83.5598 326.406 84.6279 327.529C85.6961 328.652 86.2439 329.871 86.2713 331.186C86.2713 332.61 85.8056 333.993 84.8744 335.335C83.9432 336.677 82.656 337.649 81.0126 338.252L80.8894 338.334C80.8894 338.361 81.0126 338.403 81.2591 338.457C81.5056 338.512 81.9028 338.635 82.4505 338.827C82.9983 339.019 83.5187 339.306 84.0117 339.69C86.2576 341.141 87.3805 343.059 87.3805 345.441C87.3805 347.605 86.5314 349.495 84.8334 351.111C83.1353 352.727 80.9852 353.535 78.3833 353.535C76.1922 353.535 74.3024 352.946 72.7139 351.768C71.1253 350.591 70.3311 349.098 70.3311 347.29C70.3311 346.523 70.5776 345.907 71.0705 345.441C71.5635 344.976 72.1798 344.729 72.9193 344.702C73.6862 344.702 74.3161 344.948 74.8091 345.441C75.3021 345.934 75.5486 346.551 75.5486 347.29C75.5486 347.591 75.5075 347.865 75.4253 348.112C75.3432 348.358 75.2473 348.577 75.1378 348.769C75.0282 348.961 74.8776 349.125 74.6859 349.262C74.4941 349.399 74.3298 349.509 74.1929 349.591C74.0559 349.673 73.919 349.728 73.782 349.755C73.6451 349.783 73.5355 349.824 73.4534 349.878L73.289 349.919C74.6859 351.152 76.3839 351.768 78.3833 351.768C79.8897 351.768 81.0263 351.042 81.7932 349.591C82.2588 348.687 82.4916 347.304 82.4916 345.441V344.62C82.4916 342.018 81.6152 340.279 79.8623 339.402C79.4515 339.238 78.6161 339.142 77.3562 339.115L75.6308 339.074L75.5075 338.991C75.4527 338.909 75.4253 338.69 75.4253 338.334C75.4253 337.841 75.5349 337.595 75.754 337.595C76.5209 337.595 77.3152 337.526 78.1368 337.389C79.068 337.252 79.9171 336.677 80.684 335.664C81.4509 334.65 81.8343 333.117 81.8343 331.062V330.734C81.8343 329.173 81.355 328.091 80.3964 327.488C79.7938 327.105 79.1502 326.913 78.4655 326.913C77.5891 326.913 76.7811 327.064 76.0416 327.365C75.3021 327.666 74.7817 327.981 74.4804 328.31C74.1792 328.638 74.0285 328.803 74.0285 328.803H74.1518C74.2339 328.83 74.3435 328.858 74.4804 328.885C74.6174 328.912 74.7543 328.981 74.8913 329.09C75.0282 329.2 75.1925 329.296 75.3843 329.378C75.576 329.46 75.7129 329.611 75.7951 329.83C75.8773 330.049 75.9868 330.254 76.1238 330.446C76.2607 330.638 76.3018 330.912 76.247 331.268C76.247 331.87 76.0553 332.404 75.6718 332.87C75.2884 333.336 74.6722 333.582 73.8231 333.61Z" fill="white"/>
</g>
<g id="Group_17">
<path id="Vector_15" d="M102.565 335.664C102.217 335.606 100.968 335.577 98.8182 335.577C96.572 335.577 95.2746 335.606 94.926 335.664H94.6646V334.328H95.565C95.9523 334.328 96.2137 334.328 96.3493 334.328C96.4848 334.328 96.6494 334.308 96.8431 334.27C97.0367 334.231 97.1722 334.183 97.2497 334.125C97.3271 334.066 97.3949 333.989 97.453 333.892C97.4724 333.853 97.4821 333.331 97.4821 332.324V330.871H89.9592V329.535L94.3451 322.826C97.3078 318.333 98.8085 316.077 98.8472 316.058C98.8859 316.019 99.0893 316 99.4572 316H99.98L100.154 316.174V329.535H102.826V330.871H100.154V332.353C100.154 333.147 100.154 333.611 100.154 333.747C100.154 333.882 100.212 333.999 100.329 334.095C100.483 334.231 101.035 334.308 101.984 334.328H102.826V335.664H102.565ZM97.6563 329.535V319.834L91.2953 329.506L94.4613 329.535H97.6563Z" fill="white"/>
</g>
</g>
<g id="Group_18">
<path id="Vector_16" d="M117.157 342.894C117.157 342.894 117.157 342.716 117.157 342.36C117.157 342.004 117.349 341.73 117.732 341.539H130.016V335.376L130.057 329.214C130.331 328.858 130.591 328.68 130.838 328.68C131.194 328.68 131.468 328.885 131.66 329.296V341.539H143.902C144.313 341.758 144.518 342.032 144.518 342.36C144.518 342.689 144.313 342.963 143.902 343.182H131.66V355.425C131.44 355.808 131.194 356 130.92 356H130.838H130.756C130.427 356 130.181 355.808 130.016 355.425V343.182H117.732C117.349 342.99 117.157 342.716 117.157 342.36V342.894Z" fill="white"/>
</g>
<g id="Group_19">
<path id="Vector_17" d="M164.698 328.885L164.164 329.091C163.78 329.227 163.232 329.364 162.52 329.501C161.808 329.638 161.014 329.734 160.138 329.789H159.357V327.899H160.138C161.425 327.844 162.616 327.639 163.712 327.283C164.807 326.927 165.574 326.598 166.012 326.297C166.451 325.996 166.834 325.694 167.163 325.393C167.217 325.311 167.382 325.27 167.656 325.27C167.902 325.27 168.135 325.352 168.354 325.516V337.8L168.395 350.125C168.587 350.317 168.751 350.44 168.888 350.495C169.025 350.55 169.354 350.604 169.874 350.659C170.395 350.714 171.244 350.741 172.421 350.741H173.489V352.631H173.038C172.462 352.549 170.285 352.508 166.505 352.508C162.781 352.508 160.631 352.549 160.055 352.631H159.562V350.741H160.631C161.233 350.741 161.753 350.741 162.192 350.741C162.63 350.741 162.972 350.728 163.219 350.7C163.465 350.673 163.684 350.632 163.876 350.577C164.068 350.522 164.177 350.495 164.205 350.495C164.232 350.495 164.314 350.426 164.451 350.289C164.588 350.152 164.67 350.098 164.698 350.125V328.885Z" fill="white"/>
</g>
<g id="Group_20">
<path id="Vector_18" d="M190.202 338.375C190.202 338.019 190.393 337.745 190.777 337.554H216.947C217.358 337.773 217.563 338.047 217.563 338.375C217.563 338.677 217.371 338.937 216.988 339.156L203.923 339.197H190.859C190.421 339.06 190.202 338.786 190.202 338.375ZM190.202 346.345C190.202 345.935 190.421 345.661 190.859 345.524H216.988C217.371 345.798 217.563 346.071 217.563 346.345C217.563 346.701 217.358 346.975 216.947 347.167H190.777C190.393 346.975 190.202 346.701 190.202 346.345Z" fill="white"/>
</g>
<g id="Group_21">
<path id="Vector_19" d="M234.152 335.499C234.152 335.499 234.152 334.445 234.152 332.336C234.152 330.227 234.892 328.529 236.371 327.242C237.85 325.954 239.548 325.297 241.465 325.27C243.41 325.27 245.135 325.845 246.641 326.995C248.148 328.146 248.901 329.638 248.901 331.473C248.901 332.295 248.75 333.062 248.449 333.774C248.148 334.486 247.792 335.061 247.381 335.499C246.97 335.938 246.546 336.321 246.107 336.65C245.669 336.978 245.313 337.225 245.039 337.389C244.765 337.554 244.615 337.663 244.587 337.718L245.162 338.088C245.546 338.361 245.929 338.635 246.313 338.909C246.696 339.183 246.915 339.334 246.97 339.361C249.024 340.977 250.051 343.018 250.051 345.483C250.051 347.646 249.257 349.522 247.669 351.111C246.08 352.699 244.026 353.507 241.506 353.535C239.041 353.535 237.014 352.836 235.426 351.44C233.837 350.043 233.043 348.317 233.043 346.263C233.043 343.305 234.81 340.84 238.343 338.868L237.603 338.334C237.028 337.978 236.658 337.704 236.494 337.512C234.933 336.17 234.152 334.445 234.152 332.336V335.499ZM243.026 336.773L243.273 336.609C243.437 336.499 243.56 336.417 243.642 336.362C243.725 336.307 243.861 336.211 244.053 336.075C244.245 335.938 244.409 335.801 244.546 335.664C244.683 335.527 244.834 335.362 244.998 335.171C245.162 334.979 245.313 334.801 245.45 334.637C245.587 334.472 245.724 334.253 245.861 333.979C245.998 333.705 246.121 333.473 246.231 333.281C246.34 333.089 246.409 332.815 246.436 332.459C246.463 332.103 246.491 331.802 246.518 331.555C246.518 330.378 246.121 329.378 245.327 328.556C244.533 327.735 243.615 327.214 242.574 326.995C242.383 326.968 241.931 326.954 241.218 326.954C240.096 326.954 239.041 327.31 238.055 328.022C237.069 328.734 236.562 329.624 236.535 330.693C236.535 331.323 236.713 331.898 237.069 332.418C237.425 332.939 237.781 333.336 238.137 333.61C238.493 333.883 239.178 334.322 240.191 334.924C240.383 335.061 240.534 335.157 240.643 335.212L243.026 336.773ZM241.547 351.768C243.136 351.768 244.505 351.303 245.655 350.371C246.806 349.44 247.381 348.317 247.381 347.003C247.381 346.537 247.312 346.099 247.176 345.688C247.039 345.277 246.874 344.935 246.683 344.661C246.491 344.387 246.19 344.086 245.779 343.757C245.368 343.428 245.053 343.182 244.834 343.018C244.615 342.853 244.218 342.593 243.642 342.237C243.067 341.881 242.697 341.648 242.533 341.539C242.15 341.292 241.739 341.032 241.301 340.758C240.862 340.484 240.506 340.251 240.232 340.06L239.904 339.854C239.739 339.854 239.342 340.087 238.712 340.553C238.082 341.018 237.425 341.771 236.74 342.812C236.056 343.853 235.7 344.976 235.672 346.181C235.672 347.797 236.261 349.125 237.439 350.166C238.617 351.207 239.986 351.741 241.547 351.768Z" fill="white"/>
<path id="Vector_20" d="M260.568 328.885L260.034 329.091C259.651 329.228 259.103 329.365 258.391 329.502C257.679 329.638 256.885 329.734 256.008 329.789H255.228V327.899H256.008C257.295 327.844 258.487 327.639 259.582 327.283C260.678 326.927 261.445 326.598 261.883 326.297C262.321 325.996 262.705 325.694 263.033 325.393C263.088 325.311 263.252 325.27 263.526 325.27C263.773 325.27 264.006 325.352 264.225 325.516V337.8L264.266 350.125C264.458 350.317 264.622 350.44 264.759 350.495C264.896 350.55 265.224 350.604 265.745 350.659C266.265 350.714 267.114 350.741 268.292 350.741H269.36V352.631H268.908C268.333 352.549 266.156 352.508 262.376 352.508C258.651 352.508 256.501 352.549 255.926 352.631H255.433V350.741H256.501C257.104 350.741 257.624 350.741 258.062 350.741C258.5 350.741 258.843 350.728 259.089 350.7C259.336 350.673 259.555 350.632 259.747 350.577C259.938 350.522 260.048 350.495 260.075 350.495C260.103 350.495 260.185 350.426 260.322 350.289C260.459 350.153 260.541 350.098 260.568 350.125V328.885Z" fill="white"/>
</g>
<g id="Group_22">
<path id="Vector_21" d="M283.788 342.894C283.788 342.894 283.788 342.716 283.788 342.36C283.788 342.004 283.98 341.73 284.363 341.539H296.647V335.376L296.688 329.214C296.962 328.858 297.222 328.68 297.469 328.68C297.825 328.68 298.099 328.885 298.29 329.296V341.539H310.533C310.944 341.758 311.149 342.032 311.149 342.36C311.149 342.689 310.944 342.963 310.533 343.182H298.29V355.425C298.071 355.808 297.825 356 297.551 356H297.469H297.387C297.058 356 296.811 355.808 296.647 355.425V343.182H284.363C283.98 342.99 283.788 342.716 283.788 342.36V342.894Z" fill="white"/>
</g>
<g id="Group_23">
<path id="Vector_22" d="M331.331 328.885L330.796 329.091C330.413 329.227 329.865 329.364 329.153 329.501C328.441 329.638 327.647 329.734 326.77 329.789H325.99V327.899H326.77C328.058 327.844 329.249 327.639 330.345 327.283C331.44 326.927 332.207 326.598 332.645 326.297C333.083 325.996 333.467 325.694 333.796 325.393C333.85 325.311 334.015 325.27 334.289 325.27C334.535 325.27 334.768 325.352 334.987 325.516V337.8L335.028 350.125C335.22 350.317 335.384 350.44 335.521 350.495C335.658 350.55 335.987 350.604 336.507 350.659C337.027 350.714 337.876 350.741 339.054 350.741H340.122V352.631H339.67C339.095 352.549 336.918 352.508 333.138 352.508C329.413 352.508 327.263 352.549 326.688 352.631H326.195V350.741H327.263C327.866 350.741 328.386 350.741 328.824 350.741C329.263 350.741 329.605 350.728 329.852 350.7C330.098 350.673 330.317 350.632 330.509 350.577C330.701 350.522 330.81 350.495 330.838 350.495C330.865 350.495 330.947 350.426 331.084 350.289C331.221 350.152 331.303 350.098 331.331 350.125V328.885Z" fill="white"/>
</g>
<g id="Group_24">
<path id="Vector_23" d="M356.834 338.375C356.834 338.019 357.026 337.745 357.41 337.554H383.58C383.99 337.773 384.196 338.047 384.196 338.375C384.196 338.677 384.004 338.937 383.621 339.156L370.556 339.197H357.492C357.054 339.06 356.834 338.786 356.834 338.375ZM356.834 346.345C356.834 345.935 357.054 345.661 357.492 345.524H383.621C384.004 345.798 384.196 346.071 384.196 346.345C384.196 346.701 383.99 346.975 383.58 347.167H357.41C357.026 346.975 356.834 346.701 356.834 346.345Z" fill="white"/>
</g>
<g id="Group_25">
<path id="Vector_24" d="M400.785 335.499C400.785 335.499 400.785 334.445 400.785 332.336C400.785 330.227 401.524 328.529 403.003 327.242C404.482 325.954 406.18 325.297 408.097 325.27C410.042 325.27 411.767 325.845 413.274 326.995C414.78 328.146 415.533 329.638 415.533 331.473C415.533 332.295 415.383 333.062 415.081 333.774C414.78 334.486 414.424 335.061 414.013 335.499C413.602 335.938 413.178 336.321 412.74 336.65C412.301 336.978 411.945 337.225 411.672 337.389C411.398 337.554 411.247 337.663 411.22 337.718L411.795 338.088C412.178 338.361 412.562 338.635 412.945 338.909C413.329 339.183 413.548 339.334 413.602 339.361C415.657 340.977 416.684 343.018 416.684 345.483C416.684 347.646 415.889 349.522 414.301 351.111C412.712 352.699 410.658 353.507 408.138 353.535C405.673 353.535 403.647 352.836 402.058 351.44C400.47 350.043 399.675 348.317 399.675 346.263C399.675 343.305 401.442 340.84 404.975 338.868L404.236 338.334C403.66 337.978 403.291 337.704 403.126 337.512C401.565 336.17 400.785 334.445 400.785 332.336V335.499ZM409.658 336.773L409.905 336.609C410.069 336.499 410.193 336.417 410.275 336.362C410.357 336.307 410.494 336.211 410.686 336.075C410.877 335.938 411.042 335.801 411.179 335.664C411.315 335.527 411.466 335.362 411.63 335.171C411.795 334.979 411.945 334.801 412.082 334.637C412.219 334.472 412.356 334.253 412.493 333.979C412.63 333.705 412.753 333.473 412.863 333.281C412.972 333.089 413.041 332.815 413.068 332.459C413.096 332.103 413.123 331.802 413.151 331.555C413.151 330.378 412.753 329.378 411.959 328.556C411.165 327.735 410.247 327.214 409.207 326.995C409.015 326.968 408.563 326.954 407.851 326.954C406.728 326.954 405.673 327.31 404.687 328.022C403.701 328.734 403.195 329.624 403.167 330.693C403.167 331.323 403.345 331.898 403.701 332.418C404.057 332.939 404.414 333.336 404.77 333.61C405.126 333.883 405.81 334.322 406.824 334.924C407.015 335.061 407.166 335.157 407.276 335.212L409.658 336.773ZM408.179 351.768C409.768 351.768 411.137 351.303 412.288 350.371C413.438 349.44 414.013 348.317 414.013 347.003C414.013 346.537 413.945 346.099 413.808 345.688C413.671 345.277 413.507 344.935 413.315 344.661C413.123 344.387 412.822 344.086 412.411 343.757C412 343.428 411.685 343.182 411.466 343.018C411.247 342.853 410.85 342.593 410.275 342.237C409.7 341.881 409.33 341.648 409.165 341.539C408.782 341.292 408.371 341.032 407.933 340.758C407.495 340.484 407.139 340.251 406.865 340.06L406.536 339.854C406.372 339.854 405.975 340.087 405.345 340.553C404.715 341.018 404.057 341.771 403.373 342.812C402.688 343.853 402.332 344.976 402.305 346.181C402.305 347.797 402.893 349.125 404.071 350.166C405.249 351.207 406.618 351.741 408.179 351.768Z" fill="white"/>
<path id="Vector_25" d="M422.928 335.007C422.189 335.007 421.6 334.76 421.162 334.267C420.724 333.774 420.504 333.172 420.504 332.459C420.504 330.515 421.23 328.83 422.682 327.406C424.133 325.982 425.941 325.27 428.105 325.27C430.597 325.27 432.679 326.037 434.349 327.571C436.02 329.104 436.869 331.09 436.897 333.528C436.897 334.705 436.623 335.828 436.075 336.896C435.527 337.965 434.87 338.896 434.103 339.69C433.336 340.484 432.24 341.498 430.816 342.73C429.83 343.579 428.461 344.839 426.708 346.51L424.284 348.811L427.406 348.852C431.706 348.852 433.993 348.783 434.267 348.646C434.459 348.591 434.788 347.373 435.253 344.99V344.867H436.897V344.99C436.869 345.072 436.691 346.318 436.362 348.728C436.034 351.139 435.828 352.398 435.746 352.508V352.631H420.504V351.851V351.358C420.504 351.166 420.587 350.961 420.751 350.741C420.915 350.522 421.326 350.043 421.983 349.304C422.778 348.427 423.462 347.66 424.038 347.003C424.284 346.729 424.75 346.222 425.434 345.483C426.119 344.743 426.585 344.237 426.831 343.963C427.078 343.689 427.475 343.237 428.023 342.607C428.57 341.977 428.954 341.511 429.173 341.21C429.392 340.909 429.707 340.498 430.118 339.978C430.529 339.457 430.816 339.019 430.981 338.663C431.145 338.307 431.35 337.91 431.597 337.472C431.843 337.033 432.021 336.595 432.131 336.157C432.24 335.719 432.336 335.308 432.418 334.924C432.501 334.541 432.542 334.089 432.542 333.569C432.542 331.843 432.076 330.351 431.145 329.091C430.214 327.831 428.885 327.201 427.16 327.201C426.256 327.201 425.462 327.434 424.777 327.899C424.092 328.365 423.613 328.817 423.339 329.255C423.065 329.693 422.928 329.953 422.928 330.036C422.928 330.063 422.997 330.077 423.134 330.077C423.627 330.077 424.133 330.268 424.654 330.652C425.174 331.035 425.434 331.665 425.434 332.542C425.434 333.226 425.215 333.802 424.777 334.267C424.339 334.733 423.723 334.979 422.928 335.007Z" fill="white"/>
</g>
</g>
<path id="Line 7 (Stroke)" fill-rule="evenodd" clip-rule="evenodd" d="M484 242V421.07H479V242H484Z" fill="#CD08D1"/>
<g id="Group 54">
<g id="Group 51">
<g id="Group_26">
<path id="Vector_26" d="M574.527 251.166C574.527 250.865 574.747 250.714 575.185 250.714C575.322 250.714 575.431 250.714 575.513 250.714C575.596 250.714 575.664 250.714 575.719 250.714C575.774 250.714 575.828 250.728 575.883 250.755C575.938 250.782 575.965 250.796 575.965 250.796C575.965 250.796 575.993 250.837 576.048 250.919C576.102 251.001 576.13 251.043 576.13 251.043C576.13 251.043 576.171 251.111 576.253 251.248C577.266 253.275 578.608 255.069 580.279 256.63C581.95 258.191 583.47 259.3 584.839 259.958C586.209 260.615 587.523 261.122 588.783 261.478C589.249 261.615 589.482 261.793 589.482 262.012C589.482 262.231 589.358 262.381 589.112 262.464C588.865 262.546 588.359 262.696 587.592 262.916C586.825 263.135 586.031 263.463 585.209 263.902C581.265 265.819 578.28 268.777 576.253 272.775C576.143 273.022 576.048 273.159 575.965 273.186C575.883 273.214 575.678 273.241 575.349 273.268C574.801 273.268 574.527 273.173 574.527 272.981C574.527 272.871 574.596 272.638 574.733 272.282C575.692 270.393 576.869 268.708 578.266 267.229L578.677 266.818H553.575C553.192 266.627 553 266.353 553 265.997C553 265.586 553.219 265.312 553.657 265.175H580.485L580.895 264.846C581.964 264.025 583.566 263.08 585.702 262.012C585.675 261.984 585.428 261.861 584.963 261.642C584.497 261.423 583.881 261.094 583.114 260.656C582.347 260.218 581.607 259.725 580.895 259.177L580.485 258.848H553.657C553.219 258.711 553 258.437 553 258.027C553 257.671 553.192 257.397 553.575 257.205H578.677L578.266 256.794C577.362 255.836 576.513 254.726 575.719 253.466C574.925 252.207 574.527 251.44 574.527 251.166Z" fill="white"/>
</g>
<g id="Group_27">
<g id="Group_28">
<path id="Vector_27" d="M619.083 254.658C618.343 254.658 617.754 254.411 617.316 253.918C616.878 253.425 616.659 252.823 616.659 252.11C616.659 250.166 617.384 248.481 618.836 247.057C620.288 245.633 622.095 244.921 624.259 244.921C626.751 244.921 628.833 245.688 630.504 247.222C632.174 248.755 633.023 250.741 633.051 253.179C633.051 254.356 632.777 255.479 632.229 256.547C631.681 257.616 631.024 258.547 630.257 259.341C629.49 260.135 628.395 261.149 626.971 262.381C625.985 263.23 624.615 264.49 622.862 266.161L620.438 268.462L623.561 268.503C627.861 268.503 630.148 268.434 630.421 268.297C630.613 268.242 630.942 267.024 631.407 264.641V264.518H633.051V264.641C633.023 264.723 632.845 265.969 632.517 268.379C632.188 270.79 631.983 272.049 631.9 272.159V272.282H616.659V271.502V271.009C616.659 270.817 616.741 270.612 616.905 270.392C617.07 270.173 617.48 269.694 618.138 268.955C618.932 268.078 619.617 267.311 620.192 266.654C620.438 266.38 620.904 265.873 621.589 265.134C622.273 264.394 622.739 263.888 622.985 263.614C623.232 263.34 623.629 262.888 624.177 262.258C624.725 261.628 625.108 261.162 625.327 260.861C625.546 260.56 625.861 260.149 626.272 259.629C626.683 259.108 626.971 258.67 627.135 258.314C627.299 257.958 627.505 257.561 627.751 257.123C627.998 256.684 628.176 256.246 628.285 255.808C628.395 255.37 628.491 254.959 628.573 254.575C628.655 254.192 628.696 253.74 628.696 253.22C628.696 251.494 628.23 250.002 627.299 248.742C626.368 247.482 625.04 246.852 623.314 246.852C622.41 246.852 621.616 247.085 620.931 247.55C620.247 248.016 619.767 248.468 619.493 248.906C619.22 249.344 619.083 249.604 619.083 249.687C619.083 249.714 619.151 249.728 619.288 249.728C619.781 249.728 620.288 249.919 620.808 250.303C621.328 250.686 621.589 251.316 621.589 252.193C621.589 252.877 621.37 253.453 620.931 253.918C620.493 254.384 619.877 254.63 619.083 254.658Z" fill="white"/>
</g>
<g id="Group_29">
<path id="Vector_28" d="M636.656 246.921C636.791 246.108 637.314 245.168 638.224 244.103C639.134 243.038 640.258 242.496 641.594 242.477C642.271 242.477 642.891 242.651 643.453 243C644.014 243.348 644.43 243.784 644.702 244.307C645.515 243.087 646.493 242.477 647.635 242.477C648.352 242.477 648.971 242.69 649.494 243.116C650.017 243.542 650.288 244.113 650.307 244.83C650.307 245.391 650.172 245.846 649.901 246.195C649.63 246.543 649.368 246.756 649.116 246.834C648.865 246.911 648.642 246.95 648.448 246.95C648.081 246.95 647.78 246.843 647.548 246.63C647.316 246.417 647.199 246.137 647.199 245.788C647.199 244.897 647.684 244.287 648.652 243.958C648.439 243.706 648.051 243.581 647.49 243.581C647.238 243.581 647.054 243.6 646.938 243.639C646.202 243.948 645.66 244.587 645.311 245.556C644.15 249.835 643.569 252.333 643.569 253.049C643.569 253.592 643.724 253.979 644.033 254.211C644.343 254.444 644.682 254.56 645.05 254.56C645.767 254.56 646.473 254.24 647.17 253.601C647.868 252.962 648.342 252.178 648.594 251.249C648.652 251.055 648.71 250.948 648.768 250.929C648.826 250.91 648.981 250.89 649.233 250.871H649.349C649.639 250.871 649.785 250.948 649.785 251.103C649.785 251.123 649.765 251.229 649.726 251.423C649.417 252.527 648.816 253.505 647.926 254.357C647.035 255.209 645.999 255.635 644.818 255.635C643.462 255.635 642.436 255.025 641.739 253.805C640.945 255.005 640.035 255.605 639.009 255.605H638.834C637.885 255.605 637.208 255.354 636.801 254.85C636.394 254.347 636.181 253.814 636.162 253.253C636.162 252.633 636.346 252.13 636.714 251.742C637.082 251.355 637.518 251.161 638.021 251.161C638.854 251.161 639.27 251.568 639.27 252.381C639.27 252.769 639.154 253.108 638.921 253.398C638.689 253.688 638.466 253.882 638.253 253.979C638.04 254.076 637.915 254.124 637.876 254.124L637.789 254.153C637.789 254.173 637.847 254.211 637.963 254.269C638.079 254.327 638.234 254.395 638.428 254.473C638.621 254.55 638.805 254.579 638.98 254.56C639.677 254.56 640.277 254.124 640.78 253.253C640.955 252.943 641.177 252.285 641.448 251.278C641.72 250.271 641.991 249.225 642.262 248.141C642.533 247.056 642.688 246.417 642.726 246.224C642.823 245.701 642.872 245.323 642.872 245.091C642.872 244.549 642.726 244.161 642.436 243.929C642.146 243.697 641.816 243.581 641.448 243.581C640.674 243.581 639.948 243.89 639.27 244.51C638.592 245.13 638.118 245.924 637.847 246.892C637.808 247.066 637.76 247.163 637.702 247.182C637.643 247.202 637.489 247.221 637.237 247.24H636.83C636.714 247.124 636.656 247.018 636.656 246.921Z" fill="white"/>
</g>
</g>
<g id="Group_30">
<path id="Vector_29" d="M665.247 262.546C665.247 262.546 665.247 262.368 665.247 262.011C665.247 261.655 665.439 261.382 665.822 261.19H678.106V255.027L678.147 248.865C678.421 248.509 678.681 248.331 678.928 248.331C679.284 248.331 679.558 248.536 679.749 248.947V261.19H691.992C692.403 261.409 692.608 261.683 692.608 262.011C692.608 262.34 692.403 262.614 691.992 262.833H679.749V275.076C679.53 275.459 679.284 275.651 679.01 275.651H678.928H678.846C678.517 275.651 678.27 275.459 678.106 275.076V262.833H665.822C665.439 262.641 665.247 262.368 665.247 262.011V262.546Z" fill="white"/>
</g>
<g id="Group_31">
<path id="Vector_30" d="M706.915 255.15C706.915 255.15 706.915 254.096 706.915 251.987C706.915 249.878 707.654 248.18 709.133 246.893C710.612 245.606 712.31 244.948 714.228 244.921C716.172 244.921 717.898 245.496 719.404 246.646C720.911 247.797 721.664 249.289 721.664 251.124C721.664 251.946 721.513 252.713 721.212 253.425C720.911 254.137 720.554 254.712 720.144 255.15C719.733 255.589 719.308 255.972 718.87 256.301C718.432 256.629 718.076 256.876 717.802 257.04C717.528 257.205 717.377 257.314 717.35 257.369L717.925 257.739C718.309 258.013 718.692 258.286 719.075 258.56C719.459 258.834 719.678 258.985 719.733 259.012C721.787 260.628 722.814 262.669 722.814 265.134C722.814 267.297 722.02 269.173 720.431 270.762C718.843 272.351 716.789 273.159 714.269 273.186C711.804 273.186 709.777 272.488 708.188 271.091C706.6 269.694 705.806 267.968 705.806 265.914C705.806 262.956 707.572 260.491 711.105 258.519L710.366 257.985C709.791 257.629 709.421 257.355 709.257 257.164C707.695 255.822 706.915 254.096 706.915 251.987V255.15ZM715.789 256.424L716.035 256.26C716.2 256.15 716.323 256.068 716.405 256.013C716.487 255.958 716.624 255.863 716.816 255.726C717.008 255.589 717.172 255.452 717.309 255.315C717.446 255.178 717.596 255.014 717.761 254.822C717.925 254.63 718.076 254.452 718.213 254.288C718.35 254.123 718.487 253.904 718.624 253.63C718.761 253.357 718.884 253.124 718.993 252.932C719.103 252.74 719.171 252.466 719.199 252.11C719.226 251.754 719.253 251.453 719.281 251.207C719.281 250.029 718.884 249.029 718.089 248.207C717.295 247.386 716.378 246.865 715.337 246.646C715.145 246.619 714.693 246.605 713.981 246.605C712.858 246.605 711.804 246.961 710.818 247.673C709.832 248.385 709.325 249.276 709.298 250.344C709.298 250.974 709.476 251.549 709.832 252.069C710.188 252.59 710.544 252.987 710.9 253.261C711.256 253.535 711.941 253.973 712.954 254.575C713.146 254.712 713.296 254.808 713.406 254.863L715.789 256.424ZM714.31 271.419C715.898 271.419 717.268 270.954 718.418 270.023C719.568 269.091 720.144 267.968 720.144 266.654C720.144 266.188 720.075 265.75 719.938 265.339C719.801 264.928 719.637 264.586 719.445 264.312C719.253 264.038 718.952 263.737 718.541 263.408C718.131 263.079 717.816 262.833 717.596 262.669C717.377 262.504 716.98 262.244 716.405 261.888C715.83 261.532 715.46 261.299 715.296 261.19C714.912 260.943 714.502 260.683 714.063 260.409C713.625 260.135 713.269 259.902 712.995 259.711L712.667 259.505C712.502 259.505 712.105 259.738 711.475 260.204C710.845 260.669 710.188 261.422 709.503 262.463C708.818 263.504 708.462 264.627 708.435 265.832C708.435 267.448 709.024 268.776 710.202 269.817C711.379 270.858 712.749 271.392 714.31 271.419Z" fill="white"/>
</g>
<g id="Group_32">
<path id="Vector_31" d="M738.294 258.026C738.294 257.67 738.486 257.396 738.869 257.205H765.039C765.45 257.424 765.655 257.698 765.655 258.026C765.655 258.328 765.463 258.588 765.08 258.807L752.016 258.848H738.951C738.513 258.711 738.294 258.437 738.294 258.026ZM738.294 265.996C738.294 265.586 738.513 265.312 738.951 265.175H765.08C765.463 265.449 765.655 265.723 765.655 265.996C765.655 266.353 765.45 266.626 765.039 266.818H738.869C738.486 266.626 738.294 266.353 738.294 265.996Z" fill="white"/>
</g>
<g id="Group_33">
<path id="Vector_32" d="M798.347 272.282C797.854 272.2 796.088 272.159 793.047 272.159C789.87 272.159 788.035 272.2 787.542 272.282H787.173V270.393H788.446C788.994 270.393 789.364 270.393 789.555 270.393C789.747 270.393 789.98 270.365 790.254 270.31C790.528 270.256 790.719 270.187 790.829 270.105C790.938 270.023 791.034 269.913 791.117 269.776C791.144 269.722 791.158 268.982 791.158 267.558V265.504H780.517V263.614L786.721 254.124C790.911 247.769 793.034 244.579 793.088 244.551C793.143 244.497 793.431 244.469 793.951 244.469H794.691L794.937 244.716V263.614H798.717V265.504H794.937V267.599C794.937 268.722 794.937 269.379 794.937 269.571C794.937 269.763 795.019 269.927 795.184 270.064C795.403 270.256 796.183 270.365 797.525 270.393H798.717V272.282H798.347ZM791.404 263.614V249.892L782.407 263.573L786.885 263.614H791.404Z" fill="white"/>
<path id="Vector_33" d="M803.854 248.249C805.388 246.03 807.483 244.921 810.14 244.921C811.454 244.921 812.769 245.277 814.084 245.989C815.398 246.701 816.466 247.961 817.288 249.769C818.301 252.042 818.808 255.164 818.808 259.136C818.808 263.381 818.219 266.626 817.042 268.872C816.494 270.023 815.741 270.94 814.782 271.625C813.823 272.309 812.988 272.734 812.276 272.898C811.564 273.063 810.865 273.159 810.181 273.186C809.469 273.186 808.757 273.104 808.044 272.939C807.332 272.775 806.497 272.337 805.538 271.625C804.58 270.913 803.827 269.995 803.279 268.872C802.101 266.626 801.512 263.381 801.512 259.136C801.512 254.37 802.293 250.741 803.854 248.249ZM813.098 247.756C812.276 246.879 811.304 246.441 810.181 246.441C809.03 246.441 808.044 246.879 807.223 247.756C806.538 248.468 806.086 249.454 805.867 250.714C805.648 251.973 805.538 254.603 805.538 258.601C805.538 262.929 805.648 265.777 805.867 267.147C806.086 268.516 806.579 269.598 807.346 270.392C808.113 271.214 809.058 271.625 810.181 271.625C811.276 271.625 812.207 271.214 812.974 270.392C813.769 269.571 814.262 268.42 814.453 266.941C814.645 265.462 814.755 262.682 814.782 258.601C814.782 254.63 814.672 252.014 814.453 250.755C814.234 249.495 813.782 248.495 813.098 247.756Z" fill="white"/>
</g>
</g>
<g id="Group 50">
<g id="Group_34">
<g id="Group_35">
<path id="Vector_34" d="M610.556 302.309C609.816 302.309 609.227 302.063 608.789 301.57C608.351 301.077 608.132 300.474 608.132 299.762C608.132 297.818 608.858 296.133 610.309 294.709C611.761 293.285 613.568 292.573 615.732 292.573C618.225 292.573 620.306 293.34 621.977 294.873C623.648 296.407 624.497 298.393 624.524 300.83C624.524 302.008 624.25 303.131 623.702 304.199C623.155 305.267 622.497 306.199 621.73 306.993C620.963 307.787 619.868 308.8 618.444 310.033C617.458 310.882 616.088 312.142 614.335 313.813L611.911 316.113L615.034 316.154C619.334 316.154 621.621 316.086 621.895 315.949C622.086 315.894 622.415 314.675 622.881 312.293V312.169H624.524V312.293C624.497 312.375 624.319 313.621 623.99 316.031C623.661 318.441 623.456 319.701 623.374 319.811V319.934H608.132V319.153V318.66C608.132 318.469 608.214 318.263 608.378 318.044C608.543 317.825 608.953 317.346 609.611 316.606C610.405 315.73 611.09 314.963 611.665 314.306C611.911 314.032 612.377 313.525 613.062 312.786C613.747 312.046 614.212 311.539 614.459 311.265C614.705 310.992 615.102 310.54 615.65 309.91C616.198 309.28 616.581 308.814 616.8 308.513C617.019 308.212 617.334 307.801 617.745 307.28C618.156 306.76 618.444 306.322 618.608 305.966C618.772 305.61 618.978 305.213 619.224 304.774C619.471 304.336 619.649 303.898 619.758 303.46C619.868 303.021 619.964 302.611 620.046 302.227C620.128 301.844 620.169 301.392 620.169 300.871C620.169 299.146 619.704 297.653 618.772 296.393C617.841 295.134 616.513 294.504 614.787 294.504C613.883 294.504 613.089 294.736 612.404 295.202C611.72 295.668 611.24 296.12 610.967 296.558C610.693 296.996 610.556 297.256 610.556 297.338C610.556 297.366 610.624 297.379 610.761 297.379C611.254 297.379 611.761 297.571 612.281 297.955C612.802 298.338 613.062 298.968 613.062 299.844C613.062 300.529 612.843 301.104 612.404 301.57C611.966 302.035 611.35 302.282 610.556 302.309Z" fill="white"/>
</g>
<g id="Group_36">
<path id="Vector_35" d="M628.131 294.573C628.267 293.759 628.789 292.82 629.699 291.755C630.61 290.69 631.733 290.148 633.069 290.129C633.746 290.129 634.366 290.303 634.928 290.651C635.489 291 635.906 291.436 636.177 291.958C636.99 290.739 637.968 290.129 639.11 290.129C639.827 290.129 640.446 290.342 640.969 290.768C641.492 291.194 641.763 291.765 641.782 292.481C641.782 293.043 641.647 293.498 641.376 293.846C641.105 294.195 640.843 294.408 640.592 294.485C640.34 294.563 640.117 294.602 639.924 294.602C639.556 294.602 639.255 294.495 639.023 294.282C638.791 294.069 638.675 293.788 638.675 293.44C638.675 292.549 639.159 291.939 640.127 291.61C639.914 291.358 639.527 291.232 638.965 291.232C638.713 291.232 638.529 291.252 638.413 291.29C637.677 291.6 637.135 292.239 636.787 293.207C635.625 297.487 635.044 299.985 635.044 300.701C635.044 301.243 635.199 301.631 635.509 301.863C635.818 302.095 636.157 302.212 636.525 302.212C637.242 302.212 637.948 301.892 638.646 301.253C639.343 300.614 639.817 299.83 640.069 298.9C640.127 298.707 640.185 298.6 640.243 298.581C640.301 298.561 640.456 298.542 640.708 298.523H640.824C641.114 298.523 641.26 298.6 641.26 298.755C641.26 298.774 641.24 298.881 641.202 299.075C640.892 300.178 640.291 301.156 639.401 302.008C638.51 302.86 637.474 303.286 636.293 303.286C634.937 303.286 633.911 302.676 633.214 301.456C632.42 302.657 631.51 303.257 630.484 303.257H630.309C629.361 303.257 628.683 303.005 628.276 302.502C627.87 301.999 627.657 301.466 627.637 300.905C627.637 300.285 627.821 299.781 628.189 299.394C628.557 299.007 628.993 298.813 629.496 298.813C630.329 298.813 630.745 299.22 630.745 300.033C630.745 300.42 630.629 300.759 630.397 301.05C630.164 301.34 629.941 301.534 629.728 301.631C629.515 301.727 629.39 301.776 629.351 301.776L629.264 301.805C629.264 301.824 629.322 301.863 629.438 301.921C629.554 301.979 629.709 302.047 629.903 302.124C630.096 302.202 630.28 302.231 630.455 302.212C631.152 302.212 631.752 301.776 632.255 300.905C632.43 300.595 632.652 299.936 632.924 298.929C633.195 297.922 633.466 296.877 633.737 295.792C634.008 294.708 634.163 294.069 634.202 293.875C634.298 293.353 634.347 292.975 634.347 292.743C634.347 292.2 634.202 291.813 633.911 291.581C633.621 291.348 633.291 291.232 632.924 291.232C632.149 291.232 631.423 291.542 630.745 292.162C630.067 292.781 629.593 293.575 629.322 294.544C629.283 294.718 629.235 294.815 629.177 294.834C629.119 294.853 628.964 294.873 628.712 294.892H628.305C628.189 294.776 628.131 294.669 628.131 294.573Z" fill="white"/>
</g>
</g>
<g id="Group_37">
<path id="Vector_36" d="M659 305.678C659 305.322 659.192 305.048 659.576 304.856H685.746C686.156 305.075 686.362 305.349 686.362 305.678C686.362 305.979 686.17 306.239 685.787 306.459L672.722 306.5H659.658C659.22 306.363 659 306.089 659 305.678ZM659 313.648C659 313.237 659.22 312.963 659.658 312.826H685.787C686.17 313.1 686.362 313.374 686.362 313.648C686.362 314.004 686.156 314.278 685.746 314.47H659.576C659.192 314.278 659 314.004 659 313.648Z" fill="white"/>
</g>
<g id="Group_38">
<path id="Vector_37" d="M719.054 319.934C718.561 319.852 716.794 319.811 713.754 319.811C710.577 319.811 708.742 319.852 708.249 319.934H707.879V318.044H709.153C709.7 318.044 710.07 318.044 710.262 318.044C710.454 318.044 710.686 318.017 710.96 317.962C711.234 317.907 711.426 317.839 711.535 317.757C711.645 317.674 711.741 317.565 711.823 317.428C711.85 317.373 711.864 316.634 711.864 315.209V313.155H701.224V311.265L707.427 301.775C711.618 295.421 713.74 292.23 713.795 292.203C713.85 292.148 714.137 292.121 714.658 292.121H715.397L715.644 292.367V311.265H719.423V313.155H715.644V315.25C715.644 316.373 715.644 317.031 715.644 317.222C715.644 317.414 715.726 317.579 715.89 317.715C716.109 317.907 716.89 318.017 718.232 318.044H719.423V319.934H719.054ZM712.111 311.265V297.544L703.113 311.224L707.591 311.265H712.111Z" fill="white"/>
<path id="Vector_38" d="M724.56 295.9C726.094 293.682 728.189 292.572 730.846 292.572C732.161 292.572 733.475 292.928 734.79 293.641C736.105 294.353 737.173 295.613 737.995 297.42C739.008 299.693 739.515 302.816 739.515 306.787C739.515 311.032 738.926 314.278 737.748 316.524C737.2 317.674 736.447 318.592 735.489 319.276C734.53 319.961 733.695 320.386 732.982 320.55C732.27 320.714 731.572 320.81 730.887 320.838C730.175 320.838 729.463 320.755 728.751 320.591C728.039 320.427 727.203 319.988 726.245 319.276C725.286 318.564 724.533 317.647 723.985 316.524C722.808 314.278 722.219 311.032 722.219 306.787C722.219 302.022 722.999 298.393 724.56 295.9ZM733.804 295.407C732.982 294.531 732.01 294.092 730.887 294.092C729.737 294.092 728.751 294.531 727.929 295.407C727.245 296.119 726.793 297.105 726.574 298.365C726.354 299.625 726.245 302.254 726.245 306.253C726.245 310.58 726.354 313.429 726.574 314.798C726.793 316.168 727.286 317.25 728.053 318.044C728.819 318.866 729.764 319.276 730.887 319.276C731.983 319.276 732.914 318.866 733.681 318.044C734.475 317.222 734.968 316.072 735.16 314.593C735.352 313.114 735.461 310.334 735.489 306.253C735.489 302.282 735.379 299.666 735.16 298.406C734.941 297.146 734.489 296.147 733.804 295.407Z" fill="white"/>
</g>
<g id="Group_39">
<path id="Vector_39" d="M753.737 310.197C753.737 310.197 753.737 310.019 753.737 309.663C753.737 309.307 753.929 309.033 754.312 308.841H778.182C778.593 309.06 778.798 309.334 778.798 309.663C778.798 309.992 778.593 310.266 778.182 310.485H754.312C753.929 310.293 753.737 310.019 753.737 309.663V310.197Z" fill="white"/>
</g>
<g id="Group_40">
<path id="Vector_40" d="M794.259 302.802C794.259 302.802 794.259 301.748 794.259 299.639C794.259 297.53 794.998 295.832 796.477 294.544C797.956 293.257 799.654 292.6 801.571 292.572C803.516 292.572 805.242 293.148 806.748 294.298C808.254 295.448 809.007 296.941 809.007 298.776C809.007 299.598 808.857 300.364 808.556 301.077C808.254 301.789 807.898 302.364 807.487 302.802C807.077 303.24 806.652 303.624 806.214 303.952C805.776 304.281 805.42 304.528 805.146 304.692C804.872 304.856 804.721 304.966 804.694 305.021L805.269 305.39C805.652 305.664 806.036 305.938 806.419 306.212C806.803 306.486 807.022 306.637 807.077 306.664C809.131 308.28 810.158 310.32 810.158 312.785C810.158 314.949 809.364 316.825 807.775 318.414C806.186 320.002 804.132 320.81 801.613 320.838C799.148 320.838 797.121 320.139 795.532 318.742C793.944 317.345 793.149 315.62 793.149 313.566C793.149 310.608 794.916 308.143 798.449 306.171L797.71 305.637C797.134 305.281 796.765 305.007 796.6 304.815C795.039 303.473 794.259 301.748 794.259 299.639V302.802ZM803.133 304.076L803.379 303.911C803.543 303.802 803.667 303.72 803.749 303.665C803.831 303.61 803.968 303.514 804.16 303.377C804.351 303.24 804.516 303.103 804.653 302.966C804.79 302.829 804.94 302.665 805.105 302.473C805.269 302.282 805.42 302.104 805.556 301.939C805.693 301.775 805.83 301.556 805.967 301.282C806.104 301.008 806.227 300.775 806.337 300.584C806.447 300.392 806.515 300.118 806.542 299.762C806.57 299.406 806.597 299.105 806.625 298.858C806.625 297.68 806.227 296.681 805.433 295.859C804.639 295.037 803.721 294.517 802.681 294.298C802.489 294.271 802.037 294.257 801.325 294.257C800.202 294.257 799.148 294.613 798.162 295.325C797.176 296.037 796.669 296.927 796.641 297.995C796.641 298.625 796.819 299.2 797.176 299.721C797.532 300.241 797.888 300.638 798.244 300.912C798.6 301.186 799.284 301.624 800.298 302.227C800.49 302.364 800.64 302.46 800.75 302.515L803.133 304.076ZM801.654 319.071C803.242 319.071 804.612 318.605 805.762 317.674C806.912 316.743 807.487 315.62 807.487 314.305C807.487 313.84 807.419 313.402 807.282 312.991C807.145 312.58 806.981 312.237 806.789 311.964C806.597 311.69 806.296 311.388 805.885 311.06C805.474 310.731 805.159 310.485 804.94 310.32C804.721 310.156 804.324 309.896 803.749 309.54C803.174 309.184 802.804 308.951 802.64 308.841C802.256 308.595 801.845 308.335 801.407 308.061C800.969 307.787 800.613 307.554 800.339 307.362L800.01 307.157C799.846 307.157 799.449 307.39 798.819 307.855C798.189 308.321 797.532 309.074 796.847 310.115C796.162 311.156 795.806 312.279 795.779 313.484C795.779 315.1 796.368 316.428 797.545 317.469C798.723 318.509 800.092 319.044 801.654 319.071Z" fill="white"/>
</g>
</g>
<g id="Group 49">
<g id="Group_41">
<g id="Group_42">
<path id="Vector_41" d="M609.556 351.31C608.816 351.31 608.227 351.063 607.789 350.57C607.351 350.077 607.132 349.475 607.132 348.762C607.132 346.818 607.858 345.133 609.309 343.709C610.761 342.285 612.568 341.573 614.732 341.573C617.225 341.573 619.306 342.34 620.977 343.874C622.648 345.407 623.497 347.393 623.524 349.831C623.524 351.008 623.25 352.131 622.702 353.199C622.155 354.268 621.497 355.199 620.73 355.993C619.963 356.787 618.868 357.801 617.444 359.033C616.458 359.882 615.088 361.142 613.335 362.813L610.911 365.113L614.034 365.155C618.334 365.155 620.621 365.086 620.895 364.949C621.086 364.894 621.415 363.676 621.881 361.293V361.17H623.524V361.293C623.497 361.375 623.319 362.621 622.99 365.031C622.661 367.442 622.456 368.701 622.374 368.811V368.934H607.132V368.154V367.661C607.132 367.469 607.214 367.263 607.378 367.044C607.543 366.825 607.953 366.346 608.611 365.606C609.405 364.73 610.09 363.963 610.665 363.306C610.911 363.032 611.377 362.525 612.062 361.786C612.747 361.046 613.212 360.54 613.459 360.266C613.705 359.992 614.102 359.54 614.65 358.91C615.198 358.28 615.581 357.814 615.8 357.513C616.019 357.212 616.334 356.801 616.745 356.281C617.156 355.76 617.444 355.322 617.608 354.966C617.772 354.61 617.978 354.213 618.224 353.775C618.471 353.336 618.649 352.898 618.758 352.46C618.868 352.022 618.964 351.611 619.046 351.227C619.128 350.844 619.169 350.392 619.169 349.872C619.169 348.146 618.704 346.654 617.772 345.394C616.841 344.134 615.513 343.504 613.787 343.504C612.883 343.504 612.089 343.737 611.404 344.202C610.72 344.668 610.24 345.12 609.967 345.558C609.693 345.996 609.556 346.256 609.556 346.339C609.556 346.366 609.624 346.38 609.761 346.38C610.254 346.38 610.761 346.571 611.281 346.955C611.802 347.338 612.062 347.968 612.062 348.845C612.062 349.529 611.843 350.105 611.404 350.57C610.966 351.036 610.35 351.282 609.556 351.31Z" fill="white"/>
</g>
<g id="Group_43">
<path id="Vector_42" d="M627.131 343.573C627.267 342.76 627.789 341.82 628.699 340.755C629.61 339.69 630.733 339.148 632.069 339.129C632.746 339.129 633.366 339.303 633.928 339.652C634.489 340 634.906 340.436 635.177 340.959C635.99 339.739 636.968 339.129 638.11 339.129C638.827 339.129 639.446 339.342 639.969 339.768C640.492 340.194 640.763 340.765 640.782 341.482C640.782 342.043 640.647 342.498 640.376 342.847C640.105 343.195 639.843 343.408 639.592 343.486C639.34 343.563 639.117 343.602 638.924 343.602C638.556 343.602 638.255 343.495 638.023 343.282C637.791 343.069 637.675 342.789 637.675 342.44C637.675 341.549 638.159 340.939 639.127 340.61C638.914 340.358 638.527 340.233 637.965 340.233C637.713 340.233 637.529 340.252 637.413 340.291C636.677 340.6 636.135 341.239 635.787 342.208C634.625 346.487 634.044 348.985 634.044 349.701C634.044 350.244 634.199 350.631 634.509 350.863C634.818 351.096 635.157 351.212 635.525 351.212C636.242 351.212 636.948 350.892 637.646 350.253C638.343 349.614 638.817 348.83 639.069 347.901C639.127 347.707 639.185 347.6 639.243 347.581C639.301 347.562 639.456 347.542 639.708 347.523H639.824C640.114 347.523 640.26 347.6 640.26 347.755C640.26 347.775 640.24 347.881 640.202 348.075C639.892 349.179 639.291 350.156 638.401 351.008C637.51 351.86 636.474 352.286 635.293 352.286C633.937 352.286 632.911 351.677 632.214 350.457C631.42 351.657 630.51 352.257 629.484 352.257H629.309C628.361 352.257 627.683 352.006 627.276 351.502C626.87 350.999 626.657 350.466 626.637 349.905C626.637 349.285 626.821 348.782 627.189 348.394C627.557 348.007 627.993 347.813 628.496 347.813C629.329 347.813 629.745 348.22 629.745 349.033C629.745 349.421 629.629 349.76 629.397 350.05C629.164 350.34 628.941 350.534 628.728 350.631C628.515 350.728 628.39 350.776 628.351 350.776L628.264 350.805C628.264 350.825 628.322 350.863 628.438 350.921C628.554 350.979 628.709 351.047 628.903 351.125C629.096 351.202 629.28 351.231 629.455 351.212C630.152 351.212 630.752 350.776 631.255 349.905C631.43 349.595 631.652 348.937 631.924 347.93C632.195 346.923 632.466 345.877 632.737 344.793C633.008 343.708 633.163 343.069 633.202 342.876C633.298 342.353 633.347 341.975 633.347 341.743C633.347 341.201 633.202 340.813 632.911 340.581C632.621 340.349 632.291 340.233 631.924 340.233C631.149 340.233 630.423 340.542 629.745 341.162C629.067 341.782 628.593 342.576 628.322 343.544C628.283 343.718 628.235 343.815 628.177 343.834C628.119 343.854 627.964 343.873 627.712 343.892H627.305C627.189 343.776 627.131 343.67 627.131 343.573Z" fill="white"/>
</g>
</g>
<g id="Group_44">
<path id="Vector_43" d="M658 354.678C658 354.322 658.192 354.048 658.575 353.857H684.745C685.156 354.076 685.361 354.35 685.361 354.678C685.361 354.979 685.17 355.24 684.786 355.459L671.722 355.5H658.657C658.219 355.363 658 355.089 658 354.678ZM658 362.648C658 362.237 658.219 361.964 658.657 361.827H684.786C685.17 362.101 685.361 362.374 685.361 362.648C685.361 363.004 685.156 363.278 684.745 363.47H658.575C658.192 363.278 658 363.004 658 362.648Z" fill="white"/>
</g>
<g id="Group_45">
<path id="Vector_44" d="M704.294 349.913C703.555 349.913 702.98 349.68 702.569 349.214C702.158 348.748 701.939 348.146 701.911 347.406C701.911 345.9 702.569 344.558 703.883 343.38C705.198 342.203 706.787 341.614 708.649 341.614C709.608 341.614 710.21 341.627 710.457 341.655C712.484 341.983 714.031 342.709 715.099 343.832C716.167 344.955 716.715 346.174 716.742 347.489C716.742 348.913 716.277 350.296 715.346 351.638C714.414 352.98 713.127 353.952 711.484 354.555L711.361 354.637C711.361 354.664 711.484 354.706 711.73 354.76C711.977 354.815 712.374 354.938 712.922 355.13C713.47 355.322 713.99 355.609 714.483 355.993C716.729 357.444 717.852 359.362 717.852 361.744C717.852 363.908 717.003 365.798 715.305 367.414C713.606 369.03 711.456 369.838 708.855 369.838C706.663 369.838 704.774 369.249 703.185 368.071C701.597 366.893 700.802 365.401 700.802 363.593C700.802 362.826 701.049 362.21 701.542 361.744C702.035 361.279 702.651 361.032 703.39 361.005C704.157 361.005 704.787 361.251 705.28 361.744C705.773 362.237 706.02 362.854 706.02 363.593C706.02 363.894 705.979 364.168 705.897 364.415C705.814 364.661 705.719 364.88 705.609 365.072C705.499 365.264 705.349 365.428 705.157 365.565C704.965 365.702 704.801 365.812 704.664 365.894C704.527 365.976 704.39 366.031 704.253 366.058C704.116 366.086 704.007 366.127 703.925 366.181L703.76 366.222C705.157 367.455 706.855 368.071 708.855 368.071C710.361 368.071 711.498 367.345 712.264 365.894C712.73 364.99 712.963 363.607 712.963 361.744V360.923C712.963 358.321 712.086 356.582 710.334 355.705C709.923 355.541 709.087 355.445 707.827 355.418L706.102 355.377L705.979 355.294C705.924 355.212 705.897 354.993 705.897 354.637C705.897 354.144 706.006 353.898 706.225 353.898C706.992 353.898 707.786 353.829 708.608 353.692C709.539 353.555 710.388 352.98 711.155 351.967C711.922 350.953 712.305 349.42 712.305 347.365V347.037C712.305 345.476 711.826 344.394 710.868 343.791C710.265 343.408 709.621 343.216 708.937 343.216C708.06 343.216 707.252 343.367 706.513 343.668C705.773 343.969 705.253 344.284 704.952 344.613C704.65 344.941 704.5 345.106 704.5 345.106H704.623C704.705 345.133 704.815 345.161 704.952 345.188C705.089 345.215 705.226 345.284 705.362 345.393C705.499 345.503 705.664 345.599 705.855 345.681C706.047 345.763 706.184 345.914 706.266 346.133C706.348 346.352 706.458 346.557 706.595 346.749C706.732 346.941 706.773 347.215 706.718 347.571C706.718 348.173 706.526 348.707 706.143 349.173C705.76 349.639 705.143 349.885 704.294 349.913Z" fill="white"/>
<path id="Vector_45" d="M724.096 351.31C723.356 351.31 722.767 351.063 722.329 350.57C721.891 350.077 721.672 349.475 721.672 348.762C721.672 346.818 722.398 345.133 723.849 343.709C725.301 342.285 727.109 341.573 729.272 341.573C731.765 341.573 733.846 342.34 735.517 343.874C737.188 345.407 738.037 347.393 738.064 349.831C738.064 351.008 737.79 352.131 737.242 353.199C736.695 354.268 736.037 355.199 735.27 355.993C734.503 356.787 733.408 357.801 731.984 359.033C730.998 359.882 729.628 361.142 727.875 362.813L725.452 365.113L728.574 365.155C732.874 365.155 735.161 365.086 735.435 364.949C735.626 364.894 735.955 363.676 736.421 361.293V361.17H738.064V361.293C738.037 361.375 737.859 362.621 737.53 365.031C737.201 367.442 736.996 368.701 736.914 368.811V368.934H721.672V368.154V367.661C721.672 367.469 721.754 367.263 721.918 367.044C722.083 366.825 722.494 366.346 723.151 365.606C723.945 364.73 724.63 363.963 725.205 363.306C725.452 363.032 725.917 362.525 726.602 361.786C727.287 361.046 727.752 360.54 727.999 360.266C728.245 359.992 728.642 359.54 729.19 358.91C729.738 358.28 730.121 357.814 730.34 357.513C730.559 357.212 730.874 356.801 731.285 356.281C731.696 355.76 731.984 355.322 732.148 354.966C732.312 354.61 732.518 354.213 732.764 353.775C733.011 353.336 733.189 352.898 733.298 352.46C733.408 352.022 733.504 351.611 733.586 351.227C733.668 350.844 733.709 350.392 733.709 349.872C733.709 348.146 733.244 346.654 732.312 345.394C731.381 344.134 730.053 343.504 728.327 343.504C727.423 343.504 726.629 343.737 725.945 344.202C725.26 344.668 724.78 345.12 724.507 345.558C724.233 345.996 724.096 346.256 724.096 346.339C724.096 346.366 724.164 346.38 724.301 346.38C724.794 346.38 725.301 346.571 725.821 346.955C726.342 347.338 726.602 347.968 726.602 348.845C726.602 349.529 726.383 350.105 725.945 350.57C725.506 351.036 724.89 351.282 724.096 351.31Z" fill="white"/>
</g>
</g>
<g id="Group 48">
<g id="Group_46">
<g id="Group_47">
<path id="Vector_46" d="M606.556 402.816C605.816 402.816 605.227 402.569 604.789 402.076C604.351 401.583 604.132 400.981 604.132 400.268C604.132 398.324 604.858 396.639 606.309 395.215C607.761 393.791 609.568 393.079 611.732 393.079C614.225 393.079 616.306 393.846 617.977 395.38C619.648 396.913 620.497 398.899 620.524 401.337C620.524 402.514 620.25 403.637 619.702 404.705C619.155 405.774 618.497 406.705 617.73 407.499C616.963 408.293 615.868 409.307 614.444 410.539C613.458 411.388 612.088 412.648 610.335 414.319L607.911 416.619L611.034 416.661C615.334 416.661 617.621 416.592 617.895 416.455C618.086 416.4 618.415 415.182 618.881 412.799V412.676H620.524V412.799C620.497 412.881 620.319 414.127 619.99 416.537C619.661 418.948 619.456 420.207 619.374 420.317V420.44H604.132V419.66V419.167C604.132 418.975 604.214 418.769 604.378 418.55C604.543 418.331 604.953 417.852 605.611 417.112C606.405 416.236 607.09 415.469 607.665 414.812C607.911 414.538 608.377 414.031 609.062 413.292C609.747 412.552 610.212 412.046 610.459 411.772C610.705 411.498 611.102 411.046 611.65 410.416C612.198 409.786 612.581 409.32 612.8 409.019C613.019 408.718 613.334 408.307 613.745 407.787C614.156 407.266 614.444 406.828 614.608 406.472C614.772 406.116 614.978 405.719 615.224 405.281C615.471 404.842 615.649 404.404 615.758 403.966C615.868 403.528 615.964 403.117 616.046 402.733C616.128 402.35 616.169 401.898 616.169 401.378C616.169 399.652 615.704 398.16 614.772 396.9C613.841 395.64 612.513 395.01 610.787 395.01C609.883 395.01 609.089 395.243 608.404 395.708C607.72 396.174 607.24 396.626 606.967 397.064C606.693 397.502 606.556 397.762 606.556 397.845C606.556 397.872 606.624 397.886 606.761 397.886C607.254 397.886 607.761 398.077 608.281 398.461C608.802 398.844 609.062 399.474 609.062 400.351C609.062 401.035 608.843 401.61 608.404 402.076C607.966 402.542 607.35 402.788 606.556 402.816Z" fill="white"/>
</g>
<g id="Group_48">
<path id="Vector_47" d="M624.131 395.079C624.266 394.265 624.789 393.326 625.699 392.261C626.609 391.196 627.732 390.654 629.069 390.635C629.746 390.635 630.366 390.809 630.927 391.158C631.489 391.506 631.905 391.942 632.176 392.465C632.99 391.245 633.968 390.635 635.11 390.635C635.826 390.635 636.446 390.848 636.969 391.274C637.492 391.7 637.763 392.271 637.782 392.987C637.782 393.549 637.647 394.004 637.376 394.353C637.104 394.701 636.843 394.914 636.591 394.992C636.34 395.069 636.117 395.108 635.923 395.108C635.555 395.108 635.255 395.001 635.023 394.788C634.791 394.575 634.674 394.295 634.674 393.946C634.674 393.055 635.158 392.445 636.127 392.116C635.914 391.864 635.526 391.739 634.965 391.739C634.713 391.739 634.529 391.758 634.413 391.797C633.677 392.106 633.135 392.745 632.786 393.714C631.625 397.993 631.044 400.491 631.044 401.207C631.044 401.75 631.199 402.137 631.508 402.369C631.818 402.602 632.157 402.718 632.525 402.718C633.241 402.718 633.948 402.398 634.645 401.759C635.342 401.12 635.817 400.336 636.069 399.407C636.127 399.213 636.185 399.106 636.243 399.087C636.301 399.068 636.456 399.048 636.708 399.029H636.824C637.114 399.029 637.259 399.106 637.259 399.261C637.259 399.281 637.24 399.387 637.201 399.581C636.891 400.685 636.291 401.662 635.4 402.514C634.51 403.366 633.474 403.792 632.293 403.792C630.937 403.792 629.911 403.183 629.214 401.963C628.42 403.163 627.51 403.763 626.483 403.763H626.309C625.36 403.763 624.683 403.512 624.276 403.008C623.869 402.505 623.656 401.972 623.637 401.411C623.637 400.791 623.821 400.288 624.189 399.9C624.557 399.513 624.992 399.319 625.496 399.319C626.329 399.319 626.745 399.726 626.745 400.539C626.745 400.927 626.629 401.266 626.396 401.556C626.164 401.846 625.941 402.04 625.728 402.137C625.515 402.234 625.389 402.282 625.351 402.282L625.264 402.311C625.264 402.331 625.322 402.369 625.438 402.427C625.554 402.485 625.709 402.553 625.903 402.631C626.096 402.708 626.28 402.737 626.454 402.718C627.151 402.718 627.752 402.282 628.255 401.411C628.429 401.101 628.652 400.443 628.923 399.436C629.194 398.429 629.465 397.383 629.737 396.299C630.008 395.214 630.163 394.575 630.201 394.382C630.298 393.859 630.347 393.481 630.347 393.249C630.347 392.707 630.201 392.319 629.911 392.087C629.62 391.855 629.291 391.739 628.923 391.739C628.149 391.739 627.423 392.048 626.745 392.668C626.067 393.288 625.593 394.082 625.322 395.05C625.283 395.224 625.234 395.321 625.176 395.34C625.118 395.36 624.963 395.379 624.712 395.398H624.305C624.189 395.282 624.131 395.176 624.131 395.079Z" fill="white"/>
</g>
</g>
<g id="Group_49">
<path id="Vector_48" d="M655 406.184C655 405.828 655.192 405.554 655.575 405.363H681.745C682.156 405.582 682.361 405.856 682.361 406.184C682.361 406.486 682.17 406.746 681.786 406.965L668.722 407.006H655.657C655.219 406.869 655 406.595 655 406.184ZM655 414.154C655 413.744 655.219 413.47 655.657 413.333H681.786C682.17 413.607 682.361 413.881 682.361 414.154C682.361 414.51 682.156 414.784 681.745 414.976H655.575C655.192 414.784 655 414.51 655 414.154Z" fill="white"/>
</g>
<g id="Group_50">
<g id="Group_51">
<path id="Vector_49" d="M700.554 402.816C699.814 402.816 699.225 402.569 698.787 402.076C698.349 401.583 698.13 400.981 698.13 400.268C698.13 398.324 698.856 396.639 700.307 395.215C701.759 393.791 703.567 393.079 705.73 393.079C708.223 393.079 710.304 393.846 711.975 395.38C713.646 396.913 714.495 398.899 714.522 401.337C714.522 402.514 714.248 403.637 713.7 404.705C713.153 405.774 712.495 406.705 711.728 407.499C710.961 408.293 709.866 409.307 708.442 410.539C707.456 411.388 706.086 412.648 704.333 414.319L701.91 416.619L705.032 416.661C709.332 416.661 711.619 416.592 711.893 416.455C712.084 416.4 712.413 415.182 712.879 412.799V412.676H714.522V412.799C714.495 412.881 714.317 414.127 713.988 416.537C713.659 418.948 713.454 420.207 713.372 420.317V420.44H698.13V419.66V419.167C698.13 418.975 698.212 418.769 698.376 418.55C698.541 418.331 698.952 417.852 699.609 417.112C700.403 416.236 701.088 415.469 701.663 414.812C701.91 414.538 702.375 414.031 703.06 413.292C703.745 412.552 704.21 412.046 704.457 411.772C704.703 411.498 705.1 411.046 705.648 410.416C706.196 409.786 706.579 409.32 706.798 409.019C707.018 408.718 707.332 408.307 707.743 407.787C708.154 407.266 708.442 406.828 708.606 406.472C708.77 406.116 708.976 405.719 709.222 405.281C709.469 404.842 709.647 404.404 709.756 403.966C709.866 403.528 709.962 403.117 710.044 402.733C710.126 402.35 710.167 401.898 710.167 401.378C710.167 399.652 709.702 398.16 708.77 396.9C707.839 395.64 706.511 395.01 704.785 395.01C703.882 395.01 703.087 395.243 702.403 395.708C701.718 396.174 701.238 396.626 700.965 397.064C700.691 397.502 700.554 397.762 700.554 397.845C700.554 397.872 700.622 397.886 700.759 397.886C701.252 397.886 701.759 398.077 702.279 398.461C702.8 398.844 703.06 399.474 703.06 400.351C703.06 401.035 702.841 401.61 702.403 402.076C701.964 402.542 701.348 402.788 700.554 402.816Z" fill="white"/>
</g>
<g id="Group_52">
<path id="Vector_50" d="M721.383 398.913C721.383 399.377 721.228 399.765 720.918 400.075C720.608 400.384 720.231 400.539 719.785 400.539H719.582C720.473 402.069 721.654 402.834 723.125 402.834C724.481 402.834 725.468 402.253 726.088 401.091C726.456 400.452 726.64 399.213 726.64 397.373C726.64 395.379 726.379 394.033 725.856 393.336C725.352 392.697 724.791 392.377 724.171 392.377H723.997C722.486 392.377 721.344 393.036 720.569 394.353C720.492 394.488 720.424 394.566 720.366 394.585C720.308 394.604 720.163 394.624 719.93 394.643C719.601 394.643 719.417 394.585 719.379 394.469C719.34 394.391 719.32 392.697 719.32 389.386V385.639C719.32 384.671 719.369 384.187 719.466 384.187C719.504 384.148 719.543 384.129 719.582 384.129C719.601 384.129 719.805 384.206 720.192 384.361C720.579 384.516 721.112 384.671 721.789 384.826C722.467 384.981 723.193 385.058 723.968 385.058C725.343 385.058 726.659 384.787 727.918 384.245C728.073 384.167 728.199 384.129 728.296 384.129C728.451 384.129 728.528 384.303 728.528 384.651V385.029C726.94 386.907 724.955 387.846 722.574 387.846C721.973 387.846 721.431 387.788 720.947 387.672L720.657 387.614V392.61C721.025 392.339 721.315 392.126 721.528 391.971C721.741 391.816 722.09 391.661 722.574 391.506C723.058 391.351 723.551 391.274 724.055 391.274C725.623 391.274 726.95 391.903 728.034 393.162C729.119 394.42 729.661 395.911 729.661 397.635C729.661 399.416 729.041 400.936 727.802 402.195C726.563 403.454 725.052 404.093 723.271 404.112C721.702 404.112 720.444 403.589 719.495 402.543C718.546 401.498 718.072 400.317 718.072 399C718.072 398.535 718.178 398.167 718.391 397.896C718.604 397.625 718.827 397.451 719.059 397.373C719.291 397.296 719.514 397.257 719.727 397.257C720.211 397.257 720.608 397.422 720.918 397.751C721.228 398.08 721.383 398.467 721.383 398.913Z" fill="white"/>
</g>
</g>
</g>
<g id="Group 47">
<g id="Group_53">
<path id="Vector_51" d="M829.362 399.605C829.362 398.893 829.608 398.304 830.101 397.838C830.594 397.373 831.183 397.14 831.868 397.14C832.525 397.14 833.086 397.373 833.552 397.838C834.018 398.304 834.264 398.893 834.291 399.605C834.319 400.317 834.086 400.906 833.593 401.372C833.1 401.837 832.511 402.07 831.826 402.07C831.114 402.07 830.526 401.837 830.06 401.372C829.594 400.906 829.362 400.317 829.362 399.605ZM821.597 414.929C822.309 414.929 822.884 415.162 823.322 415.627C823.761 416.093 823.993 416.682 824.021 417.394C824.021 418.051 823.802 418.626 823.363 419.119C822.925 419.612 822.323 419.859 821.556 419.859C820.844 419.859 820.268 419.626 819.83 419.16C819.392 418.695 819.159 418.106 819.132 417.394C819.132 416.682 819.365 416.093 819.83 415.627C820.296 415.162 820.885 414.929 821.597 414.929ZM839.673 417.394C839.673 416.682 839.906 416.093 840.372 415.627C840.837 415.162 841.426 414.929 842.138 414.929C842.796 414.929 843.357 415.162 843.823 415.627C844.288 416.093 844.535 416.682 844.562 417.394C844.562 418.024 844.343 418.585 843.905 419.078C843.467 419.571 842.864 419.831 842.097 419.859C841.385 419.859 840.81 419.626 840.372 419.16C839.934 418.695 839.701 418.106 839.673 417.394Z" fill="white"/>
</g>
<g id="Group_54">
<path id="Vector_52" d="M870.508 404.617C870.7 403.467 871.44 402.138 872.727 400.632C874.014 399.126 875.603 398.359 877.493 398.331C878.451 398.331 879.328 398.578 880.122 399.071C880.916 399.564 881.505 400.18 881.888 400.92C883.039 399.194 884.422 398.331 886.038 398.331C887.051 398.331 887.928 398.633 888.667 399.235C889.407 399.838 889.79 400.646 889.817 401.659C889.817 402.453 889.626 403.097 889.242 403.59C888.859 404.083 888.489 404.384 888.133 404.494C887.777 404.603 887.462 404.658 887.188 404.658C886.668 404.658 886.243 404.507 885.915 404.206C885.586 403.905 885.422 403.508 885.422 403.015C885.422 401.755 886.106 400.892 887.476 400.427C887.174 400.07 886.627 399.892 885.832 399.892C885.476 399.892 885.216 399.92 885.052 399.975C884.011 400.413 883.244 401.317 882.751 402.686C881.108 408.739 880.286 412.272 880.286 413.286C880.286 414.052 880.505 414.6 880.944 414.929C881.382 415.257 881.861 415.422 882.381 415.422C883.395 415.422 884.395 414.97 885.381 414.066C886.367 413.162 887.038 412.053 887.394 410.738C887.476 410.464 887.558 410.314 887.64 410.286C887.722 410.259 887.941 410.232 888.297 410.204H888.462C888.873 410.204 889.078 410.314 889.078 410.533C889.078 410.56 889.051 410.711 888.996 410.985C888.558 412.546 887.709 413.929 886.449 415.134C885.189 416.339 883.723 416.942 882.053 416.942C880.136 416.942 878.684 416.079 877.698 414.354C876.575 416.052 875.288 416.901 873.836 416.901H873.59C872.248 416.901 871.289 416.545 870.714 415.833C870.139 415.121 869.837 414.367 869.81 413.573C869.81 412.697 870.07 411.985 870.591 411.437C871.111 410.889 871.727 410.615 872.439 410.615C873.617 410.615 874.206 411.19 874.206 412.341C874.206 412.888 874.042 413.368 873.713 413.779C873.384 414.189 873.069 414.463 872.768 414.6C872.467 414.737 872.289 414.806 872.234 414.806L872.111 414.847C872.111 414.874 872.193 414.929 872.357 415.011C872.522 415.093 872.741 415.189 873.015 415.299C873.288 415.408 873.549 415.449 873.795 415.422C874.781 415.422 875.63 414.806 876.342 413.573C876.589 413.135 876.904 412.204 877.287 410.779C877.671 409.355 878.054 407.876 878.437 406.342C878.821 404.809 879.04 403.905 879.095 403.631C879.232 402.892 879.3 402.357 879.3 402.029C879.3 401.262 879.095 400.714 878.684 400.385C878.273 400.057 877.808 399.892 877.287 399.892C876.192 399.892 875.165 400.331 874.206 401.207C873.247 402.084 872.576 403.206 872.193 404.576C872.138 404.822 872.07 404.959 871.987 404.987C871.905 405.014 871.686 405.042 871.33 405.069H870.755C870.591 404.905 870.508 404.754 870.508 404.617Z" fill="white"/>
</g>
<g id="Group_55">
<path id="Vector_53" d="M905.586 402.234C905.586 401.878 905.778 401.604 906.162 401.413H932.331C932.742 401.632 932.948 401.906 932.948 402.234C932.948 402.536 932.756 402.796 932.373 403.015L919.308 403.056H906.244C905.806 402.919 905.586 402.645 905.586 402.234ZM905.586 410.204C905.586 409.794 905.806 409.52 906.244 409.383H932.373C932.756 409.657 932.948 409.93 932.948 410.204C932.948 410.56 932.742 410.834 932.331 411.026H906.162C905.778 410.834 905.586 410.56 905.586 410.204Z" fill="white"/>
</g>
<g id="Group_56">
<path id="Vector_54" d="M953.396 410.04C953.396 410.697 953.177 411.245 952.739 411.683C952.3 412.121 951.766 412.341 951.136 412.341H950.849C952.109 414.504 953.779 415.586 955.861 415.586C957.778 415.586 959.175 414.764 960.051 413.121C960.572 412.217 960.832 410.464 960.832 407.863C960.832 405.042 960.462 403.138 959.723 402.152C959.011 401.248 958.216 400.796 957.34 400.796H957.093C954.957 400.796 953.341 401.727 952.246 403.59C952.136 403.782 952.04 403.891 951.958 403.919C951.876 403.946 951.67 403.973 951.342 404.001C950.876 404.001 950.616 403.919 950.561 403.754C950.506 403.645 950.479 401.248 950.479 396.565V391.265C950.479 389.896 950.547 389.211 950.684 389.211C950.739 389.156 950.794 389.129 950.849 389.129C950.876 389.129 951.164 389.238 951.711 389.457C952.259 389.676 953.012 389.896 953.971 390.115C954.93 390.334 955.957 390.443 957.052 390.443C958.997 390.443 960.859 390.06 962.64 389.293C962.859 389.183 963.037 389.129 963.174 389.129C963.393 389.129 963.502 389.375 963.502 389.868V390.402C961.256 393.059 958.449 394.387 955.08 394.387C954.231 394.387 953.464 394.305 952.78 394.141L952.369 394.059V401.125C952.889 400.741 953.3 400.44 953.601 400.221C953.903 400.002 954.396 399.783 955.08 399.564C955.765 399.345 956.463 399.235 957.175 399.235C959.394 399.235 961.27 400.125 962.804 401.906C964.338 403.686 965.105 405.795 965.105 408.232C965.105 410.752 964.228 412.902 962.475 414.682C960.722 416.463 958.586 417.366 956.066 417.394C953.848 417.394 952.068 416.654 950.725 415.175C949.383 413.696 948.712 412.026 948.712 410.163C948.712 409.506 948.863 408.985 949.164 408.602C949.466 408.219 949.781 407.972 950.109 407.863C950.438 407.753 950.753 407.698 951.054 407.698C951.739 407.698 952.3 407.931 952.739 408.397C953.177 408.862 953.396 409.41 953.396 410.04Z" fill="white"/>
</g>
</g>
</g>
</g>
</g>
</g>
</svg>
