<svg viewBox="0 0 975 264" fill="none" xmlns="http://www.w3.org/2000/svg">
<g id="0119206">
<g id="4 10 3 12 5 10 8 x 14">
<path d="M19.6699 38.0166H24.207V41.4082H19.6699V49H15.4922V41.4082H0.600586V38.96L15.2451 16.2969H19.6699V38.0166ZM5.31738 38.0166H15.4922V21.9795L14.998 22.8779L5.31738 38.0166Z" fill="white"/>
<path d="M98.665 49H94.4873V21.3057L86.1094 24.3828V20.6094L98.0137 16.1396H98.665V49Z" fill="white"/>
<path d="M131.346 35.0518C131.346 39.9183 130.515 43.5345 128.853 45.9004C127.19 48.2663 124.592 49.4492 121.059 49.4492C117.57 49.4492 114.987 48.2962 113.31 45.9902C111.632 43.6693 110.764 40.2103 110.704 35.6133V30.0654C110.704 25.2588 111.535 21.6875 113.197 19.3516C114.859 17.0156 117.465 15.8477 121.014 15.8477C124.533 15.8477 127.123 16.9782 128.785 19.2393C130.447 21.4854 131.301 24.9593 131.346 29.6611V35.0518ZM127.19 29.3691C127.19 25.8503 126.696 23.2897 125.708 21.6875C124.72 20.0703 123.155 19.2617 121.014 19.2617C118.887 19.2617 117.338 20.0628 116.364 21.665C115.391 23.2673 114.889 25.7305 114.859 29.0547V35.7031C114.859 39.237 115.368 41.8499 116.387 43.542C117.42 45.2191 118.977 46.0576 121.059 46.0576C123.11 46.0576 124.63 45.264 125.618 43.6768C126.621 42.0895 127.146 39.5889 127.19 36.1748V29.3691Z" fill="white"/>
<path d="M211.172 30.627H214.294C216.256 30.597 217.798 30.0804 218.921 29.0771C220.044 28.0739 220.605 26.7188 220.605 25.0117C220.605 21.1784 218.696 19.2617 214.878 19.2617C213.081 19.2617 211.644 19.7783 210.565 20.8115C209.502 21.8298 208.971 23.1849 208.971 24.877H204.815C204.815 22.2865 205.759 20.1377 207.646 18.4307C209.547 16.7087 211.958 15.8477 214.878 15.8477C217.963 15.8477 220.381 16.6637 222.133 18.2959C223.885 19.9281 224.761 22.1966 224.761 25.1016C224.761 26.5241 224.297 27.9017 223.368 29.2344C222.455 30.5671 221.204 31.5628 219.617 32.2217C221.414 32.7907 222.799 33.734 223.772 35.0518C224.761 36.3695 225.255 37.9792 225.255 39.8809C225.255 42.8158 224.297 45.1442 222.38 46.8662C220.463 48.5882 217.97 49.4492 214.9 49.4492C211.831 49.4492 209.33 48.6182 207.398 46.9561C205.482 45.2939 204.523 43.1003 204.523 40.375H208.701C208.701 42.097 209.263 43.4746 210.386 44.5078C211.509 45.541 213.014 46.0576 214.9 46.0576C216.907 46.0576 218.442 45.5335 219.505 44.4854C220.568 43.4372 221.1 41.9323 221.1 39.9707C221.1 38.069 220.516 36.609 219.348 35.5908C218.18 34.5726 216.495 34.0485 214.294 34.0186H211.172V30.627Z" fill="white"/>
<path d="M15.7842 126H11.6064V98.3057L3.22852 101.383V97.6094L15.1328 93.1396H15.7842V126Z" fill="white"/>
<path d="M49.3857 126H27.958V123.013L39.2783 110.435C40.9554 108.533 42.1084 106.991 42.7373 105.808C43.3812 104.61 43.7031 103.374 43.7031 102.102C43.7031 100.395 43.1865 98.9945 42.1533 97.9014C41.1201 96.8083 39.7425 96.2617 38.0205 96.2617C35.9541 96.2617 34.3444 96.8532 33.1914 98.0361C32.0534 99.2041 31.4844 100.836 31.4844 102.933H27.3291C27.3291 99.9229 28.2949 97.4896 30.2266 95.6328C32.1732 93.776 34.7712 92.8477 38.0205 92.8477C41.0602 92.8477 43.4635 93.6488 45.2305 95.251C46.9974 96.8382 47.8809 98.957 47.8809 101.607C47.8809 104.827 45.8294 108.66 41.7266 113.107L32.9668 122.608H49.3857V126Z" fill="white"/>
<path d="M112.748 109.604L114.41 93.2969H131.166V97.1377H117.937L116.948 106.055C118.55 105.111 120.37 104.64 122.406 104.64C125.386 104.64 127.752 105.628 129.504 107.604C131.256 109.566 132.132 112.224 132.132 115.578C132.132 118.947 131.218 121.605 129.392 123.552C127.58 125.483 125.042 126.449 121.777 126.449C118.887 126.449 116.529 125.648 114.702 124.046C112.875 122.444 111.835 120.228 111.58 117.397H115.511C115.765 119.269 116.432 120.684 117.51 121.643C118.588 122.586 120.01 123.058 121.777 123.058C123.709 123.058 125.221 122.399 126.314 121.081C127.423 119.763 127.977 117.944 127.977 115.623C127.977 113.437 127.378 111.685 126.18 110.367C124.997 109.035 123.417 108.368 121.44 108.368C119.629 108.368 118.206 108.765 117.173 109.559L116.072 110.457L112.748 109.604Z" fill="white"/>
<path d="M207.376 126H203.198V98.3057L194.82 101.383V97.6094L206.725 93.1396H207.376V126Z" fill="white"/>
<path d="M240.057 112.052C240.057 116.918 239.226 120.535 237.563 122.9C235.901 125.266 233.303 126.449 229.77 126.449C226.281 126.449 223.698 125.296 222.021 122.99C220.343 120.669 219.475 117.21 219.415 112.613V107.065C219.415 102.259 220.246 98.6875 221.908 96.3516C223.57 94.0156 226.176 92.8477 229.725 92.8477C233.243 92.8477 235.834 93.9782 237.496 96.2393C239.158 98.4854 240.012 101.959 240.057 106.661V112.052ZM235.901 106.369C235.901 102.85 235.407 100.29 234.419 98.6875C233.431 97.0703 231.866 96.2617 229.725 96.2617C227.598 96.2617 226.049 97.0628 225.075 98.665C224.102 100.267 223.6 102.73 223.57 106.055V112.703C223.57 116.237 224.079 118.85 225.098 120.542C226.131 122.219 227.688 123.058 229.77 123.058C231.821 123.058 233.341 122.264 234.329 120.677C235.332 119.09 235.856 116.589 235.901 113.175V106.369Z" fill="white"/>
<path d="M21.9609 178.832C21.9609 180.464 21.5267 181.917 20.6582 183.189C19.8047 184.462 18.6442 185.458 17.1768 186.177C18.8838 186.91 20.2314 187.981 21.2197 189.389C22.223 190.796 22.7246 192.391 22.7246 194.173C22.7246 197.003 21.7663 199.257 19.8496 200.934C17.9479 202.611 15.4398 203.449 12.3252 203.449C9.18066 203.449 6.65755 202.611 4.75586 200.934C2.86914 199.242 1.92578 196.988 1.92578 194.173C1.92578 192.406 2.40495 190.811 3.36328 189.389C4.33659 187.966 5.67676 186.888 7.38379 186.154C5.93131 185.436 4.78581 184.44 3.94727 183.167C3.10872 181.894 2.68945 180.449 2.68945 178.832C2.68945 176.077 3.57292 173.891 5.33984 172.273C7.10677 170.656 9.43522 169.848 12.3252 169.848C15.2002 169.848 17.5212 170.656 19.2881 172.273C21.07 173.891 21.9609 176.077 21.9609 178.832ZM18.5693 194.083C18.5693 192.256 17.9854 190.766 16.8174 189.613C15.6644 188.46 14.152 187.884 12.2803 187.884C10.4085 187.884 8.90365 188.453 7.76562 189.591C6.64258 190.729 6.08105 192.226 6.08105 194.083C6.08105 195.94 6.6276 197.4 7.7207 198.463C8.82878 199.526 10.3636 200.058 12.3252 200.058C14.2718 200.058 15.7992 199.526 16.9072 198.463C18.0153 197.385 18.5693 195.925 18.5693 194.083ZM12.3252 173.262C10.693 173.262 9.36784 173.771 8.34961 174.789C7.34635 175.792 6.84473 177.162 6.84473 178.899C6.84473 180.562 7.33887 181.909 8.32715 182.942C9.3304 183.961 10.6631 184.47 12.3252 184.47C13.9873 184.47 15.3125 183.961 16.3008 182.942C17.304 181.909 17.8057 180.562 17.8057 178.899C17.8057 177.237 17.2891 175.882 16.2559 174.834C15.2227 173.786 13.9124 173.262 12.3252 173.262Z" fill="white"/>
<path d="M116.409 187.569L121.8 178.697H126.651L118.7 190.714L126.898 203H122.092L116.477 193.903L110.861 203H106.032L114.23 190.714L106.279 178.697H111.086L116.409 187.569Z" fill="white"/>
<path d="M212.767 203H208.589V175.306L200.211 178.383V174.609L212.115 170.14H212.767V203Z" fill="white"/>
<path d="M242.482 192.017H247.02V195.408H242.482V203H238.305V195.408H223.413V192.96L238.058 170.297H242.482V192.017ZM228.13 192.017H238.305V175.979L237.811 176.878L228.13 192.017Z" fill="white"/>
</g>
<g id="Group 29">
<g id="\Rightarrow \;4+2(3)=4+6=10 \; \Rightarrow \;(1+2)+2(1+0)=3+2(1)=3+2=5">
<g id="Group">
<g id="Group 25">
<g id="Group_2">
<path id="Vector" d="M299.96 9.43996C299.96 9.14663 300.173 8.99996 300.6 8.99996C300.733 8.99996 300.84 8.99996 300.92 8.99996C301 8.99996 301.067 8.99996 301.12 8.99996C301.173 8.99996 301.227 9.01329 301.28 9.03996C301.333 9.06663 301.36 9.07996 301.36 9.07996C301.36 9.07996 301.387 9.11996 301.44 9.19996C301.493 9.27996 301.52 9.31996 301.52 9.31996C301.52 9.31996 301.56 9.38663 301.64 9.51996C302.627 11.4933 303.933 13.24 305.56 14.76C307.187 16.28 308.667 17.36 310 18C311.333 18.64 312.613 19.1333 313.84 19.48C314.293 19.6133 314.52 19.7866 314.52 20C314.52 20.2133 314.4 20.36 314.16 20.44C313.92 20.52 313.427 20.6666 312.68 20.88C311.933 21.0933 311.16 21.4133 310.36 21.84C306.52 23.7066 303.613 26.5866 301.64 30.48C301.533 30.72 301.44 30.8533 301.36 30.88C301.28 30.9066 301.08 30.9333 300.76 30.96C300.227 30.96 299.96 30.8666 299.96 30.68C299.96 30.5733 300.027 30.3466 300.16 30C301.093 28.16 302.24 26.52 303.6 25.08L304 24.68H279.56C279.187 24.4933 279 24.2266 279 23.88C279 23.48 279.213 23.2133 279.64 23.08H305.76L306.16 22.76C307.2 21.96 308.76 21.04 310.84 20C310.813 19.9733 310.573 19.8533 310.12 19.64C309.667 19.4266 309.067 19.1066 308.32 18.68C307.573 18.2533 306.853 17.7733 306.16 17.24L305.76 16.92H279.64C279.213 16.7866 279 16.52 279 16.12C279 15.7733 279.187 15.5066 279.56 15.32H304L303.6 14.92C302.72 13.9866 301.893 12.9066 301.12 11.68C300.347 10.4533 299.96 9.70663 299.96 9.43996Z" fill="white"/>
</g>
<g id="Group_3">
<path id="Vector_2" d="M357.464 30.0001C356.984 29.9201 355.264 29.8801 352.304 29.8801C349.21 29.8801 347.424 29.9201 346.944 30.0001H346.584V28.1601H347.824C348.357 28.1601 348.717 28.1601 348.904 28.1601C349.09 28.1601 349.317 28.1335 349.584 28.0801C349.85 28.0268 350.037 27.9601 350.144 27.8801C350.25 27.8001 350.344 27.6935 350.424 27.5601C350.45 27.5068 350.464 26.7868 350.464 25.4001V23.4001H340.104V21.5601L346.144 12.3201C350.224 6.13346 352.29 3.02679 352.344 3.00012C352.397 2.94679 352.677 2.92012 353.184 2.92012H353.904L354.144 3.16012V21.5601H357.824V23.4001H354.144V25.4401C354.144 26.5335 354.144 27.1735 354.144 27.3601C354.144 27.5468 354.224 27.7068 354.384 27.8401C354.597 28.0268 355.357 28.1335 356.664 28.1601H357.824V30.0001H357.464ZM350.704 21.5601V8.20012L341.944 21.5201L346.304 21.5601H350.704Z" fill="white"/>
</g>
<g id="Group_4">
<path id="Vector_3" d="M370.112 20.5198C370.112 20.5198 370.112 20.3465 370.112 19.9998C370.112 19.6531 370.298 19.3865 370.672 19.1998H382.632V13.1998L382.672 7.19979C382.938 6.85312 383.192 6.67979 383.432 6.67979C383.778 6.67979 384.045 6.87979 384.232 7.27979V19.1998H396.152C396.552 19.4131 396.752 19.6798 396.752 19.9998C396.752 20.3198 396.552 20.5865 396.152 20.7998H384.232V32.7198C384.018 33.0931 383.778 33.2798 383.512 33.2798H383.432H383.352C383.032 33.2798 382.792 33.0931 382.632 32.7198V20.7998H370.672C370.298 20.6131 370.112 20.3465 370.112 19.9998V20.5198Z" fill="white"/>
</g>
<g id="Group_5">
<path id="Vector_4" d="M412.24 12.8401C411.52 12.8401 410.947 12.6001 410.52 12.1201C410.094 11.6401 409.88 11.0535 409.88 10.3601C409.88 8.46679 410.587 6.82679 412 5.44012C413.414 4.05345 415.174 3.36012 417.28 3.36012C419.707 3.36012 421.734 4.10679 423.36 5.60012C424.987 7.09345 425.814 9.02679 425.84 11.4001C425.84 12.5468 425.574 13.6401 425.04 14.6801C424.507 15.7201 423.867 16.6268 423.12 17.4001C422.374 18.1735 421.307 19.1601 419.92 20.3601C418.96 21.1868 417.627 22.4135 415.92 24.0401L413.56 26.2801L416.6 26.3201C420.787 26.3201 423.014 26.2535 423.28 26.1201C423.467 26.0668 423.787 24.8801 424.24 22.5601V22.4401H425.84V22.5601C425.814 22.6401 425.64 23.8535 425.32 26.2001C425 28.5468 424.8 29.7735 424.72 29.8801V30.0001H409.88V29.2401V28.7601C409.88 28.5735 409.96 28.3735 410.12 28.1601C410.28 27.9468 410.68 27.4801 411.32 26.7601C412.094 25.9068 412.76 25.1601 413.32 24.5201C413.56 24.2535 414.014 23.7601 414.68 23.0401C415.347 22.3201 415.8 21.8268 416.04 21.5601C416.28 21.2935 416.667 20.8535 417.2 20.2401C417.734 19.6268 418.107 19.1735 418.32 18.8801C418.534 18.5868 418.84 18.1868 419.24 17.6801C419.64 17.1735 419.92 16.7468 420.08 16.4001C420.24 16.0535 420.44 15.6668 420.68 15.2401C420.92 14.8135 421.094 14.3868 421.2 13.9601C421.307 13.5335 421.4 13.1335 421.48 12.7601C421.56 12.3868 421.6 11.9468 421.6 11.4401C421.6 9.76012 421.147 8.30679 420.24 7.08012C419.334 5.85345 418.04 5.24012 416.36 5.24012C415.48 5.24012 414.707 5.46679 414.04 5.92012C413.374 6.37345 412.907 6.81345 412.64 7.24012C412.374 7.66679 412.24 7.92012 412.24 8.00012C412.24 8.02679 412.307 8.04012 412.44 8.04012C412.92 8.04012 413.414 8.22679 413.92 8.60012C414.427 8.97345 414.68 9.58679 414.68 10.4401C414.68 11.1068 414.467 11.6668 414.04 12.1201C413.614 12.5735 413.014 12.8135 412.24 12.8401Z" fill="white"/>
</g>
<g id="Group_6">
<path id="Vector_5" d="M431.64 20C431.64 18.16 431.773 16.4133 432.04 14.76C432.306 13.1067 432.613 11.68 432.96 10.48C433.306 9.28 433.8 8.10667 434.44 6.96C435.08 5.81333 435.586 4.92 435.96 4.28C436.333 3.64 436.893 2.94667 437.64 2.2C438.386 1.45333 438.826 1 438.96 0.84C439.093 0.68 439.426 0.400002 439.96 0H440.48H440.64C441.013 0 441.2 0.119999 441.2 0.360001C441.2 0.440002 440.973 0.720001 440.52 1.2C440.066 1.68 439.52 2.38667 438.88 3.32C438.24 4.25333 437.586 5.4 436.92 6.76C436.253 8.12 435.693 9.96 435.24 12.28C434.786 14.6 434.56 17.1733 434.56 20C434.56 22.8267 434.786 25.3867 435.24 27.68C435.693 29.9733 436.24 31.8267 436.88 33.24C437.52 34.6533 438.173 35.8 438.84 36.68C439.506 37.56 440.066 38.2667 440.52 38.8C440.973 39.3333 441.2 39.6133 441.2 39.64C441.2 39.88 441 40 440.6 40H440.48H439.96L438.84 39.04C436.333 36.7733 434.506 33.9467 433.36 30.56C432.213 27.1733 431.64 23.6533 431.64 20Z" fill="white"/>
</g>
<g id="Group_7">
<path id="Vector_6" d="M448.521 11.48C447.801 11.48 447.241 11.2533 446.841 10.8C446.441 10.3467 446.227 9.76001 446.201 9.04001C446.201 7.57334 446.841 6.26667 448.121 5.12001C449.401 3.97334 450.947 3.40001 452.761 3.40001C453.694 3.40001 454.281 3.41334 454.521 3.44001C456.494 3.76001 458.001 4.46667 459.041 5.56001C460.081 6.65334 460.614 7.84001 460.641 9.12001C460.641 10.5067 460.187 11.8533 459.281 13.16C458.374 14.4667 457.121 15.4133 455.521 16L455.401 16.08C455.401 16.1067 455.521 16.1467 455.761 16.2C456.001 16.2533 456.387 16.3733 456.921 16.56C457.454 16.7467 457.961 17.0267 458.441 17.4C460.627 18.8133 461.721 20.68 461.721 23C461.721 25.1067 460.894 26.9467 459.241 28.52C457.587 30.0933 455.494 30.88 452.961 30.88C450.827 30.88 448.987 30.3067 447.441 29.16C445.894 28.0133 445.121 26.56 445.121 24.8C445.121 24.0533 445.361 23.4533 445.841 23C446.321 22.5467 446.921 22.3067 447.641 22.28C448.387 22.28 449.001 22.52 449.481 23C449.961 23.48 450.201 24.08 450.201 24.8C450.201 25.0933 450.161 25.36 450.081 25.6C450.001 25.84 449.907 26.0533 449.801 26.24C449.694 26.4267 449.547 26.5867 449.361 26.72C449.174 26.8533 449.014 26.96 448.881 27.04C448.747 27.12 448.614 27.1733 448.481 27.2C448.347 27.2267 448.241 27.2667 448.161 27.32L448.001 27.36C449.361 28.56 451.014 29.16 452.961 29.16C454.427 29.16 455.534 28.4533 456.281 27.04C456.734 26.16 456.961 24.8133 456.961 23V22.2C456.961 19.6667 456.107 17.9733 454.401 17.12C454.001 16.96 453.187 16.8667 451.961 16.84L450.281 16.8L450.161 16.72C450.107 16.64 450.081 16.4267 450.081 16.08C450.081 15.6 450.187 15.36 450.401 15.36C451.147 15.36 451.921 15.2933 452.721 15.16C453.627 15.0267 454.454 14.4667 455.201 13.48C455.947 12.4933 456.321 11 456.321 9.00001V8.68001C456.321 7.16001 455.854 6.10667 454.921 5.52001C454.334 5.14668 453.707 4.96001 453.041 4.96001C452.187 4.96001 451.401 5.10667 450.681 5.40001C449.961 5.69334 449.454 6.00001 449.161 6.32001C448.867 6.64001 448.721 6.80001 448.721 6.80001H448.841C448.921 6.82667 449.027 6.85334 449.161 6.88001C449.294 6.90667 449.427 6.97334 449.561 7.08001C449.694 7.18667 449.854 7.28001 450.041 7.36001C450.227 7.44001 450.361 7.58667 450.441 7.80001C450.521 8.01334 450.627 8.21334 450.761 8.40001C450.894 8.58667 450.934 8.85334 450.881 9.20001C450.881 9.78667 450.694 10.3067 450.321 10.76C449.947 11.2133 449.347 11.4533 448.521 11.48Z" fill="white"/>
</g>
<g id="Group_8">
<path id="Vector_7" d="M465.839 0.0400009L465.999 0C466.132 0 466.266 0 466.399 0H466.879L467.999 0.959999C470.506 3.22667 472.332 6.05333 473.479 9.44C474.626 12.8267 475.199 16.3467 475.199 20C475.199 21.8133 475.066 23.56 474.799 25.24C474.532 26.92 474.226 28.3467 473.879 29.52C473.532 30.6933 473.039 31.8667 472.399 33.04C471.759 34.2133 471.252 35.1067 470.879 35.72C470.506 36.3333 469.959 37.0133 469.239 37.76C468.519 38.5067 468.092 38.9467 467.959 39.08C467.826 39.2133 467.519 39.4667 467.039 39.84C466.959 39.92 466.906 39.9733 466.879 40H466.399C466.186 40 466.039 40 465.959 40C465.879 40 465.812 39.96 465.759 39.88C465.706 39.8 465.666 39.68 465.639 39.52C465.666 39.4933 465.812 39.32 466.079 39C470.212 34.7067 472.279 28.3733 472.279 20C472.279 11.6267 470.212 5.29333 466.079 1C465.812 0.68 465.666 0.506668 465.639 0.48C465.639 0.266666 465.706 0.120003 465.839 0.0400009Z" fill="white"/>
</g>
<g id="Group_9">
<path id="Vector_8" d="M492.353 16.1199C492.353 15.7733 492.539 15.5066 492.913 15.3199H518.393C518.793 15.5333 518.993 15.7999 518.993 16.1199C518.993 16.4133 518.806 16.6666 518.433 16.8799L505.713 16.9199H492.993C492.566 16.7866 492.353 16.5199 492.353 16.1199ZM492.353 23.8799C492.353 23.4799 492.566 23.2133 492.993 23.0799H518.433C518.806 23.3466 518.993 23.6133 518.993 23.8799C518.993 24.2266 518.793 24.4933 518.393 24.6799H492.913C492.539 24.4933 492.353 24.2266 492.353 23.8799Z" fill="white"/>
</g>
<g id="Group_10">
<path id="Vector_9" d="M548.36 30.08C547.88 30 546.16 29.96 543.2 29.96C540.107 29.96 538.32 30 537.84 30.08H537.48V28.24H538.72C539.253 28.24 539.613 28.24 539.8 28.24C539.987 28.24 540.213 28.2134 540.48 28.16C540.747 28.1067 540.933 28.04 541.04 27.96C541.147 27.88 541.24 27.7734 541.32 27.64C541.347 27.5867 541.36 26.8667 541.36 25.48V23.48H531V21.64L537.04 12.4C541.12 6.21335 543.187 3.10668 543.24 3.08002C543.293 3.02668 543.573 3.00002 544.08 3.00002H544.8L545.04 3.24002V21.64H548.72V23.48H545.04V25.52C545.04 26.6134 545.04 27.2534 545.04 27.44C545.04 27.6267 545.12 27.7867 545.28 27.92C545.493 28.1067 546.253 28.2134 547.56 28.24H548.72V30.08H548.36ZM541.6 21.64V8.28002L532.84 21.6L537.2 21.64H541.6Z" fill="white"/>
</g>
<g id="Group_11">
<path id="Vector_10" d="M563.472 20.5198C563.472 20.5198 563.472 20.3465 563.472 19.9998C563.472 19.6531 563.659 19.3865 564.032 19.1998H575.992V13.1998L576.032 7.19979C576.299 6.85312 576.552 6.67979 576.792 6.67979C577.139 6.67979 577.406 6.87979 577.592 7.27979V19.1998H589.512C589.912 19.4131 590.112 19.6798 590.112 19.9998C590.112 20.3198 589.912 20.5865 589.512 20.7998H577.592V32.7198C577.379 33.0931 577.139 33.2798 576.872 33.2798H576.792H576.712C576.392 33.2798 576.152 33.0931 575.992 32.7198V20.7998H564.032C563.659 20.6131 563.472 20.3465 563.472 19.9998V20.5198Z" fill="white"/>
</g>
<g id="Group_12">
<path id="Vector_11" d="M602.92 17.48C602.92 13.1333 604 9.69334 606.16 7.16001C608.32 4.62667 610.72 3.36001 613.36 3.36001C615.2 3.36001 616.52 3.84001 617.32 4.8C618.12 5.76 618.52 6.82667 618.52 8.00001C618.52 8.66667 618.334 9.20001 617.96 9.60001C617.587 10 617.067 10.2 616.4 10.2C615.787 10.2 615.28 10.0133 614.88 9.64001C614.48 9.26667 614.28 8.74667 614.28 8.08001C614.28 6.90667 614.907 6.2 616.16 5.96C615.574 5.37334 614.747 5.04 613.68 4.96C611.787 4.96 610.227 5.76001 609 7.36001C607.747 9.12001 607.12 11.8133 607.12 15.44L607.16 15.6C607.294 15.44 607.4 15.2667 607.48 15.08C608.574 13.48 610 12.68 611.76 12.68H611.92C613.147 12.68 614.227 12.9333 615.16 13.44C615.8 13.8133 616.44 14.3467 617.08 15.04C617.72 15.7333 618.24 16.4933 618.64 17.32C619.2 18.6267 619.48 20.0533 619.48 21.6V22.32C619.48 22.9333 619.414 23.5067 619.28 24.04C618.987 25.6133 618.134 27.1467 616.72 28.64C615.307 30.1333 613.52 30.88 611.36 30.88C610.614 30.88 609.894 30.7733 609.2 30.56C608.507 30.3467 607.76 29.9467 606.96 29.36C606.16 28.7733 605.48 27.9867 604.92 27C604.36 26.0133 603.88 24.72 603.48 23.12C603.08 21.52 602.894 19.64 602.92 17.48ZM611.52 14.12C610.72 14.12 610.027 14.3467 609.44 14.8C608.854 15.2533 608.4 15.8533 608.08 16.6C607.76 17.3467 607.534 18.1067 607.4 18.88C607.267 19.6533 607.187 20.48 607.16 21.36C607.16 23.5733 607.32 25.16 607.64 26.12C607.96 27.08 608.467 27.8533 609.16 28.44C609.8 28.92 610.507 29.16 611.28 29.16C612.64 29.16 613.68 28.6533 614.4 27.64C614.747 27.16 614.987 26.56 615.12 25.84C615.254 25.12 615.32 23.72 615.32 21.64C615.32 19.5067 615.254 18.08 615.12 17.36C614.987 16.64 614.747 16.04 614.4 15.56C613.68 14.6 612.72 14.12 611.52 14.12Z" fill="white"/>
</g>
<g id="Group_13">
<path id="Vector_12" d="M634.591 16.1199C634.591 15.7733 634.778 15.5066 635.151 15.3199H660.631C661.031 15.5333 661.231 15.7999 661.231 16.1199C661.231 16.4133 661.045 16.6666 660.671 16.8799L647.951 16.9199H635.231C634.805 16.7866 634.591 16.5199 634.591 16.1199ZM634.591 23.8799C634.591 23.4799 634.805 23.2133 635.231 23.0799H660.671C661.045 23.3466 661.231 23.6133 661.231 23.8799C661.231 24.2266 661.031 24.4933 660.631 24.6799H635.151C634.778 24.4933 634.591 24.2266 634.591 23.8799Z" fill="white"/>
</g>
<g id="Group_14">
<path id="Vector_13" d="M683.104 6.88012L682.584 7.08012C682.21 7.21345 681.677 7.34679 680.984 7.48012C680.29 7.61345 679.517 7.70679 678.664 7.76012H677.904V5.92012H678.664C679.917 5.86679 681.077 5.66679 682.144 5.32012C683.21 4.97345 683.957 4.65345 684.384 4.36012C684.81 4.06679 685.184 3.77345 685.504 3.48012C685.557 3.40012 685.717 3.36012 685.984 3.36012C686.224 3.36012 686.45 3.44012 686.664 3.60012V15.5601L686.704 27.5601C686.89 27.7468 687.05 27.8668 687.184 27.9201C687.317 27.9735 687.637 28.0268 688.144 28.0801C688.65 28.1335 689.477 28.1601 690.624 28.1601H691.664V30.0001H691.224C690.664 29.9201 688.544 29.8801 684.864 29.8801C681.237 29.8801 679.144 29.9201 678.584 30.0001H678.104V28.1601H679.144C679.73 28.1601 680.237 28.1601 680.664 28.1601C681.09 28.1601 681.424 28.1468 681.664 28.1201C681.904 28.0935 682.117 28.0535 682.304 28.0001C682.49 27.9468 682.597 27.9201 682.624 27.9201C682.65 27.9201 682.73 27.8535 682.864 27.7201C682.997 27.5868 683.077 27.5335 683.104 27.5601V6.88012Z" fill="white"/>
<path id="Vector_14" d="M698.425 6.60001C699.918 4.44001 701.958 3.36001 704.545 3.36001C705.825 3.36001 707.105 3.70667 708.385 4.40001C709.665 5.09334 710.705 6.32001 711.505 8.08001C712.491 10.2933 712.985 13.3333 712.985 17.2C712.985 21.3333 712.411 24.4933 711.265 26.68C710.731 27.8 709.998 28.6933 709.065 29.36C708.131 30.0267 707.318 30.44 706.625 30.6C705.931 30.76 705.251 30.8533 704.585 30.88C703.891 30.88 703.198 30.8 702.505 30.64C701.811 30.48 700.998 30.0533 700.065 29.36C699.131 28.6667 698.398 27.7733 697.865 26.68C696.718 24.4933 696.145 21.3333 696.145 17.2C696.145 12.56 696.905 9.02667 698.425 6.60001ZM707.425 6.12C706.625 5.26667 705.678 4.84001 704.585 4.84001C703.465 4.84001 702.505 5.26667 701.705 6.12C701.038 6.81334 700.598 7.77334 700.385 9.00001C700.171 10.2267 700.065 12.7867 700.065 16.68C700.065 20.8933 700.171 23.6667 700.385 25C700.598 26.3333 701.078 27.3867 701.825 28.16C702.571 28.96 703.491 29.36 704.585 29.36C705.651 29.36 706.558 28.96 707.305 28.16C708.078 27.36 708.558 26.24 708.745 24.8C708.931 23.36 709.038 20.6533 709.065 16.68C709.065 12.8133 708.958 10.2667 708.745 9.04C708.531 7.81334 708.091 6.84 707.425 6.12Z" fill="white"/>
</g>
</g>
<g id="Group 26">
<g id="Group_15">
<path id="Vector_15" d="M294.864 90.496C294.864 90.232 295.056 90.1 295.44 90.1C295.56 90.1 295.656 90.1 295.728 90.1C295.8 90.1 295.86 90.1 295.908 90.1C295.956 90.1 296.004 90.112 296.052 90.136C296.1 90.16 296.124 90.172 296.124 90.172C296.124 90.172 296.148 90.208 296.196 90.28C296.244 90.352 296.268 90.388 296.268 90.388C296.268 90.388 296.304 90.448 296.376 90.568C297.264 92.344 298.44 93.916 299.904 95.284C301.368 96.652 302.7 97.624 303.9 98.2C305.1 98.776 306.252 99.22 307.356 99.532C307.764 99.652 307.968 99.808 307.968 100C307.968 100.192 307.86 100.324 307.644 100.396C307.428 100.468 306.984 100.6 306.312 100.792C305.64 100.984 304.944 101.272 304.224 101.656C300.768 103.336 298.152 105.928 296.376 109.432C296.28 109.648 296.196 109.768 296.124 109.792C296.052 109.816 295.872 109.84 295.584 109.864C295.104 109.864 294.864 109.78 294.864 109.612C294.864 109.516 294.924 109.312 295.044 109C295.884 107.344 296.916 105.868 298.14 104.572L298.5 104.212H276.504C276.168 104.044 276 103.804 276 103.492C276 103.132 276.192 102.892 276.576 102.772H300.084L300.444 102.484C301.38 101.764 302.784 100.936 304.656 100C304.632 99.976 304.416 99.868 304.008 99.676C303.6 99.484 303.06 99.196 302.388 98.812C301.716 98.428 301.068 97.996 300.444 97.516L300.084 97.228H276.576C276.192 97.108 276 96.868 276 96.508C276 96.196 276.168 95.956 276.504 95.788H298.5L298.14 95.428C297.348 94.588 296.604 93.616 295.908 92.512C295.212 91.408 294.864 90.736 294.864 90.496Z" fill="white"/>
</g>
<g id="Group_16">
<path id="Vector_16" d="M333.37 100C333.37 98.344 333.49 96.772 333.73 95.284C333.97 93.796 334.246 92.512 334.558 91.432C334.87 90.352 335.314 89.296 335.89 88.264C336.466 87.232 336.922 86.428 337.258 85.852C337.594 85.276 338.098 84.652 338.77 83.98C339.442 83.308 339.838 82.9 339.958 82.756C340.078 82.612 340.378 82.36 340.858 82H341.326H341.47C341.806 82 341.974 82.108 341.974 82.324C341.974 82.396 341.77 82.648 341.362 83.08C340.954 83.512 340.462 84.148 339.886 84.988C339.31 85.828 338.722 86.86 338.122 88.084C337.522 89.308 337.018 90.964 336.61 93.052C336.202 95.14 335.998 97.456 335.998 100C335.998 102.544 336.202 104.848 336.61 106.912C337.018 108.976 337.51 110.644 338.086 111.916C338.662 113.188 339.25 114.22 339.85 115.012C340.45 115.804 340.954 116.44 341.362 116.92C341.77 117.4 341.974 117.652 341.974 117.676C341.974 117.892 341.794 118 341.434 118H341.326H340.858L339.85 117.136C337.594 115.096 335.95 112.552 334.918 109.504C333.886 106.456 333.37 103.288 333.37 100Z" fill="white"/>
</g>
<g id="Group_17">
<path id="Vector_17" d="M351.657 88.1921L351.189 88.3721C350.853 88.4921 350.373 88.6121 349.749 88.7321C349.125 88.8521 348.429 88.9361 347.661 88.9841H346.977V87.3281H347.661C348.789 87.2801 349.833 87.1001 350.793 86.7881C351.753 86.4761 352.425 86.1881 352.809 85.9241C353.193 85.6601 353.529 85.3961 353.817 85.1321C353.865 85.0601 354.009 85.0241 354.249 85.0241C354.465 85.0241 354.669 85.0961 354.861 85.2401V96.0041L354.897 106.804C355.065 106.972 355.209 107.08 355.329 107.128C355.449 107.176 355.737 107.224 356.193 107.272C356.649 107.32 357.393 107.344 358.425 107.344H359.361V109H358.965C358.461 108.928 356.553 108.892 353.241 108.892C349.977 108.892 348.093 108.928 347.589 109H347.157V107.344H348.093C348.621 107.344 349.077 107.344 349.461 107.344C349.845 107.344 350.145 107.332 350.361 107.308C350.577 107.284 350.769 107.248 350.937 107.2C351.105 107.152 351.201 107.128 351.225 107.128C351.249 107.128 351.321 107.068 351.441 106.948C351.561 106.828 351.633 106.78 351.657 106.804V88.1921Z" fill="white"/>
</g>
<g id="Group_18">
<path id="Vector_18" d="M372.005 100.468C372.005 100.468 372.005 100.312 372.005 99.9998C372.005 99.6878 372.173 99.4478 372.509 99.2798H383.273V93.8798L383.309 88.4798C383.549 88.1678 383.777 88.0118 383.993 88.0118C384.305 88.0118 384.545 88.1918 384.713 88.5518V99.2798H395.441C395.801 99.4718 395.981 99.7118 395.981 99.9998C395.981 100.288 395.801 100.528 395.441 100.72H384.713V111.448C384.521 111.784 384.305 111.952 384.065 111.952H383.993H383.921C383.633 111.952 383.417 111.784 383.273 111.448V100.72H372.509C372.173 100.552 372.005 100.312 372.005 99.9998V100.468Z" fill="white"/>
</g>
<g id="Group_19">
<path id="Vector_19" d="M409.92 93.5561C409.272 93.5561 408.756 93.3401 408.372 92.9081C407.988 92.4761 407.796 91.9481 407.796 91.3241C407.796 89.6201 408.432 88.1441 409.704 86.8961C410.976 85.6481 412.56 85.0241 414.456 85.0241C416.64 85.0241 418.464 85.6961 419.928 87.0401C421.392 88.3841 422.136 90.1241 422.16 92.2601C422.16 93.2921 421.92 94.2761 421.44 95.2121C420.96 96.1481 420.384 96.9641 419.712 97.6601C419.04 98.3561 418.08 99.2441 416.832 100.324C415.968 101.068 414.768 102.172 413.232 103.636L411.108 105.652L413.844 105.688C417.612 105.688 419.616 105.628 419.856 105.508C420.024 105.46 420.312 104.392 420.72 102.304V102.196H422.16V102.304C422.136 102.376 421.98 103.468 421.692 105.58C421.404 107.692 421.224 108.796 421.152 108.892V109H407.796V108.316V107.884C407.796 107.716 407.868 107.536 408.012 107.344C408.156 107.152 408.516 106.732 409.092 106.084C409.788 105.316 410.388 104.644 410.892 104.068C411.108 103.828 411.516 103.384 412.116 102.736C412.716 102.088 413.124 101.644 413.34 101.404C413.556 101.164 413.904 100.768 414.384 100.216C414.864 99.6641 415.2 99.2561 415.392 98.9921C415.584 98.7281 415.86 98.3681 416.22 97.9121C416.58 97.4561 416.832 97.0721 416.976 96.7601C417.12 96.4481 417.3 96.1001 417.516 95.7161C417.732 95.3321 417.888 94.9481 417.984 94.5641C418.08 94.1801 418.164 93.8201 418.236 93.4841C418.308 93.1481 418.344 92.7521 418.344 92.2961C418.344 90.7841 417.936 89.4761 417.12 88.3721C416.304 87.2681 415.14 86.7161 413.628 86.7161C412.836 86.7161 412.14 86.9201 411.54 87.3281C410.94 87.7361 410.52 88.1321 410.28 88.5161C410.04 88.9001 409.92 89.1281 409.92 89.2001C409.92 89.2241 409.98 89.2361 410.1 89.2361C410.532 89.2361 410.976 89.4041 411.432 89.7401C411.888 90.0761 412.116 90.6281 412.116 91.3961C412.116 91.9961 411.924 92.5001 411.54 92.9081C411.156 93.3161 410.616 93.5321 409.92 93.5561Z" fill="white"/>
</g>
<g id="Group_20">
<path id="Vector_20" d="M426.156 82.036L426.3 82C426.42 82 426.54 82 426.66 82H427.092L428.1 82.864C430.356 84.904 432 87.448 433.032 90.496C434.064 93.544 434.58 96.712 434.58 100C434.58 101.632 434.46 103.204 434.22 104.716C433.98 106.228 433.704 107.512 433.392 108.568C433.08 109.624 432.636 110.68 432.06 111.736C431.484 112.792 431.028 113.596 430.692 114.148C430.356 114.7 429.864 115.312 429.216 115.984C428.568 116.656 428.184 117.052 428.064 117.172C427.944 117.292 427.668 117.52 427.236 117.856C427.164 117.928 427.116 117.976 427.092 118H426.66C426.468 118 426.336 118 426.264 118C426.192 118 426.132 117.964 426.084 117.892C426.036 117.82 426 117.712 425.976 117.568C426 117.544 426.132 117.388 426.372 117.1C430.092 113.236 431.952 107.536 431.952 100C431.952 92.464 430.092 86.764 426.372 82.9C426.132 82.612 426 82.456 425.976 82.432C425.976 82.24 426.036 82.108 426.156 82.036Z" fill="white"/>
</g>
<g id="Group_21">
<path id="Vector_21" d="M448.015 100.468C448.015 100.468 448.015 100.312 448.015 99.9998C448.015 99.6878 448.183 99.4478 448.519 99.2798H459.283V93.8798L459.319 88.4798C459.559 88.1678 459.787 88.0118 460.003 88.0118C460.315 88.0118 460.555 88.1918 460.723 88.5518V99.2798H471.451C471.811 99.4718 471.991 99.7118 471.991 99.9998C471.991 100.288 471.811 100.528 471.451 100.72H460.723V111.448C460.531 111.784 460.315 111.952 460.075 111.952H460.003H459.931C459.643 111.952 459.427 111.784 459.283 111.448V100.72H448.519C448.183 100.552 448.015 100.312 448.015 99.9998V100.468Z" fill="white"/>
</g>
<g id="Group_22">
<path id="Vector_22" d="M485.934 93.5561C485.286 93.5561 484.77 93.3401 484.386 92.9081C484.002 92.4761 483.81 91.9481 483.81 91.3241C483.81 89.6201 484.446 88.1441 485.718 86.8961C486.99 85.6481 488.574 85.0241 490.47 85.0241C492.654 85.0241 494.478 85.6961 495.942 87.0401C497.406 88.3841 498.15 90.1241 498.174 92.2601C498.174 93.2921 497.934 94.2761 497.454 95.2121C496.974 96.1481 496.398 96.9641 495.726 97.6601C495.054 98.3561 494.094 99.2441 492.846 100.324C491.982 101.068 490.782 102.172 489.246 103.636L487.122 105.652L489.858 105.688C493.626 105.688 495.63 105.628 495.87 105.508C496.038 105.46 496.326 104.392 496.734 102.304V102.196H498.174V102.304C498.15 102.376 497.994 103.468 497.706 105.58C497.418 107.692 497.238 108.796 497.166 108.892V109H483.81V108.316V107.884C483.81 107.716 483.882 107.536 484.026 107.344C484.17 107.152 484.53 106.732 485.106 106.084C485.802 105.316 486.402 104.644 486.906 104.068C487.122 103.828 487.53 103.384 488.13 102.736C488.73 102.088 489.138 101.644 489.354 101.404C489.57 101.164 489.918 100.768 490.398 100.216C490.878 99.6641 491.214 99.2561 491.406 98.9921C491.598 98.7281 491.874 98.3681 492.234 97.9121C492.594 97.4561 492.846 97.0721 492.99 96.7601C493.134 96.4481 493.314 96.1001 493.53 95.7161C493.746 95.3321 493.902 94.9481 493.998 94.5641C494.094 94.1801 494.178 93.8201 494.25 93.4841C494.322 93.1481 494.358 92.7521 494.358 92.2961C494.358 90.7841 493.95 89.4761 493.134 88.3721C492.318 87.2681 491.154 86.7161 489.642 86.7161C488.85 86.7161 488.154 86.9201 487.554 87.3281C486.954 87.7361 486.534 88.1321 486.294 88.5161C486.054 88.9001 485.934 89.1281 485.934 89.2001C485.934 89.2241 485.994 89.2361 486.114 89.2361C486.546 89.2361 486.99 89.4041 487.446 89.7401C487.902 90.0761 488.13 90.6281 488.13 91.3961C488.13 91.9961 487.938 92.5001 487.554 92.9081C487.17 93.3161 486.63 93.5321 485.934 93.5561Z" fill="white"/>
</g>
<g id="Group_23">
<path id="Vector_23" d="M503.394 100C503.394 98.344 503.514 96.772 503.754 95.284C503.994 93.796 504.27 92.512 504.582 91.432C504.894 90.352 505.338 89.296 505.914 88.264C506.49 87.232 506.946 86.428 507.282 85.852C507.618 85.276 508.122 84.652 508.794 83.98C509.466 83.308 509.862 82.9 509.982 82.756C510.102 82.612 510.402 82.36 510.882 82H511.35H511.494C511.83 82 511.998 82.108 511.998 82.324C511.998 82.396 511.794 82.648 511.386 83.08C510.978 83.512 510.486 84.148 509.91 84.988C509.334 85.828 508.746 86.86 508.146 88.084C507.546 89.308 507.042 90.964 506.634 93.052C506.226 95.14 506.022 97.456 506.022 100C506.022 102.544 506.226 104.848 506.634 106.912C507.042 108.976 507.534 110.644 508.11 111.916C508.686 113.188 509.274 114.22 509.874 115.012C510.474 115.804 510.978 116.44 511.386 116.92C511.794 117.4 511.998 117.652 511.998 117.676C511.998 117.892 511.818 118 511.458 118H511.35H510.882L509.874 117.136C507.618 115.096 505.974 112.552 504.942 109.504C503.91 106.456 503.394 103.288 503.394 100Z" fill="white"/>
</g>
<g id="Group_24">
<path id="Vector_24" d="M521.683 88.1921L521.215 88.3721C520.879 88.4921 520.399 88.6121 519.775 88.7321C519.151 88.8521 518.455 88.9361 517.687 88.9841H517.003V87.3281H517.687C518.815 87.2801 519.859 87.1001 520.819 86.7881C521.779 86.4761 522.451 86.1881 522.835 85.9241C523.219 85.6601 523.555 85.3961 523.843 85.1321C523.891 85.0601 524.035 85.0241 524.275 85.0241C524.491 85.0241 524.695 85.0961 524.887 85.2401V96.0041L524.923 106.804C525.091 106.972 525.235 107.08 525.355 107.128C525.475 107.176 525.763 107.224 526.219 107.272C526.675 107.32 527.419 107.344 528.451 107.344H529.387V109H528.991C528.487 108.928 526.579 108.892 523.267 108.892C520.003 108.892 518.119 108.928 517.615 109H517.183V107.344H518.119C518.647 107.344 519.103 107.344 519.487 107.344C519.871 107.344 520.171 107.332 520.387 107.308C520.603 107.284 520.795 107.248 520.963 107.2C521.131 107.152 521.227 107.128 521.251 107.128C521.275 107.128 521.347 107.068 521.467 106.948C521.587 106.828 521.659 106.78 521.683 106.804V88.1921Z" fill="white"/>
</g>
<g id="Group_25">
<path id="Vector_25" d="M542.029 100.468C542.029 100.468 542.029 100.312 542.029 99.9998C542.029 99.6878 542.197 99.4478 542.533 99.2798H553.297V93.8798L553.333 88.4798C553.573 88.1678 553.801 88.0118 554.017 88.0118C554.329 88.0118 554.569 88.1918 554.737 88.5518V99.2798H565.465C565.825 99.4718 566.005 99.7118 566.005 99.9998C566.005 100.288 565.825 100.528 565.465 100.72H554.737V111.448C554.545 111.784 554.329 111.952 554.089 111.952H554.017H553.945C553.657 111.952 553.441 111.784 553.297 111.448V100.72H542.533C542.197 100.552 542.029 100.312 542.029 99.9998V100.468Z" fill="white"/>
</g>
<g id="Group_26">
<path id="Vector_26" d="M579.476 87.94C580.82 85.996 582.656 85.024 584.984 85.024C586.136 85.024 587.288 85.336 588.44 85.96C589.592 86.584 590.528 87.688 591.248 89.272C592.136 91.264 592.58 94 592.58 97.48C592.58 101.2 592.064 104.044 591.032 106.012C590.552 107.02 589.892 107.824 589.052 108.424C588.212 109.024 587.48 109.396 586.856 109.54C586.232 109.684 585.62 109.768 585.02 109.792C584.396 109.792 583.772 109.72 583.148 109.576C582.524 109.432 581.792 109.048 580.952 108.424C580.112 107.8 579.452 106.996 578.972 106.012C577.94 104.044 577.424 101.2 577.424 97.48C577.424 93.304 578.108 90.124 579.476 87.94ZM587.576 87.508C586.856 86.74 586.004 86.356 585.02 86.356C584.012 86.356 583.148 86.74 582.428 87.508C581.828 88.132 581.432 88.996 581.24 90.1C581.048 91.204 580.952 93.508 580.952 97.012C580.952 100.804 581.048 103.3 581.24 104.5C581.432 105.7 581.864 106.648 582.536 107.344C583.208 108.064 584.036 108.424 585.02 108.424C585.98 108.424 586.796 108.064 587.468 107.344C588.164 106.624 588.596 105.616 588.764 104.32C588.932 103.024 589.028 100.588 589.052 97.012C589.052 93.532 588.956 91.24 588.764 90.136C588.572 89.032 588.176 88.156 587.576 87.508Z" fill="white"/>
</g>
<g id="Group_27">
<path id="Vector_27" d="M596.181 82.036L596.325 82C596.445 82 596.565 82 596.685 82H597.117L598.125 82.864C600.381 84.904 602.025 87.448 603.057 90.496C604.089 93.544 604.605 96.712 604.605 100C604.605 101.632 604.485 103.204 604.245 104.716C604.005 106.228 603.729 107.512 603.417 108.568C603.105 109.624 602.661 110.68 602.085 111.736C601.509 112.792 601.053 113.596 600.717 114.148C600.381 114.7 599.889 115.312 599.241 115.984C598.593 116.656 598.209 117.052 598.089 117.172C597.969 117.292 597.693 117.52 597.261 117.856C597.189 117.928 597.141 117.976 597.117 118H596.685C596.493 118 596.361 118 596.289 118C596.217 118 596.157 117.964 596.109 117.892C596.061 117.82 596.025 117.712 596.001 117.568C596.025 117.544 596.157 117.388 596.397 117.1C600.117 113.236 601.977 107.536 601.977 100C601.977 92.464 600.117 86.764 596.397 82.9C596.157 82.612 596.025 82.456 596.001 82.432C596.001 82.24 596.061 82.108 596.181 82.036Z" fill="white"/>
</g>
<g id="Group_28">
<path id="Vector_28" d="M620.042 96.5079C620.042 96.1959 620.21 95.9559 620.546 95.7879H643.478C643.838 95.9799 644.018 96.2199 644.018 96.5079C644.018 96.7719 643.85 96.9999 643.514 97.1919L632.066 97.2279H620.618C620.234 97.1079 620.042 96.8679 620.042 96.5079ZM620.042 103.492C620.042 103.132 620.234 102.892 620.618 102.772H643.514C643.85 103.012 644.018 103.252 644.018 103.492C644.018 103.804 643.838 104.044 643.478 104.212H620.546C620.21 104.044 620.042 103.804 620.042 103.492Z" fill="white"/>
</g>
<g id="Group_29">
<path id="Vector_29" d="M660.605 92.332C659.957 92.332 659.453 92.128 659.093 91.72C658.733 91.312 658.541 90.784 658.517 90.136C658.517 88.816 659.093 87.64 660.245 86.608C661.397 85.576 662.789 85.06 664.421 85.06C665.261 85.06 665.789 85.072 666.005 85.096C667.781 85.384 669.137 86.02 670.073 87.004C671.009 87.988 671.489 89.056 671.513 90.208C671.513 91.456 671.105 92.668 670.289 93.844C669.473 95.02 668.345 95.872 666.905 96.4L666.797 96.472C666.797 96.496 666.905 96.532 667.121 96.58C667.337 96.628 667.685 96.736 668.165 96.904C668.645 97.072 669.101 97.324 669.533 97.66C671.501 98.932 672.485 100.612 672.485 102.7C672.485 104.596 671.741 106.252 670.253 107.668C668.765 109.084 666.881 109.792 664.601 109.792C662.681 109.792 661.025 109.276 659.633 108.244C658.241 107.212 657.545 105.904 657.545 104.32C657.545 103.648 657.761 103.108 658.193 102.7C658.625 102.292 659.165 102.076 659.813 102.052C660.485 102.052 661.037 102.268 661.469 102.7C661.901 103.132 662.117 103.672 662.117 104.32C662.117 104.584 662.081 104.824 662.009 105.04C661.937 105.256 661.853 105.448 661.757 105.616C661.661 105.784 661.529 105.928 661.361 106.048C661.193 106.168 661.049 106.264 660.929 106.336C660.809 106.408 660.689 106.456 660.569 106.48C660.449 106.504 660.353 106.54 660.281 106.588L660.137 106.624C661.361 107.704 662.849 108.244 664.601 108.244C665.921 108.244 666.917 107.608 667.589 106.336C667.997 105.544 668.201 104.332 668.201 102.7V101.98C668.201 99.7 667.433 98.176 665.897 97.408C665.537 97.264 664.805 97.18 663.701 97.156L662.189 97.12L662.081 97.048C662.033 96.976 662.009 96.784 662.009 96.472C662.009 96.04 662.105 95.824 662.297 95.824C662.969 95.824 663.665 95.764 664.385 95.644C665.201 95.524 665.945 95.02 666.617 94.132C667.289 93.244 667.625 91.9 667.625 90.1V89.812C667.625 88.444 667.205 87.496 666.365 86.968C665.837 86.632 665.273 86.464 664.673 86.464C663.905 86.464 663.197 86.596 662.549 86.86C661.901 87.124 661.445 87.4 661.181 87.688C660.917 87.976 660.785 88.12 660.785 88.12H660.893C660.965 88.144 661.061 88.168 661.181 88.192C661.301 88.216 661.421 88.276 661.541 88.372C661.661 88.468 661.805 88.552 661.973 88.624C662.141 88.696 662.261 88.828 662.333 89.02C662.405 89.212 662.501 89.392 662.621 89.56C662.741 89.728 662.777 89.968 662.729 90.28C662.729 90.808 662.561 91.276 662.225 91.684C661.889 92.092 661.349 92.308 660.605 92.332Z" fill="white"/>
</g>
<g id="Group_30">
<path id="Vector_30" d="M684.049 100.468C684.049 100.468 684.049 100.312 684.049 99.9998C684.049 99.6878 684.217 99.4478 684.553 99.2798H695.317V93.8798L695.353 88.4798C695.593 88.1678 695.821 88.0118 696.037 88.0118C696.349 88.0118 696.589 88.1918 696.757 88.5518V99.2798H707.485C707.845 99.4718 708.025 99.7118 708.025 99.9998C708.025 100.288 707.845 100.528 707.485 100.72H696.757V111.448C696.565 111.784 696.349 111.952 696.109 111.952H696.037H695.965C695.677 111.952 695.461 111.784 695.317 111.448V100.72H684.553C684.217 100.552 684.049 100.312 684.049 99.9998V100.468Z" fill="white"/>
</g>
<g id="Group_31">
<path id="Vector_31" d="M721.964 93.5561C721.316 93.5561 720.8 93.3401 720.416 92.9081C720.032 92.4761 719.84 91.9481 719.84 91.3241C719.84 89.6201 720.476 88.1441 721.748 86.8961C723.02 85.6481 724.604 85.0241 726.5 85.0241C728.684 85.0241 730.508 85.6961 731.972 87.0401C733.436 88.3841 734.18 90.1241 734.204 92.2601C734.204 93.2921 733.964 94.2761 733.484 95.2121C733.004 96.1481 732.428 96.9641 731.756 97.6601C731.084 98.3561 730.124 99.2441 728.876 100.324C728.012 101.068 726.812 102.172 725.276 103.636L723.152 105.652L725.888 105.688C729.656 105.688 731.66 105.628 731.9 105.508C732.068 105.46 732.356 104.392 732.764 102.304V102.196H734.204V102.304C734.18 102.376 734.024 103.468 733.736 105.58C733.448 107.692 733.268 108.796 733.196 108.892V109H719.84V108.316V107.884C719.84 107.716 719.912 107.536 720.056 107.344C720.2 107.152 720.56 106.732 721.136 106.084C721.832 105.316 722.432 104.644 722.936 104.068C723.152 103.828 723.56 103.384 724.16 102.736C724.76 102.088 725.168 101.644 725.384 101.404C725.6 101.164 725.948 100.768 726.428 100.216C726.908 99.6641 727.244 99.2561 727.436 98.9921C727.628 98.7281 727.904 98.3681 728.264 97.9121C728.624 97.4561 728.876 97.0721 729.02 96.7601C729.164 96.4481 729.344 96.1001 729.56 95.7161C729.776 95.3321 729.932 94.9481 730.028 94.5641C730.124 94.1801 730.208 93.8201 730.28 93.4841C730.352 93.1481 730.388 92.7521 730.388 92.2961C730.388 90.7841 729.98 89.4761 729.164 88.3721C728.348 87.2681 727.184 86.7161 725.672 86.7161C724.88 86.7161 724.184 86.9201 723.584 87.3281C722.984 87.7361 722.564 88.1321 722.324 88.5161C722.084 88.9001 721.964 89.1281 721.964 89.2001C721.964 89.2241 722.024 89.2361 722.144 89.2361C722.576 89.2361 723.02 89.4041 723.476 89.7401C723.932 90.0761 724.16 90.6281 724.16 91.3961C724.16 91.9961 723.968 92.5001 723.584 92.9081C723.2 93.3161 722.66 93.5321 721.964 93.5561Z" fill="white"/>
</g>
<g id="Group_32">
<path id="Vector_32" d="M739.424 100C739.424 98.344 739.544 96.772 739.784 95.284C740.024 93.796 740.3 92.512 740.612 91.432C740.924 90.352 741.368 89.296 741.944 88.264C742.52 87.232 742.976 86.428 743.312 85.852C743.648 85.276 744.152 84.652 744.824 83.98C745.496 83.308 745.892 82.9 746.012 82.756C746.132 82.612 746.432 82.36 746.912 82H747.38H747.524C747.86 82 748.028 82.108 748.028 82.324C748.028 82.396 747.824 82.648 747.416 83.08C747.008 83.512 746.516 84.148 745.94 84.988C745.364 85.828 744.776 86.86 744.176 88.084C743.576 89.308 743.072 90.964 742.664 93.052C742.256 95.14 742.052 97.456 742.052 100C742.052 102.544 742.256 104.848 742.664 106.912C743.072 108.976 743.564 110.644 744.14 111.916C744.716 113.188 745.304 114.22 745.904 115.012C746.504 115.804 747.008 116.44 747.416 116.92C747.824 117.4 748.028 117.652 748.028 117.676C748.028 117.892 747.848 118 747.488 118H747.38H746.912L745.904 117.136C743.648 115.096 742.004 112.552 740.972 109.504C739.94 106.456 739.424 103.288 739.424 100Z" fill="white"/>
</g>
<g id="Group_33">
<path id="Vector_33" d="M757.713 88.1921L757.245 88.3721C756.909 88.4921 756.429 88.6121 755.805 88.7321C755.181 88.8521 754.485 88.9361 753.717 88.9841H753.033V87.3281H753.717C754.845 87.2801 755.889 87.1001 756.849 86.7881C757.809 86.4761 758.481 86.1881 758.865 85.9241C759.249 85.6601 759.585 85.3961 759.873 85.1321C759.921 85.0601 760.065 85.0241 760.305 85.0241C760.521 85.0241 760.725 85.0961 760.917 85.2401V96.0041L760.953 106.804C761.121 106.972 761.265 107.08 761.385 107.128C761.505 107.176 761.793 107.224 762.249 107.272C762.705 107.32 763.449 107.344 764.481 107.344H765.417V109H765.021C764.517 108.928 762.609 108.892 759.297 108.892C756.033 108.892 754.149 108.928 753.645 109H753.213V107.344H754.149C754.677 107.344 755.133 107.344 755.517 107.344C755.901 107.344 756.201 107.332 756.417 107.308C756.633 107.284 756.825 107.248 756.993 107.2C757.161 107.152 757.257 107.128 757.281 107.128C757.305 107.128 757.377 107.068 757.497 106.948C757.617 106.828 757.689 106.78 757.713 106.804V88.1921Z" fill="white"/>
</g>
<g id="Group_34">
<path id="Vector_34" d="M770.204 82.036L770.348 82C770.468 82 770.588 82 770.708 82H771.14L772.148 82.864C774.404 84.904 776.048 87.448 777.08 90.496C778.112 93.544 778.628 96.712 778.628 100C778.628 101.632 778.508 103.204 778.268 104.716C778.028 106.228 777.752 107.512 777.44 108.568C777.128 109.624 776.684 110.68 776.108 111.736C775.532 112.792 775.076 113.596 774.74 114.148C774.404 114.7 773.912 115.312 773.264 115.984C772.616 116.656 772.232 117.052 772.112 117.172C771.992 117.292 771.716 117.52 771.284 117.856C771.212 117.928 771.164 117.976 771.14 118H770.708C770.516 118 770.384 118 770.312 118C770.24 118 770.18 117.964 770.132 117.892C770.084 117.82 770.048 117.712 770.024 117.568C770.048 117.544 770.18 117.388 770.42 117.1C774.14 113.236 776 107.536 776 100C776 92.464 774.14 86.764 770.42 82.9C770.18 82.612 770.048 82.456 770.024 82.432C770.024 82.24 770.084 82.108 770.204 82.036Z" fill="white"/>
</g>
<g id="Group_35">
<path id="Vector_35" d="M794.066 96.5079C794.066 96.1959 794.234 95.9559 794.57 95.7879H817.502C817.862 95.9799 818.042 96.2199 818.042 96.5079C818.042 96.7719 817.874 96.9999 817.538 97.1919L806.09 97.2279H794.642C794.258 97.1079 794.066 96.8679 794.066 96.5079ZM794.066 103.492C794.066 103.132 794.258 102.892 794.642 102.772H817.538C817.874 103.012 818.042 103.252 818.042 103.492C818.042 103.804 817.862 104.044 817.502 104.212H794.57C794.234 104.044 794.066 103.804 794.066 103.492Z" fill="white"/>
</g>
<g id="Group_36">
<path id="Vector_36" d="M834.63 92.332C833.982 92.332 833.478 92.128 833.118 91.72C832.758 91.312 832.566 90.784 832.542 90.136C832.542 88.816 833.118 87.64 834.27 86.608C835.422 85.576 836.814 85.06 838.446 85.06C839.286 85.06 839.814 85.072 840.03 85.096C841.806 85.384 843.162 86.02 844.098 87.004C845.034 87.988 845.514 89.056 845.538 90.208C845.538 91.456 845.13 92.668 844.314 93.844C843.498 95.02 842.37 95.872 840.93 96.4L840.822 96.472C840.822 96.496 840.93 96.532 841.146 96.58C841.362 96.628 841.71 96.736 842.19 96.904C842.67 97.072 843.126 97.324 843.558 97.66C845.526 98.932 846.51 100.612 846.51 102.7C846.51 104.596 845.766 106.252 844.278 107.668C842.79 109.084 840.906 109.792 838.626 109.792C836.706 109.792 835.05 109.276 833.658 108.244C832.266 107.212 831.57 105.904 831.57 104.32C831.57 103.648 831.786 103.108 832.218 102.7C832.65 102.292 833.19 102.076 833.838 102.052C834.51 102.052 835.062 102.268 835.494 102.7C835.926 103.132 836.142 103.672 836.142 104.32C836.142 104.584 836.106 104.824 836.034 105.04C835.962 105.256 835.878 105.448 835.782 105.616C835.686 105.784 835.554 105.928 835.386 106.048C835.218 106.168 835.074 106.264 834.954 106.336C834.834 106.408 834.714 106.456 834.594 106.48C834.474 106.504 834.378 106.54 834.306 106.588L834.162 106.624C835.386 107.704 836.874 108.244 838.626 108.244C839.946 108.244 840.942 107.608 841.614 106.336C842.022 105.544 842.226 104.332 842.226 102.7V101.98C842.226 99.7 841.458 98.176 839.922 97.408C839.562 97.264 838.83 97.18 837.726 97.156L836.214 97.12L836.106 97.048C836.058 96.976 836.034 96.784 836.034 96.472C836.034 96.04 836.13 95.824 836.322 95.824C836.994 95.824 837.69 95.764 838.41 95.644C839.226 95.524 839.97 95.02 840.642 94.132C841.314 93.244 841.65 91.9 841.65 90.1V89.812C841.65 88.444 841.23 87.496 840.39 86.968C839.862 86.632 839.298 86.464 838.698 86.464C837.93 86.464 837.222 86.596 836.574 86.86C835.926 87.124 835.47 87.4 835.206 87.688C834.942 87.976 834.81 88.12 834.81 88.12H834.918C834.99 88.144 835.086 88.168 835.206 88.192C835.326 88.216 835.446 88.276 835.566 88.372C835.686 88.468 835.83 88.552 835.998 88.624C836.166 88.696 836.286 88.828 836.358 89.02C836.43 89.212 836.526 89.392 836.646 89.56C836.766 89.728 836.802 89.968 836.754 90.28C836.754 90.808 836.586 91.276 836.25 91.684C835.914 92.092 835.374 92.308 834.63 92.332Z" fill="white"/>
</g>
<g id="Group_37">
<path id="Vector_37" d="M858.073 100.468C858.073 100.468 858.073 100.312 858.073 99.9998C858.073 99.6878 858.241 99.4478 858.577 99.2798H869.341V93.8798L869.377 88.4798C869.617 88.1678 869.845 88.0118 870.061 88.0118C870.373 88.0118 870.613 88.1918 870.781 88.5518V99.2798H881.509C881.869 99.4718 882.049 99.7118 882.049 99.9998C882.049 100.288 881.869 100.528 881.509 100.72H870.781V111.448C870.589 111.784 870.373 111.952 870.133 111.952H870.061H869.989C869.701 111.952 869.485 111.784 869.341 111.448V100.72H858.577C858.241 100.552 858.073 100.312 858.073 99.9998V100.468Z" fill="white"/>
</g>
<g id="Group_38">
<path id="Vector_38" d="M895.988 93.5561C895.34 93.5561 894.824 93.3401 894.44 92.9081C894.056 92.4761 893.864 91.9481 893.864 91.3241C893.864 89.6201 894.5 88.1441 895.772 86.8961C897.044 85.6481 898.628 85.0241 900.524 85.0241C902.708 85.0241 904.532 85.6961 905.996 87.0401C907.46 88.3841 908.204 90.1241 908.228 92.2601C908.228 93.2921 907.988 94.2761 907.508 95.2121C907.028 96.1481 906.452 96.9641 905.78 97.6601C905.108 98.3561 904.148 99.2441 902.9 100.324C902.036 101.068 900.836 102.172 899.3 103.636L897.176 105.652L899.912 105.688C903.68 105.688 905.684 105.628 905.924 105.508C906.092 105.46 906.38 104.392 906.788 102.304V102.196H908.228V102.304C908.204 102.376 908.048 103.468 907.76 105.58C907.472 107.692 907.292 108.796 907.22 108.892V109H893.864V108.316V107.884C893.864 107.716 893.936 107.536 894.08 107.344C894.224 107.152 894.584 106.732 895.16 106.084C895.856 105.316 896.456 104.644 896.96 104.068C897.176 103.828 897.584 103.384 898.184 102.736C898.784 102.088 899.192 101.644 899.408 101.404C899.624 101.164 899.972 100.768 900.452 100.216C900.932 99.6641 901.268 99.2561 901.46 98.9921C901.652 98.7281 901.928 98.3681 902.288 97.9121C902.648 97.4561 902.9 97.0721 903.044 96.7601C903.188 96.4481 903.368 96.1001 903.584 95.7161C903.8 95.3321 903.956 94.9481 904.052 94.5641C904.148 94.1801 904.232 93.8201 904.304 93.4841C904.376 93.1481 904.412 92.7521 904.412 92.2961C904.412 90.7841 904.004 89.4761 903.188 88.3721C902.372 87.2681 901.208 86.7161 899.696 86.7161C898.904 86.7161 898.208 86.9201 897.608 87.3281C897.008 87.7361 896.588 88.1321 896.348 88.5161C896.108 88.9001 895.988 89.1281 895.988 89.2001C895.988 89.2241 896.048 89.2361 896.168 89.2361C896.6 89.2361 897.044 89.4041 897.5 89.7401C897.956 90.0761 898.184 90.6281 898.184 91.3961C898.184 91.9961 897.992 92.5001 897.608 92.9081C897.224 93.3161 896.684 93.5321 895.988 93.5561Z" fill="white"/>
</g>
<g id="Group_39">
<path id="Vector_39" d="M922.081 96.5079C922.081 96.1959 922.249 95.9559 922.585 95.7879H945.517C945.877 95.9799 946.057 96.2199 946.057 96.5079C946.057 96.7719 945.889 96.9999 945.553 97.1919L934.105 97.2279H922.657C922.273 97.1079 922.081 96.8679 922.081 96.5079ZM922.081 103.492C922.081 103.132 922.273 102.892 922.657 102.772H945.553C945.889 103.012 946.057 103.252 946.057 103.492C946.057 103.804 945.877 104.044 945.517 104.212H922.585C922.249 104.044 922.081 103.804 922.081 103.492Z" fill="white"/>
</g>
<g id="Group_40">
<path id="Vector_40" d="M963.978 103.348C963.978 103.924 963.786 104.404 963.402 104.788C963.018 105.172 962.55 105.364 961.998 105.364H961.746C962.85 107.26 964.314 108.208 966.138 108.208C967.818 108.208 969.042 107.488 969.81 106.048C970.266 105.256 970.494 103.72 970.494 101.44C970.494 98.968 970.17 97.3 969.522 96.436C968.898 95.644 968.202 95.248 967.434 95.248H967.218C965.346 95.248 963.93 96.064 962.97 97.696C962.874 97.864 962.79 97.96 962.718 97.984C962.646 98.008 962.466 98.032 962.178 98.056C961.77 98.056 961.542 97.984 961.494 97.84C961.446 97.744 961.422 95.644 961.422 91.54V86.896C961.422 85.696 961.482 85.096 961.602 85.096C961.65 85.048 961.698 85.024 961.746 85.024C961.77 85.024 962.022 85.12 962.502 85.312C962.982 85.504 963.642 85.696 964.482 85.888C965.322 86.08 966.222 86.176 967.182 86.176C968.886 86.176 970.518 85.84 972.078 85.168C972.27 85.072 972.426 85.024 972.546 85.024C972.738 85.024 972.834 85.24 972.834 85.672V86.14C970.866 88.468 968.406 89.632 965.454 89.632C964.71 89.632 964.038 89.56 963.438 89.416L963.078 89.344V95.536C963.534 95.2 963.894 94.936 964.158 94.744C964.422 94.552 964.854 94.36 965.454 94.168C966.054 93.976 966.666 93.88 967.29 93.88C969.234 93.88 970.878 94.66 972.222 96.22C973.566 97.78 974.238 99.628 974.238 101.764C974.238 103.972 973.47 105.856 971.934 107.416C970.398 108.976 968.526 109.768 966.318 109.792C964.374 109.792 962.814 109.144 961.638 107.848C960.462 106.552 959.874 105.088 959.874 103.456C959.874 102.88 960.006 102.424 960.27 102.088C960.534 101.752 960.81 101.536 961.098 101.44C961.386 101.344 961.662 101.296 961.926 101.296C962.526 101.296 963.018 101.5 963.402 101.908C963.786 102.316 963.978 102.796 963.978 103.348Z" fill="white"/>
</g>
</g>
</g>
</g>
<g id="\Rightarrow\; x=8+2(1+4)=8+2(5) \; \therefore\; x=8+10=18">
<g id="Group_41">
<g id="Group 28">
<g id="Group_42">
<path id="Vector_41" d="M347.96 165.44C347.96 165.147 348.173 165 348.6 165C348.733 165 348.84 165 348.92 165C349 165 349.067 165 349.12 165C349.173 165 349.227 165.014 349.28 165.04C349.333 165.067 349.36 165.08 349.36 165.08C349.36 165.08 349.387 165.12 349.44 165.2C349.493 165.28 349.52 165.32 349.52 165.32C349.52 165.32 349.56 165.387 349.64 165.52C350.627 167.494 351.933 169.24 353.56 170.76C355.187 172.28 356.667 173.36 358 174C359.333 174.64 360.613 175.134 361.84 175.48C362.293 175.614 362.52 175.787 362.52 176C362.52 176.214 362.4 176.36 362.16 176.44C361.92 176.52 361.427 176.667 360.68 176.88C359.933 177.094 359.16 177.414 358.36 177.84C354.52 179.707 351.613 182.587 349.64 186.48C349.533 186.72 349.44 186.854 349.36 186.88C349.28 186.907 349.08 186.934 348.76 186.96C348.227 186.96 347.96 186.867 347.96 186.68C347.96 186.574 348.027 186.347 348.16 186C349.093 184.16 350.24 182.52 351.6 181.08L352 180.68H327.56C327.187 180.494 327 180.227 327 179.88C327 179.48 327.213 179.214 327.64 179.08H353.76L354.16 178.76C355.2 177.96 356.76 177.04 358.84 176C358.813 175.974 358.573 175.854 358.12 175.64C357.667 175.427 357.067 175.107 356.32 174.68C355.573 174.254 354.853 173.774 354.16 173.24L353.76 172.92H327.64C327.213 172.787 327 172.52 327 172.12C327 171.774 327.187 171.507 327.56 171.32H352L351.6 170.92C350.72 169.987 349.893 168.907 349.12 167.68C348.347 166.454 347.96 165.707 347.96 165.44Z" fill="white"/>
</g>
<g id="Group_43">
<path id="Vector_42" d="M389.064 174.441C389.251 173.321 389.971 172.027 391.224 170.561C392.478 169.094 394.024 168.347 395.864 168.321C396.798 168.321 397.651 168.561 398.424 169.041C399.198 169.521 399.771 170.121 400.144 170.841C401.264 169.161 402.611 168.321 404.184 168.321C405.171 168.321 406.024 168.614 406.744 169.201C407.464 169.787 407.838 170.574 407.864 171.561C407.864 172.334 407.678 172.961 407.304 173.441C406.931 173.921 406.571 174.214 406.224 174.321C405.878 174.427 405.571 174.481 405.304 174.481C404.798 174.481 404.384 174.334 404.064 174.041C403.744 173.747 403.584 173.361 403.584 172.881C403.584 171.654 404.251 170.814 405.584 170.361C405.291 170.014 404.758 169.841 403.984 169.841C403.638 169.841 403.384 169.867 403.224 169.921C402.211 170.347 401.464 171.227 400.984 172.561C399.384 178.454 398.584 181.894 398.584 182.881C398.584 183.627 398.798 184.161 399.224 184.481C399.651 184.801 400.118 184.961 400.624 184.961C401.611 184.961 402.584 184.521 403.544 183.641C404.504 182.761 405.158 181.681 405.504 180.401C405.584 180.134 405.664 179.987 405.744 179.961C405.824 179.934 406.038 179.907 406.384 179.881H406.544C406.944 179.881 407.144 179.987 407.144 180.201C407.144 180.227 407.118 180.374 407.064 180.641C406.638 182.161 405.811 183.507 404.584 184.681C403.358 185.854 401.931 186.441 400.304 186.441C398.438 186.441 397.024 185.601 396.064 183.921C394.971 185.574 393.718 186.401 392.304 186.401H392.064C390.758 186.401 389.824 186.054 389.264 185.361C388.704 184.667 388.411 183.934 388.384 183.161C388.384 182.307 388.638 181.614 389.144 181.081C389.651 180.547 390.251 180.281 390.944 180.281C392.091 180.281 392.664 180.841 392.664 181.961C392.664 182.494 392.504 182.961 392.184 183.361C391.864 183.761 391.558 184.027 391.264 184.161C390.971 184.294 390.798 184.361 390.744 184.361L390.624 184.401C390.624 184.427 390.704 184.481 390.864 184.561C391.024 184.641 391.238 184.734 391.504 184.841C391.771 184.947 392.024 184.987 392.264 184.961C393.224 184.961 394.051 184.361 394.744 183.161C394.984 182.734 395.291 181.827 395.664 180.441C396.038 179.054 396.411 177.614 396.784 176.121C397.158 174.627 397.371 173.747 397.424 173.481C397.558 172.761 397.624 172.241 397.624 171.921C397.624 171.174 397.424 170.641 397.024 170.321C396.624 170.001 396.171 169.841 395.664 169.841C394.598 169.841 393.598 170.267 392.664 171.121C391.731 171.974 391.078 173.067 390.704 174.401C390.651 174.641 390.584 174.774 390.504 174.801C390.424 174.827 390.211 174.854 389.864 174.881H389.304C389.144 174.721 389.064 174.574 389.064 174.441Z" fill="white"/>
</g>
<g id="Group_44">
<path id="Vector_43" d="M423.212 172.12C423.212 171.774 423.399 171.507 423.772 171.32H449.252C449.652 171.534 449.852 171.8 449.852 172.12C449.852 172.414 449.665 172.667 449.292 172.88L436.572 172.92H423.852C423.425 172.787 423.212 172.52 423.212 172.12ZM423.212 179.88C423.212 179.48 423.425 179.214 423.852 179.08H449.292C449.665 179.347 449.852 179.614 449.852 179.88C449.852 180.227 449.652 180.494 449.252 180.68H423.772C423.399 180.494 423.212 180.227 423.212 179.88Z" fill="white"/>
</g>
<g id="Group_45">
<path id="Vector_44" d="M466.004 169.321C466.004 169.321 466.004 168.294 466.004 166.241C466.004 164.187 466.724 162.534 468.164 161.281C469.604 160.027 471.257 159.387 473.124 159.361C475.017 159.361 476.697 159.921 478.164 161.041C479.63 162.161 480.364 163.614 480.364 165.401C480.364 166.201 480.217 166.947 479.924 167.641C479.63 168.334 479.284 168.894 478.884 169.321C478.484 169.747 478.07 170.121 477.644 170.441C477.217 170.761 476.87 171.001 476.604 171.161C476.337 171.321 476.19 171.427 476.164 171.481L476.724 171.841C477.097 172.107 477.47 172.374 477.844 172.641C478.217 172.907 478.43 173.054 478.484 173.081C480.484 174.654 481.484 176.641 481.484 179.041C481.484 181.147 480.71 182.974 479.164 184.521C477.617 186.067 475.617 186.854 473.164 186.881C470.764 186.881 468.79 186.201 467.244 184.841C465.697 183.481 464.924 181.801 464.924 179.801C464.924 176.921 466.644 174.521 470.084 172.601L469.364 172.081C468.804 171.734 468.444 171.467 468.284 171.281C466.764 169.974 466.004 168.294 466.004 166.241V169.321ZM474.644 170.561L474.884 170.401C475.044 170.294 475.164 170.214 475.244 170.161C475.324 170.107 475.457 170.014 475.644 169.881C475.83 169.747 475.99 169.614 476.124 169.481C476.257 169.347 476.404 169.187 476.564 169.001C476.724 168.814 476.87 168.641 477.004 168.481C477.137 168.321 477.27 168.107 477.404 167.841C477.537 167.574 477.657 167.347 477.764 167.161C477.87 166.974 477.937 166.707 477.964 166.361C477.99 166.014 478.017 165.721 478.044 165.481C478.044 164.334 477.657 163.361 476.884 162.561C476.11 161.761 475.217 161.254 474.204 161.041C474.017 161.014 473.577 161.001 472.884 161.001C471.79 161.001 470.764 161.347 469.804 162.041C468.844 162.734 468.35 163.601 468.324 164.641C468.324 165.254 468.497 165.814 468.844 166.321C469.19 166.827 469.537 167.214 469.884 167.481C470.23 167.747 470.897 168.174 471.884 168.761C472.07 168.894 472.217 168.987 472.324 169.041L474.644 170.561ZM473.204 185.161C474.75 185.161 476.084 184.707 477.204 183.801C478.324 182.894 478.884 181.801 478.884 180.521C478.884 180.067 478.817 179.641 478.684 179.241C478.55 178.841 478.39 178.507 478.204 178.241C478.017 177.974 477.724 177.681 477.324 177.361C476.924 177.041 476.617 176.801 476.404 176.641C476.19 176.481 475.804 176.227 475.244 175.881C474.684 175.534 474.324 175.307 474.164 175.201C473.79 174.961 473.39 174.707 472.964 174.441C472.537 174.174 472.19 173.947 471.924 173.761L471.604 173.561C471.444 173.561 471.057 173.787 470.444 174.241C469.83 174.694 469.19 175.427 468.524 176.441C467.857 177.454 467.51 178.547 467.484 179.721C467.484 181.294 468.057 182.587 469.204 183.601C470.35 184.614 471.684 185.134 473.204 185.161Z" fill="white"/>
</g>
<g id="Group_46">
<path id="Vector_45" d="M494.332 176.52C494.332 176.52 494.332 176.347 494.332 176C494.332 175.654 494.518 175.387 494.892 175.2H506.852V169.2L506.892 163.2C507.158 162.854 507.412 162.68 507.652 162.68C507.998 162.68 508.265 162.88 508.452 163.28V175.2H520.372C520.772 175.414 520.972 175.68 520.972 176C520.972 176.32 520.772 176.587 520.372 176.8H508.452V188.72C508.238 189.094 507.998 189.28 507.732 189.28H507.652H507.572C507.252 189.28 507.012 189.094 506.852 188.72V176.8H494.892C494.518 176.614 494.332 176.347 494.332 176V176.52Z" fill="white"/>
</g>
<g id="Group_47">
<path id="Vector_46" d="M536.464 168.84C535.744 168.84 535.17 168.6 534.744 168.12C534.317 167.64 534.104 167.054 534.104 166.36C534.104 164.467 534.81 162.827 536.224 161.44C537.637 160.054 539.397 159.36 541.504 159.36C543.93 159.36 545.957 160.107 547.584 161.6C549.21 163.094 550.037 165.027 550.064 167.4C550.064 168.547 549.797 169.64 549.264 170.68C548.73 171.72 548.09 172.627 547.344 173.4C546.597 174.174 545.53 175.16 544.144 176.36C543.184 177.187 541.85 178.414 540.144 180.04L537.784 182.28L540.824 182.32C545.01 182.32 547.237 182.254 547.504 182.12C547.69 182.067 548.01 180.88 548.464 178.56V178.44H550.064V178.56C550.037 178.64 549.864 179.854 549.544 182.2C549.224 184.547 549.024 185.774 548.944 185.88V186H534.104V185.24V184.76C534.104 184.574 534.184 184.374 534.344 184.16C534.504 183.947 534.904 183.48 535.544 182.76C536.317 181.907 536.984 181.16 537.544 180.52C537.784 180.254 538.237 179.76 538.904 179.04C539.57 178.32 540.024 177.827 540.264 177.56C540.504 177.294 540.89 176.854 541.424 176.24C541.957 175.627 542.33 175.174 542.544 174.88C542.757 174.587 543.064 174.187 543.464 173.68C543.864 173.174 544.144 172.747 544.304 172.4C544.464 172.054 544.664 171.667 544.904 171.24C545.144 170.814 545.317 170.387 545.424 169.96C545.53 169.534 545.624 169.134 545.704 168.76C545.784 168.387 545.824 167.947 545.824 167.44C545.824 165.76 545.37 164.307 544.464 163.08C543.557 161.854 542.264 161.24 540.584 161.24C539.704 161.24 538.93 161.467 538.264 161.92C537.597 162.374 537.13 162.814 536.864 163.24C536.597 163.667 536.464 163.92 536.464 164C536.464 164.027 536.53 164.04 536.664 164.04C537.144 164.04 537.637 164.227 538.144 164.6C538.65 164.974 538.904 165.587 538.904 166.44C538.904 167.107 538.69 167.667 538.264 168.12C537.837 168.574 537.237 168.814 536.464 168.84Z" fill="white"/>
</g>
<g id="Group_48">
<path id="Vector_47" d="M555.864 176C555.864 174.16 555.998 172.414 556.264 170.76C556.531 169.107 556.838 167.68 557.184 166.48C557.531 165.28 558.024 164.107 558.664 162.96C559.304 161.814 559.811 160.92 560.184 160.28C560.558 159.64 561.118 158.947 561.864 158.2C562.611 157.454 563.051 157 563.184 156.84C563.318 156.68 563.651 156.4 564.184 156H564.704H564.864C565.238 156 565.424 156.12 565.424 156.36C565.424 156.44 565.198 156.72 564.744 157.2C564.291 157.68 563.744 158.387 563.104 159.32C562.464 160.254 561.811 161.4 561.144 162.76C560.478 164.12 559.918 165.96 559.464 168.28C559.011 170.6 558.784 173.174 558.784 176C558.784 178.827 559.011 181.387 559.464 183.68C559.918 185.974 560.464 187.827 561.104 189.24C561.744 190.654 562.398 191.8 563.064 192.68C563.731 193.56 564.291 194.267 564.744 194.8C565.198 195.334 565.424 195.614 565.424 195.64C565.424 195.88 565.224 196 564.824 196H564.704H564.184L563.064 195.04C560.558 192.774 558.731 189.947 557.584 186.56C556.438 183.174 555.864 179.654 555.864 176Z" fill="white"/>
</g>
<g id="Group_49">
<path id="Vector_48" d="M576.184 162.88L575.664 163.08C575.291 163.214 574.757 163.347 574.064 163.48C573.371 163.614 572.597 163.707 571.744 163.76H570.984V161.92H571.744C572.997 161.867 574.157 161.667 575.224 161.32C576.291 160.974 577.037 160.654 577.464 160.36C577.891 160.067 578.264 159.774 578.584 159.48C578.637 159.4 578.797 159.36 579.064 159.36C579.304 159.36 579.531 159.44 579.744 159.6V171.56L579.784 183.56C579.971 183.747 580.131 183.867 580.264 183.92C580.397 183.974 580.717 184.027 581.224 184.08C581.731 184.134 582.557 184.16 583.704 184.16H584.744V186H584.304C583.744 185.92 581.624 185.88 577.944 185.88C574.317 185.88 572.224 185.92 571.664 186H571.184V184.16H572.224C572.811 184.16 573.317 184.16 573.744 184.16C574.171 184.16 574.504 184.147 574.744 184.12C574.984 184.094 575.197 184.054 575.384 184C575.571 183.947 575.677 183.92 575.704 183.92C575.731 183.92 575.811 183.854 575.944 183.72C576.077 183.587 576.157 183.534 576.184 183.56V162.88Z" fill="white"/>
</g>
<g id="Group_50">
<path id="Vector_49" d="M598.792 176.52C598.792 176.52 598.792 176.347 598.792 176C598.792 175.654 598.979 175.387 599.352 175.2H611.312V169.2L611.352 163.2C611.619 162.854 611.872 162.68 612.112 162.68C612.459 162.68 612.726 162.88 612.912 163.28V175.2H624.832C625.232 175.414 625.432 175.68 625.432 176C625.432 176.32 625.232 176.587 624.832 176.8H612.912V188.72C612.699 189.094 612.459 189.28 612.192 189.28H612.112H612.032C611.712 189.28 611.472 189.094 611.312 188.72V176.8H599.352C598.979 176.614 598.792 176.347 598.792 176V176.52Z" fill="white"/>
</g>
<g id="Group_51">
<path id="Vector_50" d="M655.041 186C654.561 185.92 652.841 185.88 649.881 185.88C646.787 185.88 645.001 185.92 644.521 186H644.161V184.16H645.401C645.934 184.16 646.294 184.16 646.481 184.16C646.667 184.16 646.894 184.134 647.161 184.08C647.427 184.027 647.614 183.96 647.721 183.88C647.827 183.8 647.921 183.694 648.001 183.56C648.027 183.507 648.041 182.787 648.041 181.4V179.4H637.681V177.56L643.721 168.32C647.801 162.134 649.867 159.027 649.921 159C649.974 158.947 650.254 158.92 650.761 158.92H651.481L651.721 159.16V177.56H655.401V179.4H651.721V181.44C651.721 182.534 651.721 183.174 651.721 183.36C651.721 183.547 651.801 183.707 651.961 183.84C652.174 184.027 652.934 184.134 654.241 184.16H655.401V186H655.041ZM648.281 177.56V164.2L639.521 177.52L643.881 177.56H648.281Z" fill="white"/>
</g>
<g id="Group_52">
<path id="Vector_51" d="M658.96 156.04L659.12 156C659.254 156 659.387 156 659.52 156H660L661.12 156.96C663.627 159.227 665.454 162.054 666.6 165.44C667.747 168.827 668.32 172.347 668.32 176C668.32 177.814 668.187 179.56 667.92 181.24C667.654 182.92 667.347 184.347 667 185.52C666.654 186.694 666.16 187.867 665.52 189.04C664.88 190.214 664.374 191.107 664 191.72C663.627 192.334 663.08 193.014 662.36 193.76C661.64 194.507 661.214 194.947 661.08 195.08C660.947 195.214 660.64 195.467 660.16 195.84C660.08 195.92 660.027 195.974 660 196H659.52C659.307 196 659.16 196 659.08 196C659 196 658.934 195.96 658.88 195.88C658.827 195.8 658.787 195.68 658.76 195.52C658.787 195.494 658.934 195.32 659.2 195C663.334 190.707 665.4 184.374 665.4 176C665.4 167.627 663.334 161.294 659.2 157C658.934 156.68 658.787 156.507 658.76 156.48C658.76 156.267 658.827 156.12 658.96 156.04Z" fill="white"/>
</g>
<g id="Group_53">
<path id="Vector_52" d="M685.472 172.12C685.472 171.774 685.659 171.507 686.032 171.32H711.512C711.912 171.534 712.112 171.8 712.112 172.12C712.112 172.414 711.926 172.667 711.552 172.88L698.832 172.92H686.112C685.686 172.787 685.472 172.52 685.472 172.12ZM685.472 179.88C685.472 179.48 685.686 179.214 686.112 179.08H711.552C711.926 179.347 712.112 179.614 712.112 179.88C712.112 180.227 711.912 180.494 711.512 180.68H686.032C685.659 180.494 685.472 180.227 685.472 179.88Z" fill="white"/>
</g>
<g id="Group_54">
<path id="Vector_53" d="M728.264 169.321C728.264 169.321 728.264 168.294 728.264 166.241C728.264 164.187 728.984 162.534 730.424 161.281C731.864 160.027 733.517 159.387 735.384 159.361C737.277 159.361 738.957 159.921 740.424 161.041C741.891 162.161 742.624 163.614 742.624 165.401C742.624 166.201 742.477 166.947 742.184 167.641C741.891 168.334 741.544 168.894 741.144 169.321C740.744 169.747 740.331 170.121 739.904 170.441C739.477 170.761 739.131 171.001 738.864 171.161C738.597 171.321 738.451 171.427 738.424 171.481L738.984 171.841C739.357 172.107 739.731 172.374 740.104 172.641C740.477 172.907 740.691 173.054 740.744 173.081C742.744 174.654 743.744 176.641 743.744 179.041C743.744 181.147 742.971 182.974 741.424 184.521C739.877 186.067 737.877 186.854 735.424 186.881C733.024 186.881 731.051 186.201 729.504 184.841C727.957 183.481 727.184 181.801 727.184 179.801C727.184 176.921 728.904 174.521 732.344 172.601L731.624 172.081C731.064 171.734 730.704 171.467 730.544 171.281C729.024 169.974 728.264 168.294 728.264 166.241V169.321ZM736.904 170.561L737.144 170.401C737.304 170.294 737.424 170.214 737.504 170.161C737.584 170.107 737.717 170.014 737.904 169.881C738.091 169.747 738.251 169.614 738.384 169.481C738.517 169.347 738.664 169.187 738.824 169.001C738.984 168.814 739.131 168.641 739.264 168.481C739.397 168.321 739.531 168.107 739.664 167.841C739.797 167.574 739.917 167.347 740.024 167.161C740.131 166.974 740.197 166.707 740.224 166.361C740.251 166.014 740.277 165.721 740.304 165.481C740.304 164.334 739.917 163.361 739.144 162.561C738.371 161.761 737.477 161.254 736.464 161.041C736.277 161.014 735.837 161.001 735.144 161.001C734.051 161.001 733.024 161.347 732.064 162.041C731.104 162.734 730.611 163.601 730.584 164.641C730.584 165.254 730.757 165.814 731.104 166.321C731.451 166.827 731.797 167.214 732.144 167.481C732.491 167.747 733.157 168.174 734.144 168.761C734.331 168.894 734.477 168.987 734.584 169.041L736.904 170.561ZM735.464 185.161C737.011 185.161 738.344 184.707 739.464 183.801C740.584 182.894 741.144 181.801 741.144 180.521C741.144 180.067 741.077 179.641 740.944 179.241C740.811 178.841 740.651 178.507 740.464 178.241C740.277 177.974 739.984 177.681 739.584 177.361C739.184 177.041 738.877 176.801 738.664 176.641C738.451 176.481 738.064 176.227 737.504 175.881C736.944 175.534 736.584 175.307 736.424 175.201C736.051 174.961 735.651 174.707 735.224 174.441C734.797 174.174 734.451 173.947 734.184 173.761L733.864 173.561C733.704 173.561 733.317 173.787 732.704 174.241C732.091 174.694 731.451 175.427 730.784 176.441C730.117 177.454 729.771 178.547 729.744 179.721C729.744 181.294 730.317 182.587 731.464 183.601C732.611 184.614 733.944 185.134 735.464 185.161Z" fill="white"/>
</g>
<g id="Group_55">
<path id="Vector_54" d="M756.592 176.52C756.592 176.52 756.592 176.347 756.592 176C756.592 175.654 756.778 175.387 757.152 175.2H769.112V169.2L769.152 163.2C769.418 162.854 769.672 162.68 769.912 162.68C770.258 162.68 770.525 162.88 770.712 163.28V175.2H782.632C783.032 175.414 783.232 175.68 783.232 176C783.232 176.32 783.032 176.587 782.632 176.8H770.712V188.72C770.498 189.094 770.258 189.28 769.992 189.28H769.912H769.832C769.512 189.28 769.272 189.094 769.112 188.72V176.8H757.152C756.778 176.614 756.592 176.347 756.592 176V176.52Z" fill="white"/>
</g>
<g id="Group_56">
<path id="Vector_55" d="M798.72 168.84C798 168.84 797.427 168.6 797 168.12C796.573 167.64 796.36 167.054 796.36 166.36C796.36 164.467 797.067 162.827 798.48 161.44C799.893 160.054 801.653 159.36 803.76 159.36C806.187 159.36 808.213 160.107 809.84 161.6C811.467 163.094 812.293 165.027 812.32 167.4C812.32 168.547 812.053 169.64 811.52 170.68C810.987 171.72 810.347 172.627 809.6 173.4C808.853 174.174 807.787 175.16 806.4 176.36C805.44 177.187 804.107 178.414 802.4 180.04L800.04 182.28L803.08 182.32C807.267 182.32 809.493 182.254 809.76 182.12C809.947 182.067 810.267 180.88 810.72 178.56V178.44H812.32V178.56C812.293 178.64 812.12 179.854 811.8 182.2C811.48 184.547 811.28 185.774 811.2 185.88V186H796.36V185.24V184.76C796.36 184.574 796.44 184.374 796.6 184.16C796.76 183.947 797.16 183.48 797.8 182.76C798.573 181.907 799.24 181.16 799.8 180.52C800.04 180.254 800.493 179.76 801.16 179.04C801.827 178.32 802.28 177.827 802.52 177.56C802.76 177.294 803.147 176.854 803.68 176.24C804.213 175.627 804.587 175.174 804.8 174.88C805.013 174.587 805.32 174.187 805.72 173.68C806.12 173.174 806.4 172.747 806.56 172.4C806.72 172.054 806.92 171.667 807.16 171.24C807.4 170.814 807.573 170.387 807.68 169.96C807.787 169.534 807.88 169.134 807.96 168.76C808.04 168.387 808.08 167.947 808.08 167.44C808.08 165.76 807.627 164.307 806.72 163.08C805.813 161.854 804.52 161.24 802.84 161.24C801.96 161.24 801.187 161.467 800.52 161.92C799.853 162.374 799.387 162.814 799.12 163.24C798.853 163.667 798.72 163.92 798.72 164C798.72 164.027 798.787 164.04 798.92 164.04C799.4 164.04 799.893 164.227 800.4 164.6C800.907 164.974 801.16 165.587 801.16 166.44C801.16 167.107 800.947 167.667 800.52 168.12C800.093 168.574 799.493 168.814 798.72 168.84Z" fill="white"/>
</g>
<g id="Group_57">
<path id="Vector_56" d="M818.12 176C818.12 174.16 818.253 172.414 818.52 170.76C818.787 169.107 819.093 167.68 819.44 166.48C819.787 165.28 820.28 164.107 820.92 162.96C821.56 161.814 822.067 160.92 822.44 160.28C822.813 159.64 823.373 158.947 824.12 158.2C824.867 157.454 825.307 157 825.44 156.84C825.573 156.68 825.907 156.4 826.44 156H826.96H827.12C827.493 156 827.68 156.12 827.68 156.36C827.68 156.44 827.453 156.72 827 157.2C826.547 157.68 826 158.387 825.36 159.32C824.72 160.254 824.067 161.4 823.4 162.76C822.733 164.12 822.173 165.96 821.72 168.28C821.267 170.6 821.04 173.174 821.04 176C821.04 178.827 821.267 181.387 821.72 183.68C822.173 185.974 822.72 187.827 823.36 189.24C824 190.654 824.653 191.8 825.32 192.68C825.987 193.56 826.547 194.267 827 194.8C827.453 195.334 827.68 195.614 827.68 195.64C827.68 195.88 827.48 196 827.08 196H826.96H826.44L825.32 195.04C822.813 192.774 820.987 189.947 819.84 186.56C818.693 183.174 818.12 179.654 818.12 176Z" fill="white"/>
</g>
<g id="Group_58">
<path id="Vector_57" d="M836.479 179.721C836.479 180.361 836.266 180.894 835.839 181.321C835.413 181.747 834.893 181.961 834.279 181.961H833.999C835.226 184.067 836.853 185.121 838.879 185.121C840.746 185.121 842.106 184.321 842.959 182.721C843.466 181.841 843.719 180.134 843.719 177.601C843.719 174.854 843.359 173.001 842.639 172.041C841.946 171.161 841.173 170.721 840.319 170.721H840.079C837.999 170.721 836.426 171.627 835.359 173.441C835.253 173.627 835.159 173.734 835.079 173.761C834.999 173.787 834.799 173.814 834.479 173.841C834.026 173.841 833.773 173.761 833.719 173.601C833.666 173.494 833.639 171.161 833.639 166.601V161.441C833.639 160.107 833.706 159.441 833.839 159.441C833.893 159.387 833.946 159.361 833.999 159.361C834.026 159.361 834.306 159.467 834.839 159.681C835.373 159.894 836.106 160.107 837.039 160.321C837.973 160.534 838.973 160.641 840.039 160.641C841.933 160.641 843.746 160.267 845.479 159.521C845.693 159.414 845.866 159.361 845.999 159.361C846.213 159.361 846.319 159.601 846.319 160.081V160.601C844.133 163.187 841.399 164.481 838.119 164.481C837.293 164.481 836.546 164.401 835.879 164.241L835.479 164.161V171.041C835.986 170.667 836.386 170.374 836.679 170.161C836.973 169.947 837.453 169.734 838.119 169.521C838.786 169.307 839.466 169.201 840.159 169.201C842.319 169.201 844.146 170.067 845.639 171.801C847.133 173.534 847.879 175.587 847.879 177.961C847.879 180.414 847.026 182.507 845.319 184.241C843.613 185.974 841.533 186.854 839.079 186.881C836.919 186.881 835.186 186.161 833.879 184.721C832.573 183.281 831.919 181.654 831.919 179.841C831.919 179.201 832.066 178.694 832.359 178.321C832.653 177.947 832.959 177.707 833.279 177.601C833.599 177.494 833.906 177.441 834.199 177.441C834.866 177.441 835.413 177.667 835.839 178.121C836.266 178.574 836.479 179.107 836.479 179.721Z" fill="white"/>
</g>
<g id="Group_59">
<path id="Vector_58" d="M852.32 156.04L852.48 156C852.613 156 852.747 156 852.88 156H853.36L854.48 156.96C856.987 159.227 858.813 162.054 859.96 165.44C861.107 168.827 861.68 172.347 861.68 176C861.68 177.814 861.547 179.56 861.28 181.24C861.013 182.92 860.707 184.347 860.36 185.52C860.013 186.694 859.52 187.867 858.88 189.04C858.24 190.214 857.733 191.107 857.36 191.72C856.987 192.334 856.44 193.014 855.72 193.76C855 194.507 854.573 194.947 854.44 195.08C854.307 195.214 854 195.467 853.52 195.84C853.44 195.92 853.387 195.974 853.36 196H852.88C852.667 196 852.52 196 852.44 196C852.36 196 852.293 195.96 852.24 195.88C852.187 195.8 852.147 195.68 852.12 195.52C852.147 195.494 852.293 195.32 852.56 195C856.693 190.707 858.76 184.374 858.76 176C858.76 167.627 856.693 161.294 852.56 157C852.293 156.68 852.147 156.507 852.12 156.48C852.12 156.267 852.187 156.12 852.32 156.04Z" fill="white"/>
</g>
</g>
<g id="Group 27">
<g id="Group_60">
<path id="Vector_59" d="M441.96 244.2C441.96 243.507 442.2 242.933 442.68 242.48C443.16 242.027 443.733 241.8 444.4 241.8C445.04 241.8 445.587 242.027 446.04 242.48C446.493 242.933 446.733 243.507 446.76 244.2C446.787 244.893 446.56 245.467 446.08 245.92C445.6 246.373 445.027 246.6 444.36 246.6C443.667 246.6 443.093 246.373 442.64 245.92C442.187 245.467 441.96 244.893 441.96 244.2ZM434.4 259.12C435.093 259.12 435.653 259.347 436.08 259.8C436.507 260.253 436.733 260.827 436.76 261.52C436.76 262.16 436.547 262.72 436.12 263.2C435.693 263.68 435.107 263.92 434.36 263.92C433.667 263.92 433.107 263.693 432.68 263.24C432.253 262.787 432.027 262.213 432 261.52C432 260.827 432.227 260.253 432.68 259.8C433.133 259.347 433.707 259.12 434.4 259.12ZM452 261.52C452 260.827 452.227 260.253 452.68 259.8C453.133 259.347 453.707 259.12 454.4 259.12C455.04 259.12 455.587 259.347 456.04 259.8C456.493 260.253 456.733 260.827 456.76 261.52C456.76 262.133 456.547 262.68 456.12 263.16C455.693 263.64 455.107 263.893 454.36 263.92C453.667 263.92 453.107 263.693 452.68 263.24C452.253 262.787 452.027 262.213 452 261.52Z" fill="white"/>
</g>
<g id="Group_61">
<path id="Vector_60" d="M482.021 249.08C482.207 247.96 482.927 246.667 484.181 245.2C485.434 243.733 486.981 242.987 488.821 242.96C489.754 242.96 490.607 243.2 491.381 243.68C492.154 244.16 492.727 244.76 493.101 245.48C494.221 243.8 495.567 242.96 497.141 242.96C498.127 242.96 498.981 243.253 499.701 243.84C500.421 244.427 500.794 245.213 500.821 246.2C500.821 246.973 500.634 247.6 500.261 248.08C499.887 248.56 499.527 248.853 499.181 248.96C498.834 249.067 498.527 249.12 498.261 249.12C497.754 249.12 497.341 248.973 497.021 248.68C496.701 248.387 496.541 248 496.541 247.52C496.541 246.293 497.207 245.453 498.541 245C498.247 244.653 497.714 244.48 496.941 244.48C496.594 244.48 496.341 244.507 496.181 244.56C495.167 244.987 494.421 245.867 493.941 247.2C492.341 253.093 491.541 256.533 491.541 257.52C491.541 258.267 491.754 258.8 492.181 259.12C492.607 259.44 493.074 259.6 493.581 259.6C494.567 259.6 495.541 259.16 496.501 258.28C497.461 257.4 498.114 256.32 498.461 255.04C498.541 254.773 498.621 254.627 498.701 254.6C498.781 254.573 498.994 254.547 499.341 254.52H499.501C499.901 254.52 500.101 254.627 500.101 254.84C500.101 254.867 500.074 255.013 500.021 255.28C499.594 256.8 498.767 258.147 497.541 259.32C496.314 260.493 494.887 261.08 493.261 261.08C491.394 261.08 489.981 260.24 489.021 258.56C487.927 260.213 486.674 261.04 485.261 261.04H485.021C483.714 261.04 482.781 260.693 482.221 260C481.661 259.307 481.367 258.573 481.341 257.8C481.341 256.947 481.594 256.253 482.101 255.72C482.607 255.187 483.207 254.92 483.901 254.92C485.047 254.92 485.621 255.48 485.621 256.6C485.621 257.133 485.461 257.6 485.141 258C484.821 258.4 484.514 258.667 484.221 258.8C483.927 258.933 483.754 259 483.701 259L483.581 259.04C483.581 259.067 483.661 259.12 483.821 259.2C483.981 259.28 484.194 259.373 484.461 259.48C484.727 259.587 484.981 259.627 485.221 259.6C486.181 259.6 487.007 259 487.701 257.8C487.941 257.373 488.247 256.467 488.621 255.08C488.994 253.693 489.367 252.253 489.741 250.76C490.114 249.267 490.327 248.387 490.381 248.12C490.514 247.4 490.581 246.88 490.581 246.56C490.581 245.813 490.381 245.28 489.981 244.96C489.581 244.64 489.127 244.48 488.621 244.48C487.554 244.48 486.554 244.907 485.621 245.76C484.687 246.613 484.034 247.707 483.661 249.04C483.607 249.28 483.541 249.413 483.461 249.44C483.381 249.467 483.167 249.493 482.821 249.52H482.261C482.101 249.36 482.021 249.213 482.021 249.08Z" fill="white"/>
</g>
<g id="Group_62">
<path id="Vector_61" d="M516.172 246.76C516.172 246.413 516.359 246.147 516.732 245.96H542.212C542.612 246.173 542.812 246.44 542.812 246.76C542.812 247.053 542.626 247.307 542.252 247.52L529.532 247.56H516.812C516.386 247.427 516.172 247.16 516.172 246.76ZM516.172 254.52C516.172 254.12 516.386 253.853 516.812 253.72H542.252C542.626 253.987 542.812 254.253 542.812 254.52C542.812 254.867 542.612 255.133 542.212 255.32H516.732C516.359 255.133 516.172 254.867 516.172 254.52Z" fill="white"/>
</g>
<g id="Group_63">
<path id="Vector_62" d="M558.965 243.96C558.965 243.96 558.965 242.933 558.965 240.88C558.965 238.827 559.685 237.173 561.125 235.92C562.565 234.667 564.218 234.027 566.085 234C567.978 234 569.658 234.56 571.125 235.68C572.591 236.8 573.325 238.253 573.325 240.04C573.325 240.84 573.178 241.587 572.885 242.28C572.591 242.973 572.245 243.533 571.845 243.96C571.445 244.387 571.031 244.76 570.605 245.08C570.178 245.4 569.831 245.64 569.565 245.8C569.298 245.96 569.151 246.067 569.125 246.12L569.685 246.48C570.058 246.747 570.431 247.013 570.805 247.28C571.178 247.547 571.391 247.693 571.445 247.72C573.445 249.293 574.445 251.28 574.445 253.68C574.445 255.787 573.671 257.613 572.125 259.16C570.578 260.707 568.578 261.493 566.125 261.52C563.725 261.52 561.751 260.84 560.205 259.48C558.658 258.12 557.885 256.44 557.885 254.44C557.885 251.56 559.605 249.16 563.045 247.24L562.325 246.72C561.765 246.373 561.405 246.107 561.245 245.92C559.725 244.613 558.965 242.933 558.965 240.88V243.96ZM567.605 245.2L567.845 245.04C568.005 244.933 568.125 244.853 568.205 244.8C568.285 244.747 568.418 244.653 568.605 244.52C568.791 244.387 568.951 244.253 569.085 244.12C569.218 243.987 569.365 243.827 569.525 243.64C569.685 243.453 569.831 243.28 569.965 243.12C570.098 242.96 570.231 242.747 570.365 242.48C570.498 242.213 570.618 241.987 570.725 241.8C570.831 241.613 570.898 241.347 570.925 241C570.951 240.653 570.978 240.36 571.005 240.12C571.005 238.973 570.618 238 569.845 237.2C569.071 236.4 568.178 235.893 567.165 235.68C566.978 235.653 566.538 235.64 565.845 235.64C564.751 235.64 563.725 235.987 562.765 236.68C561.805 237.373 561.311 238.24 561.285 239.28C561.285 239.893 561.458 240.453 561.805 240.96C562.151 241.467 562.498 241.853 562.845 242.12C563.191 242.387 563.858 242.813 564.845 243.4C565.031 243.533 565.178 243.627 565.285 243.68L567.605 245.2ZM566.165 259.8C567.711 259.8 569.045 259.347 570.165 258.44C571.285 257.533 571.845 256.44 571.845 255.16C571.845 254.707 571.778 254.28 571.645 253.88C571.511 253.48 571.351 253.147 571.165 252.88C570.978 252.613 570.685 252.32 570.285 252C569.885 251.68 569.578 251.44 569.365 251.28C569.151 251.12 568.765 250.867 568.205 250.52C567.645 250.173 567.285 249.947 567.125 249.84C566.751 249.6 566.351 249.347 565.925 249.08C565.498 248.813 565.151 248.587 564.885 248.4L564.565 248.2C564.405 248.2 564.018 248.427 563.405 248.88C562.791 249.333 562.151 250.067 561.485 251.08C560.818 252.093 560.471 253.187 560.445 254.36C560.445 255.933 561.018 257.227 562.165 258.24C563.311 259.253 564.645 259.773 566.165 259.8Z" fill="white"/>
</g>
<g id="Group_64">
<path id="Vector_63" d="M587.292 251.16C587.292 251.16 587.292 250.987 587.292 250.64C587.292 250.293 587.479 250.027 587.852 249.84H599.812V243.84L599.852 237.84C600.119 237.493 600.372 237.32 600.612 237.32C600.959 237.32 601.226 237.52 601.412 237.92V249.84H613.332C613.732 250.053 613.932 250.32 613.932 250.64C613.932 250.96 613.732 251.227 613.332 251.44H601.412V263.36C601.199 263.733 600.959 263.92 600.692 263.92H600.612H600.532C600.212 263.92 599.972 263.733 599.812 263.36V251.44H587.852C587.479 251.253 587.292 250.987 587.292 250.64V251.16Z" fill="white"/>
</g>
<g id="Group_65">
<path id="Vector_64" d="M633.58 237.52L633.06 237.72C632.687 237.854 632.154 237.987 631.46 238.12C630.767 238.254 629.994 238.347 629.14 238.4H628.38V236.56H629.14C630.394 236.507 631.554 236.307 632.62 235.96C633.687 235.614 634.434 235.294 634.86 235C635.287 234.707 635.66 234.414 635.98 234.12C636.034 234.04 636.194 234 636.46 234C636.7 234 636.927 234.08 637.14 234.24V246.2L637.18 258.2C637.367 258.387 637.527 258.507 637.66 258.56C637.794 258.614 638.114 258.667 638.62 258.72C639.127 258.774 639.954 258.8 641.1 258.8H642.14V260.64H641.7C641.14 260.56 639.02 260.52 635.34 260.52C631.714 260.52 629.62 260.56 629.06 260.64H628.58V258.8H629.62C630.207 258.8 630.714 258.8 631.14 258.8C631.567 258.8 631.9 258.787 632.14 258.76C632.38 258.734 632.594 258.694 632.78 258.64C632.967 258.587 633.074 258.56 633.1 258.56C633.127 258.56 633.207 258.494 633.34 258.36C633.474 258.227 633.554 258.174 633.58 258.2V237.52Z" fill="white"/>
<path id="Vector_65" d="M648.9 237.24C650.393 235.08 652.433 234 655.02 234C656.3 234 657.58 234.347 658.86 235.04C660.14 235.733 661.18 236.96 661.98 238.72C662.967 240.933 663.46 243.973 663.46 247.84C663.46 251.973 662.887 255.133 661.74 257.32C661.207 258.44 660.473 259.333 659.54 260C658.607 260.667 657.793 261.08 657.1 261.24C656.407 261.4 655.727 261.493 655.06 261.52C654.367 261.52 653.673 261.44 652.98 261.28C652.287 261.12 651.473 260.693 650.54 260C649.607 259.307 648.873 258.413 648.34 257.32C647.193 255.133 646.62 251.973 646.62 247.84C646.62 243.2 647.38 239.667 648.9 237.24ZM657.9 236.76C657.1 235.907 656.153 235.48 655.06 235.48C653.94 235.48 652.98 235.907 652.18 236.76C651.513 237.453 651.073 238.413 650.86 239.64C650.647 240.867 650.54 243.427 650.54 247.32C650.54 251.533 650.647 254.307 650.86 255.64C651.073 256.973 651.553 258.027 652.3 258.8C653.047 259.6 653.967 260 655.06 260C656.127 260 657.033 259.6 657.78 258.8C658.553 258 659.033 256.88 659.22 255.44C659.407 254 659.513 251.293 659.54 247.32C659.54 243.453 659.433 240.907 659.22 239.68C659.007 238.453 658.567 237.48 657.9 236.76Z" fill="white"/>
</g>
<g id="Group_66">
<path id="Vector_66" d="M678.413 246.76C678.413 246.413 678.599 246.147 678.973 245.96H704.453C704.853 246.173 705.053 246.44 705.053 246.76C705.053 247.053 704.866 247.307 704.493 247.52L691.773 247.56H679.053C678.626 247.427 678.413 247.16 678.413 246.76ZM678.413 254.52C678.413 254.12 678.626 253.853 679.053 253.72H704.493C704.866 253.987 705.053 254.253 705.053 254.52C705.053 254.867 704.853 255.133 704.453 255.32H678.973C678.599 255.133 678.413 254.867 678.413 254.52Z" fill="white"/>
</g>
<g id="Group_67">
<path id="Vector_67" d="M726.925 237.52L726.405 237.72C726.031 237.853 725.498 237.987 724.805 238.12C724.111 238.253 723.338 238.347 722.485 238.4H721.725V236.56H722.485C723.738 236.507 724.898 236.307 725.965 235.96C727.031 235.613 727.778 235.293 728.205 235C728.631 234.707 729.005 234.413 729.325 234.12C729.378 234.04 729.538 234 729.805 234C730.045 234 730.271 234.08 730.485 234.24V246.2L730.525 258.2C730.711 258.387 730.871 258.507 731.005 258.56C731.138 258.613 731.458 258.667 731.965 258.72C732.471 258.773 733.298 258.8 734.445 258.8H735.485V260.64H735.045C734.485 260.56 732.365 260.52 728.685 260.52C725.058 260.52 722.965 260.56 722.405 260.64H721.925V258.8H722.965C723.551 258.8 724.058 258.8 724.485 258.8C724.911 258.8 725.245 258.787 725.485 258.76C725.725 258.733 725.938 258.693 726.125 258.64C726.311 258.587 726.418 258.56 726.445 258.56C726.471 258.56 726.551 258.493 726.685 258.36C726.818 258.227 726.898 258.173 726.925 258.2V237.52Z" fill="white"/>
<path id="Vector_68" d="M741.205 243.96C741.205 243.96 741.205 242.933 741.205 240.88C741.205 238.827 741.925 237.173 743.365 235.92C744.805 234.667 746.458 234.027 748.325 234C750.218 234 751.898 234.56 753.365 235.68C754.831 236.8 755.565 238.253 755.565 240.04C755.565 240.84 755.418 241.587 755.125 242.28C754.831 242.973 754.485 243.533 754.085 243.96C753.685 244.387 753.271 244.76 752.845 245.08C752.418 245.4 752.071 245.64 751.805 245.8C751.538 245.96 751.391 246.067 751.365 246.12L751.925 246.48C752.298 246.747 752.671 247.013 753.045 247.28C753.418 247.547 753.631 247.693 753.685 247.72C755.685 249.293 756.685 251.28 756.685 253.68C756.685 255.787 755.911 257.613 754.365 259.16C752.818 260.707 750.818 261.493 748.365 261.52C745.965 261.52 743.991 260.84 742.445 259.48C740.898 258.12 740.125 256.44 740.125 254.44C740.125 251.56 741.845 249.16 745.285 247.24L744.565 246.72C744.005 246.373 743.645 246.107 743.485 245.92C741.965 244.613 741.205 242.933 741.205 240.88V243.96ZM749.845 245.2L750.085 245.04C750.245 244.933 750.365 244.853 750.445 244.8C750.525 244.747 750.658 244.653 750.845 244.52C751.031 244.387 751.191 244.253 751.325 244.12C751.458 243.987 751.605 243.827 751.765 243.64C751.925 243.453 752.071 243.28 752.205 243.12C752.338 242.96 752.471 242.747 752.605 242.48C752.738 242.213 752.858 241.987 752.965 241.8C753.071 241.613 753.138 241.347 753.165 241C753.191 240.653 753.218 240.36 753.245 240.12C753.245 238.973 752.858 238 752.085 237.2C751.311 236.4 750.418 235.893 749.405 235.68C749.218 235.653 748.778 235.64 748.085 235.64C746.991 235.64 745.965 235.987 745.005 236.68C744.045 237.373 743.551 238.24 743.525 239.28C743.525 239.893 743.698 240.453 744.045 240.96C744.391 241.467 744.738 241.853 745.085 242.12C745.431 242.387 746.098 242.813 747.085 243.4C747.271 243.533 747.418 243.627 747.525 243.68L749.845 245.2ZM748.405 259.8C749.951 259.8 751.285 259.347 752.405 258.44C753.525 257.533 754.085 256.44 754.085 255.16C754.085 254.707 754.018 254.28 753.885 253.88C753.751 253.48 753.591 253.147 753.405 252.88C753.218 252.613 752.925 252.32 752.525 252C752.125 251.68 751.818 251.44 751.605 251.28C751.391 251.12 751.005 250.867 750.445 250.52C749.885 250.173 749.525 249.947 749.365 249.84C748.991 249.6 748.591 249.347 748.165 249.08C747.738 248.813 747.391 248.587 747.125 248.4L746.805 248.2C746.645 248.2 746.258 248.427 745.645 248.88C745.031 249.333 744.391 250.067 743.725 251.08C743.058 252.093 742.711 253.187 742.685 254.36C742.685 255.933 743.258 257.227 744.405 258.24C745.551 259.253 746.885 259.773 748.405 259.8Z" fill="white"/>
</g>
</g>
</g>
</g>
</g>
</g>
</svg>
