<svg viewBox="0 0 1078 150" fill="none" xmlns="http://www.w3.org/2000/svg"><g id="121004A"><g id="title"><g id="Partes y Cortes"><path d="M367.5 70.2344V83.5938H363V49.4688H375.586C379.32 49.4688 382.242 50.4219 384.352 52.3281 386.477 54.2344 387.539 56.7578 387.539 59.8984 387.539 63.2109 386.5 65.7656 384.422 67.5625 382.359 69.3438 379.398 70.2344 375.539 70.2344H367.5zM367.5 66.5547H375.586C377.992 66.5547 379.836 65.9922 381.117 64.8672 382.398 63.7266 383.039 62.0859 383.039 59.9453 383.039 57.9141 382.398 56.2891 381.117 55.0703 379.836 53.8516 378.078 53.2188 375.844 53.1719H367.5V66.5547z" fill="#e5e5e5"/><path d="M407.977 83.5938C407.727 83.0938 407.523 82.2031 407.367 80.9219 405.352 83.0156 402.945 84.0625 400.148 84.0625 397.648 84.0625 395.594 83.3594 393.984 81.9531 392.391 80.5312 391.594 78.7344 391.594 76.5625 391.594 73.9219 392.594 71.875 394.594 70.4219 396.609 68.9531 399.438 68.2188 403.078 68.2188H407.297V66.2266C407.297 64.7109 406.844 63.5078 405.938 62.6172 405.031 61.7109 403.695 61.2578 401.93 61.2578 400.383 61.2578 399.086 61.6484 398.039 62.4297 396.992 63.2109 396.469 64.1562 396.469 65.2656H392.109C392.109 64 392.555 62.7812 393.445 61.6094 394.352 60.4219 395.57 59.4844 397.102 58.7969 398.648 58.1094 400.344 57.7656 402.188 57.7656 405.109 57.7656 407.398 58.5 409.055 59.9688 410.711 61.4219 411.57 63.4297 411.633 65.9922V77.6641C411.633 79.9922 411.93 81.8438 412.523 83.2188v.375H407.977zM400.781 80.2891C402.141 80.2891 403.43 79.9375 404.648 79.2344 405.867 78.5312 406.75 77.6172 407.297 76.4922V71.2891H403.898C398.586 71.2891 395.93 72.8438 395.93 75.9531 395.93 77.3125 396.383 78.375 397.289 79.1406 398.195 79.9062 399.359 80.2891 400.781 80.2891z" fill="#e5e5e5"/><path d="M430.688 62.125C430.031 62.0156 429.32 61.9609 428.555 61.9609 425.711 61.9609 423.781 63.1719 422.766 65.5938v18H418.43V58.2344H422.648L422.719 61.1641C424.141 58.8984 426.156 57.7656 428.766 57.7656 429.609 57.7656 430.25 57.875 430.688 58.0938V62.125z" fill="#e5e5e5"/><path d="M441.75 52.0938V58.2344H446.484V61.5859H441.75V77.3125C441.75 78.3281 441.961 79.0938 442.383 79.6094 442.805 80.1094 443.523 80.3594 444.539 80.3594 445.039 80.3594 445.727 80.2656 446.602 80.0781V83.5938C445.461 83.9062 444.352 84.0625 443.273 84.0625 441.336 84.0625 439.875 83.4766 438.891 82.3047 437.906 81.1328 437.414 79.4688 437.414 77.3125V61.5859H432.797V58.2344H437.414V52.0938H441.75z" fill="#e5e5e5"/><path d="M462.094 84.0625C458.656 84.0625 455.859 82.9375 453.703 80.6875 451.547 78.4219 450.469 75.3984 450.469 71.6172V70.8203C450.469 68.3047 450.945 66.0625 451.898 64.0938 452.867 62.1094 454.211 60.5625 455.93 59.4531 457.664 58.3281 459.539 57.7656 461.555 57.7656 464.852 57.7656 467.414 58.8516 469.242 61.0234 471.07 63.1953 471.984 66.3047 471.984 70.3516V72.1562H454.805C454.867 74.6562 455.594 76.6797 456.984 78.2266 458.391 79.7578 460.172 80.5234 462.328 80.5234 463.859 80.5234 465.156 80.2109 466.219 79.5859 467.281 78.9609 468.211 78.1328 469.008 77.1016L471.656 79.1641C469.531 82.4297 466.344 84.0625 462.094 84.0625zM461.555 61.3281C459.805 61.3281 458.336 61.9688 457.148 63.25 455.961 64.5156 455.227 66.2969 454.945 68.5938H467.648V68.2656C467.523 66.0625 466.93 64.3594 465.867 63.1562 464.805 61.9375 463.367 61.3281 461.555 61.3281z" fill="#e5e5e5"/><path d="M491.789 76.8672C491.789 75.6953 491.344 74.7891 490.453 74.1484 489.578 73.4922 488.039 72.9297 485.836 72.4609 483.648 71.9922 481.906 71.4297 480.609 70.7734 479.328 70.1172 478.375 69.3359 477.75 68.4297 477.141 67.5234 476.836 66.4453 476.836 65.1953 476.836 63.1172 477.711 61.3594 479.461 59.9219 481.227 58.4844 483.477 57.7656 486.211 57.7656 489.086 57.7656 491.414 58.5078 493.195 59.9922 494.992 61.4766 495.891 63.375 495.891 65.6875H491.531C491.531 64.5 491.023 63.4766 490.008 62.6172 489.008 61.7578 487.742 61.3281 486.211 61.3281 484.633 61.3281 483.398 61.6719 482.508 62.3594 481.617 63.0469 481.172 63.9453 481.172 65.0547 481.172 66.1016 481.586 66.8906 482.414 67.4219 483.242 67.9531 484.734 68.4609 486.891 68.9453 489.062 69.4297 490.82 70.0078 492.164 70.6797 493.508 71.3516 494.5 72.1641 495.141 73.1172 495.797 74.0547 496.125 75.2031 496.125 76.5625 496.125 78.8281 495.219 80.6484 493.406 82.0234 491.594 83.3828 489.242 84.0625 486.352 84.0625 484.32 84.0625 482.523 83.7031 480.961 82.9844 479.398 82.2656 478.172 81.2656 477.281 79.9844 476.406 78.6875 475.969 77.2891 475.969 75.7891H480.305C480.383 77.2422 480.961 78.3984 482.039 79.2578 483.133 80.1016 484.57 80.5234 486.352 80.5234 487.992 80.5234 489.305 80.1953 490.289 79.5391 491.289 78.8672 491.789 77.9766 491.789 76.8672z" fill="#e5e5e5"/><path d="M521.977 77.2422 527.883 58.2344H532.523L522.328 87.5078C520.75 91.7266 518.242 93.8359 514.805 93.8359L513.984 93.7656 512.367 93.4609V89.9453L513.539 90.0391C515.008 90.0391 516.148 89.7422 516.961 89.1484 517.789 88.5547 518.469 87.4688 519 85.8906L519.961 83.3125 510.914 58.2344H515.648L521.977 77.2422z" fill="#e5e5e5"/><path d="M574.102 72.7656C573.68 76.375 572.344 79.1641 570.094 81.1328 567.859 83.0859 564.883 84.0625 561.164 84.0625 557.133 84.0625 553.898 82.6172 551.461 79.7266 549.039 76.8359 547.828 72.9688 547.828 68.125V64.8438C547.828 61.6719 548.391 58.8828 549.516 56.4766 550.656 54.0703 552.266 52.2266 554.344 50.9453 556.422 49.6484 558.828 49 561.562 49 565.188 49 568.094 50.0156 570.281 52.0469 572.469 54.0625 573.742 56.8594 574.102 60.4375H569.578C569.188 57.7188 568.336 55.75 567.023 54.5312 565.727 53.3125 563.906 52.7031 561.562 52.7031 558.688 52.7031 556.43 53.7656 554.789 55.8906 553.164 58.0156 552.352 61.0391 552.352 64.9609V68.2656C552.352 71.9688 553.125 74.9141 554.672 77.1016 556.219 79.2891 558.383 80.3828 561.164 80.3828 563.664 80.3828 565.578 79.8203 566.906 78.6953 568.25 77.5547 569.141 75.5781 569.578 72.7656H574.102z" fill="#e5e5e5"/><path d="M578.438 70.6797C578.438 68.1953 578.922 65.9609 579.891 63.9766 580.875 61.9922 582.234 60.4609 583.969 59.3828 585.719 58.3047 587.711 57.7656 589.945 57.7656 593.398 57.7656 596.188 58.9609 598.312 61.3516 600.453 63.7422 601.523 66.9219 601.523 70.8906V71.1953C601.523 73.6641 601.047 75.8828 600.094 77.8516 599.156 79.8047 597.805 81.3281 596.039 82.4219 594.289 83.5156 592.273 84.0625 589.992 84.0625 586.555 84.0625 583.766 82.8672 581.625 80.4766 579.5 78.0859 578.438 74.9219 578.438 70.9844V70.6797zM582.797 71.1953C582.797 74.0078 583.445 76.2656 584.742 77.9688 586.055 79.6719 587.805 80.5234 589.992 80.5234 592.195 80.5234 593.945 79.6641 595.242 77.9453 596.539 76.2109 597.188 73.7891 597.188 70.6797 597.188 67.8984 596.523 65.6484 595.195 63.9297 593.883 62.1953 592.133 61.3281 589.945 61.3281 587.805 61.3281 586.078 62.1797 584.766 63.8828 583.453 65.5859 582.797 68.0234 582.797 71.1953z" fill="#e5e5e5"/><path d="M619.219 62.125C618.562 62.0156 617.852 61.9609 617.086 61.9609 614.242 61.9609 612.312 63.1719 611.297 65.5938v18H606.961V58.2344H611.18L611.25 61.1641C612.672 58.8984 614.688 57.7656 617.297 57.7656 618.141 57.7656 618.781 57.875 619.219 58.0938V62.125z" fill="#e5e5e5"/><path d="M630.281 52.0938V58.2344H635.016V61.5859H630.281V77.3125C630.281 78.3281 630.492 79.0938 630.914 79.6094 631.336 80.1094 632.055 80.3594 633.07 80.3594 633.57 80.3594 634.258 80.2656 635.133 80.0781V83.5938C633.992 83.9062 632.883 84.0625 631.805 84.0625 629.867 84.0625 628.406 83.4766 627.422 82.3047 626.438 81.1328 625.945 79.4688 625.945 77.3125V61.5859H621.328V58.2344H625.945V52.0938H630.281z" fill="#e5e5e5"/><path d="M650.625 84.0625C647.188 84.0625 644.391 82.9375 642.234 80.6875 640.078 78.4219 639 75.3984 639 71.6172V70.8203C639 68.3047 639.477 66.0625 640.43 64.0938 641.398 62.1094 642.742 60.5625 644.461 59.4531 646.195 58.3281 648.07 57.7656 650.086 57.7656 653.383 57.7656 655.945 58.8516 657.773 61.0234 659.602 63.1953 660.516 66.3047 660.516 70.3516V72.1562H643.336C643.398 74.6562 644.125 76.6797 645.516 78.2266 646.922 79.7578 648.703 80.5234 650.859 80.5234 652.391 80.5234 653.688 80.2109 654.75 79.5859 655.812 78.9609 656.742 78.1328 657.539 77.1016L660.188 79.1641C658.062 82.4297 654.875 84.0625 650.625 84.0625zM650.086 61.3281C648.336 61.3281 646.867 61.9688 645.68 63.25 644.492 64.5156 643.758 66.2969 643.477 68.5938H656.18V68.2656C656.055 66.0625 655.461 64.3594 654.398 63.1562 653.336 61.9375 651.898 61.3281 650.086 61.3281z" fill="#e5e5e5"/><path d="M680.32 76.8672C680.32 75.6953 679.875 74.7891 678.984 74.1484 678.109 73.4922 676.57 72.9297 674.367 72.4609 672.18 71.9922 670.438 71.4297 669.141 70.7734 667.859 70.1172 666.906 69.3359 666.281 68.4297 665.672 67.5234 665.367 66.4453 665.367 65.1953 665.367 63.1172 666.242 61.3594 667.992 59.9219 669.758 58.4844 672.008 57.7656 674.742 57.7656 677.617 57.7656 679.945 58.5078 681.727 59.9922 683.523 61.4766 684.422 63.375 684.422 65.6875H680.062C680.062 64.5 679.555 63.4766 678.539 62.6172 677.539 61.7578 676.273 61.3281 674.742 61.3281 673.164 61.3281 671.93 61.6719 671.039 62.3594 670.148 63.0469 669.703 63.9453 669.703 65.0547 669.703 66.1016 670.117 66.8906 670.945 67.4219 671.773 67.9531 673.266 68.4609 675.422 68.9453 677.594 69.4297 679.352 70.0078 680.695 70.6797 682.039 71.3516 683.031 72.1641 683.672 73.1172 684.328 74.0547 684.656 75.2031 684.656 76.5625 684.656 78.8281 683.75 80.6484 681.938 82.0234 680.125 83.3828 677.773 84.0625 674.883 84.0625 672.852 84.0625 671.055 83.7031 669.492 82.9844 667.93 82.2656 666.703 81.2656 665.812 79.9844 664.938 78.6875 664.5 77.2891 664.5 75.7891H668.836C668.914 77.2422 669.492 78.3984 670.57 79.2578 671.664 80.1016 673.102 80.5234 674.883 80.5234 676.523 80.5234 677.836 80.1953 678.82 79.5391 679.82 78.8672 680.32 77.9766 680.32 76.8672z" fill="#e5e5e5"/></g><path d="M363 31H716V93.8359C716 103.777 707.941 111.836 698 111.836H345V49C345 39.0589 353.059 31 363 31z" stroke="#e8a1ee" stroke-width="4"/></g></g></svg>