<svg viewBox="0 0 1080 147" fill="none" xmlns="http://www.w3.org/2000/svg"><path d="M322.547 74.6406V88h-4.5V53.875H330.633C334.367 53.875 337.289 54.8281 339.398 56.7344 341.523 58.6406 342.586 61.1641 342.586 64.3047 342.586 67.6172 341.547 70.1719 339.469 71.9688 337.406 73.75 334.445 74.6406 330.586 74.6406H322.547zM322.547 70.9609H330.633C333.039 70.9609 334.883 70.3984 336.164 69.2734 337.445 68.1328 338.086 66.4922 338.086 64.3516 338.086 62.3203 337.445 60.6953 336.164 59.4766 334.883 58.2578 333.125 57.625 330.891 57.5781H322.547V70.9609zM363.023 88C362.773 87.5 362.57 86.6094 362.414 85.3281 360.398 87.4219 357.992 88.4688 355.195 88.4688 352.695 88.4688 350.641 87.7656 349.031 86.3594 347.438 84.9375 346.641 83.1406 346.641 80.9688 346.641 78.3281 347.641 76.2812 349.641 74.8281 351.656 73.3594 354.484 72.625 358.125 72.625H362.344V70.6328C362.344 69.1172 361.891 67.9141 360.984 67.0234 360.078 66.1172 358.742 65.6641 356.977 65.6641 355.43 65.6641 354.133 66.0547 353.086 66.8359 352.039 67.6172 351.516 68.5625 351.516 69.6719H347.156C347.156 68.4062 347.602 67.1875 348.492 66.0156 349.398 64.8281 350.617 63.8906 352.148 63.2031 353.695 62.5156 355.391 62.1719 357.234 62.1719 360.156 62.1719 362.445 62.9062 364.102 64.375 365.758 65.8281 366.617 67.8359 366.68 70.3984V82.0703C366.68 84.3984 366.977 86.25 367.57 87.625V88H363.023zM355.828 84.6953C357.188 84.6953 358.477 84.3438 359.695 83.6406 360.914 82.9375 361.797 82.0234 362.344 80.8984V75.6953H358.945C353.633 75.6953 350.977 77.25 350.977 80.3594 350.977 81.7188 351.43 82.7812 352.336 83.5469 353.242 84.3125 354.406 84.6953 355.828 84.6953zM385.734 66.5312C385.078 66.4219 384.367 66.3672 383.602 66.3672 380.758 66.3672 378.828 67.5781 377.812 70V88H373.477V62.6406H377.695L377.766 65.5703C379.188 63.3047 381.203 62.1719 383.812 62.1719 384.656 62.1719 385.297 62.2812 385.734 62.5V66.5312zM396.797 56.5V62.6406H401.531V65.9922H396.797V81.7188C396.797 82.7344 397.008 83.5 397.43 84.0156 397.852 84.5156 398.57 84.7656 399.586 84.7656 400.086 84.7656 400.773 84.6719 401.648 84.4844V88C400.508 88.3125 399.398 88.4688 398.32 88.4688 396.383 88.4688 394.922 87.8828 393.938 86.7109 392.953 85.5391 392.461 83.875 392.461 81.7188V65.9922H387.844V62.6406H392.461V56.5H396.797zM417.141 88.4688C413.703 88.4688 410.906 87.3438 408.75 85.0938 406.594 82.8281 405.516 79.8047 405.516 76.0234V75.2266C405.516 72.7109 405.992 70.4688 406.945 68.5 407.914 66.5156 409.258 64.9688 410.977 63.8594 412.711 62.7344 414.586 62.1719 416.602 62.1719 419.898 62.1719 422.461 63.2578 424.289 65.4297 426.117 67.6016 427.031 70.7109 427.031 74.7578V76.5625H409.852C409.914 79.0625 410.641 81.0859 412.031 82.6328 413.438 84.1641 415.219 84.9297 417.375 84.9297 418.906 84.9297 420.203 84.6172 421.266 83.9922 422.328 83.3672 423.258 82.5391 424.055 81.5078L426.703 83.5703C424.578 86.8359 421.391 88.4688 417.141 88.4688zM416.602 65.7344C414.852 65.7344 413.383 66.375 412.195 67.6562 411.008 68.9219 410.273 70.7031 409.992 73H422.695V72.6719C422.57 70.4688 421.977 68.7656 420.914 67.5625 419.852 66.3438 418.414 65.7344 416.602 65.7344zM446.836 81.2734C446.836 80.1016 446.391 79.1953 445.5 78.5547 444.625 77.8984 443.086 77.3359 440.883 76.8672 438.695 76.3984 436.953 75.8359 435.656 75.1797 434.375 74.5234 433.422 73.7422 432.797 72.8359 432.188 71.9297 431.883 70.8516 431.883 69.6016 431.883 67.5234 432.758 65.7656 434.508 64.3281 436.273 62.8906 438.523 62.1719 441.258 62.1719 444.133 62.1719 446.461 62.9141 448.242 64.3984 450.039 65.8828 450.938 67.7812 450.938 70.0938H446.578C446.578 68.9062 446.07 67.8828 445.055 67.0234 444.055 66.1641 442.789 65.7344 441.258 65.7344 439.68 65.7344 438.445 66.0781 437.555 66.7656 436.664 67.4531 436.219 68.3516 436.219 69.4609 436.219 70.5078 436.633 71.2969 437.461 71.8281 438.289 72.3594 439.781 72.8672 441.938 73.3516 444.109 73.8359 445.867 74.4141 447.211 75.0859 448.555 75.7578 449.547 76.5703 450.188 77.5234 450.844 78.4609 451.172 79.6094 451.172 80.9688 451.172 83.2344 450.266 85.0547 448.453 86.4297 446.641 87.7891 444.289 88.4688 441.398 88.4688 439.367 88.4688 437.57 88.1094 436.008 87.3906 434.445 86.6719 433.219 85.6719 432.328 84.3906 431.453 83.0938 431.016 81.6953 431.016 80.1953H435.352C435.43 81.6484 436.008 82.8047 437.086 83.6641 438.18 84.5078 439.617 84.9297 441.398 84.9297 443.039 84.9297 444.352 84.6016 445.336 83.9453 446.336 83.2734 446.836 82.3828 446.836 81.2734zM477.023 81.6484 482.93 62.6406H487.57L477.375 91.9141C475.797 96.1328 473.289 98.2422 469.852 98.2422L469.031 98.1719 467.414 97.8672V94.3516L468.586 94.4453C470.055 94.4453 471.195 94.1484 472.008 93.5547 472.836 92.9609 473.516 91.875 474.047 90.2969L475.008 87.7188 465.961 62.6406H470.695L477.023 81.6484zM523.336 72.2266H508.547V84.3203H525.727V88H504.047V53.875H525.492V57.5781H508.547V68.5469H523.336V72.2266zM545.414 81.2734C545.414 80.1016 544.969 79.1953 544.078 78.5547 543.203 77.8984 541.664 77.3359 539.461 76.8672 537.273 76.3984 535.531 75.8359 534.234 75.1797 532.953 74.5234 532 73.7422 531.375 72.8359 530.766 71.9297 530.461 70.8516 530.461 69.6016 530.461 67.5234 531.336 65.7656 533.086 64.3281 534.852 62.8906 537.102 62.1719 539.836 62.1719 542.711 62.1719 545.039 62.9141 546.82 64.3984 548.617 65.8828 549.516 67.7812 549.516 70.0938H545.156C545.156 68.9062 544.648 67.8828 543.633 67.0234 542.633 66.1641 541.367 65.7344 539.836 65.7344 538.258 65.7344 537.023 66.0781 536.133 66.7656 535.242 67.4531 534.797 68.3516 534.797 69.4609 534.797 70.5078 535.211 71.2969 536.039 71.8281 536.867 72.3594 538.359 72.8672 540.516 73.3516 542.688 73.8359 544.445 74.4141 545.789 75.0859 547.133 75.7578 548.125 76.5703 548.766 77.5234 549.422 78.4609 549.75 79.6094 549.75 80.9688 549.75 83.2344 548.844 85.0547 547.031 86.4297 545.219 87.7891 542.867 88.4688 539.977 88.4688 537.945 88.4688 536.148 88.1094 534.586 87.3906 533.023 86.6719 531.797 85.6719 530.906 84.3906 530.031 83.0938 529.594 81.6953 529.594 80.1953H533.93C534.008 81.6484 534.586 82.8047 535.664 83.6641 536.758 84.5078 538.195 84.9297 539.977 84.9297 541.617 84.9297 542.93 84.6016 543.914 83.9453 544.914 83.2734 545.414 82.3828 545.414 81.2734zM561.281 56.5V62.6406H566.016V65.9922H561.281V81.7188C561.281 82.7344 561.492 83.5 561.914 84.0156 562.336 84.5156 563.055 84.7656 564.07 84.7656 564.57 84.7656 565.258 84.6719 566.133 84.4844V88C564.992 88.3125 563.883 88.4688 562.805 88.4688 560.867 88.4688 559.406 87.8828 558.422 86.7109 557.438 85.5391 556.945 83.875 556.945 81.7188V65.9922H552.328V62.6406H556.945V56.5H561.281zM586.758 88C586.508 87.5 586.305 86.6094 586.148 85.3281 584.133 87.4219 581.727 88.4688 578.93 88.4688 576.43 88.4688 574.375 87.7656 572.766 86.3594 571.172 84.9375 570.375 83.1406 570.375 80.9688 570.375 78.3281 571.375 76.2812 573.375 74.8281 575.391 73.3594 578.219 72.625 581.859 72.625H586.078V70.6328C586.078 69.1172 585.625 67.9141 584.719 67.0234 583.812 66.1172 582.477 65.6641 580.711 65.6641 579.164 65.6641 577.867 66.0547 576.82 66.8359 575.773 67.6172 575.25 68.5625 575.25 69.6719H570.891C570.891 68.4062 571.336 67.1875 572.227 66.0156 573.133 64.8281 574.352 63.8906 575.883 63.2031 577.43 62.5156 579.125 62.1719 580.969 62.1719 583.891 62.1719 586.18 62.9062 587.836 64.375 589.492 65.8281 590.352 67.8359 590.414 70.3984V82.0703C590.414 84.3984 590.711 86.25 591.305 87.625V88H586.758zM579.562 84.6953C580.922 84.6953 582.211 84.3438 583.43 83.6406 584.648 82.9375 585.531 82.0234 586.078 80.8984V75.6953H582.68C577.367 75.6953 574.711 77.25 574.711 80.3594 574.711 81.7188 575.164 82.7812 576.07 83.5469 576.977 84.3125 578.141 84.6953 579.562 84.6953zM607.383 84.9297C608.93 84.9297 610.281 84.4609 611.438 83.5234 612.594 82.5859 613.234 81.4141 613.359 80.0078H617.461C617.383 81.4609 616.883 82.8438 615.961 84.1562 615.039 85.4688 613.805 86.5156 612.258 87.2969 610.727 88.0781 609.102 88.4688 607.383 88.4688 603.93 88.4688 601.18 87.3203 599.133 85.0234 597.102 82.7109 596.086 79.5547 596.086 75.5547V74.8281C596.086 72.3594 596.539 70.1641 597.445 68.2422 598.352 66.3203 599.648 64.8281 601.336 63.7656 603.039 62.7031 605.047 62.1719 607.359 62.1719 610.203 62.1719 612.562 63.0234 614.438 64.7266 616.328 66.4297 617.336 68.6406 617.461 71.3594H613.359C613.234 69.7188 612.609 68.375 611.484 67.3281 610.375 66.2656 609 65.7344 607.359 65.7344 605.156 65.7344 603.445 66.5312 602.227 68.125 601.023 69.7031 600.422 71.9922 600.422 74.9922V75.8125C600.422 78.7344 601.023 80.9844 602.227 82.5625 603.43 84.1406 605.148 84.9297 607.383 84.9297zM637.992 88C637.742 87.5 637.539 86.6094 637.383 85.3281 635.367 87.4219 632.961 88.4688 630.164 88.4688 627.664 88.4688 625.609 87.7656 624 86.3594 622.406 84.9375 621.609 83.1406 621.609 80.9688 621.609 78.3281 622.609 76.2812 624.609 74.8281 626.625 73.3594 629.453 72.625 633.094 72.625H637.312V70.6328C637.312 69.1172 636.859 67.9141 635.953 67.0234 635.047 66.1172 633.711 65.6641 631.945 65.6641 630.398 65.6641 629.102 66.0547 628.055 66.8359 627.008 67.6172 626.484 68.5625 626.484 69.6719H622.125C622.125 68.4062 622.57 67.1875 623.461 66.0156 624.367 64.8281 625.586 63.8906 627.117 63.2031 628.664 62.5156 630.359 62.1719 632.203 62.1719 635.125 62.1719 637.414 62.9062 639.07 64.375 640.727 65.8281 641.586 67.8359 641.648 70.3984V82.0703C641.648 84.3984 641.945 86.25 642.539 87.625V88H637.992zM630.797 84.6953C632.156 84.6953 633.445 84.3438 634.664 83.6406 635.883 82.9375 636.766 82.0234 637.312 80.8984V75.6953H633.914C628.602 75.6953 625.945 77.25 625.945 80.3594 625.945 81.7188 626.398 82.7812 627.305 83.5469 628.211 84.3125 629.375 84.6953 630.797 84.6953zM663.211 81.2734C663.211 80.1016 662.766 79.1953 661.875 78.5547 661 77.8984 659.461 77.3359 657.258 76.8672 655.07 76.3984 653.328 75.8359 652.031 75.1797 650.75 74.5234 649.797 73.7422 649.172 72.8359 648.562 71.9297 648.258 70.8516 648.258 69.6016 648.258 67.5234 649.133 65.7656 650.883 64.3281 652.648 62.8906 654.898 62.1719 657.633 62.1719 660.508 62.1719 662.836 62.9141 664.617 64.3984 666.414 65.8828 667.312 67.7812 667.312 70.0938H662.953C662.953 68.9062 662.445 67.8828 661.43 67.0234 660.43 66.1641 659.164 65.7344 657.633 65.7344 656.055 65.7344 654.82 66.0781 653.93 66.7656 653.039 67.4531 652.594 68.3516 652.594 69.4609 652.594 70.5078 653.008 71.2969 653.836 71.8281 654.664 72.3594 656.156 72.8672 658.312 73.3516 660.484 73.8359 662.242 74.4141 663.586 75.0859 664.93 75.7578 665.922 76.5703 666.562 77.5234 667.219 78.4609 667.547 79.6094 667.547 80.9688 667.547 83.2344 666.641 85.0547 664.828 86.4297 663.016 87.7891 660.664 88.4688 657.773 88.4688 655.742 88.4688 653.945 88.1094 652.383 87.3906 650.82 86.6719 649.594 85.6719 648.703 84.3906 647.828 83.0938 647.391 81.6953 647.391 80.1953H651.727C651.805 81.6484 652.383 82.8047 653.461 83.6641 654.555 84.5078 655.992 84.9297 657.773 84.9297 659.414 84.9297 660.727 84.6016 661.711 83.9453 662.711 83.2734 663.211 82.3828 663.211 81.2734z" fill="#12e1ee"/><path d="M314 26H699v74C699 109.941 690.941 118 681 118H296V44C296 34.0589 304.059 26 314 26z" stroke="#091fe3" stroke-width="4"/></svg>