<svg viewBox="0 0 1076 150" fill="none" xmlns="http://www.w3.org/2000/svg"><g id="0121005A1"><g id="title"><g id="F&#195;&#173;guras Cerradas"><path d="M378.82 67.9297H364.5V83H360V48.875H381.141V52.5781H364.5V64.25H378.82V67.9297z" fill="#d00959"/><path d="M390.562 83H386.203V57.6406H390.562V83zM390.609 47.0234h5.25L389.578 53.9141H386.086L390.609 47.0234z" fill="#d00959"/><path d="M396.68 70.1094C396.68 66.1562 397.594 63.0156 399.422 60.6875 401.25 58.3438 403.672 57.1719 406.688 57.1719 409.781 57.1719 412.195 58.2656 413.93 60.4531L414.141 57.6406H418.102V82.3906C418.102 85.6719 417.125 88.2578 415.172 90.1484 413.234 92.0391 410.625 92.9844 407.344 92.9844 405.516 92.9844 403.727 92.5938 401.977 91.8125 400.227 91.0312 398.891 89.9609 397.969 88.6016L400.219 86C402.078 88.2969 404.352 89.4453 407.039 89.4453 409.148 89.4453 410.789 88.8516 411.961 87.6641 413.148 86.4766 413.742 84.8047 413.742 82.6484V80.4688C412.008 82.4688 409.641 83.4688 406.641 83.4688 403.672 83.4688 401.266 82.2734 399.422 79.8828 397.594 77.4922 396.68 74.2344 396.68 70.1094zM401.039 70.6016C401.039 73.4609 401.625 75.7109 402.797 77.3516 403.969 78.9766 405.609 79.7891 407.719 79.7891 410.453 79.7891 412.461 78.5469 413.742 76.0625V64.4844C412.414 62.0625 410.422 60.8516 407.766 60.8516 405.656 60.8516 404.008 61.6719 402.82 63.3125 401.633 64.9531 401.039 67.3828 401.039 70.6016z" fill="#d00959"/><path d="M440.32 80.4922C438.633 82.4766 436.156 83.4688 432.891 83.4688 430.188 83.4688 428.125 82.6875 426.703 81.125 425.297 79.5469 424.586 77.2188 424.57 74.1406V57.6406H428.906V74.0234C428.906 77.8672 430.469 79.7891 433.594 79.7891 436.906 79.7891 439.109 78.5547 440.203 76.0859V57.6406H444.539V83h-4.125L440.32 80.4922z" fill="#d00959"/><path d="M463.406 61.5312C462.75 61.4219 462.039 61.3672 461.273 61.3672 458.43 61.3672 456.5 62.5781 455.484 65V83H451.148V57.6406H455.367L455.438 60.5703C456.859 58.3047 458.875 57.1719 461.484 57.1719 462.328 57.1719 462.969 57.2812 463.406 57.5V61.5312z" fill="#d00959"/><path d="M482.133 83C481.883 82.5 481.68 81.6094 481.523 80.3281 479.508 82.4219 477.102 83.4688 474.305 83.4688 471.805 83.4688 469.75 82.7656 468.141 81.3594 466.547 79.9375 465.75 78.1406 465.75 75.9688 465.75 73.3281 466.75 71.2812 468.75 69.8281 470.766 68.3594 473.594 67.625 477.234 67.625H481.453V65.6328C481.453 64.1172 481 62.9141 480.094 62.0234 479.188 61.1172 477.852 60.6641 476.086 60.6641 474.539 60.6641 473.242 61.0547 472.195 61.8359 471.148 62.6172 470.625 63.5625 470.625 64.6719H466.266C466.266 63.4062 466.711 62.1875 467.602 61.0156 468.508 59.8281 469.727 58.8906 471.258 58.2031 472.805 57.5156 474.5 57.1719 476.344 57.1719 479.266 57.1719 481.555 57.9062 483.211 59.375 484.867 60.8281 485.727 62.8359 485.789 65.3984V77.0703C485.789 79.3984 486.086 81.25 486.68 82.625V83H482.133zM474.938 79.6953C476.297 79.6953 477.586 79.3438 478.805 78.6406 480.023 77.9375 480.906 77.0234 481.453 75.8984V70.6953H478.055C472.742 70.6953 470.086 72.25 470.086 75.3594 470.086 76.7188 470.539 77.7812 471.445 78.5469 472.352 79.3125 473.516 79.6953 474.938 79.6953z" fill="#d00959"/><path d="M507.352 76.2734C507.352 75.1016 506.906 74.1953 506.016 73.5547 505.141 72.8984 503.602 72.3359 501.398 71.8672 499.211 71.3984 497.469 70.8359 496.172 70.1797 494.891 69.5234 493.938 68.7422 493.312 67.8359 492.703 66.9297 492.398 65.8516 492.398 64.6016 492.398 62.5234 493.273 60.7656 495.023 59.3281 496.789 57.8906 499.039 57.1719 501.773 57.1719 504.648 57.1719 506.977 57.9141 508.758 59.3984 510.555 60.8828 511.453 62.7812 511.453 65.0938H507.094C507.094 63.9062 506.586 62.8828 505.57 62.0234 504.57 61.1641 503.305 60.7344 501.773 60.7344 500.195 60.7344 498.961 61.0781 498.07 61.7656 497.18 62.4531 496.734 63.3516 496.734 64.4609 496.734 65.5078 497.148 66.2969 497.977 66.8281 498.805 67.3594 500.297 67.8672 502.453 68.3516 504.625 68.8359 506.383 69.4141 507.727 70.0859 509.07 70.7578 510.062 71.5703 510.703 72.5234 511.359 73.4609 511.688 74.6094 511.688 75.9688 511.688 78.2344 510.781 80.0547 508.969 81.4297 507.156 82.7891 504.805 83.4688 501.914 83.4688 499.883 83.4688 498.086 83.1094 496.523 82.3906 494.961 81.6719 493.734 80.6719 492.844 79.3906 491.969 78.0938 491.531 76.6953 491.531 75.1953H495.867C495.945 76.6484 496.523 77.8047 497.602 78.6641 498.695 79.5078 500.133 79.9297 501.914 79.9297 503.555 79.9297 504.867 79.6016 505.852 78.9453 506.852 78.2734 507.352 77.3828 507.352 76.2734z" fill="#d00959"/><path d="M555.023 72.1719C554.602 75.7812 553.266 78.5703 551.016 80.5391 548.781 82.4922 545.805 83.4688 542.086 83.4688 538.055 83.4688 534.82 82.0234 532.383 79.1328 529.961 76.2422 528.75 72.375 528.75 67.5312V64.25C528.75 61.0781 529.312 58.2891 530.438 55.8828 531.578 53.4766 533.188 51.6328 535.266 50.3516 537.344 49.0547 539.75 48.4062 542.484 48.4062 546.109 48.4062 549.016 49.4219 551.203 51.4531 553.391 53.4688 554.664 56.2656 555.023 59.8438H550.5C550.109 57.125 549.258 55.1562 547.945 53.9375 546.648 52.7188 544.828 52.1094 542.484 52.1094 539.609 52.1094 537.352 53.1719 535.711 55.2969 534.086 57.4219 533.273 60.4453 533.273 64.3672V67.6719C533.273 71.375 534.047 74.3203 535.594 76.5078 537.141 78.6953 539.305 79.7891 542.086 79.7891 544.586 79.7891 546.5 79.2266 547.828 78.1016 549.172 76.9609 550.062 74.9844 550.5 72.1719H555.023z" fill="#d00959"/><path d="M571.031 83.4688C567.594 83.4688 564.797 82.3438 562.641 80.0938 560.484 77.8281 559.406 74.8047 559.406 71.0234V70.2266C559.406 67.7109 559.883 65.4688 560.836 63.5 561.805 61.5156 563.148 59.9688 564.867 58.8594 566.602 57.7344 568.477 57.1719 570.492 57.1719 573.789 57.1719 576.352 58.2578 578.18 60.4297 580.008 62.6016 580.922 65.7109 580.922 69.7578V71.5625H563.742C563.805 74.0625 564.531 76.0859 565.922 77.6328 567.328 79.1641 569.109 79.9297 571.266 79.9297 572.797 79.9297 574.094 79.6172 575.156 78.9922 576.219 78.3672 577.148 77.5391 577.945 76.5078L580.594 78.5703C578.469 81.8359 575.281 83.4688 571.031 83.4688zM570.492 60.7344C568.742 60.7344 567.273 61.375 566.086 62.6562 564.898 63.9219 564.164 65.7031 563.883 68H576.586V67.6719C576.461 65.4688 575.867 63.7656 574.805 62.5625 573.742 61.3438 572.305 60.7344 570.492 60.7344z" fill="#d00959"/><path d="M598.219 61.5312C597.562 61.4219 596.852 61.3672 596.086 61.3672 593.242 61.3672 591.312 62.5781 590.297 65V83H585.961V57.6406H590.18L590.25 60.5703C591.672 58.3047 593.688 57.1719 596.297 57.1719 597.141 57.1719 597.781 57.2812 598.219 57.5V61.5312z" fill="#d00959"/><path d="M614.484 61.5312C613.828 61.4219 613.117 61.3672 612.352 61.3672 609.508 61.3672 607.578 62.5781 606.562 65V83H602.227V57.6406H606.445L606.516 60.5703C607.938 58.3047 609.953 57.1719 612.562 57.1719 613.406 57.1719 614.047 57.2812 614.484 57.5V61.5312z" fill="#d00959"/><path d="M633.211 83C632.961 82.5 632.758 81.6094 632.602 80.3281 630.586 82.4219 628.18 83.4688 625.383 83.4688 622.883 83.4688 620.828 82.7656 619.219 81.3594 617.625 79.9375 616.828 78.1406 616.828 75.9688 616.828 73.3281 617.828 71.2812 619.828 69.8281 621.844 68.3594 624.672 67.625 628.312 67.625H632.531V65.6328C632.531 64.1172 632.078 62.9141 631.172 62.0234 630.266 61.1172 628.93 60.6641 627.164 60.6641 625.617 60.6641 624.32 61.0547 623.273 61.8359 622.227 62.6172 621.703 63.5625 621.703 64.6719H617.344C617.344 63.4062 617.789 62.1875 618.68 61.0156 619.586 59.8281 620.805 58.8906 622.336 58.2031 623.883 57.5156 625.578 57.1719 627.422 57.1719 630.344 57.1719 632.633 57.9062 634.289 59.375 635.945 60.8281 636.805 62.8359 636.867 65.3984V77.0703C636.867 79.3984 637.164 81.25 637.758 82.625V83H633.211zM626.016 79.6953C627.375 79.6953 628.664 79.3438 629.883 78.6406 631.102 77.9375 631.984 77.0234 632.531 75.8984V70.6953H629.133C623.82 70.6953 621.164 72.25 621.164 75.3594 621.164 76.7188 621.617 77.7812 622.523 78.5469 623.43 79.3125 624.594 79.6953 626.016 79.6953z" fill="#d00959"/><path d="M642.609 70.1094C642.609 66.2188 643.531 63.0938 645.375 60.7344 647.219 58.3594 649.633 57.1719 652.617 57.1719 655.586 57.1719 657.938 58.1875 659.672 60.2188V47H664.008V83H660.023L659.812 80.2812C658.078 82.4062 655.664 83.4688 652.57 83.4688 649.633 83.4688 647.234 82.2656 645.375 79.8594 643.531 77.4531 642.609 74.3125 642.609 70.4375V70.1094zM646.945 70.6016C646.945 73.4766 647.539 75.7266 648.727 77.3516 649.914 78.9766 651.555 79.7891 653.648 79.7891 656.398 79.7891 658.406 78.5547 659.672 76.0859V64.4375C658.375 62.0469 656.383 60.8516 653.695 60.8516 651.57 60.8516 649.914 61.6719 648.727 63.3125 647.539 64.9531 646.945 67.3828 646.945 70.6016z" fill="#d00959"/><path d="M686.414 83C686.164 82.5 685.961 81.6094 685.805 80.3281 683.789 82.4219 681.383 83.4688 678.586 83.4688 676.086 83.4688 674.031 82.7656 672.422 81.3594 670.828 79.9375 670.031 78.1406 670.031 75.9688 670.031 73.3281 671.031 71.2812 673.031 69.8281 675.047 68.3594 677.875 67.625 681.516 67.625H685.734V65.6328C685.734 64.1172 685.281 62.9141 684.375 62.0234 683.469 61.1172 682.133 60.6641 680.367 60.6641 678.82 60.6641 677.523 61.0547 676.477 61.8359 675.43 62.6172 674.906 63.5625 674.906 64.6719H670.547C670.547 63.4062 670.992 62.1875 671.883 61.0156 672.789 59.8281 674.008 58.8906 675.539 58.2031 677.086 57.5156 678.781 57.1719 680.625 57.1719 683.547 57.1719 685.836 57.9062 687.492 59.375 689.148 60.8281 690.008 62.8359 690.07 65.3984V77.0703C690.07 79.3984 690.367 81.25 690.961 82.625V83H686.414zM679.219 79.6953C680.578 79.6953 681.867 79.3438 683.086 78.6406 684.305 77.9375 685.188 77.0234 685.734 75.8984V70.6953H682.336C677.023 70.6953 674.367 72.25 674.367 75.3594 674.367 76.7188 674.82 77.7812 675.727 78.5469 676.633 79.3125 677.797 79.6953 679.219 79.6953z" fill="#d00959"/><path d="M711.633 76.2734C711.633 75.1016 711.188 74.1953 710.297 73.5547 709.422 72.8984 707.883 72.3359 705.68 71.8672 703.492 71.3984 701.75 70.8359 700.453 70.1797 699.172 69.5234 698.219 68.7422 697.594 67.8359 696.984 66.9297 696.68 65.8516 696.68 64.6016 696.68 62.5234 697.555 60.7656 699.305 59.3281 701.07 57.8906 703.32 57.1719 706.055 57.1719 708.93 57.1719 711.258 57.9141 713.039 59.3984 714.836 60.8828 715.734 62.7812 715.734 65.0938H711.375C711.375 63.9062 710.867 62.8828 709.852 62.0234 708.852 61.1641 707.586 60.7344 706.055 60.7344 704.477 60.7344 703.242 61.0781 702.352 61.7656 701.461 62.4531 701.016 63.3516 701.016 64.4609 701.016 65.5078 701.43 66.2969 702.258 66.8281 703.086 67.3594 704.578 67.8672 706.734 68.3516 708.906 68.8359 710.664 69.4141 712.008 70.0859 713.352 70.7578 714.344 71.5703 714.984 72.5234 715.641 73.4609 715.969 74.6094 715.969 75.9688 715.969 78.2344 715.062 80.0547 713.25 81.4297 711.438 82.7891 709.086 83.4688 706.195 83.4688 704.164 83.4688 702.367 83.1094 700.805 82.3906 699.242 81.6719 698.016 80.6719 697.125 79.3906 696.25 78.0938 695.812 76.6953 695.812 75.1953H700.148C700.227 76.6484 700.805 77.8047 701.883 78.6641 702.977 79.5078 704.414 79.9297 706.195 79.9297 707.836 79.9297 709.148 79.6016 710.133 78.9453 711.133 78.2734 711.633 77.3828 711.633 76.2734z" fill="#d00959"/></g><path d="M360 29H738V92.9844C738 102.925 729.941 110.984 720 110.984H342V47C342 37.0589 350.059 29 360 29z" stroke="#d40303" stroke-width="4"/></g></g></svg>