<svg width="502" height="50" viewBox="0 0 502 50" fill="none" xmlns="http://www.w3.org/2000/svg">
<g id="conti">
<g id="Group">
<g id="Group_2">
<path id="Vector" d="M0 31.1554C0 25.8826 1.53599 20.8161 4.60798 15.956C7.67996 11.0958 11.5543 7.24439 16.2311 4.40165C20.9078 1.55892 25.5846 0.114628 30.2613 0.0687779C34.3879 0.0687779 37.6662 1.23797 40.0963 3.57634C40.5089 4.03485 40.8528 4.42458 41.1279 4.74553C41.403 5.06649 41.5864 5.29574 41.6781 5.43329L41.7469 5.63962C41.8845 5.63962 42.5034 5.04356 43.6039 3.85145C43.9248 3.57634 44.2687 3.25539 44.6355 2.88859C45.0023 2.52178 45.3691 2.15498 45.7359 1.78817C46.1027 1.42137 46.332 1.16919 46.4237 1.03164L47.4553 2.16067e-06H47.868C48.5099 2.16067e-06 48.8308 0.160479 48.8308 0.481433C48.8308 0.664835 48.0972 3.8056 46.63 9.90372C44.9794 16.2769 44.1541 19.4865 44.1541 19.5323C44.0624 19.7616 43.9477 19.8991 43.8102 19.945C43.6726 19.9908 43.26 20.0367 42.5722 20.0825H41.4718C41.1967 19.8074 41.0591 19.6011 41.0591 19.4636C41.0591 19.4177 41.0821 19.2572 41.1279 18.9821C41.1738 18.707 41.2196 18.2485 41.2655 17.6066C41.3113 16.9647 41.3343 16.2311 41.3343 15.4058C41.3343 12.1504 40.6006 9.30766 39.1334 6.87758C37.6662 4.4475 35.1674 3.20954 31.6369 3.16369C30.4448 3.16369 29.1609 3.32417 27.7854 3.64512C26.4099 3.96607 24.7593 4.51628 22.8336 5.29574C20.9078 6.0752 19.005 7.35901 17.1252 9.14718C15.2453 10.9354 13.5718 13.0674 12.1045 15.5433C10.6373 18.1568 9.46813 21.2059 8.59697 24.6905C7.72581 28.1752 7.29023 31.0179 7.29023 33.2187C7.29023 38.4457 9.03255 42.2054 12.5172 44.4979C14.718 46.0569 17.4232 46.8363 20.6327 46.8363C24.8051 46.8363 28.519 45.2774 31.7744 42.1596C35.0298 39.0417 37.1848 35.6488 38.2393 31.9807C38.4227 31.3847 38.5603 31.0408 38.652 30.9491C38.7437 30.8574 39.1105 30.8116 39.7524 30.8116C40.6694 30.8116 41.1279 31.0179 41.1279 31.4305C41.1279 31.6598 41.105 31.8661 41.0591 32.0495C39.7295 36.9555 36.8868 41.1738 32.531 44.7043C28.1752 48.2348 23.4984 50 18.5007 50C13.3196 50 8.94085 48.2806 5.36451 44.8418C1.78817 41.403 0 36.8409 0 31.1554Z" fill="#E8A1EE"/>
</g>
<g id="Group_3">
<path id="Vector_2" d="M62.6546 49.2437C59.2158 49.2437 56.4419 48.1203 54.3328 45.8736C52.2236 43.627 51.1691 40.9218 51.1691 37.7581C51.1691 34.7778 51.8568 31.958 53.2323 29.2987C54.6079 26.6393 56.4877 24.3239 58.872 22.3523C62.3566 19.5554 65.91 18.157 69.5322 18.157C70.9994 18.157 71.9164 18.1799 72.2832 18.2258C72.8793 18.3633 73.4753 18.5238 74.0714 18.7072C74.6675 18.8906 75.4698 19.2574 76.4786 19.8076C77.4873 20.3578 78.3126 21.0456 78.9545 21.8709C79.5964 22.6962 80.1924 23.8195 80.7427 25.2409C81.2929 26.6623 81.568 28.267 81.568 30.0552C81.568 34.9612 79.5964 39.3858 75.6532 43.3289C71.7101 47.2721 67.3772 49.2437 62.6546 49.2437ZM57.1526 40.234C57.1526 42.5265 57.7486 44.1772 58.9407 45.1859C60.1328 46.1946 61.4854 46.6989 62.9985 46.6989C65.0159 46.6989 66.9187 45.9653 68.7069 44.4981C70.4951 43.0309 71.9164 41.1052 72.971 38.721C73.3836 37.7581 73.9109 36.0616 74.5528 33.6315C75.1947 31.2015 75.5157 29.0923 75.5157 27.3042C75.5157 25.2868 75.103 23.7508 74.2777 22.6962C73.1773 21.3207 71.7101 20.6329 69.8761 20.6329C66.9875 20.6329 64.4428 21.9626 62.242 24.6219C60.5455 26.6393 59.2846 29.3216 58.4593 32.6687C57.634 36.0158 57.1984 38.5376 57.1526 40.234Z" fill="#E8A1EE"/>
</g>
<g id="Group_4">
<path id="Vector_3" d="M83.6313 28.7485C83.6772 28.4734 83.746 28.1066 83.8377 27.6481C83.9294 27.1895 84.2045 26.3184 84.663 25.0346C85.1215 23.7508 85.58 22.6733 86.0385 21.8021C86.497 20.931 87.2535 20.0827 88.3081 19.2574C89.3627 18.4321 90.4172 18.0424 91.4718 18.0882C93.1224 18.0882 94.4979 18.5009 95.5983 19.3262C96.6987 20.1515 97.3865 20.931 97.6616 21.6646C97.9367 22.3982 98.0743 22.8796 98.0743 23.1089C98.0743 23.2006 98.0972 23.2464 98.143 23.2464L98.8996 22.4899C101.696 19.5554 104.883 18.0882 108.459 18.0882C110.935 18.0882 112.93 18.7072 114.443 19.9452C115.956 21.1831 116.735 22.9942 116.781 25.3785C116.827 27.7627 115.956 31.3619 114.168 36.1763C112.38 40.9906 111.508 43.9021 111.554 44.9108C111.554 46.1029 111.944 46.6989 112.724 46.6989C112.999 46.6989 113.205 46.676 113.342 46.6302C114.672 46.4009 115.864 45.5298 116.919 44.0167C117.973 42.5036 118.776 40.6696 119.326 38.5146C119.418 38.1478 119.876 37.9644 120.701 37.9644C121.619 37.9644 122.077 38.1478 122.077 38.5146C122.077 38.5605 121.985 38.9044 121.802 39.5463C121.435 40.8759 120.931 42.1827 120.289 43.4665C119.647 44.7503 118.592 46.0341 117.125 47.3179C115.658 48.6017 114.076 49.2207 112.38 49.1749C110.225 49.1749 108.666 48.5559 107.703 47.3179C106.74 46.08 106.259 44.7962 106.259 43.4665C106.259 42.5953 107.084 39.8443 108.735 35.2134C110.385 30.5825 111.233 27.0978 111.279 24.7595C111.279 22.0543 110.271 20.7017 108.253 20.7017H107.909C103.966 20.7017 100.642 23.0172 97.9367 27.6481L97.4553 28.4734L95.1857 37.6893C93.6726 43.6957 92.8015 46.9282 92.5722 47.3867C91.9761 48.6247 90.9904 49.2437 89.6148 49.2437C89.0188 49.2437 88.5374 49.1061 88.1705 48.831C87.8037 48.5559 87.5516 48.2808 87.414 48.0057C87.2765 47.7306 87.2306 47.5013 87.2765 47.3179C87.2765 46.7219 88.1476 42.9851 89.8899 36.1075C91.6323 29.2299 92.5493 25.4931 92.641 24.897C92.6868 24.6678 92.7098 24.1405 92.7098 23.3152C92.7098 21.527 92.1595 20.6329 91.0591 20.6329C89.3168 20.6329 87.8725 22.9255 86.7263 27.5105C86.4512 28.4275 86.3136 28.9089 86.3136 28.9548C86.2219 29.2299 85.7863 29.3674 85.0069 29.3674H84.044C83.7689 29.0923 83.6313 28.886 83.6313 28.7485Z" fill="#E8A1EE"/>
</g>
<g id="Group_5">
<path id="Vector_4" d="M125.24 22.0084C124.92 21.6875 124.759 21.4582 124.759 21.3207C124.759 21.1373 124.828 20.7705 124.965 20.2203C125.103 19.6701 125.218 19.3491 125.309 19.2574C125.401 19.0282 125.607 18.9135 125.928 18.9135C126.249 18.9135 127.418 18.8906 129.436 18.8448H133.081L134.388 13.3427C134.525 12.8383 134.686 12.1735 134.869 11.3482C135.052 10.5229 135.213 9.92682 135.351 9.56002C135.488 9.19321 135.626 8.73471 135.763 8.1845C135.901 7.6343 136.084 7.24457 136.313 7.01531C136.543 6.78606 136.772 6.51096 137.001 6.19C137.23 5.86905 137.551 5.66272 137.964 5.57102C138.377 5.47932 138.789 5.43347 139.202 5.43347C140.027 5.47932 140.6 5.7315 140.921 6.19C141.242 6.64851 141.403 7.08409 141.403 7.49674C141.403 7.8177 141.196 8.89519 140.784 10.7292C140.371 12.5632 139.913 14.3743 139.408 16.1625L138.721 18.7072C138.721 18.7989 139.867 18.8448 142.159 18.8448H145.667C145.988 19.1657 146.148 19.4179 146.148 19.6013C146.148 20.61 145.85 21.4124 145.254 22.0084H137.895L135.419 31.9809C133.631 39.317 132.737 43.2602 132.737 43.8104C132.737 45.7361 133.356 46.6989 134.594 46.6989C136.199 46.6989 137.758 45.9195 139.271 44.3606C140.784 42.8017 141.999 40.8759 142.916 38.5834C143.008 38.3083 143.122 38.1478 143.26 38.102C143.397 38.0561 143.741 38.0103 144.291 37.9644H144.566C145.254 37.9644 145.598 38.1478 145.598 38.5146C145.598 38.6522 145.529 38.9273 145.392 39.3399C145.163 40.0735 144.75 40.9447 144.154 41.9534C143.558 42.9621 142.778 44.0396 141.815 45.1859C140.853 46.3321 139.683 47.295 138.308 48.0745C136.932 48.8539 135.534 49.2437 134.113 49.2437C132.737 49.2437 131.43 48.8998 130.192 48.212C128.954 47.5243 128.06 46.3321 127.51 44.6357C127.418 44.2689 127.373 43.6499 127.373 42.7787V41.5408L129.78 31.9122C131.384 25.4472 132.21 22.1918 132.256 22.146C132.256 22.0543 131.086 22.0084 128.748 22.0084H125.24Z" fill="#E8A1EE"/>
</g>
<g id="Group_6">
<path id="Vector_5" d="M160.935 7.22164C160.935 6.12123 161.371 5.15837 162.242 4.33306C163.113 3.50775 164.122 3.07217 165.268 3.02632C166.093 3.02632 166.781 3.30142 167.331 3.85163C167.882 4.40183 168.18 5.08959 168.226 5.9149C168.226 6.96946 167.767 7.93232 166.85 8.80348C165.933 9.67464 164.924 10.1332 163.824 10.179C163.136 10.179 162.494 9.94975 161.898 9.49124C161.302 9.03274 160.981 8.2762 160.935 7.22164ZM149.725 28.7485C149.725 28.3817 149.931 27.671 150.344 26.6164C150.756 25.5619 151.307 24.3927 151.994 23.1089C152.682 21.825 153.691 20.6558 155.021 19.6013C156.35 18.5467 157.726 18.0424 159.147 18.0882C160.935 18.0882 162.425 18.6155 163.618 19.6701C164.81 20.7246 165.429 22.146 165.475 23.9342C165.475 24.7136 165.154 25.9974 164.512 27.7856C163.87 29.5738 162.953 31.9809 161.761 35.0071C160.569 38.0332 159.606 40.6238 158.872 42.7787C158.643 43.7874 158.528 44.521 158.528 44.9796C158.528 46.1258 158.918 46.6989 159.697 46.6989C160.11 46.6989 160.546 46.6302 161.004 46.4926C161.463 46.3551 161.99 46.0341 162.586 45.5298C163.182 45.0254 163.801 44.223 164.443 43.1226C165.085 42.0222 165.658 40.6696 166.162 39.0648C166.3 38.5146 166.414 38.1937 166.506 38.102C166.598 38.0103 166.988 37.9644 167.675 37.9644C168.592 37.9644 169.051 38.1937 169.051 38.6522C169.051 39.019 168.845 39.7297 168.432 40.7842C168.019 41.8388 167.446 43.008 166.712 44.2918C165.979 45.5756 164.947 46.7219 163.618 47.7306C162.288 48.7393 160.867 49.2437 159.353 49.2437C157.886 49.2437 156.534 48.7622 155.296 47.7994C154.058 46.8365 153.416 45.3693 153.37 43.3977C153.37 42.6183 153.485 41.8846 153.714 41.1969C153.943 40.5091 154.929 37.8956 156.671 33.3564C158.414 28.7255 159.422 25.9516 159.697 25.0346C159.972 24.1176 160.133 23.2235 160.179 22.3523C160.179 21.2519 159.789 20.7017 159.01 20.7017H158.872C157.497 20.7017 156.236 21.4582 155.089 22.9713C153.943 24.4844 153.072 26.4101 152.476 28.7485C152.43 28.7943 152.384 28.8631 152.338 28.9548C152.292 29.0465 152.27 29.1153 152.27 29.1611C152.27 29.207 152.224 29.2528 152.132 29.2987C152.04 29.3445 151.972 29.3674 151.926 29.3674C151.88 29.3674 151.788 29.3674 151.651 29.3674C151.513 29.3674 151.33 29.3674 151.1 29.3674H150.138C149.862 29.0923 149.725 28.886 149.725 28.7485Z" fill="#E8A1EE"/>
</g>
<g id="Group_7">
<path id="Vector_6" d="M173.452 28.7485C173.498 28.4734 173.567 28.1066 173.659 27.6481C173.75 27.1895 174.026 26.3184 174.484 25.0346C174.943 23.7508 175.401 22.6733 175.86 21.8021C176.318 20.931 177.075 20.0827 178.129 19.2574C179.184 18.4321 180.238 18.0424 181.293 18.0882C182.943 18.0882 184.319 18.5009 185.419 19.3262C186.52 20.1515 187.208 20.931 187.483 21.6646C187.758 22.3982 187.895 22.8796 187.895 23.1089C187.895 23.2006 187.918 23.2464 187.964 23.2464L188.721 22.4899C191.517 19.5554 194.704 18.0882 198.28 18.0882C200.756 18.0882 202.751 18.7072 204.264 19.9452C205.777 21.1831 206.556 22.9942 206.602 25.3785C206.648 27.7627 205.777 31.3619 203.989 36.1763C202.201 40.9906 201.33 43.9021 201.375 44.9108C201.375 46.1029 201.765 46.6989 202.545 46.6989C202.82 46.6989 203.026 46.676 203.164 46.6302C204.493 46.4009 205.685 45.5298 206.74 44.0167C207.794 42.5036 208.597 40.6696 209.147 38.5146C209.239 38.1478 209.697 37.9644 210.523 37.9644C211.44 37.9644 211.898 38.1478 211.898 38.5146C211.898 38.5605 211.806 38.9044 211.623 39.5463C211.256 40.8759 210.752 42.1827 210.11 43.4665C209.468 44.7503 208.413 46.0341 206.946 47.3179C205.479 48.6017 203.897 49.2207 202.201 49.1749C200.046 49.1749 198.487 48.5559 197.524 47.3179C196.561 46.08 196.08 44.7962 196.08 43.4665C196.08 42.5953 196.905 39.8443 198.556 35.2134C200.206 30.5825 201.054 27.0978 201.1 24.7595C201.1 22.0543 200.092 20.7017 198.074 20.7017H197.73C193.787 20.7017 190.463 23.0172 187.758 27.6481L187.276 28.4734L185.007 37.6893C183.494 43.6957 182.622 46.9282 182.393 47.3867C181.797 48.6247 180.811 49.2437 179.436 49.2437C178.84 49.2437 178.358 49.1061 177.992 48.831C177.625 48.5559 177.373 48.2808 177.235 48.0057C177.098 47.7306 177.052 47.5013 177.098 47.3179C177.098 46.7219 177.969 42.9851 179.711 36.1075C181.453 29.2299 182.37 25.4931 182.462 24.897C182.508 24.6678 182.531 24.1405 182.531 23.3152C182.531 21.527 181.981 20.6329 180.88 20.6329C179.138 20.6329 177.694 22.9255 176.547 27.5105C176.272 28.4275 176.135 28.9089 176.135 28.9548C176.043 29.2299 175.607 29.3674 174.828 29.3674H173.865C173.59 29.0923 173.452 28.886 173.452 28.7485Z" fill="#E8A1EE"/>
</g>
<g id="Group_8">
<path id="Vector_7" d="M214.718 28.7485C214.718 28.3817 214.924 27.671 215.337 26.6164C215.75 25.5619 216.323 24.3697 217.056 23.0401C217.79 21.7104 218.799 20.5641 220.083 19.6013C221.366 18.6384 222.719 18.1341 224.14 18.0882C226.249 18.0882 227.831 18.6613 228.886 19.8076C229.94 20.9539 230.468 22.3065 230.468 23.8654C230.468 24.6907 229.688 27.2583 228.129 31.5683C226.57 35.8782 225.791 39.1107 225.791 41.2657C225.791 43.2372 226.112 44.6127 226.754 45.3922C227.396 46.1717 228.359 46.5843 229.642 46.6302C230.926 46.676 232.141 46.2863 233.287 45.461C234.434 44.6357 235.282 43.8562 235.832 43.1226L236.589 41.9534C236.68 41.77 237.552 38.2854 239.202 31.4995C240.578 25.9974 241.403 22.7879 241.678 21.8709C241.953 20.9539 242.274 20.289 242.641 19.8764C243.42 19.1886 244.246 18.8448 245.117 18.8448C245.896 18.8448 246.47 19.074 246.836 19.5325C247.203 19.991 247.387 20.4266 247.387 20.8392L242.16 42.71C242.114 42.9392 242.091 43.306 242.091 43.8104C242.091 44.9566 242.251 45.7132 242.572 46.08C242.893 46.4468 243.375 46.6531 244.017 46.6989C245.025 46.5614 245.828 45.8507 246.424 44.5669C247.02 43.2831 247.707 41.2657 248.487 38.5146C248.579 38.1478 249.037 37.9644 249.862 37.9644C250.734 37.9644 251.169 38.1707 251.169 38.5834C251.123 38.8127 251.077 39.1336 251.032 39.5463C250.986 39.9589 250.779 40.6925 250.413 41.7471C250.046 42.8017 249.656 43.7874 249.243 44.7044C248.831 45.6215 248.258 46.4926 247.524 47.3179C246.79 48.1432 245.965 48.7164 245.048 49.0373C244.681 49.129 244.131 49.1749 243.398 49.1749C240.371 49.1749 238.285 47.8911 237.139 45.3234C237.047 45.3693 236.795 45.5985 236.382 46.0112C235.97 46.4238 235.557 46.7677 235.144 47.0428C234.732 47.3179 234.227 47.6618 233.631 48.0745C233.035 48.4871 232.37 48.7622 231.637 48.8998C230.903 49.0373 230.124 49.152 229.298 49.2437C227.281 49.2437 225.493 48.831 223.934 48.0057C221.55 46.5843 220.358 44.1542 220.358 40.7155C220.358 38.102 221.16 34.6861 222.765 30.4679C224.37 26.2496 225.172 23.5674 225.172 22.4211C225.172 22.3752 225.172 22.3294 225.172 22.2835C225.172 21.8709 225.172 21.5958 225.172 21.4582C225.172 21.3207 225.08 21.1602 224.897 20.9768C224.713 20.7934 224.461 20.7017 224.14 20.7017H223.865C222.811 20.7017 221.848 21.1373 220.977 22.0084C220.105 22.8796 219.418 23.8195 218.913 24.8282C218.409 25.837 218.019 26.7998 217.744 27.7168C217.469 28.6338 217.286 29.1382 217.194 29.2299C217.102 29.3216 216.735 29.3674 216.094 29.3674H215.131C214.856 29.0923 214.718 28.886 214.718 28.7485Z" fill="#E8A1EE"/>
</g>
<g id="Group_9">
<path id="Vector_8" d="M254.883 37.689C254.883 33.0581 256.626 28.6565 260.11 24.4841C263.595 20.3117 267.515 18.2025 271.871 18.1567C274.209 18.1567 276.273 19.28 278.061 21.5267C278.794 20.1512 279.849 19.4634 281.224 19.4634C281.82 19.4634 282.348 19.6468 282.806 20.0136C283.265 20.3804 283.494 20.8389 283.494 21.3891C283.494 21.9852 282.646 25.6532 280.949 32.3933C279.253 39.1333 278.382 42.9389 278.336 43.81C278.336 44.9563 278.496 45.7128 278.817 46.0797C279.138 46.4465 279.62 46.6528 280.262 46.6986C280.674 46.6528 281.133 46.4465 281.637 46.0797C282.6 45.1626 283.54 42.9618 284.457 39.4772C284.732 38.5602 284.961 38.0787 285.145 38.0329C285.236 37.987 285.466 37.9641 285.832 37.9641H286.108C286.979 37.9641 287.414 38.1704 287.414 38.5831C287.414 38.8582 287.3 39.4772 287.07 40.44C286.841 41.4029 286.383 42.6409 285.695 44.1539C285.007 45.667 284.273 46.8133 283.494 47.5927C282.898 48.1888 282.164 48.6702 281.293 49.037C280.926 49.1287 280.376 49.1746 279.643 49.1746C278.084 49.1746 276.777 48.8307 275.722 48.1429C274.668 47.4552 273.98 46.7445 273.659 46.0109L273.246 44.9792C273.201 44.9334 273.109 44.9563 272.971 45.048C272.88 45.1397 272.788 45.2314 272.696 45.3231C269.991 47.8907 267.24 49.1746 264.443 49.1746C261.921 49.1746 259.698 48.2575 257.772 46.4235C255.846 44.5895 254.883 41.678 254.883 37.689ZM276.754 25.9283C276.754 25.6532 276.639 25.1489 276.41 24.4153C276.181 23.6817 275.654 22.8793 274.828 22.0081C274.003 21.137 272.948 20.6785 271.665 20.6326C270.06 20.6326 268.524 21.3433 267.057 22.7647C265.589 24.186 264.443 26.043 263.618 28.3355C262.288 31.9577 261.348 35.7174 260.798 39.6147C260.798 39.7523 260.798 40.0045 260.798 40.3713C260.798 40.7381 260.775 41.0132 260.729 41.1966C260.729 43.2598 261.142 44.6812 261.967 45.4607C262.793 46.2401 263.778 46.6528 264.925 46.6986C266.667 46.6986 268.386 45.9421 270.083 44.429C271.779 42.916 272.788 41.7468 273.109 40.9215C273.201 40.7381 273.82 38.2851 274.966 33.5625C276.112 28.8399 276.708 26.2951 276.754 25.9283Z" fill="#E8A1EE"/>
</g>
<g id="Group_10">
<path id="Vector_9" d="M290.44 28.7485C290.486 28.4734 290.555 28.1066 290.647 27.6481C290.738 27.1895 291.013 26.3184 291.472 25.0346C291.93 23.7508 292.389 22.6733 292.847 21.8021C293.306 20.931 294.039 20.0827 295.048 19.2574C296.057 18.4321 297.066 18.0424 298.074 18.0882C299.083 18.1341 300.069 18.2945 301.032 18.5697C301.995 18.8448 302.682 19.2574 303.095 19.8076C303.508 20.3578 303.874 20.8622 304.195 21.3207C304.516 21.7792 304.7 22.2148 304.746 22.6274L304.883 23.1089C304.883 23.2006 304.906 23.2464 304.952 23.2464L305.708 22.4899C308.459 19.5554 311.692 18.0882 315.406 18.0882C316.185 18.0882 316.896 18.1341 317.538 18.2258C318.18 18.3175 318.776 18.4779 319.326 18.7072C319.876 18.9365 320.312 19.1657 320.633 19.395C320.954 19.6242 321.298 19.8993 321.664 20.2203C322.031 20.5412 322.26 20.8393 322.352 21.1144C322.444 21.3895 322.627 21.6875 322.902 22.0084C323.177 22.3294 323.269 22.6045 323.177 22.8337C323.086 23.063 323.155 23.2693 323.384 23.4527C323.613 23.6361 323.659 23.7966 323.521 23.9342L324.072 23.2464C326.96 19.8076 330.376 18.0882 334.319 18.0882C336.795 18.0882 338.79 18.7072 340.303 19.9452C341.816 21.1831 342.595 22.9942 342.641 25.3785C342.641 27.7168 341.77 31.339 340.028 36.245C338.285 41.151 337.414 44.0855 337.414 45.0483C337.46 45.6902 337.575 46.1258 337.758 46.3551C337.941 46.5843 338.285 46.6989 338.79 46.6989C340.073 46.6989 341.265 46.0112 342.366 44.6357C343.466 43.2602 344.36 41.3803 345.048 38.9961C345.186 38.4917 345.323 38.1937 345.461 38.102C345.598 38.0103 345.965 37.9644 346.561 37.9644C347.478 37.9644 347.937 38.1478 347.937 38.5146C347.937 38.5605 347.845 38.9044 347.662 39.5463C347.295 40.8759 346.79 42.1827 346.149 43.4665C345.507 44.7503 344.452 46.0341 342.985 47.3179C341.518 48.6017 339.936 49.2207 338.239 49.1749C336.084 49.1749 334.525 48.5559 333.563 47.3179C332.6 46.08 332.118 44.7962 332.118 43.4665C332.118 42.5953 332.944 39.8443 334.594 35.2134C336.245 30.5825 337.093 27.0978 337.139 24.7595C337.139 22.0543 336.13 20.7017 334.113 20.7017H333.769C329.826 20.7017 326.502 23.0172 323.796 27.6481L323.315 28.4734L321.045 37.6893C319.532 43.6957 318.661 46.9282 318.432 47.3867C317.836 48.6247 316.85 49.2437 315.475 49.2437C314.879 49.2437 314.397 49.0832 314.03 48.7622C313.663 48.4413 313.411 48.1662 313.274 47.9369C313.136 47.7077 313.067 47.4784 313.067 47.2492C313.067 46.7448 313.847 43.4665 315.406 37.4142L317.882 27.373C318.019 26.6852 318.088 25.814 318.088 24.7595C318.088 22.0543 317.079 20.7017 315.062 20.7017H314.718C310.775 20.7017 307.451 23.0172 304.746 27.6481L304.264 28.4734L301.995 37.6893C300.481 43.6957 299.61 46.9282 299.381 47.3867C298.785 48.6247 297.799 49.2437 296.424 49.2437C295.828 49.2437 295.346 49.1061 294.979 48.831C294.613 48.5559 294.36 48.2808 294.223 48.0057C294.085 47.7306 294.039 47.5013 294.085 47.3179C294.085 46.7219 294.956 42.9621 296.699 36.0387C298.487 28.9777 299.381 25.2868 299.381 24.9658C299.519 24.278 299.587 23.6591 299.587 23.1089C299.587 21.4582 299.014 20.6329 297.868 20.6329C296.859 20.6329 296.011 21.2748 295.323 22.5586C294.636 23.8425 294.108 25.2409 293.741 26.754C293.375 28.267 293.1 29.0923 292.916 29.2299C292.824 29.3216 292.458 29.3674 291.816 29.3674H290.853C290.578 29.0923 290.44 28.886 290.44 28.7485Z" fill="#E8A1EE"/>
</g>
<g id="Group_11">
<path id="Vector_10" d="M363.205 49.2437C359.766 49.2437 356.993 48.1203 354.883 45.8736C352.774 43.627 351.72 40.9218 351.72 37.7581C351.72 34.7778 352.407 31.958 353.783 29.2987C355.159 26.6393 357.038 24.3239 359.423 22.3523C362.907 19.5554 366.461 18.157 370.083 18.157C371.55 18.157 372.467 18.1799 372.834 18.2258C373.43 18.3633 374.026 18.5238 374.622 18.7072C375.218 18.8906 376.021 19.2574 377.029 19.8076C378.038 20.3578 378.863 21.0456 379.505 21.8709C380.147 22.6962 380.743 23.8195 381.293 25.2409C381.844 26.6623 382.119 28.267 382.119 30.0552C382.119 34.9612 380.147 39.3858 376.204 43.3289C372.261 47.2721 367.928 49.2437 363.205 49.2437ZM357.703 40.234C357.703 42.5265 358.299 44.1772 359.491 45.1859C360.684 46.1946 362.036 46.6989 363.549 46.6989C365.567 46.6989 367.469 45.9653 369.258 44.4981C371.046 43.0309 372.467 41.1052 373.522 38.721C373.934 37.7581 374.462 36.0616 375.103 33.6315C375.745 31.2015 376.066 29.0923 376.066 27.3042C376.066 25.2868 375.654 23.7508 374.828 22.6962C373.728 21.3207 372.261 20.6329 370.427 20.6329C367.538 20.6329 364.993 21.9626 362.793 24.6219C361.096 26.6393 359.835 29.3216 359.01 32.6687C358.185 36.0158 357.749 38.5376 357.703 40.234Z" fill="#E8A1EE"/>
</g>
<g id="Group_12">
<path id="Vector_11" d="M391.747 28.6106C391.747 27.1434 392.114 25.6532 392.847 24.1402C393.581 22.6271 394.865 21.2287 396.699 19.9449C398.533 18.661 400.757 18.0421 403.37 18.0879C406.213 18.0879 408.276 18.7069 409.56 19.9449C410.844 21.1828 411.509 22.5583 411.555 24.0714C411.555 25.5386 411.165 26.6161 410.385 27.3039C409.606 27.9916 408.735 28.3584 407.772 28.4043C407.176 28.4043 406.626 28.2209 406.121 27.8541C405.617 27.4873 405.342 26.8912 405.296 26.0659C405.296 25.3323 405.502 24.6904 405.915 24.1402C406.328 23.59 406.717 23.1773 407.084 22.9022C407.451 22.6271 407.749 22.4896 407.978 22.4896C408.024 22.4896 408.047 22.4666 408.047 22.4208C408.047 22.2832 407.886 22.0769 407.566 21.8018C407.245 21.5267 406.671 21.2745 405.846 21.0453C405.021 20.816 404.127 20.6785 403.164 20.6326C400.963 20.6326 399.358 21.2287 398.35 22.4208C397.341 23.6129 396.814 24.8279 396.768 26.0659C396.768 27.2122 397.203 28.0145 398.074 28.473C398.946 28.9316 400.207 29.3213 401.857 29.6422C403.508 29.9632 404.7 30.3071 405.433 30.6739C408.46 32.0035 409.973 34.2044 409.973 37.2763C409.973 38.5602 409.72 39.844 409.216 41.1278C408.712 42.4116 407.955 43.6954 406.947 44.9792C405.938 46.2631 404.494 47.2718 402.614 48.0054C400.734 48.739 398.579 49.1287 396.149 49.1746C392.618 49.1746 390.119 48.5097 388.652 47.1801C387.185 45.8504 386.428 44.2915 386.383 42.5033C386.383 40.7151 386.864 39.4313 387.827 38.6519C388.79 37.8724 389.798 37.4827 390.853 37.4827C391.541 37.4827 392.183 37.689 392.779 38.1017C393.375 38.5143 393.696 39.225 393.742 40.2337C393.742 41.4258 393.329 42.4345 392.504 43.2598C391.678 44.0852 390.968 44.4978 390.372 44.4978C390.28 44.5437 390.211 44.5666 390.165 44.5666C390.119 44.5666 390.096 44.6124 390.096 44.7041C390.142 44.8417 390.326 45.0251 390.647 45.2543C390.968 45.4836 391.678 45.7816 392.779 46.1484C393.879 46.5152 395.14 46.6757 396.561 46.6299C398.212 46.6299 399.633 46.3777 400.825 45.8733C402.018 45.369 402.889 44.7271 403.439 43.9476C403.989 43.1681 404.379 42.4575 404.608 41.8156C404.837 41.1736 404.952 40.6005 404.952 40.0962C404.952 38.8123 404.471 37.8495 403.508 37.2076C402.545 36.5657 401.444 36.1759 400.207 36.0384C398.969 35.9008 397.616 35.557 396.149 35.0067C394.682 34.4565 393.604 33.6542 392.916 32.5996C392.137 31.4533 391.747 30.1237 391.747 28.6106Z" fill="#E8A1EE"/>
</g>
<g id="Group_13">
<path id="Vector_12" d="M431.823 31.2929C431.823 30.1925 432.212 29.2296 432.992 28.4043C433.771 27.579 434.757 27.1663 435.949 27.1663C437.049 27.1663 438.012 27.5331 438.838 28.2668C439.663 29.0004 440.099 29.9861 440.144 31.2241C440.144 32.3704 439.755 33.3562 438.975 34.1815C438.196 35.0068 437.21 35.4194 436.018 35.4194C434.826 35.4194 433.84 35.0297 433.06 34.2502C432.281 33.4708 431.868 32.485 431.823 31.2929ZM462.565 31.2929C462.565 30.1925 462.955 29.2296 463.734 28.4043C464.514 27.579 465.5 27.1663 466.692 27.1663C467.792 27.1663 468.755 27.5331 469.58 28.2668C470.406 29.0004 470.841 29.9861 470.887 31.2241C470.887 32.3704 470.497 33.3562 469.718 34.1815C468.939 35.0068 467.953 35.4194 466.761 35.4194C465.568 35.4194 464.583 35.0297 463.803 34.2502C463.024 33.4708 462.611 32.485 462.565 31.2929ZM493.308 31.2929C493.308 30.1925 493.698 29.2296 494.477 28.4043C495.257 27.579 496.242 27.1663 497.435 27.1663C498.535 27.1663 499.498 27.5331 500.323 28.2668C501.149 29.0004 501.584 29.9861 501.63 31.2241C501.63 32.3704 501.24 33.3562 500.461 34.1815C499.681 35.0068 498.696 35.4194 497.503 35.4194C496.311 35.4194 495.325 35.0297 494.546 34.2502C493.767 33.4708 493.354 32.485 493.308 31.2929Z" fill="#E8A1EE"/>
</g>
</g>
</g>
</svg>
