<svg  viewBox="0 0 998 445" fill="none" xmlns="http://www.w3.org/2000/svg">
    <g id="0117203">
        <g id="parte01">
            <g id="text01">
                <path
                    d="M47.1191 0.110352L49.293 1.58691C48.0215 3.32324 47.3652 5.19629 47.3242 7.20605V9.99512H43.5508V7.61621C43.5508 6.22168 43.8789 4.84082 44.5352 3.47363C45.2051 2.10645 46.0664 0.985352 47.1191 0.110352ZM53.5791 0.110352L55.7529 1.58691C54.4814 3.32324 53.8252 5.19629 53.7842 7.20605V9.99512H50.0107V7.61621C50.0107 6.22168 50.3389 4.84082 50.9951 3.47363C51.665 2.10645 52.5264 0.985352 53.5791 0.110352Z"
                    fill="white" />
                <path d="M80.3623 5.38086H70.7646V32H66.8477V5.38086H57.2705V2.14062H80.3623V5.38086Z" fill="white" />
                <path
                    d="M81.1416 20.7002C81.1416 18.5264 81.5654 16.5713 82.4131 14.835C83.2744 13.0986 84.4639 11.7588 85.9814 10.8154C87.5127 9.87207 89.2559 9.40039 91.2109 9.40039C94.2324 9.40039 96.6729 10.4463 98.5322 12.5381C100.405 14.6299 101.342 17.4121 101.342 20.8848V21.1514C101.342 23.3115 100.925 25.2529 100.091 26.9756C99.2705 28.6846 98.0879 30.0176 96.543 30.9746C95.0117 31.9316 93.248 32.4102 91.252 32.4102C88.2441 32.4102 85.8037 31.3643 83.9307 29.2725C82.0713 27.1807 81.1416 24.4121 81.1416 20.9668V20.7002ZM84.9561 21.1514C84.9561 23.6123 85.5234 25.5879 86.6582 27.0781C87.8066 28.5684 89.3379 29.3135 91.252 29.3135C93.1797 29.3135 94.7109 28.5615 95.8457 27.0576C96.9805 25.54 97.5479 23.4209 97.5479 20.7002C97.5479 18.2666 96.9668 16.2979 95.8047 14.7939C94.6562 13.2764 93.125 12.5176 91.2109 12.5176C89.3379 12.5176 87.8271 13.2627 86.6787 14.7529C85.5303 16.2432 84.9561 18.376 84.9561 21.1514Z"
                    fill="white" />
                <path
                    d="M105.177 20.7207C105.177 17.3164 105.983 14.582 107.597 12.5176C109.21 10.4395 111.322 9.40039 113.934 9.40039C116.531 9.40039 118.589 10.2891 120.106 12.0664V0.5H123.9V32H120.414L120.229 29.6211C118.712 31.4805 116.6 32.4102 113.893 32.4102C111.322 32.4102 109.224 31.3574 107.597 29.252C105.983 27.1465 105.177 24.3984 105.177 21.0078V20.7207ZM108.971 21.1514C108.971 23.667 109.49 25.6357 110.529 27.0576C111.568 28.4795 113.004 29.1904 114.836 29.1904C117.242 29.1904 118.999 28.1104 120.106 25.9502V15.7578C118.972 13.666 117.229 12.6201 114.877 12.6201C113.018 12.6201 111.568 13.3379 110.529 14.7734C109.49 16.209 108.971 18.335 108.971 21.1514Z"
                    fill="white" />
                <path
                    d="M128.802 20.7002C128.802 18.5264 129.226 16.5713 130.073 14.835C130.935 13.0986 132.124 11.7588 133.642 10.8154C135.173 9.87207 136.916 9.40039 138.871 9.40039C141.893 9.40039 144.333 10.4463 146.192 12.5381C148.065 14.6299 149.002 17.4121 149.002 20.8848V21.1514C149.002 23.3115 148.585 25.2529 147.751 26.9756C146.931 28.6846 145.748 30.0176 144.203 30.9746C142.672 31.9316 140.908 32.4102 138.912 32.4102C135.904 32.4102 133.464 31.3643 131.591 29.2725C129.731 27.1807 128.802 24.4121 128.802 20.9668V20.7002ZM132.616 21.1514C132.616 23.6123 133.184 25.5879 134.318 27.0781C135.467 28.5684 136.998 29.3135 138.912 29.3135C140.84 29.3135 142.371 28.5615 143.506 27.0576C144.641 25.54 145.208 23.4209 145.208 20.7002C145.208 18.2666 144.627 16.2979 143.465 14.7939C142.316 13.2764 140.785 12.5176 138.871 12.5176C136.998 12.5176 135.487 13.2627 134.339 14.7529C133.19 16.2432 132.616 18.376 132.616 21.1514Z"
                    fill="white" />
                <path
                    d="M166.68 26.1143C166.68 25.0889 166.29 24.2959 165.511 23.7354C164.745 23.1611 163.398 22.6689 161.471 22.2588C159.557 21.8486 158.032 21.3564 156.897 20.7822C155.776 20.208 154.942 19.5244 154.396 18.7314C153.862 17.9385 153.596 16.9951 153.596 15.9014C153.596 14.083 154.361 12.5449 155.893 11.2871C157.438 10.0293 159.406 9.40039 161.799 9.40039C164.314 9.40039 166.352 10.0498 167.91 11.3486C169.482 12.6475 170.269 14.3086 170.269 16.332H166.454C166.454 15.293 166.01 14.3975 165.121 13.6455C164.246 12.8936 163.139 12.5176 161.799 12.5176C160.418 12.5176 159.338 12.8184 158.559 13.4199C157.779 14.0215 157.39 14.8076 157.39 15.7783C157.39 16.6943 157.752 17.3848 158.477 17.8496C159.201 18.3145 160.507 18.7588 162.394 19.1826C164.294 19.6064 165.832 20.1123 167.008 20.7002C168.184 21.2881 169.052 21.999 169.612 22.833C170.187 23.6533 170.474 24.6582 170.474 25.8477C170.474 27.8301 169.681 29.4229 168.095 30.626C166.509 31.8154 164.451 32.4102 161.922 32.4102C160.145 32.4102 158.572 32.0957 157.205 31.4668C155.838 30.8379 154.765 29.9629 153.985 28.8418C153.22 27.707 152.837 26.4834 152.837 25.1709H156.631C156.699 26.4424 157.205 27.4541 158.148 28.2061C159.105 28.9443 160.363 29.3135 161.922 29.3135C163.357 29.3135 164.506 29.0264 165.367 28.4521C166.242 27.8643 166.68 27.085 166.68 26.1143Z"
                    fill="white" />
                <path d="M189.956 32H186.162V0.5H189.956V32Z" fill="white" />
                <path
                    d="M209.746 32C209.527 31.5625 209.35 30.7832 209.213 29.6621C207.449 31.4941 205.344 32.4102 202.896 32.4102C200.709 32.4102 198.911 31.7949 197.503 30.5645C196.108 29.3203 195.411 27.748 195.411 25.8477C195.411 23.5371 196.286 21.7461 198.036 20.4746C199.8 19.1895 202.274 18.5469 205.46 18.5469H209.151V16.8037C209.151 15.4775 208.755 14.4248 207.962 13.6455C207.169 12.8525 206 12.4561 204.455 12.4561C203.102 12.4561 201.967 12.7979 201.051 13.4814C200.135 14.165 199.677 14.9922 199.677 15.9629H195.862C195.862 14.8555 196.252 13.7891 197.031 12.7637C197.824 11.7246 198.891 10.9043 200.23 10.3027C201.584 9.70117 203.067 9.40039 204.681 9.40039C207.237 9.40039 209.24 10.043 210.689 11.3281C212.139 12.5996 212.891 14.3564 212.945 16.5986V26.8115C212.945 28.8486 213.205 30.4688 213.725 31.6719V32H209.746ZM203.45 29.1084C204.64 29.1084 205.768 28.8008 206.834 28.1855C207.9 27.5703 208.673 26.7705 209.151 25.7861V21.2334H206.178C201.529 21.2334 199.205 22.5938 199.205 25.3145C199.205 26.5039 199.602 27.4336 200.395 28.1035C201.188 28.7734 202.206 29.1084 203.45 29.1084Z"
                    fill="white" />
                <path
                    d="M231.812 26.1143C231.812 25.0889 231.423 24.2959 230.644 23.7354C229.878 23.1611 228.531 22.6689 226.604 22.2588C224.689 21.8486 223.165 21.3564 222.03 20.7822C220.909 20.208 220.075 19.5244 219.528 18.7314C218.995 17.9385 218.729 16.9951 218.729 15.9014C218.729 14.083 219.494 12.5449 221.025 11.2871C222.57 10.0293 224.539 9.40039 226.932 9.40039C229.447 9.40039 231.484 10.0498 233.043 11.3486C234.615 12.6475 235.401 14.3086 235.401 16.332H231.587C231.587 15.293 231.143 14.3975 230.254 13.6455C229.379 12.8936 228.271 12.5176 226.932 12.5176C225.551 12.5176 224.471 12.8184 223.691 13.4199C222.912 14.0215 222.522 14.8076 222.522 15.7783C222.522 16.6943 222.885 17.3848 223.609 17.8496C224.334 18.3145 225.64 18.7588 227.526 19.1826C229.427 19.6064 230.965 20.1123 232.141 20.7002C233.316 21.2881 234.185 21.999 234.745 22.833C235.319 23.6533 235.606 24.6582 235.606 25.8477C235.606 27.8301 234.813 29.4229 233.228 30.626C231.642 31.8154 229.584 32.4102 227.055 32.4102C225.277 32.4102 223.705 32.0957 222.338 31.4668C220.971 30.8379 219.897 29.9629 219.118 28.8418C218.353 27.707 217.97 26.4834 217.97 25.1709H221.764C221.832 26.4424 222.338 27.4541 223.281 28.2061C224.238 28.9443 225.496 29.3135 227.055 29.3135C228.49 29.3135 229.639 29.0264 230.5 28.4521C231.375 27.8643 231.812 27.085 231.812 26.1143Z"
                    fill="white" />
                <path
                    d="M252.833 32V12.7432H249.326V9.81055H252.833V7.53418C252.833 5.15527 253.469 3.31641 254.74 2.01758C256.012 0.71875 257.81 0.0693359 260.134 0.0693359C261.009 0.0693359 261.877 0.185547 262.738 0.417969L262.533 3.49414C261.891 3.37109 261.207 3.30957 260.482 3.30957C259.252 3.30957 258.302 3.67188 257.632 4.39648C256.962 5.10742 256.627 6.13281 256.627 7.47266V9.81055H261.364V12.7432H256.627V32H252.833Z"
                    fill="white" />
                <path
                    d="M276.294 13.2148C275.72 13.1191 275.098 13.0713 274.428 13.0713C271.939 13.0713 270.251 14.1309 269.362 16.25V32H265.568V9.81055H269.26L269.321 12.374C270.565 10.3916 272.329 9.40039 274.612 9.40039C275.351 9.40039 275.911 9.49609 276.294 9.6875V13.2148Z"
                    fill="white" />
                <path
                    d="M293.5 29.8057C292.023 31.542 289.856 32.4102 286.999 32.4102C284.634 32.4102 282.829 31.7266 281.585 30.3594C280.354 28.9785 279.732 26.9414 279.719 24.248V9.81055H283.513V24.1455C283.513 27.5088 284.88 29.1904 287.614 29.1904C290.513 29.1904 292.44 28.1104 293.397 25.9502V9.81055H297.191V32H293.582L293.5 29.8057Z"
                    fill="white" />
                <path
                    d="M308.122 4.4375V9.81055H312.265V12.7432H308.122V26.5039C308.122 27.3926 308.307 28.0625 308.676 28.5137C309.045 28.9512 309.674 29.1699 310.562 29.1699C311 29.1699 311.602 29.0879 312.367 28.9238V32C311.369 32.2734 310.398 32.4102 309.455 32.4102C307.76 32.4102 306.481 31.8975 305.62 30.8721C304.759 29.8467 304.328 28.3906 304.328 26.5039V12.7432H300.288V9.81055H304.328V4.4375H308.122Z"
                    fill="white" />
                <path
                    d="M330.414 32C330.195 31.5625 330.018 30.7832 329.881 29.6621C328.117 31.4941 326.012 32.4102 323.564 32.4102C321.377 32.4102 319.579 31.7949 318.171 30.5645C316.776 29.3203 316.079 27.748 316.079 25.8477C316.079 23.5371 316.954 21.7461 318.704 20.4746C320.468 19.1895 322.942 18.5469 326.128 18.5469H329.819V16.8037C329.819 15.4775 329.423 14.4248 328.63 13.6455C327.837 12.8525 326.668 12.4561 325.123 12.4561C323.77 12.4561 322.635 12.7979 321.719 13.4814C320.803 14.165 320.345 14.9922 320.345 15.9629H316.53C316.53 14.8555 316.92 13.7891 317.699 12.7637C318.492 11.7246 319.559 10.9043 320.898 10.3027C322.252 9.70117 323.735 9.40039 325.349 9.40039C327.905 9.40039 329.908 10.043 331.357 11.3281C332.807 12.5996 333.559 14.3564 333.613 16.5986V26.8115C333.613 28.8486 333.873 30.4688 334.393 31.6719V32H330.414ZM324.118 29.1084C325.308 29.1084 326.436 28.8008 327.502 28.1855C328.568 27.5703 329.341 26.7705 329.819 25.7861V21.2334H326.846C322.197 21.2334 319.873 22.5938 319.873 25.3145C319.873 26.5039 320.27 27.4336 321.062 28.1035C321.855 28.7734 322.874 29.1084 324.118 29.1084Z"
                    fill="white" />
                <path
                    d="M352.48 26.1143C352.48 25.0889 352.091 24.2959 351.312 23.7354C350.546 23.1611 349.199 22.6689 347.271 22.2588C345.357 21.8486 343.833 21.3564 342.698 20.7822C341.577 20.208 340.743 19.5244 340.196 18.7314C339.663 17.9385 339.396 16.9951 339.396 15.9014C339.396 14.083 340.162 12.5449 341.693 11.2871C343.238 10.0293 345.207 9.40039 347.6 9.40039C350.115 9.40039 352.152 10.0498 353.711 11.3486C355.283 12.6475 356.069 14.3086 356.069 16.332H352.255C352.255 15.293 351.811 14.3975 350.922 13.6455C350.047 12.8936 348.939 12.5176 347.6 12.5176C346.219 12.5176 345.139 12.8184 344.359 13.4199C343.58 14.0215 343.19 14.8076 343.19 15.7783C343.19 16.6943 343.553 17.3848 344.277 17.8496C345.002 18.3145 346.308 18.7588 348.194 19.1826C350.095 19.6064 351.633 20.1123 352.809 20.7002C353.984 21.2881 354.853 21.999 355.413 22.833C355.987 23.6533 356.274 24.6582 356.274 25.8477C356.274 27.8301 355.481 29.4229 353.896 30.626C352.31 31.8154 350.252 32.4102 347.723 32.4102C345.945 32.4102 344.373 32.0957 343.006 31.4668C341.639 30.8379 340.565 29.9629 339.786 28.8418C339.021 27.707 338.638 26.4834 338.638 25.1709H342.432C342.5 26.4424 343.006 27.4541 343.949 28.2061C344.906 28.9443 346.164 29.3135 347.723 29.3135C349.158 29.3135 350.307 29.0264 351.168 28.4521C352.043 27.8643 352.48 27.085 352.48 26.1143Z"
                    fill="white" />
                <path
                    d="M384.555 26.1143C384.555 25.0889 384.165 24.2959 383.386 23.7354C382.62 23.1611 381.273 22.6689 379.346 22.2588C377.432 21.8486 375.907 21.3564 374.772 20.7822C373.651 20.208 372.817 19.5244 372.271 18.7314C371.737 17.9385 371.471 16.9951 371.471 15.9014C371.471 14.083 372.236 12.5449 373.768 11.2871C375.312 10.0293 377.281 9.40039 379.674 9.40039C382.189 9.40039 384.227 10.0498 385.785 11.3486C387.357 12.6475 388.144 14.3086 388.144 16.332H384.329C384.329 15.293 383.885 14.3975 382.996 13.6455C382.121 12.8936 381.014 12.5176 379.674 12.5176C378.293 12.5176 377.213 12.8184 376.434 13.4199C375.654 14.0215 375.265 14.8076 375.265 15.7783C375.265 16.6943 375.627 17.3848 376.352 17.8496C377.076 18.3145 378.382 18.7588 380.269 19.1826C382.169 19.6064 383.707 20.1123 384.883 20.7002C386.059 21.2881 386.927 21.999 387.487 22.833C388.062 23.6533 388.349 24.6582 388.349 25.8477C388.349 27.8301 387.556 29.4229 385.97 30.626C384.384 31.8154 382.326 32.4102 379.797 32.4102C378.02 32.4102 376.447 32.0957 375.08 31.4668C373.713 30.8379 372.64 29.9629 371.86 28.8418C371.095 27.707 370.712 26.4834 370.712 25.1709H374.506C374.574 26.4424 375.08 27.4541 376.023 28.2061C376.98 28.9443 378.238 29.3135 379.797 29.3135C381.232 29.3135 382.381 29.0264 383.242 28.4521C384.117 27.8643 384.555 27.085 384.555 26.1143Z"
                    fill="white" />
                <path
                    d="M392.286 20.7002C392.286 18.5264 392.71 16.5713 393.558 14.835C394.419 13.0986 395.608 11.7588 397.126 10.8154C398.657 9.87207 400.4 9.40039 402.355 9.40039C405.377 9.40039 407.817 10.4463 409.677 12.5381C411.55 14.6299 412.486 17.4121 412.486 20.8848V21.1514C412.486 23.3115 412.069 25.2529 411.235 26.9756C410.415 28.6846 409.232 30.0176 407.688 30.9746C406.156 31.9316 404.393 32.4102 402.396 32.4102C399.389 32.4102 396.948 31.3643 395.075 29.2725C393.216 27.1807 392.286 24.4121 392.286 20.9668V20.7002ZM396.101 21.1514C396.101 23.6123 396.668 25.5879 397.803 27.0781C398.951 28.5684 400.482 29.3135 402.396 29.3135C404.324 29.3135 405.855 28.5615 406.99 27.0576C408.125 25.54 408.692 23.4209 408.692 20.7002C408.692 18.2666 408.111 16.2979 406.949 14.7939C405.801 13.2764 404.27 12.5176 402.355 12.5176C400.482 12.5176 398.972 13.2627 397.823 14.7529C396.675 16.2432 396.101 18.376 396.101 21.1514Z"
                    fill="white" />
                <path
                    d="M420.833 9.81055L420.956 12.5996C422.651 10.4668 424.866 9.40039 427.601 9.40039C432.29 9.40039 434.655 12.0459 434.696 17.3369V32H430.902V17.3164C430.889 15.7168 430.52 14.5342 429.795 13.7686C429.084 13.0029 427.97 12.6201 426.452 12.6201C425.222 12.6201 424.142 12.9482 423.212 13.6045C422.282 14.2607 421.558 15.1221 421.038 16.1885V32H417.244V9.81055H420.833Z"
                    fill="white" />
                <path
                    d="M454.425 9.81055L454.548 12.5996C456.243 10.4668 458.458 9.40039 461.192 9.40039C465.882 9.40039 468.247 12.0459 468.288 17.3369V32H464.494V17.3164C464.48 15.7168 464.111 14.5342 463.387 13.7686C462.676 13.0029 461.562 12.6201 460.044 12.6201C458.813 12.6201 457.733 12.9482 456.804 13.6045C455.874 14.2607 455.149 15.1221 454.63 16.1885V32H450.836V9.81055H454.425Z"
                    fill="white" />
                <path
                    d="M487.709 29.8057C486.232 31.542 484.065 32.4102 481.208 32.4102C478.843 32.4102 477.038 31.7266 475.794 30.3594C474.563 28.9785 473.941 26.9414 473.928 24.248V9.81055H477.722V24.1455C477.722 27.5088 479.089 29.1904 481.823 29.1904C484.722 29.1904 486.649 28.1104 487.606 25.9502V9.81055H491.4V32H487.791L487.709 29.8057Z"
                    fill="white" />
                <path
                    d="M502.331 4.4375V9.81055H506.474V12.7432H502.331V26.5039C502.331 27.3926 502.516 28.0625 502.885 28.5137C503.254 28.9512 503.883 29.1699 504.771 29.1699C505.209 29.1699 505.811 29.0879 506.576 28.9238V32C505.578 32.2734 504.607 32.4102 503.664 32.4102C501.969 32.4102 500.69 31.8975 499.829 30.8721C498.968 29.8467 498.537 28.3906 498.537 26.5039V12.7432H494.497V9.81055H498.537V4.4375H502.331Z"
                    fill="white" />
                <path
                    d="M521.649 13.2148C521.075 13.1191 520.453 13.0713 519.783 13.0713C517.295 13.0713 515.606 14.1309 514.718 16.25V32H510.924V9.81055H514.615L514.677 12.374C515.921 10.3916 517.685 9.40039 519.968 9.40039C520.706 9.40039 521.267 9.49609 521.649 9.6875V13.2148Z"
                    fill="white" />
                <path
                    d="M529.278 32H525.484V9.81055H529.278V32ZM525.177 3.9248C525.177 3.30957 525.361 2.79004 525.73 2.36621C526.113 1.94238 526.674 1.73047 527.412 1.73047C528.15 1.73047 528.711 1.94238 529.094 2.36621C529.477 2.79004 529.668 3.30957 529.668 3.9248C529.668 4.54004 529.477 5.05273 529.094 5.46289C528.711 5.87305 528.15 6.07812 527.412 6.07812C526.674 6.07812 526.113 5.87305 525.73 5.46289C525.361 5.05273 525.177 4.54004 525.177 3.9248Z"
                    fill="white" />
                <path
                    d="M540.517 4.4375V9.81055H544.659V12.7432H540.517V26.5039C540.517 27.3926 540.701 28.0625 541.07 28.5137C541.439 28.9512 542.068 29.1699 542.957 29.1699C543.395 29.1699 543.996 29.0879 544.762 28.9238V32C543.764 32.2734 542.793 32.4102 541.85 32.4102C540.154 32.4102 538.876 31.8975 538.015 30.8721C537.153 29.8467 536.723 28.3906 536.723 26.5039V12.7432H532.683V9.81055H536.723V4.4375H540.517Z"
                    fill="white" />
                <path
                    d="M553.231 32H549.438V9.81055H553.231V32ZM549.13 3.9248C549.13 3.30957 549.314 2.79004 549.684 2.36621C550.066 1.94238 550.627 1.73047 551.365 1.73047C552.104 1.73047 552.664 1.94238 553.047 2.36621C553.43 2.79004 553.621 3.30957 553.621 3.9248C553.621 4.54004 553.43 5.05273 553.047 5.46289C552.664 5.87305 552.104 6.07812 551.365 6.07812C550.627 6.07812 550.066 5.87305 549.684 5.46289C549.314 5.05273 549.13 4.54004 549.13 3.9248Z"
                    fill="white" />
                <path
                    d="M566.644 26.8525L572.14 9.81055H576.016L568.059 32H565.167L557.128 9.81055H561.004L566.644 26.8525Z"
                    fill="white" />
                <path
                    d="M593.037 32C592.818 31.5625 592.641 30.7832 592.504 29.6621C590.74 31.4941 588.635 32.4102 586.188 32.4102C584 32.4102 582.202 31.7949 580.794 30.5645C579.399 29.3203 578.702 27.748 578.702 25.8477C578.702 23.5371 579.577 21.7461 581.327 20.4746C583.091 19.1895 585.565 18.5469 588.751 18.5469H592.442V16.8037C592.442 15.4775 592.046 14.4248 591.253 13.6455C590.46 12.8525 589.291 12.4561 587.746 12.4561C586.393 12.4561 585.258 12.7979 584.342 13.4814C583.426 14.165 582.968 14.9922 582.968 15.9629H579.153C579.153 14.8555 579.543 13.7891 580.322 12.7637C581.115 11.7246 582.182 10.9043 583.521 10.3027C584.875 9.70117 586.358 9.40039 587.972 9.40039C590.528 9.40039 592.531 10.043 593.98 11.3281C595.43 12.5996 596.182 14.3564 596.236 16.5986V26.8115C596.236 28.8486 596.496 30.4688 597.016 31.6719V32H593.037ZM586.741 29.1084C587.931 29.1084 589.059 28.8008 590.125 28.1855C591.191 27.5703 591.964 26.7705 592.442 25.7861V21.2334H589.469C584.82 21.2334 582.496 22.5938 582.496 25.3145C582.496 26.5039 582.893 27.4336 583.686 28.1035C584.479 28.7734 585.497 29.1084 586.741 29.1084Z"
                    fill="white" />
                <path
                    d="M615.104 26.1143C615.104 25.0889 614.714 24.2959 613.935 23.7354C613.169 23.1611 611.822 22.6689 609.895 22.2588C607.98 21.8486 606.456 21.3564 605.321 20.7822C604.2 20.208 603.366 19.5244 602.819 18.7314C602.286 17.9385 602.02 16.9951 602.02 15.9014C602.02 14.083 602.785 12.5449 604.316 11.2871C605.861 10.0293 607.83 9.40039 610.223 9.40039C612.738 9.40039 614.775 10.0498 616.334 11.3486C617.906 12.6475 618.692 14.3086 618.692 16.332H614.878C614.878 15.293 614.434 14.3975 613.545 13.6455C612.67 12.8936 611.562 12.5176 610.223 12.5176C608.842 12.5176 607.762 12.8184 606.982 13.4199C606.203 14.0215 605.813 14.8076 605.813 15.7783C605.813 16.6943 606.176 17.3848 606.9 17.8496C607.625 18.3145 608.931 18.7588 610.817 19.1826C612.718 19.6064 614.256 20.1123 615.432 20.7002C616.607 21.2881 617.476 21.999 618.036 22.833C618.61 23.6533 618.897 24.6582 618.897 25.8477C618.897 27.8301 618.104 29.4229 616.519 30.626C614.933 31.8154 612.875 32.4102 610.346 32.4102C608.568 32.4102 606.996 32.0957 605.629 31.4668C604.262 30.8379 603.188 29.9629 602.409 28.8418C601.644 27.707 601.261 26.4834 601.261 25.1709H605.055C605.123 26.4424 605.629 27.4541 606.572 28.2061C607.529 28.9443 608.787 29.3135 610.346 29.3135C611.781 29.3135 612.93 29.0264 613.791 28.4521C614.666 27.8643 615.104 27.085 615.104 26.1143Z"
                    fill="white" />
                <path
                    d="M624.353 10.5488L622.199 9.07227C623.471 7.29492 624.127 5.42188 624.168 3.45312V0.5H627.921V3.16602C627.907 4.5332 627.565 5.90039 626.896 7.26758C626.239 8.62109 625.392 9.71484 624.353 10.5488ZM630.648 10.5488L628.495 9.07227C629.767 7.29492 630.423 5.42188 630.464 3.45312V0.5H634.217V3.16602C634.203 4.5332 633.861 5.90039 633.191 7.26758C632.535 8.62109 631.688 9.71484 630.648 10.5488Z"
                    fill="white" />
                <path
                    d="M638.934 30.0107C638.934 29.3545 639.125 28.8076 639.508 28.3701C639.904 27.9326 640.492 27.7139 641.271 27.7139C642.051 27.7139 642.639 27.9326 643.035 28.3701C643.445 28.8076 643.65 29.3545 643.65 30.0107C643.65 30.6396 643.445 31.166 643.035 31.5898C642.639 32.0137 642.051 32.2256 641.271 32.2256C640.492 32.2256 639.904 32.0137 639.508 31.5898C639.125 31.166 638.934 30.6396 638.934 30.0107Z"
                    fill="white" />
            </g>
            <g id="text02">
                <path
                    d="M843.486 2.14062V22.4434C843.473 25.2598 842.584 27.5635 840.82 29.3545C839.07 31.1455 836.691 32.1504 833.684 32.3691L832.638 32.4102C829.37 32.4102 826.766 31.5283 824.824 29.7646C822.883 28.001 821.898 25.5742 821.871 22.4844V2.14062H825.768V22.3613C825.768 24.5215 826.362 26.2031 827.552 27.4062C828.741 28.5957 830.437 29.1904 832.638 29.1904C834.866 29.1904 836.568 28.5957 837.744 27.4062C838.934 26.2168 839.528 24.542 839.528 22.3818V2.14062H843.486Z"
                    fill="#13EBF9" />
                <path
                    d="M849.188 30.0107C849.188 29.3545 849.379 28.8076 849.762 28.3701C850.158 27.9326 850.746 27.7139 851.525 27.7139C852.305 27.7139 852.893 27.9326 853.289 28.3701C853.699 28.8076 853.904 29.3545 853.904 30.0107C853.904 30.6396 853.699 31.166 853.289 31.5898C852.893 32.0137 852.305 32.2256 851.525 32.2256C850.746 32.2256 850.158 32.0137 849.762 31.5898C849.379 31.166 849.188 30.6396 849.188 30.0107Z"
                    fill="#13EBF9" />
                <path
                    d="M877.263 24.207H864.753L861.943 32H857.883L869.285 2.14062H872.73L884.153 32H880.113L877.263 24.207ZM865.942 20.9668H876.094L871.008 7.00098L865.942 20.9668Z"
                    fill="#13EBF9" />
                <path
                    d="M887.66 30.0107C887.66 29.3545 887.852 28.8076 888.234 28.3701C888.631 27.9326 889.219 27.7139 889.998 27.7139C890.777 27.7139 891.365 27.9326 891.762 28.3701C892.172 28.8076 892.377 29.3545 892.377 30.0107C892.377 30.6396 892.172 31.166 891.762 31.5898C891.365 32.0137 890.777 32.2256 889.998 32.2256C889.219 32.2256 888.631 32.0137 888.234 31.5898C887.852 31.166 887.66 30.6396 887.66 30.0107Z"
                    fill="#13EBF9" />
            </g>
        </g>
        <g id="parte02">
            <g id="text03">
                <path
                    d="M74.5117 97.083C73.5 98.5322 72.085 99.6191 70.2666 100.344C68.4619 101.055 66.3564 101.41 63.9502 101.41C61.5166 101.41 59.3564 100.843 57.4697 99.708C55.583 98.5596 54.1201 96.9326 53.0811 94.8271C52.0557 92.7217 51.5293 90.2812 51.502 87.5059V84.9014C51.502 80.4033 52.5479 76.917 54.6396 74.4424C56.7451 71.9678 59.6982 70.7305 63.499 70.7305C66.6162 70.7305 69.125 71.5303 71.0254 73.1299C72.9258 74.7158 74.0879 76.9717 74.5117 79.8975H70.5742C69.8359 75.9463 67.4844 73.9707 63.5195 73.9707C60.8809 73.9707 58.8779 74.9004 57.5107 76.7598C56.1572 78.6055 55.4736 81.2852 55.46 84.7988V87.2393C55.46 90.5889 56.2256 93.2549 57.7568 95.2373C59.2881 97.2061 61.3594 98.1904 63.9707 98.1904C65.4473 98.1904 66.7393 98.0264 67.8467 97.6982C68.9541 97.3701 69.8701 96.8164 70.5947 96.0371V89.3311H63.6836V86.1318H74.5117V97.083Z"
                    fill="#CD08D1" />
                <path
                    d="M91.2256 82.2148C90.6514 82.1191 90.0293 82.0713 89.3594 82.0713C86.8711 82.0713 85.1826 83.1309 84.2939 85.25V101H80.5V78.8105H84.1914L84.2529 81.374C85.4971 79.3916 87.2607 78.4004 89.5439 78.4004C90.2822 78.4004 90.8428 78.4961 91.2256 78.6875V82.2148Z"
                    fill="#CD08D1" />
                <path
                    d="M107.611 101C107.393 100.562 107.215 99.7832 107.078 98.6621C105.314 100.494 103.209 101.41 100.762 101.41C98.5742 101.41 96.7764 100.795 95.3682 99.5645C93.9736 98.3203 93.2764 96.748 93.2764 94.8477C93.2764 92.5371 94.1514 90.7461 95.9014 89.4746C97.665 88.1895 100.14 87.5469 103.325 87.5469H107.017V85.8037C107.017 84.4775 106.62 83.4248 105.827 82.6455C105.034 81.8525 103.865 81.4561 102.32 81.4561C100.967 81.4561 99.832 81.7979 98.916 82.4814C98 83.165 97.542 83.9922 97.542 84.9629H93.7275C93.7275 83.8555 94.1172 82.7891 94.8965 81.7637C95.6895 80.7246 96.7559 79.9043 98.0957 79.3027C99.4492 78.7012 100.933 78.4004 102.546 78.4004C105.103 78.4004 107.105 79.043 108.555 80.3281C110.004 81.5996 110.756 83.3564 110.811 85.5986V95.8115C110.811 97.8486 111.07 99.4688 111.59 100.672V101H107.611ZM101.315 98.1084C102.505 98.1084 103.633 97.8008 104.699 97.1855C105.766 96.5703 106.538 95.7705 107.017 94.7861V90.2334H104.043C99.3945 90.2334 97.0703 91.5938 97.0703 94.3145C97.0703 95.5039 97.4668 96.4336 98.2598 97.1035C99.0527 97.7734 100.071 98.1084 101.315 98.1084ZM104.822 69.5H109.416L103.92 75.5293H100.864L104.822 69.5Z"
                    fill="#CD08D1" />
                <path
                    d="M118.029 101V81.7432H114.522V78.8105H118.029V76.9238C118.029 74.4492 118.733 72.5215 120.142 71.1406C121.563 69.7598 123.566 69.0693 126.15 69.0693C127.682 69.0693 129.616 69.4863 131.954 70.3203L131.318 73.5195C129.609 72.8359 127.982 72.4941 126.438 72.4941C124.811 72.4941 123.635 72.8633 122.91 73.6016C122.199 74.3262 121.844 75.4199 121.844 76.8828V78.8105H126.376V81.7432H121.844V101H118.029ZM133.841 101H130.026V78.8105H133.841V101Z"
                    fill="#CD08D1" />
                <path
                    d="M148.914 98.3135C150.268 98.3135 151.45 97.9033 152.462 97.083C153.474 96.2627 154.034 95.2373 154.144 94.0068H157.732C157.664 95.2783 157.227 96.4883 156.42 97.6367C155.613 98.7852 154.533 99.7012 153.18 100.385C151.84 101.068 150.418 101.41 148.914 101.41C145.893 101.41 143.486 100.405 141.695 98.3955C139.918 96.3721 139.029 93.6104 139.029 90.1104V89.4746C139.029 87.3145 139.426 85.3936 140.219 83.7119C141.012 82.0303 142.146 80.7246 143.623 79.7949C145.113 78.8652 146.87 78.4004 148.894 78.4004C151.382 78.4004 153.446 79.1455 155.087 80.6357C156.741 82.126 157.623 84.0605 157.732 86.4395H154.144C154.034 85.0039 153.487 83.8281 152.503 82.9121C151.532 81.9824 150.329 81.5176 148.894 81.5176C146.966 81.5176 145.469 82.2148 144.402 83.6094C143.35 84.9902 142.823 86.9932 142.823 89.6182V90.3359C142.823 92.8926 143.35 94.8613 144.402 96.2422C145.455 97.623 146.959 98.3135 148.914 98.3135Z"
                    fill="#CD08D1" />
                <path
                    d="M175.697 101C175.479 100.562 175.301 99.7832 175.164 98.6621C173.4 100.494 171.295 101.41 168.848 101.41C166.66 101.41 164.862 100.795 163.454 99.5645C162.06 98.3203 161.362 96.748 161.362 94.8477C161.362 92.5371 162.237 90.7461 163.987 89.4746C165.751 88.1895 168.226 87.5469 171.411 87.5469H175.103V85.8037C175.103 84.4775 174.706 83.4248 173.913 82.6455C173.12 81.8525 171.951 81.4561 170.406 81.4561C169.053 81.4561 167.918 81.7979 167.002 82.4814C166.086 83.165 165.628 83.9922 165.628 84.9629H161.813C161.813 83.8555 162.203 82.7891 162.982 81.7637C163.775 80.7246 164.842 79.9043 166.182 79.3027C167.535 78.7012 169.019 78.4004 170.632 78.4004C173.188 78.4004 175.191 79.043 176.641 80.3281C178.09 81.5996 178.842 83.3564 178.896 85.5986V95.8115C178.896 97.8486 179.156 99.4688 179.676 100.672V101H175.697ZM169.401 98.1084C170.591 98.1084 171.719 97.8008 172.785 97.1855C173.852 96.5703 174.624 95.7705 175.103 94.7861V90.2334H172.129C167.48 90.2334 165.156 91.5938 165.156 94.3145C165.156 95.5039 165.553 96.4336 166.346 97.1035C167.139 97.7734 168.157 98.1084 169.401 98.1084Z"
                    fill="#CD08D1" />
                <path
                    d="M197.764 95.1143C197.764 94.0889 197.374 93.2959 196.595 92.7354C195.829 92.1611 194.482 91.6689 192.555 91.2588C190.641 90.8486 189.116 90.3564 187.981 89.7822C186.86 89.208 186.026 88.5244 185.479 87.7314C184.946 86.9385 184.68 85.9951 184.68 84.9014C184.68 83.083 185.445 81.5449 186.977 80.2871C188.521 79.0293 190.49 78.4004 192.883 78.4004C195.398 78.4004 197.436 79.0498 198.994 80.3486C200.566 81.6475 201.353 83.3086 201.353 85.332H197.538C197.538 84.293 197.094 83.3975 196.205 82.6455C195.33 81.8936 194.223 81.5176 192.883 81.5176C191.502 81.5176 190.422 81.8184 189.643 82.4199C188.863 83.0215 188.474 83.8076 188.474 84.7783C188.474 85.6943 188.836 86.3848 189.561 86.8496C190.285 87.3145 191.591 87.7588 193.478 88.1826C195.378 88.6064 196.916 89.1123 198.092 89.7002C199.268 90.2881 200.136 90.999 200.696 91.833C201.271 92.6533 201.558 93.6582 201.558 94.8477C201.558 96.8301 200.765 98.4229 199.179 99.626C197.593 100.815 195.535 101.41 193.006 101.41C191.229 101.41 189.656 101.096 188.289 100.467C186.922 99.8379 185.849 98.9629 185.069 97.8418C184.304 96.707 183.921 95.4834 183.921 94.1709H187.715C187.783 95.4424 188.289 96.4541 189.232 97.2061C190.189 97.9443 191.447 98.3135 193.006 98.3135C194.441 98.3135 195.59 98.0264 196.451 97.4521C197.326 96.8643 197.764 96.085 197.764 95.1143Z"
                    fill="#CD08D1" />
                <path
                    d="M206.377 99.0107C206.377 98.3545 206.568 97.8076 206.951 97.3701C207.348 96.9326 207.936 96.7139 208.715 96.7139C209.494 96.7139 210.082 96.9326 210.479 97.3701C210.889 97.8076 211.094 98.3545 211.094 99.0107C211.094 99.6396 210.889 100.166 210.479 100.59C210.082 101.014 209.494 101.226 208.715 101.226C207.936 101.226 207.348 101.014 206.951 100.59C206.568 100.166 206.377 99.6396 206.377 99.0107ZM206.397 80.9023C206.397 80.2461 206.589 79.6992 206.972 79.2617C207.368 78.8242 207.956 78.6055 208.735 78.6055C209.515 78.6055 210.103 78.8242 210.499 79.2617C210.909 79.6992 211.114 80.2461 211.114 80.9023C211.114 81.5312 210.909 82.0576 210.499 82.4814C210.103 82.9053 209.515 83.1172 208.735 83.1172C207.956 83.1172 207.368 82.9053 206.972 82.4814C206.589 82.0576 206.397 81.5312 206.397 80.9023Z"
                    fill="#CD08D1" />
            </g>
            <g id="grafico01">
                <path id="Rectangle 14 (Stroke)" fill-rule="evenodd" clip-rule="evenodd"
                    d="M517 129H149V347H517V129ZM145 125V351H521V125H145Z" fill="#1043F5" />
                <path id="Ellipse 13 (Stroke)" fill-rule="evenodd" clip-rule="evenodd"
                    d="M289 319C327.66 319 359 287.66 359 249C359 210.34 327.66 179 289 179C250.34 179 219 210.34 219 249C219 287.66 250.34 319 289 319ZM289 324C330.421 324 364 290.421 364 249C364 207.579 330.421 174 289 174C247.579 174 214 207.579 214 249C214 290.421 247.579 324 289 324Z"
                    fill="#E79720" />
                <path id="Ellipse 14 (Stroke)" fill-rule="evenodd" clip-rule="evenodd"
                    d="M376 319C414.66 319 446 287.66 446 249C446 210.34 414.66 179 376 179C337.34 179 306 210.34 306 249C306 287.66 337.34 319 376 319ZM376 324C417.421 324 451 290.421 451 249C451 207.579 417.421 174 376 174C334.579 174 301 207.579 301 249C301 290.421 334.579 324 376 324Z"
                    fill="#2CF30B" />
                <path id="F"
                    d="M221.934 174.813H209.403V188H205.466V158.141H223.964V161.381H209.403V171.594H221.934V174.813Z"
                    fill="#E79720" />
                <path id="N"
                    d="M473.414 188H469.456L454.424 164.99V188H450.466V158.141H454.424L469.497 181.253V158.141H473.414V188Z"
                    fill="#2CF30B" />
                <path id="Ellipse 15"
                    d="M301.5 250.5C301.5 277.193 313.5 291.5 332.5 308C331.341 315.008 303.754 323.5 289.026 323.5C247.604 323.5 214.026 291.921 214.026 250.5C214.026 209.079 247.604 175.5 289.026 175.5C303.754 175.5 329.341 182.666 330.5 190C311.474 207.5 301.5 223.807 301.5 250.5Z"
                    fill="#E79720" />
                <g id="Group 22">
                    <path id="Line 1 (Stroke)" fill-rule="evenodd" clip-rule="evenodd"
                        d="M249.232 265.588C248.256 264.611 248.256 263.028 249.232 262.052L281.052 230.232C282.028 229.256 283.611 229.256 284.588 230.232C285.564 231.209 285.564 232.791 284.588 233.768L252.768 265.588C251.791 266.564 250.209 266.564 249.232 265.588Z"
                        fill="#FD0C0C" />
                    <path id="Line 2 (Stroke)" fill-rule="evenodd" clip-rule="evenodd"
                        d="M248.768 230.232C249.744 229.256 251.327 229.256 252.303 230.232L284.123 262.052C285.099 263.028 285.099 264.611 284.123 265.588C283.147 266.564 281.564 266.564 280.588 265.588L248.768 233.768C247.791 232.791 247.791 231.209 248.768 230.232Z"
                        fill="#FD0C0C" />
                </g>
            </g>
        </g>
        <g id="parte03">
            <g id="text04">
                <path
                    d="M743.901 120.065C743.901 122.226 743.259 124.051 741.974 125.541C740.702 127.018 739.13 127.756 737.257 127.756C736.272 127.756 735.343 127.578 734.468 127.223C733.593 126.854 732.574 126.163 731.412 125.151C730.264 124.14 729.437 123.511 728.931 123.265C728.425 123.019 727.885 122.896 727.311 122.896C726.244 122.896 725.424 123.265 724.85 124.003C724.275 124.728 723.988 125.732 723.988 127.018L720.687 127.059C720.687 124.871 721.315 123.073 722.573 121.665C723.831 120.257 725.41 119.553 727.311 119.553C728.35 119.553 729.348 119.771 730.305 120.209C731.262 120.646 732.342 121.419 733.545 122.526C734.748 123.62 735.787 124.235 736.662 124.372L737.257 124.413C738.296 124.413 739.137 124.017 739.779 123.224C740.436 122.431 740.764 121.385 740.764 120.086L743.901 120.065Z"
                    fill="#13EBF9" />
                <path d="M757.313 104.992H753.396V139.281H757.313V142.398H749.582V101.875H757.313V104.992Z"
                    fill="#13EBF9" />
                <path
                    d="M783.646 120.065C783.646 122.226 783.003 124.051 781.718 125.541C780.446 127.018 778.874 127.756 777.001 127.756C776.017 127.756 775.087 127.578 774.212 127.223C773.337 126.854 772.318 126.163 771.156 125.151C770.008 124.14 769.181 123.511 768.675 123.265C768.169 123.019 767.629 122.896 767.055 122.896C765.988 122.896 765.168 123.265 764.594 124.003C764.02 124.728 763.732 125.732 763.732 127.018L760.431 127.059C760.431 124.871 761.06 123.073 762.317 121.665C763.575 120.257 765.154 119.553 767.055 119.553C768.094 119.553 769.092 119.771 770.049 120.209C771.006 120.646 772.086 121.419 773.289 122.526C774.492 123.62 775.531 124.235 776.406 124.372L777.001 124.413C778.04 124.413 778.881 124.017 779.523 123.224C780.18 122.431 780.508 121.385 780.508 120.086L783.646 120.065Z"
                    fill="#13EBF9" />
                <path
                    d="M789.06 123.88C789.06 120.79 789.47 117.823 790.29 114.979C791.124 112.136 792.361 109.552 794.002 107.228C795.643 104.903 797.345 103.263 799.108 102.306L799.888 104.808C797.892 106.339 796.251 108.677 794.966 111.821C793.694 114.966 792.997 118.486 792.874 122.383L792.854 124.126C792.854 129.403 793.817 133.983 795.745 137.866C796.907 140.19 798.288 142.009 799.888 143.321L799.108 145.639C797.29 144.627 795.554 142.932 793.899 140.553C790.673 135.904 789.06 130.347 789.06 123.88Z"
                    fill="#13EBF9" />
                <path
                    d="M825.174 106.141V126.443C825.16 129.26 824.271 131.563 822.508 133.354C820.758 135.146 818.379 136.15 815.371 136.369L814.325 136.41C811.058 136.41 808.453 135.528 806.512 133.765C804.57 132.001 803.586 129.574 803.559 126.484V106.141H807.455V126.361C807.455 128.521 808.05 130.203 809.239 131.406C810.429 132.596 812.124 133.19 814.325 133.19C816.554 133.19 818.256 132.596 819.432 131.406C820.621 130.217 821.216 128.542 821.216 126.382V106.141H825.174Z"
                    fill="#13EBF9" />
                <path
                    d="M830.875 134.011C830.875 133.354 831.066 132.808 831.449 132.37C831.846 131.933 832.434 131.714 833.213 131.714C833.992 131.714 834.58 131.933 834.977 132.37C835.387 132.808 835.592 133.354 835.592 134.011C835.592 134.64 835.387 135.166 834.977 135.59C834.58 136.014 833.992 136.226 833.213 136.226C832.434 136.226 831.846 136.014 831.449 135.59C831.066 135.166 830.875 134.64 830.875 134.011Z"
                    fill="#13EBF9" />
                <path
                    d="M858.95 128.207H846.44L843.631 136H839.57L850.973 106.141H854.418L865.841 136H861.801L858.95 128.207ZM847.63 124.967H857.781L852.695 111.001L847.63 124.967Z"
                    fill="#13EBF9" />
                <path
                    d="M869.348 134.011C869.348 133.354 869.539 132.808 869.922 132.37C870.318 131.933 870.906 131.714 871.686 131.714C872.465 131.714 873.053 131.933 873.449 132.37C873.859 132.808 874.064 133.354 874.064 134.011C874.064 134.64 873.859 135.166 873.449 135.59C873.053 136.014 872.465 136.226 871.686 136.226C870.906 136.226 870.318 136.014 869.922 135.59C869.539 135.166 869.348 134.64 869.348 134.011Z"
                    fill="#13EBF9" />
                <path
                    d="M889.097 124.085C889.097 127.134 888.693 130.06 887.887 132.862C887.094 135.651 885.87 138.229 884.216 140.594C882.575 142.959 880.853 144.641 879.048 145.639L878.248 143.321C880.354 141.708 882.042 139.206 883.313 135.815C884.599 132.411 885.255 128.638 885.282 124.495V123.839C885.282 120.968 884.981 118.302 884.38 115.841C883.778 113.366 882.938 111.151 881.857 109.196C880.791 107.241 879.588 105.717 878.248 104.623L879.048 102.306C880.853 103.304 882.568 104.972 884.195 107.31C885.836 109.647 887.06 112.225 887.866 115.041C888.687 117.857 889.097 120.872 889.097 124.085Z"
                    fill="#13EBF9" />
                <path d="M892.255 101.875H900.007V142.398H892.255V139.281H896.213V104.992H892.255V101.875Z"
                    fill="#13EBF9" />
            </g>
            <g id="text05">
                <path
                    d="M752.901 214.065C752.901 216.226 752.259 218.051 750.974 219.541C749.702 221.018 748.13 221.756 746.257 221.756C745.272 221.756 744.343 221.578 743.468 221.223C742.593 220.854 741.574 220.163 740.412 219.151C739.264 218.14 738.437 217.511 737.931 217.265C737.425 217.019 736.885 216.896 736.311 216.896C735.244 216.896 734.424 217.265 733.85 218.003C733.275 218.728 732.988 219.732 732.988 221.018L729.687 221.059C729.687 218.871 730.315 217.073 731.573 215.665C732.831 214.257 734.41 213.553 736.311 213.553C737.35 213.553 738.348 213.771 739.305 214.209C740.262 214.646 741.342 215.419 742.545 216.526C743.748 217.62 744.787 218.235 745.662 218.372L746.257 218.413C747.296 218.413 748.137 218.017 748.779 217.224C749.436 216.431 749.764 215.385 749.764 214.086L752.901 214.065Z"
                    fill="#13EBF9" />
                <path
                    d="M758.315 217.88C758.315 214.79 758.726 211.823 759.546 208.979C760.38 206.136 761.617 203.552 763.258 201.228C764.898 198.903 766.601 197.263 768.364 196.306L769.144 198.808C767.147 200.339 765.507 202.677 764.222 205.821C762.95 208.966 762.253 212.486 762.13 216.383L762.109 218.126C762.109 223.403 763.073 227.983 765.001 231.866C766.163 234.19 767.544 236.009 769.144 237.321L768.364 239.639C766.546 238.627 764.81 236.932 763.155 234.553C759.929 229.904 758.315 224.347 758.315 217.88Z"
                    fill="#13EBF9" />
                <path
                    d="M777.347 218.311V230H773.409V200.141H784.422C787.689 200.141 790.246 200.975 792.092 202.643C793.951 204.311 794.881 206.519 794.881 209.267C794.881 212.165 793.972 214.4 792.153 215.973C790.349 217.531 787.758 218.311 784.381 218.311H777.347ZM777.347 215.091H784.422C786.527 215.091 788.141 214.599 789.262 213.614C790.383 212.616 790.943 211.181 790.943 209.308C790.943 207.53 790.383 206.108 789.262 205.042C788.141 203.976 786.603 203.422 784.647 203.381H777.347V215.091Z"
                    fill="#13EBF9" />
                <path
                    d="M792.748 228.011C792.748 227.354 792.939 226.808 793.322 226.37C793.719 225.933 794.307 225.714 795.086 225.714C795.865 225.714 796.453 225.933 796.85 226.37C797.26 226.808 797.465 227.354 797.465 228.011C797.465 228.64 797.26 229.166 796.85 229.59C796.453 230.014 795.865 230.226 795.086 230.226C794.307 230.226 793.719 230.014 793.322 229.59C792.939 229.166 792.748 228.64 792.748 228.011Z"
                    fill="#13EBF9" />
                <path
                    d="M827.283 230H823.325L808.293 206.99V230H804.335V200.141H808.293L823.366 223.253V200.141H827.283V230Z"
                    fill="#13EBF9" />
                <path
                    d="M833.764 228.011C833.764 227.354 833.955 226.808 834.338 226.37C834.734 225.933 835.322 225.714 836.102 225.714C836.881 225.714 837.469 225.933 837.865 226.37C838.275 226.808 838.48 227.354 838.48 228.011C838.48 228.64 838.275 229.166 837.865 229.59C837.469 230.014 836.881 230.226 836.102 230.226C835.322 230.226 834.734 230.014 834.338 229.59C833.955 229.166 833.764 228.64 833.764 228.011Z"
                    fill="#13EBF9" />
                <path
                    d="M853.513 218.085C853.513 221.134 853.109 224.06 852.303 226.862C851.51 229.651 850.286 232.229 848.632 234.594C846.991 236.959 845.269 238.641 843.464 239.639L842.664 237.321C844.77 235.708 846.458 233.206 847.729 229.815C849.015 226.411 849.671 222.638 849.698 218.495V217.839C849.698 214.968 849.397 212.302 848.796 209.841C848.194 207.366 847.354 205.151 846.273 203.196C845.207 201.241 844.004 199.717 842.664 198.623L843.464 196.306C845.269 197.304 846.984 198.972 848.611 201.31C850.252 203.647 851.476 206.225 852.282 209.041C853.103 211.857 853.513 214.872 853.513 218.085Z"
                    fill="#13EBF9" />
            </g>
        </g>
        <g id="text06">
            <path
                d="M4.11914 404.11L6.29297 405.587C5.02148 407.323 4.36523 409.196 4.32422 411.206V413.995H0.550781V411.616C0.550781 410.222 0.878906 408.841 1.53516 407.474C2.20508 406.106 3.06641 404.985 4.11914 404.11ZM10.5791 404.11L12.7529 405.587C11.4814 407.323 10.8252 409.196 10.7842 411.206V413.995H7.01074V411.616C7.01074 410.222 7.33887 408.841 7.99512 407.474C8.66504 406.106 9.52637 404.985 10.5791 404.11Z"
                fill="white" />
            <path
                d="M39.6797 436H35.7217L20.6895 412.99V436H16.7314V406.141H20.6895L35.7627 429.253V406.141H39.6797V436Z"
                fill="white" />
            <path
                d="M45.0732 424.7C45.0732 422.526 45.4971 420.571 46.3447 418.835C47.2061 417.099 48.3955 415.759 49.9131 414.815C51.4443 413.872 53.1875 413.4 55.1426 413.4C58.1641 413.4 60.6045 414.446 62.4639 416.538C64.3369 418.63 65.2734 421.412 65.2734 424.885V425.151C65.2734 427.312 64.8564 429.253 64.0225 430.976C63.2021 432.685 62.0195 434.018 60.4746 434.975C58.9434 435.932 57.1797 436.41 55.1836 436.41C52.1758 436.41 49.7354 435.364 47.8623 433.272C46.0029 431.181 45.0732 428.412 45.0732 424.967V424.7ZM48.8877 425.151C48.8877 427.612 49.4551 429.588 50.5898 431.078C51.7383 432.568 53.2695 433.313 55.1836 433.313C57.1113 433.313 58.6426 432.562 59.7773 431.058C60.9121 429.54 61.4795 427.421 61.4795 424.7C61.4795 422.267 60.8984 420.298 59.7363 418.794C58.5879 417.276 57.0566 416.518 55.1426 416.518C53.2695 416.518 51.7588 417.263 50.6104 418.753C49.4619 420.243 48.8877 422.376 48.8877 425.151Z"
                fill="white" />
            <path
                d="M89.6572 436.41C86.6494 436.41 84.2021 435.426 82.3154 433.457C80.4287 431.475 79.4854 428.829 79.4854 425.521V424.823C79.4854 422.622 79.9023 420.66 80.7363 418.938C81.584 417.201 82.7598 415.848 84.2637 414.877C85.7812 413.893 87.4219 413.4 89.1855 413.4C92.0703 413.4 94.3125 414.351 95.9121 416.251C97.5117 418.151 98.3115 420.872 98.3115 424.413V425.992H83.2793C83.334 428.18 83.9697 429.95 85.1865 431.304C86.417 432.644 87.9756 433.313 89.8623 433.313C91.2021 433.313 92.3369 433.04 93.2666 432.493C94.1963 431.946 95.0098 431.222 95.707 430.319L98.0244 432.124C96.165 434.981 93.376 436.41 89.6572 436.41ZM89.1855 416.518C87.6543 416.518 86.3691 417.078 85.3301 418.199C84.291 419.307 83.6484 420.865 83.4023 422.875H94.5176V422.588C94.4082 420.66 93.8887 419.17 92.959 418.117C92.0293 417.051 90.7715 416.518 89.1855 416.518Z"
                fill="white" />
            <path
                d="M115.641 430.114C115.641 429.089 115.251 428.296 114.472 427.735C113.706 427.161 112.359 426.669 110.432 426.259C108.518 425.849 106.993 425.356 105.858 424.782C104.737 424.208 103.903 423.524 103.356 422.731C102.823 421.938 102.557 420.995 102.557 419.901C102.557 418.083 103.322 416.545 104.854 415.287C106.398 414.029 108.367 413.4 110.76 413.4C113.275 413.4 115.312 414.05 116.871 415.349C118.443 416.647 119.229 418.309 119.229 420.332H115.415C115.415 419.293 114.971 418.397 114.082 417.646C113.207 416.894 112.1 416.518 110.76 416.518C109.379 416.518 108.299 416.818 107.52 417.42C106.74 418.021 106.351 418.808 106.351 419.778C106.351 420.694 106.713 421.385 107.438 421.85C108.162 422.314 109.468 422.759 111.354 423.183C113.255 423.606 114.793 424.112 115.969 424.7C117.145 425.288 118.013 425.999 118.573 426.833C119.147 427.653 119.435 428.658 119.435 429.848C119.435 431.83 118.642 433.423 117.056 434.626C115.47 435.815 113.412 436.41 110.883 436.41C109.105 436.41 107.533 436.096 106.166 435.467C104.799 434.838 103.726 433.963 102.946 432.842C102.181 431.707 101.798 430.483 101.798 429.171H105.592C105.66 430.442 106.166 431.454 107.109 432.206C108.066 432.944 109.324 433.313 110.883 433.313C112.318 433.313 113.467 433.026 114.328 432.452C115.203 431.864 115.641 431.085 115.641 430.114Z"
                fill="white" />
            <path
                d="M144.003 436.41C140.995 436.41 138.548 435.426 136.661 433.457C134.774 431.475 133.831 428.829 133.831 425.521V424.823C133.831 422.622 134.248 420.66 135.082 418.938C135.93 417.201 137.105 415.848 138.609 414.877C140.127 413.893 141.768 413.4 143.531 413.4C146.416 413.4 148.658 414.351 150.258 416.251C151.857 418.151 152.657 420.872 152.657 424.413V425.992H137.625C137.68 428.18 138.315 429.95 139.532 431.304C140.763 432.644 142.321 433.313 144.208 433.313C145.548 433.313 146.683 433.04 147.612 432.493C148.542 431.946 149.355 431.222 150.053 430.319L152.37 432.124C150.511 434.981 147.722 436.41 144.003 436.41ZM143.531 416.518C142 416.518 140.715 417.078 139.676 418.199C138.637 419.307 137.994 420.865 137.748 422.875H148.863V422.588C148.754 420.66 148.234 419.17 147.305 418.117C146.375 417.051 145.117 416.518 143.531 416.518Z"
                fill="white" />
            <path d="M161.188 436H157.395V404.5H161.188V436Z" fill="white" />
            <path
                d="M186.598 433.313C187.951 433.313 189.134 432.903 190.146 432.083C191.157 431.263 191.718 430.237 191.827 429.007H195.416C195.348 430.278 194.91 431.488 194.104 432.637C193.297 433.785 192.217 434.701 190.863 435.385C189.523 436.068 188.102 436.41 186.598 436.41C183.576 436.41 181.17 435.405 179.379 433.396C177.602 431.372 176.713 428.61 176.713 425.11V424.475C176.713 422.314 177.109 420.394 177.902 418.712C178.695 417.03 179.83 415.725 181.307 414.795C182.797 413.865 184.554 413.4 186.577 413.4C189.065 413.4 191.13 414.146 192.771 415.636C194.425 417.126 195.307 419.061 195.416 421.439H191.827C191.718 420.004 191.171 418.828 190.187 417.912C189.216 416.982 188.013 416.518 186.577 416.518C184.649 416.518 183.152 417.215 182.086 418.609C181.033 419.99 180.507 421.993 180.507 424.618V425.336C180.507 427.893 181.033 429.861 182.086 431.242C183.139 432.623 184.643 433.313 186.598 433.313Z"
                fill="white" />
            <path
                d="M213.381 436C213.162 435.562 212.984 434.783 212.848 433.662C211.084 435.494 208.979 436.41 206.531 436.41C204.344 436.41 202.546 435.795 201.138 434.564C199.743 433.32 199.046 431.748 199.046 429.848C199.046 427.537 199.921 425.746 201.671 424.475C203.435 423.189 205.909 422.547 209.095 422.547H212.786V420.804C212.786 419.478 212.39 418.425 211.597 417.646C210.804 416.853 209.635 416.456 208.09 416.456C206.736 416.456 205.602 416.798 204.686 417.481C203.77 418.165 203.312 418.992 203.312 419.963H199.497C199.497 418.855 199.887 417.789 200.666 416.764C201.459 415.725 202.525 414.904 203.865 414.303C205.219 413.701 206.702 413.4 208.315 413.4C210.872 413.4 212.875 414.043 214.324 415.328C215.773 416.6 216.525 418.356 216.58 420.599V430.812C216.58 432.849 216.84 434.469 217.359 435.672V436H213.381ZM207.085 433.108C208.274 433.108 209.402 432.801 210.469 432.186C211.535 431.57 212.308 430.771 212.786 429.786V425.233H209.812C205.164 425.233 202.84 426.594 202.84 429.314C202.84 430.504 203.236 431.434 204.029 432.104C204.822 432.773 205.841 433.108 207.085 433.108Z"
                fill="white" />
            <path
                d="M235.447 430.114C235.447 429.089 235.058 428.296 234.278 427.735C233.513 427.161 232.166 426.669 230.238 426.259C228.324 425.849 226.8 425.356 225.665 424.782C224.544 424.208 223.71 423.524 223.163 422.731C222.63 421.938 222.363 420.995 222.363 419.901C222.363 418.083 223.129 416.545 224.66 415.287C226.205 414.029 228.174 413.4 230.566 413.4C233.082 413.4 235.119 414.05 236.678 415.349C238.25 416.647 239.036 418.309 239.036 420.332H235.222C235.222 419.293 234.777 418.397 233.889 417.646C233.014 416.894 231.906 416.518 230.566 416.518C229.186 416.518 228.105 416.818 227.326 417.42C226.547 418.021 226.157 418.808 226.157 419.778C226.157 420.694 226.52 421.385 227.244 421.85C227.969 422.314 229.274 422.759 231.161 423.183C233.062 423.606 234.6 424.112 235.775 424.7C236.951 425.288 237.819 425.999 238.38 426.833C238.954 427.653 239.241 428.658 239.241 429.848C239.241 431.83 238.448 433.423 236.862 434.626C235.276 435.815 233.219 436.41 230.689 436.41C228.912 436.41 227.34 436.096 225.973 435.467C224.605 434.838 223.532 433.963 222.753 432.842C221.987 431.707 221.604 430.483 221.604 429.171H225.398C225.467 430.442 225.973 431.454 226.916 432.206C227.873 432.944 229.131 433.313 230.689 433.313C232.125 433.313 233.273 433.026 234.135 432.452C235.01 431.864 235.447 431.085 235.447 430.114Z"
                fill="white" />
            <path
                d="M243.179 424.7C243.179 422.526 243.603 420.571 244.45 418.835C245.312 417.099 246.501 415.759 248.019 414.815C249.55 413.872 251.293 413.4 253.248 413.4C256.27 413.4 258.71 414.446 260.569 416.538C262.442 418.63 263.379 421.412 263.379 424.885V425.151C263.379 427.312 262.962 429.253 262.128 430.976C261.308 432.685 260.125 434.018 258.58 434.975C257.049 435.932 255.285 436.41 253.289 436.41C250.281 436.41 247.841 435.364 245.968 433.272C244.108 431.181 243.179 428.412 243.179 424.967V424.7ZM246.993 425.151C246.993 427.612 247.561 429.588 248.695 431.078C249.844 432.568 251.375 433.313 253.289 433.313C255.217 433.313 256.748 432.562 257.883 431.058C259.018 429.54 259.585 427.421 259.585 424.7C259.585 422.267 259.004 420.298 257.842 418.794C256.693 417.276 255.162 416.518 253.248 416.518C251.375 416.518 249.864 417.263 248.716 418.753C247.567 420.243 246.993 422.376 246.993 425.151Z"
                fill="white" />
            <path
                d="M277.632 424.721C277.632 421.234 278.432 418.479 280.031 416.456C281.631 414.419 283.777 413.4 286.471 413.4C289.096 413.4 291.167 414.282 292.685 416.046L292.849 413.811H296.335V444.531H292.541V433.949C291.01 435.59 288.973 436.41 286.43 436.41C283.75 436.41 281.61 435.371 280.011 433.293C278.425 431.201 277.632 428.433 277.632 424.987V424.721ZM281.426 425.151C281.426 427.694 281.959 429.69 283.025 431.14C284.105 432.589 285.555 433.313 287.373 433.313C289.629 433.313 291.352 432.315 292.541 430.319V419.45C291.338 417.495 289.629 416.518 287.414 416.518C285.582 416.518 284.126 417.249 283.046 418.712C281.966 420.161 281.426 422.308 281.426 425.151Z"
                fill="white" />
            <path
                d="M316.125 433.806C314.648 435.542 312.481 436.41 309.624 436.41C307.259 436.41 305.454 435.727 304.21 434.359C302.979 432.979 302.357 430.941 302.344 428.248V413.811H306.138V428.146C306.138 431.509 307.505 433.19 310.239 433.19C313.138 433.19 315.065 432.11 316.022 429.95V413.811H319.816V436H316.207L316.125 433.806Z"
                fill="white" />
            <path
                d="M334.808 436.41C331.8 436.41 329.353 435.426 327.466 433.457C325.579 431.475 324.636 428.829 324.636 425.521V424.823C324.636 422.622 325.053 420.66 325.887 418.938C326.734 417.201 327.91 415.848 329.414 414.877C330.932 413.893 332.572 413.4 334.336 413.4C337.221 413.4 339.463 414.351 341.062 416.251C342.662 418.151 343.462 420.872 343.462 424.413V425.992H328.43C328.484 428.18 329.12 429.95 330.337 431.304C331.567 432.644 333.126 433.313 335.013 433.313C336.353 433.313 337.487 433.04 338.417 432.493C339.347 431.946 340.16 431.222 340.857 430.319L343.175 432.124C341.315 434.981 338.526 436.41 334.808 436.41ZM334.336 416.518C332.805 416.518 331.52 417.078 330.48 418.199C329.441 419.307 328.799 420.865 328.553 422.875H339.668V422.588C339.559 420.66 339.039 419.17 338.109 418.117C337.18 417.051 335.922 416.518 334.336 416.518Z"
                fill="white" />
            <path
                d="M371.988 436C371.77 435.562 371.592 434.783 371.455 433.662C369.691 435.494 367.586 436.41 365.139 436.41C362.951 436.41 361.153 435.795 359.745 434.564C358.351 433.32 357.653 431.748 357.653 429.848C357.653 427.537 358.528 425.746 360.278 424.475C362.042 423.189 364.517 422.547 367.702 422.547H371.394V420.804C371.394 419.478 370.997 418.425 370.204 417.646C369.411 416.853 368.242 416.456 366.697 416.456C365.344 416.456 364.209 416.798 363.293 417.481C362.377 418.165 361.919 418.992 361.919 419.963H358.104C358.104 418.855 358.494 417.789 359.273 416.764C360.066 415.725 361.133 414.904 362.473 414.303C363.826 413.701 365.31 413.4 366.923 413.4C369.479 413.4 371.482 414.043 372.932 415.328C374.381 416.6 375.133 418.356 375.188 420.599V430.812C375.188 432.849 375.447 434.469 375.967 435.672V436H371.988ZM365.692 433.108C366.882 433.108 368.01 432.801 369.076 432.186C370.143 431.57 370.915 430.771 371.394 429.786V425.233H368.42C363.771 425.233 361.447 426.594 361.447 429.314C361.447 430.504 361.844 431.434 362.637 432.104C363.43 432.773 364.448 433.108 365.692 433.108Z"
                fill="white" />
            <path d="M385.257 436H381.463V404.5H385.257V436Z" fill="white" />
            <path
                d="M390.445 424.721C390.445 421.262 391.245 418.514 392.845 416.477C394.444 414.426 396.563 413.4 399.202 413.4C401.909 413.4 404.021 414.357 405.539 416.271L405.724 413.811H409.189V435.467C409.189 438.338 408.335 440.601 406.626 442.255C404.931 443.909 402.647 444.736 399.776 444.736C398.177 444.736 396.611 444.395 395.08 443.711C393.549 443.027 392.38 442.091 391.573 440.901L393.542 438.625C395.169 440.635 397.158 441.64 399.51 441.64C401.355 441.64 402.791 441.12 403.816 440.081C404.855 439.042 405.375 437.579 405.375 435.692V433.785C403.857 435.535 401.786 436.41 399.161 436.41C396.563 436.41 394.458 435.364 392.845 433.272C391.245 431.181 390.445 428.33 390.445 424.721ZM394.26 425.151C394.26 427.653 394.772 429.622 395.798 431.058C396.823 432.479 398.259 433.19 400.104 433.19C402.497 433.19 404.254 432.104 405.375 429.93V419.799C404.213 417.68 402.47 416.62 400.146 416.62C398.3 416.62 396.857 417.338 395.818 418.773C394.779 420.209 394.26 422.335 394.26 425.151Z"
                fill="white" />
            <path
                d="M428.631 433.806C427.154 435.542 424.987 436.41 422.13 436.41C419.765 436.41 417.96 435.727 416.716 434.359C415.485 432.979 414.863 430.941 414.85 428.248V413.811H418.644V428.146C418.644 431.509 420.011 433.19 422.745 433.19C425.644 433.19 427.571 432.11 428.528 429.95V413.811H432.322V436H428.713L428.631 433.806Z"
                fill="white" />
            <path
                d="M441.694 413.811L441.817 416.6C443.513 414.467 445.728 413.4 448.462 413.4C453.151 413.4 455.517 416.046 455.558 421.337V436H451.764V421.316C451.75 419.717 451.381 418.534 450.656 417.769C449.945 417.003 448.831 416.62 447.313 416.62C446.083 416.62 445.003 416.948 444.073 417.604C443.144 418.261 442.419 419.122 441.899 420.188V436H438.105V413.811H441.694Z"
                fill="white" />
            <path
                d="M474.979 436C474.76 435.562 474.582 434.783 474.445 433.662C472.682 435.494 470.576 436.41 468.129 436.41C465.941 436.41 464.144 435.795 462.735 434.564C461.341 433.32 460.644 431.748 460.644 429.848C460.644 427.537 461.519 425.746 463.269 424.475C465.032 423.189 467.507 422.547 470.692 422.547H474.384V420.804C474.384 419.478 473.987 418.425 473.194 417.646C472.401 416.853 471.232 416.456 469.688 416.456C468.334 416.456 467.199 416.798 466.283 417.481C465.367 418.165 464.909 418.992 464.909 419.963H461.095C461.095 418.855 461.484 417.789 462.264 416.764C463.057 415.725 464.123 414.904 465.463 414.303C466.816 413.701 468.3 413.4 469.913 413.4C472.47 413.4 474.473 414.043 475.922 415.328C477.371 416.6 478.123 418.356 478.178 420.599V430.812C478.178 432.849 478.438 434.469 478.957 435.672V436H474.979ZM468.683 433.108C469.872 433.108 471 432.801 472.066 432.186C473.133 431.57 473.905 430.771 474.384 429.786V425.233H471.41C466.762 425.233 464.438 426.594 464.438 429.314C464.438 430.504 464.834 431.434 465.627 432.104C466.42 432.773 467.438 433.108 468.683 433.108Z"
                fill="white" />
            <path
                d="M497.045 430.114C497.045 429.089 496.655 428.296 495.876 427.735C495.11 427.161 493.764 426.669 491.836 426.259C489.922 425.849 488.397 425.356 487.263 424.782C486.142 424.208 485.308 423.524 484.761 422.731C484.228 421.938 483.961 420.995 483.961 419.901C483.961 418.083 484.727 416.545 486.258 415.287C487.803 414.029 489.771 413.4 492.164 413.4C494.68 413.4 496.717 414.05 498.275 415.349C499.848 416.647 500.634 418.309 500.634 420.332H496.819C496.819 419.293 496.375 418.397 495.486 417.646C494.611 416.894 493.504 416.518 492.164 416.518C490.783 416.518 489.703 416.818 488.924 417.42C488.145 418.021 487.755 418.808 487.755 419.778C487.755 420.694 488.117 421.385 488.842 421.85C489.566 422.314 490.872 422.759 492.759 423.183C494.659 423.606 496.197 424.112 497.373 424.7C498.549 425.288 499.417 425.999 499.978 426.833C500.552 427.653 500.839 428.658 500.839 429.848C500.839 431.83 500.046 433.423 498.46 434.626C496.874 435.815 494.816 436.41 492.287 436.41C490.51 436.41 488.938 436.096 487.57 435.467C486.203 434.838 485.13 433.963 484.351 432.842C483.585 431.707 483.202 430.483 483.202 429.171H486.996C487.064 430.442 487.57 431.454 488.514 432.206C489.471 432.944 490.729 433.313 492.287 433.313C493.723 433.313 494.871 433.026 495.732 432.452C496.607 431.864 497.045 431.085 497.045 430.114Z"
                fill="white" />
            <path
                d="M518.065 436V416.743H514.559V413.811H518.065V411.534C518.065 409.155 518.701 407.316 519.973 406.018C521.244 404.719 523.042 404.069 525.366 404.069C526.241 404.069 527.109 404.186 527.971 404.418L527.766 407.494C527.123 407.371 526.439 407.31 525.715 407.31C524.484 407.31 523.534 407.672 522.864 408.396C522.194 409.107 521.859 410.133 521.859 411.473V413.811H526.597V416.743H521.859V436H518.065Z"
                fill="white" />
            <path
                d="M541.526 417.215C540.952 417.119 540.33 417.071 539.66 417.071C537.172 417.071 535.483 418.131 534.595 420.25V436H530.801V413.811H534.492L534.554 416.374C535.798 414.392 537.562 413.4 539.845 413.4C540.583 413.4 541.144 413.496 541.526 413.688V417.215Z"
                fill="white" />
            <path
                d="M558.732 433.806C557.256 435.542 555.089 436.41 552.231 436.41C549.866 436.41 548.062 435.727 546.817 434.359C545.587 432.979 544.965 430.941 544.951 428.248V413.811H548.745V428.146C548.745 431.509 550.112 433.19 552.847 433.19C555.745 433.19 557.673 432.11 558.63 429.95V413.811H562.424V436H558.814L558.732 433.806Z"
                fill="white" />
            <path
                d="M573.354 408.438V413.811H577.497V416.743H573.354V430.504C573.354 431.393 573.539 432.062 573.908 432.514C574.277 432.951 574.906 433.17 575.795 433.17C576.232 433.17 576.834 433.088 577.6 432.924V436C576.602 436.273 575.631 436.41 574.688 436.41C572.992 436.41 571.714 435.897 570.853 434.872C569.991 433.847 569.561 432.391 569.561 430.504V416.743H565.521V413.811H569.561V408.438H573.354Z"
                fill="white" />
            <path
                d="M595.646 436C595.428 435.562 595.25 434.783 595.113 433.662C593.35 435.494 591.244 436.41 588.797 436.41C586.609 436.41 584.812 435.795 583.403 434.564C582.009 433.32 581.312 431.748 581.312 429.848C581.312 427.537 582.187 425.746 583.937 424.475C585.7 423.189 588.175 422.547 591.36 422.547H595.052V420.804C595.052 419.478 594.655 418.425 593.862 417.646C593.069 416.853 591.9 416.456 590.355 416.456C589.002 416.456 587.867 416.798 586.951 417.481C586.035 418.165 585.577 418.992 585.577 419.963H581.763C581.763 418.855 582.152 417.789 582.932 416.764C583.725 415.725 584.791 414.904 586.131 414.303C587.484 413.701 588.968 413.4 590.581 413.4C593.138 413.4 595.141 414.043 596.59 415.328C598.039 416.6 598.791 418.356 598.846 420.599V430.812C598.846 432.849 599.105 434.469 599.625 435.672V436H595.646ZM589.351 433.108C590.54 433.108 591.668 432.801 592.734 432.186C593.801 431.57 594.573 430.771 595.052 429.786V425.233H592.078C587.43 425.233 585.105 426.594 585.105 429.314C585.105 430.504 585.502 431.434 586.295 432.104C587.088 432.773 588.106 433.108 589.351 433.108Z"
                fill="white" />
            <path
                d="M617.713 430.114C617.713 429.089 617.323 428.296 616.544 427.735C615.778 427.161 614.432 426.669 612.504 426.259C610.59 425.849 609.065 425.356 607.931 424.782C606.81 424.208 605.976 423.524 605.429 422.731C604.896 421.938 604.629 420.995 604.629 419.901C604.629 418.083 605.395 416.545 606.926 415.287C608.471 414.029 610.439 413.4 612.832 413.4C615.348 413.4 617.385 414.05 618.943 415.349C620.516 416.647 621.302 418.309 621.302 420.332H617.487C617.487 419.293 617.043 418.397 616.154 417.646C615.279 416.894 614.172 416.518 612.832 416.518C611.451 416.518 610.371 416.818 609.592 417.42C608.812 418.021 608.423 418.808 608.423 419.778C608.423 420.694 608.785 421.385 609.51 421.85C610.234 422.314 611.54 422.759 613.427 423.183C615.327 423.606 616.865 424.112 618.041 424.7C619.217 425.288 620.085 425.999 620.646 426.833C621.22 427.653 621.507 428.658 621.507 429.848C621.507 431.83 620.714 433.423 619.128 434.626C617.542 435.815 615.484 436.41 612.955 436.41C611.178 436.41 609.605 436.096 608.238 435.467C606.871 434.838 605.798 433.963 605.019 432.842C604.253 431.707 603.87 430.483 603.87 429.171H607.664C607.732 430.442 608.238 431.454 609.182 432.206C610.139 432.944 611.396 433.313 612.955 433.313C614.391 433.313 615.539 433.026 616.4 432.452C617.275 431.864 617.713 431.085 617.713 430.114Z"
                fill="white" />
            <path
                d="M640.456 413.811L640.579 416.6C642.274 414.467 644.489 413.4 647.224 413.4C651.913 413.4 654.278 416.046 654.319 421.337V436H650.525V421.316C650.512 419.717 650.143 418.534 649.418 417.769C648.707 417.003 647.593 416.62 646.075 416.62C644.845 416.62 643.765 416.948 642.835 417.604C641.905 418.261 641.181 419.122 640.661 420.188V436H636.867V413.811H640.456Z"
                fill="white" />
            <path
                d="M659.036 424.7C659.036 422.526 659.46 420.571 660.308 418.835C661.169 417.099 662.358 415.759 663.876 414.815C665.407 413.872 667.15 413.4 669.105 413.4C672.127 413.4 674.567 414.446 676.427 416.538C678.3 418.63 679.236 421.412 679.236 424.885V425.151C679.236 427.312 678.819 429.253 677.985 430.976C677.165 432.685 675.982 434.018 674.438 434.975C672.906 435.932 671.143 436.41 669.146 436.41C666.139 436.41 663.698 435.364 661.825 433.272C659.966 431.181 659.036 428.412 659.036 424.967V424.7ZM662.851 425.151C662.851 427.612 663.418 429.588 664.553 431.078C665.701 432.568 667.232 433.313 669.146 433.313C671.074 433.313 672.605 432.562 673.74 431.058C674.875 429.54 675.442 427.421 675.442 424.7C675.442 422.267 674.861 420.298 673.699 418.794C672.551 417.276 671.02 416.518 669.105 416.518C667.232 416.518 665.722 417.263 664.573 418.753C663.425 420.243 662.851 422.376 662.851 425.151Z"
                fill="white" />
            <path
                d="M707.332 430.114C707.332 429.089 706.942 428.296 706.163 427.735C705.397 427.161 704.051 426.669 702.123 426.259C700.209 425.849 698.685 425.356 697.55 424.782C696.429 424.208 695.595 423.524 695.048 422.731C694.515 421.938 694.248 420.995 694.248 419.901C694.248 418.083 695.014 416.545 696.545 415.287C698.09 414.029 700.059 413.4 702.451 413.4C704.967 413.4 707.004 414.05 708.562 415.349C710.135 416.647 710.921 418.309 710.921 420.332H707.106C707.106 419.293 706.662 418.397 705.773 417.646C704.898 416.894 703.791 416.518 702.451 416.518C701.07 416.518 699.99 416.818 699.211 417.42C698.432 418.021 698.042 418.808 698.042 419.778C698.042 420.694 698.404 421.385 699.129 421.85C699.854 422.314 701.159 422.759 703.046 423.183C704.946 423.606 706.484 424.112 707.66 424.7C708.836 425.288 709.704 425.999 710.265 426.833C710.839 427.653 711.126 428.658 711.126 429.848C711.126 431.83 710.333 433.423 708.747 434.626C707.161 435.815 705.104 436.41 702.574 436.41C700.797 436.41 699.225 436.096 697.857 435.467C696.49 434.838 695.417 433.963 694.638 432.842C693.872 431.707 693.489 430.483 693.489 429.171H697.283C697.352 430.442 697.857 431.454 698.801 432.206C699.758 432.944 701.016 433.313 702.574 433.313C704.01 433.313 705.158 433.026 706.02 432.452C706.895 431.864 707.332 431.085 707.332 430.114Z"
                fill="white" />
            <path
                d="M725.276 436.41C722.269 436.41 719.821 435.426 717.935 433.457C716.048 431.475 715.104 428.829 715.104 425.521V424.823C715.104 422.622 715.521 420.66 716.355 418.938C717.203 417.201 718.379 415.848 719.883 414.877C721.4 413.893 723.041 413.4 724.805 413.4C727.689 413.4 729.932 414.351 731.531 416.251C733.131 418.151 733.931 420.872 733.931 424.413V425.992H718.898C718.953 428.18 719.589 429.95 720.806 431.304C722.036 432.644 723.595 433.313 725.481 433.313C726.821 433.313 727.956 433.04 728.886 432.493C729.815 431.946 730.629 431.222 731.326 430.319L733.644 432.124C731.784 434.981 728.995 436.41 725.276 436.41ZM724.805 416.518C723.273 416.518 721.988 417.078 720.949 418.199C719.91 419.307 719.268 420.865 719.021 422.875H730.137V422.588C730.027 420.66 729.508 419.17 728.578 418.117C727.648 417.051 726.391 416.518 724.805 416.518Z"
                fill="white" />
            <path
                d="M752.039 436C751.82 435.562 751.643 434.783 751.506 433.662C749.742 435.494 747.637 436.41 745.189 436.41C743.002 436.41 741.204 435.795 739.796 434.564C738.401 433.32 737.704 431.748 737.704 429.848C737.704 427.537 738.579 425.746 740.329 424.475C742.093 423.189 744.567 422.547 747.753 422.547H751.444V420.804C751.444 419.478 751.048 418.425 750.255 417.646C749.462 416.853 748.293 416.456 746.748 416.456C745.395 416.456 744.26 416.798 743.344 417.481C742.428 418.165 741.97 418.992 741.97 419.963H738.155C738.155 418.855 738.545 417.789 739.324 416.764C740.117 415.725 741.184 414.904 742.523 414.303C743.877 413.701 745.36 413.4 746.974 413.4C749.53 413.4 751.533 414.043 752.982 415.328C754.432 416.6 755.184 418.356 755.238 420.599V430.812C755.238 432.849 755.498 434.469 756.018 435.672V436H752.039ZM745.743 433.108C746.933 433.108 748.061 432.801 749.127 432.186C750.193 431.57 750.966 430.771 751.444 429.786V425.233H748.471C743.822 425.233 741.498 426.594 741.498 429.314C741.498 430.504 741.895 431.434 742.688 432.104C743.48 432.773 744.499 433.108 745.743 433.108Z"
                fill="white" />
            <path
                d="M764.774 413.811L764.897 416.6C766.593 414.467 768.808 413.4 771.542 413.4C776.231 413.4 778.597 416.046 778.638 421.337V436H774.844V421.316C774.83 419.717 774.461 418.534 773.736 417.769C773.025 417.003 771.911 416.62 770.394 416.62C769.163 416.62 768.083 416.948 767.153 417.604C766.224 418.261 765.499 419.122 764.979 420.188V436H761.186V413.811H764.774Z"
                fill="white" />
            <path
                d="M798.366 413.811L798.489 416.6C800.185 414.467 802.399 413.4 805.134 413.4C809.823 413.4 812.188 416.046 812.229 421.337V436H808.436V421.316C808.422 419.717 808.053 418.534 807.328 417.769C806.617 417.003 805.503 416.62 803.985 416.62C802.755 416.62 801.675 416.948 800.745 417.604C799.815 418.261 799.091 419.122 798.571 420.188V436H794.777V413.811H798.366Z"
                fill="white" />
            <path
                d="M831.65 433.806C830.174 435.542 828.007 436.41 825.149 436.41C822.784 436.41 820.979 435.727 819.735 434.359C818.505 432.979 817.883 430.941 817.869 428.248V413.811H821.663V428.146C821.663 431.509 823.03 433.19 825.765 433.19C828.663 433.19 830.591 432.11 831.548 429.95V413.811H835.342V436H831.732L831.65 433.806Z"
                fill="white" />
            <path
                d="M846.272 408.438V413.811H850.415V416.743H846.272V430.504C846.272 431.393 846.457 432.062 846.826 432.514C847.195 432.951 847.824 433.17 848.713 433.17C849.15 433.17 849.752 433.088 850.518 432.924V436C849.52 436.273 848.549 436.41 847.605 436.41C845.91 436.41 844.632 435.897 843.771 434.872C842.909 433.847 842.479 432.391 842.479 430.504V416.743H838.438V413.811H842.479V408.438H846.272Z"
                fill="white" />
            <path
                d="M865.591 417.215C865.017 417.119 864.395 417.071 863.725 417.071C861.236 417.071 859.548 418.131 858.659 420.25V436H854.865V413.811H858.557L858.618 416.374C859.862 414.392 861.626 413.4 863.909 413.4C864.647 413.4 865.208 413.496 865.591 413.688V417.215Z"
                fill="white" />
            <path
                d="M873.22 436H869.426V413.811H873.22V436ZM869.118 407.925C869.118 407.31 869.303 406.79 869.672 406.366C870.055 405.942 870.615 405.73 871.354 405.73C872.092 405.73 872.652 405.942 873.035 406.366C873.418 406.79 873.609 407.31 873.609 407.925C873.609 408.54 873.418 409.053 873.035 409.463C872.652 409.873 872.092 410.078 871.354 410.078C870.615 410.078 870.055 409.873 869.672 409.463C869.303 409.053 869.118 408.54 869.118 407.925Z"
                fill="white" />
            <path
                d="M884.458 408.438V413.811H888.601V416.743H884.458V430.504C884.458 431.393 884.643 432.062 885.012 432.514C885.381 432.951 886.01 433.17 886.898 433.17C887.336 433.17 887.938 433.088 888.703 432.924V436C887.705 436.273 886.734 436.41 885.791 436.41C884.096 436.41 882.817 435.897 881.956 434.872C881.095 433.847 880.664 432.391 880.664 430.504V416.743H876.624V413.811H880.664V408.438H884.458Z"
                fill="white" />
            <path
                d="M897.173 436H893.379V413.811H897.173V436ZM893.071 407.925C893.071 407.31 893.256 406.79 893.625 406.366C894.008 405.942 894.568 405.73 895.307 405.73C896.045 405.73 896.605 405.942 896.988 406.366C897.371 406.79 897.562 407.31 897.562 407.925C897.562 408.54 897.371 409.053 896.988 409.463C896.605 409.873 896.045 410.078 895.307 410.078C894.568 410.078 894.008 409.873 893.625 409.463C893.256 409.053 893.071 408.54 893.071 407.925Z"
                fill="white" />
            <path d="M910.585 430.853L916.081 413.811H919.957L912 436H909.108L901.069 413.811H904.945L910.585 430.853Z"
                fill="white" />
            <path
                d="M936.979 436C936.76 435.562 936.582 434.783 936.445 433.662C934.682 435.494 932.576 436.41 930.129 436.41C927.941 436.41 926.144 435.795 924.735 434.564C923.341 433.32 922.644 431.748 922.644 429.848C922.644 427.537 923.519 425.746 925.269 424.475C927.032 423.189 929.507 422.547 932.692 422.547H936.384V420.804C936.384 419.478 935.987 418.425 935.194 417.646C934.401 416.853 933.232 416.456 931.688 416.456C930.334 416.456 929.199 416.798 928.283 417.481C927.367 418.165 926.909 418.992 926.909 419.963H923.095C923.095 418.855 923.484 417.789 924.264 416.764C925.057 415.725 926.123 414.904 927.463 414.303C928.816 413.701 930.3 413.4 931.913 413.4C934.47 413.4 936.473 414.043 937.922 415.328C939.371 416.6 940.123 418.356 940.178 420.599V430.812C940.178 432.849 940.438 434.469 940.957 435.672V436H936.979ZM930.683 433.108C931.872 433.108 933 432.801 934.066 432.186C935.133 431.57 935.905 430.771 936.384 429.786V425.233H933.41C928.762 425.233 926.438 426.594 926.438 429.314C926.438 430.504 926.834 431.434 927.627 432.104C928.42 432.773 929.438 433.108 930.683 433.108Z"
                fill="white" />
            <path
                d="M959.045 430.114C959.045 429.089 958.655 428.296 957.876 427.735C957.11 427.161 955.764 426.669 953.836 426.259C951.922 425.849 950.397 425.356 949.263 424.782C948.142 424.208 947.308 423.524 946.761 422.731C946.228 421.938 945.961 420.995 945.961 419.901C945.961 418.083 946.727 416.545 948.258 415.287C949.803 414.029 951.771 413.4 954.164 413.4C956.68 413.4 958.717 414.05 960.275 415.349C961.848 416.647 962.634 418.309 962.634 420.332H958.819C958.819 419.293 958.375 418.397 957.486 417.646C956.611 416.894 955.504 416.518 954.164 416.518C952.783 416.518 951.703 416.818 950.924 417.42C950.145 418.021 949.755 418.808 949.755 419.778C949.755 420.694 950.117 421.385 950.842 421.85C951.566 422.314 952.872 422.759 954.759 423.183C956.659 423.606 958.197 424.112 959.373 424.7C960.549 425.288 961.417 425.999 961.978 426.833C962.552 427.653 962.839 428.658 962.839 429.848C962.839 431.83 962.046 433.423 960.46 434.626C958.874 435.815 956.816 436.41 954.287 436.41C952.51 436.41 950.938 436.096 949.57 435.467C948.203 434.838 947.13 433.963 946.351 432.842C945.585 431.707 945.202 430.483 945.202 429.171H948.996C949.064 430.442 949.57 431.454 950.514 432.206C951.471 432.944 952.729 433.313 954.287 433.313C955.723 433.313 956.871 433.026 957.732 432.452C958.607 431.864 959.045 431.085 959.045 430.114Z"
                fill="white" />
            <path
                d="M978.712 414.549L976.559 413.072C977.83 411.295 978.486 409.422 978.527 407.453V404.5H982.28V407.166C982.267 408.533 981.925 409.9 981.255 411.268C980.599 412.621 979.751 413.715 978.712 414.549ZM985.008 414.549L982.854 413.072C984.126 411.295 984.782 409.422 984.823 407.453V404.5H988.576V407.166C988.562 408.533 988.221 409.9 987.551 411.268C986.895 412.621 986.047 413.715 985.008 414.549Z"
                fill="white" />
            <path
                d="M993.293 434.011C993.293 433.354 993.484 432.808 993.867 432.37C994.264 431.933 994.852 431.714 995.631 431.714C996.41 431.714 996.998 431.933 997.395 432.37C997.805 432.808 998.01 433.354 998.01 434.011C998.01 434.64 997.805 435.166 997.395 435.59C996.998 436.014 996.41 436.226 995.631 436.226C994.852 436.226 994.264 436.014 993.867 435.59C993.484 435.166 993.293 434.64 993.293 434.011Z"
                fill="white" />
        </g>
    </g>
</svg>