<svg viewBox="0 0 967 284" fill="none" xmlns="http://www.w3.org/2000/svg">
<g id="0121209">
<g id="Group 47">
<path id="Polygon 2 (Stroke)" fill-rule="evenodd" clip-rule="evenodd" d="M167 0L87.3257 130.5H246.674L167 0ZM167 9.59528L96.2366 125.5H237.763L167 9.59528Z" fill="#D51919"/>
<g id="4m">
<path d="M235.855 52.4043H239.406V55.0586H235.855V61H232.586V55.0586H220.932V53.1426L232.393 35.4062H235.855V52.4043ZM224.623 52.4043H232.586V39.8535L232.199 40.5566L224.623 52.4043Z" fill="#D51919"/>
<path d="M245.734 41.9805L245.822 44.0898C247.217 42.4492 249.098 41.6289 251.465 41.6289C254.125 41.6289 255.936 42.6484 256.896 44.6875C257.529 43.7734 258.35 43.0352 259.357 42.4727C260.377 41.9102 261.578 41.6289 262.961 41.6289C267.133 41.6289 269.254 43.8379 269.324 48.2559V61H266.072V48.4492C266.072 47.0898 265.762 46.0762 265.141 45.4082C264.52 44.7285 263.477 44.3887 262.012 44.3887C260.805 44.3887 259.803 44.752 259.006 45.4785C258.209 46.1934 257.746 47.1602 257.617 48.3789V61H254.348V48.5371C254.348 45.7715 252.994 44.3887 250.287 44.3887C248.154 44.3887 246.695 45.2969 245.91 47.1133V61H242.658V41.9805H245.734Z" fill="#D51919"/>
</g>
<g id="4m_2">
<path d="M82.8555 51.4043H86.4062V54.0586H82.8555V60H79.5859V54.0586H67.9316V52.1426L79.3926 34.4062H82.8555V51.4043ZM71.623 51.4043H79.5859V38.8535L79.1992 39.5566L71.623 51.4043Z" fill="#D51919"/>
<path d="M92.7344 40.9805L92.8223 43.0898C94.2168 41.4492 96.0977 40.6289 98.4648 40.6289C101.125 40.6289 102.936 41.6484 103.896 43.6875C104.529 42.7734 105.35 42.0352 106.357 41.4727C107.377 40.9102 108.578 40.6289 109.961 40.6289C114.133 40.6289 116.254 42.8379 116.324 47.2559V60H113.072V47.4492C113.072 46.0898 112.762 45.0762 112.141 44.4082C111.52 43.7285 110.477 43.3887 109.012 43.3887C107.805 43.3887 106.803 43.752 106.006 44.4785C105.209 45.1934 104.746 46.1602 104.617 47.3789V60H101.348V47.5371C101.348 44.7715 99.9941 43.3887 97.2871 43.3887C95.1543 43.3887 93.6953 44.2969 92.9102 46.1133V60H89.6582V40.9805H92.7344Z" fill="#D51919"/>
</g>
<g id="4m_3">
<path d="M159.855 151.404H163.406V154.059H159.855V160H156.586V154.059H144.932V152.143L156.393 134.406H159.855V151.404ZM148.623 151.404H156.586V138.854L156.199 139.557L148.623 151.404Z" fill="#D51919"/>
<path d="M169.734 140.98L169.822 143.09C171.217 141.449 173.098 140.629 175.465 140.629C178.125 140.629 179.936 141.648 180.896 143.688C181.529 142.773 182.35 142.035 183.357 141.473C184.377 140.91 185.578 140.629 186.961 140.629C191.133 140.629 193.254 142.838 193.324 147.256V160H190.072V147.449C190.072 146.09 189.762 145.076 189.141 144.408C188.52 143.729 187.477 143.389 186.012 143.389C184.805 143.389 183.803 143.752 183.006 144.479C182.209 145.193 181.746 146.16 181.617 147.379V160H178.348V147.537C178.348 144.771 176.994 143.389 174.287 143.389C172.154 143.389 170.695 144.297 169.91 146.113V160H166.658V140.98H169.734Z" fill="#D51919"/>
</g>
</g>
<g id="Per \acute{i}metro=4+4+4=12m">
<g id="Group">
<g id="Group_2">
<path id="Vector" d="M7.64293 187.636C7.64293 187.495 7.07121 187.405 5.92778 187.365C5.44634 187.365 5.13541 187.355 4.99499 187.335C4.85456 187.315 4.78435 187.214 4.78435 187.034C4.78435 187.014 4.80441 186.903 4.84453 186.703C4.96489 186.302 5.05517 186.081 5.11535 186.041C5.17553 186.001 7.12136 185.981 10.9529 185.981C14.7643 186.001 16.8004 186.031 17.0612 186.071C18.345 186.292 19.4183 186.783 20.2808 187.545C21.1434 188.308 21.5848 189.321 21.6048 190.584C21.6048 192.129 20.9428 193.543 19.6189 194.827C18.2347 196.191 16.4493 197.054 14.2628 197.415C14.1224 197.435 13.0692 197.455 11.1033 197.475H8.24473L7.34203 201.056C6.74022 203.383 6.43932 204.616 6.43932 204.757C6.43932 204.837 6.44935 204.887 6.46941 204.907C6.48947 204.927 6.55968 204.968 6.68004 205.028C6.8004 205.088 6.97091 205.108 7.19157 205.088C7.41224 205.068 7.74323 205.088 8.18455 205.148H9.11735C9.23771 205.329 9.29789 205.439 9.29789 205.479C9.29789 205.8 9.22768 206.101 9.08726 206.382C8.98696 206.482 8.82648 206.532 8.60582 206.532C8.54564 206.532 8.17452 206.522 7.49248 206.502C6.81043 206.482 5.80742 206.472 4.48345 206.472C3.23972 206.472 2.28686 206.472 1.62487 206.472C0.962889 206.472 0.601805 206.482 0.541625 206.502C0.180542 206.502 0 206.402 0 206.201C0 206.161 0.0300903 206.021 0.0902708 205.78C0.170512 205.459 0.250752 205.278 0.330993 205.238C0.411234 205.198 0.641926 205.168 1.02307 205.148C1.56469 205.148 2.1665 205.118 2.82849 205.058C3.10933 204.998 3.2999 204.877 3.4002 204.697C3.46038 204.616 4.18255 201.828 5.5667 196.332C6.95085 190.835 7.64293 187.936 7.64293 187.636ZM18.4152 189.862C18.4152 189.601 18.3952 189.391 18.3551 189.23C18.3149 189.07 18.2247 188.849 18.0843 188.568C17.9438 188.287 17.6931 188.067 17.332 187.906C16.9709 187.746 16.4794 187.585 15.8576 187.425C15.7172 187.405 14.9147 187.385 13.4504 187.365C13.1093 187.365 12.7583 187.365 12.3972 187.365C12.0361 187.365 11.7452 187.375 11.5246 187.395C11.3039 187.415 11.1836 187.415 11.1635 187.395C10.9027 187.415 10.7222 187.505 10.6219 187.666C10.5817 187.786 10.3912 188.558 10.0501 189.983C9.70913 191.407 9.35807 192.791 8.99699 194.135C8.63591 195.479 8.45537 196.161 8.45537 196.181C8.45537 196.221 9.2678 196.241 10.8927 196.241H11.2538H11.9458C14.1926 196.241 15.7974 195.74 16.7603 194.737C17.3019 194.195 17.7131 193.403 17.994 192.36C18.2748 191.317 18.4152 190.484 18.4152 189.862Z" fill="white"/>
</g>
<g id="Group_3">
<path id="Vector_2" d="M22.7782 201.477C22.7782 200.334 22.9688 199.291 23.3499 198.348C23.7311 197.405 24.2225 196.623 24.8243 196.001C25.4261 195.379 26.0982 194.858 26.8404 194.436C27.5826 194.015 28.2847 193.704 28.9467 193.503C29.6087 193.303 30.2406 193.213 30.8424 193.233H30.9327C31.8354 193.233 32.6177 193.453 33.2797 193.895C33.9417 194.336 34.2727 194.988 34.2727 195.85C34.2727 197.656 33.1593 198.839 30.9327 199.401C29.9497 199.662 28.6057 199.802 26.9006 199.822C26.1583 199.822 25.7772 199.842 25.7571 199.883C25.7571 199.923 25.697 200.274 25.5766 200.936C25.4562 201.598 25.386 202.179 25.366 202.681C25.366 203.624 25.5766 204.366 25.9979 204.908C26.4191 205.449 27.051 205.73 27.8935 205.75C28.7361 205.77 29.6689 205.58 30.6919 205.178C31.715 204.777 32.6378 204.115 33.4602 203.193C33.6408 202.992 33.7611 202.892 33.8213 202.892C33.9016 202.892 34.032 202.982 34.2125 203.162C34.393 203.343 34.4933 203.483 34.5134 203.584C34.5335 203.684 34.4432 203.844 34.2426 204.065C34.042 204.286 33.7411 204.557 33.3399 204.878C32.9387 205.199 32.4773 205.509 31.9557 205.81C31.4342 206.111 30.8023 206.362 30.06 206.563C29.3178 206.763 28.5555 206.864 27.7732 206.864C26.1884 206.864 24.9648 206.332 24.1022 205.269C23.2396 204.206 22.7983 202.942 22.7782 201.477ZM32.8283 195.911C32.708 194.868 32.0259 194.346 30.7822 194.346C30.1202 194.346 29.5084 194.486 28.9467 194.767C28.385 195.048 27.9337 195.389 27.5926 195.79C27.2516 196.192 26.9607 196.603 26.72 197.024C26.4793 197.445 26.3188 197.806 26.2386 198.107C26.1583 198.408 26.1082 198.599 26.0881 198.679C26.0881 198.699 26.2887 198.709 26.6899 198.709C28.9567 198.709 30.5415 198.468 31.4442 197.987C32.3469 197.505 32.8083 196.813 32.8283 195.911Z" fill="white"/>
</g>
<g id="Group_4">
<path id="Vector_3" d="M36.2588 197.897C36.2788 197.836 36.2989 197.756 36.319 197.656C36.339 197.556 36.3892 197.335 36.4694 196.994C36.5497 196.653 36.65 196.342 36.7703 196.061C36.8907 195.78 37.0411 195.449 37.2217 195.068C37.4022 194.687 37.6028 194.386 37.8235 194.165C38.0441 193.945 38.3049 193.724 38.6058 193.503C38.9067 193.283 39.2377 193.193 39.5988 193.233C40.1806 193.233 40.6921 193.353 41.1334 193.594C41.5747 193.834 41.8857 194.055 42.0662 194.256C42.2468 194.456 42.3571 194.657 42.3972 194.858C42.4373 194.978 42.4674 195.038 42.4875 195.038C42.5075 195.038 42.5878 194.968 42.7282 194.827C43.6911 193.784 44.8044 193.263 46.0682 193.263H46.1585C47.1214 193.263 47.8435 193.674 48.325 194.496C48.4855 194.878 48.5657 195.249 48.5657 195.61C48.5657 196.212 48.4353 196.693 48.1745 197.054C47.9138 197.415 47.653 197.646 47.3922 197.746C47.1314 197.846 46.8807 197.887 46.6399 197.867C46.2387 197.867 45.9178 197.756 45.677 197.536C45.4363 197.315 45.316 197.024 45.316 196.663C45.316 195.7 45.8776 195.058 47.001 194.737C46.5597 194.476 46.1986 194.346 45.9178 194.346C44.7944 194.346 43.7613 195.088 42.8185 196.573C42.6179 196.894 42.4674 197.225 42.3671 197.566C42.2668 197.907 41.9258 199.241 41.344 201.568C40.662 204.376 40.2708 205.871 40.1705 206.051C39.9097 206.593 39.4784 206.864 38.8766 206.864C38.6159 206.864 38.4052 206.803 38.2447 206.683C38.0843 206.563 37.9739 206.442 37.9138 206.322C37.8536 206.202 37.8335 206.101 37.8536 206.021C37.8536 205.76 38.2548 204.035 39.0572 200.845C39.8596 197.656 40.2608 195.881 40.2608 195.519C40.2608 194.737 40 194.346 39.4784 194.346C39.0572 194.346 38.6961 194.627 38.3952 195.189C38.0943 195.75 37.8536 196.362 37.673 197.024C37.4925 197.686 37.3822 198.047 37.342 198.107C37.3019 198.147 37.1414 198.167 36.8606 198.167H36.4393C36.319 198.047 36.2588 197.957 36.2588 197.897Z" fill="white"/>
</g>
<g id="Group_5">
<g id="Group_6">
<g id="Group_7">
<path id="Vector_4" d="M57.0665 188.478C57.0665 187.997 57.257 187.576 57.6382 187.215C58.0193 186.853 58.4606 186.663 58.9621 186.643C59.3232 186.643 59.6241 186.763 59.8649 187.004C60.1056 187.245 60.236 187.546 60.256 187.907C60.256 188.368 60.0554 188.789 59.6542 189.17C59.253 189.552 58.8117 189.752 58.3302 189.772C58.0293 189.772 57.7485 189.672 57.4877 189.471C57.2269 189.271 57.0865 188.94 57.0665 188.478ZM52.1617 197.897C52.1617 197.736 52.252 197.425 52.4326 196.964C52.6131 196.502 52.8538 195.991 53.1547 195.429C53.4556 194.868 53.8969 194.356 54.4787 193.895C55.0604 193.433 55.6622 193.213 56.2841 193.233C57.0665 193.233 57.7184 193.463 58.24 193.925C58.7615 194.386 59.0324 195.008 59.0524 195.79C59.0524 196.131 58.912 196.693 58.6312 197.475C58.3503 198.258 57.9491 199.311 57.4275 200.635C56.906 201.959 56.4847 203.092 56.1637 204.035C56.0634 204.476 56.0133 204.797 56.0133 204.998C56.0133 205.499 56.1838 205.75 56.5248 205.75C56.7054 205.75 56.8959 205.72 57.0965 205.66C57.2971 205.6 57.5278 205.459 57.7886 205.239C58.0494 205.018 58.3202 204.667 58.6011 204.185C58.8819 203.704 59.1327 203.112 59.3533 202.41C59.4135 202.169 59.4636 202.029 59.5038 201.989C59.5439 201.949 59.7144 201.929 60.0153 201.929C60.4165 201.929 60.6171 202.029 60.6171 202.23C60.6171 202.39 60.5268 202.701 60.3463 203.162C60.1658 203.624 59.915 204.135 59.594 204.697C59.2731 205.259 58.8217 205.76 58.24 206.202C57.6582 206.643 57.0364 206.864 56.3744 206.864C55.7325 206.864 55.1407 206.653 54.5991 206.232C54.0574 205.81 53.7766 205.168 53.7565 204.306C53.7565 203.965 53.8067 203.644 53.907 203.343C54.0073 203.042 54.4386 201.899 55.2009 199.913C55.9631 197.887 56.4045 196.673 56.5248 196.272C56.6452 195.871 56.7154 195.479 56.7355 195.098C56.7355 194.617 56.565 194.376 56.2239 194.376H56.1637C55.5619 194.376 55.0103 194.707 54.5088 195.369C54.0073 196.031 53.6261 196.874 53.3654 197.897C53.3453 197.917 53.3252 197.947 53.3052 197.987C53.2851 198.027 53.2751 198.057 53.2751 198.077C53.2751 198.097 53.255 198.117 53.2149 198.137C53.1748 198.157 53.1447 198.167 53.1246 198.167C53.1046 198.167 53.0645 198.167 53.0043 198.167C52.9441 198.167 52.8638 198.167 52.7635 198.167H52.3423C52.2219 198.047 52.1617 197.957 52.1617 197.897Z" fill="white"/>
</g>
<g id="Group_8">
<path id="Vector_5" d="M59.6994 179C60.0605 179 60.3715 179.13 60.6322 179.391C60.893 179.652 61.0234 179.953 61.0234 180.294C61.0234 180.394 61.0134 180.484 60.9933 180.565C60.9733 180.645 60.9231 180.745 60.8429 180.865C60.7626 180.986 60.6924 181.086 60.6322 181.166C60.5721 181.247 60.4417 181.357 60.2411 181.497C60.0405 181.638 59.88 181.778 59.7596 181.919C59.6393 182.059 59.4286 182.23 59.1277 182.43C58.8268 182.631 58.556 182.851 58.3153 183.092L56.1789 184.837L55.7275 184.416C55.4467 184.135 55.3163 183.995 55.3364 183.995C55.3364 183.975 55.5871 183.634 56.0886 182.972C56.5901 182.31 57.1217 181.618 57.6834 180.896C58.2451 180.173 58.556 179.752 58.6162 179.632L58.7065 179.542C58.7466 179.481 58.7967 179.431 58.8569 179.391C58.9171 179.351 58.9873 179.291 59.0675 179.211C59.1478 179.13 59.2381 179.08 59.3384 179.06C59.4387 179.04 59.559 179.02 59.6994 179Z" fill="white"/>
</g>
</g>
</g>
<g id="Group_9">
<path id="Vector_6" d="M64.8746 197.897C64.8947 197.776 64.9248 197.616 64.9649 197.415C65.005 197.215 65.1254 196.833 65.326 196.272C65.5266 195.71 65.7272 195.239 65.9278 194.858C66.1284 194.476 66.4494 194.105 66.8907 193.744C67.332 193.383 67.7733 193.213 68.2147 193.233C68.656 193.253 69.0873 193.323 69.5085 193.443C69.9298 193.564 70.2307 193.744 70.4112 193.985C70.5918 194.226 70.7523 194.446 70.8927 194.647C71.0331 194.847 71.1134 195.038 71.1334 195.219L71.1936 195.429C71.1936 195.469 71.2036 195.489 71.2237 195.489L71.5547 195.158C72.7583 193.875 74.1725 193.233 75.7974 193.233C76.1384 193.233 76.4494 193.253 76.7302 193.293C77.011 193.333 77.2718 193.403 77.5125 193.503C77.7533 193.604 77.9438 193.704 78.0843 193.804C78.2247 193.905 78.3751 194.025 78.5356 194.165C78.6961 194.306 78.7964 194.436 78.8365 194.557C78.8766 194.677 78.9569 194.807 79.0772 194.948C79.1976 195.088 79.2377 195.209 79.1976 195.309C79.1575 195.409 79.1876 195.499 79.2879 195.58C79.3882 195.66 79.4082 195.73 79.3481 195.79L79.5888 195.489C80.8526 193.985 82.3471 193.233 84.0722 193.233C85.1555 193.233 86.0281 193.503 86.6901 194.045C87.3521 194.587 87.6931 195.379 87.7132 196.422C87.7132 197.445 87.332 199.03 86.5697 201.176C85.8074 203.323 85.4263 204.607 85.4263 205.028C85.4464 205.309 85.4965 205.499 85.5767 205.6C85.657 205.7 85.8074 205.75 86.0281 205.75C86.5898 205.75 87.1113 205.449 87.5928 204.847C88.0742 204.246 88.4654 203.423 88.7663 202.38C88.8265 202.159 88.8867 202.029 88.9469 201.989C89.007 201.949 89.1675 201.929 89.4283 201.929C89.8295 201.929 90.0301 202.009 90.0301 202.169C90.0301 202.19 89.99 202.34 89.9097 202.621C89.7493 203.203 89.5286 203.774 89.2478 204.336C88.9669 204.898 88.5055 205.459 87.8636 206.021C87.2217 206.583 86.5296 206.853 85.7874 206.833C84.8445 206.833 84.1625 206.563 83.7412 206.021C83.32 205.479 83.1093 204.918 83.1093 204.336C83.1093 203.955 83.4704 202.751 84.1926 200.725C84.9148 198.699 85.2859 197.174 85.3059 196.151C85.3059 194.968 84.8646 194.376 83.982 194.376H83.8315C82.1063 194.376 80.652 195.389 79.4684 197.415L79.2578 197.776L78.2648 201.808C77.6028 204.436 77.2217 205.85 77.1214 206.051C76.8606 206.593 76.4293 206.864 75.8275 206.864C75.5667 206.864 75.3561 206.793 75.1956 206.653C75.0351 206.512 74.9248 206.392 74.8646 206.292C74.8044 206.192 74.7743 206.091 74.7743 205.991C74.7743 205.77 75.1154 204.336 75.7974 201.688L76.8807 197.295C76.9408 196.994 76.9709 196.613 76.9709 196.151C76.9709 194.968 76.5296 194.376 75.647 194.376H75.4965C73.7713 194.376 72.317 195.389 71.1334 197.415L70.9228 197.776L69.9298 201.808C69.2678 204.436 68.8867 205.85 68.7864 206.051C68.5256 206.593 68.0943 206.864 67.4925 206.864C67.2317 206.864 67.0211 206.803 66.8606 206.683C66.7001 206.563 66.5898 206.442 66.5296 206.322C66.4694 206.202 66.4494 206.101 66.4694 206.021C66.4694 205.76 66.8506 204.115 67.6128 201.086C68.3952 197.997 68.7864 196.382 68.7864 196.242C68.8465 195.941 68.8766 195.67 68.8766 195.429C68.8766 194.707 68.6259 194.346 68.1244 194.346C67.6831 194.346 67.3119 194.627 67.011 195.189C66.7101 195.75 66.4794 196.362 66.319 197.024C66.1585 197.686 66.0381 198.047 65.9579 198.107C65.9178 198.147 65.7573 198.167 65.4764 198.167H65.0552C64.9348 198.047 64.8746 197.957 64.8746 197.897Z" fill="white"/>
</g>
<g id="Group_10">
<path id="Vector_7" d="M91.8353 201.477C91.8353 200.334 92.0259 199.291 92.407 198.348C92.7882 197.405 93.2797 196.623 93.8815 196.001C94.4833 195.379 95.1553 194.858 95.8975 194.436C96.6397 194.015 97.3418 193.704 98.0038 193.503C98.6658 193.303 99.2977 193.213 99.8995 193.233H99.9898C100.892 193.233 101.675 193.453 102.337 193.895C102.999 194.336 103.33 194.988 103.33 195.85C103.33 197.656 102.216 198.839 99.9898 199.401C99.0068 199.662 97.6628 199.802 95.9577 199.822C95.2155 199.822 94.8343 199.842 94.8143 199.883C94.8143 199.923 94.7541 200.274 94.6337 200.936C94.5134 201.598 94.4432 202.179 94.4231 202.681C94.4231 203.624 94.6337 204.366 95.055 204.908C95.4763 205.449 96.1081 205.73 96.9507 205.75C97.7932 205.77 98.726 205.58 99.7491 205.178C100.772 204.777 101.695 204.115 102.517 203.193C102.698 202.992 102.818 202.892 102.878 202.892C102.959 202.892 103.089 202.982 103.27 203.162C103.45 203.343 103.55 203.483 103.571 203.584C103.591 203.684 103.5 203.844 103.3 204.065C103.099 204.286 102.798 204.557 102.397 204.878C101.996 205.199 101.534 205.509 101.013 205.81C100.491 206.111 99.8594 206.362 99.1172 206.563C98.3749 206.763 97.6127 206.864 96.8303 206.864C95.2456 206.864 94.0219 206.332 93.1593 205.269C92.2967 204.206 91.8554 202.942 91.8353 201.477ZM101.885 195.911C101.765 194.868 101.083 194.346 99.8393 194.346C99.1774 194.346 98.5655 194.486 98.0038 194.767C97.4421 195.048 96.9908 195.389 96.6498 195.79C96.3087 196.192 96.0179 196.603 95.7772 197.024C95.5364 197.445 95.3759 197.806 95.2957 198.107C95.2155 198.408 95.1653 198.599 95.1453 198.679C95.1453 198.699 95.3459 198.709 95.7471 198.709C98.0139 198.709 99.5986 198.468 100.501 197.987C101.404 197.505 101.865 196.813 101.885 195.911Z" fill="white"/>
</g>
<g id="Group_11">
<path id="Vector_8" d="M105.466 194.948C105.326 194.807 105.255 194.707 105.255 194.647C105.255 194.567 105.286 194.406 105.346 194.165C105.406 193.925 105.456 193.784 105.496 193.744C105.536 193.644 105.627 193.594 105.767 193.594C105.907 193.594 106.419 193.584 107.302 193.564H108.896L109.468 191.156C109.528 190.936 109.599 190.645 109.679 190.284C109.759 189.923 109.829 189.662 109.889 189.501C109.95 189.341 110.01 189.14 110.07 188.9C110.13 188.659 110.21 188.488 110.311 188.388C110.411 188.288 110.511 188.167 110.612 188.027C110.712 187.887 110.852 187.796 111.033 187.756C111.213 187.716 111.394 187.696 111.574 187.696C111.936 187.716 112.186 187.826 112.327 188.027C112.467 188.228 112.537 188.418 112.537 188.599C112.537 188.739 112.447 189.211 112.267 190.013C112.086 190.815 111.885 191.608 111.665 192.39L111.364 193.503C111.364 193.544 111.865 193.564 112.868 193.564H114.403C114.543 193.704 114.614 193.814 114.614 193.895C114.614 194.336 114.483 194.687 114.222 194.948H111.003L109.919 199.311C109.137 202.52 108.746 204.246 108.746 204.486C108.746 205.329 109.017 205.75 109.558 205.75C110.261 205.75 110.943 205.409 111.605 204.727C112.267 204.045 112.798 203.203 113.199 202.2C113.239 202.079 113.29 202.009 113.35 201.989C113.41 201.969 113.56 201.949 113.801 201.929H113.921C114.222 201.929 114.373 202.009 114.373 202.169C114.373 202.23 114.343 202.35 114.283 202.531C114.182 202.851 114.002 203.233 113.741 203.674C113.48 204.115 113.139 204.587 112.718 205.088C112.297 205.59 111.785 206.011 111.183 206.352C110.581 206.693 109.97 206.864 109.348 206.864C108.746 206.864 108.174 206.713 107.633 206.412C107.091 206.111 106.7 205.59 106.459 204.847C106.419 204.687 106.399 204.416 106.399 204.035V203.493L107.452 199.281C108.154 196.452 108.515 195.028 108.535 195.008C108.535 194.968 108.024 194.948 107.001 194.948H105.466Z" fill="white"/>
</g>
<g id="Group_12">
<path id="Vector_9" d="M116.179 197.897C116.199 197.836 116.219 197.756 116.239 197.656C116.259 197.556 116.309 197.335 116.389 196.994C116.469 196.653 116.57 196.342 116.69 196.061C116.81 195.78 116.961 195.449 117.141 195.068C117.322 194.687 117.523 194.386 117.743 194.165C117.964 193.945 118.225 193.724 118.526 193.503C118.827 193.283 119.158 193.193 119.519 193.233C120.1 193.233 120.612 193.353 121.053 193.594C121.495 193.834 121.805 194.055 121.986 194.256C122.167 194.456 122.277 194.657 122.317 194.858C122.357 194.978 122.387 195.038 122.407 195.038C122.427 195.038 122.508 194.968 122.648 194.827C123.611 193.784 124.724 193.263 125.988 193.263H126.078C127.041 193.263 127.763 193.674 128.245 194.496C128.405 194.878 128.486 195.249 128.486 195.61C128.486 196.212 128.355 196.693 128.094 197.054C127.834 197.415 127.573 197.646 127.312 197.746C127.051 197.846 126.8 197.887 126.56 197.867C126.159 197.867 125.838 197.756 125.597 197.536C125.356 197.315 125.236 197.024 125.236 196.663C125.236 195.7 125.797 195.058 126.921 194.737C126.479 194.476 126.118 194.346 125.838 194.346C124.714 194.346 123.681 195.088 122.738 196.573C122.538 196.894 122.387 197.225 122.287 197.566C122.187 197.907 121.846 199.241 121.264 201.568C120.582 204.376 120.191 205.871 120.09 206.051C119.83 206.593 119.398 206.864 118.796 206.864C118.536 206.864 118.325 206.803 118.165 206.683C118.004 206.563 117.894 206.442 117.834 206.322C117.773 206.202 117.753 206.101 117.773 206.021C117.773 205.76 118.175 204.035 118.977 200.845C119.779 197.656 120.181 195.881 120.181 195.519C120.181 194.737 119.92 194.346 119.398 194.346C118.977 194.346 118.616 194.627 118.315 195.189C118.014 195.75 117.773 196.362 117.593 197.024C117.412 197.686 117.302 198.047 117.262 198.107C117.222 198.147 117.061 198.167 116.78 198.167H116.359C116.239 198.047 116.179 197.957 116.179 197.897Z" fill="white"/>
</g>
<g id="Group_13">
<path id="Vector_10" d="M135.165 206.864C133.661 206.864 132.447 206.372 131.525 205.389C130.602 204.406 130.14 203.223 130.14 201.838C130.14 200.535 130.441 199.301 131.043 198.137C131.645 196.974 132.467 195.961 133.51 195.098C135.035 193.875 136.59 193.263 138.174 193.263C138.816 193.263 139.218 193.273 139.378 193.293C139.639 193.353 139.9 193.423 140.16 193.503C140.421 193.584 140.772 193.744 141.214 193.985C141.655 194.226 142.016 194.527 142.297 194.888C142.578 195.249 142.838 195.74 143.079 196.362C143.32 196.984 143.44 197.686 143.44 198.468C143.44 200.615 142.578 202.551 140.853 204.276C139.127 206.001 137.232 206.864 135.165 206.864ZM132.758 202.922C132.758 203.925 133.019 204.647 133.541 205.088C134.062 205.53 134.654 205.75 135.316 205.75C136.199 205.75 137.031 205.429 137.813 204.787C138.596 204.145 139.218 203.303 139.679 202.26C139.86 201.838 140.09 201.096 140.371 200.033C140.652 198.97 140.792 198.047 140.792 197.265C140.792 196.382 140.612 195.71 140.251 195.249C139.769 194.647 139.127 194.346 138.325 194.346C137.061 194.346 135.948 194.928 134.985 196.091C134.243 196.974 133.691 198.147 133.33 199.612C132.969 201.076 132.778 202.179 132.758 202.922Z" fill="white"/>
</g>
<g id="Group_14">
<path id="Vector_11" d="M153.755 196.091C153.755 195.83 153.896 195.63 154.177 195.489H173.344C173.645 195.65 173.795 195.85 173.795 196.091C173.795 196.312 173.655 196.502 173.374 196.663L163.806 196.693H154.237C153.916 196.592 153.755 196.392 153.755 196.091ZM153.755 201.928C153.755 201.628 153.916 201.427 154.237 201.327H173.374C173.655 201.527 173.795 201.728 173.795 201.928C173.795 202.189 173.645 202.39 173.344 202.53H154.177C153.896 202.39 153.755 202.189 153.755 201.928Z" fill="white"/>
</g>
<g id="Group_15">
<path id="Vector_12" d="M197.741 206.532C197.38 206.472 196.086 206.442 193.86 206.442C191.533 206.442 190.189 206.472 189.827 206.532H189.557V205.148H190.489C190.891 205.148 191.161 205.148 191.302 205.148C191.442 205.148 191.613 205.128 191.813 205.088C192.014 205.048 192.154 204.998 192.235 204.937C192.315 204.877 192.385 204.797 192.445 204.697C192.465 204.657 192.475 204.115 192.475 203.072V201.567H184.682V200.183L189.226 193.232C192.295 188.578 193.85 186.241 193.89 186.221C193.93 186.181 194.14 186.161 194.522 186.161H195.063L195.244 186.342V200.183H198.012V201.567H195.244V203.102C195.244 203.924 195.244 204.406 195.244 204.546C195.244 204.687 195.304 204.807 195.424 204.907C195.585 205.048 196.156 205.128 197.139 205.148H198.012V206.532H197.741ZM192.656 200.183V190.133L186.066 200.153L189.346 200.183H192.656Z" fill="white"/>
</g>
<g id="Group_16">
<path id="Vector_13" d="M207.256 199.401C207.256 199.401 207.256 199.271 207.256 199.01C207.256 198.749 207.396 198.548 207.677 198.408H216.674V193.894L216.704 189.381C216.905 189.12 217.095 188.99 217.276 188.99C217.537 188.99 217.737 189.14 217.878 189.441V198.408H226.845C227.146 198.568 227.296 198.769 227.296 199.01C227.296 199.251 227.146 199.451 226.845 199.612H217.878V208.578C217.717 208.859 217.537 209 217.336 209H217.276H217.216C216.975 209 216.794 208.859 216.674 208.578V199.612H207.677C207.396 199.471 207.256 199.271 207.256 199.01V199.401Z" fill="white"/>
</g>
<g id="Group_17">
<path id="Vector_14" d="M249.569 206.532C249.208 206.472 247.914 206.442 245.687 206.442C243.36 206.442 242.016 206.472 241.655 206.532H241.384V205.148H242.317C242.718 205.148 242.989 205.148 243.129 205.148C243.27 205.148 243.44 205.128 243.641 205.088C243.842 205.048 243.982 204.998 244.062 204.937C244.142 204.877 244.213 204.797 244.273 204.697C244.293 204.657 244.303 204.115 244.303 203.072V201.567H236.51V200.183L241.053 193.232C244.122 188.578 245.677 186.241 245.717 186.221C245.757 186.181 245.968 186.161 246.349 186.161H246.891L247.071 186.342V200.183H249.84V201.567H247.071V203.102C247.071 203.924 247.071 204.406 247.071 204.546C247.071 204.687 247.131 204.807 247.252 204.907C247.412 205.048 247.984 205.128 248.967 205.148H249.84V206.532H249.569ZM244.483 200.183V190.133L237.894 200.153L241.174 200.183H244.483Z" fill="white"/>
</g>
<g id="Group_18">
<path id="Vector_15" d="M259.083 199.401C259.083 199.401 259.083 199.271 259.083 199.01C259.083 198.749 259.224 198.548 259.505 198.408H268.502V193.894L268.532 189.381C268.732 189.12 268.923 188.99 269.103 188.99C269.364 188.99 269.565 189.14 269.705 189.441V198.408H278.672C278.973 198.568 279.123 198.769 279.123 199.01C279.123 199.251 278.973 199.451 278.672 199.612H269.705V208.578C269.545 208.859 269.364 209 269.164 209H269.103H269.043C268.803 209 268.622 208.859 268.502 208.578V199.612H259.505C259.224 199.471 259.083 199.271 259.083 199.01V199.401Z" fill="white"/>
</g>
<g id="Group_19">
<path id="Vector_16" d="M301.396 206.532C301.035 206.472 299.741 206.442 297.514 206.442C295.187 206.442 293.843 206.472 293.482 206.532H293.212V205.148H294.144C294.546 205.148 294.816 205.148 294.957 205.148C295.097 205.148 295.268 205.128 295.468 205.088C295.669 205.048 295.809 204.998 295.89 204.937C295.97 204.877 296.04 204.797 296.1 204.697C296.12 204.657 296.13 204.115 296.13 203.072V201.567H288.337V200.183L292.881 193.232C295.95 188.578 297.504 186.241 297.545 186.221C297.585 186.181 297.795 186.161 298.176 186.161H298.718L298.899 186.342V200.183H301.667V201.567H298.899V203.102C298.899 203.924 298.899 204.406 298.899 204.546C298.899 204.687 298.959 204.807 299.079 204.907C299.24 205.048 299.811 205.128 300.794 205.148H301.667V206.532H301.396ZM296.311 200.183V190.133L289.721 200.153L293.001 200.183H296.311Z" fill="white"/>
</g>
<g id="Group_20">
<path id="Vector_17" d="M312.584 196.091C312.584 195.83 312.724 195.63 313.005 195.489H332.173C332.474 195.65 332.624 195.85 332.624 196.091C332.624 196.312 332.484 196.502 332.203 196.663L322.634 196.693H313.065C312.744 196.592 312.584 196.392 312.584 196.091ZM312.584 201.928C312.584 201.628 312.744 201.427 313.065 201.327H332.203C332.484 201.527 332.624 201.728 332.624 201.928C332.624 202.189 332.474 202.39 332.173 202.53H313.005C312.724 202.39 312.584 202.189 312.584 201.928Z" fill="white"/>
</g>
<g id="Group_21">
<path id="Vector_18" d="M349.078 189.14L348.686 189.291C348.405 189.391 348.004 189.491 347.483 189.591C346.961 189.692 346.379 189.762 345.737 189.802H345.166V188.418H345.737C346.68 188.378 347.553 188.227 348.355 187.967C349.158 187.706 349.719 187.465 350.04 187.244C350.361 187.024 350.642 186.803 350.883 186.582C350.923 186.522 351.043 186.492 351.244 186.492C351.425 186.492 351.595 186.552 351.756 186.673V195.67L351.786 204.697C351.926 204.837 352.046 204.927 352.147 204.968C352.247 205.008 352.488 205.048 352.869 205.088C353.25 205.128 353.872 205.148 354.734 205.148H355.517V206.532H355.186C354.765 206.472 353.17 206.442 350.401 206.442C347.673 206.442 346.099 206.472 345.677 206.532H345.316V205.148H346.099C346.54 205.148 346.921 205.148 347.242 205.148C347.563 205.148 347.814 205.138 347.994 205.118C348.175 205.098 348.335 205.068 348.476 205.028C348.616 204.988 348.696 204.968 348.716 204.968C348.736 204.968 348.797 204.917 348.897 204.817C348.997 204.717 349.057 204.677 349.078 204.697V189.14Z" fill="white"/>
<path id="Vector_19" d="M360.993 193.623C360.452 193.623 360.02 193.443 359.699 193.082C359.378 192.721 359.218 192.279 359.218 191.758C359.218 190.334 359.75 189.1 360.813 188.057C361.876 187.014 363.2 186.492 364.785 186.492C366.61 186.492 368.135 187.054 369.358 188.177C370.582 189.301 371.204 190.755 371.224 192.54C371.224 193.403 371.023 194.225 370.622 195.008C370.221 195.79 369.74 196.472 369.178 197.054C368.616 197.636 367.814 198.378 366.771 199.28C366.049 199.902 365.046 200.825 363.762 202.049L361.986 203.734L364.273 203.764C367.423 203.764 369.098 203.714 369.298 203.613C369.439 203.573 369.679 202.681 370.02 200.935V200.845H371.224V200.935C371.204 200.996 371.074 201.908 370.833 203.674C370.592 205.439 370.442 206.362 370.382 206.442V206.532H359.218V205.961V205.599C359.218 205.459 359.278 205.309 359.399 205.148C359.519 204.988 359.82 204.637 360.301 204.095C360.883 203.453 361.385 202.891 361.806 202.41C361.986 202.209 362.327 201.838 362.829 201.297C363.33 200.755 363.671 200.384 363.852 200.183C364.032 199.983 364.323 199.652 364.725 199.19C365.126 198.729 365.407 198.388 365.567 198.167C365.728 197.946 365.958 197.646 366.259 197.264C366.56 196.883 366.771 196.562 366.891 196.302C367.011 196.041 367.162 195.75 367.342 195.429C367.523 195.108 367.653 194.787 367.734 194.466C367.814 194.145 367.884 193.844 367.944 193.563C368.004 193.282 368.034 192.951 368.034 192.57C368.034 191.307 367.693 190.213 367.011 189.291C366.329 188.368 365.356 187.906 364.093 187.906C363.431 187.906 362.849 188.077 362.347 188.418C361.846 188.759 361.495 189.09 361.294 189.411C361.094 189.732 360.993 189.922 360.993 189.983C360.993 190.003 361.043 190.013 361.144 190.013C361.505 190.013 361.876 190.153 362.257 190.434C362.638 190.715 362.829 191.176 362.829 191.818C362.829 192.32 362.668 192.741 362.347 193.082C362.026 193.423 361.575 193.603 360.993 193.623Z" fill="white"/>
</g>
<g id="Group_22">
<path id="Vector_20" d="M373.39 197.897C373.41 197.776 373.441 197.616 373.481 197.415C373.521 197.215 373.641 196.833 373.842 196.272C374.042 195.71 374.243 195.239 374.444 194.858C374.644 194.476 374.965 194.105 375.406 193.744C375.848 193.383 376.289 193.213 376.73 193.233C377.172 193.253 377.603 193.323 378.024 193.443C378.446 193.564 378.746 193.744 378.927 193.985C379.108 194.226 379.268 194.446 379.408 194.647C379.549 194.847 379.629 195.038 379.649 195.219L379.709 195.429C379.709 195.469 379.719 195.489 379.739 195.489L380.07 195.158C381.274 193.875 382.688 193.233 384.313 193.233C384.654 193.233 384.965 193.253 385.246 193.293C385.527 193.333 385.788 193.403 386.028 193.503C386.269 193.604 386.46 193.704 386.6 193.804C386.74 193.905 386.891 194.025 387.051 194.165C387.212 194.306 387.312 194.436 387.352 194.557C387.392 194.677 387.473 194.807 387.593 194.948C387.713 195.088 387.753 195.209 387.713 195.309C387.673 195.409 387.703 195.499 387.804 195.58C387.904 195.66 387.924 195.73 387.864 195.79L388.105 195.489C389.368 193.985 390.863 193.233 392.588 193.233C393.671 193.233 394.544 193.503 395.206 194.045C395.868 194.587 396.209 195.379 396.229 196.422C396.229 197.445 395.848 199.03 395.085 201.176C394.323 203.323 393.942 204.607 393.942 205.028C393.962 205.309 394.012 205.499 394.092 205.6C394.173 205.7 394.323 205.75 394.544 205.75C395.106 205.75 395.627 205.449 396.109 204.847C396.59 204.246 396.981 203.423 397.282 202.38C397.342 202.159 397.402 202.029 397.463 201.989C397.523 201.949 397.683 201.929 397.944 201.929C398.345 201.929 398.546 202.009 398.546 202.169C398.546 202.19 398.506 202.34 398.425 202.621C398.265 203.203 398.044 203.774 397.764 204.336C397.483 204.898 397.021 205.459 396.379 206.021C395.737 206.583 395.045 206.853 394.303 206.833C393.36 206.833 392.678 206.563 392.257 206.021C391.836 205.479 391.625 204.918 391.625 204.336C391.625 203.955 391.986 202.751 392.708 200.725C393.431 198.699 393.802 197.174 393.822 196.151C393.822 194.968 393.38 194.376 392.498 194.376H392.347C390.622 194.376 389.168 195.389 387.984 197.415L387.774 197.776L386.781 201.808C386.119 204.436 385.737 205.85 385.637 206.051C385.376 206.593 384.945 206.864 384.343 206.864C384.082 206.864 383.872 206.793 383.711 206.653C383.551 206.512 383.441 206.392 383.38 206.292C383.32 206.192 383.29 206.091 383.29 205.991C383.29 205.77 383.631 204.336 384.313 201.688L385.396 197.295C385.457 196.994 385.487 196.613 385.487 196.151C385.487 194.968 385.045 194.376 384.163 194.376H384.012C382.287 194.376 380.833 195.389 379.649 197.415L379.439 197.776L378.446 201.808C377.784 204.436 377.402 205.85 377.302 206.051C377.041 206.593 376.61 206.864 376.008 206.864C375.747 206.864 375.537 206.803 375.376 206.683C375.216 206.563 375.106 206.442 375.045 206.322C374.985 206.202 374.965 206.101 374.985 206.021C374.985 205.76 375.366 204.115 376.129 201.086C376.911 197.997 377.302 196.382 377.302 196.242C377.362 195.941 377.392 195.67 377.392 195.429C377.392 194.707 377.142 194.346 376.64 194.346C376.199 194.346 375.828 194.627 375.527 195.189C375.226 195.75 374.995 196.362 374.835 197.024C374.674 197.686 374.554 198.047 374.474 198.107C374.434 198.147 374.273 198.167 373.992 198.167H373.571C373.451 198.047 373.39 197.957 373.39 197.897Z" fill="white"/>
</g>
</g>
</g>
<g id="tabla">
<path id="Rectangle 9 (Stroke)" fill-rule="evenodd" clip-rule="evenodd" d="M963 20H539V62H963V20ZM535 16V66H967V16H535Z" fill="#F80404"/>
<path id="Rectangle 10 (Stroke)" fill-rule="evenodd" clip-rule="evenodd" d="M963 69H539V111H963V69ZM535 65V115H967V65H535Z" fill="#F80404"/>
<path id="Rectangle 11 (Stroke)" fill-rule="evenodd" clip-rule="evenodd" d="M963 114H539V156H963V114ZM535 110V160H967V110H535Z" fill="#F80404"/>
<path id="Line 6 (Stroke)" fill-rule="evenodd" clip-rule="evenodd" d="M752 16V157.089H747V16H752Z" fill="#F80404"/>
<g id="Per&#195;&#173;metro">
<path d="M782.613 44.9805V55H779.238V29.4062H788.678C791.479 29.4062 793.67 30.1211 795.252 31.5508C796.846 32.9805 797.643 34.873 797.643 37.2285C797.643 39.7129 796.863 41.6289 795.305 42.9766C793.758 44.3125 791.537 44.9805 788.643 44.9805H782.613ZM782.613 42.2207H788.678C790.482 42.2207 791.865 41.7988 792.826 40.9551C793.787 40.0996 794.268 38.8691 794.268 37.2637C794.268 35.7402 793.787 34.5215 792.826 33.6074C791.865 32.6934 790.547 32.2188 788.871 32.1836H782.613V42.2207Z" fill="#F80404"/>
<path d="M809.086 55.3516C806.508 55.3516 804.41 54.5078 802.793 52.8203C801.176 51.1211 800.367 48.8535 800.367 46.0176V45.4199C800.367 43.5332 800.725 41.8516 801.439 40.375C802.166 38.8867 803.174 37.7266 804.463 36.8945C805.764 36.0508 807.17 35.6289 808.682 35.6289C811.154 35.6289 813.076 36.4434 814.447 38.0723C815.818 39.7012 816.504 42.0332 816.504 45.0684V46.4219H803.619C803.666 48.2969 804.211 49.8145 805.254 50.9746C806.309 52.123 807.645 52.6973 809.262 52.6973C810.41 52.6973 811.383 52.4629 812.18 51.9941C812.977 51.5254 813.674 50.9043 814.271 50.1309L816.258 51.6777C814.664 54.127 812.273 55.3516 809.086 55.3516ZM808.682 38.3008C807.369 38.3008 806.268 38.7812 805.377 39.7422C804.486 40.6914 803.936 42.0273 803.725 43.75H813.252V43.5039C813.158 41.8516 812.713 40.5742 811.916 39.6719C811.119 38.7578 810.041 38.3008 808.682 38.3008Z" fill="#F80404"/>
<path d="M829.477 38.8984C828.984 38.8164 828.451 38.7754 827.877 38.7754C825.744 38.7754 824.297 39.6836 823.535 41.5V55H820.283V35.9805H823.447L823.5 38.1777C824.566 36.4785 826.078 35.6289 828.035 35.6289C828.668 35.6289 829.148 35.7109 829.477 35.875V38.8984Z" fill="#F80404"/>
<path d="M836.016 55H832.746V35.9805H836.016V55ZM836.051 28.0176H839.988L835.277 33.1855H832.658L836.051 28.0176Z" fill="#F80404"/>
<path d="M844.436 35.9805L844.523 38.0898C845.918 36.4492 847.799 35.6289 850.166 35.6289C852.826 35.6289 854.637 36.6484 855.598 38.6875C856.23 37.7734 857.051 37.0352 858.059 36.4727C859.078 35.9102 860.279 35.6289 861.662 35.6289C865.834 35.6289 867.955 37.8379 868.025 42.2559V55H864.773V42.4492C864.773 41.0898 864.463 40.0762 863.842 39.4082C863.221 38.7285 862.178 38.3887 860.713 38.3887C859.506 38.3887 858.504 38.752 857.707 39.4785C856.91 40.1934 856.447 41.1602 856.318 42.3789V55H853.049V42.5371C853.049 39.7715 851.695 38.3887 848.988 38.3887C846.855 38.3887 845.396 39.2969 844.611 41.1133V55H841.359V35.9805H844.436Z" fill="#F80404"/>
<path d="M880.84 55.3516C878.262 55.3516 876.164 54.5078 874.547 52.8203C872.93 51.1211 872.121 48.8535 872.121 46.0176V45.4199C872.121 43.5332 872.479 41.8516 873.193 40.375C873.92 38.8867 874.928 37.7266 876.217 36.8945C877.518 36.0508 878.924 35.6289 880.436 35.6289C882.908 35.6289 884.83 36.4434 886.201 38.0723C887.572 39.7012 888.258 42.0332 888.258 45.0684V46.4219H875.373C875.42 48.2969 875.965 49.8145 877.008 50.9746C878.062 52.123 879.398 52.6973 881.016 52.6973C882.164 52.6973 883.137 52.4629 883.934 51.9941C884.73 51.5254 885.428 50.9043 886.025 50.1309L888.012 51.6777C886.418 54.127 884.027 55.3516 880.84 55.3516ZM880.436 38.3008C879.123 38.3008 878.021 38.7812 877.131 39.7422C876.24 40.6914 875.689 42.0273 875.479 43.75H885.006V43.5039C884.912 41.8516 884.467 40.5742 883.67 39.6719C882.873 38.7578 881.795 38.3008 880.436 38.3008Z" fill="#F80404"/>
<path d="M896.449 31.375V35.9805H900V38.4941H896.449V50.2891C896.449 51.0508 896.607 51.625 896.924 52.0117C897.24 52.3867 897.779 52.5742 898.541 52.5742C898.916 52.5742 899.432 52.5039 900.088 52.3633V55C899.232 55.2344 898.4 55.3516 897.592 55.3516C896.139 55.3516 895.043 54.9121 894.305 54.0332C893.566 53.1543 893.197 51.9062 893.197 50.2891V38.4941H889.734V35.9805H893.197V31.375H896.449Z" fill="#F80404"/>
<path d="M913.008 38.8984C912.516 38.8164 911.982 38.7754 911.408 38.7754C909.275 38.7754 907.828 39.6836 907.066 41.5V55H903.814V35.9805H906.979L907.031 38.1777C908.098 36.4785 909.609 35.6289 911.566 35.6289C912.199 35.6289 912.68 35.7109 913.008 35.875V38.8984Z" fill="#F80404"/>
<path d="M914.801 45.3145C914.801 43.4512 915.164 41.7754 915.891 40.2871C916.629 38.7988 917.648 37.6504 918.949 36.8418C920.262 36.0332 921.756 35.6289 923.432 35.6289C926.021 35.6289 928.113 36.5254 929.707 38.3184C931.312 40.1113 932.115 42.4961 932.115 45.4727V45.7012C932.115 47.5527 931.758 49.2168 931.043 50.6934C930.34 52.1582 929.326 53.3008 928.002 54.1211C926.689 54.9414 925.178 55.3516 923.467 55.3516C920.889 55.3516 918.797 54.4551 917.191 52.6621C915.598 50.8691 914.801 48.4961 914.801 45.543V45.3145ZM918.07 45.7012C918.07 47.8105 918.557 49.5039 919.529 50.7812C920.514 52.0586 921.826 52.6973 923.467 52.6973C925.119 52.6973 926.432 52.0527 927.404 50.7637C928.377 49.4629 928.863 47.6465 928.863 45.3145C928.863 43.2285 928.365 41.541 927.369 40.252C926.385 38.9512 925.072 38.3008 923.432 38.3008C921.826 38.3008 920.531 38.9395 919.547 40.2168C918.562 41.4941 918.07 43.3223 918.07 45.7012Z" fill="#F80404"/>
</g>
<g id="Partes">
<path d="M591.346 42.9805V53H587.971V27.4062H597.41C600.211 27.4062 602.402 28.1211 603.984 29.5508C605.578 30.9805 606.375 32.873 606.375 35.2285C606.375 37.7129 605.596 39.6289 604.037 40.9766C602.49 42.3125 600.27 42.9805 597.375 42.9805H591.346ZM591.346 40.2207H597.41C599.215 40.2207 600.598 39.7988 601.559 38.9551C602.52 38.0996 603 36.8691 603 35.2637C603 33.7402 602.52 32.5215 601.559 31.6074C600.598 30.6934 599.279 30.2188 597.604 30.1836H591.346V40.2207Z" fill="#F80404"/>
<path d="M621.703 53C621.516 52.625 621.363 51.957 621.246 50.9961C619.734 52.5664 617.93 53.3516 615.832 53.3516C613.957 53.3516 612.416 52.8242 611.209 51.7695C610.014 50.7031 609.416 49.3555 609.416 47.7266C609.416 45.7461 610.166 44.2109 611.666 43.1211C613.178 42.0195 615.299 41.4688 618.029 41.4688H621.193V39.9746C621.193 38.8379 620.854 37.9355 620.174 37.2676C619.494 36.5879 618.492 36.248 617.168 36.248C616.008 36.248 615.035 36.541 614.25 37.127C613.465 37.7129 613.072 38.4219 613.072 39.2539H609.803C609.803 38.3047 610.137 37.3906 610.805 36.5117C611.484 35.6211 612.398 34.918 613.547 34.4023C614.707 33.8867 615.979 33.6289 617.361 33.6289C619.553 33.6289 621.27 34.1797 622.512 35.2812C623.754 36.3711 624.398 37.877 624.445 39.7988V48.5527C624.445 50.2988 624.668 51.6875 625.113 52.7188V53H621.703ZM616.307 50.5215C617.326 50.5215 618.293 50.2578 619.207 49.7305C620.121 49.2031 620.783 48.5176 621.193 47.6738V43.7715H618.645C614.66 43.7715 612.668 44.9375 612.668 47.2695C612.668 48.2891 613.008 49.0859 613.688 49.6602C614.367 50.2344 615.24 50.5215 616.307 50.5215Z" fill="#F80404"/>
<path d="M638.736 36.8984C638.244 36.8164 637.711 36.7754 637.137 36.7754C635.004 36.7754 633.557 37.6836 632.795 39.5V53H629.543V33.9805H632.707L632.76 36.1777C633.826 34.4785 635.338 33.6289 637.295 33.6289C637.928 33.6289 638.408 33.7109 638.736 33.875V36.8984Z" fill="#F80404"/>
<path d="M647.033 29.375V33.9805H650.584V36.4941H647.033V48.2891C647.033 49.0508 647.191 49.625 647.508 50.0117C647.824 50.3867 648.363 50.5742 649.125 50.5742C649.5 50.5742 650.016 50.5039 650.672 50.3633V53C649.816 53.2344 648.984 53.3516 648.176 53.3516C646.723 53.3516 645.627 52.9121 644.889 52.0332C644.15 51.1543 643.781 49.9062 643.781 48.2891V36.4941H640.318V33.9805H643.781V29.375H647.033Z" fill="#F80404"/>
<path d="M662.291 53.3516C659.713 53.3516 657.615 52.5078 655.998 50.8203C654.381 49.1211 653.572 46.8535 653.572 44.0176V43.4199C653.572 41.5332 653.93 39.8516 654.645 38.375C655.371 36.8867 656.379 35.7266 657.668 34.8945C658.969 34.0508 660.375 33.6289 661.887 33.6289C664.359 33.6289 666.281 34.4434 667.652 36.0723C669.023 37.7012 669.709 40.0332 669.709 43.0684V44.4219H656.824C656.871 46.2969 657.416 47.8145 658.459 48.9746C659.514 50.123 660.85 50.6973 662.467 50.6973C663.615 50.6973 664.588 50.4629 665.385 49.9941C666.182 49.5254 666.879 48.9043 667.477 48.1309L669.463 49.6777C667.869 52.127 665.479 53.3516 662.291 53.3516ZM661.887 36.3008C660.574 36.3008 659.473 36.7812 658.582 37.7422C657.691 38.6914 657.141 40.0273 656.93 41.75H666.457V41.5039C666.363 39.8516 665.918 38.5742 665.121 37.6719C664.324 36.7578 663.246 36.3008 661.887 36.3008Z" fill="#F80404"/>
<path d="M684.562 47.9551C684.562 47.0762 684.229 46.3965 683.561 45.916C682.904 45.4238 681.75 45.002 680.098 44.6504C678.457 44.2988 677.15 43.877 676.178 43.3848C675.217 42.8926 674.502 42.3066 674.033 41.627C673.576 40.9473 673.348 40.1387 673.348 39.2012C673.348 37.6426 674.004 36.3242 675.316 35.2461C676.641 34.168 678.328 33.6289 680.379 33.6289C682.535 33.6289 684.281 34.1855 685.617 35.2988C686.965 36.4121 687.639 37.8359 687.639 39.5703H684.369C684.369 38.6797 683.988 37.9121 683.227 37.2676C682.477 36.623 681.527 36.3008 680.379 36.3008C679.195 36.3008 678.27 36.5586 677.602 37.0742C676.934 37.5898 676.6 38.2637 676.6 39.0957C676.6 39.8809 676.91 40.4727 677.531 40.8711C678.152 41.2695 679.271 41.6504 680.889 42.0137C682.518 42.377 683.836 42.8105 684.844 43.3145C685.852 43.8184 686.596 44.4277 687.076 45.1426C687.568 45.8457 687.814 46.707 687.814 47.7266C687.814 49.4258 687.135 50.791 685.775 51.8223C684.416 52.8418 682.652 53.3516 680.484 53.3516C678.961 53.3516 677.613 53.082 676.441 52.543C675.27 52.0039 674.35 51.2539 673.682 50.293C673.025 49.3203 672.697 48.2715 672.697 47.1465H675.949C676.008 48.2363 676.441 49.1035 677.25 49.748C678.07 50.3809 679.148 50.6973 680.484 50.6973C681.715 50.6973 682.699 50.4512 683.438 49.959C684.188 49.4551 684.562 48.7871 684.562 47.9551Z" fill="#F80404"/>
</g>
</g>
<g id="1\;1\;x\;12">
<g id="Group_23">
<g id="Group_24">
<path id="Vector_21" d="M625.948 78.5498L625.153 78.8083C624.583 78.9806 623.767 79.153 622.708 79.3253C621.648 79.4976 620.466 79.6182 619.162 79.6872H618V77.309H619.162C621.077 77.2401 622.85 76.9816 624.481 76.5336C626.111 76.0855 627.252 75.6719 627.904 75.2928C628.556 74.9137 629.127 74.5345 629.616 74.1554C629.698 74.052 629.942 74.0003 630.35 74.0003C630.717 74.0003 631.063 74.1037 631.389 74.3105V89.7684L631.45 105.278C631.736 105.519 631.98 105.674 632.184 105.743C632.388 105.812 632.877 105.881 633.651 105.95C634.426 106.019 635.689 106.054 637.442 106.054H639.031V108.432H638.359C637.503 108.328 634.263 108.277 628.638 108.277C623.095 108.277 619.895 108.328 619.039 108.432H618.306V106.054H619.895C620.792 106.054 621.566 106.054 622.219 106.054C622.871 106.054 623.38 106.036 623.747 106.002C624.114 105.967 624.44 105.916 624.725 105.847C625.01 105.778 625.173 105.743 625.214 105.743C625.255 105.743 625.377 105.657 625.581 105.485C625.785 105.312 625.907 105.244 625.948 105.278V78.5498Z" fill="white"/>
</g>
<g id="Group_25">
<path id="Vector_22" d="M864.948 78.5498L864.153 78.8083C863.583 78.9806 862.767 79.153 861.708 79.3253C860.648 79.4976 859.466 79.6182 858.162 79.6872H857V77.309H858.162C860.077 77.2401 861.85 76.9816 863.481 76.5336C865.111 76.0855 866.252 75.6719 866.904 75.2928C867.556 74.9137 868.127 74.5345 868.616 74.1554C868.698 74.052 868.942 74.0003 869.35 74.0003C869.717 74.0003 870.063 74.1037 870.389 74.3105V89.7684L870.45 105.278C870.736 105.519 870.98 105.674 871.184 105.743C871.388 105.812 871.877 105.881 872.651 105.95C873.426 106.019 874.689 106.054 876.442 106.054H878.031V108.432H877.359C876.503 108.328 873.263 108.277 867.638 108.277C862.095 108.277 858.895 108.328 858.039 108.432H857.306V106.054H858.895C859.792 106.054 860.566 106.054 861.219 106.054C861.871 106.054 862.38 106.036 862.747 106.002C863.114 105.967 863.44 105.916 863.725 105.847C864.01 105.778 864.173 105.743 864.214 105.743C864.255 105.743 864.377 105.657 864.581 105.485C864.785 105.312 864.907 105.244 864.948 105.278V78.5498Z" fill="white"/>
</g>
<g id="Group_26">
<path id="Vector_23" d="M610.039 131.91C610.325 130.463 611.425 128.791 613.341 126.896C615.256 125 617.62 124.035 620.433 124C621.859 124 623.164 124.311 624.346 124.931C625.528 125.551 626.404 126.327 626.975 127.257C628.686 125.086 630.745 124 633.149 124C634.657 124 635.962 124.38 637.062 125.138C638.163 125.896 638.733 126.913 638.774 128.188C638.774 129.188 638.489 129.997 637.918 130.618C637.348 131.238 636.797 131.617 636.267 131.755C635.738 131.893 635.269 131.962 634.861 131.962C634.087 131.962 633.455 131.772 632.966 131.393C632.477 131.014 632.232 130.514 632.232 129.894C632.232 128.309 633.251 127.223 635.289 126.637C634.841 126.189 634.026 125.965 632.844 125.965C632.314 125.965 631.927 125.999 631.682 126.068C630.133 126.62 628.992 127.757 628.258 129.48C625.813 137.097 624.59 141.544 624.59 142.819C624.59 143.784 624.916 144.473 625.568 144.887C626.22 145.3 626.934 145.507 627.708 145.507C629.216 145.507 630.704 144.938 632.171 143.801C633.639 142.664 634.637 141.268 635.167 139.613C635.289 139.269 635.412 139.079 635.534 139.045C635.656 139.01 635.982 138.976 636.512 138.941H636.757C637.368 138.941 637.674 139.079 637.674 139.355C637.674 139.389 637.633 139.579 637.551 139.924C636.899 141.888 635.636 143.629 633.761 145.145C631.886 146.662 629.705 147.42 627.219 147.42C624.366 147.42 622.206 146.334 620.738 144.163C619.067 146.3 617.152 147.368 614.992 147.368H614.625C612.628 147.368 611.201 146.92 610.345 146.024C609.489 145.128 609.041 144.18 609 143.181C609 142.078 609.387 141.182 610.162 140.492C610.936 139.803 611.853 139.458 612.913 139.458C614.665 139.458 615.542 140.182 615.542 141.63C615.542 142.319 615.297 142.922 614.808 143.439C614.319 143.956 613.85 144.301 613.402 144.473C612.954 144.645 612.689 144.732 612.607 144.732L612.424 144.783C612.424 144.818 612.546 144.887 612.791 144.99C613.035 145.093 613.361 145.214 613.769 145.352C614.176 145.49 614.564 145.542 614.93 145.507C616.398 145.507 617.661 144.732 618.721 143.181C619.088 142.629 619.556 141.457 620.127 139.665C620.698 137.873 621.268 136.012 621.839 134.082C622.41 132.152 622.736 131.014 622.817 130.67C623.021 129.739 623.123 129.067 623.123 128.653C623.123 127.688 622.817 126.999 622.206 126.585C621.594 126.172 620.901 125.965 620.127 125.965C618.497 125.965 616.968 126.516 615.542 127.619C614.115 128.722 613.117 130.135 612.546 131.859C612.464 132.169 612.363 132.341 612.24 132.376C612.118 132.41 611.792 132.445 611.262 132.479H610.406C610.162 132.272 610.039 132.083 610.039 131.91Z" fill="white"/>
</g>
<g id="Group_27">
<path id="Vector_24" d="M859.948 123.55L859.153 123.808C858.583 123.98 857.767 124.153 856.708 124.325C855.648 124.497 854.466 124.618 853.162 124.687H852V122.309H853.162C855.077 122.24 856.85 121.981 858.481 121.533C860.111 121.085 861.252 120.672 861.904 120.293C862.556 119.913 863.127 119.534 863.616 119.155C863.698 119.052 863.942 119 864.35 119C864.717 119 865.063 119.103 865.389 119.31V134.768L865.45 150.278C865.736 150.519 865.98 150.674 866.184 150.743C866.388 150.812 866.877 150.881 867.651 150.95C868.426 151.019 869.689 151.053 871.442 151.053H873.031V153.431H872.359C871.503 153.328 868.263 153.276 862.638 153.276C857.095 153.276 853.895 153.328 853.039 153.431H852.306V151.053H853.895C854.792 151.053 855.566 151.053 856.219 151.053C856.871 151.053 857.38 151.036 857.747 151.002C858.114 150.967 858.44 150.915 858.725 150.846C859.01 150.778 859.173 150.743 859.214 150.743C859.255 150.743 859.377 150.657 859.581 150.485C859.785 150.312 859.907 150.243 859.948 150.278V123.55Z" fill="white"/>
<path id="Vector_25" d="M884.158 131.253C883.058 131.253 882.182 130.942 881.529 130.322C880.877 129.702 880.551 128.943 880.551 128.047C880.551 125.6 881.631 123.481 883.792 121.688C885.952 119.896 888.642 119 891.862 119C895.571 119 898.668 119.965 901.155 121.895C903.641 123.825 904.904 126.324 904.945 129.392C904.945 130.874 904.538 132.287 903.722 133.631C902.907 134.975 901.929 136.147 900.788 137.146C899.647 138.146 898.016 139.421 895.897 140.972C894.43 142.04 892.392 143.626 889.783 145.728L886.176 148.623L890.822 148.675C897.222 148.675 900.625 148.589 901.032 148.417C901.318 148.348 901.807 146.814 902.5 143.815V143.66H904.945V143.815C904.904 143.919 904.64 145.487 904.15 148.52C903.661 151.553 903.356 153.138 903.233 153.276V153.431H880.551V152.449V151.829C880.551 151.587 880.674 151.329 880.918 151.053C881.163 150.778 881.774 150.174 882.752 149.244C883.934 148.141 884.953 147.176 885.809 146.349C886.176 146.004 886.869 145.366 887.888 144.436C888.907 143.505 889.6 142.868 889.966 142.523C890.333 142.178 890.924 141.61 891.739 140.817C892.555 140.024 893.125 139.438 893.451 139.059C893.777 138.68 894.246 138.163 894.858 137.508C895.469 136.853 895.897 136.302 896.141 135.854C896.386 135.406 896.692 134.906 897.058 134.355C897.425 133.803 897.69 133.252 897.853 132.7C898.016 132.149 898.159 131.632 898.281 131.149C898.404 130.667 898.465 130.098 898.465 129.443C898.465 127.272 897.772 125.393 896.386 123.808C895 122.223 893.023 121.43 890.456 121.43C889.111 121.43 887.929 121.723 886.91 122.309C885.891 122.895 885.177 123.463 884.77 124.015C884.362 124.566 884.158 124.894 884.158 124.997C884.158 125.032 884.26 125.049 884.464 125.049C885.198 125.049 885.952 125.29 886.726 125.773C887.501 126.255 887.888 127.048 887.888 128.151C887.888 129.012 887.562 129.736 886.91 130.322C886.257 130.908 885.34 131.218 884.158 131.253Z" fill="white"/>
</g>
</g>
</g>
<g id="flechas">
<path id="Arrow 3 (Stroke)" fill-rule="evenodd" clip-rule="evenodd" d="M809.271 77.0204L828.266 87.7601C829.432 88.4192 829.81 89.9563 829.11 91.1934L817.712 111.353C817.013 112.59 815.501 113.059 814.335 112.4C813.169 111.741 812.792 110.204 813.491 108.967L821.832 94.2146L656.597 145.428L655.403 140.572L820.638 89.3592L806.738 81.5004C805.573 80.8413 805.195 79.3042 805.894 78.0671C806.594 76.8299 808.106 76.3613 809.271 77.0204Z" fill="#F80404"/>
<path id="Arrow 4 (Stroke)" fill-rule="evenodd" clip-rule="evenodd" d="M817.712 121.647L829.11 141.807C829.81 143.044 829.432 144.581 828.266 145.24L809.271 155.98C808.106 156.639 806.594 156.17 805.894 154.933C805.195 153.696 805.573 152.159 806.738 151.5L820.638 143.641L655.403 92.4278L656.597 87.5724L821.832 138.786L813.491 124.033C812.791 122.796 813.169 121.259 814.335 120.6C815.501 119.941 817.013 120.41 817.712 121.647Z" fill="#F80404"/>
</g>
<g id="\therefore\;x=12">
<g id="Group_28">
<g id="Group_29">
<path id="Vector_26" d="M651.287 201.583C651.287 200.728 651.583 200.02 652.175 199.461C652.767 198.902 653.475 198.622 654.297 198.622C655.086 198.622 655.761 198.902 656.32 199.461C656.879 200.02 657.175 200.728 657.208 201.583C657.241 202.438 656.962 203.145 656.369 203.705C655.777 204.264 655.07 204.544 654.248 204.544C653.392 204.544 652.685 204.264 652.126 203.705C651.567 203.145 651.287 202.438 651.287 201.583ZM641.961 219.989C642.816 219.989 643.507 220.268 644.033 220.827C644.56 221.387 644.839 222.094 644.872 222.949C644.872 223.739 644.609 224.43 644.083 225.022C643.556 225.614 642.832 225.91 641.911 225.91C641.056 225.91 640.365 225.63 639.839 225.071C639.313 224.512 639.033 223.805 639 222.949C639 222.094 639.28 221.387 639.839 220.827C640.398 220.268 641.105 219.989 641.961 219.989ZM663.672 222.949C663.672 222.094 663.952 221.387 664.511 220.827C665.071 220.268 665.778 219.989 666.633 219.989C667.423 219.989 668.097 220.268 668.656 220.827C669.216 221.387 669.512 222.094 669.545 222.949C669.545 223.706 669.281 224.38 668.755 224.972C668.229 225.564 667.505 225.877 666.584 225.91C665.729 225.91 665.038 225.63 664.511 225.071C663.985 224.512 663.705 223.805 663.672 222.949Z" fill="white"/>
</g>
<g id="Group_30">
<path id="Vector_27" d="M700.711 207.603C700.941 206.221 701.829 204.626 703.375 202.817C704.921 201.007 706.829 200.086 709.099 200.053C710.251 200.053 711.303 200.349 712.257 200.941C713.211 201.534 713.919 202.274 714.379 203.162C715.761 201.089 717.422 200.053 719.363 200.053C720.58 200.053 721.633 200.415 722.521 201.139C723.409 201.863 723.87 202.833 723.903 204.05C723.903 205.004 723.673 205.777 723.212 206.369C722.751 206.962 722.307 207.323 721.88 207.455C721.452 207.587 721.074 207.652 720.745 207.652C720.12 207.652 719.61 207.471 719.215 207.11C718.82 206.748 718.623 206.271 718.623 205.679C718.623 204.165 719.445 203.129 721.09 202.57C720.728 202.142 720.07 201.928 719.116 201.928C718.689 201.928 718.376 201.961 718.179 202.027C716.929 202.553 716.008 203.639 715.415 205.284C713.442 212.554 712.455 216.798 712.455 218.015C712.455 218.936 712.718 219.594 713.244 219.989C713.771 220.383 714.346 220.581 714.971 220.581C716.189 220.581 717.389 220.038 718.574 218.952C719.758 217.867 720.564 216.534 720.991 214.955C721.09 214.626 721.189 214.446 721.288 214.413C721.386 214.38 721.649 214.347 722.077 214.314H722.274C722.768 214.314 723.015 214.446 723.015 214.709C723.015 214.742 722.982 214.923 722.916 215.251C722.39 217.127 721.37 218.788 719.857 220.235C718.343 221.683 716.583 222.406 714.577 222.406C712.274 222.406 710.53 221.37 709.346 219.298C707.997 221.337 706.451 222.357 704.708 222.357H704.412C702.8 222.357 701.648 221.929 700.957 221.074C700.267 220.219 699.905 219.314 699.872 218.36C699.872 217.308 700.184 216.452 700.809 215.794C701.434 215.136 702.175 214.807 703.03 214.807C704.444 214.807 705.152 215.498 705.152 216.88C705.152 217.538 704.954 218.113 704.56 218.607C704.165 219.1 703.787 219.429 703.425 219.594C703.063 219.758 702.849 219.841 702.783 219.841L702.635 219.89C702.635 219.923 702.734 219.989 702.931 220.087C703.129 220.186 703.392 220.301 703.721 220.433C704.05 220.564 704.362 220.614 704.658 220.581C705.843 220.581 706.862 219.841 707.718 218.36C708.014 217.834 708.392 216.715 708.853 215.005C709.313 213.294 709.774 211.518 710.234 209.675C710.695 207.833 710.958 206.748 711.024 206.419C711.188 205.531 711.271 204.889 711.271 204.494C711.271 203.573 711.024 202.915 710.53 202.52C710.037 202.126 709.478 201.928 708.853 201.928C707.537 201.928 706.303 202.455 705.152 203.507C704 204.56 703.194 205.909 702.734 207.554C702.668 207.85 702.586 208.014 702.487 208.047C702.388 208.08 702.125 208.113 701.698 208.146H701.007C700.809 207.948 700.711 207.767 700.711 207.603Z" fill="white"/>
</g>
<g id="Group_31">
<path id="Vector_28" d="M742.837 204.741C742.837 204.313 743.067 203.984 743.527 203.754H774.96C775.454 204.017 775.7 204.346 775.7 204.741C775.7 205.103 775.47 205.415 775.01 205.679L759.318 205.728H743.626C743.1 205.563 742.837 205.234 742.837 204.741ZM742.837 214.314C742.837 213.82 743.1 213.491 743.626 213.327H775.01C775.47 213.656 775.7 213.985 775.7 214.314C775.7 214.742 775.454 215.071 774.96 215.301H743.527C743.067 215.071 742.837 214.742 742.837 214.314Z" fill="white"/>
</g>
<g id="Group_32">
<path id="Vector_29" d="M802.682 193.342L802.041 193.589C801.58 193.753 800.922 193.918 800.067 194.082C799.212 194.247 798.258 194.362 797.205 194.428H796.267V192.158H797.205C798.751 192.092 800.182 191.845 801.498 191.418C802.814 190.99 803.735 190.595 804.261 190.233C804.788 189.872 805.248 189.51 805.643 189.148C805.709 189.049 805.906 189 806.235 189C806.531 189 806.811 189.098 807.074 189.296V204.05L807.123 218.853C807.353 219.084 807.551 219.232 807.715 219.298C807.88 219.363 808.275 219.429 808.9 219.495C809.525 219.561 810.544 219.594 811.959 219.594H813.242V221.864H812.699C812.008 221.765 809.393 221.715 804.853 221.715C800.379 221.715 797.797 221.765 797.106 221.864H796.514V219.594H797.797C798.521 219.594 799.146 219.594 799.672 219.594C800.198 219.594 800.61 219.577 800.906 219.544C801.202 219.511 801.465 219.462 801.695 219.396C801.926 219.33 802.057 219.298 802.09 219.298C802.123 219.298 802.222 219.215 802.386 219.051C802.551 218.886 802.649 218.821 802.682 218.853V193.342Z" fill="white"/>
<path id="Vector_30" d="M822.223 200.695C821.335 200.695 820.627 200.398 820.101 199.806C819.575 199.214 819.312 198.49 819.312 197.635C819.312 195.299 820.183 193.276 821.927 191.566C823.67 189.855 825.842 189 828.44 189C831.434 189 833.934 189.921 835.941 191.763C837.947 193.605 838.967 195.99 839 198.918C839 200.333 838.671 201.681 838.013 202.964C837.355 204.247 836.566 205.366 835.645 206.32C834.724 207.274 833.408 208.491 831.697 209.971C830.513 210.991 828.868 212.504 826.763 214.511L823.851 217.274L827.601 217.324C832.766 217.324 835.513 217.242 835.842 217.077C836.072 217.011 836.467 215.547 837.026 212.685V212.537H839V212.685C838.967 212.784 838.753 214.281 838.359 217.176C837.964 220.071 837.717 221.584 837.618 221.715V221.864H819.312V220.926V220.334C819.312 220.104 819.41 219.857 819.608 219.594C819.805 219.33 820.298 218.755 821.088 217.867C822.042 216.814 822.864 215.893 823.555 215.103C823.851 214.774 824.411 214.166 825.233 213.278C826.055 212.389 826.615 211.781 826.911 211.452C827.207 211.123 827.684 210.58 828.342 209.823C829 209.067 829.46 208.507 829.723 208.146C829.986 207.784 830.365 207.29 830.858 206.665C831.352 206.04 831.697 205.514 831.894 205.086C832.092 204.659 832.339 204.182 832.635 203.655C832.931 203.129 833.145 202.603 833.276 202.076C833.408 201.55 833.523 201.056 833.622 200.596C833.72 200.135 833.77 199.593 833.77 198.967C833.77 196.895 833.21 195.102 832.092 193.589C830.973 192.076 829.378 191.319 827.305 191.319C826.22 191.319 825.266 191.599 824.443 192.158C823.621 192.717 823.045 193.26 822.716 193.786C822.387 194.313 822.223 194.625 822.223 194.724C822.223 194.757 822.305 194.773 822.47 194.773C823.062 194.773 823.67 195.003 824.295 195.464C824.92 195.925 825.233 196.681 825.233 197.734C825.233 198.556 824.97 199.247 824.443 199.806C823.917 200.366 823.177 200.662 822.223 200.695Z" fill="white"/>
</g>
</g>
</g>
<g id="\#Estacas=12">
<g id="Group_33">
<g id="Group_34">
<path id="Vector_31" d="M657 267.494C657 267.231 657.141 267.03 657.423 266.889H664.772L666.042 262.141C666.828 259.077 667.292 257.444 667.433 257.242C667.534 257.081 667.685 257 667.887 257C668.25 257 668.451 257.181 668.491 257.544C668.491 257.625 668.088 259.177 667.282 262.201C666.455 265.185 666.042 266.727 666.042 266.828L666.012 266.889H671.727L672.997 262.141C673.824 259.016 674.278 257.393 674.358 257.272C674.479 257.091 674.64 257 674.842 257C674.983 257 675.114 257.05 675.235 257.151C675.356 257.252 675.417 257.363 675.417 257.484C675.417 257.685 675.023 259.258 674.237 262.201C673.411 265.185 672.997 266.727 672.997 266.828L672.967 266.889H678.35C678.652 267.05 678.804 267.252 678.804 267.494C678.804 267.756 678.703 267.917 678.501 267.977C678.3 268.038 677.846 268.078 677.14 268.098H675.477H672.604L671.999 270.397L671.364 272.725C671.364 272.745 672.534 272.755 674.872 272.755H677.08C677.806 272.755 678.269 272.786 678.471 272.846C678.673 272.907 678.783 273.078 678.804 273.36C678.824 273.642 678.673 273.844 678.35 273.965H671.001L669.731 278.713C668.905 281.838 668.451 283.461 668.371 283.582C668.25 283.763 668.088 283.854 667.887 283.854C667.746 283.854 667.614 283.803 667.494 283.703C667.373 283.602 667.312 283.481 667.312 283.34C667.312 283.138 667.705 281.566 668.491 278.622C669.318 275.679 669.731 274.146 669.731 274.026L669.762 273.965H664.046L662.776 278.713C661.949 281.838 661.496 283.461 661.415 283.582C661.294 283.763 661.133 283.854 660.931 283.854C660.79 283.854 660.659 283.803 660.538 283.703C660.417 283.602 660.357 283.481 660.357 283.34C660.357 283.138 660.75 281.566 661.536 278.622C662.363 275.679 662.776 274.146 662.776 274.026L662.806 273.965H657.423C657.141 273.824 657 273.622 657 273.36C657 273.058 657.161 272.856 657.484 272.755H663.169L663.774 270.457L664.409 268.129C664.409 268.108 663.25 268.098 660.931 268.098H657.484C657.161 267.998 657 267.796 657 267.494ZM671.364 268.129C671.364 268.108 670.417 268.098 668.522 268.098H665.649L665.044 270.397L664.409 272.725C664.409 272.745 665.357 272.755 667.252 272.755H670.124L670.729 270.457L671.364 268.129Z" fill="white"/>
</g>
<g id="Group_35">
<path id="Vector_32" d="M695.376 271.546C694.972 271.546 694.771 271.415 694.771 271.153C694.771 271.072 694.821 270.83 694.922 270.427C695.023 270.024 695.073 269.671 695.073 269.368C695.073 268.743 694.861 268.36 694.438 268.219C694.015 268.078 693.037 268.008 691.505 268.008H689.932C689.912 268.048 689.559 269.439 688.874 272.181C688.188 274.923 687.846 276.334 687.846 276.415C687.846 276.495 687.956 276.536 688.178 276.536C688.4 276.536 689.206 276.556 690.598 276.596C692.493 276.596 693.743 276.576 694.347 276.536C694.952 276.495 695.557 276.364 696.162 276.142C697.15 275.82 697.966 275.255 698.611 274.449C699.256 273.642 699.972 272.322 700.758 270.487C700.96 270.044 701.091 269.802 701.152 269.762C701.293 269.721 701.444 269.701 701.605 269.701C702.008 269.701 702.21 269.832 702.21 270.094C700.093 275.215 698.984 277.826 698.883 277.927C698.823 277.967 695.94 277.987 690.235 277.987H684.519C682.463 277.987 681.435 277.876 681.435 277.654C681.435 277.614 681.465 277.473 681.525 277.231C681.606 276.908 681.687 276.727 681.767 276.687C681.848 276.646 682.08 276.616 682.463 276.596C683.007 276.596 683.612 276.566 684.277 276.505C684.559 276.445 684.751 276.324 684.852 276.142C684.892 276.042 685.608 273.209 686.999 267.645C688.39 262.08 689.096 259.258 689.116 259.177C689.116 259.036 689.075 258.966 688.995 258.966C688.833 258.905 688.299 258.855 687.392 258.814H686.455C686.334 258.693 686.273 258.613 686.273 258.573C686.273 258.532 686.293 258.361 686.334 258.058C686.414 257.716 686.515 257.504 686.636 257.423H703.389C703.53 257.504 703.601 257.615 703.601 257.756C703.601 257.857 703.47 258.986 703.208 261.143C702.946 263.3 702.805 264.409 702.785 264.469C702.744 264.611 702.543 264.681 702.18 264.681H701.817C701.676 264.58 701.605 264.449 701.605 264.288L701.696 263.592C701.756 263.109 701.787 262.584 701.787 262.02C701.787 261.415 701.716 260.911 701.575 260.508C701.434 260.105 701.242 259.792 701 259.57C700.758 259.349 700.406 259.187 699.942 259.087C699.478 258.986 699.004 258.915 698.521 258.875C698.037 258.835 697.392 258.814 696.585 258.814H695.164C693.39 258.835 692.452 258.865 692.351 258.905C692.271 258.945 692.21 259.036 692.17 259.177C692.15 259.238 691.837 260.478 691.233 262.897C690.628 265.316 690.315 266.546 690.295 266.586C690.759 266.606 691.243 266.617 691.747 266.617H692.533C693.864 266.617 694.781 266.465 695.285 266.163C695.789 265.861 696.242 265.044 696.646 263.713C696.726 263.391 696.787 263.209 696.827 263.169C696.867 263.129 697.039 263.099 697.341 263.078C697.442 263.078 697.523 263.078 697.583 263.078C697.644 263.078 697.694 263.088 697.734 263.109C697.775 263.129 697.795 263.139 697.795 263.139C697.795 263.139 697.815 263.179 697.855 263.26C697.896 263.34 697.926 263.381 697.946 263.381L696.948 267.373C696.283 270.054 695.92 271.415 695.859 271.455C695.799 271.516 695.638 271.546 695.376 271.546Z" fill="white"/>
</g>
<g id="Group_36">
<path id="Vector_33" d="M707.562 269.248C707.562 268.602 707.724 267.947 708.046 267.282C708.369 266.617 708.933 266.002 709.74 265.437C710.546 264.873 711.524 264.601 712.673 264.621C713.923 264.621 714.83 264.893 715.395 265.437C715.959 265.982 716.252 266.586 716.272 267.252C716.272 267.897 716.1 268.371 715.758 268.673C715.415 268.975 715.032 269.137 714.608 269.157C714.346 269.157 714.104 269.076 713.883 268.915C713.661 268.754 713.54 268.492 713.52 268.129C713.52 267.806 713.611 267.524 713.792 267.282C713.973 267.04 714.145 266.859 714.306 266.738C714.467 266.617 714.598 266.556 714.699 266.556C714.719 266.556 714.729 266.546 714.729 266.526C714.729 266.465 714.659 266.375 714.518 266.254C714.377 266.133 714.125 266.022 713.762 265.921C713.399 265.82 713.006 265.76 712.582 265.74C711.615 265.74 710.909 266.002 710.465 266.526C710.022 267.05 709.79 267.584 709.77 268.129C709.77 268.633 709.961 268.985 710.345 269.187C710.728 269.389 711.282 269.56 712.008 269.701C712.734 269.842 713.258 269.994 713.58 270.155C714.911 270.739 715.576 271.707 715.576 273.058C715.576 273.622 715.465 274.187 715.244 274.751C715.022 275.316 714.689 275.88 714.246 276.445C713.802 277.009 713.167 277.453 712.34 277.775C711.514 278.098 710.566 278.269 709.498 278.29C707.945 278.29 706.847 277.997 706.202 277.413C705.556 276.828 705.224 276.142 705.204 275.356C705.204 274.57 705.415 274.005 705.839 273.663C706.262 273.32 706.706 273.149 707.169 273.149C707.472 273.149 707.754 273.239 708.016 273.421C708.278 273.602 708.419 273.915 708.439 274.358C708.439 274.882 708.258 275.326 707.895 275.689C707.532 276.052 707.22 276.233 706.958 276.233C706.917 276.253 706.887 276.263 706.867 276.263C706.847 276.263 706.837 276.284 706.837 276.324C706.857 276.384 706.937 276.465 707.079 276.566C707.22 276.667 707.532 276.798 708.016 276.959C708.5 277.12 709.054 277.191 709.679 277.171C710.405 277.171 711.03 277.06 711.554 276.838C712.078 276.616 712.461 276.334 712.703 275.991C712.945 275.649 713.117 275.336 713.217 275.054C713.318 274.772 713.369 274.52 713.369 274.298C713.369 273.733 713.157 273.31 712.734 273.028C712.31 272.745 711.826 272.574 711.282 272.514C710.738 272.453 710.143 272.302 709.498 272.06C708.853 271.818 708.379 271.465 708.076 271.002C707.734 270.498 707.562 269.913 707.562 269.248Z" fill="white"/>
</g>
<g id="Group_37">
<path id="Vector_34" d="M718.57 266.345C718.429 266.203 718.358 266.103 718.358 266.042C718.358 265.961 718.389 265.8 718.449 265.558C718.51 265.316 718.56 265.175 718.6 265.135C718.641 265.034 718.731 264.984 718.872 264.984C719.014 264.984 719.528 264.974 720.415 264.953H722.018L722.592 262.534C722.653 262.312 722.723 262.02 722.804 261.657C722.884 261.294 722.955 261.032 723.015 260.871C723.076 260.71 723.136 260.508 723.197 260.266C723.257 260.024 723.338 259.853 723.439 259.752C723.54 259.651 723.64 259.53 723.741 259.389C723.842 259.248 723.983 259.157 724.165 259.117C724.346 259.077 724.528 259.056 724.709 259.056C725.072 259.077 725.324 259.188 725.465 259.389C725.606 259.591 725.677 259.782 725.677 259.964C725.677 260.105 725.586 260.579 725.404 261.385C725.223 262.191 725.021 262.988 724.8 263.774L724.497 264.893C724.497 264.933 725.001 264.953 726.009 264.953H727.552C727.693 265.095 727.763 265.205 727.763 265.286C727.763 265.73 727.632 266.082 727.37 266.345H724.134L723.046 270.729C722.259 273.955 721.866 275.689 721.866 275.931C721.866 276.778 722.138 277.201 722.683 277.201C723.388 277.201 724.074 276.858 724.739 276.173C725.404 275.487 725.939 274.641 726.342 273.633C726.382 273.512 726.433 273.441 726.493 273.421C726.554 273.401 726.705 273.381 726.947 273.36H727.068C727.37 273.36 727.521 273.441 727.521 273.602C727.521 273.663 727.491 273.784 727.431 273.965C727.33 274.288 727.148 274.671 726.886 275.114C726.624 275.558 726.281 276.032 725.858 276.536C725.435 277.04 724.921 277.463 724.316 277.806C723.711 278.148 723.096 278.32 722.471 278.32C721.866 278.32 721.292 278.169 720.747 277.866C720.203 277.564 719.81 277.04 719.568 276.294C719.528 276.132 719.508 275.86 719.508 275.477V274.933L720.566 270.699C721.272 267.857 721.634 266.425 721.655 266.405C721.655 266.365 721.141 266.345 720.112 266.345H718.57Z" fill="white"/>
</g>
<g id="Group_38">
<path id="Vector_35" d="M729.699 273.239C729.699 271.203 730.465 269.268 731.997 267.433C733.529 265.599 735.253 264.671 737.168 264.651C738.196 264.651 739.104 265.145 739.89 266.133C740.212 265.528 740.676 265.226 741.281 265.226C741.543 265.226 741.775 265.306 741.976 265.467C742.178 265.629 742.279 265.83 742.279 266.072C742.279 266.334 741.906 267.947 741.16 270.911C740.414 273.874 740.031 275.548 740.011 275.931C740.011 276.435 740.081 276.767 740.222 276.929C740.364 277.09 740.575 277.181 740.858 277.201C741.039 277.181 741.241 277.09 741.462 276.929C741.886 276.526 742.299 275.558 742.702 274.026C742.823 273.622 742.924 273.411 743.005 273.391C743.045 273.37 743.146 273.36 743.307 273.36H743.428C743.811 273.36 744.003 273.451 744.003 273.632C744.003 273.753 743.952 274.026 743.851 274.449C743.751 274.872 743.549 275.417 743.247 276.082C742.944 276.747 742.622 277.251 742.279 277.594C742.017 277.856 741.694 278.068 741.311 278.229C741.15 278.269 740.908 278.29 740.585 278.29C739.9 278.29 739.325 278.138 738.862 277.836C738.398 277.534 738.096 277.221 737.954 276.898L737.773 276.445C737.753 276.425 737.713 276.435 737.652 276.475C737.612 276.515 737.571 276.556 737.531 276.596C736.342 277.725 735.132 278.29 733.902 278.29C732.793 278.29 731.816 277.886 730.969 277.08C730.122 276.274 729.699 274.993 729.699 273.239ZM739.315 268.068C739.315 267.947 739.265 267.725 739.164 267.403C739.063 267.08 738.831 266.728 738.469 266.344C738.106 265.961 737.642 265.76 737.077 265.74C736.372 265.74 735.696 266.052 735.051 266.677C734.406 267.302 733.902 268.119 733.539 269.127C732.955 270.719 732.541 272.372 732.299 274.086C732.299 274.147 732.299 274.257 732.299 274.419C732.299 274.58 732.289 274.701 732.269 274.782C732.269 275.689 732.451 276.314 732.814 276.657C733.176 276.999 733.61 277.181 734.114 277.201C734.88 277.201 735.636 276.868 736.382 276.203C737.128 275.538 737.571 275.024 737.713 274.661C737.753 274.58 738.025 273.501 738.529 271.425C739.033 269.348 739.295 268.229 739.315 268.068Z" fill="white"/>
</g>
<g id="Group_39">
<path id="Vector_36" d="M745.726 273.179C745.726 270.981 746.593 269.006 748.327 267.252C750.061 265.498 751.936 264.621 753.952 264.621C755.081 264.621 755.968 264.863 756.613 265.347C757.258 265.83 757.591 266.465 757.611 267.252C757.611 267.836 757.419 268.33 757.036 268.734C756.653 269.137 756.169 269.348 755.585 269.369C755.202 269.369 754.899 269.268 754.678 269.066C754.456 268.865 754.345 268.562 754.345 268.159C754.345 267.756 754.456 267.413 754.678 267.131C754.899 266.849 755.121 266.637 755.343 266.496C755.565 266.355 755.706 266.294 755.766 266.314H755.796C755.796 266.274 755.736 266.213 755.615 266.133C755.494 266.052 755.282 265.972 754.98 265.891C754.678 265.81 754.335 265.77 753.952 265.77C753.347 265.77 752.772 265.911 752.228 266.193C751.805 266.375 751.371 266.687 750.928 267.131C750.041 268.018 749.396 269.268 748.992 270.881C748.589 272.493 748.377 273.663 748.357 274.389C748.357 275.316 748.619 276.011 749.144 276.475C749.587 276.959 750.172 277.201 750.897 277.201H751.018C753.276 277.201 755.141 276.344 756.613 274.63C756.794 274.429 756.915 274.328 756.976 274.328C757.057 274.328 757.188 274.419 757.369 274.6C757.55 274.782 757.651 274.923 757.671 275.024C757.692 275.124 757.601 275.276 757.399 275.477C757.198 275.679 756.905 275.961 756.522 276.324C756.139 276.687 755.686 276.989 755.161 277.231C754.637 277.473 753.992 277.725 753.226 277.987C752.46 278.249 751.653 278.36 750.807 278.32C749.295 278.32 748.075 277.836 747.148 276.868C746.22 275.901 745.746 274.671 745.726 273.179Z" fill="white"/>
</g>
<g id="Group_40">
<path id="Vector_37" d="M758.79 273.239C758.79 271.203 759.556 269.268 761.089 267.433C762.621 265.599 764.344 264.671 766.26 264.651C767.288 264.651 768.195 265.145 768.981 266.133C769.304 265.528 769.768 265.226 770.372 265.226C770.635 265.226 770.866 265.306 771.068 265.467C771.27 265.629 771.37 265.83 771.37 266.072C771.37 266.334 770.997 267.947 770.252 270.911C769.506 273.874 769.123 275.548 769.102 275.931C769.102 276.435 769.173 276.767 769.314 276.929C769.455 277.09 769.667 277.181 769.949 277.201C770.131 277.181 770.332 277.09 770.554 276.929C770.977 276.526 771.391 275.558 771.794 274.026C771.915 273.622 772.016 273.411 772.096 273.391C772.137 273.37 772.237 273.36 772.399 273.36H772.52C772.903 273.36 773.094 273.451 773.094 273.632C773.094 273.753 773.044 274.026 772.943 274.449C772.842 274.872 772.641 275.417 772.338 276.082C772.036 276.747 771.713 277.251 771.37 277.594C771.108 277.856 770.786 278.068 770.403 278.229C770.241 278.269 770 278.29 769.677 278.29C768.991 278.29 768.417 278.138 767.953 277.836C767.49 277.534 767.187 277.221 767.046 276.898L766.865 276.445C766.844 276.425 766.804 276.435 766.744 276.475C766.703 276.515 766.663 276.556 766.623 276.596C765.433 277.725 764.224 278.29 762.994 278.29C761.885 278.29 760.907 277.886 760.06 277.08C759.214 276.274 758.79 274.993 758.79 273.239ZM768.407 268.068C768.407 267.947 768.356 267.725 768.256 267.403C768.155 267.08 767.923 266.728 767.56 266.344C767.197 265.961 766.734 265.76 766.169 265.74C765.463 265.74 764.788 266.052 764.143 266.677C763.498 267.302 762.994 268.119 762.631 269.127C762.046 270.719 761.633 272.372 761.391 274.086C761.391 274.147 761.391 274.257 761.391 274.419C761.391 274.58 761.381 274.701 761.361 274.782C761.361 275.689 761.542 276.314 761.905 276.657C762.268 276.999 762.701 277.181 763.205 277.201C763.972 277.201 764.728 276.868 765.473 276.203C766.219 275.538 766.663 275.024 766.804 274.661C766.844 274.58 767.117 273.501 767.621 271.425C768.125 269.348 768.387 268.229 768.407 268.068Z" fill="white"/>
</g>
<g id="Group_41">
<path id="Vector_38" d="M777.751 269.248C777.751 268.602 777.912 267.947 778.235 267.282C778.558 266.617 779.122 266.002 779.928 265.437C780.735 264.873 781.713 264.601 782.862 264.621C784.112 264.621 785.019 264.893 785.583 265.437C786.148 265.982 786.44 266.586 786.46 267.252C786.46 267.897 786.289 268.371 785.946 268.673C785.604 268.975 785.221 269.137 784.797 269.157C784.535 269.157 784.293 269.076 784.071 268.915C783.85 268.754 783.729 268.492 783.709 268.129C783.709 267.806 783.799 267.524 783.981 267.282C784.162 267.04 784.334 266.859 784.495 266.738C784.656 266.617 784.787 266.556 784.888 266.556C784.908 266.556 784.918 266.546 784.918 266.526C784.918 266.465 784.848 266.375 784.706 266.254C784.565 266.133 784.313 266.022 783.95 265.921C783.588 265.82 783.194 265.76 782.771 265.74C781.803 265.74 781.098 266.002 780.654 266.526C780.211 267.05 779.979 267.584 779.959 268.129C779.959 268.633 780.15 268.985 780.533 269.187C780.916 269.389 781.471 269.56 782.196 269.701C782.922 269.842 783.446 269.994 783.769 270.155C785.1 270.739 785.765 271.707 785.765 273.058C785.765 273.622 785.654 274.187 785.432 274.751C785.21 275.316 784.878 275.88 784.434 276.445C783.991 277.009 783.356 277.453 782.529 277.775C781.703 278.098 780.755 278.269 779.687 278.29C778.134 278.29 777.035 277.997 776.39 277.413C775.745 276.828 775.412 276.142 775.392 275.356C775.392 274.57 775.604 274.005 776.027 273.663C776.451 273.32 776.894 273.149 777.358 273.149C777.66 273.149 777.943 273.239 778.205 273.421C778.467 273.602 778.608 273.915 778.628 274.358C778.628 274.882 778.447 275.326 778.084 275.689C777.721 276.052 777.408 276.233 777.146 276.233C777.106 276.253 777.076 276.263 777.056 276.263C777.035 276.263 777.025 276.284 777.025 276.324C777.045 276.384 777.126 276.465 777.267 276.566C777.408 276.667 777.721 276.798 778.205 276.959C778.689 277.12 779.243 277.191 779.868 277.171C780.594 277.171 781.219 277.06 781.743 276.838C782.267 276.616 782.65 276.334 782.892 275.991C783.134 275.649 783.305 275.336 783.406 275.054C783.507 274.772 783.557 274.52 783.557 274.298C783.557 273.733 783.346 273.31 782.922 273.028C782.499 272.745 782.015 272.574 781.471 272.514C780.926 272.453 780.332 272.302 779.687 272.06C779.041 271.818 778.568 271.465 778.265 271.002C777.922 270.498 777.751 269.913 777.751 269.248Z" fill="white"/>
</g>
<g id="Group_42">
<path id="Vector_39" d="M798.067 267.494C798.067 267.231 798.208 267.03 798.49 266.889H817.754C818.056 267.05 818.207 267.252 818.207 267.494C818.207 267.715 818.066 267.907 817.784 268.068L808.167 268.098H798.551C798.228 267.998 798.067 267.796 798.067 267.494ZM798.067 273.36C798.067 273.058 798.228 272.856 798.551 272.755H817.784C818.066 272.957 818.207 273.159 818.207 273.36C818.207 273.622 818.056 273.824 817.754 273.965H798.49C798.208 273.824 798.067 273.622 798.067 273.36Z" fill="white"/>
</g>
<g id="Group_43">
<path id="Vector_40" d="M834.743 260.508L834.35 260.659C834.067 260.76 833.664 260.861 833.14 260.962C832.616 261.062 832.031 261.133 831.386 261.173H830.812V259.782H831.386C832.334 259.742 833.211 259.591 834.017 259.329C834.823 259.066 835.388 258.825 835.711 258.603C836.033 258.381 836.315 258.159 836.557 257.937C836.598 257.877 836.719 257.847 836.92 257.847C837.102 257.847 837.273 257.907 837.434 258.028V267.07L837.464 276.142C837.606 276.284 837.727 276.374 837.827 276.415C837.928 276.455 838.17 276.495 838.553 276.536C838.936 276.576 839.561 276.596 840.428 276.596H841.214V277.987H840.882C840.458 277.927 838.856 277.896 836.073 277.896C833.332 277.896 831.749 277.927 831.326 277.987H830.963V276.596H831.749C832.193 276.596 832.576 276.596 832.898 276.596C833.221 276.596 833.473 276.586 833.654 276.566C833.836 276.546 833.997 276.515 834.138 276.475C834.279 276.435 834.36 276.415 834.38 276.415C834.4 276.415 834.461 276.364 834.561 276.263C834.662 276.163 834.723 276.122 834.743 276.142V260.508Z" fill="white"/>
<path id="Vector_41" d="M846.718 265.014C846.174 265.014 845.74 264.832 845.418 264.469C845.095 264.107 844.934 263.663 844.934 263.139C844.934 261.707 845.468 260.468 846.537 259.419C847.605 258.371 848.936 257.847 850.528 257.847C852.363 257.847 853.895 258.411 855.125 259.54C856.355 260.669 856.98 262.131 857 263.925C857 264.792 856.798 265.619 856.395 266.405C855.992 267.191 855.508 267.877 854.944 268.461C854.379 269.046 853.573 269.792 852.524 270.699C851.798 271.324 850.79 272.251 849.5 273.481L847.716 275.175L850.014 275.205C853.179 275.205 854.863 275.155 855.064 275.054C855.206 275.013 855.448 274.116 855.79 272.362V272.272H857V272.362C856.98 272.423 856.849 273.34 856.607 275.114C856.365 276.888 856.214 277.816 856.153 277.896V277.987H844.934V277.412V277.05C844.934 276.908 844.994 276.757 845.115 276.596C845.236 276.435 845.539 276.082 846.023 275.538C846.607 274.892 847.111 274.328 847.535 273.844C847.716 273.642 848.059 273.27 848.563 272.725C849.067 272.181 849.409 271.808 849.591 271.606C849.772 271.405 850.065 271.072 850.468 270.608C850.871 270.145 851.153 269.802 851.315 269.58C851.476 269.358 851.708 269.056 852.01 268.673C852.313 268.29 852.524 267.967 852.645 267.705C852.766 267.443 852.917 267.151 853.099 266.828C853.28 266.506 853.411 266.183 853.492 265.861C853.573 265.538 853.643 265.236 853.704 264.953C853.764 264.671 853.794 264.338 853.794 263.955C853.794 262.685 853.452 261.587 852.766 260.659C852.081 259.732 851.103 259.268 849.833 259.268C849.168 259.268 848.583 259.439 848.079 259.782C847.575 260.125 847.222 260.458 847.02 260.78C846.819 261.103 846.718 261.294 846.718 261.355C846.718 261.375 846.768 261.385 846.869 261.385C847.232 261.385 847.605 261.526 847.988 261.808C848.371 262.091 848.563 262.554 848.563 263.199C848.563 263.703 848.401 264.127 848.079 264.469C847.756 264.812 847.303 264.994 846.718 265.014Z" fill="white"/>
</g>
</g>
</g>
</g>
</svg>
