<svg viewBox="0 0 992 375" fill="none" xmlns="http://www.w3.org/2000/svg">
<g id="0121112">
<g id="claves01">
<path id="Rectangle 4" d="M56 185H272.745L306 225L272.745 265H56V185Z" fill="#CD08D1" fill-opacity="0.1"/>
<path id="Rectangle 4 (Stroke)" fill-rule="evenodd" clip-rule="evenodd" d="M271.338 188H59V262H271.338L302.099 225L271.338 188ZM272.745 185H56V265H272.745L306 225L272.745 185Z" fill="#CD08D1"/>
<path id="Rectangle 5" d="M60 295H276.745L310 335L276.745 375H60V295Z" fill="#CD08D1" fill-opacity="0.1"/>
<path id="Rectangle 5 (Stroke)" fill-rule="evenodd" clip-rule="evenodd" d="M275.338 298H63V372H275.338L306.099 335L275.338 298ZM276.745 295H60V375H276.745L310 335L276.745 295Z" fill="#CD08D1"/>
<path id="Rectangle 6" d="M396 182H612.745L646 222L612.745 262H396V182Z" fill="#CD08D1" fill-opacity="0.1"/>
<path id="Rectangle 6 (Stroke)" fill-rule="evenodd" clip-rule="evenodd" d="M611.338 185H399V259H611.338L642.099 222L611.338 185ZM612.745 182H396V262H612.745L646 222L612.745 182Z" fill="#CD08D1"/>
<path id="Rectangle 7" d="M399 292H615.745L649 332L615.745 372H399V292Z" fill="#CD08D1" fill-opacity="0.1"/>
<path id="Rectangle 7 (Stroke)" fill-rule="evenodd" clip-rule="evenodd" d="M614.338 295H402V369H614.338L645.099 332L614.338 295ZM615.745 292H399V372H615.745L649 332L615.745 292Z" fill="#CD08D1"/>
<path id="Rectangle 8" d="M742 241H958.745L992 281L958.745 321H742V241Z" fill="#CD08D1" fill-opacity="0.1"/>
<path id="Rectangle 8 (Stroke)" fill-rule="evenodd" clip-rule="evenodd" d="M957.338 244H745V318H957.338L988.099 281L957.338 244ZM958.745 241H742V321H958.745L992 281L958.745 241Z" fill="#CD08D1"/>
<path id="Ellipse 1" d="M97 225C97 247.091 79.0914 265 57 265C34.9086 265 17 247.091 17 225C17 202.909 34.9086 185 57 185C79.0914 185 97 202.909 97 225Z" fill="#CD08D1"/>
<path id="Ellipse 2" d="M101 335C101 357.091 83.0914 375 61 375C38.9086 375 21 357.091 21 335C21 312.909 38.9086 295 61 295C83.0914 295 101 312.909 101 335Z" fill="#CD08D1"/>
<path id="Ellipse 3" d="M437 222C437 244.091 419.091 262 397 262C374.909 262 357 244.091 357 222C357 199.909 374.909 182 397 182C419.091 182 437 199.909 437 222Z" fill="#CD08D1"/>
<path id="Ellipse 4" d="M440 332C440 354.091 422.091 372 400 372C377.909 372 360 354.091 360 332C360 309.909 377.909 292 400 292C422.091 292 440 309.909 440 332Z" fill="#CD08D1"/>
<path id="Ellipse 5" d="M783 281C783 303.091 765.091 321 743 321C720.909 321 703 303.091 703 281C703 258.909 720.909 241 743 241C765.091 241 783 258.909 783 281Z" fill="#CD08D1"/>
<path id="A" d="M65.0938 235.406H47.4688L43.7812 246H35.5625L52.75 200.5H59.8438L77.0625 246H68.8125L65.0938 235.406ZM49.6875 229.031H62.875L56.2812 210.156L49.6875 229.031Z" fill="white"/>
<path id="B" d="M44.625 351V305.5H60.2188C65.3646 305.5 69.2812 306.531 71.9688 308.594C74.6562 310.656 76 313.729 76 317.812C76 319.896 75.4375 321.771 74.3125 323.438C73.1875 325.104 71.5417 326.396 69.375 327.312C71.8333 327.979 73.7292 329.24 75.0625 331.094C76.4167 332.927 77.0938 335.135 77.0938 337.719C77.0938 341.99 75.7188 345.271 72.9688 347.562C70.2396 349.854 66.3229 351 61.2188 351H44.625ZM52.5312 330.469V344.688H61.3125C63.7917 344.688 65.7292 344.073 67.125 342.844C68.5208 341.615 69.2188 339.906 69.2188 337.719C69.2188 332.99 66.8021 330.573 61.9688 330.469H52.5312ZM52.5312 324.656H60.2812C62.7396 324.656 64.6562 324.104 66.0312 323C67.4271 321.875 68.125 320.292 68.125 318.25C68.125 316 67.4792 314.375 66.1875 313.375C64.9167 312.375 62.9271 311.875 60.2188 311.875H52.5312V324.656Z" fill="white"/>
<path id="C" d="M414.344 229.188C413.885 234.042 412.094 237.833 408.969 240.562C405.844 243.271 401.688 244.625 396.5 244.625C392.875 244.625 389.677 243.771 386.906 242.062C384.156 240.333 382.031 237.885 380.531 234.719C379.031 231.552 378.25 227.875 378.188 223.688V219.438C378.188 215.146 378.948 211.365 380.469 208.094C381.99 204.823 384.167 202.302 387 200.531C389.854 198.76 393.146 197.875 396.875 197.875C401.896 197.875 405.938 199.24 409 201.969C412.062 204.698 413.844 208.552 414.344 213.531H406.469C406.094 210.26 405.135 207.906 403.594 206.469C402.073 205.01 399.833 204.281 396.875 204.281C393.438 204.281 390.792 205.542 388.938 208.062C387.104 210.562 386.167 214.24 386.125 219.094V223.125C386.125 228.042 387 231.792 388.75 234.375C390.521 236.958 393.104 238.25 396.5 238.25C399.604 238.25 401.938 237.552 403.5 236.156C405.062 234.76 406.052 232.438 406.469 229.188H414.344Z" fill="white"/>
<path id="D" d="M382.625 354V308.5H396.062C400.083 308.5 403.646 309.396 406.75 311.188C409.875 312.979 412.292 315.521 414 318.812C415.708 322.104 416.562 325.875 416.562 330.125V332.406C416.562 336.719 415.698 340.51 413.969 343.781C412.26 347.052 409.812 349.573 406.625 351.344C403.458 353.115 399.823 354 395.719 354H382.625ZM390.531 314.875V347.688H395.688C399.833 347.688 403.01 346.396 405.219 343.812C407.448 341.208 408.583 337.479 408.625 332.625V330.094C408.625 325.156 407.552 321.385 405.406 318.781C403.26 316.177 400.146 314.875 396.062 314.875H390.531Z" fill="white"/>
<path id="E" d="M752.219 282.688H733.531V296.688H755.375V303H725.625V257.5H755.156V263.875H733.531V276.438H752.219V282.688Z" fill="white"/>
<g id="180">
<path d="M158.086 248H153.727V219.102L144.984 222.312V218.375L157.406 213.711H158.086V248Z" fill="#CD08D1"/>
<path d="M191.484 222.781C191.484 224.484 191.031 226 190.125 227.328C189.234 228.656 188.023 229.695 186.492 230.445C188.273 231.211 189.68 232.328 190.711 233.797C191.758 235.266 192.281 236.93 192.281 238.789C192.281 241.742 191.281 244.094 189.281 245.844C187.297 247.594 184.68 248.469 181.43 248.469C178.148 248.469 175.516 247.594 173.531 245.844C171.562 244.078 170.578 241.727 170.578 238.789C170.578 236.945 171.078 235.281 172.078 233.797C173.094 232.312 174.492 231.188 176.273 230.422C174.758 229.672 173.562 228.633 172.688 227.305C171.812 225.977 171.375 224.469 171.375 222.781C171.375 219.906 172.297 217.625 174.141 215.938C175.984 214.25 178.414 213.406 181.43 213.406C184.43 213.406 186.852 214.25 188.695 215.938C190.555 217.625 191.484 219.906 191.484 222.781ZM187.945 238.695C187.945 236.789 187.336 235.234 186.117 234.031C184.914 232.828 183.336 232.227 181.383 232.227C179.43 232.227 177.859 232.82 176.672 234.008C175.5 235.195 174.914 236.758 174.914 238.695C174.914 240.633 175.484 242.156 176.625 243.266C177.781 244.375 179.383 244.93 181.43 244.93C183.461 244.93 185.055 244.375 186.211 243.266C187.367 242.141 187.945 240.617 187.945 238.695ZM181.43 216.969C179.727 216.969 178.344 217.5 177.281 218.562C176.234 219.609 175.711 221.039 175.711 222.852C175.711 224.586 176.227 225.992 177.258 227.07C178.305 228.133 179.695 228.664 181.43 228.664C183.164 228.664 184.547 228.133 185.578 227.07C186.625 225.992 187.148 224.586 187.148 222.852C187.148 221.117 186.609 219.703 185.531 218.609C184.453 217.516 183.086 216.969 181.43 216.969Z" fill="#CD08D1"/>
<path d="M219.141 233.445C219.141 238.523 218.273 242.297 216.539 244.766C214.805 247.234 212.094 248.469 208.406 248.469C204.766 248.469 202.07 247.266 200.32 244.859C198.57 242.438 197.664 238.828 197.602 234.031V228.242C197.602 223.227 198.469 219.5 200.203 217.062C201.938 214.625 204.656 213.406 208.359 213.406C212.031 213.406 214.734 214.586 216.469 216.945C218.203 219.289 219.094 222.914 219.141 227.82V233.445ZM214.805 227.516C214.805 223.844 214.289 221.172 213.258 219.5C212.227 217.812 210.594 216.969 208.359 216.969C206.141 216.969 204.523 217.805 203.508 219.477C202.492 221.148 201.969 223.719 201.938 227.188V234.125C201.938 237.812 202.469 240.539 203.531 242.305C204.609 244.055 206.234 244.93 208.406 244.93C210.547 244.93 212.133 244.102 213.164 242.445C214.211 240.789 214.758 238.18 214.805 234.617V227.516Z" fill="#CD08D1"/>
</g>
<g id="160">
<path d="M157.086 356H152.727V327.102L143.984 330.312V326.375L156.406 321.711H157.086V356Z" fill="#CD08D1"/>
<path d="M186.805 321.852V325.531H186.008C182.633 325.594 179.945 326.594 177.945 328.531C175.945 330.469 174.789 333.195 174.477 336.711C176.273 334.648 178.727 333.617 181.836 333.617C184.805 333.617 187.172 334.664 188.938 336.758C190.719 338.852 191.609 341.555 191.609 344.867C191.609 348.383 190.648 351.195 188.727 353.305C186.82 355.414 184.258 356.469 181.039 356.469C177.773 356.469 175.125 355.219 173.094 352.719C171.062 350.203 170.047 346.969 170.047 343.016V341.352C170.047 335.07 171.383 330.273 174.055 326.961C176.742 323.633 180.734 321.93 186.031 321.852H186.805ZM181.109 337.227C179.625 337.227 178.258 337.672 177.008 338.562C175.758 339.453 174.891 340.57 174.406 341.914V343.508C174.406 346.32 175.039 348.586 176.305 350.305C177.57 352.023 179.148 352.883 181.039 352.883C182.992 352.883 184.523 352.164 185.633 350.727C186.758 349.289 187.32 347.406 187.32 345.078C187.32 342.734 186.75 340.844 185.609 339.406C184.484 337.953 182.984 337.227 181.109 337.227Z" fill="#CD08D1"/>
<path d="M218.141 341.445C218.141 346.523 217.273 350.297 215.539 352.766C213.805 355.234 211.094 356.469 207.406 356.469C203.766 356.469 201.07 355.266 199.32 352.859C197.57 350.438 196.664 346.828 196.602 342.031V336.242C196.602 331.227 197.469 327.5 199.203 325.062C200.938 322.625 203.656 321.406 207.359 321.406C211.031 321.406 213.734 322.586 215.469 324.945C217.203 327.289 218.094 330.914 218.141 335.82V341.445ZM213.805 335.516C213.805 331.844 213.289 329.172 212.258 327.5C211.227 325.812 209.594 324.969 207.359 324.969C205.141 324.969 203.523 325.805 202.508 327.477C201.492 329.148 200.969 331.719 200.938 335.188V342.125C200.938 345.812 201.469 348.539 202.531 350.305C203.609 352.055 205.234 352.93 207.406 352.93C209.547 352.93 211.133 352.102 212.164 350.445C213.211 348.789 213.758 346.18 213.805 342.617V335.516Z" fill="#CD08D1"/>
</g>
<g id="170">
<path d="M510.086 358H505.727V329.102L496.984 332.312V328.375L509.406 323.711H510.086V358Z" fill="#CD08D1"/>
<path d="M544.82 326.312L530.688 358H526.141L540.227 327.438H521.758V323.875H544.82V326.312Z" fill="#CD08D1"/>
<path d="M571.141 343.445C571.141 348.523 570.273 352.297 568.539 354.766C566.805 357.234 564.094 358.469 560.406 358.469C556.766 358.469 554.07 357.266 552.32 354.859C550.57 352.438 549.664 348.828 549.602 344.031V338.242C549.602 333.227 550.469 329.5 552.203 327.062C553.938 324.625 556.656 323.406 560.359 323.406C564.031 323.406 566.734 324.586 568.469 326.945C570.203 329.289 571.094 332.914 571.141 337.82V343.445ZM566.805 337.516C566.805 333.844 566.289 331.172 565.258 329.5C564.227 327.812 562.594 326.969 560.359 326.969C558.141 326.969 556.523 327.805 555.508 329.477C554.492 331.148 553.969 333.719 553.938 337.188V344.125C553.938 347.812 554.469 350.539 555.531 352.305C556.609 354.055 558.234 354.93 560.406 354.93C562.547 354.93 564.133 354.102 565.164 352.445C566.211 350.789 566.758 348.18 566.805 344.617V337.516Z" fill="#CD08D1"/>
</g>
<g id="19">
<path d="M862.086 301H857.727V272.102L848.984 275.312V271.375L861.406 266.711H862.086V301Z" fill="#CD08D1"/>
<path d="M891.406 286C890.5 287.078 889.414 287.945 888.148 288.602C886.898 289.258 885.523 289.586 884.023 289.586C882.055 289.586 880.336 289.102 878.867 288.133C877.414 287.164 876.289 285.805 875.492 284.055C874.695 282.289 874.297 280.344 874.297 278.219C874.297 275.938 874.727 273.883 875.586 272.055C876.461 270.227 877.695 268.828 879.289 267.859C880.883 266.891 882.742 266.406 884.867 266.406C888.242 266.406 890.898 267.672 892.836 270.203C894.789 272.719 895.766 276.156 895.766 280.516V281.781C895.766 288.422 894.453 293.273 891.828 296.336C889.203 299.383 885.242 300.945 879.945 301.023H879.102V297.367H880.016C883.594 297.305 886.344 296.375 888.266 294.578C890.188 292.766 891.234 289.906 891.406 286ZM884.727 286C886.18 286 887.516 285.555 888.734 284.664C889.969 283.773 890.867 282.672 891.43 281.359V279.625C891.43 276.781 890.812 274.469 889.578 272.688C888.344 270.906 886.781 270.016 884.891 270.016C882.984 270.016 881.453 270.75 880.297 272.219C879.141 273.672 878.562 275.594 878.562 277.984C878.562 280.312 879.117 282.234 880.227 283.75C881.352 285.25 882.852 286 884.727 286Z" fill="#CD08D1"/>
<path d="M923.141 286.445C923.141 291.523 922.273 295.297 920.539 297.766C918.805 300.234 916.094 301.469 912.406 301.469C908.766 301.469 906.07 300.266 904.32 297.859C902.57 295.438 901.664 291.828 901.602 287.031V281.242C901.602 276.227 902.469 272.5 904.203 270.062C905.938 267.625 908.656 266.406 912.359 266.406C916.031 266.406 918.734 267.586 920.469 269.945C922.203 272.289 923.094 275.914 923.141 280.82V286.445ZM918.805 280.516C918.805 276.844 918.289 274.172 917.258 272.5C916.227 270.812 914.594 269.969 912.359 269.969C910.141 269.969 908.523 270.805 907.508 272.477C906.492 274.148 905.969 276.719 905.938 280.188V287.125C905.938 290.812 906.469 293.539 907.531 295.305C908.609 297.055 910.234 297.93 912.406 297.93C914.547 297.93 916.133 297.102 917.164 295.445C918.211 293.789 918.758 291.18 918.805 287.617V280.516Z" fill="#CD08D1"/>
</g>
<g id="17">
<path d="M510.086 244H505.727V215.102L496.984 218.312V214.375L509.406 209.711H510.086V244Z" fill="#CD08D1"/>
<path d="M524.781 226.891L526.516 209.875H544V213.883H530.195L529.164 223.188C530.836 222.203 532.734 221.711 534.859 221.711C537.969 221.711 540.438 222.742 542.266 224.805C544.094 226.852 545.008 229.625 545.008 233.125C545.008 236.641 544.055 239.414 542.148 241.445C540.258 243.461 537.609 244.469 534.203 244.469C531.188 244.469 528.727 243.633 526.82 241.961C524.914 240.289 523.828 237.977 523.562 235.023H527.664C527.93 236.977 528.625 238.453 529.75 239.453C530.875 240.438 532.359 240.93 534.203 240.93C536.219 240.93 537.797 240.242 538.938 238.867C540.094 237.492 540.672 235.594 540.672 233.172C540.672 230.891 540.047 229.062 538.797 227.688C537.562 226.297 535.914 225.602 533.852 225.602C531.961 225.602 530.477 226.016 529.398 226.844L528.25 227.781L524.781 226.891Z" fill="#CD08D1"/>
<path d="M571.141 229.445C571.141 234.523 570.273 238.297 568.539 240.766C566.805 243.234 564.094 244.469 560.406 244.469C556.766 244.469 554.07 243.266 552.32 240.859C550.57 238.438 549.664 234.828 549.602 230.031V224.242C549.602 219.227 550.469 215.5 552.203 213.062C553.938 210.625 556.656 209.406 560.359 209.406C564.031 209.406 566.734 210.586 568.469 212.945C570.203 215.289 571.094 218.914 571.141 223.82V229.445ZM566.805 223.516C566.805 219.844 566.289 217.172 565.258 215.5C564.227 213.812 562.594 212.969 560.359 212.969C558.141 212.969 556.523 213.805 555.508 215.477C554.492 217.148 553.969 219.719 553.938 223.188V230.125C553.938 233.812 554.469 236.539 555.531 238.305C556.609 240.055 558.234 240.93 560.406 240.93C562.547 240.93 564.133 240.102 565.164 238.445C566.211 236.789 566.758 234.18 566.805 230.617V223.516Z" fill="#CD08D1"/>
</g>
<g id="flecha">
<path id="Rectangle 2" d="M58.2002 184.008L73.482 192.133L31.5004 271.089L16.2186 262.963L58.2002 184.008Z" fill="#1043F5"/>
<path id="Rectangle 1" d="M0 196.904L90 147V204.692L45 187.096L0 196.904Z" fill="#1043F5"/>
<path id="Rectangle 3" d="M4.03857 266.21L19.6657 239.143L36.9364 238.565L21.3092 265.632L4.03857 266.21Z" fill="#1043F5"/>
<path id="Rectangle 4_2" d="M30.0894 280.845L45.7165 253.778L36.9258 238.154L21.2986 265.221L30.0894 280.845Z" fill="#1043F5"/>
</g>
</g>
<g id="enun01">
<path id="Rectangle 1_2" d="M82 0H894.539L963 71.9496L894.539 146H82V0Z" fill="#02071A"/>
<path id="Rectangle 1 (Stroke)" fill-rule="evenodd" clip-rule="evenodd" d="M892.823 4H86V142H892.789L957.516 71.989L892.823 4ZM894.539 0H82V146H894.539L963 71.9496L894.539 0Z" fill="#CD08D1"/>
<path id="Ellipse 1_2" d="M127 73C127 100.614 104.614 123 77 123C49.3858 123 27 100.614 27 73C27 45.3858 49.3858 23 77 23C104.614 23 127 45.3858 127 73Z" fill="#CD08D1"/>
<path id="Ellipse 1 (Stroke)" fill-rule="evenodd" clip-rule="evenodd" d="M77 122C104.062 122 126 100.062 126 73C126 45.938 104.062 24 77 24C49.938 24 28 45.938 28 73C28 100.062 49.938 122 77 122ZM77 123C104.614 123 127 100.614 127 73C127 45.3858 104.614 23 77 23C49.3858 23 27 45.3858 27 73C27 100.614 49.3858 123 77 123Z" fill="black"/>
<g id="Si en una fiesta se encuentran 10 parejas de esposos, &#194;&#191;cu&#195;&#161;ntos saludos en total se observa?">
<path d="M157.512 45.5918C154.617 44.7598 152.508 43.7402 151.184 42.5332C149.871 41.3145 149.215 39.8145 149.215 38.0332C149.215 36.0176 150.018 34.3535 151.623 33.041C153.24 31.7168 155.338 31.0547 157.916 31.0547C159.674 31.0547 161.238 31.3945 162.609 32.0742C163.992 32.7539 165.059 33.6914 165.809 34.8867C166.57 36.082 166.951 37.3887 166.951 38.8066H163.559C163.559 37.2598 163.066 36.0469 162.082 35.168C161.098 34.2773 159.709 33.832 157.916 33.832C156.252 33.832 154.951 34.2012 154.014 34.9395C153.088 35.666 152.625 36.6797 152.625 37.9805C152.625 39.0234 153.064 39.9082 153.943 40.6348C154.834 41.3496 156.34 42.0059 158.461 42.6035C160.594 43.2012 162.258 43.8633 163.453 44.5898C164.66 45.3047 165.551 46.1426 166.125 47.1035C166.711 48.0645 167.004 49.1953 167.004 50.4961C167.004 52.5703 166.195 54.2344 164.578 55.4883C162.961 56.7305 160.799 57.3516 158.092 57.3516C156.334 57.3516 154.693 57.0176 153.17 56.3496C151.646 55.6699 150.469 54.7441 149.637 53.5723C148.816 52.4004 148.406 51.0703 148.406 49.582H151.799C151.799 51.1289 152.367 52.3535 153.504 53.2559C154.652 54.1465 156.182 54.5918 158.092 54.5918C159.873 54.5918 161.238 54.2285 162.188 53.502C163.137 52.7754 163.611 51.7852 163.611 50.5312C163.611 49.2773 163.172 48.3105 162.293 47.6309C161.414 46.9395 159.82 46.2598 157.512 45.5918Z" fill="white"/>
<path d="M174.369 57H171.117V37.9805H174.369V57ZM170.854 32.9355C170.854 32.4082 171.012 31.9629 171.328 31.5996C171.656 31.2363 172.137 31.0547 172.77 31.0547C173.402 31.0547 173.883 31.2363 174.211 31.5996C174.539 31.9629 174.703 32.4082 174.703 32.9355C174.703 33.4629 174.539 33.9023 174.211 34.2539C173.883 34.6055 173.402 34.7812 172.77 34.7812C172.137 34.7812 171.656 34.6055 171.328 34.2539C171.012 33.9023 170.854 33.4629 170.854 32.9355Z" fill="white"/>
<path d="M196.412 57.3516C193.834 57.3516 191.736 56.5078 190.119 54.8203C188.502 53.1211 187.693 50.8535 187.693 48.0176V47.4199C187.693 45.5332 188.051 43.8516 188.766 42.375C189.492 40.8867 190.5 39.7266 191.789 38.8945C193.09 38.0508 194.496 37.6289 196.008 37.6289C198.48 37.6289 200.402 38.4434 201.773 40.0723C203.145 41.7012 203.83 44.0332 203.83 47.0684V48.4219H190.945C190.992 50.2969 191.537 51.8145 192.58 52.9746C193.635 54.123 194.971 54.6973 196.588 54.6973C197.736 54.6973 198.709 54.4629 199.506 53.9941C200.303 53.5254 201 52.9043 201.598 52.1309L203.584 53.6777C201.99 56.127 199.6 57.3516 196.412 57.3516ZM196.008 40.3008C194.695 40.3008 193.594 40.7812 192.703 41.7422C191.812 42.6914 191.262 44.0273 191.051 45.75H200.578V45.5039C200.484 43.8516 200.039 42.5742 199.242 41.6719C198.445 40.7578 197.367 40.3008 196.008 40.3008Z" fill="white"/>
<path d="M210.686 37.9805L210.791 40.3711C212.244 38.543 214.143 37.6289 216.486 37.6289C220.506 37.6289 222.533 39.8965 222.568 44.4316V57H219.316V44.4141C219.305 43.043 218.988 42.0293 218.367 41.373C217.758 40.7168 216.803 40.3887 215.502 40.3887C214.447 40.3887 213.521 40.6699 212.725 41.2324C211.928 41.7949 211.307 42.5332 210.861 43.4473V57H207.609V37.9805H210.686Z" fill="white"/>
<path d="M248.145 55.1191C246.879 56.6074 245.021 57.3516 242.572 57.3516C240.545 57.3516 238.998 56.7656 237.932 55.5938C236.877 54.4102 236.344 52.6641 236.332 50.3555V37.9805H239.584V50.2676C239.584 53.1504 240.756 54.5918 243.1 54.5918C245.584 54.5918 247.236 53.666 248.057 51.8145V37.9805H251.309V57H248.215L248.145 55.1191Z" fill="white"/>
<path d="M259.342 37.9805L259.447 40.3711C260.9 38.543 262.799 37.6289 265.143 37.6289C269.162 37.6289 271.189 39.8965 271.225 44.4316V57H267.973V44.4141C267.961 43.043 267.645 42.0293 267.023 41.373C266.414 40.7168 265.459 40.3887 264.158 40.3887C263.104 40.3887 262.178 40.6699 261.381 41.2324C260.584 41.7949 259.963 42.5332 259.518 43.4473V57H256.266V37.9805H259.342Z" fill="white"/>
<path d="M287.871 57C287.684 56.625 287.531 55.957 287.414 54.9961C285.902 56.5664 284.098 57.3516 282 57.3516C280.125 57.3516 278.584 56.8242 277.377 55.7695C276.182 54.7031 275.584 53.3555 275.584 51.7266C275.584 49.7461 276.334 48.2109 277.834 47.1211C279.346 46.0195 281.467 45.4688 284.197 45.4688H287.361V43.9746C287.361 42.8379 287.021 41.9355 286.342 41.2676C285.662 40.5879 284.66 40.248 283.336 40.248C282.176 40.248 281.203 40.541 280.418 41.127C279.633 41.7129 279.24 42.4219 279.24 43.2539H275.971C275.971 42.3047 276.305 41.3906 276.973 40.5117C277.652 39.6211 278.566 38.918 279.715 38.4023C280.875 37.8867 282.146 37.6289 283.529 37.6289C285.721 37.6289 287.438 38.1797 288.68 39.2812C289.922 40.3711 290.566 41.877 290.613 43.7988V52.5527C290.613 54.2988 290.836 55.6875 291.281 56.7188V57H287.871ZM282.475 54.5215C283.494 54.5215 284.461 54.2578 285.375 53.7305C286.289 53.2031 286.951 52.5176 287.361 51.6738V47.7715H284.812C280.828 47.7715 278.836 48.9375 278.836 51.2695C278.836 52.2891 279.176 53.0859 279.855 53.6602C280.535 54.2344 281.408 54.5215 282.475 54.5215Z" fill="white"/>
<path d="M305.73 57V40.4941H302.725V37.9805H305.73V36.3633C305.73 34.2422 306.334 32.5898 307.541 31.4062C308.76 30.2227 310.477 29.6309 312.691 29.6309C314.004 29.6309 315.662 29.9883 317.666 30.7031L317.121 33.4453C315.656 32.8594 314.262 32.5664 312.938 32.5664C311.543 32.5664 310.535 32.8828 309.914 33.5156C309.305 34.1367 309 35.0742 309 36.3281V37.9805H312.885V40.4941H309V57H305.73ZM319.283 57H316.014V37.9805H319.283V57Z" fill="white"/>
<path d="M332.467 57.3516C329.889 57.3516 327.791 56.5078 326.174 54.8203C324.557 53.1211 323.748 50.8535 323.748 48.0176V47.4199C323.748 45.5332 324.105 43.8516 324.82 42.375C325.547 40.8867 326.555 39.7266 327.844 38.8945C329.145 38.0508 330.551 37.6289 332.062 37.6289C334.535 37.6289 336.457 38.4434 337.828 40.0723C339.199 41.7012 339.885 44.0332 339.885 47.0684V48.4219H327C327.047 50.2969 327.592 51.8145 328.635 52.9746C329.689 54.123 331.025 54.6973 332.643 54.6973C333.791 54.6973 334.764 54.4629 335.561 53.9941C336.357 53.5254 337.055 52.9043 337.652 52.1309L339.639 53.6777C338.045 56.127 335.654 57.3516 332.467 57.3516ZM332.062 40.3008C330.75 40.3008 329.648 40.7812 328.758 41.7422C327.867 42.6914 327.316 44.0273 327.105 45.75H336.633V45.5039C336.539 43.8516 336.094 42.5742 335.297 41.6719C334.5 40.7578 333.422 40.3008 332.062 40.3008Z" fill="white"/>
<path d="M354.738 51.9551C354.738 51.0762 354.404 50.3965 353.736 49.916C353.08 49.4238 351.926 49.002 350.273 48.6504C348.633 48.2988 347.326 47.877 346.354 47.3848C345.393 46.8926 344.678 46.3066 344.209 45.627C343.752 44.9473 343.523 44.1387 343.523 43.2012C343.523 41.6426 344.18 40.3242 345.492 39.2461C346.816 38.168 348.504 37.6289 350.555 37.6289C352.711 37.6289 354.457 38.1855 355.793 39.2988C357.141 40.4121 357.814 41.8359 357.814 43.5703H354.545C354.545 42.6797 354.164 41.9121 353.402 41.2676C352.652 40.623 351.703 40.3008 350.555 40.3008C349.371 40.3008 348.445 40.5586 347.777 41.0742C347.109 41.5898 346.775 42.2637 346.775 43.0957C346.775 43.8809 347.086 44.4727 347.707 44.8711C348.328 45.2695 349.447 45.6504 351.064 46.0137C352.693 46.377 354.012 46.8105 355.02 47.3145C356.027 47.8184 356.771 48.4277 357.252 49.1426C357.744 49.8457 357.99 50.707 357.99 51.7266C357.99 53.4258 357.311 54.791 355.951 55.8223C354.592 56.8418 352.828 57.3516 350.66 57.3516C349.137 57.3516 347.789 57.082 346.617 56.543C345.445 56.0039 344.525 55.2539 343.857 54.293C343.201 53.3203 342.873 52.2715 342.873 51.1465H346.125C346.184 52.2363 346.617 53.1035 347.426 53.748C348.246 54.3809 349.324 54.6973 350.66 54.6973C351.891 54.6973 352.875 54.4512 353.613 53.959C354.363 53.4551 354.738 52.7871 354.738 51.9551Z" fill="white"/>
<path d="M366.639 33.375V37.9805H370.189V40.4941H366.639V52.2891C366.639 53.0508 366.797 53.625 367.113 54.0117C367.43 54.3867 367.969 54.5742 368.73 54.5742C369.105 54.5742 369.621 54.5039 370.277 54.3633V57C369.422 57.2344 368.59 57.3516 367.781 57.3516C366.328 57.3516 365.232 56.9121 364.494 56.0332C363.756 55.1543 363.387 53.9062 363.387 52.2891V40.4941H359.924V37.9805H363.387V33.375H366.639Z" fill="white"/>
<path d="M385.746 57C385.559 56.625 385.406 55.957 385.289 54.9961C383.777 56.5664 381.973 57.3516 379.875 57.3516C378 57.3516 376.459 56.8242 375.252 55.7695C374.057 54.7031 373.459 53.3555 373.459 51.7266C373.459 49.7461 374.209 48.2109 375.709 47.1211C377.221 46.0195 379.342 45.4688 382.072 45.4688H385.236V43.9746C385.236 42.8379 384.896 41.9355 384.217 41.2676C383.537 40.5879 382.535 40.248 381.211 40.248C380.051 40.248 379.078 40.541 378.293 41.127C377.508 41.7129 377.115 42.4219 377.115 43.2539H373.846C373.846 42.3047 374.18 41.3906 374.848 40.5117C375.527 39.6211 376.441 38.918 377.59 38.4023C378.75 37.8867 380.021 37.6289 381.404 37.6289C383.596 37.6289 385.312 38.1797 386.555 39.2812C387.797 40.3711 388.441 41.877 388.488 43.7988V52.5527C388.488 54.2988 388.711 55.6875 389.156 56.7188V57H385.746ZM380.35 54.5215C381.369 54.5215 382.336 54.2578 383.25 53.7305C384.164 53.2031 384.826 52.5176 385.236 51.6738V47.7715H382.688C378.703 47.7715 376.711 48.9375 376.711 51.2695C376.711 52.2891 377.051 53.0859 377.73 53.6602C378.41 54.2344 379.283 54.5215 380.35 54.5215Z" fill="white"/>
<path d="M413.59 51.9551C413.59 51.0762 413.256 50.3965 412.588 49.916C411.932 49.4238 410.777 49.002 409.125 48.6504C407.484 48.2988 406.178 47.877 405.205 47.3848C404.244 46.8926 403.529 46.3066 403.061 45.627C402.604 44.9473 402.375 44.1387 402.375 43.2012C402.375 41.6426 403.031 40.3242 404.344 39.2461C405.668 38.168 407.355 37.6289 409.406 37.6289C411.562 37.6289 413.309 38.1855 414.645 39.2988C415.992 40.4121 416.666 41.8359 416.666 43.5703H413.396C413.396 42.6797 413.016 41.9121 412.254 41.2676C411.504 40.623 410.555 40.3008 409.406 40.3008C408.223 40.3008 407.297 40.5586 406.629 41.0742C405.961 41.5898 405.627 42.2637 405.627 43.0957C405.627 43.8809 405.938 44.4727 406.559 44.8711C407.18 45.2695 408.299 45.6504 409.916 46.0137C411.545 46.377 412.863 46.8105 413.871 47.3145C414.879 47.8184 415.623 48.4277 416.104 49.1426C416.596 49.8457 416.842 50.707 416.842 51.7266C416.842 53.4258 416.162 54.791 414.803 55.8223C413.443 56.8418 411.68 57.3516 409.512 57.3516C407.988 57.3516 406.641 57.082 405.469 56.543C404.297 56.0039 403.377 55.2539 402.709 54.293C402.053 53.3203 401.725 52.2715 401.725 51.1465H404.977C405.035 52.2363 405.469 53.1035 406.277 53.748C407.098 54.3809 408.176 54.6973 409.512 54.6973C410.742 54.6973 411.727 54.4512 412.465 53.959C413.215 53.4551 413.59 52.7871 413.59 51.9551Z" fill="white"/>
<path d="M428.971 57.3516C426.393 57.3516 424.295 56.5078 422.678 54.8203C421.061 53.1211 420.252 50.8535 420.252 48.0176V47.4199C420.252 45.5332 420.609 43.8516 421.324 42.375C422.051 40.8867 423.059 39.7266 424.348 38.8945C425.648 38.0508 427.055 37.6289 428.566 37.6289C431.039 37.6289 432.961 38.4434 434.332 40.0723C435.703 41.7012 436.389 44.0332 436.389 47.0684V48.4219H423.504C423.551 50.2969 424.096 51.8145 425.139 52.9746C426.193 54.123 427.529 54.6973 429.146 54.6973C430.295 54.6973 431.268 54.4629 432.064 53.9941C432.861 53.5254 433.559 52.9043 434.156 52.1309L436.143 53.6777C434.549 56.127 432.158 57.3516 428.971 57.3516ZM428.566 40.3008C427.254 40.3008 426.152 40.7812 425.262 41.7422C424.371 42.6914 423.82 44.0273 423.609 45.75H433.137V45.5039C433.043 43.8516 432.598 42.5742 431.801 41.6719C431.004 40.7578 429.926 40.3008 428.566 40.3008Z" fill="white"/>
<path d="M456.99 57.3516C454.412 57.3516 452.314 56.5078 450.697 54.8203C449.08 53.1211 448.271 50.8535 448.271 48.0176V47.4199C448.271 45.5332 448.629 43.8516 449.344 42.375C450.07 40.8867 451.078 39.7266 452.367 38.8945C453.668 38.0508 455.074 37.6289 456.586 37.6289C459.059 37.6289 460.98 38.4434 462.352 40.0723C463.723 41.7012 464.408 44.0332 464.408 47.0684V48.4219H451.523C451.57 50.2969 452.115 51.8145 453.158 52.9746C454.213 54.123 455.549 54.6973 457.166 54.6973C458.314 54.6973 459.287 54.4629 460.084 53.9941C460.881 53.5254 461.578 52.9043 462.176 52.1309L464.162 53.6777C462.568 56.127 460.178 57.3516 456.99 57.3516ZM456.586 40.3008C455.273 40.3008 454.172 40.7812 453.281 41.7422C452.391 42.6914 451.84 44.0273 451.629 45.75H461.156V45.5039C461.062 43.8516 460.617 42.5742 459.82 41.6719C459.023 40.7578 457.945 40.3008 456.586 40.3008Z" fill="white"/>
<path d="M471.264 37.9805L471.369 40.3711C472.822 38.543 474.721 37.6289 477.064 37.6289C481.084 37.6289 483.111 39.8965 483.146 44.4316V57H479.895V44.4141C479.883 43.043 479.566 42.0293 478.945 41.373C478.336 40.7168 477.381 40.3887 476.08 40.3887C475.025 40.3887 474.1 40.6699 473.303 41.2324C472.506 41.7949 471.885 42.5332 471.439 43.4473V57H468.188V37.9805H471.264Z" fill="white"/>
<path d="M495.68 54.6973C496.84 54.6973 497.854 54.3457 498.721 53.6426C499.588 52.9395 500.068 52.0605 500.162 51.0059H503.238C503.18 52.0957 502.805 53.1328 502.113 54.1172C501.422 55.1016 500.496 55.8867 499.336 56.4727C498.188 57.0586 496.969 57.3516 495.68 57.3516C493.09 57.3516 491.027 56.4902 489.492 54.7676C487.969 53.0332 487.207 50.666 487.207 47.666V47.1211C487.207 45.2695 487.547 43.623 488.227 42.1816C488.906 40.7402 489.879 39.6211 491.145 38.8242C492.422 38.0273 493.928 37.6289 495.662 37.6289C497.795 37.6289 499.564 38.2676 500.971 39.5449C502.389 40.8223 503.145 42.4805 503.238 44.5195H500.162C500.068 43.2891 499.6 42.2812 498.756 41.4961C497.924 40.6992 496.893 40.3008 495.662 40.3008C494.01 40.3008 492.727 40.8984 491.812 42.0938C490.91 43.2773 490.459 44.9941 490.459 47.2441V47.8594C490.459 50.0508 490.91 51.7383 491.812 52.9219C492.715 54.1055 494.004 54.6973 495.68 54.6973Z" fill="white"/>
<path d="M518.637 55.1191C517.371 56.6074 515.514 57.3516 513.064 57.3516C511.037 57.3516 509.49 56.7656 508.424 55.5938C507.369 54.4102 506.836 52.6641 506.824 50.3555V37.9805H510.076V50.2676C510.076 53.1504 511.248 54.5918 513.592 54.5918C516.076 54.5918 517.729 53.666 518.549 51.8145V37.9805H521.801V57H518.707L518.637 55.1191Z" fill="white"/>
<path d="M534.65 57.3516C532.072 57.3516 529.975 56.5078 528.357 54.8203C526.74 53.1211 525.932 50.8535 525.932 48.0176V47.4199C525.932 45.5332 526.289 43.8516 527.004 42.375C527.73 40.8867 528.738 39.7266 530.027 38.8945C531.328 38.0508 532.734 37.6289 534.246 37.6289C536.719 37.6289 538.641 38.4434 540.012 40.0723C541.383 41.7012 542.068 44.0332 542.068 47.0684V48.4219H529.184C529.23 50.2969 529.775 51.8145 530.818 52.9746C531.873 54.123 533.209 54.6973 534.826 54.6973C535.975 54.6973 536.947 54.4629 537.744 53.9941C538.541 53.5254 539.238 52.9043 539.836 52.1309L541.822 53.6777C540.229 56.127 537.838 57.3516 534.65 57.3516ZM534.246 40.3008C532.934 40.3008 531.832 40.7812 530.941 41.7422C530.051 42.6914 529.5 44.0273 529.289 45.75H538.816V45.5039C538.723 43.8516 538.277 42.5742 537.48 41.6719C536.684 40.7578 535.605 40.3008 534.246 40.3008Z" fill="white"/>
<path d="M548.924 37.9805L549.029 40.3711C550.482 38.543 552.381 37.6289 554.725 37.6289C558.744 37.6289 560.771 39.8965 560.807 44.4316V57H557.555V44.4141C557.543 43.043 557.227 42.0293 556.605 41.373C555.996 40.7168 555.041 40.3887 553.74 40.3887C552.686 40.3887 551.76 40.6699 550.963 41.2324C550.166 41.7949 549.545 42.5332 549.1 43.4473V57H545.848V37.9805H548.924Z" fill="white"/>
<path d="M570.123 33.375V37.9805H573.674V40.4941H570.123V52.2891C570.123 53.0508 570.281 53.625 570.598 54.0117C570.914 54.3867 571.453 54.5742 572.215 54.5742C572.59 54.5742 573.105 54.5039 573.762 54.3633V57C572.906 57.2344 572.074 57.3516 571.266 57.3516C569.812 57.3516 568.717 56.9121 567.979 56.0332C567.24 55.1543 566.871 53.9062 566.871 52.2891V40.4941H563.408V37.9805H566.871V33.375H570.123Z" fill="white"/>
<path d="M586.682 40.8984C586.189 40.8164 585.656 40.7754 585.082 40.7754C582.949 40.7754 581.502 41.6836 580.74 43.5V57H577.488V37.9805H580.652L580.705 40.1777C581.771 38.4785 583.283 37.6289 585.24 37.6289C585.873 37.6289 586.354 37.7109 586.682 37.875V40.8984Z" fill="white"/>
<path d="M600.727 57C600.539 56.625 600.387 55.957 600.27 54.9961C598.758 56.5664 596.953 57.3516 594.855 57.3516C592.98 57.3516 591.439 56.8242 590.232 55.7695C589.037 54.7031 588.439 53.3555 588.439 51.7266C588.439 49.7461 589.189 48.2109 590.689 47.1211C592.201 46.0195 594.322 45.4688 597.053 45.4688H600.217V43.9746C600.217 42.8379 599.877 41.9355 599.197 41.2676C598.518 40.5879 597.516 40.248 596.191 40.248C595.031 40.248 594.059 40.541 593.273 41.127C592.488 41.7129 592.096 42.4219 592.096 43.2539H588.826C588.826 42.3047 589.16 41.3906 589.828 40.5117C590.508 39.6211 591.422 38.918 592.57 38.4023C593.73 37.8867 595.002 37.6289 596.385 37.6289C598.576 37.6289 600.293 38.1797 601.535 39.2812C602.777 40.3711 603.422 41.877 603.469 43.7988V52.5527C603.469 54.2988 603.691 55.6875 604.137 56.7188V57H600.727ZM595.33 54.5215C596.35 54.5215 597.316 54.2578 598.23 53.7305C599.145 53.2031 599.807 52.5176 600.217 51.6738V47.7715H597.668C593.684 47.7715 591.691 48.9375 591.691 51.2695C591.691 52.2891 592.031 53.0859 592.711 53.6602C593.391 54.2344 594.264 54.5215 595.33 54.5215Z" fill="white"/>
<path d="M611.643 37.9805L611.748 40.3711C613.201 38.543 615.1 37.6289 617.443 37.6289C621.463 37.6289 623.49 39.8965 623.525 44.4316V57H620.273V44.4141C620.262 43.043 619.945 42.0293 619.324 41.373C618.715 40.7168 617.76 40.3887 616.459 40.3887C615.404 40.3887 614.479 40.6699 613.682 41.2324C612.885 41.7949 612.264 42.5332 611.818 43.4473V57H608.566V37.9805H611.643Z" fill="white"/>
<path d="M647.713 57H644.443V35.3262L637.887 37.7344V34.7812L647.203 31.2832H647.713V57Z" fill="white"/>
<path d="M673.289 46.084C673.289 49.8926 672.639 52.7227 671.338 54.5742C670.037 56.4258 668.004 57.3516 665.238 57.3516C662.508 57.3516 660.486 56.4492 659.174 54.6445C657.861 52.8281 657.182 50.1211 657.135 46.5234V42.1816C657.135 38.4199 657.785 35.625 659.086 33.7969C660.387 31.9688 662.426 31.0547 665.203 31.0547C667.957 31.0547 669.984 31.9395 671.285 33.709C672.586 35.4668 673.254 38.1855 673.289 41.8652V46.084ZM670.037 41.6367C670.037 38.8828 669.65 36.8789 668.877 35.625C668.104 34.3594 666.879 33.7266 665.203 33.7266C663.539 33.7266 662.326 34.3535 661.564 35.6074C660.803 36.8613 660.41 38.7891 660.387 41.3906V46.5938C660.387 49.3594 660.785 51.4043 661.582 52.7285C662.391 54.041 663.609 54.6973 665.238 54.6973C666.844 54.6973 668.033 54.0762 668.807 52.834C669.592 51.5918 670.002 49.6348 670.037 46.9629V41.6367Z" fill="white"/>
<path d="M702.785 47.7012C702.785 50.5957 702.123 52.9277 700.799 54.6973C699.475 56.4668 697.682 57.3516 695.42 57.3516C693.111 57.3516 691.295 56.6191 689.971 55.1543V64.3125H686.719V37.9805H689.689L689.848 40.0898C691.172 38.4492 693.012 37.6289 695.367 37.6289C697.652 37.6289 699.457 38.4902 700.781 40.2129C702.117 41.9355 702.785 44.332 702.785 47.4023V47.7012ZM699.533 47.332C699.533 45.1875 699.076 43.4941 698.162 42.252C697.248 41.0098 695.994 40.3887 694.4 40.3887C692.432 40.3887 690.955 41.2617 689.971 43.0078V52.0957C690.943 53.8301 692.432 54.6973 694.436 54.6973C695.994 54.6973 697.23 54.082 698.145 52.8516C699.07 51.6094 699.533 49.7695 699.533 47.332Z" fill="white"/>
<path d="M718.676 57C718.488 56.625 718.336 55.957 718.219 54.9961C716.707 56.5664 714.902 57.3516 712.805 57.3516C710.93 57.3516 709.389 56.8242 708.182 55.7695C706.986 54.7031 706.389 53.3555 706.389 51.7266C706.389 49.7461 707.139 48.2109 708.639 47.1211C710.15 46.0195 712.271 45.4688 715.002 45.4688H718.166V43.9746C718.166 42.8379 717.826 41.9355 717.146 41.2676C716.467 40.5879 715.465 40.248 714.141 40.248C712.98 40.248 712.008 40.541 711.223 41.127C710.438 41.7129 710.045 42.4219 710.045 43.2539H706.775C706.775 42.3047 707.109 41.3906 707.777 40.5117C708.457 39.6211 709.371 38.918 710.52 38.4023C711.68 37.8867 712.951 37.6289 714.334 37.6289C716.525 37.6289 718.242 38.1797 719.484 39.2812C720.727 40.3711 721.371 41.877 721.418 43.7988V52.5527C721.418 54.2988 721.641 55.6875 722.086 56.7188V57H718.676ZM713.279 54.5215C714.299 54.5215 715.266 54.2578 716.18 53.7305C717.094 53.2031 717.756 52.5176 718.166 51.6738V47.7715H715.617C711.633 47.7715 709.641 48.9375 709.641 51.2695C709.641 52.2891 709.98 53.0859 710.66 53.6602C711.34 54.2344 712.213 54.5215 713.279 54.5215Z" fill="white"/>
<path d="M735.709 40.8984C735.217 40.8164 734.684 40.7754 734.109 40.7754C731.977 40.7754 730.529 41.6836 729.768 43.5V57H726.516V37.9805H729.68L729.732 40.1777C730.799 38.4785 732.311 37.6289 734.268 37.6289C734.9 37.6289 735.381 37.7109 735.709 37.875V40.8984Z" fill="white"/>
<path d="M746.256 57.3516C743.678 57.3516 741.58 56.5078 739.963 54.8203C738.346 53.1211 737.537 50.8535 737.537 48.0176V47.4199C737.537 45.5332 737.895 43.8516 738.609 42.375C739.336 40.8867 740.344 39.7266 741.633 38.8945C742.934 38.0508 744.34 37.6289 745.852 37.6289C748.324 37.6289 750.246 38.4434 751.617 40.0723C752.988 41.7012 753.674 44.0332 753.674 47.0684V48.4219H740.789C740.836 50.2969 741.381 51.8145 742.424 52.9746C743.479 54.123 744.814 54.6973 746.432 54.6973C747.58 54.6973 748.553 54.4629 749.35 53.9941C750.146 53.5254 750.844 52.9043 751.441 52.1309L753.428 53.6777C751.834 56.127 749.443 57.3516 746.256 57.3516ZM745.852 40.3008C744.539 40.3008 743.438 40.7812 742.547 41.7422C741.656 42.6914 741.105 44.0273 740.895 45.75H750.422V45.5039C750.328 43.8516 749.883 42.5742 749.086 41.6719C748.289 40.7578 747.211 40.3008 745.852 40.3008Z" fill="white"/>
<path d="M760.811 37.9805V59.1973C760.811 62.8535 759.152 64.6816 755.836 64.6816C755.121 64.6816 754.459 64.5762 753.85 64.3652V61.7637C754.225 61.8574 754.717 61.9043 755.326 61.9043C756.053 61.9043 756.604 61.7051 756.979 61.3066C757.365 60.9199 757.559 60.2402 757.559 59.2676V37.9805H760.811ZM757.225 32.9355C757.225 32.4199 757.383 31.9805 757.699 31.6172C758.027 31.2422 758.502 31.0547 759.123 31.0547C759.756 31.0547 760.236 31.2363 760.564 31.5996C760.893 31.9629 761.057 32.4082 761.057 32.9355C761.057 33.4629 760.893 33.9023 760.564 34.2539C760.236 34.6055 759.756 34.7812 759.123 34.7812C758.49 34.7812 758.016 34.6055 757.699 34.2539C757.383 33.9023 757.225 33.4629 757.225 32.9355Z" fill="white"/>
<path d="M777.809 57C777.621 56.625 777.469 55.957 777.352 54.9961C775.84 56.5664 774.035 57.3516 771.938 57.3516C770.062 57.3516 768.521 56.8242 767.314 55.7695C766.119 54.7031 765.521 53.3555 765.521 51.7266C765.521 49.7461 766.271 48.2109 767.771 47.1211C769.283 46.0195 771.404 45.4688 774.135 45.4688H777.299V43.9746C777.299 42.8379 776.959 41.9355 776.279 41.2676C775.6 40.5879 774.598 40.248 773.273 40.248C772.113 40.248 771.141 40.541 770.355 41.127C769.57 41.7129 769.178 42.4219 769.178 43.2539H765.908C765.908 42.3047 766.242 41.3906 766.91 40.5117C767.59 39.6211 768.504 38.918 769.652 38.4023C770.812 37.8867 772.084 37.6289 773.467 37.6289C775.658 37.6289 777.375 38.1797 778.617 39.2812C779.859 40.3711 780.504 41.877 780.551 43.7988V52.5527C780.551 54.2988 780.773 55.6875 781.219 56.7188V57H777.809ZM772.412 54.5215C773.432 54.5215 774.398 54.2578 775.312 53.7305C776.227 53.2031 776.889 52.5176 777.299 51.6738V47.7715H774.75C770.766 47.7715 768.773 48.9375 768.773 51.2695C768.773 52.2891 769.113 53.0859 769.793 53.6602C770.473 54.2344 771.346 54.5215 772.412 54.5215Z" fill="white"/>
<path d="M796.723 51.9551C796.723 51.0762 796.389 50.3965 795.721 49.916C795.064 49.4238 793.91 49.002 792.258 48.6504C790.617 48.2988 789.311 47.877 788.338 47.3848C787.377 46.8926 786.662 46.3066 786.193 45.627C785.736 44.9473 785.508 44.1387 785.508 43.2012C785.508 41.6426 786.164 40.3242 787.477 39.2461C788.801 38.168 790.488 37.6289 792.539 37.6289C794.695 37.6289 796.441 38.1855 797.777 39.2988C799.125 40.4121 799.799 41.8359 799.799 43.5703H796.529C796.529 42.6797 796.148 41.9121 795.387 41.2676C794.637 40.623 793.688 40.3008 792.539 40.3008C791.355 40.3008 790.43 40.5586 789.762 41.0742C789.094 41.5898 788.76 42.2637 788.76 43.0957C788.76 43.8809 789.07 44.4727 789.691 44.8711C790.312 45.2695 791.432 45.6504 793.049 46.0137C794.678 46.377 795.996 46.8105 797.004 47.3145C798.012 47.8184 798.756 48.4277 799.236 49.1426C799.729 49.8457 799.975 50.707 799.975 51.7266C799.975 53.4258 799.295 54.791 797.936 55.8223C796.576 56.8418 794.812 57.3516 792.645 57.3516C791.121 57.3516 789.773 57.082 788.602 56.543C787.43 56.0039 786.51 55.2539 785.842 54.293C785.186 53.3203 784.857 52.2715 784.857 51.1465H788.109C788.168 52.2363 788.602 53.1035 789.41 53.748C790.23 54.3809 791.309 54.6973 792.645 54.6973C793.875 54.6973 794.859 54.4512 795.598 53.959C796.348 53.4551 796.723 52.7871 796.723 51.9551Z" fill="white"/>
<path d="M812.35 47.332C812.35 44.4141 813.041 42.0703 814.424 40.3008C815.807 38.5195 817.617 37.6289 819.855 37.6289C822.082 37.6289 823.846 38.3906 825.146 39.9141V30H828.398V57H825.41L825.252 54.9609C823.951 56.5547 822.141 57.3516 819.82 57.3516C817.617 57.3516 815.818 56.4492 814.424 54.6445C813.041 52.8398 812.35 50.4844 812.35 47.5781V47.332ZM815.602 47.7012C815.602 49.8574 816.047 51.5449 816.938 52.7637C817.828 53.9824 819.059 54.5918 820.629 54.5918C822.691 54.5918 824.197 53.666 825.146 51.8145V43.0781C824.174 41.2852 822.68 40.3887 820.664 40.3887C819.07 40.3887 817.828 41.0039 816.938 42.2344C816.047 43.4648 815.602 45.2871 815.602 47.7012Z" fill="white"/>
<path d="M841.354 57.3516C838.775 57.3516 836.678 56.5078 835.061 54.8203C833.443 53.1211 832.635 50.8535 832.635 48.0176V47.4199C832.635 45.5332 832.992 43.8516 833.707 42.375C834.434 40.8867 835.441 39.7266 836.73 38.8945C838.031 38.0508 839.438 37.6289 840.949 37.6289C843.422 37.6289 845.344 38.4434 846.715 40.0723C848.086 41.7012 848.771 44.0332 848.771 47.0684V48.4219H835.887C835.934 50.2969 836.479 51.8145 837.521 52.9746C838.576 54.123 839.912 54.6973 841.529 54.6973C842.678 54.6973 843.65 54.4629 844.447 53.9941C845.244 53.5254 845.941 52.9043 846.539 52.1309L848.525 53.6777C846.932 56.127 844.541 57.3516 841.354 57.3516ZM840.949 40.3008C839.637 40.3008 838.535 40.7812 837.645 41.7422C836.754 42.6914 836.203 44.0273 835.992 45.75H845.52V45.5039C845.426 43.8516 844.98 42.5742 844.184 41.6719C843.387 40.7578 842.309 40.3008 840.949 40.3008Z" fill="white"/>
<path d="M157.354 97.3516C154.775 97.3516 152.678 96.5078 151.061 94.8203C149.443 93.1211 148.635 90.8535 148.635 88.0176V87.4199C148.635 85.5332 148.992 83.8516 149.707 82.375C150.434 80.8867 151.441 79.7266 152.73 78.8945C154.031 78.0508 155.438 77.6289 156.949 77.6289C159.422 77.6289 161.344 78.4434 162.715 80.0723C164.086 81.7012 164.771 84.0332 164.771 87.0684V88.4219H151.887C151.934 90.2969 152.479 91.8145 153.521 92.9746C154.576 94.123 155.912 94.6973 157.529 94.6973C158.678 94.6973 159.65 94.4629 160.447 93.9941C161.244 93.5254 161.941 92.9043 162.539 92.1309L164.525 93.6777C162.932 96.127 160.541 97.3516 157.354 97.3516ZM156.949 80.3008C155.637 80.3008 154.535 80.7812 153.645 81.7422C152.754 82.6914 152.203 84.0273 151.992 85.75H161.52V85.5039C161.426 83.8516 160.98 82.5742 160.184 81.6719C159.387 80.7578 158.309 80.3008 156.949 80.3008Z" fill="white"/>
<path d="M179.625 91.9551C179.625 91.0762 179.291 90.3965 178.623 89.916C177.967 89.4238 176.812 89.002 175.16 88.6504C173.52 88.2988 172.213 87.877 171.24 87.3848C170.279 86.8926 169.564 86.3066 169.096 85.627C168.639 84.9473 168.41 84.1387 168.41 83.2012C168.41 81.6426 169.066 80.3242 170.379 79.2461C171.703 78.168 173.391 77.6289 175.441 77.6289C177.598 77.6289 179.344 78.1855 180.68 79.2988C182.027 80.4121 182.701 81.8359 182.701 83.5703H179.432C179.432 82.6797 179.051 81.9121 178.289 81.2676C177.539 80.623 176.59 80.3008 175.441 80.3008C174.258 80.3008 173.332 80.5586 172.664 81.0742C171.996 81.5898 171.662 82.2637 171.662 83.0957C171.662 83.8809 171.973 84.4727 172.594 84.8711C173.215 85.2695 174.334 85.6504 175.951 86.0137C177.58 86.377 178.898 86.8105 179.906 87.3145C180.914 87.8184 181.658 88.4277 182.139 89.1426C182.631 89.8457 182.877 90.707 182.877 91.7266C182.877 93.4258 182.197 94.791 180.838 95.8223C179.479 96.8418 177.715 97.3516 175.547 97.3516C174.023 97.3516 172.676 97.082 171.504 96.543C170.332 96.0039 169.412 95.2539 168.744 94.293C168.088 93.3203 167.76 92.2715 167.76 91.1465H171.012C171.07 92.2363 171.504 93.1035 172.312 93.748C173.133 94.3809 174.211 94.6973 175.547 94.6973C176.777 94.6973 177.762 94.4512 178.5 93.959C179.25 93.4551 179.625 92.7871 179.625 91.9551Z" fill="white"/>
<path d="M203.18 87.7012C203.18 90.5957 202.518 92.9277 201.193 94.6973C199.869 96.4668 198.076 97.3516 195.814 97.3516C193.506 97.3516 191.689 96.6191 190.365 95.1543V104.312H187.113V77.9805H190.084L190.242 80.0898C191.566 78.4492 193.406 77.6289 195.762 77.6289C198.047 77.6289 199.852 78.4902 201.176 80.2129C202.512 81.9355 203.18 84.332 203.18 87.4023V87.7012ZM199.928 87.332C199.928 85.1875 199.471 83.4941 198.557 82.252C197.643 81.0098 196.389 80.3887 194.795 80.3887C192.826 80.3887 191.35 81.2617 190.365 83.0078V92.0957C191.338 93.8301 192.826 94.6973 194.83 94.6973C196.389 94.6973 197.625 94.082 198.539 92.8516C199.465 91.6094 199.928 89.7695 199.928 87.332Z" fill="white"/>
<path d="M206.467 87.3145C206.467 85.4512 206.83 83.7754 207.557 82.2871C208.295 80.7988 209.314 79.6504 210.615 78.8418C211.928 78.0332 213.422 77.6289 215.098 77.6289C217.688 77.6289 219.779 78.5254 221.373 80.3184C222.979 82.1113 223.781 84.4961 223.781 87.4727V87.7012C223.781 89.5527 223.424 91.2168 222.709 92.6934C222.006 94.1582 220.992 95.3008 219.668 96.1211C218.355 96.9414 216.844 97.3516 215.133 97.3516C212.555 97.3516 210.463 96.4551 208.857 94.6621C207.264 92.8691 206.467 90.4961 206.467 87.543V87.3145ZM209.736 87.7012C209.736 89.8105 210.223 91.5039 211.195 92.7812C212.18 94.0586 213.492 94.6973 215.133 94.6973C216.785 94.6973 218.098 94.0527 219.07 92.7637C220.043 91.4629 220.529 89.6465 220.529 87.3145C220.529 85.2285 220.031 83.541 219.035 82.252C218.051 80.9512 216.738 80.3008 215.098 80.3008C213.492 80.3008 212.197 80.9395 211.213 82.2168C210.229 83.4941 209.736 85.3223 209.736 87.7012Z" fill="white"/>
<path d="M238.934 91.9551C238.934 91.0762 238.6 90.3965 237.932 89.916C237.275 89.4238 236.121 89.002 234.469 88.6504C232.828 88.2988 231.521 87.877 230.549 87.3848C229.588 86.8926 228.873 86.3066 228.404 85.627C227.947 84.9473 227.719 84.1387 227.719 83.2012C227.719 81.6426 228.375 80.3242 229.688 79.2461C231.012 78.168 232.699 77.6289 234.75 77.6289C236.906 77.6289 238.652 78.1855 239.988 79.2988C241.336 80.4121 242.01 81.8359 242.01 83.5703H238.74C238.74 82.6797 238.359 81.9121 237.598 81.2676C236.848 80.623 235.898 80.3008 234.75 80.3008C233.566 80.3008 232.641 80.5586 231.973 81.0742C231.305 81.5898 230.971 82.2637 230.971 83.0957C230.971 83.8809 231.281 84.4727 231.902 84.8711C232.523 85.2695 233.643 85.6504 235.26 86.0137C236.889 86.377 238.207 86.8105 239.215 87.3145C240.223 87.8184 240.967 88.4277 241.447 89.1426C241.939 89.8457 242.186 90.707 242.186 91.7266C242.186 93.4258 241.506 94.791 240.146 95.8223C238.787 96.8418 237.023 97.3516 234.855 97.3516C233.332 97.3516 231.984 97.082 230.812 96.543C229.641 96.0039 228.721 95.2539 228.053 94.293C227.396 93.3203 227.068 92.2715 227.068 91.1465H230.32C230.379 92.2363 230.812 93.1035 231.621 93.748C232.441 94.3809 233.52 94.6973 234.855 94.6973C236.086 94.6973 237.07 94.4512 237.809 93.959C238.559 93.4551 238.934 92.7871 238.934 91.9551Z" fill="white"/>
<path d="M245.561 87.3145C245.561 85.4512 245.924 83.7754 246.65 82.2871C247.389 80.7988 248.408 79.6504 249.709 78.8418C251.021 78.0332 252.516 77.6289 254.191 77.6289C256.781 77.6289 258.873 78.5254 260.467 80.3184C262.072 82.1113 262.875 84.4961 262.875 87.4727V87.7012C262.875 89.5527 262.518 91.2168 261.803 92.6934C261.1 94.1582 260.086 95.3008 258.762 96.1211C257.449 96.9414 255.938 97.3516 254.227 97.3516C251.648 97.3516 249.557 96.4551 247.951 94.6621C246.357 92.8691 245.561 90.4961 245.561 87.543V87.3145ZM248.83 87.7012C248.83 89.8105 249.316 91.5039 250.289 92.7812C251.273 94.0586 252.586 94.6973 254.227 94.6973C255.879 94.6973 257.191 94.0527 258.164 92.7637C259.137 91.4629 259.623 89.6465 259.623 87.3145C259.623 85.2285 259.125 83.541 258.129 82.252C257.145 80.9512 255.832 80.3008 254.191 80.3008C252.586 80.3008 251.291 80.9395 250.307 82.2168C249.322 83.4941 248.83 85.3223 248.83 87.7012Z" fill="white"/>
<path d="M278.027 91.9551C278.027 91.0762 277.693 90.3965 277.025 89.916C276.369 89.4238 275.215 89.002 273.562 88.6504C271.922 88.2988 270.615 87.877 269.643 87.3848C268.682 86.8926 267.967 86.3066 267.498 85.627C267.041 84.9473 266.812 84.1387 266.812 83.2012C266.812 81.6426 267.469 80.3242 268.781 79.2461C270.105 78.168 271.793 77.6289 273.844 77.6289C276 77.6289 277.746 78.1855 279.082 79.2988C280.43 80.4121 281.104 81.8359 281.104 83.5703H277.834C277.834 82.6797 277.453 81.9121 276.691 81.2676C275.941 80.623 274.992 80.3008 273.844 80.3008C272.66 80.3008 271.734 80.5586 271.066 81.0742C270.398 81.5898 270.064 82.2637 270.064 83.0957C270.064 83.8809 270.375 84.4727 270.996 84.8711C271.617 85.2695 272.736 85.6504 274.354 86.0137C275.982 86.377 277.301 86.8105 278.309 87.3145C279.316 87.8184 280.061 88.4277 280.541 89.1426C281.033 89.8457 281.279 90.707 281.279 91.7266C281.279 93.4258 280.6 94.791 279.24 95.8223C277.881 96.8418 276.117 97.3516 273.949 97.3516C272.426 97.3516 271.078 97.082 269.906 96.543C268.734 96.0039 267.814 95.2539 267.146 94.293C266.49 93.3203 266.162 92.2715 266.162 91.1465H269.414C269.473 92.2363 269.906 93.1035 270.715 93.748C271.535 94.3809 272.613 94.6973 273.949 94.6973C275.18 94.6973 276.164 94.4512 276.902 93.959C277.652 93.4551 278.027 92.7871 278.027 91.9551Z" fill="white"/>
<path d="M285.41 102.098L283.564 100.832C284.666 99.2969 285.24 97.7148 285.287 96.0859V93.1504H288.469V95.6992C288.469 96.8828 288.176 98.0664 287.59 99.25C287.016 100.434 286.289 101.383 285.41 102.098Z" fill="white"/>
<path d="M309.387 85.0469C309.375 86.2891 309.246 87.2852 309 88.0352C308.766 88.7734 308.367 89.4883 307.805 90.1797C307.242 90.8711 306.422 91.7852 305.344 92.9219C304.266 94.0469 303.662 95.1895 303.533 96.3496L303.498 97C303.498 98.2773 303.838 99.25 304.518 99.918C305.197 100.598 306.176 100.938 307.453 100.938C308.625 100.938 309.574 100.604 310.301 99.9355C311.039 99.2793 311.408 98.418 311.408 97.3516H314.66C314.637 99.2383 313.963 100.779 312.639 101.975C311.326 103.17 309.598 103.768 307.453 103.768C305.156 103.768 303.381 103.176 302.127 101.992C300.873 100.82 300.246 99.1855 300.246 97.0879C300.246 95.0605 301.184 93.0215 303.059 90.9707L304.975 88.9844C305.748 88.0703 306.135 86.7578 306.135 85.0469H309.387ZM309.527 79.4746C309.527 80.002 309.363 80.4473 309.035 80.8105C308.719 81.1738 308.244 81.3555 307.611 81.3555C306.979 81.3555 306.498 81.1738 306.17 80.8105C305.842 80.4473 305.678 80.002 305.678 79.4746C305.678 78.959 305.842 78.5254 306.17 78.1738C306.498 77.8223 306.979 77.6465 307.611 77.6465C308.244 77.6465 308.719 77.8223 309.035 78.1738C309.363 78.5254 309.527 78.959 309.527 79.4746Z" fill="white"/>
<path d="M326.191 94.6973C327.352 94.6973 328.365 94.3457 329.232 93.6426C330.1 92.9395 330.58 92.0605 330.674 91.0059H333.75C333.691 92.0957 333.316 93.1328 332.625 94.1172C331.934 95.1016 331.008 95.8867 329.848 96.4727C328.699 97.0586 327.48 97.3516 326.191 97.3516C323.602 97.3516 321.539 96.4902 320.004 94.7676C318.48 93.0332 317.719 90.666 317.719 87.666V87.1211C317.719 85.2695 318.059 83.623 318.738 82.1816C319.418 80.7402 320.391 79.6211 321.656 78.8242C322.934 78.0273 324.439 77.6289 326.174 77.6289C328.307 77.6289 330.076 78.2676 331.482 79.5449C332.9 80.8223 333.656 82.4805 333.75 84.5195H330.674C330.58 83.2891 330.111 82.2812 329.268 81.4961C328.436 80.6992 327.404 80.3008 326.174 80.3008C324.521 80.3008 323.238 80.8984 322.324 82.0938C321.422 83.2773 320.971 84.9941 320.971 87.2441V87.8594C320.971 90.0508 321.422 91.7383 322.324 92.9219C323.227 94.1055 324.516 94.6973 326.191 94.6973Z" fill="white"/>
<path d="M349.148 95.1191C347.883 96.6074 346.025 97.3516 343.576 97.3516C341.549 97.3516 340.002 96.7656 338.936 95.5938C337.881 94.4102 337.348 92.6641 337.336 90.3555V77.9805H340.588V90.2676C340.588 93.1504 341.76 94.5918 344.104 94.5918C346.588 94.5918 348.24 93.666 349.061 91.8145V77.9805H352.312V97H349.219L349.148 95.1191Z" fill="white"/>
<path d="M369.012 97C368.824 96.625 368.672 95.957 368.555 94.9961C367.043 96.5664 365.238 97.3516 363.141 97.3516C361.266 97.3516 359.725 96.8242 358.518 95.7695C357.322 94.7031 356.725 93.3555 356.725 91.7266C356.725 89.7461 357.475 88.2109 358.975 87.1211C360.486 86.0195 362.607 85.4688 365.338 85.4688H368.502V83.9746C368.502 82.8379 368.162 81.9355 367.482 81.2676C366.803 80.5879 365.801 80.248 364.477 80.248C363.316 80.248 362.344 80.541 361.559 81.127C360.773 81.7129 360.381 82.4219 360.381 83.2539H357.111C357.111 82.3047 357.445 81.3906 358.113 80.5117C358.793 79.6211 359.707 78.918 360.855 78.4023C362.016 77.8867 363.287 77.6289 364.67 77.6289C366.861 77.6289 368.578 78.1797 369.82 79.2812C371.062 80.3711 371.707 81.877 371.754 83.7988V92.5527C371.754 94.2988 371.977 95.6875 372.422 96.7188V97H369.012ZM363.615 94.5215C364.635 94.5215 365.602 94.2578 366.516 93.7305C367.43 93.2031 368.092 92.5176 368.502 91.6738V87.7715H365.953C361.969 87.7715 359.977 88.9375 359.977 91.2695C359.977 92.2891 360.316 93.0859 360.996 93.6602C361.676 94.2344 362.549 94.5215 363.615 94.5215ZM366.621 70H370.559L365.848 75.168H363.229L366.621 70Z" fill="white"/>
<path d="M379.928 77.9805L380.033 80.3711C381.486 78.543 383.385 77.6289 385.729 77.6289C389.748 77.6289 391.775 79.8965 391.811 84.4316V97H388.559V84.4141C388.547 83.043 388.23 82.0293 387.609 81.373C387 80.7168 386.045 80.3887 384.744 80.3887C383.689 80.3887 382.764 80.6699 381.967 81.2324C381.17 81.7949 380.549 82.5332 380.104 83.4473V97H376.852V77.9805H379.928Z" fill="white"/>
<path d="M401.127 73.375V77.9805H404.678V80.4941H401.127V92.2891C401.127 93.0508 401.285 93.625 401.602 94.0117C401.918 94.3867 402.457 94.5742 403.219 94.5742C403.594 94.5742 404.109 94.5039 404.766 94.3633V97C403.91 97.2344 403.078 97.3516 402.27 97.3516C400.816 97.3516 399.721 96.9121 398.982 96.0332C398.244 95.1543 397.875 93.9062 397.875 92.2891V80.4941H394.412V77.9805H397.875V73.375H401.127Z" fill="white"/>
<path d="M407.279 87.3145C407.279 85.4512 407.643 83.7754 408.369 82.2871C409.107 80.7988 410.127 79.6504 411.428 78.8418C412.74 78.0332 414.234 77.6289 415.91 77.6289C418.5 77.6289 420.592 78.5254 422.186 80.3184C423.791 82.1113 424.594 84.4961 424.594 87.4727V87.7012C424.594 89.5527 424.236 91.2168 423.521 92.6934C422.818 94.1582 421.805 95.3008 420.48 96.1211C419.168 96.9414 417.656 97.3516 415.945 97.3516C413.367 97.3516 411.275 96.4551 409.67 94.6621C408.076 92.8691 407.279 90.4961 407.279 87.543V87.3145ZM410.549 87.7012C410.549 89.8105 411.035 91.5039 412.008 92.7812C412.992 94.0586 414.305 94.6973 415.945 94.6973C417.598 94.6973 418.91 94.0527 419.883 92.7637C420.855 91.4629 421.342 89.6465 421.342 87.3145C421.342 85.2285 420.844 83.541 419.848 82.252C418.863 80.9512 417.551 80.3008 415.91 80.3008C414.305 80.3008 413.01 80.9395 412.025 82.2168C411.041 83.4941 410.549 85.3223 410.549 87.7012Z" fill="white"/>
<path d="M439.746 91.9551C439.746 91.0762 439.412 90.3965 438.744 89.916C438.088 89.4238 436.934 89.002 435.281 88.6504C433.641 88.2988 432.334 87.877 431.361 87.3848C430.4 86.8926 429.686 86.3066 429.217 85.627C428.76 84.9473 428.531 84.1387 428.531 83.2012C428.531 81.6426 429.188 80.3242 430.5 79.2461C431.824 78.168 433.512 77.6289 435.562 77.6289C437.719 77.6289 439.465 78.1855 440.801 79.2988C442.148 80.4121 442.822 81.8359 442.822 83.5703H439.553C439.553 82.6797 439.172 81.9121 438.41 81.2676C437.66 80.623 436.711 80.3008 435.562 80.3008C434.379 80.3008 433.453 80.5586 432.785 81.0742C432.117 81.5898 431.783 82.2637 431.783 83.0957C431.783 83.8809 432.094 84.4727 432.715 84.8711C433.336 85.2695 434.455 85.6504 436.072 86.0137C437.701 86.377 439.02 86.8105 440.027 87.3145C441.035 87.8184 441.779 88.4277 442.26 89.1426C442.752 89.8457 442.998 90.707 442.998 91.7266C442.998 93.4258 442.318 94.791 440.959 95.8223C439.6 96.8418 437.836 97.3516 435.668 97.3516C434.145 97.3516 432.797 97.082 431.625 96.543C430.453 96.0039 429.533 95.2539 428.865 94.293C428.209 93.3203 427.881 92.2715 427.881 91.1465H431.133C431.191 92.2363 431.625 93.1035 432.434 93.748C433.254 94.3809 434.332 94.6973 435.668 94.6973C436.898 94.6973 437.883 94.4512 438.621 93.959C439.371 93.4551 439.746 92.7871 439.746 91.9551Z" fill="white"/>
<path d="M467.238 91.9551C467.238 91.0762 466.904 90.3965 466.236 89.916C465.58 89.4238 464.426 89.002 462.773 88.6504C461.133 88.2988 459.826 87.877 458.854 87.3848C457.893 86.8926 457.178 86.3066 456.709 85.627C456.252 84.9473 456.023 84.1387 456.023 83.2012C456.023 81.6426 456.68 80.3242 457.992 79.2461C459.316 78.168 461.004 77.6289 463.055 77.6289C465.211 77.6289 466.957 78.1855 468.293 79.2988C469.641 80.4121 470.314 81.8359 470.314 83.5703H467.045C467.045 82.6797 466.664 81.9121 465.902 81.2676C465.152 80.623 464.203 80.3008 463.055 80.3008C461.871 80.3008 460.945 80.5586 460.277 81.0742C459.609 81.5898 459.275 82.2637 459.275 83.0957C459.275 83.8809 459.586 84.4727 460.207 84.8711C460.828 85.2695 461.947 85.6504 463.564 86.0137C465.193 86.377 466.512 86.8105 467.52 87.3145C468.527 87.8184 469.271 88.4277 469.752 89.1426C470.244 89.8457 470.49 90.707 470.49 91.7266C470.49 93.4258 469.811 94.791 468.451 95.8223C467.092 96.8418 465.328 97.3516 463.16 97.3516C461.637 97.3516 460.289 97.082 459.117 96.543C457.945 96.0039 457.025 95.2539 456.357 94.293C455.701 93.3203 455.373 92.2715 455.373 91.1465H458.625C458.684 92.2363 459.117 93.1035 459.926 93.748C460.746 94.3809 461.824 94.6973 463.16 94.6973C464.391 94.6973 465.375 94.4512 466.113 93.959C466.863 93.4551 467.238 92.7871 467.238 91.9551Z" fill="white"/>
<path d="M486.469 97C486.281 96.625 486.129 95.957 486.012 94.9961C484.5 96.5664 482.695 97.3516 480.598 97.3516C478.723 97.3516 477.182 96.8242 475.975 95.7695C474.779 94.7031 474.182 93.3555 474.182 91.7266C474.182 89.7461 474.932 88.2109 476.432 87.1211C477.943 86.0195 480.064 85.4688 482.795 85.4688H485.959V83.9746C485.959 82.8379 485.619 81.9355 484.939 81.2676C484.26 80.5879 483.258 80.248 481.934 80.248C480.773 80.248 479.801 80.541 479.016 81.127C478.23 81.7129 477.838 82.4219 477.838 83.2539H474.568C474.568 82.3047 474.902 81.3906 475.57 80.5117C476.25 79.6211 477.164 78.918 478.312 78.4023C479.473 77.8867 480.744 77.6289 482.127 77.6289C484.318 77.6289 486.035 78.1797 487.277 79.2812C488.52 80.3711 489.164 81.877 489.211 83.7988V92.5527C489.211 94.2988 489.434 95.6875 489.879 96.7188V97H486.469ZM481.072 94.5215C482.092 94.5215 483.059 94.2578 483.973 93.7305C484.887 93.2031 485.549 92.5176 485.959 91.6738V87.7715H483.41C479.426 87.7715 477.434 88.9375 477.434 91.2695C477.434 92.2891 477.773 93.0859 478.453 93.6602C479.133 94.2344 480.006 94.5215 481.072 94.5215Z" fill="white"/>
<path d="M497.842 97H494.59V70H497.842V97Z" fill="white"/>
<path d="M514.805 95.1191C513.539 96.6074 511.682 97.3516 509.232 97.3516C507.205 97.3516 505.658 96.7656 504.592 95.5938C503.537 94.4102 503.004 92.6641 502.992 90.3555V77.9805H506.244V90.2676C506.244 93.1504 507.416 94.5918 509.76 94.5918C512.244 94.5918 513.896 93.666 514.717 91.8145V77.9805H517.969V97H514.875L514.805 95.1191Z" fill="white"/>
<path d="M522.135 87.332C522.135 84.4141 522.826 82.0703 524.209 80.3008C525.592 78.5195 527.402 77.6289 529.641 77.6289C531.867 77.6289 533.631 78.3906 534.932 79.9141V70H538.184V97H535.195L535.037 94.9609C533.736 96.5547 531.926 97.3516 529.605 97.3516C527.402 97.3516 525.604 96.4492 524.209 94.6445C522.826 92.8398 522.135 90.4844 522.135 87.5781V87.332ZM525.387 87.7012C525.387 89.8574 525.832 91.5449 526.723 92.7637C527.613 93.9824 528.844 94.5918 530.414 94.5918C532.477 94.5918 533.982 93.666 534.932 91.8145V83.0781C533.959 81.2852 532.465 80.3887 530.449 80.3887C528.855 80.3887 527.613 81.0039 526.723 82.2344C525.832 83.4648 525.387 85.2871 525.387 87.7012Z" fill="white"/>
<path d="M542.385 87.3145C542.385 85.4512 542.748 83.7754 543.475 82.2871C544.213 80.7988 545.232 79.6504 546.533 78.8418C547.846 78.0332 549.34 77.6289 551.016 77.6289C553.605 77.6289 555.697 78.5254 557.291 80.3184C558.896 82.1113 559.699 84.4961 559.699 87.4727V87.7012C559.699 89.5527 559.342 91.2168 558.627 92.6934C557.924 94.1582 556.91 95.3008 555.586 96.1211C554.273 96.9414 552.762 97.3516 551.051 97.3516C548.473 97.3516 546.381 96.4551 544.775 94.6621C543.182 92.8691 542.385 90.4961 542.385 87.543V87.3145ZM545.654 87.7012C545.654 89.8105 546.141 91.5039 547.113 92.7812C548.098 94.0586 549.41 94.6973 551.051 94.6973C552.703 94.6973 554.016 94.0527 554.988 92.7637C555.961 91.4629 556.447 89.6465 556.447 87.3145C556.447 85.2285 555.949 83.541 554.953 82.252C553.969 80.9512 552.656 80.3008 551.016 80.3008C549.41 80.3008 548.115 80.9395 547.131 82.2168C546.146 83.4941 545.654 85.3223 545.654 87.7012Z" fill="white"/>
<path d="M574.852 91.9551C574.852 91.0762 574.518 90.3965 573.85 89.916C573.193 89.4238 572.039 89.002 570.387 88.6504C568.746 88.2988 567.439 87.877 566.467 87.3848C565.506 86.8926 564.791 86.3066 564.322 85.627C563.865 84.9473 563.637 84.1387 563.637 83.2012C563.637 81.6426 564.293 80.3242 565.605 79.2461C566.93 78.168 568.617 77.6289 570.668 77.6289C572.824 77.6289 574.57 78.1855 575.906 79.2988C577.254 80.4121 577.928 81.8359 577.928 83.5703H574.658C574.658 82.6797 574.277 81.9121 573.516 81.2676C572.766 80.623 571.816 80.3008 570.668 80.3008C569.484 80.3008 568.559 80.5586 567.891 81.0742C567.223 81.5898 566.889 82.2637 566.889 83.0957C566.889 83.8809 567.199 84.4727 567.82 84.8711C568.441 85.2695 569.561 85.6504 571.178 86.0137C572.807 86.377 574.125 86.8105 575.133 87.3145C576.141 87.8184 576.885 88.4277 577.365 89.1426C577.857 89.8457 578.104 90.707 578.104 91.7266C578.104 93.4258 577.424 94.791 576.064 95.8223C574.705 96.8418 572.941 97.3516 570.773 97.3516C569.25 97.3516 567.902 97.082 566.73 96.543C565.559 96.0039 564.639 95.2539 563.971 94.293C563.314 93.3203 562.986 92.2715 562.986 91.1465H566.238C566.297 92.2363 566.73 93.1035 567.539 93.748C568.359 94.3809 569.438 94.6973 570.773 94.6973C572.004 94.6973 572.988 94.4512 573.727 93.959C574.477 93.4551 574.852 92.7871 574.852 91.9551Z" fill="white"/>
<path d="M599.162 97.3516C596.584 97.3516 594.486 96.5078 592.869 94.8203C591.252 93.1211 590.443 90.8535 590.443 88.0176V87.4199C590.443 85.5332 590.801 83.8516 591.516 82.375C592.242 80.8867 593.25 79.7266 594.539 78.8945C595.84 78.0508 597.246 77.6289 598.758 77.6289C601.23 77.6289 603.152 78.4434 604.523 80.0723C605.895 81.7012 606.58 84.0332 606.58 87.0684V88.4219H593.695C593.742 90.2969 594.287 91.8145 595.33 92.9746C596.385 94.123 597.721 94.6973 599.338 94.6973C600.486 94.6973 601.459 94.4629 602.256 93.9941C603.053 93.5254 603.75 92.9043 604.348 92.1309L606.334 93.6777C604.74 96.127 602.35 97.3516 599.162 97.3516ZM598.758 80.3008C597.445 80.3008 596.344 80.7812 595.453 81.7422C594.562 82.6914 594.012 84.0273 593.801 85.75H603.328V85.5039C603.234 83.8516 602.789 82.5742 601.992 81.6719C601.195 80.7578 600.117 80.3008 598.758 80.3008Z" fill="white"/>
<path d="M613.436 77.9805L613.541 80.3711C614.994 78.543 616.893 77.6289 619.236 77.6289C623.256 77.6289 625.283 79.8965 625.318 84.4316V97H622.066V84.4141C622.055 83.043 621.738 82.0293 621.117 81.373C620.508 80.7168 619.553 80.3887 618.252 80.3887C617.197 80.3887 616.271 80.6699 615.475 81.2324C614.678 81.7949 614.057 82.5332 613.611 83.4473V97H610.359V77.9805H613.436Z" fill="white"/>
<path d="M643.564 73.375V77.9805H647.115V80.4941H643.564V92.2891C643.564 93.0508 643.723 93.625 644.039 94.0117C644.355 94.3867 644.895 94.5742 645.656 94.5742C646.031 94.5742 646.547 94.5039 647.203 94.3633V97C646.348 97.2344 645.516 97.3516 644.707 97.3516C643.254 97.3516 642.158 96.9121 641.42 96.0332C640.682 95.1543 640.312 93.9062 640.312 92.2891V80.4941H636.85V77.9805H640.312V73.375H643.564Z" fill="white"/>
<path d="M649.717 87.3145C649.717 85.4512 650.08 83.7754 650.807 82.2871C651.545 80.7988 652.564 79.6504 653.865 78.8418C655.178 78.0332 656.672 77.6289 658.348 77.6289C660.938 77.6289 663.029 78.5254 664.623 80.3184C666.229 82.1113 667.031 84.4961 667.031 87.4727V87.7012C667.031 89.5527 666.674 91.2168 665.959 92.6934C665.256 94.1582 664.242 95.3008 662.918 96.1211C661.605 96.9414 660.094 97.3516 658.383 97.3516C655.805 97.3516 653.713 96.4551 652.107 94.6621C650.514 92.8691 649.717 90.4961 649.717 87.543V87.3145ZM652.986 87.7012C652.986 89.8105 653.473 91.5039 654.445 92.7812C655.43 94.0586 656.742 94.6973 658.383 94.6973C660.035 94.6973 661.348 94.0527 662.32 92.7637C663.293 91.4629 663.779 89.6465 663.779 87.3145C663.779 85.2285 663.281 83.541 662.285 82.252C661.301 80.9512 659.988 80.3008 658.348 80.3008C656.742 80.3008 655.447 80.9395 654.463 82.2168C653.479 83.4941 652.986 85.3223 652.986 87.7012Z" fill="white"/>
<path d="M675.521 73.375V77.9805H679.072V80.4941H675.521V92.2891C675.521 93.0508 675.68 93.625 675.996 94.0117C676.312 94.3867 676.852 94.5742 677.613 94.5742C677.988 94.5742 678.504 94.5039 679.16 94.3633V97C678.305 97.2344 677.473 97.3516 676.664 97.3516C675.211 97.3516 674.115 96.9121 673.377 96.0332C672.639 95.1543 672.27 93.9062 672.27 92.2891V80.4941H668.807V77.9805H672.27V73.375H675.521Z" fill="white"/>
<path d="M694.629 97C694.441 96.625 694.289 95.957 694.172 94.9961C692.66 96.5664 690.855 97.3516 688.758 97.3516C686.883 97.3516 685.342 96.8242 684.135 95.7695C682.939 94.7031 682.342 93.3555 682.342 91.7266C682.342 89.7461 683.092 88.2109 684.592 87.1211C686.104 86.0195 688.225 85.4688 690.955 85.4688H694.119V83.9746C694.119 82.8379 693.779 81.9355 693.1 81.2676C692.42 80.5879 691.418 80.248 690.094 80.248C688.934 80.248 687.961 80.541 687.176 81.127C686.391 81.7129 685.998 82.4219 685.998 83.2539H682.729C682.729 82.3047 683.062 81.3906 683.73 80.5117C684.41 79.6211 685.324 78.918 686.473 78.4023C687.633 77.8867 688.904 77.6289 690.287 77.6289C692.479 77.6289 694.195 78.1797 695.438 79.2812C696.68 80.3711 697.324 81.877 697.371 83.7988V92.5527C697.371 94.2988 697.594 95.6875 698.039 96.7188V97H694.629ZM689.232 94.5215C690.252 94.5215 691.219 94.2578 692.133 93.7305C693.047 93.2031 693.709 92.5176 694.119 91.6738V87.7715H691.57C687.586 87.7715 685.594 88.9375 685.594 91.2695C685.594 92.2891 685.934 93.0859 686.613 93.6602C687.293 94.2344 688.166 94.5215 689.232 94.5215Z" fill="white"/>
<path d="M706.002 97H702.75V70H706.002V97Z" fill="white"/>
<path d="M731.227 91.9551C731.227 91.0762 730.893 90.3965 730.225 89.916C729.568 89.4238 728.414 89.002 726.762 88.6504C725.121 88.2988 723.814 87.877 722.842 87.3848C721.881 86.8926 721.166 86.3066 720.697 85.627C720.24 84.9473 720.012 84.1387 720.012 83.2012C720.012 81.6426 720.668 80.3242 721.98 79.2461C723.305 78.168 724.992 77.6289 727.043 77.6289C729.199 77.6289 730.945 78.1855 732.281 79.2988C733.629 80.4121 734.303 81.8359 734.303 83.5703H731.033C731.033 82.6797 730.652 81.9121 729.891 81.2676C729.141 80.623 728.191 80.3008 727.043 80.3008C725.859 80.3008 724.934 80.5586 724.266 81.0742C723.598 81.5898 723.264 82.2637 723.264 83.0957C723.264 83.8809 723.574 84.4727 724.195 84.8711C724.816 85.2695 725.936 85.6504 727.553 86.0137C729.182 86.377 730.5 86.8105 731.508 87.3145C732.516 87.8184 733.26 88.4277 733.74 89.1426C734.232 89.8457 734.479 90.707 734.479 91.7266C734.479 93.4258 733.799 94.791 732.439 95.8223C731.08 96.8418 729.316 97.3516 727.148 97.3516C725.625 97.3516 724.277 97.082 723.105 96.543C721.934 96.0039 721.014 95.2539 720.346 94.293C719.689 93.3203 719.361 92.2715 719.361 91.1465H722.613C722.672 92.2363 723.105 93.1035 723.914 93.748C724.734 94.3809 725.812 94.6973 727.148 94.6973C728.379 94.6973 729.363 94.4512 730.102 93.959C730.852 93.4551 731.227 92.7871 731.227 91.9551Z" fill="white"/>
<path d="M746.607 97.3516C744.029 97.3516 741.932 96.5078 740.314 94.8203C738.697 93.1211 737.889 90.8535 737.889 88.0176V87.4199C737.889 85.5332 738.246 83.8516 738.961 82.375C739.688 80.8867 740.695 79.7266 741.984 78.8945C743.285 78.0508 744.691 77.6289 746.203 77.6289C748.676 77.6289 750.598 78.4434 751.969 80.0723C753.34 81.7012 754.025 84.0332 754.025 87.0684V88.4219H741.141C741.188 90.2969 741.732 91.8145 742.775 92.9746C743.83 94.123 745.166 94.6973 746.783 94.6973C747.932 94.6973 748.904 94.4629 749.701 93.9941C750.498 93.5254 751.195 92.9043 751.793 92.1309L753.779 93.6777C752.186 96.127 749.795 97.3516 746.607 97.3516ZM746.203 80.3008C744.891 80.3008 743.789 80.7812 742.898 81.7422C742.008 82.6914 741.457 84.0273 741.246 85.75H750.773V85.5039C750.68 83.8516 750.234 82.5742 749.438 81.6719C748.641 80.7578 747.562 80.3008 746.203 80.3008Z" fill="white"/>
<path d="M765.873 87.3145C765.873 85.4512 766.236 83.7754 766.963 82.2871C767.701 80.7988 768.721 79.6504 770.021 78.8418C771.334 78.0332 772.828 77.6289 774.504 77.6289C777.094 77.6289 779.186 78.5254 780.779 80.3184C782.385 82.1113 783.188 84.4961 783.188 87.4727V87.7012C783.188 89.5527 782.83 91.2168 782.115 92.6934C781.412 94.1582 780.398 95.3008 779.074 96.1211C777.762 96.9414 776.25 97.3516 774.539 97.3516C771.961 97.3516 769.869 96.4551 768.264 94.6621C766.67 92.8691 765.873 90.4961 765.873 87.543V87.3145ZM769.143 87.7012C769.143 89.8105 769.629 91.5039 770.602 92.7812C771.586 94.0586 772.898 94.6973 774.539 94.6973C776.191 94.6973 777.504 94.0527 778.477 92.7637C779.449 91.4629 779.936 89.6465 779.936 87.3145C779.936 85.2285 779.438 83.541 778.441 82.252C777.457 80.9512 776.145 80.3008 774.504 80.3008C772.898 80.3008 771.604 80.9395 770.619 82.2168C769.635 83.4941 769.143 85.3223 769.143 87.7012Z" fill="white"/>
<path d="M803.367 87.7012C803.367 90.6074 802.699 92.9453 801.363 94.7148C800.027 96.4727 798.234 97.3516 795.984 97.3516C793.582 97.3516 791.725 96.502 790.412 94.8027L790.254 97H787.266V70H790.518V80.0723C791.83 78.4434 793.641 77.6289 795.949 77.6289C798.258 77.6289 800.068 78.502 801.381 80.248C802.705 81.9941 803.367 84.3848 803.367 87.4199V87.7012ZM800.115 87.332C800.115 85.1172 799.688 83.4062 798.832 82.1992C797.977 80.9922 796.746 80.3887 795.141 80.3887C792.996 80.3887 791.455 81.3848 790.518 83.377V91.6035C791.514 93.5957 793.066 94.5918 795.176 94.5918C796.734 94.5918 797.947 93.9883 798.814 92.7812C799.682 91.5742 800.115 89.7578 800.115 87.332Z" fill="white"/>
<path d="M818.555 91.9551C818.555 91.0762 818.221 90.3965 817.553 89.916C816.896 89.4238 815.742 89.002 814.09 88.6504C812.449 88.2988 811.143 87.877 810.17 87.3848C809.209 86.8926 808.494 86.3066 808.025 85.627C807.568 84.9473 807.34 84.1387 807.34 83.2012C807.34 81.6426 807.996 80.3242 809.309 79.2461C810.633 78.168 812.32 77.6289 814.371 77.6289C816.527 77.6289 818.273 78.1855 819.609 79.2988C820.957 80.4121 821.631 81.8359 821.631 83.5703H818.361C818.361 82.6797 817.98 81.9121 817.219 81.2676C816.469 80.623 815.52 80.3008 814.371 80.3008C813.188 80.3008 812.262 80.5586 811.594 81.0742C810.926 81.5898 810.592 82.2637 810.592 83.0957C810.592 83.8809 810.902 84.4727 811.523 84.8711C812.145 85.2695 813.264 85.6504 814.881 86.0137C816.51 86.377 817.828 86.8105 818.836 87.3145C819.844 87.8184 820.588 88.4277 821.068 89.1426C821.561 89.8457 821.807 90.707 821.807 91.7266C821.807 93.4258 821.127 94.791 819.768 95.8223C818.408 96.8418 816.645 97.3516 814.477 97.3516C812.953 97.3516 811.605 97.082 810.434 96.543C809.262 96.0039 808.342 95.2539 807.674 94.293C807.018 93.3203 806.689 92.2715 806.689 91.1465H809.941C810 92.2363 810.434 93.1035 811.242 93.748C812.062 94.3809 813.141 94.6973 814.477 94.6973C815.707 94.6973 816.691 94.4512 817.43 93.959C818.18 93.4551 818.555 92.7871 818.555 91.9551Z" fill="white"/>
<path d="M833.936 97.3516C831.357 97.3516 829.26 96.5078 827.643 94.8203C826.025 93.1211 825.217 90.8535 825.217 88.0176V87.4199C825.217 85.5332 825.574 83.8516 826.289 82.375C827.016 80.8867 828.023 79.7266 829.312 78.8945C830.613 78.0508 832.02 77.6289 833.531 77.6289C836.004 77.6289 837.926 78.4434 839.297 80.0723C840.668 81.7012 841.354 84.0332 841.354 87.0684V88.4219H828.469C828.516 90.2969 829.061 91.8145 830.104 92.9746C831.158 94.123 832.494 94.6973 834.111 94.6973C835.26 94.6973 836.232 94.4629 837.029 93.9941C837.826 93.5254 838.523 92.9043 839.121 92.1309L841.107 93.6777C839.514 96.127 837.123 97.3516 833.936 97.3516ZM833.531 80.3008C832.219 80.3008 831.117 80.7812 830.227 81.7422C829.336 82.6914 828.785 84.0273 828.574 85.75H838.102V85.5039C838.008 83.8516 837.562 82.5742 836.766 81.6719C835.969 80.7578 834.891 80.3008 833.531 80.3008Z" fill="white"/>
<path d="M854.326 80.8984C853.834 80.8164 853.301 80.7754 852.727 80.7754C850.594 80.7754 849.146 81.6836 848.385 83.5V97H845.133V77.9805H848.297L848.35 80.1777C849.416 78.4785 850.928 77.6289 852.885 77.6289C853.518 77.6289 853.998 77.7109 854.326 77.875V80.8984Z" fill="white"/>
<path d="M863.924 92.5879L868.635 77.9805H871.957L865.137 97H862.658L855.768 77.9805H859.09L863.924 92.5879Z" fill="white"/>
<path d="M886.547 97C886.359 96.625 886.207 95.957 886.09 94.9961C884.578 96.5664 882.773 97.3516 880.676 97.3516C878.801 97.3516 877.26 96.8242 876.053 95.7695C874.857 94.7031 874.26 93.3555 874.26 91.7266C874.26 89.7461 875.01 88.2109 876.51 87.1211C878.021 86.0195 880.143 85.4688 882.873 85.4688H886.037V83.9746C886.037 82.8379 885.697 81.9355 885.018 81.2676C884.338 80.5879 883.336 80.248 882.012 80.248C880.852 80.248 879.879 80.541 879.094 81.127C878.309 81.7129 877.916 82.4219 877.916 83.2539H874.646C874.646 82.3047 874.98 81.3906 875.648 80.5117C876.328 79.6211 877.242 78.918 878.391 78.4023C879.551 77.8867 880.822 77.6289 882.205 77.6289C884.396 77.6289 886.113 78.1797 887.355 79.2812C888.598 80.3711 889.242 81.877 889.289 83.7988V92.5527C889.289 94.2988 889.512 95.6875 889.957 96.7188V97H886.547ZM881.15 94.5215C882.17 94.5215 883.137 94.2578 884.051 93.7305C884.965 93.2031 885.627 92.5176 886.037 91.6738V87.7715H883.488C879.504 87.7715 877.512 88.9375 877.512 91.2695C877.512 92.2891 877.852 93.0859 878.531 93.6602C879.211 94.2344 880.084 94.5215 881.15 94.5215Z" fill="white"/>
<path d="M898.201 89.793C898.225 88.3984 898.383 87.2969 898.676 86.4883C898.969 85.6797 899.566 84.7832 900.469 83.7988L902.771 81.4258C903.756 80.3125 904.248 79.1172 904.248 77.8398C904.248 76.6094 903.926 75.6484 903.281 74.957C902.637 74.2539 901.699 73.9023 900.469 73.9023C899.273 73.9023 898.312 74.2188 897.586 74.8516C896.859 75.4844 896.496 76.334 896.496 77.4004H893.244C893.268 75.502 893.941 73.9727 895.266 72.8125C896.602 71.6406 898.336 71.0547 900.469 71.0547C902.684 71.0547 904.406 71.6523 905.637 72.8477C906.879 74.0312 907.5 75.6602 907.5 77.7344C907.5 79.7852 906.551 81.8066 904.652 83.7988L902.736 85.6973C901.881 86.6465 901.453 88.0117 901.453 89.793H898.201ZM898.061 95.3652C898.061 94.8379 898.219 94.3984 898.535 94.0469C898.863 93.6836 899.344 93.502 899.977 93.502C900.609 93.502 901.09 93.6836 901.418 94.0469C901.746 94.3984 901.91 94.8379 901.91 95.3652C901.91 95.8926 901.746 96.332 901.418 96.6836C901.09 97.0234 900.609 97.1934 899.977 97.1934C899.344 97.1934 898.863 97.0234 898.535 96.6836C898.219 96.332 898.061 95.8926 898.061 95.3652Z" fill="white"/>
</g>
</g>
</g>
</svg>
