<svg viewBox="0 0 983 384" fill="none" xmlns="http://www.w3.org/2000/svg">
<g id="0121107">
<g id="claves01">
<path id="Rectangle 4" d="M47 194H263.745L297 234L263.745 274H47V194Z" fill="#CD08D1" fill-opacity="0.1"/>
<path id="Rectangle 4 (Stroke)" fill-rule="evenodd" clip-rule="evenodd" d="M262.338 197H50V271H262.338L293.099 234L262.338 197ZM263.745 194H47V274H263.745L297 234L263.745 194Z" fill="#CD08D1"/>
<path id="Rectangle 5" d="M51 304H267.745L301 344L267.745 384H51V304Z" fill="#CD08D1" fill-opacity="0.1"/>
<path id="Rectangle 5 (Stroke)" fill-rule="evenodd" clip-rule="evenodd" d="M266.338 307H54V381H266.338L297.099 344L266.338 307ZM267.745 304H51V384H267.745L301 344L267.745 304Z" fill="#CD08D1"/>
<path id="Rectangle 6" d="M387 191H603.745L637 231L603.745 271H387V191Z" fill="#CD08D1" fill-opacity="0.1"/>
<path id="Rectangle 6 (Stroke)" fill-rule="evenodd" clip-rule="evenodd" d="M602.338 194H390V268H602.338L633.099 231L602.338 194ZM603.745 191H387V271H603.745L637 231L603.745 191Z" fill="#CD08D1"/>
<path id="Rectangle 7" d="M390 301H606.745L640 341L606.745 381H390V301Z" fill="#CD08D1" fill-opacity="0.1"/>
<path id="Rectangle 7 (Stroke)" fill-rule="evenodd" clip-rule="evenodd" d="M605.338 304H393V378H605.338L636.099 341L605.338 304ZM606.745 301H390V381H606.745L640 341L606.745 301Z" fill="#CD08D1"/>
<path id="Rectangle 8" d="M733 250H949.745L983 290L949.745 330H733V250Z" fill="#CD08D1" fill-opacity="0.1"/>
<path id="Rectangle 8 (Stroke)" fill-rule="evenodd" clip-rule="evenodd" d="M948.338 253H736V327H948.338L979.099 290L948.338 253ZM949.745 250H733V330H949.745L983 290L949.745 250Z" fill="#CD08D1"/>
<path id="Ellipse 1" d="M88 234C88 256.091 70.0914 274 48 274C25.9086 274 8 256.091 8 234C8 211.909 25.9086 194 48 194C70.0914 194 88 211.909 88 234Z" fill="#CD08D1"/>
<path id="Ellipse 2" d="M92 344C92 366.091 74.0914 384 52 384C29.9086 384 12 366.091 12 344C12 321.909 29.9086 304 52 304C74.0914 304 92 321.909 92 344Z" fill="#CD08D1"/>
<path id="Ellipse 3" d="M428 231C428 253.091 410.091 271 388 271C365.909 271 348 253.091 348 231C348 208.909 365.909 191 388 191C410.091 191 428 208.909 428 231Z" fill="#CD08D1"/>
<path id="Ellipse 4" d="M431 341C431 363.091 413.091 381 391 381C368.909 381 351 363.091 351 341C351 318.909 368.909 301 391 301C413.091 301 431 318.909 431 341Z" fill="#CD08D1"/>
<path id="Ellipse 5" d="M774 290C774 312.091 756.091 330 734 330C711.909 330 694 312.091 694 290C694 267.909 711.909 250 734 250C756.091 250 774 267.909 774 290Z" fill="#CD08D1"/>
<path id="A" d="M56.0938 244.406H38.4688L34.7812 255H26.5625L43.75 209.5H50.8438L68.0625 255H59.8125L56.0938 244.406ZM40.6875 238.031H53.875L47.2812 219.156L40.6875 238.031Z" fill="white"/>
<path id="B" d="M35.625 360V314.5H51.2188C56.3646 314.5 60.2812 315.531 62.9688 317.594C65.6562 319.656 67 322.729 67 326.812C67 328.896 66.4375 330.771 65.3125 332.438C64.1875 334.104 62.5417 335.396 60.375 336.312C62.8333 336.979 64.7292 338.24 66.0625 340.094C67.4167 341.927 68.0938 344.135 68.0938 346.719C68.0938 350.99 66.7188 354.271 63.9688 356.562C61.2396 358.854 57.3229 360 52.2188 360H35.625ZM43.5312 339.469V353.688H52.3125C54.7917 353.688 56.7292 353.073 58.125 351.844C59.5208 350.615 60.2188 348.906 60.2188 346.719C60.2188 341.99 57.8021 339.573 52.9688 339.469H43.5312ZM43.5312 333.656H51.2812C53.7396 333.656 55.6562 333.104 57.0312 332C58.4271 330.875 59.125 329.292 59.125 327.25C59.125 325 58.4792 323.375 57.1875 322.375C55.9167 321.375 53.9271 320.875 51.2188 320.875H43.5312V333.656Z" fill="white"/>
<path id="C" d="M405.344 238.188C404.885 243.042 403.094 246.833 399.969 249.562C396.844 252.271 392.688 253.625 387.5 253.625C383.875 253.625 380.677 252.771 377.906 251.062C375.156 249.333 373.031 246.885 371.531 243.719C370.031 240.552 369.25 236.875 369.188 232.688V228.438C369.188 224.146 369.948 220.365 371.469 217.094C372.99 213.823 375.167 211.302 378 209.531C380.854 207.76 384.146 206.875 387.875 206.875C392.896 206.875 396.938 208.24 400 210.969C403.062 213.698 404.844 217.552 405.344 222.531H397.469C397.094 219.26 396.135 216.906 394.594 215.469C393.073 214.01 390.833 213.281 387.875 213.281C384.438 213.281 381.792 214.542 379.938 217.062C378.104 219.562 377.167 223.24 377.125 228.094V232.125C377.125 237.042 378 240.792 379.75 243.375C381.521 245.958 384.104 247.25 387.5 247.25C390.604 247.25 392.938 246.552 394.5 245.156C396.062 243.76 397.052 241.438 397.469 238.188H405.344Z" fill="white"/>
<path id="D" d="M373.625 363V317.5H387.062C391.083 317.5 394.646 318.396 397.75 320.188C400.875 321.979 403.292 324.521 405 327.812C406.708 331.104 407.562 334.875 407.562 339.125V341.406C407.562 345.719 406.698 349.51 404.969 352.781C403.26 356.052 400.812 358.573 397.625 360.344C394.458 362.115 390.823 363 386.719 363H373.625ZM381.531 323.875V356.688H386.688C390.833 356.688 394.01 355.396 396.219 352.812C398.448 350.208 399.583 346.479 399.625 341.625V339.094C399.625 334.156 398.552 330.385 396.406 327.781C394.26 325.177 391.146 323.875 387.062 323.875H381.531Z" fill="white"/>
<path id="E" d="M743.219 291.688H724.531V305.688H746.375V312H716.625V266.5H746.156V272.875H724.531V285.438H743.219V291.688Z" fill="white"/>
<g id="13">
<path d="M169.086 257H164.727V228.102L155.984 231.312V227.375L168.406 222.711H169.086V257Z" fill="#CD08D1"/>
<path d="M188.094 237.828H191.352C193.398 237.797 195.008 237.258 196.18 236.211C197.352 235.164 197.938 233.75 197.938 231.969C197.938 227.969 195.945 225.969 191.961 225.969C190.086 225.969 188.586 226.508 187.461 227.586C186.352 228.648 185.797 230.062 185.797 231.828H181.461C181.461 229.125 182.445 226.883 184.414 225.102C186.398 223.305 188.914 222.406 191.961 222.406C195.18 222.406 197.703 223.258 199.531 224.961C201.359 226.664 202.273 229.031 202.273 232.062C202.273 233.547 201.789 234.984 200.82 236.375C199.867 237.766 198.562 238.805 196.906 239.492C198.781 240.086 200.227 241.07 201.242 242.445C202.273 243.82 202.789 245.5 202.789 247.484C202.789 250.547 201.789 252.977 199.789 254.773C197.789 256.57 195.188 257.469 191.984 257.469C188.781 257.469 186.172 256.602 184.156 254.867C182.156 253.133 181.156 250.844 181.156 248H185.516C185.516 249.797 186.102 251.234 187.273 252.312C188.445 253.391 190.016 253.93 191.984 253.93C194.078 253.93 195.68 253.383 196.789 252.289C197.898 251.195 198.453 249.625 198.453 247.578C198.453 245.594 197.844 244.07 196.625 243.008C195.406 241.945 193.648 241.398 191.352 241.367H188.094V237.828Z" fill="#CD08D1"/>
</g>
<g id="12">
<path d="M169.086 367H164.727V338.102L155.984 341.312V337.375L168.406 332.711H169.086V367Z" fill="#CD08D1"/>
<path d="M204.148 367H181.789V363.883L193.602 350.758C195.352 348.773 196.555 347.164 197.211 345.93C197.883 344.68 198.219 343.391 198.219 342.062C198.219 340.281 197.68 338.82 196.602 337.68C195.523 336.539 194.086 335.969 192.289 335.969C190.133 335.969 188.453 336.586 187.25 337.82C186.062 339.039 185.469 340.742 185.469 342.93H181.133C181.133 339.789 182.141 337.25 184.156 335.312C186.188 333.375 188.898 332.406 192.289 332.406C195.461 332.406 197.969 333.242 199.812 334.914C201.656 336.57 202.578 338.781 202.578 341.547C202.578 344.906 200.438 348.906 196.156 353.547L187.016 363.461H204.148V367Z" fill="#CD08D1"/>
</g>
<g id="11">
<path d="M501.086 367H496.727V338.102L487.984 341.312V337.375L500.406 332.711H501.086V367Z" fill="#CD08D1"/>
<path d="M528.039 367H523.68V338.102L514.938 341.312V337.375L527.359 332.711H528.039V367Z" fill="#CD08D1"/>
</g>
<g id="19">
<path d="M853.086 310H848.727V281.102L839.984 284.312V280.375L852.406 275.711H853.086V310Z" fill="#CD08D1"/>
<path d="M884.094 298.539H888.828V302.078H884.094V310H879.734V302.078H864.195V299.523L879.477 275.875H884.094V298.539ZM869.117 298.539H879.734V281.805L879.219 282.742L869.117 298.539Z" fill="#CD08D1"/>
</g>
<g id="17">
<path d="M501.086 253H496.727V224.102L487.984 227.312V223.375L500.406 218.711H501.086V253Z" fill="#CD08D1"/>
<path d="M515.781 235.891L517.516 218.875H535V222.883H521.195L520.164 232.188C521.836 231.203 523.734 230.711 525.859 230.711C528.969 230.711 531.438 231.742 533.266 233.805C535.094 235.852 536.008 238.625 536.008 242.125C536.008 245.641 535.055 248.414 533.148 250.445C531.258 252.461 528.609 253.469 525.203 253.469C522.188 253.469 519.727 252.633 517.82 250.961C515.914 249.289 514.828 246.977 514.562 244.023H518.664C518.93 245.977 519.625 247.453 520.75 248.453C521.875 249.438 523.359 249.93 525.203 249.93C527.219 249.93 528.797 249.242 529.938 247.867C531.094 246.492 531.672 244.594 531.672 242.172C531.672 239.891 531.047 238.062 529.797 236.688C528.562 235.297 526.914 234.602 524.852 234.602C522.961 234.602 521.477 235.016 520.398 235.844L519.25 236.781L515.781 235.891Z" fill="#CD08D1"/>
</g>
<g id="flecha">
<path id="Rectangle 2" d="M58.2001 197.008L73.4819 205.133L31.5003 284.089L16.2185 275.963L58.2001 197.008Z" fill="#1043F5"/>
<path id="Rectangle 1" d="M0 209.904L90 160V217.692L45 200.096L0 209.904Z" fill="#1043F5"/>
<path id="Rectangle 3" d="M4.03848 279.21L19.6656 252.143L36.9363 251.565L21.3091 278.632L4.03848 279.21Z" fill="#1043F5"/>
<path id="Rectangle 4_2" d="M30.0894 293.845L45.7166 266.778L36.9259 251.154L21.2987 278.221L30.0894 293.845Z" fill="#1043F5"/>
</g>
</g>
<g id="enun01">
<path id="Rectangle 1_2" d="M73 0H885.539L954 78.3561L885.539 159H73V0Z" fill="#02071A"/>
<path id="Rectangle 1 (Stroke)" fill-rule="evenodd" clip-rule="evenodd" d="M883.722 4H77V155H883.688L948.721 78.3937L883.722 4ZM885.539 0H73V159H885.539L954 78.3561L885.539 0Z" fill="#CD08D1"/>
<path id="Ellipse 1_2" d="M123 79C123 106.614 100.614 129 73 129C45.3858 129 23 106.614 23 79C23 51.3858 45.3858 29 73 29C100.614 29 123 51.3858 123 79Z" fill="#CD08D1"/>
<path id="Ellipse 1 (Stroke)" fill-rule="evenodd" clip-rule="evenodd" d="M73 128C100.062 128 122 106.062 122 79C122 51.938 100.062 30 73 30C45.938 30 24 51.938 24 79C24 106.062 45.938 128 73 128ZM73 129C100.614 129 123 106.614 123 79C123 51.3858 100.614 29 73 29C45.3858 29 23 51.3858 23 79C23 106.614 45.3858 129 73 129Z" fill="black"/>
<g id="Si Mario toca la puerta dando 5 golpes en 2 segundos, &#194;&#191;cu&#195;&#161;ntos golpes dar&#195;&#161; en 6 segundos?">
<path d="M160.512 36.5918C157.617 35.7598 155.508 34.7402 154.184 33.5332C152.871 32.3145 152.215 30.8145 152.215 29.0332C152.215 27.0176 153.018 25.3535 154.623 24.041C156.24 22.7168 158.338 22.0547 160.916 22.0547C162.674 22.0547 164.238 22.3945 165.609 23.0742C166.992 23.7539 168.059 24.6914 168.809 25.8867C169.57 27.082 169.951 28.3887 169.951 29.8066H166.559C166.559 28.2598 166.066 27.0469 165.082 26.168C164.098 25.2773 162.709 24.832 160.916 24.832C159.252 24.832 157.951 25.2012 157.014 25.9395C156.088 26.666 155.625 27.6797 155.625 28.9805C155.625 30.0234 156.064 30.9082 156.943 31.6348C157.834 32.3496 159.34 33.0059 161.461 33.6035C163.594 34.2012 165.258 34.8633 166.453 35.5898C167.66 36.3047 168.551 37.1426 169.125 38.1035C169.711 39.0645 170.004 40.1953 170.004 41.4961C170.004 43.5703 169.195 45.2344 167.578 46.4883C165.961 47.7305 163.799 48.3516 161.092 48.3516C159.334 48.3516 157.693 48.0176 156.17 47.3496C154.646 46.6699 153.469 45.7441 152.637 44.5723C151.816 43.4004 151.406 42.0703 151.406 40.582H154.799C154.799 42.1289 155.367 43.3535 156.504 44.2559C157.652 45.1465 159.182 45.5918 161.092 45.5918C162.873 45.5918 164.238 45.2285 165.188 44.502C166.137 43.7754 166.611 42.7852 166.611 41.5312C166.611 40.2773 166.172 39.3105 165.293 38.6309C164.414 37.9395 162.82 37.2598 160.512 36.5918Z" fill="white"/>
<path d="M177.369 48H174.117V28.9805H177.369V48ZM173.854 23.9355C173.854 23.4082 174.012 22.9629 174.328 22.5996C174.656 22.2363 175.137 22.0547 175.77 22.0547C176.402 22.0547 176.883 22.2363 177.211 22.5996C177.539 22.9629 177.703 23.4082 177.703 23.9355C177.703 24.4629 177.539 24.9023 177.211 25.2539C176.883 25.6055 176.402 25.7812 175.77 25.7812C175.137 25.7812 174.656 25.6055 174.328 25.2539C174.012 24.9023 173.854 24.4629 173.854 23.9355Z" fill="white"/>
<path d="M196.389 22.4062L204.756 43.2891L213.123 22.4062H217.5V48H214.125V38.0332L214.441 27.2754L206.039 48H203.455L195.07 27.3281L195.404 38.0332V48H192.029V22.4062H196.389Z" fill="white"/>
<path d="M234.691 48C234.504 47.625 234.352 46.957 234.234 45.9961C232.723 47.5664 230.918 48.3516 228.82 48.3516C226.945 48.3516 225.404 47.8242 224.197 46.7695C223.002 45.7031 222.404 44.3555 222.404 42.7266C222.404 40.7461 223.154 39.2109 224.654 38.1211C226.166 37.0195 228.287 36.4688 231.018 36.4688H234.182V34.9746C234.182 33.8379 233.842 32.9355 233.162 32.2676C232.482 31.5879 231.48 31.248 230.156 31.248C228.996 31.248 228.023 31.541 227.238 32.127C226.453 32.7129 226.061 33.4219 226.061 34.2539H222.791C222.791 33.3047 223.125 32.3906 223.793 31.5117C224.473 30.6211 225.387 29.918 226.535 29.4023C227.695 28.8867 228.967 28.6289 230.35 28.6289C232.541 28.6289 234.258 29.1797 235.5 30.2812C236.742 31.3711 237.387 32.877 237.434 34.7988V43.5527C237.434 45.2988 237.656 46.6875 238.102 47.7188V48H234.691ZM229.295 45.5215C230.314 45.5215 231.281 45.2578 232.195 44.7305C233.109 44.2031 233.771 43.5176 234.182 42.6738V38.7715H231.633C227.648 38.7715 225.656 39.9375 225.656 42.2695C225.656 43.2891 225.996 44.0859 226.676 44.6602C227.355 45.2344 228.229 45.5215 229.295 45.5215Z" fill="white"/>
<path d="M251.725 31.8984C251.232 31.8164 250.699 31.7754 250.125 31.7754C247.992 31.7754 246.545 32.6836 245.783 34.5V48H242.531V28.9805H245.695L245.748 31.1777C246.814 29.4785 248.326 28.6289 250.283 28.6289C250.916 28.6289 251.396 28.7109 251.725 28.875V31.8984Z" fill="white"/>
<path d="M258.264 48H255.012V28.9805H258.264V48ZM254.748 23.9355C254.748 23.4082 254.906 22.9629 255.223 22.5996C255.551 22.2363 256.031 22.0547 256.664 22.0547C257.297 22.0547 257.777 22.2363 258.105 22.5996C258.434 22.9629 258.598 23.4082 258.598 23.9355C258.598 24.4629 258.434 24.9023 258.105 25.2539C257.777 25.6055 257.297 25.7812 256.664 25.7812C256.031 25.7812 255.551 25.6055 255.223 25.2539C254.906 24.9023 254.748 24.4629 254.748 23.9355Z" fill="white"/>
<path d="M262.623 38.3145C262.623 36.4512 262.986 34.7754 263.713 33.2871C264.451 31.7988 265.471 30.6504 266.771 29.8418C268.084 29.0332 269.578 28.6289 271.254 28.6289C273.844 28.6289 275.936 29.5254 277.529 31.3184C279.135 33.1113 279.938 35.4961 279.938 38.4727V38.7012C279.938 40.5527 279.58 42.2168 278.865 43.6934C278.162 45.1582 277.148 46.3008 275.824 47.1211C274.512 47.9414 273 48.3516 271.289 48.3516C268.711 48.3516 266.619 47.4551 265.014 45.6621C263.42 43.8691 262.623 41.4961 262.623 38.543V38.3145ZM265.893 38.7012C265.893 40.8105 266.379 42.5039 267.352 43.7812C268.336 45.0586 269.648 45.6973 271.289 45.6973C272.941 45.6973 274.254 45.0527 275.227 43.7637C276.199 42.4629 276.686 40.6465 276.686 38.3145C276.686 36.2285 276.188 34.541 275.191 33.252C274.207 31.9512 272.895 31.3008 271.254 31.3008C269.648 31.3008 268.354 31.9395 267.369 33.2168C266.385 34.4941 265.893 36.3223 265.893 38.7012Z" fill="white"/>
<path d="M297.357 24.375V28.9805H300.908V31.4941H297.357V43.2891C297.357 44.0508 297.516 44.625 297.832 45.0117C298.148 45.3867 298.688 45.5742 299.449 45.5742C299.824 45.5742 300.34 45.5039 300.996 45.3633V48C300.141 48.2344 299.309 48.3516 298.5 48.3516C297.047 48.3516 295.951 47.9121 295.213 47.0332C294.475 46.1543 294.105 44.9062 294.105 43.2891V31.4941H290.643V28.9805H294.105V24.375H297.357Z" fill="white"/>
<path d="M303.51 38.3145C303.51 36.4512 303.873 34.7754 304.6 33.2871C305.338 31.7988 306.357 30.6504 307.658 29.8418C308.971 29.0332 310.465 28.6289 312.141 28.6289C314.73 28.6289 316.822 29.5254 318.416 31.3184C320.021 33.1113 320.824 35.4961 320.824 38.4727V38.7012C320.824 40.5527 320.467 42.2168 319.752 43.6934C319.049 45.1582 318.035 46.3008 316.711 47.1211C315.398 47.9414 313.887 48.3516 312.176 48.3516C309.598 48.3516 307.506 47.4551 305.9 45.6621C304.307 43.8691 303.51 41.4961 303.51 38.543V38.3145ZM306.779 38.7012C306.779 40.8105 307.266 42.5039 308.238 43.7812C309.223 45.0586 310.535 45.6973 312.176 45.6973C313.828 45.6973 315.141 45.0527 316.113 43.7637C317.086 42.4629 317.572 40.6465 317.572 38.3145C317.572 36.2285 317.074 34.541 316.078 33.252C315.094 31.9512 313.781 31.3008 312.141 31.3008C310.535 31.3008 309.24 31.9395 308.256 33.2168C307.271 34.4941 306.779 36.3223 306.779 38.7012Z" fill="white"/>
<path d="M332.531 45.6973C333.691 45.6973 334.705 45.3457 335.572 44.6426C336.439 43.9395 336.92 43.0605 337.014 42.0059H340.09C340.031 43.0957 339.656 44.1328 338.965 45.1172C338.273 46.1016 337.348 46.8867 336.188 47.4727C335.039 48.0586 333.82 48.3516 332.531 48.3516C329.941 48.3516 327.879 47.4902 326.344 45.7676C324.82 44.0332 324.059 41.666 324.059 38.666V38.1211C324.059 36.2695 324.398 34.623 325.078 33.1816C325.758 31.7402 326.73 30.6211 327.996 29.8242C329.273 29.0273 330.779 28.6289 332.514 28.6289C334.646 28.6289 336.416 29.2676 337.822 30.5449C339.24 31.8223 339.996 33.4805 340.09 35.5195H337.014C336.92 34.2891 336.451 33.2812 335.607 32.4961C334.775 31.6992 333.744 31.3008 332.514 31.3008C330.861 31.3008 329.578 31.8984 328.664 33.0938C327.762 34.2773 327.311 35.9941 327.311 38.2441V38.8594C327.311 41.0508 327.762 42.7383 328.664 43.9219C329.566 45.1055 330.855 45.6973 332.531 45.6973Z" fill="white"/>
<path d="M355.488 48C355.301 47.625 355.148 46.957 355.031 45.9961C353.52 47.5664 351.715 48.3516 349.617 48.3516C347.742 48.3516 346.201 47.8242 344.994 46.7695C343.799 45.7031 343.201 44.3555 343.201 42.7266C343.201 40.7461 343.951 39.2109 345.451 38.1211C346.963 37.0195 349.084 36.4688 351.814 36.4688H354.979V34.9746C354.979 33.8379 354.639 32.9355 353.959 32.2676C353.279 31.5879 352.277 31.248 350.953 31.248C349.793 31.248 348.82 31.541 348.035 32.127C347.25 32.7129 346.857 33.4219 346.857 34.2539H343.588C343.588 33.3047 343.922 32.3906 344.59 31.5117C345.27 30.6211 346.184 29.918 347.332 29.4023C348.492 28.8867 349.764 28.6289 351.146 28.6289C353.338 28.6289 355.055 29.1797 356.297 30.2812C357.539 31.3711 358.184 32.877 358.23 34.7988V43.5527C358.23 45.2988 358.453 46.6875 358.898 47.7188V48H355.488ZM350.092 45.5215C351.111 45.5215 352.078 45.2578 352.992 44.7305C353.906 44.2031 354.568 43.5176 354.979 42.6738V38.7715H352.43C348.445 38.7715 346.453 39.9375 346.453 42.2695C346.453 43.2891 346.793 44.0859 347.473 44.6602C348.152 45.2344 349.025 45.5215 350.092 45.5215Z" fill="white"/>
<path d="M375.791 48H372.539V21H375.791V48Z" fill="white"/>
<path d="M392.754 48C392.566 47.625 392.414 46.957 392.297 45.9961C390.785 47.5664 388.98 48.3516 386.883 48.3516C385.008 48.3516 383.467 47.8242 382.26 46.7695C381.064 45.7031 380.467 44.3555 380.467 42.7266C380.467 40.7461 381.217 39.2109 382.717 38.1211C384.229 37.0195 386.35 36.4688 389.08 36.4688H392.244V34.9746C392.244 33.8379 391.904 32.9355 391.225 32.2676C390.545 31.5879 389.543 31.248 388.219 31.248C387.059 31.248 386.086 31.541 385.301 32.127C384.516 32.7129 384.123 33.4219 384.123 34.2539H380.854C380.854 33.3047 381.188 32.3906 381.855 31.5117C382.535 30.6211 383.449 29.918 384.598 29.4023C385.758 28.8867 387.029 28.6289 388.412 28.6289C390.604 28.6289 392.32 29.1797 393.562 30.2812C394.805 31.3711 395.449 32.877 395.496 34.7988V43.5527C395.496 45.2988 395.719 46.6875 396.164 47.7188V48H392.754ZM387.357 45.5215C388.377 45.5215 389.344 45.2578 390.258 44.7305C391.172 44.2031 391.834 43.5176 392.244 42.6738V38.7715H389.695C385.711 38.7715 383.719 39.9375 383.719 42.2695C383.719 43.2891 384.059 44.0859 384.738 44.6602C385.418 45.2344 386.291 45.5215 387.357 45.5215Z" fill="white"/>
<path d="M425.59 38.7012C425.59 41.5957 424.928 43.9277 423.604 45.6973C422.279 47.4668 420.486 48.3516 418.225 48.3516C415.916 48.3516 414.1 47.6191 412.775 46.1543V55.3125H409.523V28.9805H412.494L412.652 31.0898C413.977 29.4492 415.816 28.6289 418.172 28.6289C420.457 28.6289 422.262 29.4902 423.586 31.2129C424.922 32.9355 425.59 35.332 425.59 38.4023V38.7012ZM422.338 38.332C422.338 36.1875 421.881 34.4941 420.967 33.252C420.053 32.0098 418.799 31.3887 417.205 31.3887C415.236 31.3887 413.76 32.2617 412.775 34.0078V43.0957C413.748 44.8301 415.236 45.6973 417.24 45.6973C418.799 45.6973 420.035 45.082 420.949 43.8516C421.875 42.6094 422.338 40.7695 422.338 38.332Z" fill="white"/>
<path d="M441.48 46.1191C440.215 47.6074 438.357 48.3516 435.908 48.3516C433.881 48.3516 432.334 47.7656 431.268 46.5938C430.213 45.4102 429.68 43.6641 429.668 41.3555V28.9805H432.92V41.2676C432.92 44.1504 434.092 45.5918 436.436 45.5918C438.92 45.5918 440.572 44.666 441.393 42.8145V28.9805H444.645V48H441.551L441.48 46.1191Z" fill="white"/>
<path d="M457.494 48.3516C454.916 48.3516 452.818 47.5078 451.201 45.8203C449.584 44.1211 448.775 41.8535 448.775 39.0176V38.4199C448.775 36.5332 449.133 34.8516 449.848 33.375C450.574 31.8867 451.582 30.7266 452.871 29.8945C454.172 29.0508 455.578 28.6289 457.09 28.6289C459.562 28.6289 461.484 29.4434 462.855 31.0723C464.227 32.7012 464.912 35.0332 464.912 38.0684V39.4219H452.027C452.074 41.2969 452.619 42.8145 453.662 43.9746C454.717 45.123 456.053 45.6973 457.67 45.6973C458.818 45.6973 459.791 45.4629 460.588 44.9941C461.385 44.5254 462.082 43.9043 462.68 43.1309L464.666 44.6777C463.072 47.127 460.682 48.3516 457.494 48.3516ZM457.09 31.3008C455.777 31.3008 454.676 31.7812 453.785 32.7422C452.895 33.6914 452.344 35.0273 452.133 36.75H461.66V36.5039C461.566 34.8516 461.121 33.5742 460.324 32.6719C459.527 31.7578 458.449 31.3008 457.09 31.3008Z" fill="white"/>
<path d="M477.885 31.8984C477.393 31.8164 476.859 31.7754 476.285 31.7754C474.152 31.7754 472.705 32.6836 471.943 34.5V48H468.691V28.9805H471.855L471.908 31.1777C472.975 29.4785 474.486 28.6289 476.443 28.6289C477.076 28.6289 477.557 28.7109 477.885 28.875V31.8984Z" fill="white"/>
<path d="M486.182 24.375V28.9805H489.732V31.4941H486.182V43.2891C486.182 44.0508 486.34 44.625 486.656 45.0117C486.973 45.3867 487.512 45.5742 488.273 45.5742C488.648 45.5742 489.164 45.5039 489.82 45.3633V48C488.965 48.2344 488.133 48.3516 487.324 48.3516C485.871 48.3516 484.775 47.9121 484.037 47.0332C483.299 46.1543 482.93 44.9062 482.93 43.2891V31.4941H479.467V28.9805H482.93V24.375H486.182Z" fill="white"/>
<path d="M505.289 48C505.102 47.625 504.949 46.957 504.832 45.9961C503.32 47.5664 501.516 48.3516 499.418 48.3516C497.543 48.3516 496.002 47.8242 494.795 46.7695C493.6 45.7031 493.002 44.3555 493.002 42.7266C493.002 40.7461 493.752 39.2109 495.252 38.1211C496.764 37.0195 498.885 36.4688 501.615 36.4688H504.779V34.9746C504.779 33.8379 504.439 32.9355 503.76 32.2676C503.08 31.5879 502.078 31.248 500.754 31.248C499.594 31.248 498.621 31.541 497.836 32.127C497.051 32.7129 496.658 33.4219 496.658 34.2539H493.389C493.389 33.3047 493.723 32.3906 494.391 31.5117C495.07 30.6211 495.984 29.918 497.133 29.4023C498.293 28.8867 499.564 28.6289 500.947 28.6289C503.139 28.6289 504.855 29.1797 506.098 30.2812C507.34 31.3711 507.984 32.877 508.031 34.7988V43.5527C508.031 45.2988 508.254 46.6875 508.699 47.7188V48H505.289ZM499.893 45.5215C500.912 45.5215 501.879 45.2578 502.793 44.7305C503.707 44.2031 504.369 43.5176 504.779 42.6738V38.7715H502.23C498.246 38.7715 496.254 39.9375 496.254 42.2695C496.254 43.2891 496.594 44.0859 497.273 44.6602C497.953 45.2344 498.826 45.5215 499.893 45.5215Z" fill="white"/>
<path d="M521.268 38.332C521.268 35.4141 521.959 33.0703 523.342 31.3008C524.725 29.5195 526.535 28.6289 528.773 28.6289C531 28.6289 532.764 29.3906 534.064 30.9141V21H537.316V48H534.328L534.17 45.9609C532.869 47.5547 531.059 48.3516 528.738 48.3516C526.535 48.3516 524.736 47.4492 523.342 45.6445C521.959 43.8398 521.268 41.4844 521.268 38.5781V38.332ZM524.52 38.7012C524.52 40.8574 524.965 42.5449 525.855 43.7637C526.746 44.9824 527.977 45.5918 529.547 45.5918C531.609 45.5918 533.115 44.666 534.064 42.8145V34.0781C533.092 32.2852 531.598 31.3887 529.582 31.3887C527.988 31.3887 526.746 32.0039 525.855 33.2344C524.965 34.4648 524.52 36.2871 524.52 38.7012Z" fill="white"/>
<path d="M554.121 48C553.934 47.625 553.781 46.957 553.664 45.9961C552.152 47.5664 550.348 48.3516 548.25 48.3516C546.375 48.3516 544.834 47.8242 543.627 46.7695C542.432 45.7031 541.834 44.3555 541.834 42.7266C541.834 40.7461 542.584 39.2109 544.084 38.1211C545.596 37.0195 547.717 36.4688 550.447 36.4688H553.611V34.9746C553.611 33.8379 553.271 32.9355 552.592 32.2676C551.912 31.5879 550.91 31.248 549.586 31.248C548.426 31.248 547.453 31.541 546.668 32.127C545.883 32.7129 545.49 33.4219 545.49 34.2539H542.221C542.221 33.3047 542.555 32.3906 543.223 31.5117C543.902 30.6211 544.816 29.918 545.965 29.4023C547.125 28.8867 548.396 28.6289 549.779 28.6289C551.971 28.6289 553.688 29.1797 554.93 30.2812C556.172 31.3711 556.816 32.877 556.863 34.7988V43.5527C556.863 45.2988 557.086 46.6875 557.531 47.7188V48H554.121ZM548.725 45.5215C549.744 45.5215 550.711 45.2578 551.625 44.7305C552.539 44.2031 553.201 43.5176 553.611 42.6738V38.7715H551.062C547.078 38.7715 545.086 39.9375 545.086 42.2695C545.086 43.2891 545.426 44.0859 546.105 44.6602C546.785 45.2344 547.658 45.5215 548.725 45.5215Z" fill="white"/>
<path d="M565.037 28.9805L565.143 31.3711C566.596 29.543 568.494 28.6289 570.838 28.6289C574.857 28.6289 576.885 30.8965 576.92 35.4316V48H573.668V35.4141C573.656 34.043 573.34 33.0293 572.719 32.373C572.109 31.7168 571.154 31.3887 569.854 31.3887C568.799 31.3887 567.873 31.6699 567.076 32.2324C566.279 32.7949 565.658 33.5332 565.213 34.4473V48H561.961V28.9805H565.037Z" fill="white"/>
<path d="M581.033 38.332C581.033 35.4141 581.725 33.0703 583.107 31.3008C584.49 29.5195 586.301 28.6289 588.539 28.6289C590.766 28.6289 592.529 29.3906 593.83 30.9141V21H597.082V48H594.094L593.936 45.9609C592.635 47.5547 590.824 48.3516 588.504 48.3516C586.301 48.3516 584.502 47.4492 583.107 45.6445C581.725 43.8398 581.033 41.4844 581.033 38.5781V38.332ZM584.285 38.7012C584.285 40.8574 584.73 42.5449 585.621 43.7637C586.512 44.9824 587.742 45.5918 589.312 45.5918C591.375 45.5918 592.881 44.666 593.83 42.8145V34.0781C592.857 32.2852 591.363 31.3887 589.348 31.3887C587.754 31.3887 586.512 32.0039 585.621 33.2344C584.73 34.4648 584.285 36.2871 584.285 38.7012Z" fill="white"/>
<path d="M601.283 38.3145C601.283 36.4512 601.646 34.7754 602.373 33.2871C603.111 31.7988 604.131 30.6504 605.432 29.8418C606.744 29.0332 608.238 28.6289 609.914 28.6289C612.504 28.6289 614.596 29.5254 616.189 31.3184C617.795 33.1113 618.598 35.4961 618.598 38.4727V38.7012C618.598 40.5527 618.24 42.2168 617.525 43.6934C616.822 45.1582 615.809 46.3008 614.484 47.1211C613.172 47.9414 611.66 48.3516 609.949 48.3516C607.371 48.3516 605.279 47.4551 603.674 45.6621C602.08 43.8691 601.283 41.4961 601.283 38.543V38.3145ZM604.553 38.7012C604.553 40.8105 605.039 42.5039 606.012 43.7812C606.996 45.0586 608.309 45.6973 609.949 45.6973C611.602 45.6973 612.914 45.0527 613.887 43.7637C614.859 42.4629 615.346 40.6465 615.346 38.3145C615.346 36.2285 614.848 34.541 613.852 33.252C612.867 31.9512 611.555 31.3008 609.914 31.3008C608.309 31.3008 607.014 31.9395 606.029 33.2168C605.045 34.4941 604.553 36.3223 604.553 38.7012Z" fill="white"/>
<path d="M632.766 35.168L634.066 22.4062H647.18V25.4121H636.826L636.053 32.3906C637.307 31.6523 638.73 31.2832 640.324 31.2832C642.656 31.2832 644.508 32.0566 645.879 33.6035C647.25 35.1387 647.936 37.2188 647.936 39.8438C647.936 42.4805 647.221 44.5605 645.791 46.084C644.373 47.5957 642.387 48.3516 639.832 48.3516C637.57 48.3516 635.725 47.7246 634.295 46.4707C632.865 45.2168 632.051 43.4824 631.852 41.2676H634.928C635.127 42.7324 635.648 43.8398 636.492 44.5898C637.336 45.3281 638.449 45.6973 639.832 45.6973C641.344 45.6973 642.527 45.1816 643.383 44.1504C644.25 43.1191 644.684 41.6953 644.684 39.8789C644.684 38.168 644.215 36.7969 643.277 35.7656C642.352 34.7227 641.115 34.2012 639.568 34.2012C638.15 34.2012 637.037 34.5117 636.229 35.1328L635.367 35.8359L632.766 35.168Z" fill="white"/>
<path d="M659.977 38.332C659.977 35.3672 660.662 33.0117 662.033 31.2656C663.404 29.5078 665.221 28.6289 667.482 28.6289C669.803 28.6289 671.613 29.4492 672.914 31.0898L673.072 28.9805H676.043V47.543C676.043 50.0039 675.311 51.9434 673.846 53.3613C672.393 54.7793 670.436 55.4883 667.975 55.4883C666.604 55.4883 665.262 55.1953 663.949 54.6094C662.637 54.0234 661.635 53.2207 660.943 52.2012L662.631 50.25C664.025 51.9727 665.73 52.834 667.746 52.834C669.328 52.834 670.559 52.3887 671.438 51.498C672.328 50.6074 672.773 49.3535 672.773 47.7363V46.1016C671.473 47.6016 669.697 48.3516 667.447 48.3516C665.221 48.3516 663.416 47.4551 662.033 45.6621C660.662 43.8691 659.977 41.4258 659.977 38.332ZM663.246 38.7012C663.246 40.8457 663.686 42.5332 664.564 43.7637C665.443 44.9824 666.674 45.5918 668.256 45.5918C670.307 45.5918 671.812 44.6602 672.773 42.7969V34.1133C671.777 32.2969 670.283 31.3887 668.291 31.3887C666.709 31.3887 665.473 32.0039 664.582 33.2344C663.691 34.4648 663.246 36.2871 663.246 38.7012Z" fill="white"/>
<path d="M680.104 38.3145C680.104 36.4512 680.467 34.7754 681.193 33.2871C681.932 31.7988 682.951 30.6504 684.252 29.8418C685.564 29.0332 687.059 28.6289 688.734 28.6289C691.324 28.6289 693.416 29.5254 695.01 31.3184C696.615 33.1113 697.418 35.4961 697.418 38.4727V38.7012C697.418 40.5527 697.061 42.2168 696.346 43.6934C695.643 45.1582 694.629 46.3008 693.305 47.1211C691.992 47.9414 690.48 48.3516 688.77 48.3516C686.191 48.3516 684.1 47.4551 682.494 45.6621C680.9 43.8691 680.104 41.4961 680.104 38.543V38.3145ZM683.373 38.7012C683.373 40.8105 683.859 42.5039 684.832 43.7812C685.816 45.0586 687.129 45.6973 688.77 45.6973C690.422 45.6973 691.734 45.0527 692.707 43.7637C693.68 42.4629 694.166 40.6465 694.166 38.3145C694.166 36.2285 693.668 34.541 692.672 33.252C691.688 31.9512 690.375 31.3008 688.734 31.3008C687.129 31.3008 685.834 31.9395 684.85 33.2168C683.865 34.4941 683.373 36.3223 683.373 38.7012Z" fill="white"/>
<path d="M705.029 48H701.777V21H705.029V48Z" fill="white"/>
<path d="M726.316 38.7012C726.316 41.5957 725.654 43.9277 724.33 45.6973C723.006 47.4668 721.213 48.3516 718.951 48.3516C716.643 48.3516 714.826 47.6191 713.502 46.1543V55.3125H710.25V28.9805H713.221L713.379 31.0898C714.703 29.4492 716.543 28.6289 718.898 28.6289C721.184 28.6289 722.988 29.4902 724.312 31.2129C725.648 32.9355 726.316 35.332 726.316 38.4023V38.7012ZM723.064 38.332C723.064 36.1875 722.607 34.4941 721.693 33.252C720.779 32.0098 719.525 31.3887 717.932 31.3887C715.963 31.3887 714.486 32.2617 713.502 34.0078V43.0957C714.475 44.8301 715.963 45.6973 717.967 45.6973C719.525 45.6973 720.762 45.082 721.676 43.8516C722.602 42.6094 723.064 40.7695 723.064 38.332Z" fill="white"/>
<path d="M738.357 48.3516C735.779 48.3516 733.682 47.5078 732.064 45.8203C730.447 44.1211 729.639 41.8535 729.639 39.0176V38.4199C729.639 36.5332 729.996 34.8516 730.711 33.375C731.438 31.8867 732.445 30.7266 733.734 29.8945C735.035 29.0508 736.441 28.6289 737.953 28.6289C740.426 28.6289 742.348 29.4434 743.719 31.0723C745.09 32.7012 745.775 35.0332 745.775 38.0684V39.4219H732.891C732.938 41.2969 733.482 42.8145 734.525 43.9746C735.58 45.123 736.916 45.6973 738.533 45.6973C739.682 45.6973 740.654 45.4629 741.451 44.9941C742.248 44.5254 742.945 43.9043 743.543 43.1309L745.529 44.6777C743.936 47.127 741.545 48.3516 738.357 48.3516ZM737.953 31.3008C736.641 31.3008 735.539 31.7812 734.648 32.7422C733.758 33.6914 733.207 35.0273 732.996 36.75H742.523V36.5039C742.43 34.8516 741.984 33.5742 741.188 32.6719C740.391 31.7578 739.312 31.3008 737.953 31.3008Z" fill="white"/>
<path d="M760.629 42.9551C760.629 42.0762 760.295 41.3965 759.627 40.916C758.971 40.4238 757.816 40.002 756.164 39.6504C754.523 39.2988 753.217 38.877 752.244 38.3848C751.283 37.8926 750.568 37.3066 750.1 36.627C749.643 35.9473 749.414 35.1387 749.414 34.2012C749.414 32.6426 750.07 31.3242 751.383 30.2461C752.707 29.168 754.395 28.6289 756.445 28.6289C758.602 28.6289 760.348 29.1855 761.684 30.2988C763.031 31.4121 763.705 32.8359 763.705 34.5703H760.436C760.436 33.6797 760.055 32.9121 759.293 32.2676C758.543 31.623 757.594 31.3008 756.445 31.3008C755.262 31.3008 754.336 31.5586 753.668 32.0742C753 32.5898 752.666 33.2637 752.666 34.0957C752.666 34.8809 752.977 35.4727 753.598 35.8711C754.219 36.2695 755.338 36.6504 756.955 37.0137C758.584 37.377 759.902 37.8105 760.91 38.3145C761.918 38.8184 762.662 39.4277 763.143 40.1426C763.635 40.8457 763.881 41.707 763.881 42.7266C763.881 44.4258 763.201 45.791 761.842 46.8223C760.482 47.8418 758.719 48.3516 756.551 48.3516C755.027 48.3516 753.68 48.082 752.508 47.543C751.336 47.0039 750.416 46.2539 749.748 45.293C749.092 44.3203 748.764 43.2715 748.764 42.1465H752.016C752.074 43.2363 752.508 44.1035 753.316 44.748C754.137 45.3809 755.215 45.6973 756.551 45.6973C757.781 45.6973 758.766 45.4512 759.504 44.959C760.254 44.4551 760.629 43.7871 760.629 42.9551Z" fill="white"/>
<path d="M784.939 48.3516C782.361 48.3516 780.264 47.5078 778.646 45.8203C777.029 44.1211 776.221 41.8535 776.221 39.0176V38.4199C776.221 36.5332 776.578 34.8516 777.293 33.375C778.02 31.8867 779.027 30.7266 780.316 29.8945C781.617 29.0508 783.023 28.6289 784.535 28.6289C787.008 28.6289 788.93 29.4434 790.301 31.0723C791.672 32.7012 792.357 35.0332 792.357 38.0684V39.4219H779.473C779.52 41.2969 780.064 42.8145 781.107 43.9746C782.162 45.123 783.498 45.6973 785.115 45.6973C786.264 45.6973 787.236 45.4629 788.033 44.9941C788.83 44.5254 789.527 43.9043 790.125 43.1309L792.111 44.6777C790.518 47.127 788.127 48.3516 784.939 48.3516ZM784.535 31.3008C783.223 31.3008 782.121 31.7812 781.23 32.7422C780.34 33.6914 779.789 35.0273 779.578 36.75H789.105V36.5039C789.012 34.8516 788.566 33.5742 787.77 32.6719C786.973 31.7578 785.895 31.3008 784.535 31.3008Z" fill="white"/>
<path d="M799.213 28.9805L799.318 31.3711C800.771 29.543 802.67 28.6289 805.014 28.6289C809.033 28.6289 811.061 30.8965 811.096 35.4316V48H807.844V35.4141C807.832 34.043 807.516 33.0293 806.895 32.373C806.285 31.7168 805.33 31.3887 804.029 31.3887C802.975 31.3887 802.049 31.6699 801.252 32.2324C800.455 32.7949 799.834 33.5332 799.389 34.4473V48H796.137V28.9805H799.213Z" fill="white"/>
<path d="M841.365 48H824.596V45.6621L833.455 35.8184C834.768 34.3301 835.67 33.123 836.162 32.1973C836.666 31.2598 836.918 30.293 836.918 29.2969C836.918 27.9609 836.514 26.8652 835.705 26.0098C834.896 25.1543 833.818 24.7266 832.471 24.7266C830.854 24.7266 829.594 25.1895 828.691 26.1152C827.801 27.0293 827.355 28.3066 827.355 29.9473H824.104C824.104 27.5918 824.859 25.6875 826.371 24.2344C827.895 22.7812 829.928 22.0547 832.471 22.0547C834.85 22.0547 836.73 22.6816 838.113 23.9355C839.496 25.1777 840.188 26.8359 840.188 28.9102C840.188 31.4297 838.582 34.4297 835.371 37.9102L828.516 45.3457H841.365V48Z" fill="white"/>
<path d="M163.535 82.9551C163.535 82.0762 163.201 81.3965 162.533 80.916C161.877 80.4238 160.723 80.002 159.07 79.6504C157.43 79.2988 156.123 78.877 155.15 78.3848C154.189 77.8926 153.475 77.3066 153.006 76.627C152.549 75.9473 152.32 75.1387 152.32 74.2012C152.32 72.6426 152.977 71.3242 154.289 70.2461C155.613 69.168 157.301 68.6289 159.352 68.6289C161.508 68.6289 163.254 69.1855 164.59 70.2988C165.938 71.4121 166.611 72.8359 166.611 74.5703H163.342C163.342 73.6797 162.961 72.9121 162.199 72.2676C161.449 71.623 160.5 71.3008 159.352 71.3008C158.168 71.3008 157.242 71.5586 156.574 72.0742C155.906 72.5898 155.572 73.2637 155.572 74.0957C155.572 74.8809 155.883 75.4727 156.504 75.8711C157.125 76.2695 158.244 76.6504 159.861 77.0137C161.49 77.377 162.809 77.8105 163.816 78.3145C164.824 78.8184 165.568 79.4277 166.049 80.1426C166.541 80.8457 166.787 81.707 166.787 82.7266C166.787 84.4258 166.107 85.791 164.748 86.8223C163.389 87.8418 161.625 88.3516 159.457 88.3516C157.934 88.3516 156.586 88.082 155.414 87.543C154.242 87.0039 153.322 86.2539 152.654 85.293C151.998 84.3203 151.67 83.2715 151.67 82.1465H154.922C154.98 83.2363 155.414 84.1035 156.223 84.748C157.043 85.3809 158.121 85.6973 159.457 85.6973C160.688 85.6973 161.672 85.4512 162.41 84.959C163.16 84.4551 163.535 83.7871 163.535 82.9551Z" fill="white"/>
<path d="M178.916 88.3516C176.338 88.3516 174.24 87.5078 172.623 85.8203C171.006 84.1211 170.197 81.8535 170.197 79.0176V78.4199C170.197 76.5332 170.555 74.8516 171.27 73.375C171.996 71.8867 173.004 70.7266 174.293 69.8945C175.594 69.0508 177 68.6289 178.512 68.6289C180.984 68.6289 182.906 69.4434 184.277 71.0723C185.648 72.7012 186.334 75.0332 186.334 78.0684V79.4219H173.449C173.496 81.2969 174.041 82.8145 175.084 83.9746C176.139 85.123 177.475 85.6973 179.092 85.6973C180.24 85.6973 181.213 85.4629 182.01 84.9941C182.807 84.5254 183.504 83.9043 184.102 83.1309L186.088 84.6777C184.494 87.127 182.104 88.3516 178.916 88.3516ZM178.512 71.3008C177.199 71.3008 176.098 71.7812 175.207 72.7422C174.316 73.6914 173.766 75.0273 173.555 76.75H183.082V76.5039C182.988 74.8516 182.543 73.5742 181.746 72.6719C180.949 71.7578 179.871 71.3008 178.512 71.3008Z" fill="white"/>
<path d="M189.34 78.332C189.34 75.3672 190.025 73.0117 191.396 71.2656C192.768 69.5078 194.584 68.6289 196.846 68.6289C199.166 68.6289 200.977 69.4492 202.277 71.0898L202.436 68.9805H205.406V87.543C205.406 90.0039 204.674 91.9434 203.209 93.3613C201.756 94.7793 199.799 95.4883 197.338 95.4883C195.967 95.4883 194.625 95.1953 193.312 94.6094C192 94.0234 190.998 93.2207 190.307 92.2012L191.994 90.25C193.389 91.9727 195.094 92.834 197.109 92.834C198.691 92.834 199.922 92.3887 200.801 91.498C201.691 90.6074 202.137 89.3535 202.137 87.7363V86.1016C200.836 87.6016 199.061 88.3516 196.811 88.3516C194.584 88.3516 192.779 87.4551 191.396 85.6621C190.025 83.8691 189.34 81.4258 189.34 78.332ZM192.609 78.7012C192.609 80.8457 193.049 82.5332 193.928 83.7637C194.807 84.9824 196.037 85.5918 197.619 85.5918C199.67 85.5918 201.176 84.6602 202.137 82.7969V74.1133C201.141 72.2969 199.646 71.3887 197.654 71.3887C196.072 71.3887 194.836 72.0039 193.945 73.2344C193.055 74.4648 192.609 76.2871 192.609 78.7012Z" fill="white"/>
<path d="M222.07 86.1191C220.805 87.6074 218.947 88.3516 216.498 88.3516C214.471 88.3516 212.924 87.7656 211.857 86.5938C210.803 85.4102 210.27 83.6641 210.258 81.3555V68.9805H213.51V81.2676C213.51 84.1504 214.682 85.5918 217.025 85.5918C219.51 85.5918 221.162 84.666 221.982 82.8145V68.9805H225.234V88H222.141L222.07 86.1191Z" fill="white"/>
<path d="M233.268 68.9805L233.373 71.3711C234.826 69.543 236.725 68.6289 239.068 68.6289C243.088 68.6289 245.115 70.8965 245.15 75.4316V88H241.898V75.4141C241.887 74.043 241.57 73.0293 240.949 72.373C240.34 71.7168 239.385 71.3887 238.084 71.3887C237.029 71.3887 236.104 71.6699 235.307 72.2324C234.51 72.7949 233.889 73.5332 233.443 74.4473V88H230.191V68.9805H233.268Z" fill="white"/>
<path d="M249.264 78.332C249.264 75.4141 249.955 73.0703 251.338 71.3008C252.721 69.5195 254.531 68.6289 256.77 68.6289C258.996 68.6289 260.76 69.3906 262.061 70.9141V61H265.312V88H262.324L262.166 85.9609C260.865 87.5547 259.055 88.3516 256.734 88.3516C254.531 88.3516 252.732 87.4492 251.338 85.6445C249.955 83.8398 249.264 81.4844 249.264 78.5781V78.332ZM252.516 78.7012C252.516 80.8574 252.961 82.5449 253.852 83.7637C254.742 84.9824 255.973 85.5918 257.543 85.5918C259.605 85.5918 261.111 84.666 262.061 82.8145V74.0781C261.088 72.2852 259.594 71.3887 257.578 71.3887C255.984 71.3887 254.742 72.0039 253.852 73.2344C252.961 74.4648 252.516 76.2871 252.516 78.7012Z" fill="white"/>
<path d="M269.514 78.3145C269.514 76.4512 269.877 74.7754 270.604 73.2871C271.342 71.7988 272.361 70.6504 273.662 69.8418C274.975 69.0332 276.469 68.6289 278.145 68.6289C280.734 68.6289 282.826 69.5254 284.42 71.3184C286.025 73.1113 286.828 75.4961 286.828 78.4727V78.7012C286.828 80.5527 286.471 82.2168 285.756 83.6934C285.053 85.1582 284.039 86.3008 282.715 87.1211C281.402 87.9414 279.891 88.3516 278.18 88.3516C275.602 88.3516 273.51 87.4551 271.904 85.6621C270.311 83.8691 269.514 81.4961 269.514 78.543V78.3145ZM272.783 78.7012C272.783 80.8105 273.27 82.5039 274.242 83.7812C275.227 85.0586 276.539 85.6973 278.18 85.6973C279.832 85.6973 281.145 85.0527 282.117 83.7637C283.09 82.4629 283.576 80.6465 283.576 78.3145C283.576 76.2285 283.078 74.541 282.082 73.252C281.098 71.9512 279.785 71.3008 278.145 71.3008C276.539 71.3008 275.244 71.9395 274.26 73.2168C273.275 74.4941 272.783 76.3223 272.783 78.7012Z" fill="white"/>
<path d="M301.98 82.9551C301.98 82.0762 301.646 81.3965 300.979 80.916C300.322 80.4238 299.168 80.002 297.516 79.6504C295.875 79.2988 294.568 78.877 293.596 78.3848C292.635 77.8926 291.92 77.3066 291.451 76.627C290.994 75.9473 290.766 75.1387 290.766 74.2012C290.766 72.6426 291.422 71.3242 292.734 70.2461C294.059 69.168 295.746 68.6289 297.797 68.6289C299.953 68.6289 301.699 69.1855 303.035 70.2988C304.383 71.4121 305.057 72.8359 305.057 74.5703H301.787C301.787 73.6797 301.406 72.9121 300.645 72.2676C299.895 71.623 298.945 71.3008 297.797 71.3008C296.613 71.3008 295.688 71.5586 295.02 72.0742C294.352 72.5898 294.018 73.2637 294.018 74.0957C294.018 74.8809 294.328 75.4727 294.949 75.8711C295.57 76.2695 296.689 76.6504 298.307 77.0137C299.936 77.377 301.254 77.8105 302.262 78.3145C303.27 78.8184 304.014 79.4277 304.494 80.1426C304.986 80.8457 305.232 81.707 305.232 82.7266C305.232 84.4258 304.553 85.791 303.193 86.8223C301.834 87.8418 300.07 88.3516 297.902 88.3516C296.379 88.3516 295.031 88.082 293.859 87.543C292.688 87.0039 291.768 86.2539 291.1 85.293C290.443 84.3203 290.115 83.2715 290.115 82.1465H293.367C293.426 83.2363 293.859 84.1035 294.668 84.748C295.488 85.3809 296.566 85.6973 297.902 85.6973C299.133 85.6973 300.117 85.4512 300.855 84.959C301.605 84.4551 301.98 83.7871 301.98 82.9551Z" fill="white"/>
<path d="M309.363 93.0977L307.518 91.832C308.619 90.2969 309.193 88.7148 309.24 87.0859V84.1504H312.422V86.6992C312.422 87.8828 312.129 89.0664 311.543 90.25C310.969 91.4336 310.242 92.3828 309.363 93.0977Z" fill="white"/>
<path d="M333.34 76.0469C333.328 77.2891 333.199 78.2852 332.953 79.0352C332.719 79.7734 332.32 80.4883 331.758 81.1797C331.195 81.8711 330.375 82.7852 329.297 83.9219C328.219 85.0469 327.615 86.1895 327.486 87.3496L327.451 88C327.451 89.2773 327.791 90.25 328.471 90.918C329.15 91.5977 330.129 91.9375 331.406 91.9375C332.578 91.9375 333.527 91.6035 334.254 90.9355C334.992 90.2793 335.361 89.418 335.361 88.3516H338.613C338.59 90.2383 337.916 91.7793 336.592 92.9746C335.279 94.1699 333.551 94.7676 331.406 94.7676C329.109 94.7676 327.334 94.1758 326.08 92.9922C324.826 91.8203 324.199 90.1855 324.199 88.0879C324.199 86.0605 325.137 84.0215 327.012 81.9707L328.928 79.9844C329.701 79.0703 330.088 77.7578 330.088 76.0469H333.34ZM333.48 70.4746C333.48 71.002 333.316 71.4473 332.988 71.8105C332.672 72.1738 332.197 72.3555 331.564 72.3555C330.932 72.3555 330.451 72.1738 330.123 71.8105C329.795 71.4473 329.631 71.002 329.631 70.4746C329.631 69.959 329.795 69.5254 330.123 69.1738C330.451 68.8223 330.932 68.6465 331.564 68.6465C332.197 68.6465 332.672 68.8223 332.988 69.1738C333.316 69.5254 333.48 69.959 333.48 70.4746Z" fill="white"/>
<path d="M350.145 85.6973C351.305 85.6973 352.318 85.3457 353.186 84.6426C354.053 83.9395 354.533 83.0605 354.627 82.0059H357.703C357.645 83.0957 357.27 84.1328 356.578 85.1172C355.887 86.1016 354.961 86.8867 353.801 87.4727C352.652 88.0586 351.434 88.3516 350.145 88.3516C347.555 88.3516 345.492 87.4902 343.957 85.7676C342.434 84.0332 341.672 81.666 341.672 78.666V78.1211C341.672 76.2695 342.012 74.623 342.691 73.1816C343.371 71.7402 344.344 70.6211 345.609 69.8242C346.887 69.0273 348.393 68.6289 350.127 68.6289C352.26 68.6289 354.029 69.2676 355.436 70.5449C356.854 71.8223 357.609 73.4805 357.703 75.5195H354.627C354.533 74.2891 354.064 73.2812 353.221 72.4961C352.389 71.6992 351.357 71.3008 350.127 71.3008C348.475 71.3008 347.191 71.8984 346.277 73.0938C345.375 74.2773 344.924 75.9941 344.924 78.2441V78.8594C344.924 81.0508 345.375 82.7383 346.277 83.9219C347.18 85.1055 348.469 85.6973 350.145 85.6973Z" fill="white"/>
<path d="M373.102 86.1191C371.836 87.6074 369.979 88.3516 367.529 88.3516C365.502 88.3516 363.955 87.7656 362.889 86.5938C361.834 85.4102 361.301 83.6641 361.289 81.3555V68.9805H364.541V81.2676C364.541 84.1504 365.713 85.5918 368.057 85.5918C370.541 85.5918 372.193 84.666 373.014 82.8145V68.9805H376.266V88H373.172L373.102 86.1191Z" fill="white"/>
<path d="M392.965 88C392.777 87.625 392.625 86.957 392.508 85.9961C390.996 87.5664 389.191 88.3516 387.094 88.3516C385.219 88.3516 383.678 87.8242 382.471 86.7695C381.275 85.7031 380.678 84.3555 380.678 82.7266C380.678 80.7461 381.428 79.2109 382.928 78.1211C384.439 77.0195 386.561 76.4688 389.291 76.4688H392.455V74.9746C392.455 73.8379 392.115 72.9355 391.436 72.2676C390.756 71.5879 389.754 71.248 388.43 71.248C387.27 71.248 386.297 71.541 385.512 72.127C384.727 72.7129 384.334 73.4219 384.334 74.2539H381.064C381.064 73.3047 381.398 72.3906 382.066 71.5117C382.746 70.6211 383.66 69.918 384.809 69.4023C385.969 68.8867 387.24 68.6289 388.623 68.6289C390.814 68.6289 392.531 69.1797 393.773 70.2812C395.016 71.3711 395.66 72.877 395.707 74.7988V83.5527C395.707 85.2988 395.93 86.6875 396.375 87.7188V88H392.965ZM387.568 85.5215C388.588 85.5215 389.555 85.2578 390.469 84.7305C391.383 84.2031 392.045 83.5176 392.455 82.6738V78.7715H389.906C385.922 78.7715 383.93 79.9375 383.93 82.2695C383.93 83.2891 384.27 84.0859 384.949 84.6602C385.629 85.2344 386.502 85.5215 387.568 85.5215ZM390.574 61H394.512L389.801 66.168H387.182L390.574 61Z" fill="white"/>
<path d="M403.881 68.9805L403.986 71.3711C405.439 69.543 407.338 68.6289 409.682 68.6289C413.701 68.6289 415.729 70.8965 415.764 75.4316V88H412.512V75.4141C412.5 74.043 412.184 73.0293 411.562 72.373C410.953 71.7168 409.998 71.3887 408.697 71.3887C407.643 71.3887 406.717 71.6699 405.92 72.2324C405.123 72.7949 404.502 73.5332 404.057 74.4473V88H400.805V68.9805H403.881Z" fill="white"/>
<path d="M425.08 64.375V68.9805H428.631V71.4941H425.08V83.2891C425.08 84.0508 425.238 84.625 425.555 85.0117C425.871 85.3867 426.41 85.5742 427.172 85.5742C427.547 85.5742 428.062 85.5039 428.719 85.3633V88C427.863 88.2344 427.031 88.3516 426.223 88.3516C424.77 88.3516 423.674 87.9121 422.936 87.0332C422.197 86.1543 421.828 84.9062 421.828 83.2891V71.4941H418.365V68.9805H421.828V64.375H425.08Z" fill="white"/>
<path d="M431.232 78.3145C431.232 76.4512 431.596 74.7754 432.322 73.2871C433.061 71.7988 434.08 70.6504 435.381 69.8418C436.693 69.0332 438.188 68.6289 439.863 68.6289C442.453 68.6289 444.545 69.5254 446.139 71.3184C447.744 73.1113 448.547 75.4961 448.547 78.4727V78.7012C448.547 80.5527 448.189 82.2168 447.475 83.6934C446.771 85.1582 445.758 86.3008 444.434 87.1211C443.121 87.9414 441.609 88.3516 439.898 88.3516C437.32 88.3516 435.229 87.4551 433.623 85.6621C432.029 83.8691 431.232 81.4961 431.232 78.543V78.3145ZM434.502 78.7012C434.502 80.8105 434.988 82.5039 435.961 83.7812C436.945 85.0586 438.258 85.6973 439.898 85.6973C441.551 85.6973 442.863 85.0527 443.836 83.7637C444.809 82.4629 445.295 80.6465 445.295 78.3145C445.295 76.2285 444.797 74.541 443.801 73.252C442.816 71.9512 441.504 71.3008 439.863 71.3008C438.258 71.3008 436.963 71.9395 435.979 73.2168C434.994 74.4941 434.502 76.3223 434.502 78.7012Z" fill="white"/>
<path d="M463.699 82.9551C463.699 82.0762 463.365 81.3965 462.697 80.916C462.041 80.4238 460.887 80.002 459.234 79.6504C457.594 79.2988 456.287 78.877 455.314 78.3848C454.354 77.8926 453.639 77.3066 453.17 76.627C452.713 75.9473 452.484 75.1387 452.484 74.2012C452.484 72.6426 453.141 71.3242 454.453 70.2461C455.777 69.168 457.465 68.6289 459.516 68.6289C461.672 68.6289 463.418 69.1855 464.754 70.2988C466.102 71.4121 466.775 72.8359 466.775 74.5703H463.506C463.506 73.6797 463.125 72.9121 462.363 72.2676C461.613 71.623 460.664 71.3008 459.516 71.3008C458.332 71.3008 457.406 71.5586 456.738 72.0742C456.07 72.5898 455.736 73.2637 455.736 74.0957C455.736 74.8809 456.047 75.4727 456.668 75.8711C457.289 76.2695 458.408 76.6504 460.025 77.0137C461.654 77.377 462.973 77.8105 463.98 78.3145C464.988 78.8184 465.732 79.4277 466.213 80.1426C466.705 80.8457 466.951 81.707 466.951 82.7266C466.951 84.4258 466.271 85.791 464.912 86.8223C463.553 87.8418 461.789 88.3516 459.621 88.3516C458.098 88.3516 456.75 88.082 455.578 87.543C454.406 87.0039 453.486 86.2539 452.818 85.293C452.162 84.3203 451.834 83.2715 451.834 82.1465H455.086C455.145 83.2363 455.578 84.1035 456.387 84.748C457.207 85.3809 458.285 85.6973 459.621 85.6973C460.852 85.6973 461.836 85.4512 462.574 84.959C463.324 84.4551 463.699 83.7871 463.699 82.9551Z" fill="white"/>
<path d="M479.344 78.332C479.344 75.3672 480.029 73.0117 481.4 71.2656C482.771 69.5078 484.588 68.6289 486.85 68.6289C489.17 68.6289 490.98 69.4492 492.281 71.0898L492.439 68.9805H495.41V87.543C495.41 90.0039 494.678 91.9434 493.213 93.3613C491.76 94.7793 489.803 95.4883 487.342 95.4883C485.971 95.4883 484.629 95.1953 483.316 94.6094C482.004 94.0234 481.002 93.2207 480.311 92.2012L481.998 90.25C483.393 91.9727 485.098 92.834 487.113 92.834C488.695 92.834 489.926 92.3887 490.805 91.498C491.695 90.6074 492.141 89.3535 492.141 87.7363V86.1016C490.84 87.6016 489.064 88.3516 486.814 88.3516C484.588 88.3516 482.783 87.4551 481.4 85.6621C480.029 83.8691 479.344 81.4258 479.344 78.332ZM482.613 78.7012C482.613 80.8457 483.053 82.5332 483.932 83.7637C484.811 84.9824 486.041 85.5918 487.623 85.5918C489.674 85.5918 491.18 84.6602 492.141 82.7969V74.1133C491.145 72.2969 489.65 71.3887 487.658 71.3887C486.076 71.3887 484.84 72.0039 483.949 73.2344C483.059 74.4648 482.613 76.2871 482.613 78.7012Z" fill="white"/>
<path d="M499.471 78.3145C499.471 76.4512 499.834 74.7754 500.561 73.2871C501.299 71.7988 502.318 70.6504 503.619 69.8418C504.932 69.0332 506.426 68.6289 508.102 68.6289C510.691 68.6289 512.783 69.5254 514.377 71.3184C515.982 73.1113 516.785 75.4961 516.785 78.4727V78.7012C516.785 80.5527 516.428 82.2168 515.713 83.6934C515.01 85.1582 513.996 86.3008 512.672 87.1211C511.359 87.9414 509.848 88.3516 508.137 88.3516C505.559 88.3516 503.467 87.4551 501.861 85.6621C500.268 83.8691 499.471 81.4961 499.471 78.543V78.3145ZM502.74 78.7012C502.74 80.8105 503.227 82.5039 504.199 83.7812C505.184 85.0586 506.496 85.6973 508.137 85.6973C509.789 85.6973 511.102 85.0527 512.074 83.7637C513.047 82.4629 513.533 80.6465 513.533 78.3145C513.533 76.2285 513.035 74.541 512.039 73.252C511.055 71.9512 509.742 71.3008 508.102 71.3008C506.496 71.3008 505.201 71.9395 504.217 73.2168C503.232 74.4941 502.74 76.3223 502.74 78.7012Z" fill="white"/>
<path d="M524.396 88H521.145V61H524.396V88Z" fill="white"/>
<path d="M545.684 78.7012C545.684 81.5957 545.021 83.9277 543.697 85.6973C542.373 87.4668 540.58 88.3516 538.318 88.3516C536.01 88.3516 534.193 87.6191 532.869 86.1543V95.3125H529.617V68.9805H532.588L532.746 71.0898C534.07 69.4492 535.91 68.6289 538.266 68.6289C540.551 68.6289 542.355 69.4902 543.68 71.2129C545.016 72.9355 545.684 75.332 545.684 78.4023V78.7012ZM542.432 78.332C542.432 76.1875 541.975 74.4941 541.061 73.252C540.146 72.0098 538.893 71.3887 537.299 71.3887C535.33 71.3887 533.854 72.2617 532.869 74.0078V83.0957C533.842 84.8301 535.33 85.6973 537.334 85.6973C538.893 85.6973 540.129 85.082 541.043 83.8516C541.969 82.6094 542.432 80.7695 542.432 78.332Z" fill="white"/>
<path d="M557.725 88.3516C555.146 88.3516 553.049 87.5078 551.432 85.8203C549.814 84.1211 549.006 81.8535 549.006 79.0176V78.4199C549.006 76.5332 549.363 74.8516 550.078 73.375C550.805 71.8867 551.812 70.7266 553.102 69.8945C554.402 69.0508 555.809 68.6289 557.32 68.6289C559.793 68.6289 561.715 69.4434 563.086 71.0723C564.457 72.7012 565.143 75.0332 565.143 78.0684V79.4219H552.258C552.305 81.2969 552.85 82.8145 553.893 83.9746C554.947 85.123 556.283 85.6973 557.9 85.6973C559.049 85.6973 560.021 85.4629 560.818 84.9941C561.615 84.5254 562.312 83.9043 562.91 83.1309L564.896 84.6777C563.303 87.127 560.912 88.3516 557.725 88.3516ZM557.32 71.3008C556.008 71.3008 554.906 71.7812 554.016 72.7422C553.125 73.6914 552.574 75.0273 552.363 76.75H561.891V76.5039C561.797 74.8516 561.352 73.5742 560.555 72.6719C559.758 71.7578 558.68 71.3008 557.32 71.3008Z" fill="white"/>
<path d="M579.996 82.9551C579.996 82.0762 579.662 81.3965 578.994 80.916C578.338 80.4238 577.184 80.002 575.531 79.6504C573.891 79.2988 572.584 78.877 571.611 78.3848C570.65 77.8926 569.936 77.3066 569.467 76.627C569.01 75.9473 568.781 75.1387 568.781 74.2012C568.781 72.6426 569.438 71.3242 570.75 70.2461C572.074 69.168 573.762 68.6289 575.812 68.6289C577.969 68.6289 579.715 69.1855 581.051 70.2988C582.398 71.4121 583.072 72.8359 583.072 74.5703H579.803C579.803 73.6797 579.422 72.9121 578.66 72.2676C577.91 71.623 576.961 71.3008 575.812 71.3008C574.629 71.3008 573.703 71.5586 573.035 72.0742C572.367 72.5898 572.033 73.2637 572.033 74.0957C572.033 74.8809 572.344 75.4727 572.965 75.8711C573.586 76.2695 574.705 76.6504 576.322 77.0137C577.951 77.377 579.27 77.8105 580.277 78.3145C581.285 78.8184 582.029 79.4277 582.51 80.1426C583.002 80.8457 583.248 81.707 583.248 82.7266C583.248 84.4258 582.568 85.791 581.209 86.8223C579.85 87.8418 578.086 88.3516 575.918 88.3516C574.395 88.3516 573.047 88.082 571.875 87.543C570.703 87.0039 569.783 86.2539 569.115 85.293C568.459 84.3203 568.131 83.2715 568.131 82.1465H571.383C571.441 83.2363 571.875 84.1035 572.684 84.748C573.504 85.3809 574.582 85.6973 575.918 85.6973C577.148 85.6973 578.133 85.4512 578.871 84.959C579.621 84.4551 579.996 83.7871 579.996 82.9551Z" fill="white"/>
<path d="M595.623 78.332C595.623 75.4141 596.314 73.0703 597.697 71.3008C599.08 69.5195 600.891 68.6289 603.129 68.6289C605.355 68.6289 607.119 69.3906 608.42 70.9141V61H611.672V88H608.684L608.525 85.9609C607.225 87.5547 605.414 88.3516 603.094 88.3516C600.891 88.3516 599.092 87.4492 597.697 85.6445C596.314 83.8398 595.623 81.4844 595.623 78.5781V78.332ZM598.875 78.7012C598.875 80.8574 599.32 82.5449 600.211 83.7637C601.102 84.9824 602.332 85.5918 603.902 85.5918C605.965 85.5918 607.471 84.666 608.42 82.8145V74.0781C607.447 72.2852 605.953 71.3887 603.938 71.3887C602.344 71.3887 601.102 72.0039 600.211 73.2344C599.32 74.4648 598.875 76.2871 598.875 78.7012Z" fill="white"/>
<path d="M628.477 88C628.289 87.625 628.137 86.957 628.02 85.9961C626.508 87.5664 624.703 88.3516 622.605 88.3516C620.73 88.3516 619.189 87.8242 617.982 86.7695C616.787 85.7031 616.189 84.3555 616.189 82.7266C616.189 80.7461 616.939 79.2109 618.439 78.1211C619.951 77.0195 622.072 76.4688 624.803 76.4688H627.967V74.9746C627.967 73.8379 627.627 72.9355 626.947 72.2676C626.268 71.5879 625.266 71.248 623.941 71.248C622.781 71.248 621.809 71.541 621.023 72.127C620.238 72.7129 619.846 73.4219 619.846 74.2539H616.576C616.576 73.3047 616.91 72.3906 617.578 71.5117C618.258 70.6211 619.172 69.918 620.32 69.4023C621.48 68.8867 622.752 68.6289 624.135 68.6289C626.326 68.6289 628.043 69.1797 629.285 70.2812C630.527 71.3711 631.172 72.877 631.219 74.7988V83.5527C631.219 85.2988 631.441 86.6875 631.887 87.7188V88H628.477ZM623.08 85.5215C624.1 85.5215 625.066 85.2578 625.98 84.7305C626.895 84.2031 627.557 83.5176 627.967 82.6738V78.7715H625.418C621.434 78.7715 619.441 79.9375 619.441 82.2695C619.441 83.2891 619.781 84.0859 620.461 84.6602C621.141 85.2344 622.014 85.5215 623.08 85.5215Z" fill="white"/>
<path d="M645.51 71.8984C645.018 71.8164 644.484 71.7754 643.91 71.7754C641.777 71.7754 640.33 72.6836 639.568 74.5V88H636.316V68.9805H639.48L639.533 71.1777C640.6 69.4785 642.111 68.6289 644.068 68.6289C644.701 68.6289 645.182 68.7109 645.51 68.875V71.8984Z" fill="white"/>
<path d="M659.555 88C659.367 87.625 659.215 86.957 659.098 85.9961C657.586 87.5664 655.781 88.3516 653.684 88.3516C651.809 88.3516 650.268 87.8242 649.061 86.7695C647.865 85.7031 647.268 84.3555 647.268 82.7266C647.268 80.7461 648.018 79.2109 649.518 78.1211C651.029 77.0195 653.15 76.4688 655.881 76.4688H659.045V74.9746C659.045 73.8379 658.705 72.9355 658.025 72.2676C657.346 71.5879 656.344 71.248 655.02 71.248C653.859 71.248 652.887 71.541 652.102 72.127C651.316 72.7129 650.924 73.4219 650.924 74.2539H647.654C647.654 73.3047 647.988 72.3906 648.656 71.5117C649.336 70.6211 650.25 69.918 651.398 69.4023C652.559 68.8867 653.83 68.6289 655.213 68.6289C657.404 68.6289 659.121 69.1797 660.363 70.2812C661.605 71.3711 662.25 72.877 662.297 74.7988V83.5527C662.297 85.2988 662.52 86.6875 662.965 87.7188V88H659.555ZM654.158 85.5215C655.178 85.5215 656.145 85.2578 657.059 84.7305C657.973 84.2031 658.635 83.5176 659.045 82.6738V78.7715H656.496C652.512 78.7715 650.52 79.9375 650.52 82.2695C650.52 83.2891 650.859 84.0859 651.539 84.6602C652.219 85.2344 653.092 85.5215 654.158 85.5215ZM657.164 61H661.102L656.391 66.168H653.771L657.164 61Z" fill="white"/>
<path d="M684.217 88.3516C681.639 88.3516 679.541 87.5078 677.924 85.8203C676.307 84.1211 675.498 81.8535 675.498 79.0176V78.4199C675.498 76.5332 675.855 74.8516 676.57 73.375C677.297 71.8867 678.305 70.7266 679.594 69.8945C680.895 69.0508 682.301 68.6289 683.812 68.6289C686.285 68.6289 688.207 69.4434 689.578 71.0723C690.949 72.7012 691.635 75.0332 691.635 78.0684V79.4219H678.75C678.797 81.2969 679.342 82.8145 680.385 83.9746C681.439 85.123 682.775 85.6973 684.393 85.6973C685.541 85.6973 686.514 85.4629 687.311 84.9941C688.107 84.5254 688.805 83.9043 689.402 83.1309L691.389 84.6777C689.795 87.127 687.404 88.3516 684.217 88.3516ZM683.812 71.3008C682.5 71.3008 681.398 71.7812 680.508 72.7422C679.617 73.6914 679.066 75.0273 678.855 76.75H688.383V76.5039C688.289 74.8516 687.844 73.5742 687.047 72.6719C686.25 71.7578 685.172 71.3008 683.812 71.3008Z" fill="white"/>
<path d="M698.49 68.9805L698.596 71.3711C700.049 69.543 701.947 68.6289 704.291 68.6289C708.311 68.6289 710.338 70.8965 710.373 75.4316V88H707.121V75.4141C707.109 74.043 706.793 73.0293 706.172 72.373C705.562 71.7168 704.607 71.3887 703.307 71.3887C702.252 71.3887 701.326 71.6699 700.529 72.2324C699.732 72.7949 699.111 73.5332 698.666 74.4473V88H695.414V68.9805H698.49Z" fill="white"/>
<path d="M736.635 62.3887V65.1484H736.037C733.506 65.1953 731.49 65.9453 729.99 67.3984C728.49 68.8516 727.623 70.8965 727.389 73.5332C728.736 71.9863 730.576 71.2129 732.908 71.2129C735.135 71.2129 736.91 71.998 738.234 73.5684C739.57 75.1387 740.238 77.166 740.238 79.6504C740.238 82.2871 739.518 84.3965 738.076 85.9785C736.646 87.5605 734.725 88.3516 732.311 88.3516C729.861 88.3516 727.875 87.4141 726.352 85.5391C724.828 83.6523 724.066 81.2266 724.066 78.2617V77.0137C724.066 72.3027 725.068 68.7051 727.072 66.2207C729.088 63.7246 732.082 62.4473 736.055 62.3887H736.635ZM732.363 73.9199C731.25 73.9199 730.225 74.2539 729.287 74.9219C728.35 75.5898 727.699 76.4277 727.336 77.4355V78.6309C727.336 80.7402 727.811 82.4395 728.76 83.7285C729.709 85.0176 730.893 85.6621 732.311 85.6621C733.775 85.6621 734.924 85.123 735.756 84.0449C736.6 82.9668 737.021 81.5547 737.021 79.8086C737.021 78.0508 736.594 76.6328 735.738 75.5547C734.895 74.4648 733.77 73.9199 732.363 73.9199Z" fill="white"/>
<path d="M163.535 122.955C163.535 122.076 163.201 121.396 162.533 120.916C161.877 120.424 160.723 120.002 159.07 119.65C157.43 119.299 156.123 118.877 155.15 118.385C154.189 117.893 153.475 117.307 153.006 116.627C152.549 115.947 152.32 115.139 152.32 114.201C152.32 112.643 152.977 111.324 154.289 110.246C155.613 109.168 157.301 108.629 159.352 108.629C161.508 108.629 163.254 109.186 164.59 110.299C165.938 111.412 166.611 112.836 166.611 114.57H163.342C163.342 113.68 162.961 112.912 162.199 112.268C161.449 111.623 160.5 111.301 159.352 111.301C158.168 111.301 157.242 111.559 156.574 112.074C155.906 112.59 155.572 113.264 155.572 114.096C155.572 114.881 155.883 115.473 156.504 115.871C157.125 116.27 158.244 116.65 159.861 117.014C161.49 117.377 162.809 117.811 163.816 118.314C164.824 118.818 165.568 119.428 166.049 120.143C166.541 120.846 166.787 121.707 166.787 122.727C166.787 124.426 166.107 125.791 164.748 126.822C163.389 127.842 161.625 128.352 159.457 128.352C157.934 128.352 156.586 128.082 155.414 127.543C154.242 127.004 153.322 126.254 152.654 125.293C151.998 124.32 151.67 123.271 151.67 122.146H154.922C154.98 123.236 155.414 124.104 156.223 124.748C157.043 125.381 158.121 125.697 159.457 125.697C160.688 125.697 161.672 125.451 162.41 124.959C163.16 124.455 163.535 123.787 163.535 122.955Z" fill="white"/>
<path d="M178.916 128.352C176.338 128.352 174.24 127.508 172.623 125.82C171.006 124.121 170.197 121.854 170.197 119.018V118.42C170.197 116.533 170.555 114.852 171.27 113.375C171.996 111.887 173.004 110.727 174.293 109.895C175.594 109.051 177 108.629 178.512 108.629C180.984 108.629 182.906 109.443 184.277 111.072C185.648 112.701 186.334 115.033 186.334 118.068V119.422H173.449C173.496 121.297 174.041 122.814 175.084 123.975C176.139 125.123 177.475 125.697 179.092 125.697C180.24 125.697 181.213 125.463 182.01 124.994C182.807 124.525 183.504 123.904 184.102 123.131L186.088 124.678C184.494 127.127 182.104 128.352 178.916 128.352ZM178.512 111.301C177.199 111.301 176.098 111.781 175.207 112.742C174.316 113.691 173.766 115.027 173.555 116.75H183.082V116.504C182.988 114.852 182.543 113.574 181.746 112.672C180.949 111.758 179.871 111.301 178.512 111.301Z" fill="white"/>
<path d="M189.34 118.332C189.34 115.367 190.025 113.012 191.396 111.266C192.768 109.508 194.584 108.629 196.846 108.629C199.166 108.629 200.977 109.449 202.277 111.09L202.436 108.98H205.406V127.543C205.406 130.004 204.674 131.943 203.209 133.361C201.756 134.779 199.799 135.488 197.338 135.488C195.967 135.488 194.625 135.195 193.312 134.609C192 134.023 190.998 133.221 190.307 132.201L191.994 130.25C193.389 131.973 195.094 132.834 197.109 132.834C198.691 132.834 199.922 132.389 200.801 131.498C201.691 130.607 202.137 129.354 202.137 127.736V126.102C200.836 127.602 199.061 128.352 196.811 128.352C194.584 128.352 192.779 127.455 191.396 125.662C190.025 123.869 189.34 121.426 189.34 118.332ZM192.609 118.701C192.609 120.846 193.049 122.533 193.928 123.764C194.807 124.982 196.037 125.592 197.619 125.592C199.67 125.592 201.176 124.66 202.137 122.797V114.113C201.141 112.297 199.646 111.389 197.654 111.389C196.072 111.389 194.836 112.004 193.945 113.234C193.055 114.465 192.609 116.287 192.609 118.701Z" fill="white"/>
<path d="M222.07 126.119C220.805 127.607 218.947 128.352 216.498 128.352C214.471 128.352 212.924 127.766 211.857 126.594C210.803 125.41 210.27 123.664 210.258 121.355V108.98H213.51V121.268C213.51 124.15 214.682 125.592 217.025 125.592C219.51 125.592 221.162 124.666 221.982 122.814V108.98H225.234V128H222.141L222.07 126.119Z" fill="white"/>
<path d="M233.268 108.98L233.373 111.371C234.826 109.543 236.725 108.629 239.068 108.629C243.088 108.629 245.115 110.896 245.15 115.432V128H241.898V115.414C241.887 114.043 241.57 113.029 240.949 112.373C240.34 111.717 239.385 111.389 238.084 111.389C237.029 111.389 236.104 111.67 235.307 112.232C234.51 112.795 233.889 113.533 233.443 114.447V128H230.191V108.98H233.268Z" fill="white"/>
<path d="M249.264 118.332C249.264 115.414 249.955 113.07 251.338 111.301C252.721 109.52 254.531 108.629 256.77 108.629C258.996 108.629 260.76 109.391 262.061 110.914V101H265.312V128H262.324L262.166 125.961C260.865 127.555 259.055 128.352 256.734 128.352C254.531 128.352 252.732 127.449 251.338 125.645C249.955 123.84 249.264 121.484 249.264 118.578V118.332ZM252.516 118.701C252.516 120.857 252.961 122.545 253.852 123.764C254.742 124.982 255.973 125.592 257.543 125.592C259.605 125.592 261.111 124.666 262.061 122.814V114.078C261.088 112.285 259.594 111.389 257.578 111.389C255.984 111.389 254.742 112.004 253.852 113.234C252.961 114.465 252.516 116.287 252.516 118.701Z" fill="white"/>
<path d="M269.514 118.314C269.514 116.451 269.877 114.775 270.604 113.287C271.342 111.799 272.361 110.65 273.662 109.842C274.975 109.033 276.469 108.629 278.145 108.629C280.734 108.629 282.826 109.525 284.42 111.318C286.025 113.111 286.828 115.496 286.828 118.473V118.701C286.828 120.553 286.471 122.217 285.756 123.693C285.053 125.158 284.039 126.301 282.715 127.121C281.402 127.941 279.891 128.352 278.18 128.352C275.602 128.352 273.51 127.455 271.904 125.662C270.311 123.869 269.514 121.496 269.514 118.543V118.314ZM272.783 118.701C272.783 120.811 273.27 122.504 274.242 123.781C275.227 125.059 276.539 125.697 278.18 125.697C279.832 125.697 281.145 125.053 282.117 123.764C283.09 122.463 283.576 120.646 283.576 118.314C283.576 116.229 283.078 114.541 282.082 113.252C281.098 111.951 279.785 111.301 278.145 111.301C276.539 111.301 275.244 111.939 274.26 113.217C273.275 114.494 272.783 116.322 272.783 118.701Z" fill="white"/>
<path d="M301.98 122.955C301.98 122.076 301.646 121.396 300.979 120.916C300.322 120.424 299.168 120.002 297.516 119.65C295.875 119.299 294.568 118.877 293.596 118.385C292.635 117.893 291.92 117.307 291.451 116.627C290.994 115.947 290.766 115.139 290.766 114.201C290.766 112.643 291.422 111.324 292.734 110.246C294.059 109.168 295.746 108.629 297.797 108.629C299.953 108.629 301.699 109.186 303.035 110.299C304.383 111.412 305.057 112.836 305.057 114.57H301.787C301.787 113.68 301.406 112.912 300.645 112.268C299.895 111.623 298.945 111.301 297.797 111.301C296.613 111.301 295.688 111.559 295.02 112.074C294.352 112.59 294.018 113.264 294.018 114.096C294.018 114.881 294.328 115.473 294.949 115.871C295.57 116.27 296.689 116.65 298.307 117.014C299.936 117.377 301.254 117.811 302.262 118.314C303.27 118.818 304.014 119.428 304.494 120.143C304.986 120.846 305.232 121.707 305.232 122.727C305.232 124.426 304.553 125.791 303.193 126.822C301.834 127.842 300.07 128.352 297.902 128.352C296.379 128.352 295.031 128.082 293.859 127.543C292.688 127.004 291.768 126.254 291.1 125.293C290.443 124.32 290.115 123.271 290.115 122.146H293.367C293.426 123.236 293.859 124.104 294.668 124.748C295.488 125.381 296.566 125.697 297.902 125.697C299.133 125.697 300.117 125.451 300.855 124.959C301.605 124.455 301.98 123.787 301.98 122.955Z" fill="white"/>
<path d="M313.283 120.793C313.307 119.398 313.465 118.297 313.758 117.488C314.051 116.68 314.648 115.783 315.551 114.799L317.854 112.426C318.838 111.312 319.33 110.117 319.33 108.84C319.33 107.609 319.008 106.648 318.363 105.957C317.719 105.254 316.781 104.902 315.551 104.902C314.355 104.902 313.395 105.219 312.668 105.852C311.941 106.484 311.578 107.334 311.578 108.4H308.326C308.35 106.502 309.023 104.973 310.348 103.812C311.684 102.641 313.418 102.055 315.551 102.055C317.766 102.055 319.488 102.652 320.719 103.848C321.961 105.031 322.582 106.66 322.582 108.734C322.582 110.785 321.633 112.807 319.734 114.799L317.818 116.697C316.963 117.646 316.535 119.012 316.535 120.793H313.283ZM313.143 126.365C313.143 125.838 313.301 125.398 313.617 125.047C313.945 124.684 314.426 124.502 315.059 124.502C315.691 124.502 316.172 124.684 316.5 125.047C316.828 125.398 316.992 125.838 316.992 126.365C316.992 126.893 316.828 127.332 316.5 127.684C316.172 128.023 315.691 128.193 315.059 128.193C314.426 128.193 313.945 128.023 313.617 127.684C313.301 127.332 313.143 126.893 313.143 126.365Z" fill="white"/>
</g>
</g>
</g>
</svg>
