<svg viewBox="0 0 975 415" fill="none" xmlns="http://www.w3.org/2000/svg">
<g id="0121104">
<g id="claves01">
<path id="Rectangle 4" d="M39 225H255.745L289 265L255.745 305H39V225Z" fill="#CD08D1" fill-opacity="0.1"/>
<path id="Rectangle 4 (Stroke)" fill-rule="evenodd" clip-rule="evenodd" d="M254.338 228H42V302H254.338L285.099 265L254.338 228ZM255.745 225H39V305H255.745L289 265L255.745 225Z" fill="#CD08D1"/>
<path id="Rectangle 5" d="M43 335H259.745L293 375L259.745 415H43V335Z" fill="#CD08D1" fill-opacity="0.1"/>
<path id="Rectangle 5 (Stroke)" fill-rule="evenodd" clip-rule="evenodd" d="M258.338 338H46V412H258.338L289.099 375L258.338 338ZM259.745 335H43V415H259.745L293 375L259.745 335Z" fill="#CD08D1"/>
<path id="Rectangle 6" d="M379 222H595.745L629 262L595.745 302H379V222Z" fill="#CD08D1" fill-opacity="0.1"/>
<path id="Rectangle 6 (Stroke)" fill-rule="evenodd" clip-rule="evenodd" d="M594.338 225H382V299H594.338L625.099 262L594.338 225ZM595.745 222H379V302H595.745L629 262L595.745 222Z" fill="#CD08D1"/>
<path id="Rectangle 7" d="M382 332H598.745L632 372L598.745 412H382V332Z" fill="#CD08D1" fill-opacity="0.1"/>
<path id="Rectangle 7 (Stroke)" fill-rule="evenodd" clip-rule="evenodd" d="M597.338 335H385V409H597.338L628.099 372L597.338 335ZM598.745 332H382V412H598.745L632 372L598.745 332Z" fill="#CD08D1"/>
<path id="Rectangle 8" d="M725 281H941.745L975 321L941.745 361H725V281Z" fill="#CD08D1" fill-opacity="0.1"/>
<path id="Rectangle 8 (Stroke)" fill-rule="evenodd" clip-rule="evenodd" d="M940.338 284H728V358H940.338L971.099 321L940.338 284ZM941.745 281H725V361H941.745L975 321L941.745 281Z" fill="#CD08D1"/>
<path id="Ellipse 1" d="M80 265C80 287.091 62.0914 305 40 305C17.9086 305 0 287.091 0 265C0 242.909 17.9086 225 40 225C62.0914 225 80 242.909 80 265Z" fill="#CD08D1"/>
<path id="Ellipse 2" d="M84 375C84 397.091 66.0914 415 44 415C21.9086 415 4 397.091 4 375C4 352.909 21.9086 335 44 335C66.0914 335 84 352.909 84 375Z" fill="#CD08D1"/>
<path id="Ellipse 3" d="M420 262C420 284.091 402.091 302 380 302C357.909 302 340 284.091 340 262C340 239.909 357.909 222 380 222C402.091 222 420 239.909 420 262Z" fill="#CD08D1"/>
<path id="Ellipse 4" d="M423 372C423 394.091 405.091 412 383 412C360.909 412 343 394.091 343 372C343 349.909 360.909 332 383 332C405.091 332 423 349.909 423 372Z" fill="#CD08D1"/>
<path id="Ellipse 5" d="M766 321C766 343.091 748.091 361 726 361C703.909 361 686 343.091 686 321C686 298.909 703.909 281 726 281C748.091 281 766 298.909 766 321Z" fill="#CD08D1"/>
<path id="A" d="M48.0938 275.406H30.4688L26.7812 286H18.5625L35.75 240.5H42.8438L60.0625 286H51.8125L48.0938 275.406ZM32.6875 269.031H45.875L39.2812 250.156L32.6875 269.031Z" fill="white"/>
<path id="B" d="M27.625 391V345.5H43.2188C48.3646 345.5 52.2812 346.531 54.9688 348.594C57.6562 350.656 59 353.729 59 357.812C59 359.896 58.4375 361.771 57.3125 363.438C56.1875 365.104 54.5417 366.396 52.375 367.312C54.8333 367.979 56.7292 369.24 58.0625 371.094C59.4167 372.927 60.0938 375.135 60.0938 377.719C60.0938 381.99 58.7188 385.271 55.9688 387.562C53.2396 389.854 49.3229 391 44.2188 391H27.625ZM35.5312 370.469V384.688H44.3125C46.7917 384.688 48.7292 384.073 50.125 382.844C51.5208 381.615 52.2188 379.906 52.2188 377.719C52.2188 372.99 49.8021 370.573 44.9688 370.469H35.5312ZM35.5312 364.656H43.2812C45.7396 364.656 47.6562 364.104 49.0312 363C50.4271 361.875 51.125 360.292 51.125 358.25C51.125 356 50.4792 354.375 49.1875 353.375C47.9167 352.375 45.9271 351.875 43.2188 351.875H35.5312V364.656Z" fill="white"/>
<path id="C" d="M397.344 269.188C396.885 274.042 395.094 277.833 391.969 280.562C388.844 283.271 384.688 284.625 379.5 284.625C375.875 284.625 372.677 283.771 369.906 282.062C367.156 280.333 365.031 277.885 363.531 274.719C362.031 271.552 361.25 267.875 361.188 263.688V259.438C361.188 255.146 361.948 251.365 363.469 248.094C364.99 244.823 367.167 242.302 370 240.531C372.854 238.76 376.146 237.875 379.875 237.875C384.896 237.875 388.938 239.24 392 241.969C395.062 244.698 396.844 248.552 397.344 253.531H389.469C389.094 250.26 388.135 247.906 386.594 246.469C385.073 245.01 382.833 244.281 379.875 244.281C376.438 244.281 373.792 245.542 371.938 248.062C370.104 250.562 369.167 254.24 369.125 259.094V263.125C369.125 268.042 370 271.792 371.75 274.375C373.521 276.958 376.104 278.25 379.5 278.25C382.604 278.25 384.938 277.552 386.5 276.156C388.062 274.76 389.052 272.438 389.469 269.188H397.344Z" fill="white"/>
<path id="D" d="M365.625 394V348.5H379.062C383.083 348.5 386.646 349.396 389.75 351.188C392.875 352.979 395.292 355.521 397 358.812C398.708 362.104 399.562 365.875 399.562 370.125V372.406C399.562 376.719 398.698 380.51 396.969 383.781C395.26 387.052 392.812 389.573 389.625 391.344C386.458 393.115 382.823 394 378.719 394H365.625ZM373.531 354.875V387.688H378.688C382.833 387.688 386.01 386.396 388.219 383.812C390.448 381.208 391.583 377.479 391.625 372.625V370.094C391.625 365.156 390.552 361.385 388.406 358.781C386.26 356.177 383.146 354.875 379.062 354.875H373.531Z" fill="white"/>
<path id="E" d="M735.219 322.688H716.531V336.688H738.375V343H708.625V297.5H738.156V303.875H716.531V316.438H735.219V322.688Z" fill="white"/>
<path id="1" d="M163.086 285H158.727V256.102L149.984 259.312V255.375L162.406 250.711H163.086V285Z" fill="#CD08D1"/>
<path id="6" d="M171.852 361.852V365.531H171.055C167.68 365.594 164.992 366.594 162.992 368.531C160.992 370.469 159.836 373.195 159.523 376.711C161.32 374.648 163.773 373.617 166.883 373.617C169.852 373.617 172.219 374.664 173.984 376.758C175.766 378.852 176.656 381.555 176.656 384.867C176.656 388.383 175.695 391.195 173.773 393.305C171.867 395.414 169.305 396.469 166.086 396.469C162.82 396.469 160.172 395.219 158.141 392.719C156.109 390.203 155.094 386.969 155.094 383.016V381.352C155.094 375.07 156.43 370.273 159.102 366.961C161.789 363.633 165.781 361.93 171.078 361.852H171.852ZM166.156 377.227C164.672 377.227 163.305 377.672 162.055 378.562C160.805 379.453 159.938 380.57 159.453 381.914V383.508C159.453 386.32 160.086 388.586 161.352 390.305C162.617 392.023 164.195 392.883 166.086 392.883C168.039 392.883 169.57 392.164 170.68 390.727C171.805 389.289 172.367 387.406 172.367 385.078C172.367 382.734 171.797 380.844 170.656 379.406C169.531 377.953 168.031 377.227 166.156 377.227Z" fill="#CD08D1"/>
<path id="0" d="M485.234 383.445C485.234 388.523 484.367 392.297 482.633 394.766C480.898 397.234 478.188 398.469 474.5 398.469C470.859 398.469 468.164 397.266 466.414 394.859C464.664 392.438 463.758 388.828 463.695 384.031V378.242C463.695 373.227 464.562 369.5 466.297 367.062C468.031 364.625 470.75 363.406 474.453 363.406C478.125 363.406 480.828 364.586 482.562 366.945C484.297 369.289 485.188 372.914 485.234 377.82V383.445ZM480.898 377.516C480.898 373.844 480.383 371.172 479.352 369.5C478.32 367.812 476.688 366.969 474.453 366.969C472.234 366.969 470.617 367.805 469.602 369.477C468.586 371.148 468.062 373.719 468.031 377.188V384.125C468.031 387.812 468.562 390.539 469.625 392.305C470.703 394.055 472.328 394.93 474.5 394.93C476.641 394.93 478.227 394.102 479.258 392.445C480.305 390.789 480.852 388.18 480.898 384.617V377.516Z" fill="#CD08D1"/>
<path id="19" d="M831.141 323.539H835.875V327.078H831.141V335H826.781V327.078H811.242V324.523L826.523 300.875H831.141V323.539ZM816.164 323.539H826.781V306.805L826.266 307.742L816.164 323.539Z" fill="#CD08D1"/>
<path id="17" d="M465.828 267.891L467.562 250.875H485.047V254.883H471.242L470.211 264.188C471.883 263.203 473.781 262.711 475.906 262.711C479.016 262.711 481.484 263.742 483.312 265.805C485.141 267.852 486.055 270.625 486.055 274.125C486.055 277.641 485.102 280.414 483.195 282.445C481.305 284.461 478.656 285.469 475.25 285.469C472.234 285.469 469.773 284.633 467.867 282.961C465.961 281.289 464.875 278.977 464.609 276.023H468.711C468.977 277.977 469.672 279.453 470.797 280.453C471.922 281.438 473.406 281.93 475.25 281.93C477.266 281.93 478.844 281.242 479.984 279.867C481.141 278.492 481.719 276.594 481.719 274.172C481.719 271.891 481.094 270.062 479.844 268.688C478.609 267.297 476.961 266.602 474.898 266.602C473.008 266.602 471.523 267.016 470.445 267.844L469.297 268.781L465.828 267.891Z" fill="#CD08D1"/>
<g id="flecha">
<path id="Rectangle 2" d="M384.2 224.008L399.482 232.133L357.5 311.089L342.219 302.963L384.2 224.008Z" fill="#1043F5"/>
<path id="Rectangle 1" d="M326 236.904L416 187V244.692L371 227.096L326 236.904Z" fill="#1043F5"/>
<path id="Rectangle 3" d="M330.038 306.21L345.666 279.143L362.936 278.565L347.309 305.632L330.038 306.21Z" fill="#1043F5"/>
<path id="Rectangle 4_2" d="M356.089 320.845L371.717 293.778L362.926 278.154L347.299 305.221L356.089 320.845Z" fill="#1043F5"/>
</g>
</g>
<g id="enun01">
<path id="Rectangle 1_2" d="M67 0H879.539L948 95.6043L879.539 194H67V0Z" fill="#02071A"/>
<path id="Rectangle 1 (Stroke)" fill-rule="evenodd" clip-rule="evenodd" d="M877.483 4H71V190H877.449L943.104 95.6375L877.483 4ZM879.539 0H67V194H879.539L948 95.6043L879.539 0Z" fill="#CD08D1"/>
<path id="Ellipse 1_2" d="M119 97C119 124.614 96.6142 147 69 147C41.3858 147 19 124.614 19 97C19 69.3858 41.3858 47 69 47C96.6142 47 119 69.3858 119 97Z" fill="#CD08D1"/>
<path id="Ellipse 1 (Stroke)" fill-rule="evenodd" clip-rule="evenodd" d="M69 146C96.062 146 118 124.062 118 97C118 69.938 96.062 48 69 48C41.938 48 20 69.938 20 97C20 124.062 41.938 146 69 146ZM69 147C96.6142 147 119 124.614 119 97C119 69.3858 96.6142 47 69 47C41.3858 47 19 69.3858 19 97C19 124.614 41.3858 147 69 147Z" fill="black"/>
<g id="Un paciente tiene que tomar una pastilla cada 4 horas. Si empez&#195;&#179; a tomarlas a las 6:00 am, &#194;&#191;cu&#195;&#161;ntas pastillas habr&#195;&#161; tomado hasta las 10:00 pm?">
<path d="M163.988 22.4062V39.8086C163.977 42.2227 163.215 44.1973 161.703 45.7324C160.203 47.2676 158.164 48.1289 155.586 48.3164L154.689 48.3516C151.889 48.3516 149.656 47.5957 147.992 46.084C146.328 44.5723 145.484 42.4922 145.461 39.8438V22.4062H148.801V39.7383C148.801 41.5898 149.311 43.0312 150.33 44.0625C151.35 45.082 152.803 45.5918 154.689 45.5918C156.6 45.5918 158.059 45.082 159.066 44.0625C160.086 43.043 160.596 41.6074 160.596 39.7559V22.4062H163.988Z" fill="white"/>
<path d="M171.881 28.9805L171.986 31.3711C173.439 29.543 175.338 28.6289 177.682 28.6289C181.701 28.6289 183.729 30.8965 183.764 35.4316V48H180.512V35.4141C180.5 34.043 180.184 33.0293 179.562 32.373C178.953 31.7168 177.998 31.3887 176.697 31.3887C175.643 31.3887 174.717 31.6699 173.92 32.2324C173.123 32.7949 172.502 33.5332 172.057 34.4473V48H168.805V28.9805H171.881Z" fill="white"/>
<path d="M213.664 38.7012C213.664 41.5957 213.002 43.9277 211.678 45.6973C210.354 47.4668 208.561 48.3516 206.299 48.3516C203.99 48.3516 202.174 47.6191 200.85 46.1543V55.3125H197.598V28.9805H200.568L200.727 31.0898C202.051 29.4492 203.891 28.6289 206.246 28.6289C208.531 28.6289 210.336 29.4902 211.66 31.2129C212.996 32.9355 213.664 35.332 213.664 38.4023V38.7012ZM210.412 38.332C210.412 36.1875 209.955 34.4941 209.041 33.252C208.127 32.0098 206.873 31.3887 205.279 31.3887C203.311 31.3887 201.834 32.2617 200.85 34.0078V43.0957C201.822 44.8301 203.311 45.6973 205.314 45.6973C206.873 45.6973 208.109 45.082 209.023 43.8516C209.949 42.6094 210.412 40.7695 210.412 38.332Z" fill="white"/>
<path d="M229.555 48C229.367 47.625 229.215 46.957 229.098 45.9961C227.586 47.5664 225.781 48.3516 223.684 48.3516C221.809 48.3516 220.268 47.8242 219.061 46.7695C217.865 45.7031 217.268 44.3555 217.268 42.7266C217.268 40.7461 218.018 39.2109 219.518 38.1211C221.029 37.0195 223.15 36.4688 225.881 36.4688H229.045V34.9746C229.045 33.8379 228.705 32.9355 228.025 32.2676C227.346 31.5879 226.344 31.248 225.02 31.248C223.859 31.248 222.887 31.541 222.102 32.127C221.316 32.7129 220.924 33.4219 220.924 34.2539H217.654C217.654 33.3047 217.988 32.3906 218.656 31.5117C219.336 30.6211 220.25 29.918 221.398 29.4023C222.559 28.8867 223.83 28.6289 225.213 28.6289C227.404 28.6289 229.121 29.1797 230.363 30.2812C231.605 31.3711 232.25 32.877 232.297 34.7988V43.5527C232.297 45.2988 232.52 46.6875 232.965 47.7188V48H229.555ZM224.158 45.5215C225.178 45.5215 226.145 45.2578 227.059 44.7305C227.973 44.2031 228.635 43.5176 229.045 42.6738V38.7715H226.496C222.512 38.7715 220.52 39.9375 220.52 42.2695C220.52 43.2891 220.859 44.0859 221.539 44.6602C222.219 45.2344 223.092 45.5215 224.158 45.5215Z" fill="white"/>
<path d="M245.023 45.6973C246.184 45.6973 247.197 45.3457 248.064 44.6426C248.932 43.9395 249.412 43.0605 249.506 42.0059H252.582C252.523 43.0957 252.148 44.1328 251.457 45.1172C250.766 46.1016 249.84 46.8867 248.68 47.4727C247.531 48.0586 246.312 48.3516 245.023 48.3516C242.434 48.3516 240.371 47.4902 238.836 45.7676C237.312 44.0332 236.551 41.666 236.551 38.666V38.1211C236.551 36.2695 236.891 34.623 237.57 33.1816C238.25 31.7402 239.223 30.6211 240.488 29.8242C241.766 29.0273 243.271 28.6289 245.006 28.6289C247.139 28.6289 248.908 29.2676 250.314 30.5449C251.732 31.8223 252.488 33.4805 252.582 35.5195H249.506C249.412 34.2891 248.943 33.2812 248.1 32.4961C247.268 31.6992 246.236 31.3008 245.006 31.3008C243.354 31.3008 242.07 31.8984 241.156 33.0938C240.254 34.2773 239.803 35.9941 239.803 38.2441V38.8594C239.803 41.0508 240.254 42.7383 241.156 43.9219C242.059 45.1055 243.348 45.6973 245.023 45.6973Z" fill="white"/>
<path d="M259.771 48H256.52V28.9805H259.771V48ZM256.256 23.9355C256.256 23.4082 256.414 22.9629 256.73 22.5996C257.059 22.2363 257.539 22.0547 258.172 22.0547C258.805 22.0547 259.285 22.2363 259.613 22.5996C259.941 22.9629 260.105 23.4082 260.105 23.9355C260.105 24.4629 259.941 24.9023 259.613 25.2539C259.285 25.6055 258.805 25.7812 258.172 25.7812C257.539 25.7812 257.059 25.6055 256.73 25.2539C256.414 24.9023 256.256 24.4629 256.256 23.9355Z" fill="white"/>
<path d="M272.885 48.3516C270.307 48.3516 268.209 47.5078 266.592 45.8203C264.975 44.1211 264.166 41.8535 264.166 39.0176V38.4199C264.166 36.5332 264.523 34.8516 265.238 33.375C265.965 31.8867 266.973 30.7266 268.262 29.8945C269.562 29.0508 270.969 28.6289 272.48 28.6289C274.953 28.6289 276.875 29.4434 278.246 31.0723C279.617 32.7012 280.303 35.0332 280.303 38.0684V39.4219H267.418C267.465 41.2969 268.01 42.8145 269.053 43.9746C270.107 45.123 271.443 45.6973 273.061 45.6973C274.209 45.6973 275.182 45.4629 275.979 44.9941C276.775 44.5254 277.473 43.9043 278.07 43.1309L280.057 44.6777C278.463 47.127 276.072 48.3516 272.885 48.3516ZM272.48 31.3008C271.168 31.3008 270.066 31.7812 269.176 32.7422C268.285 33.6914 267.734 35.0273 267.523 36.75H277.051V36.5039C276.957 34.8516 276.512 33.5742 275.715 32.6719C274.918 31.7578 273.84 31.3008 272.48 31.3008Z" fill="white"/>
<path d="M287.158 28.9805L287.264 31.3711C288.717 29.543 290.615 28.6289 292.959 28.6289C296.979 28.6289 299.006 30.8965 299.041 35.4316V48H295.789V35.4141C295.777 34.043 295.461 33.0293 294.84 32.373C294.23 31.7168 293.275 31.3887 291.975 31.3887C290.92 31.3887 289.994 31.6699 289.197 32.2324C288.4 32.7949 287.779 33.5332 287.334 34.4473V48H284.082V28.9805H287.158Z" fill="white"/>
<path d="M308.357 24.375V28.9805H311.908V31.4941H308.357V43.2891C308.357 44.0508 308.516 44.625 308.832 45.0117C309.148 45.3867 309.688 45.5742 310.449 45.5742C310.824 45.5742 311.34 45.5039 311.996 45.3633V48C311.141 48.2344 310.309 48.3516 309.5 48.3516C308.047 48.3516 306.951 47.9121 306.213 47.0332C305.475 46.1543 305.105 44.9062 305.105 43.2891V31.4941H301.643V28.9805H305.105V24.375H308.357Z" fill="white"/>
<path d="M323.615 48.3516C321.037 48.3516 318.939 47.5078 317.322 45.8203C315.705 44.1211 314.896 41.8535 314.896 39.0176V38.4199C314.896 36.5332 315.254 34.8516 315.969 33.375C316.695 31.8867 317.703 30.7266 318.992 29.8945C320.293 29.0508 321.699 28.6289 323.211 28.6289C325.684 28.6289 327.605 29.4434 328.977 31.0723C330.348 32.7012 331.033 35.0332 331.033 38.0684V39.4219H318.148C318.195 41.2969 318.74 42.8145 319.783 43.9746C320.838 45.123 322.174 45.6973 323.791 45.6973C324.939 45.6973 325.912 45.4629 326.709 44.9941C327.506 44.5254 328.203 43.9043 328.801 43.1309L330.787 44.6777C329.193 47.127 326.803 48.3516 323.615 48.3516ZM323.211 31.3008C321.898 31.3008 320.797 31.7812 319.906 32.7422C319.016 33.6914 318.465 35.0273 318.254 36.75H327.781V36.5039C327.688 34.8516 327.242 33.5742 326.445 32.6719C325.648 31.7578 324.57 31.3008 323.211 31.3008Z" fill="white"/>
<path d="M348.154 24.375V28.9805H351.705V31.4941H348.154V43.2891C348.154 44.0508 348.312 44.625 348.629 45.0117C348.945 45.3867 349.484 45.5742 350.246 45.5742C350.621 45.5742 351.137 45.5039 351.793 45.3633V48C350.938 48.2344 350.105 48.3516 349.297 48.3516C347.844 48.3516 346.748 47.9121 346.01 47.0332C345.271 46.1543 344.902 44.9062 344.902 43.2891V31.4941H341.439V28.9805H344.902V24.375H348.154Z" fill="white"/>
<path d="M359.053 48H355.801V28.9805H359.053V48ZM355.537 23.9355C355.537 23.4082 355.695 22.9629 356.012 22.5996C356.34 22.2363 356.82 22.0547 357.453 22.0547C358.086 22.0547 358.566 22.2363 358.895 22.5996C359.223 22.9629 359.387 23.4082 359.387 23.9355C359.387 24.4629 359.223 24.9023 358.895 25.2539C358.566 25.6055 358.086 25.7812 357.453 25.7812C356.82 25.7812 356.34 25.6055 356.012 25.2539C355.695 24.9023 355.537 24.4629 355.537 23.9355Z" fill="white"/>
<path d="M372.166 48.3516C369.588 48.3516 367.49 47.5078 365.873 45.8203C364.256 44.1211 363.447 41.8535 363.447 39.0176V38.4199C363.447 36.5332 363.805 34.8516 364.52 33.375C365.246 31.8867 366.254 30.7266 367.543 29.8945C368.844 29.0508 370.25 28.6289 371.762 28.6289C374.234 28.6289 376.156 29.4434 377.527 31.0723C378.898 32.7012 379.584 35.0332 379.584 38.0684V39.4219H366.699C366.746 41.2969 367.291 42.8145 368.334 43.9746C369.389 45.123 370.725 45.6973 372.342 45.6973C373.49 45.6973 374.463 45.4629 375.26 44.9941C376.057 44.5254 376.754 43.9043 377.352 43.1309L379.338 44.6777C377.744 47.127 375.354 48.3516 372.166 48.3516ZM371.762 31.3008C370.449 31.3008 369.348 31.7812 368.457 32.7422C367.566 33.6914 367.016 35.0273 366.805 36.75H376.332V36.5039C376.238 34.8516 375.793 33.5742 374.996 32.6719C374.199 31.7578 373.121 31.3008 371.762 31.3008Z" fill="white"/>
<path d="M386.439 28.9805L386.545 31.3711C387.998 29.543 389.896 28.6289 392.24 28.6289C396.26 28.6289 398.287 30.8965 398.322 35.4316V48H395.07V35.4141C395.059 34.043 394.742 33.0293 394.121 32.373C393.512 31.7168 392.557 31.3887 391.256 31.3887C390.201 31.3887 389.275 31.6699 388.479 32.2324C387.682 32.7949 387.061 33.5332 386.615 34.4473V48H383.363V28.9805H386.439Z" fill="white"/>
<path d="M411.119 48.3516C408.541 48.3516 406.443 47.5078 404.826 45.8203C403.209 44.1211 402.4 41.8535 402.4 39.0176V38.4199C402.4 36.5332 402.758 34.8516 403.473 33.375C404.199 31.8867 405.207 30.7266 406.496 29.8945C407.797 29.0508 409.203 28.6289 410.715 28.6289C413.188 28.6289 415.109 29.4434 416.48 31.0723C417.852 32.7012 418.537 35.0332 418.537 38.0684V39.4219H405.652C405.699 41.2969 406.244 42.8145 407.287 43.9746C408.342 45.123 409.678 45.6973 411.295 45.6973C412.443 45.6973 413.416 45.4629 414.213 44.9941C415.01 44.5254 415.707 43.9043 416.305 43.1309L418.291 44.6777C416.697 47.127 414.307 48.3516 411.119 48.3516ZM410.715 31.3008C409.402 31.3008 408.301 31.7812 407.41 32.7422C406.52 33.6914 405.969 35.0273 405.758 36.75H415.285V36.5039C415.191 34.8516 414.746 33.5742 413.949 32.6719C413.152 31.7578 412.074 31.3008 410.715 31.3008Z" fill="white"/>
<path d="M430.455 38.332C430.455 35.3438 431.141 32.9824 432.512 31.248C433.883 29.502 435.723 28.6289 438.031 28.6289C440.281 28.6289 442.057 29.3848 443.357 30.8965L443.498 28.9805H446.486V55.3125H443.234V46.2422C441.922 47.6484 440.176 48.3516 437.996 48.3516C435.699 48.3516 433.865 47.4609 432.494 45.6797C431.135 43.8867 430.455 41.5137 430.455 38.5605V38.332ZM433.707 38.7012C433.707 40.8809 434.164 42.5918 435.078 43.834C436.004 45.0762 437.246 45.6973 438.805 45.6973C440.738 45.6973 442.215 44.8418 443.234 43.1309V33.8145C442.203 32.1387 440.738 31.3008 438.84 31.3008C437.27 31.3008 436.021 31.9277 435.096 33.1816C434.17 34.4238 433.707 36.2637 433.707 38.7012Z" fill="white"/>
<path d="M463.449 46.1191C462.184 47.6074 460.326 48.3516 457.877 48.3516C455.85 48.3516 454.303 47.7656 453.236 46.5938C452.182 45.4102 451.648 43.6641 451.637 41.3555V28.9805H454.889V41.2676C454.889 44.1504 456.061 45.5918 458.404 45.5918C460.889 45.5918 462.541 44.666 463.361 42.8145V28.9805H466.613V48H463.52L463.449 46.1191Z" fill="white"/>
<path d="M479.463 48.3516C476.885 48.3516 474.787 47.5078 473.17 45.8203C471.553 44.1211 470.744 41.8535 470.744 39.0176V38.4199C470.744 36.5332 471.102 34.8516 471.816 33.375C472.543 31.8867 473.551 30.7266 474.84 29.8945C476.141 29.0508 477.547 28.6289 479.059 28.6289C481.531 28.6289 483.453 29.4434 484.824 31.0723C486.195 32.7012 486.881 35.0332 486.881 38.0684V39.4219H473.996C474.043 41.2969 474.588 42.8145 475.631 43.9746C476.686 45.123 478.021 45.6973 479.639 45.6973C480.787 45.6973 481.76 45.4629 482.557 44.9941C483.354 44.5254 484.051 43.9043 484.648 43.1309L486.635 44.6777C485.041 47.127 482.65 48.3516 479.463 48.3516ZM479.059 31.3008C477.746 31.3008 476.645 31.7812 475.754 32.7422C474.863 33.6914 474.312 35.0273 474.102 36.75H483.629V36.5039C483.535 34.8516 483.09 33.5742 482.293 32.6719C481.496 31.7578 480.418 31.3008 479.059 31.3008Z" fill="white"/>
<path d="M504.002 24.375V28.9805H507.553V31.4941H504.002V43.2891C504.002 44.0508 504.16 44.625 504.477 45.0117C504.793 45.3867 505.332 45.5742 506.094 45.5742C506.469 45.5742 506.984 45.5039 507.641 45.3633V48C506.785 48.2344 505.953 48.3516 505.145 48.3516C503.691 48.3516 502.596 47.9121 501.857 47.0332C501.119 46.1543 500.75 44.9062 500.75 43.2891V31.4941H497.287V28.9805H500.75V24.375H504.002Z" fill="white"/>
<path d="M510.154 38.3145C510.154 36.4512 510.518 34.7754 511.244 33.2871C511.982 31.7988 513.002 30.6504 514.303 29.8418C515.615 29.0332 517.109 28.6289 518.785 28.6289C521.375 28.6289 523.467 29.5254 525.061 31.3184C526.666 33.1113 527.469 35.4961 527.469 38.4727V38.7012C527.469 40.5527 527.111 42.2168 526.396 43.6934C525.693 45.1582 524.68 46.3008 523.355 47.1211C522.043 47.9414 520.531 48.3516 518.82 48.3516C516.242 48.3516 514.15 47.4551 512.545 45.6621C510.951 43.8691 510.154 41.4961 510.154 38.543V38.3145ZM513.424 38.7012C513.424 40.8105 513.91 42.5039 514.883 43.7812C515.867 45.0586 517.18 45.6973 518.82 45.6973C520.473 45.6973 521.785 45.0527 522.758 43.7637C523.73 42.4629 524.217 40.6465 524.217 38.3145C524.217 36.2285 523.719 34.541 522.723 33.252C521.738 31.9512 520.426 31.3008 518.785 31.3008C517.18 31.3008 515.885 31.9395 514.9 33.2168C513.916 34.4941 513.424 36.3223 513.424 38.7012Z" fill="white"/>
<path d="M534.605 28.9805L534.693 31.0898C536.088 29.4492 537.969 28.6289 540.336 28.6289C542.996 28.6289 544.807 29.6484 545.768 31.6875C546.4 30.7734 547.221 30.0352 548.229 29.4727C549.248 28.9102 550.449 28.6289 551.832 28.6289C556.004 28.6289 558.125 30.8379 558.195 35.2559V48H554.943V35.4492C554.943 34.0898 554.633 33.0762 554.012 32.4082C553.391 31.7285 552.348 31.3887 550.883 31.3887C549.676 31.3887 548.674 31.752 547.877 32.4785C547.08 33.1934 546.617 34.1602 546.488 35.3789V48H543.219V35.5371C543.219 32.7715 541.865 31.3887 539.158 31.3887C537.025 31.3887 535.566 32.2969 534.781 34.1133V48H531.529V28.9805H534.605Z" fill="white"/>
<path d="M574.859 48C574.672 47.625 574.52 46.957 574.402 45.9961C572.891 47.5664 571.086 48.3516 568.988 48.3516C567.113 48.3516 565.572 47.8242 564.365 46.7695C563.17 45.7031 562.572 44.3555 562.572 42.7266C562.572 40.7461 563.322 39.2109 564.822 38.1211C566.334 37.0195 568.455 36.4688 571.186 36.4688H574.35V34.9746C574.35 33.8379 574.01 32.9355 573.33 32.2676C572.65 31.5879 571.648 31.248 570.324 31.248C569.164 31.248 568.191 31.541 567.406 32.127C566.621 32.7129 566.229 33.4219 566.229 34.2539H562.959C562.959 33.3047 563.293 32.3906 563.961 31.5117C564.641 30.6211 565.555 29.918 566.703 29.4023C567.863 28.8867 569.135 28.6289 570.518 28.6289C572.709 28.6289 574.426 29.1797 575.668 30.2812C576.91 31.3711 577.555 32.877 577.602 34.7988V43.5527C577.602 45.2988 577.824 46.6875 578.27 47.7188V48H574.859ZM569.463 45.5215C570.482 45.5215 571.449 45.2578 572.363 44.7305C573.277 44.2031 573.939 43.5176 574.35 42.6738V38.7715H571.801C567.816 38.7715 565.824 39.9375 565.824 42.2695C565.824 43.2891 566.164 44.0859 566.844 44.6602C567.523 45.2344 568.396 45.5215 569.463 45.5215Z" fill="white"/>
<path d="M591.893 31.8984C591.4 31.8164 590.867 31.7754 590.293 31.7754C588.16 31.7754 586.713 32.6836 585.951 34.5V48H582.699V28.9805H585.863L585.916 31.1777C586.982 29.4785 588.494 28.6289 590.451 28.6289C591.084 28.6289 591.564 28.7109 591.893 28.875V31.8984Z" fill="white"/>
<path d="M615.57 46.1191C614.305 47.6074 612.447 48.3516 609.998 48.3516C607.971 48.3516 606.424 47.7656 605.357 46.5938C604.303 45.4102 603.77 43.6641 603.758 41.3555V28.9805H607.01V41.2676C607.01 44.1504 608.182 45.5918 610.525 45.5918C613.01 45.5918 614.662 44.666 615.482 42.8145V28.9805H618.734V48H615.641L615.57 46.1191Z" fill="white"/>
<path d="M626.768 28.9805L626.873 31.3711C628.326 29.543 630.225 28.6289 632.568 28.6289C636.588 28.6289 638.615 30.8965 638.65 35.4316V48H635.398V35.4141C635.387 34.043 635.07 33.0293 634.449 32.373C633.84 31.7168 632.885 31.3887 631.584 31.3887C630.529 31.3887 629.604 31.6699 628.807 32.2324C628.01 32.7949 627.389 33.5332 626.943 34.4473V48H623.691V28.9805H626.768Z" fill="white"/>
<path d="M655.297 48C655.109 47.625 654.957 46.957 654.84 45.9961C653.328 47.5664 651.523 48.3516 649.426 48.3516C647.551 48.3516 646.01 47.8242 644.803 46.7695C643.607 45.7031 643.01 44.3555 643.01 42.7266C643.01 40.7461 643.76 39.2109 645.26 38.1211C646.771 37.0195 648.893 36.4688 651.623 36.4688H654.787V34.9746C654.787 33.8379 654.447 32.9355 653.768 32.2676C653.088 31.5879 652.086 31.248 650.762 31.248C649.602 31.248 648.629 31.541 647.844 32.127C647.059 32.7129 646.666 33.4219 646.666 34.2539H643.396C643.396 33.3047 643.73 32.3906 644.398 31.5117C645.078 30.6211 645.992 29.918 647.141 29.4023C648.301 28.8867 649.572 28.6289 650.955 28.6289C653.146 28.6289 654.863 29.1797 656.105 30.2812C657.348 31.3711 657.992 32.877 658.039 34.7988V43.5527C658.039 45.2988 658.262 46.6875 658.707 47.7188V48H655.297ZM649.9 45.5215C650.92 45.5215 651.887 45.2578 652.801 44.7305C653.715 44.2031 654.377 43.5176 654.787 42.6738V38.7715H652.238C648.254 38.7715 646.262 39.9375 646.262 42.2695C646.262 43.2891 646.602 44.0859 647.281 44.6602C647.961 45.2344 648.834 45.5215 649.9 45.5215Z" fill="white"/>
<path d="M688.133 38.7012C688.133 41.5957 687.471 43.9277 686.146 45.6973C684.822 47.4668 683.029 48.3516 680.768 48.3516C678.459 48.3516 676.643 47.6191 675.318 46.1543V55.3125H672.066V28.9805H675.037L675.195 31.0898C676.52 29.4492 678.359 28.6289 680.715 28.6289C683 28.6289 684.805 29.4902 686.129 31.2129C687.465 32.9355 688.133 35.332 688.133 38.4023V38.7012ZM684.881 38.332C684.881 36.1875 684.424 34.4941 683.51 33.252C682.596 32.0098 681.342 31.3887 679.748 31.3887C677.779 31.3887 676.303 32.2617 675.318 34.0078V43.0957C676.291 44.8301 677.779 45.6973 679.783 45.6973C681.342 45.6973 682.578 45.082 683.492 43.8516C684.418 42.6094 684.881 40.7695 684.881 38.332Z" fill="white"/>
<path d="M704.023 48C703.836 47.625 703.684 46.957 703.566 45.9961C702.055 47.5664 700.25 48.3516 698.152 48.3516C696.277 48.3516 694.736 47.8242 693.529 46.7695C692.334 45.7031 691.736 44.3555 691.736 42.7266C691.736 40.7461 692.486 39.2109 693.986 38.1211C695.498 37.0195 697.619 36.4688 700.35 36.4688H703.514V34.9746C703.514 33.8379 703.174 32.9355 702.494 32.2676C701.814 31.5879 700.812 31.248 699.488 31.248C698.328 31.248 697.355 31.541 696.57 32.127C695.785 32.7129 695.393 33.4219 695.393 34.2539H692.123C692.123 33.3047 692.457 32.3906 693.125 31.5117C693.805 30.6211 694.719 29.918 695.867 29.4023C697.027 28.8867 698.299 28.6289 699.682 28.6289C701.873 28.6289 703.59 29.1797 704.832 30.2812C706.074 31.3711 706.719 32.877 706.766 34.7988V43.5527C706.766 45.2988 706.988 46.6875 707.434 47.7188V48H704.023ZM698.627 45.5215C699.646 45.5215 700.613 45.2578 701.527 44.7305C702.441 44.2031 703.104 43.5176 703.514 42.6738V38.7715H700.965C696.98 38.7715 694.988 39.9375 694.988 42.2695C694.988 43.2891 695.328 44.0859 696.008 44.6602C696.688 45.2344 697.561 45.5215 698.627 45.5215Z" fill="white"/>
<path d="M722.938 42.9551C722.938 42.0762 722.604 41.3965 721.936 40.916C721.279 40.4238 720.125 40.002 718.473 39.6504C716.832 39.2988 715.525 38.877 714.553 38.3848C713.592 37.8926 712.877 37.3066 712.408 36.627C711.951 35.9473 711.723 35.1387 711.723 34.2012C711.723 32.6426 712.379 31.3242 713.691 30.2461C715.016 29.168 716.703 28.6289 718.754 28.6289C720.91 28.6289 722.656 29.1855 723.992 30.2988C725.34 31.4121 726.014 32.8359 726.014 34.5703H722.744C722.744 33.6797 722.363 32.9121 721.602 32.2676C720.852 31.623 719.902 31.3008 718.754 31.3008C717.57 31.3008 716.645 31.5586 715.977 32.0742C715.309 32.5898 714.975 33.2637 714.975 34.0957C714.975 34.8809 715.285 35.4727 715.906 35.8711C716.527 36.2695 717.646 36.6504 719.264 37.0137C720.893 37.377 722.211 37.8105 723.219 38.3145C724.227 38.8184 724.971 39.4277 725.451 40.1426C725.943 40.8457 726.189 41.707 726.189 42.7266C726.189 44.4258 725.51 45.791 724.15 46.8223C722.791 47.8418 721.027 48.3516 718.859 48.3516C717.336 48.3516 715.988 48.082 714.816 47.543C713.645 47.0039 712.725 46.2539 712.057 45.293C711.4 44.3203 711.072 43.2715 711.072 42.1465H714.324C714.383 43.2363 714.816 44.1035 715.625 44.748C716.445 45.3809 717.523 45.6973 718.859 45.6973C720.09 45.6973 721.074 45.4512 721.812 44.959C722.562 44.4551 722.938 43.7871 722.938 42.9551Z" fill="white"/>
<path d="M734.838 24.375V28.9805H738.389V31.4941H734.838V43.2891C734.838 44.0508 734.996 44.625 735.312 45.0117C735.629 45.3867 736.168 45.5742 736.93 45.5742C737.305 45.5742 737.82 45.5039 738.477 45.3633V48C737.621 48.2344 736.789 48.3516 735.98 48.3516C734.527 48.3516 733.432 47.9121 732.693 47.0332C731.955 46.1543 731.586 44.9062 731.586 43.2891V31.4941H728.123V28.9805H731.586V24.375H734.838Z" fill="white"/>
<path d="M745.736 48H742.484V28.9805H745.736V48ZM742.221 23.9355C742.221 23.4082 742.379 22.9629 742.695 22.5996C743.023 22.2363 743.504 22.0547 744.137 22.0547C744.77 22.0547 745.25 22.2363 745.578 22.5996C745.906 22.9629 746.07 23.4082 746.07 23.9355C746.07 24.4629 745.906 24.9023 745.578 25.2539C745.25 25.6055 744.77 25.7812 744.137 25.7812C743.504 25.7812 743.023 25.6055 742.695 25.2539C742.379 24.9023 742.221 24.4629 742.221 23.9355Z" fill="white"/>
<path d="M754.49 48H751.238V21H754.49V48Z" fill="white"/>
<path d="M763.244 48H759.992V21H763.244V48Z" fill="white"/>
<path d="M780.207 48C780.02 47.625 779.867 46.957 779.75 45.9961C778.238 47.5664 776.434 48.3516 774.336 48.3516C772.461 48.3516 770.92 47.8242 769.713 46.7695C768.518 45.7031 767.92 44.3555 767.92 42.7266C767.92 40.7461 768.67 39.2109 770.17 38.1211C771.682 37.0195 773.803 36.4688 776.533 36.4688H779.697V34.9746C779.697 33.8379 779.357 32.9355 778.678 32.2676C777.998 31.5879 776.996 31.248 775.672 31.248C774.512 31.248 773.539 31.541 772.754 32.127C771.969 32.7129 771.576 33.4219 771.576 34.2539H768.307C768.307 33.3047 768.641 32.3906 769.309 31.5117C769.988 30.6211 770.902 29.918 772.051 29.4023C773.211 28.8867 774.482 28.6289 775.865 28.6289C778.057 28.6289 779.773 29.1797 781.016 30.2812C782.258 31.3711 782.902 32.877 782.949 34.7988V43.5527C782.949 45.2988 783.172 46.6875 783.617 47.7188V48H780.207ZM774.811 45.5215C775.83 45.5215 776.797 45.2578 777.711 44.7305C778.625 44.2031 779.287 43.5176 779.697 42.6738V38.7715H777.148C773.164 38.7715 771.172 39.9375 771.172 42.2695C771.172 43.2891 771.512 44.0859 772.191 44.6602C772.871 45.2344 773.744 45.5215 774.811 45.5215Z" fill="white"/>
<path d="M153.09 85.6973C154.25 85.6973 155.264 85.3457 156.131 84.6426C156.998 83.9395 157.479 83.0605 157.572 82.0059H160.648C160.59 83.0957 160.215 84.1328 159.523 85.1172C158.832 86.1016 157.906 86.8867 156.746 87.4727C155.598 88.0586 154.379 88.3516 153.09 88.3516C150.5 88.3516 148.438 87.4902 146.902 85.7676C145.379 84.0332 144.617 81.666 144.617 78.666V78.1211C144.617 76.2695 144.957 74.623 145.637 73.1816C146.316 71.7402 147.289 70.6211 148.555 69.8242C149.832 69.0273 151.338 68.6289 153.072 68.6289C155.205 68.6289 156.975 69.2676 158.381 70.5449C159.799 71.8223 160.555 73.4805 160.648 75.5195H157.572C157.479 74.2891 157.01 73.2812 156.166 72.4961C155.334 71.6992 154.303 71.3008 153.072 71.3008C151.42 71.3008 150.137 71.8984 149.223 73.0938C148.32 74.2773 147.869 75.9941 147.869 78.2441V78.8594C147.869 81.0508 148.32 82.7383 149.223 83.9219C150.125 85.1055 151.414 85.6973 153.09 85.6973Z" fill="white"/>
<path d="M176.047 88C175.859 87.625 175.707 86.957 175.59 85.9961C174.078 87.5664 172.273 88.3516 170.176 88.3516C168.301 88.3516 166.76 87.8242 165.553 86.7695C164.357 85.7031 163.76 84.3555 163.76 82.7266C163.76 80.7461 164.51 79.2109 166.01 78.1211C167.521 77.0195 169.643 76.4688 172.373 76.4688H175.537V74.9746C175.537 73.8379 175.197 72.9355 174.518 72.2676C173.838 71.5879 172.836 71.248 171.512 71.248C170.352 71.248 169.379 71.541 168.594 72.127C167.809 72.7129 167.416 73.4219 167.416 74.2539H164.146C164.146 73.3047 164.48 72.3906 165.148 71.5117C165.828 70.6211 166.742 69.918 167.891 69.4023C169.051 68.8867 170.322 68.6289 171.705 68.6289C173.896 68.6289 175.613 69.1797 176.855 70.2812C178.098 71.3711 178.742 72.877 178.789 74.7988V83.5527C178.789 85.2988 179.012 86.6875 179.457 87.7188V88H176.047ZM170.65 85.5215C171.67 85.5215 172.637 85.2578 173.551 84.7305C174.465 84.2031 175.127 83.5176 175.537 82.6738V78.7715H172.988C169.004 78.7715 167.012 79.9375 167.012 82.2695C167.012 83.2891 167.352 84.0859 168.031 84.6602C168.711 85.2344 169.584 85.5215 170.65 85.5215Z" fill="white"/>
<path d="M183.096 78.332C183.096 75.4141 183.787 73.0703 185.17 71.3008C186.553 69.5195 188.363 68.6289 190.602 68.6289C192.828 68.6289 194.592 69.3906 195.893 70.9141V61H199.145V88H196.156L195.998 85.9609C194.697 87.5547 192.887 88.3516 190.566 88.3516C188.363 88.3516 186.564 87.4492 185.17 85.6445C183.787 83.8398 183.096 81.4844 183.096 78.5781V78.332ZM186.348 78.7012C186.348 80.8574 186.793 82.5449 187.684 83.7637C188.574 84.9824 189.805 85.5918 191.375 85.5918C193.438 85.5918 194.943 84.666 195.893 82.8145V74.0781C194.92 72.2852 193.426 71.3887 191.41 71.3887C189.816 71.3887 188.574 72.0039 187.684 73.2344C186.793 74.4648 186.348 76.2871 186.348 78.7012Z" fill="white"/>
<path d="M215.949 88C215.762 87.625 215.609 86.957 215.492 85.9961C213.98 87.5664 212.176 88.3516 210.078 88.3516C208.203 88.3516 206.662 87.8242 205.455 86.7695C204.26 85.7031 203.662 84.3555 203.662 82.7266C203.662 80.7461 204.412 79.2109 205.912 78.1211C207.424 77.0195 209.545 76.4688 212.275 76.4688H215.439V74.9746C215.439 73.8379 215.1 72.9355 214.42 72.2676C213.74 71.5879 212.738 71.248 211.414 71.248C210.254 71.248 209.281 71.541 208.496 72.127C207.711 72.7129 207.318 73.4219 207.318 74.2539H204.049C204.049 73.3047 204.383 72.3906 205.051 71.5117C205.73 70.6211 206.645 69.918 207.793 69.4023C208.953 68.8867 210.225 68.6289 211.607 68.6289C213.799 68.6289 215.516 69.1797 216.758 70.2812C218 71.3711 218.645 72.877 218.691 74.7988V83.5527C218.691 85.2988 218.914 86.6875 219.359 87.7188V88H215.949ZM210.553 85.5215C211.572 85.5215 212.539 85.2578 213.453 84.7305C214.367 84.2031 215.029 83.5176 215.439 82.6738V78.7715H212.891C208.906 78.7715 206.914 79.9375 206.914 82.2695C206.914 83.2891 207.254 84.0859 207.934 84.6602C208.613 85.2344 209.486 85.5215 210.553 85.5215Z" fill="white"/>
<path d="M246.113 79.4043H249.664V82.0586H246.113V88H242.844V82.0586H231.189V80.1426L242.65 62.4062H246.113V79.4043ZM234.881 79.4043H242.844V66.8535L242.457 67.5566L234.881 79.4043Z" fill="white"/>
<path d="M265.115 71.2832C266.557 69.5137 268.432 68.6289 270.74 68.6289C274.76 68.6289 276.787 70.8965 276.822 75.4316V88H273.57V75.4141C273.559 74.043 273.242 73.0293 272.621 72.373C272.012 71.7168 271.057 71.3887 269.756 71.3887C268.701 71.3887 267.775 71.6699 266.979 72.2324C266.182 72.7949 265.561 73.5332 265.115 74.4473V88H261.863V61H265.115V71.2832Z" fill="white"/>
<path d="M280.83 78.3145C280.83 76.4512 281.193 74.7754 281.92 73.2871C282.658 71.7988 283.678 70.6504 284.979 69.8418C286.291 69.0332 287.785 68.6289 289.461 68.6289C292.051 68.6289 294.143 69.5254 295.736 71.3184C297.342 73.1113 298.145 75.4961 298.145 78.4727V78.7012C298.145 80.5527 297.787 82.2168 297.072 83.6934C296.369 85.1582 295.355 86.3008 294.031 87.1211C292.719 87.9414 291.207 88.3516 289.496 88.3516C286.918 88.3516 284.826 87.4551 283.221 85.6621C281.627 83.8691 280.83 81.4961 280.83 78.543V78.3145ZM284.1 78.7012C284.1 80.8105 284.586 82.5039 285.559 83.7812C286.543 85.0586 287.855 85.6973 289.496 85.6973C291.148 85.6973 292.461 85.0527 293.434 83.7637C294.406 82.4629 294.893 80.6465 294.893 78.3145C294.893 76.2285 294.395 74.541 293.398 73.252C292.414 71.9512 291.102 71.3008 289.461 71.3008C287.855 71.3008 286.561 71.9395 285.576 73.2168C284.592 74.4941 284.1 76.3223 284.1 78.7012Z" fill="white"/>
<path d="M311.416 71.8984C310.924 71.8164 310.391 71.7754 309.816 71.7754C307.684 71.7754 306.236 72.6836 305.475 74.5V88H302.223V68.9805H305.387L305.439 71.1777C306.506 69.4785 308.018 68.6289 309.975 68.6289C310.607 68.6289 311.088 68.7109 311.416 68.875V71.8984Z" fill="white"/>
<path d="M325.461 88C325.273 87.625 325.121 86.957 325.004 85.9961C323.492 87.5664 321.688 88.3516 319.59 88.3516C317.715 88.3516 316.174 87.8242 314.967 86.7695C313.771 85.7031 313.174 84.3555 313.174 82.7266C313.174 80.7461 313.924 79.2109 315.424 78.1211C316.936 77.0195 319.057 76.4688 321.787 76.4688H324.951V74.9746C324.951 73.8379 324.611 72.9355 323.932 72.2676C323.252 71.5879 322.25 71.248 320.926 71.248C319.766 71.248 318.793 71.541 318.008 72.127C317.223 72.7129 316.83 73.4219 316.83 74.2539H313.561C313.561 73.3047 313.895 72.3906 314.562 71.5117C315.242 70.6211 316.156 69.918 317.305 69.4023C318.465 68.8867 319.736 68.6289 321.119 68.6289C323.311 68.6289 325.027 69.1797 326.27 70.2812C327.512 71.3711 328.156 72.877 328.203 74.7988V83.5527C328.203 85.2988 328.426 86.6875 328.871 87.7188V88H325.461ZM320.064 85.5215C321.084 85.5215 322.051 85.2578 322.965 84.7305C323.879 84.2031 324.541 83.5176 324.951 82.6738V78.7715H322.402C318.418 78.7715 316.426 79.9375 316.426 82.2695C316.426 83.2891 316.766 84.0859 317.445 84.6602C318.125 85.2344 318.998 85.5215 320.064 85.5215Z" fill="white"/>
<path d="M344.375 82.9551C344.375 82.0762 344.041 81.3965 343.373 80.916C342.717 80.4238 341.562 80.002 339.91 79.6504C338.27 79.2988 336.963 78.877 335.99 78.3848C335.029 77.8926 334.314 77.3066 333.846 76.627C333.389 75.9473 333.16 75.1387 333.16 74.2012C333.16 72.6426 333.816 71.3242 335.129 70.2461C336.453 69.168 338.141 68.6289 340.191 68.6289C342.348 68.6289 344.094 69.1855 345.43 70.2988C346.777 71.4121 347.451 72.8359 347.451 74.5703H344.182C344.182 73.6797 343.801 72.9121 343.039 72.2676C342.289 71.623 341.34 71.3008 340.191 71.3008C339.008 71.3008 338.082 71.5586 337.414 72.0742C336.746 72.5898 336.412 73.2637 336.412 74.0957C336.412 74.8809 336.723 75.4727 337.344 75.8711C337.965 76.2695 339.084 76.6504 340.701 77.0137C342.33 77.377 343.648 77.8105 344.656 78.3145C345.664 78.8184 346.408 79.4277 346.889 80.1426C347.381 80.8457 347.627 81.707 347.627 82.7266C347.627 84.4258 346.947 85.791 345.588 86.8223C344.229 87.8418 342.465 88.3516 340.297 88.3516C338.773 88.3516 337.426 88.082 336.254 87.543C335.082 87.0039 334.162 86.2539 333.494 85.293C332.838 84.3203 332.51 83.2715 332.51 82.1465H335.762C335.82 83.2363 336.254 84.1035 337.062 84.748C337.883 85.3809 338.961 85.6973 340.297 85.6973C341.527 85.6973 342.512 85.4512 343.25 84.959C344 84.4551 344.375 83.7871 344.375 82.9551Z" fill="white"/>
<path d="M351.934 86.2949C351.934 85.7324 352.098 85.2637 352.426 84.8887C352.766 84.5137 353.27 84.3262 353.938 84.3262C354.605 84.3262 355.109 84.5137 355.449 84.8887C355.801 85.2637 355.977 85.7324 355.977 86.2949C355.977 86.834 355.801 87.2852 355.449 87.6484C355.109 88.0117 354.605 88.1934 353.938 88.1934C353.27 88.1934 352.766 88.0117 352.426 87.6484C352.098 87.2852 351.934 86.834 351.934 86.2949Z" fill="white"/>
<path d="M378.336 76.5918C375.441 75.7598 373.332 74.7402 372.008 73.5332C370.695 72.3145 370.039 70.8145 370.039 69.0332C370.039 67.0176 370.842 65.3535 372.447 64.041C374.064 62.7168 376.162 62.0547 378.74 62.0547C380.498 62.0547 382.062 62.3945 383.434 63.0742C384.816 63.7539 385.883 64.6914 386.633 65.8867C387.395 67.082 387.775 68.3887 387.775 69.8066H384.383C384.383 68.2598 383.891 67.0469 382.906 66.168C381.922 65.2773 380.533 64.832 378.74 64.832C377.076 64.832 375.775 65.2012 374.838 65.9395C373.912 66.666 373.449 67.6797 373.449 68.9805C373.449 70.0234 373.889 70.9082 374.768 71.6348C375.658 72.3496 377.164 73.0059 379.285 73.6035C381.418 74.2012 383.082 74.8633 384.277 75.5898C385.484 76.3047 386.375 77.1426 386.949 78.1035C387.535 79.0645 387.828 80.1953 387.828 81.4961C387.828 83.5703 387.02 85.2344 385.402 86.4883C383.785 87.7305 381.623 88.3516 378.916 88.3516C377.158 88.3516 375.518 88.0176 373.994 87.3496C372.471 86.6699 371.293 85.7441 370.461 84.5723C369.641 83.4004 369.23 82.0703 369.23 80.582H372.623C372.623 82.1289 373.191 83.3535 374.328 84.2559C375.477 85.1465 377.006 85.5918 378.916 85.5918C380.697 85.5918 382.062 85.2285 383.012 84.502C383.961 83.7754 384.436 82.7852 384.436 81.5312C384.436 80.2773 383.996 79.3105 383.117 78.6309C382.238 77.9395 380.645 77.2598 378.336 76.5918Z" fill="white"/>
<path d="M395.193 88H391.941V68.9805H395.193V88ZM391.678 63.9355C391.678 63.4082 391.836 62.9629 392.152 62.5996C392.48 62.2363 392.961 62.0547 393.594 62.0547C394.227 62.0547 394.707 62.2363 395.035 62.5996C395.363 62.9629 395.527 63.4082 395.527 63.9355C395.527 64.4629 395.363 64.9023 395.035 65.2539C394.707 65.6055 394.227 65.7812 393.594 65.7812C392.961 65.7812 392.48 65.6055 392.152 65.2539C391.836 64.9023 391.678 64.4629 391.678 63.9355Z" fill="white"/>
<path d="M417.236 88.3516C414.658 88.3516 412.561 87.5078 410.943 85.8203C409.326 84.1211 408.518 81.8535 408.518 79.0176V78.4199C408.518 76.5332 408.875 74.8516 409.59 73.375C410.316 71.8867 411.324 70.7266 412.613 69.8945C413.914 69.0508 415.32 68.6289 416.832 68.6289C419.305 68.6289 421.227 69.4434 422.598 71.0723C423.969 72.7012 424.654 75.0332 424.654 78.0684V79.4219H411.77C411.816 81.2969 412.361 82.8145 413.404 83.9746C414.459 85.123 415.795 85.6973 417.412 85.6973C418.561 85.6973 419.533 85.4629 420.33 84.9941C421.127 84.5254 421.824 83.9043 422.422 83.1309L424.408 84.6777C422.814 87.127 420.424 88.3516 417.236 88.3516ZM416.832 71.3008C415.52 71.3008 414.418 71.7812 413.527 72.7422C412.637 73.6914 412.086 75.0273 411.875 76.75H421.402V76.5039C421.309 74.8516 420.863 73.5742 420.066 72.6719C419.27 71.7578 418.191 71.3008 416.832 71.3008Z" fill="white"/>
<path d="M431.492 68.9805L431.58 71.0898C432.975 69.4492 434.855 68.6289 437.223 68.6289C439.883 68.6289 441.693 69.6484 442.654 71.6875C443.287 70.7734 444.107 70.0352 445.115 69.4727C446.135 68.9102 447.336 68.6289 448.719 68.6289C452.891 68.6289 455.012 70.8379 455.082 75.2559V88H451.83V75.4492C451.83 74.0898 451.52 73.0762 450.898 72.4082C450.277 71.7285 449.234 71.3887 447.77 71.3887C446.562 71.3887 445.561 71.752 444.764 72.4785C443.967 73.1934 443.504 74.1602 443.375 75.3789V88H440.105V75.5371C440.105 72.7715 438.752 71.3887 436.045 71.3887C433.912 71.3887 432.453 72.2969 431.668 74.1133V88H428.416V68.9805H431.492Z" fill="white"/>
<path d="M476.07 78.7012C476.07 81.5957 475.408 83.9277 474.084 85.6973C472.76 87.4668 470.967 88.3516 468.705 88.3516C466.396 88.3516 464.58 87.6191 463.256 86.1543V95.3125H460.004V68.9805H462.975L463.133 71.0898C464.457 69.4492 466.297 68.6289 468.652 68.6289C470.938 68.6289 472.742 69.4902 474.066 71.2129C475.402 72.9355 476.07 75.332 476.07 78.4023V78.7012ZM472.818 78.332C472.818 76.1875 472.361 74.4941 471.447 73.252C470.533 72.0098 469.279 71.3887 467.686 71.3887C465.717 71.3887 464.24 72.2617 463.256 74.0078V83.0957C464.229 84.8301 465.717 85.6973 467.721 85.6973C469.279 85.6973 470.516 85.082 471.43 83.8516C472.355 82.6094 472.818 80.7695 472.818 78.332Z" fill="white"/>
<path d="M488.111 88.3516C485.533 88.3516 483.436 87.5078 481.818 85.8203C480.201 84.1211 479.393 81.8535 479.393 79.0176V78.4199C479.393 76.5332 479.75 74.8516 480.465 73.375C481.191 71.8867 482.199 70.7266 483.488 69.8945C484.789 69.0508 486.195 68.6289 487.707 68.6289C490.18 68.6289 492.102 69.4434 493.473 71.0723C494.844 72.7012 495.529 75.0332 495.529 78.0684V79.4219H482.645C482.691 81.2969 483.236 82.8145 484.279 83.9746C485.334 85.123 486.67 85.6973 488.287 85.6973C489.436 85.6973 490.408 85.4629 491.205 84.9941C492.002 84.5254 492.699 83.9043 493.297 83.1309L495.283 84.6777C493.689 87.127 491.299 88.3516 488.111 88.3516ZM487.707 71.3008C486.395 71.3008 485.293 71.7812 484.402 72.7422C483.512 73.6914 482.961 75.0273 482.75 76.75H492.277V76.5039C492.184 74.8516 491.738 73.5742 490.941 72.6719C490.145 71.7578 489.066 71.3008 487.707 71.3008Z" fill="white"/>
<path d="M502.367 85.3457H513.494V88H498.395V85.6094L508.889 71.6699H498.553V68.9805H512.967V71.2832L502.367 85.3457Z" fill="white"/>
<path d="M516.025 78.3145C516.025 76.4512 516.389 74.7754 517.115 73.2871C517.854 71.7988 518.873 70.6504 520.174 69.8418C521.486 69.0332 522.98 68.6289 524.656 68.6289C527.246 68.6289 529.338 69.5254 530.932 71.3184C532.537 73.1113 533.34 75.4961 533.34 78.4727V78.7012C533.34 80.5527 532.982 82.2168 532.268 83.6934C531.564 85.1582 530.551 86.3008 529.227 87.1211C527.914 87.9414 526.402 88.3516 524.691 88.3516C522.113 88.3516 520.021 87.4551 518.416 85.6621C516.822 83.8691 516.025 81.4961 516.025 78.543V78.3145ZM519.295 78.7012C519.295 80.8105 519.781 82.5039 520.754 83.7812C521.738 85.0586 523.051 85.6973 524.691 85.6973C526.344 85.6973 527.656 85.0527 528.629 83.7637C529.602 82.4629 530.088 80.6465 530.088 78.3145C530.088 76.2285 529.59 74.541 528.594 73.252C527.609 71.9512 526.297 71.3008 524.656 71.3008C523.051 71.3008 521.756 71.9395 520.771 73.2168C519.787 74.4941 519.295 76.3223 519.295 78.7012ZM526.133 61H530.07L525.359 66.168H522.74L526.133 61Z" fill="white"/>
<path d="M558.09 88C557.902 87.625 557.75 86.957 557.633 85.9961C556.121 87.5664 554.316 88.3516 552.219 88.3516C550.344 88.3516 548.803 87.8242 547.596 86.7695C546.4 85.7031 545.803 84.3555 545.803 82.7266C545.803 80.7461 546.553 79.2109 548.053 78.1211C549.564 77.0195 551.686 76.4688 554.416 76.4688H557.58V74.9746C557.58 73.8379 557.24 72.9355 556.561 72.2676C555.881 71.5879 554.879 71.248 553.555 71.248C552.395 71.248 551.422 71.541 550.637 72.127C549.852 72.7129 549.459 73.4219 549.459 74.2539H546.189C546.189 73.3047 546.523 72.3906 547.191 71.5117C547.871 70.6211 548.785 69.918 549.934 69.4023C551.094 68.8867 552.365 68.6289 553.748 68.6289C555.939 68.6289 557.656 69.1797 558.898 70.2812C560.141 71.3711 560.785 72.877 560.832 74.7988V83.5527C560.832 85.2988 561.055 86.6875 561.5 87.7188V88H558.09ZM552.693 85.5215C553.713 85.5215 554.68 85.2578 555.594 84.7305C556.508 84.2031 557.17 83.5176 557.58 82.6738V78.7715H555.031C551.047 78.7715 549.055 79.9375 549.055 82.2695C549.055 83.2891 549.395 84.0859 550.074 84.6602C550.754 85.2344 551.627 85.5215 552.693 85.5215Z" fill="white"/>
<path d="M579.271 64.375V68.9805H582.822V71.4941H579.271V83.2891C579.271 84.0508 579.43 84.625 579.746 85.0117C580.062 85.3867 580.602 85.5742 581.363 85.5742C581.738 85.5742 582.254 85.5039 582.91 85.3633V88C582.055 88.2344 581.223 88.3516 580.414 88.3516C578.961 88.3516 577.865 87.9121 577.127 87.0332C576.389 86.1543 576.02 84.9062 576.02 83.2891V71.4941H572.557V68.9805H576.02V64.375H579.271Z" fill="white"/>
<path d="M585.424 78.3145C585.424 76.4512 585.787 74.7754 586.514 73.2871C587.252 71.7988 588.271 70.6504 589.572 69.8418C590.885 69.0332 592.379 68.6289 594.055 68.6289C596.645 68.6289 598.736 69.5254 600.33 71.3184C601.936 73.1113 602.738 75.4961 602.738 78.4727V78.7012C602.738 80.5527 602.381 82.2168 601.666 83.6934C600.963 85.1582 599.949 86.3008 598.625 87.1211C597.312 87.9414 595.801 88.3516 594.09 88.3516C591.512 88.3516 589.42 87.4551 587.814 85.6621C586.221 83.8691 585.424 81.4961 585.424 78.543V78.3145ZM588.693 78.7012C588.693 80.8105 589.18 82.5039 590.152 83.7812C591.137 85.0586 592.449 85.6973 594.09 85.6973C595.742 85.6973 597.055 85.0527 598.027 83.7637C599 82.4629 599.486 80.6465 599.486 78.3145C599.486 76.2285 598.988 74.541 597.992 73.252C597.008 71.9512 595.695 71.3008 594.055 71.3008C592.449 71.3008 591.154 71.9395 590.17 73.2168C589.186 74.4941 588.693 76.3223 588.693 78.7012Z" fill="white"/>
<path d="M609.875 68.9805L609.963 71.0898C611.357 69.4492 613.238 68.6289 615.605 68.6289C618.266 68.6289 620.076 69.6484 621.037 71.6875C621.67 70.7734 622.49 70.0352 623.498 69.4727C624.518 68.9102 625.719 68.6289 627.102 68.6289C631.273 68.6289 633.395 70.8379 633.465 75.2559V88H630.213V75.4492C630.213 74.0898 629.902 73.0762 629.281 72.4082C628.66 71.7285 627.617 71.3887 626.152 71.3887C624.945 71.3887 623.943 71.752 623.146 72.4785C622.35 73.1934 621.887 74.1602 621.758 75.3789V88H618.488V75.5371C618.488 72.7715 617.135 71.3887 614.428 71.3887C612.295 71.3887 610.836 72.2969 610.051 74.1133V88H606.799V68.9805H609.875Z" fill="white"/>
<path d="M650.129 88C649.941 87.625 649.789 86.957 649.672 85.9961C648.16 87.5664 646.355 88.3516 644.258 88.3516C642.383 88.3516 640.842 87.8242 639.635 86.7695C638.439 85.7031 637.842 84.3555 637.842 82.7266C637.842 80.7461 638.592 79.2109 640.092 78.1211C641.604 77.0195 643.725 76.4688 646.455 76.4688H649.619V74.9746C649.619 73.8379 649.279 72.9355 648.6 72.2676C647.92 71.5879 646.918 71.248 645.594 71.248C644.434 71.248 643.461 71.541 642.676 72.127C641.891 72.7129 641.498 73.4219 641.498 74.2539H638.229C638.229 73.3047 638.562 72.3906 639.23 71.5117C639.91 70.6211 640.824 69.918 641.973 69.4023C643.133 68.8867 644.404 68.6289 645.787 68.6289C647.979 68.6289 649.695 69.1797 650.938 70.2812C652.18 71.3711 652.824 72.877 652.871 74.7988V83.5527C652.871 85.2988 653.094 86.6875 653.539 87.7188V88H650.129ZM644.732 85.5215C645.752 85.5215 646.719 85.2578 647.633 84.7305C648.547 84.2031 649.209 83.5176 649.619 82.6738V78.7715H647.07C643.086 78.7715 641.094 79.9375 641.094 82.2695C641.094 83.2891 641.434 84.0859 642.113 84.6602C642.793 85.2344 643.666 85.5215 644.732 85.5215Z" fill="white"/>
<path d="M667.162 71.8984C666.67 71.8164 666.137 71.7754 665.562 71.7754C663.43 71.7754 661.982 72.6836 661.221 74.5V88H657.969V68.9805H661.133L661.186 71.1777C662.252 69.4785 663.764 68.6289 665.721 68.6289C666.354 68.6289 666.834 68.7109 667.162 68.875V71.8984Z" fill="white"/>
<path d="M673.701 88H670.449V61H673.701V88Z" fill="white"/>
<path d="M690.664 88C690.477 87.625 690.324 86.957 690.207 85.9961C688.695 87.5664 686.891 88.3516 684.793 88.3516C682.918 88.3516 681.377 87.8242 680.17 86.7695C678.975 85.7031 678.377 84.3555 678.377 82.7266C678.377 80.7461 679.127 79.2109 680.627 78.1211C682.139 77.0195 684.26 76.4688 686.99 76.4688H690.154V74.9746C690.154 73.8379 689.814 72.9355 689.135 72.2676C688.455 71.5879 687.453 71.248 686.129 71.248C684.969 71.248 683.996 71.541 683.211 72.127C682.426 72.7129 682.033 73.4219 682.033 74.2539H678.764C678.764 73.3047 679.098 72.3906 679.766 71.5117C680.445 70.6211 681.359 69.918 682.508 69.4023C683.668 68.8867 684.939 68.6289 686.322 68.6289C688.514 68.6289 690.23 69.1797 691.473 70.2812C692.715 71.3711 693.359 72.877 693.406 74.7988V83.5527C693.406 85.2988 693.629 86.6875 694.074 87.7188V88H690.664ZM685.268 85.5215C686.287 85.5215 687.254 85.2578 688.168 84.7305C689.082 84.2031 689.744 83.5176 690.154 82.6738V78.7715H687.605C683.621 78.7715 681.629 79.9375 681.629 82.2695C681.629 83.2891 681.969 84.0859 682.648 84.6602C683.328 85.2344 684.201 85.5215 685.268 85.5215Z" fill="white"/>
<path d="M709.578 82.9551C709.578 82.0762 709.244 81.3965 708.576 80.916C707.92 80.4238 706.766 80.002 705.113 79.6504C703.473 79.2988 702.166 78.877 701.193 78.3848C700.232 77.8926 699.518 77.3066 699.049 76.627C698.592 75.9473 698.363 75.1387 698.363 74.2012C698.363 72.6426 699.02 71.3242 700.332 70.2461C701.656 69.168 703.344 68.6289 705.395 68.6289C707.551 68.6289 709.297 69.1855 710.633 70.2988C711.98 71.4121 712.654 72.8359 712.654 74.5703H709.385C709.385 73.6797 709.004 72.9121 708.242 72.2676C707.492 71.623 706.543 71.3008 705.395 71.3008C704.211 71.3008 703.285 71.5586 702.617 72.0742C701.949 72.5898 701.615 73.2637 701.615 74.0957C701.615 74.8809 701.926 75.4727 702.547 75.8711C703.168 76.2695 704.287 76.6504 705.904 77.0137C707.533 77.377 708.852 77.8105 709.859 78.3145C710.867 78.8184 711.611 79.4277 712.092 80.1426C712.584 80.8457 712.83 81.707 712.83 82.7266C712.83 84.4258 712.15 85.791 710.791 86.8223C709.432 87.8418 707.668 88.3516 705.5 88.3516C703.977 88.3516 702.629 88.082 701.457 87.543C700.285 87.0039 699.365 86.2539 698.697 85.293C698.041 84.3203 697.713 83.2715 697.713 82.1465H700.965C701.023 83.2363 701.457 84.1035 702.266 84.748C703.086 85.3809 704.164 85.6973 705.5 85.6973C706.73 85.6973 707.715 85.4512 708.453 84.959C709.203 84.4551 709.578 83.7871 709.578 82.9551Z" fill="white"/>
<path d="M737.738 88C737.551 87.625 737.398 86.957 737.281 85.9961C735.77 87.5664 733.965 88.3516 731.867 88.3516C729.992 88.3516 728.451 87.8242 727.244 86.7695C726.049 85.7031 725.451 84.3555 725.451 82.7266C725.451 80.7461 726.201 79.2109 727.701 78.1211C729.213 77.0195 731.334 76.4688 734.064 76.4688H737.229V74.9746C737.229 73.8379 736.889 72.9355 736.209 72.2676C735.529 71.5879 734.527 71.248 733.203 71.248C732.043 71.248 731.07 71.541 730.285 72.127C729.5 72.7129 729.107 73.4219 729.107 74.2539H725.838C725.838 73.3047 726.172 72.3906 726.84 71.5117C727.52 70.6211 728.434 69.918 729.582 69.4023C730.742 68.8867 732.014 68.6289 733.396 68.6289C735.588 68.6289 737.305 69.1797 738.547 70.2812C739.789 71.3711 740.434 72.877 740.48 74.7988V83.5527C740.48 85.2988 740.703 86.6875 741.148 87.7188V88H737.738ZM732.342 85.5215C733.361 85.5215 734.328 85.2578 735.242 84.7305C736.156 84.2031 736.818 83.5176 737.229 82.6738V78.7715H734.68C730.695 78.7715 728.703 79.9375 728.703 82.2695C728.703 83.2891 729.043 84.0859 729.723 84.6602C730.402 85.2344 731.275 85.5215 732.342 85.5215Z" fill="white"/>
<path d="M758.041 88H754.789V61H758.041V88Z" fill="white"/>
<path d="M775.004 88C774.816 87.625 774.664 86.957 774.547 85.9961C773.035 87.5664 771.23 88.3516 769.133 88.3516C767.258 88.3516 765.717 87.8242 764.51 86.7695C763.314 85.7031 762.717 84.3555 762.717 82.7266C762.717 80.7461 763.467 79.2109 764.967 78.1211C766.479 77.0195 768.6 76.4688 771.33 76.4688H774.494V74.9746C774.494 73.8379 774.154 72.9355 773.475 72.2676C772.795 71.5879 771.793 71.248 770.469 71.248C769.309 71.248 768.336 71.541 767.551 72.127C766.766 72.7129 766.373 73.4219 766.373 74.2539H763.104C763.104 73.3047 763.438 72.3906 764.105 71.5117C764.785 70.6211 765.699 69.918 766.848 69.4023C768.008 68.8867 769.279 68.6289 770.662 68.6289C772.854 68.6289 774.57 69.1797 775.812 70.2812C777.055 71.3711 777.699 72.877 777.746 74.7988V83.5527C777.746 85.2988 777.969 86.6875 778.414 87.7188V88H775.004ZM769.607 85.5215C770.627 85.5215 771.594 85.2578 772.508 84.7305C773.422 84.2031 774.084 83.5176 774.494 82.6738V78.7715H771.945C767.961 78.7715 765.969 79.9375 765.969 82.2695C765.969 83.2891 766.309 84.0859 766.988 84.6602C767.668 85.2344 768.541 85.5215 769.607 85.5215Z" fill="white"/>
<path d="M793.918 82.9551C793.918 82.0762 793.584 81.3965 792.916 80.916C792.26 80.4238 791.105 80.002 789.453 79.6504C787.812 79.2988 786.506 78.877 785.533 78.3848C784.572 77.8926 783.857 77.3066 783.389 76.627C782.932 75.9473 782.703 75.1387 782.703 74.2012C782.703 72.6426 783.359 71.3242 784.672 70.2461C785.996 69.168 787.684 68.6289 789.734 68.6289C791.891 68.6289 793.637 69.1855 794.973 70.2988C796.32 71.4121 796.994 72.8359 796.994 74.5703H793.725C793.725 73.6797 793.344 72.9121 792.582 72.2676C791.832 71.623 790.883 71.3008 789.734 71.3008C788.551 71.3008 787.625 71.5586 786.957 72.0742C786.289 72.5898 785.955 73.2637 785.955 74.0957C785.955 74.8809 786.266 75.4727 786.887 75.8711C787.508 76.2695 788.627 76.6504 790.244 77.0137C791.873 77.377 793.191 77.8105 794.199 78.3145C795.207 78.8184 795.951 79.4277 796.432 80.1426C796.924 80.8457 797.17 81.707 797.17 82.7266C797.17 84.4258 796.49 85.791 795.131 86.8223C793.771 87.8418 792.008 88.3516 789.84 88.3516C788.316 88.3516 786.969 88.082 785.797 87.543C784.625 87.0039 783.705 86.2539 783.037 85.293C782.381 84.3203 782.053 83.2715 782.053 82.1465H785.305C785.363 83.2363 785.797 84.1035 786.605 84.748C787.426 85.3809 788.504 85.6973 789.84 85.6973C791.07 85.6973 792.055 85.4512 792.793 84.959C793.543 84.4551 793.918 83.7871 793.918 82.9551Z" fill="white"/>
<path d="M157.889 102.389V105.148H157.291C154.76 105.195 152.744 105.945 151.244 107.398C149.744 108.852 148.877 110.896 148.643 113.533C149.99 111.986 151.83 111.213 154.162 111.213C156.389 111.213 158.164 111.998 159.488 113.568C160.824 115.139 161.492 117.166 161.492 119.65C161.492 122.287 160.771 124.396 159.33 125.979C157.9 127.561 155.979 128.352 153.564 128.352C151.115 128.352 149.129 127.414 147.605 125.539C146.082 123.652 145.32 121.227 145.32 118.262V117.014C145.32 112.303 146.322 108.705 148.326 106.221C150.342 103.725 153.336 102.447 157.309 102.389H157.889ZM153.617 113.92C152.504 113.92 151.479 114.254 150.541 114.922C149.604 115.59 148.953 116.428 148.59 117.436V118.631C148.59 120.74 149.064 122.439 150.014 123.729C150.963 125.018 152.146 125.662 153.564 125.662C155.029 125.662 156.178 125.123 157.01 124.045C157.854 122.967 158.275 121.555 158.275 119.809C158.275 118.051 157.848 116.633 156.992 115.555C156.148 114.465 155.023 113.92 153.617 113.92Z" fill="white"/>
<path d="M165.57 126.295C165.57 125.732 165.734 125.264 166.062 124.889C166.402 124.514 166.906 124.326 167.574 124.326C168.242 124.326 168.746 124.514 169.086 124.889C169.438 125.264 169.613 125.732 169.613 126.295C169.613 126.834 169.438 127.285 169.086 127.648C168.746 128.012 168.242 128.193 167.574 128.193C166.906 128.193 166.402 128.012 166.062 127.648C165.734 127.285 165.57 126.834 165.57 126.295ZM165.588 110.773C165.588 110.211 165.752 109.742 166.08 109.367C166.42 108.992 166.924 108.805 167.592 108.805C168.26 108.805 168.764 108.992 169.104 109.367C169.455 109.742 169.631 110.211 169.631 110.773C169.631 111.312 169.455 111.764 169.104 112.127C168.764 112.49 168.26 112.672 167.592 112.672C166.924 112.672 166.42 112.49 166.08 112.127C165.752 111.764 165.588 111.312 165.588 110.773Z" fill="white"/>
<path d="M190.109 117.084C190.109 120.893 189.459 123.723 188.158 125.574C186.857 127.426 184.824 128.352 182.059 128.352C179.328 128.352 177.307 127.449 175.994 125.645C174.682 123.828 174.002 121.121 173.955 117.523V113.182C173.955 109.42 174.605 106.625 175.906 104.797C177.207 102.969 179.246 102.055 182.023 102.055C184.777 102.055 186.805 102.939 188.105 104.709C189.406 106.467 190.074 109.186 190.109 112.865V117.084ZM186.857 112.637C186.857 109.883 186.471 107.879 185.697 106.625C184.924 105.359 183.699 104.727 182.023 104.727C180.359 104.727 179.146 105.354 178.385 106.607C177.623 107.861 177.23 109.789 177.207 112.391V117.594C177.207 120.359 177.605 122.404 178.402 123.729C179.211 125.041 180.43 125.697 182.059 125.697C183.664 125.697 184.854 125.076 185.627 123.834C186.412 122.592 186.822 120.635 186.857 117.963V112.637Z" fill="white"/>
<path d="M210.324 117.084C210.324 120.893 209.674 123.723 208.373 125.574C207.072 127.426 205.039 128.352 202.273 128.352C199.543 128.352 197.521 127.449 196.209 125.645C194.896 123.828 194.217 121.121 194.17 117.523V113.182C194.17 109.42 194.82 106.625 196.121 104.797C197.422 102.969 199.461 102.055 202.238 102.055C204.992 102.055 207.02 102.939 208.32 104.709C209.621 106.467 210.289 109.186 210.324 112.865V117.084ZM207.072 112.637C207.072 109.883 206.686 107.879 205.912 106.625C205.139 105.359 203.914 104.727 202.238 104.727C200.574 104.727 199.361 105.354 198.6 106.607C197.838 107.861 197.445 109.789 197.422 112.391V117.594C197.422 120.359 197.82 122.404 198.617 123.729C199.426 125.041 200.645 125.697 202.273 125.697C203.879 125.697 205.068 125.076 205.842 123.834C206.627 122.592 207.037 120.635 207.072 117.963V112.637Z" fill="white"/>
<path d="M235.496 128C235.309 127.625 235.156 126.957 235.039 125.996C233.527 127.566 231.723 128.352 229.625 128.352C227.75 128.352 226.209 127.824 225.002 126.77C223.807 125.703 223.209 124.355 223.209 122.727C223.209 120.746 223.959 119.211 225.459 118.121C226.971 117.02 229.092 116.469 231.822 116.469H234.986V114.975C234.986 113.838 234.646 112.936 233.967 112.268C233.287 111.588 232.285 111.248 230.961 111.248C229.801 111.248 228.828 111.541 228.043 112.127C227.258 112.713 226.865 113.422 226.865 114.254H223.596C223.596 113.305 223.93 112.391 224.598 111.512C225.277 110.621 226.191 109.918 227.34 109.402C228.5 108.887 229.771 108.629 231.154 108.629C233.346 108.629 235.062 109.18 236.305 110.281C237.547 111.371 238.191 112.877 238.238 114.799V123.553C238.238 125.299 238.461 126.688 238.906 127.719V128H235.496ZM230.1 125.521C231.119 125.521 232.086 125.258 233 124.73C233.914 124.203 234.576 123.518 234.986 122.674V118.771H232.438C228.453 118.771 226.461 119.938 226.461 122.27C226.461 123.289 226.801 124.086 227.48 124.66C228.16 125.234 229.033 125.521 230.1 125.521Z" fill="white"/>
<path d="M246.395 108.98L246.482 111.09C247.877 109.449 249.758 108.629 252.125 108.629C254.785 108.629 256.596 109.648 257.557 111.688C258.189 110.773 259.01 110.035 260.018 109.473C261.037 108.91 262.238 108.629 263.621 108.629C267.793 108.629 269.914 110.838 269.984 115.256V128H266.732V115.449C266.732 114.09 266.422 113.076 265.801 112.408C265.18 111.729 264.137 111.389 262.672 111.389C261.465 111.389 260.463 111.752 259.666 112.479C258.869 113.193 258.406 114.16 258.277 115.379V128H255.008V115.537C255.008 112.771 253.654 111.389 250.947 111.389C248.814 111.389 247.355 112.297 246.57 114.113V128H243.318V108.98H246.395Z" fill="white"/>
<path d="M274.801 133.098L272.955 131.832C274.057 130.297 274.631 128.715 274.678 127.086V124.15H277.859V126.699C277.859 127.883 277.566 129.066 276.98 130.25C276.406 131.434 275.68 132.383 274.801 133.098Z" fill="white"/>
<path d="M298.777 116.047C298.766 117.289 298.637 118.285 298.391 119.035C298.156 119.773 297.758 120.488 297.195 121.18C296.633 121.871 295.812 122.785 294.734 123.922C293.656 125.047 293.053 126.189 292.924 127.35L292.889 128C292.889 129.277 293.229 130.25 293.908 130.918C294.588 131.598 295.566 131.938 296.844 131.938C298.016 131.938 298.965 131.604 299.691 130.936C300.43 130.279 300.799 129.418 300.799 128.352H304.051C304.027 130.238 303.354 131.779 302.029 132.975C300.717 134.17 298.988 134.768 296.844 134.768C294.547 134.768 292.771 134.176 291.518 132.992C290.264 131.82 289.637 130.186 289.637 128.088C289.637 126.061 290.574 124.021 292.449 121.971L294.365 119.984C295.139 119.07 295.525 117.758 295.525 116.047H298.777ZM298.918 110.475C298.918 111.002 298.754 111.447 298.426 111.811C298.109 112.174 297.635 112.355 297.002 112.355C296.369 112.355 295.889 112.174 295.561 111.811C295.232 111.447 295.068 111.002 295.068 110.475C295.068 109.959 295.232 109.525 295.561 109.174C295.889 108.822 296.369 108.646 297.002 108.646C297.635 108.646 298.109 108.822 298.426 109.174C298.754 109.525 298.918 109.959 298.918 110.475Z" fill="white"/>
<path d="M315.582 125.697C316.742 125.697 317.756 125.346 318.623 124.643C319.49 123.939 319.971 123.061 320.064 122.006H323.141C323.082 123.096 322.707 124.133 322.016 125.117C321.324 126.102 320.398 126.887 319.238 127.473C318.09 128.059 316.871 128.352 315.582 128.352C312.992 128.352 310.93 127.49 309.395 125.768C307.871 124.033 307.109 121.666 307.109 118.666V118.121C307.109 116.27 307.449 114.623 308.129 113.182C308.809 111.74 309.781 110.621 311.047 109.824C312.324 109.027 313.83 108.629 315.564 108.629C317.697 108.629 319.467 109.268 320.873 110.545C322.291 111.822 323.047 113.48 323.141 115.52H320.064C319.971 114.289 319.502 113.281 318.658 112.496C317.826 111.699 316.795 111.301 315.564 111.301C313.912 111.301 312.629 111.898 311.715 113.094C310.812 114.277 310.361 115.994 310.361 118.244V118.859C310.361 121.051 310.812 122.738 311.715 123.922C312.617 125.105 313.906 125.697 315.582 125.697Z" fill="white"/>
<path d="M338.539 126.119C337.273 127.607 335.416 128.352 332.967 128.352C330.939 128.352 329.393 127.766 328.326 126.594C327.271 125.41 326.738 123.664 326.727 121.355V108.98H329.979V121.268C329.979 124.15 331.15 125.592 333.494 125.592C335.979 125.592 337.631 124.666 338.451 122.814V108.98H341.703V128H338.609L338.539 126.119Z" fill="white"/>
<path d="M358.402 128C358.215 127.625 358.062 126.957 357.945 125.996C356.434 127.566 354.629 128.352 352.531 128.352C350.656 128.352 349.115 127.824 347.908 126.77C346.713 125.703 346.115 124.355 346.115 122.727C346.115 120.746 346.865 119.211 348.365 118.121C349.877 117.02 351.998 116.469 354.729 116.469H357.893V114.975C357.893 113.838 357.553 112.936 356.873 112.268C356.193 111.588 355.191 111.248 353.867 111.248C352.707 111.248 351.734 111.541 350.949 112.127C350.164 112.713 349.771 113.422 349.771 114.254H346.502C346.502 113.305 346.836 112.391 347.504 111.512C348.184 110.621 349.098 109.918 350.246 109.402C351.406 108.887 352.678 108.629 354.061 108.629C356.252 108.629 357.969 109.18 359.211 110.281C360.453 111.371 361.098 112.877 361.145 114.799V123.553C361.145 125.299 361.367 126.688 361.812 127.719V128H358.402ZM353.006 125.521C354.025 125.521 354.992 125.258 355.906 124.73C356.82 124.203 357.482 123.518 357.893 122.674V118.771H355.344C351.359 118.771 349.367 119.938 349.367 122.27C349.367 123.289 349.707 124.086 350.387 124.66C351.066 125.234 351.939 125.521 353.006 125.521ZM356.012 101H359.949L355.238 106.168H352.619L356.012 101Z" fill="white"/>
<path d="M369.318 108.98L369.424 111.371C370.877 109.543 372.775 108.629 375.119 108.629C379.139 108.629 381.166 110.896 381.201 115.432V128H377.949V115.414C377.938 114.043 377.621 113.029 377 112.373C376.391 111.717 375.436 111.389 374.135 111.389C373.08 111.389 372.154 111.67 371.357 112.232C370.561 112.795 369.939 113.533 369.494 114.447V128H366.242V108.98H369.318Z" fill="white"/>
<path d="M390.518 104.375V108.98H394.068V111.494H390.518V123.289C390.518 124.051 390.676 124.625 390.992 125.012C391.309 125.387 391.848 125.574 392.609 125.574C392.984 125.574 393.5 125.504 394.156 125.363V128C393.301 128.234 392.469 128.352 391.66 128.352C390.207 128.352 389.111 127.912 388.373 127.033C387.635 126.154 387.266 124.906 387.266 123.289V111.494H383.803V108.98H387.266V104.375H390.518Z" fill="white"/>
<path d="M409.625 128C409.438 127.625 409.285 126.957 409.168 125.996C407.656 127.566 405.852 128.352 403.754 128.352C401.879 128.352 400.338 127.824 399.131 126.77C397.936 125.703 397.338 124.355 397.338 122.727C397.338 120.746 398.088 119.211 399.588 118.121C401.1 117.02 403.221 116.469 405.951 116.469H409.115V114.975C409.115 113.838 408.775 112.936 408.096 112.268C407.416 111.588 406.414 111.248 405.09 111.248C403.93 111.248 402.957 111.541 402.172 112.127C401.387 112.713 400.994 113.422 400.994 114.254H397.725C397.725 113.305 398.059 112.391 398.727 111.512C399.406 110.621 400.32 109.918 401.469 109.402C402.629 108.887 403.9 108.629 405.283 108.629C407.475 108.629 409.191 109.18 410.434 110.281C411.676 111.371 412.32 112.877 412.367 114.799V123.553C412.367 125.299 412.59 126.688 413.035 127.719V128H409.625ZM404.229 125.521C405.248 125.521 406.215 125.258 407.129 124.73C408.043 124.203 408.705 123.518 409.115 122.674V118.771H406.566C402.582 118.771 400.59 119.938 400.59 122.27C400.59 123.289 400.93 124.086 401.609 124.66C402.289 125.234 403.162 125.521 404.229 125.521Z" fill="white"/>
<path d="M428.539 122.955C428.539 122.076 428.205 121.396 427.537 120.916C426.881 120.424 425.727 120.002 424.074 119.65C422.434 119.299 421.127 118.877 420.154 118.385C419.193 117.893 418.479 117.307 418.01 116.627C417.553 115.947 417.324 115.139 417.324 114.201C417.324 112.643 417.98 111.324 419.293 110.246C420.617 109.168 422.305 108.629 424.355 108.629C426.512 108.629 428.258 109.186 429.594 110.299C430.941 111.412 431.615 112.836 431.615 114.57H428.346C428.346 113.68 427.965 112.912 427.203 112.268C426.453 111.623 425.504 111.301 424.355 111.301C423.172 111.301 422.246 111.559 421.578 112.074C420.91 112.59 420.576 113.264 420.576 114.096C420.576 114.881 420.887 115.473 421.508 115.871C422.129 116.27 423.248 116.65 424.865 117.014C426.494 117.377 427.812 117.811 428.82 118.314C429.828 118.818 430.572 119.428 431.053 120.143C431.545 120.846 431.791 121.707 431.791 122.727C431.791 124.426 431.111 125.791 429.752 126.822C428.393 127.842 426.629 128.352 424.461 128.352C422.938 128.352 421.59 128.082 420.418 127.543C419.246 127.004 418.326 126.254 417.658 125.293C417.002 124.32 416.674 123.271 416.674 122.146H419.926C419.984 123.236 420.418 124.104 421.227 124.748C422.047 125.381 423.125 125.697 424.461 125.697C425.691 125.697 426.676 125.451 427.414 124.959C428.164 124.455 428.539 123.787 428.539 122.955Z" fill="white"/>
<path d="M461.023 118.701C461.023 121.596 460.361 123.928 459.037 125.697C457.713 127.467 455.92 128.352 453.658 128.352C451.35 128.352 449.533 127.619 448.209 126.154V135.312H444.957V108.98H447.928L448.086 111.09C449.41 109.449 451.25 108.629 453.605 108.629C455.891 108.629 457.695 109.49 459.02 111.213C460.355 112.936 461.023 115.332 461.023 118.402V118.701ZM457.771 118.332C457.771 116.188 457.314 114.494 456.4 113.252C455.486 112.01 454.232 111.389 452.639 111.389C450.67 111.389 449.193 112.262 448.209 114.008V123.096C449.182 124.83 450.67 125.697 452.674 125.697C454.232 125.697 455.469 125.082 456.383 123.852C457.309 122.609 457.771 120.77 457.771 118.332Z" fill="white"/>
<path d="M476.914 128C476.727 127.625 476.574 126.957 476.457 125.996C474.945 127.566 473.141 128.352 471.043 128.352C469.168 128.352 467.627 127.824 466.42 126.77C465.225 125.703 464.627 124.355 464.627 122.727C464.627 120.746 465.377 119.211 466.877 118.121C468.389 117.02 470.51 116.469 473.24 116.469H476.404V114.975C476.404 113.838 476.064 112.936 475.385 112.268C474.705 111.588 473.703 111.248 472.379 111.248C471.219 111.248 470.246 111.541 469.461 112.127C468.676 112.713 468.283 113.422 468.283 114.254H465.014C465.014 113.305 465.348 112.391 466.016 111.512C466.695 110.621 467.609 109.918 468.758 109.402C469.918 108.887 471.189 108.629 472.572 108.629C474.764 108.629 476.48 109.18 477.723 110.281C478.965 111.371 479.609 112.877 479.656 114.799V123.553C479.656 125.299 479.879 126.688 480.324 127.719V128H476.914ZM471.518 125.521C472.537 125.521 473.504 125.258 474.418 124.73C475.332 124.203 475.994 123.518 476.404 122.674V118.771H473.855C469.871 118.771 467.879 119.938 467.879 122.27C467.879 123.289 468.219 124.086 468.898 124.66C469.578 125.234 470.451 125.521 471.518 125.521Z" fill="white"/>
<path d="M495.828 122.955C495.828 122.076 495.494 121.396 494.826 120.916C494.17 120.424 493.016 120.002 491.363 119.65C489.723 119.299 488.416 118.877 487.443 118.385C486.482 117.893 485.768 117.307 485.299 116.627C484.842 115.947 484.613 115.139 484.613 114.201C484.613 112.643 485.27 111.324 486.582 110.246C487.906 109.168 489.594 108.629 491.645 108.629C493.801 108.629 495.547 109.186 496.883 110.299C498.23 111.412 498.904 112.836 498.904 114.57H495.635C495.635 113.68 495.254 112.912 494.492 112.268C493.742 111.623 492.793 111.301 491.645 111.301C490.461 111.301 489.535 111.559 488.867 112.074C488.199 112.59 487.865 113.264 487.865 114.096C487.865 114.881 488.176 115.473 488.797 115.871C489.418 116.27 490.537 116.65 492.154 117.014C493.783 117.377 495.102 117.811 496.109 118.314C497.117 118.818 497.861 119.428 498.342 120.143C498.834 120.846 499.08 121.707 499.08 122.727C499.08 124.426 498.4 125.791 497.041 126.822C495.682 127.842 493.918 128.352 491.75 128.352C490.227 128.352 488.879 128.082 487.707 127.543C486.535 127.004 485.615 126.254 484.947 125.293C484.291 124.32 483.963 123.271 483.963 122.146H487.215C487.273 123.236 487.707 124.104 488.516 124.748C489.336 125.381 490.414 125.697 491.75 125.697C492.98 125.697 493.965 125.451 494.703 124.959C495.453 124.455 495.828 123.787 495.828 122.955Z" fill="white"/>
<path d="M507.729 104.375V108.98H511.279V111.494H507.729V123.289C507.729 124.051 507.887 124.625 508.203 125.012C508.52 125.387 509.059 125.574 509.82 125.574C510.195 125.574 510.711 125.504 511.367 125.363V128C510.512 128.234 509.68 128.352 508.871 128.352C507.418 128.352 506.322 127.912 505.584 127.033C504.846 126.154 504.477 124.906 504.477 123.289V111.494H501.014V108.98H504.477V104.375H507.729Z" fill="white"/>
<path d="M518.627 128H515.375V108.98H518.627V128ZM515.111 103.936C515.111 103.408 515.27 102.963 515.586 102.6C515.914 102.236 516.395 102.055 517.027 102.055C517.66 102.055 518.141 102.236 518.469 102.6C518.797 102.963 518.961 103.408 518.961 103.936C518.961 104.463 518.797 104.902 518.469 105.254C518.141 105.605 517.66 105.781 517.027 105.781C516.395 105.781 515.914 105.605 515.586 105.254C515.27 104.902 515.111 104.463 515.111 103.936Z" fill="white"/>
<path d="M527.381 128H524.129V101H527.381V128Z" fill="white"/>
<path d="M536.135 128H532.883V101H536.135V128Z" fill="white"/>
<path d="M553.098 128C552.91 127.625 552.758 126.957 552.641 125.996C551.129 127.566 549.324 128.352 547.227 128.352C545.352 128.352 543.811 127.824 542.604 126.77C541.408 125.703 540.811 124.355 540.811 122.727C540.811 120.746 541.561 119.211 543.061 118.121C544.572 117.02 546.693 116.469 549.424 116.469H552.588V114.975C552.588 113.838 552.248 112.936 551.568 112.268C550.889 111.588 549.887 111.248 548.562 111.248C547.402 111.248 546.43 111.541 545.645 112.127C544.859 112.713 544.467 113.422 544.467 114.254H541.197C541.197 113.305 541.531 112.391 542.199 111.512C542.879 110.621 543.793 109.918 544.941 109.402C546.102 108.887 547.373 108.629 548.756 108.629C550.947 108.629 552.664 109.18 553.906 110.281C555.148 111.371 555.793 112.877 555.84 114.799V123.553C555.84 125.299 556.062 126.688 556.508 127.719V128H553.098ZM547.701 125.521C548.721 125.521 549.688 125.258 550.602 124.73C551.516 124.203 552.178 123.518 552.588 122.674V118.771H550.039C546.055 118.771 544.062 119.938 544.062 122.27C544.062 123.289 544.402 124.086 545.082 124.66C545.762 125.234 546.635 125.521 547.701 125.521Z" fill="white"/>
<path d="M572.012 122.955C572.012 122.076 571.678 121.396 571.01 120.916C570.354 120.424 569.199 120.002 567.547 119.65C565.906 119.299 564.6 118.877 563.627 118.385C562.666 117.893 561.951 117.307 561.482 116.627C561.025 115.947 560.797 115.139 560.797 114.201C560.797 112.643 561.453 111.324 562.766 110.246C564.09 109.168 565.777 108.629 567.828 108.629C569.984 108.629 571.73 109.186 573.066 110.299C574.414 111.412 575.088 112.836 575.088 114.57H571.818C571.818 113.68 571.438 112.912 570.676 112.268C569.926 111.623 568.977 111.301 567.828 111.301C566.645 111.301 565.719 111.559 565.051 112.074C564.383 112.59 564.049 113.264 564.049 114.096C564.049 114.881 564.359 115.473 564.98 115.871C565.602 116.27 566.721 116.65 568.338 117.014C569.967 117.377 571.285 117.811 572.293 118.314C573.301 118.818 574.045 119.428 574.525 120.143C575.018 120.846 575.264 121.707 575.264 122.727C575.264 124.426 574.584 125.791 573.225 126.822C571.865 127.842 570.102 128.352 567.934 128.352C566.41 128.352 565.062 128.082 563.891 127.543C562.719 127.004 561.799 126.254 561.131 125.293C560.475 124.32 560.146 123.271 560.146 122.146H563.398C563.457 123.236 563.891 124.104 564.699 124.748C565.52 125.381 566.598 125.697 567.934 125.697C569.164 125.697 570.148 125.451 570.887 124.959C571.637 124.455 572.012 123.787 572.012 122.955Z" fill="white"/>
<path d="M591.682 111.283C593.123 109.514 594.998 108.629 597.307 108.629C601.326 108.629 603.354 110.896 603.389 115.432V128H600.137V115.414C600.125 114.043 599.809 113.029 599.188 112.373C598.578 111.717 597.623 111.389 596.322 111.389C595.268 111.389 594.342 111.67 593.545 112.232C592.748 112.795 592.127 113.533 591.682 114.447V128H588.43V101H591.682V111.283Z" fill="white"/>
<path d="M620 128C619.812 127.625 619.66 126.957 619.543 125.996C618.031 127.566 616.227 128.352 614.129 128.352C612.254 128.352 610.713 127.824 609.506 126.77C608.311 125.703 607.713 124.355 607.713 122.727C607.713 120.746 608.463 119.211 609.963 118.121C611.475 117.02 613.596 116.469 616.326 116.469H619.49V114.975C619.49 113.838 619.15 112.936 618.471 112.268C617.791 111.588 616.789 111.248 615.465 111.248C614.305 111.248 613.332 111.541 612.547 112.127C611.762 112.713 611.369 113.422 611.369 114.254H608.1C608.1 113.305 608.434 112.391 609.102 111.512C609.781 110.621 610.695 109.918 611.844 109.402C613.004 108.887 614.275 108.629 615.658 108.629C617.85 108.629 619.566 109.18 620.809 110.281C622.051 111.371 622.695 112.877 622.742 114.799V123.553C622.742 125.299 622.965 126.688 623.41 127.719V128H620ZM614.604 125.521C615.623 125.521 616.59 125.258 617.504 124.73C618.418 124.203 619.08 123.518 619.49 122.674V118.771H616.941C612.957 118.771 610.965 119.938 610.965 122.27C610.965 123.289 611.305 124.086 611.984 124.66C612.664 125.234 613.537 125.521 614.604 125.521Z" fill="white"/>
<path d="M643.941 118.701C643.941 121.607 643.273 123.945 641.938 125.715C640.602 127.473 638.809 128.352 636.559 128.352C634.156 128.352 632.299 127.502 630.986 125.803L630.828 128H627.84V101H631.092V111.072C632.404 109.443 634.215 108.629 636.523 108.629C638.832 108.629 640.643 109.502 641.955 111.248C643.279 112.994 643.941 115.385 643.941 118.42V118.701ZM640.689 118.332C640.689 116.117 640.262 114.406 639.406 113.199C638.551 111.992 637.32 111.389 635.715 111.389C633.57 111.389 632.029 112.385 631.092 114.377V122.604C632.088 124.596 633.641 125.592 635.75 125.592C637.309 125.592 638.521 124.988 639.389 123.781C640.256 122.574 640.689 120.758 640.689 118.332Z" fill="white"/>
<path d="M657.248 111.898C656.756 111.816 656.223 111.775 655.648 111.775C653.516 111.775 652.068 112.684 651.307 114.5V128H648.055V108.98H651.219L651.271 111.178C652.338 109.479 653.85 108.629 655.807 108.629C656.439 108.629 656.92 108.711 657.248 108.875V111.898Z" fill="white"/>
<path d="M671.293 128C671.105 127.625 670.953 126.957 670.836 125.996C669.324 127.566 667.52 128.352 665.422 128.352C663.547 128.352 662.006 127.824 660.799 126.77C659.604 125.703 659.006 124.355 659.006 122.727C659.006 120.746 659.756 119.211 661.256 118.121C662.768 117.02 664.889 116.469 667.619 116.469H670.783V114.975C670.783 113.838 670.443 112.936 669.764 112.268C669.084 111.588 668.082 111.248 666.758 111.248C665.598 111.248 664.625 111.541 663.84 112.127C663.055 112.713 662.662 113.422 662.662 114.254H659.393C659.393 113.305 659.727 112.391 660.395 111.512C661.074 110.621 661.988 109.918 663.137 109.402C664.297 108.887 665.568 108.629 666.951 108.629C669.143 108.629 670.859 109.18 672.102 110.281C673.344 111.371 673.988 112.877 674.035 114.799V123.553C674.035 125.299 674.258 126.688 674.703 127.719V128H671.293ZM665.896 125.521C666.916 125.521 667.883 125.258 668.797 124.73C669.711 124.203 670.373 123.518 670.783 122.674V118.771H668.234C664.25 118.771 662.258 119.938 662.258 122.27C662.258 123.289 662.598 124.086 663.277 124.66C663.957 125.234 664.83 125.521 665.896 125.521ZM668.902 101H672.84L668.129 106.168H665.51L668.902 101Z" fill="white"/>
<path d="M692.475 104.375V108.98H696.025V111.494H692.475V123.289C692.475 124.051 692.633 124.625 692.949 125.012C693.266 125.387 693.805 125.574 694.566 125.574C694.941 125.574 695.457 125.504 696.113 125.363V128C695.258 128.234 694.426 128.352 693.617 128.352C692.164 128.352 691.068 127.912 690.33 127.033C689.592 126.154 689.223 124.906 689.223 123.289V111.494H685.76V108.98H689.223V104.375H692.475Z" fill="white"/>
<path d="M698.627 118.314C698.627 116.451 698.99 114.775 699.717 113.287C700.455 111.799 701.475 110.65 702.775 109.842C704.088 109.033 705.582 108.629 707.258 108.629C709.848 108.629 711.939 109.525 713.533 111.318C715.139 113.111 715.941 115.496 715.941 118.473V118.701C715.941 120.553 715.584 122.217 714.869 123.693C714.166 125.158 713.152 126.301 711.828 127.121C710.516 127.941 709.004 128.352 707.293 128.352C704.715 128.352 702.623 127.455 701.018 125.662C699.424 123.869 698.627 121.496 698.627 118.543V118.314ZM701.896 118.701C701.896 120.811 702.383 122.504 703.355 123.781C704.34 125.059 705.652 125.697 707.293 125.697C708.945 125.697 710.258 125.053 711.23 123.764C712.203 122.463 712.689 120.646 712.689 118.314C712.689 116.229 712.191 114.541 711.195 113.252C710.211 111.951 708.898 111.301 707.258 111.301C705.652 111.301 704.357 111.939 703.373 113.217C702.389 114.494 701.896 116.322 701.896 118.701Z" fill="white"/>
<path d="M723.078 108.98L723.166 111.09C724.561 109.449 726.441 108.629 728.809 108.629C731.469 108.629 733.279 109.648 734.24 111.688C734.873 110.773 735.693 110.035 736.701 109.473C737.721 108.91 738.922 108.629 740.305 108.629C744.477 108.629 746.598 110.838 746.668 115.256V128H743.416V115.449C743.416 114.09 743.105 113.076 742.484 112.408C741.863 111.729 740.82 111.389 739.355 111.389C738.148 111.389 737.146 111.752 736.35 112.479C735.553 113.193 735.09 114.16 734.961 115.379V128H731.691V115.537C731.691 112.771 730.338 111.389 727.631 111.389C725.498 111.389 724.039 112.297 723.254 114.113V128H720.002V108.98H723.078Z" fill="white"/>
<path d="M763.332 128C763.145 127.625 762.992 126.957 762.875 125.996C761.363 127.566 759.559 128.352 757.461 128.352C755.586 128.352 754.045 127.824 752.838 126.77C751.643 125.703 751.045 124.355 751.045 122.727C751.045 120.746 751.795 119.211 753.295 118.121C754.807 117.02 756.928 116.469 759.658 116.469H762.822V114.975C762.822 113.838 762.482 112.936 761.803 112.268C761.123 111.588 760.121 111.248 758.797 111.248C757.637 111.248 756.664 111.541 755.879 112.127C755.094 112.713 754.701 113.422 754.701 114.254H751.432C751.432 113.305 751.766 112.391 752.434 111.512C753.113 110.621 754.027 109.918 755.176 109.402C756.336 108.887 757.607 108.629 758.99 108.629C761.182 108.629 762.898 109.18 764.141 110.281C765.383 111.371 766.027 112.877 766.074 114.799V123.553C766.074 125.299 766.297 126.688 766.742 127.719V128H763.332ZM757.936 125.521C758.955 125.521 759.922 125.258 760.836 124.73C761.75 124.203 762.412 123.518 762.822 122.674V118.771H760.273C756.289 118.771 754.297 119.938 754.297 122.27C754.297 123.289 754.637 124.086 755.316 124.66C755.996 125.234 756.869 125.521 757.936 125.521Z" fill="white"/>
<path d="M770.381 118.332C770.381 115.414 771.072 113.07 772.455 111.301C773.838 109.52 775.648 108.629 777.887 108.629C780.113 108.629 781.877 109.391 783.178 110.914V101H786.43V128H783.441L783.283 125.961C781.982 127.555 780.172 128.352 777.852 128.352C775.648 128.352 773.85 127.449 772.455 125.645C771.072 123.84 770.381 121.484 770.381 118.578V118.332ZM773.633 118.701C773.633 120.857 774.078 122.545 774.969 123.764C775.859 124.982 777.09 125.592 778.66 125.592C780.723 125.592 782.229 124.666 783.178 122.814V114.078C782.205 112.285 780.711 111.389 778.695 111.389C777.102 111.389 775.859 112.004 774.969 113.234C774.078 114.465 773.633 116.287 773.633 118.701Z" fill="white"/>
<path d="M790.631 118.314C790.631 116.451 790.994 114.775 791.721 113.287C792.459 111.799 793.479 110.65 794.779 109.842C796.092 109.033 797.586 108.629 799.262 108.629C801.852 108.629 803.943 109.525 805.537 111.318C807.143 113.111 807.945 115.496 807.945 118.473V118.701C807.945 120.553 807.588 122.217 806.873 123.693C806.17 125.158 805.156 126.301 803.832 127.121C802.52 127.941 801.008 128.352 799.297 128.352C796.719 128.352 794.627 127.455 793.021 125.662C791.428 123.869 790.631 121.496 790.631 118.543V118.314ZM793.9 118.701C793.9 120.811 794.387 122.504 795.359 123.781C796.344 125.059 797.656 125.697 799.297 125.697C800.949 125.697 802.262 125.053 803.234 123.764C804.207 122.463 804.693 120.646 804.693 118.314C804.693 116.229 804.195 114.541 803.199 113.252C802.215 111.951 800.902 111.301 799.262 111.301C797.656 111.301 796.361 111.939 795.377 113.217C794.393 114.494 793.9 116.322 793.9 118.701Z" fill="white"/>
<path d="M148.713 151.283C150.154 149.514 152.029 148.629 154.338 148.629C158.357 148.629 160.385 150.896 160.42 155.432V168H157.168V155.414C157.156 154.043 156.84 153.029 156.219 152.373C155.609 151.717 154.654 151.389 153.354 151.389C152.299 151.389 151.373 151.67 150.576 152.232C149.779 152.795 149.158 153.533 148.713 154.447V168H145.461V141H148.713V151.283Z" fill="white"/>
<path d="M177.031 168C176.844 167.625 176.691 166.957 176.574 165.996C175.062 167.566 173.258 168.352 171.16 168.352C169.285 168.352 167.744 167.824 166.537 166.77C165.342 165.703 164.744 164.355 164.744 162.727C164.744 160.746 165.494 159.211 166.994 158.121C168.506 157.02 170.627 156.469 173.357 156.469H176.521V154.975C176.521 153.838 176.182 152.936 175.502 152.268C174.822 151.588 173.82 151.248 172.496 151.248C171.336 151.248 170.363 151.541 169.578 152.127C168.793 152.713 168.4 153.422 168.4 154.254H165.131C165.131 153.305 165.465 152.391 166.133 151.512C166.812 150.621 167.727 149.918 168.875 149.402C170.035 148.887 171.307 148.629 172.689 148.629C174.881 148.629 176.598 149.18 177.84 150.281C179.082 151.371 179.727 152.877 179.773 154.799V163.553C179.773 165.299 179.996 166.688 180.441 167.719V168H177.031ZM171.635 165.521C172.654 165.521 173.621 165.258 174.535 164.73C175.449 164.203 176.111 163.518 176.521 162.674V158.771H173.973C169.988 158.771 167.996 159.938 167.996 162.27C167.996 163.289 168.336 164.086 169.016 164.66C169.695 165.234 170.568 165.521 171.635 165.521Z" fill="white"/>
<path d="M195.945 162.955C195.945 162.076 195.611 161.396 194.943 160.916C194.287 160.424 193.133 160.002 191.48 159.65C189.84 159.299 188.533 158.877 187.561 158.385C186.6 157.893 185.885 157.307 185.416 156.627C184.959 155.947 184.73 155.139 184.73 154.201C184.73 152.643 185.387 151.324 186.699 150.246C188.023 149.168 189.711 148.629 191.762 148.629C193.918 148.629 195.664 149.186 197 150.299C198.348 151.412 199.021 152.836 199.021 154.57H195.752C195.752 153.68 195.371 152.912 194.609 152.268C193.859 151.623 192.91 151.301 191.762 151.301C190.578 151.301 189.652 151.559 188.984 152.074C188.316 152.59 187.982 153.264 187.982 154.096C187.982 154.881 188.293 155.473 188.914 155.871C189.535 156.27 190.654 156.65 192.271 157.014C193.9 157.377 195.219 157.811 196.227 158.314C197.234 158.818 197.979 159.428 198.459 160.143C198.951 160.846 199.197 161.707 199.197 162.727C199.197 164.426 198.518 165.791 197.158 166.822C195.799 167.842 194.035 168.352 191.867 168.352C190.344 168.352 188.996 168.082 187.824 167.543C186.652 167.004 185.732 166.254 185.064 165.293C184.408 164.32 184.08 163.271 184.08 162.146H187.332C187.391 163.236 187.824 164.104 188.633 164.748C189.453 165.381 190.531 165.697 191.867 165.697C193.098 165.697 194.082 165.451 194.82 164.959C195.57 164.455 195.945 163.787 195.945 162.955Z" fill="white"/>
<path d="M207.846 144.375V148.98H211.396V151.494H207.846V163.289C207.846 164.051 208.004 164.625 208.32 165.012C208.637 165.387 209.176 165.574 209.938 165.574C210.312 165.574 210.828 165.504 211.484 165.363V168C210.629 168.234 209.797 168.352 208.988 168.352C207.535 168.352 206.439 167.912 205.701 167.033C204.963 166.154 204.594 164.906 204.594 163.289V151.494H201.131V148.98H204.594V144.375H207.846Z" fill="white"/>
<path d="M226.953 168C226.766 167.625 226.613 166.957 226.496 165.996C224.984 167.566 223.18 168.352 221.082 168.352C219.207 168.352 217.666 167.824 216.459 166.77C215.264 165.703 214.666 164.355 214.666 162.727C214.666 160.746 215.416 159.211 216.916 158.121C218.428 157.02 220.549 156.469 223.279 156.469H226.443V154.975C226.443 153.838 226.104 152.936 225.424 152.268C224.744 151.588 223.742 151.248 222.418 151.248C221.258 151.248 220.285 151.541 219.5 152.127C218.715 152.713 218.322 153.422 218.322 154.254H215.053C215.053 153.305 215.387 152.391 216.055 151.512C216.734 150.621 217.648 149.918 218.797 149.402C219.957 148.887 221.229 148.629 222.611 148.629C224.803 148.629 226.52 149.18 227.762 150.281C229.004 151.371 229.648 152.877 229.695 154.799V163.553C229.695 165.299 229.918 166.688 230.363 167.719V168H226.953ZM221.557 165.521C222.576 165.521 223.543 165.258 224.457 164.73C225.371 164.203 226.033 163.518 226.443 162.674V158.771H223.895C219.91 158.771 217.918 159.938 217.918 162.27C217.918 163.289 218.258 164.086 218.938 164.66C219.617 165.234 220.49 165.521 221.557 165.521Z" fill="white"/>
<path d="M247.256 168H244.004V141H247.256V168Z" fill="white"/>
<path d="M264.219 168C264.031 167.625 263.879 166.957 263.762 165.996C262.25 167.566 260.445 168.352 258.348 168.352C256.473 168.352 254.932 167.824 253.725 166.77C252.529 165.703 251.932 164.355 251.932 162.727C251.932 160.746 252.682 159.211 254.182 158.121C255.693 157.02 257.814 156.469 260.545 156.469H263.709V154.975C263.709 153.838 263.369 152.936 262.689 152.268C262.01 151.588 261.008 151.248 259.684 151.248C258.523 151.248 257.551 151.541 256.766 152.127C255.98 152.713 255.588 153.422 255.588 154.254H252.318C252.318 153.305 252.652 152.391 253.32 151.512C254 150.621 254.914 149.918 256.062 149.402C257.223 148.887 258.494 148.629 259.877 148.629C262.068 148.629 263.785 149.18 265.027 150.281C266.27 151.371 266.914 152.877 266.961 154.799V163.553C266.961 165.299 267.184 166.688 267.629 167.719V168H264.219ZM258.822 165.521C259.842 165.521 260.809 165.258 261.723 164.73C262.637 164.203 263.299 163.518 263.709 162.674V158.771H261.16C257.176 158.771 255.184 159.938 255.184 162.27C255.184 163.289 255.523 164.086 256.203 164.66C256.883 165.234 257.756 165.521 258.822 165.521Z" fill="white"/>
<path d="M283.133 162.955C283.133 162.076 282.799 161.396 282.131 160.916C281.475 160.424 280.32 160.002 278.668 159.65C277.027 159.299 275.721 158.877 274.748 158.385C273.787 157.893 273.072 157.307 272.604 156.627C272.146 155.947 271.918 155.139 271.918 154.201C271.918 152.643 272.574 151.324 273.887 150.246C275.211 149.168 276.898 148.629 278.949 148.629C281.105 148.629 282.852 149.186 284.188 150.299C285.535 151.412 286.209 152.836 286.209 154.57H282.939C282.939 153.68 282.559 152.912 281.797 152.268C281.047 151.623 280.098 151.301 278.949 151.301C277.766 151.301 276.84 151.559 276.172 152.074C275.504 152.59 275.17 153.264 275.17 154.096C275.17 154.881 275.48 155.473 276.102 155.871C276.723 156.27 277.842 156.65 279.459 157.014C281.088 157.377 282.406 157.811 283.414 158.314C284.422 158.818 285.166 159.428 285.646 160.143C286.139 160.846 286.385 161.707 286.385 162.727C286.385 164.426 285.705 165.791 284.346 166.822C282.986 167.842 281.223 168.352 279.055 168.352C277.531 168.352 276.184 168.082 275.012 167.543C273.84 167.004 272.92 166.254 272.252 165.293C271.596 164.32 271.268 163.271 271.268 162.146H274.52C274.578 163.236 275.012 164.104 275.82 164.748C276.641 165.381 277.719 165.697 279.055 165.697C280.285 165.697 281.27 165.451 282.008 164.959C282.758 164.455 283.133 163.787 283.133 162.955Z" fill="white"/>
<path d="M309.904 168H306.635V146.326L300.078 148.734V145.781L309.395 142.283H309.904V168Z" fill="white"/>
<path d="M335.48 157.084C335.48 160.893 334.83 163.723 333.529 165.574C332.229 167.426 330.195 168.352 327.43 168.352C324.699 168.352 322.678 167.449 321.365 165.645C320.053 163.828 319.373 161.121 319.326 157.523V153.182C319.326 149.42 319.977 146.625 321.277 144.797C322.578 142.969 324.617 142.055 327.395 142.055C330.148 142.055 332.176 142.939 333.477 144.709C334.777 146.467 335.445 149.186 335.48 152.865V157.084ZM332.229 152.637C332.229 149.883 331.842 147.879 331.068 146.625C330.295 145.359 329.07 144.727 327.395 144.727C325.73 144.727 324.518 145.354 323.756 146.607C322.994 147.861 322.602 149.789 322.578 152.391V157.594C322.578 160.359 322.977 162.404 323.773 163.729C324.582 165.041 325.801 165.697 327.43 165.697C329.035 165.697 330.225 165.076 330.998 163.834C331.783 162.592 332.193 160.635 332.229 157.963V152.637Z" fill="white"/>
<path d="M339.875 166.295C339.875 165.732 340.039 165.264 340.367 164.889C340.707 164.514 341.211 164.326 341.879 164.326C342.547 164.326 343.051 164.514 343.391 164.889C343.742 165.264 343.918 165.732 343.918 166.295C343.918 166.834 343.742 167.285 343.391 167.648C343.051 168.012 342.547 168.193 341.879 168.193C341.211 168.193 340.707 168.012 340.367 167.648C340.039 167.285 339.875 166.834 339.875 166.295ZM339.893 150.773C339.893 150.211 340.057 149.742 340.385 149.367C340.725 148.992 341.229 148.805 341.896 148.805C342.564 148.805 343.068 148.992 343.408 149.367C343.76 149.742 343.936 150.211 343.936 150.773C343.936 151.312 343.76 151.764 343.408 152.127C343.068 152.49 342.564 152.672 341.896 152.672C341.229 152.672 340.725 152.49 340.385 152.127C340.057 151.764 339.893 151.312 339.893 150.773Z" fill="white"/>
<path d="M364.414 157.084C364.414 160.893 363.764 163.723 362.463 165.574C361.162 167.426 359.129 168.352 356.363 168.352C353.633 168.352 351.611 167.449 350.299 165.645C348.986 163.828 348.307 161.121 348.26 157.523V153.182C348.26 149.42 348.91 146.625 350.211 144.797C351.512 142.969 353.551 142.055 356.328 142.055C359.082 142.055 361.109 142.939 362.41 144.709C363.711 146.467 364.379 149.186 364.414 152.865V157.084ZM361.162 152.637C361.162 149.883 360.775 147.879 360.002 146.625C359.229 145.359 358.004 144.727 356.328 144.727C354.664 144.727 353.451 145.354 352.689 146.607C351.928 147.861 351.535 149.789 351.512 152.391V157.594C351.512 160.359 351.91 162.404 352.707 163.729C353.516 165.041 354.734 165.697 356.363 165.697C357.969 165.697 359.158 165.076 359.932 163.834C360.717 162.592 361.127 160.635 361.162 157.963V152.637Z" fill="white"/>
<path d="M384.629 157.084C384.629 160.893 383.979 163.723 382.678 165.574C381.377 167.426 379.344 168.352 376.578 168.352C373.848 168.352 371.826 167.449 370.514 165.645C369.201 163.828 368.521 161.121 368.475 157.523V153.182C368.475 149.42 369.125 146.625 370.426 144.797C371.727 142.969 373.766 142.055 376.543 142.055C379.297 142.055 381.324 142.939 382.625 144.709C383.926 146.467 384.594 149.186 384.629 152.865V157.084ZM381.377 152.637C381.377 149.883 380.99 147.879 380.217 146.625C379.443 145.359 378.219 144.727 376.543 144.727C374.879 144.727 373.666 145.354 372.904 146.607C372.143 147.861 371.75 149.789 371.727 152.391V157.594C371.727 160.359 372.125 162.404 372.922 163.729C373.73 165.041 374.949 165.697 376.578 165.697C378.184 165.697 379.373 165.076 380.146 163.834C380.932 162.592 381.342 160.635 381.377 157.963V152.637Z" fill="white"/>
<path d="M414.125 158.701C414.125 161.596 413.463 163.928 412.139 165.697C410.814 167.467 409.021 168.352 406.76 168.352C404.451 168.352 402.635 167.619 401.311 166.154V175.312H398.059V148.98H401.029L401.188 151.09C402.512 149.449 404.352 148.629 406.707 148.629C408.992 148.629 410.797 149.49 412.121 151.213C413.457 152.936 414.125 155.332 414.125 158.402V158.701ZM410.873 158.332C410.873 156.188 410.416 154.494 409.502 153.252C408.588 152.01 407.334 151.389 405.74 151.389C403.771 151.389 402.295 152.262 401.311 154.008V163.096C402.283 164.83 403.771 165.697 405.775 165.697C407.334 165.697 408.57 165.082 409.484 163.852C410.41 162.609 410.873 160.77 410.873 158.332Z" fill="white"/>
<path d="M421.332 148.98L421.42 151.09C422.814 149.449 424.695 148.629 427.062 148.629C429.723 148.629 431.533 149.648 432.494 151.688C433.127 150.773 433.947 150.035 434.955 149.473C435.975 148.91 437.176 148.629 438.559 148.629C442.73 148.629 444.852 150.838 444.922 155.256V168H441.67V155.449C441.67 154.09 441.359 153.076 440.738 152.408C440.117 151.729 439.074 151.389 437.609 151.389C436.402 151.389 435.4 151.752 434.604 152.479C433.807 153.193 433.344 154.16 433.215 155.379V168H429.945V155.537C429.945 152.771 428.592 151.389 425.885 151.389C423.752 151.389 422.293 152.297 421.508 154.113V168H418.256V148.98H421.332Z" fill="white"/>
<path d="M453.658 160.793C453.682 159.398 453.84 158.297 454.133 157.488C454.426 156.68 455.023 155.783 455.926 154.799L458.229 152.426C459.213 151.312 459.705 150.117 459.705 148.84C459.705 147.609 459.383 146.648 458.738 145.957C458.094 145.254 457.156 144.902 455.926 144.902C454.73 144.902 453.77 145.219 453.043 145.852C452.316 146.484 451.953 147.334 451.953 148.4H448.701C448.725 146.502 449.398 144.973 450.723 143.812C452.059 142.641 453.793 142.055 455.926 142.055C458.141 142.055 459.863 142.652 461.094 143.848C462.336 145.031 462.957 146.66 462.957 148.734C462.957 150.785 462.008 152.807 460.109 154.799L458.193 156.697C457.338 157.646 456.91 159.012 456.91 160.793H453.658ZM453.518 166.365C453.518 165.838 453.676 165.398 453.992 165.047C454.32 164.684 454.801 164.502 455.434 164.502C456.066 164.502 456.547 164.684 456.875 165.047C457.203 165.398 457.367 165.838 457.367 166.365C457.367 166.893 457.203 167.332 456.875 167.684C456.547 168.023 456.066 168.193 455.434 168.193C454.801 168.193 454.32 168.023 453.992 167.684C453.676 167.332 453.518 166.893 453.518 166.365Z" fill="white"/>
</g>
</g>
</g>
</svg>
