<svg viewBox="0 0 904 415" fill="none" xmlns="http://www.w3.org/2000/svg">
<g id="0121206">
<g id="tabla">
<g id="Tabla Campanadas">
<path id="Rectangle 1" d="M0 90.0685H900V140.068H0V90.0685Z" fill="#FA5712" fill-opacity="0.1"/>
<path id="Rectangle 1 (Stroke)" fill-rule="evenodd" clip-rule="evenodd" d="M896 94.0685H4V136.068H896V94.0685ZM0 90.0685V140.068H900V90.0685H0Z" fill="#FA5712"/>
<path id="Rectangle 2 (Stroke)" fill-rule="evenodd" clip-rule="evenodd" d="M896 144.068H4V186.068H896V144.068ZM0 140.068V190.068H900V140.068H0Z" fill="#FA5712"/>
<path id="Rectangle 3 (Stroke)" fill-rule="evenodd" clip-rule="evenodd" d="M896 194.068H4V236.068H896V194.068ZM0 190.068V240.068H900V190.068H0Z" fill="#FA5712"/>
<path id="Line 3 (Stroke)" fill-rule="evenodd" clip-rule="evenodd" d="M332 236.068L330 90.0685L335 90L337 236L332 236.068Z" fill="#FA5712"/>
<path id="Line 4 (Stroke)" fill-rule="evenodd" clip-rule="evenodd" d="M681 236.068L679 90.0685L684 90L686 236L681 236.068Z" fill="#FA5712"/>
</g>
<g id="# Campanadas">
<path d="M48.7363 119.861H44.0957L42.6895 127.068H40.1758L41.582 119.861H37.3809V117.453H42.0391L43.252 111.231H38.7168V108.787H43.7266L45.168 101.475H47.6816L46.2402 108.787H50.8809L52.3223 101.475H54.8535L53.4121 108.787H56.998V111.231H52.9375L51.7246 117.453H55.6797V119.861H51.2676L49.8613 127.068H47.3301L48.7363 119.861ZM44.5527 117.453H49.1934L50.4062 111.231H45.7656L44.5527 117.453Z" fill="#FA5712"/>
<path d="M88.1992 118.947C87.8828 121.654 86.8809 123.746 85.1934 125.223C83.5176 126.688 81.2852 127.42 78.4961 127.42C75.4727 127.42 73.0469 126.336 71.2188 124.168C69.4023 122 68.4941 119.1 68.4941 115.467V113.006C68.4941 110.627 68.916 108.535 69.7598 106.731C70.6152 104.926 71.8223 103.543 73.3809 102.582C74.9395 101.609 76.7441 101.123 78.7949 101.123C81.5137 101.123 83.6934 101.885 85.334 103.408C86.9746 104.92 87.9297 107.018 88.1992 109.701H84.8066C84.5137 107.662 83.875 106.186 82.8906 105.272C81.918 104.358 80.5527 103.901 78.7949 103.901C76.6387 103.901 74.9453 104.697 73.7148 106.291C72.4961 107.885 71.8867 110.152 71.8867 113.094V115.572C71.8867 118.35 72.4668 120.559 73.627 122.199C74.7871 123.84 76.4102 124.66 78.4961 124.66C80.3711 124.66 81.8066 124.238 82.8027 123.395C83.8105 122.539 84.4785 121.057 84.8066 118.947H88.1992Z" fill="#FA5712"/>
<path d="M104.055 127.068C103.867 126.693 103.715 126.026 103.598 125.065C102.086 126.635 100.281 127.42 98.1836 127.42C96.3086 127.42 94.7676 126.893 93.5605 125.838C92.3652 124.772 91.7676 123.424 91.7676 121.795C91.7676 119.815 92.5176 118.279 94.0176 117.19C95.5293 116.088 97.6504 115.537 100.381 115.537H103.545V114.043C103.545 112.906 103.205 112.004 102.525 111.336C101.846 110.656 100.844 110.317 99.5195 110.317C98.3594 110.317 97.3867 110.609 96.6016 111.195C95.8164 111.781 95.4238 112.49 95.4238 113.322H92.1543C92.1543 112.373 92.4883 111.459 93.1562 110.58C93.8359 109.69 94.75 108.986 95.8984 108.471C97.0586 107.955 98.3301 107.697 99.7129 107.697C101.904 107.697 103.621 108.248 104.863 109.35C106.105 110.44 106.75 111.945 106.797 113.867V122.621C106.797 124.367 107.02 125.756 107.465 126.787V127.068H104.055ZM98.6582 124.59C99.6777 124.59 100.645 124.326 101.559 123.799C102.473 123.272 103.135 122.586 103.545 121.742V117.84H100.996C97.0117 117.84 95.0195 119.006 95.0195 121.338C95.0195 122.358 95.3594 123.154 96.0391 123.729C96.7188 124.303 97.5918 124.59 98.6582 124.59Z" fill="#FA5712"/>
<path d="M114.953 108.049L115.041 110.158C116.436 108.518 118.316 107.697 120.684 107.697C123.344 107.697 125.154 108.717 126.115 110.756C126.748 109.842 127.568 109.104 128.576 108.541C129.596 107.979 130.797 107.697 132.18 107.697C136.352 107.697 138.473 109.906 138.543 114.324V127.068H135.291V114.518C135.291 113.158 134.98 112.145 134.359 111.477C133.738 110.797 132.695 110.457 131.23 110.457C130.023 110.457 129.021 110.82 128.225 111.547C127.428 112.262 126.965 113.229 126.836 114.447V127.068H123.566V114.606C123.566 111.84 122.213 110.457 119.506 110.457C117.373 110.457 115.914 111.365 115.129 113.182V127.068H111.877V108.049H114.953Z" fill="#FA5712"/>
<path d="M159.531 117.77C159.531 120.664 158.869 122.996 157.545 124.766C156.221 126.535 154.428 127.42 152.166 127.42C149.857 127.42 148.041 126.688 146.717 125.223V134.381H143.465V108.049H146.436L146.594 110.158C147.918 108.518 149.758 107.697 152.113 107.697C154.398 107.697 156.203 108.559 157.527 110.281C158.863 112.004 159.531 114.401 159.531 117.471V117.77ZM156.279 117.401C156.279 115.256 155.822 113.563 154.908 112.32C153.994 111.078 152.74 110.457 151.146 110.457C149.178 110.457 147.701 111.33 146.717 113.076V122.164C147.689 123.899 149.178 124.766 151.182 124.766C152.74 124.766 153.977 124.151 154.891 122.92C155.816 121.678 156.279 119.838 156.279 117.401Z" fill="#FA5712"/>
<path d="M175.422 127.068C175.234 126.693 175.082 126.026 174.965 125.065C173.453 126.635 171.648 127.42 169.551 127.42C167.676 127.42 166.135 126.893 164.928 125.838C163.732 124.772 163.135 123.424 163.135 121.795C163.135 119.815 163.885 118.279 165.385 117.19C166.896 116.088 169.018 115.537 171.748 115.537H174.912V114.043C174.912 112.906 174.572 112.004 173.893 111.336C173.213 110.656 172.211 110.317 170.887 110.317C169.727 110.317 168.754 110.609 167.969 111.195C167.184 111.781 166.791 112.49 166.791 113.322H163.521C163.521 112.373 163.855 111.459 164.523 110.58C165.203 109.69 166.117 108.986 167.266 108.471C168.426 107.955 169.697 107.697 171.08 107.697C173.271 107.697 174.988 108.248 176.23 109.35C177.473 110.44 178.117 111.945 178.164 113.867V122.621C178.164 124.367 178.387 125.756 178.832 126.787V127.068H175.422ZM170.025 124.59C171.045 124.59 172.012 124.326 172.926 123.799C173.84 123.272 174.502 122.586 174.912 121.742V117.84H172.363C168.379 117.84 166.387 119.006 166.387 121.338C166.387 122.358 166.727 123.154 167.406 123.729C168.086 124.303 168.959 124.59 170.025 124.59Z" fill="#FA5712"/>
<path d="M186.338 108.049L186.443 110.44C187.896 108.611 189.795 107.697 192.139 107.697C196.158 107.697 198.186 109.965 198.221 114.5V127.068H194.969V114.483C194.957 113.111 194.641 112.098 194.02 111.442C193.41 110.785 192.455 110.457 191.154 110.457C190.1 110.457 189.174 110.738 188.377 111.301C187.58 111.863 186.959 112.602 186.514 113.516V127.068H183.262V108.049H186.338Z" fill="#FA5712"/>
<path d="M214.867 127.068C214.68 126.693 214.527 126.026 214.41 125.065C212.898 126.635 211.094 127.42 208.996 127.42C207.121 127.42 205.58 126.893 204.373 125.838C203.178 124.772 202.58 123.424 202.58 121.795C202.58 119.815 203.33 118.279 204.83 117.19C206.342 116.088 208.463 115.537 211.193 115.537H214.357V114.043C214.357 112.906 214.018 112.004 213.338 111.336C212.658 110.656 211.656 110.317 210.332 110.317C209.172 110.317 208.199 110.609 207.414 111.195C206.629 111.781 206.236 112.49 206.236 113.322H202.967C202.967 112.373 203.301 111.459 203.969 110.58C204.648 109.69 205.562 108.986 206.711 108.471C207.871 107.955 209.143 107.697 210.525 107.697C212.717 107.697 214.434 108.248 215.676 109.35C216.918 110.44 217.562 111.945 217.609 113.867V122.621C217.609 124.367 217.832 125.756 218.277 126.787V127.068H214.867ZM209.471 124.59C210.49 124.59 211.457 124.326 212.371 123.799C213.285 123.272 213.947 122.586 214.357 121.742V117.84H211.809C207.824 117.84 205.832 119.006 205.832 121.338C205.832 122.358 206.172 123.154 206.852 123.729C207.531 124.303 208.404 124.59 209.471 124.59Z" fill="#FA5712"/>
<path d="M221.916 117.401C221.916 114.483 222.607 112.139 223.99 110.369C225.373 108.588 227.184 107.697 229.422 107.697C231.648 107.697 233.412 108.459 234.713 109.983V100.068H237.965V127.068H234.977L234.818 125.029C233.518 126.623 231.707 127.42 229.387 127.42C227.184 127.42 225.385 126.518 223.99 124.713C222.607 122.908 221.916 120.553 221.916 117.647V117.401ZM225.168 117.77C225.168 119.926 225.613 121.613 226.504 122.832C227.395 124.051 228.625 124.66 230.195 124.66C232.258 124.66 233.764 123.734 234.713 121.883V113.147C233.74 111.354 232.246 110.457 230.23 110.457C228.637 110.457 227.395 111.072 226.504 112.303C225.613 113.533 225.168 115.356 225.168 117.77Z" fill="#FA5712"/>
<path d="M254.77 127.068C254.582 126.693 254.43 126.026 254.312 125.065C252.801 126.635 250.996 127.42 248.898 127.42C247.023 127.42 245.482 126.893 244.275 125.838C243.08 124.772 242.482 123.424 242.482 121.795C242.482 119.815 243.232 118.279 244.732 117.19C246.244 116.088 248.365 115.537 251.096 115.537H254.26V114.043C254.26 112.906 253.92 112.004 253.24 111.336C252.561 110.656 251.559 110.317 250.234 110.317C249.074 110.317 248.102 110.609 247.316 111.195C246.531 111.781 246.139 112.49 246.139 113.322H242.869C242.869 112.373 243.203 111.459 243.871 110.58C244.551 109.69 245.465 108.986 246.613 108.471C247.773 107.955 249.045 107.697 250.428 107.697C252.619 107.697 254.336 108.248 255.578 109.35C256.82 110.44 257.465 111.945 257.512 113.867V122.621C257.512 124.367 257.734 125.756 258.18 126.787V127.068H254.77ZM249.373 124.59C250.393 124.59 251.359 124.326 252.273 123.799C253.188 123.272 253.85 122.586 254.26 121.742V117.84H251.711C247.727 117.84 245.734 119.006 245.734 121.338C245.734 122.358 246.074 123.154 246.754 123.729C247.434 124.303 248.307 124.59 249.373 124.59Z" fill="#FA5712"/>
<path d="M273.684 122.024C273.684 121.145 273.35 120.465 272.682 119.984C272.025 119.492 270.871 119.07 269.219 118.719C267.578 118.367 266.271 117.945 265.299 117.453C264.338 116.961 263.623 116.375 263.154 115.695C262.697 115.016 262.469 114.207 262.469 113.27C262.469 111.711 263.125 110.393 264.438 109.315C265.762 108.236 267.449 107.697 269.5 107.697C271.656 107.697 273.402 108.254 274.738 109.367C276.086 110.481 276.76 111.904 276.76 113.639H273.49C273.49 112.748 273.109 111.981 272.348 111.336C271.598 110.692 270.648 110.369 269.5 110.369C268.316 110.369 267.391 110.627 266.723 111.143C266.055 111.658 265.721 112.332 265.721 113.164C265.721 113.949 266.031 114.541 266.652 114.94C267.273 115.338 268.393 115.719 270.01 116.082C271.639 116.445 272.957 116.879 273.965 117.383C274.973 117.887 275.717 118.496 276.197 119.211C276.689 119.914 276.936 120.776 276.936 121.795C276.936 123.494 276.256 124.859 274.896 125.891C273.537 126.91 271.773 127.42 269.605 127.42C268.082 127.42 266.734 127.151 265.562 126.611C264.391 126.072 263.471 125.322 262.803 124.361C262.146 123.389 261.818 122.34 261.818 121.215H265.07C265.129 122.305 265.562 123.172 266.371 123.817C267.191 124.449 268.27 124.766 269.605 124.766C270.836 124.766 271.82 124.52 272.559 124.027C273.309 123.524 273.684 122.856 273.684 122.024Z" fill="#FA5712"/>
</g>
<g id="# Intervalos">
<path d="M408.57 119.861H403.93L402.523 127.068H400.01L401.416 119.861H397.215V117.453H401.873L403.086 111.231H398.551V108.787H403.561L405.002 101.475H407.516L406.074 108.787H410.715L412.156 101.475H414.688L413.246 108.787H416.832V111.231H412.771L411.559 117.453H415.514V119.861H411.102L409.695 127.068H407.164L408.57 119.861ZM404.387 117.453H409.027L410.24 111.231H405.6L404.387 117.453Z" fill="#FA5712"/>
<path d="M432.828 127.068H429.453V101.475H432.828V127.068Z" fill="#FA5712"/>
<path d="M441.582 108.049L441.688 110.44C443.141 108.611 445.039 107.697 447.383 107.697C451.402 107.697 453.43 109.965 453.465 114.5V127.068H450.213V114.483C450.201 113.111 449.885 112.098 449.264 111.442C448.654 110.785 447.699 110.457 446.398 110.457C445.344 110.457 444.418 110.738 443.621 111.301C442.824 111.863 442.203 112.602 441.758 113.516V127.068H438.506V108.049H441.582Z" fill="#FA5712"/>
<path d="M462.781 103.443V108.049H466.332V110.563H462.781V122.358C462.781 123.119 462.939 123.693 463.256 124.08C463.572 124.455 464.111 124.643 464.873 124.643C465.248 124.643 465.764 124.572 466.42 124.432V127.068C465.564 127.303 464.732 127.42 463.924 127.42C462.471 127.42 461.375 126.981 460.637 126.102C459.898 125.223 459.529 123.975 459.529 122.358V110.563H456.066V108.049H459.529V103.443H462.781Z" fill="#FA5712"/>
<path d="M478.039 127.42C475.461 127.42 473.363 126.576 471.746 124.889C470.129 123.19 469.32 120.922 469.32 118.086V117.488C469.32 115.602 469.678 113.92 470.393 112.443C471.119 110.955 472.127 109.795 473.416 108.963C474.717 108.119 476.123 107.697 477.635 107.697C480.107 107.697 482.029 108.512 483.4 110.141C484.771 111.77 485.457 114.102 485.457 117.137V118.49H472.572C472.619 120.365 473.164 121.883 474.207 123.043C475.262 124.192 476.598 124.766 478.215 124.766C479.363 124.766 480.336 124.531 481.133 124.063C481.93 123.594 482.627 122.973 483.225 122.199L485.211 123.746C483.617 126.195 481.227 127.42 478.039 127.42ZM477.635 110.369C476.322 110.369 475.221 110.85 474.33 111.811C473.439 112.76 472.889 114.096 472.678 115.818H482.205V115.572C482.111 113.92 481.666 112.643 480.869 111.74C480.072 110.826 478.994 110.369 477.635 110.369Z" fill="#FA5712"/>
<path d="M498.43 110.967C497.938 110.885 497.404 110.844 496.83 110.844C494.697 110.844 493.25 111.752 492.488 113.568V127.068H489.236V108.049H492.4L492.453 110.246C493.52 108.547 495.031 107.697 496.988 107.697C497.621 107.697 498.102 107.779 498.43 107.943V110.967Z" fill="#FA5712"/>
<path d="M508.027 122.656L512.738 108.049H516.061L509.24 127.068H506.762L499.871 108.049H503.193L508.027 122.656Z" fill="#FA5712"/>
<path d="M530.65 127.068C530.463 126.693 530.311 126.026 530.193 125.065C528.682 126.635 526.877 127.42 524.779 127.42C522.904 127.42 521.363 126.893 520.156 125.838C518.961 124.772 518.363 123.424 518.363 121.795C518.363 119.815 519.113 118.279 520.613 117.19C522.125 116.088 524.246 115.537 526.977 115.537H530.141V114.043C530.141 112.906 529.801 112.004 529.121 111.336C528.441 110.656 527.439 110.317 526.115 110.317C524.955 110.317 523.982 110.609 523.197 111.195C522.412 111.781 522.02 112.49 522.02 113.322H518.75C518.75 112.373 519.084 111.459 519.752 110.58C520.432 109.69 521.346 108.986 522.494 108.471C523.654 107.955 524.926 107.697 526.309 107.697C528.5 107.697 530.217 108.248 531.459 109.35C532.701 110.44 533.346 111.945 533.393 113.867V122.621C533.393 124.367 533.615 125.756 534.061 126.787V127.068H530.65ZM525.254 124.59C526.273 124.59 527.24 124.326 528.154 123.799C529.068 123.272 529.73 122.586 530.141 121.742V117.84H527.592C523.607 117.84 521.615 119.006 521.615 121.338C521.615 122.358 521.955 123.154 522.635 123.729C523.314 124.303 524.188 124.59 525.254 124.59Z" fill="#FA5712"/>
<path d="M542.023 127.068H538.771V100.068H542.023V127.068Z" fill="#FA5712"/>
<path d="M546.383 117.383C546.383 115.52 546.746 113.844 547.473 112.356C548.211 110.867 549.23 109.719 550.531 108.91C551.844 108.102 553.338 107.697 555.014 107.697C557.604 107.697 559.695 108.594 561.289 110.387C562.895 112.18 563.697 114.565 563.697 117.541V117.77C563.697 119.621 563.34 121.285 562.625 122.762C561.922 124.227 560.908 125.369 559.584 126.19C558.271 127.01 556.76 127.42 555.049 127.42C552.471 127.42 550.379 126.524 548.773 124.731C547.18 122.938 546.383 120.565 546.383 117.611V117.383ZM549.652 117.77C549.652 119.879 550.139 121.572 551.111 122.85C552.096 124.127 553.408 124.766 555.049 124.766C556.701 124.766 558.014 124.121 558.986 122.832C559.959 121.531 560.445 119.715 560.445 117.383C560.445 115.297 559.947 113.609 558.951 112.32C557.967 111.02 556.654 110.369 555.014 110.369C553.408 110.369 552.113 111.008 551.129 112.285C550.145 113.563 549.652 115.391 549.652 117.77Z" fill="#FA5712"/>
<path d="M578.85 122.024C578.85 121.145 578.516 120.465 577.848 119.984C577.191 119.492 576.037 119.07 574.385 118.719C572.744 118.367 571.438 117.945 570.465 117.453C569.504 116.961 568.789 116.375 568.32 115.695C567.863 115.016 567.635 114.207 567.635 113.27C567.635 111.711 568.291 110.393 569.604 109.315C570.928 108.236 572.615 107.697 574.666 107.697C576.822 107.697 578.568 108.254 579.904 109.367C581.252 110.481 581.926 111.904 581.926 113.639H578.656C578.656 112.748 578.275 111.981 577.514 111.336C576.764 110.692 575.814 110.369 574.666 110.369C573.482 110.369 572.557 110.627 571.889 111.143C571.221 111.658 570.887 112.332 570.887 113.164C570.887 113.949 571.197 114.541 571.818 114.94C572.439 115.338 573.559 115.719 575.176 116.082C576.805 116.445 578.123 116.879 579.131 117.383C580.139 117.887 580.883 118.496 581.363 119.211C581.855 119.914 582.102 120.776 582.102 121.795C582.102 123.494 581.422 124.859 580.062 125.891C578.703 126.91 576.939 127.42 574.771 127.42C573.248 127.42 571.9 127.151 570.729 126.611C569.557 126.072 568.637 125.322 567.969 124.361C567.312 123.389 566.984 122.34 566.984 121.215H570.236C570.295 122.305 570.729 123.172 571.537 123.817C572.357 124.449 573.436 124.766 574.771 124.766C576.002 124.766 576.986 124.52 577.725 124.027C578.475 123.524 578.85 122.856 578.85 122.024Z" fill="#FA5712"/>
</g>
<g id="Tiempo">
<path d="M747.834 104.252H739.607V127.068H736.25V104.252H728.041V101.475H747.834V104.252Z" fill="#FA5712"/>
<path d="M754.654 127.068H751.402V108.049H754.654V127.068ZM751.139 103.004C751.139 102.477 751.297 102.031 751.613 101.668C751.941 101.305 752.422 101.123 753.055 101.123C753.688 101.123 754.168 101.305 754.496 101.668C754.824 102.031 754.988 102.477 754.988 103.004C754.988 103.531 754.824 103.971 754.496 104.322C754.168 104.674 753.688 104.85 753.055 104.85C752.422 104.85 751.941 104.674 751.613 104.322C751.297 103.971 751.139 103.531 751.139 103.004Z" fill="#FA5712"/>
<path d="M767.768 127.42C765.189 127.42 763.092 126.576 761.475 124.889C759.857 123.19 759.049 120.922 759.049 118.086V117.488C759.049 115.602 759.406 113.92 760.121 112.443C760.848 110.955 761.855 109.795 763.145 108.963C764.445 108.119 765.852 107.697 767.363 107.697C769.836 107.697 771.758 108.512 773.129 110.141C774.5 111.77 775.186 114.102 775.186 117.137V118.49H762.301C762.348 120.365 762.893 121.883 763.936 123.043C764.99 124.192 766.326 124.766 767.943 124.766C769.092 124.766 770.064 124.531 770.861 124.063C771.658 123.594 772.355 122.973 772.953 122.199L774.939 123.746C773.346 126.195 770.955 127.42 767.768 127.42ZM767.363 110.369C766.051 110.369 764.949 110.85 764.059 111.811C763.168 112.76 762.617 114.096 762.406 115.818H771.934V115.572C771.84 113.92 771.395 112.643 770.598 111.74C769.801 110.826 768.723 110.369 767.363 110.369Z" fill="#FA5712"/>
<path d="M782.023 108.049L782.111 110.158C783.506 108.518 785.387 107.697 787.754 107.697C790.414 107.697 792.225 108.717 793.186 110.756C793.818 109.842 794.639 109.104 795.646 108.541C796.666 107.979 797.867 107.697 799.25 107.697C803.422 107.697 805.543 109.906 805.613 114.324V127.068H802.361V114.518C802.361 113.158 802.051 112.145 801.43 111.477C800.809 110.797 799.766 110.457 798.301 110.457C797.094 110.457 796.092 110.82 795.295 111.547C794.498 112.262 794.035 113.229 793.906 114.447V127.068H790.637V114.606C790.637 111.84 789.283 110.457 786.576 110.457C784.443 110.457 782.984 111.365 782.199 113.182V127.068H778.947V108.049H782.023Z" fill="#FA5712"/>
<path d="M826.602 117.77C826.602 120.664 825.939 122.996 824.615 124.766C823.291 126.535 821.498 127.42 819.236 127.42C816.928 127.42 815.111 126.688 813.787 125.223V134.381H810.535V108.049H813.506L813.664 110.158C814.988 108.518 816.828 107.697 819.184 107.697C821.469 107.697 823.273 108.559 824.598 110.281C825.934 112.004 826.602 114.401 826.602 117.471V117.77ZM823.35 117.401C823.35 115.256 822.893 113.563 821.979 112.32C821.064 111.078 819.811 110.457 818.217 110.457C816.248 110.457 814.771 111.33 813.787 113.076V122.164C814.76 123.899 816.248 124.766 818.252 124.766C819.811 124.766 821.047 124.151 821.961 122.92C822.887 121.678 823.35 119.838 823.35 117.401Z" fill="#FA5712"/>
<path d="M829.889 117.383C829.889 115.52 830.252 113.844 830.979 112.356C831.717 110.867 832.736 109.719 834.037 108.91C835.35 108.102 836.844 107.697 838.52 107.697C841.109 107.697 843.201 108.594 844.795 110.387C846.4 112.18 847.203 114.565 847.203 117.541V117.77C847.203 119.621 846.846 121.285 846.131 122.762C845.428 124.227 844.414 125.369 843.09 126.19C841.777 127.01 840.266 127.42 838.555 127.42C835.977 127.42 833.885 126.524 832.279 124.731C830.686 122.938 829.889 120.565 829.889 117.611V117.383ZM833.158 117.77C833.158 119.879 833.645 121.572 834.617 122.85C835.602 124.127 836.914 124.766 838.555 124.766C840.207 124.766 841.52 124.121 842.492 122.832C843.465 121.531 843.951 119.715 843.951 117.383C843.951 115.297 843.453 113.609 842.457 112.32C841.473 111.02 840.16 110.369 838.52 110.369C836.914 110.369 835.619 111.008 834.635 112.285C833.65 113.563 833.158 115.391 833.158 117.77Z" fill="#FA5712"/>
</g>
</g>
<g id="-1 \;\; +1">
<g id="Group">
<g id="Group 4">
<path id="Arrow 1 (Stroke)" fill-rule="evenodd" clip-rule="evenodd" d="M334.339 54.2877C288.047 53.5293 241.73 62.9292 182.667 84.8748L181.274 81.1252C240.641 59.0667 287.467 49.5193 334.404 50.2882C380.099 51.0368 425.765 61.5622 483.042 79.6365L476.995 67.923C476.489 66.9415 476.874 65.7351 477.855 65.2284C478.837 64.7217 480.043 65.1066 480.55 66.0881L488.807 82.0826C489.313 83.0641 488.928 84.2705 487.947 84.7772L471.953 93.0341C470.971 93.5408 469.765 93.1559 469.258 92.1744C468.751 91.1929 469.136 89.9865 470.118 89.4798L481.812 83.4427C424.674 65.4139 379.451 55.0268 334.339 54.2877Z" fill="#E79720"/>
<g id="Group_2">
<path id="Vector" d="M282 25.2428C282 25.2428 282 24.9878 282 24.4778C282 23.9679 282.275 23.5756 282.824 23.301H317.01C317.599 23.6148 317.893 24.0071 317.893 24.4778C317.893 24.9486 317.599 25.3408 317.01 25.6547H282.824C282.275 25.3801 282 24.9878 282 24.4778V25.2428Z" fill="#E79720"/>
</g>
<g id="Group_3">
<path id="Vector_2" d="M335.369 5.17799L334.604 5.47219C334.054 5.66833 333.27 5.86446 332.25 6.0606C331.23 6.25674 330.092 6.39403 328.837 6.47249H327.719V3.76581H328.837C330.681 3.68735 332.387 3.39315 333.956 2.8832C335.525 2.37324 336.624 1.90252 337.251 1.47102C337.879 1.03952 338.428 0.608017 338.899 0.176517C338.977 0.0588358 339.213 -3.8147e-06 339.605 -3.8147e-06C339.958 -3.8147e-06 340.292 0.117675 340.605 0.353039V17.9464L340.664 35.5987C340.939 35.8733 341.174 36.0498 341.37 36.1283C341.566 36.2067 342.037 36.2852 342.782 36.3636C343.528 36.4421 344.744 36.4813 346.431 36.4813H347.96V39.188H347.313C346.489 39.0703 343.371 39.0115 337.958 39.0115C332.623 39.0115 329.543 39.0703 328.72 39.188H328.013V36.4813H329.543C330.406 36.4813 331.152 36.4813 331.779 36.4813C332.407 36.4813 332.897 36.4617 333.25 36.4225C333.603 36.3832 333.917 36.3244 334.192 36.2459C334.466 36.1675 334.623 36.1283 334.662 36.1283C334.702 36.1283 334.819 36.0302 335.016 35.8341C335.212 35.6379 335.329 35.5595 335.369 35.5987V5.17799Z" fill="#E79720"/>
</g>
</g>
<g id="Group 5">
<path id="Arrow 2 (Stroke)" fill-rule="evenodd" clip-rule="evenodd" d="M337.691 282.712C383.983 283.471 430.3 274.071 489.362 252.125L490.756 255.875C431.389 277.933 384.563 287.481 337.625 286.712C291.93 285.963 246.265 275.438 188.987 257.363L195.034 269.077C195.541 270.059 195.156 271.265 194.174 271.772C193.193 272.278 191.986 271.893 191.48 270.912L183.223 254.917C182.716 253.936 183.101 252.73 184.083 252.223L200.077 243.966C201.059 243.459 202.265 243.844 202.772 244.826C203.278 245.807 202.893 247.014 201.912 247.52L190.217 253.557C247.355 271.586 292.578 281.973 337.691 282.712Z" fill="#E79720"/>
<g id="Group_4">
<path id="Vector_3" d="M282 323.243C282 323.243 282 322.988 282 322.478C282 321.968 282.275 321.576 282.824 321.301H300.417V312.475L300.476 303.649C300.868 303.139 301.241 302.884 301.594 302.884C302.104 302.884 302.496 303.178 302.771 303.766V321.301H320.305C320.894 321.615 321.188 322.007 321.188 322.478C321.188 322.949 320.894 323.341 320.305 323.655H302.771V341.189C302.457 341.738 302.104 342.013 301.712 342.013H301.594H301.476C301.006 342.013 300.653 341.738 300.417 341.189V323.655H282.824C282.275 323.38 282 322.988 282 322.478V323.243Z" fill="#E79720"/>
</g>
<g id="Group_5">
<path id="Vector_4" d="M350.091 303.178L349.326 303.472C348.777 303.668 347.992 303.864 346.972 304.061C345.952 304.257 344.815 304.394 343.559 304.472H342.441V301.766H343.559C345.403 301.687 347.109 301.393 348.679 300.883C350.248 300.373 351.346 299.903 351.974 299.471C352.601 299.04 353.15 298.608 353.621 298.177C353.7 298.059 353.935 298 354.327 298C354.68 298 355.014 298.118 355.328 298.353V315.946L355.386 333.599C355.661 333.873 355.896 334.05 356.092 334.128C356.289 334.207 356.759 334.285 357.505 334.364C358.25 334.442 359.466 334.481 361.153 334.481H362.683V337.188H362.035C361.212 337.07 358.093 337.011 352.68 337.011C347.345 337.011 344.265 337.07 343.442 337.188H342.736V334.481H344.265C345.128 334.481 345.874 334.481 346.501 334.481C347.129 334.481 347.619 334.462 347.972 334.422C348.325 334.383 348.639 334.324 348.914 334.246C349.188 334.167 349.345 334.128 349.385 334.128C349.424 334.128 349.542 334.03 349.738 333.834C349.934 333.638 350.051 333.559 350.091 333.599V303.178Z" fill="#E79720"/>
</g>
</g>
</g>
</g>
<g id="6\;3\;2\;x\;8\;7">
<g id="Group_6">
<g id="Group_7">
<path id="Vector_5" d="M768.003 166.031C768.003 161.096 769.229 157.191 771.681 154.315C774.134 151.439 776.859 150 779.856 150C781.945 150 783.443 150.545 784.352 151.635C785.26 152.725 785.714 153.936 785.714 155.268C785.714 156.025 785.502 156.631 785.078 157.085C784.655 157.539 784.064 157.766 783.307 157.766C782.611 157.766 782.036 157.554 781.582 157.13C781.127 156.706 780.9 156.116 780.9 155.359C780.9 154.027 781.612 153.225 783.035 152.952C782.369 152.286 781.43 151.908 780.219 151.817C778.07 151.817 776.298 152.725 774.906 154.542C773.483 156.54 772.771 159.598 772.771 163.715L772.817 163.897C772.968 163.715 773.089 163.519 773.18 163.307C774.421 161.49 776.041 160.582 778.039 160.582H778.221C779.614 160.582 780.84 160.869 781.899 161.445C782.626 161.869 783.353 162.474 784.079 163.261C784.806 164.048 785.396 164.911 785.85 165.85C786.486 167.333 786.804 168.953 786.804 170.709V171.526C786.804 172.223 786.728 172.874 786.577 173.479C786.244 175.266 785.275 177.006 783.671 178.702C782.066 180.397 780.037 181.245 777.585 181.245C776.737 181.245 775.92 181.124 775.133 180.882C774.346 180.639 773.498 180.185 772.59 179.519C771.681 178.853 770.909 177.96 770.274 176.84C769.638 175.72 769.093 174.251 768.639 172.435C768.184 170.618 767.973 168.484 768.003 166.031ZM777.767 162.217C776.858 162.217 776.071 162.474 775.405 162.989C774.739 163.503 774.225 164.185 773.861 165.032C773.498 165.88 773.241 166.743 773.089 167.621C772.938 168.499 772.847 169.437 772.817 170.437C772.817 172.949 772.998 174.751 773.362 175.841C773.725 176.931 774.3 177.809 775.087 178.475C775.814 179.02 776.616 179.292 777.494 179.292C779.038 179.292 780.219 178.717 781.037 177.566C781.43 177.022 781.703 176.34 781.854 175.523C782.005 174.705 782.081 173.116 782.081 170.754C782.081 168.332 782.005 166.713 781.854 165.895C781.703 165.078 781.43 164.397 781.037 163.852C780.219 162.762 779.129 162.217 777.767 162.217Z" fill="white"/>
</g>
<g id="Group_8">
<path id="Vector_6" d="M151.86 159.174C151.043 159.174 150.407 158.916 149.953 158.402C149.499 157.887 149.256 157.221 149.226 156.404C149.226 154.738 149.953 153.255 151.406 151.953C152.859 150.651 154.615 150 156.674 150C157.734 150 158.4 150.015 158.672 150.046C160.913 150.409 162.623 151.211 163.804 152.453C164.985 153.694 165.59 155.041 165.62 156.494C165.62 158.069 165.106 159.598 164.076 161.081C163.047 162.565 161.624 163.64 159.808 164.306L159.671 164.396C159.671 164.427 159.808 164.472 160.08 164.533C160.353 164.593 160.792 164.729 161.397 164.941C162.003 165.153 162.578 165.471 163.123 165.895C165.605 167.5 166.847 169.619 166.847 172.253C166.847 174.645 165.908 176.734 164.031 178.52C162.154 180.306 159.777 181.199 156.901 181.199C154.479 181.199 152.39 180.549 150.634 179.247C148.878 177.945 148 176.295 148 174.297C148 173.449 148.272 172.768 148.817 172.253C149.362 171.738 150.044 171.466 150.861 171.436C151.709 171.436 152.405 171.708 152.95 172.253C153.495 172.798 153.768 173.479 153.768 174.297C153.768 174.63 153.722 174.932 153.631 175.205C153.54 175.477 153.435 175.72 153.313 175.931C153.192 176.143 153.026 176.325 152.814 176.476C152.602 176.628 152.42 176.749 152.269 176.84C152.118 176.931 151.966 176.991 151.815 177.021C151.663 177.052 151.542 177.097 151.451 177.158L151.27 177.203C152.814 178.565 154.691 179.247 156.901 179.247C158.566 179.247 159.823 178.444 160.67 176.84C161.185 175.841 161.442 174.312 161.442 172.253V171.345C161.442 168.469 160.474 166.546 158.536 165.577C158.082 165.396 157.158 165.29 155.766 165.259L153.858 165.214L153.722 165.123C153.662 165.032 153.631 164.79 153.631 164.396C153.631 163.851 153.752 163.579 153.995 163.579C154.842 163.579 155.72 163.503 156.629 163.352C157.658 163.201 158.597 162.565 159.444 161.445C160.292 160.324 160.716 158.629 160.716 156.358V155.995C160.716 154.269 160.186 153.073 159.126 152.407C158.46 151.983 157.749 151.771 156.992 151.771C156.023 151.771 155.13 151.938 154.312 152.271C153.495 152.604 152.92 152.952 152.587 153.315C152.254 153.679 152.087 153.86 152.087 153.86H152.223C152.314 153.891 152.435 153.921 152.587 153.951C152.738 153.982 152.89 154.057 153.041 154.178C153.192 154.299 153.374 154.405 153.586 154.496C153.798 154.587 153.949 154.754 154.04 154.996C154.131 155.238 154.252 155.465 154.403 155.677C154.555 155.889 154.6 156.192 154.54 156.585C154.54 157.251 154.328 157.842 153.904 158.356C153.48 158.871 152.799 159.144 151.86 159.174Z" fill="white"/>
</g>
<g id="Group_9">
<path id="Vector_7" d="M470.691 161.218C469.874 161.218 469.223 160.945 468.738 160.4C468.254 159.855 468.012 159.189 468.012 158.402C468.012 156.253 468.814 154.391 470.419 152.816C472.023 151.242 474.021 150.455 476.413 150.455C479.168 150.455 481.469 151.303 483.316 152.998C485.163 154.693 486.101 156.888 486.132 159.583C486.132 160.885 485.829 162.126 485.223 163.307C484.618 164.488 483.891 165.517 483.044 166.395C482.196 167.273 480.985 168.393 479.411 169.756C478.321 170.694 476.807 172.087 474.869 173.934L472.19 176.477L475.641 176.522C480.395 176.522 482.923 176.447 483.225 176.295C483.437 176.235 483.801 174.887 484.315 172.253V172.117H486.132V172.253C486.101 172.344 485.905 173.722 485.541 176.386C485.178 179.05 484.951 180.443 484.86 180.564V180.7H468.012V179.837V179.292C468.012 179.081 468.103 178.853 468.284 178.611C468.466 178.369 468.92 177.839 469.647 177.022C470.525 176.053 471.282 175.205 471.917 174.479C472.19 174.176 472.704 173.616 473.461 172.798C474.218 171.981 474.733 171.421 475.005 171.118C475.278 170.815 475.717 170.316 476.322 169.619C476.928 168.923 477.352 168.408 477.594 168.075C477.836 167.742 478.184 167.288 478.639 166.713C479.093 166.138 479.411 165.653 479.592 165.26C479.774 164.866 480.001 164.427 480.273 163.943C480.546 163.458 480.743 162.974 480.864 162.489C480.985 162.005 481.091 161.551 481.182 161.127C481.273 160.703 481.318 160.204 481.318 159.628C481.318 157.721 480.803 156.071 479.774 154.678C478.744 153.286 477.276 152.589 475.369 152.589C474.37 152.589 473.492 152.847 472.735 153.361C471.978 153.876 471.448 154.376 471.145 154.86C470.843 155.344 470.691 155.632 470.691 155.723C470.691 155.753 470.767 155.768 470.918 155.768C471.463 155.768 472.023 155.98 472.598 156.404C473.174 156.828 473.461 157.524 473.461 158.493C473.461 159.25 473.219 159.886 472.735 160.4C472.25 160.915 471.569 161.188 470.691 161.218Z" fill="white"/>
</g>
<g id="Group_10">
<path id="Vector_8" d="M768.772 207.949C768.984 206.677 769.801 205.209 771.224 203.543C772.647 201.878 774.403 201.031 776.492 201C777.552 201 778.521 201.273 779.399 201.818C780.277 202.363 780.928 203.044 781.352 203.861C782.623 201.954 784.152 201 785.938 201C787.059 201 788.027 201.333 788.845 201.999C789.662 202.665 790.086 203.559 790.116 204.679C790.116 205.557 789.905 206.268 789.481 206.813C789.057 207.358 788.648 207.691 788.254 207.812C787.861 207.933 787.513 207.994 787.21 207.994C786.635 207.994 786.165 207.827 785.802 207.494C785.439 207.161 785.257 206.722 785.257 206.177C785.257 204.785 786.014 203.831 787.528 203.316C787.195 202.923 786.589 202.726 785.711 202.726C785.318 202.726 785.03 202.756 784.848 202.817C783.698 203.301 782.85 204.3 782.305 205.814C780.489 212.505 779.58 216.411 779.58 217.531C779.58 218.379 779.823 218.984 780.307 219.347C780.792 219.711 781.321 219.892 781.897 219.892C783.017 219.892 784.122 219.393 785.212 218.394C786.302 217.395 787.043 216.168 787.437 214.715C787.528 214.412 787.619 214.246 787.71 214.216C787.8 214.185 788.043 214.155 788.436 214.125H788.618C789.072 214.125 789.299 214.246 789.299 214.488C789.299 214.518 789.269 214.685 789.208 214.988C788.724 216.713 787.785 218.242 786.393 219.574C785 220.907 783.38 221.573 781.533 221.573C779.414 221.573 777.809 220.619 776.719 218.712C775.478 220.589 774.055 221.527 772.451 221.527H772.178C770.695 221.527 769.635 221.134 768.999 220.346C768.363 219.559 768.03 218.727 768 217.849C768 216.88 768.288 216.093 768.863 215.487C769.438 214.882 770.119 214.579 770.906 214.579C772.208 214.579 772.859 215.215 772.859 216.486C772.859 217.092 772.678 217.622 772.314 218.076C771.951 218.53 771.603 218.833 771.27 218.984C770.937 219.135 770.74 219.211 770.679 219.211L770.543 219.257C770.543 219.287 770.634 219.347 770.816 219.438C770.997 219.529 771.24 219.635 771.542 219.756C771.845 219.877 772.133 219.923 772.405 219.892C773.495 219.892 774.434 219.211 775.221 217.849C775.493 217.364 775.841 216.335 776.265 214.761C776.689 213.186 777.113 211.551 777.537 209.856C777.961 208.16 778.203 207.161 778.263 206.859C778.415 206.041 778.491 205.451 778.491 205.087C778.491 204.24 778.263 203.634 777.809 203.271C777.355 202.908 776.841 202.726 776.265 202.726C775.054 202.726 773.919 203.21 772.859 204.179C771.8 205.148 771.058 206.389 770.634 207.903C770.573 208.176 770.498 208.327 770.407 208.357C770.316 208.388 770.074 208.418 769.68 208.448H769.045C768.863 208.266 768.772 208.1 768.772 207.949Z" fill="white"/>
</g>
<g id="Group_11">
<path id="Vector_9" d="M149.226 212.308C149.226 212.308 149.226 211.142 149.226 208.811C149.226 206.48 150.044 204.603 151.679 203.18C153.313 201.757 155.19 201.03 157.31 201C159.459 201 161.367 201.636 163.032 202.907C164.697 204.179 165.53 205.829 165.53 207.857C165.53 208.766 165.363 209.613 165.03 210.401C164.697 211.188 164.303 211.824 163.849 212.308C163.395 212.792 162.926 213.216 162.442 213.58C161.957 213.943 161.564 214.215 161.261 214.397C160.958 214.579 160.792 214.7 160.761 214.76L161.397 215.169C161.821 215.472 162.245 215.775 162.669 216.077C163.092 216.38 163.335 216.547 163.395 216.577C165.666 218.363 166.801 220.619 166.801 223.344C166.801 225.735 165.923 227.809 164.167 229.565C162.411 231.321 160.141 232.214 157.355 232.245C154.63 232.245 152.39 231.473 150.634 229.929C148.878 228.384 148 226.477 148 224.206C148 220.937 149.953 218.212 153.858 216.032L153.041 215.442C152.405 215.048 151.996 214.745 151.815 214.533C150.089 213.05 149.226 211.142 149.226 208.811V212.308ZM159.036 213.716L159.308 213.534C159.49 213.413 159.626 213.322 159.717 213.262C159.808 213.201 159.959 213.095 160.171 212.944C160.383 212.792 160.564 212.641 160.716 212.49C160.867 212.338 161.034 212.157 161.215 211.945C161.397 211.733 161.564 211.536 161.715 211.354C161.866 211.173 162.018 210.93 162.169 210.628C162.32 210.325 162.457 210.068 162.578 209.856C162.699 209.644 162.775 209.341 162.805 208.947C162.835 208.554 162.865 208.221 162.896 207.948C162.896 206.646 162.457 205.541 161.579 204.633C160.701 203.725 159.686 203.15 158.536 202.907C158.324 202.877 157.824 202.862 157.037 202.862C155.796 202.862 154.63 203.256 153.54 204.043C152.451 204.83 151.89 205.814 151.86 206.995C151.86 207.691 152.057 208.327 152.451 208.902C152.844 209.477 153.238 209.916 153.631 210.219C154.025 210.522 154.782 211.006 155.902 211.672C156.114 211.824 156.28 211.93 156.402 211.99L159.036 213.716ZM157.401 230.292C159.157 230.292 160.67 229.777 161.942 228.748C163.214 227.718 163.849 226.477 163.849 225.024C163.849 224.509 163.774 224.025 163.622 223.571C163.471 223.116 163.289 222.738 163.077 222.435C162.865 222.133 162.532 221.799 162.078 221.436C161.624 221.073 161.276 220.8 161.034 220.619C160.792 220.437 160.353 220.149 159.717 219.756C159.081 219.362 158.672 219.105 158.491 218.984C158.067 218.711 157.613 218.424 157.128 218.121C156.644 217.818 156.25 217.561 155.947 217.349L155.584 217.122C155.402 217.122 154.963 217.379 154.267 217.894C153.571 218.409 152.844 219.241 152.087 220.392C151.33 221.542 150.937 222.783 150.906 224.116C150.906 225.902 151.557 227.37 152.859 228.521C154.161 229.671 155.675 230.262 157.401 230.292Z" fill="white"/>
</g>
<g id="Group_12">
<path id="Vector_10" d="M476 210.9C476.03 210.84 476.288 209.19 476.772 205.95L477.499 201.091C477.499 201.03 477.801 201 478.407 201H479.315V201.182C479.315 201.484 479.542 201.742 479.996 201.954C480.451 202.166 481.238 202.302 482.358 202.362C483.478 202.423 486.036 202.453 490.033 202.453H495.528V204.224L492.44 208.448C492.167 208.811 491.713 209.417 491.077 210.264C490.442 211.112 490.033 211.672 489.851 211.945C489.67 212.217 489.352 212.702 488.897 213.398C488.443 214.094 488.141 214.639 487.989 215.033C487.838 215.426 487.626 215.987 487.353 216.713C487.081 217.44 486.884 218.136 486.763 218.802C486.642 219.468 486.521 220.286 486.4 221.254C486.279 222.223 486.188 223.253 486.127 224.343C486.067 225.433 486.021 226.674 485.991 228.067C485.991 228.49 485.991 228.914 485.991 229.338C485.991 229.762 485.976 230.125 485.946 230.428V230.837C485.824 231.351 485.537 231.79 485.083 232.154C484.629 232.517 484.114 232.699 483.539 232.699C483.206 232.699 482.888 232.653 482.585 232.562C482.282 232.472 481.964 232.184 481.631 231.7C481.298 231.215 481.132 230.61 481.132 229.883C481.132 225.1 482.6 220.134 485.537 214.987C486.142 214.019 487.414 212.187 489.352 209.492L491.441 206.631H487.217C481.949 206.631 479.179 206.722 478.906 206.904C478.725 206.995 478.558 207.358 478.407 207.994C478.256 208.629 478.104 209.28 477.953 209.946L477.817 210.9V211.036H476V210.9Z" fill="white"/>
</g>
</g>
</g>
<g id="flechas">
<path id="Arrow 3 (Stroke)" fill-rule="evenodd" clip-rule="evenodd" d="M724.664 149.723L744.234 160.826C745.435 161.507 745.856 163.033 745.174 164.234L734.072 183.804C733.39 185.004 731.864 185.426 730.663 184.744C729.463 184.063 729.041 182.537 729.723 181.336L737.847 167.016L551.665 218.41L550.335 213.59L736.517 162.196L722.197 154.072C720.996 153.39 720.574 151.864 721.256 150.664C721.937 149.463 723.463 149.041 724.664 149.723Z" fill="#FA5712"/>
<path id="Arrow 4 (Stroke)" fill-rule="evenodd" clip-rule="evenodd" d="M734.072 195.197L745.174 214.766C745.856 215.967 745.435 217.493 744.234 218.175L724.664 229.277C723.463 229.959 721.937 229.538 721.256 228.337C720.574 227.136 720.996 225.61 722.197 224.929L736.517 216.804L550.335 165.41L551.665 160.59L737.847 211.984L729.723 197.664C729.041 196.463 729.463 194.937 730.663 194.256C731.864 193.575 733.39 193.996 734.072 195.197Z" fill="#FA5712"/>
</g>
<g id="2 \times x=7 \times6 \;1\;3\:&#10;\therefore \;x=7 \times 3=21s">
<g id="Group_13">
<g id="Group 35">
<g id="Group_14">
<path id="Vector_11" d="M566.724 339.405C565.893 339.405 565.231 339.128 564.739 338.574C564.246 338.02 564 337.343 564 336.542C564 334.357 564.816 332.464 566.447 330.863C568.079 329.262 570.11 328.462 572.542 328.462C575.343 328.462 577.683 329.324 579.561 331.048C581.438 332.771 582.393 335.003 582.423 337.743C582.423 339.067 582.116 340.329 581.5 341.529C580.884 342.73 580.146 343.776 579.284 344.669C578.422 345.562 577.19 346.701 575.59 348.086C574.482 349.04 572.942 350.456 570.972 352.334L568.248 354.92L571.757 354.966C576.59 354.966 579.161 354.889 579.468 354.735C579.684 354.673 580.053 353.304 580.577 350.625V350.487H582.423V350.625C582.393 350.718 582.193 352.118 581.823 354.827C581.454 357.536 581.223 358.952 581.131 359.075V359.214H564V358.337V357.782C564 357.567 564.092 357.336 564.277 357.09C564.462 356.844 564.923 356.305 565.662 355.474C566.555 354.489 567.325 353.627 567.971 352.888C568.248 352.58 568.771 352.011 569.541 351.18C570.31 350.348 570.834 349.779 571.111 349.471C571.388 349.163 571.834 348.655 572.45 347.947C573.066 347.239 573.496 346.716 573.743 346.377C573.989 346.039 574.343 345.577 574.805 344.992C575.266 344.407 575.59 343.915 575.774 343.515C575.959 343.114 576.19 342.668 576.467 342.176C576.744 341.683 576.944 341.191 577.067 340.698C577.19 340.206 577.298 339.744 577.391 339.313C577.483 338.882 577.529 338.374 577.529 337.789C577.529 335.85 577.006 334.172 575.959 332.756C574.912 331.34 573.42 330.632 571.48 330.632C570.464 330.632 569.572 330.894 568.802 331.417C568.033 331.94 567.494 332.448 567.186 332.941C566.878 333.433 566.724 333.726 566.724 333.818C566.724 333.849 566.801 333.864 566.955 333.864C567.509 333.864 568.079 334.08 568.664 334.511C569.248 334.942 569.541 335.65 569.541 336.635C569.541 337.404 569.295 338.051 568.802 338.574C568.31 339.097 567.617 339.374 566.724 339.405Z" fill="white"/>
</g>
<g id="Group_15">
<path id="Vector_12" d="M624.128 357.875C624.128 358.491 623.805 358.798 623.158 358.798C623.004 358.798 622.666 358.552 622.142 358.06C621.619 357.567 620.172 356.136 617.802 353.765L613 348.963L608.152 353.812C604.889 357.013 603.211 358.644 603.119 358.706C602.995 358.768 602.888 358.798 602.795 358.798C602.549 358.798 602.334 358.706 602.149 358.521C601.964 358.337 601.856 358.121 601.826 357.875C601.826 357.659 602.041 357.321 602.472 356.859C602.903 356.397 604.35 354.935 606.812 352.472L611.615 347.67L606.812 342.868C604.319 340.375 602.872 338.913 602.472 338.482C602.072 338.051 601.856 337.712 601.826 337.466C601.826 337.189 601.918 336.973 602.103 336.819C602.287 336.666 602.518 336.589 602.795 336.589C602.949 336.589 603.057 336.604 603.119 336.635C603.211 336.696 604.889 338.328 608.152 341.529L613 346.377L617.802 341.575C620.172 339.205 621.619 337.774 622.142 337.281C622.666 336.789 623.004 336.542 623.158 336.542C623.805 336.542 624.128 336.85 624.128 337.466C624.128 337.681 623.974 337.958 623.666 338.297C623.358 338.636 621.85 340.144 619.141 342.822L614.339 347.67L619.141 352.519C621.727 355.104 623.204 356.597 623.574 356.998C623.943 357.398 624.128 357.69 624.128 357.875Z" fill="white"/>
</g>
<g id="Group_16">
<path id="Vector_13" d="M643.623 345.869C643.838 344.577 644.669 343.084 646.116 341.391C647.563 339.697 649.348 338.836 651.472 338.805C652.55 338.805 653.535 339.082 654.428 339.636C655.32 340.19 655.982 340.883 656.413 341.714C657.706 339.774 659.26 338.805 661.077 338.805C662.216 338.805 663.201 339.143 664.032 339.821C664.863 340.498 665.294 341.406 665.325 342.545C665.325 343.438 665.109 344.161 664.678 344.715C664.247 345.269 663.832 345.608 663.432 345.731C663.031 345.854 662.677 345.916 662.37 345.916C661.785 345.916 661.308 345.746 660.938 345.408C660.569 345.069 660.384 344.623 660.384 344.069C660.384 342.653 661.154 341.683 662.693 341.16C662.354 340.759 661.739 340.559 660.846 340.559C660.446 340.559 660.153 340.59 659.968 340.652C658.799 341.144 657.937 342.16 657.383 343.699C655.536 350.502 654.612 354.473 654.612 355.612C654.612 356.474 654.859 357.09 655.351 357.459C655.844 357.829 656.382 358.013 656.967 358.013C658.106 358.013 659.23 357.505 660.338 356.489C661.446 355.474 662.2 354.227 662.6 352.749C662.693 352.442 662.785 352.272 662.877 352.241C662.97 352.211 663.216 352.18 663.616 352.149H663.801C664.263 352.149 664.494 352.272 664.494 352.519C664.494 352.549 664.463 352.719 664.401 353.026C663.909 354.781 662.954 356.336 661.538 357.69C660.122 359.044 658.476 359.722 656.598 359.722C654.443 359.722 652.812 358.752 651.703 356.813C650.441 358.721 648.994 359.676 647.363 359.676H647.086C645.578 359.676 644.5 359.275 643.854 358.475C643.207 357.675 642.869 356.828 642.838 355.935C642.838 354.95 643.13 354.15 643.715 353.534C644.3 352.919 644.993 352.611 645.793 352.611C647.117 352.611 647.779 353.257 647.779 354.55C647.779 355.166 647.594 355.705 647.224 356.166C646.855 356.628 646.501 356.936 646.162 357.09C645.824 357.244 645.624 357.321 645.562 357.321L645.424 357.367C645.424 357.398 645.516 357.459 645.701 357.551C645.885 357.644 646.132 357.752 646.439 357.875C646.747 357.998 647.04 358.044 647.317 358.013C648.425 358.013 649.379 357.321 650.18 355.935C650.457 355.443 650.811 354.396 651.242 352.796C651.673 351.195 652.104 349.533 652.534 347.809C652.965 346.085 653.212 345.069 653.273 344.761C653.427 343.93 653.504 343.33 653.504 342.96C653.504 342.099 653.273 341.483 652.812 341.114C652.35 340.744 651.826 340.559 651.242 340.559C650.01 340.559 648.856 341.052 647.779 342.037C646.701 343.022 645.947 344.284 645.516 345.823C645.454 346.1 645.377 346.254 645.285 346.285C645.193 346.316 644.947 346.347 644.546 346.377H643.9C643.715 346.193 643.623 346.023 643.623 345.869Z" fill="white"/>
</g>
<g id="Group_17">
<path id="Vector_14" d="M683.046 343.191C683.046 342.791 683.262 342.483 683.693 342.268H713.106C713.567 342.514 713.798 342.822 713.798 343.191C713.798 343.53 713.583 343.823 713.152 344.069L698.468 344.115H683.785C683.292 343.961 683.046 343.653 683.046 343.191ZM683.046 352.149C683.046 351.688 683.292 351.38 683.785 351.226H713.152C713.583 351.534 713.798 351.841 713.798 352.149C713.798 352.549 713.567 352.857 713.106 353.073H683.693C683.262 352.857 683.046 352.549 683.046 352.149Z" fill="white"/>
</g>
<g id="Group_18">
<path id="Vector_15" d="M731.751 338.066C731.782 338.004 732.043 336.327 732.536 333.033L733.274 328.092C733.274 328.031 733.582 328 734.198 328H735.121V328.185C735.121 328.492 735.352 328.754 735.814 328.97C736.276 329.185 737.076 329.324 738.215 329.385C739.354 329.447 741.955 329.478 746.019 329.478H751.606V331.278L748.466 335.572C748.189 335.942 747.727 336.558 747.081 337.419C746.434 338.281 746.019 338.851 745.834 339.128C745.649 339.405 745.326 339.897 744.864 340.605C744.402 341.313 744.095 341.868 743.941 342.268C743.787 342.668 743.571 343.237 743.294 343.976C743.017 344.715 742.817 345.423 742.694 346.1C742.571 346.777 742.448 347.609 742.325 348.594C742.201 349.579 742.109 350.625 742.048 351.733C741.986 352.842 741.94 354.104 741.909 355.52C741.909 355.951 741.909 356.382 741.909 356.813C741.909 357.244 741.894 357.613 741.863 357.921V358.336C741.74 358.86 741.447 359.306 740.986 359.675C740.524 360.045 740.001 360.229 739.416 360.229C739.077 360.229 738.754 360.183 738.446 360.091C738.138 359.999 737.815 359.706 737.476 359.214C737.138 358.721 736.968 358.105 736.968 357.367C736.968 352.503 738.461 347.455 741.447 342.222C742.063 341.237 743.356 339.374 745.326 336.635L747.45 333.726H743.156C737.8 333.726 734.983 333.818 734.706 334.003C734.521 334.095 734.352 334.464 734.198 335.111C734.044 335.757 733.89 336.419 733.736 337.096L733.598 338.066V338.204H731.751V338.066Z" fill="white"/>
</g>
<g id="Group_19">
<path id="Vector_16" d="M791.648 357.875C791.648 358.491 791.324 358.798 790.678 358.798C790.524 358.798 790.185 358.552 789.662 358.06C789.139 357.567 787.692 356.136 785.322 353.765L780.52 348.963L775.671 353.812C772.408 357.013 770.731 358.644 770.638 358.706C770.515 358.768 770.407 358.798 770.315 358.798C770.069 358.798 769.853 358.706 769.669 358.521C769.484 358.337 769.376 358.121 769.345 357.875C769.345 357.659 769.561 357.321 769.992 356.859C770.423 356.397 771.87 354.935 774.332 352.472L779.134 347.67L774.332 342.868C771.839 340.375 770.392 338.913 769.992 338.482C769.592 338.051 769.376 337.712 769.345 337.466C769.345 337.189 769.438 336.973 769.623 336.819C769.807 336.666 770.038 336.589 770.315 336.589C770.469 336.589 770.577 336.604 770.638 336.635C770.731 336.696 772.408 338.328 775.671 341.529L780.52 346.377L785.322 341.575C787.692 339.205 789.139 337.774 789.662 337.281C790.185 336.789 790.524 336.542 790.678 336.542C791.324 336.542 791.648 336.85 791.648 337.466C791.648 337.681 791.494 337.958 791.186 338.297C790.878 338.636 789.37 340.144 786.661 342.822L781.859 347.67L786.661 352.519C789.247 355.104 790.724 356.597 791.093 356.998C791.463 357.398 791.648 357.69 791.648 357.875Z" fill="white"/>
</g>
<g id="Group_20">
<path id="Vector_17" d="M810.681 344.761C810.681 339.744 811.927 335.773 814.421 332.848C816.914 329.924 819.685 328.462 822.732 328.462C824.856 328.462 826.38 329.016 827.303 330.124C828.227 331.232 828.689 332.463 828.689 333.818C828.689 334.587 828.473 335.203 828.042 335.665C827.611 336.127 827.011 336.357 826.241 336.357C825.533 336.357 824.948 336.142 824.487 335.711C824.025 335.28 823.794 334.68 823.794 333.91C823.794 332.556 824.517 331.74 825.964 331.463C825.287 330.786 824.333 330.401 823.101 330.309C820.916 330.309 819.115 331.232 817.699 333.079C816.252 335.111 815.529 338.22 815.529 342.406L815.575 342.591C815.729 342.406 815.852 342.206 815.944 341.991C817.207 340.144 818.853 339.22 820.885 339.22H821.07C822.486 339.22 823.733 339.513 824.81 340.098C825.549 340.529 826.287 341.144 827.026 341.945C827.765 342.745 828.365 343.622 828.827 344.576C829.473 346.085 829.797 347.732 829.797 349.517V350.348C829.797 351.056 829.72 351.718 829.566 352.334C829.227 354.15 828.242 355.92 826.611 357.644C824.979 359.368 822.917 360.229 820.423 360.229C819.561 360.229 818.73 360.106 817.93 359.86C817.13 359.614 816.268 359.152 815.344 358.475C814.421 357.798 813.636 356.89 812.989 355.751C812.343 354.612 811.789 353.119 811.327 351.272C810.865 349.425 810.65 347.255 810.681 344.761ZM820.608 340.883C819.685 340.883 818.884 341.144 818.207 341.667C817.53 342.191 817.006 342.883 816.637 343.745C816.268 344.607 816.006 345.485 815.852 346.377C815.698 347.27 815.606 348.224 815.575 349.24C815.575 351.795 815.76 353.627 816.129 354.735C816.499 355.843 817.083 356.736 817.884 357.413C818.623 357.967 819.438 358.244 820.331 358.244C821.901 358.244 823.101 357.659 823.933 356.489C824.333 355.935 824.61 355.243 824.764 354.412C824.918 353.58 824.995 351.964 824.995 349.563C824.995 347.101 824.918 345.454 824.764 344.623C824.61 343.791 824.333 343.099 823.933 342.545C823.101 341.437 821.993 340.883 820.608 340.883Z" fill="white"/>
</g>
<path id="Arrow 17 (Stroke)" fill-rule="evenodd" clip-rule="evenodd" d="M583.697 316.65L601.376 320.036C602.461 320.243 603.172 321.291 602.964 322.376L599.579 340.055C599.371 341.14 598.323 341.851 597.239 341.643C596.154 341.435 595.443 340.387 595.65 339.303L598.128 326.366L546.123 361.655L543.877 358.345L595.882 323.056L582.945 320.579C581.86 320.371 581.149 319.323 581.357 318.239C581.565 317.154 582.612 316.443 583.697 316.65Z" fill="#D51919"/>
<path id="Arrow 18 (Stroke)" fill-rule="evenodd" clip-rule="evenodd" d="M835.697 317.65L853.376 321.036C854.461 321.243 855.172 322.291 854.964 323.376L851.579 341.055C851.371 342.14 850.323 342.851 849.239 342.643C848.154 342.435 847.443 341.387 847.65 340.303L850.128 327.366L798.123 362.655L795.877 359.345L847.882 324.056L834.945 321.579C833.86 321.371 833.149 320.323 833.357 319.239C833.565 318.154 834.612 317.443 835.697 317.65Z" fill="#D51919"/>
</g>
<g id="Group 37">
<g id="Group_21">
<path id="Vector_18" d="M570.003 281.063L569.402 281.294C568.971 281.448 568.356 281.602 567.555 281.756C566.755 281.91 565.862 282.018 564.877 282.079H564V279.955H564.877C566.324 279.894 567.663 279.663 568.894 279.263C570.126 278.862 570.988 278.493 571.48 278.154C571.973 277.816 572.404 277.477 572.773 277.138C572.835 277.046 573.019 277 573.327 277C573.604 277 573.866 277.092 574.112 277.277V291.083L574.158 304.935C574.374 305.151 574.558 305.289 574.712 305.351C574.866 305.412 575.236 305.474 575.821 305.536C576.405 305.597 577.36 305.628 578.683 305.628H579.884V307.752H579.376C578.73 307.66 576.282 307.613 572.034 307.613C567.848 307.613 565.431 307.66 564.785 307.752H564.231V305.628H565.431C566.109 305.628 566.693 305.628 567.186 305.628C567.679 305.628 568.063 305.613 568.34 305.582C568.617 305.551 568.864 305.505 569.079 305.443C569.295 305.382 569.418 305.351 569.449 305.351C569.479 305.351 569.572 305.274 569.726 305.12C569.88 304.966 569.972 304.905 570.003 304.935V281.063Z" fill="white"/>
</g>
<g id="Group_22">
<path id="Vector_19" d="M807.925 286.327C807.094 286.327 806.447 286.066 805.985 285.542C805.524 285.019 805.277 284.342 805.247 283.511C805.247 281.818 805.985 280.309 807.463 278.986C808.941 277.662 810.726 277 812.819 277C813.897 277 814.574 277.015 814.851 277.046C817.129 277.416 818.868 278.231 820.069 279.493C821.269 280.756 821.885 282.125 821.916 283.603C821.916 285.204 821.392 286.758 820.346 288.267C819.299 289.775 817.852 290.868 816.005 291.545L815.867 291.637C815.867 291.668 816.005 291.714 816.282 291.776C816.559 291.837 817.006 291.976 817.621 292.191C818.237 292.407 818.822 292.73 819.376 293.161C821.9 294.792 823.162 296.947 823.162 299.625C823.162 302.057 822.208 304.181 820.299 305.997C818.391 307.814 815.974 308.722 813.05 308.722C810.588 308.722 808.464 308.06 806.678 306.736C804.893 305.413 804 303.735 804 301.703C804 300.841 804.277 300.149 804.831 299.625C805.385 299.102 806.078 298.825 806.909 298.794C807.771 298.794 808.479 299.071 809.033 299.625C809.587 300.179 809.864 300.872 809.864 301.703C809.864 302.042 809.818 302.35 809.726 302.627C809.633 302.904 809.526 303.15 809.402 303.365C809.279 303.581 809.11 303.766 808.894 303.92C808.679 304.073 808.494 304.197 808.34 304.289C808.186 304.381 808.033 304.443 807.879 304.474C807.725 304.504 807.602 304.551 807.509 304.612L807.325 304.658C808.894 306.044 810.803 306.736 813.05 306.736C814.743 306.736 816.021 305.92 816.883 304.289C817.406 303.273 817.668 301.719 817.668 299.625V298.702C817.668 295.778 816.682 293.823 814.712 292.838C814.251 292.653 813.312 292.545 811.896 292.515L809.956 292.468L809.818 292.376C809.756 292.284 809.726 292.037 809.726 291.637C809.726 291.083 809.849 290.806 810.095 290.806C810.957 290.806 811.85 290.729 812.773 290.575C813.82 290.421 814.774 289.775 815.636 288.636C816.498 287.497 816.929 285.773 816.929 283.464V283.095C816.929 281.34 816.39 280.124 815.313 279.447C814.635 279.016 813.912 278.801 813.142 278.801C812.157 278.801 811.249 278.97 810.418 279.309C809.587 279.647 809.002 280.001 808.664 280.371C808.325 280.74 808.156 280.925 808.156 280.925H808.294C808.387 280.956 808.51 280.986 808.664 281.017C808.818 281.048 808.971 281.125 809.125 281.248C809.279 281.371 809.464 281.479 809.679 281.571C809.895 281.664 810.049 281.833 810.141 282.079C810.234 282.325 810.357 282.556 810.511 282.772C810.664 282.987 810.711 283.295 810.649 283.695C810.649 284.373 810.434 284.973 810.003 285.496C809.572 286.019 808.879 286.296 807.925 286.327Z" fill="white"/>
</g>
</g>
<g id="Group 36">
<g id="Group_23">
<path id="Vector_20" d="M542.35 392.235C542.35 391.435 542.627 390.773 543.181 390.249C543.735 389.726 544.397 389.464 545.166 389.464C545.905 389.464 546.536 389.726 547.059 390.249C547.583 390.773 547.86 391.435 547.891 392.235C547.921 393.035 547.66 393.697 547.106 394.22C546.552 394.744 545.89 395.005 545.12 395.005C544.32 395.005 543.658 394.744 543.135 394.22C542.611 393.697 542.35 393.035 542.35 392.235ZM533.623 409.458C534.423 409.458 535.07 409.72 535.562 410.243C536.055 410.766 536.316 411.428 536.347 412.228C536.347 412.967 536.101 413.614 535.608 414.168C535.116 414.722 534.438 414.999 533.577 414.999C532.776 414.999 532.13 414.737 531.637 414.214C531.145 413.691 530.883 413.029 530.852 412.228C530.852 411.428 531.114 410.766 531.637 410.243C532.161 409.72 532.822 409.458 533.623 409.458ZM553.939 412.228C553.939 411.428 554.201 410.766 554.724 410.243C555.248 409.72 555.909 409.458 556.71 409.458C557.449 409.458 558.08 409.72 558.603 410.243C559.126 410.766 559.403 411.428 559.434 412.228C559.434 412.936 559.188 413.567 558.695 414.121C558.203 414.676 557.526 414.968 556.664 414.999C555.863 414.999 555.217 414.737 554.724 414.214C554.232 413.691 553.97 413.029 553.939 412.228Z" fill="white"/>
</g>
<g id="Group_24">
<path id="Vector_21" d="M588.597 397.868C588.813 396.575 589.644 395.082 591.091 393.389C592.538 391.696 594.323 390.834 596.447 390.803C597.524 390.803 598.51 391.08 599.402 391.635C600.295 392.189 600.957 392.881 601.388 393.712C602.681 391.773 604.235 390.803 606.051 390.803C607.19 390.803 608.175 391.142 609.006 391.819C609.838 392.497 610.269 393.405 610.299 394.544C610.299 395.436 610.084 396.16 609.653 396.714C609.222 397.268 608.806 397.606 608.406 397.73C608.006 397.853 607.652 397.914 607.344 397.914C606.759 397.914 606.282 397.745 605.913 397.406C605.543 397.068 605.359 396.621 605.359 396.067C605.359 394.651 606.128 393.682 607.667 393.158C607.329 392.758 606.713 392.558 605.82 392.558C605.42 392.558 605.128 392.589 604.943 392.65C603.773 393.143 602.911 394.159 602.357 395.698C600.51 402.501 599.587 406.472 599.587 407.611C599.587 408.473 599.833 409.088 600.326 409.458C600.818 409.827 601.357 410.012 601.942 410.012C603.081 410.012 604.204 409.504 605.313 408.488C606.421 407.472 607.175 406.226 607.575 404.748C607.667 404.44 607.76 404.271 607.852 404.24C607.944 404.209 608.191 404.179 608.591 404.148H608.776C609.237 404.148 609.468 404.271 609.468 404.517C609.468 404.548 609.437 404.717 609.376 405.025C608.883 406.78 607.929 408.334 606.513 409.689C605.097 411.043 603.45 411.72 601.572 411.72C599.418 411.72 597.786 410.751 596.678 408.811C595.416 410.72 593.969 411.674 592.338 411.674H592.061C590.552 411.674 589.475 411.274 588.828 410.474C588.182 409.673 587.843 408.827 587.812 407.934C587.812 406.949 588.105 406.149 588.69 405.533C589.275 404.917 589.967 404.61 590.768 404.61C592.091 404.61 592.753 405.256 592.753 406.549C592.753 407.164 592.568 407.703 592.199 408.165C591.83 408.627 591.476 408.934 591.137 409.088C590.798 409.242 590.598 409.319 590.537 409.319L590.398 409.365C590.398 409.396 590.491 409.458 590.675 409.55C590.86 409.643 591.106 409.75 591.414 409.873C591.722 409.997 592.014 410.043 592.291 410.012C593.4 410.012 594.354 409.319 595.154 407.934C595.431 407.442 595.785 406.395 596.216 404.794C596.647 403.194 597.078 401.531 597.509 399.807C597.94 398.084 598.186 397.068 598.248 396.76C598.402 395.929 598.479 395.329 598.479 394.959C598.479 394.097 598.248 393.482 597.786 393.112C597.324 392.743 596.801 392.558 596.216 392.558C594.985 392.558 593.831 393.051 592.753 394.036C591.676 395.021 590.922 396.283 590.491 397.822C590.429 398.099 590.352 398.253 590.26 398.284C590.167 398.314 589.921 398.345 589.521 398.376H588.875C588.69 398.191 588.597 398.022 588.597 397.868Z" fill="white"/>
</g>
<g id="Group_25">
<path id="Vector_22" d="M628.017 395.19C628.017 394.79 628.232 394.482 628.663 394.267H658.076C658.538 394.513 658.769 394.821 658.769 395.19C658.769 395.529 658.553 395.821 658.122 396.068L643.439 396.114H628.755C628.263 395.96 628.017 395.652 628.017 395.19ZM628.017 404.148C628.017 403.686 628.263 403.378 628.755 403.225H658.122C658.553 403.532 658.769 403.84 658.769 404.148C658.769 404.548 658.538 404.856 658.076 405.072H628.663C628.232 404.856 628.017 404.548 628.017 404.148Z" fill="white"/>
</g>
<g id="Group_26">
<path id="Vector_23" d="M676.721 390.065C676.751 390.003 677.013 388.325 677.506 385.032L678.244 380.091C678.244 380.029 678.552 379.999 679.168 379.999H680.091V380.183C680.091 380.491 680.322 380.753 680.784 380.968C681.246 381.184 682.046 381.322 683.185 381.384C684.324 381.445 686.925 381.476 690.989 381.476H696.576V383.277L693.436 387.571C693.159 387.941 692.697 388.556 692.051 389.418C691.404 390.28 690.989 390.85 690.804 391.127C690.619 391.404 690.296 391.896 689.834 392.604C689.372 393.312 689.065 393.866 688.911 394.266C688.757 394.667 688.541 395.236 688.264 395.975C687.987 396.714 687.787 397.422 687.664 398.099C687.541 398.776 687.418 399.607 687.295 400.592C687.171 401.577 687.079 402.624 687.018 403.732C686.956 404.84 686.91 406.102 686.879 407.518C686.879 407.949 686.879 408.38 686.879 408.811C686.879 409.242 686.864 409.612 686.833 409.919V410.335C686.71 410.858 686.417 411.305 685.956 411.674C685.494 412.043 684.97 412.228 684.386 412.228C684.047 412.228 683.724 412.182 683.416 412.09C683.108 411.997 682.785 411.705 682.446 411.212C682.108 410.72 681.938 410.104 681.938 409.365C681.938 404.502 683.431 399.453 686.417 394.22C687.033 393.235 688.326 391.373 690.296 388.633L692.42 385.724H688.126C682.77 385.724 679.953 385.817 679.676 386.001C679.491 386.094 679.322 386.463 679.168 387.109C679.014 387.756 678.86 388.418 678.706 389.095L678.568 390.065V390.203H676.721V390.065Z" fill="white"/>
</g>
<g id="Group_27">
<path id="Vector_24" d="M736.618 409.874C736.618 410.489 736.295 410.797 735.648 410.797C735.494 410.797 735.156 410.551 734.632 410.058C734.109 409.566 732.662 408.134 730.292 405.764L725.49 400.962L720.642 405.81C717.379 409.012 715.701 410.643 715.609 410.705C715.485 410.766 715.378 410.797 715.285 410.797C715.039 410.797 714.824 410.705 714.639 410.52C714.454 410.335 714.346 410.12 714.316 409.874C714.316 409.658 714.531 409.319 714.962 408.858C715.393 408.396 716.84 406.934 719.302 404.471L724.105 399.669L719.302 394.867C716.809 392.374 715.362 390.911 714.962 390.48C714.562 390.049 714.346 389.711 714.316 389.465C714.316 389.187 714.408 388.972 714.593 388.818C714.777 388.664 715.008 388.587 715.285 388.587C715.439 388.587 715.547 388.603 715.609 388.633C715.701 388.695 717.379 390.326 720.642 393.528L725.49 398.376L730.292 393.574C732.662 391.204 734.109 389.772 734.632 389.28C735.156 388.787 735.494 388.541 735.648 388.541C736.295 388.541 736.618 388.849 736.618 389.465C736.618 389.68 736.464 389.957 736.156 390.296C735.848 390.634 734.34 392.143 731.631 394.821L726.829 399.669L731.631 404.517C734.217 407.103 735.694 408.596 736.064 408.996C736.433 409.396 736.618 409.689 736.618 409.874Z" fill="white"/>
</g>
<g id="Group_28">
<path id="Vector_25" d="M759.58 389.834C758.749 389.834 758.103 389.572 757.641 389.049C757.179 388.525 756.933 387.848 756.902 387.017C756.902 385.324 757.641 383.816 759.119 382.492C760.596 381.168 762.382 380.507 764.475 380.507C765.552 380.507 766.229 380.522 766.506 380.553C768.784 380.922 770.524 381.738 771.724 383C772.925 384.262 773.54 385.632 773.571 387.109C773.571 388.71 773.048 390.265 772.001 391.773C770.955 393.281 769.508 394.374 767.661 395.051L767.522 395.144C767.522 395.174 767.661 395.221 767.938 395.282C768.215 395.344 768.661 395.482 769.277 395.698C769.893 395.913 770.477 396.237 771.032 396.667C773.556 398.299 774.818 400.454 774.818 403.132C774.818 405.564 773.864 407.688 771.955 409.504C770.046 411.32 767.63 412.228 764.706 412.228C762.243 412.228 760.119 411.566 758.334 410.243C756.548 408.919 755.656 407.241 755.656 405.21C755.656 404.348 755.933 403.655 756.487 403.132C757.041 402.609 757.733 402.331 758.564 402.301C759.426 402.301 760.134 402.578 760.688 403.132C761.243 403.686 761.52 404.379 761.52 405.21C761.52 405.548 761.473 405.856 761.381 406.133C761.289 406.41 761.181 406.656 761.058 406.872C760.935 407.087 760.765 407.272 760.55 407.426C760.334 407.58 760.15 407.703 759.996 407.795C759.842 407.888 759.688 407.949 759.534 407.98C759.38 408.011 759.257 408.057 759.165 408.119L758.98 408.165C760.55 409.55 762.459 410.243 764.706 410.243C766.399 410.243 767.676 409.427 768.538 407.795C769.061 406.78 769.323 405.225 769.323 403.132V402.208C769.323 399.284 768.338 397.329 766.368 396.344C765.906 396.16 764.967 396.052 763.551 396.021L761.612 395.975L761.473 395.883C761.412 395.79 761.381 395.544 761.381 395.144C761.381 394.59 761.504 394.313 761.751 394.313C762.612 394.313 763.505 394.236 764.429 394.082C765.475 393.928 766.429 393.281 767.291 392.142C768.153 391.003 768.584 389.28 768.584 386.971V386.601C768.584 384.847 768.046 383.631 766.968 382.954C766.291 382.523 765.568 382.307 764.798 382.307C763.813 382.307 762.905 382.477 762.074 382.815C761.243 383.154 760.658 383.508 760.319 383.877C759.98 384.247 759.811 384.431 759.811 384.431H759.95C760.042 384.462 760.165 384.493 760.319 384.524C760.473 384.554 760.627 384.631 760.781 384.755C760.935 384.878 761.119 384.985 761.335 385.078C761.55 385.17 761.704 385.339 761.797 385.586C761.889 385.832 762.012 386.063 762.166 386.278C762.32 386.494 762.366 386.802 762.305 387.202C762.305 387.879 762.089 388.479 761.658 389.003C761.227 389.526 760.535 389.803 759.58 389.834Z" fill="white"/>
</g>
<g id="Group_29">
<path id="Vector_26" d="M792.212 395.19C792.212 394.79 792.427 394.482 792.858 394.267H822.271C822.733 394.513 822.964 394.821 822.964 395.19C822.964 395.529 822.748 395.821 822.317 396.068L807.634 396.114H792.95C792.458 395.96 792.212 395.652 792.212 395.19ZM792.212 404.148C792.212 403.686 792.458 403.378 792.95 403.225H822.317C822.748 403.532 822.964 403.84 822.964 404.148C822.964 404.548 822.733 404.856 822.271 405.072H792.858C792.427 404.856 792.212 404.548 792.212 404.148Z" fill="white"/>
</g>
<g id="Group_30">
<path id="Vector_27" d="M843.41 391.404C842.579 391.404 841.917 391.127 841.425 390.573C840.932 390.019 840.686 389.341 840.686 388.541C840.686 386.356 841.502 384.462 843.133 382.862C844.765 381.261 846.796 380.461 849.228 380.461C852.029 380.461 854.369 381.323 856.246 383.046C858.124 384.77 859.078 387.002 859.109 389.742C859.109 391.065 858.801 392.327 858.186 393.528C857.57 394.728 856.831 395.775 855.969 396.668C855.108 397.56 853.876 398.699 852.276 400.085C851.167 401.039 849.628 402.455 847.658 404.333L844.934 406.918L848.443 406.965C853.276 406.965 855.846 406.888 856.154 406.734C856.37 406.672 856.739 405.302 857.262 402.624V402.486H859.109V402.624C859.078 402.717 858.878 404.117 858.509 406.826C858.14 409.535 857.909 410.951 857.816 411.074V411.213H840.686V410.335V409.781C840.686 409.566 840.778 409.335 840.963 409.089C841.148 408.842 841.609 408.304 842.348 407.473C843.241 406.487 844.01 405.626 844.657 404.887C844.934 404.579 845.457 404.009 846.227 403.178C846.996 402.347 847.52 401.778 847.797 401.47C848.074 401.162 848.52 400.654 849.136 399.946C849.751 399.238 850.182 398.715 850.429 398.376C850.675 398.038 851.029 397.576 851.491 396.991C851.952 396.406 852.276 395.914 852.46 395.513C852.645 395.113 852.876 394.667 853.153 394.174C853.43 393.682 853.63 393.189 853.753 392.697C853.876 392.204 853.984 391.743 854.076 391.312C854.169 390.881 854.215 390.373 854.215 389.788C854.215 387.849 853.692 386.171 852.645 384.755C851.598 383.339 850.105 382.631 848.166 382.631C847.15 382.631 846.257 382.893 845.488 383.416C844.718 383.939 844.18 384.447 843.872 384.94C843.564 385.432 843.41 385.725 843.41 385.817C843.41 385.848 843.487 385.863 843.641 385.863C844.195 385.863 844.765 386.079 845.349 386.509C845.934 386.94 846.227 387.648 846.227 388.633C846.227 389.403 845.98 390.049 845.488 390.573C844.995 391.096 844.303 391.373 843.41 391.404Z" fill="white"/>
<path id="Vector_28" d="M871.3 384.524L870.699 384.755C870.268 384.909 869.653 385.063 868.852 385.217C868.052 385.371 867.159 385.478 866.174 385.54H865.297V383.416H866.174C867.621 383.354 868.96 383.123 870.191 382.723C871.423 382.323 872.285 381.954 872.777 381.615C873.27 381.276 873.701 380.938 874.07 380.599C874.132 380.507 874.316 380.461 874.624 380.461C874.901 380.461 875.163 380.553 875.409 380.738V394.544L875.455 408.396C875.671 408.612 875.855 408.75 876.009 408.812C876.163 408.873 876.533 408.935 877.117 408.996C877.702 409.058 878.657 409.089 879.98 409.089H881.181V411.213H880.673C880.026 411.12 877.579 411.074 873.331 411.074C869.145 411.074 866.728 411.12 866.082 411.213H865.528V409.089H866.728C867.405 409.089 867.99 409.089 868.483 409.089C868.975 409.089 869.36 409.073 869.637 409.042C869.914 409.012 870.161 408.966 870.376 408.904C870.592 408.842 870.715 408.812 870.745 408.812C870.776 408.812 870.869 408.735 871.022 408.581C871.176 408.427 871.269 408.365 871.3 408.396V384.524Z" fill="white"/>
</g>
<g id="Group_31">
<path id="Vector_29" d="M890.6 397.868C890.6 396.883 890.846 395.883 891.339 394.867C891.831 393.851 892.693 392.912 893.924 392.05C895.156 391.188 896.649 390.773 898.403 390.803C900.312 390.803 901.697 391.219 902.559 392.05C903.421 392.881 903.867 393.805 903.898 394.821C903.898 395.806 903.636 396.529 903.113 396.991C902.59 397.452 902.005 397.699 901.358 397.729C900.958 397.729 900.589 397.606 900.25 397.36C899.912 397.114 899.727 396.714 899.696 396.16C899.696 395.667 899.835 395.236 900.112 394.867C900.389 394.497 900.65 394.22 900.897 394.036C901.143 393.851 901.343 393.759 901.497 393.759C901.528 393.759 901.543 393.743 901.543 393.712C901.543 393.62 901.435 393.481 901.22 393.297C901.004 393.112 900.62 392.943 900.066 392.789C899.511 392.635 898.911 392.543 898.265 392.512C896.787 392.512 895.71 392.912 895.033 393.712C894.355 394.513 894.001 395.328 893.971 396.16C893.971 396.929 894.263 397.468 894.848 397.776C895.433 398.083 896.279 398.345 897.387 398.561C898.496 398.776 899.296 399.007 899.789 399.253C901.82 400.146 902.836 401.624 902.836 403.686C902.836 404.548 902.667 405.41 902.328 406.272C901.989 407.134 901.482 407.996 900.804 408.857C900.127 409.719 899.157 410.397 897.895 410.889C896.633 411.382 895.187 411.643 893.555 411.674C891.185 411.674 889.507 411.228 888.522 410.335C887.537 409.442 887.029 408.396 886.998 407.195C886.998 405.995 887.322 405.133 887.968 404.609C888.614 404.086 889.292 403.824 890 403.824C890.461 403.824 890.892 403.963 891.292 404.24C891.693 404.517 891.908 404.994 891.939 405.671C891.939 406.472 891.662 407.149 891.108 407.703C890.554 408.257 890.077 408.534 889.676 408.534C889.615 408.565 889.569 408.58 889.538 408.58C889.507 408.58 889.492 408.611 889.492 408.673C889.522 408.765 889.646 408.888 889.861 409.042C890.077 409.196 890.554 409.396 891.292 409.642C892.031 409.889 892.878 409.996 893.832 409.966C894.94 409.966 895.895 409.796 896.695 409.458C897.495 409.119 898.08 408.688 898.449 408.165C898.819 407.642 899.081 407.164 899.234 406.733C899.388 406.302 899.465 405.918 899.465 405.579C899.465 404.717 899.142 404.071 898.496 403.64C897.849 403.209 897.11 402.947 896.279 402.855C895.448 402.762 894.54 402.532 893.555 402.162C892.57 401.793 891.847 401.254 891.385 400.546C890.862 399.777 890.6 398.884 890.6 397.868Z" fill="white"/>
</g>
</g>
</g>
</g>
</g>
</svg>
