<svg viewBox="0 0 985 720" fill="none" xmlns="http://www.w3.org/2000/svg">
<g id="0118131">
<g id="Group 8">
<path id="Rectangle 1" d="M0 65.3543C0 31.3037 24.1776 3.70032 54.0022 3.70032H985V430.346C985 464.397 960.822 492 930.997 492H0V65.3543Z" fill="#02071A"/>
<path id="Rectangle 1 (Stroke)" fill-rule="evenodd" clip-rule="evenodd" d="M979.599 9.86572H54.0022C27.1601 9.86572 5.40022 34.7088 5.40022 65.3543V485.835H930.997C957.84 485.835 979.599 460.991 979.599 430.346V9.86572ZM54.0022 3.70032C24.1776 3.70032 0 31.3037 0 65.3543V492H930.997C960.822 492 985 464.397 985 430.346V3.70032H54.0022Z" fill="#CD08D1"/>
<path id="Rectangle 14" d="M58.4842 3.78854C87.3672 -4.73567 985 3.78854 985 3.78854V40.6916C985 40.6916 43.2016 27.1278 9.72021 40.6916C20.138 21.1187 29.6012 12.3127 58.4842 3.78854Z" fill="#CD08D1"/>
<path id="Rectangle 15" d="M952.599 3.70032H985V431.579C981.023 460.616 972.78 471.288 952.599 485.218C958.538 462.406 952.599 3.70032 952.599 3.70032Z" fill="#CD08D1"/>
</g>
<g id="claves01">
<path id="Rectangle 4" d="M49 530H265.745L299 570L265.745 610H49V530Z" fill="#CD08D1" fill-opacity="0.1"/>
<path id="Rectangle 4 (Stroke)" fill-rule="evenodd" clip-rule="evenodd" d="M264.338 533H52V607H264.338L295.099 570L264.338 533ZM265.745 530H49V610H265.745L299 570L265.745 530Z" fill="#CD08D1"/>
<path id="Rectangle 5" d="M53 640H269.745L303 680L269.745 720H53V640Z" fill="#CD08D1" fill-opacity="0.1"/>
<path id="Rectangle 5 (Stroke)" fill-rule="evenodd" clip-rule="evenodd" d="M268.338 643H56V717H268.338L299.099 680L268.338 643ZM269.745 640H53V720H269.745L303 680L269.745 640Z" fill="#CD08D1"/>
<path id="Rectangle 6" d="M389 527H605.745L639 567L605.745 607H389V527Z" fill="#CD08D1" fill-opacity="0.1"/>
<path id="Rectangle 6 (Stroke)" fill-rule="evenodd" clip-rule="evenodd" d="M604.338 530H392V604H604.338L635.099 567L604.338 530ZM605.745 527H389V607H605.745L639 567L605.745 527Z" fill="#CD08D1"/>
<path id="Rectangle 7" d="M392 637H608.745L642 677L608.745 717H392V637Z" fill="#CD08D1" fill-opacity="0.1"/>
<path id="Rectangle 7 (Stroke)" fill-rule="evenodd" clip-rule="evenodd" d="M607.338 640H395V714H607.338L638.099 677L607.338 640ZM608.745 637H392V717H608.745L642 677L608.745 637Z" fill="#CD08D1"/>
<path id="Rectangle 8" d="M735 586H951.745L985 626L951.745 666H735V586Z" fill="#CD08D1" fill-opacity="0.1"/>
<path id="Rectangle 8 (Stroke)" fill-rule="evenodd" clip-rule="evenodd" d="M950.338 589H738V663H950.338L981.099 626L950.338 589ZM951.745 586H735V666H951.745L985 626L951.745 586Z" fill="#CD08D1"/>
<path id="Ellipse 1" d="M90 570C90 592.091 72.0914 610 50 610C27.9086 610 10 592.091 10 570C10 547.909 27.9086 530 50 530C72.0914 530 90 547.909 90 570Z" fill="#CD08D1"/>
<path id="Ellipse 2" d="M94 680C94 702.091 76.0914 720 54 720C31.9086 720 14 702.091 14 680C14 657.909 31.9086 640 54 640C76.0914 640 94 657.909 94 680Z" fill="#CD08D1"/>
<path id="Ellipse 3" d="M430 567C430 589.091 412.091 607 390 607C367.909 607 350 589.091 350 567C350 544.909 367.909 527 390 527C412.091 527 430 544.909 430 567Z" fill="#CD08D1"/>
<path id="Ellipse 4" d="M433 677C433 699.091 415.091 717 393 717C370.909 717 353 699.091 353 677C353 654.909 370.909 637 393 637C415.091 637 433 654.909 433 677Z" fill="#CD08D1"/>
<path id="Ellipse 5" d="M776 626C776 648.091 758.091 666 736 666C713.909 666 696 648.091 696 626C696 603.909 713.909 586 736 586C758.091 586 776 603.909 776 626Z" fill="#CD08D1"/>
<path id="A" d="M58.0938 580.406H40.4688L36.7812 591H28.5625L45.75 545.5H52.8438L70.0625 591H61.8125L58.0938 580.406ZM42.6875 574.031H55.875L49.2812 555.156L42.6875 574.031Z" fill="white"/>
<path id="B" d="M37.625 696V650.5H53.2188C58.3646 650.5 62.2812 651.531 64.9688 653.594C67.6562 655.656 69 658.729 69 662.812C69 664.896 68.4375 666.771 67.3125 668.438C66.1875 670.104 64.5417 671.396 62.375 672.312C64.8333 672.979 66.7292 674.24 68.0625 676.094C69.4167 677.927 70.0938 680.135 70.0938 682.719C70.0938 686.99 68.7188 690.271 65.9688 692.562C63.2396 694.854 59.3229 696 54.2188 696H37.625ZM45.5312 675.469V689.688H54.3125C56.7917 689.688 58.7292 689.073 60.125 687.844C61.5208 686.615 62.2188 684.906 62.2188 682.719C62.2188 677.99 59.8021 675.573 54.9688 675.469H45.5312ZM45.5312 669.656H53.2812C55.7396 669.656 57.6562 669.104 59.0312 668C60.4271 666.875 61.125 665.292 61.125 663.25C61.125 661 60.4792 659.375 59.1875 658.375C57.9167 657.375 55.9271 656.875 53.2188 656.875H45.5312V669.656Z" fill="white"/>
<path id="C" d="M407.344 574.188C406.885 579.042 405.094 582.833 401.969 585.562C398.844 588.271 394.688 589.625 389.5 589.625C385.875 589.625 382.677 588.771 379.906 587.062C377.156 585.333 375.031 582.885 373.531 579.719C372.031 576.552 371.25 572.875 371.188 568.688V564.438C371.188 560.146 371.948 556.365 373.469 553.094C374.99 549.823 377.167 547.302 380 545.531C382.854 543.76 386.146 542.875 389.875 542.875C394.896 542.875 398.938 544.24 402 546.969C405.062 549.698 406.844 553.552 407.344 558.531H399.469C399.094 555.26 398.135 552.906 396.594 551.469C395.073 550.01 392.833 549.281 389.875 549.281C386.438 549.281 383.792 550.542 381.938 553.062C380.104 555.562 379.167 559.24 379.125 564.094V568.125C379.125 573.042 380 576.792 381.75 579.375C383.521 581.958 386.104 583.25 389.5 583.25C392.604 583.25 394.938 582.552 396.5 581.156C398.062 579.76 399.052 577.438 399.469 574.188H407.344Z" fill="white"/>
<path id="D" d="M375.625 699V653.5H389.062C393.083 653.5 396.646 654.396 399.75 656.188C402.875 657.979 405.292 660.521 407 663.812C408.708 667.104 409.562 670.875 409.562 675.125V677.406C409.562 681.719 408.698 685.51 406.969 688.781C405.26 692.052 402.812 694.573 399.625 696.344C396.458 698.115 392.823 699 388.719 699H375.625ZM383.531 659.875V692.688H388.688C392.833 692.688 396.01 691.396 398.219 688.812C400.448 686.208 401.583 682.479 401.625 677.625V675.094C401.625 670.156 400.552 666.385 398.406 663.781C396.26 661.177 393.146 659.875 389.062 659.875H383.531Z" fill="white"/>
<path id="E" d="M745.219 627.688H726.531V641.688H748.375V648H718.625V602.5H748.156V608.875H726.531V621.438H745.219V627.688Z" fill="white"/>
<g id="flecha">
<path id="Rectangle 2" d="M396.2 529.008L411.482 537.133L369.5 616.089L354.219 607.963L396.2 529.008Z" fill="#1043F5"/>
<path id="Rectangle 1_2" d="M338 541.904L428 492V549.692L383 532.096L338 541.904Z" fill="#1043F5"/>
<path id="Rectangle 3" d="M342.039 611.21L357.666 584.143L374.936 583.565L359.309 610.632L342.039 611.21Z" fill="#1043F5"/>
<path id="Rectangle 4_2" d="M368.089 625.845L383.717 598.778L374.926 583.154L359.299 610.221L368.089 625.845Z" fill="#1043F5"/>
</g>
<g id="30">
<path d="M143.855 567.621H146.299C147.834 567.598 149.041 567.193 149.92 566.408C150.799 565.623 151.238 564.562 151.238 563.227C151.238 560.227 149.744 558.727 146.756 558.727C145.35 558.727 144.225 559.131 143.381 559.939C142.549 560.736 142.133 561.797 142.133 563.121H138.881C138.881 561.094 139.619 559.412 141.096 558.076C142.584 556.729 144.471 556.055 146.756 556.055C149.17 556.055 151.062 556.693 152.434 557.971C153.805 559.248 154.49 561.023 154.49 563.297C154.49 564.41 154.127 565.488 153.4 566.531C152.686 567.574 151.707 568.354 150.465 568.869C151.871 569.314 152.955 570.053 153.717 571.084C154.49 572.115 154.877 573.375 154.877 574.863C154.877 577.16 154.127 578.982 152.627 580.33C151.127 581.678 149.176 582.352 146.773 582.352C144.371 582.352 142.414 581.701 140.902 580.4C139.402 579.1 138.652 577.383 138.652 575.25H141.922C141.922 576.598 142.361 577.676 143.24 578.484C144.119 579.293 145.297 579.697 146.773 579.697C148.344 579.697 149.545 579.287 150.377 578.467C151.209 577.646 151.625 576.469 151.625 574.934C151.625 573.445 151.168 572.303 150.254 571.506C149.34 570.709 148.021 570.299 146.299 570.275H143.855V567.621Z" fill="#CD08D1"/>
<path d="M175.391 571.084C175.391 574.893 174.74 577.723 173.439 579.574C172.139 581.426 170.105 582.352 167.34 582.352C164.609 582.352 162.588 581.449 161.275 579.645C159.963 577.828 159.283 575.121 159.236 571.523V567.182C159.236 563.42 159.887 560.625 161.188 558.797C162.488 556.969 164.527 556.055 167.305 556.055C170.059 556.055 172.086 556.939 173.387 558.709C174.688 560.467 175.355 563.186 175.391 566.865V571.084ZM172.139 566.637C172.139 563.883 171.752 561.879 170.979 560.625C170.205 559.359 168.98 558.727 167.305 558.727C165.641 558.727 164.428 559.354 163.666 560.607C162.904 561.861 162.512 563.789 162.488 566.391V571.594C162.488 574.359 162.887 576.404 163.684 577.729C164.492 579.041 165.711 579.697 167.34 579.697C168.945 579.697 170.135 579.076 170.908 577.834C171.693 576.592 172.104 574.635 172.139 571.963V566.637Z" fill="#CD08D1"/>
</g>
<g id="40">
<path d="M848.855 631.404H852.406V634.059H848.855V640H845.586V634.059H833.932V632.143L845.393 614.406H848.855V631.404ZM837.623 631.404H845.586V618.854L845.199 619.557L837.623 631.404Z" fill="#CD08D1"/>
<path d="M871.391 629.084C871.391 632.893 870.74 635.723 869.439 637.574C868.139 639.426 866.105 640.352 863.34 640.352C860.609 640.352 858.588 639.449 857.275 637.645C855.963 635.828 855.283 633.121 855.236 629.523V625.182C855.236 621.42 855.887 618.625 857.188 616.797C858.488 614.969 860.527 614.055 863.305 614.055C866.059 614.055 868.086 614.939 869.387 616.709C870.688 618.467 871.355 621.186 871.391 624.865V629.084ZM868.139 624.637C868.139 621.883 867.752 619.879 866.979 618.625C866.205 617.359 864.98 616.727 863.305 616.727C861.641 616.727 860.428 617.354 859.666 618.607C858.904 619.861 858.512 621.789 858.488 624.391V629.594C858.488 632.359 858.887 634.404 859.684 635.729C860.492 637.041 861.711 637.697 863.34 637.697C864.945 637.697 866.135 637.076 866.908 635.834C867.693 634.592 868.104 632.635 868.139 629.963V624.637Z" fill="#CD08D1"/>
</g>
<g id="36">
<path d="M498.855 673.621H501.299C502.834 673.598 504.041 673.193 504.92 672.408C505.799 671.623 506.238 670.562 506.238 669.227C506.238 666.227 504.744 664.727 501.756 664.727C500.35 664.727 499.225 665.131 498.381 665.939C497.549 666.736 497.133 667.797 497.133 669.121H493.881C493.881 667.094 494.619 665.412 496.096 664.076C497.584 662.729 499.471 662.055 501.756 662.055C504.17 662.055 506.062 662.693 507.434 663.971C508.805 665.248 509.49 667.023 509.49 669.297C509.49 670.41 509.127 671.488 508.4 672.531C507.686 673.574 506.707 674.354 505.465 674.869C506.871 675.314 507.955 676.053 508.717 677.084C509.49 678.115 509.877 679.375 509.877 680.863C509.877 683.16 509.127 684.982 507.627 686.33C506.127 687.678 504.176 688.352 501.773 688.352C499.371 688.352 497.414 687.701 495.902 686.4C494.402 685.1 493.652 683.383 493.652 681.25H496.922C496.922 682.598 497.361 683.676 498.24 684.484C499.119 685.293 500.297 685.697 501.773 685.697C503.344 685.697 504.545 685.287 505.377 684.467C506.209 683.646 506.625 682.469 506.625 680.934C506.625 679.445 506.168 678.303 505.254 677.506C504.34 676.709 503.021 676.299 501.299 676.275H498.855V673.621Z" fill="#CD08D1"/>
<path d="M527.104 662.389V665.148H526.506C523.975 665.195 521.959 665.945 520.459 667.398C518.959 668.852 518.092 670.896 517.857 673.533C519.205 671.986 521.045 671.213 523.377 671.213C525.604 671.213 527.379 671.998 528.703 673.568C530.039 675.139 530.707 677.166 530.707 679.65C530.707 682.287 529.986 684.396 528.545 685.979C527.115 687.561 525.193 688.352 522.779 688.352C520.33 688.352 518.344 687.414 516.82 685.539C515.297 683.652 514.535 681.227 514.535 678.262V677.014C514.535 672.303 515.537 668.705 517.541 666.221C519.557 663.725 522.551 662.447 526.523 662.389H527.104ZM522.832 673.92C521.719 673.92 520.693 674.254 519.756 674.922C518.818 675.59 518.168 676.428 517.805 677.436V678.631C517.805 680.74 518.279 682.439 519.229 683.729C520.178 685.018 521.361 685.662 522.779 685.662C524.244 685.662 525.393 685.123 526.225 684.045C527.068 682.967 527.49 681.555 527.49 679.809C527.49 678.051 527.062 676.633 526.207 675.555C525.363 674.465 524.238 673.92 522.832 673.92Z" fill="#CD08D1"/>
</g>
<g id="34">
<path d="M498.855 568.621H501.299C502.834 568.598 504.041 568.193 504.92 567.408C505.799 566.623 506.238 565.562 506.238 564.227C506.238 561.227 504.744 559.727 501.756 559.727C500.35 559.727 499.225 560.131 498.381 560.939C497.549 561.736 497.133 562.797 497.133 564.121H493.881C493.881 562.094 494.619 560.412 496.096 559.076C497.584 557.729 499.471 557.055 501.756 557.055C504.17 557.055 506.062 557.693 507.434 558.971C508.805 560.248 509.49 562.023 509.49 564.297C509.49 565.41 509.127 566.488 508.4 567.531C507.686 568.574 506.707 569.354 505.465 569.869C506.871 570.314 507.955 571.053 508.717 572.084C509.49 573.115 509.877 574.375 509.877 575.863C509.877 578.16 509.127 579.982 507.627 581.33C506.127 582.678 504.176 583.352 501.773 583.352C499.371 583.352 497.414 582.701 495.902 581.4C494.402 580.1 493.652 578.383 493.652 576.25H496.922C496.922 577.598 497.361 578.676 498.24 579.484C499.119 580.293 500.297 580.697 501.773 580.697C503.344 580.697 504.545 580.287 505.377 579.467C506.209 578.646 506.625 577.469 506.625 575.934C506.625 574.445 506.168 573.303 505.254 572.506C504.34 571.709 503.021 571.299 501.299 571.275H498.855V568.621Z" fill="#CD08D1"/>
<path d="M528.07 574.404H531.621V577.059H528.07V583H524.801V577.059H513.146V575.143L524.607 557.406H528.07V574.404ZM516.838 574.404H524.801V561.854L524.414 562.557L516.838 574.404Z" fill="#CD08D1"/>
</g>
<g id="31">
<path d="M140.855 681.621H143.299C144.834 681.598 146.041 681.193 146.92 680.408C147.799 679.623 148.238 678.562 148.238 677.227C148.238 674.227 146.744 672.727 143.756 672.727C142.35 672.727 141.225 673.131 140.381 673.939C139.549 674.736 139.133 675.797 139.133 677.121H135.881C135.881 675.094 136.619 673.412 138.096 672.076C139.584 670.729 141.471 670.055 143.756 670.055C146.17 670.055 148.062 670.693 149.434 671.971C150.805 673.248 151.49 675.023 151.49 677.297C151.49 678.41 151.127 679.488 150.4 680.531C149.686 681.574 148.707 682.354 147.465 682.869C148.871 683.314 149.955 684.053 150.717 685.084C151.49 686.115 151.877 687.375 151.877 688.863C151.877 691.16 151.127 692.982 149.627 694.33C148.127 695.678 146.176 696.352 143.773 696.352C141.371 696.352 139.414 695.701 137.902 694.4C136.402 693.1 135.652 691.383 135.652 689.25H138.922C138.922 690.598 139.361 691.676 140.24 692.484C141.119 693.293 142.297 693.697 143.773 693.697C145.344 693.697 146.545 693.287 147.377 692.467C148.209 691.646 148.625 690.469 148.625 688.934C148.625 687.445 148.168 686.303 147.254 685.506C146.34 684.709 145.021 684.299 143.299 684.275H140.855V681.621Z" fill="#CD08D1"/>
<path d="M167.029 696H163.76V674.326L157.203 676.734V673.781L166.52 670.283H167.029V696Z" fill="#CD08D1"/>
</g>
</g>
<g id="Se define: Calcule el valor de">
<path d="M100.512 73.5918C97.6172 72.7598 95.5078 71.7402 94.1836 70.5332C92.8711 69.3145 92.2148 67.8145 92.2148 66.0332C92.2148 64.0176 93.0176 62.3535 94.623 61.041C96.2402 59.7168 98.3379 59.0547 100.916 59.0547C102.674 59.0547 104.238 59.3945 105.609 60.0742C106.992 60.7539 108.059 61.6914 108.809 62.8867C109.57 64.082 109.951 65.3887 109.951 66.8066H106.559C106.559 65.2598 106.066 64.0469 105.082 63.168C104.098 62.2773 102.709 61.832 100.916 61.832C99.252 61.832 97.9512 62.2012 97.0137 62.9395C96.0879 63.666 95.625 64.6797 95.625 65.9805C95.625 67.0234 96.0645 67.9082 96.9434 68.6348C97.834 69.3496 99.3398 70.0059 101.461 70.6035C103.594 71.2012 105.258 71.8633 106.453 72.5898C107.66 73.3047 108.551 74.1426 109.125 75.1035C109.711 76.0645 110.004 77.1953 110.004 78.4961C110.004 80.5703 109.195 82.2344 107.578 83.4883C105.961 84.7305 103.799 85.3516 101.092 85.3516C99.334 85.3516 97.6934 85.0176 96.1699 84.3496C94.6465 83.6699 93.4688 82.7441 92.6367 81.5723C91.8164 80.4004 91.4062 79.0703 91.4062 77.582H94.7988C94.7988 79.1289 95.3672 80.3535 96.5039 81.2559C97.6523 82.1465 99.1816 82.5918 101.092 82.5918C102.873 82.5918 104.238 82.2285 105.188 81.502C106.137 80.7754 106.611 79.7852 106.611 78.5312C106.611 77.2773 106.172 76.3105 105.293 75.6309C104.414 74.9395 102.82 74.2598 100.512 73.5918Z" fill="white"/>
<path d="M121.729 85.3516C119.15 85.3516 117.053 84.5078 115.436 82.8203C113.818 81.1211 113.01 78.8535 113.01 76.0176V75.4199C113.01 73.5332 113.367 71.8516 114.082 70.375C114.809 68.8867 115.816 67.7266 117.105 66.8945C118.406 66.0508 119.812 65.6289 121.324 65.6289C123.797 65.6289 125.719 66.4434 127.09 68.0723C128.461 69.7012 129.146 72.0332 129.146 75.0684V76.4219H116.262C116.309 78.2969 116.854 79.8145 117.896 80.9746C118.951 82.123 120.287 82.6973 121.904 82.6973C123.053 82.6973 124.025 82.4629 124.822 81.9941C125.619 81.5254 126.316 80.9043 126.914 80.1309L128.9 81.6777C127.307 84.127 124.916 85.3516 121.729 85.3516ZM121.324 68.3008C120.012 68.3008 118.91 68.7812 118.02 69.7422C117.129 70.6914 116.578 72.0273 116.367 73.75H125.895V73.5039C125.801 71.8516 125.355 70.5742 124.559 69.6719C123.762 68.7578 122.684 68.3008 121.324 68.3008Z" fill="white"/>
<path d="M141.064 75.332C141.064 72.4141 141.756 70.0703 143.139 68.3008C144.521 66.5195 146.332 65.6289 148.57 65.6289C150.797 65.6289 152.561 66.3906 153.861 67.9141V58H157.113V85H154.125L153.967 82.9609C152.666 84.5547 150.855 85.3516 148.535 85.3516C146.332 85.3516 144.533 84.4492 143.139 82.6445C141.756 80.8398 141.064 78.4844 141.064 75.5781V75.332ZM144.316 75.7012C144.316 77.8574 144.762 79.5449 145.652 80.7637C146.543 81.9824 147.773 82.5918 149.344 82.5918C151.406 82.5918 152.912 81.666 153.861 79.8145V71.0781C152.889 69.2852 151.395 68.3887 149.379 68.3887C147.785 68.3887 146.543 69.0039 145.652 70.2344C144.762 71.4648 144.316 73.2871 144.316 75.7012Z" fill="white"/>
<path d="M170.068 85.3516C167.49 85.3516 165.393 84.5078 163.775 82.8203C162.158 81.1211 161.35 78.8535 161.35 76.0176V75.4199C161.35 73.5332 161.707 71.8516 162.422 70.375C163.148 68.8867 164.156 67.7266 165.445 66.8945C166.746 66.0508 168.152 65.6289 169.664 65.6289C172.137 65.6289 174.059 66.4434 175.43 68.0723C176.801 69.7012 177.486 72.0332 177.486 75.0684V76.4219H164.602C164.648 78.2969 165.193 79.8145 166.236 80.9746C167.291 82.123 168.627 82.6973 170.244 82.6973C171.393 82.6973 172.365 82.4629 173.162 81.9941C173.959 81.5254 174.656 80.9043 175.254 80.1309L177.24 81.6777C175.646 84.127 173.256 85.3516 170.068 85.3516ZM169.664 68.3008C168.352 68.3008 167.25 68.7812 166.359 69.7422C165.469 70.6914 164.918 72.0273 164.707 73.75H174.234V73.5039C174.141 71.8516 173.695 70.5742 172.898 69.6719C172.102 68.7578 171.023 68.3008 169.664 68.3008Z" fill="white"/>
<path d="M182.355 85V68.4941H179.35V65.9805H182.355V64.3633C182.355 62.2422 182.959 60.5898 184.166 59.4062C185.385 58.2227 187.102 57.6309 189.316 57.6309C190.629 57.6309 192.287 57.9883 194.291 58.7031L193.746 61.4453C192.281 60.8594 190.887 60.5664 189.562 60.5664C188.168 60.5664 187.16 60.8828 186.539 61.5156C185.93 62.1367 185.625 63.0742 185.625 64.3281V65.9805H189.51V68.4941H185.625V85H182.355ZM195.908 85H192.639V65.9805H195.908V85Z" fill="white"/>
<path d="M204.275 65.9805L204.381 68.3711C205.834 66.543 207.732 65.6289 210.076 65.6289C214.096 65.6289 216.123 67.8965 216.158 72.4316V85H212.906V72.4141C212.895 71.043 212.578 70.0293 211.957 69.373C211.348 68.7168 210.393 68.3887 209.092 68.3887C208.037 68.3887 207.111 68.6699 206.314 69.2324C205.518 69.7949 204.896 70.5332 204.451 71.4473V85H201.199V65.9805H204.275Z" fill="white"/>
<path d="M228.955 85.3516C226.377 85.3516 224.279 84.5078 222.662 82.8203C221.045 81.1211 220.236 78.8535 220.236 76.0176V75.4199C220.236 73.5332 220.594 71.8516 221.309 70.375C222.035 68.8867 223.043 67.7266 224.332 66.8945C225.633 66.0508 227.039 65.6289 228.551 65.6289C231.023 65.6289 232.945 66.4434 234.316 68.0723C235.688 69.7012 236.373 72.0332 236.373 75.0684V76.4219H223.488C223.535 78.2969 224.08 79.8145 225.123 80.9746C226.178 82.123 227.514 82.6973 229.131 82.6973C230.279 82.6973 231.252 82.4629 232.049 81.9941C232.846 81.5254 233.543 80.9043 234.141 80.1309L236.127 81.6777C234.533 84.127 232.143 85.3516 228.955 85.3516ZM228.551 68.3008C227.238 68.3008 226.137 68.7812 225.246 69.7422C224.355 70.6914 223.805 72.0273 223.594 73.75H233.121V73.5039C233.027 71.8516 232.582 70.5742 231.785 69.6719C230.988 68.7578 229.91 68.3008 228.551 68.3008Z" fill="white"/>
<path d="M240.047 83.2949C240.047 82.7324 240.211 82.2637 240.539 81.8887C240.879 81.5137 241.383 81.3262 242.051 81.3262C242.719 81.3262 243.223 81.5137 243.562 81.8887C243.914 82.2637 244.09 82.7324 244.09 83.2949C244.09 83.834 243.914 84.2852 243.562 84.6484C243.223 85.0117 242.719 85.1934 242.051 85.1934C241.383 85.1934 240.879 85.0117 240.539 84.6484C240.211 84.2852 240.047 83.834 240.047 83.2949ZM240.064 67.7734C240.064 67.2109 240.229 66.7422 240.557 66.3672C240.896 65.9922 241.4 65.8047 242.068 65.8047C242.736 65.8047 243.24 65.9922 243.58 66.3672C243.932 66.7422 244.107 67.2109 244.107 67.7734C244.107 68.3125 243.932 68.7637 243.58 69.127C243.24 69.4902 242.736 69.6719 242.068 69.6719C241.4 69.6719 240.896 69.4902 240.557 69.127C240.229 68.7637 240.064 68.3125 240.064 67.7734Z" fill="white"/>
<path d="M111.797 370.879C111.48 373.586 110.479 375.678 108.791 377.154C107.115 378.619 104.883 379.352 102.094 379.352C99.0703 379.352 96.6445 378.268 94.8164 376.1C93 373.932 92.0918 371.031 92.0918 367.398V364.938C92.0918 362.559 92.5137 360.467 93.3574 358.662C94.2129 356.857 95.4199 355.475 96.9785 354.514C98.5371 353.541 100.342 353.055 102.393 353.055C105.111 353.055 107.291 353.816 108.932 355.34C110.572 356.852 111.527 358.949 111.797 361.633H108.404C108.111 359.594 107.473 358.117 106.488 357.203C105.516 356.289 104.15 355.832 102.393 355.832C100.236 355.832 98.543 356.629 97.3125 358.223C96.0938 359.816 95.4844 362.084 95.4844 365.025V367.504C95.4844 370.281 96.0645 372.49 97.2246 374.131C98.3848 375.771 100.008 376.592 102.094 376.592C103.969 376.592 105.404 376.17 106.4 375.326C107.408 374.471 108.076 372.988 108.404 370.879H111.797Z" fill="white"/>
<path d="M127.652 379C127.465 378.625 127.312 377.957 127.195 376.996C125.684 378.566 123.879 379.352 121.781 379.352C119.906 379.352 118.365 378.824 117.158 377.77C115.963 376.703 115.365 375.355 115.365 373.727C115.365 371.746 116.115 370.211 117.615 369.121C119.127 368.02 121.248 367.469 123.979 367.469H127.143V365.975C127.143 364.838 126.803 363.936 126.123 363.268C125.443 362.588 124.441 362.248 123.117 362.248C121.957 362.248 120.984 362.541 120.199 363.127C119.414 363.713 119.021 364.422 119.021 365.254H115.752C115.752 364.305 116.086 363.391 116.754 362.512C117.434 361.621 118.348 360.918 119.496 360.402C120.656 359.887 121.928 359.629 123.311 359.629C125.502 359.629 127.219 360.18 128.461 361.281C129.703 362.371 130.348 363.877 130.395 365.799V374.553C130.395 376.299 130.617 377.688 131.062 378.719V379H127.652ZM122.256 376.521C123.275 376.521 124.242 376.258 125.156 375.73C126.07 375.203 126.732 374.518 127.143 373.674V369.771H124.594C120.609 369.771 118.617 370.938 118.617 373.27C118.617 374.289 118.957 375.086 119.637 375.66C120.316 376.234 121.189 376.521 122.256 376.521Z" fill="white"/>
<path d="M139.025 379H135.773V352H139.025V379Z" fill="white"/>
<path d="M151.875 376.697C153.035 376.697 154.049 376.346 154.916 375.643C155.783 374.939 156.264 374.061 156.357 373.006H159.434C159.375 374.096 159 375.133 158.309 376.117C157.617 377.102 156.691 377.887 155.531 378.473C154.383 379.059 153.164 379.352 151.875 379.352C149.285 379.352 147.223 378.49 145.688 376.768C144.164 375.033 143.402 372.666 143.402 369.666V369.121C143.402 367.27 143.742 365.623 144.422 364.182C145.102 362.74 146.074 361.621 147.34 360.824C148.617 360.027 150.123 359.629 151.857 359.629C153.99 359.629 155.76 360.268 157.166 361.545C158.584 362.822 159.34 364.48 159.434 366.52H156.357C156.264 365.289 155.795 364.281 154.951 363.496C154.119 362.699 153.088 362.301 151.857 362.301C150.205 362.301 148.922 362.898 148.008 364.094C147.105 365.277 146.654 366.994 146.654 369.244V369.859C146.654 372.051 147.105 373.738 148.008 374.922C148.91 376.105 150.199 376.697 151.875 376.697Z" fill="white"/>
<path d="M174.832 377.119C173.566 378.607 171.709 379.352 169.26 379.352C167.232 379.352 165.686 378.766 164.619 377.594C163.564 376.41 163.031 374.664 163.02 372.355V359.98H166.271V372.268C166.271 375.15 167.443 376.592 169.787 376.592C172.271 376.592 173.924 375.666 174.744 373.814V359.98H177.996V379H174.902L174.832 377.119Z" fill="white"/>
<path d="M186.486 379H183.234V352H186.486V379Z" fill="white"/>
<path d="M199.6 379.352C197.021 379.352 194.924 378.508 193.307 376.82C191.689 375.121 190.881 372.854 190.881 370.018V369.42C190.881 367.533 191.238 365.852 191.953 364.375C192.68 362.887 193.688 361.727 194.977 360.895C196.277 360.051 197.684 359.629 199.195 359.629C201.668 359.629 203.59 360.443 204.961 362.072C206.332 363.701 207.018 366.033 207.018 369.068V370.422H194.133C194.18 372.297 194.725 373.814 195.768 374.975C196.822 376.123 198.158 376.697 199.775 376.697C200.924 376.697 201.896 376.463 202.693 375.994C203.49 375.525 204.188 374.904 204.785 374.131L206.771 375.678C205.178 378.127 202.787 379.352 199.6 379.352ZM199.195 362.301C197.883 362.301 196.781 362.781 195.891 363.742C195 364.691 194.449 366.027 194.238 367.75H203.766V367.504C203.672 365.852 203.227 364.574 202.43 363.672C201.633 362.758 200.555 362.301 199.195 362.301Z" fill="white"/>
<path d="M227.619 379.352C225.041 379.352 222.943 378.508 221.326 376.82C219.709 375.121 218.9 372.854 218.9 370.018V369.42C218.9 367.533 219.258 365.852 219.973 364.375C220.699 362.887 221.707 361.727 222.996 360.895C224.297 360.051 225.703 359.629 227.215 359.629C229.688 359.629 231.609 360.443 232.98 362.072C234.352 363.701 235.037 366.033 235.037 369.068V370.422H222.152C222.199 372.297 222.744 373.814 223.787 374.975C224.842 376.123 226.178 376.697 227.795 376.697C228.943 376.697 229.916 376.463 230.713 375.994C231.51 375.525 232.207 374.904 232.805 374.131L234.791 375.678C233.197 378.127 230.807 379.352 227.619 379.352ZM227.215 362.301C225.902 362.301 224.801 362.781 223.91 363.742C223.02 364.691 222.469 366.027 222.258 367.75H231.785V367.504C231.691 365.852 231.246 364.574 230.449 363.672C229.652 362.758 228.574 362.301 227.215 362.301Z" fill="white"/>
<path d="M242.35 379H239.098V352H242.35V379Z" fill="white"/>
<path d="M262.775 374.588L267.486 359.98H270.809L263.988 379H261.51L254.619 359.98H257.941L262.775 374.588Z" fill="white"/>
<path d="M285.398 379C285.211 378.625 285.059 377.957 284.941 376.996C283.43 378.566 281.625 379.352 279.527 379.352C277.652 379.352 276.111 378.824 274.904 377.77C273.709 376.703 273.111 375.355 273.111 373.727C273.111 371.746 273.861 370.211 275.361 369.121C276.873 368.02 278.994 367.469 281.725 367.469H284.889V365.975C284.889 364.838 284.549 363.936 283.869 363.268C283.189 362.588 282.188 362.248 280.863 362.248C279.703 362.248 278.73 362.541 277.945 363.127C277.16 363.713 276.768 364.422 276.768 365.254H273.498C273.498 364.305 273.832 363.391 274.5 362.512C275.18 361.621 276.094 360.918 277.242 360.402C278.402 359.887 279.674 359.629 281.057 359.629C283.248 359.629 284.965 360.18 286.207 361.281C287.449 362.371 288.094 363.877 288.141 365.799V374.553C288.141 376.299 288.363 377.688 288.809 378.719V379H285.398ZM280.002 376.521C281.021 376.521 281.988 376.258 282.902 375.73C283.816 375.203 284.479 374.518 284.889 373.674V369.771H282.34C278.355 369.771 276.363 370.938 276.363 373.27C276.363 374.289 276.703 375.086 277.383 375.66C278.062 376.234 278.936 376.521 280.002 376.521Z" fill="white"/>
<path d="M296.771 379H293.52V352H296.771V379Z" fill="white"/>
<path d="M301.131 369.314C301.131 367.451 301.494 365.775 302.221 364.287C302.959 362.799 303.979 361.65 305.279 360.842C306.592 360.033 308.086 359.629 309.762 359.629C312.352 359.629 314.443 360.525 316.037 362.318C317.643 364.111 318.445 366.496 318.445 369.473V369.701C318.445 371.553 318.088 373.217 317.373 374.693C316.67 376.158 315.656 377.301 314.332 378.121C313.02 378.941 311.508 379.352 309.797 379.352C307.219 379.352 305.127 378.455 303.521 376.662C301.928 374.869 301.131 372.496 301.131 369.543V369.314ZM304.4 369.701C304.4 371.811 304.887 373.504 305.859 374.781C306.844 376.059 308.156 376.697 309.797 376.697C311.449 376.697 312.762 376.053 313.734 374.764C314.707 373.463 315.193 371.646 315.193 369.314C315.193 367.229 314.695 365.541 313.699 364.252C312.715 362.951 311.402 362.301 309.762 362.301C308.156 362.301 306.861 362.939 305.877 364.217C304.893 365.494 304.4 367.322 304.4 369.701Z" fill="white"/>
<path d="M331.717 362.898C331.225 362.816 330.691 362.775 330.117 362.775C327.984 362.775 326.537 363.684 325.775 365.5V379H322.523V359.98H325.688L325.74 362.178C326.807 360.479 328.318 359.629 330.275 359.629C330.908 359.629 331.389 359.711 331.717 359.875V362.898Z" fill="white"/>
<path d="M342.861 369.332C342.861 366.414 343.553 364.07 344.936 362.301C346.318 360.52 348.129 359.629 350.367 359.629C352.594 359.629 354.357 360.391 355.658 361.914V352H358.91V379H355.922L355.764 376.961C354.463 378.555 352.652 379.352 350.332 379.352C348.129 379.352 346.33 378.449 344.936 376.645C343.553 374.84 342.861 372.484 342.861 369.578V369.332ZM346.113 369.701C346.113 371.857 346.559 373.545 347.449 374.764C348.34 375.982 349.57 376.592 351.141 376.592C353.203 376.592 354.709 375.666 355.658 373.814V365.078C354.686 363.285 353.191 362.389 351.176 362.389C349.582 362.389 348.34 363.004 347.449 364.234C346.559 365.465 346.113 367.287 346.113 369.701Z" fill="white"/>
<path d="M371.865 379.352C369.287 379.352 367.189 378.508 365.572 376.82C363.955 375.121 363.146 372.854 363.146 370.018V369.42C363.146 367.533 363.504 365.852 364.219 364.375C364.945 362.887 365.953 361.727 367.242 360.895C368.543 360.051 369.949 359.629 371.461 359.629C373.934 359.629 375.855 360.443 377.227 362.072C378.598 363.701 379.283 366.033 379.283 369.068V370.422H366.398C366.445 372.297 366.99 373.814 368.033 374.975C369.088 376.123 370.424 376.697 372.041 376.697C373.189 376.697 374.162 376.463 374.959 375.994C375.756 375.525 376.453 374.904 377.051 374.131L379.037 375.678C377.443 378.127 375.053 379.352 371.865 379.352ZM371.461 362.301C370.148 362.301 369.047 362.781 368.156 363.742C367.266 364.691 366.715 366.027 366.504 367.75H376.031V367.504C375.938 365.852 375.492 364.574 374.695 363.672C373.898 362.758 372.82 362.301 371.461 362.301Z" fill="white"/>
</g>
<g id="a\:\bigtriangledown\;b=2(b\:\bigtriangledown\:a)-a\;\;&#10;5\;\bigtriangledown\;\;\;\;\;x\;\;\;\;=\frac{16x+33}{3}\;\;&#10;E=\;\;8\;\;+\;\;7">
<g id="Group">
<g id="Group 435">
<g id="Group_2">
<path id="Vector" d="M126 139.463C126 137.164 126.865 134.979 128.595 132.907C130.325 130.836 132.272 129.789 134.434 129.766C135.595 129.766 136.62 130.324 137.507 131.439C137.872 130.756 138.395 130.415 139.078 130.415C139.374 130.415 139.636 130.506 139.863 130.688C140.091 130.87 140.205 131.098 140.205 131.371C140.205 131.667 139.784 133.488 138.941 136.834C138.099 140.18 137.667 142.07 137.644 142.502C137.644 143.072 137.724 143.447 137.883 143.629C138.042 143.811 138.281 143.914 138.6 143.937C138.805 143.914 139.033 143.811 139.283 143.629C139.761 143.174 140.228 142.081 140.683 140.351C140.82 139.896 140.933 139.657 141.024 139.634C141.07 139.611 141.184 139.6 141.366 139.6H141.502C141.935 139.6 142.151 139.702 142.151 139.907C142.151 140.044 142.094 140.351 141.98 140.829C141.867 141.307 141.639 141.922 141.298 142.673C140.956 143.424 140.592 143.994 140.205 144.38C139.909 144.676 139.545 144.915 139.112 145.098C138.93 145.143 138.657 145.166 138.293 145.166C137.519 145.166 136.87 144.995 136.346 144.654C135.823 144.312 135.481 143.959 135.322 143.595L135.117 143.083C135.094 143.06 135.049 143.072 134.98 143.117C134.935 143.163 134.889 143.208 134.844 143.254C133.501 144.528 132.135 145.166 130.746 145.166C129.494 145.166 128.39 144.711 127.434 143.8C126.478 142.889 126 141.444 126 139.463ZM136.859 133.624C136.859 133.488 136.802 133.237 136.688 132.873C136.574 132.509 136.312 132.111 135.902 131.678C135.493 131.246 134.969 131.018 134.332 130.995C133.535 130.995 132.772 131.348 132.044 132.054C131.315 132.759 130.746 133.681 130.337 134.82C129.676 136.618 129.21 138.485 128.937 140.42C128.937 140.488 128.937 140.613 128.937 140.795C128.937 140.977 128.925 141.114 128.902 141.205C128.902 142.229 129.107 142.935 129.517 143.322C129.927 143.709 130.416 143.914 130.985 143.937C131.85 143.937 132.704 143.561 133.546 142.81C134.389 142.059 134.889 141.478 135.049 141.068C135.094 140.977 135.402 139.759 135.971 137.415C136.54 135.07 136.836 133.807 136.859 133.624Z" fill="white"/>
</g>
<g id="Group_3">
<path id="Vector_2" d="M160.126 128.434C160.126 128.32 160.149 128.218 160.195 128.127C160.24 128.036 160.297 127.967 160.365 127.922C160.434 127.876 160.502 127.842 160.57 127.82L160.673 127.751H185.907C186.226 127.911 186.385 128.138 186.385 128.434V128.639L180.102 140.317C175.868 148.102 173.717 152.018 173.648 152.063C173.557 152.132 173.432 152.166 173.273 152.166C173.113 152.166 172.988 152.132 172.897 152.063C172.806 152.018 171.77 150.163 169.79 146.498C167.809 142.833 165.783 139.065 163.712 135.195C161.64 131.325 160.502 129.231 160.297 128.912C160.183 128.639 160.126 128.48 160.126 128.434ZM184.575 129.117H161.97C161.97 129.14 163.848 132.634 167.605 139.6C171.361 146.566 173.25 150.049 173.273 150.049C173.296 150.049 175.185 146.566 178.941 139.6C182.697 132.634 184.575 129.14 184.575 129.117Z" fill="white"/>
</g>
<g id="Group_4">
<path id="Vector_3" d="M208.033 122.732C208.033 122.504 208.078 122.242 208.169 121.946C208.26 121.65 208.397 121.502 208.579 121.502C208.602 121.502 209.421 121.446 211.037 121.332C212.654 121.218 213.485 121.15 213.53 121.127C213.803 121.127 213.94 121.229 213.94 121.434C213.94 121.639 213.553 123.267 212.779 126.317C212.597 127.091 212.403 127.888 212.198 128.707C211.994 129.527 211.823 130.141 211.686 130.551L211.55 131.2C211.55 131.268 211.618 131.234 211.755 131.098C212.87 130.187 214.02 129.732 215.203 129.732C216.615 129.732 217.753 130.255 218.618 131.302C219.483 132.35 219.927 133.67 219.95 135.263C219.95 137.79 219.05 140.078 217.252 142.127C215.454 144.176 213.519 145.2 211.447 145.2C210.309 145.2 209.273 144.767 208.34 143.902C207.407 143.037 206.929 141.637 206.906 139.702V139.395C206.906 138.917 206.997 138.257 207.179 137.415C207.361 136.572 207.919 134.33 208.852 130.688C209.99 126.203 210.559 123.824 210.559 123.551C210.559 123.278 210.127 123.119 209.262 123.073C209.148 123.073 209.057 123.073 208.989 123.073H208.818C208.59 123.073 208.442 123.073 208.374 123.073C208.306 123.073 208.226 123.039 208.135 122.971C208.044 122.902 208.01 122.823 208.033 122.732ZM217.013 133.727V133.522C217.013 131.837 216.319 130.995 214.93 130.995C214.543 130.995 214.145 131.086 213.735 131.268C213.325 131.45 212.95 131.689 212.608 131.985C212.267 132.281 211.971 132.554 211.72 132.805C211.47 133.055 211.265 133.306 211.106 133.556L210.901 133.829L210.184 136.766C209.683 138.724 209.433 140.112 209.433 140.932C209.433 142.024 209.706 142.844 210.252 143.39C210.616 143.754 211.072 143.937 211.618 143.937C212.369 143.937 213.132 143.572 213.906 142.844C214.475 142.32 214.93 141.683 215.272 140.932C215.613 140.181 215.989 138.985 216.398 137.346C216.808 135.707 217.013 134.501 217.013 133.727Z" fill="white"/>
</g>
<g id="Group_5">
<path id="Vector_4" d="M231.588 132.976C231.588 132.68 231.747 132.452 232.066 132.293H253.817C254.159 132.475 254.329 132.702 254.329 132.976C254.329 133.226 254.17 133.442 253.851 133.624L242.993 133.659H232.134C231.77 133.545 231.588 133.317 231.588 132.976ZM231.588 139.6C231.588 139.259 231.77 139.031 232.134 138.917H253.851C254.17 139.145 254.329 139.372 254.329 139.6C254.329 139.896 254.159 140.124 253.817 140.283H232.066C231.747 140.124 231.588 139.896 231.588 139.6Z" fill="white"/>
</g>
<g id="Group_6">
<path id="Vector_5" d="M269.449 130.176C268.834 130.176 268.345 129.971 267.98 129.561C267.616 129.151 267.434 128.65 267.434 128.059C267.434 126.442 268.037 125.042 269.244 123.859C270.45 122.675 271.953 122.083 273.751 122.083C275.823 122.083 277.553 122.72 278.941 123.995C280.33 125.27 281.036 126.92 281.058 128.946C281.058 129.925 280.831 130.859 280.376 131.746C279.92 132.634 279.374 133.408 278.737 134.068C278.099 134.728 277.189 135.571 276.005 136.595C275.185 137.301 274.047 138.348 272.59 139.737L270.576 141.649L273.171 141.683C276.745 141.683 278.645 141.626 278.873 141.512C279.032 141.467 279.306 140.454 279.693 138.473V138.371H281.058V138.473C281.036 138.541 280.888 139.577 280.615 141.58C280.341 143.584 280.171 144.631 280.102 144.722V144.824H267.434V144.176V143.766C267.434 143.606 267.502 143.436 267.639 143.254C267.776 143.072 268.117 142.673 268.663 142.059C269.324 141.33 269.893 140.693 270.371 140.146C270.576 139.919 270.963 139.498 271.532 138.883C272.101 138.268 272.488 137.847 272.693 137.619C272.897 137.392 273.228 137.016 273.683 136.493C274.138 135.969 274.457 135.582 274.639 135.332C274.821 135.081 275.083 134.74 275.424 134.307C275.766 133.875 276.005 133.511 276.141 133.215C276.278 132.919 276.449 132.589 276.654 132.224C276.858 131.86 277.006 131.496 277.097 131.132C277.189 130.767 277.268 130.426 277.337 130.107C277.405 129.789 277.439 129.413 277.439 128.98C277.439 127.546 277.052 126.306 276.278 125.259C275.504 124.211 274.4 123.688 272.966 123.688C272.215 123.688 271.554 123.881 270.985 124.268C270.416 124.655 270.018 125.031 269.79 125.395C269.563 125.759 269.449 125.976 269.449 126.044C269.449 126.067 269.506 126.078 269.619 126.078C270.029 126.078 270.45 126.237 270.883 126.556C271.315 126.875 271.532 127.398 271.532 128.127C271.532 128.696 271.35 129.174 270.985 129.561C270.621 129.948 270.109 130.153 269.449 130.176Z" fill="white"/>
</g>
<g id="Group_7">
<path id="Vector_6" d="M286.011 136.288C286.011 134.717 286.125 133.226 286.352 131.815C286.58 130.403 286.842 129.185 287.138 128.161C287.434 127.137 287.855 126.135 288.401 125.156C288.947 124.177 289.38 123.415 289.699 122.868C290.017 122.322 290.495 121.73 291.133 121.093C291.77 120.455 292.146 120.068 292.26 119.932C292.373 119.795 292.658 119.556 293.113 119.215H293.557H293.694C294.012 119.215 294.172 119.317 294.172 119.522C294.172 119.59 293.978 119.829 293.591 120.239C293.204 120.649 292.738 121.252 292.191 122.049C291.645 122.846 291.087 123.824 290.518 124.985C289.949 126.146 289.471 127.717 289.084 129.698C288.697 131.678 288.503 133.875 288.503 136.288C288.503 138.701 288.697 140.886 289.084 142.844C289.471 144.802 289.938 146.384 290.484 147.59C291.03 148.797 291.588 149.776 292.157 150.527C292.726 151.278 293.204 151.881 293.591 152.337C293.978 152.792 294.172 153.031 294.172 153.054C294.172 153.259 294.001 153.361 293.66 153.361H293.557H293.113L292.157 152.541C290.017 150.607 288.458 148.194 287.479 145.302C286.5 142.411 286.011 139.407 286.011 136.288Z" fill="white"/>
</g>
<g id="Group_8">
<path id="Vector_7" d="M298.576 122.732C298.576 122.504 298.622 122.242 298.713 121.946C298.804 121.65 298.94 121.502 299.122 121.502C299.145 121.502 299.965 121.446 301.581 121.332C303.197 121.218 304.028 121.15 304.074 121.127C304.347 121.127 304.483 121.229 304.483 121.434C304.483 121.639 304.096 123.267 303.322 126.317C303.14 127.091 302.947 127.888 302.742 128.707C302.537 129.527 302.366 130.141 302.23 130.551L302.093 131.2C302.093 131.268 302.161 131.234 302.298 131.098C303.413 130.187 304.563 129.732 305.747 129.732C307.158 129.732 308.296 130.255 309.161 131.302C310.026 132.35 310.47 133.67 310.493 135.263C310.493 137.79 309.594 140.078 307.796 142.127C305.997 144.176 304.062 145.2 301.991 145.2C300.852 145.2 299.817 144.767 298.883 143.902C297.95 143.037 297.472 141.637 297.449 139.702V139.395C297.449 138.917 297.54 138.257 297.722 137.415C297.905 136.572 298.462 134.33 299.396 130.688C300.534 126.203 301.103 123.824 301.103 123.551C301.103 123.278 300.67 123.119 299.805 123.073C299.691 123.073 299.6 123.073 299.532 123.073H299.361C299.134 123.073 298.986 123.073 298.918 123.073C298.849 123.073 298.77 123.039 298.678 122.971C298.587 122.902 298.553 122.823 298.576 122.732ZM307.557 133.727V133.522C307.557 131.837 306.862 130.995 305.474 130.995C305.087 130.995 304.688 131.086 304.278 131.268C303.869 131.45 303.493 131.689 303.152 131.985C302.81 132.281 302.514 132.554 302.264 132.805C302.013 133.055 301.809 133.306 301.649 133.556L301.444 133.829L300.727 136.766C300.226 138.724 299.976 140.112 299.976 140.932C299.976 142.024 300.249 142.844 300.796 143.39C301.16 143.754 301.615 143.937 302.161 143.937C302.913 143.937 303.675 143.572 304.449 142.844C305.018 142.32 305.474 141.683 305.815 140.932C306.157 140.181 306.532 138.985 306.942 137.346C307.352 135.707 307.557 134.501 307.557 133.727Z" fill="white"/>
</g>
<g id="Group_9">
<path id="Vector_8" d="M327.921 128.434C327.921 128.32 327.944 128.218 327.989 128.127C328.035 128.036 328.092 127.967 328.16 127.922C328.228 127.876 328.297 127.842 328.365 127.82L328.467 127.751H353.701C354.02 127.911 354.179 128.138 354.179 128.434V128.639L347.897 140.317C343.662 148.102 341.511 152.018 341.443 152.063C341.352 152.132 341.227 152.166 341.067 152.166C340.908 152.166 340.783 152.132 340.692 152.063C340.601 152.018 339.565 150.163 337.584 146.498C335.604 142.833 333.578 139.065 331.506 135.195C329.435 131.325 328.297 129.231 328.092 128.912C327.978 128.639 327.921 128.48 327.921 128.434ZM352.37 129.117H329.765C329.765 129.14 331.643 132.634 335.399 139.6C339.155 146.566 341.044 150.049 341.067 150.049C341.09 150.049 342.979 146.566 346.736 139.6C350.492 132.634 352.37 129.14 352.37 129.117Z" fill="white"/>
</g>
<g id="Group_10">
<path id="Vector_9" d="M372.567 139.463C372.567 137.164 373.432 134.979 375.163 132.907C376.893 130.836 378.839 129.789 381.002 129.766C382.163 129.766 383.187 130.324 384.075 131.439C384.439 130.756 384.963 130.415 385.645 130.415C385.941 130.415 386.203 130.506 386.431 130.688C386.658 130.87 386.772 131.098 386.772 131.371C386.772 131.667 386.351 133.488 385.509 136.834C384.667 140.18 384.234 142.07 384.211 142.502C384.211 143.072 384.291 143.447 384.45 143.629C384.61 143.811 384.849 143.914 385.167 143.937C385.372 143.914 385.6 143.811 385.85 143.629C386.328 143.174 386.795 142.081 387.25 140.351C387.387 139.896 387.501 139.657 387.592 139.634C387.637 139.611 387.751 139.6 387.933 139.6H388.07C388.502 139.6 388.719 139.702 388.719 139.907C388.719 140.044 388.662 140.351 388.548 140.829C388.434 141.307 388.206 141.922 387.865 142.673C387.523 143.424 387.159 143.994 386.772 144.38C386.476 144.676 386.112 144.915 385.68 145.098C385.497 145.143 385.224 145.166 384.86 145.166C384.086 145.166 383.437 144.995 382.914 144.654C382.39 144.312 382.049 143.959 381.889 143.595L381.684 143.083C381.662 143.06 381.616 143.072 381.548 143.117C381.502 143.163 381.457 143.208 381.411 143.254C380.068 144.528 378.702 145.166 377.314 145.166C376.062 145.166 374.958 144.711 374.002 143.8C373.045 142.889 372.567 141.444 372.567 139.463ZM383.426 133.624C383.426 133.488 383.369 133.237 383.255 132.873C383.141 132.509 382.88 132.111 382.47 131.678C382.06 131.246 381.536 131.018 380.899 130.995C380.102 130.995 379.34 131.348 378.611 132.054C377.883 132.759 377.314 133.681 376.904 134.82C376.244 136.618 375.777 138.485 375.504 140.42C375.504 140.488 375.504 140.613 375.504 140.795C375.504 140.977 375.493 141.114 375.47 141.205C375.47 142.229 375.675 142.935 376.084 143.322C376.494 143.709 376.984 143.914 377.553 143.937C378.418 143.937 379.271 143.561 380.114 142.81C380.956 142.059 381.457 141.478 381.616 141.068C381.662 140.977 381.969 139.759 382.538 137.415C383.107 135.07 383.403 133.807 383.426 133.624Z" fill="white"/>
</g>
<g id="Group_11">
<path id="Vector_10" d="M391.552 119.249L391.689 119.215C391.802 119.215 391.916 119.215 392.03 119.215H392.44L393.396 120.034C395.536 121.969 397.095 124.382 398.074 127.273C399.053 130.164 399.542 133.169 399.542 136.288C399.542 137.836 399.429 139.327 399.201 140.761C398.973 142.195 398.711 143.413 398.415 144.415C398.12 145.416 397.698 146.418 397.152 147.42C396.606 148.421 396.173 149.184 395.855 149.707C395.536 150.231 395.069 150.811 394.455 151.449C393.84 152.086 393.476 152.462 393.362 152.576C393.248 152.689 392.986 152.906 392.576 153.224C392.508 153.293 392.463 153.338 392.44 153.361H392.03C391.848 153.361 391.723 153.361 391.655 153.361C391.586 153.361 391.529 153.327 391.484 153.259C391.438 153.19 391.404 153.088 391.381 152.951C391.404 152.928 391.529 152.781 391.757 152.507C395.285 148.842 397.05 143.436 397.05 136.288C397.05 129.14 395.285 123.733 391.757 120.068C391.529 119.795 391.404 119.647 391.381 119.624C391.381 119.442 391.438 119.317 391.552 119.249Z" fill="white"/>
</g>
<g id="Group_12">
<path id="Vector_11" d="M413.243 136.732C413.243 136.732 413.243 136.584 413.243 136.288C413.243 135.992 413.402 135.764 413.721 135.605H433.56C433.901 135.787 434.072 136.015 434.072 136.288C434.072 136.561 433.901 136.789 433.56 136.971H413.721C413.402 136.811 413.243 136.584 413.243 136.288V136.732Z" fill="white"/>
</g>
<g id="Group_13">
<path id="Vector_12" d="M445.654 139.463C445.654 137.164 446.519 134.979 448.249 132.907C449.979 130.836 451.925 129.789 454.088 129.766C455.249 129.766 456.273 130.324 457.161 131.439C457.525 130.756 458.049 130.415 458.732 130.415C459.028 130.415 459.29 130.506 459.517 130.688C459.745 130.87 459.859 131.098 459.859 131.371C459.859 131.667 459.438 133.488 458.595 136.834C457.753 140.18 457.32 142.07 457.298 142.502C457.298 143.072 457.377 143.447 457.537 143.629C457.696 143.811 457.935 143.914 458.254 143.937C458.459 143.914 458.686 143.811 458.937 143.629C459.415 143.174 459.881 142.081 460.337 140.351C460.473 139.896 460.587 139.657 460.678 139.634C460.724 139.611 460.838 139.6 461.02 139.6H461.156C461.589 139.6 461.805 139.702 461.805 139.907C461.805 140.044 461.748 140.351 461.634 140.829C461.52 141.307 461.293 141.922 460.951 142.673C460.61 143.424 460.246 143.994 459.859 144.38C459.563 144.676 459.199 144.915 458.766 145.098C458.584 145.143 458.311 145.166 457.946 145.166C457.173 145.166 456.524 144.995 456 144.654C455.477 144.312 455.135 143.959 454.976 143.595L454.771 143.083C454.748 143.06 454.703 143.072 454.634 143.117C454.589 143.163 454.543 143.208 454.498 143.254C453.155 144.528 451.789 145.166 450.4 145.166C449.148 145.166 448.044 144.711 447.088 143.8C446.132 142.889 445.654 141.444 445.654 139.463ZM456.512 133.624C456.512 133.488 456.455 133.237 456.342 132.873C456.228 132.509 455.966 132.111 455.556 131.678C455.146 131.246 454.623 131.018 453.986 130.995C453.189 130.995 452.426 131.348 451.698 132.054C450.969 132.759 450.4 133.681 449.99 134.82C449.33 136.618 448.864 138.485 448.59 140.42C448.59 140.488 448.59 140.613 448.59 140.795C448.59 140.977 448.579 141.114 448.556 141.205C448.556 142.229 448.761 142.935 449.171 143.322C449.581 143.709 450.07 143.914 450.639 143.937C451.504 143.937 452.358 143.561 453.2 142.81C454.042 142.059 454.543 141.478 454.703 141.068C454.748 140.977 455.055 139.759 455.625 137.415C456.194 135.07 456.49 133.807 456.512 133.624Z" fill="white"/>
</g>
</g>
<g id="Group 436">
<g id="Group_14">
<path id="Vector_13" d="M132.893 258.463C132.893 259.01 132.711 259.465 132.346 259.829C131.982 260.194 131.538 260.376 131.015 260.376H130.776C131.823 262.174 133.211 263.073 134.941 263.073C136.535 263.073 137.696 262.39 138.424 261.024C138.857 260.273 139.073 258.816 139.073 256.654C139.073 254.309 138.766 252.727 138.151 251.907C137.559 251.156 136.899 250.781 136.171 250.781H135.966C134.19 250.781 132.847 251.554 131.937 253.102C131.846 253.262 131.766 253.353 131.698 253.376C131.629 253.398 131.459 253.421 131.185 253.444C130.798 253.444 130.582 253.376 130.537 253.239C130.491 253.148 130.468 251.156 130.468 247.263V242.859C130.468 241.72 130.525 241.151 130.639 241.151C130.685 241.106 130.73 241.083 130.776 241.083C130.798 241.083 131.037 241.174 131.493 241.356C131.948 241.538 132.574 241.72 133.371 241.902C134.167 242.085 135.021 242.176 135.932 242.176C137.548 242.176 139.096 241.857 140.576 241.22C140.758 241.128 140.906 241.083 141.02 241.083C141.202 241.083 141.293 241.288 141.293 241.698V242.141C139.426 244.35 137.093 245.454 134.293 245.454C133.587 245.454 132.95 245.385 132.38 245.249L132.039 245.181V251.054C132.472 250.735 132.813 250.485 133.063 250.302C133.314 250.12 133.724 249.938 134.293 249.756C134.862 249.574 135.442 249.483 136.034 249.483C137.878 249.483 139.437 250.223 140.712 251.702C141.987 253.182 142.624 254.935 142.624 256.961C142.624 259.055 141.896 260.842 140.439 262.322C138.982 263.802 137.207 264.553 135.112 264.576C133.268 264.576 131.789 263.961 130.673 262.732C129.558 261.502 129 260.114 129 258.566C129 258.02 129.125 257.587 129.376 257.268C129.626 256.95 129.888 256.745 130.161 256.654C130.434 256.563 130.696 256.517 130.946 256.517C131.515 256.517 131.982 256.711 132.346 257.098C132.711 257.485 132.893 257.94 132.893 258.463Z" fill="white"/>
</g>
<g id="Group_15">
<path id="Vector_14" d="M163.452 247.434C163.452 247.32 163.474 247.218 163.52 247.127C163.565 247.036 163.622 246.967 163.691 246.922C163.759 246.876 163.827 246.842 163.896 246.82L163.998 246.751H189.232C189.551 246.911 189.71 247.138 189.71 247.434V247.639L183.427 259.317C179.193 267.102 177.042 271.018 176.974 271.063C176.883 271.132 176.757 271.166 176.598 271.166C176.439 271.166 176.313 271.132 176.222 271.063C176.131 271.018 175.096 269.163 173.115 265.498C171.135 261.833 169.109 258.065 167.037 254.195C164.965 250.325 163.827 248.231 163.622 247.912C163.509 247.639 163.452 247.48 163.452 247.434ZM187.9 248.117H165.296C165.296 248.14 167.174 251.634 170.93 258.6C174.686 265.566 176.575 269.049 176.598 269.049C176.621 269.049 178.51 265.566 182.266 258.6C186.022 251.634 187.9 248.14 187.9 248.117Z" fill="white"/>
</g>
<g id="Group_16">
<path id="Vector_15" d="M248.583 253.956C248.742 253 249.357 251.896 250.427 250.644C251.497 249.392 252.817 248.754 254.388 248.732C255.185 248.732 255.913 248.937 256.573 249.346C257.233 249.756 257.723 250.268 258.041 250.883C258.998 249.449 260.147 248.732 261.49 248.732C262.333 248.732 263.061 248.982 263.676 249.483C264.29 249.984 264.609 250.655 264.632 251.498C264.632 252.158 264.472 252.693 264.154 253.102C263.835 253.512 263.528 253.763 263.232 253.854C262.936 253.945 262.674 253.99 262.446 253.99C262.014 253.99 261.661 253.865 261.388 253.615C261.115 253.364 260.978 253.034 260.978 252.624C260.978 251.577 261.547 250.86 262.685 250.473C262.435 250.177 261.98 250.029 261.32 250.029C261.024 250.029 260.807 250.052 260.671 250.098C259.806 250.462 259.168 251.213 258.759 252.351C257.393 257.382 256.71 260.319 256.71 261.161C256.71 261.798 256.892 262.254 257.256 262.527C257.62 262.8 258.019 262.937 258.451 262.937C259.293 262.937 260.124 262.561 260.944 261.81C261.763 261.059 262.321 260.137 262.617 259.044C262.685 258.816 262.754 258.691 262.822 258.668C262.89 258.646 263.072 258.623 263.368 258.6H263.505C263.846 258.6 264.017 258.691 264.017 258.873C264.017 258.896 263.994 259.021 263.949 259.249C263.585 260.546 262.879 261.696 261.832 262.698C260.785 263.699 259.567 264.2 258.178 264.2C256.585 264.2 255.378 263.483 254.559 262.049C253.625 263.46 252.555 264.166 251.349 264.166H251.144C250.028 264.166 249.232 263.87 248.754 263.278C248.276 262.686 248.025 262.06 248.002 261.4C248.002 260.672 248.219 260.08 248.651 259.624C249.084 259.169 249.596 258.941 250.188 258.941C251.167 258.941 251.656 259.42 251.656 260.376C251.656 260.831 251.52 261.229 251.246 261.571C250.973 261.912 250.711 262.14 250.461 262.254C250.211 262.367 250.063 262.424 250.017 262.424L249.915 262.459C249.915 262.481 249.983 262.527 250.12 262.595C250.256 262.663 250.438 262.743 250.666 262.834C250.893 262.925 251.11 262.959 251.315 262.937C252.134 262.937 252.84 262.424 253.432 261.4C253.637 261.036 253.898 260.262 254.217 259.078C254.536 257.894 254.854 256.665 255.173 255.39C255.492 254.115 255.674 253.364 255.72 253.137C255.833 252.522 255.89 252.078 255.89 251.805C255.89 251.167 255.72 250.712 255.378 250.439C255.037 250.166 254.65 250.029 254.217 250.029C253.307 250.029 252.453 250.394 251.656 251.122C250.859 251.85 250.302 252.784 249.983 253.922C249.937 254.127 249.88 254.241 249.812 254.263C249.744 254.286 249.562 254.309 249.266 254.332H248.788C248.651 254.195 248.583 254.07 248.583 253.956Z" fill="white"/>
</g>
<g id="Group_17">
<path id="Vector_16" d="M315.676 251.976C315.676 251.68 315.835 251.452 316.154 251.293H337.905C338.247 251.475 338.417 251.702 338.417 251.976C338.417 252.226 338.258 252.442 337.939 252.624L327.081 252.659H316.222C315.858 252.545 315.676 252.317 315.676 251.976ZM315.676 258.6C315.676 258.259 315.858 258.031 316.222 257.917H337.939C338.258 258.145 338.417 258.372 338.417 258.6C338.417 258.896 338.247 259.124 337.905 259.283H316.154C315.835 259.124 315.676 258.896 315.676 258.6Z" fill="white"/>
</g>
<g id="Group_18">
<g id="Group_19">
<g id="Group_20">
<path id="Vector_17" d="M364.602 221.005L364.158 221.176C363.839 221.289 363.384 221.403 362.792 221.517C362.2 221.631 361.54 221.711 360.811 221.756H360.163V220.185H360.811C361.881 220.14 362.872 219.969 363.782 219.673C364.693 219.377 365.33 219.104 365.694 218.854C366.059 218.603 366.377 218.353 366.65 218.102C366.696 218.034 366.833 218 367.06 218C367.265 218 367.459 218.068 367.641 218.205V228.415L367.675 238.658C367.834 238.818 367.971 238.92 368.085 238.966C368.198 239.011 368.472 239.057 368.904 239.102C369.337 239.148 370.042 239.171 371.021 239.171H371.909V240.741H371.533C371.055 240.673 369.246 240.639 366.104 240.639C363.008 240.639 361.221 240.673 360.743 240.741H360.333V239.171H361.221C361.722 239.171 362.154 239.171 362.519 239.171C362.883 239.171 363.167 239.159 363.372 239.137C363.577 239.114 363.759 239.08 363.919 239.034C364.078 238.989 364.169 238.966 364.192 238.966C364.215 238.966 364.283 238.909 364.397 238.795C364.511 238.681 364.579 238.636 364.602 238.658V221.005Z" fill="white"/>
<path id="Vector_18" d="M375.835 230.054C375.835 226.343 376.757 223.406 378.601 221.244C380.444 219.081 382.493 218 384.747 218C386.318 218 387.444 218.41 388.127 219.229C388.81 220.049 389.152 220.959 389.152 221.961C389.152 222.53 388.992 222.985 388.674 223.327C388.355 223.668 387.911 223.839 387.342 223.839C386.818 223.839 386.386 223.68 386.044 223.361C385.703 223.042 385.532 222.598 385.532 222.029C385.532 221.028 386.067 220.424 387.137 220.22C386.636 219.719 385.931 219.434 385.02 219.366C383.404 219.366 382.072 220.049 381.025 221.415C379.955 222.917 379.42 225.216 379.42 228.312L379.454 228.449C379.568 228.312 379.659 228.164 379.727 228.005C380.661 226.639 381.879 225.956 383.381 225.956H383.518C384.565 225.956 385.487 226.172 386.283 226.605C386.83 226.924 387.376 227.379 387.922 227.971C388.469 228.563 388.913 229.211 389.254 229.917C389.732 231.033 389.971 232.25 389.971 233.571V234.185C389.971 234.709 389.914 235.198 389.801 235.654C389.55 236.997 388.822 238.306 387.615 239.58C386.409 240.855 384.883 241.493 383.04 241.493C382.402 241.493 381.787 241.402 381.196 241.22C380.604 241.037 379.966 240.696 379.283 240.195C378.601 239.694 378.02 239.023 377.542 238.18C377.064 237.338 376.654 236.234 376.313 234.868C375.971 233.502 375.812 231.898 375.835 230.054ZM383.176 227.185C382.493 227.185 381.901 227.379 381.401 227.766C380.9 228.153 380.513 228.665 380.24 229.302C379.966 229.94 379.773 230.589 379.659 231.249C379.545 231.909 379.477 232.615 379.454 233.366C379.454 235.255 379.591 236.61 379.864 237.429C380.137 238.249 380.57 238.909 381.161 239.41C381.708 239.82 382.311 240.024 382.971 240.024C384.132 240.024 385.02 239.592 385.635 238.727C385.931 238.317 386.135 237.805 386.249 237.19C386.363 236.576 386.42 235.38 386.42 233.605C386.42 231.784 386.363 230.566 386.249 229.951C386.135 229.337 385.931 228.824 385.635 228.415C385.02 227.595 384.201 227.185 383.176 227.185Z" fill="white"/>
</g>
<g id="Group_21">
<path id="Vector_19" d="M393.251 230.873C393.41 229.917 394.025 228.813 395.095 227.561C396.165 226.309 397.485 225.672 399.056 225.649C399.853 225.649 400.581 225.854 401.241 226.263C401.901 226.673 402.391 227.185 402.709 227.8C403.666 226.366 404.815 225.649 406.158 225.649C407 225.649 407.729 225.899 408.344 226.4C408.958 226.901 409.277 227.572 409.3 228.415C409.3 229.075 409.14 229.61 408.822 230.02C408.503 230.429 408.196 230.68 407.9 230.771C407.604 230.862 407.342 230.907 407.114 230.907C406.682 230.907 406.329 230.782 406.056 230.532C405.783 230.281 405.646 229.951 405.646 229.542C405.646 228.494 406.215 227.777 407.353 227.39C407.103 227.094 406.648 226.946 405.987 226.946C405.692 226.946 405.475 226.969 405.339 227.015C404.474 227.379 403.836 228.13 403.427 229.268C402.061 234.299 401.378 237.236 401.378 238.078C401.378 238.716 401.56 239.171 401.924 239.444C402.288 239.717 402.687 239.854 403.119 239.854C403.961 239.854 404.792 239.478 405.612 238.727C406.431 237.976 406.989 237.054 407.285 235.961C407.353 235.733 407.422 235.608 407.49 235.585C407.558 235.563 407.74 235.54 408.036 235.517H408.173C408.514 235.517 408.685 235.608 408.685 235.79C408.685 235.813 408.662 235.938 408.617 236.166C408.253 237.463 407.547 238.613 406.5 239.615C405.453 240.616 404.235 241.117 402.846 241.117C401.253 241.117 400.046 240.4 399.227 238.966C398.293 240.377 397.223 241.083 396.017 241.083H395.812C394.696 241.083 393.9 240.787 393.422 240.195C392.944 239.603 392.693 238.977 392.67 238.317C392.67 237.589 392.887 236.997 393.319 236.542C393.752 236.086 394.264 235.859 394.856 235.859C395.835 235.859 396.324 236.337 396.324 237.293C396.324 237.748 396.187 238.146 395.914 238.488C395.641 238.829 395.379 239.057 395.129 239.171C394.879 239.285 394.731 239.342 394.685 239.342L394.583 239.376C394.583 239.398 394.651 239.444 394.787 239.512C394.924 239.581 395.106 239.66 395.334 239.751C395.561 239.842 395.778 239.876 395.983 239.854C396.802 239.854 397.508 239.342 398.1 238.317C398.305 237.953 398.566 237.179 398.885 235.995C399.204 234.811 399.522 233.582 399.841 232.307C400.16 231.033 400.342 230.281 400.387 230.054C400.501 229.439 400.558 228.995 400.558 228.722C400.558 228.085 400.387 227.629 400.046 227.356C399.705 227.083 399.318 226.946 398.885 226.946C397.974 226.946 397.121 227.311 396.324 228.039C395.527 228.768 394.97 229.701 394.651 230.839C394.605 231.044 394.548 231.158 394.48 231.181C394.412 231.203 394.23 231.226 393.934 231.249H393.456C393.319 231.112 393.251 230.987 393.251 230.873Z" fill="white"/>
</g>
<g id="Group_22">
<path id="Vector_20" d="M420.506 232.649C420.506 232.649 420.506 232.501 420.506 232.205C420.506 231.909 420.666 231.681 420.984 231.522H431.194V226.4L431.228 221.278C431.456 220.982 431.672 220.834 431.877 220.834C432.173 220.834 432.401 221.005 432.56 221.346V231.522H442.736C443.077 231.704 443.248 231.932 443.248 232.205C443.248 232.478 443.077 232.706 442.736 232.888H432.56V243.063C432.378 243.382 432.173 243.541 431.945 243.541H431.877H431.809C431.536 243.541 431.331 243.382 431.194 243.063V232.888H420.984C420.666 232.728 420.506 232.501 420.506 232.205V232.649Z" fill="white"/>
</g>
<g id="Group_23">
<path id="Vector_21" d="M457.083 224.932C456.468 224.932 455.99 224.738 455.648 224.351C455.307 223.964 455.125 223.463 455.102 222.849C455.102 221.597 455.648 220.481 456.741 219.502C457.834 218.524 459.154 218.034 460.702 218.034C461.499 218.034 462 218.046 462.205 218.068C463.889 218.341 465.175 218.945 466.063 219.878C466.951 220.811 467.406 221.824 467.429 222.917C467.429 224.101 467.042 225.25 466.268 226.366C465.494 227.481 464.424 228.289 463.058 228.79L462.956 228.859C462.956 228.881 463.058 228.915 463.263 228.961C463.468 229.006 463.798 229.109 464.253 229.268C464.709 229.428 465.141 229.667 465.551 229.985C467.418 231.192 468.351 232.785 468.351 234.766C468.351 236.564 467.645 238.135 466.234 239.478C464.822 240.821 463.035 241.493 460.873 241.493C459.052 241.493 457.481 241.003 456.161 240.024C454.84 239.046 454.18 237.805 454.18 236.302C454.18 235.665 454.385 235.153 454.795 234.766C455.205 234.379 455.717 234.174 456.331 234.151C456.969 234.151 457.492 234.356 457.902 234.766C458.312 235.176 458.517 235.688 458.517 236.302C458.517 236.553 458.483 236.78 458.414 236.985C458.346 237.19 458.266 237.372 458.175 237.532C458.084 237.691 457.959 237.828 457.8 237.941C457.64 238.055 457.504 238.146 457.39 238.215C457.276 238.283 457.162 238.328 457.048 238.351C456.935 238.374 456.844 238.408 456.775 238.454L456.639 238.488C457.8 239.512 459.211 240.024 460.873 240.024C462.125 240.024 463.07 239.421 463.707 238.215C464.094 237.463 464.287 236.314 464.287 234.766V234.083C464.287 231.92 463.559 230.475 462.102 229.746C461.761 229.61 461.066 229.53 460.019 229.507L458.585 229.473L458.483 229.405C458.437 229.337 458.414 229.154 458.414 228.859C458.414 228.449 458.505 228.244 458.687 228.244C459.325 228.244 459.985 228.187 460.668 228.073C461.442 227.959 462.148 227.481 462.785 226.639C463.422 225.797 463.741 224.522 463.741 222.815V222.541C463.741 221.244 463.343 220.345 462.546 219.844C462.045 219.525 461.51 219.366 460.941 219.366C460.213 219.366 459.541 219.491 458.927 219.741C458.312 219.992 457.879 220.254 457.629 220.527C457.379 220.8 457.253 220.937 457.253 220.937H457.356C457.424 220.959 457.515 220.982 457.629 221.005C457.743 221.028 457.857 221.085 457.97 221.176C458.084 221.267 458.221 221.346 458.38 221.415C458.54 221.483 458.653 221.608 458.722 221.79C458.79 221.972 458.881 222.143 458.995 222.302C459.109 222.462 459.143 222.689 459.097 222.985C459.097 223.486 458.938 223.93 458.619 224.317C458.301 224.704 457.788 224.909 457.083 224.932Z" fill="white"/>
<path id="Vector_22" d="M474.156 224.932C473.542 224.932 473.064 224.738 472.722 224.351C472.381 223.964 472.199 223.463 472.176 222.849C472.176 221.597 472.722 220.481 473.815 219.502C474.908 218.524 476.228 218.034 477.776 218.034C478.573 218.034 479.073 218.046 479.278 218.068C480.963 218.341 482.249 218.945 483.137 219.878C484.025 220.811 484.48 221.824 484.503 222.917C484.503 224.101 484.116 225.25 483.342 226.366C482.568 227.481 481.498 228.289 480.132 228.79L480.03 228.859C480.03 228.881 480.132 228.915 480.337 228.961C480.542 229.006 480.872 229.109 481.327 229.268C481.782 229.428 482.215 229.667 482.625 229.985C484.491 231.192 485.425 232.785 485.425 234.766C485.425 236.564 484.719 238.135 483.308 239.478C481.896 240.821 480.109 241.493 477.947 241.493C476.125 241.493 474.555 241.003 473.234 240.024C471.914 239.046 471.254 237.805 471.254 236.302C471.254 235.665 471.459 235.153 471.869 234.766C472.278 234.379 472.79 234.174 473.405 234.151C474.043 234.151 474.566 234.356 474.976 234.766C475.386 235.176 475.59 235.688 475.59 236.302C475.59 236.553 475.556 236.78 475.488 236.985C475.42 237.19 475.34 237.372 475.249 237.532C475.158 237.691 475.033 237.828 474.873 237.941C474.714 238.055 474.577 238.146 474.464 238.215C474.35 238.283 474.236 238.328 474.122 238.351C474.008 238.374 473.917 238.408 473.849 238.454L473.712 238.488C474.873 239.512 476.285 240.024 477.947 240.024C479.199 240.024 480.143 239.421 480.781 238.215C481.168 237.463 481.361 236.314 481.361 234.766V234.083C481.361 231.92 480.633 230.475 479.176 229.746C478.834 229.61 478.14 229.53 477.093 229.507L475.659 229.473L475.556 229.405C475.511 229.337 475.488 229.154 475.488 228.859C475.488 228.449 475.579 228.244 475.761 228.244C476.399 228.244 477.059 228.187 477.742 228.073C478.516 227.959 479.221 227.481 479.859 226.639C480.496 225.797 480.815 224.522 480.815 222.815V222.541C480.815 221.244 480.417 220.345 479.62 219.844C479.119 219.525 478.584 219.366 478.015 219.366C477.286 219.366 476.615 219.491 476 219.741C475.386 219.992 474.953 220.254 474.703 220.527C474.452 220.8 474.327 220.937 474.327 220.937H474.43C474.498 220.959 474.589 220.982 474.703 221.005C474.817 221.028 474.93 221.085 475.044 221.176C475.158 221.267 475.295 221.346 475.454 221.415C475.613 221.483 475.727 221.608 475.795 221.79C475.864 221.972 475.955 222.143 476.069 222.302C476.182 222.462 476.217 222.689 476.171 222.985C476.171 223.486 476.012 223.93 475.693 224.317C475.374 224.704 474.862 224.909 474.156 224.932Z" fill="white"/>
</g>
</g>
<g id="Group_24">
<path id="Vector_23" d="M417.91 271.439C417.296 271.439 416.818 271.246 416.476 270.859C416.135 270.472 415.953 269.971 415.93 269.356C415.93 268.104 416.476 266.989 417.569 266.01C418.661 265.031 419.982 264.541 421.53 264.541C422.327 264.541 422.827 264.553 423.032 264.576C424.717 264.849 426.003 265.452 426.891 266.385C427.779 267.319 428.234 268.332 428.257 269.424C428.257 270.608 427.87 271.758 427.096 272.873C426.322 273.989 425.252 274.797 423.886 275.298L423.783 275.366C423.783 275.389 423.886 275.423 424.091 275.468C424.296 275.514 424.626 275.616 425.081 275.776C425.536 275.935 425.969 276.174 426.379 276.493C428.245 277.699 429.179 279.293 429.179 281.273C429.179 283.072 428.473 284.642 427.061 285.985C425.65 287.328 423.863 288 421.7 288C419.879 288 418.309 287.511 416.988 286.532C415.668 285.553 415.008 284.312 415.008 282.81C415.008 282.172 415.213 281.66 415.622 281.273C416.032 280.886 416.544 280.681 417.159 280.659C417.796 280.659 418.32 280.863 418.73 281.273C419.14 281.683 419.344 282.195 419.344 282.81C419.344 283.06 419.31 283.288 419.242 283.493C419.174 283.698 419.094 283.88 419.003 284.039C418.912 284.198 418.787 284.335 418.627 284.449C418.468 284.563 418.331 284.654 418.218 284.722C418.104 284.79 417.99 284.836 417.876 284.859C417.762 284.881 417.671 284.915 417.603 284.961L417.466 284.995C418.627 286.02 420.039 286.532 421.7 286.532C422.953 286.532 423.897 285.928 424.535 284.722C424.922 283.971 425.115 282.821 425.115 281.273V280.59C425.115 278.428 424.387 276.982 422.93 276.254C422.588 276.117 421.894 276.037 420.847 276.015L419.413 275.98L419.31 275.912C419.265 275.844 419.242 275.662 419.242 275.366C419.242 274.956 419.333 274.751 419.515 274.751C420.153 274.751 420.813 274.694 421.496 274.58C422.27 274.467 422.975 273.989 423.613 273.146C424.25 272.304 424.569 271.029 424.569 269.322V269.049C424.569 267.751 424.17 266.852 423.374 266.351C422.873 266.033 422.338 265.873 421.769 265.873C421.04 265.873 420.369 265.998 419.754 266.249C419.14 266.499 418.707 266.761 418.457 267.034C418.206 267.307 418.081 267.444 418.081 267.444H418.183C418.252 267.467 418.343 267.489 418.457 267.512C418.57 267.535 418.684 267.592 418.798 267.683C418.912 267.774 419.048 267.854 419.208 267.922C419.367 267.99 419.481 268.115 419.549 268.298C419.618 268.48 419.709 268.65 419.822 268.81C419.936 268.969 419.97 269.197 419.925 269.493C419.925 269.993 419.766 270.437 419.447 270.824C419.128 271.211 418.616 271.416 417.91 271.439Z" fill="white"/>
</g>
<path id="Vector_24" d="M490.308 256.312H353.914V254.263H490.308V256.312Z" fill="white"/>
</g>
<path id="Rectangle 110 (Stroke)" fill-rule="evenodd" clip-rule="evenodd" d="M274 236H235V277H274V236ZM232 233V280H277V233H232Z" fill="white"/>
<path id="Rectangle 111 (Stroke)" fill-rule="evenodd" clip-rule="evenodd" d="M290.596 219H220V293H290.596V219ZM217 216V296H293.596V216H217Z" fill="white"/>
<path id="Rectangle 112 (Stroke)" fill-rule="evenodd" clip-rule="evenodd" d="M304.319 204H205V308H304.319V204ZM202 201V311H307.319V201H202Z" fill="white"/>
</g>
<g id="Group 437">
<g id="Group_25">
<path id="Vector_25" d="M427.741 423.946C427.286 423.946 427.059 423.798 427.059 423.502C427.059 423.411 427.115 423.138 427.229 422.683C427.343 422.228 427.4 421.829 427.4 421.488C427.4 420.782 427.161 420.35 426.683 420.19C426.205 420.031 425.101 419.951 423.371 419.951H421.595C421.572 419.997 421.174 421.567 420.4 424.663C419.626 427.759 419.239 429.353 419.239 429.444C419.239 429.535 419.364 429.58 419.615 429.58C419.865 429.58 420.776 429.603 422.346 429.649C424.486 429.649 425.898 429.626 426.58 429.58C427.263 429.535 427.946 429.387 428.629 429.137C429.745 428.772 430.667 428.135 431.395 427.224C432.124 426.314 432.932 424.823 433.82 422.751C434.047 422.25 434.195 421.977 434.263 421.932C434.423 421.886 434.593 421.863 434.776 421.863C435.231 421.863 435.459 422.011 435.459 422.307C433.068 428.089 431.816 431.037 431.702 431.151C431.634 431.197 428.379 431.22 421.937 431.22H415.483C413.161 431.22 412 431.094 412 430.844C412 430.798 412.034 430.639 412.102 430.366C412.193 430.002 412.285 429.797 412.376 429.751C412.467 429.706 412.728 429.672 413.161 429.649C413.776 429.649 414.459 429.615 415.21 429.546C415.528 429.478 415.745 429.341 415.859 429.137C415.904 429.023 416.712 425.824 418.283 419.541C419.854 413.259 420.65 410.072 420.673 409.98C420.673 409.821 420.628 409.741 420.537 409.741C420.354 409.673 419.751 409.616 418.727 409.571H417.668C417.532 409.434 417.463 409.343 417.463 409.298C417.463 409.252 417.486 409.059 417.532 408.717C417.623 408.33 417.737 408.091 417.873 408H436.79C436.95 408.091 437.029 408.216 437.029 408.376C437.029 408.489 436.881 409.764 436.585 412.2C436.289 414.636 436.13 415.888 436.107 415.956C436.062 416.115 435.834 416.195 435.424 416.195H435.015C434.855 416.081 434.776 415.933 434.776 415.751L434.878 414.966C434.946 414.42 434.98 413.828 434.98 413.19C434.98 412.507 434.901 411.938 434.741 411.483C434.582 411.028 434.366 410.675 434.093 410.424C433.82 410.174 433.421 409.992 432.898 409.878C432.374 409.764 431.839 409.685 431.293 409.639C430.746 409.593 430.018 409.571 429.107 409.571H427.502C425.499 409.593 424.441 409.628 424.327 409.673C424.236 409.719 424.167 409.821 424.122 409.98C424.099 410.049 423.746 411.449 423.063 414.18C422.38 416.912 422.028 418.301 422.005 418.346C422.528 418.369 423.075 418.38 423.644 418.38H424.532C426.034 418.38 427.07 418.21 427.639 417.868C428.208 417.527 428.72 416.605 429.176 415.102C429.267 414.738 429.335 414.533 429.38 414.488C429.426 414.442 429.62 414.408 429.961 414.385C430.075 414.385 430.166 414.385 430.234 414.385C430.302 414.385 430.359 414.397 430.405 414.42C430.45 414.442 430.473 414.454 430.473 414.454C430.473 414.454 430.496 414.499 430.541 414.59C430.587 414.681 430.621 414.727 430.644 414.727L429.517 419.234C428.766 422.262 428.356 423.798 428.288 423.844C428.22 423.912 428.037 423.946 427.741 423.946Z" fill="white"/>
</g>
<g id="Group_26">
<path id="Vector_26" d="M448.423 419.371C448.423 419.075 448.583 418.847 448.901 418.688H470.653C470.994 418.87 471.165 419.098 471.165 419.371C471.165 419.621 471.005 419.837 470.687 420.02L459.828 420.054H448.97C448.605 419.94 448.423 419.712 448.423 419.371ZM448.423 425.995C448.423 425.654 448.605 425.426 448.97 425.312H470.687C471.005 425.54 471.165 425.768 471.165 425.995C471.165 426.291 470.994 426.519 470.653 426.678H448.901C448.583 426.519 448.423 426.291 448.423 425.995Z" fill="white"/>
</g>
<g id="Group_27">
<path id="Vector_27" d="M503.925 416.981C503.925 416.981 503.925 416.104 503.925 414.351C503.925 412.598 504.54 411.187 505.769 410.117C506.998 409.047 508.409 408.501 510.003 408.478C511.619 408.478 513.053 408.956 514.305 409.912C515.557 410.868 516.183 412.109 516.183 413.634C516.183 414.317 516.058 414.955 515.808 415.546C515.557 416.138 515.261 416.616 514.92 416.981C514.579 417.345 514.226 417.663 513.861 417.937C513.497 418.21 513.201 418.415 512.974 418.551C512.746 418.688 512.621 418.779 512.598 418.824L513.076 419.132C513.395 419.359 513.713 419.587 514.032 419.815C514.351 420.042 514.533 420.168 514.579 420.19C516.286 421.533 517.14 423.229 517.14 425.278C517.14 427.076 516.479 428.636 515.159 429.956C513.839 431.276 512.131 431.948 510.037 431.971C507.988 431.971 506.304 431.39 504.983 430.229C503.663 429.068 503.003 427.634 503.003 425.927C503.003 423.468 504.471 421.42 507.408 419.781L506.793 419.337C506.315 419.041 506.008 418.813 505.871 418.654C504.574 417.538 503.925 416.104 503.925 414.351V416.981ZM511.3 418.039L511.505 417.902C511.642 417.811 511.744 417.743 511.813 417.698C511.881 417.652 511.995 417.572 512.154 417.459C512.313 417.345 512.45 417.231 512.564 417.117C512.678 417.003 512.803 416.867 512.94 416.707C513.076 416.548 513.201 416.4 513.315 416.263C513.429 416.127 513.543 415.945 513.657 415.717C513.77 415.489 513.873 415.296 513.964 415.137C514.055 414.977 514.112 414.75 514.135 414.454C514.157 414.158 514.18 413.907 514.203 413.702C514.203 412.724 513.873 411.893 513.213 411.21C512.553 410.527 511.79 410.094 510.925 409.912C510.766 409.889 510.39 409.878 509.798 409.878C508.865 409.878 507.988 410.174 507.169 410.766C506.349 411.358 505.928 412.098 505.905 412.985C505.905 413.509 506.053 413.987 506.349 414.42C506.645 414.852 506.941 415.182 507.237 415.41C507.533 415.637 508.102 416.002 508.944 416.502C509.104 416.616 509.229 416.696 509.32 416.741L511.3 418.039ZM510.071 430.502C511.392 430.502 512.53 430.115 513.486 429.341C514.442 428.568 514.92 427.634 514.92 426.541C514.92 426.155 514.863 425.79 514.749 425.449C514.635 425.107 514.499 424.823 514.34 424.595C514.18 424.368 513.93 424.117 513.588 423.844C513.247 423.571 512.985 423.366 512.803 423.229C512.621 423.093 512.291 422.876 511.813 422.581C511.335 422.285 511.027 422.091 510.891 422C510.572 421.795 510.231 421.579 509.866 421.351C509.502 421.124 509.206 420.93 508.979 420.771L508.705 420.6C508.569 420.6 508.239 420.794 507.715 421.181C507.192 421.568 506.645 422.194 506.076 423.059C505.507 423.924 505.211 424.857 505.188 425.859C505.188 427.202 505.678 428.306 506.657 429.171C507.635 430.036 508.774 430.48 510.071 430.502Z" fill="white"/>
</g>
<g id="Group_28">
<path id="Vector_28" d="M547.079 423.127C547.079 423.127 547.079 422.979 547.079 422.683C547.079 422.387 547.238 422.159 547.557 422H557.766V416.878L557.801 411.756C558.028 411.46 558.244 411.312 558.449 411.312C558.745 411.312 558.973 411.483 559.132 411.824V422H569.308C569.649 422.182 569.82 422.41 569.82 422.683C569.82 422.956 569.649 423.184 569.308 423.366H559.132V433.542C558.95 433.86 558.745 434.02 558.518 434.02H558.449H558.381C558.108 434.02 557.903 433.86 557.766 433.542V423.366H547.557C547.238 423.207 547.079 422.979 547.079 422.683V423.127Z" fill="white"/>
</g>
<g id="Group_29">
<path id="Vector_29" d="M600.167 415.581C600.19 415.535 600.383 414.294 600.747 411.859L601.294 408.205C601.294 408.159 601.521 408.137 601.977 408.137H602.66V408.273C602.66 408.501 602.83 408.694 603.172 408.854C603.513 409.013 604.105 409.115 604.947 409.161C605.79 409.207 607.713 409.229 610.718 409.229H614.85V410.561L612.528 413.737C612.323 414.01 611.982 414.465 611.504 415.102C611.026 415.74 610.718 416.161 610.582 416.366C610.445 416.571 610.206 416.935 609.865 417.459C609.523 417.982 609.295 418.392 609.182 418.688C609.068 418.984 608.908 419.405 608.704 419.951C608.499 420.498 608.351 421.021 608.26 421.522C608.169 422.023 608.078 422.637 607.987 423.366C607.895 424.094 607.827 424.868 607.782 425.688C607.736 426.507 607.702 427.441 607.679 428.488C607.679 428.807 607.679 429.125 607.679 429.444C607.679 429.763 607.668 430.036 607.645 430.263V430.571C607.554 430.958 607.338 431.288 606.996 431.561C606.655 431.834 606.268 431.971 605.835 431.971C605.585 431.971 605.346 431.937 605.118 431.868C604.891 431.8 604.652 431.584 604.401 431.22C604.151 430.855 604.026 430.4 604.026 429.854C604.026 426.257 605.13 422.524 607.338 418.654C607.793 417.925 608.749 416.548 610.206 414.522L611.777 412.371H608.601C604.64 412.371 602.557 412.439 602.352 412.576C602.216 412.644 602.091 412.917 601.977 413.395C601.863 413.873 601.749 414.363 601.635 414.863L601.533 415.581V415.683H600.167V415.581Z" fill="white"/>
</g>
<path id="Rectangle 114 (Stroke)" fill-rule="evenodd" clip-rule="evenodd" d="M627 400H584V445H627V400ZM581 397V448H630V397H581Z" fill="white"/>
<path id="Rectangle 113 (Stroke)" fill-rule="evenodd" clip-rule="evenodd" d="M530 400H490V445H530V400ZM487 397V448H533V397H487Z" fill="white"/>
</g>
</g>
</g>
</g>
</svg>
