<svg viewBox="0 0 975 499" fill="none" xmlns="http://www.w3.org/2000/svg">
<g id="0118108">
<g id="Group 8">
<path id="Rectangle 1" d="M19 37.7242C19 18.069 41.5821 2.13525 69.4386 2.13525H939V248.411C939 268.066 916.417 284 888.561 284H19V37.7242Z" fill="#02071A"/>
<path id="Rectangle 1 (Stroke)" fill-rule="evenodd" clip-rule="evenodd" d="M933.956 5.69415H69.4386C44.3678 5.69415 24.0439 20.0345 24.0439 37.7242V280.441H888.561C913.632 280.441 933.956 266.101 933.956 248.411V5.69415ZM69.4386 2.13525C41.5821 2.13525 19 18.069 19 37.7242V284H888.561C916.417 284 939 268.066 939 248.411V2.13525H69.4386Z" fill="#CD08D1"/>
<path id="Rectangle 14" d="M73.625 2.18688C100.602 -2.73361 939 2.18688 939 2.18688V23.4887C939 23.4887 59.3509 15.6591 28.079 23.4887C37.8093 12.1905 46.648 7.10738 73.625 2.18688Z" fill="#CD08D1"/>
<path id="Rectangle 15" d="M908.737 2.13525H939V249.123C935.285 265.884 927.586 272.044 908.737 280.085C914.285 266.917 908.737 2.13525 908.737 2.13525Z" fill="#CD08D1"/>
</g>
<g id="Si: .Adem&#195;&#161;s Calcule:">
<path d="M102.682 106.69C99.3047 105.72 96.8438 104.53 95.2988 103.122C93.7676 101.7 93.002 99.9502 93.002 97.8721C93.002 95.5205 93.9385 93.5791 95.8115 92.0479C97.6982 90.5029 100.146 89.7305 103.153 89.7305C105.204 89.7305 107.029 90.127 108.629 90.9199C110.242 91.7129 111.486 92.8066 112.361 94.2012C113.25 95.5957 113.694 97.1201 113.694 98.7744H109.736C109.736 96.9697 109.162 95.5547 108.014 94.5293C106.865 93.4902 105.245 92.9707 103.153 92.9707C101.212 92.9707 99.6943 93.4014 98.6006 94.2627C97.5205 95.1104 96.9805 96.293 96.9805 97.8105C96.9805 99.0273 97.4932 100.06 98.5186 100.907C99.5576 101.741 101.314 102.507 103.789 103.204C106.277 103.901 108.219 104.674 109.613 105.521C111.021 106.355 112.061 107.333 112.73 108.454C113.414 109.575 113.756 110.895 113.756 112.412C113.756 114.832 112.812 116.773 110.926 118.236C109.039 119.686 106.517 120.41 103.358 120.41C101.308 120.41 99.3936 120.021 97.6162 119.241C95.8389 118.448 94.4648 117.368 93.4941 116.001C92.5371 114.634 92.0586 113.082 92.0586 111.346H96.0166C96.0166 113.15 96.6797 114.579 98.0059 115.632C99.3457 116.671 101.13 117.19 103.358 117.19C105.437 117.19 107.029 116.767 108.137 115.919C109.244 115.071 109.798 113.916 109.798 112.453C109.798 110.99 109.285 109.862 108.26 109.069C107.234 108.263 105.375 107.47 102.682 106.69Z" fill="white"/>
<path d="M122.349 120H118.555V97.8105H122.349V120ZM118.247 91.9248C118.247 91.3096 118.432 90.79 118.801 90.3662C119.184 89.9424 119.744 89.7305 120.482 89.7305C121.221 89.7305 121.781 89.9424 122.164 90.3662C122.547 90.79 122.738 91.3096 122.738 91.9248C122.738 92.54 122.547 93.0527 122.164 93.4629C121.781 93.873 121.221 94.0781 120.482 94.0781C119.744 94.0781 119.184 93.873 118.801 93.4629C118.432 93.0527 118.247 92.54 118.247 91.9248Z" fill="white"/>
<path d="M128.316 118.011C128.316 117.354 128.508 116.808 128.891 116.37C129.287 115.933 129.875 115.714 130.654 115.714C131.434 115.714 132.021 115.933 132.418 116.37C132.828 116.808 133.033 117.354 133.033 118.011C133.033 118.64 132.828 119.166 132.418 119.59C132.021 120.014 131.434 120.226 130.654 120.226C129.875 120.226 129.287 120.014 128.891 119.59C128.508 119.166 128.316 118.64 128.316 118.011ZM128.337 99.9023C128.337 99.2461 128.528 98.6992 128.911 98.2617C129.308 97.8242 129.896 97.6055 130.675 97.6055C131.454 97.6055 132.042 97.8242 132.438 98.2617C132.849 98.6992 133.054 99.2461 133.054 99.9023C133.054 100.531 132.849 101.058 132.438 101.481C132.042 101.905 131.454 102.117 130.675 102.117C129.896 102.117 129.308 101.905 128.911 101.481C128.528 101.058 128.337 100.531 128.337 99.9023Z" fill="white"/>
<path d="M357.471 118.011C357.471 117.354 357.662 116.808 358.045 116.37C358.441 115.933 359.029 115.714 359.809 115.714C360.588 115.714 361.176 115.933 361.572 116.37C361.982 116.808 362.188 117.354 362.188 118.011C362.188 118.64 361.982 119.166 361.572 119.59C361.176 120.014 360.588 120.226 359.809 120.226C359.029 120.226 358.441 120.014 358.045 119.59C357.662 119.166 357.471 118.64 357.471 118.011Z" fill="white"/>
<path d="M385.546 112.207H373.036L370.227 120H366.166L377.568 90.1406H381.014L392.437 120H388.396L385.546 112.207ZM374.226 108.967H384.377L379.291 95.001L374.226 108.967Z" fill="white"/>
<path d="M394.938 108.721C394.938 105.316 395.745 102.582 397.358 100.518C398.972 98.4395 401.084 97.4004 403.695 97.4004C406.293 97.4004 408.351 98.2891 409.868 100.066V88.5H413.662V120H410.176L409.991 117.621C408.474 119.48 406.361 120.41 403.654 120.41C401.084 120.41 398.985 119.357 397.358 117.252C395.745 115.146 394.938 112.398 394.938 109.008V108.721ZM398.732 109.151C398.732 111.667 399.252 113.636 400.291 115.058C401.33 116.479 402.766 117.19 404.598 117.19C407.004 117.19 408.761 116.11 409.868 113.95V103.758C408.733 101.666 406.99 100.62 404.639 100.62C402.779 100.62 401.33 101.338 400.291 102.773C399.252 104.209 398.732 106.335 398.732 109.151Z" fill="white"/>
<path d="M428.776 120.41C425.769 120.41 423.321 119.426 421.435 117.457C419.548 115.475 418.604 112.829 418.604 109.521V108.823C418.604 106.622 419.021 104.66 419.855 102.938C420.703 101.201 421.879 99.8477 423.383 98.877C424.9 97.8926 426.541 97.4004 428.305 97.4004C431.189 97.4004 433.432 98.3506 435.031 100.251C436.631 102.151 437.431 104.872 437.431 108.413V109.992H422.398C422.453 112.18 423.089 113.95 424.306 115.304C425.536 116.644 427.095 117.313 428.981 117.313C430.321 117.313 431.456 117.04 432.386 116.493C433.315 115.946 434.129 115.222 434.826 114.319L437.144 116.124C435.284 118.981 432.495 120.41 428.776 120.41ZM428.305 100.518C426.773 100.518 425.488 101.078 424.449 102.199C423.41 103.307 422.768 104.865 422.521 106.875H433.637V106.588C433.527 104.66 433.008 103.17 432.078 102.117C431.148 101.051 429.891 100.518 428.305 100.518Z" fill="white"/>
<path d="M445.408 97.8105L445.511 100.271C447.138 98.3574 449.332 97.4004 452.094 97.4004C455.197 97.4004 457.31 98.5898 458.431 100.969C459.169 99.9023 460.126 99.041 461.302 98.3848C462.491 97.7285 463.893 97.4004 465.506 97.4004C470.373 97.4004 472.848 99.9775 472.93 105.132V120H469.136V105.357C469.136 103.771 468.773 102.589 468.049 101.81C467.324 101.017 466.107 100.62 464.398 100.62C462.99 100.62 461.821 101.044 460.892 101.892C459.962 102.726 459.422 103.854 459.271 105.275V120H455.457V105.46C455.457 102.233 453.878 100.62 450.72 100.62C448.231 100.62 446.529 101.68 445.613 103.799V120H441.819V97.8105H445.408Z" fill="white"/>
<path d="M492.371 120C492.152 119.562 491.975 118.783 491.838 117.662C490.074 119.494 487.969 120.41 485.521 120.41C483.334 120.41 481.536 119.795 480.128 118.564C478.733 117.32 478.036 115.748 478.036 113.848C478.036 111.537 478.911 109.746 480.661 108.475C482.425 107.189 484.899 106.547 488.085 106.547H491.776V104.804C491.776 103.478 491.38 102.425 490.587 101.646C489.794 100.853 488.625 100.456 487.08 100.456C485.727 100.456 484.592 100.798 483.676 101.481C482.76 102.165 482.302 102.992 482.302 103.963H478.487C478.487 102.855 478.877 101.789 479.656 100.764C480.449 99.7246 481.516 98.9043 482.855 98.3027C484.209 97.7012 485.692 97.4004 487.306 97.4004C489.862 97.4004 491.865 98.043 493.314 99.3281C494.764 100.6 495.516 102.356 495.57 104.599V114.812C495.57 116.849 495.83 118.469 496.35 119.672V120H492.371ZM486.075 117.108C487.265 117.108 488.393 116.801 489.459 116.186C490.525 115.57 491.298 114.771 491.776 113.786V109.233H488.803C484.154 109.233 481.83 110.594 481.83 113.314C481.83 114.504 482.227 115.434 483.02 116.104C483.812 116.773 484.831 117.108 486.075 117.108ZM489.582 88.5H494.176L488.68 94.5293H485.624L489.582 88.5Z" fill="white"/>
<path d="M514.438 114.114C514.438 113.089 514.048 112.296 513.269 111.735C512.503 111.161 511.156 110.669 509.229 110.259C507.314 109.849 505.79 109.356 504.655 108.782C503.534 108.208 502.7 107.524 502.153 106.731C501.62 105.938 501.354 104.995 501.354 103.901C501.354 102.083 502.119 100.545 503.65 99.2871C505.195 98.0293 507.164 97.4004 509.557 97.4004C512.072 97.4004 514.109 98.0498 515.668 99.3486C517.24 100.647 518.026 102.309 518.026 104.332H514.212C514.212 103.293 513.768 102.397 512.879 101.646C512.004 100.894 510.896 100.518 509.557 100.518C508.176 100.518 507.096 100.818 506.316 101.42C505.537 102.021 505.147 102.808 505.147 103.778C505.147 104.694 505.51 105.385 506.234 105.85C506.959 106.314 508.265 106.759 510.151 107.183C512.052 107.606 513.59 108.112 514.766 108.7C515.941 109.288 516.81 109.999 517.37 110.833C517.944 111.653 518.231 112.658 518.231 113.848C518.231 115.83 517.438 117.423 515.853 118.626C514.267 119.815 512.209 120.41 509.68 120.41C507.902 120.41 506.33 120.096 504.963 119.467C503.596 118.838 502.522 117.963 501.743 116.842C500.978 115.707 500.595 114.483 500.595 113.171H504.389C504.457 114.442 504.963 115.454 505.906 116.206C506.863 116.944 508.121 117.313 509.68 117.313C511.115 117.313 512.264 117.026 513.125 116.452C514 115.864 514.438 115.085 514.438 114.114Z" fill="white"/>
<path d="M105.43 230.525C105.061 233.684 103.892 236.124 101.923 237.847C99.9678 239.556 97.3633 240.41 94.1094 240.41C90.582 240.41 87.752 239.146 85.6191 236.616C83.5 234.087 82.4404 230.703 82.4404 226.465V223.594C82.4404 220.818 82.9326 218.378 83.917 216.272C84.915 214.167 86.3232 212.554 88.1416 211.433C89.96 210.298 92.0654 209.73 94.458 209.73C97.6299 209.73 100.173 210.619 102.087 212.396C104.001 214.16 105.115 216.607 105.43 219.738H101.472C101.13 217.359 100.385 215.637 99.2363 214.57C98.1016 213.504 96.5088 212.971 94.458 212.971C91.9424 212.971 89.9668 213.9 88.5312 215.76C87.1094 217.619 86.3984 220.265 86.3984 223.696V226.588C86.3984 229.828 87.0752 232.405 88.4287 234.319C89.7822 236.233 91.6758 237.19 94.1094 237.19C96.2969 237.19 97.9717 236.698 99.1338 235.714C100.31 234.716 101.089 232.986 101.472 230.525H105.43Z" fill="white"/>
<path d="M123.928 240C123.709 239.562 123.531 238.783 123.395 237.662C121.631 239.494 119.525 240.41 117.078 240.41C114.891 240.41 113.093 239.795 111.685 238.564C110.29 237.32 109.593 235.748 109.593 233.848C109.593 231.537 110.468 229.746 112.218 228.475C113.981 227.189 116.456 226.547 119.642 226.547H123.333V224.804C123.333 223.478 122.937 222.425 122.144 221.646C121.351 220.853 120.182 220.456 118.637 220.456C117.283 220.456 116.148 220.798 115.232 221.481C114.316 222.165 113.858 222.992 113.858 223.963H110.044C110.044 222.855 110.434 221.789 111.213 220.764C112.006 219.725 113.072 218.904 114.412 218.303C115.766 217.701 117.249 217.4 118.862 217.4C121.419 217.4 123.422 218.043 124.871 219.328C126.32 220.6 127.072 222.356 127.127 224.599V234.812C127.127 236.849 127.387 238.469 127.906 239.672V240H123.928ZM117.632 237.108C118.821 237.108 119.949 236.801 121.016 236.186C122.082 235.57 122.854 234.771 123.333 233.786V229.233H120.359C115.711 229.233 113.387 230.594 113.387 233.314C113.387 234.504 113.783 235.434 114.576 236.104C115.369 236.773 116.388 237.108 117.632 237.108Z" fill="white"/>
<path d="M137.196 240H133.402V208.5H137.196V240Z" fill="white"/>
<path d="M152.188 237.313C153.541 237.313 154.724 236.903 155.735 236.083C156.747 235.263 157.308 234.237 157.417 233.007H161.006C160.938 234.278 160.5 235.488 159.693 236.637C158.887 237.785 157.807 238.701 156.453 239.385C155.113 240.068 153.691 240.41 152.188 240.41C149.166 240.41 146.76 239.405 144.969 237.396C143.191 235.372 142.303 232.61 142.303 229.11V228.475C142.303 226.314 142.699 224.394 143.492 222.712C144.285 221.03 145.42 219.725 146.896 218.795C148.387 217.865 150.144 217.4 152.167 217.4C154.655 217.4 156.72 218.146 158.36 219.636C160.015 221.126 160.896 223.061 161.006 225.439H157.417C157.308 224.004 156.761 222.828 155.776 221.912C154.806 220.982 153.603 220.518 152.167 220.518C150.239 220.518 148.742 221.215 147.676 222.609C146.623 223.99 146.097 225.993 146.097 228.618V229.336C146.097 231.893 146.623 233.861 147.676 235.242C148.729 236.623 150.232 237.313 152.188 237.313Z" fill="white"/>
<path d="M178.971 237.806C177.494 239.542 175.327 240.41 172.47 240.41C170.104 240.41 168.3 239.727 167.056 238.359C165.825 236.979 165.203 234.941 165.189 232.248V217.811H168.983V232.146C168.983 235.509 170.351 237.19 173.085 237.19C175.983 237.19 177.911 236.11 178.868 233.95V217.811H182.662V240H179.053L178.971 237.806Z" fill="white"/>
<path d="M192.567 240H188.773V208.5H192.567V240Z" fill="white"/>
<path d="M207.866 240.41C204.858 240.41 202.411 239.426 200.524 237.457C198.638 235.475 197.694 232.829 197.694 229.521V228.823C197.694 226.622 198.111 224.66 198.945 222.938C199.793 221.201 200.969 219.848 202.473 218.877C203.99 217.893 205.631 217.4 207.395 217.4C210.279 217.4 212.521 218.351 214.121 220.251C215.721 222.151 216.521 224.872 216.521 228.413V229.992H201.488C201.543 232.18 202.179 233.95 203.396 235.304C204.626 236.644 206.185 237.313 208.071 237.313C209.411 237.313 210.546 237.04 211.476 236.493C212.405 235.946 213.219 235.222 213.916 234.319L216.233 236.124C214.374 238.981 211.585 240.41 207.866 240.41ZM207.395 220.518C205.863 220.518 204.578 221.078 203.539 222.199C202.5 223.307 201.857 224.865 201.611 226.875H212.727V226.588C212.617 224.66 212.098 223.17 211.168 222.117C210.238 221.051 208.98 220.518 207.395 220.518Z" fill="white"/>
<path d="M220.807 238.011C220.807 237.354 220.998 236.808 221.381 236.37C221.777 235.933 222.365 235.714 223.145 235.714C223.924 235.714 224.512 235.933 224.908 236.37C225.318 236.808 225.523 237.354 225.523 238.011C225.523 238.64 225.318 239.166 224.908 239.59C224.512 240.014 223.924 240.226 223.145 240.226C222.365 240.226 221.777 240.014 221.381 239.59C220.998 239.166 220.807 238.64 220.807 238.011ZM220.827 219.902C220.827 219.246 221.019 218.699 221.401 218.262C221.798 217.824 222.386 217.605 223.165 217.605C223.944 217.605 224.532 217.824 224.929 218.262C225.339 218.699 225.544 219.246 225.544 219.902C225.544 220.531 225.339 221.058 224.929 221.481C224.532 221.905 223.944 222.117 223.165 222.117C222.386 222.117 221.798 221.905 221.401 221.481C221.019 221.058 220.827 220.531 220.827 219.902Z" fill="white"/>
</g>
<g id="2^x\;\;=x^2\;16^m\;\;\;=256\;2m^{2m}">
<g id="Group">
<g id="Group 59">
<g id="Group_2">
<g id="Group_3">
<path id="Vector" d="M185.931 96.5979C185.037 96.5979 184.325 96.2998 183.795 95.7037C183.265 95.1076 183 94.379 183 93.5179C183 91.1665 183.878 89.1298 185.633 87.4076C187.388 85.6855 189.574 84.8244 192.19 84.8244C195.204 84.8244 197.721 85.7517 199.741 87.6063C201.761 89.461 202.788 91.862 202.821 94.8095C202.821 96.2336 202.49 97.5915 201.828 98.8831C201.165 100.175 200.37 101.301 199.443 102.261C198.516 103.222 197.191 104.447 195.469 105.937C194.277 106.964 192.621 108.487 190.501 110.508L187.57 113.289L191.346 113.339C196.545 113.339 199.311 113.256 199.642 113.091C199.874 113.024 200.271 111.551 200.834 108.669V108.52H202.821V108.669C202.788 108.769 202.573 110.276 202.175 113.19C201.778 116.104 201.53 117.628 201.43 117.76V117.909H183V116.966V116.369C183 116.138 183.099 115.889 183.298 115.624C183.497 115.359 183.994 114.78 184.788 113.886C185.749 112.826 186.577 111.898 187.272 111.104C187.57 110.772 188.133 110.16 188.961 109.266C189.789 108.371 190.352 107.759 190.65 107.428C190.948 107.096 191.429 106.55 192.091 105.788C192.753 105.026 193.217 104.463 193.482 104.099C193.747 103.735 194.128 103.238 194.624 102.609C195.121 101.98 195.469 101.45 195.668 101.019C195.866 100.589 196.115 100.108 196.413 99.5785C196.711 99.0486 196.926 98.5188 197.059 97.9889C197.191 97.459 197.307 96.9622 197.406 96.4986C197.506 96.0349 197.555 95.4885 197.555 94.8592C197.555 92.7728 196.992 90.9678 195.866 89.4444C194.74 87.921 193.134 87.1592 191.048 87.1592C189.955 87.1592 188.994 87.4407 188.166 88.0038C187.338 88.5668 186.759 89.1132 186.428 89.6431C186.097 90.173 185.931 90.4876 185.931 90.587C185.931 90.6201 186.014 90.6366 186.179 90.6366C186.775 90.6366 187.388 90.8685 188.017 91.3321C188.647 91.7958 188.961 92.5575 188.961 93.6173C188.961 94.4452 188.696 95.1407 188.166 95.7037C187.637 96.2667 186.891 96.5648 185.931 96.5979Z" fill="white"/>
</g>
<g id="Group_4">
<path id="Vector_2" d="M207.181 87.2425C207.345 86.2591 207.977 85.1235 209.078 83.8357C210.178 82.5479 211.536 81.8923 213.152 81.8689C213.971 81.8689 214.721 82.0796 215.4 82.5011C216.079 82.9225 216.582 83.4494 216.91 84.0816C217.893 82.6064 219.076 81.8689 220.457 81.8689C221.324 81.8689 222.073 82.1264 222.705 82.6416C223.337 83.1567 223.665 83.8474 223.688 84.7138C223.688 85.3928 223.525 85.943 223.197 86.3645C222.869 86.7859 222.553 87.0435 222.248 87.1372C221.944 87.2308 221.675 87.2776 221.441 87.2776C220.996 87.2776 220.633 87.1489 220.352 86.8913C220.071 86.6337 219.93 86.2942 219.93 85.8728C219.93 84.7957 220.516 84.0581 221.687 83.6601C221.429 83.3557 220.961 83.2035 220.282 83.2035C219.977 83.2035 219.755 83.2269 219.614 83.2738C218.725 83.6484 218.069 84.4211 217.648 85.5918C216.243 90.7664 215.54 93.7869 215.54 94.6532C215.54 95.3088 215.728 95.7771 216.102 96.0581C216.477 96.3391 216.887 96.4795 217.331 96.4795C218.198 96.4795 219.052 96.0932 219.895 95.3205C220.738 94.5478 221.312 93.5996 221.616 92.4757C221.687 92.2415 221.757 92.1127 221.827 92.0893C221.897 92.0659 222.085 92.0425 222.389 92.0191H222.529C222.881 92.0191 223.056 92.1127 223.056 92.3001C223.056 92.3235 223.033 92.4522 222.986 92.6864C222.611 94.021 221.886 95.2035 220.808 96.2337C219.731 97.2639 218.479 97.7791 217.05 97.7791C215.411 97.7791 214.17 97.0415 213.328 95.5664C212.368 97.0181 211.267 97.7439 210.026 97.7439H209.815C208.668 97.7439 207.849 97.4395 207.357 96.8308C206.865 96.222 206.608 95.5781 206.584 94.8991C206.584 94.1498 206.807 93.541 207.251 93.0727C207.696 92.6044 208.223 92.3703 208.832 92.3703C209.839 92.3703 210.342 92.862 210.342 93.8454C210.342 94.3137 210.202 94.7235 209.921 95.0747C209.64 95.4259 209.37 95.66 209.113 95.7771C208.855 95.8942 208.703 95.9527 208.656 95.9527L208.551 95.9878C208.551 96.0113 208.621 96.0581 208.762 96.1283C208.902 96.1986 209.09 96.2805 209.324 96.3742C209.558 96.4678 209.78 96.503 209.991 96.4795C210.834 96.4795 211.56 95.9527 212.169 94.8991C212.379 94.5244 212.649 93.7283 212.976 92.5108C213.304 91.2932 213.632 90.0288 213.96 88.7176C214.288 87.4064 214.475 86.6337 214.522 86.3996C214.639 85.7674 214.697 85.3108 214.697 85.0298C214.697 84.3742 214.522 83.9059 214.17 83.625C213.819 83.344 213.421 83.2035 212.976 83.2035C212.04 83.2035 211.162 83.5781 210.342 84.3274C209.523 85.0767 208.949 86.0367 208.621 87.2074C208.574 87.4181 208.516 87.5352 208.446 87.5586C208.375 87.582 208.188 87.6054 207.884 87.6289H207.392C207.251 87.4884 207.181 87.3596 207.181 87.2425Z" fill="white"/>
</g>
</g>
<path id="Polygon 4 (Stroke)" fill-rule="evenodd" clip-rule="evenodd" d="M210 48.0005L148.512 124.5H271.488L210 48.0005ZM210 52.7891L154.772 121.5H265.228L210 52.7891Z" fill="white"/>
<g id="Group_5">
<path id="Vector_3" d="M272.111 100.671C272.111 100.24 272.343 99.9091 272.807 99.6773H304.451C304.948 99.9422 305.196 100.273 305.196 100.671C305.196 101.035 304.964 101.35 304.501 101.615L288.703 101.664H272.906C272.376 101.499 272.111 101.168 272.111 100.671ZM272.111 110.308C272.111 109.811 272.376 109.48 272.906 109.315H304.501C304.964 109.646 305.196 109.977 305.196 110.308C305.196 110.739 304.948 111.07 304.451 111.302H272.807C272.343 111.07 272.111 110.739 272.111 110.308Z" fill="white"/>
</g>
<g id="Group_6">
<g id="Group_7">
<path id="Vector_4" d="M324.361 103.552C324.593 102.161 325.487 100.555 327.044 98.7332C328.601 96.9117 330.521 95.9844 332.807 95.9513C333.966 95.9513 335.026 96.2494 335.986 96.8455C336.946 97.4416 337.658 98.1868 338.122 99.081C339.513 96.9945 341.185 95.9513 343.139 95.9513C344.365 95.9513 345.425 96.3156 346.319 97.0442C347.213 97.7728 347.677 98.7498 347.71 99.9752C347.71 100.936 347.478 101.714 347.014 102.31C346.551 102.906 346.104 103.27 345.673 103.403C345.242 103.535 344.862 103.602 344.53 103.602C343.901 103.602 343.388 103.419 342.99 103.055C342.593 102.691 342.394 102.211 342.394 101.615C342.394 100.091 343.222 99.0479 344.878 98.4848C344.514 98.0543 343.851 97.839 342.891 97.839C342.461 97.839 342.146 97.8722 341.947 97.9384C340.689 98.4683 339.761 99.5612 339.165 101.217C337.178 108.536 336.185 112.808 336.185 114.034C336.185 114.961 336.45 115.623 336.979 116.021C337.509 116.418 338.089 116.617 338.718 116.617C339.944 116.617 341.152 116.071 342.345 114.978C343.537 113.885 344.348 112.543 344.779 110.954C344.878 110.623 344.978 110.44 345.077 110.407C345.176 110.374 345.441 110.341 345.872 110.308H346.07C346.567 110.308 346.816 110.44 346.816 110.705C346.816 110.739 346.782 110.921 346.716 111.252C346.186 113.14 345.16 114.812 343.636 116.269C342.113 117.726 340.341 118.455 338.321 118.455C336.003 118.455 334.247 117.412 333.055 115.325C331.697 117.379 330.141 118.405 328.385 118.405H328.087C326.464 118.405 325.305 117.975 324.61 117.114C323.914 116.253 323.55 115.342 323.517 114.382C323.517 113.322 323.832 112.461 324.461 111.798C325.09 111.136 325.835 110.805 326.696 110.805C328.12 110.805 328.832 111.5 328.832 112.891C328.832 113.554 328.634 114.133 328.236 114.63C327.839 115.127 327.458 115.458 327.094 115.623C326.729 115.789 326.514 115.872 326.448 115.872L326.299 115.922C326.299 115.955 326.398 116.021 326.597 116.12C326.796 116.22 327.061 116.336 327.392 116.468C327.723 116.6 328.038 116.65 328.336 116.617C329.528 116.617 330.555 115.872 331.416 114.382C331.714 113.852 332.095 112.726 332.558 111.003C333.022 109.281 333.486 107.493 333.949 105.638C334.413 103.784 334.678 102.691 334.744 102.36C334.91 101.465 334.992 100.82 334.992 100.422C334.992 99.4949 334.744 98.8326 334.247 98.4352C333.75 98.0378 333.187 97.839 332.558 97.839C331.233 97.839 329.992 98.3689 328.832 99.4287C327.673 100.488 326.862 101.846 326.398 103.502C326.332 103.8 326.249 103.966 326.15 103.999C326.051 104.032 325.786 104.065 325.355 104.098H324.66C324.461 103.9 324.361 103.718 324.361 103.552Z" fill="white"/>
</g>
<g id="Group_8">
<path id="Vector_5" d="M354.022 82.3244C353.39 82.3244 352.886 82.1136 352.512 81.6922C352.137 81.2707 351.95 80.7556 351.95 80.1468C351.95 78.4844 352.57 77.0444 353.811 75.8268C355.052 74.6093 356.598 74.0005 358.447 74.0005C360.578 74.0005 362.358 74.6561 363.786 75.9673C365.214 77.2785 365.94 78.9761 365.963 81.06C365.963 82.0668 365.729 83.0268 365.261 83.94C364.793 84.8531 364.231 85.6492 363.575 86.3282C362.92 87.0073 361.983 87.8736 360.765 88.9273C359.922 89.6531 358.752 90.7302 357.253 92.1585L355.181 94.1253L357.85 94.1604C361.526 94.1604 363.481 94.1019 363.716 93.9848C363.88 93.938 364.161 92.896 364.559 90.859V90.7536H365.963V90.859C365.94 90.9292 365.788 91.9946 365.507 94.055C365.226 96.1155 365.05 97.1926 364.98 97.2862V97.3916H351.95V96.7243V96.3028C351.95 96.1389 352.02 95.9633 352.161 95.776C352.301 95.5887 352.652 95.1789 353.214 94.5467C353.893 93.7975 354.479 93.1419 354.97 92.5799C355.181 92.3458 355.579 91.9126 356.164 91.2804C356.75 90.6482 357.148 90.2151 357.359 89.9809C357.569 89.7468 357.909 89.3604 358.377 88.8219C358.845 88.2834 359.173 87.8853 359.361 87.6277C359.548 87.3702 359.817 87.019 360.168 86.5741C360.52 86.1292 360.765 85.7546 360.906 85.4502C361.046 85.1458 361.222 84.8063 361.433 84.4317C361.643 84.057 361.796 83.6824 361.889 83.3078C361.983 82.9331 362.065 82.5819 362.135 82.2541C362.205 81.9263 362.241 81.54 362.241 81.0951C362.241 79.62 361.842 78.3439 361.046 77.2668C360.25 76.1898 359.115 75.6512 357.64 75.6512C356.867 75.6512 356.188 75.8502 355.602 76.2483C355.017 76.6463 354.607 77.0327 354.373 77.4073C354.139 77.7819 354.022 78.0044 354.022 78.0746C354.022 78.098 354.081 78.1097 354.198 78.1097C354.619 78.1097 355.052 78.2736 355.497 78.6014C355.942 78.9293 356.164 79.4678 356.164 80.2171C356.164 80.8024 355.977 81.2941 355.602 81.6922C355.228 82.0902 354.701 82.3009 354.022 82.3244Z" fill="white"/>
</g>
</g>
</g>
<g id="Group 58">
<g id="Group_9">
<g id="Group_10">
<path id="Vector_6" d="M591.458 85.33L590.812 85.5784C590.349 85.744 589.686 85.9096 588.825 86.0752C587.964 86.2408 587.004 86.3567 585.944 86.4229H585V84.1378H585.944C587.501 84.0716 588.941 83.8232 590.266 83.3926C591.591 82.9621 592.518 82.5647 593.048 82.2004C593.578 81.8361 594.041 81.4718 594.439 81.1075C594.505 81.0081 594.704 80.9584 595.035 80.9584C595.333 80.9584 595.614 81.0578 595.879 81.2565V96.11L595.929 111.013C596.161 111.245 596.36 111.394 596.525 111.46C596.691 111.526 597.088 111.593 597.717 111.659C598.347 111.725 599.373 111.758 600.797 111.758H602.089V114.043H601.543C600.847 113.944 598.214 113.894 593.644 113.894C589.14 113.894 586.54 113.944 585.845 114.043H585.249V111.758H586.54C587.269 111.758 587.898 111.758 588.428 111.758C588.958 111.758 589.372 111.742 589.67 111.709C589.968 111.676 590.233 111.626 590.465 111.56C590.696 111.493 590.829 111.46 590.862 111.46C590.895 111.46 590.995 111.377 591.16 111.212C591.326 111.046 591.425 110.98 591.458 111.013V85.33Z" fill="white"/>
<path id="Vector_7" d="M607.802 98.4944C607.802 93.0961 609.143 88.8239 611.826 85.6777C614.508 82.5314 617.489 80.9583 620.768 80.9583C623.053 80.9583 624.692 81.5544 625.686 82.7467C626.679 83.9389 627.176 85.2637 627.176 86.7209C627.176 87.5488 626.944 88.2112 626.48 88.708C626.017 89.2047 625.371 89.4531 624.543 89.4531C623.781 89.4531 623.152 89.2213 622.655 88.7576C622.159 88.294 621.91 87.6482 621.91 86.8202C621.91 85.363 622.688 84.4854 624.245 84.1873C623.516 83.4587 622.49 83.0448 621.165 82.9454C618.814 82.9454 616.876 83.9389 615.353 85.926C613.796 88.1118 613.018 91.4568 613.018 95.9608L613.068 96.1595C613.233 95.9608 613.366 95.7456 613.465 95.5137C614.823 93.5266 616.595 92.5331 618.78 92.5331H618.979C620.503 92.5331 621.844 92.8477 623.003 93.477C623.798 93.9406 624.593 94.603 625.388 95.4641C626.182 96.3251 626.828 97.269 627.325 98.2957C628.02 99.9184 628.368 101.69 628.368 103.611V104.505C628.368 105.267 628.285 105.979 628.12 106.641C627.755 108.595 626.696 110.5 624.94 112.354C623.185 114.209 620.966 115.136 618.284 115.136C617.356 115.136 616.462 115.004 615.601 114.739C614.74 114.474 613.813 113.977 612.819 113.248C611.826 112.52 610.981 111.543 610.286 110.318C609.59 109.092 608.994 107.486 608.497 105.499C608.001 103.512 607.769 101.177 607.802 98.4944ZM618.482 94.3215C617.489 94.3215 616.628 94.603 615.899 95.166C615.171 95.729 614.608 96.4742 614.21 97.4015C613.813 98.3288 613.531 99.2726 613.366 100.233C613.2 101.193 613.101 102.22 613.068 103.313C613.068 106.062 613.266 108.032 613.664 109.225C614.061 110.417 614.69 111.377 615.551 112.106C616.346 112.702 617.224 113 618.184 113C619.873 113 621.165 112.371 622.059 111.112C622.49 110.516 622.788 109.771 622.953 108.877C623.119 107.983 623.202 106.244 623.202 103.661C623.202 101.011 623.119 99.2395 622.953 98.3453C622.788 97.4511 622.49 96.706 622.059 96.1099C621.165 94.9176 619.973 94.3215 618.482 94.3215Z" fill="white"/>
</g>
<g id="Group_11">
<path id="Vector_8" d="M631.292 83.4466C631.315 83.3061 631.35 83.1187 631.397 82.8846C631.444 82.6505 631.584 82.2056 631.818 81.55C632.052 80.8944 632.287 80.3441 632.521 79.8993C632.755 79.4544 633.13 79.0212 633.645 78.5997C634.16 78.1783 634.675 77.9793 635.19 78.0027C635.705 78.0261 636.209 78.108 636.7 78.2485C637.192 78.389 637.543 78.5997 637.754 78.8807C637.965 79.1617 638.152 79.4193 638.316 79.6534C638.48 79.8875 638.573 80.11 638.597 80.3207L638.667 80.5666C638.667 80.6134 638.679 80.6368 638.702 80.6368L639.089 80.2505C640.493 78.7519 642.144 78.0027 644.041 78.0027C644.439 78.0027 644.802 78.0261 645.129 78.0729C645.457 78.1198 645.762 78.2017 646.043 78.3188C646.324 78.4358 646.546 78.5529 646.71 78.67C646.874 78.7871 647.049 78.9276 647.237 79.0915C647.424 79.2554 647.541 79.4075 647.588 79.548C647.635 79.6885 647.728 79.8407 647.869 80.0046C648.009 80.1685 648.056 80.309 648.009 80.4261C647.963 80.5432 647.998 80.6485 648.115 80.7422C648.232 80.8358 648.255 80.9178 648.185 80.988L648.466 80.6368C649.941 78.8807 651.686 78.0027 653.699 78.0027C654.964 78.0027 655.982 78.3188 656.755 78.951C657.527 79.5832 657.926 80.508 657.949 81.7256C657.949 82.9197 657.504 84.7695 656.614 87.2748C655.725 89.7802 655.28 91.2787 655.28 91.7704C655.303 92.0982 655.362 92.3207 655.455 92.4377C655.549 92.5548 655.725 92.6133 655.982 92.6133C656.638 92.6133 657.246 92.2621 657.808 91.5597C658.37 90.8572 658.827 89.8973 659.178 88.6797C659.248 88.4221 659.319 88.2699 659.389 88.2231C659.459 88.1763 659.646 88.1529 659.951 88.1529C660.419 88.1529 660.653 88.2465 660.653 88.4338C660.653 88.4573 660.606 88.6329 660.513 88.9607C660.326 89.6397 660.068 90.307 659.74 90.9626C659.412 91.6182 658.874 92.2738 658.125 92.9294C657.375 93.585 656.567 93.9011 655.701 93.8777C654.601 93.8777 653.805 93.5616 653.313 92.9294C652.821 92.2972 652.575 91.6416 652.575 90.9626C652.575 90.5177 652.997 89.1129 653.84 86.748C654.683 84.3831 655.116 82.6036 655.139 81.4095C655.139 80.028 654.624 79.3373 653.594 79.3373H653.418C651.405 79.3373 649.707 80.5197 648.326 82.8846L648.08 83.3061L646.921 88.0124C646.148 91.0797 645.703 92.7304 645.586 92.9646C645.282 93.5967 644.778 93.9128 644.076 93.9128C643.771 93.9128 643.526 93.8309 643.338 93.667C643.151 93.5031 643.022 93.3626 642.952 93.2455C642.882 93.1285 642.847 93.0114 642.847 92.8943C642.847 92.6368 643.245 90.9626 644.041 87.8719L645.305 82.7441C645.375 82.3929 645.41 81.948 645.41 81.4095C645.41 80.028 644.895 79.3373 643.865 79.3373H643.689C641.676 79.3373 639.978 80.5197 638.597 82.8846L638.351 83.3061L637.192 88.0124C636.419 91.0797 635.974 92.7304 635.857 92.9646C635.553 93.5967 635.05 93.9128 634.347 93.9128C634.043 93.9128 633.797 93.8426 633.61 93.7021C633.422 93.5616 633.293 93.4211 633.223 93.2806C633.153 93.1402 633.13 93.0231 633.153 92.9294C633.153 92.625 633.598 90.7051 634.488 87.1695C635.401 83.5636 635.857 81.6788 635.857 81.5149C635.928 81.1636 635.963 80.8475 635.963 80.5666C635.963 79.7236 635.67 79.3022 635.085 79.3022C634.57 79.3022 634.136 79.63 633.785 80.2856C633.434 80.9412 633.165 81.6553 632.977 82.428C632.79 83.2007 632.65 83.6222 632.556 83.6924C632.509 83.7392 632.322 83.7626 631.994 83.7626H631.502C631.362 83.6222 631.292 83.5168 631.292 83.4466Z" fill="white"/>
</g>
</g>
<g id="Group_12">
<path id="Vector_9" d="M721.861 96.8049C721.861 96.3743 722.093 96.0432 722.556 95.8113H754.201C754.697 96.0763 754.946 96.4075 754.946 96.8049C754.946 97.1692 754.714 97.4838 754.25 97.7487L738.453 97.7984H722.656C722.126 97.6328 721.861 97.3016 721.861 96.8049ZM721.861 106.442C721.861 105.945 722.126 105.614 722.656 105.449H754.25C754.714 105.78 754.946 106.111 754.946 106.442C754.946 106.873 754.697 107.204 754.201 107.436H722.556C722.093 107.204 721.861 106.873 721.861 106.442Z" fill="white"/>
</g>
<path id="Polygon 5 (Stroke)" fill-rule="evenodd" clip-rule="evenodd" d="M626 30.0005L543.728 141H708.272L626 30.0005ZM626 35.0386L549.685 138H702.315L626 35.0386Z" fill="white"/>
<g id="Group_13">
<path id="Vector_10" d="M776.938 92.9082C776.044 92.9082 775.332 92.6101 774.802 92.014C774.272 91.4179 774.007 90.6893 774.007 89.8282C774.007 87.4768 774.885 85.4401 776.64 83.7179C778.395 81.9958 780.581 81.1347 783.197 81.1347C786.211 81.1347 788.728 82.062 790.748 83.9166C792.768 85.7713 793.795 88.1723 793.828 91.1198C793.828 92.5439 793.497 93.9018 792.835 95.1934C792.172 96.485 791.377 97.611 790.45 98.5714C789.523 99.5318 788.198 100.757 786.476 102.248C785.284 103.274 783.628 104.798 781.508 106.818L778.577 109.6L782.353 109.649C787.552 109.649 790.318 109.567 790.649 109.401C790.881 109.335 791.278 107.861 791.841 104.98V104.831H793.828V104.98C793.795 105.079 793.58 106.586 793.182 109.5C792.785 112.415 792.537 113.938 792.437 114.071V114.22H774.007V113.276V112.68C774.007 112.448 774.106 112.2 774.305 111.935C774.504 111.67 775.001 111.09 775.795 110.196C776.756 109.136 777.584 108.209 778.279 107.414C778.577 107.083 779.14 106.47 779.968 105.576C780.796 104.682 781.359 104.069 781.657 103.738C781.955 103.407 782.436 102.86 783.098 102.098C783.76 101.337 784.224 100.774 784.489 100.409C784.754 100.045 785.135 99.5484 785.631 98.9192C786.128 98.2899 786.476 97.76 786.675 97.3295C786.873 96.8989 787.122 96.4187 787.42 95.8888C787.718 95.359 787.933 94.8291 788.066 94.2992C788.198 93.7693 788.314 93.2725 788.413 92.8089C788.513 92.3452 788.562 91.7988 788.562 91.1695C788.562 89.0831 787.999 87.2781 786.873 85.7547C785.747 84.2313 784.141 83.4695 782.055 83.4695C780.962 83.4695 780.001 83.751 779.173 84.3141C778.345 84.8771 777.766 85.4235 777.435 85.9534C777.104 86.4833 776.938 86.7979 776.938 86.8973C776.938 86.9304 777.021 86.9469 777.186 86.9469C777.782 86.9469 778.395 87.1788 779.024 87.6424C779.654 88.1061 779.968 88.8678 779.968 89.9276C779.968 90.7555 779.703 91.451 779.173 92.014C778.643 92.577 777.898 92.8751 776.938 92.9082Z" fill="white"/>
<path id="Vector_11" d="M804.509 106.42C804.509 107.215 804.244 107.877 803.714 108.407C803.184 108.937 802.538 109.202 801.777 109.202H801.429C802.952 111.819 804.972 113.127 807.489 113.127C809.808 113.127 811.497 112.133 812.556 110.146C813.186 109.053 813.5 106.934 813.5 103.787C813.5 100.376 813.053 98.0745 812.159 96.8823C811.298 95.7894 810.338 95.2429 809.278 95.2429H808.98C806.397 95.2429 804.443 96.3689 803.118 98.621C802.985 98.8528 802.869 98.9853 802.77 99.0184C802.671 99.0515 802.422 99.0846 802.025 99.1177C801.462 99.1177 801.147 99.0184 801.081 98.8197C801.015 98.6872 800.982 95.7894 800.982 90.1262V83.7178C800.982 82.0619 801.064 81.2339 801.23 81.2339C801.296 81.1677 801.363 81.1346 801.429 81.1346C801.462 81.1346 801.81 81.2671 802.472 81.532C803.134 81.797 804.045 82.0619 805.204 82.3268C806.363 82.5918 807.605 82.7243 808.93 82.7243C811.281 82.7243 813.533 82.2606 815.686 81.3333C815.951 81.2008 816.166 81.1346 816.332 81.1346C816.597 81.1346 816.729 81.4326 816.729 82.0288V82.6746C814.014 85.887 810.619 87.4933 806.546 87.4933C805.519 87.4933 804.592 87.3939 803.764 87.1952L803.267 87.0958V95.6403C803.896 95.1767 804.393 94.8124 804.757 94.5474C805.121 94.2825 805.718 94.0175 806.546 93.7526C807.374 93.4876 808.218 93.3552 809.079 93.3552C811.762 93.3552 814.03 94.4315 815.885 96.5842C817.739 98.7369 818.667 101.287 818.667 104.234C818.667 107.281 817.607 109.881 815.487 112.034C813.368 114.186 810.785 115.279 807.738 115.312C805.055 115.312 802.903 114.418 801.28 112.63C799.657 110.842 798.846 108.821 798.846 106.569C798.846 105.774 799.028 105.145 799.392 104.682C799.756 104.218 800.137 103.92 800.535 103.787C800.932 103.655 801.313 103.589 801.677 103.589C802.505 103.589 803.184 103.87 803.714 104.433C804.244 104.996 804.509 105.659 804.509 106.42Z" fill="white"/>
<path id="Vector_12" d="M823.287 98.6706C823.287 93.2724 824.628 89.0001 827.311 85.8539C829.993 82.7077 832.974 81.1346 836.253 81.1346C838.538 81.1346 840.177 81.7307 841.171 82.923C842.164 84.1152 842.661 85.4399 842.661 86.8971C842.661 87.7251 842.429 88.3875 841.965 88.8842C841.502 89.381 840.856 89.6294 840.028 89.6294C839.266 89.6294 838.637 89.3976 838.14 88.9339C837.644 88.4703 837.395 87.8244 837.395 86.9965C837.395 85.5393 838.173 84.6617 839.73 84.3636C839.001 83.635 837.975 83.221 836.65 83.1217C834.299 83.1217 832.361 84.1152 830.838 86.1023C829.281 88.2881 828.503 91.633 828.503 96.1371L828.553 96.3358C828.718 96.1371 828.851 95.9218 828.95 95.69C830.308 93.7029 832.08 92.7094 834.265 92.7094H834.464C835.988 92.7094 837.329 93.024 838.488 93.6532C839.283 94.1169 840.078 94.7793 840.873 95.6403C841.667 96.5014 842.313 97.4453 842.81 98.4719C843.505 100.095 843.853 101.867 843.853 103.787V104.682C843.853 105.443 843.77 106.155 843.605 106.818C843.24 108.772 842.181 110.676 840.425 112.531C838.67 114.385 836.451 115.312 833.769 115.312C832.841 115.312 831.947 115.18 831.086 114.915C830.225 114.65 829.298 114.153 828.304 113.425C827.311 112.696 826.466 111.719 825.771 110.494C825.075 109.268 824.479 107.662 823.982 105.675C823.486 103.688 823.254 101.353 823.287 98.6706ZM833.967 94.4978C832.974 94.4978 832.113 94.7793 831.384 95.3423C830.656 95.9053 830.093 96.6504 829.695 97.5777C829.298 98.505 829.016 99.4489 828.851 100.409C828.685 101.37 828.586 102.396 828.553 103.489C828.553 106.238 828.751 108.209 829.149 109.401C829.546 110.593 830.175 111.554 831.036 112.282C831.831 112.878 832.709 113.176 833.669 113.176C835.358 113.176 836.65 112.547 837.544 111.289C837.975 110.693 838.273 109.947 838.438 109.053C838.604 108.159 838.687 106.42 838.687 103.837C838.687 101.188 838.604 99.4158 838.438 98.5216C838.273 97.6274 837.975 96.8823 837.544 96.2861C836.65 95.0939 835.458 94.4978 833.967 94.4978Z" fill="white"/>
</g>
</g>
<g id="Group 57">
<g id="Group_14">
<path id="Vector_13" d="M311.931 216.594C311.037 216.594 310.325 216.296 309.795 215.7C309.265 215.104 309 214.376 309 213.515C309 211.163 309.878 209.126 311.633 207.404C313.388 205.682 315.574 204.821 318.19 204.821C321.204 204.821 323.721 205.748 325.741 207.603C327.761 209.458 328.788 211.859 328.821 214.806C328.821 216.23 328.49 217.588 327.828 218.88C327.165 220.171 326.37 221.297 325.443 222.258C324.516 223.218 323.191 224.443 321.469 225.934C320.277 226.96 318.621 228.484 316.501 230.504L313.57 233.286L317.346 233.336C322.545 233.336 325.311 233.253 325.642 233.087C325.874 233.021 326.271 231.547 326.834 228.666V228.517H328.821V228.666C328.788 228.765 328.573 230.272 328.175 233.187C327.778 236.101 327.53 237.625 327.43 237.757V237.906H309V236.962V236.366C309 236.134 309.099 235.886 309.298 235.621C309.497 235.356 309.994 234.776 310.788 233.882C311.749 232.822 312.577 231.895 313.272 231.1C313.57 230.769 314.133 230.156 314.961 229.262C315.789 228.368 316.352 227.755 316.65 227.424C316.948 227.093 317.429 226.546 318.091 225.785C318.753 225.023 319.217 224.46 319.482 224.096C319.747 223.731 320.128 223.235 320.624 222.605C321.121 221.976 321.469 221.446 321.668 221.016C321.866 220.585 322.115 220.105 322.413 219.575C322.711 219.045 322.926 218.515 323.059 217.985C323.191 217.456 323.307 216.959 323.406 216.495C323.506 216.031 323.555 215.485 323.555 214.856C323.555 212.769 322.992 210.964 321.866 209.441C320.74 207.918 319.134 207.156 317.048 207.156C315.955 207.156 314.994 207.437 314.166 208C313.338 208.563 312.759 209.11 312.428 209.64C312.097 210.17 311.931 210.484 311.931 210.584C311.931 210.617 312.014 210.633 312.179 210.633C312.775 210.633 313.388 210.865 314.017 211.329C314.647 211.792 314.961 212.554 314.961 213.614C314.961 214.442 314.696 215.137 314.166 215.7C313.637 216.263 312.891 216.561 311.931 216.594Z" fill="white"/>
</g>
<g id="Group_15">
<g id="Group_16">
<path id="Vector_14" d="M332.398 223.649C332.431 223.451 332.481 223.186 332.547 222.854C332.613 222.523 332.812 221.894 333.143 220.967C333.475 220.039 333.806 219.261 334.137 218.632C334.468 218.003 334.998 217.39 335.727 216.794C336.455 216.198 337.184 215.916 337.912 215.949C338.641 215.982 339.353 216.098 340.048 216.297C340.744 216.496 341.241 216.794 341.539 217.191C341.837 217.589 342.102 217.953 342.334 218.284C342.565 218.615 342.698 218.93 342.731 219.228L342.83 219.576C342.83 219.642 342.847 219.675 342.88 219.675L343.427 219.129C345.414 217.009 347.748 215.949 350.431 215.949C350.994 215.949 351.507 215.982 351.971 216.049C352.435 216.115 352.865 216.231 353.263 216.396C353.66 216.562 353.975 216.728 354.206 216.893C354.438 217.059 354.687 217.258 354.952 217.489C355.217 217.721 355.382 217.936 355.448 218.135C355.515 218.334 355.647 218.549 355.846 218.781C356.045 219.013 356.111 219.211 356.045 219.377C355.978 219.543 356.028 219.692 356.194 219.824C356.359 219.957 356.392 220.073 356.293 220.172L356.69 219.675C358.777 217.191 361.244 215.949 364.092 215.949C365.881 215.949 367.321 216.396 368.414 217.291C369.507 218.185 370.07 219.493 370.103 221.215C370.103 222.904 369.474 225.52 368.215 229.064C366.957 232.608 366.328 234.727 366.328 235.423C366.361 235.886 366.444 236.201 366.576 236.367C366.709 236.532 366.957 236.615 367.321 236.615C368.249 236.615 369.11 236.118 369.904 235.125C370.699 234.131 371.345 232.773 371.842 231.051C371.941 230.687 372.041 230.472 372.14 230.405C372.239 230.339 372.504 230.306 372.935 230.306C373.597 230.306 373.928 230.439 373.928 230.703C373.928 230.737 373.862 230.985 373.73 231.449C373.465 232.409 373.1 233.353 372.637 234.28C372.173 235.208 371.411 236.135 370.352 237.062C369.292 237.989 368.149 238.437 366.924 238.403C365.367 238.403 364.241 237.956 363.546 237.062C362.85 236.168 362.503 235.241 362.503 234.28C362.503 233.651 363.099 231.664 364.291 228.319C365.483 224.974 366.096 222.457 366.129 220.768C366.129 218.814 365.4 217.837 363.943 217.837H363.695C360.847 217.837 358.446 219.51 356.492 222.854L356.144 223.451L354.505 230.107C353.412 234.446 352.782 236.781 352.617 237.112C352.186 238.006 351.474 238.453 350.481 238.453C350.05 238.453 349.702 238.337 349.437 238.105C349.173 237.874 348.99 237.675 348.891 237.509C348.792 237.344 348.742 237.178 348.742 237.012C348.742 236.648 349.305 234.28 350.431 229.909L352.219 222.656C352.319 222.159 352.368 221.53 352.368 220.768C352.368 218.814 351.64 217.837 350.183 217.837H349.934C347.086 217.837 344.685 219.51 342.731 222.854L342.383 223.451L340.744 230.107C339.651 234.446 339.022 236.781 338.856 237.112C338.426 238.006 337.714 238.453 336.72 238.453C336.29 238.453 335.942 238.354 335.677 238.155C335.412 237.956 335.23 237.758 335.13 237.559C335.031 237.36 334.998 237.195 335.031 237.062C335.031 236.632 335.66 233.916 336.919 228.915C338.21 223.815 338.856 221.149 338.856 220.917C338.956 220.42 339.005 219.973 339.005 219.576C339.005 218.384 338.591 217.787 337.763 217.787C337.035 217.787 336.422 218.251 335.925 219.178C335.429 220.106 335.048 221.116 334.783 222.209C334.518 223.302 334.319 223.898 334.187 223.997C334.12 224.063 333.855 224.096 333.392 224.096H332.696C332.498 223.898 332.398 223.749 332.398 223.649Z" fill="white"/>
</g>
<g id="Group_17">
<g id="Group_18">
<path id="Vector_15" d="M378.8 202.324C378.168 202.324 377.664 202.113 377.29 201.692C376.915 201.27 376.728 200.755 376.728 200.146C376.728 198.484 377.348 197.044 378.589 195.826C379.83 194.609 381.376 194 383.225 194C385.356 194 387.136 194.656 388.564 195.967C389.992 197.278 390.718 198.976 390.741 201.059C390.741 202.066 390.507 203.026 390.039 203.939C389.571 204.853 389.009 205.649 388.353 206.328C387.698 207.007 386.761 207.873 385.543 208.927C384.701 209.653 383.53 210.73 382.031 212.158L379.959 214.125L382.628 214.16C386.304 214.16 388.26 214.101 388.494 213.984C388.658 213.937 388.939 212.896 389.337 210.858V210.753H390.741V210.858C390.718 210.929 390.566 211.994 390.285 214.055C390.004 216.115 389.828 217.192 389.758 217.286V217.391H376.728V216.724V216.302C376.728 216.138 376.798 215.963 376.939 215.776C377.079 215.588 377.43 215.178 377.992 214.546C378.671 213.797 379.257 213.141 379.748 212.579C379.959 212.345 380.357 211.912 380.943 211.28C381.528 210.648 381.926 210.215 382.137 209.98C382.347 209.746 382.687 209.36 383.155 208.821C383.623 208.283 383.951 207.885 384.139 207.627C384.326 207.37 384.595 207.018 384.946 206.574C385.298 206.129 385.543 205.754 385.684 205.45C385.824 205.145 386 204.806 386.211 204.431C386.422 204.057 386.574 203.682 386.667 203.307C386.761 202.933 386.843 202.581 386.913 202.254C386.983 201.926 387.019 201.539 387.019 201.095C387.019 199.619 386.621 198.343 385.824 197.266C385.028 196.189 383.893 195.651 382.418 195.651C381.645 195.651 380.966 195.85 380.381 196.248C379.795 196.646 379.385 197.032 379.151 197.407C378.917 197.781 378.8 198.004 378.8 198.074C378.8 198.098 378.859 198.109 378.976 198.109C379.397 198.109 379.83 198.273 380.275 198.601C380.72 198.929 380.943 199.467 380.943 200.217C380.943 200.802 380.755 201.294 380.381 201.692C380.006 202.09 379.479 202.3 378.8 202.324Z" fill="white"/>
</g>
<g id="Group_19">
<path id="Vector_16" d="M393.27 207.311C393.294 207.17 393.329 206.983 393.376 206.749C393.422 206.514 393.563 206.07 393.797 205.414C394.031 204.758 394.265 204.208 394.5 203.763C394.734 203.318 395.108 202.885 395.623 202.464C396.139 202.042 396.654 201.843 397.169 201.867C397.684 201.89 398.187 201.972 398.679 202.113C399.171 202.253 399.522 202.464 399.733 202.745C399.943 203.026 400.131 203.283 400.295 203.517C400.459 203.752 400.552 203.974 400.576 204.185L400.646 204.431C400.646 204.477 400.658 204.501 400.681 204.501L401.067 204.114C402.472 202.616 404.123 201.867 406.019 201.867C406.418 201.867 406.78 201.89 407.108 201.937C407.436 201.984 407.74 202.066 408.021 202.183C408.302 202.3 408.525 202.417 408.689 202.534C408.853 202.651 409.028 202.792 409.216 202.955C409.403 203.119 409.52 203.272 409.567 203.412C409.614 203.553 409.707 203.705 409.848 203.869C409.988 204.033 410.035 204.173 409.988 204.29C409.941 204.407 409.977 204.513 410.094 204.606C410.211 204.7 410.234 204.782 410.164 204.852L410.445 204.501C411.92 202.745 413.664 201.867 415.678 201.867C416.942 201.867 417.961 202.183 418.734 202.815C419.506 203.447 419.904 204.372 419.928 205.59C419.928 206.784 419.483 208.633 418.593 211.139C417.703 213.644 417.258 215.143 417.258 215.634C417.282 215.962 417.34 216.185 417.434 216.302C417.528 216.419 417.703 216.477 417.961 216.477C418.616 216.477 419.225 216.126 419.787 215.424C420.349 214.721 420.806 213.761 421.157 212.544C421.227 212.286 421.297 212.134 421.368 212.087C421.438 212.04 421.625 212.017 421.93 212.017C422.398 212.017 422.632 212.111 422.632 212.298C422.632 212.321 422.585 212.497 422.492 212.825C422.304 213.504 422.047 214.171 421.719 214.827C421.391 215.482 420.853 216.138 420.103 216.793C419.354 217.449 418.546 217.765 417.68 217.742C416.579 217.742 415.783 217.426 415.292 216.793C414.8 216.161 414.554 215.506 414.554 214.827C414.554 214.382 414.976 212.977 415.818 210.612C416.661 208.247 417.095 206.468 417.118 205.274C417.118 203.892 416.603 203.201 415.573 203.201H415.397C413.383 203.201 411.686 204.384 410.304 206.749L410.058 207.17L408.899 211.876C408.127 214.944 407.682 216.594 407.565 216.829C407.26 217.461 406.757 217.777 406.055 217.777C405.75 217.777 405.504 217.695 405.317 217.531C405.13 217.367 405.001 217.227 404.931 217.11C404.86 216.992 404.825 216.875 404.825 216.758C404.825 216.501 405.223 214.827 406.019 211.736L407.284 206.608C407.354 206.257 407.389 205.812 407.389 205.274C407.389 203.892 406.874 203.201 405.844 203.201H405.668C403.655 203.201 401.957 204.384 400.576 206.749L400.33 207.17L399.171 211.876C398.398 214.944 397.953 216.594 397.836 216.829C397.532 217.461 397.028 217.777 396.326 217.777C396.021 217.777 395.776 217.707 395.588 217.566C395.401 217.426 395.272 217.285 395.202 217.145C395.132 217.004 395.108 216.887 395.132 216.793C395.132 216.489 395.577 214.569 396.466 211.033C397.38 207.428 397.836 205.543 397.836 205.379C397.906 205.028 397.941 204.712 397.941 204.431C397.941 203.588 397.649 203.166 397.063 203.166C396.548 203.166 396.115 203.494 395.764 204.15C395.413 204.805 395.143 205.519 394.956 206.292C394.769 207.065 394.628 207.486 394.535 207.556C394.488 207.603 394.301 207.627 393.973 207.627H393.481C393.341 207.486 393.27 207.381 393.27 207.311Z" fill="white"/>
</g>
</g>
</g>
<path id="Polygon 6 (Stroke)" fill-rule="evenodd" clip-rule="evenodd" d="M366 132L254.283 247.5H477.717L366 132ZM366 136.315L261.358 244.5H470.642L366 136.315Z" fill="white"/>
</g>
</g>
</g>
<g id="claves01">
<path id="Rectangle 4" d="M39 292H255.745L289 332L255.745 372H39V292Z" fill="#CD08D1" fill-opacity="0.1"/>
<path id="Rectangle 4 (Stroke)" fill-rule="evenodd" clip-rule="evenodd" d="M254.338 295H42V369H254.338L285.099 332L254.338 295ZM255.745 292H39V372H255.745L289 332L255.745 292Z" fill="#CD08D1"/>
<path id="Rectangle 5" d="M43 402H259.745L293 442L259.745 482H43V402Z" fill="#CD08D1" fill-opacity="0.1"/>
<path id="Rectangle 5 (Stroke)" fill-rule="evenodd" clip-rule="evenodd" d="M258.338 405H46V479H258.338L289.099 442L258.338 405ZM259.745 402H43V482H259.745L293 442L259.745 402Z" fill="#CD08D1"/>
<path id="Rectangle 6" d="M379 289H595.745L629 329L595.745 369H379V289Z" fill="#CD08D1" fill-opacity="0.1"/>
<path id="Rectangle 6 (Stroke)" fill-rule="evenodd" clip-rule="evenodd" d="M594.338 292H382V366H594.338L625.099 329L594.338 292ZM595.745 289H379V369H595.745L629 329L595.745 289Z" fill="#CD08D1"/>
<path id="Rectangle 7" d="M382 399H598.745L632 439L598.745 479H382V399Z" fill="#CD08D1" fill-opacity="0.1"/>
<path id="Rectangle 7 (Stroke)" fill-rule="evenodd" clip-rule="evenodd" d="M597.338 402H385V476H597.338L628.099 439L597.338 402ZM598.745 399H382V479H598.745L632 439L598.745 399Z" fill="#CD08D1"/>
<path id="Rectangle 8" d="M725 348H941.745L975 388L941.745 428H725V348Z" fill="#CD08D1" fill-opacity="0.1"/>
<path id="Rectangle 8 (Stroke)" fill-rule="evenodd" clip-rule="evenodd" d="M940.338 351H728V425H940.338L971.099 388L940.338 351ZM941.745 348H725V428H941.745L975 388L941.745 348Z" fill="#CD08D1"/>
<path id="Ellipse 1" d="M80 332C80 354.091 62.0914 372 40 372C17.9086 372 0 354.091 0 332C0 309.909 17.9086 292 40 292C62.0914 292 80 309.909 80 332Z" fill="#CD08D1"/>
<path id="Ellipse 2" d="M84 442C84 464.091 66.0914 482 44 482C21.9086 482 4 464.091 4 442C4 419.909 21.9086 402 44 402C66.0914 402 84 419.909 84 442Z" fill="#CD08D1"/>
<path id="Ellipse 3" d="M420 329C420 351.091 402.091 369 380 369C357.909 369 340 351.091 340 329C340 306.909 357.909 289 380 289C402.091 289 420 306.909 420 329Z" fill="#CD08D1"/>
<path id="Ellipse 4" d="M423 439C423 461.091 405.091 479 383 479C360.909 479 343 461.091 343 439C343 416.909 360.909 399 383 399C405.091 399 423 416.909 423 439Z" fill="#CD08D1"/>
<path id="Ellipse 5" d="M766 388C766 410.091 748.091 428 726 428C703.909 428 686 410.091 686 388C686 365.909 703.909 348 726 348C748.091 348 766 365.909 766 388Z" fill="#CD08D1"/>
<path id="A" d="M48.0938 342.406H30.4688L26.7812 353H18.5625L35.75 307.5H42.8438L60.0625 353H51.8125L48.0938 342.406ZM32.6875 336.031H45.875L39.2812 317.156L32.6875 336.031Z" fill="white"/>
<path id="B" d="M27.625 458V412.5H43.2188C48.3646 412.5 52.2812 413.531 54.9688 415.594C57.6562 417.656 59 420.729 59 424.812C59 426.896 58.4375 428.771 57.3125 430.438C56.1875 432.104 54.5417 433.396 52.375 434.312C54.8333 434.979 56.7292 436.24 58.0625 438.094C59.4167 439.927 60.0938 442.135 60.0938 444.719C60.0938 448.99 58.7188 452.271 55.9688 454.562C53.2396 456.854 49.3229 458 44.2188 458H27.625ZM35.5312 437.469V451.688H44.3125C46.7917 451.688 48.7292 451.073 50.125 449.844C51.5208 448.615 52.2188 446.906 52.2188 444.719C52.2188 439.99 49.8021 437.573 44.9688 437.469H35.5312ZM35.5312 431.656H43.2812C45.7396 431.656 47.6562 431.104 49.0312 430C50.4271 428.875 51.125 427.292 51.125 425.25C51.125 423 50.4792 421.375 49.1875 420.375C47.9167 419.375 45.9271 418.875 43.2188 418.875H35.5312V431.656Z" fill="white"/>
<path id="C" d="M397.344 336.188C396.885 341.042 395.094 344.833 391.969 347.562C388.844 350.271 384.688 351.625 379.5 351.625C375.875 351.625 372.677 350.771 369.906 349.062C367.156 347.333 365.031 344.885 363.531 341.719C362.031 338.552 361.25 334.875 361.188 330.688V326.438C361.188 322.146 361.948 318.365 363.469 315.094C364.99 311.823 367.167 309.302 370 307.531C372.854 305.76 376.146 304.875 379.875 304.875C384.896 304.875 388.938 306.24 392 308.969C395.062 311.698 396.844 315.552 397.344 320.531H389.469C389.094 317.26 388.135 314.906 386.594 313.469C385.073 312.01 382.833 311.281 379.875 311.281C376.438 311.281 373.792 312.542 371.938 315.062C370.104 317.562 369.167 321.24 369.125 326.094V330.125C369.125 335.042 370 338.792 371.75 341.375C373.521 343.958 376.104 345.25 379.5 345.25C382.604 345.25 384.938 344.552 386.5 343.156C388.062 341.76 389.052 339.438 389.469 336.188H397.344Z" fill="white"/>
<path id="D" d="M365.625 461V415.5H379.062C383.083 415.5 386.646 416.396 389.75 418.188C392.875 419.979 395.292 422.521 397 425.812C398.708 429.104 399.562 432.875 399.562 437.125V439.406C399.562 443.719 398.698 447.51 396.969 450.781C395.26 454.052 392.812 456.573 389.625 458.344C386.458 460.115 382.823 461 378.719 461H365.625ZM373.531 421.875V454.688H378.688C382.833 454.688 386.01 453.396 388.219 450.812C390.448 448.208 391.583 444.479 391.625 439.625V437.094C391.625 432.156 390.552 428.385 388.406 425.781C386.26 423.177 383.146 421.875 379.062 421.875H373.531Z" fill="white"/>
<path id="E" d="M735.219 389.688H716.531V403.688H738.375V410H708.625V364.5H738.156V370.875H716.531V383.438H735.219V389.688Z" fill="white"/>
<g id="flecha">
<path id="Rectangle 2" d="M394.2 402.008L409.482 410.133L367.5 489.089L352.218 480.964L394.2 402.008Z" fill="#1043F5"/>
<path id="Rectangle 1_2" d="M336 414.904L426 365V422.692L381 405.096L336 414.904Z" fill="#1043F5"/>
<path id="Rectangle 3" d="M340.038 484.209L355.666 457.142L372.936 456.564L357.309 483.631L340.038 484.209Z" fill="#1043F5"/>
<path id="Rectangle 4_2" d="M366.089 498.845L381.717 471.778L372.926 456.154L357.299 483.221L366.089 498.845Z" fill="#1043F5"/>
</g>
</g>
<g id="Group 343">
<path id="17" d="M144.773 352H138V325.891L129.914 328.398V322.891L144.047 317.828H144.773V352ZM179.086 321.672L165.891 352H158.742L171.961 323.359H154.992V317.875H179.086V321.672Z" fill="#CD08D1"/>
<path id="16" d="M144.773 453H138V426.891L129.914 429.398V423.891L144.047 418.828H144.773V453ZM174.258 418.523V424.102H173.602C170.539 424.148 168.07 424.945 166.195 426.492C164.336 428.039 163.219 430.188 162.844 432.938C164.656 431.094 166.945 430.172 169.711 430.172C172.68 430.172 175.039 431.234 176.789 433.359C178.539 435.484 179.414 438.281 179.414 441.75C179.414 443.969 178.93 445.977 177.961 447.773C177.008 449.57 175.648 450.969 173.883 451.969C172.133 452.969 170.148 453.469 167.93 453.469C164.336 453.469 161.43 452.219 159.211 449.719C157.008 447.219 155.906 443.883 155.906 439.711V437.273C155.906 433.57 156.602 430.305 157.992 427.477C159.398 424.633 161.406 422.438 164.016 420.891C166.641 419.328 169.68 418.539 173.133 418.523H174.258ZM167.648 435.609C166.555 435.609 165.562 435.898 164.672 436.477C163.781 437.039 163.125 437.789 162.703 438.727V440.789C162.703 443.055 163.148 444.828 164.039 446.109C164.93 447.375 166.18 448.008 167.789 448.008C169.242 448.008 170.414 447.438 171.305 446.297C172.211 445.141 172.664 443.648 172.664 441.82C172.664 439.961 172.211 438.461 171.305 437.32C170.398 436.18 169.18 435.609 167.648 435.609Z" fill="#CD08D1"/>
<path id="256" d="M487.711 349H464.32V344.359L475.359 332.594C476.875 330.938 477.992 329.492 478.711 328.258C479.445 327.023 479.812 325.852 479.812 324.742C479.812 323.227 479.43 322.039 478.664 321.18C477.898 320.305 476.805 319.867 475.383 319.867C473.852 319.867 472.641 320.398 471.75 321.461C470.875 322.508 470.438 323.891 470.438 325.609H463.641C463.641 323.531 464.133 321.633 465.117 319.914C466.117 318.195 467.523 316.852 469.336 315.883C471.148 314.898 473.203 314.406 475.5 314.406C479.016 314.406 481.742 315.25 483.68 316.938C485.633 318.625 486.609 321.008 486.609 324.086C486.609 325.773 486.172 327.492 485.297 329.242C484.422 330.992 482.922 333.031 480.797 335.359L473.039 343.539H487.711V349ZM492.891 332.219L494.859 314.875H513.984V320.523H500.414L499.57 327.859C501.18 327 502.891 326.57 504.703 326.57C507.953 326.57 510.5 327.578 512.344 329.594C514.188 331.609 515.109 334.43 515.109 338.055C515.109 340.258 514.641 342.234 513.703 343.984C512.781 345.719 511.453 347.07 509.719 348.039C507.984 348.992 505.938 349.469 503.578 349.469C501.516 349.469 499.602 349.055 497.836 348.227C496.07 347.383 494.672 346.203 493.641 344.688C492.625 343.172 492.086 341.445 492.023 339.508H498.727C498.867 340.93 499.359 342.039 500.203 342.836C501.062 343.617 502.18 344.008 503.555 344.008C505.086 344.008 506.266 343.461 507.094 342.367C507.922 341.258 508.336 339.695 508.336 337.68C508.336 335.742 507.859 334.258 506.906 333.227C505.953 332.195 504.602 331.68 502.852 331.68C501.242 331.68 499.938 332.102 498.938 332.945L498.281 333.555L492.891 332.219ZM537.82 314.523V320.102H537.164C534.102 320.148 531.633 320.945 529.758 322.492C527.898 324.039 526.781 326.188 526.406 328.938C528.219 327.094 530.508 326.172 533.273 326.172C536.242 326.172 538.602 327.234 540.352 329.359C542.102 331.484 542.977 334.281 542.977 337.75C542.977 339.969 542.492 341.977 541.523 343.773C540.57 345.57 539.211 346.969 537.445 347.969C535.695 348.969 533.711 349.469 531.492 349.469C527.898 349.469 524.992 348.219 522.773 345.719C520.57 343.219 519.469 339.883 519.469 335.711V333.273C519.469 329.57 520.164 326.305 521.555 323.477C522.961 320.633 524.969 318.438 527.578 316.891C530.203 315.328 533.242 314.539 536.695 314.523H537.82ZM531.211 331.609C530.117 331.609 529.125 331.898 528.234 332.477C527.344 333.039 526.688 333.789 526.266 334.727V336.789C526.266 339.055 526.711 340.828 527.602 342.109C528.492 343.375 529.742 344.008 531.352 344.008C532.805 344.008 533.977 343.438 534.867 342.297C535.773 341.141 536.227 339.648 536.227 337.82C536.227 335.961 535.773 334.461 534.867 333.32C533.961 332.18 532.742 331.609 531.211 331.609Z" fill="#CD08D1"/>
<path id="289" d="M490.711 453H467.32V448.359L478.359 436.594C479.875 434.938 480.992 433.492 481.711 432.258C482.445 431.023 482.812 429.852 482.812 428.742C482.812 427.227 482.43 426.039 481.664 425.18C480.898 424.305 479.805 423.867 478.383 423.867C476.852 423.867 475.641 424.398 474.75 425.461C473.875 426.508 473.438 427.891 473.438 429.609H466.641C466.641 427.531 467.133 425.633 468.117 423.914C469.117 422.195 470.523 420.852 472.336 419.883C474.148 418.898 476.203 418.406 478.5 418.406C482.016 418.406 484.742 419.25 486.68 420.938C488.633 422.625 489.609 425.008 489.609 428.086C489.609 429.773 489.172 431.492 488.297 433.242C487.422 434.992 485.922 437.031 483.797 439.359L476.039 447.539H490.711V453ZM517.125 427.945C517.125 429.602 516.711 431.07 515.883 432.352C515.055 433.633 513.914 434.656 512.461 435.422C514.117 436.219 515.43 437.32 516.398 438.727C517.367 440.117 517.852 441.758 517.852 443.648C517.852 446.68 516.82 449.078 514.758 450.844C512.695 452.594 509.891 453.469 506.344 453.469C502.797 453.469 499.984 452.586 497.906 450.82C495.828 449.055 494.789 446.664 494.789 443.648C494.789 441.758 495.273 440.109 496.242 438.703C497.211 437.297 498.516 436.203 500.156 435.422C498.703 434.656 497.562 433.633 496.734 432.352C495.922 431.07 495.516 429.602 495.516 427.945C495.516 425.039 496.484 422.727 498.422 421.008C500.359 419.273 502.992 418.406 506.32 418.406C509.633 418.406 512.258 419.266 514.195 420.984C516.148 422.688 517.125 425.008 517.125 427.945ZM511.055 443.156C511.055 441.672 510.625 440.484 509.766 439.594C508.906 438.703 507.75 438.258 506.297 438.258C504.859 438.258 503.711 438.703 502.852 439.594C501.992 440.469 501.562 441.656 501.562 443.156C501.562 444.609 501.984 445.781 502.828 446.672C503.672 447.562 504.844 448.008 506.344 448.008C507.812 448.008 508.961 447.578 509.789 446.719C510.633 445.859 511.055 444.672 511.055 443.156ZM510.352 428.273C510.352 426.945 510 425.883 509.297 425.086C508.594 424.273 507.602 423.867 506.32 423.867C505.055 423.867 504.07 424.258 503.367 425.039C502.664 425.82 502.312 426.898 502.312 428.273C502.312 429.633 502.664 430.727 503.367 431.555C504.07 432.383 505.062 432.797 506.344 432.797C507.625 432.797 508.609 432.383 509.297 431.555C510 430.727 510.352 429.633 510.352 428.273ZM538.289 439.359C536.523 441.094 534.461 441.961 532.102 441.961C529.086 441.961 526.672 440.93 524.859 438.867C523.047 436.789 522.141 433.992 522.141 430.477C522.141 428.242 522.625 426.195 523.594 424.336C524.578 422.461 525.945 421.008 527.695 419.977C529.445 418.93 531.414 418.406 533.602 418.406C535.852 418.406 537.852 418.969 539.602 420.094C541.352 421.219 542.711 422.836 543.68 424.945C544.648 427.055 545.141 429.469 545.156 432.188V434.695C545.156 440.383 543.742 444.852 540.914 448.102C538.086 451.352 534.078 453.086 528.891 453.305L527.227 453.328V447.68L528.727 447.656C534.617 447.391 537.805 444.625 538.289 439.359ZM533.766 436.781C534.859 436.781 535.797 436.5 536.578 435.938C537.375 435.375 537.977 434.695 538.383 433.898V431.109C538.383 428.812 537.945 427.031 537.07 425.766C536.195 424.5 535.023 423.867 533.555 423.867C532.195 423.867 531.078 424.492 530.203 425.742C529.328 426.977 528.891 428.531 528.891 430.406C528.891 432.266 529.312 433.797 530.156 435C531.016 436.188 532.219 436.781 533.766 436.781Z" fill="#CD08D1"/>
<path id="225" d="M833.711 410H810.32V405.359L821.359 393.594C822.875 391.938 823.992 390.492 824.711 389.258C825.445 388.023 825.812 386.852 825.812 385.742C825.812 384.227 825.43 383.039 824.664 382.18C823.898 381.305 822.805 380.867 821.383 380.867C819.852 380.867 818.641 381.398 817.75 382.461C816.875 383.508 816.438 384.891 816.438 386.609H809.641C809.641 384.531 810.133 382.633 811.117 380.914C812.117 379.195 813.523 377.852 815.336 376.883C817.148 375.898 819.203 375.406 821.5 375.406C825.016 375.406 827.742 376.25 829.68 377.938C831.633 379.625 832.609 382.008 832.609 385.086C832.609 386.773 832.172 388.492 831.297 390.242C830.422 391.992 828.922 394.031 826.797 396.359L819.039 404.539H833.711V410ZM861.273 410H837.883V405.359L848.922 393.594C850.438 391.938 851.555 390.492 852.273 389.258C853.008 388.023 853.375 386.852 853.375 385.742C853.375 384.227 852.992 383.039 852.227 382.18C851.461 381.305 850.367 380.867 848.945 380.867C847.414 380.867 846.203 381.398 845.312 382.461C844.438 383.508 844 384.891 844 386.609H837.203C837.203 384.531 837.695 382.633 838.68 380.914C839.68 379.195 841.086 377.852 842.898 376.883C844.711 375.898 846.766 375.406 849.062 375.406C852.578 375.406 855.305 376.25 857.242 377.938C859.195 379.625 860.172 382.008 860.172 385.086C860.172 386.773 859.734 388.492 858.859 390.242C857.984 391.992 856.484 394.031 854.359 396.359L846.602 404.539H861.273V410ZM866.453 393.219L868.422 375.875H887.547V381.523H873.977L873.133 388.859C874.742 388 876.453 387.57 878.266 387.57C881.516 387.57 884.062 388.578 885.906 390.594C887.75 392.609 888.672 395.43 888.672 399.055C888.672 401.258 888.203 403.234 887.266 404.984C886.344 406.719 885.016 408.07 883.281 409.039C881.547 409.992 879.5 410.469 877.141 410.469C875.078 410.469 873.164 410.055 871.398 409.227C869.633 408.383 868.234 407.203 867.203 405.688C866.188 404.172 865.648 402.445 865.586 400.508H872.289C872.43 401.93 872.922 403.039 873.766 403.836C874.625 404.617 875.742 405.008 877.117 405.008C878.648 405.008 879.828 404.461 880.656 403.367C881.484 402.258 881.898 400.695 881.898 398.68C881.898 396.742 881.422 395.258 880.469 394.227C879.516 393.195 878.164 392.68 876.414 392.68C874.805 392.68 873.5 393.102 872.5 393.945L871.844 394.555L866.453 393.219Z" fill="#CD08D1"/>
</g>
</g>
</svg>
