<svg viewBox="0 0 1020 640" fill="none" xmlns="http://www.w3.org/2000/svg">
<g id="0118112">
<g id="Group 8">
<path id="Rectangle 1" d="M39 53.6642C39 25.7039 63.0794 3.0376 92.7829 3.0376H1020V353.373C1020 381.334 995.92 404 966.217 404H39V53.6642Z" fill="#02071A"/>
<path id="Rectangle 1 (Stroke)" fill-rule="evenodd" clip-rule="evenodd" d="M1014.62 8.10025H92.7829C66.0498 8.10025 44.3783 28.4999 44.3783 53.6642V398.937H966.217C992.95 398.937 1014.62 378.538 1014.62 353.373V8.10025ZM92.7829 3.0376C63.0794 3.0376 39 25.7039 39 53.6642V404H966.217C995.92 404 1020 381.334 1020 353.373V3.0376H92.7829Z" fill="#CD08D1"/>
<path id="Rectangle 14" d="M97.2468 3.11092C126.013 -3.88865 1020 3.11092 1020 3.11092V33.4135C1020 33.4135 82.0263 22.2757 48.6809 33.4135C59.0564 17.3414 68.4811 10.1105 97.2468 3.11092Z" fill="#CD08D1"/>
<path id="Rectangle 15" d="M987.73 3.0376H1020V354.386C1016.04 378.229 1007.83 386.992 987.73 398.431C993.646 379.699 987.73 3.0376 987.73 3.0376Z" fill="#CD08D1"/>
</g>
<g id="claves01">
<path id="Rectangle 4" d="M46 450H262.745L296 490L262.745 530H46V450Z" fill="#CD08D1" fill-opacity="0.1"/>
<path id="Rectangle 4 (Stroke)" fill-rule="evenodd" clip-rule="evenodd" d="M261.338 453H49V527H261.338L292.099 490L261.338 453ZM262.745 450H46V530H262.745L296 490L262.745 450Z" fill="#CD08D1"/>
<path id="Rectangle 5" d="M50 560H266.745L300 600L266.745 640H50V560Z" fill="#CD08D1" fill-opacity="0.1"/>
<path id="Rectangle 5 (Stroke)" fill-rule="evenodd" clip-rule="evenodd" d="M265.338 563H53V637H265.338L296.099 600L265.338 563ZM266.745 560H50V640H266.745L300 600L266.745 560Z" fill="#CD08D1"/>
<path id="Rectangle 6" d="M386 447H602.745L636 487L602.745 527H386V447Z" fill="#CD08D1" fill-opacity="0.1"/>
<path id="Rectangle 6 (Stroke)" fill-rule="evenodd" clip-rule="evenodd" d="M601.338 450H389V524H601.338L632.099 487L601.338 450ZM602.745 447H386V527H602.745L636 487L602.745 447Z" fill="#CD08D1"/>
<path id="Rectangle 7" d="M389 557H605.745L639 597L605.745 637H389V557Z" fill="#CD08D1" fill-opacity="0.1"/>
<path id="Rectangle 7 (Stroke)" fill-rule="evenodd" clip-rule="evenodd" d="M604.338 560H392V634H604.338L635.099 597L604.338 560ZM605.745 557H389V637H605.745L639 597L605.745 557Z" fill="#CD08D1"/>
<path id="Rectangle 8" d="M732 506H948.745L982 546L948.745 586H732V506Z" fill="#CD08D1" fill-opacity="0.1"/>
<path id="Rectangle 8 (Stroke)" fill-rule="evenodd" clip-rule="evenodd" d="M947.338 509H735V583H947.338L978.099 546L947.338 509ZM948.745 506H732V586H948.745L982 546L948.745 506Z" fill="#CD08D1"/>
<path id="Ellipse 1" d="M87 490C87 512.091 69.0914 530 47 530C24.9086 530 7 512.091 7 490C7 467.909 24.9086 450 47 450C69.0914 450 87 467.909 87 490Z" fill="#CD08D1"/>
<path id="Ellipse 2" d="M91 600C91 622.091 73.0914 640 51 640C28.9086 640 11 622.091 11 600C11 577.909 28.9086 560 51 560C73.0914 560 91 577.909 91 600Z" fill="#CD08D1"/>
<path id="Ellipse 3" d="M427 487C427 509.091 409.091 527 387 527C364.909 527 347 509.091 347 487C347 464.909 364.909 447 387 447C409.091 447 427 464.909 427 487Z" fill="#CD08D1"/>
<path id="Ellipse 4" d="M430 597C430 619.091 412.091 637 390 637C367.909 637 350 619.091 350 597C350 574.909 367.909 557 390 557C412.091 557 430 574.909 430 597Z" fill="#CD08D1"/>
<path id="Ellipse 5" d="M773 546C773 568.091 755.091 586 733 586C710.909 586 693 568.091 693 546C693 523.909 710.909 506 733 506C755.091 506 773 523.909 773 546Z" fill="#CD08D1"/>
<path id="A" d="M55.0938 500.406H37.4688L33.7812 511H25.5625L42.75 465.5H49.8438L67.0625 511H58.8125L55.0938 500.406ZM39.6875 494.031H52.875L46.2812 475.156L39.6875 494.031Z" fill="white"/>
<path id="B" d="M34.625 616V570.5H50.2188C55.3646 570.5 59.2812 571.531 61.9688 573.594C64.6562 575.656 66 578.729 66 582.812C66 584.896 65.4375 586.771 64.3125 588.438C63.1875 590.104 61.5417 591.396 59.375 592.312C61.8333 592.979 63.7292 594.24 65.0625 596.094C66.4167 597.927 67.0938 600.135 67.0938 602.719C67.0938 606.99 65.7188 610.271 62.9688 612.562C60.2396 614.854 56.3229 616 51.2188 616H34.625ZM42.5312 595.469V609.688H51.3125C53.7917 609.688 55.7292 609.073 57.125 607.844C58.5208 606.615 59.2188 604.906 59.2188 602.719C59.2188 597.99 56.8021 595.573 51.9688 595.469H42.5312ZM42.5312 589.656H50.2812C52.7396 589.656 54.6562 589.104 56.0312 588C57.4271 586.875 58.125 585.292 58.125 583.25C58.125 581 57.4792 579.375 56.1875 578.375C54.9167 577.375 52.9271 576.875 50.2188 576.875H42.5312V589.656Z" fill="white"/>
<path id="C" d="M404.344 494.188C403.885 499.042 402.094 502.833 398.969 505.562C395.844 508.271 391.688 509.625 386.5 509.625C382.875 509.625 379.677 508.771 376.906 507.062C374.156 505.333 372.031 502.885 370.531 499.719C369.031 496.552 368.25 492.875 368.188 488.688V484.438C368.188 480.146 368.948 476.365 370.469 473.094C371.99 469.823 374.167 467.302 377 465.531C379.854 463.76 383.146 462.875 386.875 462.875C391.896 462.875 395.938 464.24 399 466.969C402.062 469.698 403.844 473.552 404.344 478.531H396.469C396.094 475.26 395.135 472.906 393.594 471.469C392.073 470.01 389.833 469.281 386.875 469.281C383.438 469.281 380.792 470.542 378.938 473.062C377.104 475.562 376.167 479.24 376.125 484.094V488.125C376.125 493.042 377 496.792 378.75 499.375C380.521 501.958 383.104 503.25 386.5 503.25C389.604 503.25 391.938 502.552 393.5 501.156C395.062 499.76 396.052 497.438 396.469 494.188H404.344Z" fill="white"/>
<path id="D" d="M372.625 619V573.5H386.062C390.083 573.5 393.646 574.396 396.75 576.188C399.875 577.979 402.292 580.521 404 583.812C405.708 587.104 406.562 590.875 406.562 595.125V597.406C406.562 601.719 405.698 605.51 403.969 608.781C402.26 612.052 399.812 614.573 396.625 616.344C393.458 618.115 389.823 619 385.719 619H372.625ZM380.531 579.875V612.688H385.688C389.833 612.688 393.01 611.396 395.219 608.812C397.448 606.208 398.583 602.479 398.625 597.625V595.094C398.625 590.156 397.552 586.385 395.406 583.781C393.26 581.177 390.146 579.875 386.062 579.875H380.531Z" fill="white"/>
<path id="E" d="M742.219 547.688H723.531V561.688H745.375V568H715.625V522.5H745.156V528.875H723.531V541.438H742.219V547.688Z" fill="white"/>
<g id="Group 338">
<path id="17" d="M150.773 507H144V480.891L135.914 483.398V477.891L150.047 472.828H150.773V507ZM185.086 476.672L171.891 507H164.742L177.961 478.359H160.992V472.875H185.086V476.672Z" fill="#CD08D1"/>
<path id="10" d="M148.773 615H142V588.891L133.914 591.398V585.891L148.047 580.828H148.773V615ZM182.852 600.891C182.852 605.609 181.875 609.219 179.922 611.719C177.969 614.219 175.109 615.469 171.344 615.469C167.625 615.469 164.781 614.242 162.812 611.789C160.844 609.336 159.836 605.82 159.789 601.242V594.961C159.789 590.195 160.773 586.578 162.742 584.109C164.727 581.641 167.578 580.406 171.297 580.406C175.016 580.406 177.859 581.633 179.828 584.086C181.797 586.523 182.805 590.031 182.852 594.609V600.891ZM176.078 594C176.078 591.172 175.688 589.117 174.906 587.836C174.141 586.539 172.938 585.891 171.297 585.891C169.703 585.891 168.523 586.508 167.758 587.742C167.008 588.961 166.609 590.875 166.562 593.484V601.781C166.562 604.562 166.938 606.633 167.688 607.992C168.453 609.336 169.672 610.008 171.344 610.008C173 610.008 174.195 609.359 174.93 608.062C175.664 606.766 176.047 604.781 176.078 602.109V594Z" fill="#CD08D1"/>
<path id="27" d="M497.711 507H474.32V502.359L485.359 490.594C486.875 488.938 487.992 487.492 488.711 486.258C489.445 485.023 489.812 483.852 489.812 482.742C489.812 481.227 489.43 480.039 488.664 479.18C487.898 478.305 486.805 477.867 485.383 477.867C483.852 477.867 482.641 478.398 481.75 479.461C480.875 480.508 480.438 481.891 480.438 483.609H473.641C473.641 481.531 474.133 479.633 475.117 477.914C476.117 476.195 477.523 474.852 479.336 473.883C481.148 472.898 483.203 472.406 485.5 472.406C489.016 472.406 491.742 473.25 493.68 474.938C495.633 476.625 496.609 479.008 496.609 482.086C496.609 483.773 496.172 485.492 495.297 487.242C494.422 488.992 492.922 491.031 490.797 493.359L483.039 501.539H497.711V507ZM525.086 476.672L511.891 507H504.742L517.961 478.359H500.992V472.875H525.086V476.672Z" fill="#CD08D1"/>
<path id="11" d="M488.773 613H482V586.891L473.914 589.398V583.891L488.047 578.828H488.773V613ZM516.336 613H509.562V586.891L501.477 589.398V583.891L515.609 578.828H516.336V613Z" fill="#CD08D1"/>
<path id="13" d="M846.773 563H840V536.891L831.914 539.398V533.891L846.047 528.828H846.773V563ZM864.773 542.938H868.383C870.102 542.938 871.375 542.508 872.203 541.648C873.031 540.789 873.445 539.648 873.445 538.227C873.445 536.852 873.031 535.781 872.203 535.016C871.391 534.25 870.266 533.867 868.828 533.867C867.531 533.867 866.445 534.227 865.57 534.945C864.695 535.648 864.258 536.57 864.258 537.711H857.484C857.484 535.93 857.961 534.336 858.914 532.93C859.883 531.508 861.227 530.398 862.945 529.602C864.68 528.805 866.586 528.406 868.664 528.406C872.273 528.406 875.102 529.273 877.148 531.008C879.195 532.727 880.219 535.102 880.219 538.133C880.219 539.695 879.742 541.133 878.789 542.445C877.836 543.758 876.586 544.766 875.039 545.469C876.961 546.156 878.391 547.188 879.328 548.562C880.281 549.938 880.758 551.562 880.758 553.438C880.758 556.469 879.648 558.898 877.43 560.727C875.227 562.555 872.305 563.469 868.664 563.469C865.258 563.469 862.469 562.57 860.297 560.773C858.141 558.977 857.062 556.602 857.062 553.648H863.836C863.836 554.93 864.312 555.977 865.266 556.789C866.234 557.602 867.422 558.008 868.828 558.008C870.438 558.008 871.695 557.586 872.602 556.742C873.523 555.883 873.984 554.75 873.984 553.344C873.984 549.938 872.109 548.234 868.359 548.234H864.773V542.938Z" fill="#CD08D1"/>
</g>
<g id="flecha">
<path id="Rectangle 2" d="M58.2002 449.008L73.482 457.133L31.5004 536.089L16.2186 527.964L58.2002 449.008Z" fill="#1043F5"/>
<path id="Rectangle 1_2" d="M0 461.904L90 412V469.692L45 452.096L0 461.904Z" fill="#1043F5"/>
<path id="Rectangle 3" d="M4.03857 531.209L19.6657 504.142L36.9364 503.564L21.3092 530.631L4.03857 531.209Z" fill="#1043F5"/>
<path id="Rectangle 4_2" d="M30.0894 545.845L45.7165 518.778L36.9258 503.154L21.2986 530.221L30.0894 545.845Z" fill="#1043F5"/>
</g>
</g>
<g id="Group 341">
<g id="Si: La relaci&#195;&#179;n general es Adem&#195;&#161;s: n &#62; 0. Calcular:">
<path d="M79.5117 98.7556C76.6172 97.9236 74.5078 96.9041 73.1836 95.697C71.8711 94.4783 71.2148 92.9783 71.2148 91.197C71.2148 89.1814 72.0176 87.5173 73.623 86.2048C75.2402 84.8806 77.3379 84.2185 79.916 84.2185C81.6738 84.2185 83.2383 84.5583 84.6094 85.238C85.9922 85.9177 87.0586 86.8552 87.8086 88.0505C88.5703 89.2458 88.9512 90.5525 88.9512 91.9705H85.5586C85.5586 90.4236 85.0664 89.2107 84.082 88.3318C83.0977 87.4412 81.709 86.9958 79.916 86.9958C78.252 86.9958 76.9512 87.365 76.0137 88.1033C75.0879 88.8298 74.625 89.8435 74.625 91.1443C74.625 92.1873 75.0645 93.072 75.9434 93.7986C76.834 94.5134 78.3398 95.1697 80.4609 95.7673C82.5938 96.365 84.2578 97.0271 85.4531 97.7537C86.6602 98.4685 87.5508 99.3064 88.125 100.267C88.7109 101.228 89.0039 102.359 89.0039 103.66C89.0039 105.734 88.1953 107.398 86.5781 108.652C84.9609 109.894 82.7988 110.515 80.0918 110.515C78.334 110.515 76.6934 110.181 75.1699 109.513C73.6465 108.834 72.4688 107.908 71.6367 106.736C70.8164 105.564 70.4062 104.234 70.4062 102.746H73.7988C73.7988 104.293 74.3672 105.517 75.5039 106.42C76.6523 107.31 78.1816 107.756 80.0918 107.756C81.873 107.756 83.2383 107.392 84.1875 106.666C85.1367 105.939 85.6113 104.949 85.6113 103.695C85.6113 102.441 85.1719 101.474 84.293 100.795C83.4141 100.103 81.8203 99.4236 79.5117 98.7556Z" fill="white"/>
<path d="M96.3691 110.164H93.1172V91.1443H96.3691V110.164ZM92.8535 86.0994C92.8535 85.572 93.0117 85.1267 93.3281 84.7634C93.6562 84.4001 94.1367 84.2185 94.7695 84.2185C95.4023 84.2185 95.8828 84.4001 96.2109 84.7634C96.5391 85.1267 96.7031 85.572 96.7031 86.0994C96.7031 86.6267 96.5391 87.0662 96.2109 87.4177C95.8828 87.7693 95.4023 87.9451 94.7695 87.9451C94.1367 87.9451 93.6562 87.7693 93.3281 87.4177C93.0117 87.0662 92.8535 86.6267 92.8535 86.0994Z" fill="white"/>
<path d="M101.484 108.459C101.484 107.896 101.648 107.427 101.977 107.052C102.316 106.677 102.82 106.49 103.488 106.49C104.156 106.49 104.66 106.677 105 107.052C105.352 107.427 105.527 107.896 105.527 108.459C105.527 108.998 105.352 109.449 105 109.812C104.66 110.176 104.156 110.357 103.488 110.357C102.82 110.357 102.316 110.176 101.977 109.812C101.648 109.449 101.484 108.998 101.484 108.459ZM101.502 92.9373C101.502 92.3748 101.666 91.906 101.994 91.531C102.334 91.156 102.838 90.9685 103.506 90.9685C104.174 90.9685 104.678 91.156 105.018 91.531C105.369 91.906 105.545 92.3748 105.545 92.9373C105.545 93.4763 105.369 93.9275 105.018 94.2908C104.678 94.6541 104.174 94.8357 103.506 94.8357C102.838 94.8357 102.334 94.6541 101.994 94.2908C101.666 93.9275 101.502 93.4763 101.502 92.9373Z" fill="white"/>
<path d="M84.293 207.404H96.4219V210.164H80.9004V184.57H84.293V207.404Z" fill="white"/>
<path d="M111.504 210.164C111.316 209.789 111.164 209.121 111.047 208.16C109.535 209.73 107.73 210.515 105.633 210.515C103.758 210.515 102.217 209.988 101.01 208.933C99.8145 207.867 99.2168 206.519 99.2168 204.89C99.2168 202.91 99.9668 201.375 101.467 200.285C102.979 199.183 105.1 198.633 107.83 198.633H110.994V197.138C110.994 196.002 110.654 195.099 109.975 194.431C109.295 193.752 108.293 193.412 106.969 193.412C105.809 193.412 104.836 193.705 104.051 194.291C103.266 194.877 102.873 195.586 102.873 196.418H99.6035C99.6035 195.469 99.9375 194.554 100.605 193.676C101.285 192.785 102.199 192.082 103.348 191.566C104.508 191.051 105.779 190.793 107.162 190.793C109.354 190.793 111.07 191.344 112.312 192.445C113.555 193.535 114.199 195.041 114.246 196.963V205.717C114.246 207.463 114.469 208.851 114.914 209.883V210.164H111.504ZM106.107 207.685C107.127 207.685 108.094 207.422 109.008 206.894C109.922 206.367 110.584 205.681 110.994 204.838V200.935H108.445C104.461 200.935 102.469 202.101 102.469 204.433C102.469 205.453 102.809 206.25 103.488 206.824C104.168 207.398 105.041 207.685 106.107 207.685Z" fill="white"/>
<path d="M137.467 194.062C136.975 193.98 136.441 193.939 135.867 193.939C133.734 193.939 132.287 194.847 131.525 196.664V210.164H128.273V191.144H131.438L131.49 193.342C132.557 191.642 134.068 190.793 136.025 190.793C136.658 190.793 137.139 190.875 137.467 191.039V194.062Z" fill="white"/>
<path d="M148.014 210.515C145.436 210.515 143.338 209.672 141.721 207.984C140.104 206.285 139.295 204.017 139.295 201.181V200.584C139.295 198.697 139.652 197.015 140.367 195.539C141.094 194.051 142.102 192.89 143.391 192.058C144.691 191.215 146.098 190.793 147.609 190.793C150.082 190.793 152.004 191.607 153.375 193.236C154.746 194.865 155.432 197.197 155.432 200.232V201.586H142.547C142.594 203.461 143.139 204.978 144.182 206.138C145.236 207.287 146.572 207.861 148.189 207.861C149.338 207.861 150.311 207.627 151.107 207.158C151.904 206.689 152.602 206.068 153.199 205.295L155.186 206.842C153.592 209.291 151.201 210.515 148.014 210.515ZM147.609 193.465C146.297 193.465 145.195 193.945 144.305 194.906C143.414 195.855 142.863 197.191 142.652 198.914H152.18V198.668C152.086 197.015 151.641 195.738 150.844 194.836C150.047 193.922 148.969 193.465 147.609 193.465Z" fill="white"/>
<path d="M162.744 210.164H159.492V183.164H162.744V210.164Z" fill="white"/>
<path d="M179.707 210.164C179.52 209.789 179.367 209.121 179.25 208.16C177.738 209.73 175.934 210.515 173.836 210.515C171.961 210.515 170.42 209.988 169.213 208.933C168.018 207.867 167.42 206.519 167.42 204.89C167.42 202.91 168.17 201.375 169.67 200.285C171.182 199.183 173.303 198.633 176.033 198.633H179.197V197.138C179.197 196.002 178.857 195.099 178.178 194.431C177.498 193.752 176.496 193.412 175.172 193.412C174.012 193.412 173.039 193.705 172.254 194.291C171.469 194.877 171.076 195.586 171.076 196.418H167.807C167.807 195.469 168.141 194.554 168.809 193.676C169.488 192.785 170.402 192.082 171.551 191.566C172.711 191.051 173.982 190.793 175.365 190.793C177.557 190.793 179.273 191.344 180.516 192.445C181.758 193.535 182.402 195.041 182.449 196.963V205.717C182.449 207.463 182.672 208.851 183.117 209.883V210.164H179.707ZM174.311 207.685C175.33 207.685 176.297 207.422 177.211 206.894C178.125 206.367 178.787 205.681 179.197 204.838V200.935H176.648C172.664 200.935 170.672 202.101 170.672 204.433C170.672 205.453 171.012 206.25 171.691 206.824C172.371 207.398 173.244 207.685 174.311 207.685Z" fill="white"/>
<path d="M195.176 207.861C196.336 207.861 197.35 207.51 198.217 206.806C199.084 206.103 199.564 205.224 199.658 204.17H202.734C202.676 205.26 202.301 206.297 201.609 207.281C200.918 208.265 199.992 209.051 198.832 209.636C197.684 210.222 196.465 210.515 195.176 210.515C192.586 210.515 190.523 209.654 188.988 207.931C187.465 206.197 186.703 203.83 186.703 200.83V200.285C186.703 198.433 187.043 196.787 187.723 195.345C188.402 193.904 189.375 192.785 190.641 191.988C191.918 191.191 193.424 190.793 195.158 190.793C197.291 190.793 199.061 191.431 200.467 192.709C201.885 193.986 202.641 195.644 202.734 197.683H199.658C199.564 196.453 199.096 195.445 198.252 194.66C197.42 193.863 196.389 193.465 195.158 193.465C193.506 193.465 192.223 194.062 191.309 195.258C190.406 196.441 189.955 198.158 189.955 200.408V201.023C189.955 203.215 190.406 204.902 191.309 206.086C192.211 207.269 193.5 207.861 195.176 207.861Z" fill="white"/>
<path d="M209.924 210.164H206.672V191.144H209.924V210.164ZM206.408 186.099C206.408 185.572 206.566 185.127 206.883 184.763C207.211 184.4 207.691 184.219 208.324 184.219C208.957 184.219 209.438 184.4 209.766 184.763C210.094 185.127 210.258 185.572 210.258 186.099C210.258 186.627 210.094 187.066 209.766 187.418C209.438 187.769 208.957 187.945 208.324 187.945C207.691 187.945 207.211 187.769 206.883 187.418C206.566 187.066 206.408 186.627 206.408 186.099Z" fill="white"/>
<path d="M214.283 200.478C214.283 198.615 214.646 196.939 215.373 195.451C216.111 193.963 217.131 192.814 218.432 192.006C219.744 191.197 221.238 190.793 222.914 190.793C225.504 190.793 227.596 191.689 229.189 193.482C230.795 195.275 231.598 197.66 231.598 200.636V200.865C231.598 202.717 231.24 204.381 230.525 205.857C229.822 207.322 228.809 208.465 227.484 209.285C226.172 210.105 224.66 210.515 222.949 210.515C220.371 210.515 218.279 209.619 216.674 207.826C215.08 206.033 214.283 203.66 214.283 200.707V200.478ZM217.553 200.865C217.553 202.974 218.039 204.668 219.012 205.945C219.996 207.222 221.309 207.861 222.949 207.861C224.602 207.861 225.914 207.217 226.887 205.927C227.859 204.627 228.346 202.81 228.346 200.478C228.346 198.392 227.848 196.705 226.852 195.416C225.867 194.115 224.555 193.465 222.914 193.465C221.309 193.465 220.014 194.103 219.029 195.381C218.045 196.658 217.553 198.486 217.553 200.865ZM224.391 183.164H228.328L223.617 188.332H220.998L224.391 183.164Z" fill="white"/>
<path d="M238.752 191.144L238.857 193.535C240.311 191.707 242.209 190.793 244.553 190.793C248.572 190.793 250.6 193.06 250.635 197.595V210.164H247.383V197.578C247.371 196.207 247.055 195.193 246.434 194.537C245.824 193.881 244.869 193.552 243.568 193.552C242.514 193.552 241.588 193.834 240.791 194.396C239.994 194.959 239.373 195.697 238.928 196.611V210.164H235.676V191.144H238.752Z" fill="white"/>
<path d="M263.695 200.496C263.695 197.531 264.381 195.176 265.752 193.429C267.123 191.672 268.939 190.793 271.201 190.793C273.521 190.793 275.332 191.613 276.633 193.254L276.791 191.144H279.762V209.707C279.762 212.168 279.029 214.107 277.564 215.525C276.111 216.943 274.154 217.652 271.693 217.652C270.322 217.652 268.98 217.359 267.668 216.773C266.355 216.187 265.354 215.385 264.662 214.365L266.35 212.414C267.744 214.136 269.449 214.998 271.465 214.998C273.047 214.998 274.277 214.552 275.156 213.662C276.047 212.771 276.492 211.517 276.492 209.9V208.265C275.191 209.765 273.416 210.515 271.166 210.515C268.939 210.515 267.135 209.619 265.752 207.826C264.381 206.033 263.695 203.59 263.695 200.496ZM266.965 200.865C266.965 203.01 267.404 204.697 268.283 205.927C269.162 207.146 270.393 207.756 271.975 207.756C274.025 207.756 275.531 206.824 276.492 204.961V196.277C275.496 194.461 274.002 193.552 272.01 193.552C270.428 193.552 269.191 194.168 268.301 195.398C267.41 196.629 266.965 198.451 266.965 200.865Z" fill="white"/>
<path d="M292.576 210.515C289.998 210.515 287.9 209.672 286.283 207.984C284.666 206.285 283.857 204.017 283.857 201.181V200.584C283.857 198.697 284.215 197.015 284.93 195.539C285.656 194.051 286.664 192.89 287.953 192.058C289.254 191.215 290.66 190.793 292.172 190.793C294.645 190.793 296.566 191.607 297.938 193.236C299.309 194.865 299.994 197.197 299.994 200.232V201.586H287.109C287.156 203.461 287.701 204.978 288.744 206.138C289.799 207.287 291.135 207.861 292.752 207.861C293.9 207.861 294.873 207.627 295.67 207.158C296.467 206.689 297.164 206.068 297.762 205.295L299.748 206.842C298.154 209.291 295.764 210.515 292.576 210.515ZM292.172 193.465C290.859 193.465 289.758 193.945 288.867 194.906C287.977 195.855 287.426 197.191 287.215 198.914H296.742V198.668C296.648 197.015 296.203 195.738 295.406 194.836C294.609 193.922 293.531 193.465 292.172 193.465Z" fill="white"/>
<path d="M306.85 191.144L306.955 193.535C308.408 191.707 310.307 190.793 312.65 190.793C316.67 190.793 318.697 193.06 318.732 197.595V210.164H315.48V197.578C315.469 196.207 315.152 195.193 314.531 194.537C313.922 193.881 312.967 193.552 311.666 193.552C310.611 193.552 309.686 193.834 308.889 194.396C308.092 194.959 307.471 195.697 307.025 196.611V210.164H303.773V191.144H306.85Z" fill="white"/>
<path d="M331.529 210.515C328.951 210.515 326.854 209.672 325.236 207.984C323.619 206.285 322.811 204.017 322.811 201.181V200.584C322.811 198.697 323.168 197.015 323.883 195.539C324.609 194.051 325.617 192.89 326.906 192.058C328.207 191.215 329.613 190.793 331.125 190.793C333.598 190.793 335.52 191.607 336.891 193.236C338.262 194.865 338.947 197.197 338.947 200.232V201.586H326.062C326.109 203.461 326.654 204.978 327.697 206.138C328.752 207.287 330.088 207.861 331.705 207.861C332.854 207.861 333.826 207.627 334.623 207.158C335.42 206.689 336.117 206.068 336.715 205.295L338.701 206.842C337.107 209.291 334.717 210.515 331.529 210.515ZM331.125 193.465C329.812 193.465 328.711 193.945 327.82 194.906C326.93 195.855 326.379 197.191 326.168 198.914H335.695V198.668C335.602 197.015 335.156 195.738 334.359 194.836C333.562 193.922 332.484 193.465 331.125 193.465Z" fill="white"/>
<path d="M351.92 194.062C351.428 193.98 350.895 193.939 350.32 193.939C348.188 193.939 346.74 194.847 345.979 196.664V210.164H342.727V191.144H345.891L345.943 193.342C347.01 191.642 348.521 190.793 350.479 190.793C351.111 190.793 351.592 190.875 351.92 191.039V194.062Z" fill="white"/>
<path d="M365.965 210.164C365.777 209.789 365.625 209.121 365.508 208.16C363.996 209.73 362.191 210.515 360.094 210.515C358.219 210.515 356.678 209.988 355.471 208.933C354.275 207.867 353.678 206.519 353.678 204.89C353.678 202.91 354.428 201.375 355.928 200.285C357.439 199.183 359.561 198.633 362.291 198.633H365.455V197.138C365.455 196.002 365.115 195.099 364.436 194.431C363.756 193.752 362.754 193.412 361.43 193.412C360.27 193.412 359.297 193.705 358.512 194.291C357.727 194.877 357.334 195.586 357.334 196.418H354.064C354.064 195.469 354.398 194.554 355.066 193.676C355.746 192.785 356.66 192.082 357.809 191.566C358.969 191.051 360.24 190.793 361.623 190.793C363.814 190.793 365.531 191.344 366.773 192.445C368.016 193.535 368.66 195.041 368.707 196.963V205.717C368.707 207.463 368.93 208.851 369.375 209.883V210.164H365.965ZM360.568 207.685C361.588 207.685 362.555 207.422 363.469 206.894C364.383 206.367 365.045 205.681 365.455 204.838V200.935H362.906C358.922 200.935 356.93 202.101 356.93 204.433C356.93 205.453 357.27 206.25 357.949 206.824C358.629 207.398 359.502 207.685 360.568 207.685Z" fill="white"/>
<path d="M377.338 210.164H374.086V183.164H377.338V210.164Z" fill="white"/>
<path d="M399.381 210.515C396.803 210.515 394.705 209.672 393.088 207.984C391.471 206.285 390.662 204.017 390.662 201.181V200.584C390.662 198.697 391.02 197.015 391.734 195.539C392.461 194.051 393.469 192.89 394.758 192.058C396.059 191.215 397.465 190.793 398.977 190.793C401.449 190.793 403.371 191.607 404.742 193.236C406.113 194.865 406.799 197.197 406.799 200.232V201.586H393.914C393.961 203.461 394.506 204.978 395.549 206.138C396.604 207.287 397.939 207.861 399.557 207.861C400.705 207.861 401.678 207.627 402.475 207.158C403.271 206.689 403.969 206.068 404.566 205.295L406.553 206.842C404.959 209.291 402.568 210.515 399.381 210.515ZM398.977 193.465C397.664 193.465 396.562 193.945 395.672 194.906C394.781 195.855 394.23 197.191 394.02 198.914H403.547V198.668C403.453 197.015 403.008 195.738 402.211 194.836C401.414 193.922 400.336 193.465 398.977 193.465Z" fill="white"/>
<path d="M421.652 205.119C421.652 204.24 421.318 203.56 420.65 203.08C419.994 202.588 418.84 202.166 417.188 201.814C415.547 201.463 414.24 201.041 413.268 200.549C412.307 200.056 411.592 199.47 411.123 198.791C410.666 198.111 410.438 197.302 410.438 196.365C410.438 194.806 411.094 193.488 412.406 192.41C413.73 191.332 415.418 190.793 417.469 190.793C419.625 190.793 421.371 191.349 422.707 192.463C424.055 193.576 424.729 195 424.729 196.734H421.459C421.459 195.844 421.078 195.076 420.316 194.431C419.566 193.787 418.617 193.465 417.469 193.465C416.285 193.465 415.359 193.722 414.691 194.238C414.023 194.754 413.689 195.427 413.689 196.26C413.689 197.045 414 197.636 414.621 198.035C415.242 198.433 416.361 198.814 417.979 199.177C419.607 199.541 420.926 199.974 421.934 200.478C422.941 200.982 423.686 201.592 424.166 202.306C424.658 203.01 424.904 203.871 424.904 204.89C424.904 206.59 424.225 207.955 422.865 208.986C421.506 210.006 419.742 210.515 417.574 210.515C416.051 210.515 414.703 210.246 413.531 209.707C412.359 209.168 411.439 208.418 410.771 207.457C410.115 206.484 409.787 205.435 409.787 204.31H413.039C413.098 205.4 413.531 206.267 414.34 206.912C415.16 207.545 416.238 207.861 417.574 207.861C418.805 207.861 419.789 207.615 420.527 207.123C421.277 206.619 421.652 205.951 421.652 205.119Z" fill="white"/>
<path d="M86.1035 353.484H75.3809L72.9727 360.164H69.4922L79.2656 334.57H82.2188L92.0098 360.164H88.5469L86.1035 353.484ZM76.4004 350.707H85.1016L80.7422 338.736L76.4004 350.707Z" fill="white"/>
<path d="M94.1543 350.496C94.1543 347.578 94.8457 345.234 96.2285 343.465C97.6113 341.683 99.4219 340.793 101.66 340.793C103.887 340.793 105.65 341.554 106.951 343.078V333.164H110.203V360.164H107.215L107.057 358.125C105.756 359.719 103.945 360.515 101.625 360.515C99.4219 360.515 97.623 359.613 96.2285 357.808C94.8457 356.004 94.1543 353.648 94.1543 350.742V350.496ZM97.4062 350.865C97.4062 353.021 97.8516 354.709 98.7422 355.927C99.6328 357.146 100.863 357.756 102.434 357.756C104.496 357.756 106.002 356.83 106.951 354.978V346.242C105.979 344.449 104.484 343.552 102.469 343.552C100.875 343.552 99.6328 344.168 98.7422 345.398C97.8516 346.629 97.4062 348.451 97.4062 350.865Z" fill="white"/>
<path d="M123.158 360.515C120.58 360.515 118.482 359.672 116.865 357.984C115.248 356.285 114.439 354.017 114.439 351.181V350.584C114.439 348.697 114.797 347.015 115.512 345.539C116.238 344.051 117.246 342.89 118.535 342.058C119.836 341.215 121.242 340.793 122.754 340.793C125.227 340.793 127.148 341.607 128.52 343.236C129.891 344.865 130.576 347.197 130.576 350.232V351.586H117.691C117.738 353.461 118.283 354.978 119.326 356.138C120.381 357.287 121.717 357.861 123.334 357.861C124.482 357.861 125.455 357.627 126.252 357.158C127.049 356.689 127.746 356.068 128.344 355.295L130.33 356.842C128.736 359.291 126.346 360.515 123.158 360.515ZM122.754 343.465C121.441 343.465 120.34 343.945 119.449 344.906C118.559 345.855 118.008 347.191 117.797 348.914H127.324V348.668C127.23 347.015 126.785 345.738 125.988 344.836C125.191 343.922 124.113 343.465 122.754 343.465Z" fill="white"/>
<path d="M137.414 341.144L137.502 343.254C138.896 341.613 140.777 340.793 143.145 340.793C145.805 340.793 147.615 341.812 148.576 343.851C149.209 342.937 150.029 342.199 151.037 341.636C152.057 341.074 153.258 340.793 154.641 340.793C158.812 340.793 160.934 343.002 161.004 347.42V360.164H157.752V347.613C157.752 346.254 157.441 345.24 156.82 344.572C156.199 343.892 155.156 343.552 153.691 343.552C152.484 343.552 151.482 343.916 150.686 344.642C149.889 345.357 149.426 346.324 149.297 347.543V360.164H146.027V347.701C146.027 344.935 144.674 343.552 141.967 343.552C139.834 343.552 138.375 344.461 137.59 346.277V360.164H134.338V341.144H137.414Z" fill="white"/>
<path d="M177.668 360.164C177.48 359.789 177.328 359.121 177.211 358.16C175.699 359.73 173.895 360.515 171.797 360.515C169.922 360.515 168.381 359.988 167.174 358.933C165.979 357.867 165.381 356.519 165.381 354.89C165.381 352.91 166.131 351.375 167.631 350.285C169.143 349.183 171.264 348.633 173.994 348.633H177.158V347.138C177.158 346.002 176.818 345.099 176.139 344.431C175.459 343.752 174.457 343.412 173.133 343.412C171.973 343.412 171 343.705 170.215 344.291C169.43 344.877 169.037 345.586 169.037 346.418H165.768C165.768 345.469 166.102 344.554 166.77 343.676C167.449 342.785 168.363 342.082 169.512 341.566C170.672 341.051 171.943 340.793 173.326 340.793C175.518 340.793 177.234 341.344 178.477 342.445C179.719 343.535 180.363 345.041 180.41 346.963V355.717C180.41 357.463 180.633 358.851 181.078 359.883V360.164H177.668ZM172.271 357.685C173.291 357.685 174.258 357.422 175.172 356.894C176.086 356.367 176.748 355.681 177.158 354.838V350.935H174.609C170.625 350.935 168.633 352.101 168.633 354.433C168.633 355.453 168.973 356.25 169.652 356.824C170.332 357.398 171.205 357.685 172.271 357.685ZM175.277 333.164H179.215L174.504 338.332H171.885L175.277 333.164Z" fill="white"/>
<path d="M196.582 355.119C196.582 354.24 196.248 353.56 195.58 353.08C194.924 352.588 193.77 352.166 192.117 351.814C190.477 351.463 189.17 351.041 188.197 350.549C187.236 350.056 186.521 349.47 186.053 348.791C185.596 348.111 185.367 347.302 185.367 346.365C185.367 344.806 186.023 343.488 187.336 342.41C188.66 341.332 190.348 340.793 192.398 340.793C194.555 340.793 196.301 341.349 197.637 342.463C198.984 343.576 199.658 345 199.658 346.734H196.389C196.389 345.844 196.008 345.076 195.246 344.431C194.496 343.787 193.547 343.465 192.398 343.465C191.215 343.465 190.289 343.722 189.621 344.238C188.953 344.754 188.619 345.427 188.619 346.26C188.619 347.045 188.93 347.636 189.551 348.035C190.172 348.433 191.291 348.814 192.908 349.177C194.537 349.541 195.855 349.974 196.863 350.478C197.871 350.982 198.615 351.592 199.096 352.306C199.588 353.01 199.834 353.871 199.834 354.89C199.834 356.59 199.154 357.955 197.795 358.986C196.436 360.006 194.672 360.515 192.504 360.515C190.98 360.515 189.633 360.246 188.461 359.707C187.289 359.168 186.369 358.418 185.701 357.457C185.045 356.484 184.717 355.435 184.717 354.31H187.969C188.027 355.4 188.461 356.267 189.27 356.912C190.09 357.545 191.168 357.861 192.504 357.861C193.734 357.861 194.719 357.615 195.457 357.123C196.207 356.619 196.582 355.951 196.582 355.119Z" fill="white"/>
<path d="M203.965 358.459C203.965 357.896 204.129 357.427 204.457 357.052C204.797 356.677 205.301 356.49 205.969 356.49C206.637 356.49 207.141 356.677 207.48 357.052C207.832 357.427 208.008 357.896 208.008 358.459C208.008 358.998 207.832 359.449 207.48 359.812C207.141 360.176 206.637 360.357 205.969 360.357C205.301 360.357 204.797 360.176 204.457 359.812C204.129 359.449 203.965 358.998 203.965 358.459ZM203.982 342.937C203.982 342.375 204.146 341.906 204.475 341.531C204.814 341.156 205.318 340.969 205.986 340.969C206.654 340.969 207.158 341.156 207.498 341.531C207.85 341.906 208.025 342.375 208.025 342.937C208.025 343.476 207.85 343.927 207.498 344.291C207.158 344.654 206.654 344.836 205.986 344.836C205.318 344.836 204.814 344.654 204.475 344.291C204.146 343.927 203.982 343.476 203.982 342.937Z" fill="white"/>
<path d="M224.795 341.144L224.9 343.535C226.354 341.707 228.252 340.793 230.596 340.793C234.615 340.793 236.643 343.06 236.678 347.595V360.164H233.426V347.578C233.414 346.207 233.098 345.193 232.477 344.537C231.867 343.881 230.912 343.552 229.611 343.552C228.557 343.552 227.631 343.834 226.834 344.396C226.037 344.959 225.416 345.697 224.971 346.611V360.164H221.719V341.144H224.795Z" fill="white"/>
<path d="M262.025 348.738L250.406 344.185V340.845L265.418 347.49V350.056L250.406 356.719V353.344L262.025 348.738Z" fill="white"/>
<path d="M293.965 349.248C293.965 353.056 293.314 355.886 292.014 357.738C290.713 359.59 288.68 360.515 285.914 360.515C283.184 360.515 281.162 359.613 279.85 357.808C278.537 355.992 277.857 353.285 277.811 349.687V345.345C277.811 341.584 278.461 338.789 279.762 336.961C281.062 335.133 283.102 334.219 285.879 334.219C288.633 334.219 290.66 335.103 291.961 336.873C293.262 338.631 293.93 341.349 293.965 345.029V349.248ZM290.713 344.801C290.713 342.047 290.326 340.043 289.553 338.789C288.779 337.523 287.555 336.89 285.879 336.89C284.215 336.89 283.002 337.517 282.24 338.771C281.479 340.025 281.086 341.953 281.062 344.554V349.758C281.062 352.523 281.461 354.568 282.258 355.892C283.066 357.205 284.285 357.861 285.914 357.861C287.52 357.861 288.709 357.24 289.482 355.998C290.268 354.756 290.678 352.799 290.713 350.127V344.801Z" fill="white"/>
<path d="M298.535 358.459C298.535 357.896 298.699 357.427 299.027 357.052C299.367 356.677 299.871 356.49 300.539 356.49C301.207 356.49 301.711 356.677 302.051 357.052C302.402 357.427 302.578 357.896 302.578 358.459C302.578 358.998 302.402 359.449 302.051 359.812C301.711 360.176 301.207 360.357 300.539 360.357C299.871 360.357 299.367 360.176 299.027 359.812C298.699 359.449 298.535 358.998 298.535 358.459Z" fill="white"/>
<path d="M345.152 352.043C344.836 354.75 343.834 356.842 342.146 358.318C340.471 359.783 338.238 360.515 335.449 360.515C332.426 360.515 330 359.431 328.172 357.263C326.355 355.095 325.447 352.195 325.447 348.562V346.101C325.447 343.722 325.869 341.631 326.713 339.826C327.568 338.021 328.775 336.638 330.334 335.677C331.893 334.705 333.697 334.219 335.748 334.219C338.467 334.219 340.646 334.98 342.287 336.504C343.928 338.015 344.883 340.113 345.152 342.797H341.76C341.467 340.758 340.828 339.281 339.844 338.367C338.871 337.453 337.506 336.996 335.748 336.996C333.592 336.996 331.898 337.793 330.668 339.386C329.449 340.98 328.84 343.248 328.84 346.189V348.668C328.84 351.445 329.42 353.654 330.58 355.295C331.74 356.935 333.363 357.756 335.449 357.756C337.324 357.756 338.76 357.334 339.756 356.49C340.764 355.635 341.432 354.152 341.76 352.043H345.152Z" fill="white"/>
<path d="M361.008 360.164C360.82 359.789 360.668 359.121 360.551 358.16C359.039 359.73 357.234 360.515 355.137 360.515C353.262 360.515 351.721 359.988 350.514 358.933C349.318 357.867 348.721 356.519 348.721 354.89C348.721 352.91 349.471 351.375 350.971 350.285C352.482 349.183 354.604 348.633 357.334 348.633H360.498V347.138C360.498 346.002 360.158 345.099 359.479 344.431C358.799 343.752 357.797 343.412 356.473 343.412C355.312 343.412 354.34 343.705 353.555 344.291C352.77 344.877 352.377 345.586 352.377 346.418H349.107C349.107 345.469 349.441 344.554 350.109 343.676C350.789 342.785 351.703 342.082 352.852 341.566C354.012 341.051 355.283 340.793 356.666 340.793C358.857 340.793 360.574 341.344 361.816 342.445C363.059 343.535 363.703 345.041 363.75 346.963V355.717C363.75 357.463 363.973 358.851 364.418 359.883V360.164H361.008ZM355.611 357.685C356.631 357.685 357.598 357.422 358.512 356.894C359.426 356.367 360.088 355.681 360.498 354.838V350.935H357.949C353.965 350.935 351.973 352.101 351.973 354.433C351.973 355.453 352.312 356.25 352.992 356.824C353.672 357.398 354.545 357.685 355.611 357.685Z" fill="white"/>
<path d="M372.381 360.164H369.129V333.164H372.381V360.164Z" fill="white"/>
<path d="M385.23 357.861C386.391 357.861 387.404 357.51 388.271 356.806C389.139 356.103 389.619 355.224 389.713 354.17H392.789C392.73 355.26 392.355 356.297 391.664 357.281C390.973 358.265 390.047 359.051 388.887 359.636C387.738 360.222 386.52 360.515 385.23 360.515C382.641 360.515 380.578 359.654 379.043 357.931C377.52 356.197 376.758 353.83 376.758 350.83V350.285C376.758 348.433 377.098 346.787 377.777 345.345C378.457 343.904 379.43 342.785 380.695 341.988C381.973 341.191 383.479 340.793 385.213 340.793C387.346 340.793 389.115 341.431 390.521 342.709C391.939 343.986 392.695 345.644 392.789 347.683H389.713C389.619 346.453 389.15 345.445 388.307 344.66C387.475 343.863 386.443 343.465 385.213 343.465C383.561 343.465 382.277 344.062 381.363 345.258C380.461 346.441 380.01 348.158 380.01 350.408V351.023C380.01 353.215 380.461 354.902 381.363 356.086C382.266 357.269 383.555 357.861 385.23 357.861Z" fill="white"/>
<path d="M408.188 358.283C406.922 359.771 405.064 360.515 402.615 360.515C400.588 360.515 399.041 359.929 397.975 358.758C396.92 357.574 396.387 355.828 396.375 353.519V341.144H399.627V353.431C399.627 356.314 400.799 357.756 403.143 357.756C405.627 357.756 407.279 356.83 408.1 354.978V341.144H411.352V360.164H408.258L408.188 358.283Z" fill="white"/>
<path d="M419.842 360.164H416.59V333.164H419.842V360.164Z" fill="white"/>
<path d="M436.805 360.164C436.617 359.789 436.465 359.121 436.348 358.16C434.836 359.73 433.031 360.515 430.934 360.515C429.059 360.515 427.518 359.988 426.311 358.933C425.115 357.867 424.518 356.519 424.518 354.89C424.518 352.91 425.268 351.375 426.768 350.285C428.279 349.183 430.4 348.633 433.131 348.633H436.295V347.138C436.295 346.002 435.955 345.099 435.275 344.431C434.596 343.752 433.594 343.412 432.27 343.412C431.109 343.412 430.137 343.705 429.352 344.291C428.566 344.877 428.174 345.586 428.174 346.418H424.904C424.904 345.469 425.238 344.554 425.906 343.676C426.586 342.785 427.5 342.082 428.648 341.566C429.809 341.051 431.08 340.793 432.463 340.793C434.654 340.793 436.371 341.344 437.613 342.445C438.855 343.535 439.5 345.041 439.547 346.963V355.717C439.547 357.463 439.77 358.851 440.215 359.883V360.164H436.805ZM431.408 357.685C432.428 357.685 433.395 357.422 434.309 356.894C435.223 356.367 435.885 355.681 436.295 354.838V350.935H433.746C429.762 350.935 427.77 352.101 427.77 354.433C427.77 355.453 428.109 356.25 428.789 356.824C429.469 357.398 430.342 357.685 431.408 357.685Z" fill="white"/>
<path d="M453.838 344.062C453.346 343.98 452.812 343.939 452.238 343.939C450.105 343.939 448.658 344.847 447.896 346.664V360.164H444.645V341.144H447.809L447.861 343.342C448.928 341.642 450.439 340.793 452.396 340.793C453.029 340.793 453.51 340.875 453.838 341.039V344.062Z" fill="white"/>
<path d="M456.738 358.459C456.738 357.896 456.902 357.427 457.23 357.052C457.57 356.677 458.074 356.49 458.742 356.49C459.41 356.49 459.914 356.677 460.254 357.052C460.605 357.427 460.781 357.896 460.781 358.459C460.781 358.998 460.605 359.449 460.254 359.812C459.914 360.176 459.41 360.357 458.742 360.357C458.074 360.357 457.57 360.176 457.23 359.812C456.902 359.449 456.738 358.998 456.738 358.459ZM456.756 342.937C456.756 342.375 456.92 341.906 457.248 341.531C457.588 341.156 458.092 340.969 458.76 340.969C459.428 340.969 459.932 341.156 460.271 341.531C460.623 341.906 460.799 342.375 460.799 342.937C460.799 343.476 460.623 343.927 460.271 344.291C459.932 344.654 459.428 344.836 458.76 344.836C458.092 344.836 457.588 344.654 457.248 344.291C456.92 343.927 456.756 343.476 456.756 342.937Z" fill="white"/>
</g>
<g id="Group 337">
<path id="Rectangle 32 (Stroke)" fill-rule="evenodd" clip-rule="evenodd" d="M217 97H162V142H217V97ZM159 94V145H220V94H159Z" fill="white"/>
<path id="Rectangle 33 (Stroke)" fill-rule="evenodd" clip-rule="evenodd" d="M278 97H223V142H278V97ZM220 94V145H281V94H220Z" fill="white"/>
<path id="Rectangle 34 (Stroke)" fill-rule="evenodd" clip-rule="evenodd" d="M553 97H498V142H553V97ZM495 94V145H556V94H495Z" fill="white"/>
<path id="Rectangle 35 (Stroke)" fill-rule="evenodd" clip-rule="evenodd" d="M614 97H559V142H614V97ZM556 94V145H617V94H556Z" fill="white"/>
<path id="Rectangle 36 (Stroke)" fill-rule="evenodd" clip-rule="evenodd" d="M180 249H117V292H180V249ZM114 246V295H183V246H114Z" fill="white"/>
<path id="Rectangle 38 (Stroke)" fill-rule="evenodd" clip-rule="evenodd" d="M526 249H463V292H526V249ZM460 246V295H529V246H460Z" fill="white"/>
<path id="Rectangle 39 (Stroke)" fill-rule="evenodd" clip-rule="evenodd" d="M595 249H532V292H595V249ZM529 246V295H598V246H529Z" fill="white"/>
<path id="Rectangle 40 (Stroke)" fill-rule="evenodd" clip-rule="evenodd" d="M762 249H699V292H762V249ZM696 246V295H765V246H696Z" fill="white"/>
<path id="Rectangle 42 (Stroke)" fill-rule="evenodd" clip-rule="evenodd" d="M580 329H517V372H580V329ZM514 326V375H583V326H514Z" fill="white"/>
<path id="Rectangle 43 (Stroke)" fill-rule="evenodd" clip-rule="evenodd" d="M645 329H586V372H645V329ZM583 326V375H648V326H583Z" fill="white"/>
<path id="Rectangle 41 (Stroke)" fill-rule="evenodd" clip-rule="evenodd" d="M921 249H765V292H921V249ZM762 246V295H924V246H762Z" fill="white"/>
<path id="Rectangle 37 (Stroke)" fill-rule="evenodd" clip-rule="evenodd" d="M339 249H186V292H339V249ZM183 246V295H342V246H183Z" fill="white"/>
</g>
<g id="x\;\;0\;=2\;\;x\;\;1\;=3\;x\;\;n+1\;=3\;x\;\;n\;-2\;x\;\;n-1\;\;x\;\;4">
<g id="Group">
<g id="Group 93">
<g id="Group_2">
<path id="Vector" d="M512.008 114.757C512.285 113.215 513.352 111.435 515.209 109.417C517.067 107.398 519.36 106.371 522.087 106.334C523.47 106.334 524.735 106.664 525.881 107.325C527.028 107.985 527.877 108.811 528.431 109.802C530.091 107.49 532.087 106.334 534.419 106.334C535.881 106.334 537.146 106.738 538.213 107.545C539.281 108.352 539.834 109.435 539.874 110.793C539.874 111.857 539.597 112.72 539.043 113.38C538.49 114.041 537.957 114.445 537.443 114.591C536.929 114.738 536.474 114.812 536.079 114.812C535.328 114.812 534.715 114.61 534.241 114.206C533.767 113.802 533.53 113.27 533.53 112.61C533.53 110.921 534.518 109.765 536.494 109.141C536.059 108.664 535.269 108.426 534.123 108.426C533.609 108.426 533.233 108.462 532.996 108.536C531.494 109.123 530.387 110.334 529.676 112.169C527.304 120.28 526.119 125.014 526.119 126.372C526.119 127.4 526.435 128.134 527.067 128.574C527.7 129.014 528.391 129.235 529.142 129.235C530.605 129.235 532.047 128.629 533.47 127.418C534.893 126.207 535.862 124.721 536.375 122.959C536.494 122.592 536.613 122.39 536.731 122.353C536.85 122.317 537.166 122.28 537.68 122.243H537.917C538.51 122.243 538.806 122.39 538.806 122.684C538.806 122.72 538.767 122.922 538.688 123.289C538.055 125.381 536.83 127.234 535.012 128.849C533.194 130.464 531.079 131.271 528.668 131.271C525.901 131.271 523.806 130.115 522.383 127.803C520.763 130.079 518.905 131.216 516.81 131.216H516.455C514.518 131.216 513.134 130.739 512.304 129.785C511.474 128.831 511.04 127.822 511 126.757C511 125.583 511.375 124.629 512.126 123.895C512.877 123.161 513.767 122.794 514.794 122.794C516.494 122.794 517.344 123.564 517.344 125.106C517.344 125.84 517.107 126.482 516.632 127.033C516.158 127.583 515.704 127.95 515.269 128.134C514.834 128.317 514.577 128.409 514.498 128.409L514.32 128.464C514.32 128.501 514.439 128.574 514.676 128.684C514.913 128.794 515.229 128.923 515.625 129.069C516.02 129.216 516.395 129.271 516.751 129.235C518.174 129.235 519.399 128.409 520.427 126.757C520.783 126.17 521.237 124.922 521.791 123.014C522.344 121.106 522.897 119.124 523.451 117.069C524.004 115.013 524.32 113.802 524.399 113.435C524.597 112.444 524.696 111.729 524.696 111.288C524.696 110.261 524.399 109.527 523.806 109.086C523.213 108.646 522.542 108.426 521.791 108.426C520.209 108.426 518.727 109.013 517.344 110.187C515.96 111.362 514.992 112.866 514.439 114.701C514.36 115.032 514.261 115.215 514.142 115.252C514.024 115.289 513.708 115.325 513.194 115.362H512.364C512.126 115.142 512.008 114.94 512.008 114.757Z" fill="white"/>
</g>
<g id="Group_3">
<path id="Vector_2" d="M581.47 98.4619C583.683 95.4892 586.707 94.0029 590.541 94.0029C592.438 94.0029 594.336 94.48 596.233 95.4342C598.13 96.3884 599.672 98.0766 600.857 100.499C602.32 103.545 603.051 107.729 603.051 113.05C603.051 118.739 602.201 123.088 600.502 126.097C599.711 127.638 598.624 128.868 597.241 129.785C595.857 130.703 594.652 131.272 593.624 131.492C592.597 131.712 591.589 131.84 590.6 131.877C589.573 131.877 588.545 131.767 587.517 131.547C586.49 131.327 585.284 130.739 583.901 129.785C582.517 128.831 581.43 127.602 580.64 126.097C578.94 123.088 578.091 118.739 578.091 113.05C578.091 106.664 579.217 101.802 581.47 98.4619ZM594.81 97.8013C593.624 96.6269 592.221 96.0397 590.6 96.0397C588.94 96.0397 587.517 96.6269 586.332 97.8013C585.344 98.7555 584.691 100.077 584.375 101.765C584.059 103.453 583.901 106.976 583.901 112.334C583.901 118.133 584.059 121.95 584.375 123.785C584.691 125.62 585.403 127.07 586.51 128.134C587.616 129.235 588.98 129.785 590.6 129.785C592.181 129.785 593.525 129.235 594.632 128.134C595.778 127.033 596.49 125.491 596.766 123.51C597.043 121.528 597.201 117.803 597.241 112.334C597.241 107.013 597.083 103.508 596.766 101.82C596.45 100.132 595.798 98.7922 594.81 97.8013Z" fill="white"/>
</g>
<g id="Group_4">
<path id="Vector_3" d="M641.678 111.564C641.678 111.087 641.955 110.72 642.509 110.463H680.275C680.868 110.756 681.165 111.123 681.165 111.564C681.165 111.968 680.888 112.316 680.335 112.61L661.481 112.665H642.627C641.995 112.481 641.678 112.114 641.678 111.564ZM641.678 122.243C641.678 121.693 641.995 121.326 642.627 121.142H680.335C680.888 121.509 681.165 121.876 681.165 122.243C681.165 122.721 680.868 123.088 680.275 123.344H642.509C641.955 123.088 641.678 122.721 641.678 122.243Z" fill="white"/>
</g>
<g id="Group_5">
<path id="Vector_4" d="M707.416 107.051C706.349 107.051 705.499 106.721 704.867 106.06C704.235 105.399 703.918 104.592 703.918 103.638C703.918 101.032 704.966 98.775 707.061 96.8666C709.156 94.9582 711.764 94.004 714.887 94.004C718.484 94.004 721.488 95.0316 723.899 97.0868C726.31 99.142 727.535 101.803 727.575 105.069C727.575 106.647 727.179 108.152 726.389 109.583C725.598 111.014 724.65 112.262 723.543 113.327C722.436 114.391 720.855 115.749 718.8 117.4C717.377 118.538 715.401 120.226 712.871 122.465L709.373 125.548L713.879 125.603C720.084 125.603 723.385 125.511 723.78 125.327C724.057 125.254 724.531 123.621 725.203 120.428V120.263H727.575V120.428C727.535 120.538 727.278 122.208 726.804 125.437C726.33 128.667 726.033 130.355 725.915 130.502V130.667H703.918V129.621V128.961C703.918 128.704 704.037 128.429 704.274 128.135C704.511 127.841 705.104 127.199 706.053 126.208C707.199 125.034 708.187 124.006 709.017 123.125C709.373 122.758 710.045 122.079 711.033 121.089C712.021 120.098 712.693 119.419 713.049 119.052C713.405 118.685 713.978 118.079 714.768 117.235C715.559 116.391 716.112 115.767 716.428 115.363C716.745 114.96 717.199 114.409 717.792 113.712C718.385 113.015 718.8 112.427 719.037 111.95C719.274 111.473 719.571 110.941 719.926 110.354C720.282 109.767 720.539 109.179 720.697 108.592C720.855 108.005 720.994 107.455 721.112 106.941C721.231 106.427 721.29 105.821 721.29 105.124C721.29 102.812 720.618 100.812 719.274 99.1236C717.93 97.4354 716.013 96.5913 713.523 96.5913C712.219 96.5913 711.073 96.9033 710.084 97.5272C709.096 98.1511 708.405 98.7566 708.009 99.3438C707.614 99.931 707.416 100.28 707.416 100.39C707.416 100.426 707.515 100.445 707.713 100.445C708.424 100.445 709.156 100.702 709.907 101.216C710.658 101.729 711.033 102.573 711.033 103.748C711.033 104.665 710.717 105.436 710.084 106.06C709.452 106.684 708.563 107.014 707.416 107.051Z" fill="white"/>
</g>
</g>
<g id="Group 94">
<g id="Group_6">
<path id="Vector_5" d="M172.008 117.756C172.285 116.214 173.352 114.434 175.209 112.416C177.067 110.397 179.36 109.37 182.087 109.333C183.47 109.333 184.735 109.663 185.881 110.324C187.028 110.984 187.877 111.81 188.431 112.801C190.091 110.489 192.087 109.333 194.419 109.333C195.881 109.333 197.146 109.737 198.213 110.544C199.281 111.351 199.834 112.434 199.874 113.792C199.874 114.856 199.597 115.719 199.043 116.379C198.49 117.04 197.957 117.444 197.443 117.59C196.929 117.737 196.474 117.811 196.079 117.811C195.328 117.811 194.715 117.609 194.241 117.205C193.767 116.801 193.53 116.269 193.53 115.609C193.53 113.92 194.518 112.764 196.494 112.14C196.059 111.663 195.269 111.425 194.123 111.425C193.609 111.425 193.233 111.461 192.996 111.535C191.494 112.122 190.387 113.333 189.676 115.168C187.304 123.279 186.119 128.013 186.119 129.371C186.119 130.399 186.435 131.133 187.067 131.573C187.7 132.013 188.391 132.234 189.142 132.234C190.605 132.234 192.047 131.628 193.47 130.417C194.893 129.206 195.862 127.72 196.375 125.958C196.494 125.591 196.613 125.389 196.731 125.352C196.85 125.316 197.166 125.279 197.68 125.242H197.917C198.51 125.242 198.806 125.389 198.806 125.683C198.806 125.719 198.767 125.921 198.688 126.288C198.055 128.38 196.83 130.234 195.012 131.848C193.194 133.463 191.079 134.271 188.668 134.271C185.901 134.271 183.806 133.114 182.383 130.802C180.763 133.078 178.905 134.215 176.81 134.215H176.455C174.518 134.215 173.134 133.738 172.304 132.784C171.474 131.83 171.04 130.821 171 129.756C171 128.582 171.375 127.628 172.126 126.894C172.877 126.16 173.767 125.793 174.794 125.793C176.494 125.793 177.344 126.564 177.344 128.105C177.344 128.839 177.107 129.481 176.632 130.032C176.158 130.582 175.704 130.949 175.269 131.133C174.834 131.316 174.577 131.408 174.498 131.408L174.32 131.463C174.32 131.5 174.439 131.573 174.676 131.683C174.913 131.793 175.229 131.922 175.625 132.069C176.02 132.215 176.395 132.27 176.751 132.234C178.174 132.234 179.399 131.408 180.427 129.756C180.783 129.169 181.237 127.921 181.791 126.013C182.344 124.105 182.897 122.123 183.451 120.068C184.004 118.012 184.32 116.801 184.399 116.434C184.597 115.443 184.696 114.728 184.696 114.287C184.696 113.26 184.399 112.526 183.806 112.085C183.213 111.645 182.542 111.425 181.791 111.425C180.209 111.425 178.727 112.012 177.344 113.186C175.96 114.361 174.992 115.865 174.439 117.7C174.36 118.031 174.261 118.214 174.142 118.251C174.024 118.288 173.708 118.324 173.194 118.361H172.364C172.126 118.141 172.008 117.939 172.008 117.756Z" fill="white"/>
</g>
<g id="Group_7">
<path id="Vector_6" d="M248.406 101.847L247.636 102.123C247.082 102.306 246.292 102.49 245.264 102.673C244.237 102.857 243.09 102.985 241.825 103.059H240.699V100.526H241.825C243.683 100.453 245.403 100.178 246.984 99.7005C248.565 99.2234 249.671 98.783 250.304 98.3793C250.936 97.9756 251.489 97.5719 251.964 97.1682C252.043 97.0581 252.28 97.003 252.675 97.003C253.031 97.003 253.367 97.1131 253.683 97.3333V113.793L253.742 130.308C254.019 130.565 254.256 130.73 254.454 130.804C254.652 130.877 255.126 130.95 255.877 131.024C256.628 131.097 257.853 131.134 259.553 131.134H261.094V133.666H260.442C259.612 133.556 256.47 133.501 251.015 133.501C245.64 133.501 242.537 133.556 241.707 133.666H240.995V131.134H242.537C243.406 131.134 244.157 131.134 244.79 131.134C245.422 131.134 245.916 131.116 246.272 131.079C246.628 131.042 246.944 130.987 247.221 130.914C247.497 130.84 247.655 130.804 247.695 130.804C247.735 130.804 247.853 130.712 248.051 130.528C248.248 130.345 248.367 130.272 248.406 130.308V101.847Z" fill="white"/>
</g>
<g id="Group_8">
<path id="Vector_7" d="M301.684 114.563C301.684 114.086 301.96 113.719 302.514 113.462H340.28C340.873 113.755 341.17 114.122 341.17 114.563C341.17 114.967 340.893 115.315 340.34 115.609L321.486 115.664H302.632C302 115.48 301.684 115.113 301.684 114.563ZM301.684 125.243C301.684 124.692 302 124.325 302.632 124.142H340.34C340.893 124.509 341.17 124.876 341.17 125.243C341.17 125.72 340.873 126.087 340.28 126.344H302.514C301.96 126.087 301.684 125.72 301.684 125.243Z" fill="white"/>
</g>
<g id="Group_9">
<path id="Vector_8" d="M368.484 108.177C367.417 108.177 366.587 107.865 365.994 107.241C365.401 106.617 365.085 105.81 365.045 104.819C365.045 102.8 365.994 101.002 367.891 99.4241C369.788 97.846 372.081 97.0569 374.769 97.0569C376.152 97.0569 377.022 97.0753 377.377 97.112C380.302 97.5524 382.535 98.5249 384.077 100.03C385.618 101.534 386.409 103.167 386.449 104.929C386.449 106.837 385.777 108.691 384.433 110.489C383.089 112.287 381.231 113.59 378.86 114.398L378.682 114.508C378.682 114.544 378.86 114.6 379.215 114.673C379.571 114.746 380.144 114.911 380.935 115.168C381.725 115.425 382.476 115.811 383.188 116.324C386.429 118.269 388.049 120.838 388.049 124.031C388.049 126.931 386.824 129.463 384.373 131.628C381.923 133.794 378.82 134.876 375.065 134.876C371.903 134.876 369.176 134.087 366.883 132.509C364.591 130.931 363.445 128.931 363.445 126.509C363.445 125.481 363.8 124.655 364.512 124.031C365.223 123.407 366.113 123.077 367.18 123.04C368.286 123.04 369.196 123.371 369.907 124.031C370.618 124.692 370.974 125.518 370.974 126.509C370.974 126.912 370.915 127.279 370.796 127.61C370.678 127.94 370.539 128.234 370.381 128.49C370.223 128.747 370.006 128.968 369.729 129.151C369.452 129.335 369.215 129.481 369.018 129.591C368.82 129.702 368.622 129.775 368.425 129.812C368.227 129.848 368.069 129.903 367.951 129.977L367.713 130.032C369.729 131.683 372.18 132.509 375.065 132.509C377.239 132.509 378.879 131.537 379.986 129.591C380.658 128.38 380.994 126.527 380.994 124.031V122.93C380.994 119.444 379.729 117.113 377.2 115.939C376.607 115.719 375.401 115.59 373.583 115.554L371.093 115.499L370.915 115.389C370.836 115.278 370.796 114.985 370.796 114.508C370.796 113.847 370.954 113.517 371.271 113.517C372.377 113.517 373.524 113.425 374.709 113.242C376.053 113.058 377.279 112.287 378.385 110.93C379.492 109.572 380.045 107.516 380.045 104.764V104.324C380.045 102.232 379.354 100.782 377.97 99.9746C377.101 99.4608 376.172 99.2039 375.184 99.2039C373.919 99.2039 372.753 99.4057 371.686 99.8094C370.618 100.213 369.868 100.635 369.433 101.076C368.998 101.516 368.781 101.736 368.781 101.736H368.958C369.077 101.773 369.235 101.81 369.433 101.846C369.63 101.883 369.828 101.975 370.026 102.122C370.223 102.268 370.46 102.397 370.737 102.507C371.014 102.617 371.211 102.819 371.33 103.112C371.449 103.406 371.607 103.681 371.804 103.938C372.002 104.195 372.061 104.562 371.982 105.039C371.982 105.847 371.705 106.562 371.152 107.186C370.599 107.81 369.709 108.14 368.484 108.177Z" fill="white"/>
</g>
</g>
<g id="Group 95">
<g id="Group_10">
<path id="Vector_9" d="M131.008 269.756C131.285 268.215 132.352 266.435 134.209 264.416C136.067 262.398 138.36 261.37 141.087 261.333C142.47 261.333 143.735 261.664 144.881 262.324C146.028 262.985 146.877 263.811 147.431 264.802C149.091 262.489 151.087 261.333 153.419 261.333C154.881 261.333 156.146 261.737 157.213 262.544C158.281 263.352 158.834 264.435 158.874 265.792C158.874 266.857 158.597 267.719 158.043 268.38C157.49 269.04 156.957 269.444 156.443 269.591C155.929 269.738 155.474 269.811 155.079 269.811C154.328 269.811 153.715 269.609 153.241 269.206C152.767 268.802 152.53 268.27 152.53 267.609C152.53 265.921 153.518 264.765 155.494 264.141C155.059 263.664 154.269 263.425 153.123 263.425C152.609 263.425 152.233 263.462 151.996 263.535C150.494 264.123 149.387 265.334 148.676 267.169C146.304 275.279 145.119 280.014 145.119 281.372C145.119 282.399 145.435 283.133 146.067 283.574C146.7 284.014 147.391 284.234 148.142 284.234C149.605 284.234 151.047 283.629 152.47 282.418C153.893 281.206 154.862 279.72 155.375 277.958C155.494 277.591 155.613 277.39 155.731 277.353C155.85 277.316 156.166 277.28 156.68 277.243H156.917C157.51 277.243 157.806 277.39 157.806 277.683C157.806 277.72 157.767 277.922 157.688 278.289C157.055 280.381 155.83 282.234 154.012 283.849C152.194 285.464 150.079 286.271 147.668 286.271C144.901 286.271 142.806 285.115 141.383 282.803C139.763 285.078 137.905 286.216 135.81 286.216H135.455C133.518 286.216 132.134 285.739 131.304 284.785C130.474 283.83 130.04 282.821 130 281.757C130 280.583 130.375 279.628 131.126 278.894C131.877 278.16 132.767 277.793 133.794 277.793C135.494 277.793 136.344 278.564 136.344 280.105C136.344 280.839 136.107 281.482 135.632 282.032C135.158 282.583 134.704 282.95 134.269 283.133C133.834 283.317 133.577 283.408 133.498 283.408L133.32 283.463C133.32 283.5 133.439 283.574 133.676 283.684C133.913 283.794 134.229 283.922 134.625 284.069C135.02 284.216 135.395 284.271 135.751 284.234C137.174 284.234 138.399 283.408 139.427 281.757C139.783 281.17 140.237 279.922 140.791 278.014C141.344 276.105 141.897 274.123 142.451 272.068C143.004 270.013 143.32 268.802 143.399 268.435C143.597 267.444 143.696 266.728 143.696 266.288C143.696 265.26 143.399 264.526 142.806 264.086C142.213 263.645 141.542 263.425 140.791 263.425C139.209 263.425 137.727 264.012 136.344 265.187C134.96 266.361 133.992 267.866 133.439 269.701C133.36 270.031 133.261 270.215 133.142 270.251C133.024 270.288 132.708 270.325 132.194 270.362H131.364C131.126 270.141 131.008 269.94 131.008 269.756Z" fill="white"/>
</g>
<g id="Group_11">
<path id="Vector_10" d="M196.024 269.866C196.064 269.646 196.123 269.352 196.202 268.985C196.281 268.618 196.518 267.921 196.914 266.893C197.309 265.866 197.704 265.003 198.1 264.306C198.495 263.609 199.147 262.93 200.056 262.269C200.965 261.609 201.874 261.297 202.783 261.333C204.206 261.333 205.392 261.664 206.341 262.324C207.289 262.985 207.882 263.609 208.119 264.196C208.356 264.783 208.475 265.169 208.475 265.352C208.475 265.425 208.495 265.462 208.534 265.462L209.186 264.857C211.598 262.508 214.345 261.333 217.428 261.333C219.562 261.333 221.281 261.829 222.586 262.82C223.89 263.811 224.562 265.26 224.601 267.169C224.641 269.077 223.89 271.958 222.349 275.812C220.807 279.665 220.056 281.995 220.096 282.803C220.096 283.757 220.432 284.234 221.103 284.234C221.341 284.234 221.518 284.216 221.637 284.179C222.783 283.996 223.811 283.298 224.72 282.087C225.629 280.876 226.321 279.408 226.795 277.683C226.874 277.39 227.269 277.243 227.981 277.243C228.771 277.243 229.167 277.39 229.167 277.683C229.167 277.72 229.088 277.995 228.93 278.509C228.613 279.573 228.179 280.619 227.625 281.647C227.072 282.674 226.163 283.702 224.898 284.73C223.633 285.757 222.269 286.253 220.807 286.216C218.949 286.216 217.605 285.72 216.775 284.73C215.945 283.739 215.53 282.711 215.53 281.647C215.53 280.95 216.242 278.748 217.665 275.041C219.088 271.334 219.819 268.545 219.858 266.673C219.858 264.508 218.989 263.425 217.25 263.425H216.953C213.554 263.425 210.688 265.279 208.356 268.985L207.941 269.646L205.985 277.023C204.681 281.83 203.93 284.418 203.732 284.785C203.218 285.776 202.368 286.271 201.183 286.271C200.669 286.271 200.254 286.161 199.937 285.941C199.621 285.72 199.404 285.5 199.285 285.28C199.167 285.06 199.127 284.876 199.167 284.73C199.167 284.252 199.918 281.261 201.42 275.756C202.922 270.251 203.712 267.26 203.791 266.783C203.831 266.6 203.851 266.178 203.851 265.517C203.851 264.086 203.376 263.37 202.428 263.37C200.926 263.37 199.681 265.205 198.692 268.875C198.455 269.609 198.337 269.995 198.337 270.031C198.258 270.251 197.882 270.362 197.21 270.362H196.38C196.143 270.141 196.024 269.976 196.024 269.866Z" fill="white"/>
</g>
<g id="Group_12">
<path id="Vector_11" d="M246.846 272.619C246.846 272.619 246.846 272.381 246.846 271.904C246.846 271.427 247.123 271.06 247.676 270.803H265.403V262.545L265.463 254.288C265.858 253.811 266.233 253.572 266.589 253.572C267.103 253.572 267.498 253.847 267.775 254.398V270.803H285.443C286.036 271.096 286.332 271.463 286.332 271.904C286.332 272.344 286.036 272.711 285.443 273.005H267.775V289.409C267.459 289.923 267.103 290.18 266.708 290.18H266.589H266.47C265.996 290.18 265.64 289.923 265.403 289.409V273.005H247.676C247.123 272.748 246.846 272.381 246.846 271.904V272.619Z" fill="white"/>
</g>
<g id="Group_13">
<path id="Vector_12" d="M315.454 253.848L314.683 254.123C314.13 254.306 313.339 254.49 312.312 254.673C311.284 254.857 310.138 254.985 308.873 255.059H307.747V252.526H308.873C310.731 252.453 312.45 252.178 314.031 251.701C315.612 251.224 316.719 250.783 317.351 250.38C317.984 249.976 318.537 249.572 319.011 249.168C319.09 249.058 319.328 249.003 319.723 249.003C320.079 249.003 320.415 249.113 320.731 249.334V265.793L320.79 282.308C321.067 282.565 321.304 282.731 321.502 282.804C321.699 282.877 322.173 282.951 322.924 283.024C323.675 283.098 324.901 283.134 326.6 283.134H328.142V285.667H327.49C326.66 285.556 323.517 285.501 318.063 285.501C312.687 285.501 309.585 285.556 308.754 285.667H308.043V283.134H309.585C310.454 283.134 311.205 283.134 311.837 283.134C312.47 283.134 312.964 283.116 313.32 283.079C313.675 283.042 313.992 282.987 314.268 282.914C314.545 282.841 314.703 282.804 314.743 282.804C314.782 282.804 314.901 282.712 315.098 282.529C315.296 282.345 315.415 282.272 315.454 282.308V253.848Z" fill="white"/>
</g>
<g id="Group_14">
<path id="Vector_13" d="M368.731 266.564C368.731 266.086 369.008 265.719 369.561 265.463H407.328C407.921 265.756 408.218 266.123 408.218 266.564C408.218 266.967 407.941 267.316 407.388 267.61L388.534 267.665H369.68C369.048 267.481 368.731 267.114 368.731 266.564ZM368.731 277.243C368.731 276.693 369.048 276.326 369.68 276.142H407.388C407.941 276.509 408.218 276.876 408.218 277.243C408.218 277.72 407.921 278.087 407.328 278.344H369.561C369.008 278.087 368.731 277.72 368.731 277.243Z" fill="white"/>
</g>
<g id="Group_15">
<path id="Vector_14" d="M435.532 260.178C434.465 260.178 433.634 259.866 433.042 259.242C432.449 258.618 432.133 257.811 432.093 256.82C432.093 254.801 433.042 253.003 434.939 251.425C436.836 249.847 439.129 249.058 441.816 249.058C443.2 249.058 444.069 249.076 444.425 249.113C447.35 249.553 449.583 250.526 451.125 252.03C452.666 253.535 453.457 255.168 453.496 256.93C453.496 258.838 452.824 260.692 451.48 262.49C450.136 264.288 448.279 265.591 445.907 266.398L445.729 266.508C445.729 266.545 445.907 266.6 446.263 266.674C446.619 266.747 447.192 266.912 447.982 267.169C448.773 267.426 449.524 267.811 450.235 268.325C453.476 270.27 455.097 272.839 455.097 276.032C455.097 278.931 453.872 281.464 451.421 283.629C448.97 285.794 445.868 286.877 442.113 286.877C438.951 286.877 436.223 286.088 433.931 284.51C431.638 282.932 430.492 280.932 430.492 278.509C430.492 277.482 430.848 276.656 431.559 276.032C432.271 275.408 433.16 275.078 434.227 275.041C435.334 275.041 436.243 275.372 436.955 276.032C437.666 276.693 438.022 277.518 438.022 278.509C438.022 278.913 437.963 279.28 437.844 279.61C437.725 279.941 437.587 280.234 437.429 280.491C437.271 280.748 437.053 280.968 436.777 281.152C436.5 281.335 436.263 281.482 436.065 281.592C435.868 281.702 435.67 281.776 435.472 281.812C435.275 281.849 435.117 281.904 434.998 281.978L434.761 282.033C436.777 283.684 439.227 284.51 442.113 284.51C444.287 284.51 445.927 283.537 447.034 281.592C447.706 280.381 448.042 278.528 448.042 276.032V274.931C448.042 271.445 446.777 269.114 444.247 267.94C443.654 267.72 442.449 267.591 440.631 267.554L438.14 267.499L437.963 267.389C437.883 267.279 437.844 266.986 437.844 266.508C437.844 265.848 438.002 265.518 438.318 265.518C439.425 265.518 440.571 265.426 441.757 265.242C443.101 265.059 444.326 264.288 445.433 262.93C446.54 261.572 447.093 259.517 447.093 256.765V256.324C447.093 254.232 446.401 252.783 445.018 251.975C444.148 251.462 443.219 251.205 442.231 251.205C440.966 251.205 439.8 251.406 438.733 251.81C437.666 252.214 436.915 252.636 436.48 253.076C436.046 253.517 435.828 253.737 435.828 253.737H436.006C436.125 253.774 436.283 253.81 436.48 253.847C436.678 253.884 436.876 253.975 437.073 254.122C437.271 254.269 437.508 254.398 437.785 254.508C438.061 254.618 438.259 254.82 438.378 255.113C438.496 255.407 438.654 255.682 438.852 255.939C439.049 256.196 439.109 256.563 439.03 257.04C439.03 257.847 438.753 258.563 438.2 259.187C437.646 259.811 436.757 260.141 435.532 260.178Z" fill="white"/>
</g>
<g id="Group_16">
<path id="Vector_15" d="M477.2 269.756C477.476 268.215 478.544 266.435 480.401 264.416C482.259 262.398 484.552 261.37 487.279 261.333C488.662 261.333 489.927 261.664 491.073 262.324C492.22 262.985 493.069 263.811 493.623 264.802C495.283 262.489 497.279 261.333 499.611 261.333C501.073 261.333 502.338 261.737 503.405 262.544C504.473 263.352 505.026 264.435 505.065 265.792C505.065 266.857 504.789 267.719 504.235 268.38C503.682 269.04 503.148 269.444 502.635 269.591C502.121 269.738 501.666 269.811 501.271 269.811C500.52 269.811 499.907 269.609 499.433 269.206C498.959 268.802 498.722 268.27 498.722 267.609C498.722 265.921 499.71 264.765 501.686 264.141C501.251 263.664 500.461 263.425 499.314 263.425C498.801 263.425 498.425 263.462 498.188 263.535C496.686 264.123 495.579 265.334 494.868 267.169C492.496 275.279 491.31 280.014 491.31 281.372C491.31 282.399 491.627 283.133 492.259 283.574C492.892 284.014 493.583 284.234 494.334 284.234C495.797 284.234 497.239 283.629 498.662 282.418C500.085 281.206 501.054 279.72 501.567 277.958C501.686 277.591 501.805 277.39 501.923 277.353C502.042 277.316 502.358 277.28 502.872 277.243H503.109C503.702 277.243 503.998 277.39 503.998 277.683C503.998 277.72 503.959 277.922 503.88 278.289C503.247 280.381 502.022 282.234 500.204 283.849C498.386 285.464 496.271 286.271 493.86 286.271C491.093 286.271 488.998 285.115 487.575 282.803C485.955 285.078 484.097 286.216 482.002 286.216H481.646C479.71 286.216 478.326 285.739 477.496 284.785C476.666 283.83 476.231 282.821 476.192 281.757C476.192 280.583 476.567 279.628 477.318 278.894C478.069 278.16 478.959 277.793 479.986 277.793C481.686 277.793 482.536 278.564 482.536 280.105C482.536 280.839 482.299 281.482 481.824 282.032C481.35 282.583 480.895 282.95 480.461 283.133C480.026 283.317 479.769 283.408 479.69 283.408L479.512 283.463C479.512 283.5 479.631 283.574 479.868 283.684C480.105 283.794 480.421 283.922 480.816 284.069C481.212 284.216 481.587 284.271 481.943 284.234C483.366 284.234 484.591 283.408 485.619 281.757C485.975 281.17 486.429 279.922 486.982 278.014C487.536 276.105 488.089 274.123 488.642 272.068C489.196 270.013 489.512 268.802 489.591 268.435C489.789 267.444 489.888 266.728 489.888 266.288C489.888 265.26 489.591 264.526 488.998 264.086C488.405 263.645 487.733 263.425 486.982 263.425C485.401 263.425 483.919 264.012 482.536 265.187C481.152 266.361 480.184 267.866 479.631 269.701C479.552 270.031 479.453 270.215 479.334 270.251C479.216 270.288 478.899 270.325 478.386 270.362H477.556C477.318 270.141 477.2 269.94 477.2 269.756Z" fill="white"/>
</g>
<g id="Group_17">
<path id="Vector_16" d="M542.216 269.866C542.256 269.646 542.315 269.352 542.394 268.985C542.473 268.618 542.71 267.921 543.105 266.893C543.501 265.866 543.896 265.003 544.291 264.306C544.686 263.609 545.339 262.93 546.248 262.269C547.157 261.609 548.066 261.297 548.975 261.333C550.398 261.333 551.584 261.664 552.532 262.324C553.481 262.985 554.074 263.609 554.311 264.196C554.548 264.783 554.667 265.169 554.667 265.352C554.667 265.425 554.686 265.462 554.726 265.462L555.378 264.857C557.789 262.508 560.536 261.333 563.619 261.333C565.754 261.333 567.473 261.829 568.777 262.82C570.082 263.811 570.754 265.26 570.793 267.169C570.833 269.077 570.082 271.958 568.54 275.812C566.999 279.665 566.248 281.995 566.287 282.803C566.287 283.757 566.623 284.234 567.295 284.234C567.532 284.234 567.71 284.216 567.829 284.179C568.975 283.996 570.003 283.298 570.912 282.087C571.821 280.876 572.513 279.408 572.987 277.683C573.066 277.39 573.461 277.243 574.173 277.243C574.963 277.243 575.358 277.39 575.358 277.683C575.358 277.72 575.279 277.995 575.121 278.509C574.805 279.573 574.37 280.619 573.817 281.647C573.263 282.674 572.354 283.702 571.09 284.73C569.825 285.757 568.461 286.253 566.999 286.216C565.141 286.216 563.797 285.72 562.967 284.73C562.137 283.739 561.722 282.711 561.722 281.647C561.722 280.95 562.433 278.748 563.856 275.041C565.279 271.334 566.011 268.545 566.05 266.673C566.05 264.508 565.18 263.425 563.441 263.425H563.145C559.746 263.425 556.88 265.279 554.548 268.985L554.133 269.646L552.177 277.023C550.872 281.83 550.121 284.418 549.924 284.785C549.41 285.776 548.56 286.271 547.374 286.271C546.86 286.271 546.445 286.161 546.129 285.941C545.813 285.72 545.596 285.5 545.477 285.28C545.358 285.06 545.319 284.876 545.358 284.73C545.358 284.252 546.109 281.261 547.611 275.756C549.113 270.251 549.904 267.26 549.983 266.783C550.022 266.6 550.042 266.178 550.042 265.517C550.042 264.086 549.568 263.37 548.619 263.37C547.117 263.37 545.872 265.205 544.884 268.875C544.647 269.609 544.528 269.995 544.528 270.031C544.449 270.251 544.074 270.362 543.402 270.362H542.572C542.335 270.141 542.216 269.976 542.216 269.866Z" fill="white"/>
</g>
<g id="Group_18">
<path id="Vector_17" d="M611.168 272.62C611.168 272.62 611.168 272.381 611.168 271.904C611.168 271.427 611.445 271.06 611.998 270.803H646.445C647.038 271.096 647.334 271.463 647.334 271.904C647.334 272.344 647.038 272.711 646.445 273.005H611.998C611.445 272.748 611.168 272.381 611.168 271.904V272.62Z" fill="white"/>
</g>
<g id="Group_19">
<path id="Vector_18" d="M671.951 262.05C670.883 262.05 670.034 261.72 669.401 261.059C668.769 260.399 668.453 259.591 668.453 258.637C668.453 256.031 669.5 253.774 671.595 251.866C673.69 249.957 676.298 249.003 679.421 249.003C683.018 249.003 686.022 250.031 688.433 252.086C690.844 254.141 692.069 256.802 692.109 260.068C692.109 261.646 691.714 263.151 690.923 264.582C690.132 266.014 689.184 267.261 688.077 268.326C686.97 269.39 685.389 270.748 683.334 272.399C681.911 273.537 679.935 275.225 677.405 277.464L673.907 280.547L678.413 280.602C684.619 280.602 687.919 280.51 688.314 280.327C688.591 280.253 689.065 278.62 689.737 275.427V275.262H692.109V275.427C692.069 275.537 691.812 277.207 691.338 280.437C690.864 283.666 690.567 285.355 690.449 285.501V285.667H668.453V284.621V283.96C668.453 283.703 668.571 283.428 668.808 283.134C669.046 282.841 669.638 282.198 670.587 281.207C671.733 280.033 672.721 279.005 673.551 278.125C673.907 277.758 674.579 277.079 675.567 276.088C676.555 275.097 677.227 274.418 677.583 274.051C677.939 273.684 678.512 273.078 679.302 272.234C680.093 271.39 680.646 270.766 680.963 270.363C681.279 269.959 681.733 269.408 682.326 268.711C682.919 268.014 683.334 267.427 683.571 266.95C683.808 266.472 684.105 265.94 684.461 265.353C684.816 264.766 685.073 264.179 685.231 263.591C685.389 263.004 685.528 262.454 685.646 261.94C685.765 261.426 685.824 260.821 685.824 260.123C685.824 257.811 685.152 255.811 683.808 254.123C682.464 252.435 680.547 251.591 678.057 251.591C676.753 251.591 675.607 251.903 674.619 252.526C673.631 253.15 672.939 253.756 672.544 254.343C672.148 254.93 671.951 255.279 671.951 255.389C671.951 255.426 672.049 255.444 672.247 255.444C672.959 255.444 673.69 255.701 674.441 256.215C675.192 256.729 675.567 257.573 675.567 258.747C675.567 259.665 675.251 260.435 674.619 261.059C673.986 261.683 673.097 262.013 671.951 262.05Z" fill="white"/>
</g>
<g id="Group_20">
<path id="Vector_19" d="M714.686 269.756C714.963 268.215 716.03 266.435 717.888 264.416C719.745 262.398 722.038 261.37 724.765 261.333C726.149 261.333 727.413 261.664 728.56 262.324C729.706 262.985 730.556 263.811 731.109 264.802C732.769 262.489 734.765 261.333 737.097 261.333C738.56 261.333 739.824 261.737 740.892 262.544C741.959 263.352 742.512 264.435 742.552 265.792C742.552 266.857 742.275 267.719 741.722 268.38C741.168 269.04 740.635 269.444 740.121 269.591C739.607 269.738 739.153 269.811 738.757 269.811C738.006 269.811 737.394 269.609 736.919 269.206C736.445 268.802 736.208 268.27 736.208 267.609C736.208 265.921 737.196 264.765 739.172 264.141C738.738 263.664 737.947 263.425 736.801 263.425C736.287 263.425 735.911 263.462 735.674 263.535C734.172 264.123 733.066 265.334 732.354 267.169C729.983 275.279 728.797 280.014 728.797 281.372C728.797 282.399 729.113 283.133 729.745 283.574C730.378 284.014 731.07 284.234 731.821 284.234C733.283 284.234 734.726 283.629 736.149 282.418C737.572 281.206 738.54 279.72 739.054 277.958C739.172 277.591 739.291 277.39 739.409 277.353C739.528 277.316 739.844 277.28 740.358 277.243H740.595C741.188 277.243 741.485 277.39 741.485 277.683C741.485 277.72 741.445 277.922 741.366 278.289C740.734 280.381 739.508 282.234 737.69 283.849C735.872 285.464 733.757 286.271 731.346 286.271C728.579 286.271 726.485 285.115 725.062 282.803C723.441 285.078 721.583 286.216 719.488 286.216H719.133C717.196 286.216 715.813 285.739 714.983 284.785C714.153 283.83 713.718 282.821 713.678 281.757C713.678 280.583 714.054 279.628 714.805 278.894C715.556 278.16 716.445 277.793 717.473 277.793C719.172 277.793 720.022 278.564 720.022 280.105C720.022 280.839 719.785 281.482 719.311 282.032C718.836 282.583 718.382 282.95 717.947 283.133C717.512 283.317 717.255 283.408 717.176 283.408L716.998 283.463C716.998 283.5 717.117 283.574 717.354 283.684C717.591 283.794 717.907 283.922 718.303 284.069C718.698 284.216 719.073 284.271 719.429 284.234C720.852 284.234 722.077 283.408 723.105 281.757C723.461 281.17 723.915 279.922 724.469 278.014C725.022 276.105 725.575 274.123 726.129 272.068C726.682 270.013 726.998 268.802 727.077 268.435C727.275 267.444 727.374 266.728 727.374 266.288C727.374 265.26 727.077 264.526 726.485 264.086C725.892 263.645 725.22 263.425 724.469 263.425C722.888 263.425 721.405 264.012 720.022 265.187C718.639 266.361 717.67 267.866 717.117 269.701C717.038 270.031 716.939 270.215 716.821 270.251C716.702 270.288 716.386 270.325 715.872 270.362H715.042C714.805 270.141 714.686 269.94 714.686 269.756Z" fill="white"/>
</g>
<g id="Group_21">
<path id="Vector_20" d="M779.696 269.866C779.735 269.646 779.795 269.352 779.874 268.985C779.953 268.618 780.19 267.921 780.585 266.893C780.98 265.866 781.376 265.003 781.771 264.306C782.166 263.609 782.818 262.93 783.727 262.269C784.637 261.609 785.546 261.297 786.455 261.333C787.878 261.333 789.063 261.664 790.012 262.324C790.961 262.985 791.554 263.609 791.791 264.196C792.028 264.783 792.146 265.169 792.146 265.352C792.146 265.425 792.166 265.462 792.206 265.462L792.858 264.857C795.269 262.508 798.016 261.333 801.099 261.333C803.233 261.333 804.953 261.829 806.257 262.82C807.561 263.811 808.233 265.26 808.273 267.169C808.312 269.077 807.561 271.958 806.02 275.812C804.478 279.665 803.727 281.995 803.767 282.803C803.767 283.757 804.103 284.234 804.775 284.234C805.012 284.234 805.19 284.216 805.308 284.179C806.455 283.996 807.482 283.298 808.391 282.087C809.301 280.876 809.992 279.408 810.467 277.683C810.546 277.39 810.941 277.243 811.652 277.243C812.443 277.243 812.838 277.39 812.838 277.683C812.838 277.72 812.759 277.995 812.601 278.509C812.285 279.573 811.85 280.619 811.297 281.647C810.743 282.674 809.834 283.702 808.569 284.73C807.304 285.757 805.941 286.253 804.478 286.216C802.621 286.216 801.277 285.72 800.447 284.73C799.617 283.739 799.202 282.711 799.202 281.647C799.202 280.95 799.913 278.748 801.336 275.041C802.759 271.334 803.49 268.545 803.53 266.673C803.53 264.508 802.66 263.425 800.921 263.425H800.625C797.225 263.425 794.36 265.279 792.028 268.985L791.613 269.646L789.656 277.023C788.352 281.83 787.601 284.418 787.403 284.785C786.889 285.776 786.04 286.271 784.854 286.271C784.34 286.271 783.925 286.161 783.609 285.941C783.293 285.72 783.075 285.5 782.957 285.28C782.838 285.06 782.799 284.876 782.838 284.73C782.838 284.252 783.589 281.261 785.091 275.756C786.593 270.251 787.384 267.26 787.463 266.783C787.502 266.6 787.522 266.178 787.522 265.517C787.522 264.086 787.048 263.37 786.099 263.37C784.597 263.37 783.352 265.205 782.364 268.875C782.127 269.609 782.008 269.995 782.008 270.031C781.929 270.251 781.554 270.362 780.882 270.362H780.052C779.814 270.141 779.696 269.976 779.696 269.866Z" fill="white"/>
</g>
<g id="Group_22">
<path id="Vector_21" d="M832.185 272.62C832.185 272.62 832.185 272.381 832.185 271.904C832.185 271.427 832.461 271.06 833.015 270.803H867.461C868.054 271.096 868.351 271.463 868.351 271.904C868.351 272.344 868.054 272.711 867.461 273.005H833.015C832.461 272.748 832.185 272.381 832.185 271.904V272.62Z" fill="white"/>
</g>
<g id="Group_23">
<path id="Vector_22" d="M899.132 253.848L898.362 254.123C897.808 254.306 897.018 254.49 895.99 254.673C894.962 254.857 893.816 254.985 892.551 255.059H891.425V252.526H892.551C894.409 252.453 896.128 252.178 897.709 251.701C899.29 251.224 900.397 250.783 901.03 250.38C901.662 249.976 902.215 249.572 902.69 249.168C902.769 249.058 903.006 249.003 903.401 249.003C903.757 249.003 904.093 249.113 904.409 249.334V265.793L904.468 282.308C904.745 282.565 904.982 282.731 905.18 282.804C905.377 282.877 905.852 282.951 906.603 283.024C907.354 283.098 908.579 283.134 910.279 283.134H911.82V285.667H911.168C910.338 285.556 907.196 285.501 901.741 285.501C896.366 285.501 893.263 285.556 892.433 285.667H891.721V283.134H893.263C894.132 283.134 894.883 283.134 895.516 283.134C896.148 283.134 896.642 283.116 896.998 283.079C897.354 283.042 897.67 282.987 897.947 282.914C898.223 282.841 898.381 282.804 898.421 282.804C898.46 282.804 898.579 282.712 898.777 282.529C898.974 282.345 899.093 282.272 899.132 282.308V253.848Z" fill="white"/>
</g>
</g>
<g id="Group 96">
<g id="Group_24">
<path id="Vector_23" d="M537.008 349.361C537.285 347.82 538.352 346.04 540.209 344.022C542.067 342.003 544.36 340.976 547.087 340.939C548.47 340.939 549.735 341.269 550.881 341.93C552.028 342.59 552.877 343.416 553.431 344.407C555.091 342.095 557.087 340.939 559.419 340.939C560.881 340.939 562.146 341.343 563.213 342.15C564.281 342.957 564.834 344.04 564.874 345.398C564.874 346.462 564.597 347.325 564.043 347.985C563.49 348.646 562.957 349.05 562.443 349.196C561.929 349.343 561.474 349.417 561.079 349.417C560.328 349.417 559.715 349.215 559.241 348.811C558.767 348.407 558.53 347.875 558.53 347.215C558.53 345.526 559.518 344.37 561.494 343.746C561.059 343.269 560.269 343.031 559.123 343.031C558.609 343.031 558.233 343.067 557.996 343.141C556.494 343.728 555.387 344.939 554.676 346.774C552.304 354.885 551.119 359.619 551.119 360.977C551.119 362.005 551.435 362.739 552.067 363.179C552.7 363.619 553.391 363.84 554.142 363.84C555.605 363.84 557.047 363.234 558.47 362.023C559.893 360.812 560.862 359.326 561.375 357.564C561.494 357.197 561.613 356.995 561.731 356.958C561.85 356.922 562.166 356.885 562.68 356.848H562.917C563.51 356.848 563.806 356.995 563.806 357.289C563.806 357.325 563.767 357.527 563.688 357.894C563.055 359.986 561.83 361.839 560.012 363.454C558.194 365.069 556.079 365.876 553.668 365.876C550.901 365.876 548.806 364.72 547.383 362.408C545.763 364.684 543.905 365.821 541.81 365.821H541.455C539.518 365.821 538.134 365.344 537.304 364.39C536.474 363.436 536.04 362.427 536 361.362C536 360.188 536.375 359.234 537.126 358.5C537.877 357.766 538.767 357.399 539.794 357.399C541.494 357.399 542.344 358.169 542.344 359.711C542.344 360.445 542.107 361.087 541.632 361.638C541.158 362.188 540.704 362.555 540.269 362.739C539.834 362.922 539.577 363.014 539.498 363.014L539.32 363.069C539.32 363.106 539.439 363.179 539.676 363.289C539.913 363.399 540.229 363.528 540.625 363.674C541.02 363.821 541.395 363.876 541.751 363.84C543.174 363.84 544.399 363.014 545.427 361.362C545.783 360.775 546.237 359.527 546.791 357.619C547.344 355.711 547.897 353.729 548.451 351.674C549.004 349.618 549.32 348.407 549.399 348.04C549.597 347.049 549.696 346.334 549.696 345.893C549.696 344.866 549.399 344.132 548.806 343.691C548.213 343.251 547.542 343.031 546.791 343.031C545.209 343.031 543.727 343.618 542.344 344.792C540.96 345.967 539.992 347.471 539.439 349.306C539.36 349.637 539.261 349.82 539.142 349.857C539.024 349.894 538.708 349.93 538.194 349.967H537.364C537.126 349.747 537.008 349.545 537.008 349.361Z" fill="white"/>
</g>
<g id="Group_25">
<path id="Vector_24" d="M628.171 365.272C627.46 365.162 624.91 365.107 620.523 365.107C615.938 365.107 613.29 365.162 612.578 365.272H612.045V362.74H613.883C614.673 362.74 615.207 362.74 615.483 362.74C615.76 362.74 616.096 362.703 616.491 362.63C616.887 362.557 617.163 362.465 617.321 362.355C617.479 362.245 617.618 362.098 617.736 361.914C617.776 361.841 617.796 360.85 617.796 358.942V356.189H602.44V353.657L611.393 340.94C617.44 332.426 620.503 328.15 620.582 328.114C620.661 328.04 621.076 328.004 621.827 328.004H622.894L623.25 328.334V353.657H628.705V356.189H623.25V358.997C623.25 360.501 623.25 361.382 623.25 361.639C623.25 361.896 623.369 362.116 623.606 362.3C623.922 362.557 625.049 362.703 626.985 362.74H628.705V365.272H628.171ZM618.151 353.657V335.27L605.167 353.602L611.63 353.657H618.151Z" fill="white"/>
</g>
</g>
</g>
</g>
</g>
</g>
</svg>
