<svg viewBox="0 0 975 647" fill="none" xmlns="http://www.w3.org/2000/svg">
<g id="0118102">
<g id="claves01">
<path id="Rectangle 4" d="M39 457H255.745L289 497L255.745 537H39V457Z" fill="#CD08D1" fill-opacity="0.1"/>
<path id="Rectangle 4 (Stroke)" fill-rule="evenodd" clip-rule="evenodd" d="M254.338 460H42V534H254.338L285.099 497L254.338 460ZM255.745 457H39V537H255.745L289 497L255.745 457Z" fill="#CD08D1"/>
<path id="Rectangle 5" d="M43 567H259.745L293 607L259.745 647H43V567Z" fill="#CD08D1" fill-opacity="0.1"/>
<path id="Rectangle 5 (Stroke)" fill-rule="evenodd" clip-rule="evenodd" d="M258.338 570H46V644H258.338L289.099 607L258.338 570ZM259.745 567H43V647H259.745L293 607L259.745 567Z" fill="#CD08D1"/>
<path id="Rectangle 6" d="M379 454H595.745L629 494L595.745 534H379V454Z" fill="#CD08D1" fill-opacity="0.1"/>
<path id="Rectangle 6 (Stroke)" fill-rule="evenodd" clip-rule="evenodd" d="M594.338 457H382V531H594.338L625.099 494L594.338 457ZM595.745 454H379V534H595.745L629 494L595.745 454Z" fill="#CD08D1"/>
<path id="Rectangle 7" d="M382 564H598.745L632 604L598.745 644H382V564Z" fill="#CD08D1" fill-opacity="0.1"/>
<path id="Rectangle 7 (Stroke)" fill-rule="evenodd" clip-rule="evenodd" d="M597.338 567H385V641H597.338L628.099 604L597.338 567ZM598.745 564H382V644H598.745L632 604L598.745 564Z" fill="#CD08D1"/>
<path id="Rectangle 8" d="M725 513H941.745L975 553L941.745 593H725V513Z" fill="#CD08D1" fill-opacity="0.1"/>
<path id="Rectangle 8 (Stroke)" fill-rule="evenodd" clip-rule="evenodd" d="M940.338 516H728V590H940.338L971.099 553L940.338 516ZM941.745 513H725V593H941.745L975 553L941.745 513Z" fill="#CD08D1"/>
<path id="Ellipse 1" d="M80 497C80 519.091 62.0914 537 40 537C17.9086 537 0 519.091 0 497C0 474.909 17.9086 457 40 457C62.0914 457 80 474.909 80 497Z" fill="#CD08D1"/>
<path id="Ellipse 2" d="M84 607C84 629.091 66.0914 647 44 647C21.9086 647 4 629.091 4 607C4 584.909 21.9086 567 44 567C66.0914 567 84 584.909 84 607Z" fill="#CD08D1"/>
<path id="Ellipse 3" d="M420 494C420 516.091 402.091 534 380 534C357.909 534 340 516.091 340 494C340 471.909 357.909 454 380 454C402.091 454 420 471.909 420 494Z" fill="#CD08D1"/>
<path id="Ellipse 4" d="M423 604C423 626.091 405.091 644 383 644C360.909 644 343 626.091 343 604C343 581.909 360.909 564 383 564C405.091 564 423 581.909 423 604Z" fill="#CD08D1"/>
<path id="Ellipse 5" d="M766 553C766 575.091 748.091 593 726 593C703.909 593 686 575.091 686 553C686 530.909 703.909 513 726 513C748.091 513 766 530.909 766 553Z" fill="#CD08D1"/>
<path id="A" d="M48.0938 507.406H30.4688L26.7812 518H18.5625L35.75 472.5H42.8438L60.0625 518H51.8125L48.0938 507.406ZM32.6875 501.031H45.875L39.2812 482.156L32.6875 501.031Z" fill="white"/>
<path id="B" d="M27.625 623V577.5H43.2188C48.3646 577.5 52.2812 578.531 54.9688 580.594C57.6562 582.656 59 585.729 59 589.812C59 591.896 58.4375 593.771 57.3125 595.438C56.1875 597.104 54.5417 598.396 52.375 599.312C54.8333 599.979 56.7292 601.24 58.0625 603.094C59.4167 604.927 60.0938 607.135 60.0938 609.719C60.0938 613.99 58.7188 617.271 55.9688 619.562C53.2396 621.854 49.3229 623 44.2188 623H27.625ZM35.5312 602.469V616.688H44.3125C46.7917 616.688 48.7292 616.073 50.125 614.844C51.5208 613.615 52.2188 611.906 52.2188 609.719C52.2188 604.99 49.8021 602.573 44.9688 602.469H35.5312ZM35.5312 596.656H43.2812C45.7396 596.656 47.6562 596.104 49.0312 595C50.4271 593.875 51.125 592.292 51.125 590.25C51.125 588 50.4792 586.375 49.1875 585.375C47.9167 584.375 45.9271 583.875 43.2188 583.875H35.5312V596.656Z" fill="white"/>
<path id="C" d="M397.344 501.188C396.885 506.042 395.094 509.833 391.969 512.562C388.844 515.271 384.688 516.625 379.5 516.625C375.875 516.625 372.677 515.771 369.906 514.062C367.156 512.333 365.031 509.885 363.531 506.719C362.031 503.552 361.25 499.875 361.188 495.688V491.438C361.188 487.146 361.948 483.365 363.469 480.094C364.99 476.823 367.167 474.302 370 472.531C372.854 470.76 376.146 469.875 379.875 469.875C384.896 469.875 388.938 471.24 392 473.969C395.062 476.698 396.844 480.552 397.344 485.531H389.469C389.094 482.26 388.135 479.906 386.594 478.469C385.073 477.01 382.833 476.281 379.875 476.281C376.438 476.281 373.792 477.542 371.938 480.062C370.104 482.562 369.167 486.24 369.125 491.094V495.125C369.125 500.042 370 503.792 371.75 506.375C373.521 508.958 376.104 510.25 379.5 510.25C382.604 510.25 384.938 509.552 386.5 508.156C388.062 506.76 389.052 504.438 389.469 501.188H397.344Z" fill="white"/>
<path id="D" d="M365.625 626V580.5H379.062C383.083 580.5 386.646 581.396 389.75 583.188C392.875 584.979 395.292 587.521 397 590.812C398.708 594.104 399.562 597.875 399.562 602.125V604.406C399.562 608.719 398.698 612.51 396.969 615.781C395.26 619.052 392.812 621.573 389.625 623.344C386.458 625.115 382.823 626 378.719 626H365.625ZM373.531 586.875V619.688H378.688C382.833 619.688 386.01 618.396 388.219 615.812C390.448 613.208 391.583 609.479 391.625 604.625V602.094C391.625 597.156 390.552 593.385 388.406 590.781C386.26 588.177 383.146 586.875 379.062 586.875H373.531Z" fill="white"/>
<path id="E" d="M735.219 554.688H716.531V568.688H738.375V575H708.625V529.5H738.156V535.875H716.531V548.438H735.219V554.688Z" fill="white"/>
<path id="1" d="M161.086 520H156.727V491.102L147.984 494.312V490.375L160.406 485.711H161.086V520Z" fill="#CD08D1"/>
<g id="x-1">
<path d="M155.789 613.898L161.414 604.641H166.477L158.18 617.18L166.734 630H161.719L155.859 620.508L150 630H144.961L153.516 617.18L145.219 604.641H150.234L155.789 613.898Z" fill="#CD08D1"/>
<path d="M180.117 617.273H168.68V613.734H180.117V617.273Z" fill="#CD08D1"/>
<path d="M198.164 630H193.805V601.102L185.062 604.312V600.375L197.484 595.711H198.164V630Z" fill="#CD08D1"/>
</g>
<g id="x+1">
<path d="M487.789 613.898L493.414 604.641H498.477L490.18 617.18L498.734 630H493.719L487.859 620.508L482 630H476.961L485.516 617.18L477.219 604.641H482.234L487.789 613.898Z" fill="#CD08D1"/>
<path d="M515.516 611.695H525.031V615.797H515.516V626.578H511.156V615.797H501.641V611.695H511.156V601.734H515.516V611.695Z" fill="#CD08D1"/>
<path d="M544.133 630H539.773V601.102L531.031 604.312V600.375L543.453 595.711H544.133V630Z" fill="#CD08D1"/>
</g>
<g id="19">
<path d="M839.789 556.898L845.414 547.641H850.477L842.18 560.18L850.734 573H845.719L839.859 563.508L834 573H828.961L837.516 560.18L829.219 547.641H834.234L839.789 556.898Z" fill="#CD08D1"/>
<path d="M867.516 554.695H877.031V558.797H867.516V569.578H863.156V558.797H853.641V554.695H863.156V544.734H867.516V554.695Z" fill="#CD08D1"/>
<path d="M900.188 561.539H904.922V565.078H900.188V573H895.828V565.078H880.289V562.523L895.57 538.875H900.188V561.539ZM885.211 561.539H895.828V544.805L895.312 545.742L885.211 561.539Z" fill="#CD08D1"/>
</g>
<path id="17" d="M487.789 499.898L493.414 490.641H498.477L490.18 503.18L498.734 516H493.719L487.859 506.508L482 516H476.961L485.516 503.18L477.219 490.641H482.234L487.789 499.898Z" fill="#CD08D1"/>
<g id="flecha">
<path id="Rectangle 2" d="M736.2 516.008L751.482 524.133L709.5 603.089L694.218 594.963L736.2 516.008Z" fill="#1043F5"/>
<path id="Rectangle 1" d="M678 528.904L768 479V536.692L723 519.096L678 528.904Z" fill="#1043F5"/>
<path id="Rectangle 3" d="M682.038 598.21L697.666 571.143L714.936 570.565L699.309 597.632L682.038 598.21Z" fill="#1043F5"/>
<path id="Rectangle 4_2" d="M708.089 612.845L723.717 585.778L714.926 570.154L699.299 597.221L708.089 612.845Z" fill="#1043F5"/>
</g>
</g>
<g id="Group 8">
<path id="Rectangle 1_2" d="M37 53.9299C37 25.8312 59.0421 3.05267 86.2324 3.05267H935V355.123C935 383.222 912.957 406 885.767 406H37V53.9299Z" fill="#02071A"/>
<path id="Rectangle 1 (Stroke)" fill-rule="evenodd" clip-rule="evenodd" d="M930.076 8.14039H86.2324C61.7611 8.14039 41.9232 28.641 41.9232 53.9299V400.912H885.767C910.238 400.912 930.076 380.412 930.076 355.123V8.14039ZM86.2324 3.05267C59.0421 3.05267 37 25.8312 37 53.9299V406H885.767C912.957 406 935 383.222 935 355.123V3.05267H86.2324Z" fill="#CD08D1"/>
<path id="Rectangle 14" d="M90.3187 3.12632C116.651 -3.9079 935 3.12632 935 3.12632V33.5789C935 33.5789 76.3859 22.386 45.8618 33.5789C55.3595 17.4273 63.9868 10.1605 90.3187 3.12632Z" fill="#CD08D1"/>
<path id="Rectangle 15" d="M905.46 3.05267H935V356.14C931.374 380.102 923.859 388.908 905.46 400.404C910.876 381.579 905.46 3.05267 905.46 3.05267Z" fill="#CD08D1"/>
</g>
<g id="Group 344">
<g id=" Se define el operador en &#226;&#132;&#149;, mediante: Calcula">
<path d="M91.0459 78H71.4814V75.2725L81.8174 63.7881C83.3486 62.0518 84.4014 60.6436 84.9756 59.5635C85.5635 58.4697 85.8574 57.3418 85.8574 56.1797C85.8574 54.6211 85.3857 53.3428 84.4424 52.3447C83.499 51.3467 82.2412 50.8477 80.6689 50.8477C78.7822 50.8477 77.3125 51.3877 76.2598 52.4678C75.2207 53.5342 74.7012 55.0244 74.7012 56.9385H70.9072C70.9072 54.1904 71.7891 51.9688 73.5527 50.2734C75.3301 48.5781 77.7021 47.7305 80.6689 47.7305C83.4443 47.7305 85.6387 48.4619 87.252 49.9248C88.8652 51.374 89.6719 53.3086 89.6719 55.7285C89.6719 58.668 87.7988 62.168 84.0527 66.2285L76.0547 74.9033H91.0459V78Z" fill="white"/>
<path d="M95.5371 76.0107C95.5371 75.3545 95.7285 74.8076 96.1113 74.3701C96.5078 73.9326 97.0957 73.7139 97.875 73.7139C98.6543 73.7139 99.2422 73.9326 99.6387 74.3701C100.049 74.8076 100.254 75.3545 100.254 76.0107C100.254 76.6396 100.049 77.166 99.6387 77.5898C99.2422 78.0137 98.6543 78.2256 97.875 78.2256C97.0957 78.2256 96.5078 78.0137 96.1113 77.5898C95.7285 77.166 95.5371 76.6396 95.5371 76.0107Z" fill="white"/>
<path d="M126.34 64.6904C122.963 63.7197 120.502 62.5303 118.957 61.1221C117.426 59.7002 116.66 57.9502 116.66 55.8721C116.66 53.5205 117.597 51.5791 119.47 50.0479C121.356 48.5029 123.804 47.7305 126.812 47.7305C128.862 47.7305 130.688 48.127 132.287 48.9199C133.9 49.7129 135.145 50.8066 136.02 52.2012C136.908 53.5957 137.353 55.1201 137.353 56.7744H133.395C133.395 54.9697 132.82 53.5547 131.672 52.5293C130.523 51.4902 128.903 50.9707 126.812 50.9707C124.87 50.9707 123.353 51.4014 122.259 52.2627C121.179 53.1104 120.639 54.293 120.639 55.8105C120.639 57.0273 121.151 58.0596 122.177 58.9072C123.216 59.7412 124.973 60.5068 127.447 61.2041C129.936 61.9014 131.877 62.6738 133.271 63.5215C134.68 64.3555 135.719 65.333 136.389 66.4541C137.072 67.5752 137.414 68.8945 137.414 70.4121C137.414 72.832 136.471 74.7734 134.584 76.2363C132.697 77.6855 130.175 78.4102 127.017 78.4102C124.966 78.4102 123.052 78.0205 121.274 77.2412C119.497 76.4482 118.123 75.3682 117.152 74.001C116.195 72.6338 115.717 71.082 115.717 69.3457H119.675C119.675 71.1504 120.338 72.5791 121.664 73.6318C123.004 74.6709 124.788 75.1904 127.017 75.1904C129.095 75.1904 130.688 74.7666 131.795 73.9189C132.902 73.0713 133.456 71.916 133.456 70.4531C133.456 68.9902 132.943 67.8623 131.918 67.0693C130.893 66.2627 129.033 65.4697 126.34 64.6904Z" fill="white"/>
<path d="M151.093 78.4102C148.085 78.4102 145.638 77.4258 143.751 75.457C141.864 73.4746 140.921 70.8291 140.921 67.5205V66.8232C140.921 64.6221 141.338 62.6602 142.172 60.9375C143.02 59.2012 144.195 57.8477 145.699 56.877C147.217 55.8926 148.857 55.4004 150.621 55.4004C153.506 55.4004 155.748 56.3506 157.348 58.251C158.947 60.1514 159.747 62.8721 159.747 66.4131V67.9922H144.715C144.77 70.1797 145.405 71.9502 146.622 73.3037C147.853 74.6436 149.411 75.3135 151.298 75.3135C152.638 75.3135 153.772 75.04 154.702 74.4932C155.632 73.9463 156.445 73.2217 157.143 72.3193L159.46 74.124C157.601 76.9814 154.812 78.4102 151.093 78.4102ZM150.621 58.5176C149.09 58.5176 147.805 59.0781 146.766 60.1992C145.727 61.3066 145.084 62.8652 144.838 64.875H155.953V64.5879C155.844 62.6602 155.324 61.1699 154.395 60.1172C153.465 59.0508 152.207 58.5176 150.621 58.5176Z" fill="white"/>
<path d="M173.651 66.7207C173.651 63.3164 174.458 60.582 176.071 58.5176C177.685 56.4395 179.797 55.4004 182.408 55.4004C185.006 55.4004 187.063 56.2891 188.581 58.0664V46.5H192.375V78H188.889L188.704 75.6211C187.187 77.4805 185.074 78.4102 182.367 78.4102C179.797 78.4102 177.698 77.3574 176.071 75.252C174.458 73.1465 173.651 70.3984 173.651 67.0078V66.7207ZM177.445 67.1514C177.445 69.667 177.965 71.6357 179.004 73.0576C180.043 74.4795 181.479 75.1904 183.311 75.1904C185.717 75.1904 187.474 74.1104 188.581 71.9502V61.7578C187.446 59.666 185.703 58.6201 183.352 58.6201C181.492 58.6201 180.043 59.3379 179.004 60.7734C177.965 62.209 177.445 64.335 177.445 67.1514Z" fill="white"/>
<path d="M207.489 78.4102C204.481 78.4102 202.034 77.4258 200.147 75.457C198.261 73.4746 197.317 70.8291 197.317 67.5205V66.8232C197.317 64.6221 197.734 62.6602 198.568 60.9375C199.416 59.2012 200.592 57.8477 202.096 56.877C203.613 55.8926 205.254 55.4004 207.018 55.4004C209.902 55.4004 212.145 56.3506 213.744 58.251C215.344 60.1514 216.144 62.8721 216.144 66.4131V67.9922H201.111C201.166 70.1797 201.802 71.9502 203.019 73.3037C204.249 74.6436 205.808 75.3135 207.694 75.3135C209.034 75.3135 210.169 75.04 211.099 74.4932C212.028 73.9463 212.842 73.2217 213.539 72.3193L215.856 74.124C213.997 76.9814 211.208 78.4102 207.489 78.4102ZM207.018 58.5176C205.486 58.5176 204.201 59.0781 203.162 60.1992C202.123 61.3066 201.48 62.8652 201.234 64.875H212.35V64.5879C212.24 62.6602 211.721 61.1699 210.791 60.1172C209.861 59.0508 208.604 58.5176 207.018 58.5176Z" fill="white"/>
<path d="M221.824 78V58.7432H218.317V55.8105H221.824V53.9238C221.824 51.4492 222.528 49.5215 223.937 48.1406C225.358 46.7598 227.361 46.0693 229.945 46.0693C231.477 46.0693 233.411 46.4863 235.749 47.3203L235.113 50.5195C233.404 49.8359 231.777 49.4941 230.232 49.4941C228.605 49.4941 227.43 49.8633 226.705 50.6016C225.994 51.3262 225.639 52.4199 225.639 53.8828V55.8105H230.171V58.7432H225.639V78H221.824ZM237.636 78H233.821V55.8105H237.636V78Z" fill="white"/>
<path d="M247.397 55.8105L247.521 58.5996C249.216 56.4668 251.431 55.4004 254.165 55.4004C258.854 55.4004 261.22 58.0459 261.261 63.3369V78H257.467V63.3164C257.453 61.7168 257.084 60.5342 256.359 59.7686C255.648 59.0029 254.534 58.6201 253.017 58.6201C251.786 58.6201 250.706 58.9482 249.776 59.6045C248.847 60.2607 248.122 61.1221 247.603 62.1885V78H243.809V55.8105H247.397Z" fill="white"/>
<path d="M276.19 78.4102C273.183 78.4102 270.735 77.4258 268.849 75.457C266.962 73.4746 266.019 70.8291 266.019 67.5205V66.8232C266.019 64.6221 266.436 62.6602 267.27 60.9375C268.117 59.2012 269.293 57.8477 270.797 56.877C272.314 55.8926 273.955 55.4004 275.719 55.4004C278.604 55.4004 280.846 56.3506 282.445 58.251C284.045 60.1514 284.845 62.8721 284.845 66.4131V67.9922H269.812C269.867 70.1797 270.503 71.9502 271.72 73.3037C272.95 74.6436 274.509 75.3135 276.396 75.3135C277.735 75.3135 278.87 75.04 279.8 74.4932C280.729 73.9463 281.543 73.2217 282.24 72.3193L284.558 74.124C282.698 76.9814 279.909 78.4102 276.19 78.4102ZM275.719 58.5176C274.188 58.5176 272.902 59.0781 271.863 60.1992C270.824 61.3066 270.182 62.8652 269.936 64.875H281.051V64.5879C280.941 62.6602 280.422 61.1699 279.492 60.1172C278.562 59.0508 277.305 58.5176 275.719 58.5176Z" fill="white"/>
<path d="M308.88 78.4102C305.872 78.4102 303.425 77.4258 301.538 75.457C299.651 73.4746 298.708 70.8291 298.708 67.5205V66.8232C298.708 64.6221 299.125 62.6602 299.959 60.9375C300.807 59.2012 301.982 57.8477 303.486 56.877C305.004 55.8926 306.645 55.4004 308.408 55.4004C311.293 55.4004 313.535 56.3506 315.135 58.251C316.734 60.1514 317.534 62.8721 317.534 66.4131V67.9922H302.502C302.557 70.1797 303.192 71.9502 304.409 73.3037C305.64 74.6436 307.198 75.3135 309.085 75.3135C310.425 75.3135 311.56 75.04 312.489 74.4932C313.419 73.9463 314.232 73.2217 314.93 72.3193L317.247 74.124C315.388 76.9814 312.599 78.4102 308.88 78.4102ZM308.408 58.5176C306.877 58.5176 305.592 59.0781 304.553 60.1992C303.514 61.3066 302.871 62.8652 302.625 64.875H313.74V64.5879C313.631 62.6602 313.111 61.1699 312.182 60.1172C311.252 59.0508 309.994 58.5176 308.408 58.5176Z" fill="white"/>
<path d="M326.065 78H322.271V46.5H326.065V78Z" fill="white"/>
<path d="M341.569 66.7002C341.569 64.5264 341.993 62.5713 342.841 60.835C343.702 59.0986 344.892 57.7588 346.409 56.8154C347.94 55.8721 349.684 55.4004 351.639 55.4004C354.66 55.4004 357.101 56.4463 358.96 58.5381C360.833 60.6299 361.77 63.4121 361.77 66.8848V67.1514C361.77 69.3115 361.353 71.2529 360.519 72.9756C359.698 74.6846 358.516 76.0176 356.971 76.9746C355.439 77.9316 353.676 78.4102 351.68 78.4102C348.672 78.4102 346.231 77.3643 344.358 75.2725C342.499 73.1807 341.569 70.4121 341.569 66.9668V66.7002ZM345.384 67.1514C345.384 69.6123 345.951 71.5879 347.086 73.0781C348.234 74.5684 349.766 75.3135 351.68 75.3135C353.607 75.3135 355.139 74.5615 356.273 73.0576C357.408 71.54 357.976 69.4209 357.976 66.7002C357.976 64.2666 357.395 62.2979 356.232 60.7939C355.084 59.2764 353.553 58.5176 351.639 58.5176C349.766 58.5176 348.255 59.2627 347.106 60.7529C345.958 62.2432 345.384 64.376 345.384 67.1514Z" fill="white"/>
<path d="M385.271 67.1514C385.271 70.5283 384.499 73.249 382.954 75.3135C381.409 77.3779 379.317 78.4102 376.679 78.4102C373.985 78.4102 371.866 77.5557 370.321 75.8467V86.5312H366.527V55.8105H369.993L370.178 58.2715C371.723 56.3574 373.869 55.4004 376.617 55.4004C379.283 55.4004 381.389 56.4053 382.934 58.415C384.492 60.4248 385.271 63.2207 385.271 66.8027V67.1514ZM381.478 66.7207C381.478 64.2188 380.944 62.2432 379.878 60.7939C378.812 59.3447 377.349 58.6201 375.489 58.6201C373.192 58.6201 371.47 59.6387 370.321 61.6758V72.2783C371.456 74.3018 373.192 75.3135 375.53 75.3135C377.349 75.3135 378.791 74.5957 379.857 73.1602C380.938 71.7109 381.478 69.5645 381.478 66.7207Z" fill="white"/>
<path d="M399.319 78.4102C396.312 78.4102 393.864 77.4258 391.978 75.457C390.091 73.4746 389.147 70.8291 389.147 67.5205V66.8232C389.147 64.6221 389.564 62.6602 390.398 60.9375C391.246 59.2012 392.422 57.8477 393.926 56.877C395.443 55.8926 397.084 55.4004 398.848 55.4004C401.732 55.4004 403.975 56.3506 405.574 58.251C407.174 60.1514 407.974 62.8721 407.974 66.4131V67.9922H392.941C392.996 70.1797 393.632 71.9502 394.849 73.3037C396.079 74.6436 397.638 75.3135 399.524 75.3135C400.864 75.3135 401.999 75.04 402.929 74.4932C403.858 73.9463 404.672 73.2217 405.369 72.3193L407.687 74.124C405.827 76.9814 403.038 78.4102 399.319 78.4102ZM398.848 58.5176C397.316 58.5176 396.031 59.0781 394.992 60.1992C393.953 61.3066 393.311 62.8652 393.064 64.875H404.18V64.5879C404.07 62.6602 403.551 61.1699 402.621 60.1172C401.691 59.0508 400.434 58.5176 398.848 58.5176Z" fill="white"/>
<path d="M423.108 59.2148C422.534 59.1191 421.912 59.0713 421.242 59.0713C418.754 59.0713 417.065 60.1309 416.177 62.25V78H412.383V55.8105H416.074L416.136 58.374C417.38 56.3916 419.144 55.4004 421.427 55.4004C422.165 55.4004 422.726 55.4961 423.108 55.6875V59.2148Z" fill="white"/>
<path d="M439.494 78C439.275 77.5625 439.098 76.7832 438.961 75.6621C437.197 77.4941 435.092 78.4102 432.645 78.4102C430.457 78.4102 428.659 77.7949 427.251 76.5645C425.856 75.3203 425.159 73.748 425.159 71.8477C425.159 69.5371 426.034 67.7461 427.784 66.4746C429.548 65.1895 432.022 64.5469 435.208 64.5469H438.899V62.8037C438.899 61.4775 438.503 60.4248 437.71 59.6455C436.917 58.8525 435.748 58.4561 434.203 58.4561C432.85 58.4561 431.715 58.7979 430.799 59.4814C429.883 60.165 429.425 60.9922 429.425 61.9629H425.61C425.61 60.8555 426 59.7891 426.779 58.7637C427.572 57.7246 428.639 56.9043 429.979 56.3027C431.332 55.7012 432.815 55.4004 434.429 55.4004C436.985 55.4004 438.988 56.043 440.438 57.3281C441.887 58.5996 442.639 60.3564 442.693 62.5986V72.8115C442.693 74.8486 442.953 76.4688 443.473 77.6719V78H439.494ZM433.198 75.1084C434.388 75.1084 435.516 74.8008 436.582 74.1855C437.648 73.5703 438.421 72.7705 438.899 71.7861V67.2334H435.926C431.277 67.2334 428.953 68.5938 428.953 71.3145C428.953 72.5039 429.35 73.4336 430.143 74.1035C430.936 74.7734 431.954 75.1084 433.198 75.1084Z" fill="white"/>
<path d="M447.718 66.7207C447.718 63.3164 448.524 60.582 450.138 58.5176C451.751 56.4395 453.863 55.4004 456.475 55.4004C459.072 55.4004 461.13 56.2891 462.647 58.0664V46.5H466.441V78H462.955L462.771 75.6211C461.253 77.4805 459.141 78.4102 456.434 78.4102C453.863 78.4102 451.765 77.3574 450.138 75.252C448.524 73.1465 447.718 70.3984 447.718 67.0078V66.7207ZM451.512 67.1514C451.512 69.667 452.031 71.6357 453.07 73.0576C454.109 74.4795 455.545 75.1904 457.377 75.1904C459.783 75.1904 461.54 74.1104 462.647 71.9502V61.7578C461.513 59.666 459.77 58.6201 457.418 58.6201C455.559 58.6201 454.109 59.3379 453.07 60.7734C452.031 62.209 451.512 64.335 451.512 67.1514Z" fill="white"/>
<path d="M471.343 66.7002C471.343 64.5264 471.767 62.5713 472.614 60.835C473.476 59.0986 474.665 57.7588 476.183 56.8154C477.714 55.8721 479.457 55.4004 481.412 55.4004C484.434 55.4004 486.874 56.4463 488.733 58.5381C490.606 60.6299 491.543 63.4121 491.543 66.8848V67.1514C491.543 69.3115 491.126 71.2529 490.292 72.9756C489.472 74.6846 488.289 76.0176 486.744 76.9746C485.213 77.9316 483.449 78.4102 481.453 78.4102C478.445 78.4102 476.005 77.3643 474.132 75.2725C472.272 73.1807 471.343 70.4121 471.343 66.9668V66.7002ZM475.157 67.1514C475.157 69.6123 475.725 71.5879 476.859 73.0781C478.008 74.5684 479.539 75.3135 481.453 75.3135C483.381 75.3135 484.912 74.5615 486.047 73.0576C487.182 71.54 487.749 69.4209 487.749 66.7002C487.749 64.2666 487.168 62.2979 486.006 60.7939C484.857 59.2764 483.326 58.5176 481.412 58.5176C479.539 58.5176 478.028 59.2627 476.88 60.7529C475.731 62.2432 475.157 64.376 475.157 67.1514Z" fill="white"/>
<path d="M507.026 59.2148C506.452 59.1191 505.83 59.0713 505.16 59.0713C502.672 59.0713 500.983 60.1309 500.095 62.25V78H496.301V55.8105H499.992L500.054 58.374C501.298 56.3916 503.062 55.4004 505.345 55.4004C506.083 55.4004 506.644 55.4961 507.026 55.6875V59.2148Z" fill="white"/>
<path d="M603.085 78.4102C600.077 78.4102 597.63 77.4258 595.743 75.457C593.856 73.4746 592.913 70.8291 592.913 67.5205V66.8232C592.913 64.6221 593.33 62.6602 594.164 60.9375C595.012 59.2012 596.188 57.8477 597.691 56.877C599.209 55.8926 600.85 55.4004 602.613 55.4004C605.498 55.4004 607.74 56.3506 609.34 58.251C610.939 60.1514 611.739 62.8721 611.739 66.4131V67.9922H596.707C596.762 70.1797 597.397 71.9502 598.614 73.3037C599.845 74.6436 601.403 75.3135 603.29 75.3135C604.63 75.3135 605.765 75.04 606.694 74.4932C607.624 73.9463 608.438 73.2217 609.135 72.3193L611.452 74.124C609.593 76.9814 606.804 78.4102 603.085 78.4102ZM602.613 58.5176C601.082 58.5176 599.797 59.0781 598.758 60.1992C597.719 61.3066 597.076 62.8652 596.83 64.875H607.945V64.5879C607.836 62.6602 607.316 61.1699 606.387 60.1172C605.457 59.0508 604.199 58.5176 602.613 58.5176Z" fill="white"/>
<path d="M619.737 55.8105L619.86 58.5996C621.556 56.4668 623.771 55.4004 626.505 55.4004C631.194 55.4004 633.56 58.0459 633.601 63.3369V78H629.807V63.3164C629.793 61.7168 629.424 60.5342 628.699 59.7686C627.988 59.0029 626.874 58.6201 625.356 58.6201C624.126 58.6201 623.046 58.9482 622.116 59.6045C621.187 60.2607 620.462 61.1221 619.942 62.1885V78H616.148V55.8105H619.737Z" fill="white"/>
<path d="M650.943 78V48.012H654.135L673.245 68.592V48.012H675.471V78H672.237L653.169 57.378V78H650.943ZM673.245 75.774V71.658L653.169 50.238V54.396L673.245 75.774Z" fill="white"/>
<path d="M682.307 83.9473L680.153 82.4707C681.438 80.6797 682.108 78.834 682.163 76.9336V73.5088H685.875V76.4824C685.875 77.8633 685.533 79.2441 684.85 80.625C684.18 82.0059 683.332 83.1133 682.307 83.9473Z" fill="white"/>
<path d="M704.66 55.8105L704.763 58.2715C706.39 56.3574 708.584 55.4004 711.346 55.4004C714.449 55.4004 716.562 56.5898 717.683 58.9688C718.421 57.9023 719.378 57.041 720.554 56.3848C721.743 55.7285 723.145 55.4004 724.758 55.4004C729.625 55.4004 732.1 57.9775 732.182 63.1318V78H728.388V63.3574C728.388 61.7715 728.025 60.5889 727.301 59.8096C726.576 59.0166 725.359 58.6201 723.65 58.6201C722.242 58.6201 721.073 59.0439 720.144 59.8916C719.214 60.7256 718.674 61.8535 718.523 63.2754V78H714.709V63.46C714.709 60.2334 713.13 58.6201 709.972 58.6201C707.483 58.6201 705.781 59.6797 704.865 61.7988V78H701.071V55.8105H704.66Z" fill="white"/>
<path d="M747.132 78.4102C744.124 78.4102 741.677 77.4258 739.79 75.457C737.903 73.4746 736.96 70.8291 736.96 67.5205V66.8232C736.96 64.6221 737.377 62.6602 738.211 60.9375C739.059 59.2012 740.234 57.8477 741.738 56.877C743.256 55.8926 744.896 55.4004 746.66 55.4004C749.545 55.4004 751.787 56.3506 753.387 58.251C754.986 60.1514 755.786 62.8721 755.786 66.4131V67.9922H740.754C740.809 70.1797 741.444 71.9502 742.661 73.3037C743.892 74.6436 745.45 75.3135 747.337 75.3135C748.677 75.3135 749.812 75.04 750.741 74.4932C751.671 73.9463 752.484 73.2217 753.182 72.3193L755.499 74.124C753.64 76.9814 750.851 78.4102 747.132 78.4102ZM746.66 58.5176C745.129 58.5176 743.844 59.0781 742.805 60.1992C741.766 61.3066 741.123 62.8652 740.877 64.875H751.992V64.5879C751.883 62.6602 751.363 61.1699 750.434 60.1172C749.504 59.0508 748.246 58.5176 746.66 58.5176Z" fill="white"/>
<path d="M759.272 66.7207C759.272 63.3164 760.079 60.582 761.692 58.5176C763.306 56.4395 765.418 55.4004 768.029 55.4004C770.627 55.4004 772.685 56.2891 774.202 58.0664V46.5H777.996V78H774.51L774.325 75.6211C772.808 77.4805 770.695 78.4102 767.988 78.4102C765.418 78.4102 763.319 77.3574 761.692 75.252C760.079 73.1465 759.272 70.3984 759.272 67.0078V66.7207ZM763.066 67.1514C763.066 69.667 763.586 71.6357 764.625 73.0576C765.664 74.4795 767.1 75.1904 768.932 75.1904C771.338 75.1904 773.095 74.1104 774.202 71.9502V61.7578C773.067 59.666 771.324 58.6201 768.973 58.6201C767.113 58.6201 765.664 59.3379 764.625 60.7734C763.586 62.209 763.066 64.335 763.066 67.1514Z" fill="white"/>
<path d="M788.024 78H784.23V55.8105H788.024V78ZM783.923 49.9248C783.923 49.3096 784.107 48.79 784.477 48.3662C784.859 47.9424 785.42 47.7305 786.158 47.7305C786.896 47.7305 787.457 47.9424 787.84 48.3662C788.223 48.79 788.414 49.3096 788.414 49.9248C788.414 50.54 788.223 51.0527 787.84 51.4629C787.457 51.873 786.896 52.0781 786.158 52.0781C785.42 52.0781 784.859 51.873 784.477 51.4629C784.107 51.0527 783.923 50.54 783.923 49.9248Z" fill="white"/>
<path d="M807.814 78C807.596 77.5625 807.418 76.7832 807.281 75.6621C805.518 77.4941 803.412 78.4102 800.965 78.4102C798.777 78.4102 796.979 77.7949 795.571 76.5645C794.177 75.3203 793.479 73.748 793.479 71.8477C793.479 69.5371 794.354 67.7461 796.104 66.4746C797.868 65.1895 800.343 64.5469 803.528 64.5469H807.22V62.8037C807.22 61.4775 806.823 60.4248 806.03 59.6455C805.237 58.8525 804.068 58.4561 802.523 58.4561C801.17 58.4561 800.035 58.7979 799.119 59.4814C798.203 60.165 797.745 60.9922 797.745 61.9629H793.931C793.931 60.8555 794.32 59.7891 795.1 58.7637C795.893 57.7246 796.959 56.9043 798.299 56.3027C799.652 55.7012 801.136 55.4004 802.749 55.4004C805.306 55.4004 807.309 56.043 808.758 57.3281C810.207 58.5996 810.959 60.3564 811.014 62.5986V72.8115C811.014 74.8486 811.273 76.4688 811.793 77.6719V78H807.814ZM801.519 75.1084C802.708 75.1084 803.836 74.8008 804.902 74.1855C805.969 73.5703 806.741 72.7705 807.22 71.7861V67.2334H804.246C799.598 67.2334 797.273 68.5938 797.273 71.3145C797.273 72.5039 797.67 73.4336 798.463 74.1035C799.256 74.7734 800.274 75.1084 801.519 75.1084Z" fill="white"/>
<path d="M820.55 55.8105L820.673 58.5996C822.368 56.4668 824.583 55.4004 827.317 55.4004C832.007 55.4004 834.372 58.0459 834.413 63.3369V78H830.619V63.3164C830.605 61.7168 830.236 60.5342 829.512 59.7686C828.801 59.0029 827.687 58.6201 826.169 58.6201C824.938 58.6201 823.858 58.9482 822.929 59.6045C821.999 60.2607 821.274 61.1221 820.755 62.1885V78H816.961V55.8105H820.55Z" fill="white"/>
<path d="M845.282 50.4375V55.8105H849.425V58.7432H845.282V72.5039C845.282 73.3926 845.467 74.0625 845.836 74.5137C846.205 74.9512 846.834 75.1699 847.723 75.1699C848.16 75.1699 848.762 75.0879 849.527 74.9238V78C848.529 78.2734 847.559 78.4102 846.615 78.4102C844.92 78.4102 843.642 77.8975 842.78 76.8721C841.919 75.8467 841.488 74.3906 841.488 72.5039V58.7432H837.448V55.8105H841.488V50.4375H845.282Z" fill="white"/>
<path d="M863.083 78.4102C860.075 78.4102 857.628 77.4258 855.741 75.457C853.854 73.4746 852.911 70.8291 852.911 67.5205V66.8232C852.911 64.6221 853.328 62.6602 854.162 60.9375C855.01 59.2012 856.186 57.8477 857.689 56.877C859.207 55.8926 860.848 55.4004 862.611 55.4004C865.496 55.4004 867.738 56.3506 869.338 58.251C870.938 60.1514 871.737 62.8721 871.737 66.4131V67.9922H856.705C856.76 70.1797 857.396 71.9502 858.612 73.3037C859.843 74.6436 861.401 75.3135 863.288 75.3135C864.628 75.3135 865.763 75.04 866.692 74.4932C867.622 73.9463 868.436 73.2217 869.133 72.3193L871.45 74.124C869.591 76.9814 866.802 78.4102 863.083 78.4102ZM862.611 58.5176C861.08 58.5176 859.795 59.0781 858.756 60.1992C857.717 61.3066 857.074 62.8652 856.828 64.875H867.943V64.5879C867.834 62.6602 867.314 61.1699 866.385 60.1172C865.455 59.0508 864.197 58.5176 862.611 58.5176Z" fill="white"/>
<path d="M876.023 76.0107C876.023 75.3545 876.215 74.8076 876.598 74.3701C876.994 73.9326 877.582 73.7139 878.361 73.7139C879.141 73.7139 879.729 73.9326 880.125 74.3701C880.535 74.8076 880.74 75.3545 880.74 76.0107C880.74 76.6396 880.535 77.166 880.125 77.5898C879.729 78.0137 879.141 78.2256 878.361 78.2256C877.582 78.2256 876.994 78.0137 876.598 77.5898C876.215 77.166 876.023 76.6396 876.023 76.0107ZM876.044 57.9023C876.044 57.2461 876.235 56.6992 876.618 56.2617C877.015 55.8242 877.603 55.6055 878.382 55.6055C879.161 55.6055 879.749 55.8242 880.146 56.2617C880.556 56.6992 880.761 57.2461 880.761 57.9023C880.761 58.5312 880.556 59.0576 880.146 59.4814C879.749 59.9053 879.161 60.1172 878.382 60.1172C877.603 60.1172 877.015 59.9053 876.618 59.4814C876.235 59.0576 876.044 58.5312 876.044 57.9023Z" fill="white"/>
<path d="M94.4297 268.525C94.0605 271.684 92.8916 274.124 90.9229 275.847C88.9678 277.556 86.3633 278.41 83.1094 278.41C79.582 278.41 76.752 277.146 74.6191 274.616C72.5 272.087 71.4404 268.703 71.4404 264.465V261.594C71.4404 258.818 71.9326 256.378 72.917 254.272C73.915 252.167 75.3232 250.554 77.1416 249.433C78.96 248.298 81.0654 247.73 83.458 247.73C86.6299 247.73 89.1729 248.619 91.0869 250.396C93.001 252.16 94.1152 254.607 94.4297 257.738H90.4717C90.1299 255.359 89.3848 253.637 88.2363 252.57C87.1016 251.504 85.5088 250.971 83.458 250.971C80.9424 250.971 78.9668 251.9 77.5312 253.76C76.1094 255.619 75.3984 258.265 75.3984 261.696V264.588C75.3984 267.828 76.0752 270.405 77.4287 272.319C78.7822 274.233 80.6758 275.19 83.1094 275.19C85.2969 275.19 86.9717 274.698 88.1338 273.714C89.3096 272.716 90.0889 270.986 90.4717 268.525H94.4297Z" fill="white"/>
<path d="M112.928 278C112.709 277.562 112.531 276.783 112.395 275.662C110.631 277.494 108.525 278.41 106.078 278.41C103.891 278.41 102.093 277.795 100.685 276.564C99.29 275.32 98.5928 273.748 98.5928 271.848C98.5928 269.537 99.4678 267.746 101.218 266.475C102.981 265.189 105.456 264.547 108.642 264.547H112.333V262.804C112.333 261.478 111.937 260.425 111.144 259.646C110.351 258.853 109.182 258.456 107.637 258.456C106.283 258.456 105.148 258.798 104.232 259.481C103.316 260.165 102.858 260.992 102.858 261.963H99.0439C99.0439 260.855 99.4336 259.789 100.213 258.764C101.006 257.725 102.072 256.904 103.412 256.303C104.766 255.701 106.249 255.4 107.862 255.4C110.419 255.4 112.422 256.043 113.871 257.328C115.32 258.6 116.072 260.356 116.127 262.599V272.812C116.127 274.849 116.387 276.469 116.906 277.672V278H112.928ZM106.632 275.108C107.821 275.108 108.949 274.801 110.016 274.186C111.082 273.57 111.854 272.771 112.333 271.786V267.233H109.359C104.711 267.233 102.387 268.594 102.387 271.314C102.387 272.504 102.783 273.434 103.576 274.104C104.369 274.773 105.388 275.108 106.632 275.108Z" fill="white"/>
<path d="M126.196 278H122.402V246.5H126.196V278Z" fill="white"/>
<path d="M141.188 275.313C142.541 275.313 143.724 274.903 144.735 274.083C145.747 273.263 146.308 272.237 146.417 271.007H150.006C149.938 272.278 149.5 273.488 148.693 274.637C147.887 275.785 146.807 276.701 145.453 277.385C144.113 278.068 142.691 278.41 141.188 278.41C138.166 278.41 135.76 277.405 133.969 275.396C132.191 273.372 131.303 270.61 131.303 267.11V266.475C131.303 264.314 131.699 262.394 132.492 260.712C133.285 259.03 134.42 257.725 135.896 256.795C137.387 255.865 139.144 255.4 141.167 255.4C143.655 255.4 145.72 256.146 147.36 257.636C149.015 259.126 149.896 261.061 150.006 263.439H146.417C146.308 262.004 145.761 260.828 144.776 259.912C143.806 258.982 142.603 258.518 141.167 258.518C139.239 258.518 137.742 259.215 136.676 260.609C135.623 261.99 135.097 263.993 135.097 266.618V267.336C135.097 269.893 135.623 271.861 136.676 273.242C137.729 274.623 139.232 275.313 141.188 275.313Z" fill="white"/>
<path d="M167.971 275.806C166.494 277.542 164.327 278.41 161.47 278.41C159.104 278.41 157.3 277.727 156.056 276.359C154.825 274.979 154.203 272.941 154.189 270.248V255.811H157.983V270.146C157.983 273.509 159.351 275.19 162.085 275.19C164.983 275.19 166.911 274.11 167.868 271.95V255.811H171.662V278H168.053L167.971 275.806Z" fill="white"/>
<path d="M181.567 278H177.773V246.5H181.567V278Z" fill="white"/>
<path d="M201.357 278C201.139 277.562 200.961 276.783 200.824 275.662C199.061 277.494 196.955 278.41 194.508 278.41C192.32 278.41 190.522 277.795 189.114 276.564C187.72 275.32 187.022 273.748 187.022 271.848C187.022 269.537 187.897 267.746 189.647 266.475C191.411 265.189 193.886 264.547 197.071 264.547H200.763V262.804C200.763 261.478 200.366 260.425 199.573 259.646C198.78 258.853 197.611 258.456 196.066 258.456C194.713 258.456 193.578 258.798 192.662 259.481C191.746 260.165 191.288 260.992 191.288 261.963H187.474C187.474 260.855 187.863 259.789 188.643 258.764C189.436 257.725 190.502 256.904 191.842 256.303C193.195 255.701 194.679 255.4 196.292 255.4C198.849 255.4 200.852 256.043 202.301 257.328C203.75 258.6 204.502 260.356 204.557 262.599V272.812C204.557 274.849 204.816 276.469 205.336 277.672V278H201.357ZM195.062 275.108C196.251 275.108 197.379 274.801 198.445 274.186C199.512 273.57 200.284 272.771 200.763 271.786V267.233H197.789C193.141 267.233 190.816 268.594 190.816 271.314C190.816 272.504 191.213 273.434 192.006 274.104C192.799 274.773 193.817 275.108 195.062 275.108Z" fill="white"/>
</g>
<g id="E=\;\;2x+1">
<g id="Group">
<g id="Group_2">
<path id="Vector" d="M291.249 338.163C290.374 338.163 289.937 337.879 289.937 337.31C289.937 337.135 290.046 336.61 290.265 335.735C290.484 334.86 290.593 334.095 290.593 333.439C290.593 332.083 290.134 331.252 289.215 330.945C288.297 330.639 286.175 330.486 282.85 330.486H279.438C279.395 330.573 278.629 333.592 277.142 339.541C275.654 345.49 274.911 348.552 274.911 348.727C274.911 348.902 275.151 348.99 275.633 348.99C276.114 348.99 277.864 349.034 280.882 349.121C284.994 349.121 287.706 349.077 289.018 348.99C290.331 348.902 291.643 348.618 292.955 348.137C295.099 347.437 296.871 346.212 298.27 344.462C299.67 342.713 301.223 339.847 302.929 335.867C303.367 334.904 303.651 334.379 303.782 334.292C304.088 334.204 304.416 334.161 304.766 334.161C305.641 334.161 306.079 334.445 306.079 335.014C301.486 346.125 299.08 351.79 298.861 352.008C298.73 352.096 292.474 352.14 280.094 352.14H267.693C263.231 352.14 261 351.899 261 351.418C261 351.33 261.066 351.024 261.197 350.499C261.372 349.799 261.547 349.405 261.722 349.318C261.897 349.231 262.4 349.165 263.231 349.121C264.412 349.121 265.724 349.056 267.168 348.924C267.78 348.793 268.196 348.531 268.415 348.137C268.502 347.918 270.055 341.772 273.073 329.699C276.092 317.625 277.623 311.501 277.667 311.326C277.667 311.02 277.579 310.867 277.404 310.867C277.054 310.735 275.895 310.626 273.927 310.538H271.892C271.63 310.276 271.499 310.101 271.499 310.014C271.499 309.926 271.542 309.554 271.63 308.898C271.805 308.154 272.024 307.695 272.286 307.52H308.638C308.944 307.695 309.097 307.936 309.097 308.242C309.097 308.461 308.813 310.91 308.244 315.591C307.675 320.272 307.369 322.678 307.325 322.809C307.238 323.115 306.801 323.268 306.013 323.268H305.226C304.92 323.049 304.766 322.765 304.766 322.415L304.963 320.906C305.094 319.856 305.16 318.719 305.16 317.494C305.16 316.182 305.007 315.088 304.701 314.213C304.395 313.338 303.979 312.66 303.454 312.179C302.929 311.698 302.164 311.348 301.157 311.129C300.151 310.91 299.123 310.757 298.073 310.67C297.024 310.582 295.624 310.538 293.874 310.538H290.79C286.941 310.582 284.906 310.648 284.688 310.735C284.513 310.823 284.381 311.02 284.294 311.326C284.25 311.457 283.572 314.147 282.26 319.397C280.948 324.646 280.269 327.315 280.226 327.402C281.232 327.446 282.282 327.468 283.375 327.468H285.081C287.969 327.468 289.959 327.14 291.052 326.483C292.146 325.827 293.13 324.056 294.005 321.168C294.18 320.468 294.311 320.075 294.399 319.987C294.486 319.9 294.858 319.834 295.514 319.79C295.733 319.79 295.908 319.79 296.039 319.79C296.171 319.79 296.28 319.812 296.367 319.856C296.455 319.9 296.499 319.922 296.499 319.922C296.499 319.922 296.542 320.009 296.63 320.184C296.717 320.359 296.783 320.447 296.827 320.447L294.661 329.108C293.218 334.926 292.43 337.879 292.299 337.966C292.168 338.098 291.818 338.163 291.249 338.163Z" fill="white"/>
</g>
<g id="Group_3">
<path id="Vector_2" d="M331 329.371C331 328.802 331.306 328.364 331.919 328.058H373.717C374.373 328.408 374.701 328.846 374.701 329.371C374.701 329.852 374.395 330.267 373.782 330.617L352.916 330.683H332.05C331.35 330.464 331 330.027 331 329.371ZM331 342.1C331 341.444 331.35 341.007 332.05 340.788H373.782C374.395 341.225 374.701 341.663 374.701 342.1C374.701 342.669 374.373 343.106 373.717 343.413H331.919C331.306 343.106 331 342.669 331 342.1Z" fill="white"/>
</g>
<g id="Group_4">
<path id="Vector_3" d="M440.206 323.99C439.025 323.99 438.084 323.596 437.384 322.809C436.685 322.021 436.335 321.059 436.335 319.922C436.335 316.816 437.494 314.126 439.812 311.851C442.131 309.576 445.018 308.439 448.474 308.439C452.454 308.439 455.779 309.664 458.447 312.113C461.116 314.563 462.472 317.734 462.516 321.628C462.516 323.509 462.078 325.302 461.203 327.008C460.328 328.714 459.279 330.202 458.054 331.47C456.829 332.739 455.079 334.357 452.804 336.326C451.23 337.682 449.042 339.694 446.243 342.363L442.371 346.037L447.358 346.103C454.226 346.103 457.879 345.993 458.316 345.775C458.622 345.687 459.147 343.741 459.891 339.935V339.738H462.516V339.935C462.472 340.066 462.188 342.056 461.663 345.906C461.138 349.755 460.81 351.768 460.678 351.943V352.14H436.335V350.893V350.105C436.335 349.799 436.466 349.471 436.728 349.121C436.991 348.771 437.647 348.006 438.697 346.825C439.965 345.425 441.059 344.2 441.978 343.15C442.371 342.713 443.115 341.903 444.209 340.722C445.302 339.541 446.046 338.732 446.44 338.294C446.833 337.857 447.468 337.135 448.342 336.129C449.217 335.123 449.83 334.379 450.18 333.898C450.53 333.417 451.033 332.761 451.689 331.93C452.345 331.098 452.804 330.398 453.067 329.83C453.329 329.261 453.657 328.627 454.051 327.927C454.445 327.227 454.729 326.527 454.904 325.827C455.079 325.127 455.232 324.471 455.363 323.859C455.495 323.246 455.56 322.524 455.56 321.693C455.56 318.937 454.817 316.553 453.329 314.541C451.842 312.529 449.72 311.523 446.965 311.523C445.521 311.523 444.252 311.895 443.159 312.638C442.065 313.382 441.3 314.104 440.862 314.804C440.425 315.503 440.206 315.919 440.206 316.05C440.206 316.094 440.315 316.116 440.534 316.116C441.321 316.116 442.131 316.422 442.962 317.035C443.793 317.647 444.209 318.653 444.209 320.053C444.209 321.147 443.859 322.065 443.159 322.809C442.459 323.552 441.475 323.946 440.206 323.99Z" fill="white"/>
</g>
<g id="Group_5">
<path id="Vector_4" d="M469.274 333.176C469.58 331.339 470.761 329.217 472.817 326.811C474.873 324.406 477.411 323.181 480.429 323.137C481.96 323.137 483.36 323.531 484.629 324.318C485.897 325.105 486.838 326.09 487.45 327.271C489.287 324.515 491.496 323.137 494.077 323.137C495.696 323.137 497.096 323.618 498.277 324.58C499.458 325.543 500.07 326.833 500.114 328.452C500.114 329.72 499.808 330.748 499.195 331.536C498.583 332.323 497.992 332.804 497.424 332.979C496.855 333.154 496.352 333.242 495.915 333.242C495.083 333.242 494.405 333.001 493.88 332.52C493.356 332.039 493.093 331.405 493.093 330.617C493.093 328.605 494.187 327.227 496.374 326.483C495.893 325.915 495.018 325.63 493.749 325.63C493.181 325.63 492.765 325.674 492.503 325.762C490.84 326.462 489.615 327.905 488.828 330.092C486.203 339.76 484.891 345.403 484.891 347.021C484.891 348.246 485.241 349.121 485.941 349.646C486.641 350.171 487.406 350.434 488.237 350.434C489.856 350.434 491.453 349.712 493.027 348.268C494.602 346.825 495.674 345.053 496.243 342.953C496.374 342.516 496.505 342.275 496.636 342.231C496.768 342.188 497.118 342.144 497.686 342.1H497.949C498.605 342.1 498.933 342.275 498.933 342.625C498.933 342.669 498.889 342.909 498.802 343.347C498.102 345.84 496.746 348.049 494.733 349.974C492.721 351.899 490.381 352.861 487.712 352.861C484.65 352.861 482.332 351.483 480.757 348.727C478.964 351.44 476.908 352.796 474.589 352.796H474.195C472.052 352.796 470.521 352.227 469.602 351.09C468.684 349.952 468.202 348.749 468.159 347.481C468.159 346.081 468.574 344.944 469.405 344.069C470.237 343.194 471.221 342.756 472.358 342.756C474.239 342.756 475.18 343.675 475.18 345.512C475.18 346.387 474.917 347.153 474.392 347.809C473.867 348.465 473.364 348.902 472.883 349.121C472.402 349.34 472.118 349.449 472.03 349.449L471.833 349.515C471.833 349.559 471.964 349.646 472.227 349.777C472.489 349.909 472.839 350.062 473.277 350.237C473.714 350.412 474.13 350.477 474.524 350.434C476.098 350.434 477.454 349.449 478.592 347.481C478.985 346.781 479.489 345.294 480.101 343.019C480.713 340.744 481.326 338.382 481.938 335.932C482.551 333.483 482.901 332.039 482.988 331.601C483.207 330.42 483.316 329.567 483.316 329.042C483.316 327.818 482.988 326.943 482.332 326.418C481.676 325.893 480.932 325.63 480.101 325.63C478.351 325.63 476.711 326.33 475.18 327.73C473.649 329.13 472.577 330.923 471.964 333.111C471.877 333.504 471.768 333.723 471.636 333.767C471.505 333.811 471.155 333.854 470.587 333.898H469.668C469.405 333.636 469.274 333.395 469.274 333.176Z" fill="white"/>
</g>
<g id="Group_6">
<path id="Vector_5" d="M521.65 336.588C521.65 336.588 521.65 336.304 521.65 335.735C521.65 335.167 521.956 334.729 522.568 334.423H542.188V324.58L542.253 314.738C542.691 314.169 543.106 313.885 543.5 313.885C544.069 313.885 544.506 314.213 544.812 314.869V334.423H564.366C565.022 334.773 565.35 335.21 565.35 335.735C565.35 336.26 565.022 336.698 564.366 337.048H544.812V356.601C544.462 357.214 544.069 357.52 543.631 357.52H543.5H543.369C542.844 357.52 542.45 357.214 542.188 356.601V337.048H522.568C521.956 336.741 521.65 336.304 521.65 335.735V336.588Z" fill="white"/>
</g>
<g id="Group_7">
<path id="Vector_6" d="M597.588 314.213L596.735 314.541C596.122 314.76 595.247 314.979 594.11 315.197C592.973 315.416 591.704 315.569 590.304 315.657H589.058V312.638H590.304C592.36 312.551 594.263 312.223 596.013 311.654C597.763 311.085 598.988 310.56 599.688 310.079C600.387 309.598 601 309.117 601.525 308.636C601.612 308.504 601.875 308.439 602.312 308.439C602.706 308.439 603.078 308.57 603.428 308.832V328.452L603.493 348.137C603.8 348.443 604.062 348.64 604.281 348.727C604.499 348.815 605.024 348.902 605.856 348.99C606.687 349.077 608.043 349.121 609.924 349.121H611.63V352.14H610.908C609.989 352.008 606.512 351.943 600.475 351.943C594.526 351.943 591.092 352.008 590.173 352.14H589.386V349.121H591.092C592.054 349.121 592.885 349.121 593.585 349.121C594.285 349.121 594.832 349.099 595.226 349.056C595.619 349.012 595.969 348.946 596.275 348.859C596.582 348.771 596.757 348.727 596.8 348.727C596.844 348.727 596.975 348.618 597.194 348.399C597.413 348.181 597.544 348.093 597.588 348.137V314.213Z" fill="white"/>
</g>
<path id="Rectangle 17 (Stroke)" fill-rule="evenodd" clip-rule="evenodd" d="M627 293H412V365H627V293ZM406 287V371H633V287H406Z" fill="white"/>
</g>
</g>
<g id="\left(\;\;2x-1\;\; \right)^2=4\;\;2x-1\;\;+x(x+2)-3">
<g id="Group_8">
<g id="Group_9">
<g id="Group_10">
<g id="Group_11">
<path id="Vector_7" d="M87 179.131C87 177.211 87.1391 175.389 87.4174 173.664C87.6956 171.938 88.0156 170.45 88.3773 169.198C88.7391 167.946 89.2538 166.721 89.9216 165.525C90.5894 164.328 91.1181 163.396 91.5077 162.728C91.8972 162.061 92.4815 161.337 93.2606 160.558C94.0397 159.779 94.4988 159.306 94.638 159.139C94.7771 158.972 95.1249 158.68 95.6814 158.262H96.224H96.3909C96.7805 158.262 96.9753 158.388 96.9753 158.638C96.9753 158.722 96.7388 159.014 96.2657 159.515C95.7927 160.015 95.2223 160.753 94.5545 161.727C93.8867 162.701 93.205 163.897 92.5094 165.316C91.8137 166.735 91.2294 168.655 90.7564 171.076C90.2834 173.497 90.0468 176.182 90.0468 179.131C90.0468 182.081 90.2834 184.752 90.7564 187.145C91.2294 189.538 91.7998 191.472 92.4676 192.946C93.1354 194.421 93.8171 195.618 94.5128 196.536C95.2084 197.454 95.7927 198.191 96.2657 198.748C96.7388 199.304 96.9753 199.597 96.9753 199.624C96.9753 199.875 96.7666 200 96.3492 200H96.224H95.6814L94.5128 198.998C91.8972 196.633 89.9912 193.684 88.7947 190.15C87.5982 186.616 87 182.943 87 179.131Z" fill="white"/>
</g>
<g id="Group_12">
<path id="Vector_8" d="M127.051 171.66C126.3 171.66 125.702 171.41 125.257 170.909C124.811 170.408 124.589 169.796 124.589 169.073C124.589 167.097 125.326 165.386 126.801 163.939C128.276 162.492 130.112 161.768 132.31 161.768C134.842 161.768 136.957 162.548 138.654 164.106C140.352 165.664 141.214 167.681 141.242 170.158C141.242 171.354 140.964 172.495 140.407 173.58C139.851 174.665 139.183 175.611 138.404 176.418C137.625 177.225 136.512 178.255 135.065 179.507C134.063 180.369 132.672 181.649 130.891 183.347L128.429 185.684L131.601 185.726C135.969 185.726 138.293 185.656 138.571 185.517C138.766 185.461 139.099 184.223 139.573 181.802V181.677H141.242V181.802C141.214 181.886 141.033 183.152 140.699 185.601C140.366 188.049 140.157 189.329 140.073 189.44V189.566H124.589V188.773V188.272C124.589 188.077 124.672 187.868 124.839 187.646C125.006 187.423 125.423 186.936 126.091 186.185C126.898 185.295 127.594 184.515 128.178 183.848C128.429 183.569 128.902 183.055 129.597 182.303C130.293 181.552 130.766 181.037 131.016 180.759C131.267 180.481 131.67 180.022 132.227 179.382C132.783 178.742 133.173 178.269 133.395 177.963C133.618 177.657 133.938 177.239 134.355 176.71C134.773 176.182 135.065 175.737 135.232 175.375C135.399 175.013 135.607 174.61 135.858 174.164C136.108 173.719 136.289 173.274 136.4 172.829C136.512 172.384 136.609 171.966 136.693 171.577C136.776 171.187 136.818 170.728 136.818 170.199C136.818 168.446 136.345 166.93 135.399 165.65C134.453 164.37 133.103 163.73 131.35 163.73C130.432 163.73 129.625 163.967 128.929 164.44C128.234 164.913 127.747 165.372 127.469 165.817C127.19 166.262 127.051 166.527 127.051 166.61C127.051 166.638 127.121 166.652 127.26 166.652C127.761 166.652 128.276 166.847 128.804 167.236C129.333 167.626 129.597 168.266 129.597 169.156C129.597 169.852 129.375 170.436 128.929 170.909C128.484 171.382 127.858 171.632 127.051 171.66Z" fill="white"/>
</g>
<g id="Group_13">
<path id="Vector_9" d="M145.541 177.503C145.736 176.335 146.487 174.985 147.795 173.455C149.103 171.925 150.717 171.145 152.636 171.118C153.61 171.118 154.501 171.368 155.308 171.869C156.115 172.37 156.713 172.996 157.102 173.747C158.271 171.994 159.676 171.118 161.318 171.118C162.347 171.118 163.238 171.424 163.989 172.036C164.74 172.648 165.13 173.469 165.158 174.498C165.158 175.305 164.963 175.959 164.573 176.46C164.184 176.961 163.808 177.267 163.446 177.378C163.085 177.49 162.765 177.545 162.487 177.545C161.958 177.545 161.527 177.392 161.193 177.086C160.859 176.78 160.692 176.377 160.692 175.876C160.692 174.596 161.387 173.719 162.779 173.246C162.473 172.885 161.916 172.704 161.109 172.704C160.747 172.704 160.483 172.731 160.316 172.787C159.259 173.232 158.48 174.151 157.979 175.542C156.309 181.691 155.475 185.281 155.475 186.31C155.475 187.089 155.697 187.646 156.142 187.98C156.588 188.314 157.075 188.48 157.603 188.48C158.633 188.48 159.648 188.021 160.65 187.103C161.652 186.185 162.333 185.058 162.695 183.722C162.779 183.444 162.862 183.291 162.946 183.263C163.029 183.235 163.252 183.208 163.613 183.18H163.78C164.198 183.18 164.406 183.291 164.406 183.514C164.406 183.542 164.379 183.695 164.323 183.973C163.878 185.559 163.015 186.964 161.735 188.188C160.455 189.413 158.967 190.025 157.269 190.025C155.322 190.025 153.847 189.148 152.845 187.395C151.704 189.12 150.397 189.983 148.922 189.983H148.671C147.308 189.983 146.334 189.621 145.75 188.898C145.165 188.174 144.859 187.409 144.832 186.602C144.832 185.712 145.096 184.988 145.625 184.432C146.153 183.875 146.779 183.597 147.503 183.597C148.699 183.597 149.297 184.181 149.297 185.35C149.297 185.907 149.131 186.394 148.797 186.811C148.463 187.228 148.143 187.507 147.837 187.646C147.531 187.785 147.35 187.854 147.294 187.854L147.169 187.896C147.169 187.924 147.252 187.98 147.419 188.063C147.586 188.147 147.809 188.244 148.087 188.355C148.365 188.467 148.63 188.508 148.88 188.48C149.882 188.48 150.744 187.854 151.468 186.602C151.718 186.157 152.038 185.211 152.428 183.764C152.817 182.317 153.207 180.815 153.596 179.256C153.986 177.698 154.209 176.78 154.264 176.502C154.403 175.751 154.473 175.208 154.473 174.874C154.473 174.095 154.264 173.538 153.847 173.205C153.429 172.871 152.956 172.704 152.428 172.704C151.315 172.704 150.271 173.149 149.297 174.039C148.324 174.93 147.642 176.07 147.252 177.462C147.197 177.712 147.127 177.851 147.044 177.879C146.96 177.907 146.738 177.935 146.376 177.963H145.792C145.625 177.796 145.541 177.643 145.541 177.503Z" fill="white"/>
</g>
<g id="Group_14">
<path id="Vector_10" d="M180.024 179.674C180.024 179.674 180.024 179.493 180.024 179.131C180.024 178.77 180.219 178.491 180.609 178.297H204.858C205.276 178.519 205.484 178.797 205.484 179.131C205.484 179.465 205.276 179.743 204.858 179.966H180.609C180.219 179.771 180.024 179.493 180.024 179.131V179.674Z" fill="white"/>
</g>
<g id="Group_15">
<path id="Vector_11" d="M227.155 165.441L226.612 165.65C226.223 165.789 225.666 165.928 224.943 166.067C224.219 166.207 223.412 166.304 222.522 166.36H221.729V164.44H222.522C223.83 164.384 225.04 164.175 226.153 163.814C227.266 163.452 228.045 163.118 228.49 162.812C228.935 162.506 229.325 162.2 229.659 161.894C229.715 161.81 229.881 161.768 230.16 161.768C230.41 161.768 230.647 161.852 230.869 162.019V174.498L230.911 187.02C231.106 187.214 231.273 187.34 231.412 187.395C231.551 187.451 231.885 187.507 232.414 187.562C232.942 187.618 233.805 187.646 235.001 187.646H236.086V189.566H235.627C235.043 189.482 232.831 189.44 228.991 189.44C225.207 189.44 223.023 189.482 222.438 189.566H221.937V187.646H223.023C223.635 187.646 224.163 187.646 224.609 187.646C225.054 187.646 225.402 187.632 225.652 187.604C225.903 187.576 226.125 187.534 226.32 187.479C226.515 187.423 226.626 187.395 226.654 187.395C226.682 187.395 226.765 187.326 226.904 187.187C227.043 187.047 227.127 186.992 227.155 187.02V165.441Z" fill="white"/>
</g>
<path id="Rectangle 15 (Stroke)" fill-rule="evenodd" clip-rule="evenodd" d="M242 153H115V198H242V153ZM112 150V201H245V150H112Z" fill="white"/>
<g id="Group_16">
<path id="Vector_12" d="M264.827 158.304L264.994 158.262C265.133 158.262 265.272 158.262 265.411 158.262H265.912L267.081 159.264C269.697 161.629 271.603 164.579 272.799 168.113C273.996 171.646 274.594 175.319 274.594 179.131C274.594 181.023 274.455 182.846 274.176 184.599C273.898 186.352 273.578 187.84 273.216 189.065C272.855 190.289 272.34 191.513 271.672 192.738C271.004 193.962 270.476 194.894 270.086 195.534C269.697 196.174 269.126 196.884 268.375 197.663C267.624 198.442 267.178 198.901 267.039 199.04C266.9 199.179 266.58 199.444 266.079 199.833C265.996 199.917 265.94 199.972 265.912 200H265.411C265.189 200 265.036 200 264.952 200C264.869 200 264.799 199.958 264.744 199.875C264.688 199.791 264.646 199.666 264.618 199.499C264.646 199.471 264.799 199.29 265.078 198.957C269.39 194.477 271.547 187.868 271.547 179.131C271.547 170.394 269.39 163.786 265.078 159.306C264.799 158.972 264.646 158.791 264.618 158.763C264.618 158.541 264.688 158.388 264.827 158.304Z" fill="white"/>
</g>
</g>
<g id="Group_17">
<path id="Vector_13" d="M281.775 156.993C281.244 156.993 280.821 156.816 280.506 156.462C280.191 156.108 280.034 155.675 280.034 155.164C280.034 153.767 280.555 152.557 281.598 151.534C282.641 150.511 283.939 150 285.493 150C287.283 150 288.778 150.551 289.978 151.652C291.178 152.754 291.788 154.18 291.808 155.931C291.808 156.777 291.611 157.584 291.218 158.351C290.824 159.118 290.352 159.787 289.801 160.357C289.25 160.928 288.464 161.656 287.441 162.541C286.732 163.151 285.749 164.056 284.49 165.256L282.749 166.908L284.991 166.938C288.08 166.938 289.723 166.889 289.919 166.79C290.057 166.751 290.293 165.876 290.627 164.164V164.076H291.808V164.164C291.788 164.223 291.66 165.118 291.424 166.849C291.188 168.58 291.041 169.485 290.982 169.564V169.653H280.034V169.092V168.738C280.034 168.6 280.093 168.453 280.211 168.295C280.329 168.138 280.624 167.794 281.096 167.262C281.667 166.633 282.159 166.082 282.572 165.61C282.749 165.413 283.083 165.049 283.575 164.518C284.067 163.987 284.401 163.623 284.578 163.426C284.755 163.23 285.041 162.905 285.434 162.453C285.827 162 286.103 161.666 286.26 161.449C286.418 161.233 286.644 160.938 286.939 160.564C287.234 160.19 287.441 159.875 287.559 159.62C287.677 159.364 287.824 159.079 288.001 158.764C288.178 158.449 288.306 158.134 288.385 157.82C288.464 157.505 288.532 157.21 288.591 156.934C288.65 156.659 288.68 156.334 288.68 155.961C288.68 154.721 288.345 153.649 287.677 152.744C287.008 151.839 286.054 151.387 284.814 151.387C284.165 151.387 283.595 151.554 283.103 151.889C282.611 152.223 282.267 152.548 282.07 152.862C281.873 153.177 281.775 153.364 281.775 153.423C281.775 153.443 281.824 153.452 281.922 153.452C282.277 153.452 282.641 153.59 283.014 153.866C283.388 154.141 283.575 154.593 283.575 155.223C283.575 155.715 283.418 156.128 283.103 156.462C282.788 156.797 282.345 156.974 281.775 156.993Z" fill="white"/>
</g>
</g>
<g id="Group_18">
<path id="Vector_14" d="M309.332 175.083C309.332 174.721 309.527 174.443 309.916 174.248H336.503C336.92 174.471 337.129 174.749 337.129 175.083C337.129 175.389 336.934 175.653 336.545 175.876L323.272 175.917H310C309.554 175.778 309.332 175.5 309.332 175.083ZM309.332 183.18C309.332 182.762 309.554 182.484 310 182.345H336.545C336.934 182.623 337.129 182.902 337.129 183.18C337.129 183.542 336.92 183.82 336.503 184.015H309.916C309.527 183.82 309.332 183.542 309.332 183.18Z" fill="white"/>
</g>
<g id="Group_19">
<path id="Vector_15" d="M370.344 189.566C369.843 189.482 368.048 189.44 364.96 189.44C361.732 189.44 359.868 189.482 359.367 189.566H358.991V187.646H360.285C360.842 187.646 361.217 187.646 361.412 187.646C361.607 187.646 361.843 187.618 362.122 187.562C362.4 187.507 362.595 187.437 362.706 187.354C362.817 187.27 362.915 187.159 362.998 187.02C363.026 186.964 363.04 186.213 363.04 184.766V182.679H352.23V180.759L358.532 171.118C362.789 164.662 364.946 161.421 365.001 161.393C365.057 161.337 365.349 161.309 365.878 161.309H366.629L366.88 161.56V180.759H370.72V182.679H366.88V184.808C366.88 185.948 366.88 186.616 366.88 186.811C366.88 187.006 366.963 187.173 367.13 187.312C367.353 187.507 368.146 187.618 369.509 187.646H370.72V189.566H370.344ZM363.29 180.759V166.819L354.15 180.717L358.699 180.759H363.29Z" fill="white"/>
</g>
<g id="Group_20">
<path id="Vector_16" d="M399.664 171.66C398.913 171.66 398.315 171.41 397.87 170.909C397.425 170.408 397.202 169.796 397.202 169.073C397.202 167.097 397.939 165.386 399.414 163.939C400.889 162.492 402.725 161.768 404.923 161.768C407.455 161.768 409.57 162.548 411.267 164.106C412.965 165.664 413.827 167.681 413.855 170.158C413.855 171.354 413.577 172.495 413.02 173.58C412.464 174.665 411.796 175.611 411.017 176.418C410.238 177.225 409.125 178.255 407.678 179.507C406.676 180.369 405.285 181.649 403.504 183.347L401.042 185.684L404.214 185.726C408.582 185.726 410.906 185.656 411.184 185.517C411.379 185.461 411.713 184.223 412.186 181.802V181.677H413.855V181.802C413.827 181.886 413.646 183.152 413.313 185.601C412.979 188.049 412.77 189.329 412.687 189.44V189.566H397.202V188.773V188.272C397.202 188.077 397.285 187.868 397.452 187.646C397.619 187.423 398.037 186.936 398.704 186.185C399.511 185.295 400.207 184.515 400.791 183.848C401.042 183.569 401.515 183.055 402.21 182.303C402.906 181.552 403.379 181.037 403.629 180.759C403.88 180.481 404.283 180.022 404.84 179.382C405.396 178.742 405.786 178.269 406.009 177.963C406.231 177.657 406.551 177.239 406.968 176.71C407.386 176.182 407.678 175.737 407.845 175.375C408.012 175.013 408.221 174.61 408.471 174.164C408.721 173.719 408.902 173.274 409.014 172.829C409.125 172.384 409.222 171.966 409.306 171.577C409.389 171.187 409.431 170.728 409.431 170.199C409.431 168.446 408.958 166.93 408.012 165.65C407.066 164.37 405.716 163.73 403.963 163.73C403.045 163.73 402.238 163.967 401.543 164.44C400.847 164.913 400.36 165.372 400.082 165.817C399.804 166.262 399.664 166.527 399.664 166.61C399.664 166.638 399.734 166.652 399.873 166.652C400.374 166.652 400.889 166.847 401.417 167.236C401.946 167.626 402.21 168.266 402.21 169.156C402.21 169.852 401.988 170.436 401.543 170.909C401.097 171.382 400.471 171.632 399.664 171.66Z" fill="white"/>
</g>
<g id="Group_21">
<path id="Vector_17" d="M418.154 177.503C418.349 176.335 419.1 174.985 420.408 173.455C421.716 171.925 423.33 171.145 425.25 171.118C426.223 171.118 427.114 171.368 427.921 171.869C428.728 172.37 429.326 172.996 429.715 173.747C430.884 171.994 432.289 171.118 433.931 171.118C434.96 171.118 435.851 171.424 436.602 172.036C437.353 172.648 437.743 173.469 437.771 174.498C437.771 175.305 437.576 175.959 437.186 176.46C436.797 176.961 436.421 177.267 436.06 177.378C435.698 177.49 435.378 177.545 435.1 177.545C434.571 177.545 434.14 177.392 433.806 177.086C433.472 176.78 433.305 176.377 433.305 175.876C433.305 174.596 434 173.719 435.392 173.246C435.086 172.885 434.529 172.704 433.722 172.704C433.36 172.704 433.096 172.731 432.929 172.787C431.872 173.232 431.093 174.151 430.592 175.542C428.922 181.691 428.088 185.281 428.088 186.31C428.088 187.089 428.31 187.646 428.755 187.98C429.201 188.314 429.688 188.48 430.216 188.48C431.246 188.48 432.261 188.021 433.263 187.103C434.265 186.185 434.947 185.058 435.308 183.722C435.392 183.444 435.475 183.291 435.559 183.263C435.642 183.235 435.865 183.208 436.226 183.18H436.393C436.811 183.18 437.019 183.291 437.019 183.514C437.019 183.542 436.992 183.695 436.936 183.973C436.491 185.559 435.628 186.964 434.348 188.188C433.068 189.413 431.58 190.025 429.882 190.025C427.935 190.025 426.46 189.148 425.458 187.395C424.317 189.12 423.01 189.983 421.535 189.983H421.284C419.921 189.983 418.947 189.621 418.363 188.898C417.778 188.174 417.472 187.409 417.445 186.602C417.445 185.712 417.709 184.988 418.238 184.432C418.766 183.875 419.392 183.597 420.116 183.597C421.312 183.597 421.91 184.181 421.91 185.35C421.91 185.907 421.744 186.394 421.41 186.811C421.076 187.228 420.756 187.507 420.45 187.646C420.144 187.785 419.963 187.854 419.907 187.854L419.782 187.896C419.782 187.924 419.865 187.98 420.032 188.063C420.199 188.147 420.422 188.244 420.7 188.355C420.978 188.467 421.243 188.508 421.493 188.48C422.495 188.48 423.357 187.854 424.081 186.602C424.331 186.157 424.651 185.211 425.041 183.764C425.43 182.317 425.82 180.815 426.209 179.256C426.599 177.698 426.822 176.78 426.877 176.502C427.016 175.751 427.086 175.208 427.086 174.874C427.086 174.095 426.877 173.538 426.46 173.205C426.043 172.871 425.569 172.704 425.041 172.704C423.928 172.704 422.884 173.149 421.91 174.039C420.937 174.93 420.255 176.07 419.865 177.462C419.81 177.712 419.74 177.851 419.657 177.879C419.573 177.907 419.351 177.935 418.989 177.963H418.405C418.238 177.796 418.154 177.643 418.154 177.503Z" fill="white"/>
</g>
<g id="Group_22">
<path id="Vector_18" d="M452.638 179.674C452.638 179.674 452.638 179.493 452.638 179.131C452.638 178.77 452.832 178.491 453.222 178.297H477.471C477.889 178.519 478.097 178.797 478.097 179.131C478.097 179.465 477.889 179.743 477.471 179.966H453.222C452.832 179.771 452.638 179.493 452.638 179.131V179.674Z" fill="white"/>
</g>
<g id="Group_23">
<path id="Vector_19" d="M499.772 165.441L499.229 165.65C498.84 165.789 498.283 165.928 497.56 166.067C496.836 166.207 496.029 166.304 495.139 166.36H494.346V164.44H495.139C496.447 164.384 497.657 164.175 498.77 163.814C499.883 163.452 500.662 163.118 501.107 162.812C501.553 162.506 501.942 162.2 502.276 161.894C502.332 161.81 502.499 161.768 502.777 161.768C503.027 161.768 503.264 161.852 503.486 162.019V174.498L503.528 187.02C503.723 187.214 503.89 187.34 504.029 187.395C504.168 187.451 504.502 187.507 505.031 187.562C505.559 187.618 506.422 187.646 507.618 187.646H508.704V189.566H508.245C507.66 189.482 505.448 189.44 501.608 189.44C497.824 189.44 495.64 189.482 495.055 189.566H494.555V187.646H495.64C496.252 187.646 496.781 187.646 497.226 187.646C497.671 187.646 498.019 187.632 498.269 187.604C498.52 187.576 498.742 187.534 498.937 187.479C499.132 187.423 499.243 187.395 499.271 187.395C499.299 187.395 499.382 187.326 499.521 187.187C499.661 187.047 499.744 186.992 499.772 187.02V165.441Z" fill="white"/>
</g>
<path id="Rectangle 16 (Stroke)" fill-rule="evenodd" clip-rule="evenodd" d="M516 153H389V198H516V153ZM386 150V201H519V150H386Z" fill="white"/>
<g id="Group_24">
<path id="Vector_20" d="M546.547 179.674C546.547 179.674 546.547 179.493 546.547 179.131C546.547 178.77 546.742 178.491 547.132 178.297H559.611V172.036L559.653 165.775C559.931 165.414 560.195 165.233 560.446 165.233C560.808 165.233 561.086 165.441 561.281 165.859V178.297H573.718C574.136 178.519 574.344 178.797 574.344 179.131C574.344 179.465 574.136 179.743 573.718 179.966H561.281V192.404C561.058 192.793 560.808 192.988 560.529 192.988H560.446H560.362C560.028 192.988 559.778 192.793 559.611 192.404V179.966H547.132C546.742 179.771 546.547 179.493 546.547 179.131V179.674Z" fill="white"/>
</g>
<g id="Group_25">
<path id="Vector_21" d="M588.131 177.503C588.325 176.335 589.077 174.985 590.384 173.455C591.692 171.925 593.306 171.145 595.226 171.118C596.2 171.118 597.09 171.368 597.897 171.869C598.704 172.37 599.302 172.996 599.692 173.747C600.861 171.994 602.266 171.118 603.907 171.118C604.937 171.118 605.827 171.424 606.579 172.036C607.33 172.648 607.719 173.469 607.747 174.498C607.747 175.305 607.552 175.959 607.163 176.46C606.773 176.961 606.398 177.267 606.036 177.378C605.674 177.49 605.354 177.545 605.076 177.545C604.547 177.545 604.116 177.392 603.782 177.086C603.448 176.78 603.281 176.377 603.281 175.876C603.281 174.596 603.977 173.719 605.368 173.246C605.062 172.885 604.506 172.704 603.699 172.704C603.337 172.704 603.073 172.731 602.906 172.787C601.848 173.232 601.069 174.151 600.568 175.542C598.899 181.691 598.064 185.281 598.064 186.31C598.064 187.089 598.287 187.646 598.732 187.98C599.177 188.314 599.664 188.48 600.193 188.48C601.222 188.48 602.238 188.021 603.24 187.103C604.241 186.185 604.923 185.058 605.285 183.722C605.368 183.444 605.452 183.291 605.535 183.263C605.619 183.235 605.841 183.208 606.203 183.18H606.37C606.787 183.18 606.996 183.291 606.996 183.514C606.996 183.542 606.968 183.695 606.912 183.973C606.467 185.559 605.605 186.964 604.325 188.188C603.045 189.413 601.556 190.025 599.859 190.025C597.911 190.025 596.436 189.148 595.435 187.395C594.294 189.12 592.986 189.983 591.511 189.983H591.261C589.897 189.983 588.924 189.621 588.339 188.898C587.755 188.174 587.449 187.409 587.421 186.602C587.421 185.712 587.685 184.988 588.214 184.432C588.743 183.875 589.369 183.597 590.092 183.597C591.289 183.597 591.887 184.181 591.887 185.35C591.887 185.907 591.72 186.394 591.386 186.811C591.052 187.228 590.732 187.507 590.426 187.646C590.12 187.785 589.939 187.854 589.884 187.854L589.758 187.896C589.758 187.924 589.842 187.98 590.009 188.063C590.176 188.147 590.398 188.244 590.677 188.355C590.955 188.467 591.219 188.508 591.47 188.48C592.471 188.48 593.334 187.854 594.057 186.602C594.308 186.157 594.628 185.211 595.017 183.764C595.407 182.317 595.796 180.815 596.186 179.256C596.575 177.698 596.798 176.78 596.854 176.502C596.993 175.751 597.062 175.208 597.062 174.874C597.062 174.095 596.854 173.538 596.436 173.205C596.019 172.871 595.546 172.704 595.017 172.704C593.904 172.704 592.861 173.149 591.887 174.039C590.913 174.93 590.231 176.07 589.842 177.462C589.786 177.712 589.717 177.851 589.633 177.879C589.55 177.907 589.327 177.935 588.965 177.963H588.381C588.214 177.796 588.131 177.643 588.131 177.503Z" fill="white"/>
</g>
<g id="Group_26">
<path id="Vector_22" d="M613.757 179.131C613.757 177.211 613.896 175.389 614.174 173.664C614.453 171.938 614.773 170.45 615.134 169.198C615.496 167.946 616.011 166.721 616.679 165.525C617.346 164.328 617.875 163.396 618.265 162.728C618.654 162.061 619.238 161.337 620.018 160.558C620.797 159.779 621.256 159.306 621.395 159.139C621.534 158.972 621.882 158.68 622.438 158.262H622.981H623.148C623.537 158.262 623.732 158.388 623.732 158.638C623.732 158.722 623.496 159.014 623.023 159.515C622.55 160.015 621.979 160.753 621.311 161.727C620.644 162.701 619.962 163.897 619.266 165.316C618.571 166.735 617.986 168.655 617.513 171.076C617.04 173.497 616.804 176.182 616.804 179.131C616.804 182.081 617.04 184.752 617.513 187.145C617.986 189.538 618.557 191.472 619.225 192.946C619.892 194.421 620.574 195.618 621.27 196.536C621.965 197.454 622.55 198.191 623.023 198.748C623.496 199.304 623.732 199.597 623.732 199.624C623.732 199.875 623.524 200 623.106 200H622.981H622.438L621.27 198.998C618.654 196.633 616.748 193.684 615.552 190.15C614.355 186.616 613.757 182.943 613.757 179.131Z" fill="white"/>
</g>
<g id="Group_27">
<path id="Vector_23" d="M628.24 177.503C628.435 176.335 629.186 174.985 630.494 173.455C631.802 171.925 633.416 171.145 635.335 171.118C636.309 171.118 637.2 171.368 638.007 171.869C638.814 172.37 639.412 172.996 639.801 173.747C640.97 171.994 642.375 171.118 644.017 171.118C645.046 171.118 645.937 171.424 646.688 172.036C647.439 172.648 647.829 173.469 647.857 174.498C647.857 175.305 647.662 175.959 647.272 176.46C646.883 176.961 646.507 177.267 646.145 177.378C645.784 177.49 645.464 177.545 645.186 177.545C644.657 177.545 644.226 177.392 643.892 177.086C643.558 176.78 643.391 176.377 643.391 175.876C643.391 174.596 644.086 173.719 645.478 173.246C645.172 172.885 644.615 172.704 643.808 172.704C643.446 172.704 643.182 172.731 643.015 172.787C641.958 173.232 641.179 174.151 640.678 175.542C639.008 181.691 638.174 185.281 638.174 186.31C638.174 187.089 638.396 187.646 638.841 187.98C639.287 188.314 639.774 188.48 640.302 188.48C641.332 188.48 642.347 188.021 643.349 187.103C644.351 186.185 645.032 185.058 645.394 183.722C645.478 183.444 645.561 183.291 645.645 183.263C645.728 183.235 645.951 183.208 646.312 183.18H646.479C646.897 183.18 647.105 183.291 647.105 183.514C647.105 183.542 647.078 183.695 647.022 183.973C646.577 185.559 645.714 186.964 644.434 188.188C643.154 189.413 641.666 190.025 639.968 190.025C638.021 190.025 636.546 189.148 635.544 187.395C634.403 189.12 633.096 189.983 631.621 189.983H631.37C630.007 189.983 629.033 189.621 628.449 188.898C627.864 188.174 627.558 187.409 627.531 186.602C627.531 185.712 627.795 184.988 628.324 184.432C628.852 183.875 629.478 183.597 630.202 183.597C631.398 183.597 631.996 184.181 631.996 185.35C631.996 185.907 631.829 186.394 631.496 186.811C631.162 187.228 630.842 187.507 630.536 187.646C630.23 187.785 630.049 187.854 629.993 187.854L629.868 187.896C629.868 187.924 629.951 187.98 630.118 188.063C630.285 188.147 630.508 188.244 630.786 188.355C631.064 188.467 631.329 188.508 631.579 188.48C632.581 188.48 633.443 187.854 634.167 186.602C634.417 186.157 634.737 185.211 635.127 183.764C635.516 182.317 635.906 180.815 636.295 179.256C636.685 177.698 636.908 176.78 636.963 176.502C637.102 175.751 637.172 175.208 637.172 174.874C637.172 174.095 636.963 173.538 636.546 173.205C636.128 172.871 635.655 172.704 635.127 172.704C634.014 172.704 632.97 173.149 631.996 174.039C631.023 174.93 630.341 176.07 629.951 177.462C629.896 177.712 629.826 177.851 629.743 177.879C629.659 177.907 629.437 177.935 629.075 177.963H628.49C628.324 177.796 628.24 177.643 628.24 177.503Z" fill="white"/>
</g>
<g id="Group_28">
<path id="Vector_24" d="M661.555 179.674C661.555 179.674 661.555 179.493 661.555 179.131C661.555 178.77 661.75 178.491 662.139 178.297H674.619V172.036L674.661 165.775C674.939 165.414 675.203 165.233 675.454 165.233C675.815 165.233 676.094 165.441 676.288 165.859V178.297H688.726C689.143 178.519 689.352 178.797 689.352 179.131C689.352 179.465 689.143 179.743 688.726 179.966H676.288V192.404C676.066 192.793 675.815 192.988 675.537 192.988H675.454H675.37C675.036 192.988 674.786 192.793 674.619 192.404V179.966H662.139C661.75 179.771 661.555 179.493 661.555 179.131V179.674Z" fill="white"/>
</g>
<g id="Group_29">
<path id="Vector_25" d="M705.513 171.66C704.761 171.66 704.163 171.41 703.718 170.909C703.273 170.408 703.05 169.796 703.05 169.073C703.05 167.097 703.787 165.386 705.262 163.939C706.737 162.492 708.573 161.768 710.771 161.768C713.304 161.768 715.418 162.548 717.116 164.106C718.813 165.664 719.676 167.681 719.703 170.158C719.703 171.354 719.425 172.495 718.869 173.58C718.312 174.665 717.644 175.611 716.865 176.418C716.086 177.225 714.973 178.255 713.526 179.507C712.524 180.369 711.133 181.649 709.352 183.347L706.89 185.684L710.062 185.726C714.43 185.726 716.754 185.656 717.032 185.517C717.227 185.461 717.561 184.223 718.034 181.802V181.677H719.703V181.802C719.676 181.886 719.495 183.152 719.161 185.601C718.827 188.049 718.618 189.329 718.535 189.44V189.566H703.05V188.773V188.272C703.05 188.077 703.134 187.868 703.3 187.646C703.467 187.423 703.885 186.936 704.553 186.185C705.36 185.295 706.055 184.515 706.639 183.848C706.89 183.569 707.363 183.055 708.059 182.303C708.754 181.552 709.227 181.037 709.478 180.759C709.728 180.481 710.132 180.022 710.688 179.382C711.245 178.742 711.634 178.269 711.857 177.963C712.079 177.657 712.399 177.239 712.817 176.71C713.234 176.182 713.526 175.737 713.693 175.375C713.86 175.013 714.069 174.61 714.319 174.164C714.57 173.719 714.75 173.274 714.862 172.829C714.973 172.384 715.07 171.966 715.154 171.577C715.237 171.187 715.279 170.728 715.279 170.199C715.279 168.446 714.806 166.93 713.86 165.65C712.914 164.37 711.565 163.73 709.812 163.73C708.893 163.73 708.086 163.967 707.391 164.44C706.695 164.913 706.208 165.372 705.93 165.817C705.652 166.262 705.513 166.527 705.513 166.61C705.513 166.638 705.582 166.652 705.721 166.652C706.222 166.652 706.737 166.847 707.266 167.236C707.794 167.626 708.059 168.266 708.059 169.156C708.059 169.852 707.836 170.436 707.391 170.909C706.946 171.382 706.319 171.632 705.513 171.66Z" fill="white"/>
</g>
<g id="Group_30">
<path id="Vector_26" d="M724.337 158.304L724.504 158.262C724.643 158.262 724.782 158.262 724.921 158.262H725.422L726.59 159.264C729.206 161.629 731.112 164.579 732.308 168.113C733.505 171.646 734.103 175.319 734.103 179.131C734.103 181.023 733.964 182.846 733.686 184.599C733.408 186.352 733.088 187.84 732.726 189.065C732.364 190.289 731.849 191.513 731.182 192.738C730.514 193.962 729.985 194.894 729.596 195.534C729.206 196.174 728.636 196.884 727.884 197.663C727.133 198.442 726.688 198.901 726.549 199.04C726.41 199.179 726.09 199.444 725.589 199.833C725.505 199.917 725.45 199.972 725.422 200H724.921C724.698 200 724.545 200 724.462 200C724.378 200 724.309 199.958 724.253 199.875C724.197 199.791 724.156 199.666 724.128 199.499C724.156 199.471 724.309 199.29 724.587 198.957C728.9 194.477 731.056 187.868 731.056 179.131C731.056 170.394 728.9 163.786 724.587 159.306C724.309 158.972 724.156 158.791 724.128 158.763C724.128 158.541 724.197 158.388 724.337 158.304Z" fill="white"/>
</g>
<g id="Group_31">
<path id="Vector_27" d="M750.848 179.674C750.848 179.674 750.848 179.493 750.848 179.131C750.848 178.77 751.043 178.491 751.432 178.297H775.682C776.099 178.519 776.308 178.797 776.308 179.131C776.308 179.465 776.099 179.743 775.682 179.966H751.432C751.043 179.771 750.848 179.493 750.848 179.131V179.674Z" fill="white"/>
</g>
<g id="Group_32">
<path id="Vector_28" d="M794.393 170.241C793.641 170.241 793.057 170.005 792.64 169.532C792.222 169.059 792 168.446 791.972 167.695C791.972 166.165 792.64 164.801 793.975 163.605C795.311 162.408 796.925 161.81 798.817 161.81C799.791 161.81 800.403 161.824 800.653 161.852C802.712 162.186 804.284 162.923 805.37 164.064C806.455 165.205 807.011 166.443 807.039 167.779C807.039 169.226 806.566 170.631 805.62 171.994C804.674 173.358 803.366 174.345 801.697 174.958L801.572 175.041C801.572 175.069 801.697 175.111 801.947 175.166C802.198 175.222 802.601 175.347 803.158 175.542C803.714 175.737 804.243 176.029 804.744 176.418C807.025 177.893 808.166 179.841 808.166 182.262C808.166 184.46 807.303 186.38 805.578 188.021C803.853 189.663 801.669 190.484 799.026 190.484C796.8 190.484 794.88 189.886 793.266 188.689C791.652 187.493 790.845 185.976 790.845 184.14C790.845 183.361 791.095 182.735 791.596 182.262C792.097 181.789 792.723 181.538 793.474 181.51C794.254 181.51 794.894 181.761 795.394 182.262C795.895 182.762 796.146 183.389 796.146 184.14C796.146 184.446 796.104 184.724 796.02 184.975C795.937 185.225 795.84 185.448 795.728 185.642C795.617 185.837 795.464 186.004 795.269 186.143C795.074 186.282 794.907 186.394 794.768 186.477C794.629 186.561 794.49 186.616 794.351 186.644C794.212 186.672 794.1 186.714 794.017 186.769L793.85 186.811C795.269 188.063 796.994 188.689 799.026 188.689C800.556 188.689 801.711 187.952 802.49 186.477C802.963 185.559 803.199 184.154 803.199 182.262V181.427C803.199 178.783 802.309 177.017 800.528 176.126C800.111 175.959 799.262 175.862 797.982 175.834L796.229 175.792L796.104 175.709C796.048 175.625 796.02 175.403 796.02 175.041C796.02 174.54 796.132 174.29 796.354 174.29C797.133 174.29 797.94 174.22 798.775 174.081C799.721 173.942 800.584 173.358 801.363 172.328C802.142 171.299 802.531 169.74 802.531 167.653V167.32C802.531 165.734 802.045 164.634 801.071 164.022C800.459 163.633 799.805 163.438 799.109 163.438C798.219 163.438 797.398 163.591 796.646 163.897C795.895 164.203 795.367 164.523 795.06 164.857C794.754 165.191 794.601 165.358 794.601 165.358H794.727C794.81 165.386 794.921 165.414 795.06 165.441C795.2 165.469 795.339 165.539 795.478 165.65C795.617 165.761 795.784 165.859 795.979 165.942C796.173 166.026 796.313 166.179 796.396 166.401C796.48 166.624 796.591 166.833 796.73 167.027C796.869 167.222 796.911 167.5 796.855 167.862C796.855 168.474 796.66 169.017 796.271 169.49C795.881 169.963 795.255 170.213 794.393 170.241Z" fill="white"/>
</g>
</g>
</g>
</g>
</g>
</svg>
