<svg viewBox="0 0 975 493" fill="none" xmlns="http://www.w3.org/2000/svg">
<g id="0118107">
<g id="Group 8">
<path id="Rectangle 1" d="M19 37.0601C19 17.7509 40.8457 2.09766 67.7938 2.09766H909V244.038C909 263.347 887.154 279 860.206 279H19V37.0601Z" fill="#02071A"/>
<path id="Rectangle 1 (Stroke)" fill-rule="evenodd" clip-rule="evenodd" d="M904.12 5.5939H67.7938C43.5406 5.5939 23.8794 19.6818 23.8794 37.0601V275.504H860.206C884.459 275.504 904.12 261.416 904.12 244.038V5.5939ZM67.7938 2.09766C40.8457 2.09766 19 17.7509 19 37.0601V279H860.206C887.154 279 909 263.347 909 244.038V2.09766H67.7938Z" fill="#CD08D1"/>
<path id="Rectangle 14" d="M71.8437 2.14838C97.9411 -2.68548 909 2.14838 909 2.14838V23.0752C909 23.0752 58.0351 15.3835 27.7829 23.0752C37.196 11.9759 45.7464 6.98225 71.8437 2.14838Z" fill="#CD08D1"/>
<path id="Rectangle 15" d="M879.724 2.09766H909V244.737C905.407 261.203 897.958 267.255 879.724 275.154C885.091 262.218 879.724 2.09766 879.724 2.09766Z" fill="#CD08D1"/>
</g>
<g id="Se define: Entonces el valor de (1 * 27), es:">
<path d="M100.682 62.6904C97.3047 61.7197 94.8438 60.5303 93.2988 59.1221C91.7676 57.7002 91.002 55.9502 91.002 53.8721C91.002 51.5205 91.9385 49.5791 93.8115 48.0479C95.6982 46.5029 98.1455 45.7305 101.153 45.7305C103.204 45.7305 105.029 46.127 106.629 46.9199C108.242 47.7129 109.486 48.8066 110.361 50.2012C111.25 51.5957 111.694 53.1201 111.694 54.7744H107.736C107.736 52.9697 107.162 51.5547 106.014 50.5293C104.865 49.4902 103.245 48.9707 101.153 48.9707C99.2119 48.9707 97.6943 49.4014 96.6006 50.2627C95.5205 51.1104 94.9805 52.293 94.9805 53.8105C94.9805 55.0273 95.4932 56.0596 96.5186 56.9072C97.5576 57.7412 99.3145 58.5068 101.789 59.2041C104.277 59.9014 106.219 60.6738 107.613 61.5215C109.021 62.3555 110.061 63.333 110.73 64.4541C111.414 65.5752 111.756 66.8945 111.756 68.4121C111.756 70.832 110.812 72.7734 108.926 74.2363C107.039 75.6855 104.517 76.4102 101.358 76.4102C99.3076 76.4102 97.3936 76.0205 95.6162 75.2412C93.8389 74.4482 92.4648 73.3682 91.4941 72.001C90.5371 70.6338 90.0586 69.082 90.0586 67.3457H94.0166C94.0166 69.1504 94.6797 70.5791 96.0059 71.6318C97.3457 72.6709 99.1299 73.1904 101.358 73.1904C103.437 73.1904 105.029 72.7666 106.137 71.9189C107.244 71.0713 107.798 69.916 107.798 68.4531C107.798 66.9902 107.285 65.8623 106.26 65.0693C105.234 64.2627 103.375 63.4697 100.682 62.6904Z" fill="white"/>
<path d="M125.435 76.4102C122.427 76.4102 119.979 75.4258 118.093 73.457C116.206 71.4746 115.263 68.8291 115.263 65.5205V64.8232C115.263 62.6221 115.68 60.6602 116.514 58.9375C117.361 57.2012 118.537 55.8477 120.041 54.877C121.559 53.8926 123.199 53.4004 124.963 53.4004C127.848 53.4004 130.09 54.3506 131.689 56.251C133.289 58.1514 134.089 60.8721 134.089 64.4131V65.9922H119.057C119.111 68.1797 119.747 69.9502 120.964 71.3037C122.194 72.6436 123.753 73.3135 125.64 73.3135C126.979 73.3135 128.114 73.04 129.044 72.4932C129.974 71.9463 130.787 71.2217 131.484 70.3193L133.802 72.124C131.942 74.9814 129.153 76.4102 125.435 76.4102ZM124.963 56.5176C123.432 56.5176 122.146 57.0781 121.107 58.1992C120.068 59.3066 119.426 60.8652 119.18 62.875H130.295V62.5879C130.186 60.6602 129.666 59.1699 128.736 58.1172C127.807 57.0508 126.549 56.5176 124.963 56.5176Z" fill="white"/>
<path d="M147.993 64.7207C147.993 61.3164 148.8 58.582 150.413 56.5176C152.026 54.4395 154.139 53.4004 156.75 53.4004C159.348 53.4004 161.405 54.2891 162.923 56.0664V44.5H166.717V76H163.23L163.046 73.6211C161.528 75.4805 159.416 76.4102 156.709 76.4102C154.139 76.4102 152.04 75.3574 150.413 73.252C148.8 71.1465 147.993 68.3984 147.993 65.0078V64.7207ZM151.787 65.1514C151.787 67.667 152.307 69.6357 153.346 71.0576C154.385 72.4795 155.82 73.1904 157.652 73.1904C160.059 73.1904 161.815 72.1104 162.923 69.9502V59.7578C161.788 57.666 160.045 56.6201 157.693 56.6201C155.834 56.6201 154.385 57.3379 153.346 58.7734C152.307 60.209 151.787 62.335 151.787 65.1514Z" fill="white"/>
<path d="M181.831 76.4102C178.823 76.4102 176.376 75.4258 174.489 73.457C172.603 71.4746 171.659 68.8291 171.659 65.5205V64.8232C171.659 62.6221 172.076 60.6602 172.91 58.9375C173.758 57.2012 174.934 55.8477 176.438 54.877C177.955 53.8926 179.596 53.4004 181.359 53.4004C184.244 53.4004 186.486 54.3506 188.086 56.251C189.686 58.1514 190.485 60.8721 190.485 64.4131V65.9922H175.453C175.508 68.1797 176.144 69.9502 177.36 71.3037C178.591 72.6436 180.149 73.3135 182.036 73.3135C183.376 73.3135 184.511 73.04 185.44 72.4932C186.37 71.9463 187.184 71.2217 187.881 70.3193L190.198 72.124C188.339 74.9814 185.55 76.4102 181.831 76.4102ZM181.359 56.5176C179.828 56.5176 178.543 57.0781 177.504 58.1992C176.465 59.3066 175.822 60.8652 175.576 62.875H186.691V62.5879C186.582 60.6602 186.062 59.1699 185.133 58.1172C184.203 57.0508 182.945 56.5176 181.359 56.5176Z" fill="white"/>
<path d="M196.166 76V56.7432H192.659V53.8105H196.166V51.9238C196.166 49.4492 196.87 47.5215 198.278 46.1406C199.7 44.7598 201.703 44.0693 204.287 44.0693C205.818 44.0693 207.753 44.4863 210.091 45.3203L209.455 48.5195C207.746 47.8359 206.119 47.4941 204.574 47.4941C202.947 47.4941 201.771 47.8633 201.047 48.6016C200.336 49.3262 199.98 50.4199 199.98 51.8828V53.8105H204.513V56.7432H199.98V76H196.166ZM211.978 76H208.163V53.8105H211.978V76Z" fill="white"/>
<path d="M221.739 53.8105L221.862 56.5996C223.558 54.4668 225.772 53.4004 228.507 53.4004C233.196 53.4004 235.562 56.0459 235.603 61.3369V76H231.809V61.3164C231.795 59.7168 231.426 58.5342 230.701 57.7686C229.99 57.0029 228.876 56.6201 227.358 56.6201C226.128 56.6201 225.048 56.9482 224.118 57.6045C223.188 58.2607 222.464 59.1221 221.944 60.1885V76H218.15V53.8105H221.739Z" fill="white"/>
<path d="M250.532 76.4102C247.524 76.4102 245.077 75.4258 243.19 73.457C241.304 71.4746 240.36 68.8291 240.36 65.5205V64.8232C240.36 62.6221 240.777 60.6602 241.611 58.9375C242.459 57.2012 243.635 55.8477 245.139 54.877C246.656 53.8926 248.297 53.4004 250.061 53.4004C252.945 53.4004 255.188 54.3506 256.787 56.251C258.387 58.1514 259.187 60.8721 259.187 64.4131V65.9922H244.154C244.209 68.1797 244.845 69.9502 246.062 71.3037C247.292 72.6436 248.851 73.3135 250.737 73.3135C252.077 73.3135 253.212 73.04 254.142 72.4932C255.071 71.9463 255.885 71.2217 256.582 70.3193L258.899 72.124C257.04 74.9814 254.251 76.4102 250.532 76.4102ZM250.061 56.5176C248.529 56.5176 247.244 57.0781 246.205 58.1992C245.166 59.3066 244.523 60.8652 244.277 62.875H255.393V62.5879C255.283 60.6602 254.764 59.1699 253.834 58.1172C252.904 57.0508 251.646 56.5176 250.061 56.5176Z" fill="white"/>
<path d="M263.473 74.0107C263.473 73.3545 263.664 72.8076 264.047 72.3701C264.443 71.9326 265.031 71.7139 265.811 71.7139C266.59 71.7139 267.178 71.9326 267.574 72.3701C267.984 72.8076 268.189 73.3545 268.189 74.0107C268.189 74.6396 267.984 75.166 267.574 75.5898C267.178 76.0137 266.59 76.2256 265.811 76.2256C265.031 76.2256 264.443 76.0137 264.047 75.5898C263.664 75.166 263.473 74.6396 263.473 74.0107ZM263.493 55.9023C263.493 55.2461 263.685 54.6992 264.067 54.2617C264.464 53.8242 265.052 53.6055 265.831 53.6055C266.61 53.6055 267.198 53.8242 267.595 54.2617C268.005 54.6992 268.21 55.2461 268.21 55.9023C268.21 56.5312 268.005 57.0576 267.595 57.4814C267.198 57.9053 266.61 58.1172 265.831 58.1172C265.052 58.1172 264.464 57.9053 264.067 57.4814C263.685 57.0576 263.493 56.5312 263.493 55.9023Z" fill="white"/>
<path d="M98.3438 182.198H85.4033V192.78H100.436V196H81.4658V166.141H100.23V169.381H85.4033V178.979H98.3438V182.198Z" fill="white"/>
<path d="M108.331 173.811L108.454 176.6C110.149 174.467 112.364 173.4 115.099 173.4C119.788 173.4 122.153 176.046 122.194 181.337V196H118.4V181.316C118.387 179.717 118.018 178.534 117.293 177.769C116.582 177.003 115.468 176.62 113.95 176.62C112.72 176.62 111.64 176.948 110.71 177.604C109.78 178.261 109.056 179.122 108.536 180.188V196H104.742V173.811H108.331Z" fill="white"/>
<path d="M133.063 168.438V173.811H137.206V176.743H133.063V190.504C133.063 191.393 133.248 192.062 133.617 192.514C133.986 192.951 134.615 193.17 135.504 193.17C135.941 193.17 136.543 193.088 137.309 192.924V196C136.311 196.273 135.34 196.41 134.396 196.41C132.701 196.41 131.423 195.897 130.562 194.872C129.7 193.847 129.27 192.391 129.27 190.504V176.743H125.229V173.811H129.27V168.438H133.063Z" fill="white"/>
<path d="M140.241 184.7C140.241 182.526 140.665 180.571 141.513 178.835C142.374 177.099 143.563 175.759 145.081 174.815C146.612 173.872 148.355 173.4 150.311 173.4C153.332 173.4 155.772 174.446 157.632 176.538C159.505 178.63 160.441 181.412 160.441 184.885V185.151C160.441 187.312 160.024 189.253 159.19 190.976C158.37 192.685 157.188 194.018 155.643 194.975C154.111 195.932 152.348 196.41 150.352 196.41C147.344 196.41 144.903 195.364 143.03 193.272C141.171 191.181 140.241 188.412 140.241 184.967V184.7ZM144.056 185.151C144.056 187.612 144.623 189.588 145.758 191.078C146.906 192.568 148.438 193.313 150.352 193.313C152.279 193.313 153.811 192.562 154.945 191.058C156.08 189.54 156.647 187.421 156.647 184.7C156.647 182.267 156.066 180.298 154.904 178.794C153.756 177.276 152.225 176.518 150.311 176.518C148.438 176.518 146.927 177.263 145.778 178.753C144.63 180.243 144.056 182.376 144.056 185.151Z" fill="white"/>
<path d="M168.788 173.811L168.911 176.6C170.606 174.467 172.821 173.4 175.556 173.4C180.245 173.4 182.61 176.046 182.651 181.337V196H178.857V181.316C178.844 179.717 178.475 178.534 177.75 177.769C177.039 177.003 175.925 176.62 174.407 176.62C173.177 176.62 172.097 176.948 171.167 177.604C170.237 178.261 169.513 179.122 168.993 180.188V196H165.199V173.811H168.788Z" fill="white"/>
<path d="M197.273 193.313C198.627 193.313 199.81 192.903 200.821 192.083C201.833 191.263 202.394 190.237 202.503 189.007H206.092C206.023 190.278 205.586 191.488 204.779 192.637C203.973 193.785 202.893 194.701 201.539 195.385C200.199 196.068 198.777 196.41 197.273 196.41C194.252 196.41 191.846 195.405 190.055 193.396C188.277 191.372 187.389 188.61 187.389 185.11V184.475C187.389 182.314 187.785 180.394 188.578 178.712C189.371 177.03 190.506 175.725 191.982 174.795C193.473 173.865 195.229 173.4 197.253 173.4C199.741 173.4 201.806 174.146 203.446 175.636C205.101 177.126 205.982 179.061 206.092 181.439H202.503C202.394 180.004 201.847 178.828 200.862 177.912C199.892 176.982 198.688 176.518 197.253 176.518C195.325 176.518 193.828 177.215 192.762 178.609C191.709 179.99 191.183 181.993 191.183 184.618V185.336C191.183 187.893 191.709 189.861 192.762 191.242C193.814 192.623 195.318 193.313 197.273 193.313Z" fill="white"/>
<path d="M219.565 196.41C216.558 196.41 214.11 195.426 212.224 193.457C210.337 191.475 209.394 188.829 209.394 185.521V184.823C209.394 182.622 209.811 180.66 210.645 178.938C211.492 177.201 212.668 175.848 214.172 174.877C215.689 173.893 217.33 173.4 219.094 173.4C221.979 173.4 224.221 174.351 225.82 176.251C227.42 178.151 228.22 180.872 228.22 184.413V185.992H213.188C213.242 188.18 213.878 189.95 215.095 191.304C216.325 192.644 217.884 193.313 219.771 193.313C221.11 193.313 222.245 193.04 223.175 192.493C224.104 191.946 224.918 191.222 225.615 190.319L227.933 192.124C226.073 194.981 223.284 196.41 219.565 196.41ZM219.094 176.518C217.562 176.518 216.277 177.078 215.238 178.199C214.199 179.307 213.557 180.865 213.311 182.875H224.426V182.588C224.316 180.66 223.797 179.17 222.867 178.117C221.938 177.051 220.68 176.518 219.094 176.518Z" fill="white"/>
<path d="M245.549 190.114C245.549 189.089 245.159 188.296 244.38 187.735C243.614 187.161 242.268 186.669 240.34 186.259C238.426 185.849 236.901 185.356 235.767 184.782C234.646 184.208 233.812 183.524 233.265 182.731C232.731 181.938 232.465 180.995 232.465 179.901C232.465 178.083 233.23 176.545 234.762 175.287C236.307 174.029 238.275 173.4 240.668 173.4C243.184 173.4 245.221 174.05 246.779 175.349C248.352 176.647 249.138 178.309 249.138 180.332H245.323C245.323 179.293 244.879 178.397 243.99 177.646C243.115 176.894 242.008 176.518 240.668 176.518C239.287 176.518 238.207 176.818 237.428 177.42C236.648 178.021 236.259 178.808 236.259 179.778C236.259 180.694 236.621 181.385 237.346 181.85C238.07 182.314 239.376 182.759 241.263 183.183C243.163 183.606 244.701 184.112 245.877 184.7C247.053 185.288 247.921 185.999 248.481 186.833C249.056 187.653 249.343 188.658 249.343 189.848C249.343 191.83 248.55 193.423 246.964 194.626C245.378 195.815 243.32 196.41 240.791 196.41C239.014 196.41 237.441 196.096 236.074 195.467C234.707 194.838 233.634 193.963 232.854 192.842C232.089 191.707 231.706 190.483 231.706 189.171H235.5C235.568 190.442 236.074 191.454 237.018 192.206C237.975 192.944 239.232 193.313 240.791 193.313C242.227 193.313 243.375 193.026 244.236 192.452C245.111 191.864 245.549 191.085 245.549 190.114Z" fill="white"/>
<path d="M273.911 196.41C270.903 196.41 268.456 195.426 266.569 193.457C264.683 191.475 263.739 188.829 263.739 185.521V184.823C263.739 182.622 264.156 180.66 264.99 178.938C265.838 177.201 267.014 175.848 268.518 174.877C270.035 173.893 271.676 173.4 273.439 173.4C276.324 173.4 278.566 174.351 280.166 176.251C281.766 178.151 282.565 180.872 282.565 184.413V185.992H267.533C267.588 188.18 268.224 189.95 269.44 191.304C270.671 192.644 272.229 193.313 274.116 193.313C275.456 193.313 276.591 193.04 277.521 192.493C278.45 191.946 279.264 191.222 279.961 190.319L282.278 192.124C280.419 194.981 277.63 196.41 273.911 196.41ZM273.439 176.518C271.908 176.518 270.623 177.078 269.584 178.199C268.545 179.307 267.902 180.865 267.656 182.875H278.771V182.588C278.662 180.66 278.143 179.17 277.213 178.117C276.283 177.051 275.025 176.518 273.439 176.518Z" fill="white"/>
<path d="M291.097 196H287.303V164.5H291.097V196Z" fill="white"/>
<path d="M314.927 190.853L320.423 173.811H324.299L316.342 196H313.45L305.411 173.811H309.287L314.927 190.853Z" fill="white"/>
<path d="M341.32 196C341.102 195.562 340.924 194.783 340.787 193.662C339.023 195.494 336.918 196.41 334.471 196.41C332.283 196.41 330.485 195.795 329.077 194.564C327.683 193.32 326.985 191.748 326.985 189.848C326.985 187.537 327.86 185.746 329.61 184.475C331.374 183.189 333.849 182.547 337.034 182.547H340.726V180.804C340.726 179.478 340.329 178.425 339.536 177.646C338.743 176.853 337.574 176.456 336.029 176.456C334.676 176.456 333.541 176.798 332.625 177.481C331.709 178.165 331.251 178.992 331.251 179.963H327.437C327.437 178.855 327.826 177.789 328.605 176.764C329.398 175.725 330.465 174.904 331.805 174.303C333.158 173.701 334.642 173.4 336.255 173.4C338.812 173.4 340.814 174.043 342.264 175.328C343.713 176.6 344.465 178.356 344.52 180.599V190.812C344.52 192.849 344.779 194.469 345.299 195.672V196H341.32ZM335.024 193.108C336.214 193.108 337.342 192.801 338.408 192.186C339.475 191.57 340.247 190.771 340.726 189.786V185.233H337.752C333.104 185.233 330.779 186.594 330.779 189.314C330.779 190.504 331.176 191.434 331.969 192.104C332.762 192.773 333.78 193.108 335.024 193.108Z" fill="white"/>
<path d="M354.589 196H350.795V164.5H354.589V196Z" fill="white"/>
<path d="M359.675 184.7C359.675 182.526 360.099 180.571 360.946 178.835C361.808 177.099 362.997 175.759 364.515 174.815C366.046 173.872 367.789 173.4 369.744 173.4C372.766 173.4 375.206 174.446 377.065 176.538C378.938 178.63 379.875 181.412 379.875 184.885V185.151C379.875 187.312 379.458 189.253 378.624 190.976C377.804 192.685 376.621 194.018 375.076 194.975C373.545 195.932 371.781 196.41 369.785 196.41C366.777 196.41 364.337 195.364 362.464 193.272C360.604 191.181 359.675 188.412 359.675 184.967V184.7ZM363.489 185.151C363.489 187.612 364.057 189.588 365.191 191.078C366.34 192.568 367.871 193.313 369.785 193.313C371.713 193.313 373.244 192.562 374.379 191.058C375.514 189.54 376.081 187.421 376.081 184.7C376.081 182.267 375.5 180.298 374.338 178.794C373.189 177.276 371.658 176.518 369.744 176.518C367.871 176.518 366.36 177.263 365.212 178.753C364.063 180.243 363.489 182.376 363.489 185.151Z" fill="white"/>
<path d="M395.358 177.215C394.784 177.119 394.162 177.071 393.492 177.071C391.004 177.071 389.315 178.131 388.427 180.25V196H384.633V173.811H388.324L388.386 176.374C389.63 174.392 391.394 173.4 393.677 173.4C394.415 173.4 394.976 173.496 395.358 173.688V177.215Z" fill="white"/>
<path d="M408.36 184.721C408.36 181.316 409.167 178.582 410.78 176.518C412.394 174.439 414.506 173.4 417.117 173.4C419.715 173.4 421.772 174.289 423.29 176.066V164.5H427.084V196H423.598L423.413 193.621C421.896 195.48 419.783 196.41 417.076 196.41C414.506 196.41 412.407 195.357 410.78 193.252C409.167 191.146 408.36 188.398 408.36 185.008V184.721ZM412.154 185.151C412.154 187.667 412.674 189.636 413.713 191.058C414.752 192.479 416.188 193.19 418.02 193.19C420.426 193.19 422.183 192.11 423.29 189.95V179.758C422.155 177.666 420.412 176.62 418.061 176.62C416.201 176.62 414.752 177.338 413.713 178.773C412.674 180.209 412.154 182.335 412.154 185.151Z" fill="white"/>
<path d="M442.198 196.41C439.19 196.41 436.743 195.426 434.856 193.457C432.97 191.475 432.026 188.829 432.026 185.521V184.823C432.026 182.622 432.443 180.66 433.277 178.938C434.125 177.201 435.301 175.848 436.805 174.877C438.322 173.893 439.963 173.4 441.727 173.4C444.611 173.4 446.854 174.351 448.453 176.251C450.053 178.151 450.853 180.872 450.853 184.413V185.992H435.82C435.875 188.18 436.511 189.95 437.728 191.304C438.958 192.644 440.517 193.313 442.403 193.313C443.743 193.313 444.878 193.04 445.808 192.493C446.737 191.946 447.551 191.222 448.248 190.319L450.565 192.124C448.706 194.981 445.917 196.41 442.198 196.41ZM441.727 176.518C440.195 176.518 438.91 177.078 437.871 178.199C436.832 179.307 436.189 180.865 435.943 182.875H447.059V182.588C446.949 180.66 446.43 179.17 445.5 178.117C444.57 177.051 443.312 176.518 441.727 176.518Z" fill="white"/>
<path d="M465.536 183.88C465.536 180.79 465.946 177.823 466.767 174.979C467.601 172.136 468.838 169.552 470.479 167.228C472.119 164.903 473.821 163.263 475.585 162.306L476.364 164.808C474.368 166.339 472.728 168.677 471.442 171.821C470.171 174.966 469.474 178.486 469.351 182.383L469.33 184.126C469.33 189.403 470.294 193.983 472.222 197.866C473.384 200.19 474.765 202.009 476.364 203.321L475.585 205.639C473.767 204.627 472.03 202.932 470.376 200.553C467.149 195.904 465.536 190.347 465.536 183.88Z" fill="white"/>
<path d="M492.114 196H488.3V170.714L480.65 173.523V170.078L491.52 165.997H492.114V196Z" fill="white"/>
<path d="M517.934 175.841L511.74 173.995L512.684 170.898L518.877 173.195L518.692 166.141H521.83L521.625 173.298L527.716 171.042L528.659 174.159L522.363 176.025L526.424 181.583L523.881 183.511L520.066 177.604L516.375 183.367L513.812 181.501L517.934 175.841Z" fill="white"/>
<path d="M561.718 196H542.153V193.272L552.489 181.788C554.021 180.052 555.073 178.644 555.647 177.563C556.235 176.47 556.529 175.342 556.529 174.18C556.529 172.621 556.058 171.343 555.114 170.345C554.171 169.347 552.913 168.848 551.341 168.848C549.454 168.848 547.984 169.388 546.932 170.468C545.893 171.534 545.373 173.024 545.373 174.938H541.579C541.579 172.19 542.461 169.969 544.225 168.273C546.002 166.578 548.374 165.73 551.341 165.73C554.116 165.73 556.311 166.462 557.924 167.925C559.537 169.374 560.344 171.309 560.344 173.729C560.344 176.668 558.471 180.168 554.725 184.229L546.727 192.903H561.718V196Z" fill="white"/>
<path d="M585.015 168.273L572.648 196H568.67L580.995 169.258H564.835V166.141H585.015V168.273Z" fill="white"/>
<path d="M598.468 184.085C598.468 187.134 598.064 190.06 597.258 192.862C596.465 195.651 595.241 198.229 593.587 200.594C591.946 202.959 590.224 204.641 588.419 205.639L587.619 203.321C589.725 201.708 591.413 199.206 592.685 195.815C593.97 192.411 594.626 188.638 594.653 184.495V183.839C594.653 180.968 594.353 178.302 593.751 175.841C593.149 173.366 592.309 171.151 591.229 169.196C590.162 167.241 588.959 165.717 587.619 164.623L588.419 162.306C590.224 163.304 591.939 164.972 593.566 167.31C595.207 169.647 596.431 172.225 597.237 175.041C598.058 177.857 598.468 180.872 598.468 184.085Z" fill="white"/>
<path d="M604.189 201.947L602.036 200.471C603.321 198.68 603.991 196.834 604.046 194.934V191.509H607.758V194.482C607.758 195.863 607.416 197.244 606.732 198.625C606.062 200.006 605.215 201.113 604.189 201.947Z" fill="white"/>
<path d="M632.183 196.41C629.175 196.41 626.728 195.426 624.841 193.457C622.954 191.475 622.011 188.829 622.011 185.521V184.823C622.011 182.622 622.428 180.66 623.262 178.938C624.109 177.201 625.285 175.848 626.789 174.877C628.307 173.893 629.947 173.4 631.711 173.4C634.596 173.4 636.838 174.351 638.438 176.251C640.037 178.151 640.837 180.872 640.837 184.413V185.992H625.805C625.859 188.18 626.495 189.95 627.712 191.304C628.942 192.644 630.501 193.313 632.388 193.313C633.728 193.313 634.862 193.04 635.792 192.493C636.722 191.946 637.535 191.222 638.232 190.319L640.55 192.124C638.69 194.981 635.901 196.41 632.183 196.41ZM631.711 176.518C630.18 176.518 628.895 177.078 627.855 178.199C626.816 179.307 626.174 180.865 625.928 182.875H637.043V182.588C636.934 180.66 636.414 179.17 635.484 178.117C634.555 177.051 633.297 176.518 631.711 176.518Z" fill="white"/>
<path d="M658.166 190.114C658.166 189.089 657.776 188.296 656.997 187.735C656.231 187.161 654.885 186.669 652.957 186.259C651.043 185.849 649.519 185.356 648.384 184.782C647.263 184.208 646.429 183.524 645.882 182.731C645.349 181.938 645.082 180.995 645.082 179.901C645.082 178.083 645.848 176.545 647.379 175.287C648.924 174.029 650.893 173.4 653.285 173.4C655.801 173.4 657.838 174.05 659.396 175.349C660.969 176.647 661.755 178.309 661.755 180.332H657.94C657.94 179.293 657.496 178.397 656.607 177.646C655.732 176.894 654.625 176.518 653.285 176.518C651.904 176.518 650.824 176.818 650.045 177.42C649.266 178.021 648.876 178.808 648.876 179.778C648.876 180.694 649.238 181.385 649.963 181.85C650.688 182.314 651.993 182.759 653.88 183.183C655.78 183.606 657.318 184.112 658.494 184.7C659.67 185.288 660.538 185.999 661.099 186.833C661.673 187.653 661.96 188.658 661.96 189.848C661.96 191.83 661.167 193.423 659.581 194.626C657.995 195.815 655.938 196.41 653.408 196.41C651.631 196.41 650.059 196.096 648.691 195.467C647.324 194.838 646.251 193.963 645.472 192.842C644.706 191.707 644.323 190.483 644.323 189.171H648.117C648.186 190.442 648.691 191.454 649.635 192.206C650.592 192.944 651.85 193.313 653.408 193.313C654.844 193.313 655.992 193.026 656.854 192.452C657.729 191.864 658.166 191.085 658.166 190.114Z" fill="white"/>
<path d="M666.779 194.011C666.779 193.354 666.971 192.808 667.354 192.37C667.75 191.933 668.338 191.714 669.117 191.714C669.896 191.714 670.484 191.933 670.881 192.37C671.291 192.808 671.496 193.354 671.496 194.011C671.496 194.64 671.291 195.166 670.881 195.59C670.484 196.014 669.896 196.226 669.117 196.226C668.338 196.226 667.75 196.014 667.354 195.59C666.971 195.166 666.779 194.64 666.779 194.011ZM666.8 175.902C666.8 175.246 666.991 174.699 667.374 174.262C667.771 173.824 668.358 173.605 669.138 173.605C669.917 173.605 670.505 173.824 670.901 174.262C671.312 174.699 671.517 175.246 671.517 175.902C671.517 176.531 671.312 177.058 670.901 177.481C670.505 177.905 669.917 178.117 669.138 178.117C668.358 178.117 667.771 177.905 667.374 177.481C666.991 177.058 666.8 176.531 666.8 175.902Z" fill="white"/>
</g>
<g id="a*b=2a \sqrt{b*a}">
<g id="Group">
<g id="Group_2">
<path id="Vector" d="M296 119.991C296 116.961 297.14 114.081 299.42 111.351C301.7 108.621 304.265 107.241 307.115 107.211C308.645 107.211 309.995 107.946 311.165 109.416C311.645 108.516 312.335 108.066 313.235 108.066C313.625 108.066 313.97 108.186 314.27 108.426C314.57 108.666 314.72 108.966 314.72 109.326C314.72 109.716 314.165 112.116 313.055 116.526C311.945 120.936 311.375 123.426 311.345 123.996C311.345 124.746 311.45 125.241 311.66 125.481C311.87 125.721 312.185 125.856 312.605 125.886C312.875 125.856 313.175 125.721 313.505 125.481C314.135 124.881 314.75 123.441 315.35 121.161C315.53 120.561 315.68 120.246 315.8 120.216C315.86 120.186 316.01 120.171 316.25 120.171H316.43C317 120.171 317.285 120.306 317.285 120.576C317.285 120.756 317.21 121.161 317.06 121.791C316.91 122.421 316.61 123.231 316.16 124.221C315.71 125.211 315.23 125.961 314.72 126.471C314.33 126.861 313.85 127.176 313.28 127.416C313.04 127.476 312.68 127.506 312.2 127.506C311.18 127.506 310.325 127.281 309.635 126.831C308.945 126.381 308.495 125.916 308.285 125.436L308.015 124.761C307.985 124.731 307.925 124.746 307.835 124.806C307.775 124.866 307.715 124.926 307.655 124.986C305.885 126.666 304.085 127.506 302.255 127.506C300.605 127.506 299.15 126.906 297.89 125.706C296.63 124.506 296 122.601 296 119.991ZM310.31 112.296C310.31 112.116 310.235 111.786 310.085 111.306C309.935 110.826 309.59 110.301 309.05 109.731C308.51 109.161 307.82 108.861 306.98 108.831C305.93 108.831 304.925 109.296 303.965 110.226C303.005 111.156 302.255 112.371 301.715 113.871C300.845 116.241 300.23 118.701 299.87 121.251C299.87 121.341 299.87 121.506 299.87 121.746C299.87 121.986 299.855 122.166 299.825 122.286C299.825 123.636 300.095 124.566 300.635 125.076C301.175 125.586 301.82 125.856 302.57 125.886C303.71 125.886 304.835 125.391 305.945 124.401C307.055 123.411 307.715 122.646 307.925 122.106C307.985 121.986 308.39 120.381 309.14 117.291C309.89 114.201 310.28 112.536 310.31 112.296Z" fill="white"/>
</g>
<g id="Group_3">
<path id="Vector_2" d="M338.624 114.186C338.234 110.166 338.039 107.916 338.039 107.436C338.039 106.896 338.399 106.476 339.119 106.176C339.149 106.176 339.224 106.176 339.344 106.176C339.464 106.176 339.554 106.161 339.614 106.131C339.974 106.161 340.304 106.296 340.604 106.536C340.904 106.776 341.054 107.076 341.054 107.436C341.054 107.946 340.964 109.146 340.784 111.036C340.604 112.926 340.499 113.976 340.469 114.186L343.079 112.296C344.759 111.066 345.674 110.406 345.824 110.316C345.974 110.226 346.124 110.181 346.274 110.181C346.664 110.181 347.024 110.331 347.354 110.631C347.684 110.931 347.864 111.336 347.894 111.846C347.894 112.236 347.744 112.581 347.444 112.881C347.294 112.971 346.274 113.466 344.384 114.366C342.494 115.266 341.474 115.746 341.324 115.806L344.294 117.201L347.444 118.776C347.714 119.046 347.849 119.391 347.849 119.811C347.849 120.261 347.714 120.636 347.444 120.936C347.174 121.236 346.814 121.401 346.364 121.431C346.124 121.431 345.854 121.341 345.554 121.161C345.254 120.981 344.429 120.381 343.079 119.361L340.469 117.471C340.859 121.491 341.054 123.741 341.054 124.221C341.054 124.521 340.949 124.806 340.739 125.076C340.529 125.346 340.139 125.481 339.569 125.481C338.999 125.481 338.609 125.346 338.399 125.076C338.189 124.806 338.069 124.521 338.039 124.221C338.039 123.711 338.129 122.511 338.309 120.621C338.489 118.731 338.594 117.681 338.624 117.471L336.014 119.361C334.334 120.591 333.419 121.251 333.269 121.341C333.149 121.431 332.999 121.476 332.819 121.476C332.429 121.476 332.069 121.326 331.739 121.026C331.409 120.726 331.229 120.321 331.199 119.811C331.199 119.661 331.199 119.541 331.199 119.451C331.199 119.361 331.244 119.271 331.334 119.181C331.424 119.091 331.499 119.001 331.559 118.911C331.619 118.821 331.754 118.716 331.964 118.596C332.174 118.476 332.369 118.371 332.549 118.281C332.729 118.191 333.014 118.056 333.404 117.876C333.794 117.696 334.169 117.531 334.529 117.381C334.889 117.231 335.369 117.006 335.969 116.706C336.569 116.406 337.169 116.106 337.769 115.806L331.649 112.881C331.379 112.611 331.244 112.266 331.244 111.846C331.244 111.396 331.379 111.021 331.649 110.721C331.919 110.421 332.279 110.256 332.729 110.226C332.969 110.226 333.239 110.316 333.539 110.496C333.839 110.676 334.664 111.276 336.014 112.296L338.624 114.186Z" fill="white"/>
</g>
<g id="Group_4">
<path id="Vector_3" d="M364.103 97.941C364.103 97.641 364.163 97.296 364.283 96.906C364.403 96.516 364.583 96.321 364.823 96.321C364.853 96.321 365.933 96.246 368.063 96.096C370.193 95.946 371.288 95.856 371.348 95.826C371.708 95.826 371.888 95.961 371.888 96.231C371.888 96.501 371.378 98.646 370.358 102.666C370.118 103.686 369.863 104.736 369.593 105.816C369.323 106.896 369.098 107.706 368.918 108.246L368.738 109.101C368.738 109.191 368.828 109.146 369.008 108.966C370.478 107.766 371.993 107.166 373.553 107.166C375.413 107.166 376.913 107.856 378.053 109.236C379.193 110.616 379.778 112.356 379.808 114.456C379.808 117.786 378.623 120.801 376.253 123.501C373.883 126.201 371.333 127.551 368.603 127.551C367.103 127.551 365.738 126.981 364.508 125.841C363.278 124.701 362.648 122.856 362.618 120.306V119.901C362.618 119.271 362.738 118.401 362.978 117.291C363.218 116.181 363.953 113.226 365.183 108.426C366.683 102.516 367.433 99.381 367.433 99.021C367.433 98.661 366.863 98.451 365.723 98.391C365.573 98.391 365.453 98.391 365.363 98.391H365.138C364.838 98.391 364.643 98.391 364.553 98.391C364.463 98.391 364.358 98.346 364.238 98.256C364.118 98.166 364.073 98.061 364.103 97.941ZM375.938 112.431V112.161C375.938 109.941 375.023 108.831 373.193 108.831C372.683 108.831 372.158 108.951 371.618 109.191C371.078 109.431 370.583 109.746 370.133 110.136C369.683 110.526 369.293 110.886 368.963 111.216C368.633 111.546 368.363 111.876 368.153 112.206L367.883 112.566L366.938 116.436C366.278 119.016 365.948 120.846 365.948 121.926C365.948 123.366 366.308 124.446 367.028 125.166C367.508 125.646 368.108 125.886 368.828 125.886C369.818 125.886 370.823 125.406 371.843 124.446C372.593 123.756 373.193 122.916 373.643 121.926C374.093 120.936 374.588 119.361 375.128 117.201C375.668 115.041 375.938 113.451 375.938 112.431Z" fill="white"/>
</g>
<g id="Group_5">
<path id="Vector_4" d="M395.144 111.441C395.144 111.051 395.354 110.751 395.774 110.541H424.439C424.889 110.781 425.114 111.081 425.114 111.441C425.114 111.771 424.904 112.056 424.484 112.296L410.174 112.341H395.864C395.384 112.191 395.144 111.891 395.144 111.441ZM395.144 120.171C395.144 119.721 395.384 119.421 395.864 119.271H424.484C424.904 119.571 425.114 119.871 425.114 120.171C425.114 120.561 424.889 120.861 424.439 121.071H395.774C395.354 120.861 395.144 120.561 395.144 120.171Z" fill="white"/>
</g>
<g id="Group_6">
<path id="Vector_5" d="M445.04 107.751C444.23 107.751 443.585 107.481 443.105 106.941C442.625 106.401 442.385 105.741 442.385 104.961C442.385 102.831 443.18 100.986 444.77 99.4259C446.36 97.8659 448.34 97.0859 450.71 97.0859C453.44 97.0859 455.72 97.9259 457.55 99.6059C459.38 101.286 460.31 103.461 460.34 106.131C460.34 107.421 460.04 108.651 459.44 109.821C458.84 110.991 458.12 112.011 457.28 112.881C456.44 113.751 455.24 114.861 453.68 116.211C452.6 117.141 451.1 118.521 449.18 120.351L446.525 122.871L449.945 122.916C454.655 122.916 457.16 122.841 457.46 122.691C457.67 122.631 458.03 121.296 458.54 118.686V118.551H460.34V118.686C460.31 118.776 460.115 120.141 459.755 122.781C459.395 125.421 459.17 126.801 459.08 126.921V127.056H442.385V126.201V125.661C442.385 125.451 442.475 125.226 442.655 124.986C442.835 124.746 443.285 124.221 444.005 123.411C444.875 122.451 445.625 121.611 446.255 120.891C446.525 120.591 447.035 120.036 447.785 119.226C448.535 118.416 449.045 117.861 449.315 117.561C449.585 117.261 450.02 116.766 450.62 116.076C451.22 115.386 451.64 114.876 451.88 114.546C452.12 114.216 452.465 113.766 452.915 113.196C453.365 112.626 453.68 112.146 453.86 111.756C454.04 111.366 454.265 110.931 454.535 110.451C454.805 109.971 455 109.491 455.12 109.011C455.24 108.531 455.345 108.081 455.435 107.661C455.525 107.241 455.57 106.746 455.57 106.176C455.57 104.286 455.06 102.651 454.04 101.271C453.02 99.8909 451.565 99.2009 449.675 99.2009C448.685 99.2009 447.815 99.4559 447.065 99.9659C446.315 100.476 445.79 100.971 445.49 101.451C445.19 101.931 445.04 102.216 445.04 102.306C445.04 102.336 445.115 102.351 445.265 102.351C445.805 102.351 446.36 102.561 446.93 102.981C447.5 103.401 447.785 104.091 447.785 105.051C447.785 105.801 447.545 106.431 447.065 106.941C446.585 107.451 445.91 107.721 445.04 107.751Z" fill="white"/>
</g>
<g id="Group_7">
<path id="Vector_6" d="M464.12 119.991C464.12 116.961 465.26 114.081 467.54 111.351C469.82 108.621 472.385 107.241 475.235 107.211C476.765 107.211 478.115 107.946 479.285 109.416C479.765 108.516 480.455 108.066 481.355 108.066C481.745 108.066 482.09 108.186 482.39 108.426C482.69 108.666 482.84 108.966 482.84 109.326C482.84 109.716 482.285 112.116 481.175 116.526C480.065 120.936 479.495 123.426 479.465 123.996C479.465 124.746 479.57 125.241 479.78 125.481C479.99 125.721 480.305 125.856 480.725 125.886C480.995 125.856 481.295 125.721 481.625 125.481C482.255 124.881 482.87 123.441 483.47 121.161C483.65 120.561 483.8 120.246 483.92 120.216C483.98 120.186 484.13 120.171 484.37 120.171H484.55C485.12 120.171 485.405 120.306 485.405 120.576C485.405 120.756 485.33 121.161 485.18 121.791C485.03 122.421 484.73 123.231 484.28 124.221C483.83 125.211 483.35 125.961 482.84 126.471C482.45 126.861 481.97 127.176 481.4 127.416C481.16 127.476 480.8 127.506 480.32 127.506C479.3 127.506 478.445 127.281 477.755 126.831C477.065 126.381 476.615 125.916 476.405 125.436L476.135 124.761C476.105 124.731 476.045 124.746 475.955 124.806C475.895 124.866 475.835 124.926 475.775 124.986C474.005 126.666 472.205 127.506 470.375 127.506C468.725 127.506 467.27 126.906 466.01 125.706C464.75 124.506 464.12 122.601 464.12 119.991ZM478.43 112.296C478.43 112.116 478.355 111.786 478.205 111.306C478.055 110.826 477.71 110.301 477.17 109.731C476.63 109.161 475.94 108.861 475.1 108.831C474.05 108.831 473.045 109.296 472.085 110.226C471.125 111.156 470.375 112.371 469.835 113.871C468.965 116.241 468.35 118.701 467.99 121.251C467.99 121.341 467.99 121.506 467.99 121.746C467.99 121.986 467.975 122.166 467.945 122.286C467.945 123.636 468.215 124.566 468.755 125.076C469.295 125.586 469.94 125.856 470.69 125.886C471.83 125.886 472.955 125.391 474.065 124.401C475.175 123.411 475.835 122.646 476.045 122.106C476.105 121.986 476.51 120.381 477.26 117.291C478.01 114.201 478.4 112.536 478.43 112.296Z" fill="white"/>
</g>
<g id="Group_8">
<g id="Group_9">
<g id="Group_10">
<path id="Vector_7" d="M528.11 97.941C528.11 97.641 528.17 97.296 528.29 96.906C528.41 96.516 528.59 96.321 528.83 96.321C528.86 96.321 529.94 96.246 532.07 96.096C534.2 95.946 535.295 95.856 535.355 95.826C535.715 95.826 535.895 95.961 535.895 96.231C535.895 96.501 535.385 98.646 534.365 102.666C534.125 103.686 533.87 104.736 533.6 105.816C533.33 106.896 533.105 107.706 532.925 108.246L532.745 109.101C532.745 109.191 532.835 109.146 533.015 108.966C534.485 107.766 536 107.166 537.56 107.166C539.42 107.166 540.92 107.856 542.06 109.236C543.2 110.616 543.785 112.356 543.815 114.456C543.815 117.786 542.63 120.801 540.26 123.501C537.89 126.201 535.34 127.551 532.61 127.551C531.11 127.551 529.745 126.981 528.515 125.841C527.285 124.701 526.655 122.856 526.625 120.306V119.901C526.625 119.271 526.745 118.401 526.985 117.291C527.225 116.181 527.96 113.226 529.19 108.426C530.69 102.516 531.44 99.381 531.44 99.021C531.44 98.661 530.87 98.451 529.73 98.391C529.58 98.391 529.46 98.391 529.37 98.391H529.145C528.845 98.391 528.65 98.391 528.56 98.391C528.47 98.391 528.365 98.346 528.245 98.256C528.125 98.166 528.08 98.061 528.11 97.941ZM539.945 112.431V112.161C539.945 109.941 539.03 108.831 537.2 108.831C536.69 108.831 536.165 108.951 535.625 109.191C535.085 109.431 534.59 109.746 534.14 110.136C533.69 110.526 533.3 110.886 532.97 111.216C532.64 111.546 532.37 111.876 532.16 112.206L531.89 112.566L530.945 116.436C530.285 119.016 529.955 120.846 529.955 121.926C529.955 123.366 530.315 124.446 531.035 125.166C531.515 125.646 532.115 125.886 532.835 125.886C533.825 125.886 534.83 125.406 535.85 124.446C536.6 123.756 537.2 122.916 537.65 121.926C538.1 120.936 538.595 119.361 539.135 117.201C539.675 115.041 539.945 113.451 539.945 112.431Z" fill="white"/>
</g>
<g id="Group_11">
<path id="Vector_8" d="M564.434 114.186C564.044 110.166 563.849 107.916 563.849 107.436C563.849 106.896 564.209 106.476 564.929 106.176C564.959 106.176 565.034 106.176 565.154 106.176C565.274 106.176 565.364 106.161 565.424 106.131C565.784 106.161 566.114 106.296 566.414 106.536C566.714 106.776 566.864 107.076 566.864 107.436C566.864 107.946 566.774 109.146 566.594 111.036C566.414 112.926 566.309 113.976 566.279 114.186L568.889 112.296C570.569 111.066 571.484 110.406 571.634 110.316C571.784 110.226 571.934 110.181 572.084 110.181C572.474 110.181 572.834 110.331 573.164 110.631C573.494 110.931 573.674 111.336 573.704 111.846C573.704 112.236 573.554 112.581 573.254 112.881C573.104 112.971 572.084 113.466 570.194 114.366C568.304 115.266 567.284 115.746 567.134 115.806L570.104 117.201L573.254 118.776C573.524 119.046 573.659 119.391 573.659 119.811C573.659 120.261 573.524 120.636 573.254 120.936C572.984 121.236 572.624 121.401 572.174 121.431C571.934 121.431 571.664 121.341 571.364 121.161C571.064 120.981 570.239 120.381 568.889 119.361L566.279 117.471C566.669 121.491 566.864 123.741 566.864 124.221C566.864 124.521 566.759 124.806 566.549 125.076C566.339 125.346 565.949 125.481 565.379 125.481C564.809 125.481 564.419 125.346 564.209 125.076C563.999 124.806 563.879 124.521 563.849 124.221C563.849 123.711 563.939 122.511 564.119 120.621C564.299 118.731 564.404 117.681 564.434 117.471L561.824 119.361C560.144 120.591 559.229 121.251 559.079 121.341C558.959 121.431 558.809 121.476 558.629 121.476C558.239 121.476 557.879 121.326 557.549 121.026C557.219 120.726 557.039 120.321 557.009 119.811C557.009 119.661 557.009 119.541 557.009 119.451C557.009 119.361 557.054 119.271 557.144 119.181C557.234 119.091 557.309 119.001 557.369 118.911C557.429 118.821 557.564 118.716 557.774 118.596C557.984 118.476 558.179 118.371 558.359 118.281C558.539 118.191 558.824 118.056 559.214 117.876C559.604 117.696 559.979 117.531 560.339 117.381C560.699 117.231 561.179 117.006 561.779 116.706C562.379 116.406 562.979 116.106 563.579 115.806L557.459 112.881C557.189 112.611 557.054 112.266 557.054 111.846C557.054 111.396 557.189 111.021 557.459 110.721C557.729 110.421 558.089 110.256 558.539 110.226C558.779 110.226 559.049 110.316 559.349 110.496C559.649 110.676 560.474 111.276 561.824 112.296L564.434 114.186Z" fill="white"/>
</g>
<g id="Group_12">
<path id="Vector_9" d="M588.113 119.991C588.113 116.961 589.253 114.081 591.533 111.351C593.813 108.621 596.378 107.241 599.228 107.211C600.758 107.211 602.108 107.946 603.278 109.416C603.758 108.516 604.448 108.066 605.348 108.066C605.738 108.066 606.083 108.186 606.383 108.426C606.683 108.666 606.833 108.966 606.833 109.326C606.833 109.716 606.278 112.116 605.168 116.526C604.058 120.936 603.488 123.426 603.458 123.996C603.458 124.746 603.563 125.241 603.773 125.481C603.983 125.721 604.298 125.856 604.718 125.886C604.988 125.856 605.288 125.721 605.618 125.481C606.248 124.881 606.863 123.441 607.463 121.161C607.643 120.561 607.793 120.246 607.913 120.216C607.973 120.186 608.123 120.171 608.363 120.171H608.543C609.113 120.171 609.398 120.306 609.398 120.576C609.398 120.756 609.323 121.161 609.173 121.791C609.023 122.421 608.723 123.231 608.273 124.221C607.823 125.211 607.343 125.961 606.833 126.471C606.443 126.861 605.963 127.176 605.393 127.416C605.153 127.476 604.793 127.506 604.313 127.506C603.293 127.506 602.438 127.281 601.748 126.831C601.058 126.381 600.608 125.916 600.398 125.436L600.128 124.761C600.098 124.731 600.038 124.746 599.948 124.806C599.888 124.866 599.828 124.926 599.768 124.986C597.998 126.666 596.198 127.506 594.368 127.506C592.718 127.506 591.263 126.906 590.003 125.706C588.743 124.506 588.113 122.601 588.113 119.991ZM602.423 112.296C602.423 112.116 602.348 111.786 602.198 111.306C602.048 110.826 601.703 110.301 601.163 109.731C600.623 109.161 599.933 108.861 599.093 108.831C598.043 108.831 597.038 109.296 596.078 110.226C595.118 111.156 594.368 112.371 593.828 113.871C592.958 116.241 592.343 118.701 591.983 121.251C591.983 121.341 591.983 121.506 591.983 121.746C591.983 121.986 591.968 122.166 591.938 122.286C591.938 123.636 592.208 124.566 592.748 125.076C593.288 125.586 593.933 125.856 594.683 125.886C595.823 125.886 596.948 125.391 598.058 124.401C599.168 123.411 599.828 122.646 600.038 122.106C600.098 121.986 600.503 120.381 601.253 117.291C602.003 114.201 602.393 112.536 602.423 112.296Z" fill="white"/>
</g>
</g>
<g id="Group_13">
<path id="Vector_10" d="M490.715 111.99C490.535 111.99 490.325 111.87 490.085 111.63C489.845 111.39 489.71 111.18 489.68 111C489.65 110.82 490.115 110.37 491.075 109.65C492.035 108.93 493.025 108.18 494.045 107.4C495.065 106.62 495.635 106.185 495.755 106.095C495.815 106.035 495.89 106.005 495.98 106.005H496.025C496.205 106.005 496.415 106.26 496.655 106.77C496.895 107.28 497.705 109.035 499.085 112.035C499.655 113.325 500.12 114.36 500.48 115.14L504.305 123.465C504.335 123.465 505.895 120.27 508.985 113.88C512.075 107.49 515.165 101.055 518.255 94.575C521.345 88.095 522.95 84.78 523.07 84.63C523.25 84.21 523.55 84 523.97 84C524.18 84 524.36 84.09 524.51 84.27C524.66 84.45 524.765 84.63 524.825 84.81V85.08L514.34 106.815L503.765 128.685C503.645 128.895 503.36 129 502.91 129C502.64 129 502.46 128.955 502.37 128.865C502.31 128.805 500.84 125.625 497.96 119.325L493.64 109.875L492.92 110.37C492.47 110.73 492.005 111.09 491.525 111.45C491.045 111.81 490.775 111.99 490.715 111.99Z" fill="white"/>
</g>
<path id="Vector_11" d="M610.433 86.7002H524.825V84.0002H610.433V86.7002Z" fill="white"/>
</g>
</g>
</g>
<g id="claves01">
<path id="Rectangle 4" d="M39 303H255.745L289 343L255.745 383H39V303Z" fill="#CD08D1" fill-opacity="0.1"/>
<path id="Rectangle 4 (Stroke)" fill-rule="evenodd" clip-rule="evenodd" d="M254.338 306H42V380H254.338L285.099 343L254.338 306ZM255.745 303H39V383H255.745L289 343L255.745 303Z" fill="#CD08D1"/>
<path id="Rectangle 5" d="M43 413H259.745L293 453L259.745 493H43V413Z" fill="#CD08D1" fill-opacity="0.1"/>
<path id="Rectangle 5 (Stroke)" fill-rule="evenodd" clip-rule="evenodd" d="M258.338 416H46V490H258.338L289.099 453L258.338 416ZM259.745 413H43V493H259.745L293 453L259.745 413Z" fill="#CD08D1"/>
<path id="Rectangle 6" d="M379 300H595.745L629 340L595.745 380H379V300Z" fill="#CD08D1" fill-opacity="0.1"/>
<path id="Rectangle 6 (Stroke)" fill-rule="evenodd" clip-rule="evenodd" d="M594.338 303H382V377H594.338L625.099 340L594.338 303ZM595.745 300H379V380H595.745L629 340L595.745 300Z" fill="#CD08D1"/>
<path id="Rectangle 7" d="M382 410H598.745L632 450L598.745 490H382V410Z" fill="#CD08D1" fill-opacity="0.1"/>
<path id="Rectangle 7 (Stroke)" fill-rule="evenodd" clip-rule="evenodd" d="M597.338 413H385V487H597.338L628.099 450L597.338 413ZM598.745 410H382V490H598.745L632 450L598.745 410Z" fill="#CD08D1"/>
<path id="Rectangle 8" d="M725 359H941.745L975 399L941.745 439H725V359Z" fill="#CD08D1" fill-opacity="0.1"/>
<path id="Rectangle 8 (Stroke)" fill-rule="evenodd" clip-rule="evenodd" d="M940.338 362H728V436H940.338L971.099 399L940.338 362ZM941.745 359H725V439H941.745L975 399L941.745 359Z" fill="#CD08D1"/>
<path id="Ellipse 1" d="M80 343C80 365.091 62.0914 383 40 383C17.9086 383 0 365.091 0 343C0 320.909 17.9086 303 40 303C62.0914 303 80 320.909 80 343Z" fill="#CD08D1"/>
<path id="Ellipse 2" d="M84 453C84 475.091 66.0914 493 44 493C21.9086 493 4 475.091 4 453C4 430.909 21.9086 413 44 413C66.0914 413 84 430.909 84 453Z" fill="#CD08D1"/>
<path id="Ellipse 3" d="M420 340C420 362.091 402.091 380 380 380C357.909 380 340 362.091 340 340C340 317.909 357.909 300 380 300C402.091 300 420 317.909 420 340Z" fill="#CD08D1"/>
<path id="Ellipse 4" d="M423 450C423 472.091 405.091 490 383 490C360.909 490 343 472.091 343 450C343 427.909 360.909 410 383 410C405.091 410 423 427.909 423 450Z" fill="#CD08D1"/>
<path id="Ellipse 5" d="M766 399C766 421.091 748.091 439 726 439C703.909 439 686 421.091 686 399C686 376.909 703.909 359 726 359C748.091 359 766 376.909 766 399Z" fill="#CD08D1"/>
<path id="A" d="M48.0938 353.406H30.4688L26.7812 364H18.5625L35.75 318.5H42.8438L60.0625 364H51.8125L48.0938 353.406ZM32.6875 347.031H45.875L39.2812 328.156L32.6875 347.031Z" fill="white"/>
<path id="B" d="M27.625 469V423.5H43.2188C48.3646 423.5 52.2812 424.531 54.9688 426.594C57.6562 428.656 59 431.729 59 435.812C59 437.896 58.4375 439.771 57.3125 441.438C56.1875 443.104 54.5417 444.396 52.375 445.312C54.8333 445.979 56.7292 447.24 58.0625 449.094C59.4167 450.927 60.0938 453.135 60.0938 455.719C60.0938 459.99 58.7188 463.271 55.9688 465.562C53.2396 467.854 49.3229 469 44.2188 469H27.625ZM35.5312 448.469V462.688H44.3125C46.7917 462.688 48.7292 462.073 50.125 460.844C51.5208 459.615 52.2188 457.906 52.2188 455.719C52.2188 450.99 49.8021 448.573 44.9688 448.469H35.5312ZM35.5312 442.656H43.2812C45.7396 442.656 47.6562 442.104 49.0312 441C50.4271 439.875 51.125 438.292 51.125 436.25C51.125 434 50.4792 432.375 49.1875 431.375C47.9167 430.375 45.9271 429.875 43.2188 429.875H35.5312V442.656Z" fill="white"/>
<path id="C" d="M397.344 347.188C396.885 352.042 395.094 355.833 391.969 358.562C388.844 361.271 384.688 362.625 379.5 362.625C375.875 362.625 372.677 361.771 369.906 360.062C367.156 358.333 365.031 355.885 363.531 352.719C362.031 349.552 361.25 345.875 361.188 341.688V337.438C361.188 333.146 361.948 329.365 363.469 326.094C364.99 322.823 367.167 320.302 370 318.531C372.854 316.76 376.146 315.875 379.875 315.875C384.896 315.875 388.938 317.24 392 319.969C395.062 322.698 396.844 326.552 397.344 331.531H389.469C389.094 328.26 388.135 325.906 386.594 324.469C385.073 323.01 382.833 322.281 379.875 322.281C376.438 322.281 373.792 323.542 371.938 326.062C370.104 328.562 369.167 332.24 369.125 337.094V341.125C369.125 346.042 370 349.792 371.75 352.375C373.521 354.958 376.104 356.25 379.5 356.25C382.604 356.25 384.938 355.552 386.5 354.156C388.062 352.76 389.052 350.438 389.469 347.188H397.344Z" fill="white"/>
<path id="D" d="M365.625 472V426.5H379.062C383.083 426.5 386.646 427.396 389.75 429.188C392.875 430.979 395.292 433.521 397 436.812C398.708 440.104 399.562 443.875 399.562 448.125V450.406C399.562 454.719 398.698 458.51 396.969 461.781C395.26 465.052 392.812 467.573 389.625 469.344C386.458 471.115 382.823 472 378.719 472H365.625ZM373.531 432.875V465.688H378.688C382.833 465.688 386.01 464.396 388.219 461.812C390.448 459.208 391.583 455.479 391.625 450.625V448.094C391.625 443.156 390.552 439.385 388.406 436.781C386.26 434.177 383.146 432.875 379.062 432.875H373.531Z" fill="white"/>
<path id="E" d="M735.219 400.688H716.531V414.688H738.375V421H708.625V375.5H738.156V381.875H716.531V394.438H735.219V400.688Z" fill="white"/>
<g id="24">
<path d="M169.195 366H146.836V362.883L158.648 349.758C160.398 347.773 161.602 346.164 162.258 344.93C162.93 343.68 163.266 342.391 163.266 341.062C163.266 339.281 162.727 337.82 161.648 336.68C160.57 335.539 159.133 334.969 157.336 334.969C155.18 334.969 153.5 335.586 152.297 336.82C151.109 338.039 150.516 339.742 150.516 341.93H146.18C146.18 338.789 147.188 336.25 149.203 334.312C151.234 332.375 153.945 331.406 157.336 331.406C160.508 331.406 163.016 332.242 164.859 333.914C166.703 335.57 167.625 337.781 167.625 340.547C167.625 343.906 165.484 347.906 161.203 352.547L152.062 362.461H169.195V366Z" fill="#CD08D1"/>
<path d="M192.094 354.539H196.828V358.078H192.094V366H187.734V358.078H172.195V355.523L187.477 331.875H192.094V354.539ZM177.117 354.539H187.734V337.805L187.219 338.742L177.117 354.539Z" fill="#CD08D1"/>
</g>
<g id="81">
<path d="M167.531 450.781C167.531 452.484 167.078 454 166.172 455.328C165.281 456.656 164.07 457.695 162.539 458.445C164.32 459.211 165.727 460.328 166.758 461.797C167.805 463.266 168.328 464.93 168.328 466.789C168.328 469.742 167.328 472.094 165.328 473.844C163.344 475.594 160.727 476.469 157.477 476.469C154.195 476.469 151.562 475.594 149.578 473.844C147.609 472.078 146.625 469.727 146.625 466.789C146.625 464.945 147.125 463.281 148.125 461.797C149.141 460.312 150.539 459.188 152.32 458.422C150.805 457.672 149.609 456.633 148.734 455.305C147.859 453.977 147.422 452.469 147.422 450.781C147.422 447.906 148.344 445.625 150.188 443.938C152.031 442.25 154.461 441.406 157.477 441.406C160.477 441.406 162.898 442.25 164.742 443.938C166.602 445.625 167.531 447.906 167.531 450.781ZM163.992 466.695C163.992 464.789 163.383 463.234 162.164 462.031C160.961 460.828 159.383 460.227 157.43 460.227C155.477 460.227 153.906 460.82 152.719 462.008C151.547 463.195 150.961 464.758 150.961 466.695C150.961 468.633 151.531 470.156 152.672 471.266C153.828 472.375 155.43 472.93 157.477 472.93C159.508 472.93 161.102 472.375 162.258 471.266C163.414 470.141 163.992 468.617 163.992 466.695ZM157.477 444.969C155.773 444.969 154.391 445.5 153.328 446.562C152.281 447.609 151.758 449.039 151.758 450.852C151.758 452.586 152.273 453.992 153.305 455.07C154.352 456.133 155.742 456.664 157.477 456.664C159.211 456.664 160.594 456.133 161.625 455.07C162.672 453.992 163.195 452.586 163.195 450.852C163.195 449.117 162.656 447.703 161.578 446.609C160.5 445.516 159.133 444.969 157.477 444.969Z" fill="#CD08D1"/>
<path d="M188.039 476H183.68V447.102L174.938 450.312V446.375L187.359 441.711H188.039V476Z" fill="#CD08D1"/>
</g>
<g id="48">
<path d="M497.141 464.539H501.875V468.078H497.141V476H492.781V468.078H477.242V465.523L492.523 441.875H497.141V464.539ZM482.164 464.539H492.781V447.805L492.266 448.742L482.164 464.539Z" fill="#CD08D1"/>
<path d="M526.484 450.781C526.484 452.484 526.031 454 525.125 455.328C524.234 456.656 523.023 457.695 521.492 458.445C523.273 459.211 524.68 460.328 525.711 461.797C526.758 463.266 527.281 464.93 527.281 466.789C527.281 469.742 526.281 472.094 524.281 473.844C522.297 475.594 519.68 476.469 516.43 476.469C513.148 476.469 510.516 475.594 508.531 473.844C506.562 472.078 505.578 469.727 505.578 466.789C505.578 464.945 506.078 463.281 507.078 461.797C508.094 460.312 509.492 459.188 511.273 458.422C509.758 457.672 508.562 456.633 507.688 455.305C506.812 453.977 506.375 452.469 506.375 450.781C506.375 447.906 507.297 445.625 509.141 443.938C510.984 442.25 513.414 441.406 516.43 441.406C519.43 441.406 521.852 442.25 523.695 443.938C525.555 445.625 526.484 447.906 526.484 450.781ZM522.945 466.695C522.945 464.789 522.336 463.234 521.117 462.031C519.914 460.828 518.336 460.227 516.383 460.227C514.43 460.227 512.859 460.82 511.672 462.008C510.5 463.195 509.914 464.758 509.914 466.695C509.914 468.633 510.484 470.156 511.625 471.266C512.781 472.375 514.383 472.93 516.43 472.93C518.461 472.93 520.055 472.375 521.211 471.266C522.367 470.141 522.945 468.617 522.945 466.695ZM516.43 444.969C514.727 444.969 513.344 445.5 512.281 446.562C511.234 447.609 510.711 449.039 510.711 450.852C510.711 452.586 511.227 453.992 512.258 455.07C513.305 456.133 514.695 456.664 516.43 456.664C518.164 456.664 519.547 456.133 520.578 455.07C521.625 453.992 522.148 452.586 522.148 450.852C522.148 449.117 521.609 447.703 520.531 446.609C519.453 445.516 518.086 444.969 516.43 444.969Z" fill="#CD08D1"/>
</g>
<g id="19">
<path d="M852.867 387.312L838.734 419H834.188L848.273 388.438H829.805V384.875H852.867V387.312Z" fill="#CD08D1"/>
<path d="M880.148 419H857.789V415.883L869.602 402.758C871.352 400.773 872.555 399.164 873.211 397.93C873.883 396.68 874.219 395.391 874.219 394.062C874.219 392.281 873.68 390.82 872.602 389.68C871.523 388.539 870.086 387.969 868.289 387.969C866.133 387.969 864.453 388.586 863.25 389.82C862.062 391.039 861.469 392.742 861.469 394.93H857.133C857.133 391.789 858.141 389.25 860.156 387.312C862.188 385.375 864.898 384.406 868.289 384.406C871.461 384.406 873.969 385.242 875.812 386.914C877.656 388.57 878.578 390.781 878.578 393.547C878.578 396.906 876.438 400.906 872.156 405.547L863.016 415.461H880.148V419Z" fill="#CD08D1"/>
</g>
<g id="17">
<path d="M485.141 342.828H488.398C490.445 342.797 492.055 342.258 493.227 341.211C494.398 340.164 494.984 338.75 494.984 336.969C494.984 332.969 492.992 330.969 489.008 330.969C487.133 330.969 485.633 331.508 484.508 332.586C483.398 333.648 482.844 335.062 482.844 336.828H478.508C478.508 334.125 479.492 331.883 481.461 330.102C483.445 328.305 485.961 327.406 489.008 327.406C492.227 327.406 494.75 328.258 496.578 329.961C498.406 331.664 499.32 334.031 499.32 337.062C499.32 338.547 498.836 339.984 497.867 341.375C496.914 342.766 495.609 343.805 493.953 344.492C495.828 345.086 497.273 346.07 498.289 347.445C499.32 348.82 499.836 350.5 499.836 352.484C499.836 355.547 498.836 357.977 496.836 359.773C494.836 361.57 492.234 362.469 489.031 362.469C485.828 362.469 483.219 361.602 481.203 359.867C479.203 358.133 478.203 355.844 478.203 353H482.562C482.562 354.797 483.148 356.234 484.32 357.312C485.492 358.391 487.062 358.93 489.031 358.93C491.125 358.93 492.727 358.383 493.836 357.289C494.945 356.195 495.5 354.625 495.5 352.578C495.5 350.594 494.891 349.07 493.672 348.008C492.453 346.945 490.695 346.398 488.398 346.367H485.141V342.828Z" fill="#CD08D1"/>
<path d="M522.805 327.852V331.531H522.008C518.633 331.594 515.945 332.594 513.945 334.531C511.945 336.469 510.789 339.195 510.477 342.711C512.273 340.648 514.727 339.617 517.836 339.617C520.805 339.617 523.172 340.664 524.938 342.758C526.719 344.852 527.609 347.555 527.609 350.867C527.609 354.383 526.648 357.195 524.727 359.305C522.82 361.414 520.258 362.469 517.039 362.469C513.773 362.469 511.125 361.219 509.094 358.719C507.062 356.203 506.047 352.969 506.047 349.016V347.352C506.047 341.07 507.383 336.273 510.055 332.961C512.742 329.633 516.734 327.93 522.031 327.852H522.805ZM517.109 343.227C515.625 343.227 514.258 343.672 513.008 344.562C511.758 345.453 510.891 346.57 510.406 347.914V349.508C510.406 352.32 511.039 354.586 512.305 356.305C513.57 358.023 515.148 358.883 517.039 358.883C518.992 358.883 520.523 358.164 521.633 356.727C522.758 355.289 523.32 353.406 523.32 351.078C523.32 348.734 522.75 346.844 521.609 345.406C520.484 343.953 518.984 343.227 517.109 343.227Z" fill="#CD08D1"/>
</g>
<g id="flecha">
<path id="Rectangle 2" d="M389.2 305.008L404.482 313.133L362.5 392.089L347.219 383.963L389.2 305.008Z" fill="#1043F5"/>
<path id="Rectangle 1_2" d="M331 317.904L421 268V325.692L376 308.096L331 317.904Z" fill="#1043F5"/>
<path id="Rectangle 3" d="M335.038 387.209L350.666 360.142L367.936 359.564L352.309 386.631L335.038 387.209Z" fill="#1043F5"/>
<path id="Rectangle 4_2" d="M361.089 401.845L376.717 374.778L367.926 359.154L352.299 386.221L361.089 401.845Z" fill="#1043F5"/>
</g>
</g>
</g>
</svg>
