<svg viewBox="0 0 985 636" fill="none" xmlns="http://www.w3.org/2000/svg">
<g id="0118118">
<g id="Group 8">
<path id="Rectangle 1" d="M60 55.1256C60 26.404 81.3794 3.12061 107.752 3.12061H931V362.995C931 391.717 909.62 415 883.247 415H60V55.1256Z" fill="#02071A"/>
<path id="Rectangle 1 (Stroke)" fill-rule="evenodd" clip-rule="evenodd" d="M926.224 8.32111H107.752C84.0167 8.32111 64.7752 29.2762 64.7752 55.1256V409.8H883.247C906.983 409.8 926.224 388.845 926.224 362.995V8.32111ZM107.752 3.12061C81.3794 3.12061 60 26.404 60 55.1256V415H883.247C909.62 415 931 391.717 931 362.995V3.12061H107.752Z" fill="#CD08D1"/>
<path id="Rectangle 14" d="M111.716 3.19562C137.256 -3.99453 931 3.19562 931 3.19562V34.3233C931 34.3233 98.2017 22.8822 68.5953 34.3233C77.8074 17.8136 86.1754 10.3858 111.716 3.19562Z" fill="#CD08D1"/>
<path id="Rectangle 15" d="M902.349 3.12061H931V364.035C927.483 388.528 920.194 397.53 902.349 409.28C907.601 390.038 902.349 3.12061 902.349 3.12061Z" fill="#CD08D1"/>
</g>
<g id="claves01">
<path id="Rectangle 4" d="M49 446H265.745L299 486L265.745 526H49V446Z" fill="#CD08D1" fill-opacity="0.1"/>
<path id="Rectangle 4 (Stroke)" fill-rule="evenodd" clip-rule="evenodd" d="M264.338 449H52V523H264.338L295.099 486L264.338 449ZM265.745 446H49V526H265.745L299 486L265.745 446Z" fill="#CD08D1"/>
<path id="Rectangle 5" d="M53 556H269.745L303 596L269.745 636H53V556Z" fill="#CD08D1" fill-opacity="0.1"/>
<path id="Rectangle 5 (Stroke)" fill-rule="evenodd" clip-rule="evenodd" d="M268.338 559H56V633H268.338L299.099 596L268.338 559ZM269.745 556H53V636H269.745L303 596L269.745 556Z" fill="#CD08D1"/>
<path id="Rectangle 6" d="M389 443H605.745L639 483L605.745 523H389V443Z" fill="#CD08D1" fill-opacity="0.1"/>
<path id="Rectangle 6 (Stroke)" fill-rule="evenodd" clip-rule="evenodd" d="M604.338 446H392V520H604.338L635.099 483L604.338 446ZM605.745 443H389V523H605.745L639 483L605.745 443Z" fill="#CD08D1"/>
<path id="Rectangle 7" d="M392 553H608.745L642 593L608.745 633H392V553Z" fill="#CD08D1" fill-opacity="0.1"/>
<path id="Rectangle 7 (Stroke)" fill-rule="evenodd" clip-rule="evenodd" d="M607.338 556H395V630H607.338L638.099 593L607.338 556ZM608.745 553H392V633H608.745L642 593L608.745 553Z" fill="#CD08D1"/>
<path id="Rectangle 8" d="M735 502H951.745L985 542L951.745 582H735V502Z" fill="#CD08D1" fill-opacity="0.1"/>
<path id="Rectangle 8 (Stroke)" fill-rule="evenodd" clip-rule="evenodd" d="M950.338 505H738V579H950.338L981.099 542L950.338 505ZM951.745 502H735V582H951.745L985 542L951.745 502Z" fill="#CD08D1"/>
<path id="Ellipse 1" d="M90 486C90 508.091 72.0914 526 50 526C27.9086 526 10 508.091 10 486C10 463.909 27.9086 446 50 446C72.0914 446 90 463.909 90 486Z" fill="#CD08D1"/>
<path id="Ellipse 2" d="M94 596C94 618.091 76.0914 636 54 636C31.9086 636 14 618.091 14 596C14 573.909 31.9086 556 54 556C76.0914 556 94 573.909 94 596Z" fill="#CD08D1"/>
<path id="Ellipse 3" d="M430 483C430 505.091 412.091 523 390 523C367.909 523 350 505.091 350 483C350 460.909 367.909 443 390 443C412.091 443 430 460.909 430 483Z" fill="#CD08D1"/>
<path id="Ellipse 4" d="M433 593C433 615.091 415.091 633 393 633C370.909 633 353 615.091 353 593C353 570.909 370.909 553 393 553C415.091 553 433 570.909 433 593Z" fill="#CD08D1"/>
<path id="Ellipse 5" d="M776 542C776 564.091 758.091 582 736 582C713.909 582 696 564.091 696 542C696 519.909 713.909 502 736 502C758.091 502 776 519.909 776 542Z" fill="#CD08D1"/>
<path id="A" d="M58.0938 496.406H40.4688L36.7812 507H28.5625L45.75 461.5H52.8438L70.0625 507H61.8125L58.0938 496.406ZM42.6875 490.031H55.875L49.2812 471.156L42.6875 490.031Z" fill="white"/>
<path id="B" d="M37.625 612V566.5H53.2188C58.3646 566.5 62.2812 567.531 64.9688 569.594C67.6562 571.656 69 574.729 69 578.812C69 580.896 68.4375 582.771 67.3125 584.438C66.1875 586.104 64.5417 587.396 62.375 588.312C64.8333 588.979 66.7292 590.24 68.0625 592.094C69.4167 593.927 70.0938 596.135 70.0938 598.719C70.0938 602.99 68.7188 606.271 65.9688 608.562C63.2396 610.854 59.3229 612 54.2188 612H37.625ZM45.5312 591.469V605.688H54.3125C56.7917 605.688 58.7292 605.073 60.125 603.844C61.5208 602.615 62.2188 600.906 62.2188 598.719C62.2188 593.99 59.8021 591.573 54.9688 591.469H45.5312ZM45.5312 585.656H53.2812C55.7396 585.656 57.6562 585.104 59.0312 584C60.4271 582.875 61.125 581.292 61.125 579.25C61.125 577 60.4792 575.375 59.1875 574.375C57.9167 573.375 55.9271 572.875 53.2188 572.875H45.5312V585.656Z" fill="white"/>
<path id="C" d="M407.344 490.188C406.885 495.042 405.094 498.833 401.969 501.562C398.844 504.271 394.688 505.625 389.5 505.625C385.875 505.625 382.677 504.771 379.906 503.062C377.156 501.333 375.031 498.885 373.531 495.719C372.031 492.552 371.25 488.875 371.188 484.688V480.438C371.188 476.146 371.948 472.365 373.469 469.094C374.99 465.823 377.167 463.302 380 461.531C382.854 459.76 386.146 458.875 389.875 458.875C394.896 458.875 398.938 460.24 402 462.969C405.062 465.698 406.844 469.552 407.344 474.531H399.469C399.094 471.26 398.135 468.906 396.594 467.469C395.073 466.01 392.833 465.281 389.875 465.281C386.438 465.281 383.792 466.542 381.938 469.062C380.104 471.562 379.167 475.24 379.125 480.094V484.125C379.125 489.042 380 492.792 381.75 495.375C383.521 497.958 386.104 499.25 389.5 499.25C392.604 499.25 394.938 498.552 396.5 497.156C398.062 495.76 399.052 493.438 399.469 490.188H407.344Z" fill="white"/>
<path id="D" d="M375.625 615V569.5H389.062C393.083 569.5 396.646 570.396 399.75 572.188C402.875 573.979 405.292 576.521 407 579.812C408.708 583.104 409.562 586.875 409.562 591.125V593.406C409.562 597.719 408.698 601.51 406.969 604.781C405.26 608.052 402.812 610.573 399.625 612.344C396.458 614.115 392.823 615 388.719 615H375.625ZM383.531 575.875V608.688H388.688C392.833 608.688 396.01 607.396 398.219 604.812C400.448 602.208 401.583 598.479 401.625 593.625V591.094C401.625 586.156 400.552 582.385 398.406 579.781C396.26 577.177 393.146 575.875 389.062 575.875H383.531Z" fill="white"/>
<path id="E" d="M745.219 543.688H726.531V557.688H748.375V564H718.625V518.5H748.156V524.875H726.531V537.438H745.219V543.688Z" fill="white"/>
<path id="1" d="M181.729 500H176.767V476.026L169.445 478.528V474.324L181.094 470.038H181.729V500Z" fill="#CD08D1"/>
<path id="2" d="M174.312 609H154.235V605.575L164.182 594.727C165.617 593.127 166.636 591.794 167.237 590.728C167.853 589.647 168.16 588.567 168.16 587.487C168.16 586.065 167.757 584.917 166.95 584.042C166.157 583.167 165.084 582.729 163.73 582.729C162.117 582.729 160.866 583.222 159.978 584.206C159.089 585.19 158.645 586.537 158.645 588.246H153.661C153.661 586.428 154.071 584.794 154.892 583.345C155.726 581.882 156.908 580.747 158.439 579.94C159.984 579.134 161.762 578.73 163.771 578.73C166.67 578.73 168.953 579.462 170.621 580.925C172.303 582.374 173.144 584.384 173.144 586.954C173.144 588.444 172.72 590.01 171.872 591.65C171.038 593.277 169.664 595.13 167.75 597.208L160.449 605.021H174.312V609Z" fill="#CD08D1"/>
<path id="3" d="M493.998 478.794H497.033C498.564 478.78 499.774 478.384 500.663 477.604C501.565 476.825 502.017 475.697 502.017 474.221C502.017 472.799 501.641 471.698 500.889 470.919C500.15 470.126 499.016 469.729 497.484 469.729C496.145 469.729 495.044 470.119 494.183 470.898C493.321 471.664 492.891 472.669 492.891 473.913H487.907C487.907 472.382 488.311 470.987 489.117 469.729C489.938 468.472 491.072 467.494 492.521 466.797C493.984 466.086 495.618 465.73 497.423 465.73C500.403 465.73 502.741 466.482 504.437 467.986C506.146 469.477 507 471.555 507 474.221C507 475.561 506.569 476.825 505.708 478.015C504.86 479.19 503.76 480.079 502.406 480.681C504.047 481.241 505.291 482.123 506.139 483.326C507 484.529 507.431 485.965 507.431 487.633C507.431 490.312 506.508 492.445 504.662 494.031C502.83 495.617 500.417 496.41 497.423 496.41C494.552 496.41 492.2 495.645 490.368 494.113C488.536 492.582 487.62 490.545 487.62 488.002H492.604C492.604 489.314 493.041 490.381 493.916 491.201C494.805 492.021 495.994 492.432 497.484 492.432C499.029 492.432 500.246 492.021 501.135 491.201C502.023 490.381 502.468 489.191 502.468 487.633C502.468 486.061 502.003 484.851 501.073 484.003C500.144 483.155 498.763 482.731 496.931 482.731H493.998V478.794Z" fill="#CD08D1"/>
<path id="5" d="M840.568 547.193L842.188 532.141H858.226V536.447H846.331L845.511 543.584C846.892 542.791 848.45 542.395 850.187 542.395C853.03 542.395 855.238 543.304 856.811 545.122C858.396 546.94 859.189 549.388 859.189 552.464C859.189 555.499 858.314 557.919 856.564 559.724C854.814 561.515 852.415 562.41 849.366 562.41C846.632 562.41 844.362 561.638 842.558 560.093C840.767 558.534 839.796 556.483 839.646 553.94H844.465C844.656 555.39 845.176 556.504 846.023 557.283C846.871 558.049 847.979 558.432 849.346 558.432C850.877 558.432 852.066 557.885 852.914 556.791C853.775 555.697 854.206 554.207 854.206 552.32C854.206 550.502 853.734 549.066 852.791 548.014C851.848 546.947 850.549 546.414 848.895 546.414C847.992 546.414 847.227 546.537 846.598 546.783C845.969 547.016 845.285 547.48 844.547 548.178L840.568 547.193Z" fill="#CD08D1"/>
<path id="4" d="M505.093 592.356H508.805V596.355H505.093V603H500.109V596.355H487.21L487.066 593.32L499.945 573.141H505.093V592.356ZM492.296 592.356H500.109V579.888L499.74 580.544L492.296 592.356Z" fill="#CD08D1"/>
<g id="flecha">
<path id="Rectangle 2" d="M58.2001 452.008L73.4819 460.133L31.5003 539.089L16.2185 530.964L58.2001 452.008Z" fill="#1043F5"/>
<path id="Rectangle 1_2" d="M0 464.904L90 415V472.692L45 455.096L0 464.904Z" fill="#1043F5"/>
<path id="Rectangle 3" d="M4.03845 534.209L19.6656 507.142L36.9362 506.564L21.3091 533.631L4.03845 534.209Z" fill="#1043F5"/>
<path id="Rectangle 4_2" d="M30.0895 548.845L45.7166 521.778L36.9259 506.154L21.2987 533.221L30.0895 548.845Z" fill="#1043F5"/>
</g>
</g>
<g id="Group 132">
<g id="Si: Calcula:">
<path d="M122.34 84.9102V94.0703H121.617C121.383 92.3125 120.96 90.9128 120.348 89.8711C119.749 88.8294 118.889 88.0026 117.77 87.3906C116.65 86.7786 115.491 86.4727 114.293 86.4727C112.939 86.4727 111.819 86.8893 110.934 87.7227C110.048 88.543 109.605 89.4805 109.605 90.5352C109.605 91.3424 109.885 92.0781 110.445 92.7422C111.253 93.7188 113.173 95.0208 116.207 96.6484C118.681 97.9766 120.367 98.9987 121.266 99.7148C122.177 100.418 122.874 101.251 123.355 102.215C123.85 103.178 124.098 104.188 124.098 105.242C124.098 107.247 123.316 108.979 121.754 110.438C120.204 111.883 118.206 112.605 115.758 112.605C114.99 112.605 114.267 112.547 113.59 112.43C113.186 112.365 112.346 112.13 111.07 111.727C109.807 111.31 109.007 111.102 108.668 111.102C108.342 111.102 108.082 111.199 107.887 111.395C107.704 111.59 107.568 111.993 107.477 112.605H106.754V103.523H107.477C107.815 105.424 108.271 106.85 108.844 107.801C109.417 108.738 110.289 109.52 111.461 110.145C112.646 110.77 113.941 111.082 115.348 111.082C116.975 111.082 118.258 110.652 119.195 109.793C120.146 108.934 120.621 107.918 120.621 106.746C120.621 106.095 120.439 105.438 120.074 104.773C119.723 104.109 119.169 103.491 118.414 102.918C117.906 102.527 116.52 101.701 114.254 100.438C111.988 99.1615 110.374 98.1458 109.41 97.3906C108.46 96.6354 107.737 95.8021 107.242 94.8906C106.747 93.9792 106.5 92.9766 106.5 91.8828C106.5 89.9818 107.229 88.3477 108.688 86.9805C110.146 85.6003 112.001 84.9102 114.254 84.9102C115.66 84.9102 117.151 85.2552 118.727 85.9453C119.456 86.2708 119.97 86.4336 120.27 86.4336C120.608 86.4336 120.882 86.3359 121.09 86.1406C121.311 85.9323 121.487 85.5221 121.617 84.9102H122.34Z" fill="white"/>
<path d="M132.066 84.2266C132.613 84.2266 133.076 84.4219 133.453 84.8125C133.844 85.1901 134.039 85.6523 134.039 86.1992C134.039 86.7461 133.844 87.2148 133.453 87.6055C133.076 87.9961 132.613 88.1914 132.066 88.1914C131.52 88.1914 131.051 87.9961 130.66 87.6055C130.27 87.2148 130.074 86.7461 130.074 86.1992C130.074 85.6523 130.263 85.1901 130.641 84.8125C131.031 84.4219 131.507 84.2266 132.066 84.2266ZM133.688 93.582V107.957C133.688 109.077 133.766 109.826 133.922 110.203C134.091 110.568 134.332 110.841 134.645 111.023C134.97 111.206 135.556 111.297 136.402 111.297V112H127.711V111.297C128.583 111.297 129.169 111.212 129.469 111.043C129.768 110.874 130.003 110.594 130.172 110.203C130.354 109.812 130.445 109.064 130.445 107.957V101.062C130.445 99.1224 130.387 97.8659 130.27 97.293C130.178 96.8763 130.035 96.5898 129.84 96.4336C129.645 96.2643 129.378 96.1797 129.039 96.1797C128.674 96.1797 128.232 96.2773 127.711 96.4727L127.438 95.7695L132.828 93.582H133.688Z" fill="white"/>
<path d="M143.043 93.5625C143.642 93.5625 144.15 93.7773 144.566 94.207C144.996 94.6237 145.211 95.1315 145.211 95.7305C145.211 96.3294 144.996 96.8438 144.566 97.2734C144.15 97.6901 143.642 97.8984 143.043 97.8984C142.444 97.8984 141.93 97.6901 141.5 97.2734C141.083 96.8438 140.875 96.3294 140.875 95.7305C140.875 95.1315 141.083 94.6237 141.5 94.207C141.93 93.7773 142.444 93.5625 143.043 93.5625ZM143.004 108.191C143.616 108.191 144.13 108.406 144.547 108.836C144.977 109.266 145.191 109.78 145.191 110.379C145.191 110.978 144.977 111.492 144.547 111.922C144.117 112.339 143.603 112.547 143.004 112.547C142.405 112.547 141.891 112.339 141.461 111.922C141.044 111.492 140.836 110.978 140.836 110.379C140.836 109.78 141.044 109.266 141.461 108.836C141.891 108.406 142.405 108.191 143.004 108.191Z" fill="white"/>
<path d="M128.082 360.91L128.688 369.914H128.082C127.275 367.219 126.122 365.279 124.625 364.094C123.128 362.909 121.331 362.316 119.234 362.316C117.477 362.316 115.888 362.766 114.469 363.664C113.049 364.549 111.93 365.969 111.109 367.922C110.302 369.875 109.898 372.303 109.898 375.207C109.898 377.603 110.283 379.68 111.051 381.438C111.819 383.195 112.971 384.543 114.508 385.48C116.057 386.418 117.822 386.887 119.801 386.887C121.52 386.887 123.036 386.522 124.352 385.793C125.667 385.051 127.112 383.586 128.688 381.398L129.293 381.789C127.965 384.146 126.415 385.871 124.645 386.965C122.874 388.059 120.771 388.605 118.336 388.605C113.948 388.605 110.549 386.978 108.141 383.723C106.344 381.301 105.445 378.449 105.445 375.168C105.445 372.525 106.038 370.096 107.223 367.883C108.408 365.669 110.035 363.957 112.105 362.746C114.189 361.522 116.461 360.91 118.922 360.91C120.836 360.91 122.724 361.379 124.586 362.316C125.133 362.603 125.523 362.746 125.758 362.746C126.109 362.746 126.415 362.622 126.676 362.375C127.014 362.023 127.255 361.535 127.398 360.91H128.082Z" fill="white"/>
<path d="M142.066 385.422C140.23 386.841 139.078 387.661 138.609 387.883C137.906 388.208 137.158 388.371 136.363 388.371C135.126 388.371 134.104 387.948 133.297 387.102C132.503 386.255 132.105 385.142 132.105 383.762C132.105 382.889 132.301 382.134 132.691 381.496C133.225 380.611 134.15 379.777 135.465 378.996C136.793 378.215 138.993 377.264 142.066 376.145V375.441C142.066 373.658 141.78 372.434 141.207 371.77C140.647 371.105 139.827 370.773 138.746 370.773C137.926 370.773 137.275 370.995 136.793 371.438C136.298 371.88 136.051 372.388 136.051 372.961L136.09 374.094C136.09 374.693 135.934 375.155 135.621 375.48C135.322 375.806 134.924 375.969 134.43 375.969C133.948 375.969 133.551 375.799 133.238 375.461C132.939 375.122 132.789 374.66 132.789 374.074C132.789 372.954 133.362 371.926 134.508 370.988C135.654 370.051 137.262 369.582 139.332 369.582C140.921 369.582 142.223 369.849 143.238 370.383C144.007 370.786 144.573 371.418 144.938 372.277C145.172 372.837 145.289 373.983 145.289 375.715V381.789C145.289 383.495 145.322 384.543 145.387 384.934C145.452 385.311 145.556 385.565 145.699 385.695C145.855 385.826 146.031 385.891 146.227 385.891C146.435 385.891 146.617 385.845 146.773 385.754C147.047 385.585 147.574 385.109 148.355 384.328V385.422C146.897 387.375 145.504 388.352 144.176 388.352C143.538 388.352 143.03 388.13 142.652 387.688C142.275 387.245 142.079 386.49 142.066 385.422ZM142.066 384.152V377.336C140.1 378.117 138.831 378.671 138.258 378.996C137.229 379.569 136.493 380.168 136.051 380.793C135.608 381.418 135.387 382.102 135.387 382.844C135.387 383.781 135.667 384.562 136.227 385.188C136.786 385.799 137.431 386.105 138.16 386.105C139.15 386.105 140.452 385.454 142.066 384.152Z" fill="white"/>
<path d="M155.855 360.227V383.957C155.855 385.077 155.934 385.819 156.09 386.184C156.259 386.548 156.513 386.828 156.852 387.023C157.19 387.206 157.822 387.297 158.746 387.297V388H149.977V387.297C150.797 387.297 151.357 387.212 151.656 387.043C151.956 386.874 152.19 386.594 152.359 386.203C152.529 385.812 152.613 385.064 152.613 383.957V367.707C152.613 365.689 152.568 364.452 152.477 363.996C152.385 363.527 152.236 363.208 152.027 363.039C151.832 362.87 151.578 362.785 151.266 362.785C150.927 362.785 150.497 362.889 149.977 363.098L149.645 362.414L154.977 360.227H155.855Z" fill="white"/>
<path d="M176.031 381.203C175.549 383.56 174.605 385.376 173.199 386.652C171.793 387.915 170.237 388.547 168.531 388.547C166.5 388.547 164.729 387.694 163.219 385.988C161.708 384.283 160.953 381.978 160.953 379.074C160.953 376.262 161.786 373.977 163.453 372.219C165.133 370.461 167.145 369.582 169.488 369.582C171.246 369.582 172.691 370.051 173.824 370.988C174.957 371.913 175.523 372.876 175.523 373.879C175.523 374.374 175.361 374.777 175.035 375.09C174.723 375.389 174.28 375.539 173.707 375.539C172.939 375.539 172.359 375.292 171.969 374.797C171.747 374.523 171.598 374.003 171.52 373.234C171.454 372.466 171.194 371.88 170.738 371.477C170.283 371.086 169.651 370.891 168.844 370.891C167.542 370.891 166.493 371.372 165.699 372.336C164.645 373.612 164.117 375.298 164.117 377.395C164.117 379.53 164.638 381.418 165.68 383.059C166.734 384.686 168.154 385.5 169.938 385.5C171.214 385.5 172.359 385.064 173.375 384.191C174.091 383.592 174.788 382.505 175.465 380.93L176.031 381.203Z" fill="white"/>
<path d="M194.293 370.109V380.949C194.293 383.02 194.339 384.289 194.43 384.758C194.534 385.214 194.69 385.533 194.898 385.715C195.12 385.897 195.374 385.988 195.66 385.988C196.064 385.988 196.52 385.878 197.027 385.656L197.301 386.34L191.949 388.547H191.07V384.758C189.534 386.424 188.362 387.473 187.555 387.902C186.747 388.332 185.895 388.547 184.996 388.547C183.993 388.547 183.121 388.26 182.379 387.688C181.65 387.102 181.142 386.353 180.855 385.441C180.569 384.53 180.426 383.241 180.426 381.574V373.586C180.426 372.74 180.335 372.154 180.152 371.828C179.97 371.503 179.697 371.255 179.332 371.086C178.98 370.904 178.336 370.819 177.398 370.832V370.109H183.668V382.082C183.668 383.749 183.954 384.842 184.527 385.363C185.113 385.884 185.816 386.145 186.637 386.145C187.197 386.145 187.828 385.969 188.531 385.617C189.247 385.266 190.094 384.595 191.07 383.605V373.469C191.07 372.453 190.882 371.77 190.504 371.418C190.139 371.053 189.371 370.858 188.199 370.832V370.109H194.293Z" fill="white"/>
<path d="M204.762 360.227V383.957C204.762 385.077 204.84 385.819 204.996 386.184C205.165 386.548 205.419 386.828 205.758 387.023C206.096 387.206 206.728 387.297 207.652 387.297V388H198.883V387.297C199.703 387.297 200.263 387.212 200.562 387.043C200.862 386.874 201.096 386.594 201.266 386.203C201.435 385.812 201.52 385.064 201.52 383.957V367.707C201.52 365.689 201.474 364.452 201.383 363.996C201.292 363.527 201.142 363.208 200.934 363.039C200.738 362.87 200.484 362.785 200.172 362.785C199.833 362.785 199.404 362.889 198.883 363.098L198.551 362.414L203.883 360.227H204.762Z" fill="white"/>
<path d="M219.879 385.422C218.043 386.841 216.891 387.661 216.422 387.883C215.719 388.208 214.97 388.371 214.176 388.371C212.939 388.371 211.917 387.948 211.109 387.102C210.315 386.255 209.918 385.142 209.918 383.762C209.918 382.889 210.113 382.134 210.504 381.496C211.038 380.611 211.962 379.777 213.277 378.996C214.605 378.215 216.806 377.264 219.879 376.145V375.441C219.879 373.658 219.592 372.434 219.02 371.77C218.46 371.105 217.639 370.773 216.559 370.773C215.738 370.773 215.087 370.995 214.605 371.438C214.111 371.88 213.863 372.388 213.863 372.961L213.902 374.094C213.902 374.693 213.746 375.155 213.434 375.48C213.134 375.806 212.737 375.969 212.242 375.969C211.76 375.969 211.363 375.799 211.051 375.461C210.751 375.122 210.602 374.66 210.602 374.074C210.602 372.954 211.174 371.926 212.32 370.988C213.466 370.051 215.074 369.582 217.145 369.582C218.733 369.582 220.035 369.849 221.051 370.383C221.819 370.786 222.385 371.418 222.75 372.277C222.984 372.837 223.102 373.983 223.102 375.715V381.789C223.102 383.495 223.134 384.543 223.199 384.934C223.264 385.311 223.368 385.565 223.512 385.695C223.668 385.826 223.844 385.891 224.039 385.891C224.247 385.891 224.43 385.845 224.586 385.754C224.859 385.585 225.387 385.109 226.168 384.328V385.422C224.71 387.375 223.316 388.352 221.988 388.352C221.35 388.352 220.842 388.13 220.465 387.688C220.087 387.245 219.892 386.49 219.879 385.422ZM219.879 384.152V377.336C217.913 378.117 216.643 378.671 216.07 378.996C215.042 379.569 214.306 380.168 213.863 380.793C213.421 381.418 213.199 382.102 213.199 382.844C213.199 383.781 213.479 384.562 214.039 385.188C214.599 385.799 215.243 386.105 215.973 386.105C216.962 386.105 218.264 385.454 219.879 384.152Z" fill="white"/>
<path d="M231.91 369.562C232.509 369.562 233.017 369.777 233.434 370.207C233.863 370.624 234.078 371.132 234.078 371.73C234.078 372.329 233.863 372.844 233.434 373.273C233.017 373.69 232.509 373.898 231.91 373.898C231.311 373.898 230.797 373.69 230.367 373.273C229.951 372.844 229.742 372.329 229.742 371.73C229.742 371.132 229.951 370.624 230.367 370.207C230.797 369.777 231.311 369.562 231.91 369.562ZM231.871 384.191C232.483 384.191 232.997 384.406 233.414 384.836C233.844 385.266 234.059 385.78 234.059 386.379C234.059 386.978 233.844 387.492 233.414 387.922C232.984 388.339 232.47 388.547 231.871 388.547C231.272 388.547 230.758 388.339 230.328 387.922C229.911 387.492 229.703 386.978 229.703 386.379C229.703 385.78 229.911 385.266 230.328 384.836C230.758 384.406 231.272 384.191 231.871 384.191Z" fill="white"/>
</g>
<g id="x\;\;\;\;=x^2-6x+1\;\;\;\;x\;\;\;=x^2-11\;3\;\;-\;\;3&#10;">
<g id="Group">
<g id="Group 212">
<g id="Group_2">
<path id="Vector" d="M166.704 224.635C166.897 223.476 167.643 222.137 168.94 220.618C170.238 219.1 171.839 218.327 173.744 218.299C174.711 218.299 175.594 218.548 176.395 219.045C177.196 219.542 177.789 220.163 178.176 220.908C179.335 219.169 180.73 218.299 182.358 218.299C183.38 218.299 184.263 218.603 185.009 219.21C185.754 219.818 186.141 220.632 186.169 221.654C186.169 222.454 185.975 223.103 185.589 223.6C185.202 224.097 184.829 224.401 184.471 224.511C184.112 224.622 183.794 224.677 183.518 224.677C182.993 224.677 182.566 224.525 182.234 224.221C181.903 223.918 181.737 223.517 181.737 223.02C181.737 221.75 182.427 220.881 183.808 220.411C183.504 220.052 182.952 219.873 182.151 219.873C181.792 219.873 181.53 219.9 181.365 219.956C180.315 220.397 179.542 221.309 179.045 222.689C177.389 228.791 176.561 232.352 176.561 233.374C176.561 234.147 176.781 234.699 177.223 235.03C177.665 235.362 178.148 235.527 178.673 235.527C179.694 235.527 180.702 235.072 181.696 234.161C182.69 233.25 183.366 232.131 183.725 230.806C183.808 230.53 183.891 230.378 183.974 230.351C184.056 230.323 184.277 230.295 184.636 230.268H184.802C185.216 230.268 185.423 230.378 185.423 230.599C185.423 230.627 185.395 230.778 185.34 231.055C184.898 232.628 184.043 234.023 182.773 235.237C181.503 236.452 180.025 237.06 178.341 237.06C176.409 237.06 174.945 236.19 173.951 234.451C172.819 236.162 171.522 237.018 170.059 237.018H169.81C168.457 237.018 167.491 236.659 166.911 235.941C166.331 235.224 166.028 234.464 166 233.664C166 232.78 166.262 232.062 166.787 231.51C167.311 230.958 167.933 230.682 168.65 230.682C169.838 230.682 170.431 231.262 170.431 232.421C170.431 232.973 170.266 233.457 169.934 233.871C169.603 234.285 169.285 234.561 168.982 234.699C168.678 234.837 168.499 234.906 168.443 234.906L168.319 234.947C168.319 234.975 168.402 235.03 168.568 235.113C168.733 235.196 168.954 235.293 169.23 235.403C169.506 235.513 169.769 235.555 170.017 235.527C171.011 235.527 171.867 234.906 172.585 233.664C172.833 233.222 173.151 232.283 173.537 230.848C173.924 229.412 174.31 227.921 174.697 226.375C175.083 224.829 175.304 223.918 175.36 223.642C175.498 222.896 175.567 222.358 175.567 222.026C175.567 221.253 175.36 220.701 174.945 220.37C174.531 220.039 174.062 219.873 173.537 219.873C172.433 219.873 171.398 220.315 170.431 221.198C169.465 222.082 168.789 223.214 168.402 224.594C168.347 224.843 168.278 224.981 168.195 225.008C168.112 225.036 167.891 225.063 167.532 225.091H166.953C166.787 224.925 166.704 224.773 166.704 224.635Z" fill="white"/>
</g>
<path id="Polygon 10 (Stroke)" fill-rule="evenodd" clip-rule="evenodd" d="M171 137L87.8616 275H254.138L171 137ZM171 142.814L93.1713 272H248.829L171 142.814Z" fill="white"/>
<path id="Ellipse 35 (Stroke)" fill-rule="evenodd" clip-rule="evenodd" d="M172 261C189.673 261 204 246.673 204 229C204 211.327 189.673 197 172 197C154.327 197 140 211.327 140 229C140 246.673 154.327 261 172 261ZM172 264C191.33 264 207 248.33 207 229C207 209.67 191.33 194 172 194C152.67 194 137 209.67 137 229C137 248.33 152.67 264 172 264Z" fill="white"/>
<g id="Group_3">
<path id="Vector_2" d="M248.078 222.233C248.078 221.874 248.271 221.598 248.658 221.405H275.038C275.453 221.626 275.66 221.902 275.66 222.233C275.66 222.537 275.466 222.799 275.08 223.02L261.91 223.061H248.741C248.299 222.923 248.078 222.647 248.078 222.233ZM248.078 230.267C248.078 229.853 248.299 229.577 248.741 229.439H275.08C275.466 229.715 275.66 229.991 275.66 230.267C275.66 230.626 275.453 230.902 275.038 231.096H248.658C248.271 230.902 248.078 230.626 248.078 230.267Z" fill="white"/>
</g>
<g id="Group_4">
<g id="Group_5">
<path id="Vector_3" d="M291.637 224.635C291.83 223.476 292.576 222.137 293.873 220.618C295.171 219.1 296.772 218.327 298.677 218.299C299.644 218.299 300.527 218.548 301.328 219.045C302.128 219.542 302.722 220.163 303.109 220.908C304.268 219.169 305.662 218.299 307.291 218.299C308.313 218.299 309.196 218.603 309.942 219.21C310.687 219.818 311.074 220.632 311.101 221.654C311.101 222.454 310.908 223.103 310.522 223.6C310.135 224.097 309.762 224.401 309.403 224.511C309.044 224.622 308.727 224.677 308.451 224.677C307.926 224.677 307.498 224.525 307.167 224.221C306.836 223.918 306.67 223.517 306.67 223.02C306.67 221.75 307.36 220.881 308.741 220.411C308.437 220.052 307.885 219.873 307.084 219.873C306.725 219.873 306.463 219.9 306.297 219.956C305.248 220.397 304.475 221.309 303.978 222.689C302.322 228.791 301.493 232.352 301.493 233.374C301.493 234.147 301.714 234.699 302.156 235.03C302.598 235.362 303.081 235.527 303.605 235.527C304.627 235.527 305.635 235.072 306.629 234.161C307.623 233.25 308.299 232.131 308.658 230.806C308.741 230.53 308.824 230.378 308.906 230.351C308.989 230.323 309.21 230.295 309.569 230.268H309.735C310.149 230.268 310.356 230.378 310.356 230.599C310.356 230.627 310.328 230.778 310.273 231.055C309.831 232.628 308.975 234.023 307.705 235.237C306.435 236.452 304.958 237.06 303.274 237.06C301.342 237.06 299.878 236.19 298.884 234.451C297.752 236.162 296.455 237.018 294.991 237.018H294.743C293.39 237.018 292.424 236.659 291.844 235.941C291.264 235.224 290.96 234.464 290.933 233.664C290.933 232.78 291.195 232.062 291.72 231.51C292.244 230.958 292.866 230.682 293.583 230.682C294.771 230.682 295.364 231.262 295.364 232.421C295.364 232.973 295.198 233.457 294.867 233.871C294.536 234.285 294.218 234.561 293.915 234.699C293.611 234.837 293.431 234.906 293.376 234.906L293.252 234.947C293.252 234.975 293.335 235.03 293.501 235.113C293.666 235.196 293.887 235.293 294.163 235.403C294.439 235.513 294.702 235.555 294.95 235.527C295.944 235.527 296.8 234.906 297.518 233.664C297.766 233.222 298.084 232.283 298.47 230.848C298.857 229.412 299.243 227.921 299.63 226.375C300.016 224.829 300.237 223.918 300.292 223.642C300.43 222.896 300.499 222.358 300.499 222.026C300.499 221.253 300.292 220.701 299.878 220.37C299.464 220.039 298.995 219.873 298.47 219.873C297.366 219.873 296.33 220.315 295.364 221.198C294.398 222.082 293.721 223.214 293.335 224.594C293.28 224.843 293.211 224.981 293.128 225.008C293.045 225.036 292.824 225.063 292.465 225.091H291.885C291.72 224.925 291.637 224.773 291.637 224.635Z" fill="white"/>
</g>
<g id="Group_6">
<path id="Vector_4" d="M316.363 206.939C315.836 206.939 315.417 206.763 315.104 206.412C314.792 206.061 314.636 205.631 314.636 205.124C314.636 203.738 315.153 202.537 316.188 201.522C317.222 200.507 318.511 200 320.053 200C321.829 200 323.312 200.546 324.503 201.639C325.694 202.733 326.299 204.148 326.319 205.885C326.319 206.724 326.123 207.525 325.733 208.286C325.343 209.047 324.874 209.711 324.328 210.277C323.781 210.843 323 211.565 321.985 212.444C321.282 213.049 320.306 213.947 319.057 215.137L317.33 216.777L319.555 216.806C322.62 216.806 324.249 216.757 324.445 216.66C324.581 216.621 324.816 215.752 325.147 214.054V213.966H326.319V214.054C326.299 214.113 326.172 215.001 325.938 216.718C325.704 218.436 325.557 219.334 325.499 219.412V219.5H314.636V218.944V218.592C314.636 218.456 314.695 218.309 314.812 218.153C314.929 217.997 315.222 217.655 315.69 217.128C316.256 216.504 316.744 215.957 317.154 215.489C317.33 215.294 317.662 214.932 318.15 214.405C318.638 213.878 318.969 213.517 319.145 213.322C319.321 213.127 319.604 212.805 319.994 212.356C320.385 211.907 320.658 211.575 320.814 211.36C320.97 211.146 321.195 210.853 321.487 210.482C321.78 210.111 321.985 209.799 322.102 209.545C322.219 209.291 322.366 209.008 322.541 208.696C322.717 208.384 322.844 208.071 322.922 207.759C323 207.447 323.068 207.154 323.127 206.881C323.186 206.607 323.215 206.285 323.215 205.914C323.215 204.685 322.883 203.621 322.219 202.723C321.556 201.825 320.609 201.376 319.379 201.376C318.735 201.376 318.169 201.542 317.681 201.874C317.193 202.206 316.851 202.528 316.656 202.84C316.461 203.152 316.363 203.338 316.363 203.396C316.363 203.416 316.412 203.426 316.51 203.426C316.861 203.426 317.222 203.562 317.593 203.835C317.964 204.109 318.15 204.558 318.15 205.182C318.15 205.67 317.993 206.08 317.681 206.412C317.369 206.744 316.93 206.92 316.363 206.939Z" fill="white"/>
</g>
</g>
<g id="Group_7">
<path id="Vector_5" d="M342.563 226.789C342.563 226.789 342.563 226.61 342.563 226.251C342.563 225.892 342.757 225.616 343.143 225.423H367.205C367.619 225.643 367.826 225.92 367.826 226.251C367.826 226.582 367.619 226.858 367.205 227.079H343.143C342.757 226.886 342.563 226.61 342.563 226.251V226.789Z" fill="white"/>
</g>
<g id="Group_8">
<path id="Vector_6" d="M382.25 223.641C382.25 219.141 383.368 215.579 385.604 212.956C387.841 210.333 390.326 209.022 393.059 209.022C394.964 209.022 396.331 209.519 397.159 210.513C397.987 211.507 398.401 212.611 398.401 213.826C398.401 214.516 398.208 215.068 397.821 215.483C397.435 215.897 396.897 216.104 396.206 216.104C395.571 216.104 395.047 215.91 394.633 215.524C394.218 215.137 394.011 214.599 394.011 213.909C394.011 212.694 394.66 211.962 395.958 211.714C395.35 211.106 394.495 210.761 393.39 210.679C391.43 210.679 389.815 211.507 388.545 213.163C387.247 214.986 386.598 217.774 386.598 221.529L386.64 221.695C386.778 221.529 386.888 221.349 386.971 221.156C388.103 219.5 389.58 218.671 391.402 218.671H391.568C392.838 218.671 393.956 218.934 394.923 219.458C395.585 219.845 396.248 220.397 396.91 221.115C397.573 221.833 398.111 222.619 398.526 223.475C399.105 224.828 399.395 226.305 399.395 227.907V228.652C399.395 229.287 399.326 229.881 399.188 230.433C398.884 232.062 398.001 233.649 396.538 235.195C395.074 236.742 393.225 237.515 390.988 237.515C390.215 237.515 389.47 237.404 388.752 237.183C388.034 236.962 387.261 236.548 386.433 235.941C385.604 235.334 384.9 234.519 384.321 233.498C383.741 232.476 383.244 231.137 382.83 229.48C382.416 227.824 382.222 225.877 382.25 223.641ZM391.154 220.162C390.326 220.162 389.608 220.397 389 220.866C388.393 221.336 387.924 221.957 387.592 222.73C387.261 223.503 387.026 224.29 386.888 225.091C386.75 225.891 386.667 226.747 386.64 227.658C386.64 229.95 386.805 231.592 387.137 232.586C387.468 233.58 387.993 234.381 388.71 234.988C389.373 235.485 390.105 235.734 390.905 235.734C392.313 235.734 393.39 235.209 394.136 234.16C394.495 233.663 394.743 233.042 394.881 232.297C395.019 231.551 395.088 230.102 395.088 227.948C395.088 225.739 395.019 224.262 394.881 223.517C394.743 222.771 394.495 222.15 394.136 221.653C393.39 220.659 392.396 220.162 391.154 220.162Z" fill="white"/>
</g>
<g id="Group_9">
<path id="Vector_7" d="M403.372 224.635C403.565 223.476 404.31 222.137 405.608 220.618C406.906 219.1 408.507 218.327 410.412 218.299C411.378 218.299 412.262 218.548 413.063 219.045C413.863 219.542 414.457 220.163 414.843 220.908C416.003 219.169 417.397 218.299 419.026 218.299C420.048 218.299 420.931 218.603 421.677 219.21C422.422 219.818 422.809 220.632 422.836 221.654C422.836 222.454 422.643 223.103 422.256 223.6C421.87 224.097 421.497 224.401 421.138 224.511C420.779 224.622 420.462 224.677 420.186 224.677C419.661 224.677 419.233 224.525 418.902 224.221C418.571 223.918 418.405 223.517 418.405 223.02C418.405 221.75 419.095 220.881 420.476 220.411C420.172 220.052 419.62 219.873 418.819 219.873C418.46 219.873 418.198 219.9 418.032 219.956C416.983 220.397 416.21 221.309 415.713 222.689C414.057 228.791 413.228 232.352 413.228 233.374C413.228 234.147 413.449 234.699 413.891 235.03C414.333 235.362 414.816 235.527 415.34 235.527C416.362 235.527 417.37 235.072 418.364 234.161C419.357 233.25 420.034 232.131 420.393 230.806C420.476 230.53 420.558 230.378 420.641 230.351C420.724 230.323 420.945 230.295 421.304 230.268H421.47C421.884 230.268 422.091 230.378 422.091 230.599C422.091 230.627 422.063 230.778 422.008 231.055C421.566 232.628 420.71 234.023 419.44 235.237C418.17 236.452 416.693 237.06 415.009 237.06C413.076 237.06 411.613 236.19 410.619 234.451C409.487 236.162 408.19 237.018 406.726 237.018H406.478C405.125 237.018 404.159 236.659 403.579 235.941C402.999 235.224 402.695 234.464 402.668 233.664C402.668 232.78 402.93 232.062 403.455 231.51C403.979 230.958 404.6 230.682 405.318 230.682C406.505 230.682 407.099 231.262 407.099 232.421C407.099 232.973 406.933 233.457 406.602 233.871C406.271 234.285 405.953 234.561 405.65 234.699C405.346 234.837 405.166 234.906 405.111 234.906L404.987 234.947C404.987 234.975 405.07 235.03 405.235 235.113C405.401 235.196 405.622 235.293 405.898 235.403C406.174 235.513 406.436 235.555 406.685 235.527C407.679 235.527 408.535 234.906 409.253 233.664C409.501 233.222 409.819 232.283 410.205 230.848C410.592 229.412 410.978 227.921 411.365 226.375C411.751 224.829 411.972 223.918 412.027 223.642C412.165 222.896 412.234 222.358 412.234 222.026C412.234 221.253 412.027 220.701 411.613 220.37C411.199 220.039 410.73 219.873 410.205 219.873C409.101 219.873 408.065 220.315 407.099 221.198C406.133 222.082 405.456 223.214 405.07 224.594C405.015 224.843 404.945 224.981 404.863 225.008C404.78 225.036 404.559 225.063 404.2 225.091H403.62C403.455 224.925 403.372 224.773 403.372 224.635Z" fill="white"/>
</g>
<g id="Group_10">
<path id="Vector_8" d="M436.428 226.789C436.428 226.789 436.428 226.609 436.428 226.25C436.428 225.891 436.621 225.615 437.008 225.422H449.39V219.21L449.432 212.998C449.708 212.639 449.97 212.459 450.219 212.459C450.578 212.459 450.854 212.666 451.047 213.081V225.422H463.388C463.802 225.643 464.01 225.919 464.01 226.25C464.01 226.581 463.802 226.858 463.388 227.078H451.047V239.42C450.826 239.806 450.578 240 450.302 240H450.219H450.136C449.805 240 449.556 239.806 449.39 239.42V227.078H437.008C436.621 226.885 436.428 226.609 436.428 226.25V226.789Z" fill="white"/>
</g>
<g id="Group_11">
<path id="Vector_9" d="M484.352 212.666L483.813 212.873C483.427 213.011 482.874 213.149 482.157 213.287C481.439 213.425 480.638 213.522 479.755 213.577H478.968V211.672H479.755C481.052 211.617 482.253 211.41 483.358 211.051C484.462 210.692 485.235 210.36 485.677 210.057C486.119 209.753 486.505 209.449 486.836 209.146C486.892 209.063 487.057 209.021 487.333 209.021C487.582 209.021 487.817 209.104 488.037 209.27V221.653L488.079 234.077C488.272 234.27 488.438 234.394 488.576 234.45C488.714 234.505 489.045 234.56 489.57 234.615C490.094 234.67 490.95 234.698 492.137 234.698H493.214V236.603H492.759C492.179 236.52 489.984 236.479 486.174 236.479C482.419 236.479 480.252 236.52 479.672 236.603H479.175V234.698H480.252C480.859 234.698 481.384 234.698 481.825 234.698C482.267 234.698 482.612 234.684 482.861 234.657C483.109 234.629 483.33 234.588 483.523 234.532C483.717 234.477 483.827 234.45 483.855 234.45C483.882 234.45 483.965 234.38 484.103 234.242C484.241 234.104 484.324 234.049 484.352 234.077V212.666Z" fill="white"/>
</g>
</g>
<g id="Group 211">
<g id="Group_12">
<path id="Vector_10" d="M609.704 210.336C609.897 209.177 610.643 207.837 611.94 206.319C613.238 204.8 614.839 204.027 616.744 204C617.711 204 618.594 204.248 619.395 204.745C620.196 205.242 620.789 205.863 621.176 206.609C622.335 204.87 623.73 204 625.358 204C626.38 204 627.263 204.304 628.009 204.911C628.754 205.518 629.141 206.333 629.169 207.354C629.169 208.155 628.975 208.804 628.589 209.301C628.202 209.798 627.829 210.101 627.471 210.212C627.112 210.322 626.794 210.378 626.518 210.378C625.993 210.378 625.566 210.226 625.234 209.922C624.903 209.618 624.737 209.218 624.737 208.721C624.737 207.451 625.427 206.581 626.808 206.112C626.504 205.753 625.952 205.574 625.151 205.574C624.792 205.574 624.53 205.601 624.365 205.656C623.315 206.098 622.542 207.009 622.045 208.39C620.389 214.491 619.561 218.053 619.561 219.074C619.561 219.847 619.781 220.4 620.223 220.731C620.665 221.062 621.148 221.228 621.673 221.228C622.694 221.228 623.702 220.772 624.696 219.861C625.69 218.95 626.366 217.832 626.725 216.507C626.808 216.231 626.891 216.079 626.974 216.051C627.056 216.024 627.277 215.996 627.636 215.968H627.802C628.216 215.968 628.423 216.079 628.423 216.3C628.423 216.327 628.395 216.479 628.34 216.755C627.898 218.329 627.043 219.723 625.773 220.938C624.503 222.153 623.025 222.76 621.341 222.76C619.409 222.76 617.945 221.891 616.951 220.151C615.819 221.863 614.522 222.719 613.059 222.719H612.81C611.457 222.719 610.491 222.36 609.911 221.642C609.331 220.924 609.028 220.165 609 219.364C609 218.481 609.262 217.763 609.787 217.211C610.311 216.659 610.933 216.383 611.65 216.383C612.838 216.383 613.431 216.962 613.431 218.122C613.431 218.674 613.266 219.157 612.934 219.571C612.603 219.986 612.285 220.262 611.982 220.4C611.678 220.538 611.499 220.607 611.443 220.607L611.319 220.648C611.319 220.676 611.402 220.731 611.568 220.814C611.733 220.897 611.954 220.993 612.23 221.104C612.506 221.214 612.769 221.256 613.017 221.228C614.011 221.228 614.867 220.607 615.585 219.364C615.833 218.923 616.151 217.984 616.537 216.548C616.924 215.113 617.31 213.622 617.697 212.075C618.083 210.529 618.304 209.618 618.36 209.342C618.498 208.597 618.567 208.058 618.567 207.727C618.567 206.954 618.36 206.402 617.945 206.071C617.531 205.739 617.062 205.574 616.537 205.574C615.433 205.574 614.398 206.015 613.431 206.899C612.465 207.782 611.789 208.914 611.402 210.295C611.347 210.543 611.278 210.681 611.195 210.709C611.112 210.736 610.891 210.764 610.532 210.792H609.953C609.787 210.626 609.704 210.474 609.704 210.336Z" fill="white"/>
</g>
<path id="Polygon 11 (Stroke)" fill-rule="evenodd" clip-rule="evenodd" d="M617 153L563.306 240.75H670.694L617 153ZM617 158.748L568.659 237.75H665.341L617 158.748Z" fill="white"/>
<path id="Ellipse 36 (Stroke)" fill-rule="evenodd" clip-rule="evenodd" d="M617 279C654.003 279 684 249.003 684 212C684 174.997 654.003 145 617 145C579.997 145 550 174.997 550 212C550 249.003 579.997 279 617 279ZM617 282C655.66 282 687 250.66 687 212C687 173.34 655.66 142 617 142C578.34 142 547 173.34 547 212C547 250.66 578.34 282 617 282Z" fill="white"/>
<g id="Group_13">
<path id="Vector_11" d="M695.574 210.233C695.574 209.874 695.767 209.598 696.154 209.405H722.534C722.948 209.626 723.155 209.902 723.155 210.233C723.155 210.537 722.962 210.799 722.576 211.02L709.406 211.061H696.236C695.795 210.923 695.574 210.647 695.574 210.233ZM695.574 218.267C695.574 217.853 695.795 217.577 696.236 217.439H722.576C722.962 217.715 723.155 217.991 723.155 218.267C723.155 218.626 722.948 218.902 722.534 219.096H696.154C695.767 218.902 695.574 218.626 695.574 218.267Z" fill="white"/>
</g>
<g id="Group_14">
<g id="Group_15">
<path id="Vector_12" d="M739.133 212.635C739.326 211.476 740.071 210.137 741.369 208.618C742.666 207.1 744.268 206.327 746.173 206.299C747.139 206.299 748.023 206.548 748.823 207.045C749.624 207.542 750.218 208.163 750.604 208.908C751.764 207.169 753.158 206.299 754.787 206.299C755.808 206.299 756.692 206.603 757.437 207.21C758.183 207.818 758.569 208.632 758.597 209.654C758.597 210.454 758.404 211.103 758.017 211.6C757.631 212.097 757.258 212.401 756.899 212.511C756.54 212.622 756.223 212.677 755.946 212.677C755.422 212.677 754.994 212.525 754.663 212.221C754.331 211.918 754.166 211.517 754.166 211.02C754.166 209.75 754.856 208.881 756.236 208.411C755.933 208.052 755.381 207.873 754.58 207.873C754.221 207.873 753.959 207.9 753.793 207.956C752.744 208.397 751.971 209.309 751.474 210.689C749.817 216.791 748.989 220.352 748.989 221.374C748.989 222.147 749.21 222.699 749.652 223.03C750.093 223.362 750.577 223.527 751.101 223.527C752.123 223.527 753.13 223.072 754.124 222.161C755.118 221.25 755.795 220.131 756.154 218.806C756.236 218.53 756.319 218.378 756.402 218.351C756.485 218.323 756.706 218.295 757.065 218.268H757.23C757.644 218.268 757.852 218.378 757.852 218.599C757.852 218.627 757.824 218.778 757.769 219.055C757.327 220.628 756.471 222.023 755.201 223.237C753.931 224.452 752.454 225.06 750.77 225.06C748.837 225.06 747.374 224.19 746.38 222.451C745.248 224.162 743.95 225.018 742.487 225.018H742.239C740.886 225.018 739.919 224.659 739.34 223.941C738.76 223.224 738.456 222.464 738.428 221.664C738.428 220.78 738.691 220.062 739.215 219.51C739.74 218.958 740.361 218.682 741.079 218.682C742.266 218.682 742.86 219.262 742.86 220.421C742.86 220.973 742.694 221.457 742.363 221.871C742.031 222.285 741.714 222.561 741.41 222.699C741.107 222.837 740.927 222.906 740.872 222.906L740.748 222.947C740.748 222.975 740.83 223.03 740.996 223.113C741.162 223.196 741.383 223.293 741.659 223.403C741.935 223.513 742.197 223.555 742.446 223.527C743.44 223.527 744.295 222.906 745.013 221.664C745.262 221.222 745.579 220.283 745.966 218.848C746.352 217.412 746.739 215.921 747.125 214.375C747.512 212.829 747.733 211.918 747.788 211.642C747.926 210.896 747.995 210.358 747.995 210.026C747.995 209.253 747.788 208.701 747.374 208.37C746.96 208.039 746.49 207.873 745.966 207.873C744.861 207.873 743.826 208.315 742.86 209.198C741.893 210.082 741.217 211.214 740.83 212.594C740.775 212.843 740.706 212.981 740.623 213.008C740.541 213.036 740.32 213.063 739.961 213.091H739.381C739.215 212.925 739.133 212.773 739.133 212.635Z" fill="white"/>
</g>
<g id="Group_16">
<path id="Vector_13" d="M763.859 194.939C763.332 194.939 762.912 194.763 762.6 194.412C762.288 194.061 762.132 193.631 762.132 193.124C762.132 191.738 762.649 190.537 763.683 189.522C764.718 188.507 766.006 188 767.548 188C769.325 188 770.808 188.546 771.999 189.639C773.189 190.733 773.795 192.148 773.814 193.885C773.814 194.724 773.619 195.525 773.229 196.286C772.838 197.047 772.37 197.711 771.823 198.277C771.277 198.843 770.496 199.565 769.481 200.444C768.778 201.049 767.802 201.947 766.553 203.137L764.825 204.777L767.051 204.806C770.115 204.806 771.745 204.757 771.94 204.66C772.077 204.621 772.311 203.752 772.643 202.054V201.966H773.814V202.054C773.795 202.113 773.668 203.001 773.433 204.718C773.199 206.436 773.053 207.334 772.994 207.412V207.5H762.132V206.944V206.592C762.132 206.456 762.19 206.309 762.307 206.153C762.424 205.997 762.717 205.655 763.186 205.128C763.752 204.504 764.24 203.957 764.65 203.489C764.825 203.294 765.157 202.932 765.645 202.405C766.133 201.878 766.465 201.517 766.641 201.322C766.816 201.127 767.099 200.805 767.49 200.356C767.88 199.907 768.153 199.575 768.31 199.36C768.466 199.146 768.69 198.853 768.983 198.482C769.276 198.111 769.481 197.799 769.598 197.545C769.715 197.291 769.861 197.008 770.037 196.696C770.213 196.384 770.34 196.071 770.418 195.759C770.496 195.447 770.564 195.154 770.623 194.881C770.681 194.607 770.71 194.285 770.71 193.914C770.71 192.685 770.379 191.621 769.715 190.723C769.051 189.825 768.105 189.376 766.875 189.376C766.231 189.376 765.665 189.542 765.177 189.874C764.689 190.206 764.347 190.528 764.152 190.84C763.957 191.152 763.859 191.338 763.859 191.396C763.859 191.416 763.908 191.426 764.005 191.426C764.357 191.426 764.718 191.562 765.089 191.835C765.46 192.109 765.645 192.558 765.645 193.182C765.645 193.67 765.489 194.08 765.177 194.412C764.864 194.744 764.425 194.92 763.859 194.939Z" fill="white"/>
</g>
</g>
<g id="Group_17">
<path id="Vector_14" d="M790.063 214.789C790.063 214.789 790.063 214.61 790.063 214.251C790.063 213.892 790.256 213.616 790.643 213.423H814.704C815.118 213.643 815.325 213.92 815.325 214.251C815.325 214.582 815.118 214.858 814.704 215.079H790.643C790.256 214.886 790.063 214.61 790.063 214.251V214.789Z" fill="white"/>
</g>
<g id="Group_18">
<path id="Vector_15" d="M836.828 200.666L836.29 200.873C835.903 201.011 835.351 201.149 834.633 201.287C833.915 201.425 833.114 201.522 832.231 201.577H831.444V199.672H832.231C833.529 199.617 834.73 199.41 835.834 199.051C836.938 198.692 837.711 198.36 838.153 198.057C838.595 197.753 838.981 197.449 839.313 197.146C839.368 197.063 839.534 197.021 839.81 197.021C840.058 197.021 840.293 197.104 840.514 197.27V209.653L840.555 222.077C840.748 222.27 840.914 222.394 841.052 222.45C841.19 222.505 841.521 222.56 842.046 222.615C842.571 222.67 843.426 222.698 844.614 222.698H845.69V224.603H845.235C844.655 224.52 842.46 224.479 838.65 224.479C834.895 224.479 832.728 224.52 832.148 224.603H831.651V222.698H832.728C833.335 222.698 833.86 222.698 834.302 222.698C834.743 222.698 835.089 222.684 835.337 222.657C835.585 222.629 835.806 222.588 836 222.532C836.193 222.477 836.303 222.45 836.331 222.45C836.359 222.45 836.441 222.38 836.579 222.242C836.717 222.104 836.8 222.049 836.828 222.077V200.666Z" fill="white"/>
<path id="Vector_16" d="M857.535 200.666L856.997 200.873C856.61 201.011 856.058 201.149 855.34 201.287C854.622 201.425 853.821 201.522 852.938 201.577H852.151V199.672H852.938C854.236 199.617 855.437 199.41 856.541 199.051C857.645 198.692 858.418 198.36 858.86 198.057C859.302 197.753 859.688 197.449 860.02 197.146C860.075 197.063 860.241 197.021 860.517 197.021C860.765 197.021 861 197.104 861.221 197.27V209.653L861.262 222.077C861.455 222.27 861.621 222.394 861.759 222.45C861.897 222.505 862.228 222.56 862.753 222.615C863.278 222.67 864.134 222.698 865.321 222.698H866.397V224.603H865.942C865.362 224.52 863.167 224.479 859.357 224.479C855.602 224.479 853.435 224.52 852.855 224.603H852.358V222.698H853.435C854.042 222.698 854.567 222.698 855.009 222.698C855.45 222.698 855.796 222.684 856.044 222.657C856.293 222.629 856.513 222.588 856.707 222.532C856.9 222.477 857.01 222.45 857.038 222.45C857.066 222.45 857.148 222.38 857.286 222.242C857.424 222.104 857.507 222.049 857.535 222.077V200.666Z" fill="white"/>
</g>
</g>
<g id="Group 210">
<g id="Group_19">
<path id="Vector_17" d="M308.52 347.365C307.775 347.365 307.195 347.131 306.781 346.661C306.367 346.192 306.146 345.585 306.118 344.839C306.118 343.321 306.781 341.968 308.106 340.781C309.431 339.594 311.033 339 312.91 339C313.876 339 314.484 339.014 314.732 339.041C316.775 339.373 318.335 340.104 319.412 341.236C320.489 342.368 321.041 343.597 321.069 344.922C321.069 346.358 320.599 347.752 319.66 349.105C318.722 350.458 317.424 351.438 315.768 352.045L315.643 352.128C315.643 352.156 315.768 352.197 316.016 352.252C316.265 352.308 316.665 352.432 317.217 352.625C317.769 352.818 318.294 353.108 318.791 353.495C321.055 354.958 322.187 356.891 322.187 359.293C322.187 361.474 321.331 363.379 319.619 365.008C317.907 366.637 315.74 367.451 313.117 367.451C310.908 367.451 309.003 366.858 307.402 365.67C305.801 364.483 305 362.978 305 361.156C305 360.383 305.248 359.762 305.745 359.293C306.242 358.823 306.864 358.575 307.609 358.547C308.382 358.547 309.017 358.796 309.514 359.293C310.011 359.79 310.26 360.411 310.26 361.156C310.26 361.46 310.218 361.736 310.135 361.985C310.052 362.233 309.956 362.454 309.845 362.647C309.735 362.84 309.583 363.006 309.39 363.144C309.197 363.282 309.031 363.393 308.893 363.475C308.755 363.558 308.617 363.613 308.479 363.641C308.341 363.669 308.23 363.71 308.147 363.765L307.982 363.807C309.39 365.049 311.102 365.67 313.117 365.67C314.636 365.67 315.781 364.939 316.554 363.475C317.024 362.564 317.258 361.17 317.258 359.293V358.464C317.258 355.842 316.375 354.088 314.608 353.205C314.194 353.039 313.352 352.943 312.082 352.915L310.342 352.874L310.218 352.791C310.163 352.708 310.135 352.487 310.135 352.128C310.135 351.631 310.246 351.383 310.467 351.383C311.24 351.383 312.04 351.314 312.869 351.176C313.807 351.038 314.663 350.458 315.436 349.436C316.209 348.415 316.596 346.869 316.596 344.798V344.467C316.596 342.893 316.113 341.802 315.146 341.195C314.539 340.808 313.89 340.615 313.2 340.615C312.316 340.615 311.502 340.767 310.757 341.071C310.011 341.374 309.486 341.692 309.183 342.023C308.879 342.354 308.727 342.52 308.727 342.52H308.851C308.934 342.548 309.045 342.575 309.183 342.603C309.321 342.631 309.459 342.7 309.597 342.81C309.735 342.92 309.901 343.017 310.094 343.1C310.287 343.183 310.425 343.335 310.508 343.555C310.591 343.776 310.701 343.983 310.839 344.177C310.977 344.37 311.019 344.646 310.964 345.005C310.964 345.612 310.77 346.151 310.384 346.62C309.997 347.089 309.376 347.338 308.52 347.365Z" fill="white"/>
</g>
<path id="Polygon 12 (Stroke)" fill-rule="evenodd" clip-rule="evenodd" d="M315 314L263.039 383H366.962L315 314ZM315 318.987L269.053 380H360.947L315 318.987Z" fill="white"/>
<g id="Group_20">
<path id="Vector_18" d="M359.658 356.726C359.658 356.726 359.658 356.546 359.658 356.187C359.658 355.828 359.851 355.552 360.238 355.359H384.299C384.713 355.58 384.92 355.856 384.92 356.187C384.92 356.519 384.713 356.795 384.299 357.016H360.238C359.851 356.822 359.658 356.546 359.658 356.187V356.726Z" fill="white"/>
</g>
<g id="Group_21">
<path id="Vector_19" d="M425.867 347.365C425.121 347.365 424.542 347.131 424.127 346.661C423.713 346.192 423.492 345.585 423.465 344.839C423.465 343.321 424.127 341.968 425.453 340.781C426.778 339.594 428.379 339 430.257 339C431.223 339 431.83 339.014 432.079 339.041C434.122 339.373 435.682 340.104 436.759 341.236C437.835 342.368 438.388 343.597 438.415 344.922C438.415 346.358 437.946 347.752 437.007 349.105C436.068 350.458 434.771 351.438 433.114 352.045L432.99 352.128C432.99 352.156 433.114 352.197 433.363 352.252C433.611 352.308 434.012 352.432 434.564 352.625C435.116 352.818 435.641 353.108 436.137 353.495C438.401 354.958 439.533 356.891 439.533 359.293C439.533 361.474 438.678 363.379 436.966 365.008C435.254 366.637 433.087 367.451 430.464 367.451C428.255 367.451 426.35 366.858 424.749 365.67C423.147 364.483 422.347 362.978 422.347 361.156C422.347 360.383 422.595 359.762 423.092 359.293C423.589 358.823 424.21 358.575 424.956 358.547C425.729 358.547 426.364 358.796 426.861 359.293C427.358 359.79 427.606 360.411 427.606 361.156C427.606 361.46 427.565 361.736 427.482 361.985C427.399 362.233 427.303 362.454 427.192 362.647C427.082 362.84 426.93 363.006 426.737 363.144C426.543 363.282 426.378 363.393 426.24 363.475C426.102 363.558 425.963 363.613 425.825 363.641C425.687 363.669 425.577 363.71 425.494 363.765L425.328 363.807C426.737 365.049 428.448 365.67 430.464 365.67C431.982 365.67 433.128 364.939 433.901 363.475C434.37 362.564 434.605 361.17 434.605 359.293V358.464C434.605 355.842 433.722 354.088 431.955 353.205C431.541 353.039 430.698 352.943 429.428 352.915L427.689 352.874L427.565 352.791C427.51 352.708 427.482 352.487 427.482 352.128C427.482 351.631 427.592 351.383 427.813 351.383C428.586 351.383 429.387 351.314 430.215 351.176C431.154 351.038 432.01 350.458 432.783 349.436C433.556 348.415 433.943 346.869 433.943 344.798V344.467C433.943 342.893 433.459 341.802 432.493 341.195C431.886 340.808 431.237 340.615 430.547 340.615C429.663 340.615 428.849 340.767 428.103 341.071C427.358 341.374 426.833 341.692 426.529 342.023C426.226 342.354 426.074 342.52 426.074 342.52H426.198C426.281 342.548 426.391 342.575 426.529 342.603C426.668 342.631 426.806 342.7 426.944 342.81C427.082 342.92 427.247 343.017 427.441 343.1C427.634 343.183 427.772 343.335 427.855 343.555C427.938 343.776 428.048 343.983 428.186 344.177C428.324 344.37 428.365 344.646 428.31 345.005C428.31 345.612 428.117 346.151 427.73 346.62C427.344 347.089 426.723 347.338 425.867 347.365Z" fill="white"/>
</g>
<path id="Ellipse 37 (Stroke)" fill-rule="evenodd" clip-rule="evenodd" d="M431 385C449.778 385 465 369.778 465 351C465 332.222 449.778 317 431 317C412.222 317 397 332.222 397 351C397 369.778 412.222 385 431 385ZM431 388C451.435 388 468 371.435 468 351C468 330.565 451.435 314 431 314C410.565 314 394 330.565 394 351C394 371.435 410.565 388 431 388Z" fill="white"/>
</g>
</g>
</g>
</g>
</g>
</svg>
