<svg viewBox="0 0 985 721" fill="none" xmlns="http://www.w3.org/2000/svg">
<g id="0118115">
<g id="Group 8">
<path id="Rectangle 1" d="M68 65.3533C68 31.3027 89.3794 3.69922 115.752 3.69922H939V430.346C939 464.396 917.62 492 891.247 492H68V65.3533Z" fill="#02071A"/>
<path id="Rectangle 1 (Stroke)" fill-rule="evenodd" clip-rule="evenodd" d="M934.224 9.86463H115.752C92.0167 9.86463 72.7752 34.7078 72.7752 65.3533V485.835H891.247C914.983 485.835 934.224 460.991 934.224 430.346V9.86463ZM115.752 3.69922C89.3794 3.69922 68 31.3027 68 65.3533V492H891.247C917.62 492 939 464.396 939 430.346V3.69922H115.752Z" fill="#CD08D1"/>
<path id="Rectangle 14" d="M119.715 3.78855C145.256 -4.73568 939 3.78855 939 3.78855V40.6917C939 40.6917 106.202 27.1278 76.5952 40.6917C85.8073 21.1188 94.1752 12.3128 119.715 3.78855Z" fill="#CD08D1"/>
<path id="Rectangle 15" d="M910.349 3.69922H939V431.579C935.483 460.616 928.194 471.288 910.349 485.218C915.601 462.406 910.349 3.69922 910.349 3.69922Z" fill="#CD08D1"/>
</g>
<g id="claves01">
<path id="Rectangle 4" d="M49 531H265.745L299 571L265.745 611H49V531Z" fill="#CD08D1" fill-opacity="0.1"/>
<path id="Rectangle 4 (Stroke)" fill-rule="evenodd" clip-rule="evenodd" d="M264.338 534H52V608H264.338L295.099 571L264.338 534ZM265.745 531H49V611H265.745L299 571L265.745 531Z" fill="#CD08D1"/>
<path id="Rectangle 5" d="M53 641H269.745L303 681L269.745 721H53V641Z" fill="#CD08D1" fill-opacity="0.1"/>
<path id="Rectangle 5 (Stroke)" fill-rule="evenodd" clip-rule="evenodd" d="M268.338 644H56V718H268.338L299.099 681L268.338 644ZM269.745 641H53V721H269.745L303 681L269.745 641Z" fill="#CD08D1"/>
<path id="Rectangle 6" d="M389 528H605.745L639 568L605.745 608H389V528Z" fill="#CD08D1" fill-opacity="0.1"/>
<path id="Rectangle 6 (Stroke)" fill-rule="evenodd" clip-rule="evenodd" d="M604.338 531H392V605H604.338L635.099 568L604.338 531ZM605.745 528H389V608H605.745L639 568L605.745 528Z" fill="#CD08D1"/>
<path id="Rectangle 7" d="M392 638H608.745L642 678L608.745 718H392V638Z" fill="#CD08D1" fill-opacity="0.1"/>
<path id="Rectangle 7 (Stroke)" fill-rule="evenodd" clip-rule="evenodd" d="M607.338 641H395V715H607.338L638.099 678L607.338 641ZM608.745 638H392V718H608.745L642 678L608.745 638Z" fill="#CD08D1"/>
<path id="Rectangle 8" d="M735 587H951.745L985 627L951.745 667H735V587Z" fill="#CD08D1" fill-opacity="0.1"/>
<path id="Rectangle 8 (Stroke)" fill-rule="evenodd" clip-rule="evenodd" d="M950.338 590H738V664H950.338L981.099 627L950.338 590ZM951.745 587H735V667H951.745L985 627L951.745 587Z" fill="#CD08D1"/>
<path id="Ellipse 1" d="M90 571C90 593.091 72.0914 611 50 611C27.9086 611 10 593.091 10 571C10 548.909 27.9086 531 50 531C72.0914 531 90 548.909 90 571Z" fill="#CD08D1"/>
<path id="Ellipse 2" d="M94 681C94 703.091 76.0914 721 54 721C31.9086 721 14 703.091 14 681C14 658.909 31.9086 641 54 641C76.0914 641 94 658.909 94 681Z" fill="#CD08D1"/>
<path id="Ellipse 3" d="M430 568C430 590.091 412.091 608 390 608C367.909 608 350 590.091 350 568C350 545.909 367.909 528 390 528C412.091 528 430 545.909 430 568Z" fill="#CD08D1"/>
<path id="Ellipse 4" d="M433 678C433 700.091 415.091 718 393 718C370.909 718 353 700.091 353 678C353 655.909 370.909 638 393 638C415.091 638 433 655.909 433 678Z" fill="#CD08D1"/>
<path id="Ellipse 5" d="M776 627C776 649.091 758.091 667 736 667C713.909 667 696 649.091 696 627C696 604.909 713.909 587 736 587C758.091 587 776 604.909 776 627Z" fill="#CD08D1"/>
<path id="A" d="M58.0938 581.406H40.4688L36.7812 592H28.5625L45.75 546.5H52.8438L70.0625 592H61.8125L58.0938 581.406ZM42.6875 575.031H55.875L49.2812 556.156L42.6875 575.031Z" fill="white"/>
<path id="B" d="M37.625 697V651.5H53.2188C58.3646 651.5 62.2812 652.531 64.9688 654.594C67.6562 656.656 69 659.729 69 663.812C69 665.896 68.4375 667.771 67.3125 669.438C66.1875 671.104 64.5417 672.396 62.375 673.312C64.8333 673.979 66.7292 675.24 68.0625 677.094C69.4167 678.927 70.0938 681.135 70.0938 683.719C70.0938 687.99 68.7188 691.271 65.9688 693.562C63.2396 695.854 59.3229 697 54.2188 697H37.625ZM45.5312 676.469V690.688H54.3125C56.7917 690.688 58.7292 690.073 60.125 688.844C61.5208 687.615 62.2188 685.906 62.2188 683.719C62.2188 678.99 59.8021 676.573 54.9688 676.469H45.5312ZM45.5312 670.656H53.2812C55.7396 670.656 57.6562 670.104 59.0312 669C60.4271 667.875 61.125 666.292 61.125 664.25C61.125 662 60.4792 660.375 59.1875 659.375C57.9167 658.375 55.9271 657.875 53.2188 657.875H45.5312V670.656Z" fill="white"/>
<path id="C" d="M407.344 575.188C406.885 580.042 405.094 583.833 401.969 586.562C398.844 589.271 394.688 590.625 389.5 590.625C385.875 590.625 382.677 589.771 379.906 588.062C377.156 586.333 375.031 583.885 373.531 580.719C372.031 577.552 371.25 573.875 371.188 569.688V565.438C371.188 561.146 371.948 557.365 373.469 554.094C374.99 550.823 377.167 548.302 380 546.531C382.854 544.76 386.146 543.875 389.875 543.875C394.896 543.875 398.938 545.24 402 547.969C405.062 550.698 406.844 554.552 407.344 559.531H399.469C399.094 556.26 398.135 553.906 396.594 552.469C395.073 551.01 392.833 550.281 389.875 550.281C386.438 550.281 383.792 551.542 381.938 554.062C380.104 556.562 379.167 560.24 379.125 565.094V569.125C379.125 574.042 380 577.792 381.75 580.375C383.521 582.958 386.104 584.25 389.5 584.25C392.604 584.25 394.938 583.552 396.5 582.156C398.062 580.76 399.052 578.438 399.469 575.188H407.344Z" fill="white"/>
<path id="D" d="M375.625 700V654.5H389.062C393.083 654.5 396.646 655.396 399.75 657.188C402.875 658.979 405.292 661.521 407 664.812C408.708 668.104 409.562 671.875 409.562 676.125V678.406C409.562 682.719 408.698 686.51 406.969 689.781C405.26 693.052 402.812 695.573 399.625 697.344C396.458 699.115 392.823 700 388.719 700H375.625ZM383.531 660.875V693.688H388.688C392.833 693.688 396.01 692.396 398.219 689.812C400.448 687.208 401.583 683.479 401.625 678.625V676.094C401.625 671.156 400.552 667.385 398.406 664.781C396.26 662.177 393.146 660.875 389.062 660.875H383.531Z" fill="white"/>
<path id="E" d="M745.219 628.688H726.531V642.688H748.375V649H718.625V603.5H748.156V609.875H726.531V622.438H745.219V628.688Z" fill="white"/>
<path id="7" d="M162.107 557.909L150.172 585H144.942L156.857 559.14H141.415V555.141H162.107V557.909Z" fill="#CD08D1"/>
<g id="1 + &#226;&#136;&#154;2">
<path d="M141.729 697H136.767V673.026L129.445 675.528V671.324L141.094 667.038H141.729V697Z" fill="#CD08D1"/>
<path d="M174.398 680.573H182.191V685.126H174.398V694.006H169.559V685.126H161.725V680.573H169.559V672.268H174.398V680.573Z" fill="#CD08D1"/>
<path d="M206.042 690.868L213.753 667.141H218.203L208.175 697H204.135L199.705 685.167H195.419V681.127H202.781L206.042 690.868Z" fill="#CD08D1"/>
<path d="M241.172 697H221.095V693.575L231.041 682.727C232.477 681.127 233.495 679.794 234.097 678.728C234.712 677.647 235.02 676.567 235.02 675.487C235.02 674.065 234.616 672.917 233.81 672.042C233.017 671.167 231.943 670.729 230.59 670.729C228.977 670.729 227.726 671.222 226.837 672.206C225.948 673.19 225.504 674.537 225.504 676.246H220.521C220.521 674.428 220.931 672.794 221.751 671.345C222.585 669.882 223.768 668.747 225.299 667.94C226.844 667.134 228.621 666.73 230.631 666.73C233.529 666.73 235.812 667.462 237.48 668.925C239.162 670.374 240.003 672.384 240.003 674.954C240.003 676.444 239.579 678.01 238.731 679.65C237.897 681.277 236.523 683.13 234.609 685.208L227.309 693.021H241.172V697Z" fill="#CD08D1"/>
</g>
<g id="1 - &#226;&#136;&#154;2">
<path d="M475.729 579H470.767V555.026L463.445 557.528V553.324L475.094 549.038H475.729V579Z" fill="#CD08D1"/>
<path d="M506.553 568.315H495.786V564.296H506.553V568.315Z" fill="#CD08D1"/>
<path d="M530.403 572.868L538.114 549.141H542.564L532.536 579H528.496L524.066 567.167H519.78V563.127H527.143L530.403 572.868Z" fill="#CD08D1"/>
<path d="M565.533 579H545.456V575.575L555.402 564.727C556.838 563.127 557.856 561.794 558.458 560.728C559.073 559.647 559.381 558.567 559.381 557.487C559.381 556.065 558.978 554.917 558.171 554.042C557.378 553.167 556.305 552.729 554.951 552.729C553.338 552.729 552.087 553.222 551.198 554.206C550.31 555.19 549.865 556.537 549.865 558.246H544.882C544.882 556.428 545.292 554.794 546.112 553.345C546.946 551.882 548.129 550.747 549.66 549.94C551.205 549.134 552.982 548.73 554.992 548.73C557.891 548.73 560.174 549.462 561.842 550.925C563.523 552.374 564.364 554.384 564.364 556.954C564.364 558.444 563.94 560.01 563.093 561.65C562.259 563.277 560.885 565.13 558.971 567.208L551.67 575.021H565.533V579Z" fill="#CD08D1"/>
</g>
<g id="&#226;&#136;&#154;2 - 1">
<path d="M816.833 637.868L824.544 614.141H828.994L818.966 644H814.926L810.496 632.167H806.21V628.127H813.572L816.833 637.868Z" fill="#CD08D1"/>
<path d="M851.963 644H831.886V640.575L841.832 629.727C843.268 628.127 844.286 626.794 844.888 625.728C845.503 624.647 845.811 623.567 845.811 622.487C845.811 621.065 845.407 619.917 844.601 619.042C843.808 618.167 842.734 617.729 841.381 617.729C839.768 617.729 838.517 618.222 837.628 619.206C836.739 620.19 836.295 621.537 836.295 623.246H831.312C831.312 621.428 831.722 619.794 832.542 618.345C833.376 616.882 834.559 615.747 836.09 614.94C837.635 614.134 839.412 613.73 841.422 613.73C844.32 613.73 846.604 614.462 848.271 615.925C849.953 617.374 850.794 619.384 850.794 621.954C850.794 623.444 850.37 625.01 849.522 626.65C848.688 628.277 847.314 630.13 845.4 632.208L838.1 640.021H851.963V644Z" fill="#CD08D1"/>
<path d="M876.203 633.315H865.437V629.296H876.203V633.315Z" fill="#CD08D1"/>
<path d="M903.95 644H898.987V620.026L891.666 622.528V618.324L903.314 614.038H903.95V644Z" fill="#CD08D1"/>
</g>
<g id="-2 - &#226;&#136;&#154;2">
<path d="M468.223 682.315H457.456V678.296H468.223V682.315Z" fill="#CD08D1"/>
<path d="M492.094 693H472.017V689.575L481.963 678.727C483.398 677.127 484.417 675.794 485.019 674.728C485.634 673.647 485.941 672.567 485.941 671.487C485.941 670.065 485.538 668.917 484.731 668.042C483.938 667.167 482.865 666.729 481.512 666.729C479.898 666.729 478.647 667.222 477.759 668.206C476.87 669.19 476.426 670.537 476.426 672.246H471.442C471.442 670.428 471.853 668.794 472.673 667.345C473.507 665.882 474.689 664.747 476.221 663.94C477.766 663.134 479.543 662.73 481.553 662.73C484.451 662.73 486.734 663.462 488.402 664.925C490.084 666.374 490.925 668.384 490.925 670.954C490.925 672.444 490.501 674.01 489.653 675.65C488.819 677.277 487.445 679.13 485.531 681.208L478.23 689.021H492.094V693Z" fill="#CD08D1"/>
<path d="M516.334 682.315H505.567V678.296H516.334V682.315Z" fill="#CD08D1"/>
<path d="M540.185 686.868L547.896 663.141H552.346L542.317 693H538.277L533.848 681.167H529.562V677.127H536.924L540.185 686.868Z" fill="#CD08D1"/>
<path d="M575.314 693H555.237V689.575L565.184 678.727C566.619 677.127 567.638 675.794 568.239 674.728C568.854 673.647 569.162 672.567 569.162 671.487C569.162 670.065 568.759 668.917 567.952 668.042C567.159 667.167 566.086 666.729 564.732 666.729C563.119 666.729 561.868 667.222 560.979 668.206C560.091 669.19 559.646 670.537 559.646 672.246H554.663C554.663 670.428 555.073 668.794 555.894 667.345C556.728 665.882 557.91 664.747 559.441 663.94C560.986 663.134 562.764 662.73 564.773 662.73C567.672 662.73 569.955 663.462 571.623 664.925C573.305 666.374 574.146 668.384 574.146 670.954C574.146 672.444 573.722 674.01 572.874 675.65C572.04 677.277 570.666 679.13 568.752 681.208L561.451 689.021H575.314V693Z" fill="#CD08D1"/>
</g>
</g>
<g id="flecha">
<path id="Rectangle 2" d="M58.2002 538.008L73.482 546.133L31.5004 625.089L16.2186 616.964L58.2002 538.008Z" fill="#1043F5"/>
<path id="Rectangle 1_2" d="M0 550.904L90 501V558.692L45 541.096L0 550.904Z" fill="#1043F5"/>
<path id="Rectangle 3" d="M4.03857 620.209L19.6657 593.142L36.9364 592.564L21.3092 619.631L4.03857 620.209Z" fill="#1043F5"/>
<path id="Rectangle 4_2" d="M30.0894 634.845L45.7165 607.778L36.9258 592.154L21.2986 619.221L30.0894 634.845Z" fill="#1043F5"/>
</g>
<g id="Group 132">
<g id="Se define en &#226;&#132;&#157; la siguiente operaci&#195;&#179;n matem&#195;&#161;tica. Determina el valor de">
<path d="M115.512 91.5918C112.617 90.7598 110.508 89.7402 109.184 88.5332C107.871 87.3145 107.215 85.8145 107.215 84.0332C107.215 82.0176 108.018 80.3535 109.623 79.041C111.24 77.7168 113.338 77.0547 115.916 77.0547C117.674 77.0547 119.238 77.3945 120.609 78.0742C121.992 78.7539 123.059 79.6914 123.809 80.8867C124.57 82.082 124.951 83.3887 124.951 84.8066H121.559C121.559 83.2598 121.066 82.0469 120.082 81.168C119.098 80.2773 117.709 79.832 115.916 79.832C114.252 79.832 112.951 80.2012 112.014 80.9395C111.088 81.666 110.625 82.6797 110.625 83.9805C110.625 85.0234 111.064 85.9082 111.943 86.6348C112.834 87.3496 114.34 88.0059 116.461 88.6035C118.594 89.2012 120.258 89.8633 121.453 90.5898C122.66 91.3047 123.551 92.1426 124.125 93.1035C124.711 94.0645 125.004 95.1953 125.004 96.4961C125.004 98.5703 124.195 100.234 122.578 101.488C120.961 102.73 118.799 103.352 116.092 103.352C114.334 103.352 112.693 103.018 111.17 102.35C109.646 101.67 108.469 100.744 107.637 99.5723C106.816 98.4004 106.406 97.0703 106.406 95.582H109.799C109.799 97.1289 110.367 98.3535 111.504 99.2559C112.652 100.146 114.182 100.592 116.092 100.592C117.873 100.592 119.238 100.229 120.188 99.502C121.137 98.7754 121.611 97.7852 121.611 96.5312C121.611 95.2773 121.172 94.3105 120.293 93.6309C119.414 92.9395 117.82 92.2598 115.512 91.5918Z" fill="white"/>
<path d="M136.729 103.352C134.15 103.352 132.053 102.508 130.436 100.82C128.818 99.1211 128.01 96.8535 128.01 94.0176V93.4199C128.01 91.5332 128.367 89.8516 129.082 88.375C129.809 86.8867 130.816 85.7266 132.105 84.8945C133.406 84.0508 134.812 83.6289 136.324 83.6289C138.797 83.6289 140.719 84.4434 142.09 86.0723C143.461 87.7012 144.146 90.0332 144.146 93.0684V94.4219H131.262C131.309 96.2969 131.854 97.8145 132.896 98.9746C133.951 100.123 135.287 100.697 136.904 100.697C138.053 100.697 139.025 100.463 139.822 99.9941C140.619 99.5254 141.316 98.9043 141.914 98.1309L143.9 99.6777C142.307 102.127 139.916 103.352 136.729 103.352ZM136.324 86.3008C135.012 86.3008 133.91 86.7812 133.02 87.7422C132.129 88.6914 131.578 90.0273 131.367 91.75H140.895V91.5039C140.801 89.8516 140.355 88.5742 139.559 87.6719C138.762 86.7578 137.684 86.3008 136.324 86.3008Z" fill="white"/>
<path d="M156.064 93.332C156.064 90.4141 156.756 88.0703 158.139 86.3008C159.521 84.5195 161.332 83.6289 163.57 83.6289C165.797 83.6289 167.561 84.3906 168.861 85.9141V76H172.113V103H169.125L168.967 100.961C167.666 102.555 165.855 103.352 163.535 103.352C161.332 103.352 159.533 102.449 158.139 100.645C156.756 98.8398 156.064 96.4844 156.064 93.5781V93.332ZM159.316 93.7012C159.316 95.8574 159.762 97.5449 160.652 98.7637C161.543 99.9824 162.773 100.592 164.344 100.592C166.406 100.592 167.912 99.666 168.861 97.8145V89.0781C167.889 87.2852 166.395 86.3887 164.379 86.3887C162.785 86.3887 161.543 87.0039 160.652 88.2344C159.762 89.4648 159.316 91.2871 159.316 93.7012Z" fill="white"/>
<path d="M185.068 103.352C182.49 103.352 180.393 102.508 178.775 100.82C177.158 99.1211 176.35 96.8535 176.35 94.0176V93.4199C176.35 91.5332 176.707 89.8516 177.422 88.375C178.148 86.8867 179.156 85.7266 180.445 84.8945C181.746 84.0508 183.152 83.6289 184.664 83.6289C187.137 83.6289 189.059 84.4434 190.43 86.0723C191.801 87.7012 192.486 90.0332 192.486 93.0684V94.4219H179.602C179.648 96.2969 180.193 97.8145 181.236 98.9746C182.291 100.123 183.627 100.697 185.244 100.697C186.393 100.697 187.365 100.463 188.162 99.9941C188.959 99.5254 189.656 98.9043 190.254 98.1309L192.24 99.6777C190.646 102.127 188.256 103.352 185.068 103.352ZM184.664 86.3008C183.352 86.3008 182.25 86.7812 181.359 87.7422C180.469 88.6914 179.918 90.0273 179.707 91.75H189.234V91.5039C189.141 89.8516 188.695 88.5742 187.898 87.6719C187.102 86.7578 186.023 86.3008 184.664 86.3008Z" fill="white"/>
<path d="M197.355 103V86.4941H194.35V83.9805H197.355V82.3633C197.355 80.2422 197.959 78.5898 199.166 77.4062C200.385 76.2227 202.102 75.6309 204.316 75.6309C205.629 75.6309 207.287 75.9883 209.291 76.7031L208.746 79.4453C207.281 78.8594 205.887 78.5664 204.562 78.5664C203.168 78.5664 202.16 78.8828 201.539 79.5156C200.93 80.1367 200.625 81.0742 200.625 82.3281V83.9805H204.51V86.4941H200.625V103H197.355ZM210.908 103H207.639V83.9805H210.908V103Z" fill="white"/>
<path d="M219.275 83.9805L219.381 86.3711C220.834 84.543 222.732 83.6289 225.076 83.6289C229.096 83.6289 231.123 85.8965 231.158 90.4316V103H227.906V90.4141C227.895 89.043 227.578 88.0293 226.957 87.373C226.348 86.7168 225.393 86.3887 224.092 86.3887C223.037 86.3887 222.111 86.6699 221.314 87.2324C220.518 87.7949 219.896 88.5332 219.451 89.4473V103H216.199V83.9805H219.275Z" fill="white"/>
<path d="M243.955 103.352C241.377 103.352 239.279 102.508 237.662 100.82C236.045 99.1211 235.236 96.8535 235.236 94.0176V93.4199C235.236 91.5332 235.594 89.8516 236.309 88.375C237.035 86.8867 238.043 85.7266 239.332 84.8945C240.633 84.0508 242.039 83.6289 243.551 83.6289C246.023 83.6289 247.945 84.4434 249.316 86.0723C250.688 87.7012 251.373 90.0332 251.373 93.0684V94.4219H238.488C238.535 96.2969 239.08 97.8145 240.123 98.9746C241.178 100.123 242.514 100.697 244.131 100.697C245.279 100.697 246.252 100.463 247.049 99.9941C247.846 99.5254 248.543 98.9043 249.141 98.1309L251.127 99.6777C249.533 102.127 247.143 103.352 243.955 103.352ZM243.551 86.3008C242.238 86.3008 241.137 86.7812 240.246 87.7422C239.355 88.6914 238.805 90.0273 238.594 91.75H248.121V91.5039C248.027 89.8516 247.582 88.5742 246.785 87.6719C245.988 86.7578 244.91 86.3008 243.551 86.3008Z" fill="white"/>
<path d="M271.975 103.352C269.396 103.352 267.299 102.508 265.682 100.82C264.064 99.1211 263.256 96.8535 263.256 94.0176V93.4199C263.256 91.5332 263.613 89.8516 264.328 88.375C265.055 86.8867 266.062 85.7266 267.352 84.8945C268.652 84.0508 270.059 83.6289 271.57 83.6289C274.043 83.6289 275.965 84.4434 277.336 86.0723C278.707 87.7012 279.393 90.0332 279.393 93.0684V94.4219H266.508C266.555 96.2969 267.1 97.8145 268.143 98.9746C269.197 100.123 270.533 100.697 272.15 100.697C273.299 100.697 274.271 100.463 275.068 99.9941C275.865 99.5254 276.562 98.9043 277.16 98.1309L279.146 99.6777C277.553 102.127 275.162 103.352 271.975 103.352ZM271.57 86.3008C270.258 86.3008 269.156 86.7812 268.266 87.7422C267.375 88.6914 266.824 90.0273 266.613 91.75H276.141V91.5039C276.047 89.8516 275.602 88.5742 274.805 87.6719C274.008 86.7578 272.93 86.3008 271.57 86.3008Z" fill="white"/>
<path d="M286.248 83.9805L286.354 86.3711C287.807 84.543 289.705 83.6289 292.049 83.6289C296.068 83.6289 298.096 85.8965 298.131 90.4316V103H294.879V90.4141C294.867 89.043 294.551 88.0293 293.93 87.373C293.32 86.7168 292.365 86.3887 291.064 86.3887C290.01 86.3887 289.084 86.6699 288.287 87.2324C287.49 87.7949 286.869 88.5332 286.424 89.4473V103H283.172V83.9805H286.248Z" fill="white"/>
<path d="M312.996 103V77.296H322.32C325.392 77.296 327.648 77.896 329.088 79.096C330.528 80.272 331.248 81.952 331.248 84.136C331.248 85.72 330.84 87.076 330.024 88.204C329.232 89.308 328.104 90.136 326.64 90.688L334.668 103H327.648L320.772 91.588H319.224V103H312.996ZM314.904 101.092H317.316V79.204H314.904V101.092ZM319.224 89.68H324.228V79.204H319.224V89.68ZM326.172 89.068C327.036 88.66 327.744 88.096 328.296 87.376C328.872 86.656 329.16 85.576 329.16 84.136C329.16 82.816 328.908 81.82 328.404 81.148C327.9 80.452 327.156 79.948 326.172 79.636V89.068ZM328.62 101.128H331.284L324.984 91.228C324.264 91.372 323.532 91.468 322.788 91.516L328.62 101.128Z" fill="white"/>
<path d="M350.127 103H346.875V76H350.127V103Z" fill="white"/>
<path d="M367.09 103C366.902 102.625 366.75 101.957 366.633 100.996C365.121 102.566 363.316 103.352 361.219 103.352C359.344 103.352 357.803 102.824 356.596 101.77C355.4 100.703 354.803 99.3555 354.803 97.7266C354.803 95.7461 355.553 94.2109 357.053 93.1211C358.564 92.0195 360.686 91.4688 363.416 91.4688H366.58V89.9746C366.58 88.8379 366.24 87.9355 365.561 87.2676C364.881 86.5879 363.879 86.248 362.555 86.248C361.395 86.248 360.422 86.541 359.637 87.127C358.852 87.7129 358.459 88.4219 358.459 89.2539H355.189C355.189 88.3047 355.523 87.3906 356.191 86.5117C356.871 85.6211 357.785 84.918 358.934 84.4023C360.094 83.8867 361.365 83.6289 362.748 83.6289C364.939 83.6289 366.656 84.1797 367.898 85.2812C369.141 86.3711 369.785 87.877 369.832 89.7988V98.5527C369.832 100.299 370.055 101.688 370.5 102.719V103H367.09ZM361.693 100.521C362.713 100.521 363.68 100.258 364.594 99.7305C365.508 99.2031 366.17 98.5176 366.58 97.6738V93.7715H364.031C360.047 93.7715 358.055 94.9375 358.055 97.2695C358.055 98.2891 358.395 99.0859 359.074 99.6602C359.754 100.234 360.627 100.521 361.693 100.521Z" fill="white"/>
<path d="M394.934 97.9551C394.934 97.0762 394.6 96.3965 393.932 95.916C393.275 95.4238 392.121 95.002 390.469 94.6504C388.828 94.2988 387.521 93.877 386.549 93.3848C385.588 92.8926 384.873 92.3066 384.404 91.627C383.947 90.9473 383.719 90.1387 383.719 89.2012C383.719 87.6426 384.375 86.3242 385.688 85.2461C387.012 84.168 388.699 83.6289 390.75 83.6289C392.906 83.6289 394.652 84.1855 395.988 85.2988C397.336 86.4121 398.01 87.8359 398.01 89.5703H394.74C394.74 88.6797 394.359 87.9121 393.598 87.2676C392.848 86.623 391.898 86.3008 390.75 86.3008C389.566 86.3008 388.641 86.5586 387.973 87.0742C387.305 87.5898 386.971 88.2637 386.971 89.0957C386.971 89.8809 387.281 90.4727 387.902 90.8711C388.523 91.2695 389.643 91.6504 391.26 92.0137C392.889 92.377 394.207 92.8105 395.215 93.3145C396.223 93.8184 396.967 94.4277 397.447 95.1426C397.939 95.8457 398.186 96.707 398.186 97.7266C398.186 99.4258 397.506 100.791 396.146 101.822C394.787 102.842 393.023 103.352 390.855 103.352C389.332 103.352 387.984 103.082 386.812 102.543C385.641 102.004 384.721 101.254 384.053 100.293C383.396 99.3203 383.068 98.2715 383.068 97.1465H386.32C386.379 98.2363 386.812 99.1035 387.621 99.748C388.441 100.381 389.52 100.697 390.855 100.697C392.086 100.697 393.07 100.451 393.809 99.959C394.559 99.4551 394.934 98.7871 394.934 97.9551Z" fill="white"/>
<path d="M405.955 103H402.703V83.9805H405.955V103ZM402.439 78.9355C402.439 78.4082 402.598 77.9629 402.914 77.5996C403.242 77.2363 403.723 77.0547 404.355 77.0547C404.988 77.0547 405.469 77.2363 405.797 77.5996C406.125 77.9629 406.289 78.4082 406.289 78.9355C406.289 79.4629 406.125 79.9023 405.797 80.2539C405.469 80.6055 404.988 80.7812 404.355 80.7812C403.723 80.7812 403.242 80.6055 402.914 80.2539C402.598 79.9023 402.439 79.4629 402.439 78.9355Z" fill="white"/>
<path d="M410.402 93.332C410.402 90.3672 411.088 88.0117 412.459 86.2656C413.83 84.5078 415.646 83.6289 417.908 83.6289C420.229 83.6289 422.039 84.4492 423.34 86.0898L423.498 83.9805H426.469V102.543C426.469 105.004 425.736 106.943 424.271 108.361C422.818 109.779 420.861 110.488 418.4 110.488C417.029 110.488 415.688 110.195 414.375 109.609C413.062 109.023 412.061 108.221 411.369 107.201L413.057 105.25C414.451 106.973 416.156 107.834 418.172 107.834C419.754 107.834 420.984 107.389 421.863 106.498C422.754 105.607 423.199 104.354 423.199 102.736V101.102C421.898 102.602 420.123 103.352 417.873 103.352C415.646 103.352 413.842 102.455 412.459 100.662C411.088 98.8691 410.402 96.4258 410.402 93.332ZM413.672 93.7012C413.672 95.8457 414.111 97.5332 414.99 98.7637C415.869 99.9824 417.1 100.592 418.682 100.592C420.732 100.592 422.238 99.6602 423.199 97.7969V89.1133C422.203 87.2969 420.709 86.3887 418.717 86.3887C417.135 86.3887 415.898 87.0039 415.008 88.2344C414.117 89.4648 413.672 91.2871 413.672 93.7012Z" fill="white"/>
<path d="M443.133 101.119C441.867 102.607 440.01 103.352 437.561 103.352C435.533 103.352 433.986 102.766 432.92 101.594C431.865 100.41 431.332 98.6641 431.32 96.3555V83.9805H434.572V96.2676C434.572 99.1504 435.744 100.592 438.088 100.592C440.572 100.592 442.225 99.666 443.045 97.8145V83.9805H446.297V103H443.203L443.133 101.119Z" fill="white"/>
<path d="M454.787 103H451.535V83.9805H454.787V103ZM451.271 78.9355C451.271 78.4082 451.43 77.9629 451.746 77.5996C452.074 77.2363 452.555 77.0547 453.188 77.0547C453.82 77.0547 454.301 77.2363 454.629 77.5996C454.957 77.9629 455.121 78.4082 455.121 78.9355C455.121 79.4629 454.957 79.9023 454.629 80.2539C454.301 80.6055 453.82 80.7812 453.188 80.7812C452.555 80.7812 452.074 80.6055 451.746 80.2539C451.43 79.9023 451.271 79.4629 451.271 78.9355Z" fill="white"/>
<path d="M467.9 103.352C465.322 103.352 463.225 102.508 461.607 100.82C459.99 99.1211 459.182 96.8535 459.182 94.0176V93.4199C459.182 91.5332 459.539 89.8516 460.254 88.375C460.98 86.8867 461.988 85.7266 463.277 84.8945C464.578 84.0508 465.984 83.6289 467.496 83.6289C469.969 83.6289 471.891 84.4434 473.262 86.0723C474.633 87.7012 475.318 90.0332 475.318 93.0684V94.4219H462.434C462.48 96.2969 463.025 97.8145 464.068 98.9746C465.123 100.123 466.459 100.697 468.076 100.697C469.225 100.697 470.197 100.463 470.994 99.9941C471.791 99.5254 472.488 98.9043 473.086 98.1309L475.072 99.6777C473.479 102.127 471.088 103.352 467.9 103.352ZM467.496 86.3008C466.184 86.3008 465.082 86.7812 464.191 87.7422C463.301 88.6914 462.75 90.0273 462.539 91.75H472.066V91.5039C471.973 89.8516 471.527 88.5742 470.73 87.6719C469.934 86.7578 468.855 86.3008 467.496 86.3008Z" fill="white"/>
<path d="M482.174 83.9805L482.279 86.3711C483.732 84.543 485.631 83.6289 487.975 83.6289C491.994 83.6289 494.021 85.8965 494.057 90.4316V103H490.805V90.4141C490.793 89.043 490.477 88.0293 489.855 87.373C489.246 86.7168 488.291 86.3887 486.99 86.3887C485.936 86.3887 485.01 86.6699 484.213 87.2324C483.416 87.7949 482.795 88.5332 482.35 89.4473V103H479.098V83.9805H482.174Z" fill="white"/>
<path d="M503.373 79.375V83.9805H506.924V86.4941H503.373V98.2891C503.373 99.0508 503.531 99.625 503.848 100.012C504.164 100.387 504.703 100.574 505.465 100.574C505.84 100.574 506.355 100.504 507.012 100.363V103C506.156 103.234 505.324 103.352 504.516 103.352C503.062 103.352 501.967 102.912 501.229 102.033C500.49 101.154 500.121 99.9062 500.121 98.2891V86.4941H496.658V83.9805H500.121V79.375H503.373Z" fill="white"/>
<path d="M518.631 103.352C516.053 103.352 513.955 102.508 512.338 100.82C510.721 99.1211 509.912 96.8535 509.912 94.0176V93.4199C509.912 91.5332 510.27 89.8516 510.984 88.375C511.711 86.8867 512.719 85.7266 514.008 84.8945C515.309 84.0508 516.715 83.6289 518.227 83.6289C520.699 83.6289 522.621 84.4434 523.992 86.0723C525.363 87.7012 526.049 90.0332 526.049 93.0684V94.4219H513.164C513.211 96.2969 513.756 97.8145 514.799 98.9746C515.854 100.123 517.189 100.697 518.807 100.697C519.955 100.697 520.928 100.463 521.725 99.9941C522.521 99.5254 523.219 98.9043 523.816 98.1309L525.803 99.6777C524.209 102.127 521.818 103.352 518.631 103.352ZM518.227 86.3008C516.914 86.3008 515.812 86.7812 514.922 87.7422C514.031 88.6914 513.48 90.0273 513.27 91.75H522.797V91.5039C522.703 89.8516 522.258 88.5742 521.461 87.6719C520.664 86.7578 519.586 86.3008 518.227 86.3008Z" fill="white"/>
<path d="M537.896 93.3145C537.896 91.4512 538.26 89.7754 538.986 88.2871C539.725 86.7988 540.744 85.6504 542.045 84.8418C543.357 84.0332 544.852 83.6289 546.527 83.6289C549.117 83.6289 551.209 84.5254 552.803 86.3184C554.408 88.1113 555.211 90.4961 555.211 93.4727V93.7012C555.211 95.5527 554.854 97.2168 554.139 98.6934C553.436 100.158 552.422 101.301 551.098 102.121C549.785 102.941 548.273 103.352 546.562 103.352C543.984 103.352 541.893 102.455 540.287 100.662C538.693 98.8691 537.896 96.4961 537.896 93.543V93.3145ZM541.166 93.7012C541.166 95.8105 541.652 97.5039 542.625 98.7812C543.609 100.059 544.922 100.697 546.562 100.697C548.215 100.697 549.527 100.053 550.5 98.7637C551.473 97.4629 551.959 95.6465 551.959 93.3145C551.959 91.2285 551.461 89.541 550.465 88.252C549.48 86.9512 548.168 86.3008 546.527 86.3008C544.922 86.3008 543.627 86.9395 542.643 88.2168C541.658 89.4941 541.166 91.3223 541.166 93.7012Z" fill="white"/>
<path d="M575.355 93.7012C575.355 96.5957 574.693 98.9277 573.369 100.697C572.045 102.467 570.252 103.352 567.99 103.352C565.682 103.352 563.865 102.619 562.541 101.154V110.312H559.289V83.9805H562.26L562.418 86.0898C563.742 84.4492 565.582 83.6289 567.938 83.6289C570.223 83.6289 572.027 84.4902 573.352 86.2129C574.688 87.9355 575.355 90.332 575.355 93.4023V93.7012ZM572.104 93.332C572.104 91.1875 571.646 89.4941 570.732 88.252C569.818 87.0098 568.564 86.3887 566.971 86.3887C565.002 86.3887 563.525 87.2617 562.541 89.0078V98.0957C563.514 99.8301 565.002 100.697 567.006 100.697C568.564 100.697 569.801 100.082 570.715 98.8516C571.641 97.6094 572.104 95.7695 572.104 93.332Z" fill="white"/>
<path d="M587.396 103.352C584.818 103.352 582.721 102.508 581.104 100.82C579.486 99.1211 578.678 96.8535 578.678 94.0176V93.4199C578.678 91.5332 579.035 89.8516 579.75 88.375C580.477 86.8867 581.484 85.7266 582.773 84.8945C584.074 84.0508 585.48 83.6289 586.992 83.6289C589.465 83.6289 591.387 84.4434 592.758 86.0723C594.129 87.7012 594.814 90.0332 594.814 93.0684V94.4219H581.93C581.977 96.2969 582.521 97.8145 583.564 98.9746C584.619 100.123 585.955 100.697 587.572 100.697C588.721 100.697 589.693 100.463 590.49 99.9941C591.287 99.5254 591.984 98.9043 592.582 98.1309L594.568 99.6777C592.975 102.127 590.584 103.352 587.396 103.352ZM586.992 86.3008C585.68 86.3008 584.578 86.7812 583.688 87.7422C582.797 88.6914 582.246 90.0273 582.035 91.75H591.562V91.5039C591.469 89.8516 591.023 88.5742 590.227 87.6719C589.43 86.7578 588.352 86.3008 586.992 86.3008Z" fill="white"/>
<path d="M607.787 86.8984C607.295 86.8164 606.762 86.7754 606.188 86.7754C604.055 86.7754 602.607 87.6836 601.846 89.5V103H598.594V83.9805H601.758L601.811 86.1777C602.877 84.4785 604.389 83.6289 606.346 83.6289C606.979 83.6289 607.459 83.7109 607.787 83.875V86.8984Z" fill="white"/>
<path d="M621.832 103C621.645 102.625 621.492 101.957 621.375 100.996C619.863 102.566 618.059 103.352 615.961 103.352C614.086 103.352 612.545 102.824 611.338 101.77C610.143 100.703 609.545 99.3555 609.545 97.7266C609.545 95.7461 610.295 94.2109 611.795 93.1211C613.307 92.0195 615.428 91.4688 618.158 91.4688H621.322V89.9746C621.322 88.8379 620.982 87.9355 620.303 87.2676C619.623 86.5879 618.621 86.248 617.297 86.248C616.137 86.248 615.164 86.541 614.379 87.127C613.594 87.7129 613.201 88.4219 613.201 89.2539H609.932C609.932 88.3047 610.266 87.3906 610.934 86.5117C611.613 85.6211 612.527 84.918 613.676 84.4023C614.836 83.8867 616.107 83.6289 617.49 83.6289C619.682 83.6289 621.398 84.1797 622.641 85.2812C623.883 86.3711 624.527 87.877 624.574 89.7988V98.5527C624.574 100.299 624.797 101.688 625.242 102.719V103H621.832ZM616.436 100.521C617.455 100.521 618.422 100.258 619.336 99.7305C620.25 99.2031 620.912 98.5176 621.322 97.6738V93.7715H618.773C614.789 93.7715 612.797 94.9375 612.797 97.2695C612.797 98.2891 613.137 99.0859 613.816 99.6602C614.496 100.234 615.369 100.521 616.436 100.521Z" fill="white"/>
<path d="M637.301 100.697C638.461 100.697 639.475 100.346 640.342 99.6426C641.209 98.9395 641.689 98.0605 641.783 97.0059H644.859C644.801 98.0957 644.426 99.1328 643.734 100.117C643.043 101.102 642.117 101.887 640.957 102.473C639.809 103.059 638.59 103.352 637.301 103.352C634.711 103.352 632.648 102.49 631.113 100.768C629.59 99.0332 628.828 96.666 628.828 93.666V93.1211C628.828 91.2695 629.168 89.623 629.848 88.1816C630.527 86.7402 631.5 85.6211 632.766 84.8242C634.043 84.0273 635.549 83.6289 637.283 83.6289C639.416 83.6289 641.186 84.2676 642.592 85.5449C644.01 86.8223 644.766 88.4805 644.859 90.5195H641.783C641.689 89.2891 641.221 88.2812 640.377 87.4961C639.545 86.6992 638.514 86.3008 637.283 86.3008C635.631 86.3008 634.348 86.8984 633.434 88.0938C632.531 89.2773 632.08 90.9941 632.08 93.2441V93.8594C632.08 96.0508 632.531 97.7383 633.434 98.9219C634.336 100.105 635.625 100.697 637.301 100.697Z" fill="white"/>
<path d="M652.049 103H648.797V83.9805H652.049V103ZM648.533 78.9355C648.533 78.4082 648.691 77.9629 649.008 77.5996C649.336 77.2363 649.816 77.0547 650.449 77.0547C651.082 77.0547 651.562 77.2363 651.891 77.5996C652.219 77.9629 652.383 78.4082 652.383 78.9355C652.383 79.4629 652.219 79.9023 651.891 80.2539C651.562 80.6055 651.082 80.7812 650.449 80.7812C649.816 80.7812 649.336 80.6055 649.008 80.2539C648.691 79.9023 648.533 79.4629 648.533 78.9355Z" fill="white"/>
<path d="M656.408 93.3145C656.408 91.4512 656.771 89.7754 657.498 88.2871C658.236 86.7988 659.256 85.6504 660.557 84.8418C661.869 84.0332 663.363 83.6289 665.039 83.6289C667.629 83.6289 669.721 84.5254 671.314 86.3184C672.92 88.1113 673.723 90.4961 673.723 93.4727V93.7012C673.723 95.5527 673.365 97.2168 672.65 98.6934C671.947 100.158 670.934 101.301 669.609 102.121C668.297 102.941 666.785 103.352 665.074 103.352C662.496 103.352 660.404 102.455 658.799 100.662C657.205 98.8691 656.408 96.4961 656.408 93.543V93.3145ZM659.678 93.7012C659.678 95.8105 660.164 97.5039 661.137 98.7812C662.121 100.059 663.434 100.697 665.074 100.697C666.727 100.697 668.039 100.053 669.012 98.7637C669.984 97.4629 670.471 95.6465 670.471 93.3145C670.471 91.2285 669.973 89.541 668.977 88.252C667.992 86.9512 666.68 86.3008 665.039 86.3008C663.434 86.3008 662.139 86.9395 661.154 88.2168C660.17 89.4941 659.678 91.3223 659.678 93.7012ZM666.516 76H670.453L665.742 81.168H663.123L666.516 76Z" fill="white"/>
<path d="M680.877 83.9805L680.982 86.3711C682.436 84.543 684.334 83.6289 686.678 83.6289C690.697 83.6289 692.725 85.8965 692.76 90.4316V103H689.508V90.4141C689.496 89.043 689.18 88.0293 688.559 87.373C687.949 86.7168 686.994 86.3887 685.693 86.3887C684.639 86.3887 683.713 86.6699 682.916 87.2324C682.119 87.7949 681.498 88.5332 681.053 89.4473V103H677.801V83.9805H680.877Z" fill="white"/>
<path d="M110.52 125.98L110.607 128.09C112.002 126.449 113.883 125.629 116.25 125.629C118.91 125.629 120.721 126.648 121.682 128.688C122.314 127.773 123.135 127.035 124.143 126.473C125.162 125.91 126.363 125.629 127.746 125.629C131.918 125.629 134.039 127.838 134.109 132.256V145H130.857V132.449C130.857 131.09 130.547 130.076 129.926 129.408C129.305 128.729 128.262 128.389 126.797 128.389C125.59 128.389 124.588 128.752 123.791 129.479C122.994 130.193 122.531 131.16 122.402 132.379V145H119.133V132.537C119.133 129.771 117.779 128.389 115.072 128.389C112.939 128.389 111.48 129.297 110.695 131.113V145H107.443V125.98H110.52Z" fill="white"/>
<path d="M150.773 145C150.586 144.625 150.434 143.957 150.316 142.996C148.805 144.566 147 145.352 144.902 145.352C143.027 145.352 141.486 144.824 140.279 143.77C139.084 142.703 138.486 141.355 138.486 139.727C138.486 137.746 139.236 136.211 140.736 135.121C142.248 134.02 144.369 133.469 147.1 133.469H150.264V131.975C150.264 130.838 149.924 129.936 149.244 129.268C148.564 128.588 147.562 128.248 146.238 128.248C145.078 128.248 144.105 128.541 143.32 129.127C142.535 129.713 142.143 130.422 142.143 131.254H138.873C138.873 130.305 139.207 129.391 139.875 128.512C140.555 127.621 141.469 126.918 142.617 126.402C143.777 125.887 145.049 125.629 146.432 125.629C148.623 125.629 150.34 126.18 151.582 127.281C152.824 128.371 153.469 129.877 153.516 131.799V140.553C153.516 142.299 153.738 143.688 154.184 144.719V145H150.773ZM145.377 142.521C146.396 142.521 147.363 142.258 148.277 141.73C149.191 141.203 149.854 140.518 150.264 139.674V135.771H147.715C143.73 135.771 141.738 136.938 141.738 139.27C141.738 140.289 142.078 141.086 142.758 141.66C143.438 142.234 144.311 142.521 145.377 142.521Z" fill="white"/>
<path d="M163.025 121.375V125.98H166.576V128.494H163.025V140.289C163.025 141.051 163.184 141.625 163.5 142.012C163.816 142.387 164.355 142.574 165.117 142.574C165.492 142.574 166.008 142.504 166.664 142.363V145C165.809 145.234 164.977 145.352 164.168 145.352C162.715 145.352 161.619 144.912 160.881 144.033C160.143 143.154 159.773 141.906 159.773 140.289V128.494H156.311V125.98H159.773V121.375H163.025Z" fill="white"/>
<path d="M178.283 145.352C175.705 145.352 173.607 144.508 171.99 142.82C170.373 141.121 169.564 138.854 169.564 136.018V135.42C169.564 133.533 169.922 131.852 170.637 130.375C171.363 128.887 172.371 127.727 173.66 126.895C174.961 126.051 176.367 125.629 177.879 125.629C180.352 125.629 182.273 126.443 183.645 128.072C185.016 129.701 185.701 132.033 185.701 135.068V136.422H172.816C172.863 138.297 173.408 139.814 174.451 140.975C175.506 142.123 176.842 142.697 178.459 142.697C179.607 142.697 180.58 142.463 181.377 141.994C182.174 141.525 182.871 140.904 183.469 140.131L185.455 141.678C183.861 144.127 181.471 145.352 178.283 145.352ZM177.879 128.301C176.566 128.301 175.465 128.781 174.574 129.742C173.684 130.691 173.133 132.027 172.922 133.75H182.449V133.504C182.355 131.852 181.91 130.574 181.113 129.672C180.316 128.758 179.238 128.301 177.879 128.301Z" fill="white"/>
<path d="M192.539 125.98L192.627 128.09C194.021 126.449 195.902 125.629 198.27 125.629C200.93 125.629 202.74 126.648 203.701 128.688C204.334 127.773 205.154 127.035 206.162 126.473C207.182 125.91 208.383 125.629 209.766 125.629C213.938 125.629 216.059 127.838 216.129 132.256V145H212.877V132.449C212.877 131.09 212.566 130.076 211.945 129.408C211.324 128.729 210.281 128.389 208.816 128.389C207.609 128.389 206.607 128.752 205.811 129.479C205.014 130.193 204.551 131.16 204.422 132.379V145H201.152V132.537C201.152 129.771 199.799 128.389 197.092 128.389C194.959 128.389 193.5 129.297 192.715 131.113V145H189.463V125.98H192.539Z" fill="white"/>
<path d="M232.793 145C232.605 144.625 232.453 143.957 232.336 142.996C230.824 144.566 229.02 145.352 226.922 145.352C225.047 145.352 223.506 144.824 222.299 143.77C221.104 142.703 220.506 141.355 220.506 139.727C220.506 137.746 221.256 136.211 222.756 135.121C224.268 134.02 226.389 133.469 229.119 133.469H232.283V131.975C232.283 130.838 231.943 129.936 231.264 129.268C230.584 128.588 229.582 128.248 228.258 128.248C227.098 128.248 226.125 128.541 225.34 129.127C224.555 129.713 224.162 130.422 224.162 131.254H220.893C220.893 130.305 221.227 129.391 221.895 128.512C222.574 127.621 223.488 126.918 224.637 126.402C225.797 125.887 227.068 125.629 228.451 125.629C230.643 125.629 232.359 126.18 233.602 127.281C234.844 128.371 235.488 129.877 235.535 131.799V140.553C235.535 142.299 235.758 143.688 236.203 144.719V145H232.793ZM227.396 142.521C228.416 142.521 229.383 142.258 230.297 141.73C231.211 141.203 231.873 140.518 232.283 139.674V135.771H229.734C225.75 135.771 223.758 136.938 223.758 139.27C223.758 140.289 224.098 141.086 224.777 141.66C225.457 142.234 226.33 142.521 227.396 142.521ZM230.402 118H234.34L229.629 123.168H227.01L230.402 118Z" fill="white"/>
<path d="M245.045 121.375V125.98H248.596V128.494H245.045V140.289C245.045 141.051 245.203 141.625 245.52 142.012C245.836 142.387 246.375 142.574 247.137 142.574C247.512 142.574 248.027 142.504 248.684 142.363V145C247.828 145.234 246.996 145.352 246.188 145.352C244.734 145.352 243.639 144.912 242.9 144.033C242.162 143.154 241.793 141.906 241.793 140.289V128.494H238.33V125.98H241.793V121.375H245.045Z" fill="white"/>
<path d="M255.943 145H252.691V125.98H255.943V145ZM252.428 120.936C252.428 120.408 252.586 119.963 252.902 119.6C253.23 119.236 253.711 119.055 254.344 119.055C254.977 119.055 255.457 119.236 255.785 119.6C256.113 119.963 256.277 120.408 256.277 120.936C256.277 121.463 256.113 121.902 255.785 122.254C255.457 122.605 254.977 122.781 254.344 122.781C253.711 122.781 253.23 122.605 252.902 122.254C252.586 121.902 252.428 121.463 252.428 120.936Z" fill="white"/>
<path d="M268.793 142.697C269.953 142.697 270.967 142.346 271.834 141.643C272.701 140.939 273.182 140.061 273.275 139.006H276.352C276.293 140.096 275.918 141.133 275.227 142.117C274.535 143.102 273.609 143.887 272.449 144.473C271.301 145.059 270.082 145.352 268.793 145.352C266.203 145.352 264.141 144.49 262.605 142.768C261.082 141.033 260.32 138.666 260.32 135.666V135.121C260.32 133.27 260.66 131.623 261.34 130.182C262.02 128.74 262.992 127.621 264.258 126.824C265.535 126.027 267.041 125.629 268.775 125.629C270.908 125.629 272.678 126.268 274.084 127.545C275.502 128.822 276.258 130.48 276.352 132.52H273.275C273.182 131.289 272.713 130.281 271.869 129.496C271.037 128.699 270.006 128.301 268.775 128.301C267.123 128.301 265.84 128.898 264.926 130.094C264.023 131.277 263.572 132.994 263.572 135.244V135.859C263.572 138.051 264.023 139.738 264.926 140.922C265.828 142.105 267.117 142.697 268.793 142.697Z" fill="white"/>
<path d="M291.75 145C291.562 144.625 291.41 143.957 291.293 142.996C289.781 144.566 287.977 145.352 285.879 145.352C284.004 145.352 282.463 144.824 281.256 143.77C280.061 142.703 279.463 141.355 279.463 139.727C279.463 137.746 280.213 136.211 281.713 135.121C283.225 134.02 285.346 133.469 288.076 133.469H291.24V131.975C291.24 130.838 290.9 129.936 290.221 129.268C289.541 128.588 288.539 128.248 287.215 128.248C286.055 128.248 285.082 128.541 284.297 129.127C283.512 129.713 283.119 130.422 283.119 131.254H279.85C279.85 130.305 280.184 129.391 280.852 128.512C281.531 127.621 282.445 126.918 283.594 126.402C284.754 125.887 286.025 125.629 287.408 125.629C289.6 125.629 291.316 126.18 292.559 127.281C293.801 128.371 294.445 129.877 294.492 131.799V140.553C294.492 142.299 294.715 143.688 295.16 144.719V145H291.75ZM286.354 142.521C287.373 142.521 288.34 142.258 289.254 141.73C290.168 141.203 290.83 140.518 291.24 139.674V135.771H288.691C284.707 135.771 282.715 136.938 282.715 139.27C282.715 140.289 283.055 141.086 283.734 141.66C284.414 142.234 285.287 142.521 286.354 142.521Z" fill="white"/>
<path d="M299.66 143.295C299.66 142.732 299.824 142.264 300.152 141.889C300.492 141.514 300.996 141.326 301.664 141.326C302.332 141.326 302.836 141.514 303.176 141.889C303.527 142.264 303.703 142.732 303.703 143.295C303.703 143.834 303.527 144.285 303.176 144.648C302.836 145.012 302.332 145.193 301.664 145.193C300.996 145.193 300.492 145.012 300.152 144.648C299.824 144.285 299.66 143.834 299.66 143.295Z" fill="white"/>
<path d="M107.971 439V413.406H115.195C117.422 413.406 119.391 413.898 121.102 414.883C122.812 415.867 124.131 417.268 125.057 419.084C125.994 420.9 126.469 422.986 126.48 425.342V426.977C126.48 429.391 126.012 431.506 125.074 433.322C124.148 435.139 122.818 436.533 121.084 437.506C119.361 438.479 117.352 438.977 115.055 439H107.971ZM111.346 416.184V436.24H114.896C117.498 436.24 119.52 435.432 120.961 433.814C122.414 432.197 123.141 429.895 123.141 426.906V425.412C123.141 422.506 122.455 420.25 121.084 418.645C119.725 417.027 117.791 416.207 115.283 416.184H111.346Z" fill="white"/>
<path d="M138.979 439.352C136.4 439.352 134.303 438.508 132.686 436.82C131.068 435.121 130.26 432.854 130.26 430.018V429.42C130.26 427.533 130.617 425.852 131.332 424.375C132.059 422.887 133.066 421.727 134.355 420.895C135.656 420.051 137.062 419.629 138.574 419.629C141.047 419.629 142.969 420.443 144.34 422.072C145.711 423.701 146.396 426.033 146.396 429.068V430.422H133.512C133.559 432.297 134.104 433.814 135.146 434.975C136.201 436.123 137.537 436.697 139.154 436.697C140.303 436.697 141.275 436.463 142.072 435.994C142.869 435.525 143.566 434.904 144.164 434.131L146.15 435.678C144.557 438.127 142.166 439.352 138.979 439.352ZM138.574 422.301C137.262 422.301 136.16 422.781 135.27 423.742C134.379 424.691 133.828 426.027 133.617 427.75H143.145V427.504C143.051 425.852 142.605 424.574 141.809 423.672C141.012 422.758 139.934 422.301 138.574 422.301Z" fill="white"/>
<path d="M154.588 415.375V419.98H158.139V422.494H154.588V434.289C154.588 435.051 154.746 435.625 155.062 436.012C155.379 436.387 155.918 436.574 156.68 436.574C157.055 436.574 157.57 436.504 158.227 436.363V439C157.371 439.234 156.539 439.352 155.73 439.352C154.277 439.352 153.182 438.912 152.443 438.033C151.705 437.154 151.336 435.906 151.336 434.289V422.494H147.873V419.98H151.336V415.375H154.588Z" fill="white"/>
<path d="M169.846 439.352C167.268 439.352 165.17 438.508 163.553 436.82C161.936 435.121 161.127 432.854 161.127 430.018V429.42C161.127 427.533 161.484 425.852 162.199 424.375C162.926 422.887 163.934 421.727 165.223 420.895C166.523 420.051 167.93 419.629 169.441 419.629C171.914 419.629 173.836 420.443 175.207 422.072C176.578 423.701 177.264 426.033 177.264 429.068V430.422H164.379C164.426 432.297 164.971 433.814 166.014 434.975C167.068 436.123 168.404 436.697 170.021 436.697C171.17 436.697 172.143 436.463 172.939 435.994C173.736 435.525 174.434 434.904 175.031 434.131L177.018 435.678C175.424 438.127 173.033 439.352 169.846 439.352ZM169.441 422.301C168.129 422.301 167.027 422.781 166.137 423.742C165.246 424.691 164.695 426.027 164.484 427.75H174.012V427.504C173.918 425.852 173.473 424.574 172.676 423.672C171.879 422.758 170.801 422.301 169.441 422.301Z" fill="white"/>
<path d="M190.236 422.898C189.744 422.816 189.211 422.775 188.637 422.775C186.504 422.775 185.057 423.684 184.295 425.5V439H181.043V419.98H184.207L184.26 422.178C185.326 420.479 186.838 419.629 188.795 419.629C189.428 419.629 189.908 419.711 190.236 419.875V422.898Z" fill="white"/>
<path d="M196.301 419.98L196.389 422.09C197.783 420.449 199.664 419.629 202.031 419.629C204.691 419.629 206.502 420.648 207.463 422.688C208.096 421.773 208.916 421.035 209.924 420.473C210.943 419.91 212.145 419.629 213.527 419.629C217.699 419.629 219.82 421.838 219.891 426.256V439H216.639V426.449C216.639 425.09 216.328 424.076 215.707 423.408C215.086 422.729 214.043 422.389 212.578 422.389C211.371 422.389 210.369 422.752 209.572 423.479C208.775 424.193 208.312 425.16 208.184 426.379V439H204.914V426.537C204.914 423.771 203.561 422.389 200.854 422.389C198.721 422.389 197.262 423.297 196.477 425.113V439H193.225V419.98H196.301Z" fill="white"/>
<path d="M228.346 439H225.094V419.98H228.346V439ZM224.83 414.936C224.83 414.408 224.988 413.963 225.305 413.6C225.633 413.236 226.113 413.055 226.746 413.055C227.379 413.055 227.859 413.236 228.188 413.6C228.516 413.963 228.68 414.408 228.68 414.936C228.68 415.463 228.516 415.902 228.188 416.254C227.859 416.605 227.379 416.781 226.746 416.781C226.113 416.781 225.633 416.605 225.305 416.254C224.988 415.902 224.83 415.463 224.83 414.936Z" fill="white"/>
<path d="M236.643 419.98L236.748 422.371C238.201 420.543 240.1 419.629 242.443 419.629C246.463 419.629 248.49 421.896 248.525 426.432V439H245.273V426.414C245.262 425.043 244.945 424.029 244.324 423.373C243.715 422.717 242.76 422.389 241.459 422.389C240.404 422.389 239.479 422.67 238.682 423.232C237.885 423.795 237.264 424.533 236.818 425.447V439H233.566V419.98H236.643Z" fill="white"/>
<path d="M265.172 439C264.984 438.625 264.832 437.957 264.715 436.996C263.203 438.566 261.398 439.352 259.301 439.352C257.426 439.352 255.885 438.824 254.678 437.77C253.482 436.703 252.885 435.355 252.885 433.727C252.885 431.746 253.635 430.211 255.135 429.121C256.646 428.02 258.768 427.469 261.498 427.469H264.662V425.975C264.662 424.838 264.322 423.936 263.643 423.268C262.963 422.588 261.961 422.248 260.637 422.248C259.477 422.248 258.504 422.541 257.719 423.127C256.934 423.713 256.541 424.422 256.541 425.254H253.271C253.271 424.305 253.605 423.391 254.273 422.512C254.953 421.621 255.867 420.918 257.016 420.402C258.176 419.887 259.447 419.629 260.83 419.629C263.021 419.629 264.738 420.18 265.98 421.281C267.223 422.371 267.867 423.877 267.914 425.799V434.553C267.914 436.299 268.137 437.688 268.582 438.719V439H265.172ZM259.775 436.521C260.795 436.521 261.762 436.258 262.676 435.73C263.59 435.203 264.252 434.518 264.662 433.674V429.771H262.113C258.129 429.771 256.137 430.938 256.137 433.27C256.137 434.289 256.477 435.086 257.156 435.66C257.836 436.234 258.709 436.521 259.775 436.521Z" fill="white"/>
<path d="M289.834 439.352C287.256 439.352 285.158 438.508 283.541 436.82C281.924 435.121 281.115 432.854 281.115 430.018V429.42C281.115 427.533 281.473 425.852 282.188 424.375C282.914 422.887 283.922 421.727 285.211 420.895C286.512 420.051 287.918 419.629 289.43 419.629C291.902 419.629 293.824 420.443 295.195 422.072C296.566 423.701 297.252 426.033 297.252 429.068V430.422H284.367C284.414 432.297 284.959 433.814 286.002 434.975C287.057 436.123 288.393 436.697 290.01 436.697C291.158 436.697 292.131 436.463 292.928 435.994C293.725 435.525 294.422 434.904 295.02 434.131L297.006 435.678C295.412 438.127 293.021 439.352 289.834 439.352ZM289.43 422.301C288.117 422.301 287.016 422.781 286.125 423.742C285.234 424.691 284.684 426.027 284.473 427.75H294V427.504C293.906 425.852 293.461 424.574 292.664 423.672C291.867 422.758 290.789 422.301 289.43 422.301Z" fill="white"/>
<path d="M304.564 439H301.312V412H304.564V439Z" fill="white"/>
<path d="M324.99 434.588L329.701 419.98H333.023L326.203 439H323.725L316.834 419.98H320.156L324.99 434.588Z" fill="white"/>
<path d="M347.613 439C347.426 438.625 347.273 437.957 347.156 436.996C345.645 438.566 343.84 439.352 341.742 439.352C339.867 439.352 338.326 438.824 337.119 437.77C335.924 436.703 335.326 435.355 335.326 433.727C335.326 431.746 336.076 430.211 337.576 429.121C339.088 428.02 341.209 427.469 343.939 427.469H347.104V425.975C347.104 424.838 346.764 423.936 346.084 423.268C345.404 422.588 344.402 422.248 343.078 422.248C341.918 422.248 340.945 422.541 340.16 423.127C339.375 423.713 338.982 424.422 338.982 425.254H335.713C335.713 424.305 336.047 423.391 336.715 422.512C337.395 421.621 338.309 420.918 339.457 420.402C340.617 419.887 341.889 419.629 343.271 419.629C345.463 419.629 347.18 420.18 348.422 421.281C349.664 422.371 350.309 423.877 350.355 425.799V434.553C350.355 436.299 350.578 437.688 351.023 438.719V439H347.613ZM342.217 436.521C343.236 436.521 344.203 436.258 345.117 435.73C346.031 435.203 346.693 434.518 347.104 433.674V429.771H344.555C340.57 429.771 338.578 430.938 338.578 433.27C338.578 434.289 338.918 435.086 339.598 435.66C340.277 436.234 341.15 436.521 342.217 436.521Z" fill="white"/>
<path d="M358.986 439H355.734V412H358.986V439Z" fill="white"/>
<path d="M363.346 429.314C363.346 427.451 363.709 425.775 364.436 424.287C365.174 422.799 366.193 421.65 367.494 420.842C368.807 420.033 370.301 419.629 371.977 419.629C374.566 419.629 376.658 420.525 378.252 422.318C379.857 424.111 380.66 426.496 380.66 429.473V429.701C380.66 431.553 380.303 433.217 379.588 434.693C378.885 436.158 377.871 437.301 376.547 438.121C375.234 438.941 373.723 439.352 372.012 439.352C369.434 439.352 367.342 438.455 365.736 436.662C364.143 434.869 363.346 432.496 363.346 429.543V429.314ZM366.615 429.701C366.615 431.811 367.102 433.504 368.074 434.781C369.059 436.059 370.371 436.697 372.012 436.697C373.664 436.697 374.977 436.053 375.949 434.764C376.922 433.463 377.408 431.646 377.408 429.314C377.408 427.229 376.91 425.541 375.914 424.252C374.93 422.951 373.617 422.301 371.977 422.301C370.371 422.301 369.076 422.939 368.092 424.217C367.107 425.494 366.615 427.322 366.615 429.701Z" fill="white"/>
<path d="M393.932 422.898C393.439 422.816 392.906 422.775 392.332 422.775C390.199 422.775 388.752 423.684 387.99 425.5V439H384.738V419.98H387.902L387.955 422.178C389.021 420.479 390.533 419.629 392.49 419.629C393.123 419.629 393.604 419.711 393.932 419.875V422.898Z" fill="white"/>
<path d="M405.076 429.332C405.076 426.414 405.768 424.07 407.15 422.301C408.533 420.52 410.344 419.629 412.582 419.629C414.809 419.629 416.572 420.391 417.873 421.914V412H421.125V439H418.137L417.979 436.961C416.678 438.555 414.867 439.352 412.547 439.352C410.344 439.352 408.545 438.449 407.15 436.645C405.768 434.84 405.076 432.484 405.076 429.578V429.332ZM408.328 429.701C408.328 431.857 408.773 433.545 409.664 434.764C410.555 435.982 411.785 436.592 413.355 436.592C415.418 436.592 416.924 435.666 417.873 433.814V425.078C416.9 423.285 415.406 422.389 413.391 422.389C411.797 422.389 410.555 423.004 409.664 424.234C408.773 425.465 408.328 427.287 408.328 429.701Z" fill="white"/>
<path d="M434.08 439.352C431.502 439.352 429.404 438.508 427.787 436.82C426.17 435.121 425.361 432.854 425.361 430.018V429.42C425.361 427.533 425.719 425.852 426.434 424.375C427.16 422.887 428.168 421.727 429.457 420.895C430.758 420.051 432.164 419.629 433.676 419.629C436.148 419.629 438.07 420.443 439.441 422.072C440.812 423.701 441.498 426.033 441.498 429.068V430.422H428.613C428.66 432.297 429.205 433.814 430.248 434.975C431.303 436.123 432.639 436.697 434.256 436.697C435.404 436.697 436.377 436.463 437.174 435.994C437.971 435.525 438.668 434.904 439.266 434.131L441.252 435.678C439.658 438.127 437.268 439.352 434.08 439.352ZM433.676 422.301C432.363 422.301 431.262 422.781 430.371 423.742C429.48 424.691 428.93 426.027 428.719 427.75H438.246V427.504C438.152 425.852 437.707 424.574 436.91 423.672C436.113 422.758 435.035 422.301 433.676 422.301Z" fill="white"/>
</g>
</g>
<g id="k\;\;\;=(k+1)^2\;&#10;Si: \;\;\;n\;\;\;=100\;&#10;n^2+2n+6.&#10;">
<g id="Group">
<g id="Group 164">
<g id="Group_2">
<path id="Vector" d="M337.575 181.356C337.575 181.121 337.622 180.851 337.716 180.545C337.81 180.239 337.952 180.086 338.14 180.086C338.163 180.086 339.01 180.028 340.68 179.91C342.35 179.792 343.208 179.722 343.255 179.698C343.537 179.698 343.678 179.792 343.678 179.981C343.678 180.145 343.09 182.603 341.914 187.354C340.738 192.01 340.151 194.421 340.151 194.586C340.597 194.35 340.938 194.127 341.174 193.915C341.738 193.492 342.549 192.751 343.608 191.693C344.666 190.634 345.489 189.917 346.077 189.541C347.018 188.906 347.912 188.588 348.758 188.588C349.464 188.588 350.017 188.812 350.416 189.259C350.816 189.705 351.028 190.34 351.051 191.164C351.051 191.752 350.969 192.245 350.804 192.645C350.64 193.045 350.416 193.339 350.134 193.527C349.852 193.715 349.605 193.845 349.393 193.915C349.182 193.986 348.97 194.021 348.758 194.021C348.288 194.021 347.912 193.892 347.629 193.633C347.347 193.374 347.206 193.033 347.206 192.61C347.206 192.022 347.394 191.54 347.771 191.164C348.147 190.787 348.523 190.54 348.899 190.423L349.464 190.317C349.182 190.035 348.899 189.894 348.617 189.894H348.476C347.723 189.964 346.983 190.258 346.254 190.776C345.525 191.293 344.666 192.046 343.678 193.033C342.691 194.021 341.914 194.738 341.35 195.185C341.397 195.209 341.573 195.244 341.879 195.291C342.185 195.338 342.467 195.409 342.726 195.503C342.985 195.597 343.29 195.691 343.643 195.785C343.996 195.879 344.313 196.044 344.596 196.279C344.878 196.514 345.136 196.726 345.372 196.914C345.607 197.102 345.807 197.408 345.971 197.831C346.136 198.254 346.207 198.642 346.183 198.995C346.183 199.395 346.124 199.877 346.007 200.442C345.889 201.006 345.818 201.476 345.795 201.853C345.795 202.793 346.112 203.264 346.747 203.264C347.876 203.264 348.794 201.864 349.499 199.066C349.546 198.878 349.781 198.784 350.205 198.784H350.346C350.722 198.784 350.91 198.889 350.91 199.101C350.91 199.219 350.875 199.383 350.804 199.595C349.84 202.911 348.453 204.569 346.642 204.569C345.583 204.569 344.725 204.263 344.066 203.652C343.408 203.04 343.079 202.158 343.079 201.006C343.079 200.583 343.114 200.218 343.184 199.912C343.255 199.607 343.29 199.324 343.29 199.066C343.29 198.548 343.126 198.102 342.796 197.725C342.467 197.349 342.056 197.078 341.562 196.914C341.068 196.749 340.668 196.62 340.362 196.526C340.056 196.432 339.845 196.396 339.727 196.42H339.657C339.374 197.408 339.127 198.36 338.916 199.277C338.704 200.195 338.54 200.877 338.422 201.324C338.304 201.77 338.199 202.205 338.104 202.629C338.01 203.052 337.928 203.334 337.857 203.475C337.787 203.617 337.705 203.769 337.611 203.934C337.516 204.099 337.387 204.205 337.222 204.252C336.917 204.463 336.587 204.569 336.235 204.569C335.835 204.569 335.529 204.451 335.317 204.216C335.106 203.981 335 203.781 335 203.617C335 203.381 335.435 201.5 336.305 197.972C337.175 194.444 338.034 190.975 338.881 187.565L340.186 182.45C340.209 182.144 340.127 181.956 339.939 181.886C339.751 181.815 339.292 181.756 338.563 181.709H338.387C338.151 181.709 337.999 181.709 337.928 181.709C337.857 181.709 337.775 181.674 337.681 181.603C337.587 181.533 337.552 181.45 337.575 181.356Z" fill="white"/>
</g>
<path id="Ellipse 20 (Stroke)" fill-rule="evenodd" clip-rule="evenodd" d="M345 226C365.435 226 382 209.435 382 189C382 168.565 365.435 152 345 152C324.565 152 308 168.565 308 189C308 209.435 324.565 226 345 226ZM345 229C367.091 229 385 211.091 385 189C385 166.909 367.091 149 345 149C322.909 149 305 166.909 305 189C305 211.091 322.909 229 345 229Z" fill="white"/>
<g id="Group_3">
<path id="Vector_2" d="M392.859 191.939C392.859 191.633 393.024 191.398 393.353 191.234H415.825C416.177 191.422 416.354 191.657 416.354 191.939C416.354 192.198 416.189 192.421 415.86 192.609L404.642 192.645H393.423C393.047 192.527 392.859 192.292 392.859 191.939ZM392.859 198.783C392.859 198.43 393.047 198.195 393.423 198.077H415.86C416.189 198.313 416.354 198.548 416.354 198.783C416.354 199.089 416.177 199.324 415.825 199.489H393.353C393.024 199.324 392.859 199.089 392.859 198.783Z" fill="white"/>
</g>
<g id="Group_4">
<path id="Vector_3" d="M431.445 195.361C431.445 193.738 431.562 192.197 431.798 190.739C432.033 189.281 432.303 188.023 432.609 186.965C432.915 185.906 433.35 184.871 433.914 183.86C434.479 182.849 434.926 182.061 435.255 181.497C435.584 180.932 436.078 180.321 436.736 179.662C437.395 179.004 437.783 178.604 437.901 178.463C438.018 178.322 438.312 178.075 438.783 177.722H439.241H439.382C439.712 177.722 439.876 177.828 439.876 178.039C439.876 178.11 439.676 178.357 439.276 178.78C438.877 179.204 438.395 179.827 437.83 180.65C437.266 181.473 436.689 182.484 436.101 183.684C435.514 184.883 435.02 186.506 434.62 188.552C434.22 190.598 434.02 192.868 434.02 195.361C434.02 197.854 434.22 200.111 434.62 202.134C435.02 204.157 435.502 205.791 436.066 207.038C436.631 208.284 437.207 209.295 437.795 210.071C438.383 210.848 438.877 211.471 439.276 211.941C439.676 212.412 439.876 212.658 439.876 212.682C439.876 212.894 439.7 213 439.347 213H439.241H438.783L437.795 212.153C435.584 210.154 433.973 207.661 432.962 204.674C431.95 201.687 431.445 198.583 431.445 195.361Z" fill="white"/>
</g>
<g id="Group_5">
<path id="Vector_4" d="M446.122 181.356C446.122 181.121 446.169 180.851 446.263 180.545C446.357 180.239 446.498 180.086 446.686 180.086C446.71 180.086 447.556 180.028 449.226 179.91C450.896 179.792 451.754 179.722 451.801 179.698C452.084 179.698 452.225 179.792 452.225 179.981C452.225 180.145 451.637 182.603 450.461 187.354C449.285 192.01 448.697 194.421 448.697 194.586C449.144 194.35 449.485 194.127 449.72 193.915C450.284 193.492 451.096 192.751 452.154 191.693C453.212 190.634 454.036 189.917 454.624 189.541C455.564 188.906 456.458 188.588 457.305 188.588C458.01 188.588 458.563 188.812 458.963 189.259C459.363 189.705 459.574 190.34 459.598 191.164C459.598 191.752 459.515 192.245 459.351 192.645C459.186 193.045 458.963 193.339 458.681 193.527C458.398 193.715 458.151 193.845 457.94 193.915C457.728 193.986 457.516 194.021 457.305 194.021C456.834 194.021 456.458 193.892 456.176 193.633C455.894 193.374 455.752 193.033 455.752 192.61C455.752 192.022 455.941 191.54 456.317 191.164C456.693 190.787 457.069 190.54 457.446 190.423L458.01 190.317C457.728 190.035 457.446 189.894 457.164 189.894H457.022C456.27 189.964 455.529 190.258 454.8 190.776C454.071 191.293 453.212 192.046 452.225 193.033C451.237 194.021 450.461 194.738 449.896 195.185C449.943 195.209 450.12 195.244 450.426 195.291C450.731 195.338 451.013 195.409 451.272 195.503C451.531 195.597 451.837 195.691 452.189 195.785C452.542 195.879 452.86 196.044 453.142 196.279C453.424 196.514 453.683 196.726 453.918 196.914C454.153 197.102 454.353 197.408 454.518 197.831C454.682 198.254 454.753 198.642 454.729 198.995C454.729 199.395 454.671 199.877 454.553 200.442C454.435 201.006 454.365 201.476 454.341 201.853C454.341 202.793 454.659 203.264 455.294 203.264C456.423 203.264 457.34 201.864 458.046 199.066C458.093 198.878 458.328 198.784 458.751 198.784H458.892C459.268 198.784 459.457 198.889 459.457 199.101C459.457 199.219 459.421 199.383 459.351 199.595C458.387 202.911 456.999 204.569 455.188 204.569C454.13 204.569 453.271 204.263 452.613 203.652C451.954 203.04 451.625 202.158 451.625 201.006C451.625 200.583 451.66 200.218 451.731 199.912C451.801 199.607 451.837 199.324 451.837 199.066C451.837 198.548 451.672 198.102 451.343 197.725C451.013 197.349 450.602 197.078 450.108 196.914C449.614 196.749 449.214 196.62 448.909 196.526C448.603 196.432 448.391 196.396 448.274 196.42H448.203C447.921 197.408 447.674 198.36 447.462 199.277C447.251 200.195 447.086 200.877 446.968 201.324C446.851 201.77 446.745 202.205 446.651 202.629C446.557 203.052 446.474 203.334 446.404 203.475C446.333 203.617 446.251 203.769 446.157 203.934C446.063 204.099 445.934 204.205 445.769 204.252C445.463 204.463 445.134 204.569 444.781 204.569C444.381 204.569 444.076 204.451 443.864 204.216C443.652 203.981 443.546 203.781 443.546 203.617C443.546 203.381 443.981 201.5 444.852 197.972C445.722 194.444 446.58 190.975 447.427 187.565L448.732 182.45C448.756 182.144 448.673 181.956 448.485 181.886C448.297 181.815 447.839 181.756 447.109 181.709H446.933C446.698 181.709 446.545 181.709 446.474 181.709C446.404 181.709 446.322 181.674 446.227 181.603C446.133 181.533 446.098 181.45 446.122 181.356Z" fill="white"/>
</g>
<g id="Group_6">
<path id="Vector_5" d="M470.047 195.819C470.047 195.819 470.047 195.666 470.047 195.361C470.047 195.055 470.212 194.82 470.541 194.655H481.089V189.363L481.125 184.072C481.36 183.766 481.583 183.613 481.795 183.613C482.101 183.613 482.336 183.789 482.5 184.142V194.655H493.013C493.366 194.843 493.542 195.078 493.542 195.361C493.542 195.643 493.366 195.878 493.013 196.066H482.5V206.579C482.312 206.908 482.101 207.073 481.865 207.073H481.795H481.724C481.442 207.073 481.23 206.908 481.089 206.579V196.066H470.541C470.212 195.901 470.047 195.666 470.047 195.361V195.819Z" fill="white"/>
</g>
<g id="Group_7">
<path id="Vector_6" d="M510.869 183.79L510.411 183.967C510.081 184.084 509.611 184.202 509 184.319C508.388 184.437 507.706 184.519 506.953 184.566H506.283V182.944H506.953C508.059 182.896 509.082 182.72 510.023 182.414C510.963 182.109 511.622 181.826 511.998 181.568C512.374 181.309 512.704 181.05 512.986 180.792C513.033 180.721 513.174 180.686 513.409 180.686C513.621 180.686 513.821 180.756 514.009 180.897V191.445L514.044 202.029C514.209 202.193 514.35 202.299 514.468 202.346C514.585 202.393 514.867 202.44 515.314 202.487C515.761 202.534 516.49 202.558 517.501 202.558H518.419V204.181H518.031C517.537 204.11 515.667 204.075 512.422 204.075C509.223 204.075 507.377 204.11 506.883 204.181H506.46V202.558H507.377C507.894 202.558 508.341 202.558 508.717 202.558C509.094 202.558 509.388 202.546 509.599 202.523C509.811 202.499 509.999 202.464 510.164 202.417C510.328 202.37 510.422 202.346 510.446 202.346C510.469 202.346 510.54 202.287 510.658 202.17C510.775 202.052 510.846 202.005 510.869 202.029V183.79Z" fill="white"/>
</g>
<g id="Group_8">
<g id="Group_9">
<path id="Vector_7" d="M523.11 177.757L523.252 177.722C523.369 177.722 523.487 177.722 523.604 177.722H524.028L525.015 178.569C527.226 180.568 528.837 183.061 529.849 186.047C530.86 189.034 531.365 192.139 531.365 195.361C531.365 196.96 531.248 198.5 531.013 199.982C530.777 201.464 530.507 202.722 530.201 203.757C529.896 204.792 529.46 205.826 528.896 206.861C528.332 207.896 527.885 208.684 527.555 209.225C527.226 209.766 526.744 210.365 526.109 211.024C525.474 211.682 525.098 212.071 524.98 212.188C524.863 212.306 524.592 212.529 524.169 212.858C524.098 212.929 524.051 212.976 524.028 213H523.604C523.416 213 523.287 213 523.216 213C523.146 213 523.087 212.964 523.04 212.894C522.993 212.823 522.958 212.717 522.934 212.576C522.958 212.553 523.087 212.4 523.322 212.118C526.967 208.331 528.79 202.745 528.79 195.361C528.79 187.976 526.967 182.39 523.322 178.604C523.087 178.322 522.958 178.169 522.934 178.145C522.934 177.957 522.993 177.828 523.11 177.757Z" fill="white"/>
</g>
<g id="Group_10">
<path id="Vector_8" d="M537.436 178.911C536.987 178.911 536.629 178.761 536.363 178.462C536.097 178.163 535.964 177.797 535.964 177.365C535.964 176.184 536.405 175.162 537.286 174.297C538.168 173.432 539.265 173 540.578 173C542.092 173 543.355 173.465 544.37 174.397C545.384 175.328 545.899 176.533 545.916 178.013C545.916 178.728 545.75 179.41 545.417 180.058C545.085 180.707 544.685 181.272 544.22 181.754C543.754 182.237 543.089 182.852 542.225 183.6C541.626 184.115 540.795 184.88 539.73 185.895L538.259 187.291L540.154 187.316C542.765 187.316 544.153 187.275 544.32 187.192C544.436 187.158 544.636 186.418 544.918 184.972V184.897H545.916V184.972C545.899 185.022 545.791 185.778 545.592 187.241C545.392 188.705 545.267 189.47 545.218 189.536V189.611H535.964V189.137V188.838C535.964 188.721 536.014 188.597 536.114 188.464C536.214 188.331 536.463 188.04 536.862 187.591C537.344 187.059 537.76 186.593 538.109 186.194C538.259 186.028 538.542 185.72 538.957 185.271C539.373 184.822 539.656 184.514 539.805 184.348C539.955 184.182 540.196 183.908 540.529 183.525C540.861 183.143 541.094 182.86 541.227 182.677C541.36 182.494 541.551 182.245 541.801 181.929C542.05 181.613 542.225 181.347 542.324 181.131C542.424 180.915 542.549 180.674 542.699 180.407C542.848 180.141 542.956 179.875 543.023 179.609C543.089 179.343 543.147 179.094 543.197 178.861C543.247 178.628 543.272 178.354 543.272 178.038C543.272 176.991 542.989 176.084 542.424 175.319C541.859 174.555 541.052 174.172 540.005 174.172C539.456 174.172 538.974 174.314 538.558 174.596C538.143 174.879 537.852 175.153 537.685 175.419C537.519 175.685 537.436 175.843 537.436 175.893C537.436 175.91 537.477 175.918 537.561 175.918C537.86 175.918 538.168 176.034 538.483 176.267C538.799 176.5 538.957 176.882 538.957 177.415C538.957 177.83 538.824 178.179 538.558 178.462C538.292 178.745 537.918 178.894 537.436 178.911Z" fill="white"/>
</g>
</g>
</g>
<g id="Group 163">
<g id="Group_11">
<path id="Vector_9" d="M127.031 277.024C128.419 277.024 129.689 276.413 130.841 275.19C131.993 273.967 132.581 272.544 132.605 270.921C132.605 269.44 131.993 268.416 130.771 267.852C128.278 267.217 126.678 266.782 125.973 266.547C125.267 266.312 124.773 266.076 124.491 265.841C123.08 264.853 122.374 263.431 122.374 261.573C122.374 260.138 122.751 258.833 123.503 257.657C124.256 256.481 125.02 255.599 125.796 255.011C126.478 254.423 127.302 253.953 128.266 253.6C129.23 253.247 129.983 253.059 130.524 253.035H130.912H131.159C133.416 253.035 135.051 253.788 136.062 255.293C136.086 255.293 136.239 255.14 136.521 254.835C136.803 254.529 137.109 254.188 137.438 253.811C137.767 253.435 138.002 253.177 138.144 253.035C138.167 253.035 138.214 253.035 138.285 253.035C138.355 253.035 138.414 253.024 138.461 253C138.767 253 138.92 253.082 138.92 253.247C138.92 253.412 138.59 254.835 137.932 257.516C137.273 260.197 136.897 261.584 136.803 261.678C136.709 261.772 136.521 261.808 136.239 261.784C135.768 261.784 135.533 261.678 135.533 261.467C135.533 261.326 135.545 261.208 135.568 261.114C135.568 261.043 135.58 260.82 135.604 260.444C135.627 260.067 135.651 259.762 135.674 259.526C135.674 258.727 135.568 258.033 135.357 257.445C135.145 256.857 134.933 256.422 134.722 256.14C134.51 255.858 134.216 255.564 133.84 255.258C132.993 254.764 132.029 254.517 130.947 254.517C129.606 254.517 128.36 255.058 127.207 256.14C126.055 257.222 125.467 258.468 125.444 259.879C125.444 260.585 125.62 261.196 125.973 261.714C126.326 262.231 126.808 262.596 127.419 262.807C127.513 262.854 128.336 263.078 129.889 263.478C131.441 263.877 132.229 264.089 132.252 264.113C133.052 264.371 133.828 264.936 134.581 265.806C135.333 266.676 135.709 267.852 135.709 269.334C135.709 269.945 135.615 270.604 135.427 271.309C135.31 271.827 135.098 272.403 134.792 273.038C134.486 273.673 134.063 274.367 133.522 275.119C132.981 275.872 132.205 276.577 131.194 277.236C130.183 277.894 129.077 278.341 127.878 278.576C127.596 278.623 127.196 278.647 126.678 278.647C124.35 278.647 122.539 278 121.246 276.707L120.893 276.319L119.905 277.412C119.364 278.047 119.035 278.412 118.917 278.506C118.8 278.6 118.647 278.647 118.459 278.647C118.153 278.647 118 278.553 118 278.365C118 278.294 118.682 275.531 120.046 270.075C120.093 269.933 120.328 269.863 120.752 269.863H121.21C121.351 270.004 121.422 270.133 121.422 270.251C121.422 270.298 121.41 270.404 121.387 270.568C121.363 270.733 121.316 270.98 121.246 271.309C121.175 271.638 121.151 272.027 121.175 272.473C121.222 273.391 121.434 274.167 121.81 274.802C122.186 275.437 122.692 275.907 123.327 276.213C123.962 276.519 124.573 276.73 125.161 276.848C125.749 276.965 126.373 277.024 127.031 277.024Z" fill="white"/>
</g>
<g id="Group_12">
<path id="Vector_10" d="M145.412 256.706C145.412 256.141 145.635 255.647 146.082 255.224C146.529 254.801 147.046 254.577 147.634 254.554C148.058 254.554 148.41 254.695 148.693 254.977C148.975 255.259 149.128 255.612 149.151 256.035C149.151 256.576 148.916 257.07 148.446 257.517C147.975 257.964 147.458 258.199 146.894 258.223C146.541 258.223 146.212 258.105 145.906 257.87C145.6 257.635 145.435 257.247 145.412 256.706ZM139.662 267.748C139.662 267.559 139.767 267.195 139.979 266.654C140.191 266.113 140.473 265.513 140.826 264.855C141.179 264.196 141.696 263.597 142.378 263.056C143.06 262.515 143.766 262.256 144.495 262.279C145.412 262.279 146.176 262.55 146.788 263.091C147.399 263.632 147.717 264.361 147.74 265.278C147.74 265.678 147.576 266.336 147.246 267.254C146.917 268.171 146.447 269.406 145.835 270.958C145.224 272.51 144.73 273.839 144.354 274.944C144.236 275.462 144.177 275.838 144.177 276.073C144.177 276.661 144.377 276.955 144.777 276.955C144.989 276.955 145.212 276.92 145.447 276.849C145.682 276.779 145.953 276.614 146.259 276.355C146.564 276.097 146.882 275.685 147.211 275.121C147.54 274.556 147.834 273.862 148.093 273.039C148.164 272.757 148.222 272.592 148.269 272.545C148.316 272.498 148.516 272.475 148.869 272.475C149.339 272.475 149.575 272.592 149.575 272.827C149.575 273.016 149.469 273.38 149.257 273.921C149.045 274.462 148.751 275.062 148.375 275.72C147.999 276.379 147.47 276.967 146.788 277.484C146.106 278.002 145.377 278.26 144.6 278.26C143.848 278.26 143.154 278.013 142.519 277.519C141.884 277.026 141.555 276.273 141.531 275.262C141.531 274.862 141.59 274.486 141.708 274.133C141.825 273.78 142.331 272.439 143.225 270.111C144.118 267.736 144.636 266.313 144.777 265.843C144.918 265.372 145 264.914 145.024 264.467C145.024 263.902 144.824 263.62 144.424 263.62H144.354C143.648 263.62 143.001 264.008 142.413 264.784C141.825 265.56 141.378 266.548 141.073 267.748C141.049 267.771 141.026 267.806 141.002 267.853C140.979 267.9 140.967 267.936 140.967 267.959C140.967 267.983 140.943 268.006 140.896 268.03C140.849 268.053 140.814 268.065 140.791 268.065C140.767 268.065 140.72 268.065 140.649 268.065C140.579 268.065 140.485 268.065 140.367 268.065H139.873C139.732 267.924 139.662 267.818 139.662 267.748Z" fill="white"/>
</g>
<g id="Group_13">
<path id="Vector_11" d="M163.64 264.819C163.64 264.255 163.84 263.761 164.239 263.337C164.639 262.914 165.145 262.702 165.756 262.702C166.321 262.702 166.815 262.891 167.238 263.267C167.661 263.643 167.885 264.149 167.908 264.784C167.908 265.372 167.708 265.877 167.309 266.301C166.909 266.724 166.403 266.936 165.792 266.936C165.18 266.936 164.674 266.736 164.275 266.336C163.875 265.936 163.663 265.431 163.64 264.819ZM163.64 275.755C163.64 275.191 163.84 274.697 164.239 274.274C164.639 273.85 165.145 273.639 165.756 273.639C166.321 273.639 166.815 273.827 167.238 274.203C167.661 274.579 167.885 275.085 167.908 275.72C167.908 276.308 167.708 276.813 167.309 277.237C166.909 277.66 166.403 277.872 165.792 277.872C165.18 277.872 164.674 277.672 164.275 277.272C163.875 276.872 163.663 276.367 163.64 275.755Z" fill="white"/>
</g>
</g>
<g id="Group 162">
<g id="Group_14">
<path id="Vector_12" d="M277 313.372C277.024 313.231 277.059 313.043 277.106 312.808C277.153 312.572 277.294 312.126 277.529 311.467C277.764 310.809 278 310.256 278.235 309.809C278.47 309.362 278.858 308.927 279.399 308.504C279.94 308.08 280.481 307.88 281.022 307.904C281.868 307.904 282.574 308.116 283.138 308.539C283.703 308.962 284.056 309.362 284.197 309.738C284.338 310.115 284.408 310.362 284.408 310.479C284.408 310.526 284.42 310.55 284.444 310.55L284.832 310.162C286.266 308.657 287.901 307.904 289.735 307.904C291.005 307.904 292.028 308.221 292.804 308.856C293.581 309.491 293.98 310.42 294.004 311.643C294.027 312.866 293.581 314.713 292.663 317.182C291.746 319.651 291.299 321.145 291.323 321.662C291.323 322.274 291.523 322.579 291.922 322.579C292.064 322.579 292.169 322.568 292.24 322.544C292.922 322.427 293.533 321.98 294.074 321.204C294.615 320.428 295.027 319.487 295.309 318.381C295.356 318.193 295.591 318.099 296.015 318.099C296.485 318.099 296.72 318.193 296.72 318.381C296.72 318.405 296.673 318.581 296.579 318.911C296.391 319.593 296.132 320.263 295.803 320.921C295.474 321.58 294.933 322.238 294.18 322.897C293.428 323.556 292.616 323.873 291.746 323.849C290.641 323.849 289.841 323.532 289.347 322.897C288.853 322.262 288.606 321.603 288.606 320.921C288.606 320.475 289.03 319.063 289.876 316.688C290.723 314.313 291.158 312.525 291.182 311.326C291.182 309.938 290.664 309.245 289.629 309.245H289.453C287.43 309.245 285.725 310.432 284.338 312.808L284.091 313.231L282.927 317.958C282.151 321.039 281.704 322.697 281.586 322.932C281.28 323.567 280.775 323.885 280.069 323.885C279.763 323.885 279.516 323.814 279.328 323.673C279.14 323.532 279.011 323.391 278.94 323.25C278.87 323.109 278.846 322.991 278.87 322.897C278.87 322.591 279.317 320.674 280.21 317.147C281.104 313.619 281.574 311.702 281.621 311.396C281.645 311.279 281.657 311.008 281.657 310.585C281.657 309.668 281.374 309.209 280.81 309.209C279.916 309.209 279.175 310.385 278.587 312.737C278.446 313.207 278.376 313.454 278.376 313.478C278.329 313.619 278.105 313.69 277.706 313.69H277.212C277.071 313.548 277 313.443 277 313.372Z" fill="white"/>
</g>
<path id="Ellipse 21 (Stroke)" fill-rule="evenodd" clip-rule="evenodd" d="M286.5 345C304.449 345 319 330.449 319 312.5C319 294.551 304.449 280 286.5 280C268.551 280 254 294.551 254 312.5C254 330.449 268.551 345 286.5 345ZM286.5 348C306.106 348 322 332.106 322 312.5C322 292.894 306.106 277 286.5 277C266.894 277 251 292.894 251 312.5C251 332.106 266.894 348 286.5 348Z" fill="white"/>
<path id="Ellipse 22 (Stroke)" fill-rule="evenodd" clip-rule="evenodd" d="M286.5 360C311.629 360 332 339.629 332 314.5C332 289.371 311.629 269 286.5 269C261.371 269 241 289.371 241 314.5C241 339.629 261.371 360 286.5 360ZM286.5 363C313.286 363 335 341.286 335 314.5C335 287.714 313.286 266 286.5 266C259.714 266 238 287.714 238 314.5C238 341.286 259.714 363 286.5 363Z" fill="white"/>
<path id="Ellipse 23 (Stroke)" fill-rule="evenodd" clip-rule="evenodd" d="M286.5 378C322.675 378 352 348.675 352 312.5C352 276.325 322.675 247 286.5 247C250.325 247 221 276.325 221 312.5C221 348.675 250.325 378 286.5 378ZM286.5 381C324.332 381 355 350.332 355 312.5C355 274.668 324.332 244 286.5 244C248.668 244 218 274.668 218 312.5C218 350.332 248.668 381 286.5 381Z" fill="white"/>
<g id="Group_15">
<path id="Vector_13" d="M381 312.706C381 312.4 381.165 312.165 381.494 312H403.966C404.319 312.189 404.495 312.424 404.495 312.706C404.495 312.965 404.33 313.188 404.001 313.376L392.783 313.412H381.564C381.188 313.294 381 313.059 381 312.706ZM381 319.55C381 319.197 381.188 318.962 381.564 318.844H404.001C404.33 319.079 404.495 319.315 404.495 319.55C404.495 319.856 404.319 320.091 403.966 320.255H381.494C381.165 320.091 381 319.856 381 319.55Z" fill="white"/>
</g>
<g id="Group_16">
<path id="Vector_14" d="M425.586 303.105L425.127 303.281C424.798 303.399 424.328 303.516 423.716 303.634C423.105 303.751 422.423 303.834 421.67 303.881H421V302.258H421.67C422.776 302.211 423.799 302.035 424.739 301.729C425.68 301.423 426.339 301.141 426.715 300.882C427.091 300.623 427.421 300.365 427.703 300.106C427.75 300.035 427.891 300 428.126 300C428.338 300 428.538 300.071 428.726 300.212V310.76L428.761 321.343C428.926 321.508 429.067 321.614 429.184 321.661C429.302 321.708 429.584 321.755 430.031 321.802C430.478 321.849 431.207 321.872 432.218 321.872H433.136V323.495H432.747C432.254 323.425 430.384 323.389 427.138 323.389C423.94 323.389 422.094 323.425 421.6 323.495H421.176V321.872H422.094C422.611 321.872 423.058 321.872 423.434 321.872C423.81 321.872 424.104 321.861 424.316 321.837C424.528 321.814 424.716 321.778 424.881 321.731C425.045 321.684 425.139 321.661 425.163 321.661C425.186 321.661 425.257 321.602 425.374 321.484C425.492 321.367 425.563 321.32 425.586 321.343V303.105Z" fill="white"/>
<path id="Vector_15" d="M439.097 302.858C440.414 300.953 442.213 300.001 444.494 300.001C445.623 300.001 446.752 300.307 447.881 300.918C449.01 301.53 449.927 302.611 450.633 304.164C451.503 306.116 451.938 308.797 451.938 312.207C451.938 315.852 451.432 318.639 450.421 320.568C449.951 321.556 449.304 322.343 448.481 322.931C447.657 323.519 446.94 323.884 446.329 324.025C445.717 324.166 445.117 324.248 444.53 324.272C443.918 324.272 443.307 324.201 442.695 324.06C442.084 323.919 441.366 323.543 440.543 322.931C439.72 322.32 439.073 321.532 438.603 320.568C437.592 318.639 437.086 315.852 437.086 312.207C437.086 308.115 437.756 304.999 439.097 302.858ZM447.034 302.435C446.329 301.683 445.494 301.306 444.53 301.306C443.542 301.306 442.695 301.683 441.99 302.435C441.402 303.047 441.014 303.893 440.825 304.975C440.637 306.057 440.543 308.315 440.543 311.748C440.543 315.464 440.637 317.91 440.825 319.086C441.014 320.262 441.437 321.191 442.095 321.873C442.754 322.579 443.565 322.931 444.53 322.931C445.47 322.931 446.27 322.579 446.928 321.873C447.61 321.168 448.034 320.18 448.198 318.91C448.363 317.64 448.457 315.253 448.481 311.748C448.481 308.338 448.387 306.092 448.198 305.01C448.01 303.929 447.622 303.07 447.034 302.435Z" fill="white"/>
<path id="Vector_16" d="M456.736 302.858C458.053 300.953 459.853 300.001 462.134 300.001C463.263 300.001 464.392 300.307 465.521 300.918C466.649 301.53 467.567 302.611 468.272 304.164C469.142 306.116 469.577 308.797 469.577 312.207C469.577 315.852 469.072 318.639 468.061 320.568C467.59 321.556 466.943 322.343 466.12 322.931C465.297 323.519 464.58 323.884 463.968 324.025C463.357 324.166 462.757 324.248 462.169 324.272C461.558 324.272 460.946 324.201 460.335 324.06C459.723 323.919 459.006 323.543 458.183 322.931C457.36 322.32 456.713 321.532 456.243 320.568C455.231 318.639 454.726 315.852 454.726 312.207C454.726 308.115 455.396 304.999 456.736 302.858ZM464.674 302.435C463.968 301.683 463.133 301.306 462.169 301.306C461.181 301.306 460.335 301.683 459.629 302.435C459.041 303.047 458.653 303.893 458.465 304.975C458.277 306.057 458.183 308.315 458.183 311.748C458.183 315.464 458.277 317.91 458.465 319.086C458.653 320.262 459.076 321.191 459.735 321.873C460.394 322.579 461.205 322.931 462.169 322.931C463.11 322.931 463.91 322.579 464.568 321.873C465.25 321.168 465.673 320.18 465.838 318.91C466.003 317.64 466.097 315.253 466.12 311.748C466.12 308.338 466.026 306.092 465.838 305.01C465.65 303.929 465.262 303.07 464.674 302.435Z" fill="white"/>
</g>
</g>
<g id="Group 161">
<g id="Group_17">
<g id="Group_18">
<path id="Vector_17" d="M463 427.056C463.024 426.915 463.059 426.727 463.106 426.492C463.153 426.256 463.294 425.81 463.529 425.151C463.764 424.493 464 423.94 464.235 423.493C464.47 423.046 464.858 422.611 465.399 422.188C465.94 421.764 466.481 421.565 467.022 421.588C467.868 421.588 468.574 421.8 469.138 422.223C469.703 422.646 470.056 423.046 470.197 423.423C470.338 423.799 470.408 424.046 470.408 424.163C470.408 424.21 470.42 424.234 470.444 424.234L470.832 423.846C472.266 422.341 473.901 421.588 475.735 421.588C477.005 421.588 478.028 421.906 478.804 422.541C479.581 423.176 479.98 424.105 480.004 425.328C480.027 426.55 479.581 428.397 478.663 430.866C477.746 433.336 477.299 434.829 477.323 435.346C477.323 435.958 477.523 436.264 477.922 436.264C478.064 436.264 478.169 436.252 478.24 436.228C478.922 436.111 479.533 435.664 480.074 434.888C480.615 434.112 481.027 433.171 481.309 432.066C481.356 431.877 481.591 431.783 482.015 431.783C482.485 431.783 482.72 431.877 482.72 432.066C482.72 432.089 482.673 432.265 482.579 432.595C482.391 433.277 482.132 433.947 481.803 434.606C481.474 435.264 480.933 435.923 480.18 436.581C479.428 437.24 478.616 437.557 477.746 437.534C476.641 437.534 475.841 437.216 475.347 436.581C474.853 435.946 474.606 435.288 474.606 434.606C474.606 434.159 475.03 432.748 475.876 430.372C476.723 427.997 477.158 426.209 477.182 425.01C477.182 423.622 476.664 422.929 475.629 422.929H475.453C473.43 422.929 471.725 424.116 470.338 426.492L470.091 426.915L468.927 431.642C468.151 434.723 467.704 436.381 467.586 436.616C467.28 437.251 466.775 437.569 466.069 437.569C465.763 437.569 465.516 437.498 465.328 437.357C465.14 437.216 465.011 437.075 464.94 436.934C464.87 436.793 464.846 436.675 464.87 436.581C464.87 436.275 465.317 434.359 466.21 430.831C467.104 427.303 467.574 425.386 467.621 425.081C467.645 424.963 467.657 424.693 467.657 424.269C467.657 423.352 467.374 422.893 466.81 422.893C465.916 422.893 465.175 424.069 464.587 426.421C464.446 426.891 464.376 427.138 464.376 427.162C464.329 427.303 464.105 427.374 463.706 427.374H463.212C463.071 427.232 463 427.127 463 427.056Z" fill="white"/>
</g>
<g id="Group_19">
<path id="Vector_18" d="M486.144 411.911C485.695 411.911 485.338 411.761 485.072 411.462C484.806 411.163 484.673 410.797 484.673 410.365C484.673 409.184 485.113 408.162 485.995 407.297C486.876 406.432 487.973 406 489.287 406C490.8 406 492.064 406.465 493.078 407.397C494.092 408.328 494.608 409.533 494.624 411.013C494.624 411.728 494.458 412.41 494.126 413.058C493.793 413.707 493.394 414.272 492.928 414.754C492.463 415.237 491.798 415.852 490.933 416.6C490.335 417.115 489.503 417.88 488.439 418.895L486.967 420.291L488.863 420.316C491.474 420.316 492.862 420.275 493.028 420.192C493.145 420.158 493.344 419.418 493.627 417.972V417.897H494.624V417.972C494.608 418.022 494.5 418.778 494.3 420.241C494.101 421.705 493.976 422.47 493.926 422.536V422.611H484.673V422.137V421.838C484.673 421.721 484.723 421.597 484.822 421.464C484.922 421.331 485.172 421.04 485.571 420.591C486.053 420.059 486.469 419.593 486.818 419.194C486.967 419.028 487.25 418.72 487.666 418.271C488.081 417.822 488.364 417.514 488.514 417.348C488.663 417.182 488.905 416.908 489.237 416.525C489.57 416.143 489.802 415.86 489.935 415.677C490.068 415.494 490.26 415.245 490.509 414.929C490.759 414.613 490.933 414.347 491.033 414.131C491.133 413.915 491.257 413.674 491.407 413.407C491.557 413.141 491.665 412.875 491.731 412.609C491.798 412.343 491.856 412.094 491.906 411.861C491.956 411.628 491.981 411.354 491.981 411.038C491.981 409.991 491.698 409.084 491.133 408.319C490.567 407.555 489.761 407.172 488.713 407.172C488.165 407.172 487.682 407.314 487.267 407.596C486.851 407.879 486.56 408.153 486.394 408.419C486.228 408.685 486.144 408.843 486.144 408.893C486.144 408.91 486.186 408.918 486.269 408.918C486.568 408.918 486.876 409.034 487.192 409.267C487.508 409.5 487.666 409.882 487.666 410.415C487.666 410.83 487.533 411.179 487.267 411.462C487.001 411.745 486.627 411.894 486.144 411.911Z" fill="white"/>
</g>
</g>
<g id="Group_20">
<path id="Vector_19" d="M507.478 428.819C507.478 428.819 507.478 428.666 507.478 428.361C507.478 428.055 507.642 427.82 507.971 427.655H518.519V422.363L518.555 417.072C518.79 416.766 519.013 416.613 519.225 416.613C519.531 416.613 519.766 416.789 519.931 417.142V427.655H530.443C530.796 427.843 530.972 428.078 530.972 428.361C530.972 428.643 530.796 428.878 530.443 429.066H519.931V439.579C519.742 439.908 519.531 440.073 519.296 440.073H519.225H519.154C518.872 440.073 518.661 439.908 518.519 439.579V429.066H507.971C507.642 428.901 507.478 428.666 507.478 428.361V428.819Z" fill="white"/>
</g>
<g id="Group_21">
<path id="Vector_20" d="M544.633 422.047C543.998 422.047 543.492 421.835 543.116 421.412C542.739 420.988 542.551 420.471 542.551 419.859C542.551 418.19 543.175 416.743 544.421 415.52C545.667 414.297 547.22 413.686 549.078 413.686C551.218 413.686 553.005 414.344 554.44 415.661C555.874 416.978 556.604 418.683 556.627 420.777C556.627 421.788 556.392 422.752 555.922 423.669C555.451 424.587 554.887 425.386 554.228 426.068C553.57 426.75 552.629 427.62 551.406 428.679C550.559 429.408 549.383 430.49 547.878 431.924L545.797 433.9L548.478 433.935C552.17 433.935 554.134 433.876 554.369 433.759C554.534 433.712 554.816 432.665 555.216 430.619V430.513H556.627V430.619C556.604 430.69 556.451 431.76 556.168 433.829C555.886 435.899 555.71 436.981 555.639 437.075V437.181H542.551V436.51V436.087C542.551 435.922 542.622 435.746 542.763 435.558C542.904 435.37 543.257 434.958 543.821 434.323C544.503 433.571 545.091 432.912 545.585 432.348C545.797 432.112 546.197 431.677 546.785 431.042C547.373 430.407 547.772 429.972 547.984 429.737C548.196 429.502 548.537 429.114 549.007 428.573C549.477 428.032 549.807 427.632 549.995 427.373C550.183 427.115 550.453 426.762 550.806 426.315C551.159 425.868 551.406 425.492 551.547 425.186C551.688 424.881 551.865 424.54 552.076 424.163C552.288 423.787 552.441 423.411 552.535 423.034C552.629 422.658 552.711 422.305 552.782 421.976C552.852 421.647 552.888 421.259 552.888 420.812C552.888 419.33 552.488 418.048 551.688 416.967C550.889 415.885 549.748 415.344 548.266 415.344C547.49 415.344 546.808 415.544 546.22 415.944C545.632 416.343 545.221 416.731 544.985 417.108C544.75 417.484 544.633 417.707 544.633 417.778C544.633 417.801 544.691 417.813 544.809 417.813C545.232 417.813 545.667 417.978 546.114 418.307C546.561 418.636 546.785 419.177 546.785 419.93C546.785 420.518 546.596 421.012 546.22 421.412C545.844 421.811 545.315 422.023 544.633 422.047Z" fill="white"/>
</g>
<g id="Group_22">
<path id="Vector_21" d="M559.167 427.056C559.19 426.915 559.225 426.727 559.272 426.492C559.319 426.256 559.46 425.81 559.696 425.151C559.931 424.493 560.166 423.94 560.401 423.493C560.636 423.046 561.024 422.611 561.565 422.188C562.106 421.764 562.647 421.565 563.188 421.588C564.035 421.588 564.74 421.8 565.305 422.223C565.869 422.646 566.222 423.046 566.363 423.423C566.504 423.799 566.575 424.046 566.575 424.163C566.575 424.21 566.587 424.234 566.61 424.234L566.998 423.846C568.433 422.341 570.067 421.588 571.902 421.588C573.172 421.588 574.195 421.906 574.971 422.541C575.747 423.176 576.147 424.105 576.17 425.328C576.194 426.55 575.747 428.397 574.83 430.866C573.913 433.336 573.466 434.829 573.489 435.346C573.489 435.958 573.689 436.264 574.089 436.264C574.23 436.264 574.336 436.252 574.406 436.228C575.088 436.111 575.7 435.664 576.241 434.888C576.782 434.112 577.193 433.171 577.476 432.066C577.523 431.877 577.758 431.783 578.181 431.783C578.652 431.783 578.887 431.877 578.887 432.066C578.887 432.089 578.84 432.265 578.746 432.595C578.557 433.277 578.299 433.947 577.969 434.606C577.64 435.264 577.099 435.923 576.347 436.581C575.594 437.24 574.783 437.557 573.913 437.534C572.807 437.534 572.008 437.216 571.514 436.581C571.02 435.946 570.773 435.288 570.773 434.606C570.773 434.159 571.196 432.748 572.043 430.372C572.89 427.997 573.325 426.209 573.348 425.01C573.348 423.622 572.831 422.929 571.796 422.929H571.62C569.597 422.929 567.892 424.116 566.504 426.492L566.257 426.915L565.093 431.642C564.317 434.723 563.87 436.381 563.753 436.616C563.447 437.251 562.941 437.569 562.236 437.569C561.93 437.569 561.683 437.498 561.495 437.357C561.307 437.216 561.177 437.075 561.107 436.934C561.036 436.793 561.013 436.675 561.036 436.581C561.036 436.275 561.483 434.359 562.377 430.831C563.27 427.303 563.741 425.386 563.788 425.081C563.811 424.963 563.823 424.693 563.823 424.269C563.823 423.352 563.541 422.893 562.976 422.893C562.083 422.893 561.342 424.069 560.754 426.421C560.613 426.891 560.542 427.138 560.542 427.162C560.495 427.303 560.272 427.374 559.872 427.374H559.378C559.237 427.232 559.167 427.127 559.167 427.056Z" fill="white"/>
</g>
<g id="Group_23">
<path id="Vector_22" d="M589.406 428.819C589.406 428.819 589.406 428.666 589.406 428.361C589.406 428.055 589.571 427.82 589.9 427.655H600.448V422.363L600.483 417.072C600.719 416.766 600.942 416.613 601.154 416.613C601.459 416.613 601.695 416.789 601.859 417.142V427.655H612.372C612.725 427.843 612.901 428.078 612.901 428.361C612.901 428.643 612.725 428.878 612.372 429.066H601.859V439.579C601.671 439.908 601.459 440.073 601.224 440.073H601.154H601.083C600.801 440.073 600.589 439.908 600.448 439.579V429.066H589.9C589.571 428.901 589.406 428.666 589.406 428.361V428.819Z" fill="white"/>
</g>
<g id="Group_24">
<path id="Vector_23" d="M624.201 426.138C624.201 422.305 625.153 419.271 627.058 417.036C628.963 414.802 631.08 413.685 633.408 413.685C635.031 413.685 636.195 414.108 636.901 414.955C637.606 415.802 637.959 416.742 637.959 417.777C637.959 418.365 637.795 418.836 637.465 419.188C637.136 419.541 636.677 419.718 636.09 419.718C635.549 419.718 635.102 419.553 634.749 419.224C634.396 418.894 634.22 418.436 634.22 417.848C634.22 416.813 634.772 416.19 635.878 415.978C635.36 415.461 634.631 415.167 633.691 415.096C632.021 415.096 630.645 415.802 629.563 417.213C628.458 418.765 627.905 421.14 627.905 424.339L627.94 424.48C628.058 424.339 628.152 424.186 628.223 424.021C629.187 422.61 630.445 421.905 631.997 421.905H632.138C633.22 421.905 634.173 422.128 634.996 422.575C635.56 422.904 636.125 423.375 636.689 423.986C637.254 424.598 637.712 425.268 638.065 425.997C638.559 427.149 638.806 428.408 638.806 429.772V430.407C638.806 430.948 638.747 431.453 638.629 431.924C638.371 433.311 637.618 434.663 636.372 435.981C635.125 437.298 633.55 437.956 631.645 437.956C630.986 437.956 630.351 437.862 629.74 437.674C629.128 437.486 628.47 437.133 627.764 436.616C627.058 436.098 626.459 435.404 625.965 434.534C625.471 433.664 625.048 432.523 624.695 431.112C624.342 429.701 624.177 428.043 624.201 426.138ZM631.786 423.175C631.08 423.175 630.469 423.375 629.951 423.774C629.434 424.174 629.034 424.703 628.752 425.362C628.47 426.02 628.27 426.691 628.152 427.373C628.034 428.055 627.964 428.784 627.94 429.56C627.94 431.512 628.081 432.911 628.364 433.758C628.646 434.605 629.093 435.287 629.704 435.804C630.269 436.227 630.892 436.439 631.574 436.439C632.773 436.439 633.691 435.992 634.326 435.099C634.631 434.675 634.843 434.146 634.961 433.511C635.078 432.876 635.137 431.641 635.137 429.807C635.137 427.925 635.078 426.667 634.961 426.032C634.843 425.397 634.631 424.868 634.326 424.445C633.691 423.598 632.844 423.175 631.786 423.175Z" fill="white"/>
<path id="Vector_24" d="M643.109 435.063C643.109 434.498 643.309 434.004 643.709 433.581C644.108 433.158 644.614 432.946 645.226 432.946C645.79 432.946 646.284 433.134 646.707 433.51C647.131 433.887 647.354 434.392 647.377 435.027C647.377 435.615 647.178 436.121 646.778 436.544C646.378 436.968 645.872 437.179 645.261 437.179C644.649 437.179 644.144 436.979 643.744 436.579C643.344 436.18 643.132 435.674 643.109 435.063Z" fill="white"/>
</g>
</g>
</g>
</g>
</g>
</svg>
