<svg width="36" height="36" viewBox="0 0 36 36" fill="none" xmlns="http://www.w3.org/2000/svg"><path d="M30 0H6C4.4087.0 2.88258.632141 1.75736 1.75736.632141 2.88258.0 4.4087.0 6V30C0 31.5913.632141 33.1174 1.75736 34.2426 2.88258 35.3679 4.4087 36 6 36H30C31.5913 36 33.1174 35.3679 34.2426 34.2426 35.3679 33.1174 36 31.5913 36 30V6C36 4.4087 35.3679 2.88258 34.2426 1.75736 33.1174.632141 31.5913.0 30 0zM23.42 20.58C23.6075 20.7659 23.7562 20.9871 23.8578 21.2308 23.9593 21.4746 24.0116 21.736 24.0116 22 24.0116 22.264 23.9593 22.5254 23.8578 22.7692 23.7562 23.0129 23.6075 23.2341 23.42 23.42 23.2341 23.6075 23.0129 23.7562 22.7692 23.8578 22.5254 23.9593 22.264 24.0116 22 24.0116 21.736 24.0116 21.4746 23.9593 21.2308 23.8578 20.9871 23.7562 20.7659 23.6075 20.58 23.42L18 20.82 15.42 23.42C15.2341 23.6075 15.0129 23.7562 14.7692 23.8578 14.5254 23.9593 14.264 24.0116 14 24.0116 13.736 24.0116 13.4746 23.9593 13.2308 23.8578 12.9871 23.7562 12.7659 23.6075 12.58 23.42 12.3925 23.2341 12.2438 23.0129 12.1422 22.7692 12.0407 22.5254 11.9884 22.264 11.9884 22 11.9884 21.736 12.0407 21.4746 12.1422 21.2308 12.2438 20.9871 12.3925 20.7659 12.58 20.58L15.18 18 12.58 15.42C12.2034 15.0434 11.9918 14.5326 11.9918 14 11.9918 13.4674 12.2034 12.9566 12.58 12.58 12.9566 12.2034 13.4674 11.9918 14 11.9918 14.5326 11.9918 15.0434 12.2034 15.42 12.58L18 15.18 20.58 12.58C20.9566 12.2034 21.4674 11.9918 22 11.9918 22.5326 11.9918 23.0434 12.2034 23.42 12.58 23.7966 12.9566 24.0082 13.4674 24.0082 14 24.0082 14.5326 23.7966 15.0434 23.42 15.42L20.82 18 23.42 20.58z" fill="#fff" /></svg>