<svg width="36" height="36" viewBox="0 0 36 36" fill="none" xmlns="http://www.w3.org/2000/svg"><g clip-path="url(#clip0)"><path d="M4 5C2.93913 5 1.92172 5.42143 1.17157 6.17157.421427 6.92172.0 7.93913.0 9V27C0 28.0609.421427 29.0783 1.17157 29.8284 1.92172 30.5786 2.93913 31 4 31h8V5H4z" fill="#d91023"/><path d="M12 5H24V31H12V5z" fill="#eee"/><path d="M32 5H24V31h8C33.0609 31 34.0783 30.5786 34.8284 29.8284 35.5786 29.0783 36 28.0609 36 27V9C36 7.93913 35.5786 6.92172 34.8284 6.17157 34.0783 5.42143 33.0609 5 32 5V5z" fill="#d91023"/></g><defs><clipPath id="clip0"><path d="M0 0h36v36H0z" fill="#fff"/></clipPath></defs></svg>