<svg width="41" height="36" viewBox="0 0 41 36" fill="none" xmlns="http://www.w3.org/2000/svg"><path d="M28.3078 5.84297 34.65 12.1852C34.9172 12.4523 34.9172 12.8883 34.65 13.1555L19.2937 28.5117 12.7688 29.2359C11.8969 29.3344 11.1586 28.5961 11.257 27.7242L11.9812 21.1992 27.3375 5.84297C27.6047 5.57578 28.0406 5.57578 28.3078 5.84297zM39.6984 4.23281 36.2672.801562C35.1984-.267188 33.4617-.267188 32.3859.801562L29.8969 3.29063C29.6297 3.55781 29.6297 3.99375 29.8969 4.26094L36.2391 10.6031C36.5063 10.8703 36.9422 10.8703 37.2094 10.6031L39.6984 8.11406C40.7672 7.03828 40.7672 5.30156 39.6984 4.23281v0zM27 24.3352V31.493H4.5V8.99297H20.6578C20.8828 8.99297 21.0937 8.90156 21.2555 8.74688L24.068 5.93438C24.6023 5.4 24.2227 4.49297 23.4703 4.49297H3.375C1.51172 4.49297.0 6.00469.0 7.86797V32.618C0 34.4812 1.51172 35.993 3.375 35.993h24.75C29.9883 35.993 31.5 34.4812 31.5 32.618V21.5227C31.5 20.7703 30.593 20.3977 30.0586 20.925l-2.8125 2.8125C27.0914 23.8992 27 24.1102 27 24.3352z" fill="#fff" /></svg>