<svg width="36" height="36" viewBox="0 0 36 36" fill="none" xmlns="http://www.w3.org/2000/svg"><path d="M35.3878 34.6112 32.9665 20.6497H33.7843C34.4421 20.6497 34.9721 20.1198 34.9721 19.4619V10.6904C34.9721 10.0325 34.4421 9.50254 33.7843 9.50254H22.5457V1.18782C22.5457.529949 22.0157.0 21.3579.0H14.0482C13.3904.0 12.8604.529949 12.8604 1.18782V9.50254H1.62183C.963959 9.50254.43401 10.0325.43401 10.6904v8.7715C.43401 20.1198.963959 20.6497 1.62183 20.6497H2.43959L.0182742 34.6112C.0045686 34.6797.0 34.7482.0 34.8122.0 35.4701.529949 36 1.18782 36H34.2183C34.2868 36 34.3553 35.9954 34.4193 35.9817 35.068 35.8721 35.502 35.2553 35.3878 34.6112zM3.63198 12.7005H16.0584V3.19797H19.3477V12.7005H31.7741V17.4518H3.63198V12.7005zM25.0127 32.802V25.6751C25.0127 25.4741 24.8482 25.3096 24.6472 25.3096H22.4543C22.2533 25.3096 22.0888 25.4741 22.0888 25.6751V32.802H13.3173V25.6751C13.3173 25.4741 13.1528 25.3096 12.9518 25.3096H10.7589C10.5579 25.3096 10.3934 25.4741 10.3934 25.6751V32.802H3.57716L5.63756 20.9239H29.764L31.8244 32.802H25.0127z" fill="#fff" /></svg>