<svg viewBox="0 0 508 150" fill="none" xmlns="http://www.w3.org/2000/svg"><path d="M54.5983 135.818C47.4283 135.818 40.3286 134.407 33.7044 131.666 27.0802 128.925 21.0614 124.907 15.9914 119.842 10.9215 114.777 6.89985 108.764 4.15603 102.146 1.41221 95.5286-152588e-10 88.4357-152588e-10 81.2727-152588e-10 74.1097 1.41221 67.0168 4.15603 60.3991 6.89985 53.7813 10.9215 47.7683 15.9915 42.7033 21.0614 37.6382 27.0802 33.6205 33.7044 30.8793 40.3286 28.1381 47.4283 26.7273 54.5983 26.7273V43.0909C49.5793 43.0909 44.6095 44.0785 39.9726 45.9973 35.3356 47.9161 31.1224 50.7286 27.5735 54.2741 24.0246 57.8196 21.2094 62.0287 19.2887 66.6612 17.368 71.2936 16.3795 76.2586 16.3795 81.2727 16.3795 86.2868 17.368 91.2519 19.2887 95.8843 21.2094 100.517 24.0246 104.726 27.5735 108.271 31.1224 111.817 35.3356 114.629 39.9726 116.548 44.6095 118.467 49.5793 119.455 54.5983 119.455V135.818z" fill="url(#paint0_linear)" /><path d="M42.0406 43.0909C42.0406 34.0535 49.3669 26.7273 58.4043 26.7273H96.6389C96.6389 35.7647 89.3127 43.0909 80.2753 43.0909H42.0406z" fill="url(#paint1_linear)" /><path d="M42.0406 119.455H80.2753C89.3127 119.455 96.6389 126.781 96.6389 135.818H58.4043C49.3669 135.818 42.0406 128.492 42.0406 119.455z" fill="url(#paint2_linear)" /><path d="M36.5808 89.4545C36.5808 80.4172 43.9071 73.0909 52.9445 73.0909H96.6389C96.6389 82.1283 89.3127 89.4545 80.2753 89.4545H36.5808z" fill="url(#paint3_linear)" /><path d="M230.405 135.818C225.027 135.818 219.702 134.76 214.734 132.704 209.766 130.648 205.252 127.635 201.45 123.836 197.647 120.037 194.631 115.528 192.573 110.564 190.515 105.601 189.456 100.281 189.456 94.9091 189.456 89.5368 190.515 84.2172 192.573 79.2539 194.631 74.2905 197.647 69.7808 201.45 65.982 205.252 62.1832 209.766 59.1699 214.734 57.114 219.702 55.0581 225.027 54 230.405 54V70.3636C227.178 70.3636 223.983 70.9985 221.003 72.232 218.022 73.4656 215.313 75.2736 213.032 77.5528 210.75 79.8321 208.94 82.538 207.706 85.516 206.471 88.4939 205.836 91.6857 205.836 94.9091 205.836 98.1325 206.471 101.324 207.706 104.302 208.94 107.28 210.75 109.986 213.032 112.265 215.313 114.545 218.022 116.353 221.003 117.586 223.983 118.82 227.178 119.455 230.405 119.455V135.818z" fill="url(#paint4_linear)" /><path d="M216.755 70.3636C216.755 61.3262 224.081 54 233.119 54H271.353C271.353 63.0374 264.027 70.3636 254.99 70.3636H216.755z" fill="url(#paint5_linear)" /><path d="M219.485 119.455H257.72C266.757 119.455 274.083 126.781 274.083 135.818H235.849C226.811 135.818 219.485 128.492 219.485 119.455z" fill="url(#paint6_linear)" /><path d="M219.485 103.091C219.485 94.0535 226.811 86.7273 235.849 86.7273H268.624C268.624 95.7647 261.297 103.091 252.26 103.091H219.485z" fill="url(#paint7_linear)" /><path d="M167.219 61.0828C173.034 54.1586 183.367 53.2547 190.296 59.0638l-59.66 71.0312C124.821 137.019 114.488 137.923 107.559 132.114L167.219 61.0828z" fill="url(#paint8_linear)" /><path d="M132.27 59.062C125.342 53.2539 115.011 54.1577 109.197 61.0807L141.153 87.8694 151.682 75.3342 132.27 59.062z" fill="url(#paint9_linear)" /><path d="M167.749 131.756C174.677 137.564 185.008 136.66 190.823 129.737L159.036 103.091 148.507 115.626 167.749 131.756z" fill="url(#paint10_linear)" /><path d="M328.682 54.5455C334.059 54.5455 339.384 55.6036 344.352 57.6595 349.32 59.7153 353.834 62.7287 357.637 66.5275 361.439 70.3262 364.455 74.836 366.513 79.7993 368.571 84.7626 369.63 90.0823 369.63 95.4546 369.63 100.827 368.571 106.146 366.513 111.11 364.455 116.073 361.439 120.583 357.637 124.382 353.834 128.18 349.32 131.194 344.352 133.25 339.384 135.306 334.059 136.364 328.682 136.364V120C331.908 120 335.103 119.365 338.084 118.132 341.065 116.898 343.773 115.09 346.055 112.811 348.336 110.532 350.146 107.826 351.381 104.848 352.615 101.87 353.251 98.6779 353.251 95.4546 353.251 92.2312 352.615 89.0394 351.381 86.0614 350.146 83.0834 348.336 80.3775 346.055 78.0983 343.773 75.819 341.065 74.011 338.084 72.7775 335.103 71.544 331.908 70.9091 328.682 70.9091V54.5455z" fill="url(#paint11_linear)" /><path d="M306.842 54.5455h27.2992v16.3636H306.842z" fill="url(#paint12_linear)" /><path d="M306.842 120H334.142V136.364H306.842V120z" fill="url(#paint13_linear)" /><path d="M286.641.0C295.687.0 303.02 7.33335 303.02 16.3795V136.364C293.974 136.364 286.641 129.03 286.641 119.984V0z" fill="url(#paint14_linear)" /><path d="M380.55 72.6522C380.55 63.606 387.883 56.2727 396.929 56.2727V121.711C396.929 130.757 389.596 138.091 380.55 138.091V72.6522z" fill="url(#paint15_linear)" /><ellipse cx="390.105" cy="36.2727" rx="15.0145" ry="15" fill="url(#paint16_radial)" /><path d="M484.287 95.4546C488.81 95.4546 492.559 99.1573 491.659 103.59 490.092 111.303 486.317 118.462 480.709 124.154 473.169 131.806 462.918 136.19 452.171 136.359 441.423 136.527 431.04 132.467 423.263 125.055 415.485 117.643 410.937 107.473 410.599 96.7395 410.262 86.0064 414.162 75.5709 421.458 67.6854 428.755 59.7999 438.862 55.0967 449.599 54.5909 460.336 54.085 470.841 57.8171 478.848 64.9816 484.802 70.3095 489.02 77.2178 491.068 84.8171 492.245 89.1846 488.736 93.1159 484.221 93.3997 479.707 93.6834 475.939 90.148 474.191 85.9768 472.795 82.643 470.665 79.627 467.92 77.1708 463.116 72.8721 456.813 70.6328 450.37 70.9363 443.928 71.2399 437.864 74.0618 433.486 78.7931 429.108 83.5244 426.768 89.7856 426.971 96.2255 427.173 102.665 429.902 108.768 434.569 113.215 439.235 117.662 445.465 120.098 451.914 119.997 458.362 119.896 464.512 117.266 469.037 112.674 471.622 110.051 473.557 106.907 474.742 103.493 476.225 99.2199 479.764 95.4546 484.287 95.4546z" fill="url(#paint17_linear)" /><defs><linearGradient id="paint0_linear" x1="30.029" y1="135.818" x2="27.3044" y2="26.7271" gradientUnits="userSpaceOnUse"><stop stop-color="#8808a8" /><stop offset=".46875" stop-color="#0e0ec3" /><stop offset="1" stop-color="#8808a8" /></linearGradient><linearGradient id="paint1_linear" x1="42.0406" y1="43.0909" x2="101.002" y2="30.5222" gradientUnits="userSpaceOnUse"><stop stop-color="#8808a8" /><stop offset="1" stop-color="#cd08d1" /></linearGradient><linearGradient id="paint2_linear" x1="44.7706" y1="119.455" x2="93.3534" y2="135.847" gradientUnits="userSpaceOnUse"><stop stop-color="#8808a8" /><stop offset="1" stop-color="#cd08d1" /></linearGradient><linearGradient id="paint3_linear" x1="39.3108" y1="86.7273" x2="99.3631" y2="73.0658" gradientUnits="userSpaceOnUse"><stop stop-color="#4d0a5e" /><stop offset="1" stop-color="#cd08d1" /></linearGradient><linearGradient id="paint4_linear" x1="211.978" y1="135.818" x2="209.934" y2="53.9999" gradientUnits="userSpaceOnUse"><stop stop-color="#8808a8" /><stop offset=".46875" stop-color="#0e0ec3" /><stop offset="1" stop-color="#8808a8" /></linearGradient><linearGradient id="paint5_linear" x1="219.485" y1="54" x2="268.068" y2="70.3921" gradientUnits="userSpaceOnUse"><stop stop-color="#8808a8" /><stop offset="1" stop-color="#cd08d1" /></linearGradient><linearGradient id="paint6_linear" x1="222.215" y1="119.455" x2="270.798" y2="135.847" gradientUnits="userSpaceOnUse"><stop stop-color="#8808a8" /><stop offset="1" stop-color="#cd08d1" /></linearGradient><linearGradient id="paint7_linear" x1="221.719" y1="100.364" x2="271.665" y2="91.0671" gradientUnits="userSpaceOnUse"><stop stop-color="#4d0a5e" /><stop offset="1" stop-color="#cd08d1" /></linearGradient><linearGradient id="paint8_linear" x1="184.023" y1="53.8046" x2="113.912" y2="137.44" gradientUnits="userSpaceOnUse"><stop offset=".510417" stop-color="#8808a8" /><stop offset="1" stop-color="#091fe3" /></linearGradient><linearGradient id="paint9_linear" x1="114.461" y1="54.8131" x2="146.392" y2="81.6322" gradientUnits="userSpaceOnUse"><stop stop-color="#e8a1ee" /><stop offset="1" stop-color="#8808a8" /></linearGradient><linearGradient id="paint10_linear" x1="185.558" y1="136.005" x2="153.797" y2="109.328" gradientUnits="userSpaceOnUse"><stop stop-color="#0e0ec3" /><stop offset="1" stop-color="#8808a8" /></linearGradient><linearGradient id="paint11_linear" x1="347.109" y1="54.5455" x2="349.152" y2="136.364" gradientUnits="userSpaceOnUse"><stop stop-color="#8808a8" /><stop offset=".46875" stop-color="#0e0ec3" /><stop offset="1" stop-color="#8808a8" /></linearGradient><linearGradient id="paint12_linear" x1="311.21" y1="58.3636" x2="330.308" y2="70.9261" gradientUnits="userSpaceOnUse"><stop stop-color="#a60cc2" /><stop offset="1" stop-color="#8308a9" /></linearGradient><linearGradient id="paint13_linear" x1="311.21" y1="123.818" x2="330.308" y2="136.381" gradientUnits="userSpaceOnUse"><stop stop-color="#a60cc2" /><stop offset="1" stop-color="#8308a9" /></linearGradient><linearGradient id="paint14_linear" x1="294.831" y1="0" x2="294.831" y2="136.364" gradientUnits="userSpaceOnUse"><stop offset=".510417" stop-color="#8808a8" /><stop offset="1" stop-color="#091fe3" /></linearGradient><linearGradient id="paint15_linear" x1="388.74" y1="56.2727" x2="388.74" y2="138.091" gradientUnits="userSpaceOnUse"><stop offset=".510417" stop-color="#8808a8" /><stop offset="1" stop-color="#091fe3" /></linearGradient><radialGradient id="paint16_radial" cx="0" cy="0" r="1" gradientUnits="userSpaceOnUse" gradientTransform="translate(390.105 36.2727) rotate(90) scale(15 15.0145)"><stop stop-color="#8808a8" /><stop offset=".583333" stop-color="#cf12d3" /><stop offset="1" stop-color="#e8a1ee" /></radialGradient><linearGradient id="paint17_linear" x1="492.476" y1="113.864" x2="410.579" y2="115.913" gradientUnits="userSpaceOnUse"><stop stop-color="#8808a8" /><stop offset=".46875" stop-color="#0e0ec3" /><stop offset="1" stop-color="#8808a8" /></linearGradient></defs></svg>