<svg class="subtitle1" viewBox="0 0 653 62" fill="none" xmlns="http://www.w3.org/2000/svg">
<path d="M21.6298 37.5167H8.44216V60.2288H1V4.08483H19.5861C25.91 4.08483 30.7686 5.52442 34.162 8.4036C37.581 11.2828 39.2905 15.473 39.2905 20.9743C39.2905 24.4704 38.3393 27.5167 36.437 30.1131C34.5604 32.7095 31.9383 34.6504 28.5707 35.9357L41.7584 59.7661V60.2288H33.8149L21.6298 37.5167ZM8.44216 31.4627H19.8175C23.4936 31.4627 26.4113 30.5116 28.5707 28.6093C30.7558 26.7069 31.8483 24.162 31.8483 20.9743C31.8483 17.5039 30.8072 14.8432 28.7249 12.9923C26.6684 11.1414 23.6864 10.2031 19.7789 10.1774H8.44216V31.4627Z" fill="#2AF808"/>
<path d="M78.2905 60.2288C77.8792 59.4062 77.545 57.9409 77.2879 55.8329C73.9717 59.2776 70.0128 61 65.4113 61C61.2982 61 57.9177 59.8432 55.2699 57.5296C52.6478 55.1902 51.3368 52.2339 51.3368 48.6607C51.3368 44.3162 52.982 40.9486 56.2725 38.5578C59.5887 36.1414 64.2416 34.9332 70.2314 34.9332H77.1722V31.6555C77.1722 29.162 76.4267 27.1825 74.9357 25.7172C73.4447 24.2262 71.2468 23.4807 68.3419 23.4807C65.7969 23.4807 63.6632 24.1234 61.9409 25.4087C60.2185 26.6941 59.3573 28.2494 59.3573 30.0746H52.1851C52.1851 27.9923 52.9177 25.9871 54.383 24.0591C55.874 22.1054 57.8792 20.563 60.3985 19.4319C62.9434 18.3008 65.7326 17.7352 68.7661 17.7352C73.5733 17.7352 77.3393 18.9434 80.0643 21.3599C82.7892 23.7506 84.2031 27.054 84.3059 31.2699V50.473C84.3059 54.3033 84.7943 57.3496 85.7712 59.6118V60.2288H78.2905ZM66.4524 54.7918C68.6889 54.7918 70.8098 54.2134 72.8149 53.0566C74.82 51.8997 76.2725 50.3959 77.1722 48.545V39.9846H71.581C62.8406 39.9846 58.4704 42.5424 58.4704 47.6581C58.4704 49.8946 59.2159 51.6427 60.7069 52.9023C62.1979 54.162 64.1131 54.7918 66.4524 54.7918Z" fill="#2AF808"/>
<path d="M106.147 54.4062H130.555V60.2288H97.4319V54.9846L120.452 24.4062H97.7789V18.5064H129.398V23.5578L106.147 54.4062Z" fill="#2AF808"/>
<path d="M140.057 38.982C140.057 34.8946 140.853 31.2185 142.447 27.9537C144.067 24.6889 146.303 22.1697 149.157 20.3959C152.036 18.6221 155.314 17.7352 158.99 17.7352C164.671 17.7352 169.26 19.7018 172.756 23.635C176.278 27.5681 178.039 32.7995 178.039 39.3291V39.8303C178.039 43.892 177.254 47.5424 175.686 50.7815C174.144 53.9949 171.92 56.5013 169.015 58.3008C166.136 60.1003 162.82 61 159.067 61C153.411 61 148.823 59.0334 145.301 55.1003C141.805 51.1671 140.057 45.9614 140.057 39.4833V38.982ZM147.229 39.8303C147.229 44.4576 148.296 48.1722 150.429 50.9743C152.589 53.7764 155.468 55.1774 159.067 55.1774C162.691 55.1774 165.571 53.7635 167.704 50.9357C169.838 48.0823 170.905 44.0977 170.905 38.982C170.905 34.4062 169.812 30.7044 167.627 27.8766C165.468 25.0231 162.589 23.5964 158.99 23.5964C155.468 23.5964 152.627 24.9974 150.468 27.7995C148.308 30.6015 147.229 34.6118 147.229 39.8303ZM162.229 1H170.866L160.532 12.3368H154.787L162.229 1Z" fill="#2AF808"/>
<path d="M197.681 18.5064L197.913 23.7506C201.1 19.7404 205.265 17.7352 210.406 17.7352C219.224 17.7352 223.671 22.7095 223.748 32.6581V60.2288H216.614V32.6195C216.589 29.6118 215.895 27.3882 214.532 25.9486C213.195 24.509 211.1 23.7892 208.247 23.7892C205.933 23.7892 203.902 24.4062 202.154 25.6401C200.406 26.874 199.044 28.4936 198.067 30.4987V60.2288H190.933V18.5064H197.681Z" fill="#2AF808"/>
<path d="M294.113 45.5758H270.591L265.308 60.2288H257.674L279.113 4.08483H285.591L307.069 60.2288H299.473L294.113 45.5758ZM272.828 39.4833H291.915L282.352 13.2237L272.828 39.4833Z" fill="#2AF808"/>
<path d="M337.625 24.9075C336.545 24.7275 335.375 24.6375 334.116 24.6375C329.437 24.6375 326.262 26.6298 324.591 30.6144V60.2288H317.458V18.5064H324.398L324.514 23.3265C326.853 19.599 330.17 17.7352 334.463 17.7352C335.851 17.7352 336.905 17.9152 337.625 18.2751V24.9075Z" fill="#2AF808"/>
<path d="M355.918 60.2288H348.784V18.5064H355.918V60.2288ZM348.206 7.43959C348.206 6.28278 348.553 5.30591 349.247 4.509C349.967 3.71208 351.021 3.31362 352.409 3.31362C353.797 3.31362 354.851 3.71208 355.571 4.509C356.29 5.30591 356.65 6.28278 356.65 7.43959C356.65 8.5964 356.29 9.56041 355.571 10.3316C354.851 11.1028 353.797 11.4884 352.409 11.4884C351.021 11.4884 349.967 11.1028 349.247 10.3316C348.553 9.56041 348.206 8.5964 348.206 7.43959Z" fill="#2AF808"/>
<path d="M380.997 8.4036V18.5064H388.787V24.0206H380.997V49.8946C380.997 51.5656 381.344 52.8252 382.039 53.6735C382.733 54.4961 383.915 54.9075 385.586 54.9075C386.409 54.9075 387.54 54.7532 388.979 54.4447V60.2288C387.103 60.7429 385.278 61 383.504 61C380.316 61 377.913 60.036 376.293 58.108C374.673 56.18 373.864 53.4422 373.864 49.8946V24.0206H366.267V18.5064H373.864V8.4036H380.997Z" fill="#2AF808"/>
<path d="M407.812 18.5064L408.005 23.1337C411.064 19.5347 415.19 17.7352 420.383 17.7352C426.218 17.7352 430.19 19.9717 432.298 24.4447C433.686 22.4396 435.486 20.8201 437.697 19.5861C439.933 18.3522 442.568 17.7352 445.602 17.7352C454.753 17.7352 459.406 22.581 459.56 32.2725V60.2288H452.427V32.6967C452.427 29.7147 451.745 27.491 450.383 26.0257C449.021 24.5347 446.733 23.7892 443.519 23.7892C440.871 23.7892 438.673 24.5861 436.925 26.18C435.177 27.7481 434.162 29.8689 433.879 32.5424V60.2288H426.707V32.8895C426.707 26.8226 423.738 23.7892 417.799 23.7892C413.121 23.7892 409.92 25.7815 408.198 29.7661V60.2288H401.064V18.5064H407.812Z" fill="#2AF808"/>
<path d="M491.62 61C485.964 61 481.362 59.1491 477.815 55.4473C474.267 51.7198 472.494 46.7455 472.494 40.5244V39.2134C472.494 35.0746 473.278 31.3856 474.846 28.1465C476.44 24.8818 478.65 22.3368 481.478 20.5116C484.332 18.6607 487.416 17.7352 490.733 17.7352C496.157 17.7352 500.373 19.5219 503.38 23.0951C506.388 26.6684 507.892 31.7841 507.892 38.4422V41.4113H479.627C479.73 45.5244 480.925 48.8535 483.213 51.3985C485.527 53.9177 488.458 55.1774 492.005 55.1774C494.524 55.1774 496.658 54.6632 498.406 53.635C500.154 52.6067 501.684 51.2442 502.995 49.5476L507.352 52.9409C503.856 58.3136 498.612 61 491.62 61ZM490.733 23.5964C487.853 23.5964 485.437 24.6504 483.483 26.7584C481.53 28.8406 480.321 31.7712 479.859 35.5501H500.758V35.0103C500.553 31.3856 499.576 28.5835 497.828 26.6041C496.08 24.599 493.715 23.5964 490.733 23.5964ZM494.203 1H502.841L492.506 12.3368H486.761L494.203 1Z" fill="#2AF808"/>
<path d="M529.81 8.4036V18.5064H537.599V24.0206H529.81V49.8946C529.81 51.5656 530.157 52.8252 530.851 53.6735C531.545 54.4961 532.727 54.9075 534.398 54.9075C535.221 54.9075 536.352 54.7532 537.792 54.4447V60.2288C535.915 60.7429 534.09 61 532.316 61C529.128 61 526.725 60.036 525.105 58.108C523.486 56.18 522.676 53.4422 522.676 49.8946V24.0206H515.08V18.5064H522.676V8.4036H529.81Z" fill="#2AF808"/>
<path d="M557.666 60.2288H550.532V18.5064H557.666V60.2288ZM549.954 7.43959C549.954 6.28278 550.301 5.30591 550.995 4.509C551.715 3.71208 552.769 3.31362 554.157 3.31362C555.545 3.31362 556.599 3.71208 557.319 4.509C558.039 5.30591 558.398 6.28278 558.398 7.43959C558.398 8.5964 558.039 9.56041 557.319 10.3316C556.599 11.1028 555.545 11.4884 554.157 11.4884C552.769 11.4884 551.715 11.1028 550.995 10.3316C550.301 9.56041 549.954 8.5964 549.954 7.43959Z" fill="#2AF808"/>
<path d="M589.802 55.1774C592.347 55.1774 594.571 54.4062 596.473 52.8638C598.375 51.3213 599.429 49.3933 599.635 47.0797H606.383C606.255 49.4704 605.432 51.7455 603.915 53.9049C602.398 56.0643 600.368 57.7866 597.823 59.072C595.303 60.3573 592.63 61 589.802 61C584.121 61 579.596 59.1105 576.229 55.3316C572.887 51.527 571.216 46.3342 571.216 39.7532V38.5578C571.216 34.4961 571.961 30.8843 573.452 27.7224C574.943 24.5604 577.077 22.1054 579.853 20.3573C582.656 18.6093 585.959 17.7352 589.763 17.7352C594.442 17.7352 598.324 19.1362 601.409 21.9383C604.519 24.7404 606.177 28.3779 606.383 32.8509H599.635C599.429 30.1517 598.401 27.9409 596.55 26.2185C594.725 24.4704 592.463 23.5964 589.763 23.5964C586.139 23.5964 583.324 24.9075 581.319 27.5296C579.339 30.126 578.35 33.892 578.35 38.8278V40.1774C578.35 44.9846 579.339 48.6864 581.319 51.2828C583.298 53.8792 586.126 55.1774 589.802 55.1774Z" fill="#2AF808"/>
<path d="M644.11 60.2288C643.699 59.4062 643.365 57.9409 643.108 55.8329C639.792 59.2776 635.833 61 631.231 61C627.118 61 623.738 59.8432 621.09 57.5296C618.468 55.1902 617.157 52.2339 617.157 48.6607C617.157 44.3162 618.802 40.9486 622.093 38.5578C625.409 36.1414 630.062 34.9332 636.051 34.9332H642.992V31.6555C642.992 29.162 642.247 27.1825 640.756 25.7172C639.265 24.2262 637.067 23.4807 634.162 23.4807C631.617 23.4807 629.483 24.1234 627.761 25.4087C626.039 26.6941 625.177 28.2494 625.177 30.0746H618.005C618.005 27.9923 618.738 25.9871 620.203 24.0591C621.694 22.1054 623.699 20.563 626.218 19.4319C628.763 18.3008 631.553 17.7352 634.586 17.7352C639.393 17.7352 643.159 18.9434 645.884 21.3599C648.609 23.7506 650.023 27.054 650.126 31.2699V50.473C650.126 54.3033 650.614 57.3496 651.591 59.6118V60.2288H644.11ZM632.272 54.7918C634.509 54.7918 636.63 54.2134 638.635 53.0566C640.64 51.8997 642.093 50.3959 642.992 48.545V39.9846H637.401C628.661 39.9846 624.29 42.5424 624.29 47.6581C624.29 49.8946 625.036 51.6427 626.527 52.9023C628.018 54.162 629.933 54.7918 632.272 54.7918Z" fill="#2AF808"/>
<path d="M21.6298 37.5167H8.44216V60.2288H1V4.08483H19.5861C25.91 4.08483 30.7686 5.52442 34.162 8.4036C37.581 11.2828 39.2905 15.473 39.2905 20.9743C39.2905 24.4704 38.3393 27.5167 36.437 30.1131C34.5604 32.7095 31.9383 34.6504 28.5707 35.9357L41.7584 59.7661V60.2288H33.8149L21.6298 37.5167ZM8.44216 31.4627H19.8175C23.4936 31.4627 26.4113 30.5116 28.5707 28.6093C30.7558 26.7069 31.8483 24.162 31.8483 20.9743C31.8483 17.5039 30.8072 14.8432 28.7249 12.9923C26.6684 11.1414 23.6864 10.2031 19.7789 10.1774H8.44216V31.4627Z" stroke="#2AF808"/>
<path d="M78.2905 60.2288C77.8792 59.4062 77.545 57.9409 77.2879 55.8329C73.9717 59.2776 70.0128 61 65.4113 61C61.2982 61 57.9177 59.8432 55.2699 57.5296C52.6478 55.1902 51.3368 52.2339 51.3368 48.6607C51.3368 44.3162 52.982 40.9486 56.2725 38.5578C59.5887 36.1414 64.2416 34.9332 70.2314 34.9332H77.1722V31.6555C77.1722 29.162 76.4267 27.1825 74.9357 25.7172C73.4447 24.2262 71.2468 23.4807 68.3419 23.4807C65.7969 23.4807 63.6632 24.1234 61.9409 25.4087C60.2185 26.6941 59.3573 28.2494 59.3573 30.0746H52.1851C52.1851 27.9923 52.9177 25.9871 54.383 24.0591C55.874 22.1054 57.8792 20.563 60.3985 19.4319C62.9434 18.3008 65.7326 17.7352 68.7661 17.7352C73.5733 17.7352 77.3393 18.9434 80.0643 21.3599C82.7892 23.7506 84.2031 27.054 84.3059 31.2699V50.473C84.3059 54.3033 84.7943 57.3496 85.7712 59.6118V60.2288H78.2905ZM66.4524 54.7918C68.6889 54.7918 70.8098 54.2134 72.8149 53.0566C74.82 51.8997 76.2725 50.3959 77.1722 48.545V39.9846H71.581C62.8406 39.9846 58.4704 42.5424 58.4704 47.6581C58.4704 49.8946 59.2159 51.6427 60.7069 52.9023C62.1979 54.162 64.1131 54.7918 66.4524 54.7918Z" stroke="#2AF808"/>
<path d="M106.147 54.4062H130.555V60.2288H97.4319V54.9846L120.452 24.4062H97.7789V18.5064H129.398V23.5578L106.147 54.4062Z" stroke="#2AF808"/>
<path d="M140.057 38.982C140.057 34.8946 140.853 31.2185 142.447 27.9537C144.067 24.6889 146.303 22.1697 149.157 20.3959C152.036 18.6221 155.314 17.7352 158.99 17.7352C164.671 17.7352 169.26 19.7018 172.756 23.635C176.278 27.5681 178.039 32.7995 178.039 39.3291V39.8303C178.039 43.892 177.254 47.5424 175.686 50.7815C174.144 53.9949 171.92 56.5013 169.015 58.3008C166.136 60.1003 162.82 61 159.067 61C153.411 61 148.823 59.0334 145.301 55.1003C141.805 51.1671 140.057 45.9614 140.057 39.4833V38.982ZM147.229 39.8303C147.229 44.4576 148.296 48.1722 150.429 50.9743C152.589 53.7764 155.468 55.1774 159.067 55.1774C162.691 55.1774 165.571 53.7635 167.704 50.9357C169.838 48.0823 170.905 44.0977 170.905 38.982C170.905 34.4062 169.812 30.7044 167.627 27.8766C165.468 25.0231 162.589 23.5964 158.99 23.5964C155.468 23.5964 152.627 24.9974 150.468 27.7995C148.308 30.6015 147.229 34.6118 147.229 39.8303ZM162.229 1H170.866L160.532 12.3368H154.787L162.229 1Z" stroke="#2AF808"/>
<path d="M197.681 18.5064L197.913 23.7506C201.1 19.7404 205.265 17.7352 210.406 17.7352C219.224 17.7352 223.671 22.7095 223.748 32.6581V60.2288H216.614V32.6195C216.589 29.6118 215.895 27.3882 214.532 25.9486C213.195 24.509 211.1 23.7892 208.247 23.7892C205.933 23.7892 203.902 24.4062 202.154 25.6401C200.406 26.874 199.044 28.4936 198.067 30.4987V60.2288H190.933V18.5064H197.681Z" stroke="#2AF808"/>
<path d="M294.113 45.5758H270.591L265.308 60.2288H257.674L279.113 4.08483H285.591L307.069 60.2288H299.473L294.113 45.5758ZM272.828 39.4833H291.915L282.352 13.2237L272.828 39.4833Z" stroke="#2AF808"/>
<path d="M337.625 24.9075C336.545 24.7275 335.375 24.6375 334.116 24.6375C329.437 24.6375 326.262 26.6298 324.591 30.6144V60.2288H317.458V18.5064H324.398L324.514 23.3265C326.853 19.599 330.17 17.7352 334.463 17.7352C335.851 17.7352 336.905 17.9152 337.625 18.2751V24.9075Z" stroke="#2AF808"/>
<path d="M355.918 60.2288H348.784V18.5064H355.918V60.2288ZM348.206 7.43959C348.206 6.28278 348.553 5.30591 349.247 4.509C349.967 3.71208 351.021 3.31362 352.409 3.31362C353.797 3.31362 354.851 3.71208 355.571 4.509C356.29 5.30591 356.65 6.28278 356.65 7.43959C356.65 8.5964 356.29 9.56041 355.571 10.3316C354.851 11.1028 353.797 11.4884 352.409 11.4884C351.021 11.4884 349.967 11.1028 349.247 10.3316C348.553 9.56041 348.206 8.5964 348.206 7.43959Z" stroke="#2AF808"/>
<path d="M380.997 8.4036V18.5064H388.787V24.0206H380.997V49.8946C380.997 51.5656 381.344 52.8252 382.039 53.6735C382.733 54.4961 383.915 54.9075 385.586 54.9075C386.409 54.9075 387.54 54.7532 388.979 54.4447V60.2288C387.103 60.7429 385.278 61 383.504 61C380.316 61 377.913 60.036 376.293 58.108C374.673 56.18 373.864 53.4422 373.864 49.8946V24.0206H366.267V18.5064H373.864V8.4036H380.997Z" stroke="#2AF808"/>
<path d="M407.812 18.5064L408.005 23.1337C411.064 19.5347 415.19 17.7352 420.383 17.7352C426.218 17.7352 430.19 19.9717 432.298 24.4447C433.686 22.4396 435.486 20.8201 437.697 19.5861C439.933 18.3522 442.568 17.7352 445.602 17.7352C454.753 17.7352 459.406 22.581 459.56 32.2725V60.2288H452.427V32.6967C452.427 29.7147 451.745 27.491 450.383 26.0257C449.021 24.5347 446.733 23.7892 443.519 23.7892C440.871 23.7892 438.673 24.5861 436.925 26.18C435.177 27.7481 434.162 29.8689 433.879 32.5424V60.2288H426.707V32.8895C426.707 26.8226 423.738 23.7892 417.799 23.7892C413.121 23.7892 409.92 25.7815 408.198 29.7661V60.2288H401.064V18.5064H407.812Z" stroke="#2AF808"/>
<path d="M491.62 61C485.964 61 481.362 59.1491 477.815 55.4473C474.267 51.7198 472.494 46.7455 472.494 40.5244V39.2134C472.494 35.0746 473.278 31.3856 474.846 28.1465C476.44 24.8818 478.65 22.3368 481.478 20.5116C484.332 18.6607 487.416 17.7352 490.733 17.7352C496.157 17.7352 500.373 19.5219 503.38 23.0951C506.388 26.6684 507.892 31.7841 507.892 38.4422V41.4113H479.627C479.73 45.5244 480.925 48.8535 483.213 51.3985C485.527 53.9177 488.458 55.1774 492.005 55.1774C494.524 55.1774 496.658 54.6632 498.406 53.635C500.154 52.6067 501.684 51.2442 502.995 49.5476L507.352 52.9409C503.856 58.3136 498.612 61 491.62 61ZM490.733 23.5964C487.853 23.5964 485.437 24.6504 483.483 26.7584C481.53 28.8406 480.321 31.7712 479.859 35.5501H500.758V35.0103C500.553 31.3856 499.576 28.5835 497.828 26.6041C496.08 24.599 493.715 23.5964 490.733 23.5964ZM494.203 1H502.841L492.506 12.3368H486.761L494.203 1Z" stroke="#2AF808"/>
<path d="M529.81 8.4036V18.5064H537.599V24.0206H529.81V49.8946C529.81 51.5656 530.157 52.8252 530.851 53.6735C531.545 54.4961 532.727 54.9075 534.398 54.9075C535.221 54.9075 536.352 54.7532 537.792 54.4447V60.2288C535.915 60.7429 534.09 61 532.316 61C529.128 61 526.725 60.036 525.105 58.108C523.486 56.18 522.676 53.4422 522.676 49.8946V24.0206H515.08V18.5064H522.676V8.4036H529.81Z" stroke="#2AF808"/>
<path d="M557.666 60.2288H550.532V18.5064H557.666V60.2288ZM549.954 7.43959C549.954 6.28278 550.301 5.30591 550.995 4.509C551.715 3.71208 552.769 3.31362 554.157 3.31362C555.545 3.31362 556.599 3.71208 557.319 4.509C558.039 5.30591 558.398 6.28278 558.398 7.43959C558.398 8.5964 558.039 9.56041 557.319 10.3316C556.599 11.1028 555.545 11.4884 554.157 11.4884C552.769 11.4884 551.715 11.1028 550.995 10.3316C550.301 9.56041 549.954 8.5964 549.954 7.43959Z" stroke="#2AF808"/>
<path d="M589.802 55.1774C592.347 55.1774 594.571 54.4062 596.473 52.8638C598.375 51.3213 599.429 49.3933 599.635 47.0797H606.383C606.255 49.4704 605.432 51.7455 603.915 53.9049C602.398 56.0643 600.368 57.7866 597.823 59.072C595.303 60.3573 592.63 61 589.802 61C584.121 61 579.596 59.1105 576.229 55.3316C572.887 51.527 571.216 46.3342 571.216 39.7532V38.5578C571.216 34.4961 571.961 30.8843 573.452 27.7224C574.943 24.5604 577.077 22.1054 579.853 20.3573C582.656 18.6093 585.959 17.7352 589.763 17.7352C594.442 17.7352 598.324 19.1362 601.409 21.9383C604.519 24.7404 606.177 28.3779 606.383 32.8509H599.635C599.429 30.1517 598.401 27.9409 596.55 26.2185C594.725 24.4704 592.463 23.5964 589.763 23.5964C586.139 23.5964 583.324 24.9075 581.319 27.5296C579.339 30.126 578.35 33.892 578.35 38.8278V40.1774C578.35 44.9846 579.339 48.6864 581.319 51.2828C583.298 53.8792 586.126 55.1774 589.802 55.1774Z" stroke="#2AF808"/>
<path d="M644.11 60.2288C643.699 59.4062 643.365 57.9409 643.108 55.8329C639.792 59.2776 635.833 61 631.231 61C627.118 61 623.738 59.8432 621.09 57.5296C618.468 55.1902 617.157 52.2339 617.157 48.6607C617.157 44.3162 618.802 40.9486 622.093 38.5578C625.409 36.1414 630.062 34.9332 636.051 34.9332H642.992V31.6555C642.992 29.162 642.247 27.1825 640.756 25.7172C639.265 24.2262 637.067 23.4807 634.162 23.4807C631.617 23.4807 629.483 24.1234 627.761 25.4087C626.039 26.6941 625.177 28.2494 625.177 30.0746H618.005C618.005 27.9923 618.738 25.9871 620.203 24.0591C621.694 22.1054 623.699 20.563 626.218 19.4319C628.763 18.3008 631.553 17.7352 634.586 17.7352C639.393 17.7352 643.159 18.9434 645.884 21.3599C648.609 23.7506 650.023 27.054 650.126 31.2699V50.473C650.126 54.3033 650.614 57.3496 651.591 59.6118V60.2288H644.11ZM632.272 54.7918C634.509 54.7918 636.63 54.2134 638.635 53.0566C640.64 51.8997 642.093 50.3959 642.992 48.545V39.9846H637.401C628.661 39.9846 624.29 42.5424 624.29 47.6581C624.29 49.8946 625.036 51.6427 626.527 52.9023C628.018 54.162 629.933 54.7918 632.272 54.7918Z" stroke="#2AF808"/>
</svg>
