<svg viewBox="0 0 638 62" fill="none" xmlns="http://www.w3.org/2000/svg">
<path d="M21.6298 37.5167H8.44216V60.2288H1V4.08483H19.5861C25.91 4.08483 30.7686 5.52442 34.162 8.4036C37.581 11.2828 39.2905 15.473 39.2905 20.9743C39.2905 24.4704 38.3393 27.5167 36.437 30.1131C34.5604 32.7095 31.9383 34.6504 28.5707 35.9357L41.7584 59.7661V60.2288H33.8149L21.6298 37.5167ZM8.44216 31.4627H19.8175C23.4936 31.4627 26.4113 30.5116 28.5707 28.6093C30.7558 26.7069 31.8483 24.162 31.8483 20.9743C31.8483 17.5039 30.8072 14.8432 28.7249 12.9923C26.6684 11.1414 23.6864 10.2031 19.7789 10.1774H8.44216V31.4627Z" fill="#12E1EE"/>
<path d="M74.3419 60.2288C73.9306 59.4062 73.5964 57.9409 73.3393 55.8329C70.0231 59.2776 66.0643 61 61.4627 61C57.3496 61 53.9691 59.8432 51.3213 57.5296C48.6992 55.1902 47.3882 52.2339 47.3882 48.6607C47.3882 44.3162 49.0334 40.9486 52.3239 38.5578C55.6401 36.1414 60.2931 34.9332 66.2828 34.9332H73.2236V31.6555C73.2236 29.162 72.4781 27.1825 70.9871 25.7172C69.4961 24.2262 67.2982 23.4807 64.3933 23.4807C61.8483 23.4807 59.7146 24.1234 57.9923 25.4087C56.2699 26.6941 55.4087 28.2494 55.4087 30.0746H48.2365C48.2365 27.9923 48.9692 25.9871 50.4344 24.0591C51.9254 22.1054 53.9306 20.563 56.4499 19.4319C58.9949 18.3008 61.7841 17.7352 64.8175 17.7352C69.6247 17.7352 73.3907 18.9434 76.1157 21.3599C78.8406 23.7506 80.2545 27.054 80.3573 31.2699V50.473C80.3573 54.3033 80.8458 57.3496 81.8226 59.6118V60.2288H74.3419ZM62.5039 54.7918C64.7404 54.7918 66.8612 54.2134 68.8663 53.0566C70.8715 51.8997 72.3239 50.3959 73.2236 48.545V39.9846H67.6324C58.892 39.9846 54.5218 42.5424 54.5218 47.6581C54.5218 49.8946 55.2673 51.6427 56.7584 52.9023C58.2494 54.162 60.1645 54.7918 62.5039 54.7918Z" fill="#12E1EE"/>
<path d="M98.2494 54.4062H122.658V60.2288H89.5347V54.9846L112.555 24.4062H89.8817V18.5064H121.501V23.5578L98.2494 54.4062Z" fill="#12E1EE"/>
<path d="M128.211 38.982C128.211 34.8946 129.008 31.2185 130.602 27.9537C132.221 24.6889 134.458 22.1697 137.311 20.3959C140.19 18.6221 143.468 17.7352 147.144 17.7352C152.825 17.7352 157.414 19.7018 160.91 23.635C164.432 27.5681 166.193 32.7995 166.193 39.3291V39.8303C166.193 43.892 165.409 47.5424 163.841 50.7815C162.298 53.9949 160.075 56.5013 157.17 58.3008C154.29 60.1003 150.974 61 147.221 61C141.566 61 136.977 59.0334 133.455 55.1003C129.959 51.1671 128.211 45.9614 128.211 39.4833V38.982ZM135.383 39.8303C135.383 44.4576 136.45 48.1722 138.584 50.9743C140.743 53.7764 143.622 55.1774 147.221 55.1774C150.846 55.1774 153.725 53.7635 155.859 50.9357C157.992 48.0823 159.059 44.0977 159.059 38.982C159.059 34.4062 157.967 30.7044 155.781 27.8766C153.622 25.0231 150.743 23.5964 147.144 23.5964C143.622 23.5964 140.781 24.9974 138.622 27.7995C136.463 30.6015 135.383 34.6118 135.383 39.8303ZM150.383 1H159.021L148.686 12.3368H142.941L150.383 1Z" fill="#12E1EE"/>
<path d="M181.887 18.5064L182.118 23.7506C185.306 19.7404 189.47 17.7352 194.612 17.7352C203.429 17.7352 207.877 22.7095 207.954 32.6581V60.2288H200.82V32.6195C200.794 29.6118 200.1 27.3882 198.738 25.9486C197.401 24.509 195.306 23.7892 192.452 23.7892C190.139 23.7892 188.108 24.4062 186.36 25.6401C184.612 26.874 183.249 28.4936 182.272 30.4987V60.2288H175.139V18.5064H181.887Z" fill="#12E1EE"/>
<path d="M280.871 52.8638C278.969 55.5887 276.308 57.6324 272.889 58.9949C269.496 60.3316 265.537 61 261.013 61C256.437 61 252.375 59.9332 248.828 57.7995C245.28 55.6401 242.53 52.581 240.576 48.6221C238.648 44.6632 237.658 40.0746 237.607 34.856V29.9589C237.607 21.5013 239.573 14.946 243.506 10.2931C247.465 5.6401 253.018 3.31362 260.165 3.31362C266.026 3.31362 270.743 4.81748 274.316 7.82519C277.889 10.8072 280.075 15.0488 280.871 20.5501H273.468C272.08 13.1208 267.658 9.40617 260.203 9.40617C255.242 9.40617 251.476 11.1542 248.905 14.6504C246.36 18.1208 245.075 23.1594 245.049 29.7661V34.3548C245.049 40.653 246.488 45.6658 249.368 49.3933C252.247 53.0951 256.141 54.946 261.051 54.946C263.828 54.946 266.257 54.6375 268.339 54.0206C270.422 53.4036 272.144 52.3625 273.506 50.8972V38.2879H260.512V32.2725H280.871V52.8638Z" fill="#12E1EE"/>
<path d="M309.445 61C303.789 61 299.188 59.1491 295.64 55.4473C292.093 51.7198 290.319 46.7455 290.319 40.5244V39.2134C290.319 35.0746 291.103 31.3856 292.671 28.1465C294.265 24.8818 296.476 22.3368 299.303 20.5116C302.157 18.6607 305.242 17.7352 308.558 17.7352C313.982 17.7352 318.198 19.5219 321.206 23.0951C324.213 26.6684 325.717 31.7841 325.717 38.4422V41.4113H297.452C297.555 45.5244 298.751 48.8535 301.039 51.3985C303.352 53.9177 306.283 55.1774 309.83 55.1774C312.35 55.1774 314.483 54.6632 316.231 53.635C317.979 52.6067 319.509 51.2442 320.82 49.5476L325.177 52.9409C321.681 58.3136 316.437 61 309.445 61ZM308.558 23.5964C305.679 23.5964 303.262 24.6504 301.308 26.7584C299.355 28.8406 298.147 31.7712 297.684 35.5501H318.584V35.0103C318.378 31.3856 317.401 28.5835 315.653 26.6041C313.905 24.599 311.54 23.5964 308.558 23.5964Z" fill="#12E1EE"/>
<path d="M332.118 38.982C332.118 34.8946 332.915 31.2185 334.509 27.9537C336.129 24.6889 338.365 22.1697 341.218 20.3959C344.098 18.6221 347.375 17.7352 351.051 17.7352C356.733 17.7352 361.321 19.7018 364.817 23.635C368.339 27.5681 370.1 32.7995 370.1 39.3291V39.8303C370.1 43.892 369.316 47.5424 367.748 50.7815C366.206 53.9949 363.982 56.5013 361.077 58.3008C358.198 60.1003 354.882 61 351.129 61C345.473 61 340.884 59.0334 337.362 55.1003C333.866 51.1671 332.118 45.9614 332.118 39.4833V38.982ZM339.29 39.8303C339.29 44.4576 340.357 48.1722 342.491 50.9743C344.65 53.7764 347.53 55.1774 351.129 55.1774C354.753 55.1774 357.632 53.7635 359.766 50.9357C361.9 48.0823 362.967 44.0977 362.967 38.982C362.967 34.4062 361.874 30.7044 359.689 27.8766C357.53 25.0231 354.65 23.5964 351.051 23.5964C347.53 23.5964 344.689 24.9974 342.53 27.7995C340.37 30.6015 339.29 34.6118 339.29 39.8303Z" fill="#12E1EE"/>
<path d="M385.756 18.5064L385.949 23.1337C389.008 19.5347 393.134 17.7352 398.326 17.7352C404.162 17.7352 408.134 19.9717 410.242 24.4447C411.63 22.4396 413.429 20.8201 415.64 19.5861C417.877 18.3522 420.512 17.7352 423.545 17.7352C432.697 17.7352 437.35 22.581 437.504 32.2725V60.2288H430.37V32.6967C430.37 29.7147 429.689 27.491 428.326 26.0257C426.964 24.5347 424.676 23.7892 421.463 23.7892C418.815 23.7892 416.617 24.5861 414.869 26.18C413.121 27.7481 412.105 29.8689 411.823 32.5424V60.2288H404.65V32.8895C404.65 26.8226 401.681 23.7892 395.743 23.7892C391.064 23.7892 387.864 25.7815 386.141 29.7661V60.2288H379.008V18.5064H385.756Z" fill="#12E1EE"/>
<path d="M465.614 61C459.959 61 455.357 59.1491 451.81 55.4473C448.262 51.7198 446.488 46.7455 446.488 40.5244V39.2134C446.488 35.0746 447.272 31.3856 448.841 28.1465C450.434 24.8818 452.645 22.3368 455.473 20.5116C458.326 18.6607 461.411 17.7352 464.727 17.7352C470.152 17.7352 474.368 19.5219 477.375 23.0951C480.383 26.6684 481.887 31.7841 481.887 38.4422V41.4113H453.622C453.725 45.5244 454.92 48.8535 457.208 51.3985C459.522 53.9177 462.452 55.1774 466 55.1774C468.519 55.1774 470.653 54.6632 472.401 53.635C474.149 52.6067 475.679 51.2442 476.99 49.5476L481.347 52.9409C477.851 58.3136 472.607 61 465.614 61ZM464.727 23.5964C461.848 23.5964 459.432 24.6504 457.478 26.7584C455.524 28.8406 454.316 31.7712 453.853 35.5501H474.753V35.0103C474.548 31.3856 473.571 28.5835 471.823 26.6041C470.075 24.599 467.709 23.5964 464.727 23.5964ZM468.198 1H476.835L466.501 12.3368H460.756L468.198 1Z" fill="#12E1EE"/>
<path d="M499.856 8.4036V18.5064H507.645V24.0206H499.856V49.8946C499.856 51.5656 500.203 52.8252 500.897 53.6735C501.591 54.4961 502.774 54.9075 504.445 54.9075C505.267 54.9075 506.398 54.7532 507.838 54.4447V60.2288C505.961 60.7429 504.136 61 502.362 61C499.175 61 496.771 60.036 495.152 58.108C493.532 56.18 492.722 53.4422 492.722 49.8946V24.0206H485.126V18.5064H492.722V8.4036H499.856Z" fill="#12E1EE"/>
<path d="M536.18 24.9075C535.1 24.7275 533.931 24.6375 532.671 24.6375C527.992 24.6375 524.817 26.6298 523.146 30.6144V60.2288H516.013V18.5064H522.954L523.069 23.3265C525.409 19.599 528.725 17.7352 533.018 17.7352C534.406 17.7352 535.46 17.9152 536.18 18.2751V24.9075Z" fill="#12E1EE"/>
<path d="M550.524 60.2288H543.391V18.5064H550.524V60.2288ZM542.812 7.43959C542.812 6.28278 543.159 5.30591 543.853 4.509C544.573 3.71208 545.627 3.31362 547.015 3.31362C548.404 3.31362 549.458 3.71208 550.177 4.509C550.897 5.30591 551.257 6.28278 551.257 7.43959C551.257 8.5964 550.897 9.56041 550.177 10.3316C549.458 11.1028 548.404 11.4884 547.015 11.4884C545.627 11.4884 544.573 11.1028 543.853 10.3316C543.159 9.56041 542.812 8.5964 542.812 7.43959Z" fill="#12E1EE"/>
<path d="M578.712 55.1774C581.257 55.1774 583.481 54.4062 585.383 52.8638C587.285 51.3213 588.339 49.3933 588.545 47.0797H595.293C595.164 49.4704 594.342 51.7455 592.825 53.9049C591.308 56.0643 589.278 57.7866 586.733 59.072C584.213 60.3573 581.54 61 578.712 61C573.031 61 568.506 59.1105 565.139 55.3316C561.797 51.527 560.126 46.3342 560.126 39.7532V38.5578C560.126 34.4961 560.871 30.8843 562.362 27.7224C563.853 24.5604 565.987 22.1054 568.763 20.3573C571.565 18.6093 574.869 17.7352 578.673 17.7352C583.352 17.7352 587.234 19.1362 590.319 21.9383C593.429 24.7404 595.087 28.3779 595.293 32.8509H588.545C588.339 30.1517 587.311 27.9409 585.46 26.2185C583.635 24.4704 581.373 23.5964 578.673 23.5964C575.049 23.5964 572.234 24.9075 570.229 27.5296C568.249 30.126 567.26 33.892 567.26 38.8278V40.1774C567.26 44.9846 568.249 48.6864 570.229 51.2828C572.208 53.8792 575.036 55.1774 578.712 55.1774Z" fill="#12E1EE"/>
<path d="M629.072 60.2288C628.661 59.4062 628.326 57.9409 628.069 55.8329C624.753 59.2776 620.794 61 616.193 61C612.08 61 608.699 59.8432 606.051 57.5296C603.429 55.1902 602.118 52.2339 602.118 48.6607C602.118 44.3162 603.763 40.9486 607.054 38.5578C610.37 36.1414 615.023 34.9332 621.013 34.9332H627.954V31.6555C627.954 29.162 627.208 27.1825 625.717 25.7172C624.226 24.2262 622.028 23.4807 619.123 23.4807C616.578 23.4807 614.445 24.1234 612.722 25.4087C611 26.6941 610.139 28.2494 610.139 30.0746H602.967C602.967 27.9923 603.699 25.9871 605.164 24.0591C606.656 22.1054 608.661 20.563 611.18 19.4319C613.725 18.3008 616.514 17.7352 619.548 17.7352C624.355 17.7352 628.121 18.9434 630.846 21.3599C633.571 23.7506 634.985 27.054 635.087 31.2699V50.473C635.087 54.3033 635.576 57.3496 636.553 59.6118V60.2288H629.072ZM617.234 54.7918C619.47 54.7918 621.591 54.2134 623.596 53.0566C625.602 51.8997 627.054 50.3959 627.954 48.545V39.9846H622.362C613.622 39.9846 609.252 42.5424 609.252 47.6581C609.252 49.8946 609.997 51.6427 611.488 52.9023C612.979 54.162 614.895 54.7918 617.234 54.7918Z" fill="#12E1EE"/>
<path d="M21.6298 37.5167H8.44216V60.2288H1V4.08483H19.5861C25.91 4.08483 30.7686 5.52442 34.162 8.4036C37.581 11.2828 39.2905 15.473 39.2905 20.9743C39.2905 24.4704 38.3393 27.5167 36.437 30.1131C34.5604 32.7095 31.9383 34.6504 28.5707 35.9357L41.7584 59.7661V60.2288H33.8149L21.6298 37.5167ZM8.44216 31.4627H19.8175C23.4936 31.4627 26.4113 30.5116 28.5707 28.6093C30.7558 26.7069 31.8483 24.162 31.8483 20.9743C31.8483 17.5039 30.8072 14.8432 28.7249 12.9923C26.6684 11.1414 23.6864 10.2031 19.7789 10.1774H8.44216V31.4627Z" stroke="#12E1EE"/>
<path d="M74.3419 60.2288C73.9306 59.4062 73.5964 57.9409 73.3393 55.8329C70.0231 59.2776 66.0643 61 61.4627 61C57.3496 61 53.9691 59.8432 51.3213 57.5296C48.6992 55.1902 47.3882 52.2339 47.3882 48.6607C47.3882 44.3162 49.0334 40.9486 52.3239 38.5578C55.6401 36.1414 60.2931 34.9332 66.2828 34.9332H73.2236V31.6555C73.2236 29.162 72.4781 27.1825 70.9871 25.7172C69.4961 24.2262 67.2982 23.4807 64.3933 23.4807C61.8483 23.4807 59.7146 24.1234 57.9923 25.4087C56.2699 26.6941 55.4087 28.2494 55.4087 30.0746H48.2365C48.2365 27.9923 48.9692 25.9871 50.4344 24.0591C51.9254 22.1054 53.9306 20.563 56.4499 19.4319C58.9949 18.3008 61.7841 17.7352 64.8175 17.7352C69.6247 17.7352 73.3907 18.9434 76.1157 21.3599C78.8406 23.7506 80.2545 27.054 80.3573 31.2699V50.473C80.3573 54.3033 80.8458 57.3496 81.8226 59.6118V60.2288H74.3419ZM62.5039 54.7918C64.7404 54.7918 66.8612 54.2134 68.8663 53.0566C70.8715 51.8997 72.3239 50.3959 73.2236 48.545V39.9846H67.6324C58.892 39.9846 54.5218 42.5424 54.5218 47.6581C54.5218 49.8946 55.2673 51.6427 56.7584 52.9023C58.2494 54.162 60.1645 54.7918 62.5039 54.7918Z" stroke="#12E1EE"/>
<path d="M98.2494 54.4062H122.658V60.2288H89.5347V54.9846L112.555 24.4062H89.8817V18.5064H121.501V23.5578L98.2494 54.4062Z" stroke="#12E1EE"/>
<path d="M128.211 38.982C128.211 34.8946 129.008 31.2185 130.602 27.9537C132.221 24.6889 134.458 22.1697 137.311 20.3959C140.19 18.6221 143.468 17.7352 147.144 17.7352C152.825 17.7352 157.414 19.7018 160.91 23.635C164.432 27.5681 166.193 32.7995 166.193 39.3291V39.8303C166.193 43.892 165.409 47.5424 163.841 50.7815C162.298 53.9949 160.075 56.5013 157.17 58.3008C154.29 60.1003 150.974 61 147.221 61C141.566 61 136.977 59.0334 133.455 55.1003C129.959 51.1671 128.211 45.9614 128.211 39.4833V38.982ZM135.383 39.8303C135.383 44.4576 136.45 48.1722 138.584 50.9743C140.743 53.7764 143.622 55.1774 147.221 55.1774C150.846 55.1774 153.725 53.7635 155.859 50.9357C157.992 48.0823 159.059 44.0977 159.059 38.982C159.059 34.4062 157.967 30.7044 155.781 27.8766C153.622 25.0231 150.743 23.5964 147.144 23.5964C143.622 23.5964 140.781 24.9974 138.622 27.7995C136.463 30.6015 135.383 34.6118 135.383 39.8303ZM150.383 1H159.021L148.686 12.3368H142.941L150.383 1Z" stroke="#12E1EE"/>
<path d="M181.887 18.5064L182.118 23.7506C185.306 19.7404 189.47 17.7352 194.612 17.7352C203.429 17.7352 207.877 22.7095 207.954 32.6581V60.2288H200.82V32.6195C200.794 29.6118 200.1 27.3882 198.738 25.9486C197.401 24.509 195.306 23.7892 192.452 23.7892C190.139 23.7892 188.108 24.4062 186.36 25.6401C184.612 26.874 183.249 28.4936 182.272 30.4987V60.2288H175.139V18.5064H181.887Z" stroke="#12E1EE"/>
<path d="M280.871 52.8638C278.969 55.5887 276.308 57.6324 272.889 58.9949C269.496 60.3316 265.537 61 261.013 61C256.437 61 252.375 59.9332 248.828 57.7995C245.28 55.6401 242.53 52.581 240.576 48.6221C238.648 44.6632 237.658 40.0746 237.607 34.856V29.9589C237.607 21.5013 239.573 14.946 243.506 10.2931C247.465 5.6401 253.018 3.31362 260.165 3.31362C266.026 3.31362 270.743 4.81748 274.316 7.82519C277.889 10.8072 280.075 15.0488 280.871 20.5501H273.468C272.08 13.1208 267.658 9.40617 260.203 9.40617C255.242 9.40617 251.476 11.1542 248.905 14.6504C246.36 18.1208 245.075 23.1594 245.049 29.7661V34.3548C245.049 40.653 246.488 45.6658 249.368 49.3933C252.247 53.0951 256.141 54.946 261.051 54.946C263.828 54.946 266.257 54.6375 268.339 54.0206C270.422 53.4036 272.144 52.3625 273.506 50.8972V38.2879H260.512V32.2725H280.871V52.8638Z" stroke="#12E1EE"/>
<path d="M309.445 61C303.789 61 299.188 59.1491 295.64 55.4473C292.093 51.7198 290.319 46.7455 290.319 40.5244V39.2134C290.319 35.0746 291.103 31.3856 292.671 28.1465C294.265 24.8818 296.476 22.3368 299.303 20.5116C302.157 18.6607 305.242 17.7352 308.558 17.7352C313.982 17.7352 318.198 19.5219 321.206 23.0951C324.213 26.6684 325.717 31.7841 325.717 38.4422V41.4113H297.452C297.555 45.5244 298.751 48.8535 301.039 51.3985C303.352 53.9177 306.283 55.1774 309.83 55.1774C312.35 55.1774 314.483 54.6632 316.231 53.635C317.979 52.6067 319.509 51.2442 320.82 49.5476L325.177 52.9409C321.681 58.3136 316.437 61 309.445 61ZM308.558 23.5964C305.679 23.5964 303.262 24.6504 301.308 26.7584C299.355 28.8406 298.147 31.7712 297.684 35.5501H318.584V35.0103C318.378 31.3856 317.401 28.5835 315.653 26.6041C313.905 24.599 311.54 23.5964 308.558 23.5964Z" stroke="#12E1EE"/>
<path d="M332.118 38.982C332.118 34.8946 332.915 31.2185 334.509 27.9537C336.129 24.6889 338.365 22.1697 341.218 20.3959C344.098 18.6221 347.375 17.7352 351.051 17.7352C356.733 17.7352 361.321 19.7018 364.817 23.635C368.339 27.5681 370.1 32.7995 370.1 39.3291V39.8303C370.1 43.892 369.316 47.5424 367.748 50.7815C366.206 53.9949 363.982 56.5013 361.077 58.3008C358.198 60.1003 354.882 61 351.129 61C345.473 61 340.884 59.0334 337.362 55.1003C333.866 51.1671 332.118 45.9614 332.118 39.4833V38.982ZM339.29 39.8303C339.29 44.4576 340.357 48.1722 342.491 50.9743C344.65 53.7764 347.53 55.1774 351.129 55.1774C354.753 55.1774 357.632 53.7635 359.766 50.9357C361.9 48.0823 362.967 44.0977 362.967 38.982C362.967 34.4062 361.874 30.7044 359.689 27.8766C357.53 25.0231 354.65 23.5964 351.051 23.5964C347.53 23.5964 344.689 24.9974 342.53 27.7995C340.37 30.6015 339.29 34.6118 339.29 39.8303Z" stroke="#12E1EE"/>
<path d="M385.756 18.5064L385.949 23.1337C389.008 19.5347 393.134 17.7352 398.326 17.7352C404.162 17.7352 408.134 19.9717 410.242 24.4447C411.63 22.4396 413.429 20.8201 415.64 19.5861C417.877 18.3522 420.512 17.7352 423.545 17.7352C432.697 17.7352 437.35 22.581 437.504 32.2725V60.2288H430.37V32.6967C430.37 29.7147 429.689 27.491 428.326 26.0257C426.964 24.5347 424.676 23.7892 421.463 23.7892C418.815 23.7892 416.617 24.5861 414.869 26.18C413.121 27.7481 412.105 29.8689 411.823 32.5424V60.2288H404.65V32.8895C404.65 26.8226 401.681 23.7892 395.743 23.7892C391.064 23.7892 387.864 25.7815 386.141 29.7661V60.2288H379.008V18.5064H385.756Z" stroke="#12E1EE"/>
<path d="M465.614 61C459.959 61 455.357 59.1491 451.81 55.4473C448.262 51.7198 446.488 46.7455 446.488 40.5244V39.2134C446.488 35.0746 447.272 31.3856 448.841 28.1465C450.434 24.8818 452.645 22.3368 455.473 20.5116C458.326 18.6607 461.411 17.7352 464.727 17.7352C470.152 17.7352 474.368 19.5219 477.375 23.0951C480.383 26.6684 481.887 31.7841 481.887 38.4422V41.4113H453.622C453.725 45.5244 454.92 48.8535 457.208 51.3985C459.522 53.9177 462.452 55.1774 466 55.1774C468.519 55.1774 470.653 54.6632 472.401 53.635C474.149 52.6067 475.679 51.2442 476.99 49.5476L481.347 52.9409C477.851 58.3136 472.607 61 465.614 61ZM464.727 23.5964C461.848 23.5964 459.432 24.6504 457.478 26.7584C455.524 28.8406 454.316 31.7712 453.853 35.5501H474.753V35.0103C474.548 31.3856 473.571 28.5835 471.823 26.6041C470.075 24.599 467.709 23.5964 464.727 23.5964ZM468.198 1H476.835L466.501 12.3368H460.756L468.198 1Z" stroke="#12E1EE"/>
<path d="M499.856 8.4036V18.5064H507.645V24.0206H499.856V49.8946C499.856 51.5656 500.203 52.8252 500.897 53.6735C501.591 54.4961 502.774 54.9075 504.445 54.9075C505.267 54.9075 506.398 54.7532 507.838 54.4447V60.2288C505.961 60.7429 504.136 61 502.362 61C499.175 61 496.771 60.036 495.152 58.108C493.532 56.18 492.722 53.4422 492.722 49.8946V24.0206H485.126V18.5064H492.722V8.4036H499.856Z" stroke="#12E1EE"/>
<path d="M536.18 24.9075C535.1 24.7275 533.931 24.6375 532.671 24.6375C527.992 24.6375 524.817 26.6298 523.146 30.6144V60.2288H516.013V18.5064H522.954L523.069 23.3265C525.409 19.599 528.725 17.7352 533.018 17.7352C534.406 17.7352 535.46 17.9152 536.18 18.2751V24.9075Z" stroke="#12E1EE"/>
<path d="M550.524 60.2288H543.391V18.5064H550.524V60.2288ZM542.812 7.43959C542.812 6.28278 543.159 5.30591 543.853 4.509C544.573 3.71208 545.627 3.31362 547.015 3.31362C548.404 3.31362 549.458 3.71208 550.177 4.509C550.897 5.30591 551.257 6.28278 551.257 7.43959C551.257 8.5964 550.897 9.56041 550.177 10.3316C549.458 11.1028 548.404 11.4884 547.015 11.4884C545.627 11.4884 544.573 11.1028 543.853 10.3316C543.159 9.56041 542.812 8.5964 542.812 7.43959Z" stroke="#12E1EE"/>
<path d="M578.712 55.1774C581.257 55.1774 583.481 54.4062 585.383 52.8638C587.285 51.3213 588.339 49.3933 588.545 47.0797H595.293C595.164 49.4704 594.342 51.7455 592.825 53.9049C591.308 56.0643 589.278 57.7866 586.733 59.072C584.213 60.3573 581.54 61 578.712 61C573.031 61 568.506 59.1105 565.139 55.3316C561.797 51.527 560.126 46.3342 560.126 39.7532V38.5578C560.126 34.4961 560.871 30.8843 562.362 27.7224C563.853 24.5604 565.987 22.1054 568.763 20.3573C571.565 18.6093 574.869 17.7352 578.673 17.7352C583.352 17.7352 587.234 19.1362 590.319 21.9383C593.429 24.7404 595.087 28.3779 595.293 32.8509H588.545C588.339 30.1517 587.311 27.9409 585.46 26.2185C583.635 24.4704 581.373 23.5964 578.673 23.5964C575.049 23.5964 572.234 24.9075 570.229 27.5296C568.249 30.126 567.26 33.892 567.26 38.8278V40.1774C567.26 44.9846 568.249 48.6864 570.229 51.2828C572.208 53.8792 575.036 55.1774 578.712 55.1774Z" stroke="#12E1EE"/>
<path d="M629.072 60.2288C628.661 59.4062 628.326 57.9409 628.069 55.8329C624.753 59.2776 620.794 61 616.193 61C612.08 61 608.699 59.8432 606.051 57.5296C603.429 55.1902 602.118 52.2339 602.118 48.6607C602.118 44.3162 603.763 40.9486 607.054 38.5578C610.37 36.1414 615.023 34.9332 621.013 34.9332H627.954V31.6555C627.954 29.162 627.208 27.1825 625.717 25.7172C624.226 24.2262 622.028 23.4807 619.123 23.4807C616.578 23.4807 614.445 24.1234 612.722 25.4087C611 26.6941 610.139 28.2494 610.139 30.0746H602.967C602.967 27.9923 603.699 25.9871 605.164 24.0591C606.656 22.1054 608.661 20.563 611.18 19.4319C613.725 18.3008 616.514 17.7352 619.548 17.7352C624.355 17.7352 628.121 18.9434 630.846 21.3599C633.571 23.7506 634.985 27.054 635.087 31.2699V50.473C635.087 54.3033 635.576 57.3496 636.553 59.6118V60.2288H629.072ZM617.234 54.7918C619.47 54.7918 621.591 54.2134 623.596 53.0566C625.602 51.8997 627.054 50.3959 627.954 48.545V39.9846H622.362C613.622 39.9846 609.252 42.5424 609.252 47.6581C609.252 49.8946 609.997 51.6427 611.488 52.9023C612.979 54.162 614.895 54.7918 617.234 54.7918Z" stroke="#12E1EE"/>
</svg>
