<svg  viewBox="0 0 451 120" fill="none" xmlns="http://www.w3.org/2000/svg">
<path d="M91.748 66.3821H80.2846V89.187H70V30H90.813C97.6423 30 102.913 31.5312 106.626 34.5935C110.339 37.6558 112.195 42.0867 112.195 47.8862C112.195 51.8428 111.233 55.1626 109.309 57.8455C107.412 60.5014 104.756 62.5474 101.341 63.9837L114.634 88.6585V89.187H103.618L91.748 66.3821ZM80.2846 58.1301H90.8537C94.3225 58.1301 97.0325 57.2629 98.9837 55.5285C100.935 53.7669 101.911 51.3686 101.911 48.3333C101.911 45.1626 101.003 42.71 99.187 40.9756C97.3984 39.2412 94.7154 38.3469 91.1382 38.2927H80.2846V58.1301Z" fill="url(#paint0_linear)"/>
<path d="M147.276 89.187C146.843 88.3469 146.463 86.9783 146.138 85.0813C142.995 88.3604 139.146 90 134.593 90C130.176 90 126.572 88.7398 123.78 86.2195C120.989 83.6992 119.593 80.5827 119.593 76.8699C119.593 72.1816 121.328 68.5908 124.797 66.0976C128.293 63.5772 133.279 62.3171 139.756 62.3171H145.813V59.4309C145.813 57.1545 145.176 55.3388 143.902 53.9837C142.629 52.6016 140.691 51.9106 138.089 51.9106C135.84 51.9106 133.997 52.4797 132.561 53.6179C131.125 54.729 130.407 56.1518 130.407 57.8862H120.528C120.528 55.4743 121.328 53.2249 122.927 51.1382C124.526 49.0244 126.694 47.3713 129.431 46.1789C132.195 44.9864 135.271 44.3902 138.659 44.3902C143.808 44.3902 147.913 45.6911 150.976 48.2927C154.038 50.8672 155.61 54.4986 155.691 59.187V79.0244C155.691 82.981 156.247 86.1382 157.358 88.4959V89.187H147.276ZM136.423 82.0732C138.374 82.0732 140.203 81.5989 141.911 80.6504C143.645 79.7019 144.946 78.4282 145.813 76.8293V68.5366H140.488C136.829 68.5366 134.079 69.1734 132.236 70.4472C130.393 71.7209 129.472 73.523 129.472 75.8537C129.472 77.7507 130.095 79.2683 131.341 80.4065C132.615 81.5176 134.309 82.0732 136.423 82.0732Z" fill="url(#paint1_linear)"/>
<path d="M176.585 81.3008H200V89.187H164.309V82.7236L186.626 53.1707H164.715V45.2033H199.146V51.4634L176.585 81.3008Z" fill="url(#paint2_linear)"/>
<path d="M205.407 66.7886C205.407 62.4797 206.26 58.6043 207.967 55.1626C209.675 51.6938 212.073 49.0379 215.163 47.1951C218.252 45.3252 221.802 44.3902 225.813 44.3902C231.748 44.3902 236.558 46.3008 240.244 50.122C243.957 53.9431 245.962 59.0108 246.26 65.3252L246.301 67.6423C246.301 71.9783 245.461 75.8537 243.78 79.2683C242.127 82.6829 239.743 85.3252 236.626 87.1951C233.537 89.065 229.959 90 225.894 90C219.688 90 214.715 87.9404 210.976 83.8211C207.263 79.6748 205.407 74.1599 205.407 67.2764V66.7886ZM215.285 67.6423C215.285 72.168 216.22 75.7182 218.089 78.2927C219.959 80.8401 222.561 82.1138 225.894 82.1138C229.228 82.1138 231.816 80.813 233.659 78.2114C235.528 75.6098 236.463 71.8022 236.463 66.7886C236.463 62.3442 235.501 58.8211 233.577 56.2195C231.68 53.6179 229.092 52.3171 225.813 52.3171C222.588 52.3171 220.027 53.6043 218.13 56.1789C216.233 58.7263 215.285 62.5474 215.285 67.6423Z" fill="url(#paint3_linear)"/>
<path d="M263.821 45.2033L264.106 50.2846C267.358 46.355 271.626 44.3902 276.911 44.3902C286.07 44.3902 290.732 49.6341 290.894 60.122V89.187H281.016V60.6911C281.016 57.8997 280.406 55.8401 279.187 54.5122C277.995 53.1572 276.03 52.4797 273.293 52.4797C269.309 52.4797 266.341 54.2818 264.39 57.8862V89.187H254.512V45.2033H263.821Z" fill="url(#paint4_linear)"/>
<path d="M320.366 90C314.106 90 309.024 88.0352 305.122 84.1057C301.247 80.1491 299.309 74.8916 299.309 68.3333V67.1138C299.309 62.7236 300.149 58.8076 301.829 55.3659C303.537 51.897 305.921 49.2005 308.984 47.2764C312.046 45.3523 315.461 44.3902 319.228 44.3902C325.217 44.3902 329.837 46.3008 333.089 50.122C336.369 53.9431 338.008 59.3496 338.008 66.3415V70.3252H309.268C309.566 73.9566 310.772 76.8293 312.886 78.9431C315.027 81.0569 317.71 82.1138 320.935 82.1138C325.461 82.1138 329.146 80.2846 331.992 76.626L337.317 81.7073C335.556 84.336 333.198 86.3821 330.244 87.8455C327.317 89.2818 324.024 90 320.366 90ZM319.187 52.3171C316.477 52.3171 314.282 53.2656 312.602 55.1626C310.949 57.0596 309.892 59.7019 309.431 63.0894H328.252V62.3577C328.035 59.0515 327.154 56.5583 325.61 54.878C324.065 53.1707 321.924 52.3171 319.187 52.3171Z" fill="url(#paint5_linear)"/>
<path d="M370.366 77.2358C370.366 75.4743 369.634 74.1328 368.171 73.2114C366.734 72.29 364.336 71.477 360.976 70.7724C357.615 70.0677 354.81 69.1734 352.561 68.0894C347.629 65.7046 345.163 62.2493 345.163 57.7236C345.163 53.9295 346.762 50.7588 349.959 48.2114C353.157 45.664 357.222 44.3902 362.154 44.3902C367.412 44.3902 371.653 45.6911 374.878 48.2927C378.13 50.8943 379.756 54.2683 379.756 58.4146H369.878C369.878 56.5176 369.173 54.9458 367.764 53.6992C366.355 52.4255 364.485 51.7886 362.154 51.7886C359.986 51.7886 358.211 52.29 356.829 53.2927C355.474 54.2954 354.797 55.6369 354.797 57.3171C354.797 58.8347 355.434 60.0135 356.707 60.8537C357.981 61.6938 360.556 62.5474 364.431 63.4146C368.306 64.2547 371.341 65.271 373.537 66.4634C375.759 67.6287 377.398 69.0379 378.455 70.6911C379.539 72.3442 380.081 74.3496 380.081 76.7073C380.081 80.664 378.442 83.8753 375.163 86.3415C371.883 88.7805 367.588 90 362.276 90C358.672 90 355.461 89.3496 352.642 88.0488C349.824 86.748 347.629 84.9594 346.057 82.6829C344.485 80.4065 343.699 77.9539 343.699 75.3252H353.293C353.428 77.6558 354.309 79.458 355.935 80.7317C357.561 81.9783 359.715 82.6016 362.398 82.6016C365 82.6016 366.978 82.1138 368.333 81.1382C369.688 80.1355 370.366 78.8347 370.366 77.2358Z" fill="url(#paint6_linear)"/>
<rect x="5" y="5" width="440.081" height="110" rx="45" stroke="url(#paint7_linear)" stroke-width="10"/>
<defs>
<linearGradient id="paint0_linear" x1="-73.6314" y1="77.046" x2="514.336" y2="61.4363" gradientUnits="userSpaceOnUse">
<stop stop-color="#6EEF31"/>
<stop offset="1" stop-color="#65C1DF"/>
</linearGradient>
<linearGradient id="paint1_linear" x1="-73.6314" y1="77.046" x2="514.336" y2="61.4363" gradientUnits="userSpaceOnUse">
<stop stop-color="#6EEF31"/>
<stop offset="1" stop-color="#65C1DF"/>
</linearGradient>
<linearGradient id="paint2_linear" x1="-73.6314" y1="77.046" x2="514.336" y2="61.4363" gradientUnits="userSpaceOnUse">
<stop stop-color="#6EEF31"/>
<stop offset="1" stop-color="#65C1DF"/>
</linearGradient>
<linearGradient id="paint3_linear" x1="-73.6314" y1="77.046" x2="514.336" y2="61.4363" gradientUnits="userSpaceOnUse">
<stop stop-color="#6EEF31"/>
<stop offset="1" stop-color="#65C1DF"/>
</linearGradient>
<linearGradient id="paint4_linear" x1="-73.6314" y1="77.046" x2="514.336" y2="61.4363" gradientUnits="userSpaceOnUse">
<stop stop-color="#6EEF31"/>
<stop offset="1" stop-color="#65C1DF"/>
</linearGradient>
<linearGradient id="paint5_linear" x1="-73.6314" y1="77.046" x2="514.336" y2="61.4363" gradientUnits="userSpaceOnUse">
<stop stop-color="#6EEF31"/>
<stop offset="1" stop-color="#65C1DF"/>
</linearGradient>
<linearGradient id="paint6_linear" x1="-73.6314" y1="77.046" x2="514.336" y2="61.4363" gradientUnits="userSpaceOnUse">
<stop stop-color="#6EEF31"/>
<stop offset="1" stop-color="#65C1DF"/>
</linearGradient>
<linearGradient id="paint7_linear" x1="2.51403e-07" y1="60.6061" x2="440.919" y2="50.7781" gradientUnits="userSpaceOnUse">
<stop stop-color="#6EEF31"/>
<stop offset="1" stop-color="#65C1DF"/>
</linearGradient>
</defs>
</svg>
