<svg viewBox="0 0 993 412" fill="none" xmlns="http://www.w3.org/2000/svg">
<g id="0120141">
<g id="claves01">
<path id="Rectangle 4" d="M57 205H273.745L307 245L273.745 285H57V205Z" fill="#E8A1EE" fill-opacity="0.1"/>
<path id="Rectangle 4 (Stroke)" fill-rule="evenodd" clip-rule="evenodd" d="M272.338 208H60V282H272.338L303.099 245L272.338 208ZM273.745 205H57V285H273.745L307 245L273.745 205Z" fill="#E8A1EE"/>
<path id="Rectangle 5" d="M61 315H277.745L311 355L277.745 395H61V315Z" fill="#E8A1EE" fill-opacity="0.1"/>
<path id="Rectangle 5 (Stroke)" fill-rule="evenodd" clip-rule="evenodd" d="M276.338 318H64V392H276.338L307.099 355L276.338 318ZM277.745 315H61V395H277.745L311 355L277.745 315Z" fill="#E8A1EE"/>
<path id="Rectangle 6" d="M397 202H613.745L647 242L613.745 282H397V202Z" fill="#E8A1EE" fill-opacity="0.1"/>
<path id="Rectangle 6 (Stroke)" fill-rule="evenodd" clip-rule="evenodd" d="M612.338 205H400V279H612.338L643.099 242L612.338 205ZM613.745 202H397V282H613.745L647 242L613.745 202Z" fill="#E8A1EE"/>
<path id="Rectangle 7" d="M400 312H616.745L650 352L616.745 392H400V312Z" fill="#E8A1EE" fill-opacity="0.1"/>
<path id="Rectangle 7 (Stroke)" fill-rule="evenodd" clip-rule="evenodd" d="M615.338 315H403V389H615.338L646.099 352L615.338 315ZM616.745 312H400V392H616.745L650 352L616.745 312Z" fill="#E8A1EE"/>
<path id="Rectangle 8" d="M743 261H959.745L993 301L959.745 341H743V261Z" fill="#E8A1EE" fill-opacity="0.1"/>
<path id="Rectangle 8 (Stroke)" fill-rule="evenodd" clip-rule="evenodd" d="M958.338 264H746V338H958.338L989.099 301L958.338 264ZM959.745 261H743V341H959.745L993 301L959.745 261Z" fill="#E8A1EE"/>
<path id="Ellipse 1" d="M98 245C98 267.091 80.0914 285 58 285C35.9086 285 18 267.091 18 245C18 222.909 35.9086 205 58 205C80.0914 205 98 222.909 98 245Z" fill="#E8A1EE"/>
<path id="Ellipse 2" d="M102 355C102 377.091 84.0914 395 62 395C39.9086 395 22 377.091 22 355C22 332.909 39.9086 315 62 315C84.0914 315 102 332.909 102 355Z" fill="#E8A1EE"/>
<path id="Ellipse 3" d="M438 242C438 264.091 420.091 282 398 282C375.909 282 358 264.091 358 242C358 219.909 375.909 202 398 202C420.091 202 438 219.909 438 242Z" fill="#E8A1EE"/>
<path id="Ellipse 4" d="M441 352C441 374.091 423.091 392 401 392C378.909 392 361 374.091 361 352C361 329.909 378.909 312 401 312C423.091 312 441 329.909 441 352Z" fill="#E8A1EE"/>
<path id="Ellipse 5" d="M784 301C784 323.091 766.091 341 744 341C721.909 341 704 323.091 704 301C704 278.909 721.909 261 744 261C766.091 261 784 278.909 784 301Z" fill="#E8A1EE"/>
<path id="A" d="M66.0938 255.406H48.4688L44.7812 266H36.5625L53.75 220.5H60.8438L78.0625 266H69.8125L66.0938 255.406ZM50.6875 249.031H63.875L57.2812 230.156L50.6875 249.031Z" fill="white"/>
<path id="B" d="M45.625 371V325.5H61.2188C66.3646 325.5 70.2812 326.531 72.9688 328.594C75.6562 330.656 77 333.729 77 337.812C77 339.896 76.4375 341.771 75.3125 343.438C74.1875 345.104 72.5417 346.396 70.375 347.312C72.8333 347.979 74.7292 349.24 76.0625 351.094C77.4167 352.927 78.0938 355.135 78.0938 357.719C78.0938 361.99 76.7188 365.271 73.9688 367.562C71.2396 369.854 67.3229 371 62.2188 371H45.625ZM53.5312 350.469V364.688H62.3125C64.7917 364.688 66.7292 364.073 68.125 362.844C69.5208 361.615 70.2188 359.906 70.2188 357.719C70.2188 352.99 67.8021 350.573 62.9688 350.469H53.5312ZM53.5312 344.656H61.2812C63.7396 344.656 65.6562 344.104 67.0312 343C68.4271 341.875 69.125 340.292 69.125 338.25C69.125 336 68.4792 334.375 67.1875 333.375C65.9167 332.375 63.9271 331.875 61.2188 331.875H53.5312V344.656Z" fill="white"/>
<path id="C" d="M415.344 249.188C414.885 254.042 413.094 257.833 409.969 260.562C406.844 263.271 402.688 264.625 397.5 264.625C393.875 264.625 390.677 263.771 387.906 262.062C385.156 260.333 383.031 257.885 381.531 254.719C380.031 251.552 379.25 247.875 379.188 243.688V239.438C379.188 235.146 379.948 231.365 381.469 228.094C382.99 224.823 385.167 222.302 388 220.531C390.854 218.76 394.146 217.875 397.875 217.875C402.896 217.875 406.938 219.24 410 221.969C413.062 224.698 414.844 228.552 415.344 233.531H407.469C407.094 230.26 406.135 227.906 404.594 226.469C403.073 225.01 400.833 224.281 397.875 224.281C394.438 224.281 391.792 225.542 389.938 228.062C388.104 230.562 387.167 234.24 387.125 239.094V243.125C387.125 248.042 388 251.792 389.75 254.375C391.521 256.958 394.104 258.25 397.5 258.25C400.604 258.25 402.938 257.552 404.5 256.156C406.062 254.76 407.052 252.438 407.469 249.188H415.344Z" fill="white"/>
<path id="D" d="M383.625 374V328.5H397.062C401.083 328.5 404.646 329.396 407.75 331.188C410.875 332.979 413.292 335.521 415 338.812C416.708 342.104 417.562 345.875 417.562 350.125V352.406C417.562 356.719 416.698 360.51 414.969 363.781C413.26 367.052 410.812 369.573 407.625 371.344C404.458 373.115 400.823 374 396.719 374H383.625ZM391.531 334.875V367.688H396.688C400.833 367.688 404.01 366.396 406.219 363.812C408.448 361.208 409.583 357.479 409.625 352.625V350.094C409.625 345.156 408.552 341.385 406.406 338.781C404.26 336.177 401.146 334.875 397.062 334.875H391.531Z" fill="white"/>
<path id="E" d="M753.219 302.688H734.531V316.688H756.375V323H726.625V277.5H756.156V283.875H734.531V296.438H753.219V302.688Z" fill="white"/>
<g id="flecha">
<path id="Rectangle 2" d="M406.2 315.008L421.482 323.133L379.5 402.089L364.219 393.963L406.2 315.008Z" fill="#1043F5"/>
<path id="Rectangle 1" d="M348 327.904L438 278V335.692L393 318.096L348 327.904Z" fill="#1043F5"/>
<path id="Rectangle 3" d="M352.039 397.21L367.666 370.143L384.936 369.565L369.309 396.632L352.039 397.21Z" fill="#1043F5"/>
<path id="Rectangle 4_2" d="M378.09 411.845L393.717 384.778L384.926 369.154L369.299 396.221L378.09 411.845Z" fill="#1043F5"/>
</g>
<g id="10 9 12 13 11">
<path d="M150.814 262H147.545V240.326L140.988 242.734V239.781L150.305 236.283H150.814V262Z" fill="#E8A1EE"/>
<path d="M176.391 251.084C176.391 254.893 175.74 257.723 174.439 259.574C173.139 261.426 171.105 262.352 168.34 262.352C165.609 262.352 163.588 261.449 162.275 259.645C160.963 257.828 160.283 255.121 160.236 251.523V247.182C160.236 243.42 160.887 240.625 162.188 238.797C163.488 236.969 165.527 236.055 168.305 236.055C171.059 236.055 173.086 236.939 174.387 238.709C175.688 240.467 176.355 243.186 176.391 246.865V251.084ZM173.139 246.637C173.139 243.883 172.752 241.879 171.979 240.625C171.205 239.359 169.98 238.727 168.305 238.727C166.641 238.727 165.428 239.354 164.666 240.607C163.904 241.861 163.512 243.789 163.488 246.391V251.594C163.488 254.359 163.887 256.404 164.684 257.729C165.492 259.041 166.711 259.697 168.34 259.697C169.945 259.697 171.135 259.076 171.908 257.834C172.693 256.592 173.104 254.635 173.139 251.963V246.637Z" fill="#E8A1EE"/>
<path d="M505.559 250.75C504.879 251.559 504.064 252.209 503.115 252.701C502.178 253.193 501.146 253.439 500.021 253.439C498.545 253.439 497.256 253.076 496.154 252.35C495.064 251.623 494.221 250.604 493.623 249.291C493.025 247.967 492.727 246.508 492.727 244.914C492.727 243.203 493.049 241.662 493.693 240.291C494.35 238.92 495.275 237.871 496.471 237.145C497.666 236.418 499.061 236.055 500.654 236.055C503.186 236.055 505.178 237.004 506.631 238.902C508.096 240.789 508.828 243.367 508.828 246.637V247.586C508.828 252.566 507.844 256.205 505.875 258.502C503.906 260.787 500.936 261.959 496.963 262.018H496.33V259.275H497.016C499.699 259.229 501.762 258.531 503.203 257.184C504.645 255.824 505.43 253.68 505.559 250.75ZM500.549 250.75C501.639 250.75 502.641 250.416 503.555 249.748C504.48 249.08 505.154 248.254 505.576 247.27V245.969C505.576 243.836 505.113 242.102 504.188 240.766C503.262 239.43 502.09 238.762 500.672 238.762C499.242 238.762 498.094 239.312 497.227 240.414C496.359 241.504 495.926 242.945 495.926 244.738C495.926 246.484 496.342 247.926 497.174 249.062C498.018 250.188 499.143 250.75 500.549 250.75Z" fill="#E8A1EE"/>
<path d="M847.33 312H844.061V290.326L837.504 292.734V289.781L846.82 286.283H847.33V312Z" fill="#E8A1EE"/>
<path d="M873.627 312H856.857V309.662L865.717 299.818C867.029 298.33 867.932 297.123 868.424 296.197C868.928 295.26 869.18 294.293 869.18 293.297C869.18 291.961 868.775 290.865 867.967 290.01C867.158 289.154 866.08 288.727 864.732 288.727C863.115 288.727 861.855 289.189 860.953 290.115C860.062 291.029 859.617 292.307 859.617 293.947H856.365C856.365 291.592 857.121 289.688 858.633 288.234C860.156 286.781 862.189 286.055 864.732 286.055C867.111 286.055 868.992 286.682 870.375 287.936C871.758 289.178 872.449 290.836 872.449 292.91C872.449 295.43 870.844 298.43 867.633 301.91L860.777 309.346H873.627V312Z" fill="#E8A1EE"/>
<path d="M150.814 362H147.545V340.326L140.988 342.734V339.781L150.305 336.283H150.814V362Z" fill="#E8A1EE"/>
<path d="M165.07 347.621H167.514C169.049 347.598 170.256 347.193 171.135 346.408C172.014 345.623 172.453 344.562 172.453 343.227C172.453 340.227 170.959 338.727 167.971 338.727C166.564 338.727 165.439 339.131 164.596 339.939C163.764 340.736 163.348 341.797 163.348 343.121H160.096C160.096 341.094 160.834 339.412 162.311 338.076C163.799 336.729 165.686 336.055 167.971 336.055C170.385 336.055 172.277 336.693 173.648 337.971C175.02 339.248 175.705 341.023 175.705 343.297C175.705 344.41 175.342 345.488 174.615 346.531C173.9 347.574 172.922 348.354 171.68 348.869C173.086 349.314 174.17 350.053 174.932 351.084C175.705 352.115 176.092 353.375 176.092 354.863C176.092 357.16 175.342 358.982 173.842 360.33C172.342 361.678 170.391 362.352 167.988 362.352C165.586 362.352 163.629 361.701 162.117 360.4C160.617 359.1 159.867 357.383 159.867 355.25H163.137C163.137 356.598 163.576 357.676 164.455 358.484C165.334 359.293 166.512 359.697 167.988 359.697C169.559 359.697 170.76 359.287 171.592 358.467C172.424 357.646 172.84 356.469 172.84 354.934C172.84 353.445 172.383 352.303 171.469 351.506C170.555 350.709 169.236 350.299 167.514 350.275H165.07V347.621Z" fill="#E8A1EE"/>
<path d="M503.783 362H500.514V340.326L493.957 342.734V339.781L503.273 336.283H503.783V362Z" fill="#E8A1EE"/>
<path d="M523.998 362H520.729V340.326L514.172 342.734V339.781L523.488 336.283H523.998V362Z" fill="#E8A1EE"/>
</g>
</g>
<g id="enun01">
<path id="Rectangle 1_2" d="M58 0H870.539L939 84.2698L870.539 171H58V0Z" fill="#02071A"/>
<path id="Rectangle 1 (Stroke)" fill-rule="evenodd" clip-rule="evenodd" d="M868.635 4H62V167H868.6L933.876 84.3058L868.635 4ZM870.539 0H58V171H870.539L939 84.2698L870.539 0Z" fill="#E8A1EE"/>
<path id="Ellipse 1_2" d="M100 91C100 118.614 77.6142 141 50 141C22.3858 141 0 118.614 0 91C0 63.3858 22.3858 41 50 41C77.6142 41 100 63.3858 100 91Z" fill="#E8A1EE"/>
<path id="Ellipse 1 (Stroke)" fill-rule="evenodd" clip-rule="evenodd" d="M50 140C77.062 140 99 118.062 99 91C99 63.938 77.062 42 50 42C22.938 42 1 63.938 1 91C1 118.062 22.938 140 50 140ZM50 141C77.6142 141 100 118.614 100 91C100 63.3858 77.6142 41 50 41C22.3858 41 0 63.3858 0 91C0 118.614 22.3858 141 50 141Z" fill="#E8A1EE"/>
<g id="La suma de tres n&#195;&#186;meros consecutivos es 30, determina el n&#195;&#186;mero mayor">
<path d="M123.363 71.2402H135.492V74H119.971V48.4062H123.363V71.2402Z" fill="white"/>
<path d="M150.574 74C150.387 73.625 150.234 72.957 150.117 71.9961C148.605 73.5664 146.801 74.3516 144.703 74.3516C142.828 74.3516 141.287 73.8242 140.08 72.7695C138.885 71.7031 138.287 70.3555 138.287 68.7266C138.287 66.7461 139.037 65.2109 140.537 64.1211C142.049 63.0195 144.17 62.4688 146.9 62.4688H150.064V60.9746C150.064 59.8379 149.725 58.9355 149.045 58.2676C148.365 57.5879 147.363 57.248 146.039 57.248C144.879 57.248 143.906 57.541 143.121 58.127C142.336 58.7129 141.943 59.4219 141.943 60.2539H138.674C138.674 59.3047 139.008 58.3906 139.676 57.5117C140.355 56.6211 141.27 55.918 142.418 55.4023C143.578 54.8867 144.85 54.6289 146.232 54.6289C148.424 54.6289 150.141 55.1797 151.383 56.2812C152.625 57.3711 153.27 58.877 153.316 60.7988V69.5527C153.316 71.2988 153.539 72.6875 153.984 73.7188V74H150.574ZM145.178 71.5215C146.197 71.5215 147.164 71.2578 148.078 70.7305C148.992 70.2031 149.654 69.5176 150.064 68.6738V64.7715H147.516C143.531 64.7715 141.539 65.9375 141.539 68.2695C141.539 69.2891 141.879 70.0859 142.559 70.6602C143.238 71.2344 144.111 71.5215 145.178 71.5215Z" fill="white"/>
<path d="M178.418 68.9551C178.418 68.0762 178.084 67.3965 177.416 66.916C176.76 66.4238 175.605 66.002 173.953 65.6504C172.312 65.2988 171.006 64.877 170.033 64.3848C169.072 63.8926 168.357 63.3066 167.889 62.627C167.432 61.9473 167.203 61.1387 167.203 60.2012C167.203 58.6426 167.859 57.3242 169.172 56.2461C170.496 55.168 172.184 54.6289 174.234 54.6289C176.391 54.6289 178.137 55.1855 179.473 56.2988C180.82 57.4121 181.494 58.8359 181.494 60.5703H178.225C178.225 59.6797 177.844 58.9121 177.082 58.2676C176.332 57.623 175.383 57.3008 174.234 57.3008C173.051 57.3008 172.125 57.5586 171.457 58.0742C170.789 58.5898 170.455 59.2637 170.455 60.0957C170.455 60.8809 170.766 61.4727 171.387 61.8711C172.008 62.2695 173.127 62.6504 174.744 63.0137C176.373 63.377 177.691 63.8105 178.699 64.3145C179.707 64.8184 180.451 65.4277 180.932 66.1426C181.424 66.8457 181.67 67.707 181.67 68.7266C181.67 70.4258 180.99 71.791 179.631 72.8223C178.271 73.8418 176.508 74.3516 174.34 74.3516C172.816 74.3516 171.469 74.082 170.297 73.543C169.125 73.0039 168.205 72.2539 167.537 71.293C166.881 70.3203 166.553 69.2715 166.553 68.1465H169.805C169.863 69.2363 170.297 70.1035 171.105 70.748C171.926 71.3809 173.004 71.6973 174.34 71.6973C175.57 71.6973 176.555 71.4512 177.293 70.959C178.043 70.4551 178.418 69.7871 178.418 68.9551Z" fill="white"/>
<path d="M197.648 72.1191C196.383 73.6074 194.525 74.3516 192.076 74.3516C190.049 74.3516 188.502 73.7656 187.436 72.5938C186.381 71.4102 185.848 69.6641 185.836 67.3555V54.9805H189.088V67.2676C189.088 70.1504 190.26 71.5918 192.604 71.5918C195.088 71.5918 196.74 70.666 197.561 68.8145V54.9805H200.812V74H197.719L197.648 72.1191Z" fill="white"/>
<path d="M208.828 54.9805L208.916 57.0898C210.311 55.4492 212.191 54.6289 214.559 54.6289C217.219 54.6289 219.029 55.6484 219.99 57.6875C220.623 56.7734 221.443 56.0352 222.451 55.4727C223.471 54.9102 224.672 54.6289 226.055 54.6289C230.227 54.6289 232.348 56.8379 232.418 61.2559V74H229.166V61.4492C229.166 60.0898 228.855 59.0762 228.234 58.4082C227.613 57.7285 226.57 57.3887 225.105 57.3887C223.898 57.3887 222.896 57.752 222.1 58.4785C221.303 59.1934 220.84 60.1602 220.711 61.3789V74H217.441V61.5371C217.441 58.7715 216.088 57.3887 213.381 57.3887C211.248 57.3887 209.789 58.2969 209.004 60.1133V74H205.752V54.9805H208.828Z" fill="white"/>
<path d="M249.082 74C248.895 73.625 248.742 72.957 248.625 71.9961C247.113 73.5664 245.309 74.3516 243.211 74.3516C241.336 74.3516 239.795 73.8242 238.588 72.7695C237.393 71.7031 236.795 70.3555 236.795 68.7266C236.795 66.7461 237.545 65.2109 239.045 64.1211C240.557 63.0195 242.678 62.4688 245.408 62.4688H248.572V60.9746C248.572 59.8379 248.232 58.9355 247.553 58.2676C246.873 57.5879 245.871 57.248 244.547 57.248C243.387 57.248 242.414 57.541 241.629 58.127C240.844 58.7129 240.451 59.4219 240.451 60.2539H237.182C237.182 59.3047 237.516 58.3906 238.184 57.5117C238.863 56.6211 239.777 55.918 240.926 55.4023C242.086 54.8867 243.357 54.6289 244.74 54.6289C246.932 54.6289 248.648 55.1797 249.891 56.2812C251.133 57.3711 251.777 58.877 251.824 60.7988V69.5527C251.824 71.2988 252.047 72.6875 252.492 73.7188V74H249.082ZM243.686 71.5215C244.705 71.5215 245.672 71.2578 246.586 70.7305C247.5 70.2031 248.162 69.5176 248.572 68.6738V64.7715H246.023C242.039 64.7715 240.047 65.9375 240.047 68.2695C240.047 69.2891 240.387 70.0859 241.066 70.6602C241.746 71.2344 242.619 71.5215 243.686 71.5215Z" fill="white"/>
<path d="M265.061 64.332C265.061 61.4141 265.752 59.0703 267.135 57.3008C268.518 55.5195 270.328 54.6289 272.566 54.6289C274.793 54.6289 276.557 55.3906 277.857 56.9141V47H281.109V74H278.121L277.963 71.9609C276.662 73.5547 274.852 74.3516 272.531 74.3516C270.328 74.3516 268.529 73.4492 267.135 71.6445C265.752 69.8398 265.061 67.4844 265.061 64.5781V64.332ZM268.312 64.7012C268.312 66.8574 268.758 68.5449 269.648 69.7637C270.539 70.9824 271.77 71.5918 273.34 71.5918C275.402 71.5918 276.908 70.666 277.857 68.8145V60.0781C276.885 58.2852 275.391 57.3887 273.375 57.3887C271.781 57.3887 270.539 58.0039 269.648 59.2344C268.758 60.4648 268.312 62.2871 268.312 64.7012Z" fill="white"/>
<path d="M294.064 74.3516C291.486 74.3516 289.389 73.5078 287.771 71.8203C286.154 70.1211 285.346 67.8535 285.346 65.0176V64.4199C285.346 62.5332 285.703 60.8516 286.418 59.375C287.145 57.8867 288.152 56.7266 289.441 55.8945C290.742 55.0508 292.148 54.6289 293.66 54.6289C296.133 54.6289 298.055 55.4434 299.426 57.0723C300.797 58.7012 301.482 61.0332 301.482 64.0684V65.4219H288.598C288.645 67.2969 289.189 68.8145 290.232 69.9746C291.287 71.123 292.623 71.6973 294.24 71.6973C295.389 71.6973 296.361 71.4629 297.158 70.9941C297.955 70.5254 298.652 69.9043 299.25 69.1309L301.236 70.6777C299.643 73.127 297.252 74.3516 294.064 74.3516ZM293.66 57.3008C292.348 57.3008 291.246 57.7812 290.355 58.7422C289.465 59.6914 288.914 61.0273 288.703 62.75H298.23V62.5039C298.137 60.8516 297.691 59.5742 296.895 58.6719C296.098 57.7578 295.02 57.3008 293.66 57.3008Z" fill="white"/>
<path d="M318.604 50.375V54.9805H322.154V57.4941H318.604V69.2891C318.604 70.0508 318.762 70.625 319.078 71.0117C319.395 71.3867 319.934 71.5742 320.695 71.5742C321.07 71.5742 321.586 71.5039 322.242 71.3633V74C321.387 74.2344 320.555 74.3516 319.746 74.3516C318.293 74.3516 317.197 73.9121 316.459 73.0332C315.721 72.1543 315.352 70.9062 315.352 69.2891V57.4941H311.889V54.9805H315.352V50.375H318.604Z" fill="white"/>
<path d="M335.162 57.8984C334.67 57.8164 334.137 57.7754 333.562 57.7754C331.43 57.7754 329.982 58.6836 329.221 60.5V74H325.969V54.9805H329.133L329.186 57.1777C330.252 55.4785 331.764 54.6289 333.721 54.6289C334.354 54.6289 334.834 54.7109 335.162 54.875V57.8984Z" fill="white"/>
<path d="M345.709 74.3516C343.131 74.3516 341.033 73.5078 339.416 71.8203C337.799 70.1211 336.99 67.8535 336.99 65.0176V64.4199C336.99 62.5332 337.348 60.8516 338.062 59.375C338.789 57.8867 339.797 56.7266 341.086 55.8945C342.387 55.0508 343.793 54.6289 345.305 54.6289C347.777 54.6289 349.699 55.4434 351.07 57.0723C352.441 58.7012 353.127 61.0332 353.127 64.0684V65.4219H340.242C340.289 67.2969 340.834 68.8145 341.877 69.9746C342.932 71.123 344.268 71.6973 345.885 71.6973C347.033 71.6973 348.006 71.4629 348.803 70.9941C349.6 70.5254 350.297 69.9043 350.895 69.1309L352.881 70.6777C351.287 73.127 348.896 74.3516 345.709 74.3516ZM345.305 57.3008C343.992 57.3008 342.891 57.7812 342 58.7422C341.109 59.6914 340.559 61.0273 340.348 62.75H349.875V62.5039C349.781 60.8516 349.336 59.5742 348.539 58.6719C347.742 57.7578 346.664 57.3008 345.305 57.3008Z" fill="white"/>
<path d="M367.98 68.9551C367.98 68.0762 367.646 67.3965 366.979 66.916C366.322 66.4238 365.168 66.002 363.516 65.6504C361.875 65.2988 360.568 64.877 359.596 64.3848C358.635 63.8926 357.92 63.3066 357.451 62.627C356.994 61.9473 356.766 61.1387 356.766 60.2012C356.766 58.6426 357.422 57.3242 358.734 56.2461C360.059 55.168 361.746 54.6289 363.797 54.6289C365.953 54.6289 367.699 55.1855 369.035 56.2988C370.383 57.4121 371.057 58.8359 371.057 60.5703H367.787C367.787 59.6797 367.406 58.9121 366.645 58.2676C365.895 57.623 364.945 57.3008 363.797 57.3008C362.613 57.3008 361.688 57.5586 361.02 58.0742C360.352 58.5898 360.018 59.2637 360.018 60.0957C360.018 60.8809 360.328 61.4727 360.949 61.8711C361.57 62.2695 362.689 62.6504 364.307 63.0137C365.936 63.377 367.254 63.8105 368.262 64.3145C369.27 64.8184 370.014 65.4277 370.494 66.1426C370.986 66.8457 371.232 67.707 371.232 68.7266C371.232 70.4258 370.553 71.791 369.193 72.8223C367.834 73.8418 366.07 74.3516 363.902 74.3516C362.379 74.3516 361.031 74.082 359.859 73.543C358.688 73.0039 357.768 72.2539 357.1 71.293C356.443 70.3203 356.115 69.2715 356.115 68.1465H359.367C359.426 69.2363 359.859 70.1035 360.668 70.748C361.488 71.3809 362.566 71.6973 363.902 71.6973C365.133 71.6973 366.117 71.4512 366.855 70.959C367.605 70.4551 367.98 69.7871 367.98 68.9551Z" fill="white"/>
<path d="M387.475 54.9805L387.58 57.3711C389.033 55.543 390.932 54.6289 393.275 54.6289C397.295 54.6289 399.322 56.8965 399.357 61.4316V74H396.105V61.4141C396.094 60.043 395.777 59.0293 395.156 58.373C394.547 57.7168 393.592 57.3887 392.291 57.3887C391.236 57.3887 390.311 57.6699 389.514 58.2324C388.717 58.7949 388.096 59.5332 387.65 60.4473V74H384.398V54.9805H387.475Z" fill="white"/>
<path d="M416.004 72.1191C414.738 73.6074 412.881 74.3516 410.432 74.3516C408.404 74.3516 406.857 73.7656 405.791 72.5938C404.736 71.4102 404.203 69.6641 404.191 67.3555V54.9805H407.443V67.2676C407.443 70.1504 408.615 71.5918 410.959 71.5918C413.443 71.5918 415.096 70.666 415.916 68.8145V54.9805H419.168V74H416.074L416.004 72.1191ZM413.367 47H417.305L412.594 52.168H409.975L413.367 47Z" fill="white"/>
<path d="M427.184 54.9805L427.271 57.0898C428.666 55.4492 430.547 54.6289 432.914 54.6289C435.574 54.6289 437.385 55.6484 438.346 57.6875C438.979 56.7734 439.799 56.0352 440.807 55.4727C441.826 54.9102 443.027 54.6289 444.41 54.6289C448.582 54.6289 450.703 56.8379 450.773 61.2559V74H447.521V61.4492C447.521 60.0898 447.211 59.0762 446.59 58.4082C445.969 57.7285 444.926 57.3887 443.461 57.3887C442.254 57.3887 441.252 57.752 440.455 58.4785C439.658 59.1934 439.195 60.1602 439.066 61.3789V74H435.797V61.5371C435.797 58.7715 434.443 57.3887 431.736 57.3887C429.604 57.3887 428.145 58.2969 427.359 60.1133V74H424.107V54.9805H427.184Z" fill="white"/>
<path d="M463.588 74.3516C461.01 74.3516 458.912 73.5078 457.295 71.8203C455.678 70.1211 454.869 67.8535 454.869 65.0176V64.4199C454.869 62.5332 455.227 60.8516 455.941 59.375C456.668 57.8867 457.676 56.7266 458.965 55.8945C460.266 55.0508 461.672 54.6289 463.184 54.6289C465.656 54.6289 467.578 55.4434 468.949 57.0723C470.32 58.7012 471.006 61.0332 471.006 64.0684V65.4219H458.121C458.168 67.2969 458.713 68.8145 459.756 69.9746C460.811 71.123 462.146 71.6973 463.764 71.6973C464.912 71.6973 465.885 71.4629 466.682 70.9941C467.479 70.5254 468.176 69.9043 468.773 69.1309L470.76 70.6777C469.166 73.127 466.775 74.3516 463.588 74.3516ZM463.184 57.3008C461.871 57.3008 460.77 57.7812 459.879 58.7422C458.988 59.6914 458.438 61.0273 458.227 62.75H467.754V62.5039C467.66 60.8516 467.215 59.5742 466.418 58.6719C465.621 57.7578 464.543 57.3008 463.184 57.3008Z" fill="white"/>
<path d="M483.979 57.8984C483.486 57.8164 482.953 57.7754 482.379 57.7754C480.246 57.7754 478.799 58.6836 478.037 60.5V74H474.785V54.9805H477.949L478.002 57.1777C479.068 55.4785 480.58 54.6289 482.537 54.6289C483.17 54.6289 483.65 54.7109 483.979 54.875V57.8984Z" fill="white"/>
<path d="M485.771 64.3145C485.771 62.4512 486.135 60.7754 486.861 59.2871C487.6 57.7988 488.619 56.6504 489.92 55.8418C491.232 55.0332 492.727 54.6289 494.402 54.6289C496.992 54.6289 499.084 55.5254 500.678 57.3184C502.283 59.1113 503.086 61.4961 503.086 64.4727V64.7012C503.086 66.5527 502.729 68.2168 502.014 69.6934C501.311 71.1582 500.297 72.3008 498.973 73.1211C497.66 73.9414 496.148 74.3516 494.438 74.3516C491.859 74.3516 489.768 73.4551 488.162 71.6621C486.568 69.8691 485.771 67.4961 485.771 64.543V64.3145ZM489.041 64.7012C489.041 66.8105 489.527 68.5039 490.5 69.7812C491.484 71.0586 492.797 71.6973 494.438 71.6973C496.09 71.6973 497.402 71.0527 498.375 69.7637C499.348 68.4629 499.834 66.6465 499.834 64.3145C499.834 62.2285 499.336 60.541 498.34 59.252C497.355 57.9512 496.043 57.3008 494.402 57.3008C492.797 57.3008 491.502 57.9395 490.518 59.2168C489.533 60.4941 489.041 62.3223 489.041 64.7012Z" fill="white"/>
<path d="M518.238 68.9551C518.238 68.0762 517.904 67.3965 517.236 66.916C516.58 66.4238 515.426 66.002 513.773 65.6504C512.133 65.2988 510.826 64.877 509.854 64.3848C508.893 63.8926 508.178 63.3066 507.709 62.627C507.252 61.9473 507.023 61.1387 507.023 60.2012C507.023 58.6426 507.68 57.3242 508.992 56.2461C510.316 55.168 512.004 54.6289 514.055 54.6289C516.211 54.6289 517.957 55.1855 519.293 56.2988C520.641 57.4121 521.314 58.8359 521.314 60.5703H518.045C518.045 59.6797 517.664 58.9121 516.902 58.2676C516.152 57.623 515.203 57.3008 514.055 57.3008C512.871 57.3008 511.945 57.5586 511.277 58.0742C510.609 58.5898 510.275 59.2637 510.275 60.0957C510.275 60.8809 510.586 61.4727 511.207 61.8711C511.828 62.2695 512.947 62.6504 514.564 63.0137C516.193 63.377 517.512 63.8105 518.52 64.3145C519.527 64.8184 520.271 65.4277 520.752 66.1426C521.244 66.8457 521.49 67.707 521.49 68.7266C521.49 70.4258 520.811 71.791 519.451 72.8223C518.092 73.8418 516.328 74.3516 514.16 74.3516C512.637 74.3516 511.289 74.082 510.117 73.543C508.945 73.0039 508.025 72.2539 507.357 71.293C506.701 70.3203 506.373 69.2715 506.373 68.1465H509.625C509.684 69.2363 510.117 70.1035 510.926 70.748C511.746 71.3809 512.824 71.6973 514.16 71.6973C515.391 71.6973 516.375 71.4512 517.113 70.959C517.863 70.4551 518.238 69.7871 518.238 68.9551Z" fill="white"/>
<path d="M542.285 71.6973C543.445 71.6973 544.459 71.3457 545.326 70.6426C546.193 69.9395 546.674 69.0605 546.768 68.0059H549.844C549.785 69.0957 549.41 70.1328 548.719 71.1172C548.027 72.1016 547.102 72.8867 545.941 73.4727C544.793 74.0586 543.574 74.3516 542.285 74.3516C539.695 74.3516 537.633 73.4902 536.098 71.7676C534.574 70.0332 533.812 67.666 533.812 64.666V64.1211C533.812 62.2695 534.152 60.623 534.832 59.1816C535.512 57.7402 536.484 56.6211 537.75 55.8242C539.027 55.0273 540.533 54.6289 542.268 54.6289C544.4 54.6289 546.17 55.2676 547.576 56.5449C548.994 57.8223 549.75 59.4805 549.844 61.5195H546.768C546.674 60.2891 546.205 59.2812 545.361 58.4961C544.529 57.6992 543.498 57.3008 542.268 57.3008C540.615 57.3008 539.332 57.8984 538.418 59.0938C537.516 60.2773 537.064 61.9941 537.064 64.2441V64.8594C537.064 67.0508 537.516 68.7383 538.418 69.9219C539.32 71.1055 540.609 71.6973 542.285 71.6973Z" fill="white"/>
<path d="M552.639 64.3145C552.639 62.4512 553.002 60.7754 553.729 59.2871C554.467 57.7988 555.486 56.6504 556.787 55.8418C558.1 55.0332 559.594 54.6289 561.27 54.6289C563.859 54.6289 565.951 55.5254 567.545 57.3184C569.15 59.1113 569.953 61.4961 569.953 64.4727V64.7012C569.953 66.5527 569.596 68.2168 568.881 69.6934C568.178 71.1582 567.164 72.3008 565.84 73.1211C564.527 73.9414 563.016 74.3516 561.305 74.3516C558.727 74.3516 556.635 73.4551 555.029 71.6621C553.436 69.8691 552.639 67.4961 552.639 64.543V64.3145ZM555.908 64.7012C555.908 66.8105 556.395 68.5039 557.367 69.7812C558.352 71.0586 559.664 71.6973 561.305 71.6973C562.957 71.6973 564.27 71.0527 565.242 69.7637C566.215 68.4629 566.701 66.6465 566.701 64.3145C566.701 62.2285 566.203 60.541 565.207 59.252C564.223 57.9512 562.91 57.3008 561.27 57.3008C559.664 57.3008 558.369 57.9395 557.385 59.2168C556.4 60.4941 555.908 62.3223 555.908 64.7012Z" fill="white"/>
<path d="M577.107 54.9805L577.213 57.3711C578.666 55.543 580.564 54.6289 582.908 54.6289C586.928 54.6289 588.955 56.8965 588.99 61.4316V74H585.738V61.4141C585.727 60.043 585.41 59.0293 584.789 58.373C584.18 57.7168 583.225 57.3887 581.924 57.3887C580.869 57.3887 579.943 57.6699 579.146 58.2324C578.35 58.7949 577.729 59.5332 577.283 60.4473V74H574.031V54.9805H577.107Z" fill="white"/>
<path d="M604.969 68.9551C604.969 68.0762 604.635 67.3965 603.967 66.916C603.311 66.4238 602.156 66.002 600.504 65.6504C598.863 65.2988 597.557 64.877 596.584 64.3848C595.623 63.8926 594.908 63.3066 594.439 62.627C593.982 61.9473 593.754 61.1387 593.754 60.2012C593.754 58.6426 594.41 57.3242 595.723 56.2461C597.047 55.168 598.734 54.6289 600.785 54.6289C602.941 54.6289 604.688 55.1855 606.023 56.2988C607.371 57.4121 608.045 58.8359 608.045 60.5703H604.775C604.775 59.6797 604.395 58.9121 603.633 58.2676C602.883 57.623 601.934 57.3008 600.785 57.3008C599.602 57.3008 598.676 57.5586 598.008 58.0742C597.34 58.5898 597.006 59.2637 597.006 60.0957C597.006 60.8809 597.316 61.4727 597.938 61.8711C598.559 62.2695 599.678 62.6504 601.295 63.0137C602.924 63.377 604.242 63.8105 605.25 64.3145C606.258 64.8184 607.002 65.4277 607.482 66.1426C607.975 66.8457 608.221 67.707 608.221 68.7266C608.221 70.4258 607.541 71.791 606.182 72.8223C604.822 73.8418 603.059 74.3516 600.891 74.3516C599.367 74.3516 598.02 74.082 596.848 73.543C595.676 73.0039 594.756 72.2539 594.088 71.293C593.432 70.3203 593.104 69.2715 593.104 68.1465H596.355C596.414 69.2363 596.848 70.1035 597.656 70.748C598.477 71.3809 599.555 71.6973 600.891 71.6973C602.121 71.6973 603.105 71.4512 603.844 70.959C604.594 70.4551 604.969 69.7871 604.969 68.9551Z" fill="white"/>
<path d="M620.35 74.3516C617.771 74.3516 615.674 73.5078 614.057 71.8203C612.439 70.1211 611.631 67.8535 611.631 65.0176V64.4199C611.631 62.5332 611.988 60.8516 612.703 59.375C613.43 57.8867 614.438 56.7266 615.727 55.8945C617.027 55.0508 618.434 54.6289 619.945 54.6289C622.418 54.6289 624.34 55.4434 625.711 57.0723C627.082 58.7012 627.768 61.0332 627.768 64.0684V65.4219H614.883C614.93 67.2969 615.475 68.8145 616.518 69.9746C617.572 71.123 618.908 71.6973 620.525 71.6973C621.674 71.6973 622.646 71.4629 623.443 70.9941C624.24 70.5254 624.938 69.9043 625.535 69.1309L627.521 70.6777C625.928 73.127 623.537 74.3516 620.35 74.3516ZM619.945 57.3008C618.633 57.3008 617.531 57.7812 616.641 58.7422C615.75 59.6914 615.199 61.0273 614.988 62.75H624.516V62.5039C624.422 60.8516 623.977 59.5742 623.18 58.6719C622.383 57.7578 621.305 57.3008 619.945 57.3008Z" fill="white"/>
<path d="M639.176 71.6973C640.336 71.6973 641.35 71.3457 642.217 70.6426C643.084 69.9395 643.564 69.0605 643.658 68.0059H646.734C646.676 69.0957 646.301 70.1328 645.609 71.1172C644.918 72.1016 643.992 72.8867 642.832 73.4727C641.684 74.0586 640.465 74.3516 639.176 74.3516C636.586 74.3516 634.523 73.4902 632.988 71.7676C631.465 70.0332 630.703 67.666 630.703 64.666V64.1211C630.703 62.2695 631.043 60.623 631.723 59.1816C632.402 57.7402 633.375 56.6211 634.641 55.8242C635.918 55.0273 637.424 54.6289 639.158 54.6289C641.291 54.6289 643.061 55.2676 644.467 56.5449C645.885 57.8223 646.641 59.4805 646.734 61.5195H643.658C643.564 60.2891 643.096 59.2812 642.252 58.4961C641.42 57.6992 640.389 57.3008 639.158 57.3008C637.506 57.3008 636.223 57.8984 635.309 59.0938C634.406 60.2773 633.955 61.9941 633.955 64.2441V64.8594C633.955 67.0508 634.406 68.7383 635.309 69.9219C636.211 71.1055 637.5 71.6973 639.176 71.6973Z" fill="white"/>
<path d="M662.133 72.1191C660.867 73.6074 659.01 74.3516 656.561 74.3516C654.533 74.3516 652.986 73.7656 651.92 72.5938C650.865 71.4102 650.332 69.6641 650.32 67.3555V54.9805H653.572V67.2676C653.572 70.1504 654.744 71.5918 657.088 71.5918C659.572 71.5918 661.225 70.666 662.045 68.8145V54.9805H665.297V74H662.203L662.133 72.1191Z" fill="white"/>
<path d="M674.666 50.375V54.9805H678.217V57.4941H674.666V69.2891C674.666 70.0508 674.824 70.625 675.141 71.0117C675.457 71.3867 675.996 71.5742 676.758 71.5742C677.133 71.5742 677.648 71.5039 678.305 71.3633V74C677.449 74.2344 676.617 74.3516 675.809 74.3516C674.355 74.3516 673.26 73.9121 672.521 73.0332C671.783 72.1543 671.414 70.9062 671.414 69.2891V57.4941H667.951V54.9805H671.414V50.375H674.666Z" fill="white"/>
<path d="M685.564 74H682.312V54.9805H685.564V74ZM682.049 49.9355C682.049 49.4082 682.207 48.9629 682.523 48.5996C682.852 48.2363 683.332 48.0547 683.965 48.0547C684.598 48.0547 685.078 48.2363 685.406 48.5996C685.734 48.9629 685.898 49.4082 685.898 49.9355C685.898 50.4629 685.734 50.9023 685.406 51.2539C685.078 51.6055 684.598 51.7812 683.965 51.7812C683.332 51.7812 682.852 51.6055 682.523 51.2539C682.207 50.9023 682.049 50.4629 682.049 49.9355Z" fill="white"/>
<path d="M697.061 69.5879L701.771 54.9805H705.094L698.273 74H695.795L688.904 54.9805H692.227L697.061 69.5879Z" fill="white"/>
<path d="M707.08 64.3145C707.08 62.4512 707.443 60.7754 708.17 59.2871C708.908 57.7988 709.928 56.6504 711.229 55.8418C712.541 55.0332 714.035 54.6289 715.711 54.6289C718.301 54.6289 720.393 55.5254 721.986 57.3184C723.592 59.1113 724.395 61.4961 724.395 64.4727V64.7012C724.395 66.5527 724.037 68.2168 723.322 69.6934C722.619 71.1582 721.605 72.3008 720.281 73.1211C718.969 73.9414 717.457 74.3516 715.746 74.3516C713.168 74.3516 711.076 73.4551 709.471 71.6621C707.877 69.8691 707.08 67.4961 707.08 64.543V64.3145ZM710.35 64.7012C710.35 66.8105 710.836 68.5039 711.809 69.7812C712.793 71.0586 714.105 71.6973 715.746 71.6973C717.398 71.6973 718.711 71.0527 719.684 69.7637C720.656 68.4629 721.143 66.6465 721.143 64.3145C721.143 62.2285 720.645 60.541 719.648 59.252C718.664 57.9512 717.352 57.3008 715.711 57.3008C714.105 57.3008 712.811 57.9395 711.826 59.2168C710.842 60.4941 710.35 62.3223 710.35 64.7012Z" fill="white"/>
<path d="M739.547 68.9551C739.547 68.0762 739.213 67.3965 738.545 66.916C737.889 66.4238 736.734 66.002 735.082 65.6504C733.441 65.2988 732.135 64.877 731.162 64.3848C730.201 63.8926 729.486 63.3066 729.018 62.627C728.561 61.9473 728.332 61.1387 728.332 60.2012C728.332 58.6426 728.988 57.3242 730.301 56.2461C731.625 55.168 733.312 54.6289 735.363 54.6289C737.52 54.6289 739.266 55.1855 740.602 56.2988C741.949 57.4121 742.623 58.8359 742.623 60.5703H739.354C739.354 59.6797 738.973 58.9121 738.211 58.2676C737.461 57.623 736.512 57.3008 735.363 57.3008C734.18 57.3008 733.254 57.5586 732.586 58.0742C731.918 58.5898 731.584 59.2637 731.584 60.0957C731.584 60.8809 731.895 61.4727 732.516 61.8711C733.137 62.2695 734.256 62.6504 735.873 63.0137C737.502 63.377 738.82 63.8105 739.828 64.3145C740.836 64.8184 741.58 65.4277 742.061 66.1426C742.553 66.8457 742.799 67.707 742.799 68.7266C742.799 70.4258 742.119 71.791 740.76 72.8223C739.4 73.8418 737.637 74.3516 735.469 74.3516C733.945 74.3516 732.598 74.082 731.426 73.543C730.254 73.0039 729.334 72.2539 728.666 71.293C728.01 70.3203 727.682 69.2715 727.682 68.1465H730.934C730.992 69.2363 731.426 70.1035 732.234 70.748C733.055 71.3809 734.133 71.6973 735.469 71.6973C736.699 71.6973 737.684 71.4512 738.422 70.959C739.172 70.4551 739.547 69.7871 739.547 68.9551Z" fill="white"/>
<path d="M763.857 74.3516C761.279 74.3516 759.182 73.5078 757.564 71.8203C755.947 70.1211 755.139 67.8535 755.139 65.0176V64.4199C755.139 62.5332 755.496 60.8516 756.211 59.375C756.938 57.8867 757.945 56.7266 759.234 55.8945C760.535 55.0508 761.941 54.6289 763.453 54.6289C765.926 54.6289 767.848 55.4434 769.219 57.0723C770.59 58.7012 771.275 61.0332 771.275 64.0684V65.4219H758.391C758.438 67.2969 758.982 68.8145 760.025 69.9746C761.08 71.123 762.416 71.6973 764.033 71.6973C765.182 71.6973 766.154 71.4629 766.951 70.9941C767.748 70.5254 768.445 69.9043 769.043 69.1309L771.029 70.6777C769.436 73.127 767.045 74.3516 763.857 74.3516ZM763.453 57.3008C762.141 57.3008 761.039 57.7812 760.148 58.7422C759.258 59.6914 758.707 61.0273 758.496 62.75H768.023V62.5039C767.93 60.8516 767.484 59.5742 766.688 58.6719C765.891 57.7578 764.812 57.3008 763.453 57.3008Z" fill="white"/>
<path d="M786.129 68.9551C786.129 68.0762 785.795 67.3965 785.127 66.916C784.471 66.4238 783.316 66.002 781.664 65.6504C780.023 65.2988 778.717 64.877 777.744 64.3848C776.783 63.8926 776.068 63.3066 775.6 62.627C775.143 61.9473 774.914 61.1387 774.914 60.2012C774.914 58.6426 775.57 57.3242 776.883 56.2461C778.207 55.168 779.895 54.6289 781.945 54.6289C784.102 54.6289 785.848 55.1855 787.184 56.2988C788.531 57.4121 789.205 58.8359 789.205 60.5703H785.936C785.936 59.6797 785.555 58.9121 784.793 58.2676C784.043 57.623 783.094 57.3008 781.945 57.3008C780.762 57.3008 779.836 57.5586 779.168 58.0742C778.5 58.5898 778.166 59.2637 778.166 60.0957C778.166 60.8809 778.477 61.4727 779.098 61.8711C779.719 62.2695 780.838 62.6504 782.455 63.0137C784.084 63.377 785.402 63.8105 786.41 64.3145C787.418 64.8184 788.162 65.4277 788.643 66.1426C789.135 66.8457 789.381 67.707 789.381 68.7266C789.381 70.4258 788.701 71.791 787.342 72.8223C785.982 73.8418 784.219 74.3516 782.051 74.3516C780.527 74.3516 779.18 74.082 778.008 73.543C776.836 73.0039 775.916 72.2539 775.248 71.293C774.592 70.3203 774.264 69.2715 774.264 68.1465H777.516C777.574 69.2363 778.008 70.1035 778.816 70.748C779.637 71.3809 780.715 71.6973 782.051 71.6973C783.281 71.6973 784.266 71.4512 785.004 70.959C785.754 70.4551 786.129 69.7871 786.129 68.9551Z" fill="white"/>
<path d="M806.941 59.6211H809.385C810.92 59.5977 812.127 59.1934 813.006 58.4082C813.885 57.623 814.324 56.5625 814.324 55.2266C814.324 52.2266 812.83 50.7266 809.842 50.7266C808.436 50.7266 807.311 51.1309 806.467 51.9395C805.635 52.7363 805.219 53.7969 805.219 55.1211H801.967C801.967 53.0938 802.705 51.4121 804.182 50.0762C805.67 48.7285 807.557 48.0547 809.842 48.0547C812.256 48.0547 814.148 48.6934 815.52 49.9707C816.891 51.248 817.576 53.0234 817.576 55.2969C817.576 56.4102 817.213 57.4883 816.486 58.5312C815.771 59.5742 814.793 60.3535 813.551 60.8691C814.957 61.3145 816.041 62.0527 816.803 63.084C817.576 64.1152 817.963 65.375 817.963 66.8633C817.963 69.1602 817.213 70.9824 815.713 72.3301C814.213 73.6777 812.262 74.3516 809.859 74.3516C807.457 74.3516 805.5 73.7012 803.988 72.4004C802.488 71.0996 801.738 69.3828 801.738 67.25H805.008C805.008 68.5977 805.447 69.6758 806.326 70.4844C807.205 71.293 808.383 71.6973 809.859 71.6973C811.43 71.6973 812.631 71.2871 813.463 70.4668C814.295 69.6465 814.711 68.4688 814.711 66.9336C814.711 65.4453 814.254 64.3027 813.34 63.5059C812.426 62.709 811.107 62.2988 809.385 62.2754H806.941V59.6211Z" fill="white"/>
<path d="M838.477 63.084C838.477 66.8926 837.826 69.7227 836.525 71.5742C835.225 73.4258 833.191 74.3516 830.426 74.3516C827.695 74.3516 825.674 73.4492 824.361 71.6445C823.049 69.8281 822.369 67.1211 822.322 63.5234V59.1816C822.322 55.4199 822.973 52.625 824.273 50.7969C825.574 48.9688 827.613 48.0547 830.391 48.0547C833.145 48.0547 835.172 48.9395 836.473 50.709C837.773 52.4668 838.441 55.1855 838.477 58.8652V63.084ZM835.225 58.6367C835.225 55.8828 834.838 53.8789 834.064 52.625C833.291 51.3594 832.066 50.7266 830.391 50.7266C828.727 50.7266 827.514 51.3535 826.752 52.6074C825.99 53.8613 825.598 55.7891 825.574 58.3906V63.5938C825.574 66.3594 825.973 68.4043 826.77 69.7285C827.578 71.041 828.797 71.6973 830.426 71.6973C832.031 71.6973 833.221 71.0762 833.994 69.834C834.779 68.5918 835.189 66.6348 835.225 63.9629V58.6367Z" fill="white"/>
<path d="M842.871 79.0977L841.025 77.832C842.127 76.2969 842.701 74.7148 842.748 73.0859V70.1504H845.93V72.6992C845.93 73.8828 845.637 75.0664 845.051 76.25C844.477 77.4336 843.75 78.3828 842.871 79.0977Z" fill="white"/>
<path d="M118.67 106.332C118.67 103.414 119.361 101.07 120.744 99.3008C122.127 97.5195 123.938 96.6289 126.176 96.6289C128.402 96.6289 130.166 97.3906 131.467 98.9141V89H134.719V116H131.73L131.572 113.961C130.271 115.555 128.461 116.352 126.141 116.352C123.938 116.352 122.139 115.449 120.744 113.645C119.361 111.84 118.67 109.484 118.67 106.578V106.332ZM121.922 106.701C121.922 108.857 122.367 110.545 123.258 111.764C124.148 112.982 125.379 113.592 126.949 113.592C129.012 113.592 130.518 112.666 131.467 110.814V102.078C130.494 100.285 129 99.3887 126.984 99.3887C125.391 99.3887 124.148 100.004 123.258 101.234C122.367 102.465 121.922 104.287 121.922 106.701Z" fill="white"/>
<path d="M147.674 116.352C145.096 116.352 142.998 115.508 141.381 113.82C139.764 112.121 138.955 109.854 138.955 107.018V106.42C138.955 104.533 139.312 102.852 140.027 101.375C140.754 99.8867 141.762 98.7266 143.051 97.8945C144.352 97.0508 145.758 96.6289 147.27 96.6289C149.742 96.6289 151.664 97.4434 153.035 99.0723C154.406 100.701 155.092 103.033 155.092 106.068V107.422H142.207C142.254 109.297 142.799 110.814 143.842 111.975C144.896 113.123 146.232 113.697 147.85 113.697C148.998 113.697 149.971 113.463 150.768 112.994C151.564 112.525 152.262 111.904 152.859 111.131L154.846 112.678C153.252 115.127 150.861 116.352 147.674 116.352ZM147.27 99.3008C145.957 99.3008 144.855 99.7812 143.965 100.742C143.074 101.691 142.523 103.027 142.312 104.75H151.84V104.504C151.746 102.852 151.301 101.574 150.504 100.672C149.707 99.7578 148.629 99.3008 147.27 99.3008Z" fill="white"/>
<path d="M163.283 92.375V96.9805H166.834V99.4941H163.283V111.289C163.283 112.051 163.441 112.625 163.758 113.012C164.074 113.387 164.613 113.574 165.375 113.574C165.75 113.574 166.266 113.504 166.922 113.363V116C166.066 116.234 165.234 116.352 164.426 116.352C162.973 116.352 161.877 115.912 161.139 115.033C160.4 114.154 160.031 112.906 160.031 111.289V99.4941H156.568V96.9805H160.031V92.375H163.283Z" fill="white"/>
<path d="M178.541 116.352C175.963 116.352 173.865 115.508 172.248 113.82C170.631 112.121 169.822 109.854 169.822 107.018V106.42C169.822 104.533 170.18 102.852 170.895 101.375C171.621 99.8867 172.629 98.7266 173.918 97.8945C175.219 97.0508 176.625 96.6289 178.137 96.6289C180.609 96.6289 182.531 97.4434 183.902 99.0723C185.273 100.701 185.959 103.033 185.959 106.068V107.422H173.074C173.121 109.297 173.666 110.814 174.709 111.975C175.764 113.123 177.1 113.697 178.717 113.697C179.865 113.697 180.838 113.463 181.635 112.994C182.432 112.525 183.129 111.904 183.727 111.131L185.713 112.678C184.119 115.127 181.729 116.352 178.541 116.352ZM178.137 99.3008C176.824 99.3008 175.723 99.7812 174.832 100.742C173.941 101.691 173.391 103.027 173.18 104.75H182.707V104.504C182.613 102.852 182.168 101.574 181.371 100.672C180.574 99.7578 179.496 99.3008 178.137 99.3008Z" fill="white"/>
<path d="M198.932 99.8984C198.439 99.8164 197.906 99.7754 197.332 99.7754C195.199 99.7754 193.752 100.684 192.99 102.5V116H189.738V96.9805H192.902L192.955 99.1777C194.021 97.4785 195.533 96.6289 197.49 96.6289C198.123 96.6289 198.604 96.7109 198.932 96.875V99.8984Z" fill="white"/>
<path d="M204.996 96.9805L205.084 99.0898C206.479 97.4492 208.359 96.6289 210.727 96.6289C213.387 96.6289 215.197 97.6484 216.158 99.6875C216.791 98.7734 217.611 98.0352 218.619 97.4727C219.639 96.9102 220.84 96.6289 222.223 96.6289C226.395 96.6289 228.516 98.8379 228.586 103.256V116H225.334V103.449C225.334 102.09 225.023 101.076 224.402 100.408C223.781 99.7285 222.738 99.3887 221.273 99.3887C220.066 99.3887 219.064 99.752 218.268 100.479C217.471 101.193 217.008 102.16 216.879 103.379V116H213.609V103.537C213.609 100.771 212.256 99.3887 209.549 99.3887C207.416 99.3887 205.957 100.297 205.172 102.113V116H201.92V96.9805H204.996Z" fill="white"/>
<path d="M237.041 116H233.789V96.9805H237.041V116ZM233.525 91.9355C233.525 91.4082 233.684 90.9629 234 90.5996C234.328 90.2363 234.809 90.0547 235.441 90.0547C236.074 90.0547 236.555 90.2363 236.883 90.5996C237.211 90.9629 237.375 91.4082 237.375 91.9355C237.375 92.4629 237.211 92.9023 236.883 93.2539C236.555 93.6055 236.074 93.7812 235.441 93.7812C234.809 93.7812 234.328 93.6055 234 93.2539C233.684 92.9023 233.525 92.4629 233.525 91.9355Z" fill="white"/>
<path d="M245.338 96.9805L245.443 99.3711C246.896 97.543 248.795 96.6289 251.139 96.6289C255.158 96.6289 257.186 98.8965 257.221 103.432V116H253.969V103.414C253.957 102.043 253.641 101.029 253.02 100.373C252.41 99.7168 251.455 99.3887 250.154 99.3887C249.1 99.3887 248.174 99.6699 247.377 100.232C246.58 100.795 245.959 101.533 245.514 102.447V116H242.262V96.9805H245.338Z" fill="white"/>
<path d="M273.867 116C273.68 115.625 273.527 114.957 273.41 113.996C271.898 115.566 270.094 116.352 267.996 116.352C266.121 116.352 264.58 115.824 263.373 114.77C262.178 113.703 261.58 112.355 261.58 110.727C261.58 108.746 262.33 107.211 263.83 106.121C265.342 105.02 267.463 104.469 270.193 104.469H273.357V102.975C273.357 101.838 273.018 100.936 272.338 100.268C271.658 99.5879 270.656 99.248 269.332 99.248C268.172 99.248 267.199 99.541 266.414 100.127C265.629 100.713 265.236 101.422 265.236 102.254H261.967C261.967 101.305 262.301 100.391 262.969 99.5117C263.648 98.6211 264.562 97.918 265.711 97.4023C266.871 96.8867 268.143 96.6289 269.525 96.6289C271.717 96.6289 273.434 97.1797 274.676 98.2812C275.918 99.3711 276.562 100.877 276.609 102.799V111.553C276.609 113.299 276.832 114.688 277.277 115.719V116H273.867ZM268.471 113.521C269.49 113.521 270.457 113.258 271.371 112.73C272.285 112.203 272.947 111.518 273.357 110.674V106.771H270.809C266.824 106.771 264.832 107.938 264.832 110.27C264.832 111.289 265.172 112.086 265.852 112.66C266.531 113.234 267.404 113.521 268.471 113.521Z" fill="white"/>
<path d="M298.529 116.352C295.951 116.352 293.854 115.508 292.236 113.82C290.619 112.121 289.811 109.854 289.811 107.018V106.42C289.811 104.533 290.168 102.852 290.883 101.375C291.609 99.8867 292.617 98.7266 293.906 97.8945C295.207 97.0508 296.613 96.6289 298.125 96.6289C300.598 96.6289 302.52 97.4434 303.891 99.0723C305.262 100.701 305.947 103.033 305.947 106.068V107.422H293.062C293.109 109.297 293.654 110.814 294.697 111.975C295.752 113.123 297.088 113.697 298.705 113.697C299.854 113.697 300.826 113.463 301.623 112.994C302.42 112.525 303.117 111.904 303.715 111.131L305.701 112.678C304.107 115.127 301.717 116.352 298.529 116.352ZM298.125 99.3008C296.812 99.3008 295.711 99.7812 294.82 100.742C293.93 101.691 293.379 103.027 293.168 104.75H302.695V104.504C302.602 102.852 302.156 101.574 301.359 100.672C300.562 99.7578 299.484 99.3008 298.125 99.3008Z" fill="white"/>
<path d="M313.26 116H310.008V89H313.26V116Z" fill="white"/>
<path d="M330.486 96.9805L330.592 99.3711C332.045 97.543 333.943 96.6289 336.287 96.6289C340.307 96.6289 342.334 98.8965 342.369 103.432V116H339.117V103.414C339.105 102.043 338.789 101.029 338.168 100.373C337.559 99.7168 336.604 99.3887 335.303 99.3887C334.248 99.3887 333.322 99.6699 332.525 100.232C331.729 100.795 331.107 101.533 330.662 102.447V116H327.41V96.9805H330.486Z" fill="white"/>
<path d="M359.016 114.119C357.75 115.607 355.893 116.352 353.443 116.352C351.416 116.352 349.869 115.766 348.803 114.594C347.748 113.41 347.215 111.664 347.203 109.355V96.9805H350.455V109.268C350.455 112.15 351.627 113.592 353.971 113.592C356.455 113.592 358.107 112.666 358.928 110.814V96.9805H362.18V116H359.086L359.016 114.119ZM356.379 89H360.316L355.605 94.168H352.986L356.379 89Z" fill="white"/>
<path d="M370.195 96.9805L370.283 99.0898C371.678 97.4492 373.559 96.6289 375.926 96.6289C378.586 96.6289 380.396 97.6484 381.357 99.6875C381.99 98.7734 382.811 98.0352 383.818 97.4727C384.838 96.9102 386.039 96.6289 387.422 96.6289C391.594 96.6289 393.715 98.8379 393.785 103.256V116H390.533V103.449C390.533 102.09 390.223 101.076 389.602 100.408C388.98 99.7285 387.938 99.3887 386.473 99.3887C385.266 99.3887 384.264 99.752 383.467 100.479C382.67 101.193 382.207 102.16 382.078 103.379V116H378.809V103.537C378.809 100.771 377.455 99.3887 374.748 99.3887C372.615 99.3887 371.156 100.297 370.371 102.113V116H367.119V96.9805H370.195Z" fill="white"/>
<path d="M406.6 116.352C404.021 116.352 401.924 115.508 400.307 113.82C398.689 112.121 397.881 109.854 397.881 107.018V106.42C397.881 104.533 398.238 102.852 398.953 101.375C399.68 99.8867 400.688 98.7266 401.977 97.8945C403.277 97.0508 404.684 96.6289 406.195 96.6289C408.668 96.6289 410.59 97.4434 411.961 99.0723C413.332 100.701 414.018 103.033 414.018 106.068V107.422H401.133C401.18 109.297 401.725 110.814 402.768 111.975C403.822 113.123 405.158 113.697 406.775 113.697C407.924 113.697 408.896 113.463 409.693 112.994C410.49 112.525 411.188 111.904 411.785 111.131L413.771 112.678C412.178 115.127 409.787 116.352 406.6 116.352ZM406.195 99.3008C404.883 99.3008 403.781 99.7812 402.891 100.742C402 101.691 401.449 103.027 401.238 104.75H410.766V104.504C410.672 102.852 410.227 101.574 409.43 100.672C408.633 99.7578 407.555 99.3008 406.195 99.3008Z" fill="white"/>
<path d="M426.99 99.8984C426.498 99.8164 425.965 99.7754 425.391 99.7754C423.258 99.7754 421.811 100.684 421.049 102.5V116H417.797V96.9805H420.961L421.014 99.1777C422.08 97.4785 423.592 96.6289 425.549 96.6289C426.182 96.6289 426.662 96.7109 426.99 96.875V99.8984Z" fill="white"/>
<path d="M428.783 106.314C428.783 104.451 429.146 102.775 429.873 101.287C430.611 99.7988 431.631 98.6504 432.932 97.8418C434.244 97.0332 435.738 96.6289 437.414 96.6289C440.004 96.6289 442.096 97.5254 443.689 99.3184C445.295 101.111 446.098 103.496 446.098 106.473V106.701C446.098 108.553 445.74 110.217 445.025 111.693C444.322 113.158 443.309 114.301 441.984 115.121C440.672 115.941 439.16 116.352 437.449 116.352C434.871 116.352 432.779 115.455 431.174 113.662C429.58 111.869 428.783 109.496 428.783 106.543V106.314ZM432.053 106.701C432.053 108.811 432.539 110.504 433.512 111.781C434.496 113.059 435.809 113.697 437.449 113.697C439.102 113.697 440.414 113.053 441.387 111.764C442.359 110.463 442.846 108.646 442.846 106.314C442.846 104.229 442.348 102.541 441.352 101.252C440.367 99.9512 439.055 99.3008 437.414 99.3008C435.809 99.3008 434.514 99.9395 433.529 101.217C432.545 102.494 432.053 104.322 432.053 106.701Z" fill="white"/>
<path d="M462.164 96.9805L462.252 99.0898C463.646 97.4492 465.527 96.6289 467.895 96.6289C470.555 96.6289 472.365 97.6484 473.326 99.6875C473.959 98.7734 474.779 98.0352 475.787 97.4727C476.807 96.9102 478.008 96.6289 479.391 96.6289C483.562 96.6289 485.684 98.8379 485.754 103.256V116H482.502V103.449C482.502 102.09 482.191 101.076 481.57 100.408C480.949 99.7285 479.906 99.3887 478.441 99.3887C477.234 99.3887 476.232 99.752 475.436 100.479C474.639 101.193 474.176 102.16 474.047 103.379V116H470.777V103.537C470.777 100.771 469.424 99.3887 466.717 99.3887C464.584 99.3887 463.125 100.297 462.34 102.113V116H459.088V96.9805H462.164Z" fill="white"/>
<path d="M502.418 116C502.23 115.625 502.078 114.957 501.961 113.996C500.449 115.566 498.645 116.352 496.547 116.352C494.672 116.352 493.131 115.824 491.924 114.77C490.729 113.703 490.131 112.355 490.131 110.727C490.131 108.746 490.881 107.211 492.381 106.121C493.893 105.02 496.014 104.469 498.744 104.469H501.908V102.975C501.908 101.838 501.568 100.936 500.889 100.268C500.209 99.5879 499.207 99.248 497.883 99.248C496.723 99.248 495.75 99.541 494.965 100.127C494.18 100.713 493.787 101.422 493.787 102.254H490.518C490.518 101.305 490.852 100.391 491.52 99.5117C492.199 98.6211 493.113 97.918 494.262 97.4023C495.422 96.8867 496.693 96.6289 498.076 96.6289C500.268 96.6289 501.984 97.1797 503.227 98.2812C504.469 99.3711 505.113 100.877 505.16 102.799V111.553C505.16 113.299 505.383 114.688 505.828 115.719V116H502.418ZM497.021 113.521C498.041 113.521 499.008 113.258 499.922 112.73C500.836 112.203 501.498 111.518 501.908 110.674V106.771H499.359C495.375 106.771 493.383 107.938 493.383 110.27C493.383 111.289 493.723 112.086 494.402 112.66C495.082 113.234 495.955 113.521 497.021 113.521Z" fill="white"/>
<path d="M516.199 111.236L520.629 96.9805H524.109L516.463 118.936C515.279 122.1 513.398 123.682 510.82 123.682L510.205 123.629L508.992 123.4V120.764L509.871 120.834C510.973 120.834 511.828 120.611 512.438 120.166C513.059 119.721 513.568 118.906 513.967 117.723L514.688 115.789L507.902 96.9805H511.453L516.199 111.236Z" fill="white"/>
<path d="M525.885 106.314C525.885 104.451 526.248 102.775 526.975 101.287C527.713 99.7988 528.732 98.6504 530.033 97.8418C531.346 97.0332 532.84 96.6289 534.516 96.6289C537.105 96.6289 539.197 97.5254 540.791 99.3184C542.396 101.111 543.199 103.496 543.199 106.473V106.701C543.199 108.553 542.842 110.217 542.127 111.693C541.424 113.158 540.41 114.301 539.086 115.121C537.773 115.941 536.262 116.352 534.551 116.352C531.973 116.352 529.881 115.455 528.275 113.662C526.682 111.869 525.885 109.496 525.885 106.543V106.314ZM529.154 106.701C529.154 108.811 529.641 110.504 530.613 111.781C531.598 113.059 532.91 113.697 534.551 113.697C536.203 113.697 537.516 113.053 538.488 111.764C539.461 110.463 539.947 108.646 539.947 106.314C539.947 104.229 539.449 102.541 538.453 101.252C537.469 99.9512 536.156 99.3008 534.516 99.3008C532.91 99.3008 531.615 99.9395 530.631 101.217C529.646 102.494 529.154 104.322 529.154 106.701Z" fill="white"/>
<path d="M556.471 99.8984C555.979 99.8164 555.445 99.7754 554.871 99.7754C552.738 99.7754 551.291 100.684 550.529 102.5V116H547.277V96.9805H550.441L550.494 99.1777C551.561 97.4785 553.072 96.6289 555.029 96.6289C555.662 96.6289 556.143 96.7109 556.471 96.875V99.8984Z" fill="white"/>
</g>
</g>
</g>
</svg>
