<svg viewBox="0 0 995 428" fill="none" xmlns="http://www.w3.org/2000/svg">
<g id="0120129">
<g id="claves01">
<path id="Rectangle 4" d="M59 215H275.745L309 255L275.745 295H59V215Z" fill="#E8A1EE" fill-opacity="0.1"/>
<path id="Rectangle 4 (Stroke)" fill-rule="evenodd" clip-rule="evenodd" d="M274.338 218H62V292H274.338L305.099 255L274.338 218ZM275.745 215H59V295H275.745L309 255L275.745 215Z" fill="#E8A1EE"/>
<path id="Rectangle 5" d="M63 325H279.745L313 365L279.745 405H63V325Z" fill="#E8A1EE" fill-opacity="0.1"/>
<path id="Rectangle 5 (Stroke)" fill-rule="evenodd" clip-rule="evenodd" d="M278.338 328H66V402H278.338L309.099 365L278.338 328ZM279.745 325H63V405H279.745L313 365L279.745 325Z" fill="#E8A1EE"/>
<path id="Rectangle 6" d="M399 212H615.745L649 252L615.745 292H399V212Z" fill="#E8A1EE" fill-opacity="0.1"/>
<path id="Rectangle 6 (Stroke)" fill-rule="evenodd" clip-rule="evenodd" d="M614.338 215H402V289H614.338L645.099 252L614.338 215ZM615.745 212H399V292H615.745L649 252L615.745 212Z" fill="#E8A1EE"/>
<path id="Rectangle 7" d="M402 322H618.745L652 362L618.745 402H402V322Z" fill="#E8A1EE" fill-opacity="0.1"/>
<path id="Rectangle 7 (Stroke)" fill-rule="evenodd" clip-rule="evenodd" d="M617.338 325H405V399H617.338L648.099 362L617.338 325ZM618.745 322H402V402H618.745L652 362L618.745 322Z" fill="#E8A1EE"/>
<path id="Rectangle 8" d="M745 271H961.745L995 311L961.745 351H745V271Z" fill="#E8A1EE" fill-opacity="0.1"/>
<path id="Rectangle 8 (Stroke)" fill-rule="evenodd" clip-rule="evenodd" d="M960.338 274H748V348H960.338L991.099 311L960.338 274ZM961.745 271H745V351H961.745L995 311L961.745 271Z" fill="#E8A1EE"/>
<path id="Ellipse 1" d="M100 255C100 277.091 82.0914 295 60 295C37.9086 295 20 277.091 20 255C20 232.909 37.9086 215 60 215C82.0914 215 100 232.909 100 255Z" fill="#E8A1EE"/>
<path id="Ellipse 2" d="M104 365C104 387.091 86.0914 405 64 405C41.9086 405 24 387.091 24 365C24 342.909 41.9086 325 64 325C86.0914 325 104 342.909 104 365Z" fill="#E8A1EE"/>
<path id="Ellipse 3" d="M440 252C440 274.091 422.091 292 400 292C377.909 292 360 274.091 360 252C360 229.909 377.909 212 400 212C422.091 212 440 229.909 440 252Z" fill="#E8A1EE"/>
<path id="Ellipse 4" d="M443 362C443 384.091 425.091 402 403 402C380.909 402 363 384.091 363 362C363 339.909 380.909 322 403 322C425.091 322 443 339.909 443 362Z" fill="#E8A1EE"/>
<path id="Ellipse 5" d="M786 311C786 333.091 768.091 351 746 351C723.909 351 706 333.091 706 311C706 288.909 723.909 271 746 271C768.091 271 786 288.909 786 311Z" fill="#E8A1EE"/>
<path id="A" d="M68.0938 265.406H50.4688L46.7812 276H38.5625L55.75 230.5H62.8438L80.0625 276H71.8125L68.0938 265.406ZM52.6875 259.031H65.875L59.2812 240.156L52.6875 259.031Z" fill="white"/>
<path id="B" d="M47.625 381V335.5H63.2188C68.3646 335.5 72.2812 336.531 74.9688 338.594C77.6562 340.656 79 343.729 79 347.812C79 349.896 78.4375 351.771 77.3125 353.438C76.1875 355.104 74.5417 356.396 72.375 357.312C74.8333 357.979 76.7292 359.24 78.0625 361.094C79.4167 362.927 80.0938 365.135 80.0938 367.719C80.0938 371.99 78.7188 375.271 75.9688 377.562C73.2396 379.854 69.3229 381 64.2188 381H47.625ZM55.5312 360.469V374.688H64.3125C66.7917 374.688 68.7292 374.073 70.125 372.844C71.5208 371.615 72.2188 369.906 72.2188 367.719C72.2188 362.99 69.8021 360.573 64.9688 360.469H55.5312ZM55.5312 354.656H63.2812C65.7396 354.656 67.6562 354.104 69.0312 353C70.4271 351.875 71.125 350.292 71.125 348.25C71.125 346 70.4792 344.375 69.1875 343.375C67.9167 342.375 65.9271 341.875 63.2188 341.875H55.5312V354.656Z" fill="white"/>
<path id="C" d="M417.344 259.188C416.885 264.042 415.094 267.833 411.969 270.562C408.844 273.271 404.688 274.625 399.5 274.625C395.875 274.625 392.677 273.771 389.906 272.062C387.156 270.333 385.031 267.885 383.531 264.719C382.031 261.552 381.25 257.875 381.188 253.688V249.438C381.188 245.146 381.948 241.365 383.469 238.094C384.99 234.823 387.167 232.302 390 230.531C392.854 228.76 396.146 227.875 399.875 227.875C404.896 227.875 408.938 229.24 412 231.969C415.062 234.698 416.844 238.552 417.344 243.531H409.469C409.094 240.26 408.135 237.906 406.594 236.469C405.073 235.01 402.833 234.281 399.875 234.281C396.438 234.281 393.792 235.542 391.938 238.062C390.104 240.562 389.167 244.24 389.125 249.094V253.125C389.125 258.042 390 261.792 391.75 264.375C393.521 266.958 396.104 268.25 399.5 268.25C402.604 268.25 404.938 267.552 406.5 266.156C408.062 264.76 409.052 262.438 409.469 259.188H417.344Z" fill="white"/>
<path id="D" d="M385.625 384V338.5H399.062C403.083 338.5 406.646 339.396 409.75 341.188C412.875 342.979 415.292 345.521 417 348.812C418.708 352.104 419.562 355.875 419.562 360.125V362.406C419.562 366.719 418.698 370.51 416.969 373.781C415.26 377.052 412.812 379.573 409.625 381.344C406.458 383.115 402.823 384 398.719 384H385.625ZM393.531 344.875V377.688H398.688C402.833 377.688 406.01 376.396 408.219 373.812C410.448 371.208 411.583 367.479 411.625 362.625V360.094C411.625 355.156 410.552 351.385 408.406 348.781C406.26 346.177 403.146 344.875 399.062 344.875H393.531Z" fill="white"/>
<path id="E" d="M755.219 312.688H736.531V326.688H758.375V333H728.625V287.5H758.156V293.875H736.531V306.438H755.219V312.688Z" fill="white"/>
<g id="350">
<path d="M157.141 255.828H160.398C162.445 255.797 164.055 255.258 165.227 254.211C166.398 253.164 166.984 251.75 166.984 249.969C166.984 245.969 164.992 243.969 161.008 243.969C159.133 243.969 157.633 244.508 156.508 245.586C155.398 246.648 154.844 248.062 154.844 249.828H150.508C150.508 247.125 151.492 244.883 153.461 243.102C155.445 241.305 157.961 240.406 161.008 240.406C164.227 240.406 166.75 241.258 168.578 242.961C170.406 244.664 171.32 247.031 171.32 250.062C171.32 251.547 170.836 252.984 169.867 254.375C168.914 255.766 167.609 256.805 165.953 257.492C167.828 258.086 169.273 259.07 170.289 260.445C171.32 261.82 171.836 263.5 171.836 265.484C171.836 268.547 170.836 270.977 168.836 272.773C166.836 274.57 164.234 275.469 161.031 275.469C157.828 275.469 155.219 274.602 153.203 272.867C151.203 271.133 150.203 268.844 150.203 266H154.562C154.562 267.797 155.148 269.234 156.32 270.312C157.492 271.391 159.062 271.93 161.031 271.93C163.125 271.93 164.727 271.383 165.836 270.289C166.945 269.195 167.5 267.625 167.5 265.578C167.5 263.594 166.891 262.07 165.672 261.008C164.453 259.945 162.695 259.398 160.398 259.367H157.141V255.828Z" fill="#E8A1EE"/>
<path d="M179.781 257.891L181.516 240.875H199V244.883H185.195L184.164 254.188C185.836 253.203 187.734 252.711 189.859 252.711C192.969 252.711 195.438 253.742 197.266 255.805C199.094 257.852 200.008 260.625 200.008 264.125C200.008 267.641 199.055 270.414 197.148 272.445C195.258 274.461 192.609 275.469 189.203 275.469C186.188 275.469 183.727 274.633 181.82 272.961C179.914 271.289 178.828 268.977 178.562 266.023H182.664C182.93 267.977 183.625 269.453 184.75 270.453C185.875 271.438 187.359 271.93 189.203 271.93C191.219 271.93 192.797 271.242 193.938 269.867C195.094 268.492 195.672 266.594 195.672 264.172C195.672 261.891 195.047 260.062 193.797 258.688C192.562 257.297 190.914 256.602 188.852 256.602C186.961 256.602 185.477 257.016 184.398 257.844L183.25 258.781L179.781 257.891Z" fill="#E8A1EE"/>
<path d="M226.141 260.445C226.141 265.523 225.273 269.297 223.539 271.766C221.805 274.234 219.094 275.469 215.406 275.469C211.766 275.469 209.07 274.266 207.32 271.859C205.57 269.438 204.664 265.828 204.602 261.031V255.242C204.602 250.227 205.469 246.5 207.203 244.062C208.938 241.625 211.656 240.406 215.359 240.406C219.031 240.406 221.734 241.586 223.469 243.945C225.203 246.289 226.094 249.914 226.141 254.82V260.445ZM221.805 254.516C221.805 250.844 221.289 248.172 220.258 246.5C219.227 244.812 217.594 243.969 215.359 243.969C213.141 243.969 211.523 244.805 210.508 246.477C209.492 248.148 208.969 250.719 208.938 254.188V261.125C208.938 264.812 209.469 267.539 210.531 269.305C211.609 271.055 213.234 271.93 215.406 271.93C217.547 271.93 219.133 271.102 220.164 269.445C221.211 267.789 221.758 265.18 221.805 261.617V254.516Z" fill="#E8A1EE"/>
</g>
<g id="250">
<path d="M513.195 267H490.836V263.883L502.648 250.758C504.398 248.773 505.602 247.164 506.258 245.93C506.93 244.68 507.266 243.391 507.266 242.062C507.266 240.281 506.727 238.82 505.648 237.68C504.57 236.539 503.133 235.969 501.336 235.969C499.18 235.969 497.5 236.586 496.297 237.82C495.109 239.039 494.516 240.742 494.516 242.93H490.18C490.18 239.789 491.188 237.25 493.203 235.312C495.234 233.375 497.945 232.406 501.336 232.406C504.508 232.406 507.016 233.242 508.859 234.914C510.703 236.57 511.625 238.781 511.625 241.547C511.625 244.906 509.484 248.906 505.203 253.547L496.062 263.461H513.195V267Z" fill="#E8A1EE"/>
<path d="M519.781 249.891L521.516 232.875H539V236.883H525.195L524.164 246.188C525.836 245.203 527.734 244.711 529.859 244.711C532.969 244.711 535.438 245.742 537.266 247.805C539.094 249.852 540.008 252.625 540.008 256.125C540.008 259.641 539.055 262.414 537.148 264.445C535.258 266.461 532.609 267.469 529.203 267.469C526.188 267.469 523.727 266.633 521.82 264.961C519.914 263.289 518.828 260.977 518.562 258.023H522.664C522.93 259.977 523.625 261.453 524.75 262.453C525.875 263.438 527.359 263.93 529.203 263.93C531.219 263.93 532.797 263.242 533.938 261.867C535.094 260.492 535.672 258.594 535.672 256.172C535.672 253.891 535.047 252.062 533.797 250.688C532.562 249.297 530.914 248.602 528.852 248.602C526.961 248.602 525.477 249.016 524.398 249.844L523.25 250.781L519.781 249.891Z" fill="#E8A1EE"/>
<path d="M566.141 252.445C566.141 257.523 565.273 261.297 563.539 263.766C561.805 266.234 559.094 267.469 555.406 267.469C551.766 267.469 549.07 266.266 547.32 263.859C545.57 261.438 544.664 257.828 544.602 253.031V247.242C544.602 242.227 545.469 238.5 547.203 236.062C548.938 233.625 551.656 232.406 555.359 232.406C559.031 232.406 561.734 233.586 563.469 235.945C565.203 238.289 566.094 241.914 566.141 246.82V252.445ZM561.805 246.516C561.805 242.844 561.289 240.172 560.258 238.5C559.227 236.812 557.594 235.969 555.359 235.969C553.141 235.969 551.523 236.805 550.508 238.477C549.492 240.148 548.969 242.719 548.938 246.188V253.125C548.938 256.812 549.469 259.539 550.531 261.305C551.609 263.055 553.234 263.93 555.406 263.93C557.547 263.93 559.133 263.102 560.164 261.445C561.211 259.789 561.758 257.18 561.805 253.617V246.516Z" fill="#E8A1EE"/>
</g>
<g id="170">
<path d="M505.086 378H500.727V349.102L491.984 352.312V348.375L504.406 343.711H505.086V378Z" fill="#E8A1EE"/>
<path d="M539.82 346.312L525.688 378H521.141L535.227 347.438H516.758V343.875H539.82V346.312Z" fill="#E8A1EE"/>
<path d="M566.141 363.445C566.141 368.523 565.273 372.297 563.539 374.766C561.805 377.234 559.094 378.469 555.406 378.469C551.766 378.469 549.07 377.266 547.32 374.859C545.57 372.438 544.664 368.828 544.602 364.031V358.242C544.602 353.227 545.469 349.5 547.203 347.062C548.938 344.625 551.656 343.406 555.359 343.406C559.031 343.406 561.734 344.586 563.469 346.945C565.203 349.289 566.094 352.914 566.141 357.82V363.445ZM561.805 357.516C561.805 353.844 561.289 351.172 560.258 349.5C559.227 347.812 557.594 346.969 555.359 346.969C553.141 346.969 551.523 347.805 550.508 349.477C549.492 351.148 548.969 353.719 548.938 357.188V364.125C548.938 367.812 549.469 370.539 550.531 372.305C551.609 374.055 553.234 374.93 555.406 374.93C557.547 374.93 559.133 374.102 560.164 372.445C561.211 370.789 561.758 368.18 561.805 364.617V357.516Z" fill="#E8A1EE"/>
</g>
<g id="425">
<path d="M855.141 315.539H859.875V319.078H855.141V327H850.781V319.078H835.242V316.523L850.523 292.875H855.141V315.539ZM840.164 315.539H850.781V298.805L850.266 299.742L840.164 315.539Z" fill="#E8A1EE"/>
<path d="M886.148 327H863.789V323.883L875.602 310.758C877.352 308.773 878.555 307.164 879.211 305.93C879.883 304.68 880.219 303.391 880.219 302.062C880.219 300.281 879.68 298.82 878.602 297.68C877.523 296.539 876.086 295.969 874.289 295.969C872.133 295.969 870.453 296.586 869.25 297.82C868.062 299.039 867.469 300.742 867.469 302.93H863.133C863.133 299.789 864.141 297.25 866.156 295.312C868.188 293.375 870.898 292.406 874.289 292.406C877.461 292.406 879.969 293.242 881.812 294.914C883.656 296.57 884.578 298.781 884.578 301.547C884.578 304.906 882.438 308.906 878.156 313.547L869.016 323.461H886.148V327Z" fill="#E8A1EE"/>
<path d="M892.734 309.891L894.469 292.875H911.953V296.883H898.148L897.117 306.188C898.789 305.203 900.688 304.711 902.812 304.711C905.922 304.711 908.391 305.742 910.219 307.805C912.047 309.852 912.961 312.625 912.961 316.125C912.961 319.641 912.008 322.414 910.102 324.445C908.211 326.461 905.562 327.469 902.156 327.469C899.141 327.469 896.68 326.633 894.773 324.961C892.867 323.289 891.781 320.977 891.516 318.023H895.617C895.883 319.977 896.578 321.453 897.703 322.453C898.828 323.438 900.312 323.93 902.156 323.93C904.172 323.93 905.75 323.242 906.891 321.867C908.047 320.492 908.625 318.594 908.625 316.172C908.625 313.891 908 312.062 906.75 310.688C905.516 309.297 903.867 308.602 901.805 308.602C899.914 308.602 898.43 309.016 897.352 309.844L896.203 310.781L892.734 309.891Z" fill="#E8A1EE"/>
</g>
<g id="275">
<path d="M182.195 382H159.836V378.883L171.648 365.758C173.398 363.773 174.602 362.164 175.258 360.93C175.93 359.68 176.266 358.391 176.266 357.062C176.266 355.281 175.727 353.82 174.648 352.68C173.57 351.539 172.133 350.969 170.336 350.969C168.18 350.969 166.5 351.586 165.297 352.82C164.109 354.039 163.516 355.742 163.516 357.93H159.18C159.18 354.789 160.188 352.25 162.203 350.312C164.234 348.375 166.945 347.406 170.336 347.406C173.508 347.406 176.016 348.242 177.859 349.914C179.703 351.57 180.625 353.781 180.625 356.547C180.625 359.906 178.484 363.906 174.203 368.547L165.062 378.461H182.195V382Z" fill="#E8A1EE"/>
<path d="M208.82 350.312L194.688 382H190.141L204.227 351.438H185.758V347.875H208.82V350.312Z" fill="#E8A1EE"/>
<path d="M215.734 364.891L217.469 347.875H234.953V351.883H221.148L220.117 361.188C221.789 360.203 223.688 359.711 225.812 359.711C228.922 359.711 231.391 360.742 233.219 362.805C235.047 364.852 235.961 367.625 235.961 371.125C235.961 374.641 235.008 377.414 233.102 379.445C231.211 381.461 228.562 382.469 225.156 382.469C222.141 382.469 219.68 381.633 217.773 379.961C215.867 378.289 214.781 375.977 214.516 373.023H218.617C218.883 374.977 219.578 376.453 220.703 377.453C221.828 378.438 223.312 378.93 225.156 378.93C227.172 378.93 228.75 378.242 229.891 376.867C231.047 375.492 231.625 373.594 231.625 371.172C231.625 368.891 231 367.062 229.75 365.688C228.516 364.297 226.867 363.602 224.805 363.602C222.914 363.602 221.43 364.016 220.352 364.844L219.203 365.781L215.734 364.891Z" fill="#E8A1EE"/>
</g>
<g id="flecha">
<path id="Rectangle 2" d="M72.2002 331.008L87.482 339.133L45.5004 418.089L30.2186 409.963L72.2002 331.008Z" fill="#1043F5"/>
<path id="Rectangle 1" d="M14 343.904L104 294V351.692L59 334.096L14 343.904Z" fill="#1043F5"/>
<path id="Rectangle 3" d="M18.0381 413.21L33.6652 386.143L50.9359 385.565L35.3087 412.632L18.0381 413.21Z" fill="#1043F5"/>
<path id="Rectangle 4_2" d="M44.0898 427.845L59.717 400.778L50.9263 385.154L35.2991 412.221L44.0898 427.845Z" fill="#1043F5"/>
</g>
</g>
<g id="enun01">
<path id="Rectangle 1_2" d="M43 0H855.539L924 85.7482L855.539 174H43V0Z" fill="#02071A"/>
<path id="Rectangle 1 (Stroke)" fill-rule="evenodd" clip-rule="evenodd" d="M853.614 4H47V170H853.579L918.91 85.7838L853.614 4ZM855.539 0H43V174H855.539L924 85.7482L855.539 0Z" fill="#E8A1EE"/>
<path id="Ellipse 1_2" d="M100 87C100 114.614 77.6142 137 50 137C22.3858 137 0 114.614 0 87C0 59.3858 22.3858 37 50 37C77.6142 37 100 59.3858 100 87Z" fill="#E8A1EE"/>
<path id="Ellipse 1 (Stroke)" fill-rule="evenodd" clip-rule="evenodd" d="M50 136C77.062 136 99 114.062 99 87C99 59.938 77.062 38 50 38C22.938 38 1 59.938 1 87C1 114.062 22.938 136 50 136ZM50 137C77.6142 137 100 114.614 100 87C100 59.3858 77.6142 37 50 37C22.3858 37 0 59.3858 0 87C0 114.614 22.3858 137 50 137Z" fill="#E8A1EE"/>
<g id="Dos hermanas ahorran 300. Si la mayor tiene 11 veces lo que tiene la menor. &#194;&#191;Cu&#195;&#161;nto tiene la mayor?">
<path d="M104.971 53V27.4062H112.195C114.422 27.4062 116.391 27.8984 118.102 28.8828C119.812 29.8672 121.131 31.2676 122.057 33.084C122.994 34.9004 123.469 36.9863 123.48 39.3418V40.9766C123.48 43.3906 123.012 45.5059 122.074 47.3223C121.148 49.1387 119.818 50.5332 118.084 51.5059C116.361 52.4785 114.352 52.9766 112.055 53H104.971ZM108.346 30.1836V50.2402H111.896C114.498 50.2402 116.52 49.4316 117.961 47.8145C119.414 46.1973 120.141 43.8945 120.141 40.9062V39.4121C120.141 36.5059 119.455 34.25 118.084 32.6445C116.725 31.0273 114.791 30.207 112.283 30.1836H108.346Z" fill="white"/>
<path d="M127.225 43.3145C127.225 41.4512 127.588 39.7754 128.314 38.2871C129.053 36.7988 130.072 35.6504 131.373 34.8418C132.686 34.0332 134.18 33.6289 135.855 33.6289C138.445 33.6289 140.537 34.5254 142.131 36.3184C143.736 38.1113 144.539 40.4961 144.539 43.4727V43.7012C144.539 45.5527 144.182 47.2168 143.467 48.6934C142.764 50.1582 141.75 51.3008 140.426 52.1211C139.113 52.9414 137.602 53.3516 135.891 53.3516C133.312 53.3516 131.221 52.4551 129.615 50.6621C128.021 48.8691 127.225 46.4961 127.225 43.543V43.3145ZM130.494 43.7012C130.494 45.8105 130.98 47.5039 131.953 48.7812C132.938 50.0586 134.25 50.6973 135.891 50.6973C137.543 50.6973 138.855 50.0527 139.828 48.7637C140.801 47.4629 141.287 45.6465 141.287 43.3145C141.287 41.2285 140.789 39.541 139.793 38.252C138.809 36.9512 137.496 36.3008 135.855 36.3008C134.25 36.3008 132.955 36.9395 131.971 38.2168C130.986 39.4941 130.494 41.3223 130.494 43.7012Z" fill="white"/>
<path d="M159.691 47.9551C159.691 47.0762 159.357 46.3965 158.689 45.916C158.033 45.4238 156.879 45.002 155.227 44.6504C153.586 44.2988 152.279 43.877 151.307 43.3848C150.346 42.8926 149.631 42.3066 149.162 41.627C148.705 40.9473 148.477 40.1387 148.477 39.2012C148.477 37.6426 149.133 36.3242 150.445 35.2461C151.77 34.168 153.457 33.6289 155.508 33.6289C157.664 33.6289 159.41 34.1855 160.746 35.2988C162.094 36.4121 162.768 37.8359 162.768 39.5703H159.498C159.498 38.6797 159.117 37.9121 158.355 37.2676C157.605 36.623 156.656 36.3008 155.508 36.3008C154.324 36.3008 153.398 36.5586 152.73 37.0742C152.062 37.5898 151.729 38.2637 151.729 39.0957C151.729 39.8809 152.039 40.4727 152.66 40.8711C153.281 41.2695 154.4 41.6504 156.018 42.0137C157.646 42.377 158.965 42.8105 159.973 43.3145C160.98 43.8184 161.725 44.4277 162.205 45.1426C162.697 45.8457 162.943 46.707 162.943 47.7266C162.943 49.4258 162.264 50.791 160.904 51.8223C159.545 52.8418 157.781 53.3516 155.613 53.3516C154.09 53.3516 152.742 53.082 151.57 52.543C150.398 52.0039 149.479 51.2539 148.811 50.293C148.154 49.3203 147.826 48.2715 147.826 47.1465H151.078C151.137 48.2363 151.57 49.1035 152.379 49.748C153.199 50.3809 154.277 50.6973 155.613 50.6973C156.844 50.6973 157.828 50.4512 158.566 49.959C159.316 49.4551 159.691 48.7871 159.691 47.9551Z" fill="white"/>
<path d="M179.361 36.2832C180.803 34.5137 182.678 33.6289 184.986 33.6289C189.006 33.6289 191.033 35.8965 191.068 40.4316V53H187.816V40.4141C187.805 39.043 187.488 38.0293 186.867 37.373C186.258 36.7168 185.303 36.3887 184.002 36.3887C182.947 36.3887 182.021 36.6699 181.225 37.2324C180.428 37.7949 179.807 38.5332 179.361 39.4473V53H176.109V26H179.361V36.2832Z" fill="white"/>
<path d="M203.83 53.3516C201.252 53.3516 199.154 52.5078 197.537 50.8203C195.92 49.1211 195.111 46.8535 195.111 44.0176V43.4199C195.111 41.5332 195.469 39.8516 196.184 38.375C196.91 36.8867 197.918 35.7266 199.207 34.8945C200.508 34.0508 201.914 33.6289 203.426 33.6289C205.898 33.6289 207.82 34.4434 209.191 36.0723C210.562 37.7012 211.248 40.0332 211.248 43.0684V44.4219H198.363C198.41 46.2969 198.955 47.8145 199.998 48.9746C201.053 50.123 202.389 50.6973 204.006 50.6973C205.154 50.6973 206.127 50.4629 206.924 49.9941C207.721 49.5254 208.418 48.9043 209.016 48.1309L211.002 49.6777C209.408 52.127 207.018 53.3516 203.83 53.3516ZM203.426 36.3008C202.113 36.3008 201.012 36.7812 200.121 37.7422C199.23 38.6914 198.68 40.0273 198.469 41.75H207.996V41.5039C207.902 39.8516 207.457 38.5742 206.66 37.6719C205.863 36.7578 204.785 36.3008 203.426 36.3008Z" fill="white"/>
<path d="M224.221 36.8984C223.729 36.8164 223.195 36.7754 222.621 36.7754C220.488 36.7754 219.041 37.6836 218.279 39.5V53H215.027V33.9805H218.191L218.244 36.1777C219.311 34.4785 220.822 33.6289 222.779 33.6289C223.412 33.6289 223.893 33.7109 224.221 33.875V36.8984Z" fill="white"/>
<path d="M230.285 33.9805L230.373 36.0898C231.768 34.4492 233.648 33.6289 236.016 33.6289C238.676 33.6289 240.486 34.6484 241.447 36.6875C242.08 35.7734 242.9 35.0352 243.908 34.4727C244.928 33.9102 246.129 33.6289 247.512 33.6289C251.684 33.6289 253.805 35.8379 253.875 40.2559V53H250.623V40.4492C250.623 39.0898 250.312 38.0762 249.691 37.4082C249.07 36.7285 248.027 36.3887 246.562 36.3887C245.355 36.3887 244.354 36.752 243.557 37.4785C242.76 38.1934 242.297 39.1602 242.168 40.3789V53H238.898V40.5371C238.898 37.7715 237.545 36.3887 234.838 36.3887C232.705 36.3887 231.246 37.2969 230.461 39.1133V53H227.209V33.9805H230.285Z" fill="white"/>
<path d="M270.539 53C270.352 52.625 270.199 51.957 270.082 50.9961C268.57 52.5664 266.766 53.3516 264.668 53.3516C262.793 53.3516 261.252 52.8242 260.045 51.7695C258.85 50.7031 258.252 49.3555 258.252 47.7266C258.252 45.7461 259.002 44.2109 260.502 43.1211C262.014 42.0195 264.135 41.4688 266.865 41.4688H270.029V39.9746C270.029 38.8379 269.689 37.9355 269.01 37.2676C268.33 36.5879 267.328 36.248 266.004 36.248C264.844 36.248 263.871 36.541 263.086 37.127C262.301 37.7129 261.908 38.4219 261.908 39.2539H258.639C258.639 38.3047 258.973 37.3906 259.641 36.5117C260.32 35.6211 261.234 34.918 262.383 34.4023C263.543 33.8867 264.814 33.6289 266.197 33.6289C268.389 33.6289 270.105 34.1797 271.348 35.2812C272.59 36.3711 273.234 37.877 273.281 39.7988V48.5527C273.281 50.2988 273.504 51.6875 273.949 52.7188V53H270.539ZM265.143 50.5215C266.162 50.5215 267.129 50.2578 268.043 49.7305C268.957 49.2031 269.619 48.5176 270.029 47.6738V43.7715H267.48C263.496 43.7715 261.504 44.9375 261.504 47.2695C261.504 48.2891 261.844 49.0859 262.523 49.6602C263.203 50.2344 264.076 50.5215 265.143 50.5215Z" fill="white"/>
<path d="M281.455 33.9805L281.561 36.3711C283.014 34.543 284.912 33.6289 287.256 33.6289C291.275 33.6289 293.303 35.8965 293.338 40.4316V53H290.086V40.4141C290.074 39.043 289.758 38.0293 289.137 37.373C288.527 36.7168 287.572 36.3887 286.271 36.3887C285.217 36.3887 284.291 36.6699 283.494 37.2324C282.697 37.7949 282.076 38.5332 281.631 39.4473V53H278.379V33.9805H281.455Z" fill="white"/>
<path d="M309.984 53C309.797 52.625 309.645 51.957 309.527 50.9961C308.016 52.5664 306.211 53.3516 304.113 53.3516C302.238 53.3516 300.697 52.8242 299.49 51.7695C298.295 50.7031 297.697 49.3555 297.697 47.7266C297.697 45.7461 298.447 44.2109 299.947 43.1211C301.459 42.0195 303.58 41.4688 306.311 41.4688H309.475V39.9746C309.475 38.8379 309.135 37.9355 308.455 37.2676C307.775 36.5879 306.773 36.248 305.449 36.248C304.289 36.248 303.316 36.541 302.531 37.127C301.746 37.7129 301.354 38.4219 301.354 39.2539H298.084C298.084 38.3047 298.418 37.3906 299.086 36.5117C299.766 35.6211 300.68 34.918 301.828 34.4023C302.988 33.8867 304.26 33.6289 305.643 33.6289C307.834 33.6289 309.551 34.1797 310.793 35.2812C312.035 36.3711 312.68 37.877 312.727 39.7988V48.5527C312.727 50.2988 312.949 51.6875 313.395 52.7188V53H309.984ZM304.588 50.5215C305.607 50.5215 306.574 50.2578 307.488 49.7305C308.402 49.2031 309.064 48.5176 309.475 47.6738V43.7715H306.926C302.941 43.7715 300.949 44.9375 300.949 47.2695C300.949 48.2891 301.289 49.0859 301.969 49.6602C302.648 50.2344 303.521 50.5215 304.588 50.5215Z" fill="white"/>
<path d="M328.898 47.9551C328.898 47.0762 328.564 46.3965 327.896 45.916C327.24 45.4238 326.086 45.002 324.434 44.6504C322.793 44.2988 321.486 43.877 320.514 43.3848C319.553 42.8926 318.838 42.3066 318.369 41.627C317.912 40.9473 317.684 40.1387 317.684 39.2012C317.684 37.6426 318.34 36.3242 319.652 35.2461C320.977 34.168 322.664 33.6289 324.715 33.6289C326.871 33.6289 328.617 34.1855 329.953 35.2988C331.301 36.4121 331.975 37.8359 331.975 39.5703H328.705C328.705 38.6797 328.324 37.9121 327.562 37.2676C326.812 36.623 325.863 36.3008 324.715 36.3008C323.531 36.3008 322.605 36.5586 321.938 37.0742C321.27 37.5898 320.936 38.2637 320.936 39.0957C320.936 39.8809 321.246 40.4727 321.867 40.8711C322.488 41.2695 323.607 41.6504 325.225 42.0137C326.854 42.377 328.172 42.8105 329.18 43.3145C330.188 43.8184 330.932 44.4277 331.412 45.1426C331.904 45.8457 332.15 46.707 332.15 47.7266C332.15 49.4258 331.471 50.791 330.111 51.8223C328.752 52.8418 326.988 53.3516 324.82 53.3516C323.297 53.3516 321.949 53.082 320.777 52.543C319.605 52.0039 318.686 51.2539 318.018 50.293C317.361 49.3203 317.033 48.2715 317.033 47.1465H320.285C320.344 48.2363 320.777 49.1035 321.586 49.748C322.406 50.3809 323.484 50.6973 324.82 50.6973C326.051 50.6973 327.035 50.4512 327.773 49.959C328.523 49.4551 328.898 48.7871 328.898 47.9551Z" fill="white"/>
<path d="M357.059 53C356.871 52.625 356.719 51.957 356.602 50.9961C355.09 52.5664 353.285 53.3516 351.188 53.3516C349.312 53.3516 347.771 52.8242 346.564 51.7695C345.369 50.7031 344.771 49.3555 344.771 47.7266C344.771 45.7461 345.521 44.2109 347.021 43.1211C348.533 42.0195 350.654 41.4688 353.385 41.4688H356.549V39.9746C356.549 38.8379 356.209 37.9355 355.529 37.2676C354.85 36.5879 353.848 36.248 352.523 36.248C351.363 36.248 350.391 36.541 349.605 37.127C348.82 37.7129 348.428 38.4219 348.428 39.2539H345.158C345.158 38.3047 345.492 37.3906 346.16 36.5117C346.84 35.6211 347.754 34.918 348.902 34.4023C350.062 33.8867 351.334 33.6289 352.717 33.6289C354.908 33.6289 356.625 34.1797 357.867 35.2812C359.109 36.3711 359.754 37.877 359.801 39.7988V48.5527C359.801 50.2988 360.023 51.6875 360.469 52.7188V53H357.059ZM351.662 50.5215C352.682 50.5215 353.648 50.2578 354.562 49.7305C355.477 49.2031 356.139 48.5176 356.549 47.6738V43.7715H354C350.016 43.7715 348.023 44.9375 348.023 47.2695C348.023 48.2891 348.363 49.0859 349.043 49.6602C349.723 50.2344 350.596 50.5215 351.662 50.5215Z" fill="white"/>
<path d="M368.15 36.2832C369.592 34.5137 371.467 33.6289 373.775 33.6289C377.795 33.6289 379.822 35.8965 379.857 40.4316V53H376.605V40.4141C376.594 39.043 376.277 38.0293 375.656 37.373C375.047 36.7168 374.092 36.3887 372.791 36.3887C371.736 36.3887 370.811 36.6699 370.014 37.2324C369.217 37.7949 368.596 38.5332 368.15 39.4473V53H364.898V26H368.15V36.2832Z" fill="white"/>
<path d="M383.865 43.3145C383.865 41.4512 384.229 39.7754 384.955 38.2871C385.693 36.7988 386.713 35.6504 388.014 34.8418C389.326 34.0332 390.82 33.6289 392.496 33.6289C395.086 33.6289 397.178 34.5254 398.771 36.3184C400.377 38.1113 401.18 40.4961 401.18 43.4727V43.7012C401.18 45.5527 400.822 47.2168 400.107 48.6934C399.404 50.1582 398.391 51.3008 397.066 52.1211C395.754 52.9414 394.242 53.3516 392.531 53.3516C389.953 53.3516 387.861 52.4551 386.256 50.6621C384.662 48.8691 383.865 46.4961 383.865 43.543V43.3145ZM387.135 43.7012C387.135 45.8105 387.621 47.5039 388.594 48.7812C389.578 50.0586 390.891 50.6973 392.531 50.6973C394.184 50.6973 395.496 50.0527 396.469 48.7637C397.441 47.4629 397.928 45.6465 397.928 43.3145C397.928 41.2285 397.43 39.541 396.434 38.252C395.449 36.9512 394.137 36.3008 392.496 36.3008C390.891 36.3008 389.596 36.9395 388.611 38.2168C387.627 39.4941 387.135 41.3223 387.135 43.7012Z" fill="white"/>
<path d="M414.451 36.8984C413.959 36.8164 413.426 36.7754 412.852 36.7754C410.719 36.7754 409.271 37.6836 408.51 39.5V53H405.258V33.9805H408.422L408.475 36.1777C409.541 34.4785 411.053 33.6289 413.01 33.6289C413.643 33.6289 414.123 33.7109 414.451 33.875V36.8984Z" fill="white"/>
<path d="M426.65 36.8984C426.158 36.8164 425.625 36.7754 425.051 36.7754C422.918 36.7754 421.471 37.6836 420.709 39.5V53H417.457V33.9805H420.621L420.674 36.1777C421.74 34.4785 423.252 33.6289 425.209 33.6289C425.842 33.6289 426.322 33.7109 426.65 33.875V36.8984Z" fill="white"/>
<path d="M440.695 53C440.508 52.625 440.355 51.957 440.238 50.9961C438.727 52.5664 436.922 53.3516 434.824 53.3516C432.949 53.3516 431.408 52.8242 430.201 51.7695C429.006 50.7031 428.408 49.3555 428.408 47.7266C428.408 45.7461 429.158 44.2109 430.658 43.1211C432.17 42.0195 434.291 41.4688 437.021 41.4688H440.186V39.9746C440.186 38.8379 439.846 37.9355 439.166 37.2676C438.486 36.5879 437.484 36.248 436.16 36.248C435 36.248 434.027 36.541 433.242 37.127C432.457 37.7129 432.064 38.4219 432.064 39.2539H428.795C428.795 38.3047 429.129 37.3906 429.797 36.5117C430.477 35.6211 431.391 34.918 432.539 34.4023C433.699 33.8867 434.971 33.6289 436.354 33.6289C438.545 33.6289 440.262 34.1797 441.504 35.2812C442.746 36.3711 443.391 37.877 443.438 39.7988V48.5527C443.438 50.2988 443.66 51.6875 444.105 52.7188V53H440.695ZM435.299 50.5215C436.318 50.5215 437.285 50.2578 438.199 49.7305C439.113 49.2031 439.775 48.5176 440.186 47.6738V43.7715H437.637C433.652 43.7715 431.66 44.9375 431.66 47.2695C431.66 48.2891 432 49.0859 432.68 49.6602C433.359 50.2344 434.232 50.5215 435.299 50.5215Z" fill="white"/>
<path d="M451.611 33.9805L451.717 36.3711C453.17 34.543 455.068 33.6289 457.412 33.6289C461.432 33.6289 463.459 35.8965 463.494 40.4316V53H460.242V40.4141C460.23 39.043 459.914 38.0293 459.293 37.373C458.684 36.7168 457.729 36.3887 456.428 36.3887C455.373 36.3887 454.447 36.6699 453.65 37.2324C452.854 37.7949 452.232 38.5332 451.787 39.4473V53H448.535V33.9805H451.611Z" fill="white"/>
<path d="M481.723 38.6211H484.166C485.701 38.5977 486.908 38.1934 487.787 37.4082C488.666 36.623 489.105 35.5625 489.105 34.2266C489.105 31.2266 487.611 29.7266 484.623 29.7266C483.217 29.7266 482.092 30.1309 481.248 30.9395C480.416 31.7363 480 32.7969 480 34.1211H476.748C476.748 32.0938 477.486 30.4121 478.963 29.0762C480.451 27.7285 482.338 27.0547 484.623 27.0547C487.037 27.0547 488.93 27.6934 490.301 28.9707C491.672 30.248 492.357 32.0234 492.357 34.2969C492.357 35.4102 491.994 36.4883 491.268 37.5312C490.553 38.5742 489.574 39.3535 488.332 39.8691C489.738 40.3145 490.822 41.0527 491.584 42.084C492.357 43.1152 492.744 44.375 492.744 45.8633C492.744 48.1602 491.994 49.9824 490.494 51.3301C488.994 52.6777 487.043 53.3516 484.641 53.3516C482.238 53.3516 480.281 52.7012 478.77 51.4004C477.27 50.0996 476.52 48.3828 476.52 46.25H479.789C479.789 47.5977 480.229 48.6758 481.107 49.4844C481.986 50.293 483.164 50.6973 484.641 50.6973C486.211 50.6973 487.412 50.2871 488.244 49.4668C489.076 48.6465 489.492 47.4688 489.492 45.9336C489.492 44.4453 489.035 43.3027 488.121 42.5059C487.207 41.709 485.889 41.2988 484.166 41.2754H481.723V38.6211Z" fill="white"/>
<path d="M513.258 42.084C513.258 45.8926 512.607 48.7227 511.307 50.5742C510.006 52.4258 507.973 53.3516 505.207 53.3516C502.477 53.3516 500.455 52.4492 499.143 50.6445C497.83 48.8281 497.15 46.1211 497.104 42.5234V38.1816C497.104 34.4199 497.754 31.625 499.055 29.7969C500.355 27.9688 502.395 27.0547 505.172 27.0547C507.926 27.0547 509.953 27.9395 511.254 29.709C512.555 31.4668 513.223 34.1855 513.258 37.8652V42.084ZM510.006 37.6367C510.006 34.8828 509.619 32.8789 508.846 31.625C508.072 30.3594 506.848 29.7266 505.172 29.7266C503.508 29.7266 502.295 30.3535 501.533 31.6074C500.771 32.8613 500.379 34.7891 500.355 37.3906V42.5938C500.355 45.3594 500.754 47.4043 501.551 48.7285C502.359 50.041 503.578 50.6973 505.207 50.6973C506.812 50.6973 508.002 50.0762 508.775 48.834C509.561 47.5918 509.971 45.6348 510.006 42.9629V37.6367Z" fill="white"/>
<path d="M533.473 42.084C533.473 45.8926 532.822 48.7227 531.521 50.5742C530.221 52.4258 528.188 53.3516 525.422 53.3516C522.691 53.3516 520.67 52.4492 519.357 50.6445C518.045 48.8281 517.365 46.1211 517.318 42.5234V38.1816C517.318 34.4199 517.969 31.625 519.27 29.7969C520.57 27.9688 522.609 27.0547 525.387 27.0547C528.141 27.0547 530.168 27.9395 531.469 29.709C532.77 31.4668 533.438 34.1855 533.473 37.8652V42.084ZM530.221 37.6367C530.221 34.8828 529.834 32.8789 529.061 31.625C528.287 30.3594 527.062 29.7266 525.387 29.7266C523.723 29.7266 522.51 30.3535 521.748 31.6074C520.986 32.8613 520.594 34.7891 520.57 37.3906V42.5938C520.57 45.3594 520.969 47.4043 521.766 48.7285C522.574 50.041 523.793 50.6973 525.422 50.6973C527.027 50.6973 528.217 50.0762 528.99 48.834C529.775 47.5918 530.186 45.6348 530.221 42.9629V37.6367Z" fill="white"/>
<path d="M538.043 51.2949C538.043 50.7324 538.207 50.2637 538.535 49.8887C538.875 49.5137 539.379 49.3262 540.047 49.3262C540.715 49.3262 541.219 49.5137 541.559 49.8887C541.91 50.2637 542.086 50.7324 542.086 51.2949C542.086 51.834 541.91 52.2852 541.559 52.6484C541.219 53.0117 540.715 53.1934 540.047 53.1934C539.379 53.1934 538.875 53.0117 538.535 52.6484C538.207 52.2852 538.043 51.834 538.043 51.2949Z" fill="white"/>
<path d="M564.445 41.5918C561.551 40.7598 559.441 39.7402 558.117 38.5332C556.805 37.3145 556.148 35.8145 556.148 34.0332C556.148 32.0176 556.951 30.3535 558.557 29.041C560.174 27.7168 562.271 27.0547 564.85 27.0547C566.607 27.0547 568.172 27.3945 569.543 28.0742C570.926 28.7539 571.992 29.6914 572.742 30.8867C573.504 32.082 573.885 33.3887 573.885 34.8066H570.492C570.492 33.2598 570 32.0469 569.016 31.168C568.031 30.2773 566.643 29.832 564.85 29.832C563.186 29.832 561.885 30.2012 560.947 30.9395C560.021 31.666 559.559 32.6797 559.559 33.9805C559.559 35.0234 559.998 35.9082 560.877 36.6348C561.768 37.3496 563.273 38.0059 565.395 38.6035C567.527 39.2012 569.191 39.8633 570.387 40.5898C571.594 41.3047 572.484 42.1426 573.059 43.1035C573.645 44.0645 573.938 45.1953 573.938 46.4961C573.938 48.5703 573.129 50.2344 571.512 51.4883C569.895 52.7305 567.732 53.3516 565.025 53.3516C563.268 53.3516 561.627 53.0176 560.104 52.3496C558.58 51.6699 557.402 50.7441 556.57 49.5723C555.75 48.4004 555.34 47.0703 555.34 45.582H558.732C558.732 47.1289 559.301 48.3535 560.438 49.2559C561.586 50.1465 563.115 50.5918 565.025 50.5918C566.807 50.5918 568.172 50.2285 569.121 49.502C570.07 48.7754 570.545 47.7852 570.545 46.5312C570.545 45.2773 570.105 44.3105 569.227 43.6309C568.348 42.9395 566.754 42.2598 564.445 41.5918Z" fill="white"/>
<path d="M581.303 53H578.051V33.9805H581.303V53ZM577.787 28.9355C577.787 28.4082 577.945 27.9629 578.262 27.5996C578.59 27.2363 579.07 27.0547 579.703 27.0547C580.336 27.0547 580.816 27.2363 581.145 27.5996C581.473 27.9629 581.637 28.4082 581.637 28.9355C581.637 29.4629 581.473 29.9023 581.145 30.2539C580.816 30.6055 580.336 30.7812 579.703 30.7812C579.07 30.7812 578.59 30.6055 578.262 30.2539C577.945 29.9023 577.787 29.4629 577.787 28.9355Z" fill="white"/>
<path d="M598.986 53H595.734V26H598.986V53Z" fill="white"/>
<path d="M615.949 53C615.762 52.625 615.609 51.957 615.492 50.9961C613.98 52.5664 612.176 53.3516 610.078 53.3516C608.203 53.3516 606.662 52.8242 605.455 51.7695C604.26 50.7031 603.662 49.3555 603.662 47.7266C603.662 45.7461 604.412 44.2109 605.912 43.1211C607.424 42.0195 609.545 41.4688 612.275 41.4688H615.439V39.9746C615.439 38.8379 615.1 37.9355 614.42 37.2676C613.74 36.5879 612.738 36.248 611.414 36.248C610.254 36.248 609.281 36.541 608.496 37.127C607.711 37.7129 607.318 38.4219 607.318 39.2539H604.049C604.049 38.3047 604.383 37.3906 605.051 36.5117C605.73 35.6211 606.645 34.918 607.793 34.4023C608.953 33.8867 610.225 33.6289 611.607 33.6289C613.799 33.6289 615.516 34.1797 616.758 35.2812C618 36.3711 618.645 37.877 618.691 39.7988V48.5527C618.691 50.2988 618.914 51.6875 619.359 52.7188V53H615.949ZM610.553 50.5215C611.572 50.5215 612.539 50.2578 613.453 49.7305C614.367 49.2031 615.029 48.5176 615.439 47.6738V43.7715H612.891C608.906 43.7715 606.914 44.9375 606.914 47.2695C606.914 48.2891 607.254 49.0859 607.934 49.6602C608.613 50.2344 609.486 50.5215 610.553 50.5215Z" fill="white"/>
<path d="M635.777 33.9805L635.865 36.0898C637.26 34.4492 639.141 33.6289 641.508 33.6289C644.168 33.6289 645.979 34.6484 646.939 36.6875C647.572 35.7734 648.393 35.0352 649.4 34.4727C650.42 33.9102 651.621 33.6289 653.004 33.6289C657.176 33.6289 659.297 35.8379 659.367 40.2559V53H656.115V40.4492C656.115 39.0898 655.805 38.0762 655.184 37.4082C654.562 36.7285 653.52 36.3887 652.055 36.3887C650.848 36.3887 649.846 36.752 649.049 37.4785C648.252 38.1934 647.789 39.1602 647.66 40.3789V53H644.391V40.5371C644.391 37.7715 643.037 36.3887 640.33 36.3887C638.197 36.3887 636.738 37.2969 635.953 39.1133V53H632.701V33.9805H635.777Z" fill="white"/>
<path d="M676.031 53C675.844 52.625 675.691 51.957 675.574 50.9961C674.062 52.5664 672.258 53.3516 670.16 53.3516C668.285 53.3516 666.744 52.8242 665.537 51.7695C664.342 50.7031 663.744 49.3555 663.744 47.7266C663.744 45.7461 664.494 44.2109 665.994 43.1211C667.506 42.0195 669.627 41.4688 672.357 41.4688H675.521V39.9746C675.521 38.8379 675.182 37.9355 674.502 37.2676C673.822 36.5879 672.82 36.248 671.496 36.248C670.336 36.248 669.363 36.541 668.578 37.127C667.793 37.7129 667.4 38.4219 667.4 39.2539H664.131C664.131 38.3047 664.465 37.3906 665.133 36.5117C665.812 35.6211 666.727 34.918 667.875 34.4023C669.035 33.8867 670.307 33.6289 671.689 33.6289C673.881 33.6289 675.598 34.1797 676.84 35.2812C678.082 36.3711 678.727 37.877 678.773 39.7988V48.5527C678.773 50.2988 678.996 51.6875 679.441 52.7188V53H676.031ZM670.635 50.5215C671.654 50.5215 672.621 50.2578 673.535 49.7305C674.449 49.2031 675.111 48.5176 675.521 47.6738V43.7715H672.973C668.988 43.7715 666.996 44.9375 666.996 47.2695C666.996 48.2891 667.336 49.0859 668.016 49.6602C668.695 50.2344 669.568 50.5215 670.635 50.5215Z" fill="white"/>
<path d="M689.812 48.2363L694.242 33.9805H697.723L690.076 55.9355C688.893 59.0996 687.012 60.6816 684.434 60.6816L683.818 60.6289L682.605 60.4004V57.7637L683.484 57.834C684.586 57.834 685.441 57.6113 686.051 57.166C686.672 56.7207 687.182 55.9062 687.58 54.7227L688.301 52.7891L681.516 33.9805H685.066L689.812 48.2363Z" fill="white"/>
<path d="M699.498 43.3145C699.498 41.4512 699.861 39.7754 700.588 38.2871C701.326 36.7988 702.346 35.6504 703.646 34.8418C704.959 34.0332 706.453 33.6289 708.129 33.6289C710.719 33.6289 712.811 34.5254 714.404 36.3184C716.01 38.1113 716.812 40.4961 716.812 43.4727V43.7012C716.812 45.5527 716.455 47.2168 715.74 48.6934C715.037 50.1582 714.023 51.3008 712.699 52.1211C711.387 52.9414 709.875 53.3516 708.164 53.3516C705.586 53.3516 703.494 52.4551 701.889 50.6621C700.295 48.8691 699.498 46.4961 699.498 43.543V43.3145ZM702.768 43.7012C702.768 45.8105 703.254 47.5039 704.227 48.7812C705.211 50.0586 706.523 50.6973 708.164 50.6973C709.816 50.6973 711.129 50.0527 712.102 48.7637C713.074 47.4629 713.561 45.6465 713.561 43.3145C713.561 41.2285 713.062 39.541 712.066 38.252C711.082 36.9512 709.77 36.3008 708.129 36.3008C706.523 36.3008 705.229 36.9395 704.244 38.2168C703.26 39.4941 702.768 41.3223 702.768 43.7012Z" fill="white"/>
<path d="M730.084 36.8984C729.592 36.8164 729.059 36.7754 728.484 36.7754C726.352 36.7754 724.904 37.6836 724.143 39.5V53H720.891V33.9805H724.055L724.107 36.1777C725.174 34.4785 726.686 33.6289 728.643 33.6289C729.275 33.6289 729.756 33.7109 730.084 33.875V36.8984Z" fill="white"/>
<path d="M746.432 29.375V33.9805H749.982V36.4941H746.432V48.2891C746.432 49.0508 746.59 49.625 746.906 50.0117C747.223 50.3867 747.762 50.5742 748.523 50.5742C748.898 50.5742 749.414 50.5039 750.07 50.3633V53C749.215 53.2344 748.383 53.3516 747.574 53.3516C746.121 53.3516 745.025 52.9121 744.287 52.0332C743.549 51.1543 743.18 49.9062 743.18 48.2891V36.4941H739.717V33.9805H743.18V29.375H746.432Z" fill="white"/>
<path d="M757.33 53H754.078V33.9805H757.33V53ZM753.814 28.9355C753.814 28.4082 753.973 27.9629 754.289 27.5996C754.617 27.2363 755.098 27.0547 755.73 27.0547C756.363 27.0547 756.844 27.2363 757.172 27.5996C757.5 27.9629 757.664 28.4082 757.664 28.9355C757.664 29.4629 757.5 29.9023 757.172 30.2539C756.844 30.6055 756.363 30.7812 755.73 30.7812C755.098 30.7812 754.617 30.6055 754.289 30.2539C753.973 29.9023 753.814 29.4629 753.814 28.9355Z" fill="white"/>
<path d="M770.443 53.3516C767.865 53.3516 765.768 52.5078 764.15 50.8203C762.533 49.1211 761.725 46.8535 761.725 44.0176V43.4199C761.725 41.5332 762.082 39.8516 762.797 38.375C763.523 36.8867 764.531 35.7266 765.82 34.8945C767.121 34.0508 768.527 33.6289 770.039 33.6289C772.512 33.6289 774.434 34.4434 775.805 36.0723C777.176 37.7012 777.861 40.0332 777.861 43.0684V44.4219H764.977C765.023 46.2969 765.568 47.8145 766.611 48.9746C767.666 50.123 769.002 50.6973 770.619 50.6973C771.768 50.6973 772.74 50.4629 773.537 49.9941C774.334 49.5254 775.031 48.9043 775.629 48.1309L777.615 49.6777C776.021 52.127 773.631 53.3516 770.443 53.3516ZM770.039 36.3008C768.727 36.3008 767.625 36.7812 766.734 37.7422C765.844 38.6914 765.293 40.0273 765.082 41.75H774.609V41.5039C774.516 39.8516 774.07 38.5742 773.273 37.6719C772.477 36.7578 771.398 36.3008 770.039 36.3008Z" fill="white"/>
<path d="M784.717 33.9805L784.822 36.3711C786.275 34.543 788.174 33.6289 790.518 33.6289C794.537 33.6289 796.564 35.8965 796.6 40.4316V53H793.348V40.4141C793.336 39.043 793.02 38.0293 792.398 37.373C791.789 36.7168 790.834 36.3887 789.533 36.3887C788.479 36.3887 787.553 36.6699 786.756 37.2324C785.959 37.7949 785.338 38.5332 784.893 39.4473V53H781.641V33.9805H784.717Z" fill="white"/>
<path d="M809.396 53.3516C806.818 53.3516 804.721 52.5078 803.104 50.8203C801.486 49.1211 800.678 46.8535 800.678 44.0176V43.4199C800.678 41.5332 801.035 39.8516 801.75 38.375C802.477 36.8867 803.484 35.7266 804.773 34.8945C806.074 34.0508 807.48 33.6289 808.992 33.6289C811.465 33.6289 813.387 34.4434 814.758 36.0723C816.129 37.7012 816.814 40.0332 816.814 43.0684V44.4219H803.93C803.977 46.2969 804.521 47.8145 805.564 48.9746C806.619 50.123 807.955 50.6973 809.572 50.6973C810.721 50.6973 811.693 50.4629 812.49 49.9941C813.287 49.5254 813.984 48.9043 814.582 48.1309L816.568 49.6777C814.975 52.127 812.584 53.3516 809.396 53.3516ZM808.992 36.3008C807.68 36.3008 806.578 36.7812 805.688 37.7422C804.797 38.6914 804.246 40.0273 804.035 41.75H813.562V41.5039C813.469 39.8516 813.023 38.5742 812.227 37.6719C811.43 36.7578 810.352 36.3008 808.992 36.3008Z" fill="white"/>
<path d="M839.877 53H836.607V31.3262L830.051 33.7344V30.7812L839.367 27.2832H839.877V53Z" fill="white"/>
<path d="M860.092 53H856.822V31.3262L850.266 33.7344V30.7812L859.582 27.2832H860.092V53Z" fill="white"/>
<path d="M110.736 90.5879L115.447 75.9805H118.77L111.949 95H109.471L102.58 75.9805H105.902L110.736 90.5879Z" fill="white"/>
<path d="M129.545 95.3516C126.967 95.3516 124.869 94.5078 123.252 92.8203C121.635 91.1211 120.826 88.8535 120.826 86.0176V85.4199C120.826 83.5332 121.184 81.8516 121.898 80.375C122.625 78.8867 123.633 77.7266 124.922 76.8945C126.223 76.0508 127.629 75.6289 129.141 75.6289C131.613 75.6289 133.535 76.4434 134.906 78.0723C136.277 79.7012 136.963 82.0332 136.963 85.0684V86.4219H124.078C124.125 88.2969 124.67 89.8145 125.713 90.9746C126.768 92.123 128.104 92.6973 129.721 92.6973C130.869 92.6973 131.842 92.4629 132.639 91.9941C133.436 91.5254 134.133 90.9043 134.73 90.1309L136.717 91.6777C135.123 94.127 132.732 95.3516 129.545 95.3516ZM129.141 78.3008C127.828 78.3008 126.727 78.7812 125.836 79.7422C124.945 80.6914 124.395 82.0273 124.184 83.75H133.711V83.5039C133.617 81.8516 133.172 80.5742 132.375 79.6719C131.578 78.7578 130.5 78.3008 129.141 78.3008Z" fill="white"/>
<path d="M148.371 92.6973C149.531 92.6973 150.545 92.3457 151.412 91.6426C152.279 90.9395 152.76 90.0605 152.854 89.0059H155.93C155.871 90.0957 155.496 91.1328 154.805 92.1172C154.113 93.1016 153.188 93.8867 152.027 94.4727C150.879 95.0586 149.66 95.3516 148.371 95.3516C145.781 95.3516 143.719 94.4902 142.184 92.7676C140.66 91.0332 139.898 88.666 139.898 85.666V85.1211C139.898 83.2695 140.238 81.623 140.918 80.1816C141.598 78.7402 142.57 77.6211 143.836 76.8242C145.113 76.0273 146.619 75.6289 148.354 75.6289C150.486 75.6289 152.256 76.2676 153.662 77.5449C155.08 78.8223 155.836 80.4805 155.93 82.5195H152.854C152.76 81.2891 152.291 80.2812 151.447 79.4961C150.615 78.6992 149.584 78.3008 148.354 78.3008C146.701 78.3008 145.418 78.8984 144.504 80.0938C143.602 81.2773 143.15 82.9941 143.15 85.2441V85.8594C143.15 88.0508 143.602 89.7383 144.504 90.9219C145.406 92.1055 146.695 92.6973 148.371 92.6973Z" fill="white"/>
<path d="M167.479 95.3516C164.9 95.3516 162.803 94.5078 161.186 92.8203C159.568 91.1211 158.76 88.8535 158.76 86.0176V85.4199C158.76 83.5332 159.117 81.8516 159.832 80.375C160.559 78.8867 161.566 77.7266 162.855 76.8945C164.156 76.0508 165.562 75.6289 167.074 75.6289C169.547 75.6289 171.469 76.4434 172.84 78.0723C174.211 79.7012 174.896 82.0332 174.896 85.0684V86.4219H162.012C162.059 88.2969 162.604 89.8145 163.646 90.9746C164.701 92.123 166.037 92.6973 167.654 92.6973C168.803 92.6973 169.775 92.4629 170.572 91.9941C171.369 91.5254 172.066 90.9043 172.664 90.1309L174.65 91.6777C173.057 94.127 170.666 95.3516 167.479 95.3516ZM167.074 78.3008C165.762 78.3008 164.66 78.7812 163.77 79.7422C162.879 80.6914 162.328 82.0273 162.117 83.75H171.645V83.5039C171.551 81.8516 171.105 80.5742 170.309 79.6719C169.512 78.7578 168.434 78.3008 167.074 78.3008Z" fill="white"/>
<path d="M189.75 89.9551C189.75 89.0762 189.416 88.3965 188.748 87.916C188.092 87.4238 186.938 87.002 185.285 86.6504C183.645 86.2988 182.338 85.877 181.365 85.3848C180.404 84.8926 179.689 84.3066 179.221 83.627C178.764 82.9473 178.535 82.1387 178.535 81.2012C178.535 79.6426 179.191 78.3242 180.504 77.2461C181.828 76.168 183.516 75.6289 185.566 75.6289C187.723 75.6289 189.469 76.1855 190.805 77.2988C192.152 78.4121 192.826 79.8359 192.826 81.5703H189.557C189.557 80.6797 189.176 79.9121 188.414 79.2676C187.664 78.623 186.715 78.3008 185.566 78.3008C184.383 78.3008 183.457 78.5586 182.789 79.0742C182.121 79.5898 181.787 80.2637 181.787 81.0957C181.787 81.8809 182.098 82.4727 182.719 82.8711C183.34 83.2695 184.459 83.6504 186.076 84.0137C187.705 84.377 189.023 84.8105 190.031 85.3145C191.039 85.8184 191.783 86.4277 192.264 87.1426C192.756 87.8457 193.002 88.707 193.002 89.7266C193.002 91.4258 192.322 92.791 190.963 93.8223C189.604 94.8418 187.84 95.3516 185.672 95.3516C184.148 95.3516 182.801 95.082 181.629 94.543C180.457 94.0039 179.537 93.2539 178.869 92.293C178.213 91.3203 177.885 90.2715 177.885 89.1465H181.137C181.195 90.2363 181.629 91.1035 182.438 91.748C183.258 92.3809 184.336 92.6973 185.672 92.6973C186.902 92.6973 187.887 92.4512 188.625 91.959C189.375 91.4551 189.75 90.7871 189.75 89.9551Z" fill="white"/>
<path d="M209.701 95H206.449V68H209.701V95Z" fill="white"/>
<path d="M214.061 85.3145C214.061 83.4512 214.424 81.7754 215.15 80.2871C215.889 78.7988 216.908 77.6504 218.209 76.8418C219.521 76.0332 221.016 75.6289 222.691 75.6289C225.281 75.6289 227.373 76.5254 228.967 78.3184C230.572 80.1113 231.375 82.4961 231.375 85.4727V85.7012C231.375 87.5527 231.018 89.2168 230.303 90.6934C229.6 92.1582 228.586 93.3008 227.262 94.1211C225.949 94.9414 224.438 95.3516 222.727 95.3516C220.148 95.3516 218.057 94.4551 216.451 92.6621C214.857 90.8691 214.061 88.4961 214.061 85.543V85.3145ZM217.33 85.7012C217.33 87.8105 217.816 89.5039 218.789 90.7812C219.773 92.0586 221.086 92.6973 222.727 92.6973C224.379 92.6973 225.691 92.0527 226.664 90.7637C227.637 89.4629 228.123 87.6465 228.123 85.3145C228.123 83.2285 227.625 81.541 226.629 80.252C225.645 78.9512 224.332 78.3008 222.691 78.3008C221.086 78.3008 219.791 78.9395 218.807 80.2168C217.822 81.4941 217.33 83.3223 217.33 85.7012Z" fill="white"/>
<path d="M243.592 85.332C243.592 82.3438 244.277 79.9824 245.648 78.248C247.02 76.502 248.859 75.6289 251.168 75.6289C253.418 75.6289 255.193 76.3848 256.494 77.8965L256.635 75.9805H259.623V102.312H256.371V93.2422C255.059 94.6484 253.312 95.3516 251.133 95.3516C248.836 95.3516 247.002 94.4609 245.631 92.6797C244.271 90.8867 243.592 88.5137 243.592 85.5605V85.332ZM246.844 85.7012C246.844 87.8809 247.301 89.5918 248.215 90.834C249.141 92.0762 250.383 92.6973 251.941 92.6973C253.875 92.6973 255.352 91.8418 256.371 90.1309V80.8145C255.34 79.1387 253.875 78.3008 251.977 78.3008C250.406 78.3008 249.158 78.9277 248.232 80.1816C247.307 81.4238 246.844 83.2637 246.844 85.7012Z" fill="white"/>
<path d="M276.586 93.1191C275.32 94.6074 273.463 95.3516 271.014 95.3516C268.986 95.3516 267.439 94.7656 266.373 93.5938C265.318 92.4102 264.785 90.6641 264.773 88.3555V75.9805H268.025V88.2676C268.025 91.1504 269.197 92.5918 271.541 92.5918C274.025 92.5918 275.678 91.666 276.498 89.8145V75.9805H279.75V95H276.656L276.586 93.1191Z" fill="white"/>
<path d="M292.6 95.3516C290.021 95.3516 287.924 94.5078 286.307 92.8203C284.689 91.1211 283.881 88.8535 283.881 86.0176V85.4199C283.881 83.5332 284.238 81.8516 284.953 80.375C285.68 78.8867 286.688 77.7266 287.977 76.8945C289.277 76.0508 290.684 75.6289 292.195 75.6289C294.668 75.6289 296.59 76.4434 297.961 78.0723C299.332 79.7012 300.018 82.0332 300.018 85.0684V86.4219H287.133C287.18 88.2969 287.725 89.8145 288.768 90.9746C289.822 92.123 291.158 92.6973 292.775 92.6973C293.924 92.6973 294.896 92.4629 295.693 91.9941C296.49 91.5254 297.188 90.9043 297.785 90.1309L299.771 91.6777C298.178 94.127 295.787 95.3516 292.6 95.3516ZM292.195 78.3008C290.883 78.3008 289.781 78.7812 288.891 79.7422C288 80.6914 287.449 82.0273 287.238 83.75H296.766V83.5039C296.672 81.8516 296.227 80.5742 295.43 79.6719C294.633 78.7578 293.555 78.3008 292.195 78.3008Z" fill="white"/>
<path d="M317.139 71.375V75.9805H320.689V78.4941H317.139V90.2891C317.139 91.0508 317.297 91.625 317.613 92.0117C317.93 92.3867 318.469 92.5742 319.23 92.5742C319.605 92.5742 320.121 92.5039 320.777 92.3633V95C319.922 95.2344 319.09 95.3516 318.281 95.3516C316.828 95.3516 315.732 94.9121 314.994 94.0332C314.256 93.1543 313.887 91.9062 313.887 90.2891V78.4941H310.424V75.9805H313.887V71.375H317.139Z" fill="white"/>
<path d="M328.037 95H324.785V75.9805H328.037V95ZM324.521 70.9355C324.521 70.4082 324.68 69.9629 324.996 69.5996C325.324 69.2363 325.805 69.0547 326.438 69.0547C327.07 69.0547 327.551 69.2363 327.879 69.5996C328.207 69.9629 328.371 70.4082 328.371 70.9355C328.371 71.4629 328.207 71.9023 327.879 72.2539C327.551 72.6055 327.07 72.7812 326.438 72.7812C325.805 72.7812 325.324 72.6055 324.996 72.2539C324.68 71.9023 324.521 71.4629 324.521 70.9355Z" fill="white"/>
<path d="M341.15 95.3516C338.572 95.3516 336.475 94.5078 334.857 92.8203C333.24 91.1211 332.432 88.8535 332.432 86.0176V85.4199C332.432 83.5332 332.789 81.8516 333.504 80.375C334.23 78.8867 335.238 77.7266 336.527 76.8945C337.828 76.0508 339.234 75.6289 340.746 75.6289C343.219 75.6289 345.141 76.4434 346.512 78.0723C347.883 79.7012 348.568 82.0332 348.568 85.0684V86.4219H335.684C335.73 88.2969 336.275 89.8145 337.318 90.9746C338.373 92.123 339.709 92.6973 341.326 92.6973C342.475 92.6973 343.447 92.4629 344.244 91.9941C345.041 91.5254 345.738 90.9043 346.336 90.1309L348.322 91.6777C346.729 94.127 344.338 95.3516 341.15 95.3516ZM340.746 78.3008C339.434 78.3008 338.332 78.7812 337.441 79.7422C336.551 80.6914 336 82.0273 335.789 83.75H345.316V83.5039C345.223 81.8516 344.777 80.5742 343.98 79.6719C343.184 78.7578 342.105 78.3008 340.746 78.3008Z" fill="white"/>
<path d="M355.424 75.9805L355.529 78.3711C356.982 76.543 358.881 75.6289 361.225 75.6289C365.244 75.6289 367.271 77.8965 367.307 82.4316V95H364.055V82.4141C364.043 81.043 363.727 80.0293 363.105 79.373C362.496 78.7168 361.541 78.3887 360.24 78.3887C359.186 78.3887 358.26 78.6699 357.463 79.2324C356.666 79.7949 356.045 80.5332 355.6 81.4473V95H352.348V75.9805H355.424Z" fill="white"/>
<path d="M380.104 95.3516C377.525 95.3516 375.428 94.5078 373.811 92.8203C372.193 91.1211 371.385 88.8535 371.385 86.0176V85.4199C371.385 83.5332 371.742 81.8516 372.457 80.375C373.184 78.8867 374.191 77.7266 375.48 76.8945C376.781 76.0508 378.188 75.6289 379.699 75.6289C382.172 75.6289 384.094 76.4434 385.465 78.0723C386.836 79.7012 387.521 82.0332 387.521 85.0684V86.4219H374.637C374.684 88.2969 375.229 89.8145 376.271 90.9746C377.326 92.123 378.662 92.6973 380.279 92.6973C381.428 92.6973 382.4 92.4629 383.197 91.9941C383.994 91.5254 384.691 90.9043 385.289 90.1309L387.275 91.6777C385.682 94.127 383.291 95.3516 380.104 95.3516ZM379.699 78.3008C378.387 78.3008 377.285 78.7812 376.395 79.7422C375.504 80.6914 374.953 82.0273 374.742 83.75H384.27V83.5039C384.176 81.8516 383.73 80.5742 382.934 79.6719C382.137 78.7578 381.059 78.3008 379.699 78.3008Z" fill="white"/>
<path d="M403.764 95H400.512V68H403.764V95Z" fill="white"/>
<path d="M420.727 95C420.539 94.625 420.387 93.957 420.27 92.9961C418.758 94.5664 416.953 95.3516 414.855 95.3516C412.98 95.3516 411.439 94.8242 410.232 93.7695C409.037 92.7031 408.439 91.3555 408.439 89.7266C408.439 87.7461 409.189 86.2109 410.689 85.1211C412.201 84.0195 414.322 83.4688 417.053 83.4688H420.217V81.9746C420.217 80.8379 419.877 79.9355 419.197 79.2676C418.518 78.5879 417.516 78.248 416.191 78.248C415.031 78.248 414.059 78.541 413.273 79.127C412.488 79.7129 412.096 80.4219 412.096 81.2539H408.826C408.826 80.3047 409.16 79.3906 409.828 78.5117C410.508 77.6211 411.422 76.918 412.57 76.4023C413.73 75.8867 415.002 75.6289 416.385 75.6289C418.576 75.6289 420.293 76.1797 421.535 77.2812C422.777 78.3711 423.422 79.877 423.469 81.7988V90.5527C423.469 92.2988 423.691 93.6875 424.137 94.7188V95H420.727ZM415.33 92.5215C416.35 92.5215 417.316 92.2578 418.23 91.7305C419.145 91.2031 419.807 90.5176 420.217 89.6738V85.7715H417.668C413.684 85.7715 411.691 86.9375 411.691 89.2695C411.691 90.2891 412.031 91.0859 412.711 91.6602C413.391 92.2344 414.264 92.5215 415.33 92.5215Z" fill="white"/>
<path d="M440.555 75.9805L440.643 78.0898C442.037 76.4492 443.918 75.6289 446.285 75.6289C448.945 75.6289 450.756 76.6484 451.717 78.6875C452.35 77.7734 453.17 77.0352 454.178 76.4727C455.197 75.9102 456.398 75.6289 457.781 75.6289C461.953 75.6289 464.074 77.8379 464.145 82.2559V95H460.893V82.4492C460.893 81.0898 460.582 80.0762 459.961 79.4082C459.34 78.7285 458.297 78.3887 456.832 78.3887C455.625 78.3887 454.623 78.752 453.826 79.4785C453.029 80.1934 452.566 81.1602 452.438 82.3789V95H449.168V82.5371C449.168 79.7715 447.814 78.3887 445.107 78.3887C442.975 78.3887 441.516 79.2969 440.73 81.1133V95H437.479V75.9805H440.555Z" fill="white"/>
<path d="M476.959 95.3516C474.381 95.3516 472.283 94.5078 470.666 92.8203C469.049 91.1211 468.24 88.8535 468.24 86.0176V85.4199C468.24 83.5332 468.598 81.8516 469.312 80.375C470.039 78.8867 471.047 77.7266 472.336 76.8945C473.637 76.0508 475.043 75.6289 476.555 75.6289C479.027 75.6289 480.949 76.4434 482.32 78.0723C483.691 79.7012 484.377 82.0332 484.377 85.0684V86.4219H471.492C471.539 88.2969 472.084 89.8145 473.127 90.9746C474.182 92.123 475.518 92.6973 477.135 92.6973C478.283 92.6973 479.256 92.4629 480.053 91.9941C480.85 91.5254 481.547 90.9043 482.145 90.1309L484.131 91.6777C482.537 94.127 480.146 95.3516 476.959 95.3516ZM476.555 78.3008C475.242 78.3008 474.141 78.7812 473.25 79.7422C472.359 80.6914 471.809 82.0273 471.598 83.75H481.125V83.5039C481.031 81.8516 480.586 80.5742 479.789 79.6719C478.992 78.7578 477.914 78.3008 476.555 78.3008Z" fill="white"/>
<path d="M491.232 75.9805L491.338 78.3711C492.791 76.543 494.689 75.6289 497.033 75.6289C501.053 75.6289 503.08 77.8965 503.115 82.4316V95H499.863V82.4141C499.852 81.043 499.535 80.0293 498.914 79.373C498.305 78.7168 497.35 78.3887 496.049 78.3887C494.994 78.3887 494.068 78.6699 493.271 79.2324C492.475 79.7949 491.854 80.5332 491.408 81.4473V95H488.156V75.9805H491.232Z" fill="white"/>
<path d="M507.158 85.3145C507.158 83.4512 507.521 81.7754 508.248 80.2871C508.986 78.7988 510.006 77.6504 511.307 76.8418C512.619 76.0332 514.113 75.6289 515.789 75.6289C518.379 75.6289 520.471 76.5254 522.064 78.3184C523.67 80.1113 524.473 82.4961 524.473 85.4727V85.7012C524.473 87.5527 524.115 89.2168 523.4 90.6934C522.697 92.1582 521.684 93.3008 520.359 94.1211C519.047 94.9414 517.535 95.3516 515.824 95.3516C513.246 95.3516 511.154 94.4551 509.549 92.6621C507.955 90.8691 507.158 88.4961 507.158 85.543V85.3145ZM510.428 85.7012C510.428 87.8105 510.914 89.5039 511.887 90.7812C512.871 92.0586 514.184 92.6973 515.824 92.6973C517.477 92.6973 518.789 92.0527 519.762 90.7637C520.734 89.4629 521.221 87.6465 521.221 85.3145C521.221 83.2285 520.723 81.541 519.727 80.252C518.742 78.9512 517.43 78.3008 515.789 78.3008C514.184 78.3008 512.889 78.9395 511.904 80.2168C510.92 81.4941 510.428 83.3223 510.428 85.7012Z" fill="white"/>
<path d="M537.744 78.8984C537.252 78.8164 536.719 78.7754 536.145 78.7754C534.012 78.7754 532.564 79.6836 531.803 81.5V95H528.551V75.9805H531.715L531.768 78.1777C532.834 76.4785 534.346 75.6289 536.303 75.6289C536.936 75.6289 537.416 75.7109 537.744 75.875V78.8984Z" fill="white"/>
<path d="M538.641 93.2949C538.641 92.7324 538.805 92.2637 539.133 91.8887C539.473 91.5137 539.977 91.3262 540.645 91.3262C541.312 91.3262 541.816 91.5137 542.156 91.8887C542.508 92.2637 542.684 92.7324 542.684 93.2949C542.684 93.834 542.508 94.2852 542.156 94.6484C541.816 95.0117 541.312 95.1934 540.645 95.1934C539.977 95.1934 539.473 95.0117 539.133 94.6484C538.805 94.2852 538.641 93.834 538.641 93.2949Z" fill="white"/>
<path d="M564.867 83.0469C564.855 84.2891 564.727 85.2852 564.48 86.0352C564.246 86.7734 563.848 87.4883 563.285 88.1797C562.723 88.8711 561.902 89.7852 560.824 90.9219C559.746 92.0469 559.143 93.1895 559.014 94.3496L558.979 95C558.979 96.2773 559.318 97.25 559.998 97.918C560.678 98.5977 561.656 98.9375 562.934 98.9375C564.105 98.9375 565.055 98.6035 565.781 97.9355C566.52 97.2793 566.889 96.418 566.889 95.3516H570.141C570.117 97.2383 569.443 98.7793 568.119 99.9746C566.807 101.17 565.078 101.768 562.934 101.768C560.637 101.768 558.861 101.176 557.607 99.9922C556.354 98.8203 555.727 97.1855 555.727 95.0879C555.727 93.0605 556.664 91.0215 558.539 88.9707L560.455 86.9844C561.229 86.0703 561.615 84.7578 561.615 83.0469H564.867ZM565.008 77.4746C565.008 78.002 564.844 78.4473 564.516 78.8105C564.199 79.1738 563.725 79.3555 563.092 79.3555C562.459 79.3555 561.979 79.1738 561.65 78.8105C561.322 78.4473 561.158 78.002 561.158 77.4746C561.158 76.959 561.322 76.5254 561.65 76.1738C561.979 75.8223 562.459 75.6465 563.092 75.6465C563.725 75.6465 564.199 75.8223 564.516 76.1738C564.844 76.5254 565.008 76.959 565.008 77.4746Z" fill="white"/>
<path d="M593.379 86.8789C593.062 89.5859 592.061 91.6777 590.373 93.1543C588.697 94.6191 586.465 95.3516 583.676 95.3516C580.652 95.3516 578.227 94.2676 576.398 92.0996C574.582 89.9316 573.674 87.0312 573.674 83.3984V80.9375C573.674 78.5586 574.096 76.4668 574.939 74.6621C575.795 72.8574 577.002 71.4746 578.561 70.5137C580.119 69.541 581.924 69.0547 583.975 69.0547C586.693 69.0547 588.873 69.8164 590.514 71.3398C592.154 72.8516 593.109 74.9492 593.379 77.6328H589.986C589.693 75.5938 589.055 74.1172 588.07 73.2031C587.098 72.2891 585.732 71.832 583.975 71.832C581.818 71.832 580.125 72.6289 578.895 74.2227C577.676 75.8164 577.066 78.084 577.066 81.0254V83.5039C577.066 86.2812 577.646 88.4902 578.807 90.1309C579.967 91.7715 581.59 92.5918 583.676 92.5918C585.551 92.5918 586.986 92.1699 587.982 91.3262C588.99 90.4707 589.658 88.9883 589.986 86.8789H593.379Z" fill="white"/>
<path d="M609.234 93.1191C607.969 94.6074 606.111 95.3516 603.662 95.3516C601.635 95.3516 600.088 94.7656 599.021 93.5938C597.967 92.4102 597.434 90.6641 597.422 88.3555V75.9805H600.674V88.2676C600.674 91.1504 601.846 92.5918 604.189 92.5918C606.674 92.5918 608.326 91.666 609.146 89.8145V75.9805H612.398V95H609.305L609.234 93.1191Z" fill="white"/>
<path d="M629.098 95C628.91 94.625 628.758 93.957 628.641 92.9961C627.129 94.5664 625.324 95.3516 623.227 95.3516C621.352 95.3516 619.811 94.8242 618.604 93.7695C617.408 92.7031 616.811 91.3555 616.811 89.7266C616.811 87.7461 617.561 86.2109 619.061 85.1211C620.572 84.0195 622.693 83.4688 625.424 83.4688H628.588V81.9746C628.588 80.8379 628.248 79.9355 627.568 79.2676C626.889 78.5879 625.887 78.248 624.562 78.248C623.402 78.248 622.43 78.541 621.645 79.127C620.859 79.7129 620.467 80.4219 620.467 81.2539H617.197C617.197 80.3047 617.531 79.3906 618.199 78.5117C618.879 77.6211 619.793 76.918 620.941 76.4023C622.102 75.8867 623.373 75.6289 624.756 75.6289C626.947 75.6289 628.664 76.1797 629.906 77.2812C631.148 78.3711 631.793 79.877 631.84 81.7988V90.5527C631.84 92.2988 632.062 93.6875 632.508 94.7188V95H629.098ZM623.701 92.5215C624.721 92.5215 625.688 92.2578 626.602 91.7305C627.516 91.2031 628.178 90.5176 628.588 89.6738V85.7715H626.039C622.055 85.7715 620.062 86.9375 620.062 89.2695C620.062 90.2891 620.402 91.0859 621.082 91.6602C621.762 92.2344 622.635 92.5215 623.701 92.5215ZM626.707 68H630.645L625.934 73.168H623.314L626.707 68Z" fill="white"/>
<path d="M640.014 75.9805L640.119 78.3711C641.572 76.543 643.471 75.6289 645.814 75.6289C649.834 75.6289 651.861 77.8965 651.896 82.4316V95H648.645V82.4141C648.633 81.043 648.316 80.0293 647.695 79.373C647.086 78.7168 646.131 78.3887 644.83 78.3887C643.775 78.3887 642.85 78.6699 642.053 79.2324C641.256 79.7949 640.635 80.5332 640.189 81.4473V95H636.938V75.9805H640.014Z" fill="white"/>
<path d="M661.213 71.375V75.9805H664.764V78.4941H661.213V90.2891C661.213 91.0508 661.371 91.625 661.688 92.0117C662.004 92.3867 662.543 92.5742 663.305 92.5742C663.68 92.5742 664.195 92.5039 664.852 92.3633V95C663.996 95.2344 663.164 95.3516 662.355 95.3516C660.902 95.3516 659.807 94.9121 659.068 94.0332C658.33 93.1543 657.961 91.9062 657.961 90.2891V78.4941H654.498V75.9805H657.961V71.375H661.213Z" fill="white"/>
<path d="M667.365 85.3145C667.365 83.4512 667.729 81.7754 668.455 80.2871C669.193 78.7988 670.213 77.6504 671.514 76.8418C672.826 76.0332 674.32 75.6289 675.996 75.6289C678.586 75.6289 680.678 76.5254 682.271 78.3184C683.877 80.1113 684.68 82.4961 684.68 85.4727V85.7012C684.68 87.5527 684.322 89.2168 683.607 90.6934C682.904 92.1582 681.891 93.3008 680.566 94.1211C679.254 94.9414 677.742 95.3516 676.031 95.3516C673.453 95.3516 671.361 94.4551 669.756 92.6621C668.162 90.8691 667.365 88.4961 667.365 85.543V85.3145ZM670.635 85.7012C670.635 87.8105 671.121 89.5039 672.094 90.7812C673.078 92.0586 674.391 92.6973 676.031 92.6973C677.684 92.6973 678.996 92.0527 679.969 90.7637C680.941 89.4629 681.428 87.6465 681.428 85.3145C681.428 83.2285 680.93 81.541 679.934 80.252C678.949 78.9512 677.637 78.3008 675.996 78.3008C674.391 78.3008 673.096 78.9395 672.111 80.2168C671.127 81.4941 670.635 83.3223 670.635 85.7012Z" fill="white"/>
<path d="M702.1 71.375V75.9805H705.65V78.4941H702.1V90.2891C702.1 91.0508 702.258 91.625 702.574 92.0117C702.891 92.3867 703.43 92.5742 704.191 92.5742C704.566 92.5742 705.082 92.5039 705.738 92.3633V95C704.883 95.2344 704.051 95.3516 703.242 95.3516C701.789 95.3516 700.693 94.9121 699.955 94.0332C699.217 93.1543 698.848 91.9062 698.848 90.2891V78.4941H695.385V75.9805H698.848V71.375H702.1Z" fill="white"/>
<path d="M712.998 95H709.746V75.9805H712.998V95ZM709.482 70.9355C709.482 70.4082 709.641 69.9629 709.957 69.5996C710.285 69.2363 710.766 69.0547 711.398 69.0547C712.031 69.0547 712.512 69.2363 712.84 69.5996C713.168 69.9629 713.332 70.4082 713.332 70.9355C713.332 71.4629 713.168 71.9023 712.84 72.2539C712.512 72.6055 712.031 72.7812 711.398 72.7812C710.766 72.7812 710.285 72.6055 709.957 72.2539C709.641 71.9023 709.482 71.4629 709.482 70.9355Z" fill="white"/>
<path d="M726.111 95.3516C723.533 95.3516 721.436 94.5078 719.818 92.8203C718.201 91.1211 717.393 88.8535 717.393 86.0176V85.4199C717.393 83.5332 717.75 81.8516 718.465 80.375C719.191 78.8867 720.199 77.7266 721.488 76.8945C722.789 76.0508 724.195 75.6289 725.707 75.6289C728.18 75.6289 730.102 76.4434 731.473 78.0723C732.844 79.7012 733.529 82.0332 733.529 85.0684V86.4219H720.645C720.691 88.2969 721.236 89.8145 722.279 90.9746C723.334 92.123 724.67 92.6973 726.287 92.6973C727.436 92.6973 728.408 92.4629 729.205 91.9941C730.002 91.5254 730.699 90.9043 731.297 90.1309L733.283 91.6777C731.689 94.127 729.299 95.3516 726.111 95.3516ZM725.707 78.3008C724.395 78.3008 723.293 78.7812 722.402 79.7422C721.512 80.6914 720.961 82.0273 720.75 83.75H730.277V83.5039C730.184 81.8516 729.738 80.5742 728.941 79.6719C728.145 78.7578 727.066 78.3008 725.707 78.3008Z" fill="white"/>
<path d="M740.385 75.9805L740.49 78.3711C741.943 76.543 743.842 75.6289 746.186 75.6289C750.205 75.6289 752.232 77.8965 752.268 82.4316V95H749.016V82.4141C749.004 81.043 748.688 80.0293 748.066 79.373C747.457 78.7168 746.502 78.3887 745.201 78.3887C744.146 78.3887 743.221 78.6699 742.424 79.2324C741.627 79.7949 741.006 80.5332 740.561 81.4473V95H737.309V75.9805H740.385Z" fill="white"/>
<path d="M765.064 95.3516C762.486 95.3516 760.389 94.5078 758.771 92.8203C757.154 91.1211 756.346 88.8535 756.346 86.0176V85.4199C756.346 83.5332 756.703 81.8516 757.418 80.375C758.145 78.8867 759.152 77.7266 760.441 76.8945C761.742 76.0508 763.148 75.6289 764.66 75.6289C767.133 75.6289 769.055 76.4434 770.426 78.0723C771.797 79.7012 772.482 82.0332 772.482 85.0684V86.4219H759.598C759.645 88.2969 760.189 89.8145 761.232 90.9746C762.287 92.123 763.623 92.6973 765.24 92.6973C766.389 92.6973 767.361 92.4629 768.158 91.9941C768.955 91.5254 769.652 90.9043 770.25 90.1309L772.236 91.6777C770.643 94.127 768.252 95.3516 765.064 95.3516ZM764.66 78.3008C763.348 78.3008 762.246 78.7812 761.355 79.7422C760.465 80.6914 759.914 82.0273 759.703 83.75H769.23V83.5039C769.137 81.8516 768.691 80.5742 767.895 79.6719C767.098 78.7578 766.02 78.3008 764.66 78.3008Z" fill="white"/>
<path d="M788.725 95H785.473V68H788.725V95Z" fill="white"/>
<path d="M805.688 95C805.5 94.625 805.348 93.957 805.23 92.9961C803.719 94.5664 801.914 95.3516 799.816 95.3516C797.941 95.3516 796.4 94.8242 795.193 93.7695C793.998 92.7031 793.4 91.3555 793.4 89.7266C793.4 87.7461 794.15 86.2109 795.65 85.1211C797.162 84.0195 799.283 83.4688 802.014 83.4688H805.178V81.9746C805.178 80.8379 804.838 79.9355 804.158 79.2676C803.479 78.5879 802.477 78.248 801.152 78.248C799.992 78.248 799.02 78.541 798.234 79.127C797.449 79.7129 797.057 80.4219 797.057 81.2539H793.787C793.787 80.3047 794.121 79.3906 794.789 78.5117C795.469 77.6211 796.383 76.918 797.531 76.4023C798.691 75.8867 799.963 75.6289 801.346 75.6289C803.537 75.6289 805.254 76.1797 806.496 77.2812C807.738 78.3711 808.383 79.877 808.43 81.7988V90.5527C808.43 92.2988 808.652 93.6875 809.098 94.7188V95H805.688ZM800.291 92.5215C801.311 92.5215 802.277 92.2578 803.191 91.7305C804.105 91.2031 804.768 90.5176 805.178 89.6738V85.7715H802.629C798.645 85.7715 796.652 86.9375 796.652 89.2695C796.652 90.2891 796.992 91.0859 797.672 91.6602C798.352 92.2344 799.225 92.5215 800.291 92.5215Z" fill="white"/>
<path d="M107.52 117.98L107.607 120.09C109.002 118.449 110.883 117.629 113.25 117.629C115.91 117.629 117.721 118.648 118.682 120.688C119.314 119.773 120.135 119.035 121.143 118.473C122.162 117.91 123.363 117.629 124.746 117.629C128.918 117.629 131.039 119.838 131.109 124.256V137H127.857V124.449C127.857 123.09 127.547 122.076 126.926 121.408C126.305 120.729 125.262 120.389 123.797 120.389C122.59 120.389 121.588 120.752 120.791 121.479C119.994 122.193 119.531 123.16 119.402 124.379V137H116.133V124.537C116.133 121.771 114.779 120.389 112.072 120.389C109.939 120.389 108.48 121.297 107.695 123.113V137H104.443V117.98H107.52Z" fill="white"/>
<path d="M147.773 137C147.586 136.625 147.434 135.957 147.316 134.996C145.805 136.566 144 137.352 141.902 137.352C140.027 137.352 138.486 136.824 137.279 135.77C136.084 134.703 135.486 133.355 135.486 131.727C135.486 129.746 136.236 128.211 137.736 127.121C139.248 126.02 141.369 125.469 144.1 125.469H147.264V123.975C147.264 122.838 146.924 121.936 146.244 121.268C145.564 120.588 144.562 120.248 143.238 120.248C142.078 120.248 141.105 120.541 140.32 121.127C139.535 121.713 139.143 122.422 139.143 123.254H135.873C135.873 122.305 136.207 121.391 136.875 120.512C137.555 119.621 138.469 118.918 139.617 118.402C140.777 117.887 142.049 117.629 143.432 117.629C145.623 117.629 147.34 118.18 148.582 119.281C149.824 120.371 150.469 121.877 150.516 123.799V132.553C150.516 134.299 150.738 135.688 151.184 136.719V137H147.773ZM142.377 134.521C143.396 134.521 144.363 134.258 145.277 133.73C146.191 133.203 146.854 132.518 147.264 131.674V127.771H144.715C140.73 127.771 138.738 128.938 138.738 131.27C138.738 132.289 139.078 133.086 139.758 133.66C140.438 134.234 141.311 134.521 142.377 134.521Z" fill="white"/>
<path d="M161.555 132.236L165.984 117.98H169.465L161.818 139.936C160.635 143.1 158.754 144.682 156.176 144.682L155.561 144.629L154.348 144.4V141.764L155.227 141.834C156.328 141.834 157.184 141.611 157.793 141.166C158.414 140.721 158.924 139.906 159.322 138.723L160.043 136.789L153.258 117.98H156.809L161.555 132.236Z" fill="white"/>
<path d="M171.24 127.314C171.24 125.451 171.604 123.775 172.33 122.287C173.068 120.799 174.088 119.65 175.389 118.842C176.701 118.033 178.195 117.629 179.871 117.629C182.461 117.629 184.553 118.525 186.146 120.318C187.752 122.111 188.555 124.496 188.555 127.473V127.701C188.555 129.553 188.197 131.217 187.482 132.693C186.779 134.158 185.766 135.301 184.441 136.121C183.129 136.941 181.617 137.352 179.906 137.352C177.328 137.352 175.236 136.455 173.631 134.662C172.037 132.869 171.24 130.496 171.24 127.543V127.314ZM174.51 127.701C174.51 129.811 174.996 131.504 175.969 132.781C176.953 134.059 178.266 134.697 179.906 134.697C181.559 134.697 182.871 134.053 183.844 132.764C184.816 131.463 185.303 129.646 185.303 127.314C185.303 125.229 184.805 123.541 183.809 122.252C182.824 120.951 181.512 120.301 179.871 120.301C178.266 120.301 176.971 120.939 175.986 122.217C175.002 123.494 174.51 125.322 174.51 127.701Z" fill="white"/>
<path d="M201.826 120.898C201.334 120.816 200.801 120.775 200.227 120.775C198.094 120.775 196.646 121.684 195.885 123.5V137H192.633V117.98H195.797L195.85 120.178C196.916 118.479 198.428 117.629 200.385 117.629C201.018 117.629 201.498 117.711 201.826 117.875V120.898Z" fill="white"/>
<path d="M208.646 129.793C208.67 128.398 208.828 127.297 209.121 126.488C209.414 125.68 210.012 124.783 210.914 123.799L213.217 121.426C214.201 120.312 214.693 119.117 214.693 117.84C214.693 116.609 214.371 115.648 213.727 114.957C213.082 114.254 212.145 113.902 210.914 113.902C209.719 113.902 208.758 114.219 208.031 114.852C207.305 115.484 206.941 116.334 206.941 117.4H203.689C203.713 115.502 204.387 113.973 205.711 112.812C207.047 111.641 208.781 111.055 210.914 111.055C213.129 111.055 214.852 111.652 216.082 112.848C217.324 114.031 217.945 115.66 217.945 117.734C217.945 119.785 216.996 121.807 215.098 123.799L213.182 125.697C212.326 126.646 211.898 128.012 211.898 129.793H208.646ZM208.506 135.365C208.506 134.838 208.664 134.398 208.98 134.047C209.309 133.684 209.789 133.502 210.422 133.502C211.055 133.502 211.535 133.684 211.863 134.047C212.191 134.398 212.355 134.838 212.355 135.365C212.355 135.893 212.191 136.332 211.863 136.684C211.535 137.023 211.055 137.193 210.422 137.193C209.789 137.193 209.309 137.023 208.98 136.684C208.664 136.332 208.506 135.893 208.506 135.365Z" fill="white"/>
</g>
</g>
</g>
</svg>
