<svg viewBox="0 0 652 268" fill="none" xmlns="http://www.w3.org/2000/svg">
<g id="0120248">
<g id="Group">
<g id="Group 570">
<g id="Group_2">
<path id="Vector" d="M27.5669 43.1164C27.7225 42.1827 28.3228 41.1045 29.3677 39.8818C30.4125 38.659 31.702 38.0365 33.2359 38.0143C34.014 38.0143 34.7254 38.2144 35.3702 38.6146C36.0149 39.0147 36.4928 39.5149 36.8041 40.1152C37.7378 38.7146 38.8605 38.0143 40.1722 38.0143C40.9947 38.0143 41.7061 38.2589 42.3064 38.7479C42.9066 39.237 43.2179 39.8929 43.2401 40.7154C43.2401 41.3601 43.0845 41.8826 42.7732 42.2828C42.462 42.6829 42.1619 42.9275 41.8729 43.0164C41.5839 43.1053 41.3282 43.1498 41.1059 43.1498C40.6835 43.1498 40.3389 43.0275 40.0721 42.783C39.8053 42.5384 39.6719 42.2161 39.6719 41.8159C39.6719 40.7932 40.2277 40.093 41.3393 39.715C41.0948 39.426 40.6501 39.2815 40.0054 39.2815C39.7164 39.2815 39.5052 39.3037 39.3718 39.3482C38.527 39.7039 37.9045 40.4375 37.5044 41.5491C36.1705 46.4623 35.5035 49.3301 35.5035 50.1527C35.5035 50.7752 35.6814 51.2198 36.0371 51.4866C36.3928 51.7534 36.7819 51.8868 37.2043 51.8868C38.0268 51.8868 38.8383 51.5199 39.6386 50.7863C40.4389 50.0527 40.9836 49.1523 41.2726 48.0852C41.3393 47.8629 41.406 47.7406 41.4727 47.7184C41.5394 47.6961 41.7172 47.6739 42.0063 47.6517H42.1396C42.4731 47.6517 42.6399 47.7406 42.6399 47.9184C42.6399 47.9407 42.6176 48.0629 42.5732 48.2853C42.2175 49.5525 41.5283 50.6751 40.5056 51.6533C39.483 52.6315 38.2936 53.1206 36.9375 53.1206C35.3813 53.1206 34.203 52.4203 33.4027 51.0197C32.4912 52.3981 31.4463 53.0873 30.268 53.0873H30.0679C28.9786 53.0873 28.2005 52.7982 27.7336 52.2202C27.2668 51.6422 27.0222 51.0308 27 50.3861C27 49.6747 27.2112 49.0967 27.6336 48.6521C28.056 48.2074 28.5562 47.9851 29.1342 47.9851C30.0902 47.9851 30.5682 48.452 30.5682 49.3857C30.5682 49.8303 30.4348 50.2194 30.168 50.5529C29.9012 50.8863 29.6455 51.1087 29.401 51.2198C29.1565 51.331 29.0119 51.3865 28.9675 51.3865L28.8674 51.4199C28.8674 51.4421 28.9341 51.4866 29.0675 51.5533C29.2009 51.62 29.3788 51.6978 29.6011 51.7867C29.8234 51.8756 30.0346 51.909 30.2347 51.8868C31.035 51.8868 31.7242 51.3865 32.3022 50.3861C32.5023 50.0304 32.758 49.2746 33.0692 48.1185C33.3804 46.9625 33.6917 45.762 34.0029 44.517C34.3142 43.2721 34.492 42.5384 34.5365 42.3161C34.6476 41.7159 34.7032 41.2823 34.7032 41.0156C34.7032 40.3931 34.5365 39.9484 34.203 39.6817C33.8695 39.4149 33.4916 39.2815 33.0692 39.2815C32.1799 39.2815 31.3463 39.6372 30.5682 40.3486C29.7901 41.06 29.2454 41.9715 28.9341 43.0831C28.8897 43.2832 28.8341 43.3943 28.7674 43.4166C28.7007 43.4388 28.5229 43.461 28.2338 43.4833H27.767C27.6336 43.3499 27.5669 43.2276 27.5669 43.1164Z" fill="white"/>
</g>
<g id="Group_3">
<path id="Vector_2" d="M55.1152 44.8496C55.1152 44.8496 55.1152 44.7051 55.1152 44.4161C55.1152 44.1271 55.2709 43.9047 55.5821 43.7491H74.9568C75.2903 43.927 75.457 44.1493 75.457 44.4161C75.457 44.6828 75.2903 44.9052 74.9568 45.083H55.5821C55.2709 44.9274 55.1152 44.7051 55.1152 44.4161V44.8496Z" fill="white"/>
</g>
<g id="Group_4">
<g id="Group_5">
<path id="Vector_3" d="M98.4754 24.9737C98.4754 25.5073 98.2976 25.9519 97.9419 26.3076C97.5862 26.6633 97.1526 26.8412 96.6413 26.8412H96.4079C97.4305 28.5974 98.7867 29.4756 100.476 29.4756C102.032 29.4756 103.166 28.8086 103.878 27.4748C104.3 26.7411 104.511 25.3183 104.511 23.2063C104.511 20.9165 104.211 19.3714 103.611 18.571C103.033 17.8374 102.388 17.4706 101.677 17.4706H101.477C99.7426 17.4706 98.4309 18.2265 97.5417 19.7382C97.4528 19.8938 97.375 19.9827 97.3083 20.005C97.2416 20.0272 97.0748 20.0494 96.8081 20.0717C96.4301 20.0717 96.2189 20.005 96.1745 19.8716C96.13 19.7827 96.1078 17.8374 96.1078 14.0358V9.73404C96.1078 8.62246 96.1633 8.06667 96.2745 8.06667C96.319 8.02221 96.3634 7.99998 96.4079 7.99998C96.4301 7.99998 96.6635 8.0889 97.1082 8.26676C97.5528 8.44461 98.1642 8.62246 98.9423 8.80031C99.7204 8.97816 100.554 9.06709 101.443 9.06709C103.022 9.06709 104.533 8.75585 105.979 8.13337C106.156 8.04444 106.301 7.99998 106.412 7.99998C106.59 7.99998 106.679 8.20006 106.679 8.60023V9.03374C104.856 11.1902 102.577 12.2684 99.8426 12.2684C99.1535 12.2684 98.531 12.2017 97.9752 12.0683L97.6417 12.0016V17.7374C98.0641 17.4261 98.3976 17.1816 98.6421 17.0037C98.8867 16.8259 99.2869 16.648 99.8426 16.4702C100.398 16.2923 100.965 16.2034 101.543 16.2034C103.344 16.2034 104.867 16.9259 106.112 18.371C107.357 19.816 107.979 21.5278 107.979 23.5064C107.979 25.5517 107.268 27.2969 105.845 28.742C104.422 30.187 102.688 30.9206 100.643 30.9429C98.8422 30.9429 97.3972 30.3426 96.3078 29.1421C95.2185 27.9416 94.6738 26.5855 94.6738 25.0738C94.6738 24.5402 94.7961 24.1178 95.0406 23.8066C95.2852 23.4953 95.5409 23.2952 95.8076 23.2063C96.0744 23.1174 96.3301 23.0729 96.5746 23.0729C97.1304 23.0729 97.5862 23.2619 97.9419 23.6398C98.2976 24.0178 98.4754 24.4624 98.4754 24.9737Z" fill="white"/>
</g>
<g id="Group_6">
<path id="Vector_4" d="M95.3389 61.7229C95.3389 61.7229 95.3389 60.867 95.3389 59.1551C95.3389 57.4433 95.9391 56.065 97.1396 55.0201C98.3401 53.9752 99.7185 53.4416 101.275 53.4194C102.853 53.4194 104.254 53.8863 105.476 54.82C106.699 55.7537 107.311 56.9653 107.311 58.4548C107.311 59.1218 107.188 59.7443 106.944 60.3223C106.699 60.9003 106.41 61.3672 106.077 61.7229C105.743 62.0786 105.399 62.3898 105.043 62.6566C104.687 62.9234 104.398 63.1235 104.176 63.2568C103.954 63.3902 103.831 63.4792 103.809 63.5236L104.276 63.8237C104.587 64.0461 104.898 64.2684 105.21 64.4907C105.521 64.713 105.699 64.8353 105.743 64.8575C107.411 66.1692 108.244 67.8254 108.244 69.8262C108.244 71.5825 107.6 73.1054 106.31 74.3948C105.021 75.6842 103.353 76.3401 101.308 76.3623C99.3072 76.3623 97.662 75.7954 96.3726 74.6616C95.0832 73.5278 94.4385 72.1272 94.4385 70.4598C94.4385 68.0588 95.8724 66.058 98.7403 64.4573L98.14 64.0238C97.6732 63.7348 97.373 63.5125 97.2396 63.3569C95.9724 62.2675 95.3389 60.867 95.3389 59.1551V61.7229ZM102.542 62.7566L102.742 62.6232C102.875 62.5343 102.975 62.4676 103.042 62.4232C103.109 62.3787 103.22 62.3009 103.376 62.1897C103.531 62.0786 103.665 61.9674 103.776 61.8563C103.887 61.7451 104.009 61.6117 104.143 61.4561C104.276 61.3005 104.398 61.156 104.509 61.0226C104.62 60.8892 104.732 60.7113 104.843 60.489C104.954 60.2667 105.054 60.0777 105.143 59.9221C105.232 59.7665 105.287 59.5442 105.31 59.2552C105.332 58.9662 105.354 58.7216 105.376 58.5215C105.376 57.5656 105.054 56.7541 104.409 56.0872C103.765 55.4202 103.02 54.9978 102.175 54.82C102.019 54.7978 101.653 54.7866 101.075 54.7866C100.163 54.7866 99.3072 55.0757 98.5068 55.6537C97.7065 56.2317 97.2952 56.9542 97.273 57.8212C97.273 58.3326 97.4175 58.7994 97.7065 59.2218C97.9955 59.6442 98.2845 59.9666 98.5735 60.1889C98.8625 60.4112 99.4183 60.7669 100.241 61.256C100.397 61.3672 100.519 61.445 100.608 61.4894L102.542 62.7566ZM101.341 74.9284C102.631 74.9284 103.742 74.5504 104.676 73.7946C105.61 73.0387 106.077 72.1272 106.077 71.0601C106.077 70.6822 106.021 70.3265 105.91 69.993C105.799 69.6595 105.665 69.3816 105.51 69.1593C105.354 68.937 105.11 68.6924 104.776 68.4257C104.443 68.1589 104.187 67.9588 104.009 67.8254C103.831 67.692 103.509 67.4808 103.042 67.1918C102.575 66.9028 102.275 66.7138 102.142 66.6249C101.83 66.4248 101.497 66.2136 101.141 65.9913C100.786 65.769 100.497 65.58 100.274 65.4244L100.007 65.2577C99.8741 65.2577 99.5517 65.4466 99.0404 65.8246C98.5291 66.2025 97.9955 66.8139 97.4397 67.6587C96.8839 68.5035 96.5949 69.415 96.5727 70.3932C96.5727 71.7048 97.0507 72.783 98.0066 73.6278C98.9626 74.4726 100.074 74.9061 101.341 74.9284Z" fill="white"/>
</g>
<path id="Vector_5" d="M113.014 45.417H89.6709V43.4162H113.014V45.417Z" fill="white"/>
</g>
<g id="Group_7">
<path id="Vector_6" d="M118.751 43.1164C118.907 42.1827 119.507 41.1045 120.552 39.8818C121.597 38.659 122.887 38.0365 124.421 38.0143C125.199 38.0143 125.91 38.2144 126.555 38.6146C127.199 39.0147 127.677 39.5149 127.989 40.1152C128.922 38.7146 130.045 38.0143 131.357 38.0143C132.179 38.0143 132.891 38.2589 133.491 38.7479C134.091 39.237 134.402 39.8929 134.425 40.7154C134.425 41.3601 134.269 41.8826 133.958 42.2828C133.647 42.6829 133.346 42.9275 133.057 43.0164C132.768 43.1053 132.513 43.1498 132.29 43.1498C131.868 43.1498 131.523 43.0275 131.257 42.783C130.99 42.5384 130.857 42.2161 130.857 41.8159C130.857 40.7932 131.412 40.093 132.524 39.715C132.279 39.426 131.835 39.2815 131.19 39.2815C130.901 39.2815 130.69 39.3037 130.556 39.3482C129.712 39.7039 129.089 40.4375 128.689 41.5491C127.355 46.4623 126.688 49.3301 126.688 50.1527C126.688 50.7752 126.866 51.2198 127.222 51.4866C127.577 51.7534 127.966 51.8868 128.389 51.8868C129.211 51.8868 130.023 51.5199 130.823 50.7863C131.624 50.0527 132.168 49.1523 132.457 48.0852C132.524 47.8629 132.591 47.7406 132.657 47.7184C132.724 47.6961 132.902 47.6739 133.191 47.6517H133.324C133.658 47.6517 133.824 47.7406 133.824 47.9184C133.824 47.9407 133.802 48.0629 133.758 48.2853C133.402 49.5525 132.713 50.6751 131.69 51.6533C130.668 52.6315 129.478 53.1206 128.122 53.1206C126.566 53.1206 125.388 52.4203 124.587 51.0197C123.676 52.3981 122.631 53.0873 121.453 53.0873H121.253C120.163 53.0873 119.385 52.7982 118.918 52.2202C118.451 51.6422 118.207 51.0308 118.185 50.3861C118.185 49.6747 118.396 49.0967 118.818 48.6521C119.241 48.2074 119.741 47.9851 120.319 47.9851C121.275 47.9851 121.753 48.452 121.753 49.3857C121.753 49.8303 121.619 50.2194 121.353 50.5529C121.086 50.8863 120.83 51.1087 120.586 51.2198C120.341 51.331 120.197 51.3865 120.152 51.3865L120.052 51.4199C120.052 51.4421 120.119 51.4866 120.252 51.5533C120.385 51.62 120.563 51.6978 120.786 51.7867C121.008 51.8756 121.219 51.909 121.419 51.8868C122.22 51.8868 122.909 51.3865 123.487 50.3861C123.687 50.0304 123.943 49.2746 124.254 48.1185C124.565 46.9625 124.876 45.762 125.187 44.517C125.499 43.2721 125.677 42.5384 125.721 42.3161C125.832 41.7159 125.888 41.2823 125.888 41.0156C125.888 40.3931 125.721 39.9484 125.388 39.6817C125.054 39.4149 124.676 39.2815 124.254 39.2815C123.365 39.2815 122.531 39.6372 121.753 40.3486C120.975 41.06 120.43 41.9715 120.119 43.0831C120.074 43.2832 120.019 43.3943 119.952 43.4166C119.885 43.4388 119.707 43.461 119.418 43.4833H118.952C118.818 43.3499 118.751 43.2276 118.751 43.1164Z" fill="white"/>
</g>
<g id="Group_8">
<path id="Vector_7" d="M147.221 41.1811C147.221 40.8921 147.376 40.6698 147.688 40.5141H168.93C169.263 40.692 169.43 40.9143 169.43 41.1811C169.43 41.4256 169.274 41.6368 168.963 41.8147L158.359 41.848H147.754C147.399 41.7369 147.221 41.5145 147.221 41.1811ZM147.221 47.6504C147.221 47.317 147.399 47.0947 147.754 46.9835H168.963C169.274 47.2058 169.43 47.4281 169.43 47.6504C169.43 47.9394 169.263 48.1618 168.93 48.3174H147.688C147.376 48.1618 147.221 47.9394 147.221 47.6504Z" fill="white"/>
</g>
<g id="Group_9">
<path id="Vector_8" d="M184.201 38.4484C183.601 38.4484 183.123 38.2484 182.767 37.8482C182.411 37.448 182.233 36.9589 182.233 36.3809C182.233 34.8025 182.823 33.4352 184.001 32.2792C185.179 31.1232 186.646 30.5451 188.403 30.5451C190.426 30.5451 192.115 31.1676 193.471 32.4126C194.828 33.6575 195.517 35.2693 195.539 37.2479C195.539 38.2039 195.317 39.1154 194.872 39.9824C194.427 40.8494 193.894 41.6053 193.271 42.25C192.649 42.8947 191.76 43.7173 190.604 44.7177C189.803 45.4069 188.692 46.4295 187.269 47.7857L185.301 49.6531L187.836 49.6864C191.326 49.6864 193.182 49.6309 193.405 49.5197C193.56 49.4753 193.827 48.4859 194.205 46.5518V46.4518H195.539V46.5518C195.517 46.6185 195.372 47.63 195.105 49.5864C194.839 51.5428 194.672 52.5654 194.605 52.6544V52.7544H182.233V52.1208V51.7206C182.233 51.565 182.3 51.3983 182.433 51.2204C182.567 51.0426 182.9 50.6535 183.434 50.0533C184.079 49.3419 184.634 48.7194 185.101 48.1858C185.301 47.9635 185.679 47.5522 186.235 46.952C186.791 46.3517 187.169 45.9404 187.369 45.7181C187.569 45.4958 187.891 45.129 188.336 44.6177C188.781 44.1063 189.092 43.7284 189.27 43.4839C189.448 43.2393 189.703 42.9058 190.037 42.4834C190.37 42.0611 190.604 41.7053 190.737 41.4163C190.87 41.1273 191.037 40.805 191.237 40.4493C191.437 40.0936 191.582 39.7379 191.671 39.3822C191.76 39.0265 191.837 38.693 191.904 38.3817C191.971 38.0705 192.004 37.7037 192.004 37.2813C192.004 35.8807 191.626 34.6691 190.87 33.6464C190.114 32.6238 189.036 32.1125 187.636 32.1125C186.902 32.1125 186.257 32.3014 185.702 32.6794C185.146 33.0573 184.757 33.4241 184.534 33.7798C184.312 34.1355 184.201 34.3467 184.201 34.4134C184.201 34.4357 184.256 34.4468 184.368 34.4468C184.768 34.4468 185.179 34.6024 185.601 34.9136C186.024 35.2249 186.235 35.7362 186.235 36.4476C186.235 37.0034 186.057 37.4702 185.702 37.8482C185.346 38.2261 184.846 38.4262 184.201 38.4484Z" fill="white"/>
<path id="Vector_9" d="M212.647 52.7544C212.246 52.6877 210.812 52.6544 208.345 52.6544C205.766 52.6544 204.276 52.6877 203.876 52.7544H203.576V51.2204H204.61C205.054 51.2204 205.355 51.2204 205.51 51.2204C205.666 51.2204 205.855 51.1982 206.077 51.1537C206.299 51.1093 206.455 51.0537 206.544 50.987C206.633 50.9203 206.711 50.8314 206.777 50.7202C206.8 50.6758 206.811 50.0755 206.811 48.9195V47.2521H198.174V45.7181L203.209 38.0149C206.611 32.8572 208.334 30.2672 208.378 30.245C208.423 30.2006 208.656 30.1783 209.078 30.1783H209.679L209.879 30.3784V45.7181H212.947V47.2521H209.879V48.9528C209.879 49.8643 209.879 50.3979 209.879 50.5535C209.879 50.7091 209.945 50.8425 210.079 50.9536C210.257 51.1093 210.89 51.1982 211.98 51.2204H212.947V52.7544H212.647ZM207.011 45.7181V34.5802L199.708 45.6848L203.343 45.7181H207.011Z" fill="white"/>
<path id="Vector_10" d="M217.118 33.2455C218.363 31.4448 220.063 30.5444 222.22 30.5444C223.287 30.5444 224.354 30.8334 225.421 31.4114C226.488 31.9895 227.355 33.0121 228.022 34.4794C228.845 36.3246 229.256 38.859 229.256 42.0826C229.256 45.5284 228.778 48.1629 227.822 49.9858C227.377 50.9196 226.766 51.6643 225.988 52.2201C225.21 52.7759 224.532 53.1205 223.954 53.2539C223.376 53.3873 222.809 53.4651 222.253 53.4873C221.675 53.4873 221.097 53.4206 220.519 53.2872C219.941 53.1538 219.263 52.7981 218.485 52.2201C217.707 51.6421 217.095 50.8973 216.651 49.9858C215.695 48.1629 215.217 45.5284 215.217 42.0826C215.217 38.2143 215.85 35.2686 217.118 33.2455ZM224.621 32.8454C223.954 32.134 223.165 31.7783 222.253 31.7783C221.319 31.7783 220.519 32.134 219.852 32.8454C219.296 33.4234 218.929 34.2237 218.752 35.2464C218.574 36.269 218.485 38.4032 218.485 41.649C218.485 45.1616 218.574 47.4737 218.752 48.5853C218.929 49.6968 219.33 50.575 219.952 51.2197C220.575 51.8866 221.342 52.2201 222.253 52.2201C223.142 52.2201 223.898 51.8866 224.521 51.2197C225.165 50.5527 225.566 49.619 225.721 48.4185C225.877 47.218 225.966 44.9615 225.988 41.649C225.988 38.4255 225.899 36.3024 225.721 35.2797C225.543 34.2571 225.177 33.4456 224.621 32.8454Z" fill="white"/>
</g>
</g>
<g id="Group 571">
<g id="Group_10">
<path id="Vector_11" d="M0.900375 144.447C0.900375 144.447 0.900375 143.592 0.900375 141.88C0.900375 140.168 1.50063 138.79 2.70113 137.745C3.90163 136.7 5.27998 136.166 6.83618 136.144C8.41462 136.144 9.8152 136.611 11.0379 137.545C12.2607 138.478 12.872 139.69 12.872 141.179C12.872 141.846 12.7498 142.469 12.5052 143.047C12.2607 143.625 11.9717 144.092 11.6382 144.447C11.3047 144.803 10.9601 145.114 10.6044 145.381C10.2487 145.648 9.95971 145.848 9.73739 145.981C9.51508 146.115 9.3928 146.204 9.37057 146.248L9.83743 146.548C10.1487 146.771 10.4599 146.993 10.7712 147.215C11.0824 147.438 11.2602 147.56 11.3047 147.582C12.9721 148.894 13.8058 150.55 13.8058 152.551C13.8058 154.307 13.161 155.83 11.8716 157.119C10.5822 158.409 8.91483 159.065 6.86953 159.087C4.8687 159.087 3.22357 158.52 1.93414 157.386C0.644713 156.252 0 154.852 0 153.184C0 150.783 1.43393 148.783 4.30179 147.182L3.70154 146.748C3.23468 146.459 2.93456 146.237 2.80117 146.081C1.53397 144.992 0.900375 143.592 0.900375 141.88V144.447ZM8.10338 145.481L8.30346 145.348C8.43685 145.259 8.53689 145.192 8.60359 145.148C8.67028 145.103 8.78144 145.026 8.93706 144.914C9.09268 144.803 9.22607 144.692 9.33722 144.581C9.44838 144.47 9.57066 144.336 9.70404 144.181C9.83743 144.025 9.95971 143.881 10.0709 143.747C10.182 143.614 10.2932 143.436 10.4043 143.214C10.5155 142.991 10.6155 142.802 10.7045 142.647C10.7934 142.491 10.849 142.269 10.8712 141.98C10.8934 141.691 10.9157 141.446 10.9379 141.246C10.9379 140.29 10.6155 139.479 9.97082 138.812C9.32611 138.145 8.58135 137.722 7.73656 137.545C7.58094 137.522 7.21412 137.511 6.6361 137.511C5.72461 137.511 4.8687 137.8 4.06836 138.378C3.26803 138.956 2.85675 139.679 2.83451 140.546C2.83451 141.057 2.97902 141.524 3.26803 141.946C3.55704 142.369 3.84605 142.691 4.13506 142.914C4.42407 143.136 4.97985 143.492 5.80242 143.981C5.95804 144.092 6.08031 144.17 6.16924 144.214L8.10338 145.481ZM6.90288 157.653C8.1923 157.653 9.30388 157.275 10.2376 156.519C11.1713 155.763 11.6382 154.852 11.6382 153.785C11.6382 153.407 11.5826 153.051 11.4714 152.718C11.3603 152.384 11.2269 152.106 11.0713 151.884C10.9157 151.662 10.6711 151.417 10.3376 151.15C10.0042 150.883 9.74851 150.683 9.57065 150.55C9.3928 150.417 9.07045 150.205 8.60359 149.916C8.13672 149.627 7.8366 149.438 7.70321 149.35C7.39197 149.149 7.0585 148.938 6.70279 148.716C6.34709 148.494 6.05808 148.305 5.83577 148.149L5.56899 147.982C5.4356 147.982 5.11324 148.171 4.60192 148.549C4.09059 148.927 3.55704 149.538 3.00125 150.383C2.44546 151.228 2.15645 152.14 2.13422 153.118C2.13422 154.429 2.6122 155.508 3.56815 156.352C4.52411 157.197 5.63568 157.631 6.90288 157.653Z" fill="white"/>
</g>
<g id="Group_11">
<path id="Vector_12" d="M43.6536 157.385C43.6536 157.829 43.4202 158.052 42.9533 158.052C42.8421 158.052 42.5976 157.874 42.2197 157.518C41.8417 157.162 40.7968 156.129 39.085 154.417L35.6169 150.949L32.1154 154.45C29.7589 156.762 28.5473 157.941 28.4806 157.985C28.3917 158.03 28.3139 158.052 28.2472 158.052C28.0693 158.052 27.9137 157.985 27.7803 157.852C27.6469 157.718 27.5691 157.563 27.5469 157.385C27.5469 157.229 27.7025 156.985 28.0137 156.651C28.325 156.318 29.3699 155.262 31.1484 153.483L34.6165 150.015L31.1484 146.547C29.3476 144.746 28.3027 143.69 28.0137 143.379C27.7247 143.068 27.5691 142.823 27.5469 142.645C27.5469 142.445 27.6136 142.29 27.747 142.178C27.8803 142.067 28.0471 142.012 28.2472 142.012C28.3583 142.012 28.4361 142.023 28.4806 142.045C28.5473 142.09 29.7589 143.268 32.1154 145.58L35.6169 149.081L39.085 145.613C40.7968 143.901 41.8417 142.868 42.2197 142.512C42.5976 142.156 42.8421 141.978 42.9533 141.978C43.4202 141.978 43.6536 142.201 43.6536 142.645C43.6536 142.801 43.5424 143.001 43.3201 143.246C43.0978 143.49 42.0085 144.579 40.0521 146.514L36.584 150.015L40.0521 153.517C41.9195 155.384 42.9866 156.462 43.2534 156.751C43.5202 157.04 43.6536 157.251 43.6536 157.385Z" fill="white"/>
</g>
<g id="Group_12">
<g id="Group_13">
<path id="Vector_13" d="M79.3789 189.7C79.3789 189.767 79.3123 189.867 79.1789 190H78.1451C78.1006 189.956 77.7894 189.655 77.2114 189.1C76.6334 188.544 76.1331 188.066 75.7107 187.666C75.2884 187.266 74.6881 186.587 73.91 185.632C73.1319 184.676 72.4427 183.775 71.8425 182.93C71.2422 182.086 70.5419 180.963 69.7416 179.562C68.9413 178.162 68.2521 176.772 67.6741 175.394C67.096 174.016 66.4847 172.359 65.84 170.425C65.1953 168.491 64.695 166.535 64.3393 164.556C63.9836 162.577 63.6613 160.321 63.3723 157.787C63.0833 155.252 62.9499 152.651 62.9721 149.983C62.9721 134.177 67.0182 121.838 75.1105 112.968C75.6218 112.412 76.0998 111.923 76.5444 111.501C76.9891 111.078 77.3559 110.723 77.6449 110.434C77.9339 110.145 78.1006 110 78.1451 110H79.1789C79.3123 110.133 79.3789 110.233 79.3789 110.3C79.3789 110.411 79.1566 110.7 78.712 111.167C78.2674 111.634 77.6894 112.29 76.9779 113.135C76.2665 113.979 75.4662 115.035 74.5769 116.303C73.6877 117.57 72.7873 119.159 71.8758 121.071C70.9643 122.983 70.1195 125.106 69.3414 127.441C68.5633 129.775 67.8964 132.576 67.3406 135.844C66.7848 139.112 66.4291 142.625 66.2735 146.382C66.229 147.227 66.2068 148.438 66.2068 150.017C66.2068 158.665 67.2517 166.223 69.3414 172.693C71.4312 179.162 74.6548 184.653 79.0121 189.166C79.2567 189.433 79.3789 189.611 79.3789 189.7Z" fill="white"/>
</g>
<g id="Group_14">
<path id="Vector_14" d="M82.2798 148.717C82.4354 147.783 83.0357 146.705 84.0805 145.482C85.1254 144.259 86.4148 143.637 87.9488 143.614C88.7269 143.614 89.4383 143.814 90.083 144.215C90.7278 144.615 91.2057 145.115 91.517 145.715C92.4507 144.315 93.5734 143.614 94.885 143.614C95.7076 143.614 96.419 143.859 97.0193 144.348C97.6195 144.837 97.9308 145.493 97.953 146.316C97.953 146.96 97.7974 147.483 97.4861 147.883C97.1749 148.283 96.8748 148.528 96.5858 148.616C96.2967 148.705 96.0411 148.75 95.8188 148.75C95.3964 148.75 95.0518 148.628 94.785 148.383C94.5182 148.139 94.3848 147.816 94.3848 147.416C94.3848 146.393 94.9406 145.693 96.0522 145.315C95.8077 145.026 95.363 144.882 94.7183 144.882C94.4293 144.882 94.2181 144.904 94.0847 144.948C93.2399 145.304 92.6174 146.038 92.2173 147.149C90.8834 152.062 90.2164 154.93 90.2164 155.753C90.2164 156.375 90.3943 156.82 90.75 157.087C91.1057 157.353 91.4947 157.487 91.9171 157.487C92.7397 157.487 93.5512 157.12 94.3515 156.386C95.1518 155.653 95.6965 154.752 95.9855 153.685C96.0522 153.463 96.1189 153.341 96.1856 153.318C96.2523 153.296 96.4301 153.274 96.7191 153.252H96.8525C97.186 153.252 97.3527 153.341 97.3527 153.519C97.3527 153.541 97.3305 153.663 97.286 153.885C96.9303 155.153 96.2412 156.275 95.2185 157.253C94.1959 158.232 93.0065 158.721 91.6504 158.721C90.0942 158.721 88.9159 158.02 88.1156 156.62C87.2041 157.998 86.1592 158.687 84.9809 158.687H84.7808C83.6915 158.687 82.9134 158.398 82.4465 157.82C81.9797 157.242 81.7351 156.631 81.7129 155.986C81.7129 155.275 81.9241 154.697 82.3465 154.252C82.7689 153.808 83.2691 153.585 83.8471 153.585C84.8031 153.585 85.281 154.052 85.281 154.986C85.281 155.43 85.1477 155.819 84.8809 156.153C84.6141 156.486 84.3584 156.709 84.1139 156.82C83.8693 156.931 83.7248 156.987 83.6804 156.987L83.5803 157.02C83.5803 157.042 83.647 157.087 83.7804 157.153C83.9138 157.22 84.0917 157.298 84.314 157.387C84.5363 157.476 84.7475 157.509 84.9476 157.487C85.7479 157.487 86.4371 156.987 87.0151 155.986C87.2152 155.631 87.4708 154.875 87.7821 153.719C88.0933 152.563 88.4046 151.362 88.7158 150.117C89.027 148.872 89.2049 148.139 89.2494 147.916C89.3605 147.316 89.4161 146.882 89.4161 146.616C89.4161 145.993 89.2494 145.549 88.9159 145.282C88.5824 145.015 88.2045 144.882 87.7821 144.882C86.8928 144.882 86.0591 145.237 85.281 145.949C84.5029 146.66 83.9583 147.572 83.647 148.683C83.6026 148.883 83.547 148.994 83.4803 149.017C83.4136 149.039 83.2357 149.061 82.9467 149.083H82.4799C82.3465 148.95 82.2798 148.828 82.2798 148.717Z" fill="white"/>
</g>
<g id="Group_15">
<path id="Vector_15" d="M109.828 150.45C109.828 150.45 109.828 150.305 109.828 150.016C109.828 149.727 109.984 149.505 110.295 149.349H129.67C130.003 149.527 130.17 149.749 130.17 150.016C130.17 150.283 130.003 150.505 129.67 150.683H110.295C109.984 150.527 109.828 150.305 109.828 150.016V150.45Z" fill="white"/>
</g>
<g id="Group_16">
<g id="Group_17">
<path id="Vector_16" d="M153.188 130.574C153.188 131.107 153.01 131.552 152.655 131.908C152.299 132.263 151.866 132.441 151.354 132.441H151.121C152.143 134.198 153.5 135.076 155.189 135.076C156.745 135.076 157.879 134.409 158.591 133.075C159.013 132.341 159.224 130.918 159.224 128.806C159.224 126.517 158.924 124.971 158.324 124.171C157.746 123.438 157.101 123.071 156.39 123.071H156.19C154.455 123.071 153.144 123.827 152.255 125.338C152.166 125.494 152.088 125.583 152.021 125.605C151.954 125.627 151.788 125.65 151.521 125.672C151.143 125.672 150.932 125.605 150.887 125.472C150.843 125.383 150.821 123.438 150.821 119.636V115.334C150.821 114.223 150.876 113.667 150.987 113.667C151.032 113.622 151.076 113.6 151.121 113.6C151.143 113.6 151.376 113.689 151.821 113.867C152.266 114.045 152.877 114.223 153.655 114.4C154.433 114.578 155.267 114.667 156.156 114.667C157.735 114.667 159.246 114.356 160.691 113.733C160.869 113.645 161.014 113.6 161.125 113.6C161.303 113.6 161.392 113.8 161.392 114.2V114.634C159.569 116.79 157.29 117.869 154.556 117.869C153.866 117.869 153.244 117.802 152.688 117.668L152.355 117.602V123.337C152.777 123.026 153.11 122.782 153.355 122.604C153.6 122.426 154 122.248 154.556 122.07C155.111 121.892 155.678 121.803 156.256 121.803C158.057 121.803 159.58 122.526 160.825 123.971C162.07 125.416 162.692 127.128 162.692 129.107C162.692 131.152 161.981 132.897 160.558 134.342C159.135 135.787 157.401 136.521 155.356 136.543C153.555 136.543 152.11 135.943 151.021 134.742C149.931 133.542 149.387 132.186 149.387 130.674C149.387 130.14 149.509 129.718 149.754 129.407C149.998 129.095 150.254 128.895 150.521 128.806C150.787 128.717 151.043 128.673 151.288 128.673C151.843 128.673 152.299 128.862 152.655 129.24C153.01 129.618 153.188 130.062 153.188 130.574Z" fill="white"/>
</g>
<g id="Group_18">
<path id="Vector_17" d="M150.052 167.323C150.052 167.323 150.052 166.467 150.052 164.755C150.052 163.043 150.652 161.665 151.852 160.62C153.053 159.575 154.431 159.042 155.988 159.02C157.566 159.02 158.967 159.486 160.189 160.42C161.412 161.354 162.023 162.565 162.023 164.055C162.023 164.722 161.901 165.344 161.657 165.922C161.412 166.5 161.123 166.967 160.79 167.323C160.456 167.679 160.111 167.99 159.756 168.257C159.4 168.523 159.111 168.724 158.889 168.857C158.666 168.99 158.544 169.079 158.522 169.124L158.989 169.424C159.3 169.646 159.611 169.868 159.923 170.091C160.234 170.313 160.412 170.435 160.456 170.458C162.123 171.769 162.957 173.426 162.957 175.426C162.957 177.183 162.312 178.705 161.023 179.995C159.734 181.284 158.066 181.94 156.021 181.962C154.02 181.962 152.375 181.395 151.086 180.262C149.796 179.128 149.151 177.727 149.151 176.06C149.151 173.659 150.585 171.658 153.453 170.057L152.853 169.624C152.386 169.335 152.086 169.113 151.953 168.957C150.685 167.868 150.052 166.467 150.052 164.755V167.323ZM157.255 168.357L157.455 168.223C157.588 168.134 157.688 168.068 157.755 168.023C157.822 167.979 157.933 167.901 158.088 167.79C158.244 167.679 158.377 167.568 158.489 167.456C158.6 167.345 158.722 167.212 158.855 167.056C158.989 166.901 159.111 166.756 159.222 166.623C159.333 166.489 159.445 166.311 159.556 166.089C159.667 165.867 159.767 165.678 159.856 165.522C159.945 165.367 160 165.144 160.023 164.855C160.045 164.566 160.067 164.322 160.089 164.122C160.089 163.166 159.767 162.354 159.122 161.687C158.477 161.02 157.733 160.598 156.888 160.42C156.732 160.398 156.365 160.387 155.787 160.387C154.876 160.387 154.02 160.676 153.22 161.254C152.419 161.832 152.008 162.554 151.986 163.421C151.986 163.933 152.13 164.4 152.419 164.822C152.708 165.244 152.997 165.567 153.286 165.789C153.575 166.011 154.131 166.367 154.954 166.856C155.109 166.967 155.232 167.045 155.321 167.09L157.255 168.357ZM156.054 180.528C157.344 180.528 158.455 180.151 159.389 179.395C160.323 178.639 160.79 177.727 160.79 176.66C160.79 176.282 160.734 175.927 160.623 175.593C160.512 175.26 160.378 174.982 160.223 174.759C160.067 174.537 159.822 174.293 159.489 174.026C159.156 173.759 158.9 173.559 158.722 173.426C158.544 173.292 158.222 173.081 157.755 172.792C157.288 172.503 156.988 172.314 156.855 172.225C156.543 172.025 156.21 171.814 155.854 171.591C155.498 171.369 155.209 171.18 154.987 171.025L154.72 170.858C154.587 170.858 154.265 171.047 153.753 171.425C153.242 171.803 152.708 172.414 152.153 173.259C151.597 174.104 151.308 175.015 151.286 175.993C151.286 177.305 151.764 178.383 152.72 179.228C153.675 180.073 154.787 180.506 156.054 180.528Z" fill="white"/>
</g>
<path id="Vector_18" d="M167.727 151.017H144.384V149.016H167.727V151.017Z" fill="white"/>
</g>
<g id="Group_19">
<path id="Vector_19" d="M173.464 148.717C173.62 147.783 174.22 146.705 175.265 145.482C176.31 144.259 177.599 143.637 179.133 143.614C179.911 143.614 180.623 143.814 181.268 144.215C181.912 144.615 182.39 145.115 182.702 145.715C183.635 144.315 184.758 143.614 186.07 143.614C186.892 143.614 187.604 143.859 188.204 144.348C188.804 144.837 189.115 145.493 189.138 146.316C189.138 146.96 188.982 147.483 188.671 147.883C188.359 148.283 188.059 148.528 187.77 148.616C187.481 148.705 187.226 148.75 187.003 148.75C186.581 148.75 186.236 148.628 185.97 148.383C185.703 148.139 185.569 147.816 185.569 147.416C185.569 146.393 186.125 145.693 187.237 145.315C186.992 145.026 186.548 144.882 185.903 144.882C185.614 144.882 185.403 144.904 185.269 144.948C184.424 145.304 183.802 146.038 183.402 147.149C182.068 152.062 181.401 154.93 181.401 155.753C181.401 156.375 181.579 156.82 181.935 157.087C182.29 157.353 182.679 157.487 183.102 157.487C183.924 157.487 184.736 157.12 185.536 156.386C186.336 155.653 186.881 154.752 187.17 153.685C187.237 153.463 187.303 153.341 187.37 153.318C187.437 153.296 187.615 153.274 187.904 153.252H188.037C188.371 153.252 188.537 153.341 188.537 153.519C188.537 153.541 188.515 153.663 188.471 153.885C188.115 155.153 187.426 156.275 186.403 157.253C185.38 158.232 184.191 158.721 182.835 158.721C181.279 158.721 180.1 158.02 179.3 156.62C178.389 157.998 177.344 158.687 176.165 158.687H175.965C174.876 158.687 174.098 158.398 173.631 157.82C173.164 157.242 172.92 156.631 172.897 155.986C172.897 155.275 173.109 154.697 173.531 154.252C173.953 153.808 174.454 153.585 175.032 153.585C175.988 153.585 176.466 154.052 176.466 154.986C176.466 155.43 176.332 155.819 176.065 156.153C175.799 156.486 175.543 156.709 175.298 156.82C175.054 156.931 174.909 156.987 174.865 156.987L174.765 157.02C174.765 157.042 174.832 157.087 174.965 157.153C175.098 157.22 175.276 157.298 175.499 157.387C175.721 157.476 175.932 157.509 176.132 157.487C176.932 157.487 177.622 156.987 178.2 155.986C178.4 155.631 178.655 154.875 178.967 153.719C179.278 152.563 179.589 151.362 179.9 150.117C180.212 148.872 180.389 148.139 180.434 147.916C180.545 147.316 180.601 146.882 180.601 146.616C180.601 145.993 180.434 145.549 180.1 145.282C179.767 145.015 179.389 144.882 178.967 144.882C178.077 144.882 177.244 145.237 176.466 145.949C175.688 146.66 175.143 147.572 174.832 148.683C174.787 148.883 174.732 148.994 174.665 149.017C174.598 149.039 174.42 149.061 174.131 149.083H173.664C173.531 148.95 173.464 148.828 173.464 148.717Z" fill="white"/>
</g>
<g id="Group_20">
<path id="Vector_20" d="M201.934 146.781C201.934 146.492 202.089 146.27 202.4 146.114H223.643C223.976 146.292 224.143 146.514 224.143 146.781C224.143 147.026 223.987 147.237 223.676 147.415L213.072 147.448H202.467C202.111 147.337 201.934 147.115 201.934 146.781ZM201.934 153.251C201.934 152.917 202.111 152.695 202.467 152.584H223.676C223.987 152.806 224.143 153.028 224.143 153.251C224.143 153.54 223.976 153.762 223.643 153.917H202.4C202.089 153.762 201.934 153.54 201.934 153.251Z" fill="white"/>
</g>
<g id="Group_21">
<path id="Vector_21" d="M238.914 144.049C238.314 144.049 237.836 143.848 237.48 143.448C237.124 143.048 236.946 142.559 236.946 141.981C236.946 140.403 237.535 139.035 238.714 137.879C239.892 136.723 241.359 136.145 243.116 136.145C245.139 136.145 246.828 136.768 248.184 138.013C249.54 139.258 250.23 140.869 250.252 142.848C250.252 143.804 250.03 144.715 249.585 145.583C249.14 146.45 248.607 147.205 247.984 147.85C247.362 148.495 246.472 149.317 245.316 150.318C244.516 151.007 243.405 152.03 241.982 153.386L240.014 155.253L242.549 155.287C246.039 155.287 247.895 155.231 248.118 155.12C248.273 155.075 248.54 154.086 248.918 152.152V152.052H250.252V152.152C250.23 152.219 250.085 153.23 249.818 155.187C249.552 157.143 249.385 158.166 249.318 158.254V158.354H236.946V157.721V157.321C236.946 157.165 237.013 156.998 237.146 156.821C237.28 156.643 237.613 156.254 238.147 155.653C238.792 154.942 239.347 154.319 239.814 153.786C240.014 153.564 240.392 153.152 240.948 152.552C241.504 151.952 241.882 151.541 242.082 151.318C242.282 151.096 242.604 150.729 243.049 150.218C243.493 149.706 243.805 149.329 243.983 149.084C244.16 148.839 244.416 148.506 244.75 148.084C245.083 147.661 245.316 147.305 245.45 147.016C245.583 146.727 245.75 146.405 245.95 146.049C246.15 145.694 246.295 145.338 246.384 144.982C246.472 144.627 246.55 144.293 246.617 143.982C246.684 143.671 246.717 143.304 246.717 142.881C246.717 141.481 246.339 140.269 245.583 139.247C244.827 138.224 243.749 137.713 242.349 137.713C241.615 137.713 240.97 137.902 240.414 138.279C239.859 138.657 239.47 139.024 239.247 139.38C239.025 139.736 238.914 139.947 238.914 140.014C238.914 140.036 238.969 140.047 239.081 140.047C239.481 140.047 239.892 140.202 240.314 140.514C240.737 140.825 240.948 141.336 240.948 142.048C240.948 142.603 240.77 143.07 240.414 143.448C240.059 143.826 239.558 144.026 238.914 144.049Z" fill="white"/>
<path id="Vector_22" d="M267.359 158.354C266.959 158.288 265.525 158.254 263.058 158.254C260.479 158.254 258.989 158.288 258.589 158.354H258.289V156.821H259.323C259.767 156.821 260.067 156.821 260.223 156.821C260.379 156.821 260.568 156.798 260.79 156.754C261.012 156.709 261.168 156.654 261.257 156.587C261.346 156.52 261.424 156.431 261.49 156.32C261.513 156.276 261.524 155.676 261.524 154.52V152.852H252.887V151.318L257.922 143.615C261.324 138.457 263.047 135.867 263.091 135.845C263.135 135.801 263.369 135.778 263.791 135.778H264.392L264.592 135.979V151.318H267.66V152.852H264.592V154.553C264.592 155.464 264.592 155.998 264.592 156.154C264.592 156.309 264.658 156.443 264.792 156.554C264.97 156.709 265.603 156.798 266.692 156.821H267.66V158.354H267.359ZM261.724 151.318V140.18L254.421 151.285L258.056 151.318H261.724Z" fill="white"/>
<path id="Vector_23" d="M271.83 138.846C273.075 137.045 274.776 136.145 276.933 136.145C278 136.145 279.067 136.434 280.134 137.012C281.201 137.59 282.068 138.612 282.735 140.079C283.558 141.925 283.969 144.459 283.969 147.683C283.969 151.129 283.491 153.763 282.535 155.586C282.09 156.52 281.479 157.264 280.701 157.82C279.923 158.376 279.245 158.721 278.667 158.854C278.089 158.987 277.522 159.065 276.966 159.087C276.388 159.087 275.81 159.021 275.232 158.887C274.654 158.754 273.976 158.398 273.198 157.82C272.42 157.242 271.808 156.497 271.364 155.586C270.408 153.763 269.93 151.129 269.93 147.683C269.93 143.814 270.563 140.869 271.83 138.846ZM279.334 138.445C278.667 137.734 277.877 137.378 276.966 137.378C276.032 137.378 275.232 137.734 274.565 138.445C274.009 139.023 273.642 139.824 273.464 140.846C273.287 141.869 273.198 144.003 273.198 147.249C273.198 150.762 273.287 153.074 273.464 154.185C273.642 155.297 274.043 156.175 274.665 156.82C275.287 157.487 276.054 157.82 276.966 157.82C277.855 157.82 278.611 157.487 279.234 156.82C279.878 156.153 280.278 155.219 280.434 154.019C280.59 152.818 280.679 150.562 280.701 147.249C280.701 144.026 280.612 141.902 280.434 140.88C280.256 139.857 279.889 139.046 279.334 138.445Z" fill="white"/>
</g>
<g id="Group_22">
<path id="Vector_24" d="M286.433 110.4C286.433 110.222 286.466 110.111 286.533 110.067C286.599 110.022 286.744 110 286.966 110H287.166H287.666C287.711 110.044 288.022 110.345 288.6 110.9C289.178 111.456 289.678 111.934 290.101 112.334C290.523 112.734 291.123 113.413 291.902 114.368C292.68 115.324 293.369 116.225 293.969 117.07C294.569 117.914 295.27 119.037 296.07 120.438C296.87 121.838 297.559 123.217 298.137 124.573C298.716 125.929 299.327 127.585 299.972 129.541C300.616 131.498 301.117 133.454 301.472 135.411C301.828 137.367 302.15 139.623 302.439 142.18C302.728 144.737 302.862 147.338 302.839 149.983C302.839 152.584 302.762 154.785 302.606 156.586C301.561 169.302 297.593 179.451 290.701 187.032C290.19 187.588 289.712 188.077 289.267 188.499C288.823 188.922 288.456 189.277 288.167 189.566C287.878 189.855 287.711 190 287.666 190H287.166C286.877 190 286.688 189.978 286.599 189.933C286.51 189.889 286.455 189.778 286.433 189.6C287.633 188.399 288.811 187.021 289.967 185.465C296.37 176.95 299.571 165.123 299.571 149.983C299.571 145.493 299.282 141.302 298.704 137.411C298.126 133.521 297.415 130.253 296.57 127.607C295.725 124.962 294.692 122.472 293.469 120.138C292.246 117.803 291.135 115.991 290.134 114.702C289.134 113.413 288.033 112.123 286.833 110.834C286.788 110.789 286.744 110.745 286.699 110.7C286.655 110.656 286.622 110.611 286.599 110.567C286.577 110.522 286.544 110.489 286.499 110.467L286.433 110.4Z" fill="white"/>
</g>
</g>
</g>
<g id="Group 572">
<g id="Group_23">
<path id="Vector_25" d="M55.9004 232.303C55.9004 232.303 55.9004 231.448 55.9004 229.736C55.9004 228.024 56.5006 226.646 57.7011 225.601C58.9016 224.556 60.28 224.022 61.8362 224C63.4146 224 64.8152 224.467 66.0379 225.401C67.2607 226.334 67.872 227.546 67.872 229.035C67.872 229.702 67.7498 230.325 67.5052 230.903C67.2607 231.481 66.9717 231.948 66.6382 232.303C66.3047 232.659 65.9601 232.97 65.6044 233.237C65.2487 233.504 64.9597 233.704 64.7374 233.837C64.5151 233.971 64.3928 234.06 64.3706 234.104L64.8374 234.404C65.1487 234.627 65.4599 234.849 65.7712 235.071C66.0824 235.294 66.2602 235.416 66.3047 235.438C67.9721 236.75 68.8058 238.406 68.8058 240.407C68.8058 242.163 68.161 243.686 66.8716 244.975C65.5822 246.265 63.9148 246.921 61.8695 246.943C59.8687 246.943 58.2236 246.376 56.9341 245.242C55.6447 244.108 55 242.708 55 241.04C55 238.639 56.4339 236.639 59.3018 235.038L58.7015 234.604C58.2347 234.315 57.9346 234.093 57.8012 233.937C56.534 232.848 55.9004 231.448 55.9004 229.736V232.303ZM63.1034 233.337L63.3035 233.204C63.4368 233.115 63.5369 233.048 63.6036 233.004C63.6703 232.959 63.7814 232.881 63.9371 232.77C64.0927 232.659 64.2261 232.548 64.3372 232.437C64.4484 232.326 64.5707 232.192 64.704 232.037C64.8374 231.881 64.9597 231.737 65.0709 231.603C65.182 231.47 65.2932 231.292 65.4043 231.07C65.5155 230.847 65.6155 230.658 65.7045 230.503C65.7934 230.347 65.849 230.125 65.8712 229.836C65.8934 229.547 65.9157 229.302 65.9379 229.102C65.9379 228.146 65.6155 227.335 64.9708 226.668C64.3261 226.001 63.5814 225.578 62.7366 225.401C62.5809 225.378 62.2141 225.367 61.6361 225.367C60.7246 225.367 59.8687 225.656 59.0684 226.234C58.268 226.812 57.8567 227.535 57.8345 228.402C57.8345 228.913 57.979 229.38 58.268 229.802C58.557 230.225 58.846 230.547 59.1351 230.769C59.4241 230.992 59.9799 231.347 60.8024 231.837C60.958 231.948 61.0803 232.026 61.1692 232.07L63.1034 233.337ZM61.9029 245.509C63.1923 245.509 64.3039 245.131 65.2376 244.375C66.1713 243.619 66.6382 242.708 66.6382 241.641C66.6382 241.263 66.5826 240.907 66.4714 240.574C66.3603 240.24 66.2269 239.962 66.0713 239.74C65.9157 239.518 65.6711 239.273 65.3376 239.006C65.0042 238.739 64.7485 238.539 64.5707 238.406C64.3928 238.273 64.0704 238.061 63.6036 237.772C63.1367 237.483 62.8366 237.294 62.7032 237.205C62.392 237.005 62.0585 236.794 61.7028 236.572C61.3471 236.35 61.0581 236.161 60.8358 236.005L60.569 235.838C60.4356 235.838 60.1132 236.027 59.6019 236.405C59.0906 236.783 58.557 237.394 58.0013 238.239C57.4455 239.084 57.1565 239.996 57.1342 240.974C57.1342 242.285 57.6122 243.364 58.5682 244.208C59.5241 245.053 60.6357 245.487 61.9029 245.509Z" fill="white"/>
</g>
<g id="Group_24">
<path id="Vector_26" d="M71.9761 236.572C72.1317 235.639 72.732 234.561 73.7768 233.338C74.8217 232.115 76.1111 231.493 77.6451 231.47C78.4232 231.47 79.1346 231.67 79.7793 232.071C80.424 232.471 80.902 232.971 81.2133 233.571C82.147 232.171 83.2697 231.47 84.5813 231.47C85.4039 231.47 86.1153 231.715 86.7156 232.204C87.3158 232.693 87.627 233.349 87.6493 234.171C87.6493 234.816 87.4937 235.339 87.1824 235.739C86.8712 236.139 86.5711 236.384 86.282 236.472C85.993 236.561 85.7374 236.606 85.5151 236.606C85.0927 236.606 84.7481 236.484 84.4813 236.239C84.2145 235.994 84.0811 235.672 84.0811 235.272C84.0811 234.249 84.6369 233.549 85.7485 233.171C85.5039 232.882 85.0593 232.738 84.4146 232.738C84.1256 232.738 83.9144 232.76 83.781 232.804C82.9362 233.16 82.3137 233.894 81.9136 235.005C80.5797 239.918 79.9127 242.786 79.9127 243.609C79.9127 244.231 80.0906 244.676 80.4463 244.943C80.802 245.209 81.191 245.343 81.6134 245.343C82.436 245.343 83.2474 244.976 84.0478 244.242C84.8481 243.509 85.3928 242.608 85.6818 241.541C85.7485 241.319 85.8152 241.197 85.8819 241.174C85.9486 241.152 86.1264 241.13 86.4154 241.108H86.5488C86.8823 241.108 87.049 241.197 87.049 241.374C87.049 241.397 87.0268 241.519 86.9823 241.741C86.6266 243.009 85.9375 244.131 84.9148 245.109C83.8922 246.088 82.7028 246.577 81.3467 246.577C79.7904 246.577 78.6122 245.876 77.8118 244.476C76.9004 245.854 75.8555 246.543 74.6772 246.543H74.4771C73.3878 246.543 72.6097 246.254 72.1428 245.676C71.676 245.098 71.4314 244.487 71.4092 243.842C71.4092 243.131 71.6204 242.553 72.0428 242.108C72.4652 241.664 72.9654 241.441 73.5434 241.441C74.4994 241.441 74.9773 241.908 74.9773 242.842C74.9773 243.286 74.8439 243.675 74.5772 244.009C74.3104 244.342 74.0547 244.565 73.8102 244.676C73.5656 244.787 73.4211 244.843 73.3767 244.843L73.2766 244.876C73.2766 244.898 73.3433 244.943 73.4767 245.009C73.6101 245.076 73.7879 245.154 74.0103 245.243C74.2326 245.332 74.4438 245.365 74.6439 245.343C75.4442 245.343 76.1334 244.843 76.7114 243.842C76.9115 243.486 77.1671 242.731 77.4784 241.575C77.7896 240.419 78.1009 239.218 78.4121 237.973C78.7233 236.728 78.9012 235.994 78.9457 235.772C79.0568 235.172 79.1124 234.738 79.1124 234.472C79.1124 233.849 78.9457 233.405 78.6122 233.138C78.2787 232.871 77.9008 232.738 77.4784 232.738C76.5891 232.738 75.7554 233.093 74.9773 233.805C74.1992 234.516 73.6546 235.428 73.3433 236.539C73.2989 236.739 73.2433 236.85 73.1766 236.873C73.1099 236.895 72.932 236.917 72.643 236.939H72.1762C72.0428 236.806 71.9761 236.684 71.9761 236.572Z" fill="white"/>
</g>
<g id="Group_25">
<path id="Vector_27" d="M99.5244 238.306C99.5244 238.306 99.5244 238.161 99.5244 237.872C99.5244 237.583 99.68 237.361 99.9913 237.205H119.366C119.699 237.383 119.866 237.605 119.866 237.872C119.866 238.139 119.699 238.361 119.366 238.539H99.9913C99.68 238.383 99.5244 238.161 99.5244 237.872V238.306Z" fill="white"/>
</g>
<g id="Group_26">
<path id="Vector_28" d="M135.547 240.974C135.547 241.507 135.369 241.952 135.013 242.308C134.657 242.663 134.224 242.841 133.713 242.841H133.479C134.502 244.597 135.858 245.476 137.548 245.476C139.104 245.476 140.238 244.809 140.949 243.475C141.371 242.741 141.583 241.318 141.583 239.206C141.583 236.916 141.282 235.371 140.682 234.571C140.104 233.837 139.459 233.471 138.748 233.471H138.548C136.814 233.471 135.502 234.226 134.613 235.738C134.524 235.894 134.446 235.983 134.38 236.005C134.313 236.027 134.146 236.049 133.879 236.072C133.501 236.072 133.29 236.005 133.246 235.872C133.201 235.783 133.179 233.837 133.179 230.036V225.734C133.179 224.622 133.235 224.067 133.346 224.067C133.39 224.022 133.435 224 133.479 224C133.501 224 133.735 224.089 134.179 224.267C134.624 224.445 135.235 224.622 136.014 224.8C136.792 224.978 137.625 225.067 138.515 225.067C140.093 225.067 141.605 224.756 143.05 224.133C143.228 224.044 143.372 224 143.483 224C143.661 224 143.75 224.2 143.75 224.6V225.034C141.927 227.19 139.648 228.268 136.914 228.268C136.225 228.268 135.602 228.202 135.046 228.068L134.713 228.002V233.737C135.135 233.426 135.469 233.182 135.713 233.004C135.958 232.826 136.358 232.648 136.914 232.47C137.47 232.292 138.037 232.203 138.615 232.203C140.415 232.203 141.938 232.926 143.183 234.371C144.428 235.816 145.051 237.528 145.051 239.506C145.051 241.552 144.339 243.297 142.916 244.742C141.494 246.187 139.76 246.921 137.714 246.943C135.914 246.943 134.468 246.343 133.379 245.142C132.29 243.942 131.745 242.586 131.745 241.074C131.745 240.54 131.867 240.118 132.112 239.807C132.356 239.495 132.612 239.295 132.879 239.206C133.146 239.117 133.401 239.073 133.646 239.073C134.202 239.073 134.657 239.262 135.013 239.64C135.369 240.018 135.547 240.462 135.547 240.974Z" fill="white"/>
</g>
<g id="Group_27">
<path id="Vector_29" d="M148.487 236.572C148.642 235.639 149.243 234.561 150.288 233.338C151.332 232.115 152.622 231.493 154.156 231.47C154.934 231.47 155.645 231.67 156.29 232.071C156.935 232.471 157.413 232.971 157.724 233.571C158.658 232.171 159.78 231.47 161.092 231.47C161.915 231.47 162.626 231.715 163.226 232.204C163.827 232.693 164.138 233.349 164.16 234.171C164.16 234.816 164.004 235.339 163.693 235.739C163.382 236.139 163.082 236.384 162.793 236.472C162.504 236.561 162.248 236.606 162.026 236.606C161.603 236.606 161.259 236.484 160.992 236.239C160.725 235.994 160.592 235.672 160.592 235.272C160.592 234.249 161.148 233.549 162.259 233.171C162.015 232.882 161.57 232.738 160.925 232.738C160.636 232.738 160.425 232.76 160.292 232.804C159.447 233.16 158.824 233.894 158.424 235.005C157.09 239.918 156.423 242.786 156.423 243.609C156.423 244.231 156.601 244.676 156.957 244.943C157.313 245.209 157.702 245.343 158.124 245.343C158.947 245.343 159.758 244.976 160.559 244.242C161.359 243.509 161.904 242.608 162.193 241.541C162.259 241.319 162.326 241.197 162.393 241.174C162.459 241.152 162.637 241.13 162.926 241.108H163.06C163.393 241.108 163.56 241.197 163.56 241.374C163.56 241.397 163.538 241.519 163.493 241.741C163.137 243.009 162.448 244.131 161.426 245.109C160.403 246.088 159.214 246.577 157.857 246.577C156.301 246.577 155.123 245.876 154.323 244.476C153.411 245.854 152.366 246.543 151.188 246.543H150.988C149.899 246.543 149.12 246.254 148.654 245.676C148.187 245.098 147.942 244.487 147.92 243.842C147.92 243.131 148.131 242.553 148.554 242.108C148.976 241.664 149.476 241.441 150.054 241.441C151.01 241.441 151.488 241.908 151.488 242.842C151.488 243.286 151.355 243.675 151.088 244.009C150.821 244.342 150.565 244.565 150.321 244.676C150.076 244.787 149.932 244.843 149.887 244.843L149.787 244.876C149.787 244.898 149.854 244.943 149.987 245.009C150.121 245.076 150.299 245.154 150.521 245.243C150.743 245.332 150.955 245.365 151.155 245.343C151.955 245.343 152.644 244.843 153.222 243.842C153.422 243.486 153.678 242.731 153.989 241.575C154.3 240.419 154.612 239.218 154.923 237.973C155.234 236.728 155.412 235.994 155.456 235.772C155.568 235.172 155.623 234.738 155.623 234.472C155.623 233.849 155.456 233.405 155.123 233.138C154.789 232.871 154.412 232.738 153.989 232.738C153.1 232.738 152.266 233.093 151.488 233.805C150.71 234.516 150.165 235.428 149.854 236.539C149.81 236.739 149.754 236.85 149.687 236.873C149.621 236.895 149.443 236.917 149.154 236.939H148.687C148.554 236.806 148.487 236.684 148.487 236.572Z" fill="white"/>
</g>
<g id="Group_28">
<path id="Vector_30" d="M176.956 234.637C176.956 234.348 177.112 234.126 177.423 233.97H198.665C198.999 234.148 199.165 234.37 199.165 234.637C199.165 234.882 199.01 235.093 198.698 235.271L188.094 235.304H177.49C177.134 235.193 176.956 234.971 176.956 234.637ZM176.956 241.106C176.956 240.773 177.134 240.551 177.49 240.44H198.698C199.01 240.662 199.165 240.884 199.165 241.106C199.165 241.396 198.999 241.618 198.665 241.773H177.423C177.112 241.618 176.956 241.396 176.956 241.106Z" fill="white"/>
</g>
<g id="Group_29">
<path id="Vector_31" d="M217.401 226.936L216.967 227.102C216.656 227.214 216.211 227.325 215.633 227.436C215.055 227.547 214.41 227.625 213.699 227.669H213.065V226.135H213.699C214.744 226.091 215.711 225.924 216.6 225.635C217.489 225.346 218.112 225.079 218.468 224.835C218.823 224.59 219.135 224.346 219.401 224.101C219.446 224.035 219.579 224.001 219.802 224.001C220.002 224.001 220.191 224.068 220.368 224.201V234.172L220.402 244.176C220.557 244.332 220.691 244.432 220.802 244.476C220.913 244.521 221.18 244.565 221.602 244.61C222.025 244.654 222.714 244.676 223.67 244.676H224.537V246.21H224.17C223.703 246.144 221.936 246.11 218.868 246.11C215.844 246.11 214.099 246.144 213.632 246.21H213.232V244.676H214.099C214.588 244.676 215.011 244.676 215.366 244.676C215.722 244.676 216 244.665 216.2 244.643C216.4 244.621 216.578 244.588 216.734 244.543C216.889 244.499 216.978 244.476 217 244.476C217.023 244.476 217.089 244.421 217.2 244.31C217.312 244.198 217.378 244.154 217.401 244.176V226.936Z" fill="white"/>
<path id="Vector_32" d="M238.71 236.639C237.643 238.329 236.309 239.173 234.708 239.173C232.974 239.173 231.551 238.518 230.44 237.206C229.328 235.894 228.661 234.494 228.439 233.004C228.394 232.649 228.372 232.204 228.372 231.67V231.404C228.372 229.336 229.139 227.535 230.673 226.001C232.007 224.667 233.474 224 235.075 224C235.119 224 235.186 224 235.275 224C235.364 224 235.453 224.012 235.542 224.034H235.675C235.942 224.034 236.22 224.056 236.509 224.101C236.798 224.145 237.209 224.278 237.743 224.501C238.276 224.723 238.799 225.079 239.31 225.568C239.821 226.057 240.299 226.713 240.744 227.535C241.7 229.492 242.178 232.004 242.178 235.072C242.178 238.184 241.511 240.819 240.177 242.975C239.399 244.22 238.465 245.187 237.376 245.876C236.286 246.565 235.13 246.921 233.908 246.943C232.552 246.943 231.44 246.621 230.573 245.976C229.706 245.332 229.261 244.376 229.239 243.108C229.217 241.841 229.806 241.219 231.007 241.241C231.496 241.241 231.907 241.397 232.24 241.708C232.574 242.019 232.741 242.453 232.741 243.008C232.741 243.409 232.641 243.753 232.44 244.042C232.24 244.331 232.062 244.509 231.907 244.576C231.751 244.642 231.607 244.698 231.473 244.742L231.34 244.776C231.34 244.82 231.418 244.887 231.573 244.976C231.729 245.065 232.018 245.176 232.44 245.309C232.863 245.443 233.33 245.498 233.841 245.476H234.041C235.375 245.476 236.498 244.765 237.409 243.342C238.276 242.097 238.71 239.94 238.71 236.872V236.639ZM235.108 237.94C236.175 237.94 237.031 237.395 237.676 236.306C238.321 235.216 238.654 233.738 238.676 231.87C238.676 230.136 238.587 228.891 238.41 228.136C238.365 227.913 238.298 227.691 238.21 227.469C238.121 227.246 237.965 226.957 237.743 226.602C237.52 226.246 237.187 225.946 236.742 225.701C236.298 225.457 235.775 225.345 235.175 225.368C234.33 225.368 233.608 225.668 233.007 226.268C232.54 226.757 232.24 227.335 232.107 228.002C231.974 228.669 231.896 229.836 231.874 231.504C231.874 233.349 231.929 234.594 232.04 235.238C232.151 235.883 232.374 236.406 232.707 236.806C233.263 237.562 234.063 237.94 235.108 237.94Z" fill="white"/>
<path id="Vector_33" d="M247.277 231.904C246.677 231.904 246.199 231.704 245.843 231.304C245.487 230.904 245.31 230.415 245.31 229.837C245.31 228.259 245.899 226.891 247.077 225.735C248.255 224.579 249.723 224.001 251.479 224.001C253.502 224.001 255.191 224.624 256.548 225.869C257.904 227.114 258.593 228.725 258.615 230.704C258.615 231.66 258.393 232.571 257.948 233.438C257.504 234.305 256.97 235.061 256.348 235.706C255.725 236.351 254.836 237.173 253.68 238.174C252.879 238.863 251.768 239.886 250.345 241.242L248.378 243.109L250.912 243.143C254.402 243.143 256.259 243.087 256.481 242.976C256.637 242.931 256.903 241.942 257.281 240.008V239.908H258.615V240.008C258.593 240.075 258.448 241.086 258.182 243.042C257.915 244.999 257.748 246.021 257.681 246.11V246.21H245.31V245.577V245.177C245.31 245.021 245.376 244.854 245.51 244.676C245.643 244.499 245.977 244.11 246.51 243.509C247.155 242.798 247.711 242.175 248.177 241.642C248.378 241.42 248.755 241.008 249.311 240.408C249.867 239.808 250.245 239.396 250.445 239.174C250.645 238.952 250.967 238.585 251.412 238.074C251.857 237.562 252.168 237.184 252.346 236.94C252.524 236.695 252.779 236.362 253.113 235.94C253.446 235.517 253.68 235.161 253.813 234.872C253.947 234.583 254.113 234.261 254.313 233.905C254.513 233.55 254.658 233.194 254.747 232.838C254.836 232.483 254.914 232.149 254.98 231.838C255.047 231.527 255.08 231.16 255.08 230.737C255.08 229.337 254.702 228.125 253.947 227.102C253.191 226.08 252.112 225.569 250.712 225.569C249.978 225.569 249.333 225.757 248.778 226.135C248.222 226.513 247.833 226.88 247.611 227.236C247.388 227.592 247.277 227.803 247.277 227.869C247.277 227.892 247.333 227.903 247.444 227.903C247.844 227.903 248.255 228.058 248.678 228.37C249.1 228.681 249.311 229.192 249.311 229.904C249.311 230.459 249.133 230.926 248.778 231.304C248.422 231.682 247.922 231.882 247.277 231.904Z" fill="white"/>
<path id="Vector_34" d="M263.52 226.702C264.765 224.901 266.466 224 268.622 224C269.689 224 270.756 224.289 271.823 224.867C272.891 225.446 273.758 226.468 274.424 227.935C275.247 229.781 275.658 232.315 275.658 235.539C275.658 238.984 275.18 241.619 274.224 243.442C273.78 244.376 273.168 245.12 272.39 245.676C271.612 246.232 270.934 246.577 270.356 246.71C269.778 246.843 269.211 246.921 268.655 246.943C268.077 246.943 267.499 246.877 266.921 246.743C266.343 246.61 265.665 246.254 264.887 245.676C264.109 245.098 263.498 244.353 263.053 243.442C262.097 241.619 261.619 238.984 261.619 235.539C261.619 231.67 262.253 228.725 263.52 226.702ZM271.023 226.301C270.356 225.59 269.567 225.234 268.655 225.234C267.722 225.234 266.921 225.59 266.254 226.301C265.699 226.879 265.332 227.68 265.154 228.702C264.976 229.725 264.887 231.859 264.887 235.105C264.887 238.618 264.976 240.93 265.154 242.041C265.332 243.153 265.732 244.031 266.354 244.676C266.977 245.343 267.744 245.676 268.655 245.676C269.545 245.676 270.301 245.343 270.923 244.676C271.568 244.009 271.968 243.075 272.124 241.875C272.279 240.674 272.368 238.418 272.39 235.105C272.39 231.882 272.301 229.758 272.124 228.736C271.946 227.713 271.579 226.902 271.023 226.301Z" fill="white"/>
</g>
</g>
<path id="Line 49 (Stroke)" fill-rule="evenodd" clip-rule="evenodd" d="M331 268V0L335 0V268H331Z" fill="#E8A1EE"/>
<g id="Group 573">
<g id="Group 581">
<g id="Group_30">
<path id="Vector_35" d="M428.835 40.769C428.234 40.769 427.767 40.58 427.434 40.2021C427.1 39.8241 426.923 39.335 426.9 38.7348C426.9 37.5121 427.434 36.4227 428.501 35.4668C429.568 34.5108 430.858 34.0328 432.369 34.0328C433.147 34.0328 433.637 34.044 433.837 34.0662C435.482 34.333 436.738 34.9221 437.605 35.8336C438.472 36.7451 438.916 37.7344 438.939 38.8015C438.939 39.9575 438.561 41.0802 437.805 42.1696C437.049 43.2589 436.004 44.0481 434.67 44.5372L434.57 44.6039C434.57 44.6261 434.67 44.6595 434.87 44.704C435.07 44.7484 435.393 44.8485 435.837 45.0041C436.282 45.1597 436.704 45.3931 437.105 45.7044C438.928 46.8826 439.839 48.4388 439.839 50.373C439.839 52.1293 439.15 53.6632 437.772 54.9749C436.393 56.2866 434.648 56.9424 432.536 56.9424C430.758 56.9424 429.224 56.4644 427.934 55.5085C426.645 54.5525 426 53.3409 426 51.8736C426 51.2511 426.2 50.7509 426.6 50.373C427 49.995 427.501 49.795 428.101 49.7727C428.723 49.7727 429.235 49.9728 429.635 50.373C430.035 50.7731 430.235 51.2734 430.235 51.8736C430.235 52.1182 430.202 52.3405 430.135 52.5405C430.068 52.7406 429.991 52.9185 429.902 53.0741C429.813 53.2297 429.69 53.3631 429.535 53.4743C429.379 53.5854 429.246 53.6744 429.135 53.741C429.023 53.8077 428.912 53.8522 428.801 53.8744C428.69 53.8967 428.601 53.93 428.534 53.9745L428.401 54.0078C429.535 55.0082 430.913 55.5085 432.536 55.5085C433.759 55.5085 434.681 54.9193 435.304 53.741C435.682 53.0074 435.871 51.8847 435.871 50.373V49.706C435.871 47.594 435.159 46.1823 433.737 45.4709C433.403 45.3375 432.725 45.2597 431.702 45.2375L430.302 45.2042L430.202 45.1375C430.157 45.0708 430.135 44.8929 430.135 44.6039C430.135 44.2037 430.224 44.0037 430.402 44.0037C431.024 44.0037 431.669 43.9481 432.336 43.8369C433.092 43.7258 433.781 43.2589 434.404 42.4363C435.026 41.6138 435.337 40.3688 435.337 38.7015V38.4347C435.337 37.1675 434.948 36.2893 434.17 35.8002C433.681 35.489 433.159 35.3334 432.603 35.3334C431.891 35.3334 431.236 35.4557 430.635 35.7002C430.035 35.9447 429.613 36.2004 429.368 36.4672C429.124 36.734 429.001 36.8674 429.001 36.8674H429.101C429.168 36.8896 429.257 36.9118 429.368 36.934C429.479 36.9563 429.59 37.0119 429.702 37.1008C429.813 37.1897 429.946 37.2675 430.102 37.3342C430.257 37.4009 430.368 37.5232 430.435 37.701C430.502 37.8789 430.591 38.0456 430.702 38.2012C430.813 38.3569 430.846 38.5792 430.802 38.8682C430.802 39.3573 430.646 39.7908 430.335 40.1687C430.024 40.5467 429.524 40.7467 428.835 40.769Z" fill="white"/>
</g>
<g id="Group_31">
<path id="Vector_36" d="M443.005 46.572C443.161 45.6383 443.761 44.5601 444.806 43.3373C445.851 42.1146 447.14 41.4921 448.674 41.4699C449.453 41.4699 450.164 41.67 450.809 42.0701C451.453 42.4703 451.931 42.9705 452.243 43.5708C453.176 42.1702 454.299 41.4699 455.611 41.4699C456.433 41.4699 457.145 41.7144 457.745 42.2035C458.345 42.6926 458.656 43.3484 458.679 44.171C458.679 44.8157 458.523 45.3382 458.212 45.7383C457.9 46.1385 457.6 46.383 457.311 46.472C457.022 46.5609 456.767 46.6053 456.544 46.6053C456.122 46.6053 455.777 46.4831 455.511 46.2385C455.244 45.994 455.11 45.6716 455.11 45.2715C455.11 44.2488 455.666 43.5485 456.778 43.1706C456.533 42.8816 456.089 42.7371 455.444 42.7371C455.155 42.7371 454.944 42.7593 454.81 42.8038C453.966 43.1595 453.343 43.8931 452.943 45.0047C451.609 49.9178 450.942 52.7857 450.942 53.6083C450.942 54.2307 451.12 54.6754 451.476 54.9422C451.831 55.2089 452.22 55.3423 452.643 55.3423C453.465 55.3423 454.277 54.9755 455.077 54.2419C455.877 53.5082 456.422 52.6079 456.711 51.5407C456.778 51.3184 456.844 51.1962 456.911 51.1739C456.978 51.1517 457.156 51.1295 457.445 51.1072H457.578C457.912 51.1072 458.078 51.1962 458.078 51.374C458.078 51.3962 458.056 51.5185 458.012 51.7408C457.656 53.008 456.967 54.1307 455.944 55.1089C454.921 56.0871 453.732 56.5762 452.376 56.5762C450.82 56.5762 449.641 55.8759 448.841 54.4753C447.93 55.8536 446.885 56.5428 445.707 56.5428H445.506C444.417 56.5428 443.639 56.2538 443.172 55.6758C442.705 55.0978 442.461 54.4864 442.438 53.8417C442.438 53.1303 442.65 52.5523 443.072 52.1076C443.494 51.663 443.995 51.4407 444.573 51.4407C445.529 51.4407 446.007 51.9076 446.007 52.8413C446.007 53.2859 445.873 53.675 445.606 54.0084C445.34 54.3419 445.084 54.5642 444.839 54.6754C444.595 54.7865 444.45 54.8421 444.406 54.8421L444.306 54.8755C444.306 54.8977 444.373 54.9422 444.506 55.0089C444.639 55.0755 444.817 55.1534 445.04 55.2423C445.262 55.3312 445.473 55.3646 445.673 55.3423C446.473 55.3423 447.163 54.8421 447.741 53.8417C447.941 53.486 448.196 52.7301 448.508 51.5741C448.819 50.418 449.13 49.2175 449.441 47.9726C449.753 46.7276 449.93 45.994 449.975 45.7717C450.086 45.1714 450.142 44.7379 450.142 44.4711C450.142 43.8486 449.975 43.404 449.641 43.1372C449.308 42.8705 448.93 42.7371 448.508 42.7371C447.618 42.7371 446.785 43.0928 446.007 43.8042C445.229 44.5156 444.684 45.4271 444.373 46.5387C444.328 46.7387 444.273 46.8499 444.206 46.8721C444.139 46.8944 443.961 46.9166 443.672 46.9388H443.205C443.072 46.8054 443.005 46.6832 443.005 46.572Z" fill="white"/>
</g>
<g id="Group_32">
<path id="Vector_37" d="M471.48 44.6366C471.48 44.3476 471.636 44.1253 471.947 43.9697H493.19C493.523 44.1475 493.69 44.3699 493.69 44.6366C493.69 44.8812 493.534 45.0924 493.223 45.2702L482.618 45.3036H472.014C471.658 45.1924 471.48 44.9701 471.48 44.6366ZM471.48 51.106C471.48 50.7725 471.658 50.5502 472.014 50.4391H493.223C493.534 50.6614 493.69 50.8837 493.69 51.106C493.69 51.395 493.523 51.6173 493.19 51.7729H471.947C471.636 51.6173 471.48 51.395 471.48 51.106Z" fill="white"/>
</g>
<g id="Group_33">
<path id="Vector_38" d="M511.919 36.9353L511.486 37.102C511.174 37.2132 510.73 37.3243 510.152 37.4355C509.574 37.5466 508.929 37.6244 508.218 37.6689H507.584V36.1349H508.218C509.262 36.0905 510.23 35.9237 511.119 35.6347C512.008 35.3457 512.631 35.0789 512.986 34.8344C513.342 34.5898 513.653 34.3453 513.92 34.1007C513.964 34.0341 514.098 34.0007 514.32 34.0007C514.52 34.0007 514.709 34.0674 514.887 34.2008V44.1716L514.92 54.1758C515.076 54.3314 515.209 54.4314 515.321 54.4759C515.432 54.5204 515.698 54.5648 516.121 54.6093C516.543 54.6538 517.232 54.676 518.188 54.676H519.055V56.21H518.689C518.222 56.1433 516.454 56.1099 513.386 56.1099C510.363 56.1099 508.618 56.1433 508.151 56.21H507.751V54.676H508.618C509.107 54.676 509.529 54.676 509.885 54.676C510.241 54.676 510.519 54.6649 510.719 54.6426C510.919 54.6204 511.097 54.5871 511.252 54.5426C511.408 54.4981 511.497 54.4759 511.519 54.4759C511.541 54.4759 511.608 54.4203 511.719 54.3092C511.83 54.198 511.897 54.1535 511.919 54.1758V36.9353Z" fill="white"/>
<path id="Vector_39" d="M533.228 46.6386C532.161 48.3282 530.827 49.173 529.227 49.173C527.493 49.173 526.07 48.5171 524.958 47.2055C523.847 45.8938 523.18 44.4932 522.957 43.0037C522.913 42.648 522.891 42.2034 522.891 41.6698V41.4031C522.891 39.3355 523.658 37.5348 525.192 36.0008C526.525 34.6669 527.993 34 529.593 34C529.638 34 529.705 34 529.794 34C529.882 34 529.971 34.0111 530.06 34.0333H530.194C530.46 34.0333 530.738 34.0556 531.027 34.1C531.316 34.1445 531.728 34.2779 532.261 34.5002C532.795 34.7225 533.317 35.0782 533.829 35.5673C534.34 36.0564 534.818 36.7122 535.262 37.5348C536.218 39.4912 536.696 42.0033 536.696 45.0713C536.696 48.1837 536.029 50.8181 534.696 52.9746C533.917 54.2195 532.984 55.1866 531.894 55.8758C530.805 56.5649 529.649 56.9206 528.426 56.9429C527.07 56.9429 525.959 56.6205 525.092 55.9758C524.225 55.3311 523.78 54.3751 523.758 53.1079C523.735 51.8407 524.325 51.2183 525.525 51.2405C526.014 51.2405 526.425 51.3961 526.759 51.7074C527.092 52.0186 527.259 52.4521 527.259 53.0079C527.259 53.4081 527.159 53.7527 526.959 54.0417C526.759 54.3307 526.581 54.5085 526.425 54.5752C526.27 54.6419 526.125 54.6975 525.992 54.742L525.859 54.7753C525.859 54.8198 525.936 54.8865 526.092 54.9754C526.248 55.0643 526.537 55.1755 526.959 55.3089C527.381 55.4422 527.848 55.4978 528.36 55.4756H528.56C529.894 55.4756 531.016 54.7642 531.928 53.3414C532.795 52.0964 533.228 49.94 533.228 46.872V46.6386ZM529.627 47.9391C530.694 47.9391 531.55 47.3944 532.195 46.3051C532.839 45.2158 533.173 43.7374 533.195 41.8699C533.195 40.1359 533.106 38.8909 532.928 38.135C532.884 37.9127 532.817 37.6904 532.728 37.4681C532.639 37.2458 532.484 36.9568 532.261 36.6011C532.039 36.2454 531.705 35.9452 531.261 35.7007C530.816 35.4561 530.294 35.345 529.693 35.3672C528.849 35.3672 528.126 35.6673 527.526 36.2676C527.059 36.7567 526.759 37.3347 526.626 38.0016C526.492 38.6686 526.414 39.8357 526.392 41.5031C526.392 43.3483 526.448 44.5933 526.559 45.238C526.67 45.8827 526.892 46.4051 527.226 46.8053C527.782 47.5612 528.582 47.9391 529.627 47.9391Z" fill="white"/>
<path id="Vector_40" d="M541.796 41.904C541.195 41.904 540.717 41.7039 540.362 41.3038C540.006 40.9036 539.828 40.4145 539.828 39.8365C539.828 38.258 540.417 36.8908 541.596 35.7348C542.774 34.5787 544.241 34.0007 545.997 34.0007C548.02 34.0007 549.71 34.6232 551.066 35.8682C552.422 37.1131 553.111 38.7249 553.134 40.7035C553.134 41.6595 552.911 42.5709 552.467 43.438C552.022 44.305 551.489 45.0609 550.866 45.7056C550.244 46.3503 549.354 47.1729 548.198 48.1733C547.398 48.8625 546.286 49.8851 544.864 51.2412L542.896 53.1087L545.43 53.142C548.921 53.142 550.777 53.0864 550.999 52.9753C551.155 52.9308 551.422 51.9415 551.8 50.0074V49.9073H553.134V50.0074C553.111 50.0741 552.967 51.0856 552.7 53.042C552.433 54.9983 552.267 56.021 552.2 56.1099V56.21H539.828V55.5764V55.1762C539.828 55.0206 539.895 54.8538 540.028 54.676C540.162 54.4981 540.495 54.1091 541.029 53.5088C541.673 52.7974 542.229 52.1749 542.696 51.6414C542.896 51.4191 543.274 51.0078 543.83 50.4075C544.386 49.8073 544.764 49.396 544.964 49.1737C545.164 48.9514 545.486 48.5846 545.931 48.0732C546.375 47.5619 546.687 47.184 546.864 46.9394C547.042 46.6949 547.298 46.3614 547.631 45.939C547.965 45.5166 548.198 45.1609 548.332 44.8719C548.465 44.5829 548.632 44.2605 548.832 43.9048C549.032 43.5491 549.176 43.1934 549.265 42.8377C549.354 42.482 549.432 42.1485 549.499 41.8373C549.566 41.5261 549.599 41.1592 549.599 40.7368C549.599 39.3363 549.221 38.1246 548.465 37.102C547.709 36.0794 546.631 35.568 545.23 35.568C544.497 35.568 543.852 35.757 543.296 36.1349C542.74 36.5129 542.351 36.8797 542.129 37.2354C541.907 37.5911 541.796 37.8023 541.796 37.869C541.796 37.8912 541.851 37.9023 541.962 37.9023C542.363 37.9023 542.774 38.058 543.196 38.3692C543.619 38.6804 543.83 39.1918 543.83 39.9032C543.83 40.459 543.652 40.9258 543.296 41.3038C542.941 41.6817 542.44 41.8818 541.796 41.904Z" fill="white"/>
<path id="Vector_41" d="M558.038 36.7011C559.283 34.9004 560.984 34 563.141 34C564.208 34 565.275 34.289 566.342 34.867C567.409 35.445 568.276 36.4677 568.943 37.935C569.766 39.7802 570.177 42.3146 570.177 45.5381C570.177 48.984 569.699 51.6184 568.743 53.4414C568.298 54.3751 567.687 55.1199 566.909 55.6757C566.131 56.2315 565.453 56.5761 564.875 56.7094C564.297 56.8428 563.73 56.9206 563.174 56.9429C562.596 56.9429 562.018 56.8762 561.44 56.7428C560.862 56.6094 560.184 56.2537 559.406 55.6757C558.628 55.0977 558.016 54.3529 557.572 53.4414C556.616 51.6184 556.138 48.984 556.138 45.5381C556.138 41.6698 556.771 38.7242 558.038 36.7011ZM565.542 36.3009C564.875 35.5895 564.085 35.2338 563.174 35.2338C562.24 35.2338 561.44 35.5895 560.773 36.3009C560.217 36.879 559.85 37.6793 559.673 38.7019C559.495 39.7246 559.406 41.8588 559.406 45.1046C559.406 48.6172 559.495 50.9293 559.673 52.0408C559.85 53.1524 560.251 54.0305 560.873 54.6753C561.495 55.3422 562.262 55.6757 563.174 55.6757C564.063 55.6757 564.819 55.3422 565.442 54.6753C566.086 54.0083 566.486 53.0746 566.642 51.8741C566.798 50.6736 566.887 48.4171 566.909 45.1046C566.909 41.881 566.82 39.7579 566.642 38.7353C566.464 37.7126 566.097 36.9012 565.542 36.3009Z" fill="white"/>
</g>
</g>
<g id="Group 582">
<g id="Group_34">
<path id="Vector_42" d="M391.303 144.046C391.303 143.468 391.504 142.99 391.904 142.612C392.304 142.234 392.782 142.045 393.338 142.045C393.871 142.045 394.327 142.234 394.705 142.612C395.083 142.99 395.283 143.468 395.305 144.046C395.327 144.624 395.138 145.102 394.738 145.48C394.338 145.858 393.86 146.047 393.304 146.047C392.726 146.047 392.248 145.858 391.87 145.48C391.492 145.102 391.303 144.624 391.303 144.046ZM385.001 156.485C385.579 156.485 386.046 156.674 386.401 157.052C386.757 157.429 386.946 157.907 386.968 158.485C386.968 159.019 386.79 159.486 386.435 159.886C386.079 160.286 385.59 160.486 384.967 160.486C384.389 160.486 383.923 160.297 383.567 159.919C383.211 159.541 383.022 159.064 383 158.485C383 157.907 383.189 157.429 383.567 157.052C383.945 156.674 384.423 156.485 385.001 156.485ZM399.674 158.485C399.674 157.907 399.863 157.429 400.241 157.052C400.618 156.674 401.096 156.485 401.674 156.485C402.208 156.485 402.664 156.674 403.042 157.052C403.42 157.429 403.62 157.907 403.642 158.485C403.642 158.997 403.464 159.453 403.108 159.853C402.753 160.253 402.264 160.464 401.641 160.486C401.063 160.486 400.596 160.297 400.241 159.919C399.885 159.541 399.696 159.064 399.674 158.485Z" fill="white"/>
</g>
<g id="Group_35">
<path id="Vector_43" d="M415.441 148.116C415.597 147.182 416.197 146.104 417.242 144.881C418.287 143.659 419.576 143.036 421.11 143.014C421.888 143.014 422.599 143.214 423.244 143.614C423.889 144.014 424.367 144.514 424.678 145.115C425.612 143.714 426.735 143.014 428.046 143.014C428.869 143.014 429.58 143.258 430.18 143.747C430.781 144.237 431.092 144.892 431.114 145.715C431.114 146.36 430.959 146.882 430.647 147.282C430.336 147.682 430.036 147.927 429.747 148.016C429.458 148.105 429.202 148.149 428.98 148.149C428.558 148.149 428.213 148.027 427.946 147.782C427.679 147.538 427.546 147.216 427.546 146.815C427.546 145.793 428.102 145.092 429.213 144.715C428.969 144.426 428.524 144.281 427.879 144.281C427.59 144.281 427.379 144.303 427.246 144.348C426.401 144.703 425.779 145.437 425.378 146.549C424.045 151.462 423.378 154.33 423.378 155.152C423.378 155.775 423.555 156.219 423.911 156.486C424.267 156.753 424.656 156.886 425.078 156.886C425.901 156.886 426.712 156.519 427.513 155.786C428.313 155.052 428.858 154.152 429.147 153.085C429.213 152.862 429.28 152.74 429.347 152.718C429.413 152.696 429.591 152.673 429.88 152.651H430.014C430.347 152.651 430.514 152.74 430.514 152.918C430.514 152.94 430.492 153.062 430.447 153.285C430.091 154.552 429.402 155.675 428.38 156.653C427.357 157.631 426.168 158.12 424.811 158.12C423.255 158.12 422.077 157.42 421.277 156.019C420.365 157.398 419.32 158.087 418.142 158.087H417.942C416.853 158.087 416.075 157.798 415.608 157.22C415.141 156.642 414.896 156.03 414.874 155.386C414.874 154.674 415.085 154.096 415.508 153.652C415.93 153.207 416.43 152.985 417.008 152.985C417.964 152.985 418.442 153.452 418.442 154.385C418.442 154.83 418.309 155.219 418.042 155.552C417.775 155.886 417.52 156.108 417.275 156.219C417.03 156.33 416.886 156.386 416.842 156.386L416.741 156.419C416.741 156.442 416.808 156.486 416.942 156.553C417.075 156.619 417.253 156.697 417.475 156.786C417.697 156.875 417.909 156.909 418.109 156.886C418.909 156.886 419.598 156.386 420.176 155.386C420.376 155.03 420.632 154.274 420.943 153.118C421.254 151.962 421.566 150.761 421.877 149.517C422.188 148.272 422.366 147.538 422.41 147.316C422.522 146.715 422.577 146.282 422.577 146.015C422.577 145.393 422.41 144.948 422.077 144.681C421.744 144.414 421.366 144.281 420.943 144.281C420.054 144.281 419.22 144.637 418.442 145.348C417.664 146.06 417.119 146.971 416.808 148.083C416.764 148.283 416.708 148.394 416.641 148.416C416.575 148.438 416.397 148.461 416.108 148.483H415.641C415.508 148.349 415.441 148.227 415.441 148.116Z" fill="white"/>
</g>
<g id="Group_36">
<path id="Vector_44" d="M443.904 146.181C443.904 145.892 444.06 145.669 444.371 145.514H465.613C465.947 145.691 466.114 145.914 466.114 146.181C466.114 146.425 465.958 146.636 465.647 146.814L455.042 146.848H444.438C444.082 146.736 443.904 146.514 443.904 146.181ZM443.904 152.65C443.904 152.316 444.082 152.094 444.438 151.983H465.647C465.958 152.205 466.114 152.428 466.114 152.65C466.114 152.939 465.947 153.161 465.613 153.317H444.371C444.06 153.161 443.904 152.939 443.904 152.65Z" fill="white"/>
</g>
<g id="Group_37">
<g id="Group_38">
<path id="Vector_45" d="M491.692 115.935L491.258 116.102C490.947 116.213 490.502 116.324 489.924 116.435C489.346 116.547 488.701 116.624 487.99 116.669H487.356V115.135H487.99C489.035 115.09 490.002 114.924 490.891 114.635C491.781 114.346 492.403 114.079 492.759 113.834C493.114 113.59 493.426 113.345 493.692 113.101C493.737 113.034 493.87 113.001 494.093 113.001C494.293 113.001 494.482 113.067 494.659 113.201V123.172L494.693 133.176C494.848 133.331 494.982 133.431 495.093 133.476C495.204 133.52 495.471 133.565 495.893 133.609C496.316 133.654 497.005 133.676 497.961 133.676H498.828V135.21H498.461C497.994 135.143 496.227 135.11 493.159 135.11C490.135 135.11 488.39 135.143 487.923 135.21H487.523V133.676H488.39C488.879 133.676 489.302 133.676 489.657 133.676C490.013 133.676 490.291 133.665 490.491 133.643C490.691 133.62 490.869 133.587 491.025 133.543C491.18 133.498 491.269 133.476 491.291 133.476C491.314 133.476 491.38 133.42 491.492 133.309C491.603 133.198 491.669 133.154 491.692 133.176V115.935Z" fill="white"/>
<path id="Vector_46" d="M513.001 125.639C511.934 127.328 510.6 128.173 508.999 128.173C507.265 128.173 505.842 127.517 504.731 126.205C503.619 124.894 502.952 123.493 502.73 122.004C502.685 121.648 502.663 121.203 502.663 120.67V120.403C502.663 118.336 503.43 116.535 504.964 115.001C506.298 113.667 507.765 113 509.366 113C509.41 113 509.477 113 509.566 113C509.655 113 509.744 113.011 509.833 113.033H509.966C510.233 113.033 510.511 113.056 510.8 113.1C511.089 113.144 511.5 113.278 512.034 113.5C512.567 113.723 513.09 114.078 513.601 114.567C514.112 115.056 514.59 115.712 515.035 116.535C515.991 118.491 516.469 121.003 516.469 124.071C516.469 127.184 515.802 129.818 514.468 131.975C513.69 133.22 512.756 134.187 511.667 134.876C510.577 135.565 509.421 135.921 508.199 135.943C506.843 135.943 505.731 135.621 504.864 134.976C503.997 134.331 503.552 133.375 503.53 132.108C503.508 130.841 504.097 130.218 505.298 130.24C505.787 130.24 506.198 130.396 506.531 130.707C506.865 131.019 507.032 131.452 507.032 132.008C507.032 132.408 506.932 132.753 506.731 133.042C506.531 133.331 506.354 133.509 506.198 133.575C506.042 133.642 505.898 133.697 505.764 133.742L505.631 133.775C505.631 133.82 505.709 133.886 505.864 133.975C506.02 134.064 506.309 134.175 506.731 134.309C507.154 134.442 507.621 134.498 508.132 134.476H508.332C509.666 134.476 510.789 133.764 511.7 132.341C512.567 131.096 513.001 128.94 513.001 125.872V125.639ZM509.399 126.939C510.466 126.939 511.322 126.394 511.967 125.305C512.612 124.216 512.945 122.737 512.967 120.87C512.967 119.136 512.878 117.891 512.701 117.135C512.656 116.913 512.589 116.69 512.501 116.468C512.412 116.246 512.256 115.957 512.034 115.601C511.811 115.245 511.478 114.945 511.033 114.701C510.589 114.456 510.066 114.345 509.466 114.367C508.621 114.367 507.899 114.667 507.298 115.268C506.831 115.757 506.531 116.335 506.398 117.002C506.265 117.669 506.187 118.836 506.165 120.503C506.165 122.348 506.22 123.593 506.331 124.238C506.442 124.883 506.665 125.405 506.998 125.805C507.554 126.561 508.354 126.939 509.399 126.939Z" fill="white"/>
<path id="Vector_47" d="M521.568 120.904C520.968 120.904 520.49 120.704 520.134 120.304C519.778 119.904 519.601 119.414 519.601 118.836C519.601 117.258 520.19 115.891 521.368 114.735C522.546 113.579 524.014 113.001 525.77 113.001C527.793 113.001 529.482 113.623 530.839 114.868C532.195 116.113 532.884 117.725 532.906 119.704C532.906 120.659 532.684 121.571 532.239 122.438C531.795 123.305 531.261 124.061 530.639 124.706C530.016 125.35 529.127 126.173 527.971 127.173C527.17 127.862 526.059 128.885 524.636 130.241L522.669 132.109L525.203 132.142C528.693 132.142 530.55 132.086 530.772 131.975C530.928 131.931 531.194 130.942 531.572 129.007V128.907H532.906V129.007C532.884 129.074 532.739 130.086 532.473 132.042C532.206 133.998 532.039 135.021 531.972 135.11V135.21H519.601V134.576V134.176C519.601 134.021 519.667 133.854 519.801 133.676C519.934 133.498 520.268 133.109 520.801 132.509C521.446 131.797 522.002 131.175 522.468 130.641C522.669 130.419 523.046 130.008 523.602 129.408C524.158 128.807 524.536 128.396 524.736 128.174C524.936 127.951 525.258 127.585 525.703 127.073C526.148 126.562 526.459 126.184 526.637 125.939C526.815 125.695 527.07 125.361 527.404 124.939C527.737 124.517 527.971 124.161 528.104 123.872C528.238 123.583 528.404 123.261 528.604 122.905C528.804 122.549 528.949 122.193 529.038 121.838C529.127 121.482 529.205 121.149 529.271 120.837C529.338 120.526 529.371 120.159 529.371 119.737C529.371 118.336 528.993 117.125 528.238 116.102C527.482 115.079 526.403 114.568 525.003 114.568C524.269 114.568 523.624 114.757 523.069 115.135C522.513 115.513 522.124 115.88 521.902 116.235C521.679 116.591 521.568 116.802 521.568 116.869C521.568 116.891 521.624 116.902 521.735 116.902C522.135 116.902 522.546 117.058 522.969 117.369C523.391 117.68 523.602 118.192 523.602 118.903C523.602 119.459 523.424 119.926 523.069 120.304C522.713 120.682 522.213 120.882 521.568 120.904Z" fill="white"/>
<path id="Vector_48" d="M537.811 115.701C539.056 113.9 540.757 113 542.913 113C543.98 113 545.047 113.289 546.114 113.867C547.182 114.445 548.049 115.468 548.715 116.935C549.538 118.78 549.949 121.315 549.949 124.538C549.949 127.984 549.471 130.618 548.515 132.441C548.071 133.375 547.459 134.12 546.681 134.676C545.903 135.231 545.225 135.576 544.647 135.709C544.069 135.843 543.502 135.921 542.946 135.943C542.368 135.943 541.79 135.876 541.212 135.743C540.634 135.609 539.956 135.254 539.178 134.676C538.4 134.098 537.789 133.353 537.344 132.441C536.388 130.618 535.91 127.984 535.91 124.538C535.91 120.67 536.544 117.724 537.811 115.701ZM545.314 115.301C544.647 114.59 543.858 114.234 542.946 114.234C542.013 114.234 541.212 114.59 540.545 115.301C539.99 115.879 539.623 116.679 539.445 117.702C539.267 118.725 539.178 120.859 539.178 124.105C539.178 127.617 539.267 129.929 539.445 131.041C539.623 132.152 540.023 133.031 540.645 133.675C541.268 134.342 542.035 134.676 542.946 134.676C543.836 134.676 544.592 134.342 545.214 133.675C545.859 133.008 546.259 132.075 546.415 130.874C546.57 129.674 546.659 127.417 546.681 124.105C546.681 120.881 546.592 118.758 546.415 117.735C546.237 116.713 545.87 115.901 545.314 115.301Z" fill="white"/>
</g>
<g id="Group_39">
<path id="Vector_49" d="M513.832 165.188C513.231 165.188 512.764 164.999 512.431 164.622C512.098 164.244 511.92 163.754 511.897 163.154C511.897 161.931 512.431 160.842 513.498 159.886C514.565 158.93 515.855 158.452 517.366 158.452C518.144 158.452 518.634 158.463 518.834 158.486C520.479 158.752 521.735 159.342 522.602 160.253C523.469 161.165 523.914 162.154 523.936 163.221C523.936 164.377 523.558 165.5 522.802 166.589C522.046 167.678 521.001 168.468 519.667 168.957L519.567 169.023C519.567 169.046 519.667 169.079 519.867 169.123C520.068 169.168 520.39 169.268 520.835 169.424C521.279 169.579 521.702 169.813 522.102 170.124C523.925 171.302 524.836 172.858 524.836 174.792C524.836 176.549 524.147 178.083 522.769 179.394C521.39 180.706 519.645 181.362 517.533 181.362C515.755 181.362 514.221 180.884 512.931 179.928C511.642 178.972 510.997 177.76 510.997 176.293C510.997 175.671 511.197 175.17 511.597 174.792C511.997 174.414 512.498 174.214 513.098 174.192C513.72 174.192 514.232 174.392 514.632 174.792C515.032 175.193 515.232 175.693 515.232 176.293C515.232 176.538 515.199 176.76 515.132 176.96C515.065 177.16 514.988 177.338 514.899 177.494C514.81 177.649 514.687 177.783 514.532 177.894C514.376 178.005 514.243 178.094 514.132 178.16C514.021 178.227 513.909 178.272 513.798 178.294C513.687 178.316 513.598 178.349 513.531 178.394L513.398 178.427C514.532 179.428 515.91 179.928 517.533 179.928C518.756 179.928 519.678 179.339 520.301 178.16C520.679 177.427 520.868 176.304 520.868 174.792V174.125C520.868 172.013 520.156 170.602 518.734 169.89C518.4 169.757 517.722 169.679 516.699 169.657L515.299 169.624L515.199 169.557C515.154 169.49 515.132 169.312 515.132 169.023C515.132 168.623 515.221 168.423 515.399 168.423C516.021 168.423 516.666 168.368 517.333 168.256C518.089 168.145 518.778 167.678 519.401 166.856C520.023 166.033 520.334 164.788 520.334 163.121V162.854C520.334 161.587 519.945 160.709 519.167 160.22C518.678 159.908 518.156 159.753 517.6 159.753C516.888 159.753 516.233 159.875 515.632 160.12C515.032 160.364 514.61 160.62 514.365 160.887C514.121 161.153 513.998 161.287 513.998 161.287H514.098C514.165 161.309 514.254 161.331 514.365 161.353C514.476 161.376 514.587 161.431 514.699 161.52C514.81 161.609 514.943 161.687 515.099 161.754C515.254 161.82 515.366 161.943 515.432 162.12C515.499 162.298 515.588 162.465 515.699 162.621C515.81 162.776 515.844 162.999 515.799 163.288C515.799 163.777 515.643 164.21 515.332 164.588C515.021 164.966 514.521 165.166 513.832 165.188Z" fill="white"/>
</g>
<path id="Vector_50" d="M554.615 150.417H481.251V148.416H554.615V150.417Z" fill="white"/>
</g>
<g id="Group_40">
<path id="Vector_51" d="M569.744 146.181C569.744 145.892 569.9 145.669 570.211 145.514H591.453C591.787 145.691 591.953 145.914 591.953 146.181C591.953 146.425 591.798 146.636 591.487 146.814L580.882 146.848H570.278C569.922 146.736 569.744 146.514 569.744 146.181ZM569.744 152.65C569.744 152.316 569.922 152.094 570.278 151.983H591.487C591.798 152.205 591.953 152.428 591.953 152.65C591.953 152.939 591.787 153.161 591.453 153.317H570.211C569.9 153.161 569.744 152.939 569.744 152.65Z" fill="white"/>
</g>
<g id="Group_41">
<path id="Vector_52" d="M604.488 147.315C604.488 143.692 605.389 140.824 607.19 138.712C608.99 136.6 610.991 135.544 613.192 135.544C614.726 135.544 615.826 135.944 616.493 136.744C617.16 137.545 617.494 138.434 617.494 139.412C617.494 139.968 617.338 140.413 617.027 140.746C616.716 141.08 616.282 141.246 615.726 141.246C615.215 141.246 614.793 141.091 614.459 140.779C614.126 140.468 613.959 140.035 613.959 139.479C613.959 138.501 614.481 137.912 615.526 137.711C615.037 137.222 614.348 136.945 613.459 136.878C611.88 136.878 610.58 137.545 609.557 138.879C608.512 140.346 607.99 142.591 607.99 145.615L608.023 145.748C608.134 145.615 608.223 145.47 608.29 145.315C609.201 143.981 610.391 143.314 611.858 143.314H611.992C613.014 143.314 613.915 143.525 614.693 143.947C615.226 144.259 615.76 144.703 616.293 145.281C616.827 145.859 617.26 146.493 617.594 147.182C618.061 148.271 618.294 149.461 618.294 150.75V151.351C618.294 151.862 618.239 152.34 618.127 152.784C617.883 154.096 617.171 155.374 615.993 156.619C614.815 157.864 613.325 158.487 611.525 158.487C610.902 158.487 610.302 158.398 609.724 158.22C609.146 158.042 608.523 157.709 607.856 157.22C607.19 156.731 606.623 156.075 606.156 155.252C605.689 154.43 605.289 153.351 604.955 152.017C604.622 150.684 604.466 149.116 604.488 147.315ZM611.658 144.514C610.991 144.514 610.413 144.703 609.924 145.081C609.435 145.459 609.057 145.959 608.79 146.582C608.523 147.204 608.334 147.838 608.223 148.483C608.112 149.127 608.045 149.817 608.023 150.55C608.023 152.395 608.157 153.718 608.423 154.518C608.69 155.319 609.113 155.964 609.691 156.453C610.224 156.853 610.813 157.053 611.458 157.053C612.592 157.053 613.459 156.63 614.059 155.786C614.348 155.386 614.548 154.885 614.659 154.285C614.77 153.685 614.826 152.518 614.826 150.784C614.826 149.005 614.77 147.816 614.659 147.215C614.548 146.615 614.348 146.115 614.059 145.715C613.459 144.914 612.658 144.514 611.658 144.514Z" fill="white"/>
<path id="Vector_53" d="M635.169 157.754C634.769 157.687 633.335 157.654 630.867 157.654C628.288 157.654 626.799 157.687 626.399 157.754H626.099V156.22H627.132C627.577 156.22 627.877 156.22 628.033 156.22C628.188 156.22 628.377 156.198 628.6 156.153C628.822 156.109 628.978 156.053 629.066 155.987C629.155 155.92 629.233 155.831 629.3 155.72C629.322 155.675 629.333 155.075 629.333 153.919V152.252H620.696V150.718L625.732 143.014C629.133 137.857 630.856 135.267 630.901 135.245C630.945 135.2 631.178 135.178 631.601 135.178H632.201L632.401 135.378V150.718H635.469V152.252H632.401V153.952C632.401 154.864 632.401 155.397 632.401 155.553C632.401 155.709 632.468 155.842 632.601 155.953C632.779 156.109 633.413 156.198 634.502 156.22H635.469V157.754H635.169ZM629.533 150.718V139.58L622.23 150.684L625.865 150.718H629.533Z" fill="white"/>
<path id="Vector_54" d="M639.634 138.245C640.879 136.444 642.58 135.544 644.736 135.544C645.803 135.544 646.871 135.833 647.938 136.411C649.005 136.989 649.872 138.012 650.539 139.479C651.361 141.324 651.773 143.858 651.773 147.082C651.773 150.528 651.295 153.162 650.339 154.985C649.894 155.919 649.283 156.664 648.505 157.22C647.726 157.775 647.048 158.12 646.47 158.253C645.892 158.387 645.325 158.465 644.77 158.487C644.192 158.487 643.614 158.42 643.036 158.287C642.458 158.153 641.78 157.798 641.001 157.22C640.223 156.642 639.612 155.897 639.167 154.985C638.211 153.162 637.733 150.528 637.733 147.082C637.733 143.214 638.367 140.268 639.634 138.245ZM647.137 137.845C646.47 137.133 645.681 136.778 644.77 136.778C643.836 136.778 643.036 137.133 642.369 137.845C641.813 138.423 641.446 139.223 641.268 140.246C641.09 141.269 641.001 143.403 641.001 146.649C641.001 150.161 641.09 152.473 641.268 153.585C641.446 154.696 641.846 155.574 642.469 156.219C643.091 156.886 643.858 157.22 644.77 157.22C645.659 157.22 646.415 156.886 647.037 156.219C647.682 155.552 648.082 154.619 648.238 153.418C648.393 152.218 648.482 149.961 648.505 146.649C648.505 143.425 648.416 141.302 648.238 140.279C648.06 139.257 647.693 138.445 647.137 137.845Z" fill="white"/>
</g>
</g>
</g>
</g>
</g>
</svg>
