<svg viewBox="0 0 811 399" fill="none" xmlns="http://www.w3.org/2000/svg">
<g id="0120253">
<g id="0120252">
<g id="0120251">
<g id="Group 412">
<path id="Rectangle 29" d="M0 3.04053H810.047V53.0405H0V3.04053Z" fill="#2CF30B" fill-opacity="0.1"/>
<path id="Rectangle 29 (Stroke)" fill-rule="evenodd" clip-rule="evenodd" d="M804.271 8.04053H5.77635V48.0405H804.271V8.04053ZM0 3.04053V53.0405H810.047V3.04053H0Z" fill="#2CF30B"/>
<path id="Rectangle 30 (Stroke)" fill-rule="evenodd" clip-rule="evenodd" d="M805.224 58.0405H6.72948V98.0405H805.224V58.0405ZM0.953125 53.0405V103.041H811V53.0405H0.953125Z" fill="#2CF30B"/>
<path id="Line 31 (Stroke)" fill-rule="evenodd" clip-rule="evenodd" d="M282.866 97.3999L281 0.122002L286.774 0L288.641 97.2779L282.866 97.3999Z" fill="#2CF30B"/>
<path id="Line 31 (Stroke)_2" fill-rule="evenodd" clip-rule="evenodd" d="M533.866 97.3999L532 0.122002L537.774 0L539.641 97.2779L533.866 97.3999Z" fill="#2CF30B"/>
</g>
<g id="Group 525">
<g id="Tenia">
<path d="M84.6543 17.1836H76.4277V40H73.0703V17.1836H64.8613V14.4062H84.6543V17.1836Z" fill="#2CF30B"/>
<path d="M94.0762 40.3516C91.498 40.3516 89.4004 39.5078 87.7832 37.8203C86.166 36.1211 85.3574 33.8535 85.3574 31.0176V30.4199C85.3574 28.5332 85.7148 26.8516 86.4297 25.375C87.1562 23.8867 88.1641 22.7266 89.4531 21.8945C90.7539 21.0508 92.1602 20.6289 93.6719 20.6289C96.1445 20.6289 98.0664 21.4434 99.4375 23.0723C100.809 24.7012 101.494 27.0332 101.494 30.0684V31.4219H88.6094C88.6562 33.2969 89.2012 34.8145 90.2441 35.9746C91.2988 37.123 92.6348 37.6973 94.252 37.6973C95.4004 37.6973 96.373 37.4629 97.1699 36.9941C97.9668 36.5254 98.6641 35.9043 99.2617 35.1309L101.248 36.6777C99.6543 39.127 97.2637 40.3516 94.0762 40.3516ZM93.6719 23.3008C92.3594 23.3008 91.2578 23.7812 90.3672 24.7422C89.4766 25.6914 88.9258 27.0273 88.7148 28.75H98.2422V28.5039C98.1484 26.8516 97.7031 25.5742 96.9062 24.6719C96.1094 23.7578 95.0312 23.3008 93.6719 23.3008Z" fill="#2CF30B"/>
<path d="M108.35 20.9805L108.455 23.3711C109.908 21.543 111.807 20.6289 114.15 20.6289C118.17 20.6289 120.197 22.8965 120.232 27.4316V40H116.98V27.4141C116.969 26.043 116.652 25.0293 116.031 24.373C115.422 23.7168 114.467 23.3887 113.166 23.3887C112.111 23.3887 111.186 23.6699 110.389 24.2324C109.592 24.7949 108.971 25.5332 108.525 26.4473V40H105.273V20.9805H108.35Z" fill="#2CF30B"/>
<path d="M128.67 40H125.418V20.9805H128.67V40ZM125.154 15.9355C125.154 15.4082 125.312 14.9629 125.629 14.5996C125.957 14.2363 126.438 14.0547 127.07 14.0547C127.703 14.0547 128.184 14.2363 128.512 14.5996C128.84 14.9629 129.004 15.4082 129.004 15.9355C129.004 16.4629 128.84 16.9023 128.512 17.2539C128.184 17.6055 127.703 17.7812 127.07 17.7812C126.438 17.7812 125.957 17.6055 125.629 17.2539C125.312 16.9023 125.154 16.4629 125.154 15.9355Z" fill="#2CF30B"/>
<path d="M145.633 40C145.445 39.625 145.293 38.957 145.176 37.9961C143.664 39.5664 141.859 40.3516 139.762 40.3516C137.887 40.3516 136.346 39.8242 135.139 38.7695C133.943 37.7031 133.346 36.3555 133.346 34.7266C133.346 32.7461 134.096 31.2109 135.596 30.1211C137.107 29.0195 139.229 28.4688 141.959 28.4688H145.123V26.9746C145.123 25.8379 144.783 24.9355 144.104 24.2676C143.424 23.5879 142.422 23.248 141.098 23.248C139.938 23.248 138.965 23.541 138.18 24.127C137.395 24.7129 137.002 25.4219 137.002 26.2539H133.732C133.732 25.3047 134.066 24.3906 134.734 23.5117C135.414 22.6211 136.328 21.918 137.477 21.4023C138.637 20.8867 139.908 20.6289 141.291 20.6289C143.482 20.6289 145.199 21.1797 146.441 22.2812C147.684 23.3711 148.328 24.877 148.375 26.7988V35.5527C148.375 37.2988 148.598 38.6875 149.043 39.7188V40H145.633ZM140.236 37.5215C141.256 37.5215 142.223 37.2578 143.137 36.7305C144.051 36.2031 144.713 35.5176 145.123 34.6738V30.7715H142.574C138.59 30.7715 136.598 31.9375 136.598 34.2695C136.598 35.2891 136.938 36.0859 137.617 36.6602C138.297 37.2344 139.17 37.5215 140.236 37.5215Z" fill="#2CF30B"/>
</g>
<g id="Gaste">
<path d="M385.867 36.6426C385 37.8848 383.787 38.8164 382.229 39.4375C380.682 40.0469 378.877 40.3516 376.814 40.3516C374.729 40.3516 372.877 39.8652 371.26 38.8926C369.643 37.9082 368.389 36.5137 367.498 34.709C366.619 32.9043 366.168 30.8125 366.145 28.4336V26.2012C366.145 22.3457 367.041 19.3574 368.834 17.2363C370.639 15.1152 373.17 14.0547 376.428 14.0547C379.1 14.0547 381.25 14.7402 382.879 16.1113C384.508 17.4707 385.504 19.4043 385.867 21.9121H382.492C381.859 18.5254 379.844 16.832 376.445 16.832C374.184 16.832 372.467 17.6289 371.295 19.2227C370.135 20.8047 369.549 23.1016 369.537 26.1133V28.2051C369.537 31.0762 370.193 33.3613 371.506 35.0605C372.818 36.748 374.594 37.5918 376.832 37.5918C378.098 37.5918 379.205 37.4512 380.154 37.1699C381.104 36.8887 381.889 36.4141 382.51 35.7461V29.998H376.586V27.2559H385.867V36.6426Z" fill="#2CF30B"/>
<path d="M402.742 40C402.555 39.625 402.402 38.957 402.285 37.9961C400.773 39.5664 398.969 40.3516 396.871 40.3516C394.996 40.3516 393.455 39.8242 392.248 38.7695C391.053 37.7031 390.455 36.3555 390.455 34.7266C390.455 32.7461 391.205 31.2109 392.705 30.1211C394.217 29.0195 396.338 28.4688 399.068 28.4688H402.232V26.9746C402.232 25.8379 401.893 24.9355 401.213 24.2676C400.533 23.5879 399.531 23.248 398.207 23.248C397.047 23.248 396.074 23.541 395.289 24.127C394.504 24.7129 394.111 25.4219 394.111 26.2539H390.842C390.842 25.3047 391.176 24.3906 391.844 23.5117C392.523 22.6211 393.438 21.918 394.586 21.4023C395.746 20.8867 397.018 20.6289 398.4 20.6289C400.592 20.6289 402.309 21.1797 403.551 22.2812C404.793 23.3711 405.438 24.877 405.484 26.7988V35.5527C405.484 37.2988 405.707 38.6875 406.152 39.7188V40H402.742ZM397.346 37.5215C398.365 37.5215 399.332 37.2578 400.246 36.7305C401.16 36.2031 401.822 35.5176 402.232 34.6738V30.7715H399.684C395.699 30.7715 393.707 31.9375 393.707 34.2695C393.707 35.2891 394.047 36.0859 394.727 36.6602C395.406 37.2344 396.279 37.5215 397.346 37.5215Z" fill="#2CF30B"/>
<path d="M421.656 34.9551C421.656 34.0762 421.322 33.3965 420.654 32.916C419.998 32.4238 418.844 32.002 417.191 31.6504C415.551 31.2988 414.244 30.877 413.271 30.3848C412.311 29.8926 411.596 29.3066 411.127 28.627C410.67 27.9473 410.441 27.1387 410.441 26.2012C410.441 24.6426 411.098 23.3242 412.41 22.2461C413.734 21.168 415.422 20.6289 417.473 20.6289C419.629 20.6289 421.375 21.1855 422.711 22.2988C424.059 23.4121 424.732 24.8359 424.732 26.5703H421.463C421.463 25.6797 421.082 24.9121 420.32 24.2676C419.57 23.623 418.621 23.3008 417.473 23.3008C416.289 23.3008 415.363 23.5586 414.695 24.0742C414.027 24.5898 413.693 25.2637 413.693 26.0957C413.693 26.8809 414.004 27.4727 414.625 27.8711C415.246 28.2695 416.365 28.6504 417.982 29.0137C419.611 29.377 420.93 29.8105 421.938 30.3145C422.945 30.8184 423.689 31.4277 424.17 32.1426C424.662 32.8457 424.908 33.707 424.908 34.7266C424.908 36.4258 424.229 37.791 422.869 38.8223C421.51 39.8418 419.746 40.3516 417.578 40.3516C416.055 40.3516 414.707 40.082 413.535 39.543C412.363 39.0039 411.443 38.2539 410.775 37.293C410.119 36.3203 409.791 35.2715 409.791 34.1465H413.043C413.102 35.2363 413.535 36.1035 414.344 36.748C415.164 37.3809 416.242 37.6973 417.578 37.6973C418.809 37.6973 419.793 37.4512 420.531 36.959C421.281 36.4551 421.656 35.7871 421.656 34.9551Z" fill="#2CF30B"/>
<path d="M433.557 16.375V20.9805H437.107V23.4941H433.557V35.2891C433.557 36.0508 433.715 36.625 434.031 37.0117C434.348 37.3867 434.887 37.5742 435.648 37.5742C436.023 37.5742 436.539 37.5039 437.195 37.3633V40C436.34 40.2344 435.508 40.3516 434.699 40.3516C433.246 40.3516 432.15 39.9121 431.412 39.0332C430.674 38.1543 430.305 36.9062 430.305 35.2891V23.4941H426.842V20.9805H430.305V16.375H433.557Z" fill="#2CF30B"/>
<path d="M448.814 40.3516C446.236 40.3516 444.139 39.5078 442.521 37.8203C440.904 36.1211 440.096 33.8535 440.096 31.0176V30.4199C440.096 28.5332 440.453 26.8516 441.168 25.375C441.895 23.8867 442.902 22.7266 444.191 21.8945C445.492 21.0508 446.898 20.6289 448.41 20.6289C450.883 20.6289 452.805 21.4434 454.176 23.0723C455.547 24.7012 456.232 27.0332 456.232 30.0684V31.4219H443.348C443.395 33.2969 443.939 34.8145 444.982 35.9746C446.037 37.123 447.373 37.6973 448.99 37.6973C450.139 37.6973 451.111 37.4629 451.908 36.9941C452.705 36.5254 453.402 35.9043 454 35.1309L455.986 36.6777C454.393 39.127 452.002 40.3516 448.814 40.3516ZM448.41 23.3008C447.098 23.3008 445.996 23.7812 445.105 24.7422C444.215 25.6914 443.664 27.0273 443.453 28.75H452.98V28.5039C452.887 26.8516 452.441 25.5742 451.645 24.6719C450.848 23.7578 449.77 23.3008 448.41 23.3008Z" fill="#2CF30B"/>
</g>
<g id="No Gasto">
<path d="M625.641 44H622.248L609.363 24.2773V44H605.971V18.4062H609.363L622.283 38.2168V18.4062H625.641V44Z" fill="#2CF30B"/>
<path d="M630.264 34.3145C630.264 32.4512 630.627 30.7754 631.354 29.2871C632.092 27.7988 633.111 26.6504 634.412 25.8418C635.725 25.0332 637.219 24.6289 638.895 24.6289C641.484 24.6289 643.576 25.5254 645.17 27.3184C646.775 29.1113 647.578 31.4961 647.578 34.4727V34.7012C647.578 36.5527 647.221 38.2168 646.506 39.6934C645.803 41.1582 644.789 42.3008 643.465 43.1211C642.152 43.9414 640.641 44.3516 638.93 44.3516C636.352 44.3516 634.26 43.4551 632.654 41.6621C631.061 39.8691 630.264 37.4961 630.264 34.543V34.3145ZM633.533 34.7012C633.533 36.8105 634.02 38.5039 634.992 39.7812C635.977 41.0586 637.289 41.6973 638.93 41.6973C640.582 41.6973 641.895 41.0527 642.867 39.7637C643.84 38.4629 644.326 36.6465 644.326 34.3145C644.326 32.2285 643.828 30.541 642.832 29.252C641.848 27.9512 640.535 27.3008 638.895 27.3008C637.289 27.3008 635.994 27.9395 635.01 29.2168C634.025 30.4941 633.533 32.3223 633.533 34.7012Z" fill="#2CF30B"/>
<path d="M679.992 40.6426C679.125 41.8848 677.912 42.8164 676.354 43.4375C674.807 44.0469 673.002 44.3516 670.939 44.3516C668.854 44.3516 667.002 43.8652 665.385 42.8926C663.768 41.9082 662.514 40.5137 661.623 38.709C660.744 36.9043 660.293 34.8125 660.27 32.4336V30.2012C660.27 26.3457 661.166 23.3574 662.959 21.2363C664.764 19.1152 667.295 18.0547 670.553 18.0547C673.225 18.0547 675.375 18.7402 677.004 20.1113C678.633 21.4707 679.629 23.4043 679.992 25.9121H676.617C675.984 22.5254 673.969 20.832 670.57 20.832C668.309 20.832 666.592 21.6289 665.42 23.2227C664.26 24.8047 663.674 27.1016 663.662 30.1133V32.2051C663.662 35.0762 664.318 37.3613 665.631 39.0605C666.943 40.748 668.719 41.5918 670.957 41.5918C672.223 41.5918 673.33 41.4512 674.279 41.1699C675.229 40.8887 676.014 40.4141 676.635 39.7461V33.998H670.711V31.2559H679.992V40.6426Z" fill="#2CF30B"/>
<path d="M696.867 44C696.68 43.625 696.527 42.957 696.41 41.9961C694.898 43.5664 693.094 44.3516 690.996 44.3516C689.121 44.3516 687.58 43.8242 686.373 42.7695C685.178 41.7031 684.58 40.3555 684.58 38.7266C684.58 36.7461 685.33 35.2109 686.83 34.1211C688.342 33.0195 690.463 32.4688 693.193 32.4688H696.357V30.9746C696.357 29.8379 696.018 28.9355 695.338 28.2676C694.658 27.5879 693.656 27.248 692.332 27.248C691.172 27.248 690.199 27.541 689.414 28.127C688.629 28.7129 688.236 29.4219 688.236 30.2539H684.967C684.967 29.3047 685.301 28.3906 685.969 27.5117C686.648 26.6211 687.562 25.918 688.711 25.4023C689.871 24.8867 691.143 24.6289 692.525 24.6289C694.717 24.6289 696.434 25.1797 697.676 26.2812C698.918 27.3711 699.562 28.877 699.609 30.7988V39.5527C699.609 41.2988 699.832 42.6875 700.277 43.7188V44H696.867ZM691.471 41.5215C692.49 41.5215 693.457 41.2578 694.371 40.7305C695.285 40.2031 695.947 39.5176 696.357 38.6738V34.7715H693.809C689.824 34.7715 687.832 35.9375 687.832 38.2695C687.832 39.2891 688.172 40.0859 688.852 40.6602C689.531 41.2344 690.404 41.5215 691.471 41.5215Z" fill="#2CF30B"/>
<path d="M715.781 38.9551C715.781 38.0762 715.447 37.3965 714.779 36.916C714.123 36.4238 712.969 36.002 711.316 35.6504C709.676 35.2988 708.369 34.877 707.396 34.3848C706.436 33.8926 705.721 33.3066 705.252 32.627C704.795 31.9473 704.566 31.1387 704.566 30.2012C704.566 28.6426 705.223 27.3242 706.535 26.2461C707.859 25.168 709.547 24.6289 711.598 24.6289C713.754 24.6289 715.5 25.1855 716.836 26.2988C718.184 27.4121 718.857 28.8359 718.857 30.5703H715.588C715.588 29.6797 715.207 28.9121 714.445 28.2676C713.695 27.623 712.746 27.3008 711.598 27.3008C710.414 27.3008 709.488 27.5586 708.82 28.0742C708.152 28.5898 707.818 29.2637 707.818 30.0957C707.818 30.8809 708.129 31.4727 708.75 31.8711C709.371 32.2695 710.49 32.6504 712.107 33.0137C713.736 33.377 715.055 33.8105 716.062 34.3145C717.07 34.8184 717.814 35.4277 718.295 36.1426C718.787 36.8457 719.033 37.707 719.033 38.7266C719.033 40.4258 718.354 41.791 716.994 42.8223C715.635 43.8418 713.871 44.3516 711.703 44.3516C710.18 44.3516 708.832 44.082 707.66 43.543C706.488 43.0039 705.568 42.2539 704.9 41.293C704.244 40.3203 703.916 39.2715 703.916 38.1465H707.168C707.227 39.2363 707.66 40.1035 708.469 40.748C709.289 41.3809 710.367 41.6973 711.703 41.6973C712.934 41.6973 713.918 41.4512 714.656 40.959C715.406 40.4551 715.781 39.7871 715.781 38.9551Z" fill="#2CF30B"/>
<path d="M727.682 20.375V24.9805H731.232V27.4941H727.682V39.2891C727.682 40.0508 727.84 40.625 728.156 41.0117C728.473 41.3867 729.012 41.5742 729.773 41.5742C730.148 41.5742 730.664 41.5039 731.32 41.3633V44C730.465 44.2344 729.633 44.3516 728.824 44.3516C727.371 44.3516 726.275 43.9121 725.537 43.0332C724.799 42.1543 724.43 40.9062 724.43 39.2891V27.4941H720.967V24.9805H724.43V20.375H727.682Z" fill="#2CF30B"/>
<path d="M733.834 34.3145C733.834 32.4512 734.197 30.7754 734.924 29.2871C735.662 27.7988 736.682 26.6504 737.982 25.8418C739.295 25.0332 740.789 24.6289 742.465 24.6289C745.055 24.6289 747.146 25.5254 748.74 27.3184C750.346 29.1113 751.148 31.4961 751.148 34.4727V34.7012C751.148 36.5527 750.791 38.2168 750.076 39.6934C749.373 41.1582 748.359 42.3008 747.035 43.1211C745.723 43.9414 744.211 44.3516 742.5 44.3516C739.922 44.3516 737.83 43.4551 736.225 41.6621C734.631 39.8691 733.834 37.4961 733.834 34.543V34.3145ZM737.104 34.7012C737.104 36.8105 737.59 38.5039 738.562 39.7812C739.547 41.0586 740.859 41.6973 742.5 41.6973C744.152 41.6973 745.465 41.0527 746.438 39.7637C747.41 38.4629 747.896 36.6465 747.896 34.3145C747.896 32.2285 747.398 30.541 746.402 29.252C745.418 27.9512 744.105 27.3008 742.465 27.3008C740.859 27.3008 739.564 27.9395 738.58 29.2168C737.596 30.4941 737.104 32.3223 737.104 34.7012Z" fill="#2CF30B"/>
</g>
</g>
</g>
</g>
<g id="810\;5x\;4x">
<g id="Group">
<g id="Group_2">
<path id="Vector" d="M94.315 77.1266C94.315 77.1266 94.315 75.8766 94.315 73.3766C94.315 70.8765 95.1916 68.8635 96.9449 67.3375C98.6981 65.8115 100.711 65.0323 102.984 64.9998C105.289 64.9998 107.335 65.6816 109.12 67.0453C110.906 68.4089 111.799 70.1785 111.799 72.3538C111.799 73.3279 111.62 74.237 111.263 75.0811C110.906 75.9253 110.484 76.6071 109.997 77.1266C109.51 77.6461 109.007 78.1007 108.487 78.4903C107.968 78.8799 107.546 79.1721 107.221 79.3669C106.896 79.5617 106.718 79.6916 106.685 79.7565L107.367 80.1948C107.822 80.5195 108.276 80.8442 108.731 81.1689C109.185 81.4936 109.445 81.6721 109.51 81.7046C111.945 83.6202 113.163 86.0391 113.163 88.9612C113.163 91.5262 112.221 93.7503 110.338 95.6334C108.455 97.5166 106.02 98.4744 103.033 98.5068C100.111 98.5068 97.7079 97.6789 95.8247 96.023C93.9416 94.3672 93 92.3217 93 89.8866C93 86.38 95.0942 83.4579 99.2826 81.1202L98.4059 80.4871C97.7241 80.065 97.2858 79.7403 97.091 79.513C95.2403 77.9221 94.315 75.8766 94.315 73.3766V77.1266ZM104.835 78.6364L105.127 78.4416C105.322 78.3117 105.468 78.2143 105.565 78.1494C105.663 78.0844 105.825 77.9708 106.052 77.8084C106.279 77.6461 106.474 77.4838 106.637 77.3214C106.799 77.1591 106.978 76.9643 107.172 76.737C107.367 76.5097 107.546 76.2987 107.708 76.1039C107.87 75.9091 108.033 75.6493 108.195 75.3246C108.357 75 108.503 74.724 108.633 74.4967C108.763 74.2694 108.844 73.9447 108.877 73.5227C108.909 73.1006 108.942 72.7434 108.974 72.4512C108.974 71.0551 108.503 69.87 107.562 68.896C106.62 67.9219 105.533 67.305 104.299 67.0453C104.072 67.0128 103.536 66.9966 102.692 66.9966C101.361 66.9966 100.111 67.4187 98.9417 68.2628C97.7728 69.107 97.1721 70.1622 97.1397 71.4285C97.1397 72.1752 97.3507 72.8571 97.7728 73.474C98.1949 74.0909 98.617 74.5616 99.0391 74.8863C99.4611 75.211 100.273 75.7305 101.474 76.4448C101.701 76.6071 101.88 76.7208 102.01 76.7857L104.835 78.6364ZM103.081 96.4126C104.964 96.4126 106.588 95.8607 107.952 94.7568C109.315 93.6529 109.997 92.3217 109.997 90.7632C109.997 90.2112 109.916 89.6918 109.754 89.2047C109.591 88.7177 109.396 88.3119 109.169 87.9872C108.942 87.6625 108.585 87.3054 108.098 86.9157C107.611 86.5261 107.237 86.2339 106.977 86.0391C106.718 85.8443 106.247 85.5358 105.565 85.1138C104.883 84.6917 104.445 84.4157 104.25 84.2858C103.796 83.9936 103.309 83.6852 102.789 83.3605C102.27 83.0358 101.848 82.7598 101.523 82.5325L101.133 82.289C100.938 82.289 100.468 82.565 99.7209 83.117C98.9741 83.6689 98.1949 84.5618 97.3832 85.7956C96.5715 87.0294 96.1494 88.3606 96.1169 89.7892C96.1169 91.7048 96.815 93.2795 98.2111 94.5133C99.6073 95.7471 101.231 96.3802 103.081 96.4126Z" fill="white"/>
<path id="Vector_2" d="M125.63 69.2857L124.997 69.5292C124.542 69.6916 123.893 69.8539 123.049 70.0163C122.205 70.1786 121.263 70.2922 120.224 70.3572H119.299V68.1169H120.224C121.75 68.0519 123.163 67.8084 124.461 67.3864C125.76 66.9643 126.669 66.5747 127.189 66.2175C127.708 65.8604 128.163 65.5032 128.552 65.1461C128.617 65.0487 128.812 65 129.137 65C129.429 65 129.705 65.0974 129.965 65.2922V79.8541L130.013 94.4647C130.241 94.692 130.435 94.8381 130.598 94.903C130.76 94.968 131.15 95.0329 131.767 95.0978C132.383 95.1628 133.39 95.1953 134.786 95.1953H136.052V97.4355H135.517C134.835 97.3381 132.254 97.2894 127.773 97.2894C123.357 97.2894 120.809 97.3381 120.127 97.4355H119.542V95.1953H120.809C121.523 95.1953 122.14 95.1953 122.659 95.1953C123.179 95.1953 123.585 95.179 123.877 95.1465C124.169 95.1141 124.429 95.0654 124.656 95.0004C124.883 94.9355 125.013 94.903 125.046 94.903C125.078 94.903 125.176 94.8219 125.338 94.6595C125.5 94.4972 125.598 94.4323 125.63 94.4647V69.2857Z" fill="white"/>
<path id="Vector_3" d="M144.283 68.9447C146.101 66.3148 148.585 64.9998 151.734 64.9998C153.293 64.9998 154.851 65.4219 156.41 66.266C157.968 67.1102 159.234 68.6037 160.208 70.7466C161.41 73.4415 162.01 77.1429 162.01 81.8507C162.01 86.8833 161.312 90.7307 159.916 93.3931C159.267 94.7568 158.374 95.8445 157.238 96.6562C156.101 97.4679 155.111 97.9711 154.267 98.1659C153.423 98.3607 152.595 98.4744 151.783 98.5068C150.939 98.5068 150.095 98.4094 149.25 98.2146C148.406 98.0198 147.416 97.5003 146.28 96.6562C145.143 95.812 144.25 94.7243 143.601 93.3931C142.205 90.7307 141.507 86.8833 141.507 81.8507C141.507 76.2013 142.432 71.8993 144.283 68.9447ZM155.241 68.3602C154.267 67.3213 153.114 66.8018 151.783 66.8018C150.419 66.8018 149.25 67.3213 148.276 68.3602C147.465 69.2044 146.929 70.3733 146.669 71.8668C146.41 73.3603 146.28 76.4773 146.28 81.2176C146.28 86.3475 146.41 89.7242 146.669 91.3476C146.929 92.971 147.513 94.2535 148.423 95.1951C149.332 96.1691 150.452 96.6562 151.783 96.6562C153.082 96.6562 154.186 96.1691 155.095 95.1951C156.036 94.2211 156.621 92.8574 156.848 91.1041C157.075 89.3508 157.205 86.0553 157.238 81.2176C157.238 76.5097 157.108 73.409 156.848 71.9155C156.588 70.422 156.053 69.2369 155.241 68.3602Z" fill="white"/>
</g>
<g id="Group 605">
<g id="Group_3">
<path id="Vector_4" d="M630.552 87.7892C630.552 88.5684 630.292 89.2178 629.773 89.7372C629.253 90.2567 628.62 90.5165 627.873 90.5165H627.533C629.026 93.0815 631.007 94.3639 633.474 94.3639C635.747 94.3639 637.403 93.3899 638.442 91.4418C639.059 90.3704 639.367 88.2924 639.367 85.2079C639.367 81.8637 638.929 79.6072 638.052 78.4384C637.208 77.3669 636.266 76.8312 635.227 76.8312H634.935C632.403 76.8312 630.487 77.9351 629.188 80.1429C629.059 80.3702 628.945 80.5001 628.847 80.5325C628.75 80.565 628.507 80.5975 628.117 80.63C627.565 80.63 627.257 80.5325 627.192 80.3377C627.127 80.2079 627.094 77.3669 627.094 71.8149V65.5323C627.094 63.9089 627.175 63.0972 627.338 63.0972C627.403 63.0323 627.468 62.9998 627.533 62.9998C627.565 62.9998 627.906 63.1297 628.555 63.3894C629.205 63.6492 630.097 63.9089 631.234 64.1686C632.37 64.4284 633.588 64.5583 634.887 64.5583C637.192 64.5583 639.4 64.1037 641.51 63.1946C641.77 63.0647 641.981 62.9998 642.143 62.9998C642.403 62.9998 642.533 63.292 642.533 63.8764V64.5096C639.87 67.659 636.542 69.2337 632.549 69.2337C631.542 69.2337 630.633 69.1363 629.822 68.9415L629.334 68.844V77.2208C629.951 76.7663 630.438 76.4091 630.796 76.1494C631.153 75.8896 631.737 75.6299 632.549 75.3701C633.361 75.1104 634.188 74.9805 635.033 74.9805C637.663 74.9805 639.887 76.0357 641.705 78.1461C643.523 80.2566 644.432 82.7566 644.432 85.6463C644.432 88.6333 643.393 91.1821 641.315 93.2925C639.237 95.4029 636.705 96.4744 633.718 96.5068C631.088 96.5068 628.977 95.6302 627.386 93.8769C625.795 92.1236 625 90.1431 625 87.9353C625 87.156 625.179 86.5391 625.536 86.0846C625.893 85.63 626.266 85.3378 626.656 85.2079C627.045 85.0781 627.419 85.0131 627.776 85.0131C628.588 85.0131 629.253 85.2891 629.773 85.8411C630.292 86.393 630.552 87.0424 630.552 87.7892Z" fill="white"/>
</g>
<g id="Group_4">
<path id="Vector_5" d="M649.448 81.3606C649.675 79.9969 650.552 78.4222 652.078 76.6365C653.604 74.8507 655.487 73.9416 657.727 73.9091C658.864 73.9091 659.903 74.2014 660.844 74.7858C661.786 75.3702 662.484 76.1007 662.939 76.9774C664.302 74.9319 665.942 73.9091 667.857 73.9091C669.059 73.9091 670.098 74.2663 670.974 74.9806C671.851 75.6949 672.306 76.6527 672.338 77.854C672.338 78.7956 672.111 79.5586 671.656 80.143C671.202 80.7274 670.763 81.0846 670.341 81.2145C669.919 81.3443 669.546 81.4093 669.221 81.4093C668.604 81.4093 668.101 81.2307 667.711 80.8735C667.322 80.5164 667.127 80.0456 667.127 79.4612C667.127 77.9677 667.939 76.9449 669.562 76.393C669.205 75.9709 668.556 75.7598 667.614 75.7598C667.192 75.7598 666.883 75.7923 666.689 75.8572C665.455 76.3767 664.546 77.4482 663.961 79.0716C662.013 86.247 661.039 90.4354 661.039 91.6367C661.039 92.5458 661.299 93.1952 661.818 93.5848C662.338 93.9744 662.906 94.1692 663.523 94.1692C664.724 94.1692 665.909 93.6335 667.078 92.562C668.247 91.4906 669.043 90.1756 669.465 88.6172C669.562 88.2925 669.659 88.1139 669.757 88.0815C669.854 88.049 670.114 88.0165 670.536 87.984H670.731C671.218 87.984 671.461 88.1139 671.461 88.3737C671.461 88.4061 671.429 88.5847 671.364 88.9094C670.845 90.7601 669.838 92.3997 668.344 93.8283C666.851 95.2569 665.114 95.9712 663.133 95.9712C660.861 95.9712 659.14 94.9484 657.971 92.903C656.64 94.916 655.114 95.9225 653.393 95.9225H653.101C651.51 95.9225 650.373 95.5004 649.692 94.6562C649.01 93.8121 648.653 92.9192 648.62 91.9776C648.62 90.9386 648.929 90.0945 649.545 89.4451C650.162 88.7958 650.893 88.4711 651.737 88.4711C653.133 88.4711 653.831 89.1529 653.831 90.5166C653.831 91.1659 653.636 91.7341 653.247 92.2211C652.857 92.7082 652.484 93.0328 652.127 93.1952C651.77 93.3575 651.558 93.4387 651.494 93.4387L651.347 93.4874C651.347 93.5199 651.445 93.5848 651.64 93.6822C651.834 93.7796 652.094 93.8932 652.419 94.0231C652.744 94.153 653.052 94.2017 653.344 94.1692C654.513 94.1692 655.52 93.4387 656.364 91.9776C656.656 91.4581 657.029 90.3542 657.484 88.6659C657.938 86.9775 658.393 85.2243 658.848 83.4061C659.302 81.5878 659.562 80.5164 659.627 80.1917C659.789 79.3151 659.87 78.6819 659.87 78.2923C659.87 77.3832 659.627 76.7339 659.14 76.3442C658.653 75.9546 658.101 75.7598 657.484 75.7598C656.185 75.7598 654.968 76.2793 653.831 77.3183C652.695 78.3573 651.899 79.6885 651.445 81.3119C651.38 81.6041 651.299 81.7664 651.201 81.7989C651.104 81.8314 650.844 81.8638 650.422 81.8963H649.74C649.545 81.7015 649.448 81.5229 649.448 81.3606Z" fill="white"/>
</g>
</g>
<g id="Group 606">
<g id="Group_5">
<path id="Vector_6" d="M402.137 94.9712C401.552 94.8738 399.458 94.8251 395.854 94.8251C392.088 94.8251 389.912 94.8738 389.328 94.9712H388.89V92.7309H390.4C391.049 92.7309 391.487 92.7309 391.714 92.7309C391.942 92.7309 392.218 92.6984 392.542 92.6335C392.867 92.5686 393.094 92.4874 393.224 92.39C393.354 92.2926 393.468 92.1627 393.565 92.0004C393.598 91.9354 393.614 91.0588 393.614 89.3705V86.9353H381V84.695L388.354 73.4449C393.322 65.9123 395.838 62.1297 395.903 62.0973C395.968 62.0323 396.309 61.9999 396.926 61.9999H397.802L398.094 62.2921V84.695H402.575V86.9353H398.094V89.4192C398.094 90.7503 398.094 91.5296 398.094 91.7569C398.094 91.9841 398.192 92.1789 398.387 92.3413C398.646 92.5686 399.572 92.6984 401.163 92.7309H402.575V94.9712H402.137ZM393.906 84.695V68.4286L383.24 84.6463L388.549 84.695H393.906Z" fill="white"/>
</g>
<g id="Group_6">
<path id="Vector_7" d="M406.52 80.8962C406.748 79.5326 407.624 77.9578 409.15 76.1721C410.676 74.3864 412.559 73.4773 414.8 73.4448C415.936 73.4448 416.975 73.737 417.917 74.3214C418.858 74.9059 419.556 75.6364 420.011 76.513C421.374 74.4675 423.014 73.4448 424.93 73.4448C426.131 73.4448 427.17 73.8019 428.047 74.5162C428.923 75.2305 429.378 76.1883 429.41 77.3897C429.41 78.3312 429.183 79.0942 428.728 79.6787C428.274 80.2631 427.836 80.6202 427.414 80.7501C426.991 80.88 426.618 80.9449 426.293 80.9449C425.676 80.9449 425.173 80.7663 424.784 80.4092C424.394 80.052 424.199 79.5813 424.199 78.9968C424.199 77.5033 425.011 76.4806 426.634 75.9286C426.277 75.5065 425.628 75.2955 424.686 75.2955C424.264 75.2955 423.956 75.3279 423.761 75.3929C422.527 75.9124 421.618 76.9838 421.034 78.6072C419.085 85.7827 418.111 89.971 418.111 91.1723C418.111 92.0815 418.371 92.7308 418.891 93.1204C419.41 93.5101 419.978 93.7049 420.595 93.7049C421.797 93.7049 422.982 93.1691 424.15 92.0977C425.319 91.0262 426.115 89.7113 426.537 88.1528C426.634 87.8281 426.732 87.6496 426.829 87.6171C426.926 87.5846 427.186 87.5522 427.608 87.5197H427.803C428.29 87.5197 428.534 87.6496 428.534 87.9093C428.534 87.9418 428.501 88.1204 428.436 88.445C427.917 90.2957 426.91 91.9353 425.417 93.3639C423.923 94.7925 422.186 95.5068 420.206 95.5068C417.933 95.5068 416.212 94.4841 415.043 92.4386C413.712 94.4516 412.186 95.4581 410.465 95.4581H410.173C408.582 95.4581 407.446 95.036 406.764 94.1919C406.082 93.3477 405.725 92.4548 405.692 91.5133C405.692 90.4743 406.001 89.6301 406.618 88.9808C407.235 88.3314 407.965 88.0067 408.809 88.0067C410.205 88.0067 410.904 88.6885 410.904 90.0522C410.904 90.7016 410.709 91.2698 410.319 91.7568C409.929 92.2438 409.556 92.5685 409.199 92.7308C408.842 92.8932 408.631 92.9743 408.566 92.9743L408.42 93.023C408.42 93.0555 408.517 93.1204 408.712 93.2178C408.907 93.3152 409.166 93.4289 409.491 93.5588C409.816 93.6886 410.124 93.7373 410.416 93.7049C411.585 93.7049 412.592 92.9743 413.436 91.5133C413.728 90.9938 414.102 89.8899 414.556 88.2015C415.011 86.5132 415.465 84.7599 415.92 82.9417C416.374 81.1235 416.634 80.052 416.699 79.7274C416.861 78.8507 416.943 78.2176 416.943 77.828C416.943 76.9189 416.699 76.2695 416.212 75.8799C415.725 75.4903 415.173 75.2955 414.556 75.2955C413.257 75.2955 412.04 75.815 410.904 76.8539C409.767 77.8929 408.972 79.2241 408.517 80.8475C408.452 81.1397 408.371 81.3021 408.274 81.3345C408.176 81.367 407.916 81.3995 407.494 81.4319H406.813C406.618 81.2371 406.52 81.0585 406.52 80.8962Z" fill="white"/>
</g>
</g>
</g>
</g>
<g id="4x+5x=810\;&#10;9x=810\;&#10;x= \frac{810}{9}=90\;&#10;Gaste=4x=4(90)=S/.360">
<g id="Group_7">
<g id="Group 607">
<g id="Group_8">
<path id="Vector_8" d="M269.937 149.419C269.468 149.341 267.79 149.302 264.902 149.302C261.885 149.302 260.141 149.341 259.673 149.419H259.322V147.624H260.532C261.052 147.624 261.403 147.624 261.585 147.624C261.767 147.624 261.989 147.598 262.249 147.546C262.509 147.494 262.691 147.429 262.795 147.351C262.899 147.273 262.99 147.169 263.068 147.039C263.094 146.987 263.107 146.284 263.107 144.932V142.98H253V141.185L258.893 132.171C262.873 126.135 264.889 123.104 264.941 123.078C264.993 123.026 265.267 123 265.761 123H266.463L266.698 123.234V141.185H270.288V142.98H266.698V144.971C266.698 146.037 266.698 146.662 266.698 146.844C266.698 147.026 266.776 147.182 266.932 147.312C267.14 147.494 267.881 147.598 269.156 147.624H270.288V149.419H269.937ZM263.341 141.185V128.151L254.795 141.146L259.049 141.185H263.341Z" fill="white"/>
</g>
<g id="Group_9">
<path id="Vector_9" d="M273.451 138.143C273.633 137.05 274.335 135.788 275.558 134.357C276.781 132.927 278.29 132.198 280.085 132.172C280.995 132.172 281.828 132.406 282.582 132.874C283.337 133.343 283.896 133.928 284.26 134.631C285.353 132.992 286.667 132.172 288.202 132.172C289.164 132.172 289.997 132.458 290.699 133.031C291.402 133.603 291.766 134.37 291.792 135.333C291.792 136.087 291.61 136.699 291.246 137.167C290.881 137.635 290.53 137.922 290.192 138.026C289.854 138.13 289.555 138.182 289.294 138.182C288.8 138.182 288.397 138.039 288.085 137.753C287.772 137.466 287.616 137.089 287.616 136.621C287.616 135.424 288.267 134.605 289.568 134.162C289.281 133.824 288.761 133.655 288.007 133.655C287.668 133.655 287.421 133.681 287.265 133.733C286.277 134.149 285.548 135.008 285.08 136.309C283.519 142.058 282.738 145.414 282.738 146.377C282.738 147.105 282.946 147.626 283.363 147.938C283.779 148.25 284.234 148.406 284.729 148.406C285.691 148.406 286.641 147.977 287.577 147.118C288.514 146.26 289.151 145.206 289.49 143.957C289.568 143.697 289.646 143.554 289.724 143.528C289.802 143.502 290.01 143.476 290.348 143.45H290.504C290.894 143.45 291.09 143.554 291.09 143.762C291.09 143.788 291.064 143.931 291.012 144.192C290.595 145.674 289.789 146.988 288.592 148.133C287.395 149.278 286.003 149.85 284.416 149.85C282.595 149.85 281.216 149.031 280.28 147.392C279.213 149.005 277.99 149.811 276.612 149.811H276.377C275.103 149.811 274.192 149.473 273.646 148.796C273.099 148.12 272.813 147.405 272.787 146.65C272.787 145.818 273.034 145.141 273.529 144.621C274.023 144.101 274.608 143.84 275.285 143.84C276.403 143.84 276.963 144.387 276.963 145.479C276.963 146 276.807 146.455 276.494 146.845C276.182 147.235 275.883 147.496 275.597 147.626C275.311 147.756 275.142 147.821 275.09 147.821L274.972 147.86C274.972 147.886 275.051 147.938 275.207 148.016C275.363 148.094 275.571 148.185 275.831 148.289C276.091 148.393 276.338 148.432 276.572 148.406C277.509 148.406 278.316 147.821 278.992 146.65C279.226 146.234 279.525 145.349 279.89 143.996C280.254 142.644 280.618 141.239 280.982 139.782C281.346 138.325 281.555 137.466 281.607 137.206C281.737 136.504 281.802 135.996 281.802 135.684C281.802 134.956 281.607 134.435 281.216 134.123C280.826 133.811 280.384 133.655 279.89 133.655C278.849 133.655 277.873 134.071 276.963 134.904C276.052 135.736 275.415 136.803 275.051 138.104C274.998 138.338 274.933 138.468 274.855 138.494C274.777 138.52 274.569 138.546 274.231 138.572H273.685C273.529 138.416 273.451 138.273 273.451 138.143Z" fill="white"/>
</g>
<g id="Group_10">
<path id="Vector_10" d="M304.599 140.171C304.599 140.171 304.599 140.002 304.599 139.664C304.599 139.325 304.781 139.065 305.145 138.883H316.813V133.029L316.852 127.176C317.112 126.838 317.36 126.668 317.594 126.668C317.932 126.668 318.192 126.864 318.374 127.254V138.883H330.004C330.394 139.091 330.589 139.351 330.589 139.664C330.589 139.976 330.394 140.236 330.004 140.444H318.374V152.073C318.166 152.438 317.932 152.62 317.672 152.62H317.594H317.516C317.204 152.62 316.969 152.438 316.813 152.073V140.444H305.145C304.781 140.262 304.599 140.002 304.599 139.664V140.171Z" fill="white"/>
</g>
<g id="Group_11">
<path id="Vector_11" d="M347.846 143.292C347.846 143.917 347.638 144.437 347.222 144.853C346.806 145.27 346.298 145.478 345.7 145.478H345.427C346.623 147.533 348.21 148.561 350.188 148.561C352.009 148.561 353.336 147.78 354.168 146.219C354.663 145.361 354.91 143.696 354.91 141.224C354.91 138.544 354.558 136.736 353.856 135.8C353.18 134.941 352.425 134.512 351.593 134.512H351.358C349.329 134.512 347.794 135.397 346.754 137.166C346.649 137.348 346.558 137.452 346.48 137.478C346.402 137.504 346.207 137.53 345.895 137.556C345.453 137.556 345.206 137.478 345.154 137.322C345.102 137.218 345.076 134.941 345.076 130.492V125.458C345.076 124.158 345.141 123.507 345.271 123.507C345.323 123.455 345.375 123.429 345.427 123.429C345.453 123.429 345.726 123.533 346.246 123.741C346.767 123.949 347.482 124.158 348.393 124.366C349.303 124.574 350.279 124.678 351.319 124.678C353.167 124.678 354.936 124.314 356.627 123.585C356.835 123.481 357.004 123.429 357.134 123.429C357.342 123.429 357.446 123.663 357.446 124.131V124.639C355.313 127.162 352.646 128.424 349.446 128.424C348.64 128.424 347.911 128.346 347.261 128.19L346.871 128.112V134.824C347.365 134.46 347.755 134.174 348.041 133.966C348.328 133.758 348.796 133.549 349.446 133.341C350.097 133.133 350.76 133.029 351.436 133.029C353.544 133.029 355.326 133.875 356.783 135.566C358.24 137.257 358.968 139.26 358.968 141.575C358.968 143.969 358.136 146.011 356.471 147.702C354.806 149.393 352.776 150.252 350.383 150.278C348.276 150.278 346.584 149.575 345.31 148.171C344.035 146.766 343.397 145.179 343.397 143.41C343.397 142.785 343.541 142.291 343.827 141.927C344.113 141.562 344.412 141.328 344.724 141.224C345.036 141.12 345.336 141.068 345.622 141.068C346.272 141.068 346.806 141.289 347.222 141.731C347.638 142.174 347.846 142.694 347.846 143.292Z" fill="white"/>
</g>
<g id="Group_12">
<path id="Vector_12" d="M362.987 138.143C363.169 137.05 363.871 135.788 365.094 134.357C366.317 132.927 367.826 132.198 369.621 132.172C370.531 132.172 371.364 132.406 372.118 132.874C372.873 133.343 373.432 133.928 373.796 134.631C374.889 132.992 376.203 132.172 377.738 132.172C378.7 132.172 379.533 132.458 380.235 133.031C380.938 133.603 381.302 134.37 381.328 135.333C381.328 136.087 381.146 136.699 380.782 137.167C380.418 137.635 380.066 137.922 379.728 138.026C379.39 138.13 379.091 138.182 378.831 138.182C378.336 138.182 377.933 138.039 377.621 137.753C377.309 137.466 377.153 137.089 377.153 136.621C377.153 135.424 377.803 134.605 379.104 134.162C378.818 133.824 378.297 133.655 377.543 133.655C377.205 133.655 376.957 133.681 376.801 133.733C375.813 134.149 375.084 135.008 374.616 136.309C373.055 142.058 372.274 145.414 372.274 146.377C372.274 147.105 372.483 147.626 372.899 147.938C373.315 148.25 373.77 148.406 374.265 148.406C375.227 148.406 376.177 147.977 377.113 147.118C378.05 146.26 378.687 145.206 379.026 143.957C379.104 143.697 379.182 143.554 379.26 143.528C379.338 143.502 379.546 143.476 379.884 143.45H380.04C380.431 143.45 380.626 143.554 380.626 143.762C380.626 143.788 380.6 143.931 380.548 144.192C380.131 145.674 379.325 146.988 378.128 148.133C376.931 149.278 375.54 149.85 373.953 149.85C372.131 149.85 370.753 149.031 369.816 147.392C368.749 149.005 367.526 149.811 366.148 149.811H365.913C364.639 149.811 363.728 149.473 363.182 148.796C362.635 148.12 362.349 147.405 362.323 146.65C362.323 145.818 362.57 145.141 363.065 144.621C363.559 144.101 364.144 143.84 364.821 143.84C365.94 143.84 366.499 144.387 366.499 145.479C366.499 146 366.343 146.455 366.031 146.845C365.718 147.235 365.419 147.496 365.133 147.626C364.847 147.756 364.678 147.821 364.626 147.821L364.509 147.86C364.509 147.886 364.587 147.938 364.743 148.016C364.899 148.094 365.107 148.185 365.367 148.289C365.627 148.393 365.874 148.432 366.109 148.406C367.045 148.406 367.852 147.821 368.528 146.65C368.762 146.234 369.061 145.349 369.426 143.996C369.79 142.644 370.154 141.239 370.518 139.782C370.883 138.325 371.091 137.466 371.143 137.206C371.273 136.504 371.338 135.996 371.338 135.684C371.338 134.956 371.143 134.435 370.753 134.123C370.362 133.811 369.92 133.655 369.426 133.655C368.385 133.655 367.409 134.071 366.499 134.904C365.588 135.736 364.951 136.803 364.587 138.104C364.535 138.338 364.47 138.468 364.392 138.494C364.313 138.52 364.105 138.546 363.767 138.572H363.221C363.065 138.416 362.987 138.273 362.987 138.143Z" fill="white"/>
</g>
<g id="Group_13">
<path id="Vector_13" d="M396.308 135.878C396.308 135.54 396.49 135.279 396.854 135.097H421.712C422.103 135.305 422.298 135.566 422.298 135.878C422.298 136.164 422.116 136.411 421.752 136.619L409.342 136.658H396.932C396.516 136.528 396.308 136.268 396.308 135.878ZM396.308 143.449C396.308 143.058 396.516 142.798 396.932 142.668H421.752C422.116 142.928 422.298 143.188 422.298 143.449C422.298 143.787 422.103 144.047 421.712 144.229H396.854C396.49 144.047 396.308 143.787 396.308 143.449Z" fill="white"/>
</g>
<g id="Group_14">
<path id="Vector_14" d="M438.054 133.147C438.054 133.147 438.054 132.145 438.054 130.142C438.054 128.138 438.756 126.525 440.161 125.303C441.566 124.08 443.179 123.456 445 123.43C446.847 123.43 448.486 123.976 449.917 125.069C451.348 126.161 452.063 127.579 452.063 129.322C452.063 130.103 451.92 130.831 451.634 131.508C451.348 132.184 451.01 132.73 450.62 133.147C450.229 133.563 449.826 133.927 449.41 134.239C448.993 134.551 448.655 134.786 448.395 134.942C448.135 135.098 447.992 135.202 447.966 135.254L448.512 135.605C448.876 135.865 449.241 136.125 449.605 136.386C449.969 136.646 450.177 136.789 450.229 136.815C452.18 138.35 453.156 140.288 453.156 142.63C453.156 144.685 452.402 146.467 450.893 147.976C449.384 149.485 447.433 150.252 445.039 150.278C442.698 150.278 440.772 149.615 439.263 148.288C437.754 146.961 437 145.322 437 143.371C437 140.561 438.678 138.22 442.034 136.347L441.332 135.839C440.785 135.501 440.434 135.241 440.278 135.059C438.795 133.784 438.054 132.145 438.054 130.142V133.147ZM446.483 134.356L446.717 134.2C446.873 134.096 446.99 134.018 447.068 133.966C447.146 133.914 447.276 133.823 447.459 133.693C447.641 133.563 447.797 133.433 447.927 133.303C448.057 133.173 448.2 133.017 448.356 132.834C448.512 132.652 448.655 132.483 448.785 132.327C448.915 132.171 449.046 131.963 449.176 131.703C449.306 131.443 449.423 131.221 449.527 131.039C449.631 130.857 449.696 130.597 449.722 130.259C449.748 129.921 449.774 129.634 449.8 129.4C449.8 128.282 449.423 127.332 448.668 126.551C447.914 125.771 447.042 125.277 446.054 125.069C445.872 125.043 445.442 125.03 444.766 125.03C443.699 125.03 442.698 125.368 441.761 126.044C440.824 126.721 440.343 127.566 440.317 128.581C440.317 129.179 440.486 129.725 440.824 130.22C441.163 130.714 441.501 131.091 441.839 131.351C442.177 131.612 442.828 132.028 443.79 132.6C443.972 132.73 444.115 132.821 444.22 132.873L446.483 134.356ZM445.078 148.6C446.587 148.6 447.888 148.158 448.98 147.273C450.073 146.389 450.62 145.322 450.62 144.073C450.62 143.631 450.554 143.215 450.424 142.825C450.294 142.434 450.138 142.109 449.956 141.849C449.774 141.589 449.488 141.303 449.098 140.991C448.707 140.678 448.408 140.444 448.2 140.288C447.992 140.132 447.615 139.885 447.068 139.547C446.522 139.208 446.171 138.987 446.015 138.883C445.65 138.649 445.26 138.402 444.844 138.142C444.428 137.882 444.089 137.66 443.829 137.478L443.517 137.283C443.361 137.283 442.984 137.504 442.385 137.947C441.787 138.389 441.163 139.104 440.512 140.093C439.862 141.082 439.524 142.148 439.498 143.293C439.498 144.828 440.057 146.09 441.176 147.078C442.294 148.067 443.595 148.574 445.078 148.6Z" fill="white"/>
<path id="Vector_15" d="M463.144 126.864L462.637 127.059C462.273 127.189 461.753 127.319 461.076 127.449C460.4 127.579 459.645 127.67 458.813 127.722H458.071V125.927H458.813C460.036 125.875 461.167 125.68 462.208 125.342C463.249 125.004 463.977 124.691 464.393 124.405C464.81 124.119 465.174 123.833 465.486 123.547C465.538 123.469 465.694 123.43 465.954 123.43C466.188 123.43 466.41 123.508 466.618 123.664V135.332L466.657 147.039C466.839 147.222 466.995 147.339 467.125 147.391C467.255 147.443 467.567 147.495 468.062 147.547C468.556 147.599 469.362 147.625 470.481 147.625H471.496V149.42H471.066C470.52 149.342 468.452 149.303 464.862 149.303C461.323 149.303 459.281 149.342 458.735 149.42H458.266V147.625H459.281C459.853 147.625 460.348 147.625 460.764 147.625C461.18 147.625 461.505 147.612 461.74 147.586C461.974 147.56 462.182 147.521 462.364 147.469C462.546 147.417 462.65 147.391 462.676 147.391C462.702 147.391 462.78 147.326 462.91 147.196C463.04 147.065 463.118 147.013 463.144 147.039V126.864Z" fill="white"/>
<path id="Vector_16" d="M478.092 126.591C479.548 124.483 481.539 123.43 484.062 123.43C485.311 123.43 486.56 123.768 487.809 124.444C489.057 125.121 490.072 126.317 490.853 128.034C491.815 130.194 492.296 133.16 492.296 136.932C492.296 140.964 491.737 144.047 490.618 146.181C490.098 147.273 489.383 148.145 488.472 148.795C487.561 149.446 486.768 149.849 486.092 150.005C485.415 150.161 484.752 150.252 484.101 150.278C483.425 150.278 482.748 150.2 482.072 150.044C481.396 149.888 480.602 149.472 479.692 148.795C478.781 148.119 478.066 147.247 477.545 146.181C476.427 144.047 475.867 140.964 475.867 136.932C475.867 132.405 476.609 128.958 478.092 126.591ZM486.872 126.122C486.092 125.29 485.168 124.873 484.101 124.873C483.009 124.873 482.072 125.29 481.292 126.122C480.641 126.799 480.212 127.735 480.004 128.932C479.796 130.129 479.692 132.626 479.692 136.425C479.692 140.535 479.796 143.241 480.004 144.542C480.212 145.843 480.68 146.87 481.409 147.625C482.137 148.405 483.035 148.795 484.101 148.795C485.142 148.795 486.027 148.405 486.755 147.625C487.509 146.844 487.978 145.751 488.16 144.347C488.342 142.942 488.446 140.301 488.472 136.425C488.472 132.652 488.368 130.168 488.16 128.971C487.952 127.774 487.522 126.825 486.872 126.122Z" fill="white"/>
</g>
</g>
<g id="Group 608">
<g id="Group_15">
<path id="Vector_17" d="M321.098 205.79C319.849 207.767 318.288 208.756 316.415 208.756C314.385 208.756 312.72 207.988 311.42 206.454C310.119 204.919 309.338 203.28 309.078 201.536C309.026 201.12 309 200.6 309 199.975V199.663C309 197.244 309.898 195.136 311.693 193.341C313.254 191.78 314.971 191 316.844 191C316.896 191 316.974 191 317.078 191C317.182 191 317.286 191.013 317.39 191.039H317.546C317.859 191.039 318.184 191.065 318.522 191.117C318.86 191.169 319.341 191.325 319.966 191.585C320.59 191.845 321.202 192.262 321.8 192.834C322.398 193.406 322.958 194.174 323.478 195.136C324.597 197.426 325.156 200.366 325.156 203.956C325.156 207.598 324.376 210.681 322.815 213.205C321.904 214.662 320.811 215.793 319.537 216.6C318.262 217.406 316.909 217.823 315.478 217.849C313.891 217.849 312.59 217.471 311.576 216.717C310.561 215.962 310.041 214.844 310.015 213.361C309.989 211.878 310.678 211.149 312.083 211.175C312.655 211.175 313.137 211.358 313.527 211.722C313.917 212.086 314.112 212.593 314.112 213.244C314.112 213.712 313.995 214.115 313.761 214.454C313.527 214.792 313.319 215 313.137 215.078C312.954 215.156 312.785 215.221 312.629 215.273L312.473 215.312C312.473 215.364 312.564 215.442 312.746 215.546C312.928 215.65 313.267 215.78 313.761 215.936C314.255 216.093 314.802 216.158 315.4 216.132H315.634C317.195 216.132 318.509 215.299 319.576 213.634C320.59 212.177 321.098 209.654 321.098 206.063V205.79ZM316.883 207.312C318.132 207.312 319.133 206.675 319.888 205.4C320.642 204.125 321.033 202.395 321.059 200.21C321.059 198.18 320.954 196.723 320.746 195.839C320.694 195.579 320.616 195.319 320.512 195.058C320.408 194.798 320.226 194.46 319.966 194.044C319.706 193.627 319.315 193.276 318.795 192.99C318.275 192.704 317.663 192.574 316.961 192.6C315.972 192.6 315.127 192.951 314.424 193.654C313.878 194.226 313.527 194.902 313.371 195.683C313.215 196.463 313.124 197.829 313.098 199.78C313.098 201.94 313.163 203.397 313.293 204.151C313.423 204.906 313.683 205.517 314.073 205.985C314.724 206.87 315.66 207.312 316.883 207.312Z" fill="white"/>
</g>
<g id="Group_16">
<path id="Vector_18" d="M328.904 205.714C329.086 204.621 329.788 203.359 331.011 201.928C332.234 200.497 333.743 199.769 335.538 199.743C336.448 199.743 337.281 199.977 338.035 200.445C338.79 200.914 339.349 201.499 339.713 202.201C340.806 200.562 342.12 199.743 343.655 199.743C344.617 199.743 345.45 200.029 346.152 200.601C346.855 201.174 347.219 201.941 347.245 202.904C347.245 203.658 347.063 204.27 346.699 204.738C346.335 205.206 345.983 205.492 345.645 205.597C345.307 205.701 345.008 205.753 344.748 205.753C344.253 205.753 343.85 205.61 343.538 205.323C343.226 205.037 343.07 204.66 343.07 204.192C343.07 202.995 343.72 202.175 345.021 201.733C344.735 201.395 344.214 201.226 343.46 201.226C343.122 201.226 342.874 201.252 342.718 201.304C341.73 201.72 341.001 202.579 340.533 203.879C338.972 209.629 338.191 212.985 338.191 213.948C338.191 214.676 338.4 215.197 338.816 215.509C339.232 215.821 339.687 215.977 340.182 215.977C341.144 215.977 342.094 215.548 343.03 214.689C343.967 213.831 344.604 212.777 344.943 211.528C345.021 211.268 345.099 211.125 345.177 211.099C345.255 211.073 345.463 211.047 345.801 211.021H345.957C346.348 211.021 346.543 211.125 346.543 211.333C346.543 211.359 346.517 211.502 346.465 211.762C346.048 213.245 345.242 214.559 344.045 215.704C342.848 216.849 341.456 217.421 339.87 217.421C338.048 217.421 336.67 216.601 335.733 214.962C334.666 216.575 333.443 217.382 332.065 217.382H331.83C330.556 217.382 329.645 217.044 329.099 216.367C328.552 215.691 328.266 214.975 328.24 214.221C328.24 213.388 328.487 212.712 328.982 212.192C329.476 211.671 330.061 211.411 330.738 211.411C331.856 211.411 332.416 211.957 332.416 213.05C332.416 213.57 332.26 214.026 331.948 214.416C331.635 214.806 331.336 215.066 331.05 215.197C330.764 215.327 330.595 215.392 330.543 215.392L330.426 215.431C330.426 215.457 330.504 215.509 330.66 215.587C330.816 215.665 331.024 215.756 331.284 215.86C331.544 215.964 331.791 216.003 332.026 215.977C332.962 215.977 333.769 215.392 334.445 214.221C334.679 213.805 334.978 212.92 335.343 211.567C335.707 210.214 336.071 208.81 336.435 207.353C336.8 205.896 337.008 205.037 337.06 204.777C337.19 204.075 337.255 203.567 337.255 203.255C337.255 202.527 337.06 202.006 336.67 201.694C336.279 201.382 335.837 201.226 335.343 201.226C334.302 201.226 333.326 201.642 332.416 202.475C331.505 203.307 330.868 204.374 330.504 205.675C330.452 205.909 330.387 206.039 330.309 206.065C330.23 206.091 330.022 206.117 329.684 206.143H329.138C328.982 205.987 328.904 205.844 328.904 205.714Z" fill="white"/>
</g>
<g id="Group_17">
<path id="Vector_19" d="M362.225 203.449C362.225 203.11 362.407 202.85 362.771 202.668H387.629C388.02 202.876 388.215 203.136 388.215 203.449C388.215 203.735 388.033 203.982 387.669 204.19L375.259 204.229H362.849C362.433 204.099 362.225 203.839 362.225 203.449ZM362.225 211.019C362.225 210.629 362.433 210.369 362.849 210.239H387.669C388.033 210.499 388.215 210.759 388.215 211.019C388.215 211.358 388.02 211.618 387.629 211.8H362.771C362.407 211.618 362.225 211.358 362.225 211.019Z" fill="white"/>
</g>
<g id="Group_18">
<path id="Vector_20" d="M403.965 200.717C403.965 200.717 403.965 199.716 403.965 197.713C403.965 195.709 404.667 194.096 406.072 192.874C407.477 191.651 409.09 191.026 410.911 191C412.758 191 414.397 191.547 415.828 192.639C417.259 193.732 417.975 195.15 417.975 196.893C417.975 197.674 417.831 198.402 417.545 199.078C417.259 199.755 416.921 200.301 416.531 200.717C416.14 201.134 415.737 201.498 415.321 201.81C414.905 202.122 414.566 202.356 414.306 202.513C414.046 202.669 413.903 202.773 413.877 202.825L414.423 203.176C414.788 203.436 415.152 203.696 415.516 203.956C415.88 204.217 416.088 204.36 416.14 204.386C418.092 205.921 419.067 207.859 419.067 210.2C419.067 212.256 418.313 214.038 416.804 215.547C415.295 217.056 413.344 217.823 410.95 217.849C408.609 217.849 406.683 217.186 405.175 215.859C403.666 214.532 402.911 212.893 402.911 210.942C402.911 208.132 404.589 205.791 407.945 203.917L407.243 203.41C406.696 203.072 406.345 202.812 406.189 202.63C404.706 201.355 403.965 199.716 403.965 197.713V200.717ZM412.394 201.927L412.628 201.771C412.784 201.667 412.901 201.589 412.979 201.537C413.057 201.485 413.188 201.394 413.37 201.264C413.552 201.134 413.708 201.004 413.838 200.874C413.968 200.743 414.111 200.587 414.267 200.405C414.423 200.223 414.566 200.054 414.696 199.898C414.827 199.742 414.957 199.534 415.087 199.274C415.217 199.013 415.334 198.792 415.438 198.61C415.542 198.428 415.607 198.168 415.633 197.83C415.659 197.491 415.685 197.205 415.711 196.971C415.711 195.852 415.334 194.903 414.579 194.122C413.825 193.342 412.953 192.847 411.965 192.639C411.783 192.613 411.353 192.6 410.677 192.6C409.61 192.6 408.609 192.939 407.672 193.615C406.736 194.291 406.254 195.137 406.228 196.152C406.228 196.75 406.397 197.296 406.736 197.791C407.074 198.285 407.412 198.662 407.75 198.922C408.088 199.182 408.739 199.599 409.701 200.171C409.883 200.301 410.027 200.392 410.131 200.444L412.394 201.927ZM410.989 216.171C412.498 216.171 413.799 215.729 414.892 214.844C415.984 213.96 416.531 212.893 416.531 211.644C416.531 211.202 416.466 210.786 416.336 210.395C416.205 210.005 416.049 209.68 415.867 209.42C415.685 209.16 415.399 208.874 415.009 208.561C414.618 208.249 414.319 208.015 414.111 207.859C413.903 207.703 413.526 207.456 412.979 207.117C412.433 206.779 412.082 206.558 411.926 206.454C411.562 206.22 411.171 205.973 410.755 205.713C410.339 205.452 410.001 205.231 409.74 205.049L409.428 204.854C409.272 204.854 408.895 205.075 408.296 205.517C407.698 205.96 407.074 206.675 406.423 207.664C405.773 208.652 405.435 209.719 405.409 210.864C405.409 212.399 405.968 213.661 407.087 214.649C408.205 215.638 409.506 216.145 410.989 216.171Z" fill="white"/>
<path id="Vector_21" d="M429.056 194.435L428.548 194.63C428.184 194.76 427.664 194.89 426.987 195.02C426.311 195.15 425.556 195.241 424.724 195.293H423.982V193.498H424.724C425.947 193.446 427.078 193.251 428.119 192.913C429.16 192.574 429.888 192.262 430.304 191.976C430.721 191.69 431.085 191.404 431.397 191.118C431.449 191.04 431.605 191 431.865 191C432.099 191 432.321 191.079 432.529 191.235V202.903L432.568 214.61C432.75 214.792 432.906 214.909 433.036 214.961C433.166 215.013 433.478 215.066 433.973 215.118C434.467 215.17 435.273 215.196 436.392 215.196H437.407V216.991H436.978C436.431 216.913 434.363 216.874 430.773 216.874C427.234 216.874 425.192 216.913 424.646 216.991H424.178V215.196H425.192C425.765 215.196 426.259 215.196 426.675 215.196C427.091 215.196 427.417 215.183 427.651 215.157C427.885 215.131 428.093 215.092 428.275 215.04C428.457 214.987 428.561 214.961 428.587 214.961C428.613 214.961 428.691 214.896 428.821 214.766C428.952 214.636 429.03 214.584 429.056 214.61V194.435Z" fill="white"/>
<path id="Vector_22" d="M444.003 194.161C445.46 192.054 447.45 191 449.973 191C451.222 191 452.471 191.339 453.72 192.015C454.969 192.691 455.983 193.888 456.764 195.605C457.726 197.765 458.208 200.73 458.208 204.503C458.208 208.535 457.648 211.618 456.53 213.752C456.009 214.844 455.294 215.716 454.383 216.366C453.473 217.017 452.679 217.42 452.003 217.576C451.326 217.732 450.663 217.823 450.012 217.849C449.336 217.849 448.66 217.771 447.983 217.615C447.307 217.459 446.513 217.043 445.603 216.366C444.692 215.69 443.977 214.818 443.456 213.752C442.338 211.618 441.778 208.535 441.778 204.503C441.778 199.976 442.52 196.529 444.003 194.161ZM452.783 193.693C452.003 192.861 451.079 192.444 450.012 192.444C448.92 192.444 447.983 192.861 447.203 193.693C446.552 194.369 446.123 195.306 445.915 196.503C445.707 197.7 445.603 200.197 445.603 203.995C445.603 208.106 445.707 210.812 445.915 212.113C446.123 213.413 446.591 214.441 447.32 215.195C448.048 215.976 448.946 216.366 450.012 216.366C451.053 216.366 451.938 215.976 452.666 215.195C453.421 214.415 453.889 213.322 454.071 211.917C454.253 210.513 454.357 207.872 454.383 203.995C454.383 200.223 454.279 197.739 454.071 196.542C453.863 195.345 453.434 194.395 452.783 193.693Z" fill="white"/>
</g>
</g>
<g id="Group 609">
<g id="Group_19">
<path id="Vector_23" d="M270.663 297.092C270.846 295.999 271.548 294.738 272.771 293.307C273.993 291.876 275.502 291.147 277.298 291.121C278.208 291.121 279.041 291.355 279.795 291.824C280.55 292.292 281.109 292.877 281.473 293.58C282.566 291.941 283.88 291.121 285.415 291.121C286.377 291.121 287.21 291.407 287.912 291.98C288.615 292.552 288.979 293.32 289.005 294.282C289.005 295.037 288.823 295.648 288.459 296.116C288.094 296.585 287.743 296.871 287.405 296.975C287.067 297.079 286.767 297.131 286.507 297.131C286.013 297.131 285.61 296.988 285.298 296.702C284.985 296.416 284.829 296.038 284.829 295.57C284.829 294.373 285.48 293.554 286.78 293.112C286.494 292.773 285.974 292.604 285.22 292.604C284.881 292.604 284.634 292.63 284.478 292.682C283.489 293.099 282.761 293.957 282.293 295.258C280.732 301.007 279.951 304.364 279.951 305.326C279.951 306.055 280.159 306.575 280.576 306.887C280.992 307.199 281.447 307.355 281.941 307.355C282.904 307.355 283.854 306.926 284.79 306.068C285.727 305.209 286.364 304.155 286.702 302.907C286.78 302.646 286.859 302.503 286.937 302.477C287.015 302.451 287.223 302.425 287.561 302.399H287.717C288.107 302.399 288.302 302.503 288.302 302.712C288.302 302.738 288.276 302.881 288.224 303.141C287.808 304.624 287.002 305.938 285.805 307.082C284.608 308.227 283.216 308.799 281.629 308.799C279.808 308.799 278.429 307.98 277.493 306.341C276.426 307.954 275.203 308.76 273.824 308.76H273.59C272.315 308.76 271.405 308.422 270.859 307.746C270.312 307.069 270.026 306.354 270 305.599C270 304.767 270.247 304.09 270.741 303.57C271.236 303.05 271.821 302.79 272.498 302.79C273.616 302.79 274.176 303.336 274.176 304.429C274.176 304.949 274.02 305.404 273.707 305.794C273.395 306.185 273.096 306.445 272.81 306.575C272.524 306.705 272.354 306.77 272.302 306.77L272.185 306.809C272.185 306.835 272.263 306.887 272.42 306.965C272.576 307.043 272.784 307.134 273.044 307.238C273.304 307.342 273.551 307.381 273.785 307.355C274.722 307.355 275.528 306.77 276.205 305.599C276.439 305.183 276.738 304.299 277.102 302.946C277.467 301.593 277.831 300.188 278.195 298.731C278.559 297.274 278.767 296.416 278.82 296.155C278.95 295.453 279.015 294.946 279.015 294.633C279.015 293.905 278.82 293.385 278.429 293.072C278.039 292.76 277.597 292.604 277.102 292.604C276.062 292.604 275.086 293.02 274.176 293.853C273.265 294.685 272.628 295.752 272.263 297.053C272.211 297.287 272.146 297.417 272.068 297.443C271.99 297.469 271.782 297.495 271.444 297.521H270.898C270.741 297.365 270.663 297.222 270.663 297.092Z" fill="white"/>
</g>
<g id="Group_20">
<path id="Vector_24" d="M303.984 294.827C303.984 294.489 304.166 294.229 304.531 294.047H329.389C329.779 294.255 329.975 294.515 329.975 294.827C329.975 295.113 329.793 295.36 329.428 295.568L317.019 295.607H304.609C304.193 295.477 303.984 295.217 303.984 294.827ZM303.984 302.398C303.984 302.007 304.193 301.747 304.609 301.617H329.428C329.793 301.877 329.975 302.138 329.975 302.398C329.975 302.736 329.779 302.996 329.389 303.178H304.531C304.166 302.996 303.984 302.736 303.984 302.398Z" fill="white"/>
</g>
<g id="Group_21">
<g id="Group_22">
<path id="Vector_25" d="M354.314 265.717C354.314 265.717 354.314 264.716 354.314 262.713C354.314 260.709 355.017 259.096 356.422 257.874C357.827 256.651 359.44 256.026 361.261 256C363.108 256 364.747 256.547 366.178 257.639C367.609 258.732 368.324 260.15 368.324 261.893C368.324 262.674 368.181 263.402 367.895 264.078C367.609 264.755 367.27 265.301 366.88 265.717C366.49 266.134 366.087 266.498 365.67 266.81C365.254 267.122 364.916 267.356 364.656 267.513C364.396 267.669 364.253 267.773 364.227 267.825L364.773 268.176C365.137 268.436 365.501 268.696 365.866 268.956C366.23 269.217 366.438 269.36 366.49 269.386C368.441 270.921 369.417 272.859 369.417 275.2C369.417 277.256 368.662 279.038 367.153 280.547C365.644 282.056 363.693 282.823 361.3 282.849C358.958 282.849 357.033 282.186 355.524 280.859C354.015 279.532 353.261 277.893 353.261 275.942C353.261 273.132 354.939 270.791 358.295 268.917L357.592 268.41C357.046 268.072 356.695 267.812 356.539 267.63C355.056 266.355 354.314 264.716 354.314 262.713V265.717ZM362.744 266.927L362.978 266.771C363.134 266.667 363.251 266.589 363.329 266.537C363.407 266.485 363.537 266.394 363.719 266.264C363.901 266.134 364.057 266.004 364.188 265.874C364.318 265.743 364.461 265.587 364.617 265.405C364.773 265.223 364.916 265.054 365.046 264.898C365.176 264.742 365.306 264.534 365.436 264.274C365.566 264.013 365.684 263.792 365.788 263.61C365.892 263.428 365.957 263.168 365.983 262.83C366.009 262.491 366.035 262.205 366.061 261.971C366.061 260.852 365.684 259.903 364.929 259.122C364.175 258.342 363.303 257.847 362.314 257.639C362.132 257.613 361.703 257.6 361.027 257.6C359.96 257.6 358.958 257.939 358.022 258.615C357.085 259.291 356.604 260.137 356.578 261.152C356.578 261.75 356.747 262.296 357.085 262.791C357.423 263.285 357.762 263.662 358.1 263.922C358.438 264.182 359.088 264.599 360.051 265.171C360.233 265.301 360.376 265.392 360.48 265.444L362.744 266.927ZM361.339 281.171C362.848 281.171 364.149 280.729 365.241 279.844C366.334 278.96 366.88 277.893 366.88 276.644C366.88 276.202 366.815 275.786 366.685 275.395C366.555 275.005 366.399 274.68 366.217 274.42C366.035 274.16 365.749 273.874 365.358 273.561C364.968 273.249 364.669 273.015 364.461 272.859C364.253 272.703 363.875 272.456 363.329 272.117C362.783 271.779 362.431 271.558 362.275 271.454C361.911 271.22 361.521 270.973 361.105 270.713C360.688 270.452 360.35 270.231 360.09 270.049L359.778 269.854C359.622 269.854 359.244 270.075 358.646 270.517C358.048 270.96 357.423 271.675 356.773 272.664C356.123 273.652 355.784 274.719 355.758 275.864C355.758 277.399 356.318 278.661 357.436 279.649C358.555 280.638 359.856 281.145 361.339 281.171Z" fill="white"/>
<path id="Vector_26" d="M379.404 259.435L378.897 259.63C378.533 259.76 378.012 259.89 377.336 260.02C376.66 260.15 375.905 260.241 375.073 260.293H374.331V258.498H375.073C376.295 258.446 377.427 258.251 378.468 257.913C379.508 257.574 380.237 257.262 380.653 256.976C381.069 256.69 381.433 256.404 381.746 256.118C381.798 256.04 381.954 256 382.214 256C382.448 256 382.669 256.079 382.877 256.235V267.903L382.916 279.61C383.099 279.792 383.255 279.909 383.385 279.961C383.515 280.013 383.827 280.066 384.321 280.118C384.816 280.17 385.622 280.196 386.741 280.196H387.755V281.991H387.326C386.78 281.913 384.712 281.874 381.121 281.874C377.583 281.874 375.541 281.913 374.994 281.991H374.526V280.196H375.541C376.113 280.196 376.607 280.196 377.024 280.196C377.44 280.196 377.765 280.183 377.999 280.157C378.233 280.131 378.442 280.092 378.624 280.04C378.806 279.987 378.91 279.961 378.936 279.961C378.962 279.961 379.04 279.896 379.17 279.766C379.3 279.636 379.378 279.584 379.404 279.61V259.435Z" fill="white"/>
<path id="Vector_27" d="M394.352 259.161C395.809 257.054 397.799 256 400.323 256C401.572 256 402.821 256.339 404.069 257.015C405.318 257.691 406.333 258.888 407.113 260.605C408.076 262.765 408.557 265.73 408.557 269.503C408.557 273.535 407.998 276.618 406.879 278.752C406.359 279.844 405.643 280.716 404.733 281.366C403.822 282.017 403.029 282.42 402.352 282.576C401.676 282.732 401.012 282.823 400.362 282.849C399.686 282.849 399.009 282.771 398.333 282.615C397.656 282.459 396.863 282.043 395.952 281.366C395.042 280.69 394.326 279.818 393.806 278.752C392.687 276.618 392.128 273.535 392.128 269.503C392.128 264.976 392.869 261.529 394.352 259.161ZM403.133 258.693C402.352 257.861 401.429 257.444 400.362 257.444C399.269 257.444 398.333 257.861 397.552 258.693C396.902 259.369 396.473 260.306 396.265 261.503C396.056 262.7 395.952 265.197 395.952 268.995C395.952 273.106 396.056 275.812 396.265 277.113C396.473 278.413 396.941 279.441 397.669 280.195C398.398 280.976 399.295 281.366 400.362 281.366C401.403 281.366 402.287 280.976 403.016 280.195C403.77 279.415 404.239 278.322 404.421 276.917C404.603 275.513 404.707 272.872 404.733 268.995C404.733 265.223 404.629 262.739 404.421 261.542C404.212 260.345 403.783 259.395 403.133 258.693Z" fill="white"/>
</g>
<g id="Group_23">
<path id="Vector_28" d="M384.832 323.94C383.583 325.918 382.022 326.906 380.149 326.906C378.12 326.906 376.455 326.139 375.154 324.604C373.853 323.069 373.073 321.43 372.812 319.687C372.76 319.271 372.734 318.75 372.734 318.126V317.814C372.734 315.394 373.632 313.287 375.427 311.492C376.988 309.931 378.705 309.15 380.578 309.15C380.63 309.15 380.708 309.15 380.812 309.15C380.916 309.15 381.021 309.163 381.125 309.189H381.281C381.593 309.189 381.918 309.215 382.256 309.267C382.595 309.319 383.076 309.475 383.7 309.736C384.325 309.996 384.936 310.412 385.534 310.984C386.133 311.557 386.692 312.324 387.212 313.287C388.331 315.576 388.89 318.516 388.89 322.106C388.89 325.749 388.11 328.832 386.549 331.355C385.638 332.812 384.546 333.944 383.271 334.75C381.996 335.557 380.643 335.973 379.212 335.999C377.625 335.999 376.325 335.622 375.31 334.867C374.295 334.113 373.775 332.994 373.749 331.511C373.723 330.028 374.412 329.3 375.817 329.326C376.39 329.326 376.871 329.508 377.261 329.872C377.651 330.236 377.847 330.744 377.847 331.394C377.847 331.862 377.729 332.266 377.495 332.604C377.261 332.942 377.053 333.15 376.871 333.228C376.689 333.306 376.52 333.371 376.364 333.423L376.208 333.462C376.208 333.514 376.299 333.593 376.481 333.697C376.663 333.801 377.001 333.931 377.495 334.087C377.99 334.243 378.536 334.308 379.134 334.282H379.369C380.929 334.282 382.243 333.449 383.31 331.784C384.325 330.327 384.832 327.804 384.832 324.214V323.94ZM380.617 325.462C381.866 325.462 382.868 324.825 383.622 323.55C384.377 322.275 384.767 320.545 384.793 318.36C384.793 316.331 384.689 314.874 384.481 313.989C384.429 313.729 384.351 313.469 384.247 313.209C384.143 312.949 383.96 312.61 383.7 312.194C383.44 311.778 383.05 311.427 382.529 311.14C382.009 310.854 381.398 310.724 380.695 310.75C379.707 310.75 378.861 311.101 378.159 311.804C377.612 312.376 377.261 313.053 377.105 313.833C376.949 314.614 376.858 315.98 376.832 317.931C376.832 320.09 376.897 321.547 377.027 322.301C377.157 323.056 377.417 323.667 377.808 324.136C378.458 325.02 379.395 325.462 380.617 325.462Z" fill="white"/>
</g>
<path id="Vector_29" d="M414.024 299.784H347.683V297.443H414.024V299.784Z" fill="white"/>
</g>
<g id="Group_24">
<path id="Vector_30" d="M431.731 294.827C431.731 294.489 431.914 294.229 432.278 294.047H457.136C457.527 294.255 457.722 294.515 457.722 294.827C457.722 295.113 457.54 295.36 457.175 295.568L444.766 295.607H432.356C431.94 295.477 431.731 295.217 431.731 294.827ZM431.731 302.398C431.731 302.007 431.94 301.747 432.356 301.617H457.175C457.54 301.877 457.722 302.138 457.722 302.398C457.722 302.736 457.527 302.996 457.136 303.178H432.278C431.914 302.996 431.731 302.736 431.731 302.398Z" fill="white"/>
</g>
<g id="Group_25">
<path id="Vector_31" d="M484.482 297.169C483.234 299.146 481.673 300.135 479.799 300.135C477.77 300.135 476.105 299.367 474.804 297.832C473.503 296.297 472.723 294.658 472.463 292.915C472.411 292.499 472.385 291.979 472.385 291.354V291.042C472.385 288.623 473.282 286.515 475.077 284.72C476.638 283.159 478.355 282.379 480.229 282.379C480.281 282.379 480.359 282.379 480.463 282.379C480.567 282.379 480.671 282.392 480.775 282.418H480.931C481.243 282.418 481.569 282.444 481.907 282.496C482.245 282.548 482.726 282.704 483.351 282.964C483.975 283.224 484.586 283.641 485.185 284.213C485.783 284.785 486.342 285.553 486.863 286.515C487.982 288.805 488.541 291.745 488.541 295.335C488.541 298.977 487.76 302.06 486.199 304.584C485.289 306.041 484.196 307.172 482.921 307.979C481.647 308.785 480.294 309.202 478.863 309.228C477.276 309.228 475.975 308.85 474.96 308.096C473.946 307.341 473.425 306.223 473.399 304.74C473.373 303.257 474.063 302.528 475.468 302.554C476.04 302.554 476.521 302.736 476.912 303.101C477.302 303.465 477.497 303.972 477.497 304.623C477.497 305.091 477.38 305.494 477.146 305.832C476.912 306.171 476.703 306.379 476.521 306.457C476.339 306.535 476.17 306.6 476.014 306.652L475.858 306.691C475.858 306.743 475.949 306.821 476.131 306.925C476.313 307.029 476.651 307.159 477.146 307.315C477.64 307.471 478.186 307.536 478.785 307.51H479.019C480.58 307.51 481.894 306.678 482.96 305.013C483.975 303.556 484.482 301.032 484.482 297.442V297.169ZM480.268 298.691C481.516 298.691 482.518 298.054 483.273 296.779C484.027 295.504 484.417 293.774 484.443 291.589C484.443 289.559 484.339 288.102 484.131 287.218C484.079 286.958 484.001 286.697 483.897 286.437C483.793 286.177 483.611 285.839 483.351 285.423C483.09 285.006 482.7 284.655 482.18 284.369C481.66 284.083 481.048 283.953 480.346 283.979C479.357 283.979 478.512 284.33 477.809 285.032C477.263 285.605 476.912 286.281 476.755 287.062C476.599 287.842 476.508 289.208 476.482 291.159C476.482 293.319 476.547 294.776 476.677 295.53C476.808 296.284 477.068 296.896 477.458 297.364C478.108 298.249 479.045 298.691 480.268 298.691Z" fill="white"/>
<path id="Vector_32" d="M494.003 285.54C495.46 283.432 497.45 282.379 499.973 282.379C501.222 282.379 502.471 282.717 503.72 283.393C504.969 284.07 505.983 285.267 506.764 286.984C507.726 289.143 508.208 292.109 508.208 295.881C508.208 299.914 507.648 302.997 506.53 305.13C506.009 306.223 505.294 307.094 504.383 307.745C503.473 308.395 502.679 308.798 502.003 308.954C501.326 309.11 500.663 309.202 500.012 309.228C499.336 309.228 498.66 309.149 497.983 308.993C497.307 308.837 496.513 308.421 495.603 307.745C494.692 307.068 493.977 306.197 493.456 305.13C492.338 302.997 491.778 299.914 491.778 295.881C491.778 291.354 492.52 287.907 494.003 285.54ZM502.783 285.071C502.003 284.239 501.079 283.823 500.012 283.823C498.92 283.823 497.983 284.239 497.203 285.071C496.552 285.748 496.123 286.684 495.915 287.881C495.707 289.078 495.603 291.576 495.603 295.374C495.603 299.484 495.707 302.19 495.915 303.491C496.123 304.792 496.591 305.819 497.32 306.574C498.048 307.354 498.946 307.745 500.012 307.745C501.053 307.745 501.938 307.354 502.666 306.574C503.421 305.793 503.889 304.701 504.071 303.296C504.253 301.891 504.357 299.25 504.383 295.374C504.383 291.602 504.279 289.117 504.071 287.92C503.863 286.723 503.434 285.774 502.783 285.071Z" fill="white"/>
</g>
</g>
<g id="Group 610">
<g id="Group_26">
<path id="Vector_33" d="M125 378.433C125 375.441 125.872 372.567 127.615 369.809C129.358 367.051 131.556 364.866 134.21 363.253C136.863 361.64 139.517 360.82 142.171 360.794C144.512 360.794 146.372 361.458 147.751 362.785C147.985 363.045 148.18 363.266 148.337 363.448C148.493 363.63 148.597 363.76 148.649 363.838L148.688 363.955C148.766 363.955 149.117 363.617 149.741 362.941C149.924 362.785 150.119 362.602 150.327 362.394C150.535 362.186 150.743 361.978 150.951 361.77C151.159 361.562 151.289 361.419 151.341 361.341L151.927 360.755H152.161C152.525 360.755 152.707 360.846 152.707 361.028C152.707 361.132 152.291 362.915 151.459 366.375C150.522 369.991 150.054 371.812 150.054 371.838C150.002 371.968 149.937 372.046 149.859 372.072C149.78 372.098 149.546 372.124 149.156 372.15H148.532C148.376 371.994 148.298 371.877 148.298 371.799C148.298 371.773 148.311 371.682 148.337 371.526C148.363 371.37 148.389 371.11 148.415 370.745C148.441 370.381 148.454 369.965 148.454 369.497C148.454 367.65 148.037 366.037 147.205 364.658C146.372 363.279 144.954 362.576 142.951 362.55C142.483 362.55 141.976 362.589 141.429 362.667C140.883 362.745 140.193 362.915 139.361 363.175C138.528 363.435 137.735 363.799 136.98 364.267C136.226 364.736 135.407 365.36 134.522 366.141C133.637 366.921 132.883 367.845 132.259 368.911C131.634 369.978 131.023 371.305 130.424 372.892C129.826 374.479 129.423 376.222 129.215 378.121C129.163 378.589 129.137 379.097 129.137 379.643C129.137 380.892 129.319 381.998 129.683 382.96C130.047 383.923 130.515 384.664 131.088 385.185C131.66 385.705 132.311 386.147 133.039 386.511C133.767 386.876 134.444 387.097 135.068 387.175C135.693 387.253 136.278 387.305 136.824 387.331C138.229 387.331 139.517 387.032 140.688 386.433C141.859 385.835 142.665 385.067 143.107 384.131C143.185 383.923 143.38 383.207 143.693 381.985C144.005 380.762 144.161 380.072 144.161 379.916C144.161 379.708 143.992 379.578 143.654 379.526C143.315 379.474 142.535 379.435 141.312 379.409H139.868C139.712 379.253 139.634 379.149 139.634 379.097C139.634 379.045 139.66 378.798 139.712 378.355C139.816 378.017 139.946 377.77 140.102 377.614H140.766C141.807 377.666 143.628 377.692 146.229 377.692C147.27 377.692 148.115 377.692 148.766 377.692C149.416 377.692 149.885 377.679 150.171 377.653C150.457 377.627 150.613 377.627 150.639 377.653C151.003 377.653 151.185 377.77 151.185 378.004C151.185 378.056 151.159 378.238 151.107 378.55C150.977 379.045 150.847 379.318 150.717 379.37C150.639 379.396 150.444 379.409 150.132 379.409C149.611 379.409 149.078 379.448 148.532 379.526C148.35 379.604 148.22 379.721 148.141 379.877C148.063 380.033 147.881 380.697 147.595 381.867C147.361 382.726 147.166 383.454 147.01 384.053C146.359 386.706 145.995 388.072 145.917 388.15C145.865 388.202 145.8 388.228 145.722 388.228C145.462 388.228 145.098 387.968 144.629 387.448C144.161 386.928 143.862 386.524 143.732 386.238C143.732 386.212 143.706 386.212 143.654 386.238C143.602 386.264 143.524 386.329 143.42 386.433C141.494 388.228 138.893 389.126 135.615 389.126C132.467 389.126 129.917 388.124 127.966 386.121C126.015 384.118 125.026 381.555 125 378.433Z" fill="white"/>
</g>
<g id="Group_27">
<path id="Vector_34" d="M155.009 382.141C155.009 379.513 155.997 377.016 157.975 374.648C159.952 372.281 162.176 371.084 164.648 371.058C165.975 371.058 167.145 371.696 168.16 372.97C168.576 372.19 169.175 371.8 169.955 371.8C170.293 371.8 170.593 371.904 170.853 372.112C171.113 372.32 171.243 372.58 171.243 372.892C171.243 373.231 170.762 375.312 169.799 379.136C168.836 382.961 168.342 385.12 168.316 385.614C168.316 386.265 168.407 386.694 168.589 386.902C168.771 387.11 169.045 387.227 169.409 387.253C169.643 387.227 169.903 387.11 170.189 386.902C170.736 386.382 171.269 385.133 171.789 383.156C171.945 382.635 172.075 382.362 172.18 382.336C172.232 382.31 172.362 382.297 172.57 382.297H172.726C173.22 382.297 173.467 382.414 173.467 382.648C173.467 382.805 173.402 383.156 173.272 383.702C173.142 384.248 172.882 384.951 172.492 385.809C172.101 386.668 171.685 387.318 171.243 387.761C170.905 388.099 170.488 388.372 169.994 388.58C169.786 388.632 169.474 388.658 169.058 388.658C168.173 388.658 167.432 388.463 166.833 388.073C166.235 387.683 165.845 387.279 165.662 386.863L165.428 386.278C165.402 386.252 165.35 386.265 165.272 386.317C165.22 386.369 165.168 386.421 165.116 386.473C163.581 387.93 162.02 388.658 160.433 388.658C159.002 388.658 157.74 388.138 156.648 387.097C155.555 386.057 155.009 384.405 155.009 382.141ZM167.419 375.468C167.419 375.312 167.354 375.026 167.223 374.609C167.093 374.193 166.794 373.738 166.326 373.244C165.858 372.749 165.259 372.489 164.531 372.463C163.62 372.463 162.749 372.866 161.916 373.673C161.084 374.479 160.433 375.533 159.965 376.834C159.21 378.889 158.677 381.022 158.365 383.234C158.365 383.312 158.365 383.455 158.365 383.663C158.365 383.871 158.352 384.027 158.326 384.131C158.326 385.302 158.56 386.109 159.028 386.551C159.497 386.993 160.056 387.227 160.706 387.253C161.695 387.253 162.671 386.824 163.633 385.966C164.596 385.107 165.168 384.444 165.35 383.975C165.402 383.871 165.754 382.479 166.404 379.8C167.054 377.12 167.393 375.676 167.419 375.468Z" fill="white"/>
</g>
<g id="Group_28">
<path id="Vector_35" d="M179.483 376.99C179.483 376.157 179.691 375.312 180.108 374.453C180.524 373.595 181.252 372.801 182.293 372.073C183.334 371.344 184.596 370.993 186.078 371.019C187.691 371.019 188.862 371.37 189.591 372.073C190.319 372.775 190.696 373.556 190.722 374.414C190.722 375.247 190.501 375.858 190.059 376.248C189.617 376.639 189.122 376.847 188.576 376.873C188.238 376.873 187.926 376.769 187.639 376.561C187.353 376.353 187.197 376.014 187.171 375.546C187.171 375.13 187.288 374.766 187.522 374.453C187.757 374.141 187.978 373.907 188.186 373.751C188.394 373.595 188.563 373.517 188.693 373.517C188.719 373.517 188.732 373.504 188.732 373.478C188.732 373.4 188.641 373.283 188.459 373.126C188.277 372.97 187.952 372.827 187.483 372.697C187.015 372.567 186.508 372.489 185.961 372.463C184.713 372.463 183.802 372.801 183.23 373.478C182.657 374.154 182.358 374.844 182.332 375.546C182.332 376.196 182.579 376.652 183.074 376.912C183.568 377.172 184.283 377.393 185.22 377.575C186.157 377.757 186.833 377.953 187.249 378.161C188.966 378.915 189.825 380.164 189.825 381.907C189.825 382.635 189.682 383.364 189.396 384.092C189.109 384.821 188.68 385.549 188.108 386.278C187.535 387.006 186.716 387.579 185.649 387.995C184.583 388.411 183.36 388.632 181.981 388.658C179.978 388.658 178.56 388.281 177.727 387.526C176.895 386.772 176.465 385.887 176.439 384.873C176.439 383.858 176.713 383.13 177.259 382.687C177.805 382.245 178.378 382.024 178.976 382.024C179.366 382.024 179.731 382.141 180.069 382.375C180.407 382.609 180.589 383.013 180.615 383.585C180.615 384.261 180.381 384.834 179.913 385.302C179.444 385.77 179.041 386.005 178.703 386.005C178.651 386.031 178.612 386.044 178.586 386.044C178.56 386.044 178.547 386.07 178.547 386.122C178.573 386.2 178.677 386.304 178.859 386.434C179.041 386.564 179.444 386.733 180.069 386.941C180.693 387.149 181.409 387.24 182.215 387.214C183.152 387.214 183.958 387.071 184.635 386.785C185.311 386.499 185.805 386.135 186.118 385.692C186.43 385.25 186.651 384.847 186.781 384.483C186.911 384.118 186.976 383.793 186.976 383.507C186.976 382.779 186.703 382.232 186.157 381.868C185.61 381.504 184.986 381.283 184.283 381.205C183.581 381.126 182.813 380.931 181.981 380.619C181.148 380.307 180.537 379.852 180.147 379.253C179.704 378.603 179.483 377.848 179.483 376.99Z" fill="white"/>
</g>
<g id="Group_29">
<path id="Vector_36" d="M193.687 373.245C193.505 373.062 193.414 372.932 193.414 372.854C193.414 372.75 193.453 372.542 193.531 372.23C193.609 371.918 193.674 371.736 193.726 371.684C193.778 371.554 193.895 371.488 194.077 371.488C194.26 371.488 194.923 371.475 196.068 371.449H198.136L198.877 368.328C198.956 368.041 199.047 367.664 199.151 367.196C199.255 366.728 199.346 366.389 199.424 366.181C199.502 365.973 199.58 365.713 199.658 365.401C199.736 365.088 199.84 364.867 199.97 364.737C200.1 364.607 200.23 364.451 200.36 364.269C200.49 364.087 200.673 363.97 200.907 363.918C201.141 363.866 201.375 363.84 201.609 363.84C202.077 363.866 202.403 364.009 202.585 364.269C202.767 364.529 202.858 364.776 202.858 365.01C202.858 365.193 202.741 365.804 202.507 366.845C202.273 367.885 202.012 368.913 201.726 369.928L201.336 371.371C201.336 371.423 201.986 371.449 203.287 371.449H205.277C205.46 371.632 205.551 371.775 205.551 371.879C205.551 372.451 205.382 372.906 205.043 373.245H200.868L199.463 378.903C198.448 383.066 197.941 385.303 197.941 385.615C197.941 386.708 198.292 387.254 198.995 387.254C199.905 387.254 200.79 386.812 201.648 385.928C202.507 385.043 203.196 383.95 203.717 382.649C203.769 382.493 203.834 382.402 203.912 382.376C203.99 382.35 204.185 382.324 204.497 382.298H204.653C205.043 382.298 205.238 382.402 205.238 382.61C205.238 382.688 205.199 382.845 205.121 383.079C204.991 383.495 204.757 383.989 204.419 384.562C204.081 385.134 203.638 385.745 203.092 386.396C202.546 387.046 201.882 387.593 201.102 388.035C200.321 388.477 199.528 388.698 198.721 388.698C197.941 388.698 197.199 388.503 196.497 388.113C195.795 387.723 195.287 387.046 194.975 386.084C194.923 385.875 194.897 385.524 194.897 385.03V384.328L196.263 378.864C197.173 375.196 197.642 373.349 197.668 373.323C197.668 373.271 197.004 373.245 195.677 373.245H193.687Z" fill="white"/>
</g>
<g id="Group_30">
<path id="Vector_37" d="M208.279 381.713C208.279 380.23 208.526 378.877 209.021 377.654C209.515 376.432 210.152 375.417 210.933 374.61C211.713 373.804 212.585 373.128 213.548 372.581C214.51 372.035 215.421 371.632 216.279 371.371C217.138 371.111 217.957 370.994 218.738 371.02H218.855C220.026 371.02 221.04 371.306 221.899 371.879C222.757 372.451 223.187 373.297 223.187 374.415C223.187 376.757 221.743 378.292 218.855 379.02C217.58 379.358 215.837 379.541 213.626 379.567C212.663 379.567 212.169 379.593 212.143 379.645C212.143 379.697 212.065 380.152 211.909 381.01C211.752 381.869 211.661 382.623 211.635 383.274C211.635 384.497 211.909 385.459 212.455 386.162C213.001 386.864 213.821 387.228 214.913 387.254C216.006 387.28 217.216 387.033 218.543 386.513C219.87 385.993 221.066 385.134 222.133 383.937C222.367 383.677 222.523 383.547 222.601 383.547C222.705 383.547 222.874 383.664 223.109 383.898C223.343 384.132 223.473 384.315 223.499 384.445C223.525 384.575 223.408 384.783 223.148 385.069C222.887 385.355 222.497 385.706 221.977 386.123C221.457 386.539 220.858 386.942 220.182 387.332C219.505 387.723 218.686 388.048 217.723 388.308C216.761 388.568 215.772 388.698 214.757 388.698C212.702 388.698 211.115 388.009 209.996 386.63C208.878 385.251 208.305 383.612 208.279 381.713ZM221.313 374.493C221.157 373.141 220.273 372.464 218.66 372.464C217.801 372.464 217.008 372.646 216.279 373.01C215.551 373.375 214.965 373.817 214.523 374.337C214.081 374.858 213.704 375.391 213.391 375.937C213.079 376.484 212.871 376.952 212.767 377.342C212.663 377.732 212.598 377.98 212.572 378.084C212.572 378.11 212.832 378.123 213.352 378.123C216.292 378.123 218.348 377.81 219.518 377.186C220.689 376.562 221.287 375.664 221.313 374.493Z" fill="white"/>
</g>
<g id="Group_31">
<path id="Vector_38" d="M237.969 374.726C237.969 374.388 238.151 374.128 238.515 373.945H263.374C263.764 374.154 263.959 374.414 263.959 374.726C263.959 375.012 263.777 375.259 263.413 375.467L251.003 375.506H238.593C238.177 375.376 237.969 375.116 237.969 374.726ZM237.969 382.297C237.969 381.906 238.177 381.646 238.593 381.516H263.413C263.777 381.776 263.959 382.036 263.959 382.297C263.959 382.635 263.764 382.895 263.374 383.077H238.515C238.151 382.895 237.969 382.635 237.969 382.297Z" fill="white"/>
</g>
<g id="Group_32">
<path id="Vector_39" d="M295.016 388.268C294.547 388.19 292.869 388.151 289.982 388.151C286.964 388.151 285.221 388.19 284.752 388.268H284.401V386.472H285.611C286.131 386.472 286.482 386.472 286.664 386.472C286.847 386.472 287.068 386.446 287.328 386.394C287.588 386.342 287.77 386.277 287.874 386.199C287.978 386.121 288.069 386.017 288.147 385.887C288.173 385.835 288.186 385.133 288.186 383.78V381.829H278.079V380.033L283.972 371.019C287.952 364.983 289.969 361.952 290.021 361.926C290.073 361.874 290.346 361.848 290.84 361.848H291.543L291.777 362.082V380.033H295.367V381.829H291.777V383.819C291.777 384.885 291.777 385.51 291.777 385.692C291.777 385.874 291.855 386.03 292.011 386.16C292.219 386.342 292.96 386.446 294.235 386.472H295.367V388.268H295.016ZM288.421 380.033V366.999L279.874 379.994L284.128 380.033H288.421Z" fill="white"/>
</g>
<g id="Group_33">
<path id="Vector_40" d="M298.53 376.991C298.712 375.898 299.414 374.636 300.637 373.206C301.86 371.775 303.369 371.046 305.164 371.02C306.074 371.02 306.907 371.254 307.661 371.723C308.416 372.191 308.975 372.776 309.339 373.479C310.432 371.84 311.746 371.02 313.281 371.02C314.243 371.02 315.076 371.306 315.778 371.879C316.481 372.451 316.845 373.219 316.871 374.181C316.871 374.936 316.689 375.547 316.325 376.015C315.961 376.484 315.609 376.77 315.271 376.874C314.933 376.978 314.634 377.03 314.374 377.03C313.879 377.03 313.476 376.887 313.164 376.601C312.852 376.315 312.695 375.937 312.695 375.469C312.695 374.272 313.346 373.453 314.647 373.01C314.361 372.672 313.84 372.503 313.086 372.503C312.748 372.503 312.5 372.529 312.344 372.581C311.356 372.997 310.627 373.856 310.159 375.157C308.598 380.906 307.817 384.262 307.817 385.225C307.817 385.954 308.026 386.474 308.442 386.786C308.858 387.098 309.313 387.254 309.808 387.254C310.77 387.254 311.72 386.825 312.656 385.967C313.593 385.108 314.23 384.054 314.569 382.806C314.647 382.545 314.725 382.402 314.803 382.376C314.881 382.35 315.089 382.324 315.427 382.298H315.583C315.974 382.298 316.169 382.402 316.169 382.61C316.169 382.636 316.143 382.78 316.091 383.04C315.674 384.523 314.868 385.836 313.671 386.981C312.474 388.126 311.082 388.698 309.495 388.698C307.674 388.698 306.295 387.879 305.359 386.24C304.292 387.853 303.069 388.659 301.691 388.659H301.456C300.182 388.659 299.271 388.321 298.725 387.645C298.178 386.968 297.892 386.253 297.866 385.498C297.866 384.666 298.113 383.989 298.608 383.469C299.102 382.949 299.687 382.688 300.364 382.688C301.482 382.688 302.042 383.235 302.042 384.328C302.042 384.848 301.886 385.303 301.574 385.693C301.261 386.084 300.962 386.344 300.676 386.474C300.39 386.604 300.221 386.669 300.169 386.669L300.052 386.708C300.052 386.734 300.13 386.786 300.286 386.864C300.442 386.942 300.65 387.033 300.91 387.137C301.17 387.241 301.417 387.28 301.652 387.254C302.588 387.254 303.395 386.669 304.071 385.498C304.305 385.082 304.604 384.197 304.969 382.845C305.333 381.492 305.697 380.087 306.061 378.63C306.426 377.173 306.634 376.315 306.686 376.054C306.816 375.352 306.881 374.845 306.881 374.532C306.881 373.804 306.686 373.284 306.295 372.971C305.905 372.659 305.463 372.503 304.969 372.503C303.928 372.503 302.952 372.919 302.042 373.752C301.131 374.584 300.494 375.651 300.13 376.952C300.078 377.186 300.013 377.316 299.935 377.342C299.856 377.368 299.648 377.394 299.31 377.42H298.764C298.608 377.264 298.53 377.121 298.53 376.991Z" fill="white"/>
</g>
<g id="Group_34">
<path id="Vector_41" d="M331.845 374.726C331.845 374.388 332.027 374.128 332.391 373.945H357.25C357.64 374.154 357.835 374.414 357.835 374.726C357.835 375.012 357.653 375.259 357.289 375.467L344.879 375.506H332.469C332.053 375.376 331.845 375.116 331.845 374.726ZM331.845 382.297C331.845 381.906 332.053 381.646 332.469 381.516H357.289C357.653 381.776 357.835 382.036 357.835 382.297C357.835 382.635 357.64 382.895 357.25 383.077H332.391C332.027 382.895 331.845 382.635 331.845 382.297Z" fill="white"/>
</g>
<g id="Group_35">
<path id="Vector_42" d="M388.887 388.268C388.418 388.19 386.74 388.151 383.853 388.151C380.835 388.151 379.092 388.19 378.623 388.268H378.272V386.472H379.482C380.002 386.472 380.353 386.472 380.536 386.472C380.718 386.472 380.939 386.446 381.199 386.394C381.459 386.342 381.641 386.277 381.745 386.199C381.849 386.121 381.94 386.017 382.018 385.887C382.045 385.835 382.058 385.133 382.058 383.78V381.829H371.95V380.033L377.843 371.019C381.823 364.983 383.84 361.952 383.892 361.926C383.944 361.874 384.217 361.848 384.711 361.848H385.414L385.648 362.082V380.033H389.238V381.829H385.648V383.819C385.648 384.885 385.648 385.51 385.648 385.692C385.648 385.874 385.726 386.03 385.882 386.16C386.09 386.342 386.831 386.446 388.106 386.472H389.238V388.268H388.887ZM382.292 380.033V366.999L373.745 379.994L377.999 380.033H382.292Z" fill="white"/>
</g>
<g id="Group_36">
<path id="Vector_43" d="M394.042 378.512C394.042 376.717 394.172 375.013 394.432 373.4C394.692 371.787 394.992 370.395 395.33 369.224C395.668 368.054 396.149 366.909 396.774 365.79C397.398 364.672 397.892 363.8 398.257 363.176C398.621 362.551 399.167 361.875 399.896 361.146C400.624 360.418 401.053 359.976 401.183 359.82C401.314 359.663 401.639 359.39 402.159 359H402.666H402.822C403.187 359 403.369 359.117 403.369 359.351C403.369 359.429 403.148 359.702 402.705 360.171C402.263 360.639 401.73 361.328 401.105 362.239C400.481 363.15 399.844 364.268 399.193 365.595C398.543 366.922 397.996 368.717 397.554 370.981C397.112 373.244 396.891 375.754 396.891 378.512C396.891 381.27 397.112 383.768 397.554 386.005C397.996 388.242 398.53 390.05 399.154 391.429C399.779 392.808 400.416 393.927 401.066 394.785C401.717 395.644 402.263 396.333 402.705 396.854C403.148 397.374 403.369 397.647 403.369 397.673C403.369 397.907 403.174 398.024 402.783 398.024H402.666H402.159L401.066 397.088C398.621 394.876 396.839 392.119 395.72 388.815C394.601 385.511 394.042 382.076 394.042 378.512Z" fill="white"/>
</g>
<g id="Group_37">
<path id="Vector_44" d="M419.287 377.068C418.038 379.045 416.477 380.034 414.604 380.034C412.575 380.034 410.91 379.266 409.609 377.731C408.308 376.196 407.528 374.557 407.268 372.814C407.215 372.398 407.189 371.878 407.189 371.253V370.941C407.189 368.522 408.087 366.414 409.882 364.619C411.443 363.058 413.16 362.278 415.033 362.278C415.085 362.278 415.163 362.278 415.268 362.278C415.372 362.278 415.476 362.291 415.58 362.317H415.736C416.048 362.317 416.373 362.343 416.711 362.395C417.05 362.447 417.531 362.603 418.155 362.863C418.78 363.123 419.391 363.539 419.989 364.112C420.588 364.684 421.147 365.452 421.668 366.414C422.786 368.704 423.346 371.644 423.346 375.234C423.346 378.876 422.565 381.959 421.004 384.483C420.094 385.939 419.001 387.071 417.726 387.878C416.451 388.684 415.098 389.1 413.668 389.126C412.081 389.126 410.78 388.749 409.765 387.995C408.75 387.24 408.23 386.122 408.204 384.639C408.178 383.156 408.868 382.427 410.272 382.453C410.845 382.453 411.326 382.635 411.716 383C412.107 383.364 412.302 383.871 412.302 384.522C412.302 384.99 412.185 385.393 411.95 385.731C411.716 386.07 411.508 386.278 411.326 386.356C411.144 386.434 410.975 386.499 410.819 386.551L410.663 386.59C410.663 386.642 410.754 386.72 410.936 386.824C411.118 386.928 411.456 387.058 411.95 387.214C412.445 387.37 412.991 387.435 413.589 387.409H413.824C415.385 387.409 416.698 386.577 417.765 384.912C418.78 383.455 419.287 380.931 419.287 377.341V377.068ZM415.072 378.59C416.321 378.59 417.323 377.952 418.077 376.678C418.832 375.403 419.222 373.673 419.248 371.487C419.248 369.458 419.144 368.001 418.936 367.117C418.884 366.857 418.806 366.596 418.702 366.336C418.598 366.076 418.415 365.738 418.155 365.322C417.895 364.905 417.505 364.554 416.985 364.268C416.464 363.982 415.853 363.852 415.15 363.878C414.162 363.878 413.316 364.229 412.614 364.931C412.068 365.504 411.716 366.18 411.56 366.961C411.404 367.741 411.313 369.107 411.287 371.058C411.287 373.218 411.352 374.674 411.482 375.429C411.612 376.183 411.872 376.795 412.263 377.263C412.913 378.148 413.85 378.59 415.072 378.59Z" fill="white"/>
<path id="Vector_45" d="M428.807 365.439C430.264 363.331 432.255 362.278 434.778 362.278C436.027 362.278 437.276 362.616 438.524 363.292C439.773 363.969 440.788 365.165 441.568 366.883C442.531 369.042 443.012 372.008 443.012 375.78C443.012 379.813 442.453 382.896 441.334 385.029C440.814 386.122 440.098 386.993 439.188 387.644C438.277 388.294 437.484 388.697 436.807 388.853C436.131 389.009 435.468 389.1 434.817 389.126C434.141 389.126 433.464 389.048 432.788 388.892C432.111 388.736 431.318 388.32 430.407 387.644C429.497 386.967 428.781 386.096 428.261 385.029C427.142 382.896 426.583 379.813 426.583 375.78C426.583 371.253 427.324 367.806 428.807 365.439ZM437.588 364.97C436.807 364.138 435.884 363.722 434.817 363.722C433.724 363.722 432.788 364.138 432.007 364.97C431.357 365.647 430.928 366.583 430.72 367.78C430.511 368.977 430.407 371.474 430.407 375.273C430.407 379.383 430.511 382.089 430.72 383.39C430.928 384.691 431.396 385.718 432.124 386.473C432.853 387.253 433.75 387.644 434.817 387.644C435.858 387.644 436.742 387.253 437.471 386.473C438.225 385.692 438.694 384.6 438.876 383.195C439.058 381.79 439.162 379.149 439.188 375.273C439.188 371.5 439.084 369.016 438.876 367.819C438.668 366.622 438.238 365.673 437.588 364.97Z" fill="white"/>
</g>
<g id="Group_38">
<path id="Vector_46" d="M446.919 359.039L447.075 359C447.205 359 447.335 359 447.465 359H447.933L449.026 359.937C451.472 362.148 453.254 364.906 454.372 368.21C455.491 371.514 456.05 374.948 456.05 378.512C456.05 380.281 455.92 381.985 455.66 383.624C455.4 385.263 455.101 386.655 454.763 387.8C454.424 388.945 453.943 390.089 453.319 391.234C452.694 392.379 452.2 393.25 451.836 393.849C451.472 394.447 450.938 395.111 450.236 395.839C449.533 396.568 449.117 396.997 448.987 397.127C448.857 397.257 448.558 397.504 448.089 397.868C448.011 397.946 447.959 397.998 447.933 398.024H447.465C447.257 398.024 447.114 398.024 447.036 398.024C446.958 398.024 446.893 397.985 446.841 397.907C446.789 397.829 446.75 397.712 446.724 397.556C446.75 397.53 446.893 397.361 447.153 397.049C451.185 392.86 453.202 386.681 453.202 378.512C453.202 370.343 451.185 364.164 447.153 359.976C446.893 359.663 446.75 359.494 446.724 359.468C446.724 359.26 446.789 359.117 446.919 359.039Z" fill="white"/>
</g>
<g id="Group_39">
<path id="Vector_47" d="M472.786 374.726C472.786 374.388 472.968 374.128 473.332 373.945H498.191C498.581 374.154 498.776 374.414 498.776 374.726C498.776 375.012 498.594 375.259 498.23 375.467L485.82 375.506H473.411C472.994 375.376 472.786 375.116 472.786 374.726ZM472.786 382.297C472.786 381.906 472.994 381.646 473.411 381.516H498.23C498.594 381.776 498.776 382.036 498.776 382.297C498.776 382.635 498.581 382.895 498.191 383.077H473.332C472.968 382.895 472.786 382.635 472.786 382.297Z" fill="white"/>
</g>
<g id="Group_40">
<path id="Vector_48" d="M523.822 387.331C525.357 387.331 526.762 386.654 528.037 385.302C529.312 383.949 529.962 382.375 529.988 380.58C529.988 378.941 529.312 377.809 527.959 377.185C525.201 376.482 523.432 376.001 522.652 375.741C521.871 375.48 521.325 375.22 521.013 374.96C519.452 373.867 518.671 372.293 518.671 370.238C518.671 368.651 519.087 367.207 519.92 365.906C520.752 364.606 521.598 363.63 522.456 362.98C523.211 362.329 524.121 361.809 525.188 361.419C526.255 361.028 527.087 360.82 527.686 360.794H528.115H528.388C530.886 360.794 532.694 361.627 533.813 363.292C533.839 363.292 534.008 363.123 534.32 362.785C534.632 362.446 534.97 362.069 535.334 361.653C535.699 361.237 535.959 360.95 536.115 360.794C536.141 360.794 536.193 360.794 536.271 360.794C536.349 360.794 536.414 360.781 536.466 360.755C536.804 360.755 536.973 360.846 536.973 361.028C536.973 361.211 536.609 362.785 535.881 365.75C535.152 368.716 534.736 370.251 534.632 370.355C534.528 370.459 534.32 370.498 534.008 370.472C533.487 370.472 533.227 370.355 533.227 370.121C533.227 369.965 533.24 369.835 533.266 369.731C533.266 369.653 533.279 369.406 533.305 368.989C533.331 368.573 533.357 368.235 533.383 367.975C533.383 367.09 533.266 366.323 533.032 365.672C532.798 365.022 532.564 364.541 532.33 364.228C532.095 363.916 531.77 363.591 531.354 363.253C530.417 362.706 529.351 362.433 528.154 362.433C526.671 362.433 525.292 363.032 524.017 364.228C522.743 365.425 522.092 366.804 522.066 368.365C522.066 369.145 522.261 369.822 522.652 370.394C523.042 370.967 523.575 371.37 524.252 371.604C524.356 371.656 525.266 371.903 526.983 372.345C528.7 372.788 529.572 373.022 529.598 373.048C530.482 373.334 531.341 373.958 532.173 374.921C533.006 375.884 533.422 377.185 533.422 378.824C533.422 379.5 533.318 380.228 533.11 381.009C532.98 381.581 532.746 382.219 532.408 382.921C532.069 383.624 531.601 384.391 531.003 385.224C530.404 386.056 529.546 386.837 528.427 387.565C527.308 388.293 526.086 388.788 524.759 389.048C524.447 389.1 524.004 389.126 523.432 389.126C520.856 389.126 518.853 388.411 517.422 386.98L517.032 386.55L515.939 387.76C515.341 388.463 514.977 388.866 514.847 388.97C514.717 389.074 514.547 389.126 514.339 389.126C514.001 389.126 513.832 389.022 513.832 388.814C513.832 388.736 514.587 385.679 516.095 379.643C516.147 379.487 516.408 379.409 516.876 379.409H517.383C517.539 379.565 517.617 379.708 517.617 379.838C517.617 379.89 517.604 380.007 517.578 380.189C517.552 380.372 517.5 380.645 517.422 381.009C517.344 381.373 517.318 381.802 517.344 382.297C517.396 383.311 517.63 384.17 518.047 384.872C518.463 385.575 519.022 386.095 519.725 386.433C520.427 386.772 521.104 387.006 521.754 387.136C522.404 387.266 523.094 387.331 523.822 387.331Z" fill="white"/>
</g>
<g id="Group_41">
<g id="Group_42">
<path id="Vector_49" d="M553.48 359C553.714 359 553.909 359.078 554.066 359.234C554.222 359.39 554.3 359.572 554.3 359.781C554.3 359.911 552.049 366.181 547.548 378.59C543.048 391 540.719 397.348 540.563 397.634C540.381 397.894 540.16 398.024 539.9 398.024C539.718 398.024 539.548 397.959 539.392 397.829C539.236 397.699 539.158 397.517 539.158 397.283C539.158 397.023 541.422 390.675 545.948 378.239C550.475 365.803 552.778 359.52 552.856 359.39C552.96 359.13 553.168 359 553.48 359Z" fill="white"/>
</g>
</g>
<g id="Group_43">
<path id="Vector_50" d="M559.527 385.927C559.527 385.302 559.748 384.756 560.191 384.288C560.633 383.819 561.192 383.585 561.869 383.585C562.493 383.585 563.04 383.793 563.508 384.21C563.976 384.626 564.223 385.185 564.249 385.888C564.249 386.538 564.028 387.097 563.586 387.566C563.144 388.034 562.584 388.268 561.908 388.268C561.231 388.268 560.672 388.047 560.23 387.605C559.788 387.162 559.553 386.603 559.527 385.927Z" fill="white"/>
<path id="Vector_51" d="M572.291 370.2C571.588 370.2 571.042 369.978 570.652 369.536C570.261 369.094 570.053 368.522 570.027 367.819C570.027 366.388 570.652 365.113 571.9 363.995C573.149 362.876 574.658 362.317 576.427 362.317C577.338 362.317 577.91 362.33 578.144 362.356C580.07 362.668 581.539 363.357 582.554 364.424C583.569 365.491 584.089 366.648 584.115 367.897C584.115 369.25 583.673 370.564 582.788 371.839C581.904 373.113 580.681 374.037 579.12 374.609L579.003 374.687C579.003 374.713 579.12 374.752 579.354 374.805C579.588 374.857 579.966 374.974 580.486 375.156C581.006 375.338 581.5 375.611 581.969 375.975C584.102 377.354 585.169 379.175 585.169 381.439C585.169 383.494 584.362 385.289 582.749 386.824C581.136 388.359 579.094 389.126 576.622 389.126C574.541 389.126 572.746 388.567 571.237 387.448C569.728 386.33 568.974 384.912 568.974 383.195C568.974 382.466 569.208 381.881 569.676 381.439C570.144 380.996 570.73 380.762 571.432 380.736C572.161 380.736 572.759 380.97 573.227 381.439C573.696 381.907 573.93 382.492 573.93 383.195C573.93 383.481 573.891 383.741 573.813 383.975C573.735 384.209 573.644 384.418 573.539 384.6C573.435 384.782 573.292 384.938 573.11 385.068C572.928 385.198 572.772 385.302 572.642 385.38C572.512 385.458 572.382 385.51 572.252 385.536C572.122 385.562 572.018 385.601 571.939 385.653L571.783 385.692C573.11 386.863 574.723 387.448 576.622 387.448C578.053 387.448 579.133 386.759 579.861 385.38C580.304 384.522 580.525 383.208 580.525 381.439V380.658C580.525 378.187 579.692 376.535 578.027 375.702C577.637 375.546 576.844 375.455 575.647 375.429L574.008 375.39L573.891 375.312C573.839 375.234 573.813 375.026 573.813 374.687C573.813 374.219 573.917 373.985 574.125 373.985C574.853 373.985 575.608 373.92 576.388 373.79C577.273 373.66 578.079 373.113 578.808 372.151C579.536 371.188 579.9 369.731 579.9 367.78V367.468C579.9 365.985 579.445 364.957 578.535 364.385C577.962 364.021 577.351 363.839 576.7 363.839C575.868 363.839 575.1 363.982 574.398 364.268C573.696 364.554 573.201 364.853 572.915 365.165C572.629 365.478 572.486 365.634 572.486 365.634H572.603C572.681 365.66 572.785 365.686 572.915 365.712C573.045 365.738 573.175 365.803 573.305 365.907C573.435 366.011 573.592 366.102 573.774 366.18C573.956 366.258 574.086 366.401 574.164 366.609C574.242 366.818 574.346 367.013 574.476 367.195C574.606 367.377 574.645 367.637 574.593 367.975C574.593 368.548 574.411 369.055 574.047 369.497C573.683 369.939 573.097 370.174 572.291 370.2Z" fill="white"/>
<path id="Vector_52" d="M588.483 376.053C588.483 371.813 589.537 368.457 591.644 365.985C593.751 363.513 596.093 362.278 598.668 362.278C600.463 362.278 601.751 362.746 602.532 363.683C603.312 364.619 603.702 365.66 603.702 366.805C603.702 367.455 603.52 367.975 603.156 368.365C602.792 368.756 602.285 368.951 601.634 368.951C601.036 368.951 600.541 368.769 600.151 368.405C599.761 368.04 599.566 367.533 599.566 366.883C599.566 365.738 600.177 365.048 601.4 364.814C600.828 364.242 600.021 363.917 598.98 363.839C597.133 363.839 595.611 364.619 594.415 366.18C593.192 367.897 592.58 370.525 592.58 374.063L592.619 374.219C592.75 374.063 592.854 373.894 592.932 373.712C593.998 372.151 595.39 371.37 597.107 371.37H597.263C598.46 371.37 599.514 371.618 600.424 372.112C601.049 372.476 601.673 372.996 602.298 373.673C602.922 374.349 603.429 375.091 603.819 375.897C604.366 377.172 604.639 378.564 604.639 380.073V380.775C604.639 381.374 604.574 381.933 604.444 382.453C604.158 383.988 603.325 385.484 601.946 386.941C600.567 388.398 598.824 389.126 596.717 389.126C595.989 389.126 595.286 389.022 594.61 388.814C593.933 388.606 593.205 388.216 592.424 387.644C591.644 387.071 590.98 386.304 590.434 385.341C589.888 384.378 589.419 383.117 589.029 381.556C588.639 379.995 588.457 378.161 588.483 376.053ZM596.873 372.775C596.093 372.775 595.416 372.996 594.844 373.439C594.272 373.881 593.829 374.466 593.517 375.195C593.205 375.923 592.984 376.665 592.854 377.419C592.724 378.174 592.646 378.98 592.619 379.839C592.619 381.998 592.776 383.546 593.088 384.483C593.4 385.419 593.894 386.174 594.571 386.746C595.195 387.214 595.885 387.448 596.639 387.448C597.966 387.448 598.98 386.954 599.683 385.965C600.021 385.497 600.255 384.912 600.385 384.209C600.515 383.507 600.58 382.141 600.58 380.112C600.58 378.031 600.515 376.639 600.385 375.936C600.255 375.234 600.021 374.648 599.683 374.18C598.98 373.244 598.044 372.775 596.873 372.775Z" fill="white"/>
<path id="Vector_53" d="M610.104 365.439C611.561 363.331 613.551 362.278 616.075 362.278C617.324 362.278 618.573 362.616 619.821 363.292C621.07 363.969 622.085 365.165 622.865 366.883C623.828 369.042 624.309 372.008 624.309 375.78C624.309 379.813 623.75 382.896 622.631 385.029C622.111 386.122 621.395 386.993 620.485 387.644C619.574 388.294 618.781 388.697 618.104 388.853C617.428 389.009 616.764 389.1 616.114 389.126C615.438 389.126 614.761 389.048 614.085 388.892C613.408 388.736 612.615 388.32 611.704 387.644C610.794 386.967 610.078 386.096 609.558 385.029C608.439 382.896 607.88 379.813 607.88 375.78C607.88 371.253 608.621 367.806 610.104 365.439ZM618.885 364.97C618.104 364.138 617.181 363.722 616.114 363.722C615.021 363.722 614.085 364.138 613.304 364.97C612.654 365.647 612.225 366.583 612.016 367.78C611.808 368.977 611.704 371.474 611.704 375.273C611.704 379.383 611.808 382.089 612.016 383.39C612.225 384.691 612.693 385.718 613.421 386.473C614.15 387.253 615.047 387.644 616.114 387.644C617.155 387.644 618.039 387.253 618.768 386.473C619.522 385.692 619.99 384.6 620.173 383.195C620.355 381.79 620.459 379.149 620.485 375.273C620.485 371.5 620.381 369.016 620.173 367.819C619.964 366.622 619.535 365.673 618.885 364.97Z" fill="white"/>
</g>
</g>
</g>
</g>
</g>
</svg>
