<svg viewBox="0 0 993 395" fill="none" xmlns="http://www.w3.org/2000/svg">
<g id="0120152">
<g id="claves01">
<path id="Rectangle 4" d="M57 205H273.745L307 245L273.745 285H57V205Z" fill="#E8A1EE" fill-opacity="0.1"/>
<path id="Rectangle 4 (Stroke)" fill-rule="evenodd" clip-rule="evenodd" d="M272.338 208H60V282H272.338L303.099 245L272.338 208ZM273.745 205H57V285H273.745L307 245L273.745 205Z" fill="#E8A1EE"/>
<path id="Rectangle 5" d="M61 315H277.745L311 355L277.745 395H61V315Z" fill="#E8A1EE" fill-opacity="0.1"/>
<path id="Rectangle 5 (Stroke)" fill-rule="evenodd" clip-rule="evenodd" d="M276.338 318H64V392H276.338L307.099 355L276.338 318ZM277.745 315H61V395H277.745L311 355L277.745 315Z" fill="#E8A1EE"/>
<path id="Rectangle 6" d="M397 202H613.745L647 242L613.745 282H397V202Z" fill="#E8A1EE" fill-opacity="0.1"/>
<path id="Rectangle 6 (Stroke)" fill-rule="evenodd" clip-rule="evenodd" d="M612.338 205H400V279H612.338L643.099 242L612.338 205ZM613.745 202H397V282H613.745L647 242L613.745 202Z" fill="#E8A1EE"/>
<path id="Rectangle 7" d="M400 312H616.745L650 352L616.745 392H400V312Z" fill="#E8A1EE" fill-opacity="0.1"/>
<path id="Rectangle 7 (Stroke)" fill-rule="evenodd" clip-rule="evenodd" d="M615.338 315H403V389H615.338L646.099 352L615.338 315ZM616.745 312H400V392H616.745L650 352L616.745 312Z" fill="#E8A1EE"/>
<path id="Rectangle 8" d="M743 261H959.745L993 301L959.745 341H743V261Z" fill="#E8A1EE" fill-opacity="0.1"/>
<path id="Rectangle 8 (Stroke)" fill-rule="evenodd" clip-rule="evenodd" d="M958.338 264H746V338H958.338L989.099 301L958.338 264ZM959.745 261H743V341H959.745L993 301L959.745 261Z" fill="#E8A1EE"/>
<path id="Ellipse 1" d="M98 245C98 267.091 80.0914 285 58 285C35.9086 285 18 267.091 18 245C18 222.909 35.9086 205 58 205C80.0914 205 98 222.909 98 245Z" fill="#E8A1EE"/>
<path id="Ellipse 2" d="M102 355C102 377.091 84.0914 395 62 395C39.9086 395 22 377.091 22 355C22 332.909 39.9086 315 62 315C84.0914 315 102 332.909 102 355Z" fill="#E8A1EE"/>
<path id="Ellipse 3" d="M438 242C438 264.091 420.091 282 398 282C375.909 282 358 264.091 358 242C358 219.909 375.909 202 398 202C420.091 202 438 219.909 438 242Z" fill="#E8A1EE"/>
<path id="Ellipse 4" d="M441 352C441 374.091 423.091 392 401 392C378.909 392 361 374.091 361 352C361 329.909 378.909 312 401 312C423.091 312 441 329.909 441 352Z" fill="#E8A1EE"/>
<path id="Ellipse 5" d="M784 301C784 323.091 766.091 341 744 341C721.909 341 704 323.091 704 301C704 278.909 721.909 261 744 261C766.091 261 784 278.909 784 301Z" fill="#E8A1EE"/>
<path id="A" d="M66.0938 255.406H48.4688L44.7812 266H36.5625L53.75 220.5H60.8438L78.0625 266H69.8125L66.0938 255.406ZM50.6875 249.031H63.875L57.2812 230.156L50.6875 249.031Z" fill="white"/>
<path id="B" d="M45.625 371V325.5H61.2188C66.3646 325.5 70.2812 326.531 72.9688 328.594C75.6562 330.656 77 333.729 77 337.812C77 339.896 76.4375 341.771 75.3125 343.438C74.1875 345.104 72.5417 346.396 70.375 347.312C72.8333 347.979 74.7292 349.24 76.0625 351.094C77.4167 352.927 78.0938 355.135 78.0938 357.719C78.0938 361.99 76.7188 365.271 73.9688 367.562C71.2396 369.854 67.3229 371 62.2188 371H45.625ZM53.5312 350.469V364.688H62.3125C64.7917 364.688 66.7292 364.073 68.125 362.844C69.5208 361.615 70.2188 359.906 70.2188 357.719C70.2188 352.99 67.8021 350.573 62.9688 350.469H53.5312ZM53.5312 344.656H61.2812C63.7396 344.656 65.6562 344.104 67.0312 343C68.4271 341.875 69.125 340.292 69.125 338.25C69.125 336 68.4792 334.375 67.1875 333.375C65.9167 332.375 63.9271 331.875 61.2188 331.875H53.5312V344.656Z" fill="white"/>
<path id="C" d="M415.344 249.188C414.885 254.042 413.094 257.833 409.969 260.562C406.844 263.271 402.688 264.625 397.5 264.625C393.875 264.625 390.677 263.771 387.906 262.062C385.156 260.333 383.031 257.885 381.531 254.719C380.031 251.552 379.25 247.875 379.188 243.688V239.438C379.188 235.146 379.948 231.365 381.469 228.094C382.99 224.823 385.167 222.302 388 220.531C390.854 218.76 394.146 217.875 397.875 217.875C402.896 217.875 406.938 219.24 410 221.969C413.062 224.698 414.844 228.552 415.344 233.531H407.469C407.094 230.26 406.135 227.906 404.594 226.469C403.073 225.01 400.833 224.281 397.875 224.281C394.438 224.281 391.792 225.542 389.938 228.062C388.104 230.562 387.167 234.24 387.125 239.094V243.125C387.125 248.042 388 251.792 389.75 254.375C391.521 256.958 394.104 258.25 397.5 258.25C400.604 258.25 402.938 257.552 404.5 256.156C406.062 254.76 407.052 252.438 407.469 249.188H415.344Z" fill="white"/>
<path id="D" d="M383.625 374V328.5H397.062C401.083 328.5 404.646 329.396 407.75 331.188C410.875 332.979 413.292 335.521 415 338.812C416.708 342.104 417.562 345.875 417.562 350.125V352.406C417.562 356.719 416.698 360.51 414.969 363.781C413.26 367.052 410.812 369.573 407.625 371.344C404.458 373.115 400.823 374 396.719 374H383.625ZM391.531 334.875V367.688H396.688C400.833 367.688 404.01 366.396 406.219 363.812C408.448 361.208 409.583 357.479 409.625 352.625V350.094C409.625 345.156 408.552 341.385 406.406 338.781C404.26 336.177 401.146 334.875 397.062 334.875H391.531Z" fill="white"/>
<path id="E" d="M753.219 302.688H734.531V316.688H756.375V323H726.625V277.5H756.156V283.875H734.531V296.438H753.219V302.688Z" fill="white"/>
<g id="flecha">
<path id="Rectangle 2" d="M760.2 262.008L775.482 270.133L733.5 349.089L718.219 340.964L760.2 262.008Z" fill="#1043F5"/>
<path id="Rectangle 1" d="M702 274.904L792 225V282.692L747 265.096L702 274.904Z" fill="#1043F5"/>
<path id="Rectangle 3" d="M706.038 344.209L721.665 317.142L738.936 316.564L723.309 343.631L706.038 344.209Z" fill="#1043F5"/>
<path id="Rectangle 4_2" d="M732.09 358.845L747.717 331.778L738.926 316.154L723.299 343.221L732.09 358.845Z" fill="#1043F5"/>
</g>
<g id="440 450 480 460 400">
<path d="M153.855 253.404H157.406V256.059H153.855V262H150.586V256.059H138.932V254.143L150.393 236.406H153.855V253.404ZM142.623 253.404H150.586V240.854L150.199 241.557L142.623 253.404Z" fill="#E8A1EE"/>
<path d="M174.07 253.404H177.621V256.059H174.07V262H170.801V256.059H159.146V254.143L170.607 236.406H174.07V253.404ZM162.838 253.404H170.801V240.854L170.414 241.557L162.838 253.404Z" fill="#E8A1EE"/>
<path d="M196.605 251.084C196.605 254.893 195.955 257.723 194.654 259.574C193.354 261.426 191.32 262.352 188.555 262.352C185.824 262.352 183.803 261.449 182.49 259.645C181.178 257.828 180.498 255.121 180.451 251.523V247.182C180.451 243.42 181.102 240.625 182.402 238.797C183.703 236.969 185.742 236.055 188.52 236.055C191.273 236.055 193.301 236.939 194.602 238.709C195.902 240.467 196.57 243.186 196.605 246.865V251.084ZM193.354 246.637C193.354 243.883 192.967 241.879 192.193 240.625C191.42 239.359 190.195 238.727 188.52 238.727C186.855 238.727 185.643 239.354 184.881 240.607C184.119 241.861 183.727 243.789 183.703 246.391V251.594C183.703 254.359 184.102 256.404 184.898 257.729C185.707 259.041 186.926 259.697 188.555 259.697C190.16 259.697 191.35 259.076 192.123 257.834C192.908 256.592 193.318 254.635 193.354 251.963V246.637Z" fill="#E8A1EE"/>
<path d="M527.039 253.404H530.59V256.059H527.039V262H523.77V256.059H512.115V254.143L523.576 236.406H527.039V253.404ZM515.807 253.404H523.77V240.854L523.383 241.557L515.807 253.404Z" fill="#E8A1EE"/>
<path d="M535.02 249.168L536.32 236.406H549.434V239.412H539.08L538.307 246.391C539.561 245.652 540.984 245.283 542.578 245.283C544.91 245.283 546.762 246.057 548.133 247.604C549.504 249.139 550.189 251.219 550.189 253.844C550.189 256.48 549.475 258.561 548.045 260.084C546.627 261.596 544.641 262.352 542.086 262.352C539.824 262.352 537.979 261.725 536.549 260.471C535.119 259.217 534.305 257.482 534.105 255.268H537.182C537.381 256.732 537.902 257.84 538.746 258.59C539.59 259.328 540.703 259.697 542.086 259.697C543.598 259.697 544.781 259.182 545.637 258.15C546.504 257.119 546.938 255.695 546.938 253.879C546.938 252.168 546.469 250.797 545.531 249.766C544.605 248.723 543.369 248.201 541.822 248.201C540.404 248.201 539.291 248.512 538.482 249.133L537.621 249.836L535.02 249.168Z" fill="#E8A1EE"/>
<path d="M569.789 251.084C569.789 254.893 569.139 257.723 567.838 259.574C566.537 261.426 564.504 262.352 561.738 262.352C559.008 262.352 556.986 261.449 555.674 259.645C554.361 257.828 553.682 255.121 553.635 251.523V247.182C553.635 243.42 554.285 240.625 555.586 238.797C556.887 236.969 558.926 236.055 561.703 236.055C564.457 236.055 566.484 236.939 567.785 238.709C569.086 240.467 569.754 243.186 569.789 246.865V251.084ZM566.537 246.637C566.537 243.883 566.15 241.879 565.377 240.625C564.604 239.359 563.379 238.727 561.703 238.727C560.039 238.727 558.826 239.354 558.064 240.607C557.303 241.861 556.91 243.789 556.887 246.391V251.594C556.887 254.359 557.285 256.404 558.082 257.729C558.891 259.041 560.109 259.697 561.738 259.697C563.344 259.697 564.533 259.076 565.307 257.834C566.092 256.592 566.502 254.635 566.537 251.963V246.637Z" fill="#E8A1EE"/>
<path d="M850.371 303.404H853.922V306.059H850.371V312H847.102V306.059H835.447V304.143L846.908 286.406H850.371V303.404ZM839.139 303.404H847.102V290.854L846.715 291.557L839.139 303.404Z" fill="#E8A1EE"/>
<path d="M872.379 293.086C872.379 294.363 872.039 295.5 871.359 296.496C870.691 297.492 869.783 298.271 868.635 298.834C869.971 299.408 871.025 300.246 871.799 301.348C872.584 302.449 872.977 303.697 872.977 305.092C872.977 307.307 872.227 309.07 870.727 310.383C869.238 311.695 867.275 312.352 864.838 312.352C862.377 312.352 860.402 311.695 858.914 310.383C857.438 309.059 856.699 307.295 856.699 305.092C856.699 303.709 857.074 302.461 857.824 301.348C858.586 300.234 859.635 299.391 860.971 298.816C859.834 298.254 858.938 297.475 858.281 296.479C857.625 295.482 857.297 294.352 857.297 293.086C857.297 290.93 857.988 289.219 859.371 287.953C860.754 286.688 862.576 286.055 864.838 286.055C867.088 286.055 868.904 286.688 870.287 287.953C871.682 289.219 872.379 290.93 872.379 293.086ZM869.725 305.021C869.725 303.592 869.268 302.426 868.354 301.523C867.451 300.621 866.268 300.17 864.803 300.17C863.338 300.17 862.16 300.615 861.27 301.506C860.391 302.396 859.951 303.568 859.951 305.021C859.951 306.475 860.379 307.617 861.234 308.449C862.102 309.281 863.303 309.697 864.838 309.697C866.361 309.697 867.557 309.281 868.424 308.449C869.291 307.605 869.725 306.463 869.725 305.021ZM864.838 288.727C863.561 288.727 862.523 289.125 861.727 289.922C860.941 290.707 860.549 291.779 860.549 293.139C860.549 294.439 860.936 295.494 861.709 296.303C862.494 297.1 863.537 297.498 864.838 297.498C866.139 297.498 867.176 297.1 867.949 296.303C868.734 295.494 869.127 294.439 869.127 293.139C869.127 291.838 868.723 290.777 867.914 289.957C867.105 289.137 866.08 288.727 864.838 288.727Z" fill="#E8A1EE"/>
<path d="M893.121 301.084C893.121 304.893 892.471 307.723 891.17 309.574C889.869 311.426 887.836 312.352 885.07 312.352C882.34 312.352 880.318 311.449 879.006 309.645C877.693 307.828 877.014 305.121 876.967 301.523V297.182C876.967 293.42 877.617 290.625 878.918 288.797C880.219 286.969 882.258 286.055 885.035 286.055C887.789 286.055 889.816 286.939 891.117 288.709C892.418 290.467 893.086 293.186 893.121 296.865V301.084ZM889.869 296.637C889.869 293.883 889.482 291.879 888.709 290.625C887.936 289.359 886.711 288.727 885.035 288.727C883.371 288.727 882.158 289.354 881.396 290.607C880.635 291.861 880.242 293.789 880.219 296.391V301.594C880.219 304.359 880.617 306.404 881.414 307.729C882.223 309.041 883.441 309.697 885.07 309.697C886.676 309.697 887.865 309.076 888.639 307.834C889.424 306.592 889.834 304.635 889.869 301.963V296.637Z" fill="#E8A1EE"/>
<path d="M153.855 353.404H157.406V356.059H153.855V362H150.586V356.059H138.932V354.143L150.393 336.406H153.855V353.404ZM142.623 353.404H150.586V340.854L150.199 341.557L142.623 353.404Z" fill="#E8A1EE"/>
<path d="M173.104 336.389V339.148H172.506C169.975 339.195 167.959 339.945 166.459 341.398C164.959 342.852 164.092 344.896 163.857 347.533C165.205 345.986 167.045 345.213 169.377 345.213C171.604 345.213 173.379 345.998 174.703 347.568C176.039 349.139 176.707 351.166 176.707 353.65C176.707 356.287 175.986 358.396 174.545 359.979C173.115 361.561 171.193 362.352 168.779 362.352C166.33 362.352 164.344 361.414 162.82 359.539C161.297 357.652 160.535 355.227 160.535 352.262V351.014C160.535 346.303 161.537 342.705 163.541 340.221C165.557 337.725 168.551 336.447 172.523 336.389H173.104ZM168.832 347.92C167.719 347.92 166.693 348.254 165.756 348.922C164.818 349.59 164.168 350.428 163.805 351.436V352.631C163.805 354.74 164.279 356.439 165.229 357.729C166.178 359.018 167.361 359.662 168.779 359.662C170.244 359.662 171.393 359.123 172.225 358.045C173.068 356.967 173.49 355.555 173.49 353.809C173.49 352.051 173.062 350.633 172.207 349.555C171.363 348.465 170.238 347.92 168.832 347.92Z" fill="#E8A1EE"/>
<path d="M196.605 351.084C196.605 354.893 195.955 357.723 194.654 359.574C193.354 361.426 191.32 362.352 188.555 362.352C185.824 362.352 183.803 361.449 182.49 359.645C181.178 357.828 180.498 355.121 180.451 351.523V347.182C180.451 343.42 181.102 340.625 182.402 338.797C183.703 336.969 185.742 336.055 188.52 336.055C191.273 336.055 193.301 336.939 194.602 338.709C195.902 340.467 196.57 343.186 196.605 346.865V351.084ZM193.354 346.637C193.354 343.883 192.967 341.879 192.193 340.625C191.42 339.359 190.195 338.727 188.52 338.727C186.855 338.727 185.643 339.354 184.881 340.607C184.119 341.861 183.727 343.789 183.703 346.391V351.594C183.703 354.359 184.102 356.404 184.898 357.729C185.707 359.041 186.926 359.697 188.555 359.697C190.16 359.697 191.35 359.076 192.123 357.834C192.908 356.592 193.318 354.635 193.354 351.963V346.637Z" fill="#E8A1EE"/>
<path d="M535.969 353.404H539.52V356.059H535.969V362H532.699V356.059H521.045V354.143L532.506 336.406H535.969V353.404ZM524.736 353.404H532.699V340.854L532.312 341.557L524.736 353.404Z" fill="#E8A1EE"/>
<path d="M558.504 351.084C558.504 354.893 557.854 357.723 556.553 359.574C555.252 361.426 553.219 362.352 550.453 362.352C547.723 362.352 545.701 361.449 544.389 359.645C543.076 357.828 542.396 355.121 542.35 351.523V347.182C542.35 343.42 543 340.625 544.301 338.797C545.602 336.969 547.641 336.055 550.418 336.055C553.172 336.055 555.199 336.939 556.5 338.709C557.801 340.467 558.469 343.186 558.504 346.865V351.084ZM555.252 346.637C555.252 343.883 554.865 341.879 554.092 340.625C553.318 339.359 552.094 338.727 550.418 338.727C548.754 338.727 547.541 339.354 546.779 340.607C546.018 341.861 545.625 343.789 545.602 346.391V351.594C545.602 354.359 546 356.404 546.797 357.729C547.605 359.041 548.824 359.697 550.453 359.697C552.059 359.697 553.248 359.076 554.021 357.834C554.807 356.592 555.217 354.635 555.252 351.963V346.637Z" fill="#E8A1EE"/>
<path d="M578.719 351.084C578.719 354.893 578.068 357.723 576.768 359.574C575.467 361.426 573.434 362.352 570.668 362.352C567.938 362.352 565.916 361.449 564.604 359.645C563.291 357.828 562.611 355.121 562.564 351.523V347.182C562.564 343.42 563.215 340.625 564.516 338.797C565.816 336.969 567.855 336.055 570.633 336.055C573.387 336.055 575.414 336.939 576.715 338.709C578.016 340.467 578.684 343.186 578.719 346.865V351.084ZM575.467 346.637C575.467 343.883 575.08 341.879 574.307 340.625C573.533 339.359 572.309 338.727 570.633 338.727C568.969 338.727 567.756 339.354 566.994 340.607C566.232 341.861 565.84 343.789 565.816 346.391V351.594C565.816 354.359 566.215 356.404 567.012 357.729C567.82 359.041 569.039 359.697 570.668 359.697C572.273 359.697 573.463 359.076 574.236 357.834C575.021 356.592 575.432 354.635 575.467 351.963V346.637Z" fill="#E8A1EE"/>
</g>
</g>
<g id="enun01">
<path id="Rectangle 1_2" d="M58.2471 0H874.247L943 84.2698L874.247 171H58.2471V0Z" fill="#02071A"/>
<path id="Rectangle 1 (Stroke)" fill-rule="evenodd" clip-rule="evenodd" d="M872.335 4H62.2641V167H872.3L937.854 84.3058L872.335 4ZM874.247 0H58.2471V171H874.247L943 84.2698L874.247 0Z" fill="#E8A1EE"/>
<path id="Ellipse 1_2" d="M100.426 91C100.426 118.614 77.9449 141 50.213 141C22.4811 141 0 118.614 0 91C0 63.3858 22.4811 41 50.213 41C77.9449 41 100.426 63.3858 100.426 91Z" fill="#E8A1EE"/>
<path id="Ellipse 1 (Stroke)" fill-rule="evenodd" clip-rule="evenodd" d="M50.213 140C77.3902 140 99.4217 118.062 99.4217 91C99.4217 63.938 77.3902 42 50.213 42C23.0358 42 1.00426 63.938 1.00426 91C1.00426 118.062 23.0358 140 50.213 140ZM50.213 141C77.9449 141 100.426 118.614 100.426 91C100.426 63.3858 77.9449 41 50.213 41C22.4811 41 0 63.3858 0 91C0 118.614 22.4811 141 50.213 141Z" fill="#E8A1EE"/>
<g id="Tenia S/. 400 y gast&#195;&#169; los 3/5 de lo que no gast&#195;&#169;. &#194;&#191;Cu&#195;&#161;nto no gast&#195;&#169;?">
<path d="M136.654 38.1836H128.428V61H125.07V38.1836H116.861V35.4062H136.654V38.1836Z" fill="white"/>
<path d="M146.076 61.3516C143.498 61.3516 141.4 60.5078 139.783 58.8203C138.166 57.1211 137.357 54.8535 137.357 52.0176V51.4199C137.357 49.5332 137.715 47.8516 138.43 46.375C139.156 44.8867 140.164 43.7266 141.453 42.8945C142.754 42.0508 144.16 41.6289 145.672 41.6289C148.145 41.6289 150.066 42.4434 151.438 44.0723C152.809 45.7012 153.494 48.0332 153.494 51.0684V52.4219H140.609C140.656 54.2969 141.201 55.8145 142.244 56.9746C143.299 58.123 144.635 58.6973 146.252 58.6973C147.4 58.6973 148.373 58.4629 149.17 57.9941C149.967 57.5254 150.664 56.9043 151.262 56.1309L153.248 57.6777C151.654 60.127 149.264 61.3516 146.076 61.3516ZM145.672 44.3008C144.359 44.3008 143.258 44.7812 142.367 45.7422C141.477 46.6914 140.926 48.0273 140.715 49.75H150.242V49.5039C150.148 47.8516 149.703 46.5742 148.906 45.6719C148.109 44.7578 147.031 44.3008 145.672 44.3008Z" fill="white"/>
<path d="M160.35 41.9805L160.455 44.3711C161.908 42.543 163.807 41.6289 166.15 41.6289C170.17 41.6289 172.197 43.8965 172.232 48.4316V61H168.98V48.4141C168.969 47.043 168.652 46.0293 168.031 45.373C167.422 44.7168 166.467 44.3887 165.166 44.3887C164.111 44.3887 163.186 44.6699 162.389 45.2324C161.592 45.7949 160.971 46.5332 160.525 47.4473V61H157.273V41.9805H160.35Z" fill="white"/>
<path d="M180.67 61H177.418V41.9805H180.67V61ZM177.154 36.9355C177.154 36.4082 177.312 35.9629 177.629 35.5996C177.957 35.2363 178.438 35.0547 179.07 35.0547C179.703 35.0547 180.184 35.2363 180.512 35.5996C180.84 35.9629 181.004 36.4082 181.004 36.9355C181.004 37.4629 180.84 37.9023 180.512 38.2539C180.184 38.6055 179.703 38.7812 179.07 38.7812C178.438 38.7812 177.957 38.6055 177.629 38.2539C177.312 37.9023 177.154 37.4629 177.154 36.9355Z" fill="white"/>
<path d="M197.633 61C197.445 60.625 197.293 59.957 197.176 58.9961C195.664 60.5664 193.859 61.3516 191.762 61.3516C189.887 61.3516 188.346 60.8242 187.139 59.7695C185.943 58.7031 185.346 57.3555 185.346 55.7266C185.346 53.7461 186.096 52.2109 187.596 51.1211C189.107 50.0195 191.229 49.4688 193.959 49.4688H197.123V47.9746C197.123 46.8379 196.783 45.9355 196.104 45.2676C195.424 44.5879 194.422 44.248 193.098 44.248C191.938 44.248 190.965 44.541 190.18 45.127C189.395 45.7129 189.002 46.4219 189.002 47.2539H185.732C185.732 46.3047 186.066 45.3906 186.734 44.5117C187.414 43.6211 188.328 42.918 189.477 42.4023C190.637 41.8867 191.908 41.6289 193.291 41.6289C195.482 41.6289 197.199 42.1797 198.441 43.2812C199.684 44.3711 200.328 45.877 200.375 47.7988V56.5527C200.375 58.2988 200.598 59.6875 201.043 60.7188V61H197.633ZM192.236 58.5215C193.256 58.5215 194.223 58.2578 195.137 57.7305C196.051 57.2031 196.713 56.5176 197.123 55.6738V51.7715H194.574C190.59 51.7715 188.598 52.9375 188.598 55.2695C188.598 56.2891 188.938 57.0859 189.617 57.6602C190.297 58.2344 191.17 58.5215 192.236 58.5215Z" fill="white"/>
<path d="M222.453 49.5918C219.559 48.7598 217.449 47.7402 216.125 46.5332C214.812 45.3145 214.156 43.8145 214.156 42.0332C214.156 40.0176 214.959 38.3535 216.564 37.041C218.182 35.7168 220.279 35.0547 222.857 35.0547C224.615 35.0547 226.18 35.3945 227.551 36.0742C228.934 36.7539 230 37.6914 230.75 38.8867C231.512 40.082 231.893 41.3887 231.893 42.8066H228.5C228.5 41.2598 228.008 40.0469 227.023 39.168C226.039 38.2773 224.65 37.832 222.857 37.832C221.193 37.832 219.893 38.2012 218.955 38.9395C218.029 39.666 217.566 40.6797 217.566 41.9805C217.566 43.0234 218.006 43.9082 218.885 44.6348C219.775 45.3496 221.281 46.0059 223.402 46.6035C225.535 47.2012 227.199 47.8633 228.395 48.5898C229.602 49.3047 230.492 50.1426 231.066 51.1035C231.652 52.0645 231.945 53.1953 231.945 54.4961C231.945 56.5703 231.137 58.2344 229.52 59.4883C227.902 60.7305 225.74 61.3516 223.033 61.3516C221.275 61.3516 219.635 61.0176 218.111 60.3496C216.588 59.6699 215.41 58.7441 214.578 57.5723C213.758 56.4004 213.348 55.0703 213.348 53.582H216.74C216.74 55.1289 217.309 56.3535 218.445 57.2559C219.594 58.1465 221.123 58.5918 223.033 58.5918C224.814 58.5918 226.18 58.2285 227.129 57.502C228.078 56.7754 228.553 55.7852 228.553 54.5312C228.553 53.2773 228.113 52.3105 227.234 51.6309C226.355 50.9395 224.762 50.2598 222.453 49.5918Z" fill="white"/>
<path d="M236.428 63.1973H233.633L244.32 35.4062H247.098L236.428 63.1973Z" fill="white"/>
<path d="M250.684 59.2949C250.684 58.7324 250.848 58.2637 251.176 57.8887C251.516 57.5137 252.02 57.3262 252.688 57.3262C253.355 57.3262 253.859 57.5137 254.199 57.8887C254.551 58.2637 254.727 58.7324 254.727 59.2949C254.727 59.834 254.551 60.2852 254.199 60.6484C253.859 61.0117 253.355 61.1934 252.688 61.1934C252.02 61.1934 251.516 61.0117 251.176 60.6484C250.848 60.2852 250.684 59.834 250.684 59.2949Z" fill="white"/>
<path d="M282.43 52.4043H285.98V55.0586H282.43V61H279.16V55.0586H267.506V53.1426L278.967 35.4062H282.43V52.4043ZM271.197 52.4043H279.16V39.8535L278.773 40.5566L271.197 52.4043Z" fill="white"/>
<path d="M304.965 50.084C304.965 53.8926 304.314 56.7227 303.014 58.5742C301.713 60.4258 299.68 61.3516 296.914 61.3516C294.184 61.3516 292.162 60.4492 290.85 58.6445C289.537 56.8281 288.857 54.1211 288.811 50.5234V46.1816C288.811 42.4199 289.461 39.625 290.762 37.7969C292.062 35.9688 294.102 35.0547 296.879 35.0547C299.633 35.0547 301.66 35.9395 302.961 37.709C304.262 39.4668 304.93 42.1855 304.965 45.8652V50.084ZM301.713 45.6367C301.713 42.8828 301.326 40.8789 300.553 39.625C299.779 38.3594 298.555 37.7266 296.879 37.7266C295.215 37.7266 294.002 38.3535 293.24 39.6074C292.479 40.8613 292.086 42.7891 292.062 45.3906V50.5938C292.062 53.3594 292.461 55.4043 293.258 56.7285C294.066 58.041 295.285 58.6973 296.914 58.6973C298.52 58.6973 299.709 58.0762 300.482 56.834C301.268 55.5918 301.678 53.6348 301.713 50.9629V45.6367Z" fill="white"/>
<path d="M325.18 50.084C325.18 53.8926 324.529 56.7227 323.229 58.5742C321.928 60.4258 319.895 61.3516 317.129 61.3516C314.398 61.3516 312.377 60.4492 311.064 58.6445C309.752 56.8281 309.072 54.1211 309.025 50.5234V46.1816C309.025 42.4199 309.676 39.625 310.977 37.7969C312.277 35.9688 314.316 35.0547 317.094 35.0547C319.848 35.0547 321.875 35.9395 323.176 37.709C324.477 39.4668 325.145 42.1855 325.18 45.8652V50.084ZM321.928 45.6367C321.928 42.8828 321.541 40.8789 320.768 39.625C319.994 38.3594 318.77 37.7266 317.094 37.7266C315.43 37.7266 314.217 38.3535 313.455 39.6074C312.693 40.8613 312.301 42.7891 312.277 45.3906V50.5938C312.277 53.3594 312.676 55.4043 313.473 56.7285C314.281 58.041 315.5 58.6973 317.129 58.6973C318.734 58.6973 319.924 58.0762 320.697 56.834C321.482 55.5918 321.893 53.6348 321.928 50.9629V45.6367Z" fill="white"/>
<path d="M344.832 56.2363L349.262 41.9805H352.742L345.096 63.9355C343.912 67.0996 342.031 68.6816 339.453 68.6816L338.838 68.6289L337.625 68.4004V65.7637L338.504 65.834C339.605 65.834 340.461 65.6113 341.07 65.166C341.691 64.7207 342.201 63.9062 342.6 62.7227L343.32 60.7891L336.535 41.9805H340.086L344.832 56.2363Z" fill="white"/>
<path d="M363.816 51.332C363.816 48.3672 364.502 46.0117 365.873 44.2656C367.244 42.5078 369.061 41.6289 371.322 41.6289C373.643 41.6289 375.453 42.4492 376.754 44.0898L376.912 41.9805H379.883V60.543C379.883 63.0039 379.15 64.9434 377.686 66.3613C376.232 67.7793 374.275 68.4883 371.814 68.4883C370.443 68.4883 369.102 68.1953 367.789 67.6094C366.477 67.0234 365.475 66.2207 364.783 65.2012L366.471 63.25C367.865 64.9727 369.57 65.834 371.586 65.834C373.168 65.834 374.398 65.3887 375.277 64.498C376.168 63.6074 376.613 62.3535 376.613 60.7363V59.1016C375.312 60.6016 373.537 61.3516 371.287 61.3516C369.061 61.3516 367.256 60.4551 365.873 58.6621C364.502 56.8691 363.816 54.4258 363.816 51.332ZM367.086 51.7012C367.086 53.8457 367.525 55.5332 368.404 56.7637C369.283 57.9824 370.514 58.5918 372.096 58.5918C374.146 58.5918 375.652 57.6602 376.613 55.7969V47.1133C375.617 45.2969 374.123 44.3887 372.131 44.3887C370.549 44.3887 369.312 45.0039 368.422 46.2344C367.531 47.4648 367.086 49.2871 367.086 51.7012Z" fill="white"/>
<path d="M396.547 61C396.359 60.625 396.207 59.957 396.09 58.9961C394.578 60.5664 392.773 61.3516 390.676 61.3516C388.801 61.3516 387.26 60.8242 386.053 59.7695C384.857 58.7031 384.26 57.3555 384.26 55.7266C384.26 53.7461 385.01 52.2109 386.51 51.1211C388.021 50.0195 390.143 49.4688 392.873 49.4688H396.037V47.9746C396.037 46.8379 395.697 45.9355 395.018 45.2676C394.338 44.5879 393.336 44.248 392.012 44.248C390.852 44.248 389.879 44.541 389.094 45.127C388.309 45.7129 387.916 46.4219 387.916 47.2539H384.646C384.646 46.3047 384.98 45.3906 385.648 44.5117C386.328 43.6211 387.242 42.918 388.391 42.4023C389.551 41.8867 390.822 41.6289 392.205 41.6289C394.396 41.6289 396.113 42.1797 397.355 43.2812C398.598 44.3711 399.242 45.877 399.289 47.7988V56.5527C399.289 58.2988 399.512 59.6875 399.957 60.7188V61H396.547ZM391.15 58.5215C392.17 58.5215 393.137 58.2578 394.051 57.7305C394.965 57.2031 395.627 56.5176 396.037 55.6738V51.7715H393.488C389.504 51.7715 387.512 52.9375 387.512 55.2695C387.512 56.2891 387.852 57.0859 388.531 57.6602C389.211 58.2344 390.084 58.5215 391.15 58.5215Z" fill="white"/>
<path d="M415.461 55.9551C415.461 55.0762 415.127 54.3965 414.459 53.916C413.803 53.4238 412.648 53.002 410.996 52.6504C409.355 52.2988 408.049 51.877 407.076 51.3848C406.115 50.8926 405.4 50.3066 404.932 49.627C404.475 48.9473 404.246 48.1387 404.246 47.2012C404.246 45.6426 404.902 44.3242 406.215 43.2461C407.539 42.168 409.227 41.6289 411.277 41.6289C413.434 41.6289 415.18 42.1855 416.516 43.2988C417.863 44.4121 418.537 45.8359 418.537 47.5703H415.268C415.268 46.6797 414.887 45.9121 414.125 45.2676C413.375 44.623 412.426 44.3008 411.277 44.3008C410.094 44.3008 409.168 44.5586 408.5 45.0742C407.832 45.5898 407.498 46.2637 407.498 47.0957C407.498 47.8809 407.809 48.4727 408.43 48.8711C409.051 49.2695 410.17 49.6504 411.787 50.0137C413.416 50.377 414.734 50.8105 415.742 51.3145C416.75 51.8184 417.494 52.4277 417.975 53.1426C418.467 53.8457 418.713 54.707 418.713 55.7266C418.713 57.4258 418.033 58.791 416.674 59.8223C415.314 60.8418 413.551 61.3516 411.383 61.3516C409.859 61.3516 408.512 61.082 407.34 60.543C406.168 60.0039 405.248 59.2539 404.58 58.293C403.924 57.3203 403.596 56.2715 403.596 55.1465H406.848C406.906 56.2363 407.34 57.1035 408.148 57.748C408.969 58.3809 410.047 58.6973 411.383 58.6973C412.613 58.6973 413.598 58.4512 414.336 57.959C415.086 57.4551 415.461 56.7871 415.461 55.9551Z" fill="white"/>
<path d="M427.361 37.375V41.9805H430.912V44.4941H427.361V56.2891C427.361 57.0508 427.52 57.625 427.836 58.0117C428.152 58.3867 428.691 58.5742 429.453 58.5742C429.828 58.5742 430.344 58.5039 431 58.3633V61C430.145 61.2344 429.312 61.3516 428.504 61.3516C427.051 61.3516 425.955 60.9121 425.217 60.0332C424.479 59.1543 424.109 57.9062 424.109 56.2891V44.4941H420.646V41.9805H424.109V37.375H427.361Z" fill="white"/>
<path d="M442.619 61.3516C440.041 61.3516 437.943 60.5078 436.326 58.8203C434.709 57.1211 433.9 54.8535 433.9 52.0176V51.4199C433.9 49.5332 434.258 47.8516 434.973 46.375C435.699 44.8867 436.707 43.7266 437.996 42.8945C439.297 42.0508 440.703 41.6289 442.215 41.6289C444.688 41.6289 446.609 42.4434 447.98 44.0723C449.352 45.7012 450.037 48.0332 450.037 51.0684V52.4219H437.152C437.199 54.2969 437.744 55.8145 438.787 56.9746C439.842 58.123 441.178 58.6973 442.795 58.6973C443.943 58.6973 444.916 58.4629 445.713 57.9941C446.51 57.5254 447.207 56.9043 447.805 56.1309L449.791 57.6777C448.197 60.127 445.807 61.3516 442.619 61.3516ZM442.215 44.3008C440.902 44.3008 439.801 44.7812 438.91 45.7422C438.02 46.6914 437.469 48.0273 437.258 49.75H446.785V49.5039C446.691 47.8516 446.246 46.5742 445.449 45.6719C444.652 44.7578 443.574 44.3008 442.215 44.3008ZM443.797 34H447.734L443.023 39.168H440.404L443.797 34Z" fill="white"/>
<path d="M466.279 61H463.027V34H466.279V61Z" fill="white"/>
<path d="M470.639 51.3145C470.639 49.4512 471.002 47.7754 471.729 46.2871C472.467 44.7988 473.486 43.6504 474.787 42.8418C476.1 42.0332 477.594 41.6289 479.27 41.6289C481.859 41.6289 483.951 42.5254 485.545 44.3184C487.15 46.1113 487.953 48.4961 487.953 51.4727V51.7012C487.953 53.5527 487.596 55.2168 486.881 56.6934C486.178 58.1582 485.164 59.3008 483.84 60.1211C482.527 60.9414 481.016 61.3516 479.305 61.3516C476.727 61.3516 474.635 60.4551 473.029 58.6621C471.436 56.8691 470.639 54.4961 470.639 51.543V51.3145ZM473.908 51.7012C473.908 53.8105 474.395 55.5039 475.367 56.7812C476.352 58.0586 477.664 58.6973 479.305 58.6973C480.957 58.6973 482.27 58.0527 483.242 56.7637C484.215 55.4629 484.701 53.6465 484.701 51.3145C484.701 49.2285 484.203 47.541 483.207 46.252C482.223 44.9512 480.91 44.3008 479.27 44.3008C477.664 44.3008 476.369 44.9395 475.385 46.2168C474.4 47.4941 473.908 49.3223 473.908 51.7012Z" fill="white"/>
<path d="M503.105 55.9551C503.105 55.0762 502.771 54.3965 502.104 53.916C501.447 53.4238 500.293 53.002 498.641 52.6504C497 52.2988 495.693 51.877 494.721 51.3848C493.76 50.8926 493.045 50.3066 492.576 49.627C492.119 48.9473 491.891 48.1387 491.891 47.2012C491.891 45.6426 492.547 44.3242 493.859 43.2461C495.184 42.168 496.871 41.6289 498.922 41.6289C501.078 41.6289 502.824 42.1855 504.16 43.2988C505.508 44.4121 506.182 45.8359 506.182 47.5703H502.912C502.912 46.6797 502.531 45.9121 501.77 45.2676C501.02 44.623 500.07 44.3008 498.922 44.3008C497.738 44.3008 496.812 44.5586 496.145 45.0742C495.477 45.5898 495.143 46.2637 495.143 47.0957C495.143 47.8809 495.453 48.4727 496.074 48.8711C496.695 49.2695 497.814 49.6504 499.432 50.0137C501.061 50.377 502.379 50.8105 503.387 51.3145C504.395 51.8184 505.139 52.4277 505.619 53.1426C506.111 53.8457 506.357 54.707 506.357 55.7266C506.357 57.4258 505.678 58.791 504.318 59.8223C502.959 60.8418 501.195 61.3516 499.027 61.3516C497.504 61.3516 496.156 61.082 494.984 60.543C493.812 60.0039 492.893 59.2539 492.225 58.293C491.568 57.3203 491.24 56.2715 491.24 55.1465H494.492C494.551 56.2363 494.984 57.1035 495.793 57.748C496.613 58.3809 497.691 58.6973 499.027 58.6973C500.258 58.6973 501.242 58.4512 501.98 57.959C502.73 57.4551 503.105 56.7871 503.105 55.9551Z" fill="white"/>
<path d="M523.918 46.6211H526.361C527.896 46.5977 529.104 46.1934 529.982 45.4082C530.861 44.623 531.301 43.5625 531.301 42.2266C531.301 39.2266 529.807 37.7266 526.818 37.7266C525.412 37.7266 524.287 38.1309 523.443 38.9395C522.611 39.7363 522.195 40.7969 522.195 42.1211H518.943C518.943 40.0938 519.682 38.4121 521.158 37.0762C522.646 35.7285 524.533 35.0547 526.818 35.0547C529.232 35.0547 531.125 35.6934 532.496 36.9707C533.867 38.248 534.553 40.0234 534.553 42.2969C534.553 43.4102 534.189 44.4883 533.463 45.5312C532.748 46.5742 531.77 47.3535 530.527 47.8691C531.934 48.3145 533.018 49.0527 533.779 50.084C534.553 51.1152 534.939 52.375 534.939 53.8633C534.939 56.1602 534.189 57.9824 532.689 59.3301C531.189 60.6777 529.238 61.3516 526.836 61.3516C524.434 61.3516 522.477 60.7012 520.965 59.4004C519.465 58.0996 518.715 56.3828 518.715 54.25H521.984C521.984 55.5977 522.424 56.6758 523.303 57.4844C524.182 58.293 525.359 58.6973 526.836 58.6973C528.406 58.6973 529.607 58.2871 530.439 57.4668C531.271 56.6465 531.688 55.4688 531.688 53.9336C531.688 52.4453 531.23 51.3027 530.316 50.5059C529.402 49.709 528.084 49.2988 526.361 49.2754H523.918V46.6211Z" fill="white"/>
<path d="M540.389 63.1973H537.594L548.281 35.4062H551.059L540.389 63.1973Z" fill="white"/>
<path d="M555.734 48.168L557.035 35.4062H570.148V38.4121H559.795L559.021 45.3906C560.275 44.6523 561.699 44.2832 563.293 44.2832C565.625 44.2832 567.477 45.0566 568.848 46.6035C570.219 48.1387 570.904 50.2188 570.904 52.8438C570.904 55.4805 570.189 57.5605 568.76 59.084C567.342 60.5957 565.355 61.3516 562.801 61.3516C560.539 61.3516 558.693 60.7246 557.264 59.4707C555.834 58.2168 555.02 56.4824 554.82 54.2676H557.896C558.096 55.7324 558.617 56.8398 559.461 57.5898C560.305 58.3281 561.418 58.6973 562.801 58.6973C564.312 58.6973 565.496 58.1816 566.352 57.1504C567.219 56.1191 567.652 54.6953 567.652 52.8789C567.652 51.168 567.184 49.7969 566.246 48.7656C565.32 47.7227 564.084 47.2012 562.537 47.2012C561.119 47.2012 560.006 47.5117 559.197 48.1328L558.336 48.8359L555.734 48.168Z" fill="white"/>
<path d="M582.928 51.332C582.928 48.4141 583.619 46.0703 585.002 44.3008C586.385 42.5195 588.195 41.6289 590.434 41.6289C592.66 41.6289 594.424 42.3906 595.725 43.9141V34H598.977V61H595.988L595.83 58.9609C594.529 60.5547 592.719 61.3516 590.398 61.3516C588.195 61.3516 586.396 60.4492 585.002 58.6445C583.619 56.8398 582.928 54.4844 582.928 51.5781V51.332ZM586.18 51.7012C586.18 53.8574 586.625 55.5449 587.516 56.7637C588.406 57.9824 589.637 58.5918 591.207 58.5918C593.27 58.5918 594.775 57.666 595.725 55.8145V47.0781C594.752 45.2852 593.258 44.3887 591.242 44.3887C589.648 44.3887 588.406 45.0039 587.516 46.2344C586.625 47.4648 586.18 49.2871 586.18 51.7012Z" fill="white"/>
<path d="M611.932 61.3516C609.354 61.3516 607.256 60.5078 605.639 58.8203C604.021 57.1211 603.213 54.8535 603.213 52.0176V51.4199C603.213 49.5332 603.57 47.8516 604.285 46.375C605.012 44.8867 606.02 43.7266 607.309 42.8945C608.609 42.0508 610.016 41.6289 611.527 41.6289C614 41.6289 615.922 42.4434 617.293 44.0723C618.664 45.7012 619.35 48.0332 619.35 51.0684V52.4219H606.465C606.512 54.2969 607.057 55.8145 608.1 56.9746C609.154 58.123 610.49 58.6973 612.107 58.6973C613.256 58.6973 614.229 58.4629 615.025 57.9941C615.822 57.5254 616.52 56.9043 617.117 56.1309L619.104 57.6777C617.51 60.127 615.119 61.3516 611.932 61.3516ZM611.527 44.3008C610.215 44.3008 609.113 44.7812 608.223 45.7422C607.332 46.6914 606.781 48.0273 606.57 49.75H616.098V49.5039C616.004 47.8516 615.559 46.5742 614.762 45.6719C613.965 44.7578 612.887 44.3008 611.527 44.3008Z" fill="white"/>
<path d="M635.592 61H632.34V34H635.592V61Z" fill="white"/>
<path d="M639.951 51.3145C639.951 49.4512 640.314 47.7754 641.041 46.2871C641.779 44.7988 642.799 43.6504 644.1 42.8418C645.412 42.0332 646.906 41.6289 648.582 41.6289C651.172 41.6289 653.264 42.5254 654.857 44.3184C656.463 46.1113 657.266 48.4961 657.266 51.4727V51.7012C657.266 53.5527 656.908 55.2168 656.193 56.6934C655.49 58.1582 654.477 59.3008 653.152 60.1211C651.84 60.9414 650.328 61.3516 648.617 61.3516C646.039 61.3516 643.947 60.4551 642.342 58.6621C640.748 56.8691 639.951 54.4961 639.951 51.543V51.3145ZM643.221 51.7012C643.221 53.8105 643.707 55.5039 644.68 56.7812C645.664 58.0586 646.977 58.6973 648.617 58.6973C650.27 58.6973 651.582 58.0527 652.555 56.7637C653.527 55.4629 654.014 53.6465 654.014 51.3145C654.014 49.2285 653.516 47.541 652.52 46.252C651.535 44.9512 650.223 44.3008 648.582 44.3008C646.977 44.3008 645.682 44.9395 644.697 46.2168C643.713 47.4941 643.221 49.3223 643.221 51.7012Z" fill="white"/>
<path d="M669.482 51.332C669.482 48.3438 670.168 45.9824 671.539 44.248C672.91 42.502 674.75 41.6289 677.059 41.6289C679.309 41.6289 681.084 42.3848 682.385 43.8965L682.525 41.9805H685.514V68.3125H682.262V59.2422C680.949 60.6484 679.203 61.3516 677.023 61.3516C674.727 61.3516 672.893 60.4609 671.521 58.6797C670.162 56.8867 669.482 54.5137 669.482 51.5605V51.332ZM672.734 51.7012C672.734 53.8809 673.191 55.5918 674.105 56.834C675.031 58.0762 676.273 58.6973 677.832 58.6973C679.766 58.6973 681.242 57.8418 682.262 56.1309V46.8145C681.23 45.1387 679.766 44.3008 677.867 44.3008C676.297 44.3008 675.049 44.9277 674.123 46.1816C673.197 47.4238 672.734 49.2637 672.734 51.7012Z" fill="white"/>
<path d="M702.477 59.1191C701.211 60.6074 699.354 61.3516 696.904 61.3516C694.877 61.3516 693.33 60.7656 692.264 59.5938C691.209 58.4102 690.676 56.6641 690.664 54.3555V41.9805H693.916V54.2676C693.916 57.1504 695.088 58.5918 697.432 58.5918C699.916 58.5918 701.568 57.666 702.389 55.8145V41.9805H705.641V61H702.547L702.477 59.1191Z" fill="white"/>
<path d="M718.49 61.3516C715.912 61.3516 713.814 60.5078 712.197 58.8203C710.58 57.1211 709.771 54.8535 709.771 52.0176V51.4199C709.771 49.5332 710.129 47.8516 710.844 46.375C711.57 44.8867 712.578 43.7266 713.867 42.8945C715.168 42.0508 716.574 41.6289 718.086 41.6289C720.559 41.6289 722.48 42.4434 723.852 44.0723C725.223 45.7012 725.908 48.0332 725.908 51.0684V52.4219H713.023C713.07 54.2969 713.615 55.8145 714.658 56.9746C715.713 58.123 717.049 58.6973 718.666 58.6973C719.814 58.6973 720.787 58.4629 721.584 57.9941C722.381 57.5254 723.078 56.9043 723.676 56.1309L725.662 57.6777C724.068 60.127 721.678 61.3516 718.49 61.3516ZM718.086 44.3008C716.773 44.3008 715.672 44.7812 714.781 45.7422C713.891 46.6914 713.34 48.0273 713.129 49.75H722.656V49.5039C722.562 47.8516 722.117 46.5742 721.32 45.6719C720.523 44.7578 719.445 44.3008 718.086 44.3008Z" fill="white"/>
<path d="M741.693 41.9805L741.799 44.3711C743.252 42.543 745.15 41.6289 747.494 41.6289C751.514 41.6289 753.541 43.8965 753.576 48.4316V61H750.324V48.4141C750.312 47.043 749.996 46.0293 749.375 45.373C748.766 44.7168 747.811 44.3887 746.51 44.3887C745.455 44.3887 744.529 44.6699 743.732 45.2324C742.936 45.7949 742.314 46.5332 741.869 47.4473V61H738.617V41.9805H741.693Z" fill="white"/>
<path d="M757.619 51.3145C757.619 49.4512 757.982 47.7754 758.709 46.2871C759.447 44.7988 760.467 43.6504 761.768 42.8418C763.08 42.0332 764.574 41.6289 766.25 41.6289C768.84 41.6289 770.932 42.5254 772.525 44.3184C774.131 46.1113 774.934 48.4961 774.934 51.4727V51.7012C774.934 53.5527 774.576 55.2168 773.861 56.6934C773.158 58.1582 772.145 59.3008 770.82 60.1211C769.508 60.9414 767.996 61.3516 766.285 61.3516C763.707 61.3516 761.615 60.4551 760.01 58.6621C758.416 56.8691 757.619 54.4961 757.619 51.543V51.3145ZM760.889 51.7012C760.889 53.8105 761.375 55.5039 762.348 56.7812C763.332 58.0586 764.645 58.6973 766.285 58.6973C767.938 58.6973 769.25 58.0527 770.223 56.7637C771.195 55.4629 771.682 53.6465 771.682 51.3145C771.682 49.2285 771.184 47.541 770.188 46.252C769.203 44.9512 767.891 44.3008 766.25 44.3008C764.645 44.3008 763.35 44.9395 762.365 46.2168C761.381 47.4941 760.889 49.3223 760.889 51.7012Z" fill="white"/>
<path d="M787.168 51.332C787.168 48.3672 787.854 46.0117 789.225 44.2656C790.596 42.5078 792.412 41.6289 794.674 41.6289C796.994 41.6289 798.805 42.4492 800.105 44.0898L800.264 41.9805H803.234V60.543C803.234 63.0039 802.502 64.9434 801.037 66.3613C799.584 67.7793 797.627 68.4883 795.166 68.4883C793.795 68.4883 792.453 68.1953 791.141 67.6094C789.828 67.0234 788.826 66.2207 788.135 65.2012L789.822 63.25C791.217 64.9727 792.922 65.834 794.938 65.834C796.52 65.834 797.75 65.3887 798.629 64.498C799.52 63.6074 799.965 62.3535 799.965 60.7363V59.1016C798.664 60.6016 796.889 61.3516 794.639 61.3516C792.412 61.3516 790.607 60.4551 789.225 58.6621C787.854 56.8691 787.168 54.4258 787.168 51.332ZM790.438 51.7012C790.438 53.8457 790.877 55.5332 791.756 56.7637C792.635 57.9824 793.865 58.5918 795.447 58.5918C797.498 58.5918 799.004 57.6602 799.965 55.7969V47.1133C798.969 45.2969 797.475 44.3887 795.482 44.3887C793.9 44.3887 792.664 45.0039 791.773 46.2344C790.883 47.4648 790.438 49.2871 790.438 51.7012Z" fill="white"/>
<path d="M819.898 61C819.711 60.625 819.559 59.957 819.441 58.9961C817.93 60.5664 816.125 61.3516 814.027 61.3516C812.152 61.3516 810.611 60.8242 809.404 59.7695C808.209 58.7031 807.611 57.3555 807.611 55.7266C807.611 53.7461 808.361 52.2109 809.861 51.1211C811.373 50.0195 813.494 49.4688 816.225 49.4688H819.389V47.9746C819.389 46.8379 819.049 45.9355 818.369 45.2676C817.689 44.5879 816.688 44.248 815.363 44.248C814.203 44.248 813.23 44.541 812.445 45.127C811.66 45.7129 811.268 46.4219 811.268 47.2539H807.998C807.998 46.3047 808.332 45.3906 809 44.5117C809.68 43.6211 810.594 42.918 811.742 42.4023C812.902 41.8867 814.174 41.6289 815.557 41.6289C817.748 41.6289 819.465 42.1797 820.707 43.2812C821.949 44.3711 822.594 45.877 822.641 47.7988V56.5527C822.641 58.2988 822.863 59.6875 823.309 60.7188V61H819.898ZM814.502 58.5215C815.521 58.5215 816.488 58.2578 817.402 57.7305C818.316 57.2031 818.979 56.5176 819.389 55.6738V51.7715H816.84C812.855 51.7715 810.863 52.9375 810.863 55.2695C810.863 56.2891 811.203 57.0859 811.883 57.6602C812.562 58.2344 813.436 58.5215 814.502 58.5215Z" fill="white"/>
<path d="M838.812 55.9551C838.812 55.0762 838.479 54.3965 837.811 53.916C837.154 53.4238 836 53.002 834.348 52.6504C832.707 52.2988 831.4 51.877 830.428 51.3848C829.467 50.8926 828.752 50.3066 828.283 49.627C827.826 48.9473 827.598 48.1387 827.598 47.2012C827.598 45.6426 828.254 44.3242 829.566 43.2461C830.891 42.168 832.578 41.6289 834.629 41.6289C836.785 41.6289 838.531 42.1855 839.867 43.2988C841.215 44.4121 841.889 45.8359 841.889 47.5703H838.619C838.619 46.6797 838.238 45.9121 837.477 45.2676C836.727 44.623 835.777 44.3008 834.629 44.3008C833.445 44.3008 832.52 44.5586 831.852 45.0742C831.184 45.5898 830.85 46.2637 830.85 47.0957C830.85 47.8809 831.16 48.4727 831.781 48.8711C832.402 49.2695 833.521 49.6504 835.139 50.0137C836.768 50.377 838.086 50.8105 839.094 51.3145C840.102 51.8184 840.846 52.4277 841.326 53.1426C841.818 53.8457 842.064 54.707 842.064 55.7266C842.064 57.4258 841.385 58.791 840.025 59.8223C838.666 60.8418 836.902 61.3516 834.734 61.3516C833.211 61.3516 831.863 61.082 830.691 60.543C829.52 60.0039 828.6 59.2539 827.932 58.293C827.275 57.3203 826.947 56.2715 826.947 55.1465H830.199C830.258 56.2363 830.691 57.1035 831.5 57.748C832.32 58.3809 833.398 58.6973 834.734 58.6973C835.965 58.6973 836.949 58.4512 837.688 57.959C838.438 57.4551 838.812 56.7871 838.812 55.9551Z" fill="white"/>
<path d="M850.713 37.375V41.9805H854.264V44.4941H850.713V56.2891C850.713 57.0508 850.871 57.625 851.188 58.0117C851.504 58.3867 852.043 58.5742 852.805 58.5742C853.18 58.5742 853.695 58.5039 854.352 58.3633V61C853.496 61.2344 852.664 61.3516 851.855 61.3516C850.402 61.3516 849.307 60.9121 848.568 60.0332C847.83 59.1543 847.461 57.9062 847.461 56.2891V44.4941H843.998V41.9805H847.461V37.375H850.713Z" fill="white"/>
<path d="M865.971 61.3516C863.393 61.3516 861.295 60.5078 859.678 58.8203C858.061 57.1211 857.252 54.8535 857.252 52.0176V51.4199C857.252 49.5332 857.609 47.8516 858.324 46.375C859.051 44.8867 860.059 43.7266 861.348 42.8945C862.648 42.0508 864.055 41.6289 865.566 41.6289C868.039 41.6289 869.961 42.4434 871.332 44.0723C872.703 45.7012 873.389 48.0332 873.389 51.0684V52.4219H860.504C860.551 54.2969 861.096 55.8145 862.139 56.9746C863.193 58.123 864.529 58.6973 866.146 58.6973C867.295 58.6973 868.268 58.4629 869.064 57.9941C869.861 57.5254 870.559 56.9043 871.156 56.1309L873.143 57.6777C871.549 60.127 869.158 61.3516 865.971 61.3516ZM865.566 44.3008C864.254 44.3008 863.152 44.7812 862.262 45.7422C861.371 46.6914 860.82 48.0273 860.609 49.75H870.137V49.5039C870.043 47.8516 869.598 46.5742 868.801 45.6719C868.004 44.7578 866.926 44.3008 865.566 44.3008ZM867.148 34H871.086L866.375 39.168H863.756L867.148 34Z" fill="white"/>
<path d="M877.238 59.2949C877.238 58.7324 877.402 58.2637 877.73 57.8887C878.07 57.5137 878.574 57.3262 879.242 57.3262C879.91 57.3262 880.414 57.5137 880.754 57.8887C881.105 58.2637 881.281 58.7324 881.281 59.2949C881.281 59.834 881.105 60.2852 880.754 60.6484C880.414 61.0117 879.91 61.1934 879.242 61.1934C878.574 61.1934 878.07 61.0117 877.73 60.6484C877.402 60.2852 877.238 59.834 877.238 59.2949Z" fill="white"/>
<path d="M126.336 91.0469C126.324 92.2891 126.195 93.2852 125.949 94.0352C125.715 94.7734 125.316 95.4883 124.754 96.1797C124.191 96.8711 123.371 97.7852 122.293 98.9219C121.215 100.047 120.611 101.189 120.482 102.35L120.447 103C120.447 104.277 120.787 105.25 121.467 105.918C122.146 106.598 123.125 106.938 124.402 106.938C125.574 106.938 126.523 106.604 127.25 105.936C127.988 105.279 128.357 104.418 128.357 103.352H131.609C131.586 105.238 130.912 106.779 129.588 107.975C128.275 109.17 126.547 109.768 124.402 109.768C122.105 109.768 120.33 109.176 119.076 107.992C117.822 106.82 117.195 105.186 117.195 103.088C117.195 101.061 118.133 99.0215 120.008 96.9707L121.924 94.9844C122.697 94.0703 123.084 92.7578 123.084 91.0469H126.336ZM126.477 85.4746C126.477 86.002 126.312 86.4473 125.984 86.8105C125.668 87.1738 125.193 87.3555 124.561 87.3555C123.928 87.3555 123.447 87.1738 123.119 86.8105C122.791 86.4473 122.627 86.002 122.627 85.4746C122.627 84.959 122.791 84.5254 123.119 84.1738C123.447 83.8223 123.928 83.6465 124.561 83.6465C125.193 83.6465 125.668 83.8223 125.984 84.1738C126.312 84.5254 126.477 84.959 126.477 85.4746Z" fill="white"/>
<path d="M154.848 94.8789C154.531 97.5859 153.529 99.6777 151.842 101.154C150.166 102.619 147.934 103.352 145.145 103.352C142.121 103.352 139.695 102.268 137.867 100.1C136.051 97.9316 135.143 95.0312 135.143 91.3984V88.9375C135.143 86.5586 135.564 84.4668 136.408 82.6621C137.264 80.8574 138.471 79.4746 140.029 78.5137C141.588 77.541 143.393 77.0547 145.443 77.0547C148.162 77.0547 150.342 77.8164 151.982 79.3398C153.623 80.8516 154.578 82.9492 154.848 85.6328H151.455C151.162 83.5938 150.523 82.1172 149.539 81.2031C148.566 80.2891 147.201 79.832 145.443 79.832C143.287 79.832 141.594 80.6289 140.363 82.2227C139.145 83.8164 138.535 86.084 138.535 89.0254V91.5039C138.535 94.2812 139.115 96.4902 140.275 98.1309C141.436 99.7715 143.059 100.592 145.145 100.592C147.02 100.592 148.455 100.17 149.451 99.3262C150.459 98.4707 151.127 96.9883 151.455 94.8789H154.848Z" fill="white"/>
<path d="M170.703 101.119C169.438 102.607 167.58 103.352 165.131 103.352C163.104 103.352 161.557 102.766 160.49 101.594C159.436 100.41 158.902 98.6641 158.891 96.3555V83.9805H162.143V96.2676C162.143 99.1504 163.314 100.592 165.658 100.592C168.143 100.592 169.795 99.666 170.615 97.8145V83.9805H173.867V103H170.773L170.703 101.119Z" fill="white"/>
<path d="M190.566 103C190.379 102.625 190.227 101.957 190.109 100.996C188.598 102.566 186.793 103.352 184.695 103.352C182.82 103.352 181.279 102.824 180.072 101.77C178.877 100.703 178.279 99.3555 178.279 97.7266C178.279 95.7461 179.029 94.2109 180.529 93.1211C182.041 92.0195 184.162 91.4688 186.893 91.4688H190.057V89.9746C190.057 88.8379 189.717 87.9355 189.037 87.2676C188.357 86.5879 187.355 86.248 186.031 86.248C184.871 86.248 183.898 86.541 183.113 87.127C182.328 87.7129 181.936 88.4219 181.936 89.2539H178.666C178.666 88.3047 179 87.3906 179.668 86.5117C180.348 85.6211 181.262 84.918 182.41 84.4023C183.57 83.8867 184.842 83.6289 186.225 83.6289C188.416 83.6289 190.133 84.1797 191.375 85.2812C192.617 86.3711 193.262 87.877 193.309 89.7988V98.5527C193.309 100.299 193.531 101.688 193.977 102.719V103H190.566ZM185.17 100.521C186.189 100.521 187.156 100.258 188.07 99.7305C188.984 99.2031 189.646 98.5176 190.057 97.6738V93.7715H187.508C183.523 93.7715 181.531 94.9375 181.531 97.2695C181.531 98.2891 181.871 99.0859 182.551 99.6602C183.23 100.234 184.104 100.521 185.17 100.521ZM188.176 76H192.113L187.402 81.168H184.783L188.176 76Z" fill="white"/>
<path d="M201.482 83.9805L201.588 86.3711C203.041 84.543 204.939 83.6289 207.283 83.6289C211.303 83.6289 213.33 85.8965 213.365 90.4316V103H210.113V90.4141C210.102 89.043 209.785 88.0293 209.164 87.373C208.555 86.7168 207.6 86.3887 206.299 86.3887C205.244 86.3887 204.318 86.6699 203.521 87.2324C202.725 87.7949 202.104 88.5332 201.658 89.4473V103H198.406V83.9805H201.482Z" fill="white"/>
<path d="M222.682 79.375V83.9805H226.232V86.4941H222.682V98.2891C222.682 99.0508 222.84 99.625 223.156 100.012C223.473 100.387 224.012 100.574 224.773 100.574C225.148 100.574 225.664 100.504 226.32 100.363V103C225.465 103.234 224.633 103.352 223.824 103.352C222.371 103.352 221.275 102.912 220.537 102.033C219.799 101.154 219.43 99.9062 219.43 98.2891V86.4941H215.967V83.9805H219.43V79.375H222.682Z" fill="white"/>
<path d="M228.834 93.3145C228.834 91.4512 229.197 89.7754 229.924 88.2871C230.662 86.7988 231.682 85.6504 232.982 84.8418C234.295 84.0332 235.789 83.6289 237.465 83.6289C240.055 83.6289 242.146 84.5254 243.74 86.3184C245.346 88.1113 246.148 90.4961 246.148 93.4727V93.7012C246.148 95.5527 245.791 97.2168 245.076 98.6934C244.373 100.158 243.359 101.301 242.035 102.121C240.723 102.941 239.211 103.352 237.5 103.352C234.922 103.352 232.83 102.455 231.225 100.662C229.631 98.8691 228.834 96.4961 228.834 93.543V93.3145ZM232.104 93.7012C232.104 95.8105 232.59 97.5039 233.562 98.7812C234.547 100.059 235.859 100.697 237.5 100.697C239.152 100.697 240.465 100.053 241.438 98.7637C242.41 97.4629 242.896 95.6465 242.896 93.3145C242.896 91.2285 242.398 89.541 241.402 88.252C240.418 86.9512 239.105 86.3008 237.465 86.3008C235.859 86.3008 234.564 86.9395 233.58 88.2168C232.596 89.4941 232.104 91.3223 232.104 93.7012Z" fill="white"/>
<path d="M262.232 83.9805L262.338 86.3711C263.791 84.543 265.689 83.6289 268.033 83.6289C272.053 83.6289 274.08 85.8965 274.115 90.4316V103H270.863V90.4141C270.852 89.043 270.535 88.0293 269.914 87.373C269.305 86.7168 268.35 86.3887 267.049 86.3887C265.994 86.3887 265.068 86.6699 264.271 87.2324C263.475 87.7949 262.854 88.5332 262.408 89.4473V103H259.156V83.9805H262.232Z" fill="white"/>
<path d="M278.158 93.3145C278.158 91.4512 278.521 89.7754 279.248 88.2871C279.986 86.7988 281.006 85.6504 282.307 84.8418C283.619 84.0332 285.113 83.6289 286.789 83.6289C289.379 83.6289 291.471 84.5254 293.064 86.3184C294.67 88.1113 295.473 90.4961 295.473 93.4727V93.7012C295.473 95.5527 295.115 97.2168 294.4 98.6934C293.697 100.158 292.684 101.301 291.359 102.121C290.047 102.941 288.535 103.352 286.824 103.352C284.246 103.352 282.154 102.455 280.549 100.662C278.955 98.8691 278.158 96.4961 278.158 93.543V93.3145ZM281.428 93.7012C281.428 95.8105 281.914 97.5039 282.887 98.7812C283.871 100.059 285.184 100.697 286.824 100.697C288.477 100.697 289.789 100.053 290.762 98.7637C291.734 97.4629 292.221 95.6465 292.221 93.3145C292.221 91.2285 291.723 89.541 290.727 88.252C289.742 86.9512 288.43 86.3008 286.789 86.3008C285.184 86.3008 283.889 86.9395 282.904 88.2168C281.92 89.4941 281.428 91.3223 281.428 93.7012Z" fill="white"/>
<path d="M307.707 93.332C307.707 90.3672 308.393 88.0117 309.764 86.2656C311.135 84.5078 312.951 83.6289 315.213 83.6289C317.533 83.6289 319.344 84.4492 320.645 86.0898L320.803 83.9805H323.773V102.543C323.773 105.004 323.041 106.943 321.576 108.361C320.123 109.779 318.166 110.488 315.705 110.488C314.334 110.488 312.992 110.195 311.68 109.609C310.367 109.023 309.365 108.221 308.674 107.201L310.361 105.25C311.756 106.973 313.461 107.834 315.477 107.834C317.059 107.834 318.289 107.389 319.168 106.498C320.059 105.607 320.504 104.354 320.504 102.736V101.102C319.203 102.602 317.428 103.352 315.178 103.352C312.951 103.352 311.146 102.455 309.764 100.662C308.393 98.8691 307.707 96.4258 307.707 93.332ZM310.977 93.7012C310.977 95.8457 311.416 97.5332 312.295 98.7637C313.174 99.9824 314.404 100.592 315.986 100.592C318.037 100.592 319.543 99.6602 320.504 97.7969V89.1133C319.508 87.2969 318.014 86.3887 316.021 86.3887C314.439 86.3887 313.203 87.0039 312.312 88.2344C311.422 89.4648 310.977 91.2871 310.977 93.7012Z" fill="white"/>
<path d="M340.438 103C340.25 102.625 340.098 101.957 339.98 100.996C338.469 102.566 336.664 103.352 334.566 103.352C332.691 103.352 331.15 102.824 329.943 101.77C328.748 100.703 328.15 99.3555 328.15 97.7266C328.15 95.7461 328.9 94.2109 330.4 93.1211C331.912 92.0195 334.033 91.4688 336.764 91.4688H339.928V89.9746C339.928 88.8379 339.588 87.9355 338.908 87.2676C338.229 86.5879 337.227 86.248 335.902 86.248C334.742 86.248 333.77 86.541 332.984 87.127C332.199 87.7129 331.807 88.4219 331.807 89.2539H328.537C328.537 88.3047 328.871 87.3906 329.539 86.5117C330.219 85.6211 331.133 84.918 332.281 84.4023C333.441 83.8867 334.713 83.6289 336.096 83.6289C338.287 83.6289 340.004 84.1797 341.246 85.2812C342.488 86.3711 343.133 87.877 343.18 89.7988V98.5527C343.18 100.299 343.402 101.688 343.848 102.719V103H340.438ZM335.041 100.521C336.061 100.521 337.027 100.258 337.941 99.7305C338.855 99.2031 339.518 98.5176 339.928 97.6738V93.7715H337.379C333.395 93.7715 331.402 94.9375 331.402 97.2695C331.402 98.2891 331.742 99.0859 332.422 99.6602C333.102 100.234 333.975 100.521 335.041 100.521Z" fill="white"/>
<path d="M359.352 97.9551C359.352 97.0762 359.018 96.3965 358.35 95.916C357.693 95.4238 356.539 95.002 354.887 94.6504C353.246 94.2988 351.939 93.877 350.967 93.3848C350.006 92.8926 349.291 92.3066 348.822 91.627C348.365 90.9473 348.137 90.1387 348.137 89.2012C348.137 87.6426 348.793 86.3242 350.105 85.2461C351.43 84.168 353.117 83.6289 355.168 83.6289C357.324 83.6289 359.07 84.1855 360.406 85.2988C361.754 86.4121 362.428 87.8359 362.428 89.5703H359.158C359.158 88.6797 358.777 87.9121 358.016 87.2676C357.266 86.623 356.316 86.3008 355.168 86.3008C353.984 86.3008 353.059 86.5586 352.391 87.0742C351.723 87.5898 351.389 88.2637 351.389 89.0957C351.389 89.8809 351.699 90.4727 352.32 90.8711C352.941 91.2695 354.061 91.6504 355.678 92.0137C357.307 92.377 358.625 92.8105 359.633 93.3145C360.641 93.8184 361.385 94.4277 361.865 95.1426C362.357 95.8457 362.604 96.707 362.604 97.7266C362.604 99.4258 361.924 100.791 360.564 101.822C359.205 102.842 357.441 103.352 355.273 103.352C353.75 103.352 352.402 103.082 351.23 102.543C350.059 102.004 349.139 101.254 348.471 100.293C347.814 99.3203 347.486 98.2715 347.486 97.1465H350.738C350.797 98.2363 351.23 99.1035 352.039 99.748C352.859 100.381 353.938 100.697 355.273 100.697C356.504 100.697 357.488 100.451 358.227 99.959C358.977 99.4551 359.352 98.7871 359.352 97.9551Z" fill="white"/>
<path d="M371.252 79.375V83.9805H374.803V86.4941H371.252V98.2891C371.252 99.0508 371.41 99.625 371.727 100.012C372.043 100.387 372.582 100.574 373.344 100.574C373.719 100.574 374.234 100.504 374.891 100.363V103C374.035 103.234 373.203 103.352 372.395 103.352C370.941 103.352 369.846 102.912 369.107 102.033C368.369 101.154 368 99.9062 368 98.2891V86.4941H364.537V83.9805H368V79.375H371.252Z" fill="white"/>
<path d="M386.51 103.352C383.932 103.352 381.834 102.508 380.217 100.82C378.6 99.1211 377.791 96.8535 377.791 94.0176V93.4199C377.791 91.5332 378.148 89.8516 378.863 88.375C379.59 86.8867 380.598 85.7266 381.887 84.8945C383.188 84.0508 384.594 83.6289 386.105 83.6289C388.578 83.6289 390.5 84.4434 391.871 86.0723C393.242 87.7012 393.928 90.0332 393.928 93.0684V94.4219H381.043C381.09 96.2969 381.635 97.8145 382.678 98.9746C383.732 100.123 385.068 100.697 386.686 100.697C387.834 100.697 388.807 100.463 389.604 99.9941C390.4 99.5254 391.098 98.9043 391.695 98.1309L393.682 99.6777C392.088 102.127 389.697 103.352 386.51 103.352ZM386.105 86.3008C384.793 86.3008 383.691 86.7812 382.801 87.7422C381.91 88.6914 381.359 90.0273 381.148 91.75H390.676V91.5039C390.582 89.8516 390.137 88.5742 389.34 87.6719C388.543 86.7578 387.465 86.3008 386.105 86.3008ZM387.688 76H391.625L386.914 81.168H384.295L387.688 76Z" fill="white"/>
<path d="M401.521 95.793C401.545 94.3984 401.703 93.2969 401.996 92.4883C402.289 91.6797 402.887 90.7832 403.789 89.7988L406.092 87.4258C407.076 86.3125 407.568 85.1172 407.568 83.8398C407.568 82.6094 407.246 81.6484 406.602 80.957C405.957 80.2539 405.02 79.9023 403.789 79.9023C402.594 79.9023 401.633 80.2188 400.906 80.8516C400.18 81.4844 399.816 82.334 399.816 83.4004H396.564C396.588 81.502 397.262 79.9727 398.586 78.8125C399.922 77.6406 401.656 77.0547 403.789 77.0547C406.004 77.0547 407.727 77.6523 408.957 78.8477C410.199 80.0312 410.82 81.6602 410.82 83.7344C410.82 85.7852 409.871 87.8066 407.973 89.7988L406.057 91.6973C405.201 92.6465 404.773 94.0117 404.773 95.793H401.521ZM401.381 101.365C401.381 100.838 401.539 100.398 401.855 100.047C402.184 99.6836 402.664 99.502 403.297 99.502C403.93 99.502 404.41 99.6836 404.738 100.047C405.066 100.398 405.23 100.838 405.23 101.365C405.23 101.893 405.066 102.332 404.738 102.684C404.41 103.023 403.93 103.193 403.297 103.193C402.664 103.193 402.184 103.023 401.855 102.684C401.539 102.332 401.381 101.893 401.381 101.365Z" fill="white"/>
</g>
</g>
</g>
</svg>
