<svg viewBox="0 0 993 412" fill="none" xmlns="http://www.w3.org/2000/svg">
<g id="0120142">
<g id="claves01">
<path id="Rectangle 4" d="M57 205H273.745L307 245L273.745 285H57V205Z" fill="#E8A1EE" fill-opacity="0.1"/>
<path id="Rectangle 4 (Stroke)" fill-rule="evenodd" clip-rule="evenodd" d="M272.338 208H60V282H272.338L303.099 245L272.338 208ZM273.745 205H57V285H273.745L307 245L273.745 205Z" fill="#E8A1EE"/>
<path id="Rectangle 5" d="M61 315H277.745L311 355L277.745 395H61V315Z" fill="#E8A1EE" fill-opacity="0.1"/>
<path id="Rectangle 5 (Stroke)" fill-rule="evenodd" clip-rule="evenodd" d="M276.338 318H64V392H276.338L307.099 355L276.338 318ZM277.745 315H61V395H277.745L311 355L277.745 315Z" fill="#E8A1EE"/>
<path id="Rectangle 6" d="M397 202H613.745L647 242L613.745 282H397V202Z" fill="#E8A1EE" fill-opacity="0.1"/>
<path id="Rectangle 6 (Stroke)" fill-rule="evenodd" clip-rule="evenodd" d="M612.338 205H400V279H612.338L643.099 242L612.338 205ZM613.745 202H397V282H613.745L647 242L613.745 202Z" fill="#E8A1EE"/>
<path id="Rectangle 7" d="M400 312H616.745L650 352L616.745 392H400V312Z" fill="#E8A1EE" fill-opacity="0.1"/>
<path id="Rectangle 7 (Stroke)" fill-rule="evenodd" clip-rule="evenodd" d="M615.338 315H403V389H615.338L646.099 352L615.338 315ZM616.745 312H400V392H616.745L650 352L616.745 312Z" fill="#E8A1EE"/>
<path id="Rectangle 8" d="M743 261H959.745L993 301L959.745 341H743V261Z" fill="#E8A1EE" fill-opacity="0.1"/>
<path id="Rectangle 8 (Stroke)" fill-rule="evenodd" clip-rule="evenodd" d="M958.338 264H746V338H958.338L989.099 301L958.338 264ZM959.745 261H743V341H959.745L993 301L959.745 261Z" fill="#E8A1EE"/>
<path id="Ellipse 1" d="M98 245C98 267.091 80.0914 285 58 285C35.9086 285 18 267.091 18 245C18 222.909 35.9086 205 58 205C80.0914 205 98 222.909 98 245Z" fill="#E8A1EE"/>
<path id="Ellipse 2" d="M102 355C102 377.091 84.0914 395 62 395C39.9086 395 22 377.091 22 355C22 332.909 39.9086 315 62 315C84.0914 315 102 332.909 102 355Z" fill="#E8A1EE"/>
<path id="Ellipse 3" d="M438 242C438 264.091 420.091 282 398 282C375.909 282 358 264.091 358 242C358 219.909 375.909 202 398 202C420.091 202 438 219.909 438 242Z" fill="#E8A1EE"/>
<path id="Ellipse 4" d="M441 352C441 374.091 423.091 392 401 392C378.909 392 361 374.091 361 352C361 329.909 378.909 312 401 312C423.091 312 441 329.909 441 352Z" fill="#E8A1EE"/>
<path id="Ellipse 5" d="M784 301C784 323.091 766.091 341 744 341C721.909 341 704 323.091 704 301C704 278.909 721.909 261 744 261C766.091 261 784 278.909 784 301Z" fill="#E8A1EE"/>
<path id="A" d="M66.0938 255.406H48.4688L44.7812 266H36.5625L53.75 220.5H60.8438L78.0625 266H69.8125L66.0938 255.406ZM50.6875 249.031H63.875L57.2812 230.156L50.6875 249.031Z" fill="white"/>
<path id="B" d="M45.625 371V325.5H61.2188C66.3646 325.5 70.2812 326.531 72.9688 328.594C75.6562 330.656 77 333.729 77 337.812C77 339.896 76.4375 341.771 75.3125 343.438C74.1875 345.104 72.5417 346.396 70.375 347.312C72.8333 347.979 74.7292 349.24 76.0625 351.094C77.4167 352.927 78.0938 355.135 78.0938 357.719C78.0938 361.99 76.7188 365.271 73.9688 367.562C71.2396 369.854 67.3229 371 62.2188 371H45.625ZM53.5312 350.469V364.688H62.3125C64.7917 364.688 66.7292 364.073 68.125 362.844C69.5208 361.615 70.2188 359.906 70.2188 357.719C70.2188 352.99 67.8021 350.573 62.9688 350.469H53.5312ZM53.5312 344.656H61.2812C63.7396 344.656 65.6562 344.104 67.0312 343C68.4271 341.875 69.125 340.292 69.125 338.25C69.125 336 68.4792 334.375 67.1875 333.375C65.9167 332.375 63.9271 331.875 61.2188 331.875H53.5312V344.656Z" fill="white"/>
<path id="C" d="M415.344 249.188C414.885 254.042 413.094 257.833 409.969 260.562C406.844 263.271 402.688 264.625 397.5 264.625C393.875 264.625 390.677 263.771 387.906 262.062C385.156 260.333 383.031 257.885 381.531 254.719C380.031 251.552 379.25 247.875 379.188 243.688V239.438C379.188 235.146 379.948 231.365 381.469 228.094C382.99 224.823 385.167 222.302 388 220.531C390.854 218.76 394.146 217.875 397.875 217.875C402.896 217.875 406.938 219.24 410 221.969C413.062 224.698 414.844 228.552 415.344 233.531H407.469C407.094 230.26 406.135 227.906 404.594 226.469C403.073 225.01 400.833 224.281 397.875 224.281C394.438 224.281 391.792 225.542 389.938 228.062C388.104 230.562 387.167 234.24 387.125 239.094V243.125C387.125 248.042 388 251.792 389.75 254.375C391.521 256.958 394.104 258.25 397.5 258.25C400.604 258.25 402.938 257.552 404.5 256.156C406.062 254.76 407.052 252.438 407.469 249.188H415.344Z" fill="white"/>
<path id="D" d="M383.625 374V328.5H397.062C401.083 328.5 404.646 329.396 407.75 331.188C410.875 332.979 413.292 335.521 415 338.812C416.708 342.104 417.562 345.875 417.562 350.125V352.406C417.562 356.719 416.698 360.51 414.969 363.781C413.26 367.052 410.812 369.573 407.625 371.344C404.458 373.115 400.823 374 396.719 374H383.625ZM391.531 334.875V367.688H396.688C400.833 367.688 404.01 366.396 406.219 363.812C408.448 361.208 409.583 357.479 409.625 352.625V350.094C409.625 345.156 408.552 341.385 406.406 338.781C404.26 336.177 401.146 334.875 397.062 334.875H391.531Z" fill="white"/>
<path id="E" d="M753.219 302.688H734.531V316.688H756.375V323H726.625V277.5H756.156V283.875H734.531V296.438H753.219V302.688Z" fill="white"/>
<g id="flecha">
<path id="Rectangle 2" d="M66.2002 315.008L81.482 323.133L39.5004 402.089L24.2186 393.963L66.2002 315.008Z" fill="#1043F5"/>
<path id="Rectangle 1" d="M8 327.904L98 278V335.692L53 318.096L8 327.904Z" fill="#1043F5"/>
<path id="Rectangle 3" d="M12.0381 397.21L27.6652 370.143L44.9359 369.565L29.3087 396.632L12.0381 397.21Z" fill="#1043F5"/>
<path id="Rectangle 4_2" d="M38.0898 411.845L53.717 384.778L44.9263 369.154L29.2991 396.221L38.0898 411.845Z" fill="#1043F5"/>
</g>
<g id="30 29 42 28 32">
<path d="M144.855 247.621H147.299C148.834 247.598 150.041 247.193 150.92 246.408C151.799 245.623 152.238 244.562 152.238 243.227C152.238 240.227 150.744 238.727 147.756 238.727C146.35 238.727 145.225 239.131 144.381 239.939C143.549 240.736 143.133 241.797 143.133 243.121H139.881C139.881 241.094 140.619 239.412 142.096 238.076C143.584 236.729 145.471 236.055 147.756 236.055C150.17 236.055 152.062 236.693 153.434 237.971C154.805 239.248 155.49 241.023 155.49 243.297C155.49 244.41 155.127 245.488 154.4 246.531C153.686 247.574 152.707 248.354 151.465 248.869C152.871 249.314 153.955 250.053 154.717 251.084C155.49 252.115 155.877 253.375 155.877 254.863C155.877 257.16 155.127 258.982 153.627 260.33C152.127 261.678 150.176 262.352 147.773 262.352C145.371 262.352 143.414 261.701 141.902 260.4C140.402 259.1 139.652 257.383 139.652 255.25H142.922C142.922 256.598 143.361 257.676 144.24 258.484C145.119 259.293 146.297 259.697 147.773 259.697C149.344 259.697 150.545 259.287 151.377 258.467C152.209 257.646 152.625 256.469 152.625 254.934C152.625 253.445 152.168 252.303 151.254 251.506C150.34 250.709 149.021 250.299 147.299 250.275H144.855V247.621Z" fill="#E8A1EE"/>
<path d="M176.391 251.084C176.391 254.893 175.74 257.723 174.439 259.574C173.139 261.426 171.105 262.352 168.34 262.352C165.609 262.352 163.588 261.449 162.275 259.645C160.963 257.828 160.283 255.121 160.236 251.523V247.182C160.236 243.42 160.887 240.625 162.188 238.797C163.488 236.969 165.527 236.055 168.305 236.055C171.059 236.055 173.086 236.939 174.387 238.709C175.688 240.467 176.355 243.186 176.391 246.865V251.084ZM173.139 246.637C173.139 243.883 172.752 241.879 171.979 240.625C171.205 239.359 169.98 238.727 168.305 238.727C166.641 238.727 165.428 239.354 164.666 240.607C163.904 241.861 163.512 243.789 163.488 246.391V251.594C163.488 254.359 163.887 256.404 164.684 257.729C165.492 259.041 166.711 259.697 168.34 259.697C169.945 259.697 171.135 259.076 171.908 257.834C172.693 256.592 173.104 254.635 173.139 251.963V246.637Z" fill="#E8A1EE"/>
<path d="M509.865 262H493.096V259.662L501.955 249.818C503.268 248.33 504.17 247.123 504.662 246.197C505.166 245.26 505.418 244.293 505.418 243.297C505.418 241.961 505.014 240.865 504.205 240.01C503.396 239.154 502.318 238.727 500.971 238.727C499.354 238.727 498.094 239.189 497.191 240.115C496.301 241.029 495.855 242.307 495.855 243.947H492.604C492.604 241.592 493.359 239.688 494.871 238.234C496.395 236.781 498.428 236.055 500.971 236.055C503.35 236.055 505.23 236.682 506.613 237.936C507.996 239.178 508.688 240.836 508.688 242.91C508.688 245.43 507.082 248.43 503.871 251.91L497.016 259.346H509.865V262Z" fill="#E8A1EE"/>
<path d="M525.773 250.75C525.094 251.559 524.279 252.209 523.33 252.701C522.393 253.193 521.361 253.439 520.236 253.439C518.76 253.439 517.471 253.076 516.369 252.35C515.279 251.623 514.436 250.604 513.838 249.291C513.24 247.967 512.941 246.508 512.941 244.914C512.941 243.203 513.264 241.662 513.908 240.291C514.564 238.92 515.49 237.871 516.686 237.145C517.881 236.418 519.275 236.055 520.869 236.055C523.4 236.055 525.393 237.004 526.846 238.902C528.311 240.789 529.043 243.367 529.043 246.637V247.586C529.043 252.566 528.059 256.205 526.09 258.502C524.121 260.787 521.15 261.959 517.178 262.018H516.545V259.275H517.23C519.914 259.229 521.977 258.531 523.418 257.184C524.859 255.824 525.645 253.68 525.773 250.75ZM520.764 250.75C521.854 250.75 522.855 250.416 523.77 249.748C524.695 249.08 525.369 248.254 525.791 247.27V245.969C525.791 243.836 525.328 242.102 524.402 240.766C523.477 239.43 522.305 238.762 520.887 238.762C519.457 238.762 518.309 239.312 517.441 240.414C516.574 241.504 516.141 242.945 516.141 244.738C516.141 246.484 516.557 247.926 517.389 249.062C518.232 250.188 519.357 250.75 520.764 250.75Z" fill="#E8A1EE"/>
<path d="M850.371 303.404H853.922V306.059H850.371V312H847.102V306.059H835.447V304.143L846.908 286.406H850.371V303.404ZM839.139 303.404H847.102V290.854L846.715 291.557L839.139 303.404Z" fill="#E8A1EE"/>
<path d="M873.627 312H856.857V309.662L865.717 299.818C867.029 298.33 867.932 297.123 868.424 296.197C868.928 295.26 869.18 294.293 869.18 293.297C869.18 291.961 868.775 290.865 867.967 290.01C867.158 289.154 866.08 288.727 864.732 288.727C863.115 288.727 861.855 289.189 860.953 290.115C860.062 291.029 859.617 292.307 859.617 293.947H856.365C856.365 291.592 857.121 289.688 858.633 288.234C860.156 286.781 862.189 286.055 864.732 286.055C867.111 286.055 868.992 286.682 870.375 287.936C871.758 289.178 872.449 290.836 872.449 292.91C872.449 295.43 870.844 298.43 867.633 301.91L860.777 309.346H873.627V312Z" fill="#E8A1EE"/>
<path d="M156.896 362H140.127V359.662L148.986 349.818C150.299 348.33 151.201 347.123 151.693 346.197C152.197 345.26 152.449 344.293 152.449 343.297C152.449 341.961 152.045 340.865 151.236 340.01C150.428 339.154 149.35 338.727 148.002 338.727C146.385 338.727 145.125 339.189 144.223 340.115C143.332 341.029 142.887 342.307 142.887 343.947H139.635C139.635 341.592 140.391 339.688 141.902 338.234C143.426 336.781 145.459 336.055 148.002 336.055C150.381 336.055 152.262 336.682 153.645 337.936C155.027 339.178 155.719 340.836 155.719 342.91C155.719 345.43 154.113 348.43 150.902 351.91L144.047 359.346H156.896V362Z" fill="#E8A1EE"/>
<path d="M175.863 343.086C175.863 344.363 175.523 345.5 174.844 346.496C174.176 347.492 173.268 348.271 172.119 348.834C173.455 349.408 174.51 350.246 175.283 351.348C176.068 352.449 176.461 353.697 176.461 355.092C176.461 357.307 175.711 359.07 174.211 360.383C172.723 361.695 170.76 362.352 168.322 362.352C165.861 362.352 163.887 361.695 162.398 360.383C160.922 359.059 160.184 357.295 160.184 355.092C160.184 353.709 160.559 352.461 161.309 351.348C162.07 350.234 163.119 349.391 164.455 348.816C163.318 348.254 162.422 347.475 161.766 346.479C161.109 345.482 160.781 344.352 160.781 343.086C160.781 340.93 161.473 339.219 162.855 337.953C164.238 336.688 166.061 336.055 168.322 336.055C170.572 336.055 172.389 336.688 173.771 337.953C175.166 339.219 175.863 340.93 175.863 343.086ZM173.209 355.021C173.209 353.592 172.752 352.426 171.838 351.523C170.936 350.621 169.752 350.17 168.287 350.17C166.822 350.17 165.645 350.615 164.754 351.506C163.875 352.396 163.436 353.568 163.436 355.021C163.436 356.475 163.863 357.617 164.719 358.449C165.586 359.281 166.787 359.697 168.322 359.697C169.846 359.697 171.041 359.281 171.908 358.449C172.775 357.605 173.209 356.463 173.209 355.021ZM168.322 338.727C167.045 338.727 166.008 339.125 165.211 339.922C164.426 340.707 164.033 341.779 164.033 343.139C164.033 344.439 164.42 345.494 165.193 346.303C165.979 347.1 167.021 347.498 168.322 347.498C169.623 347.498 170.66 347.1 171.434 346.303C172.219 345.494 172.611 344.439 172.611 343.139C172.611 341.838 172.207 340.777 171.398 339.957C170.59 339.137 169.564 338.727 168.322 338.727Z" fill="#E8A1EE"/>
<path d="M497.824 347.621H500.268C501.803 347.598 503.01 347.193 503.889 346.408C504.768 345.623 505.207 344.562 505.207 343.227C505.207 340.227 503.713 338.727 500.725 338.727C499.318 338.727 498.193 339.131 497.35 339.939C496.518 340.736 496.102 341.797 496.102 343.121H492.85C492.85 341.094 493.588 339.412 495.064 338.076C496.553 336.729 498.439 336.055 500.725 336.055C503.139 336.055 505.031 336.693 506.402 337.971C507.773 339.248 508.459 341.023 508.459 343.297C508.459 344.41 508.096 345.488 507.369 346.531C506.654 347.574 505.676 348.354 504.434 348.869C505.84 349.314 506.924 350.053 507.686 351.084C508.459 352.115 508.846 353.375 508.846 354.863C508.846 357.16 508.096 358.982 506.596 360.33C505.096 361.678 503.145 362.352 500.742 362.352C498.34 362.352 496.383 361.701 494.871 360.4C493.371 359.1 492.621 357.383 492.621 355.25H495.891C495.891 356.598 496.33 357.676 497.209 358.484C498.088 359.293 499.266 359.697 500.742 359.697C502.312 359.697 503.514 359.287 504.346 358.467C505.178 357.646 505.594 356.469 505.594 354.934C505.594 353.445 505.137 352.303 504.223 351.506C503.309 350.709 501.99 350.299 500.268 350.275H497.824V347.621Z" fill="#E8A1EE"/>
<path d="M530.08 362H513.311V359.662L522.17 349.818C523.482 348.33 524.385 347.123 524.877 346.197C525.381 345.26 525.633 344.293 525.633 343.297C525.633 341.961 525.229 340.865 524.42 340.01C523.611 339.154 522.533 338.727 521.186 338.727C519.568 338.727 518.309 339.189 517.406 340.115C516.516 341.029 516.07 342.307 516.07 343.947H512.818C512.818 341.592 513.574 339.688 515.086 338.234C516.609 336.781 518.643 336.055 521.186 336.055C523.564 336.055 525.445 336.682 526.828 337.936C528.211 339.178 528.902 340.836 528.902 342.91C528.902 345.43 527.297 348.43 524.086 351.91L517.23 359.346H530.08V362Z" fill="#E8A1EE"/>
</g>
</g>
<g id="enun01">
<path id="Rectangle 1_2" d="M58 0H870.539L939 84.2698L870.539 171H58V0Z" fill="#02071A"/>
<path id="Rectangle 1 (Stroke)" fill-rule="evenodd" clip-rule="evenodd" d="M868.635 4H62V167H868.6L933.876 84.3058L868.635 4ZM870.539 0H58V171H870.539L939 84.2698L870.539 0Z" fill="#E8A1EE"/>
<path id="Ellipse 1_2" d="M100 91C100 118.614 77.6142 141 50 141C22.3858 141 0 118.614 0 91C0 63.3858 22.3858 41 50 41C77.6142 41 100 63.3858 100 91Z" fill="#E8A1EE"/>
<path id="Ellipse 1 (Stroke)" fill-rule="evenodd" clip-rule="evenodd" d="M50 140C77.062 140 99 118.062 99 91C99 63.938 77.062 42 50 42C22.938 42 1 63.938 1 91C1 118.062 22.938 140 50 140ZM50 141C77.6142 141 100 118.614 100 91C100 63.3858 77.6142 41 50 41C22.3858 41 0 63.3858 0 91C0 118.614 22.3858 141 50 141Z" fill="#E8A1EE"/>
<g id="La suma de tres n&#195;&#186;meros pares consecutivos es 90. Determina el n&#195;&#186;mero menor.">
<path d="M123.363 71.2402H135.492V74H119.971V48.4062H123.363V71.2402Z" fill="white"/>
<path d="M150.574 74C150.387 73.625 150.234 72.957 150.117 71.9961C148.605 73.5664 146.801 74.3516 144.703 74.3516C142.828 74.3516 141.287 73.8242 140.08 72.7695C138.885 71.7031 138.287 70.3555 138.287 68.7266C138.287 66.7461 139.037 65.2109 140.537 64.1211C142.049 63.0195 144.17 62.4688 146.9 62.4688H150.064V60.9746C150.064 59.8379 149.725 58.9355 149.045 58.2676C148.365 57.5879 147.363 57.248 146.039 57.248C144.879 57.248 143.906 57.541 143.121 58.127C142.336 58.7129 141.943 59.4219 141.943 60.2539H138.674C138.674 59.3047 139.008 58.3906 139.676 57.5117C140.355 56.6211 141.27 55.918 142.418 55.4023C143.578 54.8867 144.85 54.6289 146.232 54.6289C148.424 54.6289 150.141 55.1797 151.383 56.2812C152.625 57.3711 153.27 58.877 153.316 60.7988V69.5527C153.316 71.2988 153.539 72.6875 153.984 73.7188V74H150.574ZM145.178 71.5215C146.197 71.5215 147.164 71.2578 148.078 70.7305C148.992 70.2031 149.654 69.5176 150.064 68.6738V64.7715H147.516C143.531 64.7715 141.539 65.9375 141.539 68.2695C141.539 69.2891 141.879 70.0859 142.559 70.6602C143.238 71.2344 144.111 71.5215 145.178 71.5215Z" fill="white"/>
<path d="M178.418 68.9551C178.418 68.0762 178.084 67.3965 177.416 66.916C176.76 66.4238 175.605 66.002 173.953 65.6504C172.312 65.2988 171.006 64.877 170.033 64.3848C169.072 63.8926 168.357 63.3066 167.889 62.627C167.432 61.9473 167.203 61.1387 167.203 60.2012C167.203 58.6426 167.859 57.3242 169.172 56.2461C170.496 55.168 172.184 54.6289 174.234 54.6289C176.391 54.6289 178.137 55.1855 179.473 56.2988C180.82 57.4121 181.494 58.8359 181.494 60.5703H178.225C178.225 59.6797 177.844 58.9121 177.082 58.2676C176.332 57.623 175.383 57.3008 174.234 57.3008C173.051 57.3008 172.125 57.5586 171.457 58.0742C170.789 58.5898 170.455 59.2637 170.455 60.0957C170.455 60.8809 170.766 61.4727 171.387 61.8711C172.008 62.2695 173.127 62.6504 174.744 63.0137C176.373 63.377 177.691 63.8105 178.699 64.3145C179.707 64.8184 180.451 65.4277 180.932 66.1426C181.424 66.8457 181.67 67.707 181.67 68.7266C181.67 70.4258 180.99 71.791 179.631 72.8223C178.271 73.8418 176.508 74.3516 174.34 74.3516C172.816 74.3516 171.469 74.082 170.297 73.543C169.125 73.0039 168.205 72.2539 167.537 71.293C166.881 70.3203 166.553 69.2715 166.553 68.1465H169.805C169.863 69.2363 170.297 70.1035 171.105 70.748C171.926 71.3809 173.004 71.6973 174.34 71.6973C175.57 71.6973 176.555 71.4512 177.293 70.959C178.043 70.4551 178.418 69.7871 178.418 68.9551Z" fill="white"/>
<path d="M197.648 72.1191C196.383 73.6074 194.525 74.3516 192.076 74.3516C190.049 74.3516 188.502 73.7656 187.436 72.5938C186.381 71.4102 185.848 69.6641 185.836 67.3555V54.9805H189.088V67.2676C189.088 70.1504 190.26 71.5918 192.604 71.5918C195.088 71.5918 196.74 70.666 197.561 68.8145V54.9805H200.812V74H197.719L197.648 72.1191Z" fill="white"/>
<path d="M208.828 54.9805L208.916 57.0898C210.311 55.4492 212.191 54.6289 214.559 54.6289C217.219 54.6289 219.029 55.6484 219.99 57.6875C220.623 56.7734 221.443 56.0352 222.451 55.4727C223.471 54.9102 224.672 54.6289 226.055 54.6289C230.227 54.6289 232.348 56.8379 232.418 61.2559V74H229.166V61.4492C229.166 60.0898 228.855 59.0762 228.234 58.4082C227.613 57.7285 226.57 57.3887 225.105 57.3887C223.898 57.3887 222.896 57.752 222.1 58.4785C221.303 59.1934 220.84 60.1602 220.711 61.3789V74H217.441V61.5371C217.441 58.7715 216.088 57.3887 213.381 57.3887C211.248 57.3887 209.789 58.2969 209.004 60.1133V74H205.752V54.9805H208.828Z" fill="white"/>
<path d="M249.082 74C248.895 73.625 248.742 72.957 248.625 71.9961C247.113 73.5664 245.309 74.3516 243.211 74.3516C241.336 74.3516 239.795 73.8242 238.588 72.7695C237.393 71.7031 236.795 70.3555 236.795 68.7266C236.795 66.7461 237.545 65.2109 239.045 64.1211C240.557 63.0195 242.678 62.4688 245.408 62.4688H248.572V60.9746C248.572 59.8379 248.232 58.9355 247.553 58.2676C246.873 57.5879 245.871 57.248 244.547 57.248C243.387 57.248 242.414 57.541 241.629 58.127C240.844 58.7129 240.451 59.4219 240.451 60.2539H237.182C237.182 59.3047 237.516 58.3906 238.184 57.5117C238.863 56.6211 239.777 55.918 240.926 55.4023C242.086 54.8867 243.357 54.6289 244.74 54.6289C246.932 54.6289 248.648 55.1797 249.891 56.2812C251.133 57.3711 251.777 58.877 251.824 60.7988V69.5527C251.824 71.2988 252.047 72.6875 252.492 73.7188V74H249.082ZM243.686 71.5215C244.705 71.5215 245.672 71.2578 246.586 70.7305C247.5 70.2031 248.162 69.5176 248.572 68.6738V64.7715H246.023C242.039 64.7715 240.047 65.9375 240.047 68.2695C240.047 69.2891 240.387 70.0859 241.066 70.6602C241.746 71.2344 242.619 71.5215 243.686 71.5215Z" fill="white"/>
<path d="M265.061 64.332C265.061 61.4141 265.752 59.0703 267.135 57.3008C268.518 55.5195 270.328 54.6289 272.566 54.6289C274.793 54.6289 276.557 55.3906 277.857 56.9141V47H281.109V74H278.121L277.963 71.9609C276.662 73.5547 274.852 74.3516 272.531 74.3516C270.328 74.3516 268.529 73.4492 267.135 71.6445C265.752 69.8398 265.061 67.4844 265.061 64.5781V64.332ZM268.312 64.7012C268.312 66.8574 268.758 68.5449 269.648 69.7637C270.539 70.9824 271.77 71.5918 273.34 71.5918C275.402 71.5918 276.908 70.666 277.857 68.8145V60.0781C276.885 58.2852 275.391 57.3887 273.375 57.3887C271.781 57.3887 270.539 58.0039 269.648 59.2344C268.758 60.4648 268.312 62.2871 268.312 64.7012Z" fill="white"/>
<path d="M294.064 74.3516C291.486 74.3516 289.389 73.5078 287.771 71.8203C286.154 70.1211 285.346 67.8535 285.346 65.0176V64.4199C285.346 62.5332 285.703 60.8516 286.418 59.375C287.145 57.8867 288.152 56.7266 289.441 55.8945C290.742 55.0508 292.148 54.6289 293.66 54.6289C296.133 54.6289 298.055 55.4434 299.426 57.0723C300.797 58.7012 301.482 61.0332 301.482 64.0684V65.4219H288.598C288.645 67.2969 289.189 68.8145 290.232 69.9746C291.287 71.123 292.623 71.6973 294.24 71.6973C295.389 71.6973 296.361 71.4629 297.158 70.9941C297.955 70.5254 298.652 69.9043 299.25 69.1309L301.236 70.6777C299.643 73.127 297.252 74.3516 294.064 74.3516ZM293.66 57.3008C292.348 57.3008 291.246 57.7812 290.355 58.7422C289.465 59.6914 288.914 61.0273 288.703 62.75H298.23V62.5039C298.137 60.8516 297.691 59.5742 296.895 58.6719C296.098 57.7578 295.02 57.3008 293.66 57.3008Z" fill="white"/>
<path d="M318.604 50.375V54.9805H322.154V57.4941H318.604V69.2891C318.604 70.0508 318.762 70.625 319.078 71.0117C319.395 71.3867 319.934 71.5742 320.695 71.5742C321.07 71.5742 321.586 71.5039 322.242 71.3633V74C321.387 74.2344 320.555 74.3516 319.746 74.3516C318.293 74.3516 317.197 73.9121 316.459 73.0332C315.721 72.1543 315.352 70.9062 315.352 69.2891V57.4941H311.889V54.9805H315.352V50.375H318.604Z" fill="white"/>
<path d="M335.162 57.8984C334.67 57.8164 334.137 57.7754 333.562 57.7754C331.43 57.7754 329.982 58.6836 329.221 60.5V74H325.969V54.9805H329.133L329.186 57.1777C330.252 55.4785 331.764 54.6289 333.721 54.6289C334.354 54.6289 334.834 54.7109 335.162 54.875V57.8984Z" fill="white"/>
<path d="M345.709 74.3516C343.131 74.3516 341.033 73.5078 339.416 71.8203C337.799 70.1211 336.99 67.8535 336.99 65.0176V64.4199C336.99 62.5332 337.348 60.8516 338.062 59.375C338.789 57.8867 339.797 56.7266 341.086 55.8945C342.387 55.0508 343.793 54.6289 345.305 54.6289C347.777 54.6289 349.699 55.4434 351.07 57.0723C352.441 58.7012 353.127 61.0332 353.127 64.0684V65.4219H340.242C340.289 67.2969 340.834 68.8145 341.877 69.9746C342.932 71.123 344.268 71.6973 345.885 71.6973C347.033 71.6973 348.006 71.4629 348.803 70.9941C349.6 70.5254 350.297 69.9043 350.895 69.1309L352.881 70.6777C351.287 73.127 348.896 74.3516 345.709 74.3516ZM345.305 57.3008C343.992 57.3008 342.891 57.7812 342 58.7422C341.109 59.6914 340.559 61.0273 340.348 62.75H349.875V62.5039C349.781 60.8516 349.336 59.5742 348.539 58.6719C347.742 57.7578 346.664 57.3008 345.305 57.3008Z" fill="white"/>
<path d="M367.98 68.9551C367.98 68.0762 367.646 67.3965 366.979 66.916C366.322 66.4238 365.168 66.002 363.516 65.6504C361.875 65.2988 360.568 64.877 359.596 64.3848C358.635 63.8926 357.92 63.3066 357.451 62.627C356.994 61.9473 356.766 61.1387 356.766 60.2012C356.766 58.6426 357.422 57.3242 358.734 56.2461C360.059 55.168 361.746 54.6289 363.797 54.6289C365.953 54.6289 367.699 55.1855 369.035 56.2988C370.383 57.4121 371.057 58.8359 371.057 60.5703H367.787C367.787 59.6797 367.406 58.9121 366.645 58.2676C365.895 57.623 364.945 57.3008 363.797 57.3008C362.613 57.3008 361.688 57.5586 361.02 58.0742C360.352 58.5898 360.018 59.2637 360.018 60.0957C360.018 60.8809 360.328 61.4727 360.949 61.8711C361.57 62.2695 362.689 62.6504 364.307 63.0137C365.936 63.377 367.254 63.8105 368.262 64.3145C369.27 64.8184 370.014 65.4277 370.494 66.1426C370.986 66.8457 371.232 67.707 371.232 68.7266C371.232 70.4258 370.553 71.791 369.193 72.8223C367.834 73.8418 366.07 74.3516 363.902 74.3516C362.379 74.3516 361.031 74.082 359.859 73.543C358.688 73.0039 357.768 72.2539 357.1 71.293C356.443 70.3203 356.115 69.2715 356.115 68.1465H359.367C359.426 69.2363 359.859 70.1035 360.668 70.748C361.488 71.3809 362.566 71.6973 363.902 71.6973C365.133 71.6973 366.117 71.4512 366.855 70.959C367.605 70.4551 367.98 69.7871 367.98 68.9551Z" fill="white"/>
<path d="M387.475 54.9805L387.58 57.3711C389.033 55.543 390.932 54.6289 393.275 54.6289C397.295 54.6289 399.322 56.8965 399.357 61.4316V74H396.105V61.4141C396.094 60.043 395.777 59.0293 395.156 58.373C394.547 57.7168 393.592 57.3887 392.291 57.3887C391.236 57.3887 390.311 57.6699 389.514 58.2324C388.717 58.7949 388.096 59.5332 387.65 60.4473V74H384.398V54.9805H387.475Z" fill="white"/>
<path d="M416.004 72.1191C414.738 73.6074 412.881 74.3516 410.432 74.3516C408.404 74.3516 406.857 73.7656 405.791 72.5938C404.736 71.4102 404.203 69.6641 404.191 67.3555V54.9805H407.443V67.2676C407.443 70.1504 408.615 71.5918 410.959 71.5918C413.443 71.5918 415.096 70.666 415.916 68.8145V54.9805H419.168V74H416.074L416.004 72.1191ZM413.367 47H417.305L412.594 52.168H409.975L413.367 47Z" fill="white"/>
<path d="M427.184 54.9805L427.271 57.0898C428.666 55.4492 430.547 54.6289 432.914 54.6289C435.574 54.6289 437.385 55.6484 438.346 57.6875C438.979 56.7734 439.799 56.0352 440.807 55.4727C441.826 54.9102 443.027 54.6289 444.41 54.6289C448.582 54.6289 450.703 56.8379 450.773 61.2559V74H447.521V61.4492C447.521 60.0898 447.211 59.0762 446.59 58.4082C445.969 57.7285 444.926 57.3887 443.461 57.3887C442.254 57.3887 441.252 57.752 440.455 58.4785C439.658 59.1934 439.195 60.1602 439.066 61.3789V74H435.797V61.5371C435.797 58.7715 434.443 57.3887 431.736 57.3887C429.604 57.3887 428.145 58.2969 427.359 60.1133V74H424.107V54.9805H427.184Z" fill="white"/>
<path d="M463.588 74.3516C461.01 74.3516 458.912 73.5078 457.295 71.8203C455.678 70.1211 454.869 67.8535 454.869 65.0176V64.4199C454.869 62.5332 455.227 60.8516 455.941 59.375C456.668 57.8867 457.676 56.7266 458.965 55.8945C460.266 55.0508 461.672 54.6289 463.184 54.6289C465.656 54.6289 467.578 55.4434 468.949 57.0723C470.32 58.7012 471.006 61.0332 471.006 64.0684V65.4219H458.121C458.168 67.2969 458.713 68.8145 459.756 69.9746C460.811 71.123 462.146 71.6973 463.764 71.6973C464.912 71.6973 465.885 71.4629 466.682 70.9941C467.479 70.5254 468.176 69.9043 468.773 69.1309L470.76 70.6777C469.166 73.127 466.775 74.3516 463.588 74.3516ZM463.184 57.3008C461.871 57.3008 460.77 57.7812 459.879 58.7422C458.988 59.6914 458.438 61.0273 458.227 62.75H467.754V62.5039C467.66 60.8516 467.215 59.5742 466.418 58.6719C465.621 57.7578 464.543 57.3008 463.184 57.3008Z" fill="white"/>
<path d="M483.979 57.8984C483.486 57.8164 482.953 57.7754 482.379 57.7754C480.246 57.7754 478.799 58.6836 478.037 60.5V74H474.785V54.9805H477.949L478.002 57.1777C479.068 55.4785 480.58 54.6289 482.537 54.6289C483.17 54.6289 483.65 54.7109 483.979 54.875V57.8984Z" fill="white"/>
<path d="M485.771 64.3145C485.771 62.4512 486.135 60.7754 486.861 59.2871C487.6 57.7988 488.619 56.6504 489.92 55.8418C491.232 55.0332 492.727 54.6289 494.402 54.6289C496.992 54.6289 499.084 55.5254 500.678 57.3184C502.283 59.1113 503.086 61.4961 503.086 64.4727V64.7012C503.086 66.5527 502.729 68.2168 502.014 69.6934C501.311 71.1582 500.297 72.3008 498.973 73.1211C497.66 73.9414 496.148 74.3516 494.438 74.3516C491.859 74.3516 489.768 73.4551 488.162 71.6621C486.568 69.8691 485.771 67.4961 485.771 64.543V64.3145ZM489.041 64.7012C489.041 66.8105 489.527 68.5039 490.5 69.7812C491.484 71.0586 492.797 71.6973 494.438 71.6973C496.09 71.6973 497.402 71.0527 498.375 69.7637C499.348 68.4629 499.834 66.6465 499.834 64.3145C499.834 62.2285 499.336 60.541 498.34 59.252C497.355 57.9512 496.043 57.3008 494.402 57.3008C492.797 57.3008 491.502 57.9395 490.518 59.2168C489.533 60.4941 489.041 62.3223 489.041 64.7012Z" fill="white"/>
<path d="M518.238 68.9551C518.238 68.0762 517.904 67.3965 517.236 66.916C516.58 66.4238 515.426 66.002 513.773 65.6504C512.133 65.2988 510.826 64.877 509.854 64.3848C508.893 63.8926 508.178 63.3066 507.709 62.627C507.252 61.9473 507.023 61.1387 507.023 60.2012C507.023 58.6426 507.68 57.3242 508.992 56.2461C510.316 55.168 512.004 54.6289 514.055 54.6289C516.211 54.6289 517.957 55.1855 519.293 56.2988C520.641 57.4121 521.314 58.8359 521.314 60.5703H518.045C518.045 59.6797 517.664 58.9121 516.902 58.2676C516.152 57.623 515.203 57.3008 514.055 57.3008C512.871 57.3008 511.945 57.5586 511.277 58.0742C510.609 58.5898 510.275 59.2637 510.275 60.0957C510.275 60.8809 510.586 61.4727 511.207 61.8711C511.828 62.2695 512.947 62.6504 514.564 63.0137C516.193 63.377 517.512 63.8105 518.52 64.3145C519.527 64.8184 520.271 65.4277 520.752 66.1426C521.244 66.8457 521.49 67.707 521.49 68.7266C521.49 70.4258 520.811 71.791 519.451 72.8223C518.092 73.8418 516.328 74.3516 514.16 74.3516C512.637 74.3516 511.289 74.082 510.117 73.543C508.945 73.0039 508.025 72.2539 507.357 71.293C506.701 70.3203 506.373 69.2715 506.373 68.1465H509.625C509.684 69.2363 510.117 70.1035 510.926 70.748C511.746 71.3809 512.824 71.6973 514.16 71.6973C515.391 71.6973 516.375 71.4512 517.113 70.959C517.863 70.4551 518.238 69.7871 518.238 68.9551Z" fill="white"/>
<path d="M550.723 64.7012C550.723 67.5957 550.061 69.9277 548.736 71.6973C547.412 73.4668 545.619 74.3516 543.357 74.3516C541.049 74.3516 539.232 73.6191 537.908 72.1543V81.3125H534.656V54.9805H537.627L537.785 57.0898C539.109 55.4492 540.949 54.6289 543.305 54.6289C545.59 54.6289 547.395 55.4902 548.719 57.2129C550.055 58.9355 550.723 61.332 550.723 64.4023V64.7012ZM547.471 64.332C547.471 62.1875 547.014 60.4941 546.1 59.252C545.186 58.0098 543.932 57.3887 542.338 57.3887C540.369 57.3887 538.893 58.2617 537.908 60.0078V69.0957C538.881 70.8301 540.369 71.6973 542.373 71.6973C543.932 71.6973 545.168 71.082 546.082 69.8516C547.008 68.6094 547.471 66.7695 547.471 64.332Z" fill="white"/>
<path d="M566.613 74C566.426 73.625 566.273 72.957 566.156 71.9961C564.645 73.5664 562.84 74.3516 560.742 74.3516C558.867 74.3516 557.326 73.8242 556.119 72.7695C554.924 71.7031 554.326 70.3555 554.326 68.7266C554.326 66.7461 555.076 65.2109 556.576 64.1211C558.088 63.0195 560.209 62.4688 562.939 62.4688H566.104V60.9746C566.104 59.8379 565.764 58.9355 565.084 58.2676C564.404 57.5879 563.402 57.248 562.078 57.248C560.918 57.248 559.945 57.541 559.16 58.127C558.375 58.7129 557.982 59.4219 557.982 60.2539H554.713C554.713 59.3047 555.047 58.3906 555.715 57.5117C556.395 56.6211 557.309 55.918 558.457 55.4023C559.617 54.8867 560.889 54.6289 562.271 54.6289C564.463 54.6289 566.18 55.1797 567.422 56.2812C568.664 57.3711 569.309 58.877 569.355 60.7988V69.5527C569.355 71.2988 569.578 72.6875 570.023 73.7188V74H566.613ZM561.217 71.5215C562.236 71.5215 563.203 71.2578 564.117 70.7305C565.031 70.2031 565.693 69.5176 566.104 68.6738V64.7715H563.555C559.57 64.7715 557.578 65.9375 557.578 68.2695C557.578 69.2891 557.918 70.0859 558.598 70.6602C559.277 71.2344 560.15 71.5215 561.217 71.5215Z" fill="white"/>
<path d="M583.646 57.8984C583.154 57.8164 582.621 57.7754 582.047 57.7754C579.914 57.7754 578.467 58.6836 577.705 60.5V74H574.453V54.9805H577.617L577.67 57.1777C578.736 55.4785 580.248 54.6289 582.205 54.6289C582.838 54.6289 583.318 54.7109 583.646 54.875V57.8984Z" fill="white"/>
<path d="M594.193 74.3516C591.615 74.3516 589.518 73.5078 587.9 71.8203C586.283 70.1211 585.475 67.8535 585.475 65.0176V64.4199C585.475 62.5332 585.832 60.8516 586.547 59.375C587.273 57.8867 588.281 56.7266 589.57 55.8945C590.871 55.0508 592.277 54.6289 593.789 54.6289C596.262 54.6289 598.184 55.4434 599.555 57.0723C600.926 58.7012 601.611 61.0332 601.611 64.0684V65.4219H588.727C588.773 67.2969 589.318 68.8145 590.361 69.9746C591.416 71.123 592.752 71.6973 594.369 71.6973C595.518 71.6973 596.49 71.4629 597.287 70.9941C598.084 70.5254 598.781 69.9043 599.379 69.1309L601.365 70.6777C599.771 73.127 597.381 74.3516 594.193 74.3516ZM593.789 57.3008C592.477 57.3008 591.375 57.7812 590.484 58.7422C589.594 59.6914 589.043 61.0273 588.832 62.75H598.359V62.5039C598.266 60.8516 597.82 59.5742 597.023 58.6719C596.227 57.7578 595.148 57.3008 593.789 57.3008Z" fill="white"/>
<path d="M616.465 68.9551C616.465 68.0762 616.131 67.3965 615.463 66.916C614.807 66.4238 613.652 66.002 612 65.6504C610.359 65.2988 609.053 64.877 608.08 64.3848C607.119 63.8926 606.404 63.3066 605.936 62.627C605.479 61.9473 605.25 61.1387 605.25 60.2012C605.25 58.6426 605.906 57.3242 607.219 56.2461C608.543 55.168 610.23 54.6289 612.281 54.6289C614.438 54.6289 616.184 55.1855 617.52 56.2988C618.867 57.4121 619.541 58.8359 619.541 60.5703H616.271C616.271 59.6797 615.891 58.9121 615.129 58.2676C614.379 57.623 613.43 57.3008 612.281 57.3008C611.098 57.3008 610.172 57.5586 609.504 58.0742C608.836 58.5898 608.502 59.2637 608.502 60.0957C608.502 60.8809 608.812 61.4727 609.434 61.8711C610.055 62.2695 611.174 62.6504 612.791 63.0137C614.42 63.377 615.738 63.8105 616.746 64.3145C617.754 64.8184 618.498 65.4277 618.979 66.1426C619.471 66.8457 619.717 67.707 619.717 68.7266C619.717 70.4258 619.037 71.791 617.678 72.8223C616.318 73.8418 614.555 74.3516 612.387 74.3516C610.863 74.3516 609.516 74.082 608.344 73.543C607.172 73.0039 606.252 72.2539 605.584 71.293C604.928 70.3203 604.6 69.2715 604.6 68.1465H607.852C607.91 69.2363 608.344 70.1035 609.152 70.748C609.973 71.3809 611.051 71.6973 612.387 71.6973C613.617 71.6973 614.602 71.4512 615.34 70.959C616.09 70.4551 616.465 69.7871 616.465 68.9551Z" fill="white"/>
<path d="M640.512 71.6973C641.672 71.6973 642.686 71.3457 643.553 70.6426C644.42 69.9395 644.9 69.0605 644.994 68.0059H648.07C648.012 69.0957 647.637 70.1328 646.945 71.1172C646.254 72.1016 645.328 72.8867 644.168 73.4727C643.02 74.0586 641.801 74.3516 640.512 74.3516C637.922 74.3516 635.859 73.4902 634.324 71.7676C632.801 70.0332 632.039 67.666 632.039 64.666V64.1211C632.039 62.2695 632.379 60.623 633.059 59.1816C633.738 57.7402 634.711 56.6211 635.977 55.8242C637.254 55.0273 638.76 54.6289 640.494 54.6289C642.627 54.6289 644.396 55.2676 645.803 56.5449C647.221 57.8223 647.977 59.4805 648.07 61.5195H644.994C644.9 60.2891 644.432 59.2812 643.588 58.4961C642.756 57.6992 641.725 57.3008 640.494 57.3008C638.842 57.3008 637.559 57.8984 636.645 59.0938C635.742 60.2773 635.291 61.9941 635.291 64.2441V64.8594C635.291 67.0508 635.742 68.7383 636.645 69.9219C637.547 71.1055 638.836 71.6973 640.512 71.6973Z" fill="white"/>
<path d="M650.865 64.3145C650.865 62.4512 651.229 60.7754 651.955 59.2871C652.693 57.7988 653.713 56.6504 655.014 55.8418C656.326 55.0332 657.82 54.6289 659.496 54.6289C662.086 54.6289 664.178 55.5254 665.771 57.3184C667.377 59.1113 668.18 61.4961 668.18 64.4727V64.7012C668.18 66.5527 667.822 68.2168 667.107 69.6934C666.404 71.1582 665.391 72.3008 664.066 73.1211C662.754 73.9414 661.242 74.3516 659.531 74.3516C656.953 74.3516 654.861 73.4551 653.256 71.6621C651.662 69.8691 650.865 67.4961 650.865 64.543V64.3145ZM654.135 64.7012C654.135 66.8105 654.621 68.5039 655.594 69.7812C656.578 71.0586 657.891 71.6973 659.531 71.6973C661.184 71.6973 662.496 71.0527 663.469 69.7637C664.441 68.4629 664.928 66.6465 664.928 64.3145C664.928 62.2285 664.43 60.541 663.434 59.252C662.449 57.9512 661.137 57.3008 659.496 57.3008C657.891 57.3008 656.596 57.9395 655.611 59.2168C654.627 60.4941 654.135 62.3223 654.135 64.7012Z" fill="white"/>
<path d="M675.334 54.9805L675.439 57.3711C676.893 55.543 678.791 54.6289 681.135 54.6289C685.154 54.6289 687.182 56.8965 687.217 61.4316V74H683.965V61.4141C683.953 60.043 683.637 59.0293 683.016 58.373C682.406 57.7168 681.451 57.3887 680.15 57.3887C679.096 57.3887 678.17 57.6699 677.373 58.2324C676.576 58.7949 675.955 59.5332 675.51 60.4473V74H672.258V54.9805H675.334Z" fill="white"/>
<path d="M703.195 68.9551C703.195 68.0762 702.861 67.3965 702.193 66.916C701.537 66.4238 700.383 66.002 698.73 65.6504C697.09 65.2988 695.783 64.877 694.811 64.3848C693.85 63.8926 693.135 63.3066 692.666 62.627C692.209 61.9473 691.98 61.1387 691.98 60.2012C691.98 58.6426 692.637 57.3242 693.949 56.2461C695.273 55.168 696.961 54.6289 699.012 54.6289C701.168 54.6289 702.914 55.1855 704.25 56.2988C705.598 57.4121 706.271 58.8359 706.271 60.5703H703.002C703.002 59.6797 702.621 58.9121 701.859 58.2676C701.109 57.623 700.16 57.3008 699.012 57.3008C697.828 57.3008 696.902 57.5586 696.234 58.0742C695.566 58.5898 695.232 59.2637 695.232 60.0957C695.232 60.8809 695.543 61.4727 696.164 61.8711C696.785 62.2695 697.904 62.6504 699.521 63.0137C701.15 63.377 702.469 63.8105 703.477 64.3145C704.484 64.8184 705.229 65.4277 705.709 66.1426C706.201 66.8457 706.447 67.707 706.447 68.7266C706.447 70.4258 705.768 71.791 704.408 72.8223C703.049 73.8418 701.285 74.3516 699.117 74.3516C697.594 74.3516 696.246 74.082 695.074 73.543C693.902 73.0039 692.982 72.2539 692.314 71.293C691.658 70.3203 691.33 69.2715 691.33 68.1465H694.582C694.641 69.2363 695.074 70.1035 695.883 70.748C696.703 71.3809 697.781 71.6973 699.117 71.6973C700.348 71.6973 701.332 71.4512 702.07 70.959C702.82 70.4551 703.195 69.7871 703.195 68.9551Z" fill="white"/>
<path d="M718.576 74.3516C715.998 74.3516 713.9 73.5078 712.283 71.8203C710.666 70.1211 709.857 67.8535 709.857 65.0176V64.4199C709.857 62.5332 710.215 60.8516 710.93 59.375C711.656 57.8867 712.664 56.7266 713.953 55.8945C715.254 55.0508 716.66 54.6289 718.172 54.6289C720.645 54.6289 722.566 55.4434 723.938 57.0723C725.309 58.7012 725.994 61.0332 725.994 64.0684V65.4219H713.109C713.156 67.2969 713.701 68.8145 714.744 69.9746C715.799 71.123 717.135 71.6973 718.752 71.6973C719.9 71.6973 720.873 71.4629 721.67 70.9941C722.467 70.5254 723.164 69.9043 723.762 69.1309L725.748 70.6777C724.154 73.127 721.764 74.3516 718.576 74.3516ZM718.172 57.3008C716.859 57.3008 715.758 57.7812 714.867 58.7422C713.977 59.6914 713.426 61.0273 713.215 62.75H722.742V62.5039C722.648 60.8516 722.203 59.5742 721.406 58.6719C720.609 57.7578 719.531 57.3008 718.172 57.3008Z" fill="white"/>
<path d="M737.402 71.6973C738.562 71.6973 739.576 71.3457 740.443 70.6426C741.311 69.9395 741.791 69.0605 741.885 68.0059H744.961C744.902 69.0957 744.527 70.1328 743.836 71.1172C743.145 72.1016 742.219 72.8867 741.059 73.4727C739.91 74.0586 738.691 74.3516 737.402 74.3516C734.812 74.3516 732.75 73.4902 731.215 71.7676C729.691 70.0332 728.93 67.666 728.93 64.666V64.1211C728.93 62.2695 729.27 60.623 729.949 59.1816C730.629 57.7402 731.602 56.6211 732.867 55.8242C734.145 55.0273 735.65 54.6289 737.385 54.6289C739.518 54.6289 741.287 55.2676 742.693 56.5449C744.111 57.8223 744.867 59.4805 744.961 61.5195H741.885C741.791 60.2891 741.322 59.2812 740.479 58.4961C739.646 57.6992 738.615 57.3008 737.385 57.3008C735.732 57.3008 734.449 57.8984 733.535 59.0938C732.633 60.2773 732.182 61.9941 732.182 64.2441V64.8594C732.182 67.0508 732.633 68.7383 733.535 69.9219C734.438 71.1055 735.727 71.6973 737.402 71.6973Z" fill="white"/>
<path d="M760.359 72.1191C759.094 73.6074 757.236 74.3516 754.787 74.3516C752.76 74.3516 751.213 73.7656 750.146 72.5938C749.092 71.4102 748.559 69.6641 748.547 67.3555V54.9805H751.799V67.2676C751.799 70.1504 752.971 71.5918 755.314 71.5918C757.799 71.5918 759.451 70.666 760.271 68.8145V54.9805H763.523V74H760.43L760.359 72.1191Z" fill="white"/>
<path d="M772.893 50.375V54.9805H776.443V57.4941H772.893V69.2891C772.893 70.0508 773.051 70.625 773.367 71.0117C773.684 71.3867 774.223 71.5742 774.984 71.5742C775.359 71.5742 775.875 71.5039 776.531 71.3633V74C775.676 74.2344 774.844 74.3516 774.035 74.3516C772.582 74.3516 771.486 73.9121 770.748 73.0332C770.01 72.1543 769.641 70.9062 769.641 69.2891V57.4941H766.178V54.9805H769.641V50.375H772.893Z" fill="white"/>
<path d="M783.791 74H780.539V54.9805H783.791V74ZM780.275 49.9355C780.275 49.4082 780.434 48.9629 780.75 48.5996C781.078 48.2363 781.559 48.0547 782.191 48.0547C782.824 48.0547 783.305 48.2363 783.633 48.5996C783.961 48.9629 784.125 49.4082 784.125 49.9355C784.125 50.4629 783.961 50.9023 783.633 51.2539C783.305 51.6055 782.824 51.7812 782.191 51.7812C781.559 51.7812 781.078 51.6055 780.75 51.2539C780.434 50.9023 780.275 50.4629 780.275 49.9355Z" fill="white"/>
<path d="M795.287 69.5879L799.998 54.9805H803.32L796.5 74H794.021L787.131 54.9805H790.453L795.287 69.5879Z" fill="white"/>
<path d="M805.307 64.3145C805.307 62.4512 805.67 60.7754 806.396 59.2871C807.135 57.7988 808.154 56.6504 809.455 55.8418C810.768 55.0332 812.262 54.6289 813.938 54.6289C816.527 54.6289 818.619 55.5254 820.213 57.3184C821.818 59.1113 822.621 61.4961 822.621 64.4727V64.7012C822.621 66.5527 822.264 68.2168 821.549 69.6934C820.846 71.1582 819.832 72.3008 818.508 73.1211C817.195 73.9414 815.684 74.3516 813.973 74.3516C811.395 74.3516 809.303 73.4551 807.697 71.6621C806.104 69.8691 805.307 67.4961 805.307 64.543V64.3145ZM808.576 64.7012C808.576 66.8105 809.062 68.5039 810.035 69.7812C811.02 71.0586 812.332 71.6973 813.973 71.6973C815.625 71.6973 816.938 71.0527 817.91 69.7637C818.883 68.4629 819.369 66.6465 819.369 64.3145C819.369 62.2285 818.871 60.541 817.875 59.252C816.891 57.9512 815.578 57.3008 813.938 57.3008C812.332 57.3008 811.037 57.9395 810.053 59.2168C809.068 60.4941 808.576 62.3223 808.576 64.7012Z" fill="white"/>
<path d="M837.773 68.9551C837.773 68.0762 837.439 67.3965 836.771 66.916C836.115 66.4238 834.961 66.002 833.309 65.6504C831.668 65.2988 830.361 64.877 829.389 64.3848C828.428 63.8926 827.713 63.3066 827.244 62.627C826.787 61.9473 826.559 61.1387 826.559 60.2012C826.559 58.6426 827.215 57.3242 828.527 56.2461C829.852 55.168 831.539 54.6289 833.59 54.6289C835.746 54.6289 837.492 55.1855 838.828 56.2988C840.176 57.4121 840.85 58.8359 840.85 60.5703H837.58C837.58 59.6797 837.199 58.9121 836.438 58.2676C835.688 57.623 834.738 57.3008 833.59 57.3008C832.406 57.3008 831.48 57.5586 830.812 58.0742C830.145 58.5898 829.811 59.2637 829.811 60.0957C829.811 60.8809 830.121 61.4727 830.742 61.8711C831.363 62.2695 832.482 62.6504 834.1 63.0137C835.729 63.377 837.047 63.8105 838.055 64.3145C839.062 64.8184 839.807 65.4277 840.287 66.1426C840.779 66.8457 841.025 67.707 841.025 68.7266C841.025 70.4258 840.346 71.791 838.986 72.8223C837.627 73.8418 835.863 74.3516 833.695 74.3516C832.172 74.3516 830.824 74.082 829.652 73.543C828.48 73.0039 827.561 72.2539 826.893 71.293C826.236 70.3203 825.908 69.2715 825.908 68.1465H829.16C829.219 69.2363 829.652 70.1035 830.461 70.748C831.281 71.3809 832.359 71.6973 833.695 71.6973C834.926 71.6973 835.91 71.4512 836.648 70.959C837.398 70.4551 837.773 69.7871 837.773 68.9551Z" fill="white"/>
<path d="M862.084 74.3516C859.506 74.3516 857.408 73.5078 855.791 71.8203C854.174 70.1211 853.365 67.8535 853.365 65.0176V64.4199C853.365 62.5332 853.723 60.8516 854.438 59.375C855.164 57.8867 856.172 56.7266 857.461 55.8945C858.762 55.0508 860.168 54.6289 861.68 54.6289C864.152 54.6289 866.074 55.4434 867.445 57.0723C868.816 58.7012 869.502 61.0332 869.502 64.0684V65.4219H856.617C856.664 67.2969 857.209 68.8145 858.252 69.9746C859.307 71.123 860.643 71.6973 862.26 71.6973C863.408 71.6973 864.381 71.4629 865.178 70.9941C865.975 70.5254 866.672 69.9043 867.27 69.1309L869.256 70.6777C867.662 73.127 865.271 74.3516 862.084 74.3516ZM861.68 57.3008C860.367 57.3008 859.266 57.7812 858.375 58.7422C857.484 59.6914 856.934 61.0273 856.723 62.75H866.25V62.5039C866.156 60.8516 865.711 59.5742 864.914 58.6719C864.117 57.7578 863.039 57.3008 861.68 57.3008Z" fill="white"/>
<path d="M884.355 68.9551C884.355 68.0762 884.021 67.3965 883.354 66.916C882.697 66.4238 881.543 66.002 879.891 65.6504C878.25 65.2988 876.943 64.877 875.971 64.3848C875.01 63.8926 874.295 63.3066 873.826 62.627C873.369 61.9473 873.141 61.1387 873.141 60.2012C873.141 58.6426 873.797 57.3242 875.109 56.2461C876.434 55.168 878.121 54.6289 880.172 54.6289C882.328 54.6289 884.074 55.1855 885.41 56.2988C886.758 57.4121 887.432 58.8359 887.432 60.5703H884.162C884.162 59.6797 883.781 58.9121 883.02 58.2676C882.27 57.623 881.32 57.3008 880.172 57.3008C878.988 57.3008 878.062 57.5586 877.395 58.0742C876.727 58.5898 876.393 59.2637 876.393 60.0957C876.393 60.8809 876.703 61.4727 877.324 61.8711C877.945 62.2695 879.064 62.6504 880.682 63.0137C882.311 63.377 883.629 63.8105 884.637 64.3145C885.645 64.8184 886.389 65.4277 886.869 66.1426C887.361 66.8457 887.607 67.707 887.607 68.7266C887.607 70.4258 886.928 71.791 885.568 72.8223C884.209 73.8418 882.445 74.3516 880.277 74.3516C878.754 74.3516 877.406 74.082 876.234 73.543C875.062 73.0039 874.143 72.2539 873.475 71.293C872.818 70.3203 872.49 69.2715 872.49 68.1465H875.742C875.801 69.2363 876.234 70.1035 877.043 70.748C877.863 71.3809 878.941 71.6973 880.277 71.6973C881.508 71.6973 882.492 71.4512 883.23 70.959C883.98 70.4551 884.355 69.7871 884.355 68.9551Z" fill="white"/>
<path d="M131.59 104.75C130.91 105.559 130.096 106.209 129.146 106.701C128.209 107.193 127.178 107.439 126.053 107.439C124.576 107.439 123.287 107.076 122.186 106.35C121.096 105.623 120.252 104.604 119.654 103.291C119.057 101.967 118.758 100.508 118.758 98.9141C118.758 97.2031 119.08 95.6621 119.725 94.291C120.381 92.9199 121.307 91.8711 122.502 91.1445C123.697 90.418 125.092 90.0547 126.686 90.0547C129.217 90.0547 131.209 91.0039 132.662 92.9023C134.127 94.7891 134.859 97.3672 134.859 100.637V101.586C134.859 106.566 133.875 110.205 131.906 112.502C129.938 114.787 126.967 115.959 122.994 116.018H122.361V113.275H123.047C125.73 113.229 127.793 112.531 129.234 111.184C130.676 109.824 131.461 107.68 131.59 104.75ZM126.58 104.75C127.67 104.75 128.672 104.416 129.586 103.748C130.512 103.08 131.186 102.254 131.607 101.27V99.9688C131.607 97.8359 131.145 96.1016 130.219 94.7656C129.293 93.4297 128.121 92.7617 126.703 92.7617C125.273 92.7617 124.125 93.3125 123.258 94.4141C122.391 95.5039 121.957 96.9453 121.957 98.7383C121.957 100.484 122.373 101.926 123.205 103.062C124.049 104.188 125.174 104.75 126.58 104.75Z" fill="white"/>
<path d="M155.391 105.084C155.391 108.893 154.74 111.723 153.439 113.574C152.139 115.426 150.105 116.352 147.34 116.352C144.609 116.352 142.588 115.449 141.275 113.645C139.963 111.828 139.283 109.121 139.236 105.523V101.182C139.236 97.4199 139.887 94.625 141.188 92.7969C142.488 90.9688 144.527 90.0547 147.305 90.0547C150.059 90.0547 152.086 90.9395 153.387 92.709C154.688 94.4668 155.355 97.1855 155.391 100.865V105.084ZM152.139 100.637C152.139 97.8828 151.752 95.8789 150.979 94.625C150.205 93.3594 148.98 92.7266 147.305 92.7266C145.641 92.7266 144.428 93.3535 143.666 94.6074C142.904 95.8613 142.512 97.7891 142.488 100.391V105.594C142.488 108.359 142.887 110.404 143.684 111.729C144.492 113.041 145.711 113.697 147.34 113.697C148.945 113.697 150.135 113.076 150.908 111.834C151.693 110.592 152.104 108.635 152.139 105.963V100.637Z" fill="white"/>
<path d="M159.961 114.295C159.961 113.732 160.125 113.264 160.453 112.889C160.793 112.514 161.297 112.326 161.965 112.326C162.633 112.326 163.137 112.514 163.477 112.889C163.828 113.264 164.004 113.732 164.004 114.295C164.004 114.834 163.828 115.285 163.477 115.648C163.137 116.012 162.633 116.193 161.965 116.193C161.297 116.193 160.793 116.012 160.453 115.648C160.125 115.285 159.961 114.834 159.961 114.295Z" fill="white"/>
<path d="M178.822 116V90.4062H186.047C188.273 90.4062 190.242 90.8984 191.953 91.8828C193.664 92.8672 194.982 94.2676 195.908 96.084C196.846 97.9004 197.32 99.9863 197.332 102.342V103.977C197.332 106.391 196.863 108.506 195.926 110.322C195 112.139 193.67 113.533 191.936 114.506C190.213 115.479 188.203 115.977 185.906 116H178.822ZM182.197 93.1836V113.24H185.748C188.35 113.24 190.371 112.432 191.812 110.814C193.266 109.197 193.992 106.895 193.992 103.906V102.412C193.992 99.5059 193.307 97.25 191.936 95.6445C190.576 94.0273 188.643 93.207 186.135 93.1836H182.197Z" fill="white"/>
<path d="M209.83 116.352C207.252 116.352 205.154 115.508 203.537 113.82C201.92 112.121 201.111 109.854 201.111 107.018V106.42C201.111 104.533 201.469 102.852 202.184 101.375C202.91 99.8867 203.918 98.7266 205.207 97.8945C206.508 97.0508 207.914 96.6289 209.426 96.6289C211.898 96.6289 213.82 97.4434 215.191 99.0723C216.562 100.701 217.248 103.033 217.248 106.068V107.422H204.363C204.41 109.297 204.955 110.814 205.998 111.975C207.053 113.123 208.389 113.697 210.006 113.697C211.154 113.697 212.127 113.463 212.924 112.994C213.721 112.525 214.418 111.904 215.016 111.131L217.002 112.678C215.408 115.127 213.018 116.352 209.83 116.352ZM209.426 99.3008C208.113 99.3008 207.012 99.7812 206.121 100.742C205.23 101.691 204.68 103.027 204.469 104.75H213.996V104.504C213.902 102.852 213.457 101.574 212.66 100.672C211.863 99.7578 210.785 99.3008 209.426 99.3008Z" fill="white"/>
<path d="M225.439 92.375V96.9805H228.99V99.4941H225.439V111.289C225.439 112.051 225.598 112.625 225.914 113.012C226.23 113.387 226.77 113.574 227.531 113.574C227.906 113.574 228.422 113.504 229.078 113.363V116C228.223 116.234 227.391 116.352 226.582 116.352C225.129 116.352 224.033 115.912 223.295 115.033C222.557 114.154 222.188 112.906 222.188 111.289V99.4941H218.725V96.9805H222.188V92.375H225.439Z" fill="white"/>
<path d="M240.697 116.352C238.119 116.352 236.021 115.508 234.404 113.82C232.787 112.121 231.979 109.854 231.979 107.018V106.42C231.979 104.533 232.336 102.852 233.051 101.375C233.777 99.8867 234.785 98.7266 236.074 97.8945C237.375 97.0508 238.781 96.6289 240.293 96.6289C242.766 96.6289 244.688 97.4434 246.059 99.0723C247.43 100.701 248.115 103.033 248.115 106.068V107.422H235.23C235.277 109.297 235.822 110.814 236.865 111.975C237.92 113.123 239.256 113.697 240.873 113.697C242.021 113.697 242.994 113.463 243.791 112.994C244.588 112.525 245.285 111.904 245.883 111.131L247.869 112.678C246.275 115.127 243.885 116.352 240.697 116.352ZM240.293 99.3008C238.98 99.3008 237.879 99.7812 236.988 100.742C236.098 101.691 235.547 103.027 235.336 104.75H244.863V104.504C244.77 102.852 244.324 101.574 243.527 100.672C242.73 99.7578 241.652 99.3008 240.293 99.3008Z" fill="white"/>
<path d="M261.088 99.8984C260.596 99.8164 260.062 99.7754 259.488 99.7754C257.355 99.7754 255.908 100.684 255.146 102.5V116H251.895V96.9805H255.059L255.111 99.1777C256.178 97.4785 257.689 96.6289 259.646 96.6289C260.279 96.6289 260.76 96.7109 261.088 96.875V99.8984Z" fill="white"/>
<path d="M267.152 96.9805L267.24 99.0898C268.635 97.4492 270.516 96.6289 272.883 96.6289C275.543 96.6289 277.354 97.6484 278.314 99.6875C278.947 98.7734 279.768 98.0352 280.775 97.4727C281.795 96.9102 282.996 96.6289 284.379 96.6289C288.551 96.6289 290.672 98.8379 290.742 103.256V116H287.49V103.449C287.49 102.09 287.18 101.076 286.559 100.408C285.938 99.7285 284.895 99.3887 283.43 99.3887C282.223 99.3887 281.221 99.752 280.424 100.479C279.627 101.193 279.164 102.16 279.035 103.379V116H275.766V103.537C275.766 100.771 274.412 99.3887 271.705 99.3887C269.572 99.3887 268.113 100.297 267.328 102.113V116H264.076V96.9805H267.152Z" fill="white"/>
<path d="M299.197 116H295.945V96.9805H299.197V116ZM295.682 91.9355C295.682 91.4082 295.84 90.9629 296.156 90.5996C296.484 90.2363 296.965 90.0547 297.598 90.0547C298.23 90.0547 298.711 90.2363 299.039 90.5996C299.367 90.9629 299.531 91.4082 299.531 91.9355C299.531 92.4629 299.367 92.9023 299.039 93.2539C298.711 93.6055 298.23 93.7812 297.598 93.7812C296.965 93.7812 296.484 93.6055 296.156 93.2539C295.84 92.9023 295.682 92.4629 295.682 91.9355Z" fill="white"/>
<path d="M307.494 96.9805L307.6 99.3711C309.053 97.543 310.951 96.6289 313.295 96.6289C317.314 96.6289 319.342 98.8965 319.377 103.432V116H316.125V103.414C316.113 102.043 315.797 101.029 315.176 100.373C314.566 99.7168 313.611 99.3887 312.311 99.3887C311.256 99.3887 310.33 99.6699 309.533 100.232C308.736 100.795 308.115 101.533 307.67 102.447V116H304.418V96.9805H307.494Z" fill="white"/>
<path d="M336.023 116C335.836 115.625 335.684 114.957 335.566 113.996C334.055 115.566 332.25 116.352 330.152 116.352C328.277 116.352 326.736 115.824 325.529 114.77C324.334 113.703 323.736 112.355 323.736 110.727C323.736 108.746 324.486 107.211 325.986 106.121C327.498 105.02 329.619 104.469 332.35 104.469H335.514V102.975C335.514 101.838 335.174 100.936 334.494 100.268C333.814 99.5879 332.812 99.248 331.488 99.248C330.328 99.248 329.355 99.541 328.57 100.127C327.785 100.713 327.393 101.422 327.393 102.254H324.123C324.123 101.305 324.457 100.391 325.125 99.5117C325.805 98.6211 326.719 97.918 327.867 97.4023C329.027 96.8867 330.299 96.6289 331.682 96.6289C333.873 96.6289 335.59 97.1797 336.832 98.2812C338.074 99.3711 338.719 100.877 338.766 102.799V111.553C338.766 113.299 338.988 114.688 339.434 115.719V116H336.023ZM330.627 113.521C331.646 113.521 332.613 113.258 333.527 112.73C334.441 112.203 335.104 111.518 335.514 110.674V106.771H332.965C328.98 106.771 326.988 107.938 326.988 110.27C326.988 111.289 327.328 112.086 328.008 112.66C328.688 113.234 329.561 113.521 330.627 113.521Z" fill="white"/>
<path d="M360.686 116.352C358.107 116.352 356.01 115.508 354.393 113.82C352.775 112.121 351.967 109.854 351.967 107.018V106.42C351.967 104.533 352.324 102.852 353.039 101.375C353.766 99.8867 354.773 98.7266 356.062 97.8945C357.363 97.0508 358.77 96.6289 360.281 96.6289C362.754 96.6289 364.676 97.4434 366.047 99.0723C367.418 100.701 368.104 103.033 368.104 106.068V107.422H355.219C355.266 109.297 355.811 110.814 356.854 111.975C357.908 113.123 359.244 113.697 360.861 113.697C362.01 113.697 362.982 113.463 363.779 112.994C364.576 112.525 365.273 111.904 365.871 111.131L367.857 112.678C366.264 115.127 363.873 116.352 360.686 116.352ZM360.281 99.3008C358.969 99.3008 357.867 99.7812 356.977 100.742C356.086 101.691 355.535 103.027 355.324 104.75H364.852V104.504C364.758 102.852 364.312 101.574 363.516 100.672C362.719 99.7578 361.641 99.3008 360.281 99.3008Z" fill="white"/>
<path d="M375.416 116H372.164V89H375.416V116Z" fill="white"/>
<path d="M392.643 96.9805L392.748 99.3711C394.201 97.543 396.1 96.6289 398.443 96.6289C402.463 96.6289 404.49 98.8965 404.525 103.432V116H401.273V103.414C401.262 102.043 400.945 101.029 400.324 100.373C399.715 99.7168 398.76 99.3887 397.459 99.3887C396.404 99.3887 395.479 99.6699 394.682 100.232C393.885 100.795 393.264 101.533 392.818 102.447V116H389.566V96.9805H392.643Z" fill="white"/>
<path d="M421.172 114.119C419.906 115.607 418.049 116.352 415.6 116.352C413.572 116.352 412.025 115.766 410.959 114.594C409.904 113.41 409.371 111.664 409.359 109.355V96.9805H412.611V109.268C412.611 112.15 413.783 113.592 416.127 113.592C418.611 113.592 420.264 112.666 421.084 110.814V96.9805H424.336V116H421.242L421.172 114.119ZM418.535 89H422.473L417.762 94.168H415.143L418.535 89Z" fill="white"/>
<path d="M432.352 96.9805L432.439 99.0898C433.834 97.4492 435.715 96.6289 438.082 96.6289C440.742 96.6289 442.553 97.6484 443.514 99.6875C444.146 98.7734 444.967 98.0352 445.975 97.4727C446.994 96.9102 448.195 96.6289 449.578 96.6289C453.75 96.6289 455.871 98.8379 455.941 103.256V116H452.689V103.449C452.689 102.09 452.379 101.076 451.758 100.408C451.137 99.7285 450.094 99.3887 448.629 99.3887C447.422 99.3887 446.42 99.752 445.623 100.479C444.826 101.193 444.363 102.16 444.234 103.379V116H440.965V103.537C440.965 100.771 439.611 99.3887 436.904 99.3887C434.771 99.3887 433.312 100.297 432.527 102.113V116H429.275V96.9805H432.352Z" fill="white"/>
<path d="M468.756 116.352C466.178 116.352 464.08 115.508 462.463 113.82C460.846 112.121 460.037 109.854 460.037 107.018V106.42C460.037 104.533 460.395 102.852 461.109 101.375C461.836 99.8867 462.844 98.7266 464.133 97.8945C465.434 97.0508 466.84 96.6289 468.352 96.6289C470.824 96.6289 472.746 97.4434 474.117 99.0723C475.488 100.701 476.174 103.033 476.174 106.068V107.422H463.289C463.336 109.297 463.881 110.814 464.924 111.975C465.979 113.123 467.314 113.697 468.932 113.697C470.08 113.697 471.053 113.463 471.85 112.994C472.646 112.525 473.344 111.904 473.941 111.131L475.928 112.678C474.334 115.127 471.943 116.352 468.756 116.352ZM468.352 99.3008C467.039 99.3008 465.938 99.7812 465.047 100.742C464.156 101.691 463.605 103.027 463.395 104.75H472.922V104.504C472.828 102.852 472.383 101.574 471.586 100.672C470.789 99.7578 469.711 99.3008 468.352 99.3008Z" fill="white"/>
<path d="M489.146 99.8984C488.654 99.8164 488.121 99.7754 487.547 99.7754C485.414 99.7754 483.967 100.684 483.205 102.5V116H479.953V96.9805H483.117L483.17 99.1777C484.236 97.4785 485.748 96.6289 487.705 96.6289C488.338 96.6289 488.818 96.7109 489.146 96.875V99.8984Z" fill="white"/>
<path d="M490.939 106.314C490.939 104.451 491.303 102.775 492.029 101.287C492.768 99.7988 493.787 98.6504 495.088 97.8418C496.4 97.0332 497.895 96.6289 499.57 96.6289C502.16 96.6289 504.252 97.5254 505.846 99.3184C507.451 101.111 508.254 103.496 508.254 106.473V106.701C508.254 108.553 507.896 110.217 507.182 111.693C506.479 113.158 505.465 114.301 504.141 115.121C502.828 115.941 501.316 116.352 499.605 116.352C497.027 116.352 494.936 115.455 493.33 113.662C491.736 111.869 490.939 109.496 490.939 106.543V106.314ZM494.209 106.701C494.209 108.811 494.695 110.504 495.668 111.781C496.652 113.059 497.965 113.697 499.605 113.697C501.258 113.697 502.57 113.053 503.543 111.764C504.516 110.463 505.002 108.646 505.002 106.314C505.002 104.229 504.504 102.541 503.508 101.252C502.523 99.9512 501.211 99.3008 499.57 99.3008C497.965 99.3008 496.67 99.9395 495.686 101.217C494.701 102.494 494.209 104.322 494.209 106.701Z" fill="white"/>
<path d="M524.32 96.9805L524.408 99.0898C525.803 97.4492 527.684 96.6289 530.051 96.6289C532.711 96.6289 534.521 97.6484 535.482 99.6875C536.115 98.7734 536.936 98.0352 537.943 97.4727C538.963 96.9102 540.164 96.6289 541.547 96.6289C545.719 96.6289 547.84 98.8379 547.91 103.256V116H544.658V103.449C544.658 102.09 544.348 101.076 543.727 100.408C543.105 99.7285 542.062 99.3887 540.598 99.3887C539.391 99.3887 538.389 99.752 537.592 100.479C536.795 101.193 536.332 102.16 536.203 103.379V116H532.934V103.537C532.934 100.771 531.58 99.3887 528.873 99.3887C526.74 99.3887 525.281 100.297 524.496 102.113V116H521.244V96.9805H524.32Z" fill="white"/>
<path d="M560.725 116.352C558.146 116.352 556.049 115.508 554.432 113.82C552.814 112.121 552.006 109.854 552.006 107.018V106.42C552.006 104.533 552.363 102.852 553.078 101.375C553.805 99.8867 554.812 98.7266 556.102 97.8945C557.402 97.0508 558.809 96.6289 560.32 96.6289C562.793 96.6289 564.715 97.4434 566.086 99.0723C567.457 100.701 568.143 103.033 568.143 106.068V107.422H555.258C555.305 109.297 555.85 110.814 556.893 111.975C557.947 113.123 559.283 113.697 560.9 113.697C562.049 113.697 563.021 113.463 563.818 112.994C564.615 112.525 565.312 111.904 565.91 111.131L567.896 112.678C566.303 115.127 563.912 116.352 560.725 116.352ZM560.32 99.3008C559.008 99.3008 557.906 99.7812 557.016 100.742C556.125 101.691 555.574 103.027 555.363 104.75H564.891V104.504C564.797 102.852 564.352 101.574 563.555 100.672C562.758 99.7578 561.68 99.3008 560.32 99.3008Z" fill="white"/>
<path d="M574.998 96.9805L575.104 99.3711C576.557 97.543 578.455 96.6289 580.799 96.6289C584.818 96.6289 586.846 98.8965 586.881 103.432V116H583.629V103.414C583.617 102.043 583.301 101.029 582.68 100.373C582.07 99.7168 581.115 99.3887 579.814 99.3887C578.76 99.3887 577.834 99.6699 577.037 100.232C576.24 100.795 575.619 101.533 575.174 102.447V116H571.922V96.9805H574.998Z" fill="white"/>
<path d="M590.924 106.314C590.924 104.451 591.287 102.775 592.014 101.287C592.752 99.7988 593.771 98.6504 595.072 97.8418C596.385 97.0332 597.879 96.6289 599.555 96.6289C602.145 96.6289 604.236 97.5254 605.83 99.3184C607.436 101.111 608.238 103.496 608.238 106.473V106.701C608.238 108.553 607.881 110.217 607.166 111.693C606.463 113.158 605.449 114.301 604.125 115.121C602.812 115.941 601.301 116.352 599.59 116.352C597.012 116.352 594.92 115.455 593.314 113.662C591.721 111.869 590.924 109.496 590.924 106.543V106.314ZM594.193 106.701C594.193 108.811 594.68 110.504 595.652 111.781C596.637 113.059 597.949 113.697 599.59 113.697C601.242 113.697 602.555 113.053 603.527 111.764C604.5 110.463 604.986 108.646 604.986 106.314C604.986 104.229 604.488 102.541 603.492 101.252C602.508 99.9512 601.195 99.3008 599.555 99.3008C597.949 99.3008 596.654 99.9395 595.67 101.217C594.686 102.494 594.193 104.322 594.193 106.701Z" fill="white"/>
<path d="M621.51 99.8984C621.018 99.8164 620.484 99.7754 619.91 99.7754C617.777 99.7754 616.33 100.684 615.568 102.5V116H612.316V96.9805H615.48L615.533 99.1777C616.6 97.4785 618.111 96.6289 620.068 96.6289C620.701 96.6289 621.182 96.7109 621.51 96.875V99.8984Z" fill="white"/>
<path d="M622.406 114.295C622.406 113.732 622.57 113.264 622.898 112.889C623.238 112.514 623.742 112.326 624.41 112.326C625.078 112.326 625.582 112.514 625.922 112.889C626.273 113.264 626.449 113.732 626.449 114.295C626.449 114.834 626.273 115.285 625.922 115.648C625.582 116.012 625.078 116.193 624.41 116.193C623.742 116.193 623.238 116.012 622.898 115.648C622.57 115.285 622.406 114.834 622.406 114.295Z" fill="white"/>
</g>
</g>
</g>
</svg>
