<svg viewBox="0 0 995 428" fill="none" xmlns="http://www.w3.org/2000/svg">
<g id="0120126">
<g id="claves01">
<path id="Rectangle 4" d="M59 215H275.745L309 255L275.745 295H59V215Z" fill="#E8A1EE" fill-opacity="0.1"/>
<path id="Rectangle 4 (Stroke)" fill-rule="evenodd" clip-rule="evenodd" d="M274.338 218H62V292H274.338L305.099 255L274.338 218ZM275.745 215H59V295H275.745L309 255L275.745 215Z" fill="#E8A1EE"/>
<path id="Rectangle 5" d="M63 325H279.745L313 365L279.745 405H63V325Z" fill="#E8A1EE" fill-opacity="0.1"/>
<path id="Rectangle 5 (Stroke)" fill-rule="evenodd" clip-rule="evenodd" d="M278.338 328H66V402H278.338L309.099 365L278.338 328ZM279.745 325H63V405H279.745L313 365L279.745 325Z" fill="#E8A1EE"/>
<path id="Rectangle 6" d="M399 212H615.745L649 252L615.745 292H399V212Z" fill="#E8A1EE" fill-opacity="0.1"/>
<path id="Rectangle 6 (Stroke)" fill-rule="evenodd" clip-rule="evenodd" d="M614.338 215H402V289H614.338L645.099 252L614.338 215ZM615.745 212H399V292H615.745L649 252L615.745 212Z" fill="#E8A1EE"/>
<path id="Rectangle 7" d="M402 322H618.745L652 362L618.745 402H402V322Z" fill="#E8A1EE" fill-opacity="0.1"/>
<path id="Rectangle 7 (Stroke)" fill-rule="evenodd" clip-rule="evenodd" d="M617.338 325H405V399H617.338L648.099 362L617.338 325ZM618.745 322H402V402H618.745L652 362L618.745 322Z" fill="#E8A1EE"/>
<path id="Rectangle 8" d="M745 271H961.745L995 311L961.745 351H745V271Z" fill="#E8A1EE" fill-opacity="0.1"/>
<path id="Rectangle 8 (Stroke)" fill-rule="evenodd" clip-rule="evenodd" d="M960.338 274H748V348H960.338L991.099 311L960.338 274ZM961.745 271H745V351H961.745L995 311L961.745 271Z" fill="#E8A1EE"/>
<path id="Ellipse 1" d="M100 255C100 277.091 82.0914 295 60 295C37.9086 295 20 277.091 20 255C20 232.909 37.9086 215 60 215C82.0914 215 100 232.909 100 255Z" fill="#E8A1EE"/>
<path id="Ellipse 2" d="M104 365C104 387.091 86.0914 405 64 405C41.9086 405 24 387.091 24 365C24 342.909 41.9086 325 64 325C86.0914 325 104 342.909 104 365Z" fill="#E8A1EE"/>
<path id="Ellipse 3" d="M440 252C440 274.091 422.091 292 400 292C377.909 292 360 274.091 360 252C360 229.909 377.909 212 400 212C422.091 212 440 229.909 440 252Z" fill="#E8A1EE"/>
<path id="Ellipse 4" d="M443 362C443 384.091 425.091 402 403 402C380.909 402 363 384.091 363 362C363 339.909 380.909 322 403 322C425.091 322 443 339.909 443 362Z" fill="#E8A1EE"/>
<path id="Ellipse 5" d="M786 311C786 333.091 768.091 351 746 351C723.909 351 706 333.091 706 311C706 288.909 723.909 271 746 271C768.091 271 786 288.909 786 311Z" fill="#E8A1EE"/>
<path id="A" d="M68.0938 265.406H50.4688L46.7812 276H38.5625L55.75 230.5H62.8438L80.0625 276H71.8125L68.0938 265.406ZM52.6875 259.031H65.875L59.2812 240.156L52.6875 259.031Z" fill="white"/>
<path id="B" d="M47.625 381V335.5H63.2188C68.3646 335.5 72.2812 336.531 74.9688 338.594C77.6562 340.656 79 343.729 79 347.812C79 349.896 78.4375 351.771 77.3125 353.438C76.1875 355.104 74.5417 356.396 72.375 357.312C74.8333 357.979 76.7292 359.24 78.0625 361.094C79.4167 362.927 80.0938 365.135 80.0938 367.719C80.0938 371.99 78.7188 375.271 75.9688 377.562C73.2396 379.854 69.3229 381 64.2188 381H47.625ZM55.5312 360.469V374.688H64.3125C66.7917 374.688 68.7292 374.073 70.125 372.844C71.5208 371.615 72.2188 369.906 72.2188 367.719C72.2188 362.99 69.8021 360.573 64.9688 360.469H55.5312ZM55.5312 354.656H63.2812C65.7396 354.656 67.6562 354.104 69.0312 353C70.4271 351.875 71.125 350.292 71.125 348.25C71.125 346 70.4792 344.375 69.1875 343.375C67.9167 342.375 65.9271 341.875 63.2188 341.875H55.5312V354.656Z" fill="white"/>
<path id="C" d="M417.344 259.188C416.885 264.042 415.094 267.833 411.969 270.562C408.844 273.271 404.688 274.625 399.5 274.625C395.875 274.625 392.677 273.771 389.906 272.062C387.156 270.333 385.031 267.885 383.531 264.719C382.031 261.552 381.25 257.875 381.188 253.688V249.438C381.188 245.146 381.948 241.365 383.469 238.094C384.99 234.823 387.167 232.302 390 230.531C392.854 228.76 396.146 227.875 399.875 227.875C404.896 227.875 408.938 229.24 412 231.969C415.062 234.698 416.844 238.552 417.344 243.531H409.469C409.094 240.26 408.135 237.906 406.594 236.469C405.073 235.01 402.833 234.281 399.875 234.281C396.438 234.281 393.792 235.542 391.938 238.062C390.104 240.562 389.167 244.24 389.125 249.094V253.125C389.125 258.042 390 261.792 391.75 264.375C393.521 266.958 396.104 268.25 399.5 268.25C402.604 268.25 404.938 267.552 406.5 266.156C408.062 264.76 409.052 262.438 409.469 259.188H417.344Z" fill="white"/>
<path id="D" d="M385.625 384V338.5H399.062C403.083 338.5 406.646 339.396 409.75 341.188C412.875 342.979 415.292 345.521 417 348.812C418.708 352.104 419.562 355.875 419.562 360.125V362.406C419.562 366.719 418.698 370.51 416.969 373.781C415.26 377.052 412.812 379.573 409.625 381.344C406.458 383.115 402.823 384 398.719 384H385.625ZM393.531 344.875V377.688H398.688C402.833 377.688 406.01 376.396 408.219 373.812C410.448 371.208 411.583 367.479 411.625 362.625V360.094C411.625 355.156 410.552 351.385 408.406 348.781C406.26 346.177 403.146 344.875 399.062 344.875H393.531Z" fill="white"/>
<path id="E" d="M755.219 312.688H736.531V326.688H758.375V333H728.625V287.5H758.156V293.875H736.531V306.438H755.219V312.688Z" fill="white"/>
<g id="30">
<path d="M157.141 255.828H160.398C162.445 255.797 164.055 255.258 165.227 254.211C166.398 253.164 166.984 251.75 166.984 249.969C166.984 245.969 164.992 243.969 161.008 243.969C159.133 243.969 157.633 244.508 156.508 245.586C155.398 246.648 154.844 248.062 154.844 249.828H150.508C150.508 247.125 151.492 244.883 153.461 243.102C155.445 241.305 157.961 240.406 161.008 240.406C164.227 240.406 166.75 241.258 168.578 242.961C170.406 244.664 171.32 247.031 171.32 250.062C171.32 251.547 170.836 252.984 169.867 254.375C168.914 255.766 167.609 256.805 165.953 257.492C167.828 258.086 169.273 259.07 170.289 260.445C171.32 261.82 171.836 263.5 171.836 265.484C171.836 268.547 170.836 270.977 168.836 272.773C166.836 274.57 164.234 275.469 161.031 275.469C157.828 275.469 155.219 274.602 153.203 272.867C151.203 271.133 150.203 268.844 150.203 266H154.562C154.562 267.797 155.148 269.234 156.32 270.312C157.492 271.391 159.062 271.93 161.031 271.93C163.125 271.93 164.727 271.383 165.836 270.289C166.945 269.195 167.5 267.625 167.5 265.578C167.5 263.594 166.891 262.07 165.672 261.008C164.453 259.945 162.695 259.398 160.398 259.367H157.141V255.828Z" fill="#E8A1EE"/>
<path d="M199.188 260.445C199.188 265.523 198.32 269.297 196.586 271.766C194.852 274.234 192.141 275.469 188.453 275.469C184.812 275.469 182.117 274.266 180.367 271.859C178.617 269.438 177.711 265.828 177.648 261.031V255.242C177.648 250.227 178.516 246.5 180.25 244.062C181.984 241.625 184.703 240.406 188.406 240.406C192.078 240.406 194.781 241.586 196.516 243.945C198.25 246.289 199.141 249.914 199.188 254.82V260.445ZM194.852 254.516C194.852 250.844 194.336 248.172 193.305 246.5C192.273 244.812 190.641 243.969 188.406 243.969C186.188 243.969 184.57 244.805 183.555 246.477C182.539 248.148 182.016 250.719 181.984 254.188V261.125C181.984 264.812 182.516 267.539 183.578 269.305C184.656 271.055 186.281 271.93 188.453 271.93C190.594 271.93 192.18 271.102 193.211 269.445C194.258 267.789 194.805 265.18 194.852 261.617V254.516Z" fill="#E8A1EE"/>
</g>
<g id="20">
<path d="M513.195 267H490.836V263.883L502.648 250.758C504.398 248.773 505.602 247.164 506.258 245.93C506.93 244.68 507.266 243.391 507.266 242.062C507.266 240.281 506.727 238.82 505.648 237.68C504.57 236.539 503.133 235.969 501.336 235.969C499.18 235.969 497.5 236.586 496.297 237.82C495.109 239.039 494.516 240.742 494.516 242.93H490.18C490.18 239.789 491.188 237.25 493.203 235.312C495.234 233.375 497.945 232.406 501.336 232.406C504.508 232.406 507.016 233.242 508.859 234.914C510.703 236.57 511.625 238.781 511.625 241.547C511.625 244.906 509.484 248.906 505.203 253.547L496.062 263.461H513.195V267Z" fill="#E8A1EE"/>
<path d="M539.188 252.445C539.188 257.523 538.32 261.297 536.586 263.766C534.852 266.234 532.141 267.469 528.453 267.469C524.812 267.469 522.117 266.266 520.367 263.859C518.617 261.438 517.711 257.828 517.648 253.031V247.242C517.648 242.227 518.516 238.5 520.25 236.062C521.984 233.625 524.703 232.406 528.406 232.406C532.078 232.406 534.781 233.586 536.516 235.945C538.25 238.289 539.141 241.914 539.188 246.82V252.445ZM534.852 246.516C534.852 242.844 534.336 240.172 533.305 238.5C532.273 236.812 530.641 235.969 528.406 235.969C526.188 235.969 524.57 236.805 523.555 238.477C522.539 240.148 522.016 242.719 521.984 246.188V253.125C521.984 256.812 522.516 259.539 523.578 261.305C524.656 263.055 526.281 263.93 528.453 263.93C530.594 263.93 532.18 263.102 533.211 261.445C534.258 259.789 534.805 257.18 534.852 253.617V246.516Z" fill="#E8A1EE"/>
</g>
<g id="10">
<path d="M505.086 378H500.727V349.102L491.984 352.312V348.375L504.406 343.711H505.086V378Z" fill="#E8A1EE"/>
<path d="M539.188 363.445C539.188 368.523 538.32 372.297 536.586 374.766C534.852 377.234 532.141 378.469 528.453 378.469C524.812 378.469 522.117 377.266 520.367 374.859C518.617 372.438 517.711 368.828 517.648 364.031V358.242C517.648 353.227 518.516 349.5 520.25 347.062C521.984 344.625 524.703 343.406 528.406 343.406C532.078 343.406 534.781 344.586 536.516 346.945C538.25 349.289 539.141 352.914 539.188 357.82V363.445ZM534.852 357.516C534.852 353.844 534.336 351.172 533.305 349.5C532.273 347.812 530.641 346.969 528.406 346.969C526.188 346.969 524.57 347.805 523.555 349.477C522.539 351.148 522.016 353.719 521.984 357.188V364.125C521.984 367.812 522.516 370.539 523.578 372.305C524.656 374.055 526.281 374.93 528.453 374.93C530.594 374.93 532.18 374.102 533.211 372.445C534.258 370.789 534.805 368.18 534.852 364.617V357.516Z" fill="#E8A1EE"/>
</g>
<g id="40">
<path d="M855.141 315.539H859.875V319.078H855.141V327H850.781V319.078H835.242V316.523L850.523 292.875H855.141V315.539ZM840.164 315.539H850.781V298.805L850.266 299.742L840.164 315.539Z" fill="#E8A1EE"/>
<path d="M885.188 312.445C885.188 317.523 884.32 321.297 882.586 323.766C880.852 326.234 878.141 327.469 874.453 327.469C870.812 327.469 868.117 326.266 866.367 323.859C864.617 321.438 863.711 317.828 863.648 313.031V307.242C863.648 302.227 864.516 298.5 866.25 296.062C867.984 293.625 870.703 292.406 874.406 292.406C878.078 292.406 880.781 293.586 882.516 295.945C884.25 298.289 885.141 301.914 885.188 306.82V312.445ZM880.852 306.516C880.852 302.844 880.336 300.172 879.305 298.5C878.273 296.812 876.641 295.969 874.406 295.969C872.188 295.969 870.57 296.805 869.555 298.477C868.539 300.148 868.016 302.719 867.984 306.188V313.125C867.984 316.812 868.516 319.539 869.578 321.305C870.656 323.055 872.281 323.93 874.453 323.93C876.594 323.93 878.18 323.102 879.211 321.445C880.258 319.789 880.805 317.18 880.852 313.617V306.516Z" fill="#E8A1EE"/>
</g>
<g id="60">
<path d="M176.852 347.852V351.531H176.055C172.68 351.594 169.992 352.594 167.992 354.531C165.992 356.469 164.836 359.195 164.523 362.711C166.32 360.648 168.773 359.617 171.883 359.617C174.852 359.617 177.219 360.664 178.984 362.758C180.766 364.852 181.656 367.555 181.656 370.867C181.656 374.383 180.695 377.195 178.773 379.305C176.867 381.414 174.305 382.469 171.086 382.469C167.82 382.469 165.172 381.219 163.141 378.719C161.109 376.203 160.094 372.969 160.094 369.016V367.352C160.094 361.07 161.43 356.273 164.102 352.961C166.789 349.633 170.781 347.93 176.078 347.852H176.852ZM171.156 363.227C169.672 363.227 168.305 363.672 167.055 364.562C165.805 365.453 164.938 366.57 164.453 367.914V369.508C164.453 372.32 165.086 374.586 166.352 376.305C167.617 378.023 169.195 378.883 171.086 378.883C173.039 378.883 174.57 378.164 175.68 376.727C176.805 375.289 177.367 373.406 177.367 371.078C177.367 368.734 176.797 366.844 175.656 365.406C174.531 363.953 173.031 363.227 171.156 363.227Z" fill="#E8A1EE"/>
<path d="M208.188 367.445C208.188 372.523 207.32 376.297 205.586 378.766C203.852 381.234 201.141 382.469 197.453 382.469C193.812 382.469 191.117 381.266 189.367 378.859C187.617 376.438 186.711 372.828 186.648 368.031V362.242C186.648 357.227 187.516 353.5 189.25 351.062C190.984 348.625 193.703 347.406 197.406 347.406C201.078 347.406 203.781 348.586 205.516 350.945C207.25 353.289 208.141 356.914 208.188 361.82V367.445ZM203.852 361.516C203.852 357.844 203.336 355.172 202.305 353.5C201.273 351.812 199.641 350.969 197.406 350.969C195.188 350.969 193.57 351.805 192.555 353.477C191.539 355.148 191.016 357.719 190.984 361.188V368.125C190.984 371.812 191.516 374.539 192.578 376.305C193.656 378.055 195.281 378.93 197.453 378.93C199.594 378.93 201.18 378.102 202.211 376.445C203.258 374.789 203.805 372.18 203.852 368.617V361.516Z" fill="#E8A1EE"/>
</g>
<g id="flecha">
<path id="Rectangle 2" d="M72.2002 331.008L87.482 339.133L45.5004 418.089L30.2186 409.963L72.2002 331.008Z" fill="#1043F5"/>
<path id="Rectangle 1" d="M14 343.904L104 294V351.692L59 334.096L14 343.904Z" fill="#1043F5"/>
<path id="Rectangle 3" d="M18.0386 413.21L33.6657 386.143L50.9364 385.565L35.3092 412.632L18.0386 413.21Z" fill="#1043F5"/>
<path id="Rectangle 4_2" d="M44.0894 427.845L59.7165 400.778L50.9258 385.154L35.2986 412.221L44.0894 427.845Z" fill="#1043F5"/>
</g>
</g>
<g id="enun01">
<path id="Rectangle 1_2" d="M43 0H855.539L924 85.7482L855.539 174H43V0Z" fill="#02071A"/>
<path id="Rectangle 1 (Stroke)" fill-rule="evenodd" clip-rule="evenodd" d="M853.614 4H47V170H853.579L918.91 85.7838L853.614 4ZM855.539 0H43V174H855.539L924 85.7482L855.539 0Z" fill="#E8A1EE"/>
<path id="Ellipse 1_2" d="M100 87C100 114.614 77.6142 137 50 137C22.3858 137 0 114.614 0 87C0 59.3858 22.3858 37 50 37C77.6142 37 100 59.3858 100 87Z" fill="#E8A1EE"/>
<path id="Ellipse 1 (Stroke)" fill-rule="evenodd" clip-rule="evenodd" d="M50 136C77.062 136 99 114.062 99 87C99 59.938 77.062 38 50 38C22.938 38 1 59.938 1 87C1 114.062 22.938 136 50 136ZM50 137C77.6142 137 100 114.614 100 87C100 59.3858 77.6142 37 50 37C22.3858 37 0 59.3858 0 87C0 114.614 22.3858 137 50 137Z" fill="black"/>
<g id="La suma de dos n&#195;&#186;meros es 50 y la diferencia de los mismo es 10. Indica el doble del n&#195;&#186;mero mayor.">
<path d="M115.363 44.2402H127.492V47H111.971V21.4062H115.363V44.2402Z" fill="white"/>
<path d="M142.574 47C142.387 46.625 142.234 45.957 142.117 44.9961C140.605 46.5664 138.801 47.3516 136.703 47.3516C134.828 47.3516 133.287 46.8242 132.08 45.7695C130.885 44.7031 130.287 43.3555 130.287 41.7266C130.287 39.7461 131.037 38.2109 132.537 37.1211C134.049 36.0195 136.17 35.4688 138.9 35.4688H142.064V33.9746C142.064 32.8379 141.725 31.9355 141.045 31.2676C140.365 30.5879 139.363 30.248 138.039 30.248C136.879 30.248 135.906 30.541 135.121 31.127C134.336 31.7129 133.943 32.4219 133.943 33.2539H130.674C130.674 32.3047 131.008 31.3906 131.676 30.5117C132.355 29.6211 133.27 28.918 134.418 28.4023C135.578 27.8867 136.85 27.6289 138.232 27.6289C140.424 27.6289 142.141 28.1797 143.383 29.2812C144.625 30.3711 145.27 31.877 145.316 33.7988V42.5527C145.316 44.2988 145.539 45.6875 145.984 46.7188V47H142.574ZM137.178 44.5215C138.197 44.5215 139.164 44.2578 140.078 43.7305C140.992 43.2031 141.654 42.5176 142.064 41.6738V37.7715H139.516C135.531 37.7715 133.539 38.9375 133.539 41.2695C133.539 42.2891 133.879 43.0859 134.559 43.6602C135.238 44.2344 136.111 44.5215 137.178 44.5215Z" fill="white"/>
<path d="M170.418 41.9551C170.418 41.0762 170.084 40.3965 169.416 39.916C168.76 39.4238 167.605 39.002 165.953 38.6504C164.312 38.2988 163.006 37.877 162.033 37.3848C161.072 36.8926 160.357 36.3066 159.889 35.627C159.432 34.9473 159.203 34.1387 159.203 33.2012C159.203 31.6426 159.859 30.3242 161.172 29.2461C162.496 28.168 164.184 27.6289 166.234 27.6289C168.391 27.6289 170.137 28.1855 171.473 29.2988C172.82 30.4121 173.494 31.8359 173.494 33.5703H170.225C170.225 32.6797 169.844 31.9121 169.082 31.2676C168.332 30.623 167.383 30.3008 166.234 30.3008C165.051 30.3008 164.125 30.5586 163.457 31.0742C162.789 31.5898 162.455 32.2637 162.455 33.0957C162.455 33.8809 162.766 34.4727 163.387 34.8711C164.008 35.2695 165.127 35.6504 166.744 36.0137C168.373 36.377 169.691 36.8105 170.699 37.3145C171.707 37.8184 172.451 38.4277 172.932 39.1426C173.424 39.8457 173.67 40.707 173.67 41.7266C173.67 43.4258 172.99 44.791 171.631 45.8223C170.271 46.8418 168.508 47.3516 166.34 47.3516C164.816 47.3516 163.469 47.082 162.297 46.543C161.125 46.0039 160.205 45.2539 159.537 44.293C158.881 43.3203 158.553 42.2715 158.553 41.1465H161.805C161.863 42.2363 162.297 43.1035 163.105 43.748C163.926 44.3809 165.004 44.6973 166.34 44.6973C167.57 44.6973 168.555 44.4512 169.293 43.959C170.043 43.4551 170.418 42.7871 170.418 41.9551Z" fill="white"/>
<path d="M189.648 45.1191C188.383 46.6074 186.525 47.3516 184.076 47.3516C182.049 47.3516 180.502 46.7656 179.436 45.5938C178.381 44.4102 177.848 42.6641 177.836 40.3555V27.9805H181.088V40.2676C181.088 43.1504 182.26 44.5918 184.604 44.5918C187.088 44.5918 188.74 43.666 189.561 41.8145V27.9805H192.812V47H189.719L189.648 45.1191Z" fill="white"/>
<path d="M200.828 27.9805L200.916 30.0898C202.311 28.4492 204.191 27.6289 206.559 27.6289C209.219 27.6289 211.029 28.6484 211.99 30.6875C212.623 29.7734 213.443 29.0352 214.451 28.4727C215.471 27.9102 216.672 27.6289 218.055 27.6289C222.227 27.6289 224.348 29.8379 224.418 34.2559V47H221.166V34.4492C221.166 33.0898 220.855 32.0762 220.234 31.4082C219.613 30.7285 218.57 30.3887 217.105 30.3887C215.898 30.3887 214.896 30.752 214.1 31.4785C213.303 32.1934 212.84 33.1602 212.711 34.3789V47H209.441V34.5371C209.441 31.7715 208.088 30.3887 205.381 30.3887C203.248 30.3887 201.789 31.2969 201.004 33.1133V47H197.752V27.9805H200.828Z" fill="white"/>
<path d="M241.082 47C240.895 46.625 240.742 45.957 240.625 44.9961C239.113 46.5664 237.309 47.3516 235.211 47.3516C233.336 47.3516 231.795 46.8242 230.588 45.7695C229.393 44.7031 228.795 43.3555 228.795 41.7266C228.795 39.7461 229.545 38.2109 231.045 37.1211C232.557 36.0195 234.678 35.4688 237.408 35.4688H240.572V33.9746C240.572 32.8379 240.232 31.9355 239.553 31.2676C238.873 30.5879 237.871 30.248 236.547 30.248C235.387 30.248 234.414 30.541 233.629 31.127C232.844 31.7129 232.451 32.4219 232.451 33.2539H229.182C229.182 32.3047 229.516 31.3906 230.184 30.5117C230.863 29.6211 231.777 28.918 232.926 28.4023C234.086 27.8867 235.357 27.6289 236.74 27.6289C238.932 27.6289 240.648 28.1797 241.891 29.2812C243.133 30.3711 243.777 31.877 243.824 33.7988V42.5527C243.824 44.2988 244.047 45.6875 244.492 46.7188V47H241.082ZM235.686 44.5215C236.705 44.5215 237.672 44.2578 238.586 43.7305C239.5 43.2031 240.162 42.5176 240.572 41.6738V37.7715H238.023C234.039 37.7715 232.047 38.9375 232.047 41.2695C232.047 42.2891 232.387 43.0859 233.066 43.6602C233.746 44.2344 234.619 44.5215 235.686 44.5215Z" fill="white"/>
<path d="M257.061 37.332C257.061 34.4141 257.752 32.0703 259.135 30.3008C260.518 28.5195 262.328 27.6289 264.566 27.6289C266.793 27.6289 268.557 28.3906 269.857 29.9141V20H273.109V47H270.121L269.963 44.9609C268.662 46.5547 266.852 47.3516 264.531 47.3516C262.328 47.3516 260.529 46.4492 259.135 44.6445C257.752 42.8398 257.061 40.4844 257.061 37.5781V37.332ZM260.312 37.7012C260.312 39.8574 260.758 41.5449 261.648 42.7637C262.539 43.9824 263.77 44.5918 265.34 44.5918C267.402 44.5918 268.908 43.666 269.857 41.8145V33.0781C268.885 31.2852 267.391 30.3887 265.375 30.3887C263.781 30.3887 262.539 31.0039 261.648 32.2344C260.758 33.4648 260.312 35.2871 260.312 37.7012Z" fill="white"/>
<path d="M286.064 47.3516C283.486 47.3516 281.389 46.5078 279.771 44.8203C278.154 43.1211 277.346 40.8535 277.346 38.0176V37.4199C277.346 35.5332 277.703 33.8516 278.418 32.375C279.145 30.8867 280.152 29.7266 281.441 28.8945C282.742 28.0508 284.148 27.6289 285.66 27.6289C288.133 27.6289 290.055 28.4434 291.426 30.0723C292.797 31.7012 293.482 34.0332 293.482 37.0684V38.4219H280.598C280.645 40.2969 281.189 41.8145 282.232 42.9746C283.287 44.123 284.623 44.6973 286.24 44.6973C287.389 44.6973 288.361 44.4629 289.158 43.9941C289.955 43.5254 290.652 42.9043 291.25 42.1309L293.236 43.6777C291.643 46.127 289.252 47.3516 286.064 47.3516ZM285.66 30.3008C284.348 30.3008 283.246 30.7812 282.355 31.7422C281.465 32.6914 280.914 34.0273 280.703 35.75H290.23V35.5039C290.137 33.8516 289.691 32.5742 288.895 31.6719C288.098 30.7578 287.02 30.3008 285.66 30.3008Z" fill="white"/>
<path d="M305.4 37.332C305.4 34.4141 306.092 32.0703 307.475 30.3008C308.857 28.5195 310.668 27.6289 312.906 27.6289C315.133 27.6289 316.896 28.3906 318.197 29.9141V20H321.449V47H318.461L318.303 44.9609C317.002 46.5547 315.191 47.3516 312.871 47.3516C310.668 47.3516 308.869 46.4492 307.475 44.6445C306.092 42.8398 305.4 40.4844 305.4 37.5781V37.332ZM308.652 37.7012C308.652 39.8574 309.098 41.5449 309.988 42.7637C310.879 43.9824 312.109 44.5918 313.68 44.5918C315.742 44.5918 317.248 43.666 318.197 41.8145V33.0781C317.225 31.2852 315.73 30.3887 313.715 30.3887C312.121 30.3887 310.879 31.0039 309.988 32.2344C309.098 33.4648 308.652 35.2871 308.652 37.7012Z" fill="white"/>
<path d="M325.65 37.3145C325.65 35.4512 326.014 33.7754 326.74 32.2871C327.479 30.7988 328.498 29.6504 329.799 28.8418C331.111 28.0332 332.605 27.6289 334.281 27.6289C336.871 27.6289 338.963 28.5254 340.557 30.3184C342.162 32.1113 342.965 34.4961 342.965 37.4727V37.7012C342.965 39.5527 342.607 41.2168 341.893 42.6934C341.189 44.1582 340.176 45.3008 338.852 46.1211C337.539 46.9414 336.027 47.3516 334.316 47.3516C331.738 47.3516 329.646 46.4551 328.041 44.6621C326.447 42.8691 325.65 40.4961 325.65 37.543V37.3145ZM328.92 37.7012C328.92 39.8105 329.406 41.5039 330.379 42.7812C331.363 44.0586 332.676 44.6973 334.316 44.6973C335.969 44.6973 337.281 44.0527 338.254 42.7637C339.227 41.4629 339.713 39.6465 339.713 37.3145C339.713 35.2285 339.215 33.541 338.219 32.252C337.234 30.9512 335.922 30.3008 334.281 30.3008C332.676 30.3008 331.381 30.9395 330.396 32.2168C329.412 33.4941 328.92 35.3223 328.92 37.7012Z" fill="white"/>
<path d="M358.117 41.9551C358.117 41.0762 357.783 40.3965 357.115 39.916C356.459 39.4238 355.305 39.002 353.652 38.6504C352.012 38.2988 350.705 37.877 349.732 37.3848C348.771 36.8926 348.057 36.3066 347.588 35.627C347.131 34.9473 346.902 34.1387 346.902 33.2012C346.902 31.6426 347.559 30.3242 348.871 29.2461C350.195 28.168 351.883 27.6289 353.934 27.6289C356.09 27.6289 357.836 28.1855 359.172 29.2988C360.52 30.4121 361.193 31.8359 361.193 33.5703H357.924C357.924 32.6797 357.543 31.9121 356.781 31.2676C356.031 30.623 355.082 30.3008 353.934 30.3008C352.75 30.3008 351.824 30.5586 351.156 31.0742C350.488 31.5898 350.154 32.2637 350.154 33.0957C350.154 33.8809 350.465 34.4727 351.086 34.8711C351.707 35.2695 352.826 35.6504 354.443 36.0137C356.072 36.377 357.391 36.8105 358.398 37.3145C359.406 37.8184 360.15 38.4277 360.631 39.1426C361.123 39.8457 361.369 40.707 361.369 41.7266C361.369 43.4258 360.689 44.791 359.33 45.8223C357.971 46.8418 356.207 47.3516 354.039 47.3516C352.516 47.3516 351.168 47.082 349.996 46.543C348.824 46.0039 347.904 45.2539 347.236 44.293C346.58 43.3203 346.252 42.2715 346.252 41.1465H349.504C349.562 42.2363 349.996 43.1035 350.805 43.748C351.625 44.3809 352.703 44.6973 354.039 44.6973C355.27 44.6973 356.254 44.4512 356.992 43.959C357.742 43.4551 358.117 42.7871 358.117 41.9551Z" fill="white"/>
<path d="M377.611 27.9805L377.717 30.3711C379.17 28.543 381.068 27.6289 383.412 27.6289C387.432 27.6289 389.459 29.8965 389.494 34.4316V47H386.242V34.4141C386.23 33.043 385.914 32.0293 385.293 31.373C384.684 30.7168 383.729 30.3887 382.428 30.3887C381.373 30.3887 380.447 30.6699 379.65 31.2324C378.854 31.7949 378.232 32.5332 377.787 33.4473V47H374.535V27.9805H377.611Z" fill="white"/>
<path d="M406.141 45.1191C404.875 46.6074 403.018 47.3516 400.568 47.3516C398.541 47.3516 396.994 46.7656 395.928 45.5938C394.873 44.4102 394.34 42.6641 394.328 40.3555V27.9805H397.58V40.2676C397.58 43.1504 398.752 44.5918 401.096 44.5918C403.58 44.5918 405.232 43.666 406.053 41.8145V27.9805H409.305V47H406.211L406.141 45.1191ZM403.504 20H407.441L402.73 25.168H400.111L403.504 20Z" fill="white"/>
<path d="M417.32 27.9805L417.408 30.0898C418.803 28.4492 420.684 27.6289 423.051 27.6289C425.711 27.6289 427.521 28.6484 428.482 30.6875C429.115 29.7734 429.936 29.0352 430.943 28.4727C431.963 27.9102 433.164 27.6289 434.547 27.6289C438.719 27.6289 440.84 29.8379 440.91 34.2559V47H437.658V34.4492C437.658 33.0898 437.348 32.0762 436.727 31.4082C436.105 30.7285 435.062 30.3887 433.598 30.3887C432.391 30.3887 431.389 30.752 430.592 31.4785C429.795 32.1934 429.332 33.1602 429.203 34.3789V47H425.934V34.5371C425.934 31.7715 424.58 30.3887 421.873 30.3887C419.74 30.3887 418.281 31.2969 417.496 33.1133V47H414.244V27.9805H417.32Z" fill="white"/>
<path d="M453.725 47.3516C451.146 47.3516 449.049 46.5078 447.432 44.8203C445.814 43.1211 445.006 40.8535 445.006 38.0176V37.4199C445.006 35.5332 445.363 33.8516 446.078 32.375C446.805 30.8867 447.812 29.7266 449.102 28.8945C450.402 28.0508 451.809 27.6289 453.32 27.6289C455.793 27.6289 457.715 28.4434 459.086 30.0723C460.457 31.7012 461.143 34.0332 461.143 37.0684V38.4219H448.258C448.305 40.2969 448.85 41.8145 449.893 42.9746C450.947 44.123 452.283 44.6973 453.9 44.6973C455.049 44.6973 456.021 44.4629 456.818 43.9941C457.615 43.5254 458.312 42.9043 458.91 42.1309L460.896 43.6777C459.303 46.127 456.912 47.3516 453.725 47.3516ZM453.32 30.3008C452.008 30.3008 450.906 30.7812 450.016 31.7422C449.125 32.6914 448.574 34.0273 448.363 35.75H457.891V35.5039C457.797 33.8516 457.352 32.5742 456.555 31.6719C455.758 30.7578 454.68 30.3008 453.32 30.3008Z" fill="white"/>
<path d="M474.115 30.8984C473.623 30.8164 473.09 30.7754 472.516 30.7754C470.383 30.7754 468.936 31.6836 468.174 33.5V47H464.922V27.9805H468.086L468.139 30.1777C469.205 28.4785 470.717 27.6289 472.674 27.6289C473.307 27.6289 473.787 27.7109 474.115 27.875V30.8984Z" fill="white"/>
<path d="M475.908 37.3145C475.908 35.4512 476.271 33.7754 476.998 32.2871C477.736 30.7988 478.756 29.6504 480.057 28.8418C481.369 28.0332 482.863 27.6289 484.539 27.6289C487.129 27.6289 489.221 28.5254 490.814 30.3184C492.42 32.1113 493.223 34.4961 493.223 37.4727V37.7012C493.223 39.5527 492.865 41.2168 492.15 42.6934C491.447 44.1582 490.434 45.3008 489.109 46.1211C487.797 46.9414 486.285 47.3516 484.574 47.3516C481.996 47.3516 479.904 46.4551 478.299 44.6621C476.705 42.8691 475.908 40.4961 475.908 37.543V37.3145ZM479.178 37.7012C479.178 39.8105 479.664 41.5039 480.637 42.7812C481.621 44.0586 482.934 44.6973 484.574 44.6973C486.227 44.6973 487.539 44.0527 488.512 42.7637C489.484 41.4629 489.971 39.6465 489.971 37.3145C489.971 35.2285 489.473 33.541 488.477 32.252C487.492 30.9512 486.18 30.3008 484.539 30.3008C482.934 30.3008 481.639 30.9395 480.654 32.2168C479.67 33.4941 479.178 35.3223 479.178 37.7012Z" fill="white"/>
<path d="M508.375 41.9551C508.375 41.0762 508.041 40.3965 507.373 39.916C506.717 39.4238 505.562 39.002 503.91 38.6504C502.27 38.2988 500.963 37.877 499.99 37.3848C499.029 36.8926 498.314 36.3066 497.846 35.627C497.389 34.9473 497.16 34.1387 497.16 33.2012C497.16 31.6426 497.816 30.3242 499.129 29.2461C500.453 28.168 502.141 27.6289 504.191 27.6289C506.348 27.6289 508.094 28.1855 509.43 29.2988C510.777 30.4121 511.451 31.8359 511.451 33.5703H508.182C508.182 32.6797 507.801 31.9121 507.039 31.2676C506.289 30.623 505.34 30.3008 504.191 30.3008C503.008 30.3008 502.082 30.5586 501.414 31.0742C500.746 31.5898 500.412 32.2637 500.412 33.0957C500.412 33.8809 500.723 34.4727 501.344 34.8711C501.965 35.2695 503.084 35.6504 504.701 36.0137C506.33 36.377 507.648 36.8105 508.656 37.3145C509.664 37.8184 510.408 38.4277 510.889 39.1426C511.381 39.8457 511.627 40.707 511.627 41.7266C511.627 43.4258 510.947 44.791 509.588 45.8223C508.229 46.8418 506.465 47.3516 504.297 47.3516C502.773 47.3516 501.426 47.082 500.254 46.543C499.082 46.0039 498.162 45.2539 497.494 44.293C496.838 43.3203 496.51 42.2715 496.51 41.1465H499.762C499.82 42.2363 500.254 43.1035 501.062 43.748C501.883 44.3809 502.961 44.6973 504.297 44.6973C505.527 44.6973 506.512 44.4512 507.25 43.959C508 43.4551 508.375 42.7871 508.375 41.9551Z" fill="white"/>
<path d="M532.686 47.3516C530.107 47.3516 528.01 46.5078 526.393 44.8203C524.775 43.1211 523.967 40.8535 523.967 38.0176V37.4199C523.967 35.5332 524.324 33.8516 525.039 32.375C525.766 30.8867 526.773 29.7266 528.062 28.8945C529.363 28.0508 530.77 27.6289 532.281 27.6289C534.754 27.6289 536.676 28.4434 538.047 30.0723C539.418 31.7012 540.104 34.0332 540.104 37.0684V38.4219H527.219C527.266 40.2969 527.811 41.8145 528.854 42.9746C529.908 44.123 531.244 44.6973 532.861 44.6973C534.01 44.6973 534.982 44.4629 535.779 43.9941C536.576 43.5254 537.273 42.9043 537.871 42.1309L539.857 43.6777C538.264 46.127 535.873 47.3516 532.686 47.3516ZM532.281 30.3008C530.969 30.3008 529.867 30.7812 528.977 31.7422C528.086 32.6914 527.535 34.0273 527.324 35.75H536.852V35.5039C536.758 33.8516 536.312 32.5742 535.516 31.6719C534.719 30.7578 533.641 30.3008 532.281 30.3008Z" fill="white"/>
<path d="M554.957 41.9551C554.957 41.0762 554.623 40.3965 553.955 39.916C553.299 39.4238 552.145 39.002 550.492 38.6504C548.852 38.2988 547.545 37.877 546.572 37.3848C545.611 36.8926 544.896 36.3066 544.428 35.627C543.971 34.9473 543.742 34.1387 543.742 33.2012C543.742 31.6426 544.398 30.3242 545.711 29.2461C547.035 28.168 548.723 27.6289 550.773 27.6289C552.93 27.6289 554.676 28.1855 556.012 29.2988C557.359 30.4121 558.033 31.8359 558.033 33.5703H554.764C554.764 32.6797 554.383 31.9121 553.621 31.2676C552.871 30.623 551.922 30.3008 550.773 30.3008C549.59 30.3008 548.664 30.5586 547.996 31.0742C547.328 31.5898 546.994 32.2637 546.994 33.0957C546.994 33.8809 547.305 34.4727 547.926 34.8711C548.547 35.2695 549.666 35.6504 551.283 36.0137C552.912 36.377 554.23 36.8105 555.238 37.3145C556.246 37.8184 556.99 38.4277 557.471 39.1426C557.963 39.8457 558.209 40.707 558.209 41.7266C558.209 43.4258 557.529 44.791 556.17 45.8223C554.811 46.8418 553.047 47.3516 550.879 47.3516C549.355 47.3516 548.008 47.082 546.836 46.543C545.664 46.0039 544.744 45.2539 544.076 44.293C543.42 43.3203 543.092 42.2715 543.092 41.1465H546.344C546.402 42.2363 546.836 43.1035 547.645 43.748C548.465 44.3809 549.543 44.6973 550.879 44.6973C552.109 44.6973 553.094 44.4512 553.832 43.959C554.582 43.4551 554.957 42.7871 554.957 41.9551Z" fill="white"/>
<path d="M572.535 34.168L573.836 21.4062H586.949V24.4121H576.596L575.822 31.3906C577.076 30.6523 578.5 30.2832 580.094 30.2832C582.426 30.2832 584.277 31.0566 585.648 32.6035C587.02 34.1387 587.705 36.2188 587.705 38.8438C587.705 41.4805 586.99 43.5605 585.561 45.084C584.143 46.5957 582.156 47.3516 579.602 47.3516C577.34 47.3516 575.494 46.7246 574.064 45.4707C572.635 44.2168 571.82 42.4824 571.621 40.2676H574.697C574.896 41.7324 575.418 42.8398 576.262 43.5898C577.105 44.3281 578.219 44.6973 579.602 44.6973C581.113 44.6973 582.297 44.1816 583.152 43.1504C584.02 42.1191 584.453 40.6953 584.453 38.8789C584.453 37.168 583.984 35.7969 583.047 34.7656C582.121 33.7227 580.885 33.2012 579.338 33.2012C577.92 33.2012 576.807 33.5117 575.998 34.1328L575.137 34.8359L572.535 34.168Z" fill="white"/>
<path d="M607.305 36.084C607.305 39.8926 606.654 42.7227 605.354 44.5742C604.053 46.4258 602.02 47.3516 599.254 47.3516C596.523 47.3516 594.502 46.4492 593.189 44.6445C591.877 42.8281 591.197 40.1211 591.15 36.5234V32.1816C591.15 28.4199 591.801 25.625 593.102 23.7969C594.402 21.9688 596.441 21.0547 599.219 21.0547C601.973 21.0547 604 21.9395 605.301 23.709C606.602 25.4668 607.27 28.1855 607.305 31.8652V36.084ZM604.053 31.6367C604.053 28.8828 603.666 26.8789 602.893 25.625C602.119 24.3594 600.895 23.7266 599.219 23.7266C597.555 23.7266 596.342 24.3535 595.58 25.6074C594.818 26.8613 594.426 28.7891 594.402 31.3906V36.5938C594.402 39.3594 594.801 41.4043 595.598 42.7285C596.406 44.041 597.625 44.6973 599.254 44.6973C600.859 44.6973 602.049 44.0762 602.822 42.834C603.607 41.5918 604.018 39.6348 604.053 36.9629V31.6367Z" fill="white"/>
<path d="M626.957 42.2363L631.387 27.9805H634.867L627.221 49.9355C626.037 53.0996 624.156 54.6816 621.578 54.6816L620.963 54.6289L619.75 54.4004V51.7637L620.629 51.834C621.73 51.834 622.586 51.6113 623.195 51.166C623.816 50.7207 624.326 49.9062 624.725 48.7227L625.445 46.7891L618.66 27.9805H622.211L626.957 42.2363Z" fill="white"/>
<path d="M650.248 47H646.996V20H650.248V47Z" fill="white"/>
<path d="M667.211 47C667.023 46.625 666.871 45.957 666.754 44.9961C665.242 46.5664 663.438 47.3516 661.34 47.3516C659.465 47.3516 657.924 46.8242 656.717 45.7695C655.521 44.7031 654.924 43.3555 654.924 41.7266C654.924 39.7461 655.674 38.2109 657.174 37.1211C658.686 36.0195 660.807 35.4688 663.537 35.4688H666.701V33.9746C666.701 32.8379 666.361 31.9355 665.682 31.2676C665.002 30.5879 664 30.248 662.676 30.248C661.516 30.248 660.543 30.541 659.758 31.127C658.973 31.7129 658.58 32.4219 658.58 33.2539H655.311C655.311 32.3047 655.645 31.3906 656.312 30.5117C656.992 29.6211 657.906 28.918 659.055 28.4023C660.215 27.8867 661.486 27.6289 662.869 27.6289C665.061 27.6289 666.777 28.1797 668.02 29.2812C669.262 30.3711 669.906 31.877 669.953 33.7988V42.5527C669.953 44.2988 670.176 45.6875 670.621 46.7188V47H667.211ZM661.814 44.5215C662.834 44.5215 663.801 44.2578 664.715 43.7305C665.629 43.2031 666.291 42.5176 666.701 41.6738V37.7715H664.152C660.168 37.7715 658.176 38.9375 658.176 41.2695C658.176 42.2891 658.516 43.0859 659.195 43.6602C659.875 44.2344 660.748 44.5215 661.814 44.5215Z" fill="white"/>
<path d="M683.189 37.332C683.189 34.4141 683.881 32.0703 685.264 30.3008C686.646 28.5195 688.457 27.6289 690.695 27.6289C692.922 27.6289 694.686 28.3906 695.986 29.9141V20H699.238V47H696.25L696.092 44.9609C694.791 46.5547 692.98 47.3516 690.66 47.3516C688.457 47.3516 686.658 46.4492 685.264 44.6445C683.881 42.8398 683.189 40.4844 683.189 37.5781V37.332ZM686.441 37.7012C686.441 39.8574 686.887 41.5449 687.777 42.7637C688.668 43.9824 689.898 44.5918 691.469 44.5918C693.531 44.5918 695.037 43.666 695.986 41.8145V33.0781C695.014 31.2852 693.52 30.3887 691.504 30.3887C689.91 30.3887 688.668 31.0039 687.777 32.2344C686.887 33.4648 686.441 35.2871 686.441 37.7012Z" fill="white"/>
<path d="M707.834 47H704.582V27.9805H707.834V47ZM704.318 22.9355C704.318 22.4082 704.477 21.9629 704.793 21.5996C705.121 21.2363 705.602 21.0547 706.234 21.0547C706.867 21.0547 707.348 21.2363 707.676 21.5996C708.004 21.9629 708.168 22.4082 708.168 22.9355C708.168 23.4629 708.004 23.9023 707.676 24.2539C707.348 24.6055 706.867 24.7812 706.234 24.7812C705.602 24.7812 705.121 24.6055 704.793 24.2539C704.477 23.9023 704.318 23.4629 704.318 22.9355Z" fill="white"/>
<path d="M714.654 47V30.4941H711.648V27.9805H714.654V26.0293C714.654 23.9902 715.199 22.4141 716.289 21.3008C717.379 20.1875 718.92 19.6309 720.912 19.6309C721.662 19.6309 722.406 19.7305 723.145 19.9297L722.969 22.5664C722.418 22.4609 721.832 22.4082 721.211 22.4082C720.156 22.4082 719.342 22.7188 718.768 23.3398C718.193 23.9492 717.906 24.8281 717.906 25.9766V27.9805H721.967V30.4941H717.906V47H714.654Z" fill="white"/>
<path d="M733.041 47.3516C730.463 47.3516 728.365 46.5078 726.748 44.8203C725.131 43.1211 724.322 40.8535 724.322 38.0176V37.4199C724.322 35.5332 724.68 33.8516 725.395 32.375C726.121 30.8867 727.129 29.7266 728.418 28.8945C729.719 28.0508 731.125 27.6289 732.637 27.6289C735.109 27.6289 737.031 28.4434 738.402 30.0723C739.773 31.7012 740.459 34.0332 740.459 37.0684V38.4219H727.574C727.621 40.2969 728.166 41.8145 729.209 42.9746C730.264 44.123 731.6 44.6973 733.217 44.6973C734.365 44.6973 735.338 44.4629 736.135 43.9941C736.932 43.5254 737.629 42.9043 738.227 42.1309L740.213 43.6777C738.619 46.127 736.229 47.3516 733.041 47.3516ZM732.637 30.3008C731.324 30.3008 730.223 30.7812 729.332 31.7422C728.441 32.6914 727.891 34.0273 727.68 35.75H737.207V35.5039C737.113 33.8516 736.668 32.5742 735.871 31.6719C735.074 30.7578 733.996 30.3008 732.637 30.3008Z" fill="white"/>
<path d="M753.432 30.8984C752.939 30.8164 752.406 30.7754 751.832 30.7754C749.699 30.7754 748.252 31.6836 747.49 33.5V47H744.238V27.9805H747.402L747.455 30.1777C748.521 28.4785 750.033 27.6289 751.99 27.6289C752.623 27.6289 753.104 27.7109 753.432 27.875V30.8984Z" fill="white"/>
<path d="M763.979 47.3516C761.4 47.3516 759.303 46.5078 757.686 44.8203C756.068 43.1211 755.26 40.8535 755.26 38.0176V37.4199C755.26 35.5332 755.617 33.8516 756.332 32.375C757.059 30.8867 758.066 29.7266 759.355 28.8945C760.656 28.0508 762.062 27.6289 763.574 27.6289C766.047 27.6289 767.969 28.4434 769.34 30.0723C770.711 31.7012 771.396 34.0332 771.396 37.0684V38.4219H758.512C758.559 40.2969 759.104 41.8145 760.146 42.9746C761.201 44.123 762.537 44.6973 764.154 44.6973C765.303 44.6973 766.275 44.4629 767.072 43.9941C767.869 43.5254 768.566 42.9043 769.164 42.1309L771.15 43.6777C769.557 46.127 767.166 47.3516 763.979 47.3516ZM763.574 30.3008C762.262 30.3008 761.16 30.7812 760.27 31.7422C759.379 32.6914 758.828 34.0273 758.617 35.75H768.145V35.5039C768.051 33.8516 767.605 32.5742 766.809 31.6719C766.012 30.7578 764.934 30.3008 763.574 30.3008Z" fill="white"/>
<path d="M778.252 27.9805L778.357 30.3711C779.811 28.543 781.709 27.6289 784.053 27.6289C788.072 27.6289 790.1 29.8965 790.135 34.4316V47H786.883V34.4141C786.871 33.043 786.555 32.0293 785.934 31.373C785.324 30.7168 784.369 30.3887 783.068 30.3887C782.014 30.3887 781.088 30.6699 780.291 31.2324C779.494 31.7949 778.873 32.5332 778.428 33.4473V47H775.176V27.9805H778.252Z" fill="white"/>
<path d="M802.668 44.6973C803.828 44.6973 804.842 44.3457 805.709 43.6426C806.576 42.9395 807.057 42.0605 807.15 41.0059H810.227C810.168 42.0957 809.793 43.1328 809.102 44.1172C808.41 45.1016 807.484 45.8867 806.324 46.4727C805.176 47.0586 803.957 47.3516 802.668 47.3516C800.078 47.3516 798.016 46.4902 796.48 44.7676C794.957 43.0332 794.195 40.666 794.195 37.666V37.1211C794.195 35.2695 794.535 33.623 795.215 32.1816C795.895 30.7402 796.867 29.6211 798.133 28.8242C799.41 28.0273 800.916 27.6289 802.65 27.6289C804.783 27.6289 806.553 28.2676 807.959 29.5449C809.377 30.8223 810.133 32.4805 810.227 34.5195H807.15C807.057 33.2891 806.588 32.2812 805.744 31.4961C804.912 30.6992 803.881 30.3008 802.65 30.3008C800.998 30.3008 799.715 30.8984 798.801 32.0938C797.898 33.2773 797.447 34.9941 797.447 37.2441V37.8594C797.447 40.0508 797.898 41.7383 798.801 42.9219C799.703 44.1055 800.992 44.6973 802.668 44.6973Z" fill="white"/>
<path d="M817.416 47H814.164V27.9805H817.416V47ZM813.9 22.9355C813.9 22.4082 814.059 21.9629 814.375 21.5996C814.703 21.2363 815.184 21.0547 815.816 21.0547C816.449 21.0547 816.93 21.2363 817.258 21.5996C817.586 21.9629 817.75 22.4082 817.75 22.9355C817.75 23.4629 817.586 23.9023 817.258 24.2539C816.93 24.6055 816.449 24.7812 815.816 24.7812C815.184 24.7812 814.703 24.6055 814.375 24.2539C814.059 23.9023 813.9 23.4629 813.9 22.9355Z" fill="white"/>
<path d="M834.379 47C834.191 46.625 834.039 45.957 833.922 44.9961C832.41 46.5664 830.605 47.3516 828.508 47.3516C826.633 47.3516 825.092 46.8242 823.885 45.7695C822.689 44.7031 822.092 43.3555 822.092 41.7266C822.092 39.7461 822.842 38.2109 824.342 37.1211C825.854 36.0195 827.975 35.4688 830.705 35.4688H833.869V33.9746C833.869 32.8379 833.529 31.9355 832.85 31.2676C832.17 30.5879 831.168 30.248 829.844 30.248C828.684 30.248 827.711 30.541 826.926 31.127C826.141 31.7129 825.748 32.4219 825.748 33.2539H822.479C822.479 32.3047 822.812 31.3906 823.48 30.5117C824.16 29.6211 825.074 28.918 826.223 28.4023C827.383 27.8867 828.654 27.6289 830.037 27.6289C832.229 27.6289 833.945 28.1797 835.188 29.2812C836.43 30.3711 837.074 31.877 837.121 33.7988V42.5527C837.121 44.2988 837.344 45.6875 837.789 46.7188V47H834.379ZM828.982 44.5215C830.002 44.5215 830.969 44.2578 831.883 43.7305C832.797 43.2031 833.459 42.5176 833.869 41.6738V37.7715H831.32C827.336 37.7715 825.344 38.9375 825.344 41.2695C825.344 42.2891 825.684 43.0859 826.363 43.6602C827.043 44.2344 827.916 44.5215 828.982 44.5215Z" fill="white"/>
<path d="M110.67 79.332C110.67 76.4141 111.361 74.0703 112.744 72.3008C114.127 70.5195 115.938 69.6289 118.176 69.6289C120.402 69.6289 122.166 70.3906 123.467 71.9141V62H126.719V89H123.73L123.572 86.9609C122.271 88.5547 120.461 89.3516 118.141 89.3516C115.938 89.3516 114.139 88.4492 112.744 86.6445C111.361 84.8398 110.67 82.4844 110.67 79.5781V79.332ZM113.922 79.7012C113.922 81.8574 114.367 83.5449 115.258 84.7637C116.148 85.9824 117.379 86.5918 118.949 86.5918C121.012 86.5918 122.518 85.666 123.467 83.8145V75.0781C122.494 73.2852 121 72.3887 118.984 72.3887C117.391 72.3887 116.148 73.0039 115.258 74.2344C114.367 75.4648 113.922 77.2871 113.922 79.7012Z" fill="white"/>
<path d="M139.674 89.3516C137.096 89.3516 134.998 88.5078 133.381 86.8203C131.764 85.1211 130.955 82.8535 130.955 80.0176V79.4199C130.955 77.5332 131.312 75.8516 132.027 74.375C132.754 72.8867 133.762 71.7266 135.051 70.8945C136.352 70.0508 137.758 69.6289 139.27 69.6289C141.742 69.6289 143.664 70.4434 145.035 72.0723C146.406 73.7012 147.092 76.0332 147.092 79.0684V80.4219H134.207C134.254 82.2969 134.799 83.8145 135.842 84.9746C136.896 86.123 138.232 86.6973 139.85 86.6973C140.998 86.6973 141.971 86.4629 142.768 85.9941C143.564 85.5254 144.262 84.9043 144.859 84.1309L146.846 85.6777C145.252 88.127 142.861 89.3516 139.674 89.3516ZM139.27 72.3008C137.957 72.3008 136.855 72.7812 135.965 73.7422C135.074 74.6914 134.523 76.0273 134.312 77.75H143.84V77.5039C143.746 75.8516 143.301 74.5742 142.504 73.6719C141.707 72.7578 140.629 72.3008 139.27 72.3008Z" fill="white"/>
<path d="M163.334 89H160.082V62H163.334V89Z" fill="white"/>
<path d="M167.693 79.3145C167.693 77.4512 168.057 75.7754 168.783 74.2871C169.521 72.7988 170.541 71.6504 171.842 70.8418C173.154 70.0332 174.648 69.6289 176.324 69.6289C178.914 69.6289 181.006 70.5254 182.6 72.3184C184.205 74.1113 185.008 76.4961 185.008 79.4727V79.7012C185.008 81.5527 184.65 83.2168 183.936 84.6934C183.232 86.1582 182.219 87.3008 180.895 88.1211C179.582 88.9414 178.07 89.3516 176.359 89.3516C173.781 89.3516 171.689 88.4551 170.084 86.6621C168.49 84.8691 167.693 82.4961 167.693 79.543V79.3145ZM170.963 79.7012C170.963 81.8105 171.449 83.5039 172.422 84.7812C173.406 86.0586 174.719 86.6973 176.359 86.6973C178.012 86.6973 179.324 86.0527 180.297 84.7637C181.27 83.4629 181.756 81.6465 181.756 79.3145C181.756 77.2285 181.258 75.541 180.262 74.252C179.277 72.9512 177.965 72.3008 176.324 72.3008C174.719 72.3008 173.424 72.9395 172.439 74.2168C171.455 75.4941 170.963 77.3223 170.963 79.7012Z" fill="white"/>
<path d="M200.16 83.9551C200.16 83.0762 199.826 82.3965 199.158 81.916C198.502 81.4238 197.348 81.002 195.695 80.6504C194.055 80.2988 192.748 79.877 191.775 79.3848C190.814 78.8926 190.1 78.3066 189.631 77.627C189.174 76.9473 188.945 76.1387 188.945 75.2012C188.945 73.6426 189.602 72.3242 190.914 71.2461C192.238 70.168 193.926 69.6289 195.977 69.6289C198.133 69.6289 199.879 70.1855 201.215 71.2988C202.562 72.4121 203.236 73.8359 203.236 75.5703H199.967C199.967 74.6797 199.586 73.9121 198.824 73.2676C198.074 72.623 197.125 72.3008 195.977 72.3008C194.793 72.3008 193.867 72.5586 193.199 73.0742C192.531 73.5898 192.197 74.2637 192.197 75.0957C192.197 75.8809 192.508 76.4727 193.129 76.8711C193.75 77.2695 194.869 77.6504 196.486 78.0137C198.115 78.377 199.434 78.8105 200.441 79.3145C201.449 79.8184 202.193 80.4277 202.674 81.1426C203.166 81.8457 203.412 82.707 203.412 83.7266C203.412 85.4258 202.732 86.791 201.373 87.8223C200.014 88.8418 198.25 89.3516 196.082 89.3516C194.559 89.3516 193.211 89.082 192.039 88.543C190.867 88.0039 189.947 87.2539 189.279 86.293C188.623 85.3203 188.295 84.2715 188.295 83.1465H191.547C191.605 84.2363 192.039 85.1035 192.848 85.748C193.668 86.3809 194.746 86.6973 196.082 86.6973C197.312 86.6973 198.297 86.4512 199.035 85.959C199.785 85.4551 200.16 84.7871 200.16 83.9551Z" fill="white"/>
<path d="M219.637 69.9805L219.725 72.0898C221.119 70.4492 223 69.6289 225.367 69.6289C228.027 69.6289 229.838 70.6484 230.799 72.6875C231.432 71.7734 232.252 71.0352 233.26 70.4727C234.279 69.9102 235.48 69.6289 236.863 69.6289C241.035 69.6289 243.156 71.8379 243.227 76.2559V89H239.975V76.4492C239.975 75.0898 239.664 74.0762 239.043 73.4082C238.422 72.7285 237.379 72.3887 235.914 72.3887C234.707 72.3887 233.705 72.752 232.908 73.4785C232.111 74.1934 231.648 75.1602 231.52 76.3789V89H228.25V76.5371C228.25 73.7715 226.896 72.3887 224.189 72.3887C222.057 72.3887 220.598 73.2969 219.812 75.1133V89H216.561V69.9805H219.637Z" fill="white"/>
<path d="M251.682 89H248.43V69.9805H251.682V89ZM248.166 64.9355C248.166 64.4082 248.324 63.9629 248.641 63.5996C248.969 63.2363 249.449 63.0547 250.082 63.0547C250.715 63.0547 251.195 63.2363 251.523 63.5996C251.852 63.9629 252.016 64.4082 252.016 64.9355C252.016 65.4629 251.852 65.9023 251.523 66.2539C251.195 66.6055 250.715 66.7812 250.082 66.7812C249.449 66.7812 248.969 66.6055 248.641 66.2539C248.324 65.9023 248.166 65.4629 248.166 64.9355Z" fill="white"/>
<path d="M267.977 83.9551C267.977 83.0762 267.643 82.3965 266.975 81.916C266.318 81.4238 265.164 81.002 263.512 80.6504C261.871 80.2988 260.564 79.877 259.592 79.3848C258.631 78.8926 257.916 78.3066 257.447 77.627C256.99 76.9473 256.762 76.1387 256.762 75.2012C256.762 73.6426 257.418 72.3242 258.73 71.2461C260.055 70.168 261.742 69.6289 263.793 69.6289C265.949 69.6289 267.695 70.1855 269.031 71.2988C270.379 72.4121 271.053 73.8359 271.053 75.5703H267.783C267.783 74.6797 267.402 73.9121 266.641 73.2676C265.891 72.623 264.941 72.3008 263.793 72.3008C262.609 72.3008 261.684 72.5586 261.016 73.0742C260.348 73.5898 260.014 74.2637 260.014 75.0957C260.014 75.8809 260.324 76.4727 260.945 76.8711C261.566 77.2695 262.686 77.6504 264.303 78.0137C265.932 78.377 267.25 78.8105 268.258 79.3145C269.266 79.8184 270.01 80.4277 270.49 81.1426C270.982 81.8457 271.229 82.707 271.229 83.7266C271.229 85.4258 270.549 86.791 269.189 87.8223C267.83 88.8418 266.066 89.3516 263.898 89.3516C262.375 89.3516 261.027 89.082 259.855 88.543C258.684 88.0039 257.764 87.2539 257.096 86.293C256.439 85.3203 256.111 84.2715 256.111 83.1465H259.363C259.422 84.2363 259.855 85.1035 260.664 85.748C261.484 86.3809 262.562 86.6973 263.898 86.6973C265.129 86.6973 266.113 86.4512 266.852 85.959C267.602 85.4551 267.977 84.7871 267.977 83.9551Z" fill="white"/>
<path d="M278.523 69.9805L278.611 72.0898C280.006 70.4492 281.887 69.6289 284.254 69.6289C286.914 69.6289 288.725 70.6484 289.686 72.6875C290.318 71.7734 291.139 71.0352 292.146 70.4727C293.166 69.9102 294.367 69.6289 295.75 69.6289C299.922 69.6289 302.043 71.8379 302.113 76.2559V89H298.861V76.4492C298.861 75.0898 298.551 74.0762 297.93 73.4082C297.309 72.7285 296.266 72.3887 294.801 72.3887C293.594 72.3887 292.592 72.752 291.795 73.4785C290.998 74.1934 290.535 75.1602 290.406 76.3789V89H287.137V76.5371C287.137 73.7715 285.783 72.3887 283.076 72.3887C280.943 72.3887 279.484 73.2969 278.699 75.1133V89H275.447V69.9805H278.523Z" fill="white"/>
<path d="M306.174 79.3145C306.174 77.4512 306.537 75.7754 307.264 74.2871C308.002 72.7988 309.021 71.6504 310.322 70.8418C311.635 70.0332 313.129 69.6289 314.805 69.6289C317.395 69.6289 319.486 70.5254 321.08 72.3184C322.686 74.1113 323.488 76.4961 323.488 79.4727V79.7012C323.488 81.5527 323.131 83.2168 322.416 84.6934C321.713 86.1582 320.699 87.3008 319.375 88.1211C318.062 88.9414 316.551 89.3516 314.84 89.3516C312.262 89.3516 310.17 88.4551 308.564 86.6621C306.971 84.8691 306.174 82.4961 306.174 79.543V79.3145ZM309.443 79.7012C309.443 81.8105 309.93 83.5039 310.902 84.7812C311.887 86.0586 313.199 86.6973 314.84 86.6973C316.492 86.6973 317.805 86.0527 318.777 84.7637C319.75 83.4629 320.236 81.6465 320.236 79.3145C320.236 77.2285 319.738 75.541 318.742 74.252C317.758 72.9512 316.445 72.3008 314.805 72.3008C313.199 72.3008 311.904 72.9395 310.92 74.2168C309.936 75.4941 309.443 77.3223 309.443 79.7012Z" fill="white"/>
<path d="M344.389 89.3516C341.811 89.3516 339.713 88.5078 338.096 86.8203C336.479 85.1211 335.67 82.8535 335.67 80.0176V79.4199C335.67 77.5332 336.027 75.8516 336.742 74.375C337.469 72.8867 338.477 71.7266 339.766 70.8945C341.066 70.0508 342.473 69.6289 343.984 69.6289C346.457 69.6289 348.379 70.4434 349.75 72.0723C351.121 73.7012 351.807 76.0332 351.807 79.0684V80.4219H338.922C338.969 82.2969 339.514 83.8145 340.557 84.9746C341.611 86.123 342.947 86.6973 344.564 86.6973C345.713 86.6973 346.686 86.4629 347.482 85.9941C348.279 85.5254 348.977 84.9043 349.574 84.1309L351.561 85.6777C349.967 88.127 347.576 89.3516 344.389 89.3516ZM343.984 72.3008C342.672 72.3008 341.57 72.7812 340.68 73.7422C339.789 74.6914 339.238 76.0273 339.027 77.75H348.555V77.5039C348.461 75.8516 348.016 74.5742 347.219 73.6719C346.422 72.7578 345.344 72.3008 343.984 72.3008Z" fill="white"/>
<path d="M366.66 83.9551C366.66 83.0762 366.326 82.3965 365.658 81.916C365.002 81.4238 363.848 81.002 362.195 80.6504C360.555 80.2988 359.248 79.877 358.275 79.3848C357.314 78.8926 356.6 78.3066 356.131 77.627C355.674 76.9473 355.445 76.1387 355.445 75.2012C355.445 73.6426 356.102 72.3242 357.414 71.2461C358.738 70.168 360.426 69.6289 362.477 69.6289C364.633 69.6289 366.379 70.1855 367.715 71.2988C369.062 72.4121 369.736 73.8359 369.736 75.5703H366.467C366.467 74.6797 366.086 73.9121 365.324 73.2676C364.574 72.623 363.625 72.3008 362.477 72.3008C361.293 72.3008 360.367 72.5586 359.699 73.0742C359.031 73.5898 358.697 74.2637 358.697 75.0957C358.697 75.8809 359.008 76.4727 359.629 76.8711C360.25 77.2695 361.369 77.6504 362.986 78.0137C364.615 78.377 365.934 78.8105 366.941 79.3145C367.949 79.8184 368.693 80.4277 369.174 81.1426C369.666 81.8457 369.912 82.707 369.912 83.7266C369.912 85.4258 369.232 86.791 367.873 87.8223C366.514 88.8418 364.75 89.3516 362.582 89.3516C361.059 89.3516 359.711 89.082 358.539 88.543C357.367 88.0039 356.447 87.2539 355.779 86.293C355.123 85.3203 354.795 84.2715 354.795 83.1465H358.047C358.105 84.2363 358.539 85.1035 359.348 85.748C360.168 86.3809 361.246 86.6973 362.582 86.6973C363.812 86.6973 364.797 86.4512 365.535 85.959C366.285 85.4551 366.66 84.7871 366.66 83.9551Z" fill="white"/>
<path d="M393.432 89H390.162V67.3262L383.605 69.7344V66.7812L392.922 63.2832H393.432V89Z" fill="white"/>
<path d="M419.008 78.084C419.008 81.8926 418.357 84.7227 417.057 86.5742C415.756 88.4258 413.723 89.3516 410.957 89.3516C408.227 89.3516 406.205 88.4492 404.893 86.6445C403.58 84.8281 402.9 82.1211 402.854 78.5234V74.1816C402.854 70.4199 403.504 67.625 404.805 65.7969C406.105 63.9688 408.145 63.0547 410.922 63.0547C413.676 63.0547 415.703 63.9395 417.004 65.709C418.305 67.4668 418.973 70.1855 419.008 73.8652V78.084ZM415.756 73.6367C415.756 70.8828 415.369 68.8789 414.596 67.625C413.822 66.3594 412.598 65.7266 410.922 65.7266C409.258 65.7266 408.045 66.3535 407.283 67.6074C406.521 68.8613 406.129 70.7891 406.105 73.3906V78.5938C406.105 81.3594 406.504 83.4043 407.301 84.7285C408.109 86.041 409.328 86.6973 410.957 86.6973C412.562 86.6973 413.752 86.0762 414.525 84.834C415.311 83.5918 415.721 81.6348 415.756 78.9629V73.6367Z" fill="white"/>
<path d="M423.578 87.2949C423.578 86.7324 423.742 86.2637 424.07 85.8887C424.41 85.5137 424.914 85.3262 425.582 85.3262C426.25 85.3262 426.754 85.5137 427.094 85.8887C427.445 86.2637 427.621 86.7324 427.621 87.2949C427.621 87.834 427.445 88.2852 427.094 88.6484C426.754 89.0117 426.25 89.1934 425.582 89.1934C424.914 89.1934 424.41 89.0117 424.07 88.6484C423.742 88.2852 423.578 87.834 423.578 87.2949Z" fill="white"/>
<path d="M446.061 89H442.686V63.4062H446.061V89Z" fill="white"/>
<path d="M454.814 69.9805L454.92 72.3711C456.373 70.543 458.271 69.6289 460.615 69.6289C464.635 69.6289 466.662 71.8965 466.697 76.4316V89H463.445V76.4141C463.434 75.043 463.117 74.0293 462.496 73.373C461.887 72.7168 460.932 72.3887 459.631 72.3887C458.576 72.3887 457.65 72.6699 456.854 73.2324C456.057 73.7949 455.436 74.5332 454.99 75.4473V89H451.738V69.9805H454.814Z" fill="white"/>
<path d="M470.811 79.332C470.811 76.4141 471.502 74.0703 472.885 72.3008C474.268 70.5195 476.078 69.6289 478.316 69.6289C480.543 69.6289 482.307 70.3906 483.607 71.9141V62H486.859V89H483.871L483.713 86.9609C482.412 88.5547 480.602 89.3516 478.281 89.3516C476.078 89.3516 474.279 88.4492 472.885 86.6445C471.502 84.8398 470.811 82.4844 470.811 79.5781V79.332ZM474.062 79.7012C474.062 81.8574 474.508 83.5449 475.398 84.7637C476.289 85.9824 477.52 86.5918 479.09 86.5918C481.152 86.5918 482.658 85.666 483.607 83.8145V75.0781C482.635 73.2852 481.141 72.3887 479.125 72.3887C477.531 72.3887 476.289 73.0039 475.398 74.2344C474.508 75.4648 474.062 77.2871 474.062 79.7012Z" fill="white"/>
<path d="M495.455 89H492.203V69.9805H495.455V89ZM491.939 64.9355C491.939 64.4082 492.098 63.9629 492.414 63.5996C492.742 63.2363 493.223 63.0547 493.855 63.0547C494.488 63.0547 494.969 63.2363 495.297 63.5996C495.625 63.9629 495.789 64.4082 495.789 64.9355C495.789 65.4629 495.625 65.9023 495.297 66.2539C494.969 66.6055 494.488 66.7812 493.855 66.7812C493.223 66.7812 492.742 66.6055 492.414 66.2539C492.098 65.9023 491.939 65.4629 491.939 64.9355Z" fill="white"/>
<path d="M508.305 86.6973C509.465 86.6973 510.479 86.3457 511.346 85.6426C512.213 84.9395 512.693 84.0605 512.787 83.0059H515.863C515.805 84.0957 515.43 85.1328 514.738 86.1172C514.047 87.1016 513.121 87.8867 511.961 88.4727C510.812 89.0586 509.594 89.3516 508.305 89.3516C505.715 89.3516 503.652 88.4902 502.117 86.7676C500.594 85.0332 499.832 82.666 499.832 79.666V79.1211C499.832 77.2695 500.172 75.623 500.852 74.1816C501.531 72.7402 502.504 71.6211 503.77 70.8242C505.047 70.0273 506.553 69.6289 508.287 69.6289C510.42 69.6289 512.189 70.2676 513.596 71.5449C515.014 72.8223 515.77 74.4805 515.863 76.5195H512.787C512.693 75.2891 512.225 74.2812 511.381 73.4961C510.549 72.6992 509.518 72.3008 508.287 72.3008C506.635 72.3008 505.352 72.8984 504.438 74.0938C503.535 75.2773 503.084 76.9941 503.084 79.2441V79.8594C503.084 82.0508 503.535 83.7383 504.438 84.9219C505.34 86.1055 506.629 86.6973 508.305 86.6973Z" fill="white"/>
<path d="M531.262 89C531.074 88.625 530.922 87.957 530.805 86.9961C529.293 88.5664 527.488 89.3516 525.391 89.3516C523.516 89.3516 521.975 88.8242 520.768 87.7695C519.572 86.7031 518.975 85.3555 518.975 83.7266C518.975 81.7461 519.725 80.2109 521.225 79.1211C522.736 78.0195 524.857 77.4688 527.588 77.4688H530.752V75.9746C530.752 74.8379 530.412 73.9355 529.732 73.2676C529.053 72.5879 528.051 72.248 526.727 72.248C525.566 72.248 524.594 72.541 523.809 73.127C523.023 73.7129 522.631 74.4219 522.631 75.2539H519.361C519.361 74.3047 519.695 73.3906 520.363 72.5117C521.043 71.6211 521.957 70.918 523.105 70.4023C524.266 69.8867 525.537 69.6289 526.92 69.6289C529.111 69.6289 530.828 70.1797 532.07 71.2812C533.312 72.3711 533.957 73.877 534.004 75.7988V84.5527C534.004 86.2988 534.227 87.6875 534.672 88.7188V89H531.262ZM525.865 86.5215C526.885 86.5215 527.852 86.2578 528.766 85.7305C529.68 85.2031 530.342 84.5176 530.752 83.6738V79.7715H528.203C524.219 79.7715 522.227 80.9375 522.227 83.2695C522.227 84.2891 522.566 85.0859 523.246 85.6602C523.926 86.2344 524.799 86.5215 525.865 86.5215Z" fill="white"/>
<path d="M555.924 89.3516C553.346 89.3516 551.248 88.5078 549.631 86.8203C548.014 85.1211 547.205 82.8535 547.205 80.0176V79.4199C547.205 77.5332 547.562 75.8516 548.277 74.375C549.004 72.8867 550.012 71.7266 551.301 70.8945C552.602 70.0508 554.008 69.6289 555.52 69.6289C557.992 69.6289 559.914 70.4434 561.285 72.0723C562.656 73.7012 563.342 76.0332 563.342 79.0684V80.4219H550.457C550.504 82.2969 551.049 83.8145 552.092 84.9746C553.146 86.123 554.482 86.6973 556.1 86.6973C557.248 86.6973 558.221 86.4629 559.018 85.9941C559.814 85.5254 560.512 84.9043 561.109 84.1309L563.096 85.6777C561.502 88.127 559.111 89.3516 555.924 89.3516ZM555.52 72.3008C554.207 72.3008 553.105 72.7812 552.215 73.7422C551.324 74.6914 550.773 76.0273 550.562 77.75H560.09V77.5039C559.996 75.8516 559.551 74.5742 558.754 73.6719C557.957 72.7578 556.879 72.3008 555.52 72.3008Z" fill="white"/>
<path d="M570.654 89H567.402V62H570.654V89Z" fill="white"/>
<path d="M584.014 79.332C584.014 76.4141 584.705 74.0703 586.088 72.3008C587.471 70.5195 589.281 69.6289 591.52 69.6289C593.746 69.6289 595.51 70.3906 596.811 71.9141V62H600.062V89H597.074L596.916 86.9609C595.615 88.5547 593.805 89.3516 591.484 89.3516C589.281 89.3516 587.482 88.4492 586.088 86.6445C584.705 84.8398 584.014 82.4844 584.014 79.5781V79.332ZM587.266 79.7012C587.266 81.8574 587.711 83.5449 588.602 84.7637C589.492 85.9824 590.723 86.5918 592.293 86.5918C594.355 86.5918 595.861 85.666 596.811 83.8145V75.0781C595.838 73.2852 594.344 72.3887 592.328 72.3887C590.734 72.3887 589.492 73.0039 588.602 74.2344C587.711 75.4648 587.266 77.2871 587.266 79.7012Z" fill="white"/>
<path d="M604.264 79.3145C604.264 77.4512 604.627 75.7754 605.354 74.2871C606.092 72.7988 607.111 71.6504 608.412 70.8418C609.725 70.0332 611.219 69.6289 612.895 69.6289C615.484 69.6289 617.576 70.5254 619.17 72.3184C620.775 74.1113 621.578 76.4961 621.578 79.4727V79.7012C621.578 81.5527 621.221 83.2168 620.506 84.6934C619.803 86.1582 618.789 87.3008 617.465 88.1211C616.152 88.9414 614.641 89.3516 612.93 89.3516C610.352 89.3516 608.26 88.4551 606.654 86.6621C605.061 84.8691 604.264 82.4961 604.264 79.543V79.3145ZM607.533 79.7012C607.533 81.8105 608.02 83.5039 608.992 84.7812C609.977 86.0586 611.289 86.6973 612.93 86.6973C614.582 86.6973 615.895 86.0527 616.867 84.7637C617.84 83.4629 618.326 81.6465 618.326 79.3145C618.326 77.2285 617.828 75.541 616.832 74.252C615.848 72.9512 614.535 72.3008 612.895 72.3008C611.289 72.3008 609.994 72.9395 609.01 74.2168C608.025 75.4941 607.533 77.3223 607.533 79.7012Z" fill="white"/>
<path d="M641.758 79.7012C641.758 82.6074 641.09 84.9453 639.754 86.7148C638.418 88.4727 636.625 89.3516 634.375 89.3516C631.973 89.3516 630.115 88.502 628.803 86.8027L628.645 89H625.656V62H628.908V72.0723C630.221 70.4434 632.031 69.6289 634.34 69.6289C636.648 69.6289 638.459 70.502 639.771 72.248C641.096 73.9941 641.758 76.3848 641.758 79.4199V79.7012ZM638.506 79.332C638.506 77.1172 638.078 75.4062 637.223 74.1992C636.367 72.9922 635.137 72.3887 633.531 72.3887C631.387 72.3887 629.846 73.3848 628.908 75.377V83.6035C629.904 85.5957 631.457 86.5918 633.566 86.5918C635.125 86.5918 636.338 85.9883 637.205 84.7812C638.072 83.5742 638.506 81.7578 638.506 79.332Z" fill="white"/>
<path d="M649.404 89H646.152V62H649.404V89Z" fill="white"/>
<path d="M662.518 89.3516C659.939 89.3516 657.842 88.5078 656.225 86.8203C654.607 85.1211 653.799 82.8535 653.799 80.0176V79.4199C653.799 77.5332 654.156 75.8516 654.871 74.375C655.598 72.8867 656.605 71.7266 657.895 70.8945C659.195 70.0508 660.602 69.6289 662.113 69.6289C664.586 69.6289 666.508 70.4434 667.879 72.0723C669.25 73.7012 669.936 76.0332 669.936 79.0684V80.4219H657.051C657.098 82.2969 657.643 83.8145 658.686 84.9746C659.74 86.123 661.076 86.6973 662.693 86.6973C663.842 86.6973 664.814 86.4629 665.611 85.9941C666.408 85.5254 667.105 84.9043 667.703 84.1309L669.689 85.6777C668.096 88.127 665.705 89.3516 662.518 89.3516ZM662.113 72.3008C660.801 72.3008 659.699 72.7812 658.809 73.7422C657.918 74.6914 657.367 76.0273 657.156 77.75H666.684V77.5039C666.59 75.8516 666.145 74.5742 665.348 73.6719C664.551 72.7578 663.473 72.3008 662.113 72.3008Z" fill="white"/>
<path d="M681.854 79.332C681.854 76.4141 682.545 74.0703 683.928 72.3008C685.311 70.5195 687.121 69.6289 689.359 69.6289C691.586 69.6289 693.35 70.3906 694.65 71.9141V62H697.902V89H694.914L694.756 86.9609C693.455 88.5547 691.645 89.3516 689.324 89.3516C687.121 89.3516 685.322 88.4492 683.928 86.6445C682.545 84.8398 681.854 82.4844 681.854 79.5781V79.332ZM685.105 79.7012C685.105 81.8574 685.551 83.5449 686.441 84.7637C687.332 85.9824 688.562 86.5918 690.133 86.5918C692.195 86.5918 693.701 85.666 694.65 83.8145V75.0781C693.678 73.2852 692.184 72.3887 690.168 72.3887C688.574 72.3887 687.332 73.0039 686.441 74.2344C685.551 75.4648 685.105 77.2871 685.105 79.7012Z" fill="white"/>
<path d="M710.857 89.3516C708.279 89.3516 706.182 88.5078 704.564 86.8203C702.947 85.1211 702.139 82.8535 702.139 80.0176V79.4199C702.139 77.5332 702.496 75.8516 703.211 74.375C703.938 72.8867 704.945 71.7266 706.234 70.8945C707.535 70.0508 708.941 69.6289 710.453 69.6289C712.926 69.6289 714.848 70.4434 716.219 72.0723C717.59 73.7012 718.275 76.0332 718.275 79.0684V80.4219H705.391C705.438 82.2969 705.982 83.8145 707.025 84.9746C708.08 86.123 709.416 86.6973 711.033 86.6973C712.182 86.6973 713.154 86.4629 713.951 85.9941C714.748 85.5254 715.445 84.9043 716.043 84.1309L718.029 85.6777C716.436 88.127 714.045 89.3516 710.857 89.3516ZM710.453 72.3008C709.141 72.3008 708.039 72.7812 707.148 73.7422C706.258 74.6914 705.707 76.0273 705.496 77.75H715.023V77.5039C714.93 75.8516 714.484 74.5742 713.688 73.6719C712.891 72.7578 711.812 72.3008 710.453 72.3008Z" fill="white"/>
<path d="M725.588 89H722.336V62H725.588V89Z" fill="white"/>
<path d="M742.814 69.9805L742.92 72.3711C744.373 70.543 746.271 69.6289 748.615 69.6289C752.635 69.6289 754.662 71.8965 754.697 76.4316V89H751.445V76.4141C751.434 75.043 751.117 74.0293 750.496 73.373C749.887 72.7168 748.932 72.3887 747.631 72.3887C746.576 72.3887 745.65 72.6699 744.854 73.2324C744.057 73.7949 743.436 74.5332 742.99 75.4473V89H739.738V69.9805H742.814Z" fill="white"/>
<path d="M771.344 87.1191C770.078 88.6074 768.221 89.3516 765.771 89.3516C763.744 89.3516 762.197 88.7656 761.131 87.5938C760.076 86.4102 759.543 84.6641 759.531 82.3555V69.9805H762.783V82.2676C762.783 85.1504 763.955 86.5918 766.299 86.5918C768.783 86.5918 770.436 85.666 771.256 83.8145V69.9805H774.508V89H771.414L771.344 87.1191ZM768.707 62H772.645L767.934 67.168H765.314L768.707 62Z" fill="white"/>
<path d="M782.523 69.9805L782.611 72.0898C784.006 70.4492 785.887 69.6289 788.254 69.6289C790.914 69.6289 792.725 70.6484 793.686 72.6875C794.318 71.7734 795.139 71.0352 796.146 70.4727C797.166 69.9102 798.367 69.6289 799.75 69.6289C803.922 69.6289 806.043 71.8379 806.113 76.2559V89H802.861V76.4492C802.861 75.0898 802.551 74.0762 801.93 73.4082C801.309 72.7285 800.266 72.3887 798.801 72.3887C797.594 72.3887 796.592 72.752 795.795 73.4785C794.998 74.1934 794.535 75.1602 794.406 76.3789V89H791.137V76.5371C791.137 73.7715 789.783 72.3887 787.076 72.3887C784.943 72.3887 783.484 73.2969 782.699 75.1133V89H779.447V69.9805H782.523Z" fill="white"/>
<path d="M818.928 89.3516C816.35 89.3516 814.252 88.5078 812.635 86.8203C811.018 85.1211 810.209 82.8535 810.209 80.0176V79.4199C810.209 77.5332 810.566 75.8516 811.281 74.375C812.008 72.8867 813.016 71.7266 814.305 70.8945C815.605 70.0508 817.012 69.6289 818.523 69.6289C820.996 69.6289 822.918 70.4434 824.289 72.0723C825.66 73.7012 826.346 76.0332 826.346 79.0684V80.4219H813.461C813.508 82.2969 814.053 83.8145 815.096 84.9746C816.15 86.123 817.486 86.6973 819.104 86.6973C820.252 86.6973 821.225 86.4629 822.021 85.9941C822.818 85.5254 823.516 84.9043 824.113 84.1309L826.1 85.6777C824.506 88.127 822.115 89.3516 818.928 89.3516ZM818.523 72.3008C817.211 72.3008 816.109 72.7812 815.219 73.7422C814.328 74.6914 813.777 76.0273 813.566 77.75H823.094V77.5039C823 75.8516 822.555 74.5742 821.758 73.6719C820.961 72.7578 819.883 72.3008 818.523 72.3008Z" fill="white"/>
<path d="M839.318 72.8984C838.826 72.8164 838.293 72.7754 837.719 72.7754C835.586 72.7754 834.139 73.6836 833.377 75.5V89H830.125V69.9805H833.289L833.342 72.1777C834.408 70.4785 835.92 69.6289 837.877 69.6289C838.51 69.6289 838.99 69.7109 839.318 69.875V72.8984Z" fill="white"/>
<path d="M841.111 79.3145C841.111 77.4512 841.475 75.7754 842.201 74.2871C842.939 72.7988 843.959 71.6504 845.26 70.8418C846.572 70.0332 848.066 69.6289 849.742 69.6289C852.332 69.6289 854.424 70.5254 856.018 72.3184C857.623 74.1113 858.426 76.4961 858.426 79.4727V79.7012C858.426 81.5527 858.068 83.2168 857.354 84.6934C856.65 86.1582 855.637 87.3008 854.312 88.1211C853 88.9414 851.488 89.3516 849.777 89.3516C847.199 89.3516 845.107 88.4551 843.502 86.6621C841.908 84.8691 841.111 82.4961 841.111 79.543V79.3145ZM844.381 79.7012C844.381 81.8105 844.867 83.5039 845.84 84.7812C846.824 86.0586 848.137 86.6973 849.777 86.6973C851.43 86.6973 852.742 86.0527 853.715 84.7637C854.688 83.4629 855.174 81.6465 855.174 79.3145C855.174 77.2285 854.676 75.541 853.68 74.252C852.695 72.9512 851.383 72.3008 849.742 72.3008C848.137 72.3008 846.842 72.9395 845.857 74.2168C844.873 75.4941 844.381 77.3223 844.381 79.7012Z" fill="white"/>
<path d="M114.52 111.98L114.607 114.09C116.002 112.449 117.883 111.629 120.25 111.629C122.91 111.629 124.721 112.648 125.682 114.688C126.314 113.773 127.135 113.035 128.143 112.473C129.162 111.91 130.363 111.629 131.746 111.629C135.918 111.629 138.039 113.838 138.109 118.256V131H134.857V118.449C134.857 117.09 134.547 116.076 133.926 115.408C133.305 114.729 132.262 114.389 130.797 114.389C129.59 114.389 128.588 114.752 127.791 115.479C126.994 116.193 126.531 117.16 126.402 118.379V131H123.133V118.537C123.133 115.771 121.779 114.389 119.072 114.389C116.939 114.389 115.48 115.297 114.695 117.113V131H111.443V111.98H114.52Z" fill="white"/>
<path d="M154.773 131C154.586 130.625 154.434 129.957 154.316 128.996C152.805 130.566 151 131.352 148.902 131.352C147.027 131.352 145.486 130.824 144.279 129.77C143.084 128.703 142.486 127.355 142.486 125.727C142.486 123.746 143.236 122.211 144.736 121.121C146.248 120.02 148.369 119.469 151.1 119.469H154.264V117.975C154.264 116.838 153.924 115.936 153.244 115.268C152.564 114.588 151.562 114.248 150.238 114.248C149.078 114.248 148.105 114.541 147.32 115.127C146.535 115.713 146.143 116.422 146.143 117.254H142.873C142.873 116.305 143.207 115.391 143.875 114.512C144.555 113.621 145.469 112.918 146.617 112.402C147.777 111.887 149.049 111.629 150.432 111.629C152.623 111.629 154.34 112.18 155.582 113.281C156.824 114.371 157.469 115.877 157.516 117.799V126.553C157.516 128.299 157.738 129.688 158.184 130.719V131H154.773ZM149.377 128.521C150.396 128.521 151.363 128.258 152.277 127.73C153.191 127.203 153.854 126.518 154.264 125.674V121.771H151.715C147.73 121.771 145.738 122.938 145.738 125.27C145.738 126.289 146.078 127.086 146.758 127.66C147.438 128.234 148.311 128.521 149.377 128.521Z" fill="white"/>
<path d="M168.555 126.236L172.984 111.98H176.465L168.818 133.936C167.635 137.1 165.754 138.682 163.176 138.682L162.561 138.629L161.348 138.4V135.764L162.227 135.834C163.328 135.834 164.184 135.611 164.793 135.166C165.414 134.721 165.924 133.906 166.322 132.723L167.043 130.789L160.258 111.98H163.809L168.555 126.236Z" fill="white"/>
<path d="M178.24 121.314C178.24 119.451 178.604 117.775 179.33 116.287C180.068 114.799 181.088 113.65 182.389 112.842C183.701 112.033 185.195 111.629 186.871 111.629C189.461 111.629 191.553 112.525 193.146 114.318C194.752 116.111 195.555 118.496 195.555 121.473V121.701C195.555 123.553 195.197 125.217 194.482 126.693C193.779 128.158 192.766 129.301 191.441 130.121C190.129 130.941 188.617 131.352 186.906 131.352C184.328 131.352 182.236 130.455 180.631 128.662C179.037 126.869 178.24 124.496 178.24 121.543V121.314ZM181.51 121.701C181.51 123.811 181.996 125.504 182.969 126.781C183.953 128.059 185.266 128.697 186.906 128.697C188.559 128.697 189.871 128.053 190.844 126.764C191.816 125.463 192.303 123.646 192.303 121.314C192.303 119.229 191.805 117.541 190.809 116.252C189.824 114.951 188.512 114.301 186.871 114.301C185.266 114.301 183.971 114.939 182.986 116.217C182.002 117.494 181.51 119.322 181.51 121.701Z" fill="white"/>
<path d="M208.826 114.898C208.334 114.816 207.801 114.775 207.227 114.775C205.094 114.775 203.646 115.684 202.885 117.5V131H199.633V111.98H202.797L202.85 114.178C203.916 112.479 205.428 111.629 207.385 111.629C208.018 111.629 208.498 111.711 208.826 111.875V114.898Z" fill="white"/>
<path d="M209.723 129.295C209.723 128.732 209.887 128.264 210.215 127.889C210.555 127.514 211.059 127.326 211.727 127.326C212.395 127.326 212.898 127.514 213.238 127.889C213.59 128.264 213.766 128.732 213.766 129.295C213.766 129.834 213.59 130.285 213.238 130.648C212.898 131.012 212.395 131.193 211.727 131.193C211.059 131.193 210.555 131.012 210.215 130.648C209.887 130.285 209.723 129.834 209.723 129.295Z" fill="white"/>
</g>
</g>
</g>
</svg>
