<svg viewBox="0 0 749 240" fill="none" xmlns="http://www.w3.org/2000/svg">
<g id="0120249">
<g id="x+\frac{7}{12}x=760\;&#10;12 \times \left(x+\frac{7}{12}x=760\right)&#10;12x+7x=12 \times760\;&#10;19x=12 \times 760\;&#10;x=\frac{12 \times 760}{19}\;40\;1=480&#10;">
<g id="Group">
<g id="Group 574">
<g id="Group_2">
<path id="Vector" d="M62.5669 35.4485C62.7225 34.5147 63.3228 33.4365 64.3677 32.2138C65.4125 30.9911 66.702 30.3686 68.2359 30.3463C69.014 30.3463 69.7254 30.5464 70.3702 30.9466C71.0149 31.3468 71.4928 31.847 71.8041 32.4472C72.7378 31.0466 73.8605 30.3463 75.1722 30.3463C75.9947 30.3463 76.7061 30.5909 77.3064 31.08C77.9066 31.5691 78.2179 32.2249 78.2401 33.0475C78.2401 33.6922 78.0845 34.2146 77.7732 34.6148C77.462 35.015 77.1619 35.2595 76.8729 35.3484C76.5839 35.4374 76.3282 35.4818 76.1059 35.4818C75.6835 35.4818 75.3389 35.3595 75.0721 35.115C74.8053 34.8705 74.6719 34.5481 74.6719 34.1479C74.6719 33.1253 75.2277 32.425 76.3393 32.0471C76.0948 31.758 75.6501 31.6135 75.0054 31.6135C74.7164 31.6135 74.5052 31.6358 74.3718 31.6802C73.527 32.0359 72.9045 32.7696 72.5044 33.8811C71.1705 38.7943 70.5035 41.6622 70.5035 42.4847C70.5035 43.1072 70.6814 43.5518 71.0371 43.8186C71.3928 44.0854 71.7819 44.2188 72.2043 44.2188C73.0268 44.2188 73.8383 43.852 74.6386 43.1183C75.4389 42.3847 75.9836 41.4843 76.2726 40.4172C76.3393 40.1949 76.406 40.0726 76.4727 40.0504C76.5394 40.0282 76.7172 40.0059 77.0063 39.9837H77.1396C77.4731 39.9837 77.6399 40.0726 77.6399 40.2505C77.6399 40.2727 77.6176 40.395 77.5732 40.6173C77.2175 41.8845 76.5283 43.0072 75.5056 43.9854C74.483 44.9635 73.2936 45.4526 71.9375 45.4526C70.3813 45.4526 69.203 44.7523 68.4027 43.3518C67.4912 44.7301 66.4463 45.4193 65.268 45.4193H65.0679C63.9786 45.4193 63.2005 45.1303 62.7336 44.5523C62.2668 43.9742 62.0222 43.3629 62 42.7182C62 42.0068 62.2112 41.4287 62.6336 40.9841C63.056 40.5395 63.5562 40.3172 64.1342 40.3172C65.0902 40.3172 65.5682 40.784 65.5682 41.7177C65.5682 42.1624 65.4348 42.5514 65.168 42.8849C64.9012 43.2184 64.6455 43.4407 64.401 43.5518C64.1565 43.663 64.0119 43.7186 63.9675 43.7186L63.8674 43.7519C63.8674 43.7742 63.9341 43.8186 64.0675 43.8853C64.2009 43.952 64.3788 44.0298 64.6011 44.1187C64.8234 44.2077 65.0346 44.241 65.2347 44.2188C66.035 44.2188 66.7242 43.7186 67.3022 42.7182C67.5023 42.3625 67.758 41.6066 68.0692 40.4506C68.3804 39.2945 68.6917 38.094 69.0029 36.8491C69.3142 35.6041 69.492 34.8705 69.5365 34.6481C69.6476 34.0479 69.7032 33.6144 69.7032 33.3476C69.7032 32.7251 69.5365 32.2805 69.203 32.0137C68.8695 31.7469 68.4916 31.6135 68.0692 31.6135C67.1799 31.6135 66.3463 31.9692 65.5682 32.6806C64.7901 33.3921 64.2454 34.3035 63.9341 35.4151C63.8897 35.6152 63.8341 35.7264 63.7674 35.7486C63.7007 35.7708 63.5229 35.7931 63.2338 35.8153H62.767C62.6336 35.6819 62.5669 35.5596 62.5669 35.4485Z" fill="white"/>
</g>
<g id="Group_3">
<path id="Vector_2" d="M89.1865 37.1811C89.1865 37.1811 89.1865 37.0366 89.1865 36.7476C89.1865 36.4586 89.3421 36.2362 89.6534 36.0806H99.6242V31.0785L99.6576 26.0765C99.8799 25.7874 100.091 25.6429 100.291 25.6429C100.58 25.6429 100.802 25.8097 100.958 26.1432V36.0806H110.896C111.229 36.2585 111.396 36.4808 111.396 36.7476C111.396 37.0143 111.229 37.2367 110.896 37.4145H100.958V47.352C100.78 47.6632 100.58 47.8188 100.358 47.8188H100.291H100.224C99.9577 47.8188 99.7576 47.6632 99.6242 47.352V37.4145H89.6534C89.3421 37.2589 89.1865 37.0366 89.1865 36.7476V37.1811Z" fill="white"/>
</g>
<g id="Group_4">
<g id="Group_5">
<path id="Vector_3" d="M138.178 7.2697C138.2 7.22524 138.389 6.01362 138.745 3.63485L139.278 0.0666981C139.278 0.0222351 139.501 3.8147e-06 139.945 3.8147e-06H140.612V0.133392C140.612 0.355707 140.779 0.544674 141.112 0.700294C141.446 0.855915 142.024 0.955957 142.846 1.00042C143.669 1.04488 145.547 1.06711 148.482 1.06711H152.517V2.36766L150.249 5.46895C150.049 5.73573 149.716 6.18036 149.249 6.80284C148.782 7.42532 148.482 7.8366 148.349 8.03668C148.215 8.23677 147.982 8.59247 147.648 9.1038C147.315 9.61512 147.093 10.0153 146.981 10.3043C146.87 10.5933 146.715 11.0046 146.515 11.5381C146.314 12.0717 146.17 12.583 146.081 13.0721C145.992 13.5612 145.903 14.1615 145.814 14.8729C145.725 15.5843 145.659 16.3401 145.614 17.1405C145.57 17.9408 145.536 18.8523 145.514 19.875C145.514 20.1862 145.514 20.4974 145.514 20.8087C145.514 21.1199 145.503 21.3867 145.481 21.609V21.9091C145.392 22.2871 145.181 22.6094 144.847 22.8762C144.514 23.143 144.136 23.2764 143.713 23.2764C143.469 23.2764 143.235 23.243 143.013 23.1763C142.791 23.1096 142.557 22.8984 142.313 22.5427C142.068 22.187 141.946 21.7424 141.946 21.2088C141.946 17.6963 143.024 14.0503 145.181 10.2709C145.625 9.55954 146.559 8.21454 147.982 6.23594L149.516 4.13506H146.415C142.546 4.13506 140.512 4.20175 140.312 4.33514C140.179 4.40184 140.056 4.66861 139.945 5.13548C139.834 5.60234 139.723 6.08031 139.612 6.56941L139.512 7.2697V7.36974H138.178V7.2697Z" fill="white"/>
</g>
<g id="Group_6">
<path id="Vector_4" d="M135.108 48.6858L134.674 48.8525C134.363 48.9636 133.918 49.0748 133.34 49.186C132.762 49.2971 132.117 49.3749 131.406 49.4194H130.772V47.8854H131.406C132.451 47.841 133.418 47.6742 134.307 47.3852C135.197 47.0962 135.819 46.8294 136.175 46.5849C136.53 46.3403 136.842 46.0958 137.108 45.8512C137.153 45.7845 137.286 45.7512 137.509 45.7512C137.709 45.7512 137.898 45.8179 138.076 45.9513V55.9221L138.109 65.9263C138.264 66.0819 138.398 66.1819 138.509 66.2264C138.62 66.2709 138.887 66.3153 139.309 66.3598C139.732 66.4042 140.421 66.4265 141.377 66.4265H142.244V67.9604H141.877C141.41 67.8938 139.643 67.8604 136.575 67.8604C133.551 67.8604 131.806 67.8938 131.339 67.9604H130.939V66.4265H131.806C132.295 66.4265 132.718 66.4265 133.073 66.4265C133.429 66.4265 133.707 66.4154 133.907 66.3931C134.107 66.3709 134.285 66.3376 134.441 66.2931C134.596 66.2486 134.685 66.2264 134.707 66.2264C134.73 66.2264 134.796 66.1708 134.908 66.0597C135.019 65.9485 135.085 65.904 135.108 65.9263V48.6858Z" fill="white"/>
<path id="Vector_5" d="M148.314 53.6545C147.714 53.6545 147.236 53.4544 146.88 53.0542C146.525 52.6541 146.347 52.165 146.347 51.587C146.347 50.0085 146.936 48.6413 148.114 47.4853C149.292 46.3292 150.76 45.7512 152.516 45.7512C154.539 45.7512 156.229 46.3737 157.585 47.6186C158.941 48.8636 159.63 50.4754 159.652 52.454C159.652 53.4099 159.43 54.3214 158.985 55.1885C158.541 56.0555 158.007 56.8114 157.385 57.4561C156.762 58.1008 155.873 58.9234 154.717 59.9238C153.916 60.6129 152.805 61.6356 151.382 62.9917L149.415 64.8592L151.949 64.8925C155.439 64.8925 157.296 64.8369 157.518 64.7258C157.674 64.6813 157.94 63.692 158.318 61.7579V61.6578H159.652V61.7579C159.63 61.8246 159.485 62.8361 159.219 64.7925C158.952 66.7488 158.785 67.7715 158.719 67.8604V67.9604H146.347V67.3269V66.9267C146.347 66.7711 146.413 66.6043 146.547 66.4265C146.68 66.2486 147.014 65.8596 147.547 65.2593C148.192 64.5479 148.748 63.9254 149.215 63.3919C149.415 63.1696 149.793 62.7583 150.348 62.158C150.904 61.5578 151.282 61.1465 151.482 60.9242C151.682 60.7019 152.005 60.335 152.449 59.8237C152.894 59.3124 153.205 58.9345 153.383 58.6899C153.561 58.4454 153.816 58.1119 154.15 57.6895C154.483 57.2671 154.717 56.9114 154.85 56.6224C154.984 56.3334 155.15 56.011 155.35 55.6553C155.551 55.2996 155.695 54.9439 155.784 54.5882C155.873 54.2325 155.951 53.899 156.017 53.5878C156.084 53.2766 156.117 52.9097 156.117 52.4873C156.117 51.0868 155.739 49.8751 154.984 48.8525C154.228 47.8298 153.15 47.3185 151.749 47.3185C151.015 47.3185 150.371 47.5075 149.815 47.8854C149.259 48.2634 148.87 48.6302 148.648 48.9859C148.425 49.3416 148.314 49.5528 148.314 49.6195C148.314 49.6417 148.37 49.6528 148.481 49.6528C148.881 49.6528 149.292 49.8084 149.715 50.1197C150.137 50.4309 150.348 50.9422 150.348 51.6537C150.348 52.2094 150.17 52.6763 149.815 53.0542C149.459 53.4322 148.959 53.6323 148.314 53.6545Z" fill="white"/>
</g>
<path id="Vector_6" d="M164.688 37.7485H124.671V35.7477H164.688V37.7485Z" fill="white"/>
</g>
<g id="Group_7">
<path id="Vector_7" d="M170.426 35.4485C170.582 34.5147 171.182 33.4365 172.227 32.2138C173.272 30.9911 174.561 30.3686 176.095 30.3463C176.873 30.3463 177.585 30.5464 178.23 30.9466C178.874 31.3468 179.352 31.847 179.663 32.4472C180.597 31.0466 181.72 30.3463 183.032 30.3463C183.854 30.3463 184.566 30.5909 185.166 31.08C185.766 31.5691 186.077 32.2249 186.099 33.0475C186.099 33.6922 185.944 34.2146 185.633 34.6148C185.321 35.015 185.021 35.2595 184.732 35.3484C184.443 35.4374 184.188 35.4818 183.965 35.4818C183.543 35.4818 183.198 35.3595 182.931 35.115C182.665 34.8705 182.531 34.5481 182.531 34.1479C182.531 33.1253 183.087 32.425 184.199 32.0471C183.954 31.758 183.51 31.6135 182.865 31.6135C182.576 31.6135 182.365 31.6358 182.231 31.6802C181.386 32.0359 180.764 32.7696 180.364 33.8811C179.03 38.7943 178.363 41.6622 178.363 42.4847C178.363 43.1072 178.541 43.5518 178.896 43.8186C179.252 44.0854 179.641 44.2188 180.064 44.2188C180.886 44.2188 181.698 43.852 182.498 43.1183C183.298 42.3847 183.843 41.4843 184.132 40.4172C184.199 40.1949 184.265 40.0726 184.332 40.0504C184.399 40.0282 184.577 40.0059 184.866 39.9837H184.999C185.332 39.9837 185.499 40.0726 185.499 40.2505C185.499 40.2727 185.477 40.395 185.433 40.6173C185.077 41.8845 184.388 43.0072 183.365 43.9854C182.342 44.9635 181.153 45.4526 179.797 45.4526C178.241 45.4526 177.062 44.7523 176.262 43.3518C175.351 44.7301 174.306 45.4193 173.127 45.4193H172.927C171.838 45.4193 171.06 45.1303 170.593 44.5523C170.126 43.9742 169.882 43.3629 169.859 42.7182C169.859 42.0068 170.071 41.4287 170.493 40.9841C170.915 40.5395 171.416 40.3172 171.994 40.3172C172.95 40.3172 173.428 40.784 173.428 41.7177C173.428 42.1624 173.294 42.5514 173.027 42.8849C172.761 43.2184 172.505 43.4407 172.26 43.5518C172.016 43.663 171.871 43.7186 171.827 43.7186L171.727 43.7519C171.727 43.7742 171.794 43.8186 171.927 43.8853C172.06 43.952 172.238 44.0298 172.46 44.1187C172.683 44.2077 172.894 44.241 173.094 44.2188C173.894 44.2188 174.584 43.7186 175.162 42.7182C175.362 42.3625 175.617 41.6066 175.929 40.4506C176.24 39.2945 176.551 38.094 176.862 36.8491C177.174 35.6041 177.351 34.8705 177.396 34.6481C177.507 34.0479 177.563 33.6144 177.563 33.3476C177.563 32.7251 177.396 32.2805 177.062 32.0137C176.729 31.7469 176.351 31.6135 175.929 31.6135C175.039 31.6135 174.206 31.9692 173.428 32.6806C172.649 33.3921 172.105 34.3035 171.794 35.4151C171.749 35.6152 171.693 35.7264 171.627 35.7486C171.56 35.7708 171.382 35.7931 171.093 35.8153H170.626C170.493 35.6819 170.426 35.5596 170.426 35.4485Z" fill="white"/>
</g>
<g id="Group_8">
<path id="Vector_8" d="M198.896 33.5116C198.896 33.2226 199.052 33.0003 199.363 32.8447H220.606C220.939 33.0225 221.106 33.2449 221.106 33.5116C221.106 33.7562 220.95 33.9674 220.639 34.1452L210.034 34.1786H199.43C199.074 34.0674 198.896 33.8451 198.896 33.5116ZM198.896 39.981C198.896 39.6475 199.074 39.4252 199.43 39.3141H220.639C220.95 39.5364 221.106 39.7587 221.106 39.981C221.106 40.27 220.939 40.4923 220.606 40.6479H199.363C199.052 40.4923 198.896 40.27 198.896 39.981Z" fill="white"/>
</g>
<g id="Group_9">
<path id="Vector_9" d="M234.071 29.8097C234.094 29.7653 234.282 28.5537 234.638 26.1749L235.172 22.6067C235.172 22.5623 235.394 22.54 235.839 22.54H236.506V22.6734C236.506 22.8957 236.672 23.0847 237.006 23.2403C237.339 23.396 237.917 23.496 238.74 23.5405C239.562 23.5849 241.441 23.6072 244.376 23.6072H248.411V24.9077L246.143 28.009C245.943 28.2758 245.609 28.7204 245.143 29.3429C244.676 29.9654 244.376 30.3766 244.242 30.5767C244.109 30.7768 243.875 31.1325 243.542 31.6438C243.208 32.1552 242.986 32.5553 242.875 32.8443C242.764 33.1333 242.608 33.5446 242.408 34.0782C242.208 34.6117 242.064 35.1231 241.975 35.6122C241.886 36.1012 241.797 36.7015 241.708 37.4129C241.619 38.1243 241.552 38.8802 241.508 39.6805C241.463 40.4809 241.43 41.3923 241.408 42.415C241.408 42.7262 241.408 43.0375 241.408 43.3487C241.408 43.66 241.397 43.9267 241.374 44.149V44.4492C241.285 44.8271 241.074 45.1495 240.741 45.4162C240.407 45.683 240.029 45.8164 239.607 45.8164C239.362 45.8164 239.129 45.7831 238.907 45.7164C238.684 45.6497 238.451 45.4385 238.206 45.0828C237.962 44.7271 237.84 44.2824 237.84 43.7489C237.84 40.2363 238.918 36.5903 241.074 32.811C241.519 32.0996 242.453 30.7546 243.875 28.776L245.409 26.6751H242.308C238.44 26.6751 236.406 26.7418 236.206 26.8752C236.072 26.9419 235.95 27.2087 235.839 27.6755C235.728 28.1424 235.616 28.6204 235.505 29.1094L235.405 29.8097V29.9098H234.071V29.8097Z" fill="white"/>
<path id="Vector_10" d="M250.311 34.6451C250.311 31.0214 251.211 28.1535 253.012 26.0415C254.813 23.9295 256.813 22.8735 259.014 22.8735C260.548 22.8735 261.649 23.2737 262.316 24.074C262.983 24.8743 263.316 25.7636 263.316 26.7418C263.316 27.2976 263.16 27.7422 262.849 28.0757C262.538 28.4092 262.104 28.5759 261.549 28.5759C261.037 28.5759 260.615 28.4203 260.281 28.109C259.948 27.7978 259.781 27.3643 259.781 26.8085C259.781 25.8303 260.304 25.2412 261.349 25.0411C260.86 24.552 260.17 24.2741 259.281 24.2074C257.703 24.2074 256.402 24.8743 255.379 26.2082C254.335 27.6755 253.812 29.9209 253.812 32.9444L253.845 33.0778C253.957 32.9444 254.046 32.7999 254.112 32.6443C255.024 31.3104 256.213 30.6434 257.68 30.6434H257.814C258.836 30.6434 259.737 30.8546 260.515 31.277C261.048 31.5883 261.582 32.0329 262.116 32.6109C262.649 33.1889 263.083 33.8225 263.416 34.5117C263.883 35.601 264.116 36.7904 264.116 38.0798V38.6801C264.116 39.1914 264.061 39.6694 263.95 40.114C263.705 41.4257 262.994 42.704 261.815 43.949C260.637 45.1939 259.148 45.8164 257.347 45.8164C256.724 45.8164 256.124 45.7275 255.546 45.5496C254.968 45.3718 254.346 45.0383 253.679 44.5492C253.012 44.0601 252.445 43.4043 251.978 42.5817C251.511 41.7592 251.111 40.6809 250.778 39.347C250.444 38.0132 250.288 36.4458 250.311 34.6451ZM257.48 31.8439C256.813 31.8439 256.235 32.0329 255.746 32.4108C255.257 32.7888 254.879 33.289 254.612 33.9114C254.346 34.5339 254.157 35.1675 254.046 35.8122C253.934 36.457 253.868 37.1461 253.845 37.8798C253.845 39.725 253.979 41.0478 254.246 41.8481C254.512 42.6484 254.935 43.2931 255.513 43.7822C256.046 44.1824 256.636 44.3825 257.28 44.3825C258.414 44.3825 259.281 43.9601 259.881 43.1153C260.17 42.7151 260.37 42.2149 260.482 41.6147C260.593 41.0144 260.648 39.8473 260.648 38.1132C260.648 36.3347 260.593 35.1453 260.482 34.545C260.37 33.9448 260.17 33.4446 259.881 33.0444C259.281 32.2441 258.481 31.8439 257.48 31.8439Z" fill="white"/>
<path id="Vector_11" d="M268.785 25.5746C270.03 23.7739 271.73 22.8735 273.887 22.8735C274.954 22.8735 276.021 23.1625 277.088 23.7405C278.155 24.3186 279.022 25.3412 279.689 26.8085C280.512 28.6537 280.923 31.1881 280.923 34.4117C280.923 37.8575 280.445 40.492 279.489 42.3149C279.044 43.2487 278.433 43.9934 277.655 44.5492C276.877 45.105 276.199 45.4496 275.621 45.583C275.043 45.7164 274.476 45.7942 273.92 45.8164C273.342 45.8164 272.764 45.7497 272.186 45.6163C271.608 45.4829 270.93 45.1272 270.152 44.5492C269.374 43.9712 268.762 43.2264 268.318 42.3149C267.362 40.492 266.884 37.8575 266.884 34.4117C266.884 30.5434 267.517 27.5977 268.785 25.5746ZM276.288 25.1745C275.621 24.4631 274.832 24.1074 273.92 24.1074C272.986 24.1074 272.186 24.4631 271.519 25.1745C270.963 25.7525 270.596 26.5528 270.419 27.5755C270.241 28.5981 270.152 30.7323 270.152 33.9781C270.152 37.4907 270.241 39.8028 270.419 40.9144C270.596 42.0259 270.997 42.9041 271.619 43.5488C272.242 44.2157 273.009 44.5492 273.92 44.5492C274.809 44.5492 275.565 44.2157 276.188 43.5488C276.832 42.8819 277.233 41.9481 277.388 40.7476C277.544 39.5471 277.633 37.2906 277.655 33.9781C277.655 30.7546 277.566 28.6315 277.388 27.6088C277.21 26.5862 276.843 25.7747 276.288 25.1745Z" fill="white"/>
</g>
</g>
<g id="Group 575">
<g id="Group_10">
<path id="Vector_12" d="M4.33514 116.08L3.90163 116.247C3.59038 116.358 3.14575 116.469 2.56774 116.58C1.98972 116.692 1.345 116.769 0.633597 116.814H0V115.28H0.633597C1.67848 115.235 2.64555 115.069 3.53481 114.78C4.42407 114.491 5.04655 114.224 5.40225 113.979C5.75795 113.735 6.0692 113.49 6.33597 113.246C6.38044 113.179 6.51382 113.146 6.73614 113.146C6.93622 113.146 7.12519 113.212 7.30304 113.346V123.317L7.33639 133.321C7.49201 133.476 7.6254 133.576 7.73656 133.621C7.84771 133.665 8.11449 133.71 8.53689 133.754C8.95929 133.799 9.64846 133.821 10.6044 133.821H11.4714V135.355H11.1046C10.6378 135.288 8.87036 135.255 5.80242 135.255C2.77894 135.255 1.03376 135.288 0.566903 135.355H0.166736V133.821H1.03376C1.52286 133.821 1.94525 133.821 2.30096 133.821C2.65666 133.821 2.93456 133.81 3.13464 133.788C3.33472 133.765 3.51257 133.732 3.6682 133.688C3.82382 133.643 3.91274 133.621 3.93497 133.621C3.9572 133.621 4.0239 133.565 4.13506 133.454C4.24621 133.343 4.31291 133.299 4.33514 133.321V116.08Z" fill="white"/>
<path id="Vector_13" d="M17.5417 121.049C16.9415 121.049 16.4635 120.849 16.1078 120.449C15.7521 120.049 15.5742 119.56 15.5742 118.981C15.5742 117.403 16.1634 116.036 17.3416 114.88C18.5199 113.724 19.9872 113.146 21.7435 113.146C23.7665 113.146 25.4561 113.768 26.8122 115.013C28.1684 116.258 28.8575 117.87 28.8798 119.849C28.8798 120.804 28.6574 121.716 28.2128 122.583C27.7682 123.45 27.2346 124.206 26.6122 124.851C25.9897 125.495 25.1004 126.318 23.9444 127.318C23.144 128.007 22.0325 129.03 20.6097 130.386L18.6422 132.254L21.1766 132.287C24.6669 132.287 26.5232 132.231 26.7455 132.12C26.9012 132.076 27.1679 131.087 27.5459 129.152V129.052H28.8798V129.152C28.8575 129.219 28.713 130.231 28.4462 132.187C28.1795 134.143 28.0127 135.166 27.946 135.255V135.355H15.5742V134.721V134.321C15.5742 134.166 15.6409 133.999 15.7743 133.821C15.9077 133.643 16.2412 133.254 16.7747 132.654C17.4194 131.942 17.9752 131.32 18.4421 130.786C18.6422 130.564 19.0201 130.153 19.5759 129.553C20.1317 128.952 20.5096 128.541 20.7097 128.319C20.9098 128.096 21.2321 127.73 21.6768 127.218C22.1214 126.707 22.4326 126.329 22.6105 126.084C22.7883 125.84 23.044 125.506 23.3775 125.084C23.7109 124.662 23.9444 124.306 24.0778 124.017C24.2112 123.728 24.3779 123.406 24.578 123.05C24.7781 122.694 24.9226 122.338 25.0115 121.983C25.1004 121.627 25.1782 121.294 25.2449 120.982C25.3116 120.671 25.345 120.304 25.345 119.882C25.345 118.481 24.967 117.27 24.2112 116.247C23.4553 115.224 22.3771 114.713 20.9765 114.713C20.2428 114.713 19.5981 114.902 19.0423 115.28C18.4865 115.658 18.0975 116.025 17.8752 116.38C17.6529 116.736 17.5417 116.947 17.5417 117.014C17.5417 117.036 17.5973 117.047 17.7084 117.047C18.1086 117.047 18.5199 117.203 18.9423 117.514C19.3647 117.825 19.5759 118.337 19.5759 119.048C19.5759 119.604 19.398 120.071 19.0423 120.449C18.6866 120.827 18.1864 121.027 17.5417 121.049Z" fill="white"/>
</g>
<g id="Group_11">
<path id="Vector_14" d="M58.9964 134.385C58.9964 134.83 58.7629 135.052 58.2961 135.052C58.1849 135.052 57.9404 134.874 57.5624 134.519C57.1845 134.163 56.1396 133.129 54.4278 131.417L50.9597 127.949L47.4582 131.451C45.1017 133.763 43.8901 134.941 43.8234 134.986C43.7344 135.03 43.6566 135.052 43.5899 135.052C43.4121 135.052 43.2565 134.986 43.1231 134.852C42.9897 134.719 42.9119 134.563 42.8896 134.385C42.8896 134.23 43.0453 133.985 43.3565 133.652C43.6678 133.318 44.7126 132.262 46.4911 130.484L49.9593 127.016L46.4911 123.547C44.6904 121.747 43.6455 120.691 43.3565 120.379C43.0675 120.068 42.9119 119.824 42.8896 119.646C42.8896 119.446 42.9563 119.29 43.0897 119.179C43.2231 119.068 43.3899 119.012 43.5899 119.012C43.7011 119.012 43.7789 119.023 43.8234 119.046C43.8901 119.09 45.1017 120.268 47.4582 122.58L50.9597 126.082L54.4278 122.614C56.1396 120.902 57.1845 119.868 57.5624 119.512C57.9404 119.157 58.1849 118.979 58.2961 118.979C58.7629 118.979 58.9964 119.201 58.9964 119.646C58.9964 119.801 58.8852 120.002 58.6629 120.246C58.4406 120.491 57.3512 121.58 55.3949 123.514L51.9267 127.016L55.3949 130.517C57.2623 132.384 58.3294 133.463 58.5962 133.752C58.863 134.041 58.9964 134.252 58.9964 134.385Z" fill="white"/>
</g>
<g id="Group_12">
<g id="Group_13">
<path id="Vector_15" d="M94.7188 166.7C94.7188 166.767 94.6521 166.867 94.5187 167H93.4849C93.4405 166.956 93.1292 166.655 92.5512 166.1C91.9732 165.544 91.473 165.066 91.0506 164.666C90.6282 164.266 90.0279 163.587 89.2498 162.632C88.4717 161.676 87.7826 160.775 87.1823 159.93C86.5821 159.086 85.8818 157.963 85.0814 156.562C84.2811 155.162 83.5919 153.772 83.0139 152.394C82.4359 151.016 81.8245 149.359 81.1798 147.425C80.5351 145.491 80.0349 143.535 79.6792 141.556C79.3235 139.577 79.0011 137.321 78.7121 134.787C78.4231 132.252 78.2897 129.651 78.312 126.983C78.312 111.177 82.3581 98.8383 90.4503 89.9679C90.9617 89.4121 91.4396 88.923 91.8843 88.5006C92.3289 88.0782 92.6957 87.7225 92.9847 87.4335C93.2737 87.1445 93.4405 87 93.4849 87H94.5187C94.6521 87.1334 94.7188 87.2334 94.7188 87.3001C94.7188 87.4113 94.4965 87.7003 94.0518 88.1672C93.6072 88.634 93.0292 89.2898 92.3178 90.1346C91.6064 90.9794 90.806 92.0354 89.9168 93.3026C89.0275 94.5698 88.1272 96.1594 87.2157 98.0713C86.3042 99.9832 85.4594 102.106 84.6813 104.441C83.9032 106.775 83.2362 109.576 82.6804 112.844C82.1247 116.112 81.7689 119.625 81.6133 123.382C81.5689 124.227 81.5466 125.438 81.5466 127.017C81.5466 135.665 82.5915 143.223 84.6813 149.693C86.771 156.162 89.9946 161.653 94.352 166.166C94.5965 166.433 94.7188 166.611 94.7188 166.7Z" fill="white"/>
</g>
<g id="Group_14">
<path id="Vector_16" d="M97.6206 125.718C97.7762 124.784 98.3765 123.706 99.4214 122.483C100.466 121.261 101.756 120.638 103.29 120.616C104.068 120.616 104.779 120.816 105.424 121.216C106.069 121.616 106.547 122.116 106.858 122.717C107.792 121.316 108.914 120.616 110.226 120.616C111.048 120.616 111.76 120.86 112.36 121.35C112.96 121.839 113.272 122.494 113.294 123.317C113.294 123.962 113.138 124.484 112.827 124.884C112.516 125.284 112.216 125.529 111.927 125.618C111.638 125.707 111.382 125.751 111.16 125.751C110.737 125.751 110.393 125.629 110.126 125.385C109.859 125.14 109.726 124.818 109.726 124.417C109.726 123.395 110.281 122.695 111.393 122.317C111.148 122.028 110.704 121.883 110.059 121.883C109.77 121.883 109.559 121.905 109.426 121.95C108.581 122.305 107.958 123.039 107.558 124.151C106.224 129.064 105.557 131.932 105.557 132.754C105.557 133.377 105.735 133.821 106.091 134.088C106.447 134.355 106.836 134.488 107.258 134.488C108.081 134.488 108.892 134.122 109.692 133.388C110.493 132.654 111.037 131.754 111.326 130.687C111.393 130.464 111.46 130.342 111.526 130.32C111.593 130.298 111.771 130.275 112.06 130.253H112.193C112.527 130.253 112.694 130.342 112.694 130.52C112.694 130.542 112.671 130.665 112.627 130.887C112.271 132.154 111.582 133.277 110.559 134.255C109.537 135.233 108.347 135.722 106.991 135.722C105.435 135.722 104.257 135.022 103.456 133.621C102.545 135 101.5 135.689 100.322 135.689H100.122C99.0323 135.689 98.2542 135.4 97.7873 134.822C97.3205 134.244 97.0759 133.632 97.0537 132.988C97.0537 132.276 97.2649 131.698 97.6873 131.254C98.1097 130.809 98.6099 130.587 99.1879 130.587C100.144 130.587 100.622 131.054 100.622 131.987C100.622 132.432 100.488 132.821 100.222 133.154C99.9549 133.488 99.6993 133.71 99.4547 133.821C99.2102 133.933 99.0657 133.988 99.0212 133.988L98.9212 134.021C98.9212 134.044 98.9879 134.088 99.1212 134.155C99.2546 134.222 99.4325 134.299 99.6548 134.388C99.8771 134.477 100.088 134.511 100.288 134.488C101.089 134.488 101.778 133.988 102.356 132.988C102.556 132.632 102.812 131.876 103.123 130.72C103.434 129.564 103.745 128.364 104.057 127.119C104.368 125.874 104.546 125.14 104.59 124.918C104.701 124.317 104.757 123.884 104.757 123.617C104.757 122.995 104.59 122.55 104.257 122.283C103.923 122.016 103.545 121.883 103.123 121.883C102.234 121.883 101.4 122.239 100.622 122.95C99.8438 123.662 99.2991 124.573 98.9879 125.685C98.9434 125.885 98.8878 125.996 98.8211 126.018C98.7544 126.04 98.5766 126.063 98.2876 126.085H97.8207C97.6873 125.951 97.6206 125.829 97.6206 125.718Z" fill="white"/>
</g>
<g id="Group_15">
<path id="Vector_17" d="M124.239 127.451C124.239 127.451 124.239 127.306 124.239 127.017C124.239 126.728 124.395 126.506 124.706 126.35H134.677V121.348L134.71 116.346C134.933 116.057 135.144 115.912 135.344 115.912C135.633 115.912 135.855 116.079 136.011 116.413V126.35H145.948C146.282 126.528 146.449 126.75 146.449 127.017C146.449 127.284 146.282 127.506 145.948 127.684H136.011V137.622C135.833 137.933 135.633 138.088 135.411 138.088H135.344H135.277C135.01 138.088 134.81 137.933 134.677 137.622V127.684H124.706C124.395 127.528 124.239 127.306 124.239 127.017V127.451Z" fill="white"/>
</g>
<g id="Group_16">
<g id="Group_17">
<path id="Vector_18" d="M173.231 97.5392C173.254 97.4948 173.443 96.2832 173.798 93.9044L174.332 90.3362C174.332 90.2918 174.554 90.2695 174.999 90.2695H175.666V90.4029C175.666 90.6252 175.833 90.8142 176.166 90.9698C176.499 91.1254 177.077 91.2255 177.9 91.27C178.723 91.3144 180.601 91.3366 183.536 91.3366H187.571V92.6372L185.303 95.7385C185.103 96.0053 184.77 96.4499 184.303 97.0724C183.836 97.6949 183.536 98.1061 183.402 98.3062C183.269 98.5063 183.036 98.862 182.702 99.3733C182.369 99.8847 182.146 100.285 182.035 100.574C181.924 100.863 181.768 101.274 181.568 101.808C181.368 102.341 181.224 102.853 181.135 103.342C181.046 103.831 180.957 104.431 180.868 105.142C180.779 105.854 180.712 106.61 180.668 107.41C180.623 108.21 180.59 109.122 180.568 110.144C180.568 110.456 180.568 110.767 180.568 111.078C180.568 111.389 180.557 111.656 180.534 111.879V112.179C180.446 112.557 180.234 112.879 179.901 113.146C179.567 113.413 179.189 113.546 178.767 113.546C178.523 113.546 178.289 113.513 178.067 113.446C177.844 113.379 177.611 113.168 177.367 112.812C177.122 112.457 177 112.012 177 111.478C177 107.966 178.078 104.32 180.234 100.54C180.679 99.8291 181.613 98.4841 183.036 96.5055L184.57 94.4046H181.468C177.6 94.4046 175.566 94.4713 175.366 94.6047C175.232 94.6714 175.11 94.9381 174.999 95.405C174.888 95.8719 174.777 96.3498 174.665 96.8389L174.565 97.5392V97.6393H173.231V97.5392Z" fill="white"/>
</g>
<g id="Group_18">
<path id="Vector_19" d="M170.161 138.955L169.728 139.122C169.417 139.233 168.972 139.344 168.394 139.455C167.816 139.567 167.171 139.644 166.46 139.689H165.826V138.155H166.46C167.505 138.11 168.472 137.944 169.361 137.655C170.25 137.366 170.873 137.099 171.228 136.854C171.584 136.61 171.895 136.365 172.162 136.121C172.207 136.054 172.34 136.021 172.562 136.021C172.762 136.021 172.951 136.087 173.129 136.221V146.192L173.163 156.196C173.318 156.351 173.452 156.451 173.563 156.496C173.674 156.54 173.941 156.585 174.363 156.629C174.785 156.674 175.475 156.696 176.431 156.696H177.298V158.23H176.931C176.464 158.163 174.697 158.13 171.629 158.13C168.605 158.13 166.86 158.163 166.393 158.23H165.993V156.696H166.86C167.349 156.696 167.771 156.696 168.127 156.696C168.483 156.696 168.761 156.685 168.961 156.663C169.161 156.64 169.339 156.607 169.494 156.563C169.65 156.518 169.739 156.496 169.761 156.496C169.783 156.496 169.85 156.44 169.961 156.329C170.072 156.218 170.139 156.174 170.161 156.196V138.955Z" fill="white"/>
<path id="Vector_20" d="M183.368 143.924C182.768 143.924 182.29 143.724 181.934 143.324C181.578 142.924 181.4 142.435 181.4 141.856C181.4 140.278 181.99 138.911 183.168 137.755C184.346 136.599 185.813 136.021 187.57 136.021C189.593 136.021 191.282 136.643 192.638 137.888C193.995 139.133 194.684 140.745 194.706 142.724C194.706 143.679 194.484 144.591 194.039 145.458C193.594 146.325 193.061 147.081 192.438 147.726C191.816 148.37 190.927 149.193 189.771 150.193C188.97 150.882 187.859 151.905 186.436 153.261L184.468 155.129L187.003 155.162C190.493 155.162 192.349 155.106 192.572 154.995C192.727 154.951 192.994 153.962 193.372 152.027V151.927H194.706V152.027C194.684 152.094 194.539 153.106 194.272 155.062C194.006 157.018 193.839 158.041 193.772 158.13V158.23H181.4V157.596V157.196C181.4 157.041 181.467 156.874 181.6 156.696C181.734 156.518 182.067 156.129 182.601 155.529C183.246 154.817 183.801 154.195 184.268 153.661C184.468 153.439 184.846 153.028 185.402 152.428C185.958 151.827 186.336 151.416 186.536 151.194C186.736 150.971 187.058 150.605 187.503 150.093C187.948 149.582 188.259 149.204 188.437 148.959C188.615 148.715 188.87 148.381 189.204 147.959C189.537 147.537 189.771 147.181 189.904 146.892C190.037 146.603 190.204 146.281 190.404 145.925C190.604 145.569 190.749 145.213 190.838 144.858C190.927 144.502 191.004 144.169 191.071 143.857C191.138 143.546 191.171 143.179 191.171 142.757C191.171 141.356 190.793 140.145 190.037 139.122C189.281 138.099 188.203 137.588 186.803 137.588C186.069 137.588 185.424 137.777 184.869 138.155C184.313 138.533 183.924 138.9 183.701 139.255C183.479 139.611 183.368 139.822 183.368 139.889C183.368 139.911 183.423 139.922 183.535 139.922C183.935 139.922 184.346 140.078 184.768 140.389C185.191 140.7 185.402 141.212 185.402 141.923C185.402 142.479 185.224 142.946 184.869 143.324C184.513 143.702 184.013 143.902 183.368 143.924Z" fill="white"/>
</g>
<path id="Vector_21" d="M199.741 128.018H159.725V126.017H199.741V128.018Z" fill="white"/>
</g>
<g id="Group_19">
<path id="Vector_22" d="M205.479 125.718C205.635 124.784 206.235 123.706 207.28 122.483C208.325 121.261 209.614 120.638 211.148 120.616C211.926 120.616 212.638 120.816 213.282 121.216C213.927 121.616 214.405 122.116 214.716 122.717C215.65 121.316 216.773 120.616 218.084 120.616C218.907 120.616 219.618 120.86 220.218 121.35C220.819 121.839 221.13 122.494 221.152 123.317C221.152 123.962 220.997 124.484 220.685 124.884C220.374 125.284 220.074 125.529 219.785 125.618C219.496 125.707 219.24 125.751 219.018 125.751C218.596 125.751 218.251 125.629 217.984 125.385C217.717 125.14 217.584 124.818 217.584 124.417C217.584 123.395 218.14 122.695 219.251 122.317C219.007 122.028 218.562 121.883 217.918 121.883C217.629 121.883 217.417 121.905 217.284 121.95C216.439 122.305 215.817 123.039 215.416 124.151C214.083 129.064 213.416 131.932 213.416 132.754C213.416 133.377 213.594 133.821 213.949 134.088C214.305 134.355 214.694 134.488 215.116 134.488C215.939 134.488 216.75 134.122 217.551 133.388C218.351 132.654 218.896 131.754 219.185 130.687C219.251 130.464 219.318 130.342 219.385 130.32C219.452 130.298 219.629 130.275 219.918 130.253H220.052C220.385 130.253 220.552 130.342 220.552 130.52C220.552 130.542 220.53 130.665 220.485 130.887C220.13 132.154 219.44 133.277 218.418 134.255C217.395 135.233 216.206 135.722 214.85 135.722C213.293 135.722 212.115 135.022 211.315 133.621C210.403 135 209.358 135.689 208.18 135.689H207.98C206.891 135.689 206.113 135.4 205.646 134.822C205.179 134.244 204.934 133.632 204.912 132.988C204.912 132.276 205.123 131.698 205.546 131.254C205.968 130.809 206.468 130.587 207.046 130.587C208.002 130.587 208.48 131.054 208.48 131.987C208.48 132.432 208.347 132.821 208.08 133.154C207.813 133.488 207.558 133.71 207.313 133.821C207.069 133.933 206.924 133.988 206.88 133.988L206.78 134.021C206.78 134.044 206.846 134.088 206.98 134.155C207.113 134.222 207.291 134.299 207.513 134.388C207.736 134.477 207.947 134.511 208.147 134.488C208.947 134.488 209.636 133.988 210.214 132.988C210.414 132.632 210.67 131.876 210.981 130.72C211.293 129.564 211.604 128.364 211.915 127.119C212.226 125.874 212.404 125.14 212.449 124.918C212.56 124.317 212.615 123.884 212.615 123.617C212.615 122.995 212.449 122.55 212.115 122.283C211.782 122.016 211.404 121.883 210.981 121.883C210.092 121.883 209.258 122.239 208.48 122.95C207.702 123.662 207.157 124.573 206.846 125.685C206.802 125.885 206.746 125.996 206.68 126.018C206.613 126.04 206.435 126.063 206.146 126.085H205.679C205.546 125.951 205.479 125.829 205.479 125.718Z" fill="white"/>
</g>
<g id="Group_20">
<path id="Vector_23" d="M233.95 123.781C233.95 123.492 234.106 123.27 234.417 123.114H255.659C255.993 123.292 256.159 123.514 256.159 123.781C256.159 124.026 256.004 124.237 255.693 124.415L245.088 124.448H234.484C234.128 124.337 233.95 124.115 233.95 123.781ZM233.95 130.251C233.95 129.917 234.128 129.695 234.484 129.584H255.693C256.004 129.806 256.159 130.028 256.159 130.251C256.159 130.54 255.993 130.762 255.659 130.917H234.417C234.106 130.762 233.95 130.54 233.95 130.251Z" fill="white"/>
</g>
<g id="Group_21">
<path id="Vector_24" d="M269.125 120.079C269.147 120.035 269.336 118.823 269.692 116.444L270.225 112.876C270.225 112.832 270.448 112.81 270.892 112.81H271.559V112.943C271.559 113.165 271.726 113.354 272.06 113.51C272.393 113.665 272.971 113.766 273.794 113.81C274.616 113.854 276.495 113.877 279.429 113.877H283.464V115.177L281.197 118.279C280.997 118.545 280.663 118.99 280.196 119.612C279.729 120.235 279.429 120.646 279.296 120.846C279.163 121.046 278.929 121.402 278.596 121.913C278.262 122.425 278.04 122.825 277.929 123.114C277.818 123.403 277.662 123.814 277.462 124.348C277.262 124.881 277.117 125.393 277.028 125.882C276.939 126.371 276.85 126.971 276.762 127.682C276.673 128.394 276.606 129.15 276.561 129.95C276.517 130.75 276.484 131.662 276.461 132.685C276.461 132.996 276.461 133.307 276.461 133.618C276.461 133.929 276.45 134.196 276.428 134.419V134.719C276.339 135.097 276.128 135.419 275.794 135.686C275.461 135.953 275.083 136.086 274.661 136.086C274.416 136.086 274.183 136.053 273.96 135.986C273.738 135.919 273.505 135.708 273.26 135.352C273.016 134.997 272.893 134.552 272.893 134.018C272.893 130.506 273.971 126.86 276.128 123.081C276.573 122.369 277.506 121.024 278.929 119.046L280.463 116.945H277.362C273.493 116.945 271.459 117.011 271.259 117.145C271.126 117.211 271.004 117.478 270.892 117.945C270.781 118.412 270.67 118.89 270.559 119.379L270.459 120.079V120.179H269.125V120.079Z" fill="white"/>
<path id="Vector_25" d="M285.364 124.915C285.364 121.291 286.265 118.423 288.066 116.311C289.866 114.199 291.867 113.143 294.068 113.143C295.602 113.143 296.702 113.543 297.369 114.344C298.036 115.144 298.37 116.033 298.37 117.011C298.37 117.567 298.214 118.012 297.903 118.345C297.592 118.679 297.158 118.845 296.602 118.845C296.091 118.845 295.669 118.69 295.335 118.379C295.002 118.067 294.835 117.634 294.835 117.078C294.835 116.1 295.357 115.511 296.402 115.311C295.913 114.822 295.224 114.544 294.335 114.477C292.756 114.477 291.456 115.144 290.433 116.478C289.388 117.945 288.866 120.19 288.866 123.214L288.899 123.347C289.01 123.214 289.099 123.069 289.166 122.914C290.077 121.58 291.267 120.913 292.734 120.913H292.868C293.89 120.913 294.791 121.124 295.569 121.547C296.102 121.858 296.636 122.302 297.169 122.88C297.703 123.458 298.136 124.092 298.47 124.781C298.937 125.871 299.17 127.06 299.17 128.349V128.95C299.17 129.461 299.115 129.939 299.003 130.384C298.759 131.695 298.047 132.974 296.869 134.218C295.691 135.463 294.201 136.086 292.401 136.086C291.778 136.086 291.178 135.997 290.6 135.819C290.022 135.641 289.399 135.308 288.732 134.819C288.066 134.33 287.499 133.674 287.032 132.851C286.565 132.029 286.165 130.95 285.831 129.617C285.498 128.283 285.342 126.715 285.364 124.915ZM292.534 122.113C291.867 122.113 291.289 122.302 290.8 122.68C290.311 123.058 289.933 123.558 289.666 124.181C289.399 124.803 289.21 125.437 289.099 126.082C288.988 126.726 288.921 127.416 288.899 128.149C288.899 129.995 289.033 131.317 289.299 132.118C289.566 132.918 289.989 133.563 290.567 134.052C291.1 134.452 291.689 134.652 292.334 134.652C293.468 134.652 294.335 134.23 294.935 133.385C295.224 132.985 295.424 132.484 295.535 131.884C295.646 131.284 295.702 130.117 295.702 128.383C295.702 126.604 295.646 125.415 295.535 124.815C295.424 124.214 295.224 123.714 294.935 123.314C294.335 122.514 293.534 122.113 292.534 122.113Z" fill="white"/>
<path id="Vector_26" d="M303.838 115.844C305.083 114.043 306.784 113.143 308.94 113.143C310.008 113.143 311.075 113.432 312.142 114.01C313.209 114.588 314.076 115.611 314.743 117.078C315.565 118.923 315.977 121.458 315.977 124.681C315.977 128.127 315.499 130.761 314.543 132.584C314.098 133.518 313.487 134.263 312.709 134.819C311.931 135.375 311.252 135.719 310.674 135.853C310.096 135.986 309.53 136.064 308.974 136.086C308.396 136.086 307.818 136.019 307.24 135.886C306.662 135.752 305.984 135.397 305.206 134.819C304.427 134.241 303.816 133.496 303.371 132.584C302.415 130.761 301.938 128.127 301.938 124.681C301.938 120.813 302.571 117.867 303.838 115.844ZM311.341 115.444C310.674 114.733 309.885 114.377 308.974 114.377C308.04 114.377 307.24 114.733 306.573 115.444C306.017 116.022 305.65 116.822 305.472 117.845C305.294 118.868 305.206 121.002 305.206 124.248C305.206 127.76 305.294 130.072 305.472 131.184C305.65 132.295 306.05 133.174 306.673 133.818C307.295 134.485 308.062 134.819 308.974 134.819C309.863 134.819 310.619 134.485 311.241 133.818C311.886 133.151 312.286 132.218 312.442 131.017C312.597 129.817 312.686 127.56 312.709 124.248C312.709 121.024 312.62 118.901 312.442 117.878C312.264 116.856 311.897 116.044 311.341 115.444Z" fill="white"/>
</g>
<g id="Group_22">
<path id="Vector_27" d="M318.448 87.4002C318.448 87.2223 318.482 87.1112 318.548 87.0667C318.615 87.0222 318.759 87 318.982 87H319.182H319.682C319.727 87.0445 320.038 87.3446 320.616 87.9004C321.194 88.4562 321.694 88.9341 322.116 89.3343C322.539 89.7345 323.139 90.4125 323.917 91.3685C324.695 92.3244 325.384 93.2248 325.985 94.0696C326.585 94.9144 327.285 96.0371 328.086 97.4377C328.886 98.8383 329.575 100.217 330.153 101.573C330.731 102.929 331.343 104.585 331.987 106.541C332.632 108.498 333.132 110.454 333.488 112.411C333.844 114.367 334.166 116.623 334.455 119.18C334.744 121.737 334.877 124.338 334.855 126.983C334.855 129.584 334.777 131.785 334.622 133.586C333.577 146.302 329.608 156.451 322.717 164.032C322.205 164.588 321.727 165.077 321.283 165.499C320.838 165.922 320.471 166.277 320.182 166.566C319.893 166.855 319.727 167 319.682 167H319.182C318.893 167 318.704 166.978 318.615 166.933C318.526 166.889 318.47 166.778 318.448 166.6C319.649 165.399 320.827 164.021 321.983 162.465C328.386 153.95 331.587 142.123 331.587 126.983C331.587 122.493 331.298 118.302 330.72 114.411C330.142 110.521 329.431 107.253 328.586 104.607C327.741 101.962 326.707 99.4719 325.485 97.1376C324.262 94.8033 323.15 92.9914 322.15 91.702C321.149 90.4125 320.049 89.1231 318.848 87.8337C318.804 87.7892 318.759 87.7448 318.715 87.7003C318.671 87.6558 318.637 87.6114 318.615 87.5669C318.593 87.5224 318.559 87.4891 318.515 87.4669L318.448 87.4002Z" fill="white"/>
</g>
</g>
</g>
<g id="Group 576">
<g id="Group_23">
<path id="Vector_28" d="M34.3351 206.271L33.9016 206.437C33.5904 206.549 33.1458 206.66 32.5677 206.771C31.9897 206.882 31.345 206.96 30.6336 207.004H30V205.47H30.6336C31.6785 205.426 32.6455 205.259 33.5348 204.97C34.4241 204.681 35.0465 204.414 35.4023 204.17C35.758 203.925 36.0692 203.681 36.336 203.436C36.3804 203.37 36.5138 203.336 36.7361 203.336C36.9362 203.336 37.1252 203.403 37.303 203.536V213.507L37.3364 223.511C37.492 223.667 37.6254 223.767 37.7366 223.811C37.8477 223.856 38.1145 223.9 38.5369 223.945C38.9593 223.989 39.6485 224.011 40.6044 224.011H41.4714V225.545H41.1046C40.6378 225.479 38.8704 225.445 35.8024 225.445C32.7789 225.445 31.0338 225.479 30.5669 225.545H30.1667V224.011H31.0338C31.5229 224.011 31.9453 224.011 32.301 224.011C32.6567 224.011 32.9346 224 33.1346 223.978C33.3347 223.956 33.5126 223.923 33.6682 223.878C33.8238 223.834 33.9127 223.811 33.935 223.811C33.9572 223.811 34.0239 223.756 34.1351 223.645C34.2462 223.533 34.3129 223.489 34.3351 223.511V206.271Z" fill="white"/>
<path id="Vector_29" d="M47.5417 211.239C46.9415 211.239 46.4635 211.039 46.1078 210.639C45.7521 210.239 45.5742 209.75 45.5742 209.172C45.5742 207.593 46.1634 206.226 47.3416 205.07C48.5199 203.914 49.9872 203.336 51.7435 203.336C53.7665 203.336 55.4561 203.959 56.8122 205.204C58.1684 206.449 58.8575 208.06 58.8798 210.039C58.8798 210.995 58.6574 211.906 58.2128 212.773C57.7682 213.64 57.2346 214.396 56.6122 215.041C55.9897 215.686 55.1004 216.508 53.9444 217.509C53.144 218.198 52.0325 219.221 50.6097 220.577L48.6422 222.444L51.1766 222.477C54.6669 222.477 56.5232 222.422 56.7455 222.311C56.9012 222.266 57.1679 221.277 57.5459 219.343V219.243H58.8798V219.343C58.8575 219.41 58.713 220.421 58.4462 222.377C58.1795 224.334 58.0127 225.356 57.946 225.445V225.545H45.5742V224.912V224.512C45.5742 224.356 45.6409 224.189 45.7743 224.011C45.9077 223.834 46.2412 223.445 46.7747 222.844C47.4194 222.133 47.9752 221.51 48.4421 220.977C48.6422 220.755 49.0201 220.343 49.5759 219.743C50.1317 219.143 50.5096 218.731 50.7097 218.509C50.9098 218.287 51.2321 217.92 51.6768 217.409C52.1214 216.897 52.4326 216.519 52.6105 216.275C52.7883 216.03 53.044 215.697 53.3775 215.274C53.7109 214.852 53.9444 214.496 54.0778 214.207C54.2112 213.918 54.3779 213.596 54.578 213.24C54.7781 212.885 54.9226 212.529 55.0115 212.173C55.1004 211.817 55.1782 211.484 55.2449 211.173C55.3116 210.862 55.345 210.495 55.345 210.072C55.345 208.672 54.967 207.46 54.2112 206.437C53.4553 205.415 52.3771 204.903 50.9765 204.903C50.2428 204.903 49.5981 205.092 49.0423 205.47C48.4865 205.848 48.0975 206.215 47.8752 206.571C47.6529 206.927 47.5417 207.138 47.5417 207.204C47.5417 207.227 47.5973 207.238 47.7084 207.238C48.1086 207.238 48.5199 207.393 48.9423 207.705C49.3647 208.016 49.5759 208.527 49.5759 209.239C49.5759 209.794 49.398 210.261 49.0423 210.639C48.6866 211.017 48.1864 211.217 47.5417 211.239Z" fill="white"/>
</g>
<g id="Group_24">
<path id="Vector_30" d="M62.313 215.908C62.4686 214.975 63.0689 213.896 64.1137 212.674C65.1586 211.451 66.4481 210.829 67.982 210.806C68.7601 210.806 69.4715 211.006 70.1162 211.407C70.761 211.807 71.2389 212.307 71.5502 212.907C72.4839 211.507 73.6066 210.806 74.9183 210.806C75.7408 210.806 76.4522 211.051 77.0525 211.54C77.6527 212.029 77.964 212.685 77.9862 213.507C77.9862 214.152 77.8306 214.675 77.5193 215.075C77.2081 215.475 76.908 215.719 76.619 215.808C76.3299 215.897 76.0743 215.942 75.852 215.942C75.4296 215.942 75.085 215.82 74.8182 215.575C74.5514 215.33 74.418 215.008 74.418 214.608C74.418 213.585 74.9738 212.885 76.0854 212.507C75.8409 212.218 75.3962 212.073 74.7515 212.073C74.4625 212.073 74.2513 212.096 74.1179 212.14C73.2731 212.496 72.6506 213.23 72.2505 214.341C70.9166 219.254 70.2496 222.122 70.2496 222.945C70.2496 223.567 70.4275 224.012 70.7832 224.279C71.1389 224.545 71.5279 224.679 71.9503 224.679C72.7729 224.679 73.5844 224.312 74.3847 223.578C75.185 222.845 75.7297 221.944 76.0187 220.877C76.0854 220.655 76.1521 220.533 76.2188 220.51C76.2855 220.488 76.4633 220.466 76.7523 220.444H76.8857C77.2192 220.444 77.3859 220.533 77.3859 220.71C77.3859 220.733 77.3637 220.855 77.3193 221.077C76.9635 222.344 76.2744 223.467 75.2517 224.445C74.2291 225.424 73.0397 225.913 71.6836 225.913C70.1274 225.913 68.9491 225.212 68.1488 223.812C67.2373 225.19 66.1924 225.879 65.0141 225.879H64.814C63.7247 225.879 62.9466 225.59 62.4797 225.012C62.0129 224.434 61.7683 223.823 61.7461 223.178C61.7461 222.467 61.9573 221.889 62.3797 221.444C62.8021 220.999 63.3023 220.777 63.8803 220.777C64.8363 220.777 65.3142 221.244 65.3142 222.178C65.3142 222.622 65.1809 223.011 64.9141 223.345C64.6473 223.678 64.3916 223.901 64.1471 224.012C63.9025 224.123 63.758 224.179 63.7136 224.179L63.6135 224.212C63.6135 224.234 63.6802 224.279 63.8136 224.345C63.947 224.412 64.1249 224.49 64.3472 224.579C64.5695 224.668 64.7807 224.701 64.9808 224.679C65.7811 224.679 66.4703 224.179 67.0483 223.178C67.2484 222.822 67.504 222.067 67.8153 220.911C68.1265 219.754 68.4378 218.554 68.749 217.309C69.0603 216.064 69.2381 215.33 69.2826 215.108C69.3937 214.508 69.4493 214.074 69.4493 213.808C69.4493 213.185 69.2826 212.74 68.9491 212.474C68.6156 212.207 68.2377 212.073 67.8153 212.073C66.926 212.073 66.0923 212.429 65.3142 213.141C64.5361 213.852 63.9915 214.764 63.6802 215.875C63.6358 216.075 63.5802 216.186 63.5135 216.209C63.4468 216.231 63.269 216.253 62.9799 216.275H62.5131C62.3797 216.142 62.313 216.02 62.313 215.908Z" fill="white"/>
</g>
<g id="Group_25">
<path id="Vector_31" d="M88.9326 217.641C88.9326 217.641 88.9326 217.497 88.9326 217.208C88.9326 216.919 89.0882 216.696 89.3995 216.541H99.3703V211.539L99.4036 206.536C99.626 206.247 99.8372 206.103 100.037 206.103C100.326 206.103 100.549 206.27 100.704 206.603V216.541H110.642C110.975 216.718 111.142 216.941 111.142 217.208C111.142 217.474 110.975 217.697 110.642 217.874H100.704V227.812C100.526 228.123 100.326 228.279 100.104 228.279H100.037H99.9705C99.7038 228.279 99.5037 228.123 99.3703 227.812V217.874H89.3995C89.0882 217.719 88.9326 217.497 88.9326 217.208V217.641Z" fill="white"/>
</g>
<g id="Group_26">
<path id="Vector_32" d="M122.257 210.27C122.279 210.225 122.468 209.014 122.824 206.635L123.357 203.067C123.357 203.022 123.58 203 124.024 203H124.691V203.133C124.691 203.356 124.858 203.545 125.191 203.7C125.525 203.856 126.103 203.956 126.925 204C127.748 204.045 129.627 204.067 132.561 204.067H136.596V205.368L134.329 208.469C134.128 208.736 133.795 209.18 133.328 209.803C132.861 210.425 132.561 210.837 132.428 211.037C132.294 211.237 132.061 211.592 131.727 212.104C131.394 212.615 131.172 213.015 131.061 213.304C130.949 213.593 130.794 214.005 130.594 214.538C130.394 215.072 130.249 215.583 130.16 216.072C130.071 216.561 129.982 217.161 129.893 217.873C129.804 218.584 129.738 219.34 129.693 220.14C129.649 220.941 129.615 221.852 129.593 222.875C129.593 223.186 129.593 223.497 129.593 223.809C129.593 224.12 129.582 224.387 129.56 224.609V224.909C129.471 225.287 129.26 225.609 128.926 225.876C128.593 226.143 128.215 226.276 127.792 226.276C127.548 226.276 127.314 226.243 127.092 226.176C126.87 226.11 126.636 225.898 126.392 225.543C126.147 225.187 126.025 224.742 126.025 224.209C126.025 220.696 127.103 217.05 129.26 213.271C129.704 212.56 130.638 211.215 132.061 209.236L133.595 207.135H130.494C126.625 207.135 124.591 207.202 124.391 207.335C124.258 207.402 124.135 207.669 124.024 208.135C123.913 208.602 123.802 209.08 123.691 209.569L123.591 210.27V210.37H122.257V210.27Z" fill="white"/>
</g>
<g id="Group_27">
<path id="Vector_33" d="M138.83 215.908C138.985 214.975 139.585 213.896 140.63 212.674C141.675 211.451 142.965 210.829 144.499 210.806C145.277 210.806 145.988 211.006 146.633 211.407C147.278 211.807 147.756 212.307 148.067 212.907C149.001 211.507 150.123 210.806 151.435 210.806C152.257 210.806 152.969 211.051 153.569 211.54C154.169 212.029 154.481 212.685 154.503 213.507C154.503 214.152 154.347 214.675 154.036 215.075C153.725 215.475 153.425 215.719 153.136 215.808C152.847 215.897 152.591 215.942 152.369 215.942C151.946 215.942 151.602 215.82 151.335 215.575C151.068 215.33 150.935 215.008 150.935 214.608C150.935 213.585 151.49 212.885 152.602 212.507C152.357 212.218 151.913 212.073 151.268 212.073C150.979 212.073 150.768 212.096 150.635 212.14C149.79 212.496 149.167 213.23 148.767 214.341C147.433 219.254 146.766 222.122 146.766 222.945C146.766 223.567 146.944 224.012 147.3 224.279C147.655 224.545 148.045 224.679 148.467 224.679C149.29 224.679 150.101 224.312 150.901 223.578C151.702 222.845 152.246 221.944 152.535 220.877C152.602 220.655 152.669 220.533 152.735 220.51C152.802 220.488 152.98 220.466 153.269 220.444H153.402C153.736 220.444 153.903 220.533 153.903 220.71C153.903 220.733 153.88 220.855 153.836 221.077C153.48 222.344 152.791 223.467 151.768 224.445C150.746 225.424 149.556 225.913 148.2 225.913C146.644 225.913 145.466 225.212 144.665 223.812C143.754 225.19 142.709 225.879 141.531 225.879H141.331C140.241 225.879 139.463 225.59 138.996 225.012C138.529 224.434 138.285 223.823 138.263 223.178C138.263 222.467 138.474 221.889 138.896 221.444C139.319 220.999 139.819 220.777 140.397 220.777C141.353 220.777 141.831 221.244 141.831 222.178C141.831 222.622 141.697 223.011 141.431 223.345C141.164 223.678 140.908 223.901 140.664 224.012C140.419 224.123 140.275 224.179 140.23 224.179L140.13 224.212C140.13 224.234 140.197 224.279 140.33 224.345C140.464 224.412 140.641 224.49 140.864 224.579C141.086 224.668 141.297 224.701 141.497 224.679C142.298 224.679 142.987 224.179 143.565 223.178C143.765 222.822 144.021 222.067 144.332 220.911C144.643 219.754 144.954 218.554 145.266 217.309C145.577 216.064 145.755 215.33 145.799 215.108C145.91 214.508 145.966 214.074 145.966 213.808C145.966 213.185 145.799 212.74 145.466 212.474C145.132 212.207 144.754 212.073 144.332 212.073C143.443 212.073 142.609 212.429 141.831 213.141C141.053 213.852 140.508 214.764 140.197 215.875C140.152 216.075 140.097 216.186 140.03 216.209C139.963 216.231 139.786 216.253 139.497 216.275H139.03C138.896 216.142 138.83 216.02 138.83 215.908Z" fill="white"/>
</g>
<g id="Group_28">
<path id="Vector_34" d="M167.301 213.972C167.301 213.683 167.456 213.46 167.768 213.305H189.01C189.343 213.483 189.51 213.705 189.51 213.972C189.51 214.216 189.354 214.427 189.043 214.605L178.439 214.639H167.834C167.479 214.527 167.301 214.305 167.301 213.972ZM167.301 220.441C167.301 220.107 167.479 219.885 167.834 219.774H189.043C189.354 219.996 189.51 220.219 189.51 220.441C189.51 220.73 189.343 220.952 189.01 221.108H167.768C167.456 220.952 167.301 220.73 167.301 220.441Z" fill="white"/>
</g>
<g id="Group_29">
<path id="Vector_35" d="M207.739 206.271L207.306 206.437C206.995 206.549 206.55 206.66 205.972 206.771C205.394 206.882 204.749 206.96 204.038 207.004H203.404V205.47H204.038C205.083 205.426 206.05 205.259 206.939 204.97C207.828 204.681 208.451 204.414 208.807 204.17C209.162 203.925 209.473 203.681 209.74 203.436C209.785 203.37 209.918 203.336 210.14 203.336C210.341 203.336 210.529 203.403 210.707 203.536V213.507L210.741 223.511C210.896 223.667 211.03 223.767 211.141 223.811C211.252 223.856 211.519 223.9 211.941 223.945C212.364 223.989 213.053 224.011 214.009 224.011H214.876V225.545H214.509C214.042 225.479 212.275 225.445 209.207 225.445C206.183 225.445 204.438 225.479 203.971 225.545H203.571V224.011H204.438C204.927 224.011 205.35 224.011 205.705 224.011C206.061 224.011 206.339 224 206.539 223.978C206.739 223.956 206.917 223.923 207.072 223.878C207.228 223.834 207.317 223.811 207.339 223.811C207.362 223.811 207.428 223.756 207.539 223.645C207.651 223.533 207.717 223.489 207.739 223.511V206.271Z" fill="white"/>
<path id="Vector_36" d="M220.946 211.239C220.346 211.239 219.868 211.039 219.512 210.639C219.156 210.239 218.979 209.75 218.979 209.172C218.979 207.593 219.568 206.226 220.746 205.07C221.924 203.914 223.391 203.336 225.148 203.336C227.171 203.336 228.86 203.959 230.217 205.204C231.573 206.449 232.262 208.06 232.284 210.039C232.284 210.995 232.062 211.906 231.617 212.773C231.172 213.64 230.639 214.396 230.016 215.041C229.394 215.686 228.505 216.508 227.349 217.509C226.548 218.198 225.437 219.221 224.014 220.577L222.046 222.444L224.581 222.477C228.071 222.477 229.928 222.422 230.15 222.311C230.305 222.266 230.572 221.277 230.95 219.343V219.243H232.284V219.343C232.262 219.41 232.117 220.421 231.851 222.377C231.584 224.334 231.417 225.356 231.35 225.445V225.545H218.979V224.912V224.512C218.979 224.356 219.045 224.189 219.179 224.011C219.312 223.834 219.645 223.445 220.179 222.844C220.824 222.133 221.38 221.51 221.846 220.977C222.046 220.755 222.424 220.343 222.98 219.743C223.536 219.143 223.914 218.731 224.114 218.509C224.314 218.287 224.636 217.92 225.081 217.409C225.526 216.897 225.837 216.519 226.015 216.275C226.193 216.03 226.448 215.697 226.782 215.274C227.115 214.852 227.349 214.496 227.482 214.207C227.615 213.918 227.782 213.596 227.982 213.24C228.182 212.885 228.327 212.529 228.416 212.173C228.505 211.817 228.583 211.484 228.649 211.173C228.716 210.862 228.749 210.495 228.749 210.072C228.749 208.672 228.371 207.46 227.615 206.437C226.86 205.415 225.781 204.903 224.381 204.903C223.647 204.903 223.002 205.092 222.447 205.47C221.891 205.848 221.502 206.215 221.279 206.571C221.057 206.927 220.946 207.138 220.946 207.204C220.946 207.227 221.002 207.238 221.113 207.238C221.513 207.238 221.924 207.393 222.347 207.705C222.769 208.016 222.98 208.527 222.98 209.239C222.98 209.794 222.802 210.261 222.447 210.639C222.091 211.017 221.591 211.217 220.946 211.239Z" fill="white"/>
</g>
<g id="Group_30">
<path id="Vector_37" d="M262.408 224.576C262.408 225.02 262.175 225.243 261.708 225.243C261.597 225.243 261.352 225.065 260.975 224.709C260.597 224.353 259.552 223.32 257.84 221.608L254.372 218.14L250.87 221.641C248.514 223.953 247.302 225.132 247.235 225.176C247.147 225.22 247.069 225.243 247.002 225.243C246.824 225.243 246.669 225.176 246.535 225.043C246.402 224.909 246.324 224.754 246.302 224.576C246.302 224.42 246.457 224.176 246.769 223.842C247.08 223.509 248.125 222.453 249.903 220.674L253.371 217.206L249.903 213.738C248.103 211.937 247.058 210.881 246.769 210.57C246.48 210.259 246.324 210.014 246.302 209.836C246.302 209.636 246.368 209.481 246.502 209.369C246.635 209.258 246.802 209.203 247.002 209.203C247.113 209.203 247.191 209.214 247.235 209.236C247.302 209.28 248.514 210.459 250.87 212.771L254.372 216.272L257.84 212.804C259.552 211.092 260.597 210.059 260.975 209.703C261.352 209.347 261.597 209.169 261.708 209.169C262.175 209.169 262.408 209.392 262.408 209.836C262.408 209.992 262.297 210.192 262.075 210.437C261.853 210.681 260.763 211.77 258.807 213.705L255.339 217.206L258.807 220.707C260.674 222.575 261.742 223.653 262.008 223.942C262.275 224.231 262.408 224.442 262.408 224.576Z" fill="white"/>
</g>
<g id="Group_31">
<path id="Vector_38" d="M276.586 210.27C276.608 210.225 276.797 209.014 277.153 206.635L277.686 203.067C277.686 203.022 277.909 203 278.353 203H279.02V203.133C279.02 203.356 279.187 203.545 279.52 203.7C279.854 203.856 280.432 203.956 281.255 204C282.077 204.045 283.956 204.067 286.89 204.067H290.925V205.368L288.658 208.469C288.458 208.736 288.124 209.18 287.657 209.803C287.19 210.425 286.89 210.837 286.757 211.037C286.623 211.237 286.39 211.592 286.057 212.104C285.723 212.615 285.501 213.015 285.39 213.304C285.278 213.593 285.123 214.005 284.923 214.538C284.723 215.072 284.578 215.583 284.489 216.072C284.4 216.561 284.311 217.161 284.222 217.873C284.134 218.584 284.067 219.34 284.022 220.14C283.978 220.941 283.945 221.852 283.922 222.875C283.922 223.186 283.922 223.497 283.922 223.809C283.922 224.12 283.911 224.387 283.889 224.609V224.909C283.8 225.287 283.589 225.609 283.255 225.876C282.922 226.143 282.544 226.276 282.122 226.276C281.877 226.276 281.644 226.243 281.421 226.176C281.199 226.11 280.966 225.898 280.721 225.543C280.476 225.187 280.354 224.742 280.354 224.209C280.354 220.696 281.432 217.05 283.589 213.271C284.033 212.56 284.967 211.215 286.39 209.236L287.924 207.135H284.823C280.954 207.135 278.92 207.202 278.72 207.335C278.587 207.402 278.464 207.669 278.353 208.135C278.242 208.602 278.131 209.08 278.02 209.569L277.92 210.27V210.37H276.586V210.27Z" fill="white"/>
<path id="Vector_39" d="M292.824 215.105C292.824 211.481 293.725 208.613 295.525 206.501C297.326 204.389 299.327 203.333 301.528 203.333C303.062 203.333 304.162 203.734 304.829 204.534C305.496 205.334 305.83 206.224 305.83 207.202C305.83 207.758 305.674 208.202 305.363 208.536C305.052 208.869 304.618 209.036 304.062 209.036C303.551 209.036 303.129 208.88 302.795 208.569C302.462 208.258 302.295 207.824 302.295 207.268C302.295 206.29 302.817 205.701 303.862 205.501C303.373 205.012 302.684 204.734 301.795 204.667C300.216 204.667 298.916 205.334 297.893 206.668C296.848 208.135 296.326 210.381 296.326 213.404L296.359 213.538C296.47 213.404 296.559 213.26 296.626 213.104C297.537 211.77 298.727 211.103 300.194 211.103H300.327C301.35 211.103 302.25 211.315 303.029 211.737C303.562 212.048 304.096 212.493 304.629 213.071C305.163 213.649 305.596 214.282 305.93 214.972C306.397 216.061 306.63 217.25 306.63 218.54V219.14C306.63 219.651 306.575 220.129 306.463 220.574C306.219 221.886 305.507 223.164 304.329 224.409C303.151 225.654 301.661 226.276 299.861 226.276C299.238 226.276 298.638 226.187 298.06 226.01C297.482 225.832 296.859 225.498 296.192 225.009C295.525 224.52 294.959 223.864 294.492 223.042C294.025 222.219 293.625 221.141 293.291 219.807C292.958 218.473 292.802 216.906 292.824 215.105ZM299.994 212.304C299.327 212.304 298.749 212.493 298.26 212.871C297.771 213.249 297.393 213.749 297.126 214.371C296.859 214.994 296.67 215.627 296.559 216.272C296.448 216.917 296.381 217.606 296.359 218.34C296.359 220.185 296.493 221.508 296.759 222.308C297.026 223.108 297.448 223.753 298.027 224.242C298.56 224.642 299.149 224.842 299.794 224.842C300.928 224.842 301.795 224.42 302.395 223.575C302.684 223.175 302.884 222.675 302.995 222.075C303.106 221.474 303.162 220.307 303.162 218.573C303.162 216.795 303.106 215.605 302.995 215.005C302.884 214.405 302.684 213.905 302.395 213.504C301.795 212.704 300.994 212.304 299.994 212.304Z" fill="white"/>
<path id="Vector_40" d="M311.299 206.035C312.544 204.234 314.245 203.333 316.401 203.333C317.468 203.333 318.536 203.622 319.603 204.201C320.67 204.779 321.537 205.801 322.204 207.268C323.026 209.114 323.438 211.648 323.438 214.872C323.438 218.317 322.96 220.952 322.004 222.775C321.559 223.709 320.948 224.453 320.17 225.009C319.391 225.565 318.713 225.91 318.135 226.043C317.557 226.176 316.99 226.254 316.435 226.276C315.857 226.276 315.279 226.21 314.701 226.076C314.123 225.943 313.445 225.587 312.666 225.009C311.888 224.431 311.277 223.686 310.832 222.775C309.876 220.952 309.398 218.317 309.398 214.872C309.398 211.003 310.032 208.058 311.299 206.035ZM318.802 205.634C318.135 204.923 317.346 204.567 316.435 204.567C315.501 204.567 314.701 204.923 314.034 205.634C313.478 206.212 313.111 207.013 312.933 208.035C312.755 209.058 312.666 211.192 312.666 214.438C312.666 217.951 312.755 220.263 312.933 221.374C313.111 222.486 313.511 223.364 314.134 224.009C314.756 224.676 315.523 225.009 316.435 225.009C317.324 225.009 318.08 224.676 318.702 224.009C319.347 223.342 319.747 222.408 319.903 221.208C320.058 220.007 320.147 217.751 320.17 214.438C320.17 211.215 320.081 209.091 319.903 208.069C319.725 207.046 319.358 206.235 318.802 205.634Z" fill="white"/>
</g>
</g>
<path id="Line 48 (Stroke)" fill-rule="evenodd" clip-rule="evenodd" d="M392 239.269L390 0.269379L395 0.227539L397 239.228L392 239.269Z" fill="#E8A1EE"/>
<g id="Group 577">
<g id="Group_32">
<path id="Vector_41" d="M460.335 25.5363L459.902 25.7031C459.59 25.8142 459.146 25.9254 458.568 26.0365C457.99 26.1477 457.345 26.2255 456.634 26.27H456V24.736H456.634C457.678 24.6915 458.646 24.5248 459.535 24.2358C460.424 23.9468 461.047 23.68 461.402 23.4355C461.758 23.1909 462.069 22.9464 462.336 22.7018C462.38 22.6351 462.514 22.6018 462.736 22.6018C462.936 22.6018 463.125 22.6685 463.303 22.8019V32.7727L463.336 42.7769C463.492 42.9325 463.625 43.0325 463.737 43.077C463.848 43.1214 464.114 43.1659 464.537 43.2104C464.959 43.2548 465.648 43.2771 466.604 43.2771H467.471V44.811H467.105C466.638 44.7443 464.87 44.711 461.802 44.711C458.779 44.711 457.034 44.7443 456.567 44.811H456.167V43.2771H457.034C457.523 43.2771 457.945 43.2771 458.301 43.2771C458.657 43.2771 458.935 43.2659 459.135 43.2437C459.335 43.2215 459.513 43.1881 459.668 43.1437C459.824 43.0992 459.913 43.077 459.935 43.077C459.957 43.077 460.024 43.0214 460.135 42.9102C460.246 42.7991 460.313 42.7546 460.335 42.7769V25.5363Z" fill="white"/>
<path id="Vector_42" d="M481.645 35.2416C480.578 36.9312 479.244 37.776 477.644 37.776C475.91 37.776 474.487 37.1202 473.375 35.8085C472.264 34.4969 471.597 33.0963 471.374 31.6068C471.33 31.2511 471.308 30.8064 471.308 30.2729V30.0061C471.308 27.9386 472.075 26.1378 473.609 24.6038C474.942 23.27 476.41 22.603 478.01 22.603C478.055 22.603 478.122 22.603 478.21 22.603C478.299 22.603 478.388 22.6141 478.477 22.6364H478.611C478.877 22.6364 479.155 22.6586 479.444 22.703C479.733 22.7475 480.145 22.8809 480.678 23.1032C481.212 23.3255 481.734 23.6812 482.246 24.1703C482.757 24.6594 483.235 25.3152 483.679 26.1378C484.635 28.0942 485.113 30.6063 485.113 33.6743C485.113 36.7867 484.446 39.4211 483.113 41.5776C482.334 42.8225 481.401 43.7896 480.311 44.4788C479.222 45.168 478.066 45.5237 476.843 45.5459C475.487 45.5459 474.376 45.2235 473.509 44.5788C472.642 43.9341 472.197 42.9782 472.175 41.711C472.152 40.4438 472.742 39.8213 473.942 39.8435C474.431 39.8435 474.842 39.9991 475.176 40.3104C475.509 40.6216 475.676 41.0551 475.676 41.6109C475.676 42.0111 475.576 42.3557 475.376 42.6447C475.176 42.9337 474.998 43.1116 474.842 43.1782C474.687 43.2449 474.542 43.3005 474.409 43.345L474.276 43.3783C474.276 43.4228 474.353 43.4895 474.509 43.5784C474.665 43.6673 474.954 43.7785 475.376 43.9119C475.798 44.0453 476.265 44.1009 476.777 44.0786H476.977C478.311 44.0786 479.433 43.3672 480.345 41.9444C481.212 40.6994 481.645 38.543 481.645 35.475V35.2416ZM478.044 36.5421C479.111 36.5421 479.967 35.9975 480.611 34.9081C481.256 33.8188 481.59 32.3404 481.612 30.473C481.612 28.7389 481.523 27.4939 481.345 26.7381C481.301 26.5157 481.234 26.2934 481.145 26.0711C481.056 25.8488 480.901 25.5598 480.678 25.2041C480.456 24.8484 480.122 24.5483 479.678 24.3037C479.233 24.0592 478.711 23.948 478.11 23.9702C477.266 23.9702 476.543 24.2704 475.943 24.8706C475.476 25.3597 475.176 25.9377 475.043 26.6047C474.909 27.2716 474.831 28.4388 474.809 30.1061C474.809 31.9513 474.865 33.1963 474.976 33.841C475.087 34.4857 475.309 35.0082 475.643 35.4083C476.199 36.1642 476.999 36.5421 478.044 36.5421Z" fill="white"/>
</g>
<g id="Group_33">
<path id="Vector_43" d="M488.314 35.178C488.47 34.2442 489.07 33.166 490.115 31.9433C491.16 30.7205 492.449 30.0981 493.983 30.0758C494.761 30.0758 495.473 30.2759 496.117 30.6761C496.762 31.0763 497.24 31.5765 497.551 32.1767C498.485 30.7761 499.608 30.0758 500.919 30.0758C501.742 30.0758 502.453 30.3204 503.053 30.8095C503.654 31.2986 503.965 31.9544 503.987 32.777C503.987 33.4217 503.832 33.9441 503.52 34.3443C503.209 34.7444 502.909 34.989 502.62 35.0779C502.331 35.1668 502.075 35.2113 501.853 35.2113C501.431 35.2113 501.086 35.089 500.819 34.8445C500.552 34.5999 500.419 34.2776 500.419 33.8774C500.419 32.8548 500.975 32.1545 502.086 31.7765C501.842 31.4875 501.397 31.343 500.752 31.343C500.463 31.343 500.252 31.3653 500.119 31.4097C499.274 31.7654 498.652 32.4991 498.251 33.6106C496.918 38.5238 496.251 41.3917 496.251 42.2142C496.251 42.8367 496.428 43.2813 496.784 43.5481C497.14 43.8149 497.529 43.9483 497.951 43.9483C498.774 43.9483 499.585 43.5815 500.386 42.8478C501.186 42.1142 501.731 41.2138 502.02 40.1467C502.086 39.9244 502.153 39.8021 502.22 39.7799C502.286 39.7576 502.464 39.7354 502.753 39.7132H502.887C503.22 39.7132 503.387 39.8021 503.387 39.98C503.387 40.0022 503.365 40.1245 503.32 40.3468C502.965 41.614 502.275 42.7367 501.253 43.7149C500.23 44.693 499.041 45.1821 497.685 45.1821C496.128 45.1821 494.95 44.4818 494.15 43.0813C493.238 44.4596 492.193 45.1488 491.015 45.1488H490.815C489.726 45.1488 488.948 44.8598 488.481 44.2818C488.014 43.7037 487.769 43.0924 487.747 42.4477C487.747 41.7362 487.958 41.1582 488.381 40.7136C488.803 40.269 489.303 40.0467 489.881 40.0467C490.837 40.0467 491.315 40.5135 491.315 41.4472C491.315 41.8919 491.182 42.2809 490.915 42.6144C490.648 42.9479 490.393 43.1702 490.148 43.2813C489.904 43.3925 489.759 43.4481 489.715 43.4481L489.615 43.4814C489.615 43.5037 489.681 43.5481 489.815 43.6148C489.948 43.6815 490.126 43.7593 490.348 43.8482C490.57 43.9372 490.782 43.9705 490.982 43.9483C491.782 43.9483 492.471 43.4481 493.049 42.4477C493.249 42.092 493.505 41.3361 493.816 40.18C494.128 39.024 494.439 37.8235 494.75 36.5785C495.061 35.3336 495.239 34.5999 495.284 34.3776C495.395 33.7774 495.45 33.3439 495.45 33.0771C495.45 32.4546 495.284 32.01 494.95 31.7432C494.617 31.4764 494.239 31.343 493.816 31.343C492.927 31.343 492.093 31.6987 491.315 32.4101C490.537 33.1215 489.992 34.033 489.681 35.1446C489.637 35.3447 489.581 35.4559 489.514 35.4781C489.448 35.5003 489.27 35.5225 488.981 35.5448H488.514C488.381 35.4114 488.314 35.2891 488.314 35.178Z" fill="white"/>
</g>
<g id="Group_34">
<path id="Vector_44" d="M516.792 33.2411C516.792 32.9521 516.948 32.7298 517.259 32.5742H538.501C538.835 32.752 539.001 32.9744 539.001 33.2411C539.001 33.4857 538.846 33.6969 538.534 33.8747L527.93 33.9081H517.326C516.97 33.7969 516.792 33.5746 516.792 33.2411ZM516.792 39.7105C516.792 39.377 516.97 39.1547 517.326 39.0436H538.534C538.846 39.2659 539.001 39.4882 539.001 39.7105C539.001 39.9995 538.835 40.2218 538.501 40.3774H517.259C516.948 40.2218 516.792 39.9995 516.792 39.7105Z" fill="white"/>
</g>
<g id="Group_35">
<path id="Vector_45" d="M557.231 25.5402L556.797 25.707C556.486 25.8181 556.041 25.9293 555.463 26.0405C554.885 26.1516 554.241 26.2294 553.529 26.2739H552.896V24.7399H553.529C554.574 24.6954 555.541 24.5287 556.43 24.2397C557.32 23.9507 557.942 23.6839 558.298 23.4394C558.653 23.1948 558.965 22.9503 559.231 22.7057C559.276 22.639 559.409 22.6057 559.632 22.6057C559.832 22.6057 560.021 22.6724 560.199 22.8058V32.7766L560.232 42.7808C560.388 42.9364 560.521 43.0364 560.632 43.0809C560.743 43.1253 561.01 43.1698 561.432 43.2143C561.855 43.2587 562.544 43.281 563.5 43.281H564.367V44.8149H564C563.533 44.7482 561.766 44.7149 558.698 44.7149C555.674 44.7149 553.929 44.7482 553.462 44.8149H553.062V43.281H553.929C554.418 43.281 554.841 43.281 555.196 43.281C555.552 43.281 555.83 43.2699 556.03 43.2476C556.23 43.2254 556.408 43.192 556.564 43.1476C556.719 43.1031 556.808 43.0809 556.83 43.0809C556.853 43.0809 556.919 43.0253 557.031 42.9141C557.142 42.803 557.208 42.7585 557.231 42.7808V25.5402Z" fill="white"/>
<path id="Vector_46" d="M570.437 30.509C569.837 30.509 569.359 30.3089 569.003 29.9087C568.648 29.5086 568.47 29.0195 568.47 28.4415C568.47 26.863 569.059 25.4958 570.237 24.3397C571.415 23.1837 572.883 22.6057 574.639 22.6057C576.662 22.6057 578.352 23.2282 579.708 24.4731C581.064 25.7181 581.753 27.3299 581.775 29.3085C581.775 30.2644 581.553 31.1759 581.108 32.043C580.664 32.91 580.13 33.6659 579.508 34.3106C578.885 34.9553 577.996 35.7778 576.84 36.7783C576.04 37.4674 574.928 38.4901 573.505 39.8462L571.538 41.7136L574.072 41.747C577.562 41.747 579.419 41.6914 579.641 41.5803C579.797 41.5358 580.063 40.5465 580.441 38.6124V38.5123H581.775V38.6124C581.753 38.6791 581.609 39.6906 581.342 41.647C581.075 43.6033 580.908 44.626 580.842 44.7149V44.8149H568.47V44.1813V43.7812C568.47 43.6256 568.536 43.4588 568.67 43.281C568.803 43.1031 569.137 42.7141 569.67 42.1138C570.315 41.4024 570.871 40.7799 571.338 40.2464C571.538 40.0241 571.916 39.6128 572.471 39.0125C573.027 38.4123 573.405 38.001 573.605 37.7787C573.805 37.5564 574.128 37.1895 574.572 36.6782C575.017 36.1669 575.328 35.789 575.506 35.5444C575.684 35.2999 575.94 34.9664 576.273 34.544C576.606 34.1216 576.84 33.7659 576.973 33.4769C577.107 33.1879 577.273 32.8655 577.473 32.5098C577.674 32.1541 577.818 31.7984 577.907 31.4427C577.996 31.087 578.074 30.7535 578.14 30.4423C578.207 30.131 578.24 29.7642 578.24 29.3418C578.24 27.9412 577.863 26.7296 577.107 25.707C576.351 24.6843 575.273 24.173 573.872 24.173C573.138 24.173 572.494 24.362 571.938 24.7399C571.382 25.1178 570.993 25.4847 570.771 25.8404C570.548 26.1961 570.437 26.4073 570.437 26.474C570.437 26.4962 570.493 26.5073 570.604 26.5073C571.004 26.5073 571.415 26.6629 571.838 26.9742C572.26 27.2854 572.471 27.7967 572.471 28.5081C572.471 29.0639 572.294 29.5308 571.938 29.9087C571.582 30.2867 571.082 30.4867 570.437 30.509Z" fill="white"/>
</g>
<g id="Group_36">
<path id="Vector_47" d="M611.893 43.8453C611.893 44.2899 611.659 44.5122 611.193 44.5122C611.081 44.5122 610.837 44.3344 610.459 43.9787C610.081 43.6229 609.036 42.5892 607.324 40.8774L603.856 37.4092L600.355 40.9107C597.998 43.2228 596.787 44.401 596.72 44.4455C596.631 44.49 596.553 44.5122 596.486 44.5122C596.309 44.5122 596.153 44.4455 596.02 44.3121C595.886 44.1787 595.808 44.0231 595.786 43.8453C595.786 43.6896 595.942 43.4451 596.253 43.1116C596.564 42.7782 597.609 41.7222 599.388 39.9436L602.856 36.4755L599.388 33.0074C597.587 31.2067 596.542 30.1507 596.253 29.8394C595.964 29.5282 595.808 29.2836 595.786 29.1058C595.786 28.9057 595.853 28.7501 595.986 28.6389C596.12 28.5278 596.286 28.4722 596.486 28.4722C596.598 28.4722 596.675 28.4833 596.72 28.5055C596.787 28.55 597.998 29.7283 600.355 32.0403L603.856 35.5418L607.324 32.0737C609.036 30.3619 610.081 29.3281 610.459 28.9724C610.837 28.6167 611.081 28.4388 611.193 28.4388C611.659 28.4388 611.893 28.6612 611.893 29.1058C611.893 29.2614 611.782 29.4615 611.559 29.706C611.337 29.9506 610.248 31.0399 608.291 32.9741L604.823 36.4755L608.291 39.977C610.159 41.8444 611.226 42.9227 611.493 43.2117C611.759 43.5007 611.893 43.7119 611.893 43.8453Z" fill="white"/>
</g>
<g id="Group_37">
<path id="Vector_48" d="M626.077 29.5392C626.099 29.4948 626.288 28.2832 626.644 25.9044L627.178 22.3362C627.178 22.2918 627.4 22.2695 627.845 22.2695H628.511V22.4029C628.511 22.6252 628.678 22.8142 629.012 22.9698C629.345 23.1254 629.923 23.2255 630.746 23.27C631.568 23.3144 633.447 23.3366 636.381 23.3366H640.416V24.6372L638.149 27.7385C637.949 28.0053 637.615 28.4499 637.148 29.0724C636.682 29.6949 636.381 30.1061 636.248 30.3062C636.115 30.5063 635.881 30.862 635.548 31.3733C635.214 31.8847 634.992 32.2848 634.881 32.5738C634.77 32.8628 634.614 33.2741 634.414 33.8077C634.214 34.3412 634.069 34.8526 633.98 35.3416C633.892 35.8307 633.803 36.431 633.714 37.1424C633.625 37.8538 633.558 38.6097 633.514 39.41C633.469 40.2103 633.436 41.1218 633.414 42.1445C633.414 42.4557 633.414 42.767 633.414 43.0782C633.414 43.3894 633.402 43.6562 633.38 43.8785V44.1787C633.291 44.5566 633.08 44.879 632.747 45.1457C632.413 45.4125 632.035 45.5459 631.613 45.5459C631.368 45.5459 631.135 45.5126 630.912 45.4459C630.69 45.3792 630.457 45.168 630.212 44.8123C629.968 44.4566 629.845 44.0119 629.845 43.4784C629.845 39.9658 630.924 36.3198 633.08 32.5405C633.525 31.8291 634.458 30.4841 635.881 28.5055L637.415 26.4046H634.314C630.446 26.4046 628.411 26.4713 628.211 26.6047C628.078 26.6714 627.956 26.9381 627.845 27.405C627.733 27.8719 627.622 28.3498 627.511 28.8389L627.411 29.5392V29.6393H626.077V29.5392Z" fill="white"/>
<path id="Vector_49" d="M642.316 34.3746C642.316 30.7508 643.216 27.883 645.017 25.771C646.817 23.659 648.818 22.603 651.019 22.603C652.553 22.603 653.654 23.0032 654.321 23.8035C654.988 24.6038 655.321 25.4931 655.321 26.4713C655.321 27.0271 655.165 27.4717 654.854 27.8052C654.543 28.1386 654.109 28.3054 653.554 28.3054C653.042 28.3054 652.62 28.1498 652.286 27.8385C651.953 27.5273 651.786 27.0938 651.786 26.538C651.786 25.5598 652.309 24.9707 653.353 24.7706C652.864 24.2815 652.175 24.0036 651.286 23.9369C649.708 23.9369 648.407 24.6038 647.384 25.9377C646.339 27.405 645.817 29.6504 645.817 32.6739L645.85 32.8073C645.962 32.6739 646.05 32.5294 646.117 32.3737C647.029 31.0399 648.218 30.3729 649.685 30.3729H649.819C650.841 30.3729 651.742 30.5841 652.52 31.0065C653.053 31.3177 653.587 31.7624 654.12 32.3404C654.654 32.9184 655.088 33.552 655.421 34.2412C655.888 35.3305 656.121 36.5199 656.121 37.8093V38.4096C656.121 38.9209 656.066 39.3989 655.955 39.8435C655.71 41.1552 654.999 42.4335 653.82 43.6785C652.642 44.9234 651.153 45.5459 649.352 45.5459C648.729 45.5459 648.129 45.457 647.551 45.2791C646.973 45.1013 646.351 44.7678 645.684 44.2787C645.017 43.7896 644.45 43.1338 643.983 42.3112C643.516 41.4887 643.116 40.4104 642.782 39.0765C642.449 37.7426 642.293 36.1753 642.316 34.3746ZM649.485 31.5734C648.818 31.5734 648.24 31.7624 647.751 32.1403C647.262 32.5182 646.884 33.0185 646.617 33.6409C646.351 34.2634 646.162 34.897 646.05 35.5417C645.939 36.1864 645.873 36.8756 645.85 37.6093C645.85 39.4545 645.984 40.7772 646.251 41.5776C646.517 42.3779 646.94 43.0226 647.518 43.5117C648.051 43.9119 648.64 44.112 649.285 44.112C650.419 44.112 651.286 43.6896 651.886 42.8448C652.175 42.4446 652.375 41.9444 652.486 41.3441C652.598 40.7439 652.653 39.5767 652.653 37.8427C652.653 36.0642 652.598 34.8748 652.486 34.2745C652.375 33.6743 652.175 33.1741 651.886 32.7739C651.286 31.9736 650.486 31.5734 649.485 31.5734Z" fill="white"/>
<path id="Vector_50" d="M660.79 25.3041C662.035 23.5034 663.736 22.603 665.893 22.603C666.96 22.603 668.027 22.892 669.094 23.47C670.161 24.0481 671.028 25.0707 671.695 26.538C672.518 28.3832 672.929 30.9176 672.929 34.1411C672.929 37.587 672.451 40.2215 671.495 42.0444C671.05 42.9782 670.439 43.7229 669.661 44.2787C668.883 44.8345 668.205 45.1791 667.627 45.3125C667.049 45.4459 666.482 45.5237 665.926 45.5459C665.348 45.5459 664.77 45.4792 664.192 45.3458C663.614 45.2124 662.936 44.8567 662.158 44.2787C661.38 43.7007 660.768 42.9559 660.324 42.0444C659.368 40.2215 658.89 37.587 658.89 34.1411C658.89 30.2729 659.523 27.3272 660.79 25.3041ZM668.294 24.904C667.627 24.1926 666.837 23.8369 665.926 23.8369C664.992 23.8369 664.192 24.1926 663.525 24.904C662.969 25.482 662.602 26.2823 662.424 27.305C662.247 28.3276 662.158 30.4618 662.158 33.7076C662.158 37.2202 662.247 39.5323 662.424 40.6439C662.602 41.7554 663.002 42.6336 663.625 43.2783C664.247 43.9452 665.014 44.2787 665.926 44.2787C666.815 44.2787 667.571 43.9452 668.194 43.2783C668.838 42.6113 669.238 41.6776 669.394 40.4771C669.55 39.2766 669.639 37.0201 669.661 33.7076C669.661 30.4841 669.572 28.361 669.394 27.3383C669.216 26.3157 668.849 25.5042 668.294 24.904Z" fill="white"/>
</g>
</g>
<g id="Group 578">
<g id="Group_38">
<path id="Vector_51" d="M445.567 154.718C445.723 153.784 446.323 152.706 447.368 151.483C448.413 150.261 449.702 149.638 451.236 149.616C452.014 149.616 452.725 149.816 453.37 150.216C454.015 150.616 454.493 151.116 454.804 151.717C455.738 150.316 456.86 149.616 458.172 149.616C458.995 149.616 459.706 149.86 460.306 150.35C460.907 150.839 461.218 151.494 461.24 152.317C461.24 152.962 461.084 153.484 460.773 153.884C460.462 154.284 460.162 154.529 459.873 154.618C459.584 154.707 459.328 154.751 459.106 154.751C458.683 154.751 458.339 154.629 458.072 154.385C457.805 154.14 457.672 153.818 457.672 153.417C457.672 152.395 458.228 151.695 459.339 151.317C459.095 151.028 458.65 150.883 458.005 150.883C457.716 150.883 457.505 150.905 457.372 150.95C456.527 151.305 455.905 152.039 455.504 153.151C454.17 158.064 453.504 160.932 453.504 161.754C453.504 162.377 453.681 162.821 454.037 163.088C454.393 163.355 454.782 163.488 455.204 163.488C456.027 163.488 456.838 163.122 457.639 162.388C458.439 161.654 458.984 160.754 459.273 159.687C459.339 159.464 459.406 159.342 459.473 159.32C459.539 159.298 459.717 159.275 460.006 159.253H460.14C460.473 159.253 460.64 159.342 460.64 159.52C460.64 159.542 460.618 159.665 460.573 159.887C460.217 161.154 459.528 162.277 458.506 163.255C457.483 164.233 456.294 164.722 454.937 164.722C453.381 164.722 452.203 164.022 451.403 162.621C450.491 164 449.446 164.689 448.268 164.689H448.068C446.979 164.689 446.201 164.4 445.734 163.822C445.267 163.244 445.022 162.632 445 161.988C445 161.276 445.211 160.698 445.634 160.254C446.056 159.809 446.556 159.587 447.134 159.587C448.09 159.587 448.568 160.054 448.568 160.987C448.568 161.432 448.435 161.821 448.168 162.154C447.901 162.488 447.646 162.71 447.401 162.821C447.156 162.933 447.012 162.988 446.967 162.988L446.867 163.021C446.867 163.044 446.934 163.088 447.068 163.155C447.201 163.222 447.379 163.299 447.601 163.388C447.823 163.477 448.035 163.511 448.235 163.488C449.035 163.488 449.724 162.988 450.302 161.988C450.502 161.632 450.758 160.876 451.069 159.72C451.38 158.564 451.692 157.364 452.003 156.119C452.314 154.874 452.492 154.14 452.536 153.918C452.648 153.317 452.703 152.884 452.703 152.617C452.703 151.995 452.536 151.55 452.203 151.283C451.87 151.016 451.492 150.883 451.069 150.883C450.18 150.883 449.346 151.239 448.568 151.95C447.79 152.662 447.245 153.573 446.934 154.685C446.89 154.885 446.834 154.996 446.767 155.018C446.701 155.04 446.523 155.063 446.234 155.085H445.767C445.634 154.951 445.567 154.829 445.567 154.718Z" fill="white"/>
</g>
<g id="Group_39">
<path id="Vector_52" d="M474.037 152.781C474.037 152.492 474.193 152.27 474.504 152.114H495.746C496.08 152.292 496.246 152.514 496.246 152.781C496.246 153.026 496.091 153.237 495.78 153.415L485.175 153.448H474.571C474.215 153.337 474.037 153.115 474.037 152.781ZM474.037 159.251C474.037 158.917 474.215 158.695 474.571 158.584H495.78C496.091 158.806 496.246 159.028 496.246 159.251C496.246 159.54 496.08 159.762 495.746 159.917H474.504C474.193 159.762 474.037 159.54 474.037 159.251Z" fill="white"/>
</g>
<g id="Group_40">
<g id="Group_41">
<g id="Group_42">
<path id="Vector_53" d="M521.818 122.536L521.384 122.703C521.073 122.814 520.628 122.925 520.05 123.037C519.472 123.148 518.827 123.226 518.116 123.27H517.482V121.736H518.116C519.161 121.692 520.128 121.525 521.017 121.236C521.906 120.947 522.529 120.68 522.885 120.435C523.24 120.191 523.552 119.946 523.818 119.702C523.863 119.635 523.996 119.602 524.219 119.602C524.419 119.602 524.608 119.668 524.785 119.802V129.773L524.819 139.777C524.974 139.932 525.108 140.033 525.219 140.077C525.33 140.121 525.597 140.166 526.019 140.21C526.442 140.255 527.131 140.277 528.087 140.277H528.954V141.811H528.587C528.12 141.744 526.353 141.711 523.285 141.711C520.261 141.711 518.516 141.744 518.049 141.811H517.649V140.277H518.516C519.005 140.277 519.428 140.277 519.783 140.277C520.139 140.277 520.417 140.266 520.617 140.244C520.817 140.221 520.995 140.188 521.151 140.144C521.306 140.099 521.395 140.077 521.417 140.077C521.44 140.077 521.506 140.021 521.617 139.91C521.729 139.799 521.795 139.755 521.818 139.777V122.536Z" fill="white"/>
<path id="Vector_54" d="M535.024 127.505C534.424 127.505 533.946 127.305 533.59 126.905C533.234 126.505 533.057 126.016 533.057 125.438C533.057 123.859 533.646 122.492 534.824 121.336C536.002 120.18 537.47 119.602 539.226 119.602C541.249 119.602 542.939 120.224 544.295 121.469C545.651 122.714 546.34 124.326 546.362 126.305C546.362 127.261 546.14 128.172 545.695 129.039C545.251 129.906 544.717 130.662 544.095 131.307C543.472 131.951 542.583 132.774 541.427 133.774C540.626 134.464 539.515 135.486 538.092 136.842L536.125 138.71L538.659 138.743C542.149 138.743 544.006 138.688 544.228 138.576C544.384 138.532 544.65 137.543 545.028 135.608V135.508H546.362V135.608C546.34 135.675 546.195 136.687 545.929 138.643C545.662 140.599 545.495 141.622 545.428 141.711V141.811H533.057V141.177V140.777C533.057 140.622 533.123 140.455 533.257 140.277C533.39 140.099 533.724 139.71 534.257 139.11C534.902 138.399 535.458 137.776 535.925 137.242C536.125 137.02 536.503 136.609 537.058 136.009C537.614 135.408 537.992 134.997 538.192 134.775C538.392 134.552 538.715 134.186 539.159 133.674C539.604 133.163 539.915 132.785 540.093 132.541C540.271 132.296 540.526 131.962 540.86 131.54C541.193 131.118 541.427 130.762 541.56 130.473C541.694 130.184 541.86 129.862 542.06 129.506C542.26 129.15 542.405 128.795 542.494 128.439C542.583 128.083 542.661 127.75 542.727 127.438C542.794 127.127 542.827 126.76 542.827 126.338C542.827 124.937 542.449 123.726 541.694 122.703C540.938 121.68 539.859 121.169 538.459 121.169C537.725 121.169 537.081 121.358 536.525 121.736C535.969 122.114 535.58 122.481 535.358 122.836C535.135 123.192 535.024 123.403 535.024 123.47C535.024 123.492 535.08 123.503 535.191 123.503C535.591 123.503 536.002 123.659 536.425 123.97C536.847 124.282 537.058 124.793 537.058 125.504C537.058 126.06 536.88 126.527 536.525 126.905C536.169 127.283 535.669 127.483 535.024 127.505Z" fill="white"/>
</g>
<g id="Group_43">
<path id="Vector_55" d="M576.479 140.845C576.479 141.29 576.245 141.512 575.778 141.512C575.667 141.512 575.423 141.334 575.045 140.979C574.667 140.623 573.622 139.589 571.91 137.877L568.442 134.409L564.941 137.911C562.584 140.223 561.372 141.401 561.306 141.446C561.217 141.49 561.139 141.512 561.072 141.512C560.895 141.512 560.739 141.446 560.606 141.312C560.472 141.179 560.394 141.023 560.372 140.845C560.372 140.69 560.528 140.445 560.839 140.112C561.15 139.778 562.195 138.722 563.974 136.944L567.442 133.476L563.974 130.007C562.173 128.207 561.128 127.151 560.839 126.839C560.55 126.528 560.394 126.284 560.372 126.106C560.372 125.906 560.439 125.75 560.572 125.639C560.706 125.528 560.872 125.472 561.072 125.472C561.184 125.472 561.261 125.483 561.306 125.506C561.372 125.55 562.584 126.728 564.941 129.04L568.442 132.542L571.91 129.074C573.622 127.362 574.667 126.328 575.045 125.972C575.423 125.617 575.667 125.439 575.778 125.439C576.245 125.439 576.479 125.661 576.479 126.106C576.479 126.261 576.368 126.461 576.145 126.706C575.923 126.951 574.834 128.04 572.877 129.974L569.409 133.476L572.877 136.977C574.745 138.844 575.812 139.923 576.079 140.212C576.345 140.501 576.479 140.712 576.479 140.845Z" fill="white"/>
</g>
<g id="Group_44">
<path id="Vector_56" d="M590.656 126.539C590.678 126.495 590.867 125.283 591.223 122.904L591.757 119.336C591.757 119.292 591.979 119.27 592.424 119.27H593.091V119.403C593.091 119.625 593.257 119.814 593.591 119.97C593.924 120.125 594.502 120.225 595.325 120.27C596.147 120.314 598.026 120.337 600.961 120.337H604.996V121.637L602.728 124.738C602.528 125.005 602.194 125.45 601.728 126.072C601.261 126.695 600.961 127.106 600.827 127.306C600.694 127.506 600.46 127.862 600.127 128.373C599.793 128.885 599.571 129.285 599.46 129.574C599.349 129.863 599.193 130.274 598.993 130.808C598.793 131.341 598.648 131.853 598.56 132.342C598.471 132.831 598.382 133.431 598.293 134.142C598.204 134.854 598.137 135.61 598.093 136.41C598.048 137.21 598.015 138.122 597.993 139.144C597.993 139.456 597.993 139.767 597.993 140.078C597.993 140.389 597.982 140.656 597.959 140.879V141.179C597.87 141.557 597.659 141.879 597.326 142.146C596.992 142.413 596.614 142.546 596.192 142.546C595.947 142.546 595.714 142.513 595.492 142.446C595.269 142.379 595.036 142.168 594.791 141.812C594.547 141.457 594.424 141.012 594.424 140.478C594.424 136.966 595.503 133.32 597.659 129.54C598.104 128.829 599.038 127.484 600.46 125.505L601.994 123.405H598.893C595.025 123.405 592.991 123.471 592.79 123.605C592.657 123.671 592.535 123.938 592.424 124.405C592.312 124.872 592.201 125.35 592.09 125.839L591.99 126.539V126.639H590.656V126.539Z" fill="white"/>
<path id="Vector_57" d="M606.895 131.375C606.895 127.751 607.795 124.883 609.596 122.771C611.397 120.659 613.397 119.603 615.598 119.603C617.132 119.603 618.233 120.003 618.9 120.804C619.567 121.604 619.9 122.493 619.9 123.471C619.9 124.027 619.744 124.472 619.433 124.805C619.122 125.139 618.688 125.305 618.133 125.305C617.621 125.305 617.199 125.15 616.865 124.839C616.532 124.527 616.365 124.094 616.365 123.538C616.365 122.56 616.888 121.971 617.933 121.771C617.444 121.281 616.754 121.004 615.865 120.937C614.287 120.937 612.986 121.604 611.963 122.938C610.919 124.405 610.396 126.65 610.396 129.674L610.429 129.807C610.541 129.674 610.63 129.529 610.696 129.374C611.608 128.04 612.797 127.373 614.264 127.373H614.398C615.42 127.373 616.321 127.584 617.099 128.007C617.632 128.318 618.166 128.762 618.7 129.34C619.233 129.918 619.667 130.552 620 131.241C620.467 132.331 620.7 133.52 620.7 134.809V135.41C620.7 135.921 620.645 136.399 620.534 136.844C620.289 138.155 619.578 139.433 618.399 140.678C617.221 141.923 615.732 142.546 613.931 142.546C613.308 142.546 612.708 142.457 612.13 142.279C611.552 142.101 610.93 141.768 610.263 141.279C609.596 140.79 609.029 140.134 608.562 139.311C608.095 138.489 607.695 137.41 607.362 136.077C607.028 134.743 606.872 133.175 606.895 131.375ZM614.064 128.573C613.397 128.573 612.819 128.762 612.33 129.14C611.841 129.518 611.463 130.018 611.196 130.641C610.93 131.263 610.741 131.897 610.63 132.542C610.518 133.186 610.452 133.876 610.429 134.609C610.429 136.454 610.563 137.777 610.83 138.578C611.096 139.378 611.519 140.023 612.097 140.512C612.63 140.912 613.22 141.112 613.864 141.112C614.998 141.112 615.865 140.69 616.465 139.845C616.754 139.445 616.954 138.944 617.066 138.344C617.177 137.744 617.232 136.577 617.232 134.843C617.232 133.064 617.177 131.875 617.066 131.275C616.954 130.674 616.754 130.174 616.465 129.774C615.865 128.974 615.065 128.573 614.064 128.573Z" fill="white"/>
<path id="Vector_58" d="M625.37 122.304C626.615 120.503 628.315 119.603 630.472 119.603C631.539 119.603 632.606 119.892 633.673 120.47C634.74 121.048 635.607 122.071 636.274 123.538C637.097 125.383 637.508 127.918 637.508 131.141C637.508 134.587 637.03 137.221 636.074 139.044C635.629 139.978 635.018 140.723 634.24 141.279C633.462 141.834 632.784 142.179 632.206 142.312C631.628 142.446 631.061 142.524 630.505 142.546C629.927 142.546 629.349 142.479 628.771 142.346C628.193 142.212 627.515 141.857 626.737 141.279C625.959 140.701 625.347 139.956 624.903 139.044C623.947 137.221 623.469 134.587 623.469 131.141C623.469 127.273 624.102 124.327 625.37 122.304ZM632.873 121.904C632.206 121.193 631.417 120.837 630.505 120.837C629.571 120.837 628.771 121.193 628.104 121.904C627.548 122.482 627.181 123.282 627.004 124.305C626.826 125.328 626.737 127.462 626.737 130.708C626.737 134.22 626.826 136.532 627.004 137.644C627.181 138.755 627.582 139.634 628.204 140.278C628.827 140.945 629.594 141.279 630.505 141.279C631.394 141.279 632.15 140.945 632.773 140.278C633.417 139.611 633.818 138.678 633.973 137.477C634.129 136.277 634.218 134.02 634.24 130.708C634.24 127.484 634.151 125.361 633.973 124.338C633.795 123.316 633.428 122.504 632.873 121.904Z" fill="white"/>
</g>
</g>
<g id="Group_45">
<path id="Vector_59" d="M567.215 167.955L566.782 168.122C566.47 168.233 566.026 168.344 565.448 168.455C564.87 168.566 564.225 168.644 563.513 168.688H562.88V167.154H563.513C564.558 167.11 565.525 166.943 566.415 166.654C567.304 166.365 567.926 166.098 568.282 165.854C568.638 165.609 568.949 165.365 569.216 165.12C569.26 165.054 569.394 165.02 569.616 165.02C569.816 165.02 570.005 165.087 570.183 165.22V175.191L570.216 185.195C570.372 185.351 570.505 185.451 570.616 185.495C570.728 185.54 570.994 185.584 571.417 185.629C571.839 185.673 572.528 185.696 573.484 185.696H574.351V187.229H573.985C573.518 187.163 571.75 187.129 568.682 187.129C565.659 187.129 563.914 187.163 563.447 187.229H563.047V185.696H563.914C564.403 185.696 564.825 185.696 565.181 185.696C565.537 185.696 565.814 185.684 566.015 185.662C566.215 185.64 566.392 185.607 566.548 185.562C566.704 185.518 566.793 185.495 566.815 185.495C566.837 185.495 566.904 185.44 567.015 185.329C567.126 185.218 567.193 185.173 567.215 185.195V167.955Z" fill="white"/>
<path id="Vector_60" d="M588.525 177.66C587.458 179.35 586.124 180.194 584.523 180.194C582.789 180.194 581.367 179.539 580.255 178.227C579.143 176.915 578.477 175.515 578.254 174.025C578.21 173.67 578.188 173.225 578.188 172.691V172.425C578.188 170.357 578.954 168.556 580.488 167.022C581.822 165.688 583.29 165.021 584.89 165.021C584.935 165.021 585.001 165.021 585.09 165.021C585.179 165.021 585.268 165.033 585.357 165.055H585.491C585.757 165.055 586.035 165.077 586.324 165.122C586.613 165.166 587.025 165.299 587.558 165.522C588.092 165.744 588.614 166.1 589.125 166.589C589.637 167.078 590.115 167.734 590.559 168.556C591.515 170.513 591.993 173.025 591.993 176.093C591.993 179.205 591.326 181.84 589.992 183.996C589.214 185.241 588.281 186.208 587.191 186.897C586.102 187.586 584.946 187.942 583.723 187.964C582.367 187.964 581.255 187.642 580.388 186.997C579.521 186.353 579.077 185.397 579.055 184.129C579.032 182.862 579.621 182.24 580.822 182.262C581.311 182.262 581.722 182.418 582.056 182.729C582.389 183.04 582.556 183.474 582.556 184.029C582.556 184.43 582.456 184.774 582.256 185.063C582.056 185.352 581.878 185.53 581.722 185.597C581.567 185.663 581.422 185.719 581.289 185.763L581.155 185.797C581.155 185.841 581.233 185.908 581.389 185.997C581.544 186.086 581.833 186.197 582.256 186.33C582.678 186.464 583.145 186.519 583.656 186.497H583.857C585.19 186.497 586.313 185.786 587.225 184.363C588.092 183.118 588.525 180.961 588.525 177.893V177.66ZM584.924 178.961C585.991 178.961 586.847 178.416 587.491 177.327C588.136 176.237 588.47 174.759 588.492 172.891C588.492 171.157 588.403 169.912 588.225 169.157C588.181 168.934 588.114 168.712 588.025 168.49C587.936 168.267 587.78 167.978 587.558 167.623C587.336 167.267 587.002 166.967 586.558 166.722C586.113 166.478 585.591 166.366 584.99 166.389C584.146 166.389 583.423 166.689 582.823 167.289C582.356 167.778 582.056 168.356 581.922 169.023C581.789 169.69 581.711 170.857 581.689 172.525C581.689 174.37 581.745 175.615 581.856 176.259C581.967 176.904 582.189 177.427 582.523 177.827C583.078 178.583 583.879 178.961 584.924 178.961Z" fill="white"/>
</g>
<path id="Vector_61" d="M642.182 157.018H511.381V155.017H642.182V157.018Z" fill="white"/>
</g>
<path id="Arrow 106 (Stroke)" fill-rule="evenodd" clip-rule="evenodd" d="M625.402 110.024L642.593 115.359C643.648 115.687 644.238 116.807 643.91 117.862L638.575 135.053C638.248 136.108 637.127 136.698 636.072 136.371C635.017 136.043 634.427 134.923 634.755 133.868L638.659 121.288L585.932 149.039L584.069 145.499L636.796 117.748L624.216 113.844C623.161 113.517 622.571 112.396 622.899 111.341C623.226 110.286 624.347 109.697 625.402 110.024Z" fill="#FD0C0C"/>
<path id="Arrow 107 (Stroke)" fill-rule="evenodd" clip-rule="evenodd" d="M591.402 158.024L608.593 163.359C609.648 163.687 610.238 164.807 609.91 165.862L604.575 183.053C604.248 184.108 603.127 184.698 602.072 184.371C601.017 184.043 600.427 182.923 600.755 181.868L604.659 169.288L551.932 197.039L550.069 193.499L602.796 165.748L590.216 161.844C589.161 161.517 588.571 160.396 588.899 159.341C589.226 158.286 590.347 157.697 591.402 158.024Z" fill="#FD0C0C"/>
<g id="Group_46">
<path id="Vector_62" d="M610.473 101.846C610.073 101.779 608.639 101.746 606.171 101.746C603.592 101.746 602.103 101.779 601.702 101.846H601.402V100.312H602.436C602.881 100.312 603.181 100.312 603.336 100.312C603.492 100.312 603.681 100.289 603.903 100.245C604.126 100.201 604.281 100.145 604.37 100.078C604.459 100.012 604.537 99.9227 604.604 99.8115C604.626 99.7671 604.637 99.1668 604.637 98.0108V96.3434H596V94.8094L601.035 87.1062C604.437 81.9485 606.16 79.3586 606.204 79.3363C606.249 79.2919 606.482 79.2696 606.905 79.2696H607.505L607.705 79.4697V94.8094H610.773V96.3434H607.705V98.0441C607.705 98.9556 607.705 99.4892 607.705 99.6448C607.705 99.8004 607.772 99.9338 607.905 100.045C608.083 100.201 608.716 100.289 609.806 100.312H610.773V101.846H610.473ZM604.837 94.8094V83.6715L597.534 94.7761L601.169 94.8094H604.837Z" fill="white"/>
<path id="Vector_63" d="M614.945 82.3388C616.19 80.5381 617.89 79.6377 620.047 79.6377C621.114 79.6377 622.181 79.9267 623.248 80.5047C624.315 81.0827 625.182 82.1054 625.849 83.5726C626.672 85.4179 627.083 87.9522 627.083 91.1758C627.083 94.6217 626.605 97.2561 625.649 99.0791C625.205 100.013 624.593 100.758 623.815 101.313C623.037 101.869 622.359 102.214 621.781 102.347C621.203 102.481 620.636 102.558 620.08 102.581C619.502 102.581 618.924 102.514 618.346 102.38C617.768 102.247 617.09 101.891 616.312 101.313C615.534 100.735 614.923 99.9906 614.478 99.0791C613.522 97.2561 613.044 94.6217 613.044 91.1758C613.044 87.3075 613.678 84.3619 614.945 82.3388ZM622.448 81.9386C621.781 81.2272 620.992 80.8715 620.08 80.8715C619.146 80.8715 618.346 81.2272 617.679 81.9386C617.123 82.5167 616.757 83.317 616.579 84.3396C616.401 85.3623 616.312 87.4965 616.312 90.7423C616.312 94.2549 616.401 96.5669 616.579 97.6785C616.757 98.7901 617.157 99.6682 617.779 100.313C618.402 100.98 619.169 101.313 620.08 101.313C620.969 101.313 621.725 100.98 622.348 100.313C622.993 99.646 623.393 98.7123 623.548 97.5118C623.704 96.3113 623.793 94.0548 623.815 90.7423C623.815 87.5187 623.726 85.3956 623.548 84.373C623.37 83.3503 623.004 82.5389 622.448 81.9386Z" fill="white"/>
</g>
<g id="Group_47">
<path id="Vector_64" d="M575.335 203.204L574.902 203.371C574.59 203.482 574.146 203.593 573.568 203.705C572.99 203.816 572.345 203.893 571.634 203.938H571V202.404H571.634C572.678 202.36 573.646 202.193 574.535 201.904C575.424 201.615 576.047 201.348 576.402 201.103C576.758 200.859 577.069 200.614 577.336 200.37C577.38 200.303 577.514 200.27 577.736 200.27C577.936 200.27 578.125 200.336 578.303 200.47V210.441L578.336 220.445C578.492 220.6 578.625 220.7 578.737 220.745C578.848 220.789 579.114 220.834 579.537 220.878C579.959 220.923 580.648 220.945 581.604 220.945H582.471V222.479H582.105C581.638 222.412 579.87 222.379 576.802 222.379C573.779 222.379 572.034 222.412 571.567 222.479H571.167V220.945H572.034C572.523 220.945 572.945 220.945 573.301 220.945C573.657 220.945 573.935 220.934 574.135 220.912C574.335 220.889 574.513 220.856 574.668 220.812C574.824 220.767 574.913 220.745 574.935 220.745C574.957 220.745 575.024 220.689 575.135 220.578C575.246 220.467 575.313 220.423 575.335 220.445V203.204Z" fill="white"/>
</g>
<g id="Group 579">
<g id="Group_48">
<path id="Vector_65" d="M666 151.276C666 150.987 666.156 150.764 666.467 150.609H687.709C688.043 150.787 688.209 151.009 688.209 151.276C688.209 151.52 688.054 151.732 687.742 151.909L677.138 151.943H666.534C666.178 151.832 666 151.609 666 151.276ZM666 157.745C666 157.412 666.178 157.189 666.534 157.078H687.742C688.054 157.301 688.209 157.523 688.209 157.745C688.209 158.034 688.043 158.256 687.709 158.412H666.467C666.156 158.256 666 158.034 666 157.745Z" fill="white"/>
</g>
<g id="Group_49">
<path id="Vector_66" d="M714.747 162.846C714.347 162.779 712.913 162.746 710.445 162.746C707.866 162.746 706.377 162.779 705.977 162.846H705.677V161.312H706.71C707.155 161.312 707.455 161.312 707.611 161.312C707.766 161.312 707.955 161.289 708.178 161.245C708.4 161.201 708.556 161.145 708.645 161.078C708.733 161.012 708.811 160.923 708.878 160.812C708.9 160.767 708.911 160.167 708.911 159.011V157.343H700.274V155.809L705.31 148.106C708.711 142.949 710.434 140.359 710.479 140.336C710.523 140.292 710.757 140.27 711.179 140.27H711.779L711.979 140.47V155.809H715.047V157.343H711.979V159.044C711.979 159.956 711.979 160.489 711.979 160.645C711.979 160.8 712.046 160.934 712.179 161.045C712.357 161.201 712.991 161.289 714.08 161.312H715.047V162.846H714.747ZM709.111 155.809V144.671L701.808 155.776L705.443 155.809H709.111Z" fill="white"/>
<path id="Vector_67" d="M718.348 148.941C718.348 148.941 718.348 148.085 718.348 146.373C718.348 144.662 718.948 143.283 720.148 142.238C721.349 141.193 722.727 140.66 724.283 140.638C725.862 140.638 727.262 141.105 728.485 142.038C729.708 142.972 730.319 144.184 730.319 145.673C730.319 146.34 730.197 146.963 729.952 147.541C729.708 148.119 729.419 148.585 729.085 148.941C728.752 149.297 728.407 149.608 728.052 149.875C727.696 150.142 727.407 150.342 727.185 150.475C726.962 150.608 726.84 150.697 726.818 150.742L727.285 151.042C727.596 151.264 727.907 151.487 728.218 151.709C728.53 151.931 728.708 152.054 728.752 152.076C730.419 153.387 731.253 155.044 731.253 157.045C731.253 158.801 730.608 160.324 729.319 161.613C728.029 162.903 726.362 163.558 724.317 163.581C722.316 163.581 720.671 163.014 719.381 161.88C718.092 160.746 717.447 159.345 717.447 157.678C717.447 155.277 718.881 153.276 721.749 151.676L721.149 151.242C720.682 150.953 720.382 150.731 720.248 150.575C718.981 149.486 718.348 148.085 718.348 146.373V148.941ZM725.551 149.975L725.751 149.842C725.884 149.753 725.984 149.686 726.051 149.641C726.118 149.597 726.229 149.519 726.384 149.408C726.54 149.297 726.673 149.186 726.784 149.075C726.896 148.963 727.018 148.83 727.151 148.674C727.285 148.519 727.407 148.374 727.518 148.241C727.629 148.107 727.74 147.93 727.852 147.707C727.963 147.485 728.063 147.296 728.152 147.14C728.241 146.985 728.296 146.762 728.318 146.473C728.341 146.184 728.363 145.94 728.385 145.74C728.385 144.784 728.063 143.972 727.418 143.305C726.773 142.639 726.029 142.216 725.184 142.038C725.028 142.016 724.661 142.005 724.083 142.005C723.172 142.005 722.316 142.294 721.516 142.872C720.715 143.45 720.304 144.172 720.282 145.04C720.282 145.551 720.426 146.018 720.715 146.44C721.004 146.862 721.293 147.185 721.582 147.407C721.871 147.629 722.427 147.985 723.25 148.474C723.405 148.585 723.528 148.663 723.617 148.708L725.551 149.975ZM724.35 162.147C725.64 162.147 726.751 161.769 727.685 161.013C728.619 160.257 729.085 159.345 729.085 158.278C729.085 157.9 729.03 157.545 728.919 157.211C728.808 156.878 728.674 156.6 728.519 156.378C728.363 156.155 728.118 155.911 727.785 155.644C727.451 155.377 727.196 155.177 727.018 155.044C726.84 154.91 726.518 154.699 726.051 154.41C725.584 154.121 725.284 153.932 725.15 153.843C724.839 153.643 724.506 153.432 724.15 153.21C723.794 152.987 723.505 152.798 723.283 152.643L723.016 152.476C722.883 152.476 722.561 152.665 722.049 153.043C721.538 153.421 721.004 154.032 720.449 154.877C719.893 155.722 719.604 156.633 719.581 157.611C719.581 158.923 720.059 160.001 721.015 160.846C721.971 161.691 723.083 162.124 724.35 162.147Z" fill="white"/>
<path id="Vector_68" d="M735.888 143.339C737.133 141.538 738.834 140.638 740.99 140.638C742.057 140.638 743.124 140.927 744.192 141.505C745.259 142.083 746.126 143.105 746.793 144.573C747.615 146.418 748.026 148.952 748.026 152.176C748.026 155.622 747.549 158.256 746.593 160.079C746.148 161.013 745.537 161.758 744.758 162.313C743.98 162.869 743.302 163.214 742.724 163.347C742.146 163.481 741.579 163.558 741.024 163.581C740.446 163.581 739.868 163.514 739.29 163.38C738.711 163.247 738.033 162.891 737.255 162.313C736.477 161.735 735.866 160.991 735.421 160.079C734.465 158.256 733.987 155.622 733.987 152.176C733.987 148.308 734.621 145.362 735.888 143.339ZM743.391 142.939C742.724 142.227 741.935 141.872 741.024 141.872C740.09 141.872 739.29 142.227 738.623 142.939C738.067 143.517 737.7 144.317 737.522 145.34C737.344 146.362 737.255 148.497 737.255 151.742C737.255 155.255 737.344 157.567 737.522 158.679C737.7 159.79 738.1 160.668 738.723 161.313C739.345 161.98 740.112 162.313 741.024 162.313C741.913 162.313 742.669 161.98 743.291 161.313C743.936 160.646 744.336 159.712 744.492 158.512C744.647 157.311 744.736 155.055 744.758 151.742C744.758 148.519 744.67 146.396 744.492 145.373C744.314 144.35 743.947 143.539 743.391 142.939Z" fill="white"/>
</g>
</g>
</g>
</g>
</g>
</g>
</svg>
