<svg viewBox="0 0 993 395" fill="none" xmlns="http://www.w3.org/2000/svg">
<g id="0120143">
<g id="claves01">
<path id="Rectangle 4" d="M57 205H273.745L307 245L273.745 285H57V205Z" fill="#E8A1EE" fill-opacity="0.1"/>
<path id="Rectangle 4 (Stroke)" fill-rule="evenodd" clip-rule="evenodd" d="M272.338 208H60V282H272.338L303.099 245L272.338 208ZM273.745 205H57V285H273.745L307 245L273.745 205Z" fill="#E8A1EE"/>
<path id="Rectangle 5" d="M61 315H277.745L311 355L277.745 395H61V315Z" fill="#E8A1EE" fill-opacity="0.1"/>
<path id="Rectangle 5 (Stroke)" fill-rule="evenodd" clip-rule="evenodd" d="M276.338 318H64V392H276.338L307.099 355L276.338 318ZM277.745 315H61V395H277.745L311 355L277.745 315Z" fill="#E8A1EE"/>
<path id="Rectangle 6" d="M397 202H613.745L647 242L613.745 282H397V202Z" fill="#E8A1EE" fill-opacity="0.1"/>
<path id="Rectangle 6 (Stroke)" fill-rule="evenodd" clip-rule="evenodd" d="M612.338 205H400V279H612.338L643.099 242L612.338 205ZM613.745 202H397V282H613.745L647 242L613.745 202Z" fill="#E8A1EE"/>
<path id="Rectangle 7" d="M400 312H616.745L650 352L616.745 392H400V312Z" fill="#E8A1EE" fill-opacity="0.1"/>
<path id="Rectangle 7 (Stroke)" fill-rule="evenodd" clip-rule="evenodd" d="M615.338 315H403V389H615.338L646.099 352L615.338 315ZM616.745 312H400V392H616.745L650 352L616.745 312Z" fill="#E8A1EE"/>
<path id="Rectangle 8" d="M743 261H959.745L993 301L959.745 341H743V261Z" fill="#E8A1EE" fill-opacity="0.1"/>
<path id="Rectangle 8 (Stroke)" fill-rule="evenodd" clip-rule="evenodd" d="M958.338 264H746V338H958.338L989.099 301L958.338 264ZM959.745 261H743V341H959.745L993 301L959.745 261Z" fill="#E8A1EE"/>
<path id="Ellipse 1" d="M98 245C98 267.091 80.0914 285 58 285C35.9086 285 18 267.091 18 245C18 222.909 35.9086 205 58 205C80.0914 205 98 222.909 98 245Z" fill="#E8A1EE"/>
<path id="Ellipse 2" d="M102 355C102 377.091 84.0914 395 62 395C39.9086 395 22 377.091 22 355C22 332.909 39.9086 315 62 315C84.0914 315 102 332.909 102 355Z" fill="#E8A1EE"/>
<path id="Ellipse 3" d="M438 242C438 264.091 420.091 282 398 282C375.909 282 358 264.091 358 242C358 219.909 375.909 202 398 202C420.091 202 438 219.909 438 242Z" fill="#E8A1EE"/>
<path id="Ellipse 4" d="M441 352C441 374.091 423.091 392 401 392C378.909 392 361 374.091 361 352C361 329.909 378.909 312 401 312C423.091 312 441 329.909 441 352Z" fill="#E8A1EE"/>
<path id="Ellipse 5" d="M784 301C784 323.091 766.091 341 744 341C721.909 341 704 323.091 704 301C704 278.909 721.909 261 744 261C766.091 261 784 278.909 784 301Z" fill="#E8A1EE"/>
<path id="A" d="M66.0938 255.406H48.4688L44.7812 266H36.5625L53.75 220.5H60.8438L78.0625 266H69.8125L66.0938 255.406ZM50.6875 249.031H63.875L57.2812 230.156L50.6875 249.031Z" fill="white"/>
<path id="B" d="M45.625 371V325.5H61.2188C66.3646 325.5 70.2812 326.531 72.9688 328.594C75.6562 330.656 77 333.729 77 337.812C77 339.896 76.4375 341.771 75.3125 343.438C74.1875 345.104 72.5417 346.396 70.375 347.312C72.8333 347.979 74.7292 349.24 76.0625 351.094C77.4167 352.927 78.0938 355.135 78.0938 357.719C78.0938 361.99 76.7188 365.271 73.9688 367.562C71.2396 369.854 67.3229 371 62.2188 371H45.625ZM53.5312 350.469V364.688H62.3125C64.7917 364.688 66.7292 364.073 68.125 362.844C69.5208 361.615 70.2188 359.906 70.2188 357.719C70.2188 352.99 67.8021 350.573 62.9688 350.469H53.5312ZM53.5312 344.656H61.2812C63.7396 344.656 65.6562 344.104 67.0312 343C68.4271 341.875 69.125 340.292 69.125 338.25C69.125 336 68.4792 334.375 67.1875 333.375C65.9167 332.375 63.9271 331.875 61.2188 331.875H53.5312V344.656Z" fill="white"/>
<path id="C" d="M415.344 249.188C414.885 254.042 413.094 257.833 409.969 260.562C406.844 263.271 402.688 264.625 397.5 264.625C393.875 264.625 390.677 263.771 387.906 262.062C385.156 260.333 383.031 257.885 381.531 254.719C380.031 251.552 379.25 247.875 379.188 243.688V239.438C379.188 235.146 379.948 231.365 381.469 228.094C382.99 224.823 385.167 222.302 388 220.531C390.854 218.76 394.146 217.875 397.875 217.875C402.896 217.875 406.938 219.24 410 221.969C413.062 224.698 414.844 228.552 415.344 233.531H407.469C407.094 230.26 406.135 227.906 404.594 226.469C403.073 225.01 400.833 224.281 397.875 224.281C394.438 224.281 391.792 225.542 389.938 228.062C388.104 230.562 387.167 234.24 387.125 239.094V243.125C387.125 248.042 388 251.792 389.75 254.375C391.521 256.958 394.104 258.25 397.5 258.25C400.604 258.25 402.938 257.552 404.5 256.156C406.062 254.76 407.052 252.438 407.469 249.188H415.344Z" fill="white"/>
<path id="D" d="M383.625 374V328.5H397.062C401.083 328.5 404.646 329.396 407.75 331.188C410.875 332.979 413.292 335.521 415 338.812C416.708 342.104 417.562 345.875 417.562 350.125V352.406C417.562 356.719 416.698 360.51 414.969 363.781C413.26 367.052 410.812 369.573 407.625 371.344C404.458 373.115 400.823 374 396.719 374H383.625ZM391.531 334.875V367.688H396.688C400.833 367.688 404.01 366.396 406.219 363.812C408.448 361.208 409.583 357.479 409.625 352.625V350.094C409.625 345.156 408.552 341.385 406.406 338.781C404.26 336.177 401.146 334.875 397.062 334.875H391.531Z" fill="white"/>
<path id="E" d="M753.219 302.688H734.531V316.688H756.375V323H726.625V277.5H756.156V283.875H734.531V296.438H753.219V302.688Z" fill="white"/>
<g id="flecha">
<path id="Rectangle 2" d="M404.2 204.008L419.482 212.133L377.5 291.089L362.219 282.963L404.2 204.008Z" fill="#1043F5"/>
<path id="Rectangle 1" d="M346 216.904L436 167V224.692L391 207.096L346 216.904Z" fill="#1043F5"/>
<path id="Rectangle 3" d="M350.038 286.21L365.665 259.143L382.936 258.565L367.309 285.632L350.038 286.21Z" fill="#1043F5"/>
<path id="Rectangle 4_2" d="M376.09 300.845L391.717 273.778L382.926 258.154L367.299 285.221L376.09 300.845Z" fill="#1043F5"/>
</g>
<g id="20 21 22 28 31">
<path d="M156.896 262H140.127V259.662L148.986 249.818C150.299 248.33 151.201 247.123 151.693 246.197C152.197 245.26 152.449 244.293 152.449 243.297C152.449 241.961 152.045 240.865 151.236 240.01C150.428 239.154 149.35 238.727 148.002 238.727C146.385 238.727 145.125 239.189 144.223 240.115C143.332 241.029 142.887 242.307 142.887 243.947H139.635C139.635 241.592 140.391 239.688 141.902 238.234C143.426 236.781 145.459 236.055 148.002 236.055C150.381 236.055 152.262 236.682 153.645 237.936C155.027 239.178 155.719 240.836 155.719 242.91C155.719 245.43 154.113 248.43 150.902 251.91L144.047 259.346H156.896V262Z" fill="#E8A1EE"/>
<path d="M176.391 251.084C176.391 254.893 175.74 257.723 174.439 259.574C173.139 261.426 171.105 262.352 168.34 262.352C165.609 262.352 163.588 261.449 162.275 259.645C160.963 257.828 160.283 255.121 160.236 251.523V247.182C160.236 243.42 160.887 240.625 162.188 238.797C163.488 236.969 165.527 236.055 168.305 236.055C171.059 236.055 173.086 236.939 174.387 238.709C175.688 240.467 176.355 243.186 176.391 246.865V251.084ZM173.139 246.637C173.139 243.883 172.752 241.879 171.979 240.625C171.205 239.359 169.98 238.727 168.305 238.727C166.641 238.727 165.428 239.354 164.666 240.607C163.904 241.861 163.512 243.789 163.488 246.391V251.594C163.488 254.359 163.887 256.404 164.684 257.729C165.492 259.041 166.711 259.697 168.34 259.697C169.945 259.697 171.135 259.076 171.908 257.834C172.693 256.592 173.104 254.635 173.139 251.963V246.637Z" fill="#E8A1EE"/>
<path d="M509.865 262H493.096V259.662L501.955 249.818C503.268 248.33 504.17 247.123 504.662 246.197C505.166 245.26 505.418 244.293 505.418 243.297C505.418 241.961 505.014 240.865 504.205 240.01C503.396 239.154 502.318 238.727 500.971 238.727C499.354 238.727 498.094 239.189 497.191 240.115C496.301 241.029 495.855 242.307 495.855 243.947H492.604C492.604 241.592 493.359 239.688 494.871 238.234C496.395 236.781 498.428 236.055 500.971 236.055C503.35 236.055 505.23 236.682 506.613 237.936C507.996 239.178 508.688 240.836 508.688 242.91C508.688 245.43 507.082 248.43 503.871 251.91L497.016 259.346H509.865V262Z" fill="#E8A1EE"/>
<path d="M523.998 262H520.729V240.326L514.172 242.734V239.781L523.488 236.283H523.998V262Z" fill="#E8A1EE"/>
<path d="M853.412 312H836.643V309.662L845.502 299.818C846.814 298.33 847.717 297.123 848.209 296.197C848.713 295.26 848.965 294.293 848.965 293.297C848.965 291.961 848.561 290.865 847.752 290.01C846.943 289.154 845.865 288.727 844.518 288.727C842.9 288.727 841.641 289.189 840.738 290.115C839.848 291.029 839.402 292.307 839.402 293.947H836.15C836.15 291.592 836.906 289.688 838.418 288.234C839.941 286.781 841.975 286.055 844.518 286.055C846.896 286.055 848.777 286.682 850.16 287.936C851.543 289.178 852.234 290.836 852.234 292.91C852.234 295.43 850.629 298.43 847.418 301.91L840.562 309.346H853.412V312Z" fill="#E8A1EE"/>
<path d="M873.627 312H856.857V309.662L865.717 299.818C867.029 298.33 867.932 297.123 868.424 296.197C868.928 295.26 869.18 294.293 869.18 293.297C869.18 291.961 868.775 290.865 867.967 290.01C867.158 289.154 866.08 288.727 864.732 288.727C863.115 288.727 861.855 289.189 860.953 290.115C860.062 291.029 859.617 292.307 859.617 293.947H856.365C856.365 291.592 857.121 289.688 858.633 288.234C860.156 286.781 862.189 286.055 864.732 286.055C867.111 286.055 868.992 286.682 870.375 287.936C871.758 289.178 872.449 290.836 872.449 292.91C872.449 295.43 870.844 298.43 867.633 301.91L860.777 309.346H873.627V312Z" fill="#E8A1EE"/>
<path d="M156.896 362H140.127V359.662L148.986 349.818C150.299 348.33 151.201 347.123 151.693 346.197C152.197 345.26 152.449 344.293 152.449 343.297C152.449 341.961 152.045 340.865 151.236 340.01C150.428 339.154 149.35 338.727 148.002 338.727C146.385 338.727 145.125 339.189 144.223 340.115C143.332 341.029 142.887 342.307 142.887 343.947H139.635C139.635 341.592 140.391 339.688 141.902 338.234C143.426 336.781 145.459 336.055 148.002 336.055C150.381 336.055 152.262 336.682 153.645 337.936C155.027 339.178 155.719 340.836 155.719 342.91C155.719 345.43 154.113 348.43 150.902 351.91L144.047 359.346H156.896V362Z" fill="#E8A1EE"/>
<path d="M175.863 343.086C175.863 344.363 175.523 345.5 174.844 346.496C174.176 347.492 173.268 348.271 172.119 348.834C173.455 349.408 174.51 350.246 175.283 351.348C176.068 352.449 176.461 353.697 176.461 355.092C176.461 357.307 175.711 359.07 174.211 360.383C172.723 361.695 170.76 362.352 168.322 362.352C165.861 362.352 163.887 361.695 162.398 360.383C160.922 359.059 160.184 357.295 160.184 355.092C160.184 353.709 160.559 352.461 161.309 351.348C162.07 350.234 163.119 349.391 164.455 348.816C163.318 348.254 162.422 347.475 161.766 346.479C161.109 345.482 160.781 344.352 160.781 343.086C160.781 340.93 161.473 339.219 162.855 337.953C164.238 336.688 166.061 336.055 168.322 336.055C170.572 336.055 172.389 336.688 173.771 337.953C175.166 339.219 175.863 340.93 175.863 343.086ZM173.209 355.021C173.209 353.592 172.752 352.426 171.838 351.523C170.936 350.621 169.752 350.17 168.287 350.17C166.822 350.17 165.645 350.615 164.754 351.506C163.875 352.396 163.436 353.568 163.436 355.021C163.436 356.475 163.863 357.617 164.719 358.449C165.586 359.281 166.787 359.697 168.322 359.697C169.846 359.697 171.041 359.281 171.908 358.449C172.775 357.605 173.209 356.463 173.209 355.021ZM168.322 338.727C167.045 338.727 166.008 339.125 165.211 339.922C164.426 340.707 164.033 341.779 164.033 343.139C164.033 344.439 164.42 345.494 165.193 346.303C165.979 347.1 167.021 347.498 168.322 347.498C169.623 347.498 170.66 347.1 171.434 346.303C172.219 345.494 172.611 344.439 172.611 343.139C172.611 341.838 172.207 340.777 171.398 339.957C170.59 339.137 169.564 338.727 168.322 338.727Z" fill="#E8A1EE"/>
<path d="M497.824 347.621H500.268C501.803 347.598 503.01 347.193 503.889 346.408C504.768 345.623 505.207 344.562 505.207 343.227C505.207 340.227 503.713 338.727 500.725 338.727C499.318 338.727 498.193 339.131 497.35 339.939C496.518 340.736 496.102 341.797 496.102 343.121H492.85C492.85 341.094 493.588 339.412 495.064 338.076C496.553 336.729 498.439 336.055 500.725 336.055C503.139 336.055 505.031 336.693 506.402 337.971C507.773 339.248 508.459 341.023 508.459 343.297C508.459 344.41 508.096 345.488 507.369 346.531C506.654 347.574 505.676 348.354 504.434 348.869C505.84 349.314 506.924 350.053 507.686 351.084C508.459 352.115 508.846 353.375 508.846 354.863C508.846 357.16 508.096 358.982 506.596 360.33C505.096 361.678 503.145 362.352 500.742 362.352C498.34 362.352 496.383 361.701 494.871 360.4C493.371 359.1 492.621 357.383 492.621 355.25H495.891C495.891 356.598 496.33 357.676 497.209 358.484C498.088 359.293 499.266 359.697 500.742 359.697C502.312 359.697 503.514 359.287 504.346 358.467C505.178 357.646 505.594 356.469 505.594 354.934C505.594 353.445 505.137 352.303 504.223 351.506C503.309 350.709 501.99 350.299 500.268 350.275H497.824V347.621Z" fill="#E8A1EE"/>
<path d="M523.998 362H520.729V340.326L514.172 342.734V339.781L523.488 336.283H523.998V362Z" fill="#E8A1EE"/>
</g>
</g>
<g id="enun01">
<path id="Rectangle 1_2" d="M58.2471 0H874.247L943 84.2698L874.247 171H58.2471V0Z" fill="#02071A"/>
<path id="Rectangle 1 (Stroke)" fill-rule="evenodd" clip-rule="evenodd" d="M872.335 4H62.2641V167H872.3L937.854 84.3058L872.335 4ZM874.247 0H58.2471V171H874.247L943 84.2698L874.247 0Z" fill="#E8A1EE"/>
<path id="Ellipse 1_2" d="M100.426 91C100.426 118.614 77.9449 141 50.213 141C22.4811 141 0 118.614 0 91C0 63.3858 22.4811 41 50.213 41C77.9449 41 100.426 63.3858 100.426 91Z" fill="#E8A1EE"/>
<path id="Ellipse 1 (Stroke)" fill-rule="evenodd" clip-rule="evenodd" d="M50.213 140C77.3902 140 99.4217 118.062 99.4217 91C99.4217 63.938 77.3902 42 50.213 42C23.0358 42 1.00426 63.938 1.00426 91C1.00426 118.062 23.0358 140 50.213 140ZM50.213 141C77.9449 141 100.426 118.614 100.426 91C100.426 63.3858 77.9449 41 50.213 41C22.4811 41 0 63.3858 0 91C0 118.614 22.4811 141 50.213 141Z" fill="#E8A1EE"/>
<g id="La suma de tres n&#195;&#186;meros impares consecutivos es 63. Determina el n&#195;&#186;mero intermedio.">
<path d="M115.363 83.2402H127.492V86H111.971V60.4062H115.363V83.2402Z" fill="white"/>
<path d="M142.574 86C142.387 85.625 142.234 84.957 142.117 83.9961C140.605 85.5664 138.801 86.3516 136.703 86.3516C134.828 86.3516 133.287 85.8242 132.08 84.7695C130.885 83.7031 130.287 82.3555 130.287 80.7266C130.287 78.7461 131.037 77.2109 132.537 76.1211C134.049 75.0195 136.17 74.4688 138.9 74.4688H142.064V72.9746C142.064 71.8379 141.725 70.9355 141.045 70.2676C140.365 69.5879 139.363 69.248 138.039 69.248C136.879 69.248 135.906 69.541 135.121 70.127C134.336 70.7129 133.943 71.4219 133.943 72.2539H130.674C130.674 71.3047 131.008 70.3906 131.676 69.5117C132.355 68.6211 133.27 67.918 134.418 67.4023C135.578 66.8867 136.85 66.6289 138.232 66.6289C140.424 66.6289 142.141 67.1797 143.383 68.2812C144.625 69.3711 145.27 70.877 145.316 72.7988V81.5527C145.316 83.2988 145.539 84.6875 145.984 85.7188V86H142.574ZM137.178 83.5215C138.197 83.5215 139.164 83.2578 140.078 82.7305C140.992 82.2031 141.654 81.5176 142.064 80.6738V76.7715H139.516C135.531 76.7715 133.539 77.9375 133.539 80.2695C133.539 81.2891 133.879 82.0859 134.559 82.6602C135.238 83.2344 136.111 83.5215 137.178 83.5215Z" fill="white"/>
<path d="M170.418 80.9551C170.418 80.0762 170.084 79.3965 169.416 78.916C168.76 78.4238 167.605 78.002 165.953 77.6504C164.312 77.2988 163.006 76.877 162.033 76.3848C161.072 75.8926 160.357 75.3066 159.889 74.627C159.432 73.9473 159.203 73.1387 159.203 72.2012C159.203 70.6426 159.859 69.3242 161.172 68.2461C162.496 67.168 164.184 66.6289 166.234 66.6289C168.391 66.6289 170.137 67.1855 171.473 68.2988C172.82 69.4121 173.494 70.8359 173.494 72.5703H170.225C170.225 71.6797 169.844 70.9121 169.082 70.2676C168.332 69.623 167.383 69.3008 166.234 69.3008C165.051 69.3008 164.125 69.5586 163.457 70.0742C162.789 70.5898 162.455 71.2637 162.455 72.0957C162.455 72.8809 162.766 73.4727 163.387 73.8711C164.008 74.2695 165.127 74.6504 166.744 75.0137C168.373 75.377 169.691 75.8105 170.699 76.3145C171.707 76.8184 172.451 77.4277 172.932 78.1426C173.424 78.8457 173.67 79.707 173.67 80.7266C173.67 82.4258 172.99 83.791 171.631 84.8223C170.271 85.8418 168.508 86.3516 166.34 86.3516C164.816 86.3516 163.469 86.082 162.297 85.543C161.125 85.0039 160.205 84.2539 159.537 83.293C158.881 82.3203 158.553 81.2715 158.553 80.1465H161.805C161.863 81.2363 162.297 82.1035 163.105 82.748C163.926 83.3809 165.004 83.6973 166.34 83.6973C167.57 83.6973 168.555 83.4512 169.293 82.959C170.043 82.4551 170.418 81.7871 170.418 80.9551Z" fill="white"/>
<path d="M189.648 84.1191C188.383 85.6074 186.525 86.3516 184.076 86.3516C182.049 86.3516 180.502 85.7656 179.436 84.5938C178.381 83.4102 177.848 81.6641 177.836 79.3555V66.9805H181.088V79.2676C181.088 82.1504 182.26 83.5918 184.604 83.5918C187.088 83.5918 188.74 82.666 189.561 80.8145V66.9805H192.812V86H189.719L189.648 84.1191Z" fill="white"/>
<path d="M200.828 66.9805L200.916 69.0898C202.311 67.4492 204.191 66.6289 206.559 66.6289C209.219 66.6289 211.029 67.6484 211.99 69.6875C212.623 68.7734 213.443 68.0352 214.451 67.4727C215.471 66.9102 216.672 66.6289 218.055 66.6289C222.227 66.6289 224.348 68.8379 224.418 73.2559V86H221.166V73.4492C221.166 72.0898 220.855 71.0762 220.234 70.4082C219.613 69.7285 218.57 69.3887 217.105 69.3887C215.898 69.3887 214.896 69.752 214.1 70.4785C213.303 71.1934 212.84 72.1602 212.711 73.3789V86H209.441V73.5371C209.441 70.7715 208.088 69.3887 205.381 69.3887C203.248 69.3887 201.789 70.2969 201.004 72.1133V86H197.752V66.9805H200.828Z" fill="white"/>
<path d="M241.082 86C240.895 85.625 240.742 84.957 240.625 83.9961C239.113 85.5664 237.309 86.3516 235.211 86.3516C233.336 86.3516 231.795 85.8242 230.588 84.7695C229.393 83.7031 228.795 82.3555 228.795 80.7266C228.795 78.7461 229.545 77.2109 231.045 76.1211C232.557 75.0195 234.678 74.4688 237.408 74.4688H240.572V72.9746C240.572 71.8379 240.232 70.9355 239.553 70.2676C238.873 69.5879 237.871 69.248 236.547 69.248C235.387 69.248 234.414 69.541 233.629 70.127C232.844 70.7129 232.451 71.4219 232.451 72.2539H229.182C229.182 71.3047 229.516 70.3906 230.184 69.5117C230.863 68.6211 231.777 67.918 232.926 67.4023C234.086 66.8867 235.357 66.6289 236.74 66.6289C238.932 66.6289 240.648 67.1797 241.891 68.2812C243.133 69.3711 243.777 70.877 243.824 72.7988V81.5527C243.824 83.2988 244.047 84.6875 244.492 85.7188V86H241.082ZM235.686 83.5215C236.705 83.5215 237.672 83.2578 238.586 82.7305C239.5 82.2031 240.162 81.5176 240.572 80.6738V76.7715H238.023C234.039 76.7715 232.047 77.9375 232.047 80.2695C232.047 81.2891 232.387 82.0859 233.066 82.6602C233.746 83.2344 234.619 83.5215 235.686 83.5215Z" fill="white"/>
<path d="M257.061 76.332C257.061 73.4141 257.752 71.0703 259.135 69.3008C260.518 67.5195 262.328 66.6289 264.566 66.6289C266.793 66.6289 268.557 67.3906 269.857 68.9141V59H273.109V86H270.121L269.963 83.9609C268.662 85.5547 266.852 86.3516 264.531 86.3516C262.328 86.3516 260.529 85.4492 259.135 83.6445C257.752 81.8398 257.061 79.4844 257.061 76.5781V76.332ZM260.312 76.7012C260.312 78.8574 260.758 80.5449 261.648 81.7637C262.539 82.9824 263.77 83.5918 265.34 83.5918C267.402 83.5918 268.908 82.666 269.857 80.8145V72.0781C268.885 70.2852 267.391 69.3887 265.375 69.3887C263.781 69.3887 262.539 70.0039 261.648 71.2344C260.758 72.4648 260.312 74.2871 260.312 76.7012Z" fill="white"/>
<path d="M286.064 86.3516C283.486 86.3516 281.389 85.5078 279.771 83.8203C278.154 82.1211 277.346 79.8535 277.346 77.0176V76.4199C277.346 74.5332 277.703 72.8516 278.418 71.375C279.145 69.8867 280.152 68.7266 281.441 67.8945C282.742 67.0508 284.148 66.6289 285.66 66.6289C288.133 66.6289 290.055 67.4434 291.426 69.0723C292.797 70.7012 293.482 73.0332 293.482 76.0684V77.4219H280.598C280.645 79.2969 281.189 80.8145 282.232 81.9746C283.287 83.123 284.623 83.6973 286.24 83.6973C287.389 83.6973 288.361 83.4629 289.158 82.9941C289.955 82.5254 290.652 81.9043 291.25 81.1309L293.236 82.6777C291.643 85.127 289.252 86.3516 286.064 86.3516ZM285.66 69.3008C284.348 69.3008 283.246 69.7812 282.355 70.7422C281.465 71.6914 280.914 73.0273 280.703 74.75H290.23V74.5039C290.137 72.8516 289.691 71.5742 288.895 70.6719C288.098 69.7578 287.02 69.3008 285.66 69.3008Z" fill="white"/>
<path d="M310.604 62.375V66.9805H314.154V69.4941H310.604V81.2891C310.604 82.0508 310.762 82.625 311.078 83.0117C311.395 83.3867 311.934 83.5742 312.695 83.5742C313.07 83.5742 313.586 83.5039 314.242 83.3633V86C313.387 86.2344 312.555 86.3516 311.746 86.3516C310.293 86.3516 309.197 85.9121 308.459 85.0332C307.721 84.1543 307.352 82.9062 307.352 81.2891V69.4941H303.889V66.9805H307.352V62.375H310.604Z" fill="white"/>
<path d="M327.162 69.8984C326.67 69.8164 326.137 69.7754 325.562 69.7754C323.43 69.7754 321.982 70.6836 321.221 72.5V86H317.969V66.9805H321.133L321.186 69.1777C322.252 67.4785 323.764 66.6289 325.721 66.6289C326.354 66.6289 326.834 66.7109 327.162 66.875V69.8984Z" fill="white"/>
<path d="M337.709 86.3516C335.131 86.3516 333.033 85.5078 331.416 83.8203C329.799 82.1211 328.99 79.8535 328.99 77.0176V76.4199C328.99 74.5332 329.348 72.8516 330.062 71.375C330.789 69.8867 331.797 68.7266 333.086 67.8945C334.387 67.0508 335.793 66.6289 337.305 66.6289C339.777 66.6289 341.699 67.4434 343.07 69.0723C344.441 70.7012 345.127 73.0332 345.127 76.0684V77.4219H332.242C332.289 79.2969 332.834 80.8145 333.877 81.9746C334.932 83.123 336.268 83.6973 337.885 83.6973C339.033 83.6973 340.006 83.4629 340.803 82.9941C341.6 82.5254 342.297 81.9043 342.895 81.1309L344.881 82.6777C343.287 85.127 340.896 86.3516 337.709 86.3516ZM337.305 69.3008C335.992 69.3008 334.891 69.7812 334 70.7422C333.109 71.6914 332.559 73.0273 332.348 74.75H341.875V74.5039C341.781 72.8516 341.336 71.5742 340.539 70.6719C339.742 69.7578 338.664 69.3008 337.305 69.3008Z" fill="white"/>
<path d="M359.98 80.9551C359.98 80.0762 359.646 79.3965 358.979 78.916C358.322 78.4238 357.168 78.002 355.516 77.6504C353.875 77.2988 352.568 76.877 351.596 76.3848C350.635 75.8926 349.92 75.3066 349.451 74.627C348.994 73.9473 348.766 73.1387 348.766 72.2012C348.766 70.6426 349.422 69.3242 350.734 68.2461C352.059 67.168 353.746 66.6289 355.797 66.6289C357.953 66.6289 359.699 67.1855 361.035 68.2988C362.383 69.4121 363.057 70.8359 363.057 72.5703H359.787C359.787 71.6797 359.406 70.9121 358.645 70.2676C357.895 69.623 356.945 69.3008 355.797 69.3008C354.613 69.3008 353.688 69.5586 353.02 70.0742C352.352 70.5898 352.018 71.2637 352.018 72.0957C352.018 72.8809 352.328 73.4727 352.949 73.8711C353.57 74.2695 354.689 74.6504 356.307 75.0137C357.936 75.377 359.254 75.8105 360.262 76.3145C361.27 76.8184 362.014 77.4277 362.494 78.1426C362.986 78.8457 363.232 79.707 363.232 80.7266C363.232 82.4258 362.553 83.791 361.193 84.8223C359.834 85.8418 358.07 86.3516 355.902 86.3516C354.379 86.3516 353.031 86.082 351.859 85.543C350.688 85.0039 349.768 84.2539 349.1 83.293C348.443 82.3203 348.115 81.2715 348.115 80.1465H351.367C351.426 81.2363 351.859 82.1035 352.668 82.748C353.488 83.3809 354.566 83.6973 355.902 83.6973C357.133 83.6973 358.117 83.4512 358.855 82.959C359.605 82.4551 359.98 81.7871 359.98 80.9551Z" fill="white"/>
<path d="M379.475 66.9805L379.58 69.3711C381.033 67.543 382.932 66.6289 385.275 66.6289C389.295 66.6289 391.322 68.8965 391.357 73.4316V86H388.105V73.4141C388.094 72.043 387.777 71.0293 387.156 70.373C386.547 69.7168 385.592 69.3887 384.291 69.3887C383.236 69.3887 382.311 69.6699 381.514 70.2324C380.717 70.7949 380.096 71.5332 379.65 72.4473V86H376.398V66.9805H379.475Z" fill="white"/>
<path d="M408.004 84.1191C406.738 85.6074 404.881 86.3516 402.432 86.3516C400.404 86.3516 398.857 85.7656 397.791 84.5938C396.736 83.4102 396.203 81.6641 396.191 79.3555V66.9805H399.443V79.2676C399.443 82.1504 400.615 83.5918 402.959 83.5918C405.443 83.5918 407.096 82.666 407.916 80.8145V66.9805H411.168V86H408.074L408.004 84.1191ZM405.367 59H409.305L404.594 64.168H401.975L405.367 59Z" fill="white"/>
<path d="M419.184 66.9805L419.271 69.0898C420.666 67.4492 422.547 66.6289 424.914 66.6289C427.574 66.6289 429.385 67.6484 430.346 69.6875C430.979 68.7734 431.799 68.0352 432.807 67.4727C433.826 66.9102 435.027 66.6289 436.41 66.6289C440.582 66.6289 442.703 68.8379 442.773 73.2559V86H439.521V73.4492C439.521 72.0898 439.211 71.0762 438.59 70.4082C437.969 69.7285 436.926 69.3887 435.461 69.3887C434.254 69.3887 433.252 69.752 432.455 70.4785C431.658 71.1934 431.195 72.1602 431.066 73.3789V86H427.797V73.5371C427.797 70.7715 426.443 69.3887 423.736 69.3887C421.604 69.3887 420.145 70.2969 419.359 72.1133V86H416.107V66.9805H419.184Z" fill="white"/>
<path d="M455.588 86.3516C453.01 86.3516 450.912 85.5078 449.295 83.8203C447.678 82.1211 446.869 79.8535 446.869 77.0176V76.4199C446.869 74.5332 447.227 72.8516 447.941 71.375C448.668 69.8867 449.676 68.7266 450.965 67.8945C452.266 67.0508 453.672 66.6289 455.184 66.6289C457.656 66.6289 459.578 67.4434 460.949 69.0723C462.32 70.7012 463.006 73.0332 463.006 76.0684V77.4219H450.121C450.168 79.2969 450.713 80.8145 451.756 81.9746C452.811 83.123 454.146 83.6973 455.764 83.6973C456.912 83.6973 457.885 83.4629 458.682 82.9941C459.479 82.5254 460.176 81.9043 460.773 81.1309L462.76 82.6777C461.166 85.127 458.775 86.3516 455.588 86.3516ZM455.184 69.3008C453.871 69.3008 452.77 69.7812 451.879 70.7422C450.988 71.6914 450.438 73.0273 450.227 74.75H459.754V74.5039C459.66 72.8516 459.215 71.5742 458.418 70.6719C457.621 69.7578 456.543 69.3008 455.184 69.3008Z" fill="white"/>
<path d="M475.979 69.8984C475.486 69.8164 474.953 69.7754 474.379 69.7754C472.246 69.7754 470.799 70.6836 470.037 72.5V86H466.785V66.9805H469.949L470.002 69.1777C471.068 67.4785 472.58 66.6289 474.537 66.6289C475.17 66.6289 475.65 66.7109 475.979 66.875V69.8984Z" fill="white"/>
<path d="M477.771 76.3145C477.771 74.4512 478.135 72.7754 478.861 71.2871C479.6 69.7988 480.619 68.6504 481.92 67.8418C483.232 67.0332 484.727 66.6289 486.402 66.6289C488.992 66.6289 491.084 67.5254 492.678 69.3184C494.283 71.1113 495.086 73.4961 495.086 76.4727V76.7012C495.086 78.5527 494.729 80.2168 494.014 81.6934C493.311 83.1582 492.297 84.3008 490.973 85.1211C489.66 85.9414 488.148 86.3516 486.438 86.3516C483.859 86.3516 481.768 85.4551 480.162 83.6621C478.568 81.8691 477.771 79.4961 477.771 76.543V76.3145ZM481.041 76.7012C481.041 78.8105 481.527 80.5039 482.5 81.7812C483.484 83.0586 484.797 83.6973 486.438 83.6973C488.09 83.6973 489.402 83.0527 490.375 81.7637C491.348 80.4629 491.834 78.6465 491.834 76.3145C491.834 74.2285 491.336 72.541 490.34 71.252C489.355 69.9512 488.043 69.3008 486.402 69.3008C484.797 69.3008 483.502 69.9395 482.518 71.2168C481.533 72.4941 481.041 74.3223 481.041 76.7012Z" fill="white"/>
<path d="M510.238 80.9551C510.238 80.0762 509.904 79.3965 509.236 78.916C508.58 78.4238 507.426 78.002 505.773 77.6504C504.133 77.2988 502.826 76.877 501.854 76.3848C500.893 75.8926 500.178 75.3066 499.709 74.627C499.252 73.9473 499.023 73.1387 499.023 72.2012C499.023 70.6426 499.68 69.3242 500.992 68.2461C502.316 67.168 504.004 66.6289 506.055 66.6289C508.211 66.6289 509.957 67.1855 511.293 68.2988C512.641 69.4121 513.314 70.8359 513.314 72.5703H510.045C510.045 71.6797 509.664 70.9121 508.902 70.2676C508.152 69.623 507.203 69.3008 506.055 69.3008C504.871 69.3008 503.945 69.5586 503.277 70.0742C502.609 70.5898 502.275 71.2637 502.275 72.0957C502.275 72.8809 502.586 73.4727 503.207 73.8711C503.828 74.2695 504.947 74.6504 506.564 75.0137C508.193 75.377 509.512 75.8105 510.52 76.3145C511.527 76.8184 512.271 77.4277 512.752 78.1426C513.244 78.8457 513.49 79.707 513.49 80.7266C513.49 82.4258 512.811 83.791 511.451 84.8223C510.092 85.8418 508.328 86.3516 506.16 86.3516C504.637 86.3516 503.289 86.082 502.117 85.543C500.945 85.0039 500.025 84.2539 499.357 83.293C498.701 82.3203 498.373 81.2715 498.373 80.1465H501.625C501.684 81.2363 502.117 82.1035 502.926 82.748C503.746 83.3809 504.824 83.6973 506.16 83.6973C507.391 83.6973 508.375 83.4512 509.113 82.959C509.863 82.4551 510.238 81.7871 510.238 80.9551Z" fill="white"/>
<path d="M530.189 86H526.938V66.9805H530.189V86ZM526.674 61.9355C526.674 61.4082 526.832 60.9629 527.148 60.5996C527.477 60.2363 527.957 60.0547 528.59 60.0547C529.223 60.0547 529.703 60.2363 530.031 60.5996C530.359 60.9629 530.523 61.4082 530.523 61.9355C530.523 62.4629 530.359 62.9023 530.031 63.2539C529.703 63.6055 529.223 63.7812 528.59 63.7812C527.957 63.7812 527.477 63.6055 527.148 63.2539C526.832 62.9023 526.674 62.4629 526.674 61.9355Z" fill="white"/>
<path d="M538.469 66.9805L538.557 69.0898C539.951 67.4492 541.832 66.6289 544.199 66.6289C546.859 66.6289 548.67 67.6484 549.631 69.6875C550.264 68.7734 551.084 68.0352 552.092 67.4727C553.111 66.9102 554.312 66.6289 555.695 66.6289C559.867 66.6289 561.988 68.8379 562.059 73.2559V86H558.807V73.4492C558.807 72.0898 558.496 71.0762 557.875 70.4082C557.254 69.7285 556.211 69.3887 554.746 69.3887C553.539 69.3887 552.537 69.752 551.74 70.4785C550.943 71.1934 550.48 72.1602 550.352 73.3789V86H547.082V73.5371C547.082 70.7715 545.729 69.3887 543.021 69.3887C540.889 69.3887 539.43 70.2969 538.645 72.1133V86H535.393V66.9805H538.469Z" fill="white"/>
<path d="M583.047 76.7012C583.047 79.5957 582.385 81.9277 581.061 83.6973C579.736 85.4668 577.943 86.3516 575.682 86.3516C573.373 86.3516 571.557 85.6191 570.232 84.1543V93.3125H566.98V66.9805H569.951L570.109 69.0898C571.434 67.4492 573.273 66.6289 575.629 66.6289C577.914 66.6289 579.719 67.4902 581.043 69.2129C582.379 70.9355 583.047 73.332 583.047 76.4023V76.7012ZM579.795 76.332C579.795 74.1875 579.338 72.4941 578.424 71.252C577.51 70.0098 576.256 69.3887 574.662 69.3887C572.693 69.3887 571.217 70.2617 570.232 72.0078V81.0957C571.205 82.8301 572.693 83.6973 574.697 83.6973C576.256 83.6973 577.492 83.082 578.406 81.8516C579.332 80.6094 579.795 78.7695 579.795 76.332Z" fill="white"/>
<path d="M598.938 86C598.75 85.625 598.598 84.957 598.48 83.9961C596.969 85.5664 595.164 86.3516 593.066 86.3516C591.191 86.3516 589.65 85.8242 588.443 84.7695C587.248 83.7031 586.65 82.3555 586.65 80.7266C586.65 78.7461 587.4 77.2109 588.9 76.1211C590.412 75.0195 592.533 74.4688 595.264 74.4688H598.428V72.9746C598.428 71.8379 598.088 70.9355 597.408 70.2676C596.729 69.5879 595.727 69.248 594.402 69.248C593.242 69.248 592.27 69.541 591.484 70.127C590.699 70.7129 590.307 71.4219 590.307 72.2539H587.037C587.037 71.3047 587.371 70.3906 588.039 69.5117C588.719 68.6211 589.633 67.918 590.781 67.4023C591.941 66.8867 593.213 66.6289 594.596 66.6289C596.787 66.6289 598.504 67.1797 599.746 68.2812C600.988 69.3711 601.633 70.877 601.68 72.7988V81.5527C601.68 83.2988 601.902 84.6875 602.348 85.7188V86H598.938ZM593.541 83.5215C594.561 83.5215 595.527 83.2578 596.441 82.7305C597.355 82.2031 598.018 81.5176 598.428 80.6738V76.7715H595.879C591.895 76.7715 589.902 77.9375 589.902 80.2695C589.902 81.2891 590.242 82.0859 590.922 82.6602C591.602 83.2344 592.475 83.5215 593.541 83.5215Z" fill="white"/>
<path d="M615.971 69.8984C615.479 69.8164 614.945 69.7754 614.371 69.7754C612.238 69.7754 610.791 70.6836 610.029 72.5V86H606.777V66.9805H609.941L609.994 69.1777C611.061 67.4785 612.572 66.6289 614.529 66.6289C615.162 66.6289 615.643 66.7109 615.971 66.875V69.8984Z" fill="white"/>
<path d="M626.518 86.3516C623.939 86.3516 621.842 85.5078 620.225 83.8203C618.607 82.1211 617.799 79.8535 617.799 77.0176V76.4199C617.799 74.5332 618.156 72.8516 618.871 71.375C619.598 69.8867 620.605 68.7266 621.895 67.8945C623.195 67.0508 624.602 66.6289 626.113 66.6289C628.586 66.6289 630.508 67.4434 631.879 69.0723C633.25 70.7012 633.936 73.0332 633.936 76.0684V77.4219H621.051C621.098 79.2969 621.643 80.8145 622.686 81.9746C623.74 83.123 625.076 83.6973 626.693 83.6973C627.842 83.6973 628.814 83.4629 629.611 82.9941C630.408 82.5254 631.105 81.9043 631.703 81.1309L633.689 82.6777C632.096 85.127 629.705 86.3516 626.518 86.3516ZM626.113 69.3008C624.801 69.3008 623.699 69.7812 622.809 70.7422C621.918 71.6914 621.367 73.0273 621.156 74.75H630.684V74.5039C630.59 72.8516 630.145 71.5742 629.348 70.6719C628.551 69.7578 627.473 69.3008 626.113 69.3008Z" fill="white"/>
<path d="M648.789 80.9551C648.789 80.0762 648.455 79.3965 647.787 78.916C647.131 78.4238 645.977 78.002 644.324 77.6504C642.684 77.2988 641.377 76.877 640.404 76.3848C639.443 75.8926 638.729 75.3066 638.26 74.627C637.803 73.9473 637.574 73.1387 637.574 72.2012C637.574 70.6426 638.23 69.3242 639.543 68.2461C640.867 67.168 642.555 66.6289 644.605 66.6289C646.762 66.6289 648.508 67.1855 649.844 68.2988C651.191 69.4121 651.865 70.8359 651.865 72.5703H648.596C648.596 71.6797 648.215 70.9121 647.453 70.2676C646.703 69.623 645.754 69.3008 644.605 69.3008C643.422 69.3008 642.496 69.5586 641.828 70.0742C641.16 70.5898 640.826 71.2637 640.826 72.0957C640.826 72.8809 641.137 73.4727 641.758 73.8711C642.379 74.2695 643.498 74.6504 645.115 75.0137C646.744 75.377 648.062 75.8105 649.07 76.3145C650.078 76.8184 650.822 77.4277 651.303 78.1426C651.795 78.8457 652.041 79.707 652.041 80.7266C652.041 82.4258 651.361 83.791 650.002 84.8223C648.643 85.8418 646.879 86.3516 644.711 86.3516C643.188 86.3516 641.84 86.082 640.668 85.543C639.496 85.0039 638.576 84.2539 637.908 83.293C637.252 82.3203 636.924 81.2715 636.924 80.1465H640.176C640.234 81.2363 640.668 82.1035 641.477 82.748C642.297 83.3809 643.375 83.6973 644.711 83.6973C645.941 83.6973 646.926 83.4512 647.664 82.959C648.414 82.4551 648.789 81.7871 648.789 80.9551Z" fill="white"/>
<path d="M672.836 83.6973C673.996 83.6973 675.01 83.3457 675.877 82.6426C676.744 81.9395 677.225 81.0605 677.318 80.0059H680.395C680.336 81.0957 679.961 82.1328 679.27 83.1172C678.578 84.1016 677.652 84.8867 676.492 85.4727C675.344 86.0586 674.125 86.3516 672.836 86.3516C670.246 86.3516 668.184 85.4902 666.648 83.7676C665.125 82.0332 664.363 79.666 664.363 76.666V76.1211C664.363 74.2695 664.703 72.623 665.383 71.1816C666.062 69.7402 667.035 68.6211 668.301 67.8242C669.578 67.0273 671.084 66.6289 672.818 66.6289C674.951 66.6289 676.721 67.2676 678.127 68.5449C679.545 69.8223 680.301 71.4805 680.395 73.5195H677.318C677.225 72.2891 676.756 71.2812 675.912 70.4961C675.08 69.6992 674.049 69.3008 672.818 69.3008C671.166 69.3008 669.883 69.8984 668.969 71.0938C668.066 72.2773 667.615 73.9941 667.615 76.2441V76.8594C667.615 79.0508 668.066 80.7383 668.969 81.9219C669.871 83.1055 671.16 83.6973 672.836 83.6973Z" fill="white"/>
<path d="M683.189 76.3145C683.189 74.4512 683.553 72.7754 684.279 71.2871C685.018 69.7988 686.037 68.6504 687.338 67.8418C688.65 67.0332 690.145 66.6289 691.82 66.6289C694.41 66.6289 696.502 67.5254 698.096 69.3184C699.701 71.1113 700.504 73.4961 700.504 76.4727V76.7012C700.504 78.5527 700.146 80.2168 699.432 81.6934C698.729 83.1582 697.715 84.3008 696.391 85.1211C695.078 85.9414 693.566 86.3516 691.855 86.3516C689.277 86.3516 687.186 85.4551 685.58 83.6621C683.986 81.8691 683.189 79.4961 683.189 76.543V76.3145ZM686.459 76.7012C686.459 78.8105 686.945 80.5039 687.918 81.7812C688.902 83.0586 690.215 83.6973 691.855 83.6973C693.508 83.6973 694.82 83.0527 695.793 81.7637C696.766 80.4629 697.252 78.6465 697.252 76.3145C697.252 74.2285 696.754 72.541 695.758 71.252C694.773 69.9512 693.461 69.3008 691.82 69.3008C690.215 69.3008 688.92 69.9395 687.936 71.2168C686.951 72.4941 686.459 74.3223 686.459 76.7012Z" fill="white"/>
<path d="M707.658 66.9805L707.764 69.3711C709.217 67.543 711.115 66.6289 713.459 66.6289C717.479 66.6289 719.506 68.8965 719.541 73.4316V86H716.289V73.4141C716.277 72.043 715.961 71.0293 715.34 70.373C714.73 69.7168 713.775 69.3887 712.475 69.3887C711.42 69.3887 710.494 69.6699 709.697 70.2324C708.9 70.7949 708.279 71.5332 707.834 72.4473V86H704.582V66.9805H707.658Z" fill="white"/>
<path d="M735.52 80.9551C735.52 80.0762 735.186 79.3965 734.518 78.916C733.861 78.4238 732.707 78.002 731.055 77.6504C729.414 77.2988 728.107 76.877 727.135 76.3848C726.174 75.8926 725.459 75.3066 724.99 74.627C724.533 73.9473 724.305 73.1387 724.305 72.2012C724.305 70.6426 724.961 69.3242 726.273 68.2461C727.598 67.168 729.285 66.6289 731.336 66.6289C733.492 66.6289 735.238 67.1855 736.574 68.2988C737.922 69.4121 738.596 70.8359 738.596 72.5703H735.326C735.326 71.6797 734.945 70.9121 734.184 70.2676C733.434 69.623 732.484 69.3008 731.336 69.3008C730.152 69.3008 729.227 69.5586 728.559 70.0742C727.891 70.5898 727.557 71.2637 727.557 72.0957C727.557 72.8809 727.867 73.4727 728.488 73.8711C729.109 74.2695 730.229 74.6504 731.846 75.0137C733.475 75.377 734.793 75.8105 735.801 76.3145C736.809 76.8184 737.553 77.4277 738.033 78.1426C738.525 78.8457 738.771 79.707 738.771 80.7266C738.771 82.4258 738.092 83.791 736.732 84.8223C735.373 85.8418 733.609 86.3516 731.441 86.3516C729.918 86.3516 728.57 86.082 727.398 85.543C726.227 85.0039 725.307 84.2539 724.639 83.293C723.982 82.3203 723.654 81.2715 723.654 80.1465H726.906C726.965 81.2363 727.398 82.1035 728.207 82.748C729.027 83.3809 730.105 83.6973 731.441 83.6973C732.672 83.6973 733.656 83.4512 734.395 82.959C735.145 82.4551 735.52 81.7871 735.52 80.9551Z" fill="white"/>
<path d="M750.9 86.3516C748.322 86.3516 746.225 85.5078 744.607 83.8203C742.99 82.1211 742.182 79.8535 742.182 77.0176V76.4199C742.182 74.5332 742.539 72.8516 743.254 71.375C743.98 69.8867 744.988 68.7266 746.277 67.8945C747.578 67.0508 748.984 66.6289 750.496 66.6289C752.969 66.6289 754.891 67.4434 756.262 69.0723C757.633 70.7012 758.318 73.0332 758.318 76.0684V77.4219H745.434C745.48 79.2969 746.025 80.8145 747.068 81.9746C748.123 83.123 749.459 83.6973 751.076 83.6973C752.225 83.6973 753.197 83.4629 753.994 82.9941C754.791 82.5254 755.488 81.9043 756.086 81.1309L758.072 82.6777C756.479 85.127 754.088 86.3516 750.9 86.3516ZM750.496 69.3008C749.184 69.3008 748.082 69.7812 747.191 70.7422C746.301 71.6914 745.75 73.0273 745.539 74.75H755.066V74.5039C754.973 72.8516 754.527 71.5742 753.73 70.6719C752.934 69.7578 751.855 69.3008 750.496 69.3008Z" fill="white"/>
<path d="M769.727 83.6973C770.887 83.6973 771.9 83.3457 772.768 82.6426C773.635 81.9395 774.115 81.0605 774.209 80.0059H777.285C777.227 81.0957 776.852 82.1328 776.16 83.1172C775.469 84.1016 774.543 84.8867 773.383 85.4727C772.234 86.0586 771.016 86.3516 769.727 86.3516C767.137 86.3516 765.074 85.4902 763.539 83.7676C762.016 82.0332 761.254 79.666 761.254 76.666V76.1211C761.254 74.2695 761.594 72.623 762.273 71.1816C762.953 69.7402 763.926 68.6211 765.191 67.8242C766.469 67.0273 767.975 66.6289 769.709 66.6289C771.842 66.6289 773.611 67.2676 775.018 68.5449C776.436 69.8223 777.191 71.4805 777.285 73.5195H774.209C774.115 72.2891 773.646 71.2812 772.803 70.4961C771.971 69.6992 770.939 69.3008 769.709 69.3008C768.057 69.3008 766.773 69.8984 765.859 71.0938C764.957 72.2773 764.506 73.9941 764.506 76.2441V76.8594C764.506 79.0508 764.957 80.7383 765.859 81.9219C766.762 83.1055 768.051 83.6973 769.727 83.6973Z" fill="white"/>
<path d="M792.684 84.1191C791.418 85.6074 789.561 86.3516 787.111 86.3516C785.084 86.3516 783.537 85.7656 782.471 84.5938C781.416 83.4102 780.883 81.6641 780.871 79.3555V66.9805H784.123V79.2676C784.123 82.1504 785.295 83.5918 787.639 83.5918C790.123 83.5918 791.775 82.666 792.596 80.8145V66.9805H795.848V86H792.754L792.684 84.1191Z" fill="white"/>
<path d="M805.217 62.375V66.9805H808.768V69.4941H805.217V81.2891C805.217 82.0508 805.375 82.625 805.691 83.0117C806.008 83.3867 806.547 83.5742 807.309 83.5742C807.684 83.5742 808.199 83.5039 808.855 83.3633V86C808 86.2344 807.168 86.3516 806.359 86.3516C804.906 86.3516 803.811 85.9121 803.072 85.0332C802.334 84.1543 801.965 82.9062 801.965 81.2891V69.4941H798.502V66.9805H801.965V62.375H805.217Z" fill="white"/>
<path d="M816.115 86H812.863V66.9805H816.115V86ZM812.6 61.9355C812.6 61.4082 812.758 60.9629 813.074 60.5996C813.402 60.2363 813.883 60.0547 814.516 60.0547C815.148 60.0547 815.629 60.2363 815.957 60.5996C816.285 60.9629 816.449 61.4082 816.449 61.9355C816.449 62.4629 816.285 62.9023 815.957 63.2539C815.629 63.6055 815.148 63.7812 814.516 63.7812C813.883 63.7812 813.402 63.6055 813.074 63.2539C812.758 62.9023 812.6 62.4629 812.6 61.9355Z" fill="white"/>
<path d="M827.611 81.5879L832.322 66.9805H835.645L828.824 86H826.346L819.455 66.9805H822.777L827.611 81.5879Z" fill="white"/>
<path d="M837.631 76.3145C837.631 74.4512 837.994 72.7754 838.721 71.2871C839.459 69.7988 840.479 68.6504 841.779 67.8418C843.092 67.0332 844.586 66.6289 846.262 66.6289C848.852 66.6289 850.943 67.5254 852.537 69.3184C854.143 71.1113 854.945 73.4961 854.945 76.4727V76.7012C854.945 78.5527 854.588 80.2168 853.873 81.6934C853.17 83.1582 852.156 84.3008 850.832 85.1211C849.52 85.9414 848.008 86.3516 846.297 86.3516C843.719 86.3516 841.627 85.4551 840.021 83.6621C838.428 81.8691 837.631 79.4961 837.631 76.543V76.3145ZM840.9 76.7012C840.9 78.8105 841.387 80.5039 842.359 81.7812C843.344 83.0586 844.656 83.6973 846.297 83.6973C847.949 83.6973 849.262 83.0527 850.234 81.7637C851.207 80.4629 851.693 78.6465 851.693 76.3145C851.693 74.2285 851.195 72.541 850.199 71.252C849.215 69.9512 847.902 69.3008 846.262 69.3008C844.656 69.3008 843.361 69.9395 842.377 71.2168C841.393 72.4941 840.9 74.3223 840.9 76.7012Z" fill="white"/>
<path d="M870.098 80.9551C870.098 80.0762 869.764 79.3965 869.096 78.916C868.439 78.4238 867.285 78.002 865.633 77.6504C863.992 77.2988 862.686 76.877 861.713 76.3848C860.752 75.8926 860.037 75.3066 859.568 74.627C859.111 73.9473 858.883 73.1387 858.883 72.2012C858.883 70.6426 859.539 69.3242 860.852 68.2461C862.176 67.168 863.863 66.6289 865.914 66.6289C868.07 66.6289 869.816 67.1855 871.152 68.2988C872.5 69.4121 873.174 70.8359 873.174 72.5703H869.904C869.904 71.6797 869.523 70.9121 868.762 70.2676C868.012 69.623 867.062 69.3008 865.914 69.3008C864.73 69.3008 863.805 69.5586 863.137 70.0742C862.469 70.5898 862.135 71.2637 862.135 72.0957C862.135 72.8809 862.445 73.4727 863.066 73.8711C863.688 74.2695 864.807 74.6504 866.424 75.0137C868.053 75.377 869.371 75.8105 870.379 76.3145C871.387 76.8184 872.131 77.4277 872.611 78.1426C873.104 78.8457 873.35 79.707 873.35 80.7266C873.35 82.4258 872.67 83.791 871.311 84.8223C869.951 85.8418 868.188 86.3516 866.02 86.3516C864.496 86.3516 863.148 86.082 861.977 85.543C860.805 85.0039 859.885 84.2539 859.217 83.293C858.561 82.3203 858.232 81.2715 858.232 80.1465H861.484C861.543 81.2363 861.977 82.1035 862.785 82.748C863.605 83.3809 864.684 83.6973 866.02 83.6973C867.25 83.6973 868.234 83.4512 868.973 82.959C869.723 82.4551 870.098 81.7871 870.098 80.9551Z" fill="white"/>
<path d="M894.408 86.3516C891.83 86.3516 889.732 85.5078 888.115 83.8203C886.498 82.1211 885.689 79.8535 885.689 77.0176V76.4199C885.689 74.5332 886.047 72.8516 886.762 71.375C887.488 69.8867 888.496 68.7266 889.785 67.8945C891.086 67.0508 892.492 66.6289 894.004 66.6289C896.477 66.6289 898.398 67.4434 899.77 69.0723C901.141 70.7012 901.826 73.0332 901.826 76.0684V77.4219H888.941C888.988 79.2969 889.533 80.8145 890.576 81.9746C891.631 83.123 892.967 83.6973 894.584 83.6973C895.732 83.6973 896.705 83.4629 897.502 82.9941C898.299 82.5254 898.996 81.9043 899.594 81.1309L901.58 82.6777C899.986 85.127 897.596 86.3516 894.408 86.3516ZM894.004 69.3008C892.691 69.3008 891.59 69.7812 890.699 70.7422C889.809 71.6914 889.258 73.0273 889.047 74.75H898.574V74.5039C898.48 72.8516 898.035 71.5742 897.238 70.6719C896.441 69.7578 895.363 69.3008 894.004 69.3008Z" fill="white"/>
<path d="M916.68 80.9551C916.68 80.0762 916.346 79.3965 915.678 78.916C915.021 78.4238 913.867 78.002 912.215 77.6504C910.574 77.2988 909.268 76.877 908.295 76.3848C907.334 75.8926 906.619 75.3066 906.15 74.627C905.693 73.9473 905.465 73.1387 905.465 72.2012C905.465 70.6426 906.121 69.3242 907.434 68.2461C908.758 67.168 910.445 66.6289 912.496 66.6289C914.652 66.6289 916.398 67.1855 917.734 68.2988C919.082 69.4121 919.756 70.8359 919.756 72.5703H916.486C916.486 71.6797 916.105 70.9121 915.344 70.2676C914.594 69.623 913.645 69.3008 912.496 69.3008C911.312 69.3008 910.387 69.5586 909.719 70.0742C909.051 70.5898 908.717 71.2637 908.717 72.0957C908.717 72.8809 909.027 73.4727 909.648 73.8711C910.27 74.2695 911.389 74.6504 913.006 75.0137C914.635 75.377 915.953 75.8105 916.961 76.3145C917.969 76.8184 918.713 77.4277 919.193 78.1426C919.686 78.8457 919.932 79.707 919.932 80.7266C919.932 82.4258 919.252 83.791 917.893 84.8223C916.533 85.8418 914.77 86.3516 912.602 86.3516C911.078 86.3516 909.73 86.082 908.559 85.543C907.387 85.0039 906.467 84.2539 905.799 83.293C905.143 82.3203 904.814 81.2715 904.814 80.1465H908.066C908.125 81.2363 908.559 82.1035 909.367 82.748C910.188 83.3809 911.266 83.6973 912.602 83.6973C913.832 83.6973 914.816 83.4512 915.555 82.959C916.305 82.4551 916.68 81.7871 916.68 80.9551Z" fill="white"/>
<path d="M123.889 102.389V105.148H123.291C120.76 105.195 118.744 105.945 117.244 107.398C115.744 108.852 114.877 110.896 114.643 113.533C115.99 111.986 117.83 111.213 120.162 111.213C122.389 111.213 124.164 111.998 125.488 113.568C126.824 115.139 127.492 117.166 127.492 119.65C127.492 122.287 126.771 124.396 125.33 125.979C123.9 127.561 121.979 128.352 119.564 128.352C117.115 128.352 115.129 127.414 113.605 125.539C112.082 123.652 111.32 121.227 111.32 118.262V117.014C111.32 112.303 112.322 108.705 114.326 106.221C116.342 103.725 119.336 102.447 123.309 102.389H123.889ZM119.617 113.92C118.504 113.92 117.479 114.254 116.541 114.922C115.604 115.59 114.953 116.428 114.59 117.436V118.631C114.59 120.74 115.064 122.439 116.014 123.729C116.963 125.018 118.146 125.662 119.564 125.662C121.029 125.662 122.178 125.123 123.01 124.045C123.854 122.967 124.275 121.555 124.275 119.809C124.275 118.051 123.848 116.633 122.992 115.555C122.148 114.465 121.023 113.92 119.617 113.92Z" fill="white"/>
<path d="M136.07 113.621H138.514C140.049 113.598 141.256 113.193 142.135 112.408C143.014 111.623 143.453 110.562 143.453 109.227C143.453 106.227 141.959 104.727 138.971 104.727C137.564 104.727 136.439 105.131 135.596 105.939C134.764 106.736 134.348 107.797 134.348 109.121H131.096C131.096 107.094 131.834 105.412 133.311 104.076C134.799 102.729 136.686 102.055 138.971 102.055C141.385 102.055 143.277 102.693 144.648 103.971C146.02 105.248 146.705 107.023 146.705 109.297C146.705 110.41 146.342 111.488 145.615 112.531C144.9 113.574 143.922 114.354 142.68 114.869C144.086 115.314 145.17 116.053 145.932 117.084C146.705 118.115 147.092 119.375 147.092 120.863C147.092 123.16 146.342 124.982 144.842 126.33C143.342 127.678 141.391 128.352 138.988 128.352C136.586 128.352 134.629 127.701 133.117 126.4C131.617 125.1 130.867 123.383 130.867 121.25H134.137C134.137 122.598 134.576 123.676 135.455 124.484C136.334 125.293 137.512 125.697 138.988 125.697C140.559 125.697 141.76 125.287 142.592 124.467C143.424 123.646 143.84 122.469 143.84 120.934C143.84 119.445 143.383 118.303 142.469 117.506C141.555 116.709 140.236 116.299 138.514 116.275H136.07V113.621Z" fill="white"/>
<path d="M151.961 126.295C151.961 125.732 152.125 125.264 152.453 124.889C152.793 124.514 153.297 124.326 153.965 124.326C154.633 124.326 155.137 124.514 155.477 124.889C155.828 125.264 156.004 125.732 156.004 126.295C156.004 126.834 155.828 127.285 155.477 127.648C155.137 128.012 154.633 128.193 153.965 128.193C153.297 128.193 152.793 128.012 152.453 127.648C152.125 127.285 151.961 126.834 151.961 126.295Z" fill="white"/>
<path d="M170.822 128V102.406H178.047C180.273 102.406 182.242 102.898 183.953 103.883C185.664 104.867 186.982 106.268 187.908 108.084C188.846 109.9 189.32 111.986 189.332 114.342V115.977C189.332 118.391 188.863 120.506 187.926 122.322C187 124.139 185.67 125.533 183.936 126.506C182.213 127.479 180.203 127.977 177.906 128H170.822ZM174.197 105.184V125.24H177.748C180.35 125.24 182.371 124.432 183.812 122.814C185.266 121.197 185.992 118.895 185.992 115.906V114.412C185.992 111.506 185.307 109.25 183.936 107.645C182.576 106.027 180.643 105.207 178.135 105.184H174.197Z" fill="white"/>
<path d="M201.83 128.352C199.252 128.352 197.154 127.508 195.537 125.82C193.92 124.121 193.111 121.854 193.111 119.018V118.42C193.111 116.533 193.469 114.852 194.184 113.375C194.91 111.887 195.918 110.727 197.207 109.895C198.508 109.051 199.914 108.629 201.426 108.629C203.898 108.629 205.82 109.443 207.191 111.072C208.562 112.701 209.248 115.033 209.248 118.068V119.422H196.363C196.41 121.297 196.955 122.814 197.998 123.975C199.053 125.123 200.389 125.697 202.006 125.697C203.154 125.697 204.127 125.463 204.924 124.994C205.721 124.525 206.418 123.904 207.016 123.131L209.002 124.678C207.408 127.127 205.018 128.352 201.83 128.352ZM201.426 111.301C200.113 111.301 199.012 111.781 198.121 112.742C197.23 113.691 196.68 115.027 196.469 116.75H205.996V116.504C205.902 114.852 205.457 113.574 204.66 112.672C203.863 111.758 202.785 111.301 201.426 111.301Z" fill="white"/>
<path d="M217.439 104.375V108.98H220.99V111.494H217.439V123.289C217.439 124.051 217.598 124.625 217.914 125.012C218.23 125.387 218.77 125.574 219.531 125.574C219.906 125.574 220.422 125.504 221.078 125.363V128C220.223 128.234 219.391 128.352 218.582 128.352C217.129 128.352 216.033 127.912 215.295 127.033C214.557 126.154 214.188 124.906 214.188 123.289V111.494H210.725V108.98H214.188V104.375H217.439Z" fill="white"/>
<path d="M232.697 128.352C230.119 128.352 228.021 127.508 226.404 125.82C224.787 124.121 223.979 121.854 223.979 119.018V118.42C223.979 116.533 224.336 114.852 225.051 113.375C225.777 111.887 226.785 110.727 228.074 109.895C229.375 109.051 230.781 108.629 232.293 108.629C234.766 108.629 236.688 109.443 238.059 111.072C239.43 112.701 240.115 115.033 240.115 118.068V119.422H227.23C227.277 121.297 227.822 122.814 228.865 123.975C229.92 125.123 231.256 125.697 232.873 125.697C234.021 125.697 234.994 125.463 235.791 124.994C236.588 124.525 237.285 123.904 237.883 123.131L239.869 124.678C238.275 127.127 235.885 128.352 232.697 128.352ZM232.293 111.301C230.98 111.301 229.879 111.781 228.988 112.742C228.098 113.691 227.547 115.027 227.336 116.75H236.863V116.504C236.77 114.852 236.324 113.574 235.527 112.672C234.73 111.758 233.652 111.301 232.293 111.301Z" fill="white"/>
<path d="M253.088 111.898C252.596 111.816 252.062 111.775 251.488 111.775C249.355 111.775 247.908 112.684 247.146 114.5V128H243.895V108.98H247.059L247.111 111.178C248.178 109.479 249.689 108.629 251.646 108.629C252.279 108.629 252.76 108.711 253.088 108.875V111.898Z" fill="white"/>
<path d="M259.152 108.98L259.24 111.09C260.635 109.449 262.516 108.629 264.883 108.629C267.543 108.629 269.354 109.648 270.314 111.688C270.947 110.773 271.768 110.035 272.775 109.473C273.795 108.91 274.996 108.629 276.379 108.629C280.551 108.629 282.672 110.838 282.742 115.256V128H279.49V115.449C279.49 114.09 279.18 113.076 278.559 112.408C277.938 111.729 276.895 111.389 275.43 111.389C274.223 111.389 273.221 111.752 272.424 112.479C271.627 113.193 271.164 114.16 271.035 115.379V128H267.766V115.537C267.766 112.771 266.412 111.389 263.705 111.389C261.572 111.389 260.113 112.297 259.328 114.113V128H256.076V108.98H259.152Z" fill="white"/>
<path d="M291.197 128H287.945V108.98H291.197V128ZM287.682 103.936C287.682 103.408 287.84 102.963 288.156 102.6C288.484 102.236 288.965 102.055 289.598 102.055C290.23 102.055 290.711 102.236 291.039 102.6C291.367 102.963 291.531 103.408 291.531 103.936C291.531 104.463 291.367 104.902 291.039 105.254C290.711 105.605 290.23 105.781 289.598 105.781C288.965 105.781 288.484 105.605 288.156 105.254C287.84 104.902 287.682 104.463 287.682 103.936Z" fill="white"/>
<path d="M299.494 108.98L299.6 111.371C301.053 109.543 302.951 108.629 305.295 108.629C309.314 108.629 311.342 110.896 311.377 115.432V128H308.125V115.414C308.113 114.043 307.797 113.029 307.176 112.373C306.566 111.717 305.611 111.389 304.311 111.389C303.256 111.389 302.33 111.67 301.533 112.232C300.736 112.795 300.115 113.533 299.67 114.447V128H296.418V108.98H299.494Z" fill="white"/>
<path d="M328.023 128C327.836 127.625 327.684 126.957 327.566 125.996C326.055 127.566 324.25 128.352 322.152 128.352C320.277 128.352 318.736 127.824 317.529 126.77C316.334 125.703 315.736 124.355 315.736 122.727C315.736 120.746 316.486 119.211 317.986 118.121C319.498 117.02 321.619 116.469 324.35 116.469H327.514V114.975C327.514 113.838 327.174 112.936 326.494 112.268C325.814 111.588 324.812 111.248 323.488 111.248C322.328 111.248 321.355 111.541 320.57 112.127C319.785 112.713 319.393 113.422 319.393 114.254H316.123C316.123 113.305 316.457 112.391 317.125 111.512C317.805 110.621 318.719 109.918 319.867 109.402C321.027 108.887 322.299 108.629 323.682 108.629C325.873 108.629 327.59 109.18 328.832 110.281C330.074 111.371 330.719 112.877 330.766 114.799V123.553C330.766 125.299 330.988 126.688 331.434 127.719V128H328.023ZM322.627 125.521C323.646 125.521 324.613 125.258 325.527 124.73C326.441 124.203 327.104 123.518 327.514 122.674V118.771H324.965C320.98 118.771 318.988 119.938 318.988 122.27C318.988 123.289 319.328 124.086 320.008 124.66C320.688 125.234 321.561 125.521 322.627 125.521Z" fill="white"/>
<path d="M352.686 128.352C350.107 128.352 348.01 127.508 346.393 125.82C344.775 124.121 343.967 121.854 343.967 119.018V118.42C343.967 116.533 344.324 114.852 345.039 113.375C345.766 111.887 346.773 110.727 348.062 109.895C349.363 109.051 350.77 108.629 352.281 108.629C354.754 108.629 356.676 109.443 358.047 111.072C359.418 112.701 360.104 115.033 360.104 118.068V119.422H347.219C347.266 121.297 347.811 122.814 348.854 123.975C349.908 125.123 351.244 125.697 352.861 125.697C354.01 125.697 354.982 125.463 355.779 124.994C356.576 124.525 357.273 123.904 357.871 123.131L359.857 124.678C358.264 127.127 355.873 128.352 352.686 128.352ZM352.281 111.301C350.969 111.301 349.867 111.781 348.977 112.742C348.086 113.691 347.535 115.027 347.324 116.75H356.852V116.504C356.758 114.852 356.312 113.574 355.516 112.672C354.719 111.758 353.641 111.301 352.281 111.301Z" fill="white"/>
<path d="M367.416 128H364.164V101H367.416V128Z" fill="white"/>
<path d="M384.643 108.98L384.748 111.371C386.201 109.543 388.1 108.629 390.443 108.629C394.463 108.629 396.49 110.896 396.525 115.432V128H393.273V115.414C393.262 114.043 392.945 113.029 392.324 112.373C391.715 111.717 390.76 111.389 389.459 111.389C388.404 111.389 387.479 111.67 386.682 112.232C385.885 112.795 385.264 113.533 384.818 114.447V128H381.566V108.98H384.643Z" fill="white"/>
<path d="M413.172 126.119C411.906 127.607 410.049 128.352 407.6 128.352C405.572 128.352 404.025 127.766 402.959 126.594C401.904 125.41 401.371 123.664 401.359 121.355V108.98H404.611V121.268C404.611 124.15 405.783 125.592 408.127 125.592C410.611 125.592 412.264 124.666 413.084 122.814V108.98H416.336V128H413.242L413.172 126.119ZM410.535 101H414.473L409.762 106.168H407.143L410.535 101Z" fill="white"/>
<path d="M424.352 108.98L424.439 111.09C425.834 109.449 427.715 108.629 430.082 108.629C432.742 108.629 434.553 109.648 435.514 111.688C436.146 110.773 436.967 110.035 437.975 109.473C438.994 108.91 440.195 108.629 441.578 108.629C445.75 108.629 447.871 110.838 447.941 115.256V128H444.689V115.449C444.689 114.09 444.379 113.076 443.758 112.408C443.137 111.729 442.094 111.389 440.629 111.389C439.422 111.389 438.42 111.752 437.623 112.479C436.826 113.193 436.363 114.16 436.234 115.379V128H432.965V115.537C432.965 112.771 431.611 111.389 428.904 111.389C426.771 111.389 425.312 112.297 424.527 114.113V128H421.275V108.98H424.352Z" fill="white"/>
<path d="M460.756 128.352C458.178 128.352 456.08 127.508 454.463 125.82C452.846 124.121 452.037 121.854 452.037 119.018V118.42C452.037 116.533 452.395 114.852 453.109 113.375C453.836 111.887 454.844 110.727 456.133 109.895C457.434 109.051 458.84 108.629 460.352 108.629C462.824 108.629 464.746 109.443 466.117 111.072C467.488 112.701 468.174 115.033 468.174 118.068V119.422H455.289C455.336 121.297 455.881 122.814 456.924 123.975C457.979 125.123 459.314 125.697 460.932 125.697C462.08 125.697 463.053 125.463 463.85 124.994C464.646 124.525 465.344 123.904 465.941 123.131L467.928 124.678C466.334 127.127 463.943 128.352 460.756 128.352ZM460.352 111.301C459.039 111.301 457.938 111.781 457.047 112.742C456.156 113.691 455.605 115.027 455.395 116.75H464.922V116.504C464.828 114.852 464.383 113.574 463.586 112.672C462.789 111.758 461.711 111.301 460.352 111.301Z" fill="white"/>
<path d="M481.146 111.898C480.654 111.816 480.121 111.775 479.547 111.775C477.414 111.775 475.967 112.684 475.205 114.5V128H471.953V108.98H475.117L475.17 111.178C476.236 109.479 477.748 108.629 479.705 108.629C480.338 108.629 480.818 108.711 481.146 108.875V111.898Z" fill="white"/>
<path d="M482.939 118.314C482.939 116.451 483.303 114.775 484.029 113.287C484.768 111.799 485.787 110.65 487.088 109.842C488.4 109.033 489.895 108.629 491.57 108.629C494.16 108.629 496.252 109.525 497.846 111.318C499.451 113.111 500.254 115.496 500.254 118.473V118.701C500.254 120.553 499.896 122.217 499.182 123.693C498.479 125.158 497.465 126.301 496.141 127.121C494.828 127.941 493.316 128.352 491.605 128.352C489.027 128.352 486.936 127.455 485.33 125.662C483.736 123.869 482.939 121.496 482.939 118.543V118.314ZM486.209 118.701C486.209 120.811 486.695 122.504 487.668 123.781C488.652 125.059 489.965 125.697 491.605 125.697C493.258 125.697 494.57 125.053 495.543 123.764C496.516 122.463 497.002 120.646 497.002 118.314C497.002 116.229 496.504 114.541 495.508 113.252C494.523 111.951 493.211 111.301 491.57 111.301C489.965 111.301 488.67 111.939 487.686 113.217C486.701 114.494 486.209 116.322 486.209 118.701Z" fill="white"/>
<path d="M516.795 128H513.543V108.98H516.795V128ZM513.279 103.936C513.279 103.408 513.438 102.963 513.754 102.6C514.082 102.236 514.562 102.055 515.195 102.055C515.828 102.055 516.309 102.236 516.637 102.6C516.965 102.963 517.129 103.408 517.129 103.936C517.129 104.463 516.965 104.902 516.637 105.254C516.309 105.605 515.828 105.781 515.195 105.781C514.562 105.781 514.082 105.605 513.754 105.254C513.438 104.902 513.279 104.463 513.279 103.936Z" fill="white"/>
<path d="M525.092 108.98L525.197 111.371C526.65 109.543 528.549 108.629 530.893 108.629C534.912 108.629 536.939 110.896 536.975 115.432V128H533.723V115.414C533.711 114.043 533.395 113.029 532.773 112.373C532.164 111.717 531.209 111.389 529.908 111.389C528.854 111.389 527.928 111.67 527.131 112.232C526.334 112.795 525.713 113.533 525.268 114.447V128H522.016V108.98H525.092Z" fill="white"/>
<path d="M546.291 104.375V108.98H549.842V111.494H546.291V123.289C546.291 124.051 546.449 124.625 546.766 125.012C547.082 125.387 547.621 125.574 548.383 125.574C548.758 125.574 549.273 125.504 549.93 125.363V128C549.074 128.234 548.242 128.352 547.434 128.352C545.98 128.352 544.885 127.912 544.146 127.033C543.408 126.154 543.039 124.906 543.039 123.289V111.494H539.576V108.98H543.039V104.375H546.291Z" fill="white"/>
<path d="M561.549 128.352C558.971 128.352 556.873 127.508 555.256 125.82C553.639 124.121 552.83 121.854 552.83 119.018V118.42C552.83 116.533 553.188 114.852 553.902 113.375C554.629 111.887 555.637 110.727 556.926 109.895C558.227 109.051 559.633 108.629 561.145 108.629C563.617 108.629 565.539 109.443 566.91 111.072C568.281 112.701 568.967 115.033 568.967 118.068V119.422H556.082C556.129 121.297 556.674 122.814 557.717 123.975C558.771 125.123 560.107 125.697 561.725 125.697C562.873 125.697 563.846 125.463 564.643 124.994C565.439 124.525 566.137 123.904 566.734 123.131L568.721 124.678C567.127 127.127 564.736 128.352 561.549 128.352ZM561.145 111.301C559.832 111.301 558.73 111.781 557.84 112.742C556.949 113.691 556.398 115.027 556.188 116.75H565.715V116.504C565.621 114.852 565.176 113.574 564.379 112.672C563.582 111.758 562.504 111.301 561.145 111.301Z" fill="white"/>
<path d="M581.939 111.898C581.447 111.816 580.914 111.775 580.34 111.775C578.207 111.775 576.76 112.684 575.998 114.5V128H572.746V108.98H575.91L575.963 111.178C577.029 109.479 578.541 108.629 580.498 108.629C581.131 108.629 581.611 108.711 581.939 108.875V111.898Z" fill="white"/>
<path d="M588.004 108.98L588.092 111.09C589.486 109.449 591.367 108.629 593.734 108.629C596.395 108.629 598.205 109.648 599.166 111.688C599.799 110.773 600.619 110.035 601.627 109.473C602.646 108.91 603.848 108.629 605.23 108.629C609.402 108.629 611.523 110.838 611.594 115.256V128H608.342V115.449C608.342 114.09 608.031 113.076 607.41 112.408C606.789 111.729 605.746 111.389 604.281 111.389C603.074 111.389 602.072 111.752 601.275 112.479C600.479 113.193 600.016 114.16 599.887 115.379V128H596.617V115.537C596.617 112.771 595.264 111.389 592.557 111.389C590.424 111.389 588.965 112.297 588.18 114.113V128H584.928V108.98H588.004Z" fill="white"/>
<path d="M624.408 128.352C621.83 128.352 619.732 127.508 618.115 125.82C616.498 124.121 615.689 121.854 615.689 119.018V118.42C615.689 116.533 616.047 114.852 616.762 113.375C617.488 111.887 618.496 110.727 619.785 109.895C621.086 109.051 622.492 108.629 624.004 108.629C626.477 108.629 628.398 109.443 629.77 111.072C631.141 112.701 631.826 115.033 631.826 118.068V119.422H618.941C618.988 121.297 619.533 122.814 620.576 123.975C621.631 125.123 622.967 125.697 624.584 125.697C625.732 125.697 626.705 125.463 627.502 124.994C628.299 124.525 628.996 123.904 629.594 123.131L631.58 124.678C629.986 127.127 627.596 128.352 624.408 128.352ZM624.004 111.301C622.691 111.301 621.59 111.781 620.699 112.742C619.809 113.691 619.258 115.027 619.047 116.75H628.574V116.504C628.48 114.852 628.035 113.574 627.238 112.672C626.441 111.758 625.363 111.301 624.004 111.301Z" fill="white"/>
<path d="M634.814 118.332C634.814 115.414 635.506 113.07 636.889 111.301C638.271 109.52 640.082 108.629 642.32 108.629C644.547 108.629 646.311 109.391 647.611 110.914V101H650.863V128H647.875L647.717 125.961C646.416 127.555 644.605 128.352 642.285 128.352C640.082 128.352 638.283 127.449 636.889 125.645C635.506 123.84 634.814 121.484 634.814 118.578V118.332ZM638.066 118.701C638.066 120.857 638.512 122.545 639.402 123.764C640.293 124.982 641.523 125.592 643.094 125.592C645.156 125.592 646.662 124.666 647.611 122.814V114.078C646.639 112.285 645.145 111.389 643.129 111.389C641.535 111.389 640.293 112.004 639.402 113.234C638.512 114.465 638.066 116.287 638.066 118.701Z" fill="white"/>
<path d="M659.459 128H656.207V108.98H659.459V128ZM655.943 103.936C655.943 103.408 656.102 102.963 656.418 102.6C656.746 102.236 657.227 102.055 657.859 102.055C658.492 102.055 658.973 102.236 659.301 102.6C659.629 102.963 659.793 103.408 659.793 103.936C659.793 104.463 659.629 104.902 659.301 105.254C658.973 105.605 658.492 105.781 657.859 105.781C657.227 105.781 656.746 105.605 656.418 105.254C656.102 104.902 655.943 104.463 655.943 103.936Z" fill="white"/>
<path d="M663.818 118.314C663.818 116.451 664.182 114.775 664.908 113.287C665.646 111.799 666.666 110.65 667.967 109.842C669.279 109.033 670.773 108.629 672.449 108.629C675.039 108.629 677.131 109.525 678.725 111.318C680.33 113.111 681.133 115.496 681.133 118.473V118.701C681.133 120.553 680.775 122.217 680.061 123.693C679.357 125.158 678.344 126.301 677.02 127.121C675.707 127.941 674.195 128.352 672.484 128.352C669.906 128.352 667.814 127.455 666.209 125.662C664.615 123.869 663.818 121.496 663.818 118.543V118.314ZM667.088 118.701C667.088 120.811 667.574 122.504 668.547 123.781C669.531 125.059 670.844 125.697 672.484 125.697C674.137 125.697 675.449 125.053 676.422 123.764C677.395 122.463 677.881 120.646 677.881 118.314C677.881 116.229 677.383 114.541 676.387 113.252C675.402 111.951 674.09 111.301 672.449 111.301C670.844 111.301 669.549 111.939 668.564 113.217C667.58 114.494 667.088 116.322 667.088 118.701Z" fill="white"/>
<path d="M685.281 126.295C685.281 125.732 685.445 125.264 685.773 124.889C686.113 124.514 686.617 124.326 687.285 124.326C687.953 124.326 688.457 124.514 688.797 124.889C689.148 125.264 689.324 125.732 689.324 126.295C689.324 126.834 689.148 127.285 688.797 127.648C688.457 128.012 687.953 128.193 687.285 128.193C686.617 128.193 686.113 128.012 685.773 127.648C685.445 127.285 685.281 126.834 685.281 126.295Z" fill="white"/>
</g>
</g>
</g>
</svg>
