<svg viewBox="0 0 985 476" fill="none" xmlns="http://www.w3.org/2000/svg">
<g id="0120124">
<g id="Group 8">
<path id="Rectangle 1" d="M0 32.2783C0 15.4606 23.1712 1.82715 51.7544 1.82715H944V212.549C944 229.367 920.829 243 892.245 243H0V32.2783Z" fill="#02071A"/>
<path id="Rectangle 1 (Stroke)" fill-rule="evenodd" clip-rule="evenodd" d="M938.824 4.87226H51.7544C26.0295 4.87226 5.17544 17.1423 5.17544 32.2783V239.955H892.245C917.97 239.955 938.824 227.685 938.824 212.549V4.87226ZM51.7544 1.82715C23.1712 1.82715 0 15.4606 0 32.2783V243H892.245C920.829 243 944 229.367 944 212.549V1.82715H51.7544Z" fill="#CD08D1"/>
<path id="Rectangle 14" d="M56.0499 1.87117C83.7306 -2.33897 944 1.87117 944 1.87117V20.0978C944 20.0978 41.4034 13.3985 9.31567 20.0978C19.2999 10.4306 28.3691 6.08131 56.0499 1.87117Z" fill="#CD08D1"/>
<path id="Rectangle 15" d="M912.947 1.82715H944V213.158C940.188 227.499 932.288 232.77 912.947 239.65C918.64 228.384 912.947 1.82715 912.947 1.82715Z" fill="#CD08D1"/>
</g>
<g id="claves01">
<path id="Rectangle 4" d="M49 286H265.745L299 326L265.745 366H49V286Z" fill="#CD08D1" fill-opacity="0.1"/>
<path id="Rectangle 4 (Stroke)" fill-rule="evenodd" clip-rule="evenodd" d="M264.338 289H52V363H264.338L295.099 326L264.338 289ZM265.745 286H49V366H265.745L299 326L265.745 286Z" fill="#CD08D1"/>
<path id="Rectangle 5" d="M53 396H269.745L303 436L269.745 476H53V396Z" fill="#CD08D1" fill-opacity="0.1"/>
<path id="Rectangle 5 (Stroke)" fill-rule="evenodd" clip-rule="evenodd" d="M268.338 399H56V473H268.338L299.099 436L268.338 399ZM269.745 396H53V476H269.745L303 436L269.745 396Z" fill="#CD08D1"/>
<path id="Rectangle 6" d="M389 283H605.745L639 323L605.745 363H389V283Z" fill="#CD08D1" fill-opacity="0.1"/>
<path id="Rectangle 6 (Stroke)" fill-rule="evenodd" clip-rule="evenodd" d="M604.338 286H392V360H604.338L635.099 323L604.338 286ZM605.745 283H389V363H605.745L639 323L605.745 283Z" fill="#CD08D1"/>
<path id="Rectangle 7" d="M392 393H608.745L642 433L608.745 473H392V393Z" fill="#CD08D1" fill-opacity="0.1"/>
<path id="Rectangle 7 (Stroke)" fill-rule="evenodd" clip-rule="evenodd" d="M607.338 396H395V470H607.338L638.099 433L607.338 396ZM608.745 393H392V473H608.745L642 433L608.745 393Z" fill="#CD08D1"/>
<path id="Rectangle 8" d="M735 342H951.745L985 382L951.745 422H735V342Z" fill="#CD08D1" fill-opacity="0.1"/>
<path id="Rectangle 8 (Stroke)" fill-rule="evenodd" clip-rule="evenodd" d="M950.338 345H738V419H950.338L981.099 382L950.338 345ZM951.745 342H735V422H951.745L985 382L951.745 342Z" fill="#CD08D1"/>
<path id="Ellipse 1" d="M90 326C90 348.091 72.0914 366 50 366C27.9086 366 10 348.091 10 326C10 303.909 27.9086 286 50 286C72.0914 286 90 303.909 90 326Z" fill="#CD08D1"/>
<path id="Ellipse 2" d="M94 436C94 458.091 76.0914 476 54 476C31.9086 476 14 458.091 14 436C14 413.909 31.9086 396 54 396C76.0914 396 94 413.909 94 436Z" fill="#CD08D1"/>
<path id="Ellipse 3" d="M430 323C430 345.091 412.091 363 390 363C367.909 363 350 345.091 350 323C350 300.909 367.909 283 390 283C412.091 283 430 300.909 430 323Z" fill="#CD08D1"/>
<path id="Ellipse 4" d="M433 433C433 455.091 415.091 473 393 473C370.909 473 353 455.091 353 433C353 410.909 370.909 393 393 393C415.091 393 433 410.909 433 433Z" fill="#CD08D1"/>
<path id="Ellipse 5" d="M776 382C776 404.091 758.091 422 736 422C713.909 422 696 404.091 696 382C696 359.909 713.909 342 736 342C758.091 342 776 359.909 776 382Z" fill="#CD08D1"/>
<path id="A" d="M58.0938 336.406H40.4688L36.7812 347H28.5625L45.75 301.5H52.8438L70.0625 347H61.8125L58.0938 336.406ZM42.6875 330.031H55.875L49.2812 311.156L42.6875 330.031Z" fill="white"/>
<path id="B" d="M37.625 452V406.5H53.2188C58.3646 406.5 62.2812 407.531 64.9688 409.594C67.6562 411.656 69 414.729 69 418.812C69 420.896 68.4375 422.771 67.3125 424.438C66.1875 426.104 64.5417 427.396 62.375 428.312C64.8333 428.979 66.7292 430.24 68.0625 432.094C69.4167 433.927 70.0938 436.135 70.0938 438.719C70.0938 442.99 68.7188 446.271 65.9688 448.562C63.2396 450.854 59.3229 452 54.2188 452H37.625ZM45.5312 431.469V445.688H54.3125C56.7917 445.688 58.7292 445.073 60.125 443.844C61.5208 442.615 62.2188 440.906 62.2188 438.719C62.2188 433.99 59.8021 431.573 54.9688 431.469H45.5312ZM45.5312 425.656H53.2812C55.7396 425.656 57.6562 425.104 59.0312 424C60.4271 422.875 61.125 421.292 61.125 419.25C61.125 417 60.4792 415.375 59.1875 414.375C57.9167 413.375 55.9271 412.875 53.2188 412.875H45.5312V425.656Z" fill="white"/>
<path id="C" d="M407.344 330.188C406.885 335.042 405.094 338.833 401.969 341.562C398.844 344.271 394.688 345.625 389.5 345.625C385.875 345.625 382.677 344.771 379.906 343.062C377.156 341.333 375.031 338.885 373.531 335.719C372.031 332.552 371.25 328.875 371.188 324.688V320.438C371.188 316.146 371.948 312.365 373.469 309.094C374.99 305.823 377.167 303.302 380 301.531C382.854 299.76 386.146 298.875 389.875 298.875C394.896 298.875 398.938 300.24 402 302.969C405.062 305.698 406.844 309.552 407.344 314.531H399.469C399.094 311.26 398.135 308.906 396.594 307.469C395.073 306.01 392.833 305.281 389.875 305.281C386.438 305.281 383.792 306.542 381.938 309.062C380.104 311.562 379.167 315.24 379.125 320.094V324.125C379.125 329.042 380 332.792 381.75 335.375C383.521 337.958 386.104 339.25 389.5 339.25C392.604 339.25 394.938 338.552 396.5 337.156C398.062 335.76 399.052 333.438 399.469 330.188H407.344Z" fill="white"/>
<path id="D" d="M375.625 455V409.5H389.062C393.083 409.5 396.646 410.396 399.75 412.188C402.875 413.979 405.292 416.521 407 419.812C408.708 423.104 409.562 426.875 409.562 431.125V433.406C409.562 437.719 408.698 441.51 406.969 444.781C405.26 448.052 402.812 450.573 399.625 452.344C396.458 454.115 392.823 455 388.719 455H375.625ZM383.531 415.875V448.688H388.688C392.833 448.688 396.01 447.396 398.219 444.812C400.448 442.208 401.583 438.479 401.625 433.625V431.094C401.625 426.156 400.552 422.385 398.406 419.781C396.26 417.177 393.146 415.875 389.062 415.875H383.531Z" fill="white"/>
<path id="E" d="M745.219 383.688H726.531V397.688H748.375V404H718.625V358.5H748.156V364.875H726.531V377.438H745.219V383.688Z" fill="white"/>
<g id="flecha">
<path id="Rectangle 2" d="M58.2001 282.008L73.4819 290.133L31.5003 369.089L16.2185 360.964L58.2001 282.008Z" fill="#1043F5"/>
<path id="Rectangle 1_2" d="M0 294.904L90 245V302.692L45 285.096L0 294.904Z" fill="#1043F5"/>
<path id="Rectangle 3" d="M4.03845 364.209L19.6656 337.142L36.9362 336.564L21.3091 363.631L4.03845 364.209Z" fill="#1043F5"/>
<path id="Rectangle 4_2" d="M30.0895 378.845L45.7166 351.778L36.9259 336.154L21.2987 363.221L30.0895 378.845Z" fill="#1043F5"/>
</g>
<g id="Group 79">
<g id="20">
<path d="M151.896 339H135.127V336.662L143.986 326.818C145.299 325.33 146.201 324.123 146.693 323.197C147.197 322.26 147.449 321.293 147.449 320.297C147.449 318.961 147.045 317.865 146.236 317.01C145.428 316.154 144.35 315.727 143.002 315.727C141.385 315.727 140.125 316.189 139.223 317.115C138.332 318.029 137.887 319.307 137.887 320.947H134.635C134.635 318.592 135.391 316.688 136.902 315.234C138.426 313.781 140.459 313.055 143.002 313.055C145.381 313.055 147.262 313.682 148.645 314.936C150.027 316.178 150.719 317.836 150.719 319.91C150.719 322.43 149.113 325.43 145.902 328.91L139.047 336.346H151.896V339Z" fill="#CD08D1"/>
<path d="M171.391 328.084C171.391 331.893 170.74 334.723 169.439 336.574C168.139 338.426 166.105 339.352 163.34 339.352C160.609 339.352 158.588 338.449 157.275 336.645C155.963 334.828 155.283 332.121 155.236 328.523V324.182C155.236 320.42 155.887 317.625 157.188 315.797C158.488 313.969 160.527 313.055 163.305 313.055C166.059 313.055 168.086 313.939 169.387 315.709C170.688 317.467 171.355 320.186 171.391 323.865V328.084ZM168.139 323.637C168.139 320.883 167.752 318.879 166.979 317.625C166.205 316.359 164.98 315.727 163.305 315.727C161.641 315.727 160.428 316.354 159.666 317.607C158.904 318.861 158.512 320.789 158.488 323.391V328.594C158.488 331.359 158.887 333.404 159.684 334.729C160.492 336.041 161.711 336.697 163.34 336.697C164.945 336.697 166.135 336.076 166.908 334.834C167.693 333.592 168.104 331.635 168.139 328.963V323.637Z" fill="#CD08D1"/>
</g>
<g id="40">
<path d="M148.855 438.404H152.406V441.059H148.855V447H145.586V441.059H133.932V439.143L145.393 421.406H148.855V438.404ZM137.623 438.404H145.586V425.854L145.199 426.557L137.623 438.404Z" fill="#CD08D1"/>
<path d="M171.391 436.084C171.391 439.893 170.74 442.723 169.439 444.574C168.139 446.426 166.105 447.352 163.34 447.352C160.609 447.352 158.588 446.449 157.275 444.645C155.963 442.828 155.283 440.121 155.236 436.523V432.182C155.236 428.42 155.887 425.625 157.188 423.797C158.488 421.969 160.527 421.055 163.305 421.055C166.059 421.055 168.086 421.939 169.387 423.709C170.688 425.467 171.355 428.186 171.391 431.865V436.084ZM168.139 431.637C168.139 428.883 167.752 426.879 166.979 425.625C166.205 424.359 164.98 423.727 163.305 423.727C161.641 423.727 160.428 424.354 159.666 425.607C158.904 426.861 158.512 428.789 158.488 431.391V436.594C158.488 439.359 158.887 441.404 159.684 442.729C160.492 444.041 161.711 444.697 163.34 444.697C164.945 444.697 166.135 444.076 166.908 442.834C167.693 441.592 168.104 439.635 168.139 436.963V431.637Z" fill="#CD08D1"/>
</g>
<g id="50">
<path d="M493.621 321.168L494.922 308.406H508.035V311.412H497.682L496.908 318.391C498.162 317.652 499.586 317.283 501.18 317.283C503.512 317.283 505.363 318.057 506.734 319.604C508.105 321.139 508.791 323.219 508.791 325.844C508.791 328.48 508.076 330.561 506.646 332.084C505.229 333.596 503.242 334.352 500.688 334.352C498.426 334.352 496.58 333.725 495.15 332.471C493.721 331.217 492.906 329.482 492.707 327.268H495.783C495.982 328.732 496.504 329.84 497.348 330.59C498.191 331.328 499.305 331.697 500.688 331.697C502.199 331.697 503.383 331.182 504.238 330.15C505.105 329.119 505.539 327.695 505.539 325.879C505.539 324.168 505.07 322.797 504.133 321.766C503.207 320.723 501.971 320.201 500.424 320.201C499.006 320.201 497.893 320.512 497.084 321.133L496.223 321.836L493.621 321.168Z" fill="#CD08D1"/>
<path d="M528.391 323.084C528.391 326.893 527.74 329.723 526.439 331.574C525.139 333.426 523.105 334.352 520.34 334.352C517.609 334.352 515.588 333.449 514.275 331.645C512.963 329.828 512.283 327.121 512.236 323.523V319.182C512.236 315.42 512.887 312.625 514.188 310.797C515.488 308.969 517.527 308.055 520.305 308.055C523.059 308.055 525.086 308.939 526.387 310.709C527.688 312.467 528.355 315.186 528.391 318.865V323.084ZM525.139 318.637C525.139 315.883 524.752 313.879 523.979 312.625C523.205 311.359 521.98 310.727 520.305 310.727C518.641 310.727 517.428 311.354 516.666 312.607C515.904 313.861 515.512 315.789 515.488 318.391V323.594C515.488 326.359 515.887 328.404 516.684 329.729C517.492 331.041 518.711 331.697 520.34 331.697C521.945 331.697 523.135 331.076 523.908 329.834C524.693 328.592 525.104 326.635 525.139 323.963V318.637Z" fill="#CD08D1"/>
</g>
<g id="60">
<path d="M504.889 423.389V426.148H504.291C501.76 426.195 499.744 426.945 498.244 428.398C496.744 429.852 495.877 431.896 495.643 434.533C496.99 432.986 498.83 432.213 501.162 432.213C503.389 432.213 505.164 432.998 506.488 434.568C507.824 436.139 508.492 438.166 508.492 440.65C508.492 443.287 507.771 445.396 506.33 446.979C504.9 448.561 502.979 449.352 500.564 449.352C498.115 449.352 496.129 448.414 494.605 446.539C493.082 444.652 492.32 442.227 492.32 439.262V438.014C492.32 433.303 493.322 429.705 495.326 427.221C497.342 424.725 500.336 423.447 504.309 423.389H504.889ZM500.617 434.92C499.504 434.92 498.479 435.254 497.541 435.922C496.604 436.59 495.953 437.428 495.59 438.436V439.631C495.59 441.74 496.064 443.439 497.014 444.729C497.963 446.018 499.146 446.662 500.564 446.662C502.029 446.662 503.178 446.123 504.01 445.045C504.854 443.967 505.275 442.555 505.275 440.809C505.275 439.051 504.848 437.633 503.992 436.555C503.148 435.465 502.023 434.92 500.617 434.92Z" fill="#CD08D1"/>
<path d="M528.391 438.084C528.391 441.893 527.74 444.723 526.439 446.574C525.139 448.426 523.105 449.352 520.34 449.352C517.609 449.352 515.588 448.449 514.275 446.645C512.963 444.828 512.283 442.121 512.236 438.523V434.182C512.236 430.42 512.887 427.625 514.188 425.797C515.488 423.969 517.527 423.055 520.305 423.055C523.059 423.055 525.086 423.939 526.387 425.709C527.688 427.467 528.355 430.186 528.391 433.865V438.084ZM525.139 433.637C525.139 430.883 524.752 428.879 523.979 427.625C523.205 426.359 521.98 425.727 520.305 425.727C518.641 425.727 517.428 426.354 516.666 427.607C515.904 428.861 515.512 430.789 515.488 433.391V438.594C515.488 441.359 515.887 443.404 516.684 444.729C517.492 446.041 518.711 446.697 520.34 446.697C521.945 446.697 523.135 446.076 523.908 444.834C524.693 443.592 525.104 441.635 525.139 438.963V433.637Z" fill="#CD08D1"/>
</g>
<g id="75">
<path d="M842.65 367.234L832.051 391H828.641L839.205 368.078H825.354V365.406H842.65V367.234Z" fill="#CD08D1"/>
<path d="M847.836 378.168L849.137 365.406H862.25V368.412H851.896L851.123 375.391C852.377 374.652 853.801 374.283 855.395 374.283C857.727 374.283 859.578 375.057 860.949 376.604C862.32 378.139 863.006 380.219 863.006 382.844C863.006 385.48 862.291 387.561 860.861 389.084C859.443 390.596 857.457 391.352 854.902 391.352C852.641 391.352 850.795 390.725 849.365 389.471C847.936 388.217 847.121 386.482 846.922 384.268H849.998C850.197 385.732 850.719 386.84 851.562 387.59C852.406 388.328 853.52 388.697 854.902 388.697C856.414 388.697 857.598 388.182 858.453 387.15C859.32 386.119 859.754 384.695 859.754 382.879C859.754 381.168 859.285 379.797 858.348 378.766C857.422 377.723 856.186 377.201 854.639 377.201C853.221 377.201 852.107 377.512 851.299 378.133L850.438 378.836L847.836 378.168Z" fill="#CD08D1"/>
</g>
</g>
</g>
<g id="Si por S/ 2 dieran 6 n&#195;&#173;speros m&#195;&#161;s de los que dan, la docena costar&#195;&#173;a 90 c&#195;&#169;ntimos menos. &#194;&#191;Cu&#195;&#161;ntos c&#195;&#169;ntimos cuesta cada n&#195;&#173;spero?">
<path d="M37.5117 77.5918C34.6172 76.7598 32.5078 75.7402 31.1836 74.5332C29.8711 73.3145 29.2148 71.8145 29.2148 70.0332C29.2148 68.0176 30.0176 66.3535 31.623 65.041C33.2402 63.7168 35.3379 63.0547 37.916 63.0547C39.6738 63.0547 41.2383 63.3945 42.6094 64.0742C43.9922 64.7539 45.0586 65.6914 45.8086 66.8867C46.5703 68.082 46.9512 69.3887 46.9512 70.8066H43.5586C43.5586 69.2598 43.0664 68.0469 42.082 67.168C41.0977 66.2773 39.709 65.832 37.916 65.832C36.252 65.832 34.9512 66.2012 34.0137 66.9395C33.0879 67.666 32.625 68.6797 32.625 69.9805C32.625 71.0234 33.0645 71.9082 33.9434 72.6348C34.834 73.3496 36.3398 74.0059 38.4609 74.6035C40.5938 75.2012 42.2578 75.8633 43.4531 76.5898C44.6602 77.3047 45.5508 78.1426 46.125 79.1035C46.7109 80.0645 47.0039 81.1953 47.0039 82.4961C47.0039 84.5703 46.1953 86.2344 44.5781 87.4883C42.9609 88.7305 40.7988 89.3516 38.0918 89.3516C36.334 89.3516 34.6934 89.0176 33.1699 88.3496C31.6465 87.6699 30.4688 86.7441 29.6367 85.5723C28.8164 84.4004 28.4062 83.0703 28.4062 81.582H31.7988C31.7988 83.1289 32.3672 84.3535 33.5039 85.2559C34.6523 86.1465 36.1816 86.5918 38.0918 86.5918C39.873 86.5918 41.2383 86.2285 42.1875 85.502C43.1367 84.7754 43.6113 83.7852 43.6113 82.5312C43.6113 81.2773 43.1719 80.3105 42.293 79.6309C41.4141 78.9395 39.8203 78.2598 37.5117 77.5918Z" fill="white"/>
<path d="M54.3691 89H51.1172V69.9805H54.3691V89ZM50.8535 64.9355C50.8535 64.4082 51.0117 63.9629 51.3281 63.5996C51.6562 63.2363 52.1367 63.0547 52.7695 63.0547C53.4023 63.0547 53.8828 63.2363 54.2109 63.5996C54.5391 63.9629 54.7031 64.4082 54.7031 64.9355C54.7031 65.4629 54.5391 65.9023 54.2109 66.2539C53.8828 66.6055 53.4023 66.7812 52.7695 66.7812C52.1367 66.7812 51.6562 66.6055 51.3281 66.2539C51.0117 65.9023 50.8535 65.4629 50.8535 64.9355Z" fill="white"/>
<path d="M84.5859 79.7012C84.5859 82.5957 83.9238 84.9277 82.5996 86.6973C81.2754 88.4668 79.4824 89.3516 77.2207 89.3516C74.9121 89.3516 73.0957 88.6191 71.7715 87.1543V96.3125H68.5195V69.9805H71.4902L71.6484 72.0898C72.9727 70.4492 74.8125 69.6289 77.168 69.6289C79.4531 69.6289 81.2578 70.4902 82.582 72.2129C83.918 73.9355 84.5859 76.332 84.5859 79.4023V79.7012ZM81.334 79.332C81.334 77.1875 80.877 75.4941 79.9629 74.252C79.0488 73.0098 77.7949 72.3887 76.2012 72.3887C74.2324 72.3887 72.7559 73.2617 71.7715 75.0078V84.0957C72.7441 85.8301 74.2324 86.6973 76.2363 86.6973C77.7949 86.6973 79.0312 86.082 79.9453 84.8516C80.8711 83.6094 81.334 81.7695 81.334 79.332Z" fill="white"/>
<path d="M87.873 79.3145C87.873 77.4512 88.2363 75.7754 88.9629 74.2871C89.7012 72.7988 90.7207 71.6504 92.0215 70.8418C93.334 70.0332 94.8281 69.6289 96.5039 69.6289C99.0938 69.6289 101.186 70.5254 102.779 72.3184C104.385 74.1113 105.188 76.4961 105.188 79.4727V79.7012C105.188 81.5527 104.83 83.2168 104.115 84.6934C103.412 86.1582 102.398 87.3008 101.074 88.1211C99.7617 88.9414 98.25 89.3516 96.5391 89.3516C93.9609 89.3516 91.8691 88.4551 90.2637 86.6621C88.6699 84.8691 87.873 82.4961 87.873 79.543V79.3145ZM91.1426 79.7012C91.1426 81.8105 91.6289 83.5039 92.6016 84.7812C93.5859 86.0586 94.8984 86.6973 96.5391 86.6973C98.1914 86.6973 99.5039 86.0527 100.477 84.7637C101.449 83.4629 101.936 81.6465 101.936 79.3145C101.936 77.2285 101.438 75.541 100.441 74.252C99.457 72.9512 98.1445 72.3008 96.5039 72.3008C94.8984 72.3008 93.6035 72.9395 92.6191 74.2168C91.6348 75.4941 91.1426 77.3223 91.1426 79.7012Z" fill="white"/>
<path d="M118.459 72.8984C117.967 72.8164 117.434 72.7754 116.859 72.7754C114.727 72.7754 113.279 73.6836 112.518 75.5V89H109.266V69.9805H112.43L112.482 72.1777C113.549 70.4785 115.061 69.6289 117.018 69.6289C117.65 69.6289 118.131 69.7109 118.459 69.875V72.8984Z" fill="white"/>
<path d="M138.445 77.5918C135.551 76.7598 133.441 75.7402 132.117 74.5332C130.805 73.3145 130.148 71.8145 130.148 70.0332C130.148 68.0176 130.951 66.3535 132.557 65.041C134.174 63.7168 136.271 63.0547 138.85 63.0547C140.607 63.0547 142.172 63.3945 143.543 64.0742C144.926 64.7539 145.992 65.6914 146.742 66.8867C147.504 68.082 147.885 69.3887 147.885 70.8066H144.492C144.492 69.2598 144 68.0469 143.016 67.168C142.031 66.2773 140.643 65.832 138.85 65.832C137.186 65.832 135.885 66.2012 134.947 66.9395C134.021 67.666 133.559 68.6797 133.559 69.9805C133.559 71.0234 133.998 71.9082 134.877 72.6348C135.768 73.3496 137.273 74.0059 139.395 74.6035C141.527 75.2012 143.191 75.8633 144.387 76.5898C145.594 77.3047 146.484 78.1426 147.059 79.1035C147.645 80.0645 147.938 81.1953 147.938 82.4961C147.938 84.5703 147.129 86.2344 145.512 87.4883C143.895 88.7305 141.732 89.3516 139.025 89.3516C137.268 89.3516 135.627 89.0176 134.104 88.3496C132.58 87.6699 131.402 86.7441 130.57 85.5723C129.75 84.4004 129.34 83.0703 129.34 81.582H132.732C132.732 83.1289 133.301 84.3535 134.438 85.2559C135.586 86.1465 137.115 86.5918 139.025 86.5918C140.807 86.5918 142.172 86.2285 143.121 85.502C144.07 84.7754 144.545 83.7852 144.545 82.5312C144.545 81.2773 144.105 80.3105 143.227 79.6309C142.348 78.9395 140.754 78.2598 138.445 77.5918Z" fill="white"/>
<path d="M152.42 91.1973H149.625L160.312 63.4062H163.09L152.42 91.1973Z" fill="white"/>
<path d="M191.971 89H175.201V86.6621L184.061 76.8184C185.373 75.3301 186.275 74.123 186.768 73.1973C187.271 72.2598 187.523 71.293 187.523 70.2969C187.523 68.9609 187.119 67.8652 186.311 67.0098C185.502 66.1543 184.424 65.7266 183.076 65.7266C181.459 65.7266 180.199 66.1895 179.297 67.1152C178.406 68.0293 177.961 69.3066 177.961 70.9473H174.709C174.709 68.5918 175.465 66.6875 176.977 65.2344C178.5 63.7812 180.533 63.0547 183.076 63.0547C185.455 63.0547 187.336 63.6816 188.719 64.9355C190.102 66.1777 190.793 67.8359 190.793 69.9102C190.793 72.4297 189.188 75.4297 185.977 78.9102L179.121 86.3457H191.971V89Z" fill="white"/>
<path d="M203.889 79.332C203.889 76.4141 204.58 74.0703 205.963 72.3008C207.346 70.5195 209.156 69.6289 211.395 69.6289C213.621 69.6289 215.385 70.3906 216.686 71.9141V62H219.938V89H216.949L216.791 86.9609C215.49 88.5547 213.68 89.3516 211.359 89.3516C209.156 89.3516 207.357 88.4492 205.963 86.6445C204.58 84.8398 203.889 82.4844 203.889 79.5781V79.332ZM207.141 79.7012C207.141 81.8574 207.586 83.5449 208.477 84.7637C209.367 85.9824 210.598 86.5918 212.168 86.5918C214.23 86.5918 215.736 85.666 216.686 83.8145V75.0781C215.713 73.2852 214.219 72.3887 212.203 72.3887C210.609 72.3887 209.367 73.0039 208.477 74.2344C207.586 75.4648 207.141 77.2871 207.141 79.7012Z" fill="white"/>
<path d="M228.533 89H225.281V69.9805H228.533V89ZM225.018 64.9355C225.018 64.4082 225.176 63.9629 225.492 63.5996C225.82 63.2363 226.301 63.0547 226.934 63.0547C227.566 63.0547 228.047 63.2363 228.375 63.5996C228.703 63.9629 228.867 64.4082 228.867 64.9355C228.867 65.4629 228.703 65.9023 228.375 66.2539C228.047 66.6055 227.566 66.7812 226.934 66.7812C226.301 66.7812 225.82 66.6055 225.492 66.2539C225.176 65.9023 225.018 65.4629 225.018 64.9355Z" fill="white"/>
<path d="M241.646 89.3516C239.068 89.3516 236.971 88.5078 235.354 86.8203C233.736 85.1211 232.928 82.8535 232.928 80.0176V79.4199C232.928 77.5332 233.285 75.8516 234 74.375C234.727 72.8867 235.734 71.7266 237.023 70.8945C238.324 70.0508 239.73 69.6289 241.242 69.6289C243.715 69.6289 245.637 70.4434 247.008 72.0723C248.379 73.7012 249.064 76.0332 249.064 79.0684V80.4219H236.18C236.227 82.2969 236.771 83.8145 237.814 84.9746C238.869 86.123 240.205 86.6973 241.822 86.6973C242.971 86.6973 243.943 86.4629 244.74 85.9941C245.537 85.5254 246.234 84.9043 246.832 84.1309L248.818 85.6777C247.225 88.127 244.834 89.3516 241.646 89.3516ZM241.242 72.3008C239.93 72.3008 238.828 72.7812 237.938 73.7422C237.047 74.6914 236.496 76.0273 236.285 77.75H245.812V77.5039C245.719 75.8516 245.273 74.5742 244.477 73.6719C243.68 72.7578 242.602 72.3008 241.242 72.3008Z" fill="white"/>
<path d="M262.037 72.8984C261.545 72.8164 261.012 72.7754 260.438 72.7754C258.305 72.7754 256.857 73.6836 256.096 75.5V89H252.844V69.9805H256.008L256.061 72.1777C257.127 70.4785 258.639 69.6289 260.596 69.6289C261.229 69.6289 261.709 69.7109 262.037 69.875V72.8984Z" fill="white"/>
<path d="M276.082 89C275.895 88.625 275.742 87.957 275.625 86.9961C274.113 88.5664 272.309 89.3516 270.211 89.3516C268.336 89.3516 266.795 88.8242 265.588 87.7695C264.393 86.7031 263.795 85.3555 263.795 83.7266C263.795 81.7461 264.545 80.2109 266.045 79.1211C267.557 78.0195 269.678 77.4688 272.408 77.4688H275.572V75.9746C275.572 74.8379 275.232 73.9355 274.553 73.2676C273.873 72.5879 272.871 72.248 271.547 72.248C270.387 72.248 269.414 72.541 268.629 73.127C267.844 73.7129 267.451 74.4219 267.451 75.2539H264.182C264.182 74.3047 264.516 73.3906 265.184 72.5117C265.863 71.6211 266.777 70.918 267.926 70.4023C269.086 69.8867 270.357 69.6289 271.74 69.6289C273.932 69.6289 275.648 70.1797 276.891 71.2812C278.133 72.3711 278.777 73.877 278.824 75.7988V84.5527C278.824 86.2988 279.047 87.6875 279.492 88.7188V89H276.082ZM270.686 86.5215C271.705 86.5215 272.672 86.2578 273.586 85.7305C274.5 85.2031 275.162 84.5176 275.572 83.6738V79.7715H273.023C269.039 79.7715 267.047 80.9375 267.047 83.2695C267.047 84.2891 267.387 85.0859 268.066 85.6602C268.746 86.2344 269.619 86.5215 270.686 86.5215Z" fill="white"/>
<path d="M286.998 69.9805L287.104 72.3711C288.557 70.543 290.455 69.6289 292.799 69.6289C296.818 69.6289 298.846 71.8965 298.881 76.4316V89H295.629V76.4141C295.617 75.043 295.301 74.0293 294.68 73.373C294.07 72.7168 293.115 72.3887 291.814 72.3887C290.76 72.3887 289.834 72.6699 289.037 73.2324C288.24 73.7949 287.619 74.5332 287.174 75.4473V89H283.922V69.9805H286.998Z" fill="white"/>
<path d="M325.143 63.3887V66.1484H324.545C322.014 66.1953 319.998 66.9453 318.498 68.3984C316.998 69.8516 316.131 71.8965 315.896 74.5332C317.244 72.9863 319.084 72.2129 321.416 72.2129C323.643 72.2129 325.418 72.998 326.742 74.5684C328.078 76.1387 328.746 78.166 328.746 80.6504C328.746 83.2871 328.025 85.3965 326.584 86.9785C325.154 88.5605 323.232 89.3516 320.818 89.3516C318.369 89.3516 316.383 88.4141 314.859 86.5391C313.336 84.6523 312.574 82.2266 312.574 79.2617V78.0137C312.574 73.3027 313.576 69.7051 315.58 67.2207C317.596 64.7246 320.59 63.4473 324.562 63.3887H325.143ZM320.871 74.9199C319.758 74.9199 318.732 75.2539 317.795 75.9219C316.857 76.5898 316.207 77.4277 315.844 78.4355V79.6309C315.844 81.7402 316.318 83.4395 317.268 84.7285C318.217 86.0176 319.4 86.6621 320.818 86.6621C322.283 86.6621 323.432 86.123 324.264 85.0449C325.107 83.9668 325.529 82.5547 325.529 80.8086C325.529 79.0508 325.102 77.6328 324.246 76.5547C323.402 75.4648 322.277 74.9199 320.871 74.9199Z" fill="white"/>
<path d="M344.936 69.9805L345.041 72.3711C346.494 70.543 348.393 69.6289 350.736 69.6289C354.756 69.6289 356.783 71.8965 356.818 76.4316V89H353.566V76.4141C353.555 75.043 353.238 74.0293 352.617 73.373C352.008 72.7168 351.053 72.3887 349.752 72.3887C348.697 72.3887 347.771 72.6699 346.975 73.2324C346.178 73.7949 345.557 74.5332 345.111 75.4473V89H341.859V69.9805H344.936Z" fill="white"/>
<path d="M365.256 89H361.986V69.9805H365.256V89ZM365.291 62.0176H369.229L364.518 67.1855H361.898L365.291 62.0176Z" fill="white"/>
<path d="M381.691 83.9551C381.691 83.0762 381.357 82.3965 380.689 81.916C380.033 81.4238 378.879 81.002 377.227 80.6504C375.586 80.2988 374.279 79.877 373.307 79.3848C372.346 78.8926 371.631 78.3066 371.162 77.627C370.705 76.9473 370.477 76.1387 370.477 75.2012C370.477 73.6426 371.133 72.3242 372.445 71.2461C373.77 70.168 375.457 69.6289 377.508 69.6289C379.664 69.6289 381.41 70.1855 382.746 71.2988C384.094 72.4121 384.768 73.8359 384.768 75.5703H381.498C381.498 74.6797 381.117 73.9121 380.355 73.2676C379.605 72.623 378.656 72.3008 377.508 72.3008C376.324 72.3008 375.398 72.5586 374.73 73.0742C374.062 73.5898 373.729 74.2637 373.729 75.0957C373.729 75.8809 374.039 76.4727 374.66 76.8711C375.281 77.2695 376.4 77.6504 378.018 78.0137C379.646 78.377 380.965 78.8105 381.973 79.3145C382.98 79.8184 383.725 80.4277 384.205 81.1426C384.697 81.8457 384.943 82.707 384.943 83.7266C384.943 85.4258 384.264 86.791 382.904 87.8223C381.545 88.8418 379.781 89.3516 377.613 89.3516C376.09 89.3516 374.742 89.082 373.57 88.543C372.398 88.0039 371.479 87.2539 370.811 86.293C370.154 85.3203 369.826 84.2715 369.826 83.1465H373.078C373.137 84.2363 373.57 85.1035 374.379 85.748C375.199 86.3809 376.277 86.6973 377.613 86.6973C378.844 86.6973 379.828 86.4512 380.566 85.959C381.316 85.4551 381.691 84.7871 381.691 83.9551Z" fill="white"/>
<path d="M405.246 79.7012C405.246 82.5957 404.584 84.9277 403.26 86.6973C401.936 88.4668 400.143 89.3516 397.881 89.3516C395.572 89.3516 393.756 88.6191 392.432 87.1543V96.3125H389.18V69.9805H392.15L392.309 72.0898C393.633 70.4492 395.473 69.6289 397.828 69.6289C400.113 69.6289 401.918 70.4902 403.242 72.2129C404.578 73.9355 405.246 76.332 405.246 79.4023V79.7012ZM401.994 79.332C401.994 77.1875 401.537 75.4941 400.623 74.252C399.709 73.0098 398.455 72.3887 396.861 72.3887C394.893 72.3887 393.416 73.2617 392.432 75.0078V84.0957C393.404 85.8301 394.893 86.6973 396.896 86.6973C398.455 86.6973 399.691 86.082 400.605 84.8516C401.531 83.6094 401.994 81.7695 401.994 79.332Z" fill="white"/>
<path d="M417.287 89.3516C414.709 89.3516 412.611 88.5078 410.994 86.8203C409.377 85.1211 408.568 82.8535 408.568 80.0176V79.4199C408.568 77.5332 408.926 75.8516 409.641 74.375C410.367 72.8867 411.375 71.7266 412.664 70.8945C413.965 70.0508 415.371 69.6289 416.883 69.6289C419.355 69.6289 421.277 70.4434 422.648 72.0723C424.02 73.7012 424.705 76.0332 424.705 79.0684V80.4219H411.82C411.867 82.2969 412.412 83.8145 413.455 84.9746C414.51 86.123 415.846 86.6973 417.463 86.6973C418.611 86.6973 419.584 86.4629 420.381 85.9941C421.178 85.5254 421.875 84.9043 422.473 84.1309L424.459 85.6777C422.865 88.127 420.475 89.3516 417.287 89.3516ZM416.883 72.3008C415.57 72.3008 414.469 72.7812 413.578 73.7422C412.688 74.6914 412.137 76.0273 411.926 77.75H421.453V77.5039C421.359 75.8516 420.914 74.5742 420.117 73.6719C419.32 72.7578 418.242 72.3008 416.883 72.3008Z" fill="white"/>
<path d="M437.678 72.8984C437.186 72.8164 436.652 72.7754 436.078 72.7754C433.945 72.7754 432.498 73.6836 431.736 75.5V89H428.484V69.9805H431.648L431.701 72.1777C432.768 70.4785 434.279 69.6289 436.236 69.6289C436.869 69.6289 437.35 69.7109 437.678 69.875V72.8984Z" fill="white"/>
<path d="M439.471 79.3145C439.471 77.4512 439.834 75.7754 440.561 74.2871C441.299 72.7988 442.318 71.6504 443.619 70.8418C444.932 70.0332 446.426 69.6289 448.102 69.6289C450.691 69.6289 452.783 70.5254 454.377 72.3184C455.982 74.1113 456.785 76.4961 456.785 79.4727V79.7012C456.785 81.5527 456.428 83.2168 455.713 84.6934C455.01 86.1582 453.996 87.3008 452.672 88.1211C451.359 88.9414 449.848 89.3516 448.137 89.3516C445.559 89.3516 443.467 88.4551 441.861 86.6621C440.268 84.8691 439.471 82.4961 439.471 79.543V79.3145ZM442.74 79.7012C442.74 81.8105 443.227 83.5039 444.199 84.7812C445.184 86.0586 446.496 86.6973 448.137 86.6973C449.789 86.6973 451.102 86.0527 452.074 84.7637C453.047 83.4629 453.533 81.6465 453.533 79.3145C453.533 77.2285 453.035 75.541 452.039 74.252C451.055 72.9512 449.742 72.3008 448.102 72.3008C446.496 72.3008 445.201 72.9395 444.217 74.2168C443.232 75.4941 442.74 77.3223 442.74 79.7012Z" fill="white"/>
<path d="M471.938 83.9551C471.938 83.0762 471.604 82.3965 470.936 81.916C470.279 81.4238 469.125 81.002 467.473 80.6504C465.832 80.2988 464.525 79.877 463.553 79.3848C462.592 78.8926 461.877 78.3066 461.408 77.627C460.951 76.9473 460.723 76.1387 460.723 75.2012C460.723 73.6426 461.379 72.3242 462.691 71.2461C464.016 70.168 465.703 69.6289 467.754 69.6289C469.91 69.6289 471.656 70.1855 472.992 71.2988C474.34 72.4121 475.014 73.8359 475.014 75.5703H471.744C471.744 74.6797 471.363 73.9121 470.602 73.2676C469.852 72.623 468.902 72.3008 467.754 72.3008C466.57 72.3008 465.645 72.5586 464.977 73.0742C464.309 73.5898 463.975 74.2637 463.975 75.0957C463.975 75.8809 464.285 76.4727 464.906 76.8711C465.527 77.2695 466.646 77.6504 468.264 78.0137C469.893 78.377 471.211 78.8105 472.219 79.3145C473.227 79.8184 473.971 80.4277 474.451 81.1426C474.943 81.8457 475.189 82.707 475.189 83.7266C475.189 85.4258 474.51 86.791 473.15 87.8223C471.791 88.8418 470.027 89.3516 467.859 89.3516C466.336 89.3516 464.988 89.082 463.816 88.543C462.645 88.0039 461.725 87.2539 461.057 86.293C460.4 85.3203 460.072 84.2715 460.072 83.1465H463.324C463.383 84.2363 463.816 85.1035 464.625 85.748C465.445 86.3809 466.523 86.6973 467.859 86.6973C469.09 86.6973 470.074 86.4512 470.812 85.959C471.562 85.4551 471.938 84.7871 471.938 83.9551Z" fill="white"/>
<path d="M491.414 69.9805L491.502 72.0898C492.896 70.4492 494.777 69.6289 497.145 69.6289C499.805 69.6289 501.615 70.6484 502.576 72.6875C503.209 71.7734 504.029 71.0352 505.037 70.4727C506.057 69.9102 507.258 69.6289 508.641 69.6289C512.812 69.6289 514.934 71.8379 515.004 76.2559V89H511.752V76.4492C511.752 75.0898 511.441 74.0762 510.82 73.4082C510.199 72.7285 509.156 72.3887 507.691 72.3887C506.484 72.3887 505.482 72.752 504.686 73.4785C503.889 74.1934 503.426 75.1602 503.297 76.3789V89H500.027V76.5371C500.027 73.7715 498.674 72.3887 495.967 72.3887C493.834 72.3887 492.375 73.2969 491.59 75.1133V89H488.338V69.9805H491.414Z" fill="white"/>
<path d="M531.668 89C531.48 88.625 531.328 87.957 531.211 86.9961C529.699 88.5664 527.895 89.3516 525.797 89.3516C523.922 89.3516 522.381 88.8242 521.174 87.7695C519.979 86.7031 519.381 85.3555 519.381 83.7266C519.381 81.7461 520.131 80.2109 521.631 79.1211C523.143 78.0195 525.264 77.4688 527.994 77.4688H531.158V75.9746C531.158 74.8379 530.818 73.9355 530.139 73.2676C529.459 72.5879 528.457 72.248 527.133 72.248C525.973 72.248 525 72.541 524.215 73.127C523.43 73.7129 523.037 74.4219 523.037 75.2539H519.768C519.768 74.3047 520.102 73.3906 520.77 72.5117C521.449 71.6211 522.363 70.918 523.512 70.4023C524.672 69.8867 525.943 69.6289 527.326 69.6289C529.518 69.6289 531.234 70.1797 532.477 71.2812C533.719 72.3711 534.363 73.877 534.41 75.7988V84.5527C534.41 86.2988 534.633 87.6875 535.078 88.7188V89H531.668ZM526.271 86.5215C527.291 86.5215 528.258 86.2578 529.172 85.7305C530.086 85.2031 530.748 84.5176 531.158 83.6738V79.7715H528.609C524.625 79.7715 522.633 80.9375 522.633 83.2695C522.633 84.2891 522.973 85.0859 523.652 85.6602C524.332 86.2344 525.205 86.5215 526.271 86.5215ZM529.277 62H533.215L528.504 67.168H525.885L529.277 62Z" fill="white"/>
<path d="M550.582 83.9551C550.582 83.0762 550.248 82.3965 549.58 81.916C548.924 81.4238 547.77 81.002 546.117 80.6504C544.477 80.2988 543.17 79.877 542.197 79.3848C541.236 78.8926 540.521 78.3066 540.053 77.627C539.596 76.9473 539.367 76.1387 539.367 75.2012C539.367 73.6426 540.023 72.3242 541.336 71.2461C542.66 70.168 544.348 69.6289 546.398 69.6289C548.555 69.6289 550.301 70.1855 551.637 71.2988C552.984 72.4121 553.658 73.8359 553.658 75.5703H550.389C550.389 74.6797 550.008 73.9121 549.246 73.2676C548.496 72.623 547.547 72.3008 546.398 72.3008C545.215 72.3008 544.289 72.5586 543.621 73.0742C542.953 73.5898 542.619 74.2637 542.619 75.0957C542.619 75.8809 542.93 76.4727 543.551 76.8711C544.172 77.2695 545.291 77.6504 546.908 78.0137C548.537 78.377 549.855 78.8105 550.863 79.3145C551.871 79.8184 552.615 80.4277 553.096 81.1426C553.588 81.8457 553.834 82.707 553.834 83.7266C553.834 85.4258 553.154 86.791 551.795 87.8223C550.436 88.8418 548.672 89.3516 546.504 89.3516C544.98 89.3516 543.633 89.082 542.461 88.543C541.289 88.0039 540.369 87.2539 539.701 86.293C539.045 85.3203 538.717 84.2715 538.717 83.1465H541.969C542.027 84.2363 542.461 85.1035 543.27 85.748C544.09 86.3809 545.168 86.6973 546.504 86.6973C547.734 86.6973 548.719 86.4512 549.457 85.959C550.207 85.4551 550.582 84.7871 550.582 83.9551Z" fill="white"/>
<path d="M566.209 79.332C566.209 76.4141 566.9 74.0703 568.283 72.3008C569.666 70.5195 571.477 69.6289 573.715 69.6289C575.941 69.6289 577.705 70.3906 579.006 71.9141V62H582.258V89H579.27L579.111 86.9609C577.811 88.5547 576 89.3516 573.68 89.3516C571.477 89.3516 569.678 88.4492 568.283 86.6445C566.9 84.8398 566.209 82.4844 566.209 79.5781V79.332ZM569.461 79.7012C569.461 81.8574 569.906 83.5449 570.797 84.7637C571.688 85.9824 572.918 86.5918 574.488 86.5918C576.551 86.5918 578.057 85.666 579.006 83.8145V75.0781C578.033 73.2852 576.539 72.3887 574.523 72.3887C572.93 72.3887 571.688 73.0039 570.797 74.2344C569.906 75.4648 569.461 77.2871 569.461 79.7012Z" fill="white"/>
<path d="M595.213 89.3516C592.635 89.3516 590.537 88.5078 588.92 86.8203C587.303 85.1211 586.494 82.8535 586.494 80.0176V79.4199C586.494 77.5332 586.852 75.8516 587.566 74.375C588.293 72.8867 589.301 71.7266 590.59 70.8945C591.891 70.0508 593.297 69.6289 594.809 69.6289C597.281 69.6289 599.203 70.4434 600.574 72.0723C601.945 73.7012 602.631 76.0332 602.631 79.0684V80.4219H589.746C589.793 82.2969 590.338 83.8145 591.381 84.9746C592.436 86.123 593.771 86.6973 595.389 86.6973C596.537 86.6973 597.51 86.4629 598.307 85.9941C599.104 85.5254 599.801 84.9043 600.398 84.1309L602.385 85.6777C600.791 88.127 598.4 89.3516 595.213 89.3516ZM594.809 72.3008C593.496 72.3008 592.395 72.7812 591.504 73.7422C590.613 74.6914 590.062 76.0273 589.852 77.75H599.379V77.5039C599.285 75.8516 598.84 74.5742 598.043 73.6719C597.246 72.7578 596.168 72.3008 594.809 72.3008Z" fill="white"/>
<path d="M618.873 89H615.621V62H618.873V89Z" fill="white"/>
<path d="M623.232 79.3145C623.232 77.4512 623.596 75.7754 624.322 74.2871C625.061 72.7988 626.08 71.6504 627.381 70.8418C628.693 70.0332 630.188 69.6289 631.863 69.6289C634.453 69.6289 636.545 70.5254 638.139 72.3184C639.744 74.1113 640.547 76.4961 640.547 79.4727V79.7012C640.547 81.5527 640.189 83.2168 639.475 84.6934C638.771 86.1582 637.758 87.3008 636.434 88.1211C635.121 88.9414 633.609 89.3516 631.898 89.3516C629.32 89.3516 627.229 88.4551 625.623 86.6621C624.029 84.8691 623.232 82.4961 623.232 79.543V79.3145ZM626.502 79.7012C626.502 81.8105 626.988 83.5039 627.961 84.7812C628.945 86.0586 630.258 86.6973 631.898 86.6973C633.551 86.6973 634.863 86.0527 635.836 84.7637C636.809 83.4629 637.295 81.6465 637.295 79.3145C637.295 77.2285 636.797 75.541 635.801 74.252C634.816 72.9512 633.504 72.3008 631.863 72.3008C630.258 72.3008 628.963 72.9395 627.979 74.2168C626.994 75.4941 626.502 77.3223 626.502 79.7012Z" fill="white"/>
<path d="M655.699 83.9551C655.699 83.0762 655.365 82.3965 654.697 81.916C654.041 81.4238 652.887 81.002 651.234 80.6504C649.594 80.2988 648.287 79.877 647.314 79.3848C646.354 78.8926 645.639 78.3066 645.17 77.627C644.713 76.9473 644.484 76.1387 644.484 75.2012C644.484 73.6426 645.141 72.3242 646.453 71.2461C647.777 70.168 649.465 69.6289 651.516 69.6289C653.672 69.6289 655.418 70.1855 656.754 71.2988C658.102 72.4121 658.775 73.8359 658.775 75.5703H655.506C655.506 74.6797 655.125 73.9121 654.363 73.2676C653.613 72.623 652.664 72.3008 651.516 72.3008C650.332 72.3008 649.406 72.5586 648.738 73.0742C648.07 73.5898 647.736 74.2637 647.736 75.0957C647.736 75.8809 648.047 76.4727 648.668 76.8711C649.289 77.2695 650.408 77.6504 652.025 78.0137C653.654 78.377 654.973 78.8105 655.98 79.3145C656.988 79.8184 657.732 80.4277 658.213 81.1426C658.705 81.8457 658.951 82.707 658.951 83.7266C658.951 85.4258 658.271 86.791 656.912 87.8223C655.553 88.8418 653.789 89.3516 651.621 89.3516C650.098 89.3516 648.75 89.082 647.578 88.543C646.406 88.0039 645.486 87.2539 644.818 86.293C644.162 85.3203 643.834 84.2715 643.834 83.1465H647.086C647.145 84.2363 647.578 85.1035 648.387 85.748C649.207 86.3809 650.285 86.6973 651.621 86.6973C652.852 86.6973 653.836 86.4512 654.574 85.959C655.324 85.4551 655.699 84.7871 655.699 83.9551Z" fill="white"/>
<path d="M671.326 79.332C671.326 76.3438 672.012 73.9824 673.383 72.248C674.754 70.502 676.594 69.6289 678.902 69.6289C681.152 69.6289 682.928 70.3848 684.229 71.8965L684.369 69.9805H687.357V96.3125H684.105V87.2422C682.793 88.6484 681.047 89.3516 678.867 89.3516C676.57 89.3516 674.736 88.4609 673.365 86.6797C672.006 84.8867 671.326 82.5137 671.326 79.5605V79.332ZM674.578 79.7012C674.578 81.8809 675.035 83.5918 675.949 84.834C676.875 86.0762 678.117 86.6973 679.676 86.6973C681.609 86.6973 683.086 85.8418 684.105 84.1309V74.8145C683.074 73.1387 681.609 72.3008 679.711 72.3008C678.141 72.3008 676.893 72.9277 675.967 74.1816C675.041 75.4238 674.578 77.2637 674.578 79.7012Z" fill="white"/>
<path d="M704.32 87.1191C703.055 88.6074 701.197 89.3516 698.748 89.3516C696.721 89.3516 695.174 88.7656 694.107 87.5938C693.053 86.4102 692.52 84.6641 692.508 82.3555V69.9805H695.76V82.2676C695.76 85.1504 696.932 86.5918 699.275 86.5918C701.76 86.5918 703.412 85.666 704.232 83.8145V69.9805H707.484V89H704.391L704.32 87.1191Z" fill="white"/>
<path d="M720.334 89.3516C717.756 89.3516 715.658 88.5078 714.041 86.8203C712.424 85.1211 711.615 82.8535 711.615 80.0176V79.4199C711.615 77.5332 711.973 75.8516 712.688 74.375C713.414 72.8867 714.422 71.7266 715.711 70.8945C717.012 70.0508 718.418 69.6289 719.93 69.6289C722.402 69.6289 724.324 70.4434 725.695 72.0723C727.066 73.7012 727.752 76.0332 727.752 79.0684V80.4219H714.867C714.914 82.2969 715.459 83.8145 716.502 84.9746C717.557 86.123 718.893 86.6973 720.51 86.6973C721.658 86.6973 722.631 86.4629 723.428 85.9941C724.225 85.5254 724.922 84.9043 725.52 84.1309L727.506 85.6777C725.912 88.127 723.521 89.3516 720.334 89.3516ZM719.93 72.3008C718.617 72.3008 717.516 72.7812 716.625 73.7422C715.734 74.6914 715.184 76.0273 714.973 77.75H724.5V77.5039C724.406 75.8516 723.961 74.5742 723.164 73.6719C722.367 72.7578 721.289 72.3008 719.93 72.3008Z" fill="white"/>
<path d="M28.6699 129.332C28.6699 126.414 29.3613 124.07 30.7441 122.301C32.127 120.52 33.9375 119.629 36.1758 119.629C38.4023 119.629 40.166 120.391 41.4668 121.914V112H44.7188V139H41.7305L41.5723 136.961C40.2715 138.555 38.4609 139.352 36.1406 139.352C33.9375 139.352 32.1387 138.449 30.7441 136.645C29.3613 134.84 28.6699 132.484 28.6699 129.578V129.332ZM31.9219 129.701C31.9219 131.857 32.3672 133.545 33.2578 134.764C34.1484 135.982 35.3789 136.592 36.9492 136.592C39.0117 136.592 40.5176 135.666 41.4668 133.814V125.078C40.4941 123.285 39 122.389 36.9844 122.389C35.3906 122.389 34.1484 123.004 33.2578 124.234C32.3672 125.465 31.9219 127.287 31.9219 129.701Z" fill="white"/>
<path d="M61.5234 139C61.3359 138.625 61.1836 137.957 61.0664 136.996C59.5547 138.566 57.75 139.352 55.6523 139.352C53.7773 139.352 52.2363 138.824 51.0293 137.77C49.834 136.703 49.2363 135.355 49.2363 133.727C49.2363 131.746 49.9863 130.211 51.4863 129.121C52.998 128.02 55.1191 127.469 57.8496 127.469H61.0137V125.975C61.0137 124.838 60.6738 123.936 59.9941 123.268C59.3145 122.588 58.3125 122.248 56.9883 122.248C55.8281 122.248 54.8555 122.541 54.0703 123.127C53.2852 123.713 52.8926 124.422 52.8926 125.254H49.623C49.623 124.305 49.957 123.391 50.625 122.512C51.3047 121.621 52.2188 120.918 53.3672 120.402C54.5273 119.887 55.7988 119.629 57.1816 119.629C59.373 119.629 61.0898 120.18 62.332 121.281C63.5742 122.371 64.2188 123.877 64.2656 125.799V134.553C64.2656 136.299 64.4883 137.688 64.9336 138.719V139H61.5234ZM56.127 136.521C57.1465 136.521 58.1133 136.258 59.0273 135.73C59.9414 135.203 60.6035 134.518 61.0137 133.674V129.771H58.4648C54.4805 129.771 52.4883 130.938 52.4883 133.27C52.4883 134.289 52.8281 135.086 53.5078 135.66C54.1875 136.234 55.0605 136.521 56.127 136.521Z" fill="white"/>
<path d="M72.4395 119.98L72.5449 122.371C73.998 120.543 75.8965 119.629 78.2402 119.629C82.2598 119.629 84.2871 121.896 84.3223 126.432V139H81.0703V126.414C81.0586 125.043 80.7422 124.029 80.1211 123.373C79.5117 122.717 78.5566 122.389 77.2559 122.389C76.2012 122.389 75.2754 122.67 74.4785 123.232C73.6816 123.795 73.0605 124.533 72.6152 125.447V139H69.3633V119.98H72.4395Z" fill="white"/>
<path d="M89.1211 144.098L87.2754 142.832C88.377 141.297 88.9512 139.715 88.998 138.086V135.15H92.1797V137.699C92.1797 138.883 91.8867 140.066 91.3008 141.25C90.7266 142.434 90 143.383 89.1211 144.098Z" fill="white"/>
<path d="M108.756 139H105.504V112H108.756V139Z" fill="white"/>
<path d="M125.719 139C125.531 138.625 125.379 137.957 125.262 136.996C123.75 138.566 121.945 139.352 119.848 139.352C117.973 139.352 116.432 138.824 115.225 137.77C114.029 136.703 113.432 135.355 113.432 133.727C113.432 131.746 114.182 130.211 115.682 129.121C117.193 128.02 119.314 127.469 122.045 127.469H125.209V125.975C125.209 124.838 124.869 123.936 124.189 123.268C123.51 122.588 122.508 122.248 121.184 122.248C120.023 122.248 119.051 122.541 118.266 123.127C117.48 123.713 117.088 124.422 117.088 125.254H113.818C113.818 124.305 114.152 123.391 114.82 122.512C115.5 121.621 116.414 120.918 117.562 120.402C118.723 119.887 119.994 119.629 121.377 119.629C123.568 119.629 125.285 120.18 126.527 121.281C127.77 122.371 128.414 123.877 128.461 125.799V134.553C128.461 136.299 128.684 137.688 129.129 138.719V139H125.719ZM120.322 136.521C121.342 136.521 122.309 136.258 123.223 135.73C124.137 135.203 124.799 134.518 125.209 133.674V129.771H122.66C118.676 129.771 116.684 130.938 116.684 133.27C116.684 134.289 117.023 135.086 117.703 135.66C118.383 136.234 119.256 136.521 120.322 136.521Z" fill="white"/>
<path d="M141.697 129.332C141.697 126.414 142.389 124.07 143.771 122.301C145.154 120.52 146.965 119.629 149.203 119.629C151.43 119.629 153.193 120.391 154.494 121.914V112H157.746V139H154.758L154.6 136.961C153.299 138.555 151.488 139.352 149.168 139.352C146.965 139.352 145.166 138.449 143.771 136.645C142.389 134.84 141.697 132.484 141.697 129.578V129.332ZM144.949 129.701C144.949 131.857 145.395 133.545 146.285 134.764C147.176 135.982 148.406 136.592 149.977 136.592C152.039 136.592 153.545 135.666 154.494 133.814V125.078C153.521 123.285 152.027 122.389 150.012 122.389C148.418 122.389 147.176 123.004 146.285 124.234C145.395 125.465 144.949 127.287 144.949 129.701Z" fill="white"/>
<path d="M161.947 129.314C161.947 127.451 162.311 125.775 163.037 124.287C163.775 122.799 164.795 121.65 166.096 120.842C167.408 120.033 168.902 119.629 170.578 119.629C173.168 119.629 175.26 120.525 176.854 122.318C178.459 124.111 179.262 126.496 179.262 129.473V129.701C179.262 131.553 178.904 133.217 178.189 134.693C177.486 136.158 176.473 137.301 175.148 138.121C173.836 138.941 172.324 139.352 170.613 139.352C168.035 139.352 165.943 138.455 164.338 136.662C162.744 134.869 161.947 132.496 161.947 129.543V129.314ZM165.217 129.701C165.217 131.811 165.703 133.504 166.676 134.781C167.66 136.059 168.973 136.697 170.613 136.697C172.266 136.697 173.578 136.053 174.551 134.764C175.523 133.463 176.01 131.646 176.01 129.314C176.01 127.229 175.512 125.541 174.516 124.252C173.531 122.951 172.219 122.301 170.578 122.301C168.973 122.301 167.678 122.939 166.693 124.217C165.709 125.494 165.217 127.322 165.217 129.701Z" fill="white"/>
<path d="M190.969 136.697C192.129 136.697 193.143 136.346 194.01 135.643C194.877 134.939 195.357 134.061 195.451 133.006H198.527C198.469 134.096 198.094 135.133 197.402 136.117C196.711 137.102 195.785 137.887 194.625 138.473C193.477 139.059 192.258 139.352 190.969 139.352C188.379 139.352 186.316 138.49 184.781 136.768C183.258 135.033 182.496 132.666 182.496 129.666V129.121C182.496 127.27 182.836 125.623 183.516 124.182C184.195 122.74 185.168 121.621 186.434 120.824C187.711 120.027 189.217 119.629 190.951 119.629C193.084 119.629 194.854 120.268 196.26 121.545C197.678 122.822 198.434 124.48 198.527 126.52H195.451C195.357 125.289 194.889 124.281 194.045 123.496C193.213 122.699 192.182 122.301 190.951 122.301C189.299 122.301 188.016 122.898 187.102 124.094C186.199 125.277 185.748 126.994 185.748 129.244V129.859C185.748 132.051 186.199 133.738 187.102 134.922C188.004 136.105 189.293 136.697 190.969 136.697Z" fill="white"/>
<path d="M210.076 139.352C207.498 139.352 205.4 138.508 203.783 136.82C202.166 135.121 201.357 132.854 201.357 130.018V129.42C201.357 127.533 201.715 125.852 202.43 124.375C203.156 122.887 204.164 121.727 205.453 120.895C206.754 120.051 208.16 119.629 209.672 119.629C212.145 119.629 214.066 120.443 215.438 122.072C216.809 123.701 217.494 126.033 217.494 129.068V130.422H204.609C204.656 132.297 205.201 133.814 206.244 134.975C207.299 136.123 208.635 136.697 210.252 136.697C211.4 136.697 212.373 136.463 213.17 135.994C213.967 135.525 214.664 134.904 215.262 134.131L217.248 135.678C215.654 138.127 213.264 139.352 210.076 139.352ZM209.672 122.301C208.359 122.301 207.258 122.781 206.367 123.742C205.477 124.691 204.926 126.027 204.715 127.75H214.242V127.504C214.148 125.852 213.703 124.574 212.906 123.672C212.109 122.758 211.031 122.301 209.672 122.301Z" fill="white"/>
<path d="M224.35 119.98L224.455 122.371C225.908 120.543 227.807 119.629 230.15 119.629C234.17 119.629 236.197 121.896 236.232 126.432V139H232.98V126.414C232.969 125.043 232.652 124.029 232.031 123.373C231.422 122.717 230.467 122.389 229.166 122.389C228.111 122.389 227.186 122.67 226.389 123.232C225.592 123.795 224.971 124.533 224.525 125.447V139H221.273V119.98H224.35Z" fill="white"/>
<path d="M252.879 139C252.691 138.625 252.539 137.957 252.422 136.996C250.91 138.566 249.105 139.352 247.008 139.352C245.133 139.352 243.592 138.824 242.385 137.77C241.189 136.703 240.592 135.355 240.592 133.727C240.592 131.746 241.342 130.211 242.842 129.121C244.354 128.02 246.475 127.469 249.205 127.469H252.369V125.975C252.369 124.838 252.029 123.936 251.35 123.268C250.67 122.588 249.668 122.248 248.344 122.248C247.184 122.248 246.211 122.541 245.426 123.127C244.641 123.713 244.248 124.422 244.248 125.254H240.979C240.979 124.305 241.312 123.391 241.98 122.512C242.66 121.621 243.574 120.918 244.723 120.402C245.883 119.887 247.154 119.629 248.537 119.629C250.729 119.629 252.445 120.18 253.688 121.281C254.93 122.371 255.574 123.877 255.621 125.799V134.553C255.621 136.299 255.844 137.688 256.289 138.719V139H252.879ZM247.482 136.521C248.502 136.521 249.469 136.258 250.383 135.73C251.297 135.203 251.959 134.518 252.369 133.674V129.771H249.82C245.836 129.771 243.844 130.938 243.844 133.27C243.844 134.289 244.184 135.086 244.863 135.66C245.543 136.234 246.416 136.521 247.482 136.521Z" fill="white"/>
<path d="M277.277 136.697C278.438 136.697 279.451 136.346 280.318 135.643C281.186 134.939 281.666 134.061 281.76 133.006H284.836C284.777 134.096 284.402 135.133 283.711 136.117C283.02 137.102 282.094 137.887 280.934 138.473C279.785 139.059 278.566 139.352 277.277 139.352C274.688 139.352 272.625 138.49 271.09 136.768C269.566 135.033 268.805 132.666 268.805 129.666V129.121C268.805 127.27 269.145 125.623 269.824 124.182C270.504 122.74 271.477 121.621 272.742 120.824C274.02 120.027 275.525 119.629 277.26 119.629C279.393 119.629 281.162 120.268 282.568 121.545C283.986 122.822 284.742 124.48 284.836 126.52H281.76C281.666 125.289 281.197 124.281 280.354 123.496C279.521 122.699 278.49 122.301 277.26 122.301C275.607 122.301 274.324 122.898 273.41 124.094C272.508 125.277 272.057 126.994 272.057 129.244V129.859C272.057 132.051 272.508 133.738 273.41 134.922C274.312 136.105 275.602 136.697 277.277 136.697Z" fill="white"/>
<path d="M287.631 129.314C287.631 127.451 287.994 125.775 288.721 124.287C289.459 122.799 290.479 121.65 291.779 120.842C293.092 120.033 294.586 119.629 296.262 119.629C298.852 119.629 300.943 120.525 302.537 122.318C304.143 124.111 304.945 126.496 304.945 129.473V129.701C304.945 131.553 304.588 133.217 303.873 134.693C303.17 136.158 302.156 137.301 300.832 138.121C299.52 138.941 298.008 139.352 296.297 139.352C293.719 139.352 291.627 138.455 290.021 136.662C288.428 134.869 287.631 132.496 287.631 129.543V129.314ZM290.9 129.701C290.9 131.811 291.387 133.504 292.359 134.781C293.344 136.059 294.656 136.697 296.297 136.697C297.949 136.697 299.262 136.053 300.234 134.764C301.207 133.463 301.693 131.646 301.693 129.314C301.693 127.229 301.195 125.541 300.199 124.252C299.215 122.951 297.902 122.301 296.262 122.301C294.656 122.301 293.361 122.939 292.377 124.217C291.393 125.494 290.9 127.322 290.9 129.701Z" fill="white"/>
<path d="M320.098 133.955C320.098 133.076 319.764 132.396 319.096 131.916C318.439 131.424 317.285 131.002 315.633 130.65C313.992 130.299 312.686 129.877 311.713 129.385C310.752 128.893 310.037 128.307 309.568 127.627C309.111 126.947 308.883 126.139 308.883 125.201C308.883 123.643 309.539 122.324 310.852 121.246C312.176 120.168 313.863 119.629 315.914 119.629C318.07 119.629 319.816 120.186 321.152 121.299C322.5 122.412 323.174 123.836 323.174 125.57H319.904C319.904 124.68 319.523 123.912 318.762 123.268C318.012 122.623 317.062 122.301 315.914 122.301C314.73 122.301 313.805 122.559 313.137 123.074C312.469 123.59 312.135 124.264 312.135 125.096C312.135 125.881 312.445 126.473 313.066 126.871C313.688 127.27 314.807 127.65 316.424 128.014C318.053 128.377 319.371 128.811 320.379 129.314C321.387 129.818 322.131 130.428 322.611 131.143C323.104 131.846 323.35 132.707 323.35 133.727C323.35 135.426 322.67 136.791 321.311 137.822C319.951 138.842 318.188 139.352 316.02 139.352C314.496 139.352 313.148 139.082 311.977 138.543C310.805 138.004 309.885 137.254 309.217 136.293C308.561 135.32 308.232 134.271 308.232 133.146H311.484C311.543 134.236 311.977 135.104 312.785 135.748C313.605 136.381 314.684 136.697 316.02 136.697C317.25 136.697 318.234 136.451 318.973 135.959C319.723 135.455 320.098 134.787 320.098 133.955Z" fill="white"/>
<path d="M331.998 115.375V119.98H335.549V122.494H331.998V134.289C331.998 135.051 332.156 135.625 332.473 136.012C332.789 136.387 333.328 136.574 334.09 136.574C334.465 136.574 334.98 136.504 335.637 136.363V139C334.781 139.234 333.949 139.352 333.141 139.352C331.688 139.352 330.592 138.912 329.854 138.033C329.115 137.154 328.746 135.906 328.746 134.289V122.494H325.283V119.98H328.746V115.375H331.998Z" fill="white"/>
<path d="M351.105 139C350.918 138.625 350.766 137.957 350.648 136.996C349.137 138.566 347.332 139.352 345.234 139.352C343.359 139.352 341.818 138.824 340.611 137.77C339.416 136.703 338.818 135.355 338.818 133.727C338.818 131.746 339.568 130.211 341.068 129.121C342.58 128.02 344.701 127.469 347.432 127.469H350.596V125.975C350.596 124.838 350.256 123.936 349.576 123.268C348.896 122.588 347.895 122.248 346.57 122.248C345.41 122.248 344.438 122.541 343.652 123.127C342.867 123.713 342.475 124.422 342.475 125.254H339.205C339.205 124.305 339.539 123.391 340.207 122.512C340.887 121.621 341.801 120.918 342.949 120.402C344.109 119.887 345.381 119.629 346.764 119.629C348.955 119.629 350.672 120.18 351.914 121.281C353.156 122.371 353.801 123.877 353.848 125.799V134.553C353.848 136.299 354.07 137.688 354.516 138.719V139H351.105ZM345.709 136.521C346.729 136.521 347.695 136.258 348.609 135.73C349.523 135.203 350.186 134.518 350.596 133.674V129.771H348.047C344.062 129.771 342.07 130.938 342.07 133.27C342.07 134.289 342.41 135.086 343.09 135.66C343.77 136.234 344.643 136.521 345.709 136.521Z" fill="white"/>
<path d="M368.139 122.898C367.646 122.816 367.113 122.775 366.539 122.775C364.406 122.775 362.959 123.684 362.197 125.5V139H358.945V119.98H362.109L362.162 122.178C363.229 120.479 364.74 119.629 366.697 119.629C367.33 119.629 367.811 119.711 368.139 119.875V122.898Z" fill="white"/>
<path d="M374.678 139H371.408V119.98H374.678V139ZM374.713 112.018H378.65L373.939 117.186H371.32L374.713 112.018Z" fill="white"/>
<path d="M391.781 139C391.594 138.625 391.441 137.957 391.324 136.996C389.812 138.566 388.008 139.352 385.91 139.352C384.035 139.352 382.494 138.824 381.287 137.77C380.092 136.703 379.494 135.355 379.494 133.727C379.494 131.746 380.244 130.211 381.744 129.121C383.256 128.02 385.377 127.469 388.107 127.469H391.271V125.975C391.271 124.838 390.932 123.936 390.252 123.268C389.572 122.588 388.57 122.248 387.246 122.248C386.086 122.248 385.113 122.541 384.328 123.127C383.543 123.713 383.15 124.422 383.15 125.254H379.881C379.881 124.305 380.215 123.391 380.883 122.512C381.562 121.621 382.477 120.918 383.625 120.402C384.785 119.887 386.057 119.629 387.439 119.629C389.631 119.629 391.348 120.18 392.59 121.281C393.832 122.371 394.477 123.877 394.523 125.799V134.553C394.523 136.299 394.746 137.688 395.191 138.719V139H391.781ZM386.385 136.521C387.404 136.521 388.371 136.258 389.285 135.73C390.199 135.203 390.861 134.518 391.271 133.674V129.771H388.723C384.738 129.771 382.746 130.938 382.746 133.27C382.746 134.289 383.086 135.086 383.766 135.66C384.445 136.234 385.318 136.521 386.385 136.521Z" fill="white"/>
<path d="M420.68 127.75C420 128.559 419.186 129.209 418.236 129.701C417.299 130.193 416.268 130.439 415.143 130.439C413.666 130.439 412.377 130.076 411.275 129.35C410.186 128.623 409.342 127.604 408.744 126.291C408.146 124.967 407.848 123.508 407.848 121.914C407.848 120.203 408.17 118.662 408.814 117.291C409.471 115.92 410.396 114.871 411.592 114.145C412.787 113.418 414.182 113.055 415.775 113.055C418.307 113.055 420.299 114.004 421.752 115.902C423.217 117.789 423.949 120.367 423.949 123.637V124.586C423.949 129.566 422.965 133.205 420.996 135.502C419.027 137.787 416.057 138.959 412.084 139.018H411.451V136.275H412.137C414.82 136.229 416.883 135.531 418.324 134.184C419.766 132.824 420.551 130.68 420.68 127.75ZM415.67 127.75C416.76 127.75 417.762 127.416 418.676 126.748C419.602 126.08 420.275 125.254 420.697 124.27V122.969C420.697 120.836 420.234 119.102 419.309 117.766C418.383 116.43 417.211 115.762 415.793 115.762C414.363 115.762 413.215 116.312 412.348 117.414C411.48 118.504 411.047 119.945 411.047 121.738C411.047 123.484 411.463 124.926 412.295 126.062C413.139 127.188 414.264 127.75 415.67 127.75Z" fill="white"/>
<path d="M444.48 128.084C444.48 131.893 443.83 134.723 442.529 136.574C441.229 138.426 439.195 139.352 436.43 139.352C433.699 139.352 431.678 138.449 430.365 136.645C429.053 134.828 428.373 132.121 428.326 128.523V124.182C428.326 120.42 428.977 117.625 430.277 115.797C431.578 113.969 433.617 113.055 436.395 113.055C439.148 113.055 441.176 113.939 442.477 115.709C443.777 117.467 444.445 120.186 444.48 123.865V128.084ZM441.229 123.637C441.229 120.883 440.842 118.879 440.068 117.625C439.295 116.359 438.07 115.727 436.395 115.727C434.73 115.727 433.518 116.354 432.756 117.607C431.994 118.861 431.602 120.789 431.578 123.391V128.594C431.578 131.359 431.977 133.404 432.773 134.729C433.582 136.041 434.801 136.697 436.43 136.697C438.035 136.697 439.225 136.076 439.998 134.834C440.783 133.592 441.193 131.635 441.229 128.963V123.637Z" fill="white"/>
<path d="M465.539 136.697C466.699 136.697 467.713 136.346 468.58 135.643C469.447 134.939 469.928 134.061 470.021 133.006H473.098C473.039 134.096 472.664 135.133 471.973 136.117C471.281 137.102 470.355 137.887 469.195 138.473C468.047 139.059 466.828 139.352 465.539 139.352C462.949 139.352 460.887 138.49 459.352 136.768C457.828 135.033 457.066 132.666 457.066 129.666V129.121C457.066 127.27 457.406 125.623 458.086 124.182C458.766 122.74 459.738 121.621 461.004 120.824C462.281 120.027 463.787 119.629 465.521 119.629C467.654 119.629 469.424 120.268 470.83 121.545C472.248 122.822 473.004 124.48 473.098 126.52H470.021C469.928 125.289 469.459 124.281 468.615 123.496C467.783 122.699 466.752 122.301 465.521 122.301C463.869 122.301 462.586 122.898 461.672 124.094C460.77 125.277 460.318 126.994 460.318 129.244V129.859C460.318 132.051 460.77 133.738 461.672 134.922C462.574 136.105 463.863 136.697 465.539 136.697Z" fill="white"/>
<path d="M484.646 139.352C482.068 139.352 479.971 138.508 478.354 136.82C476.736 135.121 475.928 132.854 475.928 130.018V129.42C475.928 127.533 476.285 125.852 477 124.375C477.727 122.887 478.734 121.727 480.023 120.895C481.324 120.051 482.73 119.629 484.242 119.629C486.715 119.629 488.637 120.443 490.008 122.072C491.379 123.701 492.064 126.033 492.064 129.068V130.422H479.18C479.227 132.297 479.771 133.814 480.814 134.975C481.869 136.123 483.205 136.697 484.822 136.697C485.971 136.697 486.943 136.463 487.74 135.994C488.537 135.525 489.234 134.904 489.832 134.131L491.818 135.678C490.225 138.127 487.834 139.352 484.646 139.352ZM484.242 122.301C482.93 122.301 481.828 122.781 480.938 123.742C480.047 124.691 479.496 126.027 479.285 127.75H488.812V127.504C488.719 125.852 488.273 124.574 487.477 123.672C486.68 122.758 485.602 122.301 484.242 122.301ZM485.824 112H489.762L485.051 117.168H482.432L485.824 112Z" fill="white"/>
<path d="M498.92 119.98L499.025 122.371C500.479 120.543 502.377 119.629 504.721 119.629C508.74 119.629 510.768 121.896 510.803 126.432V139H507.551V126.414C507.539 125.043 507.223 124.029 506.602 123.373C505.992 122.717 505.037 122.389 503.736 122.389C502.682 122.389 501.756 122.67 500.959 123.232C500.162 123.795 499.541 124.533 499.096 125.447V139H495.844V119.98H498.92Z" fill="white"/>
<path d="M520.119 115.375V119.98H523.67V122.494H520.119V134.289C520.119 135.051 520.277 135.625 520.594 136.012C520.91 136.387 521.449 136.574 522.211 136.574C522.586 136.574 523.102 136.504 523.758 136.363V139C522.902 139.234 522.07 139.352 521.262 139.352C519.809 139.352 518.713 138.912 517.975 138.033C517.236 137.154 516.867 135.906 516.867 134.289V122.494H513.404V119.98H516.867V115.375H520.119Z" fill="white"/>
<path d="M531.018 139H527.766V119.98H531.018V139ZM527.502 114.936C527.502 114.408 527.66 113.963 527.977 113.6C528.305 113.236 528.785 113.055 529.418 113.055C530.051 113.055 530.531 113.236 530.859 113.6C531.188 113.963 531.352 114.408 531.352 114.936C531.352 115.463 531.188 115.902 530.859 116.254C530.531 116.605 530.051 116.781 529.418 116.781C528.785 116.781 528.305 116.605 527.977 116.254C527.66 115.902 527.502 115.463 527.502 114.936Z" fill="white"/>
<path d="M539.297 119.98L539.385 122.09C540.779 120.449 542.66 119.629 545.027 119.629C547.688 119.629 549.498 120.648 550.459 122.688C551.092 121.773 551.912 121.035 552.92 120.473C553.939 119.91 555.141 119.629 556.523 119.629C560.695 119.629 562.816 121.838 562.887 126.256V139H559.635V126.449C559.635 125.09 559.324 124.076 558.703 123.408C558.082 122.729 557.039 122.389 555.574 122.389C554.367 122.389 553.365 122.752 552.568 123.479C551.771 124.193 551.309 125.16 551.18 126.379V139H547.91V126.537C547.91 123.771 546.557 122.389 543.85 122.389C541.717 122.389 540.258 123.297 539.473 125.113V139H536.221V119.98H539.297Z" fill="white"/>
<path d="M566.947 129.314C566.947 127.451 567.311 125.775 568.037 124.287C568.775 122.799 569.795 121.65 571.096 120.842C572.408 120.033 573.902 119.629 575.578 119.629C578.168 119.629 580.26 120.525 581.854 122.318C583.459 124.111 584.262 126.496 584.262 129.473V129.701C584.262 131.553 583.904 133.217 583.189 134.693C582.486 136.158 581.473 137.301 580.148 138.121C578.836 138.941 577.324 139.352 575.613 139.352C573.035 139.352 570.943 138.455 569.338 136.662C567.744 134.869 566.947 132.496 566.947 129.543V129.314ZM570.217 129.701C570.217 131.811 570.703 133.504 571.676 134.781C572.66 136.059 573.973 136.697 575.613 136.697C577.266 136.697 578.578 136.053 579.551 134.764C580.523 133.463 581.01 131.646 581.01 129.314C581.01 127.229 580.512 125.541 579.516 124.252C578.531 122.951 577.219 122.301 575.578 122.301C573.973 122.301 572.678 122.939 571.693 124.217C570.709 125.494 570.217 127.322 570.217 129.701Z" fill="white"/>
<path d="M599.414 133.955C599.414 133.076 599.08 132.396 598.412 131.916C597.756 131.424 596.602 131.002 594.949 130.65C593.309 130.299 592.002 129.877 591.029 129.385C590.068 128.893 589.354 128.307 588.885 127.627C588.428 126.947 588.199 126.139 588.199 125.201C588.199 123.643 588.855 122.324 590.168 121.246C591.492 120.168 593.18 119.629 595.23 119.629C597.387 119.629 599.133 120.186 600.469 121.299C601.816 122.412 602.49 123.836 602.49 125.57H599.221C599.221 124.68 598.84 123.912 598.078 123.268C597.328 122.623 596.379 122.301 595.23 122.301C594.047 122.301 593.121 122.559 592.453 123.074C591.785 123.59 591.451 124.264 591.451 125.096C591.451 125.881 591.762 126.473 592.383 126.871C593.004 127.27 594.123 127.65 595.74 128.014C597.369 128.377 598.688 128.811 599.695 129.314C600.703 129.818 601.447 130.428 601.928 131.143C602.42 131.846 602.666 132.707 602.666 133.727C602.666 135.426 601.986 136.791 600.627 137.822C599.268 138.842 597.504 139.352 595.336 139.352C593.812 139.352 592.465 139.082 591.293 138.543C590.121 138.004 589.201 137.254 588.533 136.293C587.877 135.32 587.549 134.271 587.549 133.146H590.801C590.859 134.236 591.293 135.104 592.102 135.748C592.922 136.381 594 136.697 595.336 136.697C596.566 136.697 597.551 136.451 598.289 135.959C599.039 135.455 599.414 134.787 599.414 133.955Z" fill="white"/>
<path d="M618.891 119.98L618.979 122.09C620.373 120.449 622.254 119.629 624.621 119.629C627.281 119.629 629.092 120.648 630.053 122.688C630.686 121.773 631.506 121.035 632.514 120.473C633.533 119.91 634.734 119.629 636.117 119.629C640.289 119.629 642.41 121.838 642.48 126.256V139H639.229V126.449C639.229 125.09 638.918 124.076 638.297 123.408C637.676 122.729 636.633 122.389 635.168 122.389C633.961 122.389 632.959 122.752 632.162 123.479C631.365 124.193 630.902 125.16 630.773 126.379V139H627.504V126.537C627.504 123.771 626.15 122.389 623.443 122.389C621.311 122.389 619.852 123.297 619.066 125.113V139H615.814V119.98H618.891Z" fill="white"/>
<path d="M655.295 139.352C652.717 139.352 650.619 138.508 649.002 136.82C647.385 135.121 646.576 132.854 646.576 130.018V129.42C646.576 127.533 646.934 125.852 647.648 124.375C648.375 122.887 649.383 121.727 650.672 120.895C651.973 120.051 653.379 119.629 654.891 119.629C657.363 119.629 659.285 120.443 660.656 122.072C662.027 123.701 662.713 126.033 662.713 129.068V130.422H649.828C649.875 132.297 650.42 133.814 651.463 134.975C652.518 136.123 653.854 136.697 655.471 136.697C656.619 136.697 657.592 136.463 658.389 135.994C659.186 135.525 659.883 134.904 660.48 134.131L662.467 135.678C660.873 138.127 658.482 139.352 655.295 139.352ZM654.891 122.301C653.578 122.301 652.477 122.781 651.586 123.742C650.695 124.691 650.145 126.027 649.934 127.75H659.461V127.504C659.367 125.852 658.922 124.574 658.125 123.672C657.328 122.758 656.25 122.301 654.891 122.301Z" fill="white"/>
<path d="M669.568 119.98L669.674 122.371C671.127 120.543 673.025 119.629 675.369 119.629C679.389 119.629 681.416 121.896 681.451 126.432V139H678.199V126.414C678.188 125.043 677.871 124.029 677.25 123.373C676.641 122.717 675.686 122.389 674.385 122.389C673.33 122.389 672.404 122.67 671.607 123.232C670.811 123.795 670.189 124.533 669.744 125.447V139H666.492V119.98H669.568Z" fill="white"/>
<path d="M685.494 129.314C685.494 127.451 685.857 125.775 686.584 124.287C687.322 122.799 688.342 121.65 689.643 120.842C690.955 120.033 692.449 119.629 694.125 119.629C696.715 119.629 698.807 120.525 700.4 122.318C702.006 124.111 702.809 126.496 702.809 129.473V129.701C702.809 131.553 702.451 133.217 701.736 134.693C701.033 136.158 700.02 137.301 698.695 138.121C697.383 138.941 695.871 139.352 694.16 139.352C691.582 139.352 689.49 138.455 687.885 136.662C686.291 134.869 685.494 132.496 685.494 129.543V129.314ZM688.764 129.701C688.764 131.811 689.25 133.504 690.223 134.781C691.207 136.059 692.52 136.697 694.16 136.697C695.812 136.697 697.125 136.053 698.098 134.764C699.07 133.463 699.557 131.646 699.557 129.314C699.557 127.229 699.059 125.541 698.062 124.252C697.078 122.951 695.766 122.301 694.125 122.301C692.52 122.301 691.225 122.939 690.24 124.217C689.256 125.494 688.764 127.322 688.764 129.701Z" fill="white"/>
<path d="M717.961 133.955C717.961 133.076 717.627 132.396 716.959 131.916C716.303 131.424 715.148 131.002 713.496 130.65C711.855 130.299 710.549 129.877 709.576 129.385C708.615 128.893 707.9 128.307 707.432 127.627C706.975 126.947 706.746 126.139 706.746 125.201C706.746 123.643 707.402 122.324 708.715 121.246C710.039 120.168 711.727 119.629 713.777 119.629C715.934 119.629 717.68 120.186 719.016 121.299C720.363 122.412 721.037 123.836 721.037 125.57H717.768C717.768 124.68 717.387 123.912 716.625 123.268C715.875 122.623 714.926 122.301 713.777 122.301C712.594 122.301 711.668 122.559 711 123.074C710.332 123.59 709.998 124.264 709.998 125.096C709.998 125.881 710.309 126.473 710.93 126.871C711.551 127.27 712.67 127.65 714.287 128.014C715.916 128.377 717.234 128.811 718.242 129.314C719.25 129.818 719.994 130.428 720.475 131.143C720.967 131.846 721.213 132.707 721.213 133.727C721.213 135.426 720.533 136.791 719.174 137.822C717.814 138.842 716.051 139.352 713.883 139.352C712.359 139.352 711.012 139.082 709.84 138.543C708.668 138.004 707.748 137.254 707.08 136.293C706.424 135.32 706.096 134.271 706.096 133.146H709.348C709.406 134.236 709.84 135.104 710.648 135.748C711.469 136.381 712.547 136.697 713.883 136.697C715.113 136.697 716.098 136.451 716.836 135.959C717.586 135.455 717.961 134.787 717.961 133.955Z" fill="white"/>
<path d="M725.52 137.295C725.52 136.732 725.684 136.264 726.012 135.889C726.352 135.514 726.855 135.326 727.523 135.326C728.191 135.326 728.695 135.514 729.035 135.889C729.387 136.264 729.562 136.732 729.562 137.295C729.562 137.834 729.387 138.285 729.035 138.648C728.695 139.012 728.191 139.193 727.523 139.193C726.855 139.193 726.352 139.012 726.012 138.648C725.684 138.285 725.52 137.834 725.52 137.295Z" fill="white"/>
<path d="M37.3359 177.047C37.3242 178.289 37.1953 179.285 36.9492 180.035C36.7148 180.773 36.3164 181.488 35.7539 182.18C35.1914 182.871 34.3711 183.785 33.293 184.922C32.2148 186.047 31.6113 187.189 31.4824 188.35L31.4473 189C31.4473 190.277 31.7871 191.25 32.4668 191.918C33.1465 192.598 34.125 192.938 35.4023 192.938C36.5742 192.938 37.5234 192.604 38.25 191.936C38.9883 191.279 39.3574 190.418 39.3574 189.352H42.6094C42.5859 191.238 41.9121 192.779 40.5879 193.975C39.2754 195.17 37.5469 195.768 35.4023 195.768C33.1055 195.768 31.3301 195.176 30.0762 193.992C28.8223 192.82 28.1953 191.186 28.1953 189.088C28.1953 187.061 29.1328 185.021 31.0078 182.971L32.9238 180.984C33.6973 180.07 34.084 178.758 34.084 177.047H37.3359ZM37.4766 171.475C37.4766 172.002 37.3125 172.447 36.9844 172.811C36.668 173.174 36.1934 173.355 35.5605 173.355C34.9277 173.355 34.4473 173.174 34.1191 172.811C33.791 172.447 33.627 172.002 33.627 171.475C33.627 170.959 33.791 170.525 34.1191 170.174C34.4473 169.822 34.9277 169.646 35.5605 169.646C36.1934 169.646 36.668 169.822 36.9844 170.174C37.3125 170.525 37.4766 170.959 37.4766 171.475Z" fill="white"/>
<path d="M65.8477 180.879C65.5312 183.586 64.5293 185.678 62.8418 187.154C61.166 188.619 58.9336 189.352 56.1445 189.352C53.1211 189.352 50.6953 188.268 48.8672 186.1C47.0508 183.932 46.1426 181.031 46.1426 177.398V174.938C46.1426 172.559 46.5645 170.467 47.4082 168.662C48.2637 166.857 49.4707 165.475 51.0293 164.514C52.5879 163.541 54.3926 163.055 56.4434 163.055C59.1621 163.055 61.3418 163.816 62.9824 165.34C64.623 166.852 65.5781 168.949 65.8477 171.633H62.4551C62.1621 169.594 61.5234 168.117 60.5391 167.203C59.5664 166.289 58.2012 165.832 56.4434 165.832C54.2871 165.832 52.5938 166.629 51.3633 168.223C50.1445 169.816 49.5352 172.084 49.5352 175.025V177.504C49.5352 180.281 50.1152 182.49 51.2754 184.131C52.4355 185.771 54.0586 186.592 56.1445 186.592C58.0195 186.592 59.4551 186.17 60.4512 185.326C61.459 184.471 62.127 182.988 62.4551 180.879H65.8477Z" fill="white"/>
<path d="M81.7031 187.119C80.4375 188.607 78.5801 189.352 76.1309 189.352C74.1035 189.352 72.5566 188.766 71.4902 187.594C70.4355 186.41 69.9023 184.664 69.8906 182.355V169.98H73.1426V182.268C73.1426 185.15 74.3145 186.592 76.6582 186.592C79.1426 186.592 80.7949 185.666 81.6152 183.814V169.98H84.8672V189H81.7734L81.7031 187.119Z" fill="white"/>
<path d="M101.566 189C101.379 188.625 101.227 187.957 101.109 186.996C99.5977 188.566 97.793 189.352 95.6953 189.352C93.8203 189.352 92.2793 188.824 91.0723 187.77C89.877 186.703 89.2793 185.355 89.2793 183.727C89.2793 181.746 90.0293 180.211 91.5293 179.121C93.041 178.02 95.1621 177.469 97.8926 177.469H101.057V175.975C101.057 174.838 100.717 173.936 100.037 173.268C99.3574 172.588 98.3555 172.248 97.0312 172.248C95.8711 172.248 94.8984 172.541 94.1133 173.127C93.3281 173.713 92.9355 174.422 92.9355 175.254H89.666C89.666 174.305 90 173.391 90.668 172.512C91.3477 171.621 92.2617 170.918 93.4102 170.402C94.5703 169.887 95.8418 169.629 97.2246 169.629C99.416 169.629 101.133 170.18 102.375 171.281C103.617 172.371 104.262 173.877 104.309 175.799V184.553C104.309 186.299 104.531 187.688 104.977 188.719V189H101.566ZM96.1699 186.521C97.1895 186.521 98.1562 186.258 99.0703 185.73C99.9844 185.203 100.646 184.518 101.057 183.674V179.771H98.5078C94.5234 179.771 92.5312 180.938 92.5312 183.27C92.5312 184.289 92.8711 185.086 93.5508 185.66C94.2305 186.234 95.1035 186.521 96.1699 186.521ZM99.1758 162H103.113L98.4023 167.168H95.7832L99.1758 162Z" fill="white"/>
<path d="M112.482 169.98L112.588 172.371C114.041 170.543 115.939 169.629 118.283 169.629C122.303 169.629 124.33 171.896 124.365 176.432V189H121.113V176.414C121.102 175.043 120.785 174.029 120.164 173.373C119.555 172.717 118.6 172.389 117.299 172.389C116.244 172.389 115.318 172.67 114.521 173.232C113.725 173.795 113.104 174.533 112.658 175.447V189H109.406V169.98H112.482Z" fill="white"/>
<path d="M133.682 165.375V169.98H137.232V172.494H133.682V184.289C133.682 185.051 133.84 185.625 134.156 186.012C134.473 186.387 135.012 186.574 135.773 186.574C136.148 186.574 136.664 186.504 137.32 186.363V189C136.465 189.234 135.633 189.352 134.824 189.352C133.371 189.352 132.275 188.912 131.537 188.033C130.799 187.154 130.43 185.906 130.43 184.289V172.494H126.967V169.98H130.43V165.375H133.682Z" fill="white"/>
<path d="M139.834 179.314C139.834 177.451 140.197 175.775 140.924 174.287C141.662 172.799 142.682 171.65 143.982 170.842C145.295 170.033 146.789 169.629 148.465 169.629C151.055 169.629 153.146 170.525 154.74 172.318C156.346 174.111 157.148 176.496 157.148 179.473V179.701C157.148 181.553 156.791 183.217 156.076 184.693C155.373 186.158 154.359 187.301 153.035 188.121C151.723 188.941 150.211 189.352 148.5 189.352C145.922 189.352 143.83 188.455 142.225 186.662C140.631 184.869 139.834 182.496 139.834 179.543V179.314ZM143.104 179.701C143.104 181.811 143.59 183.504 144.562 184.781C145.547 186.059 146.859 186.697 148.5 186.697C150.152 186.697 151.465 186.053 152.438 184.764C153.41 183.463 153.896 181.646 153.896 179.314C153.896 177.229 153.398 175.541 152.402 174.252C151.418 172.951 150.105 172.301 148.465 172.301C146.859 172.301 145.564 172.939 144.58 174.217C143.596 175.494 143.104 177.322 143.104 179.701Z" fill="white"/>
<path d="M172.301 183.955C172.301 183.076 171.967 182.396 171.299 181.916C170.643 181.424 169.488 181.002 167.836 180.65C166.195 180.299 164.889 179.877 163.916 179.385C162.955 178.893 162.24 178.307 161.771 177.627C161.314 176.947 161.086 176.139 161.086 175.201C161.086 173.643 161.742 172.324 163.055 171.246C164.379 170.168 166.066 169.629 168.117 169.629C170.273 169.629 172.02 170.186 173.355 171.299C174.703 172.412 175.377 173.836 175.377 175.57H172.107C172.107 174.68 171.727 173.912 170.965 173.268C170.215 172.623 169.266 172.301 168.117 172.301C166.934 172.301 166.008 172.559 165.34 173.074C164.672 173.59 164.338 174.264 164.338 175.096C164.338 175.881 164.648 176.473 165.27 176.871C165.891 177.27 167.01 177.65 168.627 178.014C170.256 178.377 171.574 178.811 172.582 179.314C173.59 179.818 174.334 180.428 174.814 181.143C175.307 181.846 175.553 182.707 175.553 183.727C175.553 185.426 174.873 186.791 173.514 187.822C172.154 188.842 170.391 189.352 168.223 189.352C166.699 189.352 165.352 189.082 164.18 188.543C163.008 188.004 162.088 187.254 161.42 186.293C160.764 185.32 160.436 184.271 160.436 183.146H163.688C163.746 184.236 164.18 185.104 164.988 185.748C165.809 186.381 166.887 186.697 168.223 186.697C169.453 186.697 170.438 186.451 171.176 185.959C171.926 185.455 172.301 184.787 172.301 183.955Z" fill="white"/>
<path d="M196.348 186.697C197.508 186.697 198.521 186.346 199.389 185.643C200.256 184.939 200.736 184.061 200.83 183.006H203.906C203.848 184.096 203.473 185.133 202.781 186.117C202.09 187.102 201.164 187.887 200.004 188.473C198.855 189.059 197.637 189.352 196.348 189.352C193.758 189.352 191.695 188.49 190.16 186.768C188.637 185.033 187.875 182.666 187.875 179.666V179.121C187.875 177.27 188.215 175.623 188.895 174.182C189.574 172.74 190.547 171.621 191.812 170.824C193.09 170.027 194.596 169.629 196.33 169.629C198.463 169.629 200.232 170.268 201.639 171.545C203.057 172.822 203.812 174.48 203.906 176.52H200.83C200.736 175.289 200.268 174.281 199.424 173.496C198.592 172.699 197.561 172.301 196.33 172.301C194.678 172.301 193.395 172.898 192.48 174.094C191.578 175.277 191.127 176.994 191.127 179.244V179.859C191.127 182.051 191.578 183.738 192.48 184.922C193.383 186.105 194.672 186.697 196.348 186.697Z" fill="white"/>
<path d="M215.455 189.352C212.877 189.352 210.779 188.508 209.162 186.82C207.545 185.121 206.736 182.854 206.736 180.018V179.42C206.736 177.533 207.094 175.852 207.809 174.375C208.535 172.887 209.543 171.727 210.832 170.895C212.133 170.051 213.539 169.629 215.051 169.629C217.523 169.629 219.445 170.443 220.816 172.072C222.188 173.701 222.873 176.033 222.873 179.068V180.422H209.988C210.035 182.297 210.58 183.814 211.623 184.975C212.678 186.123 214.014 186.697 215.631 186.697C216.779 186.697 217.752 186.463 218.549 185.994C219.346 185.525 220.043 184.904 220.641 184.131L222.627 185.678C221.033 188.127 218.643 189.352 215.455 189.352ZM215.051 172.301C213.738 172.301 212.637 172.781 211.746 173.742C210.855 174.691 210.305 176.027 210.094 177.75H219.621V177.504C219.527 175.852 219.082 174.574 218.285 173.672C217.488 172.758 216.41 172.301 215.051 172.301ZM216.633 162H220.57L215.859 167.168H213.24L216.633 162Z" fill="white"/>
<path d="M229.729 169.98L229.834 172.371C231.287 170.543 233.186 169.629 235.529 169.629C239.549 169.629 241.576 171.896 241.611 176.432V189H238.359V176.414C238.348 175.043 238.031 174.029 237.41 173.373C236.801 172.717 235.846 172.389 234.545 172.389C233.49 172.389 232.564 172.67 231.768 173.232C230.971 173.795 230.35 174.533 229.904 175.447V189H226.652V169.98H229.729Z" fill="white"/>
<path d="M250.928 165.375V169.98H254.479V172.494H250.928V184.289C250.928 185.051 251.086 185.625 251.402 186.012C251.719 186.387 252.258 186.574 253.02 186.574C253.395 186.574 253.91 186.504 254.566 186.363V189C253.711 189.234 252.879 189.352 252.07 189.352C250.617 189.352 249.521 188.912 248.783 188.033C248.045 187.154 247.676 185.906 247.676 184.289V172.494H244.213V169.98H247.676V165.375H250.928Z" fill="white"/>
<path d="M261.826 189H258.574V169.98H261.826V189ZM258.311 164.936C258.311 164.408 258.469 163.963 258.785 163.6C259.113 163.236 259.594 163.055 260.227 163.055C260.859 163.055 261.34 163.236 261.668 163.6C261.996 163.963 262.16 164.408 262.16 164.936C262.16 165.463 261.996 165.902 261.668 166.254C261.34 166.605 260.859 166.781 260.227 166.781C259.594 166.781 259.113 166.605 258.785 166.254C258.469 165.902 258.311 165.463 258.311 164.936Z" fill="white"/>
<path d="M270.105 169.98L270.193 172.09C271.588 170.449 273.469 169.629 275.836 169.629C278.496 169.629 280.307 170.648 281.268 172.688C281.9 171.773 282.721 171.035 283.729 170.473C284.748 169.91 285.949 169.629 287.332 169.629C291.504 169.629 293.625 171.838 293.695 176.256V189H290.443V176.449C290.443 175.09 290.133 174.076 289.512 173.408C288.891 172.729 287.848 172.389 286.383 172.389C285.176 172.389 284.174 172.752 283.377 173.479C282.58 174.193 282.117 175.16 281.988 176.379V189H278.719V176.537C278.719 173.771 277.365 172.389 274.658 172.389C272.525 172.389 271.066 173.297 270.281 175.113V189H267.029V169.98H270.105Z" fill="white"/>
<path d="M297.756 179.314C297.756 177.451 298.119 175.775 298.846 174.287C299.584 172.799 300.604 171.65 301.904 170.842C303.217 170.033 304.711 169.629 306.387 169.629C308.977 169.629 311.068 170.525 312.662 172.318C314.268 174.111 315.07 176.496 315.07 179.473V179.701C315.07 181.553 314.713 183.217 313.998 184.693C313.295 186.158 312.281 187.301 310.957 188.121C309.645 188.941 308.133 189.352 306.422 189.352C303.844 189.352 301.752 188.455 300.146 186.662C298.553 184.869 297.756 182.496 297.756 179.543V179.314ZM301.025 179.701C301.025 181.811 301.512 183.504 302.484 184.781C303.469 186.059 304.781 186.697 306.422 186.697C308.074 186.697 309.387 186.053 310.359 184.764C311.332 183.463 311.818 181.646 311.818 179.314C311.818 177.229 311.32 175.541 310.324 174.252C309.34 172.951 308.027 172.301 306.387 172.301C304.781 172.301 303.486 172.939 302.502 174.217C301.518 175.494 301.025 177.322 301.025 179.701Z" fill="white"/>
<path d="M330.223 183.955C330.223 183.076 329.889 182.396 329.221 181.916C328.564 181.424 327.41 181.002 325.758 180.65C324.117 180.299 322.811 179.877 321.838 179.385C320.877 178.893 320.162 178.307 319.693 177.627C319.236 176.947 319.008 176.139 319.008 175.201C319.008 173.643 319.664 172.324 320.977 171.246C322.301 170.168 323.988 169.629 326.039 169.629C328.195 169.629 329.941 170.186 331.277 171.299C332.625 172.412 333.299 173.836 333.299 175.57H330.029C330.029 174.68 329.648 173.912 328.887 173.268C328.137 172.623 327.188 172.301 326.039 172.301C324.855 172.301 323.93 172.559 323.262 173.074C322.594 173.59 322.26 174.264 322.26 175.096C322.26 175.881 322.57 176.473 323.191 176.871C323.812 177.27 324.932 177.65 326.549 178.014C328.178 178.377 329.496 178.811 330.504 179.314C331.512 179.818 332.256 180.428 332.736 181.143C333.229 181.846 333.475 182.707 333.475 183.727C333.475 185.426 332.795 186.791 331.436 187.822C330.076 188.842 328.312 189.352 326.145 189.352C324.621 189.352 323.273 189.082 322.102 188.543C320.93 188.004 320.01 187.254 319.342 186.293C318.686 185.32 318.357 184.271 318.357 183.146H321.609C321.668 184.236 322.102 185.104 322.91 185.748C323.73 186.381 324.809 186.697 326.145 186.697C327.375 186.697 328.359 186.451 329.098 185.959C329.848 185.455 330.223 184.787 330.223 183.955Z" fill="white"/>
<path d="M354.27 186.697C355.43 186.697 356.443 186.346 357.311 185.643C358.178 184.939 358.658 184.061 358.752 183.006H361.828C361.77 184.096 361.395 185.133 360.703 186.117C360.012 187.102 359.086 187.887 357.926 188.473C356.777 189.059 355.559 189.352 354.27 189.352C351.68 189.352 349.617 188.49 348.082 186.768C346.559 185.033 345.797 182.666 345.797 179.666V179.121C345.797 177.27 346.137 175.623 346.816 174.182C347.496 172.74 348.469 171.621 349.734 170.824C351.012 170.027 352.518 169.629 354.252 169.629C356.385 169.629 358.154 170.268 359.561 171.545C360.979 172.822 361.734 174.48 361.828 176.52H358.752C358.658 175.289 358.189 174.281 357.346 173.496C356.514 172.699 355.482 172.301 354.252 172.301C352.6 172.301 351.316 172.898 350.402 174.094C349.5 175.277 349.049 176.994 349.049 179.244V179.859C349.049 182.051 349.5 183.738 350.402 184.922C351.305 186.105 352.594 186.697 354.27 186.697Z" fill="white"/>
<path d="M377.227 187.119C375.961 188.607 374.104 189.352 371.654 189.352C369.627 189.352 368.08 188.766 367.014 187.594C365.959 186.41 365.426 184.664 365.414 182.355V169.98H368.666V182.268C368.666 185.15 369.838 186.592 372.182 186.592C374.666 186.592 376.318 185.666 377.139 183.814V169.98H380.391V189H377.297L377.227 187.119Z" fill="white"/>
<path d="M393.24 189.352C390.662 189.352 388.564 188.508 386.947 186.82C385.33 185.121 384.521 182.854 384.521 180.018V179.42C384.521 177.533 384.879 175.852 385.594 174.375C386.32 172.887 387.328 171.727 388.617 170.895C389.918 170.051 391.324 169.629 392.836 169.629C395.309 169.629 397.23 170.443 398.602 172.072C399.973 173.701 400.658 176.033 400.658 179.068V180.422H387.773C387.82 182.297 388.365 183.814 389.408 184.975C390.463 186.123 391.799 186.697 393.416 186.697C394.564 186.697 395.537 186.463 396.334 185.994C397.131 185.525 397.828 184.904 398.426 184.131L400.412 185.678C398.818 188.127 396.428 189.352 393.24 189.352ZM392.836 172.301C391.523 172.301 390.422 172.781 389.531 173.742C388.641 174.691 388.09 176.027 387.879 177.75H397.406V177.504C397.312 175.852 396.867 174.574 396.07 173.672C395.273 172.758 394.195 172.301 392.836 172.301Z" fill="white"/>
<path d="M415.512 183.955C415.512 183.076 415.178 182.396 414.51 181.916C413.854 181.424 412.699 181.002 411.047 180.65C409.406 180.299 408.1 179.877 407.127 179.385C406.166 178.893 405.451 178.307 404.982 177.627C404.525 176.947 404.297 176.139 404.297 175.201C404.297 173.643 404.953 172.324 406.266 171.246C407.59 170.168 409.277 169.629 411.328 169.629C413.484 169.629 415.23 170.186 416.566 171.299C417.914 172.412 418.588 173.836 418.588 175.57H415.318C415.318 174.68 414.938 173.912 414.176 173.268C413.426 172.623 412.477 172.301 411.328 172.301C410.145 172.301 409.219 172.559 408.551 173.074C407.883 173.59 407.549 174.264 407.549 175.096C407.549 175.881 407.859 176.473 408.48 176.871C409.102 177.27 410.221 177.65 411.838 178.014C413.467 178.377 414.785 178.811 415.793 179.314C416.801 179.818 417.545 180.428 418.025 181.143C418.518 181.846 418.764 182.707 418.764 183.727C418.764 185.426 418.084 186.791 416.725 187.822C415.365 188.842 413.602 189.352 411.434 189.352C409.91 189.352 408.562 189.082 407.391 188.543C406.219 188.004 405.299 187.254 404.631 186.293C403.975 185.32 403.646 184.271 403.646 183.146H406.898C406.957 184.236 407.391 185.104 408.199 185.748C409.02 186.381 410.098 186.697 411.434 186.697C412.664 186.697 413.648 186.451 414.387 185.959C415.137 185.455 415.512 184.787 415.512 183.955Z" fill="white"/>
<path d="M427.412 165.375V169.98H430.963V172.494H427.412V184.289C427.412 185.051 427.57 185.625 427.887 186.012C428.203 186.387 428.742 186.574 429.504 186.574C429.879 186.574 430.395 186.504 431.051 186.363V189C430.195 189.234 429.363 189.352 428.555 189.352C427.102 189.352 426.006 188.912 425.268 188.033C424.529 187.154 424.16 185.906 424.16 184.289V172.494H420.697V169.98H424.16V165.375H427.412Z" fill="white"/>
<path d="M446.52 189C446.332 188.625 446.18 187.957 446.062 186.996C444.551 188.566 442.746 189.352 440.648 189.352C438.773 189.352 437.232 188.824 436.025 187.77C434.83 186.703 434.232 185.355 434.232 183.727C434.232 181.746 434.982 180.211 436.482 179.121C437.994 178.02 440.115 177.469 442.846 177.469H446.01V175.975C446.01 174.838 445.67 173.936 444.99 173.268C444.311 172.588 443.309 172.248 441.984 172.248C440.824 172.248 439.852 172.541 439.066 173.127C438.281 173.713 437.889 174.422 437.889 175.254H434.619C434.619 174.305 434.953 173.391 435.621 172.512C436.301 171.621 437.215 170.918 438.363 170.402C439.523 169.887 440.795 169.629 442.178 169.629C444.369 169.629 446.086 170.18 447.328 171.281C448.57 172.371 449.215 173.877 449.262 175.799V184.553C449.262 186.299 449.484 187.688 449.93 188.719V189H446.52ZM441.123 186.521C442.143 186.521 443.109 186.258 444.023 185.73C444.938 185.203 445.6 184.518 446.01 183.674V179.771H443.461C439.477 179.771 437.484 180.938 437.484 183.27C437.484 184.289 437.824 185.086 438.504 185.66C439.184 186.234 440.057 186.521 441.123 186.521Z" fill="white"/>
<path d="M470.918 186.697C472.078 186.697 473.092 186.346 473.959 185.643C474.826 184.939 475.307 184.061 475.4 183.006H478.477C478.418 184.096 478.043 185.133 477.352 186.117C476.66 187.102 475.734 187.887 474.574 188.473C473.426 189.059 472.207 189.352 470.918 189.352C468.328 189.352 466.266 188.49 464.73 186.768C463.207 185.033 462.445 182.666 462.445 179.666V179.121C462.445 177.27 462.785 175.623 463.465 174.182C464.145 172.74 465.117 171.621 466.383 170.824C467.66 170.027 469.166 169.629 470.9 169.629C473.033 169.629 474.803 170.268 476.209 171.545C477.627 172.822 478.383 174.48 478.477 176.52H475.4C475.307 175.289 474.838 174.281 473.994 173.496C473.162 172.699 472.131 172.301 470.9 172.301C469.248 172.301 467.965 172.898 467.051 174.094C466.148 175.277 465.697 176.994 465.697 179.244V179.859C465.697 182.051 466.148 183.738 467.051 184.922C467.953 186.105 469.242 186.697 470.918 186.697Z" fill="white"/>
<path d="M493.875 189C493.688 188.625 493.535 187.957 493.418 186.996C491.906 188.566 490.102 189.352 488.004 189.352C486.129 189.352 484.588 188.824 483.381 187.77C482.186 186.703 481.588 185.355 481.588 183.727C481.588 181.746 482.338 180.211 483.838 179.121C485.35 178.02 487.471 177.469 490.201 177.469H493.365V175.975C493.365 174.838 493.025 173.936 492.346 173.268C491.666 172.588 490.664 172.248 489.34 172.248C488.18 172.248 487.207 172.541 486.422 173.127C485.637 173.713 485.244 174.422 485.244 175.254H481.975C481.975 174.305 482.309 173.391 482.977 172.512C483.656 171.621 484.57 170.918 485.719 170.402C486.879 169.887 488.15 169.629 489.533 169.629C491.725 169.629 493.441 170.18 494.684 171.281C495.926 172.371 496.57 173.877 496.617 175.799V184.553C496.617 186.299 496.84 187.688 497.285 188.719V189H493.875ZM488.479 186.521C489.498 186.521 490.465 186.258 491.379 185.73C492.293 185.203 492.955 184.518 493.365 183.674V179.771H490.816C486.832 179.771 484.84 180.938 484.84 183.27C484.84 184.289 485.18 185.086 485.859 185.66C486.539 186.234 487.412 186.521 488.479 186.521Z" fill="white"/>
<path d="M500.924 179.332C500.924 176.414 501.615 174.07 502.998 172.301C504.381 170.52 506.191 169.629 508.43 169.629C510.656 169.629 512.42 170.391 513.721 171.914V162H516.973V189H513.984L513.826 186.961C512.525 188.555 510.715 189.352 508.395 189.352C506.191 189.352 504.393 188.449 502.998 186.645C501.615 184.84 500.924 182.484 500.924 179.578V179.332ZM504.176 179.701C504.176 181.857 504.621 183.545 505.512 184.764C506.402 185.982 507.633 186.592 509.203 186.592C511.266 186.592 512.771 185.666 513.721 183.814V175.078C512.748 173.285 511.254 172.389 509.238 172.389C507.645 172.389 506.402 173.004 505.512 174.234C504.621 175.465 504.176 177.287 504.176 179.701Z" fill="white"/>
<path d="M533.777 189C533.59 188.625 533.438 187.957 533.32 186.996C531.809 188.566 530.004 189.352 527.906 189.352C526.031 189.352 524.49 188.824 523.283 187.77C522.088 186.703 521.49 185.355 521.49 183.727C521.49 181.746 522.24 180.211 523.74 179.121C525.252 178.02 527.373 177.469 530.104 177.469H533.268V175.975C533.268 174.838 532.928 173.936 532.248 173.268C531.568 172.588 530.566 172.248 529.242 172.248C528.082 172.248 527.109 172.541 526.324 173.127C525.539 173.713 525.146 174.422 525.146 175.254H521.877C521.877 174.305 522.211 173.391 522.879 172.512C523.559 171.621 524.473 170.918 525.621 170.402C526.781 169.887 528.053 169.629 529.436 169.629C531.627 169.629 533.344 170.18 534.586 171.281C535.828 172.371 536.473 173.877 536.52 175.799V184.553C536.52 186.299 536.742 187.688 537.188 188.719V189H533.777ZM528.381 186.521C529.4 186.521 530.367 186.258 531.281 185.73C532.195 185.203 532.857 184.518 533.268 183.674V179.771H530.719C526.734 179.771 524.742 180.938 524.742 183.27C524.742 184.289 525.082 185.086 525.762 185.66C526.441 186.234 527.314 186.521 528.381 186.521Z" fill="white"/>
<path d="M553.623 169.98L553.729 172.371C555.182 170.543 557.08 169.629 559.424 169.629C563.443 169.629 565.471 171.896 565.506 176.432V189H562.254V176.414C562.242 175.043 561.926 174.029 561.305 173.373C560.695 172.717 559.74 172.389 558.439 172.389C557.385 172.389 556.459 172.67 555.662 173.232C554.865 173.795 554.244 174.533 553.799 175.447V189H550.547V169.98H553.623Z" fill="white"/>
<path d="M573.943 189H570.674V169.98H573.943V189ZM573.979 162.018H577.916L573.205 167.186H570.586L573.979 162.018Z" fill="white"/>
<path d="M590.379 183.955C590.379 183.076 590.045 182.396 589.377 181.916C588.721 181.424 587.566 181.002 585.914 180.65C584.273 180.299 582.967 179.877 581.994 179.385C581.033 178.893 580.318 178.307 579.85 177.627C579.393 176.947 579.164 176.139 579.164 175.201C579.164 173.643 579.82 172.324 581.133 171.246C582.457 170.168 584.145 169.629 586.195 169.629C588.352 169.629 590.098 170.186 591.434 171.299C592.781 172.412 593.455 173.836 593.455 175.57H590.186C590.186 174.68 589.805 173.912 589.043 173.268C588.293 172.623 587.344 172.301 586.195 172.301C585.012 172.301 584.086 172.559 583.418 173.074C582.75 173.59 582.416 174.264 582.416 175.096C582.416 175.881 582.727 176.473 583.348 176.871C583.969 177.27 585.088 177.65 586.705 178.014C588.334 178.377 589.652 178.811 590.66 179.314C591.668 179.818 592.412 180.428 592.893 181.143C593.385 181.846 593.631 182.707 593.631 183.727C593.631 185.426 592.951 186.791 591.592 187.822C590.232 188.842 588.469 189.352 586.301 189.352C584.777 189.352 583.43 189.082 582.258 188.543C581.086 188.004 580.166 187.254 579.498 186.293C578.842 185.32 578.514 184.271 578.514 183.146H581.766C581.824 184.236 582.258 185.104 583.066 185.748C583.887 186.381 584.965 186.697 586.301 186.697C587.531 186.697 588.516 186.451 589.254 185.959C590.004 185.455 590.379 184.787 590.379 183.955Z" fill="white"/>
<path d="M613.934 179.701C613.934 182.596 613.271 184.928 611.947 186.697C610.623 188.467 608.83 189.352 606.568 189.352C604.26 189.352 602.443 188.619 601.119 187.154V196.312H597.867V169.98H600.838L600.996 172.09C602.32 170.449 604.16 169.629 606.516 169.629C608.801 169.629 610.605 170.49 611.93 172.213C613.266 173.936 613.934 176.332 613.934 179.402V179.701ZM610.682 179.332C610.682 177.188 610.225 175.494 609.311 174.252C608.396 173.01 607.143 172.389 605.549 172.389C603.58 172.389 602.104 173.262 601.119 175.008V184.096C602.092 185.83 603.58 186.697 605.584 186.697C607.143 186.697 608.379 186.082 609.293 184.852C610.219 183.609 610.682 181.77 610.682 179.332Z" fill="white"/>
<path d="M625.975 189.352C623.396 189.352 621.299 188.508 619.682 186.82C618.064 185.121 617.256 182.854 617.256 180.018V179.42C617.256 177.533 617.613 175.852 618.328 174.375C619.055 172.887 620.062 171.727 621.352 170.895C622.652 170.051 624.059 169.629 625.57 169.629C628.043 169.629 629.965 170.443 631.336 172.072C632.707 173.701 633.393 176.033 633.393 179.068V180.422H620.508C620.555 182.297 621.1 183.814 622.143 184.975C623.197 186.123 624.533 186.697 626.15 186.697C627.299 186.697 628.271 186.463 629.068 185.994C629.865 185.525 630.562 184.904 631.16 184.131L633.146 185.678C631.553 188.127 629.162 189.352 625.975 189.352ZM625.57 172.301C624.258 172.301 623.156 172.781 622.266 173.742C621.375 174.691 620.824 176.027 620.613 177.75H630.141V177.504C630.047 175.852 629.602 174.574 628.805 173.672C628.008 172.758 626.93 172.301 625.57 172.301Z" fill="white"/>
<path d="M646.365 172.898C645.873 172.816 645.34 172.775 644.766 172.775C642.633 172.775 641.186 173.684 640.424 175.5V189H637.172V169.98H640.336L640.389 172.178C641.455 170.479 642.967 169.629 644.924 169.629C645.557 169.629 646.037 169.711 646.365 169.875V172.898Z" fill="white"/>
<path d="M648.158 179.314C648.158 177.451 648.521 175.775 649.248 174.287C649.986 172.799 651.006 171.65 652.307 170.842C653.619 170.033 655.113 169.629 656.789 169.629C659.379 169.629 661.471 170.525 663.064 172.318C664.67 174.111 665.473 176.496 665.473 179.473V179.701C665.473 181.553 665.115 183.217 664.4 184.693C663.697 186.158 662.684 187.301 661.359 188.121C660.047 188.941 658.535 189.352 656.824 189.352C654.246 189.352 652.154 188.455 650.549 186.662C648.955 184.869 648.158 182.496 648.158 179.543V179.314ZM651.428 179.701C651.428 181.811 651.914 183.504 652.887 184.781C653.871 186.059 655.184 186.697 656.824 186.697C658.477 186.697 659.789 186.053 660.762 184.764C661.734 183.463 662.221 181.646 662.221 179.314C662.221 177.229 661.723 175.541 660.727 174.252C659.742 172.951 658.43 172.301 656.789 172.301C655.184 172.301 653.889 172.939 652.904 174.217C651.92 175.494 651.428 177.322 651.428 179.701Z" fill="white"/>
<path d="M673.365 181.793C673.389 180.398 673.547 179.297 673.84 178.488C674.133 177.68 674.73 176.783 675.633 175.799L677.936 173.426C678.92 172.312 679.412 171.117 679.412 169.84C679.412 168.609 679.09 167.648 678.445 166.957C677.801 166.254 676.863 165.902 675.633 165.902C674.438 165.902 673.477 166.219 672.75 166.852C672.023 167.484 671.66 168.334 671.66 169.4H668.408C668.432 167.502 669.105 165.973 670.43 164.812C671.766 163.641 673.5 163.055 675.633 163.055C677.848 163.055 679.57 163.652 680.801 164.848C682.043 166.031 682.664 167.66 682.664 169.734C682.664 171.785 681.715 173.807 679.816 175.799L677.9 177.697C677.045 178.646 676.617 180.012 676.617 181.793H673.365ZM673.225 187.365C673.225 186.838 673.383 186.398 673.699 186.047C674.027 185.684 674.508 185.502 675.141 185.502C675.773 185.502 676.254 185.684 676.582 186.047C676.91 186.398 677.074 186.838 677.074 187.365C677.074 187.893 676.91 188.332 676.582 188.684C676.254 189.023 675.773 189.193 675.141 189.193C674.508 189.193 674.027 189.023 673.699 188.684C673.383 188.332 673.225 187.893 673.225 187.365Z" fill="white"/>
</g>
</g>
</svg>
