<svg viewBox="0 0 999 411" fill="none" xmlns="http://www.w3.org/2000/svg">
<g id="0120139">
<g id="claves01">
<path id="Rectangle 4" d="M57 221H273.745L307 261L273.745 301H57V221Z" fill="#E8A1EE" fill-opacity="0.1"/>
<path id="Rectangle 4 (Stroke)" fill-rule="evenodd" clip-rule="evenodd" d="M272.338 224H60V298H272.338L303.099 261L272.338 224ZM273.745 221H57V301H273.745L307 261L273.745 221Z" fill="#E8A1EE"/>
<path id="Rectangle 5" d="M61 331H277.745L311 371L277.745 411H61V331Z" fill="#E8A1EE" fill-opacity="0.1"/>
<path id="Rectangle 5 (Stroke)" fill-rule="evenodd" clip-rule="evenodd" d="M276.338 334H64V408H276.338L307.099 371L276.338 334ZM277.745 331H61V411H277.745L311 371L277.745 331Z" fill="#E8A1EE"/>
<path id="Rectangle 6" d="M397 218H613.745L647 258L613.745 298H397V218Z" fill="#E8A1EE" fill-opacity="0.1"/>
<path id="Rectangle 6 (Stroke)" fill-rule="evenodd" clip-rule="evenodd" d="M612.338 221H400V295H612.338L643.099 258L612.338 221ZM613.745 218H397V298H613.745L647 258L613.745 218Z" fill="#E8A1EE"/>
<path id="Rectangle 7" d="M400 328H616.745L650 368L616.745 408H400V328Z" fill="#E8A1EE" fill-opacity="0.1"/>
<path id="Rectangle 7 (Stroke)" fill-rule="evenodd" clip-rule="evenodd" d="M615.338 331H403V405H615.338L646.099 368L615.338 331ZM616.745 328H400V408H616.745L650 368L616.745 328Z" fill="#E8A1EE"/>
<path id="Rectangle 8" d="M743 277H959.745L993 317L959.745 357H743V277Z" fill="#E8A1EE" fill-opacity="0.1"/>
<path id="Rectangle 8 (Stroke)" fill-rule="evenodd" clip-rule="evenodd" d="M958.338 280H746V354H958.338L989.099 317L958.338 280ZM959.745 277H743V357H959.745L993 317L959.745 277Z" fill="#E8A1EE"/>
<path id="Ellipse 1" d="M98 261C98 283.091 80.0914 301 58 301C35.9086 301 18 283.091 18 261C18 238.909 35.9086 221 58 221C80.0914 221 98 238.909 98 261Z" fill="#E8A1EE"/>
<path id="Ellipse 2" d="M102 371C102 393.091 84.0914 411 62 411C39.9086 411 22 393.091 22 371C22 348.909 39.9086 331 62 331C84.0914 331 102 348.909 102 371Z" fill="#E8A1EE"/>
<path id="Ellipse 3" d="M438 258C438 280.091 420.091 298 398 298C375.909 298 358 280.091 358 258C358 235.909 375.909 218 398 218C420.091 218 438 235.909 438 258Z" fill="#E8A1EE"/>
<path id="Ellipse 4" d="M441 368C441 390.091 423.091 408 401 408C378.909 408 361 390.091 361 368C361 345.909 378.909 328 401 328C423.091 328 441 345.909 441 368Z" fill="#E8A1EE"/>
<path id="Ellipse 5" d="M784 317C784 339.091 766.091 357 744 357C721.909 357 704 339.091 704 317C704 294.909 721.909 277 744 277C766.091 277 784 294.909 784 317Z" fill="#E8A1EE"/>
<path id="A" d="M66.0938 271.406H48.4688L44.7812 282H36.5625L53.75 236.5H60.8438L78.0625 282H69.8125L66.0938 271.406ZM50.6875 265.031H63.875L57.2812 246.156L50.6875 265.031Z" fill="white"/>
<path id="B" d="M45.625 387V341.5H61.2188C66.3646 341.5 70.2812 342.531 72.9688 344.594C75.6562 346.656 77 349.729 77 353.812C77 355.896 76.4375 357.771 75.3125 359.438C74.1875 361.104 72.5417 362.396 70.375 363.312C72.8333 363.979 74.7292 365.24 76.0625 367.094C77.4167 368.927 78.0938 371.135 78.0938 373.719C78.0938 377.99 76.7188 381.271 73.9688 383.562C71.2396 385.854 67.3229 387 62.2188 387H45.625ZM53.5312 366.469V380.688H62.3125C64.7917 380.688 66.7292 380.073 68.125 378.844C69.5208 377.615 70.2188 375.906 70.2188 373.719C70.2188 368.99 67.8021 366.573 62.9688 366.469H53.5312ZM53.5312 360.656H61.2812C63.7396 360.656 65.6562 360.104 67.0312 359C68.4271 357.875 69.125 356.292 69.125 354.25C69.125 352 68.4792 350.375 67.1875 349.375C65.9167 348.375 63.9271 347.875 61.2188 347.875H53.5312V360.656Z" fill="white"/>
<path id="C" d="M415.344 265.188C414.885 270.042 413.094 273.833 409.969 276.562C406.844 279.271 402.688 280.625 397.5 280.625C393.875 280.625 390.677 279.771 387.906 278.062C385.156 276.333 383.031 273.885 381.531 270.719C380.031 267.552 379.25 263.875 379.188 259.688V255.438C379.188 251.146 379.948 247.365 381.469 244.094C382.99 240.823 385.167 238.302 388 236.531C390.854 234.76 394.146 233.875 397.875 233.875C402.896 233.875 406.938 235.24 410 237.969C413.062 240.698 414.844 244.552 415.344 249.531H407.469C407.094 246.26 406.135 243.906 404.594 242.469C403.073 241.01 400.833 240.281 397.875 240.281C394.438 240.281 391.792 241.542 389.938 244.062C388.104 246.562 387.167 250.24 387.125 255.094V259.125C387.125 264.042 388 267.792 389.75 270.375C391.521 272.958 394.104 274.25 397.5 274.25C400.604 274.25 402.938 273.552 404.5 272.156C406.062 270.76 407.052 268.438 407.469 265.188H415.344Z" fill="white"/>
<path id="D" d="M383.625 390V344.5H397.062C401.083 344.5 404.646 345.396 407.75 347.188C410.875 348.979 413.292 351.521 415 354.812C416.708 358.104 417.562 361.875 417.562 366.125V368.406C417.562 372.719 416.698 376.51 414.969 379.781C413.26 383.052 410.812 385.573 407.625 387.344C404.458 389.115 400.823 390 396.719 390H383.625ZM391.531 350.875V383.688H396.688C400.833 383.688 404.01 382.396 406.219 379.812C408.448 377.208 409.583 373.479 409.625 368.625V366.094C409.625 361.156 408.552 357.385 406.406 354.781C404.26 352.177 401.146 350.875 397.062 350.875H391.531Z" fill="white"/>
<path id="E" d="M753.219 318.688H734.531V332.688H756.375V339H726.625V293.5H756.156V299.875H734.531V312.438H753.219V318.688Z" fill="white"/>
<g id="125">
<path d="M145.086 281H140.727V252.102L131.984 255.312V251.375L144.406 246.711H145.086V281Z" fill="#E8A1EE"/>
<path d="M180.148 281H157.789V277.883L169.602 264.758C171.352 262.773 172.555 261.164 173.211 259.93C173.883 258.68 174.219 257.391 174.219 256.062C174.219 254.281 173.68 252.82 172.602 251.68C171.523 250.539 170.086 249.969 168.289 249.969C166.133 249.969 164.453 250.586 163.25 251.82C162.062 253.039 161.469 254.742 161.469 256.93H157.133C157.133 253.789 158.141 251.25 160.156 249.312C162.188 247.375 164.898 246.406 168.289 246.406C171.461 246.406 173.969 247.242 175.812 248.914C177.656 250.57 178.578 252.781 178.578 255.547C178.578 258.906 176.438 262.906 172.156 267.547L163.016 277.461H180.148V281Z" fill="#E8A1EE"/>
<path d="M186.734 263.891L188.469 246.875H205.953V250.883H192.148L191.117 260.188C192.789 259.203 194.688 258.711 196.812 258.711C199.922 258.711 202.391 259.742 204.219 261.805C206.047 263.852 206.961 266.625 206.961 270.125C206.961 273.641 206.008 276.414 204.102 278.445C202.211 280.461 199.562 281.469 196.156 281.469C193.141 281.469 190.68 280.633 188.773 278.961C186.867 277.289 185.781 274.977 185.516 272.023H189.617C189.883 273.977 190.578 275.453 191.703 276.453C192.828 277.438 194.312 277.93 196.156 277.93C198.172 277.93 199.75 277.242 200.891 275.867C202.047 274.492 202.625 272.594 202.625 270.172C202.625 267.891 202 266.062 200.75 264.688C199.516 263.297 197.867 262.602 195.805 262.602C193.914 262.602 192.43 263.016 191.352 263.844L190.203 264.781L186.734 263.891Z" fill="#E8A1EE"/>
</g>
<g id="110">
<path d="M485.086 270H480.727V241.102L471.984 244.312V240.375L484.406 235.711H485.086V270Z" fill="#E8A1EE"/>
<path d="M512.039 270H507.68V241.102L498.938 244.312V240.375L511.359 235.711H512.039V270Z" fill="#E8A1EE"/>
<path d="M546.141 255.445C546.141 260.523 545.273 264.297 543.539 266.766C541.805 269.234 539.094 270.469 535.406 270.469C531.766 270.469 529.07 269.266 527.32 266.859C525.57 264.438 524.664 260.828 524.602 256.031V250.242C524.602 245.227 525.469 241.5 527.203 239.062C528.938 236.625 531.656 235.406 535.359 235.406C539.031 235.406 541.734 236.586 543.469 238.945C545.203 241.289 546.094 244.914 546.141 249.82V255.445ZM541.805 249.516C541.805 245.844 541.289 243.172 540.258 241.5C539.227 239.812 537.594 238.969 535.359 238.969C533.141 238.969 531.523 239.805 530.508 241.477C529.492 243.148 528.969 245.719 528.938 249.188V256.125C528.938 259.812 529.469 262.539 530.531 264.305C531.609 266.055 533.234 266.93 535.406 266.93C537.547 266.93 539.133 266.102 540.164 264.445C541.211 262.789 541.758 260.18 541.805 256.617V249.516Z" fill="#E8A1EE"/>
</g>
<g id="149">
<path d="M484.086 386H479.727V357.102L470.984 360.312V356.375L483.406 351.711H484.086V386Z" fill="#E8A1EE"/>
<path d="M515.094 374.539H519.828V378.078H515.094V386H510.734V378.078H495.195V375.523L510.477 351.875H515.094V374.539ZM500.117 374.539H510.734V357.805L510.219 358.742L500.117 374.539Z" fill="#E8A1EE"/>
<path d="M540.359 371C539.453 372.078 538.367 372.945 537.102 373.602C535.852 374.258 534.477 374.586 532.977 374.586C531.008 374.586 529.289 374.102 527.82 373.133C526.367 372.164 525.242 370.805 524.445 369.055C523.648 367.289 523.25 365.344 523.25 363.219C523.25 360.938 523.68 358.883 524.539 357.055C525.414 355.227 526.648 353.828 528.242 352.859C529.836 351.891 531.695 351.406 533.82 351.406C537.195 351.406 539.852 352.672 541.789 355.203C543.742 357.719 544.719 361.156 544.719 365.516V366.781C544.719 373.422 543.406 378.273 540.781 381.336C538.156 384.383 534.195 385.945 528.898 386.023H528.055V382.367H528.969C532.547 382.305 535.297 381.375 537.219 379.578C539.141 377.766 540.188 374.906 540.359 371ZM533.68 371C535.133 371 536.469 370.555 537.688 369.664C538.922 368.773 539.82 367.672 540.383 366.359V364.625C540.383 361.781 539.766 359.469 538.531 357.688C537.297 355.906 535.734 355.016 533.844 355.016C531.938 355.016 530.406 355.75 529.25 357.219C528.094 358.672 527.516 360.594 527.516 362.984C527.516 365.312 528.07 367.234 529.18 368.75C530.305 370.25 531.805 371 533.68 371Z" fill="#E8A1EE"/>
</g>
<g id="120">
<path d="M855.086 333H850.727V304.102L841.984 307.312V303.375L854.406 298.711H855.086V333Z" fill="#E8A1EE"/>
<path d="M890.148 333H867.789V329.883L879.602 316.758C881.352 314.773 882.555 313.164 883.211 311.93C883.883 310.68 884.219 309.391 884.219 308.062C884.219 306.281 883.68 304.82 882.602 303.68C881.523 302.539 880.086 301.969 878.289 301.969C876.133 301.969 874.453 302.586 873.25 303.82C872.062 305.039 871.469 306.742 871.469 308.93H867.133C867.133 305.789 868.141 303.25 870.156 301.312C872.188 299.375 874.898 298.406 878.289 298.406C881.461 298.406 883.969 299.242 885.812 300.914C887.656 302.57 888.578 304.781 888.578 307.547C888.578 310.906 886.438 314.906 882.156 319.547L873.016 329.461H890.148V333Z" fill="#E8A1EE"/>
<path d="M916.141 318.445C916.141 323.523 915.273 327.297 913.539 329.766C911.805 332.234 909.094 333.469 905.406 333.469C901.766 333.469 899.07 332.266 897.32 329.859C895.57 327.438 894.664 323.828 894.602 319.031V313.242C894.602 308.227 895.469 304.5 897.203 302.062C898.938 299.625 901.656 298.406 905.359 298.406C909.031 298.406 911.734 299.586 913.469 301.945C915.203 304.289 916.094 307.914 916.141 312.82V318.445ZM911.805 312.516C911.805 308.844 911.289 306.172 910.258 304.5C909.227 302.812 907.594 301.969 905.359 301.969C903.141 301.969 901.523 302.805 900.508 304.477C899.492 306.148 898.969 308.719 898.938 312.188V319.125C898.938 322.812 899.469 325.539 900.531 327.305C901.609 329.055 903.234 329.93 905.406 329.93C907.547 329.93 909.133 329.102 910.164 327.445C911.211 325.789 911.758 323.18 911.805 319.617V312.516Z" fill="#E8A1EE"/>
</g>
<g id="145">
<path d="M145.086 391H140.727V362.102L131.984 365.312V361.375L144.406 356.711H145.086V391Z" fill="#E8A1EE"/>
<path d="M176.094 379.539H180.828V383.078H176.094V391H171.734V383.078H156.195V380.523L171.477 356.875H176.094V379.539ZM161.117 379.539H171.734V362.805L171.219 363.742L161.117 379.539Z" fill="#E8A1EE"/>
<path d="M186.734 373.891L188.469 356.875H205.953V360.883H192.148L191.117 370.188C192.789 369.203 194.688 368.711 196.812 368.711C199.922 368.711 202.391 369.742 204.219 371.805C206.047 373.852 206.961 376.625 206.961 380.125C206.961 383.641 206.008 386.414 204.102 388.445C202.211 390.461 199.562 391.469 196.156 391.469C193.141 391.469 190.68 390.633 188.773 388.961C186.867 387.289 185.781 384.977 185.516 382.023H189.617C189.883 383.977 190.578 385.453 191.703 386.453C192.828 387.438 194.312 387.93 196.156 387.93C198.172 387.93 199.75 387.242 200.891 385.867C202.047 384.492 202.625 382.594 202.625 380.172C202.625 377.891 202 376.062 200.75 374.688C199.516 373.297 197.867 372.602 195.805 372.602C193.914 372.602 192.43 373.016 191.352 373.844L190.203 374.781L186.734 373.891Z" fill="#E8A1EE"/>
</g>
<g id="flecha">
<path id="Rectangle 2" d="M753.2 278.008L768.482 286.133L726.5 365.089L711.219 356.963L753.2 278.008Z" fill="#1043F5"/>
<path id="Rectangle 1" d="M695 290.904L785 241V298.692L740 281.096L695 290.904Z" fill="#1043F5"/>
<path id="Rectangle 3" d="M699.038 360.21L714.665 333.143L731.936 332.565L716.309 359.632L699.038 360.21Z" fill="#1043F5"/>
<path id="Rectangle 4_2" d="M725.09 374.845L740.717 347.778L731.926 332.154L716.299 359.221L725.09 374.845Z" fill="#1043F5"/>
</g>
</g>
<g id="enun01">
<path id="Rectangle 1_2" d="M53 0H925.488L999 90.6763L925.488 184H53V0Z" fill="#02071A"/>
<path id="Rectangle 1 (Stroke)" fill-rule="evenodd" clip-rule="evenodd" d="M923.581 4H57V180H923.547L993.88 90.7122L923.581 4ZM925.488 0H53V184H925.488L999 90.6763L925.488 0Z" fill="#E8A1EE"/>
<path id="Ellipse 1_2" d="M100 83C100 110.614 77.6142 133 50 133C22.3858 133 0 110.614 0 83C0 55.3858 22.3858 33 50 33C77.6142 33 100 55.3858 100 83Z" fill="#E8A1EE"/>
<path id="Ellipse 1 (Stroke)" fill-rule="evenodd" clip-rule="evenodd" d="M50 132C77.062 132 99 110.062 99 83C99 55.938 77.062 34 50 34C22.938 34 1 55.938 1 83C1 110.062 22.938 132 50 132ZM50 133C77.6142 133 100 110.614 100 83C100 55.3858 77.6142 33 50 33C22.3858 33 0 55.3858 0 83C0 110.614 22.3858 133 50 133Z" fill="#E8A1EE"/>
<g id="Si subo una escalera de 5 en 5 doy cuatro pasos m&#195;&#161;s que subiendo de 6 en 6, &#194;&#191;Cu&#195;&#161;ntos escalones tiene la escalera?">
<path d="M128.512 54.5918C125.617 53.7598 123.508 52.7402 122.184 51.5332C120.871 50.3145 120.215 48.8145 120.215 47.0332C120.215 45.0176 121.018 43.3535 122.623 42.041C124.24 40.7168 126.338 40.0547 128.916 40.0547C130.674 40.0547 132.238 40.3945 133.609 41.0742C134.992 41.7539 136.059 42.6914 136.809 43.8867C137.57 45.082 137.951 46.3887 137.951 47.8066H134.559C134.559 46.2598 134.066 45.0469 133.082 44.168C132.098 43.2773 130.709 42.832 128.916 42.832C127.252 42.832 125.951 43.2012 125.014 43.9395C124.088 44.666 123.625 45.6797 123.625 46.9805C123.625 48.0234 124.064 48.9082 124.943 49.6348C125.834 50.3496 127.34 51.0059 129.461 51.6035C131.594 52.2012 133.258 52.8633 134.453 53.5898C135.66 54.3047 136.551 55.1426 137.125 56.1035C137.711 57.0645 138.004 58.1953 138.004 59.4961C138.004 61.5703 137.195 63.2344 135.578 64.4883C133.961 65.7305 131.799 66.3516 129.092 66.3516C127.334 66.3516 125.693 66.0176 124.17 65.3496C122.646 64.6699 121.469 63.7441 120.637 62.5723C119.816 61.4004 119.406 60.0703 119.406 58.582H122.799C122.799 60.1289 123.367 61.3535 124.504 62.2559C125.652 63.1465 127.182 63.5918 129.092 63.5918C130.873 63.5918 132.238 63.2285 133.188 62.502C134.137 61.7754 134.611 60.7852 134.611 59.5312C134.611 58.2773 134.172 57.3105 133.293 56.6309C132.414 55.9395 130.82 55.2598 128.512 54.5918Z" fill="white"/>
<path d="M145.369 66H142.117V46.9805H145.369V66ZM141.854 41.9355C141.854 41.4082 142.012 40.9629 142.328 40.5996C142.656 40.2363 143.137 40.0547 143.77 40.0547C144.402 40.0547 144.883 40.2363 145.211 40.5996C145.539 40.9629 145.703 41.4082 145.703 41.9355C145.703 42.4629 145.539 42.9023 145.211 43.2539C144.883 43.6055 144.402 43.7812 143.77 43.7812C143.137 43.7812 142.656 43.6055 142.328 43.2539C142.012 42.9023 141.854 42.4629 141.854 41.9355Z" fill="white"/>
<path d="M170.594 60.9551C170.594 60.0762 170.26 59.3965 169.592 58.916C168.936 58.4238 167.781 58.002 166.129 57.6504C164.488 57.2988 163.182 56.877 162.209 56.3848C161.248 55.8926 160.533 55.3066 160.064 54.627C159.607 53.9473 159.379 53.1387 159.379 52.2012C159.379 50.6426 160.035 49.3242 161.348 48.2461C162.672 47.168 164.359 46.6289 166.41 46.6289C168.566 46.6289 170.312 47.1855 171.648 48.2988C172.996 49.4121 173.67 50.8359 173.67 52.5703H170.4C170.4 51.6797 170.02 50.9121 169.258 50.2676C168.508 49.623 167.559 49.3008 166.41 49.3008C165.227 49.3008 164.301 49.5586 163.633 50.0742C162.965 50.5898 162.631 51.2637 162.631 52.0957C162.631 52.8809 162.941 53.4727 163.562 53.8711C164.184 54.2695 165.303 54.6504 166.92 55.0137C168.549 55.377 169.867 55.8105 170.875 56.3145C171.883 56.8184 172.627 57.4277 173.107 58.1426C173.6 58.8457 173.846 59.707 173.846 60.7266C173.846 62.4258 173.166 63.791 171.807 64.8223C170.447 65.8418 168.684 66.3516 166.516 66.3516C164.992 66.3516 163.645 66.082 162.473 65.543C161.301 65.0039 160.381 64.2539 159.713 63.293C159.057 62.3203 158.729 61.2715 158.729 60.1465H161.98C162.039 61.2363 162.473 62.1035 163.281 62.748C164.102 63.3809 165.18 63.6973 166.516 63.6973C167.746 63.6973 168.73 63.4512 169.469 62.959C170.219 62.4551 170.594 61.7871 170.594 60.9551Z" fill="white"/>
<path d="M189.824 64.1191C188.559 65.6074 186.701 66.3516 184.252 66.3516C182.225 66.3516 180.678 65.7656 179.611 64.5938C178.557 63.4102 178.023 61.6641 178.012 59.3555V46.9805H181.264V59.2676C181.264 62.1504 182.436 63.5918 184.779 63.5918C187.264 63.5918 188.916 62.666 189.736 60.8145V46.9805H192.988V66H189.895L189.824 64.1191Z" fill="white"/>
<path d="M214.047 56.7012C214.047 59.6074 213.379 61.9453 212.043 63.7148C210.707 65.4727 208.914 66.3516 206.664 66.3516C204.262 66.3516 202.404 65.502 201.092 63.8027L200.934 66H197.945V39H201.197V49.0723C202.51 47.4434 204.32 46.6289 206.629 46.6289C208.938 46.6289 210.748 47.502 212.061 49.248C213.385 50.9941 214.047 53.3848 214.047 56.4199V56.7012ZM210.795 56.332C210.795 54.1172 210.367 52.4062 209.512 51.1992C208.656 49.9922 207.426 49.3887 205.82 49.3887C203.676 49.3887 202.135 50.3848 201.197 52.377V60.6035C202.193 62.5957 203.746 63.5918 205.855 63.5918C207.414 63.5918 208.627 62.9883 209.494 61.7812C210.361 60.5742 210.795 58.7578 210.795 56.332Z" fill="white"/>
<path d="M217.299 56.3145C217.299 54.4512 217.662 52.7754 218.389 51.2871C219.127 49.7988 220.146 48.6504 221.447 47.8418C222.76 47.0332 224.254 46.6289 225.93 46.6289C228.52 46.6289 230.611 47.5254 232.205 49.3184C233.811 51.1113 234.613 53.4961 234.613 56.4727V56.7012C234.613 58.5527 234.256 60.2168 233.541 61.6934C232.838 63.1582 231.824 64.3008 230.5 65.1211C229.188 65.9414 227.676 66.3516 225.965 66.3516C223.387 66.3516 221.295 65.4551 219.689 63.6621C218.096 61.8691 217.299 59.4961 217.299 56.543V56.3145ZM220.568 56.7012C220.568 58.8105 221.055 60.5039 222.027 61.7812C223.012 63.0586 224.324 63.6973 225.965 63.6973C227.617 63.6973 228.93 63.0527 229.902 61.7637C230.875 60.4629 231.361 58.6465 231.361 56.3145C231.361 54.2285 230.863 52.541 229.867 51.252C228.883 49.9512 227.57 49.3008 225.93 49.3008C224.324 49.3008 223.029 49.9395 222.045 51.2168C221.061 52.4941 220.568 54.3223 220.568 56.7012Z" fill="white"/>
<path d="M259.363 64.1191C258.098 65.6074 256.24 66.3516 253.791 66.3516C251.764 66.3516 250.217 65.7656 249.15 64.5938C248.096 63.4102 247.562 61.6641 247.551 59.3555V46.9805H250.803V59.2676C250.803 62.1504 251.975 63.5918 254.318 63.5918C256.803 63.5918 258.455 62.666 259.275 60.8145V46.9805H262.527V66H259.434L259.363 64.1191Z" fill="white"/>
<path d="M270.561 46.9805L270.666 49.3711C272.119 47.543 274.018 46.6289 276.361 46.6289C280.381 46.6289 282.408 48.8965 282.443 53.4316V66H279.191V53.4141C279.18 52.043 278.863 51.0293 278.242 50.373C277.633 49.7168 276.678 49.3887 275.377 49.3887C274.322 49.3887 273.396 49.6699 272.6 50.2324C271.803 50.7949 271.182 51.5332 270.736 52.4473V66H267.484V46.9805H270.561Z" fill="white"/>
<path d="M299.09 66C298.902 65.625 298.75 64.957 298.633 63.9961C297.121 65.5664 295.316 66.3516 293.219 66.3516C291.344 66.3516 289.803 65.8242 288.596 64.7695C287.4 63.7031 286.803 62.3555 286.803 60.7266C286.803 58.7461 287.553 57.2109 289.053 56.1211C290.564 55.0195 292.686 54.4688 295.416 54.4688H298.58V52.9746C298.58 51.8379 298.24 50.9355 297.561 50.2676C296.881 49.5879 295.879 49.248 294.555 49.248C293.395 49.248 292.422 49.541 291.637 50.127C290.852 50.7129 290.459 51.4219 290.459 52.2539H287.189C287.189 51.3047 287.523 50.3906 288.191 49.5117C288.871 48.6211 289.785 47.918 290.934 47.4023C292.094 46.8867 293.365 46.6289 294.748 46.6289C296.939 46.6289 298.656 47.1797 299.898 48.2812C301.141 49.3711 301.785 50.877 301.832 52.7988V61.5527C301.832 63.2988 302.055 64.6875 302.5 65.7188V66H299.09ZM293.693 63.5215C294.713 63.5215 295.68 63.2578 296.594 62.7305C297.508 62.2031 298.17 61.5176 298.58 60.6738V56.7715H296.031C292.047 56.7715 290.055 57.9375 290.055 60.2695C290.055 61.2891 290.395 62.0859 291.074 62.6602C291.754 63.2344 292.627 63.5215 293.693 63.5215Z" fill="white"/>
<path d="M323.752 66.3516C321.174 66.3516 319.076 65.5078 317.459 63.8203C315.842 62.1211 315.033 59.8535 315.033 57.0176V56.4199C315.033 54.5332 315.391 52.8516 316.105 51.375C316.832 49.8867 317.84 48.7266 319.129 47.8945C320.43 47.0508 321.836 46.6289 323.348 46.6289C325.82 46.6289 327.742 47.4434 329.113 49.0723C330.484 50.7012 331.17 53.0332 331.17 56.0684V57.4219H318.285C318.332 59.2969 318.877 60.8145 319.92 61.9746C320.975 63.123 322.311 63.6973 323.928 63.6973C325.076 63.6973 326.049 63.4629 326.846 62.9941C327.643 62.5254 328.34 61.9043 328.938 61.1309L330.924 62.6777C329.33 65.127 326.939 66.3516 323.752 66.3516ZM323.348 49.3008C322.035 49.3008 320.934 49.7812 320.043 50.7422C319.152 51.6914 318.602 53.0273 318.391 54.75H327.918V54.5039C327.824 52.8516 327.379 51.5742 326.582 50.6719C325.785 49.7578 324.707 49.3008 323.348 49.3008Z" fill="white"/>
<path d="M346.023 60.9551C346.023 60.0762 345.689 59.3965 345.021 58.916C344.365 58.4238 343.211 58.002 341.559 57.6504C339.918 57.2988 338.611 56.877 337.639 56.3848C336.678 55.8926 335.963 55.3066 335.494 54.627C335.037 53.9473 334.809 53.1387 334.809 52.2012C334.809 50.6426 335.465 49.3242 336.777 48.2461C338.102 47.168 339.789 46.6289 341.84 46.6289C343.996 46.6289 345.742 47.1855 347.078 48.2988C348.426 49.4121 349.1 50.8359 349.1 52.5703H345.83C345.83 51.6797 345.449 50.9121 344.688 50.2676C343.938 49.623 342.988 49.3008 341.84 49.3008C340.656 49.3008 339.73 49.5586 339.062 50.0742C338.395 50.5898 338.061 51.2637 338.061 52.0957C338.061 52.8809 338.371 53.4727 338.992 53.8711C339.613 54.2695 340.732 54.6504 342.35 55.0137C343.979 55.377 345.297 55.8105 346.305 56.3145C347.312 56.8184 348.057 57.4277 348.537 58.1426C349.029 58.8457 349.275 59.707 349.275 60.7266C349.275 62.4258 348.596 63.791 347.236 64.8223C345.877 65.8418 344.113 66.3516 341.945 66.3516C340.422 66.3516 339.074 66.082 337.902 65.543C336.73 65.0039 335.811 64.2539 335.143 63.293C334.486 62.3203 334.158 61.2715 334.158 60.1465H337.41C337.469 61.2363 337.902 62.1035 338.711 62.748C339.531 63.3809 340.609 63.6973 341.945 63.6973C343.176 63.6973 344.16 63.4512 344.898 62.959C345.648 62.4551 346.023 61.7871 346.023 60.9551Z" fill="white"/>
<path d="M361.141 63.6973C362.301 63.6973 363.314 63.3457 364.182 62.6426C365.049 61.9395 365.529 61.0605 365.623 60.0059H368.699C368.641 61.0957 368.266 62.1328 367.574 63.1172C366.883 64.1016 365.957 64.8867 364.797 65.4727C363.648 66.0586 362.43 66.3516 361.141 66.3516C358.551 66.3516 356.488 65.4902 354.953 63.7676C353.43 62.0332 352.668 59.666 352.668 56.666V56.1211C352.668 54.2695 353.008 52.623 353.688 51.1816C354.367 49.7402 355.34 48.6211 356.605 47.8242C357.883 47.0273 359.389 46.6289 361.123 46.6289C363.256 46.6289 365.025 47.2676 366.432 48.5449C367.85 49.8223 368.605 51.4805 368.699 53.5195H365.623C365.529 52.2891 365.061 51.2812 364.217 50.4961C363.385 49.6992 362.354 49.3008 361.123 49.3008C359.471 49.3008 358.188 49.8984 357.273 51.0938C356.371 52.2773 355.92 53.9941 355.92 56.2441V56.8594C355.92 59.0508 356.371 60.7383 357.273 61.9219C358.176 63.1055 359.465 63.6973 361.141 63.6973Z" fill="white"/>
<path d="M384.098 66C383.91 65.625 383.758 64.957 383.641 63.9961C382.129 65.5664 380.324 66.3516 378.227 66.3516C376.352 66.3516 374.811 65.8242 373.604 64.7695C372.408 63.7031 371.811 62.3555 371.811 60.7266C371.811 58.7461 372.561 57.2109 374.061 56.1211C375.572 55.0195 377.693 54.4688 380.424 54.4688H383.588V52.9746C383.588 51.8379 383.248 50.9355 382.568 50.2676C381.889 49.5879 380.887 49.248 379.562 49.248C378.402 49.248 377.43 49.541 376.645 50.127C375.859 50.7129 375.467 51.4219 375.467 52.2539H372.197C372.197 51.3047 372.531 50.3906 373.199 49.5117C373.879 48.6211 374.793 47.918 375.941 47.4023C377.102 46.8867 378.373 46.6289 379.756 46.6289C381.947 46.6289 383.664 47.1797 384.906 48.2812C386.148 49.3711 386.793 50.877 386.84 52.7988V61.5527C386.84 63.2988 387.062 64.6875 387.508 65.7188V66H384.098ZM378.701 63.5215C379.721 63.5215 380.688 63.2578 381.602 62.7305C382.516 62.2031 383.178 61.5176 383.588 60.6738V56.7715H381.039C377.055 56.7715 375.062 57.9375 375.062 60.2695C375.062 61.2891 375.402 62.0859 376.082 62.6602C376.762 63.2344 377.635 63.5215 378.701 63.5215Z" fill="white"/>
<path d="M395.471 66H392.219V39H395.471V66Z" fill="white"/>
<path d="M408.584 66.3516C406.006 66.3516 403.908 65.5078 402.291 63.8203C400.674 62.1211 399.865 59.8535 399.865 57.0176V56.4199C399.865 54.5332 400.223 52.8516 400.938 51.375C401.664 49.8867 402.672 48.7266 403.961 47.8945C405.262 47.0508 406.668 46.6289 408.18 46.6289C410.652 46.6289 412.574 47.4434 413.945 49.0723C415.316 50.7012 416.002 53.0332 416.002 56.0684V57.4219H403.117C403.164 59.2969 403.709 60.8145 404.752 61.9746C405.807 63.123 407.143 63.6973 408.76 63.6973C409.908 63.6973 410.881 63.4629 411.678 62.9941C412.475 62.5254 413.172 61.9043 413.77 61.1309L415.756 62.6777C414.162 65.127 411.771 66.3516 408.584 66.3516ZM408.18 49.3008C406.867 49.3008 405.766 49.7812 404.875 50.7422C403.984 51.6914 403.434 53.0273 403.223 54.75H412.75V54.5039C412.656 52.8516 412.211 51.5742 411.414 50.6719C410.617 49.7578 409.539 49.3008 408.18 49.3008Z" fill="white"/>
<path d="M428.975 49.8984C428.482 49.8164 427.949 49.7754 427.375 49.7754C425.242 49.7754 423.795 50.6836 423.033 52.5V66H419.781V46.9805H422.945L422.998 49.1777C424.064 47.4785 425.576 46.6289 427.533 46.6289C428.166 46.6289 428.646 46.7109 428.975 46.875V49.8984Z" fill="white"/>
<path d="M443.02 66C442.832 65.625 442.68 64.957 442.562 63.9961C441.051 65.5664 439.246 66.3516 437.148 66.3516C435.273 66.3516 433.732 65.8242 432.525 64.7695C431.33 63.7031 430.732 62.3555 430.732 60.7266C430.732 58.7461 431.482 57.2109 432.982 56.1211C434.494 55.0195 436.615 54.4688 439.346 54.4688H442.51V52.9746C442.51 51.8379 442.17 50.9355 441.49 50.2676C440.811 49.5879 439.809 49.248 438.484 49.248C437.324 49.248 436.352 49.541 435.566 50.127C434.781 50.7129 434.389 51.4219 434.389 52.2539H431.119C431.119 51.3047 431.453 50.3906 432.121 49.5117C432.801 48.6211 433.715 47.918 434.863 47.4023C436.023 46.8867 437.295 46.6289 438.678 46.6289C440.869 46.6289 442.586 47.1797 443.828 48.2812C445.07 49.3711 445.715 50.877 445.762 52.7988V61.5527C445.762 63.2988 445.984 64.6875 446.43 65.7188V66H443.02ZM437.623 63.5215C438.643 63.5215 439.609 63.2578 440.523 62.7305C441.438 62.2031 442.1 61.5176 442.51 60.6738V56.7715H439.961C435.977 56.7715 433.984 57.9375 433.984 60.2695C433.984 61.2891 434.324 62.0859 435.004 62.6602C435.684 63.2344 436.557 63.5215 437.623 63.5215Z" fill="white"/>
<path d="M458.998 56.332C458.998 53.4141 459.689 51.0703 461.072 49.3008C462.455 47.5195 464.266 46.6289 466.504 46.6289C468.73 46.6289 470.494 47.3906 471.795 48.9141V39H475.047V66H472.059L471.9 63.9609C470.6 65.5547 468.789 66.3516 466.469 66.3516C464.266 66.3516 462.467 65.4492 461.072 63.6445C459.689 61.8398 458.998 59.4844 458.998 56.5781V56.332ZM462.25 56.7012C462.25 58.8574 462.695 60.5449 463.586 61.7637C464.477 62.9824 465.707 63.5918 467.277 63.5918C469.34 63.5918 470.846 62.666 471.795 60.8145V52.0781C470.822 50.2852 469.328 49.3887 467.312 49.3887C465.719 49.3887 464.477 50.0039 463.586 51.2344C462.695 52.4648 462.25 54.2871 462.25 56.7012Z" fill="white"/>
<path d="M488.002 66.3516C485.424 66.3516 483.326 65.5078 481.709 63.8203C480.092 62.1211 479.283 59.8535 479.283 57.0176V56.4199C479.283 54.5332 479.641 52.8516 480.355 51.375C481.082 49.8867 482.09 48.7266 483.379 47.8945C484.68 47.0508 486.086 46.6289 487.598 46.6289C490.07 46.6289 491.992 47.4434 493.363 49.0723C494.734 50.7012 495.42 53.0332 495.42 56.0684V57.4219H482.535C482.582 59.2969 483.127 60.8145 484.17 61.9746C485.225 63.123 486.561 63.6973 488.178 63.6973C489.326 63.6973 490.299 63.4629 491.096 62.9941C491.893 62.5254 492.59 61.9043 493.188 61.1309L495.174 62.6777C493.58 65.127 491.189 66.3516 488.002 66.3516ZM487.598 49.3008C486.285 49.3008 485.184 49.7812 484.293 50.7422C483.402 51.6914 482.852 53.0273 482.641 54.75H492.168V54.5039C492.074 52.8516 491.629 51.5742 490.832 50.6719C490.035 49.7578 488.957 49.3008 487.598 49.3008Z" fill="white"/>
<path d="M509.289 53.168L510.59 40.4062H523.703V43.4121H513.35L512.576 50.3906C513.83 49.6523 515.254 49.2832 516.848 49.2832C519.18 49.2832 521.031 50.0566 522.402 51.6035C523.773 53.1387 524.459 55.2188 524.459 57.8438C524.459 60.4805 523.744 62.5605 522.314 64.084C520.896 65.5957 518.91 66.3516 516.355 66.3516C514.094 66.3516 512.248 65.7246 510.818 64.4707C509.389 63.2168 508.574 61.4824 508.375 59.2676H511.451C511.65 60.7324 512.172 61.8398 513.016 62.5898C513.859 63.3281 514.973 63.6973 516.355 63.6973C517.867 63.6973 519.051 63.1816 519.906 62.1504C520.773 61.1191 521.207 59.6953 521.207 57.8789C521.207 56.168 520.738 54.7969 519.801 53.7656C518.875 52.7227 517.639 52.2012 516.092 52.2012C514.674 52.2012 513.561 52.5117 512.752 53.1328L511.891 53.8359L509.289 53.168Z" fill="white"/>
<path d="M545.166 66.3516C542.588 66.3516 540.49 65.5078 538.873 63.8203C537.256 62.1211 536.447 59.8535 536.447 57.0176V56.4199C536.447 54.5332 536.805 52.8516 537.52 51.375C538.246 49.8867 539.254 48.7266 540.543 47.8945C541.844 47.0508 543.25 46.6289 544.762 46.6289C547.234 46.6289 549.156 47.4434 550.527 49.0723C551.898 50.7012 552.584 53.0332 552.584 56.0684V57.4219H539.699C539.746 59.2969 540.291 60.8145 541.334 61.9746C542.389 63.123 543.725 63.6973 545.342 63.6973C546.49 63.6973 547.463 63.4629 548.26 62.9941C549.057 62.5254 549.754 61.9043 550.352 61.1309L552.338 62.6777C550.744 65.127 548.354 66.3516 545.166 66.3516ZM544.762 49.3008C543.449 49.3008 542.348 49.7812 541.457 50.7422C540.566 51.6914 540.016 53.0273 539.805 54.75H549.332V54.5039C549.238 52.8516 548.793 51.5742 547.996 50.6719C547.199 49.7578 546.121 49.3008 544.762 49.3008Z" fill="white"/>
<path d="M559.439 46.9805L559.545 49.3711C560.998 47.543 562.896 46.6289 565.24 46.6289C569.26 46.6289 571.287 48.8965 571.322 53.4316V66H568.07V53.4141C568.059 52.043 567.742 51.0293 567.121 50.373C566.512 49.7168 565.557 49.3887 564.256 49.3887C563.201 49.3887 562.275 49.6699 561.479 50.2324C560.682 50.7949 560.061 51.5332 559.615 52.4473V66H556.363V46.9805H559.439Z" fill="white"/>
<path d="M586.316 53.168L587.617 40.4062H600.73V43.4121H590.377L589.604 50.3906C590.857 49.6523 592.281 49.2832 593.875 49.2832C596.207 49.2832 598.059 50.0566 599.43 51.6035C600.801 53.1387 601.486 55.2188 601.486 57.8438C601.486 60.4805 600.771 62.5605 599.342 64.084C597.924 65.5957 595.938 66.3516 593.383 66.3516C591.121 66.3516 589.275 65.7246 587.846 64.4707C586.416 63.2168 585.602 61.4824 585.402 59.2676H588.479C588.678 60.7324 589.199 61.8398 590.043 62.5898C590.887 63.3281 592 63.6973 593.383 63.6973C594.895 63.6973 596.078 63.1816 596.934 62.1504C597.801 61.1191 598.234 59.6953 598.234 57.8789C598.234 56.168 597.766 54.7969 596.828 53.7656C595.902 52.7227 594.666 52.2012 593.119 52.2012C591.701 52.2012 590.588 52.5117 589.779 53.1328L588.918 53.8359L586.316 53.168Z" fill="white"/>
<path d="M613.51 56.332C613.51 53.4141 614.201 51.0703 615.584 49.3008C616.967 47.5195 618.777 46.6289 621.016 46.6289C623.242 46.6289 625.006 47.3906 626.307 48.9141V39H629.559V66H626.57L626.412 63.9609C625.111 65.5547 623.301 66.3516 620.98 66.3516C618.777 66.3516 616.979 65.4492 615.584 63.6445C614.201 61.8398 613.51 59.4844 613.51 56.5781V56.332ZM616.762 56.7012C616.762 58.8574 617.207 60.5449 618.098 61.7637C618.988 62.9824 620.219 63.5918 621.789 63.5918C623.852 63.5918 625.357 62.666 626.307 60.8145V52.0781C625.334 50.2852 623.84 49.3887 621.824 49.3887C620.23 49.3887 618.988 50.0039 618.098 51.2344C617.207 52.4648 616.762 54.2871 616.762 56.7012Z" fill="white"/>
<path d="M633.76 56.3145C633.76 54.4512 634.123 52.7754 634.85 51.2871C635.588 49.7988 636.607 48.6504 637.908 47.8418C639.221 47.0332 640.715 46.6289 642.391 46.6289C644.98 46.6289 647.072 47.5254 648.666 49.3184C650.271 51.1113 651.074 53.4961 651.074 56.4727V56.7012C651.074 58.5527 650.717 60.2168 650.002 61.6934C649.299 63.1582 648.285 64.3008 646.961 65.1211C645.648 65.9414 644.137 66.3516 642.426 66.3516C639.848 66.3516 637.756 65.4551 636.15 63.6621C634.557 61.8691 633.76 59.4961 633.76 56.543V56.3145ZM637.029 56.7012C637.029 58.8105 637.516 60.5039 638.488 61.7812C639.473 63.0586 640.785 63.6973 642.426 63.6973C644.078 63.6973 645.391 63.0527 646.363 61.7637C647.336 60.4629 647.822 58.6465 647.822 56.3145C647.822 54.2285 647.324 52.541 646.328 51.252C645.344 49.9512 644.031 49.3008 642.391 49.3008C640.785 49.3008 639.49 49.9395 638.506 51.2168C637.521 52.4941 637.029 54.3223 637.029 56.7012Z" fill="white"/>
<path d="M661.094 61.2363L665.523 46.9805H669.004L661.357 68.9355C660.174 72.0996 658.293 73.6816 655.715 73.6816L655.1 73.6289L653.887 73.4004V70.7637L654.766 70.834C655.867 70.834 656.723 70.6113 657.332 70.166C657.953 69.7207 658.463 68.9062 658.861 67.7227L659.582 65.7891L652.797 46.9805H656.348L661.094 61.2363Z" fill="white"/>
<path d="M688.48 63.6973C689.641 63.6973 690.654 63.3457 691.521 62.6426C692.389 61.9395 692.869 61.0605 692.963 60.0059H696.039C695.98 61.0957 695.605 62.1328 694.914 63.1172C694.223 64.1016 693.297 64.8867 692.137 65.4727C690.988 66.0586 689.77 66.3516 688.48 66.3516C685.891 66.3516 683.828 65.4902 682.293 63.7676C680.77 62.0332 680.008 59.666 680.008 56.666V56.1211C680.008 54.2695 680.348 52.623 681.027 51.1816C681.707 49.7402 682.68 48.6211 683.945 47.8242C685.223 47.0273 686.729 46.6289 688.463 46.6289C690.596 46.6289 692.365 47.2676 693.771 48.5449C695.189 49.8223 695.945 51.4805 696.039 53.5195H692.963C692.869 52.2891 692.4 51.2812 691.557 50.4961C690.725 49.6992 689.693 49.3008 688.463 49.3008C686.811 49.3008 685.527 49.8984 684.613 51.0938C683.711 52.2773 683.26 53.9941 683.26 56.2441V56.8594C683.26 59.0508 683.711 60.7383 684.613 61.9219C685.516 63.1055 686.805 63.6973 688.48 63.6973Z" fill="white"/>
<path d="M711.438 64.1191C710.172 65.6074 708.314 66.3516 705.865 66.3516C703.838 66.3516 702.291 65.7656 701.225 64.5938C700.17 63.4102 699.637 61.6641 699.625 59.3555V46.9805H702.877V59.2676C702.877 62.1504 704.049 63.5918 706.393 63.5918C708.877 63.5918 710.529 62.666 711.35 60.8145V46.9805H714.602V66H711.508L711.438 64.1191Z" fill="white"/>
<path d="M731.301 66C731.113 65.625 730.961 64.957 730.844 63.9961C729.332 65.5664 727.527 66.3516 725.43 66.3516C723.555 66.3516 722.014 65.8242 720.807 64.7695C719.611 63.7031 719.014 62.3555 719.014 60.7266C719.014 58.7461 719.764 57.2109 721.264 56.1211C722.775 55.0195 724.896 54.4688 727.627 54.4688H730.791V52.9746C730.791 51.8379 730.451 50.9355 729.771 50.2676C729.092 49.5879 728.09 49.248 726.766 49.248C725.605 49.248 724.633 49.541 723.848 50.127C723.062 50.7129 722.67 51.4219 722.67 52.2539H719.4C719.4 51.3047 719.734 50.3906 720.402 49.5117C721.082 48.6211 721.996 47.918 723.145 47.4023C724.305 46.8867 725.576 46.6289 726.959 46.6289C729.15 46.6289 730.867 47.1797 732.109 48.2812C733.352 49.3711 733.996 50.877 734.043 52.7988V61.5527C734.043 63.2988 734.266 64.6875 734.711 65.7188V66H731.301ZM725.904 63.5215C726.924 63.5215 727.891 63.2578 728.805 62.7305C729.719 62.2031 730.381 61.5176 730.791 60.6738V56.7715H728.242C724.258 56.7715 722.266 57.9375 722.266 60.2695C722.266 61.2891 722.605 62.0859 723.285 62.6602C723.965 63.2344 724.838 63.5215 725.904 63.5215Z" fill="white"/>
<path d="M743.553 42.375V46.9805H747.104V49.4941H743.553V61.2891C743.553 62.0508 743.711 62.625 744.027 63.0117C744.344 63.3867 744.883 63.5742 745.645 63.5742C746.02 63.5742 746.535 63.5039 747.191 63.3633V66C746.336 66.2344 745.504 66.3516 744.695 66.3516C743.242 66.3516 742.146 65.9121 741.408 65.0332C740.67 64.1543 740.301 62.9062 740.301 61.2891V49.4941H736.838V46.9805H740.301V42.375H743.553Z" fill="white"/>
<path d="M760.111 49.8984C759.619 49.8164 759.086 49.7754 758.512 49.7754C756.379 49.7754 754.932 50.6836 754.17 52.5V66H750.918V46.9805H754.082L754.135 49.1777C755.201 47.4785 756.713 46.6289 758.67 46.6289C759.303 46.6289 759.783 46.7109 760.111 46.875V49.8984Z" fill="white"/>
<path d="M761.904 56.3145C761.904 54.4512 762.268 52.7754 762.994 51.2871C763.732 49.7988 764.752 48.6504 766.053 47.8418C767.365 47.0332 768.859 46.6289 770.535 46.6289C773.125 46.6289 775.217 47.5254 776.811 49.3184C778.416 51.1113 779.219 53.4961 779.219 56.4727V56.7012C779.219 58.5527 778.861 60.2168 778.146 61.6934C777.443 63.1582 776.43 64.3008 775.105 65.1211C773.793 65.9414 772.281 66.3516 770.57 66.3516C767.992 66.3516 765.9 65.4551 764.295 63.6621C762.701 61.8691 761.904 59.4961 761.904 56.543V56.3145ZM765.174 56.7012C765.174 58.8105 765.66 60.5039 766.633 61.7812C767.617 63.0586 768.93 63.6973 770.57 63.6973C772.223 63.6973 773.535 63.0527 774.508 61.7637C775.48 60.4629 775.967 58.6465 775.967 56.3145C775.967 54.2285 775.469 52.541 774.473 51.252C773.488 49.9512 772.176 49.3008 770.535 49.3008C768.93 49.3008 767.635 49.9395 766.65 51.2168C765.666 52.4941 765.174 54.3223 765.174 56.7012Z" fill="white"/>
<path d="M808.293 56.7012C808.293 59.5957 807.631 61.9277 806.307 63.6973C804.982 65.4668 803.189 66.3516 800.928 66.3516C798.619 66.3516 796.803 65.6191 795.479 64.1543V73.3125H792.227V46.9805H795.197L795.355 49.0898C796.68 47.4492 798.52 46.6289 800.875 46.6289C803.16 46.6289 804.965 47.4902 806.289 49.2129C807.625 50.9355 808.293 53.332 808.293 56.4023V56.7012ZM805.041 56.332C805.041 54.1875 804.584 52.4941 803.67 51.252C802.756 50.0098 801.502 49.3887 799.908 49.3887C797.939 49.3887 796.463 50.2617 795.479 52.0078V61.0957C796.451 62.8301 797.939 63.6973 799.943 63.6973C801.502 63.6973 802.738 63.082 803.652 61.8516C804.578 60.6094 805.041 58.7695 805.041 56.332Z" fill="white"/>
<path d="M824.184 66C823.996 65.625 823.844 64.957 823.727 63.9961C822.215 65.5664 820.41 66.3516 818.312 66.3516C816.438 66.3516 814.896 65.8242 813.689 64.7695C812.494 63.7031 811.896 62.3555 811.896 60.7266C811.896 58.7461 812.646 57.2109 814.146 56.1211C815.658 55.0195 817.779 54.4688 820.51 54.4688H823.674V52.9746C823.674 51.8379 823.334 50.9355 822.654 50.2676C821.975 49.5879 820.973 49.248 819.648 49.248C818.488 49.248 817.516 49.541 816.73 50.127C815.945 50.7129 815.553 51.4219 815.553 52.2539H812.283C812.283 51.3047 812.617 50.3906 813.285 49.5117C813.965 48.6211 814.879 47.918 816.027 47.4023C817.188 46.8867 818.459 46.6289 819.842 46.6289C822.033 46.6289 823.75 47.1797 824.992 48.2812C826.234 49.3711 826.879 50.877 826.926 52.7988V61.5527C826.926 63.2988 827.148 64.6875 827.594 65.7188V66H824.184ZM818.787 63.5215C819.807 63.5215 820.773 63.2578 821.688 62.7305C822.602 62.2031 823.264 61.5176 823.674 60.6738V56.7715H821.125C817.141 56.7715 815.148 57.9375 815.148 60.2695C815.148 61.2891 815.488 62.0859 816.168 62.6602C816.848 63.2344 817.721 63.5215 818.787 63.5215Z" fill="white"/>
<path d="M843.098 60.9551C843.098 60.0762 842.764 59.3965 842.096 58.916C841.439 58.4238 840.285 58.002 838.633 57.6504C836.992 57.2988 835.686 56.877 834.713 56.3848C833.752 55.8926 833.037 55.3066 832.568 54.627C832.111 53.9473 831.883 53.1387 831.883 52.2012C831.883 50.6426 832.539 49.3242 833.852 48.2461C835.176 47.168 836.863 46.6289 838.914 46.6289C841.07 46.6289 842.816 47.1855 844.152 48.2988C845.5 49.4121 846.174 50.8359 846.174 52.5703H842.904C842.904 51.6797 842.523 50.9121 841.762 50.2676C841.012 49.623 840.062 49.3008 838.914 49.3008C837.73 49.3008 836.805 49.5586 836.137 50.0742C835.469 50.5898 835.135 51.2637 835.135 52.0957C835.135 52.8809 835.445 53.4727 836.066 53.8711C836.688 54.2695 837.807 54.6504 839.424 55.0137C841.053 55.377 842.371 55.8105 843.379 56.3145C844.387 56.8184 845.131 57.4277 845.611 58.1426C846.104 58.8457 846.35 59.707 846.35 60.7266C846.35 62.4258 845.67 63.791 844.311 64.8223C842.951 65.8418 841.188 66.3516 839.02 66.3516C837.496 66.3516 836.148 66.082 834.977 65.543C833.805 65.0039 832.885 64.2539 832.217 63.293C831.561 62.3203 831.232 61.2715 831.232 60.1465H834.484C834.543 61.2363 834.977 62.1035 835.785 62.748C836.605 63.3809 837.684 63.6973 839.02 63.6973C840.25 63.6973 841.234 63.4512 841.973 62.959C842.723 62.4551 843.098 61.7871 843.098 60.9551Z" fill="white"/>
<path d="M849.725 56.3145C849.725 54.4512 850.088 52.7754 850.814 51.2871C851.553 49.7988 852.572 48.6504 853.873 47.8418C855.186 47.0332 856.68 46.6289 858.355 46.6289C860.945 46.6289 863.037 47.5254 864.631 49.3184C866.236 51.1113 867.039 53.4961 867.039 56.4727V56.7012C867.039 58.5527 866.682 60.2168 865.967 61.6934C865.264 63.1582 864.25 64.3008 862.926 65.1211C861.613 65.9414 860.102 66.3516 858.391 66.3516C855.812 66.3516 853.721 65.4551 852.115 63.6621C850.521 61.8691 849.725 59.4961 849.725 56.543V56.3145ZM852.994 56.7012C852.994 58.8105 853.48 60.5039 854.453 61.7812C855.438 63.0586 856.75 63.6973 858.391 63.6973C860.043 63.6973 861.355 63.0527 862.328 61.7637C863.301 60.4629 863.787 58.6465 863.787 56.3145C863.787 54.2285 863.289 52.541 862.293 51.252C861.309 49.9512 859.996 49.3008 858.355 49.3008C856.75 49.3008 855.455 49.9395 854.471 51.2168C853.486 52.4941 852.994 54.3223 852.994 56.7012Z" fill="white"/>
<path d="M882.191 60.9551C882.191 60.0762 881.857 59.3965 881.189 58.916C880.533 58.4238 879.379 58.002 877.727 57.6504C876.086 57.2988 874.779 56.877 873.807 56.3848C872.846 55.8926 872.131 55.3066 871.662 54.627C871.205 53.9473 870.977 53.1387 870.977 52.2012C870.977 50.6426 871.633 49.3242 872.945 48.2461C874.27 47.168 875.957 46.6289 878.008 46.6289C880.164 46.6289 881.91 47.1855 883.246 48.2988C884.594 49.4121 885.268 50.8359 885.268 52.5703H881.998C881.998 51.6797 881.617 50.9121 880.855 50.2676C880.105 49.623 879.156 49.3008 878.008 49.3008C876.824 49.3008 875.898 49.5586 875.23 50.0742C874.562 50.5898 874.229 51.2637 874.229 52.0957C874.229 52.8809 874.539 53.4727 875.16 53.8711C875.781 54.2695 876.9 54.6504 878.518 55.0137C880.146 55.377 881.465 55.8105 882.473 56.3145C883.48 56.8184 884.225 57.4277 884.705 58.1426C885.197 58.8457 885.443 59.707 885.443 60.7266C885.443 62.4258 884.764 63.791 883.404 64.8223C882.045 65.8418 880.281 66.3516 878.113 66.3516C876.59 66.3516 875.242 66.082 874.07 65.543C872.898 65.0039 871.979 64.2539 871.311 63.293C870.654 62.3203 870.326 61.2715 870.326 60.1465H873.578C873.637 61.2363 874.07 62.1035 874.879 62.748C875.699 63.3809 876.777 63.6973 878.113 63.6973C879.344 63.6973 880.328 63.4512 881.066 62.959C881.816 62.4551 882.191 61.7871 882.191 60.9551Z" fill="white"/>
<path d="M123.52 88.9805L123.607 91.0898C125.002 89.4492 126.883 88.6289 129.25 88.6289C131.91 88.6289 133.721 89.6484 134.682 91.6875C135.314 90.7734 136.135 90.0352 137.143 89.4727C138.162 88.9102 139.363 88.6289 140.746 88.6289C144.918 88.6289 147.039 90.8379 147.109 95.2559V108H143.857V95.4492C143.857 94.0898 143.547 93.0762 142.926 92.4082C142.305 91.7285 141.262 91.3887 139.797 91.3887C138.59 91.3887 137.588 91.752 136.791 92.4785C135.994 93.1934 135.531 94.1602 135.402 95.3789V108H132.133V95.5371C132.133 92.7715 130.779 91.3887 128.072 91.3887C125.939 91.3887 124.48 92.2969 123.695 94.1133V108H120.443V88.9805H123.52Z" fill="white"/>
<path d="M163.773 108C163.586 107.625 163.434 106.957 163.316 105.996C161.805 107.566 160 108.352 157.902 108.352C156.027 108.352 154.486 107.824 153.279 106.77C152.084 105.703 151.486 104.355 151.486 102.727C151.486 100.746 152.236 99.2109 153.736 98.1211C155.248 97.0195 157.369 96.4688 160.1 96.4688H163.264V94.9746C163.264 93.8379 162.924 92.9355 162.244 92.2676C161.564 91.5879 160.562 91.248 159.238 91.248C158.078 91.248 157.105 91.541 156.32 92.127C155.535 92.7129 155.143 93.4219 155.143 94.2539H151.873C151.873 93.3047 152.207 92.3906 152.875 91.5117C153.555 90.6211 154.469 89.918 155.617 89.4023C156.777 88.8867 158.049 88.6289 159.432 88.6289C161.623 88.6289 163.34 89.1797 164.582 90.2812C165.824 91.3711 166.469 92.877 166.516 94.7988V103.553C166.516 105.299 166.738 106.688 167.184 107.719V108H163.773ZM158.377 105.521C159.396 105.521 160.363 105.258 161.277 104.73C162.191 104.203 162.854 103.518 163.264 102.674V98.7715H160.715C156.73 98.7715 154.738 99.9375 154.738 102.27C154.738 103.289 155.078 104.086 155.758 104.66C156.438 105.234 157.311 105.521 158.377 105.521ZM161.383 81H165.32L160.609 86.168H157.99L161.383 81Z" fill="white"/>
<path d="M182.688 102.955C182.688 102.076 182.354 101.396 181.686 100.916C181.029 100.424 179.875 100.002 178.223 99.6504C176.582 99.2988 175.275 98.877 174.303 98.3848C173.342 97.8926 172.627 97.3066 172.158 96.627C171.701 95.9473 171.473 95.1387 171.473 94.2012C171.473 92.6426 172.129 91.3242 173.441 90.2461C174.766 89.168 176.453 88.6289 178.504 88.6289C180.66 88.6289 182.406 89.1855 183.742 90.2988C185.09 91.4121 185.764 92.8359 185.764 94.5703H182.494C182.494 93.6797 182.113 92.9121 181.352 92.2676C180.602 91.623 179.652 91.3008 178.504 91.3008C177.32 91.3008 176.395 91.5586 175.727 92.0742C175.059 92.5898 174.725 93.2637 174.725 94.0957C174.725 94.8809 175.035 95.4727 175.656 95.8711C176.277 96.2695 177.396 96.6504 179.014 97.0137C180.643 97.377 181.961 97.8105 182.969 98.3145C183.977 98.8184 184.721 99.4277 185.201 100.143C185.693 100.846 185.939 101.707 185.939 102.727C185.939 104.426 185.26 105.791 183.9 106.822C182.541 107.842 180.777 108.352 178.609 108.352C177.086 108.352 175.738 108.082 174.566 107.543C173.395 107.004 172.475 106.254 171.807 105.293C171.15 104.32 170.822 103.271 170.822 102.146H174.074C174.133 103.236 174.566 104.104 175.375 104.748C176.195 105.381 177.273 105.697 178.609 105.697C179.84 105.697 180.824 105.451 181.562 104.959C182.312 104.455 182.688 103.787 182.688 102.955Z" fill="white"/>
<path d="M198.314 98.332C198.314 95.3438 199 92.9824 200.371 91.248C201.742 89.502 203.582 88.6289 205.891 88.6289C208.141 88.6289 209.916 89.3848 211.217 90.8965L211.357 88.9805H214.346V115.312H211.094V106.242C209.781 107.648 208.035 108.352 205.855 108.352C203.559 108.352 201.725 107.461 200.354 105.68C198.994 103.887 198.314 101.514 198.314 98.5605V98.332ZM201.566 98.7012C201.566 100.881 202.023 102.592 202.938 103.834C203.863 105.076 205.105 105.697 206.664 105.697C208.598 105.697 210.074 104.842 211.094 103.131V93.8145C210.062 92.1387 208.598 91.3008 206.699 91.3008C205.129 91.3008 203.881 91.9277 202.955 93.1816C202.029 94.4238 201.566 96.2637 201.566 98.7012Z" fill="white"/>
<path d="M231.309 106.119C230.043 107.607 228.186 108.352 225.736 108.352C223.709 108.352 222.162 107.766 221.096 106.594C220.041 105.41 219.508 103.664 219.496 101.355V88.9805H222.748V101.268C222.748 104.15 223.92 105.592 226.264 105.592C228.748 105.592 230.4 104.666 231.221 102.814V88.9805H234.473V108H231.379L231.309 106.119Z" fill="white"/>
<path d="M247.322 108.352C244.744 108.352 242.646 107.508 241.029 105.82C239.412 104.121 238.604 101.854 238.604 99.0176V98.4199C238.604 96.5332 238.961 94.8516 239.676 93.375C240.402 91.8867 241.41 90.7266 242.699 89.8945C244 89.0508 245.406 88.6289 246.918 88.6289C249.391 88.6289 251.312 89.4434 252.684 91.0723C254.055 92.7012 254.74 95.0332 254.74 98.0684V99.4219H241.855C241.902 101.297 242.447 102.814 243.49 103.975C244.545 105.123 245.881 105.697 247.498 105.697C248.646 105.697 249.619 105.463 250.416 104.994C251.213 104.525 251.91 103.904 252.508 103.131L254.494 104.678C252.9 107.127 250.51 108.352 247.322 108.352ZM246.918 91.3008C245.605 91.3008 244.504 91.7812 243.613 92.7422C242.723 93.6914 242.172 95.0273 241.961 96.75H251.488V96.5039C251.395 94.8516 250.949 93.5742 250.152 92.6719C249.355 91.7578 248.277 91.3008 246.918 91.3008Z" fill="white"/>
<path d="M278.523 102.955C278.523 102.076 278.189 101.396 277.521 100.916C276.865 100.424 275.711 100.002 274.059 99.6504C272.418 99.2988 271.111 98.877 270.139 98.3848C269.178 97.8926 268.463 97.3066 267.994 96.627C267.537 95.9473 267.309 95.1387 267.309 94.2012C267.309 92.6426 267.965 91.3242 269.277 90.2461C270.602 89.168 272.289 88.6289 274.34 88.6289C276.496 88.6289 278.242 89.1855 279.578 90.2988C280.926 91.4121 281.6 92.8359 281.6 94.5703H278.33C278.33 93.6797 277.949 92.9121 277.188 92.2676C276.438 91.623 275.488 91.3008 274.34 91.3008C273.156 91.3008 272.23 91.5586 271.562 92.0742C270.895 92.5898 270.561 93.2637 270.561 94.0957C270.561 94.8809 270.871 95.4727 271.492 95.8711C272.113 96.2695 273.232 96.6504 274.85 97.0137C276.479 97.377 277.797 97.8105 278.805 98.3145C279.812 98.8184 280.557 99.4277 281.037 100.143C281.529 100.846 281.775 101.707 281.775 102.727C281.775 104.426 281.096 105.791 279.736 106.822C278.377 107.842 276.613 108.352 274.445 108.352C272.922 108.352 271.574 108.082 270.402 107.543C269.23 107.004 268.311 106.254 267.643 105.293C266.986 104.32 266.658 103.271 266.658 102.146H269.91C269.969 103.236 270.402 104.104 271.211 104.748C272.031 105.381 273.109 105.697 274.445 105.697C275.676 105.697 276.66 105.451 277.398 104.959C278.148 104.455 278.523 103.787 278.523 102.955Z" fill="white"/>
<path d="M297.754 106.119C296.488 107.607 294.631 108.352 292.182 108.352C290.154 108.352 288.607 107.766 287.541 106.594C286.486 105.41 285.953 103.664 285.941 101.355V88.9805H289.193V101.268C289.193 104.15 290.365 105.592 292.709 105.592C295.193 105.592 296.846 104.666 297.666 102.814V88.9805H300.918V108H297.824L297.754 106.119Z" fill="white"/>
<path d="M321.977 98.7012C321.977 101.607 321.309 103.945 319.973 105.715C318.637 107.473 316.844 108.352 314.594 108.352C312.191 108.352 310.334 107.502 309.021 105.803L308.863 108H305.875V81H309.127V91.0723C310.439 89.4434 312.25 88.6289 314.559 88.6289C316.867 88.6289 318.678 89.502 319.99 91.248C321.314 92.9941 321.977 95.3848 321.977 98.4199V98.7012ZM318.725 98.332C318.725 96.1172 318.297 94.4062 317.441 93.1992C316.586 91.9922 315.355 91.3887 313.75 91.3887C311.605 91.3887 310.064 92.3848 309.127 94.377V102.604C310.123 104.596 311.676 105.592 313.785 105.592C315.344 105.592 316.557 104.988 317.424 103.781C318.291 102.574 318.725 100.758 318.725 98.332Z" fill="white"/>
<path d="M329.623 108H326.371V88.9805H329.623V108ZM326.107 83.9355C326.107 83.4082 326.266 82.9629 326.582 82.5996C326.91 82.2363 327.391 82.0547 328.023 82.0547C328.656 82.0547 329.137 82.2363 329.465 82.5996C329.793 82.9629 329.957 83.4082 329.957 83.9355C329.957 84.4629 329.793 84.9023 329.465 85.2539C329.137 85.6055 328.656 85.7812 328.023 85.7812C327.391 85.7812 326.91 85.6055 326.582 85.2539C326.266 84.9023 326.107 84.4629 326.107 83.9355Z" fill="white"/>
<path d="M342.736 108.352C340.158 108.352 338.061 107.508 336.443 105.82C334.826 104.121 334.018 101.854 334.018 99.0176V98.4199C334.018 96.5332 334.375 94.8516 335.09 93.375C335.816 91.8867 336.824 90.7266 338.113 89.8945C339.414 89.0508 340.82 88.6289 342.332 88.6289C344.805 88.6289 346.727 89.4434 348.098 91.0723C349.469 92.7012 350.154 95.0332 350.154 98.0684V99.4219H337.27C337.316 101.297 337.861 102.814 338.904 103.975C339.959 105.123 341.295 105.697 342.912 105.697C344.061 105.697 345.033 105.463 345.83 104.994C346.627 104.525 347.324 103.904 347.922 103.131L349.908 104.678C348.314 107.127 345.924 108.352 342.736 108.352ZM342.332 91.3008C341.02 91.3008 339.918 91.7812 339.027 92.7422C338.137 93.6914 337.586 95.0273 337.375 96.75H346.902V96.5039C346.809 94.8516 346.363 93.5742 345.566 92.6719C344.77 91.7578 343.691 91.3008 342.332 91.3008Z" fill="white"/>
<path d="M357.01 88.9805L357.115 91.3711C358.568 89.543 360.467 88.6289 362.811 88.6289C366.83 88.6289 368.857 90.8965 368.893 95.4316V108H365.641V95.4141C365.629 94.043 365.312 93.0293 364.691 92.373C364.082 91.7168 363.127 91.3887 361.826 91.3887C360.771 91.3887 359.846 91.6699 359.049 92.2324C358.252 92.7949 357.631 93.5332 357.186 94.4473V108H353.934V88.9805H357.01Z" fill="white"/>
<path d="M373.006 98.332C373.006 95.4141 373.697 93.0703 375.08 91.3008C376.463 89.5195 378.273 88.6289 380.512 88.6289C382.738 88.6289 384.502 89.3906 385.803 90.9141V81H389.055V108H386.066L385.908 105.961C384.607 107.555 382.797 108.352 380.477 108.352C378.273 108.352 376.475 107.449 375.08 105.645C373.697 103.84 373.006 101.484 373.006 98.5781V98.332ZM376.258 98.7012C376.258 100.857 376.703 102.545 377.594 103.764C378.484 104.982 379.715 105.592 381.285 105.592C383.348 105.592 384.854 104.666 385.803 102.814V94.0781C384.83 92.2852 383.336 91.3887 381.32 91.3887C379.727 91.3887 378.484 92.0039 377.594 93.2344C376.703 94.4648 376.258 96.2871 376.258 98.7012Z" fill="white"/>
<path d="M393.256 98.3145C393.256 96.4512 393.619 94.7754 394.346 93.2871C395.084 91.7988 396.104 90.6504 397.404 89.8418C398.717 89.0332 400.211 88.6289 401.887 88.6289C404.477 88.6289 406.568 89.5254 408.162 91.3184C409.768 93.1113 410.57 95.4961 410.57 98.4727V98.7012C410.57 100.553 410.213 102.217 409.498 103.693C408.795 105.158 407.781 106.301 406.457 107.121C405.145 107.941 403.633 108.352 401.922 108.352C399.344 108.352 397.252 107.455 395.646 105.662C394.053 103.869 393.256 101.496 393.256 98.543V98.3145ZM396.525 98.7012C396.525 100.811 397.012 102.504 397.984 103.781C398.969 105.059 400.281 105.697 401.922 105.697C403.574 105.697 404.887 105.053 405.859 103.764C406.832 102.463 407.318 100.646 407.318 98.3145C407.318 96.2285 406.82 94.541 405.824 93.252C404.84 91.9512 403.527 91.3008 401.887 91.3008C400.281 91.3008 398.986 91.9395 398.002 93.2168C397.018 94.4941 396.525 96.3223 396.525 98.7012Z" fill="white"/>
<path d="M422.787 98.332C422.787 95.4141 423.479 93.0703 424.861 91.3008C426.244 89.5195 428.055 88.6289 430.293 88.6289C432.52 88.6289 434.283 89.3906 435.584 90.9141V81H438.836V108H435.848L435.689 105.961C434.389 107.555 432.578 108.352 430.258 108.352C428.055 108.352 426.256 107.449 424.861 105.645C423.479 103.84 422.787 101.484 422.787 98.5781V98.332ZM426.039 98.7012C426.039 100.857 426.484 102.545 427.375 103.764C428.266 104.982 429.496 105.592 431.066 105.592C433.129 105.592 434.635 104.666 435.584 102.814V94.0781C434.611 92.2852 433.117 91.3887 431.102 91.3887C429.508 91.3887 428.266 92.0039 427.375 93.2344C426.484 94.4648 426.039 96.2871 426.039 98.7012Z" fill="white"/>
<path d="M451.791 108.352C449.213 108.352 447.115 107.508 445.498 105.82C443.881 104.121 443.072 101.854 443.072 99.0176V98.4199C443.072 96.5332 443.43 94.8516 444.145 93.375C444.871 91.8867 445.879 90.7266 447.168 89.8945C448.469 89.0508 449.875 88.6289 451.387 88.6289C453.859 88.6289 455.781 89.4434 457.152 91.0723C458.523 92.7012 459.209 95.0332 459.209 98.0684V99.4219H446.324C446.371 101.297 446.916 102.814 447.959 103.975C449.014 105.123 450.35 105.697 451.967 105.697C453.115 105.697 454.088 105.463 454.885 104.994C455.682 104.525 456.379 103.904 456.977 103.131L458.963 104.678C457.369 107.127 454.979 108.352 451.791 108.352ZM451.387 91.3008C450.074 91.3008 448.973 91.7812 448.082 92.7422C447.191 93.6914 446.641 95.0273 446.43 96.75H455.957V96.5039C455.863 94.8516 455.418 93.5742 454.621 92.6719C453.824 91.7578 452.746 91.3008 451.387 91.3008Z" fill="white"/>
<path d="M484.346 82.3887V85.1484H483.748C481.217 85.1953 479.201 85.9453 477.701 87.3984C476.201 88.8516 475.334 90.8965 475.1 93.5332C476.447 91.9863 478.287 91.2129 480.619 91.2129C482.846 91.2129 484.621 91.998 485.945 93.5684C487.281 95.1387 487.949 97.166 487.949 99.6504C487.949 102.287 487.229 104.396 485.787 105.979C484.357 107.561 482.436 108.352 480.021 108.352C477.572 108.352 475.586 107.414 474.062 105.539C472.539 103.652 471.777 101.227 471.777 98.2617V97.0137C471.777 92.3027 472.779 88.7051 474.783 86.2207C476.799 83.7246 479.793 82.4473 483.766 82.3887H484.346ZM480.074 93.9199C478.961 93.9199 477.936 94.2539 476.998 94.9219C476.061 95.5898 475.41 96.4277 475.047 97.4355V98.6309C475.047 100.74 475.521 102.439 476.471 103.729C477.42 105.018 478.604 105.662 480.021 105.662C481.486 105.662 482.635 105.123 483.467 104.045C484.311 102.967 484.732 101.555 484.732 99.8086C484.732 98.0508 484.305 96.6328 483.449 95.5547C482.605 94.4648 481.48 93.9199 480.074 93.9199Z" fill="white"/>
<path d="M508.955 108.352C506.377 108.352 504.279 107.508 502.662 105.82C501.045 104.121 500.236 101.854 500.236 99.0176V98.4199C500.236 96.5332 500.594 94.8516 501.309 93.375C502.035 91.8867 503.043 90.7266 504.332 89.8945C505.633 89.0508 507.039 88.6289 508.551 88.6289C511.023 88.6289 512.945 89.4434 514.316 91.0723C515.688 92.7012 516.373 95.0332 516.373 98.0684V99.4219H503.488C503.535 101.297 504.08 102.814 505.123 103.975C506.178 105.123 507.514 105.697 509.131 105.697C510.279 105.697 511.252 105.463 512.049 104.994C512.846 104.525 513.543 103.904 514.141 103.131L516.127 104.678C514.533 107.127 512.143 108.352 508.955 108.352ZM508.551 91.3008C507.238 91.3008 506.137 91.7812 505.246 92.7422C504.355 93.6914 503.805 95.0273 503.594 96.75H513.121V96.5039C513.027 94.8516 512.582 93.5742 511.785 92.6719C510.988 91.7578 509.91 91.3008 508.551 91.3008Z" fill="white"/>
<path d="M523.229 88.9805L523.334 91.3711C524.787 89.543 526.686 88.6289 529.029 88.6289C533.049 88.6289 535.076 90.8965 535.111 95.4316V108H531.859V95.4141C531.848 94.043 531.531 93.0293 530.91 92.373C530.301 91.7168 529.346 91.3887 528.045 91.3887C526.99 91.3887 526.064 91.6699 525.268 92.2324C524.471 92.7949 523.85 93.5332 523.404 94.4473V108H520.152V88.9805H523.229Z" fill="white"/>
<path d="M561.373 82.3887V85.1484H560.775C558.244 85.1953 556.229 85.9453 554.729 87.3984C553.229 88.8516 552.361 90.8965 552.127 93.5332C553.475 91.9863 555.314 91.2129 557.646 91.2129C559.873 91.2129 561.648 91.998 562.973 93.5684C564.309 95.1387 564.977 97.166 564.977 99.6504C564.977 102.287 564.256 104.396 562.814 105.979C561.385 107.561 559.463 108.352 557.049 108.352C554.6 108.352 552.613 107.414 551.09 105.539C549.566 103.652 548.805 101.227 548.805 98.2617V97.0137C548.805 92.3027 549.807 88.7051 551.811 86.2207C553.826 83.7246 556.82 82.4473 560.793 82.3887H561.373ZM557.102 93.9199C555.988 93.9199 554.963 94.2539 554.025 94.9219C553.088 95.5898 552.438 96.4277 552.074 97.4355V98.6309C552.074 100.74 552.549 102.439 553.498 103.729C554.447 105.018 555.631 105.662 557.049 105.662C558.514 105.662 559.662 105.123 560.494 104.045C561.338 102.967 561.76 101.555 561.76 99.8086C561.76 98.0508 561.332 96.6328 560.477 95.5547C559.633 94.4648 558.508 93.9199 557.102 93.9199Z" fill="white"/>
<path d="M569.055 113.098L567.209 111.832C568.311 110.297 568.885 108.715 568.932 107.086V104.15H572.113V106.699C572.113 107.883 571.82 109.066 571.234 110.25C570.66 111.434 569.934 112.383 569.055 113.098Z" fill="white"/>
<path d="M593.031 96.0469C593.02 97.2891 592.891 98.2852 592.645 99.0352C592.41 99.7734 592.012 100.488 591.449 101.18C590.887 101.871 590.066 102.785 588.988 103.922C587.91 105.047 587.307 106.189 587.178 107.35L587.143 108C587.143 109.277 587.482 110.25 588.162 110.918C588.842 111.598 589.82 111.938 591.098 111.938C592.27 111.938 593.219 111.604 593.945 110.936C594.684 110.279 595.053 109.418 595.053 108.352H598.305C598.281 110.238 597.607 111.779 596.283 112.975C594.971 114.17 593.242 114.768 591.098 114.768C588.801 114.768 587.025 114.176 585.771 112.992C584.518 111.82 583.891 110.186 583.891 108.088C583.891 106.061 584.828 104.021 586.703 101.971L588.619 99.9844C589.393 99.0703 589.779 97.7578 589.779 96.0469H593.031ZM593.172 90.4746C593.172 91.002 593.008 91.4473 592.68 91.8105C592.363 92.1738 591.889 92.3555 591.256 92.3555C590.623 92.3555 590.143 92.1738 589.814 91.8105C589.486 91.4473 589.322 91.002 589.322 90.4746C589.322 89.959 589.486 89.5254 589.814 89.1738C590.143 88.8223 590.623 88.6465 591.256 88.6465C591.889 88.6465 592.363 88.8223 592.68 89.1738C593.008 89.5254 593.172 89.959 593.172 90.4746Z" fill="white"/>
<path d="M621.543 99.8789C621.227 102.586 620.225 104.678 618.537 106.154C616.861 107.619 614.629 108.352 611.84 108.352C608.816 108.352 606.391 107.268 604.562 105.1C602.746 102.932 601.838 100.031 601.838 96.3984V93.9375C601.838 91.5586 602.26 89.4668 603.104 87.6621C603.959 85.8574 605.166 84.4746 606.725 83.5137C608.283 82.541 610.088 82.0547 612.139 82.0547C614.857 82.0547 617.037 82.8164 618.678 84.3398C620.318 85.8516 621.273 87.9492 621.543 90.6328H618.15C617.857 88.5938 617.219 87.1172 616.234 86.2031C615.262 85.2891 613.896 84.832 612.139 84.832C609.982 84.832 608.289 85.6289 607.059 87.2227C605.84 88.8164 605.23 91.084 605.23 94.0254V96.5039C605.23 99.2812 605.811 101.49 606.971 103.131C608.131 104.771 609.754 105.592 611.84 105.592C613.715 105.592 615.15 105.17 616.146 104.326C617.154 103.471 617.822 101.988 618.15 99.8789H621.543Z" fill="white"/>
<path d="M637.398 106.119C636.133 107.607 634.275 108.352 631.826 108.352C629.799 108.352 628.252 107.766 627.186 106.594C626.131 105.41 625.598 103.664 625.586 101.355V88.9805H628.838V101.268C628.838 104.15 630.01 105.592 632.354 105.592C634.838 105.592 636.49 104.666 637.311 102.814V88.9805H640.562V108H637.469L637.398 106.119Z" fill="white"/>
<path d="M657.262 108C657.074 107.625 656.922 106.957 656.805 105.996C655.293 107.566 653.488 108.352 651.391 108.352C649.516 108.352 647.975 107.824 646.768 106.77C645.572 105.703 644.975 104.355 644.975 102.727C644.975 100.746 645.725 99.2109 647.225 98.1211C648.736 97.0195 650.857 96.4688 653.588 96.4688H656.752V94.9746C656.752 93.8379 656.412 92.9355 655.732 92.2676C655.053 91.5879 654.051 91.248 652.727 91.248C651.566 91.248 650.594 91.541 649.809 92.127C649.023 92.7129 648.631 93.4219 648.631 94.2539H645.361C645.361 93.3047 645.695 92.3906 646.363 91.5117C647.043 90.6211 647.957 89.918 649.105 89.4023C650.266 88.8867 651.537 88.6289 652.92 88.6289C655.111 88.6289 656.828 89.1797 658.07 90.2812C659.312 91.3711 659.957 92.877 660.004 94.7988V103.553C660.004 105.299 660.227 106.688 660.672 107.719V108H657.262ZM651.865 105.521C652.885 105.521 653.852 105.258 654.766 104.73C655.68 104.203 656.342 103.518 656.752 102.674V98.7715H654.203C650.219 98.7715 648.227 99.9375 648.227 102.27C648.227 103.289 648.566 104.086 649.246 104.66C649.926 105.234 650.799 105.521 651.865 105.521ZM654.871 81H658.809L654.098 86.168H651.479L654.871 81Z" fill="white"/>
<path d="M668.178 88.9805L668.283 91.3711C669.736 89.543 671.635 88.6289 673.979 88.6289C677.998 88.6289 680.025 90.8965 680.061 95.4316V108H676.809V95.4141C676.797 94.043 676.48 93.0293 675.859 92.373C675.25 91.7168 674.295 91.3887 672.994 91.3887C671.939 91.3887 671.014 91.6699 670.217 92.2324C669.42 92.7949 668.799 93.5332 668.354 94.4473V108H665.102V88.9805H668.178Z" fill="white"/>
<path d="M689.377 84.375V88.9805H692.928V91.4941H689.377V103.289C689.377 104.051 689.535 104.625 689.852 105.012C690.168 105.387 690.707 105.574 691.469 105.574C691.844 105.574 692.359 105.504 693.016 105.363V108C692.16 108.234 691.328 108.352 690.52 108.352C689.066 108.352 687.971 107.912 687.232 107.033C686.494 106.154 686.125 104.906 686.125 103.289V91.4941H682.662V88.9805H686.125V84.375H689.377Z" fill="white"/>
<path d="M695.529 98.3145C695.529 96.4512 695.893 94.7754 696.619 93.2871C697.357 91.7988 698.377 90.6504 699.678 89.8418C700.99 89.0332 702.484 88.6289 704.16 88.6289C706.75 88.6289 708.842 89.5254 710.436 91.3184C712.041 93.1113 712.844 95.4961 712.844 98.4727V98.7012C712.844 100.553 712.486 102.217 711.771 103.693C711.068 105.158 710.055 106.301 708.73 107.121C707.418 107.941 705.906 108.352 704.195 108.352C701.617 108.352 699.525 107.455 697.92 105.662C696.326 103.869 695.529 101.496 695.529 98.543V98.3145ZM698.799 98.7012C698.799 100.811 699.285 102.504 700.258 103.781C701.242 105.059 702.555 105.697 704.195 105.697C705.848 105.697 707.16 105.053 708.133 103.764C709.105 102.463 709.592 100.646 709.592 98.3145C709.592 96.2285 709.094 94.541 708.098 93.252C707.113 91.9512 705.801 91.3008 704.16 91.3008C702.555 91.3008 701.26 91.9395 700.275 93.2168C699.291 94.4941 698.799 96.3223 698.799 98.7012Z" fill="white"/>
<path d="M727.996 102.955C727.996 102.076 727.662 101.396 726.994 100.916C726.338 100.424 725.184 100.002 723.531 99.6504C721.891 99.2988 720.584 98.877 719.611 98.3848C718.65 97.8926 717.936 97.3066 717.467 96.627C717.01 95.9473 716.781 95.1387 716.781 94.2012C716.781 92.6426 717.438 91.3242 718.75 90.2461C720.074 89.168 721.762 88.6289 723.812 88.6289C725.969 88.6289 727.715 89.1855 729.051 90.2988C730.398 91.4121 731.072 92.8359 731.072 94.5703H727.803C727.803 93.6797 727.422 92.9121 726.66 92.2676C725.91 91.623 724.961 91.3008 723.812 91.3008C722.629 91.3008 721.703 91.5586 721.035 92.0742C720.367 92.5898 720.033 93.2637 720.033 94.0957C720.033 94.8809 720.344 95.4727 720.965 95.8711C721.586 96.2695 722.705 96.6504 724.322 97.0137C725.951 97.377 727.27 97.8105 728.277 98.3145C729.285 98.8184 730.029 99.4277 730.51 100.143C731.002 100.846 731.248 101.707 731.248 102.727C731.248 104.426 730.568 105.791 729.209 106.822C727.85 107.842 726.086 108.352 723.918 108.352C722.395 108.352 721.047 108.082 719.875 107.543C718.703 107.004 717.783 106.254 717.115 105.293C716.459 104.32 716.131 103.271 716.131 102.146H719.383C719.441 103.236 719.875 104.104 720.684 104.748C721.504 105.381 722.582 105.697 723.918 105.697C725.148 105.697 726.133 105.451 726.871 104.959C727.621 104.455 727.996 103.787 727.996 102.955Z" fill="white"/>
<path d="M752.307 108.352C749.729 108.352 747.631 107.508 746.014 105.82C744.396 104.121 743.588 101.854 743.588 99.0176V98.4199C743.588 96.5332 743.945 94.8516 744.66 93.375C745.387 91.8867 746.395 90.7266 747.684 89.8945C748.984 89.0508 750.391 88.6289 751.902 88.6289C754.375 88.6289 756.297 89.4434 757.668 91.0723C759.039 92.7012 759.725 95.0332 759.725 98.0684V99.4219H746.84C746.887 101.297 747.432 102.814 748.475 103.975C749.529 105.123 750.865 105.697 752.482 105.697C753.631 105.697 754.604 105.463 755.4 104.994C756.197 104.525 756.895 103.904 757.492 103.131L759.479 104.678C757.885 107.127 755.494 108.352 752.307 108.352ZM751.902 91.3008C750.59 91.3008 749.488 91.7812 748.598 92.7422C747.707 93.6914 747.156 95.0273 746.945 96.75H756.473V96.5039C756.379 94.8516 755.934 93.5742 755.137 92.6719C754.34 91.7578 753.262 91.3008 751.902 91.3008Z" fill="white"/>
<path d="M774.578 102.955C774.578 102.076 774.244 101.396 773.576 100.916C772.92 100.424 771.766 100.002 770.113 99.6504C768.473 99.2988 767.166 98.877 766.193 98.3848C765.232 97.8926 764.518 97.3066 764.049 96.627C763.592 95.9473 763.363 95.1387 763.363 94.2012C763.363 92.6426 764.02 91.3242 765.332 90.2461C766.656 89.168 768.344 88.6289 770.395 88.6289C772.551 88.6289 774.297 89.1855 775.633 90.2988C776.98 91.4121 777.654 92.8359 777.654 94.5703H774.385C774.385 93.6797 774.004 92.9121 773.242 92.2676C772.492 91.623 771.543 91.3008 770.395 91.3008C769.211 91.3008 768.285 91.5586 767.617 92.0742C766.949 92.5898 766.615 93.2637 766.615 94.0957C766.615 94.8809 766.926 95.4727 767.547 95.8711C768.168 96.2695 769.287 96.6504 770.904 97.0137C772.533 97.377 773.852 97.8105 774.859 98.3145C775.867 98.8184 776.611 99.4277 777.092 100.143C777.584 100.846 777.83 101.707 777.83 102.727C777.83 104.426 777.15 105.791 775.791 106.822C774.432 107.842 772.668 108.352 770.5 108.352C768.977 108.352 767.629 108.082 766.457 107.543C765.285 107.004 764.365 106.254 763.697 105.293C763.041 104.32 762.713 103.271 762.713 102.146H765.965C766.023 103.236 766.457 104.104 767.266 104.748C768.086 105.381 769.164 105.697 770.5 105.697C771.73 105.697 772.715 105.451 773.453 104.959C774.203 104.455 774.578 103.787 774.578 102.955Z" fill="white"/>
<path d="M789.695 105.697C790.855 105.697 791.869 105.346 792.736 104.643C793.604 103.939 794.084 103.061 794.178 102.006H797.254C797.195 103.096 796.82 104.133 796.129 105.117C795.438 106.102 794.512 106.887 793.352 107.473C792.203 108.059 790.984 108.352 789.695 108.352C787.105 108.352 785.043 107.49 783.508 105.768C781.984 104.033 781.223 101.666 781.223 98.666V98.1211C781.223 96.2695 781.562 94.623 782.242 93.1816C782.922 91.7402 783.895 90.6211 785.16 89.8242C786.438 89.0273 787.943 88.6289 789.678 88.6289C791.811 88.6289 793.58 89.2676 794.986 90.5449C796.404 91.8223 797.16 93.4805 797.254 95.5195H794.178C794.084 94.2891 793.615 93.2812 792.771 92.4961C791.939 91.6992 790.908 91.3008 789.678 91.3008C788.025 91.3008 786.742 91.8984 785.828 93.0938C784.926 94.2773 784.475 95.9941 784.475 98.2441V98.8594C784.475 101.051 784.926 102.738 785.828 103.922C786.73 105.105 788.02 105.697 789.695 105.697Z" fill="white"/>
<path d="M812.652 108C812.465 107.625 812.312 106.957 812.195 105.996C810.684 107.566 808.879 108.352 806.781 108.352C804.906 108.352 803.365 107.824 802.158 106.77C800.963 105.703 800.365 104.355 800.365 102.727C800.365 100.746 801.115 99.2109 802.615 98.1211C804.127 97.0195 806.248 96.4688 808.979 96.4688H812.143V94.9746C812.143 93.8379 811.803 92.9355 811.123 92.2676C810.443 91.5879 809.441 91.248 808.117 91.248C806.957 91.248 805.984 91.541 805.199 92.127C804.414 92.7129 804.021 93.4219 804.021 94.2539H800.752C800.752 93.3047 801.086 92.3906 801.754 91.5117C802.434 90.6211 803.348 89.918 804.496 89.4023C805.656 88.8867 806.928 88.6289 808.311 88.6289C810.502 88.6289 812.219 89.1797 813.461 90.2812C814.703 91.3711 815.348 92.877 815.395 94.7988V103.553C815.395 105.299 815.617 106.688 816.062 107.719V108H812.652ZM807.256 105.521C808.275 105.521 809.242 105.258 810.156 104.73C811.07 104.203 811.732 103.518 812.143 102.674V98.7715H809.594C805.609 98.7715 803.617 99.9375 803.617 102.27C803.617 103.289 803.957 104.086 804.637 104.66C805.316 105.234 806.189 105.521 807.256 105.521Z" fill="white"/>
<path d="M824.025 108H820.773V81H824.025V108Z" fill="white"/>
<path d="M828.385 98.3145C828.385 96.4512 828.748 94.7754 829.475 93.2871C830.213 91.7988 831.232 90.6504 832.533 89.8418C833.846 89.0332 835.34 88.6289 837.016 88.6289C839.605 88.6289 841.697 89.5254 843.291 91.3184C844.896 93.1113 845.699 95.4961 845.699 98.4727V98.7012C845.699 100.553 845.342 102.217 844.627 103.693C843.924 105.158 842.91 106.301 841.586 107.121C840.273 107.941 838.762 108.352 837.051 108.352C834.473 108.352 832.381 107.455 830.775 105.662C829.182 103.869 828.385 101.496 828.385 98.543V98.3145ZM831.654 98.7012C831.654 100.811 832.141 102.504 833.113 103.781C834.098 105.059 835.41 105.697 837.051 105.697C838.703 105.697 840.016 105.053 840.988 103.764C841.961 102.463 842.447 100.646 842.447 98.3145C842.447 96.2285 841.949 94.541 840.953 93.252C839.969 91.9512 838.656 91.3008 837.016 91.3008C835.41 91.3008 834.115 91.9395 833.131 93.2168C832.146 94.4941 831.654 96.3223 831.654 98.7012Z" fill="white"/>
<path d="M852.854 88.9805L852.959 91.3711C854.412 89.543 856.311 88.6289 858.654 88.6289C862.674 88.6289 864.701 90.8965 864.736 95.4316V108H861.484V95.4141C861.473 94.043 861.156 93.0293 860.535 92.373C859.926 91.7168 858.971 91.3887 857.67 91.3887C856.615 91.3887 855.689 91.6699 854.893 92.2324C854.096 92.7949 853.475 93.5332 853.029 94.4473V108H849.777V88.9805H852.854Z" fill="white"/>
<path d="M877.533 108.352C874.955 108.352 872.857 107.508 871.24 105.82C869.623 104.121 868.814 101.854 868.814 99.0176V98.4199C868.814 96.5332 869.172 94.8516 869.887 93.375C870.613 91.8867 871.621 90.7266 872.91 89.8945C874.211 89.0508 875.617 88.6289 877.129 88.6289C879.602 88.6289 881.523 89.4434 882.895 91.0723C884.266 92.7012 884.951 95.0332 884.951 98.0684V99.4219H872.066C872.113 101.297 872.658 102.814 873.701 103.975C874.756 105.123 876.092 105.697 877.709 105.697C878.857 105.697 879.83 105.463 880.627 104.994C881.424 104.525 882.121 103.904 882.719 103.131L884.705 104.678C883.111 107.127 880.721 108.352 877.533 108.352ZM877.129 91.3008C875.816 91.3008 874.715 91.7812 873.824 92.7422C872.934 93.6914 872.383 95.0273 872.172 96.75H881.699V96.5039C881.605 94.8516 881.16 93.5742 880.363 92.6719C879.566 91.7578 878.488 91.3008 877.129 91.3008Z" fill="white"/>
<path d="M899.805 102.955C899.805 102.076 899.471 101.396 898.803 100.916C898.146 100.424 896.992 100.002 895.34 99.6504C893.699 99.2988 892.393 98.877 891.42 98.3848C890.459 97.8926 889.744 97.3066 889.275 96.627C888.818 95.9473 888.59 95.1387 888.59 94.2012C888.59 92.6426 889.246 91.3242 890.559 90.2461C891.883 89.168 893.57 88.6289 895.621 88.6289C897.777 88.6289 899.523 89.1855 900.859 90.2988C902.207 91.4121 902.881 92.8359 902.881 94.5703H899.611C899.611 93.6797 899.23 92.9121 898.469 92.2676C897.719 91.623 896.77 91.3008 895.621 91.3008C894.438 91.3008 893.512 91.5586 892.844 92.0742C892.176 92.5898 891.842 93.2637 891.842 94.0957C891.842 94.8809 892.152 95.4727 892.773 95.8711C893.395 96.2695 894.514 96.6504 896.131 97.0137C897.76 97.377 899.078 97.8105 900.086 98.3145C901.094 98.8184 901.838 99.4277 902.318 100.143C902.811 100.846 903.057 101.707 903.057 102.727C903.057 104.426 902.377 105.791 901.018 106.822C899.658 107.842 897.895 108.352 895.727 108.352C894.203 108.352 892.855 108.082 891.684 107.543C890.512 107.004 889.592 106.254 888.924 105.293C888.268 104.32 887.939 103.271 887.939 102.146H891.191C891.25 103.236 891.684 104.104 892.492 104.748C893.312 105.381 894.391 105.697 895.727 105.697C896.957 105.697 897.941 105.451 898.68 104.959C899.43 104.455 899.805 103.787 899.805 102.955Z" fill="white"/>
<path d="M124.873 126.375V130.98H128.424V133.494H124.873V145.289C124.873 146.051 125.031 146.625 125.348 147.012C125.664 147.387 126.203 147.574 126.965 147.574C127.34 147.574 127.855 147.504 128.512 147.363V150C127.656 150.234 126.824 150.352 126.016 150.352C124.562 150.352 123.467 149.912 122.729 149.033C121.99 148.154 121.621 146.906 121.621 145.289V133.494H118.158V130.98H121.621V126.375H124.873Z" fill="white"/>
<path d="M135.771 150H132.52V130.98H135.771V150ZM132.256 125.936C132.256 125.408 132.414 124.963 132.73 124.6C133.059 124.236 133.539 124.055 134.172 124.055C134.805 124.055 135.285 124.236 135.613 124.6C135.941 124.963 136.105 125.408 136.105 125.936C136.105 126.463 135.941 126.902 135.613 127.254C135.285 127.605 134.805 127.781 134.172 127.781C133.539 127.781 133.059 127.605 132.73 127.254C132.414 126.902 132.256 126.463 132.256 125.936Z" fill="white"/>
<path d="M148.885 150.352C146.307 150.352 144.209 149.508 142.592 147.82C140.975 146.121 140.166 143.854 140.166 141.018V140.42C140.166 138.533 140.523 136.852 141.238 135.375C141.965 133.887 142.973 132.727 144.262 131.895C145.562 131.051 146.969 130.629 148.48 130.629C150.953 130.629 152.875 131.443 154.246 133.072C155.617 134.701 156.303 137.033 156.303 140.068V141.422H143.418C143.465 143.297 144.01 144.814 145.053 145.975C146.107 147.123 147.443 147.697 149.061 147.697C150.209 147.697 151.182 147.463 151.979 146.994C152.775 146.525 153.473 145.904 154.07 145.131L156.057 146.678C154.463 149.127 152.072 150.352 148.885 150.352ZM148.48 133.301C147.168 133.301 146.066 133.781 145.176 134.742C144.285 135.691 143.734 137.027 143.523 138.75H153.051V138.504C152.957 136.852 152.512 135.574 151.715 134.672C150.918 133.758 149.84 133.301 148.48 133.301Z" fill="white"/>
<path d="M163.158 130.98L163.264 133.371C164.717 131.543 166.615 130.629 168.959 130.629C172.979 130.629 175.006 132.896 175.041 137.432V150H171.789V137.414C171.777 136.043 171.461 135.029 170.84 134.373C170.23 133.717 169.275 133.389 167.975 133.389C166.92 133.389 165.994 133.67 165.197 134.232C164.4 134.795 163.779 135.533 163.334 136.447V150H160.082V130.98H163.158Z" fill="white"/>
<path d="M187.838 150.352C185.26 150.352 183.162 149.508 181.545 147.82C179.928 146.121 179.119 143.854 179.119 141.018V140.42C179.119 138.533 179.477 136.852 180.191 135.375C180.918 133.887 181.926 132.727 183.215 131.895C184.516 131.051 185.922 130.629 187.434 130.629C189.906 130.629 191.828 131.443 193.199 133.072C194.57 134.701 195.256 137.033 195.256 140.068V141.422H182.371C182.418 143.297 182.963 144.814 184.006 145.975C185.061 147.123 186.396 147.697 188.014 147.697C189.162 147.697 190.135 147.463 190.932 146.994C191.729 146.525 192.426 145.904 193.023 145.131L195.01 146.678C193.416 149.127 191.025 150.352 187.838 150.352ZM187.434 133.301C186.121 133.301 185.02 133.781 184.129 134.742C183.238 135.691 182.688 137.027 182.477 138.75H192.004V138.504C191.91 136.852 191.465 135.574 190.668 134.672C189.871 133.758 188.793 133.301 187.434 133.301Z" fill="white"/>
<path d="M211.498 150H208.246V123H211.498V150Z" fill="white"/>
<path d="M228.461 150C228.273 149.625 228.121 148.957 228.004 147.996C226.492 149.566 224.688 150.352 222.59 150.352C220.715 150.352 219.174 149.824 217.967 148.77C216.771 147.703 216.174 146.355 216.174 144.727C216.174 142.746 216.924 141.211 218.424 140.121C219.936 139.02 222.057 138.469 224.787 138.469H227.951V136.975C227.951 135.838 227.611 134.936 226.932 134.268C226.252 133.588 225.25 133.248 223.926 133.248C222.766 133.248 221.793 133.541 221.008 134.127C220.223 134.713 219.83 135.422 219.83 136.254H216.561C216.561 135.305 216.895 134.391 217.562 133.512C218.242 132.621 219.156 131.918 220.305 131.402C221.465 130.887 222.736 130.629 224.119 130.629C226.311 130.629 228.027 131.18 229.27 132.281C230.512 133.371 231.156 134.877 231.203 136.799V145.553C231.203 147.299 231.426 148.688 231.871 149.719V150H228.461ZM223.064 147.521C224.084 147.521 225.051 147.258 225.965 146.73C226.879 146.203 227.541 145.518 227.951 144.674V140.771H225.402C221.418 140.771 219.426 141.938 219.426 144.27C219.426 145.289 219.766 146.086 220.445 146.66C221.125 147.234 221.998 147.521 223.064 147.521Z" fill="white"/>
<path d="M253.123 150.352C250.545 150.352 248.447 149.508 246.83 147.82C245.213 146.121 244.404 143.854 244.404 141.018V140.42C244.404 138.533 244.762 136.852 245.477 135.375C246.203 133.887 247.211 132.727 248.5 131.895C249.801 131.051 251.207 130.629 252.719 130.629C255.191 130.629 257.113 131.443 258.484 133.072C259.855 134.701 260.541 137.033 260.541 140.068V141.422H247.656C247.703 143.297 248.248 144.814 249.291 145.975C250.346 147.123 251.682 147.697 253.299 147.697C254.447 147.697 255.42 147.463 256.217 146.994C257.014 146.525 257.711 145.904 258.309 145.131L260.295 146.678C258.701 149.127 256.311 150.352 253.123 150.352ZM252.719 133.301C251.406 133.301 250.305 133.781 249.414 134.742C248.523 135.691 247.973 137.027 247.762 138.75H257.289V138.504C257.195 136.852 256.75 135.574 255.953 134.672C255.156 133.758 254.078 133.301 252.719 133.301Z" fill="white"/>
<path d="M275.395 144.955C275.395 144.076 275.061 143.396 274.393 142.916C273.736 142.424 272.582 142.002 270.93 141.65C269.289 141.299 267.982 140.877 267.01 140.385C266.049 139.893 265.334 139.307 264.865 138.627C264.408 137.947 264.18 137.139 264.18 136.201C264.18 134.643 264.836 133.324 266.148 132.246C267.473 131.168 269.16 130.629 271.211 130.629C273.367 130.629 275.113 131.186 276.449 132.299C277.797 133.412 278.471 134.836 278.471 136.57H275.201C275.201 135.68 274.82 134.912 274.059 134.268C273.309 133.623 272.359 133.301 271.211 133.301C270.027 133.301 269.102 133.559 268.434 134.074C267.766 134.59 267.432 135.264 267.432 136.096C267.432 136.881 267.742 137.473 268.363 137.871C268.984 138.27 270.104 138.65 271.721 139.014C273.35 139.377 274.668 139.811 275.676 140.314C276.684 140.818 277.428 141.428 277.908 142.143C278.4 142.846 278.646 143.707 278.646 144.727C278.646 146.426 277.967 147.791 276.607 148.822C275.248 149.842 273.484 150.352 271.316 150.352C269.793 150.352 268.445 150.082 267.273 149.543C266.102 149.004 265.182 148.254 264.514 147.293C263.857 146.32 263.529 145.271 263.529 144.146H266.781C266.84 145.236 267.273 146.104 268.082 146.748C268.902 147.381 269.98 147.697 271.316 147.697C272.547 147.697 273.531 147.451 274.27 146.959C275.02 146.455 275.395 145.787 275.395 144.955Z" fill="white"/>
<path d="M290.512 147.697C291.672 147.697 292.686 147.346 293.553 146.643C294.42 145.939 294.9 145.061 294.994 144.006H298.07C298.012 145.096 297.637 146.133 296.945 147.117C296.254 148.102 295.328 148.887 294.168 149.473C293.02 150.059 291.801 150.352 290.512 150.352C287.922 150.352 285.859 149.49 284.324 147.768C282.801 146.033 282.039 143.666 282.039 140.666V140.121C282.039 138.27 282.379 136.623 283.059 135.182C283.738 133.74 284.711 132.621 285.977 131.824C287.254 131.027 288.76 130.629 290.494 130.629C292.627 130.629 294.396 131.268 295.803 132.545C297.221 133.822 297.977 135.48 298.07 137.52H294.994C294.9 136.289 294.432 135.281 293.588 134.496C292.756 133.699 291.725 133.301 290.494 133.301C288.842 133.301 287.559 133.898 286.645 135.094C285.742 136.277 285.291 137.994 285.291 140.244V140.859C285.291 143.051 285.742 144.738 286.645 145.922C287.547 147.105 288.836 147.697 290.512 147.697Z" fill="white"/>
<path d="M313.469 150C313.281 149.625 313.129 148.957 313.012 147.996C311.5 149.566 309.695 150.352 307.598 150.352C305.723 150.352 304.182 149.824 302.975 148.77C301.779 147.703 301.182 146.355 301.182 144.727C301.182 142.746 301.932 141.211 303.432 140.121C304.943 139.02 307.064 138.469 309.795 138.469H312.959V136.975C312.959 135.838 312.619 134.936 311.939 134.268C311.26 133.588 310.258 133.248 308.934 133.248C307.773 133.248 306.801 133.541 306.016 134.127C305.23 134.713 304.838 135.422 304.838 136.254H301.568C301.568 135.305 301.902 134.391 302.57 133.512C303.25 132.621 304.164 131.918 305.312 131.402C306.473 130.887 307.744 130.629 309.127 130.629C311.318 130.629 313.035 131.18 314.277 132.281C315.52 133.371 316.164 134.877 316.211 136.799V145.553C316.211 147.299 316.434 148.688 316.879 149.719V150H313.469ZM308.072 147.521C309.092 147.521 310.059 147.258 310.973 146.73C311.887 146.203 312.549 145.518 312.959 144.674V140.771H310.41C306.426 140.771 304.434 141.938 304.434 144.27C304.434 145.289 304.773 146.086 305.453 146.66C306.133 147.234 307.006 147.521 308.072 147.521Z" fill="white"/>
<path d="M324.842 150H321.59V123H324.842V150Z" fill="white"/>
<path d="M337.955 150.352C335.377 150.352 333.279 149.508 331.662 147.82C330.045 146.121 329.236 143.854 329.236 141.018V140.42C329.236 138.533 329.594 136.852 330.309 135.375C331.035 133.887 332.043 132.727 333.332 131.895C334.633 131.051 336.039 130.629 337.551 130.629C340.023 130.629 341.945 131.443 343.316 133.072C344.688 134.701 345.373 137.033 345.373 140.068V141.422H332.488C332.535 143.297 333.08 144.814 334.123 145.975C335.178 147.123 336.514 147.697 338.131 147.697C339.279 147.697 340.252 147.463 341.049 146.994C341.846 146.525 342.543 145.904 343.141 145.131L345.127 146.678C343.533 149.127 341.143 150.352 337.955 150.352ZM337.551 133.301C336.238 133.301 335.137 133.781 334.246 134.742C333.355 135.691 332.805 137.027 332.594 138.75H342.121V138.504C342.027 136.852 341.582 135.574 340.785 134.672C339.988 133.758 338.91 133.301 337.551 133.301Z" fill="white"/>
<path d="M358.346 133.898C357.854 133.816 357.32 133.775 356.746 133.775C354.613 133.775 353.166 134.684 352.404 136.5V150H349.152V130.98H352.316L352.369 133.178C353.436 131.479 354.947 130.629 356.904 130.629C357.537 130.629 358.018 130.711 358.346 130.875V133.898Z" fill="white"/>
<path d="M372.391 150C372.203 149.625 372.051 148.957 371.934 147.996C370.422 149.566 368.617 150.352 366.52 150.352C364.645 150.352 363.104 149.824 361.896 148.77C360.701 147.703 360.104 146.355 360.104 144.727C360.104 142.746 360.854 141.211 362.354 140.121C363.865 139.02 365.986 138.469 368.717 138.469H371.881V136.975C371.881 135.838 371.541 134.936 370.861 134.268C370.182 133.588 369.18 133.248 367.855 133.248C366.695 133.248 365.723 133.541 364.938 134.127C364.152 134.713 363.76 135.422 363.76 136.254H360.49C360.49 135.305 360.824 134.391 361.492 133.512C362.172 132.621 363.086 131.918 364.234 131.402C365.395 130.887 366.666 130.629 368.049 130.629C370.24 130.629 371.957 131.18 373.199 132.281C374.441 133.371 375.086 134.877 375.133 136.799V145.553C375.133 147.299 375.355 148.688 375.801 149.719V150H372.391ZM366.994 147.521C368.014 147.521 368.98 147.258 369.895 146.73C370.809 146.203 371.471 145.518 371.881 144.674V140.771H369.332C365.348 140.771 363.355 141.938 363.355 144.27C363.355 145.289 363.695 146.086 364.375 146.66C365.055 147.234 365.928 147.521 366.994 147.521Z" fill="white"/>
<path d="M384.045 142.793C384.068 141.398 384.227 140.297 384.52 139.488C384.812 138.68 385.41 137.783 386.312 136.799L388.615 134.426C389.6 133.312 390.092 132.117 390.092 130.84C390.092 129.609 389.77 128.648 389.125 127.957C388.48 127.254 387.543 126.902 386.312 126.902C385.117 126.902 384.156 127.219 383.43 127.852C382.703 128.484 382.34 129.334 382.34 130.4H379.088C379.111 128.502 379.785 126.973 381.109 125.812C382.445 124.641 384.18 124.055 386.312 124.055C388.527 124.055 390.25 124.652 391.48 125.848C392.723 127.031 393.344 128.66 393.344 130.734C393.344 132.785 392.395 134.807 390.496 136.799L388.58 138.697C387.725 139.646 387.297 141.012 387.297 142.793H384.045ZM383.904 148.365C383.904 147.838 384.062 147.398 384.379 147.047C384.707 146.684 385.188 146.502 385.82 146.502C386.453 146.502 386.934 146.684 387.262 147.047C387.59 147.398 387.754 147.838 387.754 148.365C387.754 148.893 387.59 149.332 387.262 149.684C386.934 150.023 386.453 150.193 385.82 150.193C385.188 150.193 384.707 150.023 384.379 149.684C384.062 149.332 383.904 148.893 383.904 148.365Z" fill="white"/>
</g>
</g>
</g>
</svg>
