<svg viewBox="0 0 1080 150" fill="none" xmlns="http://www.w3.org/2000/svg">
<g id="0120002A">
<g id="title">
<g id="title1">
<g id="Lenguaje Castellano (Enunciado)">
<path d="M71.9631 60.786H58.6961C58.232 60.786 58 60.554 58 60.0899V35.1529C58 34.6889 58.232 34.4568 58.6961 34.4568H61.2758C61.7399 34.4568 61.9719 34.6889 61.9719 35.1529V56.8141C61.9719 57.0871 62.1357 57.2236 62.4633 57.2236H71.9631C72.4271 57.2236 72.6592 57.4693 72.6592 57.9607V60.0899C72.6592 60.554 72.4271 60.786 71.9631 60.786Z" fill="#B925B9"/>
<path d="M90.8069 60.786H81.9622C79.9422 60.786 78.3725 60.2264 77.2533 59.1072C76.1613 57.988 75.6154 56.432 75.6154 54.4392V46.2497C75.6154 44.2296 76.1613 42.6736 77.2533 41.5817C78.3725 40.4625 79.9422 39.9028 81.9622 39.9028H85.3199C87.34 39.9028 88.9096 40.4625 90.0289 41.5817C91.1481 42.6736 91.7077 44.2296 91.7077 46.2497V51.45C91.7077 51.9414 91.462 52.1871 90.9707 52.1871H79.9968C79.6965 52.1871 79.5463 52.3236 79.5463 52.5965V54.3573C79.5463 56.3501 80.5427 57.3464 82.5355 57.3464H90.8069C91.2982 57.3464 91.5439 57.5921 91.5439 58.0835V60.1309C91.5439 60.5676 91.2982 60.786 90.8069 60.786ZM79.9968 49.4026H87.3263C87.5993 49.4026 87.7358 49.2662 87.7358 48.9932V46.3725C87.7358 45.3352 87.5038 44.5845 87.0397 44.1204C86.5756 43.6291 85.8249 43.3834 84.7876 43.3834H82.5355C81.4982 43.3834 80.7475 43.6291 80.2834 44.1204C79.8193 44.5845 79.5873 45.3352 79.5873 46.3725V48.9932C79.5873 49.2662 79.7238 49.4026 79.9968 49.4026Z" fill="#B925B9"/>
<path d="M99.4944 60.786H96.9147C96.4507 60.786 96.2186 60.554 96.2186 60.0899V40.599C96.2186 40.1349 96.4507 39.9028 96.9147 39.9028H99.4944C99.9585 39.9028 100.191 40.1349 100.191 40.599V42.0731H100.354C101.009 40.6263 102.388 39.9028 104.49 39.9028H106.292C108.284 39.9028 109.813 40.4488 110.878 41.5407C111.942 42.6327 112.475 44.2023 112.475 46.2497V60.0899C112.475 60.554 112.229 60.786 111.738 60.786H109.158C108.694 60.786 108.462 60.554 108.462 60.0899V46.4135C108.462 44.3934 107.466 43.3834 105.473 43.3834H103.548C101.31 43.3834 100.191 44.5436 100.191 46.8639V60.0899C100.191 60.554 99.9585 60.786 99.4944 60.786Z" fill="#B925B9"/>
<path d="M124.988 59.7623H123.146C121.18 59.7623 119.665 59.2164 118.601 58.1244C117.563 57.0052 117.045 55.4356 117.045 53.4155V46.2497C117.045 44.2296 117.604 42.6736 118.723 41.5817C119.843 40.4625 121.399 39.9028 123.391 39.9028H132.564C133.055 39.9028 133.301 40.1349 133.301 40.599V60.8679C133.301 62.8607 132.727 64.403 131.581 65.495C130.462 66.6142 128.906 67.1738 126.913 67.1738H119.215C118.751 67.1738 118.519 66.9554 118.519 66.5187V64.3894C118.519 63.9253 118.751 63.6933 119.215 63.6933H126.299C128.291 63.6933 129.288 62.6833 129.288 60.6632V57.5512H129.124C128.442 59.0253 127.063 59.7623 124.988 59.7623ZM129.288 52.8013V43.7929C129.288 43.5199 129.138 43.3834 128.837 43.3834H123.965C122.026 43.3834 121.057 44.3934 121.057 46.4135V53.2108C121.057 55.2308 122.026 56.2409 123.965 56.2409H125.93C128.169 56.2409 129.288 55.0943 129.288 52.8013Z" fill="#B925B9"/>
<path d="M146.145 60.786H144.302C142.337 60.786 140.822 60.2401 139.757 59.1481C138.72 58.0289 138.201 56.4593 138.201 54.4392V40.599C138.201 40.1349 138.433 39.9028 138.897 39.9028H141.477C141.941 39.9028 142.173 40.1349 142.173 40.599V54.2754C142.173 56.2955 143.156 57.3055 145.121 57.3055H147.087C149.325 57.3055 150.444 56.1453 150.444 53.825V40.599C150.444 40.1349 150.676 39.9028 151.14 39.9028H153.72C154.211 39.9028 154.457 40.1349 154.457 40.599V60.0899C154.457 60.554 154.211 60.786 153.72 60.786H151.14C150.676 60.786 150.444 60.554 150.444 60.0899V58.6158H150.28C149.625 60.0626 148.247 60.786 146.145 60.786Z" fill="#B925B9"/>
<path d="M167.093 60.786H165.497C163.476 60.786 161.907 60.2264 160.788 59.1072C159.696 57.988 159.15 56.432 159.15 54.4392V46.2497C159.15 44.2296 159.696 42.6736 160.788 41.5817C161.907 40.4625 163.476 39.9028 165.497 39.9028H174.669C175.16 39.9028 175.406 40.1349 175.406 40.599V60.0899C175.406 60.554 175.16 60.786 174.669 60.786H172.089C171.625 60.786 171.393 60.554 171.393 60.0899V58.6158H171.229C170.574 60.0626 169.195 60.786 167.093 60.786ZM171.393 53.825V43.7929C171.393 43.5199 171.243 43.3834 170.943 43.3834H166.07C164.104 43.3834 163.122 44.3934 163.122 46.4135V54.2754C163.122 56.2955 164.104 57.3055 166.07 57.3055H168.035C170.274 57.3055 171.393 56.1453 171.393 53.825Z" fill="#B925B9"/>
<path d="M180.717 36.4223V32.6961C180.717 32.2593 180.936 32.0409 181.373 32.0409H184.034C184.471 32.0409 184.689 32.2593 184.689 32.6961V36.4223C184.689 36.8864 184.471 37.1184 184.034 37.1184H181.373C180.936 37.1184 180.717 36.8864 180.717 36.4223ZM178.302 67.1738H176.131C175.667 67.1738 175.435 66.9418 175.435 66.4777V64.3894C175.435 63.9253 175.667 63.6933 176.131 63.6933H177.196C178.479 63.6933 179.38 63.4203 179.899 62.8743C180.444 62.3284 180.717 61.4139 180.717 60.1309V40.599C180.717 40.1349 180.95 39.9028 181.414 39.9028H183.993C184.457 39.9028 184.689 40.1349 184.689 40.599V60.827C184.689 62.8197 184.116 64.3757 182.97 65.495C181.85 66.6142 180.294 67.1738 178.302 67.1738Z" fill="#B925B9"/>
<path d="M204.852 60.786H196.007C193.987 60.786 192.417 60.2264 191.298 59.1072C190.206 57.988 189.66 56.432 189.66 54.4392V46.2497C189.66 44.2296 190.206 42.6736 191.298 41.5817C192.417 40.4625 193.987 39.9028 196.007 39.9028H199.365C201.385 39.9028 202.955 40.4625 204.074 41.5817C205.193 42.6736 205.753 44.2296 205.753 46.2497V51.45C205.753 51.9414 205.507 52.1871 205.016 52.1871H194.042C193.741 52.1871 193.591 52.3236 193.591 52.5965V54.3573C193.591 56.3501 194.588 57.3464 196.58 57.3464H204.852C205.343 57.3464 205.589 57.5921 205.589 58.0835V60.1309C205.589 60.5676 205.343 60.786 204.852 60.786ZM194.042 49.4026H201.371C201.644 49.4026 201.781 49.2662 201.781 48.9932V46.3725C201.781 45.3352 201.549 44.5845 201.085 44.1204C200.621 43.6291 199.87 43.3834 198.833 43.3834H196.58C195.543 43.3834 194.792 43.6291 194.328 44.1204C193.864 44.5845 193.632 45.3352 193.632 46.3725V48.9932C193.632 49.2662 193.769 49.4026 194.042 49.4026Z" fill="#B925B9"/>
<path d="M231.117 60.786H226.367C224.347 60.786 222.778 60.2264 221.658 59.1072C220.567 57.988 220.021 56.432 220.021 54.4392V40.8037C220.021 38.7836 220.567 37.2276 221.658 36.1357C222.778 35.0165 224.347 34.4568 226.367 34.4568H231.117C233.11 34.4568 234.666 35.0165 235.785 36.1357C236.905 37.2276 237.464 38.7836 237.464 40.8037V42.7692C237.464 43.2605 237.218 43.5062 236.727 43.5062H234.147C233.683 43.5062 233.451 43.2605 233.451 42.7692V40.9675C233.451 38.9474 232.469 37.9374 230.503 37.9374H226.941C224.975 37.9374 223.992 38.9474 223.992 40.9675V54.2754C223.992 56.2955 224.975 57.3055 226.941 57.3055H230.503C232.469 57.3055 233.451 56.2955 233.451 54.2754V52.4737C233.451 51.9823 233.683 51.7366 234.147 51.7366H236.727C237.218 51.7366 237.464 51.9823 237.464 52.4737V54.4392C237.464 56.432 236.905 57.988 235.785 59.1072C234.666 60.2264 233.11 60.786 231.117 60.786Z" fill="#B925B9"/>
<path d="M249.668 60.786H248.071C246.051 60.786 244.481 60.2264 243.362 59.1072C242.27 57.988 241.724 56.432 241.724 54.4392V46.2497C241.724 44.2296 242.27 42.6736 243.362 41.5817C244.481 40.4625 246.051 39.9028 248.071 39.9028H257.243C257.735 39.9028 257.98 40.1349 257.98 40.599V60.0899C257.98 60.554 257.735 60.786 257.243 60.786H254.664C254.2 60.786 253.968 60.554 253.968 60.0899V58.6158H253.804C253.149 60.0626 251.77 60.786 249.668 60.786ZM253.968 53.825V43.7929C253.968 43.5199 253.817 43.3834 253.517 43.3834H248.644C246.679 43.3834 245.696 44.3934 245.696 46.4135V54.2754C245.696 56.2955 246.679 57.3055 248.644 57.3055H250.61C252.848 57.3055 253.968 56.1453 253.968 53.825Z" fill="#B925B9"/>
<path d="M270.54 60.786H263.005C262.541 60.786 262.309 60.554 262.309 60.0899V58.0835C262.309 57.6467 262.541 57.4283 263.005 57.4283H269.885C271.659 57.4283 272.546 56.8141 272.546 55.5857V55.0943C272.546 54.0024 271.905 53.1698 270.622 52.5965L266.158 50.4673C264.766 49.8121 263.756 49.0887 263.128 48.2971C262.5 47.5054 262.186 46.4681 262.186 45.1851C262.186 41.6636 264.138 39.9028 268.042 39.9028H274.839C275.276 39.9028 275.494 40.1349 275.494 40.599V42.6054C275.494 43.0694 275.276 43.3015 274.839 43.3015H268.861C268.042 43.3015 267.414 43.4516 266.977 43.7519C266.541 44.0249 266.322 44.3934 266.322 44.8575V45.3079C266.322 46.1815 267.018 46.9458 268.41 47.601L272.915 49.894C274.334 50.5219 275.303 51.2726 275.822 52.1461C276.368 52.9924 276.641 54.0979 276.641 55.4629C276.641 59.0116 274.607 60.786 270.54 60.786Z" fill="#B925B9"/>
<path d="M281.496 43.3834H279.531C279.258 43.3834 279.067 43.3424 278.957 43.2605C278.875 43.1513 278.834 42.9739 278.834 42.7282V40.599C278.834 40.1349 279.067 39.9028 279.531 39.9028H281.496C281.769 39.9028 281.906 39.7664 281.906 39.4934V35.8081C281.906 35.344 282.151 35.112 282.643 35.112H285.222C285.686 35.112 285.918 35.344 285.918 35.8081V39.4934C285.918 39.7664 286.069 39.9028 286.369 39.9028H290.177C290.668 39.9028 290.914 40.1349 290.914 40.599V42.7282C290.914 43.165 290.668 43.3834 290.177 43.3834H286.369C286.069 43.3834 285.918 43.5199 285.918 43.7929V54.3163C285.918 56.3091 286.942 57.3055 288.989 57.3055H290.586C291.078 57.3055 291.323 57.5375 291.323 58.0016V60.1309C291.323 60.5676 291.078 60.786 290.586 60.786H288.375C286.355 60.786 284.772 60.2401 283.625 59.1481C282.479 58.0562 281.906 56.5138 281.906 54.5211V43.7929C281.906 43.5199 281.769 43.3834 281.496 43.3834Z" fill="#B925B9"/>
<path d="M310.019 60.786H301.175C299.155 60.786 297.585 60.2264 296.466 59.1072C295.374 57.988 294.828 56.432 294.828 54.4392V46.2497C294.828 44.2296 295.374 42.6736 296.466 41.5817C297.585 40.4625 299.155 39.9028 301.175 39.9028H304.533C306.553 39.9028 308.122 40.4625 309.241 41.5817C310.361 42.6736 310.92 44.2296 310.92 46.2497V51.45C310.92 51.9414 310.675 52.1871 310.183 52.1871H299.209C298.909 52.1871 298.759 52.3236 298.759 52.5965V54.3573C298.759 56.3501 299.755 57.3464 301.748 57.3464H310.019C310.511 57.3464 310.757 57.5921 310.757 58.0835V60.1309C310.757 60.5676 310.511 60.786 310.019 60.786ZM299.209 49.4026H306.539C306.812 49.4026 306.948 49.2662 306.948 48.9932V46.3725C306.948 45.3352 306.716 44.5845 306.252 44.1204C305.788 43.6291 305.038 43.3834 304 43.3834H301.748C300.711 43.3834 299.96 43.6291 299.496 44.1204C299.032 44.5845 298.8 45.3352 298.8 46.3725V48.9932C298.8 49.2662 298.936 49.4026 299.209 49.4026Z" fill="#B925B9"/>
<path d="M318.912 60.786H316.332C315.868 60.786 315.636 60.554 315.636 60.0899V32.6961C315.636 32.232 315.868 32 316.332 32H318.912C319.376 32 319.608 32.232 319.608 32.6961V60.0899C319.608 60.554 319.376 60.786 318.912 60.786Z" fill="#B925B9"/>
<path d="M328.469 60.786H325.889C325.425 60.786 325.193 60.554 325.193 60.0899V32.6961C325.193 32.232 325.425 32 325.889 32H328.469C328.933 32 329.165 32.232 329.165 32.6961V60.0899C329.165 60.554 328.933 60.786 328.469 60.786Z" fill="#B925B9"/>
<path d="M342.08 60.786H340.483C338.463 60.786 336.893 60.2264 335.774 59.1072C334.682 57.988 334.136 56.432 334.136 54.4392V46.2497C334.136 44.2296 334.682 42.6736 335.774 41.5817C336.893 40.4625 338.463 39.9028 340.483 39.9028H349.655C350.146 39.9028 350.392 40.1349 350.392 40.599V60.0899C350.392 60.554 350.146 60.786 349.655 60.786H347.075C346.611 60.786 346.379 60.554 346.379 60.0899V58.6158H346.215C345.56 60.0626 344.182 60.786 342.08 60.786ZM346.379 53.825V43.7929C346.379 43.5199 346.229 43.3834 345.929 43.3834H341.056C339.091 43.3834 338.108 44.3934 338.108 46.4135V54.2754C338.108 56.2955 339.091 57.3055 341.056 57.3055H343.021C345.26 57.3055 346.379 56.1453 346.379 53.825Z" fill="#B925B9"/>
<path d="M358.775 60.786H356.195C355.731 60.786 355.499 60.554 355.499 60.0899V40.599C355.499 40.1349 355.731 39.9028 356.195 39.9028H358.775C359.239 39.9028 359.471 40.1349 359.471 40.599V42.0731H359.635C360.29 40.6263 361.668 39.9028 363.77 39.9028H365.572C367.565 39.9028 369.093 40.4488 370.158 41.5407C371.223 42.6327 371.755 44.2023 371.755 46.2497V60.0899C371.755 60.554 371.509 60.786 371.018 60.786H368.438C367.974 60.786 367.742 60.554 367.742 60.0899V46.4135C367.742 44.3934 366.746 43.3834 364.753 43.3834H362.828C360.59 43.3834 359.471 44.5436 359.471 46.8639V60.0899C359.471 60.554 359.239 60.786 358.775 60.786Z" fill="#B925B9"/>
<path d="M386.193 60.786H382.59C380.57 60.786 379 60.2264 377.881 59.1072C376.789 57.988 376.243 56.432 376.243 54.4392V46.2497C376.243 44.2296 376.789 42.6736 377.881 41.5817C379 40.4625 380.57 39.9028 382.59 39.9028H386.193C388.186 39.9028 389.742 40.4625 390.861 41.5817C392.008 42.6736 392.581 44.2296 392.581 46.2497V54.4392C392.581 56.432 392.008 57.988 390.861 59.1072C389.742 60.2264 388.186 60.786 386.193 60.786ZM383.163 57.3055H385.661C387.626 57.3055 388.609 56.3091 388.609 54.3163V46.3725C388.609 44.3798 387.626 43.3834 385.661 43.3834H383.163C382.126 43.3834 381.375 43.6291 380.911 44.1204C380.447 44.5845 380.215 45.3352 380.215 46.3725V54.3163C380.215 55.3537 380.447 56.118 380.911 56.6094C381.375 57.0735 382.126 57.3055 383.163 57.3055Z" fill="#B925B9"/>
<path d="M135.8 89.4014H135.636C133.179 89.4014 131.951 90.9574 131.951 94.0694V109.425C131.951 112.537 133.207 114.093 135.718 114.093H135.8C136.237 114.093 136.455 114.297 136.455 114.707V116.468C136.455 116.686 136.414 116.823 136.332 116.877C136.25 116.959 136.073 117 135.8 117H135.636C133.452 117 131.733 116.331 130.477 114.994C129.248 113.683 128.634 111.677 128.634 108.974V94.4789C128.634 91.8037 129.262 89.8109 130.518 88.5006C131.774 87.163 133.493 86.4942 135.677 86.4942H135.8C136.073 86.4942 136.25 86.5351 136.332 86.617C136.414 86.6716 136.455 86.8081 136.455 87.0265V88.7872C136.455 89.1967 136.237 89.4014 135.8 89.4014Z" fill="#B925B9"/>
<path d="M155.614 112.823H142.51C142.046 112.823 141.814 112.591 141.814 112.127V87.1903C141.814 86.7262 142.046 86.4942 142.51 86.4942H155.614C156.05 86.4942 156.269 86.7262 156.269 87.1903V89.2786C156.269 89.7427 156.05 89.9747 155.614 89.9747H146.277C145.95 89.9747 145.786 90.1112 145.786 90.3842V97.3043C145.786 97.5773 145.95 97.7138 146.277 97.7138H154.18C154.672 97.7138 154.917 97.9458 154.917 98.4099V100.498C154.917 100.962 154.672 101.194 154.18 101.194H146.277C145.95 101.194 145.786 101.331 145.786 101.604V108.892C145.786 109.193 145.95 109.343 146.277 109.343H155.614C156.05 109.343 156.269 109.575 156.269 110.039V112.127C156.269 112.591 156.05 112.823 155.614 112.823Z" fill="#B925B9"/>
<path d="M164.354 112.823H161.775C161.311 112.823 161.079 112.591 161.079 112.127V92.6363C161.079 92.1722 161.311 91.9402 161.775 91.9402H164.354C164.819 91.9402 165.051 92.1722 165.051 92.6363V94.1104H165.214C165.87 92.6636 167.248 91.9402 169.35 91.9402H171.152C173.145 91.9402 174.673 92.4861 175.738 93.5781C176.803 94.67 177.335 96.2397 177.335 98.287V112.127C177.335 112.591 177.089 112.823 176.598 112.823H174.018C173.554 112.823 173.322 112.591 173.322 112.127V98.4508C173.322 96.4307 172.326 95.4207 170.333 95.4207H168.408C166.17 95.4207 165.051 96.5809 165.051 98.9012V112.127C165.051 112.591 164.819 112.823 164.354 112.823Z" fill="#B925B9"/>
<path d="M189.971 112.823H188.129C186.163 112.823 184.648 112.277 183.583 111.185C182.546 110.066 182.027 108.497 182.027 106.477V92.6363C182.027 92.1722 182.259 91.9402 182.724 91.9402H185.303C185.767 91.9402 185.999 92.1722 185.999 92.6363V106.313C185.999 108.333 186.982 109.343 188.948 109.343H190.913C193.152 109.343 194.271 108.183 194.271 105.862V92.6363C194.271 92.1722 194.503 91.9402 194.967 91.9402H197.547C198.038 91.9402 198.284 92.1722 198.284 92.6363V112.127C198.284 112.591 198.038 112.823 197.547 112.823H194.967C194.503 112.823 194.271 112.591 194.271 112.127V110.653H194.107C193.452 112.1 192.073 112.823 189.971 112.823Z" fill="#B925B9"/>
<path d="M206.661 112.823H204.082C203.618 112.823 203.386 112.591 203.386 112.127V92.6363C203.386 92.1722 203.618 91.9402 204.082 91.9402H206.661C207.126 91.9402 207.358 92.1722 207.358 92.6363V94.1104H207.521C208.177 92.6636 209.555 91.9402 211.657 91.9402H213.459C215.452 91.9402 216.98 92.4861 218.045 93.5781C219.109 94.67 219.642 96.2397 219.642 98.287V112.127C219.642 112.591 219.396 112.823 218.905 112.823H216.325C215.861 112.823 215.629 112.591 215.629 112.127V98.4508C215.629 96.4307 214.633 95.4207 212.64 95.4207H210.715C208.477 95.4207 207.358 96.5809 207.358 98.9012V112.127C207.358 112.591 207.126 112.823 206.661 112.823Z" fill="#B925B9"/>
<path d="M237.233 110.039V112.168C237.233 112.605 236.987 112.823 236.496 112.823H230.477C228.456 112.823 226.887 112.264 225.768 111.145C224.676 110.025 224.13 108.469 224.13 106.477V98.287C224.13 96.267 224.676 94.711 225.768 93.619C226.887 92.4998 228.456 91.9402 230.477 91.9402H236.496C236.987 91.9402 237.233 92.1722 237.233 92.6363V94.7656C237.233 95.2023 236.987 95.4207 236.496 95.4207H231.05C229.084 95.4207 228.102 96.4307 228.102 98.4508V106.313C228.102 108.333 229.084 109.343 231.05 109.343H236.496C236.987 109.343 237.233 109.575 237.233 110.039Z" fill="#B925B9"/>
<path d="M241.339 88.4597V84.7334C241.339 84.2967 241.557 84.0783 241.994 84.0783H244.656C245.092 84.0783 245.311 84.2967 245.311 84.7334V88.4597C245.311 88.9237 245.092 89.1558 244.656 89.1558H241.994C241.557 89.1558 241.339 88.9237 241.339 88.4597ZM241.339 112.127V92.6363C241.339 92.1722 241.557 91.9402 241.994 91.9402H244.615C245.079 91.9402 245.311 92.1722 245.311 92.6363V112.127C245.311 112.4 245.256 112.591 245.147 112.701C245.065 112.782 244.901 112.823 244.656 112.823H242.035C241.571 112.823 241.339 112.591 241.339 112.127Z" fill="#B925B9"/>
<path d="M258.225 112.823H256.629C254.608 112.823 253.039 112.264 251.92 111.145C250.828 110.025 250.282 108.469 250.282 106.477V98.287C250.282 96.267 250.828 94.711 251.92 93.619C253.039 92.4998 254.608 91.9402 256.629 91.9402H265.801C266.292 91.9402 266.538 92.1722 266.538 92.6363V112.127C266.538 112.591 266.292 112.823 265.801 112.823H263.221C262.757 112.823 262.525 112.591 262.525 112.127V110.653H262.361C261.706 112.1 260.327 112.823 258.225 112.823ZM262.525 105.862V95.8302C262.525 95.5572 262.375 95.4207 262.075 95.4207H257.202C255.236 95.4207 254.254 96.4307 254.254 98.4508V106.313C254.254 108.333 255.236 109.343 257.202 109.343H259.167C261.406 109.343 262.525 108.183 262.525 105.862Z" fill="#B925B9"/>
<path d="M279.425 112.823H277.336C275.371 112.823 273.856 112.277 272.791 111.185C271.754 110.066 271.235 108.497 271.235 106.477V98.287C271.235 96.2397 271.754 94.67 272.791 93.5781C273.856 92.4861 275.371 91.9402 277.336 91.9402H279.425C281.527 91.9402 282.892 92.6636 283.519 94.1104H283.683V84.7334C283.683 84.2694 283.915 84.0373 284.379 84.0373H287C287.464 84.0373 287.696 84.2694 287.696 84.7334V112.127C287.696 112.591 287.464 112.823 287 112.823H284.379C283.915 112.823 283.683 112.591 283.683 112.127V110.653H283.519C282.892 112.1 281.527 112.823 279.425 112.823ZM283.683 105.862V98.9012C283.683 96.5809 282.564 95.4207 280.326 95.4207H278.155C276.19 95.4207 275.207 96.4307 275.207 98.4508V106.313C275.207 108.333 276.19 109.343 278.155 109.343H280.326C282.564 109.343 283.683 108.183 283.683 105.862Z" fill="#B925B9"/>
<path d="M302.379 112.823H298.776C296.755 112.823 295.186 112.264 294.067 111.145C292.975 110.025 292.429 108.469 292.429 106.477V98.287C292.429 96.267 292.975 94.711 294.067 93.619C295.186 92.4998 296.755 91.9402 298.776 91.9402H302.379C304.372 91.9402 305.928 92.4998 307.047 93.619C308.193 94.711 308.767 96.267 308.767 98.287V106.477C308.767 108.469 308.193 110.025 307.047 111.145C305.928 112.264 304.372 112.823 302.379 112.823ZM299.349 109.343H301.847C303.812 109.343 304.795 108.346 304.795 106.354V98.4099C304.795 96.4171 303.812 95.4207 301.847 95.4207H299.349C298.311 95.4207 297.561 95.6664 297.097 96.1578C296.633 96.6218 296.401 97.3725 296.401 98.4099V106.354C296.401 107.391 296.633 108.155 297.097 108.647C297.561 109.111 298.311 109.343 299.349 109.343Z" fill="#B925B9"/>
<path d="M312.858 116.468V114.707C312.858 114.297 313.076 114.093 313.513 114.093H313.595C314.796 114.093 315.724 113.697 316.379 112.905C317.034 112.141 317.362 110.981 317.362 109.425V94.0694C317.362 92.5134 317.034 91.3533 316.379 90.5889C315.724 89.7973 314.796 89.4014 313.595 89.4014H313.513C313.076 89.4014 312.858 89.1967 312.858 88.7872V87.0265C312.858 86.6716 313.076 86.4942 313.513 86.4942H313.595C315.779 86.4942 317.498 87.163 318.754 88.5006C320.037 89.8109 320.679 91.8037 320.679 94.4789V108.974C320.679 111.677 320.037 113.683 318.754 114.994C317.498 116.331 315.779 117 313.595 117H313.513C313.076 117 312.858 116.823 312.858 116.468Z" fill="#B925B9"/>
</g>
<rect x="41.5" y="15.5" width="367.581" height="118" stroke="#F77BCC" stroke-width="7"/>
</g>
<g id="title2">
<g id="Lenguaje Matem&#195;&#161;tico (Ecuaci&#195;&#179;n)">
<path d="M679.963 60.786H666.696C666.232 60.786 666 60.554 666 60.0899V35.1529C666 34.6889 666.232 34.4568 666.696 34.4568H669.276C669.74 34.4568 669.972 34.6889 669.972 35.1529V56.8141C669.972 57.0871 670.136 57.2236 670.463 57.2236H679.963C680.427 57.2236 680.659 57.4693 680.659 57.9607V60.0899C680.659 60.554 680.427 60.786 679.963 60.786Z" fill="#2EBF1E"/>
<path d="M698.807 60.786H689.962C687.942 60.786 686.373 60.2264 685.253 59.1072C684.161 57.988 683.615 56.432 683.615 54.4392V46.2497C683.615 44.2296 684.161 42.6736 685.253 41.5817C686.373 40.4625 687.942 39.9028 689.962 39.9028H693.32C695.34 39.9028 696.91 40.4625 698.029 41.5817C699.148 42.6736 699.708 44.2296 699.708 46.2497V51.45C699.708 51.9414 699.462 52.1871 698.971 52.1871H687.997C687.696 52.1871 687.546 52.3236 687.546 52.5965V54.3573C687.546 56.3501 688.543 57.3464 690.535 57.3464H698.807C699.298 57.3464 699.544 57.5921 699.544 58.0835V60.1309C699.544 60.5676 699.298 60.786 698.807 60.786ZM687.997 49.4026H695.326C695.599 49.4026 695.736 49.2662 695.736 48.9932V46.3725C695.736 45.3352 695.504 44.5845 695.04 44.1204C694.576 43.6291 693.825 43.3834 692.788 43.3834H690.535C689.498 43.3834 688.747 43.6291 688.283 44.1204C687.819 44.5845 687.587 45.3352 687.587 46.3725V48.9932C687.587 49.2662 687.724 49.4026 687.997 49.4026Z" fill="#2EBF1E"/>
<path d="M707.494 60.786H704.915C704.451 60.786 704.219 60.554 704.219 60.0899V40.599C704.219 40.1349 704.451 39.9028 704.915 39.9028H707.494C707.959 39.9028 708.191 40.1349 708.191 40.599V42.0731H708.354C709.009 40.6263 710.388 39.9028 712.49 39.9028H714.292C716.284 39.9028 717.813 40.4488 718.878 41.5407C719.942 42.6327 720.475 44.2023 720.475 46.2497V60.0899C720.475 60.554 720.229 60.786 719.738 60.786H717.158C716.694 60.786 716.462 60.554 716.462 60.0899V46.4135C716.462 44.3934 715.466 43.3834 713.473 43.3834H711.548C709.31 43.3834 708.191 44.5436 708.191 46.8639V60.0899C708.191 60.554 707.959 60.786 707.494 60.786Z" fill="#2EBF1E"/>
<path d="M732.988 59.7623H731.146C729.18 59.7623 727.665 59.2164 726.601 58.1244C725.563 57.0052 725.045 55.4356 725.045 53.4155V46.2497C725.045 44.2296 725.604 42.6736 726.723 41.5817C727.843 40.4625 729.399 39.9028 731.391 39.9028H740.564C741.055 39.9028 741.301 40.1349 741.301 40.599V60.8679C741.301 62.8607 740.727 64.403 739.581 65.495C738.462 66.6142 736.906 67.1738 734.913 67.1738H727.215C726.751 67.1738 726.519 66.9554 726.519 66.5187V64.3894C726.519 63.9253 726.751 63.6933 727.215 63.6933H734.299C736.291 63.6933 737.288 62.6833 737.288 60.6632V57.5512H737.124C736.442 59.0253 735.063 59.7623 732.988 59.7623ZM737.288 52.8013V43.7929C737.288 43.5199 737.138 43.3834 736.837 43.3834H731.965C730.026 43.3834 729.057 44.3934 729.057 46.4135V53.2108C729.057 55.2308 730.026 56.2409 731.965 56.2409H733.93C736.169 56.2409 737.288 55.0943 737.288 52.8013Z" fill="#2EBF1E"/>
<path d="M754.145 60.786H752.302C750.337 60.786 748.822 60.2401 747.757 59.1481C746.72 58.0289 746.201 56.4593 746.201 54.4392V40.599C746.201 40.1349 746.433 39.9028 746.897 39.9028H749.477C749.941 39.9028 750.173 40.1349 750.173 40.599V54.2754C750.173 56.2955 751.156 57.3055 753.121 57.3055H755.087C757.325 57.3055 758.444 56.1453 758.444 53.825V40.599C758.444 40.1349 758.676 39.9028 759.14 39.9028H761.72C762.211 39.9028 762.457 40.1349 762.457 40.599V60.0899C762.457 60.554 762.211 60.786 761.72 60.786H759.14C758.676 60.786 758.444 60.554 758.444 60.0899V58.6158H758.28C757.625 60.0626 756.247 60.786 754.145 60.786Z" fill="#2EBF1E"/>
<path d="M775.093 60.786H773.497C771.476 60.786 769.907 60.2264 768.788 59.1072C767.696 57.988 767.15 56.432 767.15 54.4392V46.2497C767.15 44.2296 767.696 42.6736 768.788 41.5817C769.907 40.4625 771.476 39.9028 773.497 39.9028H782.669C783.16 39.9028 783.406 40.1349 783.406 40.599V60.0899C783.406 60.554 783.16 60.786 782.669 60.786H780.089C779.625 60.786 779.393 60.554 779.393 60.0899V58.6158H779.229C778.574 60.0626 777.195 60.786 775.093 60.786ZM779.393 53.825V43.7929C779.393 43.5199 779.243 43.3834 778.943 43.3834H774.07C772.104 43.3834 771.122 44.3934 771.122 46.4135V54.2754C771.122 56.2955 772.104 57.3055 774.07 57.3055H776.035C778.274 57.3055 779.393 56.1453 779.393 53.825Z" fill="#2EBF1E"/>
<path d="M788.717 36.4223V32.6961C788.717 32.2593 788.936 32.0409 789.373 32.0409H792.034C792.471 32.0409 792.689 32.2593 792.689 32.6961V36.4223C792.689 36.8864 792.471 37.1184 792.034 37.1184H789.373C788.936 37.1184 788.717 36.8864 788.717 36.4223ZM786.302 67.1738H784.131C783.667 67.1738 783.435 66.9418 783.435 66.4777V64.3894C783.435 63.9253 783.667 63.6933 784.131 63.6933H785.196C786.479 63.6933 787.38 63.4203 787.899 62.8743C788.444 62.3284 788.717 61.4139 788.717 60.1309V40.599C788.717 40.1349 788.95 39.9028 789.414 39.9028H791.993C792.457 39.9028 792.689 40.1349 792.689 40.599V60.827C792.689 62.8197 792.116 64.3757 790.97 65.495C789.85 66.6142 788.294 67.1738 786.302 67.1738Z" fill="#2EBF1E"/>
<path d="M812.852 60.786H804.007C801.987 60.786 800.417 60.2264 799.298 59.1072C798.206 57.988 797.66 56.432 797.66 54.4392V46.2497C797.66 44.2296 798.206 42.6736 799.298 41.5817C800.417 40.4625 801.987 39.9028 804.007 39.9028H807.365C809.385 39.9028 810.955 40.4625 812.074 41.5817C813.193 42.6736 813.753 44.2296 813.753 46.2497V51.45C813.753 51.9414 813.507 52.1871 813.016 52.1871H802.042C801.741 52.1871 801.591 52.3236 801.591 52.5965V54.3573C801.591 56.3501 802.588 57.3464 804.58 57.3464H812.852C813.343 57.3464 813.589 57.5921 813.589 58.0835V60.1309C813.589 60.5676 813.343 60.786 812.852 60.786ZM802.042 49.4026H809.371C809.644 49.4026 809.781 49.2662 809.781 48.9932V46.3725C809.781 45.3352 809.549 44.5845 809.085 44.1204C808.621 43.6291 807.87 43.3834 806.833 43.3834H804.58C803.543 43.3834 802.792 43.6291 802.328 44.1204C801.864 44.5845 801.632 45.3352 801.632 46.3725V48.9932C801.632 49.2662 801.769 49.4026 802.042 49.4026Z" fill="#2EBF1E"/>
<path d="M846.447 34.4568H851.033C851.497 34.4568 851.729 34.6889 851.729 35.1529V60.0899C851.729 60.554 851.497 60.786 851.033 60.786H848.494C848.03 60.786 847.798 60.554 847.798 60.0899V39.4115H847.634L842.311 54.3982C842.147 54.835 841.847 55.0534 841.41 55.0534H838.79C838.38 55.0534 838.094 54.835 837.93 54.3982L832.484 39.3705H832.32V60.0899C832.32 60.3629 832.265 60.554 832.156 60.6632C832.074 60.7451 831.897 60.786 831.624 60.786H829.126C828.662 60.786 828.43 60.554 828.43 60.0899V35.1529C828.43 34.6889 828.662 34.4568 829.126 34.4568H833.712C834.013 34.4568 834.231 34.607 834.367 34.9073L839.977 50.713H840.182L845.833 34.9073C845.887 34.607 846.092 34.4568 846.447 34.4568Z" fill="#2EBF1E"/>
<path d="M864.826 60.786H863.229C861.209 60.786 859.639 60.2264 858.52 59.1072C857.428 57.988 856.882 56.432 856.882 54.4392V46.2497C856.882 44.2296 857.428 42.6736 858.52 41.5817C859.639 40.4625 861.209 39.9028 863.229 39.9028H872.401C872.893 39.9028 873.138 40.1349 873.138 40.599V60.0899C873.138 60.554 872.893 60.786 872.401 60.786H869.821C869.357 60.786 869.125 60.554 869.125 60.0899V58.6158H868.962C868.306 60.0626 866.928 60.786 864.826 60.786ZM869.125 53.825V43.7929C869.125 43.5199 868.975 43.3834 868.675 43.3834H863.802C861.837 43.3834 860.854 44.3934 860.854 46.4135V54.2754C860.854 56.2955 861.837 57.3055 863.802 57.3055H865.768C868.006 57.3055 869.125 56.1453 869.125 53.825Z" fill="#2EBF1E"/>
<path d="M878.859 43.3834H876.894C876.621 43.3834 876.43 43.3424 876.321 43.2605C876.239 43.1513 876.198 42.9739 876.198 42.7282V40.599C876.198 40.1349 876.43 39.9028 876.894 39.9028H878.859C879.132 39.9028 879.269 39.7664 879.269 39.4934V35.8081C879.269 35.344 879.514 35.112 880.006 35.112H882.586C883.05 35.112 883.282 35.344 883.282 35.8081V39.4934C883.282 39.7664 883.432 39.9028 883.732 39.9028H887.54C888.032 39.9028 888.277 40.1349 888.277 40.599V42.7282C888.277 43.165 888.032 43.3834 887.54 43.3834H883.732C883.432 43.3834 883.282 43.5199 883.282 43.7929V54.3163C883.282 56.3091 884.305 57.3055 886.353 57.3055H887.95C888.441 57.3055 888.687 57.5375 888.687 58.0016V60.1309C888.687 60.5676 888.441 60.786 887.95 60.786H885.739C883.718 60.786 882.135 60.2401 880.989 59.1481C879.842 58.0562 879.269 56.5138 879.269 54.5211V43.7929C879.269 43.5199 879.132 43.3834 878.859 43.3834Z" fill="#2EBF1E"/>
<path d="M907.383 60.786H898.538C896.518 60.786 894.948 60.2264 893.829 59.1072C892.737 57.988 892.191 56.432 892.191 54.4392V46.2497C892.191 44.2296 892.737 42.6736 893.829 41.5817C894.948 40.4625 896.518 39.9028 898.538 39.9028H901.896C903.916 39.9028 905.486 40.4625 906.605 41.5817C907.724 42.6736 908.284 44.2296 908.284 46.2497V51.45C908.284 51.9414 908.038 52.1871 907.547 52.1871H896.573C896.272 52.1871 896.122 52.3236 896.122 52.5965V54.3573C896.122 56.3501 897.119 57.3464 899.111 57.3464H907.383C907.874 57.3464 908.12 57.5921 908.12 58.0835V60.1309C908.12 60.5676 907.874 60.786 907.383 60.786ZM896.573 49.4026H903.902C904.175 49.4026 904.312 49.2662 904.312 48.9932V46.3725C904.312 45.3352 904.08 44.5845 903.616 44.1204C903.152 43.6291 902.401 43.3834 901.363 43.3834H899.111C898.074 43.3834 897.323 43.6291 896.859 44.1204C896.395 44.5845 896.163 45.3352 896.163 46.3725V48.9932C896.163 49.2662 896.3 49.4026 896.573 49.4026Z" fill="#2EBF1E"/>
<path d="M916.07 60.786H913.491C913.027 60.786 912.794 60.554 912.794 60.0899V40.599C912.794 40.1349 913.027 39.9028 913.491 39.9028H916.07C916.534 39.9028 916.766 40.1349 916.766 40.599V42.0731H916.93C917.722 40.6263 919.169 39.9028 921.271 39.9028H922.622C924.997 39.9028 926.689 40.8037 927.699 42.6054C928.136 41.7318 928.805 41.063 929.706 40.599C930.607 40.1349 931.576 39.9028 932.613 39.9028H933.923C935.916 39.9028 937.431 40.4625 938.469 41.5817C939.533 42.6736 940.065 44.2296 940.065 46.2497V60.0899C940.065 60.554 939.833 60.786 939.369 60.786H936.749C936.285 60.786 936.053 60.554 936.053 60.0899V46.4135C936.053 44.3934 935.07 43.3834 933.104 43.3834H931.917C929.651 43.3834 928.518 44.5709 928.518 46.9458V60.0899C928.518 60.554 928.273 60.786 927.781 60.786H925.202C924.737 60.786 924.505 60.554 924.505 60.0899V46.4135C924.505 44.3934 923.523 43.3834 921.557 43.3834H920.124C917.886 43.3834 916.766 44.5436 916.766 46.8639V60.0899C916.766 60.554 916.534 60.786 916.07 60.786Z" fill="#2EBF1E"/>
<path d="M955.098 32H958.292C958.51 32 958.646 32.0682 958.701 32.2047C958.783 32.3139 958.756 32.4777 958.619 32.6961L955.18 36.7908C954.934 37.1184 954.606 37.2822 954.197 37.2822H952.272C951.836 37.2822 951.726 37.0502 951.945 36.5861L954.074 32.6552C954.265 32.2184 954.606 32 955.098 32ZM952.559 60.786H950.962C948.942 60.786 947.372 60.2264 946.253 59.1072C945.161 57.988 944.615 56.432 944.615 54.4392V46.2497C944.615 44.2296 945.161 42.6736 946.253 41.5817C947.372 40.4625 948.942 39.9028 950.962 39.9028H960.134C960.626 39.9028 960.871 40.1349 960.871 40.599V60.0899C960.871 60.554 960.626 60.786 960.134 60.786H957.555C957.09 60.786 956.858 60.554 956.858 60.0899V58.6158H956.695C956.039 60.0626 954.661 60.786 952.559 60.786ZM956.858 53.825V43.7929C956.858 43.5199 956.708 43.3834 956.408 43.3834H951.535C949.57 43.3834 948.587 44.3934 948.587 46.4135V54.2754C948.587 56.2955 949.57 57.3055 951.535 57.3055H953.501C955.739 57.3055 956.858 56.1453 956.858 53.825Z" fill="#2EBF1E"/>
<path d="M966.592 43.3834H964.627C964.354 43.3834 964.163 43.3424 964.054 43.2605C963.972 43.1513 963.931 42.9739 963.931 42.7282V40.599C963.931 40.1349 964.163 39.9028 964.627 39.9028H966.592C966.865 39.9028 967.002 39.7664 967.002 39.4934V35.8081C967.002 35.344 967.248 35.112 967.739 35.112H970.319C970.783 35.112 971.015 35.344 971.015 35.8081V39.4934C971.015 39.7664 971.165 39.9028 971.465 39.9028H975.273C975.765 39.9028 976.01 40.1349 976.01 40.599V42.7282C976.01 43.165 975.765 43.3834 975.273 43.3834H971.465C971.165 43.3834 971.015 43.5199 971.015 43.7929V54.3163C971.015 56.3091 972.038 57.3055 974.086 57.3055H975.683C976.174 57.3055 976.42 57.5375 976.42 58.0016V60.1309C976.42 60.5676 976.174 60.786 975.683 60.786H973.472C971.451 60.786 969.868 60.2401 968.722 59.1481C967.575 58.0562 967.002 56.5138 967.002 54.5211V43.7929C967.002 43.5199 966.865 43.3834 966.592 43.3834Z" fill="#2EBF1E"/>
<path d="M980.538 36.4223V32.6961C980.538 32.2593 980.757 32.0409 981.194 32.0409H983.855C984.292 32.0409 984.51 32.2593 984.51 32.6961V36.4223C984.51 36.8864 984.292 37.1184 983.855 37.1184H981.194C980.757 37.1184 980.538 36.8864 980.538 36.4223ZM980.538 60.0899V40.599C980.538 40.1349 980.757 39.9028 981.194 39.9028H983.814C984.278 39.9028 984.51 40.1349 984.51 40.599V60.0899C984.51 60.3629 984.456 60.554 984.347 60.6632C984.265 60.7451 984.101 60.786 983.855 60.786H981.235C980.77 60.786 980.538 60.554 980.538 60.0899Z" fill="#2EBF1E"/>
<path d="M1002.58 58.0016V60.1309C1002.58 60.5676 1002.34 60.786 1001.85 60.786H995.828C993.808 60.786 992.238 60.2264 991.119 59.1072C990.027 57.988 989.481 56.432 989.481 54.4392V46.2497C989.481 44.2296 990.027 42.6736 991.119 41.5817C992.238 40.4625 993.808 39.9028 995.828 39.9028H1001.85C1002.34 39.9028 1002.58 40.1349 1002.58 40.599V42.7282C1002.58 43.165 1002.34 43.3834 1001.85 43.3834H996.401C994.436 43.3834 993.453 44.3934 993.453 46.4135V54.2754C993.453 56.2955 994.436 57.3055 996.401 57.3055H1001.85C1002.34 57.3055 1002.58 57.5375 1002.58 58.0016Z" fill="#2EBF1E"/>
<path d="M1016.03 60.786H1012.42C1010.4 60.786 1008.83 60.2264 1007.71 59.1072C1006.62 57.988 1006.08 56.432 1006.08 54.4392V46.2497C1006.08 44.2296 1006.62 42.6736 1007.71 41.5817C1008.83 40.4625 1010.4 39.9028 1012.42 39.9028H1016.03C1018.02 39.9028 1019.58 40.4625 1020.69 41.5817C1021.84 42.6736 1022.41 44.2296 1022.41 46.2497V54.4392C1022.41 56.432 1021.84 57.988 1020.69 59.1072C1019.58 60.2264 1018.02 60.786 1016.03 60.786ZM1013 57.3055H1015.49C1017.46 57.3055 1018.44 56.3091 1018.44 54.3163V46.3725C1018.44 44.3798 1017.46 43.3834 1015.49 43.3834H1013C1011.96 43.3834 1011.21 43.6291 1010.74 44.1204C1010.28 44.5845 1010.05 45.3352 1010.05 46.3725V54.3163C1010.05 55.3537 1010.28 56.118 1010.74 56.6094C1011.21 57.0735 1011.96 57.3055 1013 57.3055Z" fill="#2EBF1E"/>
<path d="M767.593 89.4014H767.429C764.972 89.4014 763.744 90.9574 763.744 94.0694V109.425C763.744 112.537 764.999 114.093 767.511 114.093H767.593C768.03 114.093 768.248 114.297 768.248 114.707V116.468C768.248 116.686 768.207 116.823 768.125 116.877C768.043 116.959 767.866 117 767.593 117H767.429C765.245 117 763.525 116.331 762.27 114.994C761.041 113.683 760.427 111.677 760.427 108.974V94.4789C760.427 91.8037 761.055 89.8109 762.311 88.5006C763.566 87.163 765.286 86.4942 767.47 86.4942H767.593C767.866 86.4942 768.043 86.5351 768.125 86.617C768.207 86.6716 768.248 86.8081 768.248 87.0265V88.7872C768.248 89.1967 768.03 89.4014 767.593 89.4014Z" fill="#2EBF1E"/>
<path d="M787.406 112.823H774.303C773.839 112.823 773.607 112.591 773.607 112.127V87.1903C773.607 86.7262 773.839 86.4942 774.303 86.4942H787.406C787.843 86.4942 788.061 86.7262 788.061 87.1903V89.2786C788.061 89.7427 787.843 89.9747 787.406 89.9747H778.07C777.743 89.9747 777.579 90.1112 777.579 90.3842V97.3043C777.579 97.5773 777.743 97.7138 778.07 97.7138H785.973C786.464 97.7138 786.71 97.9458 786.71 98.4099V100.498C786.71 100.962 786.464 101.194 785.973 101.194H778.07C777.743 101.194 777.579 101.331 777.579 101.604V108.892C777.579 109.193 777.743 109.343 778.07 109.343H787.406C787.843 109.343 788.061 109.575 788.061 110.039V112.127C788.061 112.591 787.843 112.823 787.406 112.823Z" fill="#2EBF1E"/>
<path d="M805.565 110.039V112.168C805.565 112.605 805.319 112.823 804.828 112.823H798.809C796.789 112.823 795.219 112.264 794.1 111.145C793.008 110.025 792.462 108.469 792.462 106.477V98.287C792.462 96.267 793.008 94.711 794.1 93.619C795.219 92.4998 796.789 91.9402 798.809 91.9402H804.828C805.319 91.9402 805.565 92.1722 805.565 92.6363V94.7656C805.565 95.2023 805.319 95.4207 804.828 95.4207H799.382C797.417 95.4207 796.434 96.4307 796.434 98.4508V106.313C796.434 108.333 797.417 109.343 799.382 109.343H804.828C805.319 109.343 805.565 109.575 805.565 110.039Z" fill="#2EBF1E"/>
<path d="M817.205 112.823H815.363C813.397 112.823 811.882 112.277 810.818 111.185C809.78 110.066 809.262 108.497 809.262 106.477V92.6363C809.262 92.1722 809.494 91.9402 809.958 91.9402H812.537C813.001 91.9402 813.233 92.1722 813.233 92.6363V106.313C813.233 108.333 814.216 109.343 816.182 109.343H818.147C820.386 109.343 821.505 108.183 821.505 105.862V92.6363C821.505 92.1722 821.737 91.9402 822.201 91.9402H824.781C825.272 91.9402 825.518 92.1722 825.518 92.6363V112.127C825.518 112.591 825.272 112.823 824.781 112.823H822.201C821.737 112.823 821.505 112.591 821.505 112.127V110.653H821.341C820.686 112.1 819.307 112.823 817.205 112.823Z" fill="#2EBF1E"/>
<path d="M838.154 112.823H836.557C834.537 112.823 832.967 112.264 831.848 111.145C830.756 110.025 830.21 108.469 830.21 106.477V98.287C830.21 96.267 830.756 94.711 831.848 93.619C832.967 92.4998 834.537 91.9402 836.557 91.9402H845.729C846.221 91.9402 846.466 92.1722 846.466 92.6363V112.127C846.466 112.591 846.221 112.823 845.729 112.823H843.15C842.686 112.823 842.454 112.591 842.454 112.127V110.653H842.29C841.635 112.1 840.256 112.823 838.154 112.823ZM842.454 105.862V95.8302C842.454 95.5572 842.303 95.4207 842.003 95.4207H837.13C835.165 95.4207 834.182 96.4307 834.182 98.4508V106.313C834.182 108.333 835.165 109.343 837.13 109.343H839.096C841.334 109.343 842.454 108.183 842.454 105.862Z" fill="#2EBF1E"/>
<path d="M864.267 110.039V112.168C864.267 112.605 864.021 112.823 863.53 112.823H857.511C855.491 112.823 853.921 112.264 852.802 111.145C851.71 110.025 851.164 108.469 851.164 106.477V98.287C851.164 96.267 851.71 94.711 852.802 93.619C853.921 92.4998 855.491 91.9402 857.511 91.9402H863.53C864.021 91.9402 864.267 92.1722 864.267 92.6363V94.7656C864.267 95.2023 864.021 95.4207 863.53 95.4207H858.084C856.118 95.4207 855.136 96.4307 855.136 98.4508V106.313C855.136 108.333 856.118 109.343 858.084 109.343H863.53C864.021 109.343 864.267 109.575 864.267 110.039Z" fill="#2EBF1E"/>
<path d="M868.373 88.4597V84.7334C868.373 84.2967 868.591 84.0783 869.028 84.0783H871.69C872.126 84.0783 872.345 84.2967 872.345 84.7334V88.4597C872.345 88.9237 872.126 89.1558 871.69 89.1558H869.028C868.591 89.1558 868.373 88.9237 868.373 88.4597ZM868.373 112.127V92.6363C868.373 92.1722 868.591 91.9402 869.028 91.9402H871.649C872.113 91.9402 872.345 92.1722 872.345 92.6363V112.127C872.345 112.4 872.29 112.591 872.181 112.701C872.099 112.782 871.935 112.823 871.69 112.823H869.069C868.605 112.823 868.373 112.591 868.373 112.127Z" fill="#2EBF1E"/>
<path d="M887.266 84.0373H890.46C890.706 84.0373 890.856 84.1056 890.91 84.2421C890.992 84.3513 890.951 84.515 890.788 84.7334L887.348 88.8282C887.075 89.1558 886.747 89.3195 886.365 89.3195H884.441C883.977 89.3195 883.867 89.0875 884.113 88.6234L886.201 84.6925C886.447 84.2557 886.802 84.0373 887.266 84.0373ZM887.266 112.823H883.663C881.643 112.823 880.073 112.264 878.954 111.145C877.862 110.025 877.316 108.469 877.316 106.477V98.287C877.316 96.267 877.862 94.711 878.954 93.619C880.073 92.4998 881.643 91.9402 883.663 91.9402H887.266C889.259 91.9402 890.815 92.4998 891.934 93.619C893.081 94.711 893.654 96.267 893.654 98.287V106.477C893.654 108.469 893.081 110.025 891.934 111.145C890.815 112.264 889.259 112.823 887.266 112.823ZM884.236 109.343H886.734C888.699 109.343 889.682 108.346 889.682 106.354V98.4099C889.682 96.4171 888.699 95.4207 886.734 95.4207H884.236C883.199 95.4207 882.448 95.6664 881.984 96.1578C881.52 96.6218 881.288 97.3725 881.288 98.4099V106.354C881.288 107.391 881.52 108.155 881.984 108.647C882.448 109.111 883.199 109.343 884.236 109.343Z" fill="#2EBF1E"/>
<path d="M901.635 112.823H899.055C898.591 112.823 898.359 112.591 898.359 112.127V92.6363C898.359 92.1722 898.591 91.9402 899.055 91.9402H901.635C902.099 91.9402 902.331 92.1722 902.331 92.6363V94.1104H902.495C903.15 92.6636 904.528 91.9402 906.63 91.9402H908.432C910.425 91.9402 911.953 92.4861 913.018 93.5781C914.083 94.67 914.615 96.2397 914.615 98.287V112.127C914.615 112.591 914.369 112.823 913.878 112.823H911.298C910.834 112.823 910.602 112.591 910.602 112.127V98.4508C910.602 96.4307 909.606 95.4207 907.613 95.4207H905.689C903.45 95.4207 902.331 96.5809 902.331 98.9012V112.127C902.331 112.591 902.099 112.823 901.635 112.823Z" fill="#2EBF1E"/>
<path d="M918.898 116.468V114.707C918.898 114.297 919.117 114.093 919.553 114.093H919.635C920.836 114.093 921.765 113.697 922.42 112.905C923.075 112.141 923.402 110.981 923.402 109.425V94.0694C923.402 92.5134 923.075 91.3533 922.42 90.5889C921.765 89.7973 920.836 89.4014 919.635 89.4014H919.553C919.117 89.4014 918.898 89.1967 918.898 88.7872V87.0265C918.898 86.6716 919.117 86.4942 919.553 86.4942H919.635C921.819 86.4942 923.539 87.163 924.795 88.5006C926.078 89.8109 926.719 91.8037 926.719 94.4789V108.974C926.719 111.677 926.078 113.683 924.795 114.994C923.539 116.331 921.819 117 919.635 117H919.553C919.117 117 918.898 116.823 918.898 116.468Z" fill="#2EBF1E"/>
</g>
<rect x="649.5" y="15.5" width="389.414" height="118" stroke="#81EF66" stroke-width="7"/>
</g>
</g>
</g>
</svg>
