<svg viewBox="0 0 993 395" fill="none" xmlns="http://www.w3.org/2000/svg">
<g id="0120149">
<g id="claves01">
<path id="Rectangle 4" d="M57 205H273.745L307 245L273.745 285H57V205Z" fill="#E8A1EE" fill-opacity="0.1"/>
<path id="Rectangle 4 (Stroke)" fill-rule="evenodd" clip-rule="evenodd" d="M272.338 208H60V282H272.338L303.099 245L272.338 208ZM273.745 205H57V285H273.745L307 245L273.745 205Z" fill="#E8A1EE"/>
<path id="Rectangle 5" d="M61 315H277.745L311 355L277.745 395H61V315Z" fill="#E8A1EE" fill-opacity="0.1"/>
<path id="Rectangle 5 (Stroke)" fill-rule="evenodd" clip-rule="evenodd" d="M276.338 318H64V392H276.338L307.099 355L276.338 318ZM277.745 315H61V395H277.745L311 355L277.745 315Z" fill="#E8A1EE"/>
<path id="Rectangle 6" d="M397 202H613.745L647 242L613.745 282H397V202Z" fill="#E8A1EE" fill-opacity="0.1"/>
<path id="Rectangle 6 (Stroke)" fill-rule="evenodd" clip-rule="evenodd" d="M612.338 205H400V279H612.338L643.099 242L612.338 205ZM613.745 202H397V282H613.745L647 242L613.745 202Z" fill="#E8A1EE"/>
<path id="Rectangle 7" d="M400 312H616.745L650 352L616.745 392H400V312Z" fill="#E8A1EE" fill-opacity="0.1"/>
<path id="Rectangle 7 (Stroke)" fill-rule="evenodd" clip-rule="evenodd" d="M615.338 315H403V389H615.338L646.099 352L615.338 315ZM616.745 312H400V392H616.745L650 352L616.745 312Z" fill="#E8A1EE"/>
<path id="Rectangle 8" d="M743 261H959.745L993 301L959.745 341H743V261Z" fill="#E8A1EE" fill-opacity="0.1"/>
<path id="Rectangle 8 (Stroke)" fill-rule="evenodd" clip-rule="evenodd" d="M958.338 264H746V338H958.338L989.099 301L958.338 264ZM959.745 261H743V341H959.745L993 301L959.745 261Z" fill="#E8A1EE"/>
<path id="Ellipse 1" d="M98 245C98 267.091 80.0914 285 58 285C35.9086 285 18 267.091 18 245C18 222.909 35.9086 205 58 205C80.0914 205 98 222.909 98 245Z" fill="#E8A1EE"/>
<path id="Ellipse 2" d="M102 355C102 377.091 84.0914 395 62 395C39.9086 395 22 377.091 22 355C22 332.909 39.9086 315 62 315C84.0914 315 102 332.909 102 355Z" fill="#E8A1EE"/>
<path id="Ellipse 3" d="M438 242C438 264.091 420.091 282 398 282C375.909 282 358 264.091 358 242C358 219.909 375.909 202 398 202C420.091 202 438 219.909 438 242Z" fill="#E8A1EE"/>
<path id="Ellipse 4" d="M441 352C441 374.091 423.091 392 401 392C378.909 392 361 374.091 361 352C361 329.909 378.909 312 401 312C423.091 312 441 329.909 441 352Z" fill="#E8A1EE"/>
<path id="Ellipse 5" d="M784 301C784 323.091 766.091 341 744 341C721.909 341 704 323.091 704 301C704 278.909 721.909 261 744 261C766.091 261 784 278.909 784 301Z" fill="#E8A1EE"/>
<path id="A" d="M66.0938 255.406H48.4688L44.7812 266H36.5625L53.75 220.5H60.8438L78.0625 266H69.8125L66.0938 255.406ZM50.6875 249.031H63.875L57.2812 230.156L50.6875 249.031Z" fill="white"/>
<path id="B" d="M45.625 371V325.5H61.2188C66.3646 325.5 70.2812 326.531 72.9688 328.594C75.6562 330.656 77 333.729 77 337.812C77 339.896 76.4375 341.771 75.3125 343.438C74.1875 345.104 72.5417 346.396 70.375 347.312C72.8333 347.979 74.7292 349.24 76.0625 351.094C77.4167 352.927 78.0938 355.135 78.0938 357.719C78.0938 361.99 76.7188 365.271 73.9688 367.562C71.2396 369.854 67.3229 371 62.2188 371H45.625ZM53.5312 350.469V364.688H62.3125C64.7917 364.688 66.7292 364.073 68.125 362.844C69.5208 361.615 70.2188 359.906 70.2188 357.719C70.2188 352.99 67.8021 350.573 62.9688 350.469H53.5312ZM53.5312 344.656H61.2812C63.7396 344.656 65.6562 344.104 67.0312 343C68.4271 341.875 69.125 340.292 69.125 338.25C69.125 336 68.4792 334.375 67.1875 333.375C65.9167 332.375 63.9271 331.875 61.2188 331.875H53.5312V344.656Z" fill="white"/>
<path id="C" d="M415.344 249.188C414.885 254.042 413.094 257.833 409.969 260.562C406.844 263.271 402.688 264.625 397.5 264.625C393.875 264.625 390.677 263.771 387.906 262.062C385.156 260.333 383.031 257.885 381.531 254.719C380.031 251.552 379.25 247.875 379.188 243.688V239.438C379.188 235.146 379.948 231.365 381.469 228.094C382.99 224.823 385.167 222.302 388 220.531C390.854 218.76 394.146 217.875 397.875 217.875C402.896 217.875 406.938 219.24 410 221.969C413.062 224.698 414.844 228.552 415.344 233.531H407.469C407.094 230.26 406.135 227.906 404.594 226.469C403.073 225.01 400.833 224.281 397.875 224.281C394.438 224.281 391.792 225.542 389.938 228.062C388.104 230.562 387.167 234.24 387.125 239.094V243.125C387.125 248.042 388 251.792 389.75 254.375C391.521 256.958 394.104 258.25 397.5 258.25C400.604 258.25 402.938 257.552 404.5 256.156C406.062 254.76 407.052 252.438 407.469 249.188H415.344Z" fill="white"/>
<path id="D" d="M383.625 374V328.5H397.062C401.083 328.5 404.646 329.396 407.75 331.188C410.875 332.979 413.292 335.521 415 338.812C416.708 342.104 417.562 345.875 417.562 350.125V352.406C417.562 356.719 416.698 360.51 414.969 363.781C413.26 367.052 410.812 369.573 407.625 371.344C404.458 373.115 400.823 374 396.719 374H383.625ZM391.531 334.875V367.688H396.688C400.833 367.688 404.01 366.396 406.219 363.812C408.448 361.208 409.583 357.479 409.625 352.625V350.094C409.625 345.156 408.552 341.385 406.406 338.781C404.26 336.177 401.146 334.875 397.062 334.875H391.531Z" fill="white"/>
<path id="E" d="M753.219 302.688H734.531V316.688H756.375V323H726.625V277.5H756.156V283.875H734.531V296.438H753.219V302.688Z" fill="white"/>
<g id="flecha">
<path id="Rectangle 2" d="M760.2 262.008L775.482 270.133L733.5 349.089L718.219 340.964L760.2 262.008Z" fill="#1043F5"/>
<path id="Rectangle 1" d="M702 274.904L792 225V282.692L747 265.096L702 274.904Z" fill="#1043F5"/>
<path id="Rectangle 3" d="M706.038 344.209L721.665 317.142L738.936 316.564L723.309 343.631L706.038 344.209Z" fill="#1043F5"/>
<path id="Rectangle 4_2" d="M732.09 358.845L747.717 331.778L738.926 316.154L723.299 343.221L732.09 358.845Z" fill="#1043F5"/>
</g>
<g id="440 450 480 460 400">
<path d="M153.855 253.404H157.406V256.059H153.855V262H150.586V256.059H138.932V254.143L150.393 236.406H153.855V253.404ZM142.623 253.404H150.586V240.854L150.199 241.557L142.623 253.404Z" fill="#E8A1EE"/>
<path d="M174.07 253.404H177.621V256.059H174.07V262H170.801V256.059H159.146V254.143L170.607 236.406H174.07V253.404ZM162.838 253.404H170.801V240.854L170.414 241.557L162.838 253.404Z" fill="#E8A1EE"/>
<path d="M196.605 251.084C196.605 254.893 195.955 257.723 194.654 259.574C193.354 261.426 191.32 262.352 188.555 262.352C185.824 262.352 183.803 261.449 182.49 259.645C181.178 257.828 180.498 255.121 180.451 251.523V247.182C180.451 243.42 181.102 240.625 182.402 238.797C183.703 236.969 185.742 236.055 188.52 236.055C191.273 236.055 193.301 236.939 194.602 238.709C195.902 240.467 196.57 243.186 196.605 246.865V251.084ZM193.354 246.637C193.354 243.883 192.967 241.879 192.193 240.625C191.42 239.359 190.195 238.727 188.52 238.727C186.855 238.727 185.643 239.354 184.881 240.607C184.119 241.861 183.727 243.789 183.703 246.391V251.594C183.703 254.359 184.102 256.404 184.898 257.729C185.707 259.041 186.926 259.697 188.555 259.697C190.16 259.697 191.35 259.076 192.123 257.834C192.908 256.592 193.318 254.635 193.354 251.963V246.637Z" fill="#E8A1EE"/>
<path d="M527.039 253.404H530.59V256.059H527.039V262H523.77V256.059H512.115V254.143L523.576 236.406H527.039V253.404ZM515.807 253.404H523.77V240.854L523.383 241.557L515.807 253.404Z" fill="#E8A1EE"/>
<path d="M535.02 249.168L536.32 236.406H549.434V239.412H539.08L538.307 246.391C539.561 245.652 540.984 245.283 542.578 245.283C544.91 245.283 546.762 246.057 548.133 247.604C549.504 249.139 550.189 251.219 550.189 253.844C550.189 256.48 549.475 258.561 548.045 260.084C546.627 261.596 544.641 262.352 542.086 262.352C539.824 262.352 537.979 261.725 536.549 260.471C535.119 259.217 534.305 257.482 534.105 255.268H537.182C537.381 256.732 537.902 257.84 538.746 258.59C539.59 259.328 540.703 259.697 542.086 259.697C543.598 259.697 544.781 259.182 545.637 258.15C546.504 257.119 546.938 255.695 546.938 253.879C546.938 252.168 546.469 250.797 545.531 249.766C544.605 248.723 543.369 248.201 541.822 248.201C540.404 248.201 539.291 248.512 538.482 249.133L537.621 249.836L535.02 249.168Z" fill="#E8A1EE"/>
<path d="M569.789 251.084C569.789 254.893 569.139 257.723 567.838 259.574C566.537 261.426 564.504 262.352 561.738 262.352C559.008 262.352 556.986 261.449 555.674 259.645C554.361 257.828 553.682 255.121 553.635 251.523V247.182C553.635 243.42 554.285 240.625 555.586 238.797C556.887 236.969 558.926 236.055 561.703 236.055C564.457 236.055 566.484 236.939 567.785 238.709C569.086 240.467 569.754 243.186 569.789 246.865V251.084ZM566.537 246.637C566.537 243.883 566.15 241.879 565.377 240.625C564.604 239.359 563.379 238.727 561.703 238.727C560.039 238.727 558.826 239.354 558.064 240.607C557.303 241.861 556.91 243.789 556.887 246.391V251.594C556.887 254.359 557.285 256.404 558.082 257.729C558.891 259.041 560.109 259.697 561.738 259.697C563.344 259.697 564.533 259.076 565.307 257.834C566.092 256.592 566.502 254.635 566.537 251.963V246.637Z" fill="#E8A1EE"/>
<path d="M850.371 303.404H853.922V306.059H850.371V312H847.102V306.059H835.447V304.143L846.908 286.406H850.371V303.404ZM839.139 303.404H847.102V290.854L846.715 291.557L839.139 303.404Z" fill="#E8A1EE"/>
<path d="M872.379 293.086C872.379 294.363 872.039 295.5 871.359 296.496C870.691 297.492 869.783 298.271 868.635 298.834C869.971 299.408 871.025 300.246 871.799 301.348C872.584 302.449 872.977 303.697 872.977 305.092C872.977 307.307 872.227 309.07 870.727 310.383C869.238 311.695 867.275 312.352 864.838 312.352C862.377 312.352 860.402 311.695 858.914 310.383C857.438 309.059 856.699 307.295 856.699 305.092C856.699 303.709 857.074 302.461 857.824 301.348C858.586 300.234 859.635 299.391 860.971 298.816C859.834 298.254 858.938 297.475 858.281 296.479C857.625 295.482 857.297 294.352 857.297 293.086C857.297 290.93 857.988 289.219 859.371 287.953C860.754 286.688 862.576 286.055 864.838 286.055C867.088 286.055 868.904 286.688 870.287 287.953C871.682 289.219 872.379 290.93 872.379 293.086ZM869.725 305.021C869.725 303.592 869.268 302.426 868.354 301.523C867.451 300.621 866.268 300.17 864.803 300.17C863.338 300.17 862.16 300.615 861.27 301.506C860.391 302.396 859.951 303.568 859.951 305.021C859.951 306.475 860.379 307.617 861.234 308.449C862.102 309.281 863.303 309.697 864.838 309.697C866.361 309.697 867.557 309.281 868.424 308.449C869.291 307.605 869.725 306.463 869.725 305.021ZM864.838 288.727C863.561 288.727 862.523 289.125 861.727 289.922C860.941 290.707 860.549 291.779 860.549 293.139C860.549 294.439 860.936 295.494 861.709 296.303C862.494 297.1 863.537 297.498 864.838 297.498C866.139 297.498 867.176 297.1 867.949 296.303C868.734 295.494 869.127 294.439 869.127 293.139C869.127 291.838 868.723 290.777 867.914 289.957C867.105 289.137 866.08 288.727 864.838 288.727Z" fill="#E8A1EE"/>
<path d="M893.121 301.084C893.121 304.893 892.471 307.723 891.17 309.574C889.869 311.426 887.836 312.352 885.07 312.352C882.34 312.352 880.318 311.449 879.006 309.645C877.693 307.828 877.014 305.121 876.967 301.523V297.182C876.967 293.42 877.617 290.625 878.918 288.797C880.219 286.969 882.258 286.055 885.035 286.055C887.789 286.055 889.816 286.939 891.117 288.709C892.418 290.467 893.086 293.186 893.121 296.865V301.084ZM889.869 296.637C889.869 293.883 889.482 291.879 888.709 290.625C887.936 289.359 886.711 288.727 885.035 288.727C883.371 288.727 882.158 289.354 881.396 290.607C880.635 291.861 880.242 293.789 880.219 296.391V301.594C880.219 304.359 880.617 306.404 881.414 307.729C882.223 309.041 883.441 309.697 885.07 309.697C886.676 309.697 887.865 309.076 888.639 307.834C889.424 306.592 889.834 304.635 889.869 301.963V296.637Z" fill="#E8A1EE"/>
<path d="M153.855 353.404H157.406V356.059H153.855V362H150.586V356.059H138.932V354.143L150.393 336.406H153.855V353.404ZM142.623 353.404H150.586V340.854L150.199 341.557L142.623 353.404Z" fill="#E8A1EE"/>
<path d="M173.104 336.389V339.148H172.506C169.975 339.195 167.959 339.945 166.459 341.398C164.959 342.852 164.092 344.896 163.857 347.533C165.205 345.986 167.045 345.213 169.377 345.213C171.604 345.213 173.379 345.998 174.703 347.568C176.039 349.139 176.707 351.166 176.707 353.65C176.707 356.287 175.986 358.396 174.545 359.979C173.115 361.561 171.193 362.352 168.779 362.352C166.33 362.352 164.344 361.414 162.82 359.539C161.297 357.652 160.535 355.227 160.535 352.262V351.014C160.535 346.303 161.537 342.705 163.541 340.221C165.557 337.725 168.551 336.447 172.523 336.389H173.104ZM168.832 347.92C167.719 347.92 166.693 348.254 165.756 348.922C164.818 349.59 164.168 350.428 163.805 351.436V352.631C163.805 354.74 164.279 356.439 165.229 357.729C166.178 359.018 167.361 359.662 168.779 359.662C170.244 359.662 171.393 359.123 172.225 358.045C173.068 356.967 173.49 355.555 173.49 353.809C173.49 352.051 173.062 350.633 172.207 349.555C171.363 348.465 170.238 347.92 168.832 347.92Z" fill="#E8A1EE"/>
<path d="M196.605 351.084C196.605 354.893 195.955 357.723 194.654 359.574C193.354 361.426 191.32 362.352 188.555 362.352C185.824 362.352 183.803 361.449 182.49 359.645C181.178 357.828 180.498 355.121 180.451 351.523V347.182C180.451 343.42 181.102 340.625 182.402 338.797C183.703 336.969 185.742 336.055 188.52 336.055C191.273 336.055 193.301 336.939 194.602 338.709C195.902 340.467 196.57 343.186 196.605 346.865V351.084ZM193.354 346.637C193.354 343.883 192.967 341.879 192.193 340.625C191.42 339.359 190.195 338.727 188.52 338.727C186.855 338.727 185.643 339.354 184.881 340.607C184.119 341.861 183.727 343.789 183.703 346.391V351.594C183.703 354.359 184.102 356.404 184.898 357.729C185.707 359.041 186.926 359.697 188.555 359.697C190.16 359.697 191.35 359.076 192.123 357.834C192.908 356.592 193.318 354.635 193.354 351.963V346.637Z" fill="#E8A1EE"/>
<path d="M535.969 353.404H539.52V356.059H535.969V362H532.699V356.059H521.045V354.143L532.506 336.406H535.969V353.404ZM524.736 353.404H532.699V340.854L532.312 341.557L524.736 353.404Z" fill="#E8A1EE"/>
<path d="M558.504 351.084C558.504 354.893 557.854 357.723 556.553 359.574C555.252 361.426 553.219 362.352 550.453 362.352C547.723 362.352 545.701 361.449 544.389 359.645C543.076 357.828 542.396 355.121 542.35 351.523V347.182C542.35 343.42 543 340.625 544.301 338.797C545.602 336.969 547.641 336.055 550.418 336.055C553.172 336.055 555.199 336.939 556.5 338.709C557.801 340.467 558.469 343.186 558.504 346.865V351.084ZM555.252 346.637C555.252 343.883 554.865 341.879 554.092 340.625C553.318 339.359 552.094 338.727 550.418 338.727C548.754 338.727 547.541 339.354 546.779 340.607C546.018 341.861 545.625 343.789 545.602 346.391V351.594C545.602 354.359 546 356.404 546.797 357.729C547.605 359.041 548.824 359.697 550.453 359.697C552.059 359.697 553.248 359.076 554.021 357.834C554.807 356.592 555.217 354.635 555.252 351.963V346.637Z" fill="#E8A1EE"/>
<path d="M578.719 351.084C578.719 354.893 578.068 357.723 576.768 359.574C575.467 361.426 573.434 362.352 570.668 362.352C567.938 362.352 565.916 361.449 564.604 359.645C563.291 357.828 562.611 355.121 562.564 351.523V347.182C562.564 343.42 563.215 340.625 564.516 338.797C565.816 336.969 567.855 336.055 570.633 336.055C573.387 336.055 575.414 336.939 576.715 338.709C578.016 340.467 578.684 343.186 578.719 346.865V351.084ZM575.467 346.637C575.467 343.883 575.08 341.879 574.307 340.625C573.533 339.359 572.309 338.727 570.633 338.727C568.969 338.727 567.756 339.354 566.994 340.607C566.232 341.861 565.84 343.789 565.816 346.391V351.594C565.816 354.359 566.215 356.404 567.012 357.729C567.82 359.041 569.039 359.697 570.668 359.697C572.273 359.697 573.463 359.076 574.236 357.834C575.021 356.592 575.432 354.635 575.467 351.963V346.637Z" fill="#E8A1EE"/>
</g>
</g>
<g id="enun01">
<path id="Rectangle 1_2" d="M58.2471 0H874.247L943 84.2698L874.247 171H58.2471V0Z" fill="#02071A"/>
<path id="Rectangle 1 (Stroke)" fill-rule="evenodd" clip-rule="evenodd" d="M872.335 4H62.2641V167H872.3L937.854 84.3058L872.335 4ZM874.247 0H58.2471V171H874.247L943 84.2698L874.247 0Z" fill="#E8A1EE"/>
<path id="Ellipse 1_2" d="M100.426 91C100.426 118.614 77.9449 141 50.213 141C22.4811 141 0 118.614 0 91C0 63.3858 22.4811 41 50.213 41C77.9449 41 100.426 63.3858 100.426 91Z" fill="#E8A1EE"/>
<path id="Ellipse 1 (Stroke)" fill-rule="evenodd" clip-rule="evenodd" d="M50.213 140C77.3902 140 99.4217 118.062 99.4217 91C99.4217 63.938 77.3902 42 50.213 42C23.0358 42 1.00426 63.938 1.00426 91C1.00426 118.062 23.0358 140 50.213 140ZM50.213 141C77.9449 141 100.426 118.614 100.426 91C100.426 63.3858 77.9449 41 50.213 41C22.4811 41 0 63.3858 0 91C0 118.614 22.4811 141 50.213 141Z" fill="#E8A1EE"/>
<g id="El dinero que tiene Paco aumentado en sus 7 /12 es igual a 760, &#194;&#191;cu&#195;&#161;nto tiene Paco?">
<path d="M134.438 62.1699H123.346V71.2402H136.23V74H119.971V48.4062H136.055V51.1836H123.346V59.4102H134.438V62.1699Z" fill="white"/>
<path d="M143.455 74H140.203V47H143.455V74Z" fill="white"/>
<path d="M156.814 64.332C156.814 61.4141 157.506 59.0703 158.889 57.3008C160.271 55.5195 162.082 54.6289 164.32 54.6289C166.547 54.6289 168.311 55.3906 169.611 56.9141V47H172.863V74H169.875L169.717 71.9609C168.416 73.5547 166.605 74.3516 164.285 74.3516C162.082 74.3516 160.283 73.4492 158.889 71.6445C157.506 69.8398 156.814 67.4844 156.814 64.5781V64.332ZM160.066 64.7012C160.066 66.8574 160.512 68.5449 161.402 69.7637C162.293 70.9824 163.523 71.5918 165.094 71.5918C167.156 71.5918 168.662 70.666 169.611 68.8145V60.0781C168.639 58.2852 167.145 57.3887 165.129 57.3887C163.535 57.3887 162.293 58.0039 161.402 59.2344C160.512 60.4648 160.066 62.2871 160.066 64.7012Z" fill="white"/>
<path d="M181.459 74H178.207V54.9805H181.459V74ZM177.943 49.9355C177.943 49.4082 178.102 48.9629 178.418 48.5996C178.746 48.2363 179.227 48.0547 179.859 48.0547C180.492 48.0547 180.973 48.2363 181.301 48.5996C181.629 48.9629 181.793 49.4082 181.793 49.9355C181.793 50.4629 181.629 50.9023 181.301 51.2539C180.973 51.6055 180.492 51.7812 179.859 51.7812C179.227 51.7812 178.746 51.6055 178.418 51.2539C178.102 50.9023 177.943 50.4629 177.943 49.9355Z" fill="white"/>
<path d="M189.756 54.9805L189.861 57.3711C191.314 55.543 193.213 54.6289 195.557 54.6289C199.576 54.6289 201.604 56.8965 201.639 61.4316V74H198.387V61.4141C198.375 60.043 198.059 59.0293 197.438 58.373C196.828 57.7168 195.873 57.3887 194.572 57.3887C193.518 57.3887 192.592 57.6699 191.795 58.2324C190.998 58.7949 190.377 59.5332 189.932 60.4473V74H186.68V54.9805H189.756Z" fill="white"/>
<path d="M214.436 74.3516C211.857 74.3516 209.76 73.5078 208.143 71.8203C206.525 70.1211 205.717 67.8535 205.717 65.0176V64.4199C205.717 62.5332 206.074 60.8516 206.789 59.375C207.516 57.8867 208.523 56.7266 209.812 55.8945C211.113 55.0508 212.52 54.6289 214.031 54.6289C216.504 54.6289 218.426 55.4434 219.797 57.0723C221.168 58.7012 221.854 61.0332 221.854 64.0684V65.4219H208.969C209.016 67.2969 209.561 68.8145 210.604 69.9746C211.658 71.123 212.994 71.6973 214.611 71.6973C215.76 71.6973 216.732 71.4629 217.529 70.9941C218.326 70.5254 219.023 69.9043 219.621 69.1309L221.607 70.6777C220.014 73.127 217.623 74.3516 214.436 74.3516ZM214.031 57.3008C212.719 57.3008 211.617 57.7812 210.727 58.7422C209.836 59.6914 209.285 61.0273 209.074 62.75H218.602V62.5039C218.508 60.8516 218.062 59.5742 217.266 58.6719C216.469 57.7578 215.391 57.3008 214.031 57.3008Z" fill="white"/>
<path d="M234.826 57.8984C234.334 57.8164 233.801 57.7754 233.227 57.7754C231.094 57.7754 229.646 58.6836 228.885 60.5V74H225.633V54.9805H228.797L228.85 57.1777C229.916 55.4785 231.428 54.6289 233.385 54.6289C234.018 54.6289 234.498 54.7109 234.826 54.875V57.8984Z" fill="white"/>
<path d="M236.619 64.3145C236.619 62.4512 236.982 60.7754 237.709 59.2871C238.447 57.7988 239.467 56.6504 240.768 55.8418C242.08 55.0332 243.574 54.6289 245.25 54.6289C247.84 54.6289 249.932 55.5254 251.525 57.3184C253.131 59.1113 253.934 61.4961 253.934 64.4727V64.7012C253.934 66.5527 253.576 68.2168 252.861 69.6934C252.158 71.1582 251.145 72.3008 249.82 73.1211C248.508 73.9414 246.996 74.3516 245.285 74.3516C242.707 74.3516 240.615 73.4551 239.01 71.6621C237.416 69.8691 236.619 67.4961 236.619 64.543V64.3145ZM239.889 64.7012C239.889 66.8105 240.375 68.5039 241.348 69.7812C242.332 71.0586 243.645 71.6973 245.285 71.6973C246.938 71.6973 248.25 71.0527 249.223 69.7637C250.195 68.4629 250.682 66.6465 250.682 64.3145C250.682 62.2285 250.184 60.541 249.188 59.252C248.203 57.9512 246.891 57.3008 245.25 57.3008C243.645 57.3008 242.35 57.9395 241.365 59.2168C240.381 60.4941 239.889 62.3223 239.889 64.7012Z" fill="white"/>
<path d="M266.15 64.332C266.15 61.3438 266.836 58.9824 268.207 57.248C269.578 55.502 271.418 54.6289 273.727 54.6289C275.977 54.6289 277.752 55.3848 279.053 56.8965L279.193 54.9805H282.182V81.3125H278.93V72.2422C277.617 73.6484 275.871 74.3516 273.691 74.3516C271.395 74.3516 269.561 73.4609 268.189 71.6797C266.83 69.8867 266.15 67.5137 266.15 64.5605V64.332ZM269.402 64.7012C269.402 66.8809 269.859 68.5918 270.773 69.834C271.699 71.0762 272.941 71.6973 274.5 71.6973C276.434 71.6973 277.91 70.8418 278.93 69.1309V59.8145C277.898 58.1387 276.434 57.3008 274.535 57.3008C272.965 57.3008 271.717 57.9277 270.791 59.1816C269.865 60.4238 269.402 62.2637 269.402 64.7012Z" fill="white"/>
<path d="M299.145 72.1191C297.879 73.6074 296.021 74.3516 293.572 74.3516C291.545 74.3516 289.998 73.7656 288.932 72.5938C287.877 71.4102 287.344 69.6641 287.332 67.3555V54.9805H290.584V67.2676C290.584 70.1504 291.756 71.5918 294.1 71.5918C296.584 71.5918 298.236 70.666 299.057 68.8145V54.9805H302.309V74H299.215L299.145 72.1191Z" fill="white"/>
<path d="M315.158 74.3516C312.58 74.3516 310.482 73.5078 308.865 71.8203C307.248 70.1211 306.439 67.8535 306.439 65.0176V64.4199C306.439 62.5332 306.797 60.8516 307.512 59.375C308.238 57.8867 309.246 56.7266 310.535 55.8945C311.836 55.0508 313.242 54.6289 314.754 54.6289C317.227 54.6289 319.148 55.4434 320.52 57.0723C321.891 58.7012 322.576 61.0332 322.576 64.0684V65.4219H309.691C309.738 67.2969 310.283 68.8145 311.326 69.9746C312.381 71.123 313.717 71.6973 315.334 71.6973C316.482 71.6973 317.455 71.4629 318.252 70.9941C319.049 70.5254 319.746 69.9043 320.344 69.1309L322.33 70.6777C320.736 73.127 318.346 74.3516 315.158 74.3516ZM314.754 57.3008C313.441 57.3008 312.34 57.7812 311.449 58.7422C310.559 59.6914 310.008 61.0273 309.797 62.75H319.324V62.5039C319.23 60.8516 318.785 59.5742 317.988 58.6719C317.191 57.7578 316.113 57.3008 314.754 57.3008Z" fill="white"/>
<path d="M339.697 50.375V54.9805H343.248V57.4941H339.697V69.2891C339.697 70.0508 339.855 70.625 340.172 71.0117C340.488 71.3867 341.027 71.5742 341.789 71.5742C342.164 71.5742 342.68 71.5039 343.336 71.3633V74C342.48 74.2344 341.648 74.3516 340.84 74.3516C339.387 74.3516 338.291 73.9121 337.553 73.0332C336.814 72.1543 336.445 70.9062 336.445 69.2891V57.4941H332.982V54.9805H336.445V50.375H339.697Z" fill="white"/>
<path d="M350.596 74H347.344V54.9805H350.596V74ZM347.08 49.9355C347.08 49.4082 347.238 48.9629 347.555 48.5996C347.883 48.2363 348.363 48.0547 348.996 48.0547C349.629 48.0547 350.109 48.2363 350.438 48.5996C350.766 48.9629 350.93 49.4082 350.93 49.9355C350.93 50.4629 350.766 50.9023 350.438 51.2539C350.109 51.6055 349.629 51.7812 348.996 51.7812C348.363 51.7812 347.883 51.6055 347.555 51.2539C347.238 50.9023 347.08 50.4629 347.08 49.9355Z" fill="white"/>
<path d="M363.709 74.3516C361.131 74.3516 359.033 73.5078 357.416 71.8203C355.799 70.1211 354.99 67.8535 354.99 65.0176V64.4199C354.99 62.5332 355.348 60.8516 356.062 59.375C356.789 57.8867 357.797 56.7266 359.086 55.8945C360.387 55.0508 361.793 54.6289 363.305 54.6289C365.777 54.6289 367.699 55.4434 369.07 57.0723C370.441 58.7012 371.127 61.0332 371.127 64.0684V65.4219H358.242C358.289 67.2969 358.834 68.8145 359.877 69.9746C360.932 71.123 362.268 71.6973 363.885 71.6973C365.033 71.6973 366.006 71.4629 366.803 70.9941C367.6 70.5254 368.297 69.9043 368.895 69.1309L370.881 70.6777C369.287 73.127 366.896 74.3516 363.709 74.3516ZM363.305 57.3008C361.992 57.3008 360.891 57.7812 360 58.7422C359.109 59.6914 358.559 61.0273 358.348 62.75H367.875V62.5039C367.781 60.8516 367.336 59.5742 366.539 58.6719C365.742 57.7578 364.664 57.3008 363.305 57.3008Z" fill="white"/>
<path d="M377.982 54.9805L378.088 57.3711C379.541 55.543 381.439 54.6289 383.783 54.6289C387.803 54.6289 389.83 56.8965 389.865 61.4316V74H386.613V61.4141C386.602 60.043 386.285 59.0293 385.664 58.373C385.055 57.7168 384.1 57.3887 382.799 57.3887C381.744 57.3887 380.818 57.6699 380.021 58.2324C379.225 58.7949 378.604 59.5332 378.158 60.4473V74H374.906V54.9805H377.982Z" fill="white"/>
<path d="M402.662 74.3516C400.084 74.3516 397.986 73.5078 396.369 71.8203C394.752 70.1211 393.943 67.8535 393.943 65.0176V64.4199C393.943 62.5332 394.301 60.8516 395.016 59.375C395.742 57.8867 396.75 56.7266 398.039 55.8945C399.34 55.0508 400.746 54.6289 402.258 54.6289C404.73 54.6289 406.652 55.4434 408.023 57.0723C409.395 58.7012 410.08 61.0332 410.08 64.0684V65.4219H397.195C397.242 67.2969 397.787 68.8145 398.83 69.9746C399.885 71.123 401.221 71.6973 402.838 71.6973C403.986 71.6973 404.959 71.4629 405.756 70.9941C406.553 70.5254 407.25 69.9043 407.848 69.1309L409.834 70.6777C408.24 73.127 405.85 74.3516 402.662 74.3516ZM402.258 57.3008C400.945 57.3008 399.844 57.7812 398.953 58.7422C398.062 59.6914 397.512 61.0273 397.301 62.75H406.828V62.5039C406.734 60.8516 406.289 59.5742 405.492 58.6719C404.695 57.7578 403.617 57.3008 402.258 57.3008Z" fill="white"/>
<path d="M426.674 63.9805V74H423.299V48.4062H432.738C435.539 48.4062 437.73 49.1211 439.312 50.5508C440.906 51.9805 441.703 53.873 441.703 56.2285C441.703 58.7129 440.924 60.6289 439.365 61.9766C437.818 63.3125 435.598 63.9805 432.703 63.9805H426.674ZM426.674 61.2207H432.738C434.543 61.2207 435.926 60.7988 436.887 59.9551C437.848 59.0996 438.328 57.8691 438.328 56.2637C438.328 54.7402 437.848 53.5215 436.887 52.6074C435.926 51.6934 434.607 51.2188 432.932 51.1836H426.674V61.2207Z" fill="white"/>
<path d="M457.031 74C456.844 73.625 456.691 72.957 456.574 71.9961C455.062 73.5664 453.258 74.3516 451.16 74.3516C449.285 74.3516 447.744 73.8242 446.537 72.7695C445.342 71.7031 444.744 70.3555 444.744 68.7266C444.744 66.7461 445.494 65.2109 446.994 64.1211C448.506 63.0195 450.627 62.4688 453.357 62.4688H456.521V60.9746C456.521 59.8379 456.182 58.9355 455.502 58.2676C454.822 57.5879 453.82 57.248 452.496 57.248C451.336 57.248 450.363 57.541 449.578 58.127C448.793 58.7129 448.4 59.4219 448.4 60.2539H445.131C445.131 59.3047 445.465 58.3906 446.133 57.5117C446.812 56.6211 447.727 55.918 448.875 55.4023C450.035 54.8867 451.307 54.6289 452.689 54.6289C454.881 54.6289 456.598 55.1797 457.84 56.2812C459.082 57.3711 459.727 58.877 459.773 60.7988V69.5527C459.773 71.2988 459.996 72.6875 460.441 73.7188V74H457.031ZM451.635 71.5215C452.654 71.5215 453.621 71.2578 454.535 70.7305C455.449 70.2031 456.111 69.5176 456.521 68.6738V64.7715H453.973C449.988 64.7715 447.996 65.9375 447.996 68.2695C447.996 69.2891 448.336 70.0859 449.016 70.6602C449.695 71.2344 450.568 71.5215 451.635 71.5215Z" fill="white"/>
<path d="M472.5 71.6973C473.66 71.6973 474.674 71.3457 475.541 70.6426C476.408 69.9395 476.889 69.0605 476.982 68.0059H480.059C480 69.0957 479.625 70.1328 478.934 71.1172C478.242 72.1016 477.316 72.8867 476.156 73.4727C475.008 74.0586 473.789 74.3516 472.5 74.3516C469.91 74.3516 467.848 73.4902 466.312 71.7676C464.789 70.0332 464.027 67.666 464.027 64.666V64.1211C464.027 62.2695 464.367 60.623 465.047 59.1816C465.727 57.7402 466.699 56.6211 467.965 55.8242C469.242 55.0273 470.748 54.6289 472.482 54.6289C474.615 54.6289 476.385 55.2676 477.791 56.5449C479.209 57.8223 479.965 59.4805 480.059 61.5195H476.982C476.889 60.2891 476.42 59.2812 475.576 58.4961C474.744 57.6992 473.713 57.3008 472.482 57.3008C470.83 57.3008 469.547 57.8984 468.633 59.0938C467.73 60.2773 467.279 61.9941 467.279 64.2441V64.8594C467.279 67.0508 467.73 68.7383 468.633 69.9219C469.535 71.1055 470.824 71.6973 472.5 71.6973Z" fill="white"/>
<path d="M482.854 64.3145C482.854 62.4512 483.217 60.7754 483.943 59.2871C484.682 57.7988 485.701 56.6504 487.002 55.8418C488.314 55.0332 489.809 54.6289 491.484 54.6289C494.074 54.6289 496.166 55.5254 497.76 57.3184C499.365 59.1113 500.168 61.4961 500.168 64.4727V64.7012C500.168 66.5527 499.811 68.2168 499.096 69.6934C498.393 71.1582 497.379 72.3008 496.055 73.1211C494.742 73.9414 493.23 74.3516 491.52 74.3516C488.941 74.3516 486.85 73.4551 485.244 71.6621C483.65 69.8691 482.854 67.4961 482.854 64.543V64.3145ZM486.123 64.7012C486.123 66.8105 486.609 68.5039 487.582 69.7812C488.566 71.0586 489.879 71.6973 491.52 71.6973C493.172 71.6973 494.484 71.0527 495.457 69.7637C496.43 68.4629 496.916 66.6465 496.916 64.3145C496.916 62.2285 496.418 60.541 495.422 59.252C494.438 57.9512 493.125 57.3008 491.484 57.3008C489.879 57.3008 488.584 57.9395 487.6 59.2168C486.615 60.4941 486.123 62.3223 486.123 64.7012Z" fill="white"/>
<path d="M524.918 74C524.73 73.625 524.578 72.957 524.461 71.9961C522.949 73.5664 521.145 74.3516 519.047 74.3516C517.172 74.3516 515.631 73.8242 514.424 72.7695C513.229 71.7031 512.631 70.3555 512.631 68.7266C512.631 66.7461 513.381 65.2109 514.881 64.1211C516.393 63.0195 518.514 62.4688 521.244 62.4688H524.408V60.9746C524.408 59.8379 524.068 58.9355 523.389 58.2676C522.709 57.5879 521.707 57.248 520.383 57.248C519.223 57.248 518.25 57.541 517.465 58.127C516.68 58.7129 516.287 59.4219 516.287 60.2539H513.018C513.018 59.3047 513.352 58.3906 514.02 57.5117C514.699 56.6211 515.613 55.918 516.762 55.4023C517.922 54.8867 519.193 54.6289 520.576 54.6289C522.768 54.6289 524.484 55.1797 525.727 56.2812C526.969 57.3711 527.613 58.877 527.66 60.7988V69.5527C527.66 71.2988 527.883 72.6875 528.328 73.7188V74H524.918ZM519.521 71.5215C520.541 71.5215 521.508 71.2578 522.422 70.7305C523.336 70.2031 523.998 69.5176 524.408 68.6738V64.7715H521.859C517.875 64.7715 515.883 65.9375 515.883 68.2695C515.883 69.2891 516.223 70.0859 516.902 70.6602C517.582 71.2344 518.455 71.5215 519.521 71.5215Z" fill="white"/>
<path d="M544.5 72.1191C543.234 73.6074 541.377 74.3516 538.928 74.3516C536.9 74.3516 535.354 73.7656 534.287 72.5938C533.232 71.4102 532.699 69.6641 532.688 67.3555V54.9805H535.939V67.2676C535.939 70.1504 537.111 71.5918 539.455 71.5918C541.939 71.5918 543.592 70.666 544.412 68.8145V54.9805H547.664V74H544.57L544.5 72.1191Z" fill="white"/>
<path d="M555.68 54.9805L555.768 57.0898C557.162 55.4492 559.043 54.6289 561.41 54.6289C564.07 54.6289 565.881 55.6484 566.842 57.6875C567.475 56.7734 568.295 56.0352 569.303 55.4727C570.322 54.9102 571.523 54.6289 572.906 54.6289C577.078 54.6289 579.199 56.8379 579.27 61.2559V74H576.018V61.4492C576.018 60.0898 575.707 59.0762 575.086 58.4082C574.465 57.7285 573.422 57.3887 571.957 57.3887C570.75 57.3887 569.748 57.752 568.951 58.4785C568.154 59.1934 567.691 60.1602 567.562 61.3789V74H564.293V61.5371C564.293 58.7715 562.939 57.3887 560.232 57.3887C558.1 57.3887 556.641 58.2969 555.855 60.1133V74H552.604V54.9805H555.68Z" fill="white"/>
<path d="M592.084 74.3516C589.506 74.3516 587.408 73.5078 585.791 71.8203C584.174 70.1211 583.365 67.8535 583.365 65.0176V64.4199C583.365 62.5332 583.723 60.8516 584.438 59.375C585.164 57.8867 586.172 56.7266 587.461 55.8945C588.762 55.0508 590.168 54.6289 591.68 54.6289C594.152 54.6289 596.074 55.4434 597.445 57.0723C598.816 58.7012 599.502 61.0332 599.502 64.0684V65.4219H586.617C586.664 67.2969 587.209 68.8145 588.252 69.9746C589.307 71.123 590.643 71.6973 592.26 71.6973C593.408 71.6973 594.381 71.4629 595.178 70.9941C595.975 70.5254 596.672 69.9043 597.27 69.1309L599.256 70.6777C597.662 73.127 595.271 74.3516 592.084 74.3516ZM591.68 57.3008C590.367 57.3008 589.266 57.7812 588.375 58.7422C587.484 59.6914 586.934 61.0273 586.723 62.75H596.25V62.5039C596.156 60.8516 595.711 59.5742 594.914 58.6719C594.117 57.7578 593.039 57.3008 591.68 57.3008Z" fill="white"/>
<path d="M606.357 54.9805L606.463 57.3711C607.916 55.543 609.814 54.6289 612.158 54.6289C616.178 54.6289 618.205 56.8965 618.24 61.4316V74H614.988V61.4141C614.977 60.043 614.66 59.0293 614.039 58.373C613.43 57.7168 612.475 57.3887 611.174 57.3887C610.119 57.3887 609.193 57.6699 608.396 58.2324C607.6 58.7949 606.979 59.5332 606.533 60.4473V74H603.281V54.9805H606.357Z" fill="white"/>
<path d="M627.557 50.375V54.9805H631.107V57.4941H627.557V69.2891C627.557 70.0508 627.715 70.625 628.031 71.0117C628.348 71.3867 628.887 71.5742 629.648 71.5742C630.023 71.5742 630.539 71.5039 631.195 71.3633V74C630.34 74.2344 629.508 74.3516 628.699 74.3516C627.246 74.3516 626.15 73.9121 625.412 73.0332C624.674 72.1543 624.305 70.9062 624.305 69.2891V57.4941H620.842V54.9805H624.305V50.375H627.557Z" fill="white"/>
<path d="M646.664 74C646.477 73.625 646.324 72.957 646.207 71.9961C644.695 73.5664 642.891 74.3516 640.793 74.3516C638.918 74.3516 637.377 73.8242 636.17 72.7695C634.975 71.7031 634.377 70.3555 634.377 68.7266C634.377 66.7461 635.127 65.2109 636.627 64.1211C638.139 63.0195 640.26 62.4688 642.99 62.4688H646.154V60.9746C646.154 59.8379 645.814 58.9355 645.135 58.2676C644.455 57.5879 643.453 57.248 642.129 57.248C640.969 57.248 639.996 57.541 639.211 58.127C638.426 58.7129 638.033 59.4219 638.033 60.2539H634.764C634.764 59.3047 635.098 58.3906 635.766 57.5117C636.445 56.6211 637.359 55.918 638.508 55.4023C639.668 54.8867 640.939 54.6289 642.322 54.6289C644.514 54.6289 646.23 55.1797 647.473 56.2812C648.715 57.3711 649.359 58.877 649.406 60.7988V69.5527C649.406 71.2988 649.629 72.6875 650.074 73.7188V74H646.664ZM641.268 71.5215C642.287 71.5215 643.254 71.2578 644.168 70.7305C645.082 70.2031 645.744 69.5176 646.154 68.6738V64.7715H643.605C639.621 64.7715 637.629 65.9375 637.629 68.2695C637.629 69.2891 637.969 70.0859 638.648 70.6602C639.328 71.2344 640.201 71.5215 641.268 71.5215Z" fill="white"/>
<path d="M653.713 64.332C653.713 61.4141 654.404 59.0703 655.787 57.3008C657.17 55.5195 658.98 54.6289 661.219 54.6289C663.445 54.6289 665.209 55.3906 666.51 56.9141V47H669.762V74H666.773L666.615 71.9609C665.314 73.5547 663.504 74.3516 661.184 74.3516C658.98 74.3516 657.182 73.4492 655.787 71.6445C654.404 69.8398 653.713 67.4844 653.713 64.5781V64.332ZM656.965 64.7012C656.965 66.8574 657.41 68.5449 658.301 69.7637C659.191 70.9824 660.422 71.5918 661.992 71.5918C664.055 71.5918 665.561 70.666 666.51 68.8145V60.0781C665.537 58.2852 664.043 57.3887 662.027 57.3887C660.434 57.3887 659.191 58.0039 658.301 59.2344C657.41 60.4648 656.965 62.2871 656.965 64.7012Z" fill="white"/>
<path d="M673.963 64.3145C673.963 62.4512 674.326 60.7754 675.053 59.2871C675.791 57.7988 676.811 56.6504 678.111 55.8418C679.424 55.0332 680.918 54.6289 682.594 54.6289C685.184 54.6289 687.275 55.5254 688.869 57.3184C690.475 59.1113 691.277 61.4961 691.277 64.4727V64.7012C691.277 66.5527 690.92 68.2168 690.205 69.6934C689.502 71.1582 688.488 72.3008 687.164 73.1211C685.852 73.9414 684.34 74.3516 682.629 74.3516C680.051 74.3516 677.959 73.4551 676.354 71.6621C674.76 69.8691 673.963 67.4961 673.963 64.543V64.3145ZM677.232 64.7012C677.232 66.8105 677.719 68.5039 678.691 69.7812C679.676 71.0586 680.988 71.6973 682.629 71.6973C684.281 71.6973 685.594 71.0527 686.566 69.7637C687.539 68.4629 688.025 66.6465 688.025 64.3145C688.025 62.2285 687.527 60.541 686.531 59.252C685.547 57.9512 684.234 57.3008 682.594 57.3008C680.988 57.3008 679.693 57.9395 678.709 59.2168C677.725 60.4941 677.232 62.3223 677.232 64.7012Z" fill="white"/>
<path d="M712.178 74.3516C709.6 74.3516 707.502 73.5078 705.885 71.8203C704.268 70.1211 703.459 67.8535 703.459 65.0176V64.4199C703.459 62.5332 703.816 60.8516 704.531 59.375C705.258 57.8867 706.266 56.7266 707.555 55.8945C708.855 55.0508 710.262 54.6289 711.773 54.6289C714.246 54.6289 716.168 55.4434 717.539 57.0723C718.91 58.7012 719.596 61.0332 719.596 64.0684V65.4219H706.711C706.758 67.2969 707.303 68.8145 708.346 69.9746C709.4 71.123 710.736 71.6973 712.354 71.6973C713.502 71.6973 714.475 71.4629 715.271 70.9941C716.068 70.5254 716.766 69.9043 717.363 69.1309L719.35 70.6777C717.756 73.127 715.365 74.3516 712.178 74.3516ZM711.773 57.3008C710.461 57.3008 709.359 57.7812 708.469 58.7422C707.578 59.6914 707.027 61.0273 706.816 62.75H716.344V62.5039C716.25 60.8516 715.805 59.5742 715.008 58.6719C714.211 57.7578 713.133 57.3008 711.773 57.3008Z" fill="white"/>
<path d="M726.451 54.9805L726.557 57.3711C728.01 55.543 729.908 54.6289 732.252 54.6289C736.271 54.6289 738.299 56.8965 738.334 61.4316V74H735.082V61.4141C735.07 60.043 734.754 59.0293 734.133 58.373C733.523 57.7168 732.568 57.3887 731.268 57.3887C730.213 57.3887 729.287 57.6699 728.49 58.2324C727.693 58.7949 727.072 59.5332 726.627 60.4473V74H723.375V54.9805H726.451Z" fill="white"/>
<path d="M763.242 68.9551C763.242 68.0762 762.908 67.3965 762.24 66.916C761.584 66.4238 760.43 66.002 758.777 65.6504C757.137 65.2988 755.83 64.877 754.857 64.3848C753.896 63.8926 753.182 63.3066 752.713 62.627C752.256 61.9473 752.027 61.1387 752.027 60.2012C752.027 58.6426 752.684 57.3242 753.996 56.2461C755.32 55.168 757.008 54.6289 759.059 54.6289C761.215 54.6289 762.961 55.1855 764.297 56.2988C765.645 57.4121 766.318 58.8359 766.318 60.5703H763.049C763.049 59.6797 762.668 58.9121 761.906 58.2676C761.156 57.623 760.207 57.3008 759.059 57.3008C757.875 57.3008 756.949 57.5586 756.281 58.0742C755.613 58.5898 755.279 59.2637 755.279 60.0957C755.279 60.8809 755.59 61.4727 756.211 61.8711C756.832 62.2695 757.951 62.6504 759.568 63.0137C761.197 63.377 762.516 63.8105 763.523 64.3145C764.531 64.8184 765.275 65.4277 765.756 66.1426C766.248 66.8457 766.494 67.707 766.494 68.7266C766.494 70.4258 765.814 71.791 764.455 72.8223C763.096 73.8418 761.332 74.3516 759.164 74.3516C757.641 74.3516 756.293 74.082 755.121 73.543C753.949 73.0039 753.029 72.2539 752.361 71.293C751.705 70.3203 751.377 69.2715 751.377 68.1465H754.629C754.688 69.2363 755.121 70.1035 755.93 70.748C756.75 71.3809 757.828 71.6973 759.164 71.6973C760.395 71.6973 761.379 71.4512 762.117 70.959C762.867 70.4551 763.242 69.7871 763.242 68.9551Z" fill="white"/>
<path d="M782.473 72.1191C781.207 73.6074 779.35 74.3516 776.9 74.3516C774.873 74.3516 773.326 73.7656 772.26 72.5938C771.205 71.4102 770.672 69.6641 770.66 67.3555V54.9805H773.912V67.2676C773.912 70.1504 775.084 71.5918 777.428 71.5918C779.912 71.5918 781.564 70.666 782.385 68.8145V54.9805H785.637V74H782.543L782.473 72.1191Z" fill="white"/>
<path d="M801.668 68.9551C801.668 68.0762 801.334 67.3965 800.666 66.916C800.01 66.4238 798.855 66.002 797.203 65.6504C795.562 65.2988 794.256 64.877 793.283 64.3848C792.322 63.8926 791.607 63.3066 791.139 62.627C790.682 61.9473 790.453 61.1387 790.453 60.2012C790.453 58.6426 791.109 57.3242 792.422 56.2461C793.746 55.168 795.434 54.6289 797.484 54.6289C799.641 54.6289 801.387 55.1855 802.723 56.2988C804.07 57.4121 804.744 58.8359 804.744 60.5703H801.475C801.475 59.6797 801.094 58.9121 800.332 58.2676C799.582 57.623 798.633 57.3008 797.484 57.3008C796.301 57.3008 795.375 57.5586 794.707 58.0742C794.039 58.5898 793.705 59.2637 793.705 60.0957C793.705 60.8809 794.016 61.4727 794.637 61.8711C795.258 62.2695 796.377 62.6504 797.994 63.0137C799.623 63.377 800.941 63.8105 801.949 64.3145C802.957 64.8184 803.701 65.4277 804.182 66.1426C804.674 66.8457 804.92 67.707 804.92 68.7266C804.92 70.4258 804.24 71.791 802.881 72.8223C801.521 73.8418 799.758 74.3516 797.59 74.3516C796.066 74.3516 794.719 74.082 793.547 73.543C792.375 73.0039 791.455 72.2539 790.787 71.293C790.131 70.3203 789.803 69.2715 789.803 68.1465H793.055C793.113 69.2363 793.547 70.1035 794.355 70.748C795.176 71.3809 796.254 71.6973 797.59 71.6973C798.82 71.6973 799.805 71.4512 800.543 70.959C801.293 70.4551 801.668 69.7871 801.668 68.9551Z" fill="white"/>
<path d="M135.65 92.2344L125.051 116H121.641L132.205 93.0781H118.354V90.4062H135.65V92.2344Z" fill="white"/>
<path d="M149.256 118.197H146.461L157.148 90.4062H159.926L149.256 118.197Z" fill="white"/>
<path d="M173.795 116H170.525V94.3262L163.969 96.7344V93.7812L173.285 90.2832H173.795V116Z" fill="white"/>
<path d="M200.092 116H183.322V113.662L192.182 103.818C193.494 102.33 194.396 101.123 194.889 100.197C195.393 99.2598 195.645 98.293 195.645 97.2969C195.645 95.9609 195.24 94.8652 194.432 94.0098C193.623 93.1543 192.545 92.7266 191.197 92.7266C189.58 92.7266 188.32 93.1895 187.418 94.1152C186.527 95.0293 186.082 96.3066 186.082 97.9473H182.83C182.83 95.5918 183.586 93.6875 185.098 92.2344C186.621 90.7812 188.654 90.0547 191.197 90.0547C193.576 90.0547 195.457 90.6816 196.84 91.9355C198.223 93.1777 198.914 94.8359 198.914 96.9102C198.914 99.4297 197.309 102.43 194.098 105.91L187.242 113.346H200.092V116Z" fill="white"/>
<path d="M229.623 116.352C227.045 116.352 224.947 115.508 223.33 113.82C221.713 112.121 220.904 109.854 220.904 107.018V106.42C220.904 104.533 221.262 102.852 221.977 101.375C222.703 99.8867 223.711 98.7266 225 97.8945C226.301 97.0508 227.707 96.6289 229.219 96.6289C231.691 96.6289 233.613 97.4434 234.984 99.0723C236.355 100.701 237.041 103.033 237.041 106.068V107.422H224.156C224.203 109.297 224.748 110.814 225.791 111.975C226.846 113.123 228.182 113.697 229.799 113.697C230.947 113.697 231.92 113.463 232.717 112.994C233.514 112.525 234.211 111.904 234.809 111.131L236.795 112.678C235.201 115.127 232.811 116.352 229.623 116.352ZM229.219 99.3008C227.906 99.3008 226.805 99.7812 225.914 100.742C225.023 101.691 224.473 103.027 224.262 104.75H233.789V104.504C233.695 102.852 233.25 101.574 232.453 100.672C231.656 99.7578 230.578 99.3008 229.219 99.3008Z" fill="white"/>
<path d="M251.895 110.955C251.895 110.076 251.561 109.396 250.893 108.916C250.236 108.424 249.082 108.002 247.43 107.65C245.789 107.299 244.482 106.877 243.51 106.385C242.549 105.893 241.834 105.307 241.365 104.627C240.908 103.947 240.68 103.139 240.68 102.201C240.68 100.643 241.336 99.3242 242.648 98.2461C243.973 97.168 245.66 96.6289 247.711 96.6289C249.867 96.6289 251.613 97.1855 252.949 98.2988C254.297 99.4121 254.971 100.836 254.971 102.57H251.701C251.701 101.68 251.32 100.912 250.559 100.268C249.809 99.623 248.859 99.3008 247.711 99.3008C246.527 99.3008 245.602 99.5586 244.934 100.074C244.266 100.59 243.932 101.264 243.932 102.096C243.932 102.881 244.242 103.473 244.863 103.871C245.484 104.27 246.604 104.65 248.221 105.014C249.85 105.377 251.168 105.811 252.176 106.314C253.184 106.818 253.928 107.428 254.408 108.143C254.9 108.846 255.146 109.707 255.146 110.727C255.146 112.426 254.467 113.791 253.107 114.822C251.748 115.842 249.984 116.352 247.816 116.352C246.293 116.352 244.945 116.082 243.773 115.543C242.602 115.004 241.682 114.254 241.014 113.293C240.357 112.32 240.029 111.271 240.029 110.146H243.281C243.34 111.236 243.773 112.104 244.582 112.748C245.402 113.381 246.48 113.697 247.816 113.697C249.047 113.697 250.031 113.451 250.77 112.959C251.52 112.455 251.895 111.787 251.895 110.955Z" fill="white"/>
<path d="M271.846 116H268.594V96.9805H271.846V116ZM268.33 91.9355C268.33 91.4082 268.488 90.9629 268.805 90.5996C269.133 90.2363 269.613 90.0547 270.246 90.0547C270.879 90.0547 271.359 90.2363 271.688 90.5996C272.016 90.9629 272.18 91.4082 272.18 91.9355C272.18 92.4629 272.016 92.9023 271.688 93.2539C271.359 93.6055 270.879 93.7812 270.246 93.7812C269.613 93.7812 269.133 93.6055 268.805 93.2539C268.488 92.9023 268.33 92.4629 268.33 91.9355Z" fill="white"/>
<path d="M276.293 106.332C276.293 103.367 276.979 101.012 278.35 99.2656C279.721 97.5078 281.537 96.6289 283.799 96.6289C286.119 96.6289 287.93 97.4492 289.23 99.0898L289.389 96.9805H292.359V115.543C292.359 118.004 291.627 119.943 290.162 121.361C288.709 122.779 286.752 123.488 284.291 123.488C282.92 123.488 281.578 123.195 280.266 122.609C278.953 122.023 277.951 121.221 277.26 120.201L278.947 118.25C280.342 119.973 282.047 120.834 284.062 120.834C285.645 120.834 286.875 120.389 287.754 119.498C288.645 118.607 289.09 117.354 289.09 115.736V114.102C287.789 115.602 286.014 116.352 283.764 116.352C281.537 116.352 279.732 115.455 278.35 113.662C276.979 111.869 276.293 109.426 276.293 106.332ZM279.562 106.701C279.562 108.846 280.002 110.533 280.881 111.764C281.76 112.982 282.99 113.592 284.572 113.592C286.623 113.592 288.129 112.66 289.09 110.797V102.113C288.094 100.297 286.6 99.3887 284.607 99.3887C283.025 99.3887 281.789 100.004 280.898 101.234C280.008 102.465 279.562 104.287 279.562 106.701Z" fill="white"/>
<path d="M309.023 114.119C307.758 115.607 305.9 116.352 303.451 116.352C301.424 116.352 299.877 115.766 298.811 114.594C297.756 113.41 297.223 111.664 297.211 109.355V96.9805H300.463V109.268C300.463 112.15 301.635 113.592 303.979 113.592C306.463 113.592 308.115 112.666 308.936 110.814V96.9805H312.188V116H309.094L309.023 114.119Z" fill="white"/>
<path d="M328.887 116C328.699 115.625 328.547 114.957 328.43 113.996C326.918 115.566 325.113 116.352 323.016 116.352C321.141 116.352 319.6 115.824 318.393 114.77C317.197 113.703 316.6 112.355 316.6 110.727C316.6 108.746 317.35 107.211 318.85 106.121C320.361 105.02 322.482 104.469 325.213 104.469H328.377V102.975C328.377 101.838 328.037 100.936 327.357 100.268C326.678 99.5879 325.676 99.248 324.352 99.248C323.191 99.248 322.219 99.541 321.434 100.127C320.648 100.713 320.256 101.422 320.256 102.254H316.986C316.986 101.305 317.32 100.391 317.988 99.5117C318.668 98.6211 319.582 97.918 320.73 97.4023C321.891 96.8867 323.162 96.6289 324.545 96.6289C326.736 96.6289 328.453 97.1797 329.695 98.2812C330.938 99.3711 331.582 100.877 331.629 102.799V111.553C331.629 113.299 331.852 114.688 332.297 115.719V116H328.887ZM323.49 113.521C324.51 113.521 325.477 113.258 326.391 112.73C327.305 112.203 327.967 111.518 328.377 110.674V106.771H325.828C321.844 106.771 319.852 107.938 319.852 110.27C319.852 111.289 320.191 112.086 320.871 112.66C321.551 113.234 322.424 113.521 323.49 113.521Z" fill="white"/>
<path d="M340.26 116H337.008V89H340.26V116Z" fill="white"/>
<path d="M366.152 116C365.965 115.625 365.812 114.957 365.695 113.996C364.184 115.566 362.379 116.352 360.281 116.352C358.406 116.352 356.865 115.824 355.658 114.77C354.463 113.703 353.865 112.355 353.865 110.727C353.865 108.746 354.615 107.211 356.115 106.121C357.627 105.02 359.748 104.469 362.479 104.469H365.643V102.975C365.643 101.838 365.303 100.936 364.623 100.268C363.943 99.5879 362.941 99.248 361.617 99.248C360.457 99.248 359.484 99.541 358.699 100.127C357.914 100.713 357.521 101.422 357.521 102.254H354.252C354.252 101.305 354.586 100.391 355.254 99.5117C355.934 98.6211 356.848 97.918 357.996 97.4023C359.156 96.8867 360.428 96.6289 361.811 96.6289C364.002 96.6289 365.719 97.1797 366.961 98.2812C368.203 99.3711 368.848 100.877 368.895 102.799V111.553C368.895 113.299 369.117 114.688 369.562 115.719V116H366.152ZM360.756 113.521C361.775 113.521 362.742 113.258 363.656 112.73C364.57 112.203 365.232 111.518 365.643 110.674V106.771H363.094C359.109 106.771 357.117 107.938 357.117 110.27C357.117 111.289 357.457 112.086 358.137 112.66C358.816 113.234 359.689 113.521 360.756 113.521Z" fill="white"/>
<path d="M399.111 92.2344L388.512 116H385.102L395.666 93.0781H381.814V90.4062H399.111V92.2344Z" fill="white"/>
<path d="M415.564 90.3887V93.1484H414.967C412.436 93.1953 410.42 93.9453 408.92 95.3984C407.42 96.8516 406.553 98.8965 406.318 101.533C407.666 99.9863 409.506 99.2129 411.838 99.2129C414.064 99.2129 415.84 99.998 417.164 101.568C418.5 103.139 419.168 105.166 419.168 107.65C419.168 110.287 418.447 112.396 417.006 113.979C415.576 115.561 413.654 116.352 411.24 116.352C408.791 116.352 406.805 115.414 405.281 113.539C403.758 111.652 402.996 109.227 402.996 106.262V105.014C402.996 100.303 403.998 96.7051 406.002 94.2207C408.018 91.7246 411.012 90.4473 414.984 90.3887H415.564ZM411.293 101.92C410.18 101.92 409.154 102.254 408.217 102.922C407.279 103.59 406.629 104.428 406.266 105.436V106.631C406.266 108.74 406.74 110.439 407.689 111.729C408.639 113.018 409.822 113.662 411.24 113.662C412.705 113.662 413.854 113.123 414.686 112.045C415.529 110.967 415.951 109.555 415.951 107.809C415.951 106.051 415.523 104.633 414.668 103.555C413.824 102.465 412.699 101.92 411.293 101.92Z" fill="white"/>
<path d="M439.066 105.084C439.066 108.893 438.416 111.723 437.115 113.574C435.814 115.426 433.781 116.352 431.016 116.352C428.285 116.352 426.264 115.449 424.951 113.645C423.639 111.828 422.959 109.121 422.912 105.523V101.182C422.912 97.4199 423.562 94.625 424.863 92.7969C426.164 90.9688 428.203 90.0547 430.98 90.0547C433.734 90.0547 435.762 90.9395 437.062 92.709C438.363 94.4668 439.031 97.1855 439.066 100.865V105.084ZM435.814 100.637C435.814 97.8828 435.428 95.8789 434.654 94.625C433.881 93.3594 432.656 92.7266 430.98 92.7266C429.316 92.7266 428.104 93.3535 427.342 94.6074C426.58 95.8613 426.188 97.7891 426.164 100.391V105.594C426.164 108.359 426.562 110.404 427.359 111.729C428.168 113.041 429.387 113.697 431.016 113.697C432.621 113.697 433.811 113.076 434.584 111.834C435.369 110.592 435.779 108.635 435.814 105.963V100.637Z" fill="white"/>
<path d="M443.461 121.098L441.615 119.832C442.717 118.297 443.291 116.715 443.338 115.086V112.15H446.52V114.699C446.52 115.883 446.227 117.066 445.641 118.25C445.066 119.434 444.34 120.383 443.461 121.098Z" fill="white"/>
<path d="M467.438 104.047C467.426 105.289 467.297 106.285 467.051 107.035C466.816 107.773 466.418 108.488 465.855 109.18C465.293 109.871 464.473 110.785 463.395 111.922C462.316 113.047 461.713 114.189 461.584 115.35L461.549 116C461.549 117.277 461.889 118.25 462.568 118.918C463.248 119.598 464.227 119.938 465.504 119.938C466.676 119.938 467.625 119.604 468.352 118.936C469.09 118.279 469.459 117.418 469.459 116.352H472.711C472.688 118.238 472.014 119.779 470.689 120.975C469.377 122.17 467.648 122.768 465.504 122.768C463.207 122.768 461.432 122.176 460.178 120.992C458.924 119.82 458.297 118.186 458.297 116.088C458.297 114.061 459.234 112.021 461.109 109.971L463.025 107.984C463.799 107.07 464.186 105.758 464.186 104.047H467.438ZM467.578 98.4746C467.578 99.002 467.414 99.4473 467.086 99.8105C466.77 100.174 466.295 100.355 465.662 100.355C465.029 100.355 464.549 100.174 464.221 99.8105C463.893 99.4473 463.729 99.002 463.729 98.4746C463.729 97.959 463.893 97.5254 464.221 97.1738C464.549 96.8223 465.029 96.6465 465.662 96.6465C466.295 96.6465 466.77 96.8223 467.086 97.1738C467.414 97.5254 467.578 97.959 467.578 98.4746Z" fill="white"/>
<path d="M484.242 113.697C485.402 113.697 486.416 113.346 487.283 112.643C488.15 111.939 488.631 111.061 488.725 110.006H491.801C491.742 111.096 491.367 112.133 490.676 113.117C489.984 114.102 489.059 114.887 487.898 115.473C486.75 116.059 485.531 116.352 484.242 116.352C481.652 116.352 479.59 115.49 478.055 113.768C476.531 112.033 475.77 109.666 475.77 106.666V106.121C475.77 104.27 476.109 102.623 476.789 101.182C477.469 99.7402 478.441 98.6211 479.707 97.8242C480.984 97.0273 482.49 96.6289 484.225 96.6289C486.357 96.6289 488.127 97.2676 489.533 98.5449C490.951 99.8223 491.707 101.48 491.801 103.52H488.725C488.631 102.289 488.162 101.281 487.318 100.496C486.486 99.6992 485.455 99.3008 484.225 99.3008C482.572 99.3008 481.289 99.8984 480.375 101.094C479.473 102.277 479.021 103.994 479.021 106.244V106.859C479.021 109.051 479.473 110.738 480.375 111.922C481.277 113.105 482.566 113.697 484.242 113.697Z" fill="white"/>
<path d="M507.199 114.119C505.934 115.607 504.076 116.352 501.627 116.352C499.6 116.352 498.053 115.766 496.986 114.594C495.932 113.41 495.398 111.664 495.387 109.355V96.9805H498.639V109.268C498.639 112.15 499.811 113.592 502.154 113.592C504.639 113.592 506.291 112.666 507.111 110.814V96.9805H510.363V116H507.27L507.199 114.119Z" fill="white"/>
<path d="M527.062 116C526.875 115.625 526.723 114.957 526.605 113.996C525.094 115.566 523.289 116.352 521.191 116.352C519.316 116.352 517.775 115.824 516.568 114.77C515.373 113.703 514.775 112.355 514.775 110.727C514.775 108.746 515.525 107.211 517.025 106.121C518.537 105.02 520.658 104.469 523.389 104.469H526.553V102.975C526.553 101.838 526.213 100.936 525.533 100.268C524.854 99.5879 523.852 99.248 522.527 99.248C521.367 99.248 520.395 99.541 519.609 100.127C518.824 100.713 518.432 101.422 518.432 102.254H515.162C515.162 101.305 515.496 100.391 516.164 99.5117C516.844 98.6211 517.758 97.918 518.906 97.4023C520.066 96.8867 521.338 96.6289 522.721 96.6289C524.912 96.6289 526.629 97.1797 527.871 98.2812C529.113 99.3711 529.758 100.877 529.805 102.799V111.553C529.805 113.299 530.027 114.688 530.473 115.719V116H527.062ZM521.666 113.521C522.686 113.521 523.652 113.258 524.566 112.73C525.48 112.203 526.143 111.518 526.553 110.674V106.771H524.004C520.02 106.771 518.027 107.938 518.027 110.27C518.027 111.289 518.367 112.086 519.047 112.66C519.727 113.234 520.6 113.521 521.666 113.521ZM524.672 89H528.609L523.898 94.168H521.279L524.672 89Z" fill="white"/>
<path d="M537.979 96.9805L538.084 99.3711C539.537 97.543 541.436 96.6289 543.779 96.6289C547.799 96.6289 549.826 98.8965 549.861 103.432V116H546.609V103.414C546.598 102.043 546.281 101.029 545.66 100.373C545.051 99.7168 544.096 99.3887 542.795 99.3887C541.74 99.3887 540.814 99.6699 540.018 100.232C539.221 100.795 538.6 101.533 538.154 102.447V116H534.902V96.9805H537.979Z" fill="white"/>
<path d="M559.178 92.375V96.9805H562.729V99.4941H559.178V111.289C559.178 112.051 559.336 112.625 559.652 113.012C559.969 113.387 560.508 113.574 561.27 113.574C561.645 113.574 562.16 113.504 562.816 113.363V116C561.961 116.234 561.129 116.352 560.32 116.352C558.867 116.352 557.771 115.912 557.033 115.033C556.295 114.154 555.926 112.906 555.926 111.289V99.4941H552.463V96.9805H555.926V92.375H559.178Z" fill="white"/>
<path d="M565.33 106.314C565.33 104.451 565.693 102.775 566.42 101.287C567.158 99.7988 568.178 98.6504 569.479 97.8418C570.791 97.0332 572.285 96.6289 573.961 96.6289C576.551 96.6289 578.643 97.5254 580.236 99.3184C581.842 101.111 582.645 103.496 582.645 106.473V106.701C582.645 108.553 582.287 110.217 581.572 111.693C580.869 113.158 579.855 114.301 578.531 115.121C577.219 115.941 575.707 116.352 573.996 116.352C571.418 116.352 569.326 115.455 567.721 113.662C566.127 111.869 565.33 109.496 565.33 106.543V106.314ZM568.6 106.701C568.6 108.811 569.086 110.504 570.059 111.781C571.043 113.059 572.355 113.697 573.996 113.697C575.648 113.697 576.961 113.053 577.934 111.764C578.906 110.463 579.393 108.646 579.393 106.314C579.393 104.229 578.895 102.541 577.898 101.252C576.914 99.9512 575.602 99.3008 573.961 99.3008C572.355 99.3008 571.061 99.9395 570.076 101.217C569.092 102.494 568.6 104.322 568.6 106.701Z" fill="white"/>
<path d="M600.064 92.375V96.9805H603.615V99.4941H600.064V111.289C600.064 112.051 600.223 112.625 600.539 113.012C600.855 113.387 601.395 113.574 602.156 113.574C602.531 113.574 603.047 113.504 603.703 113.363V116C602.848 116.234 602.016 116.352 601.207 116.352C599.754 116.352 598.658 115.912 597.92 115.033C597.182 114.154 596.812 112.906 596.812 111.289V99.4941H593.35V96.9805H596.812V92.375H600.064Z" fill="white"/>
<path d="M610.963 116H607.711V96.9805H610.963V116ZM607.447 91.9355C607.447 91.4082 607.605 90.9629 607.922 90.5996C608.25 90.2363 608.73 90.0547 609.363 90.0547C609.996 90.0547 610.477 90.2363 610.805 90.5996C611.133 90.9629 611.297 91.4082 611.297 91.9355C611.297 92.4629 611.133 92.9023 610.805 93.2539C610.477 93.6055 609.996 93.7812 609.363 93.7812C608.73 93.7812 608.25 93.6055 607.922 93.2539C607.605 92.9023 607.447 92.4629 607.447 91.9355Z" fill="white"/>
<path d="M624.076 116.352C621.498 116.352 619.4 115.508 617.783 113.82C616.166 112.121 615.357 109.854 615.357 107.018V106.42C615.357 104.533 615.715 102.852 616.43 101.375C617.156 99.8867 618.164 98.7266 619.453 97.8945C620.754 97.0508 622.16 96.6289 623.672 96.6289C626.145 96.6289 628.066 97.4434 629.438 99.0723C630.809 100.701 631.494 103.033 631.494 106.068V107.422H618.609C618.656 109.297 619.201 110.814 620.244 111.975C621.299 113.123 622.635 113.697 624.252 113.697C625.4 113.697 626.373 113.463 627.17 112.994C627.967 112.525 628.664 111.904 629.262 111.131L631.248 112.678C629.654 115.127 627.264 116.352 624.076 116.352ZM623.672 99.3008C622.359 99.3008 621.258 99.7812 620.367 100.742C619.477 101.691 618.926 103.027 618.715 104.75H628.242V104.504C628.148 102.852 627.703 101.574 626.906 100.672C626.109 99.7578 625.031 99.3008 623.672 99.3008Z" fill="white"/>
<path d="M638.35 96.9805L638.455 99.3711C639.908 97.543 641.807 96.6289 644.15 96.6289C648.17 96.6289 650.197 98.8965 650.232 103.432V116H646.98V103.414C646.969 102.043 646.652 101.029 646.031 100.373C645.422 99.7168 644.467 99.3887 643.166 99.3887C642.111 99.3887 641.186 99.6699 640.389 100.232C639.592 100.795 638.971 101.533 638.525 102.447V116H635.273V96.9805H638.35Z" fill="white"/>
<path d="M663.029 116.352C660.451 116.352 658.354 115.508 656.736 113.82C655.119 112.121 654.311 109.854 654.311 107.018V106.42C654.311 104.533 654.668 102.852 655.383 101.375C656.109 99.8867 657.117 98.7266 658.406 97.8945C659.707 97.0508 661.113 96.6289 662.625 96.6289C665.098 96.6289 667.02 97.4434 668.391 99.0723C669.762 100.701 670.447 103.033 670.447 106.068V107.422H657.562C657.609 109.297 658.154 110.814 659.197 111.975C660.252 113.123 661.588 113.697 663.205 113.697C664.354 113.697 665.326 113.463 666.123 112.994C666.92 112.525 667.617 111.904 668.215 111.131L670.201 112.678C668.607 115.127 666.217 116.352 663.029 116.352ZM662.625 99.3008C661.312 99.3008 660.211 99.7812 659.32 100.742C658.43 101.691 657.879 103.027 657.668 104.75H667.195V104.504C667.102 102.852 666.656 101.574 665.859 100.672C665.062 99.7578 663.984 99.3008 662.625 99.3008Z" fill="white"/>
<path d="M687.041 105.98V116H683.666V90.4062H693.105C695.906 90.4062 698.098 91.1211 699.68 92.5508C701.273 93.9805 702.07 95.873 702.07 98.2285C702.07 100.713 701.291 102.629 699.732 103.977C698.186 105.312 695.965 105.98 693.07 105.98H687.041ZM687.041 103.221H693.105C694.91 103.221 696.293 102.799 697.254 101.955C698.215 101.1 698.695 99.8691 698.695 98.2637C698.695 96.7402 698.215 95.5215 697.254 94.6074C696.293 93.6934 694.975 93.2188 693.299 93.1836H687.041V103.221Z" fill="white"/>
<path d="M717.398 116C717.211 115.625 717.059 114.957 716.941 113.996C715.43 115.566 713.625 116.352 711.527 116.352C709.652 116.352 708.111 115.824 706.904 114.77C705.709 113.703 705.111 112.355 705.111 110.727C705.111 108.746 705.861 107.211 707.361 106.121C708.873 105.02 710.994 104.469 713.725 104.469H716.889V102.975C716.889 101.838 716.549 100.936 715.869 100.268C715.189 99.5879 714.188 99.248 712.863 99.248C711.703 99.248 710.73 99.541 709.945 100.127C709.16 100.713 708.768 101.422 708.768 102.254H705.498C705.498 101.305 705.832 100.391 706.5 99.5117C707.18 98.6211 708.094 97.918 709.242 97.4023C710.402 96.8867 711.674 96.6289 713.057 96.6289C715.248 96.6289 716.965 97.1797 718.207 98.2812C719.449 99.3711 720.094 100.877 720.141 102.799V111.553C720.141 113.299 720.363 114.688 720.809 115.719V116H717.398ZM712.002 113.521C713.021 113.521 713.988 113.258 714.902 112.73C715.816 112.203 716.479 111.518 716.889 110.674V106.771H714.34C710.355 106.771 708.363 107.938 708.363 110.27C708.363 111.289 708.703 112.086 709.383 112.66C710.062 113.234 710.936 113.521 712.002 113.521Z" fill="white"/>
<path d="M732.867 113.697C734.027 113.697 735.041 113.346 735.908 112.643C736.775 111.939 737.256 111.061 737.35 110.006H740.426C740.367 111.096 739.992 112.133 739.301 113.117C738.609 114.102 737.684 114.887 736.523 115.473C735.375 116.059 734.156 116.352 732.867 116.352C730.277 116.352 728.215 115.49 726.68 113.768C725.156 112.033 724.395 109.666 724.395 106.666V106.121C724.395 104.27 724.734 102.623 725.414 101.182C726.094 99.7402 727.066 98.6211 728.332 97.8242C729.609 97.0273 731.115 96.6289 732.85 96.6289C734.982 96.6289 736.752 97.2676 738.158 98.5449C739.576 99.8223 740.332 101.48 740.426 103.52H737.35C737.256 102.289 736.787 101.281 735.943 100.496C735.111 99.6992 734.08 99.3008 732.85 99.3008C731.197 99.3008 729.914 99.8984 729 101.094C728.098 102.277 727.646 103.994 727.646 106.244V106.859C727.646 109.051 728.098 110.738 729 111.922C729.902 113.105 731.191 113.697 732.867 113.697Z" fill="white"/>
<path d="M743.221 106.314C743.221 104.451 743.584 102.775 744.311 101.287C745.049 99.7988 746.068 98.6504 747.369 97.8418C748.682 97.0332 750.176 96.6289 751.852 96.6289C754.441 96.6289 756.533 97.5254 758.127 99.3184C759.732 101.111 760.535 103.496 760.535 106.473V106.701C760.535 108.553 760.178 110.217 759.463 111.693C758.76 113.158 757.746 114.301 756.422 115.121C755.109 115.941 753.598 116.352 751.887 116.352C749.309 116.352 747.217 115.455 745.611 113.662C744.018 111.869 743.221 109.496 743.221 106.543V106.314ZM746.49 106.701C746.49 108.811 746.977 110.504 747.949 111.781C748.934 113.059 750.246 113.697 751.887 113.697C753.539 113.697 754.852 113.053 755.824 111.764C756.797 110.463 757.283 108.646 757.283 106.314C757.283 104.229 756.785 102.541 755.789 101.252C754.805 99.9512 753.492 99.3008 751.852 99.3008C750.246 99.3008 748.951 99.9395 747.967 101.217C746.982 102.494 746.49 104.322 746.49 106.701Z" fill="white"/>
<path d="M768.428 108.793C768.451 107.398 768.609 106.297 768.902 105.488C769.195 104.68 769.793 103.783 770.695 102.799L772.998 100.426C773.982 99.3125 774.475 98.1172 774.475 96.8398C774.475 95.6094 774.152 94.6484 773.508 93.957C772.863 93.2539 771.926 92.9023 770.695 92.9023C769.5 92.9023 768.539 93.2188 767.812 93.8516C767.086 94.4844 766.723 95.334 766.723 96.4004H763.471C763.494 94.502 764.168 92.9727 765.492 91.8125C766.828 90.6406 768.562 90.0547 770.695 90.0547C772.91 90.0547 774.633 90.6523 775.863 91.8477C777.105 93.0312 777.727 94.6602 777.727 96.7344C777.727 98.7852 776.777 100.807 774.879 102.799L772.963 104.697C772.107 105.646 771.68 107.012 771.68 108.793H768.428ZM768.287 114.365C768.287 113.838 768.445 113.398 768.762 113.047C769.09 112.684 769.57 112.502 770.203 112.502C770.836 112.502 771.316 112.684 771.645 113.047C771.973 113.398 772.137 113.838 772.137 114.365C772.137 114.893 771.973 115.332 771.645 115.684C771.316 116.023 770.836 116.193 770.203 116.193C769.57 116.193 769.09 116.023 768.762 115.684C768.445 115.332 768.287 114.893 768.287 114.365Z" fill="white"/>
</g>
</g>
</g>
</svg>
