<svg viewBox="0 0 766 317" fill="none" xmlns="http://www.w3.org/2000/svg">
<g id="0120214">
<g id="Hombre:\;1\;2\;3\;\;\cdots\; n\;&#10;Mujeres:\;11\:12\:13\:\;\cdots\:10+n\;&#10;Total:\;12\;14\;16\;\;\cdots\;10+2n\;&#10;">
<g id="Group">
<g id="Group 214">
<g id="Group_2">
<path id="Vector" d="M9.63005 5.95262C8.64978 5.95262 8.13082 5.89495 8.07315 5.77963C8.04432 5.72197 8.02991 5.60664 8.02991 5.43365C8.02991 4.7417 8.18848 4.26598 8.50563 4.00649C8.56329 3.97766 8.80836 3.96325 9.24083 3.96325C10.4229 4.02091 12.3835 4.04974 15.1225 4.04974C16.1027 4.04974 17.0109 4.04974 17.847 4.04974C18.6831 4.04974 19.3318 4.03532 19.7931 4.00649C20.2545 3.97766 20.5428 3.97766 20.6581 4.00649C21.1194 4.00649 21.35 4.15065 21.35 4.43896C21.35 4.49663 21.3212 4.69845 21.2636 5.04443C21.1194 5.53456 20.9752 5.82288 20.8311 5.90937H20.7446C20.6869 5.90937 20.6148 5.90937 20.5284 5.90937C20.4419 5.90937 20.3409 5.90937 20.2256 5.90937C20.1103 5.90937 19.9806 5.92379 19.8364 5.95262C19.6922 5.98145 19.5625 5.98145 19.4472 5.95262C18.3227 5.98145 17.602 6.0247 17.2848 6.08236C16.9677 6.14002 16.7082 6.2986 16.5064 6.55808C16.4199 6.6734 15.9586 8.44654 15.1225 11.8775C14.9206 12.6271 14.7044 13.4632 14.4737 14.3858C14.2431 15.3084 14.0701 15.986 13.9548 16.4184L13.7818 17.0672C13.7818 17.1248 15.8721 17.1536 20.0526 17.1536H26.3235L26.3667 17.0239C26.3667 16.9374 26.8136 15.1643 27.7074 11.7045C28.5147 8.38888 28.9183 6.61574 28.9183 6.38509C28.9183 6.15444 28.0966 6.01028 26.4532 5.95262C25.7901 5.95262 25.3576 5.92379 25.1558 5.86612C24.954 5.80846 24.8531 5.67872 24.8531 5.4769C24.8531 5.41924 24.8819 5.24625 24.9396 4.95793C25.0549 4.4678 25.1414 4.1939 25.1991 4.13623C25.2567 4.07857 25.4874 4.03532 25.891 4.00649C26.0352 4.00649 26.6406 4.02091 27.7074 4.04974C28.7742 4.07857 30.1292 4.09299 31.7726 4.09299C33.5602 4.09299 34.9297 4.07857 35.8811 4.04974C36.8326 4.02091 37.3515 4.00649 37.438 4.00649C37.9282 4.00649 38.1732 4.15065 38.1732 4.43896C38.1732 5.21741 38.0002 5.70755 37.6543 5.90937H37.5678C37.5101 5.90937 37.438 5.90937 37.3515 5.90937C37.265 5.90937 37.1641 5.90937 37.0488 5.90937C36.9335 5.90937 36.8037 5.92379 36.6596 5.95262C36.5154 5.98145 36.3857 5.98145 36.2703 5.95262C35.1459 5.98145 34.4251 6.0247 34.108 6.08236C33.7908 6.14002 33.5313 6.2986 33.3295 6.55808C33.243 6.70224 32.2051 10.7819 30.2157 18.797C28.2264 26.8122 27.2173 30.8774 27.1884 30.9928C27.1884 31.1946 27.2461 31.2955 27.3614 31.2955C27.5921 31.382 28.3705 31.4541 29.6968 31.5117H31.0374C31.2104 31.7424 31.2969 31.8721 31.2969 31.901C31.2969 31.9298 31.2537 32.1893 31.1672 32.6794C31.0518 33.0542 30.9077 33.3281 30.7347 33.5011H30.086C29.0192 33.4434 27.0875 33.4146 24.2909 33.4146C23.3106 33.4146 22.4024 33.4146 21.5663 33.4146C20.7302 33.4146 20.067 33.4146 19.5769 33.4146C19.0868 33.4146 18.784 33.429 18.6687 33.4579C18.1786 33.4579 17.9335 33.3281 17.9335 33.0686C17.9335 32.9245 17.9768 32.7226 18.0633 32.4632C18.2074 31.9154 18.3516 31.6126 18.4957 31.555C18.6111 31.5261 18.8273 31.5117 19.1444 31.5117H19.4039C20.1824 31.5117 21.0473 31.4685 21.9988 31.382C22.1717 31.3532 22.2871 31.3387 22.3447 31.3387C22.4024 31.3387 22.4889 31.2667 22.6042 31.1225C22.7195 30.9783 22.806 30.8486 22.8637 30.7333C22.9214 30.618 23.0079 30.3585 23.1232 29.9548C23.2385 29.5512 23.3394 29.1475 23.4259 28.7439C23.5124 28.3403 23.671 27.7204 23.9016 26.8843C24.1035 26.077 24.262 25.4283 24.3774 24.9381C25.3288 21.1324 25.8045 19.2151 25.8045 19.1863C25.8045 19.1574 23.7142 19.143 19.5337 19.143H13.2628L11.8357 24.9814C10.8554 28.8448 10.3653 30.8486 10.3653 30.9928C10.3653 31.1946 10.4806 31.3243 10.7112 31.382C10.9419 31.4396 11.6627 31.4829 12.8736 31.5117H14.2143C14.3872 31.7424 14.4737 31.8721 14.4737 31.901C14.4737 31.9298 14.4305 32.1893 14.344 32.6794C14.2287 33.0542 14.0845 33.3281 13.9115 33.5011H13.2628C12.1961 33.4434 10.2643 33.4146 7.46769 33.4146C6.48742 33.4146 5.57923 33.4146 4.74312 33.4146C3.90701 33.4146 3.24388 33.4146 2.75375 33.4146C2.26361 33.4146 1.96088 33.429 1.84555 33.4579C1.35542 33.4579 1.11035 33.3281 1.11035 33.0686C1.11035 33.011 1.1536 32.8091 1.24009 32.4632C1.38425 31.9154 1.52841 31.6126 1.67257 31.555C1.78789 31.5261 2.00413 31.5117 2.32127 31.5117H2.58076C3.35921 31.5117 4.22415 31.4685 5.17559 31.382C5.57923 31.2955 5.85313 31.1225 5.99729 30.863C6.08378 30.7477 7.12172 26.7401 9.11109 18.8403C11.1005 10.9405 12.0951 6.77431 12.0951 6.34184C12.0951 6.14002 11.2734 6.01028 9.63005 5.95262Z" fill="white"/>
</g>
<g id="Group_3">
<path id="Vector_2" d="M46.8663 33.9767C44.704 33.9767 42.9597 33.2703 41.6334 31.8576C40.3072 30.4448 39.644 28.7438 39.644 26.7544C39.644 24.8804 40.0765 23.1072 40.9415 21.435C41.8064 19.7628 42.9885 18.3068 44.4877 17.067C46.6789 15.3083 48.9134 14.4289 51.1911 14.4289C52.1137 14.4289 52.6903 14.4434 52.9209 14.4722C53.2957 14.5587 53.6706 14.6596 54.0454 14.7749C54.4202 14.8902 54.9247 15.1209 55.559 15.4669C56.1933 15.8129 56.7123 16.2453 57.1159 16.7643C57.5196 17.2833 57.8944 17.9896 58.2403 18.8834C58.5863 19.7772 58.7593 20.7863 58.7593 21.9107C58.7593 24.9957 57.5196 27.7779 55.0401 30.2574C52.5605 32.7369 49.836 33.9767 46.8663 33.9767ZM43.4066 28.3113C43.4066 29.7529 43.7814 30.7908 44.531 31.4251C45.2806 32.0594 46.1311 32.3765 47.0826 32.3765C48.3511 32.3765 49.5477 31.9152 50.6721 30.9926C51.7965 30.07 52.6903 28.8591 53.3534 27.3599C53.6129 26.7544 53.9445 25.6876 54.3481 24.1596C54.7517 22.6315 54.9536 21.3052 54.9536 20.1808C54.9536 18.9122 54.6941 17.9464 54.1751 17.2833C53.4832 16.4183 52.5605 15.9858 51.4073 15.9858C49.5909 15.9858 47.9908 16.822 46.6068 18.4942C45.5401 19.7628 44.7472 21.4494 44.2282 23.5541C43.7093 25.6588 43.4354 27.2445 43.4066 28.3113Z" fill="white"/>
</g>
<g id="Group_4">
<path id="Vector_3" d="M60.0547 21.089C60.0835 20.916 60.1268 20.6854 60.1844 20.3971C60.2421 20.1087 60.4151 19.5609 60.7034 18.7537C60.9917 17.9464 61.28 17.2688 61.5683 16.721C61.8567 16.1732 62.318 15.6399 62.9523 15.1209C63.5865 14.6019 64.2208 14.3569 64.8551 14.3857C65.4894 14.4145 66.1093 14.5154 66.7148 14.6884C67.3202 14.8614 67.7527 15.1209 68.0122 15.4669C68.2717 15.8129 68.5023 16.13 68.7041 16.4183C68.906 16.7066 69.0213 16.9805 69.0501 17.24L69.1366 17.5427C69.1366 17.6004 69.151 17.6292 69.1798 17.6292L69.6556 17.1535C71.3855 15.3083 73.4181 14.3857 75.7534 14.3857C76.2436 14.3857 76.6905 14.4145 77.0941 14.4722C77.4977 14.5299 77.8725 14.6308 78.2185 14.7749C78.5645 14.9191 78.8384 15.0632 79.0402 15.2074C79.242 15.3515 79.4583 15.5245 79.6889 15.7264C79.9196 15.9282 80.0637 16.1156 80.1214 16.2886C80.1791 16.4616 80.2944 16.649 80.4674 16.8508C80.6404 17.0526 80.698 17.2256 80.6404 17.3698C80.5827 17.5139 80.6259 17.6437 80.7701 17.759C80.9143 17.8743 80.9431 17.9752 80.8566 18.0617L81.2026 17.6292C83.019 15.4669 85.1669 14.3857 87.6464 14.3857C89.2033 14.3857 90.4575 14.7749 91.4089 15.5534C92.3604 16.3318 92.8505 17.4707 92.8793 18.9699C92.8793 20.4403 92.3315 22.718 91.2359 25.803C90.1403 28.8879 89.5925 30.7331 89.5925 31.3386C89.6214 31.7422 89.6934 32.0161 89.8088 32.1603C89.9241 32.3045 90.1403 32.3765 90.4575 32.3765C91.2648 32.3765 92.0144 31.9441 92.7063 31.0791C93.3983 30.2142 93.9605 29.0321 94.393 27.5328C94.4795 27.2157 94.566 27.0283 94.6525 26.9706C94.739 26.913 94.9696 26.8841 95.3444 26.8841C95.921 26.8841 96.2094 26.9995 96.2094 27.2301C96.2094 27.2589 96.1517 27.4752 96.0364 27.8788C95.8057 28.7149 95.4886 29.5366 95.0849 30.3439C94.6813 31.1512 94.0182 31.9585 93.0956 32.7658C92.173 33.573 91.1783 33.9623 90.1115 33.9334C88.7564 33.9334 87.7762 33.5442 87.1707 32.7658C86.5652 31.9873 86.2625 31.18 86.2625 30.3439C86.2625 29.7961 86.7815 28.0662 87.8194 25.1543C88.8573 22.2423 89.3907 20.0511 89.4195 18.5807C89.4195 16.8796 88.7853 16.0291 87.5167 16.0291H87.3004C84.8209 16.0291 82.7306 17.4851 81.0296 20.3971L80.7269 20.916L79.2997 26.7112C78.3483 30.4881 77.8005 32.5207 77.6563 32.809C77.2815 33.5875 76.6616 33.9767 75.7967 33.9767C75.4219 33.9767 75.1191 33.8758 74.8885 33.674C74.6578 33.4721 74.4993 33.2991 74.4128 33.155C74.3263 33.0108 74.283 32.8667 74.283 32.7225C74.283 32.4054 74.7732 30.3439 75.7534 26.5382L77.3103 20.2241C77.3968 19.7916 77.4401 19.2438 77.4401 18.5807C77.4401 16.8796 76.8058 16.0291 75.5372 16.0291H75.321C72.8414 16.0291 70.7512 17.4851 69.0501 20.3971L68.7474 20.916L67.3202 26.7112C66.3688 30.4881 65.821 32.5207 65.6768 32.809C65.302 33.5875 64.6821 33.9767 63.8172 33.9767C63.4424 33.9767 63.1397 33.8902 62.909 33.7172C62.6784 33.5442 62.5198 33.3712 62.4333 33.1982C62.3468 33.0252 62.318 32.8811 62.3468 32.7658C62.3468 32.391 62.8946 30.0268 63.9902 25.6732C65.1146 21.2332 65.6768 18.9122 65.6768 18.7104C65.7633 18.2779 65.8066 17.8887 65.8066 17.5427C65.8066 16.5048 65.4462 15.9858 64.7254 15.9858C64.0911 15.9858 63.5577 16.3895 63.1252 17.1968C62.6928 18.004 62.3612 18.8834 62.1306 19.8348C61.8999 20.7863 61.7269 21.3052 61.6116 21.3917C61.5539 21.4494 61.3233 21.4782 60.9196 21.4782H60.3142C60.1412 21.3052 60.0547 21.1755 60.0547 21.089Z" fill="white"/>
</g>
<g id="Group_5">
<path id="Vector_4" d="M100.277 5.52001C100.277 5.2317 100.335 4.90014 100.45 4.52533C100.566 4.15052 100.739 3.96311 100.969 3.96311C100.998 3.96311 102.036 3.89104 104.083 3.74688C106.13 3.60272 107.182 3.51623 107.24 3.48739C107.586 3.48739 107.759 3.61714 107.759 3.87662C107.759 4.1361 107.269 6.19755 106.289 10.061C106.058 11.0412 105.813 12.0503 105.553 13.0883C105.294 14.1262 105.078 14.9047 104.905 15.4236L104.732 16.2453C104.732 16.3318 104.818 16.2886 104.991 16.1156C106.404 14.9623 107.86 14.3857 109.359 14.3857C111.147 14.3857 112.588 15.0488 113.684 16.3751C114.779 17.7013 115.342 19.3735 115.371 21.3917C115.371 24.592 114.232 27.4896 111.954 30.0844C109.676 32.6793 107.226 33.9767 104.602 33.9767C103.16 33.9767 101.849 33.4289 100.666 32.3333C99.4844 31.2377 98.8789 29.4646 98.8501 27.0139V26.6247C98.8501 26.0192 98.9654 25.1831 99.1961 24.1163C99.4267 23.0496 100.133 20.2097 101.315 15.5966C102.757 9.91681 103.478 6.90392 103.478 6.55795C103.478 6.21197 102.93 6.01015 101.834 5.95249C101.69 5.95249 101.575 5.95249 101.488 5.95249H101.272C100.984 5.95249 100.796 5.95249 100.71 5.95249C100.623 5.95249 100.522 5.90924 100.407 5.82274C100.292 5.73625 100.248 5.63534 100.277 5.52001ZM111.651 19.4456V19.1861C111.651 17.0526 110.772 15.9858 109.013 15.9858C108.523 15.9858 108.019 16.1012 107.5 16.3318C106.981 16.5625 106.505 16.8652 106.072 17.24C105.64 17.6148 105.265 17.9608 104.948 18.2779C104.631 18.5951 104.371 18.9122 104.17 19.2294L103.91 19.5754L103.002 23.2946C102.368 25.7741 102.05 27.5328 102.05 28.5708C102.05 29.9547 102.396 30.9926 103.088 31.6846C103.55 32.1459 104.126 32.3765 104.818 32.3765C105.77 32.3765 106.736 31.9152 107.716 30.9926C108.437 30.3295 109.013 29.5222 109.446 28.5708C109.878 27.6193 110.354 26.1057 110.873 24.0298C111.392 21.954 111.651 20.4259 111.651 19.4456Z" fill="white"/>
</g>
<g id="Group_6">
<path id="Vector_5" d="M116.582 21.089C116.61 21.0025 116.639 20.8872 116.668 20.743C116.697 20.5989 116.769 20.2817 116.884 19.7916C117 19.3015 117.144 18.8546 117.317 18.4509C117.49 18.0473 117.706 17.5716 117.965 17.0238C118.225 16.476 118.513 16.0435 118.83 15.7264C119.148 15.4092 119.522 15.0921 119.955 14.7749C120.387 14.4578 120.863 14.328 121.382 14.3857C122.218 14.3857 122.953 14.5587 123.588 14.9047C124.222 15.2506 124.669 15.5678 124.928 15.8561C125.188 16.1444 125.346 16.4327 125.404 16.721C125.462 16.894 125.505 16.9805 125.534 16.9805C125.563 16.9805 125.678 16.8796 125.88 16.6778C127.264 15.1786 128.864 14.4289 130.68 14.4289H130.81C132.194 14.4289 133.232 15.02 133.924 16.2021C134.154 16.7499 134.27 17.2833 134.27 17.8022C134.27 18.6672 134.082 19.3591 133.707 19.8781C133.333 20.3971 132.958 20.7286 132.583 20.8728C132.208 21.0169 131.848 21.0746 131.502 21.0458C130.925 21.0458 130.464 20.8872 130.118 20.57C129.772 20.2529 129.599 19.8348 129.599 19.3159C129.599 17.932 130.406 17.0094 132.021 16.5481C131.387 16.1732 130.868 15.9858 130.464 15.9858C128.849 15.9858 127.365 17.0526 126.009 19.1861C125.721 19.6474 125.505 20.1232 125.361 20.6133C125.217 21.1034 124.726 23.0207 123.89 26.3652C122.91 30.4016 122.348 32.5495 122.204 32.809C121.829 33.5875 121.209 33.9767 120.344 33.9767C119.969 33.9767 119.667 33.8902 119.436 33.7172C119.205 33.5442 119.047 33.3712 118.96 33.1982C118.874 33.0252 118.845 32.8811 118.874 32.7658C118.874 32.391 119.45 29.9114 120.604 25.3272C121.757 20.743 122.333 18.1914 122.333 17.6725C122.333 16.5481 121.959 15.9858 121.209 15.9858C120.604 15.9858 120.085 16.3895 119.652 17.1968C119.22 18.004 118.874 18.8834 118.614 19.8348C118.355 20.7863 118.196 21.3052 118.138 21.3917C118.081 21.4494 117.85 21.4782 117.446 21.4782H116.841C116.668 21.3052 116.582 21.1755 116.582 21.089Z" fill="white"/>
</g>
<g id="Group_7">
<path id="Vector_6" d="M136.865 26.2354C136.865 24.592 137.139 23.0928 137.686 21.7377C138.234 20.3826 138.941 19.2582 139.806 18.3644C140.671 17.4707 141.636 16.721 142.703 16.1156C143.77 15.5101 144.779 15.0632 145.73 14.7749C146.682 14.4866 147.59 14.3569 148.455 14.3857H148.585C149.882 14.3857 151.007 14.7028 151.958 15.3371C152.909 15.9714 153.385 16.9084 153.385 18.1482C153.385 20.743 151.785 22.4441 148.585 23.2514C147.172 23.6262 145.24 23.828 142.79 23.8568C141.723 23.8568 141.175 23.8857 141.146 23.9433C141.146 24.001 141.06 24.5055 140.887 25.457C140.714 26.4084 140.613 27.2445 140.584 27.9653C140.584 29.3204 140.887 30.3872 141.492 31.1656C142.098 31.9441 143.006 32.3477 144.217 32.3765C145.428 32.4054 146.768 32.1315 148.239 31.5548C149.709 30.9782 151.035 30.0268 152.218 28.7005C152.477 28.4122 152.65 28.2681 152.736 28.2681C152.852 28.2681 153.039 28.3978 153.299 28.6573C153.558 28.9168 153.702 29.1186 153.731 29.2627C153.76 29.4069 153.63 29.6375 153.342 29.9547C153.054 30.2718 152.621 30.6611 152.045 31.1224C151.468 31.5837 150.805 32.0306 150.055 32.463C149.306 32.8955 148.397 33.2559 147.331 33.5442C146.264 33.8325 145.168 33.9767 144.044 33.9767C141.766 33.9767 140.007 33.2127 138.768 31.6846C137.528 30.1565 136.894 28.3401 136.865 26.2354ZM151.309 18.2347C151.136 16.7355 150.156 15.9858 148.369 15.9858C147.417 15.9858 146.538 16.1877 145.73 16.5913C144.923 16.9949 144.274 17.4851 143.784 18.0617C143.294 18.6383 142.876 19.2294 142.53 19.8348C142.184 20.4403 141.954 20.9593 141.838 21.3917C141.723 21.8242 141.651 22.0981 141.622 22.2134C141.622 22.2423 141.91 22.2567 142.487 22.2567C145.745 22.2567 148.023 21.9107 149.32 21.2188C150.617 20.5268 151.28 19.5321 151.309 18.2347Z" fill="white"/>
</g>
<g id="Group_8">
<path id="Vector_7" d="M170.717 17.4996C170.717 16.8077 170.962 16.2022 171.452 15.6832C171.942 15.1643 172.562 14.9048 173.312 14.9048C174.004 14.9048 174.609 15.1354 175.128 15.5967C175.647 16.0581 175.921 16.6779 175.95 17.4564C175.95 18.1772 175.705 18.797 175.215 19.316C174.724 19.835 174.104 20.0945 173.355 20.0945C172.605 20.0945 171.985 19.8494 171.495 19.3593C171.005 18.8691 170.746 18.2492 170.717 17.4996ZM170.717 30.9063C170.717 30.2143 170.962 29.6088 171.452 29.0899C171.942 28.5709 172.562 28.3114 173.312 28.3114C174.004 28.3114 174.609 28.5421 175.128 29.0034C175.647 29.4647 175.921 30.0846 175.95 30.863C175.95 31.5838 175.705 32.2037 175.215 32.7226C174.724 33.2416 174.104 33.5011 173.355 33.5011C172.605 33.5011 171.985 33.256 171.495 32.7659C171.005 32.2758 170.746 31.6559 170.717 30.9063Z" fill="white"/>
</g>
<g id="Group_9">
<path id="Vector_8" d="M236.505 8.38836L235.943 8.6046C235.539 8.74875 234.962 8.89291 234.213 9.03707C233.463 9.18122 232.627 9.28214 231.705 9.3398H230.883V7.35043H231.705C233.06 7.29276 234.314 7.07653 235.467 6.70172C236.62 6.32691 237.428 5.98093 237.889 5.66378C238.35 5.34664 238.754 5.02949 239.1 4.71235C239.157 4.62585 239.33 4.5826 239.619 4.5826C239.878 4.5826 240.123 4.6691 240.354 4.84209V17.773L240.397 30.7472C240.599 30.949 240.772 31.0787 240.916 31.1364C241.06 31.1941 241.406 31.2517 241.954 31.3094C242.502 31.3671 243.396 31.3959 244.635 31.3959H245.76V33.3853H245.284C244.679 33.2988 242.387 33.2555 238.408 33.2555C234.487 33.2555 232.223 33.2988 231.618 33.3853H231.099V31.3959H232.223C232.858 31.3959 233.406 31.3959 233.867 31.3959C234.328 31.3959 234.689 31.3815 234.948 31.3526C235.208 31.3238 235.438 31.2806 235.64 31.2229C235.842 31.1652 235.957 31.1364 235.986 31.1364C236.015 31.1364 236.101 31.0643 236.245 30.9202C236.39 30.776 236.476 30.7183 236.505 30.7472V8.38836Z" fill="white"/>
</g>
<g id="Group_10">
<path id="Vector_9" d="M295.595 14.8322C294.817 14.8322 294.197 14.5727 293.735 14.0537C293.274 13.5348 293.043 12.9005 293.043 12.1509C293.043 10.1038 293.807 8.3307 295.336 6.83146C296.864 5.33222 298.767 4.5826 301.044 4.5826C303.668 4.5826 305.859 5.38988 307.618 7.00445C309.376 8.61901 310.27 10.7093 310.299 13.2753C310.299 14.515 310.011 15.6971 309.434 16.8216C308.858 17.946 308.166 18.9263 307.358 19.7624C306.551 20.5985 305.398 21.6653 303.899 22.9627C302.861 23.8564 301.419 25.1827 299.574 26.9414L297.022 29.3633L300.309 29.4065C304.836 29.4065 307.243 29.3344 307.531 29.1903C307.733 29.1326 308.079 27.8496 308.569 25.3413V25.2115H310.299V25.3413C310.27 25.4278 310.083 26.7396 309.737 29.2768C309.391 31.8139 309.175 33.1402 309.088 33.2555V33.3853H293.043V32.5636V32.0446C293.043 31.8428 293.13 31.6265 293.303 31.3959C293.476 31.1652 293.908 30.6607 294.6 29.8822C295.436 28.9596 296.157 28.1523 296.763 27.4604C297.022 27.1721 297.512 26.6387 298.233 25.8602C298.954 25.0818 299.444 24.5484 299.704 24.2601C299.963 23.9718 300.381 23.4961 300.958 22.8329C301.534 22.1698 301.938 21.6797 302.169 21.3625C302.399 21.0454 302.731 20.6129 303.163 20.0651C303.596 19.5173 303.899 19.056 304.071 18.6812C304.244 18.3064 304.461 17.8883 304.72 17.427C304.98 16.9657 305.167 16.5044 305.282 16.0431C305.398 15.5818 305.499 15.1493 305.585 14.7457C305.672 14.3421 305.715 13.8663 305.715 13.3185C305.715 11.5022 305.225 9.93084 304.244 8.6046C303.264 7.27835 301.866 6.61522 300.05 6.61522C299.098 6.61522 298.262 6.86029 297.541 7.35043C296.82 7.84056 296.316 8.31628 296.028 8.77758C295.739 9.23889 295.595 9.51279 295.595 9.59928C295.595 9.62811 295.667 9.64253 295.811 9.64253C296.33 9.64253 296.864 9.84435 297.411 10.248C297.959 10.6516 298.233 11.3148 298.233 12.2374C298.233 12.9581 298.002 13.5636 297.541 14.0537C297.08 14.5439 296.431 14.8034 295.595 14.8322Z" fill="white"/>
</g>
<g id="Group_11">
<path id="Vector_10" d="M361.1 8.87849C360.322 8.87849 359.716 8.63342 359.284 8.14329C358.851 7.65315 358.621 7.01886 358.592 6.24041C358.592 4.65468 359.284 3.24194 360.668 2.00218C362.052 0.762428 363.724 0.142551 365.685 0.142551C366.694 0.142551 367.328 0.156967 367.587 0.185799C369.721 0.531776 371.35 1.29581 372.474 2.4779C373.599 3.65999 374.175 4.94299 374.204 6.3269C374.204 7.82614 373.714 9.28213 372.734 10.6949C371.754 12.1076 370.398 13.1311 368.669 13.7654L368.539 13.8519C368.539 13.8808 368.669 13.924 368.928 13.9817C369.188 14.0393 369.606 14.1691 370.182 14.3709C370.759 14.5727 371.307 14.8754 371.826 15.2791C374.19 16.8071 375.372 18.8254 375.372 21.3337C375.372 23.6114 374.478 25.6007 372.691 27.3018C370.903 29.0029 368.64 29.8534 365.901 29.8534C363.594 29.8534 361.605 29.2335 359.933 27.9938C358.26 26.754 357.424 25.1827 357.424 23.2798C357.424 22.4725 357.684 21.8238 358.203 21.3337C358.722 20.8436 359.37 20.5841 360.149 20.5552C360.956 20.5552 361.619 20.8147 362.138 21.3337C362.657 21.8527 362.917 22.5014 362.917 23.2798C362.917 23.597 362.873 23.8853 362.787 24.1448C362.7 24.4042 362.6 24.6349 362.484 24.8367C362.369 25.0385 362.21 25.2115 362.009 25.3557C361.807 25.4998 361.634 25.6152 361.49 25.7017C361.345 25.7882 361.201 25.8458 361.057 25.8746C360.913 25.9035 360.798 25.9467 360.711 26.0044L360.538 26.0476C362.009 27.3451 363.796 27.9938 365.901 27.9938C367.487 27.9938 368.683 27.2297 369.49 25.7017C369.98 24.7502 370.225 23.2942 370.225 21.3337V20.4687C370.225 17.7298 369.303 15.899 367.458 14.9763C367.025 14.8034 366.146 14.7024 364.82 14.6736L363.003 14.6304L362.873 14.5439C362.816 14.4574 362.787 14.2267 362.787 13.8519C362.787 13.333 362.902 13.0735 363.133 13.0735C363.94 13.0735 364.776 13.0014 365.641 12.8572C366.622 12.7131 367.515 12.1076 368.323 11.0409C369.13 9.97409 369.534 8.35952 369.534 6.19716V5.85118C369.534 4.20779 369.029 3.06895 368.02 2.43465C367.386 2.03101 366.708 1.82919 365.987 1.82919C365.065 1.82919 364.214 1.98777 363.436 2.30491C362.657 2.62206 362.109 2.95362 361.792 3.2996C361.475 3.64558 361.317 3.81857 361.317 3.81857H361.446C361.533 3.8474 361.648 3.87623 361.792 3.90506C361.936 3.93389 362.081 4.00597 362.225 4.1213C362.369 4.23662 362.542 4.33753 362.744 4.42403C362.946 4.51052 363.09 4.66909 363.176 4.89975C363.263 5.1304 363.378 5.34663 363.522 5.54845C363.666 5.75027 363.71 6.03859 363.652 6.4134C363.652 7.04769 363.45 7.60991 363.046 8.10004C362.643 8.59018 361.994 8.84966 361.1 8.87849Z" fill="white"/>
</g>
<g id="Group_12">
<path id="Vector_11" d="M535.026 18.2776C535.026 17.5856 535.271 16.9802 535.762 16.4612C536.252 15.9423 536.872 15.6828 537.621 15.6828C538.313 15.6828 538.919 15.9134 539.438 16.3747C539.957 16.836 540.23 17.4559 540.259 18.2344C540.259 18.9551 540.014 19.575 539.524 20.094C539.034 20.613 538.414 20.8724 537.664 20.8724C536.915 20.8724 536.295 20.6274 535.805 20.1372C535.315 19.6471 535.055 19.0272 535.026 18.2776ZM554.358 18.2776C554.358 17.5856 554.603 16.9802 555.093 16.4612C555.583 15.9423 556.203 15.6828 556.953 15.6828C557.645 15.6828 558.25 15.9134 558.769 16.3747C559.288 16.836 559.562 17.4559 559.591 18.2344C559.591 18.9551 559.346 19.575 558.856 20.094C558.365 20.613 557.746 20.8724 556.996 20.8724C556.246 20.8724 555.626 20.6274 555.136 20.1372C554.646 19.6471 554.387 19.0272 554.358 18.2776ZM573.689 18.2776C573.689 17.5856 573.934 16.9802 574.425 16.4612C574.915 15.9423 575.535 15.6828 576.284 15.6828C576.976 15.6828 577.582 15.9134 578.101 16.3747C578.62 16.836 578.893 17.4559 578.922 18.2344C578.922 18.9551 578.677 19.575 578.187 20.094C577.697 20.613 577.077 20.8724 576.327 20.8724C575.578 20.8724 574.958 20.6274 574.468 20.1372C573.978 19.6471 573.718 19.0272 573.689 18.2776Z" fill="white"/>
</g>
<g id="Group_13">
<path id="Vector_12" d="M698.198 12.3982C698.227 12.2252 698.27 11.9946 698.328 11.7063C698.386 11.4179 698.559 10.8701 698.847 10.0629C699.135 9.25558 699.424 8.57804 699.712 8.03025C700 7.48245 700.476 6.94907 701.139 6.4301C701.802 5.91113 702.465 5.66607 703.128 5.6949C704.166 5.6949 705.031 5.95438 705.723 6.47335C706.415 6.99231 706.848 7.48245 707.021 7.94375C707.194 8.40506 707.28 8.70779 707.28 8.85194C707.28 8.90961 707.295 8.93844 707.323 8.93844L707.799 8.46272C709.558 6.6175 711.562 5.6949 713.81 5.6949C715.367 5.6949 716.622 6.08412 717.573 6.86257C718.524 7.64102 719.015 8.77987 719.043 10.2791C719.072 11.7783 718.524 14.0416 717.4 17.0689C716.276 20.0962 715.728 21.927 715.757 22.5613C715.757 23.3109 716.002 23.6857 716.492 23.6857C716.665 23.6857 716.795 23.6713 716.881 23.6425C717.717 23.4983 718.467 22.9505 719.13 21.9991C719.793 21.0477 720.298 19.8944 720.644 18.5393C720.701 18.3087 720.99 18.1933 721.508 18.1933C722.085 18.1933 722.373 18.3087 722.373 18.5393C722.373 18.5682 722.316 18.7844 722.2 19.188C721.97 20.0241 721.653 20.8458 721.249 21.6531C720.845 22.4604 720.182 23.2677 719.26 24.075C718.337 24.8822 717.342 25.2715 716.276 25.2426C714.92 25.2426 713.94 24.8534 713.335 24.075C712.729 23.2965 712.427 22.4892 712.427 21.6531C712.427 21.1053 712.946 19.3754 713.983 16.4635C715.021 13.5515 715.555 11.3603 715.584 9.88988C715.584 8.18882 714.949 7.33829 713.681 7.33829H713.465C710.985 7.33829 708.895 8.79428 707.194 11.7063L706.891 12.2252L705.464 18.0204C704.512 21.7973 703.965 23.8299 703.82 24.1182C703.446 24.8967 702.826 25.2859 701.961 25.2859C701.586 25.2859 701.283 25.1994 701.053 25.0264C700.822 24.8534 700.663 24.6804 700.577 24.5074C700.49 24.3344 700.462 24.1903 700.49 24.075C700.49 23.7002 701.038 21.3504 702.134 17.0257C703.229 12.7009 703.806 10.3512 703.864 9.97637C703.892 9.83221 703.907 9.50065 703.907 8.98169C703.907 7.85726 703.561 7.29504 702.869 7.29504C701.773 7.29504 700.865 8.73662 700.144 11.6198C699.971 12.1964 699.885 12.4991 699.885 12.528C699.827 12.7009 699.553 12.7874 699.063 12.7874H698.458C698.285 12.6145 698.198 12.4847 698.198 12.3982Z" fill="white"/>
</g>
</g>
<g id="Group 215">
<g id="Group_14">
<path id="Vector_13" d="M10.9848 63.5718C10.9848 63.3988 10.1631 63.2835 8.5197 63.2258C7.82775 63.2258 7.38086 63.2114 7.17904 63.1826C6.97722 63.1537 6.87631 63.0096 6.87631 62.7501C6.87631 62.7213 6.90514 62.5627 6.9628 62.2744C6.99163 62.1879 7.02047 62.087 7.0493 61.9716C7.07813 61.8563 7.09254 61.7842 7.09254 61.7554C7.09254 61.7266 7.12138 61.6545 7.17904 61.5392C7.2367 61.4238 7.26553 61.3806 7.26553 61.4094C7.26553 61.4383 7.3232 61.4094 7.43852 61.3229C7.55385 61.2364 7.62593 61.2076 7.65476 61.2364C7.68359 61.2653 7.79892 61.2653 8.00074 61.2364C8.20256 61.2076 8.37554 61.1932 8.5197 61.1932C8.69269 61.1932 9.12516 61.1932 9.81712 61.1932C10.5091 61.1932 11.1578 61.2076 11.7632 61.2364C14.0409 61.2364 15.3528 61.2364 15.6987 61.2364C16.0447 61.2364 16.2754 61.3085 16.3907 61.4527C16.4195 61.568 16.9529 65.6332 17.9908 73.6484L19.5477 85.7144L20.5424 84.1142C21.2344 83.0763 22.157 81.6347 23.3103 79.7895C24.4635 77.9443 25.7321 75.9261 27.116 73.7349C32.1615 65.6909 34.7131 61.6401 34.7708 61.5824C34.7996 61.5536 34.8428 61.5103 34.9005 61.4527C34.9582 61.395 35.0158 61.3518 35.0735 61.3229L35.333 61.2364H39.4847C39.9748 61.2364 40.5515 61.2364 41.2146 61.2364C41.8777 61.2364 42.2958 61.222 42.4688 61.1932C43.449 61.1932 43.9392 61.3518 43.9392 61.6689C43.9392 61.8131 43.8959 62.0581 43.8094 62.4041C43.7229 62.7501 43.6797 62.9375 43.6797 62.9663C43.5644 63.1393 43.031 63.2258 42.0795 63.2258C40.9263 63.2546 40.1911 63.2979 39.8739 63.3556C39.5568 63.4132 39.2973 63.5718 39.0955 63.8313C39.009 63.9754 37.9711 68.0551 35.9817 76.0702C33.9923 84.0854 32.9832 88.1362 32.9544 88.2227C32.9544 88.338 32.9688 88.4101 32.9976 88.4389C33.0265 88.4678 33.1274 88.5254 33.3004 88.6119C33.4733 88.6984 33.7184 88.7273 34.0356 88.6984C34.3527 88.6696 34.8284 88.6984 35.4627 88.7849H36.8034C36.9764 89.0444 37.0629 89.203 37.0629 89.2606C37.0629 89.7219 36.962 90.1544 36.7601 90.5581C36.616 90.7022 36.3853 90.7743 36.0682 90.7743C35.924 90.7743 35.333 90.7599 34.295 90.731C33.2571 90.7022 31.9309 90.6878 30.3163 90.6878C28.5576 90.6878 27.2313 90.6878 26.3376 90.6878C25.4438 90.6878 24.9392 90.7022 24.8239 90.731C24.3338 90.731 24.0887 90.5869 24.0887 90.2986C24.0887 90.2409 24.1175 90.0391 24.1752 89.6931C24.2905 89.2318 24.4058 88.9723 24.5212 88.9147C24.6365 88.857 24.9681 88.8138 25.5159 88.7849C26.2943 88.7849 27.1593 88.7417 28.1107 88.6552C28.5143 88.5687 28.7882 88.3957 28.9324 88.1362C28.9901 88.0209 29.5379 85.9162 30.5758 81.8221C31.6137 77.728 32.6372 73.6484 33.6463 69.5832C34.6554 65.5179 35.16 63.4853 35.16 63.4853L26.77 76.8487C21.1191 85.8441 18.2215 90.4139 18.0773 90.5581C18.0197 90.5869 17.962 90.6157 17.9043 90.6446C17.7602 90.731 17.5295 90.7743 17.2124 90.7743C16.7799 90.7743 16.5204 90.6734 16.4339 90.4716C16.3763 90.3562 15.7852 85.8874 14.6608 77.0649L12.9742 63.788L10.0334 75.4648C8.10165 83.1339 7.13579 87.0983 7.13579 87.3578C7.30878 88.3092 8.34671 88.7849 10.2496 88.7849H10.6821C10.8551 88.9291 10.956 89.0588 10.9848 89.1741C11.0136 89.2895 10.9704 89.549 10.8551 89.9526C10.7397 90.4139 10.6244 90.6734 10.5091 90.731C10.3937 90.7599 10.2352 90.7743 10.0334 90.7743C9.97569 90.7743 9.8027 90.7743 9.51439 90.7743C9.22607 90.7743 8.73594 90.7599 8.04398 90.731C7.35203 90.7022 6.42942 90.6878 5.27616 90.6878C4.41122 90.6878 3.51744 90.7022 2.59483 90.731C1.67223 90.7599 1.13884 90.7743 0.994686 90.7743C0.562214 90.7743 0.288315 90.7455 0.172989 90.6878C0.057663 90.6301 0 90.5004 0 90.2986C0 90.2409 0.0432472 90.0391 0.129742 89.6931C0.216236 89.3471 0.288315 89.1309 0.345978 89.0444C0.403641 88.8714 0.720787 88.7849 1.29742 88.7849C3.31562 88.7849 4.59862 88.2083 5.14642 87.055C5.26174 86.882 6.25643 83.0186 8.13048 75.4648C10.0045 67.9109 10.956 63.9466 10.9848 63.5718Z" fill="white"/>
</g>
<g id="Group_15">
<path id="Vector_14" d="M44.8447 78.3622C44.8447 78.1316 44.9745 77.6847 45.234 77.0215C45.4934 76.3584 45.8538 75.6088 46.3151 74.7727C46.7764 73.9366 47.4107 73.2158 48.218 72.6103C49.0253 72.0049 49.8758 71.6877 50.7696 71.6589C52.0958 71.6589 53.0905 72.0193 53.7537 72.7401C54.4168 73.4609 54.7483 74.3114 54.7483 75.2917C54.7483 75.8106 54.2582 77.4252 53.2779 80.1353C52.2977 82.8455 51.8075 84.8781 51.8075 86.2332C51.8075 87.473 52.0093 88.3379 52.413 88.828C52.8166 89.3182 53.4221 89.5777 54.2294 89.6065C55.0367 89.6353 55.8007 89.3902 56.5215 88.8713C57.2423 88.3523 57.7756 87.8622 58.1216 87.4009L58.5973 86.6657C58.655 86.5503 59.2028 84.3592 60.2407 80.0921C61.1057 76.6323 61.6246 74.6141 61.7976 74.0375C61.9706 73.4609 62.1724 73.0428 62.4031 72.7833C62.8932 72.3508 63.4122 72.1346 63.96 72.1346C64.4501 72.1346 64.8105 72.2788 65.0412 72.5671C65.2718 72.8554 65.3872 73.1293 65.3872 73.3888L62.1004 87.1414C62.0715 87.2855 62.0571 87.5162 62.0571 87.8333C62.0571 88.5541 62.158 89.0299 62.3598 89.2605C62.5617 89.4912 62.8644 89.6209 63.268 89.6497C63.9023 89.5632 64.4069 89.1163 64.7817 88.3091C65.1565 87.5018 65.589 86.2332 66.0791 84.5033C66.1368 84.2727 66.4251 84.1573 66.9441 84.1573C67.4919 84.1573 67.7658 84.2871 67.7658 84.5466C67.7369 84.6907 67.7081 84.8925 67.6793 85.152C67.6504 85.4115 67.5207 85.8728 67.29 86.5359C67.0594 87.1991 66.8143 87.8189 66.5548 88.3956C66.2953 88.9722 65.935 89.52 65.4736 90.039C65.0123 90.5579 64.4934 90.9183 63.9167 91.1201C63.6861 91.1778 63.3401 91.2066 62.8788 91.2066C60.9759 91.2066 59.6641 90.3993 58.9433 88.7848C58.8857 88.8136 58.7271 88.9578 58.4676 89.2173C58.2081 89.4767 57.9486 89.693 57.6892 89.866C57.4297 90.039 57.1125 90.2552 56.7377 90.5147C56.3629 90.7742 55.9448 90.9471 55.4835 91.0336C55.0222 91.1201 54.5321 91.1922 54.0131 91.2499C52.7446 91.2499 51.6201 90.9904 50.6399 90.4714C49.1406 89.5777 48.391 88.0496 48.391 85.8872C48.391 84.2438 48.8955 82.0959 49.9047 79.4434C50.9138 76.7909 51.4183 75.1042 51.4183 74.3835C51.4183 74.3546 51.4183 74.3258 51.4183 74.297C51.4183 74.0375 51.4183 73.8645 51.4183 73.778C51.4183 73.6915 51.3606 73.5906 51.2453 73.4753C51.13 73.3599 50.9714 73.3023 50.7696 73.3023H50.5966C49.9335 73.3023 49.328 73.5762 48.7802 74.124C48.2324 74.6718 47.8 75.2628 47.4828 75.8971C47.1657 76.5314 46.9206 77.1369 46.7476 77.7135C46.5746 78.2901 46.4593 78.6073 46.4016 78.6649C46.344 78.7226 46.1133 78.7514 45.7097 78.7514H45.1042C44.9312 78.5784 44.8447 78.4487 44.8447 78.3622Z" fill="white"/>
</g>
<g id="Group_16">
<path id="Vector_15" d="M81.5206 64.9989C81.5206 64.1051 81.8233 63.4132 82.4288 62.923C83.0343 62.4329 83.6541 62.1878 84.2884 62.1878C84.7786 62.1878 85.1822 62.332 85.4994 62.6203C85.8165 62.9086 86.0183 63.3123 86.1048 63.8312C86.1048 64.6385 85.8309 65.316 85.2831 65.8638C84.7353 66.4116 84.101 66.6855 83.3802 66.6855C82.8613 66.6855 82.4288 66.5414 82.0828 66.2531C81.7369 65.9648 81.5494 65.5467 81.5206 64.9989ZM81.1314 74.5133C81.1314 73.6772 80.7566 73.2591 80.007 73.2591C79.3727 73.2591 78.7672 73.4321 78.1906 73.7781C77.614 74.1241 77.1094 74.571 76.6769 75.1188C76.2445 75.6665 75.8985 76.1999 75.639 76.7189C75.3795 77.2379 75.1344 77.6992 74.9038 78.1028L74.6011 78.7083C74.5434 78.7371 74.3127 78.7515 73.9091 78.7515H73.3036C73.1307 78.5785 73.0442 78.4632 73.0442 78.4055C73.0442 78.3479 73.1018 78.1605 73.2172 77.8433C73.8226 76.4306 74.6731 75.1043 75.7687 73.8646C76.8643 72.6248 78.1329 71.904 79.5745 71.7022C79.6033 71.7022 79.7187 71.7022 79.9205 71.7022C80.1223 71.7022 80.2953 71.6878 80.4394 71.659C81.1314 71.6878 81.7657 71.832 82.3423 72.0914C83.0631 72.4951 83.6109 72.942 83.9857 73.4321C84.3605 73.9222 84.5479 74.6863 84.5479 75.7242V76.4162L82.4288 85.0224C80.9584 90.7887 80.18 93.7871 80.0935 94.0178C79.5745 95.4594 78.5654 96.7424 77.0662 97.8668C75.5669 98.9912 73.8514 99.5678 71.9197 99.5967C70.4782 99.5967 69.4979 99.2939 68.9789 98.6885C68.46 98.083 68.1861 97.4199 68.1572 96.6991C68.1572 95.9207 68.4311 95.2575 68.9789 94.7097C69.5267 94.1619 70.1898 93.8736 70.9683 93.8448C71.4584 93.8448 71.8765 93.989 72.2225 94.2773C72.5684 94.5656 72.7558 95.0125 72.7847 95.6179C72.7847 96.6559 72.3234 97.4487 71.4008 97.9965C71.5738 98.0254 71.7756 98.0398 72.0062 98.0398C72.9865 98.0398 73.8803 97.6361 74.6876 96.8289C75.4948 96.0216 76.1147 95.0701 76.5472 93.9745L77.0229 92.1582C77.3401 90.9184 77.7149 89.4192 78.1473 87.6604C78.5798 85.9017 79.0411 84.0998 79.5312 82.2545C80.0214 80.4093 80.4106 78.8092 80.6989 77.4541C80.9872 76.099 81.1458 75.2773 81.1746 74.989C81.1746 74.7872 81.1602 74.6286 81.1314 74.5133Z" fill="white"/>
</g>
<g id="Group_17">
<path id="Vector_16" d="M88.1797 83.5086C88.1797 81.8652 88.4536 80.366 89.0014 79.0109C89.5492 77.6558 90.2556 76.5314 91.1205 75.6376C91.9854 74.7439 92.9513 73.9942 94.0181 73.3888C95.0848 72.7833 96.0939 72.3364 97.0454 72.0481C97.9968 71.7598 98.905 71.6301 99.7699 71.6589H99.8997C101.197 71.6589 102.322 71.976 103.273 72.6103C104.224 73.2446 104.7 74.1816 104.7 75.4214C104.7 78.0162 103.1 79.7173 99.8997 80.5246C98.4869 80.8994 96.5552 81.1012 94.1046 81.13C93.0378 81.13 92.49 81.1589 92.4612 81.2165C92.4612 81.2742 92.3747 81.7787 92.2017 82.7302C92.0287 83.6816 91.9278 84.5177 91.8989 85.2385C91.8989 86.5936 92.2017 87.6604 92.8071 88.4388C93.4126 89.2173 94.3208 89.6209 95.5317 89.6497C96.7426 89.6786 98.0833 89.4047 99.5537 88.828C101.024 88.2514 102.35 87.3 103.532 85.9737C103.792 85.6854 103.965 85.5412 104.051 85.5412C104.167 85.5412 104.354 85.671 104.614 85.9305C104.873 86.19 105.017 86.3918 105.046 86.5359C105.075 86.6801 104.945 86.9107 104.657 87.2279C104.369 87.545 103.936 87.9343 103.359 88.3956C102.783 88.8569 102.12 89.3038 101.37 89.7362C100.62 90.1687 99.7123 90.5291 98.6455 90.8174C97.5788 91.1057 96.4832 91.2499 95.3587 91.2499C93.081 91.2499 91.3223 90.4858 90.0826 88.9578C88.8428 87.4297 88.2085 85.6133 88.1797 83.5086ZM102.624 75.5079C102.451 74.0087 101.471 73.259 99.6834 73.259C98.732 73.259 97.8526 73.4609 97.0454 73.8645C96.2381 74.2681 95.5894 74.7583 95.0992 75.3349C94.6091 75.9115 94.1911 76.5026 93.8451 77.108C93.4991 77.7135 93.2684 78.2325 93.1531 78.6649C93.0378 79.0974 92.9657 79.3713 92.9369 79.4866C92.9369 79.5155 93.2252 79.5299 93.8018 79.5299C97.0598 79.5299 99.3375 79.1839 100.635 78.4919C101.932 77.8 102.595 76.8053 102.624 75.5079Z" fill="white"/>
</g>
<g id="Group_18">
<path id="Vector_17" d="M107.556 78.3622C107.585 78.2757 107.614 78.1604 107.643 78.0162C107.671 77.8721 107.744 77.5549 107.859 77.0648C107.974 76.5747 108.118 76.1278 108.291 75.7241C108.464 75.3205 108.681 74.8448 108.94 74.297C109.2 73.7492 109.488 73.3167 109.805 72.9995C110.122 72.6824 110.497 72.3653 110.929 72.0481C111.362 71.731 111.838 71.6012 112.357 71.6589C113.193 71.6589 113.928 71.8319 114.562 72.1779C115.196 72.5238 115.643 72.841 115.903 73.1293C116.162 73.4176 116.321 73.7059 116.379 73.9942C116.436 74.1672 116.479 74.2537 116.508 74.2537C116.537 74.2537 116.652 74.1528 116.854 73.951C118.238 72.4518 119.838 71.7021 121.655 71.7021H121.784C123.168 71.7021 124.206 72.2932 124.898 73.4753C125.129 74.0231 125.244 74.5564 125.244 75.0754C125.244 75.9404 125.057 76.6323 124.682 77.1513C124.307 77.6702 123.932 78.0018 123.558 78.146C123.183 78.2901 122.822 78.3478 122.476 78.319C121.9 78.319 121.439 78.1604 121.093 77.8432C120.747 77.5261 120.574 77.108 120.574 76.5891C120.574 75.2052 121.381 74.2826 122.995 73.8212C122.361 73.4464 121.842 73.259 121.439 73.259C119.824 73.259 118.339 74.3258 116.984 76.4593C116.696 76.9206 116.479 77.3964 116.335 77.8865C116.191 78.3766 115.701 80.2939 114.865 83.6384C113.885 87.6748 113.322 89.8227 113.178 90.0822C112.803 90.8607 112.184 91.2499 111.319 91.2499C110.944 91.2499 110.641 91.1634 110.41 90.9904C110.18 90.8174 110.021 90.6444 109.935 90.4714C109.848 90.2984 109.819 90.1543 109.848 90.039C109.848 89.6641 110.425 87.1846 111.578 82.6004C112.731 78.0162 113.308 75.4646 113.308 74.9457C113.308 73.8212 112.933 73.259 112.184 73.259C111.578 73.259 111.059 73.6627 110.627 74.47C110.194 75.2772 109.848 76.1566 109.589 77.108C109.329 78.0595 109.171 78.5784 109.113 78.6649C109.055 78.7226 108.825 78.7514 108.421 78.7514H107.816C107.643 78.5784 107.556 78.4487 107.556 78.3622Z" fill="white"/>
</g>
<g id="Group_19">
<path id="Vector_18" d="M127.836 83.5086C127.836 81.8652 128.11 80.366 128.658 79.0109C129.206 77.6558 129.912 76.5314 130.777 75.6376C131.642 74.7439 132.608 73.9942 133.675 73.3888C134.742 72.7833 135.751 72.3364 136.702 72.0481C137.654 71.7598 138.562 71.6301 139.427 71.6589H139.556C140.854 71.6589 141.978 71.976 142.93 72.6103C143.881 73.2446 144.357 74.1816 144.357 75.4214C144.357 78.0162 142.757 79.7173 139.556 80.5246C138.144 80.8994 136.212 81.1012 133.761 81.13C132.695 81.13 132.147 81.1589 132.118 81.2165C132.118 81.2742 132.031 81.7787 131.858 82.7302C131.685 83.6816 131.585 84.5177 131.556 85.2385C131.556 86.5936 131.858 87.6604 132.464 88.4388C133.069 89.2173 133.978 89.6209 135.188 89.6497C136.399 89.6786 137.74 89.4047 139.21 88.828C140.681 88.2514 142.007 87.3 143.189 85.9737C143.449 85.6854 143.622 85.5412 143.708 85.5412C143.823 85.5412 144.011 85.671 144.27 85.9305C144.53 86.19 144.674 86.3918 144.703 86.5359C144.732 86.6801 144.602 86.9107 144.314 87.2279C144.025 87.545 143.593 87.9343 143.016 88.3956C142.44 88.8569 141.776 89.3038 141.027 89.7362C140.277 90.1687 139.369 90.5291 138.302 90.8174C137.235 91.1057 136.14 91.2499 135.015 91.2499C132.738 91.2499 130.979 90.4858 129.739 88.9578C128.5 87.4297 127.865 85.6133 127.836 83.5086ZM142.281 75.5079C142.108 74.0087 141.128 73.259 139.34 73.259C138.389 73.259 137.509 73.4609 136.702 73.8645C135.895 74.2681 135.246 74.7583 134.756 75.3349C134.266 75.9115 133.848 76.5026 133.502 77.108C133.156 77.7135 132.925 78.2325 132.81 78.6649C132.695 79.0974 132.622 79.3713 132.594 79.4866C132.594 79.5155 132.882 79.5299 133.459 79.5299C136.717 79.5299 138.994 79.1839 140.292 78.4919C141.589 77.8 142.252 76.8053 142.281 75.5079Z" fill="white"/>
</g>
<g id="Group_20">
<path id="Vector_19" d="M151.969 78.2757C151.969 77.3531 152.2 76.4161 152.661 75.4647C153.123 74.5132 153.93 73.6339 155.083 72.8266C156.237 72.0193 157.635 71.6301 159.278 71.6589C161.066 71.6589 162.363 72.0481 163.171 72.8266C163.978 73.605 164.396 74.47 164.425 75.4214C164.425 76.344 164.18 77.0216 163.689 77.454C163.199 77.8865 162.652 78.1172 162.046 78.146C161.671 78.146 161.325 78.0307 161.008 77.8C160.691 77.5694 160.518 77.1946 160.489 76.6756C160.489 76.2143 160.619 75.8107 160.878 75.4647C161.138 75.1187 161.383 74.8592 161.614 74.6862C161.844 74.5132 162.032 74.4267 162.176 74.4267C162.205 74.4267 162.219 74.4123 162.219 74.3835C162.219 74.297 162.118 74.1673 161.916 73.9943C161.715 73.8213 161.354 73.6627 160.835 73.5186C160.316 73.3744 159.754 73.2879 159.149 73.2591C157.765 73.2591 156.755 73.6339 156.121 74.3835C155.487 75.1331 155.155 75.8971 155.127 76.6756C155.127 77.3964 155.4 77.9009 155.948 78.1893C156.496 78.4776 157.289 78.7226 158.327 78.9245C159.365 79.1263 160.114 79.3425 160.576 79.5732C162.479 80.4093 163.43 81.7932 163.43 83.7249C163.43 84.5322 163.271 85.3395 162.954 86.1467C162.637 86.954 162.161 87.7613 161.527 88.5686C160.893 89.3759 159.985 90.0102 158.803 90.4715C157.62 90.9328 156.265 91.1778 154.737 91.2067C152.517 91.2067 150.946 90.7886 150.023 89.9525C149.101 89.1164 148.625 88.1361 148.596 87.0117C148.596 85.8873 148.899 85.08 149.504 84.5898C150.11 84.0997 150.744 83.8546 151.407 83.8546C151.84 83.8546 152.243 83.9844 152.618 84.2439C152.993 84.5033 153.195 84.9502 153.224 85.5845C153.224 86.3341 152.964 86.9684 152.445 87.4874C151.926 88.0064 151.479 88.2659 151.105 88.2659C151.047 88.2947 151.004 88.3091 150.975 88.3091C150.946 88.3091 150.932 88.3379 150.932 88.3956C150.96 88.4821 151.076 88.5974 151.278 88.7416C151.479 88.8857 151.926 89.0731 152.618 89.3038C153.31 89.5344 154.103 89.6353 154.997 89.6065C156.035 89.6065 156.928 89.4479 157.678 89.1308C158.428 88.8137 158.976 88.41 159.322 87.9199C159.667 87.4297 159.913 86.9829 160.057 86.5792C160.201 86.1756 160.273 85.8152 160.273 85.498C160.273 84.6908 159.97 84.0853 159.365 83.6816C158.759 83.278 158.067 83.0329 157.289 82.9464C156.51 82.86 155.66 82.6437 154.737 82.2977C153.815 81.9518 153.137 81.4472 152.705 80.7841C152.215 80.0633 151.969 79.2272 151.969 78.2757Z" fill="white"/>
</g>
<g id="Group_21">
<path id="Vector_20" d="M181.976 74.7728C181.976 74.0809 182.221 73.4754 182.711 72.9564C183.201 72.4375 183.821 72.178 184.571 72.178C185.263 72.178 185.868 72.4086 186.387 72.8699C186.906 73.3312 187.18 73.9511 187.209 74.7296C187.209 75.4504 186.964 76.0702 186.474 76.5892C185.984 77.1082 185.364 77.3677 184.614 77.3677C183.865 77.3677 183.245 77.1226 182.755 76.6325C182.264 76.1423 182.005 75.5224 181.976 74.7728ZM181.976 88.1795C181.976 87.4875 182.221 86.882 182.711 86.3631C183.201 85.8441 183.821 85.5846 184.571 85.5846C185.263 85.5846 185.868 85.8153 186.387 86.2766C186.906 86.7379 187.18 87.3578 187.209 88.1362C187.209 88.857 186.964 89.4769 186.474 89.9958C185.984 90.5148 185.364 90.7743 184.614 90.7743C183.865 90.7743 183.245 90.5292 182.755 90.0391C182.264 89.549 182.005 88.9291 181.976 88.1795Z" fill="white"/>
</g>
<g id="Group_22">
<path id="Vector_21" d="M223.864 65.7774L223.302 65.9936C222.898 66.1378 222.321 66.2819 221.572 66.4261C220.822 66.5703 219.986 66.6712 219.063 66.7288H218.242V64.7395H219.063C220.418 64.6818 221.673 64.4656 222.826 64.0908C223.979 63.7159 224.786 63.37 225.248 63.0528C225.709 62.7357 226.113 62.4185 226.459 62.1014C226.516 62.0149 226.689 61.9716 226.978 61.9716C227.237 61.9716 227.482 62.0581 227.713 62.2311V75.162L227.756 88.1362C227.958 88.338 228.131 88.4678 228.275 88.5254C228.419 88.5831 228.765 88.6408 229.313 88.6984C229.861 88.7561 230.755 88.7849 231.994 88.7849H233.119V90.7743H232.643C232.038 90.6878 229.745 90.6446 225.767 90.6446C221.846 90.6446 219.582 90.6878 218.977 90.7743H218.458V88.7849H219.582C220.217 88.7849 220.764 88.7849 221.226 88.7849C221.687 88.7849 222.047 88.7705 222.307 88.7417C222.566 88.7128 222.797 88.6696 222.999 88.6119C223.201 88.5543 223.316 88.5254 223.345 88.5254C223.374 88.5254 223.46 88.4534 223.604 88.3092C223.749 88.165 223.835 88.1074 223.864 88.1362V65.7774Z" fill="white"/>
<path id="Vector_22" d="M245.489 65.7774L244.927 65.9936C244.523 66.1378 243.946 66.2819 243.197 66.4261C242.447 66.5703 241.611 66.6712 240.688 66.7288H239.867V64.7395H240.688C242.043 64.6818 243.298 64.4656 244.451 64.0908C245.604 63.7159 246.411 63.37 246.873 63.0528C247.334 62.7357 247.738 62.4185 248.084 62.1014C248.141 62.0149 248.314 61.9716 248.603 61.9716C248.862 61.9716 249.107 62.0581 249.338 62.2311V75.162L249.381 88.1362C249.583 88.338 249.756 88.4678 249.9 88.5254C250.044 88.5831 250.39 88.6408 250.938 88.6984C251.486 88.7561 252.38 88.7849 253.619 88.7849H254.744V90.7743H254.268C253.663 90.6878 251.37 90.6446 247.392 90.6446C243.471 90.6446 241.207 90.6878 240.602 90.7743H240.083V88.7849H241.207C241.842 88.7849 242.389 88.7849 242.851 88.7849C243.312 88.7849 243.672 88.7705 243.932 88.7417C244.191 88.7128 244.422 88.6696 244.624 88.6119C244.826 88.5543 244.941 88.5254 244.97 88.5254C244.999 88.5254 245.085 88.4534 245.229 88.3092C245.374 88.165 245.46 88.1074 245.489 88.1362V65.7774Z" fill="white"/>
</g>
<g id="Group_23">
<path id="Vector_23" d="M289.785 66.1091L289.223 66.3253C288.819 66.4695 288.243 66.6136 287.493 66.7578C286.744 66.9019 285.907 67.0028 284.985 67.0605H284.163V65.0711H284.985C286.34 65.0135 287.594 64.7972 288.747 64.4224C289.901 64.0476 290.708 63.7016 291.169 63.3845C291.63 63.0673 292.034 62.7502 292.38 62.433C292.438 62.3466 292.611 62.3033 292.899 62.3033C293.159 62.3033 293.404 62.3898 293.634 62.5628V75.4937L293.677 88.4679C293.879 88.6697 294.052 88.7994 294.196 88.8571C294.341 88.9148 294.687 88.9724 295.234 89.0301C295.782 89.0878 296.676 89.1166 297.916 89.1166H299.04V91.106H298.564C297.959 91.0195 295.667 90.9762 291.688 90.9762C287.767 90.9762 285.504 91.0195 284.898 91.106H284.379V89.1166H285.504C286.138 89.1166 286.686 89.1166 287.147 89.1166C287.608 89.1166 287.969 89.1022 288.228 89.0733C288.488 89.0445 288.718 89.0013 288.92 88.9436C289.122 88.8859 289.237 88.8571 289.266 88.8571C289.295 88.8571 289.382 88.785 289.526 88.6409C289.67 88.4967 289.756 88.439 289.785 88.4679V66.1091Z" fill="white"/>
<path id="Vector_24" d="M306.909 72.5529C306.131 72.5529 305.511 72.2934 305.05 71.7744C304.589 71.2555 304.358 70.6212 304.358 69.8716C304.358 67.8245 305.122 66.0514 306.65 64.5522C308.178 63.0529 310.081 62.3033 312.359 62.3033C314.982 62.3033 317.174 63.1106 318.932 64.7252C320.691 66.3397 321.585 68.43 321.614 70.996C321.614 72.2358 321.325 73.4178 320.749 74.5423C320.172 75.6667 319.48 76.647 318.673 77.4831C317.865 78.3192 316.712 79.386 315.213 80.6834C314.175 81.5772 312.733 82.9034 310.888 84.6621L308.337 87.084L311.623 87.1272C316.15 87.1272 318.557 87.0551 318.846 86.911C319.048 86.8533 319.394 85.5703 319.884 83.062V82.9322H321.614V83.062C321.585 83.1485 321.397 84.4603 321.051 86.9975C320.705 89.5346 320.489 90.8609 320.403 90.9762V91.106H304.358V90.2843V89.7653C304.358 89.5635 304.444 89.3472 304.617 89.1166C304.79 88.8859 305.223 88.3814 305.915 87.6029C306.751 86.6803 307.472 85.873 308.077 85.1811C308.337 84.8928 308.827 84.3594 309.548 83.5809C310.268 82.8025 310.758 82.2691 311.018 81.9808C311.277 81.6925 311.696 81.2168 312.272 80.5536C312.849 79.8905 313.252 79.4004 313.483 79.0832C313.714 78.7661 314.045 78.3336 314.478 77.7858C314.91 77.238 315.213 76.7767 315.386 76.4019C315.559 76.0271 315.775 75.609 316.035 75.1477C316.294 74.6864 316.482 74.2251 316.597 73.7638C316.712 73.3025 316.813 72.87 316.9 72.4664C316.986 72.0628 317.029 71.587 317.029 71.0392C317.029 69.2229 316.539 67.6515 315.559 66.3253C314.579 64.9991 313.18 64.3359 311.364 64.3359C310.413 64.3359 309.576 64.581 308.856 65.0711C308.135 65.5613 307.63 66.037 307.342 66.4983C307.054 66.9596 306.909 67.2335 306.909 67.32C306.909 67.3488 306.982 67.3632 307.126 67.3632C307.645 67.3632 308.178 67.5651 308.726 67.9687C309.274 68.3723 309.548 69.0355 309.548 69.9581C309.548 70.6789 309.317 71.2843 308.856 71.7744C308.394 72.2646 307.746 72.5241 306.909 72.5529Z" fill="white"/>
</g>
<g id="Group_24">
<path id="Vector_25" d="M354.166 66.1091L353.603 66.3253C353.2 66.4695 352.623 66.6136 351.873 66.7578C351.124 66.9019 350.288 67.0028 349.365 67.0605H348.543V65.0711H349.365C350.72 65.0135 351.974 64.7972 353.128 64.4224C354.281 64.0476 355.088 63.7016 355.55 63.3845C356.011 63.0673 356.414 62.7502 356.76 62.433C356.818 62.3466 356.991 62.3033 357.279 62.3033C357.539 62.3033 357.784 62.3898 358.015 62.5628V75.4937L358.058 88.4679C358.26 88.6697 358.433 88.7994 358.577 88.8571C358.721 88.9148 359.067 88.9724 359.615 89.0301C360.163 89.0878 361.056 89.1166 362.296 89.1166H363.421V91.106H362.945C362.339 91.0195 360.047 90.9762 356.068 90.9762C352.147 90.9762 349.884 91.0195 349.279 91.106H348.76V89.1166H349.884C350.518 89.1166 351.066 89.1166 351.528 89.1166C351.989 89.1166 352.349 89.1022 352.609 89.0733C352.868 89.0445 353.099 89.0013 353.301 88.9436C353.502 88.8859 353.618 88.8571 353.647 88.8571C353.675 88.8571 353.762 88.785 353.906 88.6409C354.05 88.4967 354.137 88.439 354.166 88.4679V66.1091Z" fill="white"/>
<path id="Vector_26" d="M372.069 71.0823C371.29 71.0823 370.685 70.8373 370.252 70.3471C369.82 69.857 369.589 69.2227 369.56 68.4443C369.56 66.8585 370.252 65.4458 371.636 64.206C373.02 62.9663 374.692 62.3464 376.653 62.3464C377.662 62.3464 378.296 62.3608 378.556 62.3897C380.689 62.7356 382.318 63.4997 383.443 64.6818C384.567 65.8638 385.144 67.1469 385.173 68.5308C385.173 70.03 384.682 71.486 383.702 72.8987C382.722 74.3115 381.367 75.335 379.637 75.9693L379.507 76.0558C379.507 76.0846 379.637 76.1279 379.896 76.1855C380.156 76.2432 380.574 76.3729 381.151 76.5747C381.727 76.7766 382.275 77.0793 382.794 77.4829C385.158 79.011 386.34 81.0292 386.34 83.5375C386.34 85.8152 385.446 87.8046 383.659 89.5057C381.871 91.2067 379.608 92.0573 376.869 92.0573C374.563 92.0573 372.573 91.4374 370.901 90.1976C369.229 88.9579 368.393 87.3866 368.393 85.4837C368.393 84.6764 368.652 84.0277 369.171 83.5375C369.69 83.0474 370.339 82.7879 371.117 82.7591C371.924 82.7591 372.588 83.0186 373.107 83.5375C373.625 84.0565 373.885 84.7052 373.885 85.4837C373.885 85.8008 373.842 86.0891 373.755 86.3486C373.669 86.6081 373.568 86.8388 373.453 87.0406C373.337 87.2424 373.179 87.4154 372.977 87.5595C372.775 87.7037 372.602 87.819 372.458 87.9055C372.314 87.992 372.17 88.0497 372.025 88.0785C371.881 88.1073 371.766 88.1506 371.679 88.2082L371.506 88.2515C372.977 89.5489 374.764 90.1976 376.869 90.1976C378.455 90.1976 379.651 89.4336 380.459 87.9055C380.949 86.9541 381.194 85.4981 381.194 83.5375V82.6726C381.194 79.9336 380.271 78.1028 378.426 77.1802C377.993 77.0072 377.114 76.9063 375.788 76.8775L373.971 76.8342L373.842 76.7477C373.784 76.6612 373.755 76.4306 373.755 76.0558C373.755 75.5368 373.871 75.2773 374.101 75.2773C374.908 75.2773 375.745 75.2052 376.61 75.0611C377.59 74.9169 378.484 74.3115 379.291 73.2447C380.098 72.1779 380.502 70.5634 380.502 68.401V68.055C380.502 66.4116 379.997 65.2728 378.988 64.6385C378.354 64.2349 377.676 64.0331 376.956 64.0331C376.033 64.0331 375.182 64.1916 374.404 64.5088C373.625 64.8259 373.078 65.1575 372.761 65.5035C372.443 65.8494 372.285 66.0224 372.285 66.0224H372.415C372.501 66.0513 372.616 66.0801 372.761 66.1089C372.905 66.1377 373.049 66.2098 373.193 66.3252C373.337 66.4405 373.51 66.5414 373.712 66.6279C373.914 66.7144 374.058 66.873 374.144 67.1036C374.231 67.3343 374.346 67.5505 374.49 67.7523C374.635 67.9541 374.678 68.2424 374.62 68.6173C374.62 69.2515 374.418 69.8138 374.015 70.3039C373.611 70.794 372.962 71.0535 372.069 71.0823Z" fill="white"/>
</g>
<g id="Group_25">
<path id="Vector_27" d="M535.026 78.2182C535.026 77.5262 535.271 76.9207 535.761 76.4018C536.251 75.8828 536.871 75.6233 537.621 75.6233C538.313 75.6233 538.918 75.854 539.437 76.3153C539.956 76.7766 540.23 77.3965 540.259 78.1749C540.259 78.8957 540.014 79.5156 539.524 80.0345C539.033 80.5535 538.414 80.813 537.664 80.813C536.914 80.813 536.294 80.5679 535.804 80.0778C535.314 79.5877 535.055 78.9678 535.026 78.2182ZM554.357 78.2182C554.357 77.5262 554.602 76.9207 555.093 76.4018C555.583 75.8828 556.203 75.6233 556.952 75.6233C557.644 75.6233 558.25 75.854 558.769 76.3153C559.288 76.7766 559.561 77.3965 559.59 78.1749C559.59 78.8957 559.345 79.5156 558.855 80.0345C558.365 80.5535 557.745 80.813 556.995 80.813C556.246 80.813 555.626 80.5679 555.136 80.0778C554.646 79.5877 554.386 78.9678 554.357 78.2182ZM573.689 78.2182C573.689 77.5262 573.934 76.9207 574.424 76.4018C574.914 75.8828 575.534 75.6233 576.284 75.6233C576.976 75.6233 577.581 75.854 578.1 76.3153C578.619 76.7766 578.893 77.3965 578.922 78.1749C578.922 78.8957 578.677 79.5156 578.187 80.0345C577.696 80.5535 577.077 80.813 576.327 80.813C575.577 80.813 574.957 80.5679 574.467 80.0778C573.977 79.5877 573.718 78.9678 573.689 78.2182Z" fill="white"/>
</g>
<g id="Group 217">
<g id="Group_26">
<path id="Vector_28" d="M653.869 66.1091L653.307 66.3253C652.903 66.4695 652.327 66.6136 651.577 66.7578C650.827 66.9019 649.991 67.0028 649.069 67.0605H648.247V65.0711H649.069C650.424 65.0135 651.678 64.7972 652.831 64.4224C653.985 64.0476 654.792 63.7016 655.253 63.3845C655.714 63.0673 656.118 62.7502 656.464 62.433C656.522 62.3466 656.695 62.3033 656.983 62.3033C657.242 62.3033 657.488 62.3898 657.718 62.5628V75.4937L657.761 88.4679C657.963 88.6697 658.136 88.7994 658.28 88.8571C658.425 88.9148 658.771 88.9724 659.318 89.0301C659.866 89.0878 660.76 89.1166 662 89.1166H663.124V91.106H662.648C662.043 91.0195 659.751 90.9762 655.772 90.9762C651.851 90.9762 649.588 91.0195 648.982 91.106H648.463V89.1166H649.588C650.222 89.1166 650.77 89.1166 651.231 89.1166C651.692 89.1166 652.053 89.1022 652.312 89.0733C652.572 89.0445 652.802 89.0013 653.004 88.9436C653.206 88.8859 653.321 88.8571 653.35 88.8571C653.379 88.8571 653.466 88.785 653.61 88.6409C653.754 88.4967 653.84 88.439 653.869 88.4679V66.1091Z" fill="white"/>
<path id="Vector_29" d="M670.434 65.8063C672.049 63.471 674.255 62.3033 677.051 62.3033C678.435 62.3033 679.819 62.6781 681.203 63.4277C682.587 64.1773 683.711 65.5036 684.576 67.4065C685.643 69.7995 686.176 73.0863 686.176 77.2668C686.176 81.7357 685.556 85.1522 684.317 87.5164C683.74 88.7273 682.947 89.6932 681.938 90.414C680.929 91.1348 680.05 91.5817 679.3 91.7546C678.55 91.9276 677.815 92.0285 677.094 92.0574C676.345 92.0574 675.595 91.9709 674.846 91.7979C674.096 91.6249 673.217 91.1636 672.207 90.414C671.198 89.6644 670.405 88.6985 669.829 87.5164C668.589 85.1522 667.969 81.7357 667.969 77.2668C667.969 72.2501 668.791 68.43 670.434 65.8063ZM680.165 65.2873C679.3 64.3647 678.276 63.9034 677.094 63.9034C675.883 63.9034 674.846 64.3647 673.981 65.2873C673.26 66.037 672.784 67.0749 672.553 68.4011C672.323 69.7274 672.207 72.4952 672.207 76.7046C672.207 81.26 672.323 84.2585 672.553 85.7C672.784 87.1416 673.303 88.2804 674.11 89.1166C674.918 89.9815 675.912 90.414 677.094 90.414C678.248 90.414 679.228 89.9815 680.035 89.1166C680.871 88.2516 681.39 87.0407 681.592 85.4838C681.794 83.9269 681.909 81.0005 681.938 76.7046C681.938 72.524 681.823 69.7706 681.592 68.4444C681.361 67.1181 680.886 66.0658 680.165 65.2873Z" fill="white"/>
</g>
<g id="Group_27">
<path id="Vector_30" d="M699.934 80.856C699.934 80.856 699.934 80.6686 699.934 80.2938C699.934 79.919 700.136 79.6307 700.54 79.4288H713.47V72.9417L713.514 66.4547C713.802 66.0799 714.076 65.8925 714.335 65.8925C714.71 65.8925 714.999 66.1087 715.2 66.5412V79.4288H728.088C728.52 79.6595 728.737 79.9478 728.737 80.2938C728.737 80.6398 728.52 80.9281 728.088 81.1587H715.2V94.0464C714.97 94.45 714.71 94.6519 714.422 94.6519H714.335H714.249C713.903 94.6519 713.643 94.45 713.47 94.0464V81.1587H700.54C700.136 80.9569 699.934 80.6686 699.934 80.2938V80.856Z" fill="white"/>
</g>
<g id="Group_28">
<path id="Vector_31" d="M741.678 78.6939C741.707 78.5209 741.75 78.2902 741.807 78.0019C741.865 77.7136 742.038 77.1658 742.326 76.3585C742.615 75.5512 742.903 74.8737 743.191 74.3259C743.48 73.7781 743.955 73.2447 744.619 72.7258C745.282 72.2068 745.945 71.9617 746.608 71.9906C747.646 71.9906 748.511 72.25 749.203 72.769C749.895 73.288 750.327 73.7781 750.5 74.2394C750.673 74.7007 750.76 75.0034 750.76 75.1476C750.76 75.2053 750.774 75.2341 750.803 75.2341L751.279 74.7584C753.037 72.9132 755.041 71.9906 757.29 71.9906C758.847 71.9906 760.101 72.3798 761.052 73.1582C762.004 73.9367 762.494 75.0755 762.523 76.5748C762.552 78.074 762.004 80.3373 760.879 83.3646C759.755 86.3919 759.207 88.2227 759.236 88.857C759.236 89.6066 759.481 89.9814 759.971 89.9814C760.144 89.9814 760.274 89.967 760.361 89.9381C761.197 89.794 761.946 89.2462 762.609 88.2948C763.273 87.3433 763.777 86.1901 764.123 84.835C764.181 84.6043 764.469 84.489 764.988 84.489C765.565 84.489 765.853 84.6043 765.853 84.835C765.853 84.8638 765.795 85.08 765.68 85.4837C765.449 86.3198 765.132 87.1415 764.729 87.9488C764.325 88.7561 763.662 89.5633 762.739 90.3706C761.817 91.1779 760.822 91.5671 759.755 91.5383C758.4 91.5383 757.42 91.1491 756.814 90.3706C756.209 89.5922 755.906 88.7849 755.906 87.9488C755.906 87.401 756.425 85.6711 757.463 82.7591C758.501 79.8471 759.034 77.6559 759.063 76.1855C759.063 74.4845 758.429 73.6339 757.16 73.6339H756.944C754.464 73.6339 752.374 75.0899 750.673 78.0019L750.37 78.5209L748.943 84.316C747.992 88.0929 747.444 90.1256 747.3 90.4139C746.925 91.1923 746.305 91.5815 745.44 91.5815C745.065 91.5815 744.763 91.495 744.532 91.3221C744.301 91.1491 744.143 90.9761 744.056 90.8031C743.97 90.6301 743.941 90.4859 743.97 90.3706C743.97 89.9958 744.518 87.646 745.613 83.3213C746.709 78.9966 747.285 76.6468 747.343 76.272C747.372 76.1279 747.386 75.7963 747.386 75.2773C747.386 74.1529 747.04 73.5907 746.348 73.5907C745.253 73.5907 744.345 75.0323 743.624 77.9154C743.451 78.4921 743.364 78.7948 743.364 78.8236C743.307 78.9966 743.033 79.0831 742.543 79.0831H741.937C741.764 78.9101 741.678 78.7804 741.678 78.6939Z" fill="white"/>
</g>
</g>
</g>
</g>
</g>
<g id="200=10+n+n\;&#10;2n=190&#10;\therefore n=95&#10;&#10;">
<g id="Group_29">
<g id="Group 219">
<g id="Group_30">
<path id="Vector_32" d="M274.997 165.04C274.083 165.04 273.355 164.735 272.813 164.126C272.271 163.516 272 162.771 272 161.891C272 159.486 272.898 157.403 274.693 155.642C276.488 153.881 278.723 153 281.398 153C284.48 153 287.054 153.948 289.12 155.845C291.186 157.742 292.236 160.197 292.27 163.211C292.27 164.668 291.931 166.056 291.254 167.377C290.577 168.698 289.764 169.85 288.816 170.832C287.867 171.814 286.512 173.067 284.751 174.591C283.532 175.641 281.839 177.199 279.671 179.265L276.674 182.11L280.535 182.161C285.852 182.161 288.68 182.076 289.019 181.907C289.256 181.839 289.662 180.332 290.238 177.385V177.233H292.27V177.385C292.236 177.487 292.016 179.028 291.61 182.008C291.203 184.989 290.949 186.546 290.848 186.682V186.834H272V185.869V185.259C272 185.022 272.102 184.768 272.305 184.497C272.508 184.227 273.016 183.634 273.829 182.719C274.811 181.636 275.658 180.687 276.369 179.874C276.674 179.536 277.25 178.909 278.096 177.995C278.943 177.08 279.519 176.454 279.824 176.115C280.128 175.776 280.619 175.218 281.297 174.439C281.974 173.66 282.448 173.084 282.719 172.711C282.99 172.339 283.38 171.831 283.888 171.187C284.396 170.544 284.751 170.002 284.955 169.562C285.158 169.121 285.412 168.63 285.717 168.088C286.021 167.546 286.242 167.005 286.377 166.463C286.512 165.921 286.631 165.413 286.733 164.939C286.834 164.464 286.885 163.906 286.885 163.262C286.885 161.128 286.309 159.283 285.158 157.725C284.006 156.167 282.364 155.388 280.23 155.388C279.112 155.388 278.13 155.676 277.283 156.251C276.437 156.827 275.844 157.386 275.505 157.928C275.167 158.47 274.997 158.792 274.997 158.893C274.997 158.927 275.082 158.944 275.251 158.944C275.861 158.944 276.488 159.181 277.131 159.655C277.775 160.129 278.096 160.908 278.096 161.992C278.096 162.839 277.825 163.55 277.283 164.126C276.742 164.702 275.98 165.006 274.997 165.04Z" fill="white"/>
<path id="Vector_33" d="M299.738 157.115C301.634 154.372 304.225 153 307.51 153C309.136 153 310.762 153.44 312.387 154.321C314.013 155.201 315.334 156.759 316.35 158.995C317.603 161.806 318.229 165.667 318.229 170.578C318.229 175.827 317.501 179.84 316.045 182.618C315.368 184.04 314.436 185.175 313.251 186.021C312.066 186.868 311.033 187.393 310.152 187.596C309.271 187.799 308.408 187.918 307.561 187.952C306.68 187.952 305.8 187.85 304.919 187.647C304.039 187.444 303.006 186.902 301.82 186.021C300.635 185.141 299.704 184.006 299.026 182.618C297.57 179.84 296.842 175.827 296.842 170.578C296.842 164.685 297.807 160.197 299.738 157.115ZM311.168 156.505C310.152 155.422 308.95 154.88 307.561 154.88C306.139 154.88 304.919 155.422 303.903 156.505C303.057 157.386 302.498 158.605 302.227 160.163C301.956 161.721 301.82 164.972 301.82 169.917C301.82 175.268 301.956 178.791 302.227 180.484C302.498 182.177 303.107 183.515 304.056 184.497C305.004 185.513 306.172 186.021 307.561 186.021C308.916 186.021 310.067 185.513 311.016 184.497C311.998 183.481 312.607 182.059 312.844 180.23C313.082 178.401 313.217 174.963 313.251 169.917C313.251 165.006 313.115 161.772 312.844 160.214C312.574 158.656 312.015 157.42 311.168 156.505Z" fill="white"/>
<path id="Vector_34" d="M325.14 157.115C327.036 154.372 329.627 153 332.913 153C334.538 153 336.164 153.44 337.79 154.321C339.415 155.201 340.736 156.759 341.752 158.995C343.005 161.806 343.632 165.667 343.632 170.578C343.632 175.827 342.904 179.84 341.447 182.618C340.77 184.04 339.839 185.175 338.653 186.021C337.468 186.868 336.435 187.393 335.554 187.596C334.674 187.799 333.81 187.918 332.963 187.952C332.083 187.952 331.202 187.85 330.322 187.647C329.441 187.444 328.408 186.902 327.223 186.021C326.037 185.141 325.106 184.006 324.429 182.618C322.972 179.84 322.244 175.827 322.244 170.578C322.244 164.685 323.209 160.197 325.14 157.115ZM336.57 156.505C335.554 155.422 334.352 154.88 332.963 154.88C331.541 154.88 330.322 155.422 329.306 156.505C328.459 157.386 327.9 158.605 327.629 160.163C327.358 161.721 327.223 164.972 327.223 169.917C327.223 175.268 327.358 178.791 327.629 180.484C327.9 182.177 328.51 183.515 329.458 184.497C330.406 185.513 331.575 186.021 332.963 186.021C334.318 186.021 335.47 185.513 336.418 184.497C337.4 183.481 338.01 182.059 338.247 180.23C338.484 178.401 338.619 174.963 338.653 169.917C338.653 165.006 338.518 161.772 338.247 160.214C337.976 158.656 337.417 157.42 336.57 156.505Z" fill="white"/>
</g>
<g id="Group_31">
<path id="Vector_35" d="M362.621 169.206C362.621 168.766 362.858 168.427 363.332 168.19H395.693C396.201 168.461 396.455 168.8 396.455 169.206C396.455 169.579 396.218 169.9 395.744 170.171L379.589 170.222H363.433C362.892 170.053 362.621 169.714 362.621 169.206ZM362.621 179.062C362.621 178.554 362.892 178.215 363.433 178.046H395.744C396.218 178.384 396.455 178.723 396.455 179.062C396.455 179.502 396.201 179.841 395.693 180.078H363.332C362.858 179.841 362.621 179.502 362.621 179.062Z" fill="white"/>
</g>
<g id="Group_32">
<path id="Vector_36" d="M424.234 157.471L423.574 157.725C423.1 157.894 422.422 158.063 421.542 158.233C420.661 158.402 419.679 158.521 418.595 158.588H417.63V156.251H418.595C420.187 156.184 421.66 155.93 423.015 155.489C424.37 155.049 425.318 154.643 425.86 154.27C426.402 153.898 426.876 153.525 427.282 153.153C427.35 153.051 427.553 153 427.892 153C428.197 153 428.485 153.102 428.756 153.305V168.495L428.806 183.735C429.043 183.972 429.247 184.125 429.416 184.193C429.585 184.26 429.992 184.328 430.635 184.396C431.279 184.464 432.329 184.497 433.785 184.497H435.106V186.834H434.547C433.836 186.733 431.143 186.682 426.469 186.682C421.863 186.682 419.205 186.733 418.494 186.834H417.884V184.497H419.205C419.95 184.497 420.593 184.497 421.135 184.497C421.677 184.497 422.1 184.481 422.405 184.447C422.71 184.413 422.981 184.362 423.218 184.294C423.455 184.227 423.591 184.193 423.625 184.193C423.658 184.193 423.76 184.108 423.929 183.939C424.099 183.769 424.2 183.702 424.234 183.735V157.471Z" fill="white"/>
<path id="Vector_37" d="M443.692 157.115C445.589 154.372 448.18 153 451.465 153C453.091 153 454.716 153.44 456.342 154.321C457.968 155.201 459.288 156.759 460.304 158.995C461.558 161.806 462.184 165.667 462.184 170.578C462.184 175.827 461.456 179.84 460 182.618C459.322 184.04 458.391 185.175 457.205 186.021C456.02 186.868 454.987 187.393 454.107 187.596C453.226 187.799 452.362 187.918 451.516 187.952C450.635 187.952 449.754 187.85 448.874 187.647C447.993 187.444 446.96 186.902 445.775 186.021C444.59 185.141 443.658 184.006 442.981 182.618C441.525 179.84 440.796 175.827 440.796 170.578C440.796 164.685 441.762 160.197 443.692 157.115ZM455.123 156.505C454.107 155.422 452.904 154.88 451.516 154.88C450.093 154.88 448.874 155.422 447.858 156.505C447.011 157.386 446.452 158.605 446.181 160.163C445.91 161.721 445.775 164.972 445.775 169.917C445.775 175.268 445.91 178.791 446.181 180.484C446.452 182.177 447.062 183.515 448.01 184.497C448.959 185.513 450.127 186.021 451.516 186.021C452.87 186.021 454.022 185.513 454.97 184.497C455.952 183.481 456.562 182.059 456.799 180.23C457.036 178.401 457.172 174.963 457.205 169.917C457.205 165.006 457.07 161.772 456.799 160.214C456.528 158.656 455.969 157.42 455.123 156.505Z" fill="white"/>
</g>
<g id="Group_33">
<path id="Vector_38" d="M478.349 174.794C478.349 174.794 478.349 174.574 478.349 174.134C478.349 173.694 478.586 173.355 479.06 173.118H494.25V165.498L494.301 157.877C494.639 157.437 494.961 157.217 495.266 157.217C495.706 157.217 496.045 157.471 496.282 157.979V173.118H511.421C511.929 173.389 512.183 173.728 512.183 174.134C512.183 174.54 511.929 174.879 511.421 175.15H496.282V190.289C496.011 190.763 495.706 191 495.367 191H495.266H495.164C494.758 191 494.453 190.763 494.25 190.289V175.15H479.06C478.586 174.913 478.349 174.574 478.349 174.134V174.794Z" fill="white"/>
</g>
<g id="Group_34">
<path id="Vector_39" d="M527.382 172.254C527.416 172.051 527.467 171.78 527.534 171.442C527.602 171.103 527.805 170.459 528.144 169.511C528.483 168.563 528.821 167.767 529.16 167.123C529.499 166.48 530.057 165.853 530.836 165.244C531.615 164.634 532.394 164.346 533.173 164.38C534.393 164.38 535.409 164.685 536.221 165.295C537.034 165.904 537.542 166.48 537.745 167.022C537.949 167.564 538.05 167.919 538.05 168.089C538.05 168.156 538.067 168.19 538.101 168.19L538.66 167.631C540.726 165.464 543.08 164.38 545.721 164.38C547.55 164.38 549.024 164.837 550.141 165.752C551.259 166.666 551.835 168.004 551.868 169.765C551.902 171.526 551.259 174.185 549.938 177.741C548.617 181.297 547.974 183.448 548.008 184.193C548.008 185.073 548.295 185.514 548.871 185.514C549.074 185.514 549.227 185.497 549.328 185.463C550.311 185.294 551.191 184.65 551.97 183.532C552.749 182.415 553.342 181.06 553.748 179.468C553.816 179.197 554.155 179.062 554.764 179.062C555.442 179.062 555.78 179.197 555.78 179.468C555.78 179.502 555.712 179.756 555.577 180.23C555.306 181.213 554.934 182.178 554.459 183.126C553.985 184.074 553.206 185.023 552.122 185.971C551.039 186.919 549.87 187.376 548.617 187.343C547.025 187.343 545.874 186.885 545.163 185.971C544.451 185.057 544.096 184.108 544.096 183.126C544.096 182.483 544.705 180.45 545.925 177.03C547.144 173.609 547.77 171.035 547.804 169.308C547.804 167.31 547.059 166.311 545.569 166.311H545.315C542.402 166.311 539.947 168.021 537.949 171.442L537.593 172.051L535.917 178.859C534.799 183.295 534.155 185.683 533.986 186.022C533.546 186.936 532.818 187.393 531.802 187.393C531.361 187.393 531.006 187.292 530.735 187.089C530.464 186.885 530.278 186.682 530.176 186.479C530.074 186.276 530.04 186.106 530.074 185.971C530.074 185.531 530.718 182.77 532.005 177.69C533.292 172.61 533.969 169.85 534.037 169.409C534.071 169.24 534.088 168.851 534.088 168.241C534.088 166.92 533.681 166.26 532.868 166.26C531.581 166.26 530.515 167.953 529.668 171.34C529.465 172.017 529.363 172.373 529.363 172.407C529.295 172.61 528.974 172.712 528.398 172.712H527.687C527.483 172.508 527.382 172.356 527.382 172.254Z" fill="white"/>
</g>
<g id="Group_35">
<path id="Vector_40" d="M570.93 174.794C570.93 174.794 570.93 174.574 570.93 174.134C570.93 173.694 571.167 173.355 571.641 173.118H586.831V165.498L586.882 157.877C587.22 157.437 587.542 157.217 587.847 157.217C588.287 157.217 588.626 157.471 588.863 157.979V173.118H604.002C604.51 173.389 604.764 173.728 604.764 174.134C604.764 174.54 604.51 174.879 604.002 175.15H588.863V190.289C588.592 190.763 588.287 191 587.948 191H587.847H587.745C587.339 191 587.034 190.763 586.831 190.289V175.15H571.641C571.167 174.913 570.93 174.574 570.93 174.134V174.794Z" fill="white"/>
</g>
<g id="Group_36">
<path id="Vector_41" d="M619.965 172.254C619.999 172.051 620.05 171.78 620.117 171.442C620.185 171.103 620.388 170.459 620.727 169.511C621.066 168.563 621.404 167.767 621.743 167.123C622.082 166.48 622.64 165.853 623.419 165.244C624.198 164.634 624.977 164.346 625.756 164.38C626.976 164.38 627.992 164.685 628.804 165.295C629.617 165.904 630.125 166.48 630.328 167.022C630.532 167.564 630.633 167.919 630.633 168.089C630.633 168.156 630.65 168.19 630.684 168.19L631.243 167.631C633.309 165.464 635.663 164.38 638.304 164.38C640.133 164.38 641.607 164.837 642.724 165.752C643.842 166.666 644.418 168.004 644.451 169.765C644.485 171.526 643.842 174.185 642.521 177.741C641.2 181.297 640.557 183.448 640.591 184.193C640.591 185.073 640.878 185.514 641.454 185.514C641.657 185.514 641.81 185.497 641.911 185.463C642.894 185.294 643.774 184.65 644.553 183.532C645.332 182.415 645.925 181.06 646.331 179.468C646.399 179.197 646.738 179.062 647.347 179.062C648.025 179.062 648.363 179.197 648.363 179.468C648.363 179.502 648.296 179.756 648.16 180.23C647.889 181.213 647.517 182.178 647.042 183.126C646.568 184.074 645.789 185.023 644.705 185.971C643.622 186.919 642.453 187.376 641.2 187.343C639.608 187.343 638.457 186.885 637.746 185.971C637.034 185.057 636.679 184.108 636.679 183.126C636.679 182.483 637.288 180.45 638.508 177.03C639.727 173.609 640.353 171.035 640.387 169.308C640.387 167.31 639.642 166.311 638.152 166.311H637.898C634.985 166.311 632.53 168.021 630.532 171.442L630.176 172.051L628.5 178.859C627.382 183.295 626.738 185.683 626.569 186.022C626.129 186.936 625.401 187.393 624.385 187.393C623.944 187.393 623.589 187.292 623.318 187.089C623.047 186.885 622.861 186.682 622.759 186.479C622.657 186.276 622.623 186.106 622.657 185.971C622.657 185.531 623.301 182.77 624.588 177.69C625.875 172.61 626.552 169.85 626.62 169.409C626.654 169.24 626.671 168.851 626.671 168.241C626.671 166.92 626.264 166.26 625.451 166.26C624.164 166.26 623.098 167.953 622.251 171.34C622.048 172.017 621.946 172.373 621.946 172.407C621.878 172.61 621.557 172.712 620.981 172.712H620.27C620.066 172.508 619.965 172.356 619.965 172.254Z" fill="white"/>
</g>
</g>
<g id="Group 218">
<g id="Group_37">
<path id="Vector_42" d="M371.997 235.04C371.083 235.04 370.355 234.736 369.813 234.126C369.271 233.516 369 232.771 369 231.891C369 229.486 369.898 227.403 371.693 225.642C373.488 223.881 375.723 223 378.398 223C381.48 223 384.054 223.949 386.12 225.845C388.186 227.742 389.236 230.197 389.27 233.211C389.27 234.668 388.931 236.056 388.254 237.377C387.577 238.698 386.764 239.85 385.816 240.832C384.867 241.814 383.512 243.067 381.751 244.591C380.532 245.641 378.839 247.199 376.671 249.265L373.674 252.11L377.535 252.161C382.852 252.161 385.68 252.076 386.019 251.907C386.256 251.839 386.662 250.332 387.238 247.385V247.233H389.27V247.385C389.236 247.487 389.016 249.028 388.61 252.008C388.203 254.989 387.949 256.547 387.848 256.682V256.834H369V255.869V255.26C369 255.023 369.102 254.769 369.305 254.498C369.508 254.227 370.016 253.634 370.829 252.719C371.811 251.636 372.658 250.687 373.369 249.875C373.674 249.536 374.25 248.909 375.096 247.995C375.943 247.08 376.519 246.454 376.824 246.115C377.128 245.777 377.619 245.218 378.297 244.439C378.974 243.66 379.448 243.084 379.719 242.711C379.99 242.339 380.38 241.831 380.888 241.187C381.396 240.544 381.751 240.002 381.955 239.562C382.158 239.121 382.412 238.63 382.717 238.088C383.021 237.547 383.242 237.005 383.377 236.463C383.512 235.921 383.631 235.413 383.733 234.939C383.834 234.465 383.885 233.906 383.885 233.262C383.885 231.129 383.309 229.283 382.158 227.725C381.006 226.167 379.364 225.388 377.23 225.388C376.112 225.388 375.13 225.676 374.283 226.252C373.437 226.827 372.844 227.386 372.505 227.928C372.167 228.47 371.997 228.792 371.997 228.893C371.997 228.927 372.082 228.944 372.251 228.944C372.861 228.944 373.488 229.181 374.131 229.655C374.775 230.129 375.096 230.908 375.096 231.992C375.096 232.839 374.825 233.55 374.283 234.126C373.742 234.702 372.98 235.006 371.997 235.04Z" fill="white"/>
</g>
<g id="Group_38">
<path id="Vector_43" d="M392.928 242.255C392.962 242.051 393.012 241.78 393.08 241.442C393.148 241.103 393.351 240.46 393.69 239.511C394.028 238.563 394.367 237.767 394.706 237.124C395.044 236.48 395.603 235.853 396.382 235.244C397.161 234.634 397.94 234.346 398.719 234.38C399.938 234.38 400.954 234.685 401.767 235.295C402.58 235.904 403.088 236.48 403.291 237.022C403.495 237.564 403.596 237.919 403.596 238.089C403.596 238.156 403.613 238.19 403.647 238.19L404.206 237.632C406.272 235.464 408.626 234.38 411.267 234.38C413.096 234.38 414.569 234.837 415.687 235.752C416.805 236.666 417.38 238.004 417.414 239.765C417.448 241.526 416.805 244.185 415.484 247.741C414.163 251.297 413.52 253.448 413.553 254.193C413.553 255.074 413.841 255.514 414.417 255.514C414.62 255.514 414.773 255.497 414.874 255.463C415.856 255.294 416.737 254.65 417.516 253.533C418.295 252.415 418.888 251.06 419.294 249.468C419.362 249.197 419.7 249.062 420.31 249.062C420.987 249.062 421.326 249.197 421.326 249.468C421.326 249.502 421.258 249.756 421.123 250.23C420.852 251.213 420.479 252.178 420.005 253.126C419.531 254.074 418.752 255.023 417.668 255.971C416.585 256.919 415.416 257.377 414.163 257.343C412.571 257.343 411.42 256.886 410.708 255.971C409.997 255.057 409.642 254.108 409.642 253.126C409.642 252.483 410.251 250.451 411.471 247.03C412.69 243.609 413.316 241.035 413.35 239.308C413.35 237.31 412.605 236.311 411.115 236.311H410.861C407.948 236.311 405.493 238.021 403.495 241.442L403.139 242.051L401.462 248.859C400.345 253.296 399.701 255.683 399.532 256.022C399.092 256.936 398.364 257.394 397.348 257.394C396.907 257.394 396.552 257.292 396.281 257.089C396.01 256.886 395.823 256.682 395.722 256.479C395.62 256.276 395.586 256.107 395.62 255.971C395.62 255.531 396.264 252.771 397.551 247.69C398.838 242.61 399.515 239.85 399.583 239.41C399.617 239.24 399.634 238.851 399.634 238.241C399.634 236.92 399.227 236.26 398.414 236.26C397.127 236.26 396.061 237.953 395.214 241.34C395.011 242.017 394.909 242.373 394.909 242.407C394.841 242.61 394.52 242.712 393.944 242.712H393.233C393.029 242.509 392.928 242.356 392.928 242.255Z" fill="white"/>
</g>
<g id="Group_39">
<path id="Vector_44" d="M439.299 239.206C439.299 238.766 439.536 238.427 440.011 238.19H472.372C472.88 238.461 473.134 238.8 473.134 239.206C473.134 239.579 472.896 239.9 472.422 240.171L456.267 240.222H440.112C439.57 240.053 439.299 239.714 439.299 239.206ZM439.299 249.062C439.299 248.554 439.57 248.215 440.112 248.046H472.422C472.896 248.384 473.134 248.723 473.134 249.062C473.134 249.502 472.88 249.841 472.372 250.078H440.011C439.536 249.841 439.299 249.502 439.299 249.062Z" fill="white"/>
</g>
<g id="Group_40">
<path id="Vector_45" d="M500.912 227.471L500.252 227.725C499.778 227.894 499.1 228.064 498.22 228.233C497.339 228.402 496.357 228.521 495.273 228.588H494.308V226.252H495.273C496.865 226.184 498.338 225.93 499.693 225.49C501.048 225.049 501.996 224.643 502.538 224.27C503.08 223.898 503.554 223.525 503.961 223.153C504.028 223.051 504.231 223 504.57 223C504.875 223 505.163 223.102 505.434 223.305V238.495L505.485 253.736C505.722 253.973 505.925 254.125 506.094 254.193C506.264 254.26 506.67 254.328 507.313 254.396C507.957 254.464 509.007 254.498 510.463 254.498H511.784V256.834H511.225C510.514 256.733 507.821 256.682 503.148 256.682C498.542 256.682 495.883 256.733 495.172 256.834H494.562V254.498H495.883C496.628 254.498 497.272 254.498 497.813 254.498C498.355 254.498 498.779 254.481 499.084 254.447C499.388 254.413 499.659 254.362 499.896 254.294C500.133 254.227 500.269 254.193 500.303 254.193C500.337 254.193 500.438 254.108 500.608 253.939C500.777 253.769 500.879 253.702 500.912 253.736V227.471Z" fill="white"/>
<path id="Vector_46" d="M533.376 242.254C531.75 244.828 529.718 246.115 527.279 246.115C524.638 246.115 522.47 245.116 520.777 243.118C519.083 241.119 518.067 238.986 517.729 236.717C517.661 236.175 517.627 235.497 517.627 234.685V234.278C517.627 231.128 518.795 228.385 521.132 226.048C523.164 224.016 525.4 223 527.838 223C527.906 223 528.008 223 528.143 223C528.278 223 528.414 223.017 528.549 223.051H528.753C529.159 223.051 529.582 223.085 530.023 223.152C530.463 223.22 531.09 223.423 531.902 223.762C532.715 224.101 533.511 224.643 534.29 225.388C535.069 226.133 535.797 227.132 536.475 228.385C537.931 231.365 538.659 235.193 538.659 239.866C538.659 244.608 537.643 248.621 535.611 251.906C534.426 253.803 533.003 255.276 531.344 256.326C529.684 257.376 527.923 257.918 526.06 257.952C523.994 257.952 522.301 257.461 520.98 256.479C519.659 255.496 518.982 254.04 518.948 252.11C518.914 250.179 519.811 249.231 521.64 249.265C522.385 249.265 523.012 249.502 523.52 249.976C524.028 250.45 524.282 251.111 524.282 251.957C524.282 252.567 524.13 253.092 523.825 253.532C523.52 253.972 523.249 254.243 523.012 254.345C522.775 254.447 522.555 254.531 522.352 254.599L522.148 254.65C522.148 254.718 522.267 254.819 522.504 254.955C522.741 255.09 523.181 255.259 523.825 255.463C524.468 255.666 525.18 255.75 525.959 255.717H526.263C528.295 255.717 530.006 254.633 531.394 252.465C532.715 250.569 533.376 247.283 533.376 242.61V242.254ZM527.889 244.235C529.515 244.235 530.819 243.406 531.801 241.746C532.783 240.086 533.291 237.834 533.325 234.989C533.325 232.348 533.189 230.451 532.918 229.299C532.851 228.961 532.749 228.622 532.614 228.283C532.478 227.945 532.241 227.504 531.902 226.963C531.564 226.421 531.056 225.963 530.378 225.591C529.701 225.218 528.905 225.049 527.991 225.083C526.704 225.083 525.603 225.54 524.688 226.455C523.977 227.2 523.52 228.08 523.317 229.096C523.114 230.112 522.995 231.89 522.961 234.431C522.961 237.242 523.046 239.138 523.215 240.12C523.385 241.103 523.723 241.898 524.231 242.508C525.078 243.66 526.297 244.235 527.889 244.235Z" fill="white"/>
<path id="Vector_47" d="M545.77 227.115C547.667 224.372 550.258 223 553.543 223C555.169 223 556.794 223.44 558.42 224.321C560.046 225.201 561.366 226.759 562.383 228.995C563.636 231.806 564.262 235.667 564.262 240.578C564.262 245.827 563.534 249.84 562.078 252.618C561.4 254.04 560.469 255.175 559.284 256.021C558.098 256.868 557.065 257.393 556.185 257.596C555.304 257.799 554.44 257.918 553.594 257.952C552.713 257.952 551.833 257.85 550.952 257.647C550.071 257.444 549.039 256.902 547.853 256.021C546.668 255.141 545.736 254.006 545.059 252.618C543.603 249.84 542.875 245.827 542.875 240.578C542.875 234.685 543.84 230.197 545.77 227.115ZM557.201 226.505C556.185 225.422 554.982 224.88 553.594 224.88C552.171 224.88 550.952 225.422 549.936 226.505C549.089 227.386 548.53 228.605 548.26 230.163C547.989 231.721 547.853 234.972 547.853 239.917C547.853 245.268 547.989 248.791 548.26 250.484C548.53 252.177 549.14 253.515 550.088 254.497C551.037 255.513 552.205 256.021 553.594 256.021C554.948 256.021 556.1 255.513 557.048 254.497C558.03 253.481 558.64 252.059 558.877 250.23C559.114 248.401 559.25 244.963 559.284 239.917C559.284 235.006 559.148 231.772 558.877 230.214C558.606 228.656 558.047 227.42 557.201 226.505Z" fill="white"/>
</g>
</g>
<g id="Group 220">
<g id="Group_41">
<path id="Vector_48" d="M381.65 291.955C381.65 291.074 381.955 290.346 382.564 289.77C383.174 289.195 383.902 288.907 384.749 288.907C385.561 288.907 386.256 289.195 386.832 289.77C387.407 290.346 387.712 291.074 387.746 291.955C387.78 292.835 387.492 293.564 386.882 294.139C386.273 294.715 385.545 295.003 384.698 295.003C383.817 295.003 383.089 294.715 382.513 294.139C381.938 293.564 381.65 292.835 381.65 291.955ZM372.048 310.904C372.929 310.904 373.64 311.192 374.182 311.768C374.724 312.343 375.012 313.072 375.045 313.952C375.045 314.765 374.775 315.476 374.233 316.086C373.691 316.695 372.946 317 371.997 317C371.117 317 370.406 316.712 369.864 316.137C369.322 315.561 369.034 314.833 369 313.952C369 313.072 369.288 312.343 369.864 311.768C370.439 311.192 371.168 310.904 372.048 310.904ZM394.401 313.952C394.401 313.072 394.689 312.343 395.265 311.768C395.84 311.192 396.569 310.904 397.449 310.904C398.262 310.904 398.956 311.192 399.532 311.768C400.108 312.343 400.413 313.072 400.447 313.952C400.447 314.731 400.176 315.425 399.634 316.035C399.092 316.645 398.347 316.966 397.398 317C396.518 317 395.807 316.712 395.265 316.137C394.723 315.561 394.435 314.833 394.401 313.952Z" fill="white"/>
</g>
<g id="Group_42">
<path id="Vector_49" d="M416.84 298.255C416.874 298.051 416.925 297.78 416.993 297.442C417.06 297.103 417.264 296.46 417.602 295.511C417.941 294.563 418.28 293.767 418.618 293.124C418.957 292.48 419.516 291.853 420.295 291.244C421.074 290.634 421.853 290.346 422.632 290.38C423.851 290.38 424.867 290.685 425.68 291.295C426.493 291.904 427.001 292.48 427.204 293.022C427.407 293.564 427.509 293.919 427.509 294.089C427.509 294.156 427.526 294.19 427.56 294.19L428.118 293.632C430.184 291.464 432.538 290.38 435.18 290.38C437.009 290.38 438.482 290.837 439.6 291.752C440.717 292.666 441.293 294.004 441.327 295.765C441.361 297.526 440.717 300.185 439.396 303.741C438.076 307.297 437.432 309.448 437.466 310.193C437.466 311.074 437.754 311.514 438.33 311.514C438.533 311.514 438.685 311.497 438.787 311.463C439.769 311.294 440.65 310.65 441.429 309.533C442.208 308.415 442.8 307.06 443.207 305.468C443.274 305.197 443.613 305.062 444.223 305.062C444.9 305.062 445.239 305.197 445.239 305.468C445.239 305.502 445.171 305.756 445.036 306.23C444.765 307.213 444.392 308.178 443.918 309.126C443.444 310.074 442.665 311.023 441.581 311.971C440.497 312.919 439.329 313.377 438.076 313.343C436.484 313.343 435.332 312.886 434.621 311.971C433.91 311.057 433.554 310.108 433.554 309.126C433.554 308.483 434.164 306.451 435.383 303.03C436.602 299.609 437.229 297.035 437.263 295.308C437.263 293.31 436.518 292.311 435.027 292.311H434.773C431.861 292.311 429.405 294.021 427.407 297.442L427.052 298.051L425.375 304.859C424.257 309.296 423.614 311.683 423.445 312.022C423.004 312.936 422.276 313.394 421.26 313.394C420.82 313.394 420.464 313.292 420.193 313.089C419.922 312.886 419.736 312.682 419.634 312.479C419.533 312.276 419.499 312.107 419.533 311.971C419.533 311.531 420.176 308.771 421.463 303.69C422.75 298.61 423.428 295.85 423.495 295.41C423.529 295.24 423.546 294.851 423.546 294.241C423.546 292.92 423.14 292.26 422.327 292.26C421.04 292.26 419.973 293.953 419.126 297.34C418.923 298.017 418.822 298.373 418.822 298.407C418.754 298.61 418.432 298.712 417.856 298.712H417.145C416.942 298.509 416.84 298.356 416.84 298.255Z" fill="white"/>
</g>
<g id="Group_43">
<path id="Vector_50" d="M463.212 295.206C463.212 294.766 463.449 294.427 463.923 294.19H496.284C496.792 294.461 497.046 294.8 497.046 295.206C497.046 295.579 496.809 295.9 496.335 296.171L480.18 296.222H464.025C463.483 296.053 463.212 295.714 463.212 295.206ZM463.212 305.062C463.212 304.554 463.483 304.215 464.025 304.046H496.335C496.809 304.384 497.046 304.723 497.046 305.062C497.046 305.502 496.792 305.841 496.284 306.078H463.923C463.449 305.841 463.212 305.502 463.212 305.062Z" fill="white"/>
</g>
<g id="Group_44">
<path id="Vector_51" d="M531.888 298.254C530.262 300.828 528.23 302.115 525.792 302.115C523.15 302.115 520.982 301.116 519.289 299.118C517.595 297.119 516.579 294.986 516.241 292.717C516.173 292.175 516.139 291.497 516.139 290.685V290.278C516.139 287.128 517.308 284.385 519.645 282.048C521.677 280.016 523.912 279 526.35 279C526.418 279 526.52 279 526.655 279C526.791 279 526.926 279.017 527.062 279.051H527.265C527.671 279.051 528.095 279.085 528.535 279.152C528.975 279.22 529.602 279.423 530.415 279.762C531.227 280.101 532.023 280.643 532.802 281.388C533.581 282.133 534.309 283.132 534.987 284.385C536.443 287.365 537.171 291.193 537.171 295.866C537.171 300.608 536.155 304.621 534.123 307.906C532.938 309.803 531.515 311.276 529.856 312.326C528.196 313.376 526.435 313.918 524.572 313.952C522.506 313.952 520.813 313.461 519.492 312.479C518.171 311.496 517.494 310.04 517.46 308.11C517.426 306.179 518.324 305.231 520.153 305.265C520.898 305.265 521.524 305.502 522.032 305.976C522.54 306.45 522.794 307.111 522.794 307.957C522.794 308.567 522.642 309.092 522.337 309.532C522.032 309.972 521.761 310.243 521.524 310.345C521.287 310.447 521.067 310.531 520.864 310.599L520.661 310.65C520.661 310.718 520.779 310.819 521.016 310.955C521.253 311.09 521.694 311.259 522.337 311.463C522.981 311.666 523.692 311.75 524.471 311.717H524.776C526.808 311.717 528.518 310.633 529.907 308.465C531.227 306.569 531.888 303.283 531.888 298.61V298.254ZM526.401 300.235C528.027 300.235 529.331 299.406 530.313 297.746C531.295 296.086 531.803 293.834 531.837 290.989C531.837 288.348 531.702 286.451 531.431 285.299C531.363 284.961 531.261 284.622 531.126 284.283C530.99 283.945 530.753 283.504 530.415 282.963C530.076 282.421 529.568 281.963 528.89 281.591C528.213 281.218 527.417 281.049 526.503 281.083C525.216 281.083 524.115 281.54 523.201 282.455C522.489 283.2 522.032 284.08 521.829 285.096C521.626 286.112 521.507 287.89 521.473 290.431C521.473 293.242 521.558 295.138 521.727 296.12C521.897 297.103 522.235 297.898 522.743 298.508C523.59 299.66 524.809 300.235 526.401 300.235Z" fill="white"/>
<path id="Vector_52" d="M547.737 304.858C547.737 305.671 547.466 306.349 546.924 306.89C546.383 307.432 545.722 307.703 544.943 307.703H544.588C546.145 310.379 548.211 311.717 550.785 311.717C553.156 311.717 554.883 310.701 555.967 308.668C556.611 307.551 556.932 305.383 556.932 302.166C556.932 298.677 556.475 296.324 555.561 295.104C554.68 293.987 553.698 293.428 552.614 293.428H552.309C549.668 293.428 547.67 294.579 546.315 296.882C546.179 297.119 546.061 297.255 545.959 297.289C545.858 297.323 545.604 297.357 545.197 297.39C544.621 297.39 544.3 297.289 544.232 297.086C544.164 296.95 544.13 293.987 544.13 288.195V281.642C544.13 279.948 544.215 279.102 544.384 279.102C544.452 279.034 544.52 279 544.588 279C544.621 279 544.977 279.136 545.654 279.406C546.332 279.677 547.263 279.948 548.448 280.219C549.634 280.49 550.904 280.626 552.259 280.626C554.663 280.626 556.966 280.152 559.168 279.203C559.439 279.068 559.659 279 559.828 279C560.099 279 560.235 279.305 560.235 279.914V280.575C557.457 283.86 553.986 285.503 549.82 285.503C548.77 285.503 547.822 285.401 546.975 285.198L546.467 285.096V293.834C547.111 293.36 547.619 292.988 547.991 292.717C548.364 292.446 548.973 292.175 549.82 291.904C550.667 291.633 551.53 291.497 552.411 291.497C555.154 291.497 557.474 292.598 559.371 294.799C561.268 297.001 562.216 299.609 562.216 302.623C562.216 305.739 561.132 308.398 558.965 310.599C556.797 312.8 554.155 313.918 551.039 313.952C548.296 313.952 546.095 313.037 544.435 311.209C542.776 309.38 541.946 307.314 541.946 305.011C541.946 304.198 542.132 303.554 542.505 303.08C542.877 302.606 543.267 302.301 543.673 302.166C544.079 302.03 544.469 301.963 544.842 301.963C545.688 301.963 546.383 302.25 546.924 302.826C547.466 303.402 547.737 304.079 547.737 304.858Z" fill="white"/>
</g>
</g>
</g>
</g>
</g>
</svg>
