<svg viewBox="0 0 995 405" fill="none" xmlns="http://www.w3.org/2000/svg">
<g id="0120127">
<g id="claves01">
<path id="Rectangle 4" d="M59 215H275.745L309 255L275.745 295H59V215Z" fill="#E8A1EE" fill-opacity="0.1"/>
<path id="Rectangle 4 (Stroke)" fill-rule="evenodd" clip-rule="evenodd" d="M274.338 218H62V292H274.338L305.099 255L274.338 218ZM275.745 215H59V295H275.745L309 255L275.745 215Z" fill="#E8A1EE"/>
<path id="Rectangle 5" d="M63 325H279.745L313 365L279.745 405H63V325Z" fill="#E8A1EE" fill-opacity="0.1"/>
<path id="Rectangle 5 (Stroke)" fill-rule="evenodd" clip-rule="evenodd" d="M278.338 328H66V402H278.338L309.099 365L278.338 328ZM279.745 325H63V405H279.745L313 365L279.745 325Z" fill="#E8A1EE"/>
<path id="Rectangle 6" d="M399 212H615.745L649 252L615.745 292H399V212Z" fill="#E8A1EE" fill-opacity="0.1"/>
<path id="Rectangle 6 (Stroke)" fill-rule="evenodd" clip-rule="evenodd" d="M614.338 215H402V289H614.338L645.099 252L614.338 215ZM615.745 212H399V292H615.745L649 252L615.745 212Z" fill="#E8A1EE"/>
<path id="Rectangle 7" d="M402 322H618.745L652 362L618.745 402H402V322Z" fill="#E8A1EE" fill-opacity="0.1"/>
<path id="Rectangle 7 (Stroke)" fill-rule="evenodd" clip-rule="evenodd" d="M617.338 325H405V399H617.338L648.099 362L617.338 325ZM618.745 322H402V402H618.745L652 362L618.745 322Z" fill="#E8A1EE"/>
<path id="Rectangle 8" d="M745 271H961.745L995 311L961.745 351H745V271Z" fill="#E8A1EE" fill-opacity="0.1"/>
<path id="Rectangle 8 (Stroke)" fill-rule="evenodd" clip-rule="evenodd" d="M960.338 274H748V348H960.338L991.099 311L960.338 274ZM961.745 271H745V351H961.745L995 311L961.745 271Z" fill="#E8A1EE"/>
<path id="Ellipse 1" d="M100 255C100 277.091 82.0914 295 60 295C37.9086 295 20 277.091 20 255C20 232.909 37.9086 215 60 215C82.0914 215 100 232.909 100 255Z" fill="#E8A1EE"/>
<path id="Ellipse 2" d="M104 365C104 387.091 86.0914 405 64 405C41.9086 405 24 387.091 24 365C24 342.909 41.9086 325 64 325C86.0914 325 104 342.909 104 365Z" fill="#E8A1EE"/>
<path id="Ellipse 3" d="M440 252C440 274.091 422.091 292 400 292C377.909 292 360 274.091 360 252C360 229.909 377.909 212 400 212C422.091 212 440 229.909 440 252Z" fill="#E8A1EE"/>
<path id="Ellipse 4" d="M443 362C443 384.091 425.091 402 403 402C380.909 402 363 384.091 363 362C363 339.909 380.909 322 403 322C425.091 322 443 339.909 443 362Z" fill="#E8A1EE"/>
<path id="Ellipse 5" d="M786 311C786 333.091 768.091 351 746 351C723.909 351 706 333.091 706 311C706 288.909 723.909 271 746 271C768.091 271 786 288.909 786 311Z" fill="#E8A1EE"/>
<path id="A" d="M68.0938 265.406H50.4688L46.7812 276H38.5625L55.75 230.5H62.8438L80.0625 276H71.8125L68.0938 265.406ZM52.6875 259.031H65.875L59.2812 240.156L52.6875 259.031Z" fill="white"/>
<path id="B" d="M47.625 381V335.5H63.2188C68.3646 335.5 72.2812 336.531 74.9688 338.594C77.6562 340.656 79 343.729 79 347.812C79 349.896 78.4375 351.771 77.3125 353.438C76.1875 355.104 74.5417 356.396 72.375 357.312C74.8333 357.979 76.7292 359.24 78.0625 361.094C79.4167 362.927 80.0938 365.135 80.0938 367.719C80.0938 371.99 78.7188 375.271 75.9688 377.562C73.2396 379.854 69.3229 381 64.2188 381H47.625ZM55.5312 360.469V374.688H64.3125C66.7917 374.688 68.7292 374.073 70.125 372.844C71.5208 371.615 72.2188 369.906 72.2188 367.719C72.2188 362.99 69.8021 360.573 64.9688 360.469H55.5312ZM55.5312 354.656H63.2812C65.7396 354.656 67.6562 354.104 69.0312 353C70.4271 351.875 71.125 350.292 71.125 348.25C71.125 346 70.4792 344.375 69.1875 343.375C67.9167 342.375 65.9271 341.875 63.2188 341.875H55.5312V354.656Z" fill="white"/>
<path id="C" d="M417.344 259.188C416.885 264.042 415.094 267.833 411.969 270.562C408.844 273.271 404.688 274.625 399.5 274.625C395.875 274.625 392.677 273.771 389.906 272.062C387.156 270.333 385.031 267.885 383.531 264.719C382.031 261.552 381.25 257.875 381.188 253.688V249.438C381.188 245.146 381.948 241.365 383.469 238.094C384.99 234.823 387.167 232.302 390 230.531C392.854 228.76 396.146 227.875 399.875 227.875C404.896 227.875 408.938 229.24 412 231.969C415.062 234.698 416.844 238.552 417.344 243.531H409.469C409.094 240.26 408.135 237.906 406.594 236.469C405.073 235.01 402.833 234.281 399.875 234.281C396.438 234.281 393.792 235.542 391.938 238.062C390.104 240.562 389.167 244.24 389.125 249.094V253.125C389.125 258.042 390 261.792 391.75 264.375C393.521 266.958 396.104 268.25 399.5 268.25C402.604 268.25 404.938 267.552 406.5 266.156C408.062 264.76 409.052 262.438 409.469 259.188H417.344Z" fill="white"/>
<path id="D" d="M385.625 384V338.5H399.062C403.083 338.5 406.646 339.396 409.75 341.188C412.875 342.979 415.292 345.521 417 348.812C418.708 352.104 419.562 355.875 419.562 360.125V362.406C419.562 366.719 418.698 370.51 416.969 373.781C415.26 377.052 412.812 379.573 409.625 381.344C406.458 383.115 402.823 384 398.719 384H385.625ZM393.531 344.875V377.688H398.688C402.833 377.688 406.01 376.396 408.219 373.812C410.448 371.208 411.583 367.479 411.625 362.625V360.094C411.625 355.156 410.552 351.385 408.406 348.781C406.26 346.177 403.146 344.875 399.062 344.875H393.531Z" fill="white"/>
<path id="E" d="M755.219 312.688H736.531V326.688H758.375V333H728.625V287.5H758.156V293.875H736.531V306.438H755.219V312.688Z" fill="white"/>
<g id="100">
<path d="M165.086 275H160.727V246.102L151.984 249.312V245.375L164.406 240.711H165.086V275Z" fill="#E8A1EE"/>
<path d="M199.188 260.445C199.188 265.523 198.32 269.297 196.586 271.766C194.852 274.234 192.141 275.469 188.453 275.469C184.812 275.469 182.117 274.266 180.367 271.859C178.617 269.438 177.711 265.828 177.648 261.031V255.242C177.648 250.227 178.516 246.5 180.25 244.062C181.984 241.625 184.703 240.406 188.406 240.406C192.078 240.406 194.781 241.586 196.516 243.945C198.25 246.289 199.141 249.914 199.188 254.82V260.445ZM194.852 254.516C194.852 250.844 194.336 248.172 193.305 246.5C192.273 244.812 190.641 243.969 188.406 243.969C186.188 243.969 184.57 244.805 183.555 246.477C182.539 248.148 182.016 250.719 181.984 254.188V261.125C181.984 264.812 182.516 267.539 183.578 269.305C184.656 271.055 186.281 271.93 188.453 271.93C190.594 271.93 192.18 271.102 193.211 269.445C194.258 267.789 194.805 265.18 194.852 261.617V254.516Z" fill="#E8A1EE"/>
<path d="M226.141 260.445C226.141 265.523 225.273 269.297 223.539 271.766C221.805 274.234 219.094 275.469 215.406 275.469C211.766 275.469 209.07 274.266 207.32 271.859C205.57 269.438 204.664 265.828 204.602 261.031V255.242C204.602 250.227 205.469 246.5 207.203 244.062C208.938 241.625 211.656 240.406 215.359 240.406C219.031 240.406 221.734 241.586 223.469 243.945C225.203 246.289 226.094 249.914 226.141 254.82V260.445ZM221.805 254.516C221.805 250.844 221.289 248.172 220.258 246.5C219.227 244.812 217.594 243.969 215.359 243.969C213.141 243.969 211.523 244.805 210.508 246.477C209.492 248.148 208.969 250.719 208.938 254.188V261.125C208.938 264.812 209.469 267.539 210.531 269.305C211.609 271.055 213.234 271.93 215.406 271.93C217.547 271.93 219.133 271.102 220.164 269.445C221.211 267.789 221.758 265.18 221.805 261.617V254.516Z" fill="#E8A1EE"/>
</g>
<g id="200">
<path d="M513.195 267H490.836V263.883L502.648 250.758C504.398 248.773 505.602 247.164 506.258 245.93C506.93 244.68 507.266 243.391 507.266 242.062C507.266 240.281 506.727 238.82 505.648 237.68C504.57 236.539 503.133 235.969 501.336 235.969C499.18 235.969 497.5 236.586 496.297 237.82C495.109 239.039 494.516 240.742 494.516 242.93H490.18C490.18 239.789 491.188 237.25 493.203 235.312C495.234 233.375 497.945 232.406 501.336 232.406C504.508 232.406 507.016 233.242 508.859 234.914C510.703 236.57 511.625 238.781 511.625 241.547C511.625 244.906 509.484 248.906 505.203 253.547L496.062 263.461H513.195V267Z" fill="#E8A1EE"/>
<path d="M539.188 252.445C539.188 257.523 538.32 261.297 536.586 263.766C534.852 266.234 532.141 267.469 528.453 267.469C524.812 267.469 522.117 266.266 520.367 263.859C518.617 261.438 517.711 257.828 517.648 253.031V247.242C517.648 242.227 518.516 238.5 520.25 236.062C521.984 233.625 524.703 232.406 528.406 232.406C532.078 232.406 534.781 233.586 536.516 235.945C538.25 238.289 539.141 241.914 539.188 246.82V252.445ZM534.852 246.516C534.852 242.844 534.336 240.172 533.305 238.5C532.273 236.812 530.641 235.969 528.406 235.969C526.188 235.969 524.57 236.805 523.555 238.477C522.539 240.148 522.016 242.719 521.984 246.188V253.125C521.984 256.812 522.516 259.539 523.578 261.305C524.656 263.055 526.281 263.93 528.453 263.93C530.594 263.93 532.18 263.102 533.211 261.445C534.258 259.789 534.805 257.18 534.852 253.617V246.516Z" fill="#E8A1EE"/>
<path d="M566.141 252.445C566.141 257.523 565.273 261.297 563.539 263.766C561.805 266.234 559.094 267.469 555.406 267.469C551.766 267.469 549.07 266.266 547.32 263.859C545.57 261.438 544.664 257.828 544.602 253.031V247.242C544.602 242.227 545.469 238.5 547.203 236.062C548.938 233.625 551.656 232.406 555.359 232.406C559.031 232.406 561.734 233.586 563.469 235.945C565.203 238.289 566.094 241.914 566.141 246.82V252.445ZM561.805 246.516C561.805 242.844 561.289 240.172 560.258 238.5C559.227 236.812 557.594 235.969 555.359 235.969C553.141 235.969 551.523 236.805 550.508 238.477C549.492 240.148 548.969 242.719 548.938 246.188V253.125C548.938 256.812 549.469 259.539 550.531 261.305C551.609 263.055 553.234 263.93 555.406 263.93C557.547 263.93 559.133 263.102 560.164 261.445C561.211 259.789 561.758 257.18 561.805 253.617V246.516Z" fill="#E8A1EE"/>
</g>
<g id="110">
<path d="M505.086 378H500.727V349.102L491.984 352.312V348.375L504.406 343.711H505.086V378Z" fill="#E8A1EE"/>
<path d="M532.039 378H527.68V349.102L518.938 352.312V348.375L531.359 343.711H532.039V378Z" fill="#E8A1EE"/>
<path d="M566.141 363.445C566.141 368.523 565.273 372.297 563.539 374.766C561.805 377.234 559.094 378.469 555.406 378.469C551.766 378.469 549.07 377.266 547.32 374.859C545.57 372.438 544.664 368.828 544.602 364.031V358.242C544.602 353.227 545.469 349.5 547.203 347.062C548.938 344.625 551.656 343.406 555.359 343.406C559.031 343.406 561.734 344.586 563.469 346.945C565.203 349.289 566.094 352.914 566.141 357.82V363.445ZM561.805 357.516C561.805 353.844 561.289 351.172 560.258 349.5C559.227 347.812 557.594 346.969 555.359 346.969C553.141 346.969 551.523 347.805 550.508 349.477C549.492 351.148 548.969 353.719 548.938 357.188V364.125C548.938 367.812 549.469 370.539 550.531 372.305C551.609 374.055 553.234 374.93 555.406 374.93C557.547 374.93 559.133 374.102 560.164 372.445C561.211 370.789 561.758 368.18 561.805 364.617V357.516Z" fill="#E8A1EE"/>
</g>
<g id="140">
<path d="M851.086 327H846.727V298.102L837.984 301.312V297.375L850.406 292.711H851.086V327Z" fill="#E8A1EE"/>
<path d="M882.094 315.539H886.828V319.078H882.094V327H877.734V319.078H862.195V316.523L877.477 292.875H882.094V315.539ZM867.117 315.539H877.734V298.805L877.219 299.742L867.117 315.539Z" fill="#E8A1EE"/>
<path d="M912.141 312.445C912.141 317.523 911.273 321.297 909.539 323.766C907.805 326.234 905.094 327.469 901.406 327.469C897.766 327.469 895.07 326.266 893.32 323.859C891.57 321.438 890.664 317.828 890.602 313.031V307.242C890.602 302.227 891.469 298.5 893.203 296.062C894.938 293.625 897.656 292.406 901.359 292.406C905.031 292.406 907.734 293.586 909.469 295.945C911.203 298.289 912.094 301.914 912.141 306.82V312.445ZM907.805 306.516C907.805 302.844 907.289 300.172 906.258 298.5C905.227 296.812 903.594 295.969 901.359 295.969C899.141 295.969 897.523 296.805 896.508 298.477C895.492 300.148 894.969 302.719 894.938 306.188V313.125C894.938 316.812 895.469 319.539 896.531 321.305C897.609 323.055 899.234 323.93 901.406 323.93C903.547 323.93 905.133 323.102 906.164 321.445C907.211 319.789 907.758 317.18 907.805 313.617V306.516Z" fill="#E8A1EE"/>
</g>
<g id="160">
<path d="M174.086 382H169.727V353.102L160.984 356.312V352.375L173.406 347.711H174.086V382Z" fill="#E8A1EE"/>
<path d="M203.805 347.852V351.531H203.008C199.633 351.594 196.945 352.594 194.945 354.531C192.945 356.469 191.789 359.195 191.477 362.711C193.273 360.648 195.727 359.617 198.836 359.617C201.805 359.617 204.172 360.664 205.938 362.758C207.719 364.852 208.609 367.555 208.609 370.867C208.609 374.383 207.648 377.195 205.727 379.305C203.82 381.414 201.258 382.469 198.039 382.469C194.773 382.469 192.125 381.219 190.094 378.719C188.062 376.203 187.047 372.969 187.047 369.016V367.352C187.047 361.07 188.383 356.273 191.055 352.961C193.742 349.633 197.734 347.93 203.031 347.852H203.805ZM198.109 363.227C196.625 363.227 195.258 363.672 194.008 364.562C192.758 365.453 191.891 366.57 191.406 367.914V369.508C191.406 372.32 192.039 374.586 193.305 376.305C194.57 378.023 196.148 378.883 198.039 378.883C199.992 378.883 201.523 378.164 202.633 376.727C203.758 375.289 204.32 373.406 204.32 371.078C204.32 368.734 203.75 366.844 202.609 365.406C201.484 363.953 199.984 363.227 198.109 363.227Z" fill="#E8A1EE"/>
<path d="M235.141 367.445C235.141 372.523 234.273 376.297 232.539 378.766C230.805 381.234 228.094 382.469 224.406 382.469C220.766 382.469 218.07 381.266 216.32 378.859C214.57 376.438 213.664 372.828 213.602 368.031V362.242C213.602 357.227 214.469 353.5 216.203 351.062C217.938 348.625 220.656 347.406 224.359 347.406C228.031 347.406 230.734 348.586 232.469 350.945C234.203 353.289 235.094 356.914 235.141 361.82V367.445ZM230.805 361.516C230.805 357.844 230.289 355.172 229.258 353.5C228.227 351.812 226.594 350.969 224.359 350.969C222.141 350.969 220.523 351.805 219.508 353.477C218.492 355.148 217.969 357.719 217.938 361.188V368.125C217.938 371.812 218.469 374.539 219.531 376.305C220.609 378.055 222.234 378.93 224.406 378.93C226.547 378.93 228.133 378.102 229.164 376.445C230.211 374.789 230.758 372.18 230.805 368.617V361.516Z" fill="#E8A1EE"/>
</g>
<g id="flecha">
<path id="Rectangle 2" d="M410.2 213.008L425.482 221.133L383.5 300.089L368.219 291.963L410.2 213.008Z" fill="#1043F5"/>
<path id="Rectangle 1" d="M352 225.904L442 176V233.692L397 216.096L352 225.904Z" fill="#1043F5"/>
<path id="Rectangle 3" d="M356.038 295.21L371.665 268.143L388.936 267.565L373.309 294.632L356.038 295.21Z" fill="#1043F5"/>
<path id="Rectangle 4_2" d="M382.09 309.845L397.717 282.778L388.926 267.154L373.299 294.221L382.09 309.845Z" fill="#1043F5"/>
</g>
</g>
<g id="enun01">
<path id="Rectangle 1_2" d="M43 0H855.539L924 85.7482L855.539 174H43V0Z" fill="#02071A"/>
<path id="Rectangle 1 (Stroke)" fill-rule="evenodd" clip-rule="evenodd" d="M853.614 4H47V170H853.579L918.91 85.7838L853.614 4ZM855.539 0H43V174H855.539L924 85.7482L855.539 0Z" fill="#E8A1EE"/>
<path id="Ellipse 1_2" d="M100 87C100 114.614 77.6142 137 50 137C22.3858 137 0 114.614 0 87C0 59.3858 22.3858 37 50 37C77.6142 37 100 59.3858 100 87Z" fill="#E8A1EE"/>
<path id="Ellipse 1 (Stroke)" fill-rule="evenodd" clip-rule="evenodd" d="M50 136C77.062 136 99 114.062 99 87C99 59.938 77.062 38 50 38C22.938 38 1 59.938 1 87C1 114.062 22.938 136 50 136ZM50 137C77.6142 137 100 114.614 100 87C100 59.3858 77.6142 37 50 37C22.3858 37 0 59.3858 0 87C0 114.614 22.3858 137 50 137Z" fill="#E8A1EE"/>
<g id="El doble de la suma de un numero con 50 es el triple del n&#195;&#186;mero, calcula el doble del n&#195;&#186;mero.">
<path d="M128.438 54.1699H117.346V63.2402H130.23V66H113.971V40.4062H130.055V43.1836H117.346V51.4102H128.438V54.1699Z" fill="white"/>
<path d="M137.455 66H134.203V39H137.455V66Z" fill="white"/>
<path d="M150.814 56.332C150.814 53.4141 151.506 51.0703 152.889 49.3008C154.271 47.5195 156.082 46.6289 158.32 46.6289C160.547 46.6289 162.311 47.3906 163.611 48.9141V39H166.863V66H163.875L163.717 63.9609C162.416 65.5547 160.605 66.3516 158.285 66.3516C156.082 66.3516 154.283 65.4492 152.889 63.6445C151.506 61.8398 150.814 59.4844 150.814 56.5781V56.332ZM154.066 56.7012C154.066 58.8574 154.512 60.5449 155.402 61.7637C156.293 62.9824 157.523 63.5918 159.094 63.5918C161.156 63.5918 162.662 62.666 163.611 60.8145V52.0781C162.639 50.2852 161.145 49.3887 159.129 49.3887C157.535 49.3887 156.293 50.0039 155.402 51.2344C154.512 52.4648 154.066 54.2871 154.066 56.7012Z" fill="white"/>
<path d="M171.064 56.3145C171.064 54.4512 171.428 52.7754 172.154 51.2871C172.893 49.7988 173.912 48.6504 175.213 47.8418C176.525 47.0332 178.02 46.6289 179.695 46.6289C182.285 46.6289 184.377 47.5254 185.971 49.3184C187.576 51.1113 188.379 53.4961 188.379 56.4727V56.7012C188.379 58.5527 188.021 60.2168 187.307 61.6934C186.604 63.1582 185.59 64.3008 184.266 65.1211C182.953 65.9414 181.441 66.3516 179.73 66.3516C177.152 66.3516 175.061 65.4551 173.455 63.6621C171.861 61.8691 171.064 59.4961 171.064 56.543V56.3145ZM174.334 56.7012C174.334 58.8105 174.82 60.5039 175.793 61.7812C176.777 63.0586 178.09 63.6973 179.73 63.6973C181.383 63.6973 182.695 63.0527 183.668 61.7637C184.641 60.4629 185.127 58.6465 185.127 56.3145C185.127 54.2285 184.629 52.541 183.633 51.252C182.648 49.9512 181.336 49.3008 179.695 49.3008C178.09 49.3008 176.795 49.9395 175.811 51.2168C174.826 52.4941 174.334 54.3223 174.334 56.7012Z" fill="white"/>
<path d="M208.559 56.7012C208.559 59.6074 207.891 61.9453 206.555 63.7148C205.219 65.4727 203.426 66.3516 201.176 66.3516C198.773 66.3516 196.916 65.502 195.604 63.8027L195.445 66H192.457V39H195.709V49.0723C197.021 47.4434 198.832 46.6289 201.141 46.6289C203.449 46.6289 205.26 47.502 206.572 49.248C207.896 50.9941 208.559 53.3848 208.559 56.4199V56.7012ZM205.307 56.332C205.307 54.1172 204.879 52.4062 204.023 51.1992C203.168 49.9922 201.938 49.3887 200.332 49.3887C198.188 49.3887 196.646 50.3848 195.709 52.377V60.6035C196.705 62.5957 198.258 63.5918 200.367 63.5918C201.926 63.5918 203.139 62.9883 204.006 61.7812C204.873 60.5742 205.307 58.7578 205.307 56.332Z" fill="white"/>
<path d="M216.205 66H212.953V39H216.205V66Z" fill="white"/>
<path d="M229.318 66.3516C226.74 66.3516 224.643 65.5078 223.025 63.8203C221.408 62.1211 220.6 59.8535 220.6 57.0176V56.4199C220.6 54.5332 220.957 52.8516 221.672 51.375C222.398 49.8867 223.406 48.7266 224.695 47.8945C225.996 47.0508 227.402 46.6289 228.914 46.6289C231.387 46.6289 233.309 47.4434 234.68 49.0723C236.051 50.7012 236.736 53.0332 236.736 56.0684V57.4219H223.852C223.898 59.2969 224.443 60.8145 225.486 61.9746C226.541 63.123 227.877 63.6973 229.494 63.6973C230.643 63.6973 231.615 63.4629 232.412 62.9941C233.209 62.5254 233.906 61.9043 234.504 61.1309L236.49 62.6777C234.896 65.127 232.506 66.3516 229.318 66.3516ZM228.914 49.3008C227.602 49.3008 226.5 49.7812 225.609 50.7422C224.719 51.6914 224.168 53.0273 223.957 54.75H233.484V54.5039C233.391 52.8516 232.945 51.5742 232.148 50.6719C231.352 49.7578 230.273 49.3008 228.914 49.3008Z" fill="white"/>
<path d="M248.654 56.332C248.654 53.4141 249.346 51.0703 250.729 49.3008C252.111 47.5195 253.922 46.6289 256.16 46.6289C258.387 46.6289 260.15 47.3906 261.451 48.9141V39H264.703V66H261.715L261.557 63.9609C260.256 65.5547 258.445 66.3516 256.125 66.3516C253.922 66.3516 252.123 65.4492 250.729 63.6445C249.346 61.8398 248.654 59.4844 248.654 56.5781V56.332ZM251.906 56.7012C251.906 58.8574 252.352 60.5449 253.242 61.7637C254.133 62.9824 255.363 63.5918 256.934 63.5918C258.996 63.5918 260.502 62.666 261.451 60.8145V52.0781C260.479 50.2852 258.984 49.3887 256.969 49.3887C255.375 49.3887 254.133 50.0039 253.242 51.2344C252.352 52.4648 251.906 54.2871 251.906 56.7012Z" fill="white"/>
<path d="M277.658 66.3516C275.08 66.3516 272.982 65.5078 271.365 63.8203C269.748 62.1211 268.939 59.8535 268.939 57.0176V56.4199C268.939 54.5332 269.297 52.8516 270.012 51.375C270.738 49.8867 271.746 48.7266 273.035 47.8945C274.336 47.0508 275.742 46.6289 277.254 46.6289C279.727 46.6289 281.648 47.4434 283.02 49.0723C284.391 50.7012 285.076 53.0332 285.076 56.0684V57.4219H272.191C272.238 59.2969 272.783 60.8145 273.826 61.9746C274.881 63.123 276.217 63.6973 277.834 63.6973C278.982 63.6973 279.955 63.4629 280.752 62.9941C281.549 62.5254 282.246 61.9043 282.844 61.1309L284.83 62.6777C283.236 65.127 280.846 66.3516 277.658 66.3516ZM277.254 49.3008C275.941 49.3008 274.84 49.7812 273.949 50.7422C273.059 51.6914 272.508 53.0273 272.297 54.75H281.824V54.5039C281.73 52.8516 281.285 51.5742 280.488 50.6719C279.691 49.7578 278.613 49.3008 277.254 49.3008Z" fill="white"/>
<path d="M301.318 66H298.066V39H301.318V66Z" fill="white"/>
<path d="M318.281 66C318.094 65.625 317.941 64.957 317.824 63.9961C316.312 65.5664 314.508 66.3516 312.41 66.3516C310.535 66.3516 308.994 65.8242 307.787 64.7695C306.592 63.7031 305.994 62.3555 305.994 60.7266C305.994 58.7461 306.744 57.2109 308.244 56.1211C309.756 55.0195 311.877 54.4688 314.607 54.4688H317.771V52.9746C317.771 51.8379 317.432 50.9355 316.752 50.2676C316.072 49.5879 315.07 49.248 313.746 49.248C312.586 49.248 311.613 49.541 310.828 50.127C310.043 50.7129 309.65 51.4219 309.65 52.2539H306.381C306.381 51.3047 306.715 50.3906 307.383 49.5117C308.062 48.6211 308.977 47.918 310.125 47.4023C311.285 46.8867 312.557 46.6289 313.939 46.6289C316.131 46.6289 317.848 47.1797 319.09 48.2812C320.332 49.3711 320.977 50.877 321.023 52.7988V61.5527C321.023 63.2988 321.246 64.6875 321.691 65.7188V66H318.281ZM312.885 63.5215C313.904 63.5215 314.871 63.2578 315.785 62.7305C316.699 62.2031 317.361 61.5176 317.771 60.6738V56.7715H315.223C311.238 56.7715 309.246 57.9375 309.246 60.2695C309.246 61.2891 309.586 62.0859 310.266 62.6602C310.945 63.2344 311.818 63.5215 312.885 63.5215Z" fill="white"/>
<path d="M346.125 60.9551C346.125 60.0762 345.791 59.3965 345.123 58.916C344.467 58.4238 343.312 58.002 341.66 57.6504C340.02 57.2988 338.713 56.877 337.74 56.3848C336.779 55.8926 336.064 55.3066 335.596 54.627C335.139 53.9473 334.91 53.1387 334.91 52.2012C334.91 50.6426 335.566 49.3242 336.879 48.2461C338.203 47.168 339.891 46.6289 341.941 46.6289C344.098 46.6289 345.844 47.1855 347.18 48.2988C348.527 49.4121 349.201 50.8359 349.201 52.5703H345.932C345.932 51.6797 345.551 50.9121 344.789 50.2676C344.039 49.623 343.09 49.3008 341.941 49.3008C340.758 49.3008 339.832 49.5586 339.164 50.0742C338.496 50.5898 338.162 51.2637 338.162 52.0957C338.162 52.8809 338.473 53.4727 339.094 53.8711C339.715 54.2695 340.834 54.6504 342.451 55.0137C344.08 55.377 345.398 55.8105 346.406 56.3145C347.414 56.8184 348.158 57.4277 348.639 58.1426C349.131 58.8457 349.377 59.707 349.377 60.7266C349.377 62.4258 348.697 63.791 347.338 64.8223C345.979 65.8418 344.215 66.3516 342.047 66.3516C340.523 66.3516 339.176 66.082 338.004 65.543C336.832 65.0039 335.912 64.2539 335.244 63.293C334.588 62.3203 334.26 61.2715 334.26 60.1465H337.512C337.57 61.2363 338.004 62.1035 338.812 62.748C339.633 63.3809 340.711 63.6973 342.047 63.6973C343.277 63.6973 344.262 63.4512 345 62.959C345.75 62.4551 346.125 61.7871 346.125 60.9551Z" fill="white"/>
<path d="M365.355 64.1191C364.09 65.6074 362.232 66.3516 359.783 66.3516C357.756 66.3516 356.209 65.7656 355.143 64.5938C354.088 63.4102 353.555 61.6641 353.543 59.3555V46.9805H356.795V59.2676C356.795 62.1504 357.967 63.5918 360.311 63.5918C362.795 63.5918 364.447 62.666 365.268 60.8145V46.9805H368.52V66H365.426L365.355 64.1191Z" fill="white"/>
<path d="M376.535 46.9805L376.623 49.0898C378.018 47.4492 379.898 46.6289 382.266 46.6289C384.926 46.6289 386.736 47.6484 387.697 49.6875C388.33 48.7734 389.15 48.0352 390.158 47.4727C391.178 46.9102 392.379 46.6289 393.762 46.6289C397.934 46.6289 400.055 48.8379 400.125 53.2559V66H396.873V53.4492C396.873 52.0898 396.562 51.0762 395.941 50.4082C395.32 49.7285 394.277 49.3887 392.812 49.3887C391.605 49.3887 390.604 49.752 389.807 50.4785C389.01 51.1934 388.547 52.1602 388.418 53.3789V66H385.148V53.5371C385.148 50.7715 383.795 49.3887 381.088 49.3887C378.955 49.3887 377.496 50.2969 376.711 52.1133V66H373.459V46.9805H376.535Z" fill="white"/>
<path d="M416.789 66C416.602 65.625 416.449 64.957 416.332 63.9961C414.82 65.5664 413.016 66.3516 410.918 66.3516C409.043 66.3516 407.502 65.8242 406.295 64.7695C405.1 63.7031 404.502 62.3555 404.502 60.7266C404.502 58.7461 405.252 57.2109 406.752 56.1211C408.264 55.0195 410.385 54.4688 413.115 54.4688H416.279V52.9746C416.279 51.8379 415.939 50.9355 415.26 50.2676C414.58 49.5879 413.578 49.248 412.254 49.248C411.094 49.248 410.121 49.541 409.336 50.127C408.551 50.7129 408.158 51.4219 408.158 52.2539H404.889C404.889 51.3047 405.223 50.3906 405.891 49.5117C406.57 48.6211 407.484 47.918 408.633 47.4023C409.793 46.8867 411.064 46.6289 412.447 46.6289C414.639 46.6289 416.355 47.1797 417.598 48.2812C418.84 49.3711 419.484 50.877 419.531 52.7988V61.5527C419.531 63.2988 419.754 64.6875 420.199 65.7188V66H416.789ZM411.393 63.5215C412.412 63.5215 413.379 63.2578 414.293 62.7305C415.207 62.2031 415.869 61.5176 416.279 60.6738V56.7715H413.73C409.746 56.7715 407.754 57.9375 407.754 60.2695C407.754 61.2891 408.094 62.0859 408.773 62.6602C409.453 63.2344 410.326 63.5215 411.393 63.5215Z" fill="white"/>
<path d="M432.768 56.332C432.768 53.4141 433.459 51.0703 434.842 49.3008C436.225 47.5195 438.035 46.6289 440.273 46.6289C442.5 46.6289 444.264 47.3906 445.564 48.9141V39H448.816V66H445.828L445.67 63.9609C444.369 65.5547 442.559 66.3516 440.238 66.3516C438.035 66.3516 436.236 65.4492 434.842 63.6445C433.459 61.8398 432.768 59.4844 432.768 56.5781V56.332ZM436.02 56.7012C436.02 58.8574 436.465 60.5449 437.355 61.7637C438.246 62.9824 439.477 63.5918 441.047 63.5918C443.109 63.5918 444.615 62.666 445.564 60.8145V52.0781C444.592 50.2852 443.098 49.3887 441.082 49.3887C439.488 49.3887 438.246 50.0039 437.355 51.2344C436.465 52.4648 436.02 54.2871 436.02 56.7012Z" fill="white"/>
<path d="M461.771 66.3516C459.193 66.3516 457.096 65.5078 455.479 63.8203C453.861 62.1211 453.053 59.8535 453.053 57.0176V56.4199C453.053 54.5332 453.41 52.8516 454.125 51.375C454.852 49.8867 455.859 48.7266 457.148 47.8945C458.449 47.0508 459.855 46.6289 461.367 46.6289C463.84 46.6289 465.762 47.4434 467.133 49.0723C468.504 50.7012 469.189 53.0332 469.189 56.0684V57.4219H456.305C456.352 59.2969 456.896 60.8145 457.939 61.9746C458.994 63.123 460.33 63.6973 461.947 63.6973C463.096 63.6973 464.068 63.4629 464.865 62.9941C465.662 62.5254 466.359 61.9043 466.957 61.1309L468.943 62.6777C467.35 65.127 464.959 66.3516 461.771 66.3516ZM461.367 49.3008C460.055 49.3008 458.953 49.7812 458.062 50.7422C457.172 51.6914 456.621 53.0273 456.41 54.75H465.938V54.5039C465.844 52.8516 465.398 51.5742 464.602 50.6719C463.805 49.7578 462.727 49.3008 461.367 49.3008Z" fill="white"/>
<path d="M493.641 64.1191C492.375 65.6074 490.518 66.3516 488.068 66.3516C486.041 66.3516 484.494 65.7656 483.428 64.5938C482.373 63.4102 481.84 61.6641 481.828 59.3555V46.9805H485.08V59.2676C485.08 62.1504 486.252 63.5918 488.596 63.5918C491.08 63.5918 492.732 62.666 493.553 60.8145V46.9805H496.805V66H493.711L493.641 64.1191Z" fill="white"/>
<path d="M504.838 46.9805L504.943 49.3711C506.396 47.543 508.295 46.6289 510.639 46.6289C514.658 46.6289 516.686 48.8965 516.721 53.4316V66H513.469V53.4141C513.457 52.043 513.141 51.0293 512.52 50.373C511.91 49.7168 510.955 49.3887 509.654 49.3887C508.6 49.3887 507.674 49.6699 506.877 50.2324C506.08 50.7949 505.459 51.5332 505.014 52.4473V66H501.762V46.9805H504.838Z" fill="white"/>
<path d="M533.631 46.9805L533.736 49.3711C535.189 47.543 537.088 46.6289 539.432 46.6289C543.451 46.6289 545.479 48.8965 545.514 53.4316V66H542.262V53.4141C542.25 52.043 541.934 51.0293 541.312 50.373C540.703 49.7168 539.748 49.3887 538.447 49.3887C537.393 49.3887 536.467 49.6699 535.67 50.2324C534.873 50.7949 534.252 51.5332 533.807 52.4473V66H530.555V46.9805H533.631Z" fill="white"/>
<path d="M562.16 64.1191C560.895 65.6074 559.037 66.3516 556.588 66.3516C554.561 66.3516 553.014 65.7656 551.947 64.5938C550.893 63.4102 550.359 61.6641 550.348 59.3555V46.9805H553.6V59.2676C553.6 62.1504 554.771 63.5918 557.115 63.5918C559.6 63.5918 561.252 62.666 562.072 60.8145V46.9805H565.324V66H562.23L562.16 64.1191Z" fill="white"/>
<path d="M573.34 46.9805L573.428 49.0898C574.822 47.4492 576.703 46.6289 579.07 46.6289C581.73 46.6289 583.541 47.6484 584.502 49.6875C585.135 48.7734 585.955 48.0352 586.963 47.4727C587.982 46.9102 589.184 46.6289 590.566 46.6289C594.738 46.6289 596.859 48.8379 596.93 53.2559V66H593.678V53.4492C593.678 52.0898 593.367 51.0762 592.746 50.4082C592.125 49.7285 591.082 49.3887 589.617 49.3887C588.41 49.3887 587.408 49.752 586.611 50.4785C585.814 51.1934 585.352 52.1602 585.223 53.3789V66H581.953V53.5371C581.953 50.7715 580.6 49.3887 577.893 49.3887C575.76 49.3887 574.301 50.2969 573.516 52.1133V66H570.264V46.9805H573.34Z" fill="white"/>
<path d="M609.744 66.3516C607.166 66.3516 605.068 65.5078 603.451 63.8203C601.834 62.1211 601.025 59.8535 601.025 57.0176V56.4199C601.025 54.5332 601.383 52.8516 602.098 51.375C602.824 49.8867 603.832 48.7266 605.121 47.8945C606.422 47.0508 607.828 46.6289 609.34 46.6289C611.812 46.6289 613.734 47.4434 615.105 49.0723C616.477 50.7012 617.162 53.0332 617.162 56.0684V57.4219H604.277C604.324 59.2969 604.869 60.8145 605.912 61.9746C606.967 63.123 608.303 63.6973 609.92 63.6973C611.068 63.6973 612.041 63.4629 612.838 62.9941C613.635 62.5254 614.332 61.9043 614.93 61.1309L616.916 62.6777C615.322 65.127 612.932 66.3516 609.744 66.3516ZM609.34 49.3008C608.027 49.3008 606.926 49.7812 606.035 50.7422C605.145 51.6914 604.594 53.0273 604.383 54.75H613.91V54.5039C613.816 52.8516 613.371 51.5742 612.574 50.6719C611.777 49.7578 610.699 49.3008 609.34 49.3008Z" fill="white"/>
<path d="M630.135 49.8984C629.643 49.8164 629.109 49.7754 628.535 49.7754C626.402 49.7754 624.955 50.6836 624.193 52.5V66H620.941V46.9805H624.105L624.158 49.1777C625.225 47.4785 626.736 46.6289 628.693 46.6289C629.326 46.6289 629.807 46.7109 630.135 46.875V49.8984Z" fill="white"/>
<path d="M631.928 56.3145C631.928 54.4512 632.291 52.7754 633.018 51.2871C633.756 49.7988 634.775 48.6504 636.076 47.8418C637.389 47.0332 638.883 46.6289 640.559 46.6289C643.148 46.6289 645.24 47.5254 646.834 49.3184C648.439 51.1113 649.242 53.4961 649.242 56.4727V56.7012C649.242 58.5527 648.885 60.2168 648.17 61.6934C647.467 63.1582 646.453 64.3008 645.129 65.1211C643.816 65.9414 642.305 66.3516 640.594 66.3516C638.016 66.3516 635.924 65.4551 634.318 63.6621C632.725 61.8691 631.928 59.4961 631.928 56.543V56.3145ZM635.197 56.7012C635.197 58.8105 635.684 60.5039 636.656 61.7812C637.641 63.0586 638.953 63.6973 640.594 63.6973C642.246 63.6973 643.559 63.0527 644.531 61.7637C645.504 60.4629 645.99 58.6465 645.99 56.3145C645.99 54.2285 645.492 52.541 644.496 51.252C643.512 49.9512 642.199 49.3008 640.559 49.3008C638.953 49.3008 637.658 49.9395 636.674 51.2168C635.689 52.4941 635.197 54.3223 635.197 56.7012Z" fill="white"/>
<path d="M669.879 63.6973C671.039 63.6973 672.053 63.3457 672.92 62.6426C673.787 61.9395 674.268 61.0605 674.361 60.0059H677.438C677.379 61.0957 677.004 62.1328 676.312 63.1172C675.621 64.1016 674.695 64.8867 673.535 65.4727C672.387 66.0586 671.168 66.3516 669.879 66.3516C667.289 66.3516 665.227 65.4902 663.691 63.7676C662.168 62.0332 661.406 59.666 661.406 56.666V56.1211C661.406 54.2695 661.746 52.623 662.426 51.1816C663.105 49.7402 664.078 48.6211 665.344 47.8242C666.621 47.0273 668.127 46.6289 669.861 46.6289C671.994 46.6289 673.764 47.2676 675.17 48.5449C676.588 49.8223 677.344 51.4805 677.438 53.5195H674.361C674.268 52.2891 673.799 51.2812 672.955 50.4961C672.123 49.6992 671.092 49.3008 669.861 49.3008C668.209 49.3008 666.926 49.8984 666.012 51.0938C665.109 52.2773 664.658 53.9941 664.658 56.2441V56.8594C664.658 59.0508 665.109 60.7383 666.012 61.9219C666.914 63.1055 668.203 63.6973 669.879 63.6973Z" fill="white"/>
<path d="M680.232 56.3145C680.232 54.4512 680.596 52.7754 681.322 51.2871C682.061 49.7988 683.08 48.6504 684.381 47.8418C685.693 47.0332 687.188 46.6289 688.863 46.6289C691.453 46.6289 693.545 47.5254 695.139 49.3184C696.744 51.1113 697.547 53.4961 697.547 56.4727V56.7012C697.547 58.5527 697.189 60.2168 696.475 61.6934C695.771 63.1582 694.758 64.3008 693.434 65.1211C692.121 65.9414 690.609 66.3516 688.898 66.3516C686.32 66.3516 684.229 65.4551 682.623 63.6621C681.029 61.8691 680.232 59.4961 680.232 56.543V56.3145ZM683.502 56.7012C683.502 58.8105 683.988 60.5039 684.961 61.7812C685.945 63.0586 687.258 63.6973 688.898 63.6973C690.551 63.6973 691.863 63.0527 692.836 61.7637C693.809 60.4629 694.295 58.6465 694.295 56.3145C694.295 54.2285 693.797 52.541 692.801 51.252C691.816 49.9512 690.504 49.3008 688.863 49.3008C687.258 49.3008 685.963 49.9395 684.979 51.2168C683.994 52.4941 683.502 54.3223 683.502 56.7012Z" fill="white"/>
<path d="M704.701 46.9805L704.807 49.3711C706.26 47.543 708.158 46.6289 710.502 46.6289C714.521 46.6289 716.549 48.8965 716.584 53.4316V66H713.332V53.4141C713.32 52.043 713.004 51.0293 712.383 50.373C711.773 49.7168 710.818 49.3887 709.518 49.3887C708.463 49.3887 707.537 49.6699 706.74 50.2324C705.943 50.7949 705.322 51.5332 704.877 52.4473V66H701.625V46.9805H704.701Z" fill="white"/>
<path d="M731.578 53.168L732.879 40.4062H745.992V43.4121H735.639L734.865 50.3906C736.119 49.6523 737.543 49.2832 739.137 49.2832C741.469 49.2832 743.32 50.0566 744.691 51.6035C746.062 53.1387 746.748 55.2188 746.748 57.8438C746.748 60.4805 746.033 62.5605 744.604 64.084C743.186 65.5957 741.199 66.3516 738.645 66.3516C736.383 66.3516 734.537 65.7246 733.107 64.4707C731.678 63.2168 730.863 61.4824 730.664 59.2676H733.74C733.939 60.7324 734.461 61.8398 735.305 62.5898C736.148 63.3281 737.262 63.6973 738.645 63.6973C740.156 63.6973 741.34 63.1816 742.195 62.1504C743.062 61.1191 743.496 59.6953 743.496 57.8789C743.496 56.168 743.027 54.7969 742.09 53.7656C741.164 52.7227 739.928 52.2012 738.381 52.2012C736.963 52.2012 735.85 52.5117 735.041 53.1328L734.18 53.8359L731.578 53.168Z" fill="white"/>
<path d="M766.348 55.084C766.348 58.8926 765.697 61.7227 764.396 63.5742C763.096 65.4258 761.062 66.3516 758.297 66.3516C755.566 66.3516 753.545 65.4492 752.232 63.6445C750.92 61.8281 750.24 59.1211 750.193 55.5234V51.1816C750.193 47.4199 750.844 44.625 752.145 42.7969C753.445 40.9688 755.484 40.0547 758.262 40.0547C761.016 40.0547 763.043 40.9395 764.344 42.709C765.645 44.4668 766.312 47.1855 766.348 50.8652V55.084ZM763.096 50.6367C763.096 47.8828 762.709 45.8789 761.936 44.625C761.162 43.3594 759.938 42.7266 758.262 42.7266C756.598 42.7266 755.385 43.3535 754.623 44.6074C753.861 45.8613 753.469 47.7891 753.445 50.3906V55.5938C753.445 58.3594 753.844 60.4043 754.641 61.7285C755.449 63.041 756.668 63.6973 758.297 63.6973C759.902 63.6973 761.092 63.0762 761.865 61.834C762.65 60.5918 763.061 58.6348 763.096 55.9629V50.6367Z" fill="white"/>
<path d="M787.67 66.3516C785.092 66.3516 782.994 65.5078 781.377 63.8203C779.76 62.1211 778.951 59.8535 778.951 57.0176V56.4199C778.951 54.5332 779.309 52.8516 780.023 51.375C780.75 49.8867 781.758 48.7266 783.047 47.8945C784.348 47.0508 785.754 46.6289 787.266 46.6289C789.738 46.6289 791.66 47.4434 793.031 49.0723C794.402 50.7012 795.088 53.0332 795.088 56.0684V57.4219H782.203C782.25 59.2969 782.795 60.8145 783.838 61.9746C784.893 63.123 786.229 63.6973 787.846 63.6973C788.994 63.6973 789.967 63.4629 790.764 62.9941C791.561 62.5254 792.258 61.9043 792.855 61.1309L794.842 62.6777C793.248 65.127 790.857 66.3516 787.67 66.3516ZM787.266 49.3008C785.953 49.3008 784.852 49.7812 783.961 50.7422C783.07 51.6914 782.52 53.0273 782.309 54.75H791.836V54.5039C791.742 52.8516 791.297 51.5742 790.5 50.6719C789.703 49.7578 788.625 49.3008 787.266 49.3008Z" fill="white"/>
<path d="M809.941 60.9551C809.941 60.0762 809.607 59.3965 808.939 58.916C808.283 58.4238 807.129 58.002 805.477 57.6504C803.836 57.2988 802.529 56.877 801.557 56.3848C800.596 55.8926 799.881 55.3066 799.412 54.627C798.955 53.9473 798.727 53.1387 798.727 52.2012C798.727 50.6426 799.383 49.3242 800.695 48.2461C802.02 47.168 803.707 46.6289 805.758 46.6289C807.914 46.6289 809.66 47.1855 810.996 48.2988C812.344 49.4121 813.018 50.8359 813.018 52.5703H809.748C809.748 51.6797 809.367 50.9121 808.605 50.2676C807.855 49.623 806.906 49.3008 805.758 49.3008C804.574 49.3008 803.648 49.5586 802.98 50.0742C802.312 50.5898 801.979 51.2637 801.979 52.0957C801.979 52.8809 802.289 53.4727 802.91 53.8711C803.531 54.2695 804.65 54.6504 806.268 55.0137C807.896 55.377 809.215 55.8105 810.223 56.3145C811.23 56.8184 811.975 57.4277 812.455 58.1426C812.947 58.8457 813.193 59.707 813.193 60.7266C813.193 62.4258 812.514 63.791 811.154 64.8223C809.795 65.8418 808.031 66.3516 805.863 66.3516C804.34 66.3516 802.992 66.082 801.82 65.543C800.648 65.0039 799.729 64.2539 799.061 63.293C798.404 62.3203 798.076 61.2715 798.076 60.1465H801.328C801.387 61.2363 801.82 62.1035 802.629 62.748C803.449 63.3809 804.527 63.6973 805.863 63.6973C807.094 63.6973 808.078 63.4512 808.816 62.959C809.566 62.4551 809.941 61.7871 809.941 60.9551Z" fill="white"/>
<path d="M834.252 66.3516C831.674 66.3516 829.576 65.5078 827.959 63.8203C826.342 62.1211 825.533 59.8535 825.533 57.0176V56.4199C825.533 54.5332 825.891 52.8516 826.605 51.375C827.332 49.8867 828.34 48.7266 829.629 47.8945C830.93 47.0508 832.336 46.6289 833.848 46.6289C836.32 46.6289 838.242 47.4434 839.613 49.0723C840.984 50.7012 841.67 53.0332 841.67 56.0684V57.4219H828.785C828.832 59.2969 829.377 60.8145 830.42 61.9746C831.475 63.123 832.811 63.6973 834.428 63.6973C835.576 63.6973 836.549 63.4629 837.346 62.9941C838.143 62.5254 838.84 61.9043 839.438 61.1309L841.424 62.6777C839.83 65.127 837.439 66.3516 834.252 66.3516ZM833.848 49.3008C832.535 49.3008 831.434 49.7812 830.543 50.7422C829.652 51.6914 829.102 53.0273 828.891 54.75H838.418V54.5039C838.324 52.8516 837.879 51.5742 837.082 50.6719C836.285 49.7578 835.207 49.3008 833.848 49.3008Z" fill="white"/>
<path d="M848.982 66H845.73V39H848.982V66Z" fill="white"/>
<path d="M117.873 84.375V88.9805H121.424V91.4941H117.873V103.289C117.873 104.051 118.031 104.625 118.348 105.012C118.664 105.387 119.203 105.574 119.965 105.574C120.34 105.574 120.855 105.504 121.512 105.363V108C120.656 108.234 119.824 108.352 119.016 108.352C117.562 108.352 116.467 107.912 115.729 107.033C114.99 106.154 114.621 104.906 114.621 103.289V91.4941H111.158V88.9805H114.621V84.375H117.873Z" fill="white"/>
<path d="M134.432 91.8984C133.939 91.8164 133.406 91.7754 132.832 91.7754C130.699 91.7754 129.252 92.6836 128.49 94.5V108H125.238V88.9805H128.402L128.455 91.1777C129.521 89.4785 131.033 88.6289 132.99 88.6289C133.623 88.6289 134.104 88.7109 134.432 88.875V91.8984Z" fill="white"/>
<path d="M140.971 108H137.719V88.9805H140.971V108ZM137.455 83.9355C137.455 83.4082 137.613 82.9629 137.93 82.5996C138.258 82.2363 138.738 82.0547 139.371 82.0547C140.004 82.0547 140.484 82.2363 140.812 82.5996C141.141 82.9629 141.305 83.4082 141.305 83.9355C141.305 84.4629 141.141 84.9023 140.812 85.2539C140.484 85.6055 140.004 85.7812 139.371 85.7812C138.738 85.7812 138.258 85.6055 137.93 85.2539C137.613 84.9023 137.455 84.4629 137.455 83.9355Z" fill="white"/>
<path d="M162.258 98.7012C162.258 101.596 161.596 103.928 160.271 105.697C158.947 107.467 157.154 108.352 154.893 108.352C152.584 108.352 150.768 107.619 149.443 106.154V115.312H146.191V88.9805H149.162L149.32 91.0898C150.645 89.4492 152.484 88.6289 154.84 88.6289C157.125 88.6289 158.93 89.4902 160.254 91.2129C161.59 92.9355 162.258 95.332 162.258 98.4023V98.7012ZM159.006 98.332C159.006 96.1875 158.549 94.4941 157.635 93.252C156.721 92.0098 155.467 91.3887 153.873 91.3887C151.904 91.3887 150.428 92.2617 149.443 94.0078V103.096C150.416 104.83 151.904 105.697 153.908 105.697C155.467 105.697 156.703 105.082 157.617 103.852C158.543 102.609 159.006 100.77 159.006 98.332Z" fill="white"/>
<path d="M169.939 108H166.688V81H169.939V108Z" fill="white"/>
<path d="M183.053 108.352C180.475 108.352 178.377 107.508 176.76 105.82C175.143 104.121 174.334 101.854 174.334 99.0176V98.4199C174.334 96.5332 174.691 94.8516 175.406 93.375C176.133 91.8867 177.141 90.7266 178.43 89.8945C179.73 89.0508 181.137 88.6289 182.648 88.6289C185.121 88.6289 187.043 89.4434 188.414 91.0723C189.785 92.7012 190.471 95.0332 190.471 98.0684V99.4219H177.586C177.633 101.297 178.178 102.814 179.221 103.975C180.275 105.123 181.611 105.697 183.229 105.697C184.377 105.697 185.35 105.463 186.146 104.994C186.943 104.525 187.641 103.904 188.238 103.131L190.225 104.678C188.631 107.127 186.24 108.352 183.053 108.352ZM182.648 91.3008C181.336 91.3008 180.234 91.7812 179.344 92.7422C178.453 93.6914 177.902 95.0273 177.691 96.75H187.219V96.5039C187.125 94.8516 186.68 93.5742 185.883 92.6719C185.086 91.7578 184.008 91.3008 182.648 91.3008Z" fill="white"/>
<path d="M202.389 98.332C202.389 95.4141 203.08 93.0703 204.463 91.3008C205.846 89.5195 207.656 88.6289 209.895 88.6289C212.121 88.6289 213.885 89.3906 215.186 90.9141V81H218.438V108H215.449L215.291 105.961C213.99 107.555 212.18 108.352 209.859 108.352C207.656 108.352 205.857 107.449 204.463 105.645C203.08 103.84 202.389 101.484 202.389 98.5781V98.332ZM205.641 98.7012C205.641 100.857 206.086 102.545 206.977 103.764C207.867 104.982 209.098 105.592 210.668 105.592C212.73 105.592 214.236 104.666 215.186 102.814V94.0781C214.213 92.2852 212.719 91.3887 210.703 91.3887C209.109 91.3887 207.867 92.0039 206.977 93.2344C206.086 94.4648 205.641 96.2871 205.641 98.7012Z" fill="white"/>
<path d="M231.393 108.352C228.814 108.352 226.717 107.508 225.1 105.82C223.482 104.121 222.674 101.854 222.674 99.0176V98.4199C222.674 96.5332 223.031 94.8516 223.746 93.375C224.473 91.8867 225.48 90.7266 226.77 89.8945C228.07 89.0508 229.477 88.6289 230.988 88.6289C233.461 88.6289 235.383 89.4434 236.754 91.0723C238.125 92.7012 238.811 95.0332 238.811 98.0684V99.4219H225.926C225.973 101.297 226.518 102.814 227.561 103.975C228.615 105.123 229.951 105.697 231.568 105.697C232.717 105.697 233.689 105.463 234.486 104.994C235.283 104.525 235.98 103.904 236.578 103.131L238.564 104.678C236.971 107.127 234.58 108.352 231.393 108.352ZM230.988 91.3008C229.676 91.3008 228.574 91.7812 227.684 92.7422C226.793 93.6914 226.242 95.0273 226.031 96.75H235.559V96.5039C235.465 94.8516 235.02 93.5742 234.223 92.6719C233.426 91.7578 232.348 91.3008 230.988 91.3008Z" fill="white"/>
<path d="M246.123 108H242.871V81H246.123V108Z" fill="white"/>
<path d="M263.35 88.9805L263.455 91.3711C264.908 89.543 266.807 88.6289 269.15 88.6289C273.17 88.6289 275.197 90.8965 275.232 95.4316V108H271.98V95.4141C271.969 94.043 271.652 93.0293 271.031 92.373C270.422 91.7168 269.467 91.3887 268.166 91.3887C267.111 91.3887 266.186 91.6699 265.389 92.2324C264.592 92.7949 263.971 93.5332 263.525 94.4473V108H260.273V88.9805H263.35Z" fill="white"/>
<path d="M291.879 106.119C290.613 107.607 288.756 108.352 286.307 108.352C284.279 108.352 282.732 107.766 281.666 106.594C280.611 105.41 280.078 103.664 280.066 101.355V88.9805H283.318V101.268C283.318 104.15 284.49 105.592 286.834 105.592C289.318 105.592 290.971 104.666 291.791 102.814V88.9805H295.043V108H291.949L291.879 106.119ZM289.242 81H293.18L288.469 86.168H285.85L289.242 81Z" fill="white"/>
<path d="M303.059 88.9805L303.146 91.0898C304.541 89.4492 306.422 88.6289 308.789 88.6289C311.449 88.6289 313.26 89.6484 314.221 91.6875C314.854 90.7734 315.674 90.0352 316.682 89.4727C317.701 88.9102 318.902 88.6289 320.285 88.6289C324.457 88.6289 326.578 90.8379 326.648 95.2559V108H323.396V95.4492C323.396 94.0898 323.086 93.0762 322.465 92.4082C321.844 91.7285 320.801 91.3887 319.336 91.3887C318.129 91.3887 317.127 91.752 316.33 92.4785C315.533 93.1934 315.07 94.1602 314.941 95.3789V108H311.672V95.5371C311.672 92.7715 310.318 91.3887 307.611 91.3887C305.479 91.3887 304.02 92.2969 303.234 94.1133V108H299.982V88.9805H303.059Z" fill="white"/>
<path d="M339.463 108.352C336.885 108.352 334.787 107.508 333.17 105.82C331.553 104.121 330.744 101.854 330.744 99.0176V98.4199C330.744 96.5332 331.102 94.8516 331.816 93.375C332.543 91.8867 333.551 90.7266 334.84 89.8945C336.141 89.0508 337.547 88.6289 339.059 88.6289C341.531 88.6289 343.453 89.4434 344.824 91.0723C346.195 92.7012 346.881 95.0332 346.881 98.0684V99.4219H333.996C334.043 101.297 334.588 102.814 335.631 103.975C336.686 105.123 338.021 105.697 339.639 105.697C340.787 105.697 341.76 105.463 342.557 104.994C343.354 104.525 344.051 103.904 344.648 103.131L346.635 104.678C345.041 107.127 342.65 108.352 339.463 108.352ZM339.059 91.3008C337.746 91.3008 336.645 91.7812 335.754 92.7422C334.863 93.6914 334.312 95.0273 334.102 96.75H343.629V96.5039C343.535 94.8516 343.09 93.5742 342.293 92.6719C341.496 91.7578 340.418 91.3008 339.059 91.3008Z" fill="white"/>
<path d="M359.854 91.8984C359.361 91.8164 358.828 91.7754 358.254 91.7754C356.121 91.7754 354.674 92.6836 353.912 94.5V108H350.66V88.9805H353.824L353.877 91.1777C354.943 89.4785 356.455 88.6289 358.412 88.6289C359.045 88.6289 359.525 88.7109 359.854 88.875V91.8984Z" fill="white"/>
<path d="M361.646 98.3145C361.646 96.4512 362.01 94.7754 362.736 93.2871C363.475 91.7988 364.494 90.6504 365.795 89.8418C367.107 89.0332 368.602 88.6289 370.277 88.6289C372.867 88.6289 374.959 89.5254 376.553 91.3184C378.158 93.1113 378.961 95.4961 378.961 98.4727V98.7012C378.961 100.553 378.604 102.217 377.889 103.693C377.186 105.158 376.172 106.301 374.848 107.121C373.535 107.941 372.023 108.352 370.312 108.352C367.734 108.352 365.643 107.455 364.037 105.662C362.443 103.869 361.646 101.496 361.646 98.543V98.3145ZM364.916 98.7012C364.916 100.811 365.402 102.504 366.375 103.781C367.359 105.059 368.672 105.697 370.312 105.697C371.965 105.697 373.277 105.053 374.25 103.764C375.223 102.463 375.709 100.646 375.709 98.3145C375.709 96.2285 375.211 94.541 374.215 93.252C373.23 91.9512 371.918 91.3008 370.277 91.3008C368.672 91.3008 367.377 91.9395 366.393 93.2168C365.408 94.4941 364.916 96.3223 364.916 98.7012Z" fill="white"/>
<path d="M382.934 113.098L381.088 111.832C382.189 110.297 382.764 108.715 382.811 107.086V104.15H385.992V106.699C385.992 107.883 385.699 109.066 385.113 110.25C384.539 111.434 383.812 112.383 382.934 113.098Z" fill="white"/>
<path d="M406.664 105.697C407.824 105.697 408.838 105.346 409.705 104.643C410.572 103.939 411.053 103.061 411.146 102.006H414.223C414.164 103.096 413.789 104.133 413.098 105.117C412.406 106.102 411.48 106.887 410.32 107.473C409.172 108.059 407.953 108.352 406.664 108.352C404.074 108.352 402.012 107.49 400.477 105.768C398.953 104.033 398.191 101.666 398.191 98.666V98.1211C398.191 96.2695 398.531 94.623 399.211 93.1816C399.891 91.7402 400.863 90.6211 402.129 89.8242C403.406 89.0273 404.912 88.6289 406.646 88.6289C408.779 88.6289 410.549 89.2676 411.955 90.5449C413.373 91.8223 414.129 93.4805 414.223 95.5195H411.146C411.053 94.2891 410.584 93.2812 409.74 92.4961C408.908 91.6992 407.877 91.3008 406.646 91.3008C404.994 91.3008 403.711 91.8984 402.797 93.0938C401.895 94.2773 401.443 95.9941 401.443 98.2441V98.8594C401.443 101.051 401.895 102.738 402.797 103.922C403.699 105.105 404.988 105.697 406.664 105.697Z" fill="white"/>
<path d="M429.621 108C429.434 107.625 429.281 106.957 429.164 105.996C427.652 107.566 425.848 108.352 423.75 108.352C421.875 108.352 420.334 107.824 419.127 106.77C417.932 105.703 417.334 104.355 417.334 102.727C417.334 100.746 418.084 99.2109 419.584 98.1211C421.096 97.0195 423.217 96.4688 425.947 96.4688H429.111V94.9746C429.111 93.8379 428.771 92.9355 428.092 92.2676C427.412 91.5879 426.41 91.248 425.086 91.248C423.926 91.248 422.953 91.541 422.168 92.127C421.383 92.7129 420.99 93.4219 420.99 94.2539H417.721C417.721 93.3047 418.055 92.3906 418.723 91.5117C419.402 90.6211 420.316 89.918 421.465 89.4023C422.625 88.8867 423.896 88.6289 425.279 88.6289C427.471 88.6289 429.188 89.1797 430.43 90.2812C431.672 91.3711 432.316 92.877 432.363 94.7988V103.553C432.363 105.299 432.586 106.688 433.031 107.719V108H429.621ZM424.225 105.521C425.244 105.521 426.211 105.258 427.125 104.73C428.039 104.203 428.701 103.518 429.111 102.674V98.7715H426.562C422.578 98.7715 420.586 99.9375 420.586 102.27C420.586 103.289 420.926 104.086 421.605 104.66C422.285 105.234 423.158 105.521 424.225 105.521Z" fill="white"/>
<path d="M440.994 108H437.742V81H440.994V108Z" fill="white"/>
<path d="M453.844 105.697C455.004 105.697 456.018 105.346 456.885 104.643C457.752 103.939 458.232 103.061 458.326 102.006H461.402C461.344 103.096 460.969 104.133 460.277 105.117C459.586 106.102 458.66 106.887 457.5 107.473C456.352 108.059 455.133 108.352 453.844 108.352C451.254 108.352 449.191 107.49 447.656 105.768C446.133 104.033 445.371 101.666 445.371 98.666V98.1211C445.371 96.2695 445.711 94.623 446.391 93.1816C447.07 91.7402 448.043 90.6211 449.309 89.8242C450.586 89.0273 452.092 88.6289 453.826 88.6289C455.959 88.6289 457.729 89.2676 459.135 90.5449C460.553 91.8223 461.309 93.4805 461.402 95.5195H458.326C458.232 94.2891 457.764 93.2812 456.92 92.4961C456.088 91.6992 455.057 91.3008 453.826 91.3008C452.174 91.3008 450.891 91.8984 449.977 93.0938C449.074 94.2773 448.623 95.9941 448.623 98.2441V98.8594C448.623 101.051 449.074 102.738 449.977 103.922C450.879 105.105 452.168 105.697 453.844 105.697Z" fill="white"/>
<path d="M476.801 106.119C475.535 107.607 473.678 108.352 471.229 108.352C469.201 108.352 467.654 107.766 466.588 106.594C465.533 105.41 465 103.664 464.988 101.355V88.9805H468.24V101.268C468.24 104.15 469.412 105.592 471.756 105.592C474.24 105.592 475.893 104.666 476.713 102.814V88.9805H479.965V108H476.871L476.801 106.119Z" fill="white"/>
<path d="M488.455 108H485.203V81H488.455V108Z" fill="white"/>
<path d="M505.418 108C505.23 107.625 505.078 106.957 504.961 105.996C503.449 107.566 501.645 108.352 499.547 108.352C497.672 108.352 496.131 107.824 494.924 106.77C493.729 105.703 493.131 104.355 493.131 102.727C493.131 100.746 493.881 99.2109 495.381 98.1211C496.893 97.0195 499.014 96.4688 501.744 96.4688H504.908V94.9746C504.908 93.8379 504.568 92.9355 503.889 92.2676C503.209 91.5879 502.207 91.248 500.883 91.248C499.723 91.248 498.75 91.541 497.965 92.127C497.18 92.7129 496.787 93.4219 496.787 94.2539H493.518C493.518 93.3047 493.852 92.3906 494.52 91.5117C495.199 90.6211 496.113 89.918 497.262 89.4023C498.422 88.8867 499.693 88.6289 501.076 88.6289C503.268 88.6289 504.984 89.1797 506.227 90.2812C507.469 91.3711 508.113 92.877 508.16 94.7988V103.553C508.16 105.299 508.383 106.688 508.828 107.719V108H505.418ZM500.021 105.521C501.041 105.521 502.008 105.258 502.922 104.73C503.836 104.203 504.498 103.518 504.908 102.674V98.7715H502.359C498.375 98.7715 496.383 99.9375 496.383 102.27C496.383 103.289 496.723 104.086 497.402 104.66C498.082 105.234 498.955 105.521 500.021 105.521Z" fill="white"/>
<path d="M530.08 108.352C527.502 108.352 525.404 107.508 523.787 105.82C522.17 104.121 521.361 101.854 521.361 99.0176V98.4199C521.361 96.5332 521.719 94.8516 522.434 93.375C523.16 91.8867 524.168 90.7266 525.457 89.8945C526.758 89.0508 528.164 88.6289 529.676 88.6289C532.148 88.6289 534.07 89.4434 535.441 91.0723C536.812 92.7012 537.498 95.0332 537.498 98.0684V99.4219H524.613C524.66 101.297 525.205 102.814 526.248 103.975C527.303 105.123 528.639 105.697 530.256 105.697C531.404 105.697 532.377 105.463 533.174 104.994C533.971 104.525 534.668 103.904 535.266 103.131L537.252 104.678C535.658 107.127 533.268 108.352 530.08 108.352ZM529.676 91.3008C528.363 91.3008 527.262 91.7812 526.371 92.7422C525.48 93.6914 524.93 95.0273 524.719 96.75H534.246V96.5039C534.152 94.8516 533.707 93.5742 532.91 92.6719C532.113 91.7578 531.035 91.3008 529.676 91.3008Z" fill="white"/>
<path d="M544.811 108H541.559V81H544.811V108Z" fill="white"/>
<path d="M558.17 98.332C558.17 95.4141 558.861 93.0703 560.244 91.3008C561.627 89.5195 563.438 88.6289 565.676 88.6289C567.902 88.6289 569.666 89.3906 570.967 90.9141V81H574.219V108H571.23L571.072 105.961C569.771 107.555 567.961 108.352 565.641 108.352C563.438 108.352 561.639 107.449 560.244 105.645C558.861 103.84 558.17 101.484 558.17 98.5781V98.332ZM561.422 98.7012C561.422 100.857 561.867 102.545 562.758 103.764C563.648 104.982 564.879 105.592 566.449 105.592C568.512 105.592 570.018 104.666 570.967 102.814V94.0781C569.994 92.2852 568.5 91.3887 566.484 91.3887C564.891 91.3887 563.648 92.0039 562.758 93.2344C561.867 94.4648 561.422 96.2871 561.422 98.7012Z" fill="white"/>
<path d="M578.42 98.3145C578.42 96.4512 578.783 94.7754 579.51 93.2871C580.248 91.7988 581.268 90.6504 582.568 89.8418C583.881 89.0332 585.375 88.6289 587.051 88.6289C589.641 88.6289 591.732 89.5254 593.326 91.3184C594.932 93.1113 595.734 95.4961 595.734 98.4727V98.7012C595.734 100.553 595.377 102.217 594.662 103.693C593.959 105.158 592.945 106.301 591.621 107.121C590.309 107.941 588.797 108.352 587.086 108.352C584.508 108.352 582.416 107.455 580.811 105.662C579.217 103.869 578.42 101.496 578.42 98.543V98.3145ZM581.689 98.7012C581.689 100.811 582.176 102.504 583.148 103.781C584.133 105.059 585.445 105.697 587.086 105.697C588.738 105.697 590.051 105.053 591.023 103.764C591.996 102.463 592.482 100.646 592.482 98.3145C592.482 96.2285 591.984 94.541 590.988 93.252C590.004 91.9512 588.691 91.3008 587.051 91.3008C585.445 91.3008 584.15 91.9395 583.166 93.2168C582.182 94.4941 581.689 96.3223 581.689 98.7012Z" fill="white"/>
<path d="M615.914 98.7012C615.914 101.607 615.246 103.945 613.91 105.715C612.574 107.473 610.781 108.352 608.531 108.352C606.129 108.352 604.271 107.502 602.959 105.803L602.801 108H599.812V81H603.064V91.0723C604.377 89.4434 606.188 88.6289 608.496 88.6289C610.805 88.6289 612.615 89.502 613.928 91.248C615.252 92.9941 615.914 95.3848 615.914 98.4199V98.7012ZM612.662 98.332C612.662 96.1172 612.234 94.4062 611.379 93.1992C610.523 91.9922 609.293 91.3887 607.688 91.3887C605.543 91.3887 604.002 92.3848 603.064 94.377V102.604C604.061 104.596 605.613 105.592 607.723 105.592C609.281 105.592 610.494 104.988 611.361 103.781C612.229 102.574 612.662 100.758 612.662 98.332Z" fill="white"/>
<path d="M623.561 108H620.309V81H623.561V108Z" fill="white"/>
<path d="M636.674 108.352C634.096 108.352 631.998 107.508 630.381 105.82C628.764 104.121 627.955 101.854 627.955 99.0176V98.4199C627.955 96.5332 628.312 94.8516 629.027 93.375C629.754 91.8867 630.762 90.7266 632.051 89.8945C633.352 89.0508 634.758 88.6289 636.27 88.6289C638.742 88.6289 640.664 89.4434 642.035 91.0723C643.406 92.7012 644.092 95.0332 644.092 98.0684V99.4219H631.207C631.254 101.297 631.799 102.814 632.842 103.975C633.896 105.123 635.232 105.697 636.85 105.697C637.998 105.697 638.971 105.463 639.768 104.994C640.564 104.525 641.262 103.904 641.859 103.131L643.846 104.678C642.252 107.127 639.861 108.352 636.674 108.352ZM636.27 91.3008C634.957 91.3008 633.855 91.7812 632.965 92.7422C632.074 93.6914 631.523 95.0273 631.312 96.75H640.84V96.5039C640.746 94.8516 640.301 93.5742 639.504 92.6719C638.707 91.7578 637.629 91.3008 636.27 91.3008Z" fill="white"/>
<path d="M656.01 98.332C656.01 95.4141 656.701 93.0703 658.084 91.3008C659.467 89.5195 661.277 88.6289 663.516 88.6289C665.742 88.6289 667.506 89.3906 668.807 90.9141V81H672.059V108H669.07L668.912 105.961C667.611 107.555 665.801 108.352 663.48 108.352C661.277 108.352 659.479 107.449 658.084 105.645C656.701 103.84 656.01 101.484 656.01 98.5781V98.332ZM659.262 98.7012C659.262 100.857 659.707 102.545 660.598 103.764C661.488 104.982 662.719 105.592 664.289 105.592C666.352 105.592 667.857 104.666 668.807 102.814V94.0781C667.834 92.2852 666.34 91.3887 664.324 91.3887C662.73 91.3887 661.488 92.0039 660.598 93.2344C659.707 94.4648 659.262 96.2871 659.262 98.7012Z" fill="white"/>
<path d="M685.014 108.352C682.436 108.352 680.338 107.508 678.721 105.82C677.104 104.121 676.295 101.854 676.295 99.0176V98.4199C676.295 96.5332 676.652 94.8516 677.367 93.375C678.094 91.8867 679.102 90.7266 680.391 89.8945C681.691 89.0508 683.098 88.6289 684.609 88.6289C687.082 88.6289 689.004 89.4434 690.375 91.0723C691.746 92.7012 692.432 95.0332 692.432 98.0684V99.4219H679.547C679.594 101.297 680.139 102.814 681.182 103.975C682.236 105.123 683.572 105.697 685.189 105.697C686.338 105.697 687.311 105.463 688.107 104.994C688.904 104.525 689.602 103.904 690.199 103.131L692.186 104.678C690.592 107.127 688.201 108.352 685.014 108.352ZM684.609 91.3008C683.297 91.3008 682.195 91.7812 681.305 92.7422C680.414 93.6914 679.863 95.0273 679.652 96.75H689.18V96.5039C689.086 94.8516 688.641 93.5742 687.844 92.6719C687.047 91.7578 685.969 91.3008 684.609 91.3008Z" fill="white"/>
<path d="M699.744 108H696.492V81H699.744V108Z" fill="white"/>
<path d="M716.971 88.9805L717.076 91.3711C718.529 89.543 720.428 88.6289 722.771 88.6289C726.791 88.6289 728.818 90.8965 728.854 95.4316V108H725.602V95.4141C725.59 94.043 725.273 93.0293 724.652 92.373C724.043 91.7168 723.088 91.3887 721.787 91.3887C720.732 91.3887 719.807 91.6699 719.01 92.2324C718.213 92.7949 717.592 93.5332 717.146 94.4473V108H713.895V88.9805H716.971Z" fill="white"/>
<path d="M745.5 106.119C744.234 107.607 742.377 108.352 739.928 108.352C737.9 108.352 736.354 107.766 735.287 106.594C734.232 105.41 733.699 103.664 733.688 101.355V88.9805H736.939V101.268C736.939 104.15 738.111 105.592 740.455 105.592C742.939 105.592 744.592 104.666 745.412 102.814V88.9805H748.664V108H745.57L745.5 106.119ZM742.863 81H746.801L742.09 86.168H739.471L742.863 81Z" fill="white"/>
<path d="M756.68 88.9805L756.768 91.0898C758.162 89.4492 760.043 88.6289 762.41 88.6289C765.07 88.6289 766.881 89.6484 767.842 91.6875C768.475 90.7734 769.295 90.0352 770.303 89.4727C771.322 88.9102 772.523 88.6289 773.906 88.6289C778.078 88.6289 780.199 90.8379 780.27 95.2559V108H777.018V95.4492C777.018 94.0898 776.707 93.0762 776.086 92.4082C775.465 91.7285 774.422 91.3887 772.957 91.3887C771.75 91.3887 770.748 91.752 769.951 92.4785C769.154 93.1934 768.691 94.1602 768.562 95.3789V108H765.293V95.5371C765.293 92.7715 763.939 91.3887 761.232 91.3887C759.1 91.3887 757.641 92.2969 756.855 94.1133V108H753.604V88.9805H756.68Z" fill="white"/>
<path d="M793.084 108.352C790.506 108.352 788.408 107.508 786.791 105.82C785.174 104.121 784.365 101.854 784.365 99.0176V98.4199C784.365 96.5332 784.723 94.8516 785.438 93.375C786.164 91.8867 787.172 90.7266 788.461 89.8945C789.762 89.0508 791.168 88.6289 792.68 88.6289C795.152 88.6289 797.074 89.4434 798.445 91.0723C799.816 92.7012 800.502 95.0332 800.502 98.0684V99.4219H787.617C787.664 101.297 788.209 102.814 789.252 103.975C790.307 105.123 791.643 105.697 793.26 105.697C794.408 105.697 795.381 105.463 796.178 104.994C796.975 104.525 797.672 103.904 798.27 103.131L800.256 104.678C798.662 107.127 796.271 108.352 793.084 108.352ZM792.68 91.3008C791.367 91.3008 790.266 91.7812 789.375 92.7422C788.484 93.6914 787.934 95.0273 787.723 96.75H797.25V96.5039C797.156 94.8516 796.711 93.5742 795.914 92.6719C795.117 91.7578 794.039 91.3008 792.68 91.3008Z" fill="white"/>
<path d="M813.475 91.8984C812.982 91.8164 812.449 91.7754 811.875 91.7754C809.742 91.7754 808.295 92.6836 807.533 94.5V108H804.281V88.9805H807.445L807.498 91.1777C808.564 89.4785 810.076 88.6289 812.033 88.6289C812.666 88.6289 813.146 88.7109 813.475 88.875V91.8984Z" fill="white"/>
<path d="M815.268 98.3145C815.268 96.4512 815.631 94.7754 816.357 93.2871C817.096 91.7988 818.115 90.6504 819.416 89.8418C820.729 89.0332 822.223 88.6289 823.898 88.6289C826.488 88.6289 828.58 89.5254 830.174 91.3184C831.779 93.1113 832.582 95.4961 832.582 98.4727V98.7012C832.582 100.553 832.225 102.217 831.51 103.693C830.807 105.158 829.793 106.301 828.469 107.121C827.156 107.941 825.645 108.352 823.934 108.352C821.355 108.352 819.264 107.455 817.658 105.662C816.064 103.869 815.268 101.496 815.268 98.543V98.3145ZM818.537 98.7012C818.537 100.811 819.023 102.504 819.996 103.781C820.98 105.059 822.293 105.697 823.934 105.697C825.586 105.697 826.898 105.053 827.871 103.764C828.844 102.463 829.33 100.646 829.33 98.3145C829.33 96.2285 828.832 94.541 827.836 93.252C826.852 91.9512 825.539 91.3008 823.898 91.3008C822.293 91.3008 820.998 91.9395 820.014 93.2168C819.029 94.4941 818.537 96.3223 818.537 98.7012Z" fill="white"/>
<path d="M836.73 106.295C836.73 105.732 836.895 105.264 837.223 104.889C837.562 104.514 838.066 104.326 838.734 104.326C839.402 104.326 839.906 104.514 840.246 104.889C840.598 105.264 840.773 105.732 840.773 106.295C840.773 106.834 840.598 107.285 840.246 107.648C839.906 108.012 839.402 108.193 838.734 108.193C838.066 108.193 837.562 108.012 837.223 107.648C836.895 107.285 836.73 106.834 836.73 106.295Z" fill="white"/>
</g>
</g>
</g>
</svg>
