<svg viewBox="0 0 999 429" fill="none" xmlns="http://www.w3.org/2000/svg">
<g id="0120135">
<g id="claves01">
<path id="Rectangle 4" d="M57 221H273.745L307 261L273.745 301H57V221Z" fill="#E8A1EE" fill-opacity="0.1"/>
<path id="Rectangle 4 (Stroke)" fill-rule="evenodd" clip-rule="evenodd" d="M272.338 224H60V298H272.338L303.099 261L272.338 224ZM273.745 221H57V301H273.745L307 261L273.745 221Z" fill="#E8A1EE"/>
<path id="Rectangle 5" d="M61 331H277.745L311 371L277.745 411H61V331Z" fill="#E8A1EE" fill-opacity="0.1"/>
<path id="Rectangle 5 (Stroke)" fill-rule="evenodd" clip-rule="evenodd" d="M276.338 334H64V408H276.338L307.099 371L276.338 334ZM277.745 331H61V411H277.745L311 371L277.745 331Z" fill="#E8A1EE"/>
<path id="Rectangle 6" d="M397 218H613.745L647 258L613.745 298H397V218Z" fill="#E8A1EE" fill-opacity="0.1"/>
<path id="Rectangle 6 (Stroke)" fill-rule="evenodd" clip-rule="evenodd" d="M612.338 221H400V295H612.338L643.099 258L612.338 221ZM613.745 218H397V298H613.745L647 258L613.745 218Z" fill="#E8A1EE"/>
<path id="Rectangle 7" d="M400 328H616.745L650 368L616.745 408H400V328Z" fill="#E8A1EE" fill-opacity="0.1"/>
<path id="Rectangle 7 (Stroke)" fill-rule="evenodd" clip-rule="evenodd" d="M615.338 331H403V405H615.338L646.099 368L615.338 331ZM616.745 328H400V408H616.745L650 368L616.745 328Z" fill="#E8A1EE"/>
<path id="Rectangle 8" d="M743 277H959.745L993 317L959.745 357H743V277Z" fill="#E8A1EE" fill-opacity="0.1"/>
<path id="Rectangle 8 (Stroke)" fill-rule="evenodd" clip-rule="evenodd" d="M958.338 280H746V354H958.338L989.099 317L958.338 280ZM959.745 277H743V357H959.745L993 317L959.745 277Z" fill="#E8A1EE"/>
<path id="Ellipse 1" d="M98 261C98 283.091 80.0914 301 58 301C35.9086 301 18 283.091 18 261C18 238.909 35.9086 221 58 221C80.0914 221 98 238.909 98 261Z" fill="#E8A1EE"/>
<path id="Ellipse 2" d="M102 371C102 393.091 84.0914 411 62 411C39.9086 411 22 393.091 22 371C22 348.909 39.9086 331 62 331C84.0914 331 102 348.909 102 371Z" fill="#E8A1EE"/>
<path id="Ellipse 3" d="M438 258C438 280.091 420.091 298 398 298C375.909 298 358 280.091 358 258C358 235.909 375.909 218 398 218C420.091 218 438 235.909 438 258Z" fill="#E8A1EE"/>
<path id="Ellipse 4" d="M441 368C441 390.091 423.091 408 401 408C378.909 408 361 390.091 361 368C361 345.909 378.909 328 401 328C423.091 328 441 345.909 441 368Z" fill="#E8A1EE"/>
<path id="Ellipse 5" d="M784 317C784 339.091 766.091 357 744 357C721.909 357 704 339.091 704 317C704 294.909 721.909 277 744 277C766.091 277 784 294.909 784 317Z" fill="#E8A1EE"/>
<g id="Group 517">
<path id="A" d="M66.0938 271.406H48.4688L44.7812 282H36.5625L53.75 236.5H60.8438L78.0625 282H69.8125L66.0938 271.406ZM50.6875 265.031H63.875L57.2812 246.156L50.6875 265.031Z" fill="white"/>
<path id="B" d="M45.625 387V341.5H61.2188C66.3646 341.5 70.2812 342.531 72.9688 344.594C75.6562 346.656 77 349.729 77 353.812C77 355.896 76.4375 357.771 75.3125 359.438C74.1875 361.104 72.5417 362.396 70.375 363.312C72.8333 363.979 74.7292 365.24 76.0625 367.094C77.4167 368.927 78.0938 371.135 78.0938 373.719C78.0938 377.99 76.7188 381.271 73.9688 383.562C71.2396 385.854 67.3229 387 62.2188 387H45.625ZM53.5312 366.469V380.688H62.3125C64.7917 380.688 66.7292 380.073 68.125 378.844C69.5208 377.615 70.2188 375.906 70.2188 373.719C70.2188 368.99 67.8021 366.573 62.9688 366.469H53.5312ZM53.5312 360.656H61.2812C63.7396 360.656 65.6562 360.104 67.0312 359C68.4271 357.875 69.125 356.292 69.125 354.25C69.125 352 68.4792 350.375 67.1875 349.375C65.9167 348.375 63.9271 347.875 61.2188 347.875H53.5312V360.656Z" fill="white"/>
<path id="C" d="M415.344 265.188C414.885 270.042 413.094 273.833 409.969 276.562C406.844 279.271 402.688 280.625 397.5 280.625C393.875 280.625 390.677 279.771 387.906 278.062C385.156 276.333 383.031 273.885 381.531 270.719C380.031 267.552 379.25 263.875 379.188 259.688V255.438C379.188 251.146 379.948 247.365 381.469 244.094C382.99 240.823 385.167 238.302 388 236.531C390.854 234.76 394.146 233.875 397.875 233.875C402.896 233.875 406.938 235.24 410 237.969C413.062 240.698 414.844 244.552 415.344 249.531H407.469C407.094 246.26 406.135 243.906 404.594 242.469C403.073 241.01 400.833 240.281 397.875 240.281C394.438 240.281 391.792 241.542 389.938 244.062C388.104 246.562 387.167 250.24 387.125 255.094V259.125C387.125 264.042 388 267.792 389.75 270.375C391.521 272.958 394.104 274.25 397.5 274.25C400.604 274.25 402.938 273.552 404.5 272.156C406.062 270.76 407.052 268.438 407.469 265.188H415.344Z" fill="white"/>
<path id="D" d="M383.625 390V344.5H397.062C401.083 344.5 404.646 345.396 407.75 347.188C410.875 348.979 413.292 351.521 415 354.812C416.708 358.104 417.562 361.875 417.562 366.125V368.406C417.562 372.719 416.698 376.51 414.969 379.781C413.26 383.052 410.812 385.573 407.625 387.344C404.458 389.115 400.823 390 396.719 390H383.625ZM391.531 350.875V383.688H396.688C400.833 383.688 404.01 382.396 406.219 379.812C408.448 377.208 409.583 373.479 409.625 368.625V366.094C409.625 361.156 408.552 357.385 406.406 354.781C404.26 352.177 401.146 350.875 397.062 350.875H391.531Z" fill="white"/>
<path id="E" d="M753.219 318.688H734.531V332.688H756.375V339H726.625V293.5H756.156V299.875H734.531V312.438H753.219V318.688Z" fill="white"/>
</g>
<g id="flecha">
<path id="Rectangle 2" d="M411.2 332.008L426.482 340.133L384.5 419.089L369.219 410.963L411.2 332.008Z" fill="#1043F5"/>
<path id="Rectangle 1" d="M353 344.904L443 295V352.692L398 335.096L353 344.904Z" fill="#1043F5"/>
<path id="Rectangle 3" d="M357.038 414.21L372.665 387.143L389.936 386.565L374.309 413.632L357.038 414.21Z" fill="#1043F5"/>
<path id="Rectangle 4_2" d="M383.09 428.845L398.717 401.778L389.926 386.154L374.299 413.221L383.09 428.845Z" fill="#1043F5"/>
</g>
<g id="Group 516">
<text id="10" fill="#E8A1EE" xml:space="preserve" style="white-space: pre" font-family="Roboto" font-size="42" font-weight="500" letter-spacing="0em"><tspan x="157" y="384.855">10</tspan></text>
<text id="6" fill="#E8A1EE" xml:space="preserve" style="white-space: pre" font-family="Roboto" font-size="42" font-weight="500" letter-spacing="0em"><tspan x="157" y="272.855">6</tspan></text>
<text id="8" fill="#E8A1EE" xml:space="preserve" style="white-space: pre" font-family="Roboto" font-size="42" font-weight="500" letter-spacing="0em"><tspan x="505" y="270.855">8</tspan></text>
<text id="14" fill="#E8A1EE" xml:space="preserve" style="white-space: pre" font-family="Roboto" font-size="42" font-weight="500" letter-spacing="0em"><tspan x="838" y="333.855">14</tspan></text>
<text id="12" fill="#E8A1EE" xml:space="preserve" style="white-space: pre" font-family="Roboto" font-size="42" font-weight="500" letter-spacing="0em"><tspan x="501" y="388.855">12</tspan></text>
</g>
</g>
<g id="enun01">
<path id="Rectangle 1_2" d="M53 0H925.488L999 90.6763L925.488 184H53V0Z" fill="#02071A"/>
<path id="Rectangle 1 (Stroke)" fill-rule="evenodd" clip-rule="evenodd" d="M923.581 4H57V180H923.547L993.88 90.7122L923.581 4ZM925.488 0H53V184H925.488L999 90.6763L925.488 0Z" fill="#E8A1EE"/>
<path id="Ellipse 1_2" d="M100 83C100 110.614 77.6142 133 50 133C22.3858 133 0 110.614 0 83C0 55.3858 22.3858 33 50 33C77.6142 33 100 55.3858 100 83Z" fill="#E8A1EE"/>
<path id="Ellipse 1 (Stroke)" fill-rule="evenodd" clip-rule="evenodd" d="M50 132C77.062 132 99 110.062 99 83C99 55.938 77.062 34 50 34C22.938 34 1 55.938 1 83C1 110.062 22.938 132 50 132ZM50 133C77.6142 133 100 110.614 100 83C100 55.3858 77.6142 33 50 33C22.3858 33 0 55.3858 0 83C0 110.614 22.3858 133 50 133Z" fill="#E8A1EE"/>
<g id="Determina el largo de un rect&#195;&#161;ngulo cuyo per&#195;&#173;metro es 36 cm si se sabe que el largo es el doble de su ancho.">
<path d="M117.971 66V40.4062H125.195C127.422 40.4062 129.391 40.8984 131.102 41.8828C132.812 42.8672 134.131 44.2676 135.057 46.084C135.994 47.9004 136.469 49.9863 136.48 52.3418V53.9766C136.48 56.3906 136.012 58.5059 135.074 60.3223C134.148 62.1387 132.818 63.5332 131.084 64.5059C129.361 65.4785 127.352 65.9766 125.055 66H117.971ZM121.346 43.1836V63.2402H124.896C127.498 63.2402 129.52 62.4316 130.961 60.8145C132.414 59.1973 133.141 56.8945 133.141 53.9062V52.4121C133.141 49.5059 132.455 47.25 131.084 45.6445C129.725 44.0273 127.791 43.207 125.283 43.1836H121.346Z" fill="white"/>
<path d="M148.979 66.3516C146.4 66.3516 144.303 65.5078 142.686 63.8203C141.068 62.1211 140.26 59.8535 140.26 57.0176V56.4199C140.26 54.5332 140.617 52.8516 141.332 51.375C142.059 49.8867 143.066 48.7266 144.355 47.8945C145.656 47.0508 147.062 46.6289 148.574 46.6289C151.047 46.6289 152.969 47.4434 154.34 49.0723C155.711 50.7012 156.396 53.0332 156.396 56.0684V57.4219H143.512C143.559 59.2969 144.104 60.8145 145.146 61.9746C146.201 63.123 147.537 63.6973 149.154 63.6973C150.303 63.6973 151.275 63.4629 152.072 62.9941C152.869 62.5254 153.566 61.9043 154.164 61.1309L156.15 62.6777C154.557 65.127 152.166 66.3516 148.979 66.3516ZM148.574 49.3008C147.262 49.3008 146.16 49.7812 145.27 50.7422C144.379 51.6914 143.828 53.0273 143.617 54.75H153.145V54.5039C153.051 52.8516 152.605 51.5742 151.809 50.6719C151.012 49.7578 149.934 49.3008 148.574 49.3008Z" fill="white"/>
<path d="M164.588 42.375V46.9805H168.139V49.4941H164.588V61.2891C164.588 62.0508 164.746 62.625 165.062 63.0117C165.379 63.3867 165.918 63.5742 166.68 63.5742C167.055 63.5742 167.57 63.5039 168.227 63.3633V66C167.371 66.2344 166.539 66.3516 165.73 66.3516C164.277 66.3516 163.182 65.9121 162.443 65.0332C161.705 64.1543 161.336 62.9062 161.336 61.2891V49.4941H157.873V46.9805H161.336V42.375H164.588Z" fill="white"/>
<path d="M179.846 66.3516C177.268 66.3516 175.17 65.5078 173.553 63.8203C171.936 62.1211 171.127 59.8535 171.127 57.0176V56.4199C171.127 54.5332 171.484 52.8516 172.199 51.375C172.926 49.8867 173.934 48.7266 175.223 47.8945C176.523 47.0508 177.93 46.6289 179.441 46.6289C181.914 46.6289 183.836 47.4434 185.207 49.0723C186.578 50.7012 187.264 53.0332 187.264 56.0684V57.4219H174.379C174.426 59.2969 174.971 60.8145 176.014 61.9746C177.068 63.123 178.404 63.6973 180.021 63.6973C181.17 63.6973 182.143 63.4629 182.939 62.9941C183.736 62.5254 184.434 61.9043 185.031 61.1309L187.018 62.6777C185.424 65.127 183.033 66.3516 179.846 66.3516ZM179.441 49.3008C178.129 49.3008 177.027 49.7812 176.137 50.7422C175.246 51.6914 174.695 53.0273 174.484 54.75H184.012V54.5039C183.918 52.8516 183.473 51.5742 182.676 50.6719C181.879 49.7578 180.801 49.3008 179.441 49.3008Z" fill="white"/>
<path d="M200.236 49.8984C199.744 49.8164 199.211 49.7754 198.637 49.7754C196.504 49.7754 195.057 50.6836 194.295 52.5V66H191.043V46.9805H194.207L194.26 49.1777C195.326 47.4785 196.838 46.6289 198.795 46.6289C199.428 46.6289 199.908 46.7109 200.236 46.875V49.8984Z" fill="white"/>
<path d="M206.301 46.9805L206.389 49.0898C207.783 47.4492 209.664 46.6289 212.031 46.6289C214.691 46.6289 216.502 47.6484 217.463 49.6875C218.096 48.7734 218.916 48.0352 219.924 47.4727C220.943 46.9102 222.145 46.6289 223.527 46.6289C227.699 46.6289 229.82 48.8379 229.891 53.2559V66H226.639V53.4492C226.639 52.0898 226.328 51.0762 225.707 50.4082C225.086 49.7285 224.043 49.3887 222.578 49.3887C221.371 49.3887 220.369 49.752 219.572 50.4785C218.775 51.1934 218.312 52.1602 218.184 53.3789V66H214.914V53.5371C214.914 50.7715 213.561 49.3887 210.854 49.3887C208.721 49.3887 207.262 50.2969 206.477 52.1133V66H203.225V46.9805H206.301Z" fill="white"/>
<path d="M238.346 66H235.094V46.9805H238.346V66ZM234.83 41.9355C234.83 41.4082 234.988 40.9629 235.305 40.5996C235.633 40.2363 236.113 40.0547 236.746 40.0547C237.379 40.0547 237.859 40.2363 238.188 40.5996C238.516 40.9629 238.68 41.4082 238.68 41.9355C238.68 42.4629 238.516 42.9023 238.188 43.2539C237.859 43.6055 237.379 43.7812 236.746 43.7812C236.113 43.7812 235.633 43.6055 235.305 43.2539C234.988 42.9023 234.83 42.4629 234.83 41.9355Z" fill="white"/>
<path d="M246.643 46.9805L246.748 49.3711C248.201 47.543 250.1 46.6289 252.443 46.6289C256.463 46.6289 258.49 48.8965 258.525 53.4316V66H255.273V53.4141C255.262 52.043 254.945 51.0293 254.324 50.373C253.715 49.7168 252.76 49.3887 251.459 49.3887C250.404 49.3887 249.479 49.6699 248.682 50.2324C247.885 50.7949 247.264 51.5332 246.818 52.4473V66H243.566V46.9805H246.643Z" fill="white"/>
<path d="M275.172 66C274.984 65.625 274.832 64.957 274.715 63.9961C273.203 65.5664 271.398 66.3516 269.301 66.3516C267.426 66.3516 265.885 65.8242 264.678 64.7695C263.482 63.7031 262.885 62.3555 262.885 60.7266C262.885 58.7461 263.635 57.2109 265.135 56.1211C266.646 55.0195 268.768 54.4688 271.498 54.4688H274.662V52.9746C274.662 51.8379 274.322 50.9355 273.643 50.2676C272.963 49.5879 271.961 49.248 270.637 49.248C269.477 49.248 268.504 49.541 267.719 50.127C266.934 50.7129 266.541 51.4219 266.541 52.2539H263.271C263.271 51.3047 263.605 50.3906 264.273 49.5117C264.953 48.6211 265.867 47.918 267.016 47.4023C268.176 46.8867 269.447 46.6289 270.83 46.6289C273.021 46.6289 274.738 47.1797 275.98 48.2812C277.223 49.3711 277.867 50.877 277.914 52.7988V61.5527C277.914 63.2988 278.137 64.6875 278.582 65.7188V66H275.172ZM269.775 63.5215C270.795 63.5215 271.762 63.2578 272.676 62.7305C273.59 62.2031 274.252 61.5176 274.662 60.6738V56.7715H272.113C268.129 56.7715 266.137 57.9375 266.137 60.2695C266.137 61.2891 266.477 62.0859 267.156 62.6602C267.836 63.2344 268.709 63.5215 269.775 63.5215Z" fill="white"/>
<path d="M299.834 66.3516C297.256 66.3516 295.158 65.5078 293.541 63.8203C291.924 62.1211 291.115 59.8535 291.115 57.0176V56.4199C291.115 54.5332 291.473 52.8516 292.188 51.375C292.914 49.8867 293.922 48.7266 295.211 47.8945C296.512 47.0508 297.918 46.6289 299.43 46.6289C301.902 46.6289 303.824 47.4434 305.195 49.0723C306.566 50.7012 307.252 53.0332 307.252 56.0684V57.4219H294.367C294.414 59.2969 294.959 60.8145 296.002 61.9746C297.057 63.123 298.393 63.6973 300.01 63.6973C301.158 63.6973 302.131 63.4629 302.928 62.9941C303.725 62.5254 304.422 61.9043 305.02 61.1309L307.006 62.6777C305.412 65.127 303.021 66.3516 299.834 66.3516ZM299.43 49.3008C298.117 49.3008 297.016 49.7812 296.125 50.7422C295.234 51.6914 294.684 53.0273 294.473 54.75H304V54.5039C303.906 52.8516 303.461 51.5742 302.664 50.6719C301.867 49.7578 300.789 49.3008 299.43 49.3008Z" fill="white"/>
<path d="M314.564 66H311.312V39H314.564V66Z" fill="white"/>
<path d="M332.248 66H328.996V39H332.248V66Z" fill="white"/>
<path d="M349.211 66C349.023 65.625 348.871 64.957 348.754 63.9961C347.242 65.5664 345.438 66.3516 343.34 66.3516C341.465 66.3516 339.924 65.8242 338.717 64.7695C337.521 63.7031 336.924 62.3555 336.924 60.7266C336.924 58.7461 337.674 57.2109 339.174 56.1211C340.686 55.0195 342.807 54.4688 345.537 54.4688H348.701V52.9746C348.701 51.8379 348.361 50.9355 347.682 50.2676C347.002 49.5879 346 49.248 344.676 49.248C343.516 49.248 342.543 49.541 341.758 50.127C340.973 50.7129 340.58 51.4219 340.58 52.2539H337.311C337.311 51.3047 337.645 50.3906 338.312 49.5117C338.992 48.6211 339.906 47.918 341.055 47.4023C342.215 46.8867 343.486 46.6289 344.869 46.6289C347.061 46.6289 348.777 47.1797 350.02 48.2812C351.262 49.3711 351.906 50.877 351.953 52.7988V61.5527C351.953 63.2988 352.176 64.6875 352.621 65.7188V66H349.211ZM343.814 63.5215C344.834 63.5215 345.801 63.2578 346.715 62.7305C347.629 62.2031 348.291 61.5176 348.701 60.6738V56.7715H346.152C342.168 56.7715 340.176 57.9375 340.176 60.2695C340.176 61.2891 340.516 62.0859 341.195 62.6602C341.875 63.2344 342.748 63.5215 343.814 63.5215Z" fill="white"/>
<path d="M366.244 49.8984C365.752 49.8164 365.219 49.7754 364.645 49.7754C362.512 49.7754 361.064 50.6836 360.303 52.5V66H357.051V46.9805H360.215L360.268 49.1777C361.334 47.4785 362.846 46.6289 364.803 46.6289C365.436 46.6289 365.916 46.7109 366.244 46.875V49.8984Z" fill="white"/>
<path d="M368.125 56.332C368.125 53.3672 368.811 51.0117 370.182 49.2656C371.553 47.5078 373.369 46.6289 375.631 46.6289C377.951 46.6289 379.762 47.4492 381.062 49.0898L381.221 46.9805H384.191V65.543C384.191 68.0039 383.459 69.9434 381.994 71.3613C380.541 72.7793 378.584 73.4883 376.123 73.4883C374.752 73.4883 373.41 73.1953 372.098 72.6094C370.785 72.0234 369.783 71.2207 369.092 70.2012L370.779 68.25C372.174 69.9727 373.879 70.834 375.895 70.834C377.477 70.834 378.707 70.3887 379.586 69.498C380.477 68.6074 380.922 67.3535 380.922 65.7363V64.1016C379.621 65.6016 377.846 66.3516 375.596 66.3516C373.369 66.3516 371.564 65.4551 370.182 63.6621C368.811 61.8691 368.125 59.4258 368.125 56.332ZM371.395 56.7012C371.395 58.8457 371.834 60.5332 372.713 61.7637C373.592 62.9824 374.822 63.5918 376.404 63.5918C378.455 63.5918 379.961 62.6602 380.922 60.7969V52.1133C379.926 50.2969 378.432 49.3887 376.439 49.3887C374.857 49.3887 373.621 50.0039 372.73 51.2344C371.84 52.4648 371.395 54.2871 371.395 56.7012Z" fill="white"/>
<path d="M388.252 56.3145C388.252 54.4512 388.615 52.7754 389.342 51.2871C390.08 49.7988 391.1 48.6504 392.4 47.8418C393.713 47.0332 395.207 46.6289 396.883 46.6289C399.473 46.6289 401.564 47.5254 403.158 49.3184C404.764 51.1113 405.566 53.4961 405.566 56.4727V56.7012C405.566 58.5527 405.209 60.2168 404.494 61.6934C403.791 63.1582 402.777 64.3008 401.453 65.1211C400.141 65.9414 398.629 66.3516 396.918 66.3516C394.34 66.3516 392.248 65.4551 390.643 63.6621C389.049 61.8691 388.252 59.4961 388.252 56.543V56.3145ZM391.521 56.7012C391.521 58.8105 392.008 60.5039 392.98 61.7812C393.965 63.0586 395.277 63.6973 396.918 63.6973C398.57 63.6973 399.883 63.0527 400.855 61.7637C401.828 60.4629 402.314 58.6465 402.314 56.3145C402.314 54.2285 401.816 52.541 400.82 51.252C399.836 49.9512 398.523 49.3008 396.883 49.3008C395.277 49.3008 393.982 49.9395 392.998 51.2168C392.014 52.4941 391.521 54.3223 391.521 56.7012Z" fill="white"/>
<path d="M417.783 56.332C417.783 53.4141 418.475 51.0703 419.857 49.3008C421.24 47.5195 423.051 46.6289 425.289 46.6289C427.516 46.6289 429.279 47.3906 430.58 48.9141V39H433.832V66H430.844L430.686 63.9609C429.385 65.5547 427.574 66.3516 425.254 66.3516C423.051 66.3516 421.252 65.4492 419.857 63.6445C418.475 61.8398 417.783 59.4844 417.783 56.5781V56.332ZM421.035 56.7012C421.035 58.8574 421.48 60.5449 422.371 61.7637C423.262 62.9824 424.492 63.5918 426.062 63.5918C428.125 63.5918 429.631 62.666 430.58 60.8145V52.0781C429.607 50.2852 428.113 49.3887 426.098 49.3887C424.504 49.3887 423.262 50.0039 422.371 51.2344C421.48 52.4648 421.035 54.2871 421.035 56.7012Z" fill="white"/>
<path d="M446.787 66.3516C444.209 66.3516 442.111 65.5078 440.494 63.8203C438.877 62.1211 438.068 59.8535 438.068 57.0176V56.4199C438.068 54.5332 438.426 52.8516 439.141 51.375C439.867 49.8867 440.875 48.7266 442.164 47.8945C443.465 47.0508 444.871 46.6289 446.383 46.6289C448.855 46.6289 450.777 47.4434 452.148 49.0723C453.52 50.7012 454.205 53.0332 454.205 56.0684V57.4219H441.32C441.367 59.2969 441.912 60.8145 442.955 61.9746C444.01 63.123 445.346 63.6973 446.963 63.6973C448.111 63.6973 449.084 63.4629 449.881 62.9941C450.678 62.5254 451.375 61.9043 451.973 61.1309L453.959 62.6777C452.365 65.127 449.975 66.3516 446.787 66.3516ZM446.383 49.3008C445.07 49.3008 443.969 49.7812 443.078 50.7422C442.188 51.6914 441.637 53.0273 441.426 54.75H450.953V54.5039C450.859 52.8516 450.414 51.5742 449.617 50.6719C448.82 49.7578 447.742 49.3008 446.383 49.3008Z" fill="white"/>
<path d="M478.656 64.1191C477.391 65.6074 475.533 66.3516 473.084 66.3516C471.057 66.3516 469.51 65.7656 468.443 64.5938C467.389 63.4102 466.855 61.6641 466.844 59.3555V46.9805H470.096V59.2676C470.096 62.1504 471.268 63.5918 473.611 63.5918C476.096 63.5918 477.748 62.666 478.568 60.8145V46.9805H481.82V66H478.727L478.656 64.1191Z" fill="white"/>
<path d="M489.854 46.9805L489.959 49.3711C491.412 47.543 493.311 46.6289 495.654 46.6289C499.674 46.6289 501.701 48.8965 501.736 53.4316V66H498.484V53.4141C498.473 52.043 498.156 51.0293 497.535 50.373C496.926 49.7168 495.971 49.3887 494.67 49.3887C493.615 49.3887 492.689 49.6699 491.893 50.2324C491.096 50.7949 490.475 51.5332 490.029 52.4473V66H486.777V46.9805H489.854Z" fill="white"/>
<path d="M524.764 49.8984C524.271 49.8164 523.738 49.7754 523.164 49.7754C521.031 49.7754 519.584 50.6836 518.822 52.5V66H515.57V46.9805H518.734L518.787 49.1777C519.854 47.4785 521.365 46.6289 523.322 46.6289C523.955 46.6289 524.436 46.7109 524.764 46.875V49.8984Z" fill="white"/>
<path d="M535.311 66.3516C532.732 66.3516 530.635 65.5078 529.018 63.8203C527.4 62.1211 526.592 59.8535 526.592 57.0176V56.4199C526.592 54.5332 526.949 52.8516 527.664 51.375C528.391 49.8867 529.398 48.7266 530.688 47.8945C531.988 47.0508 533.395 46.6289 534.906 46.6289C537.379 46.6289 539.301 47.4434 540.672 49.0723C542.043 50.7012 542.729 53.0332 542.729 56.0684V57.4219H529.844C529.891 59.2969 530.436 60.8145 531.479 61.9746C532.533 63.123 533.869 63.6973 535.486 63.6973C536.635 63.6973 537.607 63.4629 538.404 62.9941C539.201 62.5254 539.898 61.9043 540.496 61.1309L542.482 62.6777C540.889 65.127 538.498 66.3516 535.311 66.3516ZM534.906 49.3008C533.594 49.3008 532.492 49.7812 531.602 50.7422C530.711 51.6914 530.16 53.0273 529.949 54.75H539.477V54.5039C539.383 52.8516 538.938 51.5742 538.141 50.6719C537.344 49.7578 536.266 49.3008 534.906 49.3008Z" fill="white"/>
<path d="M554.137 63.6973C555.297 63.6973 556.311 63.3457 557.178 62.6426C558.045 61.9395 558.525 61.0605 558.619 60.0059H561.695C561.637 61.0957 561.262 62.1328 560.57 63.1172C559.879 64.1016 558.953 64.8867 557.793 65.4727C556.645 66.0586 555.426 66.3516 554.137 66.3516C551.547 66.3516 549.484 65.4902 547.949 63.7676C546.426 62.0332 545.664 59.666 545.664 56.666V56.1211C545.664 54.2695 546.004 52.623 546.684 51.1816C547.363 49.7402 548.336 48.6211 549.602 47.8242C550.879 47.0273 552.385 46.6289 554.119 46.6289C556.252 46.6289 558.021 47.2676 559.428 48.5449C560.846 49.8223 561.602 51.4805 561.695 53.5195H558.619C558.525 52.2891 558.057 51.2812 557.213 50.4961C556.381 49.6992 555.35 49.3008 554.119 49.3008C552.467 49.3008 551.184 49.8984 550.27 51.0938C549.367 52.2773 548.916 53.9941 548.916 56.2441V56.8594C548.916 59.0508 549.367 60.7383 550.27 61.9219C551.172 63.1055 552.461 63.6973 554.137 63.6973Z" fill="white"/>
<path d="M569.764 42.375V46.9805H573.314V49.4941H569.764V61.2891C569.764 62.0508 569.922 62.625 570.238 63.0117C570.555 63.3867 571.094 63.5742 571.855 63.5742C572.23 63.5742 572.746 63.5039 573.402 63.3633V66C572.547 66.2344 571.715 66.3516 570.906 66.3516C569.453 66.3516 568.357 65.9121 567.619 65.0332C566.881 64.1543 566.512 62.9062 566.512 61.2891V49.4941H563.049V46.9805H566.512V42.375H569.764Z" fill="white"/>
<path d="M588.871 66C588.684 65.625 588.531 64.957 588.414 63.9961C586.902 65.5664 585.098 66.3516 583 66.3516C581.125 66.3516 579.584 65.8242 578.377 64.7695C577.182 63.7031 576.584 62.3555 576.584 60.7266C576.584 58.7461 577.334 57.2109 578.834 56.1211C580.346 55.0195 582.467 54.4688 585.197 54.4688H588.361V52.9746C588.361 51.8379 588.021 50.9355 587.342 50.2676C586.662 49.5879 585.66 49.248 584.336 49.248C583.176 49.248 582.203 49.541 581.418 50.127C580.633 50.7129 580.24 51.4219 580.24 52.2539H576.971C576.971 51.3047 577.305 50.3906 577.973 49.5117C578.652 48.6211 579.566 47.918 580.715 47.4023C581.875 46.8867 583.146 46.6289 584.529 46.6289C586.721 46.6289 588.438 47.1797 589.68 48.2812C590.922 49.3711 591.566 50.877 591.613 52.7988V61.5527C591.613 63.2988 591.836 64.6875 592.281 65.7188V66H588.871ZM583.475 63.5215C584.494 63.5215 585.461 63.2578 586.375 62.7305C587.289 62.2031 587.951 61.5176 588.361 60.6738V56.7715H585.812C581.828 56.7715 579.836 57.9375 579.836 60.2695C579.836 61.2891 580.176 62.0859 580.855 62.6602C581.535 63.2344 582.408 63.5215 583.475 63.5215ZM586.48 39H590.418L585.707 44.168H583.088L586.48 39Z" fill="white"/>
<path d="M599.787 46.9805L599.893 49.3711C601.346 47.543 603.244 46.6289 605.588 46.6289C609.607 46.6289 611.635 48.8965 611.67 53.4316V66H608.418V53.4141C608.406 52.043 608.09 51.0293 607.469 50.373C606.859 49.7168 605.904 49.3887 604.604 49.3887C603.549 49.3887 602.623 49.6699 601.826 50.2324C601.029 50.7949 600.408 51.5332 599.963 52.4473V66H596.711V46.9805H599.787Z" fill="white"/>
<path d="M615.801 56.332C615.801 53.3672 616.486 51.0117 617.857 49.2656C619.229 47.5078 621.045 46.6289 623.307 46.6289C625.627 46.6289 627.438 47.4492 628.738 49.0898L628.896 46.9805H631.867V65.543C631.867 68.0039 631.135 69.9434 629.67 71.3613C628.217 72.7793 626.26 73.4883 623.799 73.4883C622.428 73.4883 621.086 73.1953 619.773 72.6094C618.461 72.0234 617.459 71.2207 616.768 70.2012L618.455 68.25C619.85 69.9727 621.555 70.834 623.57 70.834C625.152 70.834 626.383 70.3887 627.262 69.498C628.152 68.6074 628.598 67.3535 628.598 65.7363V64.1016C627.297 65.6016 625.521 66.3516 623.271 66.3516C621.045 66.3516 619.24 65.4551 617.857 63.6621C616.486 61.8691 615.801 59.4258 615.801 56.332ZM619.07 56.7012C619.07 58.8457 619.51 60.5332 620.389 61.7637C621.268 62.9824 622.498 63.5918 624.08 63.5918C626.131 63.5918 627.637 62.6602 628.598 60.7969V52.1133C627.602 50.2969 626.107 49.3887 624.115 49.3887C622.533 49.3887 621.297 50.0039 620.406 51.2344C619.516 52.4648 619.07 54.2871 619.07 56.7012Z" fill="white"/>
<path d="M648.531 64.1191C647.266 65.6074 645.408 66.3516 642.959 66.3516C640.932 66.3516 639.385 65.7656 638.318 64.5938C637.264 63.4102 636.73 61.6641 636.719 59.3555V46.9805H639.971V59.2676C639.971 62.1504 641.143 63.5918 643.486 63.5918C645.971 63.5918 647.623 62.666 648.443 60.8145V46.9805H651.695V66H648.602L648.531 64.1191Z" fill="white"/>
<path d="M660.186 66H656.934V39H660.186V66Z" fill="white"/>
<path d="M664.545 56.3145C664.545 54.4512 664.908 52.7754 665.635 51.2871C666.373 49.7988 667.393 48.6504 668.693 47.8418C670.006 47.0332 671.5 46.6289 673.176 46.6289C675.766 46.6289 677.857 47.5254 679.451 49.3184C681.057 51.1113 681.859 53.4961 681.859 56.4727V56.7012C681.859 58.5527 681.502 60.2168 680.787 61.6934C680.084 63.1582 679.07 64.3008 677.746 65.1211C676.434 65.9414 674.922 66.3516 673.211 66.3516C670.633 66.3516 668.541 65.4551 666.936 63.6621C665.342 61.8691 664.545 59.4961 664.545 56.543V56.3145ZM667.814 56.7012C667.814 58.8105 668.301 60.5039 669.273 61.7812C670.258 63.0586 671.57 63.6973 673.211 63.6973C674.863 63.6973 676.176 63.0527 677.148 61.7637C678.121 60.4629 678.607 58.6465 678.607 56.3145C678.607 54.2285 678.109 52.541 677.113 51.252C676.129 49.9512 674.816 49.3008 673.176 49.3008C671.57 49.3008 670.275 49.9395 669.291 51.2168C668.307 52.4941 667.814 54.3223 667.814 56.7012Z" fill="white"/>
<path d="M702.496 63.6973C703.656 63.6973 704.67 63.3457 705.537 62.6426C706.404 61.9395 706.885 61.0605 706.979 60.0059H710.055C709.996 61.0957 709.621 62.1328 708.93 63.1172C708.238 64.1016 707.312 64.8867 706.152 65.4727C705.004 66.0586 703.785 66.3516 702.496 66.3516C699.906 66.3516 697.844 65.4902 696.309 63.7676C694.785 62.0332 694.023 59.666 694.023 56.666V56.1211C694.023 54.2695 694.363 52.623 695.043 51.1816C695.723 49.7402 696.695 48.6211 697.961 47.8242C699.238 47.0273 700.744 46.6289 702.479 46.6289C704.611 46.6289 706.381 47.2676 707.787 48.5449C709.205 49.8223 709.961 51.4805 710.055 53.5195H706.979C706.885 52.2891 706.416 51.2812 705.572 50.4961C704.74 49.6992 703.709 49.3008 702.479 49.3008C700.826 49.3008 699.543 49.8984 698.629 51.0938C697.727 52.2773 697.275 53.9941 697.275 56.2441V56.8594C697.275 59.0508 697.727 60.7383 698.629 61.9219C699.531 63.1055 700.82 63.6973 702.496 63.6973Z" fill="white"/>
<path d="M725.453 64.1191C724.188 65.6074 722.33 66.3516 719.881 66.3516C717.854 66.3516 716.307 65.7656 715.24 64.5938C714.186 63.4102 713.652 61.6641 713.641 59.3555V46.9805H716.893V59.2676C716.893 62.1504 718.064 63.5918 720.408 63.5918C722.893 63.5918 724.545 62.666 725.365 60.8145V46.9805H728.617V66H725.523L725.453 64.1191Z" fill="white"/>
<path d="M739.797 61.2363L744.227 46.9805H747.707L740.061 68.9355C738.877 72.0996 736.996 73.6816 734.418 73.6816L733.803 73.6289L732.59 73.4004V70.7637L733.469 70.834C734.57 70.834 735.426 70.6113 736.035 70.166C736.656 69.7207 737.166 68.9062 737.564 67.7227L738.285 65.7891L731.5 46.9805H735.051L739.797 61.2363Z" fill="white"/>
<path d="M749.482 56.3145C749.482 54.4512 749.846 52.7754 750.572 51.2871C751.311 49.7988 752.33 48.6504 753.631 47.8418C754.943 47.0332 756.438 46.6289 758.113 46.6289C760.703 46.6289 762.795 47.5254 764.389 49.3184C765.994 51.1113 766.797 53.4961 766.797 56.4727V56.7012C766.797 58.5527 766.439 60.2168 765.725 61.6934C765.021 63.1582 764.008 64.3008 762.684 65.1211C761.371 65.9414 759.859 66.3516 758.148 66.3516C755.57 66.3516 753.479 65.4551 751.873 63.6621C750.279 61.8691 749.482 59.4961 749.482 56.543V56.3145ZM752.752 56.7012C752.752 58.8105 753.238 60.5039 754.211 61.7812C755.195 63.0586 756.508 63.6973 758.148 63.6973C759.801 63.6973 761.113 63.0527 762.086 61.7637C763.059 60.4629 763.545 58.6465 763.545 56.3145C763.545 54.2285 763.047 52.541 762.051 51.252C761.066 49.9512 759.754 49.3008 758.113 49.3008C756.508 49.3008 755.213 49.9395 754.229 51.2168C753.244 52.4941 752.752 54.3223 752.752 56.7012Z" fill="white"/>
<path d="M795.871 56.7012C795.871 59.5957 795.209 61.9277 793.885 63.6973C792.561 65.4668 790.768 66.3516 788.506 66.3516C786.197 66.3516 784.381 65.6191 783.057 64.1543V73.3125H779.805V46.9805H782.775L782.934 49.0898C784.258 47.4492 786.098 46.6289 788.453 46.6289C790.738 46.6289 792.543 47.4902 793.867 49.2129C795.203 50.9355 795.871 53.332 795.871 56.4023V56.7012ZM792.619 56.332C792.619 54.1875 792.162 52.4941 791.248 51.252C790.334 50.0098 789.08 49.3887 787.486 49.3887C785.518 49.3887 784.041 50.2617 783.057 52.0078V61.0957C784.029 62.8301 785.518 63.6973 787.521 63.6973C789.08 63.6973 790.316 63.082 791.23 61.8516C792.156 60.6094 792.619 58.7695 792.619 56.332Z" fill="white"/>
<path d="M807.912 66.3516C805.334 66.3516 803.236 65.5078 801.619 63.8203C800.002 62.1211 799.193 59.8535 799.193 57.0176V56.4199C799.193 54.5332 799.551 52.8516 800.266 51.375C800.992 49.8867 802 48.7266 803.289 47.8945C804.59 47.0508 805.996 46.6289 807.508 46.6289C809.98 46.6289 811.902 47.4434 813.273 49.0723C814.645 50.7012 815.33 53.0332 815.33 56.0684V57.4219H802.445C802.492 59.2969 803.037 60.8145 804.08 61.9746C805.135 63.123 806.471 63.6973 808.088 63.6973C809.236 63.6973 810.209 63.4629 811.006 62.9941C811.803 62.5254 812.5 61.9043 813.098 61.1309L815.084 62.6777C813.49 65.127 811.1 66.3516 807.912 66.3516ZM807.508 49.3008C806.195 49.3008 805.094 49.7812 804.203 50.7422C803.312 51.6914 802.762 53.0273 802.551 54.75H812.078V54.5039C811.984 52.8516 811.539 51.5742 810.742 50.6719C809.945 49.7578 808.867 49.3008 807.508 49.3008Z" fill="white"/>
<path d="M828.303 49.8984C827.811 49.8164 827.277 49.7754 826.703 49.7754C824.57 49.7754 823.123 50.6836 822.361 52.5V66H819.109V46.9805H822.273L822.326 49.1777C823.393 47.4785 824.904 46.6289 826.861 46.6289C827.494 46.6289 827.975 46.7109 828.303 46.875V49.8984Z" fill="white"/>
<path d="M834.842 66H831.572V46.9805H834.842V66ZM834.877 39.0176H838.814L834.104 44.1855H831.484L834.877 39.0176Z" fill="white"/>
<path d="M843.262 46.9805L843.35 49.0898C844.744 47.4492 846.625 46.6289 848.992 46.6289C851.652 46.6289 853.463 47.6484 854.424 49.6875C855.057 48.7734 855.877 48.0352 856.885 47.4727C857.904 46.9102 859.105 46.6289 860.488 46.6289C864.66 46.6289 866.781 48.8379 866.852 53.2559V66H863.6V53.4492C863.6 52.0898 863.289 51.0762 862.668 50.4082C862.047 49.7285 861.004 49.3887 859.539 49.3887C858.332 49.3887 857.33 49.752 856.533 50.4785C855.736 51.1934 855.273 52.1602 855.145 53.3789V66H851.875V53.5371C851.875 50.7715 850.521 49.3887 847.814 49.3887C845.682 49.3887 844.223 50.2969 843.438 52.1133V66H840.186V46.9805H843.262Z" fill="white"/>
<path d="M879.666 66.3516C877.088 66.3516 874.99 65.5078 873.373 63.8203C871.756 62.1211 870.947 59.8535 870.947 57.0176V56.4199C870.947 54.5332 871.305 52.8516 872.02 51.375C872.746 49.8867 873.754 48.7266 875.043 47.8945C876.344 47.0508 877.75 46.6289 879.262 46.6289C881.734 46.6289 883.656 47.4434 885.027 49.0723C886.398 50.7012 887.084 53.0332 887.084 56.0684V57.4219H874.199C874.246 59.2969 874.791 60.8145 875.834 61.9746C876.889 63.123 878.225 63.6973 879.842 63.6973C880.99 63.6973 881.963 63.4629 882.76 62.9941C883.557 62.5254 884.254 61.9043 884.852 61.1309L886.838 62.6777C885.244 65.127 882.854 66.3516 879.666 66.3516ZM879.262 49.3008C877.949 49.3008 876.848 49.7812 875.957 50.7422C875.066 51.6914 874.516 53.0273 874.305 54.75H883.832V54.5039C883.738 52.8516 883.293 51.5742 882.496 50.6719C881.699 49.7578 880.621 49.3008 879.262 49.3008Z" fill="white"/>
<path d="M895.275 42.375V46.9805H898.826V49.4941H895.275V61.2891C895.275 62.0508 895.434 62.625 895.75 63.0117C896.066 63.3867 896.605 63.5742 897.367 63.5742C897.742 63.5742 898.258 63.5039 898.914 63.3633V66C898.059 66.2344 897.227 66.3516 896.418 66.3516C894.965 66.3516 893.869 65.9121 893.131 65.0332C892.393 64.1543 892.023 62.9062 892.023 61.2891V49.4941H888.561V46.9805H892.023V42.375H895.275Z" fill="white"/>
<path d="M911.834 49.8984C911.342 49.8164 910.809 49.7754 910.234 49.7754C908.102 49.7754 906.654 50.6836 905.893 52.5V66H902.641V46.9805H905.805L905.857 49.1777C906.924 47.4785 908.436 46.6289 910.393 46.6289C911.025 46.6289 911.506 46.7109 911.834 46.875V49.8984Z" fill="white"/>
<path d="M913.627 56.3145C913.627 54.4512 913.99 52.7754 914.717 51.2871C915.455 49.7988 916.475 48.6504 917.775 47.8418C919.088 47.0332 920.582 46.6289 922.258 46.6289C924.848 46.6289 926.939 47.5254 928.533 49.3184C930.139 51.1113 930.941 53.4961 930.941 56.4727V56.7012C930.941 58.5527 930.584 60.2168 929.869 61.6934C929.166 63.1582 928.152 64.3008 926.828 65.1211C925.516 65.9414 924.004 66.3516 922.293 66.3516C919.715 66.3516 917.623 65.4551 916.018 63.6621C914.424 61.8691 913.627 59.4961 913.627 56.543V56.3145ZM916.896 56.7012C916.896 58.8105 917.383 60.5039 918.355 61.7812C919.34 63.0586 920.652 63.6973 922.293 63.6973C923.945 63.6973 925.258 63.0527 926.23 61.7637C927.203 60.4629 927.689 58.6465 927.689 56.3145C927.689 54.2285 927.191 52.541 926.195 51.252C925.211 49.9512 923.898 49.3008 922.258 49.3008C920.652 49.3008 919.357 49.9395 918.373 51.2168C917.389 52.4941 916.896 54.3223 916.896 56.7012Z" fill="white"/>
<path d="M125.354 108.352C122.775 108.352 120.678 107.508 119.061 105.82C117.443 104.121 116.635 101.854 116.635 99.0176V98.4199C116.635 96.5332 116.992 94.8516 117.707 93.375C118.434 91.8867 119.441 90.7266 120.73 89.8945C122.031 89.0508 123.438 88.6289 124.949 88.6289C127.422 88.6289 129.344 89.4434 130.715 91.0723C132.086 92.7012 132.771 95.0332 132.771 98.0684V99.4219H119.887C119.934 101.297 120.479 102.814 121.521 103.975C122.576 105.123 123.912 105.697 125.529 105.697C126.678 105.697 127.65 105.463 128.447 104.994C129.244 104.525 129.941 103.904 130.539 103.131L132.525 104.678C130.932 107.127 128.541 108.352 125.354 108.352ZM124.949 91.3008C123.637 91.3008 122.535 91.7812 121.645 92.7422C120.754 93.6914 120.203 95.0273 119.992 96.75H129.52V96.5039C129.426 94.8516 128.98 93.5742 128.184 92.6719C127.387 91.7578 126.309 91.3008 124.949 91.3008Z" fill="white"/>
<path d="M147.625 102.955C147.625 102.076 147.291 101.396 146.623 100.916C145.967 100.424 144.812 100.002 143.16 99.6504C141.52 99.2988 140.213 98.877 139.24 98.3848C138.279 97.8926 137.564 97.3066 137.096 96.627C136.639 95.9473 136.41 95.1387 136.41 94.2012C136.41 92.6426 137.066 91.3242 138.379 90.2461C139.703 89.168 141.391 88.6289 143.441 88.6289C145.598 88.6289 147.344 89.1855 148.68 90.2988C150.027 91.4121 150.701 92.8359 150.701 94.5703H147.432C147.432 93.6797 147.051 92.9121 146.289 92.2676C145.539 91.623 144.59 91.3008 143.441 91.3008C142.258 91.3008 141.332 91.5586 140.664 92.0742C139.996 92.5898 139.662 93.2637 139.662 94.0957C139.662 94.8809 139.973 95.4727 140.594 95.8711C141.215 96.2695 142.334 96.6504 143.951 97.0137C145.58 97.377 146.898 97.8105 147.906 98.3145C148.914 98.8184 149.658 99.4277 150.139 100.143C150.631 100.846 150.877 101.707 150.877 102.727C150.877 104.426 150.197 105.791 148.838 106.822C147.479 107.842 145.715 108.352 143.547 108.352C142.023 108.352 140.676 108.082 139.504 107.543C138.332 107.004 137.412 106.254 136.744 105.293C136.088 104.32 135.76 103.271 135.76 102.146H139.012C139.07 103.236 139.504 104.104 140.312 104.748C141.133 105.381 142.211 105.697 143.547 105.697C144.777 105.697 145.762 105.451 146.5 104.959C147.25 104.455 147.625 103.787 147.625 102.955Z" fill="white"/>
<path d="M168.438 93.6211H170.881C172.416 93.5977 173.623 93.1934 174.502 92.4082C175.381 91.623 175.82 90.5625 175.82 89.2266C175.82 86.2266 174.326 84.7266 171.338 84.7266C169.932 84.7266 168.807 85.1309 167.963 85.9395C167.131 86.7363 166.715 87.7969 166.715 89.1211H163.463C163.463 87.0938 164.201 85.4121 165.678 84.0762C167.166 82.7285 169.053 82.0547 171.338 82.0547C173.752 82.0547 175.645 82.6934 177.016 83.9707C178.387 85.248 179.072 87.0234 179.072 89.2969C179.072 90.4102 178.709 91.4883 177.982 92.5312C177.268 93.5742 176.289 94.3535 175.047 94.8691C176.453 95.3145 177.537 96.0527 178.299 97.084C179.072 98.1152 179.459 99.375 179.459 100.863C179.459 103.16 178.709 104.982 177.209 106.33C175.709 107.678 173.758 108.352 171.355 108.352C168.953 108.352 166.996 107.701 165.484 106.4C163.984 105.1 163.234 103.383 163.234 101.25H166.504C166.504 102.598 166.943 103.676 167.822 104.484C168.701 105.293 169.879 105.697 171.355 105.697C172.926 105.697 174.127 105.287 174.959 104.467C175.791 103.646 176.207 102.469 176.207 100.934C176.207 99.4453 175.75 98.3027 174.836 97.5059C173.922 96.709 172.604 96.2988 170.881 96.2754H168.438V93.6211Z" fill="white"/>
<path d="M196.686 82.3887V85.1484H196.088C193.557 85.1953 191.541 85.9453 190.041 87.3984C188.541 88.8516 187.674 90.8965 187.439 93.5332C188.787 91.9863 190.627 91.2129 192.959 91.2129C195.186 91.2129 196.961 91.998 198.285 93.5684C199.621 95.1387 200.289 97.166 200.289 99.6504C200.289 102.287 199.568 104.396 198.127 105.979C196.697 107.561 194.775 108.352 192.361 108.352C189.912 108.352 187.926 107.414 186.402 105.539C184.879 103.652 184.117 101.227 184.117 98.2617V97.0137C184.117 92.3027 185.119 88.7051 187.123 86.2207C189.139 83.7246 192.133 82.4473 196.105 82.3887H196.686ZM192.414 93.9199C191.301 93.9199 190.275 94.2539 189.338 94.9219C188.4 95.5898 187.75 96.4277 187.387 97.4355V98.6309C187.387 100.74 187.861 102.439 188.811 103.729C189.76 105.018 190.943 105.662 192.361 105.662C193.826 105.662 194.975 105.123 195.807 104.045C196.65 102.967 197.072 101.555 197.072 99.8086C197.072 98.0508 196.645 96.6328 195.789 95.5547C194.945 94.4648 193.82 93.9199 192.414 93.9199Z" fill="white"/>
<path d="M221.031 105.697C222.191 105.697 223.205 105.346 224.072 104.643C224.939 103.939 225.42 103.061 225.514 102.006H228.59C228.531 103.096 228.156 104.133 227.465 105.117C226.773 106.102 225.848 106.887 224.688 107.473C223.539 108.059 222.32 108.352 221.031 108.352C218.441 108.352 216.379 107.49 214.844 105.768C213.32 104.033 212.559 101.666 212.559 98.666V98.1211C212.559 96.2695 212.898 94.623 213.578 93.1816C214.258 91.7402 215.23 90.6211 216.496 89.8242C217.773 89.0273 219.279 88.6289 221.014 88.6289C223.146 88.6289 224.916 89.2676 226.322 90.5449C227.74 91.8223 228.496 93.4805 228.59 95.5195H225.514C225.42 94.2891 224.951 93.2812 224.107 92.4961C223.275 91.6992 222.244 91.3008 221.014 91.3008C219.361 91.3008 218.078 91.8984 217.164 93.0938C216.262 94.2773 215.811 95.9941 215.811 98.2441V98.8594C215.811 101.051 216.262 102.738 217.164 103.922C218.066 105.105 219.355 105.697 221.031 105.697Z" fill="white"/>
<path d="M235.305 88.9805L235.393 91.0898C236.787 89.4492 238.668 88.6289 241.035 88.6289C243.695 88.6289 245.506 89.6484 246.467 91.6875C247.1 90.7734 247.92 90.0352 248.928 89.4727C249.947 88.9102 251.148 88.6289 252.531 88.6289C256.703 88.6289 258.824 90.8379 258.895 95.2559V108H255.643V95.4492C255.643 94.0898 255.332 93.0762 254.711 92.4082C254.09 91.7285 253.047 91.3887 251.582 91.3887C250.375 91.3887 249.373 91.752 248.576 92.4785C247.779 93.1934 247.316 94.1602 247.188 95.3789V108H243.918V95.5371C243.918 92.7715 242.564 91.3887 239.857 91.3887C237.725 91.3887 236.266 92.2969 235.48 94.1133V108H232.229V88.9805H235.305Z" fill="white"/>
<path d="M283.82 102.955C283.82 102.076 283.486 101.396 282.818 100.916C282.162 100.424 281.008 100.002 279.355 99.6504C277.715 99.2988 276.408 98.877 275.436 98.3848C274.475 97.8926 273.76 97.3066 273.291 96.627C272.834 95.9473 272.605 95.1387 272.605 94.2012C272.605 92.6426 273.262 91.3242 274.574 90.2461C275.898 89.168 277.586 88.6289 279.637 88.6289C281.793 88.6289 283.539 89.1855 284.875 90.2988C286.223 91.4121 286.896 92.8359 286.896 94.5703H283.627C283.627 93.6797 283.246 92.9121 282.484 92.2676C281.734 91.623 280.785 91.3008 279.637 91.3008C278.453 91.3008 277.527 91.5586 276.859 92.0742C276.191 92.5898 275.857 93.2637 275.857 94.0957C275.857 94.8809 276.168 95.4727 276.789 95.8711C277.41 96.2695 278.529 96.6504 280.146 97.0137C281.775 97.377 283.094 97.8105 284.102 98.3145C285.109 98.8184 285.854 99.4277 286.334 100.143C286.826 100.846 287.072 101.707 287.072 102.727C287.072 104.426 286.393 105.791 285.033 106.822C283.674 107.842 281.91 108.352 279.742 108.352C278.219 108.352 276.871 108.082 275.699 107.543C274.527 107.004 273.607 106.254 272.939 105.293C272.283 104.32 271.955 103.271 271.955 102.146H275.207C275.266 103.236 275.699 104.104 276.508 104.748C277.328 105.381 278.406 105.697 279.742 105.697C280.973 105.697 281.957 105.451 282.695 104.959C283.445 104.455 283.82 103.787 283.82 102.955Z" fill="white"/>
<path d="M294.842 108H291.59V88.9805H294.842V108ZM291.326 83.9355C291.326 83.4082 291.484 82.9629 291.801 82.5996C292.129 82.2363 292.609 82.0547 293.242 82.0547C293.875 82.0547 294.355 82.2363 294.684 82.5996C295.012 82.9629 295.176 83.4082 295.176 83.9355C295.176 84.4629 295.012 84.9023 294.684 85.2539C294.355 85.6055 293.875 85.7812 293.242 85.7812C292.609 85.7812 292.129 85.6055 291.801 85.2539C291.484 84.9023 291.326 84.4629 291.326 83.9355Z" fill="white"/>
<path d="M320.066 102.955C320.066 102.076 319.732 101.396 319.064 100.916C318.408 100.424 317.254 100.002 315.602 99.6504C313.961 99.2988 312.654 98.877 311.682 98.3848C310.721 97.8926 310.006 97.3066 309.537 96.627C309.08 95.9473 308.852 95.1387 308.852 94.2012C308.852 92.6426 309.508 91.3242 310.82 90.2461C312.145 89.168 313.832 88.6289 315.883 88.6289C318.039 88.6289 319.785 89.1855 321.121 90.2988C322.469 91.4121 323.143 92.8359 323.143 94.5703H319.873C319.873 93.6797 319.492 92.9121 318.73 92.2676C317.98 91.623 317.031 91.3008 315.883 91.3008C314.699 91.3008 313.773 91.5586 313.105 92.0742C312.438 92.5898 312.104 93.2637 312.104 94.0957C312.104 94.8809 312.414 95.4727 313.035 95.8711C313.656 96.2695 314.775 96.6504 316.393 97.0137C318.021 97.377 319.34 97.8105 320.348 98.3145C321.355 98.8184 322.1 99.4277 322.58 100.143C323.072 100.846 323.318 101.707 323.318 102.727C323.318 104.426 322.639 105.791 321.279 106.822C319.92 107.842 318.156 108.352 315.988 108.352C314.465 108.352 313.117 108.082 311.945 107.543C310.773 107.004 309.854 106.254 309.186 105.293C308.529 104.32 308.201 103.271 308.201 102.146H311.453C311.512 103.236 311.945 104.104 312.754 104.748C313.574 105.381 314.652 105.697 315.988 105.697C317.219 105.697 318.203 105.451 318.941 104.959C319.691 104.455 320.066 103.787 320.066 102.955Z" fill="white"/>
<path d="M335.447 108.352C332.869 108.352 330.771 107.508 329.154 105.82C327.537 104.121 326.729 101.854 326.729 99.0176V98.4199C326.729 96.5332 327.086 94.8516 327.801 93.375C328.527 91.8867 329.535 90.7266 330.824 89.8945C332.125 89.0508 333.531 88.6289 335.043 88.6289C337.516 88.6289 339.438 89.4434 340.809 91.0723C342.18 92.7012 342.865 95.0332 342.865 98.0684V99.4219H329.98C330.027 101.297 330.572 102.814 331.615 103.975C332.67 105.123 334.006 105.697 335.623 105.697C336.771 105.697 337.744 105.463 338.541 104.994C339.338 104.525 340.035 103.904 340.633 103.131L342.619 104.678C341.025 107.127 338.635 108.352 335.447 108.352ZM335.043 91.3008C333.73 91.3008 332.629 91.7812 331.738 92.7422C330.848 93.6914 330.297 95.0273 330.086 96.75H339.613V96.5039C339.52 94.8516 339.074 93.5742 338.277 92.6719C337.48 91.7578 336.402 91.3008 335.043 91.3008Z" fill="white"/>
<path d="M366.648 102.955C366.648 102.076 366.314 101.396 365.646 100.916C364.99 100.424 363.836 100.002 362.184 99.6504C360.543 99.2988 359.236 98.877 358.264 98.3848C357.303 97.8926 356.588 97.3066 356.119 96.627C355.662 95.9473 355.434 95.1387 355.434 94.2012C355.434 92.6426 356.09 91.3242 357.402 90.2461C358.727 89.168 360.414 88.6289 362.465 88.6289C364.621 88.6289 366.367 89.1855 367.703 90.2988C369.051 91.4121 369.725 92.8359 369.725 94.5703H366.455C366.455 93.6797 366.074 92.9121 365.312 92.2676C364.562 91.623 363.613 91.3008 362.465 91.3008C361.281 91.3008 360.355 91.5586 359.688 92.0742C359.02 92.5898 358.686 93.2637 358.686 94.0957C358.686 94.8809 358.996 95.4727 359.617 95.8711C360.238 96.2695 361.357 96.6504 362.975 97.0137C364.604 97.377 365.922 97.8105 366.93 98.3145C367.938 98.8184 368.682 99.4277 369.162 100.143C369.654 100.846 369.9 101.707 369.9 102.727C369.9 104.426 369.221 105.791 367.861 106.822C366.502 107.842 364.738 108.352 362.57 108.352C361.047 108.352 359.699 108.082 358.527 107.543C357.355 107.004 356.436 106.254 355.768 105.293C355.111 104.32 354.783 103.271 354.783 102.146H358.035C358.094 103.236 358.527 104.104 359.336 104.748C360.156 105.381 361.234 105.697 362.57 105.697C363.801 105.697 364.785 105.451 365.523 104.959C366.273 104.455 366.648 103.787 366.648 102.955Z" fill="white"/>
<path d="M385.879 108C385.691 107.625 385.539 106.957 385.422 105.996C383.91 107.566 382.105 108.352 380.008 108.352C378.133 108.352 376.592 107.824 375.385 106.77C374.189 105.703 373.592 104.355 373.592 102.727C373.592 100.746 374.342 99.2109 375.842 98.1211C377.354 97.0195 379.475 96.4688 382.205 96.4688H385.369V94.9746C385.369 93.8379 385.029 92.9355 384.35 92.2676C383.67 91.5879 382.668 91.248 381.344 91.248C380.184 91.248 379.211 91.541 378.426 92.127C377.641 92.7129 377.248 93.4219 377.248 94.2539H373.979C373.979 93.3047 374.312 92.3906 374.98 91.5117C375.66 90.6211 376.574 89.918 377.723 89.4023C378.883 88.8867 380.154 88.6289 381.537 88.6289C383.729 88.6289 385.445 89.1797 386.688 90.2812C387.93 91.3711 388.574 92.877 388.621 94.7988V103.553C388.621 105.299 388.844 106.688 389.289 107.719V108H385.879ZM380.482 105.521C381.502 105.521 382.469 105.258 383.383 104.73C384.297 104.203 384.959 103.518 385.369 102.674V98.7715H382.82C378.836 98.7715 376.844 99.9375 376.844 102.27C376.844 103.289 377.184 104.086 377.863 104.66C378.543 105.234 379.416 105.521 380.482 105.521Z" fill="white"/>
<path d="M409.82 98.7012C409.82 101.607 409.152 103.945 407.816 105.715C406.48 107.473 404.688 108.352 402.438 108.352C400.035 108.352 398.178 107.502 396.865 105.803L396.707 108H393.719V81H396.971V91.0723C398.283 89.4434 400.094 88.6289 402.402 88.6289C404.711 88.6289 406.521 89.502 407.834 91.248C409.158 92.9941 409.82 95.3848 409.82 98.4199V98.7012ZM406.568 98.332C406.568 96.1172 406.141 94.4062 405.285 93.1992C404.43 91.9922 403.199 91.3887 401.594 91.3887C399.449 91.3887 397.908 92.3848 396.971 94.377V102.604C397.967 104.596 399.52 105.592 401.629 105.592C403.188 105.592 404.4 104.988 405.268 103.781C406.135 102.574 406.568 100.758 406.568 98.332Z" fill="white"/>
<path d="M421.826 108.352C419.248 108.352 417.15 107.508 415.533 105.82C413.916 104.121 413.107 101.854 413.107 99.0176V98.4199C413.107 96.5332 413.465 94.8516 414.18 93.375C414.906 91.8867 415.914 90.7266 417.203 89.8945C418.504 89.0508 419.91 88.6289 421.422 88.6289C423.895 88.6289 425.816 89.4434 427.188 91.0723C428.559 92.7012 429.244 95.0332 429.244 98.0684V99.4219H416.359C416.406 101.297 416.951 102.814 417.994 103.975C419.049 105.123 420.385 105.697 422.002 105.697C423.15 105.697 424.123 105.463 424.92 104.994C425.717 104.525 426.414 103.904 427.012 103.131L428.998 104.678C427.404 107.127 425.014 108.352 421.826 108.352ZM421.422 91.3008C420.109 91.3008 419.008 91.7812 418.117 92.7422C417.227 93.6914 416.676 95.0273 416.465 96.75H425.992V96.5039C425.898 94.8516 425.453 93.5742 424.656 92.6719C423.859 91.7578 422.781 91.3008 421.422 91.3008Z" fill="white"/>
<path d="M441.162 98.332C441.162 95.3438 441.848 92.9824 443.219 91.248C444.59 89.502 446.43 88.6289 448.738 88.6289C450.988 88.6289 452.764 89.3848 454.064 90.8965L454.205 88.9805H457.193V115.312H453.941V106.242C452.629 107.648 450.883 108.352 448.703 108.352C446.406 108.352 444.572 107.461 443.201 105.68C441.842 103.887 441.162 101.514 441.162 98.5605V98.332ZM444.414 98.7012C444.414 100.881 444.871 102.592 445.785 103.834C446.711 105.076 447.953 105.697 449.512 105.697C451.445 105.697 452.922 104.842 453.941 103.131V93.8145C452.91 92.1387 451.445 91.3008 449.547 91.3008C447.977 91.3008 446.729 91.9277 445.803 93.1816C444.877 94.4238 444.414 96.2637 444.414 98.7012Z" fill="white"/>
<path d="M474.156 106.119C472.891 107.607 471.033 108.352 468.584 108.352C466.557 108.352 465.01 107.766 463.943 106.594C462.889 105.41 462.355 103.664 462.344 101.355V88.9805H465.596V101.268C465.596 104.15 466.768 105.592 469.111 105.592C471.596 105.592 473.248 104.666 474.068 102.814V88.9805H477.32V108H474.227L474.156 106.119Z" fill="white"/>
<path d="M490.17 108.352C487.592 108.352 485.494 107.508 483.877 105.82C482.26 104.121 481.451 101.854 481.451 99.0176V98.4199C481.451 96.5332 481.809 94.8516 482.523 93.375C483.25 91.8867 484.258 90.7266 485.547 89.8945C486.848 89.0508 488.254 88.6289 489.766 88.6289C492.238 88.6289 494.16 89.4434 495.531 91.0723C496.902 92.7012 497.588 95.0332 497.588 98.0684V99.4219H484.703C484.75 101.297 485.295 102.814 486.338 103.975C487.393 105.123 488.729 105.697 490.346 105.697C491.494 105.697 492.467 105.463 493.264 104.994C494.061 104.525 494.758 103.904 495.355 103.131L497.342 104.678C495.748 107.127 493.357 108.352 490.17 108.352ZM489.766 91.3008C488.453 91.3008 487.352 91.7812 486.461 92.7422C485.57 93.6914 485.02 95.0273 484.809 96.75H494.336V96.5039C494.242 94.8516 493.797 93.5742 493 92.6719C492.203 91.7578 491.125 91.3008 489.766 91.3008Z" fill="white"/>
<path d="M518.189 108.352C515.611 108.352 513.514 107.508 511.896 105.82C510.279 104.121 509.471 101.854 509.471 99.0176V98.4199C509.471 96.5332 509.828 94.8516 510.543 93.375C511.27 91.8867 512.277 90.7266 513.566 89.8945C514.867 89.0508 516.273 88.6289 517.785 88.6289C520.258 88.6289 522.18 89.4434 523.551 91.0723C524.922 92.7012 525.607 95.0332 525.607 98.0684V99.4219H512.723C512.77 101.297 513.314 102.814 514.357 103.975C515.412 105.123 516.748 105.697 518.365 105.697C519.514 105.697 520.486 105.463 521.283 104.994C522.08 104.525 522.777 103.904 523.375 103.131L525.361 104.678C523.768 107.127 521.377 108.352 518.189 108.352ZM517.785 91.3008C516.473 91.3008 515.371 91.7812 514.48 92.7422C513.59 93.6914 513.039 95.0273 512.828 96.75H522.355V96.5039C522.262 94.8516 521.816 93.5742 521.02 92.6719C520.223 91.7578 519.145 91.3008 517.785 91.3008Z" fill="white"/>
<path d="M532.92 108H529.668V81H532.92V108Z" fill="white"/>
<path d="M550.604 108H547.352V81H550.604V108Z" fill="white"/>
<path d="M567.566 108C567.379 107.625 567.227 106.957 567.109 105.996C565.598 107.566 563.793 108.352 561.695 108.352C559.82 108.352 558.279 107.824 557.072 106.77C555.877 105.703 555.279 104.355 555.279 102.727C555.279 100.746 556.029 99.2109 557.529 98.1211C559.041 97.0195 561.162 96.4688 563.893 96.4688H567.057V94.9746C567.057 93.8379 566.717 92.9355 566.037 92.2676C565.357 91.5879 564.355 91.248 563.031 91.248C561.871 91.248 560.898 91.541 560.113 92.127C559.328 92.7129 558.936 93.4219 558.936 94.2539H555.666C555.666 93.3047 556 92.3906 556.668 91.5117C557.348 90.6211 558.262 89.918 559.41 89.4023C560.57 88.8867 561.842 88.6289 563.225 88.6289C565.416 88.6289 567.133 89.1797 568.375 90.2812C569.617 91.3711 570.262 92.877 570.309 94.7988V103.553C570.309 105.299 570.531 106.688 570.977 107.719V108H567.566ZM562.17 105.521C563.189 105.521 564.156 105.258 565.07 104.73C565.984 104.203 566.646 103.518 567.057 102.674V98.7715H564.508C560.523 98.7715 558.531 99.9375 558.531 102.27C558.531 103.289 558.871 104.086 559.551 104.66C560.23 105.234 561.104 105.521 562.17 105.521Z" fill="white"/>
<path d="M584.6 91.8984C584.107 91.8164 583.574 91.7754 583 91.7754C580.867 91.7754 579.42 92.6836 578.658 94.5V108H575.406V88.9805H578.57L578.623 91.1777C579.689 89.4785 581.201 88.6289 583.158 88.6289C583.791 88.6289 584.271 88.7109 584.6 88.875V91.8984Z" fill="white"/>
<path d="M586.48 98.332C586.48 95.3672 587.166 93.0117 588.537 91.2656C589.908 89.5078 591.725 88.6289 593.986 88.6289C596.307 88.6289 598.117 89.4492 599.418 91.0898L599.576 88.9805H602.547V107.543C602.547 110.004 601.814 111.943 600.35 113.361C598.896 114.779 596.939 115.488 594.479 115.488C593.107 115.488 591.766 115.195 590.453 114.609C589.141 114.023 588.139 113.221 587.447 112.201L589.135 110.25C590.529 111.973 592.234 112.834 594.25 112.834C595.832 112.834 597.062 112.389 597.941 111.498C598.832 110.607 599.277 109.354 599.277 107.736V106.102C597.977 107.602 596.201 108.352 593.951 108.352C591.725 108.352 589.92 107.455 588.537 105.662C587.166 103.869 586.48 101.426 586.48 98.332ZM589.75 98.7012C589.75 100.846 590.189 102.533 591.068 103.764C591.947 104.982 593.178 105.592 594.76 105.592C596.811 105.592 598.316 104.66 599.277 102.797V94.1133C598.281 92.2969 596.787 91.3887 594.795 91.3887C593.213 91.3887 591.977 92.0039 591.086 93.2344C590.195 94.4648 589.75 96.2871 589.75 98.7012Z" fill="white"/>
<path d="M606.607 98.3145C606.607 96.4512 606.971 94.7754 607.697 93.2871C608.436 91.7988 609.455 90.6504 610.756 89.8418C612.068 89.0332 613.562 88.6289 615.238 88.6289C617.828 88.6289 619.92 89.5254 621.514 91.3184C623.119 93.1113 623.922 95.4961 623.922 98.4727V98.7012C623.922 100.553 623.564 102.217 622.85 103.693C622.146 105.158 621.133 106.301 619.809 107.121C618.496 107.941 616.984 108.352 615.273 108.352C612.695 108.352 610.604 107.455 608.998 105.662C607.404 103.869 606.607 101.496 606.607 98.543V98.3145ZM609.877 98.7012C609.877 100.811 610.363 102.504 611.336 103.781C612.32 105.059 613.633 105.697 615.273 105.697C616.926 105.697 618.238 105.053 619.211 103.764C620.184 102.463 620.67 100.646 620.67 98.3145C620.67 96.2285 620.172 94.541 619.176 93.252C618.191 91.9512 616.879 91.3008 615.238 91.3008C613.633 91.3008 612.338 91.9395 611.354 93.2168C610.369 94.4941 609.877 96.3223 609.877 98.7012Z" fill="white"/>
<path d="M644.822 108.352C642.244 108.352 640.146 107.508 638.529 105.82C636.912 104.121 636.104 101.854 636.104 99.0176V98.4199C636.104 96.5332 636.461 94.8516 637.176 93.375C637.902 91.8867 638.91 90.7266 640.199 89.8945C641.5 89.0508 642.906 88.6289 644.418 88.6289C646.891 88.6289 648.812 89.4434 650.184 91.0723C651.555 92.7012 652.24 95.0332 652.24 98.0684V99.4219H639.355C639.402 101.297 639.947 102.814 640.99 103.975C642.045 105.123 643.381 105.697 644.998 105.697C646.146 105.697 647.119 105.463 647.916 104.994C648.713 104.525 649.41 103.904 650.008 103.131L651.994 104.678C650.4 107.127 648.01 108.352 644.822 108.352ZM644.418 91.3008C643.105 91.3008 642.004 91.7812 641.113 92.7422C640.223 93.6914 639.672 95.0273 639.461 96.75H648.988V96.5039C648.895 94.8516 648.449 93.5742 647.652 92.6719C646.855 91.7578 645.777 91.3008 644.418 91.3008Z" fill="white"/>
<path d="M667.094 102.955C667.094 102.076 666.76 101.396 666.092 100.916C665.436 100.424 664.281 100.002 662.629 99.6504C660.988 99.2988 659.682 98.877 658.709 98.3848C657.748 97.8926 657.033 97.3066 656.564 96.627C656.107 95.9473 655.879 95.1387 655.879 94.2012C655.879 92.6426 656.535 91.3242 657.848 90.2461C659.172 89.168 660.859 88.6289 662.91 88.6289C665.066 88.6289 666.812 89.1855 668.148 90.2988C669.496 91.4121 670.17 92.8359 670.17 94.5703H666.9C666.9 93.6797 666.52 92.9121 665.758 92.2676C665.008 91.623 664.059 91.3008 662.91 91.3008C661.727 91.3008 660.801 91.5586 660.133 92.0742C659.465 92.5898 659.131 93.2637 659.131 94.0957C659.131 94.8809 659.441 95.4727 660.062 95.8711C660.684 96.2695 661.803 96.6504 663.42 97.0137C665.049 97.377 666.367 97.8105 667.375 98.3145C668.383 98.8184 669.127 99.4277 669.607 100.143C670.1 100.846 670.346 101.707 670.346 102.727C670.346 104.426 669.666 105.791 668.307 106.822C666.947 107.842 665.184 108.352 663.016 108.352C661.492 108.352 660.145 108.082 658.973 107.543C657.801 107.004 656.881 106.254 656.213 105.293C655.557 104.32 655.229 103.271 655.229 102.146H658.48C658.539 103.236 658.973 104.104 659.781 104.748C660.602 105.381 661.68 105.697 663.016 105.697C664.246 105.697 665.23 105.451 665.969 104.959C666.719 104.455 667.094 103.787 667.094 102.955Z" fill="white"/>
<path d="M691.404 108.352C688.826 108.352 686.729 107.508 685.111 105.82C683.494 104.121 682.686 101.854 682.686 99.0176V98.4199C682.686 96.5332 683.043 94.8516 683.758 93.375C684.484 91.8867 685.492 90.7266 686.781 89.8945C688.082 89.0508 689.488 88.6289 691 88.6289C693.473 88.6289 695.395 89.4434 696.766 91.0723C698.137 92.7012 698.822 95.0332 698.822 98.0684V99.4219H685.938C685.984 101.297 686.529 102.814 687.572 103.975C688.627 105.123 689.963 105.697 691.58 105.697C692.729 105.697 693.701 105.463 694.498 104.994C695.295 104.525 695.992 103.904 696.59 103.131L698.576 104.678C696.982 107.127 694.592 108.352 691.404 108.352ZM691 91.3008C689.688 91.3008 688.586 91.7812 687.695 92.7422C686.805 93.6914 686.254 95.0273 686.043 96.75H695.57V96.5039C695.477 94.8516 695.031 93.5742 694.234 92.6719C693.438 91.7578 692.359 91.3008 691 91.3008Z" fill="white"/>
<path d="M706.135 108H702.883V81H706.135V108Z" fill="white"/>
<path d="M719.494 98.332C719.494 95.4141 720.186 93.0703 721.568 91.3008C722.951 89.5195 724.762 88.6289 727 88.6289C729.227 88.6289 730.99 89.3906 732.291 90.9141V81H735.543V108H732.555L732.396 105.961C731.096 107.555 729.285 108.352 726.965 108.352C724.762 108.352 722.963 107.449 721.568 105.645C720.186 103.84 719.494 101.484 719.494 98.5781V98.332ZM722.746 98.7012C722.746 100.857 723.191 102.545 724.082 103.764C724.973 104.982 726.203 105.592 727.773 105.592C729.836 105.592 731.342 104.666 732.291 102.814V94.0781C731.318 92.2852 729.824 91.3887 727.809 91.3887C726.215 91.3887 724.973 92.0039 724.082 93.2344C723.191 94.4648 722.746 96.2871 722.746 98.7012Z" fill="white"/>
<path d="M739.744 98.3145C739.744 96.4512 740.107 94.7754 740.834 93.2871C741.572 91.7988 742.592 90.6504 743.893 89.8418C745.205 89.0332 746.699 88.6289 748.375 88.6289C750.965 88.6289 753.057 89.5254 754.65 91.3184C756.256 93.1113 757.059 95.4961 757.059 98.4727V98.7012C757.059 100.553 756.701 102.217 755.986 103.693C755.283 105.158 754.27 106.301 752.945 107.121C751.633 107.941 750.121 108.352 748.41 108.352C745.832 108.352 743.74 107.455 742.135 105.662C740.541 103.869 739.744 101.496 739.744 98.543V98.3145ZM743.014 98.7012C743.014 100.811 743.5 102.504 744.473 103.781C745.457 105.059 746.77 105.697 748.41 105.697C750.062 105.697 751.375 105.053 752.348 103.764C753.32 102.463 753.807 100.646 753.807 98.3145C753.807 96.2285 753.309 94.541 752.312 93.252C751.328 91.9512 750.016 91.3008 748.375 91.3008C746.77 91.3008 745.475 91.9395 744.49 93.2168C743.506 94.4941 743.014 96.3223 743.014 98.7012Z" fill="white"/>
<path d="M777.238 98.7012C777.238 101.607 776.57 103.945 775.234 105.715C773.898 107.473 772.105 108.352 769.855 108.352C767.453 108.352 765.596 107.502 764.283 105.803L764.125 108H761.137V81H764.389V91.0723C765.701 89.4434 767.512 88.6289 769.82 88.6289C772.129 88.6289 773.939 89.502 775.252 91.248C776.576 92.9941 777.238 95.3848 777.238 98.4199V98.7012ZM773.986 98.332C773.986 96.1172 773.559 94.4062 772.703 93.1992C771.848 91.9922 770.617 91.3887 769.012 91.3887C766.867 91.3887 765.326 92.3848 764.389 94.377V102.604C765.385 104.596 766.938 105.592 769.047 105.592C770.605 105.592 771.818 104.988 772.686 103.781C773.553 102.574 773.986 100.758 773.986 98.332Z" fill="white"/>
<path d="M784.885 108H781.633V81H784.885V108Z" fill="white"/>
<path d="M797.998 108.352C795.42 108.352 793.322 107.508 791.705 105.82C790.088 104.121 789.279 101.854 789.279 99.0176V98.4199C789.279 96.5332 789.637 94.8516 790.352 93.375C791.078 91.8867 792.086 90.7266 793.375 89.8945C794.676 89.0508 796.082 88.6289 797.594 88.6289C800.066 88.6289 801.988 89.4434 803.359 91.0723C804.73 92.7012 805.416 95.0332 805.416 98.0684V99.4219H792.531C792.578 101.297 793.123 102.814 794.166 103.975C795.221 105.123 796.557 105.697 798.174 105.697C799.322 105.697 800.295 105.463 801.092 104.994C801.889 104.525 802.586 103.904 803.184 103.131L805.17 104.678C803.576 107.127 801.186 108.352 797.998 108.352ZM797.594 91.3008C796.281 91.3008 795.18 91.7812 794.289 92.7422C793.398 93.6914 792.848 95.0273 792.637 96.75H802.164V96.5039C802.07 94.8516 801.625 93.5742 800.828 92.6719C800.031 91.7578 798.953 91.3008 797.594 91.3008Z" fill="white"/>
<path d="M817.334 98.332C817.334 95.4141 818.025 93.0703 819.408 91.3008C820.791 89.5195 822.602 88.6289 824.84 88.6289C827.066 88.6289 828.83 89.3906 830.131 90.9141V81H833.383V108H830.395L830.236 105.961C828.936 107.555 827.125 108.352 824.805 108.352C822.602 108.352 820.803 107.449 819.408 105.645C818.025 103.84 817.334 101.484 817.334 98.5781V98.332ZM820.586 98.7012C820.586 100.857 821.031 102.545 821.922 103.764C822.812 104.982 824.043 105.592 825.613 105.592C827.676 105.592 829.182 104.666 830.131 102.814V94.0781C829.158 92.2852 827.664 91.3887 825.648 91.3887C824.055 91.3887 822.812 92.0039 821.922 93.2344C821.031 94.4648 820.586 96.2871 820.586 98.7012Z" fill="white"/>
<path d="M846.338 108.352C843.76 108.352 841.662 107.508 840.045 105.82C838.428 104.121 837.619 101.854 837.619 99.0176V98.4199C837.619 96.5332 837.977 94.8516 838.691 93.375C839.418 91.8867 840.426 90.7266 841.715 89.8945C843.016 89.0508 844.422 88.6289 845.934 88.6289C848.406 88.6289 850.328 89.4434 851.699 91.0723C853.07 92.7012 853.756 95.0332 853.756 98.0684V99.4219H840.871C840.918 101.297 841.463 102.814 842.506 103.975C843.561 105.123 844.896 105.697 846.514 105.697C847.662 105.697 848.635 105.463 849.432 104.994C850.229 104.525 850.926 103.904 851.523 103.131L853.51 104.678C851.916 107.127 849.525 108.352 846.338 108.352ZM845.934 91.3008C844.621 91.3008 843.52 91.7812 842.629 92.7422C841.738 93.6914 841.188 95.0273 840.977 96.75H850.504V96.5039C850.41 94.8516 849.965 93.5742 849.168 92.6719C848.371 91.7578 847.293 91.3008 845.934 91.3008Z" fill="white"/>
<path d="M877.539 102.955C877.539 102.076 877.205 101.396 876.537 100.916C875.881 100.424 874.727 100.002 873.074 99.6504C871.434 99.2988 870.127 98.877 869.154 98.3848C868.193 97.8926 867.479 97.3066 867.01 96.627C866.553 95.9473 866.324 95.1387 866.324 94.2012C866.324 92.6426 866.98 91.3242 868.293 90.2461C869.617 89.168 871.305 88.6289 873.355 88.6289C875.512 88.6289 877.258 89.1855 878.594 90.2988C879.941 91.4121 880.615 92.8359 880.615 94.5703H877.346C877.346 93.6797 876.965 92.9121 876.203 92.2676C875.453 91.623 874.504 91.3008 873.355 91.3008C872.172 91.3008 871.246 91.5586 870.578 92.0742C869.91 92.5898 869.576 93.2637 869.576 94.0957C869.576 94.8809 869.887 95.4727 870.508 95.8711C871.129 96.2695 872.248 96.6504 873.865 97.0137C875.494 97.377 876.812 97.8105 877.82 98.3145C878.828 98.8184 879.572 99.4277 880.053 100.143C880.545 100.846 880.791 101.707 880.791 102.727C880.791 104.426 880.111 105.791 878.752 106.822C877.393 107.842 875.629 108.352 873.461 108.352C871.938 108.352 870.59 108.082 869.418 107.543C868.246 107.004 867.326 106.254 866.658 105.293C866.002 104.32 865.674 103.271 865.674 102.146H868.926C868.984 103.236 869.418 104.104 870.227 104.748C871.047 105.381 872.125 105.697 873.461 105.697C874.691 105.697 875.676 105.451 876.414 104.959C877.164 104.455 877.539 103.787 877.539 102.955Z" fill="white"/>
<path d="M896.77 106.119C895.504 107.607 893.646 108.352 891.197 108.352C889.17 108.352 887.623 107.766 886.557 106.594C885.502 105.41 884.969 103.664 884.957 101.355V88.9805H888.209V101.268C888.209 104.15 889.381 105.592 891.725 105.592C894.209 105.592 895.861 104.666 896.682 102.814V88.9805H899.934V108H896.84L896.77 106.119Z" fill="white"/>
<path d="M129.203 150C129.016 149.625 128.863 148.957 128.746 147.996C127.234 149.566 125.43 150.352 123.332 150.352C121.457 150.352 119.916 149.824 118.709 148.77C117.514 147.703 116.916 146.355 116.916 144.727C116.916 142.746 117.666 141.211 119.166 140.121C120.678 139.02 122.799 138.469 125.529 138.469H128.693V136.975C128.693 135.838 128.354 134.936 127.674 134.268C126.994 133.588 125.992 133.248 124.668 133.248C123.508 133.248 122.535 133.541 121.75 134.127C120.965 134.713 120.572 135.422 120.572 136.254H117.303C117.303 135.305 117.637 134.391 118.305 133.512C118.984 132.621 119.898 131.918 121.047 131.402C122.207 130.887 123.479 130.629 124.861 130.629C127.053 130.629 128.77 131.18 130.012 132.281C131.254 133.371 131.898 134.877 131.945 136.799V145.553C131.945 147.299 132.168 148.688 132.613 149.719V150H129.203ZM123.807 147.521C124.826 147.521 125.793 147.258 126.707 146.73C127.621 146.203 128.283 145.518 128.693 144.674V140.771H126.145C122.16 140.771 120.168 141.938 120.168 144.27C120.168 145.289 120.508 146.086 121.188 146.66C121.867 147.234 122.74 147.521 123.807 147.521Z" fill="white"/>
<path d="M140.119 130.98L140.225 133.371C141.678 131.543 143.576 130.629 145.92 130.629C149.939 130.629 151.967 132.896 152.002 137.432V150H148.75V137.414C148.738 136.043 148.422 135.029 147.801 134.373C147.191 133.717 146.236 133.389 144.936 133.389C143.881 133.389 142.955 133.67 142.158 134.232C141.361 134.795 140.74 135.533 140.295 136.447V150H137.043V130.98H140.119Z" fill="white"/>
<path d="M164.535 147.697C165.695 147.697 166.709 147.346 167.576 146.643C168.443 145.939 168.924 145.061 169.018 144.006H172.094C172.035 145.096 171.66 146.133 170.969 147.117C170.277 148.102 169.352 148.887 168.191 149.473C167.043 150.059 165.824 150.352 164.535 150.352C161.945 150.352 159.883 149.49 158.348 147.768C156.824 146.033 156.062 143.666 156.062 140.666V140.121C156.062 138.27 156.402 136.623 157.082 135.182C157.762 133.74 158.734 132.621 160 131.824C161.277 131.027 162.783 130.629 164.518 130.629C166.65 130.629 168.42 131.268 169.826 132.545C171.244 133.822 172 135.48 172.094 137.52H169.018C168.924 136.289 168.455 135.281 167.611 134.496C166.779 133.699 165.748 133.301 164.518 133.301C162.865 133.301 161.582 133.898 160.668 135.094C159.766 136.277 159.314 137.994 159.314 140.244V140.859C159.314 143.051 159.766 144.738 160.668 145.922C161.57 147.105 162.859 147.697 164.535 147.697Z" fill="white"/>
<path d="M179.002 133.283C180.443 131.514 182.318 130.629 184.627 130.629C188.646 130.629 190.674 132.896 190.709 137.432V150H187.457V137.414C187.445 136.043 187.129 135.029 186.508 134.373C185.898 133.717 184.943 133.389 183.643 133.389C182.588 133.389 181.662 133.67 180.865 134.232C180.068 134.795 179.447 135.533 179.002 136.447V150H175.75V123H179.002V133.283Z" fill="white"/>
<path d="M194.717 140.314C194.717 138.451 195.08 136.775 195.807 135.287C196.545 133.799 197.564 132.65 198.865 131.842C200.178 131.033 201.672 130.629 203.348 130.629C205.938 130.629 208.029 131.525 209.623 133.318C211.229 135.111 212.031 137.496 212.031 140.473V140.701C212.031 142.553 211.674 144.217 210.959 145.693C210.256 147.158 209.242 148.301 207.918 149.121C206.605 149.941 205.094 150.352 203.383 150.352C200.805 150.352 198.713 149.455 197.107 147.662C195.514 145.869 194.717 143.496 194.717 140.543V140.314ZM197.986 140.701C197.986 142.811 198.473 144.504 199.445 145.781C200.43 147.059 201.742 147.697 203.383 147.697C205.035 147.697 206.348 147.053 207.32 145.764C208.293 144.463 208.779 142.646 208.779 140.314C208.779 138.229 208.281 136.541 207.285 135.252C206.301 133.951 204.988 133.301 203.348 133.301C201.742 133.301 200.447 133.939 199.463 135.217C198.479 136.494 197.986 138.322 197.986 140.701Z" fill="white"/>
<path d="M216.18 148.295C216.18 147.732 216.344 147.264 216.672 146.889C217.012 146.514 217.516 146.326 218.184 146.326C218.852 146.326 219.355 146.514 219.695 146.889C220.047 147.264 220.223 147.732 220.223 148.295C220.223 148.834 220.047 149.285 219.695 149.648C219.355 150.012 218.852 150.193 218.184 150.193C217.516 150.193 217.012 150.012 216.672 149.648C216.344 149.285 216.18 148.834 216.18 148.295Z" fill="white"/>
</g>
</g>
</g>
</svg>
