<svg viewBox="0 0 993 395" fill="none" xmlns="http://www.w3.org/2000/svg">
<g id="0120150">
<g id="claves01">
<path id="Rectangle 4" d="M57 205H273.745L307 245L273.745 285H57V205Z" fill="#E8A1EE" fill-opacity="0.1"/>
<path id="Rectangle 4 (Stroke)" fill-rule="evenodd" clip-rule="evenodd" d="M272.338 208H60V282H272.338L303.099 245L272.338 208ZM273.745 205H57V285H273.745L307 245L273.745 205Z" fill="#E8A1EE"/>
<path id="Rectangle 5" d="M61 315H277.745L311 355L277.745 395H61V315Z" fill="#E8A1EE" fill-opacity="0.1"/>
<path id="Rectangle 5 (Stroke)" fill-rule="evenodd" clip-rule="evenodd" d="M276.338 318H64V392H276.338L307.099 355L276.338 318ZM277.745 315H61V395H277.745L311 355L277.745 315Z" fill="#E8A1EE"/>
<path id="Rectangle 6" d="M397 202H613.745L647 242L613.745 282H397V202Z" fill="#E8A1EE" fill-opacity="0.1"/>
<path id="Rectangle 6 (Stroke)" fill-rule="evenodd" clip-rule="evenodd" d="M612.338 205H400V279H612.338L643.099 242L612.338 205ZM613.745 202H397V282H613.745L647 242L613.745 202Z" fill="#E8A1EE"/>
<path id="Rectangle 7" d="M400 312H616.745L650 352L616.745 392H400V312Z" fill="#E8A1EE" fill-opacity="0.1"/>
<path id="Rectangle 7 (Stroke)" fill-rule="evenodd" clip-rule="evenodd" d="M615.338 315H403V389H615.338L646.099 352L615.338 315ZM616.745 312H400V392H616.745L650 352L616.745 312Z" fill="#E8A1EE"/>
<path id="Rectangle 8" d="M743 261H959.745L993 301L959.745 341H743V261Z" fill="#E8A1EE" fill-opacity="0.1"/>
<path id="Rectangle 8 (Stroke)" fill-rule="evenodd" clip-rule="evenodd" d="M958.338 264H746V338H958.338L989.099 301L958.338 264ZM959.745 261H743V341H959.745L993 301L959.745 261Z" fill="#E8A1EE"/>
<path id="Ellipse 1" d="M98 245C98 267.091 80.0914 285 58 285C35.9086 285 18 267.091 18 245C18 222.909 35.9086 205 58 205C80.0914 205 98 222.909 98 245Z" fill="#E8A1EE"/>
<path id="Ellipse 2" d="M102 355C102 377.091 84.0914 395 62 395C39.9086 395 22 377.091 22 355C22 332.909 39.9086 315 62 315C84.0914 315 102 332.909 102 355Z" fill="#E8A1EE"/>
<path id="Ellipse 3" d="M438 242C438 264.091 420.091 282 398 282C375.909 282 358 264.091 358 242C358 219.909 375.909 202 398 202C420.091 202 438 219.909 438 242Z" fill="#E8A1EE"/>
<path id="Ellipse 4" d="M441 352C441 374.091 423.091 392 401 392C378.909 392 361 374.091 361 352C361 329.909 378.909 312 401 312C423.091 312 441 329.909 441 352Z" fill="#E8A1EE"/>
<path id="Ellipse 5" d="M784 301C784 323.091 766.091 341 744 341C721.909 341 704 323.091 704 301C704 278.909 721.909 261 744 261C766.091 261 784 278.909 784 301Z" fill="#E8A1EE"/>
<path id="A" d="M66.0938 255.406H48.4688L44.7812 266H36.5625L53.75 220.5H60.8438L78.0625 266H69.8125L66.0938 255.406ZM50.6875 249.031H63.875L57.2812 230.156L50.6875 249.031Z" fill="white"/>
<path id="B" d="M45.625 371V325.5H61.2188C66.3646 325.5 70.2812 326.531 72.9688 328.594C75.6562 330.656 77 333.729 77 337.812C77 339.896 76.4375 341.771 75.3125 343.438C74.1875 345.104 72.5417 346.396 70.375 347.312C72.8333 347.979 74.7292 349.24 76.0625 351.094C77.4167 352.927 78.0938 355.135 78.0938 357.719C78.0938 361.99 76.7188 365.271 73.9688 367.562C71.2396 369.854 67.3229 371 62.2188 371H45.625ZM53.5312 350.469V364.688H62.3125C64.7917 364.688 66.7292 364.073 68.125 362.844C69.5208 361.615 70.2188 359.906 70.2188 357.719C70.2188 352.99 67.8021 350.573 62.9688 350.469H53.5312ZM53.5312 344.656H61.2812C63.7396 344.656 65.6562 344.104 67.0312 343C68.4271 341.875 69.125 340.292 69.125 338.25C69.125 336 68.4792 334.375 67.1875 333.375C65.9167 332.375 63.9271 331.875 61.2188 331.875H53.5312V344.656Z" fill="white"/>
<path id="C" d="M415.344 249.188C414.885 254.042 413.094 257.833 409.969 260.562C406.844 263.271 402.688 264.625 397.5 264.625C393.875 264.625 390.677 263.771 387.906 262.062C385.156 260.333 383.031 257.885 381.531 254.719C380.031 251.552 379.25 247.875 379.188 243.688V239.438C379.188 235.146 379.948 231.365 381.469 228.094C382.99 224.823 385.167 222.302 388 220.531C390.854 218.76 394.146 217.875 397.875 217.875C402.896 217.875 406.938 219.24 410 221.969C413.062 224.698 414.844 228.552 415.344 233.531H407.469C407.094 230.26 406.135 227.906 404.594 226.469C403.073 225.01 400.833 224.281 397.875 224.281C394.438 224.281 391.792 225.542 389.938 228.062C388.104 230.562 387.167 234.24 387.125 239.094V243.125C387.125 248.042 388 251.792 389.75 254.375C391.521 256.958 394.104 258.25 397.5 258.25C400.604 258.25 402.938 257.552 404.5 256.156C406.062 254.76 407.052 252.438 407.469 249.188H415.344Z" fill="white"/>
<path id="D" d="M383.625 374V328.5H397.062C401.083 328.5 404.646 329.396 407.75 331.188C410.875 332.979 413.292 335.521 415 338.812C416.708 342.104 417.562 345.875 417.562 350.125V352.406C417.562 356.719 416.698 360.51 414.969 363.781C413.26 367.052 410.812 369.573 407.625 371.344C404.458 373.115 400.823 374 396.719 374H383.625ZM391.531 334.875V367.688H396.688C400.833 367.688 404.01 366.396 406.219 363.812C408.448 361.208 409.583 357.479 409.625 352.625V350.094C409.625 345.156 408.552 341.385 406.406 338.781C404.26 336.177 401.146 334.875 397.062 334.875H391.531Z" fill="white"/>
<path id="E" d="M753.219 302.688H734.531V316.688H756.375V323H726.625V277.5H756.156V283.875H734.531V296.438H753.219V302.688Z" fill="white"/>
<g id="flecha">
<path id="Rectangle 2" d="M760.2 262.008L775.482 270.133L733.5 349.089L718.219 340.964L760.2 262.008Z" fill="#1043F5"/>
<path id="Rectangle 1" d="M702 274.904L792 225V282.692L747 265.096L702 274.904Z" fill="#1043F5"/>
<path id="Rectangle 3" d="M706.038 344.209L721.665 317.142L738.936 316.564L723.309 343.631L706.038 344.209Z" fill="#1043F5"/>
<path id="Rectangle 4_2" d="M732.09 358.845L747.717 331.778L738.926 316.154L723.299 343.221L732.09 358.845Z" fill="#1043F5"/>
</g>
<g id="440 850 720 660 480">
<path d="M153.855 253.404H157.406V256.059H153.855V262H150.586V256.059H138.932V254.143L150.393 236.406H153.855V253.404ZM142.623 253.404H150.586V240.854L150.199 241.557L142.623 253.404Z" fill="#E8A1EE"/>
<path d="M174.07 253.404H177.621V256.059H174.07V262H170.801V256.059H159.146V254.143L170.607 236.406H174.07V253.404ZM162.838 253.404H170.801V240.854L170.414 241.557L162.838 253.404Z" fill="#E8A1EE"/>
<path d="M196.605 251.084C196.605 254.893 195.955 257.723 194.654 259.574C193.354 261.426 191.32 262.352 188.555 262.352C185.824 262.352 183.803 261.449 182.49 259.645C181.178 257.828 180.498 255.121 180.451 251.523V247.182C180.451 243.42 181.102 240.625 182.402 238.797C183.703 236.969 185.742 236.055 188.52 236.055C191.273 236.055 193.301 236.939 194.602 238.709C195.902 240.467 196.57 243.186 196.605 246.865V251.084ZM193.354 246.637C193.354 243.883 192.967 241.879 192.193 240.625C191.42 239.359 190.195 238.727 188.52 238.727C186.855 238.727 185.643 239.354 184.881 240.607C184.119 241.861 183.727 243.789 183.703 246.391V251.594C183.703 254.359 184.102 256.404 184.898 257.729C185.707 259.041 186.926 259.697 188.555 259.697C190.16 259.697 191.35 259.076 192.123 257.834C192.908 256.592 193.318 254.635 193.354 251.963V246.637Z" fill="#E8A1EE"/>
<path d="M528.832 243.086C528.832 244.363 528.492 245.5 527.812 246.496C527.145 247.492 526.236 248.271 525.088 248.834C526.424 249.408 527.479 250.246 528.252 251.348C529.037 252.449 529.43 253.697 529.43 255.092C529.43 257.307 528.68 259.07 527.18 260.383C525.691 261.695 523.729 262.352 521.291 262.352C518.83 262.352 516.855 261.695 515.367 260.383C513.891 259.059 513.152 257.295 513.152 255.092C513.152 253.709 513.527 252.461 514.277 251.348C515.039 250.234 516.088 249.391 517.424 248.816C516.287 248.254 515.391 247.475 514.734 246.479C514.078 245.482 513.75 244.352 513.75 243.086C513.75 240.93 514.441 239.219 515.824 237.953C517.207 236.688 519.029 236.055 521.291 236.055C523.541 236.055 525.357 236.688 526.74 237.953C528.135 239.219 528.832 240.93 528.832 243.086ZM526.178 255.021C526.178 253.592 525.721 252.426 524.807 251.523C523.904 250.621 522.721 250.17 521.256 250.17C519.791 250.17 518.613 250.615 517.723 251.506C516.844 252.396 516.404 253.568 516.404 255.021C516.404 256.475 516.832 257.617 517.688 258.449C518.555 259.281 519.756 259.697 521.291 259.697C522.814 259.697 524.01 259.281 524.877 258.449C525.744 257.605 526.178 256.463 526.178 255.021ZM521.291 238.727C520.014 238.727 518.977 239.125 518.18 239.922C517.395 240.707 517.002 241.779 517.002 243.139C517.002 244.439 517.389 245.494 518.162 246.303C518.947 247.1 519.99 247.498 521.291 247.498C522.592 247.498 523.629 247.1 524.402 246.303C525.188 245.494 525.58 244.439 525.58 243.139C525.58 241.838 525.176 240.777 524.367 239.957C523.559 239.137 522.533 238.727 521.291 238.727Z" fill="#E8A1EE"/>
<path d="M535.02 249.168L536.32 236.406H549.434V239.412H539.08L538.307 246.391C539.561 245.652 540.984 245.283 542.578 245.283C544.91 245.283 546.762 246.057 548.133 247.604C549.504 249.139 550.189 251.219 550.189 253.844C550.189 256.48 549.475 258.561 548.045 260.084C546.627 261.596 544.641 262.352 542.086 262.352C539.824 262.352 537.979 261.725 536.549 260.471C535.119 259.217 534.305 257.482 534.105 255.268H537.182C537.381 256.732 537.902 257.84 538.746 258.59C539.59 259.328 540.703 259.697 542.086 259.697C543.598 259.697 544.781 259.182 545.637 258.15C546.504 257.119 546.938 255.695 546.938 253.879C546.938 252.168 546.469 250.797 545.531 249.766C544.605 248.723 543.369 248.201 541.822 248.201C540.404 248.201 539.291 248.512 538.482 249.133L537.621 249.836L535.02 249.168Z" fill="#E8A1EE"/>
<path d="M569.789 251.084C569.789 254.893 569.139 257.723 567.838 259.574C566.537 261.426 564.504 262.352 561.738 262.352C559.008 262.352 556.986 261.449 555.674 259.645C554.361 257.828 553.682 255.121 553.635 251.523V247.182C553.635 243.42 554.285 240.625 555.586 238.797C556.887 236.969 558.926 236.055 561.703 236.055C564.457 236.055 566.484 236.939 567.785 238.709C569.086 240.467 569.754 243.186 569.789 246.865V251.084ZM566.537 246.637C566.537 243.883 566.15 241.879 565.377 240.625C564.604 239.359 563.379 238.727 561.703 238.727C560.039 238.727 558.826 239.354 558.064 240.607C557.303 241.861 556.91 243.789 556.887 246.391V251.594C556.887 254.359 557.285 256.404 558.082 257.729C558.891 259.041 560.109 259.697 561.738 259.697C563.344 259.697 564.533 259.076 565.307 257.834C566.092 256.592 566.502 254.635 566.537 251.963V246.637Z" fill="#E8A1EE"/>
<path d="M853.166 288.234L842.566 312H839.156L849.721 289.078H835.869V286.406H853.166V288.234Z" fill="#E8A1EE"/>
<path d="M873.627 312H856.857V309.662L865.717 299.818C867.029 298.33 867.932 297.123 868.424 296.197C868.928 295.26 869.18 294.293 869.18 293.297C869.18 291.961 868.775 290.865 867.967 290.01C867.158 289.154 866.08 288.727 864.732 288.727C863.115 288.727 861.855 289.189 860.953 290.115C860.062 291.029 859.617 292.307 859.617 293.947H856.365C856.365 291.592 857.121 289.688 858.633 288.234C860.156 286.781 862.189 286.055 864.732 286.055C867.111 286.055 868.992 286.682 870.375 287.936C871.758 289.178 872.449 290.836 872.449 292.91C872.449 295.43 870.844 298.43 867.633 301.91L860.777 309.346H873.627V312Z" fill="#E8A1EE"/>
<path d="M893.121 301.084C893.121 304.893 892.471 307.723 891.17 309.574C889.869 311.426 887.836 312.352 885.07 312.352C882.34 312.352 880.318 311.449 879.006 309.645C877.693 307.828 877.014 305.121 876.967 301.523V297.182C876.967 293.42 877.617 290.625 878.918 288.797C880.219 286.969 882.258 286.055 885.035 286.055C887.789 286.055 889.816 286.939 891.117 288.709C892.418 290.467 893.086 293.186 893.121 296.865V301.084ZM889.869 296.637C889.869 293.883 889.482 291.879 888.709 290.625C887.936 289.359 886.711 288.727 885.035 288.727C883.371 288.727 882.158 289.354 881.396 290.607C880.635 291.861 880.242 293.789 880.219 296.391V301.594C880.219 304.359 880.617 306.404 881.414 307.729C882.223 309.041 883.441 309.697 885.07 309.697C886.676 309.697 887.865 309.076 888.639 307.834C889.424 306.592 889.834 304.635 889.869 301.963V296.637Z" fill="#E8A1EE"/>
<path d="M152.889 336.389V339.148H152.291C149.76 339.195 147.744 339.945 146.244 341.398C144.744 342.852 143.877 344.896 143.643 347.533C144.99 345.986 146.83 345.213 149.162 345.213C151.389 345.213 153.164 345.998 154.488 347.568C155.824 349.139 156.492 351.166 156.492 353.65C156.492 356.287 155.771 358.396 154.33 359.979C152.9 361.561 150.979 362.352 148.564 362.352C146.115 362.352 144.129 361.414 142.605 359.539C141.082 357.652 140.32 355.227 140.32 352.262V351.014C140.32 346.303 141.322 342.705 143.326 340.221C145.342 337.725 148.336 336.447 152.309 336.389H152.889ZM148.617 347.92C147.504 347.92 146.479 348.254 145.541 348.922C144.604 349.59 143.953 350.428 143.59 351.436V352.631C143.59 354.74 144.064 356.439 145.014 357.729C145.963 359.018 147.146 359.662 148.564 359.662C150.029 359.662 151.178 359.123 152.01 358.045C152.854 356.967 153.275 355.555 153.275 353.809C153.275 352.051 152.848 350.633 151.992 349.555C151.148 348.465 150.023 347.92 148.617 347.92Z" fill="#E8A1EE"/>
<path d="M173.104 336.389V339.148H172.506C169.975 339.195 167.959 339.945 166.459 341.398C164.959 342.852 164.092 344.896 163.857 347.533C165.205 345.986 167.045 345.213 169.377 345.213C171.604 345.213 173.379 345.998 174.703 347.568C176.039 349.139 176.707 351.166 176.707 353.65C176.707 356.287 175.986 358.396 174.545 359.979C173.115 361.561 171.193 362.352 168.779 362.352C166.33 362.352 164.344 361.414 162.82 359.539C161.297 357.652 160.535 355.227 160.535 352.262V351.014C160.535 346.303 161.537 342.705 163.541 340.221C165.557 337.725 168.551 336.447 172.523 336.389H173.104ZM168.832 347.92C167.719 347.92 166.693 348.254 165.756 348.922C164.818 349.59 164.168 350.428 163.805 351.436V352.631C163.805 354.74 164.279 356.439 165.229 357.729C166.178 359.018 167.361 359.662 168.779 359.662C170.244 359.662 171.393 359.123 172.225 358.045C173.068 356.967 173.49 355.555 173.49 353.809C173.49 352.051 173.062 350.633 172.207 349.555C171.363 348.465 170.238 347.92 168.832 347.92Z" fill="#E8A1EE"/>
<path d="M196.605 351.084C196.605 354.893 195.955 357.723 194.654 359.574C193.354 361.426 191.32 362.352 188.555 362.352C185.824 362.352 183.803 361.449 182.49 359.645C181.178 357.828 180.498 355.121 180.451 351.523V347.182C180.451 343.42 181.102 340.625 182.402 338.797C183.703 336.969 185.742 336.055 188.52 336.055C191.273 336.055 193.301 336.939 194.602 338.709C195.902 340.467 196.57 343.186 196.605 346.865V351.084ZM193.354 346.637C193.354 343.883 192.967 341.879 192.193 340.625C191.42 339.359 190.195 338.727 188.52 338.727C186.855 338.727 185.643 339.354 184.881 340.607C184.119 341.861 183.727 343.789 183.703 346.391V351.594C183.703 354.359 184.102 356.404 184.898 357.729C185.707 359.041 186.926 359.697 188.555 359.697C190.16 359.697 191.35 359.076 192.123 357.834C192.908 356.592 193.318 354.635 193.354 351.963V346.637Z" fill="#E8A1EE"/>
<path d="M535.969 353.404H539.52V356.059H535.969V362H532.699V356.059H521.045V354.143L532.506 336.406H535.969V353.404ZM524.736 353.404H532.699V340.854L532.312 341.557L524.736 353.404Z" fill="#E8A1EE"/>
<path d="M557.977 343.086C557.977 344.363 557.637 345.5 556.957 346.496C556.289 347.492 555.381 348.271 554.232 348.834C555.568 349.408 556.623 350.246 557.396 351.348C558.182 352.449 558.574 353.697 558.574 355.092C558.574 357.307 557.824 359.07 556.324 360.383C554.836 361.695 552.873 362.352 550.436 362.352C547.975 362.352 546 361.695 544.512 360.383C543.035 359.059 542.297 357.295 542.297 355.092C542.297 353.709 542.672 352.461 543.422 351.348C544.184 350.234 545.232 349.391 546.568 348.816C545.432 348.254 544.535 347.475 543.879 346.479C543.223 345.482 542.895 344.352 542.895 343.086C542.895 340.93 543.586 339.219 544.969 337.953C546.352 336.688 548.174 336.055 550.436 336.055C552.686 336.055 554.502 336.688 555.885 337.953C557.279 339.219 557.977 340.93 557.977 343.086ZM555.322 355.021C555.322 353.592 554.865 352.426 553.951 351.523C553.049 350.621 551.865 350.17 550.4 350.17C548.936 350.17 547.758 350.615 546.867 351.506C545.988 352.396 545.549 353.568 545.549 355.021C545.549 356.475 545.977 357.617 546.832 358.449C547.699 359.281 548.9 359.697 550.436 359.697C551.959 359.697 553.154 359.281 554.021 358.449C554.889 357.605 555.322 356.463 555.322 355.021ZM550.436 338.727C549.158 338.727 548.121 339.125 547.324 339.922C546.539 340.707 546.146 341.779 546.146 343.139C546.146 344.439 546.533 345.494 547.307 346.303C548.092 347.1 549.135 347.498 550.436 347.498C551.736 347.498 552.773 347.1 553.547 346.303C554.332 345.494 554.725 344.439 554.725 343.139C554.725 341.838 554.32 340.777 553.512 339.957C552.703 339.137 551.678 338.727 550.436 338.727Z" fill="#E8A1EE"/>
<path d="M578.719 351.084C578.719 354.893 578.068 357.723 576.768 359.574C575.467 361.426 573.434 362.352 570.668 362.352C567.938 362.352 565.916 361.449 564.604 359.645C563.291 357.828 562.611 355.121 562.564 351.523V347.182C562.564 343.42 563.215 340.625 564.516 338.797C565.816 336.969 567.855 336.055 570.633 336.055C573.387 336.055 575.414 336.939 576.715 338.709C578.016 340.467 578.684 343.186 578.719 346.865V351.084ZM575.467 346.637C575.467 343.883 575.08 341.879 574.307 340.625C573.533 339.359 572.309 338.727 570.633 338.727C568.969 338.727 567.756 339.354 566.994 340.607C566.232 341.861 565.84 343.789 565.816 346.391V351.594C565.816 354.359 566.215 356.404 567.012 357.729C567.82 359.041 569.039 359.697 570.668 359.697C572.273 359.697 573.463 359.076 574.236 357.834C575.021 356.592 575.432 354.635 575.467 351.963V346.637Z" fill="#E8A1EE"/>
</g>
</g>
<g id="enun01">
<path id="Rectangle 1_2" d="M58.2471 0H874.247L943 84.2698L874.247 171H58.2471V0Z" fill="#02071A"/>
<path id="Rectangle 1 (Stroke)" fill-rule="evenodd" clip-rule="evenodd" d="M872.335 4H62.2641V167H872.3L937.854 84.3058L872.335 4ZM874.247 0H58.2471V171H874.247L943 84.2698L874.247 0Z" fill="#E8A1EE"/>
<path id="Ellipse 1_2" d="M100.426 91C100.426 118.614 77.9449 141 50.213 141C22.4811 141 0 118.614 0 91C0 63.3858 22.4811 41 50.213 41C77.9449 41 100.426 63.3858 100.426 91Z" fill="#E8A1EE"/>
<path id="Ellipse 1 (Stroke)" fill-rule="evenodd" clip-rule="evenodd" d="M50.213 140C77.3902 140 99.4217 118.062 99.4217 91C99.4217 63.938 77.3902 42 50.213 42C23.0358 42 1.00426 63.938 1.00426 91C1.00426 118.062 23.0358 140 50.213 140ZM50.213 141C77.9449 141 100.426 118.614 100.426 91C100.426 63.3858 77.9449 41 50.213 41C22.4811 41 0 63.3858 0 91C0 118.614 22.4811 141 50.213 141Z" fill="#E8A1EE"/>
<g id="&#194;&#191;Cu&#195;&#161;l es el n&#195;&#186;mero cuyos 3/4 exceden en 420 a su sexta parte?">
<path d="M127.336 62.0469C127.324 63.2891 127.195 64.2852 126.949 65.0352C126.715 65.7734 126.316 66.4883 125.754 67.1797C125.191 67.8711 124.371 68.7852 123.293 69.9219C122.215 71.0469 121.611 72.1895 121.482 73.3496L121.447 74C121.447 75.2773 121.787 76.25 122.467 76.918C123.146 77.5977 124.125 77.9375 125.402 77.9375C126.574 77.9375 127.523 77.6035 128.25 76.9355C128.988 76.2793 129.357 75.418 129.357 74.3516H132.609C132.586 76.2383 131.912 77.7793 130.588 78.9746C129.275 80.1699 127.547 80.7676 125.402 80.7676C123.105 80.7676 121.33 80.1758 120.076 78.9922C118.822 77.8203 118.195 76.1855 118.195 74.0879C118.195 72.0605 119.133 70.0215 121.008 67.9707L122.924 65.9844C123.697 65.0703 124.084 63.7578 124.084 62.0469H127.336ZM127.477 56.4746C127.477 57.002 127.312 57.4473 126.984 57.8105C126.668 58.1738 126.193 58.3555 125.561 58.3555C124.928 58.3555 124.447 58.1738 124.119 57.8105C123.791 57.4473 123.627 57.002 123.627 56.4746C123.627 55.959 123.791 55.5254 124.119 55.1738C124.447 54.8223 124.928 54.6465 125.561 54.6465C126.193 54.6465 126.668 54.8223 126.984 55.1738C127.312 55.5254 127.477 55.959 127.477 56.4746Z" fill="white"/>
<path d="M155.848 65.8789C155.531 68.5859 154.529 70.6777 152.842 72.1543C151.166 73.6191 148.934 74.3516 146.145 74.3516C143.121 74.3516 140.695 73.2676 138.867 71.0996C137.051 68.9316 136.143 66.0312 136.143 62.3984V59.9375C136.143 57.5586 136.564 55.4668 137.408 53.6621C138.264 51.8574 139.471 50.4746 141.029 49.5137C142.588 48.541 144.393 48.0547 146.443 48.0547C149.162 48.0547 151.342 48.8164 152.982 50.3398C154.623 51.8516 155.578 53.9492 155.848 56.6328H152.455C152.162 54.5938 151.523 53.1172 150.539 52.2031C149.566 51.2891 148.201 50.832 146.443 50.832C144.287 50.832 142.594 51.6289 141.363 53.2227C140.145 54.8164 139.535 57.084 139.535 60.0254V62.5039C139.535 65.2812 140.115 67.4902 141.275 69.1309C142.436 70.7715 144.059 71.5918 146.145 71.5918C148.02 71.5918 149.455 71.1699 150.451 70.3262C151.459 69.4707 152.127 67.9883 152.455 65.8789H155.848Z" fill="white"/>
<path d="M171.703 72.1191C170.438 73.6074 168.58 74.3516 166.131 74.3516C164.104 74.3516 162.557 73.7656 161.49 72.5938C160.436 71.4102 159.902 69.6641 159.891 67.3555V54.9805H163.143V67.2676C163.143 70.1504 164.314 71.5918 166.658 71.5918C169.143 71.5918 170.795 70.666 171.615 68.8145V54.9805H174.867V74H171.773L171.703 72.1191Z" fill="white"/>
<path d="M191.566 74C191.379 73.625 191.227 72.957 191.109 71.9961C189.598 73.5664 187.793 74.3516 185.695 74.3516C183.82 74.3516 182.279 73.8242 181.072 72.7695C179.877 71.7031 179.279 70.3555 179.279 68.7266C179.279 66.7461 180.029 65.2109 181.529 64.1211C183.041 63.0195 185.162 62.4688 187.893 62.4688H191.057V60.9746C191.057 59.8379 190.717 58.9355 190.037 58.2676C189.357 57.5879 188.355 57.248 187.031 57.248C185.871 57.248 184.898 57.541 184.113 58.127C183.328 58.7129 182.936 59.4219 182.936 60.2539H179.666C179.666 59.3047 180 58.3906 180.668 57.5117C181.348 56.6211 182.262 55.918 183.41 55.4023C184.57 54.8867 185.842 54.6289 187.225 54.6289C189.416 54.6289 191.133 55.1797 192.375 56.2812C193.617 57.3711 194.262 58.877 194.309 60.7988V69.5527C194.309 71.2988 194.531 72.6875 194.977 73.7188V74H191.566ZM186.17 71.5215C187.189 71.5215 188.156 71.2578 189.07 70.7305C189.984 70.2031 190.646 69.5176 191.057 68.6738V64.7715H188.508C184.523 64.7715 182.531 65.9375 182.531 68.2695C182.531 69.2891 182.871 70.0859 183.551 70.6602C184.23 71.2344 185.104 71.5215 186.17 71.5215ZM189.176 47H193.113L188.402 52.168H185.783L189.176 47Z" fill="white"/>
<path d="M202.939 74H199.688V47H202.939V74Z" fill="white"/>
<path d="M224.982 74.3516C222.404 74.3516 220.307 73.5078 218.689 71.8203C217.072 70.1211 216.264 67.8535 216.264 65.0176V64.4199C216.264 62.5332 216.621 60.8516 217.336 59.375C218.062 57.8867 219.07 56.7266 220.359 55.8945C221.66 55.0508 223.066 54.6289 224.578 54.6289C227.051 54.6289 228.973 55.4434 230.344 57.0723C231.715 58.7012 232.4 61.0332 232.4 64.0684V65.4219H219.516C219.562 67.2969 220.107 68.8145 221.15 69.9746C222.205 71.123 223.541 71.6973 225.158 71.6973C226.307 71.6973 227.279 71.4629 228.076 70.9941C228.873 70.5254 229.57 69.9043 230.168 69.1309L232.154 70.6777C230.561 73.127 228.17 74.3516 224.982 74.3516ZM224.578 57.3008C223.266 57.3008 222.164 57.7812 221.273 58.7422C220.383 59.6914 219.832 61.0273 219.621 62.75H229.148V62.5039C229.055 60.8516 228.609 59.5742 227.812 58.6719C227.016 57.7578 225.938 57.3008 224.578 57.3008Z" fill="white"/>
<path d="M247.254 68.9551C247.254 68.0762 246.92 67.3965 246.252 66.916C245.596 66.4238 244.441 66.002 242.789 65.6504C241.148 65.2988 239.842 64.877 238.869 64.3848C237.908 63.8926 237.193 63.3066 236.725 62.627C236.268 61.9473 236.039 61.1387 236.039 60.2012C236.039 58.6426 236.695 57.3242 238.008 56.2461C239.332 55.168 241.02 54.6289 243.07 54.6289C245.227 54.6289 246.973 55.1855 248.309 56.2988C249.656 57.4121 250.33 58.8359 250.33 60.5703H247.061C247.061 59.6797 246.68 58.9121 245.918 58.2676C245.168 57.623 244.219 57.3008 243.07 57.3008C241.887 57.3008 240.961 57.5586 240.293 58.0742C239.625 58.5898 239.291 59.2637 239.291 60.0957C239.291 60.8809 239.602 61.4727 240.223 61.8711C240.844 62.2695 241.963 62.6504 243.58 63.0137C245.209 63.377 246.527 63.8105 247.535 64.3145C248.543 64.8184 249.287 65.4277 249.768 66.1426C250.26 66.8457 250.506 67.707 250.506 68.7266C250.506 70.4258 249.826 71.791 248.467 72.8223C247.107 73.8418 245.344 74.3516 243.176 74.3516C241.652 74.3516 240.305 74.082 239.133 73.543C237.961 73.0039 237.041 72.2539 236.373 71.293C235.717 70.3203 235.389 69.2715 235.389 68.1465H238.641C238.699 69.2363 239.133 70.1035 239.941 70.748C240.762 71.3809 241.84 71.6973 243.176 71.6973C244.406 71.6973 245.391 71.4512 246.129 70.959C246.879 70.4551 247.254 69.7871 247.254 68.9551Z" fill="white"/>
<path d="M271.564 74.3516C268.986 74.3516 266.889 73.5078 265.271 71.8203C263.654 70.1211 262.846 67.8535 262.846 65.0176V64.4199C262.846 62.5332 263.203 60.8516 263.918 59.375C264.645 57.8867 265.652 56.7266 266.941 55.8945C268.242 55.0508 269.648 54.6289 271.16 54.6289C273.633 54.6289 275.555 55.4434 276.926 57.0723C278.297 58.7012 278.982 61.0332 278.982 64.0684V65.4219H266.098C266.145 67.2969 266.689 68.8145 267.732 69.9746C268.787 71.123 270.123 71.6973 271.74 71.6973C272.889 71.6973 273.861 71.4629 274.658 70.9941C275.455 70.5254 276.152 69.9043 276.75 69.1309L278.736 70.6777C277.143 73.127 274.752 74.3516 271.564 74.3516ZM271.16 57.3008C269.848 57.3008 268.746 57.7812 267.855 58.7422C266.965 59.6914 266.414 61.0273 266.203 62.75H275.73V62.5039C275.637 60.8516 275.191 59.5742 274.395 58.6719C273.598 57.7578 272.52 57.3008 271.16 57.3008Z" fill="white"/>
<path d="M286.295 74H283.043V47H286.295V74Z" fill="white"/>
<path d="M303.521 54.9805L303.627 57.3711C305.08 55.543 306.979 54.6289 309.322 54.6289C313.342 54.6289 315.369 56.8965 315.404 61.4316V74H312.152V61.4141C312.141 60.043 311.824 59.0293 311.203 58.373C310.594 57.7168 309.639 57.3887 308.338 57.3887C307.283 57.3887 306.357 57.6699 305.561 58.2324C304.764 58.7949 304.143 59.5332 303.697 60.4473V74H300.445V54.9805H303.521Z" fill="white"/>
<path d="M332.051 72.1191C330.785 73.6074 328.928 74.3516 326.479 74.3516C324.451 74.3516 322.904 73.7656 321.838 72.5938C320.783 71.4102 320.25 69.6641 320.238 67.3555V54.9805H323.49V67.2676C323.49 70.1504 324.662 71.5918 327.006 71.5918C329.49 71.5918 331.143 70.666 331.963 68.8145V54.9805H335.215V74H332.121L332.051 72.1191ZM329.414 47H333.352L328.641 52.168H326.021L329.414 47Z" fill="white"/>
<path d="M343.23 54.9805L343.318 57.0898C344.713 55.4492 346.594 54.6289 348.961 54.6289C351.621 54.6289 353.432 55.6484 354.393 57.6875C355.025 56.7734 355.846 56.0352 356.854 55.4727C357.873 54.9102 359.074 54.6289 360.457 54.6289C364.629 54.6289 366.75 56.8379 366.82 61.2559V74H363.568V61.4492C363.568 60.0898 363.258 59.0762 362.637 58.4082C362.016 57.7285 360.973 57.3887 359.508 57.3887C358.301 57.3887 357.299 57.752 356.502 58.4785C355.705 59.1934 355.242 60.1602 355.113 61.3789V74H351.844V61.5371C351.844 58.7715 350.49 57.3887 347.783 57.3887C345.65 57.3887 344.191 58.2969 343.406 60.1133V74H340.154V54.9805H343.23Z" fill="white"/>
<path d="M379.635 74.3516C377.057 74.3516 374.959 73.5078 373.342 71.8203C371.725 70.1211 370.916 67.8535 370.916 65.0176V64.4199C370.916 62.5332 371.273 60.8516 371.988 59.375C372.715 57.8867 373.723 56.7266 375.012 55.8945C376.312 55.0508 377.719 54.6289 379.23 54.6289C381.703 54.6289 383.625 55.4434 384.996 57.0723C386.367 58.7012 387.053 61.0332 387.053 64.0684V65.4219H374.168C374.215 67.2969 374.76 68.8145 375.803 69.9746C376.857 71.123 378.193 71.6973 379.811 71.6973C380.959 71.6973 381.932 71.4629 382.729 70.9941C383.525 70.5254 384.223 69.9043 384.82 69.1309L386.807 70.6777C385.213 73.127 382.822 74.3516 379.635 74.3516ZM379.23 57.3008C377.918 57.3008 376.816 57.7812 375.926 58.7422C375.035 59.6914 374.484 61.0273 374.273 62.75H383.801V62.5039C383.707 60.8516 383.262 59.5742 382.465 58.6719C381.668 57.7578 380.59 57.3008 379.23 57.3008Z" fill="white"/>
<path d="M400.025 57.8984C399.533 57.8164 399 57.7754 398.426 57.7754C396.293 57.7754 394.846 58.6836 394.084 60.5V74H390.832V54.9805H393.996L394.049 57.1777C395.115 55.4785 396.627 54.6289 398.584 54.6289C399.217 54.6289 399.697 54.7109 400.025 54.875V57.8984Z" fill="white"/>
<path d="M401.818 64.3145C401.818 62.4512 402.182 60.7754 402.908 59.2871C403.646 57.7988 404.666 56.6504 405.967 55.8418C407.279 55.0332 408.773 54.6289 410.449 54.6289C413.039 54.6289 415.131 55.5254 416.725 57.3184C418.33 59.1113 419.133 61.4961 419.133 64.4727V64.7012C419.133 66.5527 418.775 68.2168 418.061 69.6934C417.357 71.1582 416.344 72.3008 415.02 73.1211C413.707 73.9414 412.195 74.3516 410.484 74.3516C407.906 74.3516 405.814 73.4551 404.209 71.6621C402.615 69.8691 401.818 67.4961 401.818 64.543V64.3145ZM405.088 64.7012C405.088 66.8105 405.574 68.5039 406.547 69.7812C407.531 71.0586 408.844 71.6973 410.484 71.6973C412.137 71.6973 413.449 71.0527 414.422 69.7637C415.395 68.4629 415.881 66.6465 415.881 64.3145C415.881 62.2285 415.383 60.541 414.387 59.252C413.402 57.9512 412.09 57.3008 410.449 57.3008C408.844 57.3008 407.549 57.9395 406.564 59.2168C405.58 60.4941 405.088 62.3223 405.088 64.7012Z" fill="white"/>
<path d="M439.77 71.6973C440.93 71.6973 441.943 71.3457 442.811 70.6426C443.678 69.9395 444.158 69.0605 444.252 68.0059H447.328C447.27 69.0957 446.895 70.1328 446.203 71.1172C445.512 72.1016 444.586 72.8867 443.426 73.4727C442.277 74.0586 441.059 74.3516 439.77 74.3516C437.18 74.3516 435.117 73.4902 433.582 71.7676C432.059 70.0332 431.297 67.666 431.297 64.666V64.1211C431.297 62.2695 431.637 60.623 432.316 59.1816C432.996 57.7402 433.969 56.6211 435.234 55.8242C436.512 55.0273 438.018 54.6289 439.752 54.6289C441.885 54.6289 443.654 55.2676 445.061 56.5449C446.479 57.8223 447.234 59.4805 447.328 61.5195H444.252C444.158 60.2891 443.689 59.2812 442.846 58.4961C442.014 57.6992 440.982 57.3008 439.752 57.3008C438.1 57.3008 436.816 57.8984 435.902 59.0938C435 60.2773 434.549 61.9941 434.549 64.2441V64.8594C434.549 67.0508 435 68.7383 435.902 69.9219C436.805 71.1055 438.094 71.6973 439.77 71.6973Z" fill="white"/>
<path d="M462.727 72.1191C461.461 73.6074 459.604 74.3516 457.154 74.3516C455.127 74.3516 453.58 73.7656 452.514 72.5938C451.459 71.4102 450.926 69.6641 450.914 67.3555V54.9805H454.166V67.2676C454.166 70.1504 455.338 71.5918 457.682 71.5918C460.166 71.5918 461.818 70.666 462.639 68.8145V54.9805H465.891V74H462.797L462.727 72.1191Z" fill="white"/>
<path d="M477.07 69.2363L481.5 54.9805H484.98L477.334 76.9355C476.15 80.0996 474.27 81.6816 471.691 81.6816L471.076 81.6289L469.863 81.4004V78.7637L470.742 78.834C471.844 78.834 472.699 78.6113 473.309 78.166C473.93 77.7207 474.439 76.9062 474.838 75.7227L475.559 73.7891L468.773 54.9805H472.324L477.07 69.2363Z" fill="white"/>
<path d="M486.756 64.3145C486.756 62.4512 487.119 60.7754 487.846 59.2871C488.584 57.7988 489.604 56.6504 490.904 55.8418C492.217 55.0332 493.711 54.6289 495.387 54.6289C497.977 54.6289 500.068 55.5254 501.662 57.3184C503.268 59.1113 504.07 61.4961 504.07 64.4727V64.7012C504.07 66.5527 503.713 68.2168 502.998 69.6934C502.295 71.1582 501.281 72.3008 499.957 73.1211C498.645 73.9414 497.133 74.3516 495.422 74.3516C492.844 74.3516 490.752 73.4551 489.146 71.6621C487.553 69.8691 486.756 67.4961 486.756 64.543V64.3145ZM490.025 64.7012C490.025 66.8105 490.512 68.5039 491.484 69.7812C492.469 71.0586 493.781 71.6973 495.422 71.6973C497.074 71.6973 498.387 71.0527 499.359 69.7637C500.332 68.4629 500.818 66.6465 500.818 64.3145C500.818 62.2285 500.32 60.541 499.324 59.252C498.34 57.9512 497.027 57.3008 495.387 57.3008C493.781 57.3008 492.486 57.9395 491.502 59.2168C490.518 60.4941 490.025 62.3223 490.025 64.7012Z" fill="white"/>
<path d="M519.223 68.9551C519.223 68.0762 518.889 67.3965 518.221 66.916C517.564 66.4238 516.41 66.002 514.758 65.6504C513.117 65.2988 511.811 64.877 510.838 64.3848C509.877 63.8926 509.162 63.3066 508.693 62.627C508.236 61.9473 508.008 61.1387 508.008 60.2012C508.008 58.6426 508.664 57.3242 509.977 56.2461C511.301 55.168 512.988 54.6289 515.039 54.6289C517.195 54.6289 518.941 55.1855 520.277 56.2988C521.625 57.4121 522.299 58.8359 522.299 60.5703H519.029C519.029 59.6797 518.648 58.9121 517.887 58.2676C517.137 57.623 516.188 57.3008 515.039 57.3008C513.855 57.3008 512.93 57.5586 512.262 58.0742C511.594 58.5898 511.26 59.2637 511.26 60.0957C511.26 60.8809 511.57 61.4727 512.191 61.8711C512.812 62.2695 513.932 62.6504 515.549 63.0137C517.178 63.377 518.496 63.8105 519.504 64.3145C520.512 64.8184 521.256 65.4277 521.736 66.1426C522.229 66.8457 522.475 67.707 522.475 68.7266C522.475 70.4258 521.795 71.791 520.436 72.8223C519.076 73.8418 517.312 74.3516 515.145 74.3516C513.621 74.3516 512.273 74.082 511.102 73.543C509.93 73.0039 509.01 72.2539 508.342 71.293C507.686 70.3203 507.357 69.2715 507.357 68.1465H510.609C510.668 69.2363 511.102 70.1035 511.91 70.748C512.73 71.3809 513.809 71.6973 515.145 71.6973C516.375 71.6973 517.359 71.4512 518.098 70.959C518.848 70.4551 519.223 69.7871 519.223 68.9551Z" fill="white"/>
<path d="M540.035 59.6211H542.479C544.014 59.5977 545.221 59.1934 546.1 58.4082C546.979 57.623 547.418 56.5625 547.418 55.2266C547.418 52.2266 545.924 50.7266 542.936 50.7266C541.529 50.7266 540.404 51.1309 539.561 51.9395C538.729 52.7363 538.312 53.7969 538.312 55.1211H535.061C535.061 53.0938 535.799 51.4121 537.275 50.0762C538.764 48.7285 540.65 48.0547 542.936 48.0547C545.35 48.0547 547.242 48.6934 548.613 49.9707C549.984 51.248 550.67 53.0234 550.67 55.2969C550.67 56.4102 550.307 57.4883 549.58 58.5312C548.865 59.5742 547.887 60.3535 546.645 60.8691C548.051 61.3145 549.135 62.0527 549.896 63.084C550.67 64.1152 551.057 65.375 551.057 66.8633C551.057 69.1602 550.307 70.9824 548.807 72.3301C547.307 73.6777 545.355 74.3516 542.953 74.3516C540.551 74.3516 538.594 73.7012 537.082 72.4004C535.582 71.0996 534.832 69.3828 534.832 67.25H538.102C538.102 68.5977 538.541 69.6758 539.42 70.4844C540.299 71.293 541.477 71.6973 542.953 71.6973C544.523 71.6973 545.725 71.2871 546.557 70.4668C547.389 69.6465 547.805 68.4688 547.805 66.9336C547.805 65.4453 547.348 64.3027 546.434 63.5059C545.52 62.709 544.201 62.2988 542.479 62.2754H540.035V59.6211Z" fill="white"/>
<path d="M556.506 76.1973H553.711L564.398 48.4062H567.176L556.506 76.1973Z" fill="white"/>
<path d="M584.086 65.4043H587.637V68.0586H584.086V74H580.816V68.0586H569.162V66.1426L580.623 48.4062H584.086V65.4043ZM572.854 65.4043H580.816V52.8535L580.43 53.5566L572.854 65.4043Z" fill="white"/>
<path d="M607.729 74.3516C605.15 74.3516 603.053 73.5078 601.436 71.8203C599.818 70.1211 599.01 67.8535 599.01 65.0176V64.4199C599.01 62.5332 599.367 60.8516 600.082 59.375C600.809 57.8867 601.816 56.7266 603.105 55.8945C604.406 55.0508 605.812 54.6289 607.324 54.6289C609.797 54.6289 611.719 55.4434 613.09 57.0723C614.461 58.7012 615.146 61.0332 615.146 64.0684V65.4219H602.262C602.309 67.2969 602.854 68.8145 603.896 69.9746C604.951 71.123 606.287 71.6973 607.904 71.6973C609.053 71.6973 610.025 71.4629 610.822 70.9941C611.619 70.5254 612.316 69.9043 612.914 69.1309L614.9 70.6777C613.307 73.127 610.916 74.3516 607.729 74.3516ZM607.324 57.3008C606.012 57.3008 604.91 57.7812 604.02 58.7422C603.129 59.6914 602.578 61.0273 602.367 62.75H611.895V62.5039C611.801 60.8516 611.355 59.5742 610.559 58.6719C609.762 57.7578 608.684 57.3008 607.324 57.3008Z" fill="white"/>
<path d="M625.307 61.9238L629.525 54.9805H633.322L627.1 64.3848L633.516 74H629.754L625.359 66.8809L620.965 74H617.186L623.602 64.3848L617.379 54.9805H621.141L625.307 61.9238Z" fill="white"/>
<path d="M644.062 71.6973C645.223 71.6973 646.236 71.3457 647.104 70.6426C647.971 69.9395 648.451 69.0605 648.545 68.0059H651.621C651.562 69.0957 651.188 70.1328 650.496 71.1172C649.805 72.1016 648.879 72.8867 647.719 73.4727C646.57 74.0586 645.352 74.3516 644.062 74.3516C641.473 74.3516 639.41 73.4902 637.875 71.7676C636.352 70.0332 635.59 67.666 635.59 64.666V64.1211C635.59 62.2695 635.93 60.623 636.609 59.1816C637.289 57.7402 638.262 56.6211 639.527 55.8242C640.805 55.0273 642.311 54.6289 644.045 54.6289C646.178 54.6289 647.947 55.2676 649.354 56.5449C650.771 57.8223 651.527 59.4805 651.621 61.5195H648.545C648.451 60.2891 647.982 59.2812 647.139 58.4961C646.307 57.6992 645.275 57.3008 644.045 57.3008C642.393 57.3008 641.109 57.8984 640.195 59.0938C639.293 60.2773 638.842 61.9941 638.842 64.2441V64.8594C638.842 67.0508 639.293 68.7383 640.195 69.9219C641.098 71.1055 642.387 71.6973 644.062 71.6973Z" fill="white"/>
<path d="M663.17 74.3516C660.592 74.3516 658.494 73.5078 656.877 71.8203C655.26 70.1211 654.451 67.8535 654.451 65.0176V64.4199C654.451 62.5332 654.809 60.8516 655.523 59.375C656.25 57.8867 657.258 56.7266 658.547 55.8945C659.848 55.0508 661.254 54.6289 662.766 54.6289C665.238 54.6289 667.16 55.4434 668.531 57.0723C669.902 58.7012 670.588 61.0332 670.588 64.0684V65.4219H657.703C657.75 67.2969 658.295 68.8145 659.338 69.9746C660.393 71.123 661.729 71.6973 663.346 71.6973C664.494 71.6973 665.467 71.4629 666.264 70.9941C667.061 70.5254 667.758 69.9043 668.355 69.1309L670.342 70.6777C668.748 73.127 666.357 74.3516 663.17 74.3516ZM662.766 57.3008C661.453 57.3008 660.352 57.7812 659.461 58.7422C658.57 59.6914 658.02 61.0273 657.809 62.75H667.336V62.5039C667.242 60.8516 666.797 59.5742 666 58.6719C665.203 57.7578 664.125 57.3008 662.766 57.3008Z" fill="white"/>
<path d="M673.576 64.332C673.576 61.4141 674.268 59.0703 675.65 57.3008C677.033 55.5195 678.844 54.6289 681.082 54.6289C683.309 54.6289 685.072 55.3906 686.373 56.9141V47H689.625V74H686.637L686.479 71.9609C685.178 73.5547 683.367 74.3516 681.047 74.3516C678.844 74.3516 677.045 73.4492 675.65 71.6445C674.268 69.8398 673.576 67.4844 673.576 64.5781V64.332ZM676.828 64.7012C676.828 66.8574 677.273 68.5449 678.164 69.7637C679.055 70.9824 680.285 71.5918 681.855 71.5918C683.918 71.5918 685.424 70.666 686.373 68.8145V60.0781C685.4 58.2852 683.906 57.3887 681.891 57.3887C680.297 57.3887 679.055 58.0039 678.164 59.2344C677.273 60.4648 676.828 62.2871 676.828 64.7012Z" fill="white"/>
<path d="M702.58 74.3516C700.002 74.3516 697.904 73.5078 696.287 71.8203C694.67 70.1211 693.861 67.8535 693.861 65.0176V64.4199C693.861 62.5332 694.219 60.8516 694.934 59.375C695.66 57.8867 696.668 56.7266 697.957 55.8945C699.258 55.0508 700.664 54.6289 702.176 54.6289C704.648 54.6289 706.57 55.4434 707.941 57.0723C709.312 58.7012 709.998 61.0332 709.998 64.0684V65.4219H697.113C697.16 67.2969 697.705 68.8145 698.748 69.9746C699.803 71.123 701.139 71.6973 702.756 71.6973C703.904 71.6973 704.877 71.4629 705.674 70.9941C706.471 70.5254 707.168 69.9043 707.766 69.1309L709.752 70.6777C708.158 73.127 705.768 74.3516 702.58 74.3516ZM702.176 57.3008C700.863 57.3008 699.762 57.7812 698.871 58.7422C697.98 59.6914 697.43 61.0273 697.219 62.75H706.746V62.5039C706.652 60.8516 706.207 59.5742 705.41 58.6719C704.613 57.7578 703.535 57.3008 702.176 57.3008Z" fill="white"/>
<path d="M716.854 54.9805L716.959 57.3711C718.412 55.543 720.311 54.6289 722.654 54.6289C726.674 54.6289 728.701 56.8965 728.736 61.4316V74H725.484V61.4141C725.473 60.043 725.156 59.0293 724.535 58.373C723.926 57.7168 722.971 57.3887 721.67 57.3887C720.615 57.3887 719.689 57.6699 718.893 58.2324C718.096 58.7949 717.475 59.5332 717.029 60.4473V74H713.777V54.9805H716.854Z" fill="white"/>
<path d="M750.463 74.3516C747.885 74.3516 745.787 73.5078 744.17 71.8203C742.553 70.1211 741.744 67.8535 741.744 65.0176V64.4199C741.744 62.5332 742.102 60.8516 742.816 59.375C743.543 57.8867 744.551 56.7266 745.84 55.8945C747.141 55.0508 748.547 54.6289 750.059 54.6289C752.531 54.6289 754.453 55.4434 755.824 57.0723C757.195 58.7012 757.881 61.0332 757.881 64.0684V65.4219H744.996C745.043 67.2969 745.588 68.8145 746.631 69.9746C747.686 71.123 749.021 71.6973 750.639 71.6973C751.787 71.6973 752.76 71.4629 753.557 70.9941C754.354 70.5254 755.051 69.9043 755.648 69.1309L757.635 70.6777C756.041 73.127 753.65 74.3516 750.463 74.3516ZM750.059 57.3008C748.746 57.3008 747.645 57.7812 746.754 58.7422C745.863 59.6914 745.312 61.0273 745.102 62.75H754.629V62.5039C754.535 60.8516 754.09 59.5742 753.293 58.6719C752.496 57.7578 751.418 57.3008 750.059 57.3008Z" fill="white"/>
<path d="M764.736 54.9805L764.842 57.3711C766.295 55.543 768.193 54.6289 770.537 54.6289C774.557 54.6289 776.584 56.8965 776.619 61.4316V74H773.367V61.4141C773.355 60.043 773.039 59.0293 772.418 58.373C771.809 57.7168 770.854 57.3887 769.553 57.3887C768.498 57.3887 767.572 57.6699 766.775 58.2324C765.979 58.7949 765.357 59.5332 764.912 60.4473V74H761.66V54.9805H764.736Z" fill="white"/>
<path d="M803.848 65.4043H807.398V68.0586H803.848V74H800.578V68.0586H788.924V66.1426L800.385 48.4062H803.848V65.4043ZM792.615 65.4043H800.578V52.8535L800.191 53.5566L792.615 65.4043Z" fill="white"/>
<path d="M827.104 74H810.334V71.6621L819.193 61.8184C820.506 60.3301 821.408 59.123 821.9 58.1973C822.404 57.2598 822.656 56.293 822.656 55.2969C822.656 53.9609 822.252 52.8652 821.443 52.0098C820.635 51.1543 819.557 50.7266 818.209 50.7266C816.592 50.7266 815.332 51.1895 814.43 52.1152C813.539 53.0293 813.094 54.3066 813.094 55.9473H809.842C809.842 53.5918 810.598 51.6875 812.109 50.2344C813.633 48.7812 815.666 48.0547 818.209 48.0547C820.588 48.0547 822.469 48.6816 823.852 49.9355C825.234 51.1777 825.926 52.8359 825.926 54.9102C825.926 57.4297 824.32 60.4297 821.109 63.9102L814.254 71.3457H827.104V74Z" fill="white"/>
<path d="M846.598 63.084C846.598 66.8926 845.947 69.7227 844.646 71.5742C843.346 73.4258 841.312 74.3516 838.547 74.3516C835.816 74.3516 833.795 73.4492 832.482 71.6445C831.17 69.8281 830.49 67.1211 830.443 63.5234V59.1816C830.443 55.4199 831.094 52.625 832.395 50.7969C833.695 48.9688 835.734 48.0547 838.512 48.0547C841.266 48.0547 843.293 48.9395 844.594 50.709C845.895 52.4668 846.562 55.1855 846.598 58.8652V63.084ZM843.346 58.6367C843.346 55.8828 842.959 53.8789 842.186 52.625C841.412 51.3594 840.188 50.7266 838.512 50.7266C836.848 50.7266 835.635 51.3535 834.873 52.6074C834.111 53.8613 833.719 55.7891 833.695 58.3906V63.5938C833.695 66.3594 834.094 68.4043 834.891 69.7285C835.699 71.041 836.918 71.6973 838.547 71.6973C840.152 71.6973 841.342 71.0762 842.115 69.834C842.9 68.5918 843.311 66.6348 843.346 63.9629V58.6367Z" fill="white"/>
<path d="M871.77 74C871.582 73.625 871.43 72.957 871.312 71.9961C869.801 73.5664 867.996 74.3516 865.898 74.3516C864.023 74.3516 862.482 73.8242 861.275 72.7695C860.08 71.7031 859.482 70.3555 859.482 68.7266C859.482 66.7461 860.232 65.2109 861.732 64.1211C863.244 63.0195 865.365 62.4688 868.096 62.4688H871.26V60.9746C871.26 59.8379 870.92 58.9355 870.24 58.2676C869.561 57.5879 868.559 57.248 867.234 57.248C866.074 57.248 865.102 57.541 864.316 58.127C863.531 58.7129 863.139 59.4219 863.139 60.2539H859.869C859.869 59.3047 860.203 58.3906 860.871 57.5117C861.551 56.6211 862.465 55.918 863.613 55.4023C864.773 54.8867 866.045 54.6289 867.428 54.6289C869.619 54.6289 871.336 55.1797 872.578 56.2812C873.82 57.3711 874.465 58.877 874.512 60.7988V69.5527C874.512 71.2988 874.734 72.6875 875.18 73.7188V74H871.77ZM866.373 71.5215C867.393 71.5215 868.359 71.2578 869.273 70.7305C870.188 70.2031 870.85 69.5176 871.26 68.6738V64.7715H868.711C864.727 64.7715 862.734 65.9375 862.734 68.2695C862.734 69.2891 863.074 70.0859 863.754 70.6602C864.434 71.2344 865.307 71.5215 866.373 71.5215Z" fill="white"/>
<path d="M130.535 110.955C130.535 110.076 130.201 109.396 129.533 108.916C128.877 108.424 127.723 108.002 126.07 107.65C124.43 107.299 123.123 106.877 122.15 106.385C121.189 105.893 120.475 105.307 120.006 104.627C119.549 103.947 119.32 103.139 119.32 102.201C119.32 100.643 119.977 99.3242 121.289 98.2461C122.613 97.168 124.301 96.6289 126.352 96.6289C128.508 96.6289 130.254 97.1855 131.59 98.2988C132.938 99.4121 133.611 100.836 133.611 102.57H130.342C130.342 101.68 129.961 100.912 129.199 100.268C128.449 99.623 127.5 99.3008 126.352 99.3008C125.168 99.3008 124.242 99.5586 123.574 100.074C122.906 100.59 122.572 101.264 122.572 102.096C122.572 102.881 122.883 103.473 123.504 103.871C124.125 104.27 125.244 104.65 126.861 105.014C128.49 105.377 129.809 105.811 130.816 106.314C131.824 106.818 132.568 107.428 133.049 108.143C133.541 108.846 133.787 109.707 133.787 110.727C133.787 112.426 133.107 113.791 131.748 114.822C130.389 115.842 128.625 116.352 126.457 116.352C124.934 116.352 123.586 116.082 122.414 115.543C121.242 115.004 120.322 114.254 119.654 113.293C118.998 112.32 118.67 111.271 118.67 110.146H121.922C121.98 111.236 122.414 112.104 123.223 112.748C124.043 113.381 125.121 113.697 126.457 113.697C127.688 113.697 128.672 113.451 129.41 112.959C130.16 112.455 130.535 111.787 130.535 110.955Z" fill="white"/>
<path d="M149.766 114.119C148.5 115.607 146.643 116.352 144.193 116.352C142.166 116.352 140.619 115.766 139.553 114.594C138.498 113.41 137.965 111.664 137.953 109.355V96.9805H141.205V109.268C141.205 112.15 142.377 113.592 144.721 113.592C147.205 113.592 148.857 112.666 149.678 110.814V96.9805H152.93V116H149.836L149.766 114.119Z" fill="white"/>
<path d="M177.891 110.955C177.891 110.076 177.557 109.396 176.889 108.916C176.232 108.424 175.078 108.002 173.426 107.65C171.785 107.299 170.479 106.877 169.506 106.385C168.545 105.893 167.83 105.307 167.361 104.627C166.904 103.947 166.676 103.139 166.676 102.201C166.676 100.643 167.332 99.3242 168.645 98.2461C169.969 97.168 171.656 96.6289 173.707 96.6289C175.863 96.6289 177.609 97.1855 178.945 98.2988C180.293 99.4121 180.967 100.836 180.967 102.57H177.697C177.697 101.68 177.316 100.912 176.555 100.268C175.805 99.623 174.855 99.3008 173.707 99.3008C172.523 99.3008 171.598 99.5586 170.93 100.074C170.262 100.59 169.928 101.264 169.928 102.096C169.928 102.881 170.238 103.473 170.859 103.871C171.48 104.27 172.6 104.65 174.217 105.014C175.846 105.377 177.164 105.811 178.172 106.314C179.18 106.818 179.924 107.428 180.404 108.143C180.896 108.846 181.143 109.707 181.143 110.727C181.143 112.426 180.463 113.791 179.104 114.822C177.744 115.842 175.98 116.352 173.812 116.352C172.289 116.352 170.941 116.082 169.77 115.543C168.598 115.004 167.678 114.254 167.01 113.293C166.354 112.32 166.025 111.271 166.025 110.146H169.277C169.336 111.236 169.77 112.104 170.578 112.748C171.398 113.381 172.477 113.697 173.812 113.697C175.043 113.697 176.027 113.451 176.766 112.959C177.516 112.455 177.891 111.787 177.891 110.955Z" fill="white"/>
<path d="M193.271 116.352C190.693 116.352 188.596 115.508 186.979 113.82C185.361 112.121 184.553 109.854 184.553 107.018V106.42C184.553 104.533 184.91 102.852 185.625 101.375C186.352 99.8867 187.359 98.7266 188.648 97.8945C189.949 97.0508 191.355 96.6289 192.867 96.6289C195.34 96.6289 197.262 97.4434 198.633 99.0723C200.004 100.701 200.689 103.033 200.689 106.068V107.422H187.805C187.852 109.297 188.396 110.814 189.439 111.975C190.494 113.123 191.83 113.697 193.447 113.697C194.596 113.697 195.568 113.463 196.365 112.994C197.162 112.525 197.859 111.904 198.457 111.131L200.443 112.678C198.85 115.127 196.459 116.352 193.271 116.352ZM192.867 99.3008C191.555 99.3008 190.453 99.7812 189.562 100.742C188.672 101.691 188.121 103.027 187.91 104.75H197.438V104.504C197.344 102.852 196.898 101.574 196.102 100.672C195.305 99.7578 194.227 99.3008 192.867 99.3008Z" fill="white"/>
<path d="M210.85 103.924L215.068 96.9805H218.865L212.643 106.385L219.059 116H215.297L210.902 108.881L206.508 116H202.729L209.145 106.385L202.922 96.9805H206.684L210.85 103.924Z" fill="white"/>
<path d="M226.74 92.375V96.9805H230.291V99.4941H226.74V111.289C226.74 112.051 226.898 112.625 227.215 113.012C227.531 113.387 228.07 113.574 228.832 113.574C229.207 113.574 229.723 113.504 230.379 113.363V116C229.523 116.234 228.691 116.352 227.883 116.352C226.43 116.352 225.334 115.912 224.596 115.033C223.857 114.154 223.488 112.906 223.488 111.289V99.4941H220.025V96.9805H223.488V92.375H226.74Z" fill="white"/>
<path d="M245.848 116C245.66 115.625 245.508 114.957 245.391 113.996C243.879 115.566 242.074 116.352 239.977 116.352C238.102 116.352 236.561 115.824 235.354 114.77C234.158 113.703 233.561 112.355 233.561 110.727C233.561 108.746 234.311 107.211 235.811 106.121C237.322 105.02 239.443 104.469 242.174 104.469H245.338V102.975C245.338 101.838 244.998 100.936 244.318 100.268C243.639 99.5879 242.637 99.248 241.312 99.248C240.152 99.248 239.18 99.541 238.395 100.127C237.609 100.713 237.217 101.422 237.217 102.254H233.947C233.947 101.305 234.281 100.391 234.949 99.5117C235.629 98.6211 236.543 97.918 237.691 97.4023C238.852 96.8867 240.123 96.6289 241.506 96.6289C243.697 96.6289 245.414 97.1797 246.656 98.2812C247.898 99.3711 248.543 100.877 248.59 102.799V111.553C248.59 113.299 248.812 114.688 249.258 115.719V116H245.848ZM240.451 113.521C241.471 113.521 242.438 113.258 243.352 112.73C244.266 112.203 244.928 111.518 245.338 110.674V106.771H242.789C238.805 106.771 236.812 107.938 236.812 110.27C236.812 111.289 237.152 112.086 237.832 112.66C238.512 113.234 239.385 113.521 240.451 113.521Z" fill="white"/>
<path d="M278.684 106.701C278.684 109.596 278.021 111.928 276.697 113.697C275.373 115.467 273.58 116.352 271.318 116.352C269.01 116.352 267.193 115.619 265.869 114.154V123.312H262.617V96.9805H265.588L265.746 99.0898C267.07 97.4492 268.91 96.6289 271.266 96.6289C273.551 96.6289 275.355 97.4902 276.68 99.2129C278.016 100.936 278.684 103.332 278.684 106.402V106.701ZM275.432 106.332C275.432 104.188 274.975 102.494 274.061 101.252C273.146 100.01 271.893 99.3887 270.299 99.3887C268.33 99.3887 266.854 100.262 265.869 102.008V111.096C266.842 112.83 268.33 113.697 270.334 113.697C271.893 113.697 273.129 113.082 274.043 111.852C274.969 110.609 275.432 108.77 275.432 106.332Z" fill="white"/>
<path d="M294.574 116C294.387 115.625 294.234 114.957 294.117 113.996C292.605 115.566 290.801 116.352 288.703 116.352C286.828 116.352 285.287 115.824 284.08 114.77C282.885 113.703 282.287 112.355 282.287 110.727C282.287 108.746 283.037 107.211 284.537 106.121C286.049 105.02 288.17 104.469 290.9 104.469H294.064V102.975C294.064 101.838 293.725 100.936 293.045 100.268C292.365 99.5879 291.363 99.248 290.039 99.248C288.879 99.248 287.906 99.541 287.121 100.127C286.336 100.713 285.943 101.422 285.943 102.254H282.674C282.674 101.305 283.008 100.391 283.676 99.5117C284.355 98.6211 285.27 97.918 286.418 97.4023C287.578 96.8867 288.85 96.6289 290.232 96.6289C292.424 96.6289 294.141 97.1797 295.383 98.2812C296.625 99.3711 297.27 100.877 297.316 102.799V111.553C297.316 113.299 297.539 114.688 297.984 115.719V116H294.574ZM289.178 113.521C290.197 113.521 291.164 113.258 292.078 112.73C292.992 112.203 293.654 111.518 294.064 110.674V106.771H291.516C287.531 106.771 285.539 107.938 285.539 110.27C285.539 111.289 285.879 112.086 286.559 112.66C287.238 113.234 288.111 113.521 289.178 113.521Z" fill="white"/>
<path d="M311.607 99.8984C311.115 99.8164 310.582 99.7754 310.008 99.7754C307.875 99.7754 306.428 100.684 305.666 102.5V116H302.414V96.9805H305.578L305.631 99.1777C306.697 97.4785 308.209 96.6289 310.166 96.6289C310.799 96.6289 311.279 96.7109 311.607 96.875V99.8984Z" fill="white"/>
<path d="M319.904 92.375V96.9805H323.455V99.4941H319.904V111.289C319.904 112.051 320.062 112.625 320.379 113.012C320.695 113.387 321.234 113.574 321.996 113.574C322.371 113.574 322.887 113.504 323.543 113.363V116C322.688 116.234 321.855 116.352 321.047 116.352C319.594 116.352 318.498 115.912 317.76 115.033C317.021 114.154 316.652 112.906 316.652 111.289V99.4941H313.189V96.9805H316.652V92.375H319.904Z" fill="white"/>
<path d="M335.162 116.352C332.584 116.352 330.486 115.508 328.869 113.82C327.252 112.121 326.443 109.854 326.443 107.018V106.42C326.443 104.533 326.801 102.852 327.516 101.375C328.242 99.8867 329.25 98.7266 330.539 97.8945C331.84 97.0508 333.246 96.6289 334.758 96.6289C337.23 96.6289 339.152 97.4434 340.523 99.0723C341.895 100.701 342.58 103.033 342.58 106.068V107.422H329.695C329.742 109.297 330.287 110.814 331.33 111.975C332.385 113.123 333.721 113.697 335.338 113.697C336.486 113.697 337.459 113.463 338.256 112.994C339.053 112.525 339.75 111.904 340.348 111.131L342.334 112.678C340.74 115.127 338.35 116.352 335.162 116.352ZM334.758 99.3008C333.445 99.3008 332.344 99.7812 331.453 100.742C330.562 101.691 330.012 103.027 329.801 104.75H339.328V104.504C339.234 102.852 338.789 101.574 337.992 100.672C337.195 99.7578 336.117 99.3008 334.758 99.3008Z" fill="white"/>
<path d="M350.174 108.793C350.197 107.398 350.355 106.297 350.648 105.488C350.941 104.68 351.539 103.783 352.441 102.799L354.744 100.426C355.729 99.3125 356.221 98.1172 356.221 96.8398C356.221 95.6094 355.898 94.6484 355.254 93.957C354.609 93.2539 353.672 92.9023 352.441 92.9023C351.246 92.9023 350.285 93.2188 349.559 93.8516C348.832 94.4844 348.469 95.334 348.469 96.4004H345.217C345.24 94.502 345.914 92.9727 347.238 91.8125C348.574 90.6406 350.309 90.0547 352.441 90.0547C354.656 90.0547 356.379 90.6523 357.609 91.8477C358.852 93.0312 359.473 94.6602 359.473 96.7344C359.473 98.7852 358.523 100.807 356.625 102.799L354.709 104.697C353.854 105.646 353.426 107.012 353.426 108.793H350.174ZM350.033 114.365C350.033 113.838 350.191 113.398 350.508 113.047C350.836 112.684 351.316 112.502 351.949 112.502C352.582 112.502 353.062 112.684 353.391 113.047C353.719 113.398 353.883 113.838 353.883 114.365C353.883 114.893 353.719 115.332 353.391 115.684C353.062 116.023 352.582 116.193 351.949 116.193C351.316 116.193 350.836 116.023 350.508 115.684C350.191 115.332 350.033 114.893 350.033 114.365Z" fill="white"/>
</g>
</g>
</g>
</svg>
