<svg viewBox="0 0 975 473" fill="none" xmlns="http://www.w3.org/2000/svg">
<g id="0120116">
<g id="Group 8">
<path id="Rectangle 1" d="M28 32.544C28 15.5879 49.3794 1.84229 75.7522 1.84229H899V214.298C899 231.254 877.62 245 851.247 245H28V32.544Z" fill="#02071A"/>
<path id="Rectangle 1 (Stroke)" fill-rule="evenodd" clip-rule="evenodd" d="M894.224 4.91246H75.7522C52.0167 4.91246 32.7752 17.2835 32.7752 32.544V241.93H851.247C874.983 241.93 894.224 229.559 894.224 214.298V4.91246ZM75.7522 1.84229C49.3794 1.84229 28 15.5879 28 32.544V245H851.247C877.62 245 899 231.254 899 214.298V1.84229H75.7522Z" fill="#CD08D1"/>
<path id="Rectangle 14" d="M79.7156 1.88657C105.256 -2.35822 899 1.88657 899 1.88657V20.2632C899 20.2632 66.2017 13.5088 36.5954 20.2632C45.8075 10.5165 54.1754 6.13136 79.7156 1.88657Z" fill="#CD08D1"/>
<path id="Rectangle 15" d="M870.349 1.84229H899V214.912C895.483 229.372 888.194 234.686 870.349 241.623C875.601 230.263 870.349 1.84229 870.349 1.84229Z" fill="#CD08D1"/>
</g>
<g id="claves01">
<path id="Rectangle 4" d="M39 283H255.745L289 323L255.745 363H39V283Z" fill="#CD08D1" fill-opacity="0.1"/>
<path id="Rectangle 4 (Stroke)" fill-rule="evenodd" clip-rule="evenodd" d="M254.338 286H42V360H254.338L285.099 323L254.338 286ZM255.745 283H39V363H255.745L289 323L255.745 283Z" fill="#CD08D1"/>
<path id="Rectangle 5" d="M43 393H259.745L293 433L259.745 473H43V393Z" fill="#CD08D1" fill-opacity="0.1"/>
<path id="Rectangle 5 (Stroke)" fill-rule="evenodd" clip-rule="evenodd" d="M258.338 396H46V470H258.338L289.099 433L258.338 396ZM259.745 393H43V473H259.745L293 433L259.745 393Z" fill="#CD08D1"/>
<path id="Rectangle 6" d="M379 280H595.745L629 320L595.745 360H379V280Z" fill="#CD08D1" fill-opacity="0.1"/>
<path id="Rectangle 6 (Stroke)" fill-rule="evenodd" clip-rule="evenodd" d="M594.338 283H382V357H594.338L625.099 320L594.338 283ZM595.745 280H379V360H595.745L629 320L595.745 280Z" fill="#CD08D1"/>
<path id="Rectangle 7" d="M382 390H598.745L632 430L598.745 470H382V390Z" fill="#CD08D1" fill-opacity="0.1"/>
<path id="Rectangle 7 (Stroke)" fill-rule="evenodd" clip-rule="evenodd" d="M597.338 393H385V467H597.338L628.099 430L597.338 393ZM598.745 390H382V470H598.745L632 430L598.745 390Z" fill="#CD08D1"/>
<path id="Rectangle 8" d="M725 339H941.745L975 379L941.745 419H725V339Z" fill="#CD08D1" fill-opacity="0.1"/>
<path id="Rectangle 8 (Stroke)" fill-rule="evenodd" clip-rule="evenodd" d="M940.338 342H728V416H940.338L971.099 379L940.338 342ZM941.745 339H725V419H941.745L975 379L941.745 339Z" fill="#CD08D1"/>
<path id="Ellipse 1" d="M80 323C80 345.091 62.0914 363 40 363C17.9086 363 0 345.091 0 323C0 300.909 17.9086 283 40 283C62.0914 283 80 300.909 80 323Z" fill="#CD08D1"/>
<path id="Ellipse 2" d="M84 433C84 455.091 66.0914 473 44 473C21.9086 473 4 455.091 4 433C4 410.909 21.9086 393 44 393C66.0914 393 84 410.909 84 433Z" fill="#CD08D1"/>
<path id="Ellipse 3" d="M420 320C420 342.091 402.091 360 380 360C357.909 360 340 342.091 340 320C340 297.909 357.909 280 380 280C402.091 280 420 297.909 420 320Z" fill="#CD08D1"/>
<path id="Ellipse 4" d="M423 430C423 452.091 405.091 470 383 470C360.909 470 343 452.091 343 430C343 407.909 360.909 390 383 390C405.091 390 423 407.909 423 430Z" fill="#CD08D1"/>
<path id="Ellipse 5" d="M766 379C766 401.091 748.091 419 726 419C703.909 419 686 401.091 686 379C686 356.909 703.909 339 726 339C748.091 339 766 356.909 766 379Z" fill="#CD08D1"/>
<path id="A" d="M48.0938 333.406H30.4688L26.7812 344H18.5625L35.75 298.5H42.8438L60.0625 344H51.8125L48.0938 333.406ZM32.6875 327.031H45.875L39.2812 308.156L32.6875 327.031Z" fill="white"/>
<path id="B" d="M27.625 449V403.5H43.2188C48.3646 403.5 52.2812 404.531 54.9688 406.594C57.6562 408.656 59 411.729 59 415.812C59 417.896 58.4375 419.771 57.3125 421.438C56.1875 423.104 54.5417 424.396 52.375 425.312C54.8333 425.979 56.7292 427.24 58.0625 429.094C59.4167 430.927 60.0938 433.135 60.0938 435.719C60.0938 439.99 58.7188 443.271 55.9688 445.562C53.2396 447.854 49.3229 449 44.2188 449H27.625ZM35.5312 428.469V442.688H44.3125C46.7917 442.688 48.7292 442.073 50.125 440.844C51.5208 439.615 52.2188 437.906 52.2188 435.719C52.2188 430.99 49.8021 428.573 44.9688 428.469H35.5312ZM35.5312 422.656H43.2812C45.7396 422.656 47.6562 422.104 49.0312 421C50.4271 419.875 51.125 418.292 51.125 416.25C51.125 414 50.4792 412.375 49.1875 411.375C47.9167 410.375 45.9271 409.875 43.2188 409.875H35.5312V422.656Z" fill="white"/>
<path id="C" d="M397.344 327.188C396.885 332.042 395.094 335.833 391.969 338.562C388.844 341.271 384.688 342.625 379.5 342.625C375.875 342.625 372.677 341.771 369.906 340.062C367.156 338.333 365.031 335.885 363.531 332.719C362.031 329.552 361.25 325.875 361.188 321.688V317.438C361.188 313.146 361.948 309.365 363.469 306.094C364.99 302.823 367.167 300.302 370 298.531C372.854 296.76 376.146 295.875 379.875 295.875C384.896 295.875 388.938 297.24 392 299.969C395.062 302.698 396.844 306.552 397.344 311.531H389.469C389.094 308.26 388.135 305.906 386.594 304.469C385.073 303.01 382.833 302.281 379.875 302.281C376.438 302.281 373.792 303.542 371.938 306.062C370.104 308.562 369.167 312.24 369.125 317.094V321.125C369.125 326.042 370 329.792 371.75 332.375C373.521 334.958 376.104 336.25 379.5 336.25C382.604 336.25 384.938 335.552 386.5 334.156C388.062 332.76 389.052 330.438 389.469 327.188H397.344Z" fill="white"/>
<path id="D" d="M365.625 452V406.5H379.062C383.083 406.5 386.646 407.396 389.75 409.188C392.875 410.979 395.292 413.521 397 416.812C398.708 420.104 399.562 423.875 399.562 428.125V430.406C399.562 434.719 398.698 438.51 396.969 441.781C395.26 445.052 392.812 447.573 389.625 449.344C386.458 451.115 382.823 452 378.719 452H365.625ZM373.531 412.875V445.688H378.688C382.833 445.688 386.01 444.396 388.219 441.812C390.448 439.208 391.583 435.479 391.625 430.625V428.094C391.625 423.156 390.552 419.385 388.406 416.781C386.26 414.177 383.146 412.875 379.062 412.875H373.531Z" fill="white"/>
<path id="E" d="M735.219 380.688H716.531V394.688H738.375V401H708.625V355.5H738.156V361.875H716.531V374.438H735.219V380.688Z" fill="white"/>
<g id="flecha">
<path id="Rectangle 2" d="M391.2 282.008L406.482 290.133L364.5 369.089L349.218 360.963L391.2 282.008Z" fill="#1043F5"/>
<path id="Rectangle 1_2" d="M333 294.904L423 245V302.692L378 285.096L333 294.904Z" fill="#1043F5"/>
<path id="Rectangle 3" d="M337.038 364.21L352.666 337.143L369.936 336.565L354.309 363.632L337.038 364.21Z" fill="#1043F5"/>
<path id="Rectangle 4_2" d="M363.089 378.845L378.717 351.778L369.926 336.154L354.299 363.221L363.089 378.845Z" fill="#1043F5"/>
</g>
<g id="Group 79">
<g id="43">
<path d="M147.093 326.356H150.805V330.355H147.093V337H142.109V330.355H129.21L129.066 327.32L141.945 307.141H147.093V326.356ZM134.296 326.356H142.109V313.888L141.74 314.544L134.296 326.356Z" fill="#CD08D1"/>
<path d="M159.869 319.794H162.904C164.436 319.78 165.646 319.384 166.534 318.604C167.437 317.825 167.888 316.697 167.888 315.221C167.888 313.799 167.512 312.698 166.76 311.919C166.021 311.126 164.887 310.729 163.355 310.729C162.016 310.729 160.915 311.119 160.054 311.898C159.192 312.664 158.762 313.669 158.762 314.913H153.778C153.778 313.382 154.182 311.987 154.988 310.729C155.809 309.472 156.943 308.494 158.393 307.797C159.855 307.086 161.489 306.73 163.294 306.73C166.274 306.73 168.612 307.482 170.308 308.986C172.017 310.477 172.871 312.555 172.871 315.221C172.871 316.561 172.44 317.825 171.579 319.015C170.731 320.19 169.631 321.079 168.277 321.681C169.918 322.241 171.162 323.123 172.01 324.326C172.871 325.529 173.302 326.965 173.302 328.633C173.302 331.312 172.379 333.445 170.533 335.031C168.701 336.617 166.288 337.41 163.294 337.41C160.423 337.41 158.071 336.645 156.239 335.113C154.407 333.582 153.491 331.545 153.491 329.002H158.475C158.475 330.314 158.912 331.381 159.787 332.201C160.676 333.021 161.865 333.432 163.355 333.432C164.9 333.432 166.117 333.021 167.006 332.201C167.895 331.381 168.339 330.191 168.339 328.633C168.339 327.061 167.874 325.851 166.944 325.003C166.015 324.155 164.634 323.731 162.802 323.731H159.869V319.794Z" fill="#CD08D1"/>
</g>
<g id="47">
<path d="M147.093 433.356H150.805V437.355H147.093V444H142.109V437.355H129.21L129.066 434.32L141.945 414.141H147.093V433.356ZM134.296 433.356H142.109V420.888L141.74 421.544L134.296 433.356Z" fill="#CD08D1"/>
<path d="M173.979 416.909L162.043 444H156.813L168.729 418.14H153.286V414.141H173.979V416.909Z" fill="#CD08D1"/>
</g>
<g id="41">
<path d="M490.093 323.356H493.805V327.355H490.093V334H485.109V327.355H472.21L472.066 324.32L484.945 304.141H490.093V323.356ZM477.296 323.356H485.109V310.888L484.74 311.544L477.296 323.356Z" fill="#CD08D1"/>
<path d="M510.601 334H505.638V310.026L498.316 312.528V308.324L509.965 304.038H510.601V334Z" fill="#CD08D1"/>
</g>
<g id="53">
<path d="M474.568 430.193L476.188 415.141H492.226V419.447H480.331L479.511 426.584C480.892 425.791 482.45 425.395 484.187 425.395C487.03 425.395 489.238 426.304 490.811 428.122C492.396 429.94 493.189 432.388 493.189 435.464C493.189 438.499 492.314 440.919 490.564 442.724C488.814 444.515 486.415 445.41 483.366 445.41C480.632 445.41 478.362 444.638 476.558 443.093C474.767 441.534 473.796 439.483 473.646 436.94H478.465C478.656 438.39 479.176 439.504 480.023 440.283C480.871 441.049 481.979 441.432 483.346 441.432C484.877 441.432 486.066 440.885 486.914 439.791C487.775 438.697 488.206 437.207 488.206 435.32C488.206 433.502 487.734 432.066 486.791 431.014C485.848 429.947 484.549 429.414 482.895 429.414C481.992 429.414 481.227 429.537 480.598 429.783C479.969 430.016 479.285 430.48 478.547 431.178L474.568 430.193Z" fill="#CD08D1"/>
<path d="M502.869 427.794H505.904C507.436 427.78 508.646 427.384 509.534 426.604C510.437 425.825 510.888 424.697 510.888 423.221C510.888 421.799 510.512 420.698 509.76 419.919C509.021 419.126 507.887 418.729 506.355 418.729C505.016 418.729 503.915 419.119 503.054 419.898C502.192 420.664 501.762 421.669 501.762 422.913H496.778C496.778 421.382 497.182 419.987 497.988 418.729C498.809 417.472 499.943 416.494 501.393 415.797C502.855 415.086 504.489 414.73 506.294 414.73C509.274 414.73 511.612 415.482 513.308 416.986C515.017 418.477 515.871 420.555 515.871 423.221C515.871 424.561 515.44 425.825 514.579 427.015C513.731 428.19 512.631 429.079 511.277 429.681C512.918 430.241 514.162 431.123 515.01 432.326C515.871 433.529 516.302 434.965 516.302 436.633C516.302 439.312 515.379 441.445 513.533 443.031C511.701 444.617 509.288 445.41 506.294 445.41C503.423 445.41 501.071 444.645 499.239 443.113C497.407 441.582 496.491 439.545 496.491 437.002H501.475C501.475 438.314 501.912 439.381 502.787 440.201C503.676 441.021 504.865 441.432 506.355 441.432C507.9 441.432 509.117 441.021 510.006 440.201C510.895 439.381 511.339 438.191 511.339 436.633C511.339 435.061 510.874 433.851 509.944 433.003C509.015 432.155 507.634 431.731 505.802 431.731H502.869V427.794Z" fill="#CD08D1"/>
</g>
<g id="59">
<path d="M823.568 378.193L825.188 363.141H841.226V367.447H829.331L828.511 374.584C829.892 373.791 831.45 373.395 833.187 373.395C836.03 373.395 838.238 374.304 839.811 376.122C841.396 377.94 842.189 380.388 842.189 383.464C842.189 386.499 841.314 388.919 839.564 390.724C837.814 392.515 835.415 393.41 832.366 393.41C829.632 393.41 827.362 392.638 825.558 391.093C823.767 389.534 822.796 387.483 822.646 384.94H827.465C827.656 386.39 828.176 387.504 829.023 388.283C829.871 389.049 830.979 389.432 832.346 389.432C833.877 389.432 835.066 388.885 835.914 387.791C836.775 386.697 837.206 385.207 837.206 383.32C837.206 381.502 836.734 380.066 835.791 379.014C834.848 377.947 833.549 377.414 831.895 377.414C830.992 377.414 830.227 377.537 829.598 377.783C828.969 378.016 828.285 378.48 827.547 379.178L823.568 378.193Z" fill="#CD08D1"/>
<path d="M860.236 380.511C858.568 382.274 856.62 383.156 854.392 383.156C851.767 383.156 849.675 382.24 848.116 380.408C846.558 378.562 845.778 376.143 845.778 373.148C845.778 371.18 846.175 369.396 846.968 367.796C847.761 366.196 848.889 364.952 850.352 364.063C851.814 363.175 853.51 362.73 855.438 362.73C858.445 362.73 860.831 363.852 862.595 366.094C864.358 368.336 865.24 371.337 865.24 375.097V376.491C865.24 381.878 864.023 385.986 861.59 388.816C859.156 391.646 855.526 393.082 850.7 393.123H850.105V389.001H850.823C853.763 388.96 856.019 388.256 857.591 386.889C859.163 385.508 860.045 383.382 860.236 380.511ZM855.438 379.26C856.436 379.26 857.372 378.973 858.247 378.398C859.122 377.824 859.799 377.031 860.277 376.02V374.071C860.277 371.87 859.826 370.1 858.924 368.76C858.021 367.42 856.853 366.75 855.417 366.75C853.981 366.75 852.833 367.345 851.972 368.534C851.124 369.71 850.7 371.2 850.7 373.005C850.7 374.878 851.131 376.389 851.992 377.537C852.854 378.686 854.002 379.26 855.438 379.26Z" fill="#CD08D1"/>
</g>
</g>
</g>
<g id="Halle un n&#195;&#186;mero primo e impar, cuyo cuadrado sumando con los cuadrados de los dos n&#195;&#186;meros impares siguientes resulte un n&#195;&#186;mero de 4 cifras iguales.">
<path d="M68.6406 70H65.248V58.1699H52.3457V70H48.9707V44.4062H52.3457V55.4102H65.248V44.4062H68.6406V70Z" fill="white"/>
<path d="M85.8672 70C85.6797 69.625 85.5273 68.957 85.4102 67.9961C83.8984 69.5664 82.0938 70.3516 79.9961 70.3516C78.1211 70.3516 76.5801 69.8242 75.373 68.7695C74.1777 67.7031 73.5801 66.3555 73.5801 64.7266C73.5801 62.7461 74.3301 61.2109 75.8301 60.1211C77.3418 59.0195 79.4629 58.4688 82.1934 58.4688H85.3574V56.9746C85.3574 55.8379 85.0176 54.9355 84.3379 54.2676C83.6582 53.5879 82.6562 53.248 81.332 53.248C80.1719 53.248 79.1992 53.541 78.4141 54.127C77.6289 54.7129 77.2363 55.4219 77.2363 56.2539H73.9668C73.9668 55.3047 74.3008 54.3906 74.9688 53.5117C75.6484 52.6211 76.5625 51.918 77.7109 51.4023C78.8711 50.8867 80.1426 50.6289 81.5254 50.6289C83.7168 50.6289 85.4336 51.1797 86.6758 52.2812C87.918 53.3711 88.5625 54.877 88.6094 56.7988V65.5527C88.6094 67.2988 88.832 68.6875 89.2773 69.7188V70H85.8672ZM80.4707 67.5215C81.4902 67.5215 82.457 67.2578 83.3711 66.7305C84.2852 66.2031 84.9473 65.5176 85.3574 64.6738V60.7715H82.8086C78.8242 60.7715 76.832 61.9375 76.832 64.2695C76.832 65.2891 77.1719 66.0859 77.8516 66.6602C78.5312 67.2344 79.4043 67.5215 80.4707 67.5215Z" fill="white"/>
<path d="M97.2402 70H93.9883V43H97.2402V70Z" fill="white"/>
<path d="M105.994 70H102.742V43H105.994V70Z" fill="white"/>
<path d="M119.107 70.3516C116.529 70.3516 114.432 69.5078 112.814 67.8203C111.197 66.1211 110.389 63.8535 110.389 61.0176V60.4199C110.389 58.5332 110.746 56.8516 111.461 55.375C112.188 53.8867 113.195 52.7266 114.484 51.8945C115.785 51.0508 117.191 50.6289 118.703 50.6289C121.176 50.6289 123.098 51.4434 124.469 53.0723C125.84 54.7012 126.525 57.0332 126.525 60.0684V61.4219H113.641C113.688 63.2969 114.232 64.8145 115.275 65.9746C116.33 67.123 117.666 67.6973 119.283 67.6973C120.432 67.6973 121.404 67.4629 122.201 66.9941C122.998 66.5254 123.695 65.9043 124.293 65.1309L126.279 66.6777C124.686 69.127 122.295 70.3516 119.107 70.3516ZM118.703 53.3008C117.391 53.3008 116.289 53.7812 115.398 54.7422C114.508 55.6914 113.957 57.0273 113.746 58.75H123.273V58.5039C123.18 56.8516 122.734 55.5742 121.938 54.6719C121.141 53.7578 120.062 53.3008 118.703 53.3008Z" fill="white"/>
<path d="M150.977 68.1191C149.711 69.6074 147.854 70.3516 145.404 70.3516C143.377 70.3516 141.83 69.7656 140.764 68.5938C139.709 67.4102 139.176 65.6641 139.164 63.3555V50.9805H142.416V63.2676C142.416 66.1504 143.588 67.5918 145.932 67.5918C148.416 67.5918 150.068 66.666 150.889 64.8145V50.9805H154.141V70H151.047L150.977 68.1191Z" fill="white"/>
<path d="M162.174 50.9805L162.279 53.3711C163.732 51.543 165.631 50.6289 167.975 50.6289C171.994 50.6289 174.021 52.8965 174.057 57.4316V70H170.805V57.4141C170.793 56.043 170.477 55.0293 169.855 54.373C169.246 53.7168 168.291 53.3887 166.99 53.3887C165.936 53.3887 165.01 53.6699 164.213 54.2324C163.416 54.7949 162.795 55.5332 162.35 56.4473V70H159.098V50.9805H162.174Z" fill="white"/>
<path d="M190.967 50.9805L191.072 53.3711C192.525 51.543 194.424 50.6289 196.768 50.6289C200.787 50.6289 202.814 52.8965 202.85 57.4316V70H199.598V57.4141C199.586 56.043 199.27 55.0293 198.648 54.373C198.039 53.7168 197.084 53.3887 195.783 53.3887C194.729 53.3887 193.803 53.6699 193.006 54.2324C192.209 54.7949 191.588 55.5332 191.143 56.4473V70H187.891V50.9805H190.967Z" fill="white"/>
<path d="M219.496 68.1191C218.23 69.6074 216.373 70.3516 213.924 70.3516C211.896 70.3516 210.35 69.7656 209.283 68.5938C208.229 67.4102 207.695 65.6641 207.684 63.3555V50.9805H210.936V63.2676C210.936 66.1504 212.107 67.5918 214.451 67.5918C216.936 67.5918 218.588 66.666 219.408 64.8145V50.9805H222.66V70H219.566L219.496 68.1191ZM216.859 43H220.797L216.086 48.168H213.467L216.859 43Z" fill="white"/>
<path d="M230.676 50.9805L230.764 53.0898C232.158 51.4492 234.039 50.6289 236.406 50.6289C239.066 50.6289 240.877 51.6484 241.838 53.6875C242.471 52.7734 243.291 52.0352 244.299 51.4727C245.318 50.9102 246.52 50.6289 247.902 50.6289C252.074 50.6289 254.195 52.8379 254.266 57.2559V70H251.014V57.4492C251.014 56.0898 250.703 55.0762 250.082 54.4082C249.461 53.7285 248.418 53.3887 246.953 53.3887C245.746 53.3887 244.744 53.752 243.947 54.4785C243.15 55.1934 242.688 56.1602 242.559 57.3789V70H239.289V57.5371C239.289 54.7715 237.936 53.3887 235.229 53.3887C233.096 53.3887 231.637 54.2969 230.852 56.1133V70H227.6V50.9805H230.676Z" fill="white"/>
<path d="M267.08 70.3516C264.502 70.3516 262.404 69.5078 260.787 67.8203C259.17 66.1211 258.361 63.8535 258.361 61.0176V60.4199C258.361 58.5332 258.719 56.8516 259.434 55.375C260.16 53.8867 261.168 52.7266 262.457 51.8945C263.758 51.0508 265.164 50.6289 266.676 50.6289C269.148 50.6289 271.07 51.4434 272.441 53.0723C273.812 54.7012 274.498 57.0332 274.498 60.0684V61.4219H261.613C261.66 63.2969 262.205 64.8145 263.248 65.9746C264.303 67.123 265.639 67.6973 267.256 67.6973C268.404 67.6973 269.377 67.4629 270.174 66.9941C270.971 66.5254 271.668 65.9043 272.266 65.1309L274.252 66.6777C272.658 69.127 270.268 70.3516 267.08 70.3516ZM266.676 53.3008C265.363 53.3008 264.262 53.7812 263.371 54.7422C262.48 55.6914 261.93 57.0273 261.719 58.75H271.246V58.5039C271.152 56.8516 270.707 55.5742 269.91 54.6719C269.113 53.7578 268.035 53.3008 266.676 53.3008Z" fill="white"/>
<path d="M287.471 53.8984C286.979 53.8164 286.445 53.7754 285.871 53.7754C283.738 53.7754 282.291 54.6836 281.529 56.5V70H278.277V50.9805H281.441L281.494 53.1777C282.561 51.4785 284.072 50.6289 286.029 50.6289C286.662 50.6289 287.143 50.7109 287.471 50.875V53.8984Z" fill="white"/>
<path d="M289.264 60.3145C289.264 58.4512 289.627 56.7754 290.354 55.2871C291.092 53.7988 292.111 52.6504 293.412 51.8418C294.725 51.0332 296.219 50.6289 297.895 50.6289C300.484 50.6289 302.576 51.5254 304.17 53.3184C305.775 55.1113 306.578 57.4961 306.578 60.4727V60.7012C306.578 62.5527 306.221 64.2168 305.506 65.6934C304.803 67.1582 303.789 68.3008 302.465 69.1211C301.152 69.9414 299.641 70.3516 297.93 70.3516C295.352 70.3516 293.26 69.4551 291.654 67.6621C290.061 65.8691 289.264 63.4961 289.264 60.543V60.3145ZM292.533 60.7012C292.533 62.8105 293.02 64.5039 293.992 65.7812C294.977 67.0586 296.289 67.6973 297.93 67.6973C299.582 67.6973 300.895 67.0527 301.867 65.7637C302.84 64.4629 303.326 62.6465 303.326 60.3145C303.326 58.2285 302.828 56.541 301.832 55.252C300.848 53.9512 299.535 53.3008 297.895 53.3008C296.289 53.3008 294.994 53.9395 294.01 55.2168C293.025 56.4941 292.533 58.3223 292.533 60.7012Z" fill="white"/>
<path d="M335.652 60.7012C335.652 63.5957 334.99 65.9277 333.666 67.6973C332.342 69.4668 330.549 70.3516 328.287 70.3516C325.979 70.3516 324.162 69.6191 322.838 68.1543V77.3125H319.586V50.9805H322.557L322.715 53.0898C324.039 51.4492 325.879 50.6289 328.234 50.6289C330.52 50.6289 332.324 51.4902 333.648 53.2129C334.984 54.9355 335.652 57.332 335.652 60.4023V60.7012ZM332.4 60.332C332.4 58.1875 331.943 56.4941 331.029 55.252C330.115 54.0098 328.861 53.3887 327.268 53.3887C325.299 53.3887 323.822 54.2617 322.838 56.0078V65.0957C323.811 66.8301 325.299 67.6973 327.303 67.6973C328.861 67.6973 330.098 67.082 331.012 65.8516C331.938 64.6094 332.4 62.7695 332.4 60.332Z" fill="white"/>
<path d="M348.994 53.8984C348.502 53.8164 347.969 53.7754 347.395 53.7754C345.262 53.7754 343.814 54.6836 343.053 56.5V70H339.801V50.9805H342.965L343.018 53.1777C344.084 51.4785 345.596 50.6289 347.553 50.6289C348.186 50.6289 348.666 50.7109 348.994 50.875V53.8984Z" fill="white"/>
<path d="M355.533 70H352.281V50.9805H355.533V70ZM352.018 45.9355C352.018 45.4082 352.176 44.9629 352.492 44.5996C352.82 44.2363 353.301 44.0547 353.934 44.0547C354.566 44.0547 355.047 44.2363 355.375 44.5996C355.703 44.9629 355.867 45.4082 355.867 45.9355C355.867 46.4629 355.703 46.9023 355.375 47.2539C355.047 47.6055 354.566 47.7812 353.934 47.7812C353.301 47.7812 352.82 47.6055 352.492 47.2539C352.176 46.9023 352.018 46.4629 352.018 45.9355Z" fill="white"/>
<path d="M363.812 50.9805L363.9 53.0898C365.295 51.4492 367.176 50.6289 369.543 50.6289C372.203 50.6289 374.014 51.6484 374.975 53.6875C375.607 52.7734 376.428 52.0352 377.436 51.4727C378.455 50.9102 379.656 50.6289 381.039 50.6289C385.211 50.6289 387.332 52.8379 387.402 57.2559V70H384.15V57.4492C384.15 56.0898 383.84 55.0762 383.219 54.4082C382.598 53.7285 381.555 53.3887 380.09 53.3887C378.883 53.3887 377.881 53.752 377.084 54.4785C376.287 55.1934 375.824 56.1602 375.695 57.3789V70H372.426V57.5371C372.426 54.7715 371.072 53.3887 368.365 53.3887C366.232 53.3887 364.773 54.2969 363.988 56.1133V70H360.736V50.9805H363.812Z" fill="white"/>
<path d="M391.463 60.3145C391.463 58.4512 391.826 56.7754 392.553 55.2871C393.291 53.7988 394.311 52.6504 395.611 51.8418C396.924 51.0332 398.418 50.6289 400.094 50.6289C402.684 50.6289 404.775 51.5254 406.369 53.3184C407.975 55.1113 408.777 57.4961 408.777 60.4727V60.7012C408.777 62.5527 408.42 64.2168 407.705 65.6934C407.002 67.1582 405.988 68.3008 404.664 69.1211C403.352 69.9414 401.84 70.3516 400.129 70.3516C397.551 70.3516 395.459 69.4551 393.854 67.6621C392.26 65.8691 391.463 63.4961 391.463 60.543V60.3145ZM394.732 60.7012C394.732 62.8105 395.219 64.5039 396.191 65.7812C397.176 67.0586 398.488 67.6973 400.129 67.6973C401.781 67.6973 403.094 67.0527 404.066 65.7637C405.039 64.4629 405.525 62.6465 405.525 60.3145C405.525 58.2285 405.027 56.541 404.031 55.252C403.047 53.9512 401.734 53.3008 400.094 53.3008C398.488 53.3008 397.193 53.9395 396.209 55.2168C395.225 56.4941 394.732 58.3223 394.732 60.7012Z" fill="white"/>
<path d="M429.678 70.3516C427.1 70.3516 425.002 69.5078 423.385 67.8203C421.768 66.1211 420.959 63.8535 420.959 61.0176V60.4199C420.959 58.5332 421.316 56.8516 422.031 55.375C422.758 53.8867 423.766 52.7266 425.055 51.8945C426.355 51.0508 427.762 50.6289 429.273 50.6289C431.746 50.6289 433.668 51.4434 435.039 53.0723C436.41 54.7012 437.096 57.0332 437.096 60.0684V61.4219H424.211C424.258 63.2969 424.803 64.8145 425.846 65.9746C426.9 67.123 428.236 67.6973 429.854 67.6973C431.002 67.6973 431.975 67.4629 432.771 66.9941C433.568 66.5254 434.266 65.9043 434.863 65.1309L436.85 66.6777C435.256 69.127 432.865 70.3516 429.678 70.3516ZM429.273 53.3008C427.961 53.3008 426.859 53.7812 425.969 54.7422C425.078 55.6914 424.527 57.0273 424.316 58.75H433.844V58.5039C433.75 56.8516 433.305 55.5742 432.508 54.6719C431.711 53.7578 430.633 53.3008 429.273 53.3008Z" fill="white"/>
<path d="M453.338 70H450.086V50.9805H453.338V70ZM449.822 45.9355C449.822 45.4082 449.98 44.9629 450.297 44.5996C450.625 44.2363 451.105 44.0547 451.738 44.0547C452.371 44.0547 452.852 44.2363 453.18 44.5996C453.508 44.9629 453.672 45.4082 453.672 45.9355C453.672 46.4629 453.508 46.9023 453.18 47.2539C452.852 47.6055 452.371 47.7812 451.738 47.7812C451.105 47.7812 450.625 47.6055 450.297 47.2539C449.98 46.9023 449.822 46.4629 449.822 45.9355Z" fill="white"/>
<path d="M461.617 50.9805L461.705 53.0898C463.1 51.4492 464.98 50.6289 467.348 50.6289C470.008 50.6289 471.818 51.6484 472.779 53.6875C473.412 52.7734 474.232 52.0352 475.24 51.4727C476.26 50.9102 477.461 50.6289 478.844 50.6289C483.016 50.6289 485.137 52.8379 485.207 57.2559V70H481.955V57.4492C481.955 56.0898 481.645 55.0762 481.023 54.4082C480.402 53.7285 479.359 53.3887 477.895 53.3887C476.688 53.3887 475.686 53.752 474.889 54.4785C474.092 55.1934 473.629 56.1602 473.5 57.3789V70H470.23V57.5371C470.23 54.7715 468.877 53.3887 466.17 53.3887C464.037 53.3887 462.578 54.2969 461.793 56.1133V70H458.541V50.9805H461.617Z" fill="white"/>
<path d="M506.195 60.7012C506.195 63.5957 505.533 65.9277 504.209 67.6973C502.885 69.4668 501.092 70.3516 498.83 70.3516C496.521 70.3516 494.705 69.6191 493.381 68.1543V77.3125H490.129V50.9805H493.1L493.258 53.0898C494.582 51.4492 496.422 50.6289 498.777 50.6289C501.062 50.6289 502.867 51.4902 504.191 53.2129C505.527 54.9355 506.195 57.332 506.195 60.4023V60.7012ZM502.943 60.332C502.943 58.1875 502.486 56.4941 501.572 55.252C500.658 54.0098 499.404 53.3887 497.811 53.3887C495.842 53.3887 494.365 54.2617 493.381 56.0078V65.0957C494.354 66.8301 495.842 67.6973 497.846 67.6973C499.404 67.6973 500.641 67.082 501.555 65.8516C502.48 64.6094 502.943 62.7695 502.943 60.332Z" fill="white"/>
<path d="M522.086 70C521.898 69.625 521.746 68.957 521.629 67.9961C520.117 69.5664 518.312 70.3516 516.215 70.3516C514.34 70.3516 512.799 69.8242 511.592 68.7695C510.396 67.7031 509.799 66.3555 509.799 64.7266C509.799 62.7461 510.549 61.2109 512.049 60.1211C513.561 59.0195 515.682 58.4688 518.412 58.4688H521.576V56.9746C521.576 55.8379 521.236 54.9355 520.557 54.2676C519.877 53.5879 518.875 53.248 517.551 53.248C516.391 53.248 515.418 53.541 514.633 54.127C513.848 54.7129 513.455 55.4219 513.455 56.2539H510.186C510.186 55.3047 510.52 54.3906 511.188 53.5117C511.867 52.6211 512.781 51.918 513.93 51.4023C515.09 50.8867 516.361 50.6289 517.744 50.6289C519.936 50.6289 521.652 51.1797 522.895 52.2812C524.137 53.3711 524.781 54.877 524.828 56.7988V65.5527C524.828 67.2988 525.051 68.6875 525.496 69.7188V70H522.086ZM516.689 67.5215C517.709 67.5215 518.676 67.2578 519.59 66.7305C520.504 66.2031 521.166 65.5176 521.576 64.6738V60.7715H519.027C515.043 60.7715 513.051 61.9375 513.051 64.2695C513.051 65.2891 513.391 66.0859 514.07 66.6602C514.75 67.2344 515.623 67.5215 516.689 67.5215Z" fill="white"/>
<path d="M539.119 53.8984C538.627 53.8164 538.094 53.7754 537.52 53.7754C535.387 53.7754 533.939 54.6836 533.178 56.5V70H529.926V50.9805H533.09L533.143 53.1777C534.209 51.4785 535.721 50.6289 537.678 50.6289C538.311 50.6289 538.791 50.7109 539.119 50.875V53.8984Z" fill="white"/>
<path d="M539.84 75.0977L537.994 73.832C539.096 72.2969 539.67 70.7148 539.717 69.0859V66.1504H542.898V68.6992C542.898 69.8828 542.605 71.0664 542.02 72.25C541.445 73.4336 540.719 74.3828 539.84 75.0977Z" fill="white"/>
<path d="M563.57 67.6973C564.73 67.6973 565.744 67.3457 566.611 66.6426C567.479 65.9395 567.959 65.0605 568.053 64.0059H571.129C571.07 65.0957 570.695 66.1328 570.004 67.1172C569.312 68.1016 568.387 68.8867 567.227 69.4727C566.078 70.0586 564.859 70.3516 563.57 70.3516C560.98 70.3516 558.918 69.4902 557.383 67.7676C555.859 66.0332 555.098 63.666 555.098 60.666V60.1211C555.098 58.2695 555.438 56.623 556.117 55.1816C556.797 53.7402 557.77 52.6211 559.035 51.8242C560.312 51.0273 561.818 50.6289 563.553 50.6289C565.686 50.6289 567.455 51.2676 568.861 52.5449C570.279 53.8223 571.035 55.4805 571.129 57.5195H568.053C567.959 56.2891 567.49 55.2812 566.646 54.4961C565.814 53.6992 564.783 53.3008 563.553 53.3008C561.9 53.3008 560.617 53.8984 559.703 55.0938C558.801 56.2773 558.35 57.9941 558.35 60.2441V60.8594C558.35 63.0508 558.801 64.7383 559.703 65.9219C560.605 67.1055 561.895 67.6973 563.57 67.6973Z" fill="white"/>
<path d="M586.527 68.1191C585.262 69.6074 583.404 70.3516 580.955 70.3516C578.928 70.3516 577.381 69.7656 576.314 68.5938C575.26 67.4102 574.727 65.6641 574.715 63.3555V50.9805H577.967V63.2676C577.967 66.1504 579.139 67.5918 581.482 67.5918C583.967 67.5918 585.619 66.666 586.439 64.8145V50.9805H589.691V70H586.598L586.527 68.1191Z" fill="white"/>
<path d="M600.871 65.2363L605.301 50.9805H608.781L601.135 72.9355C599.951 76.0996 598.07 77.6816 595.492 77.6816L594.877 77.6289L593.664 77.4004V74.7637L594.543 74.834C595.645 74.834 596.5 74.6113 597.109 74.166C597.73 73.7207 598.24 72.9062 598.639 71.7227L599.359 69.7891L592.574 50.9805H596.125L600.871 65.2363Z" fill="white"/>
<path d="M610.557 60.3145C610.557 58.4512 610.92 56.7754 611.646 55.2871C612.385 53.7988 613.404 52.6504 614.705 51.8418C616.018 51.0332 617.512 50.6289 619.188 50.6289C621.777 50.6289 623.869 51.5254 625.463 53.3184C627.068 55.1113 627.871 57.4961 627.871 60.4727V60.7012C627.871 62.5527 627.514 64.2168 626.799 65.6934C626.096 67.1582 625.082 68.3008 623.758 69.1211C622.445 69.9414 620.934 70.3516 619.223 70.3516C616.645 70.3516 614.553 69.4551 612.947 67.6621C611.354 65.8691 610.557 63.4961 610.557 60.543V60.3145ZM613.826 60.7012C613.826 62.8105 614.312 64.5039 615.285 65.7812C616.27 67.0586 617.582 67.6973 619.223 67.6973C620.875 67.6973 622.188 67.0527 623.16 65.7637C624.133 64.4629 624.619 62.6465 624.619 60.3145C624.619 58.2285 624.121 56.541 623.125 55.252C622.141 53.9512 620.828 53.3008 619.188 53.3008C617.582 53.3008 616.287 53.9395 615.303 55.2168C614.318 56.4941 613.826 58.3223 613.826 60.7012Z" fill="white"/>
<path d="M648.508 67.6973C649.668 67.6973 650.682 67.3457 651.549 66.6426C652.416 65.9395 652.896 65.0605 652.99 64.0059H656.066C656.008 65.0957 655.633 66.1328 654.941 67.1172C654.25 68.1016 653.324 68.8867 652.164 69.4727C651.016 70.0586 649.797 70.3516 648.508 70.3516C645.918 70.3516 643.855 69.4902 642.32 67.7676C640.797 66.0332 640.035 63.666 640.035 60.666V60.1211C640.035 58.2695 640.375 56.623 641.055 55.1816C641.734 53.7402 642.707 52.6211 643.973 51.8242C645.25 51.0273 646.756 50.6289 648.49 50.6289C650.623 50.6289 652.393 51.2676 653.799 52.5449C655.217 53.8223 655.973 55.4805 656.066 57.5195H652.99C652.896 56.2891 652.428 55.2812 651.584 54.4961C650.752 53.6992 649.721 53.3008 648.49 53.3008C646.838 53.3008 645.555 53.8984 644.641 55.0938C643.738 56.2773 643.287 57.9941 643.287 60.2441V60.8594C643.287 63.0508 643.738 64.7383 644.641 65.9219C645.543 67.1055 646.832 67.6973 648.508 67.6973Z" fill="white"/>
<path d="M671.465 68.1191C670.199 69.6074 668.342 70.3516 665.893 70.3516C663.865 70.3516 662.318 69.7656 661.252 68.5938C660.197 67.4102 659.664 65.6641 659.652 63.3555V50.9805H662.904V63.2676C662.904 66.1504 664.076 67.5918 666.42 67.5918C668.904 67.5918 670.557 66.666 671.377 64.8145V50.9805H674.629V70H671.535L671.465 68.1191Z" fill="white"/>
<path d="M691.328 70C691.141 69.625 690.988 68.957 690.871 67.9961C689.359 69.5664 687.555 70.3516 685.457 70.3516C683.582 70.3516 682.041 69.8242 680.834 68.7695C679.639 67.7031 679.041 66.3555 679.041 64.7266C679.041 62.7461 679.791 61.2109 681.291 60.1211C682.803 59.0195 684.924 58.4688 687.654 58.4688H690.818V56.9746C690.818 55.8379 690.479 54.9355 689.799 54.2676C689.119 53.5879 688.117 53.248 686.793 53.248C685.633 53.248 684.66 53.541 683.875 54.127C683.09 54.7129 682.697 55.4219 682.697 56.2539H679.428C679.428 55.3047 679.762 54.3906 680.43 53.5117C681.109 52.6211 682.023 51.918 683.172 51.4023C684.332 50.8867 685.604 50.6289 686.986 50.6289C689.178 50.6289 690.895 51.1797 692.137 52.2812C693.379 53.3711 694.023 54.877 694.07 56.7988V65.5527C694.07 67.2988 694.293 68.6875 694.738 69.7188V70H691.328ZM685.932 67.5215C686.951 67.5215 687.918 67.2578 688.832 66.7305C689.746 66.2031 690.408 65.5176 690.818 64.6738V60.7715H688.27C684.285 60.7715 682.293 61.9375 682.293 64.2695C682.293 65.2891 682.633 66.0859 683.312 66.6602C683.992 67.2344 684.865 67.5215 685.932 67.5215Z" fill="white"/>
<path d="M698.377 60.332C698.377 57.4141 699.068 55.0703 700.451 53.3008C701.834 51.5195 703.645 50.6289 705.883 50.6289C708.109 50.6289 709.873 51.3906 711.174 52.9141V43H714.426V70H711.438L711.279 67.9609C709.979 69.5547 708.168 70.3516 705.848 70.3516C703.645 70.3516 701.846 69.4492 700.451 67.6445C699.068 65.8398 698.377 63.4844 698.377 60.5781V60.332ZM701.629 60.7012C701.629 62.8574 702.074 64.5449 702.965 65.7637C703.855 66.9824 705.086 67.5918 706.656 67.5918C708.719 67.5918 710.225 66.666 711.174 64.8145V56.0781C710.201 54.2852 708.707 53.3887 706.691 53.3887C705.098 53.3887 703.855 54.0039 702.965 55.2344C702.074 56.4648 701.629 58.2871 701.629 60.7012Z" fill="white"/>
<path d="M728.682 53.8984C728.189 53.8164 727.656 53.7754 727.082 53.7754C724.949 53.7754 723.502 54.6836 722.74 56.5V70H719.488V50.9805H722.652L722.705 53.1777C723.771 51.4785 725.283 50.6289 727.24 50.6289C727.873 50.6289 728.354 50.7109 728.682 50.875V53.8984Z" fill="white"/>
<path d="M742.727 70C742.539 69.625 742.387 68.957 742.27 67.9961C740.758 69.5664 738.953 70.3516 736.855 70.3516C734.98 70.3516 733.439 69.8242 732.232 68.7695C731.037 67.7031 730.439 66.3555 730.439 64.7266C730.439 62.7461 731.189 61.2109 732.689 60.1211C734.201 59.0195 736.322 58.4688 739.053 58.4688H742.217V56.9746C742.217 55.8379 741.877 54.9355 741.197 54.2676C740.518 53.5879 739.516 53.248 738.191 53.248C737.031 53.248 736.059 53.541 735.273 54.127C734.488 54.7129 734.096 55.4219 734.096 56.2539H730.826C730.826 55.3047 731.16 54.3906 731.828 53.5117C732.508 52.6211 733.422 51.918 734.57 51.4023C735.73 50.8867 737.002 50.6289 738.385 50.6289C740.576 50.6289 742.293 51.1797 743.535 52.2812C744.777 53.3711 745.422 54.877 745.469 56.7988V65.5527C745.469 67.2988 745.691 68.6875 746.137 69.7188V70H742.727ZM737.33 67.5215C738.35 67.5215 739.316 67.2578 740.23 66.7305C741.145 66.2031 741.807 65.5176 742.217 64.6738V60.7715H739.668C735.684 60.7715 733.691 61.9375 733.691 64.2695C733.691 65.2891 734.031 66.0859 734.711 66.6602C735.391 67.2344 736.264 67.5215 737.33 67.5215Z" fill="white"/>
<path d="M749.775 60.332C749.775 57.4141 750.467 55.0703 751.85 53.3008C753.232 51.5195 755.043 50.6289 757.281 50.6289C759.508 50.6289 761.271 51.3906 762.572 52.9141V43H765.824V70H762.836L762.678 67.9609C761.377 69.5547 759.566 70.3516 757.246 70.3516C755.043 70.3516 753.244 69.4492 751.85 67.6445C750.467 65.8398 749.775 63.4844 749.775 60.5781V60.332ZM753.027 60.7012C753.027 62.8574 753.473 64.5449 754.363 65.7637C755.254 66.9824 756.484 67.5918 758.055 67.5918C760.117 67.5918 761.623 66.666 762.572 64.8145V56.0781C761.6 54.2852 760.105 53.3887 758.09 53.3887C756.496 53.3887 755.254 54.0039 754.363 55.2344C753.473 56.4648 753.027 58.2871 753.027 60.7012Z" fill="white"/>
<path d="M770.025 60.3145C770.025 58.4512 770.389 56.7754 771.115 55.2871C771.854 53.7988 772.873 52.6504 774.174 51.8418C775.486 51.0332 776.98 50.6289 778.656 50.6289C781.246 50.6289 783.338 51.5254 784.932 53.3184C786.537 55.1113 787.34 57.4961 787.34 60.4727V60.7012C787.34 62.5527 786.982 64.2168 786.268 65.6934C785.564 67.1582 784.551 68.3008 783.227 69.1211C781.914 69.9414 780.402 70.3516 778.691 70.3516C776.113 70.3516 774.021 69.4551 772.416 67.6621C770.822 65.8691 770.025 63.4961 770.025 60.543V60.3145ZM773.295 60.7012C773.295 62.8105 773.781 64.5039 774.754 65.7812C775.738 67.0586 777.051 67.6973 778.691 67.6973C780.344 67.6973 781.656 67.0527 782.629 65.7637C783.602 64.4629 784.088 62.6465 784.088 60.3145C784.088 58.2285 783.59 56.541 782.594 55.252C781.609 53.9512 780.297 53.3008 778.656 53.3008C777.051 53.3008 775.756 53.9395 774.771 55.2168C773.787 56.4941 773.295 58.3223 773.295 60.7012Z" fill="white"/>
<path d="M59.5352 114.955C59.5352 114.076 59.2012 113.396 58.5332 112.916C57.877 112.424 56.7227 112.002 55.0703 111.65C53.4297 111.299 52.123 110.877 51.1504 110.385C50.1895 109.893 49.4746 109.307 49.0059 108.627C48.5488 107.947 48.3203 107.139 48.3203 106.201C48.3203 104.643 48.9766 103.324 50.2891 102.246C51.6133 101.168 53.3008 100.629 55.3516 100.629C57.5078 100.629 59.2539 101.186 60.5898 102.299C61.9375 103.412 62.6113 104.836 62.6113 106.57H59.3418C59.3418 105.68 58.9609 104.912 58.1992 104.268C57.4492 103.623 56.5 103.301 55.3516 103.301C54.168 103.301 53.2422 103.559 52.5742 104.074C51.9062 104.59 51.5723 105.264 51.5723 106.096C51.5723 106.881 51.8828 107.473 52.5039 107.871C53.125 108.27 54.2441 108.65 55.8613 109.014C57.4902 109.377 58.8086 109.811 59.8164 110.314C60.8242 110.818 61.5684 111.428 62.0488 112.143C62.541 112.846 62.7871 113.707 62.7871 114.727C62.7871 116.426 62.1074 117.791 60.748 118.822C59.3887 119.842 57.625 120.352 55.457 120.352C53.9336 120.352 52.5859 120.082 51.4141 119.543C50.2422 119.004 49.3223 118.254 48.6543 117.293C47.998 116.32 47.6699 115.271 47.6699 114.146H50.9219C50.9805 115.236 51.4141 116.104 52.2227 116.748C53.043 117.381 54.1211 117.697 55.457 117.697C56.6875 117.697 57.6719 117.451 58.4102 116.959C59.1602 116.455 59.5352 115.787 59.5352 114.955Z" fill="white"/>
<path d="M78.7656 118.119C77.5 119.607 75.6426 120.352 73.1934 120.352C71.166 120.352 69.6191 119.766 68.5527 118.594C67.498 117.41 66.9648 115.664 66.9531 113.355V100.98H70.2051V113.268C70.2051 116.15 71.377 117.592 73.7207 117.592C76.2051 117.592 77.8574 116.666 78.6777 114.814V100.98H81.9297V120H78.8359L78.7656 118.119Z" fill="white"/>
<path d="M89.9453 100.98L90.0332 103.09C91.4277 101.449 93.3086 100.629 95.6758 100.629C98.3359 100.629 100.146 101.648 101.107 103.688C101.74 102.773 102.561 102.035 103.568 101.473C104.588 100.91 105.789 100.629 107.172 100.629C111.344 100.629 113.465 102.838 113.535 107.256V120H110.283V107.449C110.283 106.09 109.973 105.076 109.352 104.408C108.73 103.729 107.688 103.389 106.223 103.389C105.016 103.389 104.014 103.752 103.217 104.479C102.42 105.193 101.957 106.16 101.828 107.379V120H98.5586V107.537C98.5586 104.771 97.2051 103.389 94.498 103.389C92.3652 103.389 90.9062 104.297 90.1211 106.113V120H86.8691V100.98H89.9453Z" fill="white"/>
<path d="M130.199 120C130.012 119.625 129.859 118.957 129.742 117.996C128.23 119.566 126.426 120.352 124.328 120.352C122.453 120.352 120.912 119.824 119.705 118.77C118.51 117.703 117.912 116.355 117.912 114.727C117.912 112.746 118.662 111.211 120.162 110.121C121.674 109.02 123.795 108.469 126.525 108.469H129.689V106.975C129.689 105.838 129.35 104.936 128.67 104.268C127.99 103.588 126.988 103.248 125.664 103.248C124.504 103.248 123.531 103.541 122.746 104.127C121.961 104.713 121.568 105.422 121.568 106.254H118.299C118.299 105.305 118.633 104.391 119.301 103.512C119.98 102.621 120.895 101.918 122.043 101.402C123.203 100.887 124.475 100.629 125.857 100.629C128.049 100.629 129.766 101.18 131.008 102.281C132.25 103.371 132.895 104.877 132.941 106.799V115.553C132.941 117.299 133.164 118.688 133.609 119.719V120H130.199ZM124.803 117.521C125.822 117.521 126.789 117.258 127.703 116.73C128.617 116.203 129.279 115.518 129.689 114.674V110.771H127.141C123.156 110.771 121.164 111.938 121.164 114.27C121.164 115.289 121.504 116.086 122.184 116.66C122.863 117.234 123.736 117.521 124.803 117.521Z" fill="white"/>
<path d="M141.115 100.98L141.221 103.371C142.674 101.543 144.572 100.629 146.916 100.629C150.936 100.629 152.963 102.896 152.998 107.432V120H149.746V107.414C149.734 106.043 149.418 105.029 148.797 104.373C148.188 103.717 147.232 103.389 145.932 103.389C144.877 103.389 143.951 103.67 143.154 104.232C142.357 104.795 141.736 105.533 141.291 106.447V120H138.039V100.98H141.115Z" fill="white"/>
<path d="M157.111 110.332C157.111 107.414 157.803 105.07 159.186 103.301C160.568 101.52 162.379 100.629 164.617 100.629C166.844 100.629 168.607 101.391 169.908 102.914V93H173.16V120H170.172L170.014 117.961C168.713 119.555 166.902 120.352 164.582 120.352C162.379 120.352 160.58 119.449 159.186 117.645C157.803 115.84 157.111 113.484 157.111 110.578V110.332ZM160.363 110.701C160.363 112.857 160.809 114.545 161.699 115.764C162.59 116.982 163.82 117.592 165.391 117.592C167.453 117.592 168.959 116.666 169.908 114.814V106.078C168.936 104.285 167.441 103.389 165.426 103.389C163.832 103.389 162.59 104.004 161.699 105.234C160.809 106.465 160.363 108.287 160.363 110.701Z" fill="white"/>
<path d="M177.361 110.314C177.361 108.451 177.725 106.775 178.451 105.287C179.189 103.799 180.209 102.65 181.51 101.842C182.822 101.033 184.316 100.629 185.992 100.629C188.582 100.629 190.674 101.525 192.268 103.318C193.873 105.111 194.676 107.496 194.676 110.473V110.701C194.676 112.553 194.318 114.217 193.604 115.693C192.9 117.158 191.887 118.301 190.562 119.121C189.25 119.941 187.738 120.352 186.027 120.352C183.449 120.352 181.357 119.455 179.752 117.662C178.158 115.869 177.361 113.496 177.361 110.543V110.314ZM180.631 110.701C180.631 112.811 181.117 114.504 182.09 115.781C183.074 117.059 184.387 117.697 186.027 117.697C187.68 117.697 188.992 117.053 189.965 115.764C190.938 114.463 191.424 112.646 191.424 110.314C191.424 108.229 190.926 106.541 189.93 105.252C188.945 103.951 187.633 103.301 185.992 103.301C184.387 103.301 183.092 103.939 182.107 105.217C181.123 106.494 180.631 108.322 180.631 110.701Z" fill="white"/>
<path d="M215.312 117.697C216.473 117.697 217.486 117.346 218.354 116.643C219.221 115.939 219.701 115.061 219.795 114.006H222.871C222.812 115.096 222.438 116.133 221.746 117.117C221.055 118.102 220.129 118.887 218.969 119.473C217.82 120.059 216.602 120.352 215.312 120.352C212.723 120.352 210.66 119.49 209.125 117.768C207.602 116.033 206.84 113.666 206.84 110.666V110.121C206.84 108.27 207.18 106.623 207.859 105.182C208.539 103.74 209.512 102.621 210.777 101.824C212.055 101.027 213.561 100.629 215.295 100.629C217.428 100.629 219.197 101.268 220.604 102.545C222.021 103.822 222.777 105.48 222.871 107.52H219.795C219.701 106.289 219.232 105.281 218.389 104.496C217.557 103.699 216.525 103.301 215.295 103.301C213.643 103.301 212.359 103.898 211.445 105.094C210.543 106.277 210.092 107.994 210.092 110.244V110.859C210.092 113.051 210.543 114.738 211.445 115.922C212.348 117.105 213.637 117.697 215.312 117.697Z" fill="white"/>
<path d="M225.666 110.314C225.666 108.451 226.029 106.775 226.756 105.287C227.494 103.799 228.514 102.65 229.814 101.842C231.127 101.033 232.621 100.629 234.297 100.629C236.887 100.629 238.979 101.525 240.572 103.318C242.178 105.111 242.98 107.496 242.98 110.473V110.701C242.98 112.553 242.623 114.217 241.908 115.693C241.205 117.158 240.191 118.301 238.867 119.121C237.555 119.941 236.043 120.352 234.332 120.352C231.754 120.352 229.662 119.455 228.057 117.662C226.463 115.869 225.666 113.496 225.666 110.543V110.314ZM228.936 110.701C228.936 112.811 229.422 114.504 230.395 115.781C231.379 117.059 232.691 117.697 234.332 117.697C235.984 117.697 237.297 117.053 238.27 115.764C239.242 114.463 239.729 112.646 239.729 110.314C239.729 108.229 239.23 106.541 238.234 105.252C237.25 103.951 235.938 103.301 234.297 103.301C232.691 103.301 231.396 103.939 230.412 105.217C229.428 106.494 228.936 108.322 228.936 110.701Z" fill="white"/>
<path d="M250.135 100.98L250.24 103.371C251.693 101.543 253.592 100.629 255.936 100.629C259.955 100.629 261.982 102.896 262.018 107.432V120H258.766V107.414C258.754 106.043 258.438 105.029 257.816 104.373C257.207 103.717 256.252 103.389 254.951 103.389C253.896 103.389 252.971 103.67 252.174 104.232C251.377 104.795 250.756 105.533 250.311 106.447V120H247.059V100.98H250.135Z" fill="white"/>
<path d="M279.385 120H276.133V93H279.385V120Z" fill="white"/>
<path d="M283.744 110.314C283.744 108.451 284.107 106.775 284.834 105.287C285.572 103.799 286.592 102.65 287.893 101.842C289.205 101.033 290.699 100.629 292.375 100.629C294.965 100.629 297.057 101.525 298.65 103.318C300.256 105.111 301.059 107.496 301.059 110.473V110.701C301.059 112.553 300.701 114.217 299.986 115.693C299.283 117.158 298.27 118.301 296.945 119.121C295.633 119.941 294.121 120.352 292.41 120.352C289.832 120.352 287.74 119.455 286.135 117.662C284.541 115.869 283.744 113.496 283.744 110.543V110.314ZM287.014 110.701C287.014 112.811 287.5 114.504 288.473 115.781C289.457 117.059 290.77 117.697 292.41 117.697C294.062 117.697 295.375 117.053 296.348 115.764C297.32 114.463 297.807 112.646 297.807 110.314C297.807 108.229 297.309 106.541 296.312 105.252C295.328 103.951 294.016 103.301 292.375 103.301C290.77 103.301 289.475 103.939 288.49 105.217C287.506 106.494 287.014 108.322 287.014 110.701Z" fill="white"/>
<path d="M316.211 114.955C316.211 114.076 315.877 113.396 315.209 112.916C314.553 112.424 313.398 112.002 311.746 111.65C310.105 111.299 308.799 110.877 307.826 110.385C306.865 109.893 306.15 109.307 305.682 108.627C305.225 107.947 304.996 107.139 304.996 106.201C304.996 104.643 305.652 103.324 306.965 102.246C308.289 101.168 309.977 100.629 312.027 100.629C314.184 100.629 315.93 101.186 317.266 102.299C318.613 103.412 319.287 104.836 319.287 106.57H316.018C316.018 105.68 315.637 104.912 314.875 104.268C314.125 103.623 313.176 103.301 312.027 103.301C310.844 103.301 309.918 103.559 309.25 104.074C308.582 104.59 308.248 105.264 308.248 106.096C308.248 106.881 308.559 107.473 309.18 107.871C309.801 108.27 310.92 108.65 312.537 109.014C314.166 109.377 315.484 109.811 316.492 110.314C317.5 110.818 318.244 111.428 318.725 112.143C319.217 112.846 319.463 113.707 319.463 114.727C319.463 116.426 318.783 117.791 317.424 118.822C316.064 119.842 314.301 120.352 312.133 120.352C310.609 120.352 309.262 120.082 308.09 119.543C306.918 119.004 305.998 118.254 305.33 117.293C304.674 116.32 304.346 115.271 304.346 114.146H307.598C307.656 115.236 308.09 116.104 308.898 116.748C309.719 117.381 310.797 117.697 312.133 117.697C313.363 117.697 314.348 117.451 315.086 116.959C315.836 116.455 316.211 115.787 316.211 114.955Z" fill="white"/>
<path d="M340.258 117.697C341.418 117.697 342.432 117.346 343.299 116.643C344.166 115.939 344.646 115.061 344.74 114.006H347.816C347.758 115.096 347.383 116.133 346.691 117.117C346 118.102 345.074 118.887 343.914 119.473C342.766 120.059 341.547 120.352 340.258 120.352C337.668 120.352 335.605 119.49 334.07 117.768C332.547 116.033 331.785 113.666 331.785 110.666V110.121C331.785 108.27 332.125 106.623 332.805 105.182C333.484 103.74 334.457 102.621 335.723 101.824C337 101.027 338.506 100.629 340.24 100.629C342.373 100.629 344.143 101.268 345.549 102.545C346.967 103.822 347.723 105.48 347.816 107.52H344.74C344.646 106.289 344.178 105.281 343.334 104.496C342.502 103.699 341.471 103.301 340.24 103.301C338.588 103.301 337.305 103.898 336.391 105.094C335.488 106.277 335.037 107.994 335.037 110.244V110.859C335.037 113.051 335.488 114.738 336.391 115.922C337.293 117.105 338.582 117.697 340.258 117.697Z" fill="white"/>
<path d="M363.215 118.119C361.949 119.607 360.092 120.352 357.643 120.352C355.615 120.352 354.068 119.766 353.002 118.594C351.947 117.41 351.414 115.664 351.402 113.355V100.98H354.654V113.268C354.654 116.15 355.826 117.592 358.17 117.592C360.654 117.592 362.307 116.666 363.127 114.814V100.98H366.379V120H363.285L363.215 118.119Z" fill="white"/>
<path d="M383.078 120C382.891 119.625 382.738 118.957 382.621 117.996C381.109 119.566 379.305 120.352 377.207 120.352C375.332 120.352 373.791 119.824 372.584 118.77C371.389 117.703 370.791 116.355 370.791 114.727C370.791 112.746 371.541 111.211 373.041 110.121C374.553 109.02 376.674 108.469 379.404 108.469H382.568V106.975C382.568 105.838 382.229 104.936 381.549 104.268C380.869 103.588 379.867 103.248 378.543 103.248C377.383 103.248 376.41 103.541 375.625 104.127C374.84 104.713 374.447 105.422 374.447 106.254H371.178C371.178 105.305 371.512 104.391 372.18 103.512C372.859 102.621 373.773 101.918 374.922 101.402C376.082 100.887 377.354 100.629 378.736 100.629C380.928 100.629 382.645 101.18 383.887 102.281C385.129 103.371 385.773 104.877 385.82 106.799V115.553C385.82 117.299 386.043 118.688 386.488 119.719V120H383.078ZM377.682 117.521C378.701 117.521 379.668 117.258 380.582 116.73C381.496 116.203 382.158 115.518 382.568 114.674V110.771H380.02C376.035 110.771 374.043 111.938 374.043 114.27C374.043 115.289 374.383 116.086 375.062 116.66C375.742 117.234 376.615 117.521 377.682 117.521Z" fill="white"/>
<path d="M390.127 110.332C390.127 107.414 390.818 105.07 392.201 103.301C393.584 101.52 395.395 100.629 397.633 100.629C399.859 100.629 401.623 101.391 402.924 102.914V93H406.176V120H403.188L403.029 117.961C401.729 119.555 399.918 120.352 397.598 120.352C395.395 120.352 393.596 119.449 392.201 117.645C390.818 115.84 390.127 113.484 390.127 110.578V110.332ZM393.379 110.701C393.379 112.857 393.824 114.545 394.715 115.764C395.605 116.982 396.836 117.592 398.406 117.592C400.469 117.592 401.975 116.666 402.924 114.814V106.078C401.951 104.285 400.457 103.389 398.441 103.389C396.848 103.389 395.605 104.004 394.715 105.234C393.824 106.465 393.379 108.287 393.379 110.701Z" fill="white"/>
<path d="M420.432 103.898C419.939 103.816 419.406 103.775 418.832 103.775C416.699 103.775 415.252 104.684 414.49 106.5V120H411.238V100.98H414.402L414.455 103.178C415.521 101.479 417.033 100.629 418.99 100.629C419.623 100.629 420.104 100.711 420.432 100.875V103.898Z" fill="white"/>
<path d="M434.477 120C434.289 119.625 434.137 118.957 434.02 117.996C432.508 119.566 430.703 120.352 428.605 120.352C426.73 120.352 425.189 119.824 423.982 118.77C422.787 117.703 422.189 116.355 422.189 114.727C422.189 112.746 422.939 111.211 424.439 110.121C425.951 109.02 428.072 108.469 430.803 108.469H433.967V106.975C433.967 105.838 433.627 104.936 432.947 104.268C432.268 103.588 431.266 103.248 429.941 103.248C428.781 103.248 427.809 103.541 427.023 104.127C426.238 104.713 425.846 105.422 425.846 106.254H422.576C422.576 105.305 422.91 104.391 423.578 103.512C424.258 102.621 425.172 101.918 426.32 101.402C427.48 100.887 428.752 100.629 430.135 100.629C432.326 100.629 434.043 101.18 435.285 102.281C436.527 103.371 437.172 104.877 437.219 106.799V115.553C437.219 117.299 437.441 118.688 437.887 119.719V120H434.477ZM429.08 117.521C430.1 117.521 431.066 117.258 431.98 116.73C432.895 116.203 433.557 115.518 433.967 114.674V110.771H431.418C427.434 110.771 425.441 111.938 425.441 114.27C425.441 115.289 425.781 116.086 426.461 116.66C427.141 117.234 428.014 117.521 429.08 117.521Z" fill="white"/>
<path d="M441.525 110.332C441.525 107.414 442.217 105.07 443.6 103.301C444.982 101.52 446.793 100.629 449.031 100.629C451.258 100.629 453.021 101.391 454.322 102.914V93H457.574V120H454.586L454.428 117.961C453.127 119.555 451.316 120.352 448.996 120.352C446.793 120.352 444.994 119.449 443.6 117.645C442.217 115.84 441.525 113.484 441.525 110.578V110.332ZM444.777 110.701C444.777 112.857 445.223 114.545 446.113 115.764C447.004 116.982 448.234 117.592 449.805 117.592C451.867 117.592 453.373 116.666 454.322 114.814V106.078C453.35 104.285 451.855 103.389 449.84 103.389C448.246 103.389 447.004 104.004 446.113 105.234C445.223 106.465 444.777 108.287 444.777 110.701Z" fill="white"/>
<path d="M461.775 110.314C461.775 108.451 462.139 106.775 462.865 105.287C463.604 103.799 464.623 102.65 465.924 101.842C467.236 101.033 468.73 100.629 470.406 100.629C472.996 100.629 475.088 101.525 476.682 103.318C478.287 105.111 479.09 107.496 479.09 110.473V110.701C479.09 112.553 478.732 114.217 478.018 115.693C477.314 117.158 476.301 118.301 474.977 119.121C473.664 119.941 472.152 120.352 470.441 120.352C467.863 120.352 465.771 119.455 464.166 117.662C462.572 115.869 461.775 113.496 461.775 110.543V110.314ZM465.045 110.701C465.045 112.811 465.531 114.504 466.504 115.781C467.488 117.059 468.801 117.697 470.441 117.697C472.094 117.697 473.406 117.053 474.379 115.764C475.352 114.463 475.838 112.646 475.838 110.314C475.838 108.229 475.34 106.541 474.344 105.252C473.359 103.951 472.047 103.301 470.406 103.301C468.801 103.301 467.506 103.939 466.521 105.217C465.537 106.494 465.045 108.322 465.045 110.701Z" fill="white"/>
<path d="M494.242 114.955C494.242 114.076 493.908 113.396 493.24 112.916C492.584 112.424 491.43 112.002 489.777 111.65C488.137 111.299 486.83 110.877 485.857 110.385C484.896 109.893 484.182 109.307 483.713 108.627C483.256 107.947 483.027 107.139 483.027 106.201C483.027 104.643 483.684 103.324 484.996 102.246C486.32 101.168 488.008 100.629 490.059 100.629C492.215 100.629 493.961 101.186 495.297 102.299C496.645 103.412 497.318 104.836 497.318 106.57H494.049C494.049 105.68 493.668 104.912 492.906 104.268C492.156 103.623 491.207 103.301 490.059 103.301C488.875 103.301 487.949 103.559 487.281 104.074C486.613 104.59 486.279 105.264 486.279 106.096C486.279 106.881 486.59 107.473 487.211 107.871C487.832 108.27 488.951 108.65 490.568 109.014C492.197 109.377 493.516 109.811 494.523 110.314C495.531 110.818 496.275 111.428 496.756 112.143C497.248 112.846 497.494 113.707 497.494 114.727C497.494 116.426 496.814 117.791 495.455 118.822C494.096 119.842 492.332 120.352 490.164 120.352C488.641 120.352 487.293 120.082 486.121 119.543C484.949 119.004 484.029 118.254 483.361 117.293C482.705 116.32 482.377 115.271 482.377 114.146H485.629C485.688 115.236 486.121 116.104 486.93 116.748C487.75 117.381 488.828 117.697 490.164 117.697C491.395 117.697 492.379 117.451 493.117 116.959C493.867 116.455 494.242 115.787 494.242 114.955Z" fill="white"/>
<path d="M509.869 110.332C509.869 107.414 510.561 105.07 511.943 103.301C513.326 101.52 515.137 100.629 517.375 100.629C519.602 100.629 521.365 101.391 522.666 102.914V93H525.918V120H522.93L522.771 117.961C521.471 119.555 519.66 120.352 517.34 120.352C515.137 120.352 513.338 119.449 511.943 117.645C510.561 115.84 509.869 113.484 509.869 110.578V110.332ZM513.121 110.701C513.121 112.857 513.566 114.545 514.457 115.764C515.348 116.982 516.578 117.592 518.148 117.592C520.211 117.592 521.717 116.666 522.666 114.814V106.078C521.693 104.285 520.199 103.389 518.184 103.389C516.59 103.389 515.348 104.004 514.457 105.234C513.566 106.465 513.121 108.287 513.121 110.701Z" fill="white"/>
<path d="M538.873 120.352C536.295 120.352 534.197 119.508 532.58 117.82C530.963 116.121 530.154 113.854 530.154 111.018V110.42C530.154 108.533 530.512 106.852 531.227 105.375C531.953 103.887 532.961 102.727 534.25 101.895C535.551 101.051 536.957 100.629 538.469 100.629C540.941 100.629 542.863 101.443 544.234 103.072C545.605 104.701 546.291 107.033 546.291 110.068V111.422H533.406C533.453 113.297 533.998 114.814 535.041 115.975C536.096 117.123 537.432 117.697 539.049 117.697C540.197 117.697 541.17 117.463 541.967 116.994C542.764 116.525 543.461 115.904 544.059 115.131L546.045 116.678C544.451 119.127 542.061 120.352 538.873 120.352ZM538.469 103.301C537.156 103.301 536.055 103.781 535.164 104.742C534.273 105.691 533.723 107.027 533.512 108.75H543.039V108.504C542.945 106.852 542.5 105.574 541.703 104.672C540.906 103.758 539.828 103.301 538.469 103.301Z" fill="white"/>
<path d="M562.533 120H559.281V93H562.533V120Z" fill="white"/>
<path d="M566.893 110.314C566.893 108.451 567.256 106.775 567.982 105.287C568.721 103.799 569.74 102.65 571.041 101.842C572.354 101.033 573.848 100.629 575.523 100.629C578.113 100.629 580.205 101.525 581.799 103.318C583.404 105.111 584.207 107.496 584.207 110.473V110.701C584.207 112.553 583.85 114.217 583.135 115.693C582.432 117.158 581.418 118.301 580.094 119.121C578.781 119.941 577.27 120.352 575.559 120.352C572.98 120.352 570.889 119.455 569.283 117.662C567.689 115.869 566.893 113.496 566.893 110.543V110.314ZM570.162 110.701C570.162 112.811 570.648 114.504 571.621 115.781C572.605 117.059 573.918 117.697 575.559 117.697C577.211 117.697 578.523 117.053 579.496 115.764C580.469 114.463 580.955 112.646 580.955 110.314C580.955 108.229 580.457 106.541 579.461 105.252C578.477 103.951 577.164 103.301 575.523 103.301C573.918 103.301 572.623 103.939 571.639 105.217C570.654 106.494 570.162 108.322 570.162 110.701Z" fill="white"/>
<path d="M599.359 114.955C599.359 114.076 599.025 113.396 598.357 112.916C597.701 112.424 596.547 112.002 594.895 111.65C593.254 111.299 591.947 110.877 590.975 110.385C590.014 109.893 589.299 109.307 588.83 108.627C588.373 107.947 588.145 107.139 588.145 106.201C588.145 104.643 588.801 103.324 590.113 102.246C591.438 101.168 593.125 100.629 595.176 100.629C597.332 100.629 599.078 101.186 600.414 102.299C601.762 103.412 602.436 104.836 602.436 106.57H599.166C599.166 105.68 598.785 104.912 598.023 104.268C597.273 103.623 596.324 103.301 595.176 103.301C593.992 103.301 593.066 103.559 592.398 104.074C591.73 104.59 591.396 105.264 591.396 106.096C591.396 106.881 591.707 107.473 592.328 107.871C592.949 108.27 594.068 108.65 595.686 109.014C597.314 109.377 598.633 109.811 599.641 110.314C600.648 110.818 601.393 111.428 601.873 112.143C602.365 112.846 602.611 113.707 602.611 114.727C602.611 116.426 601.932 117.791 600.572 118.822C599.213 119.842 597.449 120.352 595.281 120.352C593.758 120.352 592.41 120.082 591.238 119.543C590.066 119.004 589.146 118.254 588.479 117.293C587.822 116.32 587.494 115.271 587.494 114.146H590.746C590.805 115.236 591.238 116.104 592.047 116.748C592.867 117.381 593.945 117.697 595.281 117.697C596.512 117.697 597.496 117.451 598.234 116.959C598.984 116.455 599.359 115.787 599.359 114.955Z" fill="white"/>
<path d="M614.986 110.332C614.986 107.414 615.678 105.07 617.061 103.301C618.443 101.52 620.254 100.629 622.492 100.629C624.719 100.629 626.482 101.391 627.783 102.914V93H631.035V120H628.047L627.889 117.961C626.588 119.555 624.777 120.352 622.457 120.352C620.254 120.352 618.455 119.449 617.061 117.645C615.678 115.84 614.986 113.484 614.986 110.578V110.332ZM618.238 110.701C618.238 112.857 618.684 114.545 619.574 115.764C620.465 116.982 621.695 117.592 623.266 117.592C625.328 117.592 626.834 116.666 627.783 114.814V106.078C626.811 104.285 625.316 103.389 623.301 103.389C621.707 103.389 620.465 104.004 619.574 105.234C618.684 106.465 618.238 108.287 618.238 110.701Z" fill="white"/>
<path d="M635.236 110.314C635.236 108.451 635.6 106.775 636.326 105.287C637.064 103.799 638.084 102.65 639.385 101.842C640.697 101.033 642.191 100.629 643.867 100.629C646.457 100.629 648.549 101.525 650.143 103.318C651.748 105.111 652.551 107.496 652.551 110.473V110.701C652.551 112.553 652.193 114.217 651.479 115.693C650.775 117.158 649.762 118.301 648.438 119.121C647.125 119.941 645.613 120.352 643.902 120.352C641.324 120.352 639.232 119.455 637.627 117.662C636.033 115.869 635.236 113.496 635.236 110.543V110.314ZM638.506 110.701C638.506 112.811 638.992 114.504 639.965 115.781C640.949 117.059 642.262 117.697 643.902 117.697C645.555 117.697 646.867 117.053 647.84 115.764C648.812 114.463 649.299 112.646 649.299 110.314C649.299 108.229 648.801 106.541 647.805 105.252C646.82 103.951 645.508 103.301 643.867 103.301C642.262 103.301 640.967 103.939 639.982 105.217C638.998 106.494 638.506 108.322 638.506 110.701Z" fill="white"/>
<path d="M667.703 114.955C667.703 114.076 667.369 113.396 666.701 112.916C666.045 112.424 664.891 112.002 663.238 111.65C661.598 111.299 660.291 110.877 659.318 110.385C658.357 109.893 657.643 109.307 657.174 108.627C656.717 107.947 656.488 107.139 656.488 106.201C656.488 104.643 657.145 103.324 658.457 102.246C659.781 101.168 661.469 100.629 663.52 100.629C665.676 100.629 667.422 101.186 668.758 102.299C670.105 103.412 670.779 104.836 670.779 106.57H667.51C667.51 105.68 667.129 104.912 666.367 104.268C665.617 103.623 664.668 103.301 663.52 103.301C662.336 103.301 661.41 103.559 660.742 104.074C660.074 104.59 659.74 105.264 659.74 106.096C659.74 106.881 660.051 107.473 660.672 107.871C661.293 108.27 662.412 108.65 664.029 109.014C665.658 109.377 666.977 109.811 667.984 110.314C668.992 110.818 669.736 111.428 670.217 112.143C670.709 112.846 670.955 113.707 670.955 114.727C670.955 116.426 670.275 117.791 668.916 118.822C667.557 119.842 665.793 120.352 663.625 120.352C662.102 120.352 660.754 120.082 659.582 119.543C658.41 119.004 657.49 118.254 656.822 117.293C656.166 116.32 655.838 115.271 655.838 114.146H659.09C659.148 115.236 659.582 116.104 660.391 116.748C661.211 117.381 662.289 117.697 663.625 117.697C664.855 117.697 665.84 117.451 666.578 116.959C667.328 116.455 667.703 115.787 667.703 114.955Z" fill="white"/>
<path d="M687.197 100.98L687.303 103.371C688.756 101.543 690.654 100.629 692.998 100.629C697.018 100.629 699.045 102.896 699.08 107.432V120H695.828V107.414C695.816 106.043 695.5 105.029 694.879 104.373C694.27 103.717 693.314 103.389 692.014 103.389C690.959 103.389 690.033 103.67 689.236 104.232C688.439 104.795 687.818 105.533 687.373 106.447V120H684.121V100.98H687.197Z" fill="white"/>
<path d="M715.727 118.119C714.461 119.607 712.604 120.352 710.154 120.352C708.127 120.352 706.58 119.766 705.514 118.594C704.459 117.41 703.926 115.664 703.914 113.355V100.98H707.166V113.268C707.166 116.15 708.338 117.592 710.682 117.592C713.166 117.592 714.818 116.666 715.639 114.814V100.98H718.891V120H715.797L715.727 118.119ZM713.09 93H717.027L712.316 98.168H709.697L713.09 93Z" fill="white"/>
<path d="M726.906 100.98L726.994 103.09C728.389 101.449 730.27 100.629 732.637 100.629C735.297 100.629 737.107 101.648 738.068 103.688C738.701 102.773 739.521 102.035 740.529 101.473C741.549 100.91 742.75 100.629 744.133 100.629C748.305 100.629 750.426 102.838 750.496 107.256V120H747.244V107.449C747.244 106.09 746.934 105.076 746.312 104.408C745.691 103.729 744.648 103.389 743.184 103.389C741.977 103.389 740.975 103.752 740.178 104.479C739.381 105.193 738.918 106.16 738.789 107.379V120H735.52V107.537C735.52 104.771 734.166 103.389 731.459 103.389C729.326 103.389 727.867 104.297 727.082 106.113V120H723.83V100.98H726.906Z" fill="white"/>
<path d="M763.311 120.352C760.732 120.352 758.635 119.508 757.018 117.82C755.4 116.121 754.592 113.854 754.592 111.018V110.42C754.592 108.533 754.949 106.852 755.664 105.375C756.391 103.887 757.398 102.727 758.688 101.895C759.988 101.051 761.395 100.629 762.906 100.629C765.379 100.629 767.301 101.443 768.672 103.072C770.043 104.701 770.729 107.033 770.729 110.068V111.422H757.844C757.891 113.297 758.436 114.814 759.479 115.975C760.533 117.123 761.869 117.697 763.486 117.697C764.635 117.697 765.607 117.463 766.404 116.994C767.201 116.525 767.898 115.904 768.496 115.131L770.482 116.678C768.889 119.127 766.498 120.352 763.311 120.352ZM762.906 103.301C761.594 103.301 760.492 103.781 759.602 104.742C758.711 105.691 758.16 107.027 757.949 108.75H767.477V108.504C767.383 106.852 766.938 105.574 766.141 104.672C765.344 103.758 764.266 103.301 762.906 103.301Z" fill="white"/>
<path d="M783.701 103.898C783.209 103.816 782.676 103.775 782.102 103.775C779.969 103.775 778.521 104.684 777.76 106.5V120H774.508V100.98H777.672L777.725 103.178C778.791 101.479 780.303 100.629 782.26 100.629C782.893 100.629 783.373 100.711 783.701 100.875V103.898Z" fill="white"/>
<path d="M785.494 110.314C785.494 108.451 785.857 106.775 786.584 105.287C787.322 103.799 788.342 102.65 789.643 101.842C790.955 101.033 792.449 100.629 794.125 100.629C796.715 100.629 798.807 101.525 800.4 103.318C802.006 105.111 802.809 107.496 802.809 110.473V110.701C802.809 112.553 802.451 114.217 801.736 115.693C801.033 117.158 800.02 118.301 798.695 119.121C797.383 119.941 795.871 120.352 794.16 120.352C791.582 120.352 789.49 119.455 787.885 117.662C786.291 115.869 785.494 113.496 785.494 110.543V110.314ZM788.764 110.701C788.764 112.811 789.25 114.504 790.223 115.781C791.207 117.059 792.52 117.697 794.16 117.697C795.812 117.697 797.125 117.053 798.098 115.764C799.07 114.463 799.557 112.646 799.557 110.314C799.557 108.229 799.059 106.541 798.062 105.252C797.078 103.951 795.766 103.301 794.125 103.301C792.52 103.301 791.225 103.939 790.24 105.217C789.256 106.494 788.764 108.322 788.764 110.701Z" fill="white"/>
<path d="M817.961 114.955C817.961 114.076 817.627 113.396 816.959 112.916C816.303 112.424 815.148 112.002 813.496 111.65C811.855 111.299 810.549 110.877 809.576 110.385C808.615 109.893 807.9 109.307 807.432 108.627C806.975 107.947 806.746 107.139 806.746 106.201C806.746 104.643 807.402 103.324 808.715 102.246C810.039 101.168 811.727 100.629 813.777 100.629C815.934 100.629 817.68 101.186 819.016 102.299C820.363 103.412 821.037 104.836 821.037 106.57H817.768C817.768 105.68 817.387 104.912 816.625 104.268C815.875 103.623 814.926 103.301 813.777 103.301C812.594 103.301 811.668 103.559 811 104.074C810.332 104.59 809.998 105.264 809.998 106.096C809.998 106.881 810.309 107.473 810.93 107.871C811.551 108.27 812.67 108.65 814.287 109.014C815.916 109.377 817.234 109.811 818.242 110.314C819.25 110.818 819.994 111.428 820.475 112.143C820.967 112.846 821.213 113.707 821.213 114.727C821.213 116.426 820.533 117.791 819.174 118.822C817.814 119.842 816.051 120.352 813.883 120.352C812.359 120.352 811.012 120.082 809.84 119.543C808.668 119.004 807.748 118.254 807.08 117.293C806.424 116.32 806.096 115.271 806.096 114.146H809.348C809.406 115.236 809.84 116.104 810.648 116.748C811.469 117.381 812.547 117.697 813.883 117.697C815.113 117.697 816.098 117.451 816.836 116.959C817.586 116.455 817.961 115.787 817.961 114.955Z" fill="white"/>
<path d="M51.9941 170H48.7422V150.98H51.9941V170ZM48.4785 145.936C48.4785 145.408 48.6367 144.963 48.9531 144.6C49.2812 144.236 49.7617 144.055 50.3945 144.055C51.0273 144.055 51.5078 144.236 51.8359 144.6C52.1641 144.963 52.3281 145.408 52.3281 145.936C52.3281 146.463 52.1641 146.902 51.8359 147.254C51.5078 147.605 51.0273 147.781 50.3945 147.781C49.7617 147.781 49.2812 147.605 48.9531 147.254C48.6367 146.902 48.4785 146.463 48.4785 145.936Z" fill="white"/>
<path d="M60.2734 150.98L60.3613 153.09C61.7559 151.449 63.6367 150.629 66.0039 150.629C68.6641 150.629 70.4746 151.648 71.4355 153.688C72.0684 152.773 72.8887 152.035 73.8965 151.473C74.916 150.91 76.1172 150.629 77.5 150.629C81.6719 150.629 83.793 152.838 83.8633 157.256V170H80.6113V157.449C80.6113 156.09 80.3008 155.076 79.6797 154.408C79.0586 153.729 78.0156 153.389 76.5508 153.389C75.3438 153.389 74.3418 153.752 73.5449 154.479C72.748 155.193 72.2852 156.16 72.1562 157.379V170H68.8867V157.537C68.8867 154.771 67.5332 153.389 64.8262 153.389C62.6934 153.389 61.2344 154.297 60.4492 156.113V170H57.1973V150.98H60.2734Z" fill="white"/>
<path d="M104.852 160.701C104.852 163.596 104.189 165.928 102.865 167.697C101.541 169.467 99.748 170.352 97.4863 170.352C95.1777 170.352 93.3613 169.619 92.0371 168.154V177.312H88.7852V150.98H91.7559L91.9141 153.09C93.2383 151.449 95.0781 150.629 97.4336 150.629C99.7188 150.629 101.523 151.49 102.848 153.213C104.184 154.936 104.852 157.332 104.852 160.402V160.701ZM101.6 160.332C101.6 158.188 101.143 156.494 100.229 155.252C99.3145 154.01 98.0605 153.389 96.4668 153.389C94.498 153.389 93.0215 154.262 92.0371 156.008V165.096C93.0098 166.83 94.498 167.697 96.502 167.697C98.0605 167.697 99.2969 167.082 100.211 165.852C101.137 164.609 101.6 162.77 101.6 160.332Z" fill="white"/>
<path d="M120.742 170C120.555 169.625 120.402 168.957 120.285 167.996C118.773 169.566 116.969 170.352 114.871 170.352C112.996 170.352 111.455 169.824 110.248 168.77C109.053 167.703 108.455 166.355 108.455 164.727C108.455 162.746 109.205 161.211 110.705 160.121C112.217 159.02 114.338 158.469 117.068 158.469H120.232V156.975C120.232 155.838 119.893 154.936 119.213 154.268C118.533 153.588 117.531 153.248 116.207 153.248C115.047 153.248 114.074 153.541 113.289 154.127C112.504 154.713 112.111 155.422 112.111 156.254H108.842C108.842 155.305 109.176 154.391 109.844 153.512C110.523 152.621 111.438 151.918 112.586 151.402C113.746 150.887 115.018 150.629 116.4 150.629C118.592 150.629 120.309 151.18 121.551 152.281C122.793 153.371 123.438 154.877 123.484 156.799V165.553C123.484 167.299 123.707 168.688 124.152 169.719V170H120.742ZM115.346 167.521C116.365 167.521 117.332 167.258 118.246 166.73C119.16 166.203 119.822 165.518 120.232 164.674V160.771H117.684C113.699 160.771 111.707 161.938 111.707 164.27C111.707 165.289 112.047 166.086 112.727 166.66C113.406 167.234 114.279 167.521 115.346 167.521Z" fill="white"/>
<path d="M137.775 153.898C137.283 153.816 136.75 153.775 136.176 153.775C134.043 153.775 132.596 154.684 131.834 156.5V170H128.582V150.98H131.746L131.799 153.178C132.865 151.479 134.377 150.629 136.334 150.629C136.967 150.629 137.447 150.711 137.775 150.875V153.898Z" fill="white"/>
<path d="M148.322 170.352C145.744 170.352 143.646 169.508 142.029 167.82C140.412 166.121 139.604 163.854 139.604 161.018V160.42C139.604 158.533 139.961 156.852 140.676 155.375C141.402 153.887 142.41 152.727 143.699 151.895C145 151.051 146.406 150.629 147.918 150.629C150.391 150.629 152.312 151.443 153.684 153.072C155.055 154.701 155.74 157.033 155.74 160.068V161.422H142.855C142.902 163.297 143.447 164.814 144.49 165.975C145.545 167.123 146.881 167.697 148.498 167.697C149.646 167.697 150.619 167.463 151.416 166.994C152.213 166.525 152.91 165.904 153.508 165.131L155.494 166.678C153.9 169.127 151.51 170.352 148.322 170.352ZM147.918 153.301C146.605 153.301 145.504 153.781 144.613 154.742C143.723 155.691 143.172 157.027 142.961 158.75H152.488V158.504C152.395 156.852 151.949 155.574 151.152 154.672C150.355 153.758 149.277 153.301 147.918 153.301Z" fill="white"/>
<path d="M170.594 164.955C170.594 164.076 170.26 163.396 169.592 162.916C168.936 162.424 167.781 162.002 166.129 161.65C164.488 161.299 163.182 160.877 162.209 160.385C161.248 159.893 160.533 159.307 160.064 158.627C159.607 157.947 159.379 157.139 159.379 156.201C159.379 154.643 160.035 153.324 161.348 152.246C162.672 151.168 164.359 150.629 166.41 150.629C168.566 150.629 170.312 151.186 171.648 152.299C172.996 153.412 173.67 154.836 173.67 156.57H170.4C170.4 155.68 170.02 154.912 169.258 154.268C168.508 153.623 167.559 153.301 166.41 153.301C165.227 153.301 164.301 153.559 163.633 154.074C162.965 154.59 162.631 155.264 162.631 156.096C162.631 156.881 162.941 157.473 163.562 157.871C164.184 158.27 165.303 158.65 166.92 159.014C168.549 159.377 169.867 159.811 170.875 160.314C171.883 160.818 172.627 161.428 173.107 162.143C173.6 162.846 173.846 163.707 173.846 164.727C173.846 166.426 173.166 167.791 171.807 168.822C170.447 169.842 168.684 170.352 166.516 170.352C164.992 170.352 163.645 170.082 162.473 169.543C161.301 169.004 160.381 168.254 159.713 167.293C159.057 166.32 158.729 165.271 158.729 164.146H161.98C162.039 165.236 162.473 166.104 163.281 166.748C164.102 167.381 165.18 167.697 166.516 167.697C167.746 167.697 168.73 167.451 169.469 166.959C170.219 166.455 170.594 165.787 170.594 164.955Z" fill="white"/>
<path d="M198.086 164.955C198.086 164.076 197.752 163.396 197.084 162.916C196.428 162.424 195.273 162.002 193.621 161.65C191.98 161.299 190.674 160.877 189.701 160.385C188.74 159.893 188.025 159.307 187.557 158.627C187.1 157.947 186.871 157.139 186.871 156.201C186.871 154.643 187.527 153.324 188.84 152.246C190.164 151.168 191.852 150.629 193.902 150.629C196.059 150.629 197.805 151.186 199.141 152.299C200.488 153.412 201.162 154.836 201.162 156.57H197.893C197.893 155.68 197.512 154.912 196.75 154.268C196 153.623 195.051 153.301 193.902 153.301C192.719 153.301 191.793 153.559 191.125 154.074C190.457 154.59 190.123 155.264 190.123 156.096C190.123 156.881 190.434 157.473 191.055 157.871C191.676 158.27 192.795 158.65 194.412 159.014C196.041 159.377 197.359 159.811 198.367 160.314C199.375 160.818 200.119 161.428 200.6 162.143C201.092 162.846 201.338 163.707 201.338 164.727C201.338 166.426 200.658 167.791 199.299 168.822C197.939 169.842 196.176 170.352 194.008 170.352C192.484 170.352 191.137 170.082 189.965 169.543C188.793 169.004 187.873 168.254 187.205 167.293C186.549 166.32 186.221 165.271 186.221 164.146H189.473C189.531 165.236 189.965 166.104 190.773 166.748C191.594 167.381 192.672 167.697 194.008 167.697C195.238 167.697 196.223 167.451 196.961 166.959C197.711 166.455 198.086 165.787 198.086 164.955Z" fill="white"/>
<path d="M209.107 170H205.855V150.98H209.107V170ZM205.592 145.936C205.592 145.408 205.75 144.963 206.066 144.6C206.395 144.236 206.875 144.055 207.508 144.055C208.141 144.055 208.621 144.236 208.949 144.6C209.277 144.963 209.441 145.408 209.441 145.936C209.441 146.463 209.277 146.902 208.949 147.254C208.621 147.605 208.141 147.781 207.508 147.781C206.875 147.781 206.395 147.605 206.066 147.254C205.75 146.902 205.592 146.463 205.592 145.936Z" fill="white"/>
<path d="M213.555 160.332C213.555 157.367 214.24 155.012 215.611 153.266C216.982 151.508 218.799 150.629 221.061 150.629C223.381 150.629 225.191 151.449 226.492 153.09L226.65 150.98H229.621V169.543C229.621 172.004 228.889 173.943 227.424 175.361C225.971 176.779 224.014 177.488 221.553 177.488C220.182 177.488 218.84 177.195 217.527 176.609C216.215 176.023 215.213 175.221 214.521 174.201L216.209 172.25C217.604 173.973 219.309 174.834 221.324 174.834C222.906 174.834 224.137 174.389 225.016 173.498C225.906 172.607 226.352 171.354 226.352 169.736V168.102C225.051 169.602 223.275 170.352 221.025 170.352C218.799 170.352 216.994 169.455 215.611 167.662C214.24 165.869 213.555 163.426 213.555 160.332ZM216.824 160.701C216.824 162.846 217.264 164.533 218.143 165.764C219.021 166.982 220.252 167.592 221.834 167.592C223.885 167.592 225.391 166.66 226.352 164.797V156.113C225.355 154.297 223.861 153.389 221.869 153.389C220.287 153.389 219.051 154.004 218.16 155.234C217.27 156.465 216.824 158.287 216.824 160.701Z" fill="white"/>
<path d="M246.285 168.119C245.02 169.607 243.162 170.352 240.713 170.352C238.686 170.352 237.139 169.766 236.072 168.594C235.018 167.41 234.484 165.664 234.473 163.355V150.98H237.725V163.268C237.725 166.15 238.896 167.592 241.24 167.592C243.725 167.592 245.377 166.666 246.197 164.814V150.98H249.449V170H246.355L246.285 168.119Z" fill="white"/>
<path d="M257.939 170H254.688V150.98H257.939V170ZM254.424 145.936C254.424 145.408 254.582 144.963 254.898 144.6C255.227 144.236 255.707 144.055 256.34 144.055C256.973 144.055 257.453 144.236 257.781 144.6C258.109 144.963 258.273 145.408 258.273 145.936C258.273 146.463 258.109 146.902 257.781 147.254C257.453 147.605 256.973 147.781 256.34 147.781C255.707 147.781 255.227 147.605 254.898 147.254C254.582 146.902 254.424 146.463 254.424 145.936Z" fill="white"/>
<path d="M271.053 170.352C268.475 170.352 266.377 169.508 264.76 167.82C263.143 166.121 262.334 163.854 262.334 161.018V160.42C262.334 158.533 262.691 156.852 263.406 155.375C264.133 153.887 265.141 152.727 266.43 151.895C267.73 151.051 269.137 150.629 270.648 150.629C273.121 150.629 275.043 151.443 276.414 153.072C277.785 154.701 278.471 157.033 278.471 160.068V161.422H265.586C265.633 163.297 266.178 164.814 267.221 165.975C268.275 167.123 269.611 167.697 271.229 167.697C272.377 167.697 273.35 167.463 274.146 166.994C274.943 166.525 275.641 165.904 276.238 165.131L278.225 166.678C276.631 169.127 274.24 170.352 271.053 170.352ZM270.648 153.301C269.336 153.301 268.234 153.781 267.344 154.742C266.453 155.691 265.902 157.027 265.691 158.75H275.219V158.504C275.125 156.852 274.68 155.574 273.883 154.672C273.086 153.758 272.008 153.301 270.648 153.301Z" fill="white"/>
<path d="M285.326 150.98L285.432 153.371C286.885 151.543 288.783 150.629 291.127 150.629C295.146 150.629 297.174 152.896 297.209 157.432V170H293.957V157.414C293.945 156.043 293.629 155.029 293.008 154.373C292.398 153.717 291.443 153.389 290.143 153.389C289.088 153.389 288.162 153.67 287.365 154.232C286.568 154.795 285.947 155.533 285.502 156.447V170H282.25V150.98H285.326Z" fill="white"/>
<path d="M306.525 146.375V150.98H310.076V153.494H306.525V165.289C306.525 166.051 306.684 166.625 307 167.012C307.316 167.387 307.855 167.574 308.617 167.574C308.992 167.574 309.508 167.504 310.164 167.363V170C309.309 170.234 308.477 170.352 307.668 170.352C306.215 170.352 305.119 169.912 304.381 169.033C303.643 168.154 303.273 166.906 303.273 165.289V153.494H299.811V150.98H303.273V146.375H306.525Z" fill="white"/>
<path d="M321.783 170.352C319.205 170.352 317.107 169.508 315.49 167.82C313.873 166.121 313.064 163.854 313.064 161.018V160.42C313.064 158.533 313.422 156.852 314.137 155.375C314.863 153.887 315.871 152.727 317.16 151.895C318.461 151.051 319.867 150.629 321.379 150.629C323.852 150.629 325.773 151.443 327.145 153.072C328.516 154.701 329.201 157.033 329.201 160.068V161.422H316.316C316.363 163.297 316.908 164.814 317.951 165.975C319.006 167.123 320.342 167.697 321.959 167.697C323.107 167.697 324.08 167.463 324.877 166.994C325.674 166.525 326.371 165.904 326.969 165.131L328.955 166.678C327.361 169.127 324.971 170.352 321.783 170.352ZM321.379 153.301C320.066 153.301 318.965 153.781 318.074 154.742C317.184 155.691 316.633 157.027 316.422 158.75H325.949V158.504C325.855 156.852 325.41 155.574 324.613 154.672C323.816 153.758 322.738 153.301 321.379 153.301Z" fill="white"/>
<path d="M344.055 164.955C344.055 164.076 343.721 163.396 343.053 162.916C342.396 162.424 341.242 162.002 339.59 161.65C337.949 161.299 336.643 160.877 335.67 160.385C334.709 159.893 333.994 159.307 333.525 158.627C333.068 157.947 332.84 157.139 332.84 156.201C332.84 154.643 333.496 153.324 334.809 152.246C336.133 151.168 337.82 150.629 339.871 150.629C342.027 150.629 343.773 151.186 345.109 152.299C346.457 153.412 347.131 154.836 347.131 156.57H343.861C343.861 155.68 343.48 154.912 342.719 154.268C341.969 153.623 341.02 153.301 339.871 153.301C338.688 153.301 337.762 153.559 337.094 154.074C336.426 154.59 336.092 155.264 336.092 156.096C336.092 156.881 336.402 157.473 337.023 157.871C337.645 158.27 338.764 158.65 340.381 159.014C342.01 159.377 343.328 159.811 344.336 160.314C345.344 160.818 346.088 161.428 346.568 162.143C347.061 162.846 347.307 163.707 347.307 164.727C347.307 166.426 346.627 167.791 345.268 168.822C343.908 169.842 342.145 170.352 339.977 170.352C338.453 170.352 337.105 170.082 335.934 169.543C334.762 169.004 333.842 168.254 333.174 167.293C332.518 166.32 332.189 165.271 332.189 164.146H335.441C335.5 165.236 335.934 166.104 336.742 166.748C337.562 167.381 338.641 167.697 339.977 167.697C341.207 167.697 342.191 167.451 342.93 166.959C343.68 166.455 344.055 165.787 344.055 164.955Z" fill="white"/>
<path d="M369.666 153.898C369.174 153.816 368.641 153.775 368.066 153.775C365.934 153.775 364.486 154.684 363.725 156.5V170H360.473V150.98H363.637L363.689 153.178C364.756 151.479 366.268 150.629 368.225 150.629C368.857 150.629 369.338 150.711 369.666 150.875V153.898Z" fill="white"/>
<path d="M380.213 170.352C377.635 170.352 375.537 169.508 373.92 167.82C372.303 166.121 371.494 163.854 371.494 161.018V160.42C371.494 158.533 371.852 156.852 372.566 155.375C373.293 153.887 374.301 152.727 375.59 151.895C376.891 151.051 378.297 150.629 379.809 150.629C382.281 150.629 384.203 151.443 385.574 153.072C386.945 154.701 387.631 157.033 387.631 160.068V161.422H374.746C374.793 163.297 375.338 164.814 376.381 165.975C377.436 167.123 378.771 167.697 380.389 167.697C381.537 167.697 382.51 167.463 383.307 166.994C384.104 166.525 384.801 165.904 385.398 165.131L387.385 166.678C385.791 169.127 383.4 170.352 380.213 170.352ZM379.809 153.301C378.496 153.301 377.395 153.781 376.504 154.742C375.613 155.691 375.062 157.027 374.852 158.75H384.379V158.504C384.285 156.852 383.84 155.574 383.043 154.672C382.246 153.758 381.168 153.301 379.809 153.301Z" fill="white"/>
<path d="M402.484 164.955C402.484 164.076 402.15 163.396 401.482 162.916C400.826 162.424 399.672 162.002 398.02 161.65C396.379 161.299 395.072 160.877 394.1 160.385C393.139 159.893 392.424 159.307 391.955 158.627C391.498 157.947 391.27 157.139 391.27 156.201C391.27 154.643 391.926 153.324 393.238 152.246C394.562 151.168 396.25 150.629 398.301 150.629C400.457 150.629 402.203 151.186 403.539 152.299C404.887 153.412 405.561 154.836 405.561 156.57H402.291C402.291 155.68 401.91 154.912 401.148 154.268C400.398 153.623 399.449 153.301 398.301 153.301C397.117 153.301 396.191 153.559 395.523 154.074C394.855 154.59 394.521 155.264 394.521 156.096C394.521 156.881 394.832 157.473 395.453 157.871C396.074 158.27 397.193 158.65 398.811 159.014C400.439 159.377 401.758 159.811 402.766 160.314C403.773 160.818 404.518 161.428 404.998 162.143C405.49 162.846 405.736 163.707 405.736 164.727C405.736 166.426 405.057 167.791 403.697 168.822C402.338 169.842 400.574 170.352 398.406 170.352C396.883 170.352 395.535 170.082 394.363 169.543C393.191 169.004 392.271 168.254 391.604 167.293C390.947 166.32 390.619 165.271 390.619 164.146H393.871C393.93 165.236 394.363 166.104 395.172 166.748C395.992 167.381 397.07 167.697 398.406 167.697C399.637 167.697 400.621 167.451 401.359 166.959C402.109 166.455 402.484 165.787 402.484 164.955Z" fill="white"/>
<path d="M421.715 168.119C420.449 169.607 418.592 170.352 416.143 170.352C414.115 170.352 412.568 169.766 411.502 168.594C410.447 167.41 409.914 165.664 409.902 163.355V150.98H413.154V163.268C413.154 166.15 414.326 167.592 416.67 167.592C419.154 167.592 420.807 166.666 421.627 164.814V150.98H424.879V170H421.785L421.715 168.119Z" fill="white"/>
<path d="M433.369 170H430.117V143H433.369V170Z" fill="white"/>
<path d="M443.002 146.375V150.98H446.553V153.494H443.002V165.289C443.002 166.051 443.16 166.625 443.477 167.012C443.793 167.387 444.332 167.574 445.094 167.574C445.469 167.574 445.984 167.504 446.641 167.363V170C445.785 170.234 444.953 170.352 444.145 170.352C442.691 170.352 441.596 169.912 440.857 169.033C440.119 168.154 439.75 166.906 439.75 165.289V153.494H436.287V150.98H439.75V146.375H443.002Z" fill="white"/>
<path d="M458.26 170.352C455.682 170.352 453.584 169.508 451.967 167.82C450.35 166.121 449.541 163.854 449.541 161.018V160.42C449.541 158.533 449.898 156.852 450.613 155.375C451.34 153.887 452.348 152.727 453.637 151.895C454.938 151.051 456.344 150.629 457.855 150.629C460.328 150.629 462.25 151.443 463.621 153.072C464.992 154.701 465.678 157.033 465.678 160.068V161.422H452.793C452.84 163.297 453.385 164.814 454.428 165.975C455.482 167.123 456.818 167.697 458.436 167.697C459.584 167.697 460.557 167.463 461.354 166.994C462.15 166.525 462.848 165.904 463.445 165.131L465.432 166.678C463.838 169.127 461.447 170.352 458.26 170.352ZM457.855 153.301C456.543 153.301 455.441 153.781 454.551 154.742C453.66 155.691 453.109 157.027 452.898 158.75H462.426V158.504C462.332 156.852 461.887 155.574 461.09 154.672C460.293 153.758 459.215 153.301 457.855 153.301Z" fill="white"/>
<path d="M490.129 168.119C488.863 169.607 487.006 170.352 484.557 170.352C482.529 170.352 480.982 169.766 479.916 168.594C478.861 167.41 478.328 165.664 478.316 163.355V150.98H481.568V163.268C481.568 166.15 482.74 167.592 485.084 167.592C487.568 167.592 489.221 166.666 490.041 164.814V150.98H493.293V170H490.199L490.129 168.119Z" fill="white"/>
<path d="M501.326 150.98L501.432 153.371C502.885 151.543 504.783 150.629 507.127 150.629C511.146 150.629 513.174 152.896 513.209 157.432V170H509.957V157.414C509.945 156.043 509.629 155.029 509.008 154.373C508.398 153.717 507.443 153.389 506.143 153.389C505.088 153.389 504.162 153.67 503.365 154.232C502.568 154.795 501.947 155.533 501.502 156.447V170H498.25V150.98H501.326Z" fill="white"/>
<path d="M530.119 150.98L530.225 153.371C531.678 151.543 533.576 150.629 535.92 150.629C539.939 150.629 541.967 152.896 542.002 157.432V170H538.75V157.414C538.738 156.043 538.422 155.029 537.801 154.373C537.191 153.717 536.236 153.389 534.936 153.389C533.881 153.389 532.955 153.67 532.158 154.232C531.361 154.795 530.74 155.533 530.295 156.447V170H527.043V150.98H530.119Z" fill="white"/>
<path d="M558.648 168.119C557.383 169.607 555.525 170.352 553.076 170.352C551.049 170.352 549.502 169.766 548.436 168.594C547.381 167.41 546.848 165.664 546.836 163.355V150.98H550.088V163.268C550.088 166.15 551.26 167.592 553.604 167.592C556.088 167.592 557.74 166.666 558.561 164.814V150.98H561.812V170H558.719L558.648 168.119ZM556.012 143H559.949L555.238 148.168H552.619L556.012 143Z" fill="white"/>
<path d="M569.828 150.98L569.916 153.09C571.311 151.449 573.191 150.629 575.559 150.629C578.219 150.629 580.029 151.648 580.99 153.688C581.623 152.773 582.443 152.035 583.451 151.473C584.471 150.91 585.672 150.629 587.055 150.629C591.227 150.629 593.348 152.838 593.418 157.256V170H590.166V157.449C590.166 156.09 589.855 155.076 589.234 154.408C588.613 153.729 587.57 153.389 586.105 153.389C584.898 153.389 583.896 153.752 583.1 154.479C582.303 155.193 581.84 156.16 581.711 157.379V170H578.441V157.537C578.441 154.771 577.088 153.389 574.381 153.389C572.248 153.389 570.789 154.297 570.004 156.113V170H566.752V150.98H569.828Z" fill="white"/>
<path d="M606.232 170.352C603.654 170.352 601.557 169.508 599.939 167.82C598.322 166.121 597.514 163.854 597.514 161.018V160.42C597.514 158.533 597.871 156.852 598.586 155.375C599.312 153.887 600.32 152.727 601.609 151.895C602.91 151.051 604.316 150.629 605.828 150.629C608.301 150.629 610.223 151.443 611.594 153.072C612.965 154.701 613.65 157.033 613.65 160.068V161.422H600.766C600.812 163.297 601.357 164.814 602.4 165.975C603.455 167.123 604.791 167.697 606.408 167.697C607.557 167.697 608.529 167.463 609.326 166.994C610.123 166.525 610.82 165.904 611.418 165.131L613.404 166.678C611.811 169.127 609.42 170.352 606.232 170.352ZM605.828 153.301C604.516 153.301 603.414 153.781 602.523 154.742C601.633 155.691 601.082 157.027 600.871 158.75H610.398V158.504C610.305 156.852 609.859 155.574 609.062 154.672C608.266 153.758 607.188 153.301 605.828 153.301Z" fill="white"/>
<path d="M626.623 153.898C626.131 153.816 625.598 153.775 625.023 153.775C622.891 153.775 621.443 154.684 620.682 156.5V170H617.43V150.98H620.594L620.646 153.178C621.713 151.479 623.225 150.629 625.182 150.629C625.814 150.629 626.295 150.711 626.623 150.875V153.898Z" fill="white"/>
<path d="M628.416 160.314C628.416 158.451 628.779 156.775 629.506 155.287C630.244 153.799 631.264 152.65 632.564 151.842C633.877 151.033 635.371 150.629 637.047 150.629C639.637 150.629 641.729 151.525 643.322 153.318C644.928 155.111 645.73 157.496 645.73 160.473V160.701C645.73 162.553 645.373 164.217 644.658 165.693C643.955 167.158 642.941 168.301 641.617 169.121C640.305 169.941 638.793 170.352 637.082 170.352C634.504 170.352 632.412 169.455 630.807 167.662C629.213 165.869 628.416 163.496 628.416 160.543V160.314ZM631.686 160.701C631.686 162.811 632.172 164.504 633.145 165.781C634.129 167.059 635.441 167.697 637.082 167.697C638.734 167.697 640.047 167.053 641.02 165.764C641.992 164.463 642.479 162.646 642.479 160.314C642.479 158.229 641.98 156.541 640.984 155.252C640 153.951 638.688 153.301 637.047 153.301C635.441 153.301 634.146 153.939 633.162 155.217C632.178 156.494 631.686 158.322 631.686 160.701Z" fill="white"/>
<path d="M657.947 160.332C657.947 157.414 658.639 155.07 660.021 153.301C661.404 151.52 663.215 150.629 665.453 150.629C667.68 150.629 669.443 151.391 670.744 152.914V143H673.996V170H671.008L670.85 167.961C669.549 169.555 667.738 170.352 665.418 170.352C663.215 170.352 661.416 169.449 660.021 167.645C658.639 165.84 657.947 163.484 657.947 160.578V160.332ZM661.199 160.701C661.199 162.857 661.645 164.545 662.535 165.764C663.426 166.982 664.656 167.592 666.227 167.592C668.289 167.592 669.795 166.666 670.744 164.814V156.078C669.771 154.285 668.277 153.389 666.262 153.389C664.668 153.389 663.426 154.004 662.535 155.234C661.645 156.465 661.199 158.287 661.199 160.701Z" fill="white"/>
<path d="M686.951 170.352C684.373 170.352 682.275 169.508 680.658 167.82C679.041 166.121 678.232 163.854 678.232 161.018V160.42C678.232 158.533 678.59 156.852 679.305 155.375C680.031 153.887 681.039 152.727 682.328 151.895C683.629 151.051 685.035 150.629 686.547 150.629C689.02 150.629 690.941 151.443 692.312 153.072C693.684 154.701 694.369 157.033 694.369 160.068V161.422H681.484C681.531 163.297 682.076 164.814 683.119 165.975C684.174 167.123 685.51 167.697 687.127 167.697C688.275 167.697 689.248 167.463 690.045 166.994C690.842 166.525 691.539 165.904 692.137 165.131L694.123 166.678C692.529 169.127 690.139 170.352 686.951 170.352ZM686.547 153.301C685.234 153.301 684.133 153.781 683.242 154.742C682.352 155.691 681.801 157.027 681.59 158.75H691.117V158.504C691.023 156.852 690.578 155.574 689.781 154.672C688.984 153.758 687.906 153.301 686.547 153.301Z" fill="white"/>
<path d="M720.473 161.404H724.023V164.059H720.473V170H717.203V164.059H705.549V162.143L717.01 144.406H720.473V161.404ZM709.24 161.404H717.203V148.854L716.816 149.557L709.24 161.404Z" fill="white"/>
<path d="M743.852 167.697C745.012 167.697 746.025 167.346 746.893 166.643C747.76 165.939 748.24 165.061 748.334 164.006H751.41C751.352 165.096 750.977 166.133 750.285 167.117C749.594 168.102 748.668 168.887 747.508 169.473C746.359 170.059 745.141 170.352 743.852 170.352C741.262 170.352 739.199 169.49 737.664 167.768C736.141 166.033 735.379 163.666 735.379 160.666V160.121C735.379 158.27 735.719 156.623 736.398 155.182C737.078 153.74 738.051 152.621 739.316 151.824C740.594 151.027 742.1 150.629 743.834 150.629C745.967 150.629 747.736 151.268 749.143 152.545C750.561 153.822 751.316 155.48 751.41 157.52H748.334C748.24 156.289 747.771 155.281 746.928 154.496C746.096 153.699 745.064 153.301 743.834 153.301C742.182 153.301 740.898 153.898 739.984 155.094C739.082 156.277 738.631 157.994 738.631 160.244V160.859C738.631 163.051 739.082 164.738 739.984 165.922C740.887 167.105 742.176 167.697 743.852 167.697Z" fill="white"/>
<path d="M758.6 170H755.348V150.98H758.6V170ZM755.084 145.936C755.084 145.408 755.242 144.963 755.559 144.6C755.887 144.236 756.367 144.055 757 144.055C757.633 144.055 758.113 144.236 758.441 144.6C758.77 144.963 758.934 145.408 758.934 145.936C758.934 146.463 758.77 146.902 758.441 147.254C758.113 147.605 757.633 147.781 757 147.781C756.367 147.781 755.887 147.605 755.559 147.254C755.242 146.902 755.084 146.463 755.084 145.936Z" fill="white"/>
<path d="M765.42 170V153.494H762.414V150.98H765.42V149.029C765.42 146.99 765.965 145.414 767.055 144.301C768.145 143.188 769.686 142.631 771.678 142.631C772.428 142.631 773.172 142.73 773.91 142.93L773.734 145.566C773.184 145.461 772.598 145.408 771.977 145.408C770.922 145.408 770.107 145.719 769.533 146.34C768.959 146.949 768.672 147.828 768.672 148.977V150.98H772.732V153.494H768.672V170H765.42Z" fill="white"/>
<path d="M785.529 153.898C785.037 153.816 784.504 153.775 783.93 153.775C781.797 153.775 780.35 154.684 779.588 156.5V170H776.336V150.98H779.5L779.553 153.178C780.619 151.479 782.131 150.629 784.088 150.629C784.721 150.629 785.201 150.711 785.529 150.875V153.898Z" fill="white"/>
<path d="M799.574 170C799.387 169.625 799.234 168.957 799.117 167.996C797.605 169.566 795.801 170.352 793.703 170.352C791.828 170.352 790.287 169.824 789.08 168.77C787.885 167.703 787.287 166.355 787.287 164.727C787.287 162.746 788.037 161.211 789.537 160.121C791.049 159.02 793.17 158.469 795.9 158.469H799.064V156.975C799.064 155.838 798.725 154.936 798.045 154.268C797.365 153.588 796.363 153.248 795.039 153.248C793.879 153.248 792.906 153.541 792.121 154.127C791.336 154.713 790.943 155.422 790.943 156.254H787.674C787.674 155.305 788.008 154.391 788.676 153.512C789.355 152.621 790.27 151.918 791.418 151.402C792.578 150.887 793.85 150.629 795.232 150.629C797.424 150.629 799.141 151.18 800.383 152.281C801.625 153.371 802.27 154.877 802.316 156.799V165.553C802.316 167.299 802.539 168.688 802.984 169.719V170H799.574ZM794.178 167.521C795.197 167.521 796.164 167.258 797.078 166.73C797.992 166.203 798.654 165.518 799.064 164.674V160.771H796.516C792.531 160.771 790.539 161.938 790.539 164.27C790.539 165.289 790.879 166.086 791.559 166.66C792.238 167.234 793.111 167.521 794.178 167.521Z" fill="white"/>
<path d="M818.488 164.955C818.488 164.076 818.154 163.396 817.486 162.916C816.83 162.424 815.676 162.002 814.023 161.65C812.383 161.299 811.076 160.877 810.104 160.385C809.143 159.893 808.428 159.307 807.959 158.627C807.502 157.947 807.273 157.139 807.273 156.201C807.273 154.643 807.93 153.324 809.242 152.246C810.566 151.168 812.254 150.629 814.305 150.629C816.461 150.629 818.207 151.186 819.543 152.299C820.891 153.412 821.564 154.836 821.564 156.57H818.295C818.295 155.68 817.914 154.912 817.152 154.268C816.402 153.623 815.453 153.301 814.305 153.301C813.121 153.301 812.195 153.559 811.527 154.074C810.859 154.59 810.525 155.264 810.525 156.096C810.525 156.881 810.836 157.473 811.457 157.871C812.078 158.27 813.197 158.65 814.814 159.014C816.443 159.377 817.762 159.811 818.77 160.314C819.777 160.818 820.521 161.428 821.002 162.143C821.494 162.846 821.74 163.707 821.74 164.727C821.74 166.426 821.061 167.791 819.701 168.822C818.342 169.842 816.578 170.352 814.41 170.352C812.887 170.352 811.539 170.082 810.367 169.543C809.195 169.004 808.275 168.254 807.607 167.293C806.951 166.32 806.623 165.271 806.623 164.146H809.875C809.934 165.236 810.367 166.104 811.176 166.748C811.996 167.381 813.074 167.697 814.41 167.697C815.641 167.697 816.625 167.451 817.363 166.959C818.113 166.455 818.488 165.787 818.488 164.955Z" fill="white"/>
<path d="M51.9941 220H48.7422V200.98H51.9941V220ZM48.4785 195.936C48.4785 195.408 48.6367 194.963 48.9531 194.6C49.2812 194.236 49.7617 194.055 50.3945 194.055C51.0273 194.055 51.5078 194.236 51.8359 194.6C52.1641 194.963 52.3281 195.408 52.3281 195.936C52.3281 196.463 52.1641 196.902 51.8359 197.254C51.5078 197.605 51.0273 197.781 50.3945 197.781C49.7617 197.781 49.2812 197.605 48.9531 197.254C48.6367 196.902 48.4785 196.463 48.4785 195.936Z" fill="white"/>
<path d="M56.4414 210.332C56.4414 207.367 57.127 205.012 58.498 203.266C59.8691 201.508 61.6855 200.629 63.9473 200.629C66.2676 200.629 68.0781 201.449 69.3789 203.09L69.5371 200.98H72.5078V219.543C72.5078 222.004 71.7754 223.943 70.3105 225.361C68.8574 226.779 66.9004 227.488 64.4395 227.488C63.0684 227.488 61.7266 227.195 60.4141 226.609C59.1016 226.023 58.0996 225.221 57.4082 224.201L59.0957 222.25C60.4902 223.973 62.1953 224.834 64.2109 224.834C65.793 224.834 67.0234 224.389 67.9023 223.498C68.793 222.607 69.2383 221.354 69.2383 219.736V218.102C67.9375 219.602 66.1621 220.352 63.9121 220.352C61.6855 220.352 59.8809 219.455 58.498 217.662C57.127 215.869 56.4414 213.426 56.4414 210.332ZM59.7109 210.701C59.7109 212.846 60.1504 214.533 61.0293 215.764C61.9082 216.982 63.1387 217.592 64.7207 217.592C66.7715 217.592 68.2773 216.66 69.2383 214.797V206.113C68.2422 204.297 66.748 203.389 64.7559 203.389C63.1738 203.389 61.9375 204.004 61.0469 205.234C60.1562 206.465 59.7109 208.287 59.7109 210.701Z" fill="white"/>
<path d="M89.1719 218.119C87.9062 219.607 86.0488 220.352 83.5996 220.352C81.5723 220.352 80.0254 219.766 78.959 218.594C77.9043 217.41 77.3711 215.664 77.3594 213.355V200.98H80.6113V213.268C80.6113 216.15 81.7832 217.592 84.127 217.592C86.6113 217.592 88.2637 216.666 89.084 214.814V200.98H92.3359V220H89.2422L89.1719 218.119Z" fill="white"/>
<path d="M109.035 220C108.848 219.625 108.695 218.957 108.578 217.996C107.066 219.566 105.262 220.352 103.164 220.352C101.289 220.352 99.748 219.824 98.541 218.77C97.3457 217.703 96.748 216.355 96.748 214.727C96.748 212.746 97.498 211.211 98.998 210.121C100.51 209.02 102.631 208.469 105.361 208.469H108.525V206.975C108.525 205.838 108.186 204.936 107.506 204.268C106.826 203.588 105.824 203.248 104.5 203.248C103.34 203.248 102.367 203.541 101.582 204.127C100.797 204.713 100.404 205.422 100.404 206.254H97.1348C97.1348 205.305 97.4688 204.391 98.1367 203.512C98.8164 202.621 99.7305 201.918 100.879 201.402C102.039 200.887 103.311 200.629 104.693 200.629C106.885 200.629 108.602 201.18 109.844 202.281C111.086 203.371 111.73 204.877 111.777 206.799V215.553C111.777 217.299 112 218.688 112.445 219.719V220H109.035ZM103.639 217.521C104.658 217.521 105.625 217.258 106.539 216.73C107.453 216.203 108.115 215.518 108.525 214.674V210.771H105.977C101.992 210.771 100 211.938 100 214.27C100 215.289 100.34 216.086 101.02 216.66C101.699 217.234 102.572 217.521 103.639 217.521Z" fill="white"/>
<path d="M120.408 220H117.156V193H120.408V220Z" fill="white"/>
<path d="M133.521 220.352C130.943 220.352 128.846 219.508 127.229 217.82C125.611 216.121 124.803 213.854 124.803 211.018V210.42C124.803 208.533 125.16 206.852 125.875 205.375C126.602 203.887 127.609 202.727 128.898 201.895C130.199 201.051 131.605 200.629 133.117 200.629C135.59 200.629 137.512 201.443 138.883 203.072C140.254 204.701 140.939 207.033 140.939 210.068V211.422H128.055C128.102 213.297 128.646 214.814 129.689 215.975C130.744 217.123 132.08 217.697 133.697 217.697C134.846 217.697 135.818 217.463 136.615 216.994C137.412 216.525 138.109 215.904 138.707 215.131L140.693 216.678C139.1 219.127 136.709 220.352 133.521 220.352ZM133.117 203.301C131.805 203.301 130.703 203.781 129.812 204.742C128.922 205.691 128.371 207.027 128.16 208.75H137.688V208.504C137.594 206.852 137.148 205.574 136.352 204.672C135.555 203.758 134.477 203.301 133.117 203.301Z" fill="white"/>
<path d="M155.793 214.955C155.793 214.076 155.459 213.396 154.791 212.916C154.135 212.424 152.98 212.002 151.328 211.65C149.688 211.299 148.381 210.877 147.408 210.385C146.447 209.893 145.732 209.307 145.264 208.627C144.807 207.947 144.578 207.139 144.578 206.201C144.578 204.643 145.234 203.324 146.547 202.246C147.871 201.168 149.559 200.629 151.609 200.629C153.766 200.629 155.512 201.186 156.848 202.299C158.195 203.412 158.869 204.836 158.869 206.57H155.6C155.6 205.68 155.219 204.912 154.457 204.268C153.707 203.623 152.758 203.301 151.609 203.301C150.426 203.301 149.5 203.559 148.832 204.074C148.164 204.59 147.83 205.264 147.83 206.096C147.83 206.881 148.141 207.473 148.762 207.871C149.383 208.27 150.502 208.65 152.119 209.014C153.748 209.377 155.066 209.811 156.074 210.314C157.082 210.818 157.826 211.428 158.307 212.143C158.799 212.846 159.045 213.707 159.045 214.727C159.045 216.426 158.365 217.791 157.006 218.822C155.646 219.842 153.883 220.352 151.715 220.352C150.191 220.352 148.844 220.082 147.672 219.543C146.5 219.004 145.58 218.254 144.912 217.293C144.256 216.32 143.928 215.271 143.928 214.146H147.18C147.238 215.236 147.672 216.104 148.48 216.748C149.301 217.381 150.379 217.697 151.715 217.697C152.945 217.697 153.93 217.451 154.668 216.959C155.418 216.455 155.793 215.787 155.793 214.955Z" fill="white"/>
<path d="M163.352 218.295C163.352 217.732 163.516 217.264 163.844 216.889C164.184 216.514 164.688 216.326 165.355 216.326C166.023 216.326 166.527 216.514 166.867 216.889C167.219 217.264 167.395 217.732 167.395 218.295C167.395 218.834 167.219 219.285 166.867 219.648C166.527 220.012 166.023 220.193 165.355 220.193C164.688 220.193 164.184 220.012 163.844 219.648C163.516 219.285 163.352 218.834 163.352 218.295Z" fill="white"/>
</g>
</g>
</svg>
