<svg viewBox="0 0 980 400" fill="none" xmlns="http://www.w3.org/2000/svg">
<g id="0115109">
<g id="claves01">
<path id="Rectangle 4" d="M44 197H260.745L294 237L260.745 277H44V197Z" fill="#CD08D1" fill-opacity="0.1"/>
<path id="Rectangle 4 (Stroke)" fill-rule="evenodd" clip-rule="evenodd" d="M259.338 200H47V274H259.338L290.099 237L259.338 200ZM260.745 197H44V277H260.745L294 237L260.745 197Z" fill="#CD08D1"/>
<path id="Rectangle 5" d="M48 307H264.745L298 347L264.745 387H48V307Z" fill="#CD08D1" fill-opacity="0.1"/>
<path id="Rectangle 5 (Stroke)" fill-rule="evenodd" clip-rule="evenodd" d="M263.338 310H51V384H263.338L294.099 347L263.338 310ZM264.745 307H48V387H264.745L298 347L264.745 307Z" fill="#CD08D1"/>
<path id="Rectangle 6" d="M384 194H600.745L634 234L600.745 274H384V194Z" fill="#CD08D1" fill-opacity="0.1"/>
<path id="Rectangle 6 (Stroke)" fill-rule="evenodd" clip-rule="evenodd" d="M599.338 197H387V271H599.338L630.099 234L599.338 197ZM600.745 194H384V274H600.745L634 234L600.745 194Z" fill="#CD08D1"/>
<path id="Rectangle 7" d="M387 304H603.745L637 344L603.745 384H387V304Z" fill="#CD08D1" fill-opacity="0.1"/>
<path id="Rectangle 7 (Stroke)" fill-rule="evenodd" clip-rule="evenodd" d="M602.338 307H390V381H602.338L633.099 344L602.338 307ZM603.745 304H387V384H603.745L637 344L603.745 304Z" fill="#CD08D1"/>
<path id="Rectangle 8" d="M730 253H946.745L980 293L946.745 333H730V253Z" fill="#CD08D1" fill-opacity="0.1"/>
<path id="Rectangle 8 (Stroke)" fill-rule="evenodd" clip-rule="evenodd" d="M945.338 256H733V330H945.338L976.099 293L945.338 256ZM946.745 253H730V333H946.745L980 293L946.745 253Z" fill="#CD08D1"/>
<path id="Ellipse 1" d="M85 237C85 259.091 67.0914 277 45 277C22.9086 277 5 259.091 5 237C5 214.909 22.9086 197 45 197C67.0914 197 85 214.909 85 237Z" fill="#CD08D1"/>
<path id="Ellipse 2" d="M89 347C89 369.091 71.0914 387 49 387C26.9086 387 9 369.091 9 347C9 324.909 26.9086 307 49 307C71.0914 307 89 324.909 89 347Z" fill="#CD08D1"/>
<path id="Ellipse 3" d="M425 234C425 256.091 407.091 274 385 274C362.909 274 345 256.091 345 234C345 211.909 362.909 194 385 194C407.091 194 425 211.909 425 234Z" fill="#CD08D1"/>
<path id="Ellipse 4" d="M428 344C428 366.091 410.091 384 388 384C365.909 384 348 366.091 348 344C348 321.909 365.909 304 388 304C410.091 304 428 321.909 428 344Z" fill="#CD08D1"/>
<path id="Ellipse 5" d="M771 293C771 315.091 753.091 333 731 333C708.909 333 691 315.091 691 293C691 270.909 708.909 253 731 253C753.091 253 771 270.909 771 293Z" fill="#CD08D1"/>
<path id="A" d="M53.0938 247.406H35.4688L31.7812 258H23.5625L40.75 212.5H47.8438L65.0625 258H56.8125L53.0938 247.406ZM37.6875 241.031H50.875L44.2812 222.156L37.6875 241.031Z" fill="white"/>
<path id="B" d="M32.625 363V317.5H48.2188C53.3646 317.5 57.2812 318.531 59.9688 320.594C62.6562 322.656 64 325.729 64 329.812C64 331.896 63.4375 333.771 62.3125 335.438C61.1875 337.104 59.5417 338.396 57.375 339.312C59.8333 339.979 61.7292 341.24 63.0625 343.094C64.4167 344.927 65.0938 347.135 65.0938 349.719C65.0938 353.99 63.7188 357.271 60.9688 359.562C58.2396 361.854 54.3229 363 49.2188 363H32.625ZM40.5312 342.469V356.688H49.3125C51.7917 356.688 53.7292 356.073 55.125 354.844C56.5208 353.615 57.2188 351.906 57.2188 349.719C57.2188 344.99 54.8021 342.573 49.9688 342.469H40.5312ZM40.5312 336.656H48.2812C50.7396 336.656 52.6562 336.104 54.0312 335C55.4271 333.875 56.125 332.292 56.125 330.25C56.125 328 55.4792 326.375 54.1875 325.375C52.9167 324.375 50.9271 323.875 48.2188 323.875H40.5312V336.656Z" fill="white"/>
<path id="C" d="M402.344 241.188C401.885 246.042 400.094 249.833 396.969 252.562C393.844 255.271 389.688 256.625 384.5 256.625C380.875 256.625 377.677 255.771 374.906 254.062C372.156 252.333 370.031 249.885 368.531 246.719C367.031 243.552 366.25 239.875 366.188 235.688V231.438C366.188 227.146 366.948 223.365 368.469 220.094C369.99 216.823 372.167 214.302 375 212.531C377.854 210.76 381.146 209.875 384.875 209.875C389.896 209.875 393.938 211.24 397 213.969C400.062 216.698 401.844 220.552 402.344 225.531H394.469C394.094 222.26 393.135 219.906 391.594 218.469C390.073 217.01 387.833 216.281 384.875 216.281C381.438 216.281 378.792 217.542 376.938 220.062C375.104 222.562 374.167 226.24 374.125 231.094V235.125C374.125 240.042 375 243.792 376.75 246.375C378.521 248.958 381.104 250.25 384.5 250.25C387.604 250.25 389.938 249.552 391.5 248.156C393.062 246.76 394.052 244.438 394.469 241.188H402.344Z" fill="white"/>
<path id="D" d="M370.625 366V320.5H384.062C388.083 320.5 391.646 321.396 394.75 323.188C397.875 324.979 400.292 327.521 402 330.812C403.708 334.104 404.562 337.875 404.562 342.125V344.406C404.562 348.719 403.698 352.51 401.969 355.781C400.26 359.052 397.812 361.573 394.625 363.344C391.458 365.115 387.823 366 383.719 366H370.625ZM378.531 326.875V359.688H383.688C387.833 359.688 391.01 358.396 393.219 355.812C395.448 353.208 396.583 349.479 396.625 344.625V342.094C396.625 337.156 395.552 333.385 393.406 330.781C391.26 328.177 388.146 326.875 384.062 326.875H378.531Z" fill="white"/>
<path id="E" d="M740.219 294.688H721.531V308.688H743.375V315H713.625V269.5H743.156V275.875H721.531V288.438H740.219V294.688Z" fill="white"/>
<path id="N" d="M154.188 363H149.664L132.484 336.703V363H127.961V328.875H132.484L149.711 355.289V328.875H154.188V363Z" fill="#CD08D1"/>
<path id="V" d="M140.258 248.023L150.008 219.875H154.93L142.273 254H138.289L125.656 219.875H130.555L140.258 248.023Z" fill="#CD08D1"/>
<path id="O" d="M505.211 234.039C505.211 237.383 504.648 240.305 503.523 242.805C502.398 245.289 500.805 247.188 498.742 248.5C496.68 249.812 494.273 250.469 491.523 250.469C488.836 250.469 486.453 249.812 484.375 248.5C482.297 247.172 480.68 245.289 479.523 242.852C478.383 240.398 477.797 237.562 477.766 234.344V231.883C477.766 228.602 478.336 225.703 479.477 223.188C480.617 220.672 482.227 218.75 484.305 217.422C486.398 216.078 488.789 215.406 491.477 215.406C494.211 215.406 496.617 216.07 498.695 217.398C500.789 218.711 502.398 220.625 503.523 223.141C504.648 225.641 505.211 228.555 505.211 231.883V234.039ZM500.734 231.836C500.734 227.789 499.922 224.688 498.297 222.531C496.672 220.359 494.398 219.273 491.477 219.273C488.633 219.273 486.391 220.359 484.75 222.531C483.125 224.688 482.289 227.688 482.242 231.531V234.039C482.242 237.961 483.062 241.047 484.703 243.297C486.359 245.531 488.633 246.648 491.523 246.648C494.43 246.648 496.68 245.594 498.273 243.484C499.867 241.359 500.688 238.32 500.734 234.367V231.836Z" fill="#CD08D1"/>
<path id="X" d="M492.094 342.953L500.273 329.875H505.57L494.789 346.797L505.828 364H500.484L492.094 350.688L483.656 364H478.336L489.398 346.797L478.594 329.875H483.867L492.094 342.953Z" fill="#CD08D1"/>
<path id="D_2" d="M821.961 306V271.875H831.594C834.562 271.875 837.188 272.531 839.469 273.844C841.75 275.156 843.508 277.023 844.742 279.445C845.992 281.867 846.625 284.648 846.641 287.789V289.969C846.641 293.188 846.016 296.008 844.766 298.43C843.531 300.852 841.758 302.711 839.445 304.008C837.148 305.305 834.469 305.969 831.406 306H821.961ZM826.461 275.578V302.32H831.195C834.664 302.32 837.359 301.242 839.281 299.086C841.219 296.93 842.188 293.859 842.188 289.875V287.883C842.188 284.008 841.273 281 839.445 278.859C837.633 276.703 835.055 275.609 831.711 275.578H826.461Z" fill="#CD08D1"/>
<g id="flecha">
<path id="Rectangle 2" d="M58.2002 303.008L73.482 311.133L31.5004 390.089L16.2186 381.963L58.2002 303.008Z" fill="#1043F5"/>
<path id="Rectangle 1" d="M0 315.904L90 266V323.692L45 306.096L0 315.904Z" fill="#1043F5"/>
<path id="Rectangle 3" d="M4.03845 385.21L19.6656 358.143L36.9362 357.565L21.3091 384.632L4.03845 385.21Z" fill="#1043F5"/>
<path id="Rectangle 4_2" d="M30.0895 399.845L45.7166 372.778L36.9259 357.154L21.2987 384.221L30.0895 399.845Z" fill="#1043F5"/>
</g>
</g>
<g id="enun01">
<path id="Rectangle 1_2" d="M74 0H886.539L955 78.3561L886.539 159H74V0Z" fill="#02071A"/>
<path id="Rectangle 1 (Stroke)" fill-rule="evenodd" clip-rule="evenodd" d="M884.722 4H78V155H884.688L949.721 78.3937L884.722 4ZM886.539 0H74V159H886.539L955 78.3561L886.539 0Z" fill="#CD08D1"/>
<path id="Ellipse 1_2" d="M124 79C124 106.614 101.614 129 74 129C46.3858 129 24 106.614 24 79C24 51.3858 46.3858 29 74 29C101.614 29 124 51.3858 124 79Z" fill="#CD08D1"/>
<path id="Ellipse 1 (Stroke)" fill-rule="evenodd" clip-rule="evenodd" d="M74 128C101.062 128 123 106.062 123 79C123 51.938 101.062 30 74 30C46.938 30 25 51.938 25 79C25 106.062 46.938 128 74 128ZM74 129C101.614 129 124 106.614 124 79C124 51.3858 101.614 29 74 29C46.3858 29 24 51.3858 24 79C24 106.614 46.3858 129 74 129Z" fill="black"/>
<g id="Group 16">
<g id="&#194;&#191;Qu&#195;&#169; letra contin&#195;&#186;a? U; T; C; S; &#226;&#128;&#166;">
<path d="M161.336 39.0469C161.324 40.2891 161.195 41.2852 160.949 42.0352C160.715 42.7734 160.316 43.4883 159.754 44.1797C159.191 44.8711 158.371 45.7852 157.293 46.9219C156.215 48.0469 155.611 49.1895 155.482 50.3496L155.447 51C155.447 52.2773 155.787 53.25 156.467 53.918C157.146 54.5977 158.125 54.9375 159.402 54.9375C160.574 54.9375 161.523 54.6035 162.25 53.9355C162.988 53.2793 163.357 52.418 163.357 51.3516H166.609C166.586 53.2383 165.912 54.7793 164.588 55.9746C163.275 57.1699 161.547 57.7676 159.402 57.7676C157.105 57.7676 155.33 57.1758 154.076 55.9922C152.822 54.8203 152.195 53.1855 152.195 51.0879C152.195 49.0605 153.133 47.0215 155.008 44.9707L156.924 42.9844C157.697 42.0703 158.084 40.7578 158.084 39.0469H161.336ZM161.477 33.4746C161.477 34.002 161.312 34.4473 160.984 34.8105C160.668 35.1738 160.193 35.3555 159.561 35.3555C158.928 35.3555 158.447 35.1738 158.119 34.8105C157.791 34.4473 157.627 34.002 157.627 33.4746C157.627 32.959 157.791 32.5254 158.119 32.1738C158.447 31.8223 158.928 31.6465 159.561 31.6465C160.193 31.6465 160.668 31.8223 160.984 32.1738C161.312 32.5254 161.477 32.959 161.477 33.4746Z" fill="white"/>
<path d="M190.568 39.0293C190.568 41.502 190.176 43.6348 189.391 45.4277C188.605 47.209 187.504 48.6035 186.086 49.6113L190.656 53.1973L188.354 55.3242L182.957 51.0352C182.113 51.2461 181.223 51.3516 180.285 51.3516C178.27 51.3516 176.482 50.8594 174.924 49.875C173.365 48.8789 172.152 47.4668 171.285 45.6387C170.43 43.7988 169.99 41.6719 169.967 39.2578V37.4121C169.967 34.9512 170.395 32.7773 171.25 30.8906C172.105 29.0039 173.312 27.5625 174.871 26.5664C176.441 25.5586 178.234 25.0547 180.25 25.0547C182.312 25.0547 184.123 25.5527 185.682 26.5488C187.252 27.5449 188.459 28.9805 189.303 30.8555C190.146 32.7188 190.568 34.8984 190.568 37.3945V39.0293ZM187.193 37.377C187.193 34.3652 186.59 32.0449 185.383 30.416C184.188 28.7754 182.477 27.9551 180.25 27.9551C178.129 27.9551 176.453 28.7695 175.223 30.3984C174.004 32.0156 173.377 34.2656 173.342 37.1484V39.0293C173.342 41.959 173.951 44.2676 175.17 45.9551C176.4 47.6426 178.105 48.4863 180.285 48.4863C182.465 48.4863 184.152 47.6953 185.348 46.1133C186.543 44.5195 187.158 42.2402 187.193 39.2754V37.377Z" fill="white"/>
<path d="M207.004 49.1191C205.738 50.6074 203.881 51.3516 201.432 51.3516C199.404 51.3516 197.857 50.7656 196.791 49.5938C195.736 48.4102 195.203 46.6641 195.191 44.3555V31.9805H198.443V44.2676C198.443 47.1504 199.615 48.5918 201.959 48.5918C204.443 48.5918 206.096 47.666 206.916 45.8145V31.9805H210.168V51H207.074L207.004 49.1191Z" fill="white"/>
<path d="M223.018 51.3516C220.439 51.3516 218.342 50.5078 216.725 48.8203C215.107 47.1211 214.299 44.8535 214.299 42.0176V41.4199C214.299 39.5332 214.656 37.8516 215.371 36.375C216.098 34.8867 217.105 33.7266 218.395 32.8945C219.695 32.0508 221.102 31.6289 222.613 31.6289C225.086 31.6289 227.008 32.4434 228.379 34.0723C229.75 35.7012 230.436 38.0332 230.436 41.0684V42.4219H217.551C217.598 44.2969 218.143 45.8145 219.186 46.9746C220.24 48.123 221.576 48.6973 223.193 48.6973C224.342 48.6973 225.314 48.4629 226.111 47.9941C226.908 47.5254 227.605 46.9043 228.203 46.1309L230.189 47.6777C228.596 50.127 226.205 51.3516 223.018 51.3516ZM222.613 34.3008C221.301 34.3008 220.199 34.7812 219.309 35.7422C218.418 36.6914 217.867 38.0273 217.656 39.75H227.184V39.5039C227.09 37.8516 226.645 36.5742 225.848 35.6719C225.051 34.7578 223.973 34.3008 222.613 34.3008ZM224.195 24H228.133L223.422 29.168H220.803L224.195 24Z" fill="white"/>
<path d="M246.678 51H243.426V24H246.678V51Z" fill="white"/>
<path d="M259.791 51.3516C257.213 51.3516 255.115 50.5078 253.498 48.8203C251.881 47.1211 251.072 44.8535 251.072 42.0176V41.4199C251.072 39.5332 251.43 37.8516 252.145 36.375C252.871 34.8867 253.879 33.7266 255.168 32.8945C256.469 32.0508 257.875 31.6289 259.387 31.6289C261.859 31.6289 263.781 32.4434 265.152 34.0723C266.523 35.7012 267.209 38.0332 267.209 41.0684V42.4219H254.324C254.371 44.2969 254.916 45.8145 255.959 46.9746C257.014 48.123 258.35 48.6973 259.967 48.6973C261.115 48.6973 262.088 48.4629 262.885 47.9941C263.682 47.5254 264.379 46.9043 264.977 46.1309L266.963 47.6777C265.369 50.127 262.979 51.3516 259.791 51.3516ZM259.387 34.3008C258.074 34.3008 256.973 34.7812 256.082 35.7422C255.191 36.6914 254.641 38.0273 254.43 39.75H263.957V39.5039C263.863 37.8516 263.418 36.5742 262.621 35.6719C261.824 34.7578 260.746 34.3008 259.387 34.3008Z" fill="white"/>
<path d="M275.4 27.375V31.9805H278.951V34.4941H275.4V46.2891C275.4 47.0508 275.559 47.625 275.875 48.0117C276.191 48.3867 276.73 48.5742 277.492 48.5742C277.867 48.5742 278.383 48.5039 279.039 48.3633V51C278.184 51.2344 277.352 51.3516 276.543 51.3516C275.09 51.3516 273.994 50.9121 273.256 50.0332C272.518 49.1543 272.148 47.9062 272.148 46.2891V34.4941H268.686V31.9805H272.148V27.375H275.4Z" fill="white"/>
<path d="M291.959 34.8984C291.467 34.8164 290.934 34.7754 290.359 34.7754C288.227 34.7754 286.779 35.6836 286.018 37.5V51H282.766V31.9805H285.93L285.982 34.1777C287.049 32.4785 288.561 31.6289 290.518 31.6289C291.15 31.6289 291.631 31.7109 291.959 31.875V34.8984Z" fill="white"/>
<path d="M306.004 51C305.816 50.625 305.664 49.957 305.547 48.9961C304.035 50.5664 302.23 51.3516 300.133 51.3516C298.258 51.3516 296.717 50.8242 295.51 49.7695C294.314 48.7031 293.717 47.3555 293.717 45.7266C293.717 43.7461 294.467 42.2109 295.967 41.1211C297.479 40.0195 299.6 39.4688 302.33 39.4688H305.494V37.9746C305.494 36.8379 305.154 35.9355 304.475 35.2676C303.795 34.5879 302.793 34.248 301.469 34.248C300.309 34.248 299.336 34.541 298.551 35.127C297.766 35.7129 297.373 36.4219 297.373 37.2539H294.104C294.104 36.3047 294.438 35.3906 295.105 34.5117C295.785 33.6211 296.699 32.918 297.848 32.4023C299.008 31.8867 300.279 31.6289 301.662 31.6289C303.854 31.6289 305.57 32.1797 306.812 33.2812C308.055 34.3711 308.699 35.877 308.746 37.7988V46.5527C308.746 48.2988 308.969 49.6875 309.414 50.7188V51H306.004ZM300.607 48.5215C301.627 48.5215 302.594 48.2578 303.508 47.7305C304.422 47.2031 305.084 46.5176 305.494 45.6738V41.7715H302.945C298.961 41.7715 296.969 42.9375 296.969 45.2695C296.969 46.2891 297.309 47.0859 297.988 47.6602C298.668 48.2344 299.541 48.5215 300.607 48.5215Z" fill="white"/>
<path d="M330.402 48.6973C331.562 48.6973 332.576 48.3457 333.443 47.6426C334.311 46.9395 334.791 46.0605 334.885 45.0059H337.961C337.902 46.0957 337.527 47.1328 336.836 48.1172C336.145 49.1016 335.219 49.8867 334.059 50.4727C332.91 51.0586 331.691 51.3516 330.402 51.3516C327.812 51.3516 325.75 50.4902 324.215 48.7676C322.691 47.0332 321.93 44.666 321.93 41.666V41.1211C321.93 39.2695 322.27 37.623 322.949 36.1816C323.629 34.7402 324.602 33.6211 325.867 32.8242C327.145 32.0273 328.65 31.6289 330.385 31.6289C332.518 31.6289 334.287 32.2676 335.693 33.5449C337.111 34.8223 337.867 36.4805 337.961 38.5195H334.885C334.791 37.2891 334.322 36.2812 333.479 35.4961C332.646 34.6992 331.615 34.3008 330.385 34.3008C328.732 34.3008 327.449 34.8984 326.535 36.0938C325.633 37.2773 325.182 38.9941 325.182 41.2441V41.8594C325.182 44.0508 325.633 45.7383 326.535 46.9219C327.438 48.1055 328.727 48.6973 330.402 48.6973Z" fill="white"/>
<path d="M340.756 41.3145C340.756 39.4512 341.119 37.7754 341.846 36.2871C342.584 34.7988 343.604 33.6504 344.904 32.8418C346.217 32.0332 347.711 31.6289 349.387 31.6289C351.977 31.6289 354.068 32.5254 355.662 34.3184C357.268 36.1113 358.07 38.4961 358.07 41.4727V41.7012C358.07 43.5527 357.713 45.2168 356.998 46.6934C356.295 48.1582 355.281 49.3008 353.957 50.1211C352.645 50.9414 351.133 51.3516 349.422 51.3516C346.844 51.3516 344.752 50.4551 343.146 48.6621C341.553 46.8691 340.756 44.4961 340.756 41.543V41.3145ZM344.025 41.7012C344.025 43.8105 344.512 45.5039 345.484 46.7812C346.469 48.0586 347.781 48.6973 349.422 48.6973C351.074 48.6973 352.387 48.0527 353.359 46.7637C354.332 45.4629 354.818 43.6465 354.818 41.3145C354.818 39.2285 354.32 37.541 353.324 36.252C352.34 34.9512 351.027 34.3008 349.387 34.3008C347.781 34.3008 346.486 34.9395 345.502 36.2168C344.518 37.4941 344.025 39.3223 344.025 41.7012Z" fill="white"/>
<path d="M365.225 31.9805L365.33 34.3711C366.783 32.543 368.682 31.6289 371.025 31.6289C375.045 31.6289 377.072 33.8965 377.107 38.4316V51H373.855V38.4141C373.844 37.043 373.527 36.0293 372.906 35.373C372.297 34.7168 371.342 34.3887 370.041 34.3887C368.986 34.3887 368.061 34.6699 367.264 35.2324C366.467 35.7949 365.846 36.5332 365.4 37.4473V51H362.148V31.9805H365.225Z" fill="white"/>
<path d="M386.424 27.375V31.9805H389.975V34.4941H386.424V46.2891C386.424 47.0508 386.582 47.625 386.898 48.0117C387.215 48.3867 387.754 48.5742 388.516 48.5742C388.891 48.5742 389.406 48.5039 390.062 48.3633V51C389.207 51.2344 388.375 51.3516 387.566 51.3516C386.113 51.3516 385.018 50.9121 384.279 50.0332C383.541 49.1543 383.172 47.9062 383.172 46.2891V34.4941H379.709V31.9805H383.172V27.375H386.424Z" fill="white"/>
<path d="M397.322 51H394.07V31.9805H397.322V51ZM393.807 26.9355C393.807 26.4082 393.965 25.9629 394.281 25.5996C394.609 25.2363 395.09 25.0547 395.723 25.0547C396.355 25.0547 396.836 25.2363 397.164 25.5996C397.492 25.9629 397.656 26.4082 397.656 26.9355C397.656 27.4629 397.492 27.9023 397.164 28.2539C396.836 28.6055 396.355 28.7812 395.723 28.7812C395.09 28.7812 394.609 28.6055 394.281 28.2539C393.965 27.9023 393.807 27.4629 393.807 26.9355Z" fill="white"/>
<path d="M405.619 31.9805L405.725 34.3711C407.178 32.543 409.076 31.6289 411.42 31.6289C415.439 31.6289 417.467 33.8965 417.502 38.4316V51H414.25V38.4141C414.238 37.043 413.922 36.0293 413.301 35.373C412.691 34.7168 411.736 34.3887 410.436 34.3887C409.381 34.3887 408.455 34.6699 407.658 35.2324C406.861 35.7949 406.24 36.5332 405.795 37.4473V51H402.543V31.9805H405.619Z" fill="white"/>
<path d="M434.148 49.1191C432.883 50.6074 431.025 51.3516 428.576 51.3516C426.549 51.3516 425.002 50.7656 423.936 49.5938C422.881 48.4102 422.348 46.6641 422.336 44.3555V31.9805H425.588V44.2676C425.588 47.1504 426.76 48.5918 429.104 48.5918C431.588 48.5918 433.24 47.666 434.061 45.8145V31.9805H437.312V51H434.219L434.148 49.1191ZM431.512 24H435.449L430.738 29.168H428.119L431.512 24Z" fill="white"/>
<path d="M454.012 51C453.824 50.625 453.672 49.957 453.555 48.9961C452.043 50.5664 450.238 51.3516 448.141 51.3516C446.266 51.3516 444.725 50.8242 443.518 49.7695C442.322 48.7031 441.725 47.3555 441.725 45.7266C441.725 43.7461 442.475 42.2109 443.975 41.1211C445.486 40.0195 447.607 39.4688 450.338 39.4688H453.502V37.9746C453.502 36.8379 453.162 35.9355 452.482 35.2676C451.803 34.5879 450.801 34.248 449.477 34.248C448.316 34.248 447.344 34.541 446.559 35.127C445.773 35.7129 445.381 36.4219 445.381 37.2539H442.111C442.111 36.3047 442.445 35.3906 443.113 34.5117C443.793 33.6211 444.707 32.918 445.855 32.4023C447.016 31.8867 448.287 31.6289 449.67 31.6289C451.861 31.6289 453.578 32.1797 454.82 33.2812C456.062 34.3711 456.707 35.877 456.754 37.7988V46.5527C456.754 48.2988 456.977 49.6875 457.422 50.7188V51H454.012ZM448.615 48.5215C449.635 48.5215 450.602 48.2578 451.516 47.7305C452.43 47.2031 453.092 46.5176 453.502 45.6738V41.7715H450.953C446.969 41.7715 444.977 42.9375 444.977 45.2695C444.977 46.2891 445.316 47.0859 445.996 47.6602C446.676 48.2344 447.549 48.5215 448.615 48.5215Z" fill="white"/>
<path d="M465.666 43.793C465.689 42.3984 465.848 41.2969 466.141 40.4883C466.434 39.6797 467.031 38.7832 467.934 37.7988L470.236 35.4258C471.221 34.3125 471.713 33.1172 471.713 31.8398C471.713 30.6094 471.391 29.6484 470.746 28.957C470.102 28.2539 469.164 27.9023 467.934 27.9023C466.738 27.9023 465.777 28.2188 465.051 28.8516C464.324 29.4844 463.961 30.334 463.961 31.4004H460.709C460.732 29.502 461.406 27.9727 462.73 26.8125C464.066 25.6406 465.801 25.0547 467.934 25.0547C470.148 25.0547 471.871 25.6523 473.102 26.8477C474.344 28.0312 474.965 29.6602 474.965 31.7344C474.965 33.7852 474.016 35.8066 472.117 37.7988L470.201 39.6973C469.346 40.6465 468.918 42.0117 468.918 43.793H465.666ZM465.525 49.3652C465.525 48.8379 465.684 48.3984 466 48.0469C466.328 47.6836 466.809 47.502 467.441 47.502C468.074 47.502 468.555 47.6836 468.883 48.0469C469.211 48.3984 469.375 48.8379 469.375 49.3652C469.375 49.8926 469.211 50.332 468.883 50.6836C468.555 51.0234 468.074 51.1934 467.441 51.1934C466.809 51.1934 466.328 51.0234 466 50.6836C465.684 50.332 465.525 49.8926 465.525 49.3652Z" fill="white"/>
<path d="M252.355 105.406V122.809C252.344 125.223 251.582 127.197 250.07 128.732C248.57 130.268 246.531 131.129 243.953 131.316L243.057 131.352C240.256 131.352 238.023 130.596 236.359 129.084C234.695 127.572 233.852 125.492 233.828 122.844V105.406H237.168V122.738C237.168 124.59 237.678 126.031 238.697 127.062C239.717 128.082 241.17 128.592 243.057 128.592C244.967 128.592 246.426 128.082 247.434 127.062C248.453 126.043 248.963 124.607 248.963 122.756V105.406H252.355Z" fill="white"/>
<path d="M256.662 113.773C256.662 113.211 256.826 112.742 257.154 112.367C257.494 111.992 257.998 111.805 258.666 111.805C259.334 111.805 259.838 111.992 260.178 112.367C260.529 112.742 260.705 113.211 260.705 113.773C260.705 114.312 260.529 114.764 260.178 115.127C259.838 115.49 259.334 115.672 258.666 115.672C257.998 115.672 257.494 115.49 257.154 115.127C256.826 114.764 256.662 114.312 256.662 113.773ZM257.277 136.098L255.432 134.832C256.533 133.297 257.107 131.715 257.154 130.086V127.15H260.336V129.699C260.336 130.883 260.043 132.066 259.457 133.25C258.883 134.434 258.156 135.383 257.277 136.098Z" fill="white"/>
<path d="M291.221 108.184H282.994V131H279.637V108.184H271.428V105.406H291.221V108.184Z" fill="white"/>
<path d="M293.998 113.773C293.998 113.211 294.162 112.742 294.49 112.367C294.83 111.992 295.334 111.805 296.002 111.805C296.67 111.805 297.174 111.992 297.514 112.367C297.865 112.742 298.041 113.211 298.041 113.773C298.041 114.312 297.865 114.764 297.514 115.127C297.174 115.49 296.67 115.672 296.002 115.672C295.334 115.672 294.83 115.49 294.49 115.127C294.162 114.764 293.998 114.312 293.998 113.773ZM294.613 136.098L292.768 134.832C293.869 133.297 294.443 131.715 294.49 130.086V127.15H297.672V129.699C297.672 130.883 297.379 132.066 296.793 133.25C296.219 134.434 295.492 135.383 294.613 136.098Z" fill="white"/>
<path d="M330.402 122.879C330.086 125.586 329.084 127.678 327.396 129.154C325.721 130.619 323.488 131.352 320.699 131.352C317.676 131.352 315.25 130.268 313.422 128.1C311.605 125.932 310.697 123.031 310.697 119.398V116.938C310.697 114.559 311.119 112.467 311.963 110.662C312.818 108.857 314.025 107.475 315.584 106.514C317.143 105.541 318.947 105.055 320.998 105.055C323.717 105.055 325.896 105.816 327.537 107.34C329.178 108.852 330.133 110.949 330.402 113.633H327.01C326.717 111.594 326.078 110.117 325.094 109.203C324.121 108.289 322.756 107.832 320.998 107.832C318.842 107.832 317.148 108.629 315.918 110.223C314.699 111.816 314.09 114.084 314.09 117.025V119.504C314.09 122.281 314.67 124.49 315.83 126.131C316.99 127.771 318.613 128.592 320.699 128.592C322.574 128.592 324.01 128.17 325.006 127.326C326.014 126.471 326.682 124.988 327.01 122.879H330.402Z" fill="white"/>
<path d="M334.006 113.773C334.006 113.211 334.17 112.742 334.498 112.367C334.838 111.992 335.342 111.805 336.01 111.805C336.678 111.805 337.182 111.992 337.521 112.367C337.873 112.742 338.049 113.211 338.049 113.773C338.049 114.312 337.873 114.764 337.521 115.127C337.182 115.49 336.678 115.672 336.01 115.672C335.342 115.672 334.838 115.49 334.498 115.127C334.17 114.764 334.006 114.312 334.006 113.773ZM334.621 136.098L332.775 134.832C333.877 133.297 334.451 131.715 334.498 130.086V127.15H337.68V129.699C337.68 130.883 337.387 132.066 336.801 133.25C336.227 134.434 335.5 135.383 334.621 136.098Z" fill="white"/>
<path d="M359.125 119.592C356.23 118.76 354.121 117.74 352.797 116.533C351.484 115.314 350.828 113.814 350.828 112.033C350.828 110.018 351.631 108.354 353.236 107.041C354.854 105.717 356.951 105.055 359.529 105.055C361.287 105.055 362.852 105.395 364.223 106.074C365.605 106.754 366.672 107.691 367.422 108.887C368.184 110.082 368.564 111.389 368.564 112.807H365.172C365.172 111.26 364.68 110.047 363.695 109.168C362.711 108.277 361.322 107.832 359.529 107.832C357.865 107.832 356.564 108.201 355.627 108.939C354.701 109.666 354.238 110.68 354.238 111.98C354.238 113.023 354.678 113.908 355.557 114.635C356.447 115.35 357.953 116.006 360.074 116.604C362.207 117.201 363.871 117.863 365.066 118.59C366.273 119.305 367.164 120.143 367.738 121.104C368.324 122.064 368.617 123.195 368.617 124.496C368.617 126.57 367.809 128.234 366.191 129.488C364.574 130.73 362.412 131.352 359.705 131.352C357.947 131.352 356.307 131.018 354.783 130.35C353.26 129.67 352.082 128.744 351.25 127.572C350.43 126.4 350.02 125.07 350.02 123.582H353.412C353.412 125.129 353.98 126.354 355.117 127.256C356.266 128.146 357.795 128.592 359.705 128.592C361.486 128.592 362.852 128.229 363.801 127.502C364.75 126.775 365.225 125.785 365.225 124.531C365.225 123.277 364.785 122.311 363.906 121.631C363.027 120.939 361.434 120.26 359.125 119.592Z" fill="white"/>
<path d="M371.939 113.773C371.939 113.211 372.104 112.742 372.432 112.367C372.771 111.992 373.275 111.805 373.943 111.805C374.611 111.805 375.115 111.992 375.455 112.367C375.807 112.742 375.982 113.211 375.982 113.773C375.982 114.312 375.807 114.764 375.455 115.127C375.115 115.49 374.611 115.672 373.943 115.672C373.275 115.672 372.771 115.49 372.432 115.127C372.104 114.764 371.939 114.312 371.939 113.773ZM372.555 136.098L370.709 134.832C371.811 133.297 372.385 131.715 372.432 130.086V127.15H375.613V129.699C375.613 130.883 375.32 132.066 374.734 133.25C374.16 134.434 373.434 135.383 372.555 136.098Z" fill="white"/>
<path d="M389.148 129.295C389.148 128.732 389.312 128.264 389.641 127.889C389.98 127.514 390.484 127.326 391.152 127.326C391.82 127.326 392.324 127.514 392.664 127.889C393.016 128.264 393.191 128.732 393.191 129.295C393.191 129.834 393.016 130.285 392.664 130.648C392.324 131.012 391.82 131.193 391.152 131.193C390.484 131.193 389.98 131.012 389.641 130.648C389.312 130.285 389.148 129.834 389.148 129.295ZM396.83 129.295C396.83 128.732 396.994 128.264 397.322 127.889C397.662 127.514 398.166 127.326 398.834 127.326C399.502 127.326 400.006 127.514 400.346 127.889C400.697 128.264 400.873 128.732 400.873 129.295C400.873 129.834 400.697 130.285 400.346 130.648C400.006 131.012 399.502 131.193 398.834 131.193C398.166 131.193 397.662 131.012 397.322 130.648C396.994 130.285 396.83 129.834 396.83 129.295ZM404.125 129.295C404.125 128.732 404.289 128.264 404.617 127.889C404.957 127.514 405.461 127.326 406.129 127.326C406.797 127.326 407.301 127.514 407.641 127.889C407.992 128.264 408.168 128.732 408.168 129.295C408.168 129.834 407.992 130.285 407.641 130.648C407.301 131.012 406.797 131.193 406.129 131.193C405.461 131.193 404.957 131.012 404.617 130.648C404.289 130.285 404.125 129.834 404.125 129.295Z" fill="white"/>
</g>
</g>
</g>
</g>
</svg>
