<svg viewBox="0 0 975 387" fill="none" xmlns="http://www.w3.org/2000/svg">
<g id="0115112">
<g id="claves01">
<path id="Rectangle 4" d="M39 197H255.745L289 237L255.745 277H39V197Z" fill="#CD08D1" fill-opacity="0.1"/>
<path id="Rectangle 4 (Stroke)" fill-rule="evenodd" clip-rule="evenodd" d="M254.338 200H42V274H254.338L285.099 237L254.338 200ZM255.745 197H39V277H255.745L289 237L255.745 197Z" fill="#CD08D1"/>
<path id="Rectangle 5" d="M43 307H259.745L293 347L259.745 387H43V307Z" fill="#CD08D1" fill-opacity="0.1"/>
<path id="Rectangle 5 (Stroke)" fill-rule="evenodd" clip-rule="evenodd" d="M258.338 310H46V384H258.338L289.099 347L258.338 310ZM259.745 307H43V387H259.745L293 347L259.745 307Z" fill="#CD08D1"/>
<path id="Rectangle 6" d="M379 194H595.745L629 234L595.745 274H379V194Z" fill="#CD08D1" fill-opacity="0.1"/>
<path id="Rectangle 6 (Stroke)" fill-rule="evenodd" clip-rule="evenodd" d="M594.338 197H382V271H594.338L625.099 234L594.338 197ZM595.745 194H379V274H595.745L629 234L595.745 194Z" fill="#CD08D1"/>
<path id="Rectangle 7" d="M382 304H598.745L632 344L598.745 384H382V304Z" fill="#CD08D1" fill-opacity="0.1"/>
<path id="Rectangle 7 (Stroke)" fill-rule="evenodd" clip-rule="evenodd" d="M597.338 307H385V381H597.338L628.099 344L597.338 307ZM598.745 304H382V384H598.745L632 344L598.745 304Z" fill="#CD08D1"/>
<path id="Rectangle 8" d="M725 253H941.745L975 293L941.745 333H725V253Z" fill="#CD08D1" fill-opacity="0.1"/>
<path id="Rectangle 8 (Stroke)" fill-rule="evenodd" clip-rule="evenodd" d="M940.338 256H728V330H940.338L971.099 293L940.338 256ZM941.745 253H725V333H941.745L975 293L941.745 253Z" fill="#CD08D1"/>
<path id="Ellipse 1" d="M80 237C80 259.091 62.0914 277 40 277C17.9086 277 0 259.091 0 237C0 214.909 17.9086 197 40 197C62.0914 197 80 214.909 80 237Z" fill="#CD08D1"/>
<path id="Ellipse 2" d="M84 347C84 369.091 66.0914 387 44 387C21.9086 387 4 369.091 4 347C4 324.909 21.9086 307 44 307C66.0914 307 84 324.909 84 347Z" fill="#CD08D1"/>
<path id="Ellipse 3" d="M420 234C420 256.091 402.091 274 380 274C357.909 274 340 256.091 340 234C340 211.909 357.909 194 380 194C402.091 194 420 211.909 420 234Z" fill="#CD08D1"/>
<path id="Ellipse 4" d="M423 344C423 366.091 405.091 384 383 384C360.909 384 343 366.091 343 344C343 321.909 360.909 304 383 304C405.091 304 423 321.909 423 344Z" fill="#CD08D1"/>
<path id="Ellipse 5" d="M766 293C766 315.091 748.091 333 726 333C703.909 333 686 315.091 686 293C686 270.909 703.909 253 726 253C748.091 253 766 270.909 766 293Z" fill="#CD08D1"/>
<path id="A" d="M48.0938 247.406H30.4688L26.7812 258H18.5625L35.75 212.5H42.8438L60.0625 258H51.8125L48.0938 247.406ZM32.6875 241.031H45.875L39.2812 222.156L32.6875 241.031Z" fill="white"/>
<path id="B" d="M27.625 363V317.5H43.2188C48.3646 317.5 52.2812 318.531 54.9688 320.594C57.6562 322.656 59 325.729 59 329.812C59 331.896 58.4375 333.771 57.3125 335.438C56.1875 337.104 54.5417 338.396 52.375 339.312C54.8333 339.979 56.7292 341.24 58.0625 343.094C59.4167 344.927 60.0938 347.135 60.0938 349.719C60.0938 353.99 58.7188 357.271 55.9688 359.562C53.2396 361.854 49.3229 363 44.2188 363H27.625ZM35.5312 342.469V356.688H44.3125C46.7917 356.688 48.7292 356.073 50.125 354.844C51.5208 353.615 52.2188 351.906 52.2188 349.719C52.2188 344.99 49.8021 342.573 44.9688 342.469H35.5312ZM35.5312 336.656H43.2812C45.7396 336.656 47.6562 336.104 49.0312 335C50.4271 333.875 51.125 332.292 51.125 330.25C51.125 328 50.4792 326.375 49.1875 325.375C47.9167 324.375 45.9271 323.875 43.2188 323.875H35.5312V336.656Z" fill="white"/>
<path id="C" d="M397.344 241.188C396.885 246.042 395.094 249.833 391.969 252.562C388.844 255.271 384.688 256.625 379.5 256.625C375.875 256.625 372.677 255.771 369.906 254.062C367.156 252.333 365.031 249.885 363.531 246.719C362.031 243.552 361.25 239.875 361.188 235.688V231.438C361.188 227.146 361.948 223.365 363.469 220.094C364.99 216.823 367.167 214.302 370 212.531C372.854 210.76 376.146 209.875 379.875 209.875C384.896 209.875 388.938 211.24 392 213.969C395.062 216.698 396.844 220.552 397.344 225.531H389.469C389.094 222.26 388.135 219.906 386.594 218.469C385.073 217.01 382.833 216.281 379.875 216.281C376.438 216.281 373.792 217.542 371.938 220.062C370.104 222.562 369.167 226.24 369.125 231.094V235.125C369.125 240.042 370 243.792 371.75 246.375C373.521 248.958 376.104 250.25 379.5 250.25C382.604 250.25 384.938 249.552 386.5 248.156C388.062 246.76 389.052 244.438 389.469 241.188H397.344Z" fill="white"/>
<path id="D" d="M365.625 366V320.5H379.062C383.083 320.5 386.646 321.396 389.75 323.188C392.875 324.979 395.292 327.521 397 330.812C398.708 334.104 399.562 337.875 399.562 342.125V344.406C399.562 348.719 398.698 352.51 396.969 355.781C395.26 359.052 392.812 361.573 389.625 363.344C386.458 365.115 382.823 366 378.719 366H365.625ZM373.531 326.875V359.688H378.688C382.833 359.688 386.01 358.396 388.219 355.812C390.448 353.208 391.583 349.479 391.625 344.625V342.094C391.625 337.156 390.552 333.385 388.406 330.781C386.26 328.177 383.146 326.875 379.062 326.875H373.531Z" fill="white"/>
<path id="E" d="M735.219 294.688H716.531V308.688H738.375V315H708.625V269.5H738.156V275.875H716.531V288.438H735.219V294.688Z" fill="white"/>
<g id="64">
<path d="M138.852 221.852V225.531H138.055C134.68 225.594 131.992 226.594 129.992 228.531C127.992 230.469 126.836 233.195 126.523 236.711C128.32 234.648 130.773 233.617 133.883 233.617C136.852 233.617 139.219 234.664 140.984 236.758C142.766 238.852 143.656 241.555 143.656 244.867C143.656 248.383 142.695 251.195 140.773 253.305C138.867 255.414 136.305 256.469 133.086 256.469C129.82 256.469 127.172 255.219 125.141 252.719C123.109 250.203 122.094 246.969 122.094 243.016V241.352C122.094 235.07 123.43 230.273 126.102 226.961C128.789 223.633 132.781 221.93 138.078 221.852H138.852ZM133.156 237.227C131.672 237.227 130.305 237.672 129.055 238.562C127.805 239.453 126.938 240.57 126.453 241.914V243.508C126.453 246.32 127.086 248.586 128.352 250.305C129.617 252.023 131.195 252.883 133.086 252.883C135.039 252.883 136.57 252.164 137.68 250.727C138.805 249.289 139.367 247.406 139.367 245.078C139.367 242.734 138.797 240.844 137.656 239.406C136.531 237.953 135.031 237.227 133.156 237.227Z" fill="#CD08D1"/>
<path d="M167.094 244.539H171.828V248.078H167.094V256H162.734V248.078H147.195V245.523L162.477 221.875H167.094V244.539ZM152.117 244.539H162.734V227.805L162.219 228.742L152.117 244.539Z" fill="#CD08D1"/>
</g>
<g id="54">
<path d="M123.828 345.891L125.562 328.875H143.047V332.883H129.242L128.211 342.188C129.883 341.203 131.781 340.711 133.906 340.711C137.016 340.711 139.484 341.742 141.312 343.805C143.141 345.852 144.055 348.625 144.055 352.125C144.055 355.641 143.102 358.414 141.195 360.445C139.305 362.461 136.656 363.469 133.25 363.469C130.234 363.469 127.773 362.633 125.867 360.961C123.961 359.289 122.875 356.977 122.609 354.023H126.711C126.977 355.977 127.672 357.453 128.797 358.453C129.922 359.438 131.406 359.93 133.25 359.93C135.266 359.93 136.844 359.242 137.984 357.867C139.141 356.492 139.719 354.594 139.719 352.172C139.719 349.891 139.094 348.062 137.844 346.688C136.609 345.297 134.961 344.602 132.898 344.602C131.008 344.602 129.523 345.016 128.445 345.844L127.297 346.781L123.828 345.891Z" fill="#CD08D1"/>
<path d="M167.094 351.539H171.828V355.078H167.094V363H162.734V355.078H147.195V352.523L162.477 328.875H167.094V351.539ZM152.117 351.539H162.734V334.805L162.219 335.742L152.117 351.539Z" fill="#CD08D1"/>
</g>
<g id="61">
<path d="M489.852 215.852V219.531H489.055C485.68 219.594 482.992 220.594 480.992 222.531C478.992 224.469 477.836 227.195 477.523 230.711C479.32 228.648 481.773 227.617 484.883 227.617C487.852 227.617 490.219 228.664 491.984 230.758C493.766 232.852 494.656 235.555 494.656 238.867C494.656 242.383 493.695 245.195 491.773 247.305C489.867 249.414 487.305 250.469 484.086 250.469C480.82 250.469 478.172 249.219 476.141 246.719C474.109 244.203 473.094 240.969 473.094 237.016V235.352C473.094 229.07 474.43 224.273 477.102 220.961C479.789 217.633 483.781 215.93 489.078 215.852H489.852ZM484.156 231.227C482.672 231.227 481.305 231.672 480.055 232.562C478.805 233.453 477.938 234.57 477.453 235.914V237.508C477.453 240.32 478.086 242.586 479.352 244.305C480.617 246.023 482.195 246.883 484.086 246.883C486.039 246.883 487.57 246.164 488.68 244.727C489.805 243.289 490.367 241.406 490.367 239.078C490.367 236.734 489.797 234.844 488.656 233.406C487.531 231.953 486.031 231.227 484.156 231.227Z" fill="#CD08D1"/>
<path d="M514.039 250H509.68V221.102L500.938 224.312V220.375L513.359 215.711H514.039V250Z" fill="#CD08D1"/>
</g>
<g id="81">
<path d="M495.531 338.781C495.531 340.484 495.078 342 494.172 343.328C493.281 344.656 492.07 345.695 490.539 346.445C492.32 347.211 493.727 348.328 494.758 349.797C495.805 351.266 496.328 352.93 496.328 354.789C496.328 357.742 495.328 360.094 493.328 361.844C491.344 363.594 488.727 364.469 485.477 364.469C482.195 364.469 479.562 363.594 477.578 361.844C475.609 360.078 474.625 357.727 474.625 354.789C474.625 352.945 475.125 351.281 476.125 349.797C477.141 348.312 478.539 347.188 480.32 346.422C478.805 345.672 477.609 344.633 476.734 343.305C475.859 341.977 475.422 340.469 475.422 338.781C475.422 335.906 476.344 333.625 478.188 331.938C480.031 330.25 482.461 329.406 485.477 329.406C488.477 329.406 490.898 330.25 492.742 331.938C494.602 333.625 495.531 335.906 495.531 338.781ZM491.992 354.695C491.992 352.789 491.383 351.234 490.164 350.031C488.961 348.828 487.383 348.227 485.43 348.227C483.477 348.227 481.906 348.82 480.719 350.008C479.547 351.195 478.961 352.758 478.961 354.695C478.961 356.633 479.531 358.156 480.672 359.266C481.828 360.375 483.43 360.93 485.477 360.93C487.508 360.93 489.102 360.375 490.258 359.266C491.414 358.141 491.992 356.617 491.992 354.695ZM485.477 332.969C483.773 332.969 482.391 333.5 481.328 334.562C480.281 335.609 479.758 337.039 479.758 338.852C479.758 340.586 480.273 341.992 481.305 343.07C482.352 344.133 483.742 344.664 485.477 344.664C487.211 344.664 488.594 344.133 489.625 343.07C490.672 341.992 491.195 340.586 491.195 338.852C491.195 337.117 490.656 335.703 489.578 334.609C488.5 333.516 487.133 332.969 485.477 332.969Z" fill="#CD08D1"/>
<path d="M516.039 364H511.68V335.102L502.938 338.312V334.375L515.359 329.711H516.039V364Z" fill="#CD08D1"/>
</g>
<g id="71">
<path d="M837.867 274.312L823.734 306H819.188L833.273 275.438H814.805V271.875H837.867V274.312Z" fill="#CD08D1"/>
<path d="M857.039 306H852.68V277.102L843.938 280.312V276.375L856.359 271.711H857.039V306Z" fill="#CD08D1"/>
</g>
<g id="flecha">
<path id="Rectangle 2" d="M732.2 251.008L747.482 259.133L705.5 338.089L690.219 329.963L732.2 251.008Z" fill="#1043F5"/>
<path id="Rectangle 1" d="M674 263.904L764 214V271.692L719 254.096L674 263.904Z" fill="#1043F5"/>
<path id="Rectangle 3" d="M678.039 333.21L693.666 306.143L710.936 305.565L695.309 332.632L678.039 333.21Z" fill="#1043F5"/>
<path id="Rectangle 4_2" d="M704.089 347.845L719.717 320.778L710.926 305.154L695.299 332.221L704.089 347.845Z" fill="#1043F5"/>
</g>
</g>
<g id="enun01">
<path id="Rectangle 1_2" d="M69 0H881.539L950 78.3561L881.539 159H69V0Z" fill="#02071A"/>
<path id="Rectangle 1 (Stroke)" fill-rule="evenodd" clip-rule="evenodd" d="M879.722 4H73V155H879.688L944.721 78.3937L879.722 4ZM881.539 0H69V159H881.539L950 78.3561L881.539 0Z" fill="#CD08D1"/>
<path id="Ellipse 1_2" d="M119 79C119 106.614 96.6142 129 69 129C41.3858 129 19 106.614 19 79C19 51.3858 41.3858 29 69 29C96.6142 29 119 51.3858 119 79Z" fill="#CD08D1"/>
<path id="Ellipse 1 (Stroke)" fill-rule="evenodd" clip-rule="evenodd" d="M69 128C96.062 128 118 106.062 118 79C118 51.938 96.062 30 69 30C41.938 30 20 51.938 20 79C20 106.062 41.938 128 69 128ZM69 129C96.6142 129 119 106.614 119 79C119 51.3858 96.6142 29 69 29C41.3858 29 19 51.3858 19 79C19 106.614 41.3858 129 69 129Z" fill="black"/>
<g id="Group 16">
<g id="&#194;&#191;Qu&#195;&#169; t&#195;&#169;rmino contin&#195;&#186;a? 8; 16; 17; 34; 35; 70; &#226;&#128;&#166;">
<path d="M156.336 39.0469C156.324 40.2891 156.195 41.2852 155.949 42.0352C155.715 42.7734 155.316 43.4883 154.754 44.1797C154.191 44.8711 153.371 45.7852 152.293 46.9219C151.215 48.0469 150.611 49.1895 150.482 50.3496L150.447 51C150.447 52.2773 150.787 53.25 151.467 53.918C152.146 54.5977 153.125 54.9375 154.402 54.9375C155.574 54.9375 156.523 54.6035 157.25 53.9355C157.988 53.2793 158.357 52.418 158.357 51.3516H161.609C161.586 53.2383 160.912 54.7793 159.588 55.9746C158.275 57.1699 156.547 57.7676 154.402 57.7676C152.105 57.7676 150.33 57.1758 149.076 55.9922C147.822 54.8203 147.195 53.1855 147.195 51.0879C147.195 49.0605 148.133 47.0215 150.008 44.9707L151.924 42.9844C152.697 42.0703 153.084 40.7578 153.084 39.0469H156.336ZM156.477 33.4746C156.477 34.002 156.312 34.4473 155.984 34.8105C155.668 35.1738 155.193 35.3555 154.561 35.3555C153.928 35.3555 153.447 35.1738 153.119 34.8105C152.791 34.4473 152.627 34.002 152.627 33.4746C152.627 32.959 152.791 32.5254 153.119 32.1738C153.447 31.8223 153.928 31.6465 154.561 31.6465C155.193 31.6465 155.668 31.8223 155.984 32.1738C156.312 32.5254 156.477 32.959 156.477 33.4746Z" fill="white"/>
<path d="M185.568 39.0293C185.568 41.502 185.176 43.6348 184.391 45.4277C183.605 47.209 182.504 48.6035 181.086 49.6113L185.656 53.1973L183.354 55.3242L177.957 51.0352C177.113 51.2461 176.223 51.3516 175.285 51.3516C173.27 51.3516 171.482 50.8594 169.924 49.875C168.365 48.8789 167.152 47.4668 166.285 45.6387C165.43 43.7988 164.99 41.6719 164.967 39.2578V37.4121C164.967 34.9512 165.395 32.7773 166.25 30.8906C167.105 29.0039 168.312 27.5625 169.871 26.5664C171.441 25.5586 173.234 25.0547 175.25 25.0547C177.312 25.0547 179.123 25.5527 180.682 26.5488C182.252 27.5449 183.459 28.9805 184.303 30.8555C185.146 32.7188 185.568 34.8984 185.568 37.3945V39.0293ZM182.193 37.377C182.193 34.3652 181.59 32.0449 180.383 30.416C179.188 28.7754 177.477 27.9551 175.25 27.9551C173.129 27.9551 171.453 28.7695 170.223 30.3984C169.004 32.0156 168.377 34.2656 168.342 37.1484V39.0293C168.342 41.959 168.951 44.2676 170.17 45.9551C171.4 47.6426 173.105 48.4863 175.285 48.4863C177.465 48.4863 179.152 47.6953 180.348 46.1133C181.543 44.5195 182.158 42.2402 182.193 39.2754V37.377Z" fill="white"/>
<path d="M202.004 49.1191C200.738 50.6074 198.881 51.3516 196.432 51.3516C194.404 51.3516 192.857 50.7656 191.791 49.5938C190.736 48.4102 190.203 46.6641 190.191 44.3555V31.9805H193.443V44.2676C193.443 47.1504 194.615 48.5918 196.959 48.5918C199.443 48.5918 201.096 47.666 201.916 45.8145V31.9805H205.168V51H202.074L202.004 49.1191Z" fill="white"/>
<path d="M218.018 51.3516C215.439 51.3516 213.342 50.5078 211.725 48.8203C210.107 47.1211 209.299 44.8535 209.299 42.0176V41.4199C209.299 39.5332 209.656 37.8516 210.371 36.375C211.098 34.8867 212.105 33.7266 213.395 32.8945C214.695 32.0508 216.102 31.6289 217.613 31.6289C220.086 31.6289 222.008 32.4434 223.379 34.0723C224.75 35.7012 225.436 38.0332 225.436 41.0684V42.4219H212.551C212.598 44.2969 213.143 45.8145 214.186 46.9746C215.24 48.123 216.576 48.6973 218.193 48.6973C219.342 48.6973 220.314 48.4629 221.111 47.9941C221.908 47.5254 222.605 46.9043 223.203 46.1309L225.189 47.6777C223.596 50.127 221.205 51.3516 218.018 51.3516ZM217.613 34.3008C216.301 34.3008 215.199 34.7812 214.309 35.7422C213.418 36.6914 212.867 38.0273 212.656 39.75H222.184V39.5039C222.09 37.8516 221.645 36.5742 220.848 35.6719C220.051 34.7578 218.973 34.3008 217.613 34.3008ZM219.195 24H223.133L218.422 29.168H215.803L219.195 24Z" fill="white"/>
<path d="M242.557 27.375V31.9805H246.107V34.4941H242.557V46.2891C242.557 47.0508 242.715 47.625 243.031 48.0117C243.348 48.3867 243.887 48.5742 244.648 48.5742C245.023 48.5742 245.539 48.5039 246.195 48.3633V51C245.34 51.2344 244.508 51.3516 243.699 51.3516C242.246 51.3516 241.15 50.9121 240.412 50.0332C239.674 49.1543 239.305 47.9062 239.305 46.2891V34.4941H235.842V31.9805H239.305V27.375H242.557Z" fill="white"/>
<path d="M257.814 51.3516C255.236 51.3516 253.139 50.5078 251.521 48.8203C249.904 47.1211 249.096 44.8535 249.096 42.0176V41.4199C249.096 39.5332 249.453 37.8516 250.168 36.375C250.895 34.8867 251.902 33.7266 253.191 32.8945C254.492 32.0508 255.898 31.6289 257.41 31.6289C259.883 31.6289 261.805 32.4434 263.176 34.0723C264.547 35.7012 265.232 38.0332 265.232 41.0684V42.4219H252.348C252.395 44.2969 252.939 45.8145 253.982 46.9746C255.037 48.123 256.373 48.6973 257.99 48.6973C259.139 48.6973 260.111 48.4629 260.908 47.9941C261.705 47.5254 262.402 46.9043 263 46.1309L264.986 47.6777C263.393 50.127 261.002 51.3516 257.814 51.3516ZM257.41 34.3008C256.098 34.3008 254.996 34.7812 254.105 35.7422C253.215 36.6914 252.664 38.0273 252.453 39.75H261.98V39.5039C261.887 37.8516 261.441 36.5742 260.645 35.6719C259.848 34.7578 258.77 34.3008 257.41 34.3008ZM258.992 24H262.93L258.219 29.168H255.6L258.992 24Z" fill="white"/>
<path d="M278.205 34.8984C277.713 34.8164 277.18 34.7754 276.605 34.7754C274.473 34.7754 273.025 35.6836 272.264 37.5V51H269.012V31.9805H272.176L272.229 34.1777C273.295 32.4785 274.807 31.6289 276.764 31.6289C277.396 31.6289 277.877 31.7109 278.205 31.875V34.8984Z" fill="white"/>
<path d="M284.27 31.9805L284.357 34.0898C285.752 32.4492 287.633 31.6289 290 31.6289C292.66 31.6289 294.471 32.6484 295.432 34.6875C296.064 33.7734 296.885 33.0352 297.893 32.4727C298.912 31.9102 300.113 31.6289 301.496 31.6289C305.668 31.6289 307.789 33.8379 307.859 38.2559V51H304.607V38.4492C304.607 37.0898 304.297 36.0762 303.676 35.4082C303.055 34.7285 302.012 34.3887 300.547 34.3887C299.34 34.3887 298.338 34.752 297.541 35.4785C296.744 36.1934 296.281 37.1602 296.152 38.3789V51H292.883V38.5371C292.883 35.7715 291.529 34.3887 288.822 34.3887C286.689 34.3887 285.23 35.2969 284.445 37.1133V51H281.193V31.9805H284.27Z" fill="white"/>
<path d="M316.314 51H313.062V31.9805H316.314V51ZM312.799 26.9355C312.799 26.4082 312.957 25.9629 313.273 25.5996C313.602 25.2363 314.082 25.0547 314.715 25.0547C315.348 25.0547 315.828 25.2363 316.156 25.5996C316.484 25.9629 316.648 26.4082 316.648 26.9355C316.648 27.4629 316.484 27.9023 316.156 28.2539C315.828 28.6055 315.348 28.7812 314.715 28.7812C314.082 28.7812 313.602 28.6055 313.273 28.2539C312.957 27.9023 312.799 27.4629 312.799 26.9355Z" fill="white"/>
<path d="M324.611 31.9805L324.717 34.3711C326.17 32.543 328.068 31.6289 330.412 31.6289C334.432 31.6289 336.459 33.8965 336.494 38.4316V51H333.242V38.4141C333.23 37.043 332.914 36.0293 332.293 35.373C331.684 34.7168 330.729 34.3887 329.428 34.3887C328.373 34.3887 327.447 34.6699 326.65 35.2324C325.854 35.7949 325.232 36.5332 324.787 37.4473V51H321.535V31.9805H324.611Z" fill="white"/>
<path d="M340.537 41.3145C340.537 39.4512 340.9 37.7754 341.627 36.2871C342.365 34.7988 343.385 33.6504 344.686 32.8418C345.998 32.0332 347.492 31.6289 349.168 31.6289C351.758 31.6289 353.85 32.5254 355.443 34.3184C357.049 36.1113 357.852 38.4961 357.852 41.4727V41.7012C357.852 43.5527 357.494 45.2168 356.779 46.6934C356.076 48.1582 355.062 49.3008 353.738 50.1211C352.426 50.9414 350.914 51.3516 349.203 51.3516C346.625 51.3516 344.533 50.4551 342.928 48.6621C341.334 46.8691 340.537 44.4961 340.537 41.543V41.3145ZM343.807 41.7012C343.807 43.8105 344.293 45.5039 345.266 46.7812C346.25 48.0586 347.562 48.6973 349.203 48.6973C350.855 48.6973 352.168 48.0527 353.141 46.7637C354.113 45.4629 354.6 43.6465 354.6 41.3145C354.6 39.2285 354.102 37.541 353.105 36.252C352.121 34.9512 350.809 34.3008 349.168 34.3008C347.562 34.3008 346.268 34.9395 345.283 36.2168C344.299 37.4941 343.807 39.3223 343.807 41.7012Z" fill="white"/>
<path d="M378.488 48.6973C379.648 48.6973 380.662 48.3457 381.529 47.6426C382.396 46.9395 382.877 46.0605 382.971 45.0059H386.047C385.988 46.0957 385.613 47.1328 384.922 48.1172C384.23 49.1016 383.305 49.8867 382.145 50.4727C380.996 51.0586 379.777 51.3516 378.488 51.3516C375.898 51.3516 373.836 50.4902 372.301 48.7676C370.777 47.0332 370.016 44.666 370.016 41.666V41.1211C370.016 39.2695 370.355 37.623 371.035 36.1816C371.715 34.7402 372.688 33.6211 373.953 32.8242C375.23 32.0273 376.736 31.6289 378.471 31.6289C380.604 31.6289 382.373 32.2676 383.779 33.5449C385.197 34.8223 385.953 36.4805 386.047 38.5195H382.971C382.877 37.2891 382.408 36.2812 381.564 35.4961C380.732 34.6992 379.701 34.3008 378.471 34.3008C376.818 34.3008 375.535 34.8984 374.621 36.0938C373.719 37.2773 373.268 38.9941 373.268 41.2441V41.8594C373.268 44.0508 373.719 45.7383 374.621 46.9219C375.523 48.1055 376.812 48.6973 378.488 48.6973Z" fill="white"/>
<path d="M388.842 41.3145C388.842 39.4512 389.205 37.7754 389.932 36.2871C390.67 34.7988 391.689 33.6504 392.99 32.8418C394.303 32.0332 395.797 31.6289 397.473 31.6289C400.062 31.6289 402.154 32.5254 403.748 34.3184C405.354 36.1113 406.156 38.4961 406.156 41.4727V41.7012C406.156 43.5527 405.799 45.2168 405.084 46.6934C404.381 48.1582 403.367 49.3008 402.043 50.1211C400.73 50.9414 399.219 51.3516 397.508 51.3516C394.93 51.3516 392.838 50.4551 391.232 48.6621C389.639 46.8691 388.842 44.4961 388.842 41.543V41.3145ZM392.111 41.7012C392.111 43.8105 392.598 45.5039 393.57 46.7812C394.555 48.0586 395.867 48.6973 397.508 48.6973C399.16 48.6973 400.473 48.0527 401.445 46.7637C402.418 45.4629 402.904 43.6465 402.904 41.3145C402.904 39.2285 402.406 37.541 401.41 36.252C400.426 34.9512 399.113 34.3008 397.473 34.3008C395.867 34.3008 394.572 34.9395 393.588 36.2168C392.604 37.4941 392.111 39.3223 392.111 41.7012Z" fill="white"/>
<path d="M413.311 31.9805L413.416 34.3711C414.869 32.543 416.768 31.6289 419.111 31.6289C423.131 31.6289 425.158 33.8965 425.193 38.4316V51H421.941V38.4141C421.93 37.043 421.613 36.0293 420.992 35.373C420.383 34.7168 419.428 34.3887 418.127 34.3887C417.072 34.3887 416.146 34.6699 415.35 35.2324C414.553 35.7949 413.932 36.5332 413.486 37.4473V51H410.234V31.9805H413.311Z" fill="white"/>
<path d="M434.51 27.375V31.9805H438.061V34.4941H434.51V46.2891C434.51 47.0508 434.668 47.625 434.984 48.0117C435.301 48.3867 435.84 48.5742 436.602 48.5742C436.977 48.5742 437.492 48.5039 438.148 48.3633V51C437.293 51.2344 436.461 51.3516 435.652 51.3516C434.199 51.3516 433.104 50.9121 432.365 50.0332C431.627 49.1543 431.258 47.9062 431.258 46.2891V34.4941H427.795V31.9805H431.258V27.375H434.51Z" fill="white"/>
<path d="M445.408 51H442.156V31.9805H445.408V51ZM441.893 26.9355C441.893 26.4082 442.051 25.9629 442.367 25.5996C442.695 25.2363 443.176 25.0547 443.809 25.0547C444.441 25.0547 444.922 25.2363 445.25 25.5996C445.578 25.9629 445.742 26.4082 445.742 26.9355C445.742 27.4629 445.578 27.9023 445.25 28.2539C444.922 28.6055 444.441 28.7812 443.809 28.7812C443.176 28.7812 442.695 28.6055 442.367 28.2539C442.051 27.9023 441.893 27.4629 441.893 26.9355Z" fill="white"/>
<path d="M453.705 31.9805L453.811 34.3711C455.264 32.543 457.162 31.6289 459.506 31.6289C463.525 31.6289 465.553 33.8965 465.588 38.4316V51H462.336V38.4141C462.324 37.043 462.008 36.0293 461.387 35.373C460.777 34.7168 459.822 34.3887 458.521 34.3887C457.467 34.3887 456.541 34.6699 455.744 35.2324C454.947 35.7949 454.326 36.5332 453.881 37.4473V51H450.629V31.9805H453.705Z" fill="white"/>
<path d="M482.234 49.1191C480.969 50.6074 479.111 51.3516 476.662 51.3516C474.635 51.3516 473.088 50.7656 472.021 49.5938C470.967 48.4102 470.434 46.6641 470.422 44.3555V31.9805H473.674V44.2676C473.674 47.1504 474.846 48.5918 477.189 48.5918C479.674 48.5918 481.326 47.666 482.146 45.8145V31.9805H485.398V51H482.305L482.234 49.1191ZM479.598 24H483.535L478.824 29.168H476.205L479.598 24Z" fill="white"/>
<path d="M502.098 51C501.91 50.625 501.758 49.957 501.641 48.9961C500.129 50.5664 498.324 51.3516 496.227 51.3516C494.352 51.3516 492.811 50.8242 491.604 49.7695C490.408 48.7031 489.811 47.3555 489.811 45.7266C489.811 43.7461 490.561 42.2109 492.061 41.1211C493.572 40.0195 495.693 39.4688 498.424 39.4688H501.588V37.9746C501.588 36.8379 501.248 35.9355 500.568 35.2676C499.889 34.5879 498.887 34.248 497.562 34.248C496.402 34.248 495.43 34.541 494.645 35.127C493.859 35.7129 493.467 36.4219 493.467 37.2539H490.197C490.197 36.3047 490.531 35.3906 491.199 34.5117C491.879 33.6211 492.793 32.918 493.941 32.4023C495.102 31.8867 496.373 31.6289 497.756 31.6289C499.947 31.6289 501.664 32.1797 502.906 33.2812C504.148 34.3711 504.793 35.877 504.84 37.7988V46.5527C504.84 48.2988 505.062 49.6875 505.508 50.7188V51H502.098ZM496.701 48.5215C497.721 48.5215 498.688 48.2578 499.602 47.7305C500.516 47.2031 501.178 46.5176 501.588 45.6738V41.7715H499.039C495.055 41.7715 493.062 42.9375 493.062 45.2695C493.062 46.2891 493.402 47.0859 494.082 47.6602C494.762 48.2344 495.635 48.5215 496.701 48.5215Z" fill="white"/>
<path d="M513.752 43.793C513.775 42.3984 513.934 41.2969 514.227 40.4883C514.52 39.6797 515.117 38.7832 516.02 37.7988L518.322 35.4258C519.307 34.3125 519.799 33.1172 519.799 31.8398C519.799 30.6094 519.477 29.6484 518.832 28.957C518.188 28.2539 517.25 27.9023 516.02 27.9023C514.824 27.9023 513.863 28.2188 513.137 28.8516C512.41 29.4844 512.047 30.334 512.047 31.4004H508.795C508.818 29.502 509.492 27.9727 510.816 26.8125C512.152 25.6406 513.887 25.0547 516.02 25.0547C518.234 25.0547 519.957 25.6523 521.188 26.8477C522.43 28.0312 523.051 29.6602 523.051 31.7344C523.051 33.7852 522.102 35.8066 520.203 37.7988L518.287 39.6973C517.432 40.6465 517.004 42.0117 517.004 43.793H513.752ZM513.611 49.3652C513.611 48.8379 513.77 48.3984 514.086 48.0469C514.414 47.6836 514.895 47.502 515.527 47.502C516.16 47.502 516.641 47.6836 516.969 48.0469C517.297 48.3984 517.461 48.8379 517.461 49.3652C517.461 49.8926 517.297 50.332 516.969 50.6836C516.641 51.0234 516.16 51.1934 515.527 51.1934C514.895 51.1934 514.414 51.0234 514.086 50.6836C513.77 50.332 513.611 49.8926 513.611 49.3652Z" fill="white"/>
<path d="M270.805 112.086C270.805 113.363 270.465 114.5 269.785 115.496C269.117 116.492 268.209 117.271 267.061 117.834C268.396 118.408 269.451 119.246 270.225 120.348C271.01 121.449 271.402 122.697 271.402 124.092C271.402 126.307 270.652 128.07 269.152 129.383C267.664 130.695 265.701 131.352 263.264 131.352C260.803 131.352 258.828 130.695 257.34 129.383C255.863 128.059 255.125 126.295 255.125 124.092C255.125 122.709 255.5 121.461 256.25 120.348C257.012 119.234 258.061 118.391 259.396 117.816C258.26 117.254 257.363 116.475 256.707 115.479C256.051 114.482 255.723 113.352 255.723 112.086C255.723 109.93 256.414 108.219 257.797 106.953C259.18 105.688 261.002 105.055 263.264 105.055C265.514 105.055 267.33 105.688 268.713 106.953C270.107 108.219 270.805 109.93 270.805 112.086ZM268.15 124.021C268.15 122.592 267.693 121.426 266.779 120.523C265.877 119.621 264.693 119.17 263.229 119.17C261.764 119.17 260.586 119.615 259.695 120.506C258.816 121.396 258.377 122.568 258.377 124.021C258.377 125.475 258.805 126.617 259.66 127.449C260.527 128.281 261.729 128.697 263.264 128.697C264.787 128.697 265.982 128.281 266.85 127.449C267.717 126.605 268.15 125.463 268.15 124.021ZM263.264 107.727C261.986 107.727 260.949 108.125 260.152 108.922C259.367 109.707 258.975 110.779 258.975 112.139C258.975 113.439 259.361 114.494 260.135 115.303C260.92 116.1 261.963 116.498 263.264 116.498C264.564 116.498 265.602 116.1 266.375 115.303C267.16 114.494 267.553 113.439 267.553 112.139C267.553 110.838 267.148 109.777 266.34 108.957C265.531 108.137 264.506 107.727 263.264 107.727Z" fill="white"/>
<path d="M275.322 113.773C275.322 113.211 275.486 112.742 275.814 112.367C276.154 111.992 276.658 111.805 277.326 111.805C277.994 111.805 278.498 111.992 278.838 112.367C279.189 112.742 279.365 113.211 279.365 113.773C279.365 114.312 279.189 114.764 278.838 115.127C278.498 115.49 277.994 115.672 277.326 115.672C276.658 115.672 276.154 115.49 275.814 115.127C275.486 114.764 275.322 114.312 275.322 113.773ZM275.938 136.098L274.092 134.832C275.193 133.297 275.768 131.715 275.814 130.086V127.15H278.996V129.699C278.996 130.883 278.703 132.066 278.117 133.25C277.543 134.434 276.816 135.383 275.938 136.098Z" fill="white"/>
<path d="M302.744 131H299.475V109.326L292.918 111.734V108.781L302.234 105.283H302.744V131Z" fill="white"/>
<path d="M325.033 105.389V108.148H324.436C321.904 108.195 319.889 108.945 318.389 110.398C316.889 111.852 316.021 113.896 315.787 116.533C317.135 114.986 318.975 114.213 321.307 114.213C323.533 114.213 325.309 114.998 326.633 116.568C327.969 118.139 328.637 120.166 328.637 122.65C328.637 125.287 327.916 127.396 326.475 128.979C325.045 130.561 323.123 131.352 320.709 131.352C318.26 131.352 316.273 130.414 314.75 128.539C313.227 126.652 312.465 124.227 312.465 121.262V120.014C312.465 115.303 313.467 111.705 315.471 109.221C317.486 106.725 320.48 105.447 324.453 105.389H325.033ZM320.762 116.92C319.648 116.92 318.623 117.254 317.686 117.922C316.748 118.59 316.098 119.428 315.734 120.436V121.631C315.734 123.74 316.209 125.439 317.158 126.729C318.107 128.018 319.291 128.662 320.709 128.662C322.174 128.662 323.322 128.123 324.154 127.045C324.998 125.967 325.42 124.555 325.42 122.809C325.42 121.051 324.992 119.633 324.137 118.555C323.293 117.465 322.168 116.92 320.762 116.92Z" fill="white"/>
<path d="M332.311 113.773C332.311 113.211 332.475 112.742 332.803 112.367C333.143 111.992 333.646 111.805 334.314 111.805C334.982 111.805 335.486 111.992 335.826 112.367C336.178 112.742 336.354 113.211 336.354 113.773C336.354 114.312 336.178 114.764 335.826 115.127C335.486 115.49 334.982 115.672 334.314 115.672C333.646 115.672 333.143 115.49 332.803 115.127C332.475 114.764 332.311 114.312 332.311 113.773ZM332.926 136.098L331.08 134.832C332.182 133.297 332.756 131.715 332.803 130.086V127.15H335.984V129.699C335.984 130.883 335.691 132.066 335.105 133.25C334.531 134.434 333.805 135.383 332.926 136.098Z" fill="white"/>
<path d="M359.732 131H356.463V109.326L349.906 111.734V108.781L359.223 105.283H359.732V131Z" fill="white"/>
<path d="M385.783 107.234L375.184 131H371.773L382.338 108.078H368.486V105.406H385.783V107.234Z" fill="white"/>
<path d="M389.299 113.773C389.299 113.211 389.463 112.742 389.791 112.367C390.131 111.992 390.635 111.805 391.303 111.805C391.971 111.805 392.475 111.992 392.814 112.367C393.166 112.742 393.342 113.211 393.342 113.773C393.342 114.312 393.166 114.764 392.814 115.127C392.475 115.49 391.971 115.672 391.303 115.672C390.635 115.672 390.131 115.49 389.791 115.127C389.463 114.764 389.299 114.312 389.299 113.773ZM389.914 136.098L388.068 134.832C389.17 133.297 389.744 131.715 389.791 130.086V127.15H392.973V129.699C392.973 130.883 392.68 132.066 392.094 133.25C391.52 134.434 390.793 135.383 389.914 136.098Z" fill="white"/>
<path d="M410.762 116.621H413.205C414.74 116.598 415.947 116.193 416.826 115.408C417.705 114.623 418.145 113.562 418.145 112.227C418.145 109.227 416.65 107.727 413.662 107.727C412.256 107.727 411.131 108.131 410.287 108.939C409.455 109.736 409.039 110.797 409.039 112.121H405.787C405.787 110.094 406.525 108.412 408.002 107.076C409.49 105.729 411.377 105.055 413.662 105.055C416.076 105.055 417.969 105.693 419.34 106.971C420.711 108.248 421.396 110.023 421.396 112.297C421.396 113.41 421.033 114.488 420.307 115.531C419.592 116.574 418.613 117.354 417.371 117.869C418.777 118.314 419.861 119.053 420.623 120.084C421.396 121.115 421.783 122.375 421.783 123.863C421.783 126.16 421.033 127.982 419.533 129.33C418.033 130.678 416.082 131.352 413.68 131.352C411.277 131.352 409.32 130.701 407.809 129.4C406.309 128.1 405.559 126.383 405.559 124.25H408.828C408.828 125.598 409.268 126.676 410.146 127.484C411.025 128.293 412.203 128.697 413.68 128.697C415.25 128.697 416.451 128.287 417.283 127.467C418.115 126.646 418.531 125.469 418.531 123.934C418.531 122.445 418.074 121.303 417.16 120.506C416.246 119.709 414.928 119.299 413.205 119.275H410.762V116.621Z" fill="white"/>
<path d="M439.977 122.404H443.527V125.059H439.977V131H436.707V125.059H425.053V123.143L436.514 105.406H439.977V122.404ZM428.744 122.404H436.707V109.854L436.32 110.557L428.744 122.404Z" fill="white"/>
<path d="M446.287 113.773C446.287 113.211 446.451 112.742 446.779 112.367C447.119 111.992 447.623 111.805 448.291 111.805C448.959 111.805 449.463 111.992 449.803 112.367C450.154 112.742 450.33 113.211 450.33 113.773C450.33 114.312 450.154 114.764 449.803 115.127C449.463 115.49 448.959 115.672 448.291 115.672C447.623 115.672 447.119 115.49 446.779 115.127C446.451 114.764 446.287 114.312 446.287 113.773ZM446.902 136.098L445.057 134.832C446.158 133.297 446.732 131.715 446.779 130.086V127.15H449.961V129.699C449.961 130.883 449.668 132.066 449.082 133.25C448.508 134.434 447.781 135.383 446.902 136.098Z" fill="white"/>
<path d="M467.75 116.621H470.193C471.729 116.598 472.936 116.193 473.814 115.408C474.693 114.623 475.133 113.562 475.133 112.227C475.133 109.227 473.639 107.727 470.65 107.727C469.244 107.727 468.119 108.131 467.275 108.939C466.443 109.736 466.027 110.797 466.027 112.121H462.775C462.775 110.094 463.514 108.412 464.99 107.076C466.479 105.729 468.365 105.055 470.65 105.055C473.064 105.055 474.957 105.693 476.328 106.971C477.699 108.248 478.385 110.023 478.385 112.297C478.385 113.41 478.021 114.488 477.295 115.531C476.58 116.574 475.602 117.354 474.359 117.869C475.766 118.314 476.85 119.053 477.611 120.084C478.385 121.115 478.771 122.375 478.771 123.863C478.771 126.16 478.021 127.982 476.521 129.33C475.021 130.678 473.07 131.352 470.668 131.352C468.266 131.352 466.309 130.701 464.797 129.4C463.297 128.1 462.547 126.383 462.547 124.25H465.816C465.816 125.598 466.256 126.676 467.135 127.484C468.014 128.293 469.191 128.697 470.668 128.697C472.238 128.697 473.439 128.287 474.271 127.467C475.104 126.646 475.52 125.469 475.52 123.934C475.52 122.445 475.062 121.303 474.148 120.506C473.234 119.709 471.916 119.299 470.193 119.275H467.75V116.621Z" fill="white"/>
<path d="M484.73 118.168L486.031 105.406H499.145V108.412H488.791L488.018 115.391C489.271 114.652 490.695 114.283 492.289 114.283C494.621 114.283 496.473 115.057 497.844 116.604C499.215 118.139 499.9 120.219 499.9 122.844C499.9 125.48 499.186 127.561 497.756 129.084C496.338 130.596 494.352 131.352 491.797 131.352C489.535 131.352 487.689 130.725 486.26 129.471C484.83 128.217 484.016 126.482 483.816 124.268H486.893C487.092 125.732 487.613 126.84 488.457 127.59C489.301 128.328 490.414 128.697 491.797 128.697C493.309 128.697 494.492 128.182 495.348 127.15C496.215 126.119 496.648 124.695 496.648 122.879C496.648 121.168 496.18 119.797 495.242 118.766C494.316 117.723 493.08 117.201 491.533 117.201C490.115 117.201 489.002 117.512 488.193 118.133L487.332 118.836L484.73 118.168Z" fill="white"/>
<path d="M503.275 113.773C503.275 113.211 503.439 112.742 503.768 112.367C504.107 111.992 504.611 111.805 505.279 111.805C505.947 111.805 506.451 111.992 506.791 112.367C507.143 112.742 507.318 113.211 507.318 113.773C507.318 114.312 507.143 114.764 506.791 115.127C506.451 115.49 505.947 115.672 505.279 115.672C504.611 115.672 504.107 115.49 503.768 115.127C503.439 114.764 503.275 114.312 503.275 113.773ZM503.891 136.098L502.045 134.832C503.146 133.297 503.721 131.715 503.768 130.086V127.15H506.949V129.699C506.949 130.883 506.656 132.066 506.07 133.25C505.496 134.434 504.77 135.383 503.891 136.098Z" fill="white"/>
<path d="M536.533 107.234L525.934 131H522.523L533.088 108.078H519.236V105.406H536.533V107.234Z" fill="white"/>
<path d="M556.273 120.084C556.273 123.893 555.623 126.723 554.322 128.574C553.021 130.426 550.988 131.352 548.223 131.352C545.492 131.352 543.471 130.449 542.158 128.645C540.846 126.828 540.166 124.121 540.119 120.523V116.182C540.119 112.42 540.77 109.625 542.07 107.797C543.371 105.969 545.41 105.055 548.188 105.055C550.941 105.055 552.969 105.939 554.27 107.709C555.57 109.467 556.238 112.186 556.273 115.865V120.084ZM553.021 115.637C553.021 112.883 552.635 110.879 551.861 109.625C551.088 108.359 549.863 107.727 548.188 107.727C546.523 107.727 545.311 108.354 544.549 109.607C543.787 110.861 543.395 112.789 543.371 115.391V120.594C543.371 123.359 543.77 125.404 544.566 126.729C545.375 128.041 546.594 128.697 548.223 128.697C549.828 128.697 551.018 128.076 551.791 126.834C552.576 125.592 552.986 123.635 553.021 120.963V115.637Z" fill="white"/>
<path d="M560.264 113.773C560.264 113.211 560.428 112.742 560.756 112.367C561.096 111.992 561.6 111.805 562.268 111.805C562.936 111.805 563.439 111.992 563.779 112.367C564.131 112.742 564.307 113.211 564.307 113.773C564.307 114.312 564.131 114.764 563.779 115.127C563.439 115.49 562.936 115.672 562.268 115.672C561.6 115.672 561.096 115.49 560.756 115.127C560.428 114.764 560.264 114.312 560.264 113.773ZM560.879 136.098L559.033 134.832C560.135 133.297 560.709 131.715 560.756 130.086V127.15H563.938V129.699C563.938 130.883 563.645 132.066 563.059 133.25C562.484 134.434 561.758 135.383 560.879 136.098Z" fill="white"/>
<path d="M577.473 129.295C577.473 128.732 577.637 128.264 577.965 127.889C578.305 127.514 578.809 127.326 579.477 127.326C580.145 127.326 580.648 127.514 580.988 127.889C581.34 128.264 581.516 128.732 581.516 129.295C581.516 129.834 581.34 130.285 580.988 130.648C580.648 131.012 580.145 131.193 579.477 131.193C578.809 131.193 578.305 131.012 577.965 130.648C577.637 130.285 577.473 129.834 577.473 129.295ZM585.154 129.295C585.154 128.732 585.318 128.264 585.646 127.889C585.986 127.514 586.49 127.326 587.158 127.326C587.826 127.326 588.33 127.514 588.67 127.889C589.021 128.264 589.197 128.732 589.197 129.295C589.197 129.834 589.021 130.285 588.67 130.648C588.33 131.012 587.826 131.193 587.158 131.193C586.49 131.193 585.986 131.012 585.646 130.648C585.318 130.285 585.154 129.834 585.154 129.295ZM592.449 129.295C592.449 128.732 592.613 128.264 592.941 127.889C593.281 127.514 593.785 127.326 594.453 127.326C595.121 127.326 595.625 127.514 595.965 127.889C596.316 128.264 596.492 128.732 596.492 129.295C596.492 129.834 596.316 130.285 595.965 130.648C595.625 131.012 595.121 131.193 594.453 131.193C593.785 131.193 593.281 131.012 592.941 130.648C592.613 130.285 592.449 129.834 592.449 129.295Z" fill="white"/>
</g>
</g>
</g>
</g>
</svg>
