<svg viewBox="0 0 857 98" fill="none" xmlns="http://www.w3.org/2000/svg">
<g id="0115212">
<g id="8;\;16;\;17;\;34;\;35;\;70;\;\ldots">
<g id="Group">
<g id="Group_2">
<path id="Vector" d="M1.08495 10.4478C1.08495 10.4478 1.08495 9.41646 1.08495 7.35371C1.08495 5.29095 1.80826 3.63004 3.25486 2.37096C4.70147 1.11187 6.36238 0.468939 8.23761 0.44215C10.1396 0.44215 11.8273 1.00472 13.3007 2.12985C14.7741 3.25499 15.5108 4.71499 15.5108 6.50985C15.5108 7.31352 15.3635 8.06361 15.0688 8.76013C14.7741 9.45664 14.4259 10.0192 14.024 10.4478C13.6222 10.8765 13.207 11.2515 12.7783 11.573C12.3497 11.8944 12.0015 12.1355 11.7336 12.2963C11.4657 12.457 11.3183 12.5642 11.2916 12.6177L11.8541 12.9794C12.2292 13.2473 12.6042 13.5152 12.9793 13.7831C13.3543 14.051 13.5686 14.1983 13.6222 14.2251C15.6314 15.8056 16.636 17.8014 16.636 20.2124C16.636 22.3287 15.8591 24.1638 14.3053 25.7176C12.7516 27.2713 10.7424 28.0616 8.2778 28.0884C5.86679 28.0884 3.8844 27.4053 2.33064 26.039C0.776881 24.6728 0 22.9851 0 20.9759C0 18.0827 1.72789 15.6717 5.18367 13.7429L4.46037 13.2205C3.8978 12.8722 3.53615 12.6043 3.37541 12.4168C1.84844 11.1042 1.08495 9.41646 1.08495 7.35371V10.4478ZM9.76458 11.6935L10.0057 11.5328C10.1664 11.4256 10.287 11.3453 10.3673 11.2917C10.4477 11.2381 10.5816 11.1443 10.7692 11.0104C10.9567 10.8765 11.1174 10.7425 11.2514 10.6086C11.3853 10.4746 11.5327 10.3139 11.6934 10.1264C11.8541 9.93884 12.0015 9.76472 12.1354 9.60398C12.2694 9.44325 12.4033 9.22894 12.5372 8.96105C12.6712 8.69316 12.7917 8.46545 12.8989 8.27793C13.0061 8.0904 13.073 7.82251 13.0998 7.47426C13.1266 7.126 13.1534 6.83132 13.1802 6.59022C13.1802 5.4383 12.7917 4.4605 12.0149 3.65683C11.238 2.85316 10.3405 2.34417 9.32257 2.12985C9.13504 2.10307 8.69302 2.08967 7.99651 2.08967C6.89816 2.08967 5.86679 2.43793 4.90238 3.13444C3.93798 3.83096 3.44238 4.7016 3.4156 5.74637C3.4156 6.36251 3.58972 6.92508 3.93798 7.43407C4.28624 7.94306 4.63449 8.3315 4.98275 8.59939C5.33101 8.86728 6.00073 9.29591 6.99192 9.88527C7.17945 10.0192 7.32679 10.113 7.43394 10.1665L9.76458 11.6935ZM8.31798 26.3605C9.87174 26.3605 11.2112 25.9051 12.3363 24.9943C13.4615 24.0834 14.024 22.9851 14.024 21.6992C14.024 21.2438 13.9571 20.8152 13.8231 20.4133C13.6892 20.0115 13.5284 19.6766 13.3409 19.4087C13.1534 19.1409 12.8587 18.8462 12.4569 18.5247C12.055 18.2032 11.747 17.9621 11.5327 17.8014C11.3183 17.6407 10.9299 17.3862 10.3673 17.0379C9.80477 16.6897 9.44312 16.462 9.28238 16.3548C8.90734 16.1137 8.5055 15.8592 8.07688 15.5913C7.64825 15.3234 7.3 15.0957 7.03211 14.9082L6.71064 14.7073C6.54991 14.7073 6.16147 14.935 5.54532 15.3904C4.92917 15.8458 4.28624 16.5825 3.61651 17.6005C2.94679 18.6185 2.59853 19.7168 2.57174 20.8955C2.57174 22.4761 3.14771 23.7754 4.29963 24.7933C5.45156 25.8113 6.79101 26.3337 8.31798 26.3605Z" fill="white"/>
</g>
<g id="Group_3">
<path id="Vector_2" d="M21.498 12.3365C21.498 11.6936 21.7258 11.131 22.1812 10.6488C22.6366 10.1666 23.2125 9.92551 23.9091 9.92551C24.552 9.92551 25.1146 10.1398 25.5968 10.5684C26.079 10.9971 26.3335 11.573 26.3602 12.2963C26.3602 12.9661 26.1325 13.542 25.6771 14.0242C25.2217 14.5064 24.6458 14.7475 23.9492 14.7475C23.2527 14.7475 22.6768 14.5198 22.2213 14.0644C21.7659 13.609 21.5248 13.033 21.498 12.3365ZM21.498 24.7934C21.498 24.1237 21.7124 23.5477 22.141 23.0655C22.5696 22.5833 23.1456 22.3422 23.8689 22.3422C25.6102 22.3422 26.4808 23.8558 26.4808 26.8829C26.4808 28.276 26.2263 29.6422 25.7173 30.9817C25.2083 32.3211 24.6859 33.3257 24.1502 33.9954C23.6144 34.6651 23.2661 35 23.1054 35C23.025 35 22.8643 34.8928 22.6232 34.6785C22.3821 34.4642 22.2347 34.3035 22.1812 34.1963C22.1544 34.116 22.3151 33.8615 22.6634 33.4328C23.0116 33.0042 23.4135 32.3613 23.8689 31.504C24.3243 30.6468 24.6324 29.7226 24.7931 28.7314C24.8199 28.5706 24.8467 28.3563 24.8735 28.0884C24.9002 27.8206 24.9404 27.5795 24.994 27.3651C25.0476 27.1508 25.0476 27.0437 24.994 27.0437C24.994 27.0169 24.9404 27.0169 24.8333 27.0437C24.7261 27.0705 24.4716 27.124 24.0698 27.2044C23.2125 27.2044 22.5696 26.9633 22.141 26.4811C21.7124 25.9989 21.498 25.4363 21.498 24.7934Z" fill="white"/>
</g>
<g id="Group_4">
<path id="Vector_3" d="M55.9514 3.97817L55.429 4.17909C55.054 4.31304 54.5182 4.44698 53.8217 4.58093C53.1252 4.71487 52.3483 4.80863 51.491 4.86221H50.7275V3.01377H51.491C52.7501 2.96019 53.9154 2.75928 54.987 2.41102C56.0585 2.06276 56.8086 1.74129 57.2373 1.44662C57.6659 1.15194 58.0409 0.857258 58.3624 0.562578C58.416 0.482212 58.5767 0.442028 58.8446 0.442028C59.0857 0.442028 59.3134 0.522394 59.5277 0.683128V12.698L59.5679 24.753C59.7554 24.9406 59.9162 25.0611 60.0501 25.1147C60.184 25.1683 60.5055 25.2218 61.0145 25.2754C61.5235 25.329 62.354 25.3558 63.5059 25.3558H64.5507V27.2042H64.1086C63.5461 27.1239 61.4163 27.0837 57.7195 27.0837C54.0762 27.0837 51.9732 27.1239 51.4107 27.2042H50.9285V25.3558H51.9732C52.5626 25.3558 53.0716 25.3558 53.5002 25.3558C53.9288 25.3558 54.2637 25.3424 54.5048 25.3156C54.7459 25.2888 54.9602 25.2486 55.1477 25.195C55.3352 25.1415 55.4424 25.1147 55.4692 25.1147C55.496 25.1147 55.5763 25.0477 55.7103 24.9138C55.8442 24.7798 55.9246 24.7262 55.9514 24.753V3.97817Z" fill="white"/>
<path id="Vector_4" d="M69.1719 14.6269C69.1719 10.2603 70.2569 6.80453 72.4268 4.25958C74.5967 1.71463 77.0077 0.44215 79.6598 0.44215C81.5083 0.44215 82.8343 0.924351 83.638 1.88875C84.4417 2.85316 84.8435 3.92472 84.8435 5.10343C84.8435 5.77316 84.656 6.30894 84.2809 6.71077C83.9059 7.11261 83.3835 7.31352 82.7138 7.31352C82.0976 7.31352 81.5886 7.126 81.1868 6.75095C80.785 6.37591 80.5841 5.85352 80.5841 5.1838C80.5841 4.00508 81.2136 3.29518 82.4727 3.05408C81.8833 2.46472 81.0529 2.12985 79.9813 2.04949C78.0793 2.04949 76.5121 2.85316 75.2798 4.4605C74.0208 6.22857 73.3912 8.93426 73.3912 12.5776L73.4314 12.7383C73.5653 12.5776 73.6725 12.4034 73.7529 12.2159C74.8512 10.6086 76.2844 9.8049 78.0525 9.8049H78.2132C79.4455 9.8049 80.5305 10.0594 81.4681 10.5684C82.111 10.9434 82.754 11.4792 83.3969 12.1757C84.0398 12.8722 84.5622 13.6357 84.9641 14.4662C85.5266 15.7788 85.8079 17.2121 85.8079 18.7658V19.4891C85.8079 20.1053 85.7409 20.6812 85.607 21.217C85.3123 22.7976 84.4551 24.3379 83.0352 25.8381C81.6154 27.3383 79.8206 28.0884 77.6507 28.0884C76.9006 28.0884 76.1773 27.9812 75.4808 27.7669C74.7842 27.5526 74.0341 27.1508 73.2305 26.5614C72.4268 25.972 71.7437 25.1818 71.1811 24.1906C70.6186 23.1994 70.1363 21.9001 69.7345 20.2928C69.3327 18.6854 69.1452 16.7968 69.1719 14.6269ZM77.8114 11.2515C77.0077 11.2515 76.3112 11.4792 75.7219 11.9346C75.1325 12.39 74.6771 12.9928 74.3556 13.7429C74.0341 14.493 73.8064 15.2565 73.6725 16.0333C73.5385 16.8102 73.4582 17.6407 73.4314 18.5247C73.4314 20.7482 73.5921 22.3421 73.9136 23.3065C74.2351 24.2709 74.7441 25.0478 75.4406 25.6372C76.0835 26.1194 76.7934 26.3605 77.5703 26.3605C78.9365 26.3605 79.9813 25.8515 80.7046 24.8335C81.0529 24.3513 81.294 23.7486 81.4279 23.0253C81.5618 22.302 81.6288 20.8955 81.6288 18.806C81.6288 16.6629 81.5618 15.2297 81.4279 14.5064C81.294 13.7831 81.0529 13.1803 80.7046 12.6981C79.9813 11.7337 79.0169 11.2515 77.8114 11.2515Z" fill="white"/>
</g>
<g id="Group_5">
<path id="Vector_5" d="M90.71 12.3365C90.71 11.6936 90.9377 11.131 91.3931 10.6488C91.8485 10.1666 92.4245 9.92551 93.121 9.92551C93.7639 9.92551 94.3265 10.1398 94.8087 10.5684C95.2909 10.9971 95.5454 11.573 95.5722 12.2963C95.5722 12.9661 95.3445 13.542 94.889 14.0242C94.4336 14.5064 93.8577 14.7475 93.1612 14.7475C92.4646 14.7475 91.8887 14.5198 91.4333 14.0644C90.9779 13.609 90.7367 13.033 90.71 12.3365ZM90.71 24.7934C90.71 24.1237 90.9243 23.5477 91.3529 23.0655C91.7815 22.5833 92.3575 22.3422 93.0808 22.3422C94.8221 22.3422 95.6927 23.8558 95.6927 26.8829C95.6927 28.276 95.4382 29.6422 94.9292 30.9817C94.4202 32.3211 93.8979 33.3257 93.3621 33.9954C92.8263 34.6651 92.478 35 92.3173 35C92.2369 35 92.0762 34.8928 91.8351 34.6785C91.594 34.4642 91.4467 34.3035 91.3931 34.1963C91.3663 34.116 91.527 33.8615 91.8753 33.4328C92.2235 33.0042 92.6254 32.3613 93.0808 31.504C93.5362 30.6468 93.8443 29.7226 94.005 28.7314C94.0318 28.5706 94.0586 28.3563 94.0854 28.0884C94.1122 27.8206 94.1523 27.5795 94.2059 27.3651C94.2595 27.1508 94.2595 27.0437 94.2059 27.0437C94.2059 27.0169 94.1523 27.0169 94.0452 27.0437C93.938 27.0705 93.6835 27.124 93.2817 27.2044C92.4245 27.2044 91.7815 26.9633 91.3529 26.4811C90.9243 25.9989 90.71 25.4363 90.71 24.7934Z" fill="white"/>
</g>
<g id="Group_6">
<path id="Vector_6" d="M125.168 3.97817L124.645 4.17909C124.27 4.31304 123.734 4.44698 123.038 4.58093C122.341 4.71487 121.565 4.80863 120.707 4.86221H119.944V3.01377H120.707C121.966 2.96019 123.132 2.75928 124.203 2.41102C125.275 2.06276 126.025 1.74129 126.454 1.44662C126.882 1.15194 127.257 0.857258 127.579 0.562578C127.632 0.482212 127.793 0.442028 128.061 0.442028C128.302 0.442028 128.53 0.522394 128.744 0.683128V12.698L128.784 24.753C128.972 24.9406 129.132 25.0611 129.266 25.1147C129.4 25.1683 129.722 25.2218 130.231 25.2754C130.74 25.329 131.57 25.3558 132.722 25.3558H133.767V27.2042H133.325C132.762 27.1239 130.633 27.0837 126.936 27.0837C123.292 27.0837 121.19 27.1239 120.627 27.2042H120.145V25.3558H121.19C121.779 25.3558 122.288 25.3558 122.717 25.3558C123.145 25.3558 123.48 25.3424 123.721 25.3156C123.962 25.2888 124.177 25.2486 124.364 25.195C124.552 25.1415 124.659 25.1147 124.685 25.1147C124.712 25.1147 124.793 25.0477 124.927 24.9138C125.061 24.7798 125.141 24.7262 125.168 24.753V3.97817Z" fill="white"/>
<path id="Vector_7" d="M138.91 8.80031C138.937 8.74673 139.165 7.28673 139.594 4.42031L140.236 0.120682C140.236 0.0671043 140.504 0.0403137 141.04 0.0403137H141.844V0.201048C141.844 0.468939 142.045 0.696644 142.447 0.884167C142.848 1.07169 143.545 1.19224 144.536 1.24582C145.527 1.2994 147.791 1.32619 151.327 1.32619H156.189V2.89334L153.457 6.6304C153.216 6.95187 152.814 7.48765 152.251 8.23774C151.689 8.98783 151.327 9.48343 151.166 9.72453C151.006 9.96563 150.724 10.3943 150.323 11.0104C149.921 11.6265 149.653 12.1088 149.519 12.457C149.385 12.8053 149.197 13.3009 148.956 13.9438C148.715 14.5867 148.541 15.2029 148.434 15.7922C148.327 16.3816 148.22 17.1049 148.112 17.9621C148.005 18.8194 147.925 19.7302 147.871 20.6946C147.818 21.659 147.778 22.7574 147.751 23.9897C147.751 24.3647 147.751 24.7398 147.751 25.1148C147.751 25.4898 147.737 25.8113 147.711 26.0792V26.4409C147.603 26.8963 147.349 27.2847 146.947 27.6062C146.545 27.9276 146.09 28.0884 145.581 28.0884C145.286 28.0884 145.005 28.0482 144.737 27.9678C144.469 27.8875 144.188 27.633 143.893 27.2043C143.598 26.7757 143.451 26.2399 143.451 25.597C143.451 21.3643 144.75 16.971 147.349 12.4168C147.885 11.5596 149.01 9.93884 150.724 7.55462L152.573 5.02307H148.836C144.174 5.02307 141.723 5.10343 141.482 5.26417C141.321 5.34453 141.174 5.666 141.04 6.22857C140.906 6.79114 140.772 7.3671 140.638 7.95646L140.518 8.80031V8.92086H138.91V8.80031Z" fill="white"/>
</g>
<g id="Group_7">
<path id="Vector_8" d="M159.926 12.3365C159.926 11.6936 160.154 11.131 160.609 10.6488C161.065 10.1666 161.641 9.92551 162.337 9.92551C162.98 9.92551 163.543 10.1398 164.025 10.5684C164.507 10.9971 164.761 11.573 164.788 12.2963C164.788 12.9661 164.561 13.542 164.105 14.0242C163.65 14.5064 163.074 14.7475 162.377 14.7475C161.681 14.7475 161.105 14.5198 160.649 14.0644C160.194 13.609 159.953 13.033 159.926 12.3365ZM159.926 24.7934C159.926 24.1237 160.14 23.5477 160.569 23.0655C160.998 22.5833 161.574 22.3422 162.297 22.3422C164.038 22.3422 164.909 23.8558 164.909 26.8829C164.909 28.276 164.654 29.6422 164.145 30.9817C163.636 32.3211 163.114 33.3257 162.578 33.9954C162.042 34.6651 161.694 35 161.533 35C161.453 35 161.292 34.8928 161.051 34.6785C160.81 34.4642 160.663 34.3035 160.609 34.1963C160.582 34.116 160.743 33.8615 161.091 33.4328C161.44 33.0042 161.841 32.3613 162.297 31.504C162.752 30.6468 163.06 29.7226 163.221 28.7314C163.248 28.5706 163.275 28.3563 163.301 28.0884C163.328 27.8206 163.368 27.5795 163.422 27.3651C163.476 27.1508 163.476 27.0437 163.422 27.0437C163.422 27.0169 163.368 27.0169 163.261 27.0437C163.154 27.0705 162.9 27.124 162.498 27.2044C161.641 27.2044 160.998 26.9633 160.569 26.4811C160.14 25.9989 159.926 25.4363 159.926 24.7934Z" fill="white"/>
</g>
<g id="Group_8">
<path id="Vector_9" d="M190.924 8.59939C190.201 8.59939 189.638 8.37169 189.236 7.91627C188.834 7.46086 188.62 6.8715 188.593 6.1482C188.593 4.67481 189.236 3.36215 190.522 2.21022C191.808 1.05829 193.362 0.48233 195.183 0.48233C196.121 0.48233 196.71 0.495724 196.951 0.522514C198.934 0.843981 200.447 1.55389 201.492 2.65224C202.537 3.75059 203.073 4.9427 203.099 6.22857C203.099 7.6216 202.644 8.97444 201.733 10.2871C200.822 11.5998 199.563 12.5508 197.956 13.1401L197.835 13.2205C197.835 13.2473 197.956 13.2875 198.197 13.341C198.438 13.3946 198.827 13.5152 199.362 13.7027C199.898 13.8902 200.407 14.1715 200.889 14.5465C203.086 15.9664 204.184 17.8416 204.184 20.1722C204.184 22.2886 203.354 24.137 201.693 25.7176C200.032 27.2981 197.929 28.0884 195.384 28.0884C193.241 28.0884 191.393 27.5124 189.839 26.3605C188.285 25.2086 187.508 23.7486 187.508 21.9805C187.508 21.2304 187.749 20.6276 188.232 20.1722C188.714 19.7168 189.317 19.4757 190.04 19.4489C190.79 19.4489 191.406 19.69 191.888 20.1722C192.371 20.6544 192.612 21.2572 192.612 21.9805C192.612 22.2752 192.571 22.5431 192.491 22.7842C192.411 23.0253 192.317 23.2396 192.21 23.4271C192.103 23.6146 191.955 23.7754 191.768 23.9093C191.58 24.0432 191.419 24.1504 191.286 24.2308C191.152 24.3111 191.018 24.3647 190.884 24.3915C190.75 24.4183 190.643 24.4585 190.562 24.512L190.402 24.5522C191.768 25.7577 193.429 26.3605 195.384 26.3605C196.858 26.3605 197.969 25.6506 198.719 24.2308C199.175 23.3467 199.403 21.9939 199.403 20.1722V19.3686C199.403 16.8236 198.545 15.1225 196.831 14.2653C196.429 14.1045 195.612 14.0108 194.38 13.984L192.692 13.9438L192.571 13.8634C192.518 13.7831 192.491 13.5687 192.491 13.2205C192.491 12.7383 192.598 12.4972 192.813 12.4972C193.563 12.4972 194.339 12.4302 195.143 12.2963C196.054 12.1623 196.884 11.5998 197.635 10.6086C198.385 9.61737 198.76 8.11719 198.76 6.10802V5.78655C198.76 4.25958 198.291 3.20141 197.353 2.61205C196.764 2.23701 196.134 2.04949 195.465 2.04949C194.607 2.04949 193.817 2.19683 193.094 2.4915C192.371 2.78618 191.862 3.09426 191.567 3.41572C191.272 3.73719 191.125 3.89793 191.125 3.89793H191.245C191.326 3.92472 191.433 3.9515 191.567 3.97829C191.701 4.00508 191.835 4.07205 191.969 4.17921C192.103 4.28637 192.263 4.38013 192.451 4.46049C192.638 4.54086 192.772 4.6882 192.853 4.90251C192.933 5.11683 193.04 5.31774 193.174 5.50526C193.308 5.69279 193.348 5.96068 193.295 6.30894C193.295 6.89829 193.107 7.42068 192.732 7.87609C192.357 8.3315 191.754 8.5726 190.924 8.59939Z" fill="white"/>
<path id="Vector_10" d="M224.477 27.2042C223.995 27.1239 222.267 27.0837 219.293 27.0837C216.186 27.0837 214.391 27.1239 213.909 27.2042H213.547V25.3558H214.793C215.329 25.3558 215.69 25.3558 215.878 25.3558C216.065 25.3558 216.293 25.329 216.561 25.2754C216.829 25.2218 217.016 25.1549 217.123 25.0745C217.231 24.9941 217.324 24.887 217.405 24.753C217.431 24.6995 217.445 23.9762 217.445 22.5831V20.574H207.037V18.7255L213.105 9.44313C217.204 3.22808 219.28 0.107168 219.333 0.0803795C219.387 0.0268021 219.668 1.14441e-05 220.177 1.14441e-05H220.901L221.142 0.241114V18.7255H224.839V20.574H221.142V22.6233C221.142 23.7217 221.142 24.3646 221.142 24.5521C221.142 24.7396 221.222 24.9004 221.383 25.0343C221.597 25.2218 222.361 25.329 223.673 25.3558H224.839V27.2042H224.477ZM217.686 18.7255V5.30423L208.886 18.6853L213.266 18.7255H217.686Z" fill="white"/>
</g>
<g id="Group_9">
<path id="Vector_11" d="M229.139 12.3365C229.139 11.6936 229.366 11.131 229.822 10.6488C230.277 10.1666 230.853 9.92551 231.55 9.92551C232.193 9.92551 232.755 10.1398 233.237 10.5684C233.72 10.9971 233.974 11.573 234.001 12.2963C234.001 12.9661 233.773 13.542 233.318 14.0242C232.862 14.5064 232.286 14.7475 231.59 14.7475C230.893 14.7475 230.317 14.5198 229.862 14.0644C229.407 13.609 229.165 13.033 229.139 12.3365ZM229.139 24.7934C229.139 24.1237 229.353 23.5477 229.782 23.0655C230.21 22.5833 230.786 22.3422 231.509 22.3422C233.251 22.3422 234.121 23.8558 234.121 26.8829C234.121 28.276 233.867 29.6422 233.358 30.9817C232.849 32.3211 232.327 33.3257 231.791 33.9954C231.255 34.6651 230.907 35 230.746 35C230.666 35 230.505 34.8928 230.264 34.6785C230.023 34.4642 229.875 34.3035 229.822 34.1963C229.795 34.116 229.956 33.8615 230.304 33.4328C230.652 33.0042 231.054 32.3613 231.509 31.504C231.965 30.6468 232.273 29.7226 232.434 28.7314C232.461 28.5706 232.487 28.3563 232.514 28.0884C232.541 27.8206 232.581 27.5795 232.635 27.3651C232.688 27.1508 232.688 27.0437 232.635 27.0437C232.635 27.0169 232.581 27.0169 232.474 27.0437C232.367 27.0705 232.112 27.124 231.71 27.2044C230.853 27.2044 230.21 26.9633 229.782 26.4811C229.353 25.9989 229.139 25.4363 229.139 24.7934Z" fill="white"/>
</g>
<g id="Group_10">
<path id="Vector_12" d="M260.14 8.59939C259.417 8.59939 258.854 8.37169 258.452 7.91627C258.05 7.46086 257.836 6.8715 257.809 6.1482C257.809 4.67481 258.452 3.36215 259.738 2.21022C261.024 1.05829 262.578 0.48233 264.399 0.48233C265.337 0.48233 265.926 0.495724 266.167 0.522514C268.15 0.843981 269.663 1.55389 270.708 2.65224C271.753 3.75059 272.289 4.9427 272.316 6.22857C272.316 7.6216 271.86 8.97444 270.949 10.2871C270.038 11.5998 268.779 12.5508 267.172 13.1401L267.052 13.2205C267.052 13.2473 267.172 13.2875 267.413 13.341C267.654 13.3946 268.043 13.5152 268.578 13.7027C269.114 13.8902 269.623 14.1715 270.105 14.5465C272.302 15.9664 273.401 17.8416 273.401 20.1722C273.401 22.2886 272.57 24.137 270.909 25.7176C269.248 27.2981 267.145 28.0884 264.6 28.0884C262.457 28.0884 260.609 27.5124 259.055 26.3605C257.501 25.2086 256.724 23.7486 256.724 21.9805C256.724 21.2304 256.965 20.6276 257.448 20.1722C257.93 19.7168 258.533 19.4757 259.256 19.4489C260.006 19.4489 260.622 19.69 261.104 20.1722C261.587 20.6544 261.828 21.2572 261.828 21.9805C261.828 22.2752 261.787 22.5431 261.707 22.7842C261.627 23.0253 261.533 23.2396 261.426 23.4271C261.319 23.6146 261.171 23.7754 260.984 23.9093C260.796 24.0432 260.636 24.1504 260.502 24.2308C260.368 24.3111 260.234 24.3647 260.1 24.3915C259.966 24.4183 259.859 24.4585 259.778 24.512L259.618 24.5522C260.984 25.7577 262.645 26.3605 264.6 26.3605C266.074 26.3605 267.185 25.6506 267.936 24.2308C268.391 23.3467 268.619 21.9939 268.619 20.1722V19.3686C268.619 16.8236 267.761 15.1225 266.047 14.2653C265.645 14.1045 264.828 14.0108 263.596 13.984L261.908 13.9438L261.787 13.8634C261.734 13.7831 261.707 13.5687 261.707 13.2205C261.707 12.7383 261.814 12.4972 262.029 12.4972C262.779 12.4972 263.556 12.4302 264.359 12.2963C265.27 12.1623 266.101 11.5998 266.851 10.6086C267.601 9.61737 267.976 8.11719 267.976 6.10802V5.78655C267.976 4.25958 267.507 3.20141 266.569 2.61205C265.98 2.23701 265.35 2.04949 264.681 2.04949C263.823 2.04949 263.033 2.19683 262.31 2.4915C261.587 2.78618 261.078 3.09426 260.783 3.41572C260.488 3.73719 260.341 3.89793 260.341 3.89793H260.461C260.542 3.92472 260.649 3.9515 260.783 3.97829C260.917 4.00508 261.051 4.07205 261.185 4.17921C261.319 4.28637 261.479 4.38013 261.667 4.46049C261.854 4.54086 261.988 4.6882 262.069 4.90251C262.149 5.11683 262.256 5.31774 262.39 5.50526C262.524 5.69279 262.564 5.96068 262.511 6.30894C262.511 6.89829 262.323 7.42068 261.948 7.87609C261.573 8.3315 260.97 8.5726 260.14 8.59939Z" fill="white"/>
<path id="Vector_13" d="M281.719 20.8955C281.719 21.5385 281.504 22.0743 281.076 22.5029C280.647 22.9315 280.125 23.1458 279.509 23.1458H279.227C280.46 25.2621 282.094 26.3203 284.13 26.3203C286.005 26.3203 287.371 25.5166 288.228 23.9093C288.737 23.0253 288.992 21.3108 288.992 18.7658C288.992 16.0065 288.63 14.1447 287.907 13.1803C287.21 12.2963 286.433 11.8543 285.576 11.8543H285.335C283.246 11.8543 281.665 12.7651 280.593 14.5867C280.486 14.7743 280.393 14.8814 280.312 14.9082C280.232 14.935 280.031 14.9618 279.709 14.9886C279.254 14.9886 279 14.9082 278.946 14.7475C278.892 14.6403 278.866 12.2963 278.866 7.71536V2.53169C278.866 1.19224 278.933 0.522516 279.067 0.522516C279.12 0.468939 279.174 0.44215 279.227 0.44215C279.254 0.44215 279.535 0.549305 280.071 0.763617C280.607 0.977928 281.344 1.19224 282.281 1.40655C283.219 1.62086 284.223 1.72802 285.295 1.72802C287.197 1.72802 289.019 1.35297 290.76 0.602882C290.974 0.495728 291.148 0.44215 291.282 0.44215C291.497 0.44215 291.604 0.68325 291.604 1.16545V1.68784C289.407 4.28637 286.661 5.58563 283.366 5.58563C282.536 5.58563 281.786 5.50527 281.116 5.34453L280.714 5.26417V12.1757C281.223 11.8007 281.625 11.506 281.92 11.2917C282.214 11.0774 282.696 10.8631 283.366 10.6488C284.036 10.4344 284.719 10.3273 285.415 10.3273C287.585 10.3273 289.42 11.1979 290.921 12.9392C292.421 14.6805 293.171 16.7432 293.171 19.1275C293.171 21.5921 292.314 23.695 290.599 25.4363C288.885 27.1776 286.795 28.0616 284.331 28.0884C282.161 28.0884 280.419 27.3651 279.107 25.9185C277.794 24.4719 277.138 22.8377 277.138 21.0161C277.138 20.3732 277.285 19.8642 277.58 19.4891C277.874 19.1141 278.182 18.873 278.504 18.7658C278.825 18.6587 279.133 18.6051 279.428 18.6051C280.098 18.6051 280.647 18.8328 281.076 19.2882C281.504 19.7436 281.719 20.2794 281.719 20.8955Z" fill="white"/>
</g>
<g id="Group_11">
<path id="Vector_14" d="M298.354 12.3365C298.354 11.6936 298.582 11.131 299.037 10.6488C299.493 10.1666 300.068 9.92551 300.765 9.92551C301.408 9.92551 301.971 10.1398 302.453 10.5684C302.935 10.9971 303.189 11.573 303.216 12.2963C303.216 12.9661 302.988 13.542 302.533 14.0242C302.078 14.5064 301.502 14.7475 300.805 14.7475C300.109 14.7475 299.533 14.5198 299.077 14.0644C298.622 13.609 298.381 13.033 298.354 12.3365ZM298.354 24.7934C298.354 24.1237 298.568 23.5477 298.997 23.0655C299.426 22.5833 300.002 22.3422 300.725 22.3422C302.466 22.3422 303.337 23.8558 303.337 26.8829C303.337 28.276 303.082 29.6422 302.573 30.9817C302.064 32.3211 301.542 33.3257 301.006 33.9954C300.47 34.6651 300.122 35 299.961 35C299.881 35 299.72 34.8928 299.479 34.6785C299.238 34.4642 299.091 34.3035 299.037 34.1963C299.01 34.116 299.171 33.8615 299.519 33.4328C299.868 33.0042 300.269 32.3613 300.725 31.504C301.18 30.6468 301.488 29.7226 301.649 28.7314C301.676 28.5706 301.703 28.3563 301.729 28.0884C301.756 27.8206 301.796 27.5795 301.85 27.3651C301.904 27.1508 301.904 27.0437 301.85 27.0437C301.85 27.0169 301.796 27.0169 301.689 27.0437C301.582 27.0705 301.328 27.124 300.926 27.2044C300.068 27.2044 299.426 26.9633 298.997 26.4811C298.568 25.9989 298.354 25.4363 298.354 24.7934Z" fill="white"/>
</g>
<g id="Group_12">
<path id="Vector_15" d="M326.459 8.80031C326.486 8.74673 326.713 7.28673 327.142 4.42031L327.785 0.120682C327.785 0.0671043 328.053 0.0403137 328.588 0.0403137H329.392V0.201048C329.392 0.468939 329.593 0.696644 329.995 0.884167C330.397 1.07169 331.093 1.19224 332.084 1.24582C333.076 1.2994 335.339 1.32619 338.875 1.32619H343.738V2.89334L341.005 6.6304C340.764 6.95187 340.362 7.48765 339.8 8.23774C339.237 8.98783 338.875 9.48343 338.715 9.72453C338.554 9.96563 338.273 10.3943 337.871 11.0104C337.469 11.6265 337.201 12.1088 337.067 12.457C336.933 12.8053 336.746 13.3009 336.505 13.9438C336.264 14.5867 336.089 15.2029 335.982 15.7922C335.875 16.3816 335.768 17.1049 335.661 17.9621C335.554 18.8194 335.473 19.7302 335.42 20.6946C335.366 21.659 335.326 22.7574 335.299 23.9897C335.299 24.3647 335.299 24.7398 335.299 25.1148C335.299 25.4898 335.286 25.8113 335.259 26.0792V26.4409C335.152 26.8963 334.897 27.2847 334.495 27.6062C334.094 27.9276 333.638 28.0884 333.129 28.0884C332.835 28.0884 332.553 28.0482 332.285 27.9678C332.017 27.8875 331.736 27.633 331.441 27.2043C331.147 26.7757 330.999 26.2399 330.999 25.597C330.999 21.3643 332.299 16.971 334.897 12.4168C335.433 11.5596 336.558 9.93884 338.273 7.55462L340.121 5.02307H336.384C331.723 5.02307 329.272 5.10343 329.03 5.26417C328.87 5.34453 328.722 5.666 328.588 6.22857C328.455 6.79114 328.321 7.3671 328.187 7.95646L328.066 8.80031V8.92086H326.459V8.80031Z" fill="white"/>
<path id="Vector_16" d="M348.198 3.69701C349.698 1.5271 351.747 0.44215 354.346 0.44215C355.632 0.44215 356.917 0.790405 358.203 1.48692C359.489 2.18343 360.534 3.41573 361.338 5.1838C362.329 7.40728 362.824 10.4612 362.824 14.3456C362.824 18.4979 362.249 21.6724 361.097 23.8691C360.561 24.9943 359.824 25.8917 358.886 26.5614C357.949 27.2311 357.132 27.6464 356.435 27.8071C355.739 27.9678 355.056 28.0616 354.386 28.0884C353.689 28.0884 352.993 28.008 352.296 27.8473C351.6 27.6865 350.783 27.2579 349.845 26.5614C348.908 25.8649 348.171 24.9675 347.635 23.8691C346.483 21.6724 345.907 18.4979 345.907 14.3456C345.907 9.68435 346.671 6.13481 348.198 3.69701ZM357.239 3.21481C356.435 2.35756 355.484 1.92894 354.386 1.92894C353.261 1.92894 352.296 2.35756 351.493 3.21481C350.823 3.91132 350.381 4.87573 350.167 6.10802C349.952 7.34031 349.845 9.91205 349.845 13.8232C349.845 18.0559 349.952 20.842 350.167 22.1814C350.381 23.5209 350.863 24.579 351.613 25.3559C352.363 26.1596 353.288 26.5614 354.386 26.5614C355.457 26.5614 356.368 26.1596 357.118 25.3559C357.895 24.5522 358.377 23.4271 358.565 21.9805C358.753 20.5339 358.86 17.8148 358.886 13.8232C358.886 9.93884 358.779 7.3805 358.565 6.1482C358.351 4.91591 357.909 3.93811 357.239 3.21481Z" fill="white"/>
</g>
<g id="Group_13">
<path id="Vector_17" d="M367.566 12.3365C367.566 11.6936 367.794 11.131 368.25 10.6488C368.705 10.1666 369.281 9.92551 369.977 9.92551C370.62 9.92551 371.183 10.1398 371.665 10.5684C372.147 10.9971 372.402 11.573 372.429 12.2963C372.429 12.9661 372.201 13.542 371.745 14.0242C371.29 14.5064 370.714 14.7475 370.018 14.7475C369.321 14.7475 368.745 14.5198 368.29 14.0644C367.834 13.609 367.593 13.033 367.566 12.3365ZM367.566 24.7934C367.566 24.1237 367.781 23.5477 368.209 23.0655C368.638 22.5833 369.214 22.3422 369.937 22.3422C371.679 22.3422 372.549 23.8558 372.549 26.8829C372.549 28.276 372.295 29.6422 371.786 30.9817C371.277 32.3211 370.754 33.3257 370.219 33.9954C369.683 34.6651 369.334 35 369.174 35C369.093 35 368.933 34.8928 368.692 34.6785C368.45 34.4642 368.303 34.3035 368.25 34.1963C368.223 34.116 368.383 33.8615 368.732 33.4328C369.08 33.0042 369.482 32.3613 369.937 31.504C370.393 30.6468 370.701 29.7226 370.861 28.7314C370.888 28.5706 370.915 28.3563 370.942 28.0884C370.969 27.8206 371.009 27.5795 371.062 27.3651C371.116 27.1508 371.116 27.0437 371.062 27.0437C371.062 27.0169 371.009 27.0169 370.902 27.0437C370.794 27.0705 370.54 27.124 370.138 27.2044C369.281 27.2044 368.638 26.9633 368.209 26.4811C367.781 25.9989 367.566 25.4363 367.566 24.7934Z" fill="white"/>
</g>
<g id="Group_14">
<path id="Vector_18" d="M403.293 24.7935C403.293 24.1505 403.521 23.588 403.977 23.1058C404.432 22.6236 405.008 22.3825 405.704 22.3825C406.347 22.3825 406.91 22.5968 407.392 23.0254C407.874 23.454 408.129 24.03 408.156 24.7533C408.156 25.423 407.928 25.999 407.473 26.4812C407.017 26.9634 406.441 27.2045 405.745 27.2045C405.048 27.2045 404.472 26.9768 404.017 26.5213C403.561 26.0659 403.32 25.49 403.293 24.7935ZM421.255 24.7935C421.255 24.1505 421.483 23.588 421.939 23.1058C422.394 22.6236 422.97 22.3825 423.666 22.3825C424.309 22.3825 424.872 22.5968 425.354 23.0254C425.836 23.454 426.091 24.03 426.118 24.7533C426.118 25.423 425.89 25.999 425.435 26.4812C424.979 26.9634 424.403 27.2045 423.707 27.2045C423.01 27.2045 422.434 26.9768 421.979 26.5213C421.523 26.0659 421.282 25.49 421.255 24.7935ZM439.217 24.7935C439.217 24.1505 439.445 23.588 439.901 23.1058C440.356 22.6236 440.932 22.3825 441.628 22.3825C442.271 22.3825 442.834 22.5968 443.316 23.0254C443.798 23.454 444.053 24.03 444.08 24.7533C444.08 25.423 443.852 25.999 443.397 26.4812C442.941 26.9634 442.365 27.2045 441.669 27.2045C440.972 27.2045 440.396 26.9768 439.941 26.5213C439.485 26.0659 439.244 25.49 439.217 24.7935Z" fill="white"/>
</g>
</g>
</g>
<g id="Group 312">
<path id="Arrow 10 (Stroke)" fill-rule="evenodd" clip-rule="evenodd" d="M55.2326 43.5011C56.0604 43.5337 56.705 44.2312 56.6724 45.059L56.1415 58.5485C56.1089 59.3763 55.4114 60.021 54.5836 59.9884C53.7558 59.9558 53.1112 59.2583 53.1438 58.4305L53.5357 48.4743C46.4088 54.6046 40.1358 57.9679 33.3489 58.0159C25.7733 58.0695 17.9762 53.984 8.07153 46.1781L9.92849 43.8219C19.7588 51.5693 26.8496 55.0618 33.3276 55.0159C39.019 54.9757 44.5643 52.1978 51.4007 46.3526L41.625 45.9679C40.7973 45.9353 40.1526 45.2378 40.1852 44.41C40.2178 43.5822 40.9153 42.9376 41.743 42.9702L55.2326 43.5011Z" fill="#F3C72C"/>
<path id="Arrow 11 (Stroke)" fill-rule="evenodd" clip-rule="evenodd" d="M117.233 43.5011C118.06 43.5337 118.705 44.2312 118.672 45.059L118.141 58.5485C118.109 59.3763 117.411 60.021 116.584 59.9884C115.756 59.9558 115.111 59.2583 115.144 58.4305L115.536 48.4743C108.409 54.6046 102.136 57.9679 95.3489 58.0159C87.7733 58.0695 79.9762 53.984 70.0715 46.1781L71.9285 43.8219C81.7588 51.5693 88.8496 55.0618 95.3276 55.0159C101.019 54.9757 106.564 52.1978 113.401 46.3526L103.625 45.9679C102.797 45.9353 102.153 45.2378 102.185 44.41C102.218 43.5822 102.915 42.9376 103.743 42.9702L117.233 43.5011Z" fill="#F3C72C"/>
<path id="Arrow 12 (Stroke)" fill-rule="evenodd" clip-rule="evenodd" d="M189.233 43.5011C190.06 43.5337 190.705 44.2312 190.672 45.059L190.141 58.5485C190.109 59.3763 189.411 60.021 188.584 59.9884C187.756 59.9558 187.111 59.2583 187.144 58.4305L187.536 48.4743C180.409 54.6046 174.136 57.9679 167.349 58.0159C159.773 58.0695 151.976 53.984 142.072 46.1781L143.928 43.8219C153.759 51.5693 160.85 55.0618 167.328 55.0159C173.019 54.9757 178.564 52.1978 185.401 46.3526L175.625 45.9679C174.797 45.9353 174.153 45.2378 174.185 44.41C174.218 43.5822 174.915 42.9376 175.743 42.9702L189.233 43.5011Z" fill="#F3C72C"/>
<path id="Arrow 13 (Stroke)" fill-rule="evenodd" clip-rule="evenodd" d="M260.233 43.5011C261.06 43.5337 261.705 44.2312 261.672 45.059L261.141 58.5485C261.109 59.3763 260.411 60.021 259.584 59.9884C258.756 59.9558 258.111 59.2583 258.144 58.4305L258.536 48.4743C251.409 54.6046 245.136 57.9679 238.349 58.0159C230.773 58.0695 222.976 53.984 213.072 46.1781L214.928 43.8219C224.759 51.5693 231.85 55.0618 238.328 55.0159C244.019 54.9757 249.564 52.1978 256.401 46.3526L246.625 45.9679C245.797 45.9353 245.153 45.2378 245.185 44.41C245.218 43.5822 245.915 42.9376 246.743 42.9702L260.233 43.5011Z" fill="#F3C72C"/>
<path id="Arrow 14 (Stroke)" fill-rule="evenodd" clip-rule="evenodd" d="M333.233 43.5011C334.06 43.5337 334.705 44.2312 334.672 45.059L334.141 58.5485C334.109 59.3763 333.411 60.021 332.584 59.9884C331.756 59.9558 331.111 59.2583 331.144 58.4305L331.536 48.4743C324.409 54.6046 318.136 57.9679 311.349 58.0159C303.773 58.0695 295.976 53.984 286.072 46.1781L287.928 43.8219C297.759 51.5693 304.85 55.0618 311.328 55.0159C317.019 54.9757 322.564 52.1978 329.401 46.3526L319.625 45.9679C318.797 45.9353 318.153 45.2378 318.185 44.41C318.218 43.5822 318.915 42.9376 319.743 42.9702L333.233 43.5011Z" fill="#F3C72C"/>
<path id="Arrow 15 (Stroke)" fill-rule="evenodd" clip-rule="evenodd" d="M406.233 43.5011C407.06 43.5337 407.705 44.2312 407.672 45.059L407.141 58.5485C407.109 59.3763 406.411 60.021 405.584 59.9884C404.756 59.9558 404.111 59.2583 404.144 58.4305L404.536 48.4743C397.409 54.6046 391.136 57.9679 384.349 58.0159C376.773 58.0695 368.976 53.984 359.072 46.1781L360.928 43.8219C370.759 51.5693 377.85 55.0618 384.328 55.0159C390.019 54.9757 395.564 52.1978 402.401 46.3526L392.625 45.9679C391.797 45.9353 391.153 45.2378 391.185 44.41C391.218 43.5822 391.915 42.9376 392.743 42.9702L406.233 43.5011Z" fill="#F3C72C"/>
</g>
<g id="\times2\;+1">
<g id="Group_15">
<g id="Group_16">
<path id="Vector_19" d="M22.5426 96.7737C22.5426 97.3131 22.2594 97.5829 21.693 97.5829C21.5581 97.5829 21.2614 97.3671 20.8028 96.9355C20.3443 96.5039 19.0765 95.2496 16.9995 93.1726L12.7915 88.9647L8.54315 93.2131C5.68391 96.0184 4.21383 97.448 4.13291 97.502C4.02501 97.5559 3.9306 97.5829 3.84968 97.5829C3.63389 97.5829 3.44507 97.502 3.28323 97.3401C3.12138 97.1783 3.02697 96.9895 3 96.7737C3 96.5848 3.18882 96.2881 3.56645 95.8835C3.94409 95.4789 5.21186 94.1977 7.36978 92.0397L11.5777 87.8318L7.36978 83.6239C5.18489 81.439 3.91711 80.1577 3.56645 79.7801C3.21579 79.4024 3.02697 79.1057 3 78.8899C3 78.6472 3.08092 78.4584 3.24277 78.3235C3.40461 78.1886 3.60691 78.1212 3.84968 78.1212C3.98455 78.1212 4.07896 78.1347 4.13291 78.1616C4.21383 78.2156 5.68391 79.6452 8.54315 82.4505L12.7915 86.6989L16.9995 82.491C19.0765 80.414 20.3443 79.1597 20.8028 78.7281C21.2614 78.2965 21.5581 78.0807 21.693 78.0807C22.2594 78.0807 22.5426 78.3505 22.5426 78.8899C22.5426 79.0788 22.4078 79.3215 22.138 79.6182C21.8683 79.9149 20.5466 81.2367 18.1729 83.5834L13.9649 87.8318L18.1729 92.0802C20.4387 94.346 21.7334 95.6542 22.0571 96.0049C22.3808 96.3556 22.5426 96.6118 22.5426 96.7737Z" fill="white"/>
</g>
<g id="Group_17">
<path id="Vector_20" d="M32.9409 80.5893C32.2126 80.5893 31.6327 80.3465 31.2011 79.861C30.7695 79.3755 30.5537 78.782 30.5537 78.0807C30.5537 76.1656 31.2685 74.5067 32.6981 73.104C34.1278 71.7014 35.908 71 38.039 71C40.4936 71 42.5436 71.7553 44.189 73.2659C45.8345 74.7764 46.6707 76.732 46.6976 79.1327C46.6976 80.2926 46.4279 81.3985 45.8884 82.4505C45.3489 83.5025 44.7016 84.4196 43.9463 85.2018C43.191 85.9841 42.1121 86.9821 40.7094 88.1959C39.7383 89.0321 38.3896 90.2729 36.6633 91.9183L34.2761 94.1842L37.3511 94.2246C41.5861 94.2246 43.8384 94.1572 44.1081 94.0223C44.2969 93.9684 44.6206 92.768 45.0792 90.4213V90.2999H46.6976V90.4213C46.6707 90.5022 46.4953 91.7295 46.1716 94.1032C45.8479 96.4769 45.6456 97.7177 45.5647 97.8256V97.947H30.5537V97.1783V96.6927C30.5537 96.5039 30.6346 96.3016 30.7965 96.0858C30.9583 95.87 31.3629 95.398 32.0103 94.6697C32.7925 93.8065 33.4669 93.0512 34.0334 92.4039C34.2761 92.1341 34.7347 91.6351 35.409 90.9068C36.0834 90.1785 36.5419 89.6795 36.7847 89.4098C37.0275 89.14 37.4186 88.695 37.9581 88.0746C38.4975 87.4542 38.8752 86.9956 39.091 86.6989C39.3068 86.4022 39.617 85.9976 40.0216 85.4851C40.4262 84.9725 40.7094 84.541 40.8713 84.1903C41.0331 83.8396 41.2354 83.4485 41.4782 83.0169C41.7209 82.5854 41.8963 82.1538 42.0042 81.7222C42.1121 81.2906 42.2065 80.886 42.2874 80.5084C42.3683 80.1307 42.4088 79.6857 42.4088 79.1731C42.4088 77.4738 41.9502 76.0037 41.0331 74.7629C40.116 73.5221 38.8077 72.9017 37.1084 72.9017C36.2182 72.9017 35.436 73.131 34.7616 73.5895C34.0873 74.0481 33.6153 74.4932 33.3455 74.9247C33.0758 75.3563 32.9409 75.6126 32.9409 75.6935C32.9409 75.7205 33.0083 75.734 33.1432 75.734C33.6287 75.734 34.1278 75.9228 34.6403 76.3004C35.1528 76.6781 35.409 77.2985 35.409 78.1616C35.409 78.836 35.1932 79.4024 34.7616 79.861C34.3301 80.3195 33.7232 80.5623 32.9409 80.5893Z" fill="white"/>
</g>
<g id="Group_18">
<path id="Vector_21" d="M69 84.9995C69 84.9995 69 84.8241 69 84.4735C69 84.1228 69.1888 83.8531 69.5665 83.6642H81.6643V77.5951L81.7047 71.526C81.9745 71.1753 82.2307 71 82.4735 71C82.8242 71 83.0939 71.2023 83.2827 71.6069V83.6642H95.3401C95.7447 83.88 95.947 84.1498 95.947 84.4735C95.947 84.7972 95.7447 85.0669 95.3401 85.2827H83.2827V97.34C83.0669 97.7177 82.8242 97.9065 82.5544 97.9065H82.4735H82.3926C82.0689 97.9065 81.8261 97.7177 81.6643 97.34V85.2827H69.5665C69.1888 85.0939 69 84.8241 69 84.4735V84.9995Z" fill="white"/>
</g>
<g id="Group_19">
<path id="Vector_22" d="M101.26 74.5605L100.734 74.7628C100.356 74.8977 99.8168 75.0325 99.1155 75.1674C98.4142 75.3023 97.6319 75.3967 96.7688 75.4506H96V73.5894H96.7688C98.0365 73.5355 99.2099 73.3332 100.289 72.9825C101.368 72.6318 102.123 72.3082 102.555 72.0114C102.986 71.7147 103.364 71.418 103.688 71.1213C103.742 71.0404 103.903 70.9999 104.173 70.9999C104.416 70.9999 104.645 71.0808 104.861 71.2427V83.3405L104.901 95.4788C105.09 95.6676 105.252 95.789 105.387 95.8429C105.522 95.8969 105.845 95.9508 106.358 96.0048C106.871 96.0587 107.707 96.0857 108.867 96.0857H109.919V97.9469H109.473C108.907 97.866 106.763 97.8255 103.04 97.8255C99.3717 97.8255 97.2543 97.866 96.6878 97.9469H96.2023V96.0857H97.2543C97.8477 96.0857 98.3602 96.0857 98.7918 96.0857C99.2234 96.0857 99.5606 96.0722 99.8033 96.0452C100.046 96.0183 100.262 95.9778 100.451 95.9239C100.64 95.8699 100.747 95.8429 100.774 95.8429C100.801 95.8429 100.882 95.7755 101.017 95.6406C101.152 95.5058 101.233 95.4518 101.26 95.4788V74.5605Z" fill="white"/>
</g>
</g>
</g>
<g id="\times2\;+1_2">
<g id="Group_20">
<g id="Group_21">
<path id="Vector_23" d="M158.543 96.7737C158.543 97.3131 158.259 97.5829 157.693 97.5829C157.558 97.5829 157.261 97.3671 156.803 96.9355C156.344 96.5039 155.076 95.2496 152.999 93.1726L148.792 88.9647L144.543 93.2131C141.684 96.0184 140.214 97.448 140.133 97.502C140.025 97.5559 139.931 97.5829 139.85 97.5829C139.634 97.5829 139.445 97.502 139.283 97.3401C139.121 97.1783 139.027 96.9895 139 96.7737C139 96.5848 139.189 96.2881 139.566 95.8835C139.944 95.4789 141.212 94.1977 143.37 92.0397L147.578 87.8318L143.37 83.6239C141.185 81.439 139.917 80.1577 139.566 79.7801C139.216 79.4024 139.027 79.1057 139 78.8899C139 78.6472 139.081 78.4584 139.243 78.3235C139.405 78.1886 139.607 78.1212 139.85 78.1212C139.985 78.1212 140.079 78.1347 140.133 78.1616C140.214 78.2156 141.684 79.6452 144.543 82.4505L148.792 86.6989L152.999 82.491C155.076 80.414 156.344 79.1597 156.803 78.7281C157.261 78.2965 157.558 78.0807 157.693 78.0807C158.259 78.0807 158.543 78.3505 158.543 78.8899C158.543 79.0788 158.408 79.3215 158.138 79.6182C157.868 79.9149 156.547 81.2367 154.173 83.5834L149.965 87.8318L154.173 92.0802C156.439 94.346 157.733 95.6542 158.057 96.0049C158.381 96.3556 158.543 96.6118 158.543 96.7737Z" fill="white"/>
</g>
<g id="Group_22">
<path id="Vector_24" d="M168.941 80.5893C168.213 80.5893 167.633 80.3465 167.201 79.861C166.77 79.3755 166.554 78.782 166.554 78.0807C166.554 76.1656 167.269 74.5067 168.698 73.104C170.128 71.7014 171.908 71 174.039 71C176.494 71 178.544 71.7553 180.189 73.2659C181.834 74.7764 182.671 76.732 182.698 79.1327C182.698 80.2926 182.428 81.3985 181.888 82.4505C181.349 83.5025 180.702 84.4196 179.946 85.2018C179.191 85.9841 178.112 86.9821 176.709 88.1959C175.738 89.0321 174.39 90.2729 172.663 91.9183L170.276 94.1842L173.351 94.2246C177.586 94.2246 179.838 94.1572 180.108 94.0223C180.297 93.9684 180.621 92.768 181.079 90.4213V90.2999H182.698V90.4213C182.671 90.5022 182.495 91.7295 182.172 94.1032C181.848 96.4769 181.646 97.7177 181.565 97.8256V97.947H166.554V97.1783V96.6927C166.554 96.5039 166.635 96.3016 166.796 96.0858C166.958 95.87 167.363 95.398 168.01 94.6697C168.793 93.8065 169.467 93.0512 170.033 92.4039C170.276 92.1341 170.735 91.6351 171.409 90.9068C172.083 90.1785 172.542 89.6795 172.785 89.4098C173.027 89.14 173.419 88.695 173.958 88.0746C174.498 87.4542 174.875 86.9956 175.091 86.6989C175.307 86.4022 175.617 85.9976 176.022 85.4851C176.426 84.9725 176.709 84.541 176.871 84.1903C177.033 83.8396 177.235 83.4485 177.478 83.0169C177.721 82.5854 177.896 82.1538 178.004 81.7222C178.112 81.2906 178.206 80.886 178.287 80.5084C178.368 80.1307 178.409 79.6857 178.409 79.1731C178.409 77.4738 177.95 76.0037 177.033 74.7629C176.116 73.5221 174.808 72.9017 173.108 72.9017C172.218 72.9017 171.436 73.131 170.762 73.5895C170.087 74.0481 169.615 74.4932 169.346 74.9247C169.076 75.3563 168.941 75.6126 168.941 75.6935C168.941 75.7205 169.008 75.734 169.143 75.734C169.629 75.734 170.128 75.9228 170.64 76.3004C171.153 76.6781 171.409 77.2985 171.409 78.1616C171.409 78.836 171.193 79.4024 170.762 79.861C170.33 80.3195 169.723 80.5623 168.941 80.5893Z" fill="white"/>
</g>
<g id="Group_23">
<path id="Vector_25" d="M205 84.9995C205 84.9995 205 84.8241 205 84.4735C205 84.1228 205.189 83.8531 205.566 83.6642H217.664V77.5951L217.705 71.526C217.974 71.1753 218.231 71 218.473 71C218.824 71 219.094 71.2023 219.283 71.6069V83.6642H231.34C231.745 83.88 231.947 84.1498 231.947 84.4735C231.947 84.7972 231.745 85.0669 231.34 85.2827H219.283V97.34C219.067 97.7177 218.824 97.9065 218.554 97.9065H218.473H218.393C218.069 97.9065 217.826 97.7177 217.664 97.34V85.2827H205.566C205.189 85.0939 205 84.8241 205 84.4735V84.9995Z" fill="white"/>
</g>
<g id="Group_24">
<path id="Vector_26" d="M237.26 74.5605L236.734 74.7628C236.356 74.8977 235.817 75.0325 235.115 75.1674C234.414 75.3023 233.632 75.3967 232.769 75.4506H232V73.5894H232.769C234.037 73.5355 235.21 73.3332 236.289 72.9825C237.368 72.6318 238.123 72.3082 238.555 72.0114C238.986 71.7147 239.364 71.418 239.688 71.1213C239.742 71.0404 239.903 70.9999 240.173 70.9999C240.416 70.9999 240.645 71.0808 240.861 71.2427V83.3405L240.901 95.4788C241.09 95.6676 241.252 95.789 241.387 95.8429C241.522 95.8969 241.845 95.9508 242.358 96.0048C242.871 96.0587 243.707 96.0857 244.867 96.0857H245.919V97.9469H245.473C244.907 97.866 242.763 97.8255 239.04 97.8255C235.372 97.8255 233.254 97.866 232.688 97.9469H232.202V96.0857H233.254C233.848 96.0857 234.36 96.0857 234.792 96.0857C235.223 96.0857 235.561 96.0722 235.803 96.0452C236.046 96.0183 236.262 95.9778 236.451 95.9239C236.64 95.8699 236.747 95.8429 236.774 95.8429C236.801 95.8429 236.882 95.7755 237.017 95.6406C237.152 95.5058 237.233 95.4518 237.26 95.4788V74.5605Z" fill="white"/>
</g>
</g>
</g>
<g id="\times2\;+1_3">
<g id="Group_25">
<g id="Group_26">
<path id="Vector_27" d="M304.543 96.7737C304.543 97.3131 304.259 97.5829 303.693 97.5829C303.558 97.5829 303.261 97.3671 302.803 96.9355C302.344 96.5039 301.076 95.2496 298.999 93.1726L294.792 88.9647L290.543 93.2131C287.684 96.0184 286.214 97.448 286.133 97.502C286.025 97.5559 285.931 97.5829 285.85 97.5829C285.634 97.5829 285.445 97.502 285.283 97.3401C285.121 97.1783 285.027 96.9895 285 96.7737C285 96.5848 285.189 96.2881 285.566 95.8835C285.944 95.4789 287.212 94.1977 289.37 92.0397L293.578 87.8318L289.37 83.6239C287.185 81.439 285.917 80.1577 285.566 79.7801C285.216 79.4024 285.027 79.1057 285 78.8899C285 78.6472 285.081 78.4584 285.243 78.3235C285.405 78.1886 285.607 78.1212 285.85 78.1212C285.985 78.1212 286.079 78.1347 286.133 78.1616C286.214 78.2156 287.684 79.6452 290.543 82.4505L294.792 86.6989L298.999 82.491C301.076 80.414 302.344 79.1597 302.803 78.7281C303.261 78.2965 303.558 78.0807 303.693 78.0807C304.259 78.0807 304.543 78.3505 304.543 78.8899C304.543 79.0788 304.408 79.3215 304.138 79.6182C303.868 79.9149 302.547 81.2367 300.173 83.5834L295.965 87.8318L300.173 92.0802C302.439 94.346 303.733 95.6542 304.057 96.0049C304.381 96.3556 304.543 96.6118 304.543 96.7737Z" fill="white"/>
</g>
<g id="Group_27">
<path id="Vector_28" d="M314.941 80.5893C314.213 80.5893 313.633 80.3465 313.201 79.861C312.77 79.3755 312.554 78.782 312.554 78.0807C312.554 76.1656 313.269 74.5067 314.698 73.104C316.128 71.7014 317.908 71 320.039 71C322.494 71 324.544 71.7553 326.189 73.2659C327.834 74.7764 328.671 76.732 328.698 79.1327C328.698 80.2926 328.428 81.3985 327.888 82.4505C327.349 83.5025 326.702 84.4196 325.946 85.2018C325.191 85.9841 324.112 86.9821 322.709 88.1959C321.738 89.0321 320.39 90.2729 318.663 91.9183L316.276 94.1842L319.351 94.2246C323.586 94.2246 325.838 94.1572 326.108 94.0223C326.297 93.9684 326.621 92.768 327.079 90.4213V90.2999H328.698V90.4213C328.671 90.5022 328.495 91.7295 328.172 94.1032C327.848 96.4769 327.646 97.7177 327.565 97.8256V97.947H312.554V97.1783V96.6927C312.554 96.5039 312.635 96.3016 312.796 96.0858C312.958 95.87 313.363 95.398 314.01 94.6697C314.793 93.8065 315.467 93.0512 316.033 92.4039C316.276 92.1341 316.735 91.6351 317.409 90.9068C318.083 90.1785 318.542 89.6795 318.785 89.4098C319.027 89.14 319.419 88.695 319.958 88.0746C320.498 87.4542 320.875 86.9956 321.091 86.6989C321.307 86.4022 321.617 85.9976 322.022 85.4851C322.426 84.9725 322.709 84.541 322.871 84.1903C323.033 83.8396 323.235 83.4485 323.478 83.0169C323.721 82.5854 323.896 82.1538 324.004 81.7222C324.112 81.2906 324.206 80.886 324.287 80.5084C324.368 80.1307 324.409 79.6857 324.409 79.1731C324.409 77.4738 323.95 76.0037 323.033 74.7629C322.116 73.5221 320.808 72.9017 319.108 72.9017C318.218 72.9017 317.436 73.131 316.762 73.5895C316.087 74.0481 315.615 74.4932 315.346 74.9247C315.076 75.3563 314.941 75.6126 314.941 75.6935C314.941 75.7205 315.008 75.734 315.143 75.734C315.629 75.734 316.128 75.9228 316.64 76.3004C317.153 76.6781 317.409 77.2985 317.409 78.1616C317.409 78.836 317.193 79.4024 316.762 79.861C316.33 80.3195 315.723 80.5623 314.941 80.5893Z" fill="white"/>
</g>
<g id="Group_28">
<path id="Vector_29" d="M351 84.9995C351 84.9995 351 84.8241 351 84.4735C351 84.1228 351.189 83.8531 351.566 83.6642H363.664V77.5951L363.705 71.526C363.974 71.1753 364.231 71 364.473 71C364.824 71 365.094 71.2023 365.283 71.6069V83.6642H377.34C377.745 83.88 377.947 84.1498 377.947 84.4735C377.947 84.7972 377.745 85.0669 377.34 85.2827H365.283V97.34C365.067 97.7177 364.824 97.9065 364.554 97.9065H364.473H364.393C364.069 97.9065 363.826 97.7177 363.664 97.34V85.2827H351.566C351.189 85.0939 351 84.8241 351 84.4735V84.9995Z" fill="#F3C72C"/>
</g>
<g id="Group_29">
<path id="Vector_30" d="M383.26 74.5605L382.734 74.7628C382.356 74.8977 381.817 75.0325 381.115 75.1674C380.414 75.3023 379.632 75.3967 378.769 75.4506H378V73.5894H378.769C380.037 73.5355 381.21 73.3332 382.289 72.9825C383.368 72.6318 384.123 72.3082 384.555 72.0114C384.986 71.7147 385.364 71.418 385.688 71.1213C385.742 71.0404 385.903 70.9999 386.173 70.9999C386.416 70.9999 386.645 71.0808 386.861 71.2427V83.3405L386.901 95.4788C387.09 95.6676 387.252 95.789 387.387 95.8429C387.522 95.8969 387.845 95.9508 388.358 96.0048C388.871 96.0587 389.707 96.0857 390.867 96.0857H391.919V97.9469H391.473C390.907 97.866 388.763 97.8255 385.04 97.8255C381.372 97.8255 379.254 97.866 378.688 97.9469H378.202V96.0857H379.254C379.848 96.0857 380.36 96.0857 380.792 96.0857C381.223 96.0857 381.561 96.0722 381.803 96.0452C382.046 96.0183 382.262 95.9778 382.451 95.9239C382.64 95.8699 382.747 95.8429 382.774 95.8429C382.801 95.8429 382.882 95.7755 383.017 95.6406C383.152 95.5058 383.233 95.4518 383.26 95.4788V74.5605Z" fill="#F3C72C"/>
</g>
</g>
</g>
<g id="\therefore \;\;x=70+1=71">
<g id="Group_30">
<g id="Group_31">
<path id="Vector_31" d="M534.855 58.4881C534.855 57.8021 535.092 57.2348 535.567 56.7863C536.042 56.3377 536.609 56.1135 537.269 56.1135C537.902 56.1135 538.443 56.3377 538.892 56.7863C539.34 57.2348 539.578 57.8021 539.604 58.4881C539.631 59.1741 539.406 59.7414 538.931 60.19C538.456 60.6385 537.889 60.8628 537.23 60.8628C536.544 60.8628 535.976 60.6385 535.528 60.19C535.079 59.7414 534.855 59.1741 534.855 58.4881ZM527.375 73.2507C528.061 73.2507 528.615 73.4749 529.037 73.9235C529.459 74.372 529.683 74.9393 529.71 75.6253C529.71 76.2586 529.499 76.8127 529.077 77.2876C528.654 77.7625 528.074 78 527.335 78C526.649 78 526.095 77.7757 525.673 77.3272C525.251 76.8786 525.026 76.3113 525 75.6253C525 74.9393 525.224 74.372 525.673 73.9235C526.121 73.4749 526.689 73.2507 527.375 73.2507ZM544.789 75.6253C544.789 74.9393 545.013 74.372 545.462 73.9235C545.91 73.4749 546.478 73.2507 547.164 73.2507C547.797 73.2507 548.338 73.4749 548.786 73.9235C549.235 74.372 549.472 74.9393 549.499 75.6253C549.499 76.2322 549.288 76.7731 548.865 77.248C548.443 77.723 547.863 77.9736 547.124 78C546.438 78 545.884 77.7757 545.462 77.3272C545.04 76.8786 544.815 76.3113 544.789 75.6253Z" fill="white"/>
</g>
<g id="Group_32">
<path id="Vector_32" d="M585.487 63.3167C585.671 62.2085 586.384 60.9288 587.624 59.4777C588.864 58.0265 590.394 57.2877 592.215 57.2613C593.139 57.2613 593.983 57.4988 594.748 57.9737C595.513 58.4486 596.08 59.0423 596.45 59.7547C597.558 58.0924 598.89 57.2613 600.447 57.2613C601.423 57.2613 602.268 57.5515 602.98 58.132C603.693 58.7125 604.062 59.4909 604.088 60.4671C604.088 61.2323 603.904 61.8523 603.534 62.3273C603.165 62.8022 602.809 63.0924 602.466 63.198C602.123 63.3035 601.819 63.3563 601.555 63.3563C601.054 63.3563 600.645 63.2112 600.328 62.9209C600.012 62.6307 599.854 62.2481 599.854 61.7732C599.854 60.5595 600.513 59.7283 601.832 59.2798C601.542 58.9368 601.014 58.7653 600.249 58.7653C599.906 58.7653 599.656 58.7916 599.497 58.8444C598.495 59.2666 597.756 60.1373 597.281 61.4566C595.698 67.2877 594.906 70.6914 594.906 71.6676C594.906 72.4064 595.117 72.9341 595.54 73.2507C595.962 73.5674 596.423 73.7257 596.925 73.7257C597.901 73.7257 598.864 73.2903 599.814 72.4196C600.764 71.5489 601.41 70.4803 601.753 69.2138C601.832 68.95 601.912 68.8048 601.991 68.7785C602.07 68.7521 602.281 68.7257 602.624 68.6993H602.782C603.178 68.6993 603.376 68.8048 603.376 69.0159C603.376 69.0423 603.35 69.1874 603.297 69.4513C602.875 70.9552 602.057 72.2877 600.843 73.4486C599.629 74.6096 598.218 75.1901 596.608 75.1901C594.761 75.1901 593.363 74.3589 592.413 72.6967C591.331 74.3325 590.091 75.1505 588.693 75.1505H588.455C587.162 75.1505 586.239 74.8075 585.685 74.1215C585.131 73.4354 584.84 72.7099 584.814 71.9447C584.814 71.1004 585.065 70.4143 585.566 69.8866C586.067 69.3589 586.661 69.0951 587.347 69.0951C588.482 69.0951 589.049 69.6492 589.049 70.7573C589.049 71.2851 588.89 71.7468 588.574 72.1426C588.257 72.5383 587.954 72.8022 587.664 72.9341C587.373 73.0661 587.202 73.132 587.149 73.132L587.03 73.1716C587.03 73.198 587.109 73.2507 587.268 73.3299C587.426 73.4091 587.637 73.5014 587.901 73.6069C588.165 73.7125 588.416 73.7521 588.653 73.7257C589.603 73.7257 590.421 73.132 591.107 71.9447C591.344 71.5225 591.648 70.6254 592.017 69.2534C592.387 67.8814 592.756 66.4566 593.125 64.979C593.495 63.5014 593.706 62.6307 593.759 62.3668C593.89 61.6544 593.956 61.1399 593.956 60.8233C593.956 60.0845 593.759 59.5568 593.363 59.2402C592.967 58.9236 592.518 58.7653 592.017 58.7653C590.962 58.7653 589.972 59.1874 589.049 60.0318C588.125 60.8761 587.479 61.9579 587.109 63.2771C587.057 63.5146 586.991 63.6465 586.912 63.6729C586.832 63.6993 586.621 63.7257 586.278 63.7521H585.724C585.566 63.5938 585.487 63.4486 585.487 63.3167Z" fill="white"/>
</g>
<g id="Group_33">
<path id="Vector_33" d="M619.278 61.0212C619.278 60.6782 619.463 60.4143 619.832 60.2296H645.043C645.439 60.4407 645.637 60.7046 645.637 61.0212C645.637 61.3114 645.452 61.5621 645.083 61.7732L632.497 61.8127H619.911C619.489 61.6808 619.278 61.417 619.278 61.0212ZM619.278 68.6993C619.278 68.3035 619.489 68.0397 619.911 67.9077H645.083C645.452 68.1716 645.637 68.4354 645.637 68.6993C645.637 69.0423 645.439 69.3061 645.043 69.4908H619.832C619.463 69.3061 619.278 69.0423 619.278 68.6993Z" fill="white"/>
</g>
<g id="Group_34">
<path id="Vector_34" d="M661.025 56.6279C661.051 56.5751 661.276 55.1371 661.698 52.3139L662.331 48.0791C662.331 48.0263 662.595 47.9999 663.123 47.9999H663.914V48.1582C663.914 48.4221 664.112 48.6464 664.508 48.8311C664.904 49.0157 665.59 49.1345 666.566 49.1873C667.542 49.24 669.772 49.2664 673.254 49.2664H678.043V50.8099L675.352 54.4907C675.115 54.8073 674.719 55.335 674.165 56.0738C673.611 56.8126 673.254 57.3007 673.096 57.5382C672.938 57.7756 672.661 58.1978 672.265 58.8047C671.869 59.4115 671.605 59.8865 671.473 60.2295C671.342 60.5725 671.157 61.0606 670.919 61.6938C670.682 62.3271 670.51 62.934 670.405 63.5144C670.299 64.0949 670.194 64.8073 670.088 65.6516C669.983 66.496 669.904 67.3931 669.851 68.3429C669.798 69.2928 669.758 70.3746 669.732 71.5883C669.732 71.9577 669.732 72.3271 669.732 72.6965C669.732 73.0659 669.719 73.3825 669.692 73.6464V74.0026C669.587 74.4511 669.336 74.8337 668.94 75.1503C668.545 75.4669 668.096 75.6252 667.595 75.6252C667.305 75.6252 667.028 75.5857 666.764 75.5065C666.5 75.4274 666.223 75.1767 665.933 74.7545C665.642 74.3324 665.497 73.8047 665.497 73.1714C665.497 69.0026 666.777 64.6754 669.336 60.1899C669.864 59.3456 670.972 57.7493 672.661 55.401L674.481 52.9076H670.801C666.21 52.9076 663.795 52.9867 663.558 53.145C663.4 53.2242 663.254 53.5408 663.123 54.0949C662.991 54.649 662.859 55.2163 662.727 55.7967L662.608 56.6279V56.7466H661.025V56.6279Z" fill="white"/>
<path id="Vector_35" d="M682.437 51.6015C683.914 49.4643 685.933 48.3957 688.492 48.3957C689.759 48.3957 691.025 48.7387 692.292 49.4247C693.558 50.1107 694.587 51.3245 695.379 53.0659C696.355 55.2558 696.843 58.2638 696.843 62.0896C696.843 66.1793 696.276 69.306 695.141 71.4696C694.614 72.5778 693.888 73.4617 692.965 74.1213C692.041 74.7809 691.236 75.1899 690.55 75.3482C689.864 75.5065 689.191 75.5989 688.532 75.6252C687.846 75.6252 687.16 75.5461 686.474 75.3878C685.788 75.2295 684.983 74.8073 684.06 74.1213C683.136 73.4353 682.41 72.5514 681.883 71.4696C680.748 69.306 680.181 66.1793 680.181 62.0896C680.181 57.4986 680.933 54.0026 682.437 51.6015ZM691.342 51.1266C690.55 50.2822 689.614 49.8601 688.532 49.8601C687.424 49.8601 686.474 50.2822 685.682 51.1266C685.023 51.8126 684.587 52.7624 684.376 53.9762C684.165 55.1899 684.06 57.7229 684.06 61.5751C684.06 65.744 684.165 68.488 684.376 69.8073C684.587 71.1266 685.062 72.1688 685.801 72.934C686.54 73.7255 687.45 74.1213 688.532 74.1213C689.587 74.1213 690.484 73.7255 691.223 72.934C691.988 72.1424 692.463 71.0342 692.648 69.6094C692.833 68.1846 692.938 65.5065 692.965 61.5751C692.965 57.7493 692.859 55.2295 692.648 54.0157C692.437 52.802 692.001 51.839 691.342 51.1266Z" fill="white"/>
</g>
<g id="Group_35">
<path id="Vector_36" d="M709.437 65.3747C709.437 65.3747 709.437 65.2032 709.437 64.8602C709.437 64.5171 709.621 64.2533 709.991 64.0686H721.825V58.1319L721.864 52.1952C722.128 51.8522 722.379 51.6807 722.616 51.6807C722.959 51.6807 723.223 51.8786 723.408 52.2744V64.0686H735.202C735.598 64.2797 735.796 64.5435 735.796 64.8602C735.796 65.1768 735.598 65.4406 735.202 65.6517H723.408V77.4459C723.197 77.8153 722.959 78 722.695 78H722.616H722.537C722.22 78 721.983 77.8153 721.825 77.4459V65.6517H709.991C709.621 65.467 709.437 65.2032 709.437 64.8602V65.3747Z" fill="white"/>
</g>
<g id="Group_36">
<path id="Vector_37" d="M755.236 51.8787L754.721 52.0765C754.352 52.2085 753.824 52.3404 753.138 52.4723C752.452 52.6042 751.687 52.6966 750.843 52.7494H750.091V50.9288H750.843C752.083 50.876 753.231 50.6781 754.286 50.3351C755.341 49.9921 756.08 49.6755 756.502 49.3852C756.925 49.095 757.294 48.8048 757.611 48.5145C757.663 48.4354 757.822 48.3958 758.086 48.3958C758.323 48.3958 758.547 48.475 758.758 48.6333V60.467L758.798 72.3404C758.983 72.5251 759.141 72.6438 759.273 72.6966C759.405 72.7494 759.721 72.8021 760.223 72.8549C760.724 72.9077 761.542 72.9341 762.677 72.9341H763.706V74.7546H763.27C762.716 74.6755 760.619 74.6359 756.977 74.6359C753.389 74.6359 751.318 74.6755 750.764 74.7546H750.289V72.9341H751.318C751.898 72.9341 752.4 72.9341 752.822 72.9341C753.244 72.9341 753.574 72.9209 753.811 72.8945C754.049 72.8681 754.26 72.8285 754.444 72.7757C754.629 72.723 754.735 72.6966 754.761 72.6966C754.787 72.6966 754.867 72.6306 754.998 72.4987C755.13 72.3668 755.21 72.314 755.236 72.3404V51.8787Z" fill="white"/>
</g>
<g id="Group_37">
<path id="Vector_38" d="M779.806 61.0212C779.806 60.6782 779.991 60.4143 780.36 60.2296H805.571C805.967 60.4407 806.165 60.7046 806.165 61.0212C806.165 61.3114 805.98 61.5621 805.611 61.7732L793.025 61.8127H780.439C780.017 61.6808 779.806 61.417 779.806 61.0212ZM779.806 68.6993C779.806 68.3035 780.017 68.0397 780.439 67.9077H805.611C805.98 68.1716 806.165 68.4354 806.165 68.6993C806.165 69.0423 805.967 69.3061 805.571 69.4908H780.36C779.991 69.3061 779.806 69.0423 779.806 68.6993Z" fill="white"/>
</g>
<g id="Group_38">
<path id="Vector_39" d="M821.552 56.6279C821.579 56.5751 821.803 55.1371 822.225 52.3139L822.859 48.0791C822.859 48.0263 823.122 47.9999 823.65 47.9999H824.442V48.1582C824.442 48.4221 824.64 48.6464 825.035 48.8311C825.431 49.0157 826.117 49.1345 827.093 49.1873C828.07 49.24 830.299 49.2664 833.782 49.2664H838.571V50.8099L835.88 54.4907C835.642 54.8073 835.246 55.335 834.692 56.0738C834.138 56.8126 833.782 57.3007 833.624 57.5382C833.465 57.7756 833.188 58.1978 832.793 58.8047C832.397 59.4115 832.133 59.8865 832.001 60.2295C831.869 60.5725 831.684 61.0606 831.447 61.6938C831.209 62.3271 831.038 62.934 830.932 63.5144C830.827 64.0949 830.721 64.8073 830.616 65.6516C830.51 66.496 830.431 67.3931 830.378 68.3429C830.326 69.2928 830.286 70.3746 830.26 71.5883C830.26 71.9577 830.26 72.3271 830.26 72.6965C830.26 73.0659 830.246 73.3825 830.22 73.6464V74.0026C830.114 74.4511 829.864 74.8337 829.468 75.1503C829.072 75.4669 828.624 75.6252 828.122 75.6252C827.832 75.6252 827.555 75.5857 827.291 75.5065C827.027 75.4274 826.75 75.1767 826.46 74.7545C826.17 74.3324 826.025 73.8047 826.025 73.1714C826.025 69.0026 827.304 64.6754 829.864 60.1899C830.392 59.3456 831.5 57.7493 833.188 55.401L835.009 52.9076H831.328C826.737 52.9076 824.323 52.9867 824.085 53.145C823.927 53.2242 823.782 53.5408 823.65 54.0949C823.518 54.649 823.386 55.2163 823.254 55.7967L823.136 56.6279V56.7466H821.552V56.6279Z" fill="white"/>
<path id="Vector_40" d="M847.595 51.8787L847.08 52.0765C846.711 52.2085 846.183 52.3404 845.497 52.4723C844.811 52.6042 844.046 52.6966 843.202 52.7494H842.45V50.9288H843.202C844.442 50.876 845.59 50.6781 846.645 50.3351C847.7 49.9921 848.439 49.6755 848.861 49.3852C849.283 49.095 849.653 48.8048 849.969 48.5145C850.022 48.4354 850.181 48.3958 850.444 48.3958C850.682 48.3958 850.906 48.475 851.117 48.6333V60.467L851.157 72.3404C851.342 72.5251 851.5 72.6438 851.632 72.6966C851.764 72.7494 852.08 72.8021 852.582 72.8549C853.083 72.9077 853.901 72.9341 855.035 72.9341H856.064V74.7546H855.629C855.075 74.6755 852.977 74.6359 849.336 74.6359C845.748 74.6359 843.677 74.6755 843.123 74.7546H842.648V72.9341H843.677C844.257 72.9341 844.758 72.9341 845.181 72.9341C845.603 72.9341 845.933 72.9209 846.17 72.8945C846.407 72.8681 846.619 72.8285 846.803 72.7757C846.988 72.723 847.094 72.6966 847.12 72.6966C847.146 72.6966 847.225 72.6306 847.357 72.4987C847.489 72.3668 847.568 72.314 847.595 72.3404V51.8787Z" fill="white"/>
</g>
</g>
</g>
</g>
</svg>
