<svg viewBox="0 0 876 156" fill="none" xmlns="http://www.w3.org/2000/svg">
<g id="0115211">
<g id="C;\;G;\;K;\; \tilde{N};\;R;\;V;\;\ldots">
<g id="Group">
<g id="Group_2">
<path id="Vector" d="M0 19.9903C0 17.4102 0.751603 14.931 2.25481 12.5528C3.75801 10.1746 5.65385 8.29001 7.94231 6.89899C10.2308 5.50796 12.5192 4.80123 14.8077 4.7788C16.8269 4.7788 18.4311 5.35091 19.6202 6.49514C19.8221 6.7195 19.9904 6.91021 20.125 7.06726C20.2596 7.22431 20.3494 7.33649 20.3942 7.4038L20.4279 7.50476C20.4952 7.50476 20.7981 7.21309 21.3365 6.62976C21.4936 6.49514 21.6619 6.33809 21.8413 6.1586C22.0208 5.97912 22.2003 5.79963 22.3798 5.62014C22.5593 5.44065 22.6715 5.31726 22.7163 5.24995L23.2212 4.74514H23.4231C23.7372 4.74514 23.8942 4.82367 23.8942 4.98072C23.8942 5.07046 23.5353 6.60732 22.8173 9.5913C22.0096 12.7099 21.6058 14.2804 21.6058 14.3028C21.5609 14.415 21.5048 14.4823 21.4375 14.5048C21.3702 14.5272 21.1683 14.5496 20.8317 14.5721H20.2933C20.1587 14.4374 20.0913 14.3365 20.0913 14.2692C20.0913 14.2467 20.1026 14.1682 20.125 14.0336C20.1474 13.899 20.1699 13.6746 20.1923 13.3605C20.2147 13.0464 20.226 12.6874 20.226 12.2836C20.226 10.6907 19.867 9.29963 19.149 8.11053C18.4311 6.92142 17.2083 6.31565 15.4808 6.29322C14.8974 6.29322 14.2692 6.37174 13.5962 6.5288C12.9231 6.68585 12.1154 6.95508 11.1731 7.33649C10.2308 7.7179 9.29968 8.3461 8.37981 9.2211C7.45994 10.0961 6.64103 11.1394 5.92308 12.3509C5.20513 13.6298 4.63301 15.1217 4.20673 16.8269C3.78045 18.532 3.56731 19.923 3.56731 20.9999C3.56731 23.5576 4.41987 25.3974 6.125 26.5192C7.20192 27.282 8.52564 27.6634 10.0962 27.6634C12.1378 27.6634 13.9551 26.9006 15.5481 25.3749C17.141 23.8493 18.1955 22.1891 18.7115 20.3942C18.8013 20.1025 18.8686 19.9342 18.9135 19.8894C18.9583 19.8445 19.1378 19.8221 19.4519 19.8221C19.9006 19.8221 20.125 19.923 20.125 20.1249C20.125 20.2371 20.1138 20.3381 20.0913 20.4278C19.4407 22.8285 18.0497 24.8926 15.9183 26.6201C13.7869 28.3477 11.4984 29.2115 9.05289 29.2115C6.51763 29.2115 4.375 28.3701 2.625 26.6874C0.875 25.0048 0 22.7724 0 19.9903Z" fill="white"/>
</g>
<g id="Group_3">
<path id="Vector_2" d="M26.519 16.0192C26.519 15.4808 26.7097 15.0096 27.0912 14.6058C27.4726 14.2019 27.9549 14 28.5383 14C29.0767 14 29.5479 14.1795 29.9517 14.5385C30.3556 14.8974 30.5687 15.3798 30.5912 15.9856C30.5912 16.5465 30.4005 17.0288 30.019 17.4327C29.6376 17.8365 29.1553 18.0385 28.5719 18.0385C27.9886 18.0385 27.5062 17.8478 27.1248 17.4663C26.7434 17.0849 26.5415 16.6026 26.519 16.0192ZM26.519 26.4519C26.519 25.891 26.6985 25.4087 27.0575 25.0048C27.4165 24.601 27.8989 24.399 28.5046 24.399C29.963 24.399 30.6921 25.6667 30.6921 28.2019C30.6921 29.3686 30.479 30.5128 30.0527 31.6346C29.6264 32.7564 29.1889 33.5978 28.7402 34.1587C28.2915 34.7196 27.9998 35 27.8652 35C27.7979 35 27.6633 34.9103 27.4614 34.7308C27.2594 34.5513 27.136 34.4167 27.0912 34.3269C27.0687 34.2596 27.2033 34.0465 27.495 33.6875C27.7867 33.3285 28.1232 32.7901 28.5046 32.0721C28.886 31.3542 29.144 30.5801 29.2787 29.75C29.3011 29.6154 29.3235 29.4359 29.346 29.2115C29.3684 28.9872 29.4021 28.7853 29.4469 28.6058C29.4918 28.4263 29.4918 28.3365 29.4469 28.3365C29.4469 28.3141 29.4021 28.3141 29.3123 28.3365C29.2226 28.359 29.0094 28.4038 28.6729 28.4712C27.9549 28.4712 27.4165 28.2692 27.0575 27.8654C26.6985 27.4615 26.519 26.9904 26.519 26.4519Z" fill="white"/>
</g>
<g id="Group_4">
<path id="Vector_3" d="M49.8884 19.9903C49.8884 17.4102 50.64 14.931 52.1432 12.5528C53.6464 10.1746 55.5423 8.29001 57.8307 6.89899C60.1192 5.50796 62.4077 4.80123 64.6961 4.7788C66.7154 4.7788 68.3195 5.35091 69.5086 6.49514C69.7105 6.7195 69.8788 6.91021 70.0134 7.06726C70.148 7.22431 70.2378 7.33649 70.2827 7.4038L70.3163 7.50476C70.3836 7.50476 70.6865 7.21309 71.225 6.62976C71.382 6.49514 71.5503 6.33809 71.7298 6.1586C71.9093 5.97912 72.0887 5.79963 72.2682 5.62014C72.4477 5.44065 72.5599 5.31726 72.6048 5.24995L73.1096 4.74514H73.3115C73.6256 4.74514 73.7827 4.82367 73.7827 4.98072C73.7827 5.07046 73.4237 6.60732 72.7057 9.5913C71.898 12.7099 71.4942 14.2804 71.4942 14.3028C71.4493 14.415 71.3932 14.4823 71.3259 14.5048C71.2586 14.5272 71.0567 14.5496 70.7202 14.5721H70.1817C70.0471 14.4374 69.9798 14.3365 69.9798 14.2692C69.9798 14.2467 69.991 14.1682 70.0134 14.0336C70.0359 13.899 70.0583 13.6746 70.0807 13.3605C70.1032 13.0464 70.1144 12.6874 70.1144 12.2836C70.1144 10.6907 69.7554 9.29963 69.0375 8.11053C68.3195 6.92142 67.0968 6.31565 65.3692 6.29322C64.9654 6.29322 64.5279 6.32687 64.0567 6.39418C63.5855 6.46149 62.991 6.60732 62.273 6.83168C61.5551 7.05604 60.8708 7.37014 60.2202 7.77399C59.5695 8.17783 58.8628 8.7163 58.1 9.38937C57.3371 10.0625 56.6865 10.8589 56.148 11.7788C55.6096 12.6987 55.0823 13.8429 54.5663 15.2115C54.0503 16.5801 53.7025 18.0833 53.523 19.7211C53.4782 20.1249 53.4557 20.5624 53.4557 21.0336C53.4557 22.1105 53.6128 23.0641 53.9269 23.8942C54.241 24.7243 54.6448 25.3637 55.1384 25.8124C55.632 26.2612 56.1929 26.6426 56.8211 26.9567C57.4493 27.2708 58.0327 27.4615 58.5711 27.5288C59.1096 27.5961 59.6144 27.641 60.0855 27.6634C61.2971 27.6634 62.4077 27.4054 63.4173 26.8894C64.4269 26.3733 65.1224 25.7115 65.5038 24.9038C65.5711 24.7243 65.7394 24.1073 66.0086 23.0528C66.2779 21.9983 66.4125 21.4038 66.4125 21.2692C66.4125 21.0897 66.2666 20.9775 65.975 20.9326C65.6833 20.8878 65.0102 20.8541 63.9557 20.8317H62.7105C62.5759 20.6971 62.5086 20.6073 62.5086 20.5624C62.5086 20.5176 62.5311 20.3044 62.5759 19.923C62.6657 19.6314 62.7779 19.4182 62.9125 19.2836H63.4846C64.382 19.3285 65.9525 19.3509 68.1961 19.3509C69.0936 19.3509 69.8227 19.3509 70.3836 19.3509C70.9445 19.3509 71.3484 19.3397 71.5952 19.3173C71.842 19.2948 71.9766 19.2948 71.999 19.3173C72.3131 19.3173 72.4702 19.4182 72.4702 19.6201C72.4702 19.665 72.4477 19.8221 72.4029 20.0913C72.2907 20.5176 72.1785 20.7532 72.0663 20.798C71.999 20.8205 71.8307 20.8317 71.5615 20.8317C71.1128 20.8317 70.6529 20.8653 70.1817 20.9326C70.0246 20.9999 69.9125 21.1009 69.8452 21.2355C69.7779 21.3701 69.6208 21.9423 69.374 22.9519C69.1721 23.6923 69.0038 24.3205 68.8692 24.8365C68.3083 27.1249 67.9942 28.3028 67.9269 28.3701C67.882 28.415 67.8259 28.4374 67.7586 28.4374C67.5343 28.4374 67.2202 28.2131 66.8163 27.7644C66.4125 27.3157 66.1545 26.9679 66.0423 26.7211C66.0423 26.6987 66.0198 26.6987 65.975 26.7211C65.9301 26.7435 65.8628 26.7996 65.773 26.8894C64.1128 28.4374 61.8692 29.2115 59.0423 29.2115C56.3275 29.2115 54.1288 28.3477 52.4461 26.6201C50.7634 24.8926 49.9109 22.6826 49.8884 19.9903Z" fill="white"/>
</g>
<g id="Group_5">
<path id="Vector_4" d="M77.2825 16.0192C77.2825 15.4808 77.4732 15.0096 77.8546 14.6058C78.236 14.2019 78.7184 14 79.3017 14C79.8402 14 80.3113 14.1795 80.7152 14.5385C81.119 14.8974 81.3322 15.3798 81.3546 15.9856C81.3546 16.5465 81.1639 17.0288 80.7825 17.4327C80.4011 17.8365 79.9187 18.0385 79.3354 18.0385C78.752 18.0385 78.2697 17.8478 77.8882 17.4663C77.5068 17.0849 77.3049 16.6026 77.2825 16.0192ZM77.2825 26.4519C77.2825 25.891 77.462 25.4087 77.8209 25.0048C78.1799 24.601 78.6623 24.399 79.268 24.399C80.7264 24.399 81.4555 25.6667 81.4555 28.2019C81.4555 29.3686 81.2424 30.5128 80.8161 31.6346C80.3898 32.7564 79.9523 33.5978 79.5036 34.1587C79.0549 34.7196 78.7632 35 78.6286 35C78.5613 35 78.4267 34.9103 78.2248 34.7308C78.0229 34.5513 77.8995 34.4167 77.8546 34.3269C77.8322 34.2596 77.9668 34.0465 78.2584 33.6875C78.5501 33.3285 78.8866 32.7901 79.268 32.0721C79.6495 31.3542 79.9075 30.5801 80.0421 29.75C80.0645 29.6154 80.087 29.4359 80.1094 29.2115C80.1318 28.9872 80.1655 28.7853 80.2104 28.6058C80.2552 28.4263 80.2552 28.3365 80.2104 28.3365C80.2104 28.3141 80.1655 28.3141 80.0757 28.3365C79.986 28.359 79.7729 28.4038 79.4363 28.4712C78.7184 28.4712 78.1799 28.2692 77.8209 27.8654C77.462 27.4615 77.2825 26.9904 77.2825 26.4519Z" fill="white"/>
</g>
<g id="Group_6">
<path id="Vector_5" d="M108.564 7.33651C108.564 7.17946 107.925 7.0785 106.646 7.03363C106.13 7.03363 105.793 7.02241 105.636 6.99998C105.479 6.97754 105.4 6.87658 105.4 6.69709C105.4 6.65222 105.423 6.49517 105.468 6.22594C105.602 5.77722 105.715 5.54164 105.804 5.51921C105.849 5.49677 105.973 5.48555 106.175 5.48555H106.343C107.263 5.53042 108.788 5.55286 110.92 5.55286C111.683 5.55286 112.389 5.55286 113.04 5.55286C113.691 5.55286 114.195 5.54164 114.554 5.51921C114.913 5.49677 115.138 5.49677 115.227 5.51921C115.609 5.51921 115.8 5.60895 115.8 5.78844C115.8 5.90062 115.766 6.05767 115.699 6.25959C115.676 6.30446 115.665 6.37177 115.665 6.46151C115.665 6.55126 115.654 6.61856 115.631 6.66344C115.609 6.70831 115.586 6.75318 115.564 6.79805C115.542 6.84292 115.508 6.87658 115.463 6.89901C115.418 6.92145 115.373 6.94389 115.328 6.96632C115.283 6.98876 115.205 6.99998 115.093 6.99998C114.981 6.99998 114.88 7.01119 114.79 7.03363C114.7 7.05606 114.543 7.05606 114.319 7.03363C113.421 7.05606 112.849 7.08972 112.602 7.13459C112.356 7.17946 112.154 7.30286 111.997 7.50478L109.271 18.2067C109.293 18.2067 111.357 16.5913 115.463 13.3606C119.569 10.1298 121.678 8.46953 121.79 8.37978C122.104 8.06568 122.261 7.80767 122.261 7.60575C122.261 7.26921 121.981 7.0785 121.42 7.03363C121.061 7.03363 120.881 6.91023 120.881 6.66344C120.881 6.61856 120.915 6.46151 120.982 6.19228C121.05 5.92305 121.106 5.75478 121.15 5.68748C121.218 5.5753 121.408 5.51921 121.723 5.51921C121.812 5.51921 122.205 5.53042 122.9 5.55286C123.596 5.5753 124.493 5.58651 125.593 5.58651C126.109 5.58651 126.647 5.5753 127.208 5.55286C127.769 5.53042 128.106 5.51921 128.218 5.51921C128.667 5.51921 128.891 5.63139 128.891 5.85575C128.891 6.34933 128.801 6.68587 128.622 6.86536C128.554 6.97754 128.341 7.03363 127.982 7.03363C126.3 7.14581 124.774 7.71792 123.405 8.74998C123.046 8.97433 122.261 9.55767 121.05 10.5C119.838 11.4423 118.716 12.3285 117.684 13.1586L116.102 14.4038L116.405 15.1442C116.607 15.6378 116.921 16.3894 117.348 17.399C117.774 18.4086 118.167 19.3622 118.525 20.2596C120.208 24.2307 121.106 26.2836 121.218 26.4182C121.263 26.4631 121.319 26.508 121.386 26.5529C121.7 26.7772 122.272 26.9006 123.102 26.9231H123.809C123.944 27.1025 124.011 27.2035 124.011 27.2259C124.011 27.2484 123.977 27.4503 123.91 27.8317C123.82 28.1234 123.708 28.3365 123.574 28.4711H123.203C122.306 28.4038 121.24 28.3702 120.006 28.3702C117.269 28.3702 115.732 28.4038 115.396 28.4711H115.059C114.925 28.3365 114.857 28.2356 114.857 28.1682C114.857 28.1009 114.88 27.899 114.925 27.5625C115.014 27.2708 115.082 27.0913 115.126 27.024C115.171 26.9567 115.295 26.9231 115.497 26.9231H115.598C116.719 26.9231 117.28 26.6426 117.28 26.0817C117.28 25.992 116.977 25.2067 116.372 23.7259C115.766 22.2452 115.407 21.4038 115.295 21.2019L113.343 16.5577L111.054 18.3413L108.766 20.125L107.992 23.2548C107.476 25.3189 107.218 26.407 107.218 26.5192C107.218 26.6763 107.308 26.7772 107.487 26.8221C107.667 26.867 108.227 26.9006 109.17 26.9231H110.213C110.348 27.125 110.415 27.2484 110.415 27.2932C110.415 27.6522 110.336 27.9888 110.179 28.3029C110.067 28.415 109.888 28.4711 109.641 28.4711C109.574 28.4711 109.158 28.4599 108.396 28.4375C107.633 28.415 106.511 28.4038 105.03 28.4038C103.639 28.4038 102.574 28.4038 101.833 28.4038C101.093 28.4038 100.689 28.415 100.622 28.4375C100.218 28.4375 100.016 28.3253 100.016 28.1009C100.016 28.0561 100.05 27.899 100.117 27.6298C100.207 27.2708 100.296 27.0689 100.386 27.024C100.476 26.9791 100.734 26.9455 101.16 26.9231C101.766 26.9231 102.439 26.8894 103.179 26.8221C103.493 26.7548 103.707 26.6202 103.819 26.4182C103.886 26.3285 104.694 23.2099 106.242 17.0625C107.79 10.915 108.564 7.67305 108.564 7.33651Z" fill="white"/>
</g>
<g id="Group_7">
<path id="Vector_6" d="M131.516 16.0192C131.516 15.4808 131.706 15.0096 132.088 14.6058C132.469 14.2019 132.952 14 133.535 14C134.073 14 134.544 14.1795 134.948 14.5385C135.352 14.8974 135.565 15.3798 135.588 15.9856C135.588 16.5465 135.397 17.0288 135.016 17.4327C134.634 17.8365 134.152 18.0385 133.569 18.0385C132.985 18.0385 132.503 17.8478 132.121 17.4663C131.74 17.0849 131.538 16.6026 131.516 16.0192ZM131.516 26.4519C131.516 25.891 131.695 25.4087 132.054 25.0048C132.413 24.601 132.895 24.399 133.501 24.399C134.96 24.399 135.689 25.6667 135.689 28.2019C135.689 29.3686 135.476 30.5128 135.049 31.6346C134.623 32.7564 134.185 33.5978 133.737 34.1587C133.288 34.7196 132.996 35 132.862 35C132.794 35 132.66 34.9103 132.458 34.7308C132.256 34.5513 132.133 34.4167 132.088 34.3269C132.065 34.2596 132.2 34.0465 132.492 33.6875C132.783 33.3285 133.12 32.7901 133.501 32.0721C133.883 31.3542 134.141 30.5801 134.275 29.75C134.298 29.6154 134.32 29.4359 134.343 29.2115C134.365 28.9872 134.399 28.7853 134.444 28.6058C134.488 28.4263 134.488 28.3365 134.444 28.3365C134.444 28.3141 134.399 28.3141 134.309 28.3365C134.219 28.359 134.006 28.4038 133.669 28.4712C132.952 28.4712 132.413 28.2692 132.054 27.8654C131.695 27.4615 131.516 26.9904 131.516 26.4519Z" fill="white"/>
</g>
<g id="Group_8">
<g id="Group_9">
<g id="Group_10">
<path id="Vector_7" d="M161.077 7.03363C161.01 7.03363 160.92 7.03363 160.808 7.03363C160.247 7.03363 159.911 7.02241 159.798 6.99998C159.686 6.97754 159.63 6.85414 159.63 6.62978C159.63 6.02401 159.754 5.65382 160 5.51921C160.045 5.49677 161.133 5.48555 163.265 5.48555C164.992 5.48555 165.98 5.48555 166.226 5.48555C166.473 5.48555 166.63 5.55286 166.698 5.68748C171.432 16.8157 173.843 22.5256 173.933 22.8173L175.75 15.649C176.94 10.915 177.534 8.391 177.534 8.0769C177.534 7.47113 176.816 7.12337 175.38 7.03363C174.842 7.03363 174.573 6.91023 174.573 6.66344C174.573 6.61856 174.595 6.48395 174.64 6.25959C174.73 5.90062 174.797 5.68748 174.842 5.62017C174.887 5.55286 174.999 5.50799 175.178 5.48555C175.246 5.48555 175.593 5.49677 176.222 5.51921C176.85 5.54164 177.781 5.56408 179.015 5.58651C180.137 5.58651 180.989 5.5753 181.573 5.55286C182.156 5.53042 182.492 5.51921 182.582 5.51921C182.919 5.51921 183.087 5.63139 183.087 5.85575C183.087 6.34933 182.997 6.68587 182.818 6.86536C182.773 6.97754 182.526 7.03363 182.077 7.03363C180.484 7.12337 179.486 7.57209 179.082 8.37978L174.068 28.2356C174.023 28.3926 173.787 28.4711 173.361 28.4711C173.047 28.4711 172.856 28.4487 172.789 28.4038C172.722 28.3365 171.274 24.9375 168.448 18.2067L164.173 8.14421L161.986 16.8942C160.528 22.6378 159.798 25.6106 159.798 25.8125C159.911 26.5529 160.718 26.9231 162.222 26.9231H162.558C162.693 27.0352 162.76 27.125 162.76 27.1923C162.76 27.2596 162.738 27.4727 162.693 27.8317C162.603 28.1234 162.491 28.3365 162.356 28.4711H161.919C161.223 28.4263 160.012 28.4038 158.284 28.4038C157.656 28.4038 157.084 28.4038 156.568 28.4038C156.052 28.4038 155.637 28.4038 155.323 28.4038C155.008 28.4038 154.818 28.415 154.75 28.4375C154.414 28.4375 154.246 28.3365 154.246 28.1346C154.246 28.0448 154.279 27.8654 154.347 27.5961C154.414 27.3269 154.47 27.1698 154.515 27.125C154.56 26.9904 154.818 26.9231 155.289 26.9231C156.815 26.8557 157.802 26.4182 158.25 25.6106C158.34 25.4759 159.137 22.3686 160.64 16.2884L162.928 7.13459C162.883 7.11215 162.266 7.0785 161.077 7.03363Z" fill="white"/>
</g>
<g id="Group_11">
<path id="Vector_8" d="M170.706 2.25477C170.369 2.25477 170.055 2.32208 169.763 2.45669C169.472 2.59131 169.247 2.71471 169.09 2.82689C168.933 2.93906 168.709 3.15221 168.417 3.46631L167.946 3.06246L167.475 2.69227C167.475 2.66983 167.609 2.50156 167.879 2.18746C168.148 1.87336 168.44 1.53682 168.754 1.17785C169.068 0.818872 169.303 0.583296 169.46 0.471116C169.976 0.157014 170.481 -3.76701e-05 170.975 -3.76701e-05C171.468 -3.76701e-05 172.209 0.201885 173.196 0.605731C174.183 1.00958 174.935 1.2115 175.451 1.2115C175.787 1.2115 176.101 1.14419 176.393 1.00958C176.685 0.874962 176.909 0.751565 177.066 0.639385C177.223 0.527206 177.448 0.314065 177.739 -3.76701e-05L178.21 0.403808L178.682 0.774001C177.762 2.09772 176.954 2.91663 176.259 3.23073C175.944 3.38778 175.597 3.46631 175.215 3.46631C174.744 3.46631 174.015 3.26439 173.028 2.86054C172.041 2.45669 171.267 2.25477 170.706 2.25477Z" fill="white"/>
</g>
</g>
</g>
<g id="Group_12">
<path id="Vector_9" d="M185.712 16.0192C185.712 15.4808 185.903 15.0096 186.284 14.6058C186.666 14.2019 187.148 14 187.731 14C188.27 14 188.741 14.1795 189.145 14.5385C189.549 14.8974 189.762 15.3798 189.784 15.9856C189.784 16.5465 189.594 17.0288 189.212 17.4327C188.831 17.8365 188.348 18.0385 187.765 18.0385C187.182 18.0385 186.699 17.8478 186.318 17.4663C185.937 17.0849 185.735 16.6026 185.712 16.0192ZM185.712 26.4519C185.712 25.891 185.892 25.4087 186.251 25.0048C186.61 24.601 187.092 24.399 187.698 24.399C189.156 24.399 189.885 25.6667 189.885 28.2019C189.885 29.3686 189.672 30.5128 189.246 31.6346C188.82 32.7564 188.382 33.5978 187.933 34.1587C187.485 34.7196 187.193 35 187.058 35C186.991 35 186.856 34.9103 186.654 34.7308C186.453 34.5513 186.329 34.4167 186.284 34.3269C186.262 34.2596 186.396 34.0465 186.688 33.6875C186.98 33.3285 187.316 32.7901 187.698 32.0721C188.079 31.3542 188.337 30.5801 188.472 29.75C188.494 29.6154 188.517 29.4359 188.539 29.2115C188.562 28.9872 188.595 28.7853 188.64 28.6058C188.685 28.4263 188.685 28.3365 188.64 28.3365C188.64 28.3141 188.595 28.3141 188.505 28.3365C188.416 28.359 188.203 28.4038 187.866 28.4712C187.148 28.4712 186.61 28.2692 186.251 27.8654C185.892 27.4615 185.712 26.9904 185.712 26.4519Z" fill="white"/>
</g>
<g id="Group_13">
<path id="Vector_10" d="M215.142 7.03363C214.536 7.03363 214.178 7.02241 214.065 6.99997C213.953 6.97754 213.897 6.85414 213.897 6.62978C213.897 6.02401 214.02 5.65382 214.267 5.5192C214.312 5.49677 216.264 5.48555 220.123 5.48555C223.982 5.50799 226.069 5.54164 226.383 5.58651C227.639 5.766 228.694 6.0801 229.546 6.52882C230.399 6.97754 231.004 7.49356 231.363 8.0769C231.722 8.66023 231.958 9.1426 232.07 9.52401C232.182 9.90542 232.25 10.2868 232.272 10.6682C232.272 11.6779 231.947 12.6202 231.296 13.4952C230.645 14.3702 229.894 15.0432 229.041 15.5144C228.189 15.9855 227.437 16.367 226.786 16.6586C226.136 16.9503 225.71 17.0961 225.508 17.0961L225.743 17.2644C227.246 18.117 227.998 19.3509 227.998 20.9663C227.998 21.2131 227.942 21.8974 227.83 23.0192C227.718 24.141 227.661 25.0609 227.661 25.7788V26.0817C227.661 26.4855 227.673 26.7997 227.695 27.024C227.718 27.2484 227.841 27.4503 228.065 27.6298C228.29 27.8093 228.581 27.9102 228.94 27.9327C229.569 27.9327 230.085 27.6859 230.488 27.1923C230.892 26.6987 231.184 26.1714 231.363 25.6105C231.476 25.2964 231.565 25.1057 231.633 25.0384C231.7 24.9711 231.868 24.9375 232.137 24.9375C232.586 24.9375 232.811 25.0721 232.811 25.3413C232.811 25.7452 232.541 26.3846 232.003 27.2596C231.15 28.5384 230.141 29.1779 228.974 29.1779H228.671C227.303 29.1779 226.17 28.8974 225.272 28.3365C224.375 27.7756 223.881 26.9006 223.791 25.7115C223.791 25.1057 223.96 24.1634 224.296 22.8846C224.633 21.6057 224.801 20.7868 224.801 20.4279C224.801 19.2836 224.319 18.4535 223.354 17.9375C223.017 17.7804 222.737 17.6907 222.512 17.6682C222.288 17.6458 221.492 17.6234 220.123 17.6009H217.801L216.724 21.9759C215.984 24.9375 215.613 26.4407 215.613 26.4855C215.613 26.5753 215.625 26.6314 215.647 26.6538C215.67 26.6763 215.748 26.7211 215.883 26.7884C216.017 26.8557 216.208 26.8782 216.455 26.8557C216.702 26.8333 217.072 26.8557 217.565 26.923H218.609C218.743 27.1025 218.811 27.2035 218.811 27.2259C218.811 27.2484 218.777 27.4503 218.71 27.8317C218.62 28.1234 218.508 28.3365 218.373 28.4711H217.868C217.061 28.4263 215.591 28.4038 213.46 28.4038C212.697 28.4038 211.99 28.4038 211.339 28.4038C210.689 28.4038 210.173 28.4038 209.791 28.4038C209.41 28.4038 209.174 28.415 209.085 28.4375C208.703 28.4375 208.512 28.3365 208.512 28.1346C208.512 28.0897 208.546 27.9327 208.613 27.6634C208.726 27.2372 208.838 27.0016 208.95 26.9567C209.04 26.9343 209.208 26.923 209.455 26.923H209.657C210.262 26.923 210.936 26.8894 211.676 26.8221C211.99 26.7548 212.203 26.6202 212.315 26.4182C212.383 26.3285 213.19 23.2099 214.738 17.0625C216.286 10.915 217.061 7.67305 217.061 7.33651C217.061 7.17946 216.421 7.0785 215.142 7.03363ZM228.604 9.8269C228.604 9.10895 228.368 8.50318 227.897 8.00959C227.426 7.516 226.461 7.2019 225.003 7.06728C224.958 7.06728 224.7 7.06728 224.229 7.06728C223.758 7.06728 223.331 7.05606 222.95 7.03363H222.21C221.155 7.03363 220.549 7.14581 220.392 7.37016C220.37 7.43747 219.988 8.92946 219.248 11.8461C218.508 14.7628 218.137 16.2548 218.137 16.3221C218.137 16.3445 218.911 16.3557 220.46 16.3557C222.21 16.3333 223.376 16.2548 223.96 16.1202C225.395 15.8958 226.517 15.2339 227.325 14.1346C227.684 13.6186 227.987 12.9455 228.234 12.1154C228.48 11.2852 228.604 10.5224 228.604 9.8269Z" fill="white"/>
</g>
<g id="Group_14">
<path id="Vector_11" d="M235.57 16.0192C235.57 15.4808 235.761 15.0096 236.142 14.6058C236.524 14.2019 237.006 14 237.589 14C238.128 14 238.599 14.1795 239.003 14.5385C239.407 14.8974 239.62 15.3798 239.642 15.9856C239.642 16.5465 239.451 17.0288 239.07 17.4327C238.689 17.8365 238.206 18.0385 237.623 18.0385C237.04 18.0385 236.557 17.8478 236.176 17.4663C235.794 17.0849 235.593 16.6026 235.57 16.0192ZM235.57 26.4519C235.57 25.891 235.75 25.4087 236.109 25.0048C236.468 24.601 236.95 24.399 237.556 24.399C239.014 24.399 239.743 25.6667 239.743 28.2019C239.743 29.3686 239.53 30.5128 239.104 31.6346C238.677 32.7564 238.24 33.5978 237.791 34.1587C237.343 34.7196 237.051 35 236.916 35C236.849 35 236.714 34.9103 236.512 34.7308C236.31 34.5513 236.187 34.4167 236.142 34.3269C236.12 34.2596 236.254 34.0465 236.546 33.6875C236.838 33.3285 237.174 32.7901 237.556 32.0721C237.937 31.3542 238.195 30.5801 238.33 29.75C238.352 29.6154 238.375 29.4359 238.397 29.2115C238.419 28.9872 238.453 28.7853 238.498 28.6058C238.543 28.4263 238.543 28.3365 238.498 28.3365C238.498 28.3141 238.453 28.3141 238.363 28.3365C238.274 28.359 238.06 28.4038 237.724 28.4712C237.006 28.4712 236.468 28.2692 236.109 27.8654C235.75 27.4615 235.57 26.9904 235.57 26.4519Z" fill="white"/>
</g>
<g id="Group_15">
<path id="Vector_12" d="M259.007 6.66341C259.007 6.16982 259.153 5.77719 259.444 5.48552H259.815C260.757 5.55283 261.935 5.58648 263.348 5.58648C265.996 5.58648 267.555 5.55283 268.026 5.48552H268.363C268.497 5.62014 268.565 5.7211 268.565 5.78841C268.565 5.85572 268.542 6.05764 268.497 6.39418C268.385 6.73072 268.284 6.94386 268.194 7.0336H267.488C266.994 7.07847 266.657 7.10091 266.478 7.10091C265.827 7.21309 265.468 7.38136 265.401 7.60572C265.401 7.65059 265.726 10.4663 266.377 16.0528C267.028 21.6394 267.364 24.4551 267.387 24.4999L269.843 20.5624C271.481 17.9374 273.119 15.29 274.757 12.6201C276.395 9.95027 277.236 8.57046 277.281 8.48072C277.371 8.32367 277.415 8.1554 277.415 7.97591C277.415 7.43745 276.922 7.12334 275.935 7.0336C275.531 7.0336 275.329 6.9102 275.329 6.66341C275.329 6.64097 275.351 6.49514 275.396 6.22591C275.464 5.91181 275.531 5.70988 275.598 5.62014C275.665 5.5304 275.811 5.48552 276.036 5.48552C276.081 5.48552 276.215 5.48552 276.44 5.48552C276.664 5.48552 277.045 5.49674 277.584 5.51918C278.122 5.54161 278.84 5.55283 279.738 5.55283C281.286 5.55283 282.262 5.5304 282.665 5.48552H282.901C283.058 5.64258 283.137 5.76597 283.137 5.85572C283.137 6.23713 283.036 6.5961 282.834 6.93264C282.766 6.99995 282.576 7.0336 282.262 7.0336C281.97 7.05604 281.701 7.07847 281.454 7.10091C281.207 7.12334 280.972 7.17943 280.747 7.26918C280.523 7.35892 280.343 7.43745 280.209 7.50476C280.074 7.57206 279.94 7.66181 279.805 7.77398C279.67 7.88617 279.558 7.96469 279.468 8.00956C279.379 8.05443 279.289 8.1554 279.199 8.31245C279.109 8.4695 279.031 8.54803 278.964 8.54803L272.468 18.9807C268.43 25.5096 266.343 28.8525 266.209 29.0096C266.141 29.0544 266.063 29.1105 265.973 29.1778L265.367 29.2115H265.132C264.728 29.2115 264.526 29.133 264.526 28.9759C264.459 28.8413 264.021 25.2516 263.214 18.2067C262.361 11.0721 261.924 7.4711 261.901 7.40379C261.789 7.157 261.093 7.0336 259.815 7.0336H259.242C259.085 6.92142 259.007 6.79802 259.007 6.66341Z" fill="white"/>
</g>
<g id="Group_16">
<path id="Vector_13" d="M285.762 16.0192C285.762 15.4808 285.952 15.0096 286.334 14.6058C286.715 14.2019 287.198 14 287.781 14C288.319 14 288.791 14.1795 289.194 14.5385C289.598 14.8974 289.811 15.3798 289.834 15.9856C289.834 16.5465 289.643 17.0288 289.262 17.4327C288.88 17.8365 288.398 18.0385 287.815 18.0385C287.231 18.0385 286.749 17.8478 286.367 17.4663C285.986 17.0849 285.784 16.6026 285.762 16.0192ZM285.762 26.4519C285.762 25.891 285.941 25.4087 286.3 25.0048C286.659 24.601 287.142 24.399 287.747 24.399C289.206 24.399 289.935 25.6667 289.935 28.2019C289.935 29.3686 289.722 30.5128 289.295 31.6346C288.869 32.7564 288.432 33.5978 287.983 34.1587C287.534 34.7196 287.242 35 287.108 35C287.041 35 286.906 34.9103 286.704 34.7308C286.502 34.5513 286.379 34.4167 286.334 34.3269C286.311 34.2596 286.446 34.0465 286.738 33.6875C287.029 33.3285 287.366 32.7901 287.747 32.0721C288.129 31.3542 288.387 30.5801 288.521 29.75C288.544 29.6154 288.566 29.4359 288.589 29.2115C288.611 28.9872 288.645 28.7853 288.69 28.6058C288.734 28.4263 288.734 28.3365 288.69 28.3365C288.69 28.3141 288.645 28.3141 288.555 28.3365C288.465 28.359 288.252 28.4038 287.916 28.4712C287.198 28.4712 286.659 28.2692 286.3 27.8654C285.941 27.4615 285.762 26.9904 285.762 26.4519Z" fill="white"/>
</g>
<g id="Group_17">
<path id="Vector_14" d="M315.683 26.4519C315.683 25.9134 315.874 25.4423 316.255 25.0384C316.637 24.6346 317.119 24.4327 317.702 24.4327C318.241 24.4327 318.712 24.6122 319.116 24.9711C319.52 25.3301 319.733 25.8125 319.755 26.4182C319.755 26.9791 319.565 27.4615 319.183 27.8654C318.802 28.2692 318.319 28.4711 317.736 28.4711C317.153 28.4711 316.67 28.2804 316.289 27.899C315.907 27.5176 315.706 27.0352 315.683 26.4519ZM330.726 26.4519C330.726 25.9134 330.917 25.4423 331.298 25.0384C331.68 24.6346 332.162 24.4327 332.746 24.4327C333.284 24.4327 333.755 24.6122 334.159 24.9711C334.563 25.3301 334.776 25.8125 334.798 26.4182C334.798 26.9791 334.608 27.4615 334.226 27.8654C333.845 28.2692 333.363 28.4711 332.779 28.4711C332.196 28.4711 331.714 28.2804 331.332 27.899C330.951 27.5176 330.749 27.0352 330.726 26.4519ZM345.77 26.4519C345.77 25.9134 345.96 25.4423 346.342 25.0384C346.723 24.6346 347.206 24.4327 347.789 24.4327C348.327 24.4327 348.798 24.6122 349.202 24.9711C349.606 25.3301 349.819 25.8125 349.842 26.4182C349.842 26.9791 349.651 27.4615 349.27 27.8654C348.888 28.2692 348.406 28.4711 347.823 28.4711C347.239 28.4711 346.757 28.2804 346.375 27.899C345.994 27.5176 345.792 27.0352 345.77 26.4519Z" fill="white"/>
</g>
</g>
</g>
<g id="3\;7\;11\;15\;19\;23">
<g id="Group_18">
<g id="Group_19">
<path id="Vector_15" d="M8.04441 54.235C7.39971 54.235 6.89828 54.032 6.54011 53.6261C6.18195 53.2202 5.99093 52.6948 5.96705 52.0501C5.96705 50.7369 6.54011 49.5669 7.68625 48.5401C8.83238 47.5134 10.2173 47 11.841 47C12.6767 47 13.202 47.0119 13.4169 47.0358C15.1839 47.3224 16.533 47.9551 17.4642 48.9341C18.3954 49.9131 18.873 50.9756 18.8968 52.1218C18.8968 53.3634 18.4909 54.5692 17.6791 55.7393C16.8672 56.9093 15.745 57.7569 14.3123 58.2822L14.2049 58.3539C14.2049 58.3777 14.3123 58.4136 14.5272 58.4613C14.7421 58.5091 15.0883 58.6165 15.5659 58.7837C16.0435 58.9508 16.4971 59.2015 16.9269 59.5358C18.8849 60.8013 19.8639 62.4728 19.8639 64.5501C19.8639 66.4365 19.1237 68.0841 17.6433 69.4928C16.1628 70.9016 14.2884 71.606 12.0201 71.606C10.1098 71.606 8.46227 71.0926 7.07736 70.0659C5.69245 69.0392 5 67.7378 5 66.1619C5 65.4933 5.2149 64.9561 5.6447 64.5501C6.0745 64.1442 6.61175 63.9293 7.25645 63.9054C7.92502 63.9054 8.47421 64.1203 8.90401 64.5501C9.33381 64.9799 9.54871 65.5172 9.54871 66.1619C9.54871 66.4245 9.51289 66.6633 9.44126 66.8782C9.36963 67.0931 9.28606 67.2841 9.19054 67.4513C9.09503 67.6184 8.96371 67.7617 8.79656 67.8811C8.62942 68.0005 8.48615 68.096 8.36676 68.1676C8.24737 68.2393 8.12798 68.287 8.0086 68.3109C7.88921 68.3348 7.7937 68.3706 7.72206 68.4183L7.5788 68.4542C8.79656 69.5287 10.277 70.0659 12.0201 70.0659C13.3333 70.0659 14.3243 69.4331 14.9928 68.1676C15.3988 67.3797 15.6017 66.1738 15.6017 64.5501V63.8338C15.6017 61.5654 14.8376 60.0492 13.3095 59.2851C12.9513 59.1418 12.223 59.0583 11.1246 59.0344L9.62034 58.9986L9.51289 58.9269C9.46514 58.8553 9.44126 58.6643 9.44126 58.3539C9.44126 57.9241 9.53677 57.7092 9.72779 57.7092C10.3964 57.7092 11.0888 57.6495 11.8052 57.5301C12.617 57.4107 13.3572 56.9093 14.0258 56.0258C14.6944 55.1423 15.0287 53.8052 15.0287 52.0143V51.7278C15.0287 50.3668 14.6108 49.4236 13.7751 48.8983C13.2498 48.564 12.6886 48.3969 12.0917 48.3969C11.3276 48.3969 10.6232 48.5282 9.97851 48.7908C9.33381 49.0535 8.88013 49.3281 8.61748 49.6146C8.35482 49.9011 8.2235 50.0444 8.2235 50.0444H8.33095C8.40258 50.0683 8.49809 50.0922 8.61748 50.116C8.73687 50.1399 8.85626 50.1996 8.97564 50.2951C9.09503 50.3906 9.2383 50.4742 9.40544 50.5458C9.57259 50.6175 9.69198 50.7488 9.76361 50.9398C9.83524 51.1309 9.93075 51.3099 10.0501 51.4771C10.1695 51.6442 10.2053 51.883 10.1576 52.1934C10.1576 52.7187 9.99045 53.1843 9.65616 53.5903C9.32187 53.9962 8.78462 54.2111 8.04441 54.235Z" fill="white"/>
</g>
<g id="Group_20">
<path id="Vector_16" d="M54 53.808C54.0239 53.7603 54.2268 52.4589 54.6089 49.904L55.1819 46.0716C55.1819 46.0239 55.4207 46 55.8983 46H56.6146V46.1433C56.6146 46.382 56.7937 46.585 57.1519 46.7521C57.51 46.9193 58.1308 47.0267 59.0143 47.0745C59.8978 47.1223 61.9155 47.1461 65.0673 47.1461H69.4011V48.543L66.9656 51.8739C66.7507 52.1605 66.3925 52.638 65.8911 53.3066C65.3897 53.9752 65.0673 54.4169 64.9241 54.6318C64.7808 54.8467 64.5301 55.2287 64.1719 55.7779C63.8138 56.3271 63.575 56.7569 63.4556 57.0673C63.3362 57.3777 63.1691 57.8195 62.9542 58.3926C62.7393 58.9656 62.584 59.5148 62.4885 60.0401C62.393 60.5654 62.2975 61.2101 62.202 61.9742C62.1065 62.7383 62.0349 63.5501 61.9871 64.4097C61.9394 65.2693 61.9035 66.2483 61.8797 67.3467C61.8797 67.681 61.8797 68.0153 61.8797 68.3496C61.8797 68.6839 61.8677 68.9704 61.8438 69.2092V69.5315C61.7483 69.9374 61.5215 70.2837 61.1633 70.5702C60.8052 70.8567 60.3992 71 59.9456 71C59.6829 71 59.4322 70.9642 59.1934 70.8926C58.9546 70.8209 58.7039 70.5941 58.4413 70.212C58.1786 69.83 58.0473 69.3524 58.0473 68.7794C58.0473 65.0067 59.2053 61.0907 61.5215 57.0315C61.999 56.2674 63.0019 54.8228 64.5301 52.6977L66.1776 50.4413H62.8467C58.692 50.4413 56.5072 50.5129 56.2923 50.6562C56.149 50.7278 56.0177 51.0143 55.8983 51.5158C55.7789 52.0172 55.6595 52.5306 55.5401 53.0559L55.4327 53.808V53.9155H54V53.808Z" fill="white"/>
</g>
<g id="Group_21">
<path id="Vector_17" d="M100.656 50.1519L100.191 50.331C99.8563 50.4503 99.3787 50.5697 98.7579 50.6891C98.1371 50.8085 97.4446 50.8921 96.6805 50.9398H96V49.2923H96.6805C97.8028 49.2445 98.8415 49.0654 99.7966 48.755C100.752 48.4446 101.42 48.1581 101.802 47.8954C102.184 47.6328 102.519 47.3701 102.805 47.1075C102.853 47.0358 102.996 47 103.235 47C103.45 47 103.653 47.0716 103.844 47.2149V57.9241L103.88 68.6691C104.047 68.8362 104.19 68.9437 104.309 68.9914C104.429 69.0392 104.715 69.0869 105.169 69.1347C105.623 69.1824 106.363 69.2063 107.39 69.2063H108.321V70.8539H107.927C107.426 70.7822 105.527 70.7464 102.232 70.7464C98.9847 70.7464 97.1103 70.7822 96.6089 70.8539H96.1791V69.2063H97.1103C97.6356 69.2063 98.0893 69.2063 98.4713 69.2063C98.8534 69.2063 99.1519 69.1944 99.3668 69.1705C99.5817 69.1466 99.7727 69.1108 99.9398 69.0631C100.107 69.0153 100.202 68.9914 100.226 68.9914C100.25 68.9914 100.322 68.9317 100.441 68.8123C100.561 68.6929 100.632 68.6452 100.656 68.6691V50.1519Z" fill="white"/>
<path id="Vector_18" d="M118.565 50.1519L118.099 50.331C117.765 50.4503 117.287 50.5697 116.666 50.6891C116.046 50.8085 115.353 50.8921 114.589 50.9398H113.908V49.2923H114.589C115.711 49.2445 116.75 49.0654 117.705 48.755C118.66 48.4446 119.329 48.1581 119.711 47.8954C120.093 47.6328 120.427 47.3701 120.714 47.1075C120.761 47.0358 120.905 47 121.143 47C121.358 47 121.561 47.0716 121.752 47.2149V57.9241L121.788 68.6691C121.955 68.8362 122.099 68.9437 122.218 68.9914C122.337 69.0392 122.624 69.0869 123.078 69.1347C123.531 69.1824 124.271 69.2063 125.298 69.2063H126.229V70.8539H125.835C125.334 70.7822 123.436 70.7464 120.141 70.7464C116.893 70.7464 115.019 70.7822 114.517 70.8539H114.088V69.2063H115.019C115.544 69.2063 115.998 69.2063 116.38 69.2063C116.762 69.2063 117.06 69.1944 117.275 69.1705C117.49 69.1466 117.681 69.1108 117.848 69.0631C118.015 69.0153 118.111 68.9914 118.135 68.9914C118.159 68.9914 118.23 68.9317 118.35 68.8123C118.469 68.6929 118.541 68.6452 118.565 68.6691V50.1519Z" fill="white"/>
</g>
<g id="Group_22">
<path id="Vector_19" d="M153.656 52.1519L153.191 52.331C152.856 52.4503 152.379 52.5697 151.758 52.6891C151.137 52.8085 150.445 52.8921 149.681 52.9398H149V51.2923H149.681C150.803 51.2445 151.841 51.0654 152.797 50.755C153.752 50.4446 154.42 50.1581 154.802 49.8954C155.184 49.6328 155.519 49.3701 155.805 49.1075C155.853 49.0358 155.996 49 156.235 49C156.45 49 156.653 49.0716 156.844 49.2149V59.9241L156.88 70.6691C157.047 70.8362 157.19 70.9437 157.309 70.9914C157.429 71.0392 157.715 71.0869 158.169 71.1347C158.623 71.1824 159.363 71.2063 160.39 71.2063H161.321V72.8539H160.927C160.426 72.7822 158.527 72.7464 155.232 72.7464C151.985 72.7464 150.11 72.7822 149.609 72.8539H149.179V71.2063H150.11C150.636 71.2063 151.089 71.2063 151.471 71.2063C151.853 71.2063 152.152 71.1944 152.367 71.1705C152.582 71.1466 152.773 71.1108 152.94 71.0631C153.107 71.0153 153.202 70.9914 153.226 70.9914C153.25 70.9914 153.322 70.9317 153.441 70.8123C153.561 70.6929 153.632 70.6452 153.656 70.6691V52.1519Z" fill="white"/>
<path id="Vector_20" d="M169.809 67.2307C169.809 67.8037 169.618 68.2813 169.236 68.6633C168.854 69.0454 168.389 69.2364 167.839 69.2364H167.589C168.687 71.1227 170.144 72.0659 171.958 72.0659C173.63 72.0659 174.848 71.3496 175.612 69.9169C176.065 69.129 176.292 67.6008 176.292 65.3324C176.292 62.873 175.97 61.2135 175.325 60.3539C174.704 59.5659 174.012 59.1719 173.248 59.1719H173.033C171.17 59.1719 169.762 59.9838 168.807 61.6075C168.711 61.7746 168.627 61.8701 168.556 61.894C168.484 61.9179 168.305 61.9417 168.019 61.9656C167.613 61.9656 167.386 61.894 167.338 61.7507C167.29 61.6552 167.266 59.5659 167.266 55.4828V50.8625C167.266 49.6686 167.326 49.0716 167.446 49.0716C167.493 49.0239 167.541 49 167.589 49C167.613 49 167.863 49.0955 168.341 49.2865C168.818 49.4776 169.475 49.6686 170.311 49.8596C171.147 50.0506 172.042 50.1461 172.997 50.1461C174.692 50.1461 176.316 49.8119 177.868 49.1433C178.059 49.0478 178.214 49 178.334 49C178.525 49 178.62 49.2149 178.62 49.6447V50.1103C176.662 52.4265 174.215 53.5845 171.278 53.5845C170.538 53.5845 169.869 53.5129 169.272 53.3696L168.914 53.298V59.4585C169.368 59.1242 169.726 58.8615 169.988 58.6705C170.251 58.4795 170.681 58.2885 171.278 58.0974C171.875 57.9064 172.484 57.8109 173.105 57.8109C175.039 57.8109 176.674 58.5869 178.011 60.139C179.349 61.691 180.017 63.5296 180.017 65.6547C180.017 67.8515 179.253 69.7259 177.725 71.2779C176.197 72.83 174.334 73.618 172.137 73.6418C170.203 73.6418 168.651 72.9971 167.481 71.7077C166.311 70.4183 165.726 68.9618 165.726 67.3381C165.726 66.7651 165.858 66.3114 166.12 65.9771C166.383 65.6428 166.658 65.4279 166.944 65.3324C167.231 65.2369 167.505 65.1891 167.768 65.1891C168.365 65.1891 168.854 65.3921 169.236 65.798C169.618 66.2039 169.809 66.6815 169.809 67.2307Z" fill="white"/>
</g>
<g id="Group_23">
<path id="Vector_21" d="M206.656 52.1519L206.191 52.331C205.856 52.4503 205.379 52.5697 204.758 52.6891C204.137 52.8085 203.445 52.8921 202.681 52.9398H202V51.2923H202.681C203.803 51.2445 204.841 51.0654 205.797 50.755C206.752 50.4446 207.42 50.1581 207.802 49.8954C208.184 49.6328 208.519 49.3701 208.805 49.1075C208.853 49.0358 208.996 49 209.235 49C209.45 49 209.653 49.0716 209.844 49.2149V59.9241L209.88 70.6691C210.047 70.8362 210.19 70.9437 210.309 70.9914C210.429 71.0392 210.715 71.0869 211.169 71.1347C211.623 71.1824 212.363 71.2063 213.39 71.2063H214.321V72.8539H213.927C213.426 72.7822 211.527 72.7464 208.232 72.7464C204.985 72.7464 203.11 72.7822 202.609 72.8539H202.179V71.2063H203.11C203.636 71.2063 204.089 71.2063 204.471 71.2063C204.853 71.2063 205.152 71.1944 205.367 71.1705C205.582 71.1466 205.773 71.1108 205.94 71.0631C206.107 71.0153 206.202 70.9914 206.226 70.9914C206.25 70.9914 206.322 70.9317 206.441 70.8123C206.561 70.6929 206.632 70.6452 206.656 70.6691V52.1519Z" fill="white"/>
<path id="Vector_22" d="M229.543 62.5745C228.397 64.3892 226.964 65.2966 225.245 65.2966C223.383 65.2966 221.854 64.5922 220.661 63.1834C219.467 61.7746 218.75 60.2703 218.512 58.6705C218.464 58.2885 218.44 57.8109 218.44 57.2378V56.9513C218.44 54.7307 219.264 52.7966 220.911 51.149C222.344 49.7163 223.92 49 225.639 49C225.687 49 225.758 49 225.854 49C225.949 49 226.045 49.0119 226.141 49.0358H226.284C226.57 49.0358 226.869 49.0597 227.179 49.1075C227.49 49.1552 227.931 49.2985 228.504 49.5373C229.077 49.776 229.639 50.1581 230.188 50.6834C230.737 51.2087 231.25 51.9131 231.728 52.7966C232.755 54.8978 233.268 57.596 233.268 60.8911C233.268 64.234 232.552 67.0635 231.119 69.3797C230.283 70.7168 229.28 71.7555 228.11 72.4957C226.94 73.2359 225.699 73.618 224.385 73.6418C222.929 73.6418 221.735 73.2956 220.804 72.6032C219.873 71.9107 219.395 70.884 219.371 69.5229C219.347 68.1619 219.98 67.4933 221.269 67.5172C221.795 67.5172 222.237 67.6843 222.595 68.0186C222.953 68.3529 223.132 68.8185 223.132 69.4155C223.132 69.8453 223.024 70.2154 222.81 70.5258C222.595 70.8362 222.404 71.0272 222.237 71.0989C222.069 71.1705 221.914 71.2302 221.771 71.2779L221.628 71.3138C221.628 71.3615 221.711 71.4332 221.878 71.5287C222.045 71.6242 222.356 71.7436 222.81 71.8868C223.263 72.0301 223.765 72.0898 224.314 72.0659H224.529C225.961 72.0659 227.167 71.3018 228.146 69.7737C229.077 68.4365 229.543 66.1204 229.543 62.8252V62.5745ZM225.675 63.9714C226.821 63.9714 227.74 63.3864 228.433 62.2163C229.125 61.0463 229.483 59.4585 229.507 57.4527C229.507 55.5903 229.412 54.2531 229.221 53.4413C229.173 53.2025 229.101 52.9637 229.006 52.7249C228.91 52.4862 228.743 52.1758 228.504 51.7937C228.266 51.4117 227.907 51.0893 227.43 50.8267C226.952 50.564 226.391 50.4446 225.747 50.4685C224.839 50.4685 224.063 50.7908 223.418 51.4355C222.917 51.9609 222.595 52.5817 222.451 53.298C222.308 54.0143 222.225 55.2679 222.201 57.0588C222.201 59.0406 222.26 60.3778 222.38 61.0702C222.499 61.7627 222.738 62.3238 223.096 62.7536C223.693 63.5654 224.553 63.9714 225.675 63.9714Z" fill="white"/>
</g>
<g id="Group_24">
<path id="Vector_23" d="M253.113 57.4886C252.468 57.4886 251.955 57.2737 251.573 56.8439C251.191 56.4141 251 55.8887 251 55.2679C251 53.5726 251.633 52.1041 252.898 50.8625C254.164 49.6208 255.74 49 257.626 49C259.799 49 261.614 49.6686 263.07 51.0057C264.527 52.3429 265.267 54.074 265.291 56.1992C265.291 57.2259 265.052 58.2049 264.574 59.1361C264.097 60.0673 263.524 60.8792 262.855 61.5716C262.187 62.2641 261.232 63.1476 259.99 64.2221C259.13 64.9623 257.936 66.0607 256.408 67.5172L254.295 69.5229L257.017 69.5588C260.766 69.5588 262.76 69.4991 262.999 69.3797C263.166 69.3319 263.452 68.2694 263.858 66.192V66.0845H265.291V66.192C265.267 66.2636 265.112 67.3501 264.825 69.4513C264.539 71.5525 264.36 72.6509 264.288 72.7464V72.8539H251V72.1734V71.7436C251 71.5764 251.072 71.3973 251.215 71.2063C251.358 71.0153 251.716 70.5974 252.289 69.9527C252.982 69.1886 253.579 68.5201 254.08 67.947C254.295 67.7082 254.701 67.2665 255.298 66.6218C255.895 65.9771 256.301 65.5354 256.516 65.2966C256.731 65.0578 257.077 64.6638 257.554 64.1146C258.032 63.5654 258.366 63.1595 258.557 62.8969C258.748 62.6342 259.023 62.276 259.381 61.8224C259.739 61.3687 259.99 60.9866 260.133 60.6762C260.277 60.3658 260.456 60.0196 260.67 59.6376C260.885 59.2555 261.041 58.8735 261.136 58.4914C261.232 58.1094 261.315 57.7512 261.387 57.4169C261.458 57.0826 261.494 56.6886 261.494 56.235C261.494 54.7307 261.088 53.4293 260.277 52.331C259.465 51.2326 258.307 50.6834 256.802 50.6834C256.014 50.6834 255.322 50.8864 254.725 51.2923C254.128 51.6982 253.71 52.0922 253.471 52.4742C253.233 52.8563 253.113 53.0831 253.113 53.1547C253.113 53.1786 253.173 53.1906 253.292 53.1906C253.722 53.1906 254.164 53.3577 254.617 53.692C255.071 54.0263 255.298 54.5755 255.298 55.3396C255.298 55.9365 255.107 56.4379 254.725 56.8439C254.343 57.2498 253.806 57.4647 253.113 57.4886Z" fill="white"/>
<path id="Vector_24" d="M271.666 56.2708C271.022 56.2708 270.52 56.0678 270.162 55.6619C269.804 55.256 269.613 54.7307 269.589 54.086C269.589 52.7727 270.162 51.6027 271.308 50.5759C272.454 49.5492 273.839 49.0358 275.463 49.0358C276.299 49.0358 276.824 49.0478 277.039 49.0716C278.806 49.3582 280.155 49.9909 281.086 50.9699C282.017 51.9489 282.495 53.0115 282.519 54.1576C282.519 55.3992 282.113 56.6051 281.301 57.7751C280.489 58.9451 279.367 59.7928 277.934 60.3181L277.827 60.3897C277.827 60.4136 277.934 60.4494 278.149 60.4971C278.364 60.5449 278.71 60.6524 279.188 60.8195C279.665 60.9866 280.119 61.2374 280.549 61.5716C282.507 62.8372 283.486 64.5086 283.486 66.586C283.486 68.4723 282.746 70.1199 281.265 71.5287C279.785 72.9375 277.91 73.6418 275.642 73.6418C273.732 73.6418 272.084 73.1285 270.699 72.1017C269.314 71.075 268.622 69.7737 268.622 68.1977C268.622 67.5291 268.837 66.9919 269.267 66.586C269.696 66.1801 270.234 65.9652 270.878 65.9413C271.547 65.9413 272.096 66.1562 272.526 66.586C272.956 67.0158 273.171 67.553 273.171 68.1977C273.171 68.4604 273.135 68.6992 273.063 68.9141C272.991 69.129 272.908 69.32 272.812 69.4871C272.717 69.6543 272.586 69.7975 272.418 69.9169C272.251 70.0363 272.108 70.1318 271.989 70.2035C271.869 70.2751 271.75 70.3228 271.63 70.3467C271.511 70.3706 271.416 70.4064 271.344 70.4542L271.201 70.49C272.418 71.5645 273.899 72.1017 275.642 72.1017C276.955 72.1017 277.946 71.469 278.615 70.2035C279.021 69.4155 279.224 68.2097 279.224 66.586V65.8696C279.224 63.6013 278.459 62.085 276.931 61.3209C276.573 61.1777 275.845 61.0941 274.746 61.0702L273.242 61.0344L273.135 60.9628C273.087 60.8911 273.063 60.7001 273.063 60.3897C273.063 59.9599 273.159 59.745 273.35 59.745C274.018 59.745 274.711 59.6853 275.427 59.5659C276.239 59.4465 276.979 58.9451 277.648 58.0616C278.316 57.1781 278.65 55.841 278.65 54.0502V53.7636C278.65 52.4026 278.233 51.4594 277.397 50.9341C276.872 50.5998 276.31 50.4327 275.714 50.4327C274.949 50.4327 274.245 50.564 273.6 50.8267C272.956 51.0893 272.502 51.3639 272.239 51.6504C271.977 51.937 271.845 52.0802 271.845 52.0802H271.953C272.024 52.1041 272.12 52.128 272.239 52.1519C272.359 52.1758 272.478 52.2354 272.597 52.331C272.717 52.4265 272.86 52.51 273.027 52.5817C273.194 52.6533 273.314 52.7846 273.385 52.9757C273.457 53.1667 273.553 53.3458 273.672 53.5129C273.791 53.6801 273.827 53.9188 273.779 54.2292C273.779 54.7545 273.612 55.2202 273.278 55.6261C272.944 56.032 272.406 56.2469 271.666 56.2708Z" fill="white"/>
</g>
</g>
</g>
<g id="Group 311">
<path id="Arrow 10 (Stroke)" fill-rule="evenodd" clip-rule="evenodd" d="M48.2326 82.5011C49.0604 82.5337 49.705 83.2312 49.6724 84.059L49.1415 97.5485C49.1089 98.3763 48.4114 99.021 47.5836 98.9884C46.7558 98.9558 46.1112 98.2583 46.1438 97.4305L46.5357 87.4743C39.4088 93.6046 33.1358 96.9679 26.3489 97.0159C18.7733 97.0695 10.9762 92.984 1.07153 85.1781L2.92849 82.8219C12.7588 90.5693 19.8496 94.0618 26.3276 94.0159C32.019 93.9757 37.5643 91.1978 44.4007 85.3526L34.625 84.9679C33.7973 84.9353 33.1526 84.2378 33.1852 83.41C33.2178 82.5822 33.9153 81.9376 34.743 81.9702L48.2326 82.5011Z" fill="#2CF30B"/>
<path id="Arrow 11 (Stroke)" fill-rule="evenodd" clip-rule="evenodd" d="M103.233 82.5011C104.06 82.5337 104.705 83.2312 104.672 84.059L104.141 97.5485C104.109 98.3763 103.411 99.021 102.584 98.9884C101.756 98.9558 101.111 98.2583 101.144 97.4305L101.536 87.4743C94.4088 93.6046 88.1358 96.9679 81.3489 97.0159C73.7733 97.0695 65.9762 92.984 56.0715 85.1781L57.9285 82.8219C67.7588 90.5693 74.8496 94.0618 81.3276 94.0159C87.019 93.9757 92.5643 91.1978 99.4007 85.3526L89.625 84.9679C88.7973 84.9353 88.1526 84.2378 88.1852 83.41C88.2178 82.5822 88.9153 81.9376 89.743 81.9702L103.233 82.5011Z" fill="#2CF30B"/>
<path id="Arrow 12 (Stroke)" fill-rule="evenodd" clip-rule="evenodd" d="M159.233 82.5011C160.06 82.5337 160.705 83.2312 160.672 84.059L160.141 97.5485C160.109 98.3763 159.411 99.021 158.584 98.9884C157.756 98.9558 157.111 98.2583 157.144 97.4305L157.536 87.4743C150.409 93.6046 144.136 96.9679 137.349 97.0159C129.773 97.0695 121.976 92.984 112.072 85.1781L113.928 82.8219C123.759 90.5693 130.85 94.0618 137.328 94.0159C143.019 93.9757 148.564 91.1978 155.401 85.3526L145.625 84.9679C144.797 84.9353 144.153 84.2378 144.185 83.41C144.218 82.5822 144.915 81.9376 145.743 81.9702L159.233 82.5011Z" fill="#2CF30B"/>
<path id="Arrow 13 (Stroke)" fill-rule="evenodd" clip-rule="evenodd" d="M215.233 82.5011C216.06 82.5337 216.705 83.2312 216.672 84.059L216.141 97.5485C216.109 98.3763 215.411 99.021 214.584 98.9884C213.756 98.9558 213.111 98.2583 213.144 97.4305L213.536 87.4743C206.409 93.6046 200.136 96.9679 193.349 97.0159C185.773 97.0695 177.976 92.984 168.072 85.1781L169.928 82.8219C179.759 90.5693 186.85 94.0618 193.328 94.0159C199.019 93.9757 204.564 91.1978 211.401 85.3526L201.625 84.9679C200.797 84.9353 200.153 84.2378 200.185 83.41C200.218 82.5822 200.915 81.9376 201.743 81.9702L215.233 82.5011Z" fill="#2CF30B"/>
<path id="Arrow 14 (Stroke)" fill-rule="evenodd" clip-rule="evenodd" d="M271.233 82.5011C272.06 82.5337 272.705 83.2312 272.672 84.059L272.141 97.5485C272.109 98.3763 271.411 99.021 270.584 98.9884C269.756 98.9558 269.111 98.2583 269.144 97.4305L269.536 87.4743C262.409 93.6046 256.136 96.9679 249.349 97.0159C241.773 97.0695 233.976 92.984 224.072 85.1781L225.928 82.8219C235.759 90.5693 242.85 94.0618 249.328 94.0159C255.019 93.9757 260.564 91.1978 267.401 85.3526L257.625 84.9679C256.797 84.9353 256.153 84.2378 256.185 83.41C256.218 82.5822 256.915 81.9376 257.743 81.9702L271.233 82.5011Z" fill="#2CF30B"/>
<path id="Arrow 15 (Stroke)" fill-rule="evenodd" clip-rule="evenodd" d="M327.233 82.5011C328.06 82.5337 328.705 83.2312 328.672 84.059L328.141 97.5485C328.109 98.3763 327.411 99.021 326.584 98.9884C325.756 98.9558 325.111 98.2583 325.144 97.4305L325.536 87.4743C318.409 93.6046 312.136 96.9679 305.349 97.0159C297.773 97.0695 289.976 92.984 280.072 85.1781L281.928 82.8219C291.759 90.5693 298.85 94.0618 305.328 94.0159C311.019 93.9757 316.564 91.1978 323.401 85.3526L313.625 84.9679C312.797 84.9353 312.153 84.2378 312.185 83.41C312.218 82.5822 312.915 81.9376 313.743 81.9702L327.233 82.5011Z" fill="#2CF30B"/>
</g>
<g id="+4">
<g id="Group_25">
<g id="Group_26">
<path id="Vector_25" d="M0 122.493C0 122.493 0 122.35 0 122.065C0 121.779 0.153711 121.56 0.461133 121.406H10.3096V116.465L10.3426 111.524C10.5621 111.239 10.7708 111.096 10.9684 111.096C11.2538 111.096 11.4734 111.261 11.6271 111.59V121.406H21.4427C21.7721 121.581 21.9368 121.801 21.9368 122.065C21.9368 122.328 21.7721 122.548 21.4427 122.723H11.6271V132.539C11.4515 132.846 11.2538 133 11.0343 133H10.9684H10.9025C10.639 133 10.4414 132.846 10.3096 132.539V122.723H0.461133C0.153711 122.57 0 122.35 0 122.065V122.493Z" fill="white"/>
</g>
<g id="Group_27">
<path id="Vector_26" d="M38.9987 130.299C38.6035 130.233 37.1871 130.2 34.7497 130.2C32.2025 130.2 30.7313 130.233 30.336 130.299H30.0396V128.784H31.0607C31.4998 128.784 31.7963 128.784 31.95 128.784C32.1037 128.784 32.2904 128.762 32.5099 128.718C32.7295 128.674 32.8832 128.619 32.9711 128.553C33.0589 128.487 33.1358 128.4 33.2016 128.29C33.2236 128.246 33.2346 127.653 33.2346 126.511V124.864H24.7036V123.349L29.6773 115.74C33.0369 110.646 34.7387 108.088 34.7827 108.066C34.8266 108.022 35.0571 108 35.4744 108H36.0673L36.2649 108.198V123.349H39.2952V124.864H36.2649V126.544C36.2649 127.444 36.2649 127.971 36.2649 128.125C36.2649 128.279 36.3308 128.411 36.4625 128.52C36.6382 128.674 37.264 128.762 38.34 128.784H39.2952V130.299H38.9987ZM33.4322 123.349V112.348L26.2188 123.316L29.809 123.349H33.4322Z" fill="white"/>
</g>
</g>
</g>
<g id="+4_2">
<g id="Group_28">
<g id="Group_29">
<path id="Vector_27" d="M57 122.493C57 122.493 57 122.35 57 122.065C57 121.779 57.1537 121.56 57.4611 121.406H67.3096V116.465L67.3426 111.524C67.5621 111.239 67.7708 111.096 67.9684 111.096C68.2538 111.096 68.4734 111.261 68.6271 111.59V121.406H78.4427C78.7721 121.581 78.9368 121.801 78.9368 122.065C78.9368 122.328 78.7721 122.548 78.4427 122.723H68.6271V132.539C68.4515 132.846 68.2538 133 68.0343 133H67.9684H67.9025C67.639 133 67.4414 132.846 67.3096 132.539V122.723H57.4611C57.1537 122.57 57 122.35 57 122.065V122.493Z" fill="white"/>
</g>
<g id="Group_30">
<path id="Vector_28" d="M95.9987 130.299C95.6035 130.233 94.1871 130.2 91.7497 130.2C89.2025 130.2 87.7313 130.233 87.336 130.299H87.0396V128.784H88.0607C88.4998 128.784 88.7963 128.784 88.95 128.784C89.1037 128.784 89.2904 128.762 89.5099 128.718C89.7295 128.674 89.8832 128.619 89.9711 128.553C90.0589 128.487 90.1358 128.4 90.2016 128.29C90.2236 128.246 90.2346 127.653 90.2346 126.511V124.864H81.7036V123.349L86.6773 115.74C90.0369 110.646 91.7387 108.088 91.7827 108.066C91.8266 108.022 92.0571 108 92.4744 108H93.0673L93.2649 108.198V123.349H96.2952V124.864H93.2649V126.544C93.2649 127.444 93.2649 127.971 93.2649 128.125C93.2649 128.279 93.3308 128.411 93.4625 128.52C93.6382 128.674 94.264 128.762 95.34 128.784H96.2952V130.299H95.9987ZM90.4322 123.349V112.348L83.2188 123.316L86.809 123.349H90.4322Z" fill="white"/>
</g>
</g>
</g>
<g id="+4_3">
<g id="Group_31">
<g id="Group_32">
<path id="Vector_29" d="M114 125.493C114 125.493 114 125.35 114 125.065C114 124.779 114.154 124.56 114.461 124.406H124.31V119.465L124.343 114.524C124.562 114.239 124.771 114.096 124.968 114.096C125.254 114.096 125.473 114.261 125.627 114.59V124.406H135.443C135.772 124.581 135.937 124.801 135.937 125.065C135.937 125.328 135.772 125.548 135.443 125.723H125.627V135.539C125.451 135.846 125.254 136 125.034 136H124.968H124.903C124.639 136 124.441 135.846 124.31 135.539V125.723H114.461C114.154 125.57 114 125.35 114 125.065V125.493Z" fill="white"/>
</g>
<g id="Group_33">
<path id="Vector_30" d="M152.999 133.299C152.603 133.233 151.187 133.2 148.75 133.2C146.203 133.2 144.731 133.233 144.336 133.299H144.04V131.784H145.061C145.5 131.784 145.796 131.784 145.95 131.784C146.104 131.784 146.29 131.762 146.51 131.718C146.73 131.674 146.883 131.619 146.971 131.553C147.059 131.487 147.136 131.4 147.202 131.29C147.224 131.246 147.235 130.653 147.235 129.511V127.864H138.704V126.349L143.677 118.74C147.037 113.646 148.739 111.088 148.783 111.066C148.827 111.022 149.057 111 149.474 111H150.067L150.265 111.198V126.349H153.295V127.864H150.265V129.544C150.265 130.444 150.265 130.971 150.265 131.125C150.265 131.279 150.331 131.411 150.463 131.52C150.638 131.674 151.264 131.762 152.34 131.784H153.295V133.299H152.999ZM147.432 126.349V115.348L140.219 126.316L143.809 126.349H147.432Z" fill="white"/>
</g>
</g>
</g>
<g id="+4_4">
<g id="Group_34">
<g id="Group_35">
<path id="Vector_31" d="M170 123.493C170 123.493 170 123.35 170 123.065C170 122.779 170.154 122.56 170.461 122.406H180.31V117.465L180.343 112.524C180.562 112.239 180.771 112.096 180.968 112.096C181.254 112.096 181.473 112.261 181.627 112.59V122.406H191.443C191.772 122.581 191.937 122.801 191.937 123.065C191.937 123.328 191.772 123.548 191.443 123.723H181.627V133.539C181.451 133.846 181.254 134 181.034 134H180.968H180.903C180.639 134 180.441 133.846 180.31 133.539V123.723H170.461C170.154 123.57 170 123.35 170 123.065V123.493Z" fill="white"/>
</g>
<g id="Group_36">
<path id="Vector_32" d="M208.999 131.299C208.603 131.233 207.187 131.2 204.75 131.2C202.203 131.2 200.731 131.233 200.336 131.299H200.04V129.784H201.061C201.5 129.784 201.796 129.784 201.95 129.784C202.104 129.784 202.29 129.762 202.51 129.718C202.73 129.674 202.883 129.619 202.971 129.553C203.059 129.487 203.136 129.4 203.202 129.29C203.224 129.246 203.235 128.653 203.235 127.511V125.864H194.704V124.349L199.677 116.74C203.037 111.646 204.739 109.088 204.783 109.066C204.827 109.022 205.057 109 205.474 109H206.067L206.265 109.198V124.349H209.295V125.864H206.265V127.544C206.265 128.444 206.265 128.971 206.265 129.125C206.265 129.279 206.331 129.411 206.463 129.52C206.638 129.674 207.264 129.762 208.34 129.784H209.295V131.299H208.999ZM203.432 124.349V113.348L196.219 124.316L199.809 124.349H203.432Z" fill="white"/>
</g>
</g>
</g>
<g id="+4_5">
<g id="Group_37">
<g id="Group_38">
<path id="Vector_33" d="M226 125.493C226 125.493 226 125.35 226 125.065C226 124.779 226.154 124.56 226.461 124.406H236.31V119.465L236.343 114.524C236.562 114.239 236.771 114.096 236.968 114.096C237.254 114.096 237.473 114.261 237.627 114.59V124.406H247.443C247.772 124.581 247.937 124.801 247.937 125.065C247.937 125.328 247.772 125.548 247.443 125.723H237.627V135.539C237.451 135.846 237.254 136 237.034 136H236.968H236.903C236.639 136 236.441 135.846 236.31 135.539V125.723H226.461C226.154 125.57 226 125.35 226 125.065V125.493Z" fill="white"/>
</g>
<g id="Group_39">
<path id="Vector_34" d="M264.999 133.299C264.603 133.233 263.187 133.2 260.75 133.2C258.203 133.2 256.731 133.233 256.336 133.299H256.04V131.784H257.061C257.5 131.784 257.796 131.784 257.95 131.784C258.104 131.784 258.29 131.762 258.51 131.718C258.73 131.674 258.883 131.619 258.971 131.553C259.059 131.487 259.136 131.4 259.202 131.29C259.224 131.246 259.235 130.653 259.235 129.511V127.864H250.704V126.349L255.677 118.74C259.037 113.646 260.739 111.088 260.783 111.066C260.827 111.022 261.057 111 261.474 111H262.067L262.265 111.198V126.349H265.295V127.864H262.265V129.544C262.265 130.444 262.265 130.971 262.265 131.125C262.265 131.279 262.331 131.411 262.463 131.52C262.638 131.674 263.264 131.762 264.34 131.784H265.295V133.299H264.999ZM259.432 126.349V115.348L252.219 126.316L255.809 126.349H259.432Z" fill="white"/>
</g>
</g>
</g>
<g id="+4_6">
<g id="Group_40">
<g id="Group_41">
<path id="Vector_35" d="M284 126.493C284 126.493 284 126.35 284 126.065C284 125.779 284.154 125.56 284.461 125.406H294.31V120.465L294.343 115.524C294.562 115.239 294.771 115.096 294.968 115.096C295.254 115.096 295.473 115.261 295.627 115.59V125.406H305.443C305.772 125.581 305.937 125.801 305.937 126.065C305.937 126.328 305.772 126.548 305.443 126.723H295.627V136.539C295.451 136.846 295.254 137 295.034 137H294.968H294.903C294.639 137 294.441 136.846 294.31 136.539V126.723H284.461C284.154 126.57 284 126.35 284 126.065V126.493Z" fill="#2CF30B"/>
</g>
<g id="Group_42">
<path id="Vector_36" d="M322.999 134.299C322.603 134.233 321.187 134.2 318.75 134.2C316.203 134.2 314.731 134.233 314.336 134.299H314.04V132.784H315.061C315.5 132.784 315.796 132.784 315.95 132.784C316.104 132.784 316.29 132.762 316.51 132.718C316.73 132.674 316.883 132.619 316.971 132.553C317.059 132.487 317.136 132.4 317.202 132.29C317.224 132.246 317.235 131.653 317.235 130.511V128.864H308.704V127.349L313.677 119.74C317.037 114.646 318.739 112.088 318.783 112.066C318.827 112.022 319.057 112 319.474 112H320.067L320.265 112.198V127.349H323.295V128.864H320.265V130.544C320.265 131.444 320.265 131.971 320.265 132.125C320.265 132.279 320.331 132.411 320.463 132.52C320.638 132.674 321.264 132.762 322.34 132.784H323.295V134.299H322.999ZM317.432 127.349V116.348L310.219 127.316L313.809 127.349H317.432Z" fill="#2CF30B"/>
</g>
</g>
</g>
<g id="27">
<g id="Group_43">
<g id="Group_44">
<path id="Vector_37" d="M311.113 57.8467C310.468 57.8467 309.955 57.6318 309.573 57.202C309.191 56.7722 309 56.2469 309 55.6261C309 53.9308 309.633 52.4623 310.898 51.2206C312.164 49.979 313.74 49.3582 315.626 49.3582C317.799 49.3582 319.614 50.0267 321.07 51.3639C322.527 52.7011 323.267 54.4322 323.291 56.5573C323.291 57.5841 323.052 58.563 322.574 59.4943C322.097 60.4255 321.524 61.2373 320.855 61.9298C320.187 62.6223 319.232 63.5057 317.99 64.5802C317.13 65.3204 315.936 66.4188 314.408 67.8754L312.295 69.8811L315.017 69.9169C318.766 69.9169 320.76 69.8572 320.999 69.7378C321.166 69.6901 321.452 68.6275 321.858 66.5501V66.4427H323.291V66.5501C323.267 66.6218 323.112 67.7082 322.825 69.8095C322.539 71.9107 322.36 73.0091 322.288 73.1046V73.212H309V72.5315V72.1017C309 71.9346 309.072 71.7555 309.215 71.5645C309.358 71.3734 309.716 70.9556 310.289 70.3109C310.982 69.5468 311.579 68.8782 312.08 68.3052C312.295 68.0664 312.701 67.6246 313.298 66.9799C313.895 66.3352 314.301 65.8935 314.516 65.6547C314.731 65.416 315.077 65.022 315.554 64.4728C316.032 63.9236 316.366 63.5177 316.557 63.255C316.748 62.9924 317.023 62.6342 317.381 62.1805C317.739 61.7268 317.99 61.3448 318.133 61.0344C318.277 60.724 318.456 60.3777 318.67 59.9957C318.885 59.6137 319.041 59.2316 319.136 58.8496C319.232 58.4675 319.315 58.1094 319.387 57.7751C319.458 57.4408 319.494 57.0468 319.494 56.5931C319.494 55.0888 319.088 53.7875 318.277 52.6891C317.465 51.5907 316.307 51.0415 314.802 51.0415C314.014 51.0415 313.322 51.2445 312.725 51.6504C312.128 52.0564 311.71 52.4503 311.471 52.8324C311.233 53.2144 311.113 53.4413 311.113 53.5129C311.113 53.5368 311.173 53.5487 311.292 53.5487C311.722 53.5487 312.164 53.7159 312.617 54.0501C313.071 54.3844 313.298 54.9336 313.298 55.6977C313.298 56.2947 313.107 56.7961 312.725 57.202C312.343 57.6079 311.806 57.8228 311.113 57.8467Z" fill="#2CF30B"/>
<path id="Vector_38" d="M327.087 56.808C327.111 56.7603 327.314 55.4589 327.696 52.904L328.269 49.0716C328.269 49.0239 328.508 49 328.986 49H329.702V49.1433C329.702 49.382 329.881 49.585 330.239 49.7521C330.597 49.9193 331.218 50.0267 332.102 50.0745C332.985 50.1223 335.003 50.1461 338.155 50.1461H342.489V51.543L340.053 54.8739C339.838 55.1605 339.48 55.638 338.979 56.3066C338.477 56.9752 338.155 57.4169 338.011 57.6318C337.868 57.8467 337.617 58.2287 337.259 58.7779C336.901 59.3271 336.662 59.7569 336.543 60.0673C336.424 60.3777 336.256 60.8195 336.042 61.3926C335.827 61.9656 335.671 62.5148 335.576 63.0401C335.48 63.5654 335.385 64.2101 335.289 64.9742C335.194 65.7383 335.122 66.5501 335.075 67.4097C335.027 68.2693 334.991 69.2483 334.967 70.3467C334.967 70.681 334.967 71.0153 334.967 71.3496C334.967 71.6839 334.955 71.9704 334.931 72.2092V72.5315C334.836 72.9374 334.609 73.2837 334.251 73.5702C333.893 73.8567 333.487 74 333.033 74C332.77 74 332.52 73.9642 332.281 73.8926C332.042 73.8209 331.791 73.5941 331.529 73.212C331.266 72.83 331.135 72.3524 331.135 71.7794C331.135 68.0067 332.293 64.0907 334.609 60.0315C335.086 59.2674 336.089 57.8228 337.617 55.6977L339.265 53.4413H335.934C331.779 53.4413 329.595 53.5129 329.38 53.6562C329.236 53.7278 329.105 54.0143 328.986 54.5158C328.866 55.0172 328.747 55.5306 328.628 56.0559L328.52 56.808V56.9155H327.087V56.808Z" fill="#2CF30B"/>
</g>
</g>
</g>
<g id="\therefore">
<g id="Group_45">
<g id="Group_46">
<path id="Vector_39" d="M476.759 92.7975C476.759 91.7004 477.139 90.7932 477.899 90.076C478.658 89.3587 479.565 89 480.62 89C481.633 89 482.498 89.3587 483.215 90.076C483.932 90.7932 484.312 91.7004 484.354 92.7975C484.397 93.8945 484.038 94.8017 483.278 95.519C482.519 96.2363 481.612 96.5949 480.557 96.5949C479.46 96.5949 478.553 96.2363 477.835 95.519C477.118 94.8017 476.759 93.8945 476.759 92.7975ZM464.797 116.405C465.895 116.405 466.781 116.764 467.456 117.481C468.131 118.198 468.489 119.105 468.532 120.203C468.532 121.215 468.194 122.101 467.519 122.861C466.844 123.62 465.916 124 464.734 124C463.637 124 462.751 123.641 462.076 122.924C461.401 122.207 461.042 121.3 461 120.203C461 119.105 461.359 118.198 462.076 117.481C462.793 116.764 463.7 116.405 464.797 116.405ZM492.646 120.203C492.646 119.105 493.004 118.198 493.722 117.481C494.439 116.764 495.346 116.405 496.443 116.405C497.456 116.405 498.321 116.764 499.038 117.481C499.755 118.198 500.135 119.105 500.177 120.203C500.177 121.173 499.84 122.038 499.165 122.797C498.489 123.557 497.561 123.958 496.38 124C495.283 124 494.397 123.641 493.722 122.924C493.046 122.207 492.688 121.3 492.646 120.203Z" fill="white"/>
</g>
</g>
</g>
<g id="La letra que ocupa el lugar 27 es Z">
<path d="M548.576 107.072C546.344 107.072 544.712 106.844 543.68 106.388C542.672 105.932 542 105.152 541.664 104.048C541.352 102.944 541.196 101.216 541.196 98.864C541.196 96.2 541.316 93.644 541.556 91.196C541.82 88.724 542.192 86.012 542.672 83.06C542.744 82.628 542.948 82.292 543.284 82.052C543.62 81.788 544.052 81.656 544.58 81.656C545.156 81.656 545.576 81.8 545.84 82.088C546.128 82.352 546.272 82.724 546.272 83.204C546.272 83.396 546.26 83.54 546.236 83.636C545.636 87.404 545.216 90.308 544.976 92.348C544.76 94.364 544.652 96.572 544.652 98.972C544.652 100.412 544.724 101.456 544.868 102.104C545.012 102.752 545.324 103.208 545.804 103.472C546.284 103.736 547.052 103.88 548.108 103.904C550.196 103.904 552.752 103.58 555.776 102.932C555.872 102.908 556.004 102.896 556.172 102.896C556.628 102.896 556.976 103.064 557.216 103.4C557.48 103.712 557.612 104.084 557.612 104.516C557.612 105.02 557.456 105.416 557.144 105.704C556.832 105.968 556.352 106.16 555.704 106.28C553.136 106.808 550.76 107.072 548.576 107.072Z" fill="white"/>
<path d="M577.842 104.12C578.202 104.168 578.478 104.288 578.67 104.48C578.886 104.672 578.994 104.996 578.994 105.452C578.994 105.884 578.886 106.244 578.67 106.532C578.454 106.82 578.154 106.964 577.77 106.964C576.786 106.964 576.042 106.82 575.538 106.532C575.058 106.244 574.614 105.704 574.206 104.912C573.198 106.544 571.326 107.36 568.59 107.36C565.806 107.36 563.754 106.52 562.434 104.84C561.114 103.136 560.454 101.024 560.454 98.504C560.454 96.824 560.79 95.276 561.462 93.86C562.134 92.444 563.118 91.316 564.414 90.476C565.71 89.636 567.222 89.216 568.95 89.216C570.054 89.216 571.026 89.432 571.866 89.864C572.73 90.296 573.378 90.884 573.81 91.628L573.918 90.728C574.014 89.864 574.53 89.432 575.466 89.432C576.09 89.432 576.534 89.576 576.798 89.864C577.062 90.128 577.17 90.464 577.122 90.872C576.882 92.672 576.738 94.028 576.69 94.94C576.618 95.804 576.582 96.932 576.582 98.324V100.7C576.582 101.948 576.642 102.812 576.762 103.292C576.906 103.772 577.266 104.048 577.842 104.12ZM573.054 100.7C573.078 99.62 573.09 98.144 573.09 96.272C573.09 95.288 572.874 94.484 572.442 93.86C572.034 93.236 571.518 92.78 570.894 92.492C570.294 92.204 569.682 92.06 569.058 92.06C567.978 92.06 567.054 92.384 566.286 93.032C565.542 93.656 564.978 94.46 564.594 95.444C564.234 96.428 564.054 97.448 564.054 98.504C564.054 100.112 564.426 101.516 565.17 102.716C565.938 103.892 567.126 104.48 568.734 104.48C570.006 104.48 571.038 104.156 571.83 103.508C572.622 102.86 573.03 101.924 573.054 100.7Z" fill="white"/>
<path d="M597.395 106.676C596.867 106.676 596.447 106.532 596.135 106.244C595.823 105.956 595.667 105.584 595.667 105.128L595.451 80.072C595.451 79.592 595.619 79.208 595.955 78.92C596.315 78.632 596.759 78.488 597.287 78.488C597.815 78.488 598.235 78.632 598.547 78.92C598.859 79.208 599.015 79.58 599.015 80.036L599.195 105.092C599.195 105.572 599.027 105.956 598.691 106.244C598.355 106.532 597.923 106.676 597.395 106.676Z" fill="white"/>
<path d="M613.625 107.216C611.585 107.216 609.833 106.796 608.369 105.956C606.929 105.116 605.837 103.988 605.093 102.572C604.373 101.156 604.013 99.596 604.013 97.892C604.013 96.14 604.409 94.556 605.201 93.14C605.993 91.7 607.109 90.572 608.549 89.756C609.989 88.916 611.633 88.496 613.481 88.496C615.113 88.496 616.577 88.832 617.873 89.504C619.193 90.152 620.225 91.076 620.969 92.276C621.713 93.476 622.085 94.844 622.085 96.38C622.085 97.196 621.965 97.784 621.725 98.144C621.485 98.48 620.993 98.66 620.249 98.684L607.253 98.864C607.253 99.656 607.505 100.472 608.009 101.312C608.513 102.152 609.233 102.86 610.169 103.436C611.129 103.988 612.245 104.264 613.517 104.264C614.429 104.264 615.197 104.144 615.821 103.904C616.469 103.64 616.985 103.34 617.369 103.004C617.753 102.644 618.209 102.176 618.737 101.6C619.001 101.336 619.337 101.204 619.745 101.204C620.129 101.204 620.489 101.36 620.825 101.672C621.185 101.96 621.365 102.296 621.365 102.68C621.365 102.992 621.257 103.292 621.041 103.58C620.369 104.54 619.469 105.392 618.341 106.136C617.213 106.856 615.641 107.216 613.625 107.216ZM618.701 96.128C618.845 96.128 618.941 96.092 618.989 96.02C619.061 95.924 619.097 95.792 619.097 95.624C619.097 94.352 618.557 93.32 617.477 92.528C616.421 91.712 615.089 91.304 613.481 91.304C612.257 91.304 611.165 91.592 610.205 92.168C609.269 92.744 608.537 93.44 608.009 94.256C607.505 95.048 607.253 95.744 607.253 96.344L618.701 96.128Z" fill="white"/>
<path d="M636.893 100.7C637.445 100.7 637.841 100.82 638.081 101.06C638.321 101.3 638.441 101.708 638.441 102.284C638.441 103.652 637.997 104.792 637.109 105.704C636.221 106.592 635.093 107.036 633.725 107.036C631.829 107.036 630.461 106.232 629.621 104.624C628.781 102.992 628.361 100.448 628.361 96.992C628.361 95.768 628.397 94.544 628.469 93.32L626.741 93.212C625.805 93.164 625.337 92.672 625.337 91.736C625.337 91.256 625.457 90.908 625.697 90.692C625.961 90.452 626.381 90.344 626.957 90.368L628.721 90.476C628.865 88.964 629.141 86.864 629.549 84.176C629.693 83.312 630.281 82.88 631.313 82.88C631.913 82.88 632.369 83.036 632.681 83.348C633.017 83.66 633.161 84.032 633.113 84.464C632.777 86.552 632.489 88.616 632.249 90.656C633.545 90.704 634.397 90.728 634.805 90.728C635.261 90.728 635.597 90.836 635.813 91.052C636.029 91.244 636.137 91.556 636.137 91.988C636.137 92.516 636.017 92.888 635.777 93.104C635.561 93.296 635.153 93.404 634.553 93.428H631.997C631.925 94.58 631.889 95.768 631.889 96.992C631.889 99.416 632.045 101.216 632.357 102.392C632.669 103.544 633.221 104.12 634.013 104.12C634.925 104.12 635.417 103.412 635.489 101.996C635.489 101.564 635.585 101.24 635.777 101.024C635.993 100.808 636.365 100.7 636.893 100.7Z" fill="white"/>
<path d="M651.415 88.424C652.951 88.424 654.175 88.916 655.087 89.9C655.999 90.884 656.455 92.108 656.455 93.572C656.455 94.964 656.023 96.056 655.159 96.848C654.295 97.64 653.179 98.036 651.811 98.036C651.211 98.036 650.779 97.952 650.515 97.784C650.275 97.592 650.155 97.268 650.155 96.812C650.155 96.404 650.239 96.116 650.407 95.948C650.599 95.756 650.875 95.648 651.235 95.624C652.747 95.504 653.503 94.796 653.503 93.5C653.503 92.876 653.323 92.348 652.963 91.916C652.627 91.484 652.099 91.268 651.379 91.268C650.539 91.268 649.783 91.664 649.111 92.456C648.463 93.248 647.935 94.208 647.527 95.336C647.143 96.464 646.915 97.532 646.843 98.54C646.675 100.34 646.591 102.356 646.591 104.588C646.591 105.668 646.471 106.388 646.231 106.748C645.991 107.108 645.535 107.288 644.863 107.288C644.215 107.288 643.747 107.156 643.459 106.892C643.195 106.604 643.063 106.136 643.063 105.488C643.039 105.032 643.027 102.86 643.027 98.972C643.027 97.028 642.895 94.784 642.631 92.24L642.415 89.468C642.391 89.012 642.523 88.652 642.811 88.388C643.123 88.124 643.555 87.992 644.107 87.992C645.067 87.992 645.571 88.424 645.619 89.288L645.871 92.96C646.303 91.592 646.999 90.5 647.959 89.684C648.919 88.844 650.071 88.424 651.415 88.424Z" fill="white"/>
<path d="M677.58 104.12C677.94 104.168 678.216 104.288 678.408 104.48C678.624 104.672 678.732 104.996 678.732 105.452C678.732 105.884 678.624 106.244 678.408 106.532C678.192 106.82 677.892 106.964 677.508 106.964C676.524 106.964 675.78 106.82 675.276 106.532C674.796 106.244 674.352 105.704 673.944 104.912C672.936 106.544 671.064 107.36 668.328 107.36C665.544 107.36 663.492 106.52 662.172 104.84C660.852 103.136 660.192 101.024 660.192 98.504C660.192 96.824 660.528 95.276 661.2 93.86C661.872 92.444 662.856 91.316 664.152 90.476C665.448 89.636 666.96 89.216 668.688 89.216C669.792 89.216 670.764 89.432 671.604 89.864C672.468 90.296 673.116 90.884 673.548 91.628L673.656 90.728C673.752 89.864 674.268 89.432 675.204 89.432C675.828 89.432 676.272 89.576 676.536 89.864C676.8 90.128 676.908 90.464 676.86 90.872C676.62 92.672 676.476 94.028 676.428 94.94C676.356 95.804 676.32 96.932 676.32 98.324V100.7C676.32 101.948 676.38 102.812 676.5 103.292C676.644 103.772 677.004 104.048 677.58 104.12ZM672.792 100.7C672.816 99.62 672.828 98.144 672.828 96.272C672.828 95.288 672.612 94.484 672.18 93.86C671.772 93.236 671.256 92.78 670.632 92.492C670.032 92.204 669.42 92.06 668.796 92.06C667.716 92.06 666.792 92.384 666.024 93.032C665.28 93.656 664.716 94.46 664.332 95.444C663.972 96.428 663.792 97.448 663.792 98.504C663.792 100.112 664.164 101.516 664.908 102.716C665.676 103.892 666.864 104.48 668.472 104.48C669.744 104.48 670.776 104.156 671.568 103.508C672.36 102.86 672.768 101.924 672.792 100.7Z" fill="white"/>
<path d="M714.017 90.62C714.041 90.692 714.053 90.788 714.053 90.908C714.053 91.172 713.933 91.472 713.693 91.808L713.261 92.564L712.325 94.184C712.157 98.696 712.073 102.704 712.073 106.208L712.037 109.844C711.989 111.572 711.965 113.012 711.965 114.164C711.965 114.572 711.797 114.896 711.461 115.136C711.149 115.4 710.729 115.532 710.201 115.532C709.649 115.532 709.205 115.412 708.869 115.172C708.557 114.932 708.401 114.62 708.401 114.236L708.473 110.672C708.497 110.096 708.509 109.364 708.509 108.476C708.509 107.588 708.533 106.52 708.581 105.272C708.005 105.848 707.261 106.304 706.349 106.64C705.461 106.952 704.453 107.108 703.325 107.108C701.573 107.108 699.989 106.748 698.573 106.028C697.181 105.284 696.077 104.216 695.261 102.824C694.469 101.408 694.073 99.752 694.073 97.856C694.073 95.864 694.505 94.172 695.369 92.78C696.257 91.364 697.397 90.308 698.789 89.612C700.205 88.916 701.693 88.568 703.253 88.568C704.813 88.568 706.193 88.904 707.393 89.576C708.593 90.248 709.469 91.076 710.021 92.06C710.237 91.604 710.561 91.04 710.993 90.368C711.185 90.056 711.353 89.828 711.497 89.684C711.665 89.516 711.881 89.432 712.145 89.432C712.553 89.384 712.937 89.48 713.297 89.72C713.681 89.96 713.921 90.26 714.017 90.62ZM708.797 95.624C708.725 95.048 708.437 94.436 707.933 93.788C707.453 93.116 706.793 92.564 705.953 92.132C705.137 91.676 704.225 91.448 703.217 91.448C702.257 91.448 701.357 91.7 700.517 92.204C699.677 92.684 698.993 93.404 698.465 94.364C697.937 95.324 697.673 96.488 697.673 97.856C697.673 99.896 698.201 101.468 699.257 102.572C700.337 103.652 701.741 104.192 703.469 104.192C704.189 104.192 704.921 104.06 705.665 103.796C706.409 103.532 707.045 103.208 707.573 102.824C708.125 102.44 708.485 102.068 708.653 101.708L708.797 95.624Z" fill="white"/>
<path d="M732.615 102.464C732.615 103.04 732.675 103.52 732.795 103.904C732.915 104.264 733.059 104.588 733.227 104.876C733.395 105.164 733.479 105.344 733.479 105.416C733.479 105.8 733.311 106.136 732.975 106.424C732.663 106.712 732.303 106.856 731.895 106.856C731.415 106.856 730.947 106.556 730.491 105.956C730.035 105.332 729.807 104.72 729.807 104.12V103.904C729.327 104.912 728.619 105.692 727.683 106.244C726.747 106.772 725.619 107.036 724.299 107.036C722.259 107.036 720.699 106.328 719.619 104.912C718.563 103.472 718.035 101.48 718.035 98.936V90.188C718.035 89.78 718.191 89.456 718.503 89.216C718.839 88.976 719.259 88.856 719.763 88.856C720.291 88.856 720.723 88.976 721.059 89.216C721.419 89.456 721.599 89.78 721.599 90.188V98.972C721.599 102.452 722.643 104.192 724.731 104.192C726.195 104.192 727.251 103.532 727.899 102.212C728.571 100.868 728.907 98.936 728.907 96.416V90.188C728.907 89.708 729.063 89.336 729.375 89.072C729.687 88.784 730.107 88.64 730.635 88.64C731.187 88.64 731.631 88.784 731.967 89.072C732.303 89.36 732.471 89.732 732.471 90.188L732.615 102.464Z" fill="white"/>
<path d="M747.218 107.216C745.178 107.216 743.426 106.796 741.962 105.956C740.522 105.116 739.43 103.988 738.686 102.572C737.966 101.156 737.606 99.596 737.606 97.892C737.606 96.14 738.002 94.556 738.794 93.14C739.586 91.7 740.702 90.572 742.142 89.756C743.582 88.916 745.226 88.496 747.074 88.496C748.706 88.496 750.17 88.832 751.466 89.504C752.786 90.152 753.818 91.076 754.562 92.276C755.306 93.476 755.678 94.844 755.678 96.38C755.678 97.196 755.558 97.784 755.318 98.144C755.078 98.48 754.586 98.66 753.842 98.684L740.846 98.864C740.846 99.656 741.098 100.472 741.602 101.312C742.106 102.152 742.826 102.86 743.762 103.436C744.722 103.988 745.838 104.264 747.11 104.264C748.022 104.264 748.79 104.144 749.414 103.904C750.062 103.64 750.578 103.34 750.962 103.004C751.346 102.644 751.802 102.176 752.33 101.6C752.594 101.336 752.93 101.204 753.338 101.204C753.722 101.204 754.082 101.36 754.418 101.672C754.778 101.96 754.958 102.296 754.958 102.68C754.958 102.992 754.85 103.292 754.634 103.58C753.962 104.54 753.062 105.392 751.934 106.136C750.806 106.856 749.234 107.216 747.218 107.216ZM752.294 96.128C752.438 96.128 752.534 96.092 752.582 96.02C752.654 95.924 752.69 95.792 752.69 95.624C752.69 94.352 752.15 93.32 751.07 92.528C750.014 91.712 748.682 91.304 747.074 91.304C745.85 91.304 744.758 91.592 743.798 92.168C742.862 92.744 742.13 93.44 741.602 94.256C741.098 95.048 740.846 95.744 740.846 96.344L752.294 96.128Z" fill="white"/>
<path d="M780.567 107.072C777.735 107.072 775.419 106.328 773.619 104.84C771.843 103.328 770.955 101.072 770.955 98.072C770.955 96.176 771.327 94.496 772.071 93.032C772.839 91.568 773.919 90.428 775.311 89.612C776.727 88.796 778.395 88.388 780.315 88.388C782.187 88.388 783.855 88.784 785.319 89.576C786.807 90.368 787.959 91.508 788.775 92.996C789.615 94.46 790.035 96.176 790.035 98.144C790.035 101.024 789.171 103.232 787.443 104.768C785.715 106.304 783.423 107.072 780.567 107.072ZM780.495 104.228C782.271 104.228 783.711 103.712 784.815 102.68C785.919 101.624 786.471 100.088 786.471 98.072C786.471 96.776 786.219 95.612 785.715 94.58C785.235 93.524 784.527 92.708 783.591 92.132C782.679 91.532 781.623 91.232 780.423 91.232C778.647 91.232 777.219 91.856 776.139 93.104C775.083 94.328 774.555 95.972 774.555 98.036C774.555 100.148 775.119 101.708 776.247 102.716C777.375 103.724 778.791 104.228 780.495 104.228Z" fill="white"/>
<path d="M802.118 107C800.246 107 798.626 106.616 797.258 105.848C795.89 105.08 794.834 104.036 794.09 102.716C793.37 101.396 793.01 99.908 793.01 98.252C793.01 96.524 793.382 94.916 794.126 93.428C794.894 91.916 795.974 90.716 797.366 89.828C798.782 88.94 800.426 88.496 802.298 88.496C804.314 88.496 806.018 88.988 807.41 89.972C808.802 90.932 809.774 92.12 810.326 93.536C810.47 93.824 810.542 94.1 810.542 94.364C810.542 94.916 810.158 95.3 809.39 95.516C809.102 95.564 808.922 95.588 808.85 95.588C808.49 95.588 808.19 95.492 807.95 95.3C807.71 95.084 807.482 94.772 807.266 94.364C806.882 93.524 806.282 92.816 805.466 92.24C804.65 91.64 803.666 91.34 802.514 91.34C801.338 91.34 800.294 91.652 799.382 92.276C798.494 92.9 797.798 93.74 797.294 94.796C796.814 95.852 796.574 96.992 796.574 98.216C796.574 99.968 797.066 101.396 798.05 102.5C799.058 103.604 800.486 104.156 802.334 104.156C803.51 104.156 804.506 103.928 805.322 103.472C806.138 103.016 806.738 102.44 807.122 101.744C807.53 101.048 807.758 100.34 807.806 99.62C807.806 99.308 807.926 99.056 808.166 98.864C808.43 98.648 808.79 98.54 809.246 98.54C809.822 98.54 810.254 98.66 810.542 98.9C810.854 99.116 811.01 99.512 811.01 100.088C810.986 101.192 810.638 102.272 809.966 103.328C809.318 104.384 808.334 105.26 807.014 105.956C805.694 106.652 804.062 107 802.118 107Z" fill="white"/>
<path d="M829.4 102.464C829.4 103.04 829.46 103.52 829.58 103.904C829.7 104.264 829.844 104.588 830.012 104.876C830.18 105.164 830.264 105.344 830.264 105.416C830.264 105.8 830.096 106.136 829.76 106.424C829.448 106.712 829.088 106.856 828.68 106.856C828.2 106.856 827.732 106.556 827.276 105.956C826.82 105.332 826.592 104.72 826.592 104.12V103.904C826.112 104.912 825.404 105.692 824.468 106.244C823.532 106.772 822.404 107.036 821.084 107.036C819.044 107.036 817.484 106.328 816.404 104.912C815.348 103.472 814.82 101.48 814.82 98.936V90.188C814.82 89.78 814.976 89.456 815.288 89.216C815.624 88.976 816.044 88.856 816.548 88.856C817.076 88.856 817.508 88.976 817.844 89.216C818.204 89.456 818.384 89.78 818.384 90.188V98.972C818.384 102.452 819.428 104.192 821.516 104.192C822.98 104.192 824.036 103.532 824.684 102.212C825.356 100.868 825.692 98.936 825.692 96.416V90.188C825.692 89.708 825.848 89.336 826.16 89.072C826.472 88.784 826.892 88.64 827.42 88.64C827.972 88.64 828.416 88.784 828.752 89.072C829.088 89.36 829.256 89.732 829.256 90.188L829.4 102.464Z" fill="white"/>
<path d="M844.436 88.532C846.092 88.532 847.58 88.892 848.9 89.612C850.244 90.308 851.3 91.364 852.068 92.78C852.86 94.172 853.256 95.84 853.256 97.784C853.256 99.704 852.872 101.372 852.104 102.788C851.36 104.18 850.304 105.248 848.936 105.992C847.592 106.712 846.056 107.072 844.328 107.072C843.056 107.072 841.868 106.904 840.764 106.568C839.684 106.232 838.904 105.896 838.424 105.56L838.388 107.504L838.208 113.66C838.184 114.092 838.004 114.428 837.668 114.668C837.356 114.932 836.924 115.064 836.372 115.064C835.82 115.064 835.388 114.92 835.076 114.632C834.764 114.344 834.62 113.972 834.644 113.516C834.788 110.588 834.872 107.792 834.896 105.128L834.932 102.608C834.98 99.584 835.004 96.884 835.004 94.508C835.004 93.812 834.92 93.248 834.752 92.816C834.608 92.36 834.392 91.952 834.104 91.592C834.08 91.544 833.996 91.448 833.852 91.304C833.708 91.16 833.636 90.968 833.636 90.728C833.636 90.32 833.864 89.936 834.32 89.576C834.8 89.216 835.244 89.048 835.652 89.072C835.94 89.096 836.18 89.204 836.372 89.396C836.564 89.564 836.804 89.852 837.092 90.26C837.38 90.668 837.62 91.088 837.812 91.52C838.364 90.728 839.204 90.032 840.332 89.432C841.484 88.832 842.852 88.532 844.436 88.532ZM844.076 104.228C845.756 104.228 847.1 103.664 848.108 102.536C849.14 101.408 849.656 99.812 849.656 97.748C849.656 95.636 849.152 94.064 848.144 93.032C847.136 92 845.828 91.484 844.22 91.484C843.116 91.484 842.132 91.724 841.268 92.204C840.428 92.684 839.768 93.248 839.288 93.896C838.832 94.52 838.604 95.048 838.604 95.48C838.604 98.096 838.592 100.316 838.568 102.14C838.664 102.38 839 102.668 839.576 103.004C840.152 103.34 840.848 103.628 841.664 103.868C842.48 104.108 843.284 104.228 844.076 104.228Z" fill="white"/>
<path d="M874.139 104.12C874.499 104.168 874.775 104.288 874.967 104.48C875.183 104.672 875.291 104.996 875.291 105.452C875.291 105.884 875.183 106.244 874.967 106.532C874.751 106.82 874.451 106.964 874.067 106.964C873.083 106.964 872.339 106.82 871.835 106.532C871.355 106.244 870.911 105.704 870.503 104.912C869.495 106.544 867.623 107.36 864.887 107.36C862.103 107.36 860.051 106.52 858.731 104.84C857.411 103.136 856.751 101.024 856.751 98.504C856.751 96.824 857.087 95.276 857.759 93.86C858.431 92.444 859.415 91.316 860.711 90.476C862.007 89.636 863.519 89.216 865.247 89.216C866.351 89.216 867.323 89.432 868.163 89.864C869.027 90.296 869.675 90.884 870.107 91.628L870.215 90.728C870.311 89.864 870.827 89.432 871.763 89.432C872.387 89.432 872.831 89.576 873.095 89.864C873.359 90.128 873.467 90.464 873.419 90.872C873.179 92.672 873.035 94.028 872.987 94.94C872.915 95.804 872.879 96.932 872.879 98.324V100.7C872.879 101.948 872.939 102.812 873.059 103.292C873.203 103.772 873.563 104.048 874.139 104.12ZM869.351 100.7C869.375 99.62 869.387 98.144 869.387 96.272C869.387 95.288 869.171 94.484 868.739 93.86C868.331 93.236 867.815 92.78 867.191 92.492C866.591 92.204 865.979 92.06 865.355 92.06C864.275 92.06 863.351 92.384 862.583 93.032C861.839 93.656 861.275 94.46 860.891 95.444C860.531 96.428 860.351 97.448 860.351 98.504C860.351 100.112 860.723 101.516 861.467 102.716C862.235 103.892 863.423 104.48 865.031 104.48C866.303 104.48 867.335 104.156 868.127 103.508C868.919 102.86 869.327 101.924 869.351 100.7Z" fill="white"/>
<path d="M550.484 147.216C548.444 147.216 546.692 146.796 545.228 145.956C543.788 145.116 542.696 143.988 541.952 142.572C541.232 141.156 540.872 139.596 540.872 137.892C540.872 136.14 541.268 134.556 542.06 133.14C542.852 131.7 543.968 130.572 545.408 129.756C546.848 128.916 548.492 128.496 550.34 128.496C551.972 128.496 553.436 128.832 554.732 129.504C556.052 130.152 557.084 131.076 557.828 132.276C558.572 133.476 558.944 134.844 558.944 136.38C558.944 137.196 558.824 137.784 558.584 138.144C558.344 138.48 557.852 138.66 557.108 138.684L544.112 138.864C544.112 139.656 544.364 140.472 544.868 141.312C545.372 142.152 546.092 142.86 547.028 143.436C547.988 143.988 549.104 144.264 550.376 144.264C551.288 144.264 552.056 144.144 552.68 143.904C553.328 143.64 553.844 143.34 554.228 143.004C554.612 142.644 555.068 142.176 555.596 141.6C555.86 141.336 556.196 141.204 556.604 141.204C556.988 141.204 557.348 141.36 557.684 141.672C558.044 141.96 558.224 142.296 558.224 142.68C558.224 142.992 558.116 143.292 557.9 143.58C557.228 144.54 556.328 145.392 555.2 146.136C554.072 146.856 552.5 147.216 550.484 147.216ZM555.56 136.128C555.704 136.128 555.8 136.092 555.848 136.02C555.92 135.924 555.956 135.792 555.956 135.624C555.956 134.352 555.416 133.32 554.336 132.528C553.28 131.712 551.948 131.304 550.34 131.304C549.116 131.304 548.024 131.592 547.064 132.168C546.128 132.744 545.396 133.44 544.868 134.256C544.364 135.048 544.112 135.744 544.112 136.344L555.56 136.128Z" fill="white"/>
<path d="M565.508 146.676C564.98 146.676 564.56 146.532 564.248 146.244C563.936 145.956 563.78 145.584 563.78 145.128L563.564 120.072C563.564 119.592 563.732 119.208 564.068 118.92C564.428 118.632 564.872 118.488 565.4 118.488C565.928 118.488 566.348 118.632 566.66 118.92C566.972 119.208 567.128 119.58 567.128 120.036L567.308 145.092C567.308 145.572 567.14 145.956 566.804 146.244C566.468 146.532 566.036 146.676 565.508 146.676Z" fill="white"/>
<path d="M586.742 146.676C586.214 146.676 585.794 146.532 585.482 146.244C585.17 145.956 585.014 145.584 585.014 145.128L584.798 120.072C584.798 119.592 584.966 119.208 585.302 118.92C585.662 118.632 586.106 118.488 586.634 118.488C587.162 118.488 587.582 118.632 587.894 118.92C588.206 119.208 588.362 119.58 588.362 120.036L588.542 145.092C588.542 145.572 588.374 145.956 588.038 146.244C587.702 146.532 587.27 146.676 586.742 146.676Z" fill="white"/>
<path d="M608.372 142.464C608.372 143.04 608.432 143.52 608.552 143.904C608.672 144.264 608.816 144.588 608.984 144.876C609.152 145.164 609.236 145.344 609.236 145.416C609.236 145.8 609.068 146.136 608.732 146.424C608.42 146.712 608.06 146.856 607.652 146.856C607.172 146.856 606.704 146.556 606.248 145.956C605.792 145.332 605.564 144.72 605.564 144.12V143.904C605.084 144.912 604.376 145.692 603.44 146.244C602.504 146.772 601.376 147.036 600.056 147.036C598.016 147.036 596.456 146.328 595.376 144.912C594.32 143.472 593.792 141.48 593.792 138.936V130.188C593.792 129.78 593.948 129.456 594.26 129.216C594.596 128.976 595.016 128.856 595.52 128.856C596.048 128.856 596.48 128.976 596.816 129.216C597.176 129.456 597.356 129.78 597.356 130.188V138.972C597.356 142.452 598.4 144.192 600.488 144.192C601.952 144.192 603.008 143.532 603.656 142.212C604.328 140.868 604.664 138.936 604.664 136.416V130.188C604.664 129.708 604.82 129.336 605.132 129.072C605.444 128.784 605.864 128.64 606.392 128.64C606.944 128.64 607.388 128.784 607.724 129.072C608.06 129.36 608.228 129.732 608.228 130.188L608.372 142.464Z" fill="white"/>
<path d="M630.5 141.852C630.692 143.124 630.824 144.12 630.896 144.84C630.992 145.56 631.04 146.256 631.04 146.928C631.04 148.704 630.668 150.276 629.924 151.644C629.204 153.012 628.172 154.08 626.828 154.848C625.508 155.616 623.972 156 622.22 156C620.876 156 619.64 155.736 618.512 155.208C617.384 154.68 616.484 153.96 615.812 153.048C615.14 152.136 614.804 151.152 614.804 150.096C614.804 149.184 615.368 148.728 616.496 148.728C617.216 148.728 617.648 149.076 617.792 149.772C618.032 150.876 618.524 151.692 619.268 152.22C620.036 152.772 620.996 153.048 622.148 153.048C623.876 153.048 625.196 152.52 626.108 151.464C627.044 150.408 627.512 148.872 627.512 146.856C627.512 146.208 627.452 145.488 627.332 144.696C626.78 145.368 626.024 145.92 625.064 146.352C624.128 146.76 623.048 146.964 621.824 146.964C620.096 146.964 618.56 146.568 617.216 145.776C615.896 144.96 614.876 143.868 614.156 142.5C613.436 141.132 613.076 139.644 613.076 138.036C613.076 136.38 613.424 134.844 614.12 133.428C614.84 132.012 615.848 130.896 617.144 130.08C618.464 129.24 619.964 128.82 621.644 128.82C623.516 128.82 624.992 129.288 626.072 130.224C626.168 129.936 626.384 129.408 626.72 128.64C626.96 128.16 627.356 127.92 627.908 127.92C628.364 127.92 628.796 128.052 629.204 128.316C629.636 128.556 629.864 128.868 629.888 129.252C629.888 129.42 629.876 129.54 629.852 129.612C629.444 130.908 629.204 131.724 629.132 132.06L630.356 140.844L630.5 141.852ZM622.004 143.94C623.06 143.94 624.08 143.652 625.064 143.076C626.072 142.5 626.672 141.876 626.864 141.204C626.72 139.836 626.444 137.952 626.036 135.552C626.012 135.312 625.916 134.7 625.748 133.716C625.532 133.26 625.052 132.828 624.308 132.42C623.588 132.012 622.772 131.808 621.86 131.808C620.852 131.808 619.952 132.084 619.16 132.636C618.368 133.164 617.744 133.908 617.288 134.868C616.856 135.804 616.64 136.848 616.64 138C616.64 139.656 617.096 141.06 618.008 142.212C618.944 143.364 620.276 143.94 622.004 143.94Z" fill="white"/>
<path d="M651.811 144.12C652.171 144.168 652.447 144.288 652.639 144.48C652.855 144.672 652.963 144.996 652.963 145.452C652.963 145.884 652.855 146.244 652.639 146.532C652.423 146.82 652.123 146.964 651.739 146.964C650.755 146.964 650.011 146.82 649.507 146.532C649.027 146.244 648.583 145.704 648.175 144.912C647.167 146.544 645.295 147.36 642.559 147.36C639.775 147.36 637.723 146.52 636.403 144.84C635.083 143.136 634.423 141.024 634.423 138.504C634.423 136.824 634.759 135.276 635.431 133.86C636.103 132.444 637.087 131.316 638.383 130.476C639.679 129.636 641.191 129.216 642.919 129.216C644.023 129.216 644.995 129.432 645.835 129.864C646.699 130.296 647.347 130.884 647.779 131.628L647.887 130.728C647.983 129.864 648.499 129.432 649.435 129.432C650.059 129.432 650.503 129.576 650.767 129.864C651.031 130.128 651.139 130.464 651.091 130.872C650.851 132.672 650.707 134.028 650.659 134.94C650.587 135.804 650.551 136.932 650.551 138.324V140.7C650.551 141.948 650.611 142.812 650.731 143.292C650.875 143.772 651.235 144.048 651.811 144.12ZM647.023 140.7C647.047 139.62 647.059 138.144 647.059 136.272C647.059 135.288 646.843 134.484 646.411 133.86C646.003 133.236 645.487 132.78 644.863 132.492C644.263 132.204 643.651 132.06 643.027 132.06C641.947 132.06 641.023 132.384 640.255 133.032C639.511 133.656 638.947 134.46 638.563 135.444C638.203 136.428 638.023 137.448 638.023 138.504C638.023 140.112 638.395 141.516 639.139 142.716C639.907 143.892 641.095 144.48 642.703 144.48C643.975 144.48 645.007 144.156 645.799 143.508C646.591 142.86 646.999 141.924 647.023 140.7Z" fill="white"/>
<path d="M666.251 128.424C667.787 128.424 669.011 128.916 669.923 129.9C670.835 130.884 671.291 132.108 671.291 133.572C671.291 134.964 670.859 136.056 669.995 136.848C669.131 137.64 668.015 138.036 666.647 138.036C666.047 138.036 665.615 137.952 665.351 137.784C665.111 137.592 664.991 137.268 664.991 136.812C664.991 136.404 665.075 136.116 665.243 135.948C665.435 135.756 665.711 135.648 666.071 135.624C667.583 135.504 668.339 134.796 668.339 133.5C668.339 132.876 668.159 132.348 667.799 131.916C667.463 131.484 666.935 131.268 666.215 131.268C665.375 131.268 664.619 131.664 663.947 132.456C663.299 133.248 662.771 134.208 662.363 135.336C661.979 136.464 661.751 137.532 661.679 138.54C661.511 140.34 661.427 142.356 661.427 144.588C661.427 145.668 661.307 146.388 661.067 146.748C660.827 147.108 660.371 147.288 659.699 147.288C659.051 147.288 658.583 147.156 658.295 146.892C658.031 146.604 657.899 146.136 657.899 145.488C657.875 145.032 657.863 142.86 657.863 138.972C657.863 137.028 657.731 134.784 657.467 132.24L657.251 129.468C657.227 129.012 657.359 128.652 657.647 128.388C657.959 128.124 658.391 127.992 658.943 127.992C659.903 127.992 660.407 128.424 660.455 129.288L660.707 132.96C661.139 131.592 661.835 130.5 662.795 129.684C663.755 128.844 664.907 128.424 666.251 128.424Z" fill="white"/>
<path d="M701.489 143.832C702.017 143.832 702.449 143.976 702.785 144.264C703.121 144.528 703.289 144.864 703.289 145.272C703.289 145.704 703.109 146.064 702.749 146.352C702.413 146.616 701.993 146.748 701.489 146.748C701.201 146.748 700.553 146.724 699.545 146.676C697.169 146.604 695.657 146.568 695.009 146.568C692.441 146.568 690.281 146.616 688.529 146.712C688.025 146.712 687.629 146.592 687.341 146.352C687.053 146.088 686.945 145.74 687.017 145.308C687.305 143.604 688.109 141.96 689.429 140.376C690.773 138.792 692.705 137.112 695.225 135.336C697.961 133.44 699.329 131.328 699.329 129C699.329 127.704 698.921 126.648 698.105 125.832C697.289 124.992 696.221 124.572 694.901 124.572C693.677 124.572 692.681 125.016 691.913 125.904C691.145 126.792 690.761 127.86 690.761 129.108C690.737 129.564 690.581 129.9 690.293 130.116C690.005 130.332 689.561 130.44 688.961 130.44C687.833 130.44 687.269 129.876 687.269 128.748C687.269 127.5 687.605 126.336 688.277 125.256C688.973 124.176 689.921 123.312 691.121 122.664C692.345 122.016 693.713 121.692 695.225 121.692C696.737 121.692 698.081 122.016 699.257 122.664C700.433 123.288 701.345 124.164 701.993 125.292C702.641 126.396 702.965 127.644 702.965 129.036C702.965 132.252 701.069 135.168 697.277 137.784C694.133 139.896 692.093 141.888 691.157 143.76C692.021 143.736 693.305 143.724 695.009 143.724C697.937 143.724 700.097 143.76 701.489 143.832Z" fill="white"/>
<path d="M722.031 133.356C723.207 133.356 723.795 133.848 723.795 134.832C723.795 135.264 723.663 135.624 723.399 135.912C723.135 136.176 722.751 136.308 722.247 136.308C721.191 136.308 720.387 136.32 719.835 136.344C718.827 139.488 717.627 142.728 716.235 146.064C716.139 146.328 715.911 146.556 715.551 146.748C715.191 146.916 714.831 147 714.471 147C713.943 147 713.499 146.868 713.139 146.604C712.803 146.34 712.635 146.004 712.635 145.596C712.635 145.5 712.683 145.308 712.779 145.02C713.715 142.86 714.783 139.992 715.983 136.416H713.931C713.403 136.416 712.995 136.296 712.707 136.056C712.443 135.792 712.311 135.432 712.311 134.976C712.311 134.52 712.455 134.16 712.743 133.896C713.055 133.608 713.451 133.464 713.931 133.464C715.347 133.464 716.367 133.452 716.991 133.428C717.759 130.98 718.143 129.144 718.143 127.92C718.143 126.84 717.867 126.084 717.315 125.652C716.787 125.196 715.755 124.968 714.219 124.968C713.163 124.968 712.119 125.052 711.087 125.22C710.055 125.388 708.927 125.616 707.703 125.904C707.463 125.952 707.307 125.976 707.235 125.976C706.827 125.976 706.491 125.844 706.227 125.58C705.987 125.316 705.867 124.968 705.867 124.536C705.867 123.84 706.311 123.348 707.199 123.06C707.871 122.82 708.843 122.592 710.115 122.376C711.411 122.136 712.767 122.016 714.183 122.016C716.607 122.016 718.467 122.484 719.763 123.42C721.083 124.332 721.743 125.748 721.743 127.668C721.743 129.012 721.407 130.92 720.735 133.392C721.023 133.368 721.455 133.356 722.031 133.356Z" fill="white"/>
<path d="M748.695 147.216C746.655 147.216 744.903 146.796 743.439 145.956C741.999 145.116 740.907 143.988 740.163 142.572C739.443 141.156 739.083 139.596 739.083 137.892C739.083 136.14 739.479 134.556 740.271 133.14C741.063 131.7 742.179 130.572 743.619 129.756C745.059 128.916 746.703 128.496 748.551 128.496C750.183 128.496 751.647 128.832 752.943 129.504C754.263 130.152 755.295 131.076 756.039 132.276C756.783 133.476 757.155 134.844 757.155 136.38C757.155 137.196 757.035 137.784 756.795 138.144C756.555 138.48 756.063 138.66 755.319 138.684L742.323 138.864C742.323 139.656 742.575 140.472 743.079 141.312C743.583 142.152 744.303 142.86 745.239 143.436C746.199 143.988 747.315 144.264 748.587 144.264C749.499 144.264 750.267 144.144 750.891 143.904C751.539 143.64 752.055 143.34 752.439 143.004C752.823 142.644 753.279 142.176 753.807 141.6C754.071 141.336 754.407 141.204 754.815 141.204C755.199 141.204 755.559 141.36 755.895 141.672C756.255 141.96 756.435 142.296 756.435 142.68C756.435 142.992 756.327 143.292 756.111 143.58C755.439 144.54 754.539 145.392 753.411 146.136C752.283 146.856 750.711 147.216 748.695 147.216ZM753.771 136.128C753.915 136.128 754.011 136.092 754.059 136.02C754.131 135.924 754.167 135.792 754.167 135.624C754.167 134.352 753.627 133.32 752.547 132.528C751.491 131.712 750.159 131.304 748.551 131.304C747.327 131.304 746.235 131.592 745.275 132.168C744.339 132.744 743.607 133.44 743.079 134.256C742.575 135.048 742.323 135.744 742.323 136.344L753.771 136.128Z" fill="white"/>
<path d="M768.111 147.216C766.455 147.216 765.027 146.82 763.827 146.028C762.627 145.236 761.727 144.204 761.127 142.932C760.959 142.596 760.875 142.332 760.875 142.14C760.899 141.732 761.127 141.372 761.559 141.06C761.991 140.724 762.423 140.58 762.855 140.628C763.095 140.676 763.275 140.772 763.395 140.916C763.539 141.036 763.731 141.252 763.971 141.564C764.619 142.452 765.231 143.136 765.807 143.616C766.407 144.072 767.187 144.3 768.147 144.3C769.035 144.3 769.779 144.084 770.379 143.652C770.979 143.22 771.279 142.68 771.279 142.032C771.279 141.336 770.967 140.808 770.343 140.448C769.719 140.064 768.735 139.632 767.391 139.152C766.143 138.744 765.123 138.348 764.331 137.964C763.539 137.556 762.855 137.004 762.279 136.308C761.727 135.588 761.451 134.676 761.451 133.572C761.451 132.564 761.727 131.652 762.279 130.836C762.855 129.996 763.647 129.348 764.655 128.892C765.663 128.412 766.803 128.172 768.075 128.172C769.371 128.172 770.511 128.424 771.495 128.928C772.479 129.408 773.235 130.056 773.763 130.872C774.291 131.688 774.555 132.576 774.555 133.536C774.555 134.088 774.423 134.496 774.159 134.76C773.919 135 773.511 135.12 772.935 135.12C772.359 135.12 771.975 135.024 771.783 134.832C771.591 134.616 771.483 134.34 771.459 134.004C771.363 133.068 771.027 132.36 770.451 131.88C769.899 131.376 769.107 131.124 768.075 131.124C766.995 131.124 766.203 131.376 765.699 131.88C765.219 132.36 764.979 132.9 764.979 133.5C764.979 134.22 765.291 134.772 765.915 135.156C766.563 135.54 767.583 135.972 768.975 136.452C770.223 136.884 771.231 137.292 771.999 137.676C772.791 138.06 773.463 138.6 774.015 139.296C774.567 139.968 774.843 140.844 774.843 141.924C774.843 143.076 774.519 144.048 773.871 144.84C773.247 145.632 772.419 146.232 771.387 146.64C770.355 147.024 769.263 147.216 768.111 147.216Z" fill="white"/>
<path d="M807.682 146.316C804.826 146.1 802.606 145.992 801.022 145.992C799.726 145.992 797.974 146.04 795.766 146.136L793.426 146.208C792.466 146.208 791.722 146.124 791.194 145.956C790.69 145.788 790.438 145.44 790.438 144.912C790.438 144.24 790.882 143.376 791.77 142.32C792.658 141.24 794.194 139.584 796.378 137.352C796.906 136.8 797.518 136.152 798.214 135.408C798.934 134.664 799.762 133.8 800.698 132.816C801.01 132.48 801.346 132.12 801.706 131.736C802.066 131.352 802.45 130.956 802.858 130.548C803.314 130.068 804.094 129.228 805.198 128.028C806.326 126.828 807.142 125.916 807.646 125.292C805.366 125.508 803.398 125.616 801.742 125.616C800.374 125.616 798.85 125.556 797.17 125.436C795.514 125.292 794.266 125.136 793.426 124.968C792.274 124.68 791.698 124.14 791.698 123.348C791.698 122.844 791.842 122.448 792.13 122.16C792.442 121.872 792.874 121.728 793.426 121.728C793.978 121.728 794.866 121.812 796.09 121.98C798.25 122.244 800.122 122.376 801.706 122.376C802.786 122.376 803.902 122.34 805.054 122.268C806.23 122.196 807.706 122.076 809.482 121.908C809.818 121.884 810.178 121.92 810.562 122.016C810.946 122.112 811.27 122.256 811.534 122.448C812.086 122.808 812.362 123.288 812.362 123.888C812.362 124.608 811.81 125.616 810.706 126.912C809.626 128.208 807.874 130.104 805.45 132.6L803.902 134.184C799.678 138.552 796.858 141.516 795.442 143.076C798.082 142.908 800.446 142.824 802.534 142.824C803.878 142.824 805.03 142.86 805.99 142.932C806.974 142.98 808.198 143.088 809.662 143.256C810.166 143.328 810.55 143.508 810.814 143.796C811.078 144.06 811.21 144.408 811.21 144.84C811.21 145.32 811.042 145.716 810.706 146.028C810.37 146.34 809.962 146.472 809.482 146.424L807.682 146.316Z" fill="white"/>
</g>
</g>
</svg>
