<svg viewBox="0 0 960 431" fill="none" xmlns="http://www.w3.org/2000/svg">
<g id="0119203">
<g id="Group 17">
<g id="Group 13">
<g id="Group 12">
<path id="Ellipse 11 (Stroke)" fill-rule="evenodd" clip-rule="evenodd" d="M83 81C102.33 81 118 65.33 118 46C118 26.67 102.33 11 83 11C63.67 11 48 26.67 48 46C48 65.33 63.67 81 83 81ZM83 86C105.091 86 123 68.0914 123 46C123 23.9086 105.091 6 83 6C60.9086 6 43 23.9086 43 46C43 68.0914 60.9086 86 83 86Z" fill="#1043F5"/>
<path id="Line 1 (Stroke)" fill-rule="evenodd" clip-rule="evenodd" d="M83 260L83 86H88L88 260H83Z" fill="#1043F5"/>
<path id="Line 2 (Stroke)" fill-rule="evenodd" clip-rule="evenodd" d="M50 277.921L82.7354 255L85.6032 259.096L52.8679 282.017L50 277.921Z" fill="#1043F5"/>
<path id="Line 3 (Stroke)" fill-rule="evenodd" clip-rule="evenodd" d="M87 255L119.735 277.922L116.867 282.017L84.1321 259.096L87 255Z" fill="#1043F5"/>
<path id="Line 4 (Stroke)" fill-rule="evenodd" clip-rule="evenodd" d="M138 138H36V133H138V138Z" fill="#1043F5"/>
</g>
<path id="2" d="M94.1455 60H72.7178V57.0127L84.0381 44.4346C85.7152 42.5329 86.8682 40.9906 87.4971 39.8076C88.141 38.6097 88.4629 37.3743 88.4629 36.1016C88.4629 34.3945 87.9463 32.9945 86.9131 31.9014C85.8799 30.8083 84.5023 30.2617 82.7803 30.2617C80.7139 30.2617 79.1042 30.8532 77.9512 32.0361C76.8132 33.2041 76.2441 34.8363 76.2441 36.9326H72.0889C72.0889 33.9229 73.0547 31.4896 74.9863 29.6328C76.9329 27.776 79.5309 26.8477 82.7803 26.8477C85.82 26.8477 88.2233 27.6488 89.9902 29.251C91.7572 30.8382 92.6406 32.957 92.6406 35.6074C92.6406 38.8268 90.5892 42.6602 86.4863 47.1074L77.7266 56.6084H94.1455V60Z" fill="white"/>
<path id="3" d="M6.75977 131.627H9.88184C11.8434 131.597 13.3857 131.08 14.5088 130.077C15.6318 129.074 16.1934 127.719 16.1934 126.012C16.1934 122.178 14.2842 120.262 10.4658 120.262C8.66895 120.262 7.23145 120.778 6.15332 121.812C5.09017 122.83 4.55859 124.185 4.55859 125.877H0.40332C0.40332 123.286 1.34668 121.138 3.2334 119.431C5.13509 117.709 7.5459 116.848 10.4658 116.848C13.5505 116.848 15.9688 117.664 17.7207 119.296C19.4727 120.928 20.3486 123.197 20.3486 126.102C20.3486 127.524 19.8844 128.902 18.9561 130.234C18.0426 131.567 16.7923 132.563 15.2051 133.222C17.002 133.791 18.387 134.734 19.3604 136.052C20.3486 137.369 20.8428 138.979 20.8428 140.881C20.8428 143.816 19.8844 146.144 17.9678 147.866C16.0511 149.588 13.5579 150.449 10.4883 150.449C7.41862 150.449 4.91797 149.618 2.98633 147.956C1.06966 146.294 0.111328 144.1 0.111328 141.375H4.28906C4.28906 143.097 4.85059 144.475 5.97363 145.508C7.09668 146.541 8.60156 147.058 10.4883 147.058C12.4948 147.058 14.0296 146.534 15.0928 145.485C16.1559 144.437 16.6875 142.932 16.6875 140.971C16.6875 139.069 16.1035 137.609 14.9355 136.591C13.7676 135.573 12.083 135.049 9.88184 135.019H6.75977V131.627Z" fill="white"/>
<path id="4" d="M163.26 142.017H167.797V145.408H163.26V153H159.082V145.408H144.19V142.96L158.835 120.297H163.26V142.017ZM148.907 142.017H159.082V125.979L158.588 126.878L148.907 142.017Z" fill="white"/>
<path id="5" d="M15.627 272.604L17.2891 256.297H34.0449V260.138H20.8154L19.8271 269.055C21.4294 268.111 23.2487 267.64 25.2852 267.64C28.265 267.64 30.6309 268.628 32.3828 270.604C34.1348 272.566 35.0107 275.224 35.0107 278.578C35.0107 281.947 34.0973 284.605 32.2705 286.552C30.4587 288.483 27.9206 289.449 24.6562 289.449C21.7663 289.449 19.4079 288.648 17.5811 287.046C15.7542 285.444 14.7135 283.228 14.459 280.397H18.3896C18.6442 282.269 19.3105 283.684 20.3887 284.643C21.4668 285.586 22.8893 286.058 24.6562 286.058C26.5879 286.058 28.1003 285.399 29.1934 284.081C30.3014 282.763 30.8555 280.944 30.8555 278.623C30.8555 276.437 30.2565 274.685 29.0586 273.367C27.8757 272.035 26.2959 271.368 24.3193 271.368C22.5075 271.368 21.085 271.765 20.0518 272.559L18.9512 273.457L15.627 272.604Z" fill="white"/>
<path id="2_2" d="M154.146 289H132.718V286.013L144.038 273.435C145.715 271.533 146.868 269.991 147.497 268.808C148.141 267.61 148.463 266.374 148.463 265.102C148.463 263.395 147.946 261.994 146.913 260.901C145.88 259.808 144.502 259.262 142.78 259.262C140.714 259.262 139.104 259.853 137.951 261.036C136.813 262.204 136.244 263.836 136.244 265.933H132.089C132.089 262.923 133.055 260.49 134.986 258.633C136.933 256.776 139.531 255.848 142.78 255.848C145.82 255.848 148.223 256.649 149.99 258.251C151.757 259.838 152.641 261.957 152.641 264.607C152.641 267.827 150.589 271.66 146.486 276.107L137.727 285.608H154.146V289Z" fill="white"/>
</g>
<g id="Group 14">
<g id="Group 12_2">
<path id="Ellipse 11 (Stroke)_2" fill-rule="evenodd" clip-rule="evenodd" d="M272 81C291.33 81 307 65.33 307 46C307 26.67 291.33 11 272 11C252.67 11 237 26.67 237 46C237 65.33 252.67 81 272 81ZM272 86C294.091 86 312 68.0914 312 46C312 23.9086 294.091 6 272 6C249.909 6 232 23.9086 232 46C232 68.0914 249.909 86 272 86Z" fill="#13EBF9"/>
<path id="Line 1 (Stroke)_2" fill-rule="evenodd" clip-rule="evenodd" d="M272 260V86H277V260H272Z" fill="#13EBF9"/>
<path id="Line 2 (Stroke)_2" fill-rule="evenodd" clip-rule="evenodd" d="M239 277.921L271.735 255L274.603 259.096L241.868 282.017L239 277.921Z" fill="#13EBF9"/>
<path id="Line 3 (Stroke)_2" fill-rule="evenodd" clip-rule="evenodd" d="M276 255L308.735 277.922L305.867 282.017L273.132 259.096L276 255Z" fill="#13EBF9"/>
<path id="Line 4 (Stroke)_2" fill-rule="evenodd" clip-rule="evenodd" d="M327 138H225V133H327V138Z" fill="#13EBF9"/>
</g>
<g id="12">
<path d="M262.374 60H258.196V32.3057L249.818 35.3828V31.6094L261.723 27.1396H262.374V60Z" fill="white"/>
<path d="M295.976 60H274.548V57.0127L285.868 44.4346C287.545 42.5329 288.698 40.9906 289.327 39.8076C289.971 38.6097 290.293 37.3743 290.293 36.1016C290.293 34.3945 289.776 32.9945 288.743 31.9014C287.71 30.8083 286.332 30.2617 284.61 30.2617C282.544 30.2617 280.934 30.8532 279.781 32.0361C278.643 33.2041 278.074 34.8363 278.074 36.9326H273.919C273.919 33.9229 274.885 31.4896 276.816 29.6328C278.763 27.776 281.361 26.8477 284.61 26.8477C287.65 26.8477 290.053 27.6488 291.82 29.251C293.587 30.8382 294.471 32.957 294.471 35.6074C294.471 38.8268 292.419 42.6602 288.316 47.1074L279.557 56.6084H295.976V60Z" fill="white"/>
</g>
<path id="5_2" d="M191.627 133.604L193.289 117.297H210.045V121.138H196.815L195.827 130.055C197.429 129.111 199.249 128.64 201.285 128.64C204.265 128.64 206.631 129.628 208.383 131.604C210.135 133.566 211.011 136.224 211.011 139.578C211.011 142.947 210.097 145.605 208.271 147.552C206.459 149.483 203.921 150.449 200.656 150.449C197.766 150.449 195.408 149.648 193.581 148.046C191.754 146.444 190.714 144.228 190.459 141.397H194.39C194.644 143.269 195.311 144.684 196.389 145.643C197.467 146.586 198.889 147.058 200.656 147.058C202.588 147.058 204.1 146.399 205.193 145.081C206.301 143.763 206.855 141.944 206.855 139.623C206.855 137.437 206.257 135.685 205.059 134.367C203.876 133.035 202.296 132.368 200.319 132.368C198.507 132.368 197.085 132.765 196.052 133.559L194.951 134.457L191.627 133.604Z" fill="white"/>
<path id="4_2" d="M352.26 142.017H356.797V145.408H352.26V153H348.082V145.408H333.19V142.96L347.835 120.297H352.26V142.017ZM337.907 142.017H348.082V125.979L347.588 126.878L337.907 142.017Z" fill="white"/>
<path id="4_3" d="M220.26 278.017H224.797V281.408H220.26V289H216.082V281.408H201.19V278.96L215.835 256.297H220.26V278.017ZM205.907 278.017H216.082V261.979L215.588 262.878L205.907 278.017Z" fill="white"/>
<path id="2_3" d="M343.146 289H321.718V286.013L333.038 273.435C334.715 271.533 335.868 269.991 336.497 268.808C337.141 267.61 337.463 266.374 337.463 265.102C337.463 263.395 336.946 261.994 335.913 260.901C334.88 259.808 333.502 259.262 331.78 259.262C329.714 259.262 328.104 259.853 326.951 261.036C325.813 262.204 325.244 263.836 325.244 265.933H321.089C321.089 262.923 322.055 260.49 323.986 258.633C325.933 256.776 328.531 255.848 331.78 255.848C334.82 255.848 337.223 256.649 338.99 258.251C340.757 259.838 341.641 261.957 341.641 264.607C341.641 267.827 339.589 271.66 335.486 276.107L326.727 285.608H343.146V289Z" fill="white"/>
</g>
<g id="Group 15">
<g id="Group 12_3">
<path id="Ellipse 11 (Stroke)_3" fill-rule="evenodd" clip-rule="evenodd" d="M475 81C494.33 81 510 65.33 510 46C510 26.67 494.33 11 475 11C455.67 11 440 26.67 440 46C440 65.33 455.67 81 475 81ZM475 86C497.091 86 515 68.0914 515 46C515 23.9086 497.091 6 475 6C452.909 6 435 23.9086 435 46C435 68.0914 452.909 86 475 86Z" fill="#2CF30B"/>
<path id="Line 1 (Stroke)_3" fill-rule="evenodd" clip-rule="evenodd" d="M475 260V86H480V260H475Z" fill="#2CF30B"/>
<path id="Line 2 (Stroke)_3" fill-rule="evenodd" clip-rule="evenodd" d="M442 277.921L474.735 255L477.603 259.096L444.868 282.017L442 277.921Z" fill="#2CF30B"/>
<path id="Line 3 (Stroke)_3" fill-rule="evenodd" clip-rule="evenodd" d="M479 255L511.735 277.922L508.867 282.017L476.132 259.096L479 255Z" fill="#2CF30B"/>
<path id="Line 4 (Stroke)_3" fill-rule="evenodd" clip-rule="evenodd" d="M530 138H428V133H530V138Z" fill="#2CF30B"/>
</g>
<path id="x" d="M473.298 44.5693L478.688 35.6973H483.54L475.589 47.7139L483.787 60H478.98L473.365 50.9033L467.75 60H462.921L471.119 47.7139L463.168 35.6973H467.975L473.298 44.5693Z" fill="white"/>
<path id="5_3" d="M394.627 133.604L396.289 117.297H413.045V121.138H399.815L398.827 130.055C400.429 129.111 402.249 128.64 404.285 128.64C407.265 128.64 409.631 129.628 411.383 131.604C413.135 133.566 414.011 136.224 414.011 139.578C414.011 142.947 413.097 145.605 411.271 147.552C409.459 149.483 406.921 150.449 403.656 150.449C400.766 150.449 398.408 149.648 396.581 148.046C394.754 146.444 393.714 144.228 393.459 141.397H397.39C397.644 143.269 398.311 144.684 399.389 145.643C400.467 146.586 401.889 147.058 403.656 147.058C405.588 147.058 407.1 146.399 408.193 145.081C409.301 143.763 409.855 141.944 409.855 139.623C409.855 137.437 409.257 135.685 408.059 134.367C406.876 133.035 405.296 132.368 403.319 132.368C401.507 132.368 400.085 132.765 399.052 133.559L397.951 134.457L394.627 133.604Z" fill="white"/>
<path id="3_2" d="M543.76 134.627H546.882C548.843 134.597 550.386 134.08 551.509 133.077C552.632 132.074 553.193 130.719 553.193 129.012C553.193 125.178 551.284 123.262 547.466 123.262C545.669 123.262 544.231 123.778 543.153 124.812C542.09 125.83 541.559 127.185 541.559 128.877H537.403C537.403 126.286 538.347 124.138 540.233 122.431C542.135 120.709 544.546 119.848 547.466 119.848C550.55 119.848 552.969 120.664 554.721 122.296C556.473 123.928 557.349 126.197 557.349 129.102C557.349 130.524 556.884 131.902 555.956 133.234C555.043 134.567 553.792 135.563 552.205 136.222C554.002 136.791 555.387 137.734 556.36 139.052C557.349 140.369 557.843 141.979 557.843 143.881C557.843 146.816 556.884 149.144 554.968 150.866C553.051 152.588 550.558 153.449 547.488 153.449C544.419 153.449 541.918 152.618 539.986 150.956C538.07 149.294 537.111 147.1 537.111 144.375H541.289C541.289 146.097 541.851 147.475 542.974 148.508C544.097 149.541 545.602 150.058 547.488 150.058C549.495 150.058 551.03 149.534 552.093 148.485C553.156 147.437 553.688 145.932 553.688 143.971C553.688 142.069 553.104 140.609 551.936 139.591C550.768 138.573 549.083 138.049 546.882 138.019H543.76V134.627Z" fill="white"/>
<path id="2_4" d="M427.146 289H405.718V286.013L417.038 273.435C418.715 271.533 419.868 269.991 420.497 268.808C421.141 267.61 421.463 266.374 421.463 265.102C421.463 263.395 420.946 261.994 419.913 260.901C418.88 259.808 417.502 259.262 415.78 259.262C413.714 259.262 412.104 259.853 410.951 261.036C409.813 262.204 409.244 263.836 409.244 265.933H405.089C405.089 262.923 406.055 260.49 407.986 258.633C409.933 256.776 412.531 255.848 415.78 255.848C418.82 255.848 421.223 256.649 422.99 258.251C424.757 259.838 425.641 261.957 425.641 264.607C425.641 267.827 423.589 271.66 419.486 276.107L410.727 285.608H427.146V289Z" fill="white"/>
<path id="4_4" d="M542.26 278.017H546.797V281.408H542.26V289H538.082V281.408H523.19V278.96L537.835 256.297H542.26V278.017ZM527.907 278.017H538.082V261.979L537.588 262.878L527.907 278.017Z" fill="white"/>
</g>
</g>
<g id="Group 18">
<g id="\Rightarrow 3\times4-5\times2">
<g id="Group">
<g id="Group_2">
<path id="Vector" d="M597.91 8.3709C597.91 7.9943 598.184 7.80599 598.732 7.80599C598.903 7.80599 599.04 7.80599 599.143 7.80599C599.245 7.80599 599.331 7.80599 599.399 7.80599C599.468 7.80599 599.536 7.82311 599.605 7.85735C599.673 7.89159 599.708 7.9087 599.708 7.9087C599.708 7.9087 599.742 7.96006 599.81 8.06277C599.879 8.16548 599.913 8.21684 599.913 8.21684C599.913 8.21684 599.964 8.30243 600.067 8.47361C601.334 11.0071 603.011 13.2496 605.1 15.2011C607.188 17.1526 609.088 18.5392 610.8 19.3609C612.512 20.1826 614.155 20.816 615.73 21.2611C616.312 21.4322 616.603 21.6548 616.603 21.9287C616.603 22.2026 616.449 22.3909 616.141 22.4936C615.833 22.5963 615.2 22.7846 614.241 23.0585C613.282 23.3324 612.29 23.7432 611.262 24.291C606.332 26.6876 602.601 30.3852 600.067 35.3837C599.93 35.6919 599.81 35.8631 599.708 35.8973C599.605 35.9315 599.348 35.9658 598.937 36C598.252 36 597.91 35.8802 597.91 35.6405C597.91 35.5036 597.996 35.2126 598.167 34.7675C599.365 32.4051 600.837 30.2996 602.583 28.4508L603.097 27.9372H571.719C571.24 27.6976 571 27.3552 571 26.9101C571 26.3966 571.274 26.0542 571.822 25.883H605.357L605.87 25.4722C607.205 24.4451 609.208 23.2639 611.879 21.9287C611.845 21.8944 611.536 21.7404 610.954 21.4665C610.372 21.1926 609.602 20.7817 608.643 20.234C607.685 19.6862 606.76 19.0699 605.87 18.3852L605.357 17.9743H571.822C571.274 17.8031 571 17.4608 571 16.9472C571 16.5021 571.24 16.1598 571.719 15.9201H603.097L602.583 15.4066C601.454 14.2083 600.392 12.8217 599.399 11.2468C598.407 9.6719 597.91 8.71327 597.91 8.3709Z" fill="white"/>
</g>
<g id="Group_3">
<path id="Vector_2" d="M640.268 10.99C639.344 10.99 638.625 10.699 638.111 10.117C637.597 9.53494 637.324 8.78173 637.289 7.85734C637.289 5.97431 638.111 4.29671 639.754 2.82452C641.398 1.35234 643.383 0.616253 645.712 0.616253C646.91 0.616253 647.663 0.63337 647.971 0.667606C650.505 1.07845 652.439 1.98572 653.774 3.38943C655.11 4.79314 655.794 6.31668 655.829 7.96005C655.829 9.74036 655.247 11.4693 654.082 13.1469C652.918 14.8245 651.309 16.0399 649.255 16.7931L649.101 16.8959C649.101 16.9301 649.255 16.9814 649.563 17.0499C649.871 17.1184 650.368 17.2725 651.053 17.5121C651.737 17.7518 652.388 18.1113 653.004 18.5906C655.811 20.4051 657.215 22.8017 657.215 25.7803C657.215 28.485 656.154 30.8473 654.031 32.8673C651.908 34.8873 649.221 35.8973 645.968 35.8973C643.229 35.8973 640.867 35.1612 638.881 33.689C636.896 32.2168 635.903 30.3509 635.903 28.0913C635.903 27.1327 636.211 26.3623 636.827 25.7803C637.443 25.1983 638.214 24.8901 639.138 24.8559C640.097 24.8559 640.884 25.164 641.5 25.7803C642.117 26.3966 642.425 27.1669 642.425 28.0913C642.425 28.4679 642.373 28.8103 642.271 29.1184C642.168 29.4265 642.048 29.7004 641.911 29.9401C641.774 30.1797 641.586 30.3852 641.346 30.5563C641.107 30.7275 640.901 30.8645 640.73 30.9672C640.559 31.0699 640.388 31.1384 640.217 31.1726C640.045 31.2068 639.908 31.2582 639.806 31.3267L639.6 31.378C641.346 32.9187 643.469 33.689 645.968 33.689C647.851 33.689 649.272 32.7817 650.231 30.9672C650.813 29.8374 651.104 28.1084 651.104 25.7803V24.7532C651.104 21.5007 650.008 19.3267 647.817 18.2311C647.304 18.0257 646.259 17.9058 644.684 17.8716L642.528 17.8202L642.373 17.7175C642.305 17.6148 642.271 17.3409 642.271 16.8959C642.271 16.2796 642.408 15.9715 642.682 15.9715C643.64 15.9715 644.633 15.8859 645.66 15.7147C646.824 15.5435 647.886 14.8245 648.844 13.5578C649.803 12.291 650.282 10.3737 650.282 7.80598V7.39514C650.282 5.44364 649.683 4.09129 648.485 3.33808C647.732 2.85876 646.927 2.61911 646.071 2.61911C644.975 2.61911 643.966 2.80741 643.041 3.18401C642.117 3.56062 641.466 3.95434 641.09 4.36518C640.713 4.77602 640.525 4.98144 640.525 4.98144H640.679C640.781 5.01568 640.918 5.04992 641.09 5.08415C641.261 5.11839 641.432 5.20398 641.603 5.34093C641.774 5.47788 641.98 5.59771 642.219 5.70042C642.459 5.80313 642.63 5.99143 642.733 6.26532C642.836 6.53922 642.973 6.79599 643.144 7.03565C643.315 7.27531 643.366 7.61768 643.298 8.06276C643.298 8.81597 643.058 9.48358 642.579 10.0656C642.1 10.6476 641.329 10.9558 640.268 10.99Z" fill="white"/>
</g>
<g id="Group_4">
<path id="Vector_3" d="M703.188 33.2782C703.188 33.9629 702.829 34.3053 702.11 34.3053C701.939 34.3053 701.562 34.0314 700.98 33.4836C700.398 32.9358 698.789 31.3438 696.153 28.7076L690.812 23.3666L685.419 28.7589C681.79 32.3196 679.924 34.1341 679.822 34.2026C679.685 34.2711 679.565 34.3053 679.462 34.3053C679.188 34.3053 678.949 34.2026 678.743 33.9972C678.538 33.7917 678.418 33.5521 678.384 33.2782C678.384 33.0385 678.623 32.6619 679.103 32.1484C679.582 31.6348 681.191 30.0086 683.93 27.2696L689.271 21.9287L683.93 16.5878C681.157 13.8146 679.548 12.1883 679.103 11.709C678.658 11.2297 678.418 10.8531 678.384 10.5792C678.384 10.2711 678.486 10.0314 678.692 9.86022C678.897 9.68904 679.154 9.60344 679.462 9.60344C679.633 9.60344 679.753 9.62056 679.822 9.6548C679.924 9.72327 681.79 11.5378 685.419 15.0985L690.812 20.4907L696.153 15.1498C698.789 12.5136 700.398 10.9216 700.98 10.3738C701.562 9.82598 701.939 9.55209 702.11 9.55209C702.829 9.55209 703.188 9.89446 703.188 10.5792C703.188 10.8189 703.017 11.127 702.675 11.5036C702.332 11.8802 700.655 13.5578 697.642 16.5364L692.301 21.9287L697.642 27.321C700.518 30.1969 702.161 31.8574 702.572 32.3024C702.983 32.7475 703.188 33.0728 703.188 33.2782Z" fill="white"/>
</g>
<g id="Group_5">
<path id="Vector_4" d="M745.926 34.7675C745.31 34.6647 743.102 34.6134 739.301 34.6134C735.33 34.6134 733.036 34.6647 732.42 34.7675H731.957V32.4051H733.549C734.234 32.4051 734.696 32.4051 734.936 32.4051C735.176 32.4051 735.467 32.3709 735.809 32.3024C736.151 32.2339 736.391 32.1483 736.528 32.0456C736.665 31.9429 736.785 31.806 736.888 31.6348C736.922 31.5663 736.939 30.6419 736.939 28.8616V26.2938H723.638V23.9315L731.393 12.0685C736.631 4.12552 739.284 0.136928 739.353 0.102692C739.421 0.034218 739.781 -1.90735e-05 740.431 -1.90735e-05H741.355L741.664 0.308113V23.9315H746.388V26.2938H741.664V28.913C741.664 30.3167 741.664 31.1384 741.664 31.378C741.664 31.6177 741.766 31.8231 741.972 31.9943C742.246 32.2339 743.221 32.3709 744.899 32.4051H746.388V34.7675H745.926ZM737.247 23.9315V6.77887L726 23.8802L731.598 23.9315H737.247Z" fill="white"/>
</g>
<g id="Group_6">
<path id="Vector_5" d="M763.603 22.5963C763.603 22.5963 763.603 22.3738 763.603 21.9287C763.603 21.4836 763.842 21.1413 764.322 20.9016H794.159C794.672 21.1755 794.929 21.5179 794.929 21.9287C794.929 22.3395 794.672 22.6819 794.159 22.9558H764.322C763.842 22.7162 763.603 22.3738 763.603 21.9287V22.5963Z" fill="white"/>
</g>
<g id="Group_7">
<path id="Vector_6" d="M819.082 26.7047C819.082 27.5264 818.808 28.2111 818.26 28.7589C817.712 29.3067 817.044 29.5806 816.257 29.5806H815.898C817.472 32.2853 819.561 33.6376 822.163 33.6376C824.559 33.6376 826.306 32.6105 827.401 30.5563C828.052 29.4265 828.377 27.2354 828.377 23.9829C828.377 20.4565 827.915 18.077 826.99 16.8445C826.1 15.7147 825.107 15.1498 824.012 15.1498H823.704C821.033 15.1498 819.013 16.3138 817.644 18.6419C817.507 18.8816 817.387 19.0185 817.284 19.0528C817.181 19.087 816.925 19.1212 816.514 19.1555C815.932 19.1555 815.607 19.0528 815.538 18.8473C815.47 18.7104 815.435 15.7147 815.435 9.86019V3.23537C815.435 1.52353 815.521 0.667606 815.692 0.667606C815.761 0.599133 815.829 0.564896 815.898 0.564896C815.932 0.564896 816.291 0.701844 816.976 0.975739C817.661 1.24963 818.602 1.52353 819.801 1.79742C820.999 2.07131 822.283 2.20826 823.652 2.20826C826.083 2.20826 828.411 1.72895 830.636 0.770317C830.91 0.63337 831.133 0.564896 831.304 0.564896C831.578 0.564896 831.715 0.873026 831.715 1.48929V2.15691C828.908 5.47788 825.398 7.13836 821.187 7.13836C820.126 7.13836 819.167 7.03565 818.311 6.83023L817.798 6.72752V15.5606C818.448 15.0813 818.962 14.7047 819.338 14.4308C819.715 14.1569 820.331 13.883 821.187 13.6091C822.043 13.3352 822.916 13.1983 823.806 13.1983C826.579 13.1983 828.925 14.311 830.842 16.5364C832.759 18.7618 833.718 21.398 833.718 24.4451C833.718 27.5949 832.622 30.2824 830.431 32.5078C828.24 34.7332 825.569 35.863 822.42 35.8973C819.646 35.8973 817.421 34.9729 815.743 33.1241C814.066 31.2753 813.227 29.1869 813.227 26.8588C813.227 26.0371 813.415 25.3866 813.792 24.9073C814.169 24.4279 814.562 24.1198 814.973 23.9829C815.384 23.8459 815.778 23.7774 816.154 23.7774C817.01 23.7774 817.712 24.0685 818.26 24.6505C818.808 25.2325 819.082 25.9172 819.082 26.7047Z" fill="white"/>
</g>
<g id="Group_8">
<path id="Vector_7" d="M880.102 33.2782C880.102 33.9629 879.742 34.3053 879.024 34.3053C878.852 34.3053 878.476 34.0314 877.894 33.4836C877.312 32.9358 875.703 31.3438 873.066 28.7076L867.725 23.3666L862.333 28.7589C858.704 32.3196 856.838 34.1341 856.735 34.2026C856.598 34.2711 856.479 34.3053 856.376 34.3053C856.102 34.3053 855.862 34.2026 855.657 33.9972C855.451 33.7917 855.332 33.5521 855.297 33.2782C855.297 33.0385 855.537 32.6619 856.016 32.1484C856.496 31.6348 858.105 30.0086 860.844 27.2696L866.185 21.9287L860.844 16.5878C858.071 13.8146 856.461 12.1883 856.016 11.709C855.571 11.2297 855.332 10.8531 855.297 10.5792C855.297 10.2711 855.4 10.0314 855.606 9.86022C855.811 9.68904 856.068 9.60344 856.376 9.60344C856.547 9.60344 856.667 9.62056 856.735 9.6548C856.838 9.72327 858.704 11.5378 862.333 15.0985L867.725 20.4907L873.066 15.1498C875.703 12.5136 877.312 10.9216 877.894 10.3738C878.476 9.82598 878.852 9.55209 879.024 9.55209C879.742 9.55209 880.102 9.89446 880.102 10.5792C880.102 10.8189 879.931 11.127 879.588 11.5036C879.246 11.8802 877.568 13.5578 874.556 16.5364L869.215 21.9287L874.556 27.321C877.431 30.1969 879.075 31.8574 879.486 32.3024C879.897 32.7475 880.102 33.0728 880.102 33.2782Z" fill="white"/>
</g>
<g id="Group_9">
<path id="Vector_8" d="M904.711 12.7361C903.787 12.7361 903.051 12.4279 902.503 11.8117C901.955 11.1954 901.681 10.4422 901.681 9.55205C901.681 7.12124 902.589 5.01567 904.403 3.23536C906.218 1.45505 908.477 0.564888 911.182 0.564888C914.298 0.564888 916.9 1.52352 918.988 3.44078C921.076 5.35804 922.138 7.84021 922.172 10.8873C922.172 12.3595 921.83 13.7632 921.145 15.0984C920.46 16.4336 919.638 17.5977 918.68 18.5906C917.721 19.5834 916.352 20.8502 914.571 22.3909C913.339 23.4522 911.627 25.0271 909.436 27.1155L906.406 29.9914L910.309 30.0428C915.684 30.0428 918.543 29.9572 918.885 29.786C919.125 29.7175 919.536 28.194 920.118 25.2154V25.0613H922.172V25.2154C922.138 25.3181 921.915 26.8759 921.504 29.8887C921.094 32.9016 920.837 34.4764 920.734 34.6134V34.7675H901.681V33.7917V33.1754C901.681 32.9358 901.784 32.679 901.989 32.4051C902.195 32.1312 902.708 31.5321 903.53 30.6077C904.523 29.5121 905.379 28.5535 906.098 27.7318C906.406 27.3894 906.988 26.756 907.844 25.8317C908.7 24.9073 909.282 24.2739 909.59 23.9315C909.898 23.5891 910.395 23.0242 911.079 22.2368C911.764 21.4493 912.243 20.8673 912.517 20.4907C912.791 20.1141 913.185 19.6006 913.698 18.9501C914.212 18.2996 914.571 17.7518 914.777 17.3067C914.982 16.8616 915.239 16.3652 915.547 15.8174C915.855 15.2696 916.078 14.7218 916.215 14.174C916.352 13.6262 916.472 13.1127 916.574 12.6334C916.677 12.154 916.728 11.5891 916.728 10.9386C916.728 8.78172 916.146 6.91582 914.982 5.34092C913.818 3.76603 912.158 2.97858 910.001 2.97858C908.871 2.97858 907.878 3.2696 907.022 3.85162C906.166 4.43365 905.567 4.99856 905.225 5.54634C904.882 6.09413 904.711 6.41938 904.711 6.52209C904.711 6.55633 904.797 6.57345 904.968 6.57345C905.584 6.57345 906.218 6.81311 906.868 7.29242C907.519 7.77174 907.844 8.55918 907.844 9.65476C907.844 10.5107 907.57 11.2297 907.022 11.8117C906.474 12.3937 905.704 12.7018 904.711 12.7361Z" fill="white"/>
</g>
</g>
</g>
<g id="12-10=2">
<g id="Group_10">
<g id="Group_11">
<path id="Vector_9" d="M673.802 73.6046L673.122 73.8663C672.634 74.0407 671.936 74.2151 671.029 74.3895C670.122 74.5639 669.11 74.686 667.994 74.7558H667V72.3488H667.994C669.634 72.279 671.151 72.0174 672.547 71.5639C673.942 71.1104 674.919 70.6918 675.477 70.3081C676.035 69.9244 676.523 69.5407 676.942 69.157C677.012 69.0523 677.221 69 677.57 69C677.884 69 678.18 69.1046 678.459 69.3139V84.9593L678.512 100.657C678.756 100.901 678.965 101.058 679.14 101.128C679.314 101.198 679.733 101.267 680.395 101.337C681.058 101.407 682.14 101.442 683.64 101.442H685V103.849H684.424C683.692 103.744 680.919 103.692 676.105 103.692C671.36 103.692 668.622 103.744 667.89 103.849H667.262V101.442H668.622C669.39 101.442 670.052 101.442 670.61 101.442C671.169 101.442 671.605 101.424 671.919 101.39C672.233 101.355 672.512 101.302 672.756 101.233C673 101.163 673.14 101.128 673.174 101.128C673.209 101.128 673.314 101.041 673.488 100.866C673.663 100.692 673.767 100.622 673.802 100.657V73.6046Z" fill="white"/>
<path id="Vector_10" d="M694.523 81.4011C693.581 81.4011 692.831 81.0872 692.273 80.4593C691.715 79.8314 691.436 79.0639 691.436 78.157C691.436 75.6802 692.361 73.5349 694.209 71.7209C696.058 69.907 698.361 69 701.116 69C704.291 69 706.942 69.9767 709.07 71.9302C711.198 73.8837 712.279 76.4128 712.314 79.5174C712.314 81.0174 711.965 82.4477 711.268 83.8081C710.57 85.1686 709.733 86.3546 708.756 87.3663C707.779 88.3779 706.384 89.6686 704.57 91.2383C703.314 92.3197 701.57 93.9244 699.337 96.0523L696.25 98.9825L700.227 99.0349C705.704 99.0349 708.616 98.9477 708.965 98.7732C709.209 98.7035 709.628 97.1511 710.221 94.1163V93.9593H712.314V94.1163C712.279 94.2209 712.052 95.8081 711.634 98.8779C711.215 101.948 710.954 103.552 710.849 103.692V103.849H691.436V102.855V102.227C691.436 101.983 691.541 101.721 691.75 101.442C691.959 101.163 692.483 100.552 693.32 99.6104C694.331 98.4942 695.204 97.5174 695.936 96.6802C696.25 96.3314 696.843 95.686 697.715 94.7442C698.587 93.8023 699.18 93.157 699.494 92.8081C699.808 92.4593 700.314 91.8837 701.012 91.0814C701.709 90.279 702.198 89.686 702.477 89.3023C702.756 88.9186 703.157 88.3953 703.68 87.7325C704.204 87.0697 704.57 86.5116 704.779 86.0581C704.988 85.6046 705.25 85.0988 705.564 84.5407C705.878 83.9825 706.105 83.4244 706.244 82.8663C706.384 82.3081 706.506 81.7849 706.611 81.2965C706.715 80.8081 706.768 80.2325 706.768 79.5697C706.768 77.3721 706.174 75.4709 704.988 73.8663C703.802 72.2616 702.111 71.4593 699.913 71.4593C698.762 71.4593 697.75 71.7558 696.878 72.3488C696.006 72.9418 695.395 73.5174 695.047 74.0756C694.698 74.6337 694.523 74.9651 694.523 75.0697C694.523 75.1046 694.611 75.1221 694.785 75.1221C695.413 75.1221 696.058 75.3663 696.721 75.8546C697.384 76.343 697.715 77.1453 697.715 78.2616C697.715 79.1337 697.436 79.8663 696.878 80.4593C696.32 81.0523 695.535 81.3663 694.523 81.4011Z" fill="white"/>
</g>
<g id="Group_12">
<path id="Vector_11" d="M731.005 91.4477C731.005 91.4477 731.005 91.2209 731.005 90.7675C731.005 90.314 731.249 89.9651 731.737 89.7209H762.138C762.662 90 762.923 90.3488 762.923 90.7675C762.923 91.1861 762.662 91.5349 762.138 91.814H731.737C731.249 91.5698 731.005 91.2209 731.005 90.7675V91.4477Z" fill="white"/>
</g>
<g id="Group_13">
<path id="Vector_12" d="M790.091 73.6046L789.41 73.8663C788.922 74.0407 788.224 74.2151 787.317 74.3895C786.41 74.5639 785.399 74.686 784.282 74.7558H783.288V72.3488H784.282C785.922 72.279 787.439 72.0174 788.835 71.5639C790.23 71.1104 791.207 70.6918 791.765 70.3081C792.323 69.9244 792.811 69.5407 793.23 69.157C793.3 69.0523 793.509 69 793.858 69C794.172 69 794.468 69.1046 794.748 69.3139V84.9593L794.8 100.657C795.044 100.901 795.253 101.058 795.428 101.128C795.602 101.198 796.021 101.267 796.684 101.337C797.346 101.407 798.428 101.442 799.928 101.442H801.288V103.849H800.713C799.98 103.744 797.207 103.692 792.393 103.692C787.649 103.692 784.91 103.744 784.178 103.849H783.55V101.442H784.91C785.678 101.442 786.341 101.442 786.899 101.442C787.457 101.442 787.893 101.424 788.207 101.39C788.521 101.355 788.8 101.302 789.044 101.233C789.288 101.163 789.428 101.128 789.463 101.128C789.498 101.128 789.602 101.041 789.777 100.866C789.951 100.692 790.056 100.622 790.091 100.657V73.6046Z" fill="white"/>
<path id="Vector_13" d="M810.131 73.2384C812.085 70.4128 814.753 69 818.137 69C819.811 69 821.486 69.4535 823.16 70.3605C824.835 71.2674 826.195 72.8721 827.242 75.1744C828.532 78.0698 829.178 82.0465 829.178 87.1047C829.178 92.5116 828.428 96.6453 826.928 99.5058C826.23 100.971 825.271 102.14 824.05 103.012C822.829 103.884 821.765 104.424 820.858 104.634C819.951 104.843 819.061 104.965 818.189 105C817.282 105 816.375 104.895 815.468 104.686C814.561 104.477 813.498 103.919 812.277 103.012C811.056 102.105 810.096 100.936 809.399 99.5058C807.899 96.6453 807.149 92.5116 807.149 87.1047C807.149 81.0349 808.143 76.4128 810.131 73.2384ZM821.904 72.6105C820.858 71.4942 819.62 70.936 818.189 70.936C816.724 70.936 815.468 71.4942 814.422 72.6105C813.55 73.5174 812.974 74.7733 812.695 76.3779C812.416 77.9826 812.277 81.3314 812.277 86.4244C812.277 91.936 812.416 95.564 812.695 97.3081C812.974 99.0523 813.602 100.43 814.579 101.442C815.556 102.488 816.759 103.012 818.189 103.012C819.585 103.012 820.771 102.488 821.748 101.442C822.759 100.395 823.387 98.9302 823.631 97.0465C823.875 95.1628 824.015 91.6221 824.05 86.4244C824.05 81.3663 823.91 78.0349 823.631 76.4302C823.352 74.8256 822.777 73.5523 821.904 72.6105Z" fill="white"/>
</g>
<g id="Group_14">
<path id="Vector_14" d="M848.737 85.6919C848.737 85.2384 848.981 84.8895 849.47 84.6453H882.801C883.324 84.9244 883.586 85.2732 883.586 85.6919C883.586 86.0756 883.342 86.407 882.854 86.686L866.214 86.7384H849.574C849.016 86.5639 848.737 86.2151 848.737 85.6919ZM848.737 95.843C848.737 95.3198 849.016 94.9709 849.574 94.7965H882.854C883.342 95.1453 883.586 95.4942 883.586 95.843C883.586 96.2965 883.324 96.6453 882.801 96.8895H849.47C848.981 96.6453 848.737 96.2965 848.737 95.843Z" fill="white"/>
</g>
<g id="Group_15">
<path id="Vector_15" d="M906.756 81.4011C905.814 81.4011 905.064 81.0872 904.506 80.4593C903.948 79.8314 903.669 79.0639 903.669 78.157C903.669 75.6802 904.593 73.5349 906.442 71.7209C908.291 69.907 910.593 69 913.349 69C916.523 69 919.174 69.9767 921.302 71.9302C923.43 73.8837 924.512 76.4128 924.547 79.5174C924.547 81.0174 924.198 82.4477 923.5 83.8081C922.802 85.1686 921.965 86.3546 920.988 87.3663C920.012 88.3779 918.616 89.6686 916.802 91.2383C915.547 92.3197 913.802 93.9244 911.57 96.0523L908.483 98.9825L912.459 99.0349C917.936 99.0349 920.849 98.9477 921.198 98.7732C921.442 98.7035 921.861 97.1511 922.454 94.1163V93.9593H924.547V94.1163C924.512 94.2209 924.285 95.8081 923.866 98.8779C923.448 101.948 923.186 103.552 923.081 103.692V103.849H903.669V102.855V102.227C903.669 101.983 903.773 101.721 903.983 101.442C904.192 101.163 904.715 100.552 905.552 99.6104C906.564 98.4942 907.436 97.5174 908.169 96.6802C908.483 96.3314 909.076 95.686 909.948 94.7442C910.82 93.8023 911.413 93.157 911.727 92.8081C912.041 92.4593 912.547 91.8837 913.244 91.0814C913.942 90.279 914.43 89.686 914.709 89.3023C914.988 88.9186 915.39 88.3953 915.913 87.7325C916.436 87.0697 916.802 86.5116 917.012 86.0581C917.221 85.6046 917.483 85.0988 917.797 84.5407C918.111 83.9825 918.337 83.4244 918.477 82.8663C918.616 82.3081 918.738 81.7849 918.843 81.2965C918.948 80.8081 919 80.2325 919 79.5697C919 77.3721 918.407 75.4709 917.221 73.8663C916.035 72.2616 914.343 71.4593 912.145 71.4593C910.994 71.4593 909.983 71.7558 909.111 72.3488C908.238 72.9418 907.628 73.5174 907.279 74.0756C906.93 74.6337 906.756 74.9651 906.756 75.0697C906.756 75.1046 906.843 75.1221 907.017 75.1221C907.645 75.1221 908.291 75.3663 908.954 75.8546C909.616 76.343 909.948 77.1453 909.948 78.2616C909.948 79.1337 909.669 79.8663 909.111 80.4593C908.552 81.0523 907.767 81.3663 906.756 81.4011Z" fill="white"/>
</g>
</g>
</g>
<g id="\Rightarrow 5 \times4-4 \times2">
<g id="Group_16">
<g id="Group_17">
<path id="Vector_16" d="M603.91 146.371C603.91 145.994 604.184 145.806 604.732 145.806C604.903 145.806 605.04 145.806 605.143 145.806C605.245 145.806 605.331 145.806 605.399 145.806C605.468 145.806 605.536 145.823 605.605 145.857C605.673 145.892 605.708 145.909 605.708 145.909C605.708 145.909 605.742 145.96 605.81 146.063C605.879 146.165 605.913 146.217 605.913 146.217C605.913 146.217 605.964 146.302 606.067 146.474C607.334 149.007 609.011 151.25 611.1 153.201C613.188 155.153 615.088 156.539 616.8 157.361C618.512 158.183 620.155 158.816 621.73 159.261C622.312 159.432 622.603 159.655 622.603 159.929C622.603 160.203 622.449 160.391 622.141 160.494C621.833 160.596 621.2 160.785 620.241 161.058C619.282 161.332 618.29 161.743 617.262 162.291C612.332 164.688 608.601 168.385 606.067 173.384C605.93 173.692 605.81 173.863 605.708 173.897C605.605 173.932 605.348 173.966 604.937 174C604.252 174 603.91 173.88 603.91 173.641C603.91 173.504 603.996 173.213 604.167 172.767C605.365 170.405 606.837 168.3 608.583 166.451L609.097 165.937H577.719C577.24 165.698 577 165.355 577 164.91C577 164.397 577.274 164.054 577.822 163.883H611.357L611.87 163.472C613.205 162.445 615.208 161.264 617.879 159.929C617.845 159.894 617.536 159.74 616.954 159.466C616.372 159.193 615.602 158.782 614.643 158.234C613.685 157.686 612.76 157.07 611.87 156.385L611.357 155.974H577.822C577.274 155.803 577 155.461 577 154.947C577 154.502 577.24 154.16 577.719 153.92H609.097L608.583 153.407C607.454 152.208 606.392 150.822 605.399 149.247C604.407 147.672 603.91 146.713 603.91 146.371Z" fill="white"/>
</g>
<g id="Group_18">
<path id="Vector_17" d="M648.168 164.705C648.168 165.526 647.894 166.211 647.346 166.759C646.799 167.307 646.131 167.581 645.343 167.581H644.984C646.559 170.285 648.647 171.638 651.249 171.638C653.646 171.638 655.392 170.611 656.488 168.556C657.138 167.427 657.463 165.235 657.463 161.983C657.463 158.457 657.001 156.077 656.077 154.845C655.187 153.715 654.194 153.15 653.098 153.15H652.79C650.12 153.15 648.1 154.314 646.73 156.642C646.593 156.882 646.473 157.019 646.371 157.053C646.268 157.087 646.011 157.121 645.6 157.156C645.018 157.156 644.693 157.053 644.625 156.847C644.556 156.71 644.522 153.715 644.522 147.86V141.235C644.522 139.524 644.607 138.668 644.779 138.668C644.847 138.599 644.916 138.565 644.984 138.565C645.018 138.565 645.378 138.702 646.062 138.976C646.747 139.25 647.689 139.524 648.887 139.797C650.085 140.071 651.369 140.208 652.739 140.208C655.169 140.208 657.498 139.729 659.723 138.77C659.997 138.633 660.219 138.565 660.391 138.565C660.664 138.565 660.801 138.873 660.801 139.489V140.157C657.994 143.478 654.485 145.138 650.274 145.138C649.212 145.138 648.254 145.036 647.398 144.83L646.884 144.728V153.561C647.535 153.081 648.048 152.705 648.425 152.431C648.801 152.157 649.418 151.883 650.274 151.609C651.129 151.335 652.003 151.198 652.893 151.198C655.666 151.198 658.011 152.311 659.928 154.536C661.846 156.762 662.804 159.398 662.804 162.445C662.804 165.595 661.709 168.283 659.518 170.508C657.326 172.733 654.656 173.863 651.506 173.897C648.733 173.897 646.508 172.973 644.83 171.124C643.152 169.275 642.314 167.187 642.314 164.859C642.314 164.037 642.502 163.387 642.878 162.907C643.255 162.428 643.649 162.12 644.06 161.983C644.47 161.846 644.864 161.778 645.241 161.778C646.097 161.778 646.799 162.069 647.346 162.651C647.894 163.233 648.168 163.917 648.168 164.705Z" fill="white"/>
</g>
<g id="Group_19">
<path id="Vector_18" d="M709.188 171.278C709.188 171.963 708.829 172.305 708.11 172.305C707.939 172.305 707.562 172.031 706.98 171.484C706.398 170.936 704.789 169.344 702.153 166.708L696.812 161.367L691.419 166.759C687.79 170.32 685.924 172.134 685.822 172.203C685.685 172.271 685.565 172.305 685.462 172.305C685.188 172.305 684.949 172.203 684.743 171.997C684.538 171.792 684.418 171.552 684.384 171.278C684.384 171.039 684.623 170.662 685.103 170.148C685.582 169.635 687.191 168.009 689.93 165.27L695.271 159.929L689.93 154.588C687.157 151.815 685.548 150.188 685.103 149.709C684.658 149.23 684.418 148.853 684.384 148.579C684.384 148.271 684.486 148.031 684.692 147.86C684.897 147.689 685.154 147.603 685.462 147.603C685.633 147.603 685.753 147.621 685.822 147.655C685.924 147.723 687.79 149.538 691.419 153.098L696.812 158.491L702.153 153.15C704.789 150.514 706.398 148.922 706.98 148.374C707.562 147.826 707.939 147.552 708.11 147.552C708.829 147.552 709.188 147.894 709.188 148.579C709.188 148.819 709.017 149.127 708.675 149.504C708.332 149.88 706.655 151.558 703.642 154.536L698.301 159.929L703.642 165.321C706.518 168.197 708.161 169.857 708.572 170.302C708.983 170.748 709.188 171.073 709.188 171.278Z" fill="white"/>
</g>
<g id="Group_20">
<path id="Vector_19" d="M751.926 172.767C751.31 172.665 749.102 172.613 745.301 172.613C741.33 172.613 739.036 172.665 738.42 172.767H737.958V170.405H739.55C740.234 170.405 740.696 170.405 740.936 170.405C741.176 170.405 741.467 170.371 741.809 170.302C742.152 170.234 742.391 170.148 742.528 170.046C742.665 169.943 742.785 169.806 742.888 169.635C742.922 169.566 742.939 168.642 742.939 166.862V164.294H729.638V161.932L737.393 150.068C742.631 142.126 745.284 138.137 745.353 138.103C745.421 138.034 745.781 138 746.431 138H747.356L747.664 138.308V161.932H752.388V164.294H747.664V166.913C747.664 168.317 747.664 169.138 747.664 169.378C747.664 169.618 747.766 169.823 747.972 169.994C748.246 170.234 749.221 170.371 750.899 170.405H752.388V172.767H751.926ZM743.247 161.932V144.779L732 161.88L737.598 161.932H743.247Z" fill="white"/>
</g>
<g id="Group_21">
<path id="Vector_20" d="M769.603 160.596C769.603 160.596 769.603 160.374 769.603 159.929C769.603 159.484 769.842 159.141 770.322 158.902H800.159C800.672 159.175 800.929 159.518 800.929 159.929C800.929 160.34 800.672 160.682 800.159 160.956H770.322C769.842 160.716 769.603 160.374 769.603 159.929V160.596Z" fill="white"/>
</g>
<g id="Group_22">
<path id="Vector_21" d="M840.385 172.767C839.769 172.665 837.561 172.613 833.761 172.613C829.789 172.613 827.495 172.665 826.879 172.767H826.417V170.405H828.009C828.694 170.405 829.156 170.405 829.395 170.405C829.635 170.405 829.926 170.371 830.268 170.302C830.611 170.234 830.85 170.148 830.987 170.046C831.124 169.943 831.244 169.806 831.347 169.635C831.381 169.566 831.398 168.642 831.398 166.862V164.294H818.097V161.932L825.852 150.068C831.09 142.126 833.743 138.137 833.812 138.103C833.88 138.034 834.24 138 834.89 138H835.815L836.123 138.308V161.932H840.848V164.294H836.123V166.913C836.123 168.317 836.123 169.138 836.123 169.378C836.123 169.618 836.226 169.823 836.431 169.994C836.705 170.234 837.681 170.371 839.358 170.405H840.848V172.767H840.385ZM831.706 161.932V144.779L820.46 161.88L826.057 161.932H831.706Z" fill="white"/>
</g>
<g id="Group_23">
<path id="Vector_22" d="M886.102 171.278C886.102 171.963 885.742 172.305 885.023 172.305C884.852 172.305 884.476 172.031 883.894 171.484C883.312 170.936 881.702 169.344 879.066 166.708L873.725 161.367L868.333 166.759C864.704 170.32 862.838 172.134 862.735 172.203C862.598 172.271 862.478 172.305 862.376 172.305C862.102 172.305 861.862 172.203 861.657 171.997C861.451 171.792 861.332 171.552 861.297 171.278C861.297 171.039 861.537 170.662 862.016 170.148C862.496 169.635 864.105 168.009 866.844 165.27L872.185 159.929L866.844 154.588C864.07 151.815 862.461 150.188 862.016 149.709C861.571 149.23 861.332 148.853 861.297 148.579C861.297 148.271 861.4 148.031 861.605 147.86C861.811 147.689 862.068 147.603 862.376 147.603C862.547 147.603 862.667 147.621 862.735 147.655C862.838 147.723 864.704 149.538 868.333 153.098L873.725 158.491L879.066 153.15C881.702 150.514 883.312 148.922 883.894 148.374C884.476 147.826 884.852 147.552 885.023 147.552C885.742 147.552 886.102 147.894 886.102 148.579C886.102 148.819 885.931 149.127 885.588 149.504C885.246 149.88 883.568 151.558 880.555 154.536L875.215 159.929L880.555 165.321C883.431 168.197 885.075 169.857 885.486 170.302C885.896 170.748 886.102 171.073 886.102 171.278Z" fill="white"/>
</g>
<g id="Group_24">
<path id="Vector_23" d="M910.711 150.736C909.787 150.736 909.051 150.428 908.503 149.812C907.955 149.195 907.681 148.442 907.681 147.552C907.681 145.121 908.589 143.016 910.403 141.235C912.218 139.455 914.477 138.565 917.182 138.565C920.298 138.565 922.9 139.524 924.988 141.441C927.076 143.358 928.138 145.84 928.172 148.887C928.172 150.359 927.83 151.763 927.145 153.098C926.46 154.434 925.638 155.598 924.68 156.591C923.721 157.583 922.352 158.85 920.571 160.391C919.339 161.452 917.627 163.027 915.436 165.116L912.406 167.991L916.309 168.043C921.684 168.043 924.543 167.957 924.885 167.786C925.125 167.718 925.536 166.194 926.118 163.215V163.061H928.172V163.215C928.138 163.318 927.915 164.876 927.504 167.889C927.094 170.902 926.837 172.476 926.734 172.613V172.767H907.681V171.792V171.175C907.681 170.936 907.784 170.679 907.989 170.405C908.195 170.131 908.708 169.532 909.53 168.608C910.523 167.512 911.379 166.553 912.098 165.732C912.406 165.389 912.988 164.756 913.844 163.832C914.7 162.907 915.282 162.274 915.59 161.932C915.898 161.589 916.395 161.024 917.079 160.237C917.764 159.449 918.243 158.867 918.517 158.491C918.791 158.114 919.185 157.601 919.698 156.95C920.212 156.3 920.571 155.752 920.777 155.307C920.982 154.862 921.239 154.365 921.547 153.817C921.855 153.27 922.078 152.722 922.215 152.174C922.352 151.626 922.472 151.113 922.574 150.633C922.677 150.154 922.728 149.589 922.728 148.939C922.728 146.782 922.146 144.916 920.982 143.341C919.818 141.766 918.158 140.979 916.001 140.979C914.871 140.979 913.878 141.27 913.022 141.852C912.166 142.434 911.567 142.999 911.225 143.546C910.882 144.094 910.711 144.419 910.711 144.522C910.711 144.556 910.797 144.573 910.968 144.573C911.584 144.573 912.218 144.813 912.868 145.292C913.519 145.772 913.844 146.559 913.844 147.655C913.844 148.511 913.57 149.23 913.022 149.812C912.474 150.394 911.704 150.702 910.711 150.736Z" fill="white"/>
</g>
</g>
</g>
<g id="20-8=12">
<g id="Group_25">
<g id="Group_26">
<path id="Vector_24" d="M668.087 234.401C667.145 234.401 666.395 234.087 665.837 233.459C665.279 232.831 665 232.064 665 231.157C665 228.68 665.924 226.535 667.773 224.721C669.622 222.907 671.924 222 674.68 222C677.855 222 680.506 222.977 682.634 224.93C684.762 226.884 685.843 229.413 685.878 232.517C685.878 234.017 685.529 235.448 684.831 236.808C684.134 238.169 683.297 239.355 682.32 240.366C681.343 241.378 679.948 242.669 678.134 244.238C676.878 245.32 675.134 246.924 672.901 249.052L669.814 251.983L673.791 252.035C679.267 252.035 682.18 251.948 682.529 251.773C682.773 251.704 683.192 250.151 683.785 247.116V246.959H685.878V247.116C685.843 247.221 685.616 248.808 685.198 251.878C684.779 254.948 684.517 256.552 684.413 256.692V256.849H665V255.855V255.227C665 254.983 665.105 254.721 665.314 254.442C665.523 254.163 666.047 253.552 666.884 252.611C667.895 251.494 668.767 250.517 669.5 249.68C669.814 249.331 670.407 248.686 671.279 247.744C672.151 246.802 672.744 246.157 673.058 245.808C673.372 245.459 673.878 244.884 674.576 244.081C675.273 243.279 675.762 242.686 676.041 242.302C676.32 241.919 676.721 241.395 677.244 240.733C677.767 240.07 678.134 239.512 678.343 239.058C678.552 238.605 678.814 238.099 679.128 237.541C679.442 236.983 679.669 236.424 679.808 235.866C679.948 235.308 680.07 234.785 680.174 234.297C680.279 233.808 680.331 233.233 680.331 232.57C680.331 230.372 679.738 228.471 678.552 226.866C677.366 225.262 675.674 224.459 673.477 224.459C672.326 224.459 671.314 224.756 670.442 225.349C669.57 225.942 668.959 226.517 668.61 227.076C668.262 227.634 668.087 227.965 668.087 228.07C668.087 228.105 668.174 228.122 668.349 228.122C668.977 228.122 669.622 228.366 670.285 228.855C670.948 229.343 671.279 230.145 671.279 231.262C671.279 232.134 671 232.866 670.442 233.459C669.884 234.052 669.099 234.366 668.087 234.401Z" fill="white"/>
<path id="Vector_25" d="M693.57 226.238C695.523 223.413 698.192 222 701.576 222C703.25 222 704.924 222.453 706.599 223.36C708.273 224.267 709.634 225.872 710.68 228.174C711.971 231.07 712.616 235.047 712.616 240.105C712.616 245.512 711.866 249.645 710.366 252.506C709.669 253.971 708.709 255.14 707.488 256.012C706.267 256.884 705.203 257.424 704.296 257.634C703.389 257.843 702.5 257.965 701.628 258C700.721 258 699.814 257.895 698.907 257.686C698 257.477 696.936 256.919 695.715 256.012C694.494 255.105 693.535 253.936 692.837 252.506C691.337 249.645 690.587 245.512 690.587 240.105C690.587 234.035 691.581 229.413 693.57 226.238ZM705.343 225.61C704.296 224.494 703.058 223.936 701.628 223.936C700.163 223.936 698.907 224.494 697.86 225.61C696.988 226.517 696.413 227.773 696.134 229.378C695.855 230.983 695.715 234.331 695.715 239.424C695.715 244.936 695.855 248.564 696.134 250.308C696.413 252.052 697.041 253.43 698.017 254.442C698.994 255.488 700.198 256.012 701.628 256.012C703.023 256.012 704.209 255.488 705.186 254.442C706.198 253.395 706.826 251.93 707.07 250.047C707.314 248.163 707.453 244.622 707.488 239.424C707.488 234.366 707.349 231.035 707.07 229.43C706.791 227.826 706.215 226.552 705.343 225.61Z" fill="white"/>
</g>
<g id="Group_27">
<path id="Vector_26" d="M730.731 244.448C730.731 244.448 730.731 244.221 730.731 243.767C730.731 243.314 730.976 242.965 731.464 242.721H761.865C762.388 243 762.65 243.349 762.65 243.767C762.65 244.186 762.388 244.535 761.865 244.814H731.464C730.976 244.57 730.731 244.221 730.731 243.767V244.448Z" fill="white"/>
</g>
<g id="Group_28">
<path id="Vector_27" d="M782.335 235.029C782.335 235.029 782.335 233.686 782.335 231C782.335 228.314 783.277 226.151 785.16 224.512C787.044 222.872 789.207 222.035 791.649 222C794.126 222 796.323 222.733 798.242 224.198C800.16 225.663 801.12 227.564 801.12 229.901C801.12 230.948 800.928 231.924 800.544 232.831C800.16 233.738 799.707 234.471 799.184 235.029C798.66 235.587 798.12 236.076 797.562 236.494C797.003 236.913 796.55 237.227 796.201 237.436C795.852 237.645 795.66 237.785 795.626 237.855L796.358 238.326C796.847 238.674 797.335 239.023 797.823 239.372C798.312 239.721 798.591 239.913 798.66 239.948C801.277 242.006 802.585 244.605 802.585 247.744C802.585 250.5 801.573 252.89 799.55 254.913C797.527 256.936 794.91 257.965 791.701 258C788.562 258 785.98 257.11 783.957 255.331C781.934 253.552 780.922 251.355 780.922 248.738C780.922 244.971 783.172 241.831 787.672 239.32L786.73 238.64C785.998 238.186 785.527 237.837 785.317 237.593C783.329 235.884 782.335 233.686 782.335 231V235.029ZM793.637 236.651L793.951 236.442C794.16 236.302 794.317 236.198 794.422 236.128C794.527 236.058 794.701 235.936 794.945 235.762C795.19 235.587 795.399 235.413 795.573 235.238C795.748 235.064 795.94 234.855 796.149 234.61C796.358 234.366 796.55 234.14 796.724 233.93C796.899 233.721 797.073 233.442 797.248 233.093C797.422 232.744 797.579 232.448 797.719 232.203C797.858 231.959 797.945 231.61 797.98 231.157C798.015 230.703 798.05 230.32 798.085 230.006C798.085 228.506 797.579 227.233 796.567 226.186C795.556 225.14 794.387 224.477 793.062 224.198C792.817 224.163 792.242 224.145 791.335 224.145C789.905 224.145 788.562 224.599 787.306 225.506C786.05 226.413 785.405 227.547 785.37 228.907C785.37 229.709 785.597 230.442 786.05 231.105C786.503 231.767 786.957 232.273 787.41 232.622C787.864 232.971 788.736 233.529 790.027 234.297C790.271 234.471 790.463 234.593 790.602 234.663L793.637 236.651ZM791.753 255.75C793.777 255.75 795.521 255.157 796.986 253.971C798.451 252.785 799.184 251.355 799.184 249.68C799.184 249.087 799.097 248.529 798.922 248.006C798.748 247.483 798.538 247.047 798.294 246.698C798.05 246.349 797.666 245.965 797.143 245.547C796.62 245.128 796.219 244.814 795.94 244.605C795.66 244.395 795.155 244.064 794.422 243.61C793.69 243.157 793.219 242.86 793.009 242.721C792.521 242.407 791.998 242.076 791.44 241.727C790.881 241.378 790.428 241.081 790.079 240.837L789.66 240.576C789.451 240.576 788.945 240.872 788.143 241.465C787.341 242.058 786.503 243.017 785.631 244.343C784.759 245.669 784.306 247.099 784.271 248.634C784.271 250.692 785.021 252.384 786.521 253.709C788.021 255.035 789.765 255.715 791.753 255.75Z" fill="white"/>
</g>
<g id="Group_29">
<path id="Vector_28" d="M822.301 238.692C822.301 238.238 822.545 237.89 823.034 237.645H856.365C856.888 237.924 857.15 238.273 857.15 238.692C857.15 239.076 856.906 239.407 856.417 239.686L839.778 239.738H823.138C822.58 239.564 822.301 239.215 822.301 238.692ZM822.301 248.843C822.301 248.32 822.58 247.971 823.138 247.797H856.417C856.906 248.145 857.15 248.494 857.15 248.843C857.15 249.297 856.888 249.645 856.365 249.89H823.034C822.545 249.645 822.301 249.297 822.301 248.843Z" fill="white"/>
</g>
<g id="Group_30">
<path id="Vector_29" d="M885.762 226.605L885.081 226.866C884.593 227.041 883.895 227.215 882.988 227.39C882.081 227.564 881.07 227.686 879.954 227.756H878.959V225.349H879.954C881.593 225.279 883.111 225.017 884.506 224.564C885.901 224.111 886.878 223.692 887.436 223.308C887.994 222.924 888.483 222.541 888.901 222.157C888.971 222.052 889.18 222 889.529 222C889.843 222 890.14 222.105 890.419 222.314V237.959L890.471 253.657C890.715 253.901 890.924 254.058 891.099 254.128C891.273 254.198 891.692 254.267 892.355 254.337C893.017 254.407 894.099 254.442 895.599 254.442H896.959V256.849H896.384C895.651 256.744 892.878 256.692 888.064 256.692C883.32 256.692 880.581 256.744 879.849 256.849H879.221V254.442H880.581C881.349 254.442 882.012 254.442 882.57 254.442C883.128 254.442 883.564 254.424 883.878 254.39C884.192 254.355 884.471 254.302 884.715 254.233C884.959 254.163 885.099 254.128 885.134 254.128C885.169 254.128 885.273 254.041 885.448 253.866C885.622 253.692 885.727 253.622 885.762 253.657V226.605Z" fill="white"/>
<path id="Vector_30" d="M906.483 234.401C905.541 234.401 904.791 234.087 904.233 233.459C903.674 232.831 903.395 232.064 903.395 231.157C903.395 228.68 904.32 226.535 906.169 224.721C908.018 222.907 910.32 222 913.076 222C916.25 222 918.901 222.977 921.029 224.93C923.157 226.884 924.238 229.413 924.273 232.517C924.273 234.017 923.924 235.448 923.227 236.808C922.529 238.169 921.692 239.355 920.715 240.366C919.738 241.378 918.343 242.669 916.529 244.238C915.273 245.32 913.529 246.924 911.297 249.052L908.209 251.983L912.186 252.035C917.663 252.035 920.576 251.948 920.924 251.773C921.169 251.704 921.587 250.151 922.18 247.116V246.959H924.273V247.116C924.238 247.221 924.012 248.808 923.593 251.878C923.174 254.948 922.913 256.552 922.808 256.692V256.849H903.395V255.855V255.227C903.395 254.983 903.5 254.721 903.709 254.442C903.919 254.163 904.442 253.552 905.279 252.611C906.291 251.494 907.163 250.517 907.895 249.68C908.209 249.331 908.802 248.686 909.674 247.744C910.547 246.802 911.14 246.157 911.454 245.808C911.768 245.459 912.273 244.884 912.971 244.081C913.669 243.279 914.157 242.686 914.436 242.302C914.715 241.919 915.116 241.395 915.64 240.733C916.163 240.07 916.529 239.512 916.738 239.058C916.948 238.605 917.209 238.099 917.523 237.541C917.837 236.983 918.064 236.424 918.204 235.866C918.343 235.308 918.465 234.785 918.57 234.297C918.674 233.808 918.727 233.233 918.727 232.57C918.727 230.372 918.134 228.471 916.948 226.866C915.762 225.262 914.07 224.459 911.872 224.459C910.721 224.459 909.709 224.756 908.837 225.349C907.965 225.942 907.355 226.517 907.006 227.076C906.657 227.634 906.483 227.965 906.483 228.07C906.483 228.105 906.57 228.122 906.744 228.122C907.372 228.122 908.018 228.366 908.68 228.855C909.343 229.343 909.674 230.145 909.674 231.262C909.674 232.134 909.395 232.866 908.837 233.459C908.279 234.052 907.494 234.366 906.483 234.401Z" fill="white"/>
</g>
</g>
</g>
<g id="\Rightarrow x=5 \times3-2 \times4">
<g id="Group_31">
<g id="Group_32">
<path id="Vector_31" d="M534.91 334.371C534.91 333.994 535.184 333.806 535.732 333.806C535.903 333.806 536.04 333.806 536.143 333.806C536.245 333.806 536.331 333.806 536.399 333.806C536.468 333.806 536.536 333.823 536.605 333.857C536.673 333.892 536.708 333.909 536.708 333.909C536.708 333.909 536.742 333.96 536.81 334.063C536.879 334.165 536.913 334.217 536.913 334.217C536.913 334.217 536.964 334.302 537.067 334.474C538.334 337.007 540.011 339.25 542.1 341.201C544.188 343.153 546.088 344.539 547.8 345.361C549.512 346.183 551.155 346.816 552.73 347.261C553.312 347.432 553.603 347.655 553.603 347.929C553.603 348.203 553.449 348.391 553.141 348.494C552.833 348.596 552.2 348.785 551.241 349.058C550.282 349.332 549.29 349.743 548.262 350.291C543.332 352.688 539.601 356.385 537.067 361.384C536.93 361.692 536.81 361.863 536.708 361.897C536.605 361.932 536.348 361.966 535.937 362C535.252 362 534.91 361.88 534.91 361.641C534.91 361.504 534.996 361.213 535.167 360.767C536.365 358.405 537.837 356.3 539.583 354.451L540.097 353.937H508.719C508.24 353.698 508 353.355 508 352.91C508 352.397 508.274 352.054 508.822 351.883H542.357L542.87 351.472C544.205 350.445 546.208 349.264 548.879 347.929C548.845 347.894 548.536 347.74 547.954 347.466C547.372 347.193 546.602 346.782 545.643 346.234C544.685 345.686 543.76 345.07 542.87 344.385L542.357 343.974H508.822C508.274 343.803 508 343.461 508 342.947C508 342.502 508.24 342.16 508.719 341.92H540.097L539.583 341.407C538.454 340.208 537.392 338.822 536.399 337.247C535.407 335.672 534.91 334.713 534.91 334.371Z" fill="white"/>
</g>
<g id="Group_33">
<path id="Vector_32" d="M573.416 345.926C573.656 344.488 574.58 342.827 576.189 340.944C577.799 339.061 579.784 338.103 582.147 338.068C583.345 338.068 584.441 338.377 585.433 338.993C586.426 339.609 587.162 340.379 587.642 341.304C589.08 339.147 590.809 338.068 592.829 338.068C594.095 338.068 595.191 338.445 596.115 339.198C597.04 339.952 597.519 340.961 597.553 342.228C597.553 343.221 597.314 344.026 596.834 344.642C596.355 345.258 595.893 345.635 595.448 345.772C595.003 345.909 594.609 345.977 594.267 345.977C593.616 345.977 593.085 345.789 592.674 345.412C592.264 345.036 592.058 344.539 592.058 343.923C592.058 342.348 592.914 341.27 594.626 340.688C594.249 340.243 593.565 340.02 592.572 340.02C592.127 340.02 591.801 340.054 591.596 340.123C590.295 340.67 589.336 341.8 588.72 343.512C586.666 351.078 585.639 355.495 585.639 356.762C585.639 357.72 585.913 358.405 586.461 358.816C587.008 359.227 587.607 359.432 588.258 359.432C589.525 359.432 590.774 358.867 592.007 357.738C593.239 356.608 594.078 355.221 594.523 353.578C594.626 353.235 594.729 353.047 594.831 353.013C594.934 352.979 595.208 352.944 595.653 352.91H595.859C596.372 352.91 596.629 353.047 596.629 353.321C596.629 353.355 596.595 353.544 596.526 353.886C595.978 355.837 594.917 357.566 593.342 359.073C591.767 360.579 589.936 361.332 587.847 361.332C585.451 361.332 583.636 360.254 582.403 358.097C581 360.22 579.391 361.281 577.576 361.281H577.268C575.59 361.281 574.392 360.836 573.673 359.946C572.954 359.056 572.577 358.114 572.543 357.121C572.543 356.026 572.869 355.136 573.519 354.451C574.169 353.766 574.94 353.424 575.83 353.424C577.302 353.424 578.038 354.143 578.038 355.581C578.038 356.265 577.833 356.864 577.422 357.378C577.011 357.892 576.617 358.234 576.241 358.405C575.864 358.576 575.642 358.662 575.573 358.662L575.419 358.713C575.419 358.748 575.522 358.816 575.727 358.919C575.933 359.021 576.207 359.141 576.549 359.278C576.891 359.415 577.217 359.466 577.525 359.432C578.757 359.432 579.819 358.662 580.709 357.121C581.017 356.573 581.411 355.409 581.89 353.629C582.369 351.849 582.849 350 583.328 348.083C583.807 346.165 584.081 345.036 584.15 344.693C584.321 343.769 584.406 343.101 584.406 342.69C584.406 341.732 584.15 341.047 583.636 340.636C583.122 340.225 582.54 340.02 581.89 340.02C580.52 340.02 579.237 340.568 578.038 341.663C576.84 342.759 576.001 344.163 575.522 345.874C575.453 346.183 575.368 346.354 575.265 346.388C575.162 346.422 574.888 346.457 574.443 346.491H573.724C573.519 346.285 573.416 346.097 573.416 345.926Z" fill="white"/>
</g>
<g id="Group_34">
<path id="Vector_33" d="M617.263 342.947C617.263 342.502 617.503 342.16 617.982 341.92H650.696C651.209 342.194 651.466 342.536 651.466 342.947C651.466 343.324 651.226 343.649 650.747 343.923L634.416 343.974H618.085C617.537 343.803 617.263 343.461 617.263 342.947ZM617.263 352.91C617.263 352.396 617.537 352.054 618.085 351.883H650.747C651.226 352.225 651.466 352.568 651.466 352.91C651.466 353.355 651.209 353.697 650.696 353.937H617.982C617.503 353.697 617.263 353.355 617.263 352.91Z" fill="white"/>
</g>
<g id="Group_35">
<path id="Vector_34" d="M677.025 352.705C677.025 353.526 676.751 354.211 676.204 354.759C675.656 355.307 674.988 355.581 674.201 355.581H673.841C675.416 358.285 677.505 359.638 680.107 359.638C682.503 359.638 684.249 358.611 685.345 356.556C685.995 355.427 686.321 353.235 686.321 349.983C686.321 346.457 685.858 344.077 684.934 342.845C684.044 341.715 683.051 341.15 681.955 341.15H681.647C678.977 341.15 676.957 342.314 675.587 344.642C675.45 344.882 675.331 345.019 675.228 345.053C675.125 345.087 674.868 345.121 674.458 345.156C673.876 345.156 673.55 345.053 673.482 344.847C673.413 344.71 673.379 341.715 673.379 335.86V329.235C673.379 327.524 673.465 326.668 673.636 326.668C673.704 326.599 673.773 326.565 673.841 326.565C673.876 326.565 674.235 326.702 674.92 326.976C675.604 327.25 676.546 327.524 677.744 327.797C678.943 328.071 680.226 328.208 681.596 328.208C684.027 328.208 686.355 327.729 688.58 326.77C688.854 326.633 689.077 326.565 689.248 326.565C689.522 326.565 689.659 326.873 689.659 327.489V328.157C686.851 331.478 683.342 333.138 679.131 333.138C678.07 333.138 677.111 333.036 676.255 332.83L675.741 332.728V341.561C676.392 341.081 676.905 340.705 677.282 340.431C677.659 340.157 678.275 339.883 679.131 339.609C679.987 339.335 680.86 339.198 681.75 339.198C684.523 339.198 686.868 340.311 688.786 342.536C690.703 344.762 691.662 347.398 691.662 350.445C691.662 353.595 690.566 356.283 688.375 358.508C686.184 360.733 683.513 361.863 680.363 361.897C677.59 361.897 675.365 360.973 673.687 359.124C672.01 357.275 671.171 355.187 671.171 352.859C671.171 352.037 671.359 351.387 671.736 350.907C672.112 350.428 672.506 350.12 672.917 349.983C673.328 349.846 673.721 349.778 674.098 349.778C674.954 349.778 675.656 350.069 676.204 350.651C676.751 351.233 677.025 351.917 677.025 352.705Z" fill="white"/>
</g>
<g id="Group_36">
<path id="Vector_35" d="M738.051 359.278C738.051 359.963 737.691 360.305 736.972 360.305C736.801 360.305 736.425 360.031 735.843 359.484C735.261 358.936 733.651 357.344 731.015 354.708L725.674 349.367L720.282 354.759C716.653 358.32 714.787 360.134 714.684 360.203C714.547 360.271 714.427 360.305 714.325 360.305C714.051 360.305 713.811 360.203 713.606 359.997C713.4 359.792 713.28 359.552 713.246 359.278C713.246 359.039 713.486 358.662 713.965 358.148C714.445 357.635 716.054 356.009 718.793 353.27L724.134 347.929L718.793 342.588C716.019 339.815 714.41 338.188 713.965 337.709C713.52 337.23 713.28 336.853 713.246 336.579C713.246 336.271 713.349 336.031 713.554 335.86C713.76 335.689 714.017 335.603 714.325 335.603C714.496 335.603 714.616 335.621 714.684 335.655C714.787 335.723 716.653 337.538 720.282 341.098L725.674 346.491L731.015 341.15C733.651 338.514 735.261 336.922 735.843 336.374C736.425 335.826 736.801 335.552 736.972 335.552C737.691 335.552 738.051 335.894 738.051 336.579C738.051 336.819 737.88 337.127 737.537 337.504C737.195 337.88 735.517 339.558 732.504 342.536L727.164 347.929L732.504 353.321C735.38 356.197 737.024 357.857 737.435 358.302C737.845 358.748 738.051 359.073 738.051 359.278Z" fill="white"/>
</g>
<g id="Group_37">
<path id="Vector_36" d="M763.585 336.99C762.66 336.99 761.941 336.699 761.428 336.117C760.914 335.535 760.64 334.782 760.606 333.857C760.606 331.974 761.428 330.297 763.071 328.825C764.714 327.352 766.7 326.616 769.028 326.616C770.227 326.616 770.98 326.633 771.288 326.668C773.821 327.079 775.756 327.986 777.091 329.389C778.426 330.793 779.111 332.317 779.145 333.96C779.145 335.74 778.563 337.469 777.399 339.147C776.235 340.825 774.626 342.04 772.572 342.793L772.418 342.896C772.418 342.93 772.572 342.982 772.88 343.05C773.188 343.118 773.684 343.273 774.369 343.512C775.054 343.752 775.704 344.111 776.321 344.591C779.128 346.405 780.532 348.802 780.532 351.78C780.532 354.485 779.47 356.847 777.348 358.867C775.225 360.887 772.538 361.897 769.285 361.897C766.546 361.897 764.184 361.161 762.198 359.689C760.212 358.217 759.219 356.351 759.219 354.091C759.219 353.133 759.528 352.362 760.144 351.78C760.76 351.198 761.53 350.89 762.455 350.856C763.413 350.856 764.201 351.164 764.817 351.78C765.433 352.397 765.742 353.167 765.742 354.091C765.742 354.468 765.69 354.81 765.587 355.118C765.485 355.427 765.365 355.7 765.228 355.94C765.091 356.18 764.903 356.385 764.663 356.556C764.423 356.728 764.218 356.865 764.047 356.967C763.876 357.07 763.704 357.138 763.533 357.173C763.362 357.207 763.225 357.258 763.122 357.327L762.917 357.378C764.663 358.919 766.786 359.689 769.285 359.689C771.168 359.689 772.589 358.782 773.548 356.967C774.13 355.837 774.421 354.108 774.421 351.78V350.753C774.421 347.501 773.325 345.327 771.134 344.231C770.62 344.026 769.576 343.906 768.001 343.872L765.844 343.82L765.69 343.718C765.622 343.615 765.587 343.341 765.587 342.896C765.587 342.28 765.724 341.972 765.998 341.972C766.957 341.972 767.95 341.886 768.977 341.715C770.141 341.544 771.202 340.825 772.161 339.558C773.12 338.291 773.599 336.374 773.599 333.806V333.395C773.599 331.444 773 330.091 771.801 329.338C771.048 328.859 770.244 328.619 769.388 328.619C768.292 328.619 767.282 328.807 766.358 329.184C765.433 329.561 764.783 329.954 764.406 330.365C764.03 330.776 763.841 330.982 763.841 330.982H763.995C764.098 331.016 764.235 331.05 764.406 331.084C764.577 331.118 764.749 331.204 764.92 331.341C765.091 331.478 765.296 331.598 765.536 331.7C765.776 331.803 765.947 331.991 766.05 332.265C766.152 332.539 766.289 332.796 766.461 333.036C766.632 333.275 766.683 333.618 766.615 334.063C766.615 334.816 766.375 335.484 765.896 336.066C765.416 336.648 764.646 336.956 763.585 336.99Z" fill="white"/>
</g>
<g id="Group_38">
<path id="Vector_37" d="M798.465 348.596C798.465 348.596 798.465 348.374 798.465 347.929C798.465 347.484 798.705 347.141 799.184 346.902H829.021C829.535 347.175 829.792 347.518 829.792 347.929C829.792 348.34 829.535 348.682 829.021 348.956H799.184C798.705 348.716 798.465 348.374 798.465 347.929V348.596Z" fill="white"/>
</g>
<g id="Group_39">
<path id="Vector_38" d="M851.114 338.736C850.19 338.736 849.454 338.428 848.906 337.812C848.358 337.195 848.085 336.442 848.085 335.552C848.085 333.121 848.992 331.016 850.806 329.235C852.621 327.455 854.881 326.565 857.585 326.565C860.701 326.565 863.303 327.524 865.391 329.441C867.48 331.358 868.541 333.84 868.575 336.887C868.575 338.359 868.233 339.763 867.548 341.098C866.863 342.434 866.042 343.598 865.083 344.591C864.124 345.583 862.755 346.85 860.975 348.391C859.742 349.452 858.03 351.027 855.839 353.116L852.809 355.991L856.712 356.043C862.087 356.043 864.946 355.957 865.289 355.786C865.528 355.718 865.939 354.194 866.521 351.215V351.061H868.575V351.215C868.541 351.318 868.318 352.876 867.908 355.889C867.497 358.902 867.24 360.476 867.137 360.613V360.767H848.085V359.792V359.175C848.085 358.936 848.187 358.679 848.393 358.405C848.598 358.131 849.112 357.532 849.933 356.608C850.926 355.512 851.782 354.553 852.501 353.732C852.809 353.389 853.391 352.756 854.247 351.832C855.103 350.907 855.685 350.274 855.993 349.932C856.301 349.589 856.798 349.024 857.483 348.237C858.167 347.449 858.647 346.867 858.92 346.491C859.194 346.114 859.588 345.601 860.102 344.95C860.615 344.3 860.975 343.752 861.18 343.307C861.386 342.862 861.642 342.365 861.95 341.817C862.259 341.27 862.481 340.722 862.618 340.174C862.755 339.626 862.875 339.113 862.978 338.633C863.08 338.154 863.132 337.589 863.132 336.939C863.132 334.782 862.55 332.916 861.386 331.341C860.221 329.766 858.561 328.979 856.404 328.979C855.274 328.979 854.281 329.27 853.425 329.852C852.57 330.434 851.97 330.999 851.628 331.546C851.286 332.094 851.114 332.419 851.114 332.522C851.114 332.556 851.2 332.573 851.371 332.573C851.988 332.573 852.621 332.813 853.271 333.292C853.922 333.772 854.247 334.559 854.247 335.655C854.247 336.511 853.973 337.23 853.425 337.812C852.878 338.394 852.107 338.702 851.114 338.736Z" fill="white"/>
</g>
<g id="Group_40">
<path id="Vector_39" d="M914.959 359.278C914.959 359.963 914.6 360.305 913.881 360.305C913.71 360.305 913.333 360.031 912.751 359.484C912.169 358.936 910.56 357.344 907.924 354.708L902.583 349.367L897.19 354.759C893.561 358.32 891.695 360.134 891.593 360.203C891.456 360.271 891.336 360.305 891.233 360.305C890.959 360.305 890.72 360.203 890.514 359.997C890.309 359.792 890.189 359.552 890.155 359.278C890.155 359.039 890.394 358.662 890.874 358.148C891.353 357.635 892.962 356.009 895.701 353.27L901.042 347.929L895.701 342.588C892.928 339.815 891.319 338.188 890.874 337.709C890.428 337.23 890.189 336.853 890.155 336.579C890.155 336.271 890.257 336.031 890.463 335.86C890.668 335.689 890.925 335.603 891.233 335.603C891.404 335.603 891.524 335.621 891.593 335.655C891.695 335.723 893.561 337.538 897.19 341.098L902.583 346.491L907.924 341.15C910.56 338.514 912.169 336.922 912.751 336.374C913.333 335.826 913.71 335.552 913.881 335.552C914.6 335.552 914.959 335.894 914.959 336.579C914.959 336.819 914.788 337.127 914.446 337.504C914.103 337.88 912.426 339.558 909.413 342.536L904.072 347.929L909.413 353.321C912.289 356.197 913.932 357.857 914.343 358.302C914.754 358.748 914.959 359.073 914.959 359.278Z" fill="white"/>
</g>
<g id="Group_41">
<path id="Vector_40" d="M957.702 360.767C957.086 360.665 954.878 360.613 951.077 360.613C947.106 360.613 944.812 360.665 944.196 360.767H943.733V358.405H945.325C946.01 358.405 946.472 358.405 946.712 358.405C946.952 358.405 947.243 358.371 947.585 358.302C947.927 358.234 948.167 358.148 948.304 358.046C948.441 357.943 948.561 357.806 948.664 357.635C948.698 357.566 948.715 356.642 948.715 354.862V352.294H935.414V349.932L943.169 338.068C948.407 330.126 951.06 326.137 951.129 326.103C951.197 326.034 951.557 326 952.207 326H953.131L953.44 326.308V349.932H958.164V352.294H953.44V354.913C953.44 356.317 953.44 357.138 953.44 357.378C953.44 357.618 953.542 357.823 953.748 357.994C954.022 358.234 954.997 358.371 956.675 358.405H958.164V360.767H957.702ZM949.023 349.932V332.779L937.776 349.88L943.374 349.932H949.023Z" fill="white"/>
</g>
</g>
</g>
<g id="\therefore x=15-8=7">
<g id="Group_42">
<g id="Group_43">
<path id="Vector_41" d="M621.826 407.586C621.826 406.763 622.111 406.082 622.681 405.544C623.251 405.005 623.931 404.736 624.723 404.736C625.483 404.736 626.132 405.005 626.67 405.544C627.208 406.082 627.493 406.763 627.525 407.586C627.557 408.409 627.288 409.09 626.718 409.628C626.148 410.166 625.467 410.435 624.675 410.435C623.852 410.435 623.172 410.166 622.633 409.628C622.095 409.09 621.826 408.409 621.826 407.586ZM612.85 425.301C613.673 425.301 614.338 425.57 614.844 426.108C615.351 426.646 615.62 427.327 615.652 428.15C615.652 428.91 615.398 429.575 614.892 430.145C614.385 430.715 613.689 431 612.802 431C611.979 431 611.314 430.731 610.807 430.193C610.301 429.654 610.032 428.974 610 428.15C610 427.327 610.269 426.646 610.807 426.108C611.346 425.57 612.026 425.301 612.85 425.301ZM633.747 428.15C633.747 427.327 634.016 426.646 634.554 426.108C635.092 425.57 635.773 425.301 636.596 425.301C637.356 425.301 638.005 425.57 638.544 426.108C639.082 426.646 639.367 427.327 639.398 428.15C639.398 428.879 639.145 429.528 638.639 430.098C638.132 430.668 637.435 430.968 636.549 431C635.726 431 635.061 430.731 634.554 430.193C634.047 429.654 633.778 428.974 633.747 428.15Z" fill="white"/>
</g>
<g id="Group_44">
<path id="Vector_42" d="M656.202 413.38C656.423 412.05 657.278 410.514 658.766 408.773C660.254 407.032 662.091 406.145 664.276 406.113C665.384 406.113 666.397 406.398 667.315 406.968C668.233 407.538 668.914 408.251 669.357 409.106C670.687 407.111 672.286 406.113 674.154 406.113C675.326 406.113 676.339 406.462 677.194 407.158C678.049 407.855 678.492 408.789 678.524 409.96C678.524 410.879 678.302 411.623 677.859 412.193C677.415 412.762 676.988 413.111 676.576 413.237C676.165 413.364 675.801 413.427 675.484 413.427C674.882 413.427 674.392 413.253 674.012 412.905C673.632 412.557 673.442 412.098 673.442 411.528C673.442 410.071 674.233 409.074 675.816 408.536C675.468 408.124 674.835 407.918 673.917 407.918C673.505 407.918 673.204 407.95 673.014 408.013C671.811 408.52 670.925 409.565 670.355 411.148C668.455 418.145 667.505 422.23 667.505 423.401C667.505 424.288 667.758 424.921 668.265 425.301C668.772 425.681 669.326 425.871 669.927 425.871C671.099 425.871 672.254 425.348 673.394 424.303C674.534 423.259 675.31 421.976 675.721 420.456C675.816 420.14 675.911 419.966 676.006 419.934C676.101 419.902 676.355 419.871 676.766 419.839H676.956C677.431 419.839 677.669 419.966 677.669 420.219C677.669 420.251 677.637 420.425 677.574 420.741C677.067 422.546 676.086 424.145 674.629 425.538C673.173 426.931 671.479 427.628 669.547 427.628C667.331 427.628 665.653 426.631 664.513 424.636C663.215 426.599 661.727 427.58 660.049 427.58H659.764C658.212 427.58 657.104 427.169 656.439 426.346C655.774 425.522 655.426 424.652 655.394 423.733C655.394 422.72 655.695 421.897 656.297 421.264C656.898 420.631 657.611 420.314 658.434 420.314C659.795 420.314 660.476 420.979 660.476 422.309C660.476 422.942 660.286 423.496 659.906 423.971C659.526 424.446 659.162 424.762 658.814 424.921C658.466 425.079 658.26 425.158 658.196 425.158L658.054 425.206C658.054 425.237 658.149 425.301 658.339 425.396C658.529 425.491 658.782 425.602 659.099 425.728C659.415 425.855 659.716 425.902 660.001 425.871C661.141 425.871 662.123 425.158 662.946 423.733C663.231 423.227 663.595 422.15 664.038 420.504C664.481 418.857 664.925 417.148 665.368 415.375C665.811 413.602 666.064 412.557 666.128 412.24C666.286 411.385 666.365 410.768 666.365 410.388C666.365 409.501 666.128 408.868 665.653 408.488C665.178 408.108 664.64 407.918 664.038 407.918C662.772 407.918 661.584 408.425 660.476 409.438C659.368 410.451 658.592 411.749 658.149 413.332C658.086 413.617 658.006 413.776 657.911 413.807C657.816 413.839 657.563 413.871 657.152 413.902H656.487C656.297 413.712 656.202 413.538 656.202 413.38Z" fill="white"/>
</g>
<g id="Group_45">
<path id="Vector_43" d="M696.751 410.625C696.751 410.214 696.973 409.897 697.416 409.675H727.67C728.145 409.929 728.382 410.245 728.382 410.625C728.382 410.974 728.16 411.274 727.717 411.528L712.614 411.575H697.511C697.005 411.417 696.751 411.1 696.751 410.625ZM696.751 419.839C696.751 419.364 697.005 419.048 697.511 418.889H727.717C728.16 419.206 728.382 419.522 728.382 419.839C728.382 420.251 728.145 420.567 727.67 420.789H697.416C696.973 420.567 696.751 420.251 696.751 419.839Z" fill="white"/>
</g>
<g id="Group_46">
<path id="Vector_44" d="M754.347 399.654L753.729 399.892C753.286 400.05 752.653 400.208 751.83 400.367C751.006 400.525 750.088 400.636 749.075 400.699H748.173V398.515H749.075C750.563 398.451 751.94 398.214 753.207 397.802C754.473 397.391 755.36 397.011 755.867 396.662C756.373 396.314 756.816 395.966 757.196 395.617C757.26 395.522 757.45 395.475 757.766 395.475C758.051 395.475 758.32 395.57 758.574 395.76V409.96L758.621 424.208C758.843 424.43 759.033 424.573 759.191 424.636C759.349 424.699 759.729 424.763 760.331 424.826C760.933 424.889 761.914 424.921 763.276 424.921H764.51V427.106H763.988C763.323 427.011 760.806 426.963 756.436 426.963C752.13 426.963 749.645 427.011 748.98 427.106H748.41V424.921H749.645C750.341 424.921 750.943 424.921 751.45 424.921C751.956 424.921 752.352 424.905 752.637 424.873C752.922 424.842 753.175 424.794 753.397 424.731C753.619 424.668 753.745 424.636 753.777 424.636C753.808 424.636 753.903 424.557 754.062 424.398C754.22 424.24 754.315 424.177 754.347 424.208V399.654Z" fill="white"/>
<path id="Vector_45" d="M775.766 419.649C775.766 420.409 775.513 421.042 775.006 421.549C774.5 422.055 773.882 422.309 773.154 422.309H772.822C774.278 424.81 776.209 426.061 778.616 426.061C780.832 426.061 782.447 425.111 783.46 423.211C784.062 422.166 784.363 420.14 784.363 417.132C784.363 413.871 783.935 411.67 783.08 410.53C782.257 409.485 781.339 408.963 780.326 408.963H780.041C777.571 408.963 775.703 410.04 774.436 412.193C774.31 412.414 774.199 412.541 774.104 412.573C774.009 412.604 773.771 412.636 773.392 412.668C772.853 412.668 772.552 412.573 772.489 412.383C772.426 412.256 772.394 409.485 772.394 404.071V397.945C772.394 396.361 772.473 395.57 772.632 395.57C772.695 395.507 772.758 395.475 772.822 395.475C772.853 395.475 773.186 395.602 773.819 395.855C774.452 396.108 775.323 396.361 776.431 396.615C777.539 396.868 778.727 396.995 779.993 396.995C782.241 396.995 784.394 396.551 786.452 395.665C786.706 395.538 786.911 395.475 787.07 395.475C787.323 395.475 787.45 395.76 787.45 396.33V396.947C784.853 400.018 781.608 401.554 777.713 401.554C776.732 401.554 775.845 401.459 775.054 401.269L774.579 401.174V409.343C775.18 408.9 775.655 408.551 776.004 408.298C776.352 408.045 776.922 407.792 777.713 407.538C778.505 407.285 779.312 407.158 780.136 407.158C782.7 407.158 784.869 408.187 786.642 410.245C788.415 412.303 789.302 414.741 789.302 417.559C789.302 420.472 788.289 422.958 786.262 425.016C784.236 427.074 781.766 428.119 778.853 428.15C776.289 428.15 774.231 427.296 772.679 425.586C771.128 423.876 770.352 421.945 770.352 419.792C770.352 419.032 770.526 418.43 770.874 417.987C771.223 417.544 771.587 417.259 771.967 417.132C772.347 417.005 772.711 416.942 773.059 416.942C773.851 416.942 774.5 417.211 775.006 417.749C775.513 418.288 775.766 418.921 775.766 419.649Z" fill="white"/>
</g>
<g id="Group_47">
<path id="Vector_46" d="M806.271 415.85C806.271 415.85 806.271 415.644 806.271 415.232C806.271 414.821 806.493 414.504 806.936 414.282H834.53C835.005 414.536 835.242 414.852 835.242 415.232C835.242 415.612 835.005 415.929 834.53 416.182H806.936C806.493 415.96 806.271 415.644 806.271 415.232V415.85Z" fill="white"/>
</g>
<g id="Group_48">
<path id="Vector_47" d="M853.109 407.301C853.109 407.301 853.109 406.082 853.109 403.644C853.109 401.206 853.964 399.243 855.674 397.755C857.384 396.266 859.347 395.507 861.563 395.475C863.811 395.475 865.806 396.14 867.547 397.47C869.289 398.799 870.159 400.525 870.159 402.646C870.159 403.596 869.985 404.483 869.637 405.306C869.289 406.129 868.877 406.794 868.402 407.301C867.927 407.807 867.436 408.251 866.93 408.631C866.423 409.011 866.012 409.296 865.695 409.485C865.378 409.675 865.204 409.802 865.173 409.865L865.837 410.293C866.281 410.609 866.724 410.926 867.167 411.243C867.611 411.559 867.864 411.734 867.927 411.765C870.302 413.633 871.489 415.992 871.489 418.842C871.489 421.343 870.571 423.512 868.735 425.348C866.898 427.185 864.524 428.119 861.611 428.15C858.761 428.15 856.418 427.343 854.582 425.728C852.745 424.113 851.827 422.119 851.827 419.744C851.827 416.325 853.869 413.475 857.954 411.195L857.099 410.578C856.434 410.166 856.006 409.85 855.816 409.628C854.012 408.077 853.109 406.082 853.109 403.644V407.301ZM863.368 408.773L863.653 408.583C863.843 408.456 863.985 408.361 864.08 408.298C864.175 408.235 864.334 408.124 864.555 407.966C864.777 407.807 864.967 407.649 865.125 407.491C865.283 407.332 865.458 407.142 865.648 406.921C865.837 406.699 866.012 406.493 866.17 406.303C866.328 406.113 866.487 405.86 866.645 405.544C866.803 405.227 866.946 404.958 867.072 404.736C867.199 404.515 867.278 404.198 867.31 403.786C867.341 403.375 867.373 403.026 867.405 402.741C867.405 401.38 866.946 400.224 866.027 399.274C865.109 398.325 864.049 397.723 862.845 397.47C862.624 397.438 862.101 397.422 861.278 397.422C859.98 397.422 858.761 397.834 857.621 398.657C856.481 399.48 855.896 400.509 855.864 401.744C855.864 402.472 856.07 403.137 856.481 403.739C856.893 404.34 857.305 404.799 857.716 405.116C858.128 405.433 858.919 405.939 860.091 406.636C860.312 406.794 860.487 406.905 860.613 406.968L863.368 408.773ZM861.658 426.108C863.494 426.108 865.078 425.57 866.407 424.493C867.737 423.417 868.402 422.119 868.402 420.599C868.402 420.061 868.323 419.554 868.165 419.079C868.006 418.604 867.816 418.208 867.595 417.892C867.373 417.575 867.025 417.227 866.55 416.847C866.075 416.467 865.711 416.182 865.458 415.992C865.204 415.802 864.745 415.501 864.08 415.09C863.415 414.678 862.988 414.409 862.798 414.282C862.355 413.997 861.88 413.697 861.373 413.38C860.867 413.063 860.455 412.794 860.138 412.573L859.758 412.335C859.568 412.335 859.109 412.604 858.381 413.142C857.653 413.681 856.893 414.551 856.101 415.755C855.31 416.958 854.898 418.256 854.867 419.649C854.867 421.517 855.547 423.053 856.909 424.256C858.27 425.459 859.853 426.077 861.658 426.108Z" fill="white"/>
</g>
<g id="Group_49">
<path id="Vector_48" d="M889.385 410.625C889.385 410.214 889.606 409.897 890.05 409.675H920.303C920.778 409.929 921.015 410.245 921.015 410.625C921.015 410.974 920.794 411.274 920.35 411.528L905.247 411.575H890.145C889.638 411.417 889.385 411.1 889.385 410.625ZM889.385 419.839C889.385 419.364 889.638 419.048 890.145 418.889H920.35C920.794 419.206 921.015 419.522 921.015 419.839C921.015 420.251 920.778 420.567 920.303 420.789H890.05C889.606 420.567 889.385 420.251 889.385 419.839Z" fill="white"/>
</g>
<g id="Group_50">
<path id="Vector_49" d="M939.476 405.354C939.508 405.29 939.777 403.565 940.283 400.177L941.043 395.095C941.043 395.032 941.36 395 941.993 395H942.943V395.19C942.943 395.507 943.18 395.776 943.655 395.997C944.13 396.219 944.954 396.361 946.125 396.425C947.297 396.488 949.972 396.52 954.151 396.52H959.898V398.372L956.669 402.789C956.384 403.169 955.909 403.802 955.244 404.689C954.579 405.575 954.151 406.161 953.961 406.446C953.771 406.731 953.439 407.237 952.964 407.966C952.489 408.694 952.173 409.264 952.014 409.675C951.856 410.087 951.634 410.673 951.349 411.433C951.064 412.193 950.859 412.921 950.732 413.617C950.605 414.314 950.479 415.169 950.352 416.182C950.225 417.195 950.13 418.272 950.067 419.412C950.004 420.551 949.956 421.85 949.924 423.306C949.924 423.749 949.924 424.193 949.924 424.636C949.924 425.079 949.909 425.459 949.877 425.776V426.203C949.75 426.741 949.45 427.201 948.975 427.58C948.5 427.96 947.961 428.15 947.36 428.15C947.012 428.15 946.679 428.103 946.362 428.008C946.046 427.913 945.713 427.612 945.365 427.106C945.017 426.599 944.843 425.966 944.843 425.206C944.843 420.203 946.378 415.011 949.45 409.628C950.083 408.615 951.413 406.699 953.439 403.881L955.624 400.889H951.207C945.698 400.889 942.8 400.984 942.516 401.174C942.326 401.269 942.151 401.649 941.993 402.314C941.835 402.979 941.676 403.66 941.518 404.356L941.376 405.354V405.496H939.476V405.354Z" fill="white"/>
</g>
</g>
</g>
</g>
</g>
</svg>
