<svg viewBox="0 0 988 629" fill="none" xmlns="http://www.w3.org/2000/svg">
<g id="0119111">
<g id="Group 8">
<path id="Rectangle 1" d="M76 50.4762C76 24.1769 97.3794 2.85716 123.752 2.85716H947V332.381C947 358.68 925.62 380 899.247 380H76V50.4762Z" fill="#02071A"/>
<path id="Rectangle 1 (Stroke)" fill-rule="evenodd" clip-rule="evenodd" d="M942.224 7.61907H123.752C100.017 7.61907 80.7752 26.8069 80.7752 50.4762V375.238H899.247C922.983 375.238 942.224 356.05 942.224 332.381V7.61907ZM123.752 2.85716C97.3794 2.85716 76 24.1769 76 50.4762V380H899.247C925.62 380 947 358.68 947 332.381V2.85716H123.752Z" fill="#CD08D1"/>
<path id="Rectangle 14" d="M127.716 2.92611C153.256 -3.65764 947 2.92611 947 2.92611V31.4286C947 31.4286 114.202 20.9524 84.5955 31.4286C93.8076 16.3113 102.175 9.50987 127.716 2.92611Z" fill="#CD08D1"/>
<path id="Rectangle 15" d="M918.349 2.85716H947V333.333C943.483 355.76 936.194 364.003 918.349 374.762C923.601 357.143 918.349 2.85716 918.349 2.85716Z" fill="#CD08D1"/>
</g>
<g id="claves01">
<path id="Rectangle 4" d="M52 412H268.745L302 452L268.745 492H52V412Z" fill="#CD08D1" fill-opacity="0.1"/>
<path id="Rectangle 4 (Stroke)" fill-rule="evenodd" clip-rule="evenodd" d="M267.338 415H55V489H267.338L298.099 452L267.338 415ZM268.745 412H52V492H268.745L302 452L268.745 412Z" fill="#CD08D1"/>
<path id="Rectangle 5" d="M56 522H272.745L306 562L272.745 602H56V522Z" fill="#CD08D1" fill-opacity="0.1"/>
<path id="Rectangle 5 (Stroke)" fill-rule="evenodd" clip-rule="evenodd" d="M271.338 525H59V599H271.338L302.099 562L271.338 525ZM272.745 522H56V602H272.745L306 562L272.745 522Z" fill="#CD08D1"/>
<path id="Rectangle 6" d="M392 409H608.745L642 449L608.745 489H392V409Z" fill="#CD08D1" fill-opacity="0.1"/>
<path id="Rectangle 6 (Stroke)" fill-rule="evenodd" clip-rule="evenodd" d="M607.338 412H395V486H607.338L638.099 449L607.338 412ZM608.745 409H392V489H608.745L642 449L608.745 409Z" fill="#CD08D1"/>
<path id="Rectangle 7" d="M395 519H611.745L645 559L611.745 599H395V519Z" fill="#CD08D1" fill-opacity="0.1"/>
<path id="Rectangle 7 (Stroke)" fill-rule="evenodd" clip-rule="evenodd" d="M610.338 522H398V596H610.338L641.099 559L610.338 522ZM611.745 519H395V599H611.745L645 559L611.745 519Z" fill="#CD08D1"/>
<path id="Rectangle 8" d="M738 468H954.745L988 508L954.745 548H738V468Z" fill="#CD08D1" fill-opacity="0.1"/>
<path id="Rectangle 8 (Stroke)" fill-rule="evenodd" clip-rule="evenodd" d="M953.338 471H741V545H953.338L984.099 508L953.338 471ZM954.745 468H738V548H954.745L988 508L954.745 468Z" fill="#CD08D1"/>
<path id="Ellipse 1" d="M93 452C93 474.091 75.0914 492 53 492C30.9086 492 13 474.091 13 452C13 429.909 30.9086 412 53 412C75.0914 412 93 429.909 93 452Z" fill="#CD08D1"/>
<path id="Ellipse 2" d="M97 562C97 584.091 79.0914 602 57 602C34.9086 602 17 584.091 17 562C17 539.909 34.9086 522 57 522C79.0914 522 97 539.909 97 562Z" fill="#CD08D1"/>
<path id="Ellipse 3" d="M433 449C433 471.091 415.091 489 393 489C370.909 489 353 471.091 353 449C353 426.909 370.909 409 393 409C415.091 409 433 426.909 433 449Z" fill="#CD08D1"/>
<path id="Ellipse 4" d="M436 559C436 581.091 418.091 599 396 599C373.909 599 356 581.091 356 559C356 536.909 373.909 519 396 519C418.091 519 436 536.909 436 559Z" fill="#CD08D1"/>
<path id="Ellipse 5" d="M779 508C779 530.091 761.091 548 739 548C716.909 548 699 530.091 699 508C699 485.909 716.909 468 739 468C761.091 468 779 485.909 779 508Z" fill="#CD08D1"/>
<path id="A" d="M61.0938 462.406H43.4688L39.7812 473H31.5625L48.75 427.5H55.8438L73.0625 473H64.8125L61.0938 462.406ZM45.6875 456.031H58.875L52.2812 437.156L45.6875 456.031Z" fill="white"/>
<path id="B" d="M40.625 578V532.5H56.2188C61.3646 532.5 65.2812 533.531 67.9688 535.594C70.6562 537.656 72 540.729 72 544.812C72 546.896 71.4375 548.771 70.3125 550.438C69.1875 552.104 67.5417 553.396 65.375 554.312C67.8333 554.979 69.7292 556.24 71.0625 558.094C72.4167 559.927 73.0938 562.135 73.0938 564.719C73.0938 568.99 71.7188 572.271 68.9688 574.562C66.2396 576.854 62.3229 578 57.2188 578H40.625ZM48.5312 557.469V571.688H57.3125C59.7917 571.688 61.7292 571.073 63.125 569.844C64.5208 568.615 65.2188 566.906 65.2188 564.719C65.2188 559.99 62.8021 557.573 57.9688 557.469H48.5312ZM48.5312 551.656H56.2812C58.7396 551.656 60.6562 551.104 62.0312 550C63.4271 548.875 64.125 547.292 64.125 545.25C64.125 543 63.4792 541.375 62.1875 540.375C60.9167 539.375 58.9271 538.875 56.2188 538.875H48.5312V551.656Z" fill="white"/>
<path id="C" d="M410.344 456.188C409.885 461.042 408.094 464.833 404.969 467.562C401.844 470.271 397.688 471.625 392.5 471.625C388.875 471.625 385.677 470.771 382.906 469.062C380.156 467.333 378.031 464.885 376.531 461.719C375.031 458.552 374.25 454.875 374.188 450.688V446.438C374.188 442.146 374.948 438.365 376.469 435.094C377.99 431.823 380.167 429.302 383 427.531C385.854 425.76 389.146 424.875 392.875 424.875C397.896 424.875 401.938 426.24 405 428.969C408.062 431.698 409.844 435.552 410.344 440.531H402.469C402.094 437.26 401.135 434.906 399.594 433.469C398.073 432.01 395.833 431.281 392.875 431.281C389.438 431.281 386.792 432.542 384.938 435.062C383.104 437.562 382.167 441.24 382.125 446.094V450.125C382.125 455.042 383 458.792 384.75 461.375C386.521 463.958 389.104 465.25 392.5 465.25C395.604 465.25 397.938 464.552 399.5 463.156C401.062 461.76 402.052 459.438 402.469 456.188H410.344Z" fill="white"/>
<path id="D" d="M378.625 581V535.5H392.062C396.083 535.5 399.646 536.396 402.75 538.188C405.875 539.979 408.292 542.521 410 545.812C411.708 549.104 412.562 552.875 412.562 557.125V559.406C412.562 563.719 411.698 567.51 409.969 570.781C408.26 574.052 405.812 576.573 402.625 578.344C399.458 580.115 395.823 581 391.719 581H378.625ZM386.531 541.875V574.688H391.688C395.833 574.688 399.01 573.396 401.219 570.812C403.448 568.208 404.583 564.479 404.625 559.625V557.094C404.625 552.156 403.552 548.385 401.406 545.781C399.26 543.177 396.146 541.875 392.062 541.875H386.531Z" fill="white"/>
<path id="E" d="M748.219 509.688H729.531V523.688H751.375V530H721.625V484.5H751.156V490.875H729.531V503.438H748.219V509.688Z" fill="white"/>
<g id="10">
<path d="M148.729 466H143.767V442.026L136.445 444.528V440.324L148.094 436.038H148.729V466Z" fill="#CD08D1"/>
<path d="M178.568 453.429C178.568 457.722 177.762 460.962 176.148 463.149C174.549 465.323 172.108 466.41 168.827 466.41C165.601 466.41 163.167 465.351 161.526 463.231C159.899 461.099 159.065 457.947 159.024 453.777V448.609C159.024 444.316 159.824 441.097 161.424 438.95C163.037 436.804 165.491 435.73 168.786 435.73C172.054 435.73 174.487 436.776 176.087 438.868C177.7 440.96 178.527 444.091 178.568 448.261V453.429ZM173.585 447.851C173.585 445.048 173.202 442.997 172.437 441.698C171.671 440.386 170.454 439.729 168.786 439.729C167.159 439.729 165.963 440.352 165.197 441.596C164.432 442.826 164.028 444.754 163.987 447.379V454.146C163.987 456.936 164.377 459.014 165.156 460.381C165.936 461.748 167.159 462.432 168.827 462.432C170.427 462.432 171.609 461.803 172.375 460.545C173.141 459.273 173.544 457.291 173.585 454.598V447.851Z" fill="#CD08D1"/>
</g>
<path id="5" d="M136.568 566.193L138.188 551.141H154.226V555.447H142.331L141.511 562.584C142.892 561.791 144.45 561.395 146.187 561.395C149.03 561.395 151.238 562.304 152.811 564.122C154.396 565.94 155.189 568.388 155.189 571.464C155.189 574.499 154.314 576.919 152.564 578.724C150.814 580.515 148.415 581.41 145.366 581.41C142.632 581.41 140.362 580.638 138.558 579.093C136.767 577.534 135.796 575.483 135.646 572.94H140.465C140.656 574.39 141.176 575.504 142.023 576.283C142.871 577.049 143.979 577.432 145.346 577.432C146.877 577.432 148.066 576.885 148.914 575.791C149.775 574.697 150.206 573.207 150.206 571.32C150.206 569.502 149.734 568.066 148.791 567.014C147.848 565.947 146.549 565.414 144.895 565.414C143.992 565.414 143.227 565.537 142.598 565.783C141.969 566.016 141.285 566.48 140.547 567.178L136.568 566.193Z" fill="#CD08D1"/>
<g id="20">
<path d="M511.312 463H491.235V459.575L501.182 448.727C502.617 447.127 503.636 445.794 504.237 444.728C504.853 443.647 505.16 442.567 505.16 441.487C505.16 440.065 504.757 438.917 503.95 438.042C503.157 437.167 502.084 436.729 500.73 436.729C499.117 436.729 497.866 437.222 496.978 438.206C496.089 439.19 495.645 440.537 495.645 442.246H490.661C490.661 440.428 491.071 438.794 491.892 437.345C492.726 435.882 493.908 434.747 495.439 433.94C496.984 433.134 498.762 432.73 500.771 432.73C503.67 432.73 505.953 433.462 507.621 434.925C509.303 436.374 510.144 438.384 510.144 440.954C510.144 442.444 509.72 444.01 508.872 445.65C508.038 447.277 506.664 449.13 504.75 451.208L497.449 459.021H511.312V463Z" fill="#CD08D1"/>
<path d="M534.568 450.429C534.568 454.722 533.762 457.962 532.148 460.149C530.549 462.323 528.108 463.41 524.827 463.41C521.601 463.41 519.167 462.351 517.526 460.231C515.899 458.099 515.065 454.947 515.024 450.777V445.609C515.024 441.316 515.824 438.097 517.424 435.95C519.037 433.804 521.491 432.73 524.786 432.73C528.054 432.73 530.487 433.776 532.087 435.868C533.7 437.96 534.527 441.091 534.568 445.261V450.429ZM529.585 444.851C529.585 442.048 529.202 439.997 528.437 438.698C527.671 437.386 526.454 436.729 524.786 436.729C523.159 436.729 521.963 437.352 521.197 438.596C520.432 439.826 520.028 441.754 519.987 444.379V451.146C519.987 453.936 520.377 456.014 521.156 457.381C521.936 458.748 523.159 459.432 524.827 459.432C526.427 459.432 527.609 458.803 528.375 457.545C529.141 456.273 529.544 454.291 529.585 451.598V444.851Z" fill="#CD08D1"/>
</g>
<g id="15">
<path d="M504.729 572H499.767V548.026L492.445 550.528V546.324L504.094 542.038H504.729V572Z" fill="#CD08D1"/>
<path d="M516.439 557.193L518.06 542.141H534.097V546.447H522.202L521.382 553.584C522.763 552.791 524.321 552.395 526.058 552.395C528.901 552.395 531.109 553.304 532.682 555.122C534.268 556.94 535.061 559.388 535.061 562.464C535.061 565.499 534.186 567.919 532.436 569.724C530.686 571.515 528.286 572.41 525.237 572.41C522.503 572.41 520.233 571.638 518.429 570.093C516.638 568.534 515.667 566.483 515.517 563.94H520.336C520.527 565.39 521.047 566.504 521.895 567.283C522.742 568.049 523.85 568.432 525.217 568.432C526.748 568.432 527.938 567.885 528.785 566.791C529.646 565.697 530.077 564.207 530.077 562.32C530.077 560.502 529.605 559.066 528.662 558.014C527.719 556.947 526.42 556.414 524.766 556.414C523.863 556.414 523.098 556.537 522.469 556.783C521.84 557.016 521.156 557.48 520.418 558.178L516.439 557.193Z" fill="#CD08D1"/>
</g>
<path id="8" d="M856.041 504.016C856.041 505.479 855.665 506.784 854.913 507.933C854.161 509.067 853.136 509.963 851.837 510.619C853.396 511.344 854.592 512.335 855.426 513.593C856.273 514.851 856.697 516.272 856.697 517.858C856.697 520.483 855.809 522.568 854.031 524.113C852.254 525.645 849.889 526.41 846.936 526.41C843.969 526.41 841.59 525.638 839.799 524.093C838.021 522.548 837.133 520.47 837.133 517.858C837.133 516.259 837.557 514.823 838.404 513.552C839.252 512.28 840.441 511.303 841.973 510.619C840.688 509.963 839.669 509.067 838.917 507.933C838.179 506.784 837.81 505.479 837.81 504.016C837.81 501.473 838.63 499.456 840.271 497.966C841.911 496.476 844.126 495.73 846.915 495.73C849.718 495.73 851.939 496.476 853.58 497.966C855.221 499.456 856.041 501.473 856.041 504.016ZM851.714 517.612C851.714 516.136 851.27 514.946 850.381 514.044C849.506 513.128 848.344 512.67 846.895 512.67C845.445 512.67 844.283 513.121 843.408 514.023C842.547 514.926 842.116 516.122 842.116 517.612C842.116 519.075 842.54 520.244 843.388 521.119C844.249 521.994 845.432 522.432 846.936 522.432C848.439 522.432 849.608 522.008 850.442 521.16C851.29 520.312 851.714 519.13 851.714 517.612ZM851.078 504.2C851.078 502.901 850.702 501.835 849.95 501.001C849.198 500.153 848.187 499.729 846.915 499.729C845.644 499.729 844.639 500.133 843.9 500.939C843.162 501.732 842.793 502.819 842.793 504.2C842.793 505.567 843.162 506.654 843.9 507.461C844.652 508.268 845.664 508.671 846.936 508.671C848.207 508.671 849.212 508.268 849.95 507.461C850.702 506.654 851.078 505.567 851.078 504.2Z" fill="#CD08D1"/>
</g>
<g id="Calcula el valor de &#194;&#171;x&#194;&#187;.">
<path d="M131.797 77.8789C131.48 80.5859 130.479 82.6777 128.791 84.1543C127.115 85.6191 124.883 86.3516 122.094 86.3516C119.07 86.3516 116.645 85.2676 114.816 83.0996C113 80.9316 112.092 78.0312 112.092 74.3984V71.9375C112.092 69.5586 112.514 67.4668 113.357 65.6621C114.213 63.8574 115.42 62.4746 116.979 61.5137C118.537 60.541 120.342 60.0547 122.393 60.0547C125.111 60.0547 127.291 60.8164 128.932 62.3398C130.572 63.8516 131.527 65.9492 131.797 68.6328H128.404C128.111 66.5938 127.473 65.1172 126.488 64.2031C125.516 63.2891 124.15 62.832 122.393 62.832C120.236 62.832 118.543 63.6289 117.312 65.2227C116.094 66.8164 115.484 69.084 115.484 72.0254V74.5039C115.484 77.2812 116.064 79.4902 117.225 81.1309C118.385 82.7715 120.008 83.5918 122.094 83.5918C123.969 83.5918 125.404 83.1699 126.4 82.3262C127.408 81.4707 128.076 79.9883 128.404 77.8789H131.797Z" fill="white"/>
<path d="M147.652 86C147.465 85.625 147.312 84.957 147.195 83.9961C145.684 85.5664 143.879 86.3516 141.781 86.3516C139.906 86.3516 138.365 85.8242 137.158 84.7695C135.963 83.7031 135.365 82.3555 135.365 80.7266C135.365 78.7461 136.115 77.2109 137.615 76.1211C139.127 75.0195 141.248 74.4688 143.979 74.4688H147.143V72.9746C147.143 71.8379 146.803 70.9355 146.123 70.2676C145.443 69.5879 144.441 69.248 143.117 69.248C141.957 69.248 140.984 69.541 140.199 70.127C139.414 70.7129 139.021 71.4219 139.021 72.2539H135.752C135.752 71.3047 136.086 70.3906 136.754 69.5117C137.434 68.6211 138.348 67.918 139.496 67.4023C140.656 66.8867 141.928 66.6289 143.311 66.6289C145.502 66.6289 147.219 67.1797 148.461 68.2812C149.703 69.3711 150.348 70.877 150.395 72.7988V81.5527C150.395 83.2988 150.617 84.6875 151.062 85.7188V86H147.652ZM142.256 83.5215C143.275 83.5215 144.242 83.2578 145.156 82.7305C146.07 82.2031 146.732 81.5176 147.143 80.6738V76.7715H144.594C140.609 76.7715 138.617 77.9375 138.617 80.2695C138.617 81.2891 138.957 82.0859 139.637 82.6602C140.316 83.2344 141.189 83.5215 142.256 83.5215Z" fill="white"/>
<path d="M159.025 86H155.773V59H159.025V86Z" fill="white"/>
<path d="M171.875 83.6973C173.035 83.6973 174.049 83.3457 174.916 82.6426C175.783 81.9395 176.264 81.0605 176.357 80.0059H179.434C179.375 81.0957 179 82.1328 178.309 83.1172C177.617 84.1016 176.691 84.8867 175.531 85.4727C174.383 86.0586 173.164 86.3516 171.875 86.3516C169.285 86.3516 167.223 85.4902 165.688 83.7676C164.164 82.0332 163.402 79.666 163.402 76.666V76.1211C163.402 74.2695 163.742 72.623 164.422 71.1816C165.102 69.7402 166.074 68.6211 167.34 67.8242C168.617 67.0273 170.123 66.6289 171.857 66.6289C173.99 66.6289 175.76 67.2676 177.166 68.5449C178.584 69.8223 179.34 71.4805 179.434 73.5195H176.357C176.264 72.2891 175.795 71.2812 174.951 70.4961C174.119 69.6992 173.088 69.3008 171.857 69.3008C170.205 69.3008 168.922 69.8984 168.008 71.0938C167.105 72.2773 166.654 73.9941 166.654 76.2441V76.8594C166.654 79.0508 167.105 80.7383 168.008 81.9219C168.91 83.1055 170.199 83.6973 171.875 83.6973Z" fill="white"/>
<path d="M194.832 84.1191C193.566 85.6074 191.709 86.3516 189.26 86.3516C187.232 86.3516 185.686 85.7656 184.619 84.5938C183.564 83.4102 183.031 81.6641 183.02 79.3555V66.9805H186.271V79.2676C186.271 82.1504 187.443 83.5918 189.787 83.5918C192.271 83.5918 193.924 82.666 194.744 80.8145V66.9805H197.996V86H194.902L194.832 84.1191Z" fill="white"/>
<path d="M206.486 86H203.234V59H206.486V86Z" fill="white"/>
<path d="M223.449 86C223.262 85.625 223.109 84.957 222.992 83.9961C221.48 85.5664 219.676 86.3516 217.578 86.3516C215.703 86.3516 214.162 85.8242 212.955 84.7695C211.76 83.7031 211.162 82.3555 211.162 80.7266C211.162 78.7461 211.912 77.2109 213.412 76.1211C214.924 75.0195 217.045 74.4688 219.775 74.4688H222.939V72.9746C222.939 71.8379 222.6 70.9355 221.92 70.2676C221.24 69.5879 220.238 69.248 218.914 69.248C217.754 69.248 216.781 69.541 215.996 70.127C215.211 70.7129 214.818 71.4219 214.818 72.2539H211.549C211.549 71.3047 211.883 70.3906 212.551 69.5117C213.23 68.6211 214.145 67.918 215.293 67.4023C216.453 66.8867 217.725 66.6289 219.107 66.6289C221.299 66.6289 223.016 67.1797 224.258 68.2812C225.5 69.3711 226.145 70.877 226.191 72.7988V81.5527C226.191 83.2988 226.414 84.6875 226.859 85.7188V86H223.449ZM218.053 83.5215C219.072 83.5215 220.039 83.2578 220.953 82.7305C221.867 82.2031 222.529 81.5176 222.939 80.6738V76.7715H220.391C216.406 76.7715 214.414 77.9375 214.414 80.2695C214.414 81.2891 214.754 82.0859 215.434 82.6602C216.113 83.2344 216.986 83.5215 218.053 83.5215Z" fill="white"/>
<path d="M248.111 86.3516C245.533 86.3516 243.436 85.5078 241.818 83.8203C240.201 82.1211 239.393 79.8535 239.393 77.0176V76.4199C239.393 74.5332 239.75 72.8516 240.465 71.375C241.191 69.8867 242.199 68.7266 243.488 67.8945C244.789 67.0508 246.195 66.6289 247.707 66.6289C250.18 66.6289 252.102 67.4434 253.473 69.0723C254.844 70.7012 255.529 73.0332 255.529 76.0684V77.4219H242.645C242.691 79.2969 243.236 80.8145 244.279 81.9746C245.334 83.123 246.67 83.6973 248.287 83.6973C249.436 83.6973 250.408 83.4629 251.205 82.9941C252.002 82.5254 252.699 81.9043 253.297 81.1309L255.283 82.6777C253.689 85.127 251.299 86.3516 248.111 86.3516ZM247.707 69.3008C246.395 69.3008 245.293 69.7812 244.402 70.7422C243.512 71.6914 242.961 73.0273 242.75 74.75H252.277V74.5039C252.184 72.8516 251.738 71.5742 250.941 70.6719C250.145 69.7578 249.066 69.3008 247.707 69.3008Z" fill="white"/>
<path d="M262.842 86H259.59V59H262.842V86Z" fill="white"/>
<path d="M283.268 81.5879L287.979 66.9805H291.301L284.48 86H282.002L275.111 66.9805H278.434L283.268 81.5879Z" fill="white"/>
<path d="M305.891 86C305.703 85.625 305.551 84.957 305.434 83.9961C303.922 85.5664 302.117 86.3516 300.02 86.3516C298.145 86.3516 296.604 85.8242 295.396 84.7695C294.201 83.7031 293.604 82.3555 293.604 80.7266C293.604 78.7461 294.354 77.2109 295.854 76.1211C297.365 75.0195 299.486 74.4688 302.217 74.4688H305.381V72.9746C305.381 71.8379 305.041 70.9355 304.361 70.2676C303.682 69.5879 302.68 69.248 301.355 69.248C300.195 69.248 299.223 69.541 298.438 70.127C297.652 70.7129 297.26 71.4219 297.26 72.2539H293.99C293.99 71.3047 294.324 70.3906 294.992 69.5117C295.672 68.6211 296.586 67.918 297.734 67.4023C298.895 66.8867 300.166 66.6289 301.549 66.6289C303.74 66.6289 305.457 67.1797 306.699 68.2812C307.941 69.3711 308.586 70.877 308.633 72.7988V81.5527C308.633 83.2988 308.855 84.6875 309.301 85.7188V86H305.891ZM300.494 83.5215C301.514 83.5215 302.48 83.2578 303.395 82.7305C304.309 82.2031 304.971 81.5176 305.381 80.6738V76.7715H302.832C298.848 76.7715 296.855 77.9375 296.855 80.2695C296.855 81.2891 297.195 82.0859 297.875 82.6602C298.555 83.2344 299.428 83.5215 300.494 83.5215Z" fill="white"/>
<path d="M317.264 86H314.012V59H317.264V86Z" fill="white"/>
<path d="M321.623 76.3145C321.623 74.4512 321.986 72.7754 322.713 71.2871C323.451 69.7988 324.471 68.6504 325.771 67.8418C327.084 67.0332 328.578 66.6289 330.254 66.6289C332.844 66.6289 334.936 67.5254 336.529 69.3184C338.135 71.1113 338.938 73.4961 338.938 76.4727V76.7012C338.938 78.5527 338.58 80.2168 337.865 81.6934C337.162 83.1582 336.148 84.3008 334.824 85.1211C333.512 85.9414 332 86.3516 330.289 86.3516C327.711 86.3516 325.619 85.4551 324.014 83.6621C322.42 81.8691 321.623 79.4961 321.623 76.543V76.3145ZM324.893 76.7012C324.893 78.8105 325.379 80.5039 326.352 81.7812C327.336 83.0586 328.648 83.6973 330.289 83.6973C331.941 83.6973 333.254 83.0527 334.227 81.7637C335.199 80.4629 335.686 78.6465 335.686 76.3145C335.686 74.2285 335.188 72.541 334.191 71.252C333.207 69.9512 331.895 69.3008 330.254 69.3008C328.648 69.3008 327.354 69.9395 326.369 71.2168C325.385 72.4941 324.893 74.3223 324.893 76.7012Z" fill="white"/>
<path d="M352.209 69.8984C351.717 69.8164 351.184 69.7754 350.609 69.7754C348.477 69.7754 347.029 70.6836 346.268 72.5V86H343.016V66.9805H346.18L346.232 69.1777C347.299 67.4785 348.811 66.6289 350.768 66.6289C351.4 66.6289 351.881 66.7109 352.209 66.875V69.8984Z" fill="white"/>
<path d="M363.354 76.332C363.354 73.4141 364.045 71.0703 365.428 69.3008C366.811 67.5195 368.621 66.6289 370.859 66.6289C373.086 66.6289 374.85 67.3906 376.15 68.9141V59H379.402V86H376.414L376.256 83.9609C374.955 85.5547 373.145 86.3516 370.824 86.3516C368.621 86.3516 366.822 85.4492 365.428 83.6445C364.045 81.8398 363.354 79.4844 363.354 76.5781V76.332ZM366.605 76.7012C366.605 78.8574 367.051 80.5449 367.941 81.7637C368.832 82.9824 370.062 83.5918 371.633 83.5918C373.695 83.5918 375.201 82.666 376.15 80.8145V72.0781C375.178 70.2852 373.684 69.3887 371.668 69.3887C370.074 69.3887 368.832 70.0039 367.941 71.2344C367.051 72.4648 366.605 74.2871 366.605 76.7012Z" fill="white"/>
<path d="M392.357 86.3516C389.779 86.3516 387.682 85.5078 386.064 83.8203C384.447 82.1211 383.639 79.8535 383.639 77.0176V76.4199C383.639 74.5332 383.996 72.8516 384.711 71.375C385.438 69.8867 386.445 68.7266 387.734 67.8945C389.035 67.0508 390.441 66.6289 391.953 66.6289C394.426 66.6289 396.348 67.4434 397.719 69.0723C399.09 70.7012 399.775 73.0332 399.775 76.0684V77.4219H386.891C386.938 79.2969 387.482 80.8145 388.525 81.9746C389.58 83.123 390.916 83.6973 392.533 83.6973C393.682 83.6973 394.654 83.4629 395.451 82.9941C396.248 82.5254 396.945 81.9043 397.543 81.1309L399.529 82.6777C397.936 85.127 395.545 86.3516 392.357 86.3516ZM391.953 69.3008C390.641 69.3008 389.539 69.7812 388.648 70.7422C387.758 71.6914 387.207 73.0273 386.996 74.75H396.523V74.5039C396.43 72.8516 395.984 71.5742 395.188 70.6719C394.391 69.7578 393.312 69.3008 391.953 69.3008Z" fill="white"/>
<path d="M414.945 76.3672L419.48 83.3457H417.002L411.816 76.5254V76.1914L417.002 69.3535H419.48L414.945 76.3672ZM420.746 76.3672L425.281 83.3457H422.803L417.617 76.5254V76.1914L422.803 69.3535H425.281L420.746 76.3672Z" fill="white"/>
<path d="M435.775 73.9238L439.994 66.9805H443.791L437.568 76.3848L443.984 86H440.223L435.828 78.8809L431.434 86H427.654L434.07 76.3848L427.848 66.9805H431.609L435.775 73.9238Z" fill="white"/>
<path d="M449.082 69.3184L454.268 76.1562V76.4902L449.082 83.3281H446.586L451.121 76.332L446.586 69.3184H449.082ZM455.217 69.3184L460.402 76.1562V76.4902L455.217 83.3281H452.721L457.256 76.332L452.721 69.3184H455.217Z" fill="white"/>
<path d="M464.199 84.2949C464.199 83.7324 464.363 83.2637 464.691 82.8887C465.031 82.5137 465.535 82.3262 466.203 82.3262C466.871 82.3262 467.375 82.5137 467.715 82.8887C468.066 83.2637 468.242 83.7324 468.242 84.2949C468.242 84.834 468.066 85.2852 467.715 85.6484C467.375 86.0117 466.871 86.1934 466.203 86.1934C465.535 86.1934 465.031 86.0117 464.691 85.6484C464.363 85.2852 464.199 84.834 464.199 84.2949Z" fill="white"/>
</g>
<g id="Group 45">
<g id="Group 42">
<g id="Group 39">
<path id="Rectangle 16 (Stroke)" fill-rule="evenodd" clip-rule="evenodd" d="M374 143H200V317H374V143ZM197 140V320H377V140H197Z" fill="#E79720"/>
<path id="Line 5 (Stroke)" fill-rule="evenodd" clip-rule="evenodd" d="M287 140V320H284V140H287Z" fill="#E79720"/>
<path id="Line 6 (Stroke)" fill-rule="evenodd" clip-rule="evenodd" d="M377 230H197V227H377V230Z" fill="#E79720"/>
</g>
<path id="2" d="M253.146 207H231.718V204.013L243.038 191.435C244.715 189.533 245.868 187.991 246.497 186.808C247.141 185.61 247.463 184.374 247.463 183.102C247.463 181.395 246.946 179.994 245.913 178.901C244.88 177.808 243.502 177.262 241.78 177.262C239.714 177.262 238.104 177.853 236.951 179.036C235.813 180.204 235.244 181.836 235.244 183.933H231.089C231.089 180.923 232.055 178.49 233.986 176.633C235.933 174.776 238.531 173.848 241.78 173.848C244.82 173.848 247.223 174.649 248.99 176.251C250.757 177.838 251.641 179.957 251.641 182.607C251.641 185.827 249.589 189.66 245.486 194.107L236.727 203.608H253.146V207Z" fill="white"/>
<path id="3" d="M326.76 188.627H329.882C331.843 188.597 333.386 188.08 334.509 187.077C335.632 186.074 336.193 184.719 336.193 183.012C336.193 179.178 334.284 177.262 330.466 177.262C328.669 177.262 327.231 177.778 326.153 178.812C325.09 179.83 324.559 181.185 324.559 182.877H320.403C320.403 180.286 321.347 178.138 323.233 176.431C325.135 174.709 327.546 173.848 330.466 173.848C333.55 173.848 335.969 174.664 337.721 176.296C339.473 177.928 340.349 180.197 340.349 183.102C340.349 184.524 339.884 185.902 338.956 187.234C338.043 188.567 336.792 189.563 335.205 190.222C337.002 190.791 338.387 191.734 339.36 193.052C340.349 194.369 340.843 195.979 340.843 197.881C340.843 200.816 339.884 203.144 337.968 204.866C336.051 206.588 333.558 207.449 330.488 207.449C327.419 207.449 324.918 206.618 322.986 204.956C321.07 203.294 320.111 201.1 320.111 198.375H324.289C324.289 200.097 324.851 201.475 325.974 202.508C327.097 203.541 328.602 204.058 330.488 204.058C332.495 204.058 334.03 203.534 335.093 202.485C336.156 201.437 336.688 199.932 336.688 197.971C336.688 196.069 336.104 194.609 334.936 193.591C333.768 192.573 332.083 192.049 329.882 192.019H326.76V188.627Z" fill="white"/>
<path id="9" d="M247.643 282.625C246.774 283.658 245.733 284.489 244.521 285.118C243.323 285.747 242.005 286.062 240.567 286.062C238.681 286.062 237.034 285.597 235.626 284.669C234.233 283.741 233.155 282.438 232.392 280.761C231.628 279.069 231.246 277.204 231.246 275.168C231.246 272.982 231.658 271.013 232.481 269.261C233.32 267.509 234.503 266.169 236.03 265.24C237.558 264.312 239.34 263.848 241.376 263.848C244.61 263.848 247.156 265.061 249.013 267.486C250.884 269.897 251.82 273.191 251.82 277.369V278.582C251.82 284.946 250.562 289.595 248.047 292.53C245.531 295.45 241.735 296.948 236.659 297.022H235.851V293.519H236.727C240.156 293.459 242.791 292.568 244.633 290.846C246.475 289.109 247.478 286.368 247.643 282.625ZM241.241 282.625C242.634 282.625 243.914 282.198 245.082 281.345C246.265 280.491 247.126 279.436 247.665 278.178V276.516C247.665 273.79 247.074 271.574 245.891 269.867C244.708 268.16 243.21 267.307 241.398 267.307C239.572 267.307 238.104 268.01 236.996 269.418C235.888 270.811 235.334 272.652 235.334 274.943C235.334 277.174 235.866 279.016 236.929 280.469C238.007 281.906 239.444 282.625 241.241 282.625Z" fill="white"/>
<g id="17">
<path d="M321.374 297H317.196V269.306L308.818 272.383V268.609L320.723 264.14H321.374V297Z" fill="white"/>
<path d="M354.661 266.633L341.117 297H336.76L350.259 267.711H332.56V264.297H354.661V266.633Z" fill="white"/>
</g>
</g>
<g id="Group 43">
<g id="Group 40">
<path id="Rectangle 16 (Stroke)_2" fill-rule="evenodd" clip-rule="evenodd" d="M584 143H410V317H584V143ZM407 140V320H587V140H407Z" fill="#FD0C0C"/>
<path id="Line 5 (Stroke)_2" fill-rule="evenodd" clip-rule="evenodd" d="M497 140V320H494V140H497Z" fill="#FD0C0C"/>
<path id="Line 6 (Stroke)_2" fill-rule="evenodd" clip-rule="evenodd" d="M587 230H407V227H587V230Z" fill="#FD0C0C"/>
</g>
<path id="3_2" d="M447.76 188.627H450.882C452.843 188.597 454.386 188.08 455.509 187.077C456.632 186.074 457.193 184.719 457.193 183.012C457.193 179.178 455.284 177.262 451.466 177.262C449.669 177.262 448.231 177.778 447.153 178.812C446.09 179.83 445.559 181.185 445.559 182.877H441.403C441.403 180.286 442.347 178.138 444.233 176.431C446.135 174.709 448.546 173.848 451.466 173.848C454.55 173.848 456.969 174.664 458.721 176.296C460.473 177.928 461.349 180.197 461.349 183.102C461.349 184.524 460.884 185.902 459.956 187.234C459.043 188.567 457.792 189.563 456.205 190.222C458.002 190.791 459.387 191.734 460.36 193.052C461.349 194.369 461.843 195.979 461.843 197.881C461.843 200.816 460.884 203.144 458.968 204.866C457.051 206.588 454.558 207.449 451.488 207.449C448.419 207.449 445.918 206.618 443.986 204.956C442.07 203.294 441.111 201.1 441.111 198.375H445.289C445.289 200.097 445.851 201.475 446.974 202.508C448.097 203.541 449.602 204.058 451.488 204.058C453.495 204.058 455.03 203.534 456.093 202.485C457.156 201.437 457.688 199.932 457.688 197.971C457.688 196.069 457.104 194.609 455.936 193.591C454.768 192.573 453.083 192.049 450.882 192.019H447.76V188.627Z" fill="white"/>
<path id="4" d="M548.26 196.017H552.797V199.408H548.26V207H544.082V199.408H529.19V196.96L543.835 174.297H548.26V196.017ZM533.907 196.017H544.082V179.979L543.588 180.878L533.907 196.017Z" fill="white"/>
<path id="1" d="M455.374 297H451.196V269.306L442.818 272.383V268.609L454.723 264.14H455.374V297Z" fill="white"/>
<g id="82">
<path d="M537.551 272.832C537.551 274.464 537.117 275.917 536.248 277.189C535.395 278.462 534.234 279.458 532.767 280.177C534.474 280.91 535.821 281.981 536.81 283.389C537.813 284.796 538.314 286.391 538.314 288.173C538.314 291.003 537.356 293.257 535.439 294.934C533.538 296.611 531.03 297.449 527.915 297.449C524.771 297.449 522.247 296.611 520.346 294.934C518.459 293.242 517.516 290.988 517.516 288.173C517.516 286.406 517.995 284.811 518.953 283.389C519.926 281.966 521.267 280.888 522.974 280.154C521.521 279.436 520.376 278.44 519.537 277.167C518.699 275.894 518.279 274.449 518.279 272.832C518.279 270.077 519.163 267.891 520.93 266.273C522.697 264.656 525.025 263.848 527.915 263.848C530.79 263.848 533.111 264.656 534.878 266.273C536.66 267.891 537.551 270.077 537.551 272.832ZM534.159 288.083C534.159 286.256 533.575 284.766 532.407 283.613C531.254 282.46 529.742 281.884 527.87 281.884C525.998 281.884 524.493 282.453 523.355 283.591C522.232 284.729 521.671 286.226 521.671 288.083C521.671 289.94 522.217 291.4 523.311 292.463C524.419 293.526 525.953 294.058 527.915 294.058C529.862 294.058 531.389 293.526 532.497 292.463C533.605 291.385 534.159 289.925 534.159 288.083ZM527.915 267.262C526.283 267.262 524.958 267.771 523.939 268.789C522.936 269.792 522.435 271.162 522.435 272.899C522.435 274.562 522.929 275.909 523.917 276.942C524.92 277.961 526.253 278.47 527.915 278.47C529.577 278.47 530.902 277.961 531.891 276.942C532.894 275.909 533.396 274.562 533.396 272.899C533.396 271.237 532.879 269.882 531.846 268.834C530.812 267.786 529.502 267.262 527.915 267.262Z" fill="white"/>
<path d="M564.976 297H543.548V294.013L554.868 281.435C556.545 279.533 557.698 277.991 558.327 276.808C558.971 275.61 559.293 274.374 559.293 273.102C559.293 271.395 558.776 269.994 557.743 268.901C556.71 267.808 555.332 267.262 553.61 267.262C551.544 267.262 549.934 267.853 548.781 269.036C547.643 270.204 547.074 271.836 547.074 273.933H542.919C542.919 270.923 543.885 268.49 545.816 266.633C547.763 264.776 550.361 263.848 553.61 263.848C556.65 263.848 559.053 264.649 560.82 266.251C562.587 267.838 563.471 269.957 563.471 272.607C563.471 275.827 561.419 279.66 557.316 284.107L548.557 293.608H564.976V297Z" fill="white"/>
</g>
</g>
<g id="Group 44">
<g id="Group 41">
<path id="Rectangle 16 (Stroke)_3" fill-rule="evenodd" clip-rule="evenodd" d="M794 143H620V317H794V143ZM617 140V320H797V140H617Z" fill="#E8A1EE"/>
<path id="Line 5 (Stroke)_3" fill-rule="evenodd" clip-rule="evenodd" d="M707 140V320H704V140H707Z" fill="#E8A1EE"/>
<path id="Line 6 (Stroke)_3" fill-rule="evenodd" clip-rule="evenodd" d="M797 230H617V227H797V230Z" fill="#E8A1EE"/>
</g>
<path id="2_2" d="M673.146 207H651.718V204.013L663.038 191.435C664.715 189.533 665.868 187.991 666.497 186.808C667.141 185.61 667.463 184.374 667.463 183.102C667.463 181.395 666.946 179.994 665.913 178.901C664.88 177.808 663.502 177.262 661.78 177.262C659.714 177.262 658.104 177.853 656.951 179.036C655.813 180.204 655.244 181.836 655.244 183.933H651.089C651.089 180.923 652.055 178.49 653.986 176.633C655.933 174.776 658.531 173.848 661.78 173.848C664.82 173.848 667.223 174.649 668.99 176.251C670.757 177.838 671.641 179.957 671.641 182.607C671.641 185.827 669.589 189.66 665.486 194.107L656.727 203.608H673.146V207Z" fill="white"/>
<path id="x" d="M749.298 191.569L754.688 182.697H759.54L751.589 194.714L759.787 207H754.98L749.365 197.903L743.75 207H738.921L747.119 194.714L739.168 182.697H743.975L749.298 191.569Z" fill="white"/>
<path id="8_2" d="M671.551 272.832C671.551 274.464 671.117 275.917 670.248 277.189C669.395 278.462 668.234 279.458 666.767 280.177C668.474 280.91 669.821 281.981 670.81 283.389C671.813 284.796 672.314 286.391 672.314 288.173C672.314 291.003 671.356 293.257 669.439 294.934C667.538 296.611 665.03 297.449 661.915 297.449C658.771 297.449 656.247 296.611 654.346 294.934C652.459 293.242 651.516 290.988 651.516 288.173C651.516 286.406 651.995 284.811 652.953 283.389C653.926 281.966 655.267 280.888 656.974 280.154C655.521 279.436 654.376 278.44 653.537 277.167C652.699 275.894 652.279 274.449 652.279 272.832C652.279 270.077 653.163 267.891 654.93 266.273C656.697 264.656 659.025 263.848 661.915 263.848C664.79 263.848 667.111 264.656 668.878 266.273C670.66 267.891 671.551 270.077 671.551 272.832ZM668.159 288.083C668.159 286.256 667.575 284.766 666.407 283.613C665.254 282.46 663.742 281.884 661.87 281.884C659.998 281.884 658.493 282.453 657.355 283.591C656.232 284.729 655.671 286.226 655.671 288.083C655.671 289.94 656.217 291.4 657.311 292.463C658.419 293.526 659.953 294.058 661.915 294.058C663.862 294.058 665.389 293.526 666.497 292.463C667.605 291.385 668.159 289.925 668.159 288.083ZM661.915 267.262C660.283 267.262 658.958 267.771 657.939 268.789C656.936 269.792 656.435 271.162 656.435 272.899C656.435 274.562 656.929 275.909 657.917 276.942C658.92 277.961 660.253 278.47 661.915 278.47C663.577 278.47 664.902 277.961 665.891 276.942C666.894 275.909 667.396 274.562 667.396 272.899C667.396 271.237 666.879 269.882 665.846 268.834C664.812 267.786 663.502 267.262 661.915 267.262Z" fill="white"/>
<g id="40">
<path d="M745.26 286.017H749.797V289.408H745.26V297H741.082V289.408H726.19V286.96L740.835 264.297H745.26V286.017ZM730.907 286.017H741.082V269.979L740.588 270.878L730.907 286.017Z" fill="white"/>
<path d="M774.055 283.052C774.055 287.918 773.224 291.535 771.562 293.9C769.899 296.266 767.301 297.449 763.768 297.449C760.279 297.449 757.696 296.296 756.019 293.99C754.341 291.669 753.473 288.21 753.413 283.613V278.065C753.413 273.259 754.244 269.688 755.906 267.352C757.568 265.016 760.174 263.848 763.723 263.848C767.242 263.848 769.832 264.978 771.494 267.239C773.156 269.485 774.01 272.959 774.055 277.661V283.052ZM769.899 277.369C769.899 273.85 769.405 271.29 768.417 269.688C767.429 268.07 765.864 267.262 763.723 267.262C761.596 267.262 760.047 268.063 759.073 269.665C758.1 271.267 757.598 273.73 757.568 277.055V283.703C757.568 287.237 758.077 289.85 759.096 291.542C760.129 293.219 761.686 294.058 763.768 294.058C765.819 294.058 767.339 293.264 768.327 291.677C769.33 290.09 769.854 287.589 769.899 284.175V277.369Z" fill="white"/>
</g>
</g>
</g>
<g id="flecha">
<path id="Rectangle 2" d="M58.2002 532.008L73.482 540.133L31.5004 619.089L16.2186 610.963L58.2002 532.008Z" fill="#1043F5"/>
<path id="Rectangle 1_2" d="M0 544.904L90 495V552.692L45 535.096L0 544.904Z" fill="#1043F5"/>
<path id="Rectangle 3" d="M4.03857 614.21L19.6657 587.143L36.9364 586.565L21.3092 613.632L4.03857 614.21Z" fill="#1043F5"/>
<path id="Rectangle 4_2" d="M30.0894 628.845L45.7165 601.778L36.9258 586.154L21.2986 613.221L30.0894 628.845Z" fill="#1043F5"/>
</g>
</g>
</svg>
