<svg viewBox="0 0 980 617" fill="none" xmlns="http://www.w3.org/2000/svg">
<g id="0119102">
<g id="Group 8">
<path id="Rectangle 1" d="M57 48.6165C57 23.2861 78.3794 2.75183 104.752 2.75183H928V320.135C928 345.466 906.62 366 880.247 366H57V48.6165Z" fill="#02071A"/>
<path id="Rectangle 1 (Stroke)" fill-rule="evenodd" clip-rule="evenodd" d="M923.224 7.3383H104.752C81.0167 7.3383 61.7752 25.8192 61.7752 48.6165V361.413H880.247C903.983 361.413 923.224 342.933 923.224 320.135V7.3383ZM104.752 2.75183C78.3794 2.75183 57 23.2861 57 48.6165V366H880.247C906.62 366 928 345.466 928 320.135V2.75183H104.752Z" fill="#CD08D1"/>
<path id="Rectangle 14" d="M108.716 2.81831C134.256 -3.52289 928 2.81831 928 2.81831V30.2707C928 30.2707 95.2017 20.1805 65.5954 30.2707C74.8075 15.7103 83.1754 9.15951 108.716 2.81831Z" fill="#CD08D1"/>
<path id="Rectangle 15" d="M899.349 2.75183H928V321.053C924.483 342.653 917.194 350.592 899.349 360.955C904.601 343.985 899.349 2.75183 899.349 2.75183Z" fill="#CD08D1"/>
</g>
<g id="claves01">
<path id="Rectangle 4" d="M44 403H260.745L294 443L260.745 483H44V403Z" fill="#CD08D1" fill-opacity="0.1"/>
<path id="Rectangle 4 (Stroke)" fill-rule="evenodd" clip-rule="evenodd" d="M259.338 406H47V480H259.338L290.099 443L259.338 406ZM260.745 403H44V483H260.745L294 443L260.745 403Z" fill="#CD08D1"/>
<path id="Rectangle 5" d="M48 513H264.745L298 553L264.745 593H48V513Z" fill="#CD08D1" fill-opacity="0.1"/>
<path id="Rectangle 5 (Stroke)" fill-rule="evenodd" clip-rule="evenodd" d="M263.338 516H51V590H263.338L294.099 553L263.338 516ZM264.745 513H48V593H264.745L298 553L264.745 513Z" fill="#CD08D1"/>
<path id="Rectangle 6" d="M384 400H600.745L634 440L600.745 480H384V400Z" fill="#CD08D1" fill-opacity="0.1"/>
<path id="Rectangle 6 (Stroke)" fill-rule="evenodd" clip-rule="evenodd" d="M599.338 403H387V477H599.338L630.099 440L599.338 403ZM600.745 400H384V480H600.745L634 440L600.745 400Z" fill="#CD08D1"/>
<path id="Rectangle 7" d="M387 510H603.745L637 550L603.745 590H387V510Z" fill="#CD08D1" fill-opacity="0.1"/>
<path id="Rectangle 7 (Stroke)" fill-rule="evenodd" clip-rule="evenodd" d="M602.338 513H390V587H602.338L633.099 550L602.338 513ZM603.745 510H387V590H603.745L637 550L603.745 510Z" fill="#CD08D1"/>
<path id="Rectangle 8" d="M730 459H946.745L980 499L946.745 539H730V459Z" fill="#CD08D1" fill-opacity="0.1"/>
<path id="Rectangle 8 (Stroke)" fill-rule="evenodd" clip-rule="evenodd" d="M945.338 462H733V536H945.338L976.099 499L945.338 462ZM946.745 459H730V539H946.745L980 499L946.745 459Z" fill="#CD08D1"/>
<path id="Ellipse 1" d="M85 443C85 465.091 67.0914 483 45 483C22.9086 483 5 465.091 5 443C5 420.909 22.9086 403 45 403C67.0914 403 85 420.909 85 443Z" fill="#CD08D1"/>
<path id="Ellipse 2" d="M89 553C89 575.091 71.0914 593 49 593C26.9086 593 9 575.091 9 553C9 530.909 26.9086 513 49 513C71.0914 513 89 530.909 89 553Z" fill="#CD08D1"/>
<path id="Ellipse 3" d="M425 440C425 462.091 407.091 480 385 480C362.909 480 345 462.091 345 440C345 417.909 362.909 400 385 400C407.091 400 425 417.909 425 440Z" fill="#CD08D1"/>
<path id="Ellipse 4" d="M428 550C428 572.091 410.091 590 388 590C365.909 590 348 572.091 348 550C348 527.909 365.909 510 388 510C410.091 510 428 527.909 428 550Z" fill="#CD08D1"/>
<path id="Ellipse 5" d="M771 499C771 521.091 753.091 539 731 539C708.909 539 691 521.091 691 499C691 476.909 708.909 459 731 459C753.091 459 771 476.909 771 499Z" fill="#CD08D1"/>
<path id="A" d="M53.0938 453.406H35.4688L31.7812 464H23.5625L40.75 418.5H47.8438L65.0625 464H56.8125L53.0938 453.406ZM37.6875 447.031H50.875L44.2812 428.156L37.6875 447.031Z" fill="white"/>
<path id="B" d="M32.625 569V523.5H48.2188C53.3646 523.5 57.2812 524.531 59.9688 526.594C62.6562 528.656 64 531.729 64 535.812C64 537.896 63.4375 539.771 62.3125 541.438C61.1875 543.104 59.5417 544.396 57.375 545.312C59.8333 545.979 61.7292 547.24 63.0625 549.094C64.4167 550.927 65.0938 553.135 65.0938 555.719C65.0938 559.99 63.7188 563.271 60.9688 565.562C58.2396 567.854 54.3229 569 49.2188 569H32.625ZM40.5312 548.469V562.688H49.3125C51.7917 562.688 53.7292 562.073 55.125 560.844C56.5208 559.615 57.2188 557.906 57.2188 555.719C57.2188 550.99 54.8021 548.573 49.9688 548.469H40.5312ZM40.5312 542.656H48.2812C50.7396 542.656 52.6562 542.104 54.0312 541C55.4271 539.875 56.125 538.292 56.125 536.25C56.125 534 55.4792 532.375 54.1875 531.375C52.9167 530.375 50.9271 529.875 48.2188 529.875H40.5312V542.656Z" fill="white"/>
<path id="C" d="M402.344 447.188C401.885 452.042 400.094 455.833 396.969 458.562C393.844 461.271 389.688 462.625 384.5 462.625C380.875 462.625 377.677 461.771 374.906 460.062C372.156 458.333 370.031 455.885 368.531 452.719C367.031 449.552 366.25 445.875 366.188 441.688V437.438C366.188 433.146 366.948 429.365 368.469 426.094C369.99 422.823 372.167 420.302 375 418.531C377.854 416.76 381.146 415.875 384.875 415.875C389.896 415.875 393.938 417.24 397 419.969C400.062 422.698 401.844 426.552 402.344 431.531H394.469C394.094 428.26 393.135 425.906 391.594 424.469C390.073 423.01 387.833 422.281 384.875 422.281C381.438 422.281 378.792 423.542 376.938 426.062C375.104 428.562 374.167 432.24 374.125 437.094V441.125C374.125 446.042 375 449.792 376.75 452.375C378.521 454.958 381.104 456.25 384.5 456.25C387.604 456.25 389.938 455.552 391.5 454.156C393.062 452.76 394.052 450.438 394.469 447.188H402.344Z" fill="white"/>
<path id="D" d="M370.625 572V526.5H384.062C388.083 526.5 391.646 527.396 394.75 529.188C397.875 530.979 400.292 533.521 402 536.812C403.708 540.104 404.562 543.875 404.562 548.125V550.406C404.562 554.719 403.698 558.51 401.969 561.781C400.26 565.052 397.812 567.573 394.625 569.344C391.458 571.115 387.823 572 383.719 572H370.625ZM378.531 532.875V565.688H383.688C387.833 565.688 391.01 564.396 393.219 561.812C395.448 559.208 396.583 555.479 396.625 550.625V548.094C396.625 543.156 395.552 539.385 393.406 536.781C391.26 534.177 388.146 532.875 384.062 532.875H378.531Z" fill="white"/>
<path id="E" d="M740.219 500.688H721.531V514.688H743.375V521H713.625V475.5H743.156V481.875H721.531V494.438H740.219V500.688Z" fill="white"/>
<path id="4" d="M144.093 446.356H147.805V450.355H144.093V457H139.109V450.355H126.21L126.066 447.32L138.945 427.141H144.093V446.356ZM131.296 446.356H139.109V433.888L138.74 434.544L131.296 446.356Z" fill="#CD08D1"/>
<path id="5" d="M128.568 557.193L130.188 542.141H146.226V546.447H134.331L133.511 553.584C134.892 552.791 136.45 552.395 138.187 552.395C141.03 552.395 143.238 553.304 144.811 555.122C146.396 556.94 147.189 559.388 147.189 562.464C147.189 565.499 146.314 567.919 144.564 569.724C142.814 571.515 140.415 572.41 137.366 572.41C134.632 572.41 132.362 571.638 130.558 570.093C128.767 568.534 127.796 566.483 127.646 563.94H132.465C132.656 565.39 133.176 566.504 134.023 567.283C134.871 568.049 135.979 568.432 137.346 568.432C138.877 568.432 140.066 567.885 140.914 566.791C141.775 565.697 142.206 564.207 142.206 562.32C142.206 560.502 141.734 559.066 140.791 558.014C139.848 556.947 138.549 556.414 136.895 556.414C135.992 556.414 135.227 556.537 134.598 556.783C133.969 557.016 133.285 557.48 132.547 558.178L128.568 557.193Z" fill="#CD08D1"/>
<path id="6" d="M498.739 423.997V428.119H498.124C495.335 428.16 493.106 428.926 491.438 430.416C489.771 431.906 488.779 434.019 488.465 436.753C490.064 435.071 492.108 434.23 494.597 434.23C497.235 434.23 499.313 435.16 500.831 437.02C502.362 438.879 503.128 441.278 503.128 444.218C503.128 447.253 502.232 449.714 500.441 451.601C498.664 453.474 496.326 454.41 493.428 454.41C490.447 454.41 488.027 453.31 486.168 451.108C484.322 448.907 483.399 446.022 483.399 442.454V440.752C483.399 435.516 484.671 431.414 487.214 428.447C489.771 425.48 493.441 423.997 498.227 423.997H498.739ZM493.387 438.25C492.293 438.25 491.288 438.558 490.372 439.173C489.47 439.788 488.807 440.608 488.383 441.634V443.151C488.383 445.366 488.848 447.13 489.777 448.442C490.707 449.741 491.91 450.391 493.387 450.391C494.863 450.391 496.032 449.837 496.894 448.729C497.755 447.622 498.186 446.166 498.186 444.361C498.186 442.557 497.748 441.087 496.873 439.952C495.998 438.817 494.836 438.25 493.387 438.25Z" fill="#CD08D1"/>
<path id="7" d="M503.107 535.909L491.172 563H485.942L497.857 537.14H482.415V533.141H503.107V535.909Z" fill="#CD08D1"/>
<path id="8" d="M848.041 495.016C848.041 496.479 847.665 497.784 846.913 498.933C846.161 500.067 845.136 500.963 843.837 501.619C845.396 502.344 846.592 503.335 847.426 504.593C848.273 505.851 848.697 507.272 848.697 508.858C848.697 511.483 847.809 513.568 846.031 515.113C844.254 516.645 841.889 517.41 838.936 517.41C835.969 517.41 833.59 516.638 831.799 515.093C830.021 513.548 829.133 511.47 829.133 508.858C829.133 507.259 829.557 505.823 830.404 504.552C831.252 503.28 832.441 502.303 833.973 501.619C832.688 500.963 831.669 500.067 830.917 498.933C830.179 497.784 829.81 496.479 829.81 495.016C829.81 492.473 830.63 490.456 832.271 488.966C833.911 487.476 836.126 486.73 838.915 486.73C841.718 486.73 843.939 487.476 845.58 488.966C847.221 490.456 848.041 492.473 848.041 495.016ZM843.714 508.612C843.714 507.136 843.27 505.946 842.381 505.044C841.506 504.128 840.344 503.67 838.895 503.67C837.445 503.67 836.283 504.121 835.408 505.023C834.547 505.926 834.116 507.122 834.116 508.612C834.116 510.075 834.54 511.244 835.388 512.119C836.249 512.994 837.432 513.432 838.936 513.432C840.439 513.432 841.608 513.008 842.442 512.16C843.29 511.312 843.714 510.13 843.714 508.612ZM843.078 495.2C843.078 493.901 842.702 492.835 841.95 492.001C841.198 491.153 840.187 490.729 838.915 490.729C837.644 490.729 836.639 491.133 835.9 491.939C835.162 492.732 834.793 493.819 834.793 495.2C834.793 496.567 835.162 497.654 835.9 498.461C836.652 499.268 837.664 499.671 838.936 499.671C840.207 499.671 841.212 499.268 841.95 498.461C842.702 497.654 843.078 496.567 843.078 495.2Z" fill="#CD08D1"/>
</g>
<g id="Calcula el valor de &#194;&#171;x&#194;&#187;.">
<path d="M112.797 77.8789C112.48 80.5859 111.479 82.6777 109.791 84.1543C108.115 85.6191 105.883 86.3516 103.094 86.3516C100.07 86.3516 97.6445 85.2676 95.8164 83.0996C94 80.9316 93.0918 78.0312 93.0918 74.3984V71.9375C93.0918 69.5586 93.5137 67.4668 94.3574 65.6621C95.2129 63.8574 96.4199 62.4746 97.9785 61.5137C99.5371 60.541 101.342 60.0547 103.393 60.0547C106.111 60.0547 108.291 60.8164 109.932 62.3398C111.572 63.8516 112.527 65.9492 112.797 68.6328H109.404C109.111 66.5938 108.473 65.1172 107.488 64.2031C106.516 63.2891 105.15 62.832 103.393 62.832C101.236 62.832 99.543 63.6289 98.3125 65.2227C97.0938 66.8164 96.4844 69.084 96.4844 72.0254V74.5039C96.4844 77.2812 97.0645 79.4902 98.2246 81.1309C99.3848 82.7715 101.008 83.5918 103.094 83.5918C104.969 83.5918 106.404 83.1699 107.4 82.3262C108.408 81.4707 109.076 79.9883 109.404 77.8789H112.797Z" fill="white"/>
<path d="M128.652 86C128.465 85.625 128.312 84.957 128.195 83.9961C126.684 85.5664 124.879 86.3516 122.781 86.3516C120.906 86.3516 119.365 85.8242 118.158 84.7695C116.963 83.7031 116.365 82.3555 116.365 80.7266C116.365 78.7461 117.115 77.2109 118.615 76.1211C120.127 75.0195 122.248 74.4688 124.979 74.4688H128.143V72.9746C128.143 71.8379 127.803 70.9355 127.123 70.2676C126.443 69.5879 125.441 69.248 124.117 69.248C122.957 69.248 121.984 69.541 121.199 70.127C120.414 70.7129 120.021 71.4219 120.021 72.2539H116.752C116.752 71.3047 117.086 70.3906 117.754 69.5117C118.434 68.6211 119.348 67.918 120.496 67.4023C121.656 66.8867 122.928 66.6289 124.311 66.6289C126.502 66.6289 128.219 67.1797 129.461 68.2812C130.703 69.3711 131.348 70.877 131.395 72.7988V81.5527C131.395 83.2988 131.617 84.6875 132.062 85.7188V86H128.652ZM123.256 83.5215C124.275 83.5215 125.242 83.2578 126.156 82.7305C127.07 82.2031 127.732 81.5176 128.143 80.6738V76.7715H125.594C121.609 76.7715 119.617 77.9375 119.617 80.2695C119.617 81.2891 119.957 82.0859 120.637 82.6602C121.316 83.2344 122.189 83.5215 123.256 83.5215Z" fill="white"/>
<path d="M140.025 86H136.773V59H140.025V86Z" fill="white"/>
<path d="M152.875 83.6973C154.035 83.6973 155.049 83.3457 155.916 82.6426C156.783 81.9395 157.264 81.0605 157.357 80.0059H160.434C160.375 81.0957 160 82.1328 159.309 83.1172C158.617 84.1016 157.691 84.8867 156.531 85.4727C155.383 86.0586 154.164 86.3516 152.875 86.3516C150.285 86.3516 148.223 85.4902 146.688 83.7676C145.164 82.0332 144.402 79.666 144.402 76.666V76.1211C144.402 74.2695 144.742 72.623 145.422 71.1816C146.102 69.7402 147.074 68.6211 148.34 67.8242C149.617 67.0273 151.123 66.6289 152.857 66.6289C154.99 66.6289 156.76 67.2676 158.166 68.5449C159.584 69.8223 160.34 71.4805 160.434 73.5195H157.357C157.264 72.2891 156.795 71.2812 155.951 70.4961C155.119 69.6992 154.088 69.3008 152.857 69.3008C151.205 69.3008 149.922 69.8984 149.008 71.0938C148.105 72.2773 147.654 73.9941 147.654 76.2441V76.8594C147.654 79.0508 148.105 80.7383 149.008 81.9219C149.91 83.1055 151.199 83.6973 152.875 83.6973Z" fill="white"/>
<path d="M175.832 84.1191C174.566 85.6074 172.709 86.3516 170.26 86.3516C168.232 86.3516 166.686 85.7656 165.619 84.5938C164.564 83.4102 164.031 81.6641 164.02 79.3555V66.9805H167.271V79.2676C167.271 82.1504 168.443 83.5918 170.787 83.5918C173.271 83.5918 174.924 82.666 175.744 80.8145V66.9805H178.996V86H175.902L175.832 84.1191Z" fill="white"/>
<path d="M187.486 86H184.234V59H187.486V86Z" fill="white"/>
<path d="M204.449 86C204.262 85.625 204.109 84.957 203.992 83.9961C202.48 85.5664 200.676 86.3516 198.578 86.3516C196.703 86.3516 195.162 85.8242 193.955 84.7695C192.76 83.7031 192.162 82.3555 192.162 80.7266C192.162 78.7461 192.912 77.2109 194.412 76.1211C195.924 75.0195 198.045 74.4688 200.775 74.4688H203.939V72.9746C203.939 71.8379 203.6 70.9355 202.92 70.2676C202.24 69.5879 201.238 69.248 199.914 69.248C198.754 69.248 197.781 69.541 196.996 70.127C196.211 70.7129 195.818 71.4219 195.818 72.2539H192.549C192.549 71.3047 192.883 70.3906 193.551 69.5117C194.23 68.6211 195.145 67.918 196.293 67.4023C197.453 66.8867 198.725 66.6289 200.107 66.6289C202.299 66.6289 204.016 67.1797 205.258 68.2812C206.5 69.3711 207.145 70.877 207.191 72.7988V81.5527C207.191 83.2988 207.414 84.6875 207.859 85.7188V86H204.449ZM199.053 83.5215C200.072 83.5215 201.039 83.2578 201.953 82.7305C202.867 82.2031 203.529 81.5176 203.939 80.6738V76.7715H201.391C197.406 76.7715 195.414 77.9375 195.414 80.2695C195.414 81.2891 195.754 82.0859 196.434 82.6602C197.113 83.2344 197.986 83.5215 199.053 83.5215Z" fill="white"/>
<path d="M229.111 86.3516C226.533 86.3516 224.436 85.5078 222.818 83.8203C221.201 82.1211 220.393 79.8535 220.393 77.0176V76.4199C220.393 74.5332 220.75 72.8516 221.465 71.375C222.191 69.8867 223.199 68.7266 224.488 67.8945C225.789 67.0508 227.195 66.6289 228.707 66.6289C231.18 66.6289 233.102 67.4434 234.473 69.0723C235.844 70.7012 236.529 73.0332 236.529 76.0684V77.4219H223.645C223.691 79.2969 224.236 80.8145 225.279 81.9746C226.334 83.123 227.67 83.6973 229.287 83.6973C230.436 83.6973 231.408 83.4629 232.205 82.9941C233.002 82.5254 233.699 81.9043 234.297 81.1309L236.283 82.6777C234.689 85.127 232.299 86.3516 229.111 86.3516ZM228.707 69.3008C227.395 69.3008 226.293 69.7812 225.402 70.7422C224.512 71.6914 223.961 73.0273 223.75 74.75H233.277V74.5039C233.184 72.8516 232.738 71.5742 231.941 70.6719C231.145 69.7578 230.066 69.3008 228.707 69.3008Z" fill="white"/>
<path d="M243.842 86H240.59V59H243.842V86Z" fill="white"/>
<path d="M264.268 81.5879L268.979 66.9805H272.301L265.48 86H263.002L256.111 66.9805H259.434L264.268 81.5879Z" fill="white"/>
<path d="M286.891 86C286.703 85.625 286.551 84.957 286.434 83.9961C284.922 85.5664 283.117 86.3516 281.02 86.3516C279.145 86.3516 277.604 85.8242 276.396 84.7695C275.201 83.7031 274.604 82.3555 274.604 80.7266C274.604 78.7461 275.354 77.2109 276.854 76.1211C278.365 75.0195 280.486 74.4688 283.217 74.4688H286.381V72.9746C286.381 71.8379 286.041 70.9355 285.361 70.2676C284.682 69.5879 283.68 69.248 282.355 69.248C281.195 69.248 280.223 69.541 279.438 70.127C278.652 70.7129 278.26 71.4219 278.26 72.2539H274.99C274.99 71.3047 275.324 70.3906 275.992 69.5117C276.672 68.6211 277.586 67.918 278.734 67.4023C279.895 66.8867 281.166 66.6289 282.549 66.6289C284.74 66.6289 286.457 67.1797 287.699 68.2812C288.941 69.3711 289.586 70.877 289.633 72.7988V81.5527C289.633 83.2988 289.855 84.6875 290.301 85.7188V86H286.891ZM281.494 83.5215C282.514 83.5215 283.48 83.2578 284.395 82.7305C285.309 82.2031 285.971 81.5176 286.381 80.6738V76.7715H283.832C279.848 76.7715 277.855 77.9375 277.855 80.2695C277.855 81.2891 278.195 82.0859 278.875 82.6602C279.555 83.2344 280.428 83.5215 281.494 83.5215Z" fill="white"/>
<path d="M298.264 86H295.012V59H298.264V86Z" fill="white"/>
<path d="M302.623 76.3145C302.623 74.4512 302.986 72.7754 303.713 71.2871C304.451 69.7988 305.471 68.6504 306.771 67.8418C308.084 67.0332 309.578 66.6289 311.254 66.6289C313.844 66.6289 315.936 67.5254 317.529 69.3184C319.135 71.1113 319.938 73.4961 319.938 76.4727V76.7012C319.938 78.5527 319.58 80.2168 318.865 81.6934C318.162 83.1582 317.148 84.3008 315.824 85.1211C314.512 85.9414 313 86.3516 311.289 86.3516C308.711 86.3516 306.619 85.4551 305.014 83.6621C303.42 81.8691 302.623 79.4961 302.623 76.543V76.3145ZM305.893 76.7012C305.893 78.8105 306.379 80.5039 307.352 81.7812C308.336 83.0586 309.648 83.6973 311.289 83.6973C312.941 83.6973 314.254 83.0527 315.227 81.7637C316.199 80.4629 316.686 78.6465 316.686 76.3145C316.686 74.2285 316.188 72.541 315.191 71.252C314.207 69.9512 312.895 69.3008 311.254 69.3008C309.648 69.3008 308.354 69.9395 307.369 71.2168C306.385 72.4941 305.893 74.3223 305.893 76.7012Z" fill="white"/>
<path d="M333.209 69.8984C332.717 69.8164 332.184 69.7754 331.609 69.7754C329.477 69.7754 328.029 70.6836 327.268 72.5V86H324.016V66.9805H327.18L327.232 69.1777C328.299 67.4785 329.811 66.6289 331.768 66.6289C332.4 66.6289 332.881 66.7109 333.209 66.875V69.8984Z" fill="white"/>
<path d="M344.354 76.332C344.354 73.4141 345.045 71.0703 346.428 69.3008C347.811 67.5195 349.621 66.6289 351.859 66.6289C354.086 66.6289 355.85 67.3906 357.15 68.9141V59H360.402V86H357.414L357.256 83.9609C355.955 85.5547 354.145 86.3516 351.824 86.3516C349.621 86.3516 347.822 85.4492 346.428 83.6445C345.045 81.8398 344.354 79.4844 344.354 76.5781V76.332ZM347.605 76.7012C347.605 78.8574 348.051 80.5449 348.941 81.7637C349.832 82.9824 351.062 83.5918 352.633 83.5918C354.695 83.5918 356.201 82.666 357.15 80.8145V72.0781C356.178 70.2852 354.684 69.3887 352.668 69.3887C351.074 69.3887 349.832 70.0039 348.941 71.2344C348.051 72.4648 347.605 74.2871 347.605 76.7012Z" fill="white"/>
<path d="M373.357 86.3516C370.779 86.3516 368.682 85.5078 367.064 83.8203C365.447 82.1211 364.639 79.8535 364.639 77.0176V76.4199C364.639 74.5332 364.996 72.8516 365.711 71.375C366.438 69.8867 367.445 68.7266 368.734 67.8945C370.035 67.0508 371.441 66.6289 372.953 66.6289C375.426 66.6289 377.348 67.4434 378.719 69.0723C380.09 70.7012 380.775 73.0332 380.775 76.0684V77.4219H367.891C367.938 79.2969 368.482 80.8145 369.525 81.9746C370.58 83.123 371.916 83.6973 373.533 83.6973C374.682 83.6973 375.654 83.4629 376.451 82.9941C377.248 82.5254 377.945 81.9043 378.543 81.1309L380.529 82.6777C378.936 85.127 376.545 86.3516 373.357 86.3516ZM372.953 69.3008C371.641 69.3008 370.539 69.7812 369.648 70.7422C368.758 71.6914 368.207 73.0273 367.996 74.75H377.523V74.5039C377.43 72.8516 376.984 71.5742 376.188 70.6719C375.391 69.7578 374.312 69.3008 372.953 69.3008Z" fill="white"/>
<path d="M395.945 76.3672L400.48 83.3457H398.002L392.816 76.5254V76.1914L398.002 69.3535H400.48L395.945 76.3672ZM401.746 76.3672L406.281 83.3457H403.803L398.617 76.5254V76.1914L403.803 69.3535H406.281L401.746 76.3672Z" fill="white"/>
<path d="M416.775 73.9238L420.994 66.9805H424.791L418.568 76.3848L424.984 86H421.223L416.828 78.8809L412.434 86H408.654L415.07 76.3848L408.848 66.9805H412.609L416.775 73.9238Z" fill="white"/>
<path d="M430.082 69.3184L435.268 76.1562V76.4902L430.082 83.3281H427.586L432.121 76.332L427.586 69.3184H430.082ZM436.217 69.3184L441.402 76.1562V76.4902L436.217 83.3281H433.721L438.256 76.332L433.721 69.3184H436.217Z" fill="white"/>
<path d="M445.199 84.2949C445.199 83.7324 445.363 83.2637 445.691 82.8887C446.031 82.5137 446.535 82.3262 447.203 82.3262C447.871 82.3262 448.375 82.5137 448.715 82.8887C449.066 83.2637 449.242 83.7324 449.242 84.2949C449.242 84.834 449.066 85.2852 448.715 85.6484C448.375 86.0117 447.871 86.1934 447.203 86.1934C446.535 86.1934 446.031 86.0117 445.691 85.6484C445.363 85.2852 445.199 84.834 445.199 84.2949Z" fill="white"/>
</g>
<g id="2 3 4 5 3 2 4 5 x">
<path d="M372.146 159H350.718V156.013L362.038 143.435C363.715 141.533 364.868 139.991 365.497 138.808C366.141 137.61 366.463 136.374 366.463 135.102C366.463 133.395 365.946 131.994 364.913 130.901C363.88 129.808 362.502 129.262 360.78 129.262C358.714 129.262 357.104 129.853 355.951 131.036C354.813 132.204 354.244 133.836 354.244 135.933H350.089C350.089 132.923 351.055 130.49 352.986 128.633C354.933 126.776 357.531 125.848 360.78 125.848C363.82 125.848 366.223 126.649 367.99 128.251C369.757 129.838 370.641 131.957 370.641 134.607C370.641 137.827 368.589 141.66 364.486 146.107L355.727 155.608H372.146V159Z" fill="white"/>
<path d="M462.461 140.627H465.583C467.545 140.597 469.087 140.08 470.21 139.077C471.333 138.074 471.895 136.719 471.895 135.012C471.895 131.178 469.985 129.262 466.167 129.262C464.37 129.262 462.933 129.778 461.854 130.812C460.791 131.83 460.26 133.185 460.26 134.877H456.104C456.104 132.286 457.048 130.138 458.935 128.431C460.836 126.709 463.247 125.848 466.167 125.848C469.252 125.848 471.67 126.664 473.422 128.296C475.174 129.928 476.05 132.197 476.05 135.102C476.05 136.524 475.586 137.902 474.657 139.234C473.744 140.567 472.493 141.563 470.906 142.222C472.703 142.791 474.088 143.734 475.062 145.052C476.05 146.369 476.544 147.979 476.544 149.881C476.544 152.816 475.586 155.144 473.669 156.866C471.752 158.588 469.259 159.449 466.189 159.449C463.12 159.449 460.619 158.618 458.688 156.956C456.771 155.294 455.812 153.1 455.812 150.375H459.99C459.99 152.097 460.552 153.475 461.675 154.508C462.798 155.541 464.303 156.058 466.189 156.058C468.196 156.058 469.731 155.534 470.794 154.485C471.857 153.437 472.389 151.932 472.389 149.971C472.389 148.069 471.805 146.609 470.637 145.591C469.469 144.573 467.784 144.049 465.583 144.019H462.461V140.627Z" fill="white"/>
<path d="M591.072 148.017H595.609V151.408H591.072V159H586.895V151.408H572.003V148.96L586.647 126.297H591.072V148.017ZM576.72 148.017H586.895V131.979L586.4 132.878L576.72 148.017Z" fill="white"/>
<path d="M352.627 219.604L354.289 203.297H371.045V207.138H357.815L356.827 216.055C358.429 215.111 360.249 214.64 362.285 214.64C365.265 214.64 367.631 215.628 369.383 217.604C371.135 219.566 372.011 222.224 372.011 225.578C372.011 228.947 371.097 231.605 369.271 233.552C367.459 235.483 364.921 236.449 361.656 236.449C358.766 236.449 356.408 235.648 354.581 234.046C352.754 232.444 351.714 230.228 351.459 227.397H355.39C355.644 229.269 356.311 230.684 357.389 231.643C358.467 232.586 359.889 233.058 361.656 233.058C363.588 233.058 365.1 232.399 366.193 231.081C367.301 229.763 367.855 227.944 367.855 225.623C367.855 223.437 367.257 221.685 366.059 220.367C364.876 219.035 363.296 218.368 361.319 218.368C359.507 218.368 358.085 218.765 357.052 219.559L355.951 220.457L352.627 219.604Z" fill="white"/>
<path d="M462.461 217.627H465.583C467.545 217.597 469.087 217.08 470.21 216.077C471.333 215.074 471.895 213.719 471.895 212.012C471.895 208.178 469.985 206.262 466.167 206.262C464.37 206.262 462.933 206.778 461.854 207.812C460.791 208.83 460.26 210.185 460.26 211.877H456.104C456.104 209.286 457.048 207.138 458.935 205.431C460.836 203.709 463.247 202.848 466.167 202.848C469.252 202.848 471.67 203.664 473.422 205.296C475.174 206.928 476.05 209.197 476.05 212.102C476.05 213.524 475.586 214.902 474.657 216.234C473.744 217.567 472.493 218.563 470.906 219.222C472.703 219.791 474.088 220.734 475.062 222.052C476.05 223.369 476.544 224.979 476.544 226.881C476.544 229.816 475.586 232.144 473.669 233.866C471.752 235.588 469.259 236.449 466.189 236.449C463.12 236.449 460.619 235.618 458.688 233.956C456.771 232.294 455.812 230.1 455.812 227.375H459.99C459.99 229.097 460.552 230.475 461.675 231.508C462.798 232.541 464.303 233.058 466.189 233.058C468.196 233.058 469.731 232.534 470.794 231.485C471.857 230.437 472.389 228.932 472.389 226.971C472.389 225.069 471.805 223.609 470.637 222.591C469.469 221.573 467.784 221.049 465.583 221.019H462.461V217.627Z" fill="white"/>
<path d="M594.958 236H573.53V233.013L584.851 220.435C586.528 218.533 587.681 216.991 588.31 215.808C588.953 214.61 589.275 213.374 589.275 212.102C589.275 210.395 588.759 208.994 587.726 207.901C586.692 206.808 585.315 206.262 583.593 206.262C581.526 206.262 579.917 206.853 578.764 208.036C577.626 209.204 577.057 210.836 577.057 212.933H572.901C572.901 209.923 573.867 207.49 575.799 205.633C577.745 203.776 580.343 202.848 583.593 202.848C586.632 202.848 589.036 203.649 590.803 205.251C592.57 206.838 593.453 208.957 593.453 211.607C593.453 214.827 591.402 218.66 587.299 223.107L578.539 232.608H594.958V236Z" fill="white"/>
<path d="M368.26 302.017H372.797V305.408H368.26V313H364.082V305.408H349.19V302.96L363.835 280.297H368.26V302.017ZM353.907 302.017H364.082V285.979L363.588 286.878L353.907 302.017Z" fill="white"/>
<path d="M458.328 296.604L459.99 280.297H476.746V284.138H463.517L462.528 293.055C464.131 292.111 465.95 291.64 467.986 291.64C470.966 291.64 473.332 292.628 475.084 294.604C476.836 296.566 477.712 299.224 477.712 302.578C477.712 305.947 476.799 308.605 474.972 310.552C473.16 312.483 470.622 313.449 467.357 313.449C464.467 313.449 462.109 312.648 460.282 311.046C458.455 309.444 457.415 307.228 457.16 304.397H461.091C461.345 306.269 462.012 307.684 463.09 308.643C464.168 309.586 465.59 310.058 467.357 310.058C469.289 310.058 470.801 309.399 471.895 308.081C473.003 306.763 473.557 304.944 473.557 302.623C473.557 300.437 472.958 298.685 471.76 297.367C470.577 296.035 468.997 295.368 467.021 295.368C465.209 295.368 463.786 295.765 462.753 296.559L461.652 297.457L458.328 296.604Z" fill="white"/>
<path d="M593.521 297.569L598.911 288.697H603.763L595.812 300.714L604.01 313H599.203L593.588 303.903L587.973 313H583.144L591.342 300.714L583.391 288.697H588.197L593.521 297.569Z" fill="white"/>
</g>
<g id="flecha">
<path id="Rectangle 2" d="M58.2001 520.008L73.4819 528.133L31.5003 607.089L16.2185 598.963L58.2001 520.008Z" fill="#1043F5"/>
<path id="Rectangle 1_2" d="M0 532.904L90 483V540.692L45 523.096L0 532.904Z" fill="#1043F5"/>
<path id="Rectangle 3" d="M4.03845 602.21L19.6656 575.143L36.9362 574.565L21.3091 601.632L4.03845 602.21Z" fill="#1043F5"/>
<path id="Rectangle 4_2" d="M30.0894 616.845L45.7166 589.778L36.9258 574.154L21.2987 601.221L30.0894 616.845Z" fill="#1043F5"/>
</g>
</g>
</svg>
