<svg viewBox="0 0 975 653" fill="none" xmlns="http://www.w3.org/2000/svg">
<g id="0119103">
<g id="Group 8">
<path id="Rectangle 1" d="M52 55.6566C52 26.6582 73.3794 3.15034 99.7522 3.15034H923V366.494C923 395.492 901.62 419 875.247 419H52V55.6566Z" fill="#02071A"/>
<path id="Rectangle 1 (Stroke)" fill-rule="evenodd" clip-rule="evenodd" d="M918.224 8.40097H99.7522C76.0167 8.40097 56.7752 29.558 56.7752 55.6566V413.749H875.247C898.983 413.749 918.224 392.592 918.224 366.494V8.40097ZM99.7522 3.15034C73.3794 3.15034 52 26.6582 52 55.6566V419H875.247C901.62 419 923 395.492 923 366.494V3.15034H99.7522Z" fill="#CD08D1"/>
<path id="Rectangle 14" d="M103.716 3.22643C129.256 -4.03303 923 3.22643 923 3.22643V34.6541C923 34.6541 90.2017 23.1028 60.5954 34.6541C69.8075 17.9853 78.1754 10.4859 103.716 3.22643Z" fill="#CD08D1"/>
<path id="Rectangle 15" d="M894.349 3.15034H923V367.544C919.483 392.272 912.194 401.361 894.349 413.224C899.601 393.797 894.349 3.15034 894.349 3.15034Z" fill="#CD08D1"/>
</g>
<g id="Group 16">
<g id="Group 13">
<g id="Group 12">
<path id="Ellipse 11 (Stroke)" fill-rule="evenodd" clip-rule="evenodd" d="M292 188C311.33 188 327 172.33 327 153C327 133.67 311.33 118 292 118C272.67 118 257 133.67 257 153C257 172.33 272.67 188 292 188ZM292 193C314.091 193 332 175.091 332 153C332 130.909 314.091 113 292 113C269.909 113 252 130.909 252 153C252 175.091 269.909 193 292 193Z" fill="#1043F5"/>
<path id="Line 1 (Stroke)" fill-rule="evenodd" clip-rule="evenodd" d="M292 367V193H297V367H292Z" fill="#1043F5"/>
<path id="Line 2 (Stroke)" fill-rule="evenodd" clip-rule="evenodd" d="M259 384.922L291.735 362L294.603 366.096L261.868 389.017L259 384.922Z" fill="#1043F5"/>
<path id="Line 3 (Stroke)" fill-rule="evenodd" clip-rule="evenodd" d="M296 362L328.735 384.922L325.867 389.017L293.132 366.096L296 362Z" fill="#1043F5"/>
<path id="Line 4 (Stroke)" fill-rule="evenodd" clip-rule="evenodd" d="M347 245H245V240H347V245Z" fill="#1043F5"/>
</g>
<path id="2" d="M303.146 167H281.718V164.013L293.038 151.435C294.715 149.533 295.868 147.991 296.497 146.808C297.141 145.61 297.463 144.374 297.463 143.102C297.463 141.395 296.946 139.994 295.913 138.901C294.88 137.808 293.502 137.262 291.78 137.262C289.714 137.262 288.104 137.853 286.951 139.036C285.813 140.204 285.244 141.836 285.244 143.933H281.089C281.089 140.923 282.055 138.49 283.986 136.633C285.933 134.776 288.531 133.848 291.78 133.848C294.82 133.848 297.223 134.649 298.99 136.251C300.757 137.838 301.641 139.957 301.641 142.607C301.641 145.827 299.589 149.66 295.486 154.107L286.727 163.608H303.146V167Z" fill="white"/>
<path id="3" d="M215.76 238.627H218.882C220.843 238.597 222.386 238.08 223.509 237.077C224.632 236.074 225.193 234.719 225.193 233.012C225.193 229.178 223.284 227.262 219.466 227.262C217.669 227.262 216.231 227.778 215.153 228.812C214.09 229.83 213.559 231.185 213.559 232.877H209.403C209.403 230.286 210.347 228.138 212.233 226.431C214.135 224.709 216.546 223.848 219.466 223.848C222.55 223.848 224.969 224.664 226.721 226.296C228.473 227.928 229.349 230.197 229.349 233.102C229.349 234.524 228.884 235.902 227.956 237.234C227.043 238.567 225.792 239.563 224.205 240.222C226.002 240.791 227.387 241.734 228.36 243.052C229.349 244.369 229.843 245.979 229.843 247.881C229.843 250.816 228.884 253.144 226.968 254.866C225.051 256.588 222.558 257.449 219.488 257.449C216.419 257.449 213.918 256.618 211.986 254.956C210.07 253.294 209.111 251.1 209.111 248.375H213.289C213.289 250.097 213.851 251.475 214.974 252.508C216.097 253.541 217.602 254.058 219.488 254.058C221.495 254.058 223.03 253.534 224.093 252.485C225.156 251.437 225.688 249.932 225.688 247.971C225.688 246.069 225.104 244.609 223.936 243.591C222.768 242.573 221.083 242.049 218.882 242.019H215.76V238.627Z" fill="white"/>
<path id="4" d="M372.26 249.017H376.797V252.408H372.26V260H368.082V252.408H353.19V249.96L367.835 227.297H372.26V249.017ZM357.907 249.017H368.082V232.979L367.588 233.878L357.907 249.017Z" fill="white"/>
<path id="5" d="M224.627 379.604L226.289 363.297H243.045V367.138H229.815L228.827 376.055C230.429 375.111 232.249 374.64 234.285 374.64C237.265 374.64 239.631 375.628 241.383 377.604C243.135 379.566 244.011 382.224 244.011 385.578C244.011 388.947 243.097 391.605 241.271 393.552C239.459 395.483 236.921 396.449 233.656 396.449C230.766 396.449 228.408 395.648 226.581 394.046C224.754 392.444 223.714 390.228 223.459 387.397H227.39C227.644 389.269 228.311 390.684 229.389 391.643C230.467 392.586 231.889 393.058 233.656 393.058C235.588 393.058 237.1 392.399 238.193 391.081C239.301 389.763 239.855 387.944 239.855 385.623C239.855 383.437 239.257 381.685 238.059 380.367C236.876 379.035 235.296 378.368 233.319 378.368C231.507 378.368 230.085 378.765 229.052 379.559L227.951 380.457L224.627 379.604Z" fill="white"/>
<path id="2_2" d="M363.146 396H341.718V393.013L353.038 380.435C354.715 378.533 355.868 376.991 356.497 375.808C357.141 374.61 357.463 373.374 357.463 372.102C357.463 370.395 356.946 368.994 355.913 367.901C354.88 366.808 353.502 366.262 351.78 366.262C349.714 366.262 348.104 366.853 346.951 368.036C345.813 369.204 345.244 370.836 345.244 372.933H341.089C341.089 369.923 342.055 367.49 343.986 365.633C345.933 363.776 348.531 362.848 351.78 362.848C354.82 362.848 357.223 363.649 358.99 365.251C360.757 366.838 361.641 368.957 361.641 371.607C361.641 374.827 359.589 378.66 355.486 383.107L346.727 392.608H363.146V396Z" fill="white"/>
</g>
<g id="Group 14">
<g id="Group 12_2">
<path id="Ellipse 11 (Stroke)_2" fill-rule="evenodd" clip-rule="evenodd" d="M481 188C500.33 188 516 172.33 516 153C516 133.67 500.33 118 481 118C461.67 118 446 133.67 446 153C446 172.33 461.67 188 481 188ZM481 193C503.091 193 521 175.091 521 153C521 130.909 503.091 113 481 113C458.909 113 441 130.909 441 153C441 175.091 458.909 193 481 193Z" fill="#13EBF9"/>
<path id="Line 1 (Stroke)_2" fill-rule="evenodd" clip-rule="evenodd" d="M481 367V193H486V367H481Z" fill="#13EBF9"/>
<path id="Line 2 (Stroke)_2" fill-rule="evenodd" clip-rule="evenodd" d="M448 384.922L480.735 362L483.603 366.096L450.868 389.017L448 384.922Z" fill="#13EBF9"/>
<path id="Line 3 (Stroke)_2" fill-rule="evenodd" clip-rule="evenodd" d="M485 362L517.735 384.922L514.867 389.017L482.132 366.096L485 362Z" fill="#13EBF9"/>
<path id="Line 4 (Stroke)_2" fill-rule="evenodd" clip-rule="evenodd" d="M536 245H434V240H536V245Z" fill="#13EBF9"/>
</g>
<g id="12">
<path d="M471.374 167H467.196V139.306L458.818 142.383V138.609L470.723 134.14H471.374V167Z" fill="white"/>
<path d="M504.976 167H483.548V164.013L494.868 151.435C496.545 149.533 497.698 147.991 498.327 146.808C498.971 145.61 499.293 144.374 499.293 143.102C499.293 141.395 498.776 139.994 497.743 138.901C496.71 137.808 495.332 137.262 493.61 137.262C491.544 137.262 489.934 137.853 488.781 139.036C487.643 140.204 487.074 141.836 487.074 143.933H482.919C482.919 140.923 483.885 138.49 485.816 136.633C487.763 134.776 490.361 133.848 493.61 133.848C496.65 133.848 499.053 134.649 500.82 136.251C502.587 137.838 503.471 139.957 503.471 142.607C503.471 145.827 501.419 149.66 497.316 154.107L488.557 163.608H504.976V167Z" fill="white"/>
</g>
<path id="5_2" d="M400.627 240.604L402.289 224.297H419.045V228.138H405.815L404.827 237.055C406.429 236.111 408.249 235.64 410.285 235.64C413.265 235.64 415.631 236.628 417.383 238.604C419.135 240.566 420.011 243.224 420.011 246.578C420.011 249.947 419.097 252.605 417.271 254.552C415.459 256.483 412.921 257.449 409.656 257.449C406.766 257.449 404.408 256.648 402.581 255.046C400.754 253.444 399.714 251.228 399.459 248.397H403.39C403.644 250.269 404.311 251.684 405.389 252.643C406.467 253.586 407.889 254.058 409.656 254.058C411.588 254.058 413.1 253.399 414.193 252.081C415.301 250.763 415.855 248.944 415.855 246.623C415.855 244.437 415.257 242.685 414.059 241.367C412.876 240.035 411.296 239.368 409.319 239.368C407.507 239.368 406.085 239.765 405.052 240.559L403.951 241.457L400.627 240.604Z" fill="white"/>
<path id="4_2" d="M561.26 249.017H565.797V252.408H561.26V260H557.082V252.408H542.19V249.96L556.835 227.297H561.26V249.017ZM546.907 249.017H557.082V232.979L556.588 233.878L546.907 249.017Z" fill="white"/>
<path id="4_3" d="M429.26 385.017H433.797V388.408H429.26V396H425.082V388.408H410.19V385.96L424.835 363.297H429.26V385.017ZM414.907 385.017H425.082V368.979L424.588 369.878L414.907 385.017Z" fill="white"/>
<path id="2_3" d="M552.146 396H530.718V393.013L542.038 380.435C543.715 378.533 544.868 376.991 545.497 375.808C546.141 374.61 546.463 373.374 546.463 372.102C546.463 370.395 545.946 368.994 544.913 367.901C543.88 366.808 542.502 366.262 540.78 366.262C538.714 366.262 537.104 366.853 535.951 368.036C534.813 369.204 534.244 370.836 534.244 372.933H530.089C530.089 369.923 531.055 367.49 532.986 365.633C534.933 363.776 537.531 362.848 540.78 362.848C543.82 362.848 546.223 363.649 547.99 365.251C549.757 366.838 550.641 368.957 550.641 371.607C550.641 374.827 548.589 378.66 544.486 383.107L535.727 392.608H552.146V396Z" fill="white"/>
</g>
<g id="Group 15">
<g id="Group 12_3">
<path id="Ellipse 11 (Stroke)_3" fill-rule="evenodd" clip-rule="evenodd" d="M684 188C703.33 188 719 172.33 719 153C719 133.67 703.33 118 684 118C664.67 118 649 133.67 649 153C649 172.33 664.67 188 684 188ZM684 193C706.091 193 724 175.091 724 153C724 130.909 706.091 113 684 113C661.909 113 644 130.909 644 153C644 175.091 661.909 193 684 193Z" fill="#2CF30B"/>
<path id="Line 1 (Stroke)_3" fill-rule="evenodd" clip-rule="evenodd" d="M684 367V193H689V367H684Z" fill="#2CF30B"/>
<path id="Line 2 (Stroke)_3" fill-rule="evenodd" clip-rule="evenodd" d="M651 384.922L683.735 362L686.603 366.096L653.868 389.017L651 384.922Z" fill="#2CF30B"/>
<path id="Line 3 (Stroke)_3" fill-rule="evenodd" clip-rule="evenodd" d="M688 362L720.735 384.922L717.867 389.017L685.132 366.096L688 362Z" fill="#2CF30B"/>
<path id="Line 4 (Stroke)_3" fill-rule="evenodd" clip-rule="evenodd" d="M739 245H637V240H739V245Z" fill="#2CF30B"/>
</g>
<path id="x" d="M682.298 151.569L687.688 142.697H692.54L684.589 154.714L692.787 167H687.98L682.365 157.903L676.75 167H671.921L680.119 154.714L672.168 142.697H676.975L682.298 151.569Z" fill="white"/>
<path id="5_3" d="M603.627 240.604L605.289 224.297H622.045V228.138H608.815L607.827 237.055C609.429 236.111 611.249 235.64 613.285 235.64C616.265 235.64 618.631 236.628 620.383 238.604C622.135 240.566 623.011 243.224 623.011 246.578C623.011 249.947 622.097 252.605 620.271 254.552C618.459 256.483 615.921 257.449 612.656 257.449C609.766 257.449 607.408 256.648 605.581 255.046C603.754 253.444 602.714 251.228 602.459 248.397H606.39C606.644 250.269 607.311 251.684 608.389 252.643C609.467 253.586 610.889 254.058 612.656 254.058C614.588 254.058 616.1 253.399 617.193 252.081C618.301 250.763 618.855 248.944 618.855 246.623C618.855 244.437 618.257 242.685 617.059 241.367C615.876 240.035 614.296 239.368 612.319 239.368C610.507 239.368 609.085 239.765 608.052 240.559L606.951 241.457L603.627 240.604Z" fill="white"/>
<path id="3_2" d="M752.76 241.627H755.882C757.843 241.597 759.386 241.08 760.509 240.077C761.632 239.074 762.193 237.719 762.193 236.012C762.193 232.178 760.284 230.262 756.466 230.262C754.669 230.262 753.231 230.778 752.153 231.812C751.09 232.83 750.559 234.185 750.559 235.877H746.403C746.403 233.286 747.347 231.138 749.233 229.431C751.135 227.709 753.546 226.848 756.466 226.848C759.55 226.848 761.969 227.664 763.721 229.296C765.473 230.928 766.349 233.197 766.349 236.102C766.349 237.524 765.884 238.902 764.956 240.234C764.043 241.567 762.792 242.563 761.205 243.222C763.002 243.791 764.387 244.734 765.36 246.052C766.349 247.369 766.843 248.979 766.843 250.881C766.843 253.816 765.884 256.144 763.968 257.866C762.051 259.588 759.558 260.449 756.488 260.449C753.419 260.449 750.918 259.618 748.986 257.956C747.07 256.294 746.111 254.1 746.111 251.375H750.289C750.289 253.097 750.851 254.475 751.974 255.508C753.097 256.541 754.602 257.058 756.488 257.058C758.495 257.058 760.03 256.534 761.093 255.485C762.156 254.437 762.688 252.932 762.688 250.971C762.688 249.069 762.104 247.609 760.936 246.591C759.768 245.573 758.083 245.049 755.882 245.019H752.76V241.627Z" fill="white"/>
<path id="2_4" d="M636.146 396H614.718V393.013L626.038 380.435C627.715 378.533 628.868 376.991 629.497 375.808C630.141 374.61 630.463 373.374 630.463 372.102C630.463 370.395 629.946 368.994 628.913 367.901C627.88 366.808 626.502 366.262 624.78 366.262C622.714 366.262 621.104 366.853 619.951 368.036C618.813 369.204 618.244 370.836 618.244 372.933H614.089C614.089 369.923 615.055 367.49 616.986 365.633C618.933 363.776 621.531 362.848 624.78 362.848C627.82 362.848 630.223 363.649 631.99 365.251C633.757 366.838 634.641 368.957 634.641 371.607C634.641 374.827 632.589 378.66 628.486 383.107L619.727 392.608H636.146V396Z" fill="white"/>
<path id="4_4" d="M751.26 385.017H755.797V388.408H751.26V396H747.082V388.408H732.19V385.96L746.835 363.297H751.26V385.017ZM736.907 385.017H747.082V368.979L746.588 369.878L736.907 385.017Z" fill="white"/>
</g>
</g>
<g id="claves01">
<path id="Rectangle 4" d="M39 436H255.745L289 476L255.745 516H39V436Z" fill="#CD08D1" fill-opacity="0.1"/>
<path id="Rectangle 4 (Stroke)" fill-rule="evenodd" clip-rule="evenodd" d="M254.338 439H42V513H254.338L285.099 476L254.338 439ZM255.745 436H39V516H255.745L289 476L255.745 436Z" fill="#CD08D1"/>
<path id="Rectangle 5" d="M43 546H259.745L293 586L259.745 626H43V546Z" fill="#CD08D1" fill-opacity="0.1"/>
<path id="Rectangle 5 (Stroke)" fill-rule="evenodd" clip-rule="evenodd" d="M258.338 549H46V623H258.338L289.099 586L258.338 549ZM259.745 546H43V626H259.745L293 586L259.745 546Z" fill="#CD08D1"/>
<path id="Rectangle 6" d="M379 433H595.745L629 473L595.745 513H379V433Z" fill="#CD08D1" fill-opacity="0.1"/>
<path id="Rectangle 6 (Stroke)" fill-rule="evenodd" clip-rule="evenodd" d="M594.338 436H382V510H594.338L625.099 473L594.338 436ZM595.745 433H379V513H595.745L629 473L595.745 433Z" fill="#CD08D1"/>
<path id="Rectangle 7" d="M382 543H598.745L632 583L598.745 623H382V543Z" fill="#CD08D1" fill-opacity="0.1"/>
<path id="Rectangle 7 (Stroke)" fill-rule="evenodd" clip-rule="evenodd" d="M597.338 546H385V620H597.338L628.099 583L597.338 546ZM598.745 543H382V623H598.745L632 583L598.745 543Z" fill="#CD08D1"/>
<path id="Rectangle 8" d="M725 492H941.745L975 532L941.745 572H725V492Z" fill="#CD08D1" fill-opacity="0.1"/>
<path id="Rectangle 8 (Stroke)" fill-rule="evenodd" clip-rule="evenodd" d="M940.338 495H728V569H940.338L971.099 532L940.338 495ZM941.745 492H725V572H941.745L975 532L941.745 492Z" fill="#CD08D1"/>
<path id="Ellipse 1" d="M80 476C80 498.091 62.0914 516 40 516C17.9086 516 0 498.091 0 476C0 453.909 17.9086 436 40 436C62.0914 436 80 453.909 80 476Z" fill="#CD08D1"/>
<path id="Ellipse 2" d="M84 586C84 608.091 66.0914 626 44 626C21.9086 626 4 608.091 4 586C4 563.909 21.9086 546 44 546C66.0914 546 84 563.909 84 586Z" fill="#CD08D1"/>
<path id="Ellipse 3" d="M420 473C420 495.091 402.091 513 380 513C357.909 513 340 495.091 340 473C340 450.909 357.909 433 380 433C402.091 433 420 450.909 420 473Z" fill="#CD08D1"/>
<path id="Ellipse 4" d="M423 583C423 605.091 405.091 623 383 623C360.909 623 343 605.091 343 583C343 560.909 360.909 543 383 543C405.091 543 423 560.909 423 583Z" fill="#CD08D1"/>
<path id="Ellipse 5" d="M766 532C766 554.091 748.091 572 726 572C703.909 572 686 554.091 686 532C686 509.909 703.909 492 726 492C748.091 492 766 509.909 766 532Z" fill="#CD08D1"/>
<path id="A" d="M48.0938 486.406H30.4688L26.7812 497H18.5625L35.75 451.5H42.8438L60.0625 497H51.8125L48.0938 486.406ZM32.6875 480.031H45.875L39.2812 461.156L32.6875 480.031Z" fill="white"/>
<path id="B" d="M27.625 602V556.5H43.2188C48.3646 556.5 52.2812 557.531 54.9688 559.594C57.6562 561.656 59 564.729 59 568.812C59 570.896 58.4375 572.771 57.3125 574.438C56.1875 576.104 54.5417 577.396 52.375 578.312C54.8333 578.979 56.7292 580.24 58.0625 582.094C59.4167 583.927 60.0938 586.135 60.0938 588.719C60.0938 592.99 58.7188 596.271 55.9688 598.562C53.2396 600.854 49.3229 602 44.2188 602H27.625ZM35.5312 581.469V595.688H44.3125C46.7917 595.688 48.7292 595.073 50.125 593.844C51.5208 592.615 52.2188 590.906 52.2188 588.719C52.2188 583.99 49.8021 581.573 44.9688 581.469H35.5312ZM35.5312 575.656H43.2812C45.7396 575.656 47.6562 575.104 49.0312 574C50.4271 572.875 51.125 571.292 51.125 569.25C51.125 567 50.4792 565.375 49.1875 564.375C47.9167 563.375 45.9271 562.875 43.2188 562.875H35.5312V575.656Z" fill="white"/>
<path id="C" d="M397.344 480.188C396.885 485.042 395.094 488.833 391.969 491.562C388.844 494.271 384.688 495.625 379.5 495.625C375.875 495.625 372.677 494.771 369.906 493.062C367.156 491.333 365.031 488.885 363.531 485.719C362.031 482.552 361.25 478.875 361.188 474.688V470.438C361.188 466.146 361.948 462.365 363.469 459.094C364.99 455.823 367.167 453.302 370 451.531C372.854 449.76 376.146 448.875 379.875 448.875C384.896 448.875 388.938 450.24 392 452.969C395.062 455.698 396.844 459.552 397.344 464.531H389.469C389.094 461.26 388.135 458.906 386.594 457.469C385.073 456.01 382.833 455.281 379.875 455.281C376.438 455.281 373.792 456.542 371.938 459.062C370.104 461.562 369.167 465.24 369.125 470.094V474.125C369.125 479.042 370 482.792 371.75 485.375C373.521 487.958 376.104 489.25 379.5 489.25C382.604 489.25 384.938 488.552 386.5 487.156C388.062 485.76 389.052 483.438 389.469 480.188H397.344Z" fill="white"/>
<path id="D" d="M365.625 605V559.5H379.062C383.083 559.5 386.646 560.396 389.75 562.188C392.875 563.979 395.292 566.521 397 569.812C398.708 573.104 399.562 576.875 399.562 581.125V583.406C399.562 587.719 398.698 591.51 396.969 594.781C395.26 598.052 392.812 600.573 389.625 602.344C386.458 604.115 382.823 605 378.719 605H365.625ZM373.531 565.875V598.688H378.688C382.833 598.688 386.01 597.396 388.219 594.812C390.448 592.208 391.583 588.479 391.625 583.625V581.094C391.625 576.156 390.552 572.385 388.406 569.781C386.26 567.177 383.146 565.875 379.062 565.875H373.531Z" fill="white"/>
<path id="E" d="M735.219 533.688H716.531V547.688H738.375V554H708.625V508.5H738.156V514.875H716.531V527.438H735.219V533.688Z" fill="white"/>
<path id="4_5" d="M139.093 479.356H142.805V483.355H139.093V490H134.109V483.355H121.21L121.066 480.32L133.945 460.141H139.093V479.356ZM126.296 479.356H134.109V466.888L133.74 467.544L126.296 479.356Z" fill="#CD08D1"/>
<path id="5_4" d="M123.568 590.193L125.188 575.141H141.226V579.447H129.331L128.511 586.584C129.892 585.791 131.45 585.395 133.187 585.395C136.03 585.395 138.238 586.304 139.811 588.122C141.396 589.94 142.189 592.388 142.189 595.464C142.189 598.499 141.314 600.919 139.564 602.724C137.814 604.515 135.415 605.41 132.366 605.41C129.632 605.41 127.362 604.638 125.558 603.093C123.767 601.534 122.796 599.483 122.646 596.94H127.465C127.656 598.39 128.176 599.504 129.023 600.283C129.871 601.049 130.979 601.432 132.346 601.432C133.877 601.432 135.066 600.885 135.914 599.791C136.775 598.697 137.206 597.207 137.206 595.32C137.206 593.502 136.734 592.066 135.791 591.014C134.848 589.947 133.549 589.414 131.895 589.414C130.992 589.414 130.227 589.537 129.598 589.783C128.969 590.016 128.285 590.48 127.547 591.178L123.568 590.193Z" fill="#CD08D1"/>
<path id="6" d="M493.739 456.997V461.119H493.124C490.335 461.16 488.106 461.926 486.438 463.416C484.771 464.906 483.779 467.019 483.465 469.753C485.064 468.071 487.108 467.23 489.597 467.23C492.235 467.23 494.313 468.16 495.831 470.02C497.362 471.879 498.128 474.278 498.128 477.218C498.128 480.253 497.232 482.714 495.441 484.601C493.664 486.474 491.326 487.41 488.428 487.41C485.447 487.41 483.027 486.31 481.168 484.108C479.322 481.907 478.399 479.022 478.399 475.454V473.752C478.399 468.516 479.671 464.414 482.214 461.447C484.771 458.48 488.441 456.997 493.227 456.997H493.739ZM488.387 471.25C487.293 471.25 486.288 471.558 485.372 472.173C484.47 472.788 483.807 473.608 483.383 474.634V476.151C483.383 478.366 483.848 480.13 484.777 481.442C485.707 482.741 486.91 483.391 488.387 483.391C489.863 483.391 491.032 482.837 491.894 481.729C492.755 480.622 493.186 479.166 493.186 477.361C493.186 475.557 492.748 474.087 491.873 472.952C490.998 471.817 489.836 471.25 488.387 471.25Z" fill="#CD08D1"/>
<path id="7" d="M498.107 568.909L486.172 596H480.942L492.857 570.14H477.415V566.141H498.107V568.909Z" fill="#CD08D1"/>
<path id="8" d="M843.041 528.016C843.041 529.479 842.665 530.784 841.913 531.933C841.161 533.067 840.136 533.963 838.837 534.619C840.396 535.344 841.592 536.335 842.426 537.593C843.273 538.851 843.697 540.272 843.697 541.858C843.697 544.483 842.809 546.568 841.031 548.113C839.254 549.645 836.889 550.41 833.936 550.41C830.969 550.41 828.59 549.638 826.799 548.093C825.021 546.548 824.133 544.47 824.133 541.858C824.133 540.259 824.557 538.823 825.404 537.552C826.252 536.28 827.441 535.303 828.973 534.619C827.688 533.963 826.669 533.067 825.917 531.933C825.179 530.784 824.81 529.479 824.81 528.016C824.81 525.473 825.63 523.456 827.271 521.966C828.911 520.476 831.126 519.73 833.915 519.73C836.718 519.73 838.939 520.476 840.58 521.966C842.221 523.456 843.041 525.473 843.041 528.016ZM838.714 541.612C838.714 540.136 838.27 538.946 837.381 538.044C836.506 537.128 835.344 536.67 833.895 536.67C832.445 536.67 831.283 537.121 830.408 538.023C829.547 538.926 829.116 540.122 829.116 541.612C829.116 543.075 829.54 544.244 830.388 545.119C831.249 545.994 832.432 546.432 833.936 546.432C835.439 546.432 836.608 546.008 837.442 545.16C838.29 544.312 838.714 543.13 838.714 541.612ZM838.078 528.2C838.078 526.901 837.702 525.835 836.95 525.001C836.198 524.153 835.187 523.729 833.915 523.729C832.644 523.729 831.639 524.133 830.9 524.939C830.162 525.732 829.793 526.819 829.793 528.2C829.793 529.567 830.162 530.654 830.9 531.461C831.652 532.268 832.664 532.671 833.936 532.671C835.207 532.671 836.212 532.268 836.95 531.461C837.702 530.654 838.078 529.567 838.078 528.2Z" fill="#CD08D1"/>
</g>
<g id=".Determina el valor de &#194;&#171;x&#194;&#187;.">
<path d="M88.5312 84.2949C88.5312 83.7324 88.6953 83.2637 89.0234 82.8887C89.3633 82.5137 89.8672 82.3262 90.5352 82.3262C91.2031 82.3262 91.707 82.5137 92.0469 82.8887C92.3984 83.2637 92.5742 83.7324 92.5742 84.2949C92.5742 84.834 92.3984 85.2852 92.0469 85.6484C91.707 86.0117 91.2031 86.1934 90.5352 86.1934C89.8672 86.1934 89.3633 86.0117 89.0234 85.6484C88.6953 85.2852 88.5312 84.834 88.5312 84.2949Z" fill="white"/>
<path d="M98.4629 86V60.4062H105.688C107.914 60.4062 109.883 60.8984 111.594 61.8828C113.305 62.8672 114.623 64.2676 115.549 66.084C116.486 67.9004 116.961 69.9863 116.973 72.3418V73.9766C116.973 76.3906 116.504 78.5059 115.566 80.3223C114.641 82.1387 113.311 83.5332 111.576 84.5059C109.854 85.4785 107.844 85.9766 105.547 86H98.4629ZM101.838 63.1836V83.2402H105.389C107.99 83.2402 110.012 82.4316 111.453 80.8145C112.906 79.1973 113.633 76.8945 113.633 73.9062V72.4121C113.633 69.5059 112.947 67.25 111.576 65.6445C110.217 64.0273 108.283 63.207 105.775 63.1836H101.838Z" fill="white"/>
<path d="M129.471 86.3516C126.893 86.3516 124.795 85.5078 123.178 83.8203C121.561 82.1211 120.752 79.8535 120.752 77.0176V76.4199C120.752 74.5332 121.109 72.8516 121.824 71.375C122.551 69.8867 123.559 68.7266 124.848 67.8945C126.148 67.0508 127.555 66.6289 129.066 66.6289C131.539 66.6289 133.461 67.4434 134.832 69.0723C136.203 70.7012 136.889 73.0332 136.889 76.0684V77.4219H124.004C124.051 79.2969 124.596 80.8145 125.639 81.9746C126.693 83.123 128.029 83.6973 129.646 83.6973C130.795 83.6973 131.768 83.4629 132.564 82.9941C133.361 82.5254 134.059 81.9043 134.656 81.1309L136.643 82.6777C135.049 85.127 132.658 86.3516 129.471 86.3516ZM129.066 69.3008C127.754 69.3008 126.652 69.7812 125.762 70.7422C124.871 71.6914 124.32 73.0273 124.109 74.75H133.637V74.5039C133.543 72.8516 133.098 71.5742 132.301 70.6719C131.504 69.7578 130.426 69.3008 129.066 69.3008Z" fill="white"/>
<path d="M145.08 62.375V66.9805H148.631V69.4941H145.08V81.2891C145.08 82.0508 145.238 82.625 145.555 83.0117C145.871 83.3867 146.41 83.5742 147.172 83.5742C147.547 83.5742 148.062 83.5039 148.719 83.3633V86C147.863 86.2344 147.031 86.3516 146.223 86.3516C144.77 86.3516 143.674 85.9121 142.936 85.0332C142.197 84.1543 141.828 82.9062 141.828 81.2891V69.4941H138.365V66.9805H141.828V62.375H145.08Z" fill="white"/>
<path d="M160.338 86.3516C157.76 86.3516 155.662 85.5078 154.045 83.8203C152.428 82.1211 151.619 79.8535 151.619 77.0176V76.4199C151.619 74.5332 151.977 72.8516 152.691 71.375C153.418 69.8867 154.426 68.7266 155.715 67.8945C157.016 67.0508 158.422 66.6289 159.934 66.6289C162.406 66.6289 164.328 67.4434 165.699 69.0723C167.07 70.7012 167.756 73.0332 167.756 76.0684V77.4219H154.871C154.918 79.2969 155.463 80.8145 156.506 81.9746C157.561 83.123 158.896 83.6973 160.514 83.6973C161.662 83.6973 162.635 83.4629 163.432 82.9941C164.229 82.5254 164.926 81.9043 165.523 81.1309L167.51 82.6777C165.916 85.127 163.525 86.3516 160.338 86.3516ZM159.934 69.3008C158.621 69.3008 157.52 69.7812 156.629 70.7422C155.738 71.6914 155.188 73.0273 154.977 74.75H164.504V74.5039C164.41 72.8516 163.965 71.5742 163.168 70.6719C162.371 69.7578 161.293 69.3008 159.934 69.3008Z" fill="white"/>
<path d="M180.729 69.8984C180.236 69.8164 179.703 69.7754 179.129 69.7754C176.996 69.7754 175.549 70.6836 174.787 72.5V86H171.535V66.9805H174.699L174.752 69.1777C175.818 67.4785 177.33 66.6289 179.287 66.6289C179.92 66.6289 180.4 66.7109 180.729 66.875V69.8984Z" fill="white"/>
<path d="M186.793 66.9805L186.881 69.0898C188.275 67.4492 190.156 66.6289 192.523 66.6289C195.184 66.6289 196.994 67.6484 197.955 69.6875C198.588 68.7734 199.408 68.0352 200.416 67.4727C201.436 66.9102 202.637 66.6289 204.02 66.6289C208.191 66.6289 210.312 68.8379 210.383 73.2559V86H207.131V73.4492C207.131 72.0898 206.82 71.0762 206.199 70.4082C205.578 69.7285 204.535 69.3887 203.07 69.3887C201.863 69.3887 200.861 69.752 200.064 70.4785C199.268 71.1934 198.805 72.1602 198.676 73.3789V86H195.406V73.5371C195.406 70.7715 194.053 69.3887 191.346 69.3887C189.213 69.3887 187.754 70.2969 186.969 72.1133V86H183.717V66.9805H186.793Z" fill="white"/>
<path d="M218.838 86H215.586V66.9805H218.838V86ZM215.322 61.9355C215.322 61.4082 215.48 60.9629 215.797 60.5996C216.125 60.2363 216.605 60.0547 217.238 60.0547C217.871 60.0547 218.352 60.2363 218.68 60.5996C219.008 60.9629 219.172 61.4082 219.172 61.9355C219.172 62.4629 219.008 62.9023 218.68 63.2539C218.352 63.6055 217.871 63.7812 217.238 63.7812C216.605 63.7812 216.125 63.6055 215.797 63.2539C215.48 62.9023 215.322 62.4629 215.322 61.9355Z" fill="white"/>
<path d="M227.135 66.9805L227.24 69.3711C228.693 67.543 230.592 66.6289 232.936 66.6289C236.955 66.6289 238.982 68.8965 239.018 73.4316V86H235.766V73.4141C235.754 72.043 235.438 71.0293 234.816 70.373C234.207 69.7168 233.252 69.3887 231.951 69.3887C230.896 69.3887 229.971 69.6699 229.174 70.2324C228.377 70.7949 227.756 71.5332 227.311 72.4473V86H224.059V66.9805H227.135Z" fill="white"/>
<path d="M255.664 86C255.477 85.625 255.324 84.957 255.207 83.9961C253.695 85.5664 251.891 86.3516 249.793 86.3516C247.918 86.3516 246.377 85.8242 245.17 84.7695C243.975 83.7031 243.377 82.3555 243.377 80.7266C243.377 78.7461 244.127 77.2109 245.627 76.1211C247.139 75.0195 249.26 74.4688 251.99 74.4688H255.154V72.9746C255.154 71.8379 254.814 70.9355 254.135 70.2676C253.455 69.5879 252.453 69.248 251.129 69.248C249.969 69.248 248.996 69.541 248.211 70.127C247.426 70.7129 247.033 71.4219 247.033 72.2539H243.764C243.764 71.3047 244.098 70.3906 244.766 69.5117C245.445 68.6211 246.359 67.918 247.508 67.4023C248.668 66.8867 249.939 66.6289 251.322 66.6289C253.514 66.6289 255.23 67.1797 256.473 68.2812C257.715 69.3711 258.359 70.877 258.406 72.7988V81.5527C258.406 83.2988 258.629 84.6875 259.074 85.7188V86H255.664ZM250.268 83.5215C251.287 83.5215 252.254 83.2578 253.168 82.7305C254.082 82.2031 254.744 81.5176 255.154 80.6738V76.7715H252.605C248.621 76.7715 246.629 77.9375 246.629 80.2695C246.629 81.2891 246.969 82.0859 247.648 82.6602C248.328 83.2344 249.201 83.5215 250.268 83.5215Z" fill="white"/>
<path d="M280.326 86.3516C277.748 86.3516 275.65 85.5078 274.033 83.8203C272.416 82.1211 271.607 79.8535 271.607 77.0176V76.4199C271.607 74.5332 271.965 72.8516 272.68 71.375C273.406 69.8867 274.414 68.7266 275.703 67.8945C277.004 67.0508 278.41 66.6289 279.922 66.6289C282.395 66.6289 284.316 67.4434 285.688 69.0723C287.059 70.7012 287.744 73.0332 287.744 76.0684V77.4219H274.859C274.906 79.2969 275.451 80.8145 276.494 81.9746C277.549 83.123 278.885 83.6973 280.502 83.6973C281.65 83.6973 282.623 83.4629 283.42 82.9941C284.217 82.5254 284.914 81.9043 285.512 81.1309L287.498 82.6777C285.904 85.127 283.514 86.3516 280.326 86.3516ZM279.922 69.3008C278.609 69.3008 277.508 69.7812 276.617 70.7422C275.727 71.6914 275.176 73.0273 274.965 74.75H284.492V74.5039C284.398 72.8516 283.953 71.5742 283.156 70.6719C282.359 69.7578 281.281 69.3008 279.922 69.3008Z" fill="white"/>
<path d="M295.057 86H291.805V59H295.057V86Z" fill="white"/>
<path d="M315.482 81.5879L320.193 66.9805H323.516L316.695 86H314.217L307.326 66.9805H310.648L315.482 81.5879Z" fill="white"/>
<path d="M338.105 86C337.918 85.625 337.766 84.957 337.648 83.9961C336.137 85.5664 334.332 86.3516 332.234 86.3516C330.359 86.3516 328.818 85.8242 327.611 84.7695C326.416 83.7031 325.818 82.3555 325.818 80.7266C325.818 78.7461 326.568 77.2109 328.068 76.1211C329.58 75.0195 331.701 74.4688 334.432 74.4688H337.596V72.9746C337.596 71.8379 337.256 70.9355 336.576 70.2676C335.896 69.5879 334.895 69.248 333.57 69.248C332.41 69.248 331.438 69.541 330.652 70.127C329.867 70.7129 329.475 71.4219 329.475 72.2539H326.205C326.205 71.3047 326.539 70.3906 327.207 69.5117C327.887 68.6211 328.801 67.918 329.949 67.4023C331.109 66.8867 332.381 66.6289 333.764 66.6289C335.955 66.6289 337.672 67.1797 338.914 68.2812C340.156 69.3711 340.801 70.877 340.848 72.7988V81.5527C340.848 83.2988 341.07 84.6875 341.516 85.7188V86H338.105ZM332.709 83.5215C333.729 83.5215 334.695 83.2578 335.609 82.7305C336.523 82.2031 337.186 81.5176 337.596 80.6738V76.7715H335.047C331.062 76.7715 329.07 77.9375 329.07 80.2695C329.07 81.2891 329.41 82.0859 330.09 82.6602C330.77 83.2344 331.643 83.5215 332.709 83.5215Z" fill="white"/>
<path d="M349.479 86H346.227V59H349.479V86Z" fill="white"/>
<path d="M353.838 76.3145C353.838 74.4512 354.201 72.7754 354.928 71.2871C355.666 69.7988 356.686 68.6504 357.986 67.8418C359.299 67.0332 360.793 66.6289 362.469 66.6289C365.059 66.6289 367.15 67.5254 368.744 69.3184C370.35 71.1113 371.152 73.4961 371.152 76.4727V76.7012C371.152 78.5527 370.795 80.2168 370.08 81.6934C369.377 83.1582 368.363 84.3008 367.039 85.1211C365.727 85.9414 364.215 86.3516 362.504 86.3516C359.926 86.3516 357.834 85.4551 356.229 83.6621C354.635 81.8691 353.838 79.4961 353.838 76.543V76.3145ZM357.107 76.7012C357.107 78.8105 357.594 80.5039 358.566 81.7812C359.551 83.0586 360.863 83.6973 362.504 83.6973C364.156 83.6973 365.469 83.0527 366.441 81.7637C367.414 80.4629 367.9 78.6465 367.9 76.3145C367.9 74.2285 367.402 72.541 366.406 71.252C365.422 69.9512 364.109 69.3008 362.469 69.3008C360.863 69.3008 359.568 69.9395 358.584 71.2168C357.6 72.4941 357.107 74.3223 357.107 76.7012Z" fill="white"/>
<path d="M384.424 69.8984C383.932 69.8164 383.398 69.7754 382.824 69.7754C380.691 69.7754 379.244 70.6836 378.482 72.5V86H375.23V66.9805H378.395L378.447 69.1777C379.514 67.4785 381.025 66.6289 382.982 66.6289C383.615 66.6289 384.096 66.7109 384.424 66.875V69.8984Z" fill="white"/>
<path d="M395.568 76.332C395.568 73.4141 396.26 71.0703 397.643 69.3008C399.025 67.5195 400.836 66.6289 403.074 66.6289C405.301 66.6289 407.064 67.3906 408.365 68.9141V59H411.617V86H408.629L408.471 83.9609C407.17 85.5547 405.359 86.3516 403.039 86.3516C400.836 86.3516 399.037 85.4492 397.643 83.6445C396.26 81.8398 395.568 79.4844 395.568 76.5781V76.332ZM398.82 76.7012C398.82 78.8574 399.266 80.5449 400.156 81.7637C401.047 82.9824 402.277 83.5918 403.848 83.5918C405.91 83.5918 407.416 82.666 408.365 80.8145V72.0781C407.393 70.2852 405.898 69.3887 403.883 69.3887C402.289 69.3887 401.047 70.0039 400.156 71.2344C399.266 72.4648 398.82 74.2871 398.82 76.7012Z" fill="white"/>
<path d="M424.572 86.3516C421.994 86.3516 419.896 85.5078 418.279 83.8203C416.662 82.1211 415.854 79.8535 415.854 77.0176V76.4199C415.854 74.5332 416.211 72.8516 416.926 71.375C417.652 69.8867 418.66 68.7266 419.949 67.8945C421.25 67.0508 422.656 66.6289 424.168 66.6289C426.641 66.6289 428.562 67.4434 429.934 69.0723C431.305 70.7012 431.99 73.0332 431.99 76.0684V77.4219H419.105C419.152 79.2969 419.697 80.8145 420.74 81.9746C421.795 83.123 423.131 83.6973 424.748 83.6973C425.896 83.6973 426.869 83.4629 427.666 82.9941C428.463 82.5254 429.16 81.9043 429.758 81.1309L431.744 82.6777C430.15 85.127 427.76 86.3516 424.572 86.3516ZM424.168 69.3008C422.855 69.3008 421.754 69.7812 420.863 70.7422C419.973 71.6914 419.422 73.0273 419.211 74.75H428.738V74.5039C428.645 72.8516 428.199 71.5742 427.402 70.6719C426.605 69.7578 425.527 69.3008 424.168 69.3008Z" fill="white"/>
<path d="M447.16 76.3672L451.695 83.3457H449.217L444.031 76.5254V76.1914L449.217 69.3535H451.695L447.16 76.3672ZM452.961 76.3672L457.496 83.3457H455.018L449.832 76.5254V76.1914L455.018 69.3535H457.496L452.961 76.3672Z" fill="white"/>
<path d="M467.99 73.9238L472.209 66.9805H476.006L469.783 76.3848L476.199 86H472.438L468.043 78.8809L463.648 86H459.869L466.285 76.3848L460.062 66.9805H463.824L467.99 73.9238Z" fill="white"/>
<path d="M481.297 69.3184L486.482 76.1562V76.4902L481.297 83.3281H478.801L483.336 76.332L478.801 69.3184H481.297ZM487.432 69.3184L492.617 76.1562V76.4902L487.432 83.3281H484.936L489.471 76.332L484.936 69.3184H487.432Z" fill="white"/>
<path d="M496.414 84.2949C496.414 83.7324 496.578 83.2637 496.906 82.8887C497.246 82.5137 497.75 82.3262 498.418 82.3262C499.086 82.3262 499.59 82.5137 499.93 82.8887C500.281 83.2637 500.457 83.7324 500.457 84.2949C500.457 84.834 500.281 85.2852 499.93 85.6484C499.59 86.0117 499.086 86.1934 498.418 86.1934C497.75 86.1934 497.246 86.0117 496.906 85.6484C496.578 85.2852 496.414 84.834 496.414 84.2949Z" fill="white"/>
</g>
<g id="flecha">
<path id="Rectangle 2" d="M393.2 556.008L408.482 564.133L366.5 643.089L351.219 634.963L393.2 556.008Z" fill="#1043F5"/>
<path id="Rectangle 1_2" d="M335 568.904L425 519V576.692L380 559.096L335 568.904Z" fill="#1043F5"/>
<path id="Rectangle 3" d="M339.038 638.21L354.666 611.143L371.936 610.565L356.309 637.632L339.038 638.21Z" fill="#1043F5"/>
<path id="Rectangle 4_2" d="M365.089 652.845L380.717 625.778L371.926 610.154L356.299 637.221L365.089 652.845Z" fill="#1043F5"/>
</g>
</g>
</svg>
