<svg viewBox="0 0 975 602" fill="none" xmlns="http://www.w3.org/2000/svg">
<g id="0119113">
<g id="Group 8">
<path id="Rectangle 1" d="M63 50.4762C63 24.1769 84.3794 2.85718 110.752 2.85718H934V332.381C934 358.68 912.62 380 886.247 380H63V50.4762Z" fill="#02071A"/>
<path id="Rectangle 1 (Stroke)" fill-rule="evenodd" clip-rule="evenodd" d="M929.224 7.61908H110.752C87.0167 7.61908 67.7752 26.8069 67.7752 50.4762V375.238H886.247C909.983 375.238 929.224 356.05 929.224 332.381V7.61908ZM110.752 2.85718C84.3794 2.85718 63 24.1769 63 50.4762V380H886.247C912.62 380 934 358.68 934 332.381V2.85718H110.752Z" fill="#CD08D1"/>
<path id="Rectangle 14" d="M114.716 2.92611C140.256 -3.65764 934 2.92611 934 2.92611V31.4286C934 31.4286 101.202 20.9524 71.5954 31.4286C80.8075 16.3113 89.1754 9.50987 114.716 2.92611Z" fill="#CD08D1"/>
<path id="Rectangle 15" d="M905.349 2.85718H934V333.333C930.483 355.76 923.194 364.003 905.349 374.762C910.601 357.143 905.349 2.85718 905.349 2.85718Z" fill="#CD08D1"/>
</g>
<g id="claves01">
<path id="Rectangle 4" d="M39 412H255.745L289 452L255.745 492H39V412Z" fill="#CD08D1" fill-opacity="0.1"/>
<path id="Rectangle 4 (Stroke)" fill-rule="evenodd" clip-rule="evenodd" d="M254.338 415H42V489H254.338L285.099 452L254.338 415ZM255.745 412H39V492H255.745L289 452L255.745 412Z" fill="#CD08D1"/>
<path id="Rectangle 5" d="M43 522H259.745L293 562L259.745 602H43V522Z" fill="#CD08D1" fill-opacity="0.1"/>
<path id="Rectangle 5 (Stroke)" fill-rule="evenodd" clip-rule="evenodd" d="M258.338 525H46V599H258.338L289.099 562L258.338 525ZM259.745 522H43V602H259.745L293 562L259.745 522Z" fill="#CD08D1"/>
<path id="Rectangle 6" d="M379 409H595.745L629 449L595.745 489H379V409Z" fill="#CD08D1" fill-opacity="0.1"/>
<path id="Rectangle 6 (Stroke)" fill-rule="evenodd" clip-rule="evenodd" d="M594.338 412H382V486H594.338L625.099 449L594.338 412ZM595.745 409H379V489H595.745L629 449L595.745 409Z" fill="#CD08D1"/>
<path id="Rectangle 7" d="M382 519H598.745L632 559L598.745 599H382V519Z" fill="#CD08D1" fill-opacity="0.1"/>
<path id="Rectangle 7 (Stroke)" fill-rule="evenodd" clip-rule="evenodd" d="M597.338 522H385V596H597.338L628.099 559L597.338 522ZM598.745 519H382V599H598.745L632 559L598.745 519Z" fill="#CD08D1"/>
<path id="Rectangle 8" d="M725 468H941.745L975 508L941.745 548H725V468Z" fill="#CD08D1" fill-opacity="0.1"/>
<path id="Rectangle 8 (Stroke)" fill-rule="evenodd" clip-rule="evenodd" d="M940.338 471H728V545H940.338L971.099 508L940.338 471ZM941.745 468H725V548H941.745L975 508L941.745 468Z" fill="#CD08D1"/>
<path id="Ellipse 1" d="M80 452C80 474.091 62.0914 492 40 492C17.9086 492 0 474.091 0 452C0 429.909 17.9086 412 40 412C62.0914 412 80 429.909 80 452Z" fill="#CD08D1"/>
<path id="Ellipse 2" d="M84 562C84 584.091 66.0914 602 44 602C21.9086 602 4 584.091 4 562C4 539.909 21.9086 522 44 522C66.0914 522 84 539.909 84 562Z" fill="#CD08D1"/>
<path id="Ellipse 3" d="M420 449C420 471.091 402.091 489 380 489C357.909 489 340 471.091 340 449C340 426.909 357.909 409 380 409C402.091 409 420 426.909 420 449Z" fill="#CD08D1"/>
<path id="Ellipse 4" d="M423 559C423 581.091 405.091 599 383 599C360.909 599 343 581.091 343 559C343 536.909 360.909 519 383 519C405.091 519 423 536.909 423 559Z" fill="#CD08D1"/>
<path id="Ellipse 5" d="M766 508C766 530.091 748.091 548 726 548C703.909 548 686 530.091 686 508C686 485.909 703.909 468 726 468C748.091 468 766 485.909 766 508Z" fill="#CD08D1"/>
<path id="A" d="M48.0938 462.406H30.4688L26.7812 473H18.5625L35.75 427.5H42.8438L60.0625 473H51.8125L48.0938 462.406ZM32.6875 456.031H45.875L39.2812 437.156L32.6875 456.031Z" fill="white"/>
<path id="B" d="M27.625 578V532.5H43.2188C48.3646 532.5 52.2812 533.531 54.9688 535.594C57.6562 537.656 59 540.729 59 544.812C59 546.896 58.4375 548.771 57.3125 550.438C56.1875 552.104 54.5417 553.396 52.375 554.312C54.8333 554.979 56.7292 556.24 58.0625 558.094C59.4167 559.927 60.0938 562.135 60.0938 564.719C60.0938 568.99 58.7188 572.271 55.9688 574.562C53.2396 576.854 49.3229 578 44.2188 578H27.625ZM35.5312 557.469V571.688H44.3125C46.7917 571.688 48.7292 571.073 50.125 569.844C51.5208 568.615 52.2188 566.906 52.2188 564.719C52.2188 559.99 49.8021 557.573 44.9688 557.469H35.5312ZM35.5312 551.656H43.2812C45.7396 551.656 47.6562 551.104 49.0312 550C50.4271 548.875 51.125 547.292 51.125 545.25C51.125 543 50.4792 541.375 49.1875 540.375C47.9167 539.375 45.9271 538.875 43.2188 538.875H35.5312V551.656Z" fill="white"/>
<path id="C" d="M397.344 456.188C396.885 461.042 395.094 464.833 391.969 467.562C388.844 470.271 384.688 471.625 379.5 471.625C375.875 471.625 372.677 470.771 369.906 469.062C367.156 467.333 365.031 464.885 363.531 461.719C362.031 458.552 361.25 454.875 361.188 450.688V446.438C361.188 442.146 361.948 438.365 363.469 435.094C364.99 431.823 367.167 429.302 370 427.531C372.854 425.76 376.146 424.875 379.875 424.875C384.896 424.875 388.938 426.24 392 428.969C395.062 431.698 396.844 435.552 397.344 440.531H389.469C389.094 437.26 388.135 434.906 386.594 433.469C385.073 432.01 382.833 431.281 379.875 431.281C376.438 431.281 373.792 432.542 371.938 435.062C370.104 437.562 369.167 441.24 369.125 446.094V450.125C369.125 455.042 370 458.792 371.75 461.375C373.521 463.958 376.104 465.25 379.5 465.25C382.604 465.25 384.938 464.552 386.5 463.156C388.062 461.76 389.052 459.438 389.469 456.188H397.344Z" fill="white"/>
<path id="D" d="M365.625 581V535.5H379.062C383.083 535.5 386.646 536.396 389.75 538.188C392.875 539.979 395.292 542.521 397 545.812C398.708 549.104 399.562 552.875 399.562 557.125V559.406C399.562 563.719 398.698 567.51 396.969 570.781C395.26 574.052 392.812 576.573 389.625 578.344C386.458 580.115 382.823 581 378.719 581H365.625ZM373.531 541.875V574.688H378.688C382.833 574.688 386.01 573.396 388.219 570.812C390.448 568.208 391.583 564.479 391.625 559.625V557.094C391.625 552.156 390.552 548.385 388.406 545.781C386.26 543.177 383.146 541.875 379.062 541.875H373.531Z" fill="white"/>
<path id="E" d="M735.219 509.688H716.531V523.688H738.375V530H708.625V484.5H738.156V490.875H716.531V503.438H735.219V509.688Z" fill="white"/>
<g id="44">
<path d="M139.093 455.356H142.805V459.355H139.093V466H134.109V459.355H121.21L121.066 456.32L133.945 436.141H139.093V455.356ZM126.296 455.356H134.109V442.888L133.74 443.544L126.296 455.356Z" fill="#CD08D1"/>
<path d="M162.964 455.356H166.676V459.355H162.964V466H157.98V459.355H145.081L144.938 456.32L157.816 436.141H162.964V455.356ZM150.167 455.356H157.98V442.888L157.611 443.544L150.167 455.356Z" fill="#CD08D1"/>
</g>
<g id="11">
<path d="M135.729 581H130.767V557.026L123.445 559.528V555.324L135.094 551.038H135.729V581Z" fill="#CD08D1"/>
<path d="M159.601 581H154.638V557.026L147.316 559.528V555.324L158.965 551.038H159.601V581Z" fill="#CD08D1"/>
</g>
<g id="22">
<path d="M498.312 463H478.235V459.575L488.182 448.727C489.617 447.127 490.636 445.794 491.237 444.728C491.853 443.647 492.16 442.567 492.16 441.487C492.16 440.065 491.757 438.917 490.95 438.042C490.157 437.167 489.084 436.729 487.73 436.729C486.117 436.729 484.866 437.222 483.978 438.206C483.089 439.19 482.645 440.537 482.645 442.246H477.661C477.661 440.428 478.071 438.794 478.892 437.345C479.726 435.882 480.908 434.747 482.439 433.94C483.984 433.134 485.762 432.73 487.771 432.73C490.67 432.73 492.953 433.462 494.621 434.925C496.303 436.374 497.144 438.384 497.144 440.954C497.144 442.444 496.72 444.01 495.872 445.65C495.038 447.277 493.664 449.13 491.75 451.208L484.449 459.021H498.312V463Z" fill="#CD08D1"/>
<path d="M522.184 463H502.106V459.575L512.053 448.727C513.488 447.127 514.507 445.794 515.108 444.728C515.724 443.647 516.031 442.567 516.031 441.487C516.031 440.065 515.628 438.917 514.821 438.042C514.028 437.167 512.955 436.729 511.602 436.729C509.988 436.729 508.737 437.222 507.849 438.206C506.96 439.19 506.516 440.537 506.516 442.246H501.532C501.532 440.428 501.942 438.794 502.763 437.345C503.597 435.882 504.779 434.747 506.311 433.94C507.855 433.134 509.633 432.73 511.643 432.73C514.541 432.73 516.824 433.462 518.492 434.925C520.174 436.374 521.015 438.384 521.015 440.954C521.015 442.444 520.591 444.01 519.743 445.65C518.909 447.277 517.535 449.13 515.621 451.208L508.32 459.021H522.184V463Z" fill="#CD08D1"/>
</g>
<g id="55">
<path d="M479.568 557.193L481.188 542.141H497.226V546.447H485.331L484.511 553.584C485.892 552.791 487.45 552.395 489.187 552.395C492.03 552.395 494.238 553.304 495.811 555.122C497.396 556.94 498.189 559.388 498.189 562.464C498.189 565.499 497.314 567.919 495.564 569.724C493.814 571.515 491.415 572.41 488.366 572.41C485.632 572.41 483.362 571.638 481.558 570.093C479.767 568.534 478.796 566.483 478.646 563.94H483.465C483.656 565.39 484.176 566.504 485.023 567.283C485.871 568.049 486.979 568.432 488.346 568.432C489.877 568.432 491.066 567.885 491.914 566.791C492.775 565.697 493.206 564.207 493.206 562.32C493.206 560.502 492.734 559.066 491.791 558.014C490.848 556.947 489.549 556.414 487.895 556.414C486.992 556.414 486.227 556.537 485.598 556.783C484.969 557.016 484.285 557.48 483.547 558.178L479.568 557.193Z" fill="#CD08D1"/>
<path d="M503.439 557.193L505.06 542.141H521.097V546.447H509.202L508.382 553.584C509.763 552.791 511.321 552.395 513.058 552.395C515.901 552.395 518.109 553.304 519.682 555.122C521.268 556.94 522.061 559.388 522.061 562.464C522.061 565.499 521.186 567.919 519.436 569.724C517.686 571.515 515.286 572.41 512.237 572.41C509.503 572.41 507.233 571.638 505.429 570.093C503.638 568.534 502.667 566.483 502.517 563.94H507.336C507.527 565.39 508.047 566.504 508.895 567.283C509.742 568.049 510.85 568.432 512.217 568.432C513.748 568.432 514.938 567.885 515.785 566.791C516.646 565.697 517.077 564.207 517.077 562.32C517.077 560.502 516.605 559.066 515.662 558.014C514.719 556.947 513.42 556.414 511.766 556.414C510.863 556.414 510.098 556.537 509.469 556.783C508.84 557.016 508.156 557.48 507.418 558.178L503.439 557.193Z" fill="#CD08D1"/>
</g>
<g id="33">
<path d="M829.998 508.794H833.033C834.564 508.78 835.774 508.384 836.663 507.604C837.565 506.825 838.017 505.697 838.017 504.221C838.017 502.799 837.641 501.698 836.889 500.919C836.15 500.126 835.016 499.729 833.484 499.729C832.145 499.729 831.044 500.119 830.183 500.898C829.321 501.664 828.891 502.669 828.891 503.913H823.907C823.907 502.382 824.311 500.987 825.117 499.729C825.938 498.472 827.072 497.494 828.521 496.797C829.984 496.086 831.618 495.73 833.423 495.73C836.403 495.73 838.741 496.482 840.437 497.986C842.146 499.477 843 501.555 843 504.221C843 505.561 842.569 506.825 841.708 508.015C840.86 509.19 839.76 510.079 838.406 510.681C840.047 511.241 841.291 512.123 842.139 513.326C843 514.529 843.431 515.965 843.431 517.633C843.431 520.312 842.508 522.445 840.662 524.031C838.83 525.617 836.417 526.41 833.423 526.41C830.552 526.41 828.2 525.645 826.368 524.113C824.536 522.582 823.62 520.545 823.62 518.002H828.604C828.604 519.314 829.041 520.381 829.916 521.201C830.805 522.021 831.994 522.432 833.484 522.432C835.029 522.432 836.246 522.021 837.135 521.201C838.023 520.381 838.468 519.191 838.468 517.633C838.468 516.061 838.003 514.851 837.073 514.003C836.144 513.155 834.763 512.731 832.931 512.731H829.998V508.794Z" fill="#CD08D1"/>
<path d="M853.869 508.794H856.904C858.436 508.78 859.646 508.384 860.534 507.604C861.437 506.825 861.888 505.697 861.888 504.221C861.888 502.799 861.512 501.698 860.76 500.919C860.021 500.126 858.887 499.729 857.355 499.729C856.016 499.729 854.915 500.119 854.054 500.898C853.192 501.664 852.762 502.669 852.762 503.913H847.778C847.778 502.382 848.182 500.987 848.988 499.729C849.809 498.472 850.943 497.494 852.393 496.797C853.855 496.086 855.489 495.73 857.294 495.73C860.274 495.73 862.612 496.482 864.308 497.986C866.017 499.477 866.871 501.555 866.871 504.221C866.871 505.561 866.44 506.825 865.579 508.015C864.731 509.19 863.631 510.079 862.277 510.681C863.918 511.241 865.162 512.123 866.01 513.326C866.871 514.529 867.302 515.965 867.302 517.633C867.302 520.312 866.379 522.445 864.533 524.031C862.701 525.617 860.288 526.41 857.294 526.41C854.423 526.41 852.071 525.645 850.239 524.113C848.407 522.582 847.491 520.545 847.491 518.002H852.475C852.475 519.314 852.912 520.381 853.787 521.201C854.676 522.021 855.865 522.432 857.355 522.432C858.9 522.432 860.117 522.021 861.006 521.201C861.895 520.381 862.339 519.191 862.339 517.633C862.339 516.061 861.874 514.851 860.944 514.003C860.015 513.155 858.634 512.731 856.802 512.731H853.869V508.794Z" fill="#CD08D1"/>
</g>
</g>
<g id="Resuelve:">
<path d="M109.357 75.6465H103.346V86H99.9531V60.4062H108.426C111.309 60.4062 113.523 61.0625 115.07 62.375C116.629 63.6875 117.408 65.5977 117.408 68.1055C117.408 69.6992 116.975 71.0879 116.107 72.2715C115.252 73.4551 114.057 74.3398 112.521 74.9258L118.533 85.7891V86H114.912L109.357 75.6465ZM103.346 72.8867H108.531C110.207 72.8867 111.537 72.4531 112.521 71.5859C113.518 70.7188 114.016 69.5586 114.016 68.1055C114.016 66.5234 113.541 65.3105 112.592 64.4668C111.654 63.623 110.295 63.1953 108.514 63.1836H103.346V72.8867Z" fill="white"/>
<path d="M129.537 86.3516C126.959 86.3516 124.861 85.5078 123.244 83.8203C121.627 82.1211 120.818 79.8535 120.818 77.0176V76.4199C120.818 74.5332 121.176 72.8516 121.891 71.375C122.617 69.8867 123.625 68.7266 124.914 67.8945C126.215 67.0508 127.621 66.6289 129.133 66.6289C131.605 66.6289 133.527 67.4434 134.898 69.0723C136.27 70.7012 136.955 73.0332 136.955 76.0684V77.4219H124.07C124.117 79.2969 124.662 80.8145 125.705 81.9746C126.76 83.123 128.096 83.6973 129.713 83.6973C130.861 83.6973 131.834 83.4629 132.631 82.9941C133.428 82.5254 134.125 81.9043 134.723 81.1309L136.709 82.6777C135.115 85.127 132.725 86.3516 129.537 86.3516ZM129.133 69.3008C127.82 69.3008 126.719 69.7812 125.828 70.7422C124.938 71.6914 124.387 73.0273 124.176 74.75H133.703V74.5039C133.609 72.8516 133.164 71.5742 132.367 70.6719C131.57 69.7578 130.492 69.3008 129.133 69.3008Z" fill="white"/>
<path d="M151.809 80.9551C151.809 80.0762 151.475 79.3965 150.807 78.916C150.15 78.4238 148.996 78.002 147.344 77.6504C145.703 77.2988 144.396 76.877 143.424 76.3848C142.463 75.8926 141.748 75.3066 141.279 74.627C140.822 73.9473 140.594 73.1387 140.594 72.2012C140.594 70.6426 141.25 69.3242 142.562 68.2461C143.887 67.168 145.574 66.6289 147.625 66.6289C149.781 66.6289 151.527 67.1855 152.863 68.2988C154.211 69.4121 154.885 70.8359 154.885 72.5703H151.615C151.615 71.6797 151.234 70.9121 150.473 70.2676C149.723 69.623 148.773 69.3008 147.625 69.3008C146.441 69.3008 145.516 69.5586 144.848 70.0742C144.18 70.5898 143.846 71.2637 143.846 72.0957C143.846 72.8809 144.156 73.4727 144.777 73.8711C145.398 74.2695 146.518 74.6504 148.135 75.0137C149.764 75.377 151.082 75.8105 152.09 76.3145C153.098 76.8184 153.842 77.4277 154.322 78.1426C154.814 78.8457 155.061 79.707 155.061 80.7266C155.061 82.4258 154.381 83.791 153.021 84.8223C151.662 85.8418 149.898 86.3516 147.73 86.3516C146.207 86.3516 144.859 86.082 143.688 85.543C142.516 85.0039 141.596 84.2539 140.928 83.293C140.271 82.3203 139.943 81.2715 139.943 80.1465H143.195C143.254 81.2363 143.688 82.1035 144.496 82.748C145.316 83.3809 146.395 83.6973 147.73 83.6973C148.961 83.6973 149.945 83.4512 150.684 82.959C151.434 82.4551 151.809 81.7871 151.809 80.9551Z" fill="white"/>
<path d="M171.039 84.1191C169.773 85.6074 167.916 86.3516 165.467 86.3516C163.439 86.3516 161.893 85.7656 160.826 84.5938C159.771 83.4102 159.238 81.6641 159.227 79.3555V66.9805H162.479V79.2676C162.479 82.1504 163.65 83.5918 165.994 83.5918C168.479 83.5918 170.131 82.666 170.951 80.8145V66.9805H174.203V86H171.109L171.039 84.1191Z" fill="white"/>
<path d="M187.053 86.3516C184.475 86.3516 182.377 85.5078 180.76 83.8203C179.143 82.1211 178.334 79.8535 178.334 77.0176V76.4199C178.334 74.5332 178.691 72.8516 179.406 71.375C180.133 69.8867 181.141 68.7266 182.43 67.8945C183.73 67.0508 185.137 66.6289 186.648 66.6289C189.121 66.6289 191.043 67.4434 192.414 69.0723C193.785 70.7012 194.471 73.0332 194.471 76.0684V77.4219H181.586C181.633 79.2969 182.178 80.8145 183.221 81.9746C184.275 83.123 185.611 83.6973 187.229 83.6973C188.377 83.6973 189.35 83.4629 190.146 82.9941C190.943 82.5254 191.641 81.9043 192.238 81.1309L194.225 82.6777C192.631 85.127 190.24 86.3516 187.053 86.3516ZM186.648 69.3008C185.336 69.3008 184.234 69.7812 183.344 70.7422C182.453 71.6914 181.902 73.0273 181.691 74.75H191.219V74.5039C191.125 72.8516 190.68 71.5742 189.883 70.6719C189.086 69.7578 188.008 69.3008 186.648 69.3008Z" fill="white"/>
<path d="M201.783 86H198.531V59H201.783V86Z" fill="white"/>
<path d="M213.279 81.5879L217.99 66.9805H221.312L214.492 86H212.014L205.123 66.9805H208.445L213.279 81.5879Z" fill="white"/>
<path d="M232.088 86.3516C229.51 86.3516 227.412 85.5078 225.795 83.8203C224.178 82.1211 223.369 79.8535 223.369 77.0176V76.4199C223.369 74.5332 223.727 72.8516 224.441 71.375C225.168 69.8867 226.176 68.7266 227.465 67.8945C228.766 67.0508 230.172 66.6289 231.684 66.6289C234.156 66.6289 236.078 67.4434 237.449 69.0723C238.82 70.7012 239.506 73.0332 239.506 76.0684V77.4219H226.621C226.668 79.2969 227.213 80.8145 228.256 81.9746C229.311 83.123 230.646 83.6973 232.264 83.6973C233.412 83.6973 234.385 83.4629 235.182 82.9941C235.979 82.5254 236.676 81.9043 237.273 81.1309L239.26 82.6777C237.666 85.127 235.275 86.3516 232.088 86.3516ZM231.684 69.3008C230.371 69.3008 229.27 69.7812 228.379 70.7422C227.488 71.6914 226.938 73.0273 226.727 74.75H236.254V74.5039C236.16 72.8516 235.715 71.5742 234.918 70.6719C234.121 69.7578 233.043 69.3008 231.684 69.3008Z" fill="white"/>
<path d="M243.18 84.2949C243.18 83.7324 243.344 83.2637 243.672 82.8887C244.012 82.5137 244.516 82.3262 245.184 82.3262C245.852 82.3262 246.355 82.5137 246.695 82.8887C247.047 83.2637 247.223 83.7324 247.223 84.2949C247.223 84.834 247.047 85.2852 246.695 85.6484C246.355 86.0117 245.852 86.1934 245.184 86.1934C244.516 86.1934 244.012 86.0117 243.672 85.6484C243.344 85.2852 243.18 84.834 243.18 84.2949ZM243.197 68.7734C243.197 68.2109 243.361 67.7422 243.689 67.3672C244.029 66.9922 244.533 66.8047 245.201 66.8047C245.869 66.8047 246.373 66.9922 246.713 67.3672C247.064 67.7422 247.24 68.2109 247.24 68.7734C247.24 69.3125 247.064 69.7637 246.713 70.127C246.373 70.4902 245.869 70.6719 245.201 70.6719C244.533 70.6719 244.029 70.4902 243.689 70.127C243.361 69.7637 243.197 69.3125 243.197 68.7734Z" fill="white"/>
</g>
<g id="4 (68) 2 3 (36) 3 2 ( x ) 5">
<path d="M356.26 138.017H360.797V141.408H356.26V149H352.082V141.408H337.19V138.96L351.835 116.297H356.26V138.017ZM341.907 138.017H352.082V121.979L351.588 122.878L341.907 138.017Z" fill="white"/>
<path d="M433.278 135.726C433.278 132.341 433.728 129.092 434.626 125.978C435.539 122.863 436.895 120.033 438.691 117.487C440.488 114.942 442.353 113.145 444.284 112.097L445.138 114.837C442.951 116.514 441.155 119.075 439.747 122.519C438.354 125.963 437.591 129.818 437.456 134.086L437.434 135.995C437.434 141.775 438.489 146.791 440.601 151.044C441.873 153.59 443.386 155.581 445.138 157.019L444.284 159.557C442.293 158.449 440.391 156.592 438.579 153.986C435.045 148.895 433.278 142.808 433.278 135.726Z" fill="white"/>
<path d="M465.038 116.274V119.801H464.274C461.04 119.861 458.465 120.819 456.548 122.676C454.631 124.533 453.523 127.146 453.224 130.515C454.946 128.538 457.297 127.55 460.276 127.55C463.121 127.55 465.39 128.553 467.082 130.56C468.789 132.566 469.643 135.157 469.643 138.331C469.643 141.7 468.722 144.396 466.88 146.417C465.053 148.438 462.597 149.449 459.513 149.449C456.383 149.449 453.845 148.251 451.898 145.855C449.952 143.445 448.979 140.345 448.979 136.557V134.962C448.979 128.942 450.259 124.345 452.819 121.171C455.395 117.981 459.221 116.349 464.297 116.274H465.038ZM459.58 131.009C458.158 131.009 456.847 131.436 455.649 132.289C454.451 133.143 453.62 134.213 453.156 135.501V137.028C453.156 139.724 453.763 141.895 454.976 143.542C456.188 145.189 457.701 146.013 459.513 146.013C461.384 146.013 462.852 145.324 463.915 143.946C464.993 142.569 465.532 140.764 465.532 138.533C465.532 136.287 464.986 134.475 463.893 133.098C462.814 131.705 461.377 131.009 459.58 131.009Z" fill="white"/>
<path d="M494.395 124.832C494.395 126.464 493.96 127.917 493.092 129.189C492.238 130.462 491.078 131.458 489.61 132.177C491.317 132.91 492.665 133.981 493.653 135.389C494.657 136.796 495.158 138.391 495.158 140.173C495.158 143.003 494.2 145.257 492.283 146.934C490.382 148.611 487.873 149.449 484.759 149.449C481.614 149.449 479.091 148.611 477.189 146.934C475.303 145.242 474.359 142.988 474.359 140.173C474.359 138.406 474.839 136.811 475.797 135.389C476.77 133.966 478.11 132.888 479.817 132.154C478.365 131.436 477.219 130.44 476.381 129.167C475.542 127.894 475.123 126.449 475.123 124.832C475.123 122.077 476.007 119.891 477.773 118.273C479.54 116.656 481.869 115.848 484.759 115.848C487.634 115.848 489.955 116.656 491.722 118.273C493.504 119.891 494.395 122.077 494.395 124.832ZM491.003 140.083C491.003 138.256 490.419 136.766 489.251 135.613C488.098 134.46 486.586 133.884 484.714 133.884C482.842 133.884 481.337 134.453 480.199 135.591C479.076 136.729 478.515 138.226 478.515 140.083C478.515 141.94 479.061 143.4 480.154 144.463C481.262 145.526 482.797 146.058 484.759 146.058C486.705 146.058 488.233 145.526 489.341 144.463C490.449 143.385 491.003 141.925 491.003 140.083ZM484.759 119.262C483.127 119.262 481.801 119.771 480.783 120.789C479.78 121.792 479.278 123.162 479.278 124.899C479.278 126.562 479.772 127.909 480.761 128.942C481.764 129.961 483.097 130.47 484.759 130.47C486.421 130.47 487.746 129.961 488.734 128.942C489.738 127.909 490.239 126.562 490.239 124.899C490.239 123.237 489.723 121.882 488.689 120.834C487.656 119.786 486.346 119.262 484.759 119.262Z" fill="white"/>
<path d="M510.409 135.95C510.409 139.289 509.967 142.494 509.084 145.563C508.215 148.618 506.875 151.441 505.063 154.031C503.267 156.622 501.38 158.464 499.403 159.557L498.527 157.019C500.833 155.252 502.683 152.511 504.075 148.798C505.483 145.069 506.201 140.937 506.231 136.399V135.681C506.231 132.536 505.902 129.616 505.243 126.921C504.584 124.211 503.663 121.785 502.48 119.644C501.312 117.502 499.995 115.833 498.527 114.635L499.403 112.097C501.38 113.19 503.259 115.017 505.041 117.577C506.838 120.138 508.178 122.96 509.062 126.045C509.96 129.13 510.409 132.431 510.409 135.95Z" fill="white"/>
<path d="M594.862 149H573.435V146.013L584.755 133.435C586.432 131.533 587.585 129.991 588.214 128.808C588.858 127.61 589.18 126.374 589.18 125.102C589.18 123.395 588.663 121.994 587.63 120.901C586.597 119.808 585.219 119.262 583.497 119.262C581.431 119.262 579.821 119.853 578.668 121.036C577.53 122.204 576.961 123.836 576.961 125.933H572.806C572.806 122.923 573.771 120.49 575.703 118.633C577.65 116.776 580.248 115.848 583.497 115.848C586.537 115.848 588.94 116.649 590.707 118.251C592.474 119.838 593.357 121.957 593.357 124.607C593.357 127.827 591.306 131.66 587.203 136.107L578.443 145.608H594.862V149Z" fill="white"/>
<path d="M344.76 207.627H347.882C349.843 207.597 351.386 207.08 352.509 206.077C353.632 205.074 354.193 203.719 354.193 202.012C354.193 198.178 352.284 196.262 348.466 196.262C346.669 196.262 345.231 196.778 344.153 197.812C343.09 198.83 342.559 200.185 342.559 201.877H338.403C338.403 199.286 339.347 197.138 341.233 195.431C343.135 193.709 345.546 192.848 348.466 192.848C351.55 192.848 353.969 193.664 355.721 195.296C357.473 196.928 358.349 199.197 358.349 202.102C358.349 203.524 357.884 204.902 356.956 206.234C356.043 207.567 354.792 208.563 353.205 209.222C355.002 209.791 356.387 210.734 357.36 212.052C358.349 213.369 358.843 214.979 358.843 216.881C358.843 219.816 357.884 222.144 355.968 223.866C354.051 225.588 351.558 226.449 348.488 226.449C345.419 226.449 342.918 225.618 340.986 223.956C339.07 222.294 338.111 220.1 338.111 217.375H342.289C342.289 219.097 342.851 220.475 343.974 221.508C345.097 222.541 346.602 223.058 348.488 223.058C350.495 223.058 352.03 222.534 353.093 221.485C354.156 220.437 354.688 218.932 354.688 216.971C354.688 215.069 354.104 213.609 352.936 212.591C351.768 211.573 350.083 211.049 347.882 211.019H344.76V207.627Z" fill="white"/>
<path d="M433.278 212.726C433.278 209.341 433.728 206.092 434.626 202.978C435.539 199.863 436.895 197.033 438.691 194.487C440.488 191.942 442.353 190.145 444.284 189.097L445.138 191.837C442.951 193.514 441.155 196.075 439.747 199.519C438.354 202.963 437.591 206.818 437.456 211.086L437.434 212.995C437.434 218.775 438.489 223.791 440.601 228.044C441.873 230.59 443.386 232.581 445.138 234.019L444.284 236.557C442.293 235.449 440.391 233.592 438.579 230.986C435.045 225.895 433.278 219.808 433.278 212.726Z" fill="white"/>
<path d="M454.773 207.627H457.896C459.857 207.597 461.399 207.08 462.522 206.077C463.646 205.074 464.207 203.719 464.207 202.012C464.207 198.178 462.298 196.262 458.479 196.262C456.683 196.262 455.245 196.778 454.167 197.812C453.104 198.83 452.572 200.185 452.572 201.877H448.417C448.417 199.286 449.36 197.138 451.247 195.431C453.149 193.709 455.56 192.848 458.479 192.848C461.564 192.848 463.982 193.664 465.734 195.296C467.486 196.928 468.362 199.197 468.362 202.102C468.362 203.524 467.898 204.902 466.97 206.234C466.056 207.567 464.806 208.563 463.219 209.222C465.016 209.791 466.401 210.734 467.374 212.052C468.362 213.369 468.856 214.979 468.856 216.881C468.856 219.816 467.898 222.144 465.981 223.866C464.065 225.588 461.572 226.449 458.502 226.449C455.432 226.449 452.932 225.618 451 223.956C449.083 222.294 448.125 220.1 448.125 217.375H452.303C452.303 219.097 452.864 220.475 453.987 221.508C455.11 222.541 456.615 223.058 458.502 223.058C460.508 223.058 462.043 222.534 463.106 221.485C464.17 220.437 464.701 218.932 464.701 216.971C464.701 215.069 464.117 213.609 462.949 212.591C461.781 211.573 460.097 211.049 457.896 211.019H454.773V207.627Z" fill="white"/>
<path d="M490.868 193.274V196.801H490.104C486.87 196.861 484.295 197.819 482.378 199.676C480.461 201.533 479.353 204.146 479.054 207.515C480.776 205.538 483.127 204.55 486.106 204.55C488.951 204.55 491.22 205.553 492.912 207.56C494.619 209.566 495.473 212.157 495.473 215.331C495.473 218.7 494.552 221.396 492.71 223.417C490.883 225.438 488.427 226.449 485.343 226.449C482.213 226.449 479.675 225.251 477.729 222.855C475.782 220.445 474.809 217.345 474.809 213.557V211.962C474.809 205.942 476.089 201.345 478.649 198.171C481.225 194.981 485.051 193.349 490.127 193.274H490.868ZM485.41 208.009C483.988 208.009 482.677 208.436 481.479 209.289C480.282 210.143 479.451 211.213 478.986 212.501V214.028C478.986 216.724 479.593 218.895 480.806 220.542C482.019 222.189 483.531 223.013 485.343 223.013C487.215 223.013 488.682 222.324 489.745 220.946C490.823 219.569 491.362 217.764 491.362 215.533C491.362 213.287 490.816 211.475 489.723 210.098C488.645 208.705 487.207 208.009 485.41 208.009Z" fill="white"/>
<path d="M510.409 212.95C510.409 216.289 509.967 219.494 509.084 222.563C508.215 225.618 506.875 228.441 505.063 231.031C503.267 233.622 501.38 235.464 499.403 236.557L498.527 234.019C500.833 232.252 502.683 229.511 504.075 225.798C505.483 222.069 506.201 217.937 506.231 213.399V212.681C506.231 209.536 505.902 206.616 505.243 203.921C504.584 201.211 503.663 198.785 502.48 196.644C501.312 194.502 499.995 192.833 498.527 191.635L499.403 189.097C501.38 190.19 503.259 192.017 505.041 194.577C506.838 197.138 508.178 199.96 509.062 203.045C509.96 206.13 510.409 209.431 510.409 212.95Z" fill="white"/>
<path d="M590.887 207.627H594.009C595.97 207.597 597.513 207.08 598.636 206.077C599.759 205.074 600.32 203.719 600.32 202.012C600.32 198.178 598.411 196.262 594.593 196.262C592.796 196.262 591.358 196.778 590.28 197.812C589.217 198.83 588.686 200.185 588.686 201.877H584.53C584.53 199.286 585.474 197.138 587.36 195.431C589.262 193.709 591.673 192.848 594.593 192.848C597.677 192.848 600.096 193.664 601.848 195.296C603.6 196.928 604.476 199.197 604.476 202.102C604.476 203.524 604.011 204.902 603.083 206.234C602.17 207.567 600.919 208.563 599.332 209.222C601.129 209.791 602.514 210.734 603.487 212.052C604.476 213.369 604.97 214.979 604.97 216.881C604.97 219.816 604.011 222.144 602.095 223.866C600.178 225.588 597.685 226.449 594.615 226.449C591.546 226.449 589.045 225.618 587.113 223.956C585.197 222.294 584.238 220.1 584.238 217.375H588.416C588.416 219.097 588.978 220.475 590.101 221.508C591.224 222.541 592.729 223.058 594.615 223.058C596.622 223.058 598.157 222.534 599.22 221.485C600.283 220.437 600.814 218.932 600.814 216.971C600.814 215.069 600.23 213.609 599.062 212.591C597.895 211.573 596.21 211.049 594.009 211.019H590.887V207.627Z" fill="white"/>
<path d="M360.146 303H338.718V300.013L350.038 287.435C351.715 285.533 352.868 283.991 353.497 282.808C354.141 281.61 354.463 280.374 354.463 279.102C354.463 277.395 353.946 275.994 352.913 274.901C351.88 273.808 350.502 273.262 348.78 273.262C346.714 273.262 345.104 273.853 343.951 275.036C342.813 276.204 342.244 277.836 342.244 279.933H338.089C338.089 276.923 339.055 274.49 340.986 272.633C342.933 270.776 345.531 269.848 348.78 269.848C351.82 269.848 354.223 270.649 355.99 272.251C357.757 273.838 358.641 275.957 358.641 278.607C358.641 281.827 356.589 285.66 352.486 290.107L343.727 299.608H360.146V303Z" fill="white"/>
<path d="M433.278 289.726C433.278 286.341 433.728 283.092 434.626 279.978C435.539 276.863 436.895 274.033 438.691 271.487C440.488 268.942 442.353 267.145 444.284 266.097L445.138 268.837C442.951 270.514 441.155 273.075 439.747 276.519C438.354 279.963 437.591 283.818 437.456 288.086L437.434 289.995C437.434 295.775 438.489 300.791 440.601 305.044C441.873 307.59 443.386 309.581 445.138 311.019L444.284 313.557C442.293 312.449 440.391 310.592 438.579 307.986C435.045 302.895 433.278 296.808 433.278 289.726Z" fill="white"/>
<path d="M468.722 287.569L474.112 278.697H478.964L471.013 290.714L479.211 303H474.404L468.789 293.903L463.174 303H458.345L466.543 290.714L458.592 278.697H463.398L468.722 287.569Z" fill="white"/>
<path d="M504.39 289.95C504.39 293.289 503.948 296.494 503.064 299.563C502.196 302.618 500.856 305.441 499.044 308.031C497.247 310.622 495.36 312.464 493.384 313.557L492.508 311.019C494.814 309.252 496.663 306.511 498.056 302.798C499.463 299.069 500.182 294.937 500.212 290.399V289.681C500.212 286.536 499.882 283.616 499.224 280.921C498.565 278.211 497.644 275.785 496.461 273.644C495.293 271.502 493.975 269.833 492.508 268.635L493.384 266.097C495.36 267.19 497.24 269.017 499.021 271.577C500.818 274.138 502.159 276.96 503.042 280.045C503.94 283.13 504.39 286.431 504.39 289.95Z" fill="white"/>
<path d="M580.734 286.604L582.396 270.297H599.152V274.138H585.923L584.935 283.055C586.537 282.111 588.356 281.64 590.393 281.64C593.372 281.64 595.738 282.628 597.49 284.604C599.242 286.566 600.118 289.224 600.118 292.578C600.118 295.947 599.205 298.605 597.378 300.552C595.566 302.483 593.028 303.449 589.764 303.449C586.874 303.449 584.515 302.648 582.688 301.046C580.862 299.444 579.821 297.228 579.566 294.397H583.497C583.752 296.269 584.418 297.684 585.496 298.643C586.574 299.586 587.997 300.058 589.764 300.058C591.695 300.058 593.208 299.399 594.301 298.081C595.409 296.763 595.963 294.944 595.963 292.623C595.963 290.437 595.364 288.685 594.166 287.367C592.983 286.035 591.403 285.368 589.427 285.368C587.615 285.368 586.192 285.765 585.159 286.559L584.059 287.457L580.734 286.604Z" fill="white"/>
</g>
<g id="flecha">
<path id="Rectangle 2" d="M734.2 472.008L749.482 480.133L707.5 559.089L692.219 550.963L734.2 472.008Z" fill="#1043F5"/>
<path id="Rectangle 1_2" d="M676 484.904L766 435V492.692L721 475.096L676 484.904Z" fill="#1043F5"/>
<path id="Rectangle 3" d="M680.038 554.21L695.666 527.143L712.936 526.565L697.309 553.632L680.038 554.21Z" fill="#1043F5"/>
<path id="Rectangle 4_2" d="M706.089 568.845L721.717 541.778L712.926 526.154L697.299 553.221L706.089 568.845Z" fill="#1043F5"/>
</g>
</g>
</svg>
