<svg viewBox="0 0 745 418" fill="none" xmlns="http://www.w3.org/2000/svg">
<g id="0119205">
<g id="12 (15) 18 20 (29) 38 36 ( x ) 12">
<path d="M14.374 70H10.1963V42.3057L1.81836 45.3828V41.6094L13.7227 37.1396H14.374V70Z" fill="white"/>
<path d="M47.9756 70H26.5479V67.0127L37.8682 54.4346C39.5452 52.5329 40.6982 50.9906 41.3271 49.8076C41.971 48.6097 42.293 47.3743 42.293 46.1016C42.293 44.3945 41.7764 42.9945 40.7432 41.9014C39.71 40.8083 38.3324 40.2617 36.6104 40.2617C34.5439 40.2617 32.9342 40.8532 31.7812 42.0361C30.6432 43.2041 30.0742 44.8363 30.0742 46.9326H25.9189C25.9189 43.9229 26.8848 41.4896 28.8164 39.6328C30.763 37.776 33.361 36.8477 36.6104 36.8477C39.6501 36.8477 42.0534 37.6488 43.8203 39.251C45.5872 40.8382 46.4707 42.957 46.4707 45.6074C46.4707 48.8268 44.4193 52.6602 40.3164 57.1074L31.5566 66.6084H47.9756V70Z" fill="white"/>
<path d="M98.2881 56.7256C98.2881 53.3415 98.7373 50.0921 99.6357 46.9775C100.549 43.863 101.904 41.0329 103.701 38.4873C105.498 35.9417 107.362 34.1449 109.294 33.0967L110.147 35.8369C107.961 37.514 106.164 40.0745 104.757 43.5186C103.364 46.9626 102.601 50.8184 102.466 55.0859L102.443 56.9951C102.443 62.7751 103.499 67.7913 105.61 72.0439C106.883 74.5895 108.396 76.5811 110.147 78.0186L109.294 80.5566C107.302 79.4486 105.401 77.5918 103.589 74.9863C100.055 69.8952 98.2881 63.8083 98.2881 56.7256Z" fill="white"/>
<path d="M127.397 70H123.22V42.3057L114.842 45.3828V41.6094L126.746 37.1396H127.397V70Z" fill="white"/>
<path d="M141.48 53.6035L143.143 37.2969H159.898V41.1377H146.669L145.681 50.0547C147.283 49.1113 149.102 48.6396 151.139 48.6396C154.118 48.6396 156.484 49.6279 158.236 51.6045C159.988 53.5661 160.864 56.224 160.864 59.5781C160.864 62.9473 159.951 65.6051 158.124 67.5518C156.312 69.4834 153.774 70.4492 150.51 70.4492C147.62 70.4492 145.261 69.6481 143.435 68.0459C141.608 66.4437 140.567 64.2275 140.312 61.3975H144.243C144.498 63.2692 145.164 64.6842 146.242 65.6426C147.32 66.5859 148.743 67.0576 150.51 67.0576C152.441 67.0576 153.954 66.3988 155.047 65.0811C156.155 63.7633 156.709 61.944 156.709 59.623C156.709 57.4368 156.11 55.6849 154.912 54.3672C153.729 53.0345 152.149 52.3682 150.173 52.3682C148.361 52.3682 146.938 52.765 145.905 53.5586L144.805 54.457L141.48 53.6035Z" fill="white"/>
<path d="M175.419 56.9502C175.419 60.2894 174.977 63.4938 174.094 66.5635C173.225 69.6182 171.885 72.4408 170.073 75.0312C168.276 77.6217 166.39 79.4635 164.413 80.5566L163.537 78.0186C165.843 76.2516 167.692 73.5114 169.085 69.7979C170.493 66.0693 171.211 61.9365 171.241 57.3994V56.6807C171.241 53.5361 170.912 50.6162 170.253 47.9209C169.594 45.2106 168.673 42.7848 167.49 40.6436C166.322 38.5023 165.005 36.8327 163.537 35.6348L164.413 33.0967C166.39 34.1898 168.269 36.0166 170.051 38.5771C171.848 41.1377 173.188 43.9603 174.071 47.0449C174.97 50.1296 175.419 53.4313 175.419 56.9502Z" fill="white"/>
<path d="M252.101 70H247.923V42.3057L239.545 45.3828V41.6094L251.449 37.1396H252.101V70Z" fill="white"/>
<path d="M284.107 45.832C284.107 47.4642 283.673 48.9167 282.805 50.1895C281.951 51.4622 280.791 52.458 279.323 53.1768C281.03 53.9105 282.378 54.9811 283.366 56.3887C284.369 57.7962 284.871 59.391 284.871 61.1729C284.871 64.0029 283.913 66.2565 281.996 67.9336C280.094 69.6107 277.586 70.4492 274.472 70.4492C271.327 70.4492 268.804 69.6107 266.902 67.9336C265.016 66.2415 264.072 63.988 264.072 61.1729C264.072 59.4059 264.551 57.8112 265.51 56.3887C266.483 54.9661 267.823 53.888 269.53 53.1543C268.078 52.4355 266.932 51.4398 266.094 50.167C265.255 48.8942 264.836 47.4492 264.836 45.832C264.836 43.0768 265.719 40.8906 267.486 39.2734C269.253 37.6562 271.582 36.8477 274.472 36.8477C277.347 36.8477 279.668 37.6562 281.435 39.2734C283.216 40.8906 284.107 43.0768 284.107 45.832ZM280.716 61.083C280.716 59.2562 280.132 57.7663 278.964 56.6133C277.811 55.4603 276.299 54.8838 274.427 54.8838C272.555 54.8838 271.05 55.4528 269.912 56.5908C268.789 57.7288 268.228 59.2262 268.228 61.083C268.228 62.9398 268.774 64.3997 269.867 65.4629C270.975 66.526 272.51 67.0576 274.472 67.0576C276.418 67.0576 277.946 66.526 279.054 65.4629C280.162 64.3848 280.716 62.9248 280.716 61.083ZM274.472 40.2617C272.84 40.2617 271.514 40.7708 270.496 41.7891C269.493 42.7923 268.991 44.1624 268.991 45.8994C268.991 47.5615 269.485 48.9092 270.474 49.9424C271.477 50.9606 272.81 51.4697 274.472 51.4697C276.134 51.4697 277.459 50.9606 278.447 49.9424C279.451 48.9092 279.952 47.5615 279.952 45.8994C279.952 44.2373 279.436 42.8822 278.402 41.834C277.369 40.7858 276.059 40.2617 274.472 40.2617Z" fill="white"/>
<path d="M22.1455 147H0.717773V144.013L12.0381 131.435C13.7152 129.533 14.8682 127.991 15.4971 126.808C16.141 125.61 16.4629 124.374 16.4629 123.102C16.4629 121.395 15.9463 119.994 14.9131 118.901C13.8799 117.808 12.5023 117.262 10.7803 117.262C8.71387 117.262 7.10417 117.853 5.95117 119.036C4.81315 120.204 4.24414 121.836 4.24414 123.933H0.0888672C0.0888672 120.923 1.05469 118.49 2.98633 116.633C4.93294 114.776 7.53092 113.848 10.7803 113.848C13.82 113.848 16.2233 114.649 17.9902 116.251C19.7572 117.838 20.6406 119.957 20.6406 122.607C20.6406 125.827 18.5892 129.66 14.4863 134.107L5.72656 143.608H22.1455V147Z" fill="white"/>
<path d="M47.0547 133.052C47.0547 137.918 46.2236 141.535 44.5615 143.9C42.8994 146.266 40.3014 147.449 36.7676 147.449C33.2786 147.449 30.6956 146.296 29.0186 143.99C27.3415 141.669 26.473 138.21 26.4131 133.613V128.065C26.4131 123.259 27.2441 119.688 28.9062 117.352C30.5684 115.016 33.1738 113.848 36.7227 113.848C40.2415 113.848 42.832 114.978 44.4941 117.239C46.1562 119.485 47.0098 122.959 47.0547 127.661V133.052ZM42.8994 127.369C42.8994 123.85 42.4053 121.29 41.417 119.688C40.4287 118.07 38.8639 117.262 36.7227 117.262C34.5964 117.262 33.0465 118.063 32.0732 119.665C31.0999 121.267 30.5983 123.73 30.5684 127.055V133.703C30.5684 137.237 31.0775 139.85 32.0957 141.542C33.1289 143.219 34.6862 144.058 36.7676 144.058C38.819 144.058 40.3389 143.264 41.3271 141.677C42.3304 140.09 42.8545 137.589 42.8994 134.175V127.369Z" fill="white"/>
<path d="M109.698 133.726C109.698 130.341 110.147 127.092 111.046 123.978C111.959 120.863 113.314 118.033 115.111 115.487C116.908 112.942 118.772 111.145 120.704 110.097L121.558 112.837C119.371 114.514 117.575 117.075 116.167 120.519C114.774 123.963 114.011 127.818 113.876 132.086L113.854 133.995C113.854 139.775 114.909 144.791 117.021 149.044C118.293 151.59 119.806 153.581 121.558 155.019L120.704 157.557C118.713 156.449 116.811 154.592 114.999 151.986C111.465 146.895 109.698 140.808 109.698 133.726Z" fill="white"/>
<path d="M146.579 147H125.151V144.013L136.472 131.435C138.149 129.533 139.302 127.991 139.931 126.808C140.575 125.61 140.896 124.374 140.896 123.102C140.896 121.395 140.38 119.994 139.347 118.901C138.313 117.808 136.936 117.262 135.214 117.262C133.147 117.262 131.538 117.853 130.385 119.036C129.247 120.204 128.678 121.836 128.678 123.933H124.522C124.522 120.923 125.488 118.49 127.42 116.633C129.367 114.776 131.965 113.848 135.214 113.848C138.254 113.848 140.657 114.649 142.424 116.251C144.191 117.838 145.074 119.957 145.074 122.607C145.074 125.827 143.023 129.66 138.92 134.107L130.16 143.608H146.579V147Z" fill="white"/>
<path d="M166.906 132.625C166.038 133.658 164.997 134.489 163.784 135.118C162.586 135.747 161.269 136.062 159.831 136.062C157.944 136.062 156.297 135.597 154.89 134.669C153.497 133.741 152.419 132.438 151.655 130.761C150.892 129.069 150.51 127.204 150.51 125.168C150.51 122.982 150.922 121.013 151.745 119.261C152.584 117.509 153.767 116.169 155.294 115.24C156.821 114.312 158.603 113.848 160.64 113.848C163.874 113.848 166.42 115.061 168.276 117.486C170.148 119.897 171.084 123.191 171.084 127.369V128.582C171.084 134.946 169.826 139.595 167.311 142.53C164.795 145.45 160.999 146.948 155.923 147.022H155.114V143.519H155.99C159.419 143.459 162.055 142.568 163.896 140.846C165.738 139.109 166.742 136.368 166.906 132.625ZM160.505 132.625C161.897 132.625 163.178 132.198 164.346 131.345C165.529 130.491 166.39 129.436 166.929 128.178V126.516C166.929 123.79 166.337 121.574 165.154 119.867C163.971 118.16 162.474 117.307 160.662 117.307C158.835 117.307 157.368 118.01 156.26 119.418C155.152 120.811 154.598 122.652 154.598 124.943C154.598 127.174 155.129 129.016 156.192 130.469C157.271 131.906 158.708 132.625 160.505 132.625Z" fill="white"/>
<path d="M186.829 133.95C186.829 137.289 186.387 140.494 185.504 143.563C184.635 146.618 183.295 149.441 181.483 152.031C179.687 154.622 177.8 156.464 175.823 157.557L174.947 155.019C177.253 153.252 179.103 150.511 180.495 146.798C181.903 143.069 182.621 138.937 182.651 134.399V133.681C182.651 130.536 182.322 127.616 181.663 124.921C181.004 122.211 180.083 119.785 178.9 117.644C177.732 115.502 176.415 113.833 174.947 112.635L175.823 110.097C177.8 111.19 179.679 113.017 181.461 115.577C183.258 118.138 184.598 120.96 185.481 124.045C186.38 127.13 186.829 130.431 186.829 133.95Z" fill="white"/>
<path d="M255.896 128.627H259.019C260.98 128.597 262.522 128.08 263.646 127.077C264.769 126.074 265.33 124.719 265.33 123.012C265.33 119.178 263.421 117.262 259.603 117.262C257.806 117.262 256.368 117.778 255.29 118.812C254.227 119.83 253.695 121.185 253.695 122.877H249.54C249.54 120.286 250.483 118.138 252.37 116.431C254.272 114.709 256.683 113.848 259.603 113.848C262.687 113.848 265.105 114.664 266.857 116.296C268.609 117.928 269.485 120.197 269.485 123.102C269.485 124.524 269.021 125.902 268.093 127.234C267.179 128.567 265.929 129.563 264.342 130.222C266.139 130.791 267.524 131.734 268.497 133.052C269.485 134.369 269.979 135.979 269.979 137.881C269.979 140.816 269.021 143.144 267.104 144.866C265.188 146.588 262.695 147.449 259.625 147.449C256.555 147.449 254.055 146.618 252.123 144.956C250.206 143.294 249.248 141.1 249.248 138.375H253.426C253.426 140.097 253.987 141.475 255.11 142.508C256.233 143.541 257.738 144.058 259.625 144.058C261.632 144.058 263.166 143.534 264.229 142.485C265.293 141.437 265.824 139.932 265.824 137.971C265.824 136.069 265.24 134.609 264.072 133.591C262.904 132.573 261.22 132.049 259.019 132.019H255.896V128.627Z" fill="white"/>
<path d="M295.518 122.832C295.518 124.464 295.083 125.917 294.215 127.189C293.361 128.462 292.201 129.458 290.733 130.177C292.44 130.91 293.788 131.981 294.776 133.389C295.78 134.796 296.281 136.391 296.281 138.173C296.281 141.003 295.323 143.257 293.406 144.934C291.505 146.611 288.996 147.449 285.882 147.449C282.737 147.449 280.214 146.611 278.312 144.934C276.426 143.242 275.482 140.988 275.482 138.173C275.482 136.406 275.962 134.811 276.92 133.389C277.893 131.966 279.233 130.888 280.94 130.154C279.488 129.436 278.342 128.44 277.504 127.167C276.665 125.894 276.246 124.449 276.246 122.832C276.246 120.077 277.13 117.891 278.896 116.273C280.663 114.656 282.992 113.848 285.882 113.848C288.757 113.848 291.078 114.656 292.845 116.273C294.627 117.891 295.518 120.077 295.518 122.832ZM292.126 138.083C292.126 136.256 291.542 134.766 290.374 133.613C289.221 132.46 287.709 131.884 285.837 131.884C283.965 131.884 282.46 132.453 281.322 133.591C280.199 134.729 279.638 136.226 279.638 138.083C279.638 139.94 280.184 141.4 281.277 142.463C282.385 143.526 283.92 144.058 285.882 144.058C287.828 144.058 289.356 143.526 290.464 142.463C291.572 141.385 292.126 139.925 292.126 138.083ZM285.882 117.262C284.25 117.262 282.924 117.771 281.906 118.789C280.903 119.792 280.401 121.162 280.401 122.899C280.401 124.562 280.896 125.909 281.884 126.942C282.887 127.961 284.22 128.47 285.882 128.47C287.544 128.47 288.869 127.961 289.857 126.942C290.861 125.909 291.362 124.562 291.362 122.899C291.362 121.237 290.846 119.882 289.812 118.834C288.779 117.786 287.469 117.262 285.882 117.262Z" fill="white"/>
<path d="M18.1699 205.627H21.292C23.2536 205.597 24.7959 205.08 25.9189 204.077C27.042 203.074 27.6035 201.719 27.6035 200.012C27.6035 196.178 25.6943 194.262 21.876 194.262C20.0791 194.262 18.6416 194.778 17.5635 195.812C16.5003 196.83 15.9688 198.185 15.9688 199.877H11.8135C11.8135 197.286 12.7568 195.138 14.6436 193.431C16.5452 191.709 18.9561 190.848 21.876 190.848C24.9606 190.848 27.3789 191.664 29.1309 193.296C30.8828 194.928 31.7588 197.197 31.7588 200.102C31.7588 201.524 31.2946 202.902 30.3662 204.234C29.4528 205.567 28.2025 206.563 26.6152 207.222C28.4121 207.791 29.7972 208.734 30.7705 210.052C31.7588 211.369 32.2529 212.979 32.2529 214.881C32.2529 217.816 31.2946 220.144 29.3779 221.866C27.4613 223.588 24.9681 224.449 21.8984 224.449C18.8288 224.449 16.3281 223.618 14.3965 221.956C12.4798 220.294 11.5215 218.1 11.5215 215.375H15.6992C15.6992 217.097 16.2607 218.475 17.3838 219.508C18.5068 220.541 20.0117 221.058 21.8984 221.058C23.9049 221.058 25.4398 220.534 26.5029 219.485C27.5661 218.437 28.0977 216.932 28.0977 214.971C28.0977 213.069 27.5137 211.609 26.3457 210.591C25.1777 209.573 23.4932 209.049 21.292 209.019H18.1699V205.627Z" fill="white"/>
<path d="M54.2646 191.274V194.801H53.501C50.2666 194.861 47.6911 195.819 45.7744 197.676C43.8577 199.533 42.7497 202.146 42.4502 205.515C44.1722 203.538 46.5231 202.55 49.5029 202.55C52.348 202.55 54.6165 203.553 56.3086 205.56C58.0156 207.566 58.8691 210.157 58.8691 213.331C58.8691 216.7 57.9482 219.396 56.1064 221.417C54.2796 223.438 51.8239 224.449 48.7393 224.449C45.6097 224.449 43.0716 223.251 41.125 220.855C39.1784 218.445 38.2051 215.345 38.2051 211.557V209.962C38.2051 203.942 39.4854 199.345 42.0459 196.171C44.6214 192.981 48.4473 191.349 53.5234 191.274H54.2646ZM48.8066 206.009C47.3841 206.009 46.0739 206.436 44.876 207.289C43.6781 208.143 42.847 209.213 42.3828 210.501V212.028C42.3828 214.724 42.9893 216.895 44.2021 218.542C45.415 220.189 46.9274 221.013 48.7393 221.013C50.611 221.013 52.0785 220.324 53.1416 218.946C54.2197 217.569 54.7588 215.764 54.7588 213.533C54.7588 211.287 54.2122 209.475 53.1191 208.098C52.041 206.705 50.6035 206.009 48.8066 206.009Z" fill="white"/>
<path d="M109.698 210.726C109.698 207.341 110.147 204.092 111.046 200.978C111.959 197.863 113.314 195.033 115.111 192.487C116.908 189.942 118.772 188.145 120.704 187.097L121.558 189.837C119.371 191.514 117.575 194.075 116.167 197.519C114.774 200.963 114.011 204.818 113.876 209.086L113.854 210.995C113.854 216.775 114.909 221.791 117.021 226.044C118.293 228.59 119.806 230.581 121.558 232.019L120.704 234.557C118.713 233.449 116.811 231.592 114.999 228.986C111.465 223.895 109.698 217.808 109.698 210.726Z" fill="white"/>
<path d="M145.142 208.569L150.532 199.697H155.384L147.433 211.714L155.631 224H150.824L145.209 214.903L139.594 224H134.765L142.963 211.714L135.012 199.697H139.818L145.142 208.569Z" fill="white"/>
<path d="M180.81 210.95C180.81 214.289 180.368 217.494 179.484 220.563C178.616 223.618 177.276 226.441 175.464 229.031C173.667 231.622 171.78 233.464 169.804 234.557L168.928 232.019C171.234 230.252 173.083 227.511 174.476 223.798C175.883 220.069 176.602 215.937 176.632 211.399V210.681C176.632 207.536 176.302 204.616 175.644 201.921C174.985 199.211 174.064 196.785 172.881 194.644C171.713 192.502 170.395 190.833 168.928 189.635L169.804 187.097C171.78 188.19 173.66 190.017 175.441 192.577C177.238 195.138 178.578 197.96 179.462 201.045C180.36 204.13 180.81 207.431 180.81 210.95Z" fill="white"/>
<path d="M268.901 224H264.724V196.306L256.346 199.383V195.609L268.25 191.14H268.901V224Z" fill="white"/>
<path d="M302.503 224H281.075V221.013L292.396 208.435C294.073 206.533 295.226 204.991 295.854 203.808C296.498 202.61 296.82 201.374 296.82 200.102C296.82 198.395 296.304 196.994 295.271 195.901C294.237 194.808 292.86 194.262 291.138 194.262C289.071 194.262 287.462 194.853 286.309 196.036C285.171 197.204 284.602 198.836 284.602 200.933H280.446C280.446 197.923 281.412 195.49 283.344 193.633C285.29 191.776 287.888 190.848 291.138 190.848C294.177 190.848 296.581 191.649 298.348 193.251C300.115 194.838 300.998 196.957 300.998 199.607C300.998 202.827 298.947 206.66 294.844 211.107L286.084 220.608H302.503V224Z" fill="white"/>
</g>
<g id="Group 76">
<g id="\Rightarrow \frac{12+18}{2}=\frac{30}{2}=15 \; \Rightarrow \frac{20+38}{2}= \frac{58}{2}=29">
<g id="Group">
<g id="Group 21">
<g id="Group_2">
<path id="Vector" d="M396.379 30.6213C396.379 30.3501 396.576 30.2145 396.97 30.2145C397.094 30.2145 397.192 30.2145 397.266 30.2145C397.34 30.2145 397.402 30.2145 397.451 30.2145C397.5 30.2145 397.55 30.2269 397.599 30.2515C397.648 30.2762 397.673 30.2885 397.673 30.2885C397.673 30.2885 397.698 30.3255 397.747 30.3995C397.796 30.4734 397.821 30.5104 397.821 30.5104C397.821 30.5104 397.858 30.572 397.932 30.6953C398.844 32.5198 400.052 34.1347 401.556 35.54C403.06 36.9453 404.428 37.9438 405.661 38.5355C406.894 39.1273 408.077 39.5834 409.212 39.9039C409.631 40.0272 409.84 40.1874 409.84 40.3847C409.84 40.5819 409.729 40.7175 409.507 40.7915C409.285 40.8654 408.829 41.001 408.139 41.1983C407.449 41.3955 406.734 41.6914 405.994 42.0858C402.444 43.8117 399.756 46.4744 397.932 50.074C397.833 50.2959 397.747 50.4192 397.673 50.4438C397.599 50.4685 397.414 50.4931 397.118 50.5178C396.625 50.5178 396.379 50.4315 396.379 50.2589C396.379 50.1603 396.44 49.9507 396.564 49.6302C397.427 47.929 398.487 46.4128 399.744 45.0814L400.114 44.7116H377.518C377.173 44.539 377 44.2924 377 43.9719C377 43.6021 377.197 43.3556 377.592 43.2323H401.741L402.111 42.9364C403.072 42.1968 404.515 41.3462 406.438 40.3847C406.413 40.36 406.191 40.2491 405.772 40.0518C405.353 39.8546 404.798 39.5587 404.108 39.1642C403.418 38.7698 402.752 38.326 402.111 37.8329L401.741 37.537H377.592C377.197 37.4137 377 37.1672 377 36.7974C377 36.4769 377.173 36.2303 377.518 36.0577H400.114L399.744 35.6879C398.93 34.825 398.166 33.8265 397.451 32.6923C396.736 31.5582 396.379 30.8679 396.379 30.6213Z" fill="white"/>
</g>
<g id="Group_3">
<g id="Group_4">
<g id="Group_5">
<path id="Vector_2" d="M438.199 3.25448L437.718 3.43939C437.373 3.56267 436.88 3.68594 436.239 3.80921C435.597 3.93249 434.882 4.01878 434.094 4.06809H433.391V2.36691H434.094C435.252 2.3176 436.325 2.13268 437.311 1.81217C438.297 1.49166 438.988 1.1958 439.382 0.924599C439.776 0.653396 440.122 0.382194 440.417 0.110991C440.467 0.037026 440.615 4.19617e-05 440.861 4.19617e-05C441.083 4.19617e-05 441.293 0.0740082 441.49 0.221937V11.2796L441.527 22.3743C441.7 22.5469 441.847 22.6578 441.971 22.7071C442.094 22.7565 442.39 22.8058 442.858 22.8551C443.327 22.9044 444.091 22.929 445.151 22.929H446.113V24.6302H445.706C445.188 24.5563 443.228 24.5193 439.826 24.5193C436.473 24.5193 434.537 24.5563 434.02 24.6302H433.576V22.929H434.537C435.08 22.929 435.548 22.929 435.943 22.929C436.337 22.929 436.645 22.9167 436.867 22.8921C437.089 22.8674 437.286 22.8304 437.459 22.7811C437.631 22.7318 437.73 22.7071 437.755 22.7071C437.779 22.7071 437.853 22.6455 437.977 22.5222C438.1 22.399 438.174 22.3496 438.199 22.3743V3.25448Z" fill="white"/>
<path id="Vector_3" d="M452.843 8.76484C452.178 8.76484 451.648 8.54294 451.253 8.09916C450.859 7.65537 450.661 7.11296 450.661 6.47194C450.661 4.72144 451.315 3.20517 452.621 1.92312C453.928 0.641069 455.555 4.19617e-05 457.503 4.19617e-05C459.747 4.19617e-05 461.62 0.690378 463.124 2.07105C464.628 3.45172 465.393 5.23919 465.417 7.43347C465.417 8.49363 465.171 9.50448 464.678 10.466C464.185 11.4276 463.593 12.2658 462.903 12.9808C462.212 13.6958 461.226 14.608 459.944 15.7175C459.056 16.4818 457.824 17.6159 456.246 19.1199L454.064 21.1909L456.874 21.2279C460.745 21.2279 462.804 21.1662 463.05 21.0429C463.223 20.9936 463.519 19.8965 463.938 17.7515V17.6406H465.417V17.7515C465.393 17.8255 465.232 18.9473 464.937 21.1169C464.641 23.2865 464.456 24.4207 464.382 24.5193V24.6302H450.661V23.9276V23.4838C450.661 23.3112 450.735 23.1263 450.883 22.929C451.031 22.7318 451.401 22.3003 451.993 21.6347C452.708 20.8457 453.324 20.1554 453.842 19.5637C454.064 19.3171 454.483 18.861 455.099 18.1953C455.716 17.5296 456.135 17.0735 456.357 16.827C456.579 16.5804 456.936 16.1736 457.429 15.6066C457.922 15.0395 458.267 14.6204 458.465 14.3492C458.662 14.078 458.945 13.7081 459.315 13.2397C459.685 12.7712 459.944 12.3768 460.092 12.0563C460.24 11.7357 460.425 11.3782 460.647 10.9838C460.868 10.5893 461.029 10.1948 461.127 9.80034C461.226 9.40586 461.312 9.03604 461.386 8.69087C461.46 8.3457 461.497 7.9389 461.497 7.47046C461.497 5.9172 461.078 4.57351 460.24 3.43939C459.402 2.30527 458.206 1.73821 456.653 1.73821C455.839 1.73821 455.124 1.94778 454.508 2.36691C453.891 2.78604 453.46 3.19284 453.213 3.58732C452.967 3.9818 452.843 4.21602 452.843 4.28998C452.843 4.31464 452.905 4.32697 453.028 4.32697C453.472 4.32697 453.928 4.49955 454.397 4.84472C454.865 5.18988 455.099 5.75695 455.099 6.5459C455.099 7.16227 454.902 7.68002 454.508 8.09916C454.113 8.51829 453.558 8.74018 452.843 8.76484Z" fill="white"/>
</g>
<g id="Group_6">
<path id="Vector_4" d="M477.592 15.8654C477.592 15.8654 477.592 15.7051 477.592 15.3846C477.592 15.0641 477.765 14.8176 478.11 14.645H489.168V9.09763L489.205 3.55029C489.451 3.22978 489.685 3.06953 489.907 3.06953C490.228 3.06953 490.474 3.25444 490.647 3.62426V14.645H501.668C502.038 14.8422 502.222 15.0888 502.222 15.3846C502.222 15.6805 502.038 15.927 501.668 16.1243H490.647V27.145C490.45 27.4901 490.228 27.6627 489.981 27.6627H489.907H489.833C489.538 27.6627 489.316 27.4901 489.168 27.145V16.1243H478.11C477.765 15.9517 477.592 15.7051 477.592 15.3846V15.8654Z" fill="white"/>
</g>
<g id="Group_7">
<path id="Vector_5" d="M520.388 3.25448L519.907 3.43939C519.562 3.56267 519.068 3.68594 518.427 3.80921C517.786 3.93249 517.071 4.01878 516.282 4.06809H515.58V2.36691H516.282C517.441 2.3176 518.514 2.13268 519.5 1.81217C520.486 1.49166 521.176 1.1958 521.571 0.924599C521.965 0.653396 522.311 0.382194 522.606 0.110991C522.656 0.037026 522.804 4.19617e-05 523.05 4.19617e-05C523.272 4.19617e-05 523.482 0.0740082 523.679 0.221937V11.2796L523.716 22.3743C523.889 22.5469 524.036 22.6578 524.16 22.7071C524.283 22.7565 524.579 22.8058 525.047 22.8551C525.516 22.9044 526.28 22.929 527.34 22.929H528.302V24.6302H527.895C527.377 24.5563 525.417 24.5193 522.015 24.5193C518.662 24.5193 516.726 24.5563 516.209 24.6302H515.765V22.929H516.726C517.269 22.929 517.737 22.929 518.132 22.929C518.526 22.929 518.834 22.9167 519.056 22.8921C519.278 22.8674 519.475 22.8304 519.648 22.7811C519.82 22.7318 519.919 22.7071 519.944 22.7071C519.968 22.7071 520.042 22.6455 520.166 22.5222C520.289 22.399 520.363 22.3496 520.388 22.3743V3.25448Z" fill="white"/>
<path id="Vector_6" d="M533.59 9.20861C533.59 9.20861 533.59 8.2594 533.59 6.36098C533.59 4.46256 534.256 2.93396 535.587 1.77518C536.918 0.616404 538.447 0.0246873 540.173 3.24249e-05C541.923 3.24249e-05 543.477 0.517783 544.833 1.55329C546.189 2.58879 546.867 3.93248 546.867 5.58435C546.867 6.324 546.731 7.01433 546.46 7.65536C546.189 8.29638 545.868 8.81413 545.498 9.20861C545.129 9.60309 544.746 9.94826 544.352 10.2441C543.957 10.54 543.637 10.7619 543.39 10.9098C543.144 11.0577 543.008 11.1563 542.984 11.2057L543.501 11.5385C543.846 11.785 544.192 12.0316 544.537 12.2781C544.882 12.5247 545.079 12.6603 545.129 12.6849C546.978 14.1396 547.902 15.9764 547.902 18.1953C547.902 20.143 547.187 21.8319 545.757 23.2619C544.327 24.6918 542.478 25.4192 540.21 25.4438C537.991 25.4438 536.167 24.8151 534.737 23.5577C533.307 22.3003 532.592 20.7471 532.592 18.898C532.592 16.2352 534.182 14.0163 537.362 12.2412L536.697 11.7604C536.179 11.4399 535.846 11.1933 535.698 11.0207C534.293 9.81265 533.59 8.2594 533.59 6.36098V9.20861ZM541.578 10.3551L541.8 10.2071C541.948 10.1085 542.059 10.0345 542.133 9.98524C542.207 9.93593 542.33 9.84964 542.503 9.72636C542.675 9.60309 542.823 9.47981 542.947 9.35654C543.07 9.23327 543.205 9.08534 543.353 8.91275C543.501 8.74017 543.637 8.57991 543.76 8.43198C543.883 8.28405 544.007 8.08682 544.13 7.84027C544.253 7.59372 544.364 7.38415 544.463 7.21157C544.561 7.03899 544.623 6.79244 544.648 6.47193C544.672 6.15141 544.697 5.88021 544.722 5.65832C544.722 4.59816 544.364 3.69826 543.649 2.95861C542.934 2.21897 542.108 1.75052 541.171 1.55329C540.999 1.52863 540.592 1.5163 539.951 1.5163C538.94 1.5163 537.991 1.83682 537.103 2.47784C536.216 3.11887 535.76 3.92015 535.735 4.88169C535.735 5.44875 535.895 5.9665 536.216 6.43494C536.536 6.90338 536.857 7.26088 537.177 7.50743C537.498 7.75398 538.114 8.14845 539.026 8.69086C539.199 8.81413 539.335 8.90043 539.433 8.94974L541.578 10.3551ZM540.247 23.8536C541.677 23.8536 542.91 23.4344 543.945 22.5962C544.981 21.7579 545.498 20.7471 545.498 19.5636C545.498 19.1445 545.437 18.75 545.313 18.3802C545.19 18.0104 545.042 17.7022 544.87 17.4557C544.697 17.2091 544.426 16.9379 544.056 16.642C543.686 16.3462 543.403 16.1243 543.205 15.9764C543.008 15.8284 542.651 15.5942 542.133 15.2737C541.615 14.9532 541.282 14.7436 541.134 14.645C540.789 14.4231 540.419 14.1889 540.025 13.9423C539.631 13.6958 539.31 13.4862 539.063 13.3136L538.768 13.1287C538.62 13.1287 538.262 13.3383 537.695 13.7574C537.128 14.1766 536.536 14.8546 535.92 15.7915C535.304 16.7283 534.983 17.7392 534.958 18.824C534.958 20.2786 535.488 21.4744 536.549 22.4113C537.609 23.3482 538.842 23.8289 540.247 23.8536Z" fill="white"/>
</g>
</g>
<g id="Group_8">
<path id="Vector_7" d="M484.693 59.1346C484.028 59.1346 483.497 58.9127 483.103 58.4689C482.708 58.0251 482.511 57.4827 482.511 56.8417C482.511 55.0912 483.165 53.575 484.471 52.2929C485.778 51.0109 487.405 50.3698 489.353 50.3698C491.597 50.3698 493.47 51.0602 494.974 52.4408C496.478 53.8215 497.242 55.609 497.267 57.8033C497.267 58.8634 497.021 59.8743 496.528 60.8358C496.034 61.7973 495.443 62.6356 494.752 63.3506C494.062 64.0656 493.076 64.9778 491.794 66.0873C490.906 66.8516 489.673 67.9857 488.096 69.4896L485.914 71.5607L488.724 71.5976C492.595 71.5976 494.654 71.536 494.9 71.4127C495.073 71.3634 495.369 70.2663 495.788 68.1213V68.0104H497.267V68.1213C497.242 68.1953 497.082 69.3171 496.786 71.4867C496.491 73.6563 496.306 74.7904 496.232 74.8891V75H482.511V74.2973V73.8536C482.511 73.681 482.585 73.4961 482.733 73.2988C482.881 73.1016 483.251 72.6701 483.843 72.0044C484.558 71.2155 485.174 70.5251 485.692 69.9334C485.914 69.6869 486.333 69.2308 486.949 68.5651C487.565 67.8994 487.985 67.4433 488.206 67.1967C488.428 66.9502 488.786 66.5434 489.279 65.9763C489.772 65.4093 490.117 64.9901 490.314 64.7189C490.512 64.4477 490.795 64.0779 491.165 63.6095C491.535 63.141 491.794 62.7465 491.942 62.426C492.09 62.1055 492.275 61.748 492.496 61.3536C492.718 60.9591 492.879 60.5646 492.977 60.1701C493.076 59.7756 493.162 59.4058 493.236 59.0607C493.31 58.7155 493.347 58.3087 493.347 57.8402C493.347 56.287 492.928 54.9433 492.09 53.8092C491.251 52.6751 490.056 52.108 488.502 52.108C487.689 52.108 486.974 52.3176 486.357 52.7367C485.741 53.1558 485.31 53.5626 485.063 53.9571C484.816 54.3516 484.693 54.5858 484.693 54.6598C484.693 54.6844 484.755 54.6967 484.878 54.6967C485.322 54.6967 485.778 54.8693 486.246 55.2145C486.715 55.5597 486.949 56.1267 486.949 56.9157C486.949 57.5321 486.752 58.0498 486.357 58.4689C485.963 58.8881 485.408 59.11 484.693 59.1346Z" fill="white"/>
</g>
<path id="Vector_8" d="M553.191 41.494H426.623V39.2751H553.191V41.494Z" fill="white"/>
</g>
<g id="Group_9">
<path id="Vector_9" d="M569.973 36.7973C569.973 36.4768 570.146 36.2303 570.491 36.0577H594.049C594.419 36.2549 594.604 36.5015 594.604 36.7973C594.604 37.0685 594.431 37.3027 594.086 37.5L582.325 37.537H570.565C570.171 37.4137 569.973 37.1671 569.973 36.7973ZM569.973 43.9719C569.973 43.6021 570.171 43.3555 570.565 43.2322H594.086C594.431 43.4788 594.604 43.7253 594.604 43.9719C594.604 44.2924 594.419 44.5389 594.049 44.7115H570.491C570.146 44.5389 569.973 44.2924 569.973 43.9719Z" fill="white"/>
</g>
<g id="Group_10">
<g id="Group_11">
<path id="Vector_10" d="M619.781 7.50743C619.116 7.50743 618.598 7.29786 618.228 6.87873C617.858 6.4596 617.661 5.91719 617.636 5.25151C617.636 3.8955 618.228 2.68741 619.412 1.62725C620.595 0.567095 622.025 0.0370178 623.702 0.0370178C624.564 0.0370178 625.107 0.0493446 625.329 0.0739994C627.153 0.369857 628.546 1.02321 629.508 2.03406C630.469 3.04491 630.962 4.14205 630.987 5.32548C630.987 6.60753 630.568 7.8526 629.73 9.06068C628.891 10.2688 627.733 11.144 626.253 11.6864L626.142 11.7604C626.142 11.785 626.253 11.822 626.475 11.8713C626.697 11.9206 627.055 12.0316 627.548 12.2042C628.041 12.3768 628.509 12.6356 628.953 12.9808C630.975 14.2875 631.986 16.0133 631.986 18.1583C631.986 20.106 631.221 21.8072 629.693 23.2619C628.164 24.7165 626.229 25.4438 623.886 25.4438C621.914 25.4438 620.213 24.9137 618.783 23.8536C617.353 22.7934 616.638 21.4497 616.638 19.8225C616.638 19.1322 616.86 18.5774 617.304 18.1583C617.747 17.7392 618.302 17.5173 618.968 17.4926C619.658 17.4926 620.225 17.7145 620.669 18.1583C621.113 18.6021 621.335 19.1568 621.335 19.8225C621.335 20.0937 621.298 20.3403 621.224 20.5622C621.15 20.7841 621.063 20.9813 620.965 21.1539C620.866 21.3265 620.731 21.4744 620.558 21.5977C620.385 21.7209 620.238 21.8196 620.114 21.8935C619.991 21.9675 619.868 22.0168 619.744 22.0415C619.621 22.0661 619.523 22.1031 619.449 22.1524L619.301 22.1894C620.558 23.2988 622.087 23.8536 623.886 23.8536C625.242 23.8536 626.266 23.2002 626.956 21.8935C627.375 21.0799 627.585 19.8348 627.585 18.1583V17.4187C627.585 15.0765 626.796 13.5109 625.218 12.7219C624.848 12.574 624.096 12.4877 622.962 12.463L621.409 12.4261L621.298 12.3521C621.248 12.2781 621.224 12.0809 621.224 11.7604C621.224 11.3166 621.322 11.0947 621.52 11.0947C622.21 11.0947 622.925 11.0331 623.665 10.9098C624.503 10.7865 625.267 10.2688 625.957 9.35654C626.648 8.44431 626.993 7.06364 626.993 5.21453V4.91867C626.993 3.51335 626.562 2.53948 625.699 1.99708C625.156 1.65191 624.577 1.47932 623.96 1.47932C623.171 1.47932 622.444 1.61493 621.778 1.88613C621.113 2.15733 620.644 2.44086 620.373 2.73672C620.102 3.03258 619.966 3.18051 619.966 3.18051H620.077C620.151 3.20516 620.25 3.22982 620.373 3.25447C620.496 3.27913 620.62 3.34076 620.743 3.43938C620.866 3.538 621.014 3.62429 621.187 3.69826C621.359 3.77222 621.483 3.90783 621.557 4.10506C621.631 4.3023 621.729 4.48721 621.852 4.6598C621.976 4.83238 622.013 5.07893 621.963 5.39944C621.963 5.94185 621.791 6.42262 621.446 6.84175C621.1 7.26088 620.546 7.48277 619.781 7.50743Z" fill="white"/>
<path id="Vector_11" d="M637.126 2.99559C638.507 0.998553 640.393 3.24249e-05 642.784 3.24249e-05C643.968 3.24249e-05 645.151 0.320545 646.335 0.961571C647.518 1.6026 648.48 2.73672 649.219 4.36394C650.131 6.41029 650.588 9.22094 650.588 12.7959C650.588 16.6174 650.058 19.539 648.997 21.5607C648.504 22.5962 647.826 23.4221 646.963 24.0385C646.1 24.6549 645.348 25.037 644.707 25.1849C644.066 25.3329 643.438 25.4192 642.821 25.4438C642.18 25.4438 641.539 25.3699 640.898 25.2219C640.257 25.074 639.505 24.6795 638.642 24.0385C637.779 23.3975 637.101 22.5715 636.608 21.5607C635.548 19.539 635.018 16.6174 635.018 12.7959C635.018 8.50595 635.721 5.23918 637.126 2.99559ZM645.447 2.55181C644.707 1.76285 643.832 1.36838 642.821 1.36838C641.786 1.36838 640.898 1.76285 640.159 2.55181C639.542 3.19283 639.135 4.08041 638.938 5.21453C638.741 6.34865 638.642 8.71551 638.642 12.3151C638.642 16.2106 638.741 18.7747 638.938 20.0074C639.135 21.2402 639.579 22.214 640.27 22.929C640.96 23.6687 641.81 24.0385 642.821 24.0385C643.808 24.0385 644.646 23.6687 645.336 22.929C646.051 22.1894 646.495 21.1539 646.667 19.8225C646.84 18.4912 646.939 15.9887 646.963 12.3151C646.963 8.74017 646.865 6.38563 646.667 5.25151C646.47 4.11739 646.063 3.21749 645.447 2.55181Z" fill="white"/>
</g>
<g id="Group_12">
<path id="Vector_12" d="M628.361 59.1346C627.695 59.1346 627.165 58.9127 626.77 58.4689C626.376 58.0251 626.179 57.4827 626.179 56.8417C626.179 55.0912 626.832 53.575 628.139 52.2929C629.445 51.0109 631.073 50.3698 633.02 50.3698C635.264 50.3698 637.138 51.0602 638.642 52.4408C640.146 53.8215 640.91 55.609 640.935 57.8033C640.935 58.8634 640.688 59.8743 640.195 60.8358C639.702 61.7973 639.11 62.6356 638.42 63.3506C637.729 64.0656 636.743 64.9778 635.461 66.0873C634.574 66.8516 633.341 67.9857 631.763 69.4896L629.581 71.5607L632.392 71.5976C636.263 71.5976 638.321 71.536 638.568 71.4127C638.74 71.3634 639.036 70.2663 639.455 68.1213V68.0104H640.935V68.1213C640.91 68.1953 640.75 69.3171 640.454 71.4867C640.158 73.6563 639.973 74.7904 639.899 74.8891V75H626.179V74.2973V73.8536C626.179 73.681 626.253 73.4961 626.401 73.2988C626.549 73.1016 626.918 72.6701 627.51 72.0044C628.225 71.2155 628.841 70.5251 629.359 69.9334C629.581 69.6869 630 69.2308 630.617 68.5651C631.233 67.8994 631.652 67.4433 631.874 67.1967C632.096 66.9502 632.453 66.5434 632.946 65.9763C633.44 65.4093 633.785 64.9901 633.982 64.7189C634.179 64.4477 634.463 64.0779 634.833 63.6095C635.202 63.141 635.461 62.7465 635.609 62.426C635.757 62.1055 635.942 61.748 636.164 61.3536C636.386 60.9591 636.546 60.5646 636.645 60.1701C636.743 59.7756 636.83 59.4058 636.904 59.0607C636.978 58.7155 637.015 58.3087 637.015 57.8402C637.015 56.287 636.595 54.9433 635.757 53.8092C634.919 52.6751 633.723 52.108 632.17 52.108C631.356 52.108 630.641 52.3176 630.025 52.7367C629.408 53.1558 628.977 53.5626 628.73 53.9571C628.484 54.3516 628.361 54.5858 628.361 54.6598C628.361 54.6844 628.422 54.6967 628.546 54.6967C628.989 54.6967 629.445 54.8693 629.914 55.2145C630.382 55.5597 630.617 56.1267 630.617 56.9157C630.617 57.5321 630.419 58.0498 630.025 58.4689C629.63 58.8881 629.076 59.11 628.361 59.1346Z" fill="white"/>
</g>
<path id="Vector_13" d="M655.765 41.494H611.386V39.2751H655.765V41.494Z" fill="white"/>
</g>
<g id="Group_13">
<path id="Vector_14" d="M672.547 36.7973C672.547 36.4768 672.72 36.2303 673.065 36.0577H696.623C696.993 36.2549 697.178 36.5015 697.178 36.7973C697.178 37.0685 697.005 37.3027 696.66 37.5L684.899 37.537H673.139C672.745 37.4137 672.547 37.1671 672.547 36.7973ZM672.547 43.9719C672.547 43.6021 672.745 43.3555 673.139 43.2322H696.66C697.005 43.4788 697.178 43.7253 697.178 43.9719C697.178 44.2924 696.993 44.5389 696.623 44.7115H673.065C672.72 44.5389 672.547 44.2924 672.547 43.9719Z" fill="white"/>
</g>
<g id="Group_14">
<path id="Vector_15" d="M717.396 28.2544L716.915 28.4394C716.57 28.5626 716.077 28.6859 715.436 28.8092C714.794 28.9325 714.08 29.0188 713.291 29.0681H712.588V27.3669H713.291C714.449 27.3176 715.522 27.1327 716.508 26.8121C717.494 26.4916 718.185 26.1958 718.579 25.9246C718.973 25.6534 719.319 25.3822 719.615 25.111C719.664 25.037 719.812 25 720.058 25C720.28 25 720.49 25.074 720.687 25.2219V36.2796L720.724 47.3743C720.897 47.5469 721.044 47.6578 721.168 47.7071C721.291 47.7564 721.587 47.8057 722.055 47.855C722.524 47.9043 723.288 47.929 724.348 47.929H725.31V49.6302H724.903C724.385 49.5562 722.425 49.5192 719.023 49.5192C715.67 49.5192 713.734 49.5562 713.217 49.6302H712.773V47.929H713.734C714.277 47.929 714.745 47.929 715.14 47.929C715.534 47.929 715.842 47.9167 716.064 47.892C716.286 47.8674 716.483 47.8304 716.656 47.7811C716.829 47.7318 716.927 47.7071 716.952 47.7071C716.976 47.7071 717.05 47.6455 717.174 47.5222C717.297 47.3989 717.371 47.3496 717.396 47.3743V28.2544Z" fill="white"/>
<path id="Vector_16" d="M734.074 43.824C734.074 44.4157 733.877 44.9088 733.483 45.3033C733.088 45.6978 732.607 45.895 732.04 45.895H731.781C732.916 47.8427 734.42 48.8166 736.293 48.8166C738.019 48.8166 739.277 48.077 740.065 46.5977C740.534 45.7841 740.768 44.2061 740.768 41.8639C740.768 39.3245 740.435 37.611 739.77 36.7234C739.129 35.9098 738.414 35.503 737.625 35.503H737.403C735.48 35.503 734.025 36.3413 733.039 38.0178C732.94 38.1904 732.854 38.289 732.78 38.3136C732.706 38.3383 732.521 38.3629 732.225 38.3876C731.806 38.3876 731.572 38.3136 731.523 38.1657C731.473 38.0671 731.449 35.9098 731.449 31.6938V26.9231C731.449 25.6904 731.51 25.074 731.634 25.074C731.683 25.0247 731.732 25 731.781 25C731.806 25 732.065 25.0987 732.558 25.2959C733.051 25.4931 733.729 25.6904 734.592 25.8876C735.455 26.0848 736.38 26.1835 737.366 26.1835C739.116 26.1835 740.793 25.8383 742.395 25.148C742.593 25.0493 742.753 25 742.876 25C743.073 25 743.172 25.2219 743.172 25.6657V26.1465C741.15 28.538 738.623 29.7338 735.591 29.7338C734.826 29.7338 734.136 29.6598 733.52 29.5119L733.15 29.4379V35.7988C733.618 35.4537 733.988 35.1825 734.259 34.9852C734.53 34.788 734.974 34.5908 735.591 34.3935C736.207 34.1963 736.836 34.0977 737.477 34.0977C739.474 34.0977 741.163 34.8989 742.543 36.5015C743.924 38.1041 744.614 40.0025 744.614 42.1968C744.614 44.465 743.825 46.4004 742.247 48.003C740.67 49.6056 738.746 50.4192 736.478 50.4438C734.481 50.4438 732.879 49.7781 731.671 48.4468C730.462 47.1154 729.858 45.6115 729.858 43.9349C729.858 43.3432 729.994 42.8748 730.265 42.5296C730.536 42.1844 730.82 41.9626 731.116 41.8639C731.412 41.7653 731.695 41.716 731.966 41.716C732.583 41.716 733.088 41.9256 733.483 42.3447C733.877 42.7638 734.074 43.2569 734.074 43.824Z" fill="white"/>
</g>
</g>
<g id="Group 22">
<g id="Group_15">
<path id="Vector_17" d="M381.379 139.621C381.379 139.35 381.576 139.215 381.97 139.215C382.094 139.215 382.192 139.215 382.266 139.215C382.34 139.215 382.402 139.215 382.451 139.215C382.5 139.215 382.55 139.227 382.599 139.252C382.648 139.276 382.673 139.289 382.673 139.289C382.673 139.289 382.698 139.325 382.747 139.399C382.796 139.473 382.821 139.51 382.821 139.51C382.821 139.51 382.858 139.572 382.932 139.695C383.844 141.52 385.052 143.135 386.556 144.54C388.06 145.945 389.428 146.944 390.661 147.536C391.894 148.127 393.077 148.583 394.212 148.904C394.631 149.027 394.84 149.187 394.84 149.385C394.84 149.582 394.729 149.717 394.507 149.791C394.285 149.865 393.829 150.001 393.139 150.198C392.449 150.396 391.734 150.691 390.994 151.086C387.444 152.812 384.756 155.474 382.932 159.074C382.833 159.296 382.747 159.419 382.673 159.444C382.599 159.468 382.414 159.493 382.118 159.518C381.625 159.518 381.379 159.431 381.379 159.259C381.379 159.16 381.44 158.951 381.564 158.63C382.427 156.929 383.487 155.413 384.744 154.081L385.114 153.712H362.518C362.173 153.539 362 153.292 362 152.972C362 152.602 362.197 152.356 362.592 152.232H386.741L387.111 151.936C388.072 151.197 389.515 150.346 391.438 149.385C391.413 149.36 391.191 149.249 390.772 149.052C390.353 148.855 389.798 148.559 389.108 148.164C388.418 147.77 387.752 147.326 387.111 146.833L386.741 146.537H362.592C362.197 146.414 362 146.167 362 145.797C362 145.477 362.173 145.23 362.518 145.058H385.114L384.744 144.688C383.93 143.825 383.166 142.826 382.451 141.692C381.736 140.558 381.379 139.868 381.379 139.621Z" fill="white"/>
</g>
<g id="Group_16">
<g id="Group_17">
<g id="Group_18">
<path id="Vector_18" d="M419.352 117.765C418.686 117.765 418.156 117.543 417.762 117.099C417.367 116.655 417.17 116.113 417.17 115.472C417.17 113.721 417.823 112.205 419.13 110.923C420.437 109.641 422.064 109 424.012 109C426.255 109 428.129 109.69 429.633 111.071C431.137 112.452 431.901 114.239 431.926 116.433C431.926 117.494 431.679 118.504 431.186 119.466C430.693 120.428 430.101 121.266 429.411 121.981C428.721 122.696 427.735 123.608 426.452 124.717C425.565 125.482 424.332 126.616 422.754 128.12L420.572 130.191L423.383 130.228C427.254 130.228 429.312 130.166 429.559 130.043C429.732 129.994 430.027 128.896 430.447 126.752V126.641H431.926V126.752C431.901 126.825 431.741 127.947 431.445 130.117C431.149 132.287 430.964 133.421 430.89 133.519V133.63H417.17V132.928V132.484C417.17 132.311 417.244 132.126 417.392 131.929C417.54 131.732 417.91 131.3 418.501 130.635C419.216 129.846 419.833 129.155 420.35 128.564C420.572 128.317 420.991 127.861 421.608 127.195C422.224 126.53 422.643 126.074 422.865 125.827C423.087 125.58 423.445 125.174 423.938 124.607C424.431 124.039 424.776 123.62 424.973 123.349C425.17 123.078 425.454 122.708 425.824 122.24C426.194 121.771 426.452 121.377 426.6 121.056C426.748 120.736 426.933 120.378 427.155 119.984C427.377 119.589 427.537 119.195 427.636 118.8C427.735 118.406 427.821 118.036 427.895 117.691C427.969 117.346 428.006 116.939 428.006 116.47C428.006 114.917 427.587 113.574 426.748 112.439C425.91 111.305 424.714 110.738 423.161 110.738C422.347 110.738 421.632 110.948 421.016 111.367C420.4 111.786 419.968 112.193 419.722 112.587C419.475 112.982 419.352 113.216 419.352 113.29C419.352 113.315 419.414 113.327 419.537 113.327C419.981 113.327 420.437 113.5 420.905 113.845C421.374 114.19 421.608 114.757 421.608 115.546C421.608 116.162 421.411 116.68 421.016 117.099C420.622 117.518 420.067 117.74 419.352 117.765Z" fill="white"/>
<path id="Vector_19" d="M437.362 111.996C438.743 109.999 440.629 109 443.02 109C444.204 109 445.387 109.321 446.571 109.962C447.754 110.603 448.716 111.737 449.455 113.364C450.368 115.41 450.824 118.221 450.824 121.796C450.824 125.617 450.294 128.539 449.233 130.561C448.74 131.596 448.062 132.422 447.199 133.038C446.336 133.655 445.585 134.037 444.943 134.185C444.302 134.333 443.674 134.419 443.057 134.444C442.416 134.444 441.775 134.37 441.134 134.222C440.493 134.074 439.741 133.68 438.878 133.038C438.015 132.397 437.337 131.572 436.844 130.561C435.784 128.539 435.254 125.617 435.254 121.796C435.254 117.506 435.957 114.239 437.362 111.996ZM445.683 111.552C444.943 110.763 444.068 110.368 443.057 110.368C442.022 110.368 441.134 110.763 440.395 111.552C439.778 112.193 439.372 113.08 439.174 114.215C438.977 115.349 438.878 117.716 438.878 121.315C438.878 125.211 438.977 127.775 439.174 129.007C439.372 130.24 439.815 131.214 440.506 131.929C441.196 132.669 442.047 133.038 443.057 133.038C444.044 133.038 444.882 132.669 445.572 131.929C446.287 131.189 446.731 130.154 446.904 128.823C447.076 127.491 447.175 124.989 447.199 121.315C447.199 117.74 447.101 115.386 446.904 114.252C446.706 113.117 446.3 112.217 445.683 111.552Z" fill="white"/>
</g>
<g id="Group_19">
<path id="Vector_20" d="M462.591 124.865C462.591 124.865 462.591 124.705 462.591 124.385C462.591 124.064 462.764 123.818 463.109 123.645H474.167V118.098L474.204 112.55C474.45 112.23 474.685 112.07 474.906 112.07C475.227 112.07 475.473 112.254 475.646 112.624V123.645H486.667C487.037 123.842 487.221 124.089 487.221 124.385C487.221 124.68 487.037 124.927 486.667 125.124H475.646V136.145C475.449 136.49 475.227 136.663 474.98 136.663H474.906H474.832C474.537 136.663 474.315 136.49 474.167 136.145V125.124H463.109C462.764 124.952 462.591 124.705 462.591 124.385V124.865Z" fill="white"/>
</g>
<g id="Group_20">
<path id="Vector_21" d="M502.206 116.507C501.541 116.507 501.023 116.298 500.653 115.879C500.283 115.46 500.086 114.917 500.062 114.252C500.062 112.895 500.653 111.687 501.837 110.627C503.02 109.567 504.45 109.037 506.127 109.037C506.99 109.037 507.532 109.049 507.754 109.074C509.578 109.37 510.971 110.023 511.933 111.034C512.894 112.045 513.387 113.142 513.412 114.325C513.412 115.608 512.993 116.853 512.155 118.061C511.316 119.269 510.158 120.144 508.678 120.686L508.567 120.76C508.567 120.785 508.678 120.822 508.9 120.871C509.122 120.921 509.48 121.032 509.973 121.204C510.466 121.377 510.934 121.636 511.378 121.981C513.4 123.288 514.411 125.013 514.411 127.158C514.411 129.106 513.646 130.807 512.118 132.262C510.589 133.716 508.654 134.444 506.312 134.444C504.339 134.444 502.638 133.914 501.208 132.854C499.778 131.793 499.063 130.45 499.063 128.823C499.063 128.132 499.285 127.577 499.729 127.158C500.172 126.739 500.727 126.517 501.393 126.493C502.083 126.493 502.65 126.715 503.094 127.158C503.538 127.602 503.76 128.157 503.76 128.823C503.76 129.094 503.723 129.34 503.649 129.562C503.575 129.784 503.489 129.981 503.39 130.154C503.291 130.326 503.156 130.474 502.983 130.598C502.811 130.721 502.663 130.82 502.539 130.894C502.416 130.967 502.293 131.017 502.169 131.041C502.046 131.066 501.948 131.103 501.874 131.152L501.726 131.189C502.983 132.299 504.512 132.854 506.312 132.854C507.668 132.854 508.691 132.2 509.381 130.894C509.8 130.08 510.01 128.835 510.01 127.158V126.419C510.01 124.076 509.221 122.511 507.643 121.722C507.273 121.574 506.521 121.488 505.387 121.463L503.834 121.426L503.723 121.352C503.673 121.278 503.649 121.081 503.649 120.76C503.649 120.317 503.747 120.095 503.945 120.095C504.635 120.095 505.35 120.033 506.09 119.91C506.928 119.787 507.692 119.269 508.383 118.357C509.073 117.444 509.418 116.064 509.418 114.215V113.919C509.418 112.513 508.987 111.539 508.124 110.997C507.581 110.652 507.002 110.479 506.385 110.479C505.597 110.479 504.869 110.615 504.204 110.886C503.538 111.157 503.069 111.441 502.798 111.737C502.527 112.033 502.391 112.181 502.391 112.181H502.502C502.576 112.205 502.675 112.23 502.798 112.254C502.921 112.279 503.045 112.341 503.168 112.439C503.291 112.538 503.439 112.624 503.612 112.698C503.784 112.772 503.908 112.908 503.982 113.105C504.056 113.302 504.154 113.487 504.277 113.66C504.401 113.832 504.438 114.079 504.388 114.399C504.388 114.942 504.216 115.423 503.871 115.842C503.526 116.261 502.971 116.483 502.206 116.507Z" fill="white"/>
<path id="Vector_22" d="M518.59 118.209C518.59 118.209 518.59 117.259 518.59 115.361C518.59 113.463 519.256 111.934 520.587 110.775C521.918 109.616 523.447 109.025 525.173 109C526.923 109 528.477 109.518 529.833 110.553C531.189 111.589 531.867 112.932 531.867 114.584C531.867 115.324 531.731 116.014 531.46 116.655C531.189 117.296 530.868 117.814 530.498 118.209C530.129 118.603 529.746 118.948 529.352 119.244C528.957 119.54 528.637 119.762 528.39 119.91C528.144 120.058 528.008 120.156 527.984 120.206L528.501 120.538C528.846 120.785 529.192 121.032 529.537 121.278C529.882 121.525 530.079 121.66 530.129 121.685C531.978 123.14 532.902 124.976 532.902 127.195C532.902 129.143 532.187 130.832 530.757 132.262C529.327 133.692 527.478 134.419 525.21 134.444C522.991 134.444 521.167 133.815 519.737 132.558C518.307 131.3 517.592 129.747 517.592 127.898C517.592 125.235 519.182 123.016 522.362 121.241L521.697 120.76C521.179 120.44 520.846 120.193 520.698 120.021C519.293 118.813 518.59 117.259 518.59 115.361V118.209ZM526.578 119.355L526.8 119.207C526.948 119.109 527.059 119.035 527.133 118.985C527.207 118.936 527.33 118.85 527.503 118.726C527.675 118.603 527.823 118.48 527.947 118.357C528.07 118.233 528.205 118.085 528.353 117.913C528.501 117.74 528.637 117.58 528.76 117.432C528.883 117.284 529.007 117.087 529.13 116.84C529.253 116.594 529.364 116.384 529.463 116.212C529.561 116.039 529.623 115.792 529.648 115.472C529.672 115.151 529.697 114.88 529.722 114.658C529.722 113.598 529.364 112.698 528.649 111.959C527.934 111.219 527.108 110.751 526.171 110.553C525.999 110.529 525.592 110.516 524.951 110.516C523.94 110.516 522.991 110.837 522.103 111.478C521.216 112.119 520.76 112.92 520.735 113.882C520.735 114.449 520.895 114.967 521.216 115.435C521.536 115.903 521.857 116.261 522.177 116.507C522.498 116.754 523.114 117.148 524.026 117.691C524.199 117.814 524.335 117.9 524.433 117.95L526.578 119.355ZM525.247 132.854C526.677 132.854 527.91 132.434 528.945 131.596C529.981 130.758 530.498 129.747 530.498 128.564C530.498 128.145 530.437 127.75 530.313 127.38C530.19 127.01 530.042 126.702 529.87 126.456C529.697 126.209 529.426 125.938 529.056 125.642C528.686 125.346 528.403 125.124 528.205 124.976C528.008 124.828 527.651 124.594 527.133 124.274C526.615 123.953 526.282 123.744 526.134 123.645C525.789 123.423 525.419 123.189 525.025 122.942C524.631 122.696 524.31 122.486 524.063 122.314L523.768 122.129C523.62 122.129 523.262 122.338 522.695 122.757C522.128 123.177 521.536 123.855 520.92 124.791C520.304 125.728 519.983 126.739 519.958 127.824C519.958 129.279 520.488 130.474 521.549 131.411C522.609 132.348 523.842 132.829 525.247 132.854Z" fill="white"/>
</g>
</g>
<g id="Group_21">
<path id="Vector_23" d="M469.693 168.135C469.027 168.135 468.497 167.913 468.103 167.469C467.708 167.025 467.511 166.483 467.511 165.842C467.511 164.091 468.164 162.575 469.471 161.293C470.778 160.011 472.405 159.37 474.353 159.37C476.596 159.37 478.47 160.06 479.974 161.441C481.478 162.822 482.242 164.609 482.267 166.803C482.267 167.863 482.02 168.874 481.527 169.836C481.034 170.797 480.442 171.636 479.752 172.351C479.062 173.066 478.076 173.978 476.794 175.087C475.906 175.852 474.673 176.986 473.095 178.49L470.913 180.561L473.724 180.598C477.595 180.598 479.653 180.536 479.9 180.413C480.073 180.363 480.368 179.266 480.788 177.121V177.01H482.267V177.121C482.242 177.195 482.082 178.317 481.786 180.487C481.49 182.656 481.305 183.79 481.231 183.889V184H467.511V183.297V182.854C467.511 182.681 467.585 182.496 467.733 182.299C467.881 182.102 468.251 181.67 468.842 181.004C469.557 180.215 470.174 179.525 470.691 178.933C470.913 178.687 471.332 178.231 471.949 177.565C472.565 176.899 472.984 176.443 473.206 176.197C473.428 175.95 473.786 175.543 474.279 174.976C474.772 174.409 475.117 173.99 475.314 173.719C475.511 173.448 475.795 173.078 476.165 172.609C476.535 172.141 476.794 171.747 476.941 171.426C477.089 171.106 477.274 170.748 477.496 170.354C477.718 169.959 477.878 169.565 477.977 169.17C478.076 168.776 478.162 168.406 478.236 168.061C478.31 167.715 478.347 167.309 478.347 166.84C478.347 165.287 477.928 163.943 477.089 162.809C476.251 161.675 475.055 161.108 473.502 161.108C472.689 161.108 471.974 161.318 471.357 161.737C470.741 162.156 470.309 162.563 470.063 162.957C469.816 163.352 469.693 163.586 469.693 163.66C469.693 163.684 469.755 163.697 469.878 163.697C470.322 163.697 470.778 163.869 471.246 164.214C471.715 164.56 471.949 165.127 471.949 165.916C471.949 166.532 471.752 167.05 471.357 167.469C470.963 167.888 470.408 168.11 469.693 168.135Z" fill="white"/>
</g>
<path id="Vector_24" d="M538.191 150.494H411.623V148.275H538.191V150.494Z" fill="white"/>
</g>
<g id="Group_22">
<path id="Vector_25" d="M554.973 145.797C554.973 145.477 555.146 145.23 555.491 145.058H579.049C579.419 145.255 579.604 145.501 579.604 145.797C579.604 146.069 579.431 146.303 579.086 146.5L567.325 146.537H555.565C555.171 146.414 554.973 146.167 554.973 145.797ZM554.973 152.972C554.973 152.602 555.171 152.356 555.565 152.232H579.086C579.431 152.479 579.604 152.725 579.604 152.972C579.604 153.292 579.419 153.539 579.049 153.712H555.491C555.146 153.539 554.973 153.292 554.973 152.972Z" fill="white"/>
</g>
<g id="Group_23">
<g id="Group_24">
<path id="Vector_26" d="M606.15 127.824C606.15 128.416 605.953 128.909 605.558 129.303C605.164 129.698 604.683 129.895 604.116 129.895H603.857C604.991 131.843 606.495 132.817 608.369 132.817C610.095 132.817 611.352 132.077 612.141 130.598C612.609 129.784 612.844 128.206 612.844 125.864C612.844 123.324 612.511 121.611 611.845 120.723C611.204 119.91 610.489 119.503 609.7 119.503H609.478C607.555 119.503 606.101 120.341 605.114 122.018C605.016 122.19 604.929 122.289 604.855 122.314C604.781 122.338 604.597 122.363 604.301 122.388C603.882 122.388 603.647 122.314 603.598 122.166C603.549 122.067 603.524 119.91 603.524 115.694V110.923C603.524 109.69 603.586 109.074 603.709 109.074C603.758 109.025 603.808 109 603.857 109C603.882 109 604.14 109.099 604.634 109.296C605.127 109.493 605.805 109.69 606.668 109.888C607.53 110.085 608.455 110.183 609.441 110.183C611.192 110.183 612.868 109.838 614.471 109.148C614.668 109.049 614.828 109 614.952 109C615.149 109 615.247 109.222 615.247 109.666V110.146C613.226 112.538 610.699 113.734 607.666 113.734C606.902 113.734 606.211 113.66 605.595 113.512L605.225 113.438V119.799C605.694 119.454 606.064 119.182 606.335 118.985C606.606 118.788 607.05 118.591 607.666 118.394C608.282 118.196 608.911 118.098 609.552 118.098C611.549 118.098 613.238 118.899 614.619 120.502C615.999 122.104 616.69 124.002 616.69 126.197C616.69 128.465 615.901 130.4 614.323 132.003C612.745 133.606 610.822 134.419 608.554 134.444C606.557 134.444 604.954 133.778 603.746 132.447C602.538 131.115 601.934 129.611 601.934 127.935C601.934 127.343 602.069 126.875 602.341 126.53C602.612 126.184 602.895 125.963 603.191 125.864C603.487 125.765 603.771 125.716 604.042 125.716C604.658 125.716 605.164 125.926 605.558 126.345C605.953 126.764 606.15 127.257 606.15 127.824Z" fill="white"/>
<path id="Vector_27" d="M621.165 118.209C621.165 118.209 621.165 117.259 621.165 115.361C621.165 113.463 621.83 111.934 623.162 110.775C624.493 109.616 626.022 109.025 627.748 109C629.498 109 631.051 109.518 632.407 110.553C633.763 111.589 634.441 112.932 634.441 114.584C634.441 115.324 634.306 116.014 634.035 116.655C633.763 117.296 633.443 117.814 633.073 118.209C632.703 118.603 632.321 118.948 631.927 119.244C631.532 119.54 631.212 119.762 630.965 119.91C630.719 120.058 630.583 120.156 630.558 120.206L631.076 120.538C631.421 120.785 631.766 121.032 632.112 121.278C632.457 121.525 632.654 121.66 632.703 121.685C634.552 123.14 635.477 124.976 635.477 127.195C635.477 129.143 634.762 130.832 633.332 132.262C631.902 133.692 630.053 134.419 627.785 134.444C625.566 134.444 623.741 133.815 622.311 132.558C620.881 131.3 620.166 129.747 620.166 127.898C620.166 125.235 621.756 123.016 624.937 121.241L624.271 120.76C623.754 120.44 623.421 120.193 623.273 120.021C621.867 118.813 621.165 117.259 621.165 115.361V118.209ZM629.153 119.355L629.375 119.207C629.523 119.109 629.634 119.035 629.708 118.985C629.782 118.936 629.905 118.85 630.078 118.726C630.25 118.603 630.398 118.48 630.521 118.357C630.645 118.233 630.78 118.085 630.928 117.913C631.076 117.74 631.212 117.58 631.335 117.432C631.458 117.284 631.581 117.087 631.705 116.84C631.828 116.594 631.939 116.384 632.038 116.212C632.136 116.039 632.198 115.792 632.222 115.472C632.247 115.151 632.272 114.88 632.296 114.658C632.296 113.598 631.939 112.698 631.224 111.959C630.509 111.219 629.683 110.751 628.746 110.553C628.574 110.529 628.167 110.516 627.526 110.516C626.515 110.516 625.566 110.837 624.678 111.478C623.791 112.119 623.334 112.92 623.31 113.882C623.31 114.449 623.47 114.967 623.791 115.435C624.111 115.903 624.432 116.261 624.752 116.507C625.073 116.754 625.689 117.148 626.601 117.691C626.774 117.814 626.909 117.9 627.008 117.95L629.153 119.355ZM627.822 132.854C629.252 132.854 630.484 132.434 631.52 131.596C632.555 130.758 633.073 129.747 633.073 128.564C633.073 128.145 633.011 127.75 632.888 127.38C632.765 127.01 632.617 126.702 632.444 126.456C632.272 126.209 632.001 125.938 631.631 125.642C631.261 125.346 630.977 125.124 630.78 124.976C630.583 124.828 630.225 124.594 629.708 124.274C629.19 123.953 628.857 123.744 628.709 123.645C628.364 123.423 627.994 123.189 627.6 122.942C627.205 122.696 626.885 122.486 626.638 122.314L626.342 122.129C626.194 122.129 625.837 122.338 625.27 122.757C624.703 123.177 624.111 123.855 623.495 124.791C622.878 125.728 622.558 126.739 622.533 127.824C622.533 129.279 623.063 130.474 624.123 131.411C625.184 132.348 626.416 132.829 627.822 132.854Z" fill="white"/>
</g>
<g id="Group_25">
<path id="Vector_28" d="M613.36 168.135C612.695 168.135 612.165 167.913 611.77 167.469C611.376 167.025 611.178 166.483 611.178 165.842C611.178 164.091 611.832 162.575 613.139 161.293C614.445 160.011 616.072 159.37 618.02 159.37C620.264 159.37 622.138 160.06 623.641 161.441C625.145 162.822 625.91 164.609 625.934 166.803C625.934 167.863 625.688 168.874 625.195 169.836C624.702 170.797 624.11 171.636 623.42 172.351C622.729 173.066 621.743 173.978 620.461 175.087C619.573 175.852 618.341 176.986 616.763 178.49L614.581 180.561L617.391 180.598C621.262 180.598 623.321 180.536 623.568 180.413C623.74 180.363 624.036 179.266 624.455 177.121V177.01H625.934V177.121C625.91 177.195 625.749 178.317 625.454 180.487C625.158 182.656 624.973 183.79 624.899 183.889V184H611.178V183.297V182.854C611.178 182.681 611.252 182.496 611.4 182.299C611.548 182.102 611.918 181.67 612.51 181.004C613.225 180.215 613.841 179.525 614.359 178.933C614.581 178.687 615 178.231 615.616 177.565C616.233 176.899 616.652 176.443 616.874 176.197C617.096 175.95 617.453 175.543 617.946 174.976C618.439 174.409 618.784 173.99 618.982 173.719C619.179 173.448 619.462 173.078 619.832 172.609C620.202 172.141 620.461 171.747 620.609 171.426C620.757 171.106 620.942 170.748 621.164 170.354C621.386 169.959 621.546 169.565 621.644 169.17C621.743 168.776 621.829 168.406 621.903 168.061C621.977 167.715 622.014 167.309 622.014 166.84C622.014 165.287 621.595 163.943 620.757 162.809C619.919 161.675 618.723 161.108 617.17 161.108C616.356 161.108 615.641 161.318 615.025 161.737C614.408 162.156 613.977 162.563 613.73 162.957C613.484 163.352 613.36 163.586 613.36 163.66C613.36 163.684 613.422 163.697 613.545 163.697C613.989 163.697 614.445 163.869 614.914 164.214C615.382 164.56 615.616 165.127 615.616 165.916C615.616 166.532 615.419 167.05 615.025 167.469C614.63 167.888 614.075 168.11 613.36 168.135Z" fill="white"/>
</g>
<path id="Vector_29" d="M640.765 150.494H596.386V148.275H640.765V150.494Z" fill="white"/>
</g>
<g id="Group_26">
<path id="Vector_30" d="M657.543 145.797C657.543 145.477 657.716 145.23 658.061 145.058H681.619C681.989 145.255 682.174 145.501 682.174 145.797C682.174 146.069 682.001 146.303 681.656 146.5L669.896 146.537H658.135C657.741 146.414 657.543 146.167 657.543 145.797ZM657.543 152.972C657.543 152.602 657.741 152.356 658.135 152.232H681.656C682.001 152.479 682.174 152.725 682.174 152.972C682.174 153.292 681.989 153.539 681.619 153.712H658.061C657.716 153.539 657.543 153.292 657.543 152.972Z" fill="white"/>
</g>
<g id="Group_27">
<path id="Vector_31" d="M698.55 142.765C697.884 142.765 697.354 142.543 696.96 142.099C696.565 141.655 696.368 141.113 696.368 140.472C696.368 138.721 697.021 137.205 698.328 135.923C699.635 134.641 701.262 134 703.21 134C705.453 134 707.327 134.69 708.831 136.071C710.335 137.452 711.099 139.239 711.124 141.433C711.124 142.494 710.877 143.504 710.384 144.466C709.891 145.428 709.299 146.266 708.609 146.981C707.919 147.696 706.933 148.608 705.65 149.717C704.763 150.482 703.53 151.616 701.952 153.12L699.77 155.191L702.581 155.228C706.452 155.228 708.51 155.166 708.757 155.043C708.93 154.994 709.225 153.896 709.645 151.751V151.641H711.124V151.751C711.099 151.825 710.939 152.947 710.643 155.117C710.347 157.286 710.162 158.421 710.088 158.519V158.63H696.368V157.928V157.484C696.368 157.311 696.442 157.126 696.59 156.929C696.738 156.732 697.108 156.3 697.699 155.635C698.414 154.846 699.031 154.155 699.548 153.564C699.77 153.317 700.189 152.861 700.806 152.195C701.422 151.53 701.841 151.073 702.063 150.827C702.285 150.58 702.643 150.174 703.136 149.607C703.629 149.039 703.974 148.62 704.171 148.349C704.368 148.078 704.652 147.708 705.022 147.24C705.392 146.771 705.65 146.377 705.798 146.056C705.946 145.736 706.131 145.378 706.353 144.984C706.575 144.589 706.735 144.195 706.834 143.8C706.933 143.406 707.019 143.036 707.093 142.691C707.167 142.346 707.204 141.939 707.204 141.47C707.204 139.917 706.785 138.573 705.946 137.439C705.108 136.305 703.912 135.738 702.359 135.738C701.545 135.738 700.83 135.948 700.214 136.367C699.598 136.786 699.166 137.193 698.92 137.587C698.673 137.982 698.55 138.216 698.55 138.29C698.55 138.315 698.612 138.327 698.735 138.327C699.179 138.327 699.635 138.5 700.103 138.845C700.572 139.19 700.806 139.757 700.806 140.546C700.806 141.162 700.609 141.68 700.214 142.099C699.82 142.518 699.265 142.74 698.55 142.765Z" fill="white"/>
<path id="Vector_32" d="M726.028 148.016C724.844 149.89 723.365 150.827 721.59 150.827C719.667 150.827 718.089 150.1 716.856 148.645C715.623 147.19 714.884 145.637 714.637 143.985C714.588 143.591 714.563 143.098 714.563 142.506V142.21C714.563 139.917 715.414 137.92 717.115 136.219C718.594 134.74 720.222 134 721.997 134C722.046 134 722.12 134 722.219 134C722.317 134 722.416 134.012 722.514 134.037H722.662C722.958 134.037 723.266 134.062 723.587 134.111C723.907 134.16 724.364 134.308 724.955 134.555C725.547 134.801 726.126 135.196 726.693 135.738C727.26 136.281 727.791 137.008 728.284 137.92C729.344 140.09 729.874 142.876 729.874 146.278C729.874 149.73 729.134 152.651 727.655 155.043C726.792 156.424 725.757 157.496 724.548 158.26C723.34 159.025 722.058 159.419 720.702 159.444C719.198 159.444 717.966 159.086 717.004 158.371C716.043 157.656 715.549 156.596 715.525 155.191C715.5 153.786 716.153 153.095 717.485 153.12C718.027 153.12 718.483 153.292 718.853 153.638C719.223 153.983 719.408 154.464 719.408 155.08C719.408 155.524 719.297 155.906 719.075 156.226C718.853 156.547 718.656 156.744 718.483 156.818C718.311 156.892 718.151 156.954 718.003 157.003L717.855 157.04C717.855 157.089 717.941 157.163 718.114 157.262C718.286 157.36 718.607 157.484 719.075 157.632C719.544 157.78 720.061 157.841 720.628 157.817H720.85C722.33 157.817 723.575 157.028 724.585 155.45C725.547 154.069 726.028 151.678 726.028 148.275V148.016ZM722.034 149.459C723.217 149.459 724.166 148.855 724.881 147.646C725.596 146.438 725.966 144.799 725.991 142.728C725.991 140.805 725.892 139.424 725.695 138.586C725.646 138.339 725.572 138.093 725.473 137.846C725.374 137.6 725.202 137.279 724.955 136.885C724.709 136.49 724.339 136.157 723.846 135.886C723.353 135.615 722.773 135.492 722.108 135.516C721.171 135.516 720.369 135.849 719.704 136.515C719.186 137.057 718.853 137.698 718.705 138.438C718.557 139.178 718.471 140.472 718.446 142.321C718.446 144.367 718.508 145.748 718.631 146.463C718.755 147.178 719.001 147.757 719.371 148.201C719.987 149.039 720.875 149.459 722.034 149.459Z" fill="white"/>
</g>
</g>
</g>
</g>
<g id="\Rightarrow x=\frac{36+12}{2} \;\therefore \;\frac{48}{2}=24">
<g id="Group_28">
<g id="Group 23">
<g id="Group_29">
<path id="Vector_33" d="M383.274 252.456C383.274 252.186 383.47 252.052 383.863 252.052C383.985 252.052 384.083 252.052 384.157 252.052C384.231 252.052 384.292 252.052 384.341 252.052C384.39 252.052 384.439 252.064 384.488 252.088C384.537 252.113 384.562 252.125 384.562 252.125C384.562 252.125 384.586 252.162 384.635 252.235C384.684 252.309 384.709 252.346 384.709 252.346C384.709 252.346 384.745 252.407 384.819 252.53C385.726 254.344 386.928 255.951 388.424 257.348C389.92 258.746 391.281 259.739 392.507 260.328C393.733 260.916 394.91 261.37 396.038 261.689C396.455 261.811 396.663 261.971 396.663 262.167C396.663 262.363 396.553 262.498 396.332 262.571C396.111 262.645 395.658 262.78 394.971 262.976C394.284 263.172 393.573 263.466 392.838 263.859C389.307 265.575 386.634 268.224 384.819 271.804C384.721 272.025 384.635 272.147 384.562 272.172C384.488 272.196 384.304 272.221 384.01 272.245C383.519 272.245 383.274 272.159 383.274 271.988C383.274 271.89 383.335 271.681 383.458 271.362C384.316 269.67 385.371 268.162 386.621 266.838L386.989 266.47H364.515C364.172 266.299 364 266.054 364 265.735C364 265.367 364.196 265.122 364.589 264.999H388.608L388.975 264.705C389.932 263.969 391.366 263.123 393.279 262.167C393.255 262.142 393.034 262.032 392.617 261.836C392.2 261.64 391.648 261.345 390.962 260.953C390.275 260.561 389.613 260.119 388.975 259.629L388.608 259.335H364.589C364.196 259.212 364 258.967 364 258.599C364 258.28 364.172 258.035 364.515 257.863H386.989L386.621 257.495C385.812 256.637 385.052 255.644 384.341 254.516C383.63 253.388 383.274 252.701 383.274 252.456Z" fill="white"/>
</g>
<g id="Group_30">
<path id="Vector_34" d="M410.854 260.732C411.026 259.702 411.688 258.513 412.84 257.164C413.993 255.816 415.415 255.129 417.107 255.105C417.965 255.105 418.75 255.325 419.461 255.767C420.172 256.208 420.7 256.76 421.043 257.422C422.073 255.877 423.311 255.105 424.758 255.105C425.665 255.105 426.45 255.374 427.112 255.914C427.774 256.453 428.117 257.177 428.142 258.084C428.142 258.795 427.97 259.371 427.627 259.813C427.284 260.254 426.953 260.524 426.634 260.622C426.315 260.72 426.033 260.769 425.788 260.769C425.322 260.769 424.942 260.634 424.648 260.364C424.353 260.095 424.206 259.739 424.206 259.298C424.206 258.17 424.819 257.397 426.045 256.98C425.776 256.662 425.285 256.502 424.574 256.502C424.255 256.502 424.022 256.527 423.875 256.576C422.943 256.968 422.257 257.777 421.815 259.004C420.344 264.423 419.608 267.586 419.608 268.493C419.608 269.18 419.805 269.671 420.197 269.965C420.589 270.259 421.018 270.406 421.484 270.406C422.392 270.406 423.287 270.002 424.169 269.192C425.052 268.383 425.653 267.39 425.972 266.213C426.045 265.968 426.119 265.833 426.192 265.808C426.266 265.784 426.462 265.759 426.781 265.735H426.928C427.296 265.735 427.48 265.833 427.48 266.029C427.48 266.054 427.455 266.188 427.406 266.434C427.014 267.831 426.254 269.07 425.126 270.149C423.998 271.228 422.686 271.767 421.19 271.767C419.473 271.767 418.174 270.995 417.291 269.45C416.286 270.97 415.133 271.73 413.833 271.73H413.613C412.411 271.73 411.553 271.412 411.038 270.774C410.523 270.136 410.253 269.462 410.229 268.751C410.229 267.966 410.462 267.329 410.928 266.838C411.394 266.348 411.945 266.103 412.583 266.103C413.637 266.103 414.165 266.618 414.165 267.647C414.165 268.138 414.017 268.567 413.723 268.935C413.429 269.303 413.147 269.548 412.877 269.671C412.607 269.793 412.448 269.854 412.399 269.854L412.289 269.891C412.289 269.916 412.362 269.965 412.509 270.038C412.656 270.112 412.853 270.198 413.098 270.296C413.343 270.394 413.576 270.431 413.797 270.406C414.679 270.406 415.44 269.854 416.077 268.751C416.298 268.359 416.58 267.525 416.923 266.25C417.267 264.975 417.61 263.65 417.953 262.277C418.296 260.904 418.493 260.095 418.542 259.85C418.664 259.187 418.726 258.709 418.726 258.415C418.726 257.728 418.542 257.238 418.174 256.944C417.806 256.649 417.389 256.502 416.923 256.502C415.942 256.502 415.023 256.895 414.165 257.679C413.306 258.464 412.705 259.469 412.362 260.696C412.313 260.916 412.252 261.039 412.178 261.063C412.105 261.088 411.909 261.112 411.59 261.137H411.075C410.928 260.99 410.854 260.855 410.854 260.732Z" fill="white"/>
</g>
<g id="Group_31">
<path id="Vector_35" d="M442.259 258.599C442.259 258.28 442.431 258.035 442.774 257.863H466.205C466.572 258.059 466.756 258.305 466.756 258.599C466.756 258.869 466.585 259.102 466.241 259.298L454.544 259.335H442.848C442.455 259.212 442.259 258.967 442.259 258.599ZM442.259 265.735C442.259 265.367 442.455 265.122 442.848 264.999H466.241C466.585 265.244 466.756 265.49 466.756 265.735C466.756 266.054 466.572 266.299 466.205 266.47H442.774C442.431 266.299 442.259 266.054 442.259 265.735Z" fill="white"/>
</g>
<g id="Group_32">
<g id="Group_33">
<g id="Group_34">
<path id="Vector_36" d="M491.795 229.467C491.132 229.467 490.617 229.259 490.25 228.842C489.882 228.425 489.686 227.885 489.661 227.223C489.661 225.875 490.25 224.673 491.427 223.619C492.604 222.564 494.026 222.037 495.693 222.037C496.552 222.037 497.091 222.049 497.312 222.074C499.127 222.368 500.512 223.018 501.468 224.023C502.425 225.029 502.915 226.12 502.94 227.297C502.94 228.572 502.523 229.81 501.689 231.012C500.855 232.213 499.703 233.084 498.231 233.623L498.121 233.697C498.121 233.722 498.231 233.758 498.452 233.807C498.673 233.856 499.028 233.967 499.519 234.138C500.009 234.31 500.475 234.568 500.917 234.911C502.927 236.21 503.933 237.927 503.933 240.06C503.933 241.998 503.173 243.69 501.652 245.136C500.132 246.583 498.207 247.307 495.877 247.307C493.916 247.307 492.224 246.779 490.801 245.725C489.379 244.671 488.668 243.334 488.668 241.716C488.668 241.029 488.889 240.477 489.33 240.06C489.771 239.644 490.323 239.423 490.985 239.398C491.672 239.398 492.236 239.619 492.677 240.06C493.119 240.502 493.339 241.054 493.339 241.716C493.339 241.985 493.303 242.231 493.229 242.451C493.155 242.672 493.07 242.868 492.972 243.04C492.873 243.211 492.739 243.359 492.567 243.481C492.395 243.604 492.248 243.702 492.126 243.775C492.003 243.849 491.88 243.898 491.758 243.923C491.635 243.947 491.537 243.984 491.463 244.033L491.316 244.07C492.567 245.173 494.087 245.725 495.877 245.725C497.226 245.725 498.244 245.075 498.93 243.775C499.347 242.966 499.556 241.728 499.556 240.06V239.325C499.556 236.995 498.771 235.438 497.202 234.653C496.834 234.506 496.086 234.42 494.958 234.396L493.413 234.359L493.303 234.286C493.254 234.212 493.229 234.016 493.229 233.697C493.229 233.256 493.327 233.035 493.523 233.035C494.21 233.035 494.921 232.974 495.657 232.851C496.49 232.728 497.251 232.213 497.937 231.306C498.624 230.399 498.967 229.026 498.967 227.186V226.892C498.967 225.494 498.538 224.526 497.68 223.986C497.14 223.643 496.564 223.471 495.951 223.471C495.166 223.471 494.443 223.606 493.781 223.876C493.119 224.146 492.653 224.428 492.383 224.722C492.113 225.016 491.978 225.163 491.978 225.163H492.089C492.162 225.188 492.26 225.212 492.383 225.237C492.506 225.261 492.628 225.323 492.751 225.421C492.873 225.519 493.021 225.605 493.192 225.678C493.364 225.752 493.487 225.887 493.56 226.083C493.634 226.279 493.732 226.463 493.854 226.635C493.977 226.806 494.014 227.052 493.965 227.37C493.965 227.91 493.793 228.388 493.45 228.805C493.106 229.222 492.555 229.442 491.795 229.467Z" fill="white"/>
<path id="Vector_37" d="M507.059 234.984C507.059 230.987 508.052 227.824 510.039 225.494C512.025 223.165 514.232 222 516.659 222C518.351 222 519.565 222.441 520.301 223.324C521.037 224.207 521.404 225.188 521.404 226.267C521.404 226.88 521.233 227.37 520.889 227.738C520.546 228.106 520.068 228.29 519.455 228.29C518.891 228.29 518.425 228.118 518.057 227.775C517.689 227.432 517.505 226.953 517.505 226.34C517.505 225.261 518.082 224.612 519.234 224.391C518.695 223.851 517.935 223.545 516.954 223.471C515.213 223.471 513.778 224.207 512.65 225.678C511.498 227.297 510.921 229.774 510.921 233.108L510.958 233.256C511.081 233.108 511.179 232.949 511.252 232.777C512.258 231.306 513.57 230.57 515.188 230.57H515.335C516.463 230.57 517.456 230.803 518.315 231.269C518.903 231.613 519.492 232.103 520.08 232.741C520.669 233.378 521.147 234.077 521.515 234.837C522.03 236.039 522.287 237.351 522.287 238.773V239.435C522.287 239.999 522.226 240.526 522.103 241.017C521.834 242.464 521.049 243.874 519.749 245.247C518.45 246.62 516.807 247.307 514.82 247.307C514.134 247.307 513.472 247.209 512.834 247.012C512.197 246.816 511.51 246.448 510.774 245.909C510.039 245.369 509.413 244.646 508.898 243.739C508.383 242.831 507.942 241.642 507.574 240.171C507.206 238.699 507.035 236.971 507.059 234.984ZM514.967 231.895C514.232 231.895 513.594 232.103 513.055 232.52C512.515 232.937 512.098 233.489 511.804 234.175C511.51 234.862 511.301 235.561 511.179 236.272C511.056 236.983 510.983 237.743 510.958 238.552C510.958 240.588 511.105 242.047 511.4 242.929C511.694 243.812 512.16 244.523 512.797 245.063C513.386 245.504 514.036 245.725 514.747 245.725C515.997 245.725 516.954 245.259 517.616 244.327C517.935 243.886 518.155 243.334 518.278 242.672C518.401 242.01 518.462 240.722 518.462 238.81C518.462 236.848 518.401 235.536 518.278 234.874C518.155 234.212 517.935 233.66 517.616 233.219C516.954 232.336 516.071 231.895 514.967 231.895Z" fill="white"/>
</g>
<g id="Group_35">
<path id="Vector_38" d="M534.139 237.78C534.139 237.78 534.139 237.62 534.139 237.302C534.139 236.983 534.311 236.738 534.654 236.566H545.652V231.049L545.689 225.531C545.934 225.212 546.167 225.053 546.388 225.053C546.706 225.053 546.952 225.237 547.123 225.605V236.566H558.084C558.452 236.762 558.636 237.007 558.636 237.302C558.636 237.596 558.452 237.841 558.084 238.037H547.123V248.999C546.927 249.342 546.706 249.514 546.461 249.514H546.388H546.314C546.02 249.514 545.799 249.342 545.652 248.999V238.037H534.654C534.311 237.866 534.139 237.62 534.139 237.302V237.78Z" fill="white"/>
</g>
<g id="Group_36">
<path id="Vector_39" d="M576.704 225.237L576.225 225.421C575.882 225.544 575.392 225.666 574.754 225.789C574.117 225.911 573.405 225.997 572.621 226.046H571.922V224.354H572.621C573.773 224.305 574.84 224.121 575.821 223.802C576.802 223.484 577.488 223.189 577.881 222.92C578.273 222.65 578.616 222.38 578.911 222.11C578.96 222.037 579.107 222 579.352 222C579.573 222 579.781 222.074 579.977 222.221V233.219L580.014 244.254C580.186 244.425 580.333 244.536 580.455 244.585C580.578 244.634 580.872 244.683 581.338 244.732C581.804 244.781 582.564 244.805 583.619 244.805H584.575V246.497H584.171C583.656 246.424 581.706 246.387 578.322 246.387C574.987 246.387 573.062 246.424 572.547 246.497H572.106V244.805H573.062C573.602 244.805 574.068 244.805 574.46 244.805C574.852 244.805 575.159 244.793 575.379 244.769C575.6 244.744 575.796 244.707 575.968 244.658C576.14 244.609 576.238 244.585 576.262 244.585C576.287 244.585 576.36 244.523 576.483 244.401C576.606 244.278 576.679 244.229 576.704 244.254V225.237Z" fill="white"/>
<path id="Vector_40" d="M591.27 230.718C590.608 230.718 590.08 230.497 589.688 230.056C589.296 229.614 589.1 229.075 589.1 228.437C589.1 226.696 589.749 225.188 591.049 223.913C592.349 222.638 593.967 222 595.904 222C598.136 222 600 222.687 601.495 224.06C602.991 225.433 603.751 227.211 603.776 229.393C603.776 230.448 603.531 231.453 603.04 232.41C602.55 233.366 601.961 234.2 601.275 234.911C600.588 235.622 599.607 236.529 598.332 237.633C597.449 238.393 596.223 239.521 594.654 241.017L592.484 243.077L595.279 243.113C599.129 243.113 601.177 243.052 601.422 242.929C601.593 242.88 601.888 241.789 602.305 239.656V239.545H603.776V239.656C603.751 239.729 603.592 240.845 603.298 243.003C603.003 245.161 602.82 246.289 602.746 246.387V246.497H589.1V245.799V245.357C589.1 245.185 589.173 245.002 589.32 244.805C589.467 244.609 589.835 244.18 590.424 243.518C591.135 242.733 591.748 242.047 592.263 241.458C592.484 241.213 592.9 240.759 593.514 240.097C594.127 239.435 594.543 238.981 594.764 238.736C594.985 238.491 595.34 238.086 595.831 237.522C596.321 236.958 596.665 236.542 596.861 236.272C597.057 236.002 597.339 235.634 597.707 235.168C598.075 234.702 598.332 234.31 598.479 233.991C598.626 233.672 598.81 233.317 599.031 232.925C599.252 232.532 599.411 232.14 599.509 231.748C599.607 231.355 599.693 230.987 599.767 230.644C599.84 230.301 599.877 229.896 599.877 229.43C599.877 227.885 599.46 226.549 598.626 225.421C597.793 224.293 596.603 223.729 595.058 223.729C594.249 223.729 593.538 223.937 592.925 224.354C592.312 224.771 591.883 225.176 591.638 225.568C591.392 225.96 591.27 226.193 591.27 226.267C591.27 226.291 591.331 226.304 591.454 226.304C591.895 226.304 592.349 226.475 592.815 226.819C593.281 227.162 593.514 227.726 593.514 228.511C593.514 229.124 593.317 229.639 592.925 230.056C592.533 230.472 591.981 230.693 591.27 230.718Z" fill="white"/>
</g>
</g>
<g id="Group_37">
<path id="Vector_41" d="M541.201 280.816C540.539 280.816 540.012 280.595 539.619 280.154C539.227 279.712 539.031 279.173 539.031 278.535C539.031 276.794 539.681 275.286 540.98 274.011C542.28 272.736 543.898 272.098 545.836 272.098C548.067 272.098 549.931 272.785 551.427 274.158C552.922 275.531 553.683 277.309 553.707 279.491C553.707 280.546 553.462 281.551 552.971 282.508C552.481 283.464 551.892 284.298 551.206 285.009C550.519 285.72 549.538 286.627 548.263 287.731C547.38 288.491 546.154 289.619 544.585 291.115L542.415 293.175L545.21 293.211C549.06 293.211 551.108 293.15 551.353 293.028C551.525 292.978 551.819 291.887 552.236 289.754V289.644H553.707V289.754C553.683 289.827 553.523 290.943 553.229 293.101C552.935 295.259 552.751 296.387 552.677 296.485V296.595H539.031V295.897V295.455C539.031 295.284 539.104 295.1 539.251 294.903C539.399 294.707 539.766 294.278 540.355 293.616C541.066 292.831 541.679 292.145 542.194 291.556C542.415 291.311 542.832 290.857 543.445 290.195C544.058 289.533 544.475 289.08 544.695 288.834C544.916 288.589 545.272 288.184 545.762 287.62C546.252 287.056 546.596 286.64 546.792 286.37C546.988 286.1 547.27 285.732 547.638 285.266C548.006 284.8 548.263 284.408 548.41 284.089C548.557 283.771 548.741 283.415 548.962 283.023C549.183 282.63 549.342 282.238 549.44 281.846C549.538 281.453 549.624 281.085 549.698 280.742C549.771 280.399 549.808 279.994 549.808 279.528C549.808 277.983 549.391 276.647 548.557 275.519C547.724 274.391 546.534 273.827 544.99 273.827C544.18 273.827 543.469 274.035 542.856 274.452C542.243 274.869 541.814 275.274 541.569 275.666C541.324 276.058 541.201 276.291 541.201 276.365C541.201 276.389 541.262 276.402 541.385 276.402C541.826 276.402 542.28 276.573 542.746 276.917C543.212 277.26 543.445 277.824 543.445 278.609C543.445 279.222 543.249 279.737 542.856 280.154C542.464 280.57 541.912 280.791 541.201 280.816Z" fill="white"/>
</g>
<path id="Vector_42" d="M609.33 263.27H483.445V261.063H609.33V263.27Z" fill="white"/>
</g>
</g>
<g id="Group 24">
<g id="Group_38">
<path id="Vector_43" d="M406.159 377.245C406.159 376.607 406.38 376.08 406.821 375.663C407.262 375.246 407.79 375.038 408.403 375.038C408.991 375.038 409.494 375.246 409.911 375.663C410.328 376.08 410.548 376.607 410.573 377.245C410.597 377.882 410.389 378.41 409.948 378.826C409.506 379.243 408.979 379.452 408.366 379.452C407.728 379.452 407.201 379.243 406.784 378.826C406.367 378.41 406.159 377.882 406.159 377.245ZM399.207 390.965C399.845 390.965 400.359 391.173 400.752 391.59C401.144 392.007 401.353 392.534 401.377 393.172C401.377 393.76 401.181 394.275 400.789 394.717C400.396 395.158 399.857 395.379 399.17 395.379C398.533 395.379 398.018 395.17 397.625 394.753C397.233 394.336 397.025 393.809 397 393.172C397 392.534 397.208 392.007 397.625 391.59C398.042 391.173 398.569 390.965 399.207 390.965ZM415.391 393.172C415.391 392.534 415.6 392.007 416.017 391.59C416.434 391.173 416.961 390.965 417.598 390.965C418.187 390.965 418.69 391.173 419.106 391.59C419.523 392.007 419.744 392.534 419.769 393.172C419.769 393.736 419.572 394.238 419.18 394.68C418.788 395.121 418.248 395.354 417.562 395.379C416.924 395.379 416.409 395.17 416.017 394.753C415.624 394.336 415.416 393.809 415.391 393.172Z" fill="white"/>
</g>
<g id="Group_39">
<g id="Group_40">
<path id="Vector_44" d="M466.174 367.497C465.732 367.424 464.151 367.387 461.429 367.387C458.584 367.387 456.941 367.424 456.5 367.497H456.169V365.805H457.309C457.799 365.805 458.131 365.805 458.302 365.805C458.474 365.805 458.682 365.781 458.927 365.732C459.173 365.683 459.344 365.621 459.442 365.548C459.541 365.474 459.626 365.376 459.7 365.254C459.724 365.205 459.737 364.542 459.737 363.267V361.428H450.21V359.736L455.764 351.239C459.516 345.55 461.416 342.694 461.465 342.669C461.515 342.62 461.772 342.595 462.238 342.595H462.9L463.121 342.816V359.736H466.505V361.428H463.121V363.304C463.121 364.31 463.121 364.898 463.121 365.07C463.121 365.241 463.194 365.388 463.341 365.511C463.538 365.683 464.236 365.781 465.438 365.805H466.505V367.497H466.174ZM459.957 359.736V347.451L451.902 359.699L455.911 359.736H459.957Z" fill="white"/>
<path id="Vector_45" d="M470.146 352.159C470.146 352.159 470.146 351.215 470.146 349.327C470.146 347.439 470.808 345.918 472.132 344.766C473.456 343.613 474.977 343.025 476.693 343C478.434 343 479.979 343.515 481.328 344.545C482.677 345.575 483.351 346.911 483.351 348.554C483.351 349.29 483.216 349.977 482.946 350.614C482.677 351.252 482.358 351.767 481.99 352.159C481.622 352.551 481.242 352.895 480.85 353.189C480.457 353.483 480.139 353.704 479.893 353.851C479.648 353.998 479.513 354.096 479.489 354.145L480.004 354.476C480.347 354.721 480.69 354.967 481.034 355.212C481.377 355.457 481.573 355.592 481.622 355.617C483.461 357.063 484.381 358.89 484.381 361.097C484.381 363.034 483.67 364.714 482.247 366.136C480.825 367.559 478.986 368.282 476.73 368.307C474.523 368.307 472.708 367.681 471.286 366.431C469.864 365.18 469.153 363.635 469.153 361.796C469.153 359.148 470.734 356.941 473.898 355.175L473.236 354.697C472.721 354.378 472.39 354.133 472.243 353.961C470.845 352.76 470.146 351.215 470.146 349.327V352.159ZM478.091 353.299L478.312 353.152C478.459 353.054 478.569 352.98 478.643 352.931C478.716 352.882 478.839 352.797 479.011 352.674C479.182 352.551 479.329 352.429 479.452 352.306C479.575 352.183 479.709 352.036 479.857 351.865C480.004 351.693 480.139 351.534 480.261 351.387C480.384 351.239 480.506 351.043 480.629 350.798C480.752 350.553 480.862 350.344 480.96 350.173C481.058 350.001 481.119 349.756 481.144 349.437C481.169 349.118 481.193 348.849 481.218 348.628C481.218 347.573 480.862 346.678 480.151 345.943C479.44 345.207 478.618 344.741 477.686 344.545C477.515 344.52 477.11 344.508 476.473 344.508C475.467 344.508 474.523 344.827 473.64 345.464C472.758 346.102 472.304 346.899 472.279 347.855C472.279 348.419 472.439 348.934 472.758 349.4C473.076 349.866 473.395 350.222 473.714 350.467C474.033 350.712 474.646 351.105 475.553 351.644C475.725 351.767 475.86 351.852 475.958 351.901L478.091 353.299ZM476.767 366.725C478.189 366.725 479.415 366.308 480.445 365.474C481.475 364.641 481.99 363.635 481.99 362.458C481.99 362.041 481.929 361.649 481.806 361.281C481.683 360.913 481.536 360.607 481.365 360.362C481.193 360.116 480.923 359.847 480.555 359.552C480.188 359.258 479.906 359.037 479.709 358.89C479.513 358.743 479.158 358.51 478.643 358.191C478.128 357.873 477.797 357.664 477.65 357.566C477.306 357.345 476.939 357.112 476.546 356.867C476.154 356.622 475.835 356.413 475.59 356.242L475.296 356.058C475.148 356.058 474.793 356.266 474.229 356.683C473.665 357.1 473.076 357.774 472.463 358.706C471.85 359.638 471.531 360.644 471.507 361.722C471.507 363.169 472.034 364.359 473.089 365.29C474.143 366.222 475.369 366.7 476.767 366.725Z" fill="white"/>
</g>
<g id="Group_41">
<path id="Vector_46" d="M462.386 401.816C461.723 401.816 461.196 401.595 460.804 401.154C460.412 400.712 460.215 400.173 460.215 399.535C460.215 397.794 460.865 396.286 462.165 395.011C463.464 393.736 465.083 393.098 467.02 393.098C469.252 393.098 471.115 393.785 472.611 395.158C474.107 396.531 474.867 398.309 474.892 400.491C474.892 401.546 474.646 402.551 474.156 403.508C473.666 404.464 473.077 405.298 472.39 406.009C471.704 406.72 470.723 407.627 469.448 408.731C468.565 409.491 467.339 410.619 465.77 412.115L463.599 414.175L466.395 414.211C470.245 414.211 472.292 414.15 472.538 414.028C472.709 413.978 473.003 412.887 473.42 410.754V410.644H474.892V410.754C474.867 410.827 474.708 411.943 474.413 414.101C474.119 416.259 473.935 417.387 473.862 417.485V417.595H460.215V416.897V416.455C460.215 416.284 460.289 416.1 460.436 415.903C460.583 415.707 460.951 415.278 461.54 414.616C462.251 413.831 462.864 413.145 463.379 412.556C463.599 412.311 464.016 411.857 464.629 411.195C465.242 410.533 465.659 410.08 465.88 409.834C466.101 409.589 466.456 409.184 466.947 408.62C467.437 408.056 467.78 407.64 467.976 407.37C468.173 407.1 468.455 406.732 468.822 406.266C469.19 405.8 469.448 405.408 469.595 405.089C469.742 404.771 469.926 404.415 470.147 404.023C470.367 403.63 470.527 403.238 470.625 402.846C470.723 402.453 470.809 402.085 470.882 401.742C470.956 401.399 470.993 400.994 470.993 400.528C470.993 398.983 470.576 397.647 469.742 396.519C468.908 395.391 467.719 394.827 466.174 394.827C465.365 394.827 464.654 395.035 464.041 395.452C463.428 395.869 462.999 396.274 462.753 396.666C462.508 397.058 462.386 397.291 462.386 397.365C462.386 397.389 462.447 397.402 462.569 397.402C463.011 397.402 463.464 397.573 463.93 397.917C464.396 398.26 464.629 398.824 464.629 399.609C464.629 400.222 464.433 400.737 464.041 401.154C463.648 401.57 463.097 401.791 462.386 401.816Z" fill="white"/>
</g>
<path id="Vector_47" d="M489.641 384.27H445.502V382.063H489.641V384.27Z" fill="white"/>
</g>
<g id="Group_42">
<path id="Vector_48" d="M506.333 379.599C506.333 379.28 506.504 379.035 506.848 378.863H530.278C530.646 379.059 530.83 379.305 530.83 379.599C530.83 379.869 530.658 380.102 530.315 380.298L518.618 380.335H506.921C506.529 380.212 506.333 379.967 506.333 379.599ZM506.333 386.735C506.333 386.367 506.529 386.122 506.921 385.999H530.315C530.658 386.244 530.83 386.49 530.83 386.735C530.83 387.054 530.646 387.299 530.278 387.47H506.848C506.504 387.299 506.333 387.054 506.333 386.735Z" fill="white"/>
</g>
<g id="Group_43">
<path id="Vector_49" d="M547.114 376.583C546.452 376.583 545.925 376.362 545.533 375.921C545.14 375.479 544.944 374.94 544.944 374.302C544.944 372.561 545.594 371.053 546.894 369.778C548.193 368.503 549.812 367.865 551.749 367.865C553.98 367.865 555.844 368.552 557.34 369.925C558.836 371.298 559.596 373.076 559.62 375.259C559.62 376.313 559.375 377.318 558.885 378.275C558.394 379.231 557.806 380.065 557.119 380.776C556.433 381.487 555.452 382.394 554.177 383.498C553.294 384.258 552.068 385.386 550.498 386.882L548.328 388.942L551.124 388.978C554.974 388.978 557.021 388.917 557.266 388.795C557.438 388.746 557.732 387.654 558.149 385.521V385.411H559.62V385.521C559.596 385.594 559.436 386.71 559.142 388.868C558.848 391.026 558.664 392.154 558.59 392.252V392.363H544.944V391.664V391.222C544.944 391.051 545.018 390.867 545.165 390.67C545.312 390.474 545.68 390.045 546.268 389.383C546.979 388.598 547.592 387.912 548.107 387.323C548.328 387.078 548.745 386.624 549.358 385.962C549.971 385.3 550.388 384.847 550.609 384.601C550.829 384.356 551.185 383.952 551.675 383.388C552.166 382.824 552.509 382.407 552.705 382.137C552.901 381.867 553.183 381.499 553.551 381.033C553.919 380.568 554.177 380.175 554.324 379.856C554.471 379.538 554.655 379.182 554.875 378.79C555.096 378.397 555.256 378.005 555.354 377.613C555.452 377.22 555.538 376.852 555.611 376.509C555.685 376.166 555.721 375.761 555.721 375.295C555.721 373.75 555.305 372.414 554.471 371.286C553.637 370.158 552.448 369.594 550.903 369.594C550.094 369.594 549.383 369.802 548.769 370.219C548.156 370.636 547.727 371.041 547.482 371.433C547.237 371.825 547.114 372.058 547.114 372.132C547.114 372.157 547.176 372.169 547.298 372.169C547.74 372.169 548.193 372.34 548.659 372.684C549.125 373.027 549.358 373.591 549.358 374.376C549.358 374.989 549.162 375.504 548.769 375.921C548.377 376.337 547.825 376.558 547.114 376.583Z" fill="white"/>
<path id="Vector_50" d="M578.49 392.363C578.049 392.289 576.467 392.252 573.745 392.252C570.901 392.252 569.258 392.289 568.816 392.363H568.485V390.671H569.626C570.116 390.671 570.447 390.671 570.619 390.671C570.79 390.671 570.999 390.646 571.244 390.597C571.489 390.548 571.661 390.487 571.759 390.413C571.857 390.339 571.943 390.241 572.017 390.119C572.041 390.07 572.053 389.408 572.053 388.132V386.293H562.527V384.601L568.081 376.105C571.833 370.415 573.733 367.559 573.782 367.534C573.831 367.485 574.089 367.461 574.555 367.461H575.217L575.437 367.681V384.601H578.821V386.293H575.437V388.169C575.437 389.175 575.437 389.763 575.437 389.935C575.437 390.106 575.511 390.254 575.658 390.376C575.854 390.548 576.553 390.646 577.755 390.671H578.821V392.363H578.49ZM572.274 384.601V372.316L564.219 384.565L568.228 384.601H572.274Z" fill="white"/>
</g>
</g>
</g>
</g>
</g>
</g>
</svg>
