<svg viewBox="0 0 761 260" fill="none" xmlns="http://www.w3.org/2000/svg">
<path d="M19.2598 27.0166H23.7969V30.4082H19.2598V38H15.082V30.4082H0.19043V27.96L14.835 5.29688H19.2598V27.0166ZM4.90723 27.0166H15.082V10.9795L14.5879 11.8779L4.90723 27.0166Z" fill="white"/>
<path d="M96.2783 24.7256C96.2783 21.3415 96.7275 18.0921 97.626 14.9775C98.5394 11.863 99.8945 9.03288 101.691 6.4873C103.488 3.94173 105.353 2.14486 107.284 1.09668L108.138 3.83691C105.951 5.514 104.155 8.07454 102.747 11.5186C101.354 14.9626 100.591 18.8184 100.456 23.0859L100.434 24.9951C100.434 30.7751 101.489 35.7913 103.601 40.0439C104.873 42.5895 106.386 44.5811 108.138 46.0186L107.284 48.5566C105.293 47.4486 103.391 45.5918 101.579 42.9863C98.0452 37.8952 96.2783 31.8083 96.2783 24.7256Z" fill="white"/>
<path d="M128.038 5.27441V8.80078H127.274C124.04 8.86068 121.465 9.81901 119.548 11.6758C117.631 13.5326 116.523 16.1455 116.224 19.5146C117.946 17.5381 120.297 16.5498 123.276 16.5498C126.121 16.5498 128.39 17.5531 130.082 19.5596C131.789 21.5661 132.643 24.1566 132.643 27.3311C132.643 30.7002 131.722 33.3955 129.88 35.417C128.053 37.4385 125.597 38.4492 122.513 38.4492C119.383 38.4492 116.845 37.2513 114.898 34.8555C112.952 32.4447 111.979 29.3451 111.979 25.5566V23.9619C111.979 17.9424 113.259 13.3454 115.819 10.1709C118.395 6.98145 122.221 5.34928 127.297 5.27441H128.038ZM122.58 20.0088C121.158 20.0088 119.847 20.4355 118.649 21.2891C117.451 22.1426 116.62 23.2132 116.156 24.501V26.0283C116.156 28.7236 116.763 30.8949 117.976 32.542C119.188 34.1891 120.701 35.0127 122.513 35.0127C124.384 35.0127 125.852 34.3239 126.915 32.9463C127.993 31.5687 128.532 29.7643 128.532 27.5332C128.532 25.2871 127.986 23.4753 126.893 22.0977C125.814 20.7051 124.377 20.0088 122.58 20.0088Z" fill="white"/>
<path d="M157.395 13.832C157.395 15.4642 156.96 16.9167 156.092 18.1895C155.238 19.4622 154.078 20.458 152.61 21.1768C154.317 21.9105 155.665 22.9811 156.653 24.3887C157.657 25.7962 158.158 27.391 158.158 29.1729C158.158 32.0029 157.2 34.2565 155.283 35.9336C153.382 37.6107 150.873 38.4492 147.759 38.4492C144.614 38.4492 142.091 37.6107 140.189 35.9336C138.303 34.2415 137.359 31.988 137.359 29.1729C137.359 27.4059 137.839 25.8112 138.797 24.3887C139.77 22.9661 141.11 21.888 142.817 21.1543C141.365 20.4355 140.219 19.4398 139.381 18.167C138.542 16.8942 138.123 15.4492 138.123 13.832C138.123 11.0768 139.007 8.89062 140.773 7.27344C142.54 5.65625 144.869 4.84766 147.759 4.84766C150.634 4.84766 152.955 5.65625 154.722 7.27344C156.504 8.89062 157.395 11.0768 157.395 13.832ZM154.003 29.083C154.003 27.2562 153.419 25.7663 152.251 24.6133C151.098 23.4603 149.586 22.8838 147.714 22.8838C145.842 22.8838 144.337 23.4528 143.199 24.5908C142.076 25.7288 141.515 27.2262 141.515 29.083C141.515 30.9398 142.061 32.3997 143.154 33.4629C144.262 34.526 145.797 35.0576 147.759 35.0576C149.705 35.0576 151.233 34.526 152.341 33.4629C153.449 32.3848 154.003 30.9248 154.003 29.083ZM147.759 8.26172C146.127 8.26172 144.801 8.77083 143.783 9.78906C142.78 10.7923 142.278 12.1624 142.278 13.8994C142.278 15.5615 142.772 16.9092 143.761 17.9424C144.764 18.9606 146.097 19.4697 147.759 19.4697C149.421 19.4697 150.746 18.9606 151.734 17.9424C152.738 16.9092 153.239 15.5615 153.239 13.8994C153.239 12.2373 152.723 10.8822 151.689 9.83398C150.656 8.78581 149.346 8.26172 147.759 8.26172Z" fill="white"/>
<path d="M173.409 24.9502C173.409 28.2894 172.967 31.4938 172.084 34.5635C171.215 37.6182 169.875 40.4408 168.063 43.0312C166.267 45.6217 164.38 47.4635 162.403 48.5566L161.527 46.0186C163.833 44.2516 165.683 41.5114 167.075 37.7979C168.483 34.0693 169.201 29.9365 169.231 25.3994V24.6807C169.231 21.5361 168.902 18.6162 168.243 15.9209C167.584 13.2106 166.663 10.7848 165.48 8.64355C164.312 6.50228 162.995 4.83268 161.527 3.63477L162.403 1.09668C164.38 2.18978 166.259 4.0166 168.041 6.57715C169.838 9.1377 171.178 11.9603 172.062 15.0449C172.96 18.1296 173.409 21.4313 173.409 24.9502Z" fill="white"/>
<path d="M257.862 38H236.435V35.0127L247.755 22.4346C249.432 20.5329 250.585 18.9906 251.214 17.8076C251.858 16.6097 252.18 15.3743 252.18 14.1016C252.18 12.3945 251.663 10.9945 250.63 9.90137C249.597 8.80827 248.219 8.26172 246.497 8.26172C244.431 8.26172 242.821 8.85319 241.668 10.0361C240.53 11.2041 239.961 12.8363 239.961 14.9326H235.806C235.806 11.9229 236.771 9.48958 238.703 7.63281C240.65 5.77604 243.248 4.84766 246.497 4.84766C249.537 4.84766 251.94 5.64876 253.707 7.25098C255.474 8.83822 256.357 10.957 256.357 13.6074C256.357 16.8268 254.306 20.6602 250.203 25.1074L241.443 34.6084H257.862V38Z" fill="white"/>
<path d="M7.75977 96.627H10.8818C12.8434 96.597 14.3857 96.0804 15.5088 95.0771C16.6318 94.0739 17.1934 92.7188 17.1934 91.0117C17.1934 87.1784 15.2842 85.2617 11.4658 85.2617C9.66895 85.2617 8.23145 85.7783 7.15332 86.8115C6.09017 87.8298 5.55859 89.1849 5.55859 90.877H1.40332C1.40332 88.2865 2.34668 86.1377 4.2334 84.4307C6.13509 82.7087 8.5459 81.8477 11.4658 81.8477C14.5505 81.8477 16.9688 82.6637 18.7207 84.2959C20.4727 85.9281 21.3486 88.1966 21.3486 91.1016C21.3486 92.5241 20.8844 93.9017 19.9561 95.2344C19.0426 96.5671 17.7923 97.5628 16.2051 98.2217C18.002 98.7907 19.387 99.734 20.3604 101.052C21.3486 102.369 21.8428 103.979 21.8428 105.881C21.8428 108.816 20.8844 111.144 18.9678 112.866C17.0511 114.588 14.5579 115.449 11.4883 115.449C8.41862 115.449 5.91797 114.618 3.98633 112.956C2.06966 111.294 1.11133 109.1 1.11133 106.375H5.28906C5.28906 108.097 5.85059 109.475 6.97363 110.508C8.09668 111.541 9.60156 112.058 11.4883 112.058C13.4948 112.058 15.0296 111.534 16.0928 110.485C17.1559 109.437 17.6875 107.932 17.6875 105.971C17.6875 104.069 17.1035 102.609 15.9355 101.591C14.7676 100.573 13.083 100.049 10.8818 100.019H7.75977V96.627Z" fill="white"/>
<path d="M96.2783 101.726C96.2783 98.3415 96.7275 95.0921 97.626 91.9775C98.5394 88.863 99.8945 86.0329 101.691 83.4873C103.488 80.9417 105.353 79.1449 107.284 78.0967L108.138 80.8369C105.951 82.514 104.155 85.0745 102.747 88.5186C101.354 91.9626 100.591 95.8184 100.456 100.086L100.434 101.995C100.434 107.775 101.489 112.791 103.601 117.044C104.873 119.59 106.386 121.581 108.138 123.019L107.284 125.557C105.293 124.449 103.391 122.592 101.579 119.986C98.0452 114.895 96.2783 108.808 96.2783 101.726Z" fill="white"/>
<path d="M117.773 96.627H120.896C122.857 96.597 124.399 96.0804 125.522 95.0771C126.646 94.0739 127.207 92.7188 127.207 91.0117C127.207 87.1784 125.298 85.2617 121.479 85.2617C119.683 85.2617 118.245 85.7783 117.167 86.8115C116.104 87.8298 115.572 89.1849 115.572 90.877H111.417C111.417 88.2865 112.36 86.1377 114.247 84.4307C116.149 82.7087 118.56 81.8477 121.479 81.8477C124.564 81.8477 126.982 82.6637 128.734 84.2959C130.486 85.9281 131.362 88.1966 131.362 91.1016C131.362 92.5241 130.898 93.9017 129.97 95.2344C129.056 96.5671 127.806 97.5628 126.219 98.2217C128.016 98.7907 129.401 99.734 130.374 101.052C131.362 102.369 131.856 103.979 131.856 105.881C131.856 108.816 130.898 111.144 128.981 112.866C127.065 114.588 124.572 115.449 121.502 115.449C118.432 115.449 115.932 114.618 114 112.956C112.083 111.294 111.125 109.1 111.125 106.375H115.303C115.303 108.097 115.864 109.475 116.987 110.508C118.11 111.541 119.615 112.058 121.502 112.058C123.508 112.058 125.043 111.534 126.106 110.485C127.17 109.437 127.701 107.932 127.701 105.971C127.701 104.069 127.117 102.609 125.949 101.591C124.781 100.573 123.097 100.049 120.896 100.019H117.773V96.627Z" fill="white"/>
<path d="M153.868 82.2744V85.8008H153.104C149.87 85.8607 147.295 86.819 145.378 88.6758C143.461 90.5326 142.353 93.1455 142.054 96.5146C143.776 94.5381 146.127 93.5498 149.106 93.5498C151.951 93.5498 154.22 94.5531 155.912 96.5596C157.619 98.5661 158.473 101.157 158.473 104.331C158.473 107.7 157.552 110.396 155.71 112.417C153.883 114.438 151.427 115.449 148.343 115.449C145.213 115.449 142.675 114.251 140.729 111.855C138.782 109.445 137.809 106.345 137.809 102.557V100.962C137.809 94.9424 139.089 90.3454 141.649 87.1709C144.225 83.9814 148.051 82.3493 153.127 82.2744H153.868ZM148.41 97.0088C146.988 97.0088 145.677 97.4355 144.479 98.2891C143.282 99.1426 142.451 100.213 141.986 101.501V103.028C141.986 105.724 142.593 107.895 143.806 109.542C145.019 111.189 146.531 112.013 148.343 112.013C150.215 112.013 151.682 111.324 152.745 109.946C153.823 108.569 154.362 106.764 154.362 104.533C154.362 102.287 153.816 100.475 152.723 99.0977C151.645 97.7051 150.207 97.0088 148.41 97.0088Z" fill="white"/>
<path d="M173.409 101.95C173.409 105.289 172.967 108.494 172.084 111.563C171.215 114.618 169.875 117.441 168.063 120.031C166.267 122.622 164.38 124.464 162.403 125.557L161.527 123.019C163.833 121.252 165.683 118.511 167.075 114.798C168.483 111.069 169.201 106.937 169.231 102.399V101.681C169.231 98.5361 168.902 95.6162 168.243 92.9209C167.584 90.2106 166.663 87.7848 165.48 85.6436C164.312 83.5023 162.995 81.8327 161.527 80.6348L162.403 78.0967C164.38 79.1898 166.259 81.0166 168.041 83.5771C169.838 86.1377 171.178 88.9603 172.062 92.0449C172.96 95.1296 173.409 98.4313 173.409 101.95Z" fill="white"/>
<path d="M253.887 96.627H257.009C258.97 96.597 260.513 96.0804 261.636 95.0771C262.759 94.0739 263.32 92.7188 263.32 91.0117C263.32 87.1784 261.411 85.2617 257.593 85.2617C255.796 85.2617 254.358 85.7783 253.28 86.8115C252.217 87.8298 251.686 89.1849 251.686 90.877H247.53C247.53 88.2865 248.474 86.1377 250.36 84.4307C252.262 82.7087 254.673 81.8477 257.593 81.8477C260.677 81.8477 263.096 82.6637 264.848 84.2959C266.6 85.9281 267.476 88.1966 267.476 91.1016C267.476 92.5241 267.011 93.9017 266.083 95.2344C265.17 96.5671 263.919 97.5628 262.332 98.2217C264.129 98.7907 265.514 99.734 266.487 101.052C267.476 102.369 267.97 103.979 267.97 105.881C267.97 108.816 267.011 111.144 265.095 112.866C263.178 114.588 260.685 115.449 257.615 115.449C254.546 115.449 252.045 114.618 250.113 112.956C248.197 111.294 247.238 109.1 247.238 106.375H251.416C251.416 108.097 251.978 109.475 253.101 110.508C254.224 111.541 255.729 112.058 257.615 112.058C259.622 112.058 261.157 111.534 262.22 110.485C263.283 109.437 263.814 107.932 263.814 105.971C263.814 104.069 263.23 102.609 262.062 101.591C260.895 100.573 259.21 100.049 257.009 100.019H253.887V96.627Z" fill="white"/>
<path d="M23.1455 192H1.71777V189.013L13.0381 176.435C14.7152 174.533 15.8682 172.991 16.4971 171.808C17.141 170.61 17.4629 169.374 17.4629 168.102C17.4629 166.395 16.9463 164.994 15.9131 163.901C14.8799 162.808 13.5023 162.262 11.7803 162.262C9.71387 162.262 8.10417 162.853 6.95117 164.036C5.81315 165.204 5.24414 166.836 5.24414 168.933H1.08887C1.08887 165.923 2.05469 163.49 3.98633 161.633C5.93294 159.776 8.53092 158.848 11.7803 158.848C14.82 158.848 17.2233 159.649 18.9902 161.251C20.7572 162.838 21.6406 164.957 21.6406 167.607C21.6406 170.827 19.5892 174.66 15.4863 179.107L6.72656 188.608H23.1455V192Z" fill="white"/>
<path d="M96.2783 178.726C96.2783 175.341 96.7275 172.092 97.626 168.978C98.5394 165.863 99.8945 163.033 101.691 160.487C103.488 157.942 105.353 156.145 107.284 155.097L108.138 157.837C105.951 159.514 104.155 162.075 102.747 165.519C101.354 168.963 100.591 172.818 100.456 177.086L100.434 178.995C100.434 184.775 101.489 189.791 103.601 194.044C104.873 196.59 106.386 198.581 108.138 200.019L107.284 202.557C105.293 201.449 103.391 199.592 101.579 196.986C98.0452 191.895 96.2783 185.808 96.2783 178.726Z" fill="white"/>
<path d="M131.722 176.569L137.112 167.697H141.964L134.013 179.714L142.211 192H137.404L131.789 182.903L126.174 192H121.345L129.543 179.714L121.592 167.697H126.398L131.722 176.569Z" fill="white"/>
<path d="M167.39 178.95C167.39 182.289 166.948 185.494 166.064 188.563C165.196 191.618 163.856 194.441 162.044 197.031C160.247 199.622 158.36 201.464 156.384 202.557L155.508 200.019C157.814 198.252 159.663 195.511 161.056 191.798C162.463 188.069 163.182 183.937 163.212 179.399V178.681C163.212 175.536 162.882 172.616 162.224 169.921C161.565 167.211 160.644 164.785 159.461 162.644C158.293 160.502 156.975 158.833 155.508 157.635L156.384 155.097C158.36 156.19 160.24 158.017 162.021 160.577C163.818 163.138 165.159 165.96 166.042 169.045C166.94 172.13 167.39 175.431 167.39 178.95Z" fill="white"/>
<path d="M243.734 175.604L245.396 159.297H262.152V163.138H248.923L247.935 172.055C249.537 171.111 251.356 170.64 253.393 170.64C256.372 170.64 258.738 171.628 260.49 173.604C262.242 175.566 263.118 178.224 263.118 181.578C263.118 184.947 262.205 187.605 260.378 189.552C258.566 191.483 256.028 192.449 252.764 192.449C249.874 192.449 247.515 191.648 245.688 190.046C243.862 188.444 242.821 186.228 242.566 183.397H246.497C246.752 185.269 247.418 186.684 248.496 187.643C249.574 188.586 250.997 189.058 252.764 189.058C254.695 189.058 256.208 188.399 257.301 187.081C258.409 185.763 258.963 183.944 258.963 181.623C258.963 179.437 258.364 177.685 257.166 176.367C255.983 175.035 254.403 174.368 252.427 174.368C250.615 174.368 249.192 174.765 248.159 175.559L247.059 176.457L243.734 175.604Z" fill="white"/>
<path d="M331.701 15.3163C331.701 15.0126 331.922 14.8608 332.363 14.8608C332.501 14.8608 332.612 14.8608 332.695 14.8608C332.778 14.8608 332.847 14.8608 332.902 14.8608C332.957 14.8608 333.012 14.8746 333.067 14.9022C333.123 14.9298 333.15 14.9436 333.15 14.9436C333.15 14.9436 333.178 14.985 333.233 15.0678C333.288 15.1507 333.316 15.1921 333.316 15.1921C333.316 15.1921 333.357 15.2611 333.44 15.3991C334.462 17.4422 335.815 19.2506 337.499 20.8243C339.183 22.3981 340.715 23.5162 342.096 24.1789C343.476 24.8415 344.801 25.3522 346.071 25.7112C346.541 25.8492 346.775 26.0287 346.775 26.2495C346.775 26.4704 346.651 26.6223 346.403 26.7051C346.154 26.7879 345.643 26.9398 344.87 27.1607C344.097 27.3815 343.297 27.7128 342.468 28.1546C338.493 30.0872 335.483 33.069 333.44 37.1C333.33 37.3484 333.233 37.4865 333.15 37.5141C333.067 37.5417 332.86 37.5693 332.529 37.5969C331.977 37.5969 331.701 37.5003 331.701 37.307C331.701 37.1966 331.77 36.9619 331.908 36.603C332.874 34.698 334.061 33 335.469 31.5091L335.884 31.095H310.58C310.193 30.9017 310 30.6256 310 30.2667C310 29.8525 310.221 29.5765 310.663 29.4384H337.706L338.12 29.1071C339.197 28.2788 340.812 27.3263 342.965 26.2495C342.938 26.2219 342.689 26.0977 342.22 25.8768C341.751 25.656 341.129 25.3246 340.356 24.8829C339.583 24.4411 338.838 23.9442 338.12 23.392L337.706 23.0607H310.663C310.221 22.9226 310 22.6465 310 22.2324C310 21.8735 310.193 21.5974 310.58 21.4041H335.884L335.469 20.99C334.558 20.0237 333.702 18.9055 332.902 17.6355C332.101 16.3655 331.701 15.5924 331.701 15.3163Z" fill="white"/>
<path d="M391.237 36.6035C390.74 36.5207 388.96 36.4793 385.895 36.4793C382.692 36.4793 380.843 36.5207 380.346 36.6035H379.973V34.6985H381.257C381.809 34.6985 382.182 34.6985 382.375 34.6985C382.568 34.6985 382.803 34.6709 383.079 34.6157C383.355 34.5604 383.548 34.4914 383.659 34.4086C383.769 34.3258 383.866 34.2153 383.949 34.0773C383.976 34.0221 383.99 33.2766 383.99 31.8409V29.7702H373.264V27.8652L379.517 18.2986C383.742 11.8933 385.881 8.67682 385.936 8.64921C385.992 8.59399 386.282 8.56638 386.806 8.56638H387.552L387.8 8.81487V27.8652H391.61V29.7702H387.8V31.8823C387.8 33.0143 387.8 33.6769 387.8 33.8702C387.8 34.0635 387.883 34.2291 388.049 34.3672C388.269 34.5604 389.056 34.6709 390.409 34.6985H391.61V36.6035H391.237ZM384.239 27.8652V14.033L375.169 27.8238L379.683 27.8652H384.239Z" fill="white"/>
<path d="M396.529 5.94371C396.002 5.94371 395.592 5.77779 395.3 5.44596C395.007 5.11412 394.851 4.68469 394.831 4.15766C394.831 3.08407 395.3 2.12761 396.237 1.28826C397.173 0.448913 398.306 0.0292397 399.633 0.0292397C400.316 0.0292397 400.746 0.0389997 400.921 0.0585194C402.366 0.292756 403.469 0.810027 404.23 1.61033C404.991 2.41064 405.381 3.27927 405.401 4.21622C405.401 5.23124 405.069 6.21698 404.406 7.17345C403.742 8.12991 402.824 8.82286 401.653 9.2523L401.565 9.31086C401.565 9.33038 401.653 9.35965 401.829 9.39869C402.005 9.43773 402.288 9.52557 402.678 9.66221C403.068 9.79885 403.439 10.0038 403.791 10.2771C405.391 11.3116 406.192 12.678 406.192 14.3762C406.192 15.9183 405.586 17.2651 404.376 18.4168C403.166 19.5685 401.634 20.1443 399.779 20.1443C398.218 20.1443 396.871 19.7246 395.739 18.8853C394.607 18.0459 394.041 16.9821 394.041 15.6938C394.041 15.1472 394.216 14.7081 394.568 14.3762C394.919 14.0444 395.358 13.8687 395.885 13.8492C396.432 13.8492 396.881 14.0249 397.232 14.3762C397.583 14.7276 397.759 15.1668 397.759 15.6938C397.759 15.9085 397.73 16.1037 397.671 16.2794C397.613 16.4551 397.544 16.6112 397.466 16.7479C397.388 16.8845 397.281 17.0016 397.144 17.0992C397.008 17.1968 396.89 17.2749 396.793 17.3335C396.695 17.392 396.598 17.431 396.5 17.4506C396.402 17.4701 396.324 17.4994 396.266 17.5384L396.149 17.5677C397.144 18.4461 398.354 18.8853 399.779 18.8853C400.853 18.8853 401.663 18.368 402.21 17.3335C402.541 16.6893 402.707 15.7036 402.707 14.3762V13.7906C402.707 11.9363 402.083 10.6968 400.833 10.0721C400.541 9.95501 399.945 9.88669 399.047 9.86717L397.818 9.83789L397.73 9.77933C397.691 9.72077 397.671 9.56461 397.671 9.31086C397.671 8.9595 397.749 8.78382 397.905 8.78382C398.452 8.78382 399.018 8.73502 399.604 8.63743C400.267 8.53983 400.872 8.12991 401.419 7.40769C401.966 6.68546 402.239 5.59235 402.239 4.12838V3.89414C402.239 2.78152 401.897 2.01049 401.214 1.58105C400.785 1.30778 400.326 1.17114 399.838 1.17114C399.213 1.17114 398.637 1.2785 398.11 1.49322C397.583 1.70793 397.213 1.93241 396.998 2.16665C396.783 2.40088 396.676 2.518 396.676 2.518H396.764C396.822 2.53752 396.9 2.55704 396.998 2.57656C397.095 2.59608 397.193 2.64488 397.291 2.72296C397.388 2.80104 397.505 2.86936 397.642 2.92792C397.779 2.98647 397.876 3.09383 397.935 3.24999C397.993 3.40615 398.071 3.55254 398.169 3.68918C398.267 3.82582 398.296 4.02102 398.257 4.27477C398.257 4.70421 398.12 5.08484 397.847 5.41668C397.574 5.74851 397.134 5.92419 396.529 5.94371Z" fill="white"/>
<path d="M421.043 26.7883C421.043 26.7883 421.043 26.6088 421.043 26.2499C421.043 25.891 421.236 25.6149 421.623 25.4216H434.005V19.2095L434.047 12.9975C434.323 12.6386 434.585 12.4591 434.834 12.4591C435.193 12.4591 435.469 12.6662 435.662 13.0803V25.4216H448.003C448.417 25.6425 448.625 25.9186 448.625 26.2499C448.625 26.5812 448.417 26.8573 448.003 27.0782H435.662V39.4195C435.441 39.806 435.193 39.9993 434.917 39.9993H434.834H434.751C434.42 39.9993 434.171 39.806 434.005 39.4195V27.0782H421.623C421.236 26.8849 421.043 26.6088 421.043 26.2499V26.7883Z" fill="white"/>
<path d="M464.664 18.837C463.918 18.837 463.325 18.5885 462.883 18.0916C462.441 17.5946 462.22 16.9872 462.22 16.2693C462.22 14.3091 462.952 12.6111 464.415 11.1755C465.879 9.73978 467.701 9.02193 469.882 9.02193C472.394 9.02193 474.493 9.79499 476.177 11.3411C477.861 12.8872 478.717 14.8889 478.744 17.3461C478.744 18.5333 478.468 19.6653 477.916 20.742C477.364 21.8188 476.701 22.7575 475.928 23.5582C475.155 24.3588 474.051 25.3804 472.615 26.6228C471.621 27.4787 470.241 28.7487 468.474 30.4329L466.03 32.752L469.178 32.7934C473.513 32.7934 475.818 32.7244 476.094 32.5864C476.287 32.5312 476.619 31.3026 477.088 28.9006V28.7763H478.744V28.9006C478.717 28.9834 478.537 30.2396 478.206 32.6692C477.875 35.0988 477.668 36.3688 477.585 36.4793V36.6035H462.22V35.8167V35.3197C462.22 35.1264 462.303 34.9194 462.469 34.6985C462.635 34.4776 463.049 33.9944 463.711 33.249C464.512 32.3655 465.202 31.5924 465.782 30.9298C466.03 30.6537 466.5 30.143 467.19 29.3975C467.88 28.6521 468.35 28.1413 468.598 27.8652C468.847 27.5891 469.247 27.1336 469.799 26.4986C470.351 25.8635 470.738 25.3942 470.959 25.0905C471.18 24.7868 471.497 24.3726 471.911 23.8481C472.325 23.3235 472.615 22.8817 472.781 22.5228C472.947 22.1639 473.154 21.7636 473.402 21.3218C473.651 20.8801 473.83 20.4383 473.94 19.9966C474.051 19.5548 474.148 19.1407 474.23 18.7542C474.313 18.3676 474.355 17.9121 474.355 17.3875C474.355 15.6481 473.885 14.1434 472.947 12.8734C472.008 11.6034 470.669 10.9684 468.929 10.9684C468.018 10.9684 467.218 11.2031 466.527 11.6724C465.837 12.1418 465.354 12.5973 465.078 13.0391C464.802 13.4808 464.664 13.7431 464.664 13.8259C464.664 13.8535 464.733 13.8673 464.871 13.8673C465.368 13.8673 465.879 14.0606 466.403 14.4471C466.928 14.8337 467.19 15.4687 467.19 16.3522C467.19 17.0424 466.969 17.6222 466.527 18.0916C466.086 18.5609 465.464 18.8094 464.664 18.837Z" fill="white"/>
<path d="M484.048 6.93932C483.521 6.93932 483.102 6.76364 482.789 6.41229C482.477 6.06093 482.321 5.6315 482.321 5.12399C482.321 3.73809 482.838 2.53763 483.873 1.5226C484.907 0.50758 486.196 6.86646e-05 487.738 6.86646e-05C489.514 6.86646e-05 490.997 0.54662 492.188 1.63972C493.379 2.73283 493.984 4.148 494.004 5.88526C494.004 6.7246 493.808 7.52491 493.418 8.28618C493.028 9.04745 492.559 9.71112 492.013 10.2772C491.466 10.8433 490.685 11.5655 489.67 12.4439C488.967 13.049 487.991 13.9469 486.742 15.1376L485.015 16.7772L487.24 16.8065C490.305 16.8065 491.934 16.7577 492.13 16.6601C492.266 16.6211 492.501 15.7525 492.832 14.0542V13.9664H494.004V14.0542C493.984 14.1128 493.857 15.001 493.623 16.7187C493.389 18.4364 493.242 19.3343 493.184 19.4124V19.5002H482.321V18.9439V18.5926C482.321 18.4559 482.38 18.3095 482.497 18.1534C482.614 17.9972 482.907 17.6556 483.375 17.1286C483.941 16.504 484.429 15.9574 484.839 15.4889C485.015 15.2937 485.347 14.9326 485.835 14.4056C486.323 13.8786 486.654 13.5175 486.83 13.3223C487.006 13.1271 487.289 12.805 487.679 12.356C488.07 11.9071 488.343 11.5752 488.499 11.3605C488.655 11.1458 488.88 10.853 489.172 10.4821C489.465 10.1113 489.67 9.79896 489.787 9.5452C489.904 9.29144 490.051 9.00841 490.226 8.69609C490.402 8.38378 490.529 8.07146 490.607 7.75915C490.685 7.44683 490.753 7.15404 490.812 6.88076C490.871 6.60749 490.9 6.28541 490.9 5.91454C490.9 4.6848 490.568 3.62097 489.904 2.72307C489.241 1.82516 488.294 1.37621 487.064 1.37621C486.42 1.37621 485.854 1.54212 485.366 1.87396C484.878 2.20579 484.536 2.52787 484.341 2.84018C484.146 3.1525 484.048 3.33794 484.048 3.3965C484.048 3.41602 484.097 3.42578 484.195 3.42578C484.546 3.42578 484.907 3.56241 485.278 3.83569C485.649 4.10896 485.835 4.55792 485.835 5.18255C485.835 5.67054 485.678 6.08045 485.366 6.41229C485.054 6.74412 484.615 6.9198 484.048 6.93932Z" fill="white"/>
<path d="M511.391 22.2319C511.391 21.873 511.585 21.5969 511.971 21.4037H538.352C538.766 21.6245 538.973 21.9006 538.973 22.2319C538.973 22.5356 538.78 22.7979 538.393 23.0188L525.224 23.0602H512.054C511.612 22.9222 511.391 22.6461 511.391 22.2319ZM511.391 30.2662C511.391 29.8521 511.612 29.576 512.054 29.4379H538.393C538.78 29.714 538.973 29.9901 538.973 30.2662C538.973 30.6251 538.766 30.9012 538.352 31.0945H511.971C511.585 30.9012 511.391 30.6251 511.391 30.2662Z" fill="white"/>
<path d="M554.536 23.6403C554.536 19.14 555.654 15.5784 557.89 12.9555C560.126 10.3327 562.611 9.02123 565.345 9.02123C567.25 9.02123 568.616 9.5182 569.445 10.5121C570.273 11.5061 570.687 12.6104 570.687 13.8252C570.687 14.5155 570.494 15.0676 570.107 15.4818C569.721 15.8959 569.182 16.103 568.492 16.103C567.857 16.103 567.332 15.9097 566.918 15.5232C566.504 15.1367 566.297 14.5983 566.297 13.9081C566.297 12.6933 566.946 11.9616 568.244 11.7131C567.636 11.1057 566.78 10.7606 565.676 10.6778C563.716 10.6778 562.101 11.5061 560.831 13.1626C559.533 14.9848 558.884 17.7733 558.884 21.5282L558.925 21.6939C559.064 21.5282 559.174 21.3487 559.257 21.1555C560.389 19.4989 561.866 18.6706 563.688 18.6706H563.854C565.124 18.6706 566.242 18.9329 567.208 19.4575C567.871 19.844 568.533 20.3962 569.196 21.1141C569.859 21.8319 570.397 22.6188 570.811 23.4746C571.391 24.8275 571.681 26.3046 571.681 27.9059V28.6514C571.681 29.2864 571.612 29.88 571.474 30.4322C571.17 32.0611 570.287 33.6486 568.823 35.1947C567.36 36.7409 565.51 37.5139 563.274 37.5139C562.501 37.5139 561.755 37.4035 561.038 37.1826C560.32 36.9617 559.547 36.5476 558.718 35.9402C557.89 35.3328 557.186 34.5183 556.606 33.4968C556.027 32.4752 555.53 31.1362 555.115 29.4796C554.701 27.8231 554.508 25.8766 554.536 23.6403ZM563.44 20.1615C562.611 20.1615 561.893 20.3962 561.286 20.8656C560.679 21.3349 560.209 21.9561 559.878 22.7292C559.547 23.5023 559.312 24.2891 559.174 25.0898C559.036 25.8904 558.953 26.7463 558.925 27.6574C558.925 29.949 559.091 31.5917 559.422 32.5857C559.754 33.5796 560.278 34.3803 560.996 34.9877C561.659 35.4846 562.39 35.7331 563.191 35.7331C564.599 35.7331 565.676 35.2085 566.421 34.1594C566.78 33.6624 567.029 33.0412 567.167 32.2958C567.305 31.5503 567.374 30.1008 567.374 27.9473C567.374 25.7386 567.305 24.2615 567.167 23.5161C567.029 22.7706 566.78 22.1494 566.421 21.6524C565.676 20.6585 564.682 20.1615 563.44 20.1615Z" fill="white"/>
<path d="M592.636 36.6035C592.139 36.5207 590.359 36.4793 587.294 36.4793C584.091 36.4793 582.241 36.5207 581.745 36.6035H581.372V34.6985H582.656C583.208 34.6985 583.581 34.6985 583.774 34.6985C583.967 34.6985 584.202 34.6709 584.478 34.6157C584.754 34.5604 584.947 34.4914 585.058 34.4086C585.168 34.3258 585.265 34.2153 585.348 34.0773C585.375 34.0221 585.389 33.2766 585.389 31.8409V29.7702H574.663V27.8652L580.916 18.2986C585.14 11.8933 587.28 8.67682 587.335 8.64921C587.391 8.59399 587.68 8.56638 588.205 8.56638H588.951L589.199 8.81487V27.8652H593.009V29.7702H589.199V31.8823C589.199 33.0143 589.199 33.6769 589.199 33.8702C589.199 34.0635 589.282 34.2291 589.447 34.3672C589.668 34.5604 590.455 34.6709 591.808 34.6985H593.009V36.6035H592.636ZM585.637 27.8652V14.033L576.568 27.8238L581.082 27.8652H585.637Z" fill="white"/>
<path d="M605.731 26.7883C605.731 26.7883 605.731 26.6088 605.731 26.2499C605.731 25.891 605.925 25.6149 606.311 25.4216H618.694V19.2095L618.735 12.9975C619.011 12.6386 619.274 12.4591 619.522 12.4591C619.881 12.4591 620.157 12.6662 620.351 13.0803V25.4216H632.692C633.106 25.6425 633.313 25.9186 633.313 26.2499C633.313 26.5812 633.106 26.8573 632.692 27.0782H620.351V39.4195C620.13 39.806 619.881 39.9993 619.605 39.9993H619.522H619.439C619.108 39.9993 618.86 39.806 618.694 39.4195V27.0782H606.311C605.925 26.8849 605.731 26.6088 605.731 26.2499V26.7883Z" fill="white"/>
<path d="M663.967 36.6035C663.471 36.5207 661.69 36.4793 658.625 36.4793C655.422 36.4793 653.573 36.5207 653.076 36.6035H652.703V34.6985H653.987C654.539 34.6985 654.912 34.6985 655.105 34.6985C655.298 34.6985 655.533 34.6709 655.809 34.6157C656.085 34.5604 656.278 34.4914 656.389 34.4086C656.499 34.3258 656.596 34.2153 656.679 34.0773C656.706 34.0221 656.72 33.2766 656.72 31.8409V29.7702H645.994V27.8652L652.247 18.2986C656.472 11.8933 658.611 8.67682 658.667 8.64921C658.722 8.59399 659.012 8.56638 659.536 8.56638H660.282L660.53 8.81487V27.8652H664.34V29.7702H660.53V31.8823C660.53 33.0143 660.53 33.6769 660.53 33.8702C660.53 34.0635 660.613 34.2291 660.779 34.3672C660.999 34.5604 661.786 34.6709 663.139 34.6985H664.34V36.6035H663.967ZM656.969 27.8652V14.033L647.899 27.8238L652.413 27.8652H656.969Z" fill="white"/>
<path d="M679.366 22.2319C679.366 21.873 679.559 21.5969 679.946 21.4037H706.326C706.74 21.6245 706.947 21.9006 706.947 22.2319C706.947 22.5356 706.754 22.7979 706.368 23.0188L693.198 23.0602H680.028C679.587 22.9222 679.366 22.6461 679.366 22.2319ZM679.366 30.2662C679.366 29.8521 679.587 29.576 680.028 29.4379H706.368C706.754 29.714 706.947 29.9901 706.947 30.2662C706.947 30.6251 706.74 30.9012 706.326 31.0945H679.946C679.559 30.9012 679.366 30.6251 679.366 30.2662Z" fill="white"/>
<path d="M722.51 23.6403C722.51 19.14 723.628 15.5784 725.864 12.9555C728.101 10.3327 730.586 9.02123 733.319 9.02123C735.224 9.02123 736.591 9.5182 737.419 10.5121C738.247 11.5061 738.661 12.6104 738.661 13.8252C738.661 14.5155 738.468 15.0676 738.081 15.4818C737.695 15.8959 737.157 16.103 736.466 16.103C735.831 16.103 735.307 15.9097 734.893 15.5232C734.478 15.1367 734.271 14.5983 734.271 13.9081C734.271 12.6933 734.92 11.9616 736.218 11.7131C735.61 11.1057 734.755 10.7606 733.65 10.6778C731.69 10.6778 730.075 11.5061 728.805 13.1626C727.507 14.9848 726.858 17.7733 726.858 21.5282L726.9 21.6939C727.038 21.5282 727.148 21.3487 727.231 21.1555C728.363 19.4989 729.84 18.6706 731.662 18.6706H731.828C733.098 18.6706 734.216 18.9329 735.183 19.4575C735.845 19.844 736.508 20.3962 737.17 21.1141C737.833 21.8319 738.371 22.6188 738.786 23.4746C739.365 24.8275 739.655 26.3046 739.655 27.9059V28.6514C739.655 29.2864 739.586 29.88 739.448 30.4322C739.144 32.0611 738.261 33.6486 736.798 35.1947C735.334 36.7409 733.485 37.5139 731.248 37.5139C730.475 37.5139 729.73 37.4035 729.012 37.1826C728.294 36.9617 727.521 36.5476 726.693 35.9402C725.864 35.3328 725.16 34.5183 724.581 33.4968C724.001 32.4752 723.504 31.1362 723.09 29.4796C722.676 27.8231 722.482 25.8766 722.51 23.6403ZM731.414 20.1615C730.586 20.1615 729.868 20.3962 729.26 20.8656C728.653 21.3349 728.184 21.9561 727.852 22.7292C727.521 23.5023 727.286 24.2891 727.148 25.0898C727.01 25.8904 726.927 26.7463 726.9 27.6574C726.9 29.949 727.065 31.5917 727.397 32.5857C727.728 33.5796 728.253 34.3803 728.97 34.9877C729.633 35.4846 730.365 35.7331 731.165 35.7331C732.573 35.7331 733.65 35.2085 734.396 34.1594C734.755 33.6624 735.003 33.0412 735.141 32.2958C735.279 31.5503 735.348 30.1008 735.348 27.9473C735.348 25.7386 735.279 24.2615 735.141 23.5161C735.003 22.7706 734.755 22.1494 734.396 21.6524C733.65 20.6585 732.656 20.1615 731.414 20.1615Z" fill="white"/>
<path d="M744.377 19.3333C744.377 19.3333 744.377 18.2703 744.377 16.1444C744.377 14.0185 745.122 12.3067 746.613 11.0091C748.104 9.71146 749.816 9.04884 751.748 9.02123C753.709 9.02123 755.448 9.60103 756.966 10.7606C758.485 11.9202 759.244 13.4249 759.244 15.2747C759.244 16.103 759.092 16.876 758.789 17.5939C758.485 18.3117 758.126 18.8915 757.712 19.3333C757.298 19.775 756.87 20.1615 756.428 20.4929C755.986 20.8242 755.627 21.0726 755.351 21.2383C755.075 21.404 754.923 21.5144 754.896 21.5696L755.476 21.9423C755.862 22.2184 756.249 22.4945 756.635 22.7706C757.022 23.0467 757.243 23.1986 757.298 23.2262C759.368 24.8551 760.404 26.912 760.404 29.3968C760.404 31.5779 759.603 33.4692 758.002 35.0705C756.4 36.6718 754.33 37.4863 751.79 37.5139C749.305 37.5139 747.262 36.8099 745.66 35.4018C744.059 33.9937 743.258 32.2544 743.258 30.1837C743.258 27.2019 745.039 24.7171 748.601 22.7292L747.855 22.1908C747.276 21.8319 746.903 21.5558 746.737 21.3625C745.163 20.0097 744.377 18.2703 744.377 16.1444V19.3333ZM753.322 20.6171L753.57 20.4514C753.736 20.341 753.86 20.2582 753.943 20.203C754.026 20.1477 754.164 20.0511 754.357 19.9131C754.551 19.775 754.716 19.637 754.854 19.4989C754.992 19.3609 755.144 19.1952 755.31 19.002C755.476 18.8087 755.627 18.6292 755.765 18.4636C755.903 18.2979 756.042 18.077 756.18 17.801C756.318 17.5249 756.442 17.2902 756.552 17.0969C756.663 16.9037 756.732 16.6276 756.759 16.2686C756.787 15.9097 756.815 15.606 756.842 15.3575C756.842 14.1703 756.442 13.1626 755.641 12.3343C754.841 11.5061 753.916 10.9815 752.866 10.7606C752.673 10.733 752.218 10.7192 751.5 10.7192C750.368 10.7192 749.305 11.0781 748.311 11.796C747.317 12.5138 746.806 13.4111 746.779 14.4879C746.779 15.1229 746.958 15.7027 747.317 16.2272C747.676 16.7518 748.035 17.1521 748.394 17.4282C748.753 17.7043 749.443 18.1461 750.464 18.7535C750.658 18.8915 750.81 18.9882 750.92 19.0434L753.322 20.6171ZM751.831 35.7331C753.432 35.7331 754.813 35.2638 755.972 34.3251C757.132 33.3863 757.712 32.2544 757.712 30.9291C757.712 30.4598 757.643 30.018 757.505 29.6039C757.367 29.1897 757.201 28.8446 757.008 28.5685C756.815 28.2924 756.511 27.9887 756.097 27.6574C755.683 27.3261 755.365 27.0776 755.144 26.912C754.923 26.7463 754.523 26.484 753.943 26.1251C753.363 25.7662 752.991 25.5315 752.825 25.4211C752.439 25.1726 752.024 24.9103 751.583 24.6342C751.141 24.3581 750.782 24.1235 750.506 23.9302L750.175 23.7231C750.009 23.7231 749.609 23.9578 748.974 24.4272C748.339 24.8965 747.676 25.6558 746.986 26.7049C746.295 27.7541 745.937 28.886 745.909 30.1008C745.909 31.7298 746.503 33.0688 747.69 34.118C748.877 35.1671 750.257 35.7055 751.831 35.7331Z" fill="white"/>
<path d="M331.701 92.319C331.701 92.0153 331.922 91.8634 332.363 91.8634C332.501 91.8634 332.612 91.8634 332.695 91.8634C332.778 91.8634 332.847 91.8634 332.902 91.8634C332.957 91.8634 333.012 91.8772 333.067 91.9049C333.123 91.9325 333.15 91.9463 333.15 91.9463C333.15 91.9463 333.178 91.9877 333.233 92.0705C333.288 92.1533 333.316 92.1948 333.316 92.1948C333.316 92.1948 333.357 92.2638 333.44 92.4018C334.462 94.4449 335.815 96.2533 337.499 97.827C339.183 99.4008 340.715 100.519 342.096 101.182C343.476 101.844 344.801 102.355 346.071 102.714C346.541 102.852 346.775 103.031 346.775 103.252C346.775 103.473 346.651 103.625 346.403 103.708C346.154 103.791 345.643 103.942 344.87 104.163C344.097 104.384 343.297 104.716 342.468 105.157C338.493 107.09 335.483 110.072 333.44 114.103C333.33 114.351 333.233 114.489 333.15 114.517C333.067 114.544 332.86 114.572 332.529 114.6C331.977 114.6 331.701 114.503 331.701 114.31C331.701 114.199 331.77 113.965 331.908 113.606C332.874 111.701 334.061 110.003 335.469 108.512L335.884 108.098H310.58C310.193 107.904 310 107.628 310 107.269C310 106.855 310.221 106.579 310.663 106.441H337.706L338.12 106.11C339.197 105.282 340.812 104.329 342.965 103.252C342.938 103.225 342.689 103.1 342.22 102.88C341.751 102.659 341.129 102.327 340.356 101.886C339.583 101.444 338.838 100.947 338.12 100.395L337.706 100.063H310.663C310.221 99.9253 310 99.6492 310 99.2351C310 98.8762 310.193 98.6001 310.58 98.4068H335.884L335.469 97.9927C334.558 97.0264 333.702 95.9082 332.902 94.6382C332.101 93.3681 331.701 92.5951 331.701 92.319Z" fill="white"/>
<path d="M377.364 94.4309C376.618 94.4309 376.039 94.1962 375.625 93.7269C375.21 93.2575 374.99 92.6501 374.962 91.9047C374.962 90.3862 375.625 89.0333 376.95 87.8461C378.275 86.6589 379.876 86.0653 381.754 86.0653C382.72 86.0653 383.328 86.0791 383.576 86.1067C385.619 86.4381 387.179 87.1697 388.256 88.3017C389.333 89.4337 389.885 90.6623 389.912 91.9875C389.912 93.4232 389.443 94.8174 388.504 96.1703C387.566 97.5231 386.268 98.5033 384.611 99.1107L384.487 99.1935C384.487 99.2211 384.611 99.2625 384.86 99.3177C385.108 99.373 385.509 99.4972 386.061 99.6905C386.613 99.8837 387.138 100.174 387.635 100.56C389.898 102.023 391.03 103.956 391.03 106.358C391.03 108.539 390.175 110.444 388.463 112.073C386.751 113.702 384.584 114.517 381.961 114.517C379.752 114.517 377.847 113.923 376.246 112.736C374.644 111.549 373.844 110.044 373.844 108.222C373.844 107.449 374.092 106.827 374.589 106.358C375.086 105.889 375.707 105.64 376.453 105.613C377.226 105.613 377.861 105.861 378.358 106.358C378.855 106.855 379.103 107.476 379.103 108.222C379.103 108.525 379.062 108.801 378.979 109.05C378.896 109.298 378.8 109.519 378.689 109.713C378.579 109.906 378.427 110.072 378.234 110.21C378.04 110.348 377.875 110.458 377.737 110.541C377.599 110.624 377.461 110.679 377.323 110.707C377.184 110.734 377.074 110.776 376.991 110.831L376.826 110.872C378.234 112.115 379.945 112.736 381.961 112.736C383.479 112.736 384.625 112.004 385.398 110.541C385.868 109.63 386.102 108.236 386.102 106.358V105.53C386.102 102.907 385.219 101.154 383.452 100.27C383.038 100.105 382.196 100.008 380.926 99.9804L379.186 99.9389L379.062 99.8561C379.007 99.7733 378.979 99.5524 378.979 99.1935C378.979 98.6965 379.089 98.4481 379.31 98.4481C380.083 98.4481 380.884 98.379 381.712 98.241C382.651 98.1029 383.507 97.5231 384.28 96.5016C385.053 95.4801 385.44 93.9339 385.44 91.8633V91.5319C385.44 89.9582 384.956 88.8677 383.99 88.2603C383.383 87.8737 382.734 87.6805 382.044 87.6805C381.16 87.6805 380.346 87.8323 379.6 88.136C378.855 88.4397 378.33 88.7572 378.027 89.0885C377.723 89.4198 377.571 89.5855 377.571 89.5855H377.695C377.778 89.6131 377.888 89.6407 378.027 89.6683C378.165 89.6959 378.303 89.765 378.441 89.8754C378.579 89.9858 378.744 90.0825 378.938 90.1653C379.131 90.2481 379.269 90.4 379.352 90.6208C379.435 90.8417 379.545 91.0488 379.683 91.2421C379.821 91.4353 379.863 91.7114 379.807 92.0703C379.807 92.6777 379.614 93.2161 379.228 93.6855C378.841 94.1548 378.22 94.4033 377.364 94.4309Z" fill="white"/>
<path d="M396.53 82.9444C396.003 82.9444 395.593 82.7785 395.301 82.4467C395.008 82.1149 394.852 81.6854 394.832 81.1584C394.832 80.0848 395.301 79.1283 396.238 78.289C397.174 77.4496 398.307 77.03 399.634 77.03C400.317 77.03 400.747 77.0397 400.922 77.0593C402.367 77.2935 403.47 77.8108 404.231 78.6111C404.992 79.4114 405.383 80.28 405.402 81.2169C405.402 82.232 405.07 83.2177 404.407 84.1742C403.743 85.1306 402.825 85.8236 401.654 86.253L401.566 86.3116C401.566 86.3311 401.654 86.3604 401.83 86.3994C402.006 86.4385 402.289 86.5263 402.679 86.6629C403.069 86.7996 403.44 87.0045 403.792 87.2778C405.392 88.3124 406.193 89.6787 406.193 91.3769C406.193 92.919 405.587 94.2659 404.377 95.4175C403.167 96.5692 401.635 97.145 399.78 97.145C398.219 97.145 396.872 96.7253 395.74 95.886C394.608 95.0467 394.042 93.9828 394.042 92.6945C394.042 92.148 394.217 91.7088 394.569 91.3769C394.92 91.0451 395.359 90.8694 395.886 90.8499C396.433 90.8499 396.882 91.0256 397.233 91.3769C397.584 91.7283 397.76 92.1675 397.76 92.6945C397.76 92.9092 397.731 93.1044 397.672 93.2801C397.614 93.4558 397.545 93.612 397.467 93.7486C397.389 93.8852 397.282 94.0023 397.145 94.0999C397.009 94.1975 396.891 94.2756 396.794 94.3342C396.696 94.3927 396.599 94.4318 396.501 94.4513C396.403 94.4708 396.325 94.5001 396.267 94.5391L396.15 94.5684C397.145 95.4468 398.355 95.886 399.78 95.886C400.854 95.886 401.664 95.3687 402.211 94.3342C402.542 93.69 402.708 92.7043 402.708 91.3769V90.7914C402.708 88.937 402.084 87.6975 400.834 87.0729C400.542 86.9557 399.946 86.8874 399.048 86.8679L397.819 86.8386L397.731 86.7801C397.692 86.7215 397.672 86.5653 397.672 86.3116C397.672 85.9602 397.75 85.7846 397.906 85.7846C398.453 85.7846 399.019 85.7358 399.605 85.6382C400.268 85.5406 400.873 85.1306 401.42 84.4084C401.967 83.6862 402.24 82.5931 402.24 81.1291V80.8949C402.24 79.7822 401.898 79.0112 401.215 78.5818C400.786 78.3085 400.327 78.1719 399.839 78.1719C399.214 78.1719 398.638 78.2792 398.111 78.4939C397.584 78.7087 397.214 78.9331 396.999 79.1674C396.784 79.4016 396.677 79.5187 396.677 79.5187H396.765C396.823 79.5383 396.901 79.5578 396.999 79.5773C397.096 79.5968 397.194 79.6456 397.292 79.7237C397.389 79.8018 397.506 79.8701 397.643 79.9286C397.78 79.9872 397.877 80.0946 397.936 80.2507C397.994 80.4069 398.072 80.5533 398.17 80.6899C398.268 80.8266 398.297 81.0217 398.258 81.2755C398.258 81.7049 398.121 82.0856 397.848 82.4174C397.575 82.7492 397.135 82.9249 396.53 82.9444Z" fill="white"/>
<path d="M421.048 103.791C421.048 103.791 421.048 103.611 421.048 103.253C421.048 102.894 421.241 102.618 421.627 102.424H434.01V96.2122L434.052 90.0002C434.328 89.6412 434.59 89.4618 434.838 89.4618C435.197 89.4618 435.473 89.6689 435.667 90.083V102.424H448.008C448.422 102.645 448.629 102.921 448.629 103.253C448.629 103.584 448.422 103.86 448.008 104.081H435.667V116.422C435.446 116.809 435.197 117.002 434.921 117.002H434.838H434.756C434.424 117.002 434.176 116.809 434.01 116.422V104.081H421.627C421.241 103.888 421.048 103.611 421.048 103.253V103.791Z" fill="white"/>
<path d="M465.41 94.4309C464.665 94.4309 464.085 94.1962 463.671 93.7269C463.257 93.2575 463.036 92.6501 463.008 91.9047C463.008 90.3862 463.671 89.0333 464.996 87.8461C466.321 86.6589 467.923 86.0653 469.8 86.0653C470.766 86.0653 471.374 86.0791 471.622 86.1067C473.665 86.4381 475.225 87.1697 476.302 88.3017C477.379 89.4337 477.931 90.6623 477.958 91.9875C477.958 93.4232 477.489 94.8174 476.55 96.1703C475.612 97.5231 474.314 98.5033 472.657 99.1107L472.533 99.1935C472.533 99.2211 472.657 99.2625 472.906 99.3177C473.154 99.373 473.555 99.4972 474.107 99.6905C474.659 99.8837 475.184 100.174 475.681 100.56C477.945 102.023 479.077 103.956 479.077 106.358C479.077 108.539 478.221 110.444 476.509 112.073C474.797 113.702 472.63 114.517 470.007 114.517C467.798 114.517 465.893 113.923 464.292 112.736C462.691 111.549 461.89 110.044 461.89 108.222C461.89 107.449 462.138 106.827 462.635 106.358C463.132 105.889 463.754 105.64 464.499 105.613C465.272 105.613 465.907 105.861 466.404 106.358C466.901 106.855 467.149 107.476 467.149 108.222C467.149 108.525 467.108 108.801 467.025 109.05C466.942 109.298 466.846 109.519 466.735 109.713C466.625 109.906 466.473 110.072 466.28 110.21C466.086 110.348 465.921 110.458 465.783 110.541C465.645 110.624 465.507 110.679 465.369 110.707C465.231 110.734 465.12 110.776 465.037 110.831L464.872 110.872C466.28 112.115 467.992 112.736 470.007 112.736C471.526 112.736 472.671 112.004 473.444 110.541C473.914 109.63 474.148 108.236 474.148 106.358V105.53C474.148 102.907 473.265 101.154 471.498 100.27C471.084 100.105 470.242 100.008 468.972 99.9804L467.232 99.9389L467.108 99.8561C467.053 99.7733 467.025 99.5524 467.025 99.1935C467.025 98.6965 467.136 98.4481 467.357 98.4481C468.13 98.4481 468.93 98.379 469.759 98.241C470.697 98.1029 471.553 97.5231 472.326 96.5016C473.099 95.4801 473.486 93.9339 473.486 91.8633V91.5319C473.486 89.9582 473.003 88.8677 472.036 88.2603C471.429 87.8737 470.78 87.6805 470.09 87.6805C469.206 87.6805 468.392 87.8323 467.646 88.136C466.901 88.4397 466.376 88.7572 466.073 89.0885C465.769 89.4198 465.617 89.5855 465.617 89.5855H465.741C465.824 89.6131 465.935 89.6407 466.073 89.6683C466.211 89.6959 466.349 89.765 466.487 89.8754C466.625 89.9858 466.791 90.0825 466.984 90.1653C467.177 90.2481 467.315 90.4 467.398 90.6208C467.481 90.8417 467.591 91.0488 467.729 91.2421C467.867 91.4353 467.909 91.7114 467.853 92.0703C467.853 92.6777 467.66 93.2161 467.274 93.6855C466.887 94.1548 466.266 94.4033 465.41 94.4309Z" fill="white"/>
<path d="M484.049 83.9401C483.522 83.9401 483.103 83.7644 482.79 83.413C482.478 83.0617 482.322 82.6322 482.322 82.1247C482.322 80.7388 482.839 79.5384 483.874 78.5233C484.908 77.5083 486.197 77.0008 487.739 77.0008C489.515 77.0008 490.998 77.5474 492.189 78.6405C493.38 79.7336 493.985 81.1487 494.004 82.886C494.004 83.7253 493.809 84.5256 493.419 85.2869C493.028 86.0482 492.56 86.7118 492.013 87.2779C491.467 87.844 490.686 88.5662 489.671 89.4446C488.968 90.0497 487.992 90.9476 486.743 92.1383L485.016 93.778L487.241 93.8073C490.305 93.8073 491.935 93.7585 492.131 93.6609C492.267 93.6218 492.501 92.7532 492.833 91.055V90.9671H494.004V91.055C493.985 91.1135 493.858 92.0017 493.624 93.7194C493.39 95.4372 493.243 96.3351 493.185 96.4131V96.501H482.322V95.9447V95.5933C482.322 95.4567 482.38 95.3103 482.498 95.1541C482.615 94.998 482.907 94.6564 483.376 94.1293C483.942 93.5047 484.43 92.9582 484.84 92.4897C485.016 92.2945 485.347 91.9334 485.835 91.4063C486.323 90.8793 486.655 90.5182 486.831 90.323C487.007 90.1278 487.29 89.8057 487.68 89.3568C488.07 88.9078 488.344 88.576 488.5 88.3613C488.656 88.1465 488.881 87.8538 489.173 87.4829C489.466 87.112 489.671 86.7997 489.788 86.5459C489.905 86.2922 490.052 86.0091 490.227 85.6968C490.403 85.3845 490.53 85.0722 490.608 84.7599C490.686 84.4476 490.754 84.1548 490.813 83.8815C490.872 83.6082 490.901 83.2861 490.901 82.9153C490.901 81.6855 490.569 80.6217 489.905 79.7238C489.242 78.8259 488.295 78.3769 487.065 78.3769C486.421 78.3769 485.855 78.5429 485.367 78.8747C484.879 79.2065 484.537 79.5286 484.342 79.8409C484.147 80.1532 484.049 80.3387 484.049 80.3972C484.049 80.4167 484.098 80.4265 484.196 80.4265C484.547 80.4265 484.908 80.5631 485.279 80.8364C485.65 81.1097 485.835 81.5586 485.835 82.1833C485.835 82.6713 485.679 83.0812 485.367 83.413C485.055 83.7449 484.615 83.9205 484.049 83.9401Z" fill="white"/>
<path d="M511.391 99.2346C511.391 98.8757 511.585 98.5996 511.971 98.4063H538.352C538.766 98.6272 538.973 98.9033 538.973 99.2346C538.973 99.5383 538.78 99.8006 538.393 100.021L525.224 100.063H512.054C511.612 99.9248 511.391 99.6488 511.391 99.2346ZM511.391 107.269C511.391 106.855 511.612 106.579 512.054 106.441H538.393C538.78 106.717 538.973 106.993 538.973 107.269C538.973 107.628 538.766 107.904 538.352 108.097H511.971C511.585 107.904 511.391 107.628 511.391 107.269Z" fill="white"/>
<path d="M557.311 95.8397C556.565 95.8397 555.972 95.5912 555.53 95.0942C555.088 94.5973 554.867 93.9899 554.867 93.272C554.867 91.3118 555.599 89.6138 557.062 88.1781C558.526 86.7425 560.348 86.0246 562.529 86.0246C565.041 86.0246 567.14 86.7977 568.824 88.3438C570.508 89.8899 571.364 91.8916 571.391 94.3488C571.391 95.536 571.115 96.668 570.563 97.7447C570.011 98.8215 569.348 99.7602 568.575 100.561C567.802 101.362 566.698 102.383 565.262 103.625C564.268 104.481 562.888 105.751 561.121 107.436L558.677 109.755L561.825 109.796C566.159 109.796 568.465 109.727 568.741 109.589C568.934 109.534 569.266 108.305 569.735 105.903V105.779H571.391V105.903C571.364 105.986 571.184 107.242 570.853 109.672C570.522 112.102 570.315 113.372 570.232 113.482V113.606H554.867V112.819V112.322C554.867 112.129 554.95 111.922 555.116 111.701C555.281 111.48 555.696 110.997 556.358 110.252C557.159 109.368 557.849 108.595 558.429 107.933C558.677 107.656 559.147 107.146 559.837 106.4C560.527 105.655 560.997 105.144 561.245 104.868C561.494 104.592 561.894 104.136 562.446 103.501C562.998 102.866 563.385 102.397 563.606 102.093C563.827 101.789 564.144 101.375 564.558 100.851C564.972 100.326 565.262 99.8844 565.428 99.5255C565.594 99.1666 565.801 98.7663 566.049 98.3245C566.298 97.8828 566.477 97.441 566.587 96.9993C566.698 96.5575 566.795 96.1434 566.877 95.7569C566.96 95.3703 567.002 94.9148 567.002 94.3902C567.002 92.6508 566.532 91.1461 565.594 89.8761C564.655 88.6061 563.316 87.9711 561.576 87.9711C560.665 87.9711 559.865 88.2057 559.174 88.6751C558.484 89.1445 558.001 89.6 557.725 90.0418C557.449 90.4835 557.311 90.7458 557.311 90.8286C557.311 90.8562 557.38 90.87 557.518 90.87C558.015 90.87 558.526 91.0633 559.05 91.4498C559.575 91.8364 559.837 92.4714 559.837 93.3549C559.837 94.0451 559.616 94.6249 559.174 95.0942C558.733 95.5636 558.111 95.8121 557.311 95.8397Z" fill="white"/>
<path d="M575.781 94.638C575.809 94.5828 576.043 93.0781 576.485 90.1239L577.148 85.6926C577.148 85.6374 577.424 85.6098 577.976 85.6098H578.804V85.7754C578.804 86.0515 579.011 86.2862 579.425 86.4795C579.839 86.6727 580.557 86.797 581.579 86.8522C582.6 86.9074 584.933 86.935 588.578 86.935H593.589V88.5502L590.773 92.4016C590.524 92.733 590.11 93.2851 589.53 94.0582C588.95 94.8313 588.578 95.342 588.412 95.5905C588.246 95.839 587.957 96.2807 587.542 96.9157C587.128 97.5508 586.852 98.0477 586.714 98.4066C586.576 98.7656 586.383 99.2763 586.134 99.9389C585.886 100.602 585.706 101.237 585.596 101.844C585.486 102.451 585.375 103.197 585.265 104.08C585.154 104.964 585.071 105.903 585.016 106.896C584.961 107.89 584.92 109.022 584.892 110.292C584.892 110.679 584.892 111.065 584.892 111.452C584.892 111.839 584.878 112.17 584.851 112.446V112.819C584.74 113.288 584.478 113.688 584.064 114.02C583.65 114.351 583.18 114.517 582.656 114.517C582.352 114.517 582.062 114.475 581.786 114.392C581.51 114.31 581.22 114.047 580.916 113.605C580.613 113.164 580.461 112.612 580.461 111.949C580.461 107.587 581.8 103.059 584.478 98.3652C585.03 97.4817 586.19 95.8114 587.957 93.3542L589.862 90.7451H586.01C581.206 90.7451 578.68 90.8279 578.431 90.9936C578.266 91.0764 578.114 91.4077 577.976 91.9875C577.838 92.5673 577.7 93.1609 577.562 93.7683L577.437 94.638V94.7622H575.781V94.638Z" fill="white"/>
<path d="M605.732 103.791C605.732 103.791 605.732 103.611 605.732 103.253C605.732 102.894 605.926 102.618 606.312 102.424H618.695V96.2122L618.736 90.0002C619.012 89.6412 619.275 89.4618 619.523 89.4618C619.882 89.4618 620.158 89.6689 620.351 90.083V102.424H632.693C633.107 102.645 633.314 102.921 633.314 103.253C633.314 103.584 633.107 103.86 632.693 104.081H620.351V116.422C620.131 116.809 619.882 117.002 619.606 117.002H619.523H619.44C619.109 117.002 618.861 116.809 618.695 116.422V104.081H606.312C605.926 103.888 605.732 103.611 605.732 103.253V103.791Z" fill="white"/>
<path d="M659.413 101.72C658.088 103.818 656.431 104.867 654.443 104.867C652.29 104.867 650.523 104.053 649.142 102.424C647.762 100.795 646.934 99.0555 646.658 97.2056C646.602 96.7639 646.575 96.2117 646.575 95.5491V95.2178C646.575 92.6501 647.527 90.4138 649.432 88.5087C651.089 86.8522 652.911 86.0239 654.899 86.0239C654.954 86.0239 655.037 86.0239 655.147 86.0239C655.258 86.0239 655.368 86.0377 655.479 86.0653H655.644C655.976 86.0653 656.321 86.0929 656.68 86.1482C657.039 86.2034 657.549 86.369 658.212 86.6451C658.875 86.9212 659.523 87.363 660.158 87.9704C660.793 88.5778 661.387 89.3922 661.939 90.4138C663.126 92.8434 663.72 95.9632 663.72 99.7733C663.72 103.639 662.892 106.91 661.235 109.588C660.269 111.134 659.109 112.335 657.756 113.191C656.404 114.047 654.968 114.489 653.449 114.517C651.765 114.517 650.385 114.116 649.308 113.316C648.231 112.515 647.679 111.328 647.651 109.754C647.624 108.18 648.355 107.407 649.846 107.435C650.454 107.435 650.965 107.628 651.379 108.015C651.793 108.401 652 108.94 652 109.63C652 110.127 651.876 110.555 651.627 110.914C651.379 111.273 651.158 111.493 650.965 111.576C650.771 111.659 650.592 111.728 650.426 111.783L650.261 111.825C650.261 111.88 650.357 111.963 650.55 112.073C650.744 112.184 651.103 112.322 651.627 112.487C652.152 112.653 652.732 112.722 653.367 112.694H653.615C655.272 112.694 656.666 111.811 657.798 110.044C658.875 108.498 659.413 105.82 659.413 102.01V101.72ZM654.94 103.335C656.266 103.335 657.328 102.658 658.129 101.306C658.93 99.9528 659.344 98.1167 659.372 95.7976C659.372 93.6441 659.261 92.0979 659.04 91.1592C658.985 90.8831 658.902 90.607 658.792 90.331C658.681 90.0549 658.488 89.6959 658.212 89.2542C657.936 88.8124 657.522 88.4397 656.97 88.136C656.417 87.8323 655.769 87.6943 655.023 87.7219C653.974 87.7219 653.077 88.0946 652.331 88.8401C651.751 89.4475 651.379 90.1653 651.213 90.9936C651.047 91.8218 650.951 93.2713 650.923 95.342C650.923 97.6336 650.992 99.1797 651.13 99.9804C651.268 100.781 651.544 101.43 651.958 101.927C652.649 102.866 653.643 103.335 654.94 103.335Z" fill="white"/>
<path d="M679.366 99.2346C679.366 98.8757 679.559 98.5996 679.946 98.4063H706.326C706.74 98.6272 706.947 98.9033 706.947 99.2346C706.947 99.5383 706.754 99.8006 706.368 100.021L693.198 100.063H680.028C679.587 99.9248 679.366 99.6488 679.366 99.2346ZM679.366 107.269C679.366 106.855 679.587 106.579 680.028 106.441H706.368C706.754 106.717 706.947 106.993 706.947 107.269C706.947 107.628 706.74 107.904 706.326 108.097H679.946C679.559 107.904 679.366 107.628 679.366 107.269Z" fill="white"/>
<path d="M726.03 94.4309C725.285 94.4309 724.705 94.1962 724.291 93.7269C723.877 93.2575 723.656 92.6501 723.628 91.9047C723.628 90.3862 724.291 89.0333 725.616 87.8461C726.941 86.6589 728.543 86.0653 730.42 86.0653C731.386 86.0653 731.994 86.0791 732.242 86.1067C734.285 86.4381 735.845 87.1697 736.922 88.3017C737.999 89.4337 738.551 90.6623 738.579 91.9875C738.579 93.4232 738.109 94.8174 737.171 96.1703C736.232 97.5231 734.934 98.5033 733.278 99.1107L733.153 99.1935C733.153 99.2211 733.278 99.2625 733.526 99.3177C733.775 99.373 734.175 99.4972 734.727 99.6905C735.279 99.8837 735.804 100.174 736.301 100.56C738.565 102.023 739.697 103.956 739.697 106.358C739.697 108.539 738.841 110.444 737.129 112.073C735.417 113.702 733.25 114.517 730.627 114.517C728.418 114.517 726.513 113.923 724.912 112.736C723.311 111.549 722.51 110.044 722.51 108.222C722.51 107.449 722.759 106.827 723.256 106.358C723.753 105.889 724.374 105.64 725.119 105.613C725.892 105.613 726.527 105.861 727.024 106.358C727.521 106.855 727.77 107.476 727.77 108.222C727.77 108.525 727.728 108.801 727.645 109.05C727.563 109.298 727.466 109.519 727.356 109.713C727.245 109.906 727.093 110.072 726.9 110.21C726.707 110.348 726.541 110.458 726.403 110.541C726.265 110.624 726.127 110.679 725.989 110.707C725.851 110.734 725.74 110.776 725.658 110.831L725.492 110.872C726.9 112.115 728.612 112.736 730.627 112.736C732.146 112.736 733.292 112.004 734.065 110.541C734.534 109.63 734.769 108.236 734.769 106.358V105.53C734.769 102.907 733.885 101.154 732.118 100.27C731.704 100.105 730.862 100.008 729.592 99.9804L727.853 99.9389L727.728 99.8561C727.673 99.7733 727.645 99.5524 727.645 99.1935C727.645 98.6965 727.756 98.4481 727.977 98.4481C728.75 98.4481 729.55 98.379 730.379 98.241C731.317 98.1029 732.173 97.5231 732.946 96.5016C733.719 95.4801 734.106 93.9339 734.106 91.8633V91.5319C734.106 89.9582 733.623 88.8677 732.657 88.2603C732.049 87.8737 731.4 87.6805 730.71 87.6805C729.827 87.6805 729.012 87.8323 728.267 88.136C727.521 88.4397 726.997 88.7572 726.693 89.0885C726.389 89.4198 726.237 89.5855 726.237 89.5855H726.362C726.444 89.6131 726.555 89.6407 726.693 89.6683C726.831 89.6959 726.969 89.765 727.107 89.8754C727.245 89.9858 727.411 90.0825 727.604 90.1653C727.797 90.2481 727.935 90.4 728.018 90.6208C728.101 90.8417 728.211 91.0488 728.349 91.2421C728.488 91.4353 728.529 91.7114 728.474 92.0703C728.474 92.6777 728.28 93.2161 727.894 93.6855C727.507 94.1548 726.886 94.4033 726.03 94.4309Z" fill="white"/>
<path d="M743.217 100.643C743.217 96.1427 744.335 92.5811 746.571 89.9582C748.808 87.3354 751.292 86.0239 754.026 86.0239C755.931 86.0239 757.297 86.5209 758.126 87.5148C758.954 88.5087 759.368 89.6131 759.368 90.8279C759.368 91.5181 759.175 92.0703 758.788 92.4845C758.402 92.8986 757.863 93.1057 757.173 93.1057C756.538 93.1057 756.014 92.9124 755.599 92.5259C755.185 92.1394 754.978 91.601 754.978 90.9107C754.978 89.6959 755.627 88.9643 756.925 88.7158C756.317 88.1084 755.461 87.7633 754.357 87.6805C752.397 87.6805 750.782 88.5087 749.512 90.1653C748.214 91.9875 747.565 94.776 747.565 98.5309L747.607 98.6965C747.745 98.5309 747.855 98.3514 747.938 98.1582C749.07 96.5016 750.547 95.6733 752.369 95.6733H752.535C753.805 95.6733 754.923 95.9356 755.889 96.4602C756.552 96.8467 757.215 97.3989 757.877 98.1167C758.54 98.8346 759.078 99.6214 759.492 100.477C760.072 101.83 760.362 103.307 760.362 104.909V105.654C760.362 106.289 760.293 106.883 760.155 107.435C759.851 109.064 758.968 110.651 757.504 112.197C756.041 113.744 754.191 114.517 751.955 114.517C751.182 114.517 750.436 114.406 749.719 114.185C749.001 113.964 748.228 113.55 747.399 112.943C746.571 112.335 745.867 111.521 745.287 110.499C744.708 109.478 744.211 108.139 743.796 106.482C743.382 104.826 743.189 102.879 743.217 100.643ZM752.121 97.1642C751.292 97.1642 750.575 97.3989 749.967 97.8683C749.36 98.3376 748.89 98.9588 748.559 99.7319C748.228 100.505 747.993 101.292 747.855 102.092C747.717 102.893 747.634 103.749 747.607 104.66C747.607 106.952 747.772 108.594 748.103 109.588C748.435 110.582 748.959 111.383 749.677 111.99C750.34 112.487 751.071 112.736 751.872 112.736C753.28 112.736 754.357 112.211 755.102 111.162C755.461 110.665 755.71 110.044 755.848 109.298C755.986 108.553 756.055 107.104 756.055 104.95C756.055 102.741 755.986 101.264 755.848 100.519C755.71 99.7733 755.461 99.1521 755.102 98.6551C754.357 97.6612 753.363 97.1642 752.121 97.1642Z" fill="white"/>
<path d="M337.701 157.318C337.701 157.014 337.922 156.862 338.363 156.862C338.501 156.862 338.612 156.862 338.695 156.862C338.778 156.862 338.847 156.862 338.902 156.862C338.957 156.862 339.012 156.876 339.067 156.904C339.123 156.931 339.15 156.945 339.15 156.945C339.15 156.945 339.178 156.987 339.233 157.07C339.288 157.152 339.316 157.194 339.316 157.194C339.316 157.194 339.357 157.263 339.44 157.401C340.462 159.444 341.815 161.252 343.499 162.826C345.183 164.4 346.715 165.518 348.096 166.181C349.476 166.843 350.801 167.354 352.071 167.713C352.541 167.851 352.775 168.03 352.775 168.251C352.775 168.472 352.651 168.624 352.403 168.707C352.154 168.79 351.643 168.941 350.87 169.162C350.097 169.383 349.297 169.715 348.468 170.156C344.493 172.089 341.483 175.071 339.44 179.102C339.33 179.35 339.233 179.488 339.15 179.516C339.067 179.543 338.86 179.571 338.529 179.599C337.977 179.599 337.701 179.502 337.701 179.309C337.701 179.198 337.77 178.964 337.908 178.605C338.874 176.7 340.061 175.002 341.469 173.511L341.884 173.097H316.58C316.193 172.903 316 172.627 316 172.268C316 171.854 316.221 171.578 316.663 171.44H343.706L344.12 171.109C345.197 170.281 346.812 169.328 348.965 168.251C348.938 168.224 348.689 168.099 348.22 167.879C347.751 167.658 347.129 167.326 346.356 166.885C345.583 166.443 344.838 165.946 344.12 165.394L343.706 165.062H316.663C316.221 164.924 316 164.648 316 164.234C316 163.875 316.193 163.599 316.58 163.406H341.884L341.469 162.992C340.558 162.025 339.702 160.907 338.902 159.637C338.101 158.367 337.701 157.594 337.701 157.318Z" fill="white"/>
<path d="M380.254 166.636C380.447 165.477 381.193 164.138 382.49 162.619C383.788 161.101 385.389 160.327 387.294 160.3C388.261 160.3 389.144 160.548 389.945 161.045C390.745 161.542 391.339 162.163 391.726 162.909C392.885 161.17 394.279 160.3 395.908 160.3C396.93 160.3 397.813 160.604 398.559 161.211C399.304 161.818 399.691 162.633 399.718 163.654C399.718 164.455 399.525 165.104 399.139 165.601C398.752 166.098 398.379 166.401 398.02 166.512C397.662 166.622 397.344 166.678 397.068 166.678C396.543 166.678 396.115 166.526 395.784 166.222C395.453 165.918 395.287 165.518 395.287 165.021C395.287 163.751 395.977 162.881 397.358 162.412C397.054 162.053 396.502 161.874 395.701 161.874C395.342 161.874 395.08 161.901 394.914 161.956C393.865 162.398 393.092 163.309 392.595 164.69C390.939 170.791 390.11 174.353 390.11 175.374C390.11 176.148 390.331 176.7 390.773 177.031C391.215 177.362 391.698 177.528 392.223 177.528C393.244 177.528 394.252 177.072 395.246 176.161C396.24 175.25 396.916 174.132 397.275 172.807C397.358 172.531 397.441 172.379 397.524 172.351C397.606 172.324 397.827 172.296 398.186 172.268H398.352C398.766 172.268 398.973 172.379 398.973 172.6C398.973 172.627 398.945 172.779 398.89 173.055C398.448 174.629 397.593 176.023 396.323 177.238C395.052 178.453 393.575 179.06 391.891 179.06C389.959 179.06 388.495 178.191 387.501 176.451C386.369 178.163 385.072 179.019 383.608 179.019H383.36C382.007 179.019 381.041 178.66 380.461 177.942C379.881 177.224 379.578 176.465 379.55 175.664C379.55 174.781 379.812 174.063 380.337 173.511C380.861 172.959 381.483 172.683 382.2 172.683C383.388 172.683 383.981 173.262 383.981 174.422C383.981 174.974 383.816 175.457 383.484 175.871C383.153 176.286 382.835 176.562 382.532 176.7C382.228 176.838 382.049 176.907 381.993 176.907L381.869 176.948C381.869 176.976 381.952 177.031 382.118 177.114C382.283 177.197 382.504 177.293 382.78 177.404C383.056 177.514 383.319 177.556 383.567 177.528C384.561 177.528 385.417 176.907 386.135 175.664C386.383 175.223 386.701 174.284 387.087 172.848C387.474 171.413 387.86 169.922 388.247 168.376C388.633 166.829 388.854 165.918 388.909 165.642C389.047 164.897 389.117 164.358 389.117 164.027C389.117 163.254 388.909 162.702 388.495 162.371C388.081 162.039 387.612 161.874 387.087 161.874C385.983 161.874 384.948 162.315 383.981 163.199C383.015 164.082 382.338 165.214 381.952 166.595C381.897 166.843 381.828 166.981 381.745 167.009C381.662 167.037 381.441 167.064 381.082 167.092H380.502C380.337 166.926 380.254 166.774 380.254 166.636Z" fill="white"/>
<path d="M415.612 164.234C415.612 163.875 415.805 163.599 416.192 163.405H442.573C442.987 163.626 443.194 163.902 443.194 164.234C443.194 164.537 443 164.8 442.614 165.021L429.444 165.062H416.275C415.833 164.924 415.612 164.648 415.612 164.234ZM415.612 172.268C415.612 171.854 415.833 171.578 416.275 171.44H442.614C443 171.716 443.194 171.992 443.194 172.268C443.194 172.627 442.987 172.903 442.573 173.096H416.192C415.805 172.903 415.612 172.627 415.612 172.268Z" fill="white"/>
<path d="M461.532 160.839C460.787 160.839 460.193 160.59 459.752 160.093C459.31 159.596 459.089 158.989 459.089 158.271C459.089 156.311 459.821 154.613 461.284 153.177C462.747 151.741 464.569 151.024 466.751 151.024C469.263 151.024 471.361 151.797 473.045 153.343C474.73 154.889 475.585 156.891 475.613 159.348C475.613 160.535 475.337 161.667 474.785 162.744C474.233 163.821 473.57 164.759 472.797 165.56C472.024 166.361 470.92 167.382 469.484 168.625C468.49 169.48 467.109 170.75 465.342 172.435L462.899 174.754L466.047 174.795C470.381 174.795 472.687 174.726 472.963 174.588C473.156 174.533 473.487 173.304 473.957 170.902V170.778H475.613V170.902C475.585 170.985 475.406 172.241 475.075 174.671C474.743 177.101 474.536 178.371 474.454 178.481V178.605H459.089V177.818V177.321C459.089 177.128 459.172 176.921 459.337 176.7C459.503 176.479 459.917 175.996 460.58 175.251C461.381 174.367 462.071 173.594 462.651 172.932C462.899 172.655 463.368 172.145 464.059 171.399C464.749 170.654 465.218 170.143 465.467 169.867C465.715 169.591 466.116 169.135 466.668 168.5C467.22 167.865 467.606 167.396 467.827 167.092C468.048 166.788 468.366 166.374 468.78 165.85C469.194 165.325 469.484 164.883 469.65 164.525C469.815 164.166 470.022 163.765 470.271 163.324C470.519 162.882 470.699 162.44 470.809 161.998C470.92 161.557 471.016 161.142 471.099 160.756C471.182 160.369 471.223 159.914 471.223 159.389C471.223 157.65 470.754 156.145 469.815 154.875C468.876 153.605 467.537 152.97 465.798 152.97C464.887 152.97 464.086 153.205 463.396 153.674C462.706 154.143 462.223 154.599 461.947 155.041C461.67 155.483 461.532 155.745 461.532 155.828C461.532 155.855 461.601 155.869 461.739 155.869C462.236 155.869 462.747 156.062 463.272 156.449C463.796 156.835 464.059 157.47 464.059 158.354C464.059 159.044 463.838 159.624 463.396 160.093C462.954 160.563 462.333 160.811 461.532 160.839Z" fill="white"/>
<path d="M481.444 147.945C480.917 147.945 480.507 147.779 480.214 147.448C479.921 147.116 479.765 146.686 479.746 146.159C479.746 145.086 480.214 144.129 481.151 143.29C482.088 142.451 483.22 142.031 484.548 142.031C485.231 142.031 485.66 142.041 485.836 142.06C487.28 142.294 488.383 142.812 489.144 143.612C489.906 144.412 490.296 145.281 490.316 146.218C490.316 147.233 489.984 148.219 489.32 149.175C488.656 150.132 487.739 150.825 486.568 151.254L486.48 151.313C486.48 151.332 486.568 151.361 486.744 151.4C486.919 151.439 487.202 151.527 487.593 151.664C487.983 151.801 488.354 152.006 488.705 152.279C490.306 153.313 491.106 154.68 491.106 156.378C491.106 157.92 490.501 159.267 489.291 160.419C488.081 161.57 486.548 162.146 484.694 162.146C483.132 162.146 481.786 161.726 480.653 160.887C479.521 160.048 478.955 158.984 478.955 157.696C478.955 157.149 479.131 156.71 479.482 156.378C479.834 156.046 480.273 155.87 480.8 155.851C481.346 155.851 481.795 156.027 482.147 156.378C482.498 156.729 482.674 157.168 482.674 157.696C482.674 157.91 482.644 158.105 482.586 158.281C482.527 158.457 482.459 158.613 482.381 158.75C482.303 158.886 482.195 159.003 482.059 159.101C481.922 159.199 481.805 159.277 481.707 159.335C481.61 159.394 481.512 159.433 481.415 159.452C481.317 159.472 481.239 159.501 481.18 159.54L481.063 159.569C482.059 160.448 483.269 160.887 484.694 160.887C485.768 160.887 486.578 160.37 487.124 159.335C487.456 158.691 487.622 157.705 487.622 156.378V155.792C487.622 153.938 486.997 152.698 485.748 152.074C485.455 151.957 484.86 151.888 483.962 151.869L482.732 151.84L482.644 151.781C482.605 151.722 482.586 151.566 482.586 151.313C482.586 150.961 482.664 150.786 482.82 150.786C483.367 150.786 483.933 150.737 484.518 150.639C485.182 150.542 485.787 150.132 486.334 149.409C486.88 148.687 487.153 147.594 487.153 146.13V145.896C487.153 144.783 486.812 144.012 486.129 143.583C485.699 143.309 485.241 143.173 484.753 143.173C484.128 143.173 483.552 143.28 483.025 143.495C482.498 143.71 482.127 143.934 481.912 144.168C481.698 144.403 481.59 144.52 481.59 144.52H481.678C481.737 144.539 481.815 144.559 481.912 144.578C482.01 144.598 482.108 144.647 482.205 144.725C482.303 144.803 482.42 144.871 482.557 144.93C482.693 144.988 482.791 145.096 482.849 145.252C482.908 145.408 482.986 145.554 483.084 145.691C483.181 145.828 483.21 146.023 483.171 146.276C483.171 146.706 483.035 147.087 482.762 147.418C482.488 147.75 482.049 147.926 481.444 147.945Z" fill="white"/>
<path d="M505.961 168.79C505.961 168.79 505.961 168.611 505.961 168.252C505.961 167.893 506.154 167.617 506.54 167.423H518.923V161.211L518.964 154.999C519.241 154.64 519.503 154.461 519.751 154.461C520.11 154.461 520.386 154.668 520.58 155.082V167.423H532.921C533.335 167.644 533.542 167.92 533.542 168.252C533.542 168.583 533.335 168.859 532.921 169.08H520.58V181.421C520.359 181.808 520.11 182.001 519.834 182.001H519.751H519.669C519.337 182.001 519.089 181.808 518.923 181.421V169.08H506.54C506.154 168.887 505.961 168.611 505.961 168.252V168.79Z" fill="white"/>
<path d="M551.855 172.103C551.855 172.765 551.635 173.317 551.193 173.759C550.751 174.201 550.213 174.422 549.578 174.422H549.288C550.558 176.603 552.242 177.693 554.34 177.693C556.273 177.693 557.681 176.865 558.564 175.209C559.089 174.297 559.351 172.53 559.351 169.908C559.351 167.064 558.979 165.145 558.233 164.151C557.515 163.24 556.715 162.784 555.831 162.784H555.583C553.429 162.784 551.8 163.723 550.696 165.601C550.585 165.794 550.489 165.904 550.406 165.932C550.323 165.96 550.116 165.987 549.785 166.015C549.315 166.015 549.053 165.932 548.998 165.766C548.943 165.656 548.915 163.24 548.915 158.519V153.176C548.915 151.796 548.984 151.106 549.122 151.106C549.177 151.051 549.233 151.023 549.288 151.023C549.315 151.023 549.605 151.133 550.157 151.354C550.71 151.575 551.469 151.796 552.435 152.017C553.402 152.238 554.437 152.348 555.541 152.348C557.502 152.348 559.379 151.962 561.174 151.189C561.394 151.078 561.574 151.023 561.712 151.023C561.933 151.023 562.043 151.271 562.043 151.768V152.307C559.779 154.985 556.949 156.324 553.553 156.324C552.698 156.324 551.924 156.241 551.234 156.075L550.82 155.993V163.116C551.345 162.729 551.759 162.426 552.063 162.205C552.366 161.984 552.863 161.763 553.553 161.542C554.244 161.321 554.948 161.211 555.666 161.211C557.902 161.211 559.793 162.108 561.339 163.903C562.885 165.697 563.658 167.823 563.658 170.28C563.658 172.82 562.775 174.988 561.008 176.782C559.241 178.577 557.087 179.488 554.547 179.516C552.311 179.516 550.516 178.77 549.164 177.279C547.811 175.788 547.134 174.104 547.134 172.227C547.134 171.564 547.286 171.04 547.59 170.653C547.894 170.267 548.211 170.018 548.542 169.908C548.874 169.797 549.191 169.742 549.495 169.742C550.185 169.742 550.751 169.977 551.193 170.446C551.635 170.915 551.855 171.468 551.855 172.103Z" fill="white"/>
<path d="M568.962 148.939C568.435 148.939 568.016 148.763 567.703 148.412C567.391 148.061 567.235 147.631 567.235 147.124C567.235 145.738 567.752 144.537 568.787 143.522C569.821 142.507 571.109 142 572.651 142C574.428 142 575.911 142.546 577.102 143.639C578.293 144.733 578.898 146.148 578.917 147.885C578.917 148.724 578.722 149.525 578.332 150.286C577.941 151.047 577.473 151.711 576.926 152.277C576.38 152.843 575.599 153.565 574.584 154.444C573.881 155.049 572.905 155.947 571.656 157.137L569.928 158.777L572.154 158.806C575.218 158.806 576.848 158.757 577.043 158.66C577.18 158.621 577.414 157.752 577.746 156.054V155.966H578.917V156.054C578.898 156.113 578.771 157.001 578.537 158.718C578.302 160.436 578.156 161.334 578.097 161.412V161.5H567.235V160.944V160.592C567.235 160.456 567.293 160.309 567.41 160.153C567.528 159.997 567.82 159.655 568.289 159.128C568.855 158.504 569.343 157.957 569.753 157.489C569.928 157.294 570.26 156.932 570.748 156.405C571.236 155.878 571.568 155.517 571.744 155.322C571.92 155.127 572.203 154.805 572.593 154.356C572.983 153.907 573.257 153.575 573.413 153.36C573.569 153.146 573.793 152.853 574.086 152.482C574.379 152.111 574.584 151.799 574.701 151.545C574.818 151.291 574.965 151.008 575.14 150.696C575.316 150.384 575.443 150.071 575.521 149.759C575.599 149.447 575.667 149.154 575.726 148.881C575.784 148.607 575.814 148.285 575.814 147.914C575.814 146.685 575.482 145.621 574.818 144.723C574.155 143.825 573.208 143.376 571.978 143.376C571.334 143.376 570.768 143.542 570.28 143.874C569.792 144.206 569.45 144.528 569.255 144.84C569.06 145.152 568.962 145.338 568.962 145.396C568.962 145.416 569.011 145.426 569.109 145.426C569.46 145.426 569.821 145.562 570.192 145.835C570.563 146.109 570.748 146.558 570.748 147.182C570.748 147.67 570.592 148.08 570.28 148.412C569.968 148.744 569.528 148.92 568.962 148.939Z" fill="white"/>
<path d="M325.312 239.561C325.312 238.843 325.561 238.25 326.057 237.78C326.554 237.311 327.148 237.076 327.838 237.076C328.501 237.076 329.067 237.311 329.536 237.78C330.006 238.25 330.254 238.843 330.282 239.561C330.309 240.279 330.075 240.872 329.578 241.342C329.081 241.811 328.487 242.046 327.797 242.046C327.079 242.046 326.485 241.811 326.016 241.342C325.547 240.872 325.312 240.279 325.312 239.561ZM317.485 255.008C318.203 255.008 318.782 255.243 319.224 255.712C319.666 256.182 319.901 256.775 319.928 257.493C319.928 258.156 319.707 258.736 319.266 259.233C318.824 259.73 318.216 259.978 317.443 259.978C316.726 259.978 316.146 259.743 315.704 259.274C315.262 258.805 315.028 258.211 315 257.493C315 256.775 315.235 256.182 315.704 255.712C316.173 255.243 316.767 255.008 317.485 255.008ZM335.707 257.493C335.707 256.775 335.942 256.182 336.411 255.712C336.88 255.243 337.474 255.008 338.192 255.008C338.854 255.008 339.42 255.243 339.89 255.712C340.359 256.182 340.608 256.775 340.635 257.493C340.635 258.128 340.414 258.694 339.973 259.191C339.531 259.688 338.923 259.95 338.15 259.978C337.432 259.978 336.853 259.743 336.411 259.274C335.969 258.805 335.735 258.211 335.707 257.493Z" fill="white"/>
<path d="M366.792 244.613C366.985 243.454 367.731 242.115 369.028 240.596C370.326 239.078 371.927 238.305 373.832 238.277C374.799 238.277 375.682 238.525 376.483 239.022C377.283 239.519 377.877 240.141 378.264 240.886C379.423 239.147 380.817 238.277 382.446 238.277C383.468 238.277 384.351 238.581 385.097 239.188C385.842 239.795 386.229 240.61 386.256 241.631C386.256 242.432 386.063 243.081 385.677 243.578C385.29 244.075 384.917 244.379 384.558 244.489C384.2 244.599 383.882 244.655 383.606 244.655C383.081 244.655 382.653 244.503 382.322 244.199C381.991 243.895 381.825 243.495 381.825 242.998C381.825 241.728 382.515 240.858 383.896 240.389C383.592 240.03 383.04 239.851 382.239 239.851C381.88 239.851 381.618 239.878 381.452 239.933C380.403 240.375 379.63 241.286 379.133 242.667C377.477 248.768 376.648 252.33 376.648 253.352C376.648 254.125 376.869 254.677 377.311 255.008C377.753 255.339 378.236 255.505 378.761 255.505C379.782 255.505 380.79 255.049 381.784 254.138C382.778 253.227 383.454 252.109 383.813 250.784C383.896 250.508 383.979 250.356 384.061 250.328C384.144 250.301 384.365 250.273 384.724 250.245H384.89C385.304 250.245 385.511 250.356 385.511 250.577C385.511 250.604 385.483 250.756 385.428 251.032C384.986 252.606 384.13 254 382.86 255.215C381.59 256.43 380.113 257.037 378.429 257.037C376.497 257.037 375.033 256.168 374.039 254.428C372.907 256.14 371.61 256.996 370.146 256.996H369.898C368.545 256.996 367.579 256.637 366.999 255.919C366.419 255.201 366.115 254.442 366.088 253.641C366.088 252.758 366.35 252.04 366.875 251.488C367.399 250.936 368.021 250.66 368.738 250.66C369.926 250.66 370.519 251.239 370.519 252.399C370.519 252.951 370.354 253.434 370.022 253.848C369.691 254.263 369.373 254.539 369.07 254.677C368.766 254.815 368.587 254.884 368.531 254.884L368.407 254.925C368.407 254.953 368.49 255.008 368.656 255.091C368.821 255.174 369.042 255.27 369.318 255.381C369.594 255.491 369.857 255.533 370.105 255.505C371.099 255.505 371.955 254.884 372.673 253.641C372.921 253.2 373.239 252.261 373.625 250.825C374.012 249.39 374.398 247.899 374.785 246.353C375.171 244.806 375.392 243.895 375.447 243.619C375.585 242.874 375.654 242.335 375.654 242.004C375.654 241.231 375.447 240.679 375.033 240.348C374.619 240.016 374.15 239.851 373.625 239.851C372.521 239.851 371.485 240.292 370.519 241.176C369.553 242.059 368.876 243.191 368.49 244.572C368.435 244.82 368.366 244.958 368.283 244.986C368.2 245.014 367.979 245.041 367.62 245.069H367.04C366.875 244.903 366.792 244.751 366.792 244.613Z" fill="white"/>
<path d="M402.151 242.211C402.151 241.852 402.344 241.576 402.731 241.382H429.111C429.526 241.603 429.733 241.879 429.733 242.211C429.733 242.514 429.539 242.777 429.153 242.998L415.983 243.039H402.814C402.372 242.901 402.151 242.625 402.151 242.211ZM402.151 250.245C402.151 249.831 402.372 249.555 402.814 249.417H429.153C429.539 249.693 429.733 249.969 429.733 250.245C429.733 250.604 429.526 250.88 429.111 251.073H402.731C402.344 250.88 402.151 250.604 402.151 250.245Z" fill="white"/>
<path d="M446.452 239.312C446.452 239.312 446.452 238.249 446.452 236.123C446.452 233.997 447.198 232.285 448.689 230.988C450.18 229.69 451.891 229.028 453.824 229C455.784 229 457.524 229.58 459.042 230.739C460.561 231.899 461.32 233.404 461.32 235.253C461.32 236.082 461.168 236.855 460.864 237.573C460.561 238.29 460.202 238.87 459.788 239.312C459.373 239.754 458.945 240.14 458.504 240.472C458.062 240.803 457.703 241.051 457.427 241.217C457.151 241.383 456.999 241.493 456.971 241.548L457.551 241.921C457.938 242.197 458.324 242.473 458.711 242.749C459.097 243.025 459.318 243.177 459.373 243.205C461.444 244.834 462.479 246.891 462.479 249.376C462.479 251.557 461.679 253.448 460.077 255.049C458.476 256.651 456.405 257.465 453.865 257.493C451.381 257.493 449.337 256.789 447.736 255.381C446.135 253.973 445.334 252.233 445.334 250.162C445.334 247.181 447.115 244.696 450.676 242.708L449.931 242.17C449.351 241.811 448.979 241.535 448.813 241.341C447.239 239.988 446.452 238.249 446.452 236.123V239.312ZM455.398 240.596L455.646 240.43C455.812 240.32 455.936 240.237 456.019 240.182C456.102 240.126 456.24 240.03 456.433 239.892C456.626 239.754 456.792 239.616 456.93 239.478C457.068 239.34 457.22 239.174 457.386 238.981C457.551 238.787 457.703 238.608 457.841 238.442C457.979 238.277 458.117 238.056 458.255 237.78C458.393 237.504 458.517 237.269 458.628 237.076C458.738 236.882 458.807 236.606 458.835 236.247C458.863 235.888 458.89 235.585 458.918 235.336C458.918 234.149 458.517 233.141 457.717 232.313C456.916 231.485 455.991 230.96 454.942 230.739C454.749 230.712 454.293 230.698 453.575 230.698C452.443 230.698 451.381 231.057 450.387 231.775C449.393 232.493 448.882 233.39 448.854 234.467C448.854 235.102 449.034 235.681 449.393 236.206C449.752 236.731 450.11 237.131 450.469 237.407C450.828 237.683 451.519 238.125 452.54 238.732C452.733 238.87 452.885 238.967 452.996 239.022L455.398 240.596ZM453.907 255.712C455.508 255.712 456.889 255.243 458.048 254.304C459.208 253.365 459.788 252.233 459.788 250.908C459.788 250.439 459.718 249.997 459.58 249.583C459.442 249.169 459.277 248.823 459.083 248.547C458.89 248.271 458.587 247.968 458.172 247.636C457.758 247.305 457.441 247.056 457.22 246.891C456.999 246.725 456.599 246.463 456.019 246.104C455.439 245.745 455.066 245.51 454.901 245.4C454.514 245.151 454.1 244.889 453.658 244.613C453.217 244.337 452.858 244.102 452.582 243.909L452.25 243.702C452.085 243.702 451.684 243.937 451.049 244.406C450.414 244.875 449.752 245.635 449.061 246.684C448.371 247.733 448.012 248.865 447.985 250.08C447.985 251.709 448.578 253.048 449.765 254.097C450.953 255.146 452.333 255.684 453.907 255.712Z" fill="white"/>
<path d="M475.785 246.767C475.785 246.767 475.785 246.588 475.785 246.229C475.785 245.87 475.979 245.594 476.365 245.4H488.748V239.188L488.789 232.976C489.065 232.617 489.328 232.438 489.576 232.438C489.935 232.438 490.211 232.645 490.404 233.059V245.4H502.746C503.16 245.621 503.367 245.897 503.367 246.229C503.367 246.56 503.16 246.836 502.746 247.057H490.404V259.398C490.183 259.785 489.935 259.978 489.659 259.978H489.576H489.493C489.162 259.978 488.913 259.785 488.748 259.398V247.057H476.365C475.979 246.864 475.785 246.588 475.785 246.229V246.767Z" fill="white"/>
<path d="M519.402 238.816C518.657 238.816 518.063 238.567 517.621 238.07C517.18 237.573 516.959 236.966 516.959 236.248C516.959 234.288 517.691 232.59 519.154 231.154C520.617 229.719 522.439 229.001 524.62 229.001C527.133 229.001 529.231 229.774 530.915 231.32C532.599 232.866 533.455 234.868 533.483 237.325C533.483 238.512 533.207 239.644 532.655 240.721C532.103 241.798 531.44 242.736 530.667 243.537C529.894 244.338 528.789 245.359 527.354 246.602C526.36 247.457 524.979 248.727 523.212 250.412L520.769 252.731L523.916 252.772C528.251 252.772 530.556 252.703 530.832 252.565C531.026 252.51 531.357 251.281 531.826 248.879V248.755H533.483V248.879C533.455 248.962 533.276 250.218 532.945 252.648C532.613 255.078 532.406 256.348 532.323 256.458V256.582H516.959V255.795V255.298C516.959 255.105 517.042 254.898 517.207 254.677C517.373 254.456 517.787 253.973 518.45 253.228C519.25 252.344 519.941 251.571 520.52 250.909C520.769 250.632 521.238 250.122 521.929 249.376C522.619 248.631 523.088 248.12 523.337 247.844C523.585 247.568 523.985 247.112 524.538 246.477C525.09 245.842 525.476 245.373 525.697 245.069C525.918 244.766 526.236 244.351 526.65 243.827C527.064 243.302 527.354 242.861 527.519 242.502C527.685 242.143 527.892 241.742 528.141 241.301C528.389 240.859 528.569 240.417 528.679 239.975C528.789 239.534 528.886 239.119 528.969 238.733C529.052 238.346 529.093 237.891 529.093 237.366C529.093 235.627 528.624 234.122 527.685 232.852C526.746 231.582 525.407 230.947 523.668 230.947C522.757 230.947 521.956 231.182 521.266 231.651C520.576 232.121 520.093 232.576 519.816 233.018C519.54 233.46 519.402 233.722 519.402 233.805C519.402 233.832 519.471 233.846 519.609 233.846C520.106 233.846 520.617 234.039 521.142 234.426C521.666 234.812 521.929 235.447 521.929 236.331C521.929 237.021 521.708 237.601 521.266 238.07C520.824 238.54 520.203 238.788 519.402 238.816Z" fill="white"/>
<path d="M542.387 250.08C542.387 250.742 542.166 251.294 541.724 251.736C541.282 252.178 540.744 252.399 540.109 252.399H539.819C541.089 254.58 542.773 255.67 544.872 255.67C546.804 255.67 548.212 254.842 549.096 253.186C549.62 252.275 549.883 250.508 549.883 247.885C549.883 245.041 549.51 243.122 548.765 242.128C548.047 241.217 547.246 240.762 546.363 240.762H546.114C543.961 240.762 542.332 241.7 541.227 243.578C541.117 243.771 541.02 243.881 540.937 243.909C540.854 243.937 540.647 243.964 540.316 243.992C539.847 243.992 539.584 243.909 539.529 243.743C539.474 243.633 539.446 241.217 539.446 236.496V231.154C539.446 229.773 539.515 229.083 539.653 229.083C539.709 229.028 539.764 229 539.819 229C539.847 229 540.137 229.11 540.689 229.331C541.241 229.552 542 229.773 542.967 229.994C543.933 230.215 544.968 230.325 546.073 230.325C548.033 230.325 549.91 229.939 551.705 229.166C551.926 229.055 552.105 229 552.243 229C552.464 229 552.575 229.248 552.575 229.745V230.284C550.311 232.962 547.481 234.301 544.085 234.301C543.229 234.301 542.456 234.218 541.766 234.052L541.351 233.97V241.093C541.876 240.706 542.29 240.403 542.594 240.182C542.898 239.961 543.395 239.74 544.085 239.519C544.775 239.298 545.479 239.188 546.197 239.188C548.433 239.188 550.324 240.085 551.871 241.88C553.417 243.674 554.19 245.8 554.19 248.257C554.19 250.797 553.306 252.965 551.539 254.759C549.772 256.554 547.619 257.465 545.079 257.493C542.842 257.493 541.048 256.747 539.695 255.256C538.342 253.765 537.666 252.081 537.666 250.204C537.666 249.541 537.817 249.017 538.121 248.63C538.425 248.244 538.742 247.995 539.074 247.885C539.405 247.774 539.723 247.719 540.026 247.719C540.716 247.719 541.282 247.954 541.724 248.423C542.166 248.892 542.387 249.445 542.387 250.08Z" fill="white"/>
<path d="M570.126 242.211C570.126 241.852 570.319 241.576 570.706 241.382H597.086C597.501 241.603 597.708 241.879 597.708 242.211C597.708 242.514 597.514 242.777 597.128 242.998L583.958 243.039H570.789C570.347 242.901 570.126 242.625 570.126 242.211ZM570.126 250.245C570.126 249.831 570.347 249.555 570.789 249.417H597.128C597.514 249.693 597.708 249.969 597.708 250.245C597.708 250.604 597.501 250.88 597.086 251.073H570.706C570.319 250.88 570.126 250.604 570.126 250.245Z" fill="white"/>
<path d="M616.786 237.407C616.041 237.407 615.461 237.172 615.047 236.703C614.633 236.234 614.412 235.626 614.384 234.881C614.384 233.362 615.047 232.009 616.372 230.822C617.697 229.635 619.299 229.041 621.176 229.041C622.142 229.041 622.75 229.055 622.998 229.083C625.041 229.414 626.601 230.146 627.678 231.278C628.755 232.41 629.307 233.638 629.335 234.964C629.335 236.399 628.865 237.794 627.926 239.146C626.988 240.499 625.69 241.479 624.034 242.087L623.909 242.17C623.909 242.197 624.034 242.239 624.282 242.294C624.531 242.349 624.931 242.473 625.483 242.667C626.035 242.86 626.56 243.15 627.057 243.536C629.321 245 630.453 246.932 630.453 249.334C630.453 251.515 629.597 253.42 627.885 255.049C626.173 256.678 624.006 257.493 621.383 257.493C619.174 257.493 617.269 256.899 615.668 255.712C614.067 254.525 613.266 253.02 613.266 251.198C613.266 250.425 613.514 249.804 614.011 249.334C614.508 248.865 615.13 248.616 615.875 248.589C616.648 248.589 617.283 248.837 617.78 249.334C618.277 249.831 618.526 250.452 618.526 251.198C618.526 251.501 618.484 251.778 618.401 252.026C618.318 252.275 618.222 252.495 618.111 252.689C618.001 252.882 617.849 253.048 617.656 253.186C617.463 253.324 617.297 253.434 617.159 253.517C617.021 253.6 616.883 253.655 616.745 253.683C616.607 253.71 616.496 253.752 616.413 253.807L616.248 253.848C617.656 255.091 619.368 255.712 621.383 255.712C622.902 255.712 624.047 254.98 624.82 253.517C625.29 252.606 625.524 251.212 625.524 249.334V248.506C625.524 245.883 624.641 244.13 622.874 243.246C622.46 243.081 621.618 242.984 620.348 242.956L618.608 242.915L618.484 242.832C618.429 242.749 618.401 242.528 618.401 242.17C618.401 241.673 618.512 241.424 618.733 241.424C619.506 241.424 620.306 241.355 621.135 241.217C622.073 241.079 622.929 240.499 623.702 239.478C624.475 238.456 624.862 236.91 624.862 234.839V234.508C624.862 232.934 624.379 231.844 623.412 231.236C622.805 230.85 622.156 230.657 621.466 230.657C620.582 230.657 619.768 230.808 619.023 231.112C618.277 231.416 617.752 231.733 617.449 232.065C617.145 232.396 616.993 232.562 616.993 232.562H617.117C617.2 232.589 617.311 232.617 617.449 232.644C617.587 232.672 617.725 232.741 617.863 232.851C618.001 232.962 618.167 233.059 618.36 233.141C618.553 233.224 618.691 233.376 618.774 233.597C618.857 233.818 618.967 234.025 619.105 234.218C619.243 234.411 619.285 234.687 619.23 235.046C619.23 235.654 619.036 236.192 618.65 236.662C618.263 237.131 617.642 237.379 616.786 237.407Z" fill="white"/>
<path d="M637.493 237.407C636.748 237.407 636.168 237.172 635.754 236.703C635.339 236.234 635.119 235.626 635.091 234.881C635.091 233.362 635.754 232.009 637.079 230.822C638.404 229.635 640.005 229.041 641.883 229.041C642.849 229.041 643.457 229.055 643.705 229.083C645.748 229.414 647.308 230.146 648.385 231.278C649.462 232.41 650.014 233.638 650.041 234.964C650.041 236.399 649.572 237.794 648.633 239.146C647.695 240.499 646.397 241.479 644.74 242.087L644.616 242.17C644.616 242.197 644.74 242.239 644.989 242.294C645.237 242.349 645.638 242.473 646.19 242.667C646.742 242.86 647.267 243.15 647.764 243.536C650.028 245 651.16 246.932 651.16 249.334C651.16 251.515 650.304 253.42 648.592 255.049C646.88 256.678 644.713 257.493 642.09 257.493C639.881 257.493 637.976 256.899 636.375 255.712C634.774 254.525 633.973 253.02 633.973 251.198C633.973 250.425 634.221 249.804 634.718 249.334C635.215 248.865 635.836 248.616 636.582 248.589C637.355 248.589 637.99 248.837 638.487 249.334C638.984 249.831 639.232 250.452 639.232 251.198C639.232 251.501 639.191 251.778 639.108 252.026C639.025 252.275 638.929 252.495 638.818 252.689C638.708 252.882 638.556 253.048 638.363 253.186C638.169 253.324 638.004 253.434 637.866 253.517C637.728 253.6 637.59 253.655 637.452 253.683C637.314 253.71 637.203 253.752 637.12 253.807L636.955 253.848C638.363 255.091 640.074 255.712 642.09 255.712C643.608 255.712 644.754 254.98 645.527 253.517C645.997 252.606 646.231 251.212 646.231 249.334V248.506C646.231 245.883 645.348 244.13 643.581 243.246C643.167 243.081 642.325 242.984 641.055 242.956L639.315 242.915L639.191 242.832C639.136 242.749 639.108 242.528 639.108 242.17C639.108 241.673 639.219 241.424 639.439 241.424C640.213 241.424 641.013 241.355 641.841 241.217C642.78 241.079 643.636 240.499 644.409 239.478C645.182 238.456 645.569 236.91 645.569 234.839V234.508C645.569 232.934 645.086 231.844 644.119 231.236C643.512 230.85 642.863 230.657 642.173 230.657C641.289 230.657 640.475 230.808 639.729 231.112C638.984 231.416 638.459 231.733 638.156 232.065C637.852 232.396 637.7 232.562 637.7 232.562H637.824C637.907 232.589 638.018 232.617 638.156 232.644C638.294 232.672 638.432 232.741 638.57 232.851C638.708 232.962 638.873 233.059 639.067 233.141C639.26 233.224 639.398 233.376 639.481 233.597C639.564 233.818 639.674 234.025 639.812 234.218C639.95 234.411 639.992 234.687 639.936 235.046C639.936 235.654 639.743 236.192 639.357 236.662C638.97 237.131 638.349 237.379 637.493 237.407Z" fill="white"/>
</svg>
