<svg  viewBox="0 0 1014 244" fill="none" xmlns="http://www.w3.org/2000/svg">
<g id="0119209">
<g id="491 (16) 20 111 ( 8 ) 23 37 ( x ) 73">
<path d="M19.2598 28.0166H23.7969V31.4082H19.2598V39H15.082V31.4082H0.19043V28.96L14.835 6.29688H19.2598V28.0166ZM4.90723 28.0166H15.082V11.9795L14.5879 12.8779L4.90723 28.0166Z" fill="white"/>
<path d="M43.4727 24.625C42.6042 25.6582 41.5635 26.4893 40.3506 27.1182C39.1527 27.7471 37.835 28.0615 36.3975 28.0615C34.5107 28.0615 32.8636 27.5973 31.4561 26.6689C30.0635 25.7406 28.9854 24.4378 28.2217 22.7607C27.458 21.0687 27.0762 19.2044 27.0762 17.168C27.0762 14.9818 27.488 13.0127 28.3115 11.2607C29.1501 9.50879 30.333 8.16862 31.8604 7.24023C33.3877 6.31185 35.1696 5.84766 37.2061 5.84766C40.4404 5.84766 42.986 7.06055 44.8428 9.48633C46.7145 11.8971 47.6504 15.1914 47.6504 19.3691V20.582C47.6504 26.946 46.3926 31.5954 43.877 34.5303C41.3613 37.4502 37.5654 38.9476 32.4893 39.0225H31.6807V35.5186H32.5566C35.9857 35.4587 38.6211 34.5677 40.4629 32.8457C42.3047 31.1087 43.3079 28.3685 43.4727 24.625ZM37.0713 24.625C38.4639 24.625 39.7441 24.1982 40.9121 23.3447C42.0951 22.4912 42.9561 21.4355 43.4951 20.1777V18.5156C43.4951 15.7904 42.9036 13.5742 41.7207 11.8672C40.5378 10.1602 39.0404 9.30664 37.2285 9.30664C35.4017 9.30664 33.9342 10.0104 32.8262 11.418C31.7181 12.8105 31.1641 14.6523 31.1641 16.9434C31.1641 19.1745 31.6956 21.0163 32.7588 22.4688C33.8369 23.9062 35.2744 24.625 37.0713 24.625Z" fill="white"/>
<path d="M67.0342 39H62.8564V11.3057L54.4785 14.3828V10.6094L66.3828 6.13965H67.0342V39Z" fill="white"/>
<path d="M113.708 25.7256C113.708 22.3415 114.157 19.0921 115.056 15.9775C115.969 12.863 117.324 10.0329 119.121 7.4873C120.918 4.94173 122.782 3.14486 124.714 2.09668L125.567 4.83691C123.381 6.514 121.584 9.07454 120.177 12.5186C118.784 15.9626 118.021 19.8184 117.886 24.0859L117.863 25.9951C117.863 31.7751 118.919 36.7913 121.03 41.0439C122.303 43.5895 123.815 45.5811 125.567 47.0186L124.714 49.5566C122.722 48.4486 120.821 46.5918 119.009 43.9863C115.475 38.8952 113.708 32.8083 113.708 25.7256Z" fill="white"/>
<path d="M142.817 39H138.64V11.3057L130.262 14.3828V10.6094L142.166 6.13965H142.817V39Z" fill="white"/>
<path d="M171.298 6.27441V9.80078H170.534C167.3 9.86068 164.724 10.819 162.808 12.6758C160.891 14.5326 159.783 17.1455 159.483 20.5146C161.205 18.5381 163.556 17.5498 166.536 17.5498C169.381 17.5498 171.65 18.5531 173.342 20.5596C175.049 22.5661 175.902 25.1566 175.902 28.3311C175.902 31.7002 174.981 34.3955 173.14 36.417C171.313 38.4385 168.857 39.4492 165.772 39.4492C162.643 39.4492 160.105 38.2513 158.158 35.8555C156.212 33.4447 155.238 30.3451 155.238 26.5566V24.9619C155.238 18.9424 156.519 14.3454 159.079 11.1709C161.655 7.98145 165.48 6.34928 170.557 6.27441H171.298ZM165.84 21.0088C164.417 21.0088 163.107 21.4355 161.909 22.2891C160.711 23.1426 159.88 24.2132 159.416 25.501V27.0283C159.416 29.7236 160.022 31.8949 161.235 33.542C162.448 35.1891 163.961 36.0127 165.772 36.0127C167.644 36.0127 169.112 35.3239 170.175 33.9463C171.253 32.5687 171.792 30.7643 171.792 28.5332C171.792 26.2871 171.245 24.4753 170.152 23.0977C169.074 21.7051 167.637 21.0088 165.84 21.0088Z" fill="white"/>
<path d="M190.839 25.9502C190.839 29.2894 190.397 32.4938 189.514 35.5635C188.645 38.6182 187.305 41.4408 185.493 44.0312C183.696 46.6217 181.81 48.4635 179.833 49.5566L178.957 47.0186C181.263 45.2516 183.112 42.5114 184.505 38.7979C185.912 35.0693 186.631 30.9365 186.661 26.3994V25.6807C186.661 22.5361 186.332 19.6162 185.673 16.9209C185.014 14.2106 184.093 11.7848 182.91 9.64355C181.742 7.50228 180.424 5.83268 178.957 4.63477L179.833 2.09668C181.81 3.18978 183.689 5.0166 185.471 7.57715C187.268 10.1377 188.608 12.9603 189.491 16.0449C190.39 19.1296 190.839 22.4313 190.839 25.9502Z" fill="white"/>
<path d="M275.292 39H253.864V36.0127L265.185 23.4346C266.862 21.5329 268.015 19.9906 268.644 18.8076C269.287 17.6097 269.609 16.3743 269.609 15.1016C269.609 13.3945 269.093 11.9945 268.06 10.9014C267.026 9.80827 265.649 9.26172 263.927 9.26172C261.86 9.26172 260.251 9.85319 259.098 11.0361C257.96 12.2041 257.391 13.8363 257.391 15.9326H253.235C253.235 12.9229 254.201 10.4896 256.133 8.63281C258.079 6.77604 260.677 5.84766 263.927 5.84766C266.966 5.84766 269.37 6.64876 271.137 8.25098C272.904 9.83822 273.787 11.957 273.787 14.6074C273.787 17.8268 271.736 21.6602 267.633 26.1074L258.873 35.6084H275.292V39Z" fill="white"/>
<path d="M300.201 25.0518C300.201 29.9183 299.37 33.5345 297.708 35.9004C296.046 38.2663 293.448 39.4492 289.914 39.4492C286.425 39.4492 283.842 38.2962 282.165 35.9902C280.488 33.6693 279.619 30.2103 279.56 25.6133V20.0654C279.56 15.2588 280.391 11.6875 282.053 9.35156C283.715 7.01562 286.32 5.84766 289.869 5.84766C293.388 5.84766 295.979 6.97819 297.641 9.23926C299.303 11.4854 300.156 14.9593 300.201 19.6611V25.0518ZM296.046 19.3691C296.046 15.8503 295.552 13.2897 294.563 11.6875C293.575 10.0703 292.01 9.26172 289.869 9.26172C287.743 9.26172 286.193 10.0628 285.22 11.665C284.246 13.2673 283.745 15.7305 283.715 19.0547V25.7031C283.715 29.237 284.224 31.8499 285.242 33.542C286.275 35.2191 287.833 36.0576 289.914 36.0576C291.965 36.0576 293.485 35.264 294.474 33.6768C295.477 32.0895 296.001 29.5889 296.046 26.1748V19.3691Z" fill="white"/>
<path d="M15.374 116H11.1963V88.3057L2.81836 91.3828V87.6094L14.7227 83.1396H15.374V116Z" fill="white"/>
<path d="M41.2041 116H37.0264V88.3057L28.6484 91.3828V87.6094L40.5527 83.1396H41.2041V116Z" fill="white"/>
<path d="M67.0342 116H62.8564V88.3057L54.4785 91.3828V87.6094L66.3828 83.1396H67.0342V116Z" fill="white"/>
<path d="M113.708 102.726C113.708 99.3415 114.157 96.0921 115.056 92.9775C115.969 89.863 117.324 87.0329 119.121 84.4873C120.918 81.9417 122.782 80.1449 124.714 79.0967L125.567 81.8369C123.381 83.514 121.584 86.0745 120.177 89.5186C118.784 92.9626 118.021 96.8184 117.886 101.086L117.863 102.995C117.863 108.775 118.919 113.791 121.03 118.044C122.303 120.59 123.815 122.581 125.567 124.019L124.714 126.557C122.722 125.449 120.821 123.592 119.009 120.986C115.475 115.895 113.708 109.808 113.708 102.726Z" fill="white"/>
<path d="M160.404 91.832C160.404 93.4642 159.97 94.9167 159.102 96.1895C158.248 97.4622 157.088 98.458 155.62 99.1768C157.327 99.9105 158.675 100.981 159.663 102.389C160.666 103.796 161.168 105.391 161.168 107.173C161.168 110.003 160.21 112.257 158.293 113.934C156.391 115.611 153.883 116.449 150.769 116.449C147.624 116.449 145.101 115.611 143.199 113.934C141.312 112.242 140.369 109.988 140.369 107.173C140.369 105.406 140.848 103.811 141.807 102.389C142.78 100.966 144.12 99.888 145.827 99.1543C144.375 98.4355 143.229 97.4398 142.391 96.167C141.552 94.8942 141.133 93.4492 141.133 91.832C141.133 89.0768 142.016 86.8906 143.783 85.2734C145.55 83.6562 147.879 82.8477 150.769 82.8477C153.644 82.8477 155.965 83.6562 157.731 85.2734C159.513 86.8906 160.404 89.0768 160.404 91.832ZM157.013 107.083C157.013 105.256 156.429 103.766 155.261 102.613C154.108 101.46 152.595 100.884 150.724 100.884C148.852 100.884 147.347 101.453 146.209 102.591C145.086 103.729 144.524 105.226 144.524 107.083C144.524 108.94 145.071 110.4 146.164 111.463C147.272 112.526 148.807 113.058 150.769 113.058C152.715 113.058 154.243 112.526 155.351 111.463C156.459 110.385 157.013 108.925 157.013 107.083ZM150.769 86.2617C149.136 86.2617 147.811 86.7708 146.793 87.7891C145.79 88.7923 145.288 90.1624 145.288 91.8994C145.288 93.5615 145.782 94.9092 146.771 95.9424C147.774 96.9606 149.106 97.4697 150.769 97.4697C152.431 97.4697 153.756 96.9606 154.744 95.9424C155.747 94.9092 156.249 93.5615 156.249 91.8994C156.249 90.2373 155.732 88.8822 154.699 87.834C153.666 86.7858 152.356 86.2617 150.769 86.2617Z" fill="white"/>
<path d="M187.829 102.95C187.829 106.289 187.387 109.494 186.504 112.563C185.635 115.618 184.295 118.441 182.483 121.031C180.687 123.622 178.8 125.464 176.823 126.557L175.947 124.019C178.253 122.252 180.103 119.511 181.495 115.798C182.903 112.069 183.621 107.937 183.651 103.399V102.681C183.651 99.5361 183.322 96.6162 182.663 93.9209C182.004 91.2106 181.083 88.7848 179.9 86.6436C178.732 84.5023 177.415 82.8327 175.947 81.6348L176.823 79.0967C178.8 80.1898 180.679 82.0166 182.461 84.5771C184.258 87.1377 185.598 89.9603 186.481 93.0449C187.38 96.1296 187.829 99.4313 187.829 102.95Z" fill="white"/>
<path d="M272.282 116H250.854V113.013L262.175 100.435C263.852 98.5329 265.005 96.9906 265.634 95.8076C266.278 94.6097 266.6 93.3743 266.6 92.1016C266.6 90.3945 266.083 88.9945 265.05 87.9014C264.017 86.8083 262.639 86.2617 260.917 86.2617C258.851 86.2617 257.241 86.8532 256.088 88.0361C254.95 89.2041 254.381 90.8363 254.381 92.9326H250.226C250.226 89.9229 251.191 87.4896 253.123 85.6328C255.07 83.776 257.668 82.8477 260.917 82.8477C263.957 82.8477 266.36 83.6488 268.127 85.251C269.894 86.8382 270.777 88.957 270.777 91.6074C270.777 94.8268 268.726 98.6602 264.623 103.107L255.863 112.608H272.282V116Z" fill="white"/>
<path d="M282.727 97.627H285.849C287.81 97.597 289.353 97.0804 290.476 96.0771C291.599 95.0739 292.16 93.7188 292.16 92.0117C292.16 88.1784 290.251 86.2617 286.433 86.2617C284.636 86.2617 283.198 86.7783 282.12 87.8115C281.057 88.8298 280.525 90.1849 280.525 91.877H276.37C276.37 89.2865 277.313 87.1377 279.2 85.4307C281.102 83.7087 283.513 82.8477 286.433 82.8477C289.517 82.8477 291.936 83.6637 293.688 85.2959C295.439 86.9281 296.315 89.1966 296.315 92.1016C296.315 93.5241 295.851 94.9017 294.923 96.2344C294.009 97.5671 292.759 98.5628 291.172 99.2217C292.969 99.7907 294.354 100.734 295.327 102.052C296.315 103.369 296.81 104.979 296.81 106.881C296.81 109.816 295.851 112.144 293.935 113.866C292.018 115.588 289.525 116.449 286.455 116.449C283.385 116.449 280.885 115.618 278.953 113.956C277.036 112.294 276.078 110.1 276.078 107.375H280.256C280.256 109.097 280.817 110.475 281.94 111.508C283.063 112.541 284.568 113.058 286.455 113.058C288.462 113.058 289.996 112.534 291.06 111.485C292.123 110.437 292.654 108.932 292.654 106.971C292.654 105.069 292.07 103.609 290.902 102.591C289.734 101.573 288.05 101.049 285.849 101.019H282.727V97.627Z" fill="white"/>
<path d="M7.75977 174.627H10.8818C12.8434 174.597 14.3857 174.08 15.5088 173.077C16.6318 172.074 17.1934 170.719 17.1934 169.012C17.1934 165.178 15.2842 163.262 11.4658 163.262C9.66895 163.262 8.23145 163.778 7.15332 164.812C6.09017 165.83 5.55859 167.185 5.55859 168.877H1.40332C1.40332 166.286 2.34668 164.138 4.2334 162.431C6.13509 160.709 8.5459 159.848 11.4658 159.848C14.5505 159.848 16.9688 160.664 18.7207 162.296C20.4727 163.928 21.3486 166.197 21.3486 169.102C21.3486 170.524 20.8844 171.902 19.9561 173.234C19.0426 174.567 17.7923 175.563 16.2051 176.222C18.002 176.791 19.387 177.734 20.3604 179.052C21.3486 180.369 21.8428 181.979 21.8428 183.881C21.8428 186.816 20.8844 189.144 18.9678 190.866C17.0511 192.588 14.5579 193.449 11.4883 193.449C8.41862 193.449 5.91797 192.618 3.98633 190.956C2.06966 189.294 1.11133 187.1 1.11133 184.375H5.28906C5.28906 186.097 5.85059 187.475 6.97363 188.508C8.09668 189.541 9.60156 190.058 11.4883 190.058C13.4948 190.058 15.0296 189.534 16.0928 188.485C17.1559 187.437 17.6875 185.932 17.6875 183.971C17.6875 182.069 17.1035 180.609 15.9355 179.591C14.7676 178.573 13.083 178.049 10.8818 178.019H7.75977V174.627Z" fill="white"/>
<path d="M48.6611 162.633L35.1172 193H30.7598L44.2588 163.711H26.5596V160.297H48.6611V162.633Z" fill="white"/>
<path d="M110.698 179.726C110.698 176.341 111.147 173.092 112.046 169.978C112.959 166.863 114.314 164.033 116.111 161.487C117.908 158.942 119.772 157.145 121.704 156.097L122.558 158.837C120.371 160.514 118.575 163.075 117.167 166.519C115.774 169.963 115.011 173.818 114.876 178.086L114.854 179.995C114.854 185.775 115.909 190.791 118.021 195.044C119.293 197.59 120.806 199.581 122.558 201.019L121.704 203.557C119.713 202.449 117.811 200.592 115.999 197.986C112.465 192.895 110.698 186.808 110.698 179.726Z" fill="white"/>
<path d="M146.142 177.569L151.532 168.697H156.384L148.433 180.714L156.631 193H151.824L146.209 183.903L140.594 193H135.765L143.963 180.714L136.012 168.697H140.818L146.142 177.569Z" fill="white"/>
<path d="M181.81 179.95C181.81 183.289 181.368 186.494 180.484 189.563C179.616 192.618 178.276 195.441 176.464 198.031C174.667 200.622 172.78 202.464 170.804 203.557L169.928 201.019C172.234 199.252 174.083 196.511 175.476 192.798C176.883 189.069 177.602 184.937 177.632 180.399V179.681C177.632 176.536 177.302 173.616 176.644 170.921C175.985 168.211 175.064 165.785 173.881 163.644C172.713 161.502 171.395 159.833 169.928 158.635L170.804 156.097C172.78 157.19 174.66 159.017 176.441 161.577C178.238 164.138 179.578 166.96 180.462 170.045C181.36 173.13 181.81 176.431 181.81 179.95Z" fill="white"/>
<path d="M277.358 162.633L263.814 193H259.457L272.956 163.711H255.257V160.297H277.358V162.633Z" fill="white"/>
<path d="M288.117 174.627H291.239C293.201 174.597 294.743 174.08 295.866 173.077C296.989 172.074 297.551 170.719 297.551 169.012C297.551 165.178 295.642 163.262 291.823 163.262C290.026 163.262 288.589 163.778 287.511 164.812C286.448 165.83 285.916 167.185 285.916 168.877H281.761C281.761 166.286 282.704 164.138 284.591 162.431C286.493 160.709 288.903 159.848 291.823 159.848C294.908 159.848 297.326 160.664 299.078 162.296C300.83 163.928 301.706 166.197 301.706 169.102C301.706 170.524 301.242 171.902 300.313 173.234C299.4 174.567 298.15 175.563 296.562 176.222C298.359 176.791 299.744 177.734 300.718 179.052C301.706 180.369 302.2 181.979 302.2 183.881C302.2 186.816 301.242 189.144 299.325 190.866C297.409 192.588 294.915 193.449 291.846 193.449C288.776 193.449 286.275 192.618 284.344 190.956C282.427 189.294 281.469 187.1 281.469 184.375H285.646C285.646 186.097 286.208 187.475 287.331 188.508C288.454 189.541 289.959 190.058 291.846 190.058C293.852 190.058 295.387 189.534 296.45 188.485C297.513 187.437 298.045 185.932 298.045 183.971C298.045 182.069 297.461 180.609 296.293 179.591C295.125 178.573 293.44 178.049 291.239 178.019H288.117V174.627Z" fill="white"/>
</g>
<g id="\Rightarrow\;(4+9+1)+(2+0)=14+2=16">
<g id="Group">
<g id="Group_2">
<path id="Vector" d="M362.96 9.4402C362.96 9.14687 363.173 9.00021 363.6 9.00021C363.733 9.00021 363.84 9.00021 363.92 9.00021C364 9.00021 364.067 9.00021 364.12 9.00021C364.173 9.00021 364.227 9.01354 364.28 9.04021C364.333 9.06687 364.36 9.08021 364.36 9.08021C364.36 9.08021 364.387 9.1202 364.44 9.2002C364.493 9.2802 364.52 9.32021 364.52 9.32021C364.52 9.32021 364.56 9.38687 364.64 9.52021C365.627 11.4935 366.933 13.2402 368.56 14.7602C370.187 16.2802 371.667 17.3602 373 18.0002C374.333 18.6402 375.613 19.1335 376.84 19.4802C377.293 19.6135 377.52 19.7869 377.52 20.0002C377.52 20.2135 377.4 20.3602 377.16 20.4402C376.92 20.5202 376.427 20.6669 375.68 20.8802C374.933 21.0935 374.16 21.4135 373.36 21.8402C369.52 23.7069 366.613 26.5869 364.64 30.4802C364.533 30.7202 364.44 30.8535 364.36 30.8802C364.28 30.9069 364.08 30.9335 363.76 30.9602C363.227 30.9602 362.96 30.8669 362.96 30.6802C362.96 30.5735 363.027 30.3469 363.16 30.0002C364.093 28.1602 365.24 26.5202 366.6 25.0802L367 24.6802H342.56C342.187 24.4935 342 24.2269 342 23.8802C342 23.4802 342.213 23.2135 342.64 23.0802H368.76L369.16 22.7602C370.2 21.9602 371.76 21.0402 373.84 20.0002C373.813 19.9735 373.573 19.8535 373.12 19.6402C372.667 19.4269 372.067 19.1069 371.32 18.6802C370.573 18.2535 369.853 17.7735 369.16 17.2402L368.76 16.9202H342.64C342.213 16.7869 342 16.5202 342 16.1202C342 15.7735 342.187 15.5069 342.56 15.3202H367L366.6 14.9202C365.72 13.9869 364.893 12.9069 364.12 11.6802C363.347 10.4535 362.96 9.70687 362.96 9.4402Z" fill="white"/>
</g>
<g id="Group_3">
<path id="Vector_2" d="M405.744 20C405.744 18.16 405.877 16.4133 406.144 14.76C406.411 13.1067 406.717 11.68 407.064 10.48C407.411 9.28 407.904 8.10667 408.544 6.96C409.184 5.81333 409.691 4.92 410.064 4.28C410.437 3.64 410.997 2.94667 411.744 2.2C412.491 1.45333 412.931 1 413.064 0.84C413.197 0.68 413.531 0.4 414.064 0H414.584H414.744C415.117 0 415.304 0.120001 415.304 0.360001C415.304 0.440001 415.077 0.720001 414.624 1.2C414.171 1.68 413.624 2.38667 412.984 3.32C412.344 4.25333 411.691 5.4 411.024 6.76C410.357 8.12 409.797 9.96 409.344 12.28C408.891 14.6 408.664 17.1733 408.664 20C408.664 22.8267 408.891 25.3867 409.344 27.68C409.797 29.9733 410.344 31.8267 410.984 33.24C411.624 34.6533 412.277 35.8 412.944 36.68C413.611 37.56 414.171 38.2667 414.624 38.8C415.077 39.3333 415.304 39.6133 415.304 39.64C415.304 39.88 415.104 40 414.704 40H414.584H414.064L412.944 39.04C410.437 36.7733 408.611 33.9467 407.464 30.56C406.317 27.1733 405.744 23.6533 405.744 20Z" fill="white"/>
</g>
<g id="Group_4">
<path id="Vector_3" d="M436.024 30C435.544 29.92 433.824 29.88 430.864 29.88C427.771 29.88 425.984 29.92 425.504 30H425.144V28.16H426.384C426.918 28.16 427.278 28.16 427.464 28.16C427.651 28.16 427.878 28.1333 428.144 28.08C428.411 28.0267 428.598 27.96 428.704 27.88C428.811 27.8 428.904 27.6933 428.984 27.56C429.011 27.5067 429.024 26.7867 429.024 25.4V23.4H418.664V21.56L424.704 12.32C428.784 6.13334 430.851 3.02667 430.904 3C430.958 2.94667 431.238 2.92 431.744 2.92H432.464L432.704 3.16V21.56H436.384V23.4H432.704V25.44C432.704 26.5333 432.704 27.1733 432.704 27.36C432.704 27.5467 432.784 27.7067 432.944 27.84C433.158 28.0267 433.918 28.1333 435.224 28.16H436.384V30H436.024ZM429.264 21.56V8.2L420.504 21.52L424.864 21.56H429.264Z" fill="white"/>
</g>
<g id="Group_5">
<path id="Vector_4" d="M448.672 20.52C448.672 20.52 448.672 20.3467 448.672 20C448.672 19.6534 448.859 19.3867 449.232 19.2H461.192V13.2L461.232 7.20003C461.499 6.85336 461.752 6.68003 461.992 6.68003C462.339 6.68003 462.605 6.88003 462.792 7.28003V19.2H474.712C475.112 19.4134 475.312 19.68 475.312 20C475.312 20.32 475.112 20.5867 474.712 20.8H462.792V32.72C462.579 33.0934 462.339 33.28 462.072 33.28H461.992H461.912C461.592 33.28 461.352 33.0934 461.192 32.72V20.8H449.232C448.859 20.6134 448.672 20.3467 448.672 20V20.52Z" fill="white"/>
</g>
<g id="Group_6">
<path id="Vector_5" d="M500.52 18.5201C499.24 20.5468 497.64 21.5601 495.72 21.5601C493.64 21.5601 491.933 20.7735 490.6 19.2001C489.267 17.6268 488.467 15.9468 488.2 14.1601C488.147 13.7335 488.12 13.2001 488.12 12.5601V12.2401C488.12 9.76013 489.04 7.60013 490.88 5.76013C492.48 4.16013 494.24 3.36013 496.16 3.36013C496.213 3.36013 496.293 3.36013 496.4 3.36013C496.507 3.36013 496.613 3.37346 496.72 3.40013H496.88C497.2 3.40013 497.533 3.42679 497.88 3.48013C498.227 3.53346 498.72 3.69346 499.36 3.96013C500 4.22679 500.627 4.65346 501.24 5.24013C501.853 5.82679 502.427 6.61346 502.96 7.60013C504.107 9.94679 504.68 12.9601 504.68 16.6401C504.68 20.3735 503.88 23.5335 502.28 26.1201C501.347 27.6135 500.227 28.7735 498.92 29.6001C497.613 30.4268 496.227 30.8535 494.76 30.8801C493.133 30.8801 491.8 30.4935 490.76 29.7201C489.72 28.9468 489.187 27.8001 489.16 26.2801C489.133 24.7601 489.84 24.0135 491.28 24.0401C491.867 24.0401 492.36 24.2268 492.76 24.6001C493.16 24.9735 493.36 25.4935 493.36 26.1601C493.36 26.6401 493.24 27.0535 493 27.4001C492.76 27.7468 492.547 27.9601 492.36 28.0401C492.173 28.1201 492 28.1868 491.84 28.2401L491.68 28.2801C491.68 28.3335 491.773 28.4135 491.96 28.5201C492.147 28.6268 492.493 28.7601 493 28.9201C493.507 29.0801 494.067 29.1468 494.68 29.1201H494.92C496.52 29.1201 497.867 28.2668 498.96 26.5601C500 25.0668 500.52 22.4801 500.52 18.8001V18.5201ZM496.2 20.0801C497.48 20.0801 498.507 19.4268 499.28 18.1201C500.053 16.8135 500.453 15.0401 500.48 12.8001C500.48 10.7201 500.373 9.22679 500.16 8.32013C500.107 8.05346 500.027 7.78679 499.92 7.52013C499.813 7.25346 499.627 6.90679 499.36 6.48013C499.093 6.05346 498.693 5.69346 498.16 5.40013C497.627 5.10679 497 4.97346 496.28 5.00013C495.267 5.00013 494.4 5.36013 493.68 6.08013C493.12 6.66679 492.76 7.36013 492.6 8.16013C492.44 8.96013 492.347 10.3601 492.32 12.3601C492.32 14.5735 492.387 16.0668 492.52 16.8401C492.653 17.6135 492.92 18.2401 493.32 18.7201C493.987 19.6268 494.947 20.0801 496.2 20.0801Z" fill="white"/>
</g>
<g id="Group_7">
<path id="Vector_6" d="M517.568 20.52C517.568 20.52 517.568 20.3467 517.568 20C517.568 19.6534 517.755 19.3867 518.128 19.2H530.088V13.2L530.128 7.20003C530.395 6.85336 530.648 6.68003 530.888 6.68003C531.235 6.68003 531.501 6.88003 531.688 7.28003V19.2H543.608C544.008 19.4134 544.208 19.68 544.208 20C544.208 20.32 544.008 20.5867 543.608 20.8H531.688V32.72C531.475 33.0934 531.235 33.28 530.968 33.28H530.888H530.808C530.488 33.28 530.248 33.0934 530.088 32.72V20.8H518.128C517.755 20.6134 517.568 20.3467 517.568 20V20.52Z" fill="white"/>
</g>
<g id="Group_8">
<path id="Vector_7" d="M563.856 6.88L563.336 7.08C562.963 7.21333 562.429 7.34667 561.736 7.48C561.043 7.61333 560.269 7.70667 559.416 7.76H558.656V5.92H559.416C560.669 5.86667 561.829 5.66667 562.896 5.32C563.963 4.97333 564.709 4.65333 565.136 4.36C565.563 4.06667 565.936 3.77333 566.256 3.48C566.309 3.4 566.469 3.36 566.736 3.36C566.976 3.36 567.203 3.44 567.416 3.6V15.56L567.456 27.56C567.643 27.7467 567.803 27.8667 567.936 27.92C568.069 27.9733 568.389 28.0267 568.896 28.08C569.403 28.1333 570.229 28.16 571.376 28.16H572.416V30H571.976C571.416 29.92 569.296 29.88 565.616 29.88C561.989 29.88 559.896 29.92 559.336 30H558.856V28.16H559.896C560.483 28.16 560.989 28.16 561.416 28.16C561.843 28.16 562.176 28.1467 562.416 28.12C562.656 28.0933 562.869 28.0533 563.056 28C563.243 27.9467 563.349 27.92 563.376 27.92C563.403 27.92 563.483 27.8533 563.616 27.72C563.749 27.5867 563.829 27.5333 563.856 27.56V6.88Z" fill="white"/>
</g>
<g id="Group_9">
<path id="Vector_8" d="M577.736 0.0400009L577.896 0C578.029 0 578.163 0 578.296 0H578.776L579.896 0.959999C582.403 3.22667 584.229 6.05333 585.376 9.44C586.523 12.8267 587.096 16.3467 587.096 20C587.096 21.8133 586.963 23.56 586.696 25.24C586.429 26.92 586.123 28.3467 585.776 29.52C585.429 30.6933 584.936 31.8667 584.296 33.04C583.656 34.2133 583.149 35.1067 582.776 35.72C582.403 36.3333 581.856 37.0133 581.136 37.76C580.416 38.5067 579.989 38.9467 579.856 39.08C579.723 39.2133 579.416 39.4667 578.936 39.84C578.856 39.92 578.803 39.9733 578.776 40H578.296C578.083 40 577.936 40 577.856 40C577.776 40 577.709 39.96 577.656 39.88C577.603 39.8 577.563 39.68 577.536 39.52C577.563 39.4933 577.709 39.32 577.976 39C582.109 34.7067 584.176 28.3733 584.176 20C584.176 11.6267 582.109 5.29333 577.976 1C577.709 0.68 577.563 0.506666 577.536 0.48C577.536 0.266666 577.603 0.120001 577.736 0.0400009Z" fill="white"/>
</g>
<g id="Group_10">
<path id="Vector_9" d="M602.028 20.52C602.028 20.52 602.028 20.3467 602.028 20C602.028 19.6534 602.214 19.3867 602.588 19.2H614.548V13.2L614.588 7.20003C614.854 6.85336 615.108 6.68003 615.348 6.68003C615.694 6.68003 615.961 6.88003 616.148 7.28003V19.2H628.068C628.468 19.4134 628.668 19.68 628.668 20C628.668 20.32 628.468 20.5867 628.068 20.8H616.148V32.72C615.934 33.0934 615.694 33.28 615.428 33.28H615.348H615.268C614.948 33.28 614.708 33.0934 614.548 32.72V20.8H602.588C602.214 20.6134 602.028 20.3467 602.028 20V20.52Z" fill="white"/>
</g>
<g id="Group_11">
<path id="Vector_10" d="M643.556 20C643.556 18.16 643.689 16.4133 643.956 14.76C644.222 13.1067 644.529 11.68 644.876 10.48C645.222 9.28 645.716 8.10667 646.356 6.96C646.996 5.81333 647.502 4.92 647.876 4.28C648.249 3.64 648.809 2.94667 649.556 2.2C650.302 1.45333 650.742 1 650.876 0.84C651.009 0.68 651.342 0.4 651.876 0H652.396H652.556C652.929 0 653.116 0.120001 653.116 0.360001C653.116 0.440001 652.889 0.720001 652.436 1.2C651.982 1.68 651.436 2.38667 650.796 3.32C650.156 4.25333 649.502 5.4 648.836 6.76C648.169 8.12 647.609 9.96 647.156 12.28C646.702 14.6 646.476 17.1733 646.476 20C646.476 22.8267 646.702 25.3867 647.156 27.68C647.609 29.9733 648.156 31.8267 648.796 33.24C649.436 34.6533 650.089 35.8 650.756 36.68C651.422 37.56 651.982 38.2667 652.436 38.8C652.889 39.3333 653.116 39.6133 653.116 39.64C653.116 39.88 652.916 40 652.516 40H652.396H651.876L650.756 39.04C648.249 36.7733 646.422 33.9467 645.276 30.56C644.129 27.1733 643.556 23.6533 643.556 20Z" fill="white"/>
</g>
<g id="Group_12">
<path id="Vector_11" d="M659.716 12.84C658.996 12.84 658.422 12.6 657.996 12.12C657.569 11.64 657.356 11.0533 657.356 10.36C657.356 8.46667 658.062 6.82667 659.476 5.44C660.889 4.05333 662.649 3.36 664.756 3.36C667.182 3.36 669.209 4.10667 670.836 5.6C672.462 7.09333 673.289 9.02667 673.316 11.4C673.316 12.5467 673.049 13.64 672.516 14.68C671.982 15.72 671.342 16.6267 670.596 17.4C669.849 18.1733 668.782 19.16 667.396 20.36C666.436 21.1867 665.102 22.4133 663.396 24.04L661.036 26.28L664.076 26.32C668.262 26.32 670.489 26.2533 670.756 26.12C670.942 26.0667 671.262 24.88 671.716 22.56V22.44H673.316V22.56C673.289 22.64 673.116 23.8533 672.796 26.2C672.476 28.5467 672.276 29.7733 672.196 29.88V30H657.356V29.24V28.76C657.356 28.5733 657.436 28.3733 657.596 28.16C657.756 27.9467 658.156 27.48 658.796 26.76C659.569 25.9067 660.236 25.16 660.796 24.52C661.036 24.2533 661.489 23.76 662.156 23.04C662.822 22.32 663.276 21.8267 663.516 21.56C663.756 21.2933 664.142 20.8533 664.676 20.24C665.209 19.6267 665.582 19.1733 665.796 18.88C666.009 18.5867 666.316 18.1867 666.716 17.68C667.116 17.1733 667.396 16.7467 667.556 16.4C667.716 16.0533 667.916 15.6667 668.156 15.24C668.396 14.8133 668.569 14.3867 668.676 13.96C668.782 13.5333 668.876 13.1333 668.956 12.76C669.036 12.3867 669.076 11.9467 669.076 11.44C669.076 9.76 668.622 8.30667 667.716 7.08C666.809 5.85333 665.516 5.24 663.836 5.24C662.956 5.24 662.182 5.46667 661.516 5.92C660.849 6.37333 660.382 6.81333 660.116 7.24C659.849 7.66667 659.716 7.92 659.716 8C659.716 8.02667 659.782 8.04 659.916 8.04C660.396 8.04 660.889 8.22667 661.396 8.6C661.902 8.97333 662.156 9.58667 662.156 10.44C662.156 11.1067 661.942 11.6667 661.516 12.12C661.089 12.5733 660.489 12.8133 659.716 12.84Z" fill="white"/>
</g>
<g id="Group_13">
<path id="Vector_12" d="M686.484 20.52C686.484 20.52 686.484 20.3467 686.484 20C686.484 19.6534 686.671 19.3867 687.044 19.2H699.004V13.2L699.044 7.20003C699.311 6.85336 699.564 6.68003 699.804 6.68003C700.151 6.68003 700.417 6.88003 700.604 7.28003V19.2H712.524C712.924 19.4134 713.124 19.68 713.124 20C713.124 20.32 712.924 20.5867 712.524 20.8H700.604V32.72C700.391 33.0934 700.151 33.28 699.884 33.28H699.804H699.724C699.404 33.28 699.164 33.0934 699.004 32.72V20.8H687.044C686.671 20.6134 686.484 20.3467 686.484 20V20.52Z" fill="white"/>
</g>
<g id="Group_14">
<path id="Vector_13" d="M728.092 6.60013C729.586 4.44013 731.626 3.36013 734.212 3.36013C735.492 3.36013 736.772 3.70679 738.052 4.40013C739.332 5.09346 740.372 6.32013 741.172 8.08013C742.159 10.2935 742.652 13.3335 742.652 17.2001C742.652 21.3335 742.079 24.4935 740.932 26.6801C740.399 27.8001 739.666 28.6935 738.732 29.3601C737.799 30.0268 736.986 30.4401 736.292 30.6001C735.599 30.7601 734.919 30.8535 734.252 30.8801C733.559 30.8801 732.866 30.8001 732.172 30.6401C731.479 30.4801 730.666 30.0535 729.732 29.3601C728.799 28.6668 728.066 27.7735 727.532 26.6801C726.386 24.4935 725.812 21.3335 725.812 17.2001C725.812 12.5601 726.572 9.02679 728.092 6.60013ZM737.092 6.12013C736.292 5.26679 735.346 4.84013 734.252 4.84013C733.132 4.84013 732.172 5.26679 731.372 6.12013C730.706 6.81346 730.266 7.77346 730.052 9.00013C729.839 10.2268 729.732 12.7868 729.732 16.6801C729.732 20.8935 729.839 23.6668 730.052 25.0001C730.266 26.3335 730.746 27.3868 731.492 28.1601C732.239 28.9601 733.159 29.3601 734.252 29.3601C735.319 29.3601 736.226 28.9601 736.972 28.1601C737.746 27.3601 738.226 26.2401 738.412 24.8001C738.599 23.3601 738.706 20.6535 738.732 16.6801C738.732 12.8135 738.626 10.2668 738.412 9.04013C738.199 7.81346 737.759 6.84013 737.092 6.12013Z" fill="white"/>
</g>
<g id="Group_15">
<path id="Vector_14" d="M746.652 0.0400009L746.812 0C746.945 0 747.078 0 747.212 0H747.692L748.812 0.959999C751.318 3.22667 753.145 6.05333 754.292 9.44C755.438 12.8267 756.012 16.3467 756.012 20C756.012 21.8133 755.878 23.56 755.612 25.24C755.345 26.92 755.038 28.3467 754.692 29.52C754.345 30.6933 753.852 31.8667 753.212 33.04C752.572 34.2133 752.065 35.1067 751.692 35.72C751.318 36.3333 750.772 37.0133 750.052 37.76C749.332 38.5067 748.905 38.9467 748.772 39.08C748.638 39.2133 748.332 39.4667 747.852 39.84C747.772 39.92 747.718 39.9733 747.692 40H747.212C746.998 40 746.852 40 746.772 40C746.692 40 746.625 39.96 746.572 39.88C746.518 39.8 746.478 39.68 746.452 39.52C746.478 39.4933 746.625 39.32 746.892 39C751.025 34.7067 753.092 28.3733 753.092 20C753.092 11.6267 751.025 5.29333 746.892 1C746.625 0.68 746.478 0.506666 746.452 0.48C746.452 0.266666 746.518 0.120001 746.652 0.0400009Z" fill="white"/>
</g>
<g id="Group_16">
<path id="Vector_15" d="M773.164 16.1199C773.164 15.7733 773.35 15.5066 773.724 15.3199H799.204C799.604 15.5333 799.804 15.7999 799.804 16.1199C799.804 16.4133 799.617 16.6666 799.244 16.8799L786.524 16.9199H773.804C773.377 16.7866 773.164 16.5199 773.164 16.1199ZM773.164 23.8799C773.164 23.4799 773.377 23.2133 773.804 23.0799H799.244C799.617 23.3466 799.804 23.6133 799.804 23.8799C799.804 24.2266 799.604 24.4933 799.204 24.6799H773.724C773.35 24.4933 773.164 24.2266 773.164 23.8799Z" fill="white"/>
</g>
<g id="Group_17">
<path id="Vector_16" d="M821.676 6.88L821.156 7.08C820.782 7.21333 820.249 7.34667 819.556 7.48C818.862 7.61333 818.089 7.70667 817.236 7.76H816.476V5.92H817.236C818.489 5.86667 819.649 5.66667 820.716 5.32C821.782 4.97333 822.529 4.65333 822.956 4.36C823.382 4.06667 823.756 3.77333 824.076 3.48C824.129 3.4 824.289 3.36 824.556 3.36C824.796 3.36 825.022 3.44 825.236 3.6V15.56L825.276 27.56C825.462 27.7467 825.622 27.8667 825.756 27.92C825.889 27.9733 826.209 28.0267 826.716 28.08C827.222 28.1333 828.049 28.16 829.196 28.16H830.236V30H829.796C829.236 29.92 827.116 29.88 823.436 29.88C819.809 29.88 817.716 29.92 817.156 30H816.676V28.16H817.716C818.302 28.16 818.809 28.16 819.236 28.16C819.662 28.16 819.996 28.1467 820.236 28.12C820.476 28.0933 820.689 28.0533 820.876 28C821.062 27.9467 821.169 27.92 821.196 27.92C821.222 27.92 821.302 27.8533 821.436 27.72C821.569 27.5867 821.649 27.5333 821.676 27.56V6.88Z" fill="white"/>
<path id="Vector_17" d="M851.636 30C851.156 29.92 849.436 29.88 846.476 29.88C843.383 29.88 841.596 29.92 841.116 30H840.756V28.16H841.996C842.529 28.16 842.889 28.16 843.076 28.16C843.263 28.16 843.489 28.1333 843.756 28.08C844.023 28.0267 844.209 27.96 844.316 27.88C844.423 27.8 844.516 27.6933 844.596 27.56C844.623 27.5067 844.636 26.7867 844.636 25.4V23.4H834.276V21.56L840.316 12.32C844.396 6.13334 846.463 3.02667 846.516 3C846.569 2.94667 846.849 2.92 847.356 2.92H848.076L848.316 3.16V21.56H851.996V23.4H848.316V25.44C848.316 26.5333 848.316 27.1733 848.316 27.36C848.316 27.5467 848.396 27.7067 848.556 27.84C848.769 28.0267 849.529 28.1333 850.836 28.16H851.996V30H851.636ZM844.876 21.56V8.2L836.116 21.52L840.476 21.56H844.876Z" fill="white"/>
</g>
<g id="Group_18">
<path id="Vector_18" d="M864.284 20.52C864.284 20.52 864.284 20.3467 864.284 20C864.284 19.6534 864.471 19.3867 864.844 19.2H876.804V13.2L876.844 7.20003C877.111 6.85336 877.364 6.68003 877.604 6.68003C877.951 6.68003 878.217 6.88003 878.404 7.28003V19.2H890.324C890.724 19.4134 890.924 19.68 890.924 20C890.924 20.32 890.724 20.5867 890.324 20.8H878.404V32.72C878.191 33.0934 877.951 33.28 877.684 33.28H877.604H877.524C877.204 33.28 876.964 33.0934 876.804 32.72V20.8H864.844C864.471 20.6134 864.284 20.3467 864.284 20V20.52Z" fill="white"/>
</g>
<g id="Group_19">
<path id="Vector_19" d="M906.412 12.84C905.692 12.84 905.118 12.6 904.692 12.12C904.265 11.64 904.052 11.0533 904.052 10.36C904.052 8.46667 904.758 6.82667 906.172 5.44C907.585 4.05333 909.345 3.36 911.452 3.36C913.878 3.36 915.905 4.10667 917.532 5.6C919.158 7.09333 919.985 9.02667 920.012 11.4C920.012 12.5467 919.745 13.64 919.212 14.68C918.678 15.72 918.038 16.6267 917.292 17.4C916.545 18.1733 915.478 19.16 914.092 20.36C913.132 21.1867 911.798 22.4133 910.092 24.04L907.732 26.28L910.772 26.32C914.958 26.32 917.185 26.2533 917.452 26.12C917.638 26.0667 917.958 24.88 918.412 22.56V22.44H920.012V22.56C919.985 22.64 919.812 23.8533 919.492 26.2C919.172 28.5467 918.972 29.7733 918.892 29.88V30H904.052V29.24V28.76C904.052 28.5733 904.132 28.3733 904.292 28.16C904.452 27.9467 904.852 27.48 905.492 26.76C906.265 25.9067 906.932 25.16 907.492 24.52C907.732 24.2533 908.185 23.76 908.852 23.04C909.518 22.32 909.972 21.8267 910.212 21.56C910.452 21.2933 910.838 20.8533 911.372 20.24C911.905 19.6267 912.278 19.1733 912.492 18.88C912.705 18.5867 913.012 18.1867 913.412 17.68C913.812 17.1733 914.092 16.7467 914.252 16.4C914.412 16.0533 914.612 15.6667 914.852 15.24C915.092 14.8133 915.265 14.3867 915.372 13.96C915.478 13.5333 915.572 13.1333 915.652 12.76C915.732 12.3867 915.772 11.9467 915.772 11.44C915.772 9.76 915.318 8.30667 914.412 7.08C913.505 5.85333 912.212 5.24 910.532 5.24C909.652 5.24 908.878 5.46667 908.212 5.92C907.545 6.37333 907.078 6.81333 906.812 7.24C906.545 7.66667 906.412 7.92 906.412 8C906.412 8.02667 906.478 8.04 906.612 8.04C907.092 8.04 907.585 8.22667 908.092 8.6C908.598 8.97333 908.852 9.58667 908.852 10.44C908.852 11.1067 908.638 11.6667 908.212 12.12C907.785 12.5733 907.185 12.8133 906.412 12.84Z" fill="white"/>
</g>
<g id="Group_20">
<path id="Vector_20" d="M935.404 16.1199C935.404 15.7733 935.591 15.5066 935.964 15.3199H961.444C961.844 15.5333 962.044 15.7999 962.044 16.1199C962.044 16.4133 961.858 16.6666 961.484 16.8799L948.764 16.9199H936.044C935.618 16.7866 935.404 16.5199 935.404 16.1199ZM935.404 23.8799C935.404 23.4799 935.618 23.2133 936.044 23.0799H961.484C961.858 23.3466 962.044 23.6133 962.044 23.8799C962.044 24.2266 961.844 24.4933 961.444 24.6799H935.964C935.591 24.4933 935.404 24.2266 935.404 23.8799Z" fill="white"/>
</g>
<g id="Group_21">
<path id="Vector_21" d="M983.916 6.88L983.396 7.08C983.023 7.21333 982.49 7.34667 981.796 7.48C981.103 7.61333 980.33 7.70667 979.476 7.76H978.716V5.92H979.476C980.73 5.86667 981.89 5.66667 982.956 5.32C984.023 4.97333 984.77 4.65333 985.196 4.36C985.623 4.06667 985.996 3.77333 986.316 3.48C986.37 3.4 986.53 3.36 986.796 3.36C987.036 3.36 987.263 3.44 987.476 3.6V15.56L987.516 27.56C987.703 27.7467 987.863 27.8667 987.996 27.92C988.13 27.9733 988.45 28.0267 988.956 28.08C989.463 28.1333 990.29 28.16 991.436 28.16H992.476V30H992.036C991.476 29.92 989.356 29.88 985.676 29.88C982.05 29.88 979.956 29.92 979.396 30H978.916V28.16H979.956C980.543 28.16 981.05 28.16 981.476 28.16C981.903 28.16 982.236 28.1467 982.476 28.12C982.716 28.0933 982.93 28.0533 983.116 28C983.303 27.9467 983.41 27.92 983.436 27.92C983.463 27.92 983.543 27.8533 983.676 27.72C983.81 27.5867 983.89 27.5333 983.916 27.56V6.88Z" fill="white"/>
<path id="Vector_22" d="M997.076 17.4801C997.076 13.1335 998.156 9.69346 1000.32 7.16013C1002.48 4.62679 1004.88 3.36013 1007.52 3.36013C1009.36 3.36013 1010.68 3.84013 1011.48 4.80013C1012.28 5.76013 1012.68 6.82679 1012.68 8.00013C1012.68 8.66679 1012.49 9.20013 1012.12 9.60013C1011.74 10.0001 1011.22 10.2001 1010.56 10.2001C1009.94 10.2001 1009.44 10.0135 1009.04 9.64013C1008.64 9.26679 1008.44 8.74679 1008.44 8.08013C1008.44 6.90679 1009.06 6.20013 1010.32 5.96013C1009.73 5.37346 1008.9 5.04013 1007.84 4.96013C1005.94 4.96013 1004.38 5.76013 1003.16 7.36013C1001.9 9.12013 1001.28 11.8135 1001.28 15.4401L1001.32 15.6001C1001.45 15.4401 1001.56 15.2668 1001.64 15.0801C1002.73 13.4801 1004.16 12.6801 1005.92 12.6801H1006.08C1007.3 12.6801 1008.38 12.9335 1009.32 13.4401C1009.96 13.8135 1010.6 14.3468 1011.24 15.0401C1011.88 15.7335 1012.4 16.4935 1012.8 17.3201C1013.36 18.6268 1013.64 20.0535 1013.64 21.6001V22.3201C1013.64 22.9335 1013.57 23.5068 1013.44 24.0401C1013.14 25.6135 1012.29 27.1468 1010.88 28.6401C1009.46 30.1335 1007.68 30.8801 1005.52 30.8801C1004.77 30.8801 1004.05 30.7735 1003.36 30.5601C1002.66 30.3468 1001.92 29.9468 1001.12 29.3601C1000.32 28.7735 999.636 27.9868 999.076 27.0001C998.516 26.0135 998.036 24.7201 997.636 23.1201C997.236 21.5201 997.05 19.6401 997.076 17.4801ZM1005.68 14.1201C1004.88 14.1201 1004.18 14.3468 1003.6 14.8001C1003.01 15.2535 1002.56 15.8535 1002.24 16.6001C1001.92 17.3468 1001.69 18.1068 1001.56 18.8801C1001.42 19.6535 1001.34 20.4801 1001.32 21.3601C1001.32 23.5735 1001.48 25.1601 1001.8 26.1201C1002.12 27.0801 1002.62 27.8535 1003.32 28.4401C1003.96 28.9201 1004.66 29.1601 1005.44 29.1601C1006.8 29.1601 1007.84 28.6535 1008.56 27.6401C1008.9 27.1601 1009.14 26.5601 1009.28 25.8401C1009.41 25.1201 1009.48 23.7201 1009.48 21.6401C1009.48 19.5068 1009.41 18.0801 1009.28 17.3601C1009.14 16.6401 1008.9 16.0401 1008.56 15.5601C1007.84 14.6001 1006.88 14.1201 1005.68 14.1201Z" fill="white"/>
</g>
</g>
</g>
<g id="\Rightarrow\;(1+1+1)+(2+3)=3+5=8">
<g id="Group_22">
<g id="Group_23">
<path id="Vector_23" d="M362.96 85.4397C362.96 85.1464 363.173 84.9997 363.6 84.9997C363.733 84.9997 363.84 84.9997 363.92 84.9997C364 84.9997 364.067 84.9997 364.12 84.9997C364.173 84.9997 364.227 85.0131 364.28 85.0397C364.333 85.0664 364.36 85.0797 364.36 85.0797C364.36 85.0797 364.387 85.1197 364.44 85.1997C364.493 85.2797 364.52 85.3197 364.52 85.3197C364.52 85.3197 364.56 85.3864 364.64 85.5197C365.627 87.4931 366.933 89.2397 368.56 90.7597C370.187 92.2797 371.667 93.3597 373 93.9997C374.333 94.6397 375.613 95.1331 376.84 95.4797C377.293 95.6131 377.52 95.7864 377.52 95.9997C377.52 96.2131 377.4 96.3597 377.16 96.4397C376.92 96.5197 376.427 96.6664 375.68 96.8797C374.933 97.0931 374.16 97.4131 373.36 97.8397C369.52 99.7064 366.613 102.586 364.64 106.48C364.533 106.72 364.44 106.853 364.36 106.88C364.28 106.906 364.08 106.933 363.76 106.96C363.227 106.96 362.96 106.866 362.96 106.68C362.96 106.573 363.027 106.346 363.16 106C364.093 104.16 365.24 102.52 366.6 101.08L367 100.68H342.56C342.187 100.493 342 100.226 342 99.8797C342 99.4797 342.213 99.2131 342.64 99.0797H368.76L369.16 98.7597C370.2 97.9597 371.76 97.0397 373.84 95.9997C373.813 95.9731 373.573 95.8531 373.12 95.6397C372.667 95.4264 372.067 95.1064 371.32 94.6797C370.573 94.2531 369.853 93.7731 369.16 93.2397L368.76 92.9197H342.64C342.213 92.7864 342 92.5197 342 92.1197C342 91.7731 342.187 91.5064 342.56 91.3197H367L366.6 90.9197C365.72 89.9864 364.893 88.9064 364.12 87.6797C363.347 86.4531 362.96 85.7064 362.96 85.4397Z" fill="white"/>
</g>
<g id="Group_24">
<path id="Vector_24" d="M405.744 96C405.744 94.16 405.878 92.4133 406.144 90.76C406.411 89.1067 406.718 87.68 407.064 86.48C407.411 85.28 407.904 84.1067 408.544 82.96C409.184 81.8133 409.691 80.92 410.064 80.28C410.438 79.64 410.998 78.9467 411.744 78.2C412.491 77.4533 412.931 77 413.064 76.84C413.198 76.68 413.531 76.4 414.064 76H414.584H414.744C415.118 76 415.304 76.12 415.304 76.36C415.304 76.44 415.078 76.72 414.624 77.2C414.171 77.68 413.624 78.3867 412.984 79.32C412.344 80.2533 411.691 81.4 411.024 82.76C410.358 84.12 409.798 85.96 409.344 88.28C408.891 90.6 408.664 93.1733 408.664 96C408.664 98.8267 408.891 101.387 409.344 103.68C409.798 105.973 410.344 107.827 410.984 109.24C411.624 110.653 412.278 111.8 412.944 112.68C413.611 113.56 414.171 114.267 414.624 114.8C415.078 115.333 415.304 115.613 415.304 115.64C415.304 115.88 415.104 116 414.704 116H414.584H414.064L412.944 115.04C410.438 112.773 408.611 109.947 407.464 106.56C406.318 103.173 405.744 99.6533 405.744 96Z" fill="white"/>
</g>
<g id="Group_25">
<path id="Vector_25" d="M426.064 82.8798L425.544 83.0798C425.17 83.2131 424.637 83.3464 423.944 83.4798C423.25 83.6131 422.477 83.7064 421.624 83.7598H420.864V81.9198H421.624C422.877 81.8664 424.037 81.6664 425.104 81.3198C426.17 80.9731 426.917 80.6531 427.344 80.3598C427.77 80.0664 428.144 79.7731 428.464 79.4798C428.517 79.3998 428.677 79.3598 428.944 79.3598C429.184 79.3598 429.41 79.4398 429.624 79.5998V91.5598L429.664 103.56C429.85 103.746 430.01 103.866 430.144 103.92C430.277 103.973 430.597 104.026 431.104 104.08C431.61 104.133 432.437 104.16 433.584 104.16H434.624V106H434.184C433.624 105.92 431.504 105.88 427.824 105.88C424.197 105.88 422.104 105.92 421.544 106H421.064V104.16H422.104C422.69 104.16 423.197 104.16 423.624 104.16C424.05 104.16 424.384 104.146 424.624 104.12C424.864 104.093 425.077 104.053 425.264 104C425.45 103.946 425.557 103.92 425.584 103.92C425.61 103.92 425.69 103.853 425.824 103.72C425.957 103.586 426.037 103.533 426.064 103.56V82.8798Z" fill="white"/>
</g>
<g id="Group_26">
<path id="Vector_26" d="M448.672 96.52C448.672 96.52 448.672 96.3467 448.672 96C448.672 95.6534 448.858 95.3867 449.232 95.2H461.192V89.2L461.232 83.2C461.498 82.8534 461.752 82.68 461.992 82.68C462.338 82.68 462.605 82.88 462.792 83.28V95.2H474.712C475.112 95.4134 475.312 95.68 475.312 96C475.312 96.32 475.112 96.5867 474.712 96.8H462.792V108.72C462.578 109.093 462.338 109.28 462.072 109.28H461.992H461.912C461.592 109.28 461.352 109.093 461.192 108.72V96.8H449.232C448.858 96.6134 448.672 96.3467 448.672 96V96.52Z" fill="white"/>
</g>
<g id="Group_27">
<path id="Vector_27" d="M494.96 82.8798L494.44 83.0798C494.067 83.2131 493.533 83.3464 492.84 83.4798C492.147 83.6131 491.373 83.7064 490.52 83.7598H489.76V81.9198H490.52C491.773 81.8664 492.933 81.6664 494 81.3198C495.067 80.9731 495.813 80.6531 496.24 80.3598C496.667 80.0664 497.04 79.7731 497.36 79.4798C497.413 79.3998 497.573 79.3598 497.84 79.3598C498.08 79.3598 498.307 79.4398 498.52 79.5998V91.5598L498.56 103.56C498.747 103.746 498.907 103.866 499.04 103.92C499.173 103.973 499.493 104.026 500 104.08C500.507 104.133 501.333 104.16 502.48 104.16H503.52V106H503.08C502.52 105.92 500.4 105.88 496.72 105.88C493.093 105.88 491 105.92 490.44 106H489.96V104.16H491C491.587 104.16 492.093 104.16 492.52 104.16C492.947 104.16 493.28 104.146 493.52 104.12C493.76 104.093 493.973 104.053 494.16 104C494.347 103.946 494.453 103.92 494.48 103.92C494.507 103.92 494.587 103.853 494.72 103.72C494.853 103.586 494.933 103.533 494.96 103.56V82.8798Z" fill="white"/>
</g>
<g id="Group_28">
<path id="Vector_28" d="M517.568 96.52C517.568 96.52 517.568 96.3467 517.568 96C517.568 95.6534 517.754 95.3867 518.128 95.2H530.088V89.2L530.128 83.2C530.394 82.8534 530.648 82.68 530.888 82.68C531.234 82.68 531.501 82.88 531.688 83.28V95.2H543.608C544.008 95.4134 544.208 95.68 544.208 96C544.208 96.32 544.008 96.5867 543.608 96.8H531.688V108.72C531.474 109.093 531.234 109.28 530.968 109.28H530.888H530.808C530.488 109.28 530.248 109.093 530.088 108.72V96.8H518.128C517.754 96.6134 517.568 96.3467 517.568 96V96.52Z" fill="white"/>
</g>
<g id="Group_29">
<path id="Vector_29" d="M563.856 82.8798L563.336 83.0798C562.963 83.2131 562.429 83.3464 561.736 83.4798C561.043 83.6131 560.269 83.7064 559.416 83.7598H558.656V81.9198H559.416C560.669 81.8664 561.829 81.6664 562.896 81.3198C563.963 80.9731 564.709 80.6531 565.136 80.3598C565.563 80.0664 565.936 79.7731 566.256 79.4798C566.309 79.3998 566.469 79.3598 566.736 79.3598C566.976 79.3598 567.203 79.4398 567.416 79.5998V91.5598L567.456 103.56C567.643 103.746 567.803 103.866 567.936 103.92C568.069 103.973 568.389 104.026 568.896 104.08C569.403 104.133 570.229 104.16 571.376 104.16H572.416V106H571.976C571.416 105.92 569.296 105.88 565.616 105.88C561.989 105.88 559.896 105.92 559.336 106H558.856V104.16H559.896C560.483 104.16 560.989 104.16 561.416 104.16C561.843 104.16 562.176 104.146 562.416 104.12C562.656 104.093 562.869 104.053 563.056 104C563.243 103.946 563.349 103.92 563.376 103.92C563.403 103.92 563.483 103.853 563.616 103.72C563.749 103.586 563.829 103.533 563.856 103.56V82.8798Z" fill="white"/>
</g>
<g id="Group_30">
<path id="Vector_30" d="M577.736 76.04L577.896 76C578.029 76 578.163 76 578.296 76H578.776L579.896 76.96C582.403 79.2267 584.229 82.0533 585.376 85.44C586.523 88.8267 587.096 92.3467 587.096 96C587.096 97.8133 586.963 99.56 586.696 101.24C586.429 102.92 586.123 104.347 585.776 105.52C585.429 106.693 584.936 107.867 584.296 109.04C583.656 110.213 583.149 111.107 582.776 111.72C582.403 112.333 581.856 113.013 581.136 113.76C580.416 114.507 579.989 114.947 579.856 115.08C579.723 115.213 579.416 115.467 578.936 115.84C578.856 115.92 578.803 115.973 578.776 116H578.296C578.083 116 577.936 116 577.856 116C577.776 116 577.709 115.96 577.656 115.88C577.603 115.8 577.563 115.68 577.536 115.52C577.563 115.493 577.709 115.32 577.976 115C582.109 110.707 584.176 104.373 584.176 96C584.176 87.6267 582.109 81.2933 577.976 77C577.709 76.68 577.563 76.5067 577.536 76.48C577.536 76.2667 577.603 76.12 577.736 76.04Z" fill="white"/>
</g>
<g id="Group_31">
<path id="Vector_31" d="M602.028 96.52C602.028 96.52 602.028 96.3467 602.028 96C602.028 95.6534 602.215 95.3867 602.588 95.2H614.548V89.2L614.588 83.2C614.855 82.8534 615.108 82.68 615.348 82.68C615.695 82.68 615.961 82.88 616.148 83.28V95.2H628.068C628.468 95.4134 628.668 95.68 628.668 96C628.668 96.32 628.468 96.5867 628.068 96.8H616.148V108.72C615.935 109.093 615.695 109.28 615.428 109.28H615.348H615.268C614.948 109.28 614.708 109.093 614.548 108.72V96.8H602.588C602.215 96.6134 602.028 96.3467 602.028 96V96.52Z" fill="white"/>
</g>
<g id="Group_32">
<path id="Vector_32" d="M643.556 96C643.556 94.16 643.689 92.4133 643.956 90.76C644.223 89.1067 644.529 87.68 644.876 86.48C645.223 85.28 645.716 84.1067 646.356 82.96C646.996 81.8133 647.503 80.92 647.876 80.28C648.249 79.64 648.809 78.9467 649.556 78.2C650.303 77.4533 650.743 77 650.876 76.84C651.009 76.68 651.343 76.4 651.876 76H652.396H652.556C652.929 76 653.116 76.12 653.116 76.36C653.116 76.44 652.889 76.72 652.436 77.2C651.983 77.68 651.436 78.3867 650.796 79.32C650.156 80.2533 649.503 81.4 648.836 82.76C648.169 84.12 647.609 85.96 647.156 88.28C646.703 90.6 646.476 93.1733 646.476 96C646.476 98.8267 646.703 101.387 647.156 103.68C647.609 105.973 648.156 107.827 648.796 109.24C649.436 110.653 650.089 111.8 650.756 112.68C651.423 113.56 651.983 114.267 652.436 114.8C652.889 115.333 653.116 115.613 653.116 115.64C653.116 115.88 652.916 116 652.516 116H652.396H651.876L650.756 115.04C648.249 112.773 646.423 109.947 645.276 106.56C644.129 103.173 643.556 99.6533 643.556 96Z" fill="white"/>
</g>
<g id="Group_33">
<path id="Vector_33" d="M659.716 88.8398C658.996 88.8398 658.423 88.5998 657.996 88.1198C657.569 87.6398 657.356 87.0531 657.356 86.3598C657.356 84.4664 658.063 82.8264 659.476 81.4398C660.889 80.0531 662.649 79.3598 664.756 79.3598C667.183 79.3598 669.209 80.1064 670.836 81.5998C672.463 83.0931 673.289 85.0264 673.316 87.3998C673.316 88.5464 673.049 89.6398 672.516 90.6798C671.983 91.7198 671.343 92.6264 670.596 93.3998C669.849 94.1731 668.783 95.1598 667.396 96.3598C666.436 97.1864 665.103 98.4131 663.396 100.04L661.036 102.28L664.076 102.32C668.263 102.32 670.489 102.253 670.756 102.12C670.943 102.066 671.263 100.88 671.716 98.5598V98.4398H673.316V98.5598C673.289 98.6398 673.116 99.8531 672.796 102.2C672.476 104.546 672.276 105.773 672.196 105.88V106H657.356V105.24V104.76C657.356 104.573 657.436 104.373 657.596 104.16C657.756 103.946 658.156 103.48 658.796 102.76C659.569 101.906 660.236 101.16 660.796 100.52C661.036 100.253 661.489 99.7598 662.156 99.0398C662.823 98.3198 663.276 97.8264 663.516 97.5598C663.756 97.2931 664.143 96.8531 664.676 96.2398C665.209 95.6264 665.583 95.1731 665.796 94.8798C666.009 94.5864 666.316 94.1864 666.716 93.6798C667.116 93.1731 667.396 92.7464 667.556 92.3998C667.716 92.0531 667.916 91.6664 668.156 91.2398C668.396 90.8131 668.569 90.3864 668.676 89.9598C668.783 89.5331 668.876 89.1331 668.956 88.7598C669.036 88.3864 669.076 87.9464 669.076 87.4398C669.076 85.7598 668.623 84.3064 667.716 83.0798C666.809 81.8531 665.516 81.2398 663.836 81.2398C662.956 81.2398 662.183 81.4664 661.516 81.9198C660.849 82.3731 660.383 82.8131 660.116 83.2398C659.849 83.6664 659.716 83.9198 659.716 83.9998C659.716 84.0264 659.783 84.0398 659.916 84.0398C660.396 84.0398 660.889 84.2264 661.396 84.5998C661.903 84.9731 662.156 85.5864 662.156 86.4398C662.156 87.1064 661.943 87.6664 661.516 88.1198C661.089 88.5731 660.489 88.8131 659.716 88.8398Z" fill="white"/>
</g>
<g id="Group_34">
<path id="Vector_34" d="M686.484 96.52C686.484 96.52 686.484 96.3467 686.484 96C686.484 95.6534 686.671 95.3867 687.044 95.2H699.004V89.2L699.044 83.2C699.311 82.8534 699.564 82.68 699.804 82.68C700.151 82.68 700.417 82.88 700.604 83.28V95.2H712.524C712.924 95.4134 713.124 95.68 713.124 96C713.124 96.32 712.924 96.5867 712.524 96.8H700.604V108.72C700.391 109.093 700.151 109.28 699.884 109.28H699.804H699.724C699.404 109.28 699.164 109.093 699.004 108.72V96.8H687.044C686.671 96.6134 686.484 96.3467 686.484 96V96.52Z" fill="white"/>
</g>
<g id="Group_35">
<path id="Vector_35" d="M729.332 87.4804C728.612 87.4804 728.052 87.2537 727.652 86.8004C727.252 86.347 727.039 85.7604 727.012 85.0404C727.012 83.5737 727.652 82.267 728.932 81.1204C730.212 79.9737 731.759 79.4004 733.572 79.4004C734.505 79.4004 735.092 79.4137 735.332 79.4404C737.305 79.7604 738.812 80.467 739.852 81.5604C740.892 82.6537 741.425 83.8404 741.452 85.1204C741.452 86.507 740.999 87.8537 740.092 89.1604C739.185 90.467 737.932 91.4137 736.332 92.0004L736.212 92.0804C736.212 92.107 736.332 92.147 736.572 92.2004C736.812 92.2537 737.199 92.3737 737.732 92.5604C738.265 92.747 738.772 93.027 739.252 93.4004C741.439 94.8137 742.532 96.6804 742.532 99.0004C742.532 101.107 741.705 102.947 740.052 104.52C738.399 106.094 736.305 106.88 733.772 106.88C731.639 106.88 729.799 106.307 728.252 105.16C726.705 104.014 725.932 102.56 725.932 100.8C725.932 100.054 726.172 99.4537 726.652 99.0004C727.132 98.547 727.732 98.307 728.452 98.2804C729.199 98.2804 729.812 98.5204 730.292 99.0004C730.772 99.4804 731.012 100.08 731.012 100.8C731.012 101.094 730.972 101.36 730.892 101.6C730.812 101.84 730.719 102.054 730.612 102.24C730.505 102.427 730.359 102.587 730.172 102.72C729.985 102.854 729.825 102.96 729.692 103.04C729.559 103.12 729.425 103.174 729.292 103.2C729.159 103.227 729.052 103.267 728.972 103.32L728.812 103.36C730.172 104.56 731.825 105.16 733.772 105.16C735.239 105.16 736.345 104.454 737.092 103.04C737.545 102.16 737.772 100.814 737.772 99.0004V98.2004C737.772 95.667 736.919 93.9737 735.212 93.1204C734.812 92.9604 733.999 92.867 732.772 92.8404L731.092 92.8004L730.972 92.7204C730.919 92.6404 730.892 92.427 730.892 92.0804C730.892 91.6004 730.999 91.3604 731.212 91.3604C731.959 91.3604 732.732 91.2937 733.532 91.1604C734.439 91.027 735.265 90.467 736.012 89.4804C736.759 88.4937 737.132 87.0004 737.132 85.0004V84.6804C737.132 83.1604 736.665 82.107 735.732 81.5204C735.145 81.147 734.519 80.9604 733.852 80.9604C732.999 80.9604 732.212 81.107 731.492 81.4004C730.772 81.6937 730.265 82.0004 729.972 82.3204C729.679 82.6404 729.532 82.8004 729.532 82.8004H729.652C729.732 82.827 729.839 82.8537 729.972 82.8804C730.105 82.907 730.239 82.9737 730.372 83.0804C730.505 83.187 730.665 83.2804 730.852 83.3604C731.039 83.4404 731.172 83.587 731.252 83.8004C731.332 84.0137 731.439 84.2137 731.572 84.4004C731.705 84.587 731.745 84.8537 731.692 85.2004C731.692 85.787 731.505 86.307 731.132 86.7604C730.759 87.2137 730.159 87.4537 729.332 87.4804Z" fill="white"/>
</g>
<g id="Group_36">
<path id="Vector_36" d="M746.652 76.04L746.812 76C746.946 76 747.079 76 747.212 76H747.692L748.812 76.96C751.319 79.2267 753.146 82.0533 754.292 85.44C755.439 88.8267 756.012 92.3467 756.012 96C756.012 97.8133 755.879 99.56 755.612 101.24C755.346 102.92 755.039 104.347 754.692 105.52C754.346 106.693 753.852 107.867 753.212 109.04C752.572 110.213 752.066 111.107 751.692 111.72C751.319 112.333 750.772 113.013 750.052 113.76C749.332 114.507 748.906 114.947 748.772 115.08C748.639 115.213 748.332 115.467 747.852 115.84C747.772 115.92 747.719 115.973 747.692 116H747.212C746.999 116 746.852 116 746.772 116C746.692 116 746.626 115.96 746.572 115.88C746.519 115.8 746.479 115.68 746.452 115.52C746.479 115.493 746.626 115.32 746.892 115C751.026 110.707 753.092 104.373 753.092 96C753.092 87.6267 751.026 81.2933 746.892 77C746.626 76.68 746.479 76.5067 746.452 76.48C746.452 76.2667 746.519 76.12 746.652 76.04Z" fill="white"/>
</g>
<g id="Group_37">
<path id="Vector_37" d="M773.164 92.1199C773.164 91.7733 773.35 91.5066 773.724 91.3199H799.204C799.604 91.5333 799.804 91.7999 799.804 92.1199C799.804 92.4133 799.617 92.6666 799.244 92.8799L786.524 92.9199H773.804C773.377 92.7866 773.164 92.5199 773.164 92.1199ZM773.164 99.8799C773.164 99.4799 773.377 99.2133 773.804 99.0799H799.244C799.617 99.3466 799.804 99.6133 799.804 99.8799C799.804 100.227 799.604 100.493 799.204 100.68H773.724C773.35 100.493 773.164 100.227 773.164 99.8799Z" fill="white"/>
</g>
<g id="Group_38">
<path id="Vector_38" d="M818.236 87.4804C817.516 87.4804 816.956 87.2537 816.556 86.8004C816.156 86.347 815.943 85.7604 815.916 85.0404C815.916 83.5737 816.556 82.267 817.836 81.1204C819.116 79.9737 820.663 79.4004 822.476 79.4004C823.41 79.4004 823.996 79.4137 824.236 79.4404C826.21 79.7604 827.716 80.467 828.756 81.5604C829.796 82.6537 830.33 83.8404 830.356 85.1204C830.356 86.507 829.903 87.8537 828.996 89.1604C828.09 90.467 826.836 91.4137 825.236 92.0004L825.116 92.0804C825.116 92.107 825.236 92.147 825.476 92.2004C825.716 92.2537 826.103 92.3737 826.636 92.5604C827.17 92.747 827.676 93.027 828.156 93.4004C830.343 94.8137 831.436 96.6804 831.436 99.0004C831.436 101.107 830.61 102.947 828.956 104.52C827.303 106.094 825.21 106.88 822.676 106.88C820.543 106.88 818.703 106.307 817.156 105.16C815.61 104.014 814.836 102.56 814.836 100.8C814.836 100.054 815.076 99.4537 815.556 99.0004C816.036 98.547 816.636 98.307 817.356 98.2804C818.103 98.2804 818.716 98.5204 819.196 99.0004C819.676 99.4804 819.916 100.08 819.916 100.8C819.916 101.094 819.876 101.36 819.796 101.6C819.716 101.84 819.623 102.054 819.516 102.24C819.41 102.427 819.263 102.587 819.076 102.72C818.89 102.854 818.73 102.96 818.596 103.04C818.463 103.12 818.33 103.174 818.196 103.2C818.063 103.227 817.956 103.267 817.876 103.32L817.716 103.36C819.076 104.56 820.73 105.16 822.676 105.16C824.143 105.16 825.25 104.454 825.996 103.04C826.45 102.16 826.676 100.814 826.676 99.0004V98.2004C826.676 95.667 825.823 93.9737 824.116 93.1204C823.716 92.9604 822.903 92.867 821.676 92.8404L819.996 92.8004L819.876 92.7204C819.823 92.6404 819.796 92.427 819.796 92.0804C819.796 91.6004 819.903 91.3604 820.116 91.3604C820.863 91.3604 821.636 91.2937 822.436 91.1604C823.343 91.027 824.17 90.467 824.916 89.4804C825.663 88.4937 826.036 87.0004 826.036 85.0004V84.6804C826.036 83.1604 825.57 82.107 824.636 81.5204C824.05 81.147 823.423 80.9604 822.756 80.9604C821.903 80.9604 821.116 81.107 820.396 81.4004C819.676 81.6937 819.17 82.0004 818.876 82.3204C818.583 82.6404 818.436 82.8004 818.436 82.8004H818.556C818.636 82.827 818.743 82.8537 818.876 82.8804C819.01 82.907 819.143 82.9737 819.276 83.0804C819.41 83.187 819.57 83.2804 819.756 83.3604C819.943 83.4404 820.076 83.587 820.156 83.8004C820.236 84.0137 820.343 84.2137 820.476 84.4004C820.61 84.587 820.65 84.8537 820.596 85.2004C820.596 85.787 820.41 86.307 820.036 86.7604C819.663 87.2137 819.063 87.4537 818.236 87.4804Z" fill="white"/>
</g>
<g id="Group_39">
<path id="Vector_39" d="M844.284 96.52C844.284 96.52 844.284 96.3467 844.284 96C844.284 95.6534 844.471 95.3867 844.844 95.2H856.804V89.2L856.844 83.2C857.111 82.8534 857.364 82.68 857.604 82.68C857.951 82.68 858.218 82.88 858.404 83.28V95.2H870.324C870.724 95.4134 870.924 95.68 870.924 96C870.924 96.32 870.724 96.5867 870.324 96.8H858.404V108.72C858.191 109.093 857.951 109.28 857.684 109.28H857.604H857.524C857.204 109.28 856.964 109.093 856.804 108.72V96.8H844.844C844.471 96.6134 844.284 96.3467 844.284 96V96.52Z" fill="white"/>
</g>
<g id="Group_40">
<path id="Vector_40" d="M888.612 99.7204C888.612 100.36 888.399 100.894 887.972 101.32C887.546 101.747 887.026 101.96 886.412 101.96H886.132C887.359 104.067 888.986 105.12 891.012 105.12C892.879 105.12 894.239 104.32 895.092 102.72C895.599 101.84 895.852 100.134 895.852 97.6004C895.852 94.8537 895.492 93.0004 894.772 92.0404C894.079 91.1604 893.306 90.7204 892.452 90.7204H892.212C890.132 90.7204 888.559 91.627 887.492 93.4404C887.386 93.627 887.292 93.7337 887.212 93.7604C887.132 93.787 886.932 93.8137 886.612 93.8404C886.159 93.8404 885.906 93.7604 885.852 93.6004C885.799 93.4937 885.772 91.1604 885.772 86.6004V81.4404C885.772 80.107 885.839 79.4404 885.972 79.4404C886.026 79.387 886.079 79.3604 886.132 79.3604C886.159 79.3604 886.439 79.467 886.972 79.6804C887.506 79.8937 888.239 80.107 889.172 80.3204C890.106 80.5337 891.106 80.6404 892.172 80.6404C894.066 80.6404 895.879 80.267 897.612 79.5204C897.826 79.4137 897.999 79.3604 898.132 79.3604C898.346 79.3604 898.452 79.6004 898.452 80.0804V80.6004C896.266 83.187 893.532 84.4804 890.252 84.4804C889.426 84.4804 888.679 84.4004 888.012 84.2404L887.612 84.1604V91.0404C888.119 90.667 888.519 90.3737 888.812 90.1604C889.106 89.947 889.586 89.7337 890.252 89.5204C890.919 89.307 891.599 89.2004 892.292 89.2004C894.452 89.2004 896.279 90.067 897.772 91.8004C899.266 93.5337 900.012 95.587 900.012 97.9604C900.012 100.414 899.159 102.507 897.452 104.24C895.746 105.974 893.666 106.854 891.212 106.88C889.052 106.88 887.319 106.16 886.012 104.72C884.706 103.28 884.052 101.654 884.052 99.8404C884.052 99.2004 884.199 98.6937 884.492 98.3204C884.786 97.947 885.092 97.707 885.412 97.6004C885.732 97.4937 886.039 97.4404 886.332 97.4404C886.999 97.4404 887.546 97.667 887.972 98.1204C888.399 98.5737 888.612 99.107 888.612 99.7204Z" fill="white"/>
</g>
<g id="Group_41">
<path id="Vector_41" d="M915.404 92.1199C915.404 91.7733 915.591 91.5066 915.964 91.3199H941.444C941.844 91.5333 942.044 91.7999 942.044 92.1199C942.044 92.4133 941.857 92.6666 941.484 92.8799L928.764 92.9199H916.044C915.617 92.7866 915.404 92.5199 915.404 92.1199ZM915.404 99.8799C915.404 99.4799 915.617 99.2133 916.044 99.0799H941.484C941.857 99.3466 942.044 99.6133 942.044 99.8799C942.044 100.227 941.844 100.493 941.444 100.68H915.964C915.591 100.493 915.404 100.227 915.404 99.8799Z" fill="white"/>
</g>
<g id="Group_42">
<path id="Vector_42" d="M958.196 89.3204C958.196 89.3204 958.196 88.2937 958.196 86.2404C958.196 84.187 958.916 82.5337 960.356 81.2804C961.796 80.027 963.45 79.387 965.316 79.3604C967.21 79.3604 968.89 79.9204 970.356 81.0404C971.823 82.1604 972.556 83.6137 972.556 85.4004C972.556 86.2004 972.41 86.947 972.116 87.6404C971.823 88.3337 971.476 88.8937 971.076 89.3204C970.676 89.747 970.263 90.1204 969.836 90.4404C969.41 90.7604 969.063 91.0004 968.796 91.1604C968.53 91.3204 968.383 91.427 968.356 91.4804L968.916 91.8404C969.29 92.107 969.663 92.3737 970.036 92.6404C970.41 92.907 970.623 93.0537 970.676 93.0804C972.676 94.6537 973.676 96.6404 973.676 99.0404C973.676 101.147 972.903 102.974 971.356 104.52C969.81 106.067 967.81 106.854 965.356 106.88C962.956 106.88 960.983 106.2 959.436 104.84C957.89 103.48 957.116 101.8 957.116 99.8004C957.116 96.9204 958.836 94.5204 962.276 92.6004L961.556 92.0804C960.996 91.7337 960.636 91.467 960.476 91.2804C958.956 89.9737 958.196 88.2937 958.196 86.2404V89.3204ZM966.836 90.5604L967.076 90.4004C967.236 90.2937 967.356 90.2137 967.436 90.1604C967.516 90.107 967.65 90.0137 967.836 89.8804C968.023 89.747 968.183 89.6137 968.316 89.4804C968.45 89.347 968.596 89.187 968.756 89.0004C968.916 88.8137 969.063 88.6404 969.196 88.4804C969.33 88.3204 969.463 88.107 969.596 87.8404C969.73 87.5737 969.85 87.347 969.956 87.1604C970.063 86.9737 970.13 86.707 970.156 86.3604C970.183 86.0137 970.21 85.7204 970.236 85.4804C970.236 84.3337 969.85 83.3604 969.076 82.5604C968.303 81.7604 967.41 81.2537 966.396 81.0404C966.21 81.0137 965.77 81.0004 965.076 81.0004C963.983 81.0004 962.956 81.347 961.996 82.0404C961.036 82.7337 960.543 83.6004 960.516 84.6404C960.516 85.2537 960.69 85.8137 961.036 86.3204C961.383 86.827 961.73 87.2137 962.076 87.4804C962.423 87.747 963.09 88.1737 964.076 88.7604C964.263 88.8937 964.41 88.987 964.516 89.0404L966.836 90.5604ZM965.396 105.16C966.943 105.16 968.276 104.707 969.396 103.8C970.516 102.894 971.076 101.8 971.076 100.52C971.076 100.067 971.01 99.6404 970.876 99.2404C970.743 98.8404 970.583 98.507 970.396 98.2404C970.21 97.9737 969.916 97.6804 969.516 97.3604C969.116 97.0404 968.81 96.8004 968.596 96.6404C968.383 96.4804 967.996 96.227 967.436 95.8804C966.876 95.5337 966.516 95.307 966.356 95.2004C965.983 94.9604 965.583 94.707 965.156 94.4404C964.73 94.1737 964.383 93.947 964.116 93.7604L963.796 93.5604C963.636 93.5604 963.25 93.787 962.636 94.2404C962.023 94.6937 961.383 95.427 960.716 96.4404C960.05 97.4537 959.703 98.547 959.676 99.7204C959.676 101.294 960.25 102.587 961.396 103.6C962.543 104.614 963.876 105.134 965.396 105.16Z" fill="white"/>
</g>
</g>
</g>
<g id="\Rightarrow\;x=(3+7)+(7+3) \;&#10;\therefore\;x=10+10=20">
<g id="Group_43">
<g id="Group 35">
<g id="Group_44">
<path id="Vector_43" d="M453.96 171.44C453.96 171.147 454.173 171 454.6 171C454.733 171 454.84 171 454.92 171C455 171 455.067 171 455.12 171C455.173 171 455.227 171.014 455.28 171.04C455.333 171.067 455.36 171.08 455.36 171.08C455.36 171.08 455.387 171.12 455.44 171.2C455.493 171.28 455.52 171.32 455.52 171.32C455.52 171.32 455.56 171.387 455.64 171.52C456.627 173.494 457.933 175.24 459.56 176.76C461.187 178.28 462.667 179.36 464 180C465.333 180.64 466.613 181.134 467.84 181.48C468.293 181.614 468.52 181.787 468.52 182C468.52 182.214 468.4 182.36 468.16 182.44C467.92 182.52 467.427 182.667 466.68 182.88C465.933 183.094 465.16 183.414 464.36 183.84C460.52 185.707 457.613 188.587 455.64 192.48C455.533 192.72 455.44 192.854 455.36 192.88C455.28 192.907 455.08 192.934 454.76 192.96C454.227 192.96 453.96 192.867 453.96 192.68C453.96 192.574 454.027 192.347 454.16 192C455.093 190.16 456.24 188.52 457.6 187.08L458 186.68H433.56C433.187 186.494 433 186.227 433 185.88C433 185.48 433.213 185.214 433.64 185.08H459.76L460.16 184.76C461.2 183.96 462.76 183.04 464.84 182C464.813 181.974 464.573 181.854 464.12 181.64C463.667 181.427 463.067 181.107 462.32 180.68C461.573 180.254 460.853 179.774 460.16 179.24L459.76 178.92H433.64C433.213 178.787 433 178.52 433 178.12C433 177.774 433.187 177.507 433.56 177.32H458L457.6 176.92C456.72 175.987 455.893 174.907 455.12 173.68C454.347 172.454 453.96 171.707 453.96 171.44Z" fill="white"/>
</g>
<g id="Group_45">
<path id="Vector_44" d="M495.064 180.44C495.25 179.32 495.97 178.027 497.224 176.56C498.477 175.094 500.024 174.347 501.864 174.32C502.797 174.32 503.65 174.56 504.424 175.04C505.197 175.52 505.77 176.12 506.144 176.84C507.264 175.16 508.61 174.32 510.184 174.32C511.17 174.32 512.024 174.614 512.744 175.2C513.464 175.787 513.837 176.574 513.864 177.56C513.864 178.334 513.677 178.96 513.304 179.44C512.93 179.92 512.57 180.214 512.224 180.32C511.877 180.427 511.57 180.48 511.304 180.48C510.797 180.48 510.384 180.334 510.064 180.04C509.744 179.747 509.584 179.36 509.584 178.88C509.584 177.654 510.25 176.814 511.584 176.36C511.29 176.014 510.757 175.84 509.984 175.84C509.637 175.84 509.384 175.867 509.224 175.92C508.21 176.347 507.464 177.227 506.984 178.56C505.384 184.454 504.584 187.894 504.584 188.88C504.584 189.627 504.797 190.16 505.224 190.48C505.65 190.8 506.117 190.96 506.624 190.96C507.61 190.96 508.584 190.52 509.544 189.64C510.504 188.76 511.157 187.68 511.504 186.4C511.584 186.134 511.664 185.987 511.744 185.96C511.824 185.934 512.037 185.907 512.384 185.88H512.544C512.944 185.88 513.144 185.987 513.144 186.2C513.144 186.227 513.117 186.374 513.064 186.64C512.637 188.16 511.81 189.507 510.584 190.68C509.357 191.854 507.93 192.44 506.304 192.44C504.437 192.44 503.024 191.6 502.064 189.92C500.97 191.574 499.717 192.4 498.304 192.4H498.064C496.757 192.4 495.824 192.054 495.264 191.36C494.704 190.667 494.41 189.934 494.384 189.16C494.384 188.307 494.637 187.614 495.144 187.08C495.65 186.547 496.25 186.28 496.944 186.28C498.09 186.28 498.664 186.84 498.664 187.96C498.664 188.494 498.504 188.96 498.184 189.36C497.864 189.76 497.557 190.027 497.264 190.16C496.97 190.294 496.797 190.36 496.744 190.36L496.624 190.4C496.624 190.427 496.704 190.48 496.864 190.56C497.024 190.64 497.237 190.734 497.504 190.84C497.77 190.947 498.024 190.987 498.264 190.96C499.224 190.96 500.05 190.36 500.744 189.16C500.984 188.734 501.29 187.827 501.664 186.44C502.037 185.054 502.41 183.614 502.784 182.12C503.157 180.627 503.37 179.747 503.424 179.48C503.557 178.76 503.624 178.24 503.624 177.92C503.624 177.174 503.424 176.64 503.024 176.32C502.624 176 502.17 175.84 501.664 175.84C500.597 175.84 499.597 176.267 498.664 177.12C497.73 177.974 497.077 179.067 496.704 180.4C496.65 180.64 496.584 180.774 496.504 180.8C496.424 180.827 496.21 180.854 495.864 180.88H495.304C495.144 180.72 495.064 180.574 495.064 180.44Z" fill="white"/>
</g>
<g id="Group_46">
<path id="Vector_45" d="M529.212 178.12C529.212 177.773 529.398 177.506 529.772 177.32H555.252C555.652 177.533 555.852 177.8 555.852 178.12C555.852 178.413 555.665 178.666 555.292 178.88L542.572 178.92H529.852C529.425 178.786 529.212 178.52 529.212 178.12ZM529.212 185.88C529.212 185.48 529.425 185.213 529.852 185.08H555.292C555.665 185.346 555.852 185.613 555.852 185.88C555.852 186.226 555.652 186.493 555.252 186.68H529.772C529.398 186.493 529.212 186.226 529.212 185.88Z" fill="white"/>
</g>
<g id="Group_47">
<path id="Vector_46" d="M572.964 182C572.964 180.16 573.098 178.413 573.364 176.76C573.631 175.107 573.938 173.68 574.284 172.48C574.631 171.28 575.124 170.107 575.764 168.96C576.404 167.813 576.911 166.92 577.284 166.28C577.658 165.64 578.218 164.947 578.964 164.2C579.711 163.453 580.151 163 580.284 162.84C580.418 162.68 580.751 162.4 581.284 162H581.804H581.964C582.338 162 582.524 162.12 582.524 162.36C582.524 162.44 582.298 162.72 581.844 163.2C581.391 163.68 580.844 164.387 580.204 165.32C579.564 166.253 578.911 167.4 578.244 168.76C577.578 170.12 577.018 171.96 576.564 174.28C576.111 176.6 575.884 179.173 575.884 182C575.884 184.827 576.111 187.387 576.564 189.68C577.018 191.973 577.564 193.827 578.204 195.24C578.844 196.653 579.498 197.8 580.164 198.68C580.831 199.56 581.391 200.267 581.844 200.8C582.298 201.333 582.524 201.613 582.524 201.64C582.524 201.88 582.324 202 581.924 202H581.804H581.284L580.164 201.04C577.658 198.773 575.831 195.947 574.684 192.56C573.538 189.173 572.964 185.653 572.964 182Z" fill="white"/>
</g>
<g id="Group_48">
<path id="Vector_47" d="M589.844 173.48C589.124 173.48 588.564 173.253 588.164 172.8C587.764 172.347 587.551 171.76 587.524 171.04C587.524 169.573 588.164 168.267 589.444 167.12C590.724 165.973 592.271 165.4 594.084 165.4C595.017 165.4 595.604 165.413 595.844 165.44C597.817 165.76 599.324 166.467 600.364 167.56C601.404 168.653 601.937 169.84 601.964 171.12C601.964 172.507 601.511 173.853 600.604 175.16C599.697 176.467 598.444 177.413 596.844 178L596.724 178.08C596.724 178.107 596.844 178.147 597.084 178.2C597.324 178.253 597.711 178.373 598.244 178.56C598.777 178.747 599.284 179.027 599.764 179.4C601.951 180.813 603.044 182.68 603.044 185C603.044 187.107 602.217 188.947 600.564 190.52C598.911 192.093 596.817 192.88 594.284 192.88C592.151 192.88 590.311 192.307 588.764 191.16C587.217 190.013 586.444 188.56 586.444 186.8C586.444 186.053 586.684 185.453 587.164 185C587.644 184.547 588.244 184.307 588.964 184.28C589.711 184.28 590.324 184.52 590.804 185C591.284 185.48 591.524 186.08 591.524 186.8C591.524 187.093 591.484 187.36 591.404 187.6C591.324 187.84 591.231 188.053 591.124 188.24C591.017 188.427 590.871 188.587 590.684 188.72C590.497 188.853 590.337 188.96 590.204 189.04C590.071 189.12 589.937 189.173 589.804 189.2C589.671 189.227 589.564 189.267 589.484 189.32L589.324 189.36C590.684 190.56 592.337 191.16 594.284 191.16C595.751 191.16 596.857 190.453 597.604 189.04C598.057 188.16 598.284 186.813 598.284 185V184.2C598.284 181.667 597.431 179.973 595.724 179.12C595.324 178.96 594.511 178.867 593.284 178.84L591.604 178.8L591.484 178.72C591.431 178.64 591.404 178.427 591.404 178.08C591.404 177.6 591.511 177.36 591.724 177.36C592.471 177.36 593.244 177.293 594.044 177.16C594.951 177.027 595.777 176.467 596.524 175.48C597.271 174.493 597.644 173 597.644 171V170.68C597.644 169.16 597.177 168.107 596.244 167.52C595.657 167.147 595.031 166.96 594.364 166.96C593.511 166.96 592.724 167.107 592.004 167.4C591.284 167.693 590.777 168 590.484 168.32C590.191 168.64 590.044 168.8 590.044 168.8H590.164C590.244 168.827 590.351 168.853 590.484 168.88C590.617 168.907 590.751 168.973 590.884 169.08C591.017 169.187 591.177 169.28 591.364 169.36C591.551 169.44 591.684 169.587 591.764 169.8C591.844 170.013 591.951 170.213 592.084 170.4C592.217 170.587 592.257 170.853 592.204 171.2C592.204 171.787 592.017 172.307 591.644 172.76C591.271 173.213 590.671 173.453 589.844 173.48Z" fill="white"/>
</g>
<g id="Group_49">
<path id="Vector_48" d="M615.892 182.52C615.892 182.52 615.892 182.347 615.892 182C615.892 181.653 616.079 181.387 616.452 181.2H628.412V175.2L628.452 169.2C628.719 168.853 628.972 168.68 629.212 168.68C629.559 168.68 629.825 168.88 630.012 169.28V181.2H641.932C642.332 181.413 642.532 181.68 642.532 182C642.532 182.32 642.332 182.587 641.932 182.8H630.012V194.72C629.799 195.093 629.559 195.28 629.292 195.28H629.212H629.132C628.812 195.28 628.572 195.093 628.412 194.72V182.8H616.452C616.079 182.613 615.892 182.347 615.892 182V182.52Z" fill="white"/>
</g>
<g id="Group_50">
<path id="Vector_49" d="M655.864 173.68C655.89 173.627 656.117 172.173 656.544 169.32L657.184 165.04C657.184 164.987 657.45 164.96 657.984 164.96H658.784V165.12C658.784 165.387 658.984 165.613 659.384 165.8C659.784 165.987 660.477 166.107 661.464 166.16C662.45 166.213 664.704 166.24 668.224 166.24H673.064V167.8L670.344 171.52C670.104 171.84 669.704 172.373 669.144 173.12C668.584 173.867 668.224 174.36 668.064 174.6C667.904 174.84 667.624 175.267 667.224 175.88C666.824 176.493 666.557 176.973 666.424 177.32C666.29 177.667 666.104 178.16 665.864 178.8C665.624 179.44 665.45 180.053 665.344 180.64C665.237 181.227 665.13 181.947 665.024 182.8C664.917 183.653 664.837 184.56 664.784 185.52C664.73 186.48 664.69 187.573 664.664 188.8C664.664 189.173 664.664 189.547 664.664 189.92C664.664 190.293 664.65 190.613 664.624 190.88V191.24C664.517 191.693 664.264 192.08 663.864 192.4C663.464 192.72 663.01 192.88 662.504 192.88C662.21 192.88 661.93 192.84 661.664 192.76C661.397 192.68 661.117 192.427 660.824 192C660.53 191.573 660.384 191.04 660.384 190.4C660.384 186.187 661.677 181.813 664.264 177.28C664.797 176.427 665.917 174.813 667.624 172.44L669.464 169.92H665.744C661.104 169.92 658.664 170 658.424 170.16C658.264 170.24 658.117 170.56 657.984 171.12C657.85 171.68 657.717 172.253 657.584 172.84L657.464 173.68V173.8H655.864V173.68Z" fill="white"/>
</g>
<g id="Group_51">
<path id="Vector_50" d="M676.064 162.04L676.224 162C676.358 162 676.491 162 676.624 162H677.104L678.224 162.96C680.731 165.227 682.558 168.053 683.704 171.44C684.851 174.827 685.424 178.347 685.424 182C685.424 183.813 685.291 185.56 685.024 187.24C684.758 188.92 684.451 190.347 684.104 191.52C683.758 192.693 683.264 193.867 682.624 195.04C681.984 196.213 681.478 197.107 681.104 197.72C680.731 198.333 680.184 199.013 679.464 199.76C678.744 200.507 678.318 200.947 678.184 201.08C678.051 201.213 677.744 201.467 677.264 201.84C677.184 201.92 677.131 201.973 677.104 202H676.624C676.411 202 676.264 202 676.184 202C676.104 202 676.038 201.96 675.984 201.88C675.931 201.8 675.891 201.68 675.864 201.52C675.891 201.493 676.038 201.32 676.304 201C680.438 196.707 682.504 190.373 682.504 182C682.504 173.627 680.438 167.293 676.304 163C676.038 162.68 675.891 162.507 675.864 162.48C675.864 162.267 675.931 162.12 676.064 162.04Z" fill="white"/>
</g>
<g id="Group_52">
<path id="Vector_51" d="M700.352 182.52C700.352 182.52 700.352 182.347 700.352 182C700.352 181.653 700.539 181.387 700.912 181.2H712.872V175.2L712.912 169.2C713.179 168.853 713.432 168.68 713.672 168.68C714.019 168.68 714.285 168.88 714.472 169.28V181.2H726.392C726.792 181.413 726.992 181.68 726.992 182C726.992 182.32 726.792 182.587 726.392 182.8H714.472V194.72C714.259 195.093 714.019 195.28 713.752 195.28H713.672H713.592C713.272 195.28 713.032 195.093 712.872 194.72V182.8H700.912C700.539 182.613 700.352 182.347 700.352 182V182.52Z" fill="white"/>
</g>
<g id="Group_53">
<path id="Vector_52" d="M741.88 182C741.88 180.16 742.013 178.413 742.28 176.76C742.546 175.107 742.853 173.68 743.2 172.48C743.546 171.28 744.04 170.107 744.68 168.96C745.32 167.813 745.826 166.92 746.2 166.28C746.573 165.64 747.133 164.947 747.88 164.2C748.626 163.453 749.066 163 749.2 162.84C749.333 162.68 749.666 162.4 750.2 162H750.72H750.88C751.253 162 751.44 162.12 751.44 162.36C751.44 162.44 751.213 162.72 750.76 163.2C750.306 163.68 749.76 164.387 749.12 165.32C748.48 166.253 747.826 167.4 747.16 168.76C746.493 170.12 745.933 171.96 745.48 174.28C745.026 176.6 744.8 179.173 744.8 182C744.8 184.827 745.026 187.387 745.48 189.68C745.933 191.973 746.48 193.827 747.12 195.24C747.76 196.653 748.413 197.8 749.08 198.68C749.746 199.56 750.306 200.267 750.76 200.8C751.213 201.333 751.44 201.613 751.44 201.64C751.44 201.88 751.24 202 750.84 202H750.72H750.2L749.08 201.04C746.573 198.773 744.746 195.947 743.6 192.56C742.453 189.173 741.88 185.653 741.88 182Z" fill="white"/>
</g>
<g id="Group_54">
<path id="Vector_53" d="M755.88 173.68C755.907 173.627 756.134 172.173 756.56 169.32L757.2 165.04C757.2 164.987 757.467 164.96 758 164.96H758.8V165.12C758.8 165.387 759 165.613 759.4 165.8C759.8 165.987 760.494 166.107 761.48 166.16C762.467 166.213 764.72 166.24 768.24 166.24H773.08V167.8L770.36 171.52C770.12 171.84 769.72 172.373 769.16 173.12C768.6 173.867 768.24 174.36 768.08 174.6C767.92 174.84 767.64 175.267 767.24 175.88C766.84 176.493 766.574 176.973 766.44 177.32C766.307 177.667 766.12 178.16 765.88 178.8C765.64 179.44 765.467 180.053 765.36 180.64C765.254 181.227 765.147 181.947 765.04 182.8C764.934 183.653 764.854 184.56 764.8 185.52C764.747 186.48 764.707 187.573 764.68 188.8C764.68 189.173 764.68 189.547 764.68 189.92C764.68 190.293 764.667 190.613 764.64 190.88V191.24C764.534 191.693 764.28 192.08 763.88 192.4C763.48 192.72 763.027 192.88 762.52 192.88C762.227 192.88 761.947 192.84 761.68 192.76C761.414 192.68 761.134 192.427 760.84 192C760.547 191.573 760.4 191.04 760.4 190.4C760.4 186.187 761.694 181.813 764.28 177.28C764.814 176.427 765.934 174.813 767.64 172.44L769.48 169.92H765.76C761.12 169.92 758.68 170 758.44 170.16C758.28 170.24 758.134 170.56 758 171.12C757.867 171.68 757.734 172.253 757.6 172.84L757.48 173.68V173.8H755.88V173.68Z" fill="white"/>
</g>
<g id="Group_55">
<path id="Vector_54" d="M784.808 182.52C784.808 182.52 784.808 182.347 784.808 182C784.808 181.653 784.995 181.387 785.368 181.2H797.328V175.2L797.368 169.2C797.635 168.853 797.888 168.68 798.128 168.68C798.475 168.68 798.742 168.88 798.928 169.28V181.2H810.848C811.248 181.413 811.448 181.68 811.448 182C811.448 182.32 811.248 182.587 810.848 182.8H798.928V194.72C798.715 195.093 798.475 195.28 798.208 195.28H798.128H798.048C797.728 195.28 797.488 195.093 797.328 194.72V182.8H785.368C784.995 182.613 784.808 182.347 784.808 182V182.52Z" fill="white"/>
</g>
<g id="Group_56">
<path id="Vector_55" d="M827.656 173.48C826.936 173.48 826.376 173.253 825.976 172.8C825.576 172.347 825.363 171.76 825.336 171.04C825.336 169.573 825.976 168.267 827.256 167.12C828.536 165.973 830.083 165.4 831.896 165.4C832.83 165.4 833.416 165.413 833.656 165.44C835.63 165.76 837.136 166.467 838.176 167.56C839.216 168.653 839.75 169.84 839.776 171.12C839.776 172.507 839.323 173.853 838.416 175.16C837.51 176.467 836.256 177.413 834.656 178L834.536 178.08C834.536 178.107 834.656 178.147 834.896 178.2C835.136 178.253 835.523 178.373 836.056 178.56C836.59 178.747 837.096 179.027 837.576 179.4C839.763 180.813 840.856 182.68 840.856 185C840.856 187.107 840.03 188.947 838.376 190.52C836.723 192.093 834.63 192.88 832.096 192.88C829.963 192.88 828.123 192.307 826.576 191.16C825.03 190.013 824.256 188.56 824.256 186.8C824.256 186.053 824.496 185.453 824.976 185C825.456 184.547 826.056 184.307 826.776 184.28C827.523 184.28 828.136 184.52 828.616 185C829.096 185.48 829.336 186.08 829.336 186.8C829.336 187.093 829.296 187.36 829.216 187.6C829.136 187.84 829.043 188.053 828.936 188.24C828.83 188.427 828.683 188.587 828.496 188.72C828.31 188.853 828.15 188.96 828.016 189.04C827.883 189.12 827.75 189.173 827.616 189.2C827.483 189.227 827.376 189.267 827.296 189.32L827.136 189.36C828.496 190.56 830.15 191.16 832.096 191.16C833.563 191.16 834.67 190.453 835.416 189.04C835.87 188.16 836.096 186.813 836.096 185V184.2C836.096 181.667 835.243 179.973 833.536 179.12C833.136 178.96 832.323 178.867 831.096 178.84L829.416 178.8L829.296 178.72C829.243 178.64 829.216 178.427 829.216 178.08C829.216 177.6 829.323 177.36 829.536 177.36C830.283 177.36 831.056 177.293 831.856 177.16C832.763 177.027 833.59 176.467 834.336 175.48C835.083 174.493 835.456 173 835.456 171V170.68C835.456 169.16 834.99 168.107 834.056 167.52C833.47 167.147 832.843 166.96 832.176 166.96C831.323 166.96 830.536 167.107 829.816 167.4C829.096 167.693 828.59 168 828.296 168.32C828.003 168.64 827.856 168.8 827.856 168.8H827.976C828.056 168.827 828.163 168.853 828.296 168.88C828.43 168.907 828.563 168.973 828.696 169.08C828.83 169.187 828.99 169.28 829.176 169.36C829.363 169.44 829.496 169.587 829.576 169.8C829.656 170.013 829.763 170.213 829.896 170.4C830.03 170.587 830.07 170.853 830.016 171.2C830.016 171.787 829.83 172.307 829.456 172.76C829.083 173.213 828.483 173.453 827.656 173.48Z" fill="white"/>
</g>
<g id="Group_57">
<path id="Vector_56" d="M844.976 162.04L845.136 162C845.269 162 845.403 162 845.536 162H846.016L847.136 162.96C849.643 165.227 851.469 168.053 852.616 171.44C853.763 174.827 854.336 178.347 854.336 182C854.336 183.813 854.203 185.56 853.936 187.24C853.669 188.92 853.363 190.347 853.016 191.52C852.669 192.693 852.176 193.867 851.536 195.04C850.896 196.213 850.389 197.107 850.016 197.72C849.643 198.333 849.096 199.013 848.376 199.76C847.656 200.507 847.229 200.947 847.096 201.08C846.963 201.213 846.656 201.467 846.176 201.84C846.096 201.92 846.043 201.973 846.016 202H845.536C845.323 202 845.176 202 845.096 202C845.016 202 844.949 201.96 844.896 201.88C844.843 201.8 844.803 201.68 844.776 201.52C844.803 201.493 844.949 201.32 845.216 201C849.349 196.707 851.416 190.373 851.416 182C851.416 173.627 849.349 167.293 845.216 163C844.949 162.68 844.803 162.507 844.776 162.48C844.776 162.267 844.843 162.12 844.976 162.04Z" fill="white"/>
</g>
</g>
<g id="Group 34">
<g id="Group_58">
<path id="Vector_57" d="M480.584 223.872C480.584 223.179 480.824 222.606 481.304 222.152C481.784 221.699 482.357 221.472 483.024 221.472C483.664 221.472 484.21 221.699 484.664 222.152C485.117 222.606 485.357 223.179 485.384 223.872C485.41 224.566 485.184 225.139 484.704 225.592C484.224 226.046 483.65 226.272 482.984 226.272C482.29 226.272 481.717 226.046 481.264 225.592C480.81 225.139 480.584 224.566 480.584 223.872ZM473.024 238.792C473.717 238.792 474.277 239.019 474.704 239.472C475.13 239.926 475.357 240.499 475.384 241.192C475.384 241.832 475.17 242.392 474.744 242.872C474.317 243.352 473.73 243.592 472.984 243.592C472.29 243.592 471.73 243.366 471.304 242.912C470.877 242.459 470.65 241.886 470.624 241.192C470.624 240.499 470.85 239.926 471.304 239.472C471.757 239.019 472.33 238.792 473.024 238.792ZM490.624 241.192C490.624 240.499 490.85 239.926 491.304 239.472C491.757 239.019 492.33 238.792 493.024 238.792C493.664 238.792 494.21 239.019 494.664 239.472C495.117 239.926 495.357 240.499 495.384 241.192C495.384 241.806 495.17 242.352 494.744 242.832C494.317 243.312 493.73 243.566 492.984 243.592C492.29 243.592 491.73 243.366 491.304 242.912C490.877 242.459 490.65 241.886 490.624 241.192Z" fill="white"/>
</g>
<g id="Group_59">
<path id="Vector_58" d="M520.648 228.752C520.834 227.632 521.554 226.339 522.808 224.872C524.061 223.406 525.608 222.659 527.448 222.632C528.381 222.632 529.234 222.872 530.008 223.352C530.781 223.832 531.354 224.432 531.728 225.152C532.848 223.472 534.194 222.632 535.768 222.632C536.754 222.632 537.608 222.926 538.328 223.512C539.048 224.099 539.421 224.886 539.448 225.872C539.448 226.646 539.261 227.272 538.888 227.752C538.514 228.232 538.154 228.526 537.808 228.632C537.461 228.739 537.154 228.792 536.888 228.792C536.381 228.792 535.968 228.646 535.648 228.352C535.328 228.059 535.168 227.672 535.168 227.192C535.168 225.966 535.834 225.126 537.168 224.672C536.874 224.326 536.341 224.152 535.568 224.152C535.221 224.152 534.968 224.179 534.808 224.232C533.794 224.659 533.048 225.539 532.568 226.872C530.968 232.766 530.168 236.206 530.168 237.192C530.168 237.939 530.381 238.472 530.808 238.792C531.234 239.112 531.701 239.272 532.208 239.272C533.194 239.272 534.168 238.832 535.128 237.952C536.088 237.072 536.741 235.992 537.088 234.712C537.168 234.446 537.248 234.299 537.328 234.272C537.408 234.246 537.621 234.219 537.968 234.192H538.128C538.528 234.192 538.728 234.299 538.728 234.512C538.728 234.539 538.701 234.686 538.648 234.952C538.221 236.472 537.394 237.819 536.168 238.992C534.941 240.166 533.514 240.752 531.888 240.752C530.021 240.752 528.608 239.912 527.648 238.232C526.554 239.886 525.301 240.712 523.888 240.712H523.648C522.341 240.712 521.408 240.366 520.848 239.672C520.288 238.979 519.994 238.246 519.968 237.472C519.968 236.619 520.221 235.926 520.728 235.392C521.234 234.859 521.834 234.592 522.528 234.592C523.674 234.592 524.248 235.152 524.248 236.272C524.248 236.806 524.088 237.272 523.768 237.672C523.448 238.072 523.141 238.339 522.848 238.472C522.554 238.606 522.381 238.672 522.328 238.672L522.208 238.712C522.208 238.739 522.288 238.792 522.448 238.872C522.608 238.952 522.821 239.046 523.088 239.152C523.354 239.259 523.608 239.299 523.848 239.272C524.808 239.272 525.634 238.672 526.328 237.472C526.568 237.046 526.874 236.139 527.248 234.752C527.621 233.366 527.994 231.926 528.368 230.432C528.741 228.939 528.954 228.059 529.008 227.792C529.141 227.072 529.208 226.552 529.208 226.232C529.208 225.486 529.008 224.952 528.608 224.632C528.208 224.312 527.754 224.152 527.248 224.152C526.181 224.152 525.181 224.579 524.248 225.432C523.314 226.286 522.661 227.379 522.288 228.712C522.234 228.952 522.168 229.086 522.088 229.112C522.008 229.139 521.794 229.166 521.448 229.192H520.888C520.728 229.032 520.648 228.886 520.648 228.752Z" fill="white"/>
</g>
<g id="Group_60">
<path id="Vector_59" d="M554.795 226.432C554.795 226.085 554.982 225.819 555.355 225.632H580.835C581.235 225.845 581.435 226.112 581.435 226.432C581.435 226.725 581.249 226.979 580.875 227.192L568.155 227.232H555.435C555.009 227.099 554.795 226.832 554.795 226.432ZM554.795 234.192C554.795 233.792 555.009 233.525 555.435 233.392H580.875C581.249 233.659 581.435 233.925 581.435 234.192C581.435 234.539 581.235 234.805 580.835 234.992H555.355C554.982 234.805 554.795 234.539 554.795 234.192Z" fill="white"/>
</g>
<g id="Group_61">
<path id="Vector_60" d="M603.308 217.192L602.788 217.392C602.414 217.525 601.881 217.659 601.188 217.792C600.494 217.925 599.721 218.019 598.868 218.072H598.108V216.232H598.868C600.121 216.179 601.281 215.979 602.348 215.632C603.414 215.285 604.161 214.965 604.588 214.672C605.014 214.379 605.388 214.085 605.708 213.792C605.761 213.712 605.921 213.672 606.188 213.672C606.428 213.672 606.654 213.752 606.868 213.912V225.872L606.908 237.872C607.094 238.059 607.254 238.179 607.388 238.232C607.521 238.285 607.841 238.339 608.348 238.392C608.854 238.445 609.681 238.472 610.828 238.472H611.868V240.312H611.428C610.868 240.232 608.748 240.192 605.068 240.192C601.441 240.192 599.348 240.232 598.788 240.312H598.308V238.472H599.348C599.934 238.472 600.441 238.472 600.868 238.472C601.294 238.472 601.628 238.459 601.868 238.432C602.108 238.405 602.321 238.365 602.508 238.312C602.694 238.259 602.801 238.232 602.828 238.232C602.854 238.232 602.934 238.165 603.068 238.032C603.201 237.899 603.281 237.845 603.308 237.872V217.192Z" fill="white"/>
<path id="Vector_61" d="M618.628 216.912C620.121 214.752 622.161 213.672 624.748 213.672C626.028 213.672 627.308 214.019 628.588 214.712C629.868 215.405 630.908 216.632 631.708 218.392C632.695 220.605 633.188 223.645 633.188 227.512C633.188 231.645 632.615 234.805 631.468 236.992C630.935 238.112 630.201 239.005 629.268 239.672C628.335 240.339 627.521 240.752 626.828 240.912C626.135 241.072 625.455 241.165 624.788 241.192C624.095 241.192 623.401 241.112 622.708 240.952C622.015 240.792 621.201 240.365 620.268 239.672C619.335 238.979 618.601 238.085 618.068 236.992C616.921 234.805 616.348 231.645 616.348 227.512C616.348 222.872 617.108 219.339 618.628 216.912ZM627.628 216.432C626.828 215.579 625.881 215.152 624.788 215.152C623.668 215.152 622.708 215.579 621.908 216.432C621.241 217.125 620.801 218.085 620.588 219.312C620.375 220.539 620.268 223.099 620.268 226.992C620.268 231.205 620.375 233.979 620.588 235.312C620.801 236.645 621.281 237.699 622.028 238.472C622.775 239.272 623.695 239.672 624.788 239.672C625.855 239.672 626.761 239.272 627.508 238.472C628.281 237.672 628.761 236.552 628.948 235.112C629.135 233.672 629.241 230.965 629.268 226.992C629.268 223.125 629.161 220.579 628.948 219.352C628.735 218.125 628.295 217.152 627.628 216.432Z" fill="white"/>
</g>
<g id="Group_62">
<path id="Vector_62" d="M645.916 230.832C645.916 230.832 645.916 230.659 645.916 230.312C645.916 229.966 646.102 229.699 646.476 229.512H658.436V223.512L658.476 217.512C658.742 217.166 658.996 216.992 659.236 216.992C659.582 216.992 659.849 217.192 660.036 217.592V229.512H671.956C672.356 229.726 672.556 229.992 672.556 230.312C672.556 230.632 672.356 230.899 671.956 231.112H660.036V243.032C659.822 243.406 659.582 243.592 659.316 243.592H659.236H659.156C658.836 243.592 658.596 243.406 658.436 243.032V231.112H646.476C646.102 230.926 645.916 230.659 645.916 230.312V230.832Z" fill="white"/>
</g>
<g id="Group_63">
<path id="Vector_63" d="M692.208 217.192L691.688 217.392C691.314 217.525 690.781 217.659 690.088 217.792C689.394 217.925 688.621 218.019 687.768 218.072H687.008V216.232H687.768C689.021 216.179 690.181 215.979 691.248 215.632C692.314 215.285 693.061 214.965 693.488 214.672C693.914 214.379 694.288 214.085 694.608 213.792C694.661 213.712 694.821 213.672 695.088 213.672C695.328 213.672 695.554 213.752 695.768 213.912V225.872L695.808 237.872C695.994 238.059 696.154 238.179 696.288 238.232C696.421 238.285 696.741 238.339 697.248 238.392C697.754 238.445 698.581 238.472 699.728 238.472H700.768V240.312H700.328C699.768 240.232 697.648 240.192 693.968 240.192C690.341 240.192 688.248 240.232 687.688 240.312H687.208V238.472H688.248C688.834 238.472 689.341 238.472 689.768 238.472C690.194 238.472 690.528 238.459 690.768 238.432C691.008 238.405 691.221 238.365 691.408 238.312C691.594 238.259 691.701 238.232 691.728 238.232C691.754 238.232 691.834 238.165 691.968 238.032C692.101 237.899 692.181 237.845 692.208 237.872V217.192Z" fill="white"/>
<path id="Vector_64" d="M707.528 216.912C709.021 214.752 711.061 213.672 713.648 213.672C714.928 213.672 716.208 214.019 717.488 214.712C718.768 215.405 719.808 216.632 720.608 218.392C721.594 220.605 722.088 223.645 722.088 227.512C722.088 231.645 721.514 234.805 720.368 236.992C719.834 238.112 719.101 239.005 718.168 239.672C717.234 240.339 716.421 240.752 715.728 240.912C715.034 241.072 714.354 241.165 713.688 241.192C712.994 241.192 712.301 241.112 711.608 240.952C710.914 240.792 710.101 240.365 709.168 239.672C708.234 238.979 707.501 238.085 706.968 236.992C705.821 234.805 705.248 231.645 705.248 227.512C705.248 222.872 706.008 219.339 707.528 216.912ZM716.528 216.432C715.728 215.579 714.781 215.152 713.688 215.152C712.568 215.152 711.608 215.579 710.808 216.432C710.141 217.125 709.701 218.085 709.488 219.312C709.274 220.539 709.168 223.099 709.168 226.992C709.168 231.205 709.274 233.979 709.488 235.312C709.701 236.645 710.181 237.699 710.928 238.472C711.674 239.272 712.594 239.672 713.688 239.672C714.754 239.672 715.661 239.272 716.408 238.472C717.181 237.672 717.661 236.552 717.848 235.112C718.034 233.672 718.141 230.965 718.168 226.992C718.168 223.125 718.061 220.579 717.848 219.352C717.634 218.125 717.194 217.152 716.528 216.432Z" fill="white"/>
</g>
<g id="Group_64">
<path id="Vector_65" d="M737.036 226.432C737.036 226.085 737.222 225.819 737.596 225.632H763.076C763.476 225.845 763.676 226.112 763.676 226.432C763.676 226.725 763.489 226.979 763.116 227.192L750.396 227.232H737.676C737.249 227.099 737.036 226.832 737.036 226.432ZM737.036 234.192C737.036 233.792 737.249 233.525 737.676 233.392H763.116C763.489 233.659 763.676 233.925 763.676 234.192C763.676 234.539 763.476 234.805 763.076 234.992H737.596C737.222 234.805 737.036 234.539 737.036 234.192Z" fill="white"/>
</g>
<g id="Group_65">
<path id="Vector_66" d="M781.387 223.152C780.667 223.152 780.094 222.912 779.667 222.432C779.24 221.952 779.027 221.365 779.027 220.672C779.027 218.779 779.734 217.139 781.147 215.752C782.56 214.365 784.32 213.672 786.427 213.672C788.854 213.672 790.88 214.419 792.507 215.912C794.134 217.405 794.96 219.339 794.987 221.712C794.987 222.859 794.72 223.952 794.187 224.992C793.654 226.032 793.014 226.939 792.267 227.712C791.52 228.485 790.454 229.472 789.067 230.672C788.107 231.499 786.774 232.725 785.067 234.352L782.707 236.592L785.747 236.632C789.934 236.632 792.16 236.565 792.427 236.432C792.614 236.379 792.934 235.192 793.387 232.872V232.752H794.987V232.872C794.96 232.952 794.787 234.165 794.467 236.512C794.147 238.859 793.947 240.085 793.867 240.192V240.312H779.027V239.552V239.072C779.027 238.885 779.107 238.685 779.267 238.472C779.427 238.259 779.827 237.792 780.467 237.072C781.24 236.219 781.907 235.472 782.467 234.832C782.707 234.565 783.16 234.072 783.827 233.352C784.494 232.632 784.947 232.139 785.187 231.872C785.427 231.605 785.814 231.165 786.347 230.552C786.88 229.939 787.254 229.485 787.467 229.192C787.68 228.899 787.987 228.499 788.387 227.992C788.787 227.485 789.067 227.059 789.227 226.712C789.387 226.365 789.587 225.979 789.827 225.552C790.067 225.125 790.24 224.699 790.347 224.272C790.454 223.845 790.547 223.445 790.627 223.072C790.707 222.699 790.747 222.259 790.747 221.752C790.747 220.072 790.294 218.619 789.387 217.392C788.48 216.165 787.187 215.552 785.507 215.552C784.627 215.552 783.854 215.779 783.187 216.232C782.52 216.685 782.054 217.125 781.787 217.552C781.52 217.979 781.387 218.232 781.387 218.312C781.387 218.339 781.454 218.352 781.587 218.352C782.067 218.352 782.56 218.539 783.067 218.912C783.574 219.285 783.827 219.899 783.827 220.752C783.827 221.419 783.614 221.979 783.187 222.432C782.76 222.885 782.16 223.125 781.387 223.152Z" fill="white"/>
<path id="Vector_67" d="M800.867 216.912C802.36 214.752 804.4 213.672 806.987 213.672C808.267 213.672 809.547 214.019 810.827 214.712C812.107 215.405 813.147 216.632 813.947 218.392C814.934 220.605 815.427 223.645 815.427 227.512C815.427 231.645 814.854 234.805 813.707 236.992C813.174 238.112 812.44 239.005 811.507 239.672C810.574 240.339 809.76 240.752 809.067 240.912C808.374 241.072 807.694 241.165 807.027 241.192C806.334 241.192 805.64 241.112 804.947 240.952C804.254 240.792 803.44 240.365 802.507 239.672C801.574 238.979 800.84 238.085 800.307 236.992C799.16 234.805 798.587 231.645 798.587 227.512C798.587 222.872 799.347 219.339 800.867 216.912ZM809.867 216.432C809.067 215.579 808.12 215.152 807.027 215.152C805.907 215.152 804.947 215.579 804.147 216.432C803.48 217.125 803.04 218.085 802.827 219.312C802.614 220.539 802.507 223.099 802.507 226.992C802.507 231.205 802.614 233.979 802.827 235.312C803.04 236.645 803.52 237.699 804.267 238.472C805.014 239.272 805.934 239.672 807.027 239.672C808.094 239.672 809 239.272 809.747 238.472C810.52 237.672 811 236.552 811.187 235.112C811.374 233.672 811.48 230.965 811.507 226.992C811.507 223.125 811.4 220.579 811.187 219.352C810.974 218.125 810.534 217.152 809.867 216.432Z" fill="white"/>
</g>
</g>
</g>
</g>
</g>
</svg>
