<svg viewBox="0 0 825 358" fill="none" xmlns="http://www.w3.org/2000/svg">
<g id="0119201">
<g id="10 11 5 13 3 10 4 8 x">
<path d="M11.9502 31H8.13574V5.71387L0.486328 8.52344V5.07812L11.3555 0.99707H11.9502V31Z" fill="white"/>
<path d="M41.7891 18.2646C41.7891 22.708 41.0303 26.0098 39.5127 28.1699C37.9951 30.3301 35.623 31.4102 32.3965 31.4102C29.2109 31.4102 26.8525 30.3574 25.3213 28.252C23.79 26.1328 22.9971 22.9746 22.9424 18.7773V13.7119C22.9424 9.32324 23.7012 6.0625 25.2188 3.92969C26.7363 1.79688 29.1152 0.730469 32.3555 0.730469C35.5684 0.730469 37.9336 1.7627 39.4512 3.82715C40.9688 5.87793 41.748 9.0498 41.7891 13.3428V18.2646ZM37.9951 13.0762C37.9951 9.86328 37.5439 7.52539 36.6416 6.0625C35.7393 4.58594 34.3105 3.84766 32.3555 3.84766C30.4141 3.84766 28.999 4.5791 28.1104 6.04199C27.2217 7.50488 26.7637 9.75391 26.7363 12.7891V18.8594C26.7363 22.0859 27.2012 24.4717 28.1309 26.0166C29.0742 27.5479 30.4961 28.3135 32.3965 28.3135C34.2695 28.3135 35.6572 27.5889 36.5596 26.1396C37.4756 24.6904 37.9541 22.4072 37.9951 19.29V13.0762Z" fill="white"/>
<path d="M142.462 31H138.647V5.71387L130.998 8.52344V5.07812L141.867 0.99707H142.462V31Z" fill="white"/>
<path d="M166.046 31H162.231V5.71387L154.582 8.52344V5.07812L165.451 0.99707H166.046V31Z" fill="white"/>
<path d="M251.83 16.0293L253.348 1.14062H268.646V4.64746H256.567L255.665 12.7891C257.128 11.9277 258.789 11.4971 260.648 11.4971C263.369 11.4971 265.529 12.3994 267.129 14.2041C268.729 15.9951 269.528 18.4219 269.528 21.4844C269.528 24.5605 268.694 26.9873 267.026 28.7646C265.372 30.5283 263.055 31.4102 260.074 31.4102C257.436 31.4102 255.282 30.6787 253.614 29.2158C251.946 27.7529 250.996 25.7295 250.764 23.1455H254.353C254.585 24.8545 255.193 26.1465 256.178 27.0215C257.162 27.8828 258.461 28.3135 260.074 28.3135C261.838 28.3135 263.219 27.7119 264.217 26.5088C265.229 25.3057 265.734 23.6445 265.734 21.5254C265.734 19.5293 265.188 17.9297 264.094 16.7266C263.014 15.5098 261.571 14.9014 259.767 14.9014C258.112 14.9014 256.813 15.2637 255.87 15.9883L254.865 16.8086L251.83 16.0293Z" fill="white"/>
<path d="M11.9502 111H8.13574V85.7139L0.486328 88.5234V85.0781L11.3555 80.9971H11.9502V111Z" fill="white"/>
<path d="M28.582 94.2246H31.4326C33.2236 94.1973 34.6318 93.7256 35.6572 92.8096C36.6826 91.8936 37.1953 90.6562 37.1953 89.0977C37.1953 85.5977 35.4521 83.8477 31.9658 83.8477C30.3252 83.8477 29.0127 84.3193 28.0283 85.2627C27.0576 86.1924 26.5723 87.4297 26.5723 88.9746H22.7783C22.7783 86.6094 23.6396 84.6475 25.3623 83.0889C27.0986 81.5166 29.2998 80.7305 31.9658 80.7305C34.7822 80.7305 36.9902 81.4756 38.5898 82.9658C40.1895 84.4561 40.9893 86.5273 40.9893 89.1797C40.9893 90.4785 40.5654 91.7363 39.7178 92.9531C38.8838 94.1699 37.7422 95.0791 36.293 95.6807C37.9336 96.2002 39.1982 97.0615 40.0869 98.2646C40.9893 99.4678 41.4404 100.938 41.4404 102.674C41.4404 105.354 40.5654 107.479 38.8154 109.052C37.0654 110.624 34.7891 111.41 31.9863 111.41C29.1836 111.41 26.9004 110.651 25.1367 109.134C23.3867 107.616 22.5117 105.613 22.5117 103.125H26.3262C26.3262 104.697 26.8389 105.955 27.8643 106.898C28.8896 107.842 30.2637 108.313 31.9863 108.313C33.8184 108.313 35.2197 107.835 36.1904 106.878C37.1611 105.921 37.6465 104.547 37.6465 102.756C37.6465 101.02 37.1133 99.6865 36.0469 98.7568C34.9805 97.8271 33.4424 97.3486 31.4326 97.3213H28.582V94.2246Z" fill="white"/>
<path d="M156.346 94.2246H159.196C160.987 94.1973 162.396 93.7256 163.421 92.8096C164.446 91.8936 164.959 90.6562 164.959 89.0977C164.959 85.5977 163.216 83.8477 159.729 83.8477C158.089 83.8477 156.776 84.3193 155.792 85.2627C154.821 86.1924 154.336 87.4297 154.336 88.9746H150.542C150.542 86.6094 151.403 84.6475 153.126 83.0889C154.862 81.5166 157.063 80.7305 159.729 80.7305C162.546 80.7305 164.754 81.4756 166.354 82.9658C167.953 84.4561 168.753 86.5273 168.753 89.1797C168.753 90.4785 168.329 91.7363 167.481 92.9531C166.647 94.1699 165.506 95.0791 164.057 95.6807C165.697 96.2002 166.962 97.0615 167.851 98.2646C168.753 99.4678 169.204 100.938 169.204 102.674C169.204 105.354 168.329 107.479 166.579 109.052C164.829 110.624 162.553 111.41 159.75 111.41C156.947 111.41 154.664 110.651 152.9 109.134C151.15 107.616 150.275 105.613 150.275 103.125H154.09C154.09 104.697 154.603 105.955 155.628 106.898C156.653 107.842 158.027 108.313 159.75 108.313C161.582 108.313 162.983 107.835 163.954 106.878C164.925 105.921 165.41 104.547 165.41 102.756C165.41 101.02 164.877 99.6865 163.811 98.7568C162.744 97.8271 161.206 97.3486 159.196 97.3213H156.346V94.2246Z" fill="white"/>
<path d="M259.808 111H255.993V85.7139L248.344 88.5234V85.0781L259.213 80.9971H259.808V111Z" fill="white"/>
<path d="M289.646 98.2646C289.646 102.708 288.888 106.01 287.37 108.17C285.853 110.33 283.48 111.41 280.254 111.41C277.068 111.41 274.71 110.357 273.179 108.252C271.647 106.133 270.854 102.975 270.8 98.7773V93.7119C270.8 89.3232 271.559 86.0625 273.076 83.9297C274.594 81.7969 276.973 80.7305 280.213 80.7305C283.426 80.7305 285.791 81.7627 287.309 83.8271C288.826 85.8779 289.605 89.0498 289.646 93.3428V98.2646ZM285.853 93.0762C285.853 89.8633 285.401 87.5254 284.499 86.0625C283.597 84.5859 282.168 83.8477 280.213 83.8477C278.271 83.8477 276.856 84.5791 275.968 86.042C275.079 87.5049 274.621 89.7539 274.594 92.7891V98.8594C274.594 102.086 275.059 104.472 275.988 106.017C276.932 107.548 278.354 108.313 280.254 108.313C282.127 108.313 283.515 107.589 284.417 106.14C285.333 104.69 285.812 102.407 285.853 99.29V93.0762Z" fill="white"/>
<path d="M36.334 180.972H40.4766V184.068H36.334V191H32.5195V184.068H18.9229V181.833L32.2939 161.141H36.334V180.972ZM23.2295 180.972H32.5195V166.329L32.0684 167.149L23.2295 180.972Z" fill="white"/>
<path d="M166.189 168.934C166.189 170.424 165.793 171.75 165 172.912C164.221 174.074 163.161 174.983 161.821 175.64C163.38 176.31 164.61 177.287 165.513 178.572C166.429 179.857 166.887 181.313 166.887 182.94C166.887 185.524 166.012 187.582 164.262 189.113C162.525 190.645 160.235 191.41 157.392 191.41C154.521 191.41 152.217 190.645 150.48 189.113C148.758 187.568 147.896 185.511 147.896 182.94C147.896 181.327 148.334 179.871 149.209 178.572C150.098 177.273 151.321 176.289 152.88 175.619C151.554 174.963 150.508 174.054 149.742 172.892C148.977 171.729 148.594 170.41 148.594 168.934C148.594 166.418 149.4 164.422 151.014 162.945C152.627 161.469 154.753 160.73 157.392 160.73C160.017 160.73 162.136 161.469 163.749 162.945C165.376 164.422 166.189 166.418 166.189 168.934ZM163.093 182.858C163.093 181.19 162.56 179.83 161.493 178.777C160.44 177.725 159.06 177.198 157.351 177.198C155.642 177.198 154.268 177.718 153.229 178.757C152.203 179.796 151.69 181.163 151.69 182.858C151.69 184.554 152.189 185.887 153.188 186.857C154.199 187.828 155.601 188.313 157.392 188.313C159.169 188.313 160.563 187.828 161.575 186.857C162.587 185.873 163.093 184.54 163.093 182.858ZM157.392 163.848C155.901 163.848 154.691 164.312 153.762 165.242C152.846 166.158 152.388 167.409 152.388 168.995C152.388 170.513 152.839 171.743 153.741 172.687C154.657 173.616 155.874 174.081 157.392 174.081C158.909 174.081 160.119 173.616 161.021 172.687C161.938 171.743 162.396 170.513 162.396 168.995C162.396 167.478 161.924 166.24 160.98 165.283C160.037 164.326 158.841 163.848 157.392 163.848Z" fill="white"/>
<path d="M262.843 176.911L267.765 168.811H272.194L264.935 179.782L272.42 191H268.031L262.904 182.694L257.777 191H253.368L260.854 179.782L253.594 168.811H257.982L262.843 176.911Z" fill="white"/>
</g>
<g id="Group 9">
<g id="\Rightarrow\;10+11+5=26">
<g id="Group">
<g id="Group_2">
<path id="Vector" d="M358.021 11.1283C358.021 10.7362 358.307 10.5401 358.877 10.5401C359.055 10.5401 359.198 10.5401 359.305 10.5401C359.412 10.5401 359.501 10.5401 359.572 10.5401C359.643 10.5401 359.715 10.5579 359.786 10.5936C359.857 10.6292 359.893 10.647 359.893 10.647C359.893 10.647 359.929 10.7005 360 10.8075C360.071 10.9144 360.107 10.9679 360.107 10.9679C360.107 10.9679 360.16 11.057 360.267 11.2353C361.586 13.8734 363.333 16.2085 365.508 18.2406C367.683 20.2727 369.661 21.7166 371.444 22.5722C373.226 23.4278 374.938 24.0873 376.578 24.5508C377.184 24.729 377.487 24.9608 377.487 25.246C377.487 25.5312 377.326 25.7273 377.005 25.8342C376.684 25.9412 376.025 26.1372 375.027 26.4224C374.029 26.7076 372.995 27.1355 371.925 27.7059C366.791 30.2014 362.906 34.0517 360.267 39.2567C360.125 39.5775 360 39.7558 359.893 39.7914C359.786 39.8271 359.519 39.8627 359.091 39.8984C358.378 39.8984 358.021 39.7736 358.021 39.524C358.021 39.3814 358.111 39.0784 358.289 38.615C359.537 36.1551 361.07 33.9625 362.888 32.0374L363.422 31.5027H330.749C330.25 31.2531 330 30.8966 330 30.4331C330 29.8984 330.285 29.5419 330.856 29.3636H365.775L366.31 28.9358C367.701 27.8663 369.786 26.6363 372.567 25.246C372.531 25.2103 372.21 25.0499 371.604 24.7647C370.998 24.4795 370.196 24.0517 369.198 23.4813C368.2 22.9109 367.237 22.2691 366.31 21.5561L365.775 21.1283H330.856C330.285 20.9501 330 20.5936 330 20.0588C330 19.5953 330.25 19.2388 330.749 18.9893H363.422L362.888 18.4545C361.711 17.2068 360.606 15.7629 359.572 14.123C358.538 12.483 358.021 11.4848 358.021 11.1283Z" fill="white"/>
</g>
<g id="Group_3">
<path id="Vector_2" d="M421.583 7.7059L420.888 7.97328C420.389 8.15153 419.676 8.32979 418.749 8.50804C417.822 8.68629 416.788 8.81107 415.647 8.88237H414.631V6.42248H415.647C417.323 6.35118 418.873 6.0838 420.299 5.62034C421.726 5.15688 422.724 4.72907 423.294 4.33692C423.865 3.94476 424.364 3.5526 424.791 3.16045C424.863 3.05349 425.077 3.00002 425.433 3.00002C425.754 3.00002 426.057 3.10697 426.342 3.32088V19.3102L426.396 35.353C426.645 35.6025 426.859 35.7629 427.037 35.8342C427.216 35.9055 427.644 35.9768 428.321 36.0481C428.998 36.1194 430.103 36.1551 431.636 36.1551H433.027V38.615H432.439C431.69 38.508 428.856 38.4546 423.936 38.4546C419.087 38.4546 416.289 38.508 415.54 38.615H414.898V36.1551H416.289C417.073 36.1551 417.75 36.1551 418.321 36.1551C418.891 36.1551 419.337 36.1373 419.658 36.1016C419.979 36.066 420.264 36.0125 420.513 35.9412C420.763 35.8699 420.906 35.8342 420.941 35.8342C420.977 35.8342 421.084 35.7451 421.262 35.5669C421.44 35.3886 421.547 35.3173 421.583 35.353V7.7059Z" fill="white"/>
<path id="Vector_3" d="M442.064 7.33158C444.061 4.44388 446.788 3.00003 450.246 3.00003C451.957 3.00003 453.668 3.46349 455.38 4.3904C457.091 5.31732 458.481 6.95725 459.551 9.31019C460.87 12.2692 461.529 16.3334 461.529 21.5027C461.529 27.0285 460.763 31.2531 459.23 34.1765C458.517 35.6738 457.537 36.8681 456.289 37.7594C455.041 38.6507 453.954 39.2032 453.027 39.4171C452.1 39.631 451.191 39.7558 450.299 39.7915C449.373 39.7915 448.446 39.6845 447.519 39.4706C446.592 39.2567 445.504 38.6863 444.257 37.7594C443.009 36.8325 442.029 35.6382 441.316 34.1765C439.783 31.2531 439.016 27.0285 439.016 21.5027C439.016 15.2995 440.032 10.5758 442.064 7.33158ZM454.096 6.68987C453.027 5.54905 451.761 4.97864 450.299 4.97864C448.802 4.97864 447.519 5.54905 446.449 6.68987C445.558 7.61679 444.97 8.90021 444.685 10.5401C444.399 12.1801 444.257 15.6025 444.257 20.8075C444.257 26.4403 444.399 30.148 444.685 31.9305C444.97 33.713 445.611 35.1212 446.61 36.1551C447.608 37.2246 448.838 37.7594 450.299 37.7594C451.726 37.7594 452.938 37.2246 453.936 36.1551C454.97 35.0856 455.611 33.5883 455.861 31.6631C456.111 29.738 456.253 26.1195 456.289 20.8075C456.289 15.6382 456.146 12.2335 455.861 10.5936C455.576 8.95368 454.988 7.65244 454.096 6.68987Z" fill="white"/>
</g>
<g id="Group_4">
<path id="Vector_4" d="M478.545 25.9412C478.545 25.9412 478.545 25.7094 478.545 25.246C478.545 24.7825 478.795 24.426 479.294 24.1765H495.283V16.1551L495.337 8.13369C495.693 7.67023 496.032 7.4385 496.353 7.4385C496.816 7.4385 497.173 7.70588 497.422 8.24064V24.1765H513.358C513.893 24.4617 514.16 24.8182 514.16 25.246C514.16 25.6738 513.893 26.0303 513.358 26.3155H497.422V42.2513C497.137 42.7504 496.816 43 496.46 43H496.353H496.246C495.818 43 495.497 42.7504 495.283 42.2513V26.3155H479.294C478.795 26.066 478.545 25.7094 478.545 25.246V25.9412Z" fill="white"/>
</g>
<g id="Group_5">
<path id="Vector_5" d="M540.428 7.7059L539.733 7.97328C539.233 8.15153 538.52 8.32979 537.594 8.50804C536.667 8.68629 535.633 8.81107 534.492 8.88237H533.476V6.42248H534.492C536.168 6.35118 537.718 6.0838 539.144 5.62034C540.57 5.15688 541.569 4.72907 542.139 4.33692C542.709 3.94476 543.209 3.5526 543.636 3.16045C543.708 3.05349 543.922 3.00002 544.278 3.00002C544.599 3.00002 544.902 3.10697 545.187 3.32088V19.3102L545.241 35.353C545.49 35.6025 545.704 35.7629 545.882 35.8342C546.061 35.9055 546.488 35.9768 547.166 36.0481C547.843 36.1194 548.948 36.1551 550.481 36.1551H551.872V38.615H551.283C550.535 38.508 547.7 38.4546 542.781 38.4546C537.932 38.4546 535.134 38.508 534.385 38.615H533.743V36.1551H535.134C535.918 36.1551 536.595 36.1551 537.166 36.1551C537.736 36.1551 538.182 36.1373 538.503 36.1016C538.823 36.066 539.109 36.0125 539.358 35.9412C539.608 35.8699 539.75 35.8342 539.786 35.8342C539.822 35.8342 539.929 35.7451 540.107 35.5669C540.285 35.3886 540.392 35.3173 540.428 35.353V7.7059Z" fill="white"/>
<path id="Vector_6" d="M567.166 7.7059L566.471 7.97328C565.971 8.15153 565.258 8.32979 564.332 8.50804C563.405 8.68629 562.371 8.81107 561.23 8.88237H560.214V6.42248H561.23C562.906 6.35118 564.456 6.0838 565.882 5.62034C567.308 5.15688 568.307 4.72907 568.877 4.33692C569.447 3.94476 569.947 3.5526 570.374 3.16045C570.446 3.05349 570.66 3.00002 571.016 3.00002C571.337 3.00002 571.64 3.10697 571.925 3.32088V19.3102L571.979 35.353C572.228 35.6025 572.442 35.7629 572.62 35.8342C572.799 35.9055 573.226 35.9768 573.904 36.0481C574.581 36.1194 575.686 36.1551 577.219 36.1551H578.61V38.615H578.021C577.273 38.508 574.438 38.4546 569.519 38.4546C564.67 38.4546 561.872 38.508 561.123 38.615H560.481V36.1551H561.872C562.656 36.1551 563.333 36.1551 563.904 36.1551C564.474 36.1551 564.92 36.1373 565.241 36.1016C565.561 36.066 565.847 36.0125 566.096 35.9412C566.346 35.8699 566.488 35.8342 566.524 35.8342C566.56 35.8342 566.667 35.7451 566.845 35.5669C567.023 35.3886 567.13 35.3173 567.166 35.353V7.7059Z" fill="white"/>
</g>
<g id="Group_6">
<path id="Vector_7" d="M597.39 25.9412C597.39 25.9412 597.39 25.7094 597.39 25.246C597.39 24.7825 597.64 24.426 598.139 24.1765H614.128V16.1551L614.182 8.13369C614.538 7.67023 614.877 7.4385 615.198 7.4385C615.661 7.4385 616.018 7.70588 616.267 8.24064V24.1765H632.203C632.738 24.4617 633.005 24.8182 633.005 25.246C633.005 25.6738 632.738 26.0303 632.203 26.3155H616.267V42.2513C615.982 42.7504 615.661 43 615.305 43H615.198H615.091C614.663 43 614.342 42.7504 614.128 42.2513V26.3155H598.139C597.64 26.066 597.39 25.7094 597.39 25.246V25.9412Z" fill="white"/>
</g>
<g id="Group_7">
<path id="Vector_8" d="M656.652 30.2193C656.652 31.0749 656.367 31.7879 655.797 32.3583C655.226 32.9287 654.531 33.2139 653.711 33.2139H653.337C654.977 36.0303 657.152 37.4385 659.861 37.4385C662.357 37.4385 664.175 36.369 665.316 34.23C665.993 33.0535 666.332 30.7719 666.332 27.3851C666.332 23.713 665.85 21.2353 664.888 19.9519C663.961 18.7754 662.927 18.1872 661.786 18.1872H661.465C658.685 18.1872 656.581 19.3993 655.155 21.8236C655.013 22.0731 654.888 22.2157 654.781 22.2514C654.674 22.287 654.406 22.3227 653.979 22.3583C653.373 22.3583 653.034 22.2514 652.963 22.0375C652.891 21.8949 652.856 18.7754 652.856 12.6792V5.78078C652.856 3.99825 652.945 3.10698 653.123 3.10698C653.194 3.03568 653.266 3.00003 653.337 3.00003C653.373 3.00003 653.747 3.14263 654.46 3.42783C655.173 3.71304 656.153 3.99825 657.401 4.28345C658.649 4.56866 659.986 4.71126 661.412 4.71126C663.943 4.71126 666.367 4.21215 668.685 3.21393C668.97 3.07133 669.201 3.00003 669.38 3.00003C669.665 3.00003 669.808 3.32088 669.808 3.96259V4.65778C666.884 8.11589 663.23 9.84495 658.845 9.84495C657.74 9.84495 656.742 9.738 655.85 9.52409L655.316 9.41714V18.615C655.993 18.1159 656.528 17.7237 656.92 17.4385C657.312 17.1533 657.954 16.8681 658.845 16.5829C659.736 16.2977 660.645 16.1551 661.572 16.1551C664.46 16.1551 666.902 17.3138 668.898 19.631C670.895 21.9483 671.893 24.6934 671.893 27.8663C671.893 31.1462 670.752 33.9448 668.471 36.2621C666.189 38.5794 663.408 39.7558 660.128 39.7915C657.241 39.7915 654.923 38.8289 653.177 36.9038C651.43 34.9786 650.556 32.804 650.556 30.3797C650.556 29.5241 650.752 28.8467 651.144 28.3476C651.537 27.8485 651.947 27.5277 652.374 27.3851C652.802 27.2425 653.212 27.1712 653.604 27.1712C654.496 27.1712 655.226 27.4742 655.797 28.0802C656.367 28.6863 656.652 29.3993 656.652 30.2193Z" fill="white"/>
</g>
<g id="Group_8">
<path id="Vector_9" d="M692.471 20.0588C692.471 19.5954 692.72 19.2389 693.219 18.9893H727.283C727.818 19.2745 728.086 19.631 728.086 20.0588C728.086 20.451 727.836 20.7897 727.337 21.0749L710.332 21.1284H693.326C692.756 20.9501 692.471 20.5936 692.471 20.0588ZM692.471 30.4332C692.471 29.8984 692.756 29.5419 693.326 29.3636H727.337C727.836 29.7202 728.086 30.0767 728.086 30.4332C728.086 30.8966 727.818 31.2531 727.283 31.5027H693.219C692.72 31.2531 692.471 30.8966 692.471 30.4332Z" fill="white"/>
</g>
<g id="Group_9">
<path id="Vector_10" d="M751.765 15.6738C750.802 15.6738 750.036 15.353 749.465 14.7112C748.895 14.0695 748.61 13.2852 748.61 12.3583C748.61 9.82711 749.554 7.6346 751.444 5.78077C753.333 3.92694 755.686 3.00002 758.503 3.00002C761.747 3.00002 764.456 3.99824 766.631 5.99467C768.806 7.99111 769.911 10.5758 769.946 13.7487C769.946 15.2817 769.59 16.7433 768.877 18.1337C768.164 19.5241 767.308 20.7362 766.31 21.7701C765.312 22.8039 763.886 24.123 762.032 25.7273C760.749 26.8325 758.966 28.4724 756.684 30.6471L753.529 33.6417L757.594 33.6952C763.191 33.6952 766.167 33.6061 766.524 33.4278C766.774 33.3565 767.201 31.7701 767.807 28.6685V28.508H769.946V28.6685C769.911 28.7754 769.679 30.3975 769.251 33.5348C768.823 36.672 768.556 38.312 768.449 38.4546V38.615H748.61V37.5989V36.9572C748.61 36.7077 748.717 36.4403 748.93 36.1551C749.144 35.8699 749.679 35.246 750.535 34.2834C751.569 33.1426 752.46 32.1444 753.208 31.2888C753.529 30.9323 754.135 30.2727 755.027 29.3102C755.918 28.3476 756.524 27.6881 756.845 27.3316C757.166 26.9751 757.683 26.3868 758.396 25.5669C759.109 24.7469 759.608 24.1408 759.893 23.7487C760.178 23.3565 760.588 22.8218 761.123 22.1444C761.658 21.467 762.032 20.8966 762.246 20.4332C762.46 19.9697 762.727 19.4528 763.048 18.8824C763.369 18.312 763.601 17.7416 763.743 17.1711C763.886 16.6007 764.011 16.066 764.118 15.5669C764.225 15.0678 764.278 14.4795 764.278 13.8022C764.278 11.5562 763.672 9.61321 762.46 7.97328C761.248 6.33335 759.519 5.51339 757.273 5.51339C756.096 5.51339 755.062 5.81642 754.171 6.42248C753.28 7.02854 752.656 7.61678 752.299 8.18719C751.943 8.7576 751.765 9.09628 751.765 9.20323C751.765 9.23888 751.854 9.2567 752.032 9.2567C752.674 9.2567 753.333 9.50626 754.011 10.0054C754.688 10.5045 755.027 11.3244 755.027 12.4653C755.027 13.3565 754.741 14.1052 754.171 14.7112C753.601 15.3173 752.799 15.6382 751.765 15.6738Z" fill="white"/>
<path id="Vector_11" d="M774.92 21.877C774.92 16.066 776.364 11.4671 779.251 8.08024C782.139 4.69343 785.348 3.00003 788.877 3.00003C791.337 3.00003 793.102 3.64174 794.171 4.92516C795.241 6.20858 795.775 7.63461 795.775 9.20324C795.775 10.0945 795.526 10.8075 795.027 11.3423C794.528 11.877 793.832 12.1444 792.941 12.1444C792.121 12.1444 791.444 11.8949 790.909 11.3958C790.374 10.8966 790.107 10.2015 790.107 9.31019C790.107 7.74156 790.945 6.79682 792.62 6.47596C791.836 5.69165 790.731 5.24602 789.305 5.13906C786.774 5.13906 784.688 6.20858 783.048 8.34762C781.372 10.7006 780.535 14.3013 780.535 19.1498L780.588 19.3637C780.766 19.1498 780.909 18.918 781.016 18.6685C782.478 16.5294 784.385 15.4599 786.738 15.4599H786.952C788.592 15.4599 790.036 15.7986 791.283 16.476C792.139 16.9751 792.995 17.6881 793.85 18.615C794.706 19.5419 795.401 20.558 795.936 21.6631C796.684 23.41 797.059 25.3173 797.059 27.3851V28.3476C797.059 29.1676 796.97 29.9341 796.791 30.6471C796.399 32.7505 795.258 34.8004 793.369 36.7968C791.479 38.7933 789.091 39.7915 786.203 39.7915C785.205 39.7915 784.242 39.6489 783.315 39.3637C782.389 39.0785 781.39 38.5437 780.321 37.7594C779.251 36.9751 778.342 35.9234 777.594 34.6043C776.845 33.2852 776.203 31.5562 775.668 29.4171C775.134 27.2781 774.884 24.7647 774.92 21.877ZM786.417 17.3851C785.348 17.3851 784.421 17.6881 783.636 18.2941C782.852 18.9002 782.246 19.7023 781.818 20.7006C781.39 21.6988 781.087 22.7148 780.909 23.7487C780.731 24.7826 780.624 25.8877 780.588 27.0642C780.588 30.0232 780.802 32.1444 781.23 33.4278C781.658 34.7113 782.335 35.7451 783.262 36.5294C784.118 37.1712 785.062 37.492 786.096 37.492C787.914 37.492 789.305 36.8146 790.267 35.4599C790.731 34.8182 791.052 34.0161 791.23 33.0535C791.408 32.0909 791.497 30.2193 791.497 27.4385C791.497 24.5865 791.408 22.6792 791.23 21.7166C791.052 20.754 790.731 19.9519 790.267 19.3102C789.305 18.0268 788.021 17.3851 786.417 17.3851Z" fill="white"/>
</g>
</g>
</g>
<g id="\Rightarrow\;13+3+10=26">
<g id="Group_10">
<g id="Group_11">
<path id="Vector_12" d="M359.021 85.1283C359.021 84.7362 359.307 84.5401 359.877 84.5401C360.055 84.5401 360.198 84.5401 360.305 84.5401C360.412 84.5401 360.501 84.5401 360.572 84.5401C360.643 84.5401 360.715 84.5579 360.786 84.5936C360.857 84.6292 360.893 84.647 360.893 84.647C360.893 84.647 360.929 84.7005 361 84.8075C361.071 84.9144 361.107 84.9679 361.107 84.9679C361.107 84.9679 361.16 85.057 361.267 85.2353C362.586 87.8734 364.333 90.2085 366.508 92.2406C368.683 94.2727 370.661 95.7166 372.444 96.5722C374.226 97.4278 375.938 98.0873 377.578 98.5508C378.184 98.729 378.487 98.9608 378.487 99.246C378.487 99.5312 378.326 99.7273 378.005 99.8342C377.684 99.9412 377.025 100.137 376.027 100.422C375.029 100.708 373.995 101.135 372.925 101.706C367.791 104.201 363.906 108.052 361.267 113.257C361.125 113.578 361 113.756 360.893 113.791C360.786 113.827 360.519 113.863 360.091 113.898C359.378 113.898 359.021 113.774 359.021 113.524C359.021 113.381 359.111 113.078 359.289 112.615C360.537 110.155 362.07 107.963 363.888 106.037L364.422 105.503H331.749C331.25 105.253 331 104.897 331 104.433C331 103.898 331.285 103.542 331.856 103.364H366.775L367.31 102.936C368.701 101.866 370.786 100.636 373.567 99.246C373.531 99.2103 373.21 99.0499 372.604 98.7647C371.998 98.4795 371.196 98.0517 370.198 97.4813C369.2 96.9109 368.237 96.2691 367.31 95.5561L366.775 95.1283H331.856C331.285 94.9501 331 94.5936 331 94.0588C331 93.5953 331.25 93.2388 331.749 92.9893H364.422L363.888 92.4545C362.711 91.2068 361.606 89.7629 360.572 88.123C359.538 86.483 359.021 85.4848 359.021 85.1283Z" fill="white"/>
</g>
<g id="Group_12">
<path id="Vector_13" d="M422.583 81.7059L421.888 81.9733C421.389 82.1515 420.676 82.3298 419.749 82.508C418.822 82.6863 417.788 82.8111 416.647 82.8824H415.631V80.4225H416.647C418.323 80.3512 419.873 80.0838 421.299 79.6203C422.726 79.1569 423.724 78.7291 424.294 78.3369C424.865 77.9448 425.364 77.5526 425.791 77.1604C425.863 77.0535 426.077 77 426.433 77C426.754 77 427.057 77.107 427.342 77.3209V93.3102L427.396 109.353C427.645 109.603 427.859 109.763 428.037 109.834C428.216 109.906 428.644 109.977 429.321 110.048C429.998 110.119 431.103 110.155 432.636 110.155H434.027V112.615H433.439C432.69 112.508 429.856 112.455 424.936 112.455C420.087 112.455 417.289 112.508 416.54 112.615H415.898V110.155H417.289C418.073 110.155 418.75 110.155 419.321 110.155C419.891 110.155 420.337 110.137 420.658 110.102C420.979 110.066 421.264 110.012 421.513 109.941C421.763 109.87 421.906 109.834 421.941 109.834C421.977 109.834 422.084 109.745 422.262 109.567C422.44 109.389 422.547 109.317 422.583 109.353V81.7059Z" fill="white"/>
<path id="Vector_14" d="M444.722 87.8556C443.759 87.8556 443.011 87.5526 442.476 86.9466C441.941 86.3405 441.656 85.5562 441.62 84.5936C441.62 82.6328 442.476 80.8859 444.187 79.353C445.898 77.82 447.966 77.0535 450.39 77.0535C451.638 77.0535 452.423 77.0713 452.743 77.107C455.382 77.5348 457.396 78.4795 458.786 79.9412C460.177 81.4029 460.89 82.9893 460.925 84.7006C460.925 86.5544 460.319 88.3548 459.107 90.1016C457.895 91.8485 456.219 93.1141 454.08 93.8984L453.92 94.0054C453.92 94.041 454.08 94.0945 454.401 94.1658C454.722 94.2371 455.239 94.3975 455.952 94.6471C456.665 94.8966 457.342 95.271 457.984 95.7701C460.907 97.6596 462.369 100.155 462.369 103.257C462.369 106.073 461.264 108.533 459.054 110.636C456.843 112.74 454.045 113.791 450.658 113.791C447.806 113.791 445.346 113.025 443.278 111.492C441.21 109.959 440.177 108.016 440.177 105.663C440.177 104.665 440.497 103.863 441.139 103.257C441.781 102.651 442.583 102.33 443.546 102.294C444.544 102.294 445.364 102.615 446.005 103.257C446.647 103.898 446.968 104.701 446.968 105.663C446.968 106.055 446.915 106.412 446.808 106.733C446.701 107.054 446.576 107.339 446.433 107.588C446.291 107.838 446.095 108.052 445.845 108.23C445.595 108.408 445.382 108.551 445.203 108.658C445.025 108.765 444.847 108.836 444.669 108.872C444.49 108.907 444.348 108.961 444.241 109.032L444.027 109.086C445.845 110.69 448.055 111.492 450.658 111.492C452.619 111.492 454.098 110.547 455.096 108.658C455.702 107.481 456.005 105.681 456.005 103.257V102.187C456.005 98.8004 454.865 96.5366 452.583 95.3958C452.048 95.1818 450.961 95.0571 449.321 95.0214L447.075 94.9679L446.915 94.861C446.843 94.754 446.808 94.4688 446.808 94.0054C446.808 93.3637 446.95 93.0428 447.235 93.0428C448.234 93.0428 449.267 92.9537 450.337 92.7754C451.549 92.5972 452.654 91.8485 453.652 90.5294C454.651 89.2104 455.15 87.2139 455.15 84.5401V84.1123C455.15 82.0802 454.526 80.672 453.278 79.8877C452.494 79.3886 451.656 79.1391 450.765 79.1391C449.624 79.1391 448.572 79.3351 447.61 79.7273C446.647 80.1195 445.97 80.5294 445.578 80.9572C445.185 81.3851 444.989 81.599 444.989 81.599H445.15C445.257 81.6346 445.399 81.6703 445.578 81.7059C445.756 81.7416 445.934 81.8307 446.112 81.9733C446.291 82.1159 446.505 82.2407 446.754 82.3476C447.004 82.4546 447.182 82.6507 447.289 82.9359C447.396 83.2211 447.538 83.4884 447.717 83.738C447.895 83.9876 447.948 84.3441 447.877 84.8075C447.877 85.5918 447.628 86.287 447.128 86.8931C446.629 87.4991 445.827 87.82 444.722 87.8556Z" fill="white"/>
</g>
<g id="Group_13">
<path id="Vector_15" d="M479.545 99.9412C479.545 99.9412 479.545 99.7094 479.545 99.246C479.545 98.7825 479.795 98.426 480.294 98.1765H496.283V90.1551L496.337 82.1337C496.693 81.6702 497.032 81.4385 497.353 81.4385C497.816 81.4385 498.173 81.7059 498.422 82.2406V98.1765H514.358C514.893 98.4617 515.16 98.8182 515.16 99.246C515.16 99.6738 514.893 100.03 514.358 100.316H498.422V116.251C498.137 116.75 497.816 117 497.46 117H497.353H497.246C496.818 117 496.497 116.75 496.283 116.251V100.316H480.294C479.795 100.066 479.545 99.7094 479.545 99.246V99.9412Z" fill="white"/>
</g>
<g id="Group_14">
<path id="Vector_16" d="M536.829 87.8556C535.866 87.8556 535.118 87.5526 534.583 86.9466C534.048 86.3405 533.763 85.5562 533.727 84.5936C533.727 82.6328 534.583 80.8859 536.294 79.353C538.005 77.82 540.073 77.0535 542.497 77.0535C543.745 77.0535 544.529 77.0713 544.85 77.107C547.488 77.5348 549.503 78.4795 550.893 79.9412C552.283 81.4029 552.996 82.9893 553.032 84.7006C553.032 86.5544 552.426 88.3548 551.214 90.1016C550.002 91.8485 548.326 93.1141 546.187 93.8984L546.027 94.0054C546.027 94.041 546.187 94.0945 546.508 94.1658C546.829 94.2371 547.346 94.3975 548.059 94.6471C548.772 94.8966 549.449 95.271 550.091 95.7701C553.014 97.6596 554.476 100.155 554.476 103.257C554.476 106.073 553.371 108.533 551.16 110.636C548.95 112.74 546.152 113.791 542.765 113.791C539.913 113.791 537.453 113.025 535.385 111.492C533.317 109.959 532.283 108.016 532.283 105.663C532.283 104.665 532.604 103.863 533.246 103.257C533.888 102.651 534.69 102.33 535.652 102.294C536.651 102.294 537.471 102.615 538.112 103.257C538.754 103.898 539.075 104.701 539.075 105.663C539.075 106.055 539.021 106.412 538.914 106.733C538.807 107.054 538.683 107.339 538.54 107.588C538.397 107.838 538.201 108.052 537.952 108.23C537.702 108.408 537.488 108.551 537.31 108.658C537.132 108.765 536.954 108.836 536.775 108.872C536.597 108.907 536.455 108.961 536.348 109.032L536.134 109.086C537.952 110.69 540.162 111.492 542.765 111.492C544.725 111.492 546.205 110.547 547.203 108.658C547.809 107.481 548.112 105.681 548.112 103.257V102.187C548.112 98.8004 546.971 96.5366 544.69 95.3958C544.155 95.1818 543.068 95.0571 541.428 95.0214L539.182 94.9679L539.021 94.861C538.95 94.754 538.914 94.4688 538.914 94.0054C538.914 93.3637 539.057 93.0428 539.342 93.0428C540.34 93.0428 541.374 92.9537 542.444 92.7754C543.656 92.5972 544.761 91.8485 545.759 90.5294C546.758 89.2104 547.257 87.2139 547.257 84.5401V84.1123C547.257 82.0802 546.633 80.672 545.385 79.8877C544.601 79.3886 543.763 79.1391 542.872 79.1391C541.731 79.1391 540.679 79.3351 539.717 79.7273C538.754 80.1195 538.077 80.5294 537.684 80.9572C537.292 81.3851 537.096 81.599 537.096 81.599H537.257C537.364 81.6346 537.506 81.6703 537.684 81.7059C537.863 81.7416 538.041 81.8307 538.219 81.9733C538.397 82.1159 538.611 82.2407 538.861 82.3476C539.111 82.4546 539.289 82.6507 539.396 82.9359C539.503 83.2211 539.645 83.4884 539.824 83.738C540.002 83.9876 540.055 84.3441 539.984 84.8075C539.984 85.5918 539.734 86.287 539.235 86.8931C538.736 87.4991 537.934 87.82 536.829 87.8556Z" fill="white"/>
</g>
<g id="Group_15">
<path id="Vector_17" d="M571.652 99.9412C571.652 99.9412 571.652 99.7094 571.652 99.246C571.652 98.7825 571.902 98.426 572.401 98.1765H588.39V90.1551L588.444 82.1337C588.8 81.6702 589.139 81.4385 589.46 81.4385C589.923 81.4385 590.28 81.7059 590.529 82.2406V98.1765H606.465C607 98.4617 607.267 98.8182 607.267 99.246C607.267 99.6738 607 100.03 606.465 100.316H590.529V116.251C590.244 116.75 589.923 117 589.567 117H589.46H589.353C588.925 117 588.604 116.75 588.39 116.251V100.316H572.401C571.902 100.066 571.652 99.7094 571.652 99.246V99.9412Z" fill="white"/>
</g>
<g id="Group_16">
<path id="Vector_18" d="M633.535 81.7059L632.84 81.9733C632.34 82.1515 631.627 82.3298 630.701 82.508C629.774 82.6863 628.74 82.8111 627.599 82.8824H626.583V80.4225H627.599C629.275 80.3512 630.825 80.0838 632.251 79.6203C633.677 79.1569 634.676 78.7291 635.246 78.3369C635.816 77.9448 636.316 77.5526 636.743 77.1604C636.815 77.0535 637.029 77 637.385 77C637.706 77 638.009 77.107 638.294 77.3209V93.3102L638.348 109.353C638.597 109.603 638.811 109.763 638.989 109.834C639.168 109.906 639.595 109.977 640.273 110.048C640.95 110.119 642.055 110.155 643.588 110.155H644.979V112.615H644.39C643.642 112.508 640.807 112.455 635.888 112.455C631.039 112.455 628.241 112.508 627.492 112.615H626.85V110.155H628.241C629.025 110.155 629.702 110.155 630.273 110.155C630.843 110.155 631.289 110.137 631.61 110.102C631.93 110.066 632.216 110.012 632.465 109.941C632.715 109.87 632.857 109.834 632.893 109.834C632.929 109.834 633.036 109.745 633.214 109.567C633.392 109.389 633.499 109.317 633.535 109.353V81.7059Z" fill="white"/>
<path id="Vector_19" d="M654.016 81.3316C656.012 78.4439 658.74 77 662.198 77C663.909 77 665.62 77.4635 667.332 78.3904C669.043 79.3173 670.433 80.9572 671.503 83.3102C672.822 86.2692 673.481 90.3334 673.481 95.5027C673.481 101.029 672.715 105.253 671.182 108.176C670.469 109.674 669.488 110.868 668.241 111.759C666.993 112.651 665.906 113.203 664.979 113.417C664.052 113.631 663.143 113.756 662.251 113.791C661.324 113.791 660.398 113.685 659.471 113.471C658.544 113.257 657.456 112.686 656.209 111.759C654.961 110.832 653.98 109.638 653.267 108.176C651.734 105.253 650.968 101.029 650.968 95.5027C650.968 89.2995 651.984 84.5758 654.016 81.3316ZM666.048 80.6899C664.979 79.549 663.713 78.9786 662.251 78.9786C660.754 78.9786 659.471 79.549 658.401 80.6899C657.51 81.6168 656.922 82.9002 656.636 84.5401C656.351 86.1801 656.209 89.6025 656.209 94.8075C656.209 100.44 656.351 104.148 656.636 105.931C656.922 107.713 657.563 109.121 658.562 110.155C659.56 111.225 660.79 111.759 662.251 111.759C663.677 111.759 664.889 111.225 665.888 110.155C666.922 109.086 667.563 107.588 667.813 105.663C668.062 103.738 668.205 100.119 668.241 94.8075C668.241 89.6382 668.098 86.2335 667.813 84.5936C667.528 82.9537 666.939 81.6524 666.048 80.6899Z" fill="white"/>
</g>
<g id="Group_17">
<path id="Vector_20" d="M693.471 94.0588C693.471 93.5954 693.72 93.2389 694.219 92.9893H728.283C728.818 93.2745 729.086 93.631 729.086 94.0588C729.086 94.451 728.836 94.7897 728.337 95.0749L711.332 95.1284H694.326C693.756 94.9501 693.471 94.5936 693.471 94.0588ZM693.471 104.433C693.471 103.898 693.756 103.542 694.326 103.364H728.337C728.836 103.72 729.086 104.077 729.086 104.433C729.086 104.897 728.818 105.253 728.283 105.503H694.219C693.72 105.253 693.471 104.897 693.471 104.433Z" fill="white"/>
</g>
<g id="Group_18">
<path id="Vector_21" d="M752.765 89.6738C751.802 89.6738 751.036 89.353 750.465 88.7112C749.895 88.0695 749.61 87.2852 749.61 86.3583C749.61 83.8271 750.554 81.6346 752.444 79.7808C754.333 77.9269 756.686 77 759.503 77C762.747 77 765.456 77.9982 767.631 79.9947C769.806 81.9911 770.911 84.5758 770.946 87.7487C770.946 89.2817 770.59 90.7433 769.877 92.1337C769.164 93.5241 768.308 94.7362 767.31 95.7701C766.312 96.8039 764.886 98.123 763.032 99.7273C761.749 100.832 759.966 102.472 757.684 104.647L754.529 107.642L758.594 107.695C764.191 107.695 767.167 107.606 767.524 107.428C767.774 107.357 768.201 105.77 768.807 102.668V102.508H770.946V102.668C770.911 102.775 770.679 104.398 770.251 107.535C769.823 110.672 769.556 112.312 769.449 112.455V112.615H749.61V111.599V110.957C749.61 110.708 749.717 110.44 749.93 110.155C750.144 109.87 750.679 109.246 751.535 108.283C752.569 107.143 753.46 106.144 754.208 105.289C754.529 104.932 755.135 104.273 756.027 103.31C756.918 102.348 757.524 101.688 757.845 101.332C758.166 100.975 758.683 100.387 759.396 99.5669C760.109 98.7469 760.608 98.1408 760.893 97.7487C761.178 97.3565 761.588 96.8218 762.123 96.1444C762.658 95.467 763.032 94.8966 763.246 94.4332C763.46 93.9697 763.727 93.4528 764.048 92.8824C764.369 92.312 764.601 91.7416 764.743 91.1711C764.886 90.6007 765.011 90.066 765.118 89.5669C765.225 89.0678 765.278 88.4795 765.278 87.8022C765.278 85.5562 764.672 83.6132 763.46 81.9733C762.248 80.3334 760.519 79.5134 758.273 79.5134C757.096 79.5134 756.062 79.8164 755.171 80.4225C754.28 81.0285 753.656 81.6168 753.299 82.1872C752.943 82.7576 752.765 83.0963 752.765 83.2032C752.765 83.2389 752.854 83.2567 753.032 83.2567C753.674 83.2567 754.333 83.5063 755.011 84.0054C755.688 84.5045 756.027 85.3244 756.027 86.4653C756.027 87.3565 755.741 88.1052 755.171 88.7112C754.601 89.3173 753.799 89.6382 752.765 89.6738Z" fill="white"/>
<path id="Vector_22" d="M775.92 95.877C775.92 90.066 777.364 85.4671 780.251 82.0802C783.139 78.6934 786.348 77 789.877 77C792.337 77 794.102 77.6417 795.171 78.9252C796.241 80.2086 796.775 81.6346 796.775 83.2032C796.775 84.0945 796.526 84.8075 796.027 85.3423C795.528 85.877 794.832 86.1444 793.941 86.1444C793.121 86.1444 792.444 85.8949 791.909 85.3958C791.374 84.8966 791.107 84.2015 791.107 83.3102C791.107 81.7416 791.945 80.7968 793.62 80.476C792.836 79.6916 791.731 79.246 790.305 79.1391C787.774 79.1391 785.688 80.2086 784.048 82.3476C782.372 84.7006 781.535 88.3013 781.535 93.1498L781.588 93.3637C781.766 93.1498 781.909 92.918 782.016 92.6685C783.478 90.5294 785.385 89.4599 787.738 89.4599H787.952C789.592 89.4599 791.036 89.7986 792.283 90.476C793.139 90.9751 793.995 91.6881 794.85 92.615C795.706 93.5419 796.401 94.558 796.936 95.6631C797.684 97.41 798.059 99.3173 798.059 101.385V102.348C798.059 103.168 797.97 103.934 797.791 104.647C797.399 106.75 796.258 108.8 794.369 110.797C792.479 112.793 790.091 113.791 787.203 113.791C786.205 113.791 785.242 113.649 784.315 113.364C783.389 113.078 782.39 112.544 781.321 111.759C780.251 110.975 779.342 109.923 778.594 108.604C777.845 107.285 777.203 105.556 776.668 103.417C776.134 101.278 775.884 98.7647 775.92 95.877ZM787.417 91.3851C786.348 91.3851 785.421 91.6881 784.636 92.2941C783.852 92.9002 783.246 93.7023 782.818 94.7006C782.39 95.6988 782.087 96.7148 781.909 97.7487C781.731 98.7826 781.624 99.8877 781.588 101.064C781.588 104.023 781.802 106.144 782.23 107.428C782.658 108.711 783.335 109.745 784.262 110.529C785.118 111.171 786.062 111.492 787.096 111.492C788.914 111.492 790.305 110.815 791.267 109.46C791.731 108.818 792.052 108.016 792.23 107.054C792.408 106.091 792.497 104.219 792.497 101.439C792.497 98.5865 792.408 96.6792 792.23 95.7166C792.052 94.754 791.731 93.9519 791.267 93.3102C790.305 92.0268 789.021 91.3851 787.417 91.3851Z" fill="white"/>
</g>
</g>
</g>
<g id="\Rightarrow\;4+8+x=26">
<g id="Group_19">
<g id="Group_20">
<path id="Vector_23" d="M362.615 159.59C362.615 159.204 362.896 159.011 363.458 159.011C363.634 159.011 363.775 159.011 363.88 159.011C363.986 159.011 364.073 159.011 364.144 159.011C364.214 159.011 364.284 159.028 364.354 159.063C364.425 159.098 364.46 159.116 364.46 159.116C364.46 159.116 364.495 159.169 364.565 159.274C364.635 159.379 364.671 159.432 364.671 159.432C364.671 159.432 364.723 159.52 364.829 159.696C366.129 162.296 367.85 164.597 369.993 166.6C372.137 168.602 374.087 170.025 375.843 170.868C377.6 171.711 379.286 172.361 380.903 172.818C381.5 172.994 381.798 173.222 381.798 173.503C381.798 173.784 381.64 173.978 381.324 174.083C381.008 174.188 380.358 174.382 379.374 174.663C378.39 174.944 377.372 175.365 376.318 175.928C371.258 178.387 367.429 182.181 364.829 187.311C364.688 187.627 364.565 187.803 364.46 187.838C364.354 187.873 364.091 187.908 363.669 187.943C362.967 187.943 362.615 187.82 362.615 187.574C362.615 187.434 362.703 187.135 362.879 186.679C364.108 184.254 365.619 182.094 367.411 180.196L367.938 179.669H335.738C335.246 179.423 335 179.072 335 178.615C335 178.088 335.281 177.737 335.843 177.561H370.257L370.784 177.14C372.154 176.086 374.209 174.874 376.95 173.503C376.915 173.468 376.599 173.31 376.001 173.029C375.404 172.748 374.614 172.326 373.63 171.764C372.646 171.202 371.697 170.57 370.784 169.867L370.257 169.445H335.843C335.281 169.27 335 168.918 335 168.391C335 167.935 335.246 167.583 335.738 167.337H367.938L367.411 166.81C366.252 165.581 365.162 164.158 364.144 162.542C363.125 160.925 362.615 159.942 362.615 159.59Z" fill="white"/>
</g>
<g id="Group_21">
<path id="Vector_24" d="M438.378 186.679C437.746 186.573 435.48 186.52 431.58 186.52C427.504 186.52 425.15 186.573 424.518 186.679H424.043V184.254H425.677C426.38 184.254 426.854 184.254 427.1 184.254C427.346 184.254 427.645 184.219 427.996 184.149C428.347 184.079 428.593 183.991 428.734 183.885C428.874 183.78 428.997 183.639 429.103 183.464C429.138 183.393 429.155 182.445 429.155 180.618V177.983H415.506V175.559L423.464 163.385C428.839 155.234 431.562 151.141 431.632 151.105C431.703 151.035 432.072 151 432.739 151H433.688L434.004 151.316V175.559H438.852V177.983H434.004V180.671C434.004 182.111 434.004 182.954 434.004 183.2C434.004 183.446 434.109 183.657 434.32 183.833C434.601 184.079 435.603 184.219 437.324 184.254H438.852V186.679H438.378ZM429.472 175.559V157.957L417.93 175.506L423.675 175.559H429.472Z" fill="white"/>
</g>
<g id="Group_22">
<path id="Vector_25" d="M455.042 174.188C455.042 174.188 455.042 173.96 455.042 173.503C455.042 173.047 455.288 172.695 455.78 172.449H471.538V164.544L471.59 156.639C471.942 156.182 472.275 155.954 472.592 155.954C473.048 155.954 473.4 156.217 473.646 156.744V172.449H489.35C489.877 172.73 490.141 173.082 490.141 173.503C490.141 173.925 489.877 174.276 489.35 174.557H473.646V190.262C473.365 190.754 473.048 191 472.697 191H472.592H472.486C472.065 191 471.748 190.754 471.538 190.262V174.557H455.78C455.288 174.311 455.042 173.96 455.042 173.503V174.188Z" fill="white"/>
</g>
<g id="Group_23">
<path id="Vector_26" d="M508.491 164.702C508.491 164.702 508.491 163.35 508.491 160.644C508.491 157.939 509.44 155.761 511.337 154.109C513.235 152.458 515.413 151.615 517.872 151.58C520.367 151.58 522.58 152.317 524.513 153.793C526.445 155.269 527.411 157.184 527.411 159.538C527.411 160.592 527.218 161.575 526.831 162.489C526.445 163.402 525.988 164.14 525.461 164.702C524.934 165.264 524.39 165.756 523.827 166.178C523.265 166.599 522.809 166.916 522.457 167.126C522.106 167.337 521.913 167.478 521.878 167.548L522.615 168.022C523.107 168.374 523.599 168.725 524.091 169.076C524.583 169.428 524.864 169.621 524.934 169.656C527.569 171.729 528.887 174.346 528.887 177.509C528.887 180.284 527.868 182.691 525.83 184.729C523.792 186.766 521.157 187.803 517.925 187.838C514.763 187.838 512.163 186.942 510.125 185.15C508.087 183.358 507.069 181.145 507.069 178.51C507.069 174.715 509.335 171.553 513.867 169.024L512.918 168.339C512.181 167.882 511.706 167.53 511.495 167.285C509.493 165.563 508.491 163.35 508.491 160.644V164.702ZM519.875 166.336L520.191 166.125C520.402 165.985 520.56 165.879 520.665 165.809C520.771 165.739 520.946 165.616 521.192 165.44C521.438 165.264 521.649 165.089 521.825 164.913C522.001 164.737 522.194 164.527 522.405 164.281C522.615 164.035 522.809 163.806 522.984 163.595C523.16 163.385 523.336 163.104 523.511 162.752C523.687 162.401 523.845 162.102 523.986 161.856C524.126 161.61 524.214 161.259 524.249 160.802C524.284 160.346 524.319 159.959 524.354 159.643C524.354 158.132 523.845 156.85 522.826 155.796C521.807 154.742 520.63 154.074 519.295 153.793C519.049 153.758 518.47 153.74 517.556 153.74C516.116 153.74 514.763 154.197 513.498 155.111C512.233 156.024 511.583 157.166 511.548 158.536C511.548 159.344 511.777 160.082 512.233 160.75C512.69 161.417 513.147 161.927 513.603 162.278C514.06 162.629 514.939 163.191 516.239 163.964C516.484 164.14 516.678 164.263 516.818 164.333L519.875 166.336ZM517.978 185.572C520.015 185.572 521.772 184.975 523.248 183.78C524.723 182.585 525.461 181.145 525.461 179.458C525.461 178.861 525.373 178.299 525.198 177.772C525.022 177.245 524.811 176.806 524.565 176.455C524.319 176.103 523.933 175.717 523.406 175.295C522.879 174.873 522.475 174.557 522.194 174.346C521.913 174.136 521.403 173.802 520.665 173.345C519.928 172.888 519.453 172.59 519.242 172.449C518.751 172.133 518.224 171.799 517.661 171.448C517.099 171.097 516.643 170.798 516.291 170.552L515.87 170.289C515.659 170.289 515.149 170.587 514.341 171.184C513.533 171.782 512.69 172.748 511.812 174.083C510.933 175.418 510.477 176.859 510.441 178.404C510.441 180.477 511.197 182.181 512.708 183.516C514.218 184.852 515.975 185.537 517.978 185.572Z" fill="white"/>
</g>
<g id="Group_24">
<path id="Vector_27" d="M545.814 174.188C545.814 174.188 545.814 173.96 545.814 173.503C545.814 173.047 546.06 172.695 546.552 172.449H562.31V164.544L562.362 156.639C562.714 156.182 563.047 155.954 563.364 155.954C563.82 155.954 564.172 156.217 564.418 156.744V172.449H580.123C580.65 172.73 580.913 173.082 580.913 173.503C580.913 173.925 580.65 174.276 580.123 174.557H564.418V190.262C564.137 190.754 563.82 191 563.469 191H563.364H563.258C562.837 191 562.52 190.754 562.31 190.262V174.557H546.552C546.06 174.311 545.814 173.96 545.814 173.503V174.188Z" fill="white"/>
</g>
<g id="Group_25">
<path id="Vector_28" d="M598.315 171.448C598.561 169.972 599.509 168.268 601.161 166.336C602.812 164.404 604.85 163.42 607.274 163.385C608.504 163.385 609.628 163.701 610.647 164.333C611.666 164.966 612.421 165.756 612.913 166.705C614.389 164.491 616.163 163.385 618.236 163.385C619.536 163.385 620.66 163.771 621.609 164.544C622.557 165.317 623.049 166.354 623.084 167.653C623.084 168.672 622.838 169.498 622.347 170.13C621.855 170.763 621.38 171.149 620.924 171.29C620.467 171.43 620.063 171.501 619.712 171.501C619.044 171.501 618.499 171.307 618.078 170.921C617.656 170.534 617.445 170.025 617.445 169.393C617.445 167.776 618.324 166.67 620.08 166.072C619.694 165.616 618.991 165.387 617.972 165.387C617.516 165.387 617.182 165.422 616.971 165.493C615.636 166.055 614.652 167.214 614.02 168.971C611.912 176.736 610.858 181.268 610.858 182.568C610.858 183.552 611.139 184.254 611.701 184.676C612.263 185.097 612.878 185.308 613.545 185.308C614.845 185.308 616.128 184.729 617.393 183.569C618.657 182.41 619.518 180.987 619.975 179.3C620.08 178.949 620.186 178.756 620.291 178.721C620.397 178.686 620.678 178.65 621.134 178.615H621.345C621.872 178.615 622.136 178.756 622.136 179.037C622.136 179.072 622.101 179.265 622.03 179.617C621.468 181.619 620.379 183.393 618.763 184.939C617.147 186.485 615.267 187.258 613.124 187.258C610.665 187.258 608.802 186.151 607.538 183.938C606.097 186.116 604.446 187.206 602.584 187.206H602.267C600.546 187.206 599.316 186.749 598.578 185.835C597.841 184.922 597.454 183.956 597.419 182.937C597.419 181.812 597.753 180.899 598.42 180.196C599.088 179.494 599.878 179.142 600.792 179.142C602.303 179.142 603.058 179.88 603.058 181.356C603.058 182.058 602.847 182.673 602.426 183.2C602.004 183.727 601.6 184.079 601.213 184.254C600.827 184.43 600.599 184.518 600.528 184.518L600.37 184.57C600.37 184.606 600.476 184.676 600.686 184.781C600.897 184.887 601.178 185.01 601.53 185.15C601.881 185.291 602.215 185.343 602.531 185.308C603.796 185.308 604.885 184.518 605.798 182.937C606.115 182.375 606.519 181.18 607.011 179.353C607.502 177.526 607.994 175.629 608.486 173.661C608.978 171.694 609.259 170.534 609.329 170.183C609.505 169.234 609.593 168.549 609.593 168.128C609.593 167.144 609.329 166.441 608.802 166.02C608.275 165.598 607.678 165.387 607.011 165.387C605.605 165.387 604.288 165.949 603.058 167.074C601.828 168.198 600.968 169.639 600.476 171.395C600.405 171.711 600.318 171.887 600.212 171.922C600.107 171.957 599.826 171.993 599.369 172.028H598.631C598.42 171.817 598.315 171.624 598.315 171.448Z" fill="white"/>
</g>
<g id="Group_26">
<path id="Vector_29" d="M643.311 168.391C643.311 167.935 643.557 167.583 644.049 167.337H677.619C678.146 167.618 678.41 167.97 678.41 168.391C678.41 168.778 678.164 169.112 677.672 169.393L660.913 169.445H644.154C643.592 169.27 643.311 168.918 643.311 168.391ZM643.311 178.615C643.311 178.088 643.592 177.737 644.154 177.561H677.672C678.164 177.913 678.41 178.264 678.41 178.615C678.41 179.072 678.146 179.423 677.619 179.669H644.049C643.557 179.423 643.311 179.072 643.311 178.615Z" fill="white"/>
</g>
<g id="Group_27">
<path id="Vector_30" d="M701.746 164.07C700.797 164.07 700.042 163.754 699.48 163.121C698.917 162.489 698.636 161.716 698.636 160.802C698.636 158.308 699.567 156.147 701.43 154.32C703.292 152.493 705.611 151.58 708.386 151.58C711.583 151.58 714.253 152.563 716.397 154.531C718.54 156.498 719.629 159.046 719.664 162.173C719.664 163.683 719.313 165.124 718.61 166.494C717.907 167.864 717.064 169.059 716.08 170.078C715.097 171.097 713.691 172.397 711.864 173.978C710.6 175.067 708.843 176.683 706.594 178.826L703.485 181.777L707.49 181.83C713.006 181.83 715.94 181.742 716.291 181.567C716.537 181.496 716.959 179.933 717.556 176.876V176.718H719.664V176.876C719.629 176.982 719.401 178.58 718.979 181.672C718.557 184.764 718.294 186.38 718.188 186.52V186.679H698.636V185.677V185.045C698.636 184.799 698.742 184.535 698.953 184.254C699.163 183.973 699.69 183.358 700.534 182.41C701.553 181.285 702.431 180.302 703.169 179.458C703.485 179.107 704.082 178.457 704.961 177.509C705.839 176.56 706.436 175.91 706.752 175.559C707.069 175.207 707.578 174.628 708.281 173.819C708.983 173.011 709.475 172.414 709.756 172.028C710.037 171.641 710.441 171.114 710.968 170.447C711.495 169.779 711.864 169.217 712.075 168.76C712.286 168.303 712.549 167.794 712.866 167.232C713.182 166.67 713.41 166.108 713.551 165.545C713.691 164.983 713.814 164.456 713.92 163.964C714.025 163.473 714.078 162.893 714.078 162.225C714.078 160.012 713.481 158.097 712.286 156.481C711.091 154.865 709.387 154.057 707.174 154.057C706.015 154.057 704.996 154.355 704.117 154.953C703.239 155.55 702.624 156.13 702.273 156.692C701.921 157.254 701.746 157.588 701.746 157.693C701.746 157.728 701.834 157.746 702.009 157.746C702.642 157.746 703.292 157.992 703.959 158.484C704.627 158.975 704.961 159.783 704.961 160.908C704.961 161.786 704.679 162.524 704.117 163.121C703.555 163.718 702.765 164.035 701.746 164.07Z" fill="white"/>
<path id="Vector_31" d="M724.565 170.183C724.565 164.456 725.988 159.924 728.834 156.586C731.68 153.249 734.842 151.58 738.32 151.58C740.744 151.58 742.484 152.212 743.538 153.477C744.592 154.742 745.119 156.147 745.119 157.693C745.119 158.571 744.873 159.274 744.381 159.801C743.889 160.328 743.204 160.592 742.325 160.592C741.517 160.592 740.85 160.346 740.323 159.854C739.796 159.362 739.532 158.677 739.532 157.798C739.532 156.252 740.358 155.321 742.009 155.005C741.236 154.232 740.147 153.793 738.742 153.688C736.247 153.688 734.192 154.742 732.576 156.85C730.924 159.169 730.099 162.717 730.099 167.495L730.152 167.706C730.327 167.495 730.468 167.267 730.573 167.021C732.014 164.913 733.893 163.859 736.212 163.859H736.423C738.039 163.859 739.462 164.193 740.692 164.86C741.535 165.352 742.378 166.055 743.221 166.968C744.065 167.882 744.75 168.883 745.277 169.972C746.015 171.694 746.383 173.574 746.383 175.611V176.56C746.383 177.368 746.296 178.123 746.12 178.826C745.733 180.899 744.609 182.919 742.747 184.887C740.885 186.854 738.531 187.838 735.685 187.838C734.701 187.838 733.753 187.697 732.839 187.416C731.926 187.135 730.942 186.608 729.888 185.835C728.834 185.062 727.938 184.026 727.2 182.726C726.462 181.426 725.83 179.722 725.303 177.614C724.776 175.506 724.53 173.029 724.565 170.183ZM735.896 165.756C734.842 165.756 733.928 166.055 733.155 166.652C732.383 167.249 731.785 168.04 731.364 169.024C730.942 170.007 730.643 171.009 730.468 172.028C730.292 173.047 730.187 174.136 730.152 175.295C730.152 178.211 730.362 180.302 730.784 181.567C731.206 182.831 731.873 183.85 732.787 184.623C733.63 185.256 734.561 185.572 735.58 185.572C737.372 185.572 738.742 184.904 739.69 183.569C740.147 182.937 740.463 182.146 740.639 181.198C740.815 180.249 740.903 178.404 740.903 175.664C740.903 172.853 740.815 170.974 740.639 170.025C740.463 169.076 740.147 168.286 739.69 167.653C738.742 166.389 737.477 165.756 735.896 165.756Z" fill="white"/>
</g>
</g>
</g>
<g id="12+x=26">
<g id="Group_28">
<g id="Group_29">
<path id="Vector_32" d="M451.952 243.706L451.257 243.973C450.758 244.152 450.045 244.33 449.118 244.508C448.191 244.686 447.157 244.811 446.016 244.882H445V242.422H446.016C447.692 242.351 449.242 242.084 450.668 241.62C452.094 241.157 453.093 240.729 453.663 240.337C454.234 239.945 454.733 239.553 455.16 239.16C455.232 239.053 455.446 239 455.802 239C456.123 239 456.426 239.107 456.711 239.321V255.31L456.765 271.353C457.014 271.602 457.228 271.763 457.406 271.834C457.585 271.906 458.012 271.977 458.69 272.048C459.367 272.119 460.472 272.155 462.005 272.155H463.396V274.615H462.807C462.059 274.508 459.225 274.455 454.305 274.455C449.456 274.455 446.658 274.508 445.909 274.615H445.267V272.155H446.658C447.442 272.155 448.119 272.155 448.69 272.155C449.26 272.155 449.706 272.137 450.027 272.102C450.348 272.066 450.633 272.012 450.882 271.941C451.132 271.87 451.275 271.834 451.31 271.834C451.346 271.834 451.453 271.745 451.631 271.567C451.809 271.389 451.916 271.317 451.952 271.353V243.706Z" fill="white"/>
<path id="Vector_33" d="M473.128 251.674C472.166 251.674 471.399 251.353 470.829 250.711C470.258 250.07 469.973 249.285 469.973 248.358C469.973 245.827 470.918 243.635 472.807 241.781C474.697 239.927 477.05 239 479.866 239C483.111 239 485.82 239.998 487.995 241.995C490.169 243.991 491.275 246.576 491.31 249.749C491.31 251.282 490.954 252.743 490.241 254.134C489.528 255.524 488.672 256.736 487.674 257.77C486.676 258.804 485.25 260.123 483.396 261.727C482.112 262.832 480.33 264.472 478.048 266.647L474.893 269.642L478.957 269.695C484.554 269.695 487.531 269.606 487.888 269.428C488.137 269.357 488.565 267.77 489.171 264.668V264.508H491.31V264.668C491.275 264.775 491.043 266.398 490.615 269.535C490.187 272.672 489.92 274.312 489.813 274.455V274.615H469.973V273.599V272.957C469.973 272.708 470.08 272.44 470.294 272.155C470.508 271.87 471.043 271.246 471.898 270.283C472.932 269.143 473.824 268.144 474.572 267.289C474.893 266.932 475.499 266.273 476.39 265.31C477.282 264.348 477.888 263.688 478.209 263.332C478.529 262.975 479.046 262.387 479.759 261.567C480.472 260.747 480.971 260.141 481.257 259.749C481.542 259.357 481.952 258.822 482.487 258.144C483.021 257.467 483.396 256.897 483.61 256.433C483.824 255.97 484.091 255.453 484.412 254.882C484.733 254.312 484.964 253.742 485.107 253.171C485.25 252.601 485.374 252.066 485.481 251.567C485.588 251.068 485.642 250.48 485.642 249.802C485.642 247.556 485.036 245.613 483.824 243.973C482.611 242.333 480.882 241.513 478.636 241.513C477.46 241.513 476.426 241.816 475.535 242.422C474.643 243.029 474.02 243.617 473.663 244.187C473.307 244.758 473.128 245.096 473.128 245.203C473.128 245.239 473.217 245.257 473.396 245.257C474.037 245.257 474.697 245.506 475.374 246.005C476.052 246.504 476.39 247.324 476.39 248.465C476.39 249.357 476.105 250.105 475.535 250.711C474.964 251.317 474.162 251.638 473.128 251.674Z" fill="white"/>
</g>
<g id="Group_30">
<path id="Vector_34" d="M508.914 261.941C508.914 261.941 508.914 261.709 508.914 261.246C508.914 260.783 509.164 260.426 509.663 260.176H525.652V252.155L525.706 244.134C526.062 243.67 526.401 243.439 526.722 243.439C527.185 243.439 527.542 243.706 527.791 244.241V260.176H543.727C544.262 260.462 544.529 260.818 544.529 261.246C544.529 261.674 544.262 262.03 543.727 262.316H527.791V278.251C527.506 278.75 527.185 279 526.829 279H526.722H526.615C526.187 279 525.866 278.75 525.652 278.251V262.316H509.663C509.164 262.066 508.914 261.709 508.914 261.246V261.941Z" fill="white"/>
</g>
<g id="Group_31">
<path id="Vector_35" d="M562.187 259.16C562.437 257.663 563.399 255.934 565.075 253.973C566.75 252.012 568.818 251.014 571.278 250.979C572.526 250.979 573.667 251.299 574.701 251.941C575.734 252.583 576.501 253.385 577 254.348C578.497 252.102 580.298 250.979 582.401 250.979C583.72 250.979 584.861 251.371 585.824 252.155C586.786 252.939 587.285 253.991 587.321 255.31C587.321 256.344 587.071 257.182 586.572 257.824C586.073 258.465 585.592 258.857 585.128 259C584.665 259.143 584.255 259.214 583.898 259.214C583.221 259.214 582.668 259.018 582.241 258.626C581.813 258.234 581.599 257.717 581.599 257.075C581.599 255.435 582.49 254.312 584.273 253.706C583.881 253.242 583.168 253.011 582.134 253.011C581.67 253.011 581.332 253.046 581.118 253.118C579.763 253.688 578.765 254.865 578.123 256.647C575.984 264.526 574.914 269.125 574.914 270.444C574.914 271.442 575.2 272.155 575.77 272.583C576.34 273.011 576.964 273.225 577.642 273.225C578.961 273.225 580.262 272.636 581.545 271.46C582.829 270.283 583.702 268.84 584.166 267.128C584.273 266.772 584.38 266.576 584.487 266.54C584.594 266.504 584.879 266.469 585.342 266.433H585.556C586.091 266.433 586.358 266.576 586.358 266.861C586.358 266.897 586.323 267.093 586.251 267.449C585.681 269.481 584.576 271.282 582.936 272.85C581.296 274.419 579.389 275.203 577.214 275.203C574.718 275.203 572.829 274.08 571.545 271.834C570.084 274.045 568.408 275.15 566.519 275.15H566.198C564.451 275.15 563.203 274.686 562.455 273.759C561.706 272.832 561.314 271.852 561.278 270.818C561.278 269.677 561.617 268.75 562.294 268.037C562.971 267.324 563.774 266.968 564.701 266.968C566.234 266.968 567 267.717 567 269.214C567 269.927 566.786 270.551 566.358 271.086C565.93 271.62 565.521 271.977 565.128 272.155C564.736 272.333 564.504 272.422 564.433 272.422L564.273 272.476C564.273 272.512 564.38 272.583 564.594 272.69C564.808 272.797 565.093 272.922 565.449 273.064C565.806 273.207 566.144 273.26 566.465 273.225C567.749 273.225 568.854 272.422 569.781 270.818C570.102 270.248 570.512 269.036 571.011 267.182C571.51 265.328 572.009 263.403 572.508 261.406C573.007 259.41 573.292 258.234 573.364 257.877C573.542 256.914 573.631 256.219 573.631 255.791C573.631 254.793 573.364 254.08 572.829 253.652C572.294 253.225 571.688 253.011 571.011 253.011C569.585 253.011 568.248 253.581 567 254.722C565.752 255.863 564.879 257.324 564.38 259.107C564.308 259.428 564.219 259.606 564.112 259.642C564.005 259.677 563.72 259.713 563.257 259.749H562.508C562.294 259.535 562.187 259.339 562.187 259.16Z" fill="white"/>
</g>
<g id="Group_32">
<path id="Vector_36" d="M607.845 256.059C607.845 255.595 608.094 255.239 608.594 254.989H642.658C643.193 255.275 643.46 255.631 643.46 256.059C643.46 256.451 643.21 256.79 642.711 257.075L625.706 257.128H608.701C608.13 256.95 607.845 256.594 607.845 256.059ZM607.845 266.433C607.845 265.898 608.13 265.542 608.701 265.364H642.711C643.21 265.72 643.46 266.077 643.46 266.433C643.46 266.897 643.193 267.253 642.658 267.503H608.594C608.094 267.253 607.845 266.897 607.845 266.433Z" fill="white"/>
</g>
<g id="Group_33">
<path id="Vector_37" d="M667.139 251.674C666.176 251.674 665.41 251.353 664.84 250.711C664.269 250.07 663.984 249.285 663.984 248.358C663.984 245.827 664.929 243.635 666.818 241.781C668.708 239.927 671.061 239 673.877 239C677.121 239 679.831 239.998 682.005 241.995C684.18 243.991 685.285 246.576 685.321 249.749C685.321 251.282 684.964 252.743 684.251 254.134C683.538 255.524 682.683 256.736 681.684 257.77C680.686 258.804 679.26 260.123 677.406 261.727C676.123 262.832 674.34 264.472 672.059 266.647L668.904 269.642L672.968 269.695C678.565 269.695 681.542 269.606 681.898 269.428C682.148 269.357 682.576 267.77 683.182 264.668V264.508H685.321V264.668C685.285 264.775 685.053 266.398 684.626 269.535C684.198 272.672 683.93 274.312 683.824 274.455V274.615H663.984V273.599V272.957C663.984 272.708 664.091 272.44 664.305 272.155C664.519 271.87 665.053 271.246 665.909 270.283C666.943 269.143 667.834 268.144 668.583 267.289C668.904 266.932 669.51 266.273 670.401 265.31C671.292 264.348 671.898 263.688 672.219 263.332C672.54 262.975 673.057 262.387 673.77 261.567C674.483 260.747 674.982 260.141 675.267 259.749C675.553 259.357 675.963 258.822 676.497 258.144C677.032 257.467 677.406 256.897 677.62 256.433C677.834 255.97 678.102 255.453 678.422 254.882C678.743 254.312 678.975 253.742 679.118 253.171C679.26 252.601 679.385 252.066 679.492 251.567C679.599 251.068 679.652 250.48 679.652 249.802C679.652 247.556 679.046 245.613 677.834 243.973C676.622 242.333 674.893 241.513 672.647 241.513C671.471 241.513 670.437 241.816 669.545 242.422C668.654 243.029 668.03 243.617 667.674 244.187C667.317 244.758 667.139 245.096 667.139 245.203C667.139 245.239 667.228 245.257 667.406 245.257C668.048 245.257 668.708 245.506 669.385 246.005C670.062 246.504 670.401 247.324 670.401 248.465C670.401 249.357 670.116 250.105 669.545 250.711C668.975 251.317 668.173 251.638 667.139 251.674Z" fill="white"/>
<path id="Vector_38" d="M690.294 257.877C690.294 252.066 691.738 247.467 694.626 244.08C697.513 240.693 700.722 239 704.251 239C706.711 239 708.476 239.642 709.545 240.925C710.615 242.209 711.15 243.635 711.15 245.203C711.15 246.094 710.9 246.807 710.401 247.342C709.902 247.877 709.207 248.144 708.316 248.144C707.496 248.144 706.818 247.895 706.283 247.396C705.749 246.897 705.481 246.201 705.481 245.31C705.481 243.742 706.319 242.797 707.995 242.476C707.21 241.692 706.105 241.246 704.679 241.139C702.148 241.139 700.062 242.209 698.422 244.348C696.747 246.701 695.909 250.301 695.909 255.15L695.963 255.364C696.141 255.15 696.283 254.918 696.39 254.668C697.852 252.529 699.759 251.46 702.112 251.46H702.326C703.966 251.46 705.41 251.799 706.658 252.476C707.513 252.975 708.369 253.688 709.225 254.615C710.08 255.542 710.775 256.558 711.31 257.663C712.059 259.41 712.433 261.317 712.433 263.385V264.348C712.433 265.168 712.344 265.934 712.166 266.647C711.774 268.75 710.633 270.8 708.743 272.797C706.854 274.793 704.465 275.791 701.578 275.791C700.579 275.791 699.617 275.649 698.69 275.364C697.763 275.078 696.765 274.544 695.695 273.759C694.626 272.975 693.717 271.923 692.968 270.604C692.219 269.285 691.578 267.556 691.043 265.417C690.508 263.278 690.258 260.765 690.294 257.877ZM701.791 253.385C700.722 253.385 699.795 253.688 699.011 254.294C698.226 254.9 697.62 255.702 697.193 256.701C696.765 257.699 696.462 258.715 696.283 259.749C696.105 260.783 695.998 261.888 695.963 263.064C695.963 266.023 696.176 268.144 696.604 269.428C697.032 270.711 697.709 271.745 698.636 272.529C699.492 273.171 700.437 273.492 701.471 273.492C703.289 273.492 704.679 272.815 705.642 271.46C706.105 270.818 706.426 270.016 706.604 269.053C706.783 268.091 706.872 266.219 706.872 263.439C706.872 260.586 706.783 258.679 706.604 257.717C706.426 256.754 706.105 255.952 705.642 255.31C704.679 254.027 703.396 253.385 701.791 253.385Z" fill="white"/>
</g>
</g>
</g>
<g id="\therefore\; x=26-12=14">
<g id="Group_34">
<g id="Group_35">
<path id="Vector_39" d="M383.123 332.018C383.123 331.105 383.439 330.35 384.071 329.752C384.704 329.155 385.459 328.856 386.337 328.856C387.181 328.856 387.901 329.155 388.498 329.752C389.095 330.35 389.412 331.105 389.447 332.018C389.482 332.932 389.183 333.687 388.551 334.285C387.918 334.882 387.163 335.18 386.285 335.18C385.371 335.18 384.616 334.882 384.018 334.285C383.421 333.687 383.123 332.932 383.123 332.018ZM373.162 351.676C374.076 351.676 374.813 351.975 375.375 352.572C375.938 353.169 376.236 353.924 376.271 354.838C376.271 355.681 375.99 356.419 375.428 357.051C374.866 357.684 374.093 358 373.109 358C372.196 358 371.458 357.701 370.896 357.104C370.334 356.507 370.035 355.751 370 354.838C370 353.924 370.299 353.169 370.896 352.572C371.493 351.975 372.249 351.676 373.162 351.676ZM396.35 354.838C396.35 353.924 396.649 353.169 397.246 352.572C397.844 351.975 398.599 351.676 399.513 351.676C400.356 351.676 401.076 351.975 401.673 352.572C402.271 353.169 402.587 353.924 402.622 354.838C402.622 355.646 402.341 356.366 401.779 356.999C401.217 357.631 400.444 357.965 399.46 358C398.546 358 397.809 357.701 397.246 357.104C396.684 356.507 396.386 355.751 396.35 354.838Z" fill="white"/>
</g>
<g id="Group_36">
<path id="Vector_40" d="M435.908 338.448C436.154 336.972 437.102 335.268 438.754 333.336C440.405 331.404 442.443 330.42 444.867 330.385C446.097 330.385 447.221 330.701 448.24 331.333C449.259 331.966 450.014 332.756 450.506 333.705C451.982 331.491 453.756 330.385 455.829 330.385C457.129 330.385 458.253 330.771 459.202 331.544C460.15 332.317 460.642 333.354 460.677 334.654C460.677 335.672 460.431 336.498 459.939 337.13C459.448 337.763 458.973 338.149 458.517 338.29C458.06 338.43 457.656 338.501 457.304 338.501C456.637 338.501 456.092 338.307 455.671 337.921C455.249 337.534 455.038 337.025 455.038 336.393C455.038 334.776 455.917 333.67 457.673 333.072C457.287 332.616 456.584 332.387 455.565 332.387C455.109 332.387 454.775 332.423 454.564 332.493C453.229 333.055 452.245 334.214 451.613 335.971C449.505 343.736 448.451 348.268 448.451 349.568C448.451 350.552 448.732 351.254 449.294 351.676C449.856 352.098 450.471 352.308 451.138 352.308C452.438 352.308 453.721 351.729 454.986 350.569C456.25 349.41 457.111 347.987 457.568 346.3C457.673 345.949 457.779 345.756 457.884 345.721C457.99 345.686 458.271 345.65 458.727 345.615H458.938C459.465 345.615 459.729 345.756 459.729 346.037C459.729 346.072 459.694 346.265 459.623 346.617C459.061 348.619 457.972 350.394 456.356 351.939C454.74 353.485 452.86 354.258 450.717 354.258C448.257 354.258 446.395 353.152 445.13 350.938C443.69 353.116 442.039 354.206 440.177 354.206H439.86C438.139 354.206 436.909 353.749 436.171 352.835C435.434 351.922 435.047 350.956 435.012 349.937C435.012 348.812 435.346 347.899 436.013 347.196C436.681 346.494 437.471 346.142 438.385 346.142C439.896 346.142 440.651 346.88 440.651 348.356C440.651 349.058 440.44 349.673 440.018 350.2C439.597 350.727 439.193 351.079 438.806 351.254C438.42 351.43 438.192 351.518 438.121 351.518L437.963 351.571C437.963 351.606 438.069 351.676 438.279 351.781C438.49 351.887 438.771 352.01 439.123 352.15C439.474 352.291 439.808 352.343 440.124 352.308C441.389 352.308 442.478 351.518 443.391 349.937C443.708 349.375 444.112 348.18 444.603 346.353C445.095 344.526 445.587 342.629 446.079 340.661C446.571 338.694 446.852 337.534 446.922 337.183C447.098 336.235 447.186 335.549 447.186 335.128C447.186 334.144 446.922 333.441 446.395 333.02C445.868 332.598 445.271 332.387 444.603 332.387C443.198 332.387 441.881 332.95 440.651 334.074C439.421 335.198 438.56 336.639 438.069 338.395C437.998 338.711 437.91 338.887 437.805 338.922C437.7 338.957 437.419 338.993 436.962 339.028H436.224C436.013 338.817 435.908 338.624 435.908 338.448Z" fill="white"/>
</g>
<g id="Group_37">
<path id="Vector_41" d="M480.899 335.391C480.899 334.935 481.144 334.583 481.636 334.337H515.207C515.734 334.618 515.997 334.97 515.997 335.391C515.997 335.778 515.751 336.112 515.26 336.393L498.501 336.445H481.742C481.18 336.27 480.899 335.918 480.899 335.391ZM480.899 345.615C480.899 345.088 481.18 344.737 481.742 344.561H515.26C515.751 344.913 515.997 345.264 515.997 345.615C515.997 346.072 515.734 346.423 515.207 346.669H481.636C481.144 346.423 480.899 346.072 480.899 345.615Z" fill="white"/>
</g>
<g id="Group_38">
<path id="Vector_42" d="M539.333 331.07C538.385 331.07 537.629 330.754 537.067 330.121C536.505 329.489 536.224 328.716 536.224 327.802C536.224 325.308 537.155 323.147 539.017 321.32C540.879 319.493 543.198 318.58 545.974 318.58C549.171 318.58 551.841 319.563 553.984 321.531C556.127 323.498 557.216 326.046 557.252 329.173C557.252 330.683 556.9 332.124 556.198 333.494C555.495 334.864 554.652 336.059 553.668 337.078C552.684 338.097 551.279 339.397 549.452 340.978C548.187 342.067 546.43 343.683 544.182 345.826L541.072 348.777L545.078 348.83C550.594 348.83 553.527 348.742 553.879 348.567C554.125 348.496 554.546 346.933 555.144 343.876V343.718H557.252V343.876C557.216 343.982 556.988 345.58 556.566 348.672C556.145 351.764 555.881 353.38 555.776 353.52V353.678H536.224V352.677V352.045C536.224 351.799 536.329 351.535 536.54 351.254C536.751 350.973 537.278 350.358 538.121 349.41C539.14 348.285 540.018 347.302 540.756 346.458C541.072 346.107 541.67 345.457 542.548 344.509C543.426 343.56 544.024 342.91 544.34 342.559C544.656 342.207 545.165 341.628 545.868 340.819C546.571 340.011 547.063 339.414 547.344 339.028C547.625 338.641 548.029 338.114 548.556 337.447C549.083 336.779 549.452 336.217 549.663 335.76C549.873 335.303 550.137 334.794 550.453 334.232C550.769 333.67 550.998 333.108 551.138 332.545C551.279 331.983 551.402 331.456 551.507 330.964C551.613 330.473 551.665 329.893 551.665 329.225C551.665 327.012 551.068 325.097 549.873 323.481C548.679 321.865 546.975 321.057 544.761 321.057C543.602 321.057 542.583 321.355 541.705 321.953C540.826 322.55 540.212 323.13 539.86 323.692C539.509 324.254 539.333 324.588 539.333 324.693C539.333 324.728 539.421 324.746 539.597 324.746C540.229 324.746 540.879 324.992 541.547 325.484C542.214 325.975 542.548 326.783 542.548 327.908C542.548 328.786 542.267 329.524 541.705 330.121C541.143 330.718 540.352 331.035 539.333 331.07Z" fill="white"/>
<path id="Vector_43" d="M562.153 337.183C562.153 331.456 563.576 326.924 566.421 323.586C569.267 320.249 572.429 318.58 575.908 318.58C578.332 318.58 580.071 319.212 581.125 320.477C582.179 321.742 582.706 323.147 582.706 324.693C582.706 325.571 582.46 326.274 581.968 326.801C581.476 327.328 580.791 327.592 579.913 327.592C579.105 327.592 578.437 327.346 577.91 326.854C577.383 326.362 577.12 325.677 577.12 324.798C577.12 323.253 577.945 322.321 579.597 322.005C578.824 321.232 577.735 320.793 576.329 320.688C573.835 320.688 571.779 321.742 570.163 323.85C568.512 326.169 567.686 329.717 567.686 334.495L567.739 334.706C567.915 334.495 568.055 334.267 568.161 334.021C569.601 331.913 571.481 330.859 573.8 330.859H574.01C575.627 330.859 577.05 331.193 578.279 331.86C579.122 332.352 579.966 333.055 580.809 333.968C581.652 334.882 582.337 335.883 582.864 336.972C583.602 338.694 583.971 340.574 583.971 342.611V343.56C583.971 344.368 583.883 345.123 583.707 345.826C583.321 347.899 582.197 349.919 580.335 351.887C578.472 353.854 576.118 354.838 573.273 354.838C572.289 354.838 571.34 354.697 570.427 354.416C569.513 354.135 568.53 353.608 567.476 352.835C566.421 352.062 565.526 351.026 564.788 349.726C564.05 348.426 563.418 346.722 562.891 344.614C562.364 342.506 562.118 340.029 562.153 337.183ZM573.483 332.756C572.429 332.756 571.516 333.055 570.743 333.652C569.97 334.249 569.373 335.04 568.951 336.024C568.53 337.007 568.231 338.009 568.055 339.028C567.88 340.047 567.774 341.136 567.739 342.295C567.739 345.211 567.95 347.302 568.371 348.567C568.793 349.831 569.461 350.85 570.374 351.623C571.217 352.256 572.148 352.572 573.167 352.572C574.959 352.572 576.329 351.904 577.278 350.569C577.735 349.937 578.051 349.146 578.227 348.198C578.402 347.249 578.49 345.404 578.49 342.664C578.49 339.853 578.402 337.974 578.227 337.025C578.051 336.076 577.735 335.286 577.278 334.653C576.329 333.389 575.064 332.756 573.483 332.756Z" fill="white"/>
</g>
<g id="Group_39">
<path id="Vector_44" d="M602.427 341.188C602.427 341.188 602.427 340.96 602.427 340.503C602.427 340.047 602.673 339.695 603.165 339.449H633.784C634.311 339.73 634.574 340.082 634.574 340.503C634.574 340.925 634.311 341.276 633.784 341.557H603.165C602.673 341.311 602.427 340.96 602.427 340.503V341.188Z" fill="white"/>
</g>
<g id="Group_40">
<path id="Vector_45" d="M661.942 323.217L661.257 323.481C660.765 323.657 660.062 323.832 659.149 324.008C658.235 324.184 657.217 324.307 656.092 324.377H655.091V321.953H656.092C657.744 321.882 659.272 321.619 660.677 321.162C662.083 320.705 663.066 320.284 663.629 319.897C664.191 319.511 664.683 319.124 665.104 318.738C665.174 318.632 665.385 318.58 665.737 318.58C666.053 318.58 666.351 318.685 666.632 318.896V334.653L666.685 350.464C666.931 350.71 667.142 350.868 667.318 350.938C667.493 351.008 667.915 351.079 668.582 351.149C669.25 351.219 670.339 351.254 671.85 351.254H673.22V353.679H672.64C671.903 353.573 669.109 353.52 664.261 353.52C659.483 353.52 656.725 353.573 655.987 353.679H655.354V351.254H656.725C657.498 351.254 658.165 351.254 658.727 351.254C659.289 351.254 659.729 351.237 660.045 351.202C660.361 351.166 660.642 351.114 660.888 351.043C661.134 350.973 661.275 350.938 661.31 350.938C661.345 350.938 661.45 350.85 661.626 350.675C661.802 350.499 661.907 350.429 661.942 350.464V323.217Z" fill="white"/>
<path id="Vector_46" d="M682.812 331.07C681.863 331.07 681.108 330.754 680.546 330.121C679.983 329.489 679.702 328.716 679.702 327.802C679.702 325.308 680.633 323.147 682.496 321.32C684.358 319.493 686.676 318.58 689.452 318.58C692.649 318.58 695.319 319.563 697.463 321.531C699.606 323.498 700.695 326.046 700.73 329.173C700.73 330.683 700.379 332.124 699.676 333.494C698.973 334.864 698.13 336.059 697.146 337.078C696.163 338.097 694.757 339.397 692.93 340.978C691.665 342.067 689.909 343.683 687.66 345.826L684.551 348.777L688.556 348.83C694.072 348.83 697.006 348.742 697.357 348.567C697.603 348.496 698.025 346.933 698.622 343.876V343.718H700.73V343.876C700.695 343.982 700.467 345.58 700.045 348.672C699.623 351.764 699.36 353.38 699.254 353.52V353.679H679.702V352.677V352.045C679.702 351.799 679.808 351.535 680.019 351.254C680.229 350.973 680.756 350.358 681.6 349.41C682.618 348.285 683.497 347.302 684.235 346.458C684.551 346.107 685.148 345.457 686.026 344.509C686.905 343.56 687.502 342.91 687.818 342.559C688.135 342.207 688.644 341.628 689.347 340.819C690.049 340.011 690.541 339.414 690.822 339.028C691.103 338.641 691.507 338.114 692.034 337.447C692.561 336.779 692.93 336.217 693.141 335.76C693.352 335.303 693.615 334.794 693.932 334.232C694.248 333.67 694.476 333.108 694.617 332.545C694.757 331.983 694.88 331.456 694.986 330.964C695.091 330.473 695.144 329.893 695.144 329.225C695.144 327.012 694.546 325.097 693.352 323.481C692.157 321.865 690.453 321.057 688.24 321.057C687.08 321.057 686.062 321.355 685.183 321.953C684.305 322.55 683.69 323.13 683.339 323.692C682.987 324.254 682.812 324.588 682.812 324.693C682.812 324.728 682.9 324.746 683.075 324.746C683.708 324.746 684.358 324.992 685.025 325.484C685.693 325.975 686.026 326.783 686.026 327.908C686.026 328.786 685.745 329.524 685.183 330.121C684.621 330.718 683.831 331.035 682.812 331.07Z" fill="white"/>
</g>
<g id="Group_41">
<path id="Vector_47" d="M721.004 335.391C721.004 334.935 721.25 334.583 721.742 334.337H755.312C755.839 334.618 756.103 334.97 756.103 335.391C756.103 335.778 755.857 336.112 755.365 336.393L738.606 336.445H721.847C721.285 336.27 721.004 335.918 721.004 335.391ZM721.004 345.615C721.004 345.088 721.285 344.737 721.847 344.561H755.365C755.857 344.913 756.103 345.264 756.103 345.615C756.103 346.072 755.839 346.423 755.312 346.669H721.742C721.25 346.423 721.004 346.072 721.004 345.615Z" fill="white"/>
</g>
<g id="Group_42">
<path id="Vector_48" d="M784.92 323.217L784.234 323.481C783.743 323.657 783.04 323.832 782.126 324.008C781.213 324.184 780.194 324.307 779.07 324.377H778.068V321.953H779.07C780.721 321.882 782.249 321.619 783.655 321.162C785.06 320.705 786.044 320.284 786.606 319.897C787.168 319.511 787.66 319.124 788.082 318.738C788.152 318.632 788.363 318.58 788.714 318.58C789.03 318.58 789.329 318.685 789.61 318.896V334.653L789.663 350.464C789.909 350.71 790.119 350.868 790.295 350.938C790.471 351.008 790.892 351.079 791.56 351.149C792.227 351.219 793.317 351.254 794.827 351.254H796.198V353.679H795.618C794.88 353.573 792.087 353.52 787.238 353.52C782.46 353.52 779.702 353.573 778.964 353.679H778.332V351.254H779.702C780.475 351.254 781.143 351.254 781.705 351.254C782.267 351.254 782.706 351.237 783.022 351.202C783.339 351.166 783.62 351.114 783.866 351.043C784.111 350.973 784.252 350.938 784.287 350.938C784.322 350.938 784.428 350.85 784.603 350.675C784.779 350.499 784.884 350.429 784.92 350.464V323.217Z" fill="white"/>
<path id="Vector_49" d="M824.393 353.679C823.76 353.573 821.494 353.52 817.594 353.52C813.519 353.52 811.165 353.573 810.532 353.679H810.058V351.254H811.692C812.394 351.254 812.869 351.254 813.115 351.254C813.36 351.254 813.659 351.219 814.01 351.149C814.362 351.079 814.608 350.991 814.748 350.885C814.889 350.78 815.012 350.639 815.117 350.464C815.152 350.393 815.17 349.445 815.17 347.618V344.983H801.52V342.559L809.478 330.385C814.854 322.234 817.577 318.141 817.647 318.105C817.717 318.035 818.086 318 818.754 318H819.702L820.018 318.316V342.559H824.867V344.983H820.018V347.671C820.018 349.111 820.018 349.954 820.018 350.2C820.018 350.446 820.124 350.657 820.335 350.833C820.616 351.079 821.617 351.219 823.339 351.254H824.867V353.679H824.393ZM815.486 342.559V324.957L803.945 342.506L809.689 342.559H815.486Z" fill="white"/>
</g>
</g>
</g>
</g>
</g>
</svg>
