<svg width="36" height="38" viewBox="0 0 36 38" fill="none" xmlns="http://www.w3.org/2000/svg">
<g filter="url(#filter0_d)">
<path d="M18 2C15.2311 2 12.5243 2.82109 10.222 4.35943C7.91973 5.89777 6.12532 8.08427 5.06569 10.6424C4.00607 13.2006 3.72882 16.0155 4.26901 18.7313C4.80921 21.447 6.14258 23.9416 8.10051 25.8995C10.0584 27.8574 12.553 29.1908 15.2687 29.731C17.9845 30.2712 20.7994 29.9939 23.3576 28.9343C25.9157 27.8747 28.1022 26.0803 29.6406 23.778C31.1789 21.4757 32 18.7689 32 16C32 12.287 30.525 8.72601 27.8995 6.1005C25.274 3.475 21.713 2 18 2V2ZM26 24.919V24.311C26.0278 22.9474 25.5197 21.6273 24.5848 20.6342C23.6499 19.6412 22.3628 19.0544 21 19H15C13.6384 19.0547 12.3526 19.6417 11.4194 20.6348C10.4862 21.6279 9.98008 22.9476 10.01 24.31C10.01 24.321 10 24.332 10 24.343V24.928C8.18591 23.3087 6.90634 21.1766 6.33067 18.8141C5.755 16.4515 5.91036 13.9698 6.7762 11.6975C7.64204 9.42515 9.17753 7.46933 11.1794 6.08891C13.1813 4.70849 15.5552 3.96855 17.9869 3.96703C20.4186 3.96551 22.7934 4.70248 24.797 6.0804C26.8007 7.45832 28.3386 9.41221 29.2073 11.6835C30.0759 13.9547 30.2344 16.4362 29.6617 18.7995C29.089 21.1628 27.8121 23.2964 26 24.918V24.919Z" fill="#AD7D7D"/>
<path d="M18 7C17.0111 7 16.0444 7.29324 15.2222 7.84265C14.3999 8.39206 13.759 9.17295 13.3806 10.0866C13.0022 11.0002 12.9031 12.0055 13.0961 12.9755C13.289 13.9454 13.7652 14.8363 14.4645 15.5355C15.1637 16.2348 16.0546 16.711 17.0246 16.9039C17.9945 17.0969 18.9998 16.9978 19.9134 16.6194C20.8271 16.241 21.6079 15.6001 22.1574 14.7779C22.7068 13.9556 23 12.9889 23 12C23 10.6739 22.4732 9.40215 21.5355 8.46447C20.5979 7.52678 19.3261 7 18 7V7Z" fill="#AD7D7D"/>
</g>
<defs>
<filter id="filter0_d" x="-2" y="0" width="40" height="40" filterUnits="userSpaceOnUse" color-interpolation-filters="sRGB">
<feFlood flood-opacity="0" result="BackgroundImageFix"/>
<feColorMatrix in="SourceAlpha" type="matrix" values="0 0 0 0 0 0 0 0 0 0 0 0 0 0 0 0 0 0 127 0"/>
<feOffset dy="4"/>
<feGaussianBlur stdDeviation="2"/>
<feColorMatrix type="matrix" values="0 0 0 0 0 0 0 0 0 0 0 0 0 0 0 0 0 0 0.25 0"/>
<feBlend mode="normal" in2="BackgroundImageFix" result="effect1_dropShadow"/>
<feBlend mode="normal" in="SourceGraphic" in2="effect1_dropShadow" result="shape"/>
</filter>
</defs>
</svg>
