<svg width="32" height="29" viewBox="0 0 32 29" fill="none" xmlns="http://www.w3.org/2000/svg"><path d="M28.5714.0H3.42857C2.51926.0 1.64719.319036 1.00421.886924.361223 1.45481.0 2.22503.0 3.02815V25.2346C0 26.0377.361223 26.8079 1.00421 27.3758 1.64719 27.9437 2.51926 28.2627 3.42857 28.2627H13.2321V18.654H8.73214V14.1313H13.2321V10.6843C13.2321 6.76349 15.875 4.59773 19.9229 4.59773 21.8614 4.59773 23.8886 4.90307 23.8886 4.90307V8.75134H21.655C19.4543 8.75134 18.7679 9.95755 18.7679 11.1947V14.1313H23.6807L22.895 18.654H18.7679V28.2627h9.8035C29.4807 28.2627 30.3528 27.9437 30.9958 27.3758 31.6388 26.8079 32 26.0377 32 25.2346V3.02815C32 2.22503 31.6388 1.45481 30.9958.886924 30.3528.319036 29.4807.0 28.5714.0z" fill="#fff" /></svg>