<svg width="32" height="21" viewBox="0 0 32 21" fill="none" xmlns="http://www.w3.org/2000/svg"><path d="M31.3313 3.52491C30.9633 2.30099 29.879 1.33707 28.5022 1.00994 26.0067.415527 16 .415527 16 .415527 16 .415527 5.99337.415527 3.49781 1.00994 2.12103 1.33712 1.0367 2.30099.668671 3.52491.0 5.74334.0 10.3719.0 10.3719.0 10.3719.0 15.0004.668671 17.2189 1.0367 18.4428 2.12103 19.3665 3.49781 19.6937 5.99337 20.2881 16 20.2881 16 20.2881 16 20.2881 26.0066 20.2881 28.5022 19.6937 29.879 19.3665 30.9633 18.4428 31.3313 17.2189 32 15.0004 32 10.3719 32 10.3719 32 10.3719 32 5.74334 31.3313 3.52491zM12.7273 14.5743V6.16951L21.0909 10.372 12.7273 14.5743z" fill="#fff"/></svg>