<svg width="32" height="24" viewBox="0 0 32 24" fill="none" xmlns="http://www.w3.org/2000/svg"><path d="M28.7107 6.37005C28.7311 6.6211 28.7311 6.8722 28.7311 7.12325 28.7311 14.7806 22.1321 23.6038 10.0711 23.6038 6.35534 23.6038 2.90357 22.6533.0 21.0035.52794 21.0573 1.0355 21.0752 1.58376 21.0752 4.64971 21.0752 7.47209 20.1606 9.72591 18.6005 6.84265 18.5466 4.42639 16.8789 3.59389 14.5834 4.00002 14.6372 4.40608 14.6731 4.83252 14.6731 5.42133 14.6731 6.01021 14.6013 6.5584 14.4758 3.55333 13.9378 1.29944 11.6065 1.29944 8.79102V8.71932C2.17251 9.14971 3.18783 9.41871 4.26389 9.45453 2.49738 8.41439 1.34007 6.63904 1.34007 4.63052 1.34007 3.55455 1.66488 2.56823 2.23345 1.70744 5.4619 5.22232 10.3147 7.51772 15.7563 7.76882 15.6548 7.33843 15.5939 6.89014 15.5939 6.44181 15.5939 3.24968 18.5178.649414 22.1523.649414 24.0406.649414 25.7462 1.3488 26.9442 2.47859 28.4264 2.22754 29.8477 1.74332 31.1066 1.07981 30.6192 2.42482 29.5837 3.55461 28.2234 4.27188 29.5432 4.14641 30.8224 3.82354 32 3.37526 31.1067 4.52293 29.9899 5.54508 28.7107 6.37005z" fill="#fff"/></svg>