<svg width="32" height="21" viewBox="0 0 32 21" fill="none" xmlns="http://www.w3.org/2000/svg">
<path d="M31.3313 3.52491C30.9633 2.30099 29.879 1.33707 28.5022 1.00994C26.0067 0.415527 16 0.415527 16 0.415527C16 0.415527 5.99337 0.415527 3.49781 1.00994C2.12103 1.33712 1.0367 2.30099 0.668671 3.52491C0 5.74334 0 10.3719 0 10.3719C0 10.3719 0 15.0004 0.668671 17.2189C1.0367 18.4428 2.12103 19.3665 3.49781 19.6937C5.99337 20.2881 16 20.2881 16 20.2881C16 20.2881 26.0066 20.2881 28.5022 19.6937C29.879 19.3665 30.9633 18.4428 31.3313 17.2189C32 15.0004 32 10.3719 32 10.3719C32 10.3719 32 5.74334 31.3313 3.52491ZM12.7273 14.5743V6.16951L21.0909 10.372L12.7273 14.5743Z" fill="white"/>
</svg>
