<svg width="39" height="32" viewBox="0 0 39 32" fill="none" xmlns="http://www.w3.org/2000/svg">
<path d="M29.184 7.52L38.016 16.032L29.184 24.48V18.816H15.968V13.184H29.184V7.52ZM23.872 23.904L27.264 27.328C23.936 30.4427 20.3307 32 16.448 32C11.8187 32 7.92 30.4693 4.752 27.408C1.584 24.3467 0 20.5227 0 15.936C0 13.056 0.725333 10.3893 2.176 7.936C3.62667 5.48266 5.584 3.54667 8.048 2.128C10.512 0.709333 13.184 0 16.064 0C19.9893 0 23.712 1.57867 27.232 4.736L23.872 8.128C21.44 5.90933 18.848 4.8 16.096 4.8C12.9173 4.8 10.2347 5.90933 8.048 8.128C5.86133 10.3467 4.768 13.056 4.768 16.256C4.768 19.2427 5.89333 21.8133 8.144 23.968C10.3947 26.1227 13.0347 27.2 16.064 27.2C18.8587 27.2 21.4613 26.1013 23.872 23.904Z" fill="#4E2CBE"/>
</svg>
