<svg width="32" height="29" viewBox="0 0 32 29" fill="none" xmlns="http://www.w3.org/2000/svg">
<path d="M16.0036 6.88515C11.4632 6.88515 7.801 10.1204 7.801 14.1313C7.801 18.1423 11.4632 21.3775 16.0036 21.3775C20.5439 21.3775 24.2061 18.1423 24.2061 14.1313C24.2061 10.1204 20.5439 6.88515 16.0036 6.88515ZM16.0036 18.8423C13.0695 18.8423 10.6708 16.7296 10.6708 14.1313C10.6708 11.5331 13.0624 9.42037 16.0036 9.42037C18.9448 9.42037 21.3363 11.5331 21.3363 14.1313C21.3363 16.7296 18.9376 18.8423 16.0036 18.8423ZM26.4549 6.58874C26.4549 7.52842 25.5982 8.27889 24.5417 8.27889C23.478 8.27889 22.6284 7.52211 22.6284 6.58874C22.6284 5.65538 23.4851 4.89859 24.5417 4.89859C25.5982 4.89859 26.4549 5.65538 26.4549 6.58874ZM31.8876 8.30412C31.7662 6.04008 31.1808 4.0346 29.3033 2.38229C27.4329 0.72998 25.1627 0.212845 22.5999 0.0993278C19.9585 -0.0331093 12.0415 -0.0331093 9.40011 0.0993278C6.8444 0.206539 4.57423 0.723674 2.69671 2.37598C0.819186 4.02829 0.240937 6.03377 0.112437 8.29781C-0.0374791 10.6312 -0.0374791 17.6252 0.112437 19.9586C0.233798 22.2226 0.819186 24.2281 2.69671 25.8804C4.57423 27.5327 6.83726 28.0499 9.40011 28.1634C12.0415 28.2958 19.9585 28.2958 22.5999 28.1634C25.1627 28.0562 27.4329 27.539 29.3033 25.8804C31.1737 24.2281 31.7591 22.2226 31.8876 19.9586C32.0375 17.6252 32.0375 10.6375 31.8876 8.30412ZM28.4752 22.4623C27.9184 23.6983 26.8404 24.6506 25.434 25.1488C23.3281 25.8867 18.3308 25.7164 16.0036 25.7164C13.6763 25.7164 8.67195 25.8804 6.57312 25.1488C5.1739 24.6569 4.09593 23.7047 3.53196 22.4623C2.69671 20.6018 2.88946 16.1873 2.88946 14.1313C2.88946 12.0754 2.70385 7.65455 3.53196 5.80043C4.08879 4.56435 5.16676 3.61206 6.57312 3.11385C8.67909 2.37598 13.6763 2.54626 16.0036 2.54626C18.3308 2.54626 23.3352 2.38229 25.434 3.11385C26.8332 3.60576 27.9112 4.55804 28.4752 5.80043C29.3104 7.66085 29.1177 12.0754 29.1177 14.1313C29.1177 16.1873 29.3104 20.6082 28.4752 22.4623Z" fill="url(#paint0_linear)"/>
<defs>
<linearGradient id="paint0_linear" x1="0" y1="0" x2="28" y2="28" gradientUnits="userSpaceOnUse">
<stop stop-color="#FDC468"/>
<stop offset="1" stop-color="#DF4996"/>
</linearGradient>
</defs>
</svg>
