<svg width="100" height="101" viewBox="0 0 100 101" fill="none" xmlns="http://www.w3.org/2000/svg">
<g clip-path="url(#clip0)">
<g filter="url(#filter0_f)">
<path d="M2.45978 98.0469L9.16095 73.5961C5.04064 66.4414 2.84454 58.3141 2.8672 50.0055C2.8672 23.9695 24.0578 2.80157 50.0938 2.80157C62.7266 2.80157 74.5899 7.71447 83.4875 16.6344C92.4074 25.5543 97.3203 37.4176 97.2977 50.0281C97.2977 76.0637 76.1067 97.232 50.0711 97.232H50.0485C42.1473 97.232 34.3817 95.2399 27.4766 91.4813L2.45978 98.0469ZM28.6539 82.9234L30.0801 83.784C36.1024 87.361 43.0074 89.2399 50.0485 89.2625H50.0711C71.6922 89.2625 89.3055 71.6715 89.3055 50.0281C89.3055 39.5457 85.2305 29.6977 77.8274 22.2715C70.4242 14.8457 60.5531 10.7707 50.0711 10.7707C28.4274 10.7707 10.8137 28.3617 10.8137 50.0051C10.8137 57.4086 12.8738 64.6305 16.8133 70.8793L17.7414 72.3735L13.7797 86.8402L28.6539 82.9234V82.9234Z" fill="black" fill-opacity="0.24"/>
</g>
<path d="M4.60193 95.5231L10.9965 72.2028C7.05342 65.3626 4.97919 57.6055 4.98201 49.7102C4.98201 24.8918 25.1945 4.70197 49.9898 4.70197C62.0414 4.70197 73.3328 9.39728 81.8289 17.8934C90.325 26.3899 94.9984 37.7035 94.9984 49.7324C94.9984 74.5504 74.7859 94.7403 49.9902 94.7403H49.9679C42.4328 94.7403 35.032 92.8399 28.4586 89.2625L4.60193 95.5235V95.5231Z" fill="url(#paint0_linear)"/>
<path d="M2.96991 97.1551L9.58788 73.0078C5.51874 65.9426 3.3496 57.9156 3.37225 49.7102C3.37225 23.9977 24.3 3.09219 50.0129 3.09219C62.4887 3.09219 74.2043 7.94376 82.9918 16.7531C91.8008 25.5625 96.6527 37.2785 96.6304 49.7324C96.6304 75.4449 75.7027 96.3504 49.9898 96.3504H49.968C42.1798 96.3474 34.5163 94.3949 27.6762 90.6711L2.96991 97.1555V97.1551ZM28.8387 82.2195L30.2473 83.0692C36.1949 86.602 43.014 88.4578 49.968 88.4801H49.9902C71.3426 88.4801 88.7379 71.1074 88.7379 49.7324C88.7379 39.3805 84.7133 29.6543 77.4019 22.3207C70.0906 14.9871 60.3422 10.9625 49.9902 10.9625C28.6152 10.9625 11.2203 28.3352 11.2203 49.7102C11.2203 57.0215 13.2547 64.1539 17.1453 70.3246L18.0621 71.8004L14.1492 86.0875L28.8387 82.2195V82.2195Z" fill="white"/>
<path d="M38.3414 30.191C37.4692 28.2457 36.5524 28.2008 35.7254 28.1785C35.0547 28.1562 34.2723 28.1562 33.4895 28.1562C32.7071 28.1562 31.4547 28.4469 30.3817 29.6094C29.3082 30.7723 26.3121 33.5895 26.3121 39.3359C26.3121 45.0594 30.4934 50.6043 31.0746 51.3867C31.6559 52.1695 39.1461 64.3102 50.9738 68.9832C60.8117 72.8738 62.8242 72.091 64.9481 71.8899C67.0946 71.6887 71.8348 69.0727 72.8184 66.3449C73.7797 63.6172 73.7797 61.2918 73.4891 60.8C73.1985 60.3078 72.416 60.0176 71.2531 59.4359C70.0906 58.8547 64.3668 56.0375 63.2938 55.6352C62.2203 55.2328 61.4379 55.0539 60.6778 56.2164C59.8949 57.3789 57.6594 59.9949 56.9883 60.7777C56.3176 61.5602 55.6246 61.6496 54.4617 61.0684C53.2992 60.4871 49.543 59.257 45.0938 55.2773C41.6281 52.1918 39.2805 48.3684 38.6094 47.2059C37.9387 46.0434 38.5426 45.4168 39.1239 44.8359C39.6379 44.3215 40.2864 43.4719 40.868 42.8012C41.4492 42.1305 41.6504 41.6387 42.0305 40.8559C42.4106 40.0734 42.2317 39.4027 41.941 38.8215C41.6504 38.2398 39.3699 32.4938 38.3414 30.191V30.191Z" fill="white"/>
</g>
<defs>
<filter id="filter0_f" x="-3.54022" y="-3.19843" width="106.838" height="107.245" filterUnits="userSpaceOnUse" color-interpolation-filters="sRGB">
<feFlood flood-opacity="0" result="BackgroundImageFix"/>
<feBlend mode="normal" in="SourceGraphic" in2="BackgroundImageFix" result="shape"/>
<feGaussianBlur stdDeviation="3" result="effect1_foregroundBlur"/>
</filter>
<linearGradient id="paint0_linear" x1="49.7984" y1="95.5171" x2="49.7984" y2="4.69651" gradientUnits="userSpaceOnUse">
<stop stop-color="#20B038"/>
<stop offset="1" stop-color="#60D66A"/>
</linearGradient>
<clipPath id="clip0">
<rect width="100" height="100.391" fill="white"/>
</clipPath>
</defs>
</svg>
