<svg viewBox="0 0 1037 466" fill="none" xmlns="http://www.w3.org/2000/svg">
<g id="0305103">
<g id="Group 53">
<g id="clave">
<g id="Group 61">
<path id="Rectangle 4" d="M39 366H222.8L251 406L222.8 446H39V366Z" fill="#28DA10" fill-opacity="0.1"/>
<path id="Rectangle 4 (Stroke)" fill-rule="evenodd" clip-rule="evenodd" d="M221.244 369H42V443H221.244L247.329 406L221.244 369ZM222.8 366H39V446H222.8L251 406L222.8 366Z" fill="#28DA10"/>
<path id="Ellipse 1" d="M80 406C80 428.091 62.0914 446 40 446C17.9086 446 0 428.091 0 406C0 383.909 17.9086 366 40 366C62.0914 366 80 383.909 80 406Z" fill="#28DA10"/>
<path id="Ellipse 1 (Stroke)" fill-rule="evenodd" clip-rule="evenodd" d="M40 445C61.5391 445 79 427.539 79 406C79 384.461 61.5391 367 40 367C18.4609 367 1 384.461 1 406C1 427.539 18.4609 445 40 445ZM40 446C62.0914 446 80 428.091 80 406C80 383.909 62.0914 366 40 366C17.9086 366 0 383.909 0 406C0 428.091 17.9086 446 40 446Z" fill="#28DA10"/>
<path id="A" d="M48.3125 414.25H27.6562L22.9688 427H18.9375L36.1562 381.5H39.8125L57.0312 427H53.0312L48.3125 414.25ZM28.8438 410.969H47.0938L37.9688 386.188L28.8438 410.969Z" fill="white"/>
<path id="A (Stroke)" fill-rule="evenodd" clip-rule="evenodd" d="M53.0313 427L48.3125 414.25H27.6563L22.9688 427H18.9375L36.1563 381.5H39.8125L57.0313 427H53.0313ZM28.3541 415.25L23.6666 428H17.4899L35.4655 380.5H40.5033L58.4789 428H52.3351L47.6163 415.25H28.3541ZM47.0938 410.969L37.9688 386.188L28.8438 410.969H47.0938ZM30.2776 409.969H45.6599L37.9688 389.082L30.2776 409.969Z" fill="#28DA10"/>
</g>
<g id="Group 60">
<path id="Rectangle 5" d="M308 371H486.598L514 411L486.598 451H308V371Z" fill="#28DA10" fill-opacity="0.1"/>
<path id="Rectangle 5 (Stroke)" fill-rule="evenodd" clip-rule="evenodd" d="M485.017 374H311V448H485.017L510.364 411L485.017 374ZM486.598 371H308V451H486.598L514 411L486.598 371Z" fill="#28DA10"/>
<path id="Ellipse 2" d="M349 411C349 433.091 331.091 451 309 451C286.909 451 269 433.091 269 411C269 388.909 286.909 371 309 371C331.091 371 349 388.909 349 411Z" fill="#28DA10"/>
<path id="Ellipse 2 (Stroke)" fill-rule="evenodd" clip-rule="evenodd" d="M309 450C330.539 450 348 432.539 348 411C348 389.461 330.539 372 309 372C287.461 372 270 389.461 270 411C270 432.539 287.461 450 309 450ZM309 451C331.091 451 349 433.091 349 411C349 388.909 331.091 371 309 371C286.909 371 269 388.909 269 411C269 433.091 286.909 451 309 451Z" fill="#28DA10"/>
<path id="B" d="M293.75 427V381.5H307.188C312.062 381.5 315.76 382.51 318.281 384.531C320.802 386.531 322.062 389.49 322.062 393.406C322.062 395.76 321.417 397.812 320.125 399.562C318.854 401.292 317.104 402.531 314.875 403.281C317.521 403.865 319.646 405.167 321.25 407.188C322.875 409.208 323.688 411.542 323.688 414.188C323.688 418.208 322.385 421.354 319.781 423.625C317.198 425.875 313.594 427 308.969 427H293.75ZM297.594 405.125V423.75H309.125C312.417 423.75 315.021 422.917 316.938 421.25C318.875 419.562 319.844 417.229 319.844 414.25C319.844 411.438 318.917 409.219 317.062 407.594C315.229 405.948 312.688 405.125 309.438 405.125H297.594ZM297.594 401.906H308.094C311.302 401.844 313.781 401.094 315.531 399.656C317.302 398.198 318.188 396.083 318.188 393.312C318.188 390.396 317.271 388.25 315.438 386.875C313.625 385.479 310.875 384.781 307.188 384.781H297.594V401.906Z" fill="white"/>
<path id="B (Stroke)" fill-rule="evenodd" clip-rule="evenodd" d="M292.75 428V380.5H307.188C312.178 380.5 316.136 381.531 318.905 383.749C321.715 385.98 323.062 389.259 323.062 393.406C323.062 395.955 322.359 398.22 320.93 400.156C320.036 401.372 318.929 402.363 317.623 403.131C319.353 403.904 320.828 405.048 322.031 406.563C323.801 408.765 324.688 411.32 324.688 414.188C324.688 418.445 323.297 421.886 320.438 424.379C317.618 426.835 313.75 428 308.969 428H292.75ZM321.25 407.188C319.978 405.585 318.379 404.435 316.452 403.736C315.949 403.554 315.423 403.402 314.875 403.281C315.409 403.102 315.915 402.894 316.393 402.659C317.914 401.91 319.158 400.878 320.125 399.562C321.417 397.812 322.062 395.76 322.062 393.406C322.062 389.49 320.802 386.531 318.281 384.531C315.76 382.51 312.062 381.5 307.188 381.5H293.75V427H308.969C313.594 427 317.198 425.875 319.781 423.625C322.385 421.354 323.688 418.208 323.688 414.188C323.688 411.542 322.875 409.208 321.25 407.188ZM316.394 408.338C314.797 406.904 312.521 406.125 309.438 406.125H298.594V422.75H309.125C312.248 422.75 314.594 421.962 316.281 420.496M309.125 423.75C312.417 423.75 315.021 422.917 316.938 421.25C318.875 419.562 319.844 417.229 319.844 414.25C319.844 411.438 318.917 409.219 317.062 407.594C315.229 405.948 312.688 405.125 309.438 405.125H297.594V423.75H309.125ZM316.394 408.338L316.403 408.346ZM314.827 387.667C313.268 386.466 310.779 385.781 307.188 385.781H298.594V400.906H308.084C311.153 400.845 313.38 400.128 314.896 398.884M308.094 401.906H297.594V384.781H307.188C310.875 384.781 313.625 385.479 315.438 386.875C317.271 388.25 318.188 390.396 318.188 393.312C318.188 396.083 317.302 398.198 315.531 399.656C313.781 401.094 311.302 401.844 308.094 401.906ZM314.827 387.667L314.837 387.675ZM316.281 420.496C317.964 419.029 318.844 416.991 318.844 414.25C318.844 411.681 318.009 409.753 316.403 408.346M314.897 398.884C316.388 397.655 317.188 395.852 317.188 393.312C317.188 390.616 316.352 388.811 314.837 387.675" fill="#28DA10"/>
</g>
<g id="Group 59">
<path id="Rectangle 6" d="M568 368H751.8L780 408L751.8 448H568V368Z" fill="#28DA10" fill-opacity="0.1"/>
<path id="Rectangle 6 (Stroke)" fill-rule="evenodd" clip-rule="evenodd" d="M750.244 371H571V445H750.244L776.329 408L750.244 371ZM751.8 368H568V448H751.8L780 408L751.8 368Z" fill="#28DA10"/>
<path id="Ellipse 3" d="M609 408C609 430.091 591.091 448 569 448C546.909 448 529 430.091 529 408C529 385.909 546.909 368 569 368C591.091 368 609 385.909 609 408Z" fill="#28DA10"/>
<path id="Ellipse 3 (Stroke)" fill-rule="evenodd" clip-rule="evenodd" d="M569 447C590.539 447 608 429.539 608 408C608 386.461 590.539 369 569 369C547.461 369 530 386.461 530 408C530 429.539 547.461 447 569 447ZM569 448C591.091 448 609 430.091 609 408C609 385.909 591.091 368 569 368C546.909 368 529 385.909 529 408C529 430.091 546.909 448 569 448Z" fill="#28DA10"/>
<path id="C" d="M584.969 415.812C584.448 420.604 582.729 424.271 579.812 426.812C576.917 429.354 573.052 430.625 568.219 430.625C564.844 430.625 561.854 429.781 559.25 428.094C556.667 426.406 554.667 424.021 553.25 420.938C551.833 417.833 551.115 414.292 551.094 410.312V404.406C551.094 400.365 551.802 396.781 553.219 393.656C554.635 390.531 556.667 388.125 559.312 386.438C561.979 384.729 565.042 383.875 568.5 383.875C573.375 383.875 577.219 385.198 580.031 387.844C582.865 390.469 584.51 394.104 584.969 398.75H581.094C580.135 391.021 575.938 387.156 568.5 387.156C564.375 387.156 561.083 388.698 558.625 391.781C556.188 394.865 554.969 399.125 554.969 404.562V410.125C554.969 415.375 556.156 419.562 558.531 422.688C560.927 425.812 564.156 427.375 568.219 427.375C572.24 427.375 575.271 426.417 577.312 424.5C579.354 422.562 580.615 419.667 581.094 415.812H584.969Z" fill="white"/>
<path id="C (Stroke)" fill-rule="evenodd" clip-rule="evenodd" d="M586.083 414.812L585.963 415.921C585.422 420.897 583.62 424.82 580.471 427.565C577.35 430.304 573.23 431.625 568.219 431.625C564.668 431.625 561.486 430.735 558.706 428.933L558.703 428.931C555.947 427.13 553.829 424.592 552.341 421.355L552.34 421.353C550.856 418.1 550.115 414.415 550.094 410.318L550.094 410.312L550.094 404.406C550.094 400.247 550.823 396.519 552.308 393.243C553.797 389.959 555.95 387.396 558.774 385.595C561.616 383.774 564.869 382.875 568.5 382.875C573.558 382.875 577.671 384.252 580.714 387.113C583.76 389.937 585.487 393.818 585.964 398.652L586.072 399.75H580.21L580.101 398.873C579.641 395.158 578.419 392.512 576.549 390.79C574.685 389.075 572.046 388.156 568.5 388.156C564.664 388.156 561.667 389.571 559.408 392.403C557.156 395.253 555.969 399.266 555.969 404.562V410.125C555.969 415.229 557.123 419.18 559.326 422.081C561.526 424.949 564.456 426.375 568.219 426.375C572.094 426.375 574.837 425.451 576.626 423.773C578.445 422.046 579.64 419.399 580.101 415.689L580.21 414.812H586.083ZM577.312 424.5C575.271 426.417 572.24 427.375 568.219 427.375C564.156 427.375 560.927 425.812 558.531 422.688C556.156 419.562 554.969 415.375 554.969 410.125V404.562C554.969 399.125 556.187 394.865 558.625 391.781C561.083 388.698 564.375 387.156 568.5 387.156C575.937 387.156 580.135 391.021 581.094 398.75H584.969C584.935 398.411 584.896 398.078 584.85 397.75C584.264 393.579 582.658 390.277 580.031 387.844C577.219 385.198 573.375 383.875 568.5 383.875C565.042 383.875 561.979 384.729 559.312 386.438C556.667 388.125 554.635 390.531 553.219 393.656C551.802 396.781 551.094 400.365 551.094 404.406V410.312C551.115 414.292 551.833 417.833 553.25 420.938C554.667 424.021 556.667 426.406 559.25 428.094C561.854 429.781 564.844 430.625 568.219 430.625C573.052 430.625 576.917 429.354 579.812 426.812C582.523 424.451 584.199 421.117 584.84 416.812C584.889 416.485 584.932 416.151 584.969 415.812H581.094C580.615 419.667 579.354 422.562 577.312 424.5Z" fill="#28DA10"/>
</g>
<g id="Group 58">
<path id="Rectangle 7" d="M837 371H1010.4L1037 411L1010.4 451H837V371Z" fill="#28DA10" fill-opacity="0.1"/>
<path id="Rectangle 7 (Stroke)" fill-rule="evenodd" clip-rule="evenodd" d="M1008.79 374H840V448H1008.79L1033.4 411L1008.79 374ZM1010.4 371H837V451H1010.4L1037 411L1010.4 371Z" fill="#28DA10"/>
<path id="Ellipse 4" d="M878 411C878 433.091 860.091 451 838 451C815.909 451 798 433.091 798 411C798 388.909 815.909 371 838 371C860.091 371 878 388.909 878 411Z" fill="#28DA10"/>
<path id="Ellipse 4 (Stroke)" fill-rule="evenodd" clip-rule="evenodd" d="M838 450C859.539 450 877 432.539 877 411C877 389.461 859.539 372 838 372C816.461 372 799 389.461 799 411C799 432.539 816.461 450 838 450ZM838 451C860.091 451 878 433.091 878 411C878 388.909 860.091 371 838 371C815.909 371 798 388.909 798 411C798 433.091 815.909 451 838 451Z" fill="#28DA10"/>
<path id="D" d="M821.75 433V387.5H834.469C838.198 387.5 841.542 388.354 844.5 390.062C847.458 391.75 849.76 394.177 851.406 397.344C853.073 400.51 853.906 404.115 853.906 408.156V412.344C853.906 416.406 853.083 420.01 851.438 423.156C849.792 426.302 847.469 428.729 844.469 430.438C841.49 432.146 838.062 433 834.188 433H821.75ZM825.594 390.781V429.75H834.219C839.01 429.75 842.854 428.167 845.75 425C848.646 421.812 850.094 417.51 850.094 412.094V408.094C850.094 402.865 848.667 398.677 845.812 395.531C842.958 392.385 839.198 390.802 834.531 390.781H825.594Z" fill="white"/>
<path id="D (Stroke)" fill-rule="evenodd" clip-rule="evenodd" d="M820.75 434V386.5H834.469C838.356 386.5 841.874 387.392 844.998 389.195C848.13 390.982 850.563 393.554 852.292 396.881C854.043 400.208 854.906 403.975 854.906 408.156V412.344C854.906 416.544 854.054 420.311 852.324 423.62C850.592 426.93 848.136 429.5 844.965 431.306C841.816 433.111 838.214 434 834.188 434H820.75ZM844.469 430.438C847.469 428.729 849.792 426.302 851.438 423.156C853.083 420.01 853.906 416.406 853.906 412.344V408.156C853.906 404.115 853.073 400.51 851.406 397.344C849.76 394.177 847.458 391.75 844.5 390.062C841.542 388.354 838.198 387.5 834.469 387.5H821.75V433H834.188C838.062 433 841.49 432.146 844.469 430.438ZM825.594 429.75V390.781H834.531C839.198 390.802 842.958 392.385 845.812 395.531C848.667 398.677 850.094 402.865 850.094 408.094V412.094C850.094 417.51 848.646 421.812 845.75 425C842.854 428.167 839.01 429.75 834.219 429.75H825.594ZM845.011 424.326C847.699 421.367 849.094 417.327 849.094 412.094V408.094C849.094 403.053 847.723 399.125 845.072 396.203C842.426 393.287 838.945 391.801 834.529 391.781H826.594V428.75H834.219C838.766 428.75 842.328 427.26 845.011 424.326Z" fill="#28DA10"/>
</g>
</g>
<g id="Group 57">
<g id="5,0 10 2,5 10 2,5 10 5,0 10">
<path d="M87.472 421L83.836 417.328L85.96 415.204L88.876 418.084H97.156L99.136 416.104V409.336L97.156 407.356H85.06V394.468H101.26V397.492H88.336V404.44H98.632L102.412 408.22V417.22L98.632 421H87.472Z" fill="#28DA10"/>
<path d="M105.68 424.96L107.12 416.752H110.288L107.516 424.96H105.68Z" fill="#28DA10"/>
<path d="M119.13 421L115.35 417.22V398.248L119.13 394.468H130.65L134.43 398.248V417.22L130.65 421H119.13ZM120.606 418.084H129.174L131.154 416.104V399.364L129.174 397.384H120.606L118.626 399.364L118.662 416.104L120.606 418.084Z" fill="#28DA10"/>
<path d="M146.911 421V417.976H150.979V397.492H147.343V394.468H154.255V417.976H158.323V421H146.911Z" fill="#28DA10"/>
<path d="M166.345 421L162.565 417.22V398.248L166.345 394.468H177.865L181.645 398.248V417.22L177.865 421H166.345ZM167.821 418.084H176.389L178.369 416.104V399.364L176.389 397.384H167.821L165.841 399.364L165.877 416.104L167.821 418.084Z" fill="#28DA10"/>
<path d="M354.132 421V416.752L368.316 402.82V399.364L366.372 397.348L359.028 397.384L356.112 400.336L353.988 398.176L357.624 394.468H367.848L371.592 398.248V404.116L357.804 417.76V417.976H371.988V421H354.132Z" fill="#28DA10"/>
<path d="M375.328 424.96L376.768 416.752H379.936L377.164 424.96H375.328Z" fill="#28DA10"/>
<path d="M388.023 421L384.387 417.328L386.511 415.204L389.427 418.084H397.707L399.687 416.104V409.336L397.707 407.356H385.611V394.468H401.811V397.492H388.887V404.44H399.183L402.963 408.22V417.22L399.183 421H388.023Z" fill="#28DA10"/>
<path d="M415.435 421V417.976H419.503V397.492H415.867V394.468H422.779V417.976H426.847V421H415.435Z" fill="#28DA10"/>
<path d="M434.869 421L431.089 417.22V398.248L434.869 394.468H446.389L450.169 398.248V417.22L446.389 421H434.869ZM436.345 418.084H444.913L446.893 416.104V399.364L444.913 397.384H436.345L434.365 399.364L434.401 416.104L436.345 418.084Z" fill="#28DA10"/>
<path d="M622.655 421V416.752L636.839 402.82V399.364L634.895 397.348L627.551 397.384L624.635 400.336L622.511 398.176L626.147 394.468H636.371L640.115 398.248V404.116L626.327 417.76V417.976H640.511V421H622.655Z" fill="#28DA10"/>
<path d="M643.851 424.96L645.291 416.752H648.459L645.687 424.96H643.851Z" fill="#28DA10"/>
<path d="M656.546 421L652.91 417.328L655.034 415.204L657.95 418.084H666.23L668.21 416.104V409.336L666.23 407.356H654.134V394.468H670.334V397.492H657.41V404.44H667.706L671.486 408.22V417.22L667.706 421H656.546Z" fill="#28DA10"/>
<path d="M683.958 421V417.976H688.026V397.492H684.39V394.468H691.302V417.976H695.37V421H683.958Z" fill="#28DA10"/>
<path d="M703.392 421L699.612 417.22V398.248L703.392 394.468H714.912L718.692 398.248V417.22L714.912 421H703.392ZM704.868 418.084H713.436L715.416 416.104V399.364L713.436 397.384H704.868L702.888 399.364L702.924 416.104L704.868 418.084Z" fill="#28DA10"/>
<path d="M886.222 421L882.586 417.328L884.71 415.204L887.626 418.084H895.906L897.886 416.104V409.336L895.906 407.356H883.81V394.468H900.01V397.492H887.086V404.44H897.382L901.162 408.22V417.22L897.382 421H886.222Z" fill="#28DA10"/>
<path d="M904.43 424.96L905.87 416.752H909.038L906.266 424.96H904.43Z" fill="#28DA10"/>
<path d="M917.88 421L914.1 417.22V398.248L917.88 394.468H929.4L933.18 398.248V417.22L929.4 421H917.88ZM919.356 418.084H927.924L929.904 416.104V399.364L927.924 397.384H919.356L917.376 399.364L917.412 416.104L919.356 418.084Z" fill="#28DA10"/>
<path d="M945.661 421V417.976H949.729V397.492H946.093V394.468H953.005V417.976H957.073V421H945.661Z" fill="#28DA10"/>
<path d="M965.095 421L961.315 417.22V398.248L965.095 394.468H976.615L980.395 398.248V417.22L976.615 421H965.095ZM966.571 418.084H975.139L977.119 416.104V399.364L975.139 397.384H966.571L964.591 399.364L964.627 416.104L966.571 418.084Z" fill="#28DA10"/>
</g>
<g id="&#226;&#128;&#147;2">
<path d="M455.368 396.432V394.68H466.792V396.432H455.368Z" fill="#28DA10"/>
<path d="M469.788 402V399.168L479.244 389.88V387.576L477.948 386.232L473.052 386.256L471.108 388.224L469.692 386.784L472.116 384.312H478.932L481.428 386.832V390.744L472.236 399.84V399.984H481.692V402H469.788Z" fill="#28DA10"/>
</g>
<g id="&#226;&#128;&#147;1">
<path d="M727.368 398.432V396.68H738.792V398.432H727.368Z" fill="#28DA10"/>
<path d="M741.524 404V401.984H744.236V388.328H741.812V386.312H746.42V401.984H749.132V404H741.524Z" fill="#28DA10"/>
</g>
<g id="&#226;&#128;&#147;2_2">
<path d="M978.368 395.432V393.68H989.792V395.432H978.368Z" fill="#28DA10"/>
<path d="M992.788 401V398.168L1002.24 388.88V386.576L1000.95 385.232L996.052 385.256L994.108 387.224L992.692 385.784L995.116 383.312H1001.93L1004.43 385.832V389.744L995.236 398.84V398.984H1004.69V401H992.788Z" fill="#28DA10"/>
</g>
<g id="&#226;&#128;&#147;1_2">
<path d="M184.368 388.432V386.68H195.792V388.432H184.368Z" fill="#28DA10"/>
<path d="M198.524 394V391.984H201.236V378.328H198.812V376.312H203.42V391.984H206.132V394H198.524Z" fill="#28DA10"/>
</g>
</g>
<g id="flecha">
<path id="Rectangle 2" d="M853.13 374.055L867.606 381.752L827.839 456.543L813.363 448.846L853.13 374.055Z" fill="#D51919"/>
<path id="Rectangle 1" d="M798 386.271L883.252 339V393.649L840.626 376.981L798 386.271Z" fill="#D51919"/>
<path id="Rectangle 3" d="M801.825 451.921L816.628 426.282L832.988 425.734L818.185 451.374L801.825 451.921Z" fill="#D51919"/>
<path id="Rectangle 4_2" d="M826.502 465.785L841.305 440.146L832.978 425.345L818.175 450.984L826.502 465.785Z" fill="#D51919"/>
</g>
</g>
<g id="enun01">
<path id="Rectangle 1_2" d="M53 0H942.089L1017 166.568L942.089 338H53V0Z" fill="#02071A"/>
<path id="Rectangle 1 (Stroke)" fill-rule="evenodd" clip-rule="evenodd" d="M939.502 4H57V334H939.472L1012.62 166.592L939.502 4ZM942.089 0H53V338H942.089L1017 166.568L942.089 0Z" fill="#28DA10"/>
<path id="Ellipse 1_2" d="M87 169.403C87 187.852 72.0015 202.807 53.5 202.807C34.9985 202.807 20 187.852 20 169.403C20 150.955 34.9985 136 53.5 136C72.0015 136 87 150.955 87 169.403Z" fill="#28DA10"/>
<path id="Ellipse 1 (Stroke)_2" fill-rule="evenodd" clip-rule="evenodd" d="M53.5 201.807C71.452 201.807 86 187.297 86 169.403C86 151.51 71.452 137 53.5 137C35.548 137 21 151.51 21 169.403C21 187.297 35.548 201.807 53.5 201.807ZM53.5 202.807C72.0015 202.807 87 187.852 87 169.403C87 150.955 72.0015 136 53.5 136C34.9985 136 20 150.955 20 169.403C20 187.852 34.9985 202.807 53.5 202.807Z" fill="#28DA10"/>
<g id="Las reacciones de neutralizaci&#195;&#179;n son utilizadas en el tratamiento de aguas residuales, ya que se utilizan para adecuar el pH a valores permitidos. Si se tiene agua residual que contiene 50 mL de H2SO4 0,1 M y se neutraliza con una soluci&#195;&#179;n de NaOH 0,2 M, determine el volumen, en L, necesarios de la soluci&#195;&#179;n b&#195;&#161;sica, para que el pH de la soluci&#195;&#179;n final sea igual a 7,0.">
<path d="M98.132 48V21.468H101.408V44.976H114.764V48H98.132Z" fill="white"/>
<path d="M120.113 48L116.369 44.22V39.936L120.113 36.156H129.689V33.816L127.745 31.836H118.817V29.172H129.113L132.857 32.952V48H129.689V45.084L126.773 48H120.113ZM121.517 45.48H125.981L129.689 41.808V38.64L121.517 38.676L119.537 40.62V43.5L121.517 45.48Z" fill="white"/>
<path d="M138.593 48V45.372H148.565L150.257 43.644V41.376L148.457 39.576H141.005L137.693 36.336V32.52L141.005 29.172H151.625V31.836H142.517L140.861 33.456V35.292L142.589 37.02H150.113L153.425 40.26V44.688L150.149 48H138.593Z" fill="white"/>
<path d="M166.962 48V29.172H170.13V32.556L173.406 29.172H178.23V32.34H173.55L170.13 35.868V48H166.962Z" fill="white"/>
<path d="M184.549 48L180.769 44.22V32.952L184.549 29.172H192.937L196.717 32.952V39.756H183.937V43.392L185.917 45.372H196.393V48H184.549ZM183.937 37.236H193.549V33.672L191.569 31.692H185.917L183.937 33.672V37.236Z" fill="white"/>
<path d="M203.362 48L199.618 44.22V39.936L203.362 36.156H212.938V33.816L210.994 31.836H202.066V29.172H212.362L216.106 32.952V48H212.938V45.084L210.022 48H203.362ZM204.766 45.48H209.23L212.938 41.808V38.64L204.766 38.676L202.786 40.62V43.5L204.766 45.48Z" fill="white"/>
<path d="M225.189 48L221.409 44.22V32.952L225.189 29.172H233.793L237.105 32.448V35.436H233.937V33.492L232.137 31.692H226.557L224.577 33.672V43.356L226.557 45.372H236.925V48H225.189Z" fill="white"/>
<path d="M245.299 48L241.519 44.22V32.952L245.299 29.172H253.903L257.215 32.448V35.436H254.047V33.492L252.247 31.692H246.667L244.687 33.672V43.356L246.667 45.372H257.035V48H245.299Z" fill="white"/>
<path d="M262.06 27.12V22.872H265.228V27.12H262.06ZM262.06 48V29.172H265.228V48H262.06Z" fill="white"/>
<path d="M274.443 48L270.663 44.22V32.952L274.443 29.172H283.371L287.151 32.952V44.22L283.371 48H274.443ZM275.811 45.48H282.003L283.983 43.5L283.947 33.672L282.003 31.692H275.811L273.831 33.672V43.5L275.811 45.48Z" fill="white"/>
<path d="M292.611 48V29.172H295.779V32.556L299.055 29.172H306.003L309.747 32.952V48H306.579V33.744L304.671 31.692H299.883L295.779 35.868V48H292.611Z" fill="white"/>
<path d="M318.81 48L315.03 44.22V32.952L318.81 29.172H327.198L330.978 32.952V39.756H318.198V43.392L320.178 45.372H330.654V48H318.81ZM318.198 37.236H327.81V33.672L325.83 31.692H320.178L318.198 33.672V37.236Z" fill="white"/>
<path d="M336.451 48V45.372H346.423L348.115 43.644V41.376L346.315 39.576H338.863L335.551 36.336V32.52L338.863 29.172H349.483V31.836H340.375L338.719 33.456V35.292L340.447 37.02H347.971L351.283 40.26V44.688L348.007 48H336.451Z" fill="white"/>
<path d="M368.168 48L364.388 44.22V32.952L368.168 29.172H375.081L377.996 32.16V21.468H381.164V48H377.996V45.048L375.081 48H368.168ZM374.289 45.48L377.996 41.736V35.472L374.289 31.692H369.536L367.556 33.672V43.5L369.536 45.48H374.289Z" fill="white"/>
<path d="M390.387 48L386.607 44.22V32.952L390.387 29.172H398.775L402.555 32.952V39.756H389.775V43.392L391.755 45.372H402.231V48H390.387ZM389.775 37.236H399.387V33.672L397.407 31.692H391.755L389.775 33.672V37.236Z" fill="white"/>
<path d="M416.569 48V29.172H419.737V32.556L423.013 29.172H429.961L433.705 32.952V48H430.537V33.744L428.629 31.692H423.841L419.737 35.868V48H416.569Z" fill="white"/>
<path d="M442.769 48L438.989 44.22V32.952L442.769 29.172H451.157L454.937 32.952V39.756H442.157V43.392L444.137 45.372H454.613V48H442.769ZM442.157 37.236H451.769V33.672L449.789 31.692H444.137L442.157 33.672V37.236Z" fill="white"/>
<path d="M463.973 48L460.229 44.22V29.172H463.397L463.361 43.464L465.305 45.48H469.985L473.693 41.772V29.172H476.861V48H473.693V45.084L470.813 48H463.973Z" fill="white"/>
<path d="M486.261 48L482.949 44.724V31.692H480.969V29.172H483.021L483.813 24.348H486.117V29.172H490.113V31.692H486.117V43.608L487.809 45.372H490.941V48H486.261Z" fill="white"/>
<path d="M494.792 48V29.172H497.96V32.556L501.236 29.172H506.06V32.34H501.38L497.96 35.868V48H494.792Z" fill="white"/>
<path d="M510.66 48L506.916 44.22V39.936L510.66 36.156H520.236V33.816L518.292 31.836H509.364V29.172H519.66L523.404 32.952V48H520.236V45.084L517.32 48H510.66ZM512.064 45.48H516.528L520.236 41.808V38.64L512.064 38.676L510.084 40.62V43.5L512.064 45.48Z" fill="white"/>
<path d="M529.139 48V21.468H532.307V48H529.139Z" fill="white"/>
<path d="M538.175 27.12V22.872H541.343V27.12H538.175ZM538.175 48V29.172H541.343V48H538.175Z" fill="white"/>
<path d="M546.166 48V44.76L557.902 31.836H546.994V29.172H561.466V32.412L549.73 45.372H561.754V48H546.166Z" fill="white"/>
<path d="M568.07 48L564.326 44.22V39.936L568.07 36.156H577.646V33.816L575.702 31.836H566.774V29.172H577.07L580.814 32.952V48H577.646V45.084L574.73 48H568.07ZM569.474 45.48H573.938L577.646 41.808V38.64L569.474 38.676L567.494 40.62V43.5L569.474 45.48Z" fill="white"/>
<path d="M589.898 48L586.118 44.22V32.952L589.898 29.172H598.502L601.814 32.448V35.436H598.646V33.492L596.846 31.692H591.266L589.286 33.672V43.356L591.266 45.372H601.634V48H589.898Z" fill="white"/>
<path d="M606.659 27.12V22.872H609.827V27.12H606.659ZM606.659 48V29.172H609.827V48H606.659Z" fill="white"/>
<path d="M622.174 27.12L625.63 21.756H629.338L624.874 27.12H622.174ZM619.042 48L615.262 44.22V32.952L619.042 29.172H627.97L631.75 32.952V44.22L627.97 48H619.042ZM620.41 45.48H626.602L628.582 43.5L628.546 33.672L626.602 31.692H620.41L618.43 33.672V43.5L620.41 45.48Z" fill="white"/>
<path d="M637.21 48V29.172H640.378V32.556L643.654 29.172H650.602L654.346 32.952V48H651.178V33.744L649.27 31.692H644.482L640.378 35.868V48H637.21Z" fill="white"/>
<path d="M668.603 48V45.372H678.575L680.267 43.644V41.376L678.467 39.576H671.015L667.703 36.336V32.52L671.015 29.172H681.635V31.836H672.527L670.871 33.456V35.292L672.599 37.02H680.123L683.435 40.26V44.688L680.159 48H668.603Z" fill="white"/>
<path d="M691.603 48L687.823 44.22V32.952L691.603 29.172H700.531L704.311 32.952V44.22L700.531 48H691.603ZM692.971 45.48H699.163L701.143 43.5L701.107 33.672L699.163 31.692H692.971L690.991 33.672V43.5L692.971 45.48Z" fill="white"/>
<path d="M709.771 48V29.172H712.939V32.556L716.215 29.172H723.163L726.907 32.952V48H723.739V33.744L721.831 31.692H717.043L712.939 35.868V48H709.771Z" fill="white"/>
<path d="M744.728 48L740.984 44.22V29.172H744.152L744.116 43.464L746.06 45.48H750.74L754.448 41.772V29.172H757.616V48H754.448V45.084L751.568 48H744.728Z" fill="white"/>
<path d="M767.016 48L763.704 44.724V31.692H761.724V29.172H763.776L764.568 24.348H766.872V29.172H770.868V31.692H766.872V43.608L768.564 45.372H771.696V48H767.016Z" fill="white"/>
<path d="M775.547 27.12V22.872H778.715V27.12H775.547ZM775.547 48V29.172H778.715V48H775.547Z" fill="white"/>
<path d="M784.582 48V21.468H787.75V48H784.582Z" fill="white"/>
<path d="M793.617 27.12V22.872H796.785V27.12H793.617ZM793.617 48V29.172H796.785V48H793.617Z" fill="white"/>
<path d="M801.609 48V44.76L813.344 31.836H802.437V29.172H816.909V32.412L805.172 45.372H817.196V48H801.609Z" fill="white"/>
<path d="M823.513 48L819.769 44.22V39.936L823.513 36.156H833.089V33.816L831.145 31.836H822.217V29.172H832.513L836.257 32.952V48H833.089V45.084L830.173 48H823.513ZM824.917 45.48H829.381L833.089 41.808V38.64L824.917 38.676L822.937 40.62V43.5L824.917 45.48Z" fill="white"/>
<path d="M845.34 48L841.56 44.22V32.952L845.34 29.172H852.252L855.168 32.16V21.468H858.336V48H855.168V45.048L852.252 48H845.34ZM851.46 45.48L855.168 41.736V35.472L851.46 31.692H846.708L844.728 33.672V43.5L846.708 45.48H851.46Z" fill="white"/>
<path d="M866.263 48L862.519 44.22V39.936L866.263 36.156H875.839V33.816L873.895 31.836H864.967V29.172H875.263L879.007 32.952V48H875.839V45.084L872.923 48H866.263ZM867.667 45.48H872.131L875.839 41.808V38.64L867.667 38.676L865.687 40.62V43.5L867.667 45.48Z" fill="white"/>
<path d="M884.742 48V45.372H894.714L896.406 43.644V41.376L894.606 39.576H887.154L883.842 36.336V32.52L887.154 29.172H897.774V31.836H888.666L887.01 33.456V35.292L888.738 37.02H896.262L899.574 40.26V44.688L896.298 48H884.742Z" fill="white"/>
<path d="M916.46 48L912.68 44.22V32.952L916.46 29.172H924.848L928.628 32.952V39.756H915.848V43.392L917.828 45.372H928.304V48H916.46ZM915.848 37.236H925.46V33.672L923.48 31.692H917.828L915.848 33.672V37.236Z" fill="white"/>
<path d="M934.1 48V29.172H937.268V32.556L940.544 29.172H947.492L951.236 32.952V48H948.068V33.744L946.16 31.692H941.372L937.268 35.868V48H934.1Z" fill="white"/>
<path d="M101.3 88L97.52 84.22V72.952L101.3 69.172H109.688L113.468 72.952V79.756H100.688V83.392L102.668 85.372H113.144V88H101.3ZM100.688 77.236H110.3V73.672L108.32 71.692H102.668L100.688 73.672V77.236Z" fill="white"/>
<path d="M118.94 88V61.468H122.108V88H118.94Z" fill="white"/>
<path d="M152.168 88L148.856 84.724V71.692H146.876V69.172H148.928L149.72 64.348H152.024V69.172H156.02V71.692H152.024V83.608L153.716 85.372H156.848V88H152.168Z" fill="white"/>
<path d="M160.699 88V69.172H163.867V72.556L167.143 69.172H171.967V72.34H167.287L163.867 75.868V88H160.699Z" fill="white"/>
<path d="M176.567 88L172.823 84.22V79.936L176.567 76.156H186.143V73.816L184.199 71.836H175.271V69.172H185.567L189.311 72.952V88H186.143V85.084L183.227 88H176.567ZM177.971 85.48H182.435L186.143 81.808V78.64L177.971 78.676L175.991 80.62V83.5L177.971 85.48Z" fill="white"/>
<path d="M198.574 88L195.262 84.724V71.692H193.282V69.172H195.334L196.126 64.348H198.43V69.172H202.426V71.692H198.43V83.608L200.122 85.372H203.254V88H198.574Z" fill="white"/>
<path d="M209.157 88L205.413 84.22V79.936L209.157 76.156H218.733V73.816L216.789 71.836H207.861V69.172H218.157L221.901 72.952V88H218.733V85.084L215.817 88H209.157ZM210.561 85.48H215.025L218.733 81.808V78.64L210.561 78.676L208.581 80.62V83.5L210.561 85.48Z" fill="white"/>
<path d="M227.636 88V69.172H230.804V72.556L234.08 69.172H241.028L244.34 72.52L247.58 69.172H254.528L258.308 72.952V88H255.14V73.744L253.232 71.692H248.408L244.772 75.364V88H241.604L241.64 73.744L239.696 71.692H234.908L230.804 75.868V88H227.636Z" fill="white"/>
<path d="M264.023 67.12V62.872H267.191V67.12H264.023ZM264.023 88V69.172H267.191V88H264.023Z" fill="white"/>
<path d="M276.406 88L272.626 84.22V72.952L276.406 69.172H284.794L288.574 72.952V79.756H275.794V83.392L277.774 85.372H288.25V88H276.406ZM275.794 77.236H285.406V73.672L283.426 71.692H277.774L275.794 73.672V77.236Z" fill="white"/>
<path d="M294.046 88V69.172H297.214V72.556L300.49 69.172H307.438L311.182 72.952V88H308.014V73.744L306.106 71.692H301.318L297.214 75.868V88H294.046Z" fill="white"/>
<path d="M320.426 88L317.114 84.724V71.692H315.134V69.172H317.186L317.978 64.348H320.282V69.172H324.278V71.692H320.282V83.608L321.974 85.372H325.106V88H320.426Z" fill="white"/>
<path d="M332.305 88L328.525 84.22V72.952L332.305 69.172H341.233L345.013 72.952V84.22L341.233 88H332.305ZM333.673 85.48H339.865L341.845 83.5L341.809 73.672L339.865 71.692H333.673L331.693 73.672V83.5L333.673 85.48Z" fill="white"/>
<path d="M374.485 88L370.705 84.22V72.952L374.485 69.172H381.397L384.313 72.16V61.468H387.481V88H384.313V85.048L381.397 88H374.485ZM380.605 85.48L384.313 81.736V75.472L380.605 71.692H375.853L373.873 73.672V83.5L375.853 85.48H380.605Z" fill="white"/>
<path d="M396.704 88L392.924 84.22V72.952L396.704 69.172H405.092L408.872 72.952V79.756H396.092V83.392L398.072 85.372H408.548V88H396.704ZM396.092 77.236H405.704V73.672L403.724 71.692H398.072L396.092 73.672V77.236Z" fill="white"/>
<path d="M437.061 88L433.317 84.22V79.936L437.061 76.156H446.637V73.816L444.693 71.836H435.765V69.172H446.061L449.805 72.952V88H446.637V85.084L443.721 88H437.061ZM438.465 85.48H442.929L446.637 81.808V78.64L438.465 78.676L436.485 80.62V83.5L438.465 85.48Z" fill="white"/>
<path d="M456.584 94.732V92.104L466.736 92.068L468.716 90.124V85.048L465.8 88H458.888L455.108 84.22V72.952L458.888 69.172H465.8L468.716 72.16V69.172H471.884V90.952L468.104 94.732H456.584ZM465.008 85.48L468.716 81.736V75.472L465.008 71.692H460.256L458.276 73.672V83.5L460.256 85.48H465.008Z" fill="white"/>
<path d="M481.323 88L477.579 84.22V69.172H480.747L480.711 83.464L482.655 85.48H487.335L491.043 81.772V69.172H494.211V88H491.043V85.084L488.163 88H481.323Z" fill="white"/>
<path d="M502.135 88L498.391 84.22V79.936L502.135 76.156H511.711V73.816L509.767 71.836H500.839V69.172H511.135L514.879 72.952V88H511.711V85.084L508.795 88H502.135ZM503.539 85.48H508.003L511.711 81.808V78.64L503.539 78.676L501.559 80.62V83.5L503.539 85.48Z" fill="white"/>
<path d="M520.614 88V85.372H530.586L532.278 83.644V81.376L530.478 79.576H523.026L519.714 76.336V72.52L523.026 69.172H533.646V71.836H524.538L522.882 73.456V75.292L524.61 77.02H532.134L535.446 80.26V84.688L532.17 88H520.614Z" fill="white"/>
<path d="M562.028 88V69.172H565.196V72.556L568.472 69.172H573.296V72.34H568.616L565.196 75.868V88H562.028Z" fill="white"/>
<path d="M579.614 88L575.834 84.22V72.952L579.614 69.172H588.002L591.782 72.952V79.756H579.002V83.392L580.982 85.372H591.458V88H579.614ZM579.002 77.236H588.614V73.672L586.634 71.692H580.982L579.002 73.672V77.236Z" fill="white"/>
<path d="M597.255 88V85.372H607.227L608.919 83.644V81.376L607.119 79.576H599.667L596.355 76.336V72.52L599.667 69.172H610.287V71.836H601.179L599.523 73.456V75.292L601.251 77.02H608.775L612.087 80.26V84.688L608.811 88H597.255Z" fill="white"/>
<path d="M617.083 67.12V62.872H620.251V67.12H617.083ZM617.083 88V69.172H620.251V88H617.083Z" fill="white"/>
<path d="M629.466 88L625.686 84.22V72.952L629.466 69.172H636.378L639.294 72.16V61.468H642.462V88H639.294V85.048L636.378 88H629.466ZM635.586 85.48L639.294 81.736V75.472L635.586 71.692H630.834L628.854 73.672V83.5L630.834 85.48H635.586Z" fill="white"/>
<path d="M651.901 88L648.157 84.22V69.172H651.325L651.289 83.464L653.233 85.48H657.913L661.621 81.772V69.172H664.789V88H661.621V85.084L658.741 88H651.901Z" fill="white"/>
<path d="M672.713 88L668.969 84.22V79.936L672.713 76.156H682.289V73.816L680.345 71.836H671.417V69.172H681.713L685.457 72.952V88H682.289V85.084L679.373 88H672.713ZM674.117 85.48H678.581L682.289 81.808V78.64L674.117 78.676L672.137 80.62V83.5L674.117 85.48Z" fill="white"/>
<path d="M691.192 88V61.468H694.36V88H691.192Z" fill="white"/>
<path d="M703.575 88L699.795 84.22V72.952L703.575 69.172H711.963L715.743 72.952V79.756H702.963V83.392L704.943 85.372H715.419V88H703.575ZM702.963 77.236H712.575V73.672L710.595 71.692H704.943L702.963 73.672V77.236Z" fill="white"/>
<path d="M721.216 88V85.372H731.188L732.88 83.644V81.376L731.08 79.576H723.628L720.316 76.336V72.52L723.628 69.172H734.248V71.836H725.14L723.484 73.456V75.292L725.212 77.02H732.736L736.048 80.26V84.688L732.772 88H721.216Z" fill="white"/>
<path d="M738.92 91.96L740.36 83.752H743.528L740.756 91.96H738.92Z" fill="white"/>
<path d="M772.963 94.732L776.347 86.704H775.015L767.275 69.172H770.767L776.815 83.572H777.643L783.223 69.172H786.679L776.167 94.732H772.963Z" fill="white"/>
<path d="M790.971 88L787.227 84.22V79.936L790.971 76.156H800.547V73.816L798.603 71.836H789.675V69.172H799.971L803.715 72.952V88H800.547V85.084L797.631 88H790.971ZM792.375 85.48H796.839L800.547 81.808V78.64L792.375 78.676L790.395 80.62V83.5L792.375 85.48Z" fill="white"/>
<path d="M843.291 94.732V85.048L840.375 88H833.463L829.683 84.22V72.952L833.463 69.172H840.375L843.291 72.16V69.172H846.459V94.732H843.291ZM839.583 85.48L843.291 81.736V75.472L839.583 71.692H834.831L832.851 73.672V83.5L834.831 85.48H839.583Z" fill="white"/>
<path d="M855.898 88L852.154 84.22V69.172H855.322L855.286 83.464L857.23 85.48H861.91L865.618 81.772V69.172H868.786V88H865.618V85.084L862.738 88H855.898Z" fill="white"/>
<path d="M878.006 88L874.226 84.22V72.952L878.006 69.172H886.394L890.174 72.952V79.756H877.394V83.392L879.374 85.372H889.85V88H878.006ZM877.394 77.236H887.006V73.672L885.026 71.692H879.374L877.394 73.672V77.236Z" fill="white"/>
<path d="M916.311 88V85.372H926.283L927.975 83.644V81.376L926.175 79.576H918.723L915.411 76.336V72.52L918.723 69.172H929.343V71.836H920.235L918.579 73.456V75.292L920.307 77.02H927.831L931.143 80.26V84.688L927.867 88H916.311Z" fill="white"/>
<path d="M939.312 88L935.532 84.22V72.952L939.312 69.172H947.7L951.48 72.952V79.756H938.7V83.392L940.68 85.372H951.156V88H939.312ZM938.7 77.236H948.312V73.672L946.332 71.692H940.68L938.7 73.672V77.236Z" fill="white"/>
<path d="M101.516 128L97.772 124.22V109.172H100.94L100.904 123.464L102.848 125.48H107.528L111.236 121.772V109.172H114.404V128H111.236V125.084L108.356 128H101.516Z" fill="white"/>
<path d="M123.804 128L120.492 124.724V111.692H118.512V109.172H120.564L121.356 104.348H123.66V109.172H127.656V111.692H123.66V123.608L125.352 125.372H128.484V128H123.804Z" fill="white"/>
<path d="M132.335 107.12V102.872H135.503V107.12H132.335ZM132.335 128V109.172H135.503V128H132.335Z" fill="white"/>
<path d="M141.37 128V101.468H144.538V128H141.37Z" fill="white"/>
<path d="M150.405 107.12V102.872H153.573V107.12H150.405ZM150.405 128V109.172H153.573V128H150.405Z" fill="white"/>
<path d="M158.396 128V124.76L170.132 111.836H159.224V109.172H173.696V112.412L161.96 125.372H173.984V128H158.396Z" fill="white"/>
<path d="M180.301 128L176.557 124.22V119.936L180.301 116.156H189.877V113.816L187.933 111.836H179.005V109.172H189.301L193.045 112.952V128H189.877V125.084L186.961 128H180.301ZM181.705 125.48H186.169L189.877 121.808V118.64L181.705 118.676L179.725 120.62V123.5L181.705 125.48Z" fill="white"/>
<path d="M198.78 128V109.172H201.948V112.556L205.224 109.172H212.172L215.916 112.952V128H212.748V113.744L210.84 111.692H206.052L201.948 115.868V128H198.78Z" fill="white"/>
<path d="M235.387 134.732V109.172H238.555V112.16L241.435 109.172H248.383L252.127 112.952V124.22L248.383 128H241.435L238.555 125.048V134.732H235.387ZM242.263 125.48H247.015L248.959 123.5V113.672L247.015 111.692H242.263L238.555 115.472V121.736L242.263 125.48Z" fill="white"/>
<path d="M259.657 128L255.913 124.22V119.936L259.657 116.156H269.233V113.816L267.289 111.836H258.361V109.172H268.657L272.401 112.952V128H269.233V125.084L266.317 128H259.657ZM261.061 125.48H265.525L269.233 121.808V118.64L261.061 118.676L259.081 120.62V123.5L261.061 125.48Z" fill="white"/>
<path d="M278.137 128V109.172H281.305V112.556L284.581 109.172H289.405V112.34H284.725L281.305 115.868V128H278.137Z" fill="white"/>
<path d="M294.005 128L290.261 124.22V119.936L294.005 116.156H303.581V113.816L301.637 111.836H292.709V109.172H303.005L306.749 112.952V128H303.581V125.084L300.665 128H294.005ZM295.409 125.48H299.873L303.581 121.808V118.64L295.409 118.676L293.429 120.62V123.5L295.409 125.48Z" fill="white"/>
<path d="M328.291 128L324.547 124.22V119.936L328.291 116.156H337.867V113.816L335.923 111.836H326.995V109.172H337.291L341.035 112.952V128H337.867V125.084L334.951 128H328.291ZM329.695 125.48H334.159L337.867 121.808V118.64L329.695 118.676L327.715 120.62V123.5L329.695 125.48Z" fill="white"/>
<path d="M350.119 128L346.339 124.22V112.952L350.119 109.172H357.031L359.947 112.16V101.468H363.115V128H359.947V125.048L357.031 128H350.119ZM356.239 125.48L359.947 121.736V115.472L356.239 111.692H351.487L349.507 113.672V123.5L351.487 125.48H356.239Z" fill="white"/>
<path d="M372.337 128L368.557 124.22V112.952L372.337 109.172H380.725L384.505 112.952V119.756H371.725V123.392L373.705 125.372H384.181V128H372.337ZM371.725 117.236H381.337V113.672L379.357 111.692H373.705L371.725 113.672V117.236Z" fill="white"/>
<path d="M393.326 128L389.546 124.22V112.952L393.326 109.172H401.93L405.242 112.448V115.436H402.074V113.492L400.274 111.692H394.694L392.714 113.672V123.356L394.694 125.372H405.062V128H393.326Z" fill="white"/>
<path d="M413.651 128L409.907 124.22V109.172H413.075L413.039 123.464L414.983 125.48H419.663L423.371 121.772V109.172H426.539V128H423.371V125.084L420.491 128H413.651Z" fill="white"/>
<path d="M434.463 128L430.719 124.22V119.936L434.463 116.156H444.039V113.816L442.095 111.836H433.167V109.172H443.463L447.207 112.952V128H444.039V125.084L441.123 128H434.463ZM435.867 125.48H440.331L444.039 121.808V118.64L435.867 118.676L433.887 120.62V123.5L435.867 125.48Z" fill="white"/>
<path d="M452.943 128V109.172H456.111V112.556L459.387 109.172H464.211V112.34H459.531L456.111 115.868V128H452.943Z" fill="white"/>
<path d="M484.671 128L480.891 124.22V112.952L484.671 109.172H493.059L496.839 112.952V119.756H484.059V123.392L486.039 125.372H496.515V128H484.671ZM484.059 117.236H493.671V113.672L491.691 111.692H486.039L484.059 113.672V117.236Z" fill="white"/>
<path d="M502.311 128V101.468H505.479V128H502.311Z" fill="white"/>
<path d="M525.101 134.732V109.172H528.269V112.16L531.149 109.172H538.097L541.841 112.952V124.22L538.097 128H531.149L528.269 125.048V134.732H525.101ZM531.977 125.48H536.729L538.673 123.5V113.672L536.729 111.692H531.977L528.269 115.472V121.736L531.977 125.48Z" fill="white"/>
<path d="M547.5 128V101.468H550.776V112.592H563.916V101.468H567.192V128H563.916V115.508H550.776V128H547.5Z" fill="white"/>
<path d="M589.037 128L585.293 124.22V119.936L589.037 116.156H598.613V113.816L596.669 111.836H587.741V109.172H598.037L601.781 112.952V128H598.613V125.084L595.697 128H589.037ZM590.441 125.48H594.905L598.613 121.808V118.64L590.441 118.676L588.461 120.62V123.5L590.441 125.48Z" fill="white"/>
<path d="M626.779 128L618.787 109.172H622.243L628.327 124.832H629.155L635.203 109.172H638.695L630.703 128H626.779Z" fill="white"/>
<path d="M643.503 128L639.759 124.22V119.936L643.503 116.156H653.079V113.816L651.135 111.836H642.207V109.172H652.503L656.247 112.952V128H653.079V125.084L650.163 128H643.503ZM644.907 125.48H649.371L653.079 121.808V118.64L644.907 118.676L642.927 120.62V123.5L644.907 125.48Z" fill="white"/>
<path d="M661.982 128V101.468H665.15V128H661.982Z" fill="white"/>
<path d="M674.365 128L670.585 124.22V112.952L674.365 109.172H683.293L687.073 112.952V124.22L683.293 128H674.365ZM675.733 125.48H681.925L683.905 123.5L683.869 113.672L681.925 111.692H675.733L673.753 113.672V123.5L675.733 125.48Z" fill="white"/>
<path d="M692.533 128V109.172H695.701V112.556L698.977 109.172H703.801V112.34H699.121L695.701 115.868V128H692.533Z" fill="white"/>
<path d="M710.119 128L706.339 124.22V112.952L710.119 109.172H718.507L722.287 112.952V119.756H709.507V123.392L711.487 125.372H721.963V128H710.119ZM709.507 117.236H719.119V113.672L717.139 111.692H711.487L709.507 113.672V117.236Z" fill="white"/>
<path d="M727.76 128V125.372H737.732L739.424 123.644V121.376L737.623 119.576H730.172L726.859 116.336V112.52L730.172 109.172H740.792V111.836H731.683L730.027 113.456V115.292L731.755 117.02H739.279L742.591 120.26V124.688L739.315 128H727.76Z" fill="white"/>
<path d="M761.343 134.732V109.172H764.511V112.16L767.391 109.172H774.339L778.083 112.952V124.22L774.339 128H767.391L764.511 125.048V134.732H761.343ZM768.219 125.48H772.971L774.915 123.5V113.672L772.971 111.692H768.219L764.511 115.472V121.736L768.219 125.48Z" fill="white"/>
<path d="M786.734 128L782.954 124.22V112.952L786.734 109.172H795.122L798.902 112.952V119.756H786.122V123.392L788.102 125.372H798.578V128H786.734ZM786.122 117.236H795.734V113.672L793.754 111.692H788.102L786.122 113.672V117.236Z" fill="white"/>
<path d="M804.374 128V109.172H807.542V112.556L810.818 109.172H815.642V112.34H810.962L807.542 115.868V128H804.374Z" fill="white"/>
<path d="M818.999 128V109.172H822.167V112.556L825.443 109.172H832.391L835.703 112.52L838.943 109.172H845.891L849.671 112.952V128H846.503V113.744L844.595 111.692H839.771L836.135 115.364V128H832.967L833.003 113.744L831.059 111.692H826.271L822.167 115.868V128H818.999Z" fill="white"/>
<path d="M855.386 107.12V102.872H858.554V107.12H855.386ZM855.386 128V109.172H858.554V128H855.386Z" fill="white"/>
<path d="M867.949 128L864.637 124.724V111.692H862.657V109.172H864.709L865.501 104.348H867.805V109.172H871.801V111.692H867.805V123.608L869.497 125.372H872.629V128H867.949Z" fill="white"/>
<path d="M876.479 107.12V102.872H879.647V107.12H876.479ZM876.479 128V109.172H879.647V128H876.479Z" fill="white"/>
<path d="M888.862 128L885.083 124.22V112.952L888.862 109.172H895.774L898.69 112.16V101.468H901.859V128H898.69V125.048L895.774 128H888.862ZM894.982 125.48L898.69 121.736V115.472L894.982 111.692H890.231L888.25 113.672V123.5L890.231 125.48H894.982Z" fill="white"/>
<path d="M911.081 128L907.301 124.22V112.952L911.081 109.172H920.009L923.789 112.952V124.22L920.009 128H911.081ZM912.449 125.48H918.641L920.621 123.5L920.585 113.672L918.641 111.692H912.449L910.469 113.672V123.5L912.449 125.48Z" fill="white"/>
<path d="M929.073 128V125.372H939.045L940.737 123.644V121.376L938.937 119.576H931.485L928.173 116.336V112.52L931.485 109.172H942.105V111.836H932.997L931.341 113.456V115.292L933.069 117.02H940.593L943.905 120.26V124.688L940.629 128H929.073Z" fill="white"/>
<path d="M948.217 128V123.752H951.385V128H948.217Z" fill="white"/>
<path d="M98.168 168V164.976H111.236L113.18 162.996V157.704L111.236 155.724H100.976L97.232 151.98V145.248L100.976 141.468H115.088V144.492H102.452L100.472 146.472L100.508 150.864L102.452 152.844H112.712L116.456 156.624V164.22L112.712 168H98.168Z" fill="white"/>
<path d="M121.647 147.12V142.872H124.815V147.12H121.647ZM121.647 168V149.172H124.815V168H121.647Z" fill="white"/>
<path d="M142.164 168V165.372H152.136L153.828 163.644V161.376L152.028 159.576H144.576L141.264 156.336V152.52L144.576 149.172H155.196V151.836H146.088L144.432 153.456V155.292L146.16 157.02H153.684L156.996 160.26V164.688L153.72 168H142.164Z" fill="white"/>
<path d="M165.165 168L161.385 164.22V152.952L165.165 149.172H173.553L177.333 152.952V159.756H164.553V163.392L166.533 165.372H177.009V168H165.165ZM164.553 157.236H174.165V153.672L172.185 151.692H166.533L164.553 153.672V157.236Z" fill="white"/>
<path d="M197.815 168L194.503 164.724V151.692H192.523V149.172H194.575L195.367 144.348H197.671V149.172H201.667V151.692H197.671V163.608L199.363 165.372H202.495V168H197.815Z" fill="white"/>
<path d="M206.346 147.12V142.872H209.514V147.12H206.346ZM206.346 168V149.172H209.514V168H206.346Z" fill="white"/>
<path d="M218.729 168L214.949 164.22V152.952L218.729 149.172H227.117L230.897 152.952V159.756H218.117V163.392L220.097 165.372H230.573V168H218.729ZM218.117 157.236H227.729V153.672L225.749 151.692H220.097L218.117 153.672V157.236Z" fill="white"/>
<path d="M236.369 168V149.172H239.537V152.556L242.813 149.172H249.761L253.505 152.952V168H250.337V153.744L248.429 151.692H243.641L239.537 155.868V168H236.369Z" fill="white"/>
<path d="M262.569 168L258.789 164.22V152.952L262.569 149.172H270.957L274.737 152.952V159.756H261.957V163.392L263.937 165.372H274.413V168H262.569ZM261.957 157.236H271.569V153.672L269.589 151.692H263.937L261.957 153.672V157.236Z" fill="white"/>
<path d="M303.847 168L300.103 164.22V159.936L303.847 156.156H313.423V153.816L311.479 151.836H302.551V149.172H312.847L316.591 152.952V168H313.423V165.084L310.507 168H303.847ZM305.251 165.48H309.715L313.423 161.808V158.64L305.251 158.676L303.271 160.62V163.5L305.251 165.48Z" fill="white"/>
<path d="M323.37 174.732V172.104L333.522 172.068L335.502 170.124V165.048L332.586 168H325.674L321.894 164.22V152.952L325.674 149.172H332.586L335.502 152.16V149.172H338.67V170.952L334.89 174.732H323.37ZM331.794 165.48L335.502 161.736V155.472L331.794 151.692H327.042L325.062 153.672V163.5L327.042 165.48H331.794Z" fill="white"/>
<path d="M348.109 168L344.365 164.22V149.172H347.533L347.497 163.464L349.441 165.48H354.121L357.829 161.772V149.172H360.997V168H357.829V165.084L354.949 168H348.109Z" fill="white"/>
<path d="M368.921 168L365.177 164.22V159.936L368.921 156.156H378.497V153.816L376.553 151.836H367.625V149.172H377.921L381.665 152.952V168H378.497V165.084L375.581 168H368.921ZM370.325 165.48H374.789L378.497 161.808V158.64L370.325 158.676L368.345 160.62V163.5L370.325 165.48Z" fill="white"/>
<path d="M398.882 168V149.172H402.05V152.556L405.326 149.172H410.15V152.34H405.47L402.05 155.868V168H398.882Z" fill="white"/>
<path d="M416.468 168L412.688 164.22V152.952L416.468 149.172H424.856L428.636 152.952V159.756H415.856V163.392L417.836 165.372H428.312V168H416.468ZM415.856 157.236H425.468V153.672L423.488 151.692H417.836L415.856 153.672V157.236Z" fill="white"/>
<path d="M434.109 168V165.372H444.081L445.773 163.644V161.376L443.973 159.576H436.521L433.209 156.336V152.52L436.521 149.172H447.141V151.836H438.033L436.377 153.456V155.292L438.105 157.02H445.629L448.941 160.26V164.688L445.665 168H434.109Z" fill="white"/>
<path d="M453.937 147.12V142.872H457.105V147.12H453.937ZM453.937 168V149.172H457.105V168H453.937Z" fill="white"/>
<path d="M466.32 168L462.54 164.22V152.952L466.32 149.172H473.232L476.148 152.16V141.468H479.316V168H476.148V165.048L473.232 168H466.32ZM472.44 165.48L476.148 161.736V155.472L472.44 151.692H467.688L465.708 153.672V163.5L467.688 165.48H472.44Z" fill="white"/>
<path d="M488.755 168L485.011 164.22V149.172H488.179L488.143 163.464L490.087 165.48H494.767L498.475 161.772V149.172H501.643V168H498.475V165.084L495.595 168H488.755Z" fill="white"/>
<path d="M509.567 168L505.823 164.22V159.936L509.567 156.156H519.143V153.816L517.199 151.836H508.271V149.172H518.567L522.311 152.952V168H519.143V165.084L516.227 168H509.567ZM510.971 165.48H515.435L519.143 161.808V158.64L510.971 158.676L508.991 160.62V163.5L510.971 165.48Z" fill="white"/>
<path d="M528.046 168V141.468H531.214V168H528.046Z" fill="white"/>
<path d="M561.739 174.732V165.048L558.823 168H551.911L548.131 164.22V152.952L551.911 149.172H558.823L561.739 152.16V149.172H564.907V174.732H561.739ZM558.031 165.48L561.739 161.736V155.472L558.031 151.692H553.279L551.299 153.672V163.5L553.279 165.48H558.031Z" fill="white"/>
<path d="M574.346 168L570.602 164.22V149.172H573.77L573.734 163.464L575.678 165.48H580.358L584.066 161.772V149.172H587.234V168H584.066V165.084L581.186 168H574.346Z" fill="white"/>
<path d="M596.454 168L592.674 164.22V152.952L596.454 149.172H604.842L608.622 152.952V159.756H595.842V163.392L597.822 165.372H608.298V168H596.454ZM595.842 157.236H605.454V153.672L603.474 151.692H597.822L595.842 153.672V157.236Z" fill="white"/>
<path d="M628.924 168L625.145 164.22V152.952L628.924 149.172H637.529L640.841 152.448V155.436H637.672V153.492L635.872 151.692H630.293L628.312 153.672V163.356L630.293 165.372H640.661V168H628.924Z" fill="white"/>
<path d="M649.034 168L645.254 164.22V152.952L649.034 149.172H657.962L661.742 152.952V164.22L657.962 168H649.034ZM650.402 165.48H656.594L658.574 163.5L658.538 153.672L656.594 151.692H650.402L648.422 153.672V163.5L650.402 165.48Z" fill="white"/>
<path d="M667.202 168V149.172H670.37V152.556L673.646 149.172H680.594L684.338 152.952V168H681.169V153.744L679.262 151.692H674.474L670.37 155.868V168H667.202Z" fill="white"/>
<path d="M693.581 168L690.269 164.724V151.692H688.289V149.172H690.341L691.133 144.348H693.437V149.172H697.433V151.692H693.437V163.608L695.129 165.372H698.261V168H693.581Z" fill="white"/>
<path d="M702.112 147.12V142.872H705.28V147.12H702.112ZM702.112 168V149.172H705.28V168H702.112Z" fill="white"/>
<path d="M714.495 168L710.715 164.22V152.952L714.495 149.172H722.883L726.663 152.952V159.756H713.883V163.392L715.863 165.372H726.339V168H714.495ZM713.883 157.236H723.495V153.672L721.515 151.692H715.863L713.883 153.672V157.236Z" fill="white"/>
<path d="M732.135 168V149.172H735.303V152.556L738.579 149.172H745.527L749.271 152.952V168H746.103V153.744L744.195 151.692H739.407L735.303 155.868V168H732.135Z" fill="white"/>
<path d="M758.335 168L754.555 164.22V152.952L758.335 149.172H766.723L770.503 152.952V159.756H757.723V163.392L759.703 165.372H770.179V168H758.335ZM757.723 157.236H767.335V153.672L765.355 151.692H759.703L757.723 153.672V157.236Z" fill="white"/>
<path d="M789.977 168L786.341 164.328L788.465 162.204L791.381 165.084H799.661L801.641 163.104V156.336L799.661 154.356H787.565V141.468H803.765V144.492H790.841V151.44H801.137L804.917 155.22V164.22L801.137 168H789.977Z" fill="white"/>
<path d="M813.584 168L809.804 164.22V145.248L813.584 141.468H825.104L828.884 145.248V164.22L825.104 168H813.584ZM815.06 165.084H823.628L825.608 163.104V146.364L823.628 144.384H815.06L813.08 146.364L813.116 163.104L815.06 165.084Z" fill="white"/>
<path d="M845.767 168V149.172H848.935V152.556L852.211 149.172H859.159L862.471 152.52L865.711 149.172H872.659L876.439 152.952V168H873.271V153.744L871.363 151.692H866.539L862.903 155.364V168H859.735L859.771 153.744L857.827 151.692H853.039L848.935 155.868V168H845.767Z" fill="white"/>
<path d="M882.334 168V141.468H885.61V164.976H898.966V168H882.334Z" fill="white"/>
<path d="M917.093 168L913.313 164.22V152.952L917.093 149.172H924.005L926.921 152.16V141.468H930.089V168H926.921V165.048L924.005 168H917.093ZM923.213 165.48L926.921 161.736V155.472L923.213 151.692H918.461L916.481 153.672V163.5L918.461 165.48H923.213Z" fill="white"/>
<path d="M939.312 168L935.532 164.22V152.952L939.312 149.172H947.7L951.48 152.952V159.756H938.7V163.392L940.68 165.372H951.156V168H939.312ZM938.7 157.236H948.312V153.672L946.332 151.692H940.68L938.7 153.672V157.236Z" fill="white"/>
<path d="M98.132 208V181.468H101.408V192.592H114.548V181.468H117.824V208H114.548V195.508H101.408V208H98.132Z" fill="white"/>
<path d="M122.542 208V205.168L131.998 195.88V193.576L130.702 192.232L125.806 192.256L123.862 194.224L122.446 192.784L124.87 190.312H131.686L134.182 192.832V196.744L124.99 205.84V205.984H134.446V208H122.542Z" fill="white"/>
<path d="M139.289 208V204.976H152.357L154.301 202.996V197.704L152.357 195.724H142.097L138.353 191.98V185.248L142.097 181.468H156.209V184.492H143.573L141.593 186.472L141.629 190.864L143.573 192.844H153.833L157.577 196.624V204.22L153.833 208H139.289Z" fill="white"/>
<path d="M166.044 208L162.264 204.22V185.248L166.044 181.468H178.572L182.352 185.248V204.22L178.572 208H166.044ZM167.52 205.084H177.096L179.076 203.104V186.364L177.096 184.384H167.52L165.54 186.364V203.104L167.52 205.084Z" fill="white"/>
<path d="M194.1 208V204.4H185.364V202.192L194.1 190.312H196.284V202.408H198.492V204.4H196.284V208H194.1ZM194.1 202.408V193.984L187.884 202.408H194.1Z" fill="white"/>
<path d="M218.442 208L214.662 204.22V185.248L218.442 181.468H229.962L233.742 185.248V204.22L229.962 208H218.442ZM219.918 205.084H228.486L230.466 203.104V186.364L228.486 184.384H219.918L217.938 186.364L217.974 203.104L219.918 205.084Z" fill="white"/>
<path d="M237.019 211.96L238.459 203.752H241.627L238.855 211.96H237.019Z" fill="white"/>
<path d="M246.294 208V204.976H250.362V184.492H246.726V181.468H253.638V204.976H257.706V208H246.294Z" fill="white"/>
<path d="M275.572 208V181.468H280.036L288.388 202.672L296.776 181.468H301.276V208H297.964V186.472L289.324 208H287.488L278.848 186.508V208H275.572Z" fill="white"/>
<path d="M323.459 214.732L326.843 206.704H325.511L317.771 189.172H321.263L327.311 203.572H328.139L333.719 189.172H337.175L326.663 214.732H323.459Z" fill="white"/>
<path d="M353.552 208V205.372H363.524L365.216 203.644V201.376L363.416 199.576H355.964L352.652 196.336V192.52L355.964 189.172H366.584V191.836H357.476L355.82 193.456V195.292L357.548 197.02H365.072L368.384 200.26V204.688L365.108 208H353.552Z" fill="white"/>
<path d="M376.552 208L372.772 204.22V192.952L376.552 189.172H384.94L388.72 192.952V199.756H375.94V203.392L377.92 205.372H388.396V208H376.552ZM375.94 197.236H385.552V193.672L383.572 191.692H377.92L375.94 193.672V197.236Z" fill="white"/>
<path d="M407.133 208V189.172H410.301V192.556L413.577 189.172H420.525L424.269 192.952V208H421.101V193.744L419.193 191.692H414.405L410.301 195.868V208H407.133Z" fill="white"/>
<path d="M433.333 208L429.553 204.22V192.952L433.333 189.172H441.721L445.501 192.952V199.756H432.721V203.392L434.701 205.372H445.177V208H433.333ZM432.721 197.236H442.333V193.672L440.353 191.692H434.701L432.721 193.672V197.236Z" fill="white"/>
<path d="M454.537 208L450.793 204.22V189.172H453.961L453.925 203.464L455.869 205.48H460.549L464.257 201.772V189.172H467.425V208H464.257V205.084L461.377 208H454.537Z" fill="white"/>
<path d="M476.825 208L473.513 204.724V191.692H471.533V189.172H473.585L474.377 184.348H476.681V189.172H480.677V191.692H476.681V203.608L478.373 205.372H481.505V208H476.825Z" fill="white"/>
<path d="M485.356 208V189.172H488.524V192.556L491.8 189.172H496.624V192.34H491.944L488.524 195.868V208H485.356Z" fill="white"/>
<path d="M501.224 208L497.48 204.22V199.936L501.224 196.156H510.8V193.816L508.856 191.836H499.928V189.172H510.224L513.968 192.952V208H510.8V205.084L507.884 208H501.224ZM502.628 205.48H507.092L510.8 201.808V198.64L502.628 198.676L500.648 200.62V203.5L502.628 205.48Z" fill="white"/>
<path d="M519.703 208V181.468H522.871V208H519.703Z" fill="white"/>
<path d="M528.739 187.12V182.872H531.907V187.12H528.739ZM528.739 208V189.172H531.907V208H528.739Z" fill="white"/>
<path d="M536.73 208V204.76L548.466 191.836H537.558V189.172H552.03V192.412L540.294 205.372H552.318V208H536.73Z" fill="white"/>
<path d="M558.634 208L554.89 204.22V199.936L558.634 196.156H568.21V193.816L566.266 191.836H557.338V189.172H567.634L571.378 192.952V208H568.21V205.084L565.294 208H558.634ZM560.038 205.48H564.502L568.21 201.808V198.64L560.038 198.676L558.058 200.62V203.5L560.038 205.48Z" fill="white"/>
<path d="M593.403 208L589.623 204.22V192.952L593.403 189.172H602.007L605.319 192.448V195.436H602.151V193.492L600.351 191.692H594.771L592.791 193.672V203.356L594.771 205.372H605.139V208H593.403Z" fill="white"/>
<path d="M613.512 208L609.732 204.22V192.952L613.512 189.172H622.44L626.22 192.952V204.22L622.44 208H613.512ZM614.88 205.48H621.072L623.052 203.5L623.016 193.672L621.072 191.692H614.88L612.9 193.672V203.5L614.88 205.48Z" fill="white"/>
<path d="M631.68 208V189.172H634.848V192.556L638.124 189.172H645.072L648.816 192.952V208H645.648V193.744L643.74 191.692H638.952L634.848 195.868V208H631.68Z" fill="white"/>
<path d="M671.036 208L667.292 204.22V189.172H670.46L670.424 203.464L672.368 205.48H677.048L680.756 201.772V189.172H683.924V208H680.756V205.084L677.876 208H671.036Z" fill="white"/>
<path d="M689.796 208V189.172H692.964V192.556L696.24 189.172H703.188L706.932 192.952V208H703.764V193.744L701.856 191.692H697.068L692.964 195.868V208H689.796Z" fill="white"/>
<path d="M714.7 208L710.956 204.22V199.936L714.7 196.156H724.276V193.816L722.332 191.836H713.404V189.172H723.7L727.444 192.952V208H724.276V205.084L721.36 208H714.7ZM716.104 205.48H720.568L724.276 201.808V198.64L716.104 198.676L714.124 200.62V203.5L716.104 205.48Z" fill="white"/>
<path d="M746.12 208V205.372H756.092L757.784 203.644V201.376L755.984 199.576H748.532L745.22 196.336V192.52L748.532 189.172H759.152V191.836H750.044L748.388 193.456V195.292L750.116 197.02H757.64L760.952 200.26V204.688L757.676 208H746.12Z" fill="white"/>
<path d="M769.12 208L765.34 204.22V192.952L769.12 189.172H778.048L781.828 192.952V204.22L778.048 208H769.12ZM770.488 205.48H776.68L778.66 203.5L778.624 193.672L776.68 191.692H770.488L768.508 193.672V203.5L770.488 205.48Z" fill="white"/>
<path d="M787.288 208V181.468H790.456V208H787.288Z" fill="white"/>
<path d="M799.887 208L796.143 204.22V189.172H799.311L799.275 203.464L801.219 205.48H805.899L809.607 201.772V189.172H812.775V208H809.607V205.084L806.727 208H799.887Z" fill="white"/>
<path d="M821.995 208L818.215 204.22V192.952L821.995 189.172H830.599L833.911 192.448V195.436H830.743V193.492L828.943 191.692H823.363L821.383 193.672V203.356L823.363 205.372H833.731V208H821.995Z" fill="white"/>
<path d="M838.757 187.12V182.872H841.925V187.12H838.757ZM838.757 208V189.172H841.925V208H838.757Z" fill="white"/>
<path d="M854.272 187.12L857.728 181.756H861.436L856.972 187.12H854.272ZM851.14 208L847.36 204.22V192.952L851.14 189.172H860.068L863.848 192.952V204.22L860.068 208H851.14ZM852.508 205.48H858.7L860.68 203.5L860.644 193.672L858.7 191.692H852.508L850.528 193.672V203.5L852.508 205.48Z" fill="white"/>
<path d="M869.307 208V189.172H872.475V192.556L875.751 189.172H882.699L886.443 192.952V208H883.275V193.744L881.367 191.692H876.579L872.475 195.868V208H869.307Z" fill="white"/>
<path d="M917.093 208L913.313 204.22V192.952L917.093 189.172H924.005L926.921 192.16V181.468H930.089V208H926.921V205.048L924.005 208H917.093ZM923.213 205.48L926.921 201.736V195.472L923.213 191.692H918.461L916.481 193.672V203.5L918.461 205.48H923.213Z" fill="white"/>
<path d="M939.312 208L935.532 204.22V192.952L939.312 189.172H947.7L951.48 192.952V199.756H938.7V203.392L940.68 205.372H951.156V208H939.312ZM938.7 197.236H948.312V193.672L946.332 191.692H940.68L938.7 193.672V197.236Z" fill="white"/>
<path d="M98.132 248V221.468H102.596L114.44 242.816V221.468H117.716V248H113.828L102.2 227.048H101.408V248H98.132Z" fill="white"/>
<path d="M125.844 248L122.1 244.22V239.936L125.844 236.156H135.42V233.816L133.476 231.836H124.548V229.172H134.844L138.588 232.952V248H135.42V245.084L132.504 248H125.844ZM127.248 245.48H131.712L135.42 241.808V238.64L127.248 238.676L125.268 240.62V243.5L127.248 245.48Z" fill="white"/>
<path d="M147.599 248L143.819 244.22V225.248L147.599 221.468H160.127L163.907 225.248V244.22L160.127 248H147.599ZM149.075 245.084H158.651L160.631 243.104V226.364L158.651 224.384H149.075L147.095 226.364V243.104L149.075 245.084Z" fill="white"/>
<path d="M169.499 248V221.468H172.775V232.592H185.915V221.468H189.191V248H185.915V235.508H172.775V248H169.499Z" fill="white"/>
<path d="M230.446 248L226.666 244.22V225.248L230.446 221.468H241.966L245.746 225.248V244.22L241.966 248H230.446ZM231.922 245.084H240.49L242.47 243.104V226.364L240.49 224.384H231.922L229.942 226.364L229.978 243.104L231.922 245.084Z" fill="white"/>
<path d="M249.023 251.96L250.463 243.752H253.631L250.859 251.96H249.023Z" fill="white"/>
<path d="M258.694 248V243.752L272.878 229.82V226.364L270.934 224.348L263.59 224.384L260.674 227.336L258.55 225.176L262.186 221.468H272.41L276.154 225.248V231.116L262.366 244.76V244.976H276.55V248H258.694Z" fill="white"/>
<path d="M314.135 248V221.468H318.599L326.951 242.672L335.339 221.468H339.839V248H336.527V226.472L327.887 248H326.051L317.411 226.508V248H314.135Z" fill="white"/>
<path d="M343.753 251.96L345.193 243.752H348.361L345.589 251.96H343.753Z" fill="white"/>
<path d="M389.216 248L385.436 244.22V232.952L389.216 229.172H396.128L399.044 232.16V221.468H402.212V248H399.044V245.048L396.128 248H389.216ZM395.336 245.48L399.044 241.736V235.472L395.336 231.692H390.584L388.604 233.672V243.5L390.584 245.48H395.336Z" fill="white"/>
<path d="M411.435 248L407.655 244.22V232.952L411.435 229.172H419.823L423.603 232.952V239.756H410.823V243.392L412.803 245.372H423.279V248H411.435ZM410.823 237.236H420.435V233.672L418.455 231.692H412.803L410.823 233.672V237.236Z" fill="white"/>
<path d="M432.603 248L429.291 244.724V231.692H427.311V229.172H429.363L430.155 224.348H432.459V229.172H436.455V231.692H432.459V243.608L434.151 245.372H437.283V248H432.603Z" fill="white"/>
<path d="M444.482 248L440.702 244.22V232.952L444.482 229.172H452.87L456.65 232.952V239.756H443.87V243.392L445.85 245.372H456.326V248H444.482ZM443.87 237.236H453.482V233.672L451.502 231.692H445.85L443.87 233.672V237.236Z" fill="white"/>
<path d="M462.122 248V229.172H465.29V232.556L468.566 229.172H473.39V232.34H468.71L465.29 235.868V248H462.122Z" fill="white"/>
<path d="M476.747 248V229.172H479.915V232.556L483.191 229.172H490.139L493.451 232.52L496.691 229.172H503.639L507.419 232.952V248H504.251V233.744L502.343 231.692H497.519L493.883 235.364V248H490.715L490.751 233.744L488.807 231.692H484.019L479.915 235.868V248H476.747Z" fill="white"/>
<path d="M513.134 227.12V222.872H516.302V227.12H513.134ZM513.134 248V229.172H516.302V248H513.134Z" fill="white"/>
<path d="M522.169 248V229.172H525.337V232.556L528.613 229.172H535.561L539.305 232.952V248H536.137V233.744L534.229 231.692H529.441L525.337 235.868V248H522.169Z" fill="white"/>
<path d="M548.369 248L544.589 244.22V232.952L548.369 229.172H556.757L560.537 232.952V239.756H547.757V243.392L549.737 245.372H560.213V248H548.369ZM547.757 237.236H557.369V233.672L555.389 231.692H549.737L547.757 233.672V237.236Z" fill="white"/>
<path d="M601.298 248L597.518 244.22V232.952L601.298 229.172H609.686L613.466 232.952V239.756H600.686V243.392L602.666 245.372H613.142V248H601.298ZM600.686 237.236H610.298V233.672L608.318 231.692H602.666L600.686 233.672V237.236Z" fill="white"/>
<path d="M618.938 248V221.468H622.106V248H618.938Z" fill="white"/>
<path d="M665.422 248L657.43 229.172H660.886L666.97 244.832H667.798L673.846 229.172H677.338L669.346 248H665.422Z" fill="white"/>
<path d="M683.266 248L679.486 244.22V232.952L683.266 229.172H692.194L695.974 232.952V244.22L692.194 248H683.266ZM684.634 245.48H690.826L692.806 243.5L692.77 233.672L690.826 231.692H684.634L682.654 233.672V243.5L684.634 245.48Z" fill="white"/>
<path d="M701.434 248V221.468H704.602V248H701.434Z" fill="white"/>
<path d="M714.033 248L710.289 244.22V229.172H713.457L713.421 243.464L715.365 245.48H720.045L723.753 241.772V229.172H726.921V248H723.753V245.084L720.873 248H714.033Z" fill="white"/>
<path d="M732.793 248V229.172H735.961V232.556L739.237 229.172H746.185L749.497 232.52L752.737 229.172H759.685L763.465 232.952V248H760.297V233.744L758.389 231.692H753.565L749.929 235.364V248H746.761L746.797 233.744L744.853 231.692H740.065L735.961 235.868V248H732.793Z" fill="white"/>
<path d="M772.528 248L768.748 244.22V232.952L772.528 229.172H780.916L784.696 232.952V239.756H771.916V243.392L773.896 245.372H784.372V248H772.528ZM771.916 237.236H781.528V233.672L779.548 231.692H773.896L771.916 233.672V237.236Z" fill="white"/>
<path d="M790.168 248V229.172H793.336V232.556L796.612 229.172H803.56L807.304 232.952V248H804.136V233.744L802.228 231.692H797.44L793.336 235.868V248H790.168Z" fill="white"/>
<path d="M810.896 251.96L812.336 243.752H815.503L812.732 251.96H810.896Z" fill="white"/>
<path d="M856.359 248L852.579 244.22V232.952L856.359 229.172H864.747L868.527 232.952V239.756H855.747V243.392L857.727 245.372H868.203V248H856.359ZM855.747 237.236H865.359V233.672L863.379 231.692H857.727L855.747 233.672V237.236Z" fill="white"/>
<path d="M873.999 248V229.172H877.167V232.556L880.443 229.172H887.391L891.135 232.952V248H887.967V233.744L886.059 231.692H881.271L877.167 235.868V248H873.999Z" fill="white"/>
<path d="M928.972 248V221.468H932.248V244.976H945.604V248H928.972Z" fill="white"/>
<path d="M946.777 251.96L948.217 243.752H951.385L948.613 251.96H946.777Z" fill="white"/>
<path d="M97.952 288V269.172H101.12V272.556L104.396 269.172H111.344L115.088 272.952V288H111.92V273.744L110.012 271.692H105.224L101.12 275.868V288H97.952Z" fill="white"/>
<path d="M124.152 288L120.372 284.22V272.952L124.152 269.172H132.54L136.32 272.952V279.756H123.54V283.392L125.52 285.372H135.996V288H124.152ZM123.54 277.236H133.152V273.672L131.172 271.692H125.52L123.54 273.672V277.236Z" fill="white"/>
<path d="M145.14 288L141.36 284.22V272.952L145.14 269.172H153.744L157.056 272.448V275.436H153.888V273.492L152.088 271.692H146.508L144.528 273.672V283.356L146.508 285.372H156.876V288H145.14Z" fill="white"/>
<path d="M165.249 288L161.469 284.22V272.952L165.249 269.172H173.637L177.417 272.952V279.756H164.637V283.392L166.617 285.372H177.093V288H165.249ZM164.637 277.236H174.249V273.672L172.269 271.692H166.617L164.637 273.672V277.236Z" fill="white"/>
<path d="M182.889 288V285.372H192.861L194.553 283.644V281.376L192.753 279.576H185.301L181.989 276.336V272.52L185.301 269.172H195.921V271.836H186.813L185.157 273.456V275.292L186.885 277.02H194.409L197.721 280.26V284.688L194.445 288H182.889Z" fill="white"/>
<path d="M204.77 288L201.026 284.22V279.936L204.77 276.156H214.346V273.816L212.402 271.836H203.474V269.172H213.77L217.514 272.952V288H214.346V285.084L211.43 288H204.77ZM206.174 285.48H210.638L214.346 281.808V278.64L206.174 278.676L204.194 280.62V283.5L206.174 285.48Z" fill="white"/>
<path d="M223.249 288V269.172H226.417V272.556L229.693 269.172H234.517V272.34H229.837L226.417 275.868V288H223.249Z" fill="white"/>
<path d="M237.874 267.12V262.872H241.042V267.12H237.874ZM237.874 288V269.172H241.042V288H237.874Z" fill="white"/>
<path d="M250.257 288L246.477 284.22V272.952L250.257 269.172H259.185L262.965 272.952V284.22L259.185 288H250.257ZM251.625 285.48H257.817L259.797 283.5L259.761 273.672L257.817 271.692H251.625L249.645 273.672V283.5L251.625 285.48Z" fill="white"/>
<path d="M268.249 288V285.372H278.221L279.913 283.644V281.376L278.113 279.576H270.661L267.349 276.336V272.52L270.661 269.172H281.281V271.836H272.173L270.517 273.456V275.292L272.245 277.02H279.769L283.081 280.26V284.688L279.805 288H268.249Z" fill="white"/>
<path d="M304.035 288L300.255 284.22V272.952L304.035 269.172H310.947L313.863 272.16V261.468H317.031V288H313.863V285.048L310.947 288H304.035ZM310.155 285.48L313.863 281.736V275.472L310.155 271.692H305.403L303.423 273.672V283.5L305.403 285.48H310.155Z" fill="white"/>
<path d="M326.254 288L322.474 284.22V272.952L326.254 269.172H334.642L338.422 272.952V279.756H325.642V283.392L327.622 285.372H338.098V288H326.254ZM325.642 277.236H335.254V273.672L333.274 271.692H327.622L325.642 273.672V277.236Z" fill="white"/>
<path d="M356.504 288V261.468H359.672V288H356.504Z" fill="white"/>
<path d="M367.591 288L363.847 284.22V279.936L367.591 276.156H377.167V273.816L375.223 271.836H366.295V269.172H376.591L380.335 272.952V288H377.167V285.084L374.251 288H367.591ZM368.995 285.48H373.459L377.167 281.808V278.64L368.995 278.676L367.015 280.62V283.5L368.995 285.48Z" fill="white"/>
<path d="M398.68 288V285.372H408.652L410.344 283.644V281.376L408.544 279.576H401.092L397.78 276.336V272.52L401.092 269.172H411.712V271.836H402.604L400.948 273.456V275.292L402.676 277.02H410.2L413.512 280.26V284.688L410.236 288H398.68Z" fill="white"/>
<path d="M421.681 288L417.901 284.22V272.952L421.681 269.172H430.609L434.389 272.952V284.22L430.609 288H421.681ZM423.049 285.48H429.241L431.221 283.5L431.185 273.672L429.241 271.692H423.049L421.069 273.672V283.5L423.049 285.48Z" fill="white"/>
<path d="M439.848 288V261.468H443.016V288H439.848Z" fill="white"/>
<path d="M452.447 288L448.703 284.22V269.172H451.871L451.835 283.464L453.779 285.48H458.459L462.167 281.772V269.172H465.335V288H462.167V285.084L459.287 288H452.447Z" fill="white"/>
<path d="M474.556 288L470.776 284.22V272.952L474.556 269.172H483.16L486.472 272.448V275.436H483.304V273.492L481.504 271.692H475.924L473.944 273.672V283.356L475.924 285.372H486.292V288H474.556Z" fill="white"/>
<path d="M491.317 267.12V262.872H494.485V267.12H491.317ZM491.317 288V269.172H494.485V288H491.317Z" fill="white"/>
<path d="M506.832 267.12L510.288 261.756H513.996L509.532 267.12H506.832ZM503.7 288L499.92 284.22V272.952L503.7 269.172H512.628L516.408 272.952V284.22L512.628 288H503.7ZM505.068 285.48H511.26L513.24 283.5L513.204 273.672L511.26 271.692H505.068L503.088 273.672V283.5L505.068 285.48Z" fill="white"/>
<path d="M521.868 288V269.172H525.036V272.556L528.312 269.172H535.26L539.004 272.952V288H535.836V273.744L533.928 271.692H529.14L525.036 275.868V288H521.868Z" fill="white"/>
<path d="M557.329 288V261.468H560.497V272.16L563.377 269.172H570.325L574.069 272.952V284.22L570.325 288H563.377L560.497 285.048V288H557.329ZM564.205 285.48H568.957L570.901 283.5V273.672L568.957 271.692H564.205L560.497 275.472V281.736L564.205 285.48Z" fill="white"/>
<path d="M585.38 267.12L588.8 261.756H592.508L588.044 267.12H585.38ZM581.6 288L577.856 284.22V279.936L581.6 276.156H591.176V273.816L589.232 271.836H580.304V269.172H590.6L594.344 272.952V288H591.176V285.084L588.26 288H581.6ZM583.004 285.48H587.468L591.176 281.808V278.64L583.004 278.676L581.024 280.62V283.5L583.004 285.48Z" fill="white"/>
<path d="M600.079 288V285.372H610.051L611.743 283.644V281.376L609.943 279.576H602.491L599.179 276.336V272.52L602.491 269.172H613.111V271.836H604.003L602.347 273.456V275.292L604.075 277.02H611.599L614.911 280.26V284.688L611.635 288H600.079Z" fill="white"/>
<path d="M619.907 267.12V262.872H623.075V267.12H619.907ZM619.907 288V269.172H623.075V288H619.907Z" fill="white"/>
<path d="M632.291 288L628.511 284.22V272.952L632.291 269.172H640.895L644.207 272.448V275.436H641.039V273.492L639.239 271.692H633.659L631.679 273.672V283.356L633.659 285.372H644.027V288H632.291Z" fill="white"/>
<path d="M650.225 288L646.481 284.22V279.936L650.225 276.156H659.801V273.816L657.857 271.836H648.929V269.172H659.225L662.969 272.952V288H659.801V285.084L656.885 288H650.225ZM651.629 285.48H656.093L659.801 281.808V278.64L651.629 278.676L649.649 280.62V283.5L651.629 285.48Z" fill="white"/>
<path d="M666.58 291.96L668.02 283.752H671.188L668.416 291.96H666.58Z" fill="white"/>
<path d="M689.365 294.732V269.172H692.533V272.16L695.413 269.172H702.361L706.105 272.952V284.22L702.361 288H695.413L692.533 285.048V294.732H689.365ZM696.241 285.48H700.993L702.937 283.5V273.672L700.993 271.692H696.241L692.533 275.472V281.736L696.241 285.48Z" fill="white"/>
<path d="M713.636 288L709.892 284.22V279.936L713.636 276.156H723.212V273.816L721.268 271.836H712.34V269.172H722.636L726.38 272.952V288H723.212V285.084L720.296 288H713.636ZM715.04 285.48H719.504L723.212 281.808V278.64L715.04 278.676L713.06 280.62V283.5L715.04 285.48Z" fill="white"/>
<path d="M732.115 288V269.172H735.283V272.556L738.559 269.172H743.383V272.34H738.703L735.283 275.868V288H732.115Z" fill="white"/>
<path d="M747.983 288L744.239 284.22V279.936L747.983 276.156H757.559V273.816L755.615 271.836H746.687V269.172H756.983L760.727 272.952V288H757.559V285.084L754.643 288H747.983ZM749.387 285.48H753.851L757.559 281.808V278.64L749.387 278.676L747.407 280.62V283.5L749.387 285.48Z" fill="white"/>
<path d="M801.225 294.732V285.048L798.309 288H791.397L787.617 284.22V272.952L791.397 269.172H798.309L801.225 272.16V269.172H804.393V294.732H801.225ZM797.517 285.48L801.225 281.736V275.472L797.517 271.692H792.765L790.785 273.672V283.5L792.765 285.48H797.517Z" fill="white"/>
<path d="M813.831 288L810.087 284.22V269.172H813.255L813.219 283.464L815.163 285.48H819.843L823.551 281.772V269.172H826.719V288H823.551V285.084L820.671 288H813.831Z" fill="white"/>
<path d="M835.94 288L832.16 284.22V272.952L835.94 269.172H844.328L848.108 272.952V279.756H835.328V283.392L837.308 285.372H847.784V288H835.94ZM835.328 277.236H844.94V273.672L842.96 271.692H837.308L835.328 273.672V277.236Z" fill="white"/>
<path d="M869.538 288L865.758 284.22V272.952L869.538 269.172H877.926L881.706 272.952V279.756H868.926V283.392L870.906 285.372H881.382V288H869.538ZM868.926 277.236H878.538V273.672L876.558 271.692H870.906L868.926 273.672V277.236Z" fill="white"/>
<path d="M887.178 288V261.468H890.346V288H887.178Z" fill="white"/>
<path d="M908.823 294.732V269.172H911.991V272.16L914.871 269.172H921.819L925.563 272.952V284.22L921.819 288H914.871L911.991 285.048V294.732H908.823ZM915.699 285.48H920.451L922.395 283.5V273.672L920.451 271.692H915.699L911.991 275.472V281.736L915.699 285.48Z" fill="white"/>
<path d="M931.222 288V261.468H934.498V272.592H947.638V261.468H950.914V288H947.638V275.508H934.498V288H931.222Z" fill="white"/>
<path d="M101.3 328L97.52 324.22V312.952L101.3 309.172H108.212L111.128 312.16V301.468H114.296V328H111.128V325.048L108.212 328H101.3ZM107.42 325.48L111.128 321.736V315.472L107.42 311.692H102.668L100.688 313.672V323.5L102.668 325.48H107.42Z" fill="white"/>
<path d="M123.519 328L119.739 324.22V312.952L123.519 309.172H131.907L135.687 312.952V319.756H122.907V323.392L124.887 325.372H135.363V328H123.519ZM122.907 317.236H132.519V313.672L130.539 311.692H124.887L122.907 313.672V317.236Z" fill="white"/>
<path d="M149.139 328V301.468H152.307V328H149.139Z" fill="white"/>
<path d="M160.227 328L156.483 324.22V319.936L160.227 316.156H169.803V313.816L167.859 311.836H158.931V309.172H169.227L172.971 312.952V328H169.803V325.084L166.887 328H160.227ZM161.631 325.48H166.095L169.803 321.808V318.64L161.631 318.676L159.651 320.62V323.5L161.631 325.48Z" fill="white"/>
<path d="M186.686 328V325.372H196.658L198.35 323.644V321.376L196.55 319.576H189.098L185.786 316.336V312.52L189.098 309.172H199.718V311.836H190.61L188.954 313.456V315.292L190.682 317.02H198.206L201.518 320.26V324.688L198.242 328H186.686Z" fill="white"/>
<path d="M209.687 328L205.907 324.22V312.952L209.687 309.172H218.615L222.395 312.952V324.22L218.615 328H209.687ZM211.055 325.48H217.247L219.227 323.5L219.191 313.672L217.247 311.692H211.055L209.075 313.672V323.5L211.055 325.48Z" fill="white"/>
<path d="M227.854 328V301.468H231.022V328H227.854Z" fill="white"/>
<path d="M240.454 328L236.71 324.22V309.172H239.878L239.842 323.464L241.786 325.48H246.465L250.174 321.772V309.172H253.342V328H250.174V325.084L247.294 328H240.454Z" fill="white"/>
<path d="M262.562 328L258.782 324.22V312.952L262.562 309.172H271.166L274.478 312.448V315.436H271.31V313.492L269.51 311.692H263.93L261.95 313.672V323.356L263.93 325.372H274.298V328H262.562Z" fill="white"/>
<path d="M279.323 307.12V302.872H282.491V307.12H279.323ZM279.323 328V309.172H282.491V328H279.323Z" fill="white"/>
<path d="M294.838 307.12L298.294 301.756H302.002L297.538 307.12H294.838ZM291.706 328L287.926 324.22V312.952L291.706 309.172H300.634L304.414 312.952V324.22L300.634 328H291.706ZM293.074 325.48H299.266L301.246 323.5L301.21 313.672L299.266 311.692H293.074L291.094 313.672V323.5L293.074 325.48Z" fill="white"/>
<path d="M309.874 328V309.172H313.042V312.556L316.318 309.172H323.266L327.01 312.952V328H323.842V313.744L321.934 311.692H317.146L313.042 315.868V328H309.874Z" fill="white"/>
<path d="M340.85 328V311.692H338.906V309.172H340.85V304.78L344.162 301.468H348.842V304.096H345.71L344.018 305.86V309.172H348.05V311.692H344.018V328H340.85Z" fill="white"/>
<path d="M351.639 307.12V302.872H354.807V307.12H351.639ZM351.639 328V309.172H354.807V328H351.639Z" fill="white"/>
<path d="M360.675 328V309.172H363.843V312.556L367.119 309.172H374.067L377.811 312.952V328H374.643V313.744L372.735 311.692H367.947L363.843 315.868V328H360.675Z" fill="white"/>
<path d="M385.578 328L381.834 324.22V319.936L385.578 316.156H395.154V313.816L393.21 311.836H384.282V309.172H394.578L398.322 312.952V328H395.154V325.084L392.238 328H385.578ZM386.982 325.48H391.446L395.154 321.808V318.64L386.982 318.676L385.002 320.62V323.5L386.982 325.48Z" fill="white"/>
<path d="M404.057 328V301.468H407.225V328H404.057Z" fill="white"/>
<path d="M421.073 328V325.372H431.045L432.737 323.644V321.376L430.937 319.576H423.485L420.173 316.336V312.52L423.485 309.172H434.105V311.836H424.997L423.341 313.456V315.292L425.069 317.02H432.593L435.905 320.26V324.688L432.629 328H421.073Z" fill="white"/>
<path d="M444.073 328L440.293 324.22V312.952L444.073 309.172H452.461L456.241 312.952V319.756H443.461V323.392L445.441 325.372H455.917V328H444.073ZM443.461 317.236H453.073V313.672L451.093 311.692H445.441L443.461 313.672V317.236Z" fill="white"/>
<path d="M462.887 328L459.143 324.22V319.936L462.887 316.156H472.463V313.816L470.519 311.836H461.591V309.172H471.887L475.631 312.952V328H472.463V325.084L469.547 328H462.887ZM464.291 325.48H468.755L472.463 321.808V318.64L464.291 318.676L462.311 320.62V323.5L464.291 325.48Z" fill="white"/>
<path d="M489.347 307.12V302.872H492.515V307.12H489.347ZM489.347 328V309.172H492.515V328H489.347Z" fill="white"/>
<path d="M499.426 334.732V332.104L509.578 332.068L511.558 330.124V325.048L508.642 328H501.73L497.95 324.22V312.952L501.73 309.172H508.642L511.558 312.16V309.172H514.726V330.952L510.946 334.732H499.426ZM507.85 325.48L511.558 321.736V315.472L507.85 311.692H503.098L501.118 313.672V323.5L503.098 325.48H507.85Z" fill="white"/>
<path d="M524.164 328L520.42 324.22V309.172H523.588L523.552 323.464L525.496 325.48H530.176L533.884 321.772V309.172H537.052V328H533.884V325.084L531.004 328H524.164Z" fill="white"/>
<path d="M544.977 328L541.233 324.22V319.936L544.977 316.156H554.553V313.816L552.609 311.836H543.681V309.172H553.977L557.721 312.952V328H554.553V325.084L551.637 328H544.977ZM546.381 325.48H550.845L554.553 321.808V318.64L546.381 318.676L544.401 320.62V323.5L546.381 325.48Z" fill="white"/>
<path d="M563.456 328V301.468H566.624V328H563.456Z" fill="white"/>
<path d="M582.524 328L578.78 324.22V319.936L582.524 316.156H592.1V313.816L590.156 311.836H581.228V309.172H591.524L595.268 312.952V328H592.1V325.084L589.184 328H582.524ZM583.928 325.48H588.392L592.1 321.808V318.64L583.928 318.676L581.948 320.62V323.5L583.928 325.48Z" fill="white"/>
<path d="M608.731 328L620.215 305.284V304.492H606.751V301.468H623.815V305.356L612.475 328H608.731Z" fill="white"/>
<path d="M625.633 331.96L627.073 323.752H630.241L627.469 331.96H625.633Z" fill="white"/>
<path d="M639.083 328L635.303 324.22V305.248L639.083 301.468H650.603L654.383 305.248V324.22L650.603 328H639.083ZM640.559 325.084H649.127L651.107 323.104V306.364L649.127 304.384H640.559L638.579 306.364L638.615 323.104L640.559 325.084Z" fill="white"/>
<path d="M659.1 328V323.752H662.268V328H659.1Z" fill="white"/>
</g>
</g>
</g>
</svg>
