<svg viewBox="0 0 1037 452" fill="none" xmlns="http://www.w3.org/2000/svg">
<g id="0305102">
<g id="Group 53">
<g id="clave">
<g id="Group 61">
<path id="Rectangle 4" d="M39 348H222.8L251 388L222.8 428H39V348Z" fill="#28DA10" fill-opacity="0.1"/>
<path id="Rectangle 4 (Stroke)" fill-rule="evenodd" clip-rule="evenodd" d="M221.244 351H42V425H221.244L247.329 388L221.244 351ZM222.8 348H39V428H222.8L251 388L222.8 348Z" fill="#28DA10"/>
<path id="Ellipse 1" d="M80 388C80 410.091 62.0914 428 40 428C17.9086 428 0 410.091 0 388C0 365.909 17.9086 348 40 348C62.0914 348 80 365.909 80 388Z" fill="#28DA10"/>
<path id="Ellipse 1 (Stroke)" fill-rule="evenodd" clip-rule="evenodd" d="M40 427C61.5391 427 79 409.539 79 388C79 366.461 61.5391 349 40 349C18.4609 349 1 366.461 1 388C1 409.539 18.4609 427 40 427ZM40 428C62.0914 428 80 410.091 80 388C80 365.909 62.0914 348 40 348C17.9086 348 0 365.909 0 388C0 410.091 17.9086 428 40 428Z" fill="#28DA10"/>
<path id="A" d="M48.3125 396.25H27.6562L22.9688 409H18.9375L36.1562 363.5H39.8125L57.0312 409H53.0312L48.3125 396.25ZM28.8438 392.969H47.0938L37.9688 368.188L28.8438 392.969Z" fill="white"/>
<path id="A (Stroke)" fill-rule="evenodd" clip-rule="evenodd" d="M53.0313 409L48.3125 396.25H27.6563L22.9688 409H18.9375L36.1563 363.5H39.8125L57.0313 409H53.0313ZM28.3541 397.25L23.6666 410H17.4899L35.4655 362.5H40.5033L58.4789 410H52.3351L47.6163 397.25H28.3541ZM47.0938 392.969L37.9688 368.188L28.8438 392.969H47.0938ZM30.2776 391.969H45.6599L37.9688 371.082L30.2776 391.969Z" fill="#28DA10"/>
</g>
<g id="Group 60">
<path id="Rectangle 5" d="M308 353H486.598L514 393L486.598 433H308V353Z" fill="#28DA10" fill-opacity="0.1"/>
<path id="Rectangle 5 (Stroke)" fill-rule="evenodd" clip-rule="evenodd" d="M485.017 356H311V430H485.017L510.364 393L485.017 356ZM486.598 353H308V433H486.598L514 393L486.598 353Z" fill="#28DA10"/>
<path id="Ellipse 2" d="M349 393C349 415.091 331.091 433 309 433C286.909 433 269 415.091 269 393C269 370.909 286.909 353 309 353C331.091 353 349 370.909 349 393Z" fill="#28DA10"/>
<path id="Ellipse 2 (Stroke)" fill-rule="evenodd" clip-rule="evenodd" d="M309 432C330.539 432 348 414.539 348 393C348 371.461 330.539 354 309 354C287.461 354 270 371.461 270 393C270 414.539 287.461 432 309 432ZM309 433C331.091 433 349 415.091 349 393C349 370.909 331.091 353 309 353C286.909 353 269 370.909 269 393C269 415.091 286.909 433 309 433Z" fill="#28DA10"/>
<path id="B" d="M293.75 409V363.5H307.188C312.062 363.5 315.76 364.51 318.281 366.531C320.802 368.531 322.062 371.49 322.062 375.406C322.062 377.76 321.417 379.812 320.125 381.562C318.854 383.292 317.104 384.531 314.875 385.281C317.521 385.865 319.646 387.167 321.25 389.188C322.875 391.208 323.688 393.542 323.688 396.188C323.688 400.208 322.385 403.354 319.781 405.625C317.198 407.875 313.594 409 308.969 409H293.75ZM297.594 387.125V405.75H309.125C312.417 405.75 315.021 404.917 316.938 403.25C318.875 401.562 319.844 399.229 319.844 396.25C319.844 393.438 318.917 391.219 317.062 389.594C315.229 387.948 312.688 387.125 309.438 387.125H297.594ZM297.594 383.906H308.094C311.302 383.844 313.781 383.094 315.531 381.656C317.302 380.198 318.188 378.083 318.188 375.312C318.188 372.396 317.271 370.25 315.438 368.875C313.625 367.479 310.875 366.781 307.188 366.781H297.594V383.906Z" fill="white"/>
<path id="B (Stroke)" fill-rule="evenodd" clip-rule="evenodd" d="M292.75 410V362.5H307.188C312.178 362.5 316.136 363.531 318.905 365.749C321.715 367.98 323.062 371.259 323.062 375.406C323.062 377.955 322.359 380.22 320.93 382.156C320.036 383.372 318.929 384.363 317.623 385.131C319.353 385.904 320.828 387.048 322.031 388.563C323.801 390.765 324.688 393.32 324.688 396.188C324.688 400.445 323.297 403.886 320.438 406.379C317.618 408.835 313.75 410 308.969 410H292.75ZM321.25 389.188C319.978 387.585 318.379 386.435 316.452 385.736C315.949 385.554 315.423 385.402 314.875 385.281C315.409 385.102 315.915 384.894 316.393 384.659C317.914 383.91 319.158 382.878 320.125 381.562C321.417 379.812 322.062 377.76 322.062 375.406C322.062 371.49 320.802 368.531 318.281 366.531C315.76 364.51 312.062 363.5 307.188 363.5H293.75V409H308.969C313.594 409 317.198 407.875 319.781 405.625C322.385 403.354 323.688 400.208 323.688 396.188C323.688 393.542 322.875 391.208 321.25 389.188ZM316.394 390.338C314.797 388.904 312.521 388.125 309.438 388.125H298.594V404.75H309.125C312.248 404.75 314.594 403.962 316.281 402.496M309.125 405.75C312.417 405.75 315.021 404.917 316.938 403.25C318.875 401.562 319.844 399.229 319.844 396.25C319.844 393.438 318.917 391.219 317.062 389.594C315.229 387.948 312.688 387.125 309.438 387.125H297.594V405.75H309.125ZM316.394 390.338L316.403 390.346ZM314.827 369.667C313.268 368.466 310.779 367.781 307.188 367.781H298.594V382.906H308.084C311.153 382.845 313.38 382.128 314.896 380.884M308.094 383.906H297.594V366.781H307.188C310.875 366.781 313.625 367.479 315.438 368.875C317.271 370.25 318.188 372.396 318.188 375.312C318.188 378.083 317.302 380.198 315.531 381.656C313.781 383.094 311.302 383.844 308.094 383.906ZM314.827 369.667L314.837 369.675ZM316.281 402.496C317.964 401.029 318.844 398.991 318.844 396.25C318.844 393.681 318.009 391.753 316.403 390.346M314.897 380.884C316.388 379.655 317.188 377.852 317.188 375.312C317.188 372.616 316.352 370.811 314.837 369.675" fill="#28DA10"/>
</g>
<g id="Group 59">
<path id="Rectangle 6" d="M568 350H751.8L780 390L751.8 430H568V350Z" fill="#28DA10" fill-opacity="0.1"/>
<path id="Rectangle 6 (Stroke)" fill-rule="evenodd" clip-rule="evenodd" d="M750.244 353H571V427H750.244L776.329 390L750.244 353ZM751.8 350H568V430H751.8L780 390L751.8 350Z" fill="#28DA10"/>
<path id="Ellipse 3" d="M609 390C609 412.091 591.091 430 569 430C546.909 430 529 412.091 529 390C529 367.909 546.909 350 569 350C591.091 350 609 367.909 609 390Z" fill="#28DA10"/>
<path id="Ellipse 3 (Stroke)" fill-rule="evenodd" clip-rule="evenodd" d="M569 429C590.539 429 608 411.539 608 390C608 368.461 590.539 351 569 351C547.461 351 530 368.461 530 390C530 411.539 547.461 429 569 429ZM569 430C591.091 430 609 412.091 609 390C609 367.909 591.091 350 569 350C546.909 350 529 367.909 529 390C529 412.091 546.909 430 569 430Z" fill="#28DA10"/>
<path id="C" d="M584.969 397.812C584.448 402.604 582.729 406.271 579.812 408.812C576.917 411.354 573.052 412.625 568.219 412.625C564.844 412.625 561.854 411.781 559.25 410.094C556.667 408.406 554.667 406.021 553.25 402.938C551.833 399.833 551.115 396.292 551.094 392.312V386.406C551.094 382.365 551.802 378.781 553.219 375.656C554.635 372.531 556.667 370.125 559.312 368.438C561.979 366.729 565.042 365.875 568.5 365.875C573.375 365.875 577.219 367.198 580.031 369.844C582.865 372.469 584.51 376.104 584.969 380.75H581.094C580.135 373.021 575.938 369.156 568.5 369.156C564.375 369.156 561.083 370.698 558.625 373.781C556.188 376.865 554.969 381.125 554.969 386.562V392.125C554.969 397.375 556.156 401.562 558.531 404.688C560.927 407.812 564.156 409.375 568.219 409.375C572.24 409.375 575.271 408.417 577.312 406.5C579.354 404.562 580.615 401.667 581.094 397.812H584.969Z" fill="white"/>
<path id="C (Stroke)" fill-rule="evenodd" clip-rule="evenodd" d="M586.083 396.812L585.963 397.921C585.422 402.897 583.62 406.82 580.471 409.565C577.35 412.304 573.23 413.625 568.219 413.625C564.668 413.625 561.486 412.735 558.706 410.933L558.703 410.931C555.947 409.13 553.829 406.592 552.341 403.355L552.34 403.353C550.856 400.1 550.115 396.415 550.094 392.318L550.094 392.312L550.094 386.406C550.094 382.247 550.823 378.519 552.308 375.243C553.797 371.959 555.95 369.396 558.774 367.595C561.616 365.774 564.869 364.875 568.5 364.875C573.558 364.875 577.671 366.252 580.714 369.113C583.76 371.937 585.487 375.818 585.964 380.652L586.072 381.75H580.21L580.101 380.873C579.641 377.158 578.419 374.512 576.549 372.79C574.685 371.075 572.046 370.156 568.5 370.156C564.664 370.156 561.667 371.571 559.408 374.403C557.156 377.253 555.969 381.266 555.969 386.562V392.125C555.969 397.229 557.123 401.18 559.326 404.081C561.526 406.949 564.456 408.375 568.219 408.375C572.094 408.375 574.837 407.451 576.626 405.773C578.445 404.046 579.64 401.399 580.101 397.689L580.21 396.812H586.083ZM577.312 406.5C575.271 408.417 572.24 409.375 568.219 409.375C564.156 409.375 560.927 407.812 558.531 404.688C556.156 401.562 554.969 397.375 554.969 392.125V386.562C554.969 381.125 556.187 376.865 558.625 373.781C561.083 370.698 564.375 369.156 568.5 369.156C575.937 369.156 580.135 373.021 581.094 380.75H584.969C584.935 380.411 584.896 380.078 584.85 379.75C584.264 375.579 582.658 372.277 580.031 369.844C577.219 367.198 573.375 365.875 568.5 365.875C565.042 365.875 561.979 366.729 559.312 368.438C556.667 370.125 554.635 372.531 553.219 375.656C551.802 378.781 551.094 382.365 551.094 386.406V392.312C551.115 396.292 551.833 399.833 553.25 402.938C554.667 406.021 556.667 408.406 559.25 410.094C561.854 411.781 564.844 412.625 568.219 412.625C573.052 412.625 576.917 411.354 579.812 408.812C582.523 406.451 584.199 403.117 584.84 398.812C584.889 398.485 584.932 398.151 584.969 397.812H581.094C580.615 401.667 579.354 404.562 577.312 406.5Z" fill="#28DA10"/>
</g>
<g id="Group 58">
<path id="Rectangle 7" d="M837 353H1010.4L1037 393L1010.4 433H837V353Z" fill="#28DA10" fill-opacity="0.1"/>
<path id="Rectangle 7 (Stroke)" fill-rule="evenodd" clip-rule="evenodd" d="M1008.79 356H840V430H1008.79L1033.4 393L1008.79 356ZM1010.4 353H837V433H1010.4L1037 393L1010.4 353Z" fill="#28DA10"/>
<path id="Ellipse 4" d="M878 393C878 415.091 860.091 433 838 433C815.909 433 798 415.091 798 393C798 370.909 815.909 353 838 353C860.091 353 878 370.909 878 393Z" fill="#28DA10"/>
<path id="Ellipse 4 (Stroke)" fill-rule="evenodd" clip-rule="evenodd" d="M838 432C859.539 432 877 414.539 877 393C877 371.461 859.539 354 838 354C816.461 354 799 371.461 799 393C799 414.539 816.461 432 838 432ZM838 433C860.091 433 878 415.091 878 393C878 370.909 860.091 353 838 353C815.909 353 798 370.909 798 393C798 415.091 815.909 433 838 433Z" fill="#28DA10"/>
<path id="D" d="M821.75 415V369.5H834.469C838.198 369.5 841.542 370.354 844.5 372.062C847.458 373.75 849.76 376.177 851.406 379.344C853.073 382.51 853.906 386.115 853.906 390.156V394.344C853.906 398.406 853.083 402.01 851.438 405.156C849.792 408.302 847.469 410.729 844.469 412.438C841.49 414.146 838.062 415 834.188 415H821.75ZM825.594 372.781V411.75H834.219C839.01 411.75 842.854 410.167 845.75 407C848.646 403.812 850.094 399.51 850.094 394.094V390.094C850.094 384.865 848.667 380.677 845.812 377.531C842.958 374.385 839.198 372.802 834.531 372.781H825.594Z" fill="white"/>
<path id="D (Stroke)" fill-rule="evenodd" clip-rule="evenodd" d="M820.75 416V368.5H834.469C838.356 368.5 841.874 369.392 844.998 371.195C848.13 372.982 850.563 375.554 852.292 378.881C854.043 382.208 854.906 385.975 854.906 390.156V394.344C854.906 398.544 854.054 402.311 852.324 405.62C850.592 408.93 848.136 411.5 844.965 413.306C841.816 415.111 838.214 416 834.188 416H820.75ZM844.469 412.438C847.469 410.729 849.792 408.302 851.438 405.156C853.083 402.01 853.906 398.406 853.906 394.344V390.156C853.906 386.115 853.073 382.51 851.406 379.344C849.76 376.177 847.458 373.75 844.5 372.062C841.542 370.354 838.198 369.5 834.469 369.5H821.75V415H834.188C838.062 415 841.49 414.146 844.469 412.438ZM825.594 411.75V372.781H834.531C839.198 372.802 842.958 374.385 845.812 377.531C848.667 380.677 850.094 384.865 850.094 390.094V394.094C850.094 399.51 848.646 403.812 845.75 407C842.854 410.167 839.01 411.75 834.219 411.75H825.594ZM845.011 406.326C847.699 403.367 849.094 399.327 849.094 394.094V390.094C849.094 385.053 847.723 381.125 845.072 378.203C842.426 375.287 838.945 373.801 834.529 373.781H826.594V410.75H834.219C838.766 410.75 842.328 409.26 845.011 406.326Z" fill="#28DA10"/>
</g>
</g>
<g id="Group 57">
<g id="0,6 y 1,2 1,2 y 0,6 1,2 y 1,2 0,6 y 0,6">
<path d="M96.2085 403L92.4285 399.22V380.248L96.2085 376.468H107.728L111.508 380.248V399.22L107.728 403H96.2085ZM97.6845 400.084H106.252L108.232 398.104V381.364L106.252 379.384H97.6845L95.7045 381.364L95.7405 398.104L97.6845 400.084Z" fill="#28DA10"/>
<path d="M114.785 406.96L116.225 398.752H119.393L116.621 406.96H114.785Z" fill="#28DA10"/>
<path d="M128.236 403L124.456 399.22V380.248L128.236 376.468H140.08L143.716 380.14L141.592 382.264L138.676 379.384H129.712L127.732 381.364V388.78L129.964 386.584H139.9L143.644 390.364V399.22L139.9 403H128.236ZM129.712 400.084H138.424L140.368 398.104V391.444L138.424 389.464H130.072L127.732 391.912V398.104L129.712 400.084Z" fill="#28DA10"/>
<path d="M160.367 409.732L163.751 401.704H162.419L154.679 384.172H158.171L164.219 398.572H165.047L170.627 384.172H174.083L163.571 409.732H160.367Z" fill="#28DA10"/>
<path d="M184.599 403V399.976H188.667V379.492H185.031V376.468H191.943V399.976H196.011V403H184.599Z" fill="#28DA10"/>
<path d="M198.633 406.96L200.073 398.752H203.241L200.469 406.96H198.633Z" fill="#28DA10"/>
<path d="M208.303 403V398.752L222.487 384.82V381.364L220.543 379.348L213.199 379.384L210.283 382.336L208.159 380.176L211.795 376.468H222.019L225.763 380.248V386.116L211.975 399.76V399.976H226.159V403H208.303Z" fill="#28DA10"/>
<path d="M358.411 403V399.976H362.479V379.492H358.843V376.468H365.755V399.976H369.823V403H358.411Z" fill="#28DA10"/>
<path d="M372.445 406.96L373.885 398.752H377.053L374.281 406.96H372.445Z" fill="#28DA10"/>
<path d="M382.116 403V398.752L396.3 384.82V381.364L394.356 379.348L387.012 379.384L384.096 382.336L381.972 380.176L385.608 376.468H395.832L399.576 380.248V386.116L385.788 399.76V399.976H399.972V403H382.116Z" fill="#28DA10"/>
<path d="M416.621 409.732L420.005 401.704H418.673L410.933 384.172H414.425L420.473 398.572H421.301L426.881 384.172H430.337L419.825 409.732H416.621Z" fill="#28DA10"/>
<path d="M445.029 403L441.249 399.22V380.248L445.029 376.468H456.549L460.329 380.248V399.22L456.549 403H445.029ZM446.505 400.084H455.073L457.053 398.104V381.364L455.073 379.384H446.505L444.525 381.364L444.561 398.104L446.505 400.084Z" fill="#28DA10"/>
<path d="M463.605 406.96L465.045 398.752H468.213L465.441 406.96H463.605Z" fill="#28DA10"/>
<path d="M477.056 403L473.276 399.22V380.248L477.056 376.468H488.9L492.536 380.14L490.412 382.264L487.496 379.384H478.532L476.552 381.364V388.78L478.784 386.584H488.72L492.464 390.364V399.22L488.72 403H477.056ZM478.532 400.084H487.244L489.188 398.104V391.444L487.244 389.464H478.892L476.552 391.912V398.104L478.532 400.084Z" fill="#28DA10"/>
<path d="M616.81 403V399.976H620.878V379.492H617.242V376.468H624.154V399.976H628.222V403H616.81Z" fill="#28DA10"/>
<path d="M630.844 406.96L632.284 398.752H635.452L632.68 406.96H630.844Z" fill="#28DA10"/>
<path d="M640.514 403V398.752L654.698 384.82V381.364L652.754 379.348L645.41 379.384L642.494 382.336L640.37 380.176L644.006 376.468H654.23L657.974 380.248V386.116L644.186 399.76V399.976H658.37V403H640.514Z" fill="#28DA10"/>
<path d="M675.019 409.732L678.403 401.704H677.071L669.331 384.172H672.823L678.871 398.572H679.699L685.279 384.172H688.735L678.223 409.732H675.019Z" fill="#28DA10"/>
<path d="M699.251 403V399.976H703.319V379.492H699.683V376.468H706.595V399.976H710.663V403H699.251Z" fill="#28DA10"/>
<path d="M713.285 406.96L714.725 398.752H717.893L715.121 406.96H713.285Z" fill="#28DA10"/>
<path d="M722.956 403V398.752L737.14 384.82V381.364L735.196 379.348L727.852 379.384L724.936 382.336L722.812 380.176L726.448 376.468H736.672L740.416 380.248V386.116L726.628 399.76V399.976H740.812V403H722.956Z" fill="#28DA10"/>
<path d="M885.22 403L881.44 399.22V380.248L885.22 376.468H896.74L900.52 380.248V399.22L896.74 403H885.22ZM886.696 400.084H895.264L897.244 398.104V381.364L895.264 379.384H886.696L884.716 381.364L884.752 398.104L886.696 400.084Z" fill="#28DA10"/>
<path d="M903.797 406.96L905.237 398.752H908.405L905.633 406.96H903.797Z" fill="#28DA10"/>
<path d="M917.248 403L913.468 399.22V380.248L917.248 376.468H929.092L932.728 380.14L930.604 382.264L927.688 379.384H918.724L916.744 381.364V388.78L918.976 386.584H928.912L932.656 390.364V399.22L928.912 403H917.248ZM918.724 400.084H927.436L929.38 398.104V391.444L927.436 389.464H919.084L916.744 391.912V398.104L918.724 400.084Z" fill="#28DA10"/>
<path d="M949.379 409.732L952.763 401.704H951.431L943.691 384.172H947.183L953.231 398.572H954.059L959.639 384.172H963.095L952.583 409.732H949.379Z" fill="#28DA10"/>
<path d="M977.787 403L974.007 399.22V380.248L977.787 376.468H989.307L993.087 380.248V399.22L989.307 403H977.787ZM979.263 400.084H987.831L989.811 398.104V381.364L987.831 379.384H979.263L977.283 381.364L977.319 398.104L979.263 400.084Z" fill="#28DA10"/>
<path d="M996.363 406.96L997.803 398.752H1000.97L998.199 406.96H996.363Z" fill="#28DA10"/>
<path d="M1009.81 403L1006.03 399.22V380.248L1009.81 376.468H1021.66L1025.29 380.14L1023.17 382.264L1020.25 379.384H1011.29L1009.31 381.364V388.78L1011.54 386.584H1021.48L1025.22 390.364V399.22L1021.48 403H1009.81ZM1011.29 400.084H1020L1021.95 398.104V391.444L1020 389.464H1011.65L1009.31 391.912V398.104L1011.29 400.084Z" fill="#28DA10"/>
</g>
</g>
<g id="flecha">
<path id="Rectangle 2" d="M849.13 360.055L863.606 367.752L823.839 442.543L809.363 434.846L849.13 360.055Z" fill="#D51919"/>
<path id="Rectangle 1" d="M794 372.271L879.252 325V379.649L836.626 362.981L794 372.271Z" fill="#D51919"/>
<path id="Rectangle 3" d="M797.825 437.921L812.628 412.282L828.988 411.734L814.185 437.374L797.825 437.921Z" fill="#D51919"/>
<path id="Rectangle 4_2" d="M822.502 451.785L837.305 426.146L828.978 411.345L814.175 436.984L822.502 451.785Z" fill="#D51919"/>
</g>
</g>
<g id="enun01">
<path id="Rectangle 1_2" d="M63 0H952.089L1027 156.712L952.089 318H63V0Z" fill="#02071A"/>
<path id="Rectangle 1 (Stroke)" fill-rule="evenodd" clip-rule="evenodd" d="M949.568 4H67V314H949.536L1022.58 156.737L949.568 4ZM952.089 0H63V318H952.089L1027 156.712L952.089 0Z" fill="#28DA10"/>
<path id="Ellipse 1_2" d="M97 145.403C97 163.852 82.0015 178.807 63.5 178.807C44.9985 178.807 30 163.852 30 145.403C30 126.955 44.9985 112 63.5 112C82.0015 112 97 126.955 97 145.403Z" fill="#28DA10"/>
<path id="Ellipse 1 (Stroke)_2" fill-rule="evenodd" clip-rule="evenodd" d="M63.5 177.807C81.452 177.807 96 163.297 96 145.403C96 127.51 81.452 113 63.5 113C45.548 113 31 127.51 31 145.403C31 163.297 45.548 177.807 63.5 177.807ZM63.5 178.807C82.0015 178.807 97 163.852 97 145.403C97 126.955 82.0015 112 63.5 112C44.9985 112 30 126.955 30 145.403C30 163.852 44.9985 178.807 63.5 178.807Z" fill="#28DA10"/>
<g id="Las soluciones de potasa c&#195;&#161;ustica (KOH) se emplean en la producci&#195;&#179;n de fertilizantes y detergentes. Si se disuelve 6,72 g de KOH en cantidad suficiente de agua para formar 200 mL de soluci&#195;&#179;n, determine la molaridad y normalidad de dicha soluci&#195;&#179;n, respectivamente. Dato:M(g/ mol) : KOH = 56">
<path d="M108.132 48.0294V21.4974H111.408V45.0054H124.764V48.0294H108.132Z" fill="white"/>
<path d="M130.113 48.0294L126.369 44.2494V39.9654L130.113 36.1854H139.689V33.8454L137.745 31.8654H128.817V29.2014H139.113L142.857 32.9814V48.0294H139.689V45.1134L136.773 48.0294H130.113ZM131.517 45.5094H135.981L139.689 41.8374V38.6694L131.517 38.7054L129.537 40.6494V43.5294L131.517 45.5094Z" fill="white"/>
<path d="M148.593 48.0294V45.4014H158.565L160.257 43.6734V41.4054L158.457 39.6054H151.005L147.693 36.3654V32.5494L151.005 29.2014H161.625V31.8654H152.517L150.861 33.4854V35.3214L152.589 37.0494H160.113L163.425 40.2894V44.7174L160.149 48.0294H148.593Z" fill="white"/>
<path d="M196.638 48.0294V45.4014H206.61L208.302 43.6734V41.4054L206.502 39.6054H199.05L195.738 36.3654V32.5494L199.05 29.2014H209.67V31.8654H200.562L198.906 33.4854V35.3214L200.634 37.0494H208.158L211.47 40.2894V44.7174L208.194 48.0294H196.638Z" fill="white"/>
<path d="M219.639 48.0294L215.859 44.2494V32.9814L219.639 29.2014H228.567L232.347 32.9814V44.2494L228.567 48.0294H219.639ZM221.007 45.5094H227.199L229.179 43.5294L229.143 33.7014L227.199 31.7214H221.007L219.027 33.7014V43.5294L221.007 45.5094Z" fill="white"/>
<path d="M237.806 48.0294V21.4974H240.974V48.0294H237.806Z" fill="white"/>
<path d="M250.405 48.0294L246.661 44.2494V29.2014H249.829L249.793 43.4934L251.737 45.5094H256.417L260.125 41.8014V29.2014H263.293V48.0294H260.125V45.1134L257.245 48.0294H250.405Z" fill="white"/>
<path d="M272.514 48.0294L268.734 44.2494V32.9814L272.514 29.2014H281.118L284.43 32.4774V35.4654H281.262V33.5214L279.462 31.7214H273.882L271.902 33.7014V43.3854L273.882 45.4014H284.25V48.0294H272.514Z" fill="white"/>
<path d="M289.275 27.1494V22.9014H292.443V27.1494H289.275ZM289.275 48.0294V29.2014H292.443V48.0294H289.275Z" fill="white"/>
<path d="M301.658 48.0294L297.878 44.2494V32.9814L301.658 29.2014H310.586L314.366 32.9814V44.2494L310.586 48.0294H301.658ZM303.026 45.5094H309.218L311.198 43.5294L311.162 33.7014L309.218 31.7214H303.026L301.046 33.7014V43.5294L303.026 45.5094Z" fill="white"/>
<path d="M319.826 48.0294V29.2014H322.994V32.5854L326.27 29.2014H333.218L336.962 32.9814V48.0294H333.794V33.7734L331.886 31.7214H327.098L322.994 35.8974V48.0294H319.826Z" fill="white"/>
<path d="M346.025 48.0294L342.245 44.2494V32.9814L346.025 29.2014H354.413L358.193 32.9814V39.7854H345.413V43.4214L347.393 45.4014H357.869V48.0294H346.025ZM345.413 37.2654H355.025V33.7014L353.045 31.7214H347.393L345.413 33.7014V37.2654Z" fill="white"/>
<path d="M363.666 48.0294V45.4014H373.638L375.33 43.6734V41.4054L373.53 39.6054H366.078L362.766 36.3654V32.5494L366.078 29.2014H376.698V31.8654H367.59L365.934 33.4854V35.3214L367.662 37.0494H375.186L378.498 40.2894V44.7174L375.222 48.0294H363.666Z" fill="white"/>
<path d="M415.059 48.0294L411.279 44.2494V32.9814L415.059 29.2014H421.971L424.887 32.1894V21.4974H428.055V48.0294H424.887V45.0774L421.971 48.0294H415.059ZM421.179 45.5094L424.887 41.7654V35.5014L421.179 31.7214H416.427L414.447 33.7014V43.5294L416.427 45.5094H421.179Z" fill="white"/>
<path d="M437.278 48.0294L433.498 44.2494V32.9814L437.278 29.2014H445.666L449.446 32.9814V39.7854H436.666V43.4214L438.646 45.4014H449.122V48.0294H437.278ZM436.666 37.2654H446.278V33.7014L444.298 31.7214H438.646L436.666 33.7014V37.2654Z" fill="white"/>
<path d="M483.136 54.7614V29.2014H486.304V32.1894L489.184 29.2014H496.132L499.876 32.9814V44.2494L496.132 48.0294H489.184L486.304 45.0774V54.7614H483.136ZM490.012 45.5094H494.764L496.708 43.5294V33.7014L494.764 31.7214H490.012L486.304 35.5014V41.7654L490.012 45.5094Z" fill="white"/>
<path d="M508.527 48.0294L504.747 44.2494V32.9814L508.527 29.2014H517.455L521.235 32.9814V44.2494L517.455 48.0294H508.527ZM509.895 45.5094H516.087L518.067 43.5294L518.031 33.7014L516.087 31.7214H509.895L507.915 33.7014V43.5294L509.895 45.5094Z" fill="white"/>
<path d="M530.222 48.0294L526.91 44.7534V31.7214H524.93V29.2014H526.982L527.774 24.3774H530.078V29.2014H534.074V31.7214H530.078V43.6374L531.77 45.4014H534.902V48.0294H530.222Z" fill="white"/>
<path d="M540.805 48.0294L537.061 44.2494V39.9654L540.805 36.1854H550.381V33.8454L548.437 31.8654H539.509V29.2014H549.805L553.549 32.9814V48.0294H550.381V45.1134L547.465 48.0294H540.805ZM542.209 45.5094H546.673L550.381 41.8374V38.6694L542.209 38.7054L540.229 40.6494V43.5294L542.209 45.5094Z" fill="white"/>
<path d="M559.284 48.0294V45.4014H569.256L570.948 43.6734V41.4054L569.148 39.6054H561.696L558.384 36.3654V32.5494L561.696 29.2014H572.316V31.8654H563.208L561.552 33.4854V35.3214L563.28 37.0494H570.804L574.116 40.2894V44.7174L570.84 48.0294H559.284Z" fill="white"/>
<path d="M581.164 48.0294L577.42 44.2494V39.9654L581.164 36.1854H590.74V33.8454L588.796 31.8654H579.868V29.2014H590.164L593.908 32.9814V48.0294H590.74V45.1134L587.824 48.0294H581.164ZM582.568 45.5094H587.032L590.74 41.8374V38.6694L582.568 38.7054L580.588 40.6494V43.5294L582.568 45.5094Z" fill="white"/>
<path d="M631.209 48.0294L627.429 44.2494V32.9814L631.209 29.2014H639.813L643.125 32.4774V35.4654H639.957V33.5214L638.157 31.7214H632.577L630.597 33.7014V43.3854L632.577 45.4014H642.945V48.0294H631.209Z" fill="white"/>
<path d="M652.923 27.1494L656.343 21.7854H660.051L655.587 27.1494H652.923ZM649.143 48.0294L645.399 44.2494V39.9654L649.143 36.1854H658.719V33.8454L656.775 31.8654H647.847V29.2014H658.143L661.887 32.9814V48.0294H658.719V45.1134L655.803 48.0294H649.143ZM650.547 45.5094H655.011L658.719 41.8374V38.6694L650.547 38.7054L648.567 40.6494V43.5294L650.547 45.5094Z" fill="white"/>
<path d="M671.187 48.0294L667.443 44.2494V29.2014H670.611L670.575 43.4934L672.519 45.5094H677.199L680.907 41.8014V29.2014H684.075V48.0294H680.907V45.1134L678.027 48.0294H671.187Z" fill="white"/>
<path d="M689.947 48.0294V45.4014H699.919L701.611 43.6734V41.4054L699.811 39.6054H692.359L689.047 36.3654V32.5494L692.359 29.2014H702.979V31.8654H693.871L692.215 33.4854V35.3214L693.943 37.0494H701.467L704.779 40.2894V44.7174L701.503 48.0294H689.947Z" fill="white"/>
<path d="M713.303 48.0294L709.991 44.7534V31.7214H708.011V29.2014H710.063L710.855 24.3774H713.159V29.2014H717.155V31.7214H713.159V43.6374L714.851 45.4014H717.983V48.0294H713.303Z" fill="white"/>
<path d="M721.834 27.1494V22.9014H725.001V27.1494H721.834ZM721.834 48.0294V29.2014H725.001V48.0294H721.834Z" fill="white"/>
<path d="M734.217 48.0294L730.437 44.2494V32.9814L734.217 29.2014H742.821L746.133 32.4774V35.4654H742.965V33.5214L741.165 31.7214H735.585L733.605 33.7014V43.3854L735.585 45.4014H745.953V48.0294H734.217Z" fill="white"/>
<path d="M752.151 48.0294L748.407 44.2494V39.9654L752.151 36.1854H761.727V33.8454L759.783 31.8654H750.855V29.2014H761.151L764.895 32.9814V48.0294H761.727V45.1134L758.811 48.0294H752.151ZM753.555 45.5094H758.019L761.727 41.8374V38.6694L753.555 38.7054L751.575 40.6494V43.5294L753.555 45.5094Z" fill="white"/>
<path d="M804.428 54.7614L798.848 49.1454V24.4854L804.428 18.8694H807.308V21.4974H805.832L801.98 25.3134L802.016 48.2814L805.832 52.1334H807.308V54.7614H804.428Z" fill="white"/>
<path d="M811.649 48.0294V21.4974H814.925V35.6454L827.453 21.4974H831.341L821.405 32.8734L831.521 48.0294H827.597L819.137 35.4294L814.925 40.2534V48.0294H811.649Z" fill="white"/>
<path d="M837.843 48.0294L834.063 44.2494V25.2774L837.843 21.4974H850.371L854.151 25.2774V44.2494L850.371 48.0294H837.843ZM839.319 45.1134H848.895L850.875 43.1334V26.3934L848.895 24.4134H839.319L837.339 26.3934V43.1334L839.319 45.1134Z" fill="white"/>
<path d="M859.743 48.0294V21.4974H863.019V32.6214H876.159V21.4974H879.435V48.0294H876.159V35.5374H863.019V48.0294H859.743Z" fill="white"/>
<path d="M883.709 54.7614V52.1334H885.221L889.037 48.2814V25.3134L885.221 21.4974H883.709V18.8694H886.589L892.205 24.4854V49.1454L886.589 54.7614H883.709Z" fill="white"/>
<path d="M926.311 48.0294V45.4014H936.283L937.975 43.6734V41.4054L936.175 39.6054H928.723L925.411 36.3654V32.5494L928.723 29.2014H939.343V31.8654H930.235L928.579 33.4854V35.3214L930.307 37.0494H937.831L941.143 40.2894V44.7174L937.867 48.0294H926.311Z" fill="white"/>
<path d="M949.312 48.0294L945.532 44.2494V32.9814L949.312 29.2014H957.7L961.48 32.9814V39.7854H948.7V43.4214L950.68 45.4014H961.156V48.0294H949.312ZM948.7 37.2654H958.312V33.7014L956.332 31.7214H950.68L948.7 33.7014V37.2654Z" fill="white"/>
<path d="M111.3 88.0294L107.52 84.2494V72.9814L111.3 69.2014H119.688L123.468 72.9814V79.7854H110.688V83.4214L112.668 85.4014H123.144V88.0294H111.3ZM110.688 77.2654H120.3V73.7014L118.32 71.7214H112.668L110.688 73.7014V77.2654Z" fill="white"/>
<path d="M128.94 88.0294V69.2014H132.108V72.5854L135.384 69.2014H142.332L145.644 72.5494L148.884 69.2014H155.832L159.612 72.9814V88.0294H156.444V73.7734L154.536 71.7214H149.712L146.076 75.3934V88.0294H142.908L142.944 73.7734L141 71.7214H136.212L132.108 75.8974V88.0294H128.94Z" fill="white"/>
<path d="M165.327 94.7614V69.2014H168.495V72.1894L171.375 69.2014H178.323L182.067 72.9814V84.2494L178.323 88.0294H171.375L168.495 85.0774V94.7614H165.327ZM172.203 85.5094H176.955L178.899 83.5294V73.7014L176.955 71.7214H172.203L168.495 75.5014V81.7654L172.203 85.5094Z" fill="white"/>
<path d="M187.546 88.0294V61.4974H190.714V88.0294H187.546Z" fill="white"/>
<path d="M199.929 88.0294L196.149 84.2494V72.9814L199.929 69.2014H208.317L212.097 72.9814V79.7854H199.317V83.4214L201.297 85.4014H211.773V88.0294H199.929ZM199.317 77.2654H208.929V73.7014L206.949 71.7214H201.297L199.317 73.7014V77.2654Z" fill="white"/>
<path d="M218.742 88.0294L214.998 84.2494V79.9654L218.742 76.1854H228.318V73.8454L226.374 71.8654H217.446V69.2014H227.742L231.486 72.9814V88.0294H228.318V85.1134L225.402 88.0294H218.742ZM220.146 85.5094H224.61L228.318 81.8374V78.6694L220.146 78.7054L218.166 80.6494V83.5294L220.146 85.5094Z" fill="white"/>
<path d="M237.222 88.0294V69.2014H240.39V72.5854L243.666 69.2014H250.614L254.358 72.9814V88.0294H251.19V73.7734L249.282 71.7214H244.494L240.39 75.8974V88.0294H237.222Z" fill="white"/>
<path d="M293.577 88.0294L289.797 84.2494V72.9814L293.577 69.2014H301.965L305.745 72.9814V79.7854H292.965V83.4214L294.945 85.4014H305.421V88.0294H293.577ZM292.965 77.2654H302.577V73.7014L300.597 71.7214H294.945L292.965 73.7014V77.2654Z" fill="white"/>
<path d="M311.217 88.0294V69.2014H314.385V72.5854L317.661 69.2014H324.609L328.353 72.9814V88.0294H325.185V73.7734L323.277 71.7214H318.489L314.385 75.8974V88.0294H311.217Z" fill="white"/>
<path d="M364.224 88.0294V61.4974H367.392V88.0294H364.224Z" fill="white"/>
<path d="M375.311 88.0294L371.567 84.2494V79.9654L375.311 76.1854H384.887V73.8454L382.943 71.8654H374.015V69.2014H384.311L388.055 72.9814V88.0294H384.887V85.1134L381.971 88.0294H375.311ZM376.715 85.5094H381.179L384.887 81.8374V78.6694L376.715 78.7054L374.735 80.6494V83.5294L376.715 85.5094Z" fill="white"/>
<path d="M423.946 94.7614V69.2014H427.114V72.1894L429.994 69.2014H436.942L440.686 72.9814V84.2494L436.942 88.0294H429.994L427.114 85.0774V94.7614H423.946ZM430.822 85.5094H435.574L437.518 83.5294V73.7014L435.574 71.7214H430.822L427.114 75.5014V81.7654L430.822 85.5094Z" fill="white"/>
<path d="M446.164 88.0294V69.2014H449.332V72.5854L452.608 69.2014H457.432V72.3694H452.753L449.332 75.8974V88.0294H446.164Z" fill="white"/>
<path d="M463.751 88.0294L459.971 84.2494V72.9814L463.751 69.2014H472.679L476.459 72.9814V84.2494L472.679 88.0294H463.751ZM465.119 85.5094H471.311L473.291 83.5294L473.255 73.7014L471.311 71.7214H465.119L463.139 73.7014V83.5294L465.119 85.5094Z" fill="white"/>
<path d="M485.091 88.0294L481.311 84.2494V72.9814L485.091 69.2014H492.003L494.919 72.1894V61.4974H498.087V88.0294H494.919V85.0774L492.003 88.0294H485.091ZM491.211 85.5094L494.919 81.7654V75.5014L491.211 71.7214H486.459L484.479 73.7014V83.5294L486.459 85.5094H491.211Z" fill="white"/>
<path d="M507.525 88.0294L503.781 84.2494V69.2014H506.949L506.913 83.4934L508.857 85.5094H513.537L517.245 81.8014V69.2014H520.413V88.0294H517.245V85.1134L514.365 88.0294H507.525Z" fill="white"/>
<path d="M529.634 88.0294L525.854 84.2494V72.9814L529.634 69.2014H538.238L541.55 72.4774V75.4654H538.382V73.5214L536.582 71.7214H531.002L529.022 73.7014V83.3854L531.002 85.4014H541.37V88.0294H529.634Z" fill="white"/>
<path d="M549.743 88.0294L545.963 84.2494V72.9814L549.743 69.2014H558.347L561.659 72.4774V75.4654H558.491V73.5214L556.691 71.7214H551.111L549.131 73.7014V83.3854L551.111 85.4014H561.479V88.0294H549.743Z" fill="white"/>
<path d="M566.504 67.1494V62.9014H569.672V67.1494H566.504ZM566.504 88.0294V69.2014H569.672V88.0294H566.504Z" fill="white"/>
<path d="M582.02 67.1494L585.475 61.7854H589.184L584.719 67.1494H582.02ZM578.887 88.0294L575.107 84.2494V72.9814L578.887 69.2014H587.815L591.595 72.9814V84.2494L587.815 88.0294H578.887ZM580.255 85.5094H586.448L588.427 83.5294L588.391 73.7014L586.448 71.7214H580.255L578.275 73.7014V83.5294L580.255 85.5094Z" fill="white"/>
<path d="M597.055 88.0294V69.2014H600.223V72.5854L603.499 69.2014H610.447L614.191 72.9814V88.0294H611.023V73.7734L609.115 71.7214H604.327L600.223 75.8974V88.0294H597.055Z" fill="white"/>
<path d="M653.41 88.0294L649.63 84.2494V72.9814L653.41 69.2014H660.322L663.238 72.1894V61.4974H666.406V88.0294H663.238V85.0774L660.322 88.0294H653.41ZM659.53 85.5094L663.238 81.7654V75.5014L659.53 71.7214H654.778L652.798 73.7014V83.5294L654.778 85.5094H659.53Z" fill="white"/>
<path d="M675.629 88.0294L671.849 84.2494V72.9814L675.629 69.2014H684.017L687.797 72.9814V79.7854H675.017V83.4214L676.997 85.4014H687.473V88.0294H675.629ZM675.017 77.2654H684.629V73.7014L682.649 71.7214H676.997L675.017 73.7014V77.2654Z" fill="white"/>
<path d="M714.999 88.0294V71.7214H713.055V69.2014H714.999V64.8094L718.311 61.4974H722.991V64.1254H719.859L718.167 65.8894V69.2014H722.199V71.7214H718.167V88.0294H714.999Z" fill="white"/>
<path d="M729.137 88.0294L725.357 84.2494V72.9814L729.137 69.2014H737.525L741.305 72.9814V79.7854H728.525V83.4214L730.505 85.4014H740.981V88.0294H729.137ZM728.525 77.2654H738.137V73.7014L736.157 71.7214H730.505L728.525 73.7014V77.2654Z" fill="white"/>
<path d="M746.777 88.0294V69.2014H749.945V72.5854L753.221 69.2014H758.045V72.3694H753.365L749.945 75.8974V88.0294H746.777Z" fill="white"/>
<path d="M765.739 88.0294L762.427 84.7534V71.7214H760.447V69.2014H762.499L763.291 64.3774H765.595V69.2014H769.591V71.7214H765.595V83.6374L767.287 85.4014H770.419V88.0294H765.739Z" fill="white"/>
<path d="M774.269 67.1494V62.9014H777.437V67.1494H774.269ZM774.269 88.0294V69.2014H777.437V88.0294H774.269Z" fill="white"/>
<path d="M783.304 88.0294V61.4974H786.472V88.0294H783.304Z" fill="white"/>
<path d="M792.34 67.1494V62.9014H795.507V67.1494H792.34ZM792.34 88.0294V69.2014H795.507V88.0294H792.34Z" fill="white"/>
<path d="M800.331 88.0294V84.7894L812.067 71.8654H801.159V69.2014H815.631V72.4414L803.895 85.4014H815.919V88.0294H800.331Z" fill="white"/>
<path d="M822.235 88.0294L818.491 84.2494V79.9654L822.235 76.1854H831.811V73.8454L829.867 71.8654H820.939V69.2014H831.235L834.979 72.9814V88.0294H831.811V85.1134L828.895 88.0294H822.235ZM823.639 85.5094H828.103L831.811 81.8374V78.6694L823.639 78.7054L821.659 80.6494V83.5294L823.639 85.5094Z" fill="white"/>
<path d="M840.715 88.0294V69.2014H843.882V72.5854L847.158 69.2014H854.106L857.85 72.9814V88.0294H854.682V73.7734L852.775 71.7214H847.986L843.882 75.8974V88.0294H840.715Z" fill="white"/>
<path d="M867.094 88.0294L863.782 84.7534V71.7214H861.802V69.2014H863.854L864.646 64.3774H866.95V69.2014H870.946V71.7214H866.95V83.6374L868.642 85.4014H871.774V88.0294H867.094Z" fill="white"/>
<path d="M878.973 88.0294L875.193 84.2494V72.9814L878.973 69.2014H887.361L891.141 72.9814V79.7854H878.361V83.4214L880.341 85.4014H890.817V88.0294H878.973ZM878.361 77.2654H887.973V73.7014L885.993 71.7214H880.341L878.361 73.7014V77.2654Z" fill="white"/>
<path d="M896.613 88.0294V85.4014H906.585L908.277 83.6734V81.4054L906.477 79.6054H899.025L895.713 76.3654V72.5494L899.025 69.2014H909.645V71.8654H900.537L898.881 73.4854V75.3214L900.609 77.0494H908.133L911.445 80.2894V84.7174L908.169 88.0294H896.613Z" fill="white"/>
<path d="M949.801 94.7614L953.184 86.7334H951.853L944.113 69.2014H947.605L953.652 83.6014H954.48L960.061 69.2014H963.517L953.004 94.7614H949.801Z" fill="white"/>
<path d="M111.3 128.029L107.52 124.249V112.981L111.3 109.201H118.212L121.128 112.189V101.497H124.296V128.029H121.128V125.077L118.212 128.029H111.3ZM117.42 125.509L121.128 121.765V115.501L117.42 111.721H112.668L110.688 113.701V123.529L112.668 125.509H117.42Z" fill="white"/>
<path d="M133.519 128.029L129.739 124.249V112.981L133.519 109.201H141.907L145.687 112.981V119.785H132.907V123.421L134.887 125.401H145.363V128.029H133.519ZM132.907 117.265H142.519V113.701L140.539 111.721H134.887L132.907 113.701V117.265Z" fill="white"/>
<path d="M154.687 128.029L151.375 124.753V111.721H149.395V109.201H151.447L152.239 104.377H154.543V109.201H158.539V111.721H154.543V123.637L156.235 125.401H159.367V128.029H154.687Z" fill="white"/>
<path d="M166.566 128.029L162.786 124.249V112.981L166.566 109.201H174.954L178.734 112.981V119.785H165.954V123.421L167.934 125.401H178.41V128.029H166.566ZM165.954 117.265H175.566V113.701L173.586 111.721H167.934L165.954 113.701V117.265Z" fill="white"/>
<path d="M184.206 128.029V109.201H187.374V112.585L190.65 109.201H195.474V112.369H190.794L187.374 115.897V128.029H184.206Z" fill="white"/>
<path d="M199.488 134.761V132.133L209.64 132.097L211.62 130.153V125.077L208.704 128.029H201.792L198.012 124.249V112.981L201.792 109.201H208.704L211.62 112.189V109.201H214.788V130.981L211.008 134.761H199.488ZM207.912 125.509L211.62 121.765V115.501L207.912 111.721H203.16L201.18 113.701V123.529L203.16 125.509H207.912Z" fill="white"/>
<path d="M224.011 128.029L220.231 124.249V112.981L224.011 109.201H232.399L236.179 112.981V119.785H223.399V123.421L225.379 125.401H235.855V128.029H224.011ZM223.399 117.265H233.011V113.701L231.031 111.721H225.379L223.399 113.701V117.265Z" fill="white"/>
<path d="M241.651 128.029V109.201H244.819V112.585L248.095 109.201H255.043L258.787 112.981V128.029H255.619V113.773L253.711 111.721H248.923L244.819 115.897V128.029H241.651Z" fill="white"/>
<path d="M268.031 128.029L264.719 124.753V111.721H262.739V109.201H264.791L265.583 104.377H267.887V109.201H271.883V111.721H267.887V123.637L269.579 125.401H272.711V128.029H268.031Z" fill="white"/>
<path d="M279.909 128.029L276.129 124.249V112.981L279.909 109.201H288.297L292.077 112.981V119.785H279.297V123.421L281.277 125.401H291.753V128.029H279.909ZM279.297 117.265H288.909V113.701L286.929 111.721H281.277L279.297 113.701V117.265Z" fill="white"/>
<path d="M297.55 128.029V125.401H307.522L309.214 123.673V121.405L307.414 119.605H299.962L296.65 116.365V112.549L299.962 109.201H310.582V111.865H301.474L299.818 113.485V115.321L301.546 117.049H309.07L312.382 120.289V124.717L309.106 128.029H297.55Z" fill="white"/>
<path d="M316.694 128.029V123.781H319.862V128.029H316.694Z" fill="white"/>
<path d="M346.57 128.029V125.005H359.638L361.582 123.025V117.733L359.638 115.753H349.378L345.634 112.009V105.277L349.378 101.497H363.49V104.521H350.854L348.874 106.501L348.91 110.893L350.854 112.873H361.114L364.858 116.653V124.249L361.114 128.029H346.57Z" fill="white"/>
<path d="M370.05 107.149V102.901H373.218V107.149H370.05ZM370.05 128.029V109.201H373.218V128.029H370.05Z" fill="white"/>
<path d="M400.011 128.029V125.401H409.983L411.675 123.673V121.405L409.875 119.605H402.423L399.111 116.365V112.549L402.423 109.201H413.043V111.865H403.935L402.279 113.485V115.321L404.007 117.049H411.531L414.843 120.289V124.717L411.567 128.029H400.011Z" fill="white"/>
<path d="M423.011 128.029L419.231 124.249V112.981L423.011 109.201H431.399L435.179 112.981V119.785H422.399V123.421L424.379 125.401H434.855V128.029H423.011ZM422.399 117.265H432.011V113.701L430.031 111.721H424.379L422.399 113.701V117.265Z" fill="white"/>
<path d="M464.925 128.029L461.145 124.249V112.981L464.925 109.201H471.837L474.753 112.189V101.497H477.921V128.029H474.753V125.077L471.837 128.029H464.925ZM471.045 125.509L474.753 121.765V115.501L471.045 111.721H466.293L464.313 113.701V123.529L466.293 125.509H471.045Z" fill="white"/>
<path d="M483.796 107.149V102.901H486.964V107.149H483.796ZM483.796 128.029V109.201H486.964V128.029H483.796Z" fill="white"/>
<path d="M492.831 128.029V125.401H502.803L504.495 123.673V121.405L502.695 119.605H495.243L491.931 116.365V112.549L495.243 109.201H505.863V111.865H496.755L495.099 113.485V115.321L496.827 117.049H504.351L507.663 120.289V124.717L504.387 128.029H492.831Z" fill="white"/>
<path d="M516.223 128.029L512.479 124.249V109.201H515.647L515.611 123.493L517.555 125.509H522.235L525.943 121.801V109.201H529.111V128.029H525.943V125.113L523.063 128.029H516.223Z" fill="white"/>
<path d="M538.331 128.029L534.551 124.249V112.981L538.331 109.201H546.719L550.499 112.981V119.785H537.719V123.421L539.699 125.401H550.175V128.029H538.331ZM537.719 117.265H547.331V113.701L545.351 111.721H539.699L537.719 113.701V117.265Z" fill="white"/>
<path d="M555.972 128.029V101.497H559.14V128.029H555.972Z" fill="white"/>
<path d="M570.515 128.029L562.523 109.201H565.979L572.063 124.861H572.891L578.939 109.201H582.431L574.439 128.029H570.515Z" fill="white"/>
<path d="M588.359 128.029L584.579 124.249V112.981L588.359 109.201H596.747L600.527 112.981V119.785H587.747V123.421L589.727 125.401H600.203V128.029H588.359ZM587.747 117.265H597.359V113.701L595.379 111.721H589.727L587.747 113.701V117.265Z" fill="white"/>
<path d="M630.201 128.029L626.421 124.249V105.277L630.201 101.497H642.045L645.681 105.169L643.557 107.293L640.641 104.413H631.677L629.697 106.393V113.809L631.929 111.613H641.865L645.609 115.393V124.249L641.865 128.029H630.201ZM631.677 125.113H640.389L642.333 123.133V116.473L640.389 114.493H632.037L629.697 116.941V123.133L631.677 125.113Z" fill="white"/>
<path d="M649.023 131.989L650.463 123.781H653.631L650.859 131.989H649.023Z" fill="white"/>
<path d="M658.946 128.029L670.43 105.313V104.521H656.966V101.497H674.03V105.385L662.69 128.029H658.946Z" fill="white"/>
<path d="M676.659 128.029V123.781L690.843 109.849V106.393L688.899 104.377L681.555 104.413L678.639 107.365L676.515 105.205L680.151 101.497H690.375L694.119 105.277V111.145L680.331 124.789V125.005H694.515V128.029H676.659Z" fill="white"/>
<path d="M721.949 134.761V132.133L732.101 132.097L734.081 130.153V125.077L731.165 128.029H724.253L720.473 124.249V112.981L724.253 109.201H731.165L734.081 112.189V109.201H737.249V130.981L733.469 134.761H721.949ZM730.373 125.509L734.081 121.765V115.501L730.373 111.721H725.621L723.641 113.701V123.529L725.621 125.509H730.373Z" fill="white"/>
<path d="M767.398 128.029L763.618 124.249V112.981L767.398 109.201H774.31L777.226 112.189V101.497H780.394V128.029H777.226V125.077L774.31 128.029H767.398ZM773.518 125.509L777.226 121.765V115.501L773.518 111.721H768.766L766.786 113.701V123.529L768.766 125.509H773.518Z" fill="white"/>
<path d="M789.616 128.029L785.836 124.249V112.981L789.616 109.201H798.004L801.784 112.981V119.785H789.004V123.421L790.984 125.401H801.46V128.029H789.616ZM789.004 117.265H798.616V113.701L796.636 111.721H790.984L789.004 113.701V117.265Z" fill="white"/>
<path d="M828.362 128.029V101.497H831.638V115.645L844.166 101.497H848.054L838.118 112.873L848.234 128.029H844.31L835.85 115.429L831.638 120.253V128.029H828.362Z" fill="white"/>
<path d="M854.556 128.029L850.776 124.249V105.277L854.556 101.497H867.084L870.864 105.277V124.249L867.084 128.029H854.556ZM856.032 125.113H865.608L867.588 123.133V106.393L865.608 104.413H856.032L854.052 106.393V123.133L856.032 125.113Z" fill="white"/>
<path d="M876.456 128.029V101.497H879.732V112.621H892.872V101.497H896.148V128.029H892.872V115.537H879.732V128.029H876.456Z" fill="white"/>
<path d="M926.46 128.029L922.68 124.249V112.981L926.46 109.201H934.848L938.628 112.981V119.785H925.848V123.421L927.828 125.401H938.304V128.029H926.46ZM925.848 117.265H935.46V113.701L933.48 111.721H927.828L925.848 113.701V117.265Z" fill="white"/>
<path d="M944.1 128.029V109.201H947.268V112.585L950.544 109.201H957.492L961.236 112.981V128.029H958.068V113.773L956.16 111.721H951.372L947.268 115.897V128.029H944.1Z" fill="white"/>
<path d="M111.3 168.029L107.52 164.249V152.981L111.3 149.201H119.904L123.216 152.477V155.465H120.048V153.521L118.248 151.721H112.668L110.688 153.701V163.385L112.668 165.401H123.036V168.029H111.3Z" fill="white"/>
<path d="M129.234 168.029L125.49 164.249V159.965L129.234 156.185H138.81V153.845L136.866 151.865H127.938V149.201H138.234L141.978 152.981V168.029H138.81V165.113L135.894 168.029H129.234ZM130.638 165.509H135.102L138.81 161.837V158.669L130.638 158.705L128.658 160.649V163.529L130.638 165.509Z" fill="white"/>
<path d="M147.714 168.029V149.201H150.882V152.585L154.158 149.201H161.106L164.85 152.981V168.029H161.682V153.773L159.774 151.721H154.986L150.882 155.897V168.029H147.714Z" fill="white"/>
<path d="M174.093 168.029L170.781 164.753V151.721H168.801V149.201H170.853L171.645 144.377H173.949V149.201H177.945V151.721H173.949V163.637L175.641 165.401H178.773V168.029H174.093Z" fill="white"/>
<path d="M182.624 147.149V142.901H185.792V147.149H182.624ZM182.624 168.029V149.201H185.792V168.029H182.624Z" fill="white"/>
<path d="M195.007 168.029L191.227 164.249V152.981L195.007 149.201H201.919L204.835 152.189V141.497H208.003V168.029H204.835V165.077L201.919 168.029H195.007ZM201.127 165.509L204.835 161.765V155.501L201.127 151.721H196.375L194.395 153.701V163.529L196.375 165.509H201.127Z" fill="white"/>
<path d="M215.93 168.029L212.186 164.249V159.965L215.93 156.185H225.506V153.845L223.562 151.865H214.634V149.201H224.93L228.674 152.981V168.029H225.506V165.113L222.59 168.029H215.93ZM217.334 165.509H221.798L225.506 161.837V158.669L217.334 158.705L215.354 160.649V163.529L217.334 165.509Z" fill="white"/>
<path d="M237.757 168.029L233.977 164.249V152.981L237.757 149.201H244.669L247.585 152.189V141.497H250.753V168.029H247.585V165.077L244.669 168.029H237.757ZM243.877 165.509L247.585 161.765V155.501L243.877 151.721H239.125L237.145 153.701V163.529L239.125 165.509H243.877Z" fill="white"/>
<path d="M268.093 168.029V165.401H278.065L279.757 163.673V161.405L277.957 159.605H270.505L267.193 156.365V152.549L270.505 149.201H281.125V151.865H272.017L270.361 153.485V155.321L272.089 157.049H279.613L282.925 160.289V164.717L279.649 168.029H268.093Z" fill="white"/>
<path d="M291.485 168.029L287.741 164.249V149.201H290.909L290.873 163.493L292.817 165.509H297.497L301.205 161.801V149.201H304.373V168.029H301.205V165.113L298.325 168.029H291.485Z" fill="white"/>
<path d="M310.39 168.029V151.721H308.446V149.201H310.39V144.809L313.702 141.497H318.382V144.125H315.25L313.558 145.889V149.201H317.59V151.721H313.558V168.029H310.39Z" fill="white"/>
<path d="M321.179 147.149V142.901H324.347V147.149H321.179ZM321.179 168.029V149.201H324.347V168.029H321.179Z" fill="white"/>
<path d="M333.562 168.029L329.782 164.249V152.981L333.562 149.201H342.166L345.478 152.477V155.465H342.31V153.521L340.51 151.721H334.93L332.95 153.701V163.385L334.93 165.401H345.298V168.029H333.562Z" fill="white"/>
<path d="M350.324 147.149V142.901H353.492V147.149H350.324ZM350.324 168.029V149.201H353.492V168.029H350.324Z" fill="white"/>
<path d="M362.707 168.029L358.927 164.249V152.981L362.707 149.201H371.095L374.875 152.981V159.785H362.095V163.421L364.075 165.401H374.551V168.029H362.707ZM362.095 157.265H371.707V153.701L369.727 151.721H364.075L362.095 153.701V157.265Z" fill="white"/>
<path d="M380.347 168.029V149.201H383.515V152.585L386.791 149.201H393.739L397.483 152.981V168.029H394.315V153.773L392.407 151.721H387.619L383.515 155.897V168.029H380.347Z" fill="white"/>
<path d="M406.727 168.029L403.415 164.753V151.721H401.435V149.201H403.487L404.279 144.377H406.583V149.201H410.579V151.721H406.583V163.637L408.275 165.401H411.407V168.029H406.727Z" fill="white"/>
<path d="M418.605 168.029L414.825 164.249V152.981L418.605 149.201H426.993L430.773 152.981V159.785H417.993V163.421L419.973 165.401H430.449V168.029H418.605ZM417.993 157.265H427.605V153.701L425.625 151.721H419.973L417.993 153.701V157.265Z" fill="white"/>
<path d="M451.059 168.029L447.279 164.249V152.981L451.059 149.201H457.971L460.887 152.189V141.497H464.055V168.029H460.887V165.077L457.971 168.029H451.059ZM457.179 165.509L460.887 161.765V155.501L457.179 151.721H452.427L450.447 153.701V163.529L452.427 165.509H457.179Z" fill="white"/>
<path d="M473.278 168.029L469.498 164.249V152.981L473.278 149.201H481.666L485.446 152.981V159.785H472.666V163.421L474.646 165.401H485.122V168.029H473.278ZM472.666 157.265H482.278V153.701L480.298 151.721H474.646L472.666 153.701V157.265Z" fill="white"/>
<path d="M514.556 168.029L510.812 164.249V159.965L514.556 156.185H524.132V153.845L522.188 151.865H513.26V149.201H523.556L527.3 152.981V168.029H524.132V165.113L521.216 168.029H514.556ZM515.96 165.509H520.424L524.132 161.837V158.669L515.96 158.705L513.98 160.649V163.529L515.96 165.509Z" fill="white"/>
<path d="M534.079 174.761V172.133L544.231 172.097L546.211 170.153V165.077L543.295 168.029H536.383L532.603 164.249V152.981L536.383 149.201H543.295L546.211 152.189V149.201H549.379V170.981L545.599 174.761H534.079ZM542.503 165.509L546.211 161.765V155.501L542.503 151.721H537.751L535.771 153.701V163.529L537.751 165.509H542.503Z" fill="white"/>
<path d="M558.818 168.029L555.074 164.249V149.201H558.242L558.206 163.493L560.15 165.509H564.83L568.538 161.801V149.201H571.706V168.029H568.538V165.113L565.658 168.029H558.818Z" fill="white"/>
<path d="M579.63 168.029L575.886 164.249V159.965L579.63 156.185H589.206V153.845L587.262 151.865H578.334V149.201H588.63L592.374 152.981V168.029H589.206V165.113L586.29 168.029H579.63ZM581.034 165.509H585.498L589.206 161.837V158.669L581.034 158.705L579.054 160.649V163.529L581.034 165.509Z" fill="white"/>
<path d="M609.575 174.761V149.201H612.743V152.189L615.623 149.201H622.571L626.315 152.981V164.249L622.571 168.029H615.623L612.743 165.077V174.761H609.575ZM616.451 165.509H621.203L623.147 163.529V153.701L621.203 151.721H616.451L612.743 155.501V161.765L616.451 165.509Z" fill="white"/>
<path d="M633.846 168.029L630.102 164.249V159.965L633.846 156.185H643.422V153.845L641.478 151.865H632.55V149.201H642.846L646.59 152.981V168.029H643.422V165.113L640.506 168.029H633.846ZM635.25 165.509H639.714L643.422 161.837V158.669L635.25 158.705L633.27 160.649V163.529L635.25 165.509Z" fill="white"/>
<path d="M652.325 168.029V149.201H655.493V152.585L658.769 149.201H663.593V152.369H658.913L655.493 155.897V168.029H652.325Z" fill="white"/>
<path d="M668.193 168.029L664.449 164.249V159.965L668.193 156.185H677.769V153.845L675.825 151.865H666.897V149.201H677.193L680.937 152.981V168.029H677.769V165.113L674.853 168.029H668.193ZM669.597 165.509H674.061L677.769 161.837V158.669L669.597 158.705L667.617 160.649V163.529L669.597 165.509Z" fill="white"/>
<path d="M698.282 168.029V151.721H696.338V149.201H698.282V144.809L701.594 141.497H706.274V144.125H703.142L701.45 145.889V149.201H705.482V151.721H701.45V168.029H698.282Z" fill="white"/>
<path d="M712.42 168.029L708.64 164.249V152.981L712.42 149.201H721.348L725.128 152.981V164.249L721.348 168.029H712.42ZM713.788 165.509H719.98L721.96 163.529L721.924 153.701L719.98 151.721H713.788L711.808 153.701V163.529L713.788 165.509Z" fill="white"/>
<path d="M730.587 168.029V149.201H733.755V152.585L737.031 149.201H741.855V152.369H737.175L733.755 155.897V168.029H730.587Z" fill="white"/>
<path d="M745.212 168.029V149.201H748.38V152.585L751.656 149.201H758.604L761.916 152.549L765.156 149.201H772.104L775.884 152.981V168.029H772.716V153.773L770.808 151.721H765.984L762.348 155.393V168.029H759.18L759.216 153.773L757.272 151.721H752.484L748.38 155.897V168.029H745.212Z" fill="white"/>
<path d="M783.651 168.029L779.907 164.249V159.965L783.651 156.185H793.227V153.845L791.283 151.865H782.355V149.201H792.651L796.395 152.981V168.029H793.227V165.113L790.311 168.029H783.651ZM785.055 165.509H789.519L793.227 161.837V158.669L785.055 158.705L783.075 160.649V163.529L785.055 165.509Z" fill="white"/>
<path d="M802.13 168.029V149.201H805.298V152.585L808.574 149.201H813.398V152.369H808.718L805.298 155.897V168.029H802.13Z" fill="white"/>
<path d="M827.717 168.029V163.781L841.901 149.849V146.393L839.957 144.377L832.613 144.413L829.697 147.365L827.573 145.205L831.209 141.497H841.433L845.177 145.277V151.145L831.389 164.789V165.005H845.573V168.029H827.717Z" fill="white"/>
<path d="M854.313 168.029L850.533 164.249V145.277L854.313 141.497H865.833L869.613 145.277V164.249L865.833 168.029H854.313ZM855.789 165.113H864.357L866.337 163.133V146.393L864.357 144.413H855.789L853.809 146.393L853.845 163.133L855.789 165.113Z" fill="white"/>
<path d="M878.29 168.029L874.51 164.249V145.277L878.29 141.497H889.81L893.59 145.277V164.249L889.81 168.029H878.29ZM879.766 165.113H888.334L890.314 163.133V146.393L888.334 144.413H879.766L877.786 146.393L877.822 163.133L879.766 165.113Z" fill="white"/>
<path d="M910.456 168.029V149.201H913.624V152.585L916.9 149.201H923.848L927.16 152.549L930.4 149.201H937.348L941.128 152.981V168.029H937.96V153.773L936.052 151.721H931.228L927.592 155.393V168.029H924.424L924.46 153.773L922.516 151.721H917.728L913.624 155.897V168.029H910.456Z" fill="white"/>
<path d="M947.023 168.029V141.497H950.299V165.005H963.655V168.029H947.023Z" fill="white"/>
<path d="M111.3 208.029L107.52 204.249V192.981L111.3 189.201H118.212L121.128 192.189V181.497H124.296V208.029H121.128V205.077L118.212 208.029H111.3ZM117.42 205.509L121.128 201.765V195.501L117.42 191.721H112.668L110.688 193.701V203.529L112.668 205.509H117.42Z" fill="white"/>
<path d="M133.519 208.029L129.739 204.249V192.981L133.519 189.201H141.907L145.687 192.981V199.785H132.907V203.421L134.887 205.401H145.363V208.029H133.519ZM132.907 197.265H142.519V193.701L140.539 191.721H134.887L132.907 193.701V197.265Z" fill="white"/>
<path d="M160.591 208.029V205.401H170.563L172.255 203.673V201.405L170.455 199.605H163.003L159.691 196.365V192.549L163.003 189.201H173.623V191.865H164.515L162.859 193.485V195.321L164.587 197.049H172.111L175.423 200.289V204.717L172.147 208.029H160.591Z" fill="white"/>
<path d="M183.592 208.029L179.812 204.249V192.981L183.592 189.201H192.52L196.3 192.981V204.249L192.52 208.029H183.592ZM184.96 205.509H191.152L193.132 203.529L193.096 193.701L191.152 191.721H184.96L182.98 193.701V203.529L184.96 205.509Z" fill="white"/>
<path d="M201.759 208.029V181.497H204.927V208.029H201.759Z" fill="white"/>
<path d="M214.358 208.029L210.614 204.249V189.201H213.782L213.746 203.493L215.69 205.509H220.37L224.078 201.801V189.201H227.246V208.029H224.078V205.113L221.198 208.029H214.358Z" fill="white"/>
<path d="M236.467 208.029L232.687 204.249V192.981L236.467 189.201H245.071L248.383 192.477V195.465H245.215V193.521L243.415 191.721H237.835L235.855 193.701V203.385L237.835 205.401H248.203V208.029H236.467Z" fill="white"/>
<path d="M253.228 187.149V182.901H256.396V187.149H253.228ZM253.228 208.029V189.201H256.396V208.029H253.228Z" fill="white"/>
<path d="M268.743 187.149L272.199 181.785H275.907L271.443 187.149H268.743ZM265.611 208.029L261.831 204.249V192.981L265.611 189.201H274.539L278.319 192.981V204.249L274.539 208.029H265.611ZM266.979 205.509H273.171L275.151 203.529L275.115 193.701L273.171 191.721H266.979L264.999 193.701V203.529L266.979 205.509Z" fill="white"/>
<path d="M283.779 208.029V189.201H286.947V192.585L290.223 189.201H297.171L300.915 192.981V208.029H297.747V193.773L295.839 191.721H291.051L286.947 195.897V208.029H283.779Z" fill="white"/>
<path d="M304.506 211.989L305.946 203.781H309.114L306.342 211.989H304.506Z" fill="white"/>
<path d="M327.461 208.029L323.681 204.249V192.981L327.461 189.201H334.373L337.289 192.189V181.497H340.457V208.029H337.289V205.077L334.373 208.029H327.461ZM333.581 205.509L337.289 201.765V195.501L333.581 191.721H328.829L326.849 193.701V203.529L328.829 205.509H333.581Z" fill="white"/>
<path d="M349.68 208.029L345.9 204.249V192.981L349.68 189.201H358.068L361.848 192.981V199.785H349.068V203.421L351.048 205.401H361.524V208.029H349.68ZM349.068 197.265H358.68V193.701L356.7 191.721H351.048L349.068 193.701V197.265Z" fill="white"/>
<path d="M370.849 208.029L367.536 204.753V191.721H365.556V189.201H367.608L368.401 184.377H370.704V189.201H374.701V191.721H370.704V203.637L372.397 205.401H375.529V208.029H370.849Z" fill="white"/>
<path d="M382.727 208.029L378.947 204.249V192.981L382.727 189.201H391.115L394.895 192.981V199.785H382.115V203.421L384.095 205.401H394.571V208.029H382.727ZM382.115 197.265H391.727V193.701L389.747 191.721H384.095L382.115 193.701V197.265Z" fill="white"/>
<path d="M400.367 208.029V189.201H403.535V192.585L406.811 189.201H411.635V192.369H406.955L403.535 195.897V208.029H400.367Z" fill="white"/>
<path d="M414.992 208.029V189.201H418.16V192.585L421.436 189.201H428.384L431.696 192.549L434.936 189.201H441.884L445.664 192.981V208.029H442.496V193.773L440.588 191.721H435.764L432.128 195.393V208.029H428.96L428.996 193.773L427.052 191.721H422.264L418.16 195.897V208.029H414.992Z" fill="white"/>
<path d="M451.379 187.149V182.901H454.547V187.149H451.379ZM451.379 208.029V189.201H454.547V208.029H451.379Z" fill="white"/>
<path d="M460.414 208.029V189.201H463.582V192.585L466.858 189.201H473.806L477.55 192.981V208.029H474.382V193.773L472.474 191.721H467.686L463.582 195.897V208.029H460.414Z" fill="white"/>
<path d="M486.614 208.029L482.834 204.249V192.981L486.614 189.201H495.002L498.782 192.981V199.785H486.002V203.421L487.982 205.401H498.458V208.029H486.614ZM486.002 197.265H495.614V193.701L493.634 191.721H487.982L486.002 193.701V197.265Z" fill="white"/>
<path d="M513.686 208.029V181.497H516.854V208.029H513.686Z" fill="white"/>
<path d="M524.774 208.029L521.03 204.249V199.965L524.774 196.185H534.35V193.845L532.406 191.865H523.478V189.201H533.774L537.518 192.981V208.029H534.35V205.113L531.434 208.029H524.774ZM526.178 205.509H530.642L534.35 201.837V198.669L526.178 198.705L524.198 200.649V203.529L526.178 205.509Z" fill="white"/>
<path d="M552.685 208.029V189.201H555.853V192.585L559.129 189.201H566.077L569.389 192.549L572.629 189.201H579.577L583.357 192.981V208.029H580.189V193.773L578.281 191.721H573.457L569.821 195.393V208.029H566.653L566.689 193.773L564.745 191.721H559.957L555.853 195.897V208.029H552.685Z" fill="white"/>
<path d="M592.42 208.029L588.64 204.249V192.981L592.42 189.201H601.348L605.128 192.981V204.249L601.348 208.029H592.42ZM593.788 205.509H599.98L601.96 203.529L601.924 193.701L599.98 191.721H593.788L591.808 193.701V203.529L593.788 205.509Z" fill="white"/>
<path d="M610.587 208.029V181.497H613.755V208.029H610.587Z" fill="white"/>
<path d="M621.675 208.029L617.931 204.249V199.965L621.675 196.185H631.251V193.845L629.307 191.865H620.379V189.201H630.675L634.419 192.981V208.029H631.251V205.113L628.335 208.029H621.675ZM623.079 205.509H627.543L631.251 201.837V198.669L623.079 198.705L621.099 200.649V203.529L623.079 205.509Z" fill="white"/>
<path d="M640.154 208.029V189.201H643.322V192.585L646.598 189.201H651.422V192.369H646.742L643.322 195.897V208.029H640.154Z" fill="white"/>
<path d="M654.779 187.149V182.901H657.947V187.149H654.779ZM654.779 208.029V189.201H657.947V208.029H654.779Z" fill="white"/>
<path d="M667.162 208.029L663.382 204.249V192.981L667.162 189.201H674.074L676.99 192.189V181.497H680.158V208.029H676.99V205.077L674.074 208.029H667.162ZM673.282 205.509L676.99 201.765V195.501L673.282 191.721H668.53L666.55 193.701V203.529L668.53 205.509H673.282Z" fill="white"/>
<path d="M688.085 208.029L684.341 204.249V199.965L688.085 196.185H697.661V193.845L695.717 191.865H686.789V189.201H697.085L700.829 192.981V208.029H697.661V205.113L694.745 208.029H688.085ZM689.489 205.509H693.953L697.661 201.837V198.669L689.489 198.705L687.509 200.649V203.529L689.489 205.509Z" fill="white"/>
<path d="M709.912 208.029L706.132 204.249V192.981L709.912 189.201H716.824L719.74 192.189V181.497H722.908V208.029H719.74V205.077L716.824 208.029H709.912ZM716.032 205.509L719.74 201.765V195.501L716.032 191.721H711.28L709.3 193.701V203.529L711.28 205.509H716.032Z" fill="white"/>
<path d="M741.419 214.761L744.803 206.733H743.471L735.731 189.201H739.223L745.271 203.601H746.099L751.679 189.201H755.135L744.623 214.761H741.419Z" fill="white"/>
<path d="M768.003 208.029V189.201H771.171V192.585L774.447 189.201H781.395L785.139 192.981V208.029H781.971V193.773L780.063 191.721H775.275L771.171 195.897V208.029H768.003Z" fill="white"/>
<path d="M794.202 208.029L790.422 204.249V192.981L794.202 189.201H803.13L806.91 192.981V204.249L803.13 208.029H794.202ZM795.57 205.509H801.762L803.742 203.529L803.706 193.701L801.762 191.721H795.57L793.59 193.701V203.529L795.57 205.509Z" fill="white"/>
<path d="M812.37 208.029V189.201H815.538V192.585L818.814 189.201H823.638V192.369H818.958L815.538 195.897V208.029H812.37Z" fill="white"/>
<path d="M826.995 208.029V189.201H830.163V192.585L833.439 189.201H840.387L843.699 192.549L846.939 189.201H853.887L857.667 192.981V208.029H854.499V193.773L852.591 191.721H847.767L844.131 195.393V208.029H840.963L840.999 193.773L839.055 191.721H834.267L830.163 195.897V208.029H826.995Z" fill="white"/>
<path d="M865.434 208.029L861.69 204.249V199.965L865.434 196.185H875.01V193.845L873.066 191.865H864.138V189.201H874.434L878.178 192.981V208.029H875.01V205.113L872.094 208.029H865.434ZM866.838 205.509H871.302L875.01 201.837V198.669L866.838 198.705L864.858 200.649V203.529L866.838 205.509Z" fill="white"/>
<path d="M883.913 208.029V181.497H887.081V208.029H883.913Z" fill="white"/>
<path d="M892.948 187.149V182.901H896.116V187.149H892.948ZM892.948 208.029V189.201H896.116V208.029H892.948Z" fill="white"/>
<path d="M905.331 208.029L901.551 204.249V192.981L905.331 189.201H912.243L915.159 192.189V181.497H918.327V208.029H915.159V205.077L912.243 208.029H905.331ZM911.451 205.509L915.159 201.765V195.501L911.451 191.721H906.699L904.719 193.701V203.529L906.699 205.509H911.451Z" fill="white"/>
<path d="M926.254 208.029L922.51 204.249V199.965L926.254 196.185H935.83V193.845L933.886 191.865H924.958V189.201H935.254L938.998 192.981V208.029H935.83V205.113L932.914 208.029H926.254ZM927.658 205.509H932.122L935.83 201.837V198.669L927.658 198.705L925.678 200.649V203.529L927.658 205.509Z" fill="white"/>
<path d="M948.081 208.029L944.301 204.249V192.981L948.081 189.201H954.993L957.909 192.189V181.497H961.077V208.029H957.909V205.077L954.993 208.029H948.081ZM954.201 205.509L957.909 201.765V195.501L954.201 191.721H949.449L947.469 193.701V203.529L949.449 205.509H954.201Z" fill="white"/>
<path d="M111.3 248.029L107.52 244.249V232.981L111.3 229.201H118.212L121.128 232.189V221.497H124.296V248.029H121.128V245.077L118.212 248.029H111.3ZM117.42 245.509L121.128 241.765V235.501L117.42 231.721H112.668L110.688 233.701V243.529L112.668 245.509H117.42Z" fill="white"/>
<path d="M133.519 248.029L129.739 244.249V232.981L133.519 229.201H141.907L145.687 232.981V239.785H132.907V243.421L134.887 245.401H145.363V248.029H133.519ZM132.907 237.265H142.519V233.701L140.539 231.721H134.887L132.907 233.701V237.265Z" fill="white"/>
<path d="M162.487 248.029L158.707 244.249V232.981L162.487 229.201H169.399L172.315 232.189V221.497H175.483V248.029H172.315V245.077L169.399 248.029H162.487ZM168.607 245.509L172.315 241.765V235.501L168.607 231.721H163.855L161.875 233.701V243.529L163.855 245.509H168.607Z" fill="white"/>
<path d="M181.358 227.149V222.901H184.526V227.149H181.358ZM181.358 248.029V229.201H184.526V248.029H181.358Z" fill="white"/>
<path d="M193.741 248.029L189.961 244.249V232.981L193.741 229.201H202.345L205.657 232.477V235.465H202.489V233.521L200.689 231.721H195.109L193.129 233.701V243.385L195.109 245.401H205.477V248.029H193.741Z" fill="white"/>
<path d="M210.503 248.029V221.497H213.671V232.189L216.551 229.201H223.499L227.243 232.981V248.029H224.075V233.773L222.167 231.721H217.379L213.671 235.501V248.029H210.503Z" fill="white"/>
<path d="M235.02 248.029L231.276 244.249V239.965L235.02 236.185H244.596V233.845L242.652 231.865H233.724V229.201H244.02L247.764 232.981V248.029H244.596V245.113L241.68 248.029H235.02ZM236.424 245.509H240.888L244.596 241.837V238.669L236.424 238.705L234.444 240.649V243.529L236.424 245.509Z" fill="white"/>
<path d="M275.085 248.029V245.401H285.057L286.749 243.673V241.405L284.949 239.605H277.497L274.185 236.365V232.549L277.497 229.201H288.117V231.865H279.009L277.353 233.485V235.321L279.081 237.049H286.605L289.917 240.289V244.717L286.641 248.029H275.085Z" fill="white"/>
<path d="M298.085 248.029L294.305 244.249V232.981L298.085 229.201H307.013L310.793 232.981V244.249L307.013 248.029H298.085ZM299.453 245.509H305.645L307.625 243.529L307.589 233.701L305.645 231.721H299.453L297.473 233.701V243.529L299.453 245.509Z" fill="white"/>
<path d="M316.253 248.029V221.497H319.421V248.029H316.253Z" fill="white"/>
<path d="M328.852 248.029L325.108 244.249V229.201H328.276L328.24 243.493L330.184 245.509H334.864L338.572 241.801V229.201H341.74V248.029H338.572V245.113L335.692 248.029H328.852Z" fill="white"/>
<path d="M350.96 248.029L347.18 244.249V232.981L350.96 229.201H359.564L362.876 232.477V235.465H359.708V233.521L357.908 231.721H352.328L350.348 233.701V243.385L352.328 245.401H362.696V248.029H350.96Z" fill="white"/>
<path d="M367.722 227.149V222.901H370.89V227.149H367.722ZM367.722 248.029V229.201H370.89V248.029H367.722Z" fill="white"/>
<path d="M383.237 227.149L386.693 221.785H390.401L385.937 227.149H383.237ZM380.105 248.029L376.325 244.249V232.981L380.105 229.201H389.033L392.813 232.981V244.249L389.033 248.029H380.105ZM381.473 245.509H387.665L389.645 243.529L389.609 233.701L387.665 231.721H381.473L379.493 233.701V243.529L381.473 245.509Z" fill="white"/>
<path d="M398.272 248.029V229.201H401.44V232.585L404.716 229.201H411.664L415.408 232.981V248.029H412.24V233.773L410.332 231.721H405.544L401.44 235.897V248.029H398.272Z" fill="white"/>
<path d="M419 251.989L420.44 243.781H423.608L420.836 251.989H419Z" fill="white"/>
<path d="M437.155 248.029V229.201H440.323V232.585L443.599 229.201H448.423V232.369H443.743L440.323 235.897V248.029H437.155Z" fill="white"/>
<path d="M454.741 248.029L450.961 244.249V232.981L454.741 229.201H463.129L466.909 232.981V239.785H454.129V243.421L456.109 245.401H466.585V248.029H454.741ZM454.129 237.265H463.741V233.701L461.761 231.721H456.109L454.129 233.701V237.265Z" fill="white"/>
<path d="M472.382 248.029V245.401H482.354L484.046 243.673V241.405L482.246 239.605H474.794L471.482 236.365V232.549L474.794 229.201H485.414V231.865H476.306L474.65 233.485V235.321L476.378 237.049H483.902L487.214 240.289V244.717L483.938 248.029H472.382Z" fill="white"/>
<path d="M492.21 254.761V229.201H495.378V232.189L498.258 229.201H505.206L508.95 232.981V244.249L505.206 248.029H498.258L495.378 245.077V254.761H492.21ZM499.086 245.509H503.838L505.782 243.529V233.701L503.838 231.721H499.086L495.378 235.501V241.765L499.086 245.509Z" fill="white"/>
<path d="M517.601 248.029L513.821 244.249V232.981L517.601 229.201H525.989L529.769 232.981V239.785H516.989V243.421L518.969 245.401H529.445V248.029H517.601ZM516.989 237.265H526.601V233.701L524.621 231.721H518.969L516.989 233.701V237.265Z" fill="white"/>
<path d="M538.589 248.029L534.809 244.249V232.981L538.589 229.201H547.193L550.505 232.477V235.465H547.337V233.521L545.537 231.721H539.957L537.977 233.701V243.385L539.957 245.401H550.325V248.029H538.589Z" fill="white"/>
<path d="M558.878 248.029L555.566 244.753V231.721H553.586V229.201H555.638L556.43 224.377H558.734V229.201H562.73V231.721H558.734V243.637L560.426 245.401H563.558V248.029H558.878Z" fill="white"/>
<path d="M567.409 227.149V222.901H570.577V227.149H567.409ZM567.409 248.029V229.201H570.577V248.029H567.409Z" fill="white"/>
<path d="M581.952 248.029L573.96 229.201H577.416L583.5 244.861H584.328L590.376 229.201H593.868L585.876 248.029H581.952Z" fill="white"/>
<path d="M598.676 248.029L594.932 244.249V239.965L598.676 236.185H608.252V233.845L606.308 231.865H597.38V229.201H607.676L611.42 232.981V248.029H608.252V245.113L605.336 248.029H598.676ZM600.08 245.509H604.544L608.252 241.837V238.669L600.08 238.705L598.1 240.649V243.529L600.08 245.509Z" fill="white"/>
<path d="M617.155 248.029V229.201H620.323V232.585L623.599 229.201H630.547L633.859 232.549L637.099 229.201H644.047L647.827 232.981V248.029H644.659V233.773L642.751 231.721H637.927L634.291 235.393V248.029H631.123L631.159 233.773L629.215 231.721H624.427L620.323 235.897V248.029H617.155Z" fill="white"/>
<path d="M656.89 248.029L653.11 244.249V232.981L656.89 229.201H665.278L669.058 232.981V239.785H656.278V243.421L658.258 245.401H668.734V248.029H656.89ZM656.278 237.265H665.89V233.701L663.91 231.721H658.258L656.278 233.701V237.265Z" fill="white"/>
<path d="M674.53 248.029V229.201H677.698V232.585L680.974 229.201H687.922L691.666 232.981V248.029H688.498V233.773L686.59 231.721H681.802L677.698 235.897V248.029H674.53Z" fill="white"/>
<path d="M700.91 248.029L697.598 244.753V231.721H695.618V229.201H697.67L698.462 224.377H700.766V229.201H704.762V231.721H700.766V243.637L702.458 245.401H705.59V248.029H700.91Z" fill="white"/>
<path d="M712.788 248.029L709.008 244.249V232.981L712.788 229.201H721.176L724.956 232.981V239.785H712.176V243.421L714.156 245.401H724.632V248.029H712.788ZM712.176 237.265H721.788V233.701L719.808 231.721H714.156L712.176 233.701V237.265Z" fill="white"/>
<path d="M729.745 248.029V243.781H732.913V248.029H729.745Z" fill="white"/>
<path d="M108.132 288.029V261.497H122.532L128.04 267.077V282.449L122.532 288.029H108.132ZM111.408 285.113H121.056L124.764 281.333V268.193L121.056 264.413H111.408V285.113Z" fill="white"/>
<path d="M135.387 288.029L131.643 284.249V279.965L135.387 276.185H144.963V273.845L143.019 271.865H134.091V269.201H144.387L148.131 272.981V288.029H144.963V285.113L142.047 288.029H135.387ZM136.791 285.509H141.255L144.963 281.837V278.669L136.791 278.705L134.811 280.649V283.529L136.791 285.509Z" fill="white"/>
<path d="M157.394 288.029L154.082 284.753V271.721H152.102V269.201H154.154L154.946 264.377H157.25V269.201H161.246V271.721H157.25V283.637L158.942 285.401H162.074V288.029H157.394Z" fill="white"/>
<path d="M169.273 288.029L165.493 284.249V272.981L169.273 269.201H178.201L181.981 272.981V284.249L178.201 288.029H169.273ZM170.641 285.509H176.833L178.813 283.529L178.777 273.701L176.833 271.721H170.641L168.661 273.701V283.529L170.641 285.509Z" fill="white"/>
<path d="M186.756 273.449V269.201H189.924V273.449H186.756ZM186.756 288.029V283.781H189.924V288.029H186.756Z" fill="white"/>
<path d="M195.671 288.029V261.497H200.135L208.487 282.701L216.875 261.497H221.375V288.029H218.063V266.501L209.423 288.029H207.587L198.947 266.537V288.029H195.671Z" fill="white"/>
<path d="M232.993 294.761L227.413 289.145V264.485L232.993 258.869H235.873V261.497H234.397L230.545 265.313L230.581 288.281L234.397 292.133H235.873V294.761H232.993Z" fill="white"/>
<path d="M241.078 294.761V292.133L251.23 292.097L253.21 290.153V285.077L250.294 288.029H243.382L239.602 284.249V272.981L243.382 269.201H250.294L253.21 272.189V269.201H256.378V290.981L252.598 294.761H241.078ZM249.502 285.509L253.21 281.765V275.501L249.502 271.721H244.75L242.77 273.701V283.529L244.75 285.509H249.502Z" fill="white"/>
<path d="M259.769 291.953L270.893 261.497H274.205L263.081 291.953H259.769Z" fill="white"/>
<path d="M285.597 288.029V269.201H288.765V272.585L292.041 269.201H298.989L302.301 272.549L305.541 269.201H312.489L316.269 272.981V288.029H313.101V273.773L311.193 271.721H306.369L302.733 275.393V288.029H299.565L299.601 273.773L297.657 271.721H292.869L288.765 275.897V288.029H285.597Z" fill="white"/>
<path d="M325.331 288.029L321.551 284.249V272.981L325.331 269.201H334.259L338.039 272.981V284.249L334.259 288.029H325.331ZM326.699 285.509H332.891L334.871 283.529L334.835 273.701L332.891 271.721H326.699L324.719 273.701V283.529L326.699 285.509Z" fill="white"/>
<path d="M343.499 288.029V261.497H346.667V288.029H343.499Z" fill="white"/>
<path d="M350.77 294.761V292.133H352.282L356.098 288.281V265.313L352.282 261.497H350.77V258.869H353.65L359.266 264.485V289.145L353.65 294.761H350.77Z" fill="white"/>
<path d="M372.452 273.449V269.201H375.62V273.449H372.452ZM372.452 288.029V283.781H375.62V288.029H372.452Z" fill="white"/>
<path d="M389.347 288.029V261.497H392.623V275.645L405.151 261.497H409.039L399.103 272.873L409.219 288.029H405.295L396.835 275.429L392.623 280.253V288.029H389.347Z" fill="white"/>
<path d="M415.54 288.029L411.76 284.249V265.277L415.54 261.497H428.069L431.849 265.277V284.249L428.069 288.029H415.54ZM417.017 285.113H426.592L428.573 283.133V266.393L426.592 264.413H417.017L415.036 266.393V283.133L417.017 285.113Z" fill="white"/>
<path d="M437.441 288.029V261.497H440.717V272.621H453.857V261.497H457.133V288.029H453.857V275.537H440.717V288.029H437.441Z" fill="white"/>
<path d="M470.719 272.117V269.489H489.727V272.117H470.719ZM470.719 280.037V277.409H489.727V280.037H470.719Z" fill="white"/>
<path d="M505.699 288.029L502.063 284.357L504.187 282.233L507.103 285.113H515.383L517.363 283.133V276.365L515.383 274.385H503.287V261.497H519.487V264.521H506.563V271.469H516.859L520.639 275.249V284.249L516.859 288.029H505.699Z" fill="white"/>
<path d="M529.306 288.029L525.526 284.249V265.277L529.306 261.497H541.15L544.786 265.169L542.662 267.293L539.746 264.413H530.782L528.802 266.393V273.809L531.034 271.613H540.97L544.714 275.393V284.249L540.97 288.029H529.306ZM530.782 285.113H539.494L541.438 283.133V276.473L539.494 274.493H531.142L528.802 276.941V283.133L530.782 285.113Z" fill="white"/>
</g>
</g>
</g>
</svg>
