<svg viewBox="0 0 1037 528" fill="none" xmlns="http://www.w3.org/2000/svg">
<g id="0305104">
<g id="Group 53">
<g id="clave">
<g id="Group 61">
<path id="Rectangle 4" d="M39 432H222.8L251 472L222.8 512H39V432Z" fill="#28DA10" fill-opacity="0.1"/>
<path id="Rectangle 4 (Stroke)" fill-rule="evenodd" clip-rule="evenodd" d="M221.244 435H42V509H221.244L247.329 472L221.244 435ZM222.8 432H39V512H222.8L251 472L222.8 432Z" fill="#28DA10"/>
<path id="Ellipse 1" d="M80 472C80 494.091 62.0914 512 40 512C17.9086 512 0 494.091 0 472C0 449.909 17.9086 432 40 432C62.0914 432 80 449.909 80 472Z" fill="#28DA10"/>
<path id="Ellipse 1 (Stroke)" fill-rule="evenodd" clip-rule="evenodd" d="M40 511C61.5391 511 79 493.539 79 472C79 450.461 61.5391 433 40 433C18.4609 433 1 450.461 1 472C1 493.539 18.4609 511 40 511ZM40 512C62.0914 512 80 494.091 80 472C80 449.909 62.0914 432 40 432C17.9086 432 0 449.909 0 472C0 494.091 17.9086 512 40 512Z" fill="#28DA10"/>
<path id="A" d="M48.3125 480.25H27.6562L22.9688 493H18.9375L36.1562 447.5H39.8125L57.0312 493H53.0312L48.3125 480.25ZM28.8438 476.969H47.0938L37.9688 452.188L28.8438 476.969Z" fill="white"/>
<path id="A (Stroke)" fill-rule="evenodd" clip-rule="evenodd" d="M53.0313 493L48.3125 480.25H27.6563L22.9688 493H18.9375L36.1563 447.5H39.8125L57.0313 493H53.0313ZM28.3541 481.25L23.6666 494H17.4899L35.4655 446.5H40.5033L58.4789 494H52.3351L47.6163 481.25H28.3541ZM47.0938 476.969L37.9688 452.188L28.8438 476.969H47.0938ZM30.2776 475.969H45.6599L37.9688 455.082L30.2776 475.969Z" fill="#28DA10"/>
</g>
<g id="Group 60">
<path id="Rectangle 5" d="M308 437H486.598L514 477L486.598 517H308V437Z" fill="#28DA10" fill-opacity="0.1"/>
<path id="Rectangle 5 (Stroke)" fill-rule="evenodd" clip-rule="evenodd" d="M485.017 440H311V514H485.017L510.364 477L485.017 440ZM486.598 437H308V517H486.598L514 477L486.598 437Z" fill="#28DA10"/>
<path id="Ellipse 2" d="M349 477C349 499.091 331.091 517 309 517C286.909 517 269 499.091 269 477C269 454.909 286.909 437 309 437C331.091 437 349 454.909 349 477Z" fill="#28DA10"/>
<path id="Ellipse 2 (Stroke)" fill-rule="evenodd" clip-rule="evenodd" d="M309 516C330.539 516 348 498.539 348 477C348 455.461 330.539 438 309 438C287.461 438 270 455.461 270 477C270 498.539 287.461 516 309 516ZM309 517C331.091 517 349 499.091 349 477C349 454.909 331.091 437 309 437C286.909 437 269 454.909 269 477C269 499.091 286.909 517 309 517Z" fill="#28DA10"/>
<path id="B" d="M293.75 493V447.5H307.188C312.062 447.5 315.76 448.51 318.281 450.531C320.802 452.531 322.062 455.49 322.062 459.406C322.062 461.76 321.417 463.812 320.125 465.562C318.854 467.292 317.104 468.531 314.875 469.281C317.521 469.865 319.646 471.167 321.25 473.188C322.875 475.208 323.688 477.542 323.688 480.188C323.688 484.208 322.385 487.354 319.781 489.625C317.198 491.875 313.594 493 308.969 493H293.75ZM297.594 471.125V489.75H309.125C312.417 489.75 315.021 488.917 316.938 487.25C318.875 485.562 319.844 483.229 319.844 480.25C319.844 477.438 318.917 475.219 317.062 473.594C315.229 471.948 312.688 471.125 309.438 471.125H297.594ZM297.594 467.906H308.094C311.302 467.844 313.781 467.094 315.531 465.656C317.302 464.198 318.188 462.083 318.188 459.312C318.188 456.396 317.271 454.25 315.438 452.875C313.625 451.479 310.875 450.781 307.188 450.781H297.594V467.906Z" fill="white"/>
<path id="B (Stroke)" fill-rule="evenodd" clip-rule="evenodd" d="M292.75 494V446.5H307.188C312.178 446.5 316.136 447.531 318.905 449.749C321.715 451.98 323.062 455.259 323.062 459.406C323.062 461.955 322.359 464.22 320.93 466.156C320.036 467.372 318.929 468.363 317.623 469.131C319.353 469.904 320.828 471.048 322.031 472.563C323.801 474.765 324.688 477.32 324.688 480.188C324.688 484.445 323.297 487.886 320.438 490.379C317.618 492.835 313.75 494 308.969 494H292.75ZM321.25 473.188C319.978 471.585 318.379 470.435 316.452 469.736C315.949 469.554 315.423 469.402 314.875 469.281C315.409 469.102 315.915 468.894 316.393 468.659C317.914 467.91 319.158 466.878 320.125 465.562C321.417 463.812 322.062 461.76 322.062 459.406C322.062 455.49 320.802 452.531 318.281 450.531C315.76 448.51 312.062 447.5 307.188 447.5H293.75V493H308.969C313.594 493 317.198 491.875 319.781 489.625C322.385 487.354 323.688 484.208 323.688 480.188C323.688 477.542 322.875 475.208 321.25 473.188ZM316.394 474.338C314.797 472.904 312.521 472.125 309.438 472.125H298.594V488.75H309.125C312.248 488.75 314.594 487.962 316.281 486.496M309.125 489.75C312.417 489.75 315.021 488.917 316.938 487.25C318.875 485.562 319.844 483.229 319.844 480.25C319.844 477.438 318.917 475.219 317.062 473.594C315.229 471.948 312.688 471.125 309.438 471.125H297.594V489.75H309.125ZM316.394 474.338L316.403 474.346ZM314.827 453.667C313.268 452.466 310.779 451.781 307.188 451.781H298.594V466.906H308.084C311.153 466.845 313.38 466.128 314.896 464.884M308.094 467.906H297.594V450.781H307.188C310.875 450.781 313.625 451.479 315.438 452.875C317.271 454.25 318.188 456.396 318.188 459.312C318.188 462.083 317.302 464.198 315.531 465.656C313.781 467.094 311.302 467.844 308.094 467.906ZM314.827 453.667L314.837 453.675ZM316.281 486.496C317.964 485.029 318.844 482.991 318.844 480.25C318.844 477.681 318.009 475.753 316.403 474.346M314.897 464.884C316.388 463.655 317.188 461.852 317.188 459.312C317.188 456.616 316.352 454.811 314.837 453.675" fill="#28DA10"/>
</g>
<g id="Group 59">
<path id="Rectangle 6" d="M568 434H751.8L780 474L751.8 514H568V434Z" fill="#28DA10" fill-opacity="0.1"/>
<path id="Rectangle 6 (Stroke)" fill-rule="evenodd" clip-rule="evenodd" d="M750.244 437H571V511H750.244L776.329 474L750.244 437ZM751.8 434H568V514H751.8L780 474L751.8 434Z" fill="#28DA10"/>
<path id="Ellipse 3" d="M609 474C609 496.091 591.091 514 569 514C546.909 514 529 496.091 529 474C529 451.909 546.909 434 569 434C591.091 434 609 451.909 609 474Z" fill="#28DA10"/>
<path id="Ellipse 3 (Stroke)" fill-rule="evenodd" clip-rule="evenodd" d="M569 513C590.539 513 608 495.539 608 474C608 452.461 590.539 435 569 435C547.461 435 530 452.461 530 474C530 495.539 547.461 513 569 513ZM569 514C591.091 514 609 496.091 609 474C609 451.909 591.091 434 569 434C546.909 434 529 451.909 529 474C529 496.091 546.909 514 569 514Z" fill="#28DA10"/>
<path id="C" d="M584.969 481.812C584.448 486.604 582.729 490.271 579.812 492.812C576.917 495.354 573.052 496.625 568.219 496.625C564.844 496.625 561.854 495.781 559.25 494.094C556.667 492.406 554.667 490.021 553.25 486.938C551.833 483.833 551.115 480.292 551.094 476.312V470.406C551.094 466.365 551.802 462.781 553.219 459.656C554.635 456.531 556.667 454.125 559.312 452.438C561.979 450.729 565.042 449.875 568.5 449.875C573.375 449.875 577.219 451.198 580.031 453.844C582.865 456.469 584.51 460.104 584.969 464.75H581.094C580.135 457.021 575.938 453.156 568.5 453.156C564.375 453.156 561.083 454.698 558.625 457.781C556.188 460.865 554.969 465.125 554.969 470.562V476.125C554.969 481.375 556.156 485.562 558.531 488.688C560.927 491.812 564.156 493.375 568.219 493.375C572.24 493.375 575.271 492.417 577.312 490.5C579.354 488.562 580.615 485.667 581.094 481.812H584.969Z" fill="white"/>
<path id="C (Stroke)" fill-rule="evenodd" clip-rule="evenodd" d="M586.083 480.812L585.963 481.921C585.422 486.897 583.62 490.82 580.471 493.565C577.35 496.304 573.23 497.625 568.219 497.625C564.668 497.625 561.486 496.735 558.706 494.933L558.703 494.931C555.947 493.13 553.829 490.592 552.341 487.355L552.34 487.353C550.856 484.1 550.115 480.415 550.094 476.318L550.094 476.312L550.094 470.406C550.094 466.247 550.823 462.519 552.308 459.243C553.797 455.959 555.95 453.396 558.774 451.595C561.616 449.774 564.869 448.875 568.5 448.875C573.558 448.875 577.671 450.252 580.714 453.113C583.76 455.937 585.487 459.818 585.964 464.652L586.072 465.75H580.21L580.101 464.873C579.641 461.158 578.419 458.512 576.549 456.79C574.685 455.075 572.046 454.156 568.5 454.156C564.664 454.156 561.667 455.571 559.408 458.403C557.156 461.253 555.969 465.266 555.969 470.562V476.125C555.969 481.229 557.123 485.18 559.326 488.081C561.526 490.949 564.456 492.375 568.219 492.375C572.094 492.375 574.837 491.451 576.626 489.773C578.445 488.046 579.64 485.399 580.101 481.689L580.21 480.812H586.083ZM577.312 490.5C575.271 492.417 572.24 493.375 568.219 493.375C564.156 493.375 560.927 491.812 558.531 488.688C556.156 485.562 554.969 481.375 554.969 476.125V470.562C554.969 465.125 556.187 460.865 558.625 457.781C561.083 454.698 564.375 453.156 568.5 453.156C575.937 453.156 580.135 457.021 581.094 464.75H584.969C584.935 464.411 584.896 464.078 584.85 463.75C584.264 459.579 582.658 456.277 580.031 453.844C577.219 451.198 573.375 449.875 568.5 449.875C565.042 449.875 561.979 450.729 559.312 452.438C556.667 454.125 554.635 456.531 553.219 459.656C551.802 462.781 551.094 466.365 551.094 470.406V476.312C551.115 480.292 551.833 483.833 553.25 486.938C554.667 490.021 556.667 492.406 559.25 494.094C561.854 495.781 564.844 496.625 568.219 496.625C573.052 496.625 576.917 495.354 579.812 492.812C582.523 490.451 584.199 487.117 584.84 482.812C584.889 482.485 584.932 482.151 584.969 481.812H581.094C580.615 485.667 579.354 488.562 577.312 490.5Z" fill="#28DA10"/>
</g>
<g id="Group 58">
<path id="Rectangle 7" d="M837 437H1010.4L1037 477L1010.4 517H837V437Z" fill="#28DA10" fill-opacity="0.1"/>
<path id="Rectangle 7 (Stroke)" fill-rule="evenodd" clip-rule="evenodd" d="M1008.79 440H840V514H1008.79L1033.4 477L1008.79 440ZM1010.4 437H837V517H1010.4L1037 477L1010.4 437Z" fill="#28DA10"/>
<path id="Ellipse 4" d="M878 477C878 499.091 860.091 517 838 517C815.909 517 798 499.091 798 477C798 454.909 815.909 437 838 437C860.091 437 878 454.909 878 477Z" fill="#28DA10"/>
<path id="Ellipse 4 (Stroke)" fill-rule="evenodd" clip-rule="evenodd" d="M838 516C859.539 516 877 498.539 877 477C877 455.461 859.539 438 838 438C816.461 438 799 455.461 799 477C799 498.539 816.461 516 838 516ZM838 517C860.091 517 878 499.091 878 477C878 454.909 860.091 437 838 437C815.909 437 798 454.909 798 477C798 499.091 815.909 517 838 517Z" fill="#28DA10"/>
<path id="D" d="M821.75 499V453.5H834.469C838.198 453.5 841.542 454.354 844.5 456.062C847.458 457.75 849.76 460.177 851.406 463.344C853.073 466.51 853.906 470.115 853.906 474.156V478.344C853.906 482.406 853.083 486.01 851.438 489.156C849.792 492.302 847.469 494.729 844.469 496.438C841.49 498.146 838.062 499 834.188 499H821.75ZM825.594 456.781V495.75H834.219C839.01 495.75 842.854 494.167 845.75 491C848.646 487.812 850.094 483.51 850.094 478.094V474.094C850.094 468.865 848.667 464.677 845.812 461.531C842.958 458.385 839.198 456.802 834.531 456.781H825.594Z" fill="white"/>
<path id="D (Stroke)" fill-rule="evenodd" clip-rule="evenodd" d="M820.75 500V452.5H834.469C838.356 452.5 841.874 453.392 844.998 455.195C848.13 456.982 850.563 459.554 852.292 462.881C854.043 466.208 854.906 469.975 854.906 474.156V478.344C854.906 482.544 854.054 486.311 852.324 489.62C850.592 492.93 848.136 495.5 844.965 497.306C841.816 499.111 838.214 500 834.188 500H820.75ZM844.469 496.438C847.469 494.729 849.792 492.302 851.438 489.156C853.083 486.01 853.906 482.406 853.906 478.344V474.156C853.906 470.115 853.073 466.51 851.406 463.344C849.76 460.177 847.458 457.75 844.5 456.062C841.542 454.354 838.198 453.5 834.469 453.5H821.75V499H834.188C838.062 499 841.49 498.146 844.469 496.438ZM825.594 495.75V456.781H834.531C839.198 456.802 842.958 458.385 845.812 461.531C848.667 464.677 850.094 468.865 850.094 474.094V478.094C850.094 483.51 848.646 487.812 845.75 491C842.854 494.167 839.01 495.75 834.219 495.75H825.594ZM845.011 490.326C847.699 487.367 849.094 483.327 849.094 478.094V474.094C849.094 469.053 847.723 465.125 845.072 462.203C842.426 459.287 838.945 457.801 834.529 457.781H826.594V494.75H834.219C838.766 494.75 842.328 493.26 845.011 490.326Z" fill="#28DA10"/>
</g>
</g>
<g id="Group 57">
<g id="15,0 30,0 45,0 7,5">
<path d="M107.993 487V483.976H112.061V463.492H108.425V460.468H115.337V483.976H119.405V487H107.993Z" fill="#28DA10"/>
<path d="M126.671 487L123.035 483.328L125.159 481.204L128.075 484.084H136.355L138.335 482.104V475.336L136.355 473.356H124.259V460.468H140.459V463.492H127.535V470.44H137.831L141.611 474.22V483.22L137.831 487H126.671Z" fill="#28DA10"/>
<path d="M144.879 490.96L146.319 482.752H149.487L146.715 490.96H144.879Z" fill="#28DA10"/>
<path d="M158.33 487L154.55 483.22V464.248L158.33 460.468H169.85L173.63 464.248V483.22L169.85 487H158.33ZM159.806 484.084H168.374L170.354 482.104V465.364L168.374 463.384H159.806L157.826 465.364L157.862 482.104L159.806 484.084Z" fill="#28DA10"/>
<path d="M389.042 487L385.406 483.328L387.53 481.204L390.446 484.084H399.05L401.03 482.104V476.596L399.014 474.508H391.202V471.628H399.014L401.03 469.54V465.364L399.05 463.348L391.058 463.384L388.142 466.264L386.018 464.14L389.654 460.468H400.526L404.306 464.248V470.404L401.678 473.068L404.306 475.768V483.22L400.526 487H389.042Z" fill="#28DA10"/>
<path d="M412.966 487L409.186 483.22V464.248L412.966 460.468H424.486L428.266 464.248V483.22L424.486 487H412.966ZM414.442 484.084H423.01L424.99 482.104V465.364L423.01 463.384H414.442L412.462 465.364L412.498 482.104L414.442 484.084Z" fill="#28DA10"/>
<path d="M431.543 490.96L432.983 482.752H436.151L433.379 490.96H431.543Z" fill="#28DA10"/>
<path d="M444.994 487L441.214 483.22V464.248L444.994 460.468H456.514L460.294 464.248V483.22L456.514 487H444.994ZM446.47 484.084H455.038L457.018 482.104V465.364L455.038 463.384H446.47L444.49 465.364L444.526 482.104L446.47 484.084Z" fill="#28DA10"/>
<path d="M652.245 487V481.6H639.141V478.288L652.245 460.468H655.521V478.612H658.833V481.6H655.521V487H652.245ZM652.245 478.612V465.976L642.92 478.612H652.245Z" fill="#28DA10"/>
<path d="M665.476 487L661.84 483.328L663.964 481.204L666.88 484.084H675.16L677.14 482.104V475.336L675.16 473.356H663.064V460.468H679.264V463.492H666.34V470.44H676.636L680.416 474.22V483.22L676.636 487H665.476Z" fill="#28DA10"/>
<path d="M683.683 490.96L685.123 482.752H688.291L685.519 490.96H683.683Z" fill="#28DA10"/>
<path d="M697.134 487L693.354 483.22V464.248L697.134 460.468H708.654L712.434 464.248V483.22L708.654 487H697.134ZM698.61 484.084H707.178L709.158 482.104V465.364L707.178 463.384H698.61L696.63 465.364L696.666 482.104L698.61 484.084Z" fill="#28DA10"/>
<path d="M917.095 487L928.579 464.284V463.492H915.115V460.468H932.179V464.356L920.839 487H917.095Z" fill="#28DA10"/>
<path d="M933.996 490.96L935.436 482.752H938.604L935.832 490.96H933.996Z" fill="#28DA10"/>
<path d="M946.691 487L943.055 483.328L945.179 481.204L948.095 484.084H956.375L958.355 482.104V475.336L956.375 473.356H944.279V460.468H960.479V463.492H947.555V470.44H957.851L961.631 474.22V483.22L957.851 487H946.691Z" fill="#28DA10"/>
</g>
</g>
<g id="flecha">
<path id="Rectangle 2" d="M317.13 436.055L331.606 443.752L291.839 518.543L277.363 510.846L317.13 436.055Z" fill="#D51919"/>
<path id="Rectangle 1" d="M262 448.271L347.252 401V455.649L304.626 438.981L262 448.271Z" fill="#D51919"/>
<path id="Rectangle 3" d="M265.825 513.921L280.628 488.282L296.988 487.734L282.185 513.374L265.825 513.921Z" fill="#D51919"/>
<path id="Rectangle 4_2" d="M290.502 527.785L305.305 502.146L296.978 487.345L282.175 512.984L290.502 527.785Z" fill="#D51919"/>
</g>
</g>
<g id="enun01">
<path id="Rectangle 1_2" d="M63 0H952.089L1027 197.615L952.089 401H63V0Z" fill="#02071A"/>
<path id="Rectangle 1 (Stroke)" fill-rule="evenodd" clip-rule="evenodd" d="M949.328 4H67V397H949.3L1022.73 197.635L949.328 4ZM952.089 0H63V401H952.089L1027 197.615L952.089 0Z" fill="#28DA10"/>
<path id="Ellipse 1_2" d="M113.127 172.7C113.127 195.963 90.489 214.821 62.5635 214.821C34.6381 214.821 12 195.963 12 172.7C12 149.436 34.6381 130.578 62.5635 130.578C90.489 130.578 113.127 149.436 113.127 172.7Z" fill="#28DA10"/>
<path id="Ellipse 1 (Stroke)_2" fill-rule="evenodd" clip-rule="evenodd" d="M62.5635 213.821C90.1155 213.821 112.127 195.247 112.127 172.7C112.127 150.152 90.1155 131.578 62.5635 131.578C35.0115 131.578 13 150.152 13 172.7C13 195.247 35.0115 213.821 62.5635 213.821ZM62.5635 214.821C90.489 214.821 113.127 195.963 113.127 172.7C113.127 149.436 90.489 130.578 62.5635 130.578C34.6381 130.578 12 149.436 12 172.7C12 195.963 34.6381 214.821 62.5635 214.821Z" fill="#28DA10"/>
<g id="El agua regia es una soluci&#195;&#179;n que contiene HNO3 y HC&#226;&#132;&#147;, dicha mezcla es altamente corrosiva y es capaz de reaccionar con el oro y el platino. Si se tiene 500 mL de agua regia cuya densidad es 1,25 g/mL, la cual contiene HNO3 al 25 % en volumen, determine el porcentaje en masa del &#195;&#161;cido n&#195;&#173;trico en dicha soluci&#195;&#179;n. Dato: Densidad: HNO3 = 1,50 g/mL">
<path d="M108.132 51.6912V25.1592H125.628V28.1832H111.408V36.2472H124.116V39.2352H111.408V48.6672H125.628V51.6912H108.132Z" fill="white"/>
<path d="M130.452 51.6912V25.1592H133.62V51.6912H130.452Z" fill="white"/>
<path d="M149.756 51.6912L146.012 47.9112V43.6272L149.756 39.8472H159.332V37.5072L157.388 35.5272H148.46V32.8632H158.756L162.5 36.6432V51.6912H159.332V48.7752L156.416 51.6912H149.756ZM151.16 49.1712H155.624L159.332 45.4992V42.3312L151.16 42.3672L149.18 44.3112V47.1912L151.16 49.1712Z" fill="white"/>
<path d="M169.279 58.4232V55.7952L179.431 55.7592L181.411 53.8152V48.7392L178.495 51.6912H171.583L167.803 47.9112V36.6432L171.583 32.8632H178.495L181.411 35.8512V32.8632H184.579V54.6432L180.799 58.4232H169.279ZM177.703 49.1712L181.411 45.4272V39.1632L177.703 35.3832H172.951L170.971 37.3632V47.1912L172.951 49.1712H177.703Z" fill="white"/>
<path d="M194.018 51.6912L190.274 47.9112V32.8632H193.442L193.406 47.1552L195.35 49.1712H200.03L203.738 45.4632V32.8632H206.906V51.6912H203.738V48.7752L200.858 51.6912H194.018Z" fill="white"/>
<path d="M214.83 51.6912L211.086 47.9112V43.6272L214.83 39.8472H224.406V37.5072L222.462 35.5272H213.534V32.8632H223.83L227.574 36.6432V51.6912H224.406V48.7752L221.49 51.6912H214.83ZM216.234 49.1712H220.698L224.406 45.4992V42.3312L216.234 42.3672L214.254 44.3112V47.1912L216.234 49.1712Z" fill="white"/>
<path d="M241.526 51.6912V32.8632H244.694V36.2472L247.97 32.8632H252.794V36.0312H248.114L244.694 39.5592V51.6912H241.526Z" fill="white"/>
<path d="M259.112 51.6912L255.332 47.9112V36.6432L259.112 32.8632H267.5L271.28 36.6432V43.4472H258.5V47.0832L260.48 49.0632H270.956V51.6912H259.112ZM258.5 40.9272H268.112V37.3632L266.132 35.3832H260.48L258.5 37.3632V40.9272Z" fill="white"/>
<path d="M277.796 58.4232V55.7952L287.948 55.7592L289.928 53.8152V48.7392L287.012 51.6912H280.1L276.32 47.9112V36.6432L280.1 32.8632H287.012L289.928 35.8512V32.8632H293.096V54.6432L289.316 58.4232H277.796ZM286.22 49.1712L289.928 45.4272V39.1632L286.22 35.3832H281.468L279.488 37.3632V47.1912L281.468 49.1712H286.22Z" fill="white"/>
<path d="M298.971 30.8112V26.5632H302.139V30.8112H298.971ZM298.971 51.6912V32.8632H302.139V51.6912H298.971Z" fill="white"/>
<path d="M309.918 51.6912L306.174 47.9112V43.6272L309.918 39.8472H319.494V37.5072L317.55 35.5272H308.622V32.8632H318.918L322.662 36.6432V51.6912H319.494V48.7752L316.578 51.6912H309.918ZM311.322 49.1712H315.786L319.494 45.4992V42.3312L311.322 42.3672L309.342 44.3112V47.1912L311.322 49.1712Z" fill="white"/>
<path d="M339.961 51.6912L336.181 47.9112V36.6432L339.961 32.8632H348.349L352.129 36.6432V43.4472H339.349V47.0832L341.329 49.0632H351.805V51.6912H339.961ZM339.349 40.9272H348.961V37.3632L346.981 35.3832H341.329L339.349 37.3632V40.9272Z" fill="white"/>
<path d="M357.602 51.6912V49.0632H367.574L369.266 47.3352V45.0672L367.466 43.2672H360.014L356.702 40.0272V36.2112L360.014 32.8632H370.634V35.5272H361.526L359.87 37.1472V38.9832L361.598 40.7112H369.122L372.434 43.9512V48.3792L369.158 51.6912H357.602Z" fill="white"/>
<path d="M389.21 51.6912L385.466 47.9112V32.8632H388.634L388.598 47.1552L390.542 49.1712H395.223L398.93 45.4632V32.8632H402.098V51.6912H398.93V48.7752L396.05 51.6912H389.21Z" fill="white"/>
<path d="M407.971 51.6912V32.8632H411.139V36.2472L414.415 32.8632H421.363L425.107 36.6432V51.6912H421.939V37.4352L420.031 35.3832H415.243L411.139 39.5592V51.6912H407.971Z" fill="white"/>
<path d="M432.874 51.6912L429.13 47.9112V43.6272L432.874 39.8472H442.45V37.5072L440.506 35.5272H431.578V32.8632H441.874L445.618 36.6432V51.6912H442.45V48.7752L439.534 51.6912H432.874ZM434.278 49.1712H438.742L442.45 45.4992V42.3312L434.278 42.3672L432.298 44.3112V47.1912L434.278 49.1712Z" fill="white"/>
<path d="M459.57 51.6912V49.0632H469.542L471.234 47.3352V45.0672L469.434 43.2672H461.982L458.67 40.0272V36.2112L461.982 32.8632H472.602V35.5272H463.494L461.838 37.1472V38.9832L463.566 40.7112H471.09L474.402 43.9512V48.3792L471.126 51.6912H459.57Z" fill="white"/>
<path d="M482.57 51.6912L478.79 47.9112V36.6432L482.57 32.8632H491.498L495.278 36.6432V47.9112L491.498 51.6912H482.57ZM483.938 49.1712H490.13L492.11 47.1912L492.074 37.3632L490.13 35.3832H483.938L481.958 37.3632V47.1912L483.938 49.1712Z" fill="white"/>
<path d="M500.738 51.6912V25.1592H503.906V51.6912H500.738Z" fill="white"/>
<path d="M513.337 51.6912L509.593 47.9112V32.8632H512.761L512.725 47.1552L514.669 49.1712H519.349L523.057 45.4632V32.8632H526.225V51.6912H523.057V48.7752L520.177 51.6912H513.337Z" fill="white"/>
<path d="M535.445 51.6912L531.665 47.9112V36.6432L535.445 32.8632H544.049L547.361 36.1392V39.1272H544.193V37.1832L542.393 35.3832H536.813L534.833 37.3632V47.0472L536.813 49.0632H547.181V51.6912H535.445Z" fill="white"/>
<path d="M552.207 30.8112V26.5632H555.375V30.8112H552.207ZM552.207 51.6912V32.8632H555.375V51.6912H552.207Z" fill="white"/>
<path d="M567.722 30.8112L571.178 25.4472H574.886L570.422 30.8112H567.722ZM564.59 51.6912L560.81 47.9112V36.6432L564.59 32.8632H573.518L577.298 36.6432V47.9112L573.518 51.6912H564.59ZM565.958 49.1712H572.15L574.13 47.1912L574.094 37.3632L572.15 35.3832H565.958L563.978 37.3632V47.1912L565.958 49.1712Z" fill="white"/>
<path d="M582.758 51.6912V32.8632H585.926V36.2472L589.202 32.8632H596.15L599.894 36.6432V51.6912H596.726V37.4352L594.818 35.3832H590.03L585.926 39.5592V51.6912H582.758Z" fill="white"/>
<path d="M627.002 58.4232V48.7392L624.086 51.6912H617.174L613.394 47.9112V36.6432L617.174 32.8632H624.086L627.002 35.8512V32.8632H630.17V58.4232H627.002ZM623.294 49.1712L627.002 45.4272V39.1632L623.294 35.3832H618.542L616.562 37.3632V47.1912L618.542 49.1712H623.294Z" fill="white"/>
<path d="M639.608 51.6912L635.864 47.9112V32.8632H639.032L638.996 47.1552L640.94 49.1712H645.62L649.328 45.4632V32.8632H652.496V51.6912H649.328V48.7752L646.448 51.6912H639.608Z" fill="white"/>
<path d="M661.717 51.6912L657.937 47.9112V36.6432L661.717 32.8632H670.105L673.885 36.6432V43.4472H661.105V47.0832L663.085 49.0632H673.561V51.6912H661.717ZM661.105 40.9272H670.717V37.3632L668.737 35.3832H663.085L661.105 37.3632V40.9272Z" fill="white"/>
<path d="M690.922 51.6912L687.142 47.9112V36.6432L690.922 32.8632H699.526L702.838 36.1392V39.1272H699.669V37.1832L697.87 35.3832H692.29L690.31 37.3632V47.0472L692.29 49.0632H702.658V51.6912H690.922Z" fill="white"/>
<path d="M711.031 51.6912L707.251 47.9112V36.6432L711.031 32.8632H719.959L723.739 36.6432V47.9112L719.959 51.6912H711.031ZM712.399 49.1712H718.591L720.571 47.1912L720.535 37.3632L718.591 35.3832H712.399L710.419 37.3632V47.1912L712.399 49.1712Z" fill="white"/>
<path d="M729.199 51.6912V32.8632H732.367V36.2472L735.643 32.8632H742.591L746.335 36.6432V51.6912H743.167V37.4352L741.259 35.3832H736.471L732.367 39.5592V51.6912H729.199Z" fill="white"/>
<path d="M755.578 51.6912L752.266 48.4152V35.3832H750.286V32.8632H752.338L753.13 28.0392H755.434V32.8632H759.43V35.3832H755.434V47.2992L757.126 49.0632H760.258V51.6912H755.578Z" fill="white"/>
<path d="M764.109 30.8112V26.5632H767.277V30.8112H764.109ZM764.109 51.6912V32.8632H767.277V51.6912H764.109Z" fill="white"/>
<path d="M776.492 51.6912L772.712 47.9112V36.6432L776.492 32.8632H784.88L788.66 36.6432V43.4472H775.88V47.0832L777.86 49.0632H788.336V51.6912H776.492ZM775.88 40.9272H785.492V37.3632L783.512 35.3832H777.86L775.88 37.3632V40.9272Z" fill="white"/>
<path d="M794.132 51.6912V32.8632H797.3V36.2472L800.576 32.8632H807.524L811.268 36.6432V51.6912H808.1V37.4352L806.192 35.3832H801.404L797.3 39.5592V51.6912H794.132Z" fill="white"/>
<path d="M820.332 51.6912L816.552 47.9112V36.6432L820.332 32.8632H828.72L832.5 36.6432V43.4472H819.72V47.0832L821.7 49.0632H832.176V51.6912H820.332ZM819.72 40.9272H829.332V37.3632L827.352 35.3832H821.7L819.72 37.3632V40.9272Z" fill="white"/>
<path d="M846.369 51.6912V25.1592H849.645V36.2832H862.785V25.1592H866.061V51.6912H862.785V39.1992H849.645V51.6912H846.369Z" fill="white"/>
<path d="M872.279 51.6912V25.1592H876.743L888.587 46.5072V25.1592H891.863V51.6912H887.975L876.347 30.7392H875.555V51.6912H872.279Z" fill="white"/>
<path d="M901.215 51.6912L897.435 47.9112V28.9392L901.215 25.1592H913.743L917.523 28.9392V47.9112L913.743 51.6912H901.215ZM902.691 48.7752H912.267L914.247 46.7952V30.0552L912.267 28.0752H902.691L900.711 30.0552V46.7952L902.691 48.7752Z" fill="white"/>
<path d="M923.631 51.6912L921.207 49.2432L922.623 47.8272L924.567 49.7472H930.303L931.623 48.4272V44.7552L930.279 43.3632H925.071V41.4432H930.279L931.623 40.0512V37.2672L930.303 35.9232L924.975 35.9472L923.031 37.8672L921.615 36.4512L924.039 34.0032H931.287L933.807 36.5232V40.6272L932.055 42.4032L933.807 44.2032V49.1712L931.287 51.6912H923.631Z" fill="white"/>
<path d="M949.801 58.4232L953.185 50.3952H951.853L944.113 32.8632H947.605L953.653 47.2632H954.481L960.061 32.8632H963.517L953.005 58.4232H949.801Z" fill="white"/>
<path d="M108.132 91.6912V65.1592H111.408V76.2832H124.548V65.1592H127.824V91.6912H124.548V79.1992H111.408V91.6912H108.132Z" fill="white"/>
<path d="M137.138 91.6912L133.358 87.9112V68.9392L137.138 65.1592H149.126L152.798 68.8312L150.71 70.9552L147.83 68.0752H138.614L136.634 70.0552V86.7952L138.614 88.7752H148.118L151.034 85.8592L153.122 87.9832L149.378 91.6912H137.138Z" fill="white"/>
<path d="M165.415 89.6032C166.255 89.6032 166.987 89.3392 167.611 88.8112C168.259 88.2592 168.631 87.2872 168.727 85.8952H170.563C170.467 87.8632 169.963 89.3872 169.051 90.4672C168.163 91.5232 166.843 92.0512 165.091 92.0512C164.107 92.0512 163.195 91.8592 162.355 91.4752C161.515 91.0672 160.831 90.4072 160.303 89.4952C159.799 88.5832 159.547 87.3472 159.547 85.7872V81.7192C159.019 81.9112 158.467 82.0912 157.891 82.2592C157.315 82.4272 156.739 82.5832 156.163 82.7272V80.6032C156.787 80.4352 157.375 80.2672 157.927 80.0992C158.479 79.9072 159.019 79.7272 159.547 79.5592V70.9552C159.547 69.9712 159.715 69.0832 160.051 68.2912C160.411 67.4752 160.963 66.8272 161.707 66.3472C162.475 65.8672 163.483 65.6272 164.731 65.6272C166.123 65.6272 167.227 66.0952 168.043 67.0312C168.883 67.9432 169.303 69.2392 169.303 70.9192C169.303 72.4792 169.003 73.9072 168.403 75.2032C167.827 76.4752 167.023 77.5912 165.991 78.5512C164.959 79.5112 163.795 80.2672 162.499 80.8192V85.6792C162.499 86.8792 162.727 87.8392 163.183 88.5592C163.663 89.2552 164.407 89.6032 165.415 89.6032ZM166.891 71.0272C166.891 68.8192 166.171 67.7152 164.731 67.7152C163.819 67.7152 163.219 68.0272 162.931 68.6512C162.643 69.2512 162.499 70.0432 162.499 71.0272V78.5152C165.427 76.9792 166.891 74.4832 166.891 71.0272Z" fill="white"/>
<path d="M173.75 95.6512L175.19 87.4432H178.358L175.586 95.6512H173.75Z" fill="white"/>
<path d="M204.269 91.6912L200.489 87.9112V76.6432L204.269 72.8632H211.181L214.097 75.8512V65.1592H217.265V91.6912H214.097V88.7392L211.181 91.6912H204.269ZM210.389 89.1712L214.097 85.4272V79.1632L210.389 75.3832H205.637L203.657 77.3632V87.1912L205.637 89.1712H210.389Z" fill="white"/>
<path d="M223.14 70.8112V66.5632H226.308V70.8112H223.14ZM223.14 91.6912V72.8632H226.308V91.6912H223.14Z" fill="white"/>
<path d="M235.523 91.6912L231.743 87.9112V76.6432L235.523 72.8632H244.127L247.439 76.1392V79.1272H244.271V77.1832L242.471 75.3832H236.891L234.911 77.3632V87.0472L236.891 89.0632H247.259V91.6912H235.523Z" fill="white"/>
<path d="M252.285 91.6912V65.1592H255.453V75.8512L258.333 72.8632H265.281L269.025 76.6432V91.6912H265.857V77.4352L263.949 75.3832H259.161L255.453 79.1632V91.6912H252.285Z" fill="white"/>
<path d="M276.802 91.6912L273.058 87.9112V83.6272L276.802 79.8472H286.378V77.5072L284.434 75.5272H275.506V72.8632H285.802L289.546 76.6432V91.6912H286.378V88.7752L283.462 91.6912H276.802ZM278.206 89.1712H282.67L286.378 85.4992V82.3312L278.206 82.3672L276.226 84.3112V87.1912L278.206 89.1712Z" fill="white"/>
<path d="M312.278 91.6912V72.8632H315.446V76.2472L318.722 72.8632H325.67L328.982 76.2112L332.222 72.8632H339.17L342.95 76.6432V91.6912H339.782V77.4352L337.874 75.3832H333.05L329.414 79.0552V91.6912H326.246L326.282 77.4352L324.338 75.3832H319.55L315.446 79.5592V91.6912H312.278Z" fill="white"/>
<path d="M352.012 91.6912L348.232 87.9112V76.6432L352.012 72.8632H360.4L364.18 76.6432V83.4472H351.4V87.0832L353.38 89.0632H363.856V91.6912H352.012ZM351.4 80.9272H361.012V77.3632L359.032 75.3832H353.38L351.4 77.3632V80.9272Z" fill="white"/>
<path d="M368.609 91.6912V88.4512L380.345 75.5272H369.437V72.8632H383.909V76.1032L372.173 89.0632H384.197V91.6912H368.609Z" fill="white"/>
<path d="M392.231 91.6912L388.451 87.9112V76.6432L392.231 72.8632H400.835L404.147 76.1392V79.1272H400.979V77.1832L399.179 75.3832H393.599L391.619 77.3632V87.0472L393.599 89.0632H403.967V91.6912H392.231Z" fill="white"/>
<path d="M408.992 91.6912V65.1592H412.16V91.6912H408.992Z" fill="white"/>
<path d="M420.08 91.6912L416.336 87.9112V83.6272L420.08 79.8472H429.656V77.5072L427.712 75.5272H418.784V72.8632H429.08L432.824 76.6432V91.6912H429.656V88.7752L426.74 91.6912H420.08ZM421.484 89.1712H425.948L429.656 85.4992V82.3312L421.484 82.3672L419.504 84.3112V87.1912L421.484 89.1712Z" fill="white"/>
<path d="M458.904 91.6912L455.124 87.9112V76.6432L458.904 72.8632H467.292L471.072 76.6432V83.4472H458.292V87.0832L460.272 89.0632H470.748V91.6912H458.904ZM458.292 80.9272H467.904V77.3632L465.924 75.3832H460.272L458.292 77.3632V80.9272Z" fill="white"/>
<path d="M476.544 91.6912V89.0632H486.516L488.208 87.3352V85.0672L486.408 83.2672H478.956L475.644 80.0272V76.2112L478.956 72.8632H489.576V75.5272H480.468L478.812 77.1472V78.9832L480.54 80.7112H488.064L491.376 83.9512V88.3792L488.1 91.6912H476.544Z" fill="white"/>
<path d="M515.421 91.6912L511.677 87.9112V83.6272L515.421 79.8472H524.997V77.5072L523.053 75.5272H514.125V72.8632H524.421L528.165 76.6432V91.6912H524.997V88.7752L522.081 91.6912H515.421ZM516.825 89.1712H521.289L524.997 85.4992V82.3312L516.825 82.3672L514.845 84.3112V87.1912L516.825 89.1712Z" fill="white"/>
<path d="M533.9 91.6912V65.1592H537.068V91.6912H533.9Z" fill="white"/>
<path d="M546.463 91.6912L543.151 88.4152V75.3832H541.171V72.8632H543.223L544.015 68.0392H546.319V72.8632H550.315V75.3832H546.319V87.2992L548.011 89.0632H551.143V91.6912H546.463Z" fill="white"/>
<path d="M557.046 91.6912L553.302 87.9112V83.6272L557.046 79.8472H566.622V77.5072L564.678 75.5272H555.75V72.8632H566.046L569.79 76.6432V91.6912H566.622V88.7752L563.706 91.6912H557.046ZM558.45 89.1712H562.914L566.622 85.4992V82.3312L558.45 82.3672L556.47 84.3112V87.1912L558.45 89.1712Z" fill="white"/>
<path d="M575.525 91.6912V72.8632H578.693V76.2472L581.969 72.8632H588.917L592.229 76.2112L595.469 72.8632H602.417L606.197 76.6432V91.6912H603.029V77.4352L601.121 75.3832H596.297L592.661 79.0552V91.6912H589.493L589.529 77.4352L587.585 75.3832H582.797L578.693 79.5592V91.6912H575.525Z" fill="white"/>
<path d="M615.26 91.6912L611.48 87.9112V76.6432L615.26 72.8632H623.648L627.428 76.6432V83.4472H614.648V87.0832L616.628 89.0632H627.104V91.6912H615.26ZM614.648 80.9272H624.26V77.3632L622.28 75.3832H616.628L614.648 77.3632V80.9272Z" fill="white"/>
<path d="M632.9 91.6912V72.8632H636.068V76.2472L639.344 72.8632H646.292L650.036 76.6432V91.6912H646.868V77.4352L644.96 75.3832H640.172L636.068 79.5592V91.6912H632.9Z" fill="white"/>
<path d="M659.279 91.6912L655.968 88.4152V75.3832H653.987V72.8632H656.039L656.831 68.0392H659.135V72.8632H663.131V75.3832H659.135V87.2992L660.828 89.0632H663.959V91.6912H659.279Z" fill="white"/>
<path d="M671.158 91.6912L667.378 87.9112V76.6432L671.158 72.8632H679.546L683.326 76.6432V83.4472H670.546V87.0832L672.526 89.0632H683.002V91.6912H671.158ZM670.546 80.9272H680.158V77.3632L678.178 75.3832H672.526L670.546 77.3632V80.9272Z" fill="white"/>
<path d="M713.732 91.6912L709.952 87.9112V76.6432L713.732 72.8632H722.336L725.648 76.1392V79.1272H722.48V77.1832L720.68 75.3832H715.1L713.12 77.3632V87.0472L715.1 89.0632H725.468V91.6912H713.732Z" fill="white"/>
<path d="M733.842 91.6912L730.062 87.9112V76.6432L733.842 72.8632H742.77L746.55 76.6432V87.9112L742.77 91.6912H733.842ZM735.21 89.1712H741.402L743.382 87.1912L743.346 77.3632L741.402 75.3832H735.21L733.23 77.3632V87.1912L735.21 89.1712Z" fill="white"/>
<path d="M752.009 91.6912V72.8632H755.177V76.2472L758.453 72.8632H763.277V76.0312H758.597L755.177 79.5592V91.6912H752.009Z" fill="white"/>
<path d="M766.634 91.6912V72.8632H769.802V76.2472L773.078 72.8632H777.902V76.0312H773.222L769.802 79.5592V91.6912H766.634Z" fill="white"/>
<path d="M784.221 91.6912L780.441 87.9112V76.6432L784.221 72.8632H793.149L796.929 76.6432V87.9112L793.149 91.6912H784.221ZM785.589 89.1712H791.781L793.761 87.1912L793.725 77.3632L791.781 75.3832H785.589L783.609 77.3632V87.1912L785.589 89.1712Z" fill="white"/>
<path d="M802.212 91.6912V89.0632H812.184L813.876 87.3352V85.0672L812.076 83.2672H804.624L801.312 80.0272V76.2112L804.624 72.8632H815.244V75.5272H806.136L804.48 77.1472V78.9832L806.208 80.7112H813.732L817.044 83.9512V88.3792L813.768 91.6912H802.212Z" fill="white"/>
<path d="M822.041 70.8112V66.5632H825.209V70.8112H822.041ZM822.041 91.6912V72.8632H825.209V91.6912H822.041Z" fill="white"/>
<path d="M836.584 91.6912L828.592 72.8632H832.048L838.132 88.5232H838.96L845.008 72.8632H848.5L840.508 91.6912H836.584Z" fill="white"/>
<path d="M853.307 91.6912L849.563 87.9112V83.6272L853.307 79.8472H862.883V77.5072L860.939 75.5272H852.011V72.8632H862.307L866.051 76.6432V91.6912H862.883V88.7752L859.967 91.6912H853.307ZM854.711 89.1712H859.175L862.883 85.4992V82.3312L854.711 82.3672L852.731 84.3112V87.1912L854.711 89.1712Z" fill="white"/>
<path d="M891.987 98.4232L895.371 90.3952H894.039L886.299 72.8632H889.791L895.839 87.2632H896.667L902.247 72.8632H905.703L895.191 98.4232H891.987Z" fill="white"/>
<path d="M929.484 91.6912L925.704 87.9112V76.6432L929.484 72.8632H937.872L941.652 76.6432V83.4472H928.872V87.0832L930.852 89.0632H941.328V91.6912H929.484ZM928.872 80.9272H938.484V77.3632L936.504 75.3832H930.852L928.872 77.3632V80.9272Z" fill="white"/>
<path d="M947.124 91.6912V89.0632H957.096L958.788 87.3352V85.0672L956.988 83.2672H949.536L946.224 80.0272V76.2112L949.536 72.8632H960.156V75.5272H951.048L949.392 77.1472V78.9832L951.12 80.7112H958.644L961.956 83.9512V88.3792L958.68 91.6912H947.124Z" fill="white"/>
<path d="M111.3 131.691L107.52 127.911V116.643L111.3 112.863H119.904L123.216 116.139V119.127H120.048V117.183L118.248 115.383H112.668L110.688 117.363V127.047L112.668 129.063H123.036V131.691H111.3Z" fill="white"/>
<path d="M129.234 131.691L125.49 127.911V123.627L129.234 119.847H138.81V117.507L136.866 115.527H127.938V112.863H138.234L141.978 116.643V131.691H138.81V128.775L135.894 131.691H129.234ZM130.638 129.171H135.102L138.81 125.499V122.331L130.638 122.367L128.658 124.311V127.191L130.638 129.171Z" fill="white"/>
<path d="M147.714 138.423V112.863H150.882V115.851L153.762 112.863H160.71L164.454 116.643V127.911L160.71 131.691H153.762L150.882 128.739V138.423H147.714ZM154.59 129.171H159.342L161.286 127.191V117.363L159.342 115.383H154.59L150.882 119.163V125.427L154.59 129.171Z" fill="white"/>
<path d="M171.984 131.691L168.24 127.911V123.627L171.984 119.847H181.56V117.507L179.616 115.527H170.688V112.863H180.984L184.728 116.643V131.691H181.56V128.775L178.644 131.691H171.984ZM173.388 129.171H177.852L181.56 125.499V122.331L173.388 122.367L171.408 124.311V127.191L173.388 129.171Z" fill="white"/>
<path d="M189.42 131.691V128.451L201.156 115.527H190.248V112.863H204.72V116.103L192.984 129.063H205.008V131.691H189.42Z" fill="white"/>
<path d="M226.348 131.691L222.568 127.911V116.643L226.348 112.863H233.26L236.176 115.851V105.159H239.344V131.691H236.176V128.739L233.26 131.691H226.348ZM232.468 129.171L236.176 125.427V119.163L232.468 115.383H227.716L225.736 117.363V127.191L227.716 129.171H232.468Z" fill="white"/>
<path d="M248.567 131.691L244.787 127.911V116.643L248.567 112.863H256.955L260.735 116.643V123.447H247.955V127.083L249.935 129.063H260.411V131.691H248.567ZM247.955 120.927H257.567V117.363L255.587 115.383H249.935L247.955 117.363V120.927Z" fill="white"/>
<path d="M279.126 131.691V112.863H282.294V116.247L285.57 112.863H290.394V116.031H285.714L282.294 119.559V131.691H279.126Z" fill="white"/>
<path d="M296.713 131.691L292.933 127.911V116.643L296.713 112.863H305.101L308.881 116.643V123.447H296.101V127.083L298.081 129.063H308.557V131.691H296.713ZM296.101 120.927H305.713V117.363L303.733 115.383H298.081L296.101 117.363V120.927Z" fill="white"/>
<path d="M315.526 131.691L311.782 127.911V123.627L315.526 119.847H325.102V117.507L323.158 115.527H314.23V112.863H324.526L328.27 116.643V131.691H325.102V128.775L322.186 131.691H315.526ZM316.93 129.171H321.394L325.102 125.499V122.331L316.93 122.367L314.95 124.311V127.191L316.93 129.171Z" fill="white"/>
<path d="M337.353 131.691L333.573 127.911V116.643L337.353 112.863H345.957L349.269 116.139V119.127H346.101V117.183L344.301 115.383H338.721L336.741 117.363V127.047L338.721 129.063H349.089V131.691H337.353Z" fill="white"/>
<path d="M357.463 131.691L353.683 127.911V116.643L357.463 112.863H366.067L369.379 116.139V119.127H366.211V117.183L364.411 115.383H358.831L356.851 117.363V127.047L358.831 129.063H369.199V131.691H357.463Z" fill="white"/>
<path d="M374.224 110.811V106.563H377.392V110.811H374.224ZM374.224 131.691V112.863H377.392V131.691H374.224Z" fill="white"/>
<path d="M386.607 131.691L382.827 127.911V116.643L386.607 112.863H395.535L399.315 116.643V127.911L395.535 131.691H386.607ZM387.975 129.171H394.167L396.147 127.191L396.111 117.363L394.167 115.383H387.975L385.995 117.363V127.191L387.975 129.171Z" fill="white"/>
<path d="M404.775 131.691V112.863H407.943V116.247L411.219 112.863H418.167L421.911 116.643V131.691H418.743V117.435L416.835 115.383H412.047L407.943 119.559V131.691H404.775Z" fill="white"/>
<path d="M429.678 131.691L425.934 127.911V123.627L429.678 119.847H439.254V117.507L437.31 115.527H428.382V112.863H438.678L442.422 116.643V131.691H439.254V128.775L436.338 131.691H429.678ZM431.082 129.171H435.546L439.254 125.499V122.331L431.082 122.367L429.102 124.311V127.191L431.082 129.171Z" fill="white"/>
<path d="M448.158 131.691V112.863H451.326V116.247L454.602 112.863H459.426V116.031H454.746L451.326 119.559V131.691H448.158Z" fill="white"/>
<path d="M479.05 131.691L475.27 127.911V116.643L479.05 112.863H487.654L490.966 116.139V119.127H487.798V117.183L485.998 115.383H480.418L478.438 117.363V127.047L480.418 129.063H490.786V131.691H479.05Z" fill="white"/>
<path d="M499.159 131.691L495.379 127.911V116.643L499.159 112.863H508.087L511.867 116.643V127.911L508.087 131.691H499.159ZM500.527 129.171H506.719L508.699 127.191L508.663 117.363L506.719 115.383H500.527L498.547 117.363V127.191L500.527 129.171Z" fill="white"/>
<path d="M517.327 131.691V112.863H520.495V116.247L523.771 112.863H530.719L534.463 116.643V131.691H531.295V117.435L529.387 115.383H524.599L520.495 119.559V131.691H517.327Z" fill="white"/>
<path d="M556.445 131.691L552.665 127.911V116.643L556.445 112.863H564.833L568.613 116.643V123.447H555.833V127.083L557.813 129.063H568.289V131.691H556.445ZM555.833 120.927H565.445V117.363L563.465 115.383H557.813L555.833 117.363V120.927Z" fill="white"/>
<path d="M574.086 131.691V105.159H577.254V131.691H574.086Z" fill="white"/>
<path d="M599.388 131.691L595.608 127.911V116.643L599.388 112.863H608.316L612.096 116.643V127.911L608.316 131.691H599.388ZM600.756 129.171H606.948L608.928 127.191L608.892 117.363L606.948 115.383H600.756L598.776 117.363V127.191L600.756 129.171Z" fill="white"/>
<path d="M617.556 131.691V112.863H620.724V116.247L624 112.863H628.823V116.031H624.143L620.724 119.559V131.691H617.556Z" fill="white"/>
<path d="M635.142 131.691L631.362 127.911V116.643L635.142 112.863H644.07L647.85 116.643V127.911L644.07 131.691H635.142ZM636.51 129.171H642.702L644.682 127.191L644.646 117.363L642.702 115.383H636.51L634.53 117.363V127.191L636.51 129.171Z" fill="white"/>
<path d="M669.433 138.423L672.817 130.395H671.485L663.745 112.863H667.237L673.285 127.263H674.113L679.693 112.863H683.149L672.637 138.423H669.433Z" fill="white"/>
<path d="M702.851 131.691L699.071 127.911V116.643L702.851 112.863H711.239L715.019 116.643V123.447H702.239V127.083L704.219 129.063H714.695V131.691H702.851ZM702.239 120.927H711.851V117.363L709.871 115.383H704.219L702.239 117.363V120.927Z" fill="white"/>
<path d="M720.491 131.691V105.159H723.659V131.691H720.491Z" fill="white"/>
<path d="M742.446 138.423V112.863H745.614V115.851L748.494 112.863H755.442L759.186 116.643V127.911L755.442 131.691H748.494L745.614 128.739V138.423H742.446ZM749.322 129.171H754.074L756.018 127.191V117.363L754.074 115.383H749.322L745.614 119.163V125.427L749.322 129.171Z" fill="white"/>
<path d="M764.665 131.691V105.159H767.833V131.691H764.665Z" fill="white"/>
<path d="M775.752 131.691L772.008 127.911V123.627L775.752 119.847H785.328V117.507L783.384 115.527H774.456V112.863H784.752L788.496 116.643V131.691H785.328V128.775L782.412 131.691H775.752ZM777.156 129.171H781.62L785.328 125.499V122.331L777.156 122.367L775.176 124.311V127.191L777.156 129.171Z" fill="white"/>
<path d="M797.759 131.691L794.447 128.415V115.383H792.467V112.863H794.519L795.311 108.039H797.615V112.863H801.611V115.383H797.615V127.299L799.307 129.063H802.439V131.691H797.759Z" fill="white"/>
<path d="M806.29 110.811V106.563H809.458V110.811H806.29ZM806.29 131.691V112.863H809.458V131.691H806.29Z" fill="white"/>
<path d="M815.325 131.691V112.863H818.493V116.247L821.769 112.863H828.717L832.461 116.643V131.691H829.293V117.435L827.385 115.383H822.597L818.493 119.559V131.691H815.325Z" fill="white"/>
<path d="M841.524 131.691L837.744 127.911V116.643L841.524 112.863H850.452L854.232 116.643V127.911L850.452 131.691H841.524ZM842.892 129.171H849.084L851.064 127.191L851.028 117.363L849.084 115.383H842.892L840.912 117.363V127.191L842.892 129.171Z" fill="white"/>
<path d="M859.008 131.691V127.443H862.176V131.691H859.008Z" fill="white"/>
<path d="M880.878 131.691V128.667H893.946L895.89 126.687V121.395L893.946 119.415H883.686L879.942 115.671V108.939L883.686 105.159H897.798V108.183H885.162L883.182 110.163L883.218 114.555L885.162 116.535H895.422L899.166 120.315V127.911L895.422 131.691H880.878Z" fill="white"/>
<path d="M904.357 110.811V106.563H907.525V110.811H904.357ZM904.357 131.691V112.863H907.525V131.691H904.357Z" fill="white"/>
<path d="M926.311 131.691V129.063H936.283L937.975 127.335V125.067L936.175 123.267H928.723L925.411 120.027V116.211L928.723 112.863H939.343V115.527H930.235L928.579 117.147V118.983L930.307 120.711H937.831L941.143 123.951V128.379L937.867 131.691H926.311Z" fill="white"/>
<path d="M949.312 131.691L945.532 127.911V116.643L949.312 112.863H957.7L961.48 116.643V123.447H948.7V127.083L950.68 129.063H961.156V131.691H949.312ZM948.7 120.927H958.312V117.363L956.332 115.383H950.68L948.7 117.363V120.927Z" fill="white"/>
<path d="M111.48 171.691L108.168 168.415V155.383H106.188V152.863H108.24L109.032 148.039H111.336V152.863H115.332V155.383H111.336V167.299L113.028 169.063H116.16V171.691H111.48Z" fill="white"/>
<path d="M120.011 150.811V146.563H123.179V150.811H120.011ZM120.011 171.691V152.863H123.179V171.691H120.011Z" fill="white"/>
<path d="M132.394 171.691L128.614 167.911V156.643L132.394 152.863H140.782L144.562 156.643V163.447H131.782V167.083L133.762 169.063H144.238V171.691H132.394ZM131.782 160.927H141.394V157.363L139.414 155.383H133.762L131.782 157.363V160.927Z" fill="white"/>
<path d="M150.034 171.691V152.863H153.202V156.247L156.478 152.863H163.426L167.17 156.643V171.691H164.002V157.435L162.094 155.383H157.306L153.202 159.559V171.691H150.034Z" fill="white"/>
<path d="M176.234 171.691L172.454 167.911V156.643L176.234 152.863H184.622L188.402 156.643V163.447H175.622V167.083L177.602 169.063H188.078V171.691H176.234ZM175.622 160.927H185.234V157.363L183.254 155.383H177.602L175.622 157.363V160.927Z" fill="white"/>
<path d="M214.348 171.691L210.712 168.019L212.836 165.895L215.752 168.775H224.032L226.012 166.795V160.027L224.032 158.047H211.936V145.159H228.136V148.183H215.212V155.131H225.508L229.288 158.911V167.911L225.508 171.691H214.348Z" fill="white"/>
<path d="M237.955 171.691L234.175 167.911V148.939L237.955 145.159H249.475L253.255 148.939V167.911L249.475 171.691H237.955ZM239.431 168.775H247.999L249.979 166.795V150.055L247.999 148.075H239.431L237.451 150.055L237.487 166.795L239.431 168.775Z" fill="white"/>
<path d="M261.932 171.691L258.152 167.911V148.939L261.932 145.159H273.452L277.232 148.939V167.911L273.452 171.691H261.932ZM263.408 168.775H271.976L273.956 166.795V150.055L271.976 148.075H263.408L261.428 150.055L261.464 166.795L263.408 168.775Z" fill="white"/>
<path d="M300.586 171.691V152.863H303.754V156.247L307.03 152.863H313.978L317.29 156.211L320.53 152.863H327.478L331.258 156.643V171.691H328.09V157.435L326.182 155.383H321.358L317.722 159.055V171.691H314.554L314.59 157.435L312.646 155.383H307.858L303.754 159.559V171.691H300.586Z" fill="white"/>
<path d="M337.153 171.691V145.159H340.429V168.667H353.785V171.691H337.153Z" fill="white"/>
<path d="M378.384 171.691L374.604 167.911V156.643L378.384 152.863H385.296L388.212 155.851V145.159H391.38V171.691H388.212V168.739L385.296 171.691H378.384ZM384.504 169.171L388.212 165.427V159.163L384.504 155.383H379.752L377.772 157.363V167.191L379.752 169.171H384.504Z" fill="white"/>
<path d="M400.602 171.691L396.822 167.911V156.643L400.602 152.863H408.99L412.77 156.643V163.447H399.99V167.083L401.97 169.063H412.447V171.691H400.602ZM399.99 160.927H409.602V157.363L407.622 155.383H401.97L399.99 157.363V160.927Z" fill="white"/>
<path d="M441.881 171.691L438.137 167.911V163.627L441.881 159.847H451.457V157.507L449.513 155.527H440.585V152.863H450.881L454.625 156.643V171.691H451.457V168.775L448.541 171.691H441.881ZM443.285 169.171H447.749L451.457 165.499V162.331L443.285 162.367L441.305 164.311V167.191L443.285 169.171Z" fill="white"/>
<path d="M461.404 178.423V175.795L471.556 175.759L473.536 173.815V168.739L470.62 171.691H463.708L459.928 167.911V156.643L463.708 152.863H470.62L473.536 155.851V152.863H476.704V174.643L472.924 178.423H461.404ZM469.828 169.171L473.536 165.427V159.163L469.828 155.383H465.076L463.096 157.363V167.191L465.076 169.171H469.828Z" fill="white"/>
<path d="M486.143 171.691L482.399 167.911V152.863H485.567L485.531 167.155L487.475 169.171H492.155L495.863 165.463V152.863H499.031V171.691H495.863V168.775L492.983 171.691H486.143Z" fill="white"/>
<path d="M506.955 171.691L503.211 167.911V163.627L506.955 159.847H516.531V157.507L514.587 155.527H505.659V152.863H515.955L519.699 156.643V171.691H516.531V168.775L513.615 171.691H506.955ZM508.359 169.171H512.823L516.531 165.499V162.331L508.359 162.367L506.379 164.311V167.191L508.359 169.171Z" fill="white"/>
<path d="M543.388 171.691V152.863H546.556V156.247L549.832 152.863H554.656V156.031H549.976L546.556 159.559V171.691H543.388Z" fill="white"/>
<path d="M560.974 171.691L557.194 167.911V156.643L560.974 152.863H569.362L573.142 156.643V163.447H560.362V167.083L562.342 169.063H572.818V171.691H560.974ZM560.362 160.927H569.974V157.363L567.994 155.383H562.342L560.362 157.363V160.927Z" fill="white"/>
<path d="M579.658 178.423V175.795L589.81 175.759L591.79 173.815V168.739L588.874 171.691H581.962L578.182 167.911V156.643L581.962 152.863H588.874L591.79 155.851V152.863H594.958V174.643L591.178 178.423H579.658ZM588.082 169.171L591.79 165.427V159.163L588.082 155.383H583.33L581.35 157.363V167.191L583.33 169.171H588.082Z" fill="white"/>
<path d="M600.833 150.811V146.563H604.001V150.811H600.833ZM600.833 171.691V152.863H604.001V171.691H600.833Z" fill="white"/>
<path d="M611.78 171.691L608.036 167.911V163.627L611.78 159.847H621.356V157.507L619.412 155.527H610.484V152.863H620.78L624.524 156.643V171.691H621.356V168.775L618.44 171.691H611.78ZM613.184 169.171H617.648L621.356 165.499V162.331L613.184 162.367L611.204 164.311V167.191L613.184 169.171Z" fill="white"/>
<path d="M651.561 171.691L647.781 167.911V156.643L651.561 152.863H660.165L663.477 156.139V159.127H660.309V157.183L658.509 155.383H652.929L650.949 157.363V167.047L652.929 169.063H663.297V171.691H651.561Z" fill="white"/>
<path d="M671.886 171.691L668.142 167.911V152.863H671.31L671.274 167.155L673.218 169.171H677.898L681.606 165.463V152.863H684.774V171.691H681.606V168.775L678.726 171.691H671.886Z" fill="white"/>
<path d="M693.85 178.423L697.234 170.395H695.902L688.162 152.863H691.654L697.702 167.263H698.53L704.11 152.863H707.566L697.054 178.423H693.85Z" fill="white"/>
<path d="M711.858 171.691L708.114 167.911V163.627L711.858 159.847H721.434V157.507L719.49 155.527H710.562V152.863H720.858L724.602 156.643V171.691H721.434V168.775L718.518 171.691H711.858ZM713.262 169.171H717.726L721.434 165.499V162.331L713.262 162.367L711.282 164.311V167.191L713.262 169.171Z" fill="white"/>
<path d="M751.639 171.691L747.859 167.911V156.643L751.639 152.863H758.551L761.467 155.851V145.159H764.635V171.691H761.467V168.739L758.551 171.691H751.639ZM757.759 169.171L761.467 165.427V159.163L757.759 155.383H753.007L751.027 157.363V167.191L753.007 169.171H757.759Z" fill="white"/>
<path d="M773.858 171.691L770.078 167.911V156.643L773.858 152.863H782.246L786.026 156.643V163.447H773.246V167.083L775.226 169.063H785.702V171.691H773.858ZM773.246 160.927H782.858V157.363L780.878 155.383H775.226L773.246 157.363V160.927Z" fill="white"/>
<path d="M791.498 171.691V152.863H794.666V156.247L797.942 152.863H804.89L808.634 156.643V171.691H805.466V157.435L803.558 155.383H798.77L794.666 159.559V171.691H791.498Z" fill="white"/>
<path d="M814.35 171.691V169.063H824.322L826.014 167.335V165.067L824.214 163.267H816.762L813.45 160.027V156.211L816.762 152.863H827.382V155.527H818.274L816.618 157.147V158.983L818.346 160.711H825.87L829.182 163.951V168.379L825.906 171.691H814.35Z" fill="white"/>
<path d="M834.178 150.811V146.563H837.346V150.811H834.178ZM834.178 171.691V152.863H837.346V171.691H834.178Z" fill="white"/>
<path d="M846.561 171.691L842.781 167.911V156.643L846.561 152.863H853.473L856.389 155.851V145.159H859.557V171.691H856.389V168.739L853.473 171.691H846.561ZM852.681 169.171L856.389 165.427V159.163L852.681 155.383H847.929L845.949 157.363V167.191L847.929 169.171H852.681Z" fill="white"/>
<path d="M867.484 171.691L863.74 167.911V163.627L867.484 159.847H877.06V157.507L875.116 155.527H866.188V152.863H876.484L880.228 156.643V171.691H877.06V168.775L874.144 171.691H867.484ZM868.888 169.171H873.352L877.06 165.499V162.331L868.888 162.367L866.908 164.311V167.191L868.888 169.171Z" fill="white"/>
<path d="M889.311 171.691L885.531 167.911V156.643L889.311 152.863H896.223L899.139 155.851V145.159H902.307V171.691H899.139V168.739L896.223 171.691H889.311ZM895.431 169.171L899.139 165.427V159.163L895.431 155.383H890.679L888.699 157.363V167.191L890.679 169.171H895.431Z" fill="white"/>
<path d="M929.484 171.691L925.704 167.911V156.643L929.484 152.863H937.872L941.652 156.643V163.447H928.872V167.083L930.852 169.063H941.328V171.691H929.484ZM928.872 160.927H938.484V157.363L936.504 155.383H930.852L928.872 157.363V160.927Z" fill="white"/>
<path d="M947.124 171.691V169.063H957.096L958.788 167.335V165.067L956.988 163.267H949.536L946.224 160.027V156.211L949.536 152.863H960.156V155.527H951.048L949.392 157.147V158.983L951.12 160.711H958.644L961.956 163.951V168.379L958.68 171.691H947.124Z" fill="white"/>
<path d="M107.052 211.691V208.667H111.12V188.183H107.484V185.159H114.396V208.667H118.464V211.691H107.052Z" fill="white"/>
<path d="M121.086 215.651L122.526 207.443H125.694L122.922 215.651H121.086Z" fill="white"/>
<path d="M130.757 211.691V207.443L144.941 193.511V190.055L142.997 188.039L135.653 188.075L132.737 191.027L130.613 188.867L134.249 185.159H144.473L148.217 188.939V194.807L134.429 208.451V208.667H148.613V211.691H130.757Z" fill="white"/>
<path d="M156.597 211.691L152.961 208.019L155.085 205.895L158.001 208.775H166.281L168.261 206.795V200.027L166.281 198.047H154.185V185.159H170.385V188.183H157.461V195.131H167.757L171.537 198.911V207.911L167.757 211.691H156.597Z" fill="white"/>
<path d="M199.467 218.423V215.795L209.619 215.759L211.599 213.815V208.739L208.683 211.691H201.771L197.991 207.911V196.643L201.771 192.863H208.683L211.599 195.851V192.863H214.767V214.643L210.987 218.423H199.467ZM207.891 209.171L211.599 205.427V199.163L207.891 195.383H203.139L201.159 197.363V207.191L203.139 209.171H207.891Z" fill="white"/>
<path d="M218.157 215.615L229.281 185.159H232.593L221.469 215.615H218.157Z" fill="white"/>
<path d="M236.005 211.691V192.863H239.173V196.247L242.449 192.863H249.397L252.709 196.211L255.949 192.863H262.897L266.677 196.643V211.691H263.509V197.435L261.601 195.383H256.777L253.141 199.055V211.691H249.973L250.009 197.435L248.065 195.383H243.277L239.173 199.559V211.691H236.005Z" fill="white"/>
<path d="M272.571 211.691V185.159H275.847V208.667H289.203V211.691H272.571Z" fill="white"/>
<path d="M290.377 215.651L291.817 207.443H294.985L292.213 215.651H290.377Z" fill="white"/>
<path d="M322.045 211.691V185.159H325.213V211.691H322.045Z" fill="white"/>
<path d="M333.132 211.691L329.388 207.911V203.627L333.132 199.847H342.708V197.507L340.764 195.527H331.837V192.863H342.132L345.876 196.643V211.691H342.708V208.775L339.792 211.691H333.132ZM334.536 209.171H339L342.708 205.499V202.331L334.536 202.367L332.556 204.311V207.191L334.536 209.171Z" fill="white"/>
<path d="M376.454 211.691L372.674 207.911V196.643L376.454 192.863H385.058L388.37 196.139V199.127H385.202V197.183L383.402 195.383H377.822L375.842 197.363V207.047L377.822 209.063H388.19V211.691H376.454Z" fill="white"/>
<path d="M396.779 211.691L393.035 207.911V192.863H396.203L396.167 207.155L398.111 209.171H402.791L406.499 205.463V192.863H409.667V211.691H406.499V208.775L403.619 211.691H396.779Z" fill="white"/>
<path d="M417.591 211.691L413.847 207.911V203.627L417.591 199.847H427.167V197.507L425.223 195.527H416.295V192.863H426.591L430.335 196.643V211.691H427.167V208.775L424.251 211.691H417.591ZM418.995 209.171H423.459L427.167 205.499V202.331L418.995 202.367L417.015 204.311V207.191L418.995 209.171Z" fill="white"/>
<path d="M436.071 211.691V185.159H439.239V211.691H436.071Z" fill="white"/>
<path d="M469.948 211.691L466.168 207.911V196.643L469.948 192.863H478.552L481.864 196.139V199.127H478.696V197.183L476.896 195.383H471.316L469.336 197.363V207.047L471.316 209.063H481.684V211.691H469.948Z" fill="white"/>
<path d="M490.057 211.691L486.277 207.911V196.643L490.057 192.863H498.985L502.765 196.643V207.911L498.985 211.691H490.057ZM491.425 209.171H497.617L499.597 207.191L499.561 197.363L497.617 195.383H491.425L489.445 197.363V207.191L491.425 209.171Z" fill="white"/>
<path d="M508.225 211.691V192.863H511.393V196.247L514.669 192.863H521.617L525.361 196.643V211.691H522.193V197.435L520.285 195.383H515.497L511.393 199.559V211.691H508.225Z" fill="white"/>
<path d="M534.604 211.691L531.292 208.415V195.383H529.312V192.863H531.364L532.156 188.039H534.46V192.863H538.456V195.383H534.46V207.299L536.152 209.063H539.284V211.691H534.604Z" fill="white"/>
<path d="M543.135 190.811V186.563H546.303V190.811H543.135ZM543.135 211.691V192.863H546.303V211.691H543.135Z" fill="white"/>
<path d="M555.518 211.691L551.738 207.911V196.643L555.518 192.863H563.906L567.686 196.643V203.447H554.906V207.083L556.886 209.063H567.362V211.691H555.518ZM554.906 200.927H564.518V197.363L562.538 195.383H556.886L554.906 197.363V200.927Z" fill="white"/>
<path d="M573.158 211.691V192.863H576.326V196.247L579.602 192.863H586.55L590.294 196.643V211.691H587.126V197.435L585.218 195.383H580.43L576.326 199.559V211.691H573.158Z" fill="white"/>
<path d="M599.358 211.691L595.578 207.911V196.643L599.358 192.863H607.746L611.526 196.643V203.447H598.746V207.083L600.726 209.063H611.202V211.691H599.358ZM598.746 200.927H608.358V197.363L606.378 195.383H600.726L598.746 197.363V200.927Z" fill="white"/>
<path d="M638.672 211.691V185.159H641.948V196.283H655.088V185.159H658.364V211.691H655.088V199.199H641.948V211.691H638.672Z" fill="white"/>
<path d="M664.582 211.691V185.159H669.046L680.89 206.507V185.159H684.166V211.691H680.278L668.65 190.739H667.858V211.691H664.582Z" fill="white"/>
<path d="M693.518 211.691L689.738 207.911V188.939L693.518 185.159H706.046L709.826 188.939V207.911L706.046 211.691H693.518ZM694.994 208.775H704.57L706.55 206.795V190.055L704.57 188.075H694.994L693.014 190.055V206.795L694.994 208.775Z" fill="white"/>
<path d="M715.934 211.691L713.51 209.243L714.926 207.827L716.87 209.747H722.606L723.926 208.427V204.755L722.582 203.363H717.374V201.443H722.582L723.926 200.051V197.267L722.606 195.923L717.278 195.947L715.334 197.867L713.918 196.451L716.342 194.003H723.59L726.11 196.523V200.627L724.358 202.403L726.11 204.203V209.171L723.59 211.691H715.934Z" fill="white"/>
<path d="M754.229 211.691L750.485 207.911V203.627L754.229 199.847H763.805V197.507L761.861 195.527H752.933V192.863H763.229L766.973 196.643V211.691H763.805V208.775L760.889 211.691H754.229ZM755.633 209.171H760.097L763.805 205.499V202.331L755.633 202.367L753.653 204.311V207.191L755.633 209.171Z" fill="white"/>
<path d="M772.709 211.691V185.159H775.877V211.691H772.709Z" fill="white"/>
<path d="M802.734 211.691V207.443L816.918 193.511V190.055L814.974 188.039L807.63 188.075L804.714 191.027L802.59 188.867L806.226 185.159H816.45L820.194 188.939V194.807L806.406 208.451V208.667H820.59V211.691H802.734Z" fill="white"/>
<path d="M828.574 211.691L824.938 208.019L827.062 205.895L829.978 208.775H838.258L840.238 206.795V200.027L838.258 198.047H826.162V185.159H842.362V188.183H829.438V195.131H839.734L843.514 198.911V207.911L839.734 211.691H828.574Z" fill="white"/>
<path d="M872.236 212.411L870.364 210.647L893.872 184.439L895.708 186.203L872.236 212.411ZM873.495 197.327L869.716 193.511V188.975L873.495 185.159H878.68L882.46 188.975V193.511L878.68 197.327H873.495ZM874.971 194.699H877.203L879.292 192.611V189.875L877.203 187.787H874.971L872.883 189.875V192.611L874.971 194.699ZM887.392 211.691L883.648 207.875V203.339L887.392 199.523H892.612L896.356 203.339V207.875L892.612 211.691H887.392ZM888.867 209.063H891.135L893.188 206.975V204.239L891.135 202.151H888.867L886.815 204.239V206.975L888.867 209.063Z" fill="white"/>
<path d="M926.46 211.691L922.68 207.911V196.643L926.46 192.863H934.848L938.628 196.643V203.447H925.848V207.083L927.828 209.063H938.304V211.691H926.46ZM925.848 200.927H935.46V197.363L933.48 195.383H927.828L925.848 197.363V200.927Z" fill="white"/>
<path d="M944.1 211.691V192.863H947.268V196.247L950.544 192.863H957.492L961.236 196.643V211.691H958.068V197.435L956.16 195.383H951.372L947.268 199.559V211.691H944.1Z" fill="white"/>
<path d="M113.46 251.691L105.468 232.863H108.924L115.008 248.523H115.836L121.884 232.863H125.376L117.384 251.691H113.46Z" fill="white"/>
<path d="M131.304 251.691L127.524 247.911V236.643L131.304 232.863H140.232L144.012 236.643V247.911L140.232 251.691H131.304ZM132.672 249.171H138.864L140.844 247.191L140.808 237.363L138.864 235.383H132.672L130.692 237.363V247.191L132.672 249.171Z" fill="white"/>
<path d="M149.472 251.691V225.159H152.64V251.691H149.472Z" fill="white"/>
<path d="M162.071 251.691L158.327 247.911V232.863H161.495L161.459 247.155L163.403 249.171H168.083L171.791 245.463V232.863H174.959V251.691H171.791V248.775L168.911 251.691H162.071Z" fill="white"/>
<path d="M180.831 251.691V232.863H183.999V236.247L187.275 232.863H194.223L197.535 236.211L200.775 232.863H207.723L211.503 236.643V251.691H208.335V237.435L206.427 235.383H201.603L197.967 239.055V251.691H194.799L194.835 237.435L192.891 235.383H188.103L183.999 239.559V251.691H180.831Z" fill="white"/>
<path d="M220.566 251.691L216.786 247.911V236.643L220.566 232.863H228.954L232.734 236.643V243.447H219.954V247.083L221.934 249.063H232.41V251.691H220.566ZM219.954 240.927H229.566V237.363L227.586 235.383H221.934L219.954 237.363V240.927Z" fill="white"/>
<path d="M238.206 251.691V232.863H241.374V236.247L244.65 232.863H251.598L255.342 236.643V251.691H252.174V237.435L250.266 235.383H245.478L241.374 239.559V251.691H238.206Z" fill="white"/>
<path d="M258.933 255.651L260.373 247.443H263.541L260.769 255.651H258.933Z" fill="white"/>
<path d="M294.042 251.691L290.262 247.911V236.643L294.042 232.863H300.954L303.87 235.851V225.159H307.038V251.691H303.87V248.739L300.954 251.691H294.042ZM300.162 249.171L303.87 245.427V239.163L300.162 235.383H295.41L293.43 237.363V247.191L295.41 249.171H300.162Z" fill="white"/>
<path d="M316.261 251.691L312.481 247.911V236.643L316.261 232.863H324.649L328.429 236.643V243.447H315.649V247.083L317.629 249.063H328.105V251.691H316.261ZM315.649 240.927H325.261V237.363L323.281 235.383H317.629L315.649 237.363V240.927Z" fill="white"/>
<path d="M337.429 251.691L334.117 248.415V235.383H332.137V232.863H334.189L334.981 228.039H337.285V232.863H341.281V235.383H337.285V247.299L338.977 249.063H342.109V251.691H337.429Z" fill="white"/>
<path d="M349.308 251.691L345.528 247.911V236.643L349.308 232.863H357.696L361.476 236.643V243.447H348.696V247.083L350.676 249.063H361.152V251.691H349.308ZM348.696 240.927H358.308V237.363L356.328 235.383H350.676L348.696 237.363V240.927Z" fill="white"/>
<path d="M366.948 251.691V232.863H370.116V236.247L373.392 232.863H378.216V236.031H373.536L370.116 239.559V251.691H366.948Z" fill="white"/>
<path d="M381.573 251.691V232.863H384.741V236.247L388.017 232.863H394.965L398.277 236.211L401.517 232.863H408.465L412.245 236.643V251.691H409.077V237.435L407.169 235.383H402.345L398.709 239.055V251.691H395.541L395.577 237.435L393.633 235.383H388.845L384.741 239.559V251.691H381.573Z" fill="white"/>
<path d="M417.96 230.811V226.563H421.128V230.811H417.96ZM417.96 251.691V232.863H421.128V251.691H417.96Z" fill="white"/>
<path d="M426.995 251.691V232.863H430.163V236.247L433.439 232.863H440.387L444.131 236.643V251.691H440.963V237.435L439.055 235.383H434.267L430.163 239.559V251.691H426.995Z" fill="white"/>
<path d="M453.195 251.691L449.415 247.911V236.643L453.195 232.863H461.583L465.363 236.643V243.447H452.583V247.083L454.563 249.063H465.039V251.691H453.195ZM452.583 240.927H462.195V237.363L460.215 235.383H454.563L452.583 237.363V240.927Z" fill="white"/>
<path d="M491.802 251.691L488.022 247.911V236.643L491.802 232.863H500.19L503.97 236.643V243.447H491.19V247.083L493.17 249.063H503.646V251.691H491.802ZM491.19 240.927H500.802V237.363L498.822 235.383H493.17L491.19 237.363V240.927Z" fill="white"/>
<path d="M509.442 251.691V225.159H512.61V251.691H509.442Z" fill="white"/>
<path d="M536.096 258.423V232.863H539.264V235.851L542.144 232.863H549.092L552.836 236.643V247.911L549.092 251.691H542.144L539.264 248.739V258.423H536.096ZM542.972 249.171H547.724L549.668 247.191V237.363L547.724 235.383H542.972L539.264 239.163V245.427L542.972 249.171Z" fill="white"/>
<path d="M561.487 251.691L557.707 247.911V236.643L561.487 232.863H570.415L574.195 236.643V247.911L570.415 251.691H561.487ZM562.855 249.171H569.047L571.027 247.191L570.991 237.363L569.047 235.383H562.855L560.875 237.363V247.191L562.855 249.171Z" fill="white"/>
<path d="M579.654 251.691V232.863H582.822V236.247L586.098 232.863H590.922V236.031H586.242L582.822 239.559V251.691H579.654Z" fill="white"/>
<path d="M597.241 251.691L593.461 247.911V236.643L597.241 232.863H605.845L609.157 236.139V239.127H605.989V237.183L604.189 235.383H598.609L596.629 237.363V247.047L598.609 249.063H608.977V251.691H597.241Z" fill="white"/>
<path d="M617.35 251.691L613.57 247.911V236.643L617.35 232.863H625.738L629.518 236.643V243.447H616.738V247.083L618.718 249.063H629.194V251.691H617.35ZM616.738 240.927H626.35V237.363L624.37 235.383H618.718L616.738 237.363V240.927Z" fill="white"/>
<path d="M634.99 251.691V232.863H638.158V236.247L641.434 232.863H648.382L652.126 236.643V251.691H648.958V237.435L647.05 235.383H642.262L638.158 239.559V251.691H634.99Z" fill="white"/>
<path d="M661.37 251.691L658.058 248.415V235.383H656.078V232.863H658.13L658.922 228.039H661.226V232.863H665.222V235.383H661.226V247.299L662.918 249.063H666.05V251.691H661.37Z" fill="white"/>
<path d="M671.952 251.691L668.208 247.911V243.627L671.952 239.847H681.528V237.507L679.584 235.527H670.656V232.863H680.952L684.696 236.643V251.691H681.528V248.775L678.612 251.691H671.952ZM673.356 249.171H677.82L681.528 245.499V242.331L673.356 242.367L671.376 244.311V247.191L673.356 249.171Z" fill="white"/>
<path d="M690.864 230.811V226.563H694.032V230.811H690.864ZM686.04 258.423V255.795H689.172L690.864 254.031V232.863H694.032V255.147L690.684 258.423H686.04Z" fill="white"/>
<path d="M703.096 251.691L699.316 247.911V236.643L703.096 232.863H711.484L715.264 236.643V243.447H702.484V247.083L704.464 249.063H714.94V251.691H703.096ZM702.484 240.927H712.096V237.363L710.116 235.383H704.464L702.484 237.363V240.927Z" fill="white"/>
<path d="M741.703 251.691L737.923 247.911V236.643L741.703 232.863H750.091L753.871 236.643V243.447H741.091V247.083L743.071 249.063H753.547V251.691H741.703ZM741.091 240.927H750.703V237.363L748.723 235.383H743.071L741.091 237.363V240.927Z" fill="white"/>
<path d="M759.343 251.691V232.863H762.511V236.247L765.787 232.863H772.735L776.479 236.643V251.691H773.311V237.435L771.403 235.383H766.615L762.511 239.559V251.691H759.343Z" fill="white"/>
<path d="M799.814 251.691V232.863H802.982V236.247L806.258 232.863H813.206L816.518 236.211L819.758 232.863H826.706L830.486 236.643V251.691H827.318V237.435L825.41 235.383H820.586L816.95 239.055V251.691H813.782L813.818 237.435L811.874 235.383H807.086L802.982 239.559V251.691H799.814Z" fill="white"/>
<path d="M838.252 251.691L834.508 247.911V243.627L838.252 239.847H847.828V237.507L845.884 235.527H836.956V232.863H847.252L850.996 236.643V251.691H847.828V248.775L844.912 251.691H838.252ZM839.656 249.171H844.12L847.828 245.499V242.331L839.656 242.367L837.676 244.311V247.191L839.656 249.171Z" fill="white"/>
<path d="M856.732 251.691V249.063H866.704L868.396 247.335V245.067L866.596 243.267H859.144L855.832 240.027V236.211L859.144 232.863H869.764V235.527H860.656L859 237.147V238.983L860.728 240.711H868.252L871.564 243.951V248.379L868.288 251.691H856.732Z" fill="white"/>
<path d="M878.612 251.691L874.868 247.911V243.627L878.612 239.847H888.188V237.507L886.244 235.527H877.316V232.863H887.612L891.356 236.643V251.691H888.188V248.775L885.272 251.691H878.612ZM880.016 249.171H884.48L888.188 245.499V242.331L880.016 242.367L878.036 244.311V247.191L880.016 249.171Z" fill="white"/>
<path d="M918.058 251.691L914.278 247.911V236.643L918.058 232.863H924.97L927.886 235.851V225.159H931.054V251.691H927.886V248.739L924.97 251.691H918.058ZM924.178 249.171L927.886 245.427V239.163L924.178 235.383H919.426L917.446 237.363V247.191L919.426 249.171H924.178Z" fill="white"/>
<path d="M940.277 251.691L936.497 247.911V236.643L940.277 232.863H948.665L952.445 236.643V243.447H939.665V247.083L941.645 249.063H952.121V251.691H940.277ZM939.665 240.927H949.277V237.363L947.297 235.383H941.645L939.665 237.363V240.927Z" fill="white"/>
<path d="M957.917 251.691V225.159H961.085V251.691H957.917Z" fill="white"/>
<path d="M113.784 270.811L117.204 265.447H120.912L116.448 270.811H113.784ZM110.004 291.691L106.26 287.911V283.627L110.004 279.847H119.58V277.507L117.636 275.527H108.708V272.863H119.004L122.748 276.643V291.691H119.58V288.775L116.664 291.691H110.004ZM111.408 289.171H115.872L119.58 285.499V282.331L111.408 282.367L109.428 284.311V287.191L111.408 289.171Z" fill="white"/>
<path d="M131.831 291.691L128.051 287.911V276.643L131.831 272.863H140.435L143.747 276.139V279.127H140.579V277.183L138.779 275.383H133.199L131.219 277.363V287.047L133.199 289.063H143.567V291.691H131.831Z" fill="white"/>
<path d="M148.593 270.811V266.563H151.761V270.811H148.593ZM148.593 291.691V272.863H151.761V291.691H148.593Z" fill="white"/>
<path d="M160.976 291.691L157.196 287.911V276.643L160.976 272.863H167.888L170.804 275.851V265.159H173.972V291.691H170.804V288.739L167.888 291.691H160.976ZM167.096 289.171L170.804 285.427V279.163L167.096 275.383H162.344L160.364 277.363V287.191L162.344 289.171H167.096Z" fill="white"/>
<path d="M183.195 291.691L179.415 287.911V276.643L183.195 272.863H192.123L195.903 276.643V287.911L192.123 291.691H183.195ZM184.563 289.171H190.755L192.735 287.191L192.699 277.363L190.755 275.383H184.563L182.583 277.363V287.191L184.563 289.171Z" fill="white"/>
<path d="M209.343 291.691V272.863H212.511V276.247L215.787 272.863H222.735L226.479 276.643V291.691H223.311V277.435L221.403 275.383H216.615L212.511 279.559V291.691H209.343Z" fill="white"/>
<path d="M232.446 270.811L235.902 265.447H239.574L235.11 270.811H232.446ZM232.194 291.691V272.863H235.362V291.691H232.194Z" fill="white"/>
<path d="M244.757 291.691L241.445 288.415V275.383H239.465V272.863H241.517L242.309 268.039H244.613V272.863H248.609V275.383H244.613V287.299L246.305 289.063H249.437V291.691H244.757Z" fill="white"/>
<path d="M253.288 291.691V272.863H256.456V276.247L259.732 272.863H264.556V276.031H259.876L256.456 279.559V291.691H253.288Z" fill="white"/>
<path d="M267.913 270.811V266.563H271.081V270.811H267.913ZM267.913 291.691V272.863H271.081V291.691H267.913Z" fill="white"/>
<path d="M280.296 291.691L276.516 287.911V276.643L280.296 272.863H288.9L292.212 276.139V279.127H289.044V277.183L287.244 275.383H281.664L279.684 277.363V287.047L281.664 289.063H292.032V291.691H280.296Z" fill="white"/>
<path d="M300.405 291.691L296.625 287.911V276.643L300.405 272.863H309.333L313.113 276.643V287.911L309.333 291.691H300.405ZM301.773 289.171H307.965L309.945 287.191L309.909 277.363L307.965 275.383H301.773L299.793 277.363V287.191L301.773 289.171Z" fill="white"/>
<path d="M329.902 291.691L326.122 287.911V276.643L329.902 272.863H338.29L342.07 276.643V283.447H329.29V287.083L331.27 289.063H341.746V291.691H329.902ZM329.29 280.927H338.902V277.363L336.922 275.383H331.27L329.29 277.363V280.927Z" fill="white"/>
<path d="M347.542 291.691V272.863H350.71V276.247L353.986 272.863H360.934L364.678 276.643V291.691H361.51V277.435L359.602 275.383H354.814L350.71 279.559V291.691H347.542Z" fill="white"/>
<path d="M381.722 291.691L377.942 287.911V276.643L381.722 272.863H388.634L391.55 275.851V265.159H394.718V291.691H391.55V288.739L388.634 291.691H381.722ZM387.842 289.171L391.55 285.427V279.163L387.842 275.383H383.09L381.11 277.363V287.191L383.09 289.171H387.842Z" fill="white"/>
<path d="M400.593 270.811V266.563H403.761V270.811H400.593ZM400.593 291.691V272.863H403.761V291.691H400.593Z" fill="white"/>
<path d="M412.976 291.691L409.196 287.911V276.643L412.976 272.863H421.58L424.892 276.139V279.127H421.724V277.183L419.924 275.383H414.344L412.364 277.363V287.047L414.344 289.063H424.712V291.691H412.976Z" fill="white"/>
<path d="M429.737 291.691V265.159H432.905V275.851L435.785 272.863H442.733L446.477 276.643V291.691H443.309V277.435L441.401 275.383H436.613L432.905 279.163V291.691H429.737Z" fill="white"/>
<path d="M454.254 291.691L450.51 287.911V283.627L454.254 279.847H463.83V277.507L461.886 275.527H452.958V272.863H463.254L466.998 276.643V291.691H463.83V288.775L460.914 291.691H454.254ZM455.658 289.171H460.122L463.83 285.499V282.331L455.658 282.367L453.678 284.311V287.191L455.658 289.171Z" fill="white"/>
<path d="M480.714 291.691V289.063H490.686L492.378 287.335V285.067L490.578 283.267H483.126L479.814 280.027V276.211L483.126 272.863H493.746V275.527H484.638L482.982 277.147V278.983L484.71 280.711H492.234L495.546 283.951V288.379L492.27 291.691H480.714Z" fill="white"/>
<path d="M503.714 291.691L499.934 287.911V276.643L503.714 272.863H512.642L516.422 276.643V287.911L512.642 291.691H503.714ZM505.082 289.171H511.274L513.254 287.191L513.218 277.363L511.274 275.383H505.082L503.102 277.363V287.191L505.082 289.171Z" fill="white"/>
<path d="M521.882 291.691V265.159H525.05V291.691H521.882Z" fill="white"/>
<path d="M534.481 291.691L530.737 287.911V272.863H533.905L533.869 287.155L535.813 289.171H540.493L544.201 285.463V272.863H547.369V291.691H544.201V288.775L541.321 291.691H534.481Z" fill="white"/>
<path d="M556.589 291.691L552.809 287.911V276.643L556.589 272.863H565.193L568.505 276.139V279.127H565.337V277.183L563.537 275.383H557.957L555.977 277.363V287.047L557.957 289.063H568.325V291.691H556.589Z" fill="white"/>
<path d="M573.35 270.811V266.563H576.518V270.811H573.35ZM573.35 291.691V272.863H576.518V291.691H573.35Z" fill="white"/>
<path d="M588.866 270.811L592.322 265.447H596.03L591.566 270.811H588.866ZM585.734 291.691L581.954 287.911V276.643L585.734 272.863H594.662L598.442 276.643V287.911L594.662 291.691H585.734ZM587.102 289.171H593.294L595.274 287.191L595.238 277.363L593.294 275.383H587.102L585.122 277.363V287.191L587.102 289.171Z" fill="white"/>
<path d="M603.901 291.691V272.863H607.069V276.247L610.345 272.863H617.293L621.037 276.643V291.691H617.869V277.435L615.961 275.383H611.173L607.069 279.559V291.691H603.901Z" fill="white"/>
<path d="M626.069 291.691V287.443H629.237V291.691H626.069Z" fill="white"/>
<path d="M108.132 331.691V305.159H122.532L128.04 310.739V326.111L122.532 331.691H108.132ZM111.408 328.775H121.056L124.764 324.995V311.855L121.056 308.075H111.408V328.775Z" fill="white"/>
<path d="M135.387 331.691L131.643 327.911V323.627L135.387 319.847H144.963V317.507L143.019 315.527H134.091V312.863H144.387L148.131 316.643V331.691H144.963V328.775L142.047 331.691H135.387ZM136.791 329.171H141.255L144.963 325.499V322.331L136.791 322.367L134.811 324.311V327.191L136.791 329.171Z" fill="white"/>
<path d="M157.394 331.691L154.082 328.415V315.383H152.102V312.863H154.154L154.946 308.039H157.25V312.863H161.246V315.383H157.25V327.299L158.942 329.063H162.074V331.691H157.394Z" fill="white"/>
<path d="M169.273 331.691L165.493 327.911V316.643L169.273 312.863H178.201L181.981 316.643V327.911L178.201 331.691H169.273ZM170.641 329.171H176.833L178.813 327.191L178.777 317.363L176.833 315.383H170.641L168.661 317.363V327.191L170.641 329.171Z" fill="white"/>
<path d="M186.756 317.111V312.863H189.924V317.111H186.756ZM186.756 331.691V327.443H189.924V331.691H186.756Z" fill="white"/>
<path d="M203.652 331.691V305.159H218.052L223.56 310.739V326.111L218.052 331.691H203.652ZM206.928 328.775H216.576L220.284 324.995V311.855L216.576 308.075H206.928V328.775Z" fill="white"/>
<path d="M232.202 331.691L228.422 327.911V316.643L232.202 312.863H240.59L244.37 316.643V323.447H231.59V327.083L233.57 329.063H244.046V331.691H232.202ZM231.59 320.927H241.202V317.363L239.222 315.383H233.57L231.59 317.363V320.927Z" fill="white"/>
<path d="M249.843 331.691V312.863H253.011V316.247L256.287 312.863H263.235L266.979 316.643V331.691H263.811V317.435L261.903 315.383H257.115L253.011 319.559V331.691H249.843Z" fill="white"/>
<path d="M272.694 331.691V329.063H282.666L284.358 327.335V325.067L282.558 323.267H275.106L271.794 320.027V316.211L275.106 312.863H285.726V315.527H276.618L274.962 317.147V318.983L276.69 320.711H284.214L287.526 323.951V328.379L284.25 331.691H272.694Z" fill="white"/>
<path d="M292.522 310.811V306.563H295.69V310.811H292.522ZM292.522 331.691V312.863H295.69V331.691H292.522Z" fill="white"/>
<path d="M304.905 331.691L301.125 327.911V316.643L304.905 312.863H311.817L314.733 315.851V305.159H317.901V331.691H314.733V328.739L311.817 331.691H304.905ZM311.025 329.171L314.733 325.427V319.163L311.025 315.383H306.273L304.293 317.363V327.191L306.273 329.171H311.025Z" fill="white"/>
<path d="M325.828 331.691L322.084 327.911V323.627L325.828 319.847H335.404V317.507L333.46 315.527H324.532V312.863H334.828L338.572 316.643V331.691H335.404V328.775L332.488 331.691H325.828ZM327.232 329.171H331.696L335.404 325.499V322.331L327.232 322.367L325.252 324.311V327.191L327.232 329.171Z" fill="white"/>
<path d="M347.655 331.691L343.875 327.911V316.643L347.655 312.863H354.567L357.483 315.851V305.159H360.651V331.691H357.483V328.739L354.567 331.691H347.655ZM353.775 329.171L357.483 325.427V319.163L353.775 315.383H349.023L347.043 317.363V327.191L349.023 329.171H353.775Z" fill="white"/>
<path d="M365.842 317.111V312.863H369.01V317.111H365.842ZM365.842 331.691V327.443H369.01V331.691H365.842Z" fill="white"/>
<path d="M382.737 331.691V305.159H386.013V316.283H399.154V305.159H402.43V331.691H399.154V319.199H386.013V331.691H382.737Z" fill="white"/>
<path d="M408.648 331.691V305.159H413.112L424.956 326.507V305.159H428.232V331.691H424.344L412.716 310.739H411.924V331.691H408.648Z" fill="white"/>
<path d="M437.583 331.691L433.803 327.911V308.939L437.583 305.159H450.112L453.892 308.939V327.911L450.112 331.691H437.583ZM439.06 328.775H448.635L450.616 326.795V310.055L448.635 308.075H439.06L437.079 310.055V326.795L439.06 328.775Z" fill="white"/>
<path d="M460 331.691L457.576 329.243L458.992 327.827L460.936 329.747H466.672L467.992 328.427V324.755L466.648 323.363H461.44V321.443H466.648L467.992 320.051V317.267L466.672 315.923L461.344 315.947L459.4 317.867L457.984 316.451L460.408 314.003H467.656L470.176 316.523V320.627L468.424 322.403L470.176 324.203V329.171L467.656 331.691H460Z" fill="white"/>
<path d="M482.297 315.779V313.151H501.305V315.779H482.297ZM482.297 323.699V321.071H501.305V323.699H482.297Z" fill="white"/>
<path d="M513.857 331.691V328.667H517.925V308.183H514.289V305.159H521.201V328.667H525.269V331.691H513.857Z" fill="white"/>
<path d="M527.891 335.651L529.331 327.443H532.499L529.727 335.651H527.891Z" fill="white"/>
<path d="M540.585 331.691L536.949 328.019L539.073 325.895L541.989 328.775H550.269L552.249 326.795V320.027L550.269 318.047H538.173V305.159H554.373V308.183H541.449V315.131H551.745L555.525 318.911V327.911L551.745 331.691H540.585Z" fill="white"/>
<path d="M564.193 331.691L560.413 327.911V308.939L564.193 305.159H575.713L579.493 308.939V327.911L575.713 331.691H564.193ZM565.669 328.775H574.237L576.217 326.795V310.055L574.237 308.075H565.669L563.689 310.055L563.725 326.795L565.669 328.775Z" fill="white"/>
<path d="M593.918 338.423V335.795L604.07 335.759L606.05 333.815V328.739L603.134 331.691H596.222L592.442 327.911V316.643L596.222 312.863H603.134L606.05 315.851V312.863H609.218V334.643L605.438 338.423H593.918ZM602.342 329.171L606.05 325.427V319.163L602.342 315.383H597.59L595.61 317.363V327.191L597.59 329.171H602.342Z" fill="white"/>
<path d="M612.609 335.615L623.733 305.159H627.045L615.921 335.615H612.609Z" fill="white"/>
<path d="M630.456 331.691V312.863H633.624V316.247L636.9 312.863H643.848L647.16 316.211L650.4 312.863H657.348L661.128 316.643V331.691H657.96V317.435L656.052 315.383H651.228L647.592 319.055V331.691H644.424L644.46 317.435L642.516 315.383H637.728L633.624 319.559V331.691H630.456Z" fill="white"/>
<path d="M667.023 331.691V305.159H670.299V328.667H683.655V331.691H667.023Z" fill="white"/>
</g>
</g>
</g>
</svg>
