<svg viewBox="0 0 992 500" fill="none" xmlns="http://www.w3.org/2000/svg">
<g id="0304104">
<g id="Group 53">
<g id="clave">
<g id="Group 61">
<path id="Rectangle 4" d="M46.4151 409.211H220.519L247.231 447.101L220.519 484.99H46.4151V409.211Z" fill="#28DA10" fill-opacity="0.1"/>
<path id="Rectangle 4 (Stroke)" fill-rule="evenodd" clip-rule="evenodd" d="M219.045 412.052H49.2568V482.149H219.045L243.754 447.101L219.045 412.052ZM220.519 409.211H46.4151V484.99H220.519L247.231 447.101L220.519 409.211Z" fill="#28DA10"/>
<path id="Ellipse 1" d="M85.2522 447.101C85.2522 468.027 68.2884 484.99 47.3624 484.99C26.4364 484.99 9.47247 468.027 9.47247 447.101C9.47247 426.175 26.4364 409.211 47.3624 409.211C68.2884 409.211 85.2522 426.175 85.2522 447.101Z" fill="#28DA10"/>
<path id="Ellipse 1 (Stroke)" fill-rule="evenodd" clip-rule="evenodd" d="M47.3624 484.043C67.7652 484.043 84.305 467.503 84.305 447.101C84.305 426.698 67.7652 410.158 47.3624 410.158C26.9595 410.158 10.4197 426.698 10.4197 447.101C10.4197 467.503 26.9595 484.043 47.3624 484.043ZM47.3624 484.99C68.2884 484.99 85.2522 468.027 85.2522 447.101C85.2522 426.175 68.2884 409.211 47.3624 409.211C26.4364 409.211 9.47247 426.175 9.47247 447.101C9.47247 468.027 26.4364 484.99 47.3624 484.99Z" fill="#28DA10"/>
<path id="A" d="M55.2363 454.915H35.6698L31.2295 466.993H27.4109L43.7214 423.893H47.1847L63.4951 466.993H59.7062L55.2363 454.915ZM36.7946 451.807H54.0819L45.4382 428.333L36.7946 451.807Z" fill="white"/>
<path id="A (Stroke)" fill-rule="evenodd" clip-rule="evenodd" d="M59.7062 466.993L55.2364 454.915H35.6698L31.2296 466.993H27.411L43.7214 423.893H47.1848L63.4952 466.993H59.7062ZM36.3308 455.863L31.8906 467.94H26.0397L43.0671 422.946H47.8391L64.8664 467.94H59.0467L54.5769 455.863H36.3308ZM54.0819 451.807L45.4383 428.333L36.7946 451.807H54.0819ZM38.1529 450.86H52.7237L45.4383 431.075L38.1529 450.86Z" fill="#28DA10"/>
</g>
<g id="Group 60">
<path id="Rectangle 5" d="M301.225 413.947H470.401L496.357 451.837L470.401 489.727H301.225V413.947Z" fill="#28DA10" fill-opacity="0.1"/>
<path id="Rectangle 5 (Stroke)" fill-rule="evenodd" clip-rule="evenodd" d="M468.903 416.789H304.066V486.885H468.903L492.913 451.837L468.903 416.789ZM470.401 413.947H301.225V489.727H470.401L496.357 451.837L470.401 413.947Z" fill="#28DA10"/>
<path id="Ellipse 2" d="M340.062 451.837C340.062 472.763 323.098 489.727 302.172 489.727C281.246 489.727 264.282 472.763 264.282 451.837C264.282 430.911 281.246 413.947 302.172 413.947C323.098 413.947 340.062 430.911 340.062 451.837Z" fill="#28DA10"/>
<path id="Ellipse 2 (Stroke)" fill-rule="evenodd" clip-rule="evenodd" d="M302.172 488.78C322.575 488.78 339.114 472.24 339.114 451.837C339.114 431.434 322.575 414.894 302.172 414.894C281.769 414.894 265.229 431.434 265.229 451.837C265.229 472.24 281.769 488.78 302.172 488.78ZM302.172 489.727C323.098 489.727 340.062 472.763 340.062 451.837C340.062 430.911 323.098 413.947 302.172 413.947C281.246 413.947 264.282 430.911 264.282 451.837C264.282 472.763 281.246 489.727 302.172 489.727Z" fill="#28DA10"/>
<path id="B" d="M287.726 466.993V423.893H300.455C305.073 423.893 308.576 424.85 310.963 426.764C313.351 428.659 314.545 431.461 314.545 435.171C314.545 437.401 313.933 439.345 312.71 441.003C311.506 442.641 309.848 443.815 307.737 444.525C310.243 445.078 312.256 446.311 313.776 448.225C315.315 450.14 316.084 452.35 316.084 454.856C316.084 458.665 314.851 461.645 312.384 463.796C309.937 465.927 306.523 466.993 302.142 466.993H287.726ZM291.367 446.272V463.914H302.29C305.408 463.914 307.875 463.125 309.691 461.546C311.526 459.948 312.444 457.737 312.444 454.915C312.444 452.251 311.565 450.15 309.809 448.61C308.072 447.051 305.665 446.272 302.586 446.272H291.367ZM291.367 443.223H301.313C304.352 443.164 306.701 442.453 308.359 441.092C310.036 439.71 310.875 437.707 310.875 435.082C310.875 432.32 310.006 430.287 308.27 428.985C306.553 427.662 303.948 427.001 300.455 427.001H291.367V443.223Z" fill="white"/>
<path id="B (Stroke)" fill-rule="evenodd" clip-rule="evenodd" d="M286.779 467.94V422.946H300.455C305.182 422.946 308.931 423.922 311.554 426.024C314.217 428.137 315.492 431.243 315.492 435.171C315.492 437.586 314.826 439.731 313.472 441.565C312.625 442.717 311.577 443.655 310.34 444.383C311.979 445.115 313.375 446.199 314.516 447.634C316.192 449.72 317.032 452.14 317.032 454.856C317.032 458.889 315.715 462.149 313.007 464.51C310.335 466.837 306.671 467.94 302.142 467.94H286.779ZM313.776 448.225C312.571 446.708 311.056 445.618 309.231 444.956C308.754 444.783 308.256 444.64 307.737 444.525C308.242 444.355 308.722 444.159 309.175 443.935C310.616 443.226 311.794 442.249 312.71 441.003C313.933 439.345 314.545 437.401 314.545 435.171C314.545 431.461 313.351 428.659 310.963 426.764C308.576 424.85 305.073 423.893 300.455 423.893H287.726V466.993H302.142C306.523 466.993 309.937 465.927 312.384 463.796C314.851 461.645 316.085 458.665 316.085 454.856C316.085 452.35 315.315 450.14 313.776 448.225ZM309.176 449.315C307.663 447.956 305.507 447.219 302.586 447.219H292.315V462.967H302.29C305.249 462.967 307.471 462.22 309.068 460.832M302.29 463.914C305.408 463.914 307.875 463.125 309.691 461.546C311.526 459.948 312.444 457.737 312.444 454.915C312.444 452.251 311.565 450.15 309.809 448.61C308.072 447.051 305.665 446.272 302.586 446.272H291.367V463.914H302.29ZM309.176 449.315L309.185 449.323ZM307.692 429.735C306.215 428.598 303.857 427.948 300.455 427.948H292.315V442.276H301.304C304.212 442.218 306.321 441.539 307.756 440.36M301.313 443.223H291.367V427.001H300.455C303.948 427.001 306.553 427.662 308.27 428.985C310.006 430.287 310.875 432.32 310.875 435.082C310.875 437.707 310.036 439.71 308.359 441.092C306.701 442.453 304.352 443.164 301.313 443.223ZM307.692 429.735L307.701 429.742ZM309.068 460.832C310.663 459.443 311.496 457.512 311.496 454.915C311.496 452.481 310.706 450.656 309.185 449.323M307.757 440.36C309.17 439.196 309.927 437.488 309.927 435.082C309.927 432.528 309.136 430.818 307.701 429.742" fill="#28DA10"/>
</g>
<g id="Group 59">
<path id="Rectangle 6" d="M547.509 411.105H721.613L748.325 448.995L721.613 486.885H547.509V411.105Z" fill="#28DA10" fill-opacity="0.1"/>
<path id="Rectangle 6 (Stroke)" fill-rule="evenodd" clip-rule="evenodd" d="M720.139 413.947H550.351V484.043H720.139L744.848 448.995L720.139 413.947ZM721.613 411.105H547.509V486.885H721.613L748.325 448.995L721.613 411.105Z" fill="#28DA10"/>
<path id="Ellipse 3" d="M586.346 448.995C586.346 469.921 569.382 486.885 548.456 486.885C527.53 486.885 510.566 469.921 510.566 448.995C510.566 428.069 527.53 411.105 548.456 411.105C569.382 411.105 586.346 428.069 586.346 448.995Z" fill="#28DA10"/>
<path id="Ellipse 3 (Stroke)" fill-rule="evenodd" clip-rule="evenodd" d="M548.456 485.938C568.859 485.938 585.399 469.398 585.399 448.995C585.399 428.592 568.859 412.052 548.456 412.052C528.053 412.052 511.513 428.592 511.513 448.995C511.513 469.398 528.053 485.938 548.456 485.938ZM548.456 486.885C569.382 486.885 586.346 469.921 586.346 448.995C586.346 428.069 569.382 411.105 548.456 411.105C527.53 411.105 510.566 428.069 510.566 448.995C510.566 469.921 527.53 486.885 548.456 486.885Z" fill="#28DA10"/>
<path id="C" d="M563.582 456.396C563.089 460.934 561.461 464.408 558.698 466.815C555.955 469.223 552.294 470.427 547.716 470.427C544.519 470.427 541.687 469.627 539.22 468.029C536.773 466.43 534.879 464.171 533.537 461.25C532.195 458.31 531.514 454.955 531.494 451.186V445.591C531.494 441.763 532.165 438.368 533.507 435.408C534.849 432.448 536.773 430.169 539.28 428.57C541.806 426.952 544.707 426.143 547.982 426.143C552.6 426.143 556.241 427.396 558.905 429.902C561.589 432.389 563.148 435.832 563.582 440.233H559.912C559.004 432.912 555.028 429.251 547.982 429.251C544.075 429.251 540.957 430.711 538.628 433.632C536.319 436.553 535.165 440.588 535.165 445.739V451.008C535.165 455.981 536.29 459.948 538.54 462.908C540.809 465.868 543.868 467.348 547.716 467.348C551.525 467.348 554.396 466.44 556.33 464.625C558.264 462.789 559.458 460.046 559.912 456.396H563.582Z" fill="white"/>
<path id="C (Stroke)" fill-rule="evenodd" clip-rule="evenodd" d="M564.638 455.448L564.524 456.498C564.012 461.212 562.305 464.928 559.322 467.528C556.365 470.122 552.463 471.374 547.716 471.374C544.353 471.374 541.339 470.53 538.705 468.824L538.702 468.822C536.091 467.116 534.085 464.712 532.676 461.646L532.675 461.643C531.269 458.562 530.567 455.072 530.547 451.191L530.547 451.186L530.547 445.591C530.547 441.651 531.238 438.12 532.645 435.017C534.055 431.906 536.094 429.478 538.769 427.772C541.462 426.047 544.543 425.196 547.982 425.196C552.774 425.196 556.669 426.5 559.552 429.21C562.438 431.885 564.073 435.561 564.525 440.14L564.628 441.18H559.075L558.972 440.35C558.535 436.83 557.379 434.324 555.607 432.693C553.842 431.068 551.341 430.198 547.982 430.198C544.349 430.198 541.51 431.538 539.37 434.221C537.237 436.92 536.112 440.722 536.112 445.739V451.008C536.112 455.842 537.205 459.586 539.292 462.333C541.376 465.05 544.152 466.401 547.716 466.401C551.387 466.401 553.985 465.526 555.68 463.936C557.403 462.3 558.535 459.793 558.972 456.279L559.075 455.448H564.638ZM556.33 464.625C554.396 466.44 551.525 467.348 547.716 467.348C543.868 467.348 540.809 465.868 538.54 462.908C536.29 459.948 535.165 455.981 535.165 451.008V445.739C535.165 440.588 536.319 436.553 538.628 433.632C540.957 430.711 544.075 429.251 547.982 429.251C555.028 429.251 559.004 432.912 559.912 440.233H563.582C563.551 439.912 563.513 439.597 563.47 439.286C562.915 435.335 561.394 432.207 558.905 429.902C556.241 427.396 552.6 426.143 547.982 426.143C544.707 426.143 541.806 426.952 539.28 428.57C536.773 430.169 534.849 432.448 533.507 435.408C532.165 438.368 531.494 441.763 531.494 445.591V451.186C531.514 454.955 532.195 458.31 533.537 461.25C534.879 464.171 536.773 466.43 539.22 468.029C541.687 469.627 544.519 470.427 547.716 470.427C552.294 470.427 555.955 469.223 558.698 466.815C561.266 464.578 562.853 461.42 563.461 457.343C563.507 457.032 563.547 456.717 563.582 456.396H559.912C559.458 460.046 558.264 462.789 556.33 464.625Z" fill="#28DA10"/>
</g>
<g id="Group 58">
<path id="Rectangle 7" d="M802.318 413.947H966.567L991.768 451.837L966.567 489.727H802.318V413.947Z" fill="#28DA10" fill-opacity="0.1"/>
<path id="Rectangle 7 (Stroke)" fill-rule="evenodd" clip-rule="evenodd" d="M965.044 416.789H805.16V486.885H965.044L988.355 451.837L965.044 416.789ZM966.567 413.947H802.318V489.727H966.567L991.768 451.837L966.567 413.947Z" fill="#28DA10"/>
<path id="Ellipse 4" d="M841.155 451.837C841.155 472.763 824.191 489.727 803.265 489.727C782.339 489.727 765.376 472.763 765.376 451.837C765.376 430.911 782.339 413.947 803.265 413.947C824.191 413.947 841.155 430.911 841.155 451.837Z" fill="#28DA10"/>
<path id="Ellipse 4 (Stroke)" fill-rule="evenodd" clip-rule="evenodd" d="M803.265 488.78C823.668 488.78 840.208 472.24 840.208 451.837C840.208 431.434 823.668 414.894 803.265 414.894C782.863 414.894 766.323 431.434 766.323 451.837C766.323 472.24 782.863 488.78 803.265 488.78ZM803.265 489.727C824.191 489.727 841.155 472.763 841.155 451.837C841.155 430.911 824.191 413.947 803.265 413.947C782.339 413.947 765.376 430.911 765.376 451.837C765.376 472.763 782.339 489.727 803.265 489.727Z" fill="#28DA10"/>
<path id="D" d="M787.873 472.676V429.577H799.921C803.453 429.577 806.62 430.386 809.423 432.004C812.225 433.602 814.406 435.902 815.965 438.901C817.543 441.901 818.333 445.315 818.333 449.143V453.11C818.333 456.958 817.553 460.372 815.994 463.352C814.435 466.332 812.235 468.631 809.393 470.249C806.571 471.867 803.325 472.676 799.654 472.676H787.873ZM791.514 432.685V469.598H799.684C804.223 469.598 807.864 468.098 810.607 465.098C813.35 462.079 814.721 458.004 814.721 452.873V449.084C814.721 444.131 813.369 440.164 810.666 437.184C807.962 434.204 804.4 432.705 799.98 432.685H791.514Z" fill="white"/>
<path id="D (Stroke)" fill-rule="evenodd" clip-rule="evenodd" d="M786.926 473.624V428.629H799.921C803.603 428.629 806.935 429.474 809.894 431.182C812.861 432.875 815.166 435.311 816.804 438.462C818.462 441.614 819.28 445.182 819.28 449.143V453.11C819.28 457.089 818.473 460.657 816.833 463.791C815.193 466.926 812.867 469.361 809.863 471.071C806.88 472.782 803.468 473.624 799.654 473.624H786.926ZM809.393 470.249C812.235 468.631 814.435 466.332 815.994 463.352C817.553 460.372 818.333 456.958 818.333 453.11V449.143C818.333 445.315 817.543 441.901 815.965 438.901C814.406 435.901 812.225 433.602 809.423 432.004C806.62 430.386 803.453 429.577 799.921 429.577H787.873V472.676H799.654C803.325 472.676 806.571 471.867 809.393 470.249ZM791.514 469.598V432.685H799.98C804.4 432.705 807.962 434.204 810.666 437.184C813.369 440.164 814.721 444.131 814.721 449.084V452.873C814.721 458.004 813.35 462.079 810.607 465.098C807.864 468.098 804.223 469.598 799.684 469.598H791.514ZM809.907 464.46C812.453 461.657 813.774 457.831 813.774 452.873V449.084C813.774 444.309 812.475 440.588 809.964 437.821C807.458 435.059 804.161 433.651 799.978 433.632H792.461V468.651H799.684C803.991 468.651 807.365 467.239 809.907 464.46Z" fill="#28DA10"/>
</g>
</g>
<g id="Group 57">
<g id="98 y 100 96 y 98 80 y 82 85 y 87">
<path d="M93.1826 461.309L89.7384 457.831L91.7504 455.819L94.5125 458.547H102.663L104.504 456.672V449.783L102.424 451.863H93.319L89.7725 448.283V439.758L93.319 436.177H104.061L107.607 439.758V457.729L104.061 461.309H93.1826ZM94.7512 449.101H102.185L104.504 446.68V440.815L102.663 438.939H94.7512L92.8757 440.815V447.226L94.7512 449.101Z" fill="#28DA10"/>
<path d="M115.858 461.309L112.277 457.729V450.329L114.732 447.874L113.096 446.169V439.758L116.676 436.177H126.327L129.907 439.758V446.169L128.271 447.874L130.726 450.329V457.729L127.145 461.309H115.858ZM117.529 446.68H125.474L126.804 445.248V440.815L124.963 438.905L118.074 438.939L116.199 440.815V445.248L117.529 446.68ZM117.256 458.547H125.747L127.623 456.672V451.318L125.747 449.408H117.29L115.38 451.318V456.672L117.256 458.547Z" fill="#28DA10"/>
<path d="M146.427 467.686L149.633 460.082H148.371L141.039 443.475H144.347L150.076 457.115H150.86L156.146 443.475H159.42L149.462 467.686H146.427Z" fill="#28DA10"/>
<path d="M169.381 461.309V458.445H173.234V439.041H169.79V436.177H176.337V458.445H180.191V461.309H169.381Z" fill="#28DA10"/>
<path d="M187.789 461.309L184.209 457.729V439.758L187.789 436.177H198.702L202.282 439.758V457.729L198.702 461.309H187.789ZM189.188 458.547H197.304L199.179 456.672V440.815L197.304 438.939H189.188L187.312 440.815L187.346 456.672L189.188 458.547Z" fill="#28DA10"/>
<path d="M210.501 461.309L206.921 457.729V439.758L210.501 436.177H221.413L224.994 439.758V457.729L221.413 461.309H210.501ZM211.899 458.547H220.015L221.891 456.672V440.815L220.015 438.939H211.899L210.024 440.815L210.058 456.672L211.899 458.547Z" fill="#28DA10"/>
<path d="M354.301 461.309L350.857 457.831L352.869 455.819L355.631 458.547H363.781L365.622 456.672V449.783L363.542 451.863H354.437L350.891 448.283V439.758L354.437 436.177H365.179L368.726 439.758V457.729L365.179 461.309H354.301ZM355.87 449.101H363.304L365.622 446.68V440.815L363.781 438.939H355.87L353.994 440.815V447.226L355.87 449.101Z" fill="#28DA10"/>
<path d="M376.976 461.309L373.395 457.729V439.758L376.976 436.177H388.195L391.639 439.655L389.628 441.667L386.865 438.939H378.374L376.499 440.815V447.84L378.613 445.759H388.025L391.571 449.34V457.729L388.025 461.309H376.976ZM378.374 458.547H386.627L388.468 456.672V450.363L386.627 448.487H378.715L376.499 450.806V456.672L378.374 458.547Z" fill="#28DA10"/>
<path d="M407.412 467.686L410.618 460.082H409.356L402.024 443.475H405.332L411.061 457.115H411.845L417.131 443.475H420.405L410.447 467.686H407.412Z" fill="#28DA10"/>
<path d="M434.458 461.309L431.014 457.831L433.026 455.819L435.788 458.547H443.938L445.779 456.672V449.783L443.699 451.863H434.594L431.048 448.283V439.758L434.594 436.177H445.336L448.883 439.758V457.729L445.336 461.309H434.458ZM436.027 449.101H443.461L445.779 446.68V440.815L443.938 438.939H436.027L434.151 440.815V447.226L436.027 449.101Z" fill="#28DA10"/>
<path d="M457.133 461.309L453.553 457.729V450.329L456.008 447.874L454.371 446.169V439.758L457.952 436.177H467.602L471.183 439.758V446.169L469.546 447.874L472.001 450.329V457.729L468.421 461.309H457.133ZM458.804 446.68H466.75L468.08 445.248V440.815L466.238 438.905L459.35 438.939L457.474 440.815V445.248L458.804 446.68ZM458.531 458.547H467.022L468.898 456.672V451.318L467.022 449.408H458.565L456.656 451.318V456.672L458.531 458.547Z" fill="#28DA10"/>
<path d="M601.163 461.309L597.582 457.729V450.329L600.037 447.874L598.401 446.169V439.758L601.981 436.177H611.632L615.212 439.758V446.169L613.575 447.874L616.031 450.329V457.729L612.45 461.309H601.163ZM602.834 446.68H610.779L612.109 445.248V440.815L610.268 438.905L603.379 438.939L601.504 440.815V445.248L602.834 446.68ZM602.561 458.547H611.052L612.928 456.672V451.318L611.052 449.408H602.595L600.685 451.318V456.672L602.561 458.547Z" fill="#28DA10"/>
<path d="M624.241 461.309L620.66 457.729V439.758L624.241 436.177H635.153L638.734 439.758V457.729L635.153 461.309H624.241ZM625.639 458.547H633.755L635.631 456.672V440.815L633.755 438.939H625.639L623.763 440.815L623.798 456.672L625.639 458.547Z" fill="#28DA10"/>
<path d="M654.444 467.686L657.649 460.082H656.388L649.056 443.475H652.364L658.093 457.115H658.877L664.163 443.475H667.436L657.479 467.686H654.444Z" fill="#28DA10"/>
<path d="M681.353 461.309L677.773 457.729V450.329L680.228 447.874L678.591 446.169V439.758L682.172 436.177H691.822L695.403 439.758V446.169L693.766 447.874L696.221 450.329V457.729L692.641 461.309H681.353ZM683.024 446.68H690.97L692.3 445.248V440.815L690.458 438.905L683.57 438.939L681.694 440.815V445.248L683.024 446.68ZM682.751 458.547H691.242L693.118 456.672V451.318L691.242 449.408H682.785L680.876 451.318V456.672L682.751 458.547Z" fill="#28DA10"/>
<path d="M700.851 461.309V457.285L714.286 444.088V440.815L712.445 438.905L705.488 438.939L702.726 441.735L700.714 439.689L704.158 436.177H713.843L717.39 439.758V445.316L704.329 458.24V458.445H717.765V461.309H700.851Z" fill="#28DA10"/>
<path d="M854.555 461.309L850.974 457.729V450.329L853.43 447.874L851.793 446.169V439.758L855.373 436.177H865.024L868.605 439.758V446.169L866.968 447.874L869.423 450.329V457.729L865.842 461.309H854.555ZM856.226 446.68H864.172L865.501 445.248V440.815L863.66 438.905L856.772 438.939L854.896 440.815V445.248L856.226 446.68ZM855.953 458.547H864.444L866.32 456.672V451.318L864.444 449.408H855.987L854.078 451.318V456.672L855.953 458.547Z" fill="#28DA10"/>
<path d="M876.917 461.309L873.473 457.831L875.485 455.819L878.247 458.547H886.09L887.966 456.672V450.261L886.09 448.385H874.632V436.177H889.978V439.041H877.735V445.623H887.488L891.069 449.204V457.729L887.488 461.309H876.917Z" fill="#28DA10"/>
<path d="M906.77 467.686L909.976 460.082H908.714L901.383 443.475H904.69L910.419 457.115H911.204L916.489 443.475H919.763L909.805 467.686H906.77Z" fill="#28DA10"/>
<path d="M933.68 461.309L930.099 457.729V450.329L932.554 447.874L930.918 446.169V439.758L934.498 436.177H944.149L947.729 439.758V446.169L946.093 447.874L948.548 450.329V457.729L944.967 461.309H933.68ZM935.351 446.68H943.296L944.626 445.248V440.815L942.785 438.905L935.896 438.939L934.021 440.815V445.248L935.351 446.68ZM935.078 458.547H943.569L945.445 456.672V451.318L943.569 449.408H935.112L933.202 451.318V456.672L935.078 458.547Z" fill="#28DA10"/>
<path d="M952.65 461.309L963.528 439.792V439.041H950.774V436.177H966.938V439.86L956.196 461.309H952.65Z" fill="#28DA10"/>
</g>
</g>
<g id="flecha">
<path id="Rectangle 2" d="M55.1299 408.271L69.6055 415.968L29.8386 490.758L15.363 483.061L55.1299 408.271Z" fill="#D51919"/>
<path id="Rectangle 1" d="M0 420.487L85.2522 373.215V427.864L42.6261 411.196L0 420.487Z" fill="#D51919"/>
<path id="Rectangle 3" d="M3.82544 486.136L18.6282 460.497L34.9878 459.95L20.185 485.589L3.82544 486.136Z" fill="#D51919"/>
<path id="Rectangle 4_2" d="M28.5021 500L43.3049 474.361L34.9779 459.561L20.1751 485.2L28.5021 500Z" fill="#D51919"/>
</g>
</g>
<g id="enun01">
<path id="Rectangle 1_2" d="M69.149 0H911.336L982.295 187.19L911.336 379.846H69.149V0Z" fill="#02071A"/>
<path id="Rectangle 1 (Stroke)" fill-rule="evenodd" clip-rule="evenodd" d="M908.72 3.78899H72.938V376.057H908.694L978.25 187.209L908.72 3.78899ZM911.336 0H69.149V379.846H911.336L982.295 187.19L911.336 0Z" fill="#28DA10"/>
<path id="Ellipse 1_2" d="M116.632 163.589C116.632 185.625 95.1879 203.489 68.7356 203.489C42.2833 203.489 20.8394 185.625 20.8394 163.589C20.8394 141.553 42.2833 123.689 68.7356 123.689C95.1879 123.689 116.632 141.553 116.632 163.589Z" fill="#28DA10"/>
<path id="Ellipse 1 (Stroke)_2" fill-rule="evenodd" clip-rule="evenodd" d="M68.7356 202.542C94.8341 202.542 115.685 184.947 115.685 163.589C115.685 142.231 94.8341 124.636 68.7356 124.636C42.6371 124.636 21.7867 142.231 21.7867 163.589C21.7867 184.947 42.6371 202.542 68.7356 202.542ZM68.7356 203.489C95.1879 203.489 116.632 185.625 116.632 163.589C116.632 141.553 95.1879 123.689 68.7356 123.689C42.2833 123.689 20.8394 141.553 20.8394 163.589C20.8394 185.625 42.2833 203.489 68.7356 203.489Z" fill="#28DA10"/>
<g id="La mezcla gaseosa utilizada en las pantallas plasma est&#195;&#161; formada com&#195;&#186;nmente por gas ne&#195;&#179;n con un porcentaje peque&#195;&#177;o de xen&#195;&#179;n. Si se tiene en una l&#195;&#161;mpara dicha mezcla formada por 1,96 g de Ne y 0,262 g de Xe, donde la presi&#195;&#179;n parcial del xen&#195;&#179;n es 2 mmHg, determine la presi&#195;&#179;n parcial del ne&#195;&#179;n y la presi&#195;&#179;n total en mmHg, respectivamente. Datos: M (g/mol) : Ne = 20, Xe = 131">
<path d="M111.9 48.9644V23.832H115.003V46.0999H127.655V48.9644H111.9Z" fill="white"/>
<path d="M132.722 48.9644L129.175 45.3838V41.3258L132.722 37.7452H141.793V35.5286L139.951 33.6531H131.494V31.1296H141.247L144.794 34.7102V48.9644H141.793V46.2022L139.031 48.9644H132.722ZM134.052 46.5773H138.28L141.793 43.099V40.0982L134.052 40.1323L132.176 41.9737V44.7018L134.052 46.5773Z" fill="white"/>
<path d="M174.469 48.9644V31.1296H177.47V34.3351L180.573 31.1296H187.154L190.292 34.301L193.361 31.1296H199.942L203.523 34.7102V48.9644H200.522V35.4604L198.714 33.5167H194.145L190.701 36.995V48.9644H187.7L187.734 35.4604L185.893 33.5167H181.357L177.47 37.4724V48.9644H174.469Z" fill="white"/>
<path d="M212.107 48.9644L208.527 45.3838V34.7102L212.107 31.1296H220.053L223.633 34.7102V41.1553H211.528V44.5995L213.403 46.475H223.327V48.9644H212.107ZM211.528 38.7682H220.633V35.3922L218.757 33.5167H213.403L211.528 35.3922V38.7682Z" fill="white"/>
<path d="M227.828 48.9644V45.8953L238.945 33.6531H228.612V31.1296H242.321V34.1987L231.204 46.475H242.594V48.9644H227.828Z" fill="white"/>
<path d="M250.204 48.9644L246.624 45.3838V34.7102L250.204 31.1296H258.355L261.492 34.2328V37.0632H258.491V35.2217L256.786 33.5167H251.5L249.625 35.3922V44.5654L251.5 46.475H261.321V48.9644H250.204Z" fill="white"/>
<path d="M266.082 48.9644V23.832H269.082V48.9644H266.082Z" fill="white"/>
<path d="M276.584 48.9644L273.037 45.3838V41.3258L276.584 37.7452H285.655V35.5286L283.813 33.6531H275.356V31.1296H285.109L288.656 34.7102V48.9644H285.655V46.2022L282.893 48.9644H276.584ZM277.914 46.5773H282.142L285.655 43.099V40.0982L277.914 40.1323L276.038 41.9737V44.7018L277.914 46.5773Z" fill="white"/>
<path d="M319.32 55.3413V52.8519L328.936 52.8178L330.812 50.9763V46.1681L328.049 48.9644H321.502L317.921 45.3838V34.7102L321.502 31.1296H328.049L330.812 33.96V31.1296H333.812V51.7607L330.232 55.3413H319.32ZM327.299 46.5773L330.812 43.0308V37.0973L327.299 33.5167H322.798L320.922 35.3922V44.7018L322.798 46.5773H327.299Z" fill="white"/>
<path d="M341.321 48.9644L337.775 45.3838V41.3258L341.321 37.7452H350.392V35.5286L348.55 33.6531H340.093V31.1296H349.846L353.393 34.7102V48.9644H350.392V46.2022L347.63 48.9644H341.321ZM342.651 46.5773H346.879L350.392 43.099V40.0982L342.651 40.1323L340.775 41.9737V44.7018L342.651 46.5773Z" fill="white"/>
<path d="M358.825 48.9644V46.475H368.271L369.874 44.8382V42.6898L368.169 40.9848H361.11L357.973 37.9157V34.301L361.11 31.1296H371.17V33.6531H362.543L360.974 35.1876V36.9268L362.611 38.5636H369.738L372.875 41.6327V45.8271L369.772 48.9644H358.825Z" fill="white"/>
<path d="M380.612 48.9644L377.032 45.3838V34.7102L380.612 31.1296H388.558L392.139 34.7102V41.1553H380.033V44.5995L381.908 46.475H391.832V48.9644H380.612ZM380.033 38.7682H389.138V35.3922L387.262 33.5167H381.908L380.033 35.3922V38.7682Z" fill="white"/>
<path d="M400.494 48.9644L396.913 45.3838V34.7102L400.494 31.1296H408.951L412.531 34.7102V45.3838L408.951 48.9644H400.494ZM401.789 46.5773H407.655L409.53 44.7018L409.496 35.3922L407.655 33.5167H401.789L399.914 35.3922V44.7018L401.789 46.5773Z" fill="white"/>
<path d="M417.536 48.9644V46.475H426.982L428.585 44.8382V42.6898L426.88 40.9848H419.821L416.684 37.9157V34.301L419.821 31.1296H429.881V33.6531H421.253L419.685 35.1876V36.9268L421.322 38.5636H428.449L431.586 41.6327V45.8271L428.483 48.9644H417.536Z" fill="white"/>
<path d="M438.262 48.9644L434.716 45.3838V41.3258L438.262 37.7452H447.333V35.5286L445.492 33.6531H437.035V31.1296H446.787L450.334 34.7102V48.9644H447.333V46.2022L444.571 48.9644H438.262ZM439.592 46.5773H443.821L447.333 43.099V40.0982L439.592 40.1323L437.717 41.9737V44.7018L439.592 46.5773Z" fill="white"/>
<path d="M483.385 48.9644L479.838 45.3838V31.1296H482.839L482.805 44.6677L484.647 46.5773H489.08L492.592 43.0649V31.1296H495.593V48.9644H492.592V46.2022L489.864 48.9644H483.385Z" fill="white"/>
<path d="M504.497 48.9644L501.36 45.8612V33.5167H499.485V31.1296H501.428L502.179 26.5601H504.361V31.1296H508.146V33.5167H504.361V44.8041L505.964 46.475H508.931V48.9644H504.497Z" fill="white"/>
<path d="M512.578 29.1859V25.162H515.579V29.1859H512.578ZM512.578 48.9644V31.1296H515.579V48.9644H512.578Z" fill="white"/>
<path d="M521.137 48.9644V23.832H524.137V48.9644H521.137Z" fill="white"/>
<path d="M529.695 29.1859V25.162H532.696V29.1859H529.695ZM529.695 48.9644V31.1296H532.696V48.9644H529.695Z" fill="white"/>
<path d="M537.265 48.9644V45.8953L548.382 33.6531H538.049V31.1296H551.758V34.1987L540.641 46.475H552.03V48.9644H537.265Z" fill="white"/>
<path d="M558.014 48.9644L554.467 45.3838V41.3258L558.014 37.7452H567.085V35.5286L565.243 33.6531H556.786V31.1296H566.539L570.085 34.7102V48.9644H567.085V46.2022L564.322 48.9644H558.014ZM559.344 46.5773H563.572L567.085 43.099V40.0982L559.344 40.1323L557.468 41.9737V44.7018L559.344 46.5773Z" fill="white"/>
<path d="M578.689 48.9644L575.109 45.3838V34.7102L578.689 31.1296H585.237L587.999 33.96V23.832H591V48.9644H587.999V46.1681L585.237 48.9644H578.689ZM584.487 46.5773L587.999 43.0308V37.0973L584.487 33.5167H579.985L578.11 35.3922V44.7018L579.985 46.5773H584.487Z" fill="white"/>
<path d="M598.509 48.9644L594.962 45.3838V41.3258L598.509 37.7452H607.579V35.5286L605.738 33.6531H597.281V31.1296H607.034L610.58 34.7102V48.9644H607.579V46.2022L604.817 48.9644H598.509ZM599.838 46.5773H604.067L607.579 43.099V40.0982L599.838 40.1323L597.963 41.9737V44.7018L599.838 46.5773Z" fill="white"/>
<path d="M643.427 48.9644L639.846 45.3838V34.7102L643.427 31.1296H651.372L654.953 34.7102V41.1553H642.847V44.5995L644.723 46.475H654.646V48.9644H643.427ZM642.847 38.7682H651.952V35.3922L650.076 33.5167H644.723L642.847 35.3922V38.7682Z" fill="white"/>
<path d="M660.136 48.9644V31.1296H663.137V34.3351L666.24 31.1296H672.822L676.368 34.7102V48.9644H673.368V35.4604L671.56 33.5167H667.025L663.137 37.4724V48.9644H660.136Z" fill="white"/>
<path d="M706.025 48.9644V23.832H709.026V48.9644H706.025Z" fill="white"/>
<path d="M716.527 48.9644L712.981 45.3838V41.3258L716.527 37.7452H725.598V35.5286L723.756 33.6531H715.299V31.1296H725.052L728.599 34.7102V48.9644H725.598V46.2022L722.836 48.9644H716.527ZM717.857 46.5773H722.086L725.598 43.099V40.0982L717.857 40.1323L715.981 41.9737V44.7018L717.857 46.5773Z" fill="white"/>
<path d="M734.031 48.9644V46.475H743.477L745.08 44.8382V42.6898L743.375 40.9848H736.316L733.179 37.9157V34.301L736.316 31.1296H746.376V33.6531H737.748L736.18 35.1876V36.9268L737.817 38.5636H744.944L748.081 41.6327V45.8271L744.978 48.9644H734.031Z" fill="white"/>
<path d="M777.056 55.3413V31.1296H780.057V33.96L782.785 31.1296H789.366L792.913 34.7102V45.3838L789.366 48.9644H782.785L780.057 46.1681V55.3413H777.056ZM783.569 46.5773H788.071L789.912 44.7018V35.3922L788.071 33.5167H783.569L780.057 37.0973V43.0308L783.569 46.5773Z" fill="white"/>
<path d="M800.046 48.9644L796.5 45.3838V41.3258L800.046 37.7452H809.117V35.5286L807.276 33.6531H798.819V31.1296H808.572L812.118 34.7102V48.9644H809.117V46.2022L806.355 48.9644H800.046ZM801.376 46.5773H805.605L809.117 43.099V40.0982L801.376 40.1323L799.501 41.9737V44.7018L801.376 46.5773Z" fill="white"/>
<path d="M817.551 48.9644V31.1296H820.552V34.3351L823.655 31.1296H830.236L833.783 34.7102V48.9644H830.782V35.4604L828.975 33.5167H824.439L820.552 37.4724V48.9644H817.551Z" fill="white"/>
<path d="M842.539 48.9644L839.402 45.8612V33.5167H837.526V31.1296H839.47L840.22 26.5601H842.402V31.1296H846.188V33.5167H842.402V44.8041L844.005 46.475H846.972V48.9644H842.539Z" fill="white"/>
<path d="M852.563 48.9644L849.017 45.3838V41.3258L852.563 37.7452H861.634V35.5286L859.792 33.6531H851.335V31.1296H861.088L864.635 34.7102V48.9644H861.634V46.2022L858.872 48.9644H852.563ZM853.893 46.5773H858.122L861.634 43.099V40.0982L853.893 40.1323L852.017 41.9737V44.7018L853.893 46.5773Z" fill="white"/>
<path d="M870.068 48.9644V23.832H873.068V48.9644H870.068Z" fill="white"/>
<path d="M878.626 48.9644V23.832H881.627V48.9644H878.626Z" fill="white"/>
<path d="M889.128 48.9644L885.582 45.3838V41.3258L889.128 37.7452H898.199V35.5286L896.358 33.6531H887.901V31.1296H897.654L901.2 34.7102V48.9644H898.199V46.2022L895.437 48.9644H889.128ZM890.458 46.5773H894.687L898.199 43.099V40.0982L890.458 40.1323L888.583 41.9737V44.7018L890.458 46.5773Z" fill="white"/>
<path d="M906.633 48.9644V46.475H916.079L917.681 44.8382V42.6898L915.976 40.9848H908.917L905.78 37.9157V34.301L908.917 31.1296H918.977V33.6531H910.35L908.781 35.1876V36.9268L910.418 38.5636H917.545L920.682 41.6327V45.8271L917.579 48.9644H906.633Z" fill="white"/>
<path d="M111.73 93.2311V69.0195H114.731V71.8499L117.459 69.0195H124.04L127.587 72.6001V83.2737L124.04 86.8543H117.459L114.731 84.058V93.2311H111.73ZM118.243 84.4672H122.744L124.586 82.5917V73.2821L122.744 71.4066H118.243L114.731 74.9872V80.9207L118.243 84.4672Z" fill="white"/>
<path d="M132.776 86.8543V61.7219H135.777V86.8543H132.776Z" fill="white"/>
<path d="M143.279 86.8543L139.732 83.2737V79.2157L143.279 75.6351H152.349V73.4185L150.508 71.543H142.051V69.0195H151.804L155.35 72.6001V86.8543H152.349V84.0921L149.587 86.8543H143.279ZM144.609 84.4672H148.837L152.349 80.9889V77.988L144.609 78.0221L142.733 79.8636V82.5917L144.609 84.4672Z" fill="white"/>
<path d="M160.783 86.8543V84.3649H170.229L171.832 82.7281V80.5797L170.127 78.8747H163.068L159.93 75.8056V72.1909L163.068 69.0195H173.128V71.543H164.5L162.931 73.0775V74.8167L164.568 76.4535H171.695L174.833 79.5226V83.717L171.729 86.8543H160.783Z" fill="white"/>
<path d="M179.565 86.8543V69.0195H182.566V72.225L185.669 69.0195H192.251L195.388 72.1909L198.457 69.0195H205.039L208.619 72.6001V86.8543H205.618V73.3503L203.811 71.4066H199.241L195.797 74.8849V86.8543H192.796L192.83 73.3503L190.989 71.4066H186.454L182.566 75.3623V86.8543H179.565Z" fill="white"/>
<path d="M215.976 86.8543L212.43 83.2737V79.2157L215.976 75.6351H225.047V73.4185L223.205 71.543H214.748V69.0195H224.501L228.048 72.6001V86.8543H225.047V84.0921L222.285 86.8543H215.976ZM217.306 84.4672H221.535L225.047 80.9889V77.988L217.306 78.0221L215.43 79.8636V82.5917L217.306 84.4672Z" fill="white"/>
<path d="M244.856 86.8543L241.275 83.2737V72.6001L244.856 69.0195H252.801L256.382 72.6001V79.0452H244.276V82.4894L246.152 84.3649H256.075V86.8543H244.856ZM244.276 76.6581H253.381V73.2821L251.506 71.4066H246.152L244.276 73.2821V76.6581Z" fill="white"/>
<path d="M261.566 86.8543V84.3649H271.012L272.614 82.7281V80.5797L270.909 78.8747H263.85L260.713 75.8056V72.1909L263.85 69.0195H273.91V71.543H265.283L263.714 73.0775V74.8167L265.351 76.4535H272.478L275.615 79.5226V83.717L272.512 86.8543H261.566Z" fill="white"/>
<path d="M283.69 86.8543L280.552 83.7511V71.4066H278.677V69.0195H280.621L281.371 64.45H283.553V69.0195H287.338V71.4066H283.553V82.694L285.156 84.3649H288.123V86.8543H283.69Z" fill="white"/>
<path d="M297.295 67.0758L300.534 61.9947H304.047L299.818 67.0758H297.295ZM293.714 86.8543L290.168 83.2737V79.2157L293.714 75.6351H302.785V73.4185L300.943 71.543H292.486V69.0195H302.239L305.786 72.6001V86.8543H302.785V84.0921L300.023 86.8543H293.714ZM295.044 84.4672H299.272L302.785 80.9889V77.988L295.044 78.0221L293.168 79.8636V82.5917L295.044 84.4672Z" fill="white"/>
<path d="M319.559 86.8543V71.4066H317.717V69.0195H319.559V64.8592L322.696 61.7219H327.129V64.2113H324.162L322.56 65.8822V69.0195H326.379V71.4066H322.56V86.8543H319.559Z" fill="white"/>
<path d="M332.951 86.8543L329.37 83.2737V72.6001L332.951 69.0195H341.408L344.988 72.6001V83.2737L341.408 86.8543H332.951ZM334.246 84.4672H340.112L341.987 82.5917L341.953 73.2821L340.112 71.4066H334.246L332.371 73.2821V82.5917L334.246 84.4672Z" fill="white"/>
<path d="M350.16 86.8543V69.0195H353.161V72.225L356.264 69.0195H360.833V72.0204H356.4L353.161 75.3623V86.8543H350.16Z" fill="white"/>
<path d="M364.013 86.8543V69.0195H367.014V72.225L370.117 69.0195H376.699L379.836 72.1909L382.905 69.0195H389.487L393.067 72.6001V86.8543H390.066V73.3503L388.259 71.4066H383.69L380.245 74.8849V86.8543H377.245L377.279 73.3503L375.437 71.4066H370.902L367.014 75.3623V86.8543H364.013Z" fill="white"/>
<path d="M400.424 86.8543L396.878 83.2737V79.2157L400.424 75.6351H409.495V73.4185L407.654 71.543H399.197V69.0195H408.95L412.496 72.6001V86.8543H409.495V84.0921L406.733 86.8543H400.424ZM401.754 84.4672H405.983L409.495 80.9889V77.988L401.754 78.0221L399.879 79.8636V82.5917L401.754 84.4672Z" fill="white"/>
<path d="M421.1 86.8543L417.52 83.2737V72.6001L421.1 69.0195H427.648L430.41 71.8499V61.7219H433.411V86.8543H430.41V84.058L427.648 86.8543H421.1ZM426.897 84.4672L430.41 80.9207V74.9872L426.897 71.4066H422.396L420.52 73.2821V82.5917L422.396 84.4672H426.897Z" fill="white"/>
<path d="M440.919 86.8543L437.373 83.2737V79.2157L440.919 75.6351H449.99V73.4185L448.149 71.543H439.692V69.0195H449.444L452.991 72.6001V86.8543H449.99V84.0921L447.228 86.8543H440.919ZM442.249 84.4672H446.478L449.99 80.9889V77.988L442.249 78.0221L440.374 79.8636V82.5917L442.249 84.4672Z" fill="white"/>
<path d="M469.799 86.8543L466.218 83.2737V72.6001L469.799 69.0195H477.949L481.086 72.1227V74.9531H478.086V73.1116L476.381 71.4066H471.095L469.219 73.2821V82.4553L471.095 84.3649H480.916V86.8543H469.799Z" fill="white"/>
<path d="M488.848 86.8543L485.267 83.2737V72.6001L488.848 69.0195H497.305L500.885 72.6001V83.2737L497.305 86.8543H488.848ZM490.143 84.4672H496.009L497.884 82.5917L497.85 73.2821L496.009 71.4066H490.143L488.268 73.2821V82.5917L490.143 84.4672Z" fill="white"/>
<path d="M506.057 86.8543V69.0195H509.058V72.225L512.161 69.0195H518.742L521.88 72.1909L524.949 69.0195H531.53L535.111 72.6001V86.8543H532.11V73.3503L530.303 71.4066H525.733L522.289 74.8849V86.8543H519.288L519.322 73.3503L517.481 71.4066H512.945L509.058 75.3623V86.8543H506.057Z" fill="white"/>
<path d="M546.969 67.0758L550.243 61.9947H553.721L549.493 67.0758H546.969ZM543.9 86.8543L540.353 83.2737V69.0195H543.354L543.32 82.5576L545.162 84.4672H549.595L553.107 80.9548V69.0195H556.108V86.8543H553.107V84.0921L550.379 86.8543H543.9Z" fill="white"/>
<path d="M561.671 86.8543V69.0195H564.671V72.225L567.775 69.0195H574.356L577.903 72.6001V86.8543H574.902V73.3503L573.094 71.4066H568.559L564.671 75.3623V86.8543H561.671Z" fill="white"/>
<path d="M583.317 86.8543V69.0195H586.317V72.225L589.421 69.0195H596.002L599.139 72.1909L602.209 69.0195H608.79L612.371 72.6001V86.8543H609.37V73.3503L607.562 71.4066H602.993L599.549 74.8849V86.8543H596.548L596.582 73.3503L594.74 71.4066H590.205L586.317 75.3623V86.8543H583.317Z" fill="white"/>
<path d="M620.955 86.8543L617.375 83.2737V72.6001L620.955 69.0195H628.901L632.481 72.6001V79.0452H620.375V82.4894L622.251 84.3649H632.174V86.8543H620.955ZM620.375 76.6581H629.48V73.2821L627.605 71.4066H622.251L620.375 73.2821V76.6581Z" fill="white"/>
<path d="M637.665 86.8543V69.0195H640.666V72.225L643.769 69.0195H650.35L653.897 72.6001V86.8543H650.896V73.3503L649.089 71.4066H644.553L640.666 75.3623V86.8543H637.665Z" fill="white"/>
<path d="M662.653 86.8543L659.516 83.7511V71.4066H657.64V69.0195H659.584L660.334 64.45H662.516V69.0195H666.302V71.4066H662.516V82.694L664.119 84.3649H667.086V86.8543H662.653Z" fill="white"/>
<path d="M673.905 86.8543L670.324 83.2737V72.6001L673.905 69.0195H681.85L685.431 72.6001V79.0452H673.325V82.4894L675.201 84.3649H685.124V86.8543H673.905ZM673.325 76.6581H682.43V73.2821L680.554 71.4066H675.201L673.325 73.2821V76.6581Z" fill="white"/>
<path d="M698.819 93.2311V69.0195H701.819V71.8499L704.548 69.0195H711.129L714.675 72.6001V83.2737L711.129 86.8543H704.548L701.819 84.058V93.2311H698.819ZM705.332 84.4672H709.833L711.675 82.5917V73.2821L709.833 71.4066H705.332L701.819 74.9872V80.9207L705.332 84.4672Z" fill="white"/>
<path d="M722.87 86.8543L719.289 83.2737V72.6001L722.87 69.0195H731.327L734.908 72.6001V83.2737L731.327 86.8543H722.87ZM724.166 84.4672H730.031L731.907 82.5917L731.873 73.2821L730.031 71.4066H724.166L722.29 73.2821V82.5917L724.166 84.4672Z" fill="white"/>
<path d="M740.079 86.8543V69.0195H743.08V72.225L746.183 69.0195H750.753V72.0204H746.32L743.08 75.3623V86.8543H740.079Z" fill="white"/>
<path d="M775.369 93.2311V90.7418L784.985 90.7077L786.861 88.8662V84.058L784.099 86.8543H777.551L773.971 83.2737V72.6001L777.551 69.0195H784.099L786.861 71.8499V69.0195H789.862V89.6506L786.281 93.2311H775.369ZM783.349 84.4672L786.861 80.9207V74.9872L783.349 71.4066H778.847L776.972 73.2821V82.5917L778.847 84.4672H783.349Z" fill="white"/>
<path d="M797.37 86.8543L793.824 83.2737V79.2157L797.37 75.6351H806.441V73.4185L804.6 71.543H796.143V69.0195H805.896L809.442 72.6001V86.8543H806.441V84.0921L803.679 86.8543H797.37ZM798.7 84.4672H802.929L806.441 80.9889V77.988L798.7 78.0221L796.825 79.8636V82.5917L798.7 84.4672Z" fill="white"/>
<path d="M814.875 86.8543V84.3649H824.321L825.924 82.7281V80.5797L824.218 78.8747H817.16L814.022 75.8056V72.1909L817.16 69.0195H827.219V71.543H818.592L817.023 73.0775V74.8167L818.66 76.4535H825.787L828.924 79.5226V83.717L825.821 86.8543H814.875Z" fill="white"/>
<path d="M841.861 86.8543V69.0195H844.862V72.225L847.965 69.0195H854.547L858.093 72.6001V86.8543H855.092V73.3503L853.285 71.4066H848.749L844.862 75.3623V86.8543H841.861Z" fill="white"/>
<path d="M866.678 86.8543L863.098 83.2737V72.6001L866.678 69.0195H874.624L878.205 72.6001V79.0452H866.099V82.4894L867.974 84.3649H877.898V86.8543H866.678ZM866.099 76.6581H875.204V73.2821L873.328 71.4066H867.974L866.099 73.2821V76.6581Z" fill="white"/>
<path d="M889.526 67.0758L892.8 61.9947H896.312L892.084 67.0758H889.526ZM886.56 86.8543L882.979 83.2737V72.6001L886.56 69.0195H895.017L898.597 72.6001V83.2737L895.017 86.8543H886.56ZM887.855 84.4672H893.721L895.596 82.5917L895.562 73.2821L893.721 71.4066H887.855L885.98 73.2821V82.5917L887.855 84.4672Z" fill="white"/>
<path d="M903.769 86.8543V69.0195H906.77V72.225L909.873 69.0195H916.454L920.001 72.6001V86.8543H917V73.3503L915.193 71.4066H910.657L906.77 75.3623V86.8543H903.769Z" fill="white"/>
<path d="M114.901 124.744L111.32 121.164V110.49L114.901 106.909H123.051L126.188 110.013V112.843H123.188V111.001L121.483 109.296H116.197L114.321 111.172V120.345L116.197 122.255H126.018V124.744H114.901Z" fill="white"/>
<path d="M133.95 124.744L130.369 121.164V110.49L133.95 106.909H142.407L145.987 110.49V121.164L142.407 124.744H133.95ZM135.245 122.357H141.111L142.986 120.482L142.952 111.172L141.111 109.296H135.245L133.37 111.172V120.482L135.245 122.357Z" fill="white"/>
<path d="M151.159 124.744V106.909H154.16V110.115L157.263 106.909H163.844L167.391 110.49V124.744H164.39V111.24L162.583 109.296H158.047L154.16 113.252V124.744H151.159Z" fill="white"/>
<path d="M187.186 124.744L183.64 121.164V106.909H186.641L186.606 120.447L188.448 122.357H192.881L196.393 118.845V106.909H199.394V124.744H196.393V121.982L193.665 124.744H187.186Z" fill="white"/>
<path d="M204.957 124.744V106.909H207.958V110.115L211.061 106.909H217.642L221.189 110.49V124.744H218.188V111.24L216.381 109.296H211.845L207.958 113.252V124.744H204.957Z" fill="white"/>
<path d="M237.608 131.121V106.909H240.609V109.74L243.337 106.909H249.918L253.465 110.49V121.164L249.918 124.744H243.337L240.609 121.948V131.121H237.608ZM244.121 122.357H248.623L250.464 120.482V111.172L248.623 109.296H244.121L240.609 112.877V118.811L244.121 122.357Z" fill="white"/>
<path d="M261.66 124.744L258.079 121.164V110.49L261.66 106.909H270.117L273.697 110.49V121.164L270.117 124.744H261.66ZM262.955 122.357H268.821L270.696 120.482L270.662 111.172L268.821 109.296H262.955L261.08 111.172V120.482L262.955 122.357Z" fill="white"/>
<path d="M278.869 124.744V106.909H281.87V110.115L284.973 106.909H289.542V109.91H285.109L281.87 113.252V124.744H278.869Z" fill="white"/>
<path d="M295.527 124.744L291.947 121.164V110.49L295.527 106.909H303.677L306.815 110.013V112.843H303.814V111.001L302.109 109.296H296.823L294.948 111.172V120.345L296.823 122.255H306.644V124.744H295.527Z" fill="white"/>
<path d="M314.576 124.744L310.995 121.164V110.49L314.576 106.909H322.521L326.102 110.49V116.935H313.996V120.379L315.872 122.255H325.795V124.744H314.576ZM313.996 114.548H323.101V111.172L321.226 109.296H315.872L313.996 111.172V114.548Z" fill="white"/>
<path d="M331.286 124.744V106.909H334.286V110.115L337.39 106.909H343.971L347.518 110.49V124.744H344.517V111.24L342.709 109.296H338.174L334.286 113.252V124.744H331.286Z" fill="white"/>
<path d="M356.274 124.744L353.136 121.641V109.296H351.261V106.909H353.204L353.955 102.34H356.137V106.909H359.922V109.296H356.137V120.584L357.74 122.255H360.707V124.744H356.274Z" fill="white"/>
<path d="M366.298 124.744L362.751 121.164V117.106L366.298 113.525H375.369V111.308L373.527 109.433H365.07V106.909H374.823L378.37 110.49V124.744H375.369V121.982L372.607 124.744H366.298ZM367.628 122.357H371.856L375.369 118.879V115.878L367.628 115.912L365.752 117.753V120.482L367.628 122.357Z" fill="white"/>
<path d="M384.212 104.966V100.942H387.212V104.966H384.212ZM379.642 131.121V128.632H382.609L384.212 126.961V106.909H387.212V128.018L384.041 131.121H379.642Z" fill="white"/>
<path d="M395.799 124.744L392.218 121.164V110.49L395.799 106.909H403.744L407.325 110.49V116.935H395.219V120.379L397.094 122.255H407.018V124.744H395.799ZM395.219 114.548H404.324V111.172L402.448 109.296H397.094L395.219 111.172V114.548Z" fill="white"/>
<path d="M423.514 131.121V106.909H426.515V109.74L429.243 106.909H435.824L439.371 110.49V121.164L435.824 124.744H429.243L426.515 121.948V131.121H423.514ZM430.027 122.357H434.528L436.37 120.482V111.172L434.528 109.296H430.027L426.515 112.877V118.811L430.027 122.357Z" fill="white"/>
<path d="M447.565 124.744L443.985 121.164V110.49L447.565 106.909H455.511L459.091 110.49V116.935H446.985V120.379L448.861 122.255H458.784V124.744H447.565ZM446.985 114.548H456.09V111.172L454.215 109.296H448.861L446.985 111.172V114.548Z" fill="white"/>
<path d="M476.756 131.121V121.948L473.994 124.744H467.446L463.866 121.164V110.49L467.446 106.909H473.994L476.756 109.74V106.909H479.757V131.121H476.756ZM473.243 122.357L476.756 118.811V112.877L473.243 109.296H468.742L466.867 111.172V120.482L468.742 122.357H473.243Z" fill="white"/>
<path d="M488.697 124.744L485.151 121.164V106.909H488.152L488.118 120.447L489.959 122.357H494.392L497.905 118.845V106.909H500.906V124.744H497.905V121.982L495.177 124.744H488.697Z" fill="white"/>
<path d="M509.639 124.744L506.059 121.164V110.49L509.639 106.909H517.585L521.166 110.49V116.935H509.06V120.379L510.935 122.255H520.859V124.744H509.639ZM509.06 114.548H518.165V111.172L516.289 109.296H510.935L509.06 111.172V114.548Z" fill="white"/>
<path d="M535.249 104.966L532.828 102.613H531.567L530.305 103.84L530.271 104.897H528.498L528.532 102.715L530.578 100.635H533.92L536.375 103.022H537.466L538.728 101.76L538.762 100.703H540.535L540.501 102.885L538.455 104.966H535.249ZM526.349 124.744V106.909H529.35V110.115L532.453 106.909H539.035L542.581 110.49V124.744H539.58V111.24L537.773 109.296H533.238L529.35 113.252V124.744H526.349Z" fill="white"/>
<path d="M551.167 124.744L547.586 121.164V110.49L551.167 106.909H559.624L563.204 110.49V121.164L559.624 124.744H551.167ZM552.462 122.357H558.328L560.203 120.482L560.169 111.172L558.328 109.296H552.462L550.587 111.172V120.482L552.462 122.357Z" fill="white"/>
<path d="M582.552 124.744L578.972 121.164V110.49L582.552 106.909H589.1L591.862 109.74V99.6118H594.863V124.744H591.862V121.948L589.1 124.744H582.552ZM588.35 122.357L591.862 118.811V112.877L588.35 109.296H583.848L581.973 111.172V120.482L583.848 122.357H588.35Z" fill="white"/>
<path d="M603.599 124.744L600.019 121.164V110.49L603.599 106.909H611.545L615.125 110.49V116.935H603.019V120.379L604.895 122.255H614.818V124.744H603.599ZM603.019 114.548H612.124V111.172L610.249 109.296H604.895L603.019 111.172V114.548Z" fill="white"/>
<path d="M628.961 124.744L635.27 115.571L628.995 106.909H632.542L637.623 114.139H638.407L643.488 106.909H647.069L640.794 115.571L647.069 124.744H643.42L638.373 117.037H637.623L632.644 124.744H628.961Z" fill="white"/>
<path d="M653.501 124.744L649.92 121.164V110.49L653.501 106.909H661.446L665.027 110.49V116.935H652.921V120.379L654.797 122.255H664.72V124.744H653.501ZM652.921 114.548H662.026V111.172L660.15 109.296H654.797L652.921 111.172V114.548Z" fill="white"/>
<path d="M670.21 124.744V106.909H673.211V110.115L676.314 106.909H682.896L686.442 110.49V124.744H683.442V111.24L681.634 109.296H677.099L673.211 113.252V124.744H670.21Z" fill="white"/>
<path d="M697.995 104.966L701.268 99.8846H704.781L700.552 104.966H697.995ZM695.028 124.744L691.447 121.164V110.49L695.028 106.909H703.485L707.065 110.49V121.164L703.485 124.744H695.028ZM696.324 122.357H702.189L704.065 120.482L704.031 111.172L702.189 109.296H696.324L694.448 111.172V120.482L696.324 122.357Z" fill="white"/>
<path d="M712.237 124.744V106.909H715.238V110.115L718.341 106.909H724.923L728.469 110.49V124.744H725.468V111.24L723.661 109.296H719.125L715.238 113.252V124.744H712.237Z" fill="white"/>
<path d="M733.235 124.744V120.72H736.236V124.744H733.235Z" fill="white"/>
<path d="M752.719 124.744V121.88H765.098L766.939 120.004V114.991L765.098 113.116H755.379L751.832 109.569V103.192L755.379 99.6118H768.747V102.476H756.777L754.902 104.352L754.936 108.512L756.777 110.388H766.496L770.042 113.968V121.164L766.496 124.744H752.719Z" fill="white"/>
<path d="M774.96 104.966V100.942H777.961V104.966H774.96ZM774.96 124.744V106.909H777.961V124.744H774.96Z" fill="white"/>
<path d="M794.524 124.744V122.255H803.97L805.572 120.618V118.47L803.867 116.765H796.808L793.671 113.695V110.081L796.808 106.909H806.868V109.433H798.241L796.672 110.967V112.707L798.309 114.343H805.436L808.573 117.412V121.607L805.47 124.744H794.524Z" fill="white"/>
<path d="M816.311 124.744L812.73 121.164V110.49L816.311 106.909H824.256L827.837 110.49V116.935H815.731V120.379L817.607 122.255H827.53V124.744H816.311ZM815.731 114.548H824.836V111.172L822.96 109.296H817.607L815.731 111.172V114.548Z" fill="white"/>
<path d="M847.367 124.744L844.23 121.641V109.296H842.355V106.909H844.298L845.049 102.34H847.231V106.909H851.016V109.296H847.231V120.584L848.834 122.255H851.801V124.744H847.367Z" fill="white"/>
<path d="M855.448 104.966V100.942H858.449V104.966H855.448ZM855.448 124.744V106.909H858.449V124.744H855.448Z" fill="white"/>
<path d="M867.178 124.744L863.597 121.164V110.49L867.178 106.909H875.123L878.704 110.49V116.935H866.598V120.379L868.474 122.255H878.397V124.744H867.178ZM866.598 114.548H875.703V111.172L873.828 109.296H868.474L866.598 111.172V114.548Z" fill="white"/>
<path d="M883.888 124.744V106.909H886.889V110.115L889.992 106.909H896.573L900.12 110.49V124.744H897.119V111.24L895.312 109.296H890.776L886.889 113.252V124.744H883.888Z" fill="white"/>
<path d="M908.705 124.744L905.125 121.164V110.49L908.705 106.909H916.651L920.231 110.49V116.935H908.125V120.379L910.001 122.255H919.924V124.744H908.705ZM908.125 114.548H917.23V111.172L915.355 109.296H910.001L908.125 111.172V114.548Z" fill="white"/>
<path d="M114.901 162.634L111.32 159.053V148.38L114.901 144.799H122.847L126.427 148.38V154.825H114.321V158.269L116.197 160.145H126.12V162.634H114.901ZM114.321 152.438H123.426V149.062L121.551 147.186H116.197L114.321 149.062V152.438Z" fill="white"/>
<path d="M131.611 162.634V144.799H134.612V148.005L137.715 144.799H144.296L147.843 148.38V162.634H144.842V149.13L143.035 147.186H138.499L134.612 151.142V162.634H131.611Z" fill="white"/>
<path d="M165.485 162.634L161.939 159.053V144.799H164.94L164.906 158.337L166.747 160.247H171.18L174.692 156.735V144.799H177.693V162.634H174.692V159.872L171.964 162.634H165.485Z" fill="white"/>
<path d="M183.256 162.634V144.799H186.257V148.005L189.36 144.799H195.941L199.488 148.38V162.634H196.487V149.13L194.68 147.186H190.144L186.257 151.142V162.634H183.256Z" fill="white"/>
<path d="M206.846 162.634L203.299 159.053V154.995L206.846 151.415H215.916V149.198L214.075 147.323H205.618V144.799H215.371L218.917 148.38V162.634H215.916V159.872L213.154 162.634H206.846ZM208.176 160.247H212.404L215.916 156.769V153.768L208.176 153.802L206.3 155.643V158.371L208.176 160.247Z" fill="white"/>
<path d="M233.202 162.634V137.502H236.203V162.634H233.202Z" fill="white"/>
<path d="M247.285 142.856L250.525 137.774H254.037L249.809 142.856H247.285ZM243.705 162.634L240.158 159.053V154.995L243.705 151.415H252.776V149.198L250.934 147.323H242.477V144.799H252.23L255.776 148.38V162.634H252.776V159.872L250.013 162.634H243.705ZM245.035 160.247H249.263L252.776 156.769V153.768L245.035 153.802L243.159 155.643V158.371L245.035 160.247Z" fill="white"/>
<path d="M261.209 162.634V144.799H264.21V148.005L267.313 144.799H273.895L277.032 147.971L280.101 144.799H286.683L290.263 148.38V162.634H287.262V149.13L285.455 147.186H280.885L277.441 150.665V162.634H274.44L274.474 149.13L272.633 147.186H268.098L264.21 151.142V162.634H261.209Z" fill="white"/>
<path d="M295.676 169.011V144.799H298.677V147.63L301.405 144.799H307.987L311.533 148.38V159.053L307.987 162.634H301.405L298.677 159.838V169.011H295.676ZM302.19 160.247H306.691L308.532 158.371V149.062L306.691 147.186H302.19L298.677 150.767V156.7L302.19 160.247Z" fill="white"/>
<path d="M318.667 162.634L315.12 159.053V154.995L318.667 151.415H327.738V149.198L325.896 147.323H317.439V144.799H327.192L330.738 148.38V162.634H327.738V159.872L324.975 162.634H318.667ZM319.997 160.247H324.225L327.738 156.769V153.768L319.997 153.802L318.121 155.643V158.371L319.997 160.247Z" fill="white"/>
<path d="M336.171 162.634V144.799H339.172V148.005L342.275 144.799H346.845V147.8H342.412L339.172 151.142V162.634H336.171Z" fill="white"/>
<path d="M351.202 162.634L347.656 159.053V154.995L351.202 151.415H360.273V149.198L358.432 147.323H349.975V144.799H359.728L363.274 148.38V162.634H360.273V159.872L357.511 162.634H351.202ZM352.532 160.247H356.761L360.273 156.769V153.768L352.532 153.802L350.657 155.643V158.371L352.532 160.247Z" fill="white"/>
<path d="M380.731 162.634L377.15 159.053V148.38L380.731 144.799H387.278L390.04 147.63V137.502H393.041V162.634H390.04V159.838L387.278 162.634H380.731ZM386.528 160.247L390.04 156.7V150.767L386.528 147.186H382.027L380.151 149.062V158.371L382.027 160.247H386.528Z" fill="white"/>
<path d="M398.606 142.856V138.832H401.607V142.856H398.606ZM398.606 162.634V144.799H401.607V162.634H398.606Z" fill="white"/>
<path d="M410.336 162.634L406.755 159.053V148.38L410.336 144.799H418.486L421.623 147.902V150.733H418.622V148.891L416.917 147.186H411.632L409.756 149.062V158.235L411.632 160.145H421.453V162.634H410.336Z" fill="white"/>
<path d="M426.213 162.634V137.502H429.214V147.63L431.942 144.799H438.523L442.07 148.38V162.634H439.069V149.13L437.262 147.186H432.726L429.214 150.767V162.634H426.213Z" fill="white"/>
<path d="M449.437 162.634L445.89 159.053V154.995L449.437 151.415H458.507V149.198L456.666 147.323H448.209V144.799H457.962L461.508 148.38V162.634H458.507V159.872L455.745 162.634H449.437ZM450.767 160.247H454.995L458.507 156.769V153.768L450.767 153.802L448.891 155.643V158.371L450.767 160.247Z" fill="white"/>
<path d="M487.388 162.634V144.799H490.389V148.005L493.492 144.799H500.074L503.211 147.971L506.28 144.799H512.862L516.442 148.38V162.634H513.441V149.13L511.634 147.186H507.064L503.62 150.665V162.634H500.619L500.653 149.13L498.812 147.186H494.277L490.389 151.142V162.634H487.388Z" fill="white"/>
<path d="M525.027 162.634L521.446 159.053V148.38L525.027 144.799H532.972L536.553 148.38V154.825H524.447V158.269L526.323 160.145H536.246V162.634H525.027ZM524.447 152.438H533.552V149.062L531.676 147.186H526.323L524.447 149.062V152.438Z" fill="white"/>
<path d="M540.748 162.634V159.565L551.864 147.323H541.532V144.799H555.24V147.868L544.124 160.145H555.513V162.634H540.748Z" fill="white"/>
<path d="M563.124 162.634L559.543 159.053V148.38L563.124 144.799H571.274L574.411 147.902V150.733H571.41V148.891L569.705 147.186H564.42L562.544 149.062V158.235L564.42 160.145H574.241V162.634H563.124Z" fill="white"/>
<path d="M579.001 162.634V137.502H582.002V162.634H579.001Z" fill="white"/>
<path d="M589.503 162.634L585.957 159.053V154.995L589.503 151.415H598.574V149.198L596.733 147.323H588.276V144.799H598.029L601.575 148.38V162.634H598.574V159.872L595.812 162.634H589.503ZM590.833 160.247H595.062L598.574 156.769V153.768L590.833 153.802L588.958 155.643V158.371L590.833 160.247Z" fill="white"/>
<path d="M615.997 162.634V147.186H614.155V144.799H615.997V140.639L619.134 137.502H623.567V139.991H620.6L618.997 141.662V144.799H622.817V147.186H618.997V162.634H615.997Z" fill="white"/>
<path d="M629.388 162.634L625.808 159.053V148.38L629.388 144.799H637.845L641.426 148.38V159.053L637.845 162.634H629.388ZM630.684 160.247H636.55L638.425 158.371L638.391 149.062L636.55 147.186H630.684L628.809 149.062V158.371L630.684 160.247Z" fill="white"/>
<path d="M646.598 162.634V144.799H649.598V148.005L652.702 144.799H657.271V147.8H652.838L649.598 151.142V162.634H646.598Z" fill="white"/>
<path d="M660.451 162.634V144.799H663.452V148.005L666.555 144.799H673.137L676.274 147.971L679.343 144.799H685.924L689.505 148.38V162.634H686.504V149.13L684.697 147.186H680.127L676.683 150.665V162.634H673.682L673.716 149.13L671.875 147.186H667.339L663.452 151.142V162.634H660.451Z" fill="white"/>
<path d="M696.862 162.634L693.316 159.053V154.995L696.862 151.415H705.933V149.198L704.091 147.323H695.634V144.799H705.387L708.934 148.38V162.634H705.933V159.872L703.171 162.634H696.862ZM698.192 160.247H702.42L705.933 156.769V153.768L698.192 153.802L696.316 155.643V158.371L698.192 160.247Z" fill="white"/>
<path d="M717.538 162.634L713.957 159.053V148.38L717.538 144.799H724.085L726.847 147.63V137.502H729.848V162.634H726.847V159.838L724.085 162.634H717.538ZM723.335 160.247L726.847 156.7V150.767L723.335 147.186H718.834L716.958 149.062V158.371L718.834 160.247H723.335Z" fill="white"/>
<path d="M737.357 162.634L733.81 159.053V154.995L737.357 151.415H746.428V149.198L744.586 147.323H736.129V144.799H745.882L749.429 148.38V162.634H746.428V159.872L743.665 162.634H737.357ZM738.687 160.247H742.915L746.428 156.769V153.768L738.687 153.802L736.811 155.643V158.371L738.687 160.247Z" fill="white"/>
<path d="M763.714 169.011V144.799H766.715V147.63L769.443 144.799H776.024L779.571 148.38V159.053L776.024 162.634H769.443L766.715 159.838V169.011H763.714ZM770.227 160.247H774.728L776.57 158.371V149.062L774.728 147.186H770.227L766.715 150.767V156.7L770.227 160.247Z" fill="white"/>
<path d="M787.765 162.634L784.185 159.053V148.38L787.765 144.799H796.222L799.803 148.38V159.053L796.222 162.634H787.765ZM789.061 160.247H794.926L796.802 158.371L796.768 149.062L794.926 147.186H789.061L787.185 149.062V158.371L789.061 160.247Z" fill="white"/>
<path d="M804.974 162.634V144.799H807.975V148.005L811.078 144.799H815.648V147.8H811.215L807.975 151.142V162.634H804.974Z" fill="white"/>
<path d="M826.828 162.634V159.77H830.681V140.366H827.237V137.502H833.784V159.77H837.638V162.634H826.828Z" fill="white"/>
<path d="M840.121 166.385L841.485 158.61H844.486L841.86 166.385H840.121Z" fill="white"/>
<path d="M852.999 162.634L849.555 159.156L851.567 157.144L854.329 159.872H862.479L864.32 157.996V151.108L862.24 153.188H853.135L849.589 149.607V141.082L853.135 137.502H863.877L867.424 141.082V159.053L863.877 162.634H852.999ZM854.568 150.426H862.002L864.32 148.005V142.139L862.479 140.264H854.568L852.692 142.139V148.55L854.568 150.426Z" fill="white"/>
<path d="M875.674 162.634L872.094 159.053V141.082L875.674 137.502H886.893L890.338 140.98L888.326 142.992L885.563 140.264H877.072L875.197 142.139V149.164L877.311 147.084H886.723L890.269 150.665V159.053L886.723 162.634H875.674ZM877.072 159.872H885.325L887.166 157.996V151.688L885.325 149.812H877.413L875.197 152.131V157.996L877.072 159.872Z" fill="white"/>
<path d="M905.357 169.011V166.522L914.974 166.487L916.849 164.646V159.838L914.087 162.634H907.54L903.959 159.053V148.38L907.54 144.799H914.087L916.849 147.63V144.799H919.85V165.43L916.269 169.011H905.357ZM913.337 160.247L916.849 156.7V150.767L913.337 147.186H908.835L906.96 149.062V158.371L908.835 160.247H913.337Z" fill="white"/>
<path d="M114.901 200.524L111.32 196.943V186.27L114.901 182.689H121.448L124.211 185.52V175.392H127.211V200.524H124.211V197.728L121.448 200.524H114.901ZM120.698 198.137L124.211 194.59V188.657L120.698 185.076H116.197L114.321 186.952V196.261L116.197 198.137H120.698Z" fill="white"/>
<path d="M135.948 200.524L132.367 196.943V186.27L135.948 182.689H143.893L147.474 186.27V192.715H135.368V196.159L137.244 198.035H147.167V200.524H135.948ZM135.368 190.328H144.473V186.952L142.597 185.076H137.244L135.368 186.952V190.328Z" fill="white"/>
<path d="M166.461 200.524V175.392H170.689L181.909 195.613V175.392H185.012V200.524H181.329L170.314 180.677H169.564V200.524H166.461Z" fill="white"/>
<path d="M193.938 200.524L190.358 196.943V186.27L193.938 182.689H201.884L205.465 186.27V192.715H193.359V196.159L195.234 198.035H205.158V200.524H193.938ZM193.359 190.328H202.464V186.952L200.588 185.076H195.234L193.359 186.952V190.328Z" fill="white"/>
<path d="M227.316 206.901L230.522 199.296H229.26L221.928 182.689H225.236L230.965 196.33H231.749L237.035 182.689H240.309L230.351 206.901H227.316Z" fill="white"/>
<path d="M260.299 200.524L256.718 196.943V178.972L260.299 175.392H271.211L274.792 178.972V196.943L271.211 200.524H260.299ZM261.697 197.762H269.813L271.689 195.886V180.029L269.813 178.154H261.697L259.821 180.029L259.856 195.886L261.697 197.762Z" fill="white"/>
<path d="M277.896 204.275L279.26 196.5H282.26L279.635 204.275H277.896Z" fill="white"/>
<path d="M287.056 200.524V196.5L300.492 183.303V180.029L298.65 178.12L291.694 178.154L288.932 180.95L286.92 178.904L290.364 175.392H300.049L303.595 178.972V184.531L290.534 197.455V197.659H303.97V200.524H287.056Z" fill="white"/>
<path d="M312.249 200.524L308.669 196.943V178.972L312.249 175.392H323.469L326.913 178.87L324.901 180.882L322.139 178.154H313.648L311.772 180.029V187.054L313.886 184.974H323.298L326.845 188.555V196.943L323.298 200.524H312.249ZM313.648 197.762H321.9L323.741 195.886V189.578L321.9 187.702H313.989L311.772 190.021V195.886L313.648 197.762Z" fill="white"/>
<path d="M331.614 200.524V196.5L345.049 183.303V180.029L343.208 178.12L336.251 178.154L333.489 180.95L331.477 178.904L334.922 175.392H344.606L348.153 178.972V184.531L335.092 197.455V197.659H348.528V200.524H331.614Z" fill="white"/>
<path d="M368.326 206.901V204.411L377.942 204.377L379.818 202.536V197.728L377.056 200.524H370.508L366.928 196.943V186.27L370.508 182.689H377.056L379.818 185.52V182.689H382.819V203.32L379.238 206.901H368.326ZM376.305 198.137L379.818 194.59V188.657L376.305 185.076H371.804L369.929 186.952V196.261L371.804 198.137H376.305Z" fill="white"/>
<path d="M405.188 200.524L401.607 196.943V186.27L405.188 182.689H411.735L414.497 185.52V175.392H417.498V200.524H414.497V197.728L411.735 200.524H405.188ZM410.985 198.137L414.497 194.59V188.657L410.985 185.076H406.484L404.608 186.952V196.261L406.484 198.137H410.985Z" fill="white"/>
<path d="M426.235 200.524L422.654 196.943V186.27L426.235 182.689H434.18L437.761 186.27V192.715H425.655V196.159L427.53 198.035H437.454V200.524H426.235ZM425.655 190.328H434.76V186.952L432.884 185.076H427.53L425.655 186.952V190.328Z" fill="white"/>
<path d="M454.224 200.524L461.795 187.668L454.292 175.392H457.805L464.148 185.963H464.966L471.309 175.392H474.855L467.319 187.668L474.889 200.524H471.343L464.966 189.475H464.182L457.805 200.524H454.224Z" fill="white"/>
<path d="M481.295 200.524L477.714 196.943V186.27L481.295 182.689H489.24L492.821 186.27V192.715H480.715V196.159L482.591 198.035H492.514V200.524H481.295ZM480.715 190.328H489.82V186.952L487.944 185.076H482.591L480.715 186.952V190.328Z" fill="white"/>
<path d="M495.992 204.275L497.357 196.5H500.357L497.732 204.275H495.992Z" fill="white"/>
<path d="M522.435 200.524L518.854 196.943V186.27L522.435 182.689H528.982L531.744 185.52V175.392H534.745V200.524H531.744V197.728L528.982 200.524H522.435ZM528.232 198.137L531.744 194.59V188.657L528.232 185.076H523.731L521.855 186.952V196.261L523.731 198.137H528.232Z" fill="white"/>
<path d="M543.481 200.524L539.901 196.943V186.27L543.481 182.689H551.939L555.519 186.27V196.943L551.939 200.524H543.481ZM544.777 198.137H550.643L552.518 196.261L552.484 186.952L550.643 185.076H544.777L542.902 186.952V196.261L544.777 198.137Z" fill="white"/>
<path d="M560.691 200.524V182.689H563.692V185.895L566.795 182.689H573.376L576.923 186.27V200.524H573.922V187.02L572.115 185.076H567.579L563.692 189.032V200.524H560.691Z" fill="white"/>
<path d="M585.508 200.524L581.928 196.943V186.27L585.508 182.689H592.056L594.818 185.52V175.392H597.819V200.524H594.818V197.728L592.056 200.524H585.508ZM591.305 198.137L594.818 194.59V188.657L591.305 185.076H586.804L584.928 186.952V196.261L586.804 198.137H591.305Z" fill="white"/>
<path d="M606.555 200.524L602.974 196.943V186.27L606.555 182.689H614.5L618.081 186.27V192.715H605.975V196.159L607.851 198.035H617.774V200.524H606.555ZM605.975 190.328H615.08V186.952L613.204 185.076H607.851L605.975 186.952V190.328Z" fill="white"/>
<path d="M636.898 200.524V175.392H639.898V200.524H636.898Z" fill="white"/>
<path d="M647.4 200.524L643.853 196.943V192.885L647.4 189.305H656.471V187.088L654.629 185.213H646.172V182.689H655.925L659.471 186.27V200.524H656.471V197.762L653.708 200.524H647.4ZM648.73 198.137H652.958L656.471 194.659V191.658L648.73 191.692L646.854 193.533V196.261L648.73 198.137Z" fill="white"/>
<path d="M678.537 206.901V182.689H681.538V185.52L684.266 182.689H690.848L694.394 186.27V196.943L690.848 200.524H684.266L681.538 197.728V206.901H678.537ZM685.05 198.137H689.552L691.393 196.261V186.952L689.552 185.076H685.05L681.538 188.657V194.59L685.05 198.137Z" fill="white"/>
<path d="M699.584 200.524V182.689H702.585V185.895L705.688 182.689H710.257V185.69H705.824L702.585 189.032V200.524H699.584Z" fill="white"/>
<path d="M716.242 200.524L712.662 196.943V186.27L716.242 182.689H724.188L727.768 186.27V192.715H715.663V196.159L717.538 198.035H727.461V200.524H716.242ZM715.663 190.328H724.768V186.952L722.892 185.076H717.538L715.663 186.952V190.328Z" fill="white"/>
<path d="M732.952 200.524V198.035H742.398L744.001 196.398V194.249L742.296 192.544H735.237L732.099 189.475V185.861L735.237 182.689H745.297V185.213H736.669L735.1 186.747V188.486L736.737 190.123H743.864L747.002 193.192V197.387L743.898 200.524H732.952Z" fill="white"/>
<path d="M751.734 180.745V176.721H754.735V180.745H751.734ZM751.734 200.524V182.689H754.735V200.524H751.734Z" fill="white"/>
<path d="M766.431 180.745L769.705 175.664H773.217L768.988 180.745H766.431ZM763.464 200.524L759.883 196.943V186.27L763.464 182.689H771.921L775.502 186.27V196.943L771.921 200.524H763.464ZM764.76 198.137H770.625L772.501 196.261L772.467 186.952L770.625 185.076H764.76L762.884 186.952V196.261L764.76 198.137Z" fill="white"/>
<path d="M780.673 200.524V182.689H783.674V185.895L786.777 182.689H793.359L796.905 186.27V200.524H793.904V187.02L792.097 185.076H787.562L783.674 189.032V200.524H780.673Z" fill="white"/>
<path d="M815.952 206.901V182.689H818.953V185.52L821.681 182.689H828.263L831.809 186.27V196.943L828.263 200.524H821.681L818.953 197.728V206.901H815.952ZM822.466 198.137H826.967L828.808 196.261V186.952L826.967 185.076H822.466L818.953 188.657V194.59L822.466 198.137Z" fill="white"/>
<path d="M838.943 200.524L835.396 196.943V192.885L838.943 189.305H848.014V187.088L846.172 185.213H837.715V182.689H847.468L851.014 186.27V200.524H848.014V197.762L845.251 200.524H838.943ZM840.273 198.137H844.501L848.014 194.659V191.658L840.273 191.692L838.397 193.533V196.261L840.273 198.137Z" fill="white"/>
<path d="M856.447 200.524V182.689H859.448V185.895L862.551 182.689H867.121V185.69H862.688L859.448 189.032V200.524H856.447Z" fill="white"/>
<path d="M873.106 200.524L869.525 196.943V186.27L873.106 182.689H881.256L884.393 185.792V188.623H881.392V186.781L879.687 185.076H874.402L872.526 186.952V196.125L874.402 198.035H884.223V200.524H873.106Z" fill="white"/>
<path d="M888.983 180.745V176.721H891.984V180.745H888.983ZM888.983 200.524V182.689H891.984V200.524H888.983Z" fill="white"/>
<path d="M899.352 200.524L895.805 196.943V192.885L899.352 189.305H908.423V187.088L906.581 185.213H898.124V182.689H907.877L911.424 186.27V200.524H908.423V197.762L905.661 200.524H899.352ZM900.682 198.137H904.91L908.423 194.659V191.658L900.682 191.692L898.806 193.533V196.261L900.682 198.137Z" fill="white"/>
<path d="M916.856 200.524V175.392H919.857V200.524H916.856Z" fill="white"/>
<path d="M114.901 238.414L111.32 234.833V224.16L114.901 220.579H121.448L124.211 223.409V213.281H127.211V238.414H124.211V235.618L121.448 238.414H114.901ZM120.698 236.027L124.211 232.48V226.547L120.698 222.966H116.197L114.321 224.842V234.151L116.197 236.027H120.698Z" fill="white"/>
<path d="M135.948 238.414L132.367 234.833V224.16L135.948 220.579H143.893L147.474 224.16V230.605H135.368V234.049L137.244 235.924H147.167V238.414H135.948ZM135.368 228.218H144.473V224.842L142.597 222.966H137.244L135.368 224.842V228.218Z" fill="white"/>
<path d="M152.657 238.414V213.281H155.658V238.414H152.657Z" fill="white"/>
<path d="M179.31 238.414L185.619 229.241L179.344 220.579H182.891L187.972 227.808H188.756L193.837 220.579H197.418L191.143 229.241L197.418 238.414H193.769L188.722 230.707H187.972L182.993 238.414H179.31Z" fill="white"/>
<path d="M203.85 238.414L200.269 234.833V224.16L203.85 220.579H211.795L215.376 224.16V230.605H203.27V234.049L205.146 235.924H215.069V238.414H203.85ZM203.27 228.218H212.375V224.842L210.499 222.966H205.146L203.27 224.842V228.218Z" fill="white"/>
<path d="M220.559 238.414V220.579H223.56V223.785L226.664 220.579H233.245L236.791 224.16V238.414H233.791V224.91L231.983 222.966H227.448L223.56 226.922V238.414H220.559Z" fill="white"/>
<path d="M248.344 218.635L251.617 213.554H255.13L250.901 218.635H248.344ZM245.377 238.414L241.796 234.833V224.16L245.377 220.579H253.834L257.415 224.16V234.833L253.834 238.414H245.377ZM246.673 236.027H252.538L254.414 234.151L254.38 224.842L252.538 222.966H246.673L244.797 224.842V234.151L246.673 236.027Z" fill="white"/>
<path d="M262.586 238.414V220.579H265.587V223.785L268.69 220.579H275.272L278.818 224.16V238.414H275.817V224.91L274.01 222.966H269.475L265.587 226.922V238.414H262.586Z" fill="white"/>
<path d="M310.125 238.414L306.545 234.833V224.16L310.125 220.579H318.071L321.651 224.16V230.605H309.546V234.049L311.421 235.924H321.344V238.414H310.125ZM309.546 228.218H318.65V224.842L316.775 222.966H311.421L309.546 224.842V228.218Z" fill="white"/>
<path d="M326.835 238.414V235.924H336.281L337.884 234.288V232.139L336.179 230.434H329.12L325.982 227.365V223.75L329.12 220.579H339.179V223.103H330.552L328.983 224.637V226.376L330.62 228.013H337.747L340.884 231.082V235.277L337.781 238.414H326.835Z" fill="white"/>
<path d="M367.861 238.414V234.39L381.297 221.193V217.919L379.456 216.01L372.499 216.044L369.737 218.84L367.725 216.794L371.169 213.281H380.854L384.4 216.862V222.42L371.34 235.345V235.549H384.775V238.414H367.861Z" fill="white"/>
<path d="M412.673 238.414V220.579H415.674V223.785L418.777 220.579H425.359L428.496 223.75L431.565 220.579H438.146L441.727 224.16V238.414H438.726V224.91L436.919 222.966H432.349L428.905 226.444V238.414H425.904L425.938 224.91L424.097 222.966H419.561L415.674 226.922V238.414H412.673Z" fill="white"/>
<path d="M447.14 238.414V220.579H450.141V223.785L453.244 220.579H459.826L462.963 223.75L466.032 220.579H472.614L476.194 224.16V238.414H473.193V224.91L471.386 222.966H466.816L463.372 226.444V238.414H460.371L460.405 224.91L458.564 222.966H454.029L450.141 226.922V238.414H447.14Z" fill="white"/>
<path d="M481.778 238.414V213.281H484.881V223.819H497.328V213.281H500.431V238.414H497.328V226.581H484.881V238.414H481.778Z" fill="white"/>
<path d="M507.14 244.791V242.301L516.756 242.267L518.632 240.426V235.618L515.87 238.414H509.322L505.742 234.833V224.16L509.322 220.579H515.87L518.632 223.409V220.579H521.633V241.21L518.052 244.791H507.14ZM515.119 236.027L518.632 232.48V226.547L515.119 222.966H510.618L508.742 224.842V234.151L510.618 236.027H515.119Z" fill="white"/>
<path d="M525.185 242.165L526.55 234.39H529.55L526.925 242.165H525.185Z" fill="white"/>
<path d="M560.716 238.414L557.136 234.833V224.16L560.716 220.579H567.264L570.026 223.409V213.281H573.027V238.414H570.026V235.618L567.264 238.414H560.716ZM566.514 236.027L570.026 232.48V226.547L566.514 222.966H562.012L560.137 224.842V234.151L562.012 236.027H566.514Z" fill="white"/>
<path d="M581.763 238.414L578.183 234.833V224.16L581.763 220.579H589.709L593.289 224.16V230.605H581.183V234.049L583.059 235.924H592.982V238.414H581.763ZM581.183 228.218H590.288V224.842L588.413 222.966H583.059L581.183 224.842V228.218Z" fill="white"/>
<path d="M601.815 238.414L598.677 235.311V222.966H596.802V220.579H598.746L599.496 216.01H601.678V220.579H605.463V222.966H601.678V234.253L603.281 235.924H606.248V238.414H601.815Z" fill="white"/>
<path d="M613.067 238.414L609.486 234.833V224.16L613.067 220.579H621.012L624.593 224.16V230.605H612.487V234.049L614.363 235.924H624.286V238.414H613.067ZM612.487 228.218H621.592V224.842L619.716 222.966H614.363L612.487 224.842V228.218Z" fill="white"/>
<path d="M629.776 238.414V220.579H632.777V223.785L635.88 220.579H640.45V223.58H636.017L632.777 226.922V238.414H629.776Z" fill="white"/>
<path d="M643.63 238.414V220.579H646.631V223.785L649.734 220.579H656.315L659.453 223.75L662.522 220.579H669.103L672.684 224.16V238.414H669.683V224.91L667.876 222.966H663.306L659.862 226.444V238.414H656.861L656.895 224.91L655.054 222.966H650.518L646.631 226.922V238.414H643.63Z" fill="white"/>
<path d="M678.097 218.635V214.611H681.098V218.635H678.097ZM678.097 238.414V220.579H681.098V238.414H678.097Z" fill="white"/>
<path d="M686.656 238.414V220.579H689.656V223.785L692.76 220.579H699.341L702.888 224.16V238.414H699.887V224.91L698.079 222.966H693.544L689.656 226.922V238.414H686.656Z" fill="white"/>
<path d="M711.473 238.414L707.892 234.833V224.16L711.473 220.579H719.419L722.999 224.16V230.605H710.893V234.049L712.769 235.924H722.692V238.414H711.473ZM710.893 228.218H719.998V224.842L718.123 222.966H712.769L710.893 224.842V228.218Z" fill="white"/>
<path d="M750.904 238.414V213.281H753.905V238.414H750.904Z" fill="white"/>
<path d="M761.407 238.414L757.86 234.833V230.775L761.407 227.195H770.477V224.978L768.636 223.103H760.179V220.579H769.932L773.478 224.16V238.414H770.477V235.652L767.715 238.414H761.407ZM762.737 236.027H766.965L770.477 232.548V229.548L762.737 229.582L760.861 231.423V234.151L762.737 236.027Z" fill="white"/>
<path d="M801.633 244.791V220.579H804.633V223.409L807.362 220.579H813.943L817.49 224.16V234.833L813.943 238.414H807.362L804.633 235.618V244.791H801.633ZM808.146 236.027H812.647L814.489 234.151V224.842L812.647 222.966H808.146L804.633 226.547V232.48L808.146 236.027Z" fill="white"/>
<path d="M822.679 238.414V220.579H825.68V223.785L828.783 220.579H833.353V223.58H828.92L825.68 226.922V238.414H822.679Z" fill="white"/>
<path d="M839.338 238.414L835.757 234.833V224.16L839.338 220.579H847.283L850.864 224.16V230.605H838.758V234.049L840.634 235.924H850.557V238.414H839.338ZM838.758 228.218H847.863V224.842L845.987 222.966H840.634L838.758 224.842V228.218Z" fill="white"/>
<path d="M856.048 238.414V235.924H865.493L867.096 234.288V232.139L865.391 230.434H858.332L855.195 227.365V223.75L858.332 220.579H868.392V223.103H859.764L858.196 224.637V226.376L859.833 228.013H866.96L870.097 231.082V235.277L866.994 238.414H856.048Z" fill="white"/>
<path d="M874.83 218.635V214.611H877.831V218.635H874.83ZM874.83 238.414V220.579H877.831V238.414H874.83Z" fill="white"/>
<path d="M889.526 218.635L892.8 213.554H896.312L892.084 218.635H889.526ZM886.56 238.414L882.979 234.833V224.16L886.56 220.579H895.017L898.597 224.16V234.833L895.017 238.414H886.56ZM887.855 236.027H893.721L895.596 234.151L895.562 224.842L893.721 222.966H887.855L885.98 224.842V234.151L887.855 236.027Z" fill="white"/>
<path d="M903.769 238.414V220.579H906.77V223.785L909.873 220.579H916.454L920.001 224.16V238.414H917V224.91L915.193 222.966H910.657L906.77 226.922V238.414H903.769Z" fill="white"/>
<path d="M111.73 282.681V258.469H114.731V261.299L117.459 258.469H124.04L127.587 262.05V272.723L124.04 276.304H117.459L114.731 273.507V282.681H111.73ZM118.243 273.917H122.744L124.586 272.041V262.732L122.744 260.856H118.243L114.731 264.437V270.37L118.243 273.917Z" fill="white"/>
<path d="M134.72 276.304L131.174 272.723V268.665L134.72 265.085H143.791V262.868L141.949 260.992H133.492V258.469H143.245L146.792 262.05V276.304H143.791V273.542L141.029 276.304H134.72ZM136.05 273.917H140.279L143.791 270.438V267.437L136.05 267.472L134.174 269.313V272.041L136.05 273.917Z" fill="white"/>
<path d="M152.224 276.304V258.469H155.225V261.674L158.329 258.469H162.898V261.47H158.465L155.225 264.812V276.304H152.224Z" fill="white"/>
<path d="M168.883 276.304L165.302 272.723V262.05L168.883 258.469H177.033L180.17 261.572V264.402H177.17V262.561L175.465 260.856H170.179L168.303 262.732V271.905L170.179 273.814H180V276.304H168.883Z" fill="white"/>
<path d="M184.76 256.525V252.501H187.761V256.525H184.76ZM184.76 276.304V258.469H187.761V276.304H184.76Z" fill="white"/>
<path d="M195.129 276.304L191.583 272.723V268.665L195.129 265.085H204.2V262.868L202.359 260.992H193.902V258.469H203.654L207.201 262.05V276.304H204.2V273.542L201.438 276.304H195.129ZM196.459 273.917H200.688L204.2 270.438V267.437L196.459 267.472L194.584 269.313V272.041L196.459 273.917Z" fill="white"/>
<path d="M212.634 276.304V251.171H215.635V276.304H212.634Z" fill="white"/>
<path d="M231.923 276.304L228.342 272.723V262.05L231.923 258.469H238.47L241.233 261.299V251.171H244.233V276.304H241.233V273.507L238.47 276.304H231.923ZM237.72 273.917L241.233 270.37V264.437L237.72 260.856H233.219L231.343 262.732V272.041L233.219 273.917H237.72Z" fill="white"/>
<path d="M252.97 276.304L249.389 272.723V262.05L252.97 258.469H260.915L264.496 262.05V268.495H252.39V271.939L254.266 273.814H264.189V276.304H252.97ZM252.39 266.108H261.495V262.732L259.619 260.856H254.266L252.39 262.732V266.108Z" fill="white"/>
<path d="M269.679 276.304V251.171H272.68V276.304H269.679Z" fill="white"/>
<path d="M285.797 276.304V258.469H288.798V261.674L291.901 258.469H298.483L302.029 262.05V276.304H299.029V262.8L297.221 260.856H292.686L288.798 264.812V276.304H285.797Z" fill="white"/>
<path d="M310.615 276.304L307.034 272.723V262.05L310.615 258.469H318.56L322.141 262.05V268.495H310.035V271.939L311.911 273.814H321.834V276.304H310.615ZM310.035 266.108H319.14V262.732L317.265 260.856H311.911L310.035 262.732V266.108Z" fill="white"/>
<path d="M333.463 256.525L336.736 251.444H340.249L336.02 256.525H333.463ZM330.496 276.304L326.915 272.723V262.05L330.496 258.469H338.953L342.534 262.05V272.723L338.953 276.304H330.496ZM331.792 273.917H337.657L339.533 272.041L339.499 262.732L337.657 260.856H331.792L329.916 262.732V272.041L331.792 273.917Z" fill="white"/>
<path d="M347.705 276.304V258.469H350.706V261.674L353.809 258.469H360.391L363.937 262.05V276.304H360.936V262.8L359.129 260.856H354.594L350.706 264.812V276.304H347.705Z" fill="white"/>
<path d="M379.946 282.681L383.151 275.076H381.889L374.558 258.469H377.866L383.595 272.109H384.379L389.665 258.469H392.938L382.981 282.681H379.946Z" fill="white"/>
<path d="M403.752 276.304V251.171H406.753V276.304H403.752Z" fill="white"/>
<path d="M414.254 276.304L410.708 272.723V268.665L414.254 265.085H423.325V262.868L421.484 260.992H413.027V258.469H422.779L426.326 262.05V276.304H423.325V273.542L420.563 276.304H414.254ZM415.584 273.917H419.813L423.325 270.438V267.437L415.584 267.472L413.709 269.313V272.041L415.584 273.917Z" fill="white"/>
<path d="M439.318 282.681V258.469H442.319V261.299L445.047 258.469H451.628L455.175 262.05V272.723L451.628 276.304H445.047L442.319 273.507V282.681H439.318ZM445.831 273.917H450.333L452.174 272.041V262.732L450.333 260.856H445.831L442.319 264.437V270.37L445.831 273.917Z" fill="white"/>
<path d="M460.365 276.304V258.469H463.366V261.674L466.469 258.469H471.038V261.47H466.605L463.366 264.812V276.304H460.365Z" fill="white"/>
<path d="M477.023 276.304L473.443 272.723V262.05L477.023 258.469H484.969L488.549 262.05V268.495H476.444V271.939L478.319 273.814H488.242V276.304H477.023ZM476.444 266.108H485.548V262.732L483.673 260.856H478.319L476.444 262.732V266.108Z" fill="white"/>
<path d="M493.733 276.304V273.814H503.179L504.782 272.178V270.029L503.077 268.324H496.018L492.88 265.255V261.64L496.018 258.469H506.077V260.992H497.45L495.881 262.527V264.266L497.518 265.903H504.645L507.783 268.972V273.166L504.679 276.304H493.733Z" fill="white"/>
<path d="M512.515 256.525V252.501H515.516V256.525H512.515ZM512.515 276.304V258.469H515.516V276.304H512.515Z" fill="white"/>
<path d="M527.212 256.525L530.485 251.444H533.998L529.769 256.525H527.212ZM524.245 276.304L520.664 272.723V262.05L524.245 258.469H532.702L536.283 262.05V272.723L532.702 276.304H524.245ZM525.541 273.917H531.406L533.282 272.041L533.248 262.732L531.406 260.856H525.541L523.665 262.732V272.041L525.541 273.917Z" fill="white"/>
<path d="M541.454 276.304V258.469H544.455V261.674L547.558 258.469H554.14L557.686 262.05V276.304H554.685V262.8L552.878 260.856H548.343L544.455 264.812V276.304H541.454Z" fill="white"/>
<path d="M574.002 276.304L570.864 273.201V260.856H568.989V258.469H570.933L571.683 253.899H573.865V258.469H577.65V260.856H573.865V272.143L575.468 273.814H578.435V276.304H574.002Z" fill="white"/>
<path d="M585.254 276.304L581.673 272.723V262.05L585.254 258.469H593.711L597.291 262.05V272.723L593.711 276.304H585.254ZM586.549 273.917H592.415L594.29 272.041L594.256 262.732L592.415 260.856H586.549L584.674 262.732V272.041L586.549 273.917Z" fill="white"/>
<path d="M605.805 276.304L602.667 273.201V260.856H600.792V258.469H602.736L603.486 253.899H605.668V258.469H609.453V260.856H605.668V272.143L607.271 273.814H610.238V276.304H605.805Z" fill="white"/>
<path d="M615.829 276.304L612.283 272.723V268.665L615.829 265.085H624.9V262.868L623.058 260.992H614.601V258.469H624.354L627.901 262.05V276.304H624.9V273.542L622.138 276.304H615.829ZM617.159 273.917H621.387L624.9 270.438V267.437L617.159 267.472L615.283 269.313V272.041L617.159 273.917Z" fill="white"/>
<path d="M633.333 276.304V251.171H636.334V276.304H633.333Z" fill="white"/>
<path d="M652.623 276.304L649.042 272.723V262.05L652.623 258.469H660.568L664.149 262.05V268.495H652.043V271.939L653.919 273.814H663.842V276.304H652.623ZM652.043 266.108H661.148V262.732L659.273 260.856H653.919L652.043 262.732V266.108Z" fill="white"/>
<path d="M669.333 276.304V258.469H672.333V261.674L675.437 258.469H682.018L685.565 262.05V276.304H682.564V262.8L680.756 260.856H676.221L672.333 264.812V276.304H669.333Z" fill="white"/>
<path d="M698.538 276.304V258.469H701.539V261.674L704.642 258.469H711.224L714.361 261.64L717.43 258.469H724.011L727.592 262.05V276.304H724.591V262.8L722.784 260.856H718.214L714.77 264.334V276.304H711.769L711.803 262.8L709.962 260.856H705.426L701.539 264.812V276.304H698.538Z" fill="white"/>
<path d="M733.005 276.304V258.469H736.006V261.674L739.109 258.469H745.691L748.828 261.64L751.897 258.469H758.479L762.059 262.05V276.304H759.058V262.8L757.251 260.856H752.682L749.237 264.334V276.304H746.236L746.271 262.8L744.429 260.856H739.894L736.006 264.812V276.304H733.005Z" fill="white"/>
<path d="M767.643 276.304V251.171H770.746V261.709H783.193V251.171H786.296V276.304H783.193V264.471H770.746V276.304H767.643Z" fill="white"/>
<path d="M793.005 282.681V280.191L802.621 280.157L804.497 278.316V273.507L801.735 276.304H795.187L791.607 272.723V262.05L795.187 258.469H801.735L804.497 261.299V258.469H807.498V279.1L803.917 282.681H793.005ZM800.984 273.917L804.497 270.37V264.437L800.984 260.856H796.483L794.607 262.732V272.041L796.483 273.917H800.984Z" fill="white"/>
<path d="M811.051 280.055L812.415 272.28H815.415L812.79 280.055H811.051Z" fill="white"/>
<path d="M111.73 314.194V296.359H114.731V299.564L117.834 296.359H122.403V299.36H117.97L114.731 302.702V314.194H111.73Z" fill="white"/>
<path d="M128.388 314.194L124.808 310.613V299.939L128.388 296.359H136.334L139.914 299.939V306.384H127.809V309.829L129.684 311.704H139.607V314.194H128.388ZM127.809 303.997H136.913V300.621L135.038 298.746H129.684L127.809 300.621V303.997Z" fill="white"/>
<path d="M145.098 314.194V311.704H154.544L156.147 310.067V307.919L154.442 306.214H147.383L144.245 303.145V299.53L147.383 296.359H157.442V298.882H148.815L147.246 300.417V302.156L148.883 303.793H156.01L159.148 306.862V311.056L156.044 314.194H145.098Z" fill="white"/>
<path d="M163.88 320.57V296.359H166.881V299.189L169.609 296.359H176.19L179.737 299.939V310.613L176.19 314.194H169.609L166.881 311.397V320.57H163.88ZM170.393 311.807H174.895L176.736 309.931V300.621L174.895 298.746H170.393L166.881 302.326V308.26L170.393 311.807Z" fill="white"/>
<path d="M187.932 314.194L184.351 310.613V299.939L187.932 296.359H195.877L199.458 299.939V306.384H187.352V309.829L189.227 311.704H199.151V314.194H187.932ZM187.352 303.997H196.457V300.621L194.581 298.746H189.227L187.352 300.621V303.997Z" fill="white"/>
<path d="M207.813 314.194L204.232 310.613V299.939L207.813 296.359H215.963L219.1 299.462V302.292H216.099V300.451L214.394 298.746H209.109L207.233 300.621V309.795L209.109 311.704H218.93V314.194H207.813Z" fill="white"/>
<path d="M227.032 314.194L223.894 311.09V298.746H222.019V296.359H223.963L224.713 291.789H226.895V296.359H230.681V298.746H226.895V310.033L228.498 311.704H231.465V314.194H227.032Z" fill="white"/>
<path d="M235.112 294.415V290.391H238.113V294.415H235.112ZM235.112 314.194V296.359H238.113V314.194H235.112Z" fill="white"/>
<path d="M248.888 314.194L241.318 296.359H244.592L250.355 311.193H251.139L256.868 296.359H260.176L252.605 314.194H248.888Z" fill="white"/>
<path d="M264.73 314.194L261.183 310.613V306.555L264.73 302.974H273.801V300.758L271.959 298.882H263.502V296.359H273.255L276.801 299.939V314.194H273.801V311.431L271.038 314.194H264.73ZM266.06 311.807H270.288L273.801 308.328V305.327L266.06 305.361L264.184 307.203V309.931L266.06 311.807Z" fill="white"/>
<path d="M282.234 314.194V296.359H285.235V299.564L288.338 296.359H294.92L298.057 299.53L301.126 296.359H307.708L311.288 299.939V314.194H308.287V300.69L306.48 298.746H301.91L298.466 302.224V314.194H295.465L295.499 300.69L293.658 298.746H289.123L285.235 302.702V314.194H282.234Z" fill="white"/>
<path d="M319.873 314.194L316.292 310.613V299.939L319.873 296.359H327.818L331.399 299.939V306.384H319.293V309.829L321.169 311.704H331.092V314.194H319.873ZM319.293 303.997H328.398V300.621L326.522 298.746H321.169L319.293 300.621V303.997Z" fill="white"/>
<path d="M336.582 314.194V296.359H339.583V299.564L342.686 296.359H349.268L352.814 299.939V314.194H349.814V300.69L348.006 298.746H343.471L339.583 302.702V314.194H336.582Z" fill="white"/>
<path d="M361.57 314.194L358.433 311.09V298.746H356.558V296.359H358.501L359.252 291.789H361.434V296.359H365.219V298.746H361.434V310.033L363.037 311.704H366.004V314.194H361.57Z" fill="white"/>
<path d="M372.822 314.194L369.242 310.613V299.939L372.822 296.359H380.768L384.348 299.939V306.384H372.243V309.829L374.118 311.704H384.042V314.194H372.822ZM372.243 303.997H381.348V300.621L379.472 298.746H374.118L372.243 300.621V303.997Z" fill="white"/>
<path d="M388.884 314.194V310.17H391.885V314.194H388.884Z" fill="white"/>
<path d="M111.9 352.083V326.951H125.541L130.758 332.237V346.798L125.541 352.083H111.9ZM115.003 349.321H124.142L127.655 345.741V333.294L124.142 329.713H115.003V349.321Z" fill="white"/>
<path d="M137.717 352.083L134.171 348.503V344.445L137.717 340.864H146.788V338.648L144.947 336.772H136.49V334.249H146.242L149.789 337.829V352.083H146.788V349.321L144.026 352.083H137.717ZM139.047 349.696H143.276L146.788 346.218V343.217L139.047 343.251L137.172 345.093V347.821L139.047 349.696Z" fill="white"/>
<path d="M158.564 352.083L155.426 348.98V336.636H153.551V334.249H155.494L156.245 329.679H158.427V334.249H162.212V336.636H158.427V347.923L160.03 349.594H162.997V352.083H158.564Z" fill="white"/>
<path d="M169.815 352.083L166.235 348.503V337.829L169.815 334.249H178.273L181.853 337.829V348.503L178.273 352.083H169.815ZM171.111 349.696H176.977L178.852 347.821L178.818 338.511L176.977 336.636H171.111L169.236 338.511V347.821L171.111 349.696Z" fill="white"/>
<path d="M186.858 352.083V349.594H196.304L197.907 347.957V345.809L196.202 344.104H189.143L186.006 341.035V337.42L189.143 334.249H199.203V336.772H190.575L189.007 338.307V340.046L190.643 341.683H197.77L200.908 344.752V348.946L197.805 352.083H186.858Z" fill="white"/>
<path d="M204.992 338.273V334.249H207.993V338.273H204.992ZM204.992 352.083V348.06H207.993V352.083H204.992Z" fill="white"/>
<path d="M220.996 352.083V326.951H225.225L233.136 347.037L241.082 326.951H245.344V352.083H242.207V331.691L234.023 352.083H232.284L224.1 331.725V352.083H220.996Z" fill="white"/>
<path d="M263.909 358.46L258.623 353.141V329.781L263.909 324.462H266.637V326.951H265.239L261.59 330.566L261.624 352.322L265.239 355.971H266.637V358.46H263.909Z" fill="white"/>
<path d="M271.567 358.46V355.971L281.184 355.937L283.059 354.095V349.287L280.297 352.083H273.75L270.169 348.503V337.829L273.75 334.249H280.297L283.059 337.079V334.249H286.06V354.88L282.48 358.46H271.567ZM279.547 349.696L283.059 346.15V340.216L279.547 336.636H275.046L273.17 338.511V347.821L275.046 349.696H279.547Z" fill="white"/>
<path d="M289.272 355.8L299.809 326.951H302.947L292.41 355.8H289.272Z" fill="white"/>
<path d="M306.178 352.083V334.249H309.179V337.454L312.282 334.249H318.864L322.001 337.42L325.07 334.249H331.651L335.232 337.829V352.083H332.231V338.58L330.424 336.636H325.854L322.41 340.114V352.083H319.409L319.443 338.58L317.602 336.636H313.066L309.179 340.591V352.083H306.178Z" fill="white"/>
<path d="M343.817 352.083L340.236 348.503V337.829L343.817 334.249H352.274L355.854 337.829V348.503L352.274 352.083H343.817ZM345.112 349.696H350.978L352.853 347.821L352.819 338.511L350.978 336.636H345.112L343.237 338.511V347.821L345.112 349.696Z" fill="white"/>
<path d="M361.026 352.083V326.951H364.027V352.083H361.026Z" fill="white"/>
<path d="M367.913 358.46V355.971H369.346L372.96 352.322V330.566L369.346 326.951H367.913V324.462H370.642L375.961 329.781V353.141L370.642 358.46H367.913Z" fill="white"/>
<path d="M388.451 338.273V334.249H391.452V338.273H388.451ZM388.451 352.083V348.06H391.452V352.083H388.451Z" fill="white"/>
<path d="M404.455 352.083V326.951H408.684L419.903 347.173V326.951H423.006V352.083H419.323L408.309 332.237H407.558V352.083H404.455Z" fill="white"/>
<path d="M431.933 352.083L428.352 348.503V337.829L431.933 334.249H439.878L443.459 337.829V344.274H431.353V347.719L433.229 349.594H443.152V352.083H431.933ZM431.353 341.887H440.458V338.511L438.582 336.636H433.229L431.353 338.511V341.887Z" fill="white"/>
<path d="M455.793 337.011V334.522H473.798V337.011H455.793ZM455.793 344.513V342.024H473.798V344.513H455.793Z" fill="white"/>
<path d="M486.062 352.083V348.06L499.498 334.863V331.589L497.657 329.679L490.7 329.713L487.938 332.51L485.926 330.463L489.37 326.951H499.055L502.601 330.532V336.09L489.541 349.014V349.219H502.976V352.083H486.062Z" fill="white"/>
<path d="M511.256 352.083L507.675 348.503V330.532L511.256 326.951H522.168L525.749 330.532V348.503L522.168 352.083H511.256ZM512.654 349.321H520.77L522.645 347.446V331.589L520.77 329.713H512.654L510.778 331.589L510.812 347.446L512.654 349.321Z" fill="white"/>
<path d="M528.852 355.835L530.216 348.06H533.217L530.591 355.835H528.852Z" fill="white"/>
<path d="M543.697 352.083L551.267 339.227L543.765 326.951H547.277L553.62 337.522H554.439L560.781 326.951H564.328L556.792 339.227L564.362 352.083H560.816L554.439 341.035H553.654L547.277 352.083H543.697Z" fill="white"/>
<path d="M570.767 352.083L567.187 348.503V337.829L570.767 334.249H578.713L582.293 337.829V344.274H570.188V347.719L572.063 349.594H581.987V352.083H570.767ZM570.188 341.887H579.293V338.511L577.417 336.636H572.063L570.188 338.511V341.887Z" fill="white"/>
<path d="M594.627 337.011V334.522H612.633V337.011H594.627ZM594.627 344.513V342.024H612.633V344.513H594.627Z" fill="white"/>
<path d="M624.522 352.083V349.219H628.375V329.816H624.931V326.951H631.478V349.219H635.332V352.083H624.522Z" fill="white"/>
<path d="M642.214 352.083L638.77 348.605L640.782 346.593L643.544 349.321H651.694L653.57 347.446V342.228L651.66 340.25H644.26V337.522H651.66L653.57 335.545V331.589L651.694 329.679L644.124 329.713L641.362 332.441L639.35 330.429L642.794 326.951H653.093L656.673 330.532V336.363L654.184 338.886L656.673 341.444V348.503L653.093 352.083H642.214Z" fill="white"/>
<path d="M660.921 352.083V349.219H664.774V329.816H661.33V326.951H667.877V349.219H671.731V352.083H660.921Z" fill="white"/>
</g>
</g>
</g>
</svg>
