<svg viewBox="0 0 902 450" fill="none" xmlns="http://www.w3.org/2000/svg">
<g id="0304102">
<g id="Group 53">
<g id="clave">
<g id="Group 61">
<path id="Rectangle 4" d="M33.8904 361.498H193.61L218.115 396.257L193.61 431.017H33.8904V361.498Z" fill="#28DA10" fill-opacity="0.1"/>
<path id="Rectangle 4 (Stroke)" fill-rule="evenodd" clip-rule="evenodd" d="M192.258 364.105H36.4974V428.41H192.258L214.926 396.257L192.258 364.105ZM193.61 361.498H33.8904V431.017H193.61L218.115 396.257L193.61 361.498Z" fill="#28DA10"/>
<path id="Ellipse 1" d="M69.5188 396.257C69.5188 415.454 53.9565 431.017 34.7594 431.017C15.5623 431.017 0 415.454 0 396.257C0 377.06 15.5623 361.498 34.7594 361.498C53.9565 361.498 69.5188 377.06 69.5188 396.257Z" fill="#28DA10"/>
<path id="Ellipse 1 (Stroke)" fill-rule="evenodd" clip-rule="evenodd" d="M34.7594 430.148C53.4766 430.148 68.6498 414.974 68.6498 396.257C68.6498 377.54 53.4766 362.367 34.7594 362.367C16.0422 362.367 0.868985 377.54 0.868985 396.257C0.868985 414.974 16.0422 430.148 34.7594 430.148ZM34.7594 431.017C53.9565 431.017 69.5188 415.454 69.5188 396.257C69.5188 377.06 53.9565 361.498 34.7594 361.498C15.5623 361.498 0 377.06 0 396.257C0 415.454 15.5623 431.017 34.7594 431.017Z" fill="#28DA10"/>
<path id="A" d="M41.9829 403.426H24.0329L19.9595 414.506H16.4564L31.4193 374.967H34.5965L49.5593 414.506H46.0834L41.9829 403.426ZM25.0648 400.575H40.9238L32.9943 379.041L25.0648 400.575Z" fill="white"/>
<path id="A (Stroke)" fill-rule="evenodd" clip-rule="evenodd" d="M46.0834 414.506L41.9828 403.426H24.0329L19.9595 414.506H16.4564L31.4192 374.967H34.5965L49.5593 414.506H46.0834ZM24.6392 404.295L20.5659 415.375H15.1984L30.819 374.098H35.1967L50.8173 415.375H45.4784L41.3779 404.295H24.6392ZM40.9238 400.575L32.9943 379.04L25.0648 400.575H40.9238ZM26.3108 399.706H39.6778L32.9943 381.555L26.3108 399.706Z" fill="#28DA10"/>
</g>
<g id="Group 60">
<path id="Rectangle 5" d="M267.647 365.843H422.846L446.658 400.602L422.846 435.362H267.647V365.843Z" fill="#28DA10" fill-opacity="0.1"/>
<path id="Rectangle 5 (Stroke)" fill-rule="evenodd" clip-rule="evenodd" d="M421.472 368.45H270.254V432.755H421.472L443.498 400.602L421.472 368.45ZM422.846 365.843H267.647V435.362H422.846L446.658 400.602L422.846 365.843Z" fill="#28DA10"/>
<path id="Ellipse 2" d="M303.276 400.602C303.276 419.799 287.714 435.362 268.516 435.362C249.319 435.362 233.757 419.799 233.757 400.602C233.757 381.405 249.319 365.843 268.516 365.843C287.714 365.843 303.276 381.405 303.276 400.602Z" fill="#28DA10"/>
<path id="Ellipse 2 (Stroke)" fill-rule="evenodd" clip-rule="evenodd" d="M268.516 434.493C287.234 434.493 302.407 419.319 302.407 400.602C302.407 381.885 287.234 366.712 268.516 366.712C249.799 366.712 234.626 381.885 234.626 400.602C234.626 419.319 249.799 434.493 268.516 434.493ZM268.516 435.362C287.714 435.362 303.276 419.799 303.276 400.602C303.276 381.405 287.714 365.843 268.516 365.843C249.319 365.843 233.757 381.405 233.757 400.602C233.757 419.799 249.319 435.362 268.516 435.362Z" fill="#28DA10"/>
<path id="B" d="M255.264 414.506V374.967H266.941C271.178 374.967 274.391 375.845 276.582 377.601C278.772 379.339 279.868 381.91 279.868 385.314C279.868 387.359 279.306 389.142 278.184 390.663C277.08 392.166 275.559 393.243 273.622 393.895C275.921 394.402 277.768 395.533 279.161 397.289C280.574 399.045 281.28 401.073 281.28 403.372C281.28 406.866 280.148 409.6 277.885 411.573C275.64 413.528 272.508 414.506 268.489 414.506H255.264ZM258.605 395.497V411.682H268.625C271.485 411.682 273.748 410.958 275.414 409.509C277.098 408.043 277.939 406.015 277.939 403.426C277.939 400.982 277.134 399.054 275.523 397.642C273.929 396.212 271.721 395.497 268.897 395.497H258.605ZM258.605 392.7H267.729C270.517 392.646 272.671 391.994 274.192 390.745C275.731 389.477 276.5 387.64 276.5 385.232C276.5 382.698 275.704 380.833 274.111 379.638C272.535 378.425 270.146 377.819 266.941 377.819H258.605V392.7Z" fill="white"/>
<path id="B (Stroke)" fill-rule="evenodd" clip-rule="evenodd" d="M254.395 415.375V374.098H266.941C271.278 374.098 274.718 374.994 277.124 376.922C279.566 378.861 280.737 381.709 280.737 385.313C280.737 387.529 280.125 389.496 278.883 391.179C278.106 392.236 277.145 393.097 276.01 393.764C277.513 394.435 278.794 395.43 279.84 396.747C281.378 398.66 282.149 400.88 282.149 403.372C282.149 407.072 280.94 410.062 278.456 412.228C276.005 414.363 272.644 415.375 268.489 415.375H254.395ZM279.161 397.289C278.056 395.897 276.666 394.897 274.992 394.29C274.555 394.132 274.098 394 273.622 393.895C274.085 393.739 274.525 393.558 274.941 393.354C276.263 392.703 277.344 391.806 278.184 390.663C279.306 389.142 279.868 387.359 279.868 385.313C279.868 381.91 278.772 379.339 276.582 377.601C274.391 375.845 271.178 374.967 266.941 374.967H255.264V414.506H268.489C272.508 414.506 275.64 413.528 277.885 411.573C280.148 409.6 281.28 406.866 281.28 403.372C281.28 401.073 280.574 399.045 279.161 397.289ZM274.942 398.289C273.554 397.042 271.576 396.366 268.897 396.366H259.474V410.813H268.625C271.339 410.813 273.378 410.128 274.843 408.854M268.625 411.682C271.485 411.682 273.748 410.958 275.414 409.509C277.098 408.043 277.939 406.015 277.939 403.426C277.939 400.982 277.134 399.054 275.523 397.642C273.929 396.212 271.721 395.497 268.897 395.497H258.605V411.682H268.625ZM274.942 398.289L274.95 398.296ZM273.58 380.326C272.225 379.283 270.063 378.687 266.941 378.687H259.474V391.831H267.72C270.388 391.778 272.323 391.155 273.64 390.074M267.729 392.7H258.605V377.818H266.941C270.146 377.818 272.535 378.425 274.111 379.638C275.704 380.833 276.5 382.697 276.5 385.232C276.5 387.64 275.731 389.477 274.192 390.745C272.671 391.994 270.517 392.646 267.729 392.7ZM273.58 380.326L273.589 380.333ZM274.843 408.854C276.306 407.58 277.07 405.808 277.07 403.426C277.07 401.194 276.345 399.519 274.95 398.296M273.64 390.073C274.936 389.005 275.631 387.439 275.631 385.232C275.631 382.889 274.905 381.32 273.589 380.333" fill="#28DA10"/>
</g>
<g id="Group 59">
<path id="Rectangle 6" d="M493.584 363.236H653.303L677.808 397.995L653.303 432.755H493.584V363.236Z" fill="#28DA10" fill-opacity="0.1"/>
<path id="Rectangle 6 (Stroke)" fill-rule="evenodd" clip-rule="evenodd" d="M651.951 365.843H496.191V430.148H651.951L674.619 397.995L651.951 365.843ZM653.303 363.236H493.584V432.755H653.303L677.808 397.995L653.303 363.236Z" fill="#28DA10"/>
<path id="Ellipse 3" d="M529.212 397.995C529.212 417.192 513.65 432.755 494.453 432.755C475.255 432.755 459.693 417.192 459.693 397.995C459.693 378.798 475.255 363.236 494.453 363.236C513.65 363.236 529.212 378.798 529.212 397.995Z" fill="#28DA10"/>
<path id="Ellipse 3 (Stroke)" fill-rule="evenodd" clip-rule="evenodd" d="M494.453 431.886C513.17 431.886 528.343 416.712 528.343 397.995C528.343 379.278 513.17 364.105 494.453 364.105C475.735 364.105 460.562 379.278 460.562 397.995C460.562 416.712 475.735 431.886 494.453 431.886ZM494.453 432.755C513.65 432.755 529.212 417.192 529.212 397.995C529.212 378.798 513.65 363.236 494.453 363.236C475.255 363.236 459.693 378.798 459.693 397.995C459.693 417.192 475.255 432.755 494.453 432.755Z" fill="#28DA10"/>
<path id="C" d="M508.329 404.784C507.877 408.948 506.383 412.134 503.848 414.343C501.332 416.552 497.974 417.656 493.774 417.656C490.841 417.656 488.243 416.923 485.98 415.456C483.735 413.99 481.997 411.917 480.766 409.238C479.535 406.54 478.91 403.463 478.892 400.005V394.872C478.892 391.36 479.508 388.246 480.739 385.531C481.97 382.815 483.735 380.724 486.034 379.258C488.352 377.773 491.013 377.031 494.018 377.031C498.254 377.031 501.595 378.181 504.039 380.48C506.501 382.761 507.931 385.92 508.329 389.957H504.962C504.129 383.241 500.481 379.882 494.018 379.882C490.434 379.882 487.573 381.222 485.437 383.901C483.319 386.581 482.26 390.283 482.26 395.008V399.842C482.26 404.404 483.292 408.043 485.355 410.758C487.437 413.474 490.243 414.832 493.774 414.832C497.268 414.832 499.902 413.999 501.676 412.334C503.45 410.65 504.545 408.133 504.962 404.784H508.329Z" fill="white"/>
<path id="C (Stroke)" fill-rule="evenodd" clip-rule="evenodd" d="M509.298 403.915L509.193 404.878C508.723 409.203 507.157 412.612 504.421 414.997C501.708 417.377 498.129 418.525 493.774 418.525C490.688 418.525 487.923 417.751 485.507 416.186L485.505 416.184C483.109 414.619 481.269 412.413 479.976 409.601L479.976 409.599C478.686 406.772 478.042 403.57 478.023 400.009L478.023 400.005L478.023 394.872C478.023 391.258 478.657 388.019 479.947 385.172C481.241 382.318 483.112 380.091 485.566 378.526C488.036 376.944 490.863 376.162 494.018 376.162C498.414 376.162 501.987 377.358 504.632 379.845C507.279 382.299 508.78 385.671 509.194 389.872L509.288 390.826H504.194L504.1 390.064C503.699 386.836 502.638 384.536 501.013 383.04C499.393 381.549 497.1 380.751 494.018 380.751C490.685 380.751 488.08 381.981 486.117 384.442C484.16 386.918 483.129 390.406 483.129 395.008V399.842C483.129 404.277 484.131 407.711 486.046 410.231C487.957 412.723 490.504 413.963 493.774 413.963C497.141 413.963 499.525 413.16 501.08 411.701C502.66 410.201 503.699 407.901 504.1 404.677L504.194 403.915H509.298ZM501.676 412.333C499.902 413.999 497.268 414.832 493.774 414.832C490.243 414.832 487.437 413.474 485.355 410.758C483.292 408.043 482.26 404.404 482.26 399.842V395.008C482.26 390.283 483.319 386.581 485.437 383.901C487.573 381.222 490.434 379.882 494.018 379.882C500.481 379.882 504.129 383.241 504.962 389.957H508.329C508.3 389.663 508.266 389.373 508.226 389.088C507.717 385.464 506.321 382.595 504.039 380.48C501.595 378.181 498.254 377.031 494.018 377.031C491.013 377.031 488.352 377.773 486.034 379.258C483.735 380.724 481.97 382.815 480.739 385.531C479.508 388.246 478.892 391.36 478.892 394.872V400.005C478.91 403.463 479.535 406.54 480.766 409.238C481.997 411.917 483.735 413.99 485.98 415.456C488.243 416.923 490.841 417.656 493.774 417.656C497.974 417.656 501.332 416.552 503.848 414.343C506.204 412.291 507.66 409.394 508.218 405.653C508.26 405.368 508.297 405.079 508.329 404.784H504.962C504.545 408.133 503.45 410.65 501.676 412.333Z" fill="#28DA10"/>
</g>
<g id="Group 58">
<path id="Rectangle 7" d="M727.341 365.843H878.019L901.138 400.602L878.019 435.362H727.341V365.843Z" fill="#28DA10" fill-opacity="0.1"/>
<path id="Rectangle 7 (Stroke)" fill-rule="evenodd" clip-rule="evenodd" d="M876.622 368.45H729.948V432.755H876.622L898.007 400.602L876.622 368.45ZM878.019 365.843H727.341V435.362H878.019L901.138 400.602L878.019 365.843Z" fill="#28DA10"/>
<path id="Ellipse 4" d="M762.969 400.602C762.969 419.799 747.407 435.362 728.21 435.362C709.013 435.362 693.45 419.799 693.45 400.602C693.45 381.405 709.013 365.843 728.21 365.843C747.407 365.843 762.969 381.405 762.969 400.602Z" fill="#28DA10"/>
<path id="Ellipse 4 (Stroke)" fill-rule="evenodd" clip-rule="evenodd" d="M728.21 434.493C746.927 434.493 762.1 419.319 762.1 400.602C762.1 381.885 746.927 366.712 728.21 366.712C709.492 366.712 694.319 381.885 694.319 400.602C694.319 419.319 709.492 434.493 728.21 434.493ZM728.21 435.362C747.407 435.362 762.969 419.799 762.969 400.602C762.969 381.405 747.407 365.843 728.21 365.843C709.013 365.843 693.45 381.405 693.45 400.602C693.45 419.799 709.013 435.362 728.21 435.362Z" fill="#28DA10"/>
<path id="D" d="M714.089 419.72V380.181H725.141C728.382 380.181 731.287 380.923 733.858 382.408C736.429 383.874 738.429 385.983 739.859 388.735C741.308 391.487 742.032 394.619 742.032 398.131V401.77C742.032 405.3 741.317 408.432 739.887 411.166C738.456 413.899 736.438 416.009 733.831 417.493C731.242 418.978 728.264 419.72 724.897 419.72H714.089ZM717.429 383.032V416.896H724.924C729.088 416.896 732.428 415.52 734.944 412.768C737.461 409.998 738.719 406.26 738.719 401.553V398.077C738.719 393.533 737.479 389.894 734.999 387.16C732.518 384.426 729.251 383.05 725.195 383.032H717.429Z" fill="white"/>
<path id="D (Stroke)" fill-rule="evenodd" clip-rule="evenodd" d="M713.22 420.589V379.312H725.141C728.519 379.312 731.576 380.087 734.291 381.654C737.012 383.207 739.127 385.441 740.63 388.333C742.151 391.224 742.901 394.497 742.901 398.131V401.77C742.901 405.42 742.161 408.694 740.657 411.569C739.152 414.445 737.018 416.678 734.262 418.247C731.526 419.816 728.395 420.589 724.897 420.589H713.22ZM733.831 417.493C736.438 416.009 738.456 413.899 739.887 411.166C741.317 408.432 742.032 405.3 742.032 401.77V398.131C742.032 394.619 741.308 391.487 739.859 388.735C738.429 385.983 736.429 383.874 733.858 382.408C731.287 380.923 728.382 380.181 725.141 380.181H714.089V419.72H724.897C728.264 419.72 731.242 418.978 733.831 417.493ZM717.429 416.896V383.032H725.195C729.251 383.05 732.518 384.426 734.999 387.16C737.479 389.894 738.719 393.533 738.719 398.077V401.553C738.719 406.26 737.461 409.998 734.944 412.768C732.428 415.52 729.088 416.896 724.924 416.896H717.429ZM734.302 412.182C736.638 409.611 737.85 406.101 737.85 401.553V398.077C737.85 393.696 736.659 390.283 734.355 387.744C732.056 385.21 729.031 383.919 725.193 383.901H718.298V416.027H724.924C728.875 416.027 731.971 414.731 734.302 412.182Z" fill="#28DA10"/>
</g>
</g>
<g id="Group 57">
<g id="10 20 5 15">
<path d="M113.56 408.632C113.56 409.072 113.397 409.42 113.073 409.674C112.772 409.929 112.343 410.057 111.787 410.057C110.767 410.057 110.257 409.582 110.257 408.632V391.6C109.377 392.758 108.496 393.847 107.616 394.867C107.361 395.076 107.025 395.18 106.608 395.18C106.121 395.18 105.739 395.064 105.461 394.832C105.206 394.577 105.078 394.253 105.078 393.859C105.078 393.697 105.125 393.511 105.217 393.303C105.31 393.071 105.449 392.862 105.634 392.677C106.306 391.866 106.932 391.09 107.511 390.348C108.114 389.584 108.566 389.004 108.867 388.61L109.597 387.637C109.782 387.359 110.037 387.15 110.362 387.011C110.709 386.872 111.068 386.803 111.439 386.803C112.042 386.803 112.54 386.965 112.934 387.289C113.328 387.591 113.525 388.008 113.525 388.541L113.56 408.632Z" fill="#28DA10"/>
<path d="M128.481 409.709C126.489 409.709 124.762 409.234 123.302 408.284C121.866 407.311 120.765 406.025 120 404.426C119.235 402.804 118.853 401.043 118.853 399.142C118.853 397.103 119.224 395.168 119.965 393.338C120.73 391.507 121.842 390.035 123.302 388.923C124.762 387.788 126.512 387.22 128.551 387.22C130.636 387.22 132.421 387.776 133.904 388.888C135.387 389.977 136.499 391.437 137.241 393.268C138.005 395.075 138.388 397.034 138.388 399.142C138.388 401.066 137.982 402.838 137.171 404.461C136.383 406.059 135.236 407.334 133.73 408.284C132.224 409.234 130.474 409.709 128.481 409.709ZM128.412 406.894C130.428 406.894 132.015 406.175 133.174 404.739C134.333 403.279 134.912 401.413 134.912 399.142C134.912 397.52 134.657 396.014 134.147 394.624C133.637 393.233 132.896 392.121 131.923 391.287C130.972 390.452 129.872 390.035 128.62 390.035C127.369 390.035 126.257 390.464 125.284 391.321C124.333 392.156 123.603 393.268 123.094 394.658C122.584 396.049 122.329 397.543 122.329 399.142C122.329 400.602 122.572 401.923 123.059 403.105C123.546 404.264 124.252 405.19 125.179 405.886C126.106 406.558 127.184 406.894 128.412 406.894Z" fill="#28DA10"/>
<path d="M340.483 407.102C340.992 407.102 341.409 407.241 341.734 407.519C342.058 407.774 342.221 408.099 342.221 408.493C342.221 408.91 342.047 409.257 341.699 409.535C341.375 409.79 340.969 409.918 340.483 409.918C340.204 409.918 339.579 409.895 338.606 409.848C336.311 409.779 334.852 409.744 334.226 409.744C331.746 409.744 329.661 409.79 327.969 409.883C327.483 409.883 327.1 409.767 326.822 409.535C326.544 409.281 326.44 408.945 326.509 408.527C326.787 406.882 327.564 405.295 328.838 403.765C330.136 402.236 332.001 400.614 334.434 398.899C337.076 397.068 338.397 395.029 338.397 392.781C338.397 391.53 338.003 390.51 337.215 389.723C336.427 388.911 335.396 388.506 334.122 388.506C332.94 388.506 331.978 388.935 331.237 389.792C330.495 390.649 330.124 391.681 330.124 392.886C330.101 393.326 329.95 393.65 329.672 393.859C329.394 394.067 328.966 394.172 328.386 394.172C327.297 394.172 326.753 393.627 326.753 392.538C326.753 391.333 327.077 390.209 327.726 389.166C328.398 388.124 329.313 387.289 330.472 386.664C331.654 386.038 332.975 385.725 334.434 385.725C335.894 385.725 337.192 386.038 338.327 386.664C339.463 387.266 340.344 388.112 340.969 389.201C341.595 390.267 341.908 391.472 341.908 392.816C341.908 395.921 340.077 398.737 336.416 401.263C333.38 403.302 331.41 405.225 330.507 407.033C331.341 407.01 332.581 406.998 334.226 406.998C337.053 406.998 339.139 407.033 340.483 407.102Z" fill="#28DA10"/>
<path d="M354.825 409.709C352.832 409.709 351.106 409.234 349.646 408.284C348.209 407.311 347.108 406.025 346.344 404.426C345.579 402.804 345.197 401.043 345.197 399.142C345.197 397.103 345.567 395.168 346.309 393.338C347.074 391.507 348.186 390.035 349.646 388.923C351.106 387.788 352.855 387.22 354.894 387.22C356.98 387.22 358.764 387.776 360.247 388.888C361.73 389.977 362.843 391.437 363.584 393.268C364.349 395.075 364.731 397.034 364.731 399.142C364.731 401.066 364.326 402.838 363.515 404.461C362.727 406.059 361.58 407.334 360.074 408.284C358.567 409.234 356.818 409.709 354.825 409.709ZM354.755 406.894C356.771 406.894 358.359 406.175 359.517 404.739C360.676 403.279 361.255 401.413 361.255 399.142C361.255 397.52 361 396.014 360.491 394.624C359.981 393.233 359.239 392.121 358.266 391.287C357.316 390.452 356.215 390.035 354.964 390.035C353.713 390.035 352.6 390.464 351.627 391.321C350.677 392.156 349.947 393.268 349.437 394.658C348.927 396.049 348.672 397.543 348.672 399.142C348.672 400.602 348.916 401.923 349.402 403.105C349.889 404.264 350.596 405.19 351.523 405.886C352.45 406.558 353.527 406.894 354.755 406.894Z" fill="#28DA10"/>
<path d="M583.963 410.161C581.321 410.161 579.294 409.466 577.88 408.076C576.49 406.685 575.795 404.75 575.795 402.271C575.795 401.784 575.957 401.402 576.281 401.124C576.606 400.846 577.023 400.707 577.532 400.707C578.714 400.707 579.305 401.193 579.305 402.166C579.352 403.858 579.722 405.133 580.417 405.99C581.113 406.824 582.283 407.241 583.928 407.241C587.543 407.241 589.351 405.573 589.351 402.236C589.351 400.405 588.91 398.992 588.03 397.995C587.149 396.999 585.852 396.501 584.137 396.501C583.511 396.501 582.874 396.559 582.225 396.674C581.599 396.767 580.742 396.953 579.653 397.231C579.398 397.3 579.166 397.335 578.958 397.335C578.471 397.335 578.065 397.207 577.741 396.953C577.44 396.674 577.301 396.327 577.324 395.91L577.428 393.998C577.59 390.707 577.671 388.124 577.671 386.247C579.896 386.339 582.318 386.386 584.936 386.386C585.77 386.386 586.836 386.362 588.134 386.316C589.246 386.27 590.011 386.247 590.428 386.247C591.309 386.247 591.749 386.698 591.749 387.602C591.749 388.066 591.622 388.425 591.367 388.68C591.112 388.935 590.741 389.062 590.254 389.062C589.374 389.062 588.679 389.074 588.169 389.097L584.936 389.132C583.592 389.132 582.295 389.108 581.043 389.062C581.02 389.873 580.962 390.904 580.869 392.156C580.869 392.573 580.846 393.106 580.8 393.755C580.8 394.102 580.916 394.276 581.147 394.276C581.217 394.276 581.344 394.253 581.53 394.207C582.874 393.836 584.09 393.65 585.18 393.65C586.663 393.65 587.983 394.01 589.142 394.728C590.324 395.446 591.239 396.466 591.888 397.787C592.537 399.084 592.861 400.567 592.861 402.236C592.861 404.715 592.062 406.662 590.463 408.076C588.887 409.466 586.721 410.161 583.963 410.161Z" fill="#28DA10"/>
<path d="M814.145 408.632C814.145 409.072 813.983 409.42 813.658 409.674C813.357 409.929 812.928 410.057 812.372 410.057C811.353 410.057 810.843 409.582 810.843 408.632V391.6C809.962 392.758 809.082 393.847 808.201 394.867C807.946 395.076 807.61 395.18 807.193 395.18C806.706 395.18 806.324 395.064 806.046 394.832C805.791 394.577 805.664 394.253 805.664 393.859C805.664 393.697 805.71 393.511 805.803 393.303C805.895 393.071 806.034 392.862 806.22 392.677C806.892 391.866 807.517 391.09 808.097 390.348C808.699 389.584 809.151 389.004 809.452 388.61L810.182 387.637C810.368 387.359 810.623 387.15 810.947 387.011C811.295 386.872 811.654 386.803 812.025 386.803C812.627 386.803 813.125 386.965 813.519 387.289C813.913 387.591 814.11 388.008 814.11 388.541L814.145 408.632Z" fill="#28DA10"/>
<path d="M828.093 410.161C825.452 410.161 823.424 409.466 822.011 408.076C820.62 406.685 819.925 404.75 819.925 402.271C819.925 401.784 820.087 401.402 820.412 401.124C820.736 400.846 821.153 400.707 821.663 400.707C822.845 400.707 823.436 401.193 823.436 402.166C823.482 403.858 823.853 405.133 824.548 405.99C825.243 406.824 826.413 407.241 828.059 407.241C831.674 407.241 833.481 405.573 833.481 402.236C833.481 400.405 833.041 398.992 832.16 397.995C831.28 396.999 829.982 396.501 828.267 396.501C827.642 396.501 827.004 396.559 826.356 396.674C825.73 396.767 824.872 396.953 823.783 397.231C823.528 397.3 823.297 397.335 823.088 397.335C822.601 397.335 822.196 397.207 821.872 396.953C821.57 396.674 821.431 396.327 821.454 395.91L821.559 393.998C821.721 390.707 821.802 388.124 821.802 386.247C824.027 386.339 826.448 386.386 829.067 386.386C829.901 386.386 830.967 386.362 832.265 386.316C833.377 386.27 834.142 386.247 834.559 386.247C835.439 386.247 835.88 386.698 835.88 387.602C835.88 388.066 835.752 388.425 835.497 388.68C835.242 388.935 834.872 389.062 834.385 389.062C833.504 389.062 832.809 389.074 832.299 389.097L829.067 389.132C827.723 389.132 826.425 389.108 825.174 389.062C825.151 389.873 825.093 390.904 825 392.156C825 392.573 824.977 393.106 824.93 393.755C824.93 394.102 825.046 394.276 825.278 394.276C825.347 394.276 825.475 394.253 825.66 394.207C827.004 393.836 828.221 393.65 829.31 393.65C830.793 393.65 832.114 394.01 833.273 394.728C834.454 395.446 835.37 396.466 836.019 397.787C836.667 399.084 836.992 400.567 836.992 402.236C836.992 404.715 836.192 406.662 834.593 408.076C833.018 409.466 830.851 410.161 828.093 410.161Z" fill="#28DA10"/>
</g>
</g>
<g id="flecha">
<path id="Rectangle 2" d="M509.399 365.849L522.679 372.91L486.198 441.522L472.918 434.461L509.399 365.849Z" fill="#D51919"/>
<path id="Rectangle 1" d="M458.824 377.056L537.033 333.69V383.824L497.929 368.533L458.824 377.056Z" fill="#D51919"/>
<path id="Rectangle 3" d="M462.334 437.282L475.913 413.761L490.921 413.259L477.342 436.779L462.334 437.282Z" fill="#D51919"/>
<path id="Rectangle 4_2" d="M484.971 450L498.551 426.479L490.912 412.902L477.332 436.423L484.971 450Z" fill="#D51919"/>
</g>
</g>
<g id="enun01">
<path id="Rectangle 1_2" d="M58.7117 0H809.226L872.461 170.012L809.226 344.987H58.7117V0Z" fill="#02071A"/>
<path id="Rectangle 1 (Stroke)" fill-rule="evenodd" clip-rule="evenodd" d="M806.81 3.47594H62.1877V341.511H806.786L868.759 170.029L806.81 3.47594ZM809.226 0H58.7117V344.987H809.226L872.461 170.012L809.226 0Z" fill="#28DA10"/>
<path id="Ellipse 1_2" d="M102.651 178.142C102.651 202.138 82.9785 221.591 58.7117 221.591C34.4449 221.591 14.7727 202.138 14.7727 178.142C14.7727 154.146 34.4449 134.693 58.7117 134.693C82.9785 134.693 102.651 154.146 102.651 178.142Z" fill="#28DA10"/>
<path id="Ellipse 1 (Stroke)_2" fill-rule="evenodd" clip-rule="evenodd" d="M58.7117 220.722C82.5078 220.722 101.782 201.649 101.782 178.142C101.782 154.635 82.5078 135.562 58.7117 135.562C34.9156 135.562 15.6417 154.635 15.6417 178.142C15.6417 201.649 34.9156 220.722 58.7117 220.722ZM58.7117 221.591C82.9785 221.591 102.651 202.138 102.651 178.142C102.651 154.146 82.9785 134.693 58.7117 134.693C34.4449 134.693 14.7727 154.146 14.7727 178.142C14.7727 202.138 34.4449 221.591 58.7117 221.591Z" fill="#28DA10"/>
<g id="Dos gases se encuentran en condiciones de Avogadro al estar a la misma presi&#195;&#179;n y temperatura. A dichas condiciones se tiene una muestra de 380 g de gas fl&#195;&#186;or, F2, el cual ocupa un volumen de 10 L y en otro recipiente se tiene 160 g de gas ox&#195;&#173;geno, O2. Determine el volumen, en litros, ocupado por el gas ox&#195;&#173;geno. Datos: Masa molar (g/mol): F2 = 38; O2 = 32">
<path d="M105.372 47.7942V24.7383H117.886L122.672 29.5872V42.9453L117.886 47.7942H105.372ZM108.219 45.2602H116.603L119.825 41.9755V30.557L116.603 27.2722H108.219V45.2602Z" fill="white"/>
<path d="M130.183 47.7942L126.898 44.5094V34.7177L130.183 31.4329H137.941L141.226 34.7177V44.5094L137.941 47.7942H130.183ZM131.371 45.6044H136.752L138.473 43.8838L138.441 35.3434L136.752 33.6228H131.371L129.651 35.3434V43.8838L131.371 45.6044Z" fill="white"/>
<path d="M145.817 47.7942V45.5105H154.483L155.953 44.0089V42.038L154.389 40.4739H147.913L145.035 37.6584V34.3423L147.913 31.4329H157.142V33.7479H149.227L147.788 35.1557V36.7511L149.29 38.2527H155.828L158.706 41.0683V44.9161L155.859 47.7942H145.817Z" fill="white"/>
<path d="M179.332 53.6442V51.3605L188.154 51.3292L189.875 49.6399V45.229L187.341 47.7942H181.334L178.05 44.5094V34.7177L181.334 31.4329H187.341L189.875 34.0295V31.4329H192.628V50.3594L189.343 53.6442H179.332ZM186.653 45.6044L189.875 42.3509V36.9076L186.653 33.6228H182.523L180.803 35.3434V43.8838L182.523 45.6044H186.653Z" fill="white"/>
<path d="M199.516 47.7942L196.262 44.5094V40.7867L199.516 37.5019H207.837V35.4685L206.148 33.7479H198.39V31.4329H207.337L210.59 34.7177V47.7942H207.837V45.2602L205.303 47.7942H199.516ZM200.736 45.6044H204.615L207.837 42.4134V39.6605L200.736 39.6918L199.015 41.3811V43.8838L200.736 45.6044Z" fill="white"/>
<path d="M215.574 47.7942V45.5105H224.24L225.71 44.0089V42.038L224.146 40.4739H217.67L214.792 37.6584V34.3423L217.67 31.4329H226.899V33.7479H218.984L217.545 35.1557V36.7511L219.047 38.2527H225.585L228.463 41.0683V44.9161L225.616 47.7942H215.574Z" fill="white"/>
<path d="M235.561 47.7942L232.276 44.5094V34.7177L235.561 31.4329H242.85L246.135 34.7177V40.6303H235.029V43.7899L236.75 45.5105H245.853V47.7942H235.561ZM235.029 38.4404H243.382V35.3434L241.661 33.6228H236.75L235.029 35.3434V38.4404Z" fill="white"/>
<path d="M250.89 47.7942V45.5105H259.556L261.026 44.0089V42.038L259.462 40.4739H252.986L250.108 37.6584V34.3423L252.986 31.4329H262.215V33.7479H254.3L252.861 35.1557V36.7511L254.363 38.2527H260.901L263.779 41.0683V44.9161L260.932 47.7942H250.89Z" fill="white"/>
<path d="M283.498 47.7942V45.5105H292.163L293.634 44.0089V42.038L292.07 40.4739H285.594L282.716 37.6584V34.3423L285.594 31.4329H294.823V33.7479H286.908L285.469 35.1557V36.7511L286.97 38.2527H293.509L296.387 41.0683V44.9161L293.54 47.7942H283.498Z" fill="white"/>
<path d="M303.485 47.7942L300.2 44.5094V34.7177L303.485 31.4329H310.774L314.059 34.7177V40.6303H302.953V43.7899L304.674 45.5105H313.777V47.7942H303.485ZM302.953 38.4404H311.306V35.3434L309.585 33.6228H304.674L302.953 35.3434V38.4404Z" fill="white"/>
<path d="M337.101 47.7942L333.816 44.5094V34.7177L337.101 31.4329H344.39L347.675 34.7177V40.6303H336.569V43.7899L338.29 45.5105H347.393V47.7942H337.101ZM336.569 38.4404H344.922V35.3434L343.201 33.6228H338.29L336.569 35.3434V38.4404Z" fill="white"/>
<path d="M352.43 47.7942V31.4329H355.183V34.3736L358.03 31.4329H364.067L367.321 34.7177V47.7942H364.568V35.4059L362.91 33.6228H358.749L355.183 37.2517V47.7942H352.43Z" fill="white"/>
<path d="M375.197 47.7942L371.912 44.5094V34.7177L375.197 31.4329H382.674L385.552 34.2797V36.8763H382.799V35.187L381.235 33.6228H376.386L374.665 35.3434V43.7586L376.386 45.5105H385.395V47.7942H375.197Z" fill="white"/>
<path d="M392.859 47.7942L389.606 44.5094V31.4329H392.359L392.328 43.8525L394.017 45.6044H398.084L401.306 42.3822V31.4329H404.059V47.7942H401.306V45.2602L398.803 47.7942H392.859Z" fill="white"/>
<path d="M412.071 47.7942L408.786 44.5094V34.7177L412.071 31.4329H419.36L422.645 34.7177V40.6303H411.539V43.7899L413.26 45.5105H422.363V47.7942H412.071ZM411.539 38.4404H419.892V35.3434L418.171 33.6228H413.26L411.539 35.3434V38.4404Z" fill="white"/>
<path d="M427.4 47.7942V31.4329H430.153V34.3736L433 31.4329H439.038L442.291 34.7177V47.7942H439.538V35.4059L437.88 33.6228H433.72L430.153 37.2517V47.7942H427.4Z" fill="white"/>
<path d="M450.324 47.7942L447.446 44.9474V33.6228H445.725V31.4329H447.508L448.196 27.241H450.199V31.4329H453.671V33.6228H450.199V43.9776L451.669 45.5105H454.391V47.7942H450.324Z" fill="white"/>
<path d="M457.737 47.7942V31.4329H460.49V34.3736L463.336 31.4329H467.528V34.1859H463.462L460.49 37.2517V47.7942H457.737Z" fill="white"/>
<path d="M471.526 47.7942L468.273 44.5094V40.7867L471.526 37.5019H479.847V35.4685L478.158 33.7479H470.4V31.4329H479.347L482.6 34.7177V47.7942H479.847V45.2602L477.314 47.7942H471.526ZM472.746 45.6044H476.625L479.847 42.4134V39.6605L472.746 39.6918L471.026 41.3811V43.8838L472.746 45.6044Z" fill="white"/>
<path d="M487.584 47.7942V31.4329H490.337V34.3736L493.184 31.4329H499.222L502.475 34.7177V47.7942H499.722V35.4059L498.064 33.6228H493.904L490.337 37.2517V47.7942H487.584Z" fill="white"/>
<path d="M525.729 47.7942L522.444 44.5094V34.7177L525.729 31.4329H533.018L536.302 34.7177V40.6303H525.197V43.7899L526.917 45.5105H536.021V47.7942H525.729ZM525.197 38.4404H533.55V35.3434L531.829 33.6228H526.917L525.197 35.3434V38.4404Z" fill="white"/>
<path d="M541.058 47.7942V31.4329H543.811V34.3736L546.658 31.4329H552.695L555.949 34.7177V47.7942H553.196V35.4059L551.538 33.6228H547.377L543.811 37.2517V47.7942H541.058Z" fill="white"/>
<path d="M579.202 47.7942L575.917 44.5094V34.7177L579.202 31.4329H586.679L589.557 34.2797V36.8763H586.804V35.187L585.24 33.6228H580.391L578.67 35.3434V43.7586L580.391 45.5105H589.401V47.7942H579.202Z" fill="white"/>
<path d="M596.677 47.7942L593.392 44.5094V34.7177L596.677 31.4329H604.435L607.72 34.7177V44.5094L604.435 47.7942H596.677ZM597.866 45.6044H603.246L604.967 43.8838L604.936 35.3434L603.246 33.6228H597.866L596.145 35.3434V43.8838L597.866 45.6044Z" fill="white"/>
<path d="M612.464 47.7942V31.4329H615.217V34.3736L618.064 31.4329H624.102L627.355 34.7177V47.7942H624.602V35.4059L622.944 33.6228H618.784L615.217 37.2517V47.7942H612.464Z" fill="white"/>
<path d="M635.231 47.7942L631.947 44.5094V34.7177L635.231 31.4329H641.238L643.772 34.0295V24.7383H646.525V47.7942H643.772V45.229L641.238 47.7942H635.231ZM640.55 45.6044L643.772 42.3509V36.9076L640.55 33.6228H636.42L634.7 35.3434V43.8838L636.42 45.6044H640.55Z" fill="white"/>
<path d="M651.63 29.6498V25.9583H654.383V29.6498H651.63ZM651.63 47.7942V31.4329H654.383V47.7942H651.63Z" fill="white"/>
<path d="M662.391 47.7942L659.106 44.5094V34.7177L662.391 31.4329H669.867L672.745 34.2797V36.8763H669.992V35.187L668.428 33.6228H663.579L661.859 35.3434V43.7586L663.579 45.5105H672.589V47.7942H662.391Z" fill="white"/>
<path d="M676.956 29.6498V25.9583H679.709V29.6498H676.956ZM676.956 47.7942V31.4329H679.709V47.7942H676.956Z" fill="white"/>
<path d="M687.717 47.7942L684.432 44.5094V34.7177L687.717 31.4329H695.475L698.76 34.7177V44.5094L695.475 47.7942H687.717ZM688.906 45.6044H694.286L696.007 43.8838L695.976 35.3434L694.286 33.6228H688.906L687.185 35.3434V43.8838L688.906 45.6044Z" fill="white"/>
<path d="M703.504 47.7942V31.4329H706.257V34.3736L709.104 31.4329H715.142L718.395 34.7177V47.7942H715.642V35.4059L713.984 33.6228H709.823L706.257 37.2517V47.7942H703.504Z" fill="white"/>
<path d="M726.271 47.7942L722.986 44.5094V34.7177L726.271 31.4329H733.56L736.845 34.7177V40.6303H725.739V43.7899L727.46 45.5105H736.563V47.7942H726.271ZM725.739 38.4404H734.092V35.3434L732.371 33.6228H727.46L725.739 35.3434V38.4404Z" fill="white"/>
<path d="M741.6 47.7942V45.5105H750.266L751.736 44.0089V42.038L750.172 40.4739H743.696L740.818 37.6584V34.3423L743.696 31.4329H752.925V33.7479H745.01L743.571 35.1557V36.7511L745.073 38.2527H751.611L754.489 41.0683V44.9161L751.642 47.7942H741.6Z" fill="white"/>
<path d="M777.117 47.7942L773.833 44.5094V34.7177L777.117 31.4329H783.124L785.658 34.0295V24.7383H788.411V47.7942H785.658V45.229L783.124 47.7942H777.117ZM782.436 45.6044L785.658 42.3509V36.9076L782.436 33.6228H778.306L776.586 35.3434V43.8838L778.306 45.6044H782.436Z" fill="white"/>
<path d="M796.425 47.7942L793.14 44.5094V34.7177L796.425 31.4329H803.714L806.999 34.7177V40.6303H795.893V43.7899L797.614 45.5105H806.717V47.7942H796.425ZM795.893 38.4404H804.246V35.3434L802.525 33.6228H797.614L795.893 35.3434V38.4404Z" fill="white"/>
<path d="M103.089 82.5536L110.878 59.4977H115.289L123.079 82.5536H120.107L118.136 76.5472H108.031L106.092 82.5536H103.089ZM108.876 74.0445H117.323L113.443 62.1881H112.724L108.876 74.0445Z" fill="white"/>
<path d="M129.646 82.5536L122.701 66.1924H125.704L130.991 79.8007H131.711L136.966 66.1924H140.001L133.056 82.5536H129.646Z" fill="white"/>
<path d="M145.152 82.5536L141.867 79.2688V69.4771L145.152 66.1924H152.911L156.195 69.4771V79.2688L152.911 82.5536H145.152ZM146.341 80.3638H151.722L153.442 78.6432L153.411 70.1028L151.722 68.3822H146.341L144.62 70.1028V78.6432L146.341 80.3638Z" fill="white"/>
<path d="M161.694 88.4036V86.1199L170.516 86.0886L172.237 84.3993V79.9884L169.703 82.5536H163.696L160.411 79.2688V69.4771L163.696 66.1924H169.703L172.237 68.7889V66.1924H174.99V85.1189L171.705 88.4036H161.694ZM169.014 80.3638L172.237 77.1103V71.667L169.014 68.3822H164.885L163.164 70.1028V78.6432L164.885 80.3638H169.014Z" fill="white"/>
<path d="M181.878 82.5536L178.624 79.2688V75.5461L181.878 72.2613H190.199V70.2279L188.51 68.5073H180.752V66.1924H189.699L192.952 69.4771V82.5536H190.199V80.0196L187.665 82.5536H181.878ZM183.098 80.3638H186.977L190.199 77.1729V74.4199L183.098 74.4512L181.377 76.1405V78.6432L183.098 80.3638Z" fill="white"/>
<path d="M200.845 82.5536L197.561 79.2688V69.4771L200.845 66.1924H206.852L209.386 68.7889V59.4977H212.139V82.5536H209.386V79.9884L206.852 82.5536H200.845ZM206.164 80.3638L209.386 77.1103V71.667L206.164 68.3822H202.034L200.314 70.1028V78.6432L202.034 80.3638H206.164Z" fill="white"/>
<path d="M217.244 82.5536V66.1924H219.997V69.133L222.843 66.1924H227.035V68.9453H222.969L219.997 72.0111V82.5536H217.244Z" fill="white"/>
<path d="M232.526 82.5536L229.241 79.2688V69.4771L232.526 66.1924H240.284L243.569 69.4771V79.2688L240.284 82.5536H232.526ZM233.715 80.3638H239.095L240.816 78.6432L240.785 70.1028L239.095 68.3822H233.715L231.994 70.1028V78.6432L233.715 80.3638Z" fill="white"/>
<path d="M273.175 82.5536L269.922 79.2688V75.5461L273.175 72.2613H281.497V70.2279L279.808 68.5073H272.049V66.1924H280.996L284.25 69.4771V82.5536H281.497V80.0196L278.963 82.5536H273.175ZM274.395 80.3638H278.275L281.497 77.1729V74.4199L274.395 74.4512L272.675 76.1405V78.6432L274.395 80.3638Z" fill="white"/>
<path d="M289.234 82.5536V59.4977H291.987V82.5536H289.234Z" fill="white"/>
<path d="M323.073 82.5536L319.789 79.2688V69.4771L323.073 66.1924H330.362L333.647 69.4771V75.3897H322.541V78.5493L324.262 80.2699H333.366V82.5536H323.073ZM322.541 73.1999H330.894V70.1028L329.174 68.3822H324.262L322.541 70.1028V73.1999Z" fill="white"/>
<path d="M338.402 82.5536V80.2699H347.068L348.538 78.7683V76.7974L346.974 75.2333H340.498L337.62 72.4178V69.1017L340.498 66.1924H349.727V68.5073H341.812L340.373 69.9151V71.5105L341.875 73.0122H348.413L351.291 75.8277V79.6755L348.444 82.5536H338.402Z" fill="white"/>
<path d="M358.699 82.5536L355.82 79.7068V68.3822H354.1V66.1924H355.883L356.571 62.0004H358.573V66.1924H362.046V68.3822H358.573V78.737L360.044 80.2699H362.765V82.5536H358.699Z" fill="white"/>
<path d="M367.895 82.5536L364.641 79.2688V75.5461L367.895 72.2613H376.216V70.2279L374.527 68.5073H366.768V66.1924H375.716L378.969 69.4771V82.5536H376.216V80.0196L373.682 82.5536H367.895ZM369.115 80.3638H372.994L376.216 77.1729V74.4199L369.115 74.4512L367.394 76.1405V78.6432L369.115 80.3638Z" fill="white"/>
<path d="M383.953 82.5536V66.1924H386.706V69.133L389.553 66.1924H393.745V68.9453H389.678L386.706 72.0111V82.5536H383.953Z" fill="white"/>
<path d="M421.524 82.5536L418.27 79.2688V75.5461L421.524 72.2613H429.845V70.2279L428.156 68.5073H420.398V66.1924H429.345L432.598 69.4771V82.5536H429.845V80.0196L427.311 82.5536H421.524ZM422.744 80.3638H426.623L429.845 77.1729V74.4199L422.744 74.4512L421.023 76.1405V78.6432L422.744 80.3638Z" fill="white"/>
<path d="M460.661 82.5536V59.4977H463.414V82.5536H460.661Z" fill="white"/>
<path d="M470.296 82.5536L467.042 79.2688V75.5461L470.296 72.2613H478.617V70.2279L476.928 68.5073H469.169V66.1924H478.116L481.37 69.4771V82.5536H478.617V80.0196L476.083 82.5536H470.296ZM471.516 80.3638H475.395L478.617 77.1729V74.4199L471.516 74.4512L469.795 76.1405V78.6432L471.516 80.3638Z" fill="white"/>
<path d="M509.433 82.5536V66.1924H512.186V69.133L515.032 66.1924H521.07L523.948 69.1017L526.764 66.1924H532.801L536.086 69.4771V82.5536H533.333V70.1654L531.675 68.3822H527.483L524.324 71.5731V82.5536H521.571L521.602 70.1654L519.913 68.3822H515.752L512.186 72.0111V82.5536H509.433Z" fill="white"/>
<path d="M541.052 64.4092V60.7177H543.805V64.4092H541.052ZM541.052 82.5536V66.1924H543.805V82.5536H541.052Z" fill="white"/>
<path d="M548.904 82.5536V80.2699H557.569L559.039 78.7683V76.7974L557.475 75.2333H551L548.121 72.4178V69.1017L551 66.1924H560.228V68.5073H552.313L550.874 69.9151V71.5105L552.376 73.0122H558.914L561.792 75.8277V79.6755L558.946 82.5536H548.904Z" fill="white"/>
<path d="M566.134 82.5536V66.1924H568.887V69.133L571.734 66.1924H577.771L580.649 69.1017L583.465 66.1924H589.503L592.787 69.4771V82.5536H590.034V70.1654L588.376 68.3822H584.184L581.025 71.5731V82.5536H578.272L578.303 70.1654L576.614 68.3822H572.453L568.887 72.0111V82.5536H566.134Z" fill="white"/>
<path d="M599.537 82.5536L596.283 79.2688V75.5461L599.537 72.2613H607.858V70.2279L606.169 68.5073H598.41V66.1924H607.357L610.611 69.4771V82.5536H607.858V80.0196L605.324 82.5536H599.537ZM600.757 80.3638H604.636L607.858 77.1729V74.4199L600.757 74.4512L599.036 76.1405V78.6432L600.757 80.3638Z" fill="white"/>
<path d="M638.674 88.4036V66.1924H641.427V68.7889L643.929 66.1924H649.967L653.22 69.4771V79.2688L649.967 82.5536H643.929L641.427 79.9884V88.4036H638.674ZM644.649 80.3638H648.778L650.467 78.6432V70.1028L648.778 68.3822H644.649L641.427 71.667V77.1103L644.649 80.3638Z" fill="white"/>
<path d="M657.981 82.5536V66.1924H660.734V69.133L663.581 66.1924H667.773V68.9453H663.706L660.734 72.0111V82.5536H657.981Z" fill="white"/>
<path d="M673.264 82.5536L669.979 79.2688V69.4771L673.264 66.1924H680.553L683.837 69.4771V75.3897H672.732V78.5493L674.452 80.2699H683.556V82.5536H673.264ZM672.732 73.1999H681.084V70.1028L679.364 68.3822H674.452L672.732 70.1028V73.1999Z" fill="white"/>
<path d="M688.593 82.5536V80.2699H697.258L698.729 78.7683V76.7974L697.164 75.2333H690.689L687.811 72.4178V69.1017L690.689 66.1924H699.917V68.5073H692.003L690.564 69.9151V71.5105L692.065 73.0122H698.603L701.482 75.8277V79.6755L698.635 82.5536H688.593Z" fill="white"/>
<path d="M705.823 64.4092V60.7177H708.576V64.4092H705.823ZM705.823 82.5536V66.1924H708.576V82.5536H705.823Z" fill="white"/>
<path d="M719.306 64.4092L722.309 59.748H725.531L721.652 64.4092H719.306ZM716.584 82.5536L713.299 79.2688V69.4771L716.584 66.1924H724.342L727.627 69.4771V79.2688L724.342 82.5536H716.584ZM717.773 80.3638H723.153L724.874 78.6432L724.843 70.1028L723.153 68.3822H717.773L716.052 70.1028V78.6432L717.773 80.3638Z" fill="white"/>
<path d="M732.371 82.5536V66.1924H735.124V69.133L737.971 66.1924H744.009L747.262 69.4771V82.5536H744.509V70.1654L742.851 68.3822H738.691L735.124 72.0111V82.5536H732.371Z" fill="white"/>
<path d="M778.092 88.4036L781.033 81.4274H779.875L773.149 66.1924H776.184L781.439 78.7057H782.159L787.008 66.1924H790.011L780.876 88.4036H778.092Z" fill="white"/>
<path d="M108.282 117.313L105.404 114.466V103.142H103.683V100.952H105.466L106.154 96.7598H108.157V100.952H111.629V103.142H108.157V113.496L109.627 115.029H112.349V117.313H108.282Z" fill="white"/>
<path d="M118.604 117.313L115.319 114.028V104.237L118.604 100.952H125.893L129.178 104.237V110.149H118.072V113.309L119.793 115.029H128.896V117.313H118.604ZM118.072 107.959H126.425V104.862L124.704 103.142H119.793L118.072 104.862V107.959Z" fill="white"/>
<path d="M133.933 117.313V100.952H136.686V103.892L139.533 100.952H145.571L148.449 103.861L151.264 100.952H157.302L160.587 104.237V117.313H157.834V104.925L156.176 103.142H151.984L148.824 106.333V117.313H146.071L146.102 104.925L144.413 103.142H140.252L136.686 106.77V117.313H133.933Z" fill="white"/>
<path d="M165.553 123.163V100.952H168.306V103.548L170.808 100.952H176.846L180.1 104.237V114.028L176.846 117.313H170.808L168.306 114.748V123.163H165.553ZM171.528 115.123H175.657L177.347 113.403V104.862L175.657 103.142H171.528L168.306 106.426V111.87L171.528 115.123Z" fill="white"/>
<path d="M187.617 117.313L184.332 114.028V104.237L187.617 100.952H194.906L198.191 104.237V110.149H187.085V113.309L188.806 115.029H197.909V117.313H187.617ZM187.085 107.959H195.438V104.862L193.717 103.142H188.806L187.085 104.862V107.959Z" fill="white"/>
<path d="M202.946 117.313V100.952H205.699V103.892L208.546 100.952H212.738V103.705H208.671L205.699 106.77V117.313H202.946Z" fill="white"/>
<path d="M216.736 117.313L213.482 114.028V110.306L216.736 107.021H225.057V104.987L223.368 103.267H215.609V100.952H224.556L227.81 104.237V117.313H225.057V114.779L222.523 117.313H216.736ZM217.956 115.123H221.835L225.057 111.932V109.179L217.956 109.211L216.235 110.9V113.403L217.956 115.123Z" fill="white"/>
<path d="M235.86 117.313L232.982 114.466V103.142H231.261V100.952H233.044L233.732 96.7598H235.734V100.952H239.207V103.142H235.734V113.496L237.205 115.029H239.926V117.313H235.86Z" fill="white"/>
<path d="M246.37 117.313L243.116 114.028V100.952H245.869L245.838 113.371L247.527 115.123H251.594L254.816 111.901V100.952H257.569V117.313H254.816V114.779L252.313 117.313H246.37Z" fill="white"/>
<path d="M262.672 117.313V100.952H265.425V103.892L268.272 100.952H272.464V103.705H268.397L265.425 106.77V117.313H262.672Z" fill="white"/>
<path d="M276.461 117.313L273.208 114.028V110.306L276.461 107.021H284.783V104.987L283.093 103.267H275.335V100.952H284.282L287.536 104.237V117.313H284.783V114.779L282.249 117.313H276.461ZM277.681 115.123H281.561L284.783 111.932V109.179L277.681 109.211L275.961 110.9V113.403L277.681 115.123Z" fill="white"/>
<path d="M291.925 117.313V113.622H294.678V117.313H291.925Z" fill="white"/>
<path d="M304.476 117.313L312.266 94.2571H316.677L324.467 117.313H321.495L319.524 111.307H309.419L307.48 117.313H304.476ZM310.264 108.804H318.71L314.831 96.9475H314.112L310.264 108.804Z" fill="white"/>
<path d="M337.467 117.313L334.182 114.028V104.237L337.467 100.952H343.473L346.007 103.548V94.2571H348.76V117.313H346.007V114.748L343.473 117.313H337.467ZM342.785 115.123L346.007 111.87V106.426L342.785 103.142H338.656L336.935 104.862V113.403L338.656 115.123H342.785Z" fill="white"/>
<path d="M353.865 99.1686V95.4772H356.618V99.1686H353.865ZM353.865 117.313V100.952H356.618V117.313H353.865Z" fill="white"/>
<path d="M364.626 117.313L361.341 114.028V104.237L364.626 100.952H372.103L374.981 103.799V106.395H372.228V104.706L370.664 103.142H365.815L364.094 104.862V113.277L365.815 115.029H374.825V117.313H364.626Z" fill="white"/>
<path d="M379.192 117.313V94.2571H381.944V103.548L384.447 100.952H390.485L393.738 104.237V117.313H390.985V104.925L389.327 103.142H385.167L381.944 106.426V117.313H379.192Z" fill="white"/>
<path d="M400.496 117.313L397.243 114.028V110.306L400.496 107.021H408.818V104.987L407.128 103.267H399.37V100.952H408.317L411.571 104.237V117.313H408.818V114.779L406.284 117.313H400.496ZM401.716 115.123H405.596L408.818 111.932V109.179L401.716 109.211L399.996 110.9V113.403L401.716 115.123Z" fill="white"/>
<path d="M416.554 117.313V115.029H425.22L426.69 113.528V111.557L425.126 109.993H418.65L415.772 107.177V103.861L418.65 100.952H427.879V103.267H419.964L418.525 104.675V106.27L420.027 107.772H426.565L429.443 110.587V114.435L426.596 117.313H416.554Z" fill="white"/>
<path d="M443.782 117.313L440.498 114.028V104.237L443.782 100.952H451.259L454.137 103.799V106.395H451.384V104.706L449.82 103.142H444.971L443.25 104.862V113.277L444.971 115.029H453.981V117.313H443.782Z" fill="white"/>
<path d="M461.257 117.313L457.972 114.028V104.237L461.257 100.952H469.015L472.3 104.237V114.028L469.015 117.313H461.257ZM462.446 115.123H467.827L469.547 113.403L469.516 104.862L467.827 103.142H462.446L460.725 104.862V113.403L462.446 115.123Z" fill="white"/>
<path d="M477.044 117.313V100.952H479.797V103.892L482.644 100.952H488.682L491.935 104.237V117.313H489.182V104.925L487.524 103.142H483.364L479.797 106.77V117.313H477.044Z" fill="white"/>
<path d="M499.811 117.313L496.527 114.028V104.237L499.811 100.952H505.818L508.352 103.548V94.2571H511.105V117.313H508.352V114.748L505.818 117.313H499.811ZM505.13 115.123L508.352 111.87V106.426L505.13 103.142H501L499.28 104.862V113.403L501 115.123H505.13Z" fill="white"/>
<path d="M516.21 99.1686V95.4772H518.963V99.1686H516.21ZM516.21 117.313V100.952H518.963V117.313H516.21Z" fill="white"/>
<path d="M526.971 117.313L523.686 114.028V104.237L526.971 100.952H534.447L537.325 103.799V106.395H534.573V104.706L533.008 103.142H528.159L526.439 104.862V113.277L528.159 115.029H537.169V117.313H526.971Z" fill="white"/>
<path d="M541.536 99.1686V95.4772H544.289V99.1686H541.536ZM541.536 117.313V100.952H544.289V117.313H541.536Z" fill="white"/>
<path d="M552.297 117.313L549.012 114.028V104.237L552.297 100.952H560.055L563.34 104.237V114.028L560.055 117.313H552.297ZM553.486 115.123H558.866L560.587 113.403L560.556 104.862L558.866 103.142H553.486L551.765 104.862V113.403L553.486 115.123Z" fill="white"/>
<path d="M568.084 117.313V100.952H570.837V103.892L573.684 100.952H579.722L582.975 104.237V117.313H580.222V104.925L578.564 103.142H574.403L570.837 106.77V117.313H568.084Z" fill="white"/>
<path d="M590.851 117.313L587.566 114.028V104.237L590.851 100.952H598.14L601.425 104.237V110.149H590.319V113.309L592.04 115.029H601.143V117.313H590.851ZM590.319 107.959H598.672V104.862L596.952 103.142H592.04L590.319 104.862V107.959Z" fill="white"/>
<path d="M606.18 117.313V115.029H614.846L616.316 113.528V111.557L614.752 109.993H608.276L605.398 107.177V103.861L608.276 100.952H617.505V103.267H609.59L608.151 104.675V106.27L609.653 107.772H616.191L619.069 110.587V114.435L616.222 117.313H606.18Z" fill="white"/>
<path d="M630.499 117.313V115.029H639.164L640.635 113.528V111.557L639.07 109.993H632.595L629.717 107.177V103.861L632.595 100.952H641.823V103.267H633.909L632.47 104.675V106.27L633.971 107.772H640.509L643.388 110.587V114.435L640.541 117.313H630.499Z" fill="white"/>
<path d="M650.486 117.313L647.201 114.028V104.237L650.486 100.952H657.775L661.06 104.237V110.149H649.954V113.309L651.675 115.029H660.778V117.313H650.486ZM649.954 107.959H658.307V104.862L656.586 103.142H651.675L649.954 104.862V107.959Z" fill="white"/>
<path d="M675.969 117.313L673.091 114.466V103.142H671.37V100.952H673.153L673.841 96.7598H675.844V100.952H679.316V103.142H675.844V113.496L677.314 115.029H680.036V117.313H675.969Z" fill="white"/>
<path d="M683.382 99.1686V95.4772H686.135V99.1686H683.382ZM683.382 117.313V100.952H686.135V117.313H683.382Z" fill="white"/>
<path d="M694.142 117.313L690.858 114.028V104.237L694.142 100.952H701.432L704.716 104.237V110.149H693.611V113.309L695.331 115.029H704.435V117.313H694.142ZM693.611 107.959H701.963V104.862L700.243 103.142H695.331L693.611 104.862V107.959Z" fill="white"/>
<path d="M709.472 117.313V100.952H712.225V103.892L715.071 100.952H721.109L724.363 104.237V117.313H721.61V104.925L719.952 103.142H715.791L712.225 106.77V117.313H709.472Z" fill="white"/>
<path d="M732.239 117.313L728.954 114.028V104.237L732.239 100.952H739.528L742.812 104.237V110.149H731.707V113.309L733.427 115.029H742.531V117.313H732.239ZM731.707 107.959H740.06V104.862L738.339 103.142H733.427L731.707 104.862V107.959Z" fill="white"/>
<path d="M757.753 117.313L754.499 114.028V100.952H757.252L757.221 113.371L758.91 115.123H762.977L766.2 111.901V100.952H768.952V117.313H766.2V114.779L763.697 117.313H757.753Z" fill="white"/>
<path d="M774.055 117.313V100.952H776.808V103.892L779.655 100.952H785.693L788.946 104.237V117.313H786.193V104.925L784.535 103.142H780.375L776.808 106.77V117.313H774.055Z" fill="white"/>
<path d="M795.696 117.313L792.443 114.028V110.306L795.696 107.021H804.018V104.987L802.328 103.267H794.57V100.952H803.517L806.77 104.237V117.313H804.018V114.779L801.484 117.313H795.696ZM796.916 115.123H800.795L804.018 111.932V109.179L796.916 109.211L795.196 110.9V113.403L796.916 115.123Z" fill="white"/>
<path d="M105.216 152.072V135.711H107.969V138.652L110.816 135.711H116.853L119.731 138.621L122.547 135.711H128.585L131.869 138.996V152.072H129.117V139.684L127.458 137.901H123.266L120.107 141.092V152.072H117.354L117.385 139.684L115.696 137.901H111.535L107.969 141.53V152.072H105.216Z" fill="white"/>
<path d="M139.933 152.072L136.679 148.788V135.711H139.432L139.401 148.131L141.09 149.883H145.157L148.379 146.66V135.711H151.132V152.072H148.379V149.538L145.876 152.072H139.933Z" fill="white"/>
<path d="M159.144 152.072L155.859 148.788V138.996L159.144 135.711H166.433L169.718 138.996V144.909H158.612V148.068L160.333 149.789H169.436V152.072H159.144ZM158.612 142.719H166.965V139.622L165.245 137.901H160.333L158.612 139.622V142.719Z" fill="white"/>
<path d="M174.473 152.072V149.789H183.139L184.609 148.287V146.316L183.045 144.752H176.569L173.691 141.937V138.621L176.569 135.711H185.798V138.026H177.883L176.444 139.434V141.029L177.946 142.531H184.484L187.362 145.346V149.194L184.515 152.072H174.473Z" fill="white"/>
<path d="M194.77 152.072L191.891 149.226V137.901H190.171V135.711H191.954L192.642 131.519H194.644V135.711H198.117V137.901H194.644V148.256L196.115 149.789H198.836V152.072H194.77Z" fill="white"/>
<path d="M202.182 152.072V135.711H204.935V138.652L207.782 135.711H211.974V138.464H207.907L204.935 141.53V152.072H202.182Z" fill="white"/>
<path d="M215.972 152.072L212.718 148.788V145.065L215.972 141.78H224.293V139.747L222.604 138.026H214.846V135.711H223.793L227.046 138.996V152.072H224.293V149.538L221.759 152.072H215.972ZM217.192 149.883H221.071L224.293 146.692V143.939L217.192 143.97L215.471 145.659V148.162L217.192 149.883Z" fill="white"/>
<path d="M251.302 152.072L248.017 148.788V138.996L251.302 135.711H257.309L259.843 138.308V129.017H262.596V152.072H259.843V149.507L257.309 152.072H251.302ZM256.62 149.883L259.843 146.629V141.186L256.62 137.901H252.491L250.77 139.622V148.162L252.491 149.883H256.62Z" fill="white"/>
<path d="M270.61 152.072L267.325 148.788V138.996L270.61 135.711H277.899L281.184 138.996V144.909H270.078V148.068L271.799 149.789H280.902V152.072H270.61ZM270.078 142.719H278.431V139.622L276.71 137.901H271.799L270.078 139.622V142.719Z" fill="white"/>
<path d="M304.492 152.072L301.332 148.882L303.178 147.036L305.712 149.538H313.189L314.909 147.818V143.031L313.157 141.217H306.369V138.714H313.157L314.909 136.9V133.271L313.189 131.519L306.244 131.55L303.71 134.053L301.864 132.207L305.024 129.017H314.471L317.756 132.301V137.651L315.472 139.966L317.756 142.312V148.788L314.471 152.072H304.492Z" fill="white"/>
<path d="M325.281 152.072L321.997 148.788V141.999L324.249 139.747L322.747 138.183V132.301L326.032 129.017H334.885L338.17 132.301V138.183L336.668 139.747L338.921 141.999V148.788L335.636 152.072H325.281ZM326.814 138.652H334.103L335.323 137.338V133.271L333.634 131.519L327.315 131.55L325.594 133.271V137.338L326.814 138.652ZM326.564 149.538H334.354L336.074 147.818V142.906L334.354 141.154H326.595L324.843 142.906V147.818L326.564 149.538Z" fill="white"/>
<path d="M346.453 152.072L343.168 148.788V132.301L346.453 129.017H356.463L359.748 132.301V148.788L356.463 152.072H346.453ZM347.735 149.538H355.181L356.901 147.818V133.271L355.181 131.55H347.735L346.015 133.271L346.046 147.818L347.735 149.538Z" fill="white"/>
<path d="M381.711 157.922V155.639L390.533 155.607L392.254 153.918V149.507L389.72 152.072H383.713L380.428 148.788V138.996L383.713 135.711H389.72L392.254 138.308V135.711H395.007V154.638L391.722 157.922H381.711ZM389.031 149.883L392.254 146.629V141.186L389.031 137.901H384.902L383.181 139.622V148.162L384.902 149.883H389.031Z" fill="white"/>
<path d="M419.384 152.072L416.099 148.788V138.996L419.384 135.711H425.39L427.924 138.308V129.017H430.677V152.072H427.924V149.507L425.39 152.072H419.384ZM424.702 149.883L427.924 146.629V141.186L424.702 137.901H420.573L418.852 139.622V148.162L420.573 149.883H424.702Z" fill="white"/>
<path d="M438.692 152.072L435.407 148.788V138.996L438.692 135.711H445.981L449.265 138.996V144.909H438.16V148.068L439.88 149.789H448.984V152.072H438.692ZM438.16 142.719H446.512V139.622L444.792 137.901H439.88L438.16 139.622V142.719Z" fill="white"/>
<path d="M471.291 157.922V155.639L480.113 155.607L481.833 153.918V149.507L479.299 152.072H473.293L470.008 148.788V138.996L473.293 135.711H479.299L481.833 138.308V135.711H484.586V154.638L481.301 157.922H471.291ZM478.611 149.883L481.833 146.629V141.186L478.611 137.901H474.482L472.761 139.622V148.162L474.482 149.883H478.611Z" fill="white"/>
<path d="M491.474 152.072L488.221 148.788V145.065L491.474 141.78H499.796V139.747L498.106 138.026H490.348V135.711H499.295L502.549 138.996V152.072H499.796V149.538L497.262 152.072H491.474ZM492.694 149.883H496.574L499.796 146.692V143.939L492.694 143.97L490.974 145.659V148.162L492.694 149.883Z" fill="white"/>
<path d="M507.533 152.072V149.789H516.198L517.668 148.287V146.316L516.104 144.752H509.629L506.751 141.937V138.621L509.629 135.711H518.857V138.026H510.943L509.503 139.434V141.029L511.005 142.531H517.543L520.421 145.346V149.194L517.575 152.072H507.533Z" fill="white"/>
<path d="M541.251 152.072V137.901H539.562V135.711H541.251V131.895L544.129 129.017H548.196V131.3H545.474L544.004 132.833V135.711H547.508V137.901H544.004V152.072H541.251Z" fill="white"/>
<path d="M551.329 152.072V129.017H554.082V152.072H551.329Z" fill="white"/>
<path d="M565.093 133.928L568.097 129.267H571.288L567.408 133.928H565.093ZM562.278 152.072L559.024 148.788V135.711H561.777L561.746 148.131L563.435 149.883H567.502L570.724 146.66V135.711H573.477V152.072H570.724V149.538L568.222 152.072H562.278Z" fill="white"/>
<path d="M581.49 152.072L578.205 148.788V138.996L581.49 135.711H589.248L592.533 138.996V148.788L589.248 152.072H581.49ZM582.678 149.883H588.059L589.78 148.162L589.749 139.622L588.059 137.901H582.678L580.958 139.622V148.162L582.678 149.883Z" fill="white"/>
<path d="M597.277 152.072V135.711H600.03V138.652L602.877 135.711H607.069V138.464H603.002L600.03 141.53V152.072H597.277Z" fill="white"/>
<path d="M608.14 155.514L609.392 148.381H612.145L609.736 155.514H608.14Z" fill="white"/>
<path d="M633.501 152.072V129.017H648.361V131.644H636.348V139.09H646.89V141.686H636.348V152.072H633.501Z" fill="white"/>
<path d="M650.253 152.072V149.611L658.47 141.54V139.538L657.344 138.37L653.089 138.391L651.4 140.101L650.17 138.85L652.276 136.702H658.199L660.368 138.892V142.291L652.38 150.195V150.321H660.597V152.072H650.253Z" fill="white"/>
<path d="M662.772 155.514L664.024 148.381H666.777L664.368 155.514H662.772Z" fill="white"/>
<path d="M690.886 152.072L687.601 148.788V138.996L690.886 135.711H698.175L701.46 138.996V144.909H690.354V148.068L692.075 149.789H701.178V152.072H690.886ZM690.354 142.719H698.707V139.622L696.986 137.901H692.075L690.354 139.622V142.719Z" fill="white"/>
<path d="M706.215 152.072V129.017H708.968V152.072H706.215Z" fill="white"/>
<path d="M752.097 152.072L748.812 148.788V138.996L752.097 135.711H759.573L762.452 138.558V141.154H759.699V139.465L758.134 137.901H753.286L751.565 139.622V148.037L753.286 149.789H762.295V152.072H752.097Z" fill="white"/>
<path d="M769.759 152.072L766.506 148.788V135.711H769.259L769.227 148.131L770.917 149.883H774.984L778.206 146.66V135.711H780.959V152.072H778.206V149.538L775.703 152.072H769.759Z" fill="white"/>
<path d="M787.845 152.072L784.591 148.788V145.065L787.845 141.78H796.166V139.747L794.477 138.026H786.719V135.711H795.666L798.919 138.996V152.072H796.166V149.538L793.632 152.072H787.845ZM789.065 149.883H792.944L796.166 146.692V143.939L789.065 143.97L787.344 145.659V148.162L789.065 149.883Z" fill="white"/>
<path d="M803.903 152.072V129.017H806.656V152.072H803.903Z" fill="white"/>
<path d="M108.125 186.832L104.841 183.547V173.755L108.125 170.471H115.884L119.168 173.755V183.547L115.884 186.832H108.125ZM109.314 184.642H114.695L116.415 182.921L116.384 174.381L114.695 172.66H109.314L107.593 174.381V182.921L109.314 184.642Z" fill="white"/>
<path d="M126.669 186.832L123.385 183.547V173.755L126.669 170.471H134.146L137.024 173.317V175.914H134.271V174.225L132.707 172.66H127.858L126.137 174.381V182.796L127.858 184.548H136.868V186.832H126.669Z" fill="white"/>
<path d="M144.332 186.832L141.078 183.547V170.471H143.831L143.8 182.89L145.489 184.642H149.556L152.778 181.42V170.471H155.531V186.832H152.778V184.298L150.276 186.832H144.332Z" fill="white"/>
<path d="M160.634 192.682V170.471H163.387V173.067L165.89 170.471H171.927L175.181 173.755V183.547L171.927 186.832H165.89L163.387 184.267V192.682H160.634ZM166.609 184.642H170.739L172.428 182.921V174.381L170.739 172.66H166.609L163.387 175.945V181.389L166.609 184.642Z" fill="white"/>
<path d="M181.725 186.832L178.472 183.547V179.824L181.725 176.54H190.046V174.506L188.357 172.786H180.599V170.471H189.546L192.799 173.755V186.832H190.046V184.298L187.512 186.832H181.725ZM182.945 184.642H186.824L190.046 181.451V178.698L182.945 178.729L181.224 180.419V182.921L182.945 184.642Z" fill="white"/>
<path d="M210.504 186.832L207.25 183.547V170.471H210.003L209.972 182.89L211.661 184.642H215.728L218.95 181.42V170.471H221.703V186.832H218.95V184.298L216.448 186.832H210.504Z" fill="white"/>
<path d="M226.806 186.832V170.471H229.559V173.411L232.406 170.471H238.444L241.697 173.755V186.832H238.944V174.444L237.286 172.66H233.126L229.559 176.289V186.832H226.806Z" fill="white"/>
<path d="M261.074 186.832L254.129 170.471H257.132L262.419 184.079H263.139L268.394 170.471H271.429L264.484 186.832H261.074Z" fill="white"/>
<path d="M276.58 186.832L273.295 183.547V173.755L276.58 170.471H284.338L287.623 173.755V183.547L284.338 186.832H276.58ZM277.769 184.642H283.15L284.87 182.921L284.839 174.381L283.15 172.66H277.769L276.048 174.381V182.921L277.769 184.642Z" fill="white"/>
<path d="M292.367 186.832V163.776H295.12V186.832H292.367Z" fill="white"/>
<path d="M303.316 186.832L300.062 183.547V170.471H302.815L302.784 182.89L304.473 184.642H308.54L311.762 181.42V170.471H314.515V186.832H311.762V184.298L309.26 186.832H303.316Z" fill="white"/>
<path d="M319.618 186.832V170.471H322.371V173.411L325.218 170.471H331.256L334.134 173.38L336.949 170.471H342.987L346.272 173.755V186.832H343.519V174.444L341.861 172.66H337.669L334.509 175.851V186.832H331.756L331.788 174.444L330.098 172.66H325.938L322.371 176.289V186.832H319.618Z" fill="white"/>
<path d="M354.147 186.832L350.862 183.547V173.755L354.147 170.471H361.436L364.721 173.755V179.668H353.615V182.828L355.336 184.548H364.439V186.832H354.147ZM353.615 177.478H361.968V174.381L360.247 172.66H355.336L353.615 174.381V177.478Z" fill="white"/>
<path d="M369.476 186.832V170.471H372.229V173.411L375.076 170.471H381.114L384.367 173.755V186.832H381.614V174.444L379.956 172.66H375.796L372.229 176.289V186.832H369.476Z" fill="white"/>
<path d="M401.867 186.832L398.582 183.547V173.755L401.867 170.471H407.873L410.407 173.067V163.776H413.16V186.832H410.407V184.267L407.873 186.832H401.867ZM407.185 184.642L410.407 181.389V175.945L407.185 172.66H403.056L401.335 174.381V182.921L403.056 184.642H407.185Z" fill="white"/>
<path d="M421.175 186.832L417.89 183.547V173.755L421.175 170.471H428.464L431.748 173.755V179.668H420.643V182.828L422.363 184.548H431.467V186.832H421.175ZM420.643 177.478H428.996V174.381L427.275 172.66H422.363L420.643 174.381V177.478Z" fill="white"/>
<path d="M445.345 186.832V184.204H448.88V166.404H445.721V163.776H451.727V184.204H455.262V186.832H445.345Z" fill="white"/>
<path d="M462.233 186.832L458.948 183.547V167.061L462.233 163.776H472.244L475.529 167.061V183.547L472.244 186.832H462.233ZM463.516 184.298H470.961L472.682 182.577V168.03L470.961 166.31H463.516L461.795 168.03L461.826 182.577L463.516 184.298Z" fill="white"/>
<path d="M490.002 186.832V163.776H492.848V184.204H504.455V186.832H490.002Z" fill="white"/>
<path d="M519.728 192.682L522.668 185.706H521.511L514.785 170.471H517.819L523.075 182.984H523.795L528.644 170.471H531.647L522.512 192.682H519.728Z" fill="white"/>
<path d="M547.165 186.832L543.88 183.547V173.755L547.165 170.471H554.454L557.739 173.755V179.668H546.633V182.828L548.354 184.548H557.457V186.832H547.165ZM546.633 177.478H554.986V174.381L553.265 172.66H548.354L546.633 174.381V177.478Z" fill="white"/>
<path d="M562.494 186.832V170.471H565.247V173.411L568.094 170.471H574.132L577.385 173.755V186.832H574.632V174.444L572.974 172.66H568.813L565.247 176.289V186.832H562.494Z" fill="white"/>
<path d="M594.885 186.832L591.6 183.547V173.755L594.885 170.471H602.643L605.928 173.755V183.547L602.643 186.832H594.885ZM596.074 184.642H601.454L603.175 182.921L603.144 174.381L601.454 172.66H596.074L594.353 174.381V182.921L596.074 184.642Z" fill="white"/>
<path d="M613.738 186.832L610.86 183.985V172.66H609.139V170.471H610.922L611.611 166.279H613.613V170.471H617.085V172.66H613.613V183.015L615.083 184.548H617.805V186.832H613.738Z" fill="white"/>
<path d="M621.151 186.832V170.471H623.904V173.411L626.751 170.471H630.943V173.224H626.876L623.904 176.289V186.832H621.151Z" fill="white"/>
<path d="M636.433 186.832L633.148 183.547V173.755L636.433 170.471H644.192L647.476 173.755V183.547L644.192 186.832H636.433ZM637.622 184.642H643.003L644.723 182.921L644.692 174.381L643.003 172.66H637.622L635.901 174.381V182.921L637.622 184.642Z" fill="white"/>
<path d="M661.844 186.832V170.471H664.597V173.411L667.444 170.471H671.636V173.224H667.569L664.597 176.289V186.832H661.844Z" fill="white"/>
<path d="M677.126 186.832L673.842 183.547V173.755L677.126 170.471H684.415L687.7 173.755V179.668H676.595V182.828L678.315 184.548H687.419V186.832H677.126ZM676.595 177.478H684.947V174.381L683.227 172.66H678.315L676.595 174.381V177.478Z" fill="white"/>
<path d="M695.365 186.832L692.08 183.547V173.755L695.365 170.471H702.842L705.72 173.317V175.914H702.967V174.225L701.403 172.66H696.554L694.833 174.381V182.796L696.554 184.548H705.563V186.832H695.365Z" fill="white"/>
<path d="M709.93 168.687V164.996H712.683V168.687H709.93ZM709.93 186.832V170.471H712.683V186.832H709.93Z" fill="white"/>
<path d="M717.782 192.682V170.471H720.535V173.067L723.037 170.471H729.075L732.329 173.755V183.547L729.075 186.832H723.037L720.535 184.267V192.682H717.782ZM723.757 184.642H727.886L729.576 182.921V174.381L727.886 172.66H723.757L720.535 175.945V181.389L723.757 184.642Z" fill="white"/>
<path d="M737.09 168.687V164.996H739.842V168.687H737.09ZM737.09 186.832V170.471H739.842V186.832H737.09Z" fill="white"/>
<path d="M747.85 186.832L744.566 183.547V173.755L747.85 170.471H755.139L758.424 173.755V179.668H747.318V182.828L749.039 184.548H758.143V186.832H747.85ZM747.318 177.478H755.671V174.381L753.951 172.66H749.039L747.318 174.381V177.478Z" fill="white"/>
<path d="M763.179 186.832V170.471H765.932V173.411L768.779 170.471H774.817L778.07 173.755V186.832H775.317V174.444L773.659 172.66H769.499L765.932 176.289V186.832H763.179Z" fill="white"/>
<path d="M786.103 186.832L783.225 183.985V172.66H781.504V170.471H783.287L783.976 166.279H785.978V170.471H789.45V172.66H785.978V183.015L787.448 184.548H790.17V186.832H786.103Z" fill="white"/>
<path d="M796.425 186.832L793.14 183.547V173.755L796.425 170.471H803.714L806.999 173.755V179.668H795.893V182.828L797.614 184.548H806.717V186.832H796.425ZM795.893 177.478H804.246V174.381L802.525 172.66H797.614L795.893 174.381V177.478Z" fill="white"/>
<path d="M105.216 221.591V219.308H113.881L115.352 217.806V215.835L113.788 214.271H107.312L104.434 211.455V208.139L107.312 205.23H116.541V207.545H108.626L107.187 208.953V210.548L108.688 212.05H115.227L118.105 214.865V218.713L115.258 221.591H105.216Z" fill="white"/>
<path d="M125.203 221.591L121.918 218.306V208.515L125.203 205.23H132.492L135.777 208.515V214.427H124.671V217.587L126.392 219.308H135.495V221.591H125.203ZM124.671 212.237H133.024V209.14L131.303 207.42H126.392L124.671 209.14V212.237Z" fill="white"/>
<path d="M150.767 221.591L147.889 218.744V207.42H146.169V205.23H147.952L148.64 201.038H150.642V205.23H154.115V207.42H150.642V217.775L152.112 219.308H154.834V221.591H150.767Z" fill="white"/>
<path d="M158.18 203.447V199.755H160.933V203.447H158.18ZM158.18 221.591V205.23H160.933V221.591H158.18Z" fill="white"/>
<path d="M168.941 221.591L165.656 218.306V208.515L168.941 205.23H176.23L179.515 208.515V214.427H168.409V217.587L170.13 219.308H179.233V221.591H168.941ZM168.409 212.237H176.762V209.14L175.041 207.42H170.13L168.409 209.14V212.237Z" fill="white"/>
<path d="M184.27 221.591V205.23H187.023V208.171L189.87 205.23H195.908L199.161 208.515V221.591H196.408V209.203L194.75 207.42H190.589L187.023 211.049V221.591H184.27Z" fill="white"/>
<path d="M207.037 221.591L203.752 218.306V208.515L207.037 205.23H214.326L217.611 208.515V214.427H206.505V217.587L208.226 219.308H217.329V221.591H207.037ZM206.505 212.237H214.858V209.14L213.137 207.42H208.226L206.505 209.14V212.237Z" fill="white"/>
<path d="M228.754 221.591V218.963H232.289V201.163H229.129V198.535H235.135V218.963H238.671V221.591H228.754Z" fill="white"/>
<path d="M245.641 221.591L242.357 218.306V201.82L245.641 198.535H255.934L259.093 201.726L257.248 203.572L254.714 201.069H246.924L245.203 202.79V209.234L247.143 207.326H255.777L259.031 210.611V218.306L255.777 221.591H245.641ZM246.924 219.057H254.495L256.184 217.337V211.549L254.495 209.829H247.237L245.203 211.956V217.337L246.924 219.057Z" fill="white"/>
<path d="M266.69 221.591L263.406 218.306V201.82L266.69 198.535H276.701L279.986 201.82V218.306L276.701 221.591H266.69ZM267.973 219.057H275.419L277.139 217.337V202.79L275.419 201.069H267.973L266.253 202.79L266.284 217.337L267.973 219.057Z" fill="white"/>
<path d="M292.756 227.441V225.158L301.578 225.126L303.298 223.437V219.026L300.764 221.591H294.758L291.473 218.306V208.515L294.758 205.23H300.764L303.298 207.827V205.23H306.051V224.156L302.766 227.441H292.756ZM300.076 219.401L303.298 216.148V210.705L300.076 207.42H295.947L294.226 209.14V217.681L295.947 219.401H300.076Z" fill="white"/>
<path d="M321.235 221.591L317.95 218.306V208.515L321.235 205.23H327.241L329.775 207.827V198.535H332.528V221.591H329.775V219.026L327.241 221.591H321.235ZM326.553 219.401L329.775 216.148V210.705L326.553 207.42H322.424L320.703 209.14V217.681L322.424 219.401H326.553Z" fill="white"/>
<path d="M340.543 221.591L337.258 218.306V208.515L340.543 205.23H347.832L351.117 208.515V214.427H340.011V217.587L341.732 219.308H350.835V221.591H340.543ZM340.011 212.237H348.364V209.14L346.643 207.42H341.732L340.011 209.14V212.237Z" fill="white"/>
<path d="M363.949 227.441V225.158L372.771 225.126L374.491 223.437V219.026L371.957 221.591H365.951L362.666 218.306V208.515L365.951 205.23H371.957L374.491 207.827V205.23H377.244V224.156L373.959 227.441H363.949ZM371.269 219.401L374.491 216.148V210.705L371.269 207.42H367.139L365.419 209.14V217.681L367.139 219.401H371.269Z" fill="white"/>
<path d="M384.132 221.591L380.879 218.306V214.584L384.132 211.299H392.454V209.266L390.764 207.545H383.006V205.23H391.953L395.207 208.515V221.591H392.454V219.057L389.92 221.591H384.132ZM385.352 219.401H389.231L392.454 216.21V213.458L385.352 213.489L383.632 215.178V217.681L385.352 219.401Z" fill="white"/>
<path d="M400.19 221.591V219.308H408.856L410.326 217.806V215.835L408.762 214.271H402.286L399.408 211.455V208.139L402.286 205.23H411.515V207.545H403.6L402.161 208.953V210.548L403.663 212.05H410.201L413.079 214.865V218.713L410.232 221.591H400.19Z" fill="white"/>
<path d="M427.5 221.591L424.215 218.306V208.515L427.5 205.23H435.258L438.543 208.515V218.306L435.258 221.591H427.5ZM428.688 219.401H434.069L435.79 217.681L435.758 209.14L434.069 207.42H428.688L426.968 209.14V217.681L428.688 219.401Z" fill="white"/>
<path d="M440.792 221.591L446.58 213.176L440.824 205.23H444.077L448.738 211.862H449.458L454.119 205.23H457.404L451.648 213.176L457.404 221.591H454.057L449.427 214.521H448.738L444.171 221.591H440.792Z" fill="white"/>
<path d="M460.614 203.447L463.617 198.786H466.808L462.929 203.447H460.614ZM460.395 221.591V205.23H463.148V221.591H460.395Z" fill="white"/>
<path d="M469.154 227.441V225.158L477.976 225.126L479.696 223.437V219.026L477.162 221.591H471.156L467.871 218.306V208.515L471.156 205.23H477.162L479.696 207.827V205.23H482.449V224.156L479.164 227.441H469.154ZM476.474 219.401L479.696 216.148V210.705L476.474 207.42H472.345L470.624 209.14V217.681L472.345 219.401H476.474Z" fill="white"/>
<path d="M490.464 221.591L487.179 218.306V208.515L490.464 205.23H497.753L501.037 208.515V214.427H489.932V217.587L491.652 219.308H500.756V221.591H490.464ZM489.932 212.237H498.285V209.14L496.564 207.42H491.652L489.932 209.14V212.237Z" fill="white"/>
<path d="M505.793 221.591V205.23H508.546V208.171L511.393 205.23H517.43L520.684 208.515V221.591H517.931V209.203L516.273 207.42H512.112L508.546 211.049V221.591H505.793Z" fill="white"/>
<path d="M528.56 221.591L525.275 218.306V208.515L528.56 205.23H536.318L539.603 208.515V218.306L536.318 221.591H528.56ZM529.749 219.401H535.129L536.85 217.681L536.819 209.14L535.129 207.42H529.749L528.028 209.14V217.681L529.749 219.401Z" fill="white"/>
<path d="M542.502 225.032L543.753 217.9H546.506L544.097 225.032H542.502Z" fill="white"/>
<path d="M572.948 221.591L569.663 218.306V201.82L572.948 198.535H583.835L587.119 201.82V218.306L583.835 221.591H572.948ZM574.231 219.057H582.552L584.273 217.337V202.79L582.552 201.069H574.231L572.51 202.79V217.337L574.231 219.057Z" fill="white"/>
<path d="M590.675 221.591V219.13L598.892 211.059V209.057L597.766 207.889L593.512 207.91L591.822 209.62L590.592 208.369L592.698 206.221H598.621L600.79 208.41V211.81L592.803 219.714V219.839H601.02V221.591H590.675Z" fill="white"/>
<path d="M604.446 221.591V217.9H607.199V221.591H604.446Z" fill="white"/>
<path d="M619.362 221.591V198.535H631.876L636.662 203.384V216.742L631.876 221.591H619.362ZM622.209 219.057H630.593L633.815 215.773V204.354L630.593 201.069H622.209V219.057Z" fill="white"/>
<path d="M644.173 221.591L640.888 218.306V208.515L644.173 205.23H651.462L654.746 208.515V214.427H643.641V217.587L645.361 219.308H654.465V221.591H644.173ZM643.641 212.237H651.993V209.14L650.273 207.42H645.361L643.641 209.14V212.237Z" fill="white"/>
<path d="M662.567 221.591L659.689 218.744V207.42H657.969V205.23H659.752L660.44 201.038H662.442V205.23H665.915V207.42H662.442V217.775L663.913 219.308H666.634V221.591H662.567Z" fill="white"/>
<path d="M672.89 221.591L669.605 218.306V208.515L672.89 205.23H680.179L683.464 208.515V214.427H672.358V217.587L674.079 219.308H683.182V221.591H672.89ZM672.358 212.237H680.711V209.14L678.99 207.42H674.079L672.358 209.14V212.237Z" fill="white"/>
<path d="M688.219 221.591V205.23H690.972V208.171L693.819 205.23H698.011V207.983H693.944L690.972 211.049V221.591H688.219Z" fill="white"/>
<path d="M700.928 221.591V205.23H703.681V208.171L706.528 205.23H712.565L715.443 208.139L718.259 205.23H724.297L727.581 208.515V221.591H724.828V209.203L723.17 207.42H718.978L715.819 210.611V221.591H713.066L713.097 209.203L711.408 207.42H707.247L703.681 211.049V221.591H700.928Z" fill="white"/>
<path d="M732.547 203.447V199.755H735.3V203.447H732.547ZM732.547 221.591V205.23H735.3V221.591H732.547Z" fill="white"/>
<path d="M740.399 221.591V205.23H743.152V208.171L745.999 205.23H752.036L755.29 208.515V221.591H752.537V209.203L750.879 207.42H746.718L743.152 211.049V221.591H740.399Z" fill="white"/>
<path d="M763.166 221.591L759.881 218.306V208.515L763.166 205.23H770.455L773.74 208.515V214.427H762.634V217.587L764.355 219.308H773.458V221.591H763.166ZM762.634 212.237H770.987V209.14L769.266 207.42H764.355L762.634 209.14V212.237Z" fill="white"/>
<path d="M788.574 221.591L785.289 218.306V208.515L788.574 205.23H795.863L799.148 208.515V214.427H788.042V217.587L789.763 219.308H798.866V221.591H788.574ZM788.042 212.237H796.395V209.14L794.674 207.42H789.763L788.042 209.14V212.237Z" fill="white"/>
<path d="M803.903 221.591V198.535H806.656V221.591H803.903Z" fill="white"/>
<path d="M110.002 256.351L103.057 239.989H106.061L111.347 253.598H112.067L117.323 239.989H120.357L113.412 256.351H110.002Z" fill="white"/>
<path d="M125.508 256.351L122.224 253.066V243.274L125.508 239.989H133.267L136.551 243.274V253.066L133.267 256.351H125.508ZM126.697 254.161H132.078L133.799 252.44L133.767 243.9L132.078 242.179H126.697L124.977 243.9V252.44L126.697 254.161Z" fill="white"/>
<path d="M141.296 256.351V233.295H144.049V256.351H141.296Z" fill="white"/>
<path d="M152.244 256.351L148.991 253.066V239.989H151.744L151.712 252.409L153.402 254.161H157.469L160.691 250.939V239.989H163.444V256.351H160.691V253.817L158.188 256.351H152.244Z" fill="white"/>
<path d="M168.547 256.351V239.989H171.3V242.93L174.146 239.989H180.184L183.062 242.899L185.878 239.989H191.915L195.2 243.274V256.351H192.447V243.962L190.789 242.179H186.597L183.438 245.37V256.351H180.685L180.716 243.962L179.027 242.179H174.866L171.3 245.808V256.351H168.547Z" fill="white"/>
<path d="M203.076 256.351L199.791 253.066V243.274L203.076 239.989H210.365L213.649 243.274V249.187H202.544V252.346L204.264 254.067H213.368V256.351H203.076ZM202.544 246.997H210.896V243.9L209.176 242.179H204.264L202.544 243.9V246.997Z" fill="white"/>
<path d="M218.405 256.351V239.989H221.158V242.93L224.004 239.989H230.042L233.296 243.274V256.351H230.543V243.962L228.885 242.179H224.724L221.158 245.808V256.351H218.405Z" fill="white"/>
<path d="M236.417 259.792L237.668 252.659H240.421L238.012 259.792H236.417Z" fill="white"/>
<path d="M279.08 256.351L275.795 253.066V243.274L279.08 239.989H286.369L289.654 243.274V249.187H278.548V252.346L280.269 254.067H289.372V256.351H279.08ZM278.548 246.997H286.901V243.9L285.18 242.179H280.269L278.548 243.9V246.997Z" fill="white"/>
<path d="M294.409 256.351V239.989H297.162V242.93L300.009 239.989H306.046L309.3 243.274V256.351H306.547V243.962L304.889 242.179H300.728L297.162 245.808V256.351H294.409Z" fill="white"/>
<path d="M345.179 256.351V233.295H347.932V256.351H345.179Z" fill="white"/>
<path d="M353.03 238.206V234.515H355.783V238.206H353.03ZM353.03 256.351V239.989H355.783V256.351H353.03Z" fill="white"/>
<path d="M363.948 256.351L361.069 253.504V242.179H359.349V239.989H361.132L361.82 235.797H363.822V239.989H367.295V242.179H363.822V252.534L365.293 254.067H368.014V256.351H363.948Z" fill="white"/>
<path d="M371.36 256.351V239.989H374.113V242.93L376.96 239.989H381.152V242.742H377.085L374.113 245.808V256.351H371.36Z" fill="white"/>
<path d="M386.643 256.351L383.358 253.066V243.274L386.643 239.989H394.401L397.686 243.274V253.066L394.401 256.351H386.643ZM387.831 254.161H393.212L394.933 252.44L394.902 243.9L393.212 242.179H387.831L386.111 243.9V252.44L387.831 254.161Z" fill="white"/>
<path d="M402.277 256.351V254.067H410.943L412.413 252.565V250.595L410.849 249.03H404.373L401.495 246.215V242.899L404.373 239.989H413.602V242.304H405.687L404.248 243.712V245.308L405.75 246.809H412.288L415.166 249.625V253.473L412.319 256.351H402.277Z" fill="white"/>
<path d="M417.662 259.792L418.913 252.659H421.666L419.257 259.792H417.662Z" fill="white"/>
<path d="M460.325 256.351L457.04 253.066V243.274L460.325 239.989H468.084L471.368 243.274V253.066L468.084 256.351H460.325ZM461.514 254.161H466.895L468.615 252.44L468.584 243.9L466.895 242.179H461.514L459.793 243.9V252.44L461.514 254.161Z" fill="white"/>
<path d="M478.869 256.351L475.584 253.066V243.274L478.869 239.989H486.346L489.224 242.836V245.433H486.471V243.743L484.907 242.179H480.058L478.337 243.9V252.315L480.058 254.067H489.068V256.351H478.869Z" fill="white"/>
<path d="M496.532 256.351L493.278 253.066V239.989H496.031L496 252.409L497.689 254.161H501.756L504.978 250.939V239.989H507.731V256.351H504.978V253.817L502.476 256.351H496.532Z" fill="white"/>
<path d="M512.834 262.201V239.989H515.587V242.586L518.09 239.989H524.127L527.381 243.274V253.066L524.127 256.351H518.09L515.587 253.785V262.201H512.834ZM518.809 254.161H522.939L524.628 252.44V243.9L522.939 242.179H518.809L515.587 245.464V250.907L518.809 254.161Z" fill="white"/>
<path d="M533.925 256.351L530.672 253.066V249.343L533.925 246.058H542.246V244.025L540.557 242.304H532.799V239.989H541.746L544.999 243.274V256.351H542.246V253.817L539.712 256.351H533.925ZM535.145 254.161H539.024L542.246 250.97V248.217L535.145 248.248L533.424 249.938V252.44L535.145 254.161Z" fill="white"/>
<path d="M552.893 256.351L549.608 253.066V243.274L552.893 239.989H558.899L561.433 242.586V233.295H564.186V256.351H561.433V253.785L558.899 256.351H552.893ZM558.211 254.161L561.433 250.907V245.464L558.211 242.179H554.081L552.361 243.9V252.44L554.081 254.161H558.211Z" fill="white"/>
<path d="M572.2 256.351L568.916 253.066V243.274L572.2 239.989H579.959L583.243 243.274V253.066L579.959 256.351H572.2ZM573.389 254.161H578.77L580.49 252.44L580.459 243.9L578.77 242.179H573.389L571.668 243.9V252.44L573.389 254.161Z" fill="white"/>
<path d="M618.9 262.201V239.989H621.653V242.586L624.155 239.989H630.193L633.447 243.274V253.066L630.193 256.351H624.155L621.653 253.785V262.201H618.9ZM624.875 254.161H629.004L630.694 252.44V243.9L629.004 242.179H624.875L621.653 245.464V250.907L624.875 254.161Z" fill="white"/>
<path d="M640.964 256.351L637.679 253.066V243.274L640.964 239.989H648.723L652.007 243.274V253.066L648.723 256.351H640.964ZM642.153 254.161H647.534L649.254 252.44L649.223 243.9L647.534 242.179H642.153L640.432 243.9V252.44L642.153 254.161Z" fill="white"/>
<path d="M656.752 256.351V239.989H659.505V242.93L662.351 239.989H666.543V242.742H662.476L659.505 245.808V256.351H656.752Z" fill="white"/>
<path d="M703.282 256.351L699.997 253.066V243.274L703.282 239.989H710.571L713.856 243.274V249.187H702.75V252.346L704.471 254.067H713.574V256.351H703.282ZM702.75 246.997H711.103V243.9L709.382 242.179H704.471L702.75 243.9V246.997Z" fill="white"/>
<path d="M718.611 256.351V233.295H721.364V256.351H718.611Z" fill="white"/>
<path d="M758.282 262.201V259.917L767.104 259.886L768.825 258.196V253.785L766.291 256.351H760.284L756.999 253.066V243.274L760.284 239.989H766.291L768.825 242.586V239.989H771.578V258.916L768.293 262.201H758.282ZM765.602 254.161L768.825 250.907V245.464L765.602 242.179H761.473L759.752 243.9V252.44L761.473 254.161H765.602Z" fill="white"/>
<path d="M778.466 256.351L775.212 253.066V249.343L778.466 246.058H786.787V244.025L785.098 242.304H777.34V239.989H786.287L789.54 243.274V256.351H786.787V253.817L784.253 256.351H778.466ZM779.686 254.161H783.565L786.787 250.97V248.217L779.686 248.248L777.965 249.938V252.44L779.686 254.161Z" fill="white"/>
<path d="M794.524 256.351V254.067H803.19L804.66 252.565V250.595L803.096 249.03H796.62L793.742 246.215V242.899L796.62 239.989H805.849V242.304H797.934L796.495 243.712V245.308L797.996 246.809H804.535L807.413 249.625V253.473L804.566 256.351H794.524Z" fill="white"/>
<path d="M108.125 291.11L104.841 287.825V278.034L108.125 274.749H115.884L119.168 278.034V287.825L115.884 291.11H108.125ZM109.314 288.92H114.695L116.415 287.2L116.384 278.659L114.695 276.939H109.314L107.593 278.659V287.2L109.314 288.92Z" fill="white"/>
<path d="M121.418 291.11L127.206 282.695L121.449 274.749H124.703L129.364 281.381H130.084L134.745 274.749H138.03L132.273 282.695L138.03 291.11H134.682L130.052 284.04H129.364L124.797 291.11H121.418Z" fill="white"/>
<path d="M141.24 272.966L144.243 268.304H147.434L143.555 272.966H141.24ZM141.021 291.11V274.749H143.774V291.11H141.021Z" fill="white"/>
<path d="M149.779 296.96V294.676L158.601 294.645L160.322 292.956V288.545L157.788 291.11H151.782L148.497 287.825V278.034L151.782 274.749H157.788L160.322 277.345V274.749H163.075V293.675L159.79 296.96H149.779ZM157.1 288.92L160.322 285.667V280.223L157.1 276.939H152.97L151.25 278.659V287.2L152.97 288.92H157.1Z" fill="white"/>
<path d="M171.089 291.11L167.805 287.825V278.034L171.089 274.749H178.378L181.663 278.034V283.946H170.558V287.106L172.278 288.826H181.382V291.11H171.089ZM170.558 281.756H178.91V278.659L177.19 276.939H172.278L170.558 278.659V281.756Z" fill="white"/>
<path d="M186.419 291.11V274.749H189.171V277.689L192.018 274.749H198.056L201.309 278.034V291.11H198.557V278.722L196.898 276.939H192.738L189.171 280.568V291.11H186.419Z" fill="white"/>
<path d="M209.186 291.11L205.901 287.825V278.034L209.186 274.749H216.944L220.229 278.034V287.825L216.944 291.11H209.186ZM210.374 288.92H215.755L217.476 287.2L217.444 278.659L215.755 276.939H210.374L208.654 278.659V287.2L210.374 288.92Z" fill="white"/>
<path d="M224.379 291.11V287.419H227.132V291.11H224.379Z" fill="white"/>
<path d="M105.372 325.869V302.814H117.886L122.672 307.663V321.021L117.886 325.869H105.372ZM108.219 323.336H116.603L119.825 320.051V308.632L116.603 305.348H108.219V323.336Z" fill="white"/>
<path d="M129.056 325.869L125.803 322.585V318.862L129.056 315.577H137.378V313.544L135.688 311.823H127.93V309.508H136.877L140.131 312.793V325.869H137.378V323.336L134.844 325.869H129.056ZM130.276 323.68H134.156L137.378 320.489V317.736L130.276 317.767L128.556 319.456V321.959L130.276 323.68Z" fill="white"/>
<path d="M148.18 325.869L145.302 323.023V311.698H143.582V309.508H145.365L146.053 305.316H148.055V309.508H151.528V311.698H148.055V322.053L149.526 323.586H152.247V325.869H148.18Z" fill="white"/>
<path d="M158.503 325.869L155.218 322.585V312.793L158.503 309.508H166.261L169.546 312.793V322.585L166.261 325.869H158.503ZM159.691 323.68H165.072L166.793 321.959L166.762 313.419L165.072 311.698H159.691L157.971 313.419V321.959L159.691 323.68Z" fill="white"/>
<path d="M174.137 325.869V323.586H182.803L184.273 322.084V320.113L182.709 318.549H176.233L173.355 315.734V312.418L176.233 309.508H185.462V311.823H177.547L176.108 313.231V314.826L177.61 316.328H184.148L187.026 319.144V322.991L184.179 325.869H174.137Z" fill="white"/>
<path d="M190.773 313.2V309.508H193.526V313.2H190.773ZM190.773 325.869V322.178H193.526V325.869H190.773Z" fill="white"/>
<path d="M205.455 325.869V302.814H209.334L216.592 321.24L223.881 302.814H227.791V325.869H224.913V307.162L217.405 325.869H215.81L208.302 307.193V325.869H205.455Z" fill="white"/>
<path d="M234.821 325.869L231.568 322.585V318.862L234.821 315.577H243.143V313.544L241.453 311.823H233.695V309.508H242.642L245.896 312.793V325.869H243.143V323.336L240.609 325.869H234.821ZM236.041 323.68H239.921L243.143 320.489V317.736L236.041 317.767L234.321 319.456V321.959L236.041 323.68Z" fill="white"/>
<path d="M250.88 325.869V323.586H259.545L261.015 322.084V320.113L259.451 318.549H252.976L250.097 315.734V312.418L252.976 309.508H262.204V311.823H254.289L252.85 313.231V314.826L254.352 316.328H260.89L263.768 319.144V322.991L260.922 325.869H250.88Z" fill="white"/>
<path d="M269.893 325.869L266.64 322.585V318.862L269.893 315.577H278.214V313.544L276.525 311.823H268.767V309.508H277.714L280.967 312.793V325.869H278.214V323.336L275.681 325.869H269.893ZM271.113 323.68H274.992L278.214 320.489V317.736L271.113 317.767L269.393 319.456V321.959L271.113 323.68Z" fill="white"/>
<path d="M292.886 325.869V309.508H295.639V312.449L298.486 309.508H304.524L307.402 312.418L310.217 309.508H316.255L319.54 312.793V325.869H316.787V313.481L315.129 311.698H310.937L307.777 314.889V325.869H305.024L305.055 313.481L303.366 311.698H299.205L295.639 315.327V325.869H292.886Z" fill="white"/>
<path d="M327.415 325.869L324.13 322.585V312.793L327.415 309.508H335.173L338.458 312.793V322.585L335.173 325.869H327.415ZM328.604 323.68H333.985L335.705 321.959L335.674 313.419L333.985 311.698H328.604L326.883 313.419V321.959L328.604 323.68Z" fill="white"/>
<path d="M343.202 325.869V302.814H345.955V325.869H343.202Z" fill="white"/>
<path d="M352.837 325.869L349.584 322.585V318.862L352.837 315.577H361.158V313.544L359.469 311.823H351.711V309.508H360.658L363.911 312.793V325.869H361.158V323.336L358.625 325.869H352.837ZM354.057 323.68H357.936L361.158 320.489V317.736L354.057 317.767L352.337 319.456V321.959L354.057 323.68Z" fill="white"/>
<path d="M368.895 325.869V309.508H371.648V312.449L374.495 309.508H378.687V312.261H374.62L371.648 315.327V325.869H368.895Z" fill="white"/>
<path d="M393.388 331.719L388.539 326.839V305.41L393.388 300.53H395.891V302.814H394.608L391.261 306.13L391.292 326.088L394.608 329.436H395.891V331.719H393.388Z" fill="white"/>
<path d="M400.414 331.719V329.436L409.236 329.405L410.956 327.715V323.304L408.422 325.869H402.416L399.131 322.585V312.793L402.416 309.508H408.422L410.956 312.105V309.508H413.709V328.435L410.425 331.719H400.414ZM407.734 323.68L410.956 320.426V314.983L407.734 311.698H403.605L401.884 313.419V321.959L403.605 323.68H407.734Z" fill="white"/>
<path d="M416.656 329.279L426.322 302.814H429.2L419.534 329.279H416.656Z" fill="white"/>
<path d="M432.165 325.869V309.508H434.918V312.449L437.765 309.508H443.802L446.68 312.418L449.496 309.508H455.534L458.818 312.793V325.869H456.065V313.481L454.407 311.698H450.215L447.056 314.889V325.869H444.303L444.334 313.481L442.645 311.698H438.484L434.918 315.327V325.869H432.165Z" fill="white"/>
<path d="M466.694 325.869L463.409 322.585V312.793L466.694 309.508H474.452L477.737 312.793V322.585L474.452 325.869H466.694ZM467.883 323.68H473.263L474.984 321.959L474.953 313.419L473.263 311.698H467.883L466.162 313.419V321.959L467.883 323.68Z" fill="white"/>
<path d="M482.481 325.869V302.814H485.234V325.869H482.481Z" fill="white"/>
<path d="M488.8 331.719V329.436H490.114L493.43 326.088V306.13L490.114 302.814H488.8V300.53H491.302L496.183 305.41V326.839L491.302 331.719H488.8Z" fill="white"/>
<path d="M500.706 313.2V309.508H503.459V313.2H500.706ZM500.706 325.869V322.178H503.459V325.869H500.706Z" fill="white"/>
<path d="M515.387 325.869V302.814H530.247V305.441H518.234V312.887H528.777V315.483H518.234V325.869H515.387Z" fill="white"/>
<path d="M532.139 325.869V323.409L540.356 315.337V313.335L539.23 312.167L534.976 312.188L533.286 313.898L532.056 312.647L534.162 310.499H540.085L542.254 312.689V316.088L534.266 323.992V324.118H542.484V325.869H532.139Z" fill="white"/>
<path d="M553.064 312.042V309.758H569.581V312.042H553.064ZM553.064 318.925V316.641H569.581V318.925H553.064Z" fill="white"/>
<path d="M583.46 325.869L580.301 322.679L582.146 320.833L584.68 323.336H592.157L593.878 321.615V316.829L592.126 315.014H585.337V312.511H592.126L593.878 310.697V307.068L592.157 305.316L585.212 305.348L582.678 307.85L580.832 306.004L583.992 302.814H593.44L596.725 306.098V311.448L594.441 313.763L596.725 316.109V322.585L593.44 325.869H583.46Z" fill="white"/>
<path d="M604.25 325.869L600.965 322.585V315.796L603.218 313.544L601.716 311.98V306.098L605.001 302.814H613.854L617.139 306.098V311.98L615.637 313.544L617.889 315.796V322.585L614.605 325.869H604.25ZM605.783 312.449H613.072L614.292 311.135V307.068L612.603 305.316L606.283 305.348L604.563 307.068V311.135L605.783 312.449ZM605.532 323.336H613.322L615.043 321.615V316.703L613.322 314.952H605.564L603.812 316.703V321.615L605.532 323.336Z" fill="white"/>
<path d="M621.98 313.2V309.508H624.733V313.2H621.98ZM620.729 329.311L621.98 322.178H624.733L622.324 329.311H620.729Z" fill="white"/>
<path d="M639.352 325.869L636.067 322.585V306.098L639.352 302.814H650.239L653.524 306.098V322.585L650.239 325.869H639.352ZM640.635 323.336H648.956L650.677 321.615V307.068L648.956 305.348H640.635L638.914 307.068V321.615L640.635 323.336Z" fill="white"/>
<path d="M657.08 325.869V323.409L665.297 315.337V313.335L664.17 312.167L659.916 312.188L658.227 313.898L656.996 312.647L659.103 310.499H665.026L667.194 312.689V316.088L659.207 323.992V324.118H667.424V325.869H657.08Z" fill="white"/>
<path d="M678.004 312.042V309.758H694.522V312.042H678.004ZM678.004 318.925V316.641H694.522V318.925H678.004Z" fill="white"/>
<path d="M708.401 325.869L705.241 322.679L707.087 320.833L709.621 323.336H717.097L718.818 321.615V316.829L717.066 315.014H710.278V312.511H717.066L718.818 310.697V307.068L717.097 305.316L710.153 305.348L707.619 307.85L705.773 306.004L708.933 302.814H718.38L721.665 306.098V311.448L719.381 313.763L721.665 316.109V322.585L718.38 325.869H708.401Z" fill="white"/>
<path d="M725.906 325.869V322.178L738.231 310.071V307.068L736.542 305.316L730.16 305.348L727.626 307.913L725.78 306.036L728.94 302.814H737.825L741.078 306.098V311.198L729.096 323.054V323.242H741.422V325.869H725.906Z" fill="white"/>
</g>
</g>
</g>
</svg>
