<svg  viewBox="0 0 836 701" fill="none" xmlns="http://www.w3.org/2000/svg">
<path fill-rule="evenodd" clip-rule="evenodd" d="M638 84H48V274H638V84ZM43 79V279H643V79H43Z" fill="#2CF30B"/>
<path fill-rule="evenodd" clip-rule="evenodd" d="M642.5 81.5V275L836 200V0H236L47 81.5H642.5ZM71.2223 76.5H647.5V267.7L831 196.576V5H237.032L71.2223 76.5Z" fill="#2CF30B"/>
<path fill-rule="evenodd" clip-rule="evenodd" d="M826 6L633 85L631.106 80.3727L824.106 1.37265L826 6Z" fill="#2CF30B"/>
<path fill-rule="evenodd" clip-rule="evenodd" d="M535 44L349 45.0109L348.957 37.011L534.956 36.0001L535 44Z" fill="#2CF30B"/>
<path d="M170 138C170 155.673 155.673 170 138 170C120.327 170 106 155.673 106 138C106 120.327 120.327 106 138 106C155.673 106 170 120.327 170 138Z" fill="#FD0C0C"/>
<path d="M144.894 216.064C143.349 217.582 141.544 218.341 139.479 218.341C136.841 218.341 134.729 217.438 133.143 215.634C131.557 213.815 130.764 211.368 130.764 208.292C130.764 206.337 131.188 204.546 132.035 202.919C132.896 201.278 134.093 200.007 135.624 199.104C137.155 198.188 138.878 197.73 140.792 197.73C142.761 197.73 144.511 198.223 146.042 199.207C147.573 200.191 148.763 201.606 149.61 203.452C150.458 205.298 150.889 207.41 150.902 209.789V211.983C150.902 216.96 149.665 220.87 147.19 223.714C144.716 226.558 141.209 228.075 136.67 228.267L135.214 228.287V223.345L136.526 223.324C141.681 223.092 144.47 220.672 144.894 216.064ZM140.936 213.809C141.893 213.809 142.713 213.562 143.396 213.07C144.094 212.578 144.62 211.983 144.976 211.286V208.846C144.976 206.836 144.593 205.277 143.827 204.17C143.062 203.062 142.036 202.509 140.751 202.509C139.562 202.509 138.584 203.056 137.818 204.149C137.053 205.229 136.67 206.59 136.67 208.23C136.67 209.857 137.039 211.197 137.777 212.25C138.529 213.289 139.582 213.809 140.936 213.809Z" fill="white"/>
<path d="M354 138C354 155.673 339.673 170 322 170C304.327 170 290 155.673 290 138C290 120.327 304.327 106 322 106C339.673 106 354 120.327 354 138Z" fill="#2CF30B"/>
<path d="M313.427 228H307.5V205.154L300.425 207.349V202.529L312.791 198.1H313.427V228Z" fill="white"/>
<path d="M329.177 210.445H332.335C333.839 210.445 334.953 210.069 335.678 209.317C336.402 208.565 336.765 207.567 336.765 206.323C336.765 205.12 336.402 204.184 335.678 203.514C334.967 202.844 333.982 202.509 332.725 202.509C331.59 202.509 330.64 202.823 329.874 203.452C329.108 204.067 328.726 204.874 328.726 205.872H322.799C322.799 204.313 323.216 202.919 324.05 201.688C324.897 200.444 326.073 199.474 327.577 198.776C329.095 198.079 330.763 197.73 332.581 197.73C335.739 197.73 338.214 198.489 340.005 200.007C341.796 201.511 342.691 203.589 342.691 206.241C342.691 207.608 342.274 208.866 341.44 210.015C340.606 211.163 339.513 212.045 338.159 212.66C339.841 213.262 341.092 214.164 341.912 215.367C342.746 216.57 343.163 217.992 343.163 219.633C343.163 222.285 342.192 224.411 340.251 226.011C338.323 227.61 335.767 228.41 332.581 228.41C329.601 228.41 327.16 227.624 325.26 226.052C323.373 224.479 322.43 222.401 322.43 219.817H328.356C328.356 220.938 328.773 221.854 329.607 222.565C330.455 223.276 331.494 223.632 332.725 223.632C334.133 223.632 335.233 223.263 336.026 222.524C336.833 221.772 337.236 220.781 337.236 219.551C337.236 216.57 335.596 215.08 332.314 215.08H329.177V210.445Z" fill="white"/>
<path d="M529 138C529 155.673 514.673 170 497 170C479.327 170 465 155.673 465 138C465 120.327 479.327 106 497 106C514.673 106 529 120.327 529 138Z" fill="#1043F5"/>
<path d="M505.492 206.077C505.492 207.526 505.13 208.812 504.405 209.933C503.681 211.054 502.683 211.949 501.411 212.619C502.86 213.316 504.009 214.28 504.856 215.511C505.704 216.728 506.128 218.163 506.128 219.817C506.128 222.47 505.226 224.568 503.421 226.113C501.616 227.645 499.162 228.41 496.059 228.41C492.955 228.41 490.494 227.638 488.676 226.093C486.857 224.548 485.948 222.456 485.948 219.817C485.948 218.163 486.372 216.721 487.22 215.49C488.067 214.26 489.209 213.303 490.645 212.619C489.373 211.949 488.375 211.054 487.65 209.933C486.939 208.812 486.584 207.526 486.584 206.077C486.584 203.534 487.432 201.511 489.127 200.007C490.822 198.489 493.126 197.73 496.038 197.73C498.937 197.73 501.233 198.482 502.929 199.986C504.638 201.477 505.492 203.507 505.492 206.077ZM500.181 219.387C500.181 218.088 499.805 217.049 499.053 216.27C498.301 215.49 497.289 215.101 496.018 215.101C494.76 215.101 493.755 215.49 493.003 216.27C492.251 217.035 491.875 218.074 491.875 219.387C491.875 220.658 492.244 221.684 492.982 222.463C493.721 223.242 494.746 223.632 496.059 223.632C497.344 223.632 498.349 223.256 499.073 222.504C499.812 221.752 500.181 220.713 500.181 219.387ZM499.565 206.364C499.565 205.202 499.258 204.272 498.643 203.575C498.027 202.864 497.159 202.509 496.038 202.509C494.931 202.509 494.069 202.851 493.454 203.534C492.839 204.218 492.531 205.161 492.531 206.364C492.531 207.554 492.839 208.511 493.454 209.235C494.069 209.96 494.938 210.322 496.059 210.322C497.18 210.322 498.041 209.96 498.643 209.235C499.258 208.511 499.565 207.554 499.565 206.364Z" fill="white"/>
<path d="M29.2236 358.905V370H24.0352V340.141H35.458C38.7939 340.141 41.4395 341.009 43.3945 342.745C45.3633 344.481 46.3477 346.778 46.3477 349.636C46.3477 352.562 45.3838 354.838 43.4561 356.465C41.542 358.092 38.8555 358.905 35.3965 358.905H29.2236ZM29.2236 354.742H35.458C37.3037 354.742 38.7119 354.312 39.6826 353.45C40.6533 352.575 41.1387 351.317 41.1387 349.677C41.1387 348.063 40.6465 346.778 39.6621 345.821C38.6777 344.851 37.3242 344.352 35.6016 344.324H29.2236V354.742Z" fill="white"/>
<path d="M59.9033 370.41C56.7451 370.41 54.1816 369.419 52.2129 367.437C50.2578 365.44 49.2803 362.788 49.2803 359.479V358.864C49.2803 356.649 49.7041 354.674 50.5518 352.938C51.4131 351.188 52.6162 349.827 54.1611 348.856C55.7061 347.886 57.4287 347.4 59.3291 347.4C62.3506 347.4 64.6816 348.364 66.3223 350.292C67.9766 352.22 68.8037 354.947 68.8037 358.475V360.484H54.3047C54.4551 362.316 55.0635 363.766 56.1299 364.832C57.21 365.898 58.5635 366.432 60.1904 366.432C62.4736 366.432 64.333 365.509 65.7686 363.663L68.4551 366.227C67.5664 367.553 66.377 368.585 64.8867 369.323C63.4102 370.048 61.749 370.41 59.9033 370.41ZM59.3086 351.399C57.9414 351.399 56.834 351.878 55.9863 352.835C55.1523 353.792 54.6191 355.125 54.3867 356.834H63.8818V356.465C63.7725 354.797 63.3281 353.539 62.5488 352.691C61.7695 351.83 60.6895 351.399 59.3086 351.399Z" fill="white"/>
<path d="M71.7568 358.741C71.7568 355.323 72.5498 352.582 74.1357 350.518C75.7217 348.439 77.8477 347.4 80.5137 347.4C82.8652 347.4 84.7656 348.221 86.2148 349.861V338.5H91.1982V370H86.6865L86.4404 367.703C84.9502 369.508 82.9609 370.41 80.4727 370.41C77.875 370.41 75.7695 369.364 74.1562 367.272C72.5566 365.181 71.7568 362.337 71.7568 358.741ZM76.7402 359.172C76.7402 361.428 77.1709 363.191 78.0322 364.463C78.9072 365.721 80.1445 366.35 81.7441 366.35C83.7812 366.35 85.2715 365.44 86.2148 363.622V354.147C85.2988 352.37 83.8223 351.481 81.7852 351.481C80.1719 351.481 78.9277 352.124 78.0527 353.409C77.1777 354.681 76.7402 356.602 76.7402 359.172Z" fill="white"/>
<path d="M108.015 352.363C107.358 352.254 106.682 352.199 105.984 352.199C103.701 352.199 102.163 353.074 101.37 354.824V370H96.3867V347.811H101.145L101.268 350.292C102.471 348.364 104.139 347.4 106.271 347.4C106.982 347.4 107.57 347.496 108.035 347.688L108.015 352.363Z" fill="white"/>
<path d="M109.491 358.7C109.491 356.526 109.922 354.571 110.783 352.835C111.645 351.085 112.854 349.745 114.413 348.815C115.972 347.872 117.763 347.4 119.786 347.4C122.78 347.4 125.207 348.364 127.066 350.292C128.939 352.22 129.951 354.776 130.102 357.962L130.122 359.131C130.122 361.318 129.698 363.273 128.851 364.996C128.017 366.719 126.813 368.052 125.241 368.995C123.683 369.938 121.878 370.41 119.827 370.41C116.696 370.41 114.188 369.371 112.301 367.293C110.428 365.201 109.491 362.419 109.491 358.946V358.7ZM114.475 359.131C114.475 361.414 114.946 363.205 115.89 364.504C116.833 365.789 118.146 366.432 119.827 366.432C121.509 366.432 122.814 365.775 123.744 364.463C124.688 363.15 125.159 361.229 125.159 358.7C125.159 356.458 124.674 354.681 123.703 353.368C122.746 352.056 121.44 351.399 119.786 351.399C118.159 351.399 116.867 352.049 115.91 353.348C114.953 354.633 114.475 356.561 114.475 359.131Z" fill="white"/>
<path d="M157.972 370H153.009V346.026L145.688 348.528V344.324L157.336 340.038H157.972V370Z" fill="white"/>
<path d="M188.897 370.41C185.739 370.41 183.176 369.419 181.207 367.437C179.252 365.44 178.274 362.788 178.274 359.479V358.864C178.274 356.649 178.698 354.674 179.546 352.938C180.407 351.188 181.61 349.827 183.155 348.856C184.7 347.886 186.423 347.4 188.323 347.4C191.345 347.4 193.676 348.364 195.316 350.292C196.971 352.22 197.798 354.947 197.798 358.475V360.484H183.299C183.449 362.316 184.058 363.766 185.124 364.832C186.204 365.898 187.558 366.432 189.185 366.432C191.468 366.432 193.327 365.509 194.763 363.663L197.449 366.227C196.561 367.553 195.371 368.585 193.881 369.323C192.404 370.048 190.743 370.41 188.897 370.41ZM188.303 351.399C186.936 351.399 185.828 351.878 184.98 352.835C184.146 353.792 183.613 355.125 183.381 356.834H192.876V356.465C192.767 354.797 192.322 353.539 191.543 352.691C190.764 351.83 189.684 351.399 188.303 351.399Z" fill="white"/>
<path d="M214.122 363.971C214.122 363.082 213.753 362.405 213.015 361.94C212.29 361.476 211.08 361.065 209.385 360.71C207.689 360.354 206.274 359.903 205.14 359.356C202.651 358.153 201.407 356.41 201.407 354.127C201.407 352.213 202.214 350.613 203.827 349.328C205.44 348.043 207.491 347.4 209.979 347.4C212.632 347.4 214.771 348.057 216.398 349.369C218.039 350.682 218.859 352.384 218.859 354.476H213.876C213.876 353.519 213.521 352.726 212.81 352.097C212.099 351.454 211.155 351.133 209.979 351.133C208.886 351.133 207.99 351.386 207.293 351.892C206.609 352.397 206.268 353.074 206.268 353.922C206.268 354.688 206.589 355.282 207.231 355.706C207.874 356.13 209.173 356.561 211.128 356.998C213.083 357.422 214.614 357.935 215.722 358.536C216.843 359.124 217.67 359.835 218.203 360.669C218.75 361.503 219.023 362.515 219.023 363.704C219.023 365.7 218.196 367.32 216.542 368.564C214.888 369.795 212.721 370.41 210.041 370.41C208.223 370.41 206.603 370.082 205.181 369.426C203.759 368.77 202.651 367.867 201.858 366.719C201.065 365.57 200.669 364.333 200.669 363.007H205.509C205.577 364.183 206.021 365.092 206.842 365.734C207.662 366.363 208.749 366.678 210.103 366.678C211.415 366.678 212.413 366.432 213.097 365.939C213.78 365.434 214.122 364.777 214.122 363.971Z" fill="white"/>
<path d="M225.135 370V351.502H221.751V347.811H225.135V345.78C225.135 343.319 225.818 341.419 227.186 340.079C228.553 338.739 230.467 338.069 232.928 338.069C233.803 338.069 234.732 338.192 235.717 338.438L235.594 342.335C235.047 342.226 234.411 342.171 233.687 342.171C231.308 342.171 230.118 343.395 230.118 345.842V347.811H234.63V351.502H230.118V370H225.135Z" fill="white"/>
<path d="M247.55 370.41C244.392 370.41 241.828 369.419 239.859 367.437C237.904 365.44 236.927 362.788 236.927 359.479V358.864C236.927 356.649 237.351 354.674 238.198 352.938C239.06 351.188 240.263 349.827 241.808 348.856C243.353 347.886 245.075 347.4 246.976 347.4C249.997 347.4 252.328 348.364 253.969 350.292C255.623 352.22 256.45 354.947 256.45 358.475V360.484H241.951C242.102 362.316 242.71 363.766 243.776 364.832C244.856 365.898 246.21 366.432 247.837 366.432C250.12 366.432 251.979 365.509 253.415 363.663L256.102 366.227C255.213 367.553 254.023 368.585 252.533 369.323C251.057 370.048 249.396 370.41 247.55 370.41ZM246.955 351.399C245.588 351.399 244.48 351.878 243.633 352.835C242.799 353.792 242.266 355.125 242.033 356.834H251.528V356.465C251.419 354.797 250.975 353.539 250.195 352.691C249.416 351.83 248.336 351.399 246.955 351.399Z" fill="white"/>
<path d="M271.954 352.363C271.298 352.254 270.621 352.199 269.924 352.199C267.641 352.199 266.103 353.074 265.31 354.824V370H260.326V347.811H265.084L265.207 350.292C266.41 348.364 268.078 347.4 270.211 347.4C270.922 347.4 271.51 347.496 271.975 347.688L271.954 352.363Z" fill="white"/>
<path d="M287.745 370C287.526 369.576 287.335 368.886 287.171 367.929C285.585 369.583 283.644 370.41 281.347 370.41C279.118 370.41 277.3 369.774 275.892 368.503C274.483 367.231 273.779 365.659 273.779 363.786C273.779 361.421 274.654 359.609 276.404 358.352C278.168 357.08 280.684 356.444 283.951 356.444H287.007V354.988C287.007 353.84 286.686 352.924 286.043 352.24C285.4 351.543 284.423 351.194 283.11 351.194C281.976 351.194 281.046 351.481 280.321 352.056C279.597 352.616 279.234 353.334 279.234 354.209H274.251C274.251 352.992 274.654 351.857 275.461 350.805C276.268 349.738 277.361 348.904 278.742 348.303C280.137 347.701 281.688 347.4 283.397 347.4C285.995 347.4 288.066 348.057 289.611 349.369C291.156 350.668 291.949 352.5 291.99 354.865V364.873C291.99 366.869 292.271 368.462 292.831 369.651V370H287.745ZM282.27 366.411C283.254 366.411 284.177 366.172 285.038 365.693C285.913 365.215 286.569 364.572 287.007 363.766V359.582H284.32C282.475 359.582 281.087 359.903 280.157 360.546C279.228 361.188 278.763 362.098 278.763 363.273C278.763 364.23 279.077 364.996 279.706 365.57C280.349 366.131 281.203 366.411 282.27 366.411Z" fill="white"/>
<path d="M317.44 370.41C314.282 370.41 311.719 369.419 309.75 367.437C307.795 365.44 306.817 362.788 306.817 359.479V358.864C306.817 356.649 307.241 354.674 308.089 352.938C308.95 351.188 310.153 349.827 311.698 348.856C313.243 347.886 314.966 347.4 316.866 347.4C319.888 347.4 322.219 348.364 323.859 350.292C325.514 352.22 326.341 354.947 326.341 358.475V360.484H311.842C311.992 362.316 312.601 363.766 313.667 364.832C314.747 365.898 316.101 366.432 317.728 366.432C320.011 366.432 321.87 365.509 323.306 363.663L325.992 366.227C325.104 367.553 323.914 368.585 322.424 369.323C320.947 370.048 319.286 370.41 317.44 370.41ZM316.846 351.399C315.479 351.399 314.371 351.878 313.523 352.835C312.689 353.792 312.156 355.125 311.924 356.834H321.419V356.465C321.31 354.797 320.865 353.539 320.086 352.691C319.307 351.83 318.227 351.399 316.846 351.399Z" fill="white"/>
<path d="M342.665 363.971C342.665 363.082 342.296 362.405 341.558 361.94C340.833 361.476 339.623 361.065 337.928 360.71C336.232 360.354 334.817 359.903 333.683 359.356C331.194 358.153 329.95 356.41 329.95 354.127C329.95 352.213 330.757 350.613 332.37 349.328C333.983 348.043 336.034 347.4 338.522 347.4C341.175 347.4 343.314 348.057 344.941 349.369C346.582 350.682 347.402 352.384 347.402 354.476H342.419C342.419 353.519 342.063 352.726 341.353 352.097C340.642 351.454 339.698 351.133 338.522 351.133C337.429 351.133 336.533 351.386 335.836 351.892C335.152 352.397 334.811 353.074 334.811 353.922C334.811 354.688 335.132 355.282 335.774 355.706C336.417 356.13 337.716 356.561 339.671 356.998C341.626 357.422 343.157 357.935 344.265 358.536C345.386 359.124 346.213 359.835 346.746 360.669C347.293 361.503 347.566 362.515 347.566 363.704C347.566 365.7 346.739 367.32 345.085 368.564C343.431 369.795 341.264 370.41 338.584 370.41C336.766 370.41 335.146 370.082 333.724 369.426C332.302 368.77 331.194 367.867 330.401 366.719C329.608 365.57 329.212 364.333 329.212 363.007H334.052C334.12 364.183 334.564 365.092 335.385 365.734C336.205 366.363 337.292 366.678 338.646 366.678C339.958 366.678 340.956 366.432 341.64 365.939C342.323 365.434 342.665 364.777 342.665 363.971Z" fill="white"/>
<path d="M370.207 363.684L374.903 347.811H380.051L372.36 370H368.033L360.281 347.811H365.449L370.207 363.684Z" fill="white"/>
<path d="M392.663 370.41C389.505 370.41 386.941 369.419 384.973 367.437C383.018 365.44 382.04 362.788 382.04 359.479V358.864C382.04 356.649 382.464 354.674 383.312 352.938C384.173 351.188 385.376 349.827 386.921 348.856C388.466 347.886 390.188 347.4 392.089 347.4C395.11 347.4 397.441 348.364 399.082 350.292C400.736 352.22 401.563 354.947 401.563 358.475V360.484H387.064C387.215 362.316 387.823 363.766 388.89 364.832C389.97 365.898 391.323 366.432 392.95 366.432C395.233 366.432 397.093 365.509 398.528 363.663L401.215 366.227C400.326 367.553 399.137 368.585 397.646 369.323C396.17 370.048 394.509 370.41 392.663 370.41ZM392.068 351.399C390.701 351.399 389.594 351.878 388.746 352.835C387.912 353.792 387.379 355.125 387.146 356.834H396.642V356.465C396.532 354.797 396.088 353.539 395.309 352.691C394.529 351.83 393.449 351.399 392.068 351.399Z" fill="white"/>
<path d="M417.067 352.363C416.411 352.254 415.734 352.199 415.037 352.199C412.754 352.199 411.216 353.074 410.423 354.824V370H405.439V347.811H410.197L410.32 350.292C411.523 348.364 413.191 347.4 415.324 347.4C416.035 347.4 416.623 347.496 417.088 347.688L417.067 352.363Z" fill="white"/>
<path d="M418.872 358.741C418.872 355.323 419.665 352.582 421.251 350.518C422.837 348.439 424.963 347.4 427.629 347.4C429.98 347.4 431.881 348.221 433.33 349.861V338.5H438.313V370H433.802L433.556 367.703C432.065 369.508 430.076 370.41 427.588 370.41C424.99 370.41 422.885 369.364 421.271 367.272C419.672 365.181 418.872 362.337 418.872 358.741ZM423.855 359.172C423.855 361.428 424.286 363.191 425.147 364.463C426.022 365.721 427.26 366.35 428.859 366.35C430.896 366.35 432.387 365.44 433.33 363.622V354.147C432.414 352.37 430.938 351.481 428.9 351.481C427.287 351.481 426.043 352.124 425.168 353.409C424.293 354.681 423.855 356.602 423.855 359.172Z" fill="white"/>
<path d="M453.284 370.41C450.126 370.41 447.562 369.419 445.594 367.437C443.639 365.44 442.661 362.788 442.661 359.479V358.864C442.661 356.649 443.085 354.674 443.933 352.938C444.794 351.188 445.997 349.827 447.542 348.856C449.087 347.886 450.81 347.4 452.71 347.4C455.731 347.4 458.062 348.364 459.703 350.292C461.357 352.22 462.185 354.947 462.185 358.475V360.484H447.686C447.836 362.316 448.444 363.766 449.511 364.832C450.591 365.898 451.944 366.432 453.571 366.432C455.854 366.432 457.714 365.509 459.149 363.663L461.836 366.227C460.947 367.553 459.758 368.585 458.268 369.323C456.791 370.048 455.13 370.41 453.284 370.41ZM452.689 351.399C451.322 351.399 450.215 351.878 449.367 352.835C448.533 353.792 448 355.125 447.768 356.834H457.263V356.465C457.153 354.797 456.709 353.539 455.93 352.691C455.15 351.83 454.07 351.399 452.689 351.399Z" fill="white"/>
<path d="M544 350C544 366.569 530.569 380 514 380C497.431 380 484 366.569 484 350C484 333.431 497.431 320 514 320C530.569 320 544 333.431 544 350Z" fill="#2CF30B"/>
<path d="M37.0068 439.495H31.2236V451H26.0352V421.141H36.5352C39.9805 421.141 42.6396 421.913 44.5127 423.458C46.3857 425.003 47.3223 427.238 47.3223 430.164C47.3223 432.16 46.8369 433.835 45.8662 435.188C44.9092 436.528 43.5693 437.561 41.8467 438.285L48.5527 450.733V451H42.9951L37.0068 439.495ZM31.2236 435.332H36.5557C38.3057 435.332 39.6729 434.895 40.6572 434.02C41.6416 433.131 42.1338 431.921 42.1338 430.39C42.1338 428.79 41.6758 427.553 40.7598 426.678C39.8574 425.803 38.5039 425.352 36.6992 425.324H31.2236V435.332Z" fill="white"/>
<path d="M65.0205 451C64.8018 450.576 64.6104 449.886 64.4463 448.929C62.8604 450.583 60.9189 451.41 58.6221 451.41C56.3936 451.41 54.5752 450.774 53.167 449.503C51.7588 448.231 51.0547 446.659 51.0547 444.786C51.0547 442.421 51.9297 440.609 53.6797 439.352C55.4434 438.08 57.959 437.444 61.2266 437.444H64.2822V435.988C64.2822 434.84 63.9609 433.924 63.3184 433.24C62.6758 432.543 61.6982 432.194 60.3857 432.194C59.251 432.194 58.3213 432.481 57.5967 433.056C56.8721 433.616 56.5098 434.334 56.5098 435.209H51.5264C51.5264 433.992 51.9297 432.857 52.7363 431.805C53.543 430.738 54.6367 429.904 56.0176 429.303C57.4121 428.701 58.9639 428.4 60.6729 428.4C63.2705 428.4 65.3418 429.057 66.8867 430.369C68.4316 431.668 69.2246 433.5 69.2656 435.865V445.873C69.2656 447.869 69.5459 449.462 70.1064 450.651V451H65.0205ZM59.5449 447.411C60.5293 447.411 61.4521 447.172 62.3135 446.693C63.1885 446.215 63.8447 445.572 64.2822 444.766V440.582H61.5957C59.75 440.582 58.3623 440.903 57.4326 441.546C56.5029 442.188 56.0381 443.098 56.0381 444.273C56.0381 445.23 56.3525 445.996 56.9814 446.57C57.624 447.131 58.4785 447.411 59.5449 447.411Z" fill="white"/>
<path d="M87.9277 448.826C86.4648 450.549 84.3867 451.41 81.6934 451.41C79.2871 451.41 77.4619 450.706 76.2178 449.298C74.9873 447.89 74.3721 445.853 74.3721 443.187V428.811H79.3555V443.125C79.3555 445.941 80.5244 447.35 82.8623 447.35C85.2822 447.35 86.916 446.481 87.7637 444.745V428.811H92.7471V451H88.0508L87.9277 448.826Z" fill="white"/>
<path d="M103.124 451H98.1406V419.5H103.124V451Z" fill="white"/>
<path d="M142.663 451H137.7V427.026L130.379 429.528V425.324L142.027 421.038H142.663V451Z" fill="white"/>
<path d="M173.589 451.41C170.431 451.41 167.867 450.419 165.898 448.437C163.943 446.44 162.966 443.788 162.966 440.479V439.864C162.966 437.649 163.39 435.674 164.237 433.938C165.099 432.188 166.302 430.827 167.847 429.856C169.392 428.886 171.114 428.4 173.015 428.4C176.036 428.4 178.367 429.364 180.008 431.292C181.662 433.22 182.489 435.947 182.489 439.475V441.484H167.99C168.141 443.316 168.749 444.766 169.815 445.832C170.896 446.898 172.249 447.432 173.876 447.432C176.159 447.432 178.019 446.509 179.454 444.663L182.141 447.227C181.252 448.553 180.062 449.585 178.572 450.323C177.096 451.048 175.435 451.41 173.589 451.41ZM172.994 432.399C171.627 432.399 170.52 432.878 169.672 433.835C168.838 434.792 168.305 436.125 168.072 437.834H177.567V437.465C177.458 435.797 177.014 434.539 176.234 433.691C175.455 432.83 174.375 432.399 172.994 432.399Z" fill="white"/>
<path d="M198.813 444.971C198.813 444.082 198.444 443.405 197.706 442.94C196.981 442.476 195.771 442.065 194.076 441.71C192.381 441.354 190.966 440.903 189.831 440.356C187.343 439.153 186.099 437.41 186.099 435.127C186.099 433.213 186.905 431.613 188.519 430.328C190.132 429.043 192.183 428.4 194.671 428.4C197.323 428.4 199.463 429.057 201.09 430.369C202.73 431.682 203.551 433.384 203.551 435.476H198.567C198.567 434.519 198.212 433.726 197.501 433.097C196.79 432.454 195.847 432.133 194.671 432.133C193.577 432.133 192.682 432.386 191.984 432.892C191.301 433.397 190.959 434.074 190.959 434.922C190.959 435.688 191.28 436.282 191.923 436.706C192.565 437.13 193.864 437.561 195.819 437.998C197.774 438.422 199.306 438.935 200.413 439.536C201.534 440.124 202.361 440.835 202.895 441.669C203.441 442.503 203.715 443.515 203.715 444.704C203.715 446.7 202.888 448.32 201.233 449.564C199.579 450.795 197.412 451.41 194.732 451.41C192.914 451.41 191.294 451.082 189.872 450.426C188.45 449.77 187.343 448.867 186.55 447.719C185.757 446.57 185.36 445.333 185.36 444.007H190.2C190.269 445.183 190.713 446.092 191.533 446.734C192.354 447.363 193.44 447.678 194.794 447.678C196.106 447.678 197.104 447.432 197.788 446.939C198.472 446.434 198.813 445.777 198.813 444.971Z" fill="white"/>
<path d="M209.826 451V432.502H206.442V428.811H209.826V426.78C209.826 424.319 210.51 422.419 211.877 421.079C213.244 419.739 215.158 419.069 217.619 419.069C218.494 419.069 219.424 419.192 220.408 419.438L220.285 423.335C219.738 423.226 219.103 423.171 218.378 423.171C215.999 423.171 214.81 424.395 214.81 426.842V428.811H219.321V432.502H214.81V451H209.826Z" fill="white"/>
<path d="M232.241 451.41C229.083 451.41 226.52 450.419 224.551 448.437C222.596 446.44 221.618 443.788 221.618 440.479V439.864C221.618 437.649 222.042 435.674 222.89 433.938C223.751 432.188 224.954 430.827 226.499 429.856C228.044 428.886 229.767 428.4 231.667 428.4C234.688 428.4 237.02 429.364 238.66 431.292C240.314 433.22 241.142 435.947 241.142 439.475V441.484H226.643C226.793 443.316 227.401 444.766 228.468 445.832C229.548 446.898 230.901 447.432 232.528 447.432C234.812 447.432 236.671 446.509 238.106 444.663L240.793 447.227C239.904 448.553 238.715 449.585 237.225 450.323C235.748 451.048 234.087 451.41 232.241 451.41ZM231.646 432.399C230.279 432.399 229.172 432.878 228.324 433.835C227.49 434.792 226.957 436.125 226.725 437.834H236.22V437.465C236.11 435.797 235.666 434.539 234.887 433.691C234.107 432.83 233.027 432.399 231.646 432.399Z" fill="white"/>
<path d="M256.646 433.363C255.989 433.254 255.312 433.199 254.615 433.199C252.332 433.199 250.794 434.074 250.001 435.824V451H245.018V428.811H249.775L249.898 431.292C251.102 429.364 252.77 428.4 254.902 428.4C255.613 428.4 256.201 428.496 256.666 428.688L256.646 433.363Z" fill="white"/>
<path d="M272.437 451C272.218 450.576 272.026 449.886 271.862 448.929C270.276 450.583 268.335 451.41 266.038 451.41C263.81 451.41 261.991 450.774 260.583 449.503C259.175 448.231 258.471 446.659 258.471 444.786C258.471 442.421 259.346 440.609 261.096 439.352C262.859 438.08 265.375 437.444 268.643 437.444H271.698V435.988C271.698 434.84 271.377 433.924 270.734 433.24C270.092 432.543 269.114 432.194 267.802 432.194C266.667 432.194 265.737 432.481 265.013 433.056C264.288 433.616 263.926 434.334 263.926 435.209H258.942C258.942 433.992 259.346 432.857 260.152 431.805C260.959 430.738 262.053 429.904 263.434 429.303C264.828 428.701 266.38 428.4 268.089 428.4C270.687 428.4 272.758 429.057 274.303 430.369C275.848 431.668 276.641 433.5 276.682 435.865V445.873C276.682 447.869 276.962 449.462 277.522 450.651V451H272.437ZM266.961 447.411C267.945 447.411 268.868 447.172 269.729 446.693C270.604 446.215 271.261 445.572 271.698 444.766V440.582H269.012C267.166 440.582 265.778 440.903 264.849 441.546C263.919 442.188 263.454 443.098 263.454 444.273C263.454 445.23 263.769 445.996 264.397 446.57C265.04 447.131 265.895 447.411 266.961 447.411Z" fill="white"/>
<path d="M307.443 428.811L307.587 431.374C309.228 429.392 311.381 428.4 314.047 428.4C318.668 428.4 321.02 431.046 321.102 436.337V451H316.118V436.624C316.118 435.216 315.811 434.177 315.195 433.507C314.594 432.823 313.603 432.481 312.222 432.481C310.212 432.481 308.715 433.391 307.73 435.209V451H302.747V428.811H307.443Z" fill="white"/>
<path d="M325.265 439.7C325.265 437.526 325.695 435.571 326.557 433.835C327.418 432.085 328.628 430.745 330.187 429.815C331.745 428.872 333.536 428.4 335.56 428.4C338.554 428.4 340.98 429.364 342.84 431.292C344.713 433.22 345.725 435.776 345.875 438.962L345.896 440.131C345.896 442.318 345.472 444.273 344.624 445.996C343.79 447.719 342.587 449.052 341.015 449.995C339.456 450.938 337.651 451.41 335.601 451.41C332.47 451.41 329.961 450.371 328.074 448.293C326.201 446.201 325.265 443.419 325.265 439.946V439.7ZM330.248 440.131C330.248 442.414 330.72 444.205 331.663 445.504C332.606 446.789 333.919 447.432 335.601 447.432C337.282 447.432 338.588 446.775 339.518 445.463C340.461 444.15 340.933 442.229 340.933 439.7C340.933 437.458 340.447 435.681 339.477 434.368C338.52 433.056 337.214 432.399 335.56 432.399C333.933 432.399 332.641 433.049 331.684 434.348C330.727 435.633 330.248 437.561 330.248 440.131Z" fill="white"/>
<path d="M370.341 451.41C367.183 451.41 364.619 450.419 362.65 448.437C360.695 446.44 359.718 443.788 359.718 440.479V439.864C359.718 437.649 360.142 435.674 360.989 433.938C361.851 432.188 363.054 430.827 364.599 429.856C366.144 428.886 367.866 428.4 369.767 428.4C372.788 428.4 375.119 429.364 376.76 431.292C378.414 433.22 379.241 435.947 379.241 439.475V441.484H364.742C364.893 443.316 365.501 444.766 366.567 445.832C367.647 446.898 369.001 447.432 370.628 447.432C372.911 447.432 374.771 446.509 376.206 444.663L378.893 447.227C378.004 448.553 376.814 449.585 375.324 450.323C373.848 451.048 372.187 451.41 370.341 451.41ZM369.746 432.399C368.379 432.399 367.271 432.878 366.424 433.835C365.59 434.792 365.057 436.125 364.824 437.834H374.319V437.465C374.21 435.797 373.766 434.539 372.986 433.691C372.207 432.83 371.127 432.399 369.746 432.399Z" fill="white"/>
<path d="M395.565 444.971C395.565 444.082 395.196 443.405 394.458 442.94C393.733 442.476 392.523 442.065 390.828 441.71C389.133 441.354 387.718 440.903 386.583 440.356C384.095 439.153 382.851 437.41 382.851 435.127C382.851 433.213 383.657 431.613 385.271 430.328C386.884 429.043 388.935 428.4 391.423 428.4C394.075 428.4 396.215 429.057 397.842 430.369C399.482 431.682 400.303 433.384 400.303 435.476H395.319C395.319 434.519 394.964 433.726 394.253 433.097C393.542 432.454 392.599 432.133 391.423 432.133C390.329 432.133 389.434 432.386 388.736 432.892C388.053 433.397 387.711 434.074 387.711 434.922C387.711 435.688 388.032 436.282 388.675 436.706C389.317 437.13 390.616 437.561 392.571 437.998C394.526 438.422 396.058 438.935 397.165 439.536C398.286 440.124 399.113 440.835 399.646 441.669C400.193 442.503 400.467 443.515 400.467 444.704C400.467 446.7 399.64 448.32 397.985 449.564C396.331 450.795 394.164 451.41 391.484 451.41C389.666 451.41 388.046 451.082 386.624 450.426C385.202 449.77 384.095 448.867 383.302 447.719C382.509 446.57 382.112 445.333 382.112 444.007H386.952C387.021 445.183 387.465 446.092 388.285 446.734C389.105 447.363 390.192 447.678 391.546 447.678C392.858 447.678 393.856 447.432 394.54 446.939C395.224 446.434 395.565 445.777 395.565 444.971Z" fill="white"/>
<path d="M426.901 433.363C426.245 433.254 425.568 433.199 424.871 433.199C422.588 433.199 421.05 434.074 420.257 435.824V451H415.273V428.811H420.031L420.154 431.292C421.357 429.364 423.025 428.4 425.158 428.4C425.869 428.4 426.457 428.496 426.922 428.688L426.901 433.363Z" fill="white"/>
<path d="M428.378 439.7C428.378 437.526 428.809 435.571 429.67 433.835C430.531 432.085 431.741 430.745 433.3 429.815C434.858 428.872 436.649 428.4 438.673 428.4C441.667 428.4 444.094 429.364 445.953 431.292C447.826 433.22 448.838 435.776 448.988 438.962L449.009 440.131C449.009 442.318 448.585 444.273 447.737 445.996C446.903 447.719 445.7 449.052 444.128 449.995C442.569 450.938 440.765 451.41 438.714 451.41C435.583 451.41 433.074 450.371 431.188 448.293C429.314 446.201 428.378 443.419 428.378 439.946V439.7ZM433.361 440.131C433.361 442.414 433.833 444.205 434.776 445.504C435.72 446.789 437.032 447.432 438.714 447.432C440.396 447.432 441.701 446.775 442.631 445.463C443.574 444.15 444.046 442.229 444.046 439.7C444.046 437.458 443.561 435.681 442.59 434.368C441.633 433.056 440.327 432.399 438.673 432.399C437.046 432.399 435.754 433.049 434.797 434.348C433.84 435.633 433.361 437.561 433.361 440.131Z" fill="white"/>
<path d="M458.422 428.811V452.969C458.422 455.238 457.854 456.968 456.72 458.157C455.599 459.36 453.951 459.962 451.777 459.962C450.861 459.962 449.979 459.846 449.132 459.613V455.676C449.651 455.799 450.239 455.86 450.896 455.86C452.55 455.86 453.397 454.958 453.438 453.153V428.811H458.422ZM453.008 423.048C453.008 422.282 453.247 421.646 453.726 421.141C454.218 420.635 454.915 420.382 455.817 420.382C456.72 420.382 457.417 420.635 457.909 421.141C458.401 421.646 458.647 422.282 458.647 423.048C458.647 423.8 458.401 424.429 457.909 424.935C457.417 425.427 456.72 425.673 455.817 425.673C454.915 425.673 454.218 425.427 453.726 424.935C453.247 424.429 453.008 423.8 453.008 423.048Z" fill="white"/>
<path d="M462.831 439.7C462.831 437.526 463.262 435.571 464.123 433.835C464.984 432.085 466.194 430.745 467.753 429.815C469.312 428.872 471.103 428.4 473.126 428.4C476.12 428.4 478.547 429.364 480.406 431.292C482.279 433.22 483.291 435.776 483.441 438.962L483.462 440.131C483.462 442.318 483.038 444.273 482.19 445.996C481.356 447.719 480.153 449.052 478.581 449.995C477.022 450.938 475.218 451.41 473.167 451.41C470.036 451.41 467.527 450.371 465.641 448.293C463.768 446.201 462.831 443.419 462.831 439.946V439.7ZM467.814 440.131C467.814 442.414 468.286 444.205 469.229 445.504C470.173 446.789 471.485 447.432 473.167 447.432C474.849 447.432 476.154 446.775 477.084 445.463C478.027 444.15 478.499 442.229 478.499 439.7C478.499 437.458 478.014 435.681 477.043 434.368C476.086 433.056 474.78 432.399 473.126 432.399C471.499 432.399 470.207 433.049 469.25 434.348C468.293 435.633 467.814 437.561 467.814 440.131Z" fill="white"/>
<path d="M592 434C592 450.569 578.569 464 562 464C545.431 464 532 450.569 532 434C532 417.431 545.431 404 562 404C578.569 404 592 417.431 592 434Z" fill="#2CF30B"/>
<path d="M675 434C675 450.569 661.569 464 645 464C628.431 464 615 450.569 615 434C615 417.431 628.431 404 645 404C661.569 404 675 417.431 675 434Z" fill="#1043F5"/>
<path d="M41.2412 518.347H29.2236V531H24.0352V501.141H43.0049V505.324H29.2236V514.204H41.2412V518.347Z" fill="white"/>
<path d="M57.7295 513.363C57.0732 513.254 56.3965 513.199 55.6992 513.199C53.416 513.199 51.8779 514.074 51.085 515.824V531H46.1016V508.811H50.8594L50.9824 511.292C52.1855 509.364 53.8535 508.4 55.9863 508.4C56.6973 508.4 57.2852 508.496 57.75 508.688L57.7295 513.363Z" fill="white"/>
<path d="M73.5205 531C73.3018 530.576 73.1104 529.886 72.9463 528.929C71.3604 530.583 69.4189 531.41 67.1221 531.41C64.8936 531.41 63.0752 530.774 61.667 529.503C60.2588 528.231 59.5547 526.659 59.5547 524.786C59.5547 522.421 60.4297 520.609 62.1797 519.352C63.9434 518.08 66.459 517.444 69.7266 517.444H72.7822V515.988C72.7822 514.84 72.4609 513.924 71.8184 513.24C71.1758 512.543 70.1982 512.194 68.8857 512.194C67.751 512.194 66.8213 512.481 66.0967 513.056C65.3721 513.616 65.0098 514.334 65.0098 515.209H60.0264C60.0264 513.992 60.4297 512.857 61.2363 511.805C62.043 510.738 63.1367 509.904 64.5176 509.303C65.9121 508.701 67.4639 508.4 69.1729 508.4C71.7705 508.4 73.8418 509.057 75.3867 510.369C76.9316 511.668 77.7246 513.5 77.7656 515.865V525.873C77.7656 527.869 78.0459 529.462 78.6064 530.651V531H73.5205ZM68.0449 527.411C69.0293 527.411 69.9521 527.172 70.8135 526.693C71.6885 526.215 72.3447 525.572 72.7822 524.766V520.582H70.0957C68.25 520.582 66.8623 520.903 65.9326 521.546C65.0029 522.188 64.5381 523.098 64.5381 524.273C64.5381 525.23 64.8525 525.996 65.4814 526.57C66.124 527.131 66.9785 527.411 68.0449 527.411Z" fill="white"/>
<path d="M87.6094 508.811L87.7529 511.374C89.3936 509.392 91.5469 508.4 94.2129 508.4C98.834 508.4 101.186 511.046 101.268 516.337V531H96.2842V516.624C96.2842 515.216 95.9766 514.177 95.3613 513.507C94.7598 512.823 93.7686 512.481 92.3877 512.481C90.3779 512.481 88.8809 513.391 87.8965 515.209V531H82.9131V508.811H87.6094Z" fill="white"/>
<path d="M115.479 527.432C116.724 527.432 117.756 527.069 118.576 526.345C119.396 525.62 119.834 524.725 119.889 523.658H124.585C124.53 525.039 124.1 526.331 123.293 527.534C122.486 528.724 121.393 529.667 120.012 530.364C118.631 531.062 117.141 531.41 115.541 531.41C112.438 531.41 109.977 530.405 108.158 528.396C106.34 526.386 105.431 523.61 105.431 520.069V519.557C105.431 516.18 106.333 513.479 108.138 511.456C109.942 509.419 112.403 508.4 115.521 508.4C118.159 508.4 120.306 509.173 121.96 510.718C123.628 512.249 124.503 514.266 124.585 516.768H119.889C119.834 515.496 119.396 514.45 118.576 513.63C117.77 512.81 116.737 512.399 115.479 512.399C113.866 512.399 112.622 512.987 111.747 514.163C110.872 515.325 110.428 517.096 110.414 519.475V520.274C110.414 522.681 110.845 524.479 111.706 525.668C112.581 526.844 113.839 527.432 115.479 527.432Z" fill="white"/>
<path d="M133.649 531H128.666V508.811H133.649V531ZM128.358 503.048C128.358 502.282 128.598 501.646 129.076 501.141C129.568 500.635 130.266 500.382 131.168 500.382C132.07 500.382 132.768 500.635 133.26 501.141C133.752 501.646 133.998 502.282 133.998 503.048C133.998 503.8 133.752 504.429 133.26 504.935C132.768 505.427 132.07 505.673 131.168 505.673C130.266 505.673 129.568 505.427 129.076 504.935C128.598 504.429 128.358 503.8 128.358 503.048Z" fill="white"/>
<path d="M151.532 524.971C151.532 524.082 151.163 523.405 150.425 522.94C149.7 522.476 148.49 522.065 146.795 521.71C145.1 521.354 143.685 520.903 142.55 520.356C140.062 519.153 138.817 517.41 138.817 515.127C138.817 513.213 139.624 511.613 141.237 510.328C142.851 509.043 144.901 508.4 147.39 508.4C150.042 508.4 152.182 509.057 153.809 510.369C155.449 511.682 156.27 513.384 156.27 515.476H151.286C151.286 514.519 150.931 513.726 150.22 513.097C149.509 512.454 148.565 512.133 147.39 512.133C146.296 512.133 145.4 512.386 144.703 512.892C144.02 513.397 143.678 514.074 143.678 514.922C143.678 515.688 143.999 516.282 144.642 516.706C145.284 517.13 146.583 517.561 148.538 517.998C150.493 518.422 152.024 518.935 153.132 519.536C154.253 520.124 155.08 520.835 155.613 521.669C156.16 522.503 156.434 523.515 156.434 524.704C156.434 526.7 155.606 528.32 153.952 529.564C152.298 530.795 150.131 531.41 147.451 531.41C145.633 531.41 144.013 531.082 142.591 530.426C141.169 529.77 140.062 528.867 139.269 527.719C138.476 526.57 138.079 525.333 138.079 524.007H142.919C142.987 525.183 143.432 526.092 144.252 526.734C145.072 527.363 146.159 527.678 147.513 527.678C148.825 527.678 149.823 527.432 150.507 526.939C151.19 526.434 151.532 525.777 151.532 524.971Z" fill="white"/>
<path d="M169.907 527.432C171.151 527.432 172.184 527.069 173.004 526.345C173.824 525.62 174.262 524.725 174.316 523.658H179.013C178.958 525.039 178.527 526.331 177.721 527.534C176.914 528.724 175.82 529.667 174.439 530.364C173.059 531.062 171.568 531.41 169.969 531.41C166.865 531.41 164.404 530.405 162.586 528.396C160.768 526.386 159.858 523.61 159.858 520.069V519.557C159.858 516.18 160.761 513.479 162.565 511.456C164.37 509.419 166.831 508.4 169.948 508.4C172.587 508.4 174.733 509.173 176.388 510.718C178.056 512.249 178.931 514.266 179.013 516.768H174.316C174.262 515.496 173.824 514.45 173.004 513.63C172.197 512.81 171.165 512.399 169.907 512.399C168.294 512.399 167.05 512.987 166.175 514.163C165.3 515.325 164.855 517.096 164.842 519.475V520.274C164.842 522.681 165.272 524.479 166.134 525.668C167.009 526.844 168.267 527.432 169.907 527.432Z" fill="white"/>
<path d="M181.843 519.7C181.843 517.526 182.273 515.571 183.135 513.835C183.996 512.085 185.206 510.745 186.765 509.815C188.323 508.872 190.114 508.4 192.138 508.4C195.132 508.4 197.559 509.364 199.418 511.292C201.291 513.22 202.303 515.776 202.453 518.962L202.474 520.131C202.474 522.318 202.05 524.273 201.202 525.996C200.368 527.719 199.165 529.052 197.593 529.995C196.034 530.938 194.229 531.41 192.179 531.41C189.048 531.41 186.539 530.371 184.652 528.293C182.779 526.201 181.843 523.419 181.843 519.946V519.7ZM186.826 520.131C186.826 522.414 187.298 524.205 188.241 525.504C189.185 526.789 190.497 527.432 192.179 527.432C193.86 527.432 195.166 526.775 196.096 525.463C197.039 524.15 197.511 522.229 197.511 519.7C197.511 517.458 197.025 515.681 196.055 514.368C195.098 513.056 193.792 512.399 192.138 512.399C190.511 512.399 189.219 513.049 188.262 514.348C187.305 515.633 186.826 517.561 186.826 520.131Z" fill="white"/>
<path d="M240.782 531H235.819V507.026L228.498 509.528V505.324L240.146 501.038H240.782V531Z" fill="white"/>
<path d="M271.708 531.41C268.55 531.41 265.986 530.419 264.018 528.437C262.062 526.44 261.085 523.788 261.085 520.479V519.864C261.085 517.649 261.509 515.674 262.356 513.938C263.218 512.188 264.421 510.827 265.966 509.856C267.511 508.886 269.233 508.4 271.134 508.4C274.155 508.4 276.486 509.364 278.127 511.292C279.781 513.22 280.608 515.947 280.608 519.475V521.484H266.109C266.26 523.316 266.868 524.766 267.935 525.832C269.015 526.898 270.368 527.432 271.995 527.432C274.278 527.432 276.138 526.509 277.573 524.663L280.26 527.227C279.371 528.553 278.182 529.585 276.691 530.323C275.215 531.048 273.554 531.41 271.708 531.41ZM271.113 512.399C269.746 512.399 268.639 512.878 267.791 513.835C266.957 514.792 266.424 516.125 266.191 517.834H275.687V517.465C275.577 515.797 275.133 514.539 274.354 513.691C273.574 512.83 272.494 512.399 271.113 512.399Z" fill="white"/>
<path d="M296.933 524.971C296.933 524.082 296.563 523.405 295.825 522.94C295.101 522.476 293.891 522.065 292.195 521.71C290.5 521.354 289.085 520.903 287.95 520.356C285.462 519.153 284.218 517.41 284.218 515.127C284.218 513.213 285.024 511.613 286.638 510.328C288.251 509.043 290.302 508.4 292.79 508.4C295.442 508.4 297.582 509.057 299.209 510.369C300.85 511.682 301.67 513.384 301.67 515.476H296.687C296.687 514.519 296.331 513.726 295.62 513.097C294.909 512.454 293.966 512.133 292.79 512.133C291.696 512.133 290.801 512.386 290.104 512.892C289.42 513.397 289.078 514.074 289.078 514.922C289.078 515.688 289.399 516.282 290.042 516.706C290.685 517.13 291.983 517.561 293.938 517.998C295.894 518.422 297.425 518.935 298.532 519.536C299.653 520.124 300.48 520.835 301.014 521.669C301.561 522.503 301.834 523.515 301.834 524.704C301.834 526.7 301.007 528.32 299.353 529.564C297.698 530.795 295.531 531.41 292.852 531.41C291.033 531.41 289.413 531.082 287.991 530.426C286.569 529.77 285.462 528.867 284.669 527.719C283.876 526.57 283.479 525.333 283.479 524.007H288.319C288.388 525.183 288.832 526.092 289.652 526.734C290.473 527.363 291.56 527.678 292.913 527.678C294.226 527.678 295.224 527.432 295.907 526.939C296.591 526.434 296.933 525.777 296.933 524.971Z" fill="white"/>
<path d="M307.945 531V512.502H304.562V508.811H307.945V506.78C307.945 504.319 308.629 502.419 309.996 501.079C311.363 499.739 313.277 499.069 315.738 499.069C316.613 499.069 317.543 499.192 318.527 499.438L318.404 503.335C317.857 503.226 317.222 503.171 316.497 503.171C314.118 503.171 312.929 504.395 312.929 506.842V508.811H317.44V512.502H312.929V531H307.945Z" fill="white"/>
<path d="M330.36 531.41C327.202 531.41 324.639 530.419 322.67 528.437C320.715 526.44 319.737 523.788 319.737 520.479V519.864C319.737 517.649 320.161 515.674 321.009 513.938C321.87 512.188 323.073 510.827 324.618 509.856C326.163 508.886 327.886 508.4 329.786 508.4C332.808 508.4 335.139 509.364 336.779 511.292C338.434 513.22 339.261 515.947 339.261 519.475V521.484H324.762C324.912 523.316 325.521 524.766 326.587 525.832C327.667 526.898 329.021 527.432 330.647 527.432C332.931 527.432 334.79 526.509 336.226 524.663L338.912 527.227C338.023 528.553 336.834 529.585 335.344 530.323C333.867 531.048 332.206 531.41 330.36 531.41ZM329.766 512.399C328.398 512.399 327.291 512.878 326.443 513.835C325.609 514.792 325.076 516.125 324.844 517.834H334.339V517.465C334.229 515.797 333.785 514.539 333.006 513.691C332.227 512.83 331.146 512.399 329.766 512.399Z" fill="white"/>
<path d="M354.765 513.363C354.108 513.254 353.432 513.199 352.734 513.199C350.451 513.199 348.913 514.074 348.12 515.824V531H343.137V508.811H347.895L348.018 511.292C349.221 509.364 350.889 508.4 353.021 508.4C353.732 508.4 354.32 508.496 354.785 508.688L354.765 513.363Z" fill="white"/>
<path d="M370.556 531C370.337 530.576 370.146 529.886 369.981 528.929C368.396 530.583 366.454 531.41 364.157 531.41C361.929 531.41 360.11 530.774 358.702 529.503C357.294 528.231 356.59 526.659 356.59 524.786C356.59 522.421 357.465 520.609 359.215 519.352C360.979 518.08 363.494 517.444 366.762 517.444H369.817V515.988C369.817 514.84 369.496 513.924 368.854 513.24C368.211 512.543 367.233 512.194 365.921 512.194C364.786 512.194 363.856 512.481 363.132 513.056C362.407 513.616 362.045 514.334 362.045 515.209H357.062C357.062 513.992 357.465 512.857 358.271 511.805C359.078 510.738 360.172 509.904 361.553 509.303C362.947 508.701 364.499 508.4 366.208 508.4C368.806 508.4 370.877 509.057 372.422 510.369C373.967 511.668 374.76 513.5 374.801 515.865V525.873C374.801 527.869 375.081 529.462 375.642 530.651V531H370.556ZM365.08 527.411C366.064 527.411 366.987 527.172 367.849 526.693C368.724 526.215 369.38 525.572 369.817 524.766V520.582H367.131C365.285 520.582 363.897 520.903 362.968 521.546C362.038 522.188 361.573 523.098 361.573 524.273C361.573 525.23 361.888 525.996 362.517 526.57C363.159 527.131 364.014 527.411 365.08 527.411Z" fill="white"/>
<path d="M405.562 508.811L405.706 511.374C407.347 509.392 409.5 508.4 412.166 508.4C416.787 508.4 419.139 511.046 419.221 516.337V531H414.237V516.624C414.237 515.216 413.93 514.177 413.314 513.507C412.713 512.823 411.722 512.481 410.341 512.481C408.331 512.481 406.834 513.391 405.85 515.209V531H400.866V508.811H405.562Z" fill="white"/>
<path d="M423.384 519.7C423.384 517.526 423.814 515.571 424.676 513.835C425.537 512.085 426.747 510.745 428.306 509.815C429.864 508.872 431.655 508.4 433.679 508.4C436.673 508.4 439.1 509.364 440.959 511.292C442.832 513.22 443.844 515.776 443.994 518.962L444.015 520.131C444.015 522.318 443.591 524.273 442.743 525.996C441.909 527.719 440.706 529.052 439.134 529.995C437.575 530.938 435.771 531.41 433.72 531.41C430.589 531.41 428.08 530.371 426.193 528.293C424.32 526.201 423.384 523.419 423.384 519.946V519.7ZM428.367 520.131C428.367 522.414 428.839 524.205 429.782 525.504C430.726 526.789 432.038 527.432 433.72 527.432C435.401 527.432 436.707 526.775 437.637 525.463C438.58 524.15 439.052 522.229 439.052 519.7C439.052 517.458 438.566 515.681 437.596 514.368C436.639 513.056 435.333 512.399 433.679 512.399C432.052 512.399 430.76 513.049 429.803 514.348C428.846 515.633 428.367 517.561 428.367 520.131Z" fill="white"/>
<path d="M468.46 531.41C465.302 531.41 462.738 530.419 460.77 528.437C458.814 526.44 457.837 523.788 457.837 520.479V519.864C457.837 517.649 458.261 515.674 459.108 513.938C459.97 512.188 461.173 510.827 462.718 509.856C464.263 508.886 465.985 508.4 467.886 508.4C470.907 508.4 473.238 509.364 474.879 511.292C476.533 513.22 477.36 515.947 477.36 519.475V521.484H462.861C463.012 523.316 463.62 524.766 464.687 525.832C465.767 526.898 467.12 527.432 468.747 527.432C471.03 527.432 472.89 526.509 474.325 524.663L477.012 527.227C476.123 528.553 474.934 529.585 473.443 530.323C471.967 531.048 470.306 531.41 468.46 531.41ZM467.865 512.399C466.498 512.399 465.391 512.878 464.543 513.835C463.709 514.792 463.176 516.125 462.943 517.834H472.438V517.465C472.329 515.797 471.885 514.539 471.105 513.691C470.326 512.83 469.246 512.399 467.865 512.399Z" fill="white"/>
<path d="M493.685 524.971C493.685 524.082 493.315 523.405 492.577 522.94C491.853 522.476 490.643 522.065 488.947 521.71C487.252 521.354 485.837 520.903 484.702 520.356C482.214 519.153 480.97 517.41 480.97 515.127C480.97 513.213 481.776 511.613 483.39 510.328C485.003 509.043 487.054 508.4 489.542 508.4C492.194 508.4 494.334 509.057 495.961 510.369C497.602 511.682 498.422 513.384 498.422 515.476H493.438C493.438 514.519 493.083 513.726 492.372 513.097C491.661 512.454 490.718 512.133 489.542 512.133C488.448 512.133 487.553 512.386 486.855 512.892C486.172 513.397 485.83 514.074 485.83 514.922C485.83 515.688 486.151 516.282 486.794 516.706C487.437 517.13 488.735 517.561 490.69 517.998C492.646 518.422 494.177 518.935 495.284 519.536C496.405 520.124 497.232 520.835 497.766 521.669C498.312 522.503 498.586 523.515 498.586 524.704C498.586 526.7 497.759 528.32 496.104 529.564C494.45 530.795 492.283 531.41 489.604 531.41C487.785 531.41 486.165 531.082 484.743 530.426C483.321 529.77 482.214 528.867 481.421 527.719C480.628 526.57 480.231 525.333 480.231 524.007H485.071C485.14 525.183 485.584 526.092 486.404 526.734C487.225 527.363 488.312 527.678 489.665 527.678C490.978 527.678 491.976 527.432 492.659 526.939C493.343 526.434 493.685 525.777 493.685 524.971Z" fill="white"/>
<path d="M531.686 524.684L536.382 508.811H541.529L533.839 531H529.512L521.76 508.811H526.928L531.686 524.684Z" fill="white"/>
<path d="M554.142 531.41C550.983 531.41 548.42 530.419 546.451 528.437C544.496 526.44 543.519 523.788 543.519 520.479V519.864C543.519 517.649 543.942 515.674 544.79 513.938C545.651 512.188 546.854 510.827 548.399 509.856C549.944 508.886 551.667 508.4 553.567 508.4C556.589 508.4 558.92 509.364 560.561 511.292C562.215 513.22 563.042 515.947 563.042 519.475V521.484H548.543C548.693 523.316 549.302 524.766 550.368 525.832C551.448 526.898 552.802 527.432 554.429 527.432C556.712 527.432 558.571 526.509 560.007 524.663L562.693 527.227C561.805 528.553 560.615 529.585 559.125 530.323C557.648 531.048 555.987 531.41 554.142 531.41ZM553.547 512.399C552.18 512.399 551.072 512.878 550.225 513.835C549.391 514.792 548.857 516.125 548.625 517.834H558.12V517.465C558.011 515.797 557.566 514.539 556.787 513.691C556.008 512.83 554.928 512.399 553.547 512.399Z" fill="white"/>
<path d="M578.546 513.363C577.89 513.254 577.213 513.199 576.516 513.199C574.232 513.199 572.694 514.074 571.901 515.824V531H566.918V508.811H571.676L571.799 511.292C573.002 509.364 574.67 508.4 576.803 508.4C577.514 508.4 578.102 508.496 578.566 508.688L578.546 513.363Z" fill="white"/>
<path d="M580.351 519.741C580.351 516.323 581.144 513.582 582.729 511.518C584.315 509.439 586.441 508.4 589.107 508.4C591.459 508.4 593.359 509.221 594.809 510.861V499.5H599.792V531H595.28L595.034 528.703C593.544 530.508 591.555 531.41 589.066 531.41C586.469 531.41 584.363 530.364 582.75 528.272C581.15 526.181 580.351 523.337 580.351 519.741ZM585.334 520.172C585.334 522.428 585.765 524.191 586.626 525.463C587.501 526.721 588.738 527.35 590.338 527.35C592.375 527.35 593.865 526.44 594.809 524.622V515.147C593.893 513.37 592.416 512.481 590.379 512.481C588.766 512.481 587.521 513.124 586.646 514.409C585.771 515.681 585.334 517.602 585.334 520.172Z" fill="white"/>
<path d="M614.763 531.41C611.604 531.41 609.041 530.419 607.072 528.437C605.117 526.44 604.14 523.788 604.14 520.479V519.864C604.14 517.649 604.563 515.674 605.411 513.938C606.272 512.188 607.476 510.827 609.021 509.856C610.565 508.886 612.288 508.4 614.188 508.4C617.21 508.4 619.541 509.364 621.182 511.292C622.836 513.22 623.663 515.947 623.663 519.475V521.484H609.164C609.314 523.316 609.923 524.766 610.989 525.832C612.069 526.898 613.423 527.432 615.05 527.432C617.333 527.432 619.192 526.509 620.628 524.663L623.314 527.227C622.426 528.553 621.236 529.585 619.746 530.323C618.27 531.048 616.608 531.41 614.763 531.41ZM614.168 512.399C612.801 512.399 611.693 512.878 610.846 513.835C610.012 514.792 609.479 516.125 609.246 517.834H618.741V517.465C618.632 515.797 618.188 514.539 617.408 513.691C616.629 512.83 615.549 512.399 614.168 512.399Z" fill="white"/>
<path d="M736 517C736 533.569 722.569 547 706 547C689.431 547 676 533.569 676 517C676 500.431 689.431 487 706 487C722.569 487 736 500.431 736 517Z" fill="#1043F5"/>
<path d="M824 517C824 533.569 810.569 547 794 547C777.431 547 764 533.569 764 517C764 500.431 777.431 487 794 487C810.569 487 824 500.431 824 517Z" fill="#FD0C0C"/>
<path d="M686.5 399.875L651.625 438.227L641.5 430.558H635.875L651.625 456.125L692.125 399.875H686.5Z" fill="white"/>
<path d="M738.5 488.875L703.625 527.227L693.5 519.558H687.875L703.625 545.125L744.125 488.875H738.5Z" fill="white"/>
<path d="M17.4873 613.67H5.22363V622.857H19.5586V627H0.0351562V597.141H19.415V601.324H5.22363V609.568H17.4873V613.67Z" fill="white"/>
<path d="M27.9258 604.811L28.0693 607.374C29.71 605.392 31.8633 604.4 34.5293 604.4C39.1504 604.4 41.502 607.046 41.584 612.337V627H36.6006V612.624C36.6006 611.216 36.293 610.177 35.6777 609.507C35.0762 608.823 34.085 608.481 32.7041 608.481C30.6943 608.481 29.1973 609.391 28.2129 611.209V627H23.2295V604.811H27.9258Z" fill="white"/>
<path d="M52.9248 599.417V604.811H56.8418V608.502H52.9248V620.889C52.9248 621.736 53.0889 622.352 53.417 622.734C53.7588 623.104 54.3604 623.288 55.2217 623.288C55.7959 623.288 56.377 623.22 56.9648 623.083V626.938C55.8301 627.253 54.7363 627.41 53.6836 627.41C49.8555 627.41 47.9414 625.298 47.9414 621.073V608.502H44.291V604.811H47.9414V599.417H52.9248Z" fill="white"/>
<path d="M59.1182 615.7C59.1182 613.526 59.5488 611.571 60.4102 609.835C61.2715 608.085 62.4814 606.745 64.04 605.815C65.5986 604.872 67.3896 604.4 69.4131 604.4C72.4072 604.4 74.834 605.364 76.6934 607.292C78.5664 609.22 79.5781 611.776 79.7285 614.962L79.749 616.131C79.749 618.318 79.3252 620.273 78.4775 621.996C77.6436 623.719 76.4404 625.052 74.8682 625.995C73.3096 626.938 71.5049 627.41 69.4541 627.41C66.3232 627.41 63.8145 626.371 61.9277 624.293C60.0547 622.201 59.1182 619.419 59.1182 615.946V615.7ZM64.1016 616.131C64.1016 618.414 64.5732 620.205 65.5166 621.504C66.46 622.789 67.7725 623.432 69.4541 623.432C71.1357 623.432 72.4414 622.775 73.3711 621.463C74.3145 620.15 74.7861 618.229 74.7861 615.7C74.7861 613.458 74.3008 611.681 73.3301 610.368C72.373 609.056 71.0674 608.399 69.4131 608.399C67.7861 608.399 66.4941 609.049 65.5371 610.348C64.5801 611.633 64.1016 613.561 64.1016 616.131Z" fill="white"/>
<path d="M88.5879 604.811L88.7314 607.374C90.3721 605.392 92.5254 604.4 95.1914 604.4C99.8125 604.4 102.164 607.046 102.246 612.337V627H97.2627V612.624C97.2627 611.216 96.9551 610.177 96.3398 609.507C95.7383 608.823 94.7471 608.481 93.3662 608.481C91.3564 608.481 89.8594 609.391 88.875 611.209V627H83.8916V604.811H88.5879Z" fill="white"/>
<path d="M116.458 623.432C117.702 623.432 118.734 623.069 119.555 622.345C120.375 621.62 120.812 620.725 120.867 619.658H125.563C125.509 621.039 125.078 622.331 124.271 623.534C123.465 624.724 122.371 625.667 120.99 626.364C119.609 627.062 118.119 627.41 116.52 627.41C113.416 627.41 110.955 626.405 109.137 624.396C107.318 622.386 106.409 619.61 106.409 616.069V615.557C106.409 612.18 107.312 609.479 109.116 607.456C110.921 605.419 113.382 604.4 116.499 604.4C119.138 604.4 121.284 605.173 122.938 606.718C124.606 608.249 125.481 610.266 125.563 612.768H120.867C120.812 611.496 120.375 610.45 119.555 609.63C118.748 608.81 117.716 608.399 116.458 608.399C114.845 608.399 113.601 608.987 112.726 610.163C111.851 611.325 111.406 613.096 111.393 615.475V616.274C111.393 618.681 111.823 620.479 112.685 621.668C113.56 622.844 114.817 623.432 116.458 623.432Z" fill="white"/>
<path d="M139.099 627.41C135.94 627.41 133.377 626.419 131.408 624.437C129.453 622.44 128.476 619.788 128.476 616.479V615.864C128.476 613.649 128.899 611.674 129.747 609.938C130.608 608.188 131.812 606.827 133.356 605.856C134.901 604.886 136.624 604.4 138.524 604.4C141.546 604.4 143.877 605.364 145.518 607.292C147.172 609.22 147.999 611.947 147.999 615.475V617.484H133.5C133.65 619.316 134.259 620.766 135.325 621.832C136.405 622.898 137.759 623.432 139.386 623.432C141.669 623.432 143.528 622.509 144.964 620.663L147.65 623.227C146.762 624.553 145.572 625.585 144.082 626.323C142.605 627.048 140.944 627.41 139.099 627.41ZM138.504 608.399C137.137 608.399 136.029 608.878 135.182 609.835C134.348 610.792 133.814 612.125 133.582 613.834H143.077V613.465C142.968 611.797 142.523 610.539 141.744 609.691C140.965 608.83 139.885 608.399 138.504 608.399Z" fill="white"/>
<path d="M164.323 620.971C164.323 620.082 163.954 619.405 163.216 618.94C162.491 618.476 161.281 618.065 159.586 617.71C157.891 617.354 156.476 616.903 155.341 616.356C152.853 615.153 151.608 613.41 151.608 611.127C151.608 609.213 152.415 607.613 154.028 606.328C155.642 605.043 157.692 604.4 160.181 604.4C162.833 604.4 164.973 605.057 166.6 606.369C168.24 607.682 169.061 609.384 169.061 611.476H164.077C164.077 610.519 163.722 609.726 163.011 609.097C162.3 608.454 161.356 608.133 160.181 608.133C159.087 608.133 158.191 608.386 157.494 608.892C156.811 609.397 156.469 610.074 156.469 610.922C156.469 611.688 156.79 612.282 157.433 612.706C158.075 613.13 159.374 613.561 161.329 613.998C163.284 614.422 164.815 614.935 165.923 615.536C167.044 616.124 167.871 616.835 168.404 617.669C168.951 618.503 169.225 619.515 169.225 620.704C169.225 622.7 168.397 624.32 166.743 625.564C165.089 626.795 162.922 627.41 160.242 627.41C158.424 627.41 156.804 627.082 155.382 626.426C153.96 625.77 152.853 624.867 152.06 623.719C151.267 622.57 150.87 621.333 150.87 620.007H155.71C155.778 621.183 156.223 622.092 157.043 622.734C157.863 623.363 158.95 623.678 160.304 623.678C161.616 623.678 162.614 623.432 163.298 622.939C163.981 622.434 164.323 621.777 164.323 620.971Z" fill="white"/>
<path d="M201.237 620.048H189.671L187.251 627H181.857L193.137 597.141H197.792L209.092 627H203.678L201.237 620.048ZM191.127 615.864H199.781L195.454 603.478L191.127 615.864Z" fill="white"/>
<path d="M217.315 627H212.332V595.5H217.315V627Z" fill="white"/>
<path d="M242.232 616.131C242.232 619.576 241.46 622.317 239.915 624.354C238.384 626.392 236.271 627.41 233.578 627.41C230.98 627.41 228.957 626.474 227.508 624.601L227.262 627H222.75V595.5H227.733V606.943C229.169 605.248 231.104 604.4 233.537 604.4C236.244 604.4 238.37 605.405 239.915 607.415C241.46 609.425 242.232 612.234 242.232 615.844V616.131ZM237.249 615.7C237.249 613.294 236.825 611.489 235.978 610.286C235.13 609.083 233.899 608.481 232.286 608.481C230.126 608.481 228.608 609.425 227.733 611.312V620.458C228.622 622.386 230.153 623.35 232.327 623.35C233.886 623.35 235.089 622.769 235.937 621.606C236.784 620.444 237.222 618.688 237.249 616.336V615.7Z" fill="white"/>
<path d="M256.198 627.41C253.04 627.41 250.477 626.419 248.508 624.437C246.553 622.44 245.575 619.788 245.575 616.479V615.864C245.575 613.649 245.999 611.674 246.847 609.938C247.708 608.188 248.911 606.827 250.456 605.856C252.001 604.886 253.724 604.4 255.624 604.4C258.646 604.4 260.977 605.364 262.617 607.292C264.271 609.22 265.099 611.947 265.099 615.475V617.484H250.6C250.75 619.316 251.358 620.766 252.425 621.832C253.505 622.898 254.858 623.432 256.485 623.432C258.769 623.432 260.628 622.509 262.063 620.663L264.75 623.227C263.861 624.553 262.672 625.585 261.182 626.323C259.705 627.048 258.044 627.41 256.198 627.41ZM255.604 608.399C254.236 608.399 253.129 608.878 252.281 609.835C251.447 610.792 250.914 612.125 250.682 613.834H260.177V613.465C260.067 611.797 259.623 610.539 258.844 609.691C258.064 608.83 256.984 608.399 255.604 608.399Z" fill="white"/>
<path d="M280.603 609.363C279.946 609.254 279.27 609.199 278.572 609.199C276.289 609.199 274.751 610.074 273.958 611.824V627H268.975V604.811H273.732L273.855 607.292C275.059 605.364 276.727 604.4 278.859 604.4C279.57 604.4 280.158 604.496 280.623 604.688L280.603 609.363Z" fill="white"/>
<path d="M291.021 599.417V604.811H294.938V608.502H291.021V620.889C291.021 621.736 291.185 622.352 291.513 622.734C291.854 623.104 292.456 623.288 293.317 623.288C293.892 623.288 294.473 623.22 295.061 623.083V626.938C293.926 627.253 292.832 627.41 291.779 627.41C287.951 627.41 286.037 625.298 286.037 621.073V608.502H282.387V604.811H286.037V599.417H291.021Z" fill="white"/>
<path d="M297.214 615.7C297.214 613.526 297.645 611.571 298.506 609.835C299.367 608.085 300.577 606.745 302.136 605.815C303.694 604.872 305.485 604.4 307.509 604.4C310.503 604.4 312.93 605.364 314.789 607.292C316.662 609.22 317.674 611.776 317.824 614.962L317.845 616.131C317.845 618.318 317.421 620.273 316.573 621.996C315.739 623.719 314.536 625.052 312.964 625.995C311.405 626.938 309.601 627.41 307.55 627.41C304.419 627.41 301.91 626.371 300.023 624.293C298.15 622.201 297.214 619.419 297.214 615.946V615.7ZM302.197 616.131C302.197 618.414 302.669 620.205 303.612 621.504C304.556 622.789 305.868 623.432 307.55 623.432C309.231 623.432 310.537 622.775 311.467 621.463C312.41 620.15 312.882 618.229 312.882 615.7C312.882 613.458 312.396 611.681 311.426 610.368C310.469 609.056 309.163 608.399 307.509 608.399C305.882 608.399 304.59 609.049 303.633 610.348C302.676 611.633 302.197 613.561 302.197 616.131Z" fill="white"/>
<path d="M342.29 627.41C339.132 627.41 336.568 626.419 334.6 624.437C332.645 622.44 331.667 619.788 331.667 616.479V615.864C331.667 613.649 332.091 611.674 332.938 609.938C333.8 608.188 335.003 606.827 336.548 605.856C338.093 604.886 339.815 604.4 341.716 604.4C344.737 604.4 347.068 605.364 348.709 607.292C350.363 609.22 351.19 611.947 351.19 615.475V617.484H336.691C336.842 619.316 337.45 620.766 338.517 621.832C339.597 622.898 340.95 623.432 342.577 623.432C344.86 623.432 346.72 622.509 348.155 620.663L350.842 623.227C349.953 624.553 348.764 625.585 347.273 626.323C345.797 627.048 344.136 627.41 342.29 627.41ZM341.695 608.399C340.328 608.399 339.221 608.878 338.373 609.835C337.539 610.792 337.006 612.125 336.773 613.834H346.269V613.465C346.159 611.797 345.715 610.539 344.936 609.691C344.156 608.83 343.076 608.399 341.695 608.399Z" fill="white"/>
<path d="M363.044 612.111L367.269 604.811H372.806L366.018 615.741L373.031 627H367.535L363.105 619.412L358.696 627H353.159L360.173 615.741L353.405 604.811H358.901L363.044 612.111Z" fill="white"/>
<path d="M382.444 599.417V604.811H386.361V608.502H382.444V620.889C382.444 621.736 382.608 622.352 382.937 622.734C383.278 623.104 383.88 623.288 384.741 623.288C385.315 623.288 385.896 623.22 386.484 623.083V626.938C385.35 627.253 384.256 627.41 383.203 627.41C379.375 627.41 377.461 625.298 377.461 621.073V608.502H373.811V604.811H377.461V599.417H382.444Z" fill="white"/>
<path d="M401.804 609.363C401.147 609.254 400.471 609.199 399.773 609.199C397.49 609.199 395.952 610.074 395.159 611.824V627H390.176V604.811H394.934L395.057 607.292C396.26 605.364 397.928 604.4 400.061 604.4C400.771 604.4 401.359 604.496 401.824 604.688L401.804 609.363Z" fill="white"/>
<path d="M417.595 627C417.376 626.576 417.185 625.886 417.021 624.929C415.435 626.583 413.493 627.41 411.196 627.41C408.968 627.41 407.149 626.774 405.741 625.503C404.333 624.231 403.629 622.659 403.629 620.786C403.629 618.421 404.504 616.609 406.254 615.352C408.018 614.08 410.533 613.444 413.801 613.444H416.856V611.988C416.856 610.84 416.535 609.924 415.893 609.24C415.25 608.543 414.272 608.194 412.96 608.194C411.825 608.194 410.896 608.481 410.171 609.056C409.446 609.616 409.084 610.334 409.084 611.209H404.101C404.101 609.992 404.504 608.857 405.311 607.805C406.117 606.738 407.211 605.904 408.592 605.303C409.986 604.701 411.538 604.4 413.247 604.4C415.845 604.4 417.916 605.057 419.461 606.369C421.006 607.668 421.799 609.5 421.84 611.865V621.873C421.84 623.869 422.12 625.462 422.681 626.651V627H417.595ZM412.119 623.411C413.104 623.411 414.026 623.172 414.888 622.693C415.763 622.215 416.419 621.572 416.856 620.766V616.582H414.17C412.324 616.582 410.937 616.903 410.007 617.546C409.077 618.188 408.612 619.098 408.612 620.273C408.612 621.23 408.927 621.996 409.556 622.57C410.198 623.131 411.053 623.411 412.119 623.411Z" fill="white"/>
<path d="M436.831 627.41C433.673 627.41 431.109 626.419 429.141 624.437C427.186 622.44 426.208 619.788 426.208 616.479V615.864C426.208 613.649 426.632 611.674 427.479 609.938C428.341 608.188 429.544 606.827 431.089 605.856C432.634 604.886 434.356 604.4 436.257 604.4C439.278 604.4 441.609 605.364 443.25 607.292C444.904 609.22 445.731 611.947 445.731 615.475V617.484H431.232C431.383 619.316 431.991 620.766 433.058 621.832C434.138 622.898 435.491 623.432 437.118 623.432C439.401 623.432 441.261 622.509 442.696 620.663L445.383 623.227C444.494 624.553 443.305 625.585 441.814 626.323C440.338 627.048 438.677 627.41 436.831 627.41ZM436.236 608.399C434.869 608.399 433.762 608.878 432.914 609.835C432.08 610.792 431.547 612.125 431.314 613.834H440.81V613.465C440.7 611.797 440.256 610.539 439.477 609.691C438.697 608.83 437.617 608.399 436.236 608.399Z" fill="white"/>
<path d="M452.622 621.75C453.552 621.75 454.27 622.017 454.775 622.55C455.281 623.069 455.534 623.726 455.534 624.519C455.534 625.298 455.281 625.947 454.775 626.467C454.27 626.973 453.552 627.226 452.622 627.226C451.733 627.226 451.029 626.973 450.51 626.467C449.99 625.961 449.73 625.312 449.73 624.519C449.73 623.726 449.983 623.069 450.489 622.55C450.995 622.017 451.706 621.75 452.622 621.75ZM452.622 604.339C453.552 604.339 454.27 604.605 454.775 605.139C455.281 605.658 455.534 606.314 455.534 607.107C455.534 607.887 455.281 608.536 454.775 609.056C454.27 609.562 453.552 609.814 452.622 609.814C451.733 609.814 451.029 609.562 450.51 609.056C449.99 608.55 449.73 607.9 449.73 607.107C449.73 606.314 449.983 605.658 450.489 605.139C450.995 604.605 451.706 604.339 452.622 604.339Z" fill="white"/>
<path d="M93.205 671.255C93.205 670.475 93.475 669.83 94.015 669.32C94.555 668.81 95.2 668.555 95.95 668.555C96.67 668.555 97.285 668.81 97.795 669.32C98.305 669.83 98.575 670.475 98.605 671.255C98.635 672.035 98.38 672.68 97.84 673.19C97.3 673.7 96.655 673.955 95.905 673.955C95.125 673.955 94.48 673.7 93.97 673.19C93.46 672.68 93.205 672.035 93.205 671.255ZM84.7 688.04C85.48 688.04 86.11 688.295 86.59 688.805C87.07 689.315 87.325 689.96 87.355 690.74C87.355 691.46 87.115 692.09 86.635 692.63C86.155 693.17 85.495 693.44 84.655 693.44C83.875 693.44 83.245 693.185 82.765 692.675C82.285 692.165 82.03 691.52 82 690.74C82 689.96 82.255 689.315 82.765 688.805C83.275 688.295 83.92 688.04 84.7 688.04ZM104.5 690.74C104.5 689.96 104.755 689.315 105.265 688.805C105.775 688.295 106.42 688.04 107.2 688.04C107.92 688.04 108.535 688.295 109.045 688.805C109.555 689.315 109.825 689.96 109.855 690.74C109.855 691.43 109.615 692.045 109.135 692.585C108.655 693.125 107.995 693.41 107.155 693.44C106.375 693.44 105.745 693.185 105.265 692.675C104.785 692.165 104.53 691.52 104.5 690.74Z" fill="white"/>
<path d="M141.652 668.915C140.842 668.915 140.212 668.66 139.762 668.15C139.312 667.64 139.072 666.98 139.042 666.17C139.042 664.52 139.762 663.05 141.202 661.76C142.642 660.47 144.382 659.825 146.422 659.825C147.472 659.825 148.132 659.84 148.402 659.87C150.622 660.23 152.317 661.025 153.487 662.255C154.657 663.485 155.257 664.82 155.287 666.26C155.287 667.82 154.777 669.335 153.757 670.805C152.737 672.275 151.327 673.34 149.527 674L149.392 674.09C149.392 674.12 149.527 674.165 149.797 674.225C150.067 674.285 150.502 674.42 151.102 674.63C151.702 674.84 152.272 675.155 152.812 675.575C155.272 677.165 156.502 679.265 156.502 681.875C156.502 684.245 155.572 686.315 153.712 688.085C151.852 689.855 149.497 690.74 146.647 690.74C144.247 690.74 142.177 690.095 140.437 688.805C138.697 687.515 137.827 685.88 137.827 683.9C137.827 683.06 138.097 682.385 138.637 681.875C139.177 681.365 139.852 681.095 140.662 681.065C141.502 681.065 142.192 681.335 142.732 681.875C143.272 682.415 143.542 683.09 143.542 683.9C143.542 684.23 143.497 684.53 143.407 684.8C143.317 685.07 143.212 685.31 143.092 685.52C142.972 685.73 142.807 685.91 142.597 686.06C142.387 686.21 142.207 686.33 142.057 686.42C141.907 686.51 141.757 686.57 141.607 686.6C141.457 686.63 141.337 686.675 141.247 686.735L141.067 686.78C142.597 688.13 144.457 688.805 146.647 688.805C148.297 688.805 149.542 688.01 150.382 686.42C150.892 685.43 151.147 683.915 151.147 681.875V680.975C151.147 678.125 150.187 676.22 148.267 675.26C147.817 675.08 146.902 674.975 145.522 674.945L143.632 674.9L143.497 674.81C143.437 674.72 143.407 674.48 143.407 674.09C143.407 673.55 143.527 673.28 143.767 673.28C144.607 673.28 145.477 673.205 146.377 673.055C147.397 672.905 148.327 672.275 149.167 671.165C150.007 670.055 150.427 668.375 150.427 666.125V665.765C150.427 664.055 149.902 662.87 148.852 662.21C148.192 661.79 147.487 661.58 146.737 661.58C145.777 661.58 144.892 661.745 144.082 662.075C143.272 662.405 142.702 662.75 142.372 663.11C142.042 663.47 141.877 663.65 141.877 663.65H142.012C142.102 663.68 142.222 663.71 142.372 663.74C142.522 663.77 142.672 663.845 142.822 663.965C142.972 664.085 143.152 664.19 143.362 664.28C143.572 664.37 143.722 664.535 143.812 664.775C143.902 665.015 144.022 665.24 144.172 665.45C144.322 665.66 144.367 665.96 144.307 666.35C144.307 667.01 144.097 667.595 143.677 668.105C143.257 668.615 142.582 668.885 141.652 668.915Z" fill="white"/>
<path d="M162.757 663.425C164.437 660.995 166.732 659.78 169.642 659.78C171.082 659.78 172.522 660.17 173.962 660.95C175.402 661.73 176.572 663.11 177.472 665.09C178.582 667.58 179.137 671 179.137 675.35C179.137 680 178.492 683.555 177.202 686.015C176.602 687.275 175.777 688.28 174.727 689.03C173.677 689.78 172.762 690.245 171.982 690.425C171.202 690.605 170.437 690.71 169.687 690.74C168.907 690.74 168.127 690.65 167.347 690.47C166.567 690.29 165.652 689.81 164.602 689.03C163.552 688.25 162.727 687.245 162.127 686.015C160.837 683.555 160.192 680 160.192 675.35C160.192 670.13 161.047 666.155 162.757 663.425ZM172.882 662.885C171.982 661.925 170.917 661.445 169.687 661.445C168.427 661.445 167.347 661.925 166.447 662.885C165.697 663.665 165.202 664.745 164.962 666.125C164.722 667.505 164.602 670.385 164.602 674.765C164.602 679.505 164.722 682.625 164.962 684.125C165.202 685.625 165.742 686.81 166.582 687.68C167.422 688.58 168.457 689.03 169.687 689.03C170.887 689.03 171.907 688.58 172.747 687.68C173.617 686.78 174.157 685.52 174.367 683.9C174.577 682.28 174.697 679.235 174.727 674.765C174.727 670.415 174.607 667.55 174.367 666.17C174.127 664.79 173.632 663.695 172.882 662.885Z" fill="white"/>
<path d="M194.716 679.085C194.716 679.085 194.716 678.89 194.716 678.5C194.716 678.11 194.926 677.81 195.346 677.6H221.491C221.941 677.84 222.166 678.14 222.166 678.5C222.166 678.86 221.941 679.16 221.491 679.4H195.346C194.926 679.19 194.716 678.89 194.716 678.5V679.085Z" fill="white"/>
<path d="M241.66 668.915C240.85 668.915 240.22 668.66 239.77 668.15C239.32 667.64 239.08 666.98 239.05 666.17C239.05 664.52 239.77 663.05 241.21 661.76C242.65 660.47 244.39 659.825 246.43 659.825C247.48 659.825 248.14 659.84 248.41 659.87C250.63 660.23 252.325 661.025 253.495 662.255C254.665 663.485 255.265 664.82 255.295 666.26C255.295 667.82 254.785 669.335 253.765 670.805C252.745 672.275 251.335 673.34 249.535 674L249.4 674.09C249.4 674.12 249.535 674.165 249.805 674.225C250.075 674.285 250.51 674.42 251.11 674.63C251.71 674.84 252.28 675.155 252.82 675.575C255.28 677.165 256.51 679.265 256.51 681.875C256.51 684.245 255.58 686.315 253.72 688.085C251.86 689.855 249.505 690.74 246.655 690.74C244.255 690.74 242.185 690.095 240.445 688.805C238.705 687.515 237.835 685.88 237.835 683.9C237.835 683.06 238.105 682.385 238.645 681.875C239.185 681.365 239.86 681.095 240.67 681.065C241.51 681.065 242.2 681.335 242.74 681.875C243.28 682.415 243.55 683.09 243.55 683.9C243.55 684.23 243.505 684.53 243.415 684.8C243.325 685.07 243.22 685.31 243.1 685.52C242.98 685.73 242.815 685.91 242.605 686.06C242.395 686.21 242.215 686.33 242.065 686.42C241.915 686.51 241.765 686.57 241.615 686.6C241.465 686.63 241.345 686.675 241.255 686.735L241.075 686.78C242.605 688.13 244.465 688.805 246.655 688.805C248.305 688.805 249.55 688.01 250.39 686.42C250.9 685.43 251.155 683.915 251.155 681.875V680.975C251.155 678.125 250.195 676.22 248.275 675.26C247.825 675.08 246.91 674.975 245.53 674.945L243.64 674.9L243.505 674.81C243.445 674.72 243.415 674.48 243.415 674.09C243.415 673.55 243.535 673.28 243.775 673.28C244.615 673.28 245.485 673.205 246.385 673.055C247.405 672.905 248.335 672.275 249.175 671.165C250.015 670.055 250.435 668.375 250.435 666.125V665.765C250.435 664.055 249.91 662.87 248.86 662.21C248.2 661.79 247.495 661.58 246.745 661.58C245.785 661.58 244.9 661.745 244.09 662.075C243.28 662.405 242.71 662.75 242.38 663.11C242.05 663.47 241.885 663.65 241.885 663.65H242.02C242.11 663.68 242.23 663.71 242.38 663.74C242.53 663.77 242.68 663.845 242.83 663.965C242.98 664.085 243.16 664.19 243.37 664.28C243.58 664.37 243.73 664.535 243.82 664.775C243.91 665.015 244.03 665.24 244.18 665.45C244.33 665.66 244.375 665.96 244.315 666.35C244.315 667.01 244.105 667.595 243.685 668.105C243.265 668.615 242.59 668.885 241.66 668.915Z" fill="white"/>
<path d="M272.224 679.085C272.224 679.085 272.224 678.89 272.224 678.5C272.224 678.11 272.434 677.81 272.854 677.6H298.999C299.449 677.84 299.674 678.14 299.674 678.5C299.674 678.86 299.449 679.16 298.999 679.4H272.854C272.434 679.19 272.224 678.89 272.224 678.5V679.085Z" fill="white"/>
<path d="M317.683 678.5C317.683 676.43 317.833 674.465 318.133 672.605C318.433 670.745 318.778 669.14 319.168 667.79C319.558 666.44 320.113 665.12 320.833 663.83C321.553 662.54 322.123 661.535 322.543 660.815C322.963 660.095 323.593 659.315 324.433 658.475C325.273 657.635 325.768 657.125 325.918 656.945C326.068 656.765 326.443 656.45 327.043 656H327.628H327.808C328.228 656 328.438 656.135 328.438 656.405C328.438 656.495 328.183 656.81 327.673 657.35C327.163 657.89 326.548 658.685 325.828 659.735C325.108 660.785 324.373 662.075 323.623 663.605C322.873 665.135 322.243 667.205 321.733 669.815C321.223 672.425 320.968 675.32 320.968 678.5C320.968 681.68 321.223 684.56 321.733 687.14C322.243 689.72 322.858 691.805 323.578 693.395C324.298 694.985 325.033 696.275 325.783 697.265C326.533 698.255 327.163 699.05 327.673 699.65C328.183 700.25 328.438 700.565 328.438 700.595C328.438 700.865 328.213 701 327.763 701H327.628H327.043L325.783 699.92C322.963 697.37 320.908 694.19 319.618 690.38C318.328 686.57 317.683 682.61 317.683 678.5Z" fill="white"/>
<path d="M332.848 675.665C332.848 670.775 334.063 666.905 336.493 664.055C338.923 661.205 341.623 659.78 344.593 659.78C346.663 659.78 348.148 660.32 349.048 661.4C349.948 662.48 350.398 663.68 350.398 665C350.398 665.75 350.188 666.35 349.768 666.8C349.348 667.25 348.763 667.475 348.013 667.475C347.323 667.475 346.753 667.265 346.303 666.845C345.853 666.425 345.628 665.84 345.628 665.09C345.628 663.77 346.333 662.975 347.743 662.705C347.083 662.045 346.153 661.67 344.953 661.58C342.823 661.58 341.068 662.48 339.688 664.28C338.278 666.26 337.573 669.29 337.573 673.37L337.618 673.55C337.768 673.37 337.888 673.175 337.978 672.965C339.208 671.165 340.813 670.265 342.793 670.265H342.973C344.353 670.265 345.568 670.55 346.618 671.12C347.338 671.54 348.058 672.14 348.778 672.92C349.498 673.7 350.083 674.555 350.533 675.485C351.163 676.955 351.478 678.56 351.478 680.3V681.11C351.478 681.8 351.403 682.445 351.253 683.045C350.923 684.815 349.963 686.54 348.373 688.22C346.783 689.9 344.773 690.74 342.343 690.74C341.503 690.74 340.693 690.62 339.913 690.38C339.133 690.14 338.293 689.69 337.393 689.03C336.493 688.37 335.728 687.485 335.098 686.375C334.468 685.265 333.928 683.81 333.478 682.01C333.028 680.21 332.818 678.095 332.848 675.665ZM342.523 671.885C341.623 671.885 340.843 672.14 340.183 672.65C339.523 673.16 339.013 673.835 338.653 674.675C338.293 675.515 338.038 676.37 337.888 677.24C337.738 678.11 337.648 679.04 337.618 680.03C337.618 682.52 337.798 684.305 338.158 685.385C338.518 686.465 339.088 687.335 339.868 687.995C340.588 688.535 341.383 688.805 342.253 688.805C343.783 688.805 344.953 688.235 345.763 687.095C346.153 686.555 346.423 685.88 346.573 685.07C346.723 684.26 346.798 682.685 346.798 680.345C346.798 677.945 346.723 676.34 346.573 675.53C346.423 674.72 346.153 674.045 345.763 673.505C344.953 672.425 343.873 671.885 342.523 671.885Z" fill="white"/>
<path d="M367.241 679.085C367.241 679.085 367.241 678.89 367.241 678.5C367.241 678.11 367.451 677.81 367.871 677.6H394.016C394.466 677.84 394.691 678.14 394.691 678.5C394.691 678.86 394.466 679.16 394.016 679.4H367.871C367.451 679.19 367.241 678.89 367.241 678.5V679.085Z" fill="white"/>
<path d="M413.375 670.445C412.565 670.445 411.92 670.175 411.44 669.635C410.96 669.095 410.72 668.435 410.72 667.655C410.72 665.525 411.515 663.68 413.105 662.12C414.695 660.56 416.675 659.78 419.045 659.78C421.775 659.78 424.055 660.62 425.885 662.3C427.715 663.98 428.645 666.155 428.675 668.825C428.675 670.115 428.375 671.345 427.775 672.515C427.175 673.685 426.455 674.705 425.615 675.575C424.775 676.445 423.575 677.555 422.015 678.905C420.935 679.835 419.435 681.215 417.515 683.045L414.86 685.565L418.28 685.61C422.99 685.61 425.495 685.535 425.795 685.385C426.005 685.325 426.365 683.99 426.875 681.38V681.245H428.675V681.38C428.645 681.47 428.45 682.835 428.09 685.475C427.73 688.115 427.505 689.495 427.415 689.615V689.75H410.72V688.895V688.355C410.72 688.145 410.81 687.92 410.99 687.68C411.17 687.44 411.62 686.915 412.34 686.105C413.21 685.145 413.96 684.305 414.59 683.585C414.86 683.285 415.37 682.73 416.12 681.92C416.87 681.11 417.38 680.555 417.65 680.255C417.92 679.955 418.355 679.46 418.955 678.77C419.555 678.08 419.975 677.57 420.215 677.24C420.455 676.91 420.8 676.46 421.25 675.89C421.7 675.32 422.015 674.84 422.195 674.45C422.375 674.06 422.6 673.625 422.87 673.145C423.14 672.665 423.335 672.185 423.455 671.705C423.575 671.225 423.68 670.775 423.77 670.355C423.86 669.935 423.905 669.44 423.905 668.87C423.905 666.98 423.395 665.345 422.375 663.965C421.355 662.585 419.9 661.895 418.01 661.895C417.02 661.895 416.15 662.15 415.4 662.66C414.65 663.17 414.125 663.665 413.825 664.145C413.525 664.625 413.375 664.91 413.375 665C413.375 665.03 413.45 665.045 413.6 665.045C414.14 665.045 414.695 665.255 415.265 665.675C415.835 666.095 416.12 666.785 416.12 667.745C416.12 668.495 415.88 669.125 415.4 669.635C414.92 670.145 414.245 670.415 413.375 670.445Z" fill="white"/>
<path d="M433.671 656.045L433.851 656C434.001 656 434.151 656 434.301 656H434.841L436.101 657.08C438.921 659.63 440.976 662.81 442.266 666.62C443.556 670.43 444.201 674.39 444.201 678.5C444.201 680.54 444.051 682.505 443.751 684.395C443.451 686.285 443.106 687.89 442.716 689.21C442.326 690.53 441.771 691.85 441.051 693.17C440.331 694.49 439.761 695.495 439.341 696.185C438.921 696.875 438.306 697.64 437.496 698.48C436.686 699.32 436.206 699.815 436.056 699.965C435.906 700.115 435.561 700.4 435.021 700.82C434.931 700.91 434.871 700.97 434.841 701H434.301C434.061 701 433.896 701 433.806 701C433.716 701 433.641 700.955 433.581 700.865C433.521 700.775 433.476 700.64 433.446 700.46C433.476 700.43 433.641 700.235 433.941 699.875C438.591 695.045 440.916 687.92 440.916 678.5C440.916 669.08 438.591 661.955 433.941 657.125C433.641 656.765 433.476 656.57 433.446 656.54C433.446 656.3 433.521 656.135 433.671 656.045Z" fill="white"/>
<path d="M463.496 674.135C463.496 673.745 463.706 673.445 464.126 673.235H492.791C493.241 673.475 493.466 673.775 493.466 674.135C493.466 674.465 493.256 674.75 492.836 674.99L478.526 675.035H464.216C463.736 674.885 463.496 674.585 463.496 674.135ZM463.496 682.865C463.496 682.415 463.736 682.115 464.216 681.965H492.836C493.256 682.265 493.466 682.565 493.466 682.865C493.466 683.255 493.241 683.555 492.791 683.765H464.126C463.706 683.555 463.496 683.255 463.496 682.865Z" fill="white"/>
<path d="M513.388 670.445C512.578 670.445 511.933 670.175 511.453 669.635C510.973 669.095 510.733 668.435 510.733 667.655C510.733 665.525 511.528 663.68 513.118 662.12C514.708 660.56 516.688 659.78 519.058 659.78C521.788 659.78 524.068 660.62 525.898 662.3C527.728 663.98 528.658 666.155 528.688 668.825C528.688 670.115 528.388 671.345 527.788 672.515C527.188 673.685 526.468 674.705 525.628 675.575C524.788 676.445 523.588 677.555 522.028 678.905C520.948 679.835 519.448 681.215 517.528 683.045L514.873 685.565L518.293 685.61C523.003 685.61 525.508 685.535 525.808 685.385C526.018 685.325 526.378 683.99 526.888 681.38V681.245H528.688V681.38C528.658 681.47 528.463 682.835 528.103 685.475C527.743 688.115 527.518 689.495 527.428 689.615V689.75H510.733V688.895V688.355C510.733 688.145 510.823 687.92 511.003 687.68C511.183 687.44 511.633 686.915 512.353 686.105C513.223 685.145 513.973 684.305 514.603 683.585C514.873 683.285 515.383 682.73 516.133 681.92C516.883 681.11 517.393 680.555 517.663 680.255C517.933 679.955 518.368 679.46 518.968 678.77C519.568 678.08 519.988 677.57 520.228 677.24C520.468 676.91 520.813 676.46 521.263 675.89C521.713 675.32 522.028 674.84 522.208 674.45C522.388 674.06 522.613 673.625 522.883 673.145C523.153 672.665 523.348 672.185 523.468 671.705C523.588 671.225 523.693 670.775 523.783 670.355C523.873 669.935 523.918 669.44 523.918 668.87C523.918 666.98 523.408 665.345 522.388 663.965C521.368 662.585 519.913 661.895 518.023 661.895C517.033 661.895 516.163 662.15 515.413 662.66C514.663 663.17 514.138 663.665 513.838 664.145C513.538 664.625 513.388 664.91 513.388 665C513.388 665.03 513.463 665.045 513.613 665.045C514.153 665.045 514.708 665.255 515.278 665.675C515.848 666.095 516.133 666.785 516.133 667.745C516.133 668.495 515.893 669.125 515.413 669.635C514.933 670.145 514.258 670.415 513.388 670.445Z" fill="white"/>
<path d="M533.458 669.14C533.488 669.08 533.743 667.445 534.223 664.235L534.943 659.42C534.943 659.36 535.243 659.33 535.843 659.33H536.743V659.51C536.743 659.81 536.968 660.065 537.418 660.275C537.868 660.485 538.648 660.62 539.758 660.68C540.868 660.74 543.403 660.77 547.363 660.77H552.808V662.525L549.748 666.71C549.478 667.07 549.028 667.67 548.398 668.51C547.768 669.35 547.363 669.905 547.183 670.175C547.003 670.445 546.688 670.925 546.238 671.615C545.788 672.305 545.488 672.845 545.338 673.235C545.188 673.625 544.978 674.18 544.708 674.9C544.438 675.62 544.243 676.31 544.123 676.97C544.003 677.63 543.883 678.44 543.763 679.4C543.643 680.36 543.553 681.38 543.493 682.46C543.433 683.54 543.388 684.77 543.358 686.15C543.358 686.57 543.358 686.99 543.358 687.41C543.358 687.83 543.343 688.19 543.313 688.49V688.895C543.193 689.405 542.908 689.84 542.458 690.2C542.008 690.56 541.498 690.74 540.928 690.74C540.598 690.74 540.283 690.695 539.983 690.605C539.683 690.515 539.368 690.23 539.038 689.75C538.708 689.27 538.543 688.67 538.543 687.95C538.543 683.21 539.998 678.29 542.908 673.19C543.508 672.23 544.768 670.415 546.688 667.745L548.758 664.91H544.573C539.353 664.91 536.608 665 536.338 665.18C536.158 665.27 535.993 665.63 535.843 666.26C535.693 666.89 535.543 667.535 535.393 668.195L535.258 669.14V669.275H533.458V669.14Z" fill="white"/>
<path d="M567.266 679.085C567.266 679.085 567.266 678.89 567.266 678.5C567.266 678.11 567.476 677.81 567.896 677.6H594.041C594.491 677.84 594.716 678.14 594.716 678.5C594.716 678.86 594.491 679.16 594.041 679.4H567.896C567.476 679.19 567.266 678.89 567.266 678.5V679.085Z" fill="white"/>
<path d="M629.286 689.75C628.746 689.66 626.811 689.615 623.481 689.615C620.001 689.615 617.991 689.66 617.451 689.75H617.046V687.68H618.441C619.041 687.68 619.446 687.68 619.656 687.68C619.866 687.68 620.121 687.65 620.421 687.59C620.721 687.53 620.931 687.455 621.051 687.365C621.171 687.275 621.276 687.155 621.366 687.005C621.396 686.945 621.411 686.135 621.411 684.575V682.325H609.756V680.255L616.551 669.86C621.141 662.9 623.466 659.405 623.526 659.375C623.586 659.315 623.901 659.285 624.471 659.285H625.281L625.551 659.555V680.255H629.691V682.325H625.551V684.62C625.551 685.85 625.551 686.57 625.551 686.78C625.551 686.99 625.641 687.17 625.821 687.32C626.061 687.53 626.916 687.65 628.386 687.68H629.691V689.75H629.286ZM621.681 680.255V665.225L611.826 680.21L616.731 680.255H621.681Z" fill="white"/>
<path d="M646.017 674.135C646.017 673.745 646.227 673.445 646.647 673.235H675.312C675.762 673.475 675.987 673.775 675.987 674.135C675.987 674.465 675.777 674.75 675.357 674.99L661.047 675.035H646.737C646.257 674.885 646.017 674.585 646.017 674.135ZM646.017 682.865C646.017 682.415 646.257 682.115 646.737 681.965H675.357C675.777 682.265 675.987 682.565 675.987 682.865C675.987 683.255 675.762 683.555 675.312 683.765H646.647C646.227 683.555 646.017 683.255 646.017 682.865Z" fill="white"/>
<path d="M695.908 670.445C695.098 670.445 694.453 670.175 693.973 669.635C693.493 669.095 693.253 668.435 693.253 667.655C693.253 665.525 694.048 663.68 695.638 662.12C697.228 660.56 699.208 659.78 701.578 659.78C704.308 659.78 706.588 660.62 708.418 662.3C710.248 663.98 711.178 666.155 711.208 668.825C711.208 670.115 710.908 671.345 710.308 672.515C709.708 673.685 708.988 674.705 708.148 675.575C707.308 676.445 706.108 677.555 704.548 678.905C703.468 679.835 701.968 681.215 700.048 683.045L697.393 685.565L700.813 685.61C705.523 685.61 708.028 685.535 708.328 685.385C708.538 685.325 708.898 683.99 709.408 681.38V681.245H711.208V681.38C711.178 681.47 710.983 682.835 710.623 685.475C710.263 688.115 710.038 689.495 709.948 689.615V689.75H693.253V688.895V688.355C693.253 688.145 693.343 687.92 693.523 687.68C693.703 687.44 694.153 686.915 694.873 686.105C695.743 685.145 696.493 684.305 697.123 683.585C697.393 683.285 697.903 682.73 698.653 681.92C699.403 681.11 699.913 680.555 700.183 680.255C700.453 679.955 700.888 679.46 701.488 678.77C702.088 678.08 702.508 677.57 702.748 677.24C702.988 676.91 703.333 676.46 703.783 675.89C704.233 675.32 704.548 674.84 704.728 674.45C704.908 674.06 705.133 673.625 705.403 673.145C705.673 672.665 705.868 672.185 705.988 671.705C706.108 671.225 706.213 670.775 706.303 670.355C706.393 669.935 706.438 669.44 706.438 668.87C706.438 666.98 705.928 665.345 704.908 663.965C703.888 662.585 702.433 661.895 700.543 661.895C699.553 661.895 698.683 662.15 697.933 662.66C697.183 663.17 696.658 663.665 696.358 664.145C696.058 664.625 695.908 664.91 695.908 665C695.908 665.03 695.983 665.045 696.133 665.045C696.673 665.045 697.228 665.255 697.798 665.675C698.368 666.095 698.653 666.785 698.653 667.745C698.653 668.495 698.413 669.125 697.933 669.635C697.453 670.145 696.778 670.415 695.908 670.445Z" fill="white"/>
<path d="M719.219 668.915C718.409 668.915 717.779 668.66 717.329 668.15C716.879 667.64 716.639 666.98 716.609 666.17C716.609 664.52 717.329 663.05 718.769 661.76C720.209 660.47 721.949 659.825 723.989 659.825C725.039 659.825 725.699 659.84 725.969 659.87C728.189 660.23 729.884 661.025 731.054 662.255C732.224 663.485 732.824 664.82 732.854 666.26C732.854 667.82 732.344 669.335 731.324 670.805C730.304 672.275 728.894 673.34 727.094 674L726.959 674.09C726.959 674.12 727.094 674.165 727.364 674.225C727.634 674.285 728.069 674.42 728.669 674.63C729.269 674.84 729.839 675.155 730.379 675.575C732.839 677.165 734.069 679.265 734.069 681.875C734.069 684.245 733.139 686.315 731.279 688.085C729.419 689.855 727.064 690.74 724.214 690.74C721.814 690.74 719.744 690.095 718.004 688.805C716.264 687.515 715.394 685.88 715.394 683.9C715.394 683.06 715.664 682.385 716.204 681.875C716.744 681.365 717.419 681.095 718.229 681.065C719.069 681.065 719.759 681.335 720.299 681.875C720.839 682.415 721.109 683.09 721.109 683.9C721.109 684.23 721.064 684.53 720.974 684.8C720.884 685.07 720.779 685.31 720.659 685.52C720.539 685.73 720.374 685.91 720.164 686.06C719.954 686.21 719.774 686.33 719.624 686.42C719.474 686.51 719.324 686.57 719.174 686.6C719.024 686.63 718.904 686.675 718.814 686.735L718.634 686.78C720.164 688.13 722.024 688.805 724.214 688.805C725.864 688.805 727.109 688.01 727.949 686.42C728.459 685.43 728.714 683.915 728.714 681.875V680.975C728.714 678.125 727.754 676.22 725.834 675.26C725.384 675.08 724.469 674.975 723.089 674.945L721.199 674.9L721.064 674.81C721.004 674.72 720.974 674.48 720.974 674.09C720.974 673.55 721.094 673.28 721.334 673.28C722.174 673.28 723.044 673.205 723.944 673.055C724.964 672.905 725.894 672.275 726.734 671.165C727.574 670.055 727.994 668.375 727.994 666.125V665.765C727.994 664.055 727.469 662.87 726.419 662.21C725.759 661.79 725.054 661.58 724.304 661.58C723.344 661.58 722.459 661.745 721.649 662.075C720.839 662.405 720.269 662.75 719.939 663.11C719.609 663.47 719.444 663.65 719.444 663.65H719.579C719.669 663.68 719.789 663.71 719.939 663.74C720.089 663.77 720.239 663.845 720.389 663.965C720.539 664.085 720.719 664.19 720.929 664.28C721.139 664.37 721.289 664.535 721.379 664.775C721.469 665.015 721.589 665.24 721.739 665.45C721.889 665.66 721.934 665.96 721.874 666.35C721.874 667.01 721.664 667.595 721.244 668.105C720.824 668.615 720.149 668.885 719.219 668.915Z" fill="white"/>
</svg>
