<svg  viewBox="0 0 793 583" fill="none" xmlns="http://www.w3.org/2000/svg">
<g id="0122211">
<g id="caja-bolitas">
<g id="caja">
<path id="Rectangle 17 (Stroke)" fill-rule="evenodd" clip-rule="evenodd" d="M599.5 81.5V275L793 200V0H193L4 81.5H599.5ZM28.2223 76.5H604.5V267.7L788 196.576V5H194.032L28.2223 76.5Z" fill="#2CF30B"/>
<path id="Rectangle 16 (Stroke)" fill-rule="evenodd" clip-rule="evenodd" d="M595 84H5V274H595V84ZM0 79V279H600V79H0Z" fill="#2CF30B"/>
<path id="Line 2 (Stroke)" fill-rule="evenodd" clip-rule="evenodd" d="M783 6.00003L590 85L588.106 80.3727L781.106 1.37268L783 6.00003Z" fill="#2CF30B"/>
<path id="Line 3 (Stroke)" fill-rule="evenodd" clip-rule="evenodd" d="M492 44L306 45.0109L305.957 37.011L491.956 36.0001L492 44Z" fill="#2CF30B"/>
</g>
<g id="Group 56">
<g id="Group 19">
<g id="20">
<path d="M110.312 240H90.2354V236.575L100.182 225.727C101.617 224.127 102.636 222.794 103.237 221.728C103.853 220.647 104.16 219.567 104.16 218.487C104.16 217.065 103.757 215.917 102.95 215.042C102.157 214.167 101.084 213.729 99.7305 213.729C98.1172 213.729 96.8662 214.222 95.9775 215.206C95.0889 216.19 94.6445 217.537 94.6445 219.246H89.6611C89.6611 217.428 90.0713 215.794 90.8916 214.345C91.7256 212.882 92.9082 211.747 94.4395 210.94C95.9844 210.134 97.7617 209.73 99.7715 209.73C102.67 209.73 104.953 210.462 106.621 211.925C108.303 213.374 109.144 215.384 109.144 217.954C109.144 219.444 108.72 221.01 107.872 222.65C107.038 224.277 105.664 226.13 103.75 228.208L96.4492 236.021H110.312V240Z" fill="white"/>
<path d="M133.568 227.429C133.568 231.722 132.762 234.962 131.148 237.149C129.549 239.323 127.108 240.41 123.827 240.41C120.601 240.41 118.167 239.351 116.526 237.231C114.899 235.099 114.065 231.947 114.024 227.777V222.609C114.024 218.316 114.824 215.097 116.424 212.95C118.037 210.804 120.491 209.73 123.786 209.73C127.054 209.73 129.487 210.776 131.087 212.868C132.7 214.96 133.527 218.091 133.568 222.261V227.429ZM128.585 221.851C128.585 219.048 128.202 216.997 127.437 215.698C126.671 214.386 125.454 213.729 123.786 213.729C122.159 213.729 120.963 214.352 120.197 215.596C119.432 216.826 119.028 218.754 118.987 221.379V228.146C118.987 230.936 119.377 233.014 120.156 234.381C120.936 235.748 122.159 236.432 123.827 236.432C125.427 236.432 126.609 235.803 127.375 234.545C128.141 233.273 128.544 231.291 128.585 228.598V221.851Z" fill="white"/>
</g>
<g id="15">
<path d="M270.729 240H265.767V216.026L258.445 218.528V214.324L270.094 210.038H270.729V240Z" fill="white"/>
<path d="M282.439 225.193L284.06 210.141H300.097V214.447H288.202L287.382 221.584C288.763 220.791 290.321 220.395 292.058 220.395C294.901 220.395 297.109 221.304 298.682 223.122C300.268 224.94 301.061 227.388 301.061 230.464C301.061 233.499 300.186 235.919 298.436 237.724C296.686 239.515 294.286 240.41 291.237 240.41C288.503 240.41 286.233 239.638 284.429 238.093C282.638 236.534 281.667 234.483 281.517 231.94H286.336C286.527 233.39 287.047 234.504 287.895 235.283C288.742 236.049 289.85 236.432 291.217 236.432C292.748 236.432 293.938 235.885 294.785 234.791C295.646 233.697 296.077 232.207 296.077 230.32C296.077 228.502 295.605 227.066 294.662 226.014C293.719 224.947 292.42 224.414 290.766 224.414C289.863 224.414 289.098 224.537 288.469 224.783C287.84 225.016 287.156 225.48 286.418 226.178L282.439 225.193Z" fill="white"/>
</g>
<g id="10">
<path d="M438.729 240H433.767V216.026L426.445 218.528V214.324L438.094 210.038H438.729V240Z" fill="white"/>
<path d="M468.568 227.429C468.568 231.722 467.762 234.962 466.148 237.149C464.549 239.323 462.108 240.41 458.827 240.41C455.601 240.41 453.167 239.351 451.526 237.231C449.899 235.099 449.065 231.947 449.024 227.777V222.609C449.024 218.316 449.824 215.097 451.424 212.95C453.037 210.804 455.491 209.73 458.786 209.73C462.054 209.73 464.487 210.776 466.087 212.868C467.7 214.96 468.527 218.091 468.568 222.261V227.429ZM463.585 221.851C463.585 219.048 463.202 216.997 462.437 215.698C461.671 214.386 460.454 213.729 458.786 213.729C457.159 213.729 455.963 214.352 455.197 215.596C454.432 216.826 454.028 218.754 453.987 221.379V228.146C453.987 230.936 454.377 233.014 455.156 234.381C455.936 235.748 457.159 236.432 458.827 236.432C460.427 236.432 461.609 235.803 462.375 234.545C463.141 233.273 463.544 231.291 463.585 228.598V221.851Z" fill="white"/>
</g>
</g>
<g id="Group 55">
<g id="esfera">
<path id="Ellipse 34" d="M147 160.5C147 179.002 132.002 194 113.5 194C94.9985 194 80 179.002 80 160.5C80 141.998 94.9985 127 113.5 127C132.002 127 147 141.998 147 160.5Z" fill="#1043F5"/>
<path id="Ellipse 35" d="M80 160.5C80 179.002 94.9985 194 113.5 194V127C94.9985 127 80 141.998 80 160.5Z" fill="#FD0C0C"/>
</g>
<g id="esfera_2">
<path id="Ellipse 34_2" d="M312 159.5C312 178.002 297.002 193 278.5 193C259.998 193 245 178.002 245 159.5C245 140.998 259.998 126 278.5 126C297.002 126 312 140.998 312 159.5Z" fill="#2CF30B"/>
<path id="Ellipse 35_2" d="M245 159.5C245 178.002 259.998 193 278.5 193V126C259.998 126 245 140.998 245 159.5Z" fill="#1043F5"/>
</g>
<g id="esfera_3">
<path id="Ellipse 34_3" d="M480 158.5C480 177.002 465.002 192 446.5 192C427.998 192 413 177.002 413 158.5C413 139.998 427.998 125 446.5 125C465.002 125 480 139.998 480 158.5Z" fill="#FD0C0C"/>
<path id="Ellipse 35_3" d="M413 158.5C413 177.002 427.998 192 446.5 192V125C427.998 125 413 139.998 413 158.5Z" fill="#2CF30B"/>
</g>
</g>
</g>
</g>
<g id="text">
<path d="M16.3652 340.511C14.6973 342.274 12.749 343.156 10.5205 343.156C7.89551 343.156 5.80371 342.24 4.24512 340.408C2.68652 338.562 1.90723 336.143 1.90723 333.148C1.90723 331.18 2.30371 329.396 3.09668 327.796C3.88965 326.196 5.01758 324.952 6.48047 324.063C7.94336 323.175 9.63867 322.73 11.5664 322.73C14.5742 322.73 16.96 323.852 18.7236 326.094C20.4873 328.336 21.3691 331.337 21.3691 335.097V336.491C21.3691 341.878 20.1523 345.986 17.7188 348.816C15.2852 351.646 11.6553 353.082 6.8291 353.123H6.23438V349.001H6.95215C9.8916 348.96 12.1475 348.256 13.7197 346.889C15.292 345.508 16.1738 343.382 16.3652 340.511ZM11.5664 339.26C12.5645 339.26 13.501 338.973 14.376 338.398C15.251 337.824 15.9277 337.031 16.4062 336.02V334.071C16.4062 331.87 15.9551 330.1 15.0527 328.76C14.1504 327.42 12.9814 326.75 11.5459 326.75C10.1104 326.75 8.96191 327.345 8.10059 328.534C7.25293 329.71 6.8291 331.2 6.8291 333.005C6.8291 334.878 7.25977 336.389 8.12109 337.537C8.98242 338.686 10.1309 339.26 11.5664 339.26Z" fill="white"/>
<path d="M45.999 349.432C47.2432 349.432 48.2754 349.069 49.0957 348.345C49.916 347.62 50.3535 346.725 50.4082 345.658H55.1045C55.0498 347.039 54.6191 348.331 53.8125 349.534C53.0059 350.724 51.9121 351.667 50.5312 352.364C49.1504 353.062 47.6602 353.41 46.0605 353.41C42.957 353.41 40.4961 352.405 38.6777 350.396C36.8594 348.386 35.9502 345.61 35.9502 342.069V341.557C35.9502 338.18 36.8525 335.479 38.6572 333.456C40.4619 331.419 42.9229 330.4 46.04 330.4C48.6787 330.4 50.8252 331.173 52.4795 332.718C54.1475 334.249 55.0225 336.266 55.1045 338.768H50.4082C50.3535 337.496 49.916 336.45 49.0957 335.63C48.2891 334.81 47.2568 334.399 45.999 334.399C44.3857 334.399 43.1416 334.987 42.2666 336.163C41.3916 337.325 40.9473 339.096 40.9336 341.475V342.274C40.9336 344.681 41.3643 346.479 42.2256 347.668C43.1006 348.844 44.3584 349.432 45.999 349.432Z" fill="white"/>
<path d="M57.9346 341.7C57.9346 339.526 58.3652 337.571 59.2266 335.835C60.0879 334.085 61.2979 332.745 62.8564 331.815C64.415 330.872 66.2061 330.4 68.2295 330.4C71.2236 330.4 73.6504 331.364 75.5098 333.292C77.3828 335.22 78.3945 337.776 78.5449 340.962L78.5654 342.131C78.5654 344.318 78.1416 346.273 77.2939 347.996C76.46 349.719 75.2568 351.052 73.6846 351.995C72.126 352.938 70.3213 353.41 68.2705 353.41C65.1396 353.41 62.6309 352.371 60.7441 350.293C58.8711 348.201 57.9346 345.419 57.9346 341.946V341.7ZM62.918 342.131C62.918 344.414 63.3896 346.205 64.333 347.504C65.2764 348.789 66.5889 349.432 68.2705 349.432C69.9521 349.432 71.2578 348.775 72.1875 347.463C73.1309 346.15 73.6025 344.229 73.6025 341.7C73.6025 339.458 73.1172 337.681 72.1465 336.368C71.1895 335.056 69.8838 334.399 68.2295 334.399C66.6025 334.399 65.3105 335.049 64.3535 336.348C63.3965 337.633 62.918 339.561 62.918 342.131Z" fill="white"/>
<path d="M87.4658 330.811L87.6094 333.128C89.168 331.31 91.3008 330.4 94.0078 330.4C96.9746 330.4 99.0049 331.535 100.099 333.805C101.712 331.535 103.981 330.4 106.907 330.4C109.354 330.4 111.173 331.077 112.362 332.431C113.565 333.784 114.181 335.78 114.208 338.419V353H109.225V338.562C109.225 337.154 108.917 336.122 108.302 335.466C107.687 334.81 106.668 334.481 105.246 334.481C104.111 334.481 103.182 334.789 102.457 335.404C101.746 336.006 101.247 336.799 100.96 337.783L100.98 353H95.9971V338.398C95.9287 335.787 94.5957 334.481 91.998 334.481C90.002 334.481 88.5869 335.295 87.7529 336.922V353H82.7695V330.811H87.4658Z" fill="white"/>
<path d="M138.756 342.131C138.756 345.562 137.977 348.304 136.418 350.354C134.859 352.392 132.768 353.41 130.143 353.41C127.709 353.41 125.761 352.61 124.298 351.011V361.531H119.314V330.811H123.908L124.113 333.066C125.576 331.289 127.565 330.4 130.081 330.4C132.788 330.4 134.907 331.412 136.438 333.436C137.983 335.445 138.756 338.241 138.756 341.823V342.131ZM133.793 341.7C133.793 339.485 133.349 337.729 132.46 336.43C131.585 335.131 130.327 334.481 128.687 334.481C126.649 334.481 125.187 335.322 124.298 337.004V346.848C125.2 348.57 126.677 349.432 128.728 349.432C130.313 349.432 131.551 348.796 132.439 347.524C133.342 346.239 133.793 344.298 133.793 341.7Z" fill="white"/>
<path d="M156.249 353C156.03 352.576 155.839 351.886 155.675 350.929C154.089 352.583 152.147 353.41 149.851 353.41C147.622 353.41 145.804 352.774 144.396 351.503C142.987 350.231 142.283 348.659 142.283 346.786C142.283 344.421 143.158 342.609 144.908 341.352C146.672 340.08 149.188 339.444 152.455 339.444H155.511V337.988C155.511 336.84 155.189 335.924 154.547 335.24C153.904 334.543 152.927 334.194 151.614 334.194C150.479 334.194 149.55 334.481 148.825 335.056C148.101 335.616 147.738 336.334 147.738 337.209H142.755C142.755 335.992 143.158 334.857 143.965 333.805C144.771 332.738 145.865 331.904 147.246 331.303C148.641 330.701 150.192 330.4 151.901 330.4C154.499 330.4 156.57 331.057 158.115 332.369C159.66 333.668 160.453 335.5 160.494 337.865V347.873C160.494 349.869 160.774 351.462 161.335 352.651V353H156.249ZM150.773 349.411C151.758 349.411 152.681 349.172 153.542 348.693C154.417 348.215 155.073 347.572 155.511 346.766V342.582H152.824C150.979 342.582 149.591 342.903 148.661 343.546C147.731 344.188 147.267 345.098 147.267 346.273C147.267 347.23 147.581 347.996 148.21 348.57C148.853 349.131 149.707 349.411 150.773 349.411Z" fill="white"/>
<path d="M177.331 335.363C176.675 335.254 175.998 335.199 175.301 335.199C173.018 335.199 171.479 336.074 170.687 337.824V353H165.703V330.811H170.461L170.584 333.292C171.787 331.364 173.455 330.4 175.588 330.4C176.299 330.4 176.887 330.496 177.352 330.688L177.331 335.363Z" fill="white"/>
<path d="M187.749 325.417V330.811H191.666V334.502H187.749V346.889C187.749 347.736 187.913 348.352 188.241 348.734C188.583 349.104 189.185 349.288 190.046 349.288C190.62 349.288 191.201 349.22 191.789 349.083V352.938C190.654 353.253 189.561 353.41 188.508 353.41C184.68 353.41 182.766 351.298 182.766 347.073V334.502H179.115V330.811H182.766V325.417H187.749Z" fill="white"/>
<path d="M205.263 353.41C202.104 353.41 199.541 352.419 197.572 350.437C195.617 348.44 194.64 345.788 194.64 342.479V341.864C194.64 339.649 195.063 337.674 195.911 335.938C196.772 334.188 197.976 332.827 199.521 331.856C201.065 330.886 202.788 330.4 204.688 330.4C207.71 330.4 210.041 331.364 211.682 333.292C213.336 335.22 214.163 337.947 214.163 341.475V343.484H199.664C199.814 345.316 200.423 346.766 201.489 347.832C202.569 348.898 203.923 349.432 205.55 349.432C207.833 349.432 209.692 348.509 211.128 346.663L213.814 349.227C212.926 350.553 211.736 351.585 210.246 352.323C208.77 353.048 207.108 353.41 205.263 353.41ZM204.668 334.399C203.301 334.399 202.193 334.878 201.346 335.835C200.512 336.792 199.979 338.125 199.746 339.834H209.241V339.465C209.132 337.797 208.688 336.539 207.908 335.691C207.129 334.83 206.049 334.399 204.668 334.399Z" fill="white"/>
<path d="M222.674 330.811L222.817 333.374C224.458 331.392 226.611 330.4 229.277 330.4C233.898 330.4 236.25 333.046 236.332 338.337V353H231.349V338.624C231.349 337.216 231.041 336.177 230.426 335.507C229.824 334.823 228.833 334.481 227.452 334.481C225.442 334.481 223.945 335.391 222.961 337.209V353H217.978V330.811H222.674Z" fill="white"/>
<path d="M265.33 350.826C263.867 352.549 261.789 353.41 259.096 353.41C256.689 353.41 254.864 352.706 253.62 351.298C252.39 349.89 251.774 347.853 251.774 345.187V330.811H256.758V345.125C256.758 347.941 257.927 349.35 260.265 349.35C262.685 349.35 264.318 348.481 265.166 346.745V330.811H270.149V353H265.453L265.33 350.826Z" fill="white"/>
<path d="M279.85 330.811L279.993 333.374C281.634 331.392 283.787 330.4 286.453 330.4C291.074 330.4 293.426 333.046 293.508 338.337V353H288.524V338.624C288.524 337.216 288.217 336.177 287.602 335.507C287 334.823 286.009 334.481 284.628 334.481C282.618 334.481 281.121 335.391 280.137 337.209V353H275.153V330.811H279.85Z" fill="white"/>
<path d="M313.749 330.811L313.893 333.128C315.451 331.31 317.584 330.4 320.291 330.4C323.258 330.4 325.288 331.535 326.382 333.805C327.995 331.535 330.265 330.4 333.19 330.4C335.638 330.4 337.456 331.077 338.646 332.431C339.849 333.784 340.464 335.78 340.491 338.419V353H335.508V338.562C335.508 337.154 335.2 336.122 334.585 335.466C333.97 334.81 332.951 334.481 331.529 334.481C330.395 334.481 329.465 334.789 328.74 335.404C328.029 336.006 327.53 336.799 327.243 337.783L327.264 353H322.28V338.398C322.212 335.787 320.879 334.481 318.281 334.481C316.285 334.481 314.87 335.295 314.036 336.922V353H309.053V330.811H313.749Z" fill="white"/>
<path d="M350.909 353H345.926V330.811H350.909V353ZM345.618 325.048C345.618 324.282 345.857 323.646 346.336 323.141C346.828 322.635 347.525 322.382 348.428 322.382C349.33 322.382 350.027 322.635 350.52 323.141C351.012 323.646 351.258 324.282 351.258 325.048C351.258 325.8 351.012 326.429 350.52 326.935C350.027 327.427 349.33 327.673 348.428 327.673C347.525 327.673 346.828 327.427 346.336 326.935C345.857 326.429 345.618 325.8 345.618 325.048Z" fill="white"/>
<path d="M368.792 346.971C368.792 346.082 368.423 345.405 367.685 344.94C366.96 344.476 365.75 344.065 364.055 343.71C362.359 343.354 360.944 342.903 359.81 342.356C357.321 341.153 356.077 339.41 356.077 337.127C356.077 335.213 356.884 333.613 358.497 332.328C360.11 331.043 362.161 330.4 364.649 330.4C367.302 330.4 369.441 331.057 371.068 332.369C372.709 333.682 373.529 335.384 373.529 337.476H368.546C368.546 336.519 368.19 335.726 367.479 335.097C366.769 334.454 365.825 334.133 364.649 334.133C363.556 334.133 362.66 334.386 361.963 334.892C361.279 335.397 360.938 336.074 360.938 336.922C360.938 337.688 361.259 338.282 361.901 338.706C362.544 339.13 363.843 339.561 365.798 339.998C367.753 340.422 369.284 340.935 370.392 341.536C371.513 342.124 372.34 342.835 372.873 343.669C373.42 344.503 373.693 345.515 373.693 346.704C373.693 348.7 372.866 350.32 371.212 351.564C369.558 352.795 367.391 353.41 364.711 353.41C362.893 353.41 361.272 353.082 359.851 352.426C358.429 351.77 357.321 350.867 356.528 349.719C355.735 348.57 355.339 347.333 355.339 346.007H360.179C360.247 347.183 360.691 348.092 361.512 348.734C362.332 349.363 363.419 349.678 364.772 349.678C366.085 349.678 367.083 349.432 367.767 348.939C368.45 348.434 368.792 347.777 368.792 346.971Z" fill="white"/>
<path d="M382.737 330.811L382.881 333.128C384.439 331.31 386.572 330.4 389.279 330.4C392.246 330.4 394.276 331.535 395.37 333.805C396.983 331.535 399.253 330.4 402.179 330.4C404.626 330.4 406.444 331.077 407.634 332.431C408.837 333.784 409.452 335.78 409.479 338.419V353H404.496V338.562C404.496 337.154 404.188 336.122 403.573 335.466C402.958 334.81 401.939 334.481 400.518 334.481C399.383 334.481 398.453 334.789 397.729 335.404C397.018 336.006 396.519 336.799 396.231 337.783L396.252 353H391.269V338.398C391.2 335.787 389.867 334.481 387.27 334.481C385.273 334.481 383.858 335.295 383.024 336.922V353H378.041V330.811H382.737Z" fill="white"/>
<path d="M413.663 341.7C413.663 339.526 414.094 337.571 414.955 335.835C415.816 334.085 417.026 332.745 418.585 331.815C420.144 330.872 421.935 330.4 423.958 330.4C426.952 330.4 429.379 331.364 431.238 333.292C433.111 335.22 434.123 337.776 434.273 340.962L434.294 342.131C434.294 344.318 433.87 346.273 433.022 347.996C432.188 349.719 430.985 351.052 429.413 351.995C427.854 352.938 426.05 353.41 423.999 353.41C420.868 353.41 418.359 352.371 416.473 350.293C414.6 348.201 413.663 345.419 413.663 341.946V341.7ZM418.646 342.131C418.646 344.414 419.118 346.205 420.062 347.504C421.005 348.789 422.317 349.432 423.999 349.432C425.681 349.432 426.986 348.775 427.916 347.463C428.859 346.15 429.331 344.229 429.331 341.7C429.331 339.458 428.846 337.681 427.875 336.368C426.918 335.056 425.612 334.399 423.958 334.399C422.331 334.399 421.039 335.049 420.082 336.348C419.125 337.633 418.646 339.561 418.646 342.131Z" fill="white"/>
<path d="M458.083 349.432C459.327 349.432 460.359 349.069 461.18 348.345C462 347.62 462.438 346.725 462.492 345.658H467.188C467.134 347.039 466.703 348.331 465.896 349.534C465.09 350.724 463.996 351.667 462.615 352.364C461.234 353.062 459.744 353.41 458.145 353.41C455.041 353.41 452.58 352.405 450.762 350.396C448.943 348.386 448.034 345.61 448.034 342.069V341.557C448.034 338.18 448.937 335.479 450.741 333.456C452.546 331.419 455.007 330.4 458.124 330.4C460.763 330.4 462.909 331.173 464.563 332.718C466.231 334.249 467.106 336.266 467.188 338.768H462.492C462.438 337.496 462 336.45 461.18 335.63C460.373 334.81 459.341 334.399 458.083 334.399C456.47 334.399 455.226 334.987 454.351 336.163C453.476 337.325 453.031 339.096 453.018 341.475V342.274C453.018 344.681 453.448 346.479 454.31 347.668C455.185 348.844 456.442 349.432 458.083 349.432Z" fill="white"/>
<path d="M470.019 341.7C470.019 339.526 470.449 337.571 471.311 335.835C472.172 334.085 473.382 332.745 474.94 331.815C476.499 330.872 478.29 330.4 480.313 330.4C483.308 330.4 485.734 331.364 487.594 333.292C489.467 335.22 490.479 337.776 490.629 340.962L490.649 342.131C490.649 344.318 490.226 346.273 489.378 347.996C488.544 349.719 487.341 351.052 485.769 351.995C484.21 352.938 482.405 353.41 480.354 353.41C477.224 353.41 474.715 352.371 472.828 350.293C470.955 348.201 470.019 345.419 470.019 341.946V341.7ZM475.002 342.131C475.002 344.414 475.474 346.205 476.417 347.504C477.36 348.789 478.673 349.432 480.354 349.432C482.036 349.432 483.342 348.775 484.271 347.463C485.215 346.15 485.687 344.229 485.687 341.7C485.687 339.458 485.201 337.681 484.23 336.368C483.273 335.056 481.968 334.399 480.313 334.399C478.687 334.399 477.395 335.049 476.438 336.348C475.48 337.633 475.002 339.561 475.002 342.131Z" fill="white"/>
<path d="M500.165 353H495.182V321.5H500.165V353Z" fill="white"/>
<path d="M504.677 341.7C504.677 339.526 505.107 337.571 505.969 335.835C506.83 334.085 508.04 332.745 509.599 331.815C511.157 330.872 512.948 330.4 514.972 330.4C517.966 330.4 520.393 331.364 522.252 333.292C524.125 335.22 525.137 337.776 525.287 340.962L525.308 342.131C525.308 344.318 524.884 346.273 524.036 347.996C523.202 349.719 521.999 351.052 520.427 351.995C518.868 352.938 517.063 353.41 515.013 353.41C511.882 353.41 509.373 352.371 507.486 350.293C505.613 348.201 504.677 345.419 504.677 341.946V341.7ZM509.66 342.131C509.66 344.414 510.132 346.205 511.075 347.504C512.019 348.789 513.331 349.432 515.013 349.432C516.694 349.432 518 348.775 518.93 347.463C519.873 346.15 520.345 344.229 520.345 341.7C520.345 339.458 519.859 337.681 518.889 336.368C517.932 335.056 516.626 334.399 514.972 334.399C513.345 334.399 512.053 335.049 511.096 336.348C510.139 337.633 509.66 339.561 509.66 342.131Z" fill="white"/>
<path d="M541.14 335.363C540.483 335.254 539.807 335.199 539.109 335.199C536.826 335.199 535.288 336.074 534.495 337.824V353H529.512V330.811H534.27L534.393 333.292C535.596 331.364 537.264 330.4 539.396 330.4C540.107 330.4 540.695 330.496 541.16 330.688L541.14 335.363Z" fill="white"/>
</g>
<g id="ecu-1">
<g id="tex">
<path d="M17.4873 427.67H5.22363V436.857H19.5586V441H0.0351562V411.141H19.415V415.324H5.22363V423.568H17.4873V427.67Z" fill="white"/>
<path d="M27.9258 418.811L28.0693 421.374C29.71 419.392 31.8633 418.4 34.5293 418.4C39.1504 418.4 41.502 421.046 41.584 426.337V441H36.6006V426.624C36.6006 425.216 36.293 424.177 35.6777 423.507C35.0762 422.823 34.085 422.481 32.7041 422.481C30.6943 422.481 29.1973 423.391 28.2129 425.209V441H23.2295V418.811H27.9258Z" fill="white"/>
<path d="M52.9248 413.417V418.811H56.8418V422.502H52.9248V434.889C52.9248 435.736 53.0889 436.352 53.417 436.734C53.7588 437.104 54.3604 437.288 55.2217 437.288C55.7959 437.288 56.377 437.22 56.9648 437.083V440.938C55.8301 441.253 54.7363 441.41 53.6836 441.41C49.8555 441.41 47.9414 439.298 47.9414 435.073V422.502H44.291V418.811H47.9414V413.417H52.9248Z" fill="white"/>
<path d="M59.1182 429.7C59.1182 427.526 59.5488 425.571 60.4102 423.835C61.2715 422.085 62.4814 420.745 64.04 419.815C65.5986 418.872 67.3896 418.4 69.4131 418.4C72.4072 418.4 74.834 419.364 76.6934 421.292C78.5664 423.22 79.5781 425.776 79.7285 428.962L79.749 430.131C79.749 432.318 79.3252 434.273 78.4775 435.996C77.6436 437.719 76.4404 439.052 74.8682 439.995C73.3096 440.938 71.5049 441.41 69.4541 441.41C66.3232 441.41 63.8145 440.371 61.9277 438.293C60.0547 436.201 59.1182 433.419 59.1182 429.946V429.7ZM64.1016 430.131C64.1016 432.414 64.5732 434.205 65.5166 435.504C66.46 436.789 67.7725 437.432 69.4541 437.432C71.1357 437.432 72.4414 436.775 73.3711 435.463C74.3145 434.15 74.7861 432.229 74.7861 429.7C74.7861 427.458 74.3008 425.681 73.3301 424.368C72.373 423.056 71.0674 422.399 69.4131 422.399C67.7861 422.399 66.4941 423.049 65.5371 424.348C64.5801 425.633 64.1016 427.561 64.1016 430.131Z" fill="white"/>
<path d="M88.5879 418.811L88.7314 421.374C90.3721 419.392 92.5254 418.4 95.1914 418.4C99.8125 418.4 102.164 421.046 102.246 426.337V441H97.2627V426.624C97.2627 425.216 96.9551 424.177 96.3398 423.507C95.7383 422.823 94.7471 422.481 93.3662 422.481C91.3564 422.481 89.8594 423.391 88.875 425.209V441H83.8916V418.811H88.5879Z" fill="white"/>
<path d="M116.458 437.432C117.702 437.432 118.734 437.069 119.555 436.345C120.375 435.62 120.812 434.725 120.867 433.658H125.563C125.509 435.039 125.078 436.331 124.271 437.534C123.465 438.724 122.371 439.667 120.99 440.364C119.609 441.062 118.119 441.41 116.52 441.41C113.416 441.41 110.955 440.405 109.137 438.396C107.318 436.386 106.409 433.61 106.409 430.069V429.557C106.409 426.18 107.312 423.479 109.116 421.456C110.921 419.419 113.382 418.4 116.499 418.4C119.138 418.4 121.284 419.173 122.938 420.718C124.606 422.249 125.481 424.266 125.563 426.768H120.867C120.812 425.496 120.375 424.45 119.555 423.63C118.748 422.81 117.716 422.399 116.458 422.399C114.845 422.399 113.601 422.987 112.726 424.163C111.851 425.325 111.406 427.096 111.393 429.475V430.274C111.393 432.681 111.823 434.479 112.685 435.668C113.56 436.844 114.817 437.432 116.458 437.432Z" fill="white"/>
<path d="M139.099 441.41C135.94 441.41 133.377 440.419 131.408 438.437C129.453 436.44 128.476 433.788 128.476 430.479V429.864C128.476 427.649 128.899 425.674 129.747 423.938C130.608 422.188 131.812 420.827 133.356 419.856C134.901 418.886 136.624 418.4 138.524 418.4C141.546 418.4 143.877 419.364 145.518 421.292C147.172 423.22 147.999 425.947 147.999 429.475V431.484H133.5C133.65 433.316 134.259 434.766 135.325 435.832C136.405 436.898 137.759 437.432 139.386 437.432C141.669 437.432 143.528 436.509 144.964 434.663L147.65 437.227C146.762 438.553 145.572 439.585 144.082 440.323C142.605 441.048 140.944 441.41 139.099 441.41ZM138.504 422.399C137.137 422.399 136.029 422.878 135.182 423.835C134.348 424.792 133.814 426.125 133.582 427.834H143.077V427.465C142.968 425.797 142.523 424.539 141.744 423.691C140.965 422.83 139.885 422.399 138.504 422.399Z" fill="white"/>
<path d="M164.323 434.971C164.323 434.082 163.954 433.405 163.216 432.94C162.491 432.476 161.281 432.065 159.586 431.71C157.891 431.354 156.476 430.903 155.341 430.356C152.853 429.153 151.608 427.41 151.608 425.127C151.608 423.213 152.415 421.613 154.028 420.328C155.642 419.043 157.692 418.4 160.181 418.4C162.833 418.4 164.973 419.057 166.6 420.369C168.24 421.682 169.061 423.384 169.061 425.476H164.077C164.077 424.519 163.722 423.726 163.011 423.097C162.3 422.454 161.356 422.133 160.181 422.133C159.087 422.133 158.191 422.386 157.494 422.892C156.811 423.397 156.469 424.074 156.469 424.922C156.469 425.688 156.79 426.282 157.433 426.706C158.075 427.13 159.374 427.561 161.329 427.998C163.284 428.422 164.815 428.935 165.923 429.536C167.044 430.124 167.871 430.835 168.404 431.669C168.951 432.503 169.225 433.515 169.225 434.704C169.225 436.7 168.397 438.32 166.743 439.564C165.089 440.795 162.922 441.41 160.242 441.41C158.424 441.41 156.804 441.082 155.382 440.426C153.96 439.77 152.853 438.867 152.06 437.719C151.267 436.57 150.87 435.333 150.87 434.007H155.71C155.778 435.183 156.223 436.092 157.043 436.734C157.863 437.363 158.95 437.678 160.304 437.678C161.616 437.678 162.614 437.432 163.298 436.939C163.981 436.434 164.323 435.777 164.323 434.971Z" fill="white"/>
<path d="M193.813 441.41C190.655 441.41 188.092 440.419 186.123 438.437C184.168 436.44 183.19 433.788 183.19 430.479V429.864C183.19 427.649 183.614 425.674 184.462 423.938C185.323 422.188 186.526 420.827 188.071 419.856C189.616 418.886 191.339 418.4 193.239 418.4C196.261 418.4 198.592 419.364 200.232 421.292C201.887 423.22 202.714 425.947 202.714 429.475V431.484H188.215C188.365 433.316 188.974 434.766 190.04 435.832C191.12 436.898 192.474 437.432 194.101 437.432C196.384 437.432 198.243 436.509 199.679 434.663L202.365 437.227C201.477 438.553 200.287 439.585 198.797 440.323C197.32 441.048 195.659 441.41 193.813 441.41ZM193.219 422.399C191.852 422.399 190.744 422.878 189.896 423.835C189.062 424.792 188.529 426.125 188.297 427.834H197.792V427.465C197.683 425.797 197.238 424.539 196.459 423.691C195.68 422.83 194.6 422.399 193.219 422.399Z" fill="white"/>
<path d="M214.567 426.111L218.792 418.811H224.329L217.541 429.741L224.555 441H219.059L214.629 433.412L210.22 441H204.683L211.696 429.741L204.929 418.811H210.425L214.567 426.111Z" fill="white"/>
<path d="M233.968 413.417V418.811H237.885V422.502H233.968V434.889C233.968 435.736 234.132 436.352 234.46 436.734C234.802 437.104 235.403 437.288 236.265 437.288C236.839 437.288 237.42 437.22 238.008 437.083V440.938C236.873 441.253 235.779 441.41 234.727 441.41C230.898 441.41 228.984 439.298 228.984 435.073V422.502H225.334V418.811H228.984V413.417H233.968Z" fill="white"/>
<path d="M253.327 423.363C252.671 423.254 251.994 423.199 251.297 423.199C249.014 423.199 247.476 424.074 246.683 425.824V441H241.699V418.811H246.457L246.58 421.292C247.783 419.364 249.451 418.4 251.584 418.4C252.295 418.4 252.883 418.496 253.348 418.688L253.327 423.363Z" fill="white"/>
<path d="M269.118 441C268.899 440.576 268.708 439.886 268.544 438.929C266.958 440.583 265.017 441.41 262.72 441.41C260.491 441.41 258.673 440.774 257.265 439.503C255.856 438.231 255.152 436.659 255.152 434.786C255.152 432.421 256.027 430.609 257.777 429.352C259.541 428.08 262.057 427.444 265.324 427.444H268.38V425.988C268.38 424.84 268.059 423.924 267.416 423.24C266.773 422.543 265.796 422.194 264.483 422.194C263.349 422.194 262.419 422.481 261.694 423.056C260.97 423.616 260.607 424.334 260.607 425.209H255.624C255.624 423.992 256.027 422.857 256.834 421.805C257.641 420.738 258.734 419.904 260.115 419.303C261.51 418.701 263.062 418.4 264.771 418.4C267.368 418.4 269.439 419.057 270.984 420.369C272.529 421.668 273.322 423.5 273.363 425.865V435.873C273.363 437.869 273.644 439.462 274.204 440.651V441H269.118ZM263.643 437.411C264.627 437.411 265.55 437.172 266.411 436.693C267.286 436.215 267.942 435.572 268.38 434.766V430.582H265.693C263.848 430.582 262.46 430.903 261.53 431.546C260.601 432.188 260.136 433.098 260.136 434.273C260.136 435.23 260.45 435.996 261.079 436.57C261.722 437.131 262.576 437.411 263.643 437.411Z" fill="white"/>
<path d="M288.354 441.41C285.196 441.41 282.633 440.419 280.664 438.437C278.709 436.44 277.731 433.788 277.731 430.479V429.864C277.731 427.649 278.155 425.674 279.003 423.938C279.864 422.188 281.067 420.827 282.612 419.856C284.157 418.886 285.88 418.4 287.78 418.4C290.802 418.4 293.133 419.364 294.773 421.292C296.428 423.22 297.255 425.947 297.255 429.475V431.484H282.756C282.906 433.316 283.515 434.766 284.581 435.832C285.661 436.898 287.015 437.432 288.642 437.432C290.925 437.432 292.784 436.509 294.22 434.663L296.906 437.227C296.018 438.553 294.828 439.585 293.338 440.323C291.861 441.048 290.2 441.41 288.354 441.41ZM287.76 422.399C286.393 422.399 285.285 422.878 284.438 423.835C283.604 424.792 283.07 426.125 282.838 427.834H292.333V427.465C292.224 425.797 291.779 424.539 291 423.691C290.221 422.83 289.141 422.399 287.76 422.399Z" fill="white"/>
<path d="M305.827 418.811L305.971 421.128C307.529 419.31 309.662 418.4 312.369 418.4C315.336 418.4 317.366 419.535 318.46 421.805C320.073 419.535 322.343 418.4 325.269 418.4C327.716 418.4 329.534 419.077 330.724 420.431C331.927 421.784 332.542 423.78 332.569 426.419V441H327.586V426.562C327.586 425.154 327.278 424.122 326.663 423.466C326.048 422.81 325.029 422.481 323.607 422.481C322.473 422.481 321.543 422.789 320.818 423.404C320.107 424.006 319.608 424.799 319.321 425.783L319.342 441H314.358V426.398C314.29 423.787 312.957 422.481 310.359 422.481C308.363 422.481 306.948 423.295 306.114 424.922V441H301.131V418.811H305.827Z" fill="white"/>
<path d="M336.753 429.7C336.753 427.526 337.184 425.571 338.045 423.835C338.906 422.085 340.116 420.745 341.675 419.815C343.233 418.872 345.024 418.4 347.048 418.4C350.042 418.4 352.469 419.364 354.328 421.292C356.201 423.22 357.213 425.776 357.363 428.962L357.384 430.131C357.384 432.318 356.96 434.273 356.112 435.996C355.278 437.719 354.075 439.052 352.503 439.995C350.944 440.938 349.14 441.41 347.089 441.41C343.958 441.41 341.449 440.371 339.562 438.293C337.689 436.201 336.753 433.419 336.753 429.946V429.7ZM341.736 430.131C341.736 432.414 342.208 434.205 343.151 435.504C344.095 436.789 345.407 437.432 347.089 437.432C348.771 437.432 350.076 436.775 351.006 435.463C351.949 434.15 352.421 432.229 352.421 429.7C352.421 427.458 351.936 425.681 350.965 424.368C350.008 423.056 348.702 422.399 347.048 422.399C345.421 422.399 344.129 423.049 343.172 424.348C342.215 425.633 341.736 427.561 341.736 430.131Z" fill="white"/>
<path d="M374.036 434.971C374.036 434.082 373.667 433.405 372.929 432.94C372.204 432.476 370.994 432.065 369.299 431.71C367.604 431.354 366.188 430.903 365.054 430.356C362.565 429.153 361.321 427.41 361.321 425.127C361.321 423.213 362.128 421.613 363.741 420.328C365.354 419.043 367.405 418.4 369.894 418.4C372.546 418.4 374.686 419.057 376.312 420.369C377.953 421.682 378.773 423.384 378.773 425.476H373.79C373.79 424.519 373.435 423.726 372.724 423.097C372.013 422.454 371.069 422.133 369.894 422.133C368.8 422.133 367.904 422.386 367.207 422.892C366.523 423.397 366.182 424.074 366.182 424.922C366.182 425.688 366.503 426.282 367.146 426.706C367.788 427.13 369.087 427.561 371.042 427.998C372.997 428.422 374.528 428.935 375.636 429.536C376.757 430.124 377.584 430.835 378.117 431.669C378.664 432.503 378.938 433.515 378.938 434.704C378.938 436.7 378.11 438.32 376.456 439.564C374.802 440.795 372.635 441.41 369.955 441.41C368.137 441.41 366.517 441.082 365.095 440.426C363.673 439.77 362.565 438.867 361.772 437.719C360.979 436.57 360.583 435.333 360.583 434.007H365.423C365.491 435.183 365.936 436.092 366.756 436.734C367.576 437.363 368.663 437.678 370.017 437.678C371.329 437.678 372.327 437.432 373.011 436.939C373.694 436.434 374.036 435.777 374.036 434.971Z" fill="white"/>
<path d="M386.3 435.75C387.229 435.75 387.947 436.017 388.453 436.55C388.959 437.069 389.212 437.726 389.212 438.519C389.212 439.298 388.959 439.947 388.453 440.467C387.947 440.973 387.229 441.226 386.3 441.226C385.411 441.226 384.707 440.973 384.188 440.467C383.668 439.961 383.408 439.312 383.408 438.519C383.408 437.726 383.661 437.069 384.167 436.55C384.673 436.017 385.384 435.75 386.3 435.75ZM386.3 418.339C387.229 418.339 387.947 418.605 388.453 419.139C388.959 419.658 389.212 420.314 389.212 421.107C389.212 421.887 388.959 422.536 388.453 423.056C387.947 423.562 387.229 423.814 386.3 423.814C385.411 423.814 384.707 423.562 384.188 423.056C383.668 422.55 383.408 421.9 383.408 421.107C383.408 420.314 383.661 419.658 384.167 419.139C384.673 418.605 385.384 418.339 386.3 418.339Z" fill="white"/>
</g>
<g id="tex_2">
<path d="M77.0928 514.356H80.8047V518.355H77.0928V525H72.1094V518.355H59.21L59.0664 515.32L71.9453 495.141H77.0928V514.356ZM64.2959 514.356H72.1094V501.888L71.7402 502.544L64.2959 514.356Z" fill="white"/>
<path d="M106.501 507.363C105.845 507.254 105.168 507.199 104.471 507.199C102.188 507.199 100.649 508.074 99.8564 509.824V525H94.873V502.811H99.6309L99.7539 505.292C100.957 503.364 102.625 502.4 104.758 502.4C105.469 502.4 106.057 502.496 106.521 502.688L106.501 507.363Z" fill="white"/>
<path d="M107.978 513.7C107.978 511.526 108.408 509.571 109.27 507.835C110.131 506.085 111.341 504.745 112.899 503.815C114.458 502.872 116.249 502.4 118.272 502.4C121.267 502.4 123.693 503.364 125.553 505.292C127.426 507.22 128.438 509.776 128.588 512.962L128.608 514.131C128.608 516.318 128.185 518.273 127.337 519.996C126.503 521.719 125.3 523.052 123.728 523.995C122.169 524.938 120.364 525.41 118.313 525.41C115.183 525.41 112.674 524.371 110.787 522.293C108.914 520.201 107.978 517.419 107.978 513.946V513.7ZM112.961 514.131C112.961 516.414 113.433 518.205 114.376 519.504C115.319 520.789 116.632 521.432 118.313 521.432C119.995 521.432 121.301 520.775 122.23 519.463C123.174 518.15 123.646 516.229 123.646 513.7C123.646 511.458 123.16 509.681 122.189 508.368C121.232 507.056 119.927 506.399 118.272 506.399C116.646 506.399 115.354 507.049 114.396 508.348C113.439 509.633 112.961 511.561 112.961 514.131Z" fill="white"/>
<path d="M138.021 502.811V526.969C138.021 529.238 137.454 530.968 136.319 532.157C135.198 533.36 133.551 533.962 131.377 533.962C130.461 533.962 129.579 533.846 128.731 533.613V529.676C129.251 529.799 129.839 529.86 130.495 529.86C132.149 529.86 132.997 528.958 133.038 527.153V502.811H138.021ZM132.607 497.048C132.607 496.282 132.847 495.646 133.325 495.141C133.817 494.635 134.515 494.382 135.417 494.382C136.319 494.382 137.017 494.635 137.509 495.141C138.001 495.646 138.247 496.282 138.247 497.048C138.247 497.8 138.001 498.429 137.509 498.935C137.017 499.427 136.319 499.673 135.417 499.673C134.515 499.673 133.817 499.427 133.325 498.935C132.847 498.429 132.607 497.8 132.607 497.048Z" fill="white"/>
<path d="M156.622 525C156.403 524.576 156.212 523.886 156.048 522.929C154.462 524.583 152.521 525.41 150.224 525.41C147.995 525.41 146.177 524.774 144.769 523.503C143.36 522.231 142.656 520.659 142.656 518.786C142.656 516.421 143.531 514.609 145.281 513.352C147.045 512.08 149.561 511.444 152.828 511.444H155.884V509.988C155.884 508.84 155.562 507.924 154.92 507.24C154.277 506.543 153.3 506.194 151.987 506.194C150.853 506.194 149.923 506.481 149.198 507.056C148.474 507.616 148.111 508.334 148.111 509.209H143.128C143.128 507.992 143.531 506.857 144.338 505.805C145.145 504.738 146.238 503.904 147.619 503.303C149.014 502.701 150.565 502.4 152.274 502.4C154.872 502.4 156.943 503.057 158.488 504.369C160.033 505.668 160.826 507.5 160.867 509.865V519.873C160.867 521.869 161.147 523.462 161.708 524.651V525H156.622ZM151.146 521.411C152.131 521.411 153.054 521.172 153.915 520.693C154.79 520.215 155.446 519.572 155.884 518.766V514.582H153.197C151.352 514.582 149.964 514.903 149.034 515.546C148.104 516.188 147.64 517.098 147.64 518.273C147.64 519.23 147.954 519.996 148.583 520.57C149.226 521.131 150.08 521.411 151.146 521.411Z" fill="white"/>
<path d="M184.308 517.863L188.819 502.811H194.131L185.312 528.363C183.959 532.096 181.662 533.962 178.422 533.962C177.697 533.962 176.897 533.839 176.022 533.593V529.737L176.966 529.799C178.224 529.799 179.167 529.566 179.796 529.102C180.438 528.65 180.944 527.885 181.313 526.805L182.031 524.897L174.238 502.811H179.611L184.308 517.863Z" fill="white"/>
<path d="M220.729 525C220.511 524.576 220.319 523.886 220.155 522.929C218.569 524.583 216.628 525.41 214.331 525.41C212.103 525.41 210.284 524.774 208.876 523.503C207.468 522.231 206.764 520.659 206.764 518.786C206.764 516.421 207.639 514.609 209.389 513.352C211.152 512.08 213.668 511.444 216.936 511.444H219.991V509.988C219.991 508.84 219.67 507.924 219.027 507.24C218.385 506.543 217.407 506.194 216.095 506.194C214.96 506.194 214.03 506.481 213.306 507.056C212.581 507.616 212.219 508.334 212.219 509.209H207.235C207.235 507.992 207.639 506.857 208.445 505.805C209.252 504.738 210.346 503.904 211.727 503.303C213.121 502.701 214.673 502.4 216.382 502.4C218.979 502.4 221.051 503.057 222.596 504.369C224.141 505.668 224.934 507.5 224.975 509.865V519.873C224.975 521.869 225.255 523.462 225.815 524.651V525H220.729ZM215.254 521.411C216.238 521.411 217.161 521.172 218.022 520.693C218.897 520.215 219.554 519.572 219.991 518.766V514.582H217.305C215.459 514.582 214.071 514.903 213.142 515.546C212.212 516.188 211.747 517.098 211.747 518.273C211.747 519.23 212.062 519.996 212.69 520.57C213.333 521.131 214.188 521.411 215.254 521.411Z" fill="white"/>
<path d="M235.516 521.021H247.328V525H229.322V521.739L240.581 506.83H229.527V502.811H246.897V505.969L235.516 521.021Z" fill="white"/>
<path d="M264.76 522.826C263.297 524.549 261.219 525.41 258.525 525.41C256.119 525.41 254.294 524.706 253.05 523.298C251.819 521.89 251.204 519.853 251.204 517.187V502.811H256.188V517.125C256.188 519.941 257.356 521.35 259.694 521.35C262.114 521.35 263.748 520.481 264.596 518.745V502.811H269.579V525H264.883L264.76 522.826Z" fill="white"/>
<path d="M279.956 525H274.973V493.5H279.956V525Z" fill="white"/>
<path d="M307.375 508.573H315.168V513.126H307.375V522.006H302.535V513.126H294.701V508.573H302.535V500.268H307.375V508.573Z" fill="white"/>
<path d="M346.278 514.356H349.99V518.355H346.278V525H341.295V518.355H328.396L328.252 515.32L341.131 495.141H346.278V514.356ZM333.481 514.356H341.295V501.888L340.926 502.544L333.481 514.356Z" fill="white"/>
<path d="M377.327 525C377.108 524.576 376.917 523.886 376.753 522.929C375.167 524.583 373.226 525.41 370.929 525.41C368.7 525.41 366.882 524.774 365.474 523.503C364.065 522.231 363.361 520.659 363.361 518.786C363.361 516.421 364.236 514.609 365.986 513.352C367.75 512.08 370.266 511.444 373.533 511.444H376.589V509.988C376.589 508.84 376.268 507.924 375.625 507.24C374.982 506.543 374.005 506.194 372.692 506.194C371.558 506.194 370.628 506.481 369.903 507.056C369.179 507.616 368.816 508.334 368.816 509.209H363.833C363.833 507.992 364.236 506.857 365.043 505.805C365.85 504.738 366.943 503.904 368.324 503.303C369.719 502.701 371.271 502.4 372.979 502.4C375.577 502.4 377.648 503.057 379.193 504.369C380.738 505.668 381.531 507.5 381.572 509.865V519.873C381.572 521.869 381.853 523.462 382.413 524.651V525H377.327ZM371.852 521.411C372.836 521.411 373.759 521.172 374.62 520.693C375.495 520.215 376.151 519.572 376.589 518.766V514.582H373.902C372.057 514.582 370.669 514.903 369.739 515.546C368.81 516.188 368.345 517.098 368.345 518.273C368.345 519.23 368.659 519.996 369.288 520.57C369.931 521.131 370.785 521.411 371.852 521.411Z" fill="white"/>
<path d="M392.113 521.021H403.926V525H385.92V521.739L397.179 506.83H386.125V502.811H403.495V505.969L392.113 521.021Z" fill="white"/>
<path d="M421.357 522.826C419.895 524.549 417.816 525.41 415.123 525.41C412.717 525.41 410.892 524.706 409.647 523.298C408.417 521.89 407.802 519.853 407.802 517.187V502.811H412.785V517.125C412.785 519.941 413.954 521.35 416.292 521.35C418.712 521.35 420.346 520.481 421.193 518.745V502.811H426.177V525H421.48L421.357 522.826Z" fill="white"/>
<path d="M436.554 525H431.57V493.5H436.554V525Z" fill="white"/>
<path d="M460.22 517.863L464.731 502.811H470.043L461.225 528.363C459.871 532.096 457.574 533.962 454.334 533.962C453.609 533.962 452.81 533.839 451.935 533.593V529.737L452.878 529.799C454.136 529.799 455.079 529.566 455.708 529.102C456.351 528.65 456.856 527.885 457.226 526.805L457.943 524.897L450.15 502.811H455.523L460.22 517.863Z" fill="white"/>
<path d="M491.207 518.684L495.903 502.811H501.051L493.36 525H489.033L481.281 502.811H486.449L491.207 518.684Z" fill="white"/>
<path d="M513.663 525.41C510.505 525.41 507.941 524.419 505.973 522.437C504.018 520.44 503.04 517.788 503.04 514.479V513.864C503.04 511.649 503.464 509.674 504.312 507.938C505.173 506.188 506.376 504.827 507.921 503.856C509.466 502.886 511.188 502.4 513.089 502.4C516.11 502.4 518.441 503.364 520.082 505.292C521.736 507.22 522.563 509.947 522.563 513.475V515.484H508.064C508.215 517.316 508.823 518.766 509.89 519.832C510.97 520.898 512.323 521.432 513.95 521.432C516.233 521.432 518.093 520.509 519.528 518.663L522.215 521.227C521.326 522.553 520.137 523.585 518.646 524.323C517.17 525.048 515.509 525.41 513.663 525.41ZM513.068 506.399C511.701 506.399 510.594 506.878 509.746 507.835C508.912 508.792 508.379 510.125 508.146 511.834H517.642V511.465C517.532 509.797 517.088 508.539 516.309 507.691C515.529 506.83 514.449 506.399 513.068 506.399Z" fill="white"/>
<path d="M538.067 507.363C537.411 507.254 536.734 507.199 536.037 507.199C533.754 507.199 532.216 508.074 531.423 509.824V525H526.439V502.811H531.197L531.32 505.292C532.523 503.364 534.191 502.4 536.324 502.4C537.035 502.4 537.623 502.496 538.088 502.688L538.067 507.363Z" fill="white"/>
<path d="M539.872 513.741C539.872 510.323 540.665 507.582 542.251 505.518C543.837 503.439 545.963 502.4 548.629 502.4C550.98 502.4 552.881 503.221 554.33 504.861V493.5H559.313V525H554.802L554.556 522.703C553.065 524.508 551.076 525.41 548.588 525.41C545.99 525.41 543.885 524.364 542.271 522.272C540.672 520.181 539.872 517.337 539.872 513.741ZM544.855 514.172C544.855 516.428 545.286 518.191 546.147 519.463C547.022 520.721 548.26 521.35 549.859 521.35C551.896 521.35 553.387 520.44 554.33 518.622V509.147C553.414 507.37 551.938 506.481 549.9 506.481C548.287 506.481 547.043 507.124 546.168 508.409C545.293 509.681 544.855 511.602 544.855 514.172Z" fill="white"/>
<path d="M574.284 525.41C571.126 525.41 568.562 524.419 566.594 522.437C564.639 520.44 563.661 517.788 563.661 514.479V513.864C563.661 511.649 564.085 509.674 564.933 507.938C565.794 506.188 566.997 504.827 568.542 503.856C570.087 502.886 571.81 502.4 573.71 502.4C576.731 502.4 579.062 503.364 580.703 505.292C582.357 507.22 583.185 509.947 583.185 513.475V515.484H568.686C568.836 517.316 569.444 518.766 570.511 519.832C571.591 520.898 572.944 521.432 574.571 521.432C576.854 521.432 578.714 520.509 580.149 518.663L582.836 521.227C581.947 522.553 580.758 523.585 579.268 524.323C577.791 525.048 576.13 525.41 574.284 525.41ZM573.689 506.399C572.322 506.399 571.215 506.878 570.367 507.835C569.533 508.792 569 510.125 568.768 511.834H578.263V511.465C578.153 509.797 577.709 508.539 576.93 507.691C576.15 506.83 575.07 506.399 573.689 506.399Z" fill="white"/>
<path d="M72.0684 557.573H79.8613V562.126H72.0684V571.006H67.2285V562.126H59.3945V557.573H67.2285V549.268H72.0684V557.573Z" fill="white"/>
<path d="M110.972 563.356H114.684V567.355H110.972V574H105.988V567.355H93.0889L92.9453 564.32L105.824 544.141H110.972V563.356ZM98.1748 563.356H105.988V550.888L105.619 551.544L98.1748 563.356Z" fill="white"/>
<path d="M136.586 567.684L141.282 551.811H146.43L138.739 574H134.412L126.66 551.811H131.828L136.586 567.684Z" fill="white"/>
<path d="M159.042 574.41C155.884 574.41 153.32 573.419 151.352 571.437C149.396 569.44 148.419 566.788 148.419 563.479V562.864C148.419 560.649 148.843 558.674 149.69 556.938C150.552 555.188 151.755 553.827 153.3 552.856C154.845 551.886 156.567 551.4 158.468 551.4C161.489 551.4 163.82 552.364 165.461 554.292C167.115 556.22 167.942 558.947 167.942 562.475V564.484H153.443C153.594 566.316 154.202 567.766 155.269 568.832C156.349 569.898 157.702 570.432 159.329 570.432C161.612 570.432 163.472 569.509 164.907 567.663L167.594 570.227C166.705 571.553 165.516 572.585 164.025 573.323C162.549 574.048 160.888 574.41 159.042 574.41ZM158.447 555.399C157.08 555.399 155.973 555.878 155.125 556.835C154.291 557.792 153.758 559.125 153.525 560.834H163.021V560.465C162.911 558.797 162.467 557.539 161.688 556.691C160.908 555.83 159.828 555.399 158.447 555.399Z" fill="white"/>
<path d="M183.446 556.363C182.79 556.254 182.113 556.199 181.416 556.199C179.133 556.199 177.595 557.074 176.802 558.824V574H171.818V551.811H176.576L176.699 554.292C177.902 552.364 179.57 551.4 181.703 551.4C182.414 551.4 183.002 551.496 183.467 551.688L183.446 556.363Z" fill="white"/>
<path d="M185.251 562.741C185.251 559.323 186.044 556.582 187.63 554.518C189.216 552.439 191.342 551.4 194.008 551.4C196.359 551.4 198.26 552.221 199.709 553.861V542.5H204.692V574H200.181L199.935 571.703C198.444 573.508 196.455 574.41 193.967 574.41C191.369 574.41 189.264 573.364 187.65 571.272C186.051 569.181 185.251 566.337 185.251 562.741ZM190.234 563.172C190.234 565.428 190.665 567.191 191.526 568.463C192.401 569.721 193.639 570.35 195.238 570.35C197.275 570.35 198.766 569.44 199.709 567.622V558.147C198.793 556.37 197.316 555.481 195.279 555.481C193.666 555.481 192.422 556.124 191.547 557.409C190.672 558.681 190.234 560.602 190.234 563.172Z" fill="white"/>
<path d="M219.663 574.41C216.505 574.41 213.941 573.419 211.973 571.437C210.018 569.44 209.04 566.788 209.04 563.479V562.864C209.04 560.649 209.464 558.674 210.312 556.938C211.173 555.188 212.376 553.827 213.921 552.856C215.466 551.886 217.188 551.4 219.089 551.4C222.11 551.4 224.441 552.364 226.082 554.292C227.736 556.22 228.563 558.947 228.563 562.475V564.484H214.064C214.215 566.316 214.823 567.766 215.89 568.832C216.97 569.898 218.323 570.432 219.95 570.432C222.233 570.432 224.093 569.509 225.528 567.663L228.215 570.227C227.326 571.553 226.137 572.585 224.646 573.323C223.17 574.048 221.509 574.41 219.663 574.41ZM219.068 555.399C217.701 555.399 216.594 555.878 215.746 556.835C214.912 557.792 214.379 559.125 214.146 560.834H223.642V560.465C223.532 558.797 223.088 557.539 222.309 556.691C221.529 555.83 220.449 555.399 219.068 555.399Z" fill="white"/>
<path d="M250.671 566.863L255.183 551.811H260.494L251.676 577.363C250.322 581.096 248.025 582.962 244.785 582.962C244.061 582.962 243.261 582.839 242.386 582.593V578.737L243.329 578.799C244.587 578.799 245.53 578.566 246.159 578.102C246.802 577.65 247.308 576.885 247.677 575.805L248.395 573.897L240.602 551.811H245.975L250.671 566.863Z" fill="white"/>
<path d="M285.452 556.363C284.796 556.254 284.119 556.199 283.422 556.199C281.139 556.199 279.601 557.074 278.808 558.824V574H273.824V551.811H278.582L278.705 554.292C279.908 552.364 281.576 551.4 283.709 551.4C284.42 551.4 285.008 551.496 285.473 551.688L285.452 556.363Z" fill="white"/>
<path d="M286.929 562.7C286.929 560.526 287.359 558.571 288.221 556.835C289.082 555.085 290.292 553.745 291.851 552.815C293.409 551.872 295.2 551.4 297.224 551.4C300.218 551.4 302.645 552.364 304.504 554.292C306.377 556.22 307.389 558.776 307.539 561.962L307.56 563.131C307.56 565.318 307.136 567.273 306.288 568.996C305.454 570.719 304.251 572.052 302.679 572.995C301.12 573.938 299.315 574.41 297.265 574.41C294.134 574.41 291.625 573.371 289.738 571.293C287.865 569.201 286.929 566.419 286.929 562.946V562.7ZM291.912 563.131C291.912 565.414 292.384 567.205 293.327 568.504C294.271 569.789 295.583 570.432 297.265 570.432C298.946 570.432 300.252 569.775 301.182 568.463C302.125 567.15 302.597 565.229 302.597 562.7C302.597 560.458 302.111 558.681 301.141 557.368C300.184 556.056 298.878 555.399 297.224 555.399C295.597 555.399 294.305 556.049 293.348 557.348C292.391 558.633 291.912 560.561 291.912 563.131Z" fill="white"/>
<path d="M316.973 551.811V575.969C316.973 578.238 316.405 579.968 315.271 581.157C314.149 582.36 312.502 582.962 310.328 582.962C309.412 582.962 308.53 582.846 307.683 582.613V578.676C308.202 578.799 308.79 578.86 309.446 578.86C311.101 578.86 311.948 577.958 311.989 576.153V551.811H316.973ZM311.559 546.048C311.559 545.282 311.798 544.646 312.276 544.141C312.769 543.635 313.466 543.382 314.368 543.382C315.271 543.382 315.968 543.635 316.46 544.141C316.952 544.646 317.198 545.282 317.198 546.048C317.198 546.8 316.952 547.429 316.46 547.935C315.968 548.427 315.271 548.673 314.368 548.673C313.466 548.673 312.769 548.427 312.276 547.935C311.798 547.429 311.559 546.8 311.559 546.048Z" fill="white"/>
<path d="M321.382 562.7C321.382 560.526 321.812 558.571 322.674 556.835C323.535 555.085 324.745 553.745 326.304 552.815C327.862 551.872 329.653 551.4 331.677 551.4C334.671 551.4 337.098 552.364 338.957 554.292C340.83 556.22 341.842 558.776 341.992 561.962L342.013 563.131C342.013 565.318 341.589 567.273 340.741 568.996C339.907 570.719 338.704 572.052 337.132 572.995C335.573 573.938 333.769 574.41 331.718 574.41C328.587 574.41 326.078 573.371 324.191 571.293C322.318 569.201 321.382 566.419 321.382 562.946V562.7ZM326.365 563.131C326.365 565.414 326.837 567.205 327.78 568.504C328.724 569.789 330.036 570.432 331.718 570.432C333.399 570.432 334.705 569.775 335.635 568.463C336.578 567.15 337.05 565.229 337.05 562.7C337.05 560.458 336.564 558.681 335.594 557.368C334.637 556.056 333.331 555.399 331.677 555.399C330.05 555.399 328.758 556.049 327.801 557.348C326.844 558.633 326.365 560.561 326.365 563.131Z" fill="white"/>
<path d="M368.201 557.573H375.994V562.126H368.201V571.006H363.361V562.126H355.527V557.573H363.361V549.268H368.201V557.573Z" fill="white"/>
<path d="M403.741 574H398.778V550.026L391.457 552.528V548.324L403.105 544.038H403.741V574Z" fill="white"/>
<path d="M444.367 563.131C444.367 566.576 443.595 569.317 442.05 571.354C440.519 573.392 438.406 574.41 435.713 574.41C433.115 574.41 431.092 573.474 429.643 571.601L429.396 574H424.885V542.5H429.868V553.943C431.304 552.248 433.238 551.4 435.672 551.4C438.379 551.4 440.505 552.405 442.05 554.415C443.595 556.425 444.367 559.234 444.367 562.844V563.131ZM439.384 562.7C439.384 560.294 438.96 558.489 438.112 557.286C437.265 556.083 436.034 555.481 434.421 555.481C432.261 555.481 430.743 556.425 429.868 558.312V567.458C430.757 569.386 432.288 570.35 434.462 570.35C436.021 570.35 437.224 569.769 438.071 568.606C438.919 567.444 439.356 565.688 439.384 563.336V562.7Z" fill="white"/>
<path d="M447.628 562.7C447.628 560.526 448.059 558.571 448.92 556.835C449.781 555.085 450.991 553.745 452.55 552.815C454.108 551.872 455.899 551.4 457.923 551.4C460.917 551.4 463.344 552.364 465.203 554.292C467.076 556.22 468.088 558.776 468.238 561.962L468.259 563.131C468.259 565.318 467.835 567.273 466.987 568.996C466.153 570.719 464.95 572.052 463.378 572.995C461.819 573.938 460.015 574.41 457.964 574.41C454.833 574.41 452.324 573.371 450.438 571.293C448.564 569.201 447.628 566.419 447.628 562.946V562.7ZM452.611 563.131C452.611 565.414 453.083 567.205 454.026 568.504C454.97 569.789 456.282 570.432 457.964 570.432C459.646 570.432 460.951 569.775 461.881 568.463C462.824 567.15 463.296 565.229 463.296 562.7C463.296 560.458 462.811 558.681 461.84 557.368C460.883 556.056 459.577 555.399 457.923 555.399C456.296 555.399 455.004 556.049 454.047 557.348C453.09 558.633 452.611 560.561 452.611 563.131Z" fill="white"/>
<path d="M477.774 574H472.791V542.5H477.774V574Z" fill="white"/>
<path d="M488.521 574H483.537V551.811H488.521V574ZM483.229 546.048C483.229 545.282 483.469 544.646 483.947 544.141C484.439 543.635 485.137 543.382 486.039 543.382C486.941 543.382 487.639 543.635 488.131 544.141C488.623 544.646 488.869 545.282 488.869 546.048C488.869 546.8 488.623 547.429 488.131 547.935C487.639 548.427 486.941 548.673 486.039 548.673C485.137 548.673 484.439 548.427 483.947 547.935C483.469 547.429 483.229 546.8 483.229 546.048Z" fill="white"/>
<path d="M500.21 546.417V551.811H504.127V555.502H500.21V567.889C500.21 568.736 500.374 569.352 500.702 569.734C501.044 570.104 501.646 570.288 502.507 570.288C503.081 570.288 503.662 570.22 504.25 570.083V573.938C503.115 574.253 502.021 574.41 500.969 574.41C497.141 574.41 495.227 572.298 495.227 568.073V555.502H491.576V551.811H495.227V546.417H500.21Z" fill="white"/>
<path d="M521.21 574C520.991 573.576 520.8 572.886 520.636 571.929C519.05 573.583 517.108 574.41 514.812 574.41C512.583 574.41 510.765 573.774 509.356 572.503C507.948 571.231 507.244 569.659 507.244 567.786C507.244 565.421 508.119 563.609 509.869 562.352C511.633 561.08 514.148 560.444 517.416 560.444H520.472V558.988C520.472 557.84 520.15 556.924 519.508 556.24C518.865 555.543 517.888 555.194 516.575 555.194C515.44 555.194 514.511 555.481 513.786 556.056C513.062 556.616 512.699 557.334 512.699 558.209H507.716C507.716 556.992 508.119 555.857 508.926 554.805C509.732 553.738 510.826 552.904 512.207 552.303C513.602 551.701 515.153 551.4 516.862 551.4C519.46 551.4 521.531 552.057 523.076 553.369C524.621 554.668 525.414 556.5 525.455 558.865V568.873C525.455 570.869 525.735 572.462 526.296 573.651V574H521.21ZM515.734 570.411C516.719 570.411 517.642 570.172 518.503 569.693C519.378 569.215 520.034 568.572 520.472 567.766V563.582H517.785C515.939 563.582 514.552 563.903 513.622 564.546C512.692 565.188 512.228 566.098 512.228 567.273C512.228 568.23 512.542 568.996 513.171 569.57C513.813 570.131 514.668 570.411 515.734 570.411Z" fill="white"/>
<path d="M559.231 558.004H541.554V553.861H559.231V558.004ZM559.231 566.699H541.554V562.577H559.231V566.699Z" fill="white"/>
<path d="M588.271 574H583.308V550.026L575.986 552.528V548.324L587.635 544.038H588.271V574Z" fill="white"/>
<path d="M604.41 556.794H607.445C608.977 556.78 610.187 556.384 611.075 555.604C611.978 554.825 612.429 553.697 612.429 552.221C612.429 550.799 612.053 549.698 611.301 548.919C610.562 548.126 609.428 547.729 607.896 547.729C606.557 547.729 605.456 548.119 604.595 548.898C603.733 549.664 603.303 550.669 603.303 551.913H598.319C598.319 550.382 598.723 548.987 599.529 547.729C600.35 546.472 601.484 545.494 602.934 544.797C604.396 544.086 606.03 543.73 607.835 543.73C610.815 543.73 613.153 544.482 614.849 545.986C616.558 547.477 617.412 549.555 617.412 552.221C617.412 553.561 616.981 554.825 616.12 556.015C615.272 557.19 614.172 558.079 612.818 558.681C614.459 559.241 615.703 560.123 616.551 561.326C617.412 562.529 617.843 563.965 617.843 565.633C617.843 568.312 616.92 570.445 615.074 572.031C613.242 573.617 610.829 574.41 607.835 574.41C604.964 574.41 602.612 573.645 600.78 572.113C598.948 570.582 598.032 568.545 598.032 566.002H603.016C603.016 567.314 603.453 568.381 604.328 569.201C605.217 570.021 606.406 570.432 607.896 570.432C609.441 570.432 610.658 570.021 611.547 569.201C612.436 568.381 612.88 567.191 612.88 565.633C612.88 564.061 612.415 562.851 611.485 562.003C610.556 561.155 609.175 560.731 607.343 560.731H604.41V556.794Z" fill="white"/>
<path d="M652.768 563.131C652.768 566.576 651.995 569.317 650.45 571.354C648.919 573.392 646.807 574.41 644.113 574.41C641.516 574.41 639.492 573.474 638.043 571.601L637.797 574H633.285V542.5H638.269V553.943C639.704 552.248 641.639 551.4 644.072 551.4C646.779 551.4 648.905 552.405 650.45 554.415C651.995 556.425 652.768 559.234 652.768 562.844V563.131ZM647.784 562.7C647.784 560.294 647.36 558.489 646.513 557.286C645.665 556.083 644.435 555.481 642.821 555.481C640.661 555.481 639.144 556.425 638.269 558.312V567.458C639.157 569.386 640.688 570.35 642.862 570.35C644.421 570.35 645.624 569.769 646.472 568.606C647.319 567.444 647.757 565.688 647.784 563.336V562.7Z" fill="white"/>
<path d="M656.028 562.7C656.028 560.526 656.459 558.571 657.32 556.835C658.182 555.085 659.392 553.745 660.95 552.815C662.509 551.872 664.3 551.4 666.323 551.4C669.317 551.4 671.744 552.364 673.604 554.292C675.477 556.22 676.488 558.776 676.639 561.962L676.659 563.131C676.659 565.318 676.235 567.273 675.388 568.996C674.554 570.719 673.351 572.052 671.778 572.995C670.22 573.938 668.415 574.41 666.364 574.41C663.233 574.41 660.725 573.371 658.838 571.293C656.965 569.201 656.028 566.419 656.028 562.946V562.7ZM661.012 563.131C661.012 565.414 661.483 567.205 662.427 568.504C663.37 569.789 664.683 570.432 666.364 570.432C668.046 570.432 669.352 569.775 670.281 568.463C671.225 567.15 671.696 565.229 671.696 562.7C671.696 560.458 671.211 558.681 670.24 557.368C669.283 556.056 667.978 555.399 666.323 555.399C664.696 555.399 663.404 556.049 662.447 557.348C661.49 558.633 661.012 560.561 661.012 563.131Z" fill="white"/>
<path d="M686.175 574H681.191V542.5H686.175V574Z" fill="white"/>
<path d="M696.921 574H691.938V551.811H696.921V574ZM691.63 546.048C691.63 545.282 691.869 544.646 692.348 544.141C692.84 543.635 693.537 543.382 694.439 543.382C695.342 543.382 696.039 543.635 696.531 544.141C697.023 544.646 697.27 545.282 697.27 546.048C697.27 546.8 697.023 547.429 696.531 547.935C696.039 548.427 695.342 548.673 694.439 548.673C693.537 548.673 692.84 548.427 692.348 547.935C691.869 547.429 691.63 546.8 691.63 546.048Z" fill="white"/>
<path d="M708.61 546.417V551.811H712.527V555.502H708.61V567.889C708.61 568.736 708.774 569.352 709.103 569.734C709.444 570.104 710.046 570.288 710.907 570.288C711.481 570.288 712.062 570.22 712.65 570.083V573.938C711.516 574.253 710.422 574.41 709.369 574.41C705.541 574.41 703.627 572.298 703.627 568.073V555.502H699.977V551.811H703.627V546.417H708.61Z" fill="white"/>
<path d="M729.61 574C729.392 573.576 729.2 572.886 729.036 571.929C727.45 573.583 725.509 574.41 723.212 574.41C720.983 574.41 719.165 573.774 717.757 572.503C716.349 571.231 715.645 569.659 715.645 567.786C715.645 565.421 716.52 563.609 718.27 562.352C720.033 561.08 722.549 560.444 725.816 560.444H728.872V558.988C728.872 557.84 728.551 556.924 727.908 556.24C727.266 555.543 726.288 555.194 724.976 555.194C723.841 555.194 722.911 555.481 722.187 556.056C721.462 556.616 721.1 557.334 721.1 558.209H716.116C716.116 556.992 716.52 555.857 717.326 554.805C718.133 553.738 719.227 552.904 720.607 552.303C722.002 551.701 723.554 551.4 725.263 551.4C727.86 551.4 729.932 552.057 731.477 553.369C733.021 554.668 733.814 556.5 733.855 558.865V568.873C733.855 570.869 734.136 572.462 734.696 573.651V574H729.61ZM724.135 570.411C725.119 570.411 726.042 570.172 726.903 569.693C727.778 569.215 728.435 568.572 728.872 567.766V563.582H726.186C724.34 563.582 722.952 563.903 722.022 564.546C721.093 565.188 720.628 566.098 720.628 567.273C720.628 568.23 720.942 568.996 721.571 569.57C722.214 570.131 723.068 570.411 724.135 570.411Z" fill="white"/>
<path d="M751.513 567.971C751.513 567.082 751.144 566.405 750.405 565.94C749.681 565.476 748.471 565.065 746.775 564.71C745.08 564.354 743.665 563.903 742.53 563.356C740.042 562.153 738.798 560.41 738.798 558.127C738.798 556.213 739.604 554.613 741.218 553.328C742.831 552.043 744.882 551.4 747.37 551.4C750.022 551.4 752.162 552.057 753.789 553.369C755.43 554.682 756.25 556.384 756.25 558.476H751.267C751.267 557.519 750.911 556.726 750.2 556.097C749.489 555.454 748.546 555.133 747.37 555.133C746.276 555.133 745.381 555.386 744.684 555.892C744 556.397 743.658 557.074 743.658 557.922C743.658 558.688 743.979 559.282 744.622 559.706C745.265 560.13 746.563 560.561 748.519 560.998C750.474 561.422 752.005 561.935 753.112 562.536C754.233 563.124 755.061 563.835 755.594 564.669C756.141 565.503 756.414 566.515 756.414 567.704C756.414 569.7 755.587 571.32 753.933 572.564C752.278 573.795 750.111 574.41 747.432 574.41C745.613 574.41 743.993 574.082 742.571 573.426C741.149 572.77 740.042 571.867 739.249 570.719C738.456 569.57 738.06 568.333 738.06 567.007H742.899C742.968 568.183 743.412 569.092 744.232 569.734C745.053 570.363 746.14 570.678 747.493 570.678C748.806 570.678 749.804 570.432 750.487 569.939C751.171 569.434 751.513 568.777 751.513 567.971Z" fill="white"/>
</g>
</g>
</g>
</svg>
