<svg viewBox="0 0 1080 150" fill="none" xmlns="http://www.w3.org/2000/svg">
<g id="1220021">
<g id="Frame 1">
<g id="Certezas">
<path d="M434.344 95.152H426.92C423.763 95.152 421.309 94.2773 419.56 92.528C417.853 90.7787 417 88.3467 417 85.232V63.92C417 60.7627 417.853 58.3307 419.56 56.624C421.309 54.8747 423.763 54 426.92 54H434.344C437.459 54 439.891 54.8747 441.64 56.624C443.389 58.3307 444.264 60.7627 444.264 63.92V66.992C444.264 67.76 443.88 68.144 443.112 68.144H439.08C438.355 68.144 437.992 67.76 437.992 66.992V64.176C437.992 61.0187 436.456 59.44 433.384 59.44H427.816C424.744 59.44 423.208 61.0187 423.208 64.176V84.976C423.208 88.1333 424.744 89.712 427.816 89.712H433.384C436.456 89.712 437.992 88.1333 437.992 84.976V82.16C437.992 81.392 438.355 81.008 439.08 81.008H443.112C443.88 81.008 444.264 81.392 444.264 82.16V85.232C444.264 88.3467 443.389 90.7787 441.64 92.528C439.891 94.2773 437.459 95.152 434.344 95.152Z" fill="white"/>
<path d="M474.667 95.152H460.842C457.685 95.152 455.232 94.2773 453.482 92.528C451.776 90.7787 450.922 88.3467 450.922 85.232V72.432C450.922 69.2747 451.776 66.8427 453.482 65.136C455.232 63.3867 457.685 62.512 460.842 62.512H466.09C469.248 62.512 471.701 63.3867 473.451 65.136C475.2 66.8427 476.074 69.2747 476.074 72.432V80.56C476.074 81.328 475.69 81.712 474.923 81.712H457.771C457.301 81.712 457.066 81.9253 457.066 82.352V85.104C457.066 88.2187 458.624 89.776 461.738 89.776H474.667C475.435 89.776 475.819 90.16 475.819 90.928V94.128C475.819 94.8107 475.435 95.152 474.667 95.152ZM457.771 77.36H469.226C469.653 77.36 469.866 77.1467 469.866 76.72V72.624C469.866 71.0027 469.504 69.8293 468.778 69.104C468.053 68.336 466.88 67.952 465.258 67.952H461.738C460.117 67.952 458.944 68.336 458.218 69.104C457.493 69.8293 457.13 71.0027 457.13 72.624V76.72C457.13 77.1467 457.344 77.36 457.771 77.36Z" fill="white"/>
<path d="M488.245 95.152H484.213C483.488 95.152 483.125 94.7893 483.125 94.064V63.6C483.125 62.8747 483.488 62.512 484.213 62.512H488.245C488.97 62.512 489.333 62.8747 489.333 63.6V66.032H489.589C490.016 64.9653 490.826 64.112 492.021 63.472C493.258 62.832 494.624 62.512 496.117 62.512H498.485C499.21 62.512 499.573 62.8747 499.573 63.6V66.928C499.573 67.7387 499.21 68.08 498.485 67.952H494.645C491.104 67.952 489.333 69.8933 489.333 73.776V94.064C489.333 94.7893 488.97 95.152 488.245 95.152Z" fill="white"/>
<path d="M505.522 67.952H502.451C502.024 67.952 501.725 67.888 501.555 67.76C501.427 67.5893 501.363 67.312 501.363 66.928V63.6C501.363 62.8747 501.725 62.512 502.451 62.512H505.522C505.949 62.512 506.163 62.2987 506.163 61.872V56.112C506.163 55.3867 506.546 55.024 507.314 55.024H511.347C512.072 55.024 512.435 55.3867 512.435 56.112V61.872C512.435 62.2987 512.669 62.512 513.139 62.512H519.09C519.859 62.512 520.243 62.8747 520.243 63.6V66.928C520.243 67.6107 519.859 67.952 519.09 67.952H513.139C512.669 67.952 512.435 68.1653 512.435 68.592V85.04C512.435 88.1547 514.035 89.712 517.235 89.712H519.73C520.498 89.712 520.883 90.0747 520.883 90.8V94.128C520.883 94.8107 520.498 95.152 519.73 95.152H516.275C513.117 95.152 510.643 94.2987 508.851 92.592C507.059 90.8853 506.163 88.4747 506.163 85.36V68.592C506.163 68.1653 505.949 67.952 505.522 67.952Z" fill="white"/>
<path d="M550.104 95.152H536.28C533.123 95.152 530.669 94.2773 528.92 92.528C527.213 90.7787 526.36 88.3467 526.36 85.232V72.432C526.36 69.2747 527.213 66.8427 528.92 65.136C530.669 63.3867 533.123 62.512 536.28 62.512H541.528C544.685 62.512 547.139 63.3867 548.888 65.136C550.637 66.8427 551.512 69.2747 551.512 72.432V80.56C551.512 81.328 551.128 81.712 550.36 81.712H533.208C532.739 81.712 532.504 81.9253 532.504 82.352V85.104C532.504 88.2187 534.061 89.776 537.176 89.776H550.104C550.872 89.776 551.256 90.16 551.256 90.928V94.128C551.256 94.8107 550.872 95.152 550.104 95.152ZM533.208 77.36H544.664C545.091 77.36 545.304 77.1467 545.304 76.72V72.624C545.304 71.0027 544.941 69.8293 544.216 69.104C543.491 68.336 542.317 67.952 540.696 67.952H537.176C535.555 67.952 534.381 68.336 533.656 69.104C532.931 69.8293 532.568 71.0027 532.568 72.624V76.72C532.568 77.1467 532.781 77.36 533.208 77.36Z" fill="white"/>
<path d="M556.579 94.064V92.4C556.579 91.3333 556.877 90.416 557.475 89.648L572.258 68.208V67.952H558.243C557.475 67.952 557.09 67.568 557.09 66.8V63.6C557.09 62.8747 557.475 62.512 558.243 62.512H578.467C579.192 62.512 579.555 62.8747 579.555 63.6V66.544C579.555 67.568 579.299 68.3787 578.786 68.976L564.771 89.456V89.712H579.042C579.81 89.712 580.195 90.096 580.195 90.864V94.064C580.195 94.7893 579.81 95.152 579.042 95.152H557.73C556.962 95.152 556.579 94.7893 556.579 94.064Z" fill="white"/>
<path d="M597.964 95.152H595.467C592.31 95.152 589.857 94.2773 588.107 92.528C586.401 90.7787 585.548 88.3467 585.548 85.232V72.432C585.548 69.2747 586.401 66.8427 588.107 65.136C589.857 63.3867 592.31 62.512 595.467 62.512H609.803C610.571 62.512 610.956 62.8747 610.956 63.6V94.064C610.956 94.7893 610.571 95.152 609.803 95.152H605.771C605.046 95.152 604.684 94.7893 604.684 94.064V91.76H604.428C603.404 94.0213 601.249 95.152 597.964 95.152ZM604.684 84.272V68.592C604.684 68.1653 604.449 67.952 603.98 67.952H596.364C593.292 67.952 591.756 69.5307 591.756 72.688V84.976C591.756 88.1333 593.292 89.712 596.364 89.712H599.436C602.934 89.712 604.684 87.8987 604.684 84.272Z" fill="white"/>
<path d="M630.585 95.152H618.81C618.084 95.152 617.721 94.7893 617.721 94.064V90.928C617.721 90.2453 618.084 89.904 618.81 89.904H629.562C632.335 89.904 633.721 88.944 633.721 87.024V86.256C633.721 84.5493 632.719 83.248 630.714 82.352L623.738 79.024C621.562 78 619.983 76.8693 619.001 75.632C618.02 74.3947 617.529 72.7733 617.529 70.768C617.529 65.264 620.58 62.512 626.682 62.512H637.305C637.988 62.512 638.329 62.8747 638.329 63.6V66.736C638.329 67.4613 637.988 67.824 637.305 67.824H627.962C626.682 67.824 625.7 68.0587 625.018 68.528C624.335 68.9547 623.993 69.5307 623.993 70.256V70.96C623.993 72.3253 625.082 73.52 627.258 74.544L634.298 78.128C636.516 79.1093 638.031 80.2827 638.842 81.648C639.695 82.9707 640.122 84.6987 640.122 86.832C640.122 92.3787 636.943 95.152 630.585 95.152Z" fill="white"/>
</g>
<rect x="372" y="34" width="313.122" height="81.152" rx="35" stroke="#4F19D5" stroke-width="10"/>
</g>
</g>
</svg>
