<svg  viewBox="0 0 795 577" fill="none" xmlns="http://www.w3.org/2000/svg">
<g id="0122204">
<g id="caja-piezas">
<g id="caja">
<path id="Rectangle 16" d="M4 81H600V277H4V81Z" fill="#2CF30B" stroke="#A394A5" stroke-width="4"/>
<path id="Rectangle 16 (Stroke)" d="M7 82H5V84V274V276H7H597H599V274V84V82H597H7ZM4 81H600V277H4V81Z" fill="#2CF30B" stroke="#A394A5" stroke-width="4"/>
<path id="Rectangle 17" d="M793 198.63L603.5 272.08V81.5V79.5H601.5H15.6889L195.413 2H793V198.63Z" fill="#2CF30B" stroke="#A394A5" stroke-width="4"/>
<path id="Rectangle 17 (Stroke)" d="M603.5 81.5V79.5H601.5H15.6889L195.413 2H793V198.63L603.5 272.08V81.5ZM29.4304 74.6635L30.2223 78.5H604.5V267.7V270.62L607.223 269.564L790.723 198.44L792 197.945V196.576V5V3H790H196.032H195.619L195.24 3.16347L29.4304 74.6635Z" fill="#2CF30B" stroke="#A394A5" stroke-width="4"/>
<path id="Line 2 (Stroke)" d="M782.013 3.98123L782.391 4.9067L593.093 82.3914L592.715 81.466L782.013 3.98123Z" fill="#A394A5" stroke="#A394A5" stroke-width="4"/>
<path id="Line 3 (Stroke)" d="M491.967 38.011L491.989 42.0109L309.989 43L309.967 39.0001L491.967 38.011Z" fill="#02071A" stroke="#A394A5" stroke-width="4"/>
</g>
<g id="piezas">
<path id="Vector" d="M289.781 151.113C289.781 156.156 291.943 158.323 295.25 159.375V163.625H314V159.375C317.307 158.323 319.469 156.152 319.469 151.113C319.469 148.124 318.421 144.561 316.862 141.098L307.066 150.896C306.92 151.042 306.721 151.124 306.514 151.124C306.307 151.124 306.108 151.042 305.962 150.896L304.857 149.791C304.711 149.645 304.629 149.446 304.629 149.239C304.629 149.032 304.711 148.833 304.857 148.687L315.394 138.146C313.362 134.444 310.855 131.105 308.473 129.104C309.84 128.771 310.875 127.595 310.875 126.125C310.875 125.296 310.546 124.501 309.96 123.915C309.374 123.329 308.579 123 307.75 123H301.5C300.671 123 299.876 123.329 299.29 123.915C298.704 124.501 298.375 125.296 298.375 126.125C298.375 127.59 299.41 128.771 300.777 129.104C295.622 133.43 289.781 143.947 289.781 151.113ZM318.688 166.75H290.562C290.148 166.75 289.751 166.915 289.458 167.208C289.165 167.501 289 167.898 289 168.312V171.438C289 171.852 289.165 172.249 289.458 172.542C289.751 172.835 290.148 173 290.562 173H318.688C319.102 173 319.499 172.835 319.792 172.542C320.085 172.249 320.25 171.852 320.25 171.438V168.312C320.25 167.898 320.085 167.501 319.792 167.208C319.499 166.915 319.102 166.75 318.688 166.75Z" fill="black"/>
<path id="Vector_2" d="M352.781 149.113C352.781 154.156 354.943 156.323 358.25 157.375V161.625H377V157.375C380.307 156.323 382.469 154.152 382.469 149.113C382.469 146.124 381.421 142.561 379.862 139.098L370.066 148.896C369.92 149.042 369.721 149.124 369.514 149.124C369.307 149.124 369.108 149.042 368.962 148.896L367.857 147.791C367.711 147.645 367.629 147.446 367.629 147.239C367.629 147.032 367.711 146.833 367.857 146.687L378.394 136.146C376.362 132.444 373.855 129.105 371.473 127.104C372.84 126.771 373.875 125.595 373.875 124.125C373.875 123.296 373.546 122.501 372.96 121.915C372.374 121.329 371.579 121 370.75 121H364.5C363.671 121 362.876 121.329 362.29 121.915C361.704 122.501 361.375 123.296 361.375 124.125C361.375 125.59 362.41 126.771 363.777 127.104C358.622 131.43 352.781 141.947 352.781 149.113ZM381.688 164.75H353.562C353.148 164.75 352.751 164.915 352.458 165.208C352.165 165.501 352 165.898 352 166.312V169.438C352 169.852 352.165 170.249 352.458 170.542C352.751 170.835 353.148 171 353.562 171H381.688C382.102 171 382.499 170.835 382.792 170.542C383.085 170.249 383.25 169.852 383.25 169.438V166.312C383.25 165.898 383.085 165.501 382.792 165.208C382.499 164.915 382.102 164.75 381.688 164.75Z" fill="white"/>
<path id="Union" fill-rule="evenodd" clip-rule="evenodd" d="M54.9219 136.136C57.6588 135.079 59.6 132.422 59.6 129.312C59.6 125.274 56.3261 122 52.2875 122C48.2489 122 44.975 125.274 44.975 129.312C44.975 132.42 46.9138 135.075 49.6479 136.134C49.4902 136.786 49.0755 137.469 48.0833 137.779C47.9683 137.815 47.8555 137.85 47.7451 137.884C45.7688 138.499 44.5542 138.877 44.5542 139.729C44.5542 140.473 44.9637 140.602 45.8393 140.878L45.8394 140.878L45.8396 140.878L45.8399 140.878C46.0239 140.937 46.2285 141.001 46.4542 141.079C46.7274 141.174 46.9763 141.244 47.2 141.307C48.0407 141.545 48.5252 141.681 48.6042 142.629C48.7042 143.829 48.4542 151.538 47.2542 152.538C46.6798 153.016 45.9899 153.22 45.4326 153.384C44.8256 153.564 44.3759 153.696 44.4042 154.088C44.4298 154.443 44.6333 154.742 44.8455 155.054C45.0812 155.401 45.3279 155.764 45.3542 156.238C45.4042 157.138 45.3042 158.538 43.3542 159.692C43.1526 159.811 42.9461 159.93 42.738 160.05C40.9328 161.095 39 162.213 39 163.696C39 165.346 39.5 166.246 40.15 166.9C40.15 166.9 40.0894 166.935 39.9973 167L39.9958 167C39.8855 167.079 39.7309 167.202 39.5814 167.364C39.3342 167.631 39.1 168.001 39.1 168.45V171C39.1 171 41.5542 172 52.2875 172C60.3375 172 63.7281 171.438 64.9203 171.156C65.3177 171.063 65.4708 171 65.4708 171V168.45C65.4708 168.271 65.4339 168.105 65.3739 167.952C65.1921 167.49 64.7985 167.157 64.5792 167L64.5788 167C64.4838 166.932 64.4208 166.896 64.4208 166.896C65.0708 166.246 65.5708 165.346 65.5708 163.692C65.5708 162.212 63.6419 161.095 61.8346 160.048L61.8341 160.048C61.6256 159.927 61.4188 159.807 61.2167 159.688C59.6742 158.778 59.2893 157.712 59.2205 156.858H59.2296C59.213 156.633 59.213 156.425 59.2255 156.237C59.2474 155.763 59.4938 155.4 59.7293 155.053C59.9407 154.741 60.1435 154.442 60.1671 154.088C60.1691 154.059 60.1684 154.031 60.1652 154.005C60.1288 153.674 59.7008 153.547 59.1372 153.38C58.5803 153.216 57.8912 153.012 57.3167 152.533C57.2936 152.514 57.2708 152.492 57.2484 152.468C57.2333 152.451 57.2187 152.434 57.2046 152.417H57.204C56.101 151.045 55.8699 143.786 55.9667 142.625C55.9957 142.276 56.0798 142.037 56.2163 141.862H56.221C56.4559 141.566 56.8459 141.456 57.3766 141.306L57.3767 141.305C57.599 141.243 57.8461 141.173 58.1168 141.079C58.3427 141.001 58.5474 140.936 58.7316 140.878L58.7317 140.878C59.6072 140.602 60.0168 140.473 60.0168 139.729C60.0168 139.719 60.0166 139.709 60.0163 139.7C59.9921 138.858 58.7643 138.478 56.7737 137.863L56.7727 137.863C56.6793 137.834 56.5842 137.805 56.4875 137.775C55.4948 137.468 55.0797 136.786 54.9219 136.136Z" fill="black"/>
<path id="Union_2" fill-rule="evenodd" clip-rule="evenodd" d="M107.922 136.136C110.659 135.079 112.6 132.422 112.6 129.312C112.6 125.274 109.326 122 105.287 122C101.249 122 97.975 125.274 97.975 129.312C97.975 132.42 99.9138 135.075 102.648 136.134C102.49 136.786 102.075 137.469 101.083 137.779C100.968 137.815 100.856 137.85 100.745 137.884C98.7688 138.499 97.5542 138.877 97.5542 139.729C97.5542 140.473 97.9637 140.602 98.8393 140.878L98.8394 140.878L98.8396 140.878L98.8399 140.878C99.0239 140.937 99.2285 141.001 99.4542 141.079C99.7274 141.174 99.9763 141.244 100.2 141.307C101.041 141.545 101.525 141.681 101.604 142.629C101.704 143.829 101.454 151.538 100.254 152.538C99.6798 153.016 98.9899 153.22 98.4326 153.384C97.8256 153.564 97.3759 153.696 97.4042 154.088C97.4298 154.443 97.6333 154.742 97.8455 155.054C98.0812 155.401 98.3279 155.764 98.3542 156.238C98.4042 157.138 98.3042 158.538 96.3542 159.692C96.1526 159.811 95.9461 159.93 95.738 160.05C93.9328 161.095 92 162.213 92 163.696C92 165.346 92.5 166.246 93.15 166.9C93.15 166.9 93.0894 166.935 92.9973 167L92.9958 167C92.8855 167.079 92.7309 167.202 92.5814 167.364C92.3342 167.631 92.1 168.001 92.1 168.45V171C92.1 171 94.5542 172 105.288 172C113.338 172 116.728 171.438 117.92 171.156C118.318 171.063 118.471 171 118.471 171V168.45C118.471 168.271 118.434 168.105 118.374 167.952C118.192 167.49 117.798 167.157 117.579 167L117.579 167C117.484 166.932 117.421 166.896 117.421 166.896C118.071 166.246 118.571 165.346 118.571 163.692C118.571 162.212 116.642 161.095 114.835 160.048L114.834 160.048C114.626 159.927 114.419 159.807 114.217 159.688C112.674 158.778 112.289 157.712 112.22 156.858H112.23C112.213 156.633 112.213 156.425 112.225 156.237C112.247 155.763 112.494 155.4 112.729 155.053C112.941 154.741 113.143 154.442 113.167 154.088C113.169 154.059 113.168 154.031 113.165 154.005C113.129 153.674 112.701 153.547 112.137 153.38C111.58 153.216 110.891 153.012 110.317 152.533C110.294 152.514 110.271 152.492 110.248 152.468C110.233 152.451 110.219 152.434 110.205 152.417H110.204C109.101 151.045 108.87 143.786 108.967 142.625C108.996 142.276 109.08 142.037 109.216 141.862H109.221C109.456 141.566 109.846 141.456 110.377 141.306L110.377 141.305C110.599 141.243 110.846 141.173 111.117 141.079C111.343 141.001 111.547 140.936 111.732 140.878L111.732 140.878C112.607 140.602 113.017 140.473 113.017 139.729C113.017 139.719 113.017 139.709 113.016 139.7C112.992 138.858 111.764 138.478 109.774 137.863L109.773 137.863C109.679 137.834 109.584 137.805 109.488 137.775C108.495 137.468 108.08 136.786 107.922 136.136Z" fill="white"/>
<path id="Vector_3" fill-rule="evenodd" clip-rule="evenodd" d="M155 171H192.5L183.125 158.5V136.625L189.375 130.375V121H183.319V124.125H176.678V121H170.819V124.125H164.178V121H158.125V130.375L164.375 136.625V158.5L155 171ZM176.875 136.625H180V158.5H176.875V136.625Z" fill="black"/>
<path id="Vector_4" fill-rule="evenodd" clip-rule="evenodd" d="M214 173H251.5L242.125 160.5V138.625L248.375 132.375V123H242.319V126.125H235.678V123H229.819V126.125H223.178V123H217.125V132.375L223.375 138.625V160.5L214 173ZM235.875 138.625H239V160.5H235.875V138.625Z" fill="white"/>
<path id="Union_3" fill-rule="evenodd" clip-rule="evenodd" d="M454.184 152.812V135.082C454.184 132.555 452.766 130.383 450.683 129.253L454.184 124H436.454C432.763 124.002 429.196 125.333 426.408 127.751C423.62 130.169 421.796 133.511 421.272 137.165L418.723 155.028L440.887 163.894L438.67 143.526C438.493 142.329 440.111 141.819 440.687 142.839L447.535 155.028L454.184 152.812ZM457.553 166.021H415V174H457.553V166.021Z" fill="black"/>
<path id="Union_4" fill-rule="evenodd" clip-rule="evenodd" d="M517.184 150.812V133.082C517.184 130.555 515.766 128.383 513.683 127.253L517.184 122H499.454C495.763 122.002 492.196 123.333 489.408 125.751C486.62 128.169 484.796 131.511 484.272 135.165L481.723 153.028L503.887 161.894L501.67 141.526C501.493 140.329 503.111 139.819 503.687 140.839L510.535 153.028L517.184 150.812ZM520.553 164.021H478V172H520.553V164.021Z" fill="white"/>
<g id="8 8 2 2 2 2 2 2">
<path d="M60.041 206.016C60.041 207.479 59.665 208.784 58.9131 209.933C58.1611 211.067 57.1357 211.963 55.8369 212.619C57.3955 213.344 58.5918 214.335 59.4258 215.593C60.2734 216.851 60.6973 218.272 60.6973 219.858C60.6973 222.483 59.8086 224.568 58.0312 226.113C56.2539 227.645 53.8887 228.41 50.9355 228.41C47.9688 228.41 45.5898 227.638 43.7988 226.093C42.0215 224.548 41.1328 222.47 41.1328 219.858C41.1328 218.259 41.5566 216.823 42.4043 215.552C43.252 214.28 44.4414 213.303 45.9727 212.619C44.6875 211.963 43.6689 211.067 42.917 209.933C42.1787 208.784 41.8096 207.479 41.8096 206.016C41.8096 203.473 42.6299 201.456 44.2705 199.966C45.9111 198.476 48.126 197.73 50.915 197.73C53.7178 197.73 55.9395 198.476 57.5801 199.966C59.2207 201.456 60.041 203.473 60.041 206.016ZM55.7139 219.612C55.7139 218.136 55.2695 216.946 54.3809 216.044C53.5059 215.128 52.3438 214.67 50.8945 214.67C49.4453 214.67 48.2832 215.121 47.4082 216.023C46.5469 216.926 46.1162 218.122 46.1162 219.612C46.1162 221.075 46.54 222.244 47.3877 223.119C48.249 223.994 49.4316 224.432 50.9355 224.432C52.4395 224.432 53.6084 224.008 54.4424 223.16C55.29 222.312 55.7139 221.13 55.7139 219.612ZM55.0781 206.2C55.0781 204.901 54.7021 203.835 53.9502 203.001C53.1982 202.153 52.1865 201.729 50.915 201.729C49.6436 201.729 48.6387 202.133 47.9004 202.939C47.1621 203.732 46.793 204.819 46.793 206.2C46.793 207.567 47.1621 208.654 47.9004 209.461C48.6523 210.268 49.6641 210.671 50.9355 210.671C52.207 210.671 53.2119 210.268 53.9502 209.461C54.7021 208.654 55.0781 207.567 55.0781 206.2Z" fill="black"/>
<path d="M115.289 206.016C115.289 207.479 114.913 208.784 114.161 209.933C113.409 211.067 112.384 211.963 111.085 212.619C112.644 213.344 113.84 214.335 114.674 215.593C115.521 216.851 115.945 218.272 115.945 219.858C115.945 222.483 115.057 224.568 113.279 226.113C111.502 227.645 109.137 228.41 106.184 228.41C103.217 228.41 100.838 227.638 99.0469 226.093C97.2695 224.548 96.3809 222.47 96.3809 219.858C96.3809 218.259 96.8047 216.823 97.6523 215.552C98.5 214.28 99.6895 213.303 101.221 212.619C99.9355 211.963 98.917 211.067 98.165 209.933C97.4268 208.784 97.0576 207.479 97.0576 206.016C97.0576 203.473 97.8779 201.456 99.5186 199.966C101.159 198.476 103.374 197.73 106.163 197.73C108.966 197.73 111.188 198.476 112.828 199.966C114.469 201.456 115.289 203.473 115.289 206.016ZM110.962 219.612C110.962 218.136 110.518 216.946 109.629 216.044C108.754 215.128 107.592 214.67 106.143 214.67C104.693 214.67 103.531 215.121 102.656 216.023C101.795 216.926 101.364 218.122 101.364 219.612C101.364 221.075 101.788 222.244 102.636 223.119C103.497 223.994 104.68 224.432 106.184 224.432C107.688 224.432 108.856 224.008 109.69 223.16C110.538 222.312 110.962 221.13 110.962 219.612ZM110.326 206.2C110.326 204.901 109.95 203.835 109.198 203.001C108.446 202.153 107.435 201.729 106.163 201.729C104.892 201.729 103.887 202.133 103.148 202.939C102.41 203.732 102.041 204.819 102.041 206.2C102.041 207.567 102.41 208.654 103.148 209.461C103.9 210.268 104.912 210.671 106.184 210.671C107.455 210.671 108.46 210.268 109.198 209.461C109.95 208.654 110.326 207.567 110.326 206.2Z" fill="black"/>
<path d="M182.268 228H162.19V224.575L172.137 213.727C173.572 212.127 174.591 210.794 175.192 209.728C175.808 208.647 176.115 207.567 176.115 206.487C176.115 205.065 175.712 203.917 174.905 203.042C174.112 202.167 173.039 201.729 171.686 201.729C170.072 201.729 168.821 202.222 167.933 203.206C167.044 204.19 166.6 205.537 166.6 207.246H161.616C161.616 205.428 162.026 203.794 162.847 202.345C163.681 200.882 164.863 199.747 166.395 198.94C167.939 198.134 169.717 197.73 171.727 197.73C174.625 197.73 176.908 198.462 178.576 199.925C180.258 201.374 181.099 203.384 181.099 205.954C181.099 207.444 180.675 209.01 179.827 210.65C178.993 212.277 177.619 214.13 175.705 216.208L168.404 224.021H182.268V228Z" fill="black"/>
<path d="M237.516 228H217.438V224.575L227.385 213.727C228.82 212.127 229.839 210.794 230.44 209.728C231.056 208.647 231.363 207.567 231.363 206.487C231.363 205.065 230.96 203.917 230.153 203.042C229.36 202.167 228.287 201.729 226.934 201.729C225.32 201.729 224.069 202.222 223.181 203.206C222.292 204.19 221.848 205.537 221.848 207.246H216.864C216.864 205.428 217.274 203.794 218.095 202.345C218.929 200.882 220.111 199.747 221.643 198.94C223.188 198.134 224.965 197.73 226.975 197.73C229.873 197.73 232.156 198.462 233.824 199.925C235.506 201.374 236.347 203.384 236.347 205.954C236.347 207.444 235.923 209.01 235.075 210.65C234.241 212.277 232.867 214.13 230.953 216.208L223.652 224.021H237.516V228Z" fill="black"/>
<path d="M313.682 228H293.604V224.575L303.551 213.727C304.986 212.127 306.005 210.794 306.606 209.728C307.222 208.647 307.529 207.567 307.529 206.487C307.529 205.065 307.126 203.917 306.319 203.042C305.526 202.167 304.453 201.729 303.1 201.729C301.486 201.729 300.235 202.222 299.347 203.206C298.458 204.19 298.014 205.537 298.014 207.246H293.03C293.03 205.428 293.44 203.794 294.261 202.345C295.095 200.882 296.277 199.747 297.809 198.94C299.354 198.134 301.131 197.73 303.141 197.73C306.039 197.73 308.322 198.462 309.99 199.925C311.672 201.374 312.513 203.384 312.513 205.954C312.513 207.444 312.089 209.01 311.241 210.65C310.407 212.277 309.033 214.13 307.119 216.208L299.818 224.021H313.682V228Z" fill="black"/>
<path d="M379.389 228H359.312V224.575L369.258 213.727C370.693 212.127 371.712 210.794 372.313 209.728C372.929 208.647 373.236 207.567 373.236 206.487C373.236 205.065 372.833 203.917 372.026 203.042C371.233 202.167 370.16 201.729 368.807 201.729C367.193 201.729 365.942 202.222 365.054 203.206C364.165 204.19 363.721 205.537 363.721 207.246H358.737C358.737 205.428 359.147 203.794 359.968 202.345C360.802 200.882 361.984 199.747 363.516 198.94C365.061 198.134 366.838 197.73 368.848 197.73C371.746 197.73 374.029 198.462 375.697 199.925C377.379 201.374 378.22 203.384 378.22 205.954C378.22 207.444 377.796 209.01 376.948 210.65C376.114 212.277 374.74 214.13 372.826 216.208L365.525 224.021H379.389V228Z" fill="black"/>
<path d="M445.096 228H425.019V224.575L434.965 213.727C436.4 212.127 437.419 210.794 438.021 209.728C438.636 208.647 438.943 207.567 438.943 206.487C438.943 205.065 438.54 203.917 437.733 203.042C436.94 202.167 435.867 201.729 434.514 201.729C432.9 201.729 431.649 202.222 430.761 203.206C429.872 204.19 429.428 205.537 429.428 207.246H424.444C424.444 205.428 424.854 203.794 425.675 202.345C426.509 200.882 427.691 199.747 429.223 198.94C430.768 198.134 432.545 197.73 434.555 197.73C437.453 197.73 439.736 198.462 441.404 199.925C443.086 201.374 443.927 203.384 443.927 205.954C443.927 207.444 443.503 209.01 442.655 210.65C441.821 212.277 440.447 214.13 438.533 216.208L431.232 224.021H445.096V228Z" fill="black"/>
<path d="M510.803 228H490.726V224.575L500.672 213.727C502.107 212.127 503.126 210.794 503.728 209.728C504.343 208.647 504.65 207.567 504.65 206.487C504.65 205.065 504.247 203.917 503.44 203.042C502.647 202.167 501.574 201.729 500.221 201.729C498.607 201.729 497.356 202.222 496.468 203.206C495.579 204.19 495.135 205.537 495.135 207.246H490.151C490.151 205.428 490.562 203.794 491.382 202.345C492.216 200.882 493.398 199.747 494.93 198.94C496.475 198.134 498.252 197.73 500.262 197.73C503.16 197.73 505.443 198.462 507.111 199.925C508.793 201.374 509.634 203.384 509.634 205.954C509.634 207.444 509.21 209.01 508.362 210.65C507.528 212.277 506.154 214.13 504.24 216.208L496.939 224.021H510.803V228Z" fill="black"/>
</g>
</g>
</g>
<g id="tex">
<path d="M6.99805 329.794H10.0332C11.5645 329.78 12.7744 329.384 13.6631 328.604C14.5654 327.825 15.0166 326.697 15.0166 325.221C15.0166 323.799 14.6406 322.698 13.8887 321.919C13.1504 321.126 12.0156 320.729 10.4844 320.729C9.14453 320.729 8.04395 321.119 7.18262 321.898C6.32129 322.664 5.89062 323.669 5.89062 324.913H0.907227C0.907227 323.382 1.31055 321.987 2.11719 320.729C2.9375 319.472 4.07227 318.494 5.52148 317.797C6.98438 317.086 8.61816 316.73 10.4229 316.73C13.4033 316.73 15.7412 317.482 17.4365 318.986C19.1455 320.477 20 322.555 20 325.221C20 326.561 19.5693 327.825 18.708 329.015C17.8604 330.19 16.7598 331.079 15.4062 331.681C17.0469 332.241 18.291 333.123 19.1387 334.326C20 335.529 20.4307 336.965 20.4307 338.633C20.4307 341.312 19.5078 343.445 17.6621 345.031C15.8301 346.617 13.417 347.41 10.4229 347.41C7.55176 347.41 5.2002 346.645 3.36816 345.113C1.53613 343.582 0.620117 341.545 0.620117 339.002H5.60352C5.60352 340.314 6.04102 341.381 6.91602 342.201C7.80469 343.021 8.99414 343.432 10.4844 343.432C12.0293 343.432 13.2461 343.021 14.1348 342.201C15.0234 341.381 15.4678 340.191 15.4678 338.633C15.4678 337.061 15.0029 335.851 14.0732 335.003C13.1436 334.155 11.7627 333.731 9.93066 333.731H6.99805V329.794Z" fill="white"/>
<path d="M55.3145 336.131C55.3145 339.562 54.5352 342.304 52.9766 344.354C51.418 346.392 49.3262 347.41 46.7012 347.41C44.2676 347.41 42.3193 346.61 40.8564 345.011V355.531H35.873V324.811H40.4668L40.6719 327.066C42.1348 325.289 44.124 324.4 46.6396 324.4C49.3467 324.4 51.4658 325.412 52.9971 327.436C54.542 329.445 55.3145 332.241 55.3145 335.823V336.131ZM50.3516 335.7C50.3516 333.485 49.9072 331.729 49.0186 330.43C48.1436 329.131 46.8857 328.481 45.2451 328.481C43.208 328.481 41.7451 329.322 40.8564 331.004V340.848C41.7588 342.57 43.2354 343.432 45.2861 343.432C46.8721 343.432 48.1094 342.796 48.998 341.524C49.9004 340.239 50.3516 338.298 50.3516 335.7Z" fill="white"/>
<path d="M69.3213 347.41C66.1631 347.41 63.5996 346.419 61.6309 344.437C59.6758 342.44 58.6982 339.788 58.6982 336.479V335.864C58.6982 333.649 59.1221 331.674 59.9697 329.938C60.8311 328.188 62.0342 326.827 63.5791 325.856C65.124 324.886 66.8467 324.4 68.7471 324.4C71.7686 324.4 74.0996 325.364 75.7402 327.292C77.3945 329.22 78.2217 331.947 78.2217 335.475V337.484H63.7227C63.873 339.316 64.4814 340.766 65.5479 341.832C66.6279 342.898 67.9814 343.432 69.6084 343.432C71.8916 343.432 73.751 342.509 75.1865 340.663L77.873 343.227C76.9844 344.553 75.7949 345.585 74.3047 346.323C72.8281 347.048 71.167 347.41 69.3213 347.41ZM68.7266 328.399C67.3594 328.399 66.252 328.878 65.4043 329.835C64.5703 330.792 64.0371 332.125 63.8047 333.834H73.2998V333.465C73.1904 331.797 72.7461 330.539 71.9668 329.691C71.1875 328.83 70.1074 328.399 68.7266 328.399Z" fill="white"/>
<path d="M81.1748 335.7C81.1748 333.526 81.6055 331.571 82.4668 329.835C83.3281 328.085 84.5381 326.745 86.0967 325.815C87.6553 324.872 89.4463 324.4 91.4697 324.4C94.4639 324.4 96.8906 325.364 98.75 327.292C100.623 329.22 101.635 331.776 101.785 334.962L101.806 336.131C101.806 338.318 101.382 340.273 100.534 341.996C99.7002 343.719 98.4971 345.052 96.9248 345.995C95.3662 346.938 93.5615 347.41 91.5107 347.41C88.3799 347.41 85.8711 346.371 83.9844 344.293C82.1113 342.201 81.1748 339.419 81.1748 335.946V335.7ZM86.1582 336.131C86.1582 338.414 86.6299 340.205 87.5732 341.504C88.5166 342.789 89.8291 343.432 91.5107 343.432C93.1924 343.432 94.498 342.775 95.4277 341.463C96.3711 340.15 96.8428 338.229 96.8428 335.7C96.8428 333.458 96.3574 331.681 95.3867 330.368C94.4297 329.056 93.124 328.399 91.4697 328.399C89.8428 328.399 88.5508 329.049 87.5938 330.348C86.6367 331.633 86.1582 333.561 86.1582 336.131Z" fill="white"/>
<path d="M110.645 324.811L110.788 327.374C112.429 325.392 114.582 324.4 117.248 324.4C121.869 324.4 124.221 327.046 124.303 332.337V347H119.319V332.624C119.319 331.216 119.012 330.177 118.396 329.507C117.795 328.823 116.804 328.481 115.423 328.481C113.413 328.481 111.916 329.391 110.932 331.209V347H105.948V324.811H110.645Z" fill="white"/>
<path d="M139.171 347.41C136.013 347.41 133.449 346.419 131.48 344.437C129.525 342.44 128.548 339.788 128.548 336.479V335.864C128.548 333.649 128.972 331.674 129.819 329.938C130.681 328.188 131.884 326.827 133.429 325.856C134.974 324.886 136.696 324.4 138.597 324.4C141.618 324.4 143.949 325.364 145.59 327.292C147.244 329.22 148.071 331.947 148.071 335.475V337.484H133.572C133.723 339.316 134.331 340.766 135.397 341.832C136.478 342.898 137.831 343.432 139.458 343.432C141.741 343.432 143.601 342.509 145.036 340.663L147.723 343.227C146.834 344.553 145.645 345.585 144.154 346.323C142.678 347.048 141.017 347.41 139.171 347.41ZM138.576 328.399C137.209 328.399 136.102 328.878 135.254 329.835C134.42 330.792 133.887 332.125 133.654 333.834H143.149V333.465C143.04 331.797 142.596 330.539 141.816 329.691C141.037 328.83 139.957 328.399 138.576 328.399Z" fill="white"/>
<path d="M164.396 340.971C164.396 340.082 164.026 339.405 163.288 338.94C162.563 338.476 161.354 338.065 159.658 337.71C157.963 337.354 156.548 336.903 155.413 336.356C152.925 335.153 151.681 333.41 151.681 331.127C151.681 329.213 152.487 327.613 154.101 326.328C155.714 325.043 157.765 324.4 160.253 324.4C162.905 324.4 165.045 325.057 166.672 326.369C168.312 327.682 169.133 329.384 169.133 331.476H164.149C164.149 330.519 163.794 329.726 163.083 329.097C162.372 328.454 161.429 328.133 160.253 328.133C159.159 328.133 158.264 328.386 157.566 328.892C156.883 329.397 156.541 330.074 156.541 330.922C156.541 331.688 156.862 332.282 157.505 332.706C158.147 333.13 159.446 333.561 161.401 333.998C163.356 334.422 164.888 334.935 165.995 335.536C167.116 336.124 167.943 336.835 168.477 337.669C169.023 338.503 169.297 339.515 169.297 340.704C169.297 342.7 168.47 344.32 166.815 345.564C165.161 346.795 162.994 347.41 160.314 347.41C158.496 347.41 156.876 347.082 155.454 346.426C154.032 345.77 152.925 344.867 152.132 343.719C151.339 342.57 150.942 341.333 150.942 340.007H155.782C155.851 341.183 156.295 342.092 157.115 342.734C157.936 343.363 159.022 343.678 160.376 343.678C161.688 343.678 162.687 343.432 163.37 342.939C164.054 342.434 164.396 341.777 164.396 340.971Z" fill="white"/>
<path d="M191.876 339.863L196.388 324.811H201.699L192.881 350.363C191.527 354.096 189.23 355.962 185.99 355.962C185.266 355.962 184.466 355.839 183.591 355.593V351.737L184.534 351.799C185.792 351.799 186.735 351.566 187.364 351.102C188.007 350.65 188.513 349.885 188.882 348.805L189.6 346.897L181.807 324.811H187.18L191.876 339.863Z" fill="white"/>
<path d="M228.216 347H223.253V323.026L215.932 325.528V321.324L227.58 317.038H228.216V347Z" fill="white"/>
<path d="M255.614 319.417V324.811H259.531V328.502H255.614V340.889C255.614 341.736 255.778 342.352 256.106 342.734C256.448 343.104 257.05 343.288 257.911 343.288C258.485 343.288 259.066 343.22 259.654 343.083V346.938C258.52 347.253 257.426 347.41 256.373 347.41C252.545 347.41 250.631 345.298 250.631 341.073V328.502H246.98V324.811H250.631V319.417H255.614Z" fill="white"/>
<path d="M261.808 335.7C261.808 333.526 262.238 331.571 263.1 329.835C263.961 328.085 265.171 326.745 266.729 325.815C268.288 324.872 270.079 324.4 272.103 324.4C275.097 324.4 277.523 325.364 279.383 327.292C281.256 329.22 282.268 331.776 282.418 334.962L282.438 336.131C282.438 338.318 282.015 340.273 281.167 341.996C280.333 343.719 279.13 345.052 277.558 345.995C275.999 346.938 274.194 347.41 272.144 347.41C269.013 347.41 266.504 346.371 264.617 344.293C262.744 342.201 261.808 339.419 261.808 335.946V335.7ZM266.791 336.131C266.791 338.414 267.263 340.205 268.206 341.504C269.149 342.789 270.462 343.432 272.144 343.432C273.825 343.432 275.131 342.775 276.061 341.463C277.004 340.15 277.476 338.229 277.476 335.7C277.476 333.458 276.99 331.681 276.02 330.368C275.062 329.056 273.757 328.399 272.103 328.399C270.476 328.399 269.184 329.049 268.227 330.348C267.27 331.633 266.791 333.561 266.791 336.131Z" fill="white"/>
<path d="M298.271 329.363C297.614 329.254 296.938 329.199 296.24 329.199C293.957 329.199 292.419 330.074 291.626 331.824V347H286.643V324.811H291.4L291.523 327.292C292.727 325.364 294.395 324.4 296.527 324.4C297.238 324.4 297.826 324.496 298.291 324.688L298.271 329.363Z" fill="white"/>
<path d="M313.036 329.363C312.38 329.254 311.703 329.199 311.006 329.199C308.723 329.199 307.185 330.074 306.392 331.824V347H301.408V324.811H306.166L306.289 327.292C307.492 325.364 309.16 324.4 311.293 324.4C312.004 324.4 312.592 324.496 313.057 324.688L313.036 329.363Z" fill="white"/>
<path d="M325.546 347.41C322.388 347.41 319.824 346.419 317.855 344.437C315.9 342.44 314.923 339.788 314.923 336.479V335.864C314.923 333.649 315.347 331.674 316.194 329.938C317.056 328.188 318.259 326.827 319.804 325.856C321.349 324.886 323.071 324.4 324.972 324.4C327.993 324.4 330.324 325.364 331.965 327.292C333.619 329.22 334.446 331.947 334.446 335.475V337.484H319.947C320.098 339.316 320.706 340.766 321.772 341.832C322.853 342.898 324.206 343.432 325.833 343.432C328.116 343.432 329.976 342.509 331.411 340.663L334.098 343.227C333.209 344.553 332.02 345.585 330.529 346.323C329.053 347.048 327.392 347.41 325.546 347.41ZM324.951 328.399C323.584 328.399 322.477 328.878 321.629 329.835C320.795 330.792 320.262 332.125 320.029 333.834H329.524V333.465C329.415 331.797 328.971 330.539 328.191 329.691C327.412 328.83 326.332 328.399 324.951 328.399Z" fill="white"/>
<path d="M341.337 341.75C342.267 341.75 342.984 342.017 343.49 342.55C343.996 343.069 344.249 343.726 344.249 344.519C344.249 345.298 343.996 345.947 343.49 346.467C342.984 346.973 342.267 347.226 341.337 347.226C340.448 347.226 339.744 346.973 339.225 346.467C338.705 345.961 338.445 345.312 338.445 344.519C338.445 343.726 338.698 343.069 339.204 342.55C339.71 342.017 340.421 341.75 341.337 341.75ZM341.337 324.339C342.267 324.339 342.984 324.605 343.49 325.139C343.996 325.658 344.249 326.314 344.249 327.107C344.249 327.887 343.996 328.536 343.49 329.056C342.984 329.562 342.267 329.814 341.337 329.814C340.448 329.814 339.744 329.562 339.225 329.056C338.705 328.55 338.445 327.9 338.445 327.107C338.445 326.314 338.698 325.658 339.204 325.139C339.71 324.605 340.421 324.339 341.337 324.339Z" fill="white"/>
</g>
<g id="ecu-1">
<g id="tex_2">
<path d="M19.4873 427.67H7.22363V436.857H21.5586V441H2.03516V411.141H21.415V415.324H7.22363V423.568H19.4873V427.67Z" fill="white"/>
<path d="M29.9258 418.811L30.0693 421.374C31.71 419.392 33.8633 418.4 36.5293 418.4C41.1504 418.4 43.502 421.046 43.584 426.337V441H38.6006V426.624C38.6006 425.216 38.293 424.177 37.6777 423.507C37.0762 422.823 36.085 422.481 34.7041 422.481C32.6943 422.481 31.1973 423.391 30.2129 425.209V441H25.2295V418.811H29.9258Z" fill="white"/>
<path d="M54.9248 413.417V418.811H58.8418V422.502H54.9248V434.889C54.9248 435.736 55.0889 436.352 55.417 436.734C55.7588 437.104 56.3604 437.288 57.2217 437.288C57.7959 437.288 58.377 437.22 58.9648 437.083V440.938C57.8301 441.253 56.7363 441.41 55.6836 441.41C51.8555 441.41 49.9414 439.298 49.9414 435.073V422.502H46.291V418.811H49.9414V413.417H54.9248Z" fill="white"/>
<path d="M61.1182 429.7C61.1182 427.526 61.5488 425.571 62.4102 423.835C63.2715 422.085 64.4814 420.745 66.04 419.815C67.5986 418.872 69.3896 418.4 71.4131 418.4C74.4072 418.4 76.834 419.364 78.6934 421.292C80.5664 423.22 81.5781 425.776 81.7285 428.962L81.749 430.131C81.749 432.318 81.3252 434.273 80.4775 435.996C79.6436 437.719 78.4404 439.052 76.8682 439.995C75.3096 440.938 73.5049 441.41 71.4541 441.41C68.3232 441.41 65.8145 440.371 63.9277 438.293C62.0547 436.201 61.1182 433.419 61.1182 429.946V429.7ZM66.1016 430.131C66.1016 432.414 66.5732 434.205 67.5166 435.504C68.46 436.789 69.7725 437.432 71.4541 437.432C73.1357 437.432 74.4414 436.775 75.3711 435.463C76.3145 434.15 76.7861 432.229 76.7861 429.7C76.7861 427.458 76.3008 425.681 75.3301 424.368C74.373 423.056 73.0674 422.399 71.4131 422.399C69.7861 422.399 68.4941 423.049 67.5371 424.348C66.5801 425.633 66.1016 427.561 66.1016 430.131Z" fill="white"/>
<path d="M90.5879 418.811L90.7314 421.374C92.3721 419.392 94.5254 418.4 97.1914 418.4C101.812 418.4 104.164 421.046 104.246 426.337V441H99.2627V426.624C99.2627 425.216 98.9551 424.177 98.3398 423.507C97.7383 422.823 96.7471 422.481 95.3662 422.481C93.3564 422.481 91.8594 423.391 90.875 425.209V441H85.8916V418.811H90.5879Z" fill="white"/>
<path d="M118.458 437.432C119.702 437.432 120.734 437.069 121.555 436.345C122.375 435.62 122.812 434.725 122.867 433.658H127.563C127.509 435.039 127.078 436.331 126.271 437.534C125.465 438.724 124.371 439.667 122.99 440.364C121.609 441.062 120.119 441.41 118.52 441.41C115.416 441.41 112.955 440.405 111.137 438.396C109.318 436.386 108.409 433.61 108.409 430.069V429.557C108.409 426.18 109.312 423.479 111.116 421.456C112.921 419.419 115.382 418.4 118.499 418.4C121.138 418.4 123.284 419.173 124.938 420.718C126.606 422.249 127.481 424.266 127.563 426.768H122.867C122.812 425.496 122.375 424.45 121.555 423.63C120.748 422.81 119.716 422.399 118.458 422.399C116.845 422.399 115.601 422.987 114.726 424.163C113.851 425.325 113.406 427.096 113.393 429.475V430.274C113.393 432.681 113.823 434.479 114.685 435.668C115.56 436.844 116.817 437.432 118.458 437.432Z" fill="white"/>
<path d="M141.099 441.41C137.94 441.41 135.377 440.419 133.408 438.437C131.453 436.44 130.476 433.788 130.476 430.479V429.864C130.476 427.649 130.899 425.674 131.747 423.938C132.608 422.188 133.812 420.827 135.356 419.856C136.901 418.886 138.624 418.4 140.524 418.4C143.546 418.4 145.877 419.364 147.518 421.292C149.172 423.22 149.999 425.947 149.999 429.475V431.484H135.5C135.65 433.316 136.259 434.766 137.325 435.832C138.405 436.898 139.759 437.432 141.386 437.432C143.669 437.432 145.528 436.509 146.964 434.663L149.65 437.227C148.762 438.553 147.572 439.585 146.082 440.323C144.605 441.048 142.944 441.41 141.099 441.41ZM140.504 422.399C139.137 422.399 138.029 422.878 137.182 423.835C136.348 424.792 135.814 426.125 135.582 427.834H145.077V427.465C144.968 425.797 144.523 424.539 143.744 423.691C142.965 422.83 141.885 422.399 140.504 422.399Z" fill="white"/>
<path d="M166.323 434.971C166.323 434.082 165.954 433.405 165.216 432.94C164.491 432.476 163.281 432.065 161.586 431.71C159.891 431.354 158.476 430.903 157.341 430.356C154.853 429.153 153.608 427.41 153.608 425.127C153.608 423.213 154.415 421.613 156.028 420.328C157.642 419.043 159.692 418.4 162.181 418.4C164.833 418.4 166.973 419.057 168.6 420.369C170.24 421.682 171.061 423.384 171.061 425.476H166.077C166.077 424.519 165.722 423.726 165.011 423.097C164.3 422.454 163.356 422.133 162.181 422.133C161.087 422.133 160.191 422.386 159.494 422.892C158.811 423.397 158.469 424.074 158.469 424.922C158.469 425.688 158.79 426.282 159.433 426.706C160.075 427.13 161.374 427.561 163.329 427.998C165.284 428.422 166.815 428.935 167.923 429.536C169.044 430.124 169.871 430.835 170.404 431.669C170.951 432.503 171.225 433.515 171.225 434.704C171.225 436.7 170.397 438.32 168.743 439.564C167.089 440.795 164.922 441.41 162.242 441.41C160.424 441.41 158.804 441.082 157.382 440.426C155.96 439.77 154.853 438.867 154.06 437.719C153.267 436.57 152.87 435.333 152.87 434.007H157.71C157.778 435.183 158.223 436.092 159.043 436.734C159.863 437.363 160.95 437.678 162.304 437.678C163.616 437.678 164.614 437.432 165.298 436.939C165.981 436.434 166.323 435.777 166.323 434.971Z" fill="white"/>
<path d="M195.813 441.41C192.655 441.41 190.092 440.419 188.123 438.437C186.168 436.44 185.19 433.788 185.19 430.479V429.864C185.19 427.649 185.614 425.674 186.462 423.938C187.323 422.188 188.526 420.827 190.071 419.856C191.616 418.886 193.339 418.4 195.239 418.4C198.261 418.4 200.592 419.364 202.232 421.292C203.887 423.22 204.714 425.947 204.714 429.475V431.484H190.215C190.365 433.316 190.974 434.766 192.04 435.832C193.12 436.898 194.474 437.432 196.101 437.432C198.384 437.432 200.243 436.509 201.679 434.663L204.365 437.227C203.477 438.553 202.287 439.585 200.797 440.323C199.32 441.048 197.659 441.41 195.813 441.41ZM195.219 422.399C193.852 422.399 192.744 422.878 191.896 423.835C191.062 424.792 190.529 426.125 190.297 427.834H199.792V427.465C199.683 425.797 199.238 424.539 198.459 423.691C197.68 422.83 196.6 422.399 195.219 422.399Z" fill="white"/>
<path d="M216.567 426.111L220.792 418.811H226.329L219.541 429.741L226.555 441H221.059L216.629 433.412L212.22 441H206.683L213.696 429.741L206.929 418.811H212.425L216.567 426.111Z" fill="white"/>
<path d="M235.968 413.417V418.811H239.885V422.502H235.968V434.889C235.968 435.736 236.132 436.352 236.46 436.734C236.802 437.104 237.403 437.288 238.265 437.288C238.839 437.288 239.42 437.22 240.008 437.083V440.938C238.873 441.253 237.779 441.41 236.727 441.41C232.898 441.41 230.984 439.298 230.984 435.073V422.502H227.334V418.811H230.984V413.417H235.968Z" fill="white"/>
<path d="M255.327 423.363C254.671 423.254 253.994 423.199 253.297 423.199C251.014 423.199 249.476 424.074 248.683 425.824V441H243.699V418.811H248.457L248.58 421.292C249.783 419.364 251.451 418.4 253.584 418.4C254.295 418.4 254.883 418.496 255.348 418.688L255.327 423.363Z" fill="white"/>
<path d="M271.118 441C270.899 440.576 270.708 439.886 270.544 438.929C268.958 440.583 267.017 441.41 264.72 441.41C262.491 441.41 260.673 440.774 259.265 439.503C257.856 438.231 257.152 436.659 257.152 434.786C257.152 432.421 258.027 430.609 259.777 429.352C261.541 428.08 264.057 427.444 267.324 427.444H270.38V425.988C270.38 424.84 270.059 423.924 269.416 423.24C268.773 422.543 267.796 422.194 266.483 422.194C265.349 422.194 264.419 422.481 263.694 423.056C262.97 423.616 262.607 424.334 262.607 425.209H257.624C257.624 423.992 258.027 422.857 258.834 421.805C259.641 420.738 260.734 419.904 262.115 419.303C263.51 418.701 265.062 418.4 266.771 418.4C269.368 418.4 271.439 419.057 272.984 420.369C274.529 421.668 275.322 423.5 275.363 425.865V435.873C275.363 437.869 275.644 439.462 276.204 440.651V441H271.118ZM265.643 437.411C266.627 437.411 267.55 437.172 268.411 436.693C269.286 436.215 269.942 435.572 270.38 434.766V430.582H267.693C265.848 430.582 264.46 430.903 263.53 431.546C262.601 432.188 262.136 433.098 262.136 434.273C262.136 435.23 262.45 435.996 263.079 436.57C263.722 437.131 264.576 437.411 265.643 437.411Z" fill="white"/>
<path d="M290.354 441.41C287.196 441.41 284.633 440.419 282.664 438.437C280.709 436.44 279.731 433.788 279.731 430.479V429.864C279.731 427.649 280.155 425.674 281.003 423.938C281.864 422.188 283.067 420.827 284.612 419.856C286.157 418.886 287.88 418.4 289.78 418.4C292.802 418.4 295.133 419.364 296.773 421.292C298.428 423.22 299.255 425.947 299.255 429.475V431.484H284.756C284.906 433.316 285.515 434.766 286.581 435.832C287.661 436.898 289.015 437.432 290.642 437.432C292.925 437.432 294.784 436.509 296.22 434.663L298.906 437.227C298.018 438.553 296.828 439.585 295.338 440.323C293.861 441.048 292.2 441.41 290.354 441.41ZM289.76 422.399C288.393 422.399 287.285 422.878 286.438 423.835C285.604 424.792 285.07 426.125 284.838 427.834H294.333V427.465C294.224 425.797 293.779 424.539 293 423.691C292.221 422.83 291.141 422.399 289.76 422.399Z" fill="white"/>
<path d="M307.827 418.811L307.971 421.128C309.529 419.31 311.662 418.4 314.369 418.4C317.336 418.4 319.366 419.535 320.46 421.805C322.073 419.535 324.343 418.4 327.269 418.4C329.716 418.4 331.534 419.077 332.724 420.431C333.927 421.784 334.542 423.78 334.569 426.419V441H329.586V426.562C329.586 425.154 329.278 424.122 328.663 423.466C328.048 422.81 327.029 422.481 325.607 422.481C324.473 422.481 323.543 422.789 322.818 423.404C322.107 424.006 321.608 424.799 321.321 425.783L321.342 441H316.358V426.398C316.29 423.787 314.957 422.481 312.359 422.481C310.363 422.481 308.948 423.295 308.114 424.922V441H303.131V418.811H307.827Z" fill="white"/>
<path d="M338.753 429.7C338.753 427.526 339.184 425.571 340.045 423.835C340.906 422.085 342.116 420.745 343.675 419.815C345.233 418.872 347.024 418.4 349.048 418.4C352.042 418.4 354.469 419.364 356.328 421.292C358.201 423.22 359.213 425.776 359.363 428.962L359.384 430.131C359.384 432.318 358.96 434.273 358.112 435.996C357.278 437.719 356.075 439.052 354.503 439.995C352.944 440.938 351.14 441.41 349.089 441.41C345.958 441.41 343.449 440.371 341.562 438.293C339.689 436.201 338.753 433.419 338.753 429.946V429.7ZM343.736 430.131C343.736 432.414 344.208 434.205 345.151 435.504C346.095 436.789 347.407 437.432 349.089 437.432C350.771 437.432 352.076 436.775 353.006 435.463C353.949 434.15 354.421 432.229 354.421 429.7C354.421 427.458 353.936 425.681 352.965 424.368C352.008 423.056 350.702 422.399 349.048 422.399C347.421 422.399 346.129 423.049 345.172 424.348C344.215 425.633 343.736 427.561 343.736 430.131Z" fill="white"/>
<path d="M376.036 434.971C376.036 434.082 375.667 433.405 374.929 432.94C374.204 432.476 372.994 432.065 371.299 431.71C369.604 431.354 368.188 430.903 367.054 430.356C364.565 429.153 363.321 427.41 363.321 425.127C363.321 423.213 364.128 421.613 365.741 420.328C367.354 419.043 369.405 418.4 371.894 418.4C374.546 418.4 376.686 419.057 378.312 420.369C379.953 421.682 380.773 423.384 380.773 425.476H375.79C375.79 424.519 375.435 423.726 374.724 423.097C374.013 422.454 373.069 422.133 371.894 422.133C370.8 422.133 369.904 422.386 369.207 422.892C368.523 423.397 368.182 424.074 368.182 424.922C368.182 425.688 368.503 426.282 369.146 426.706C369.788 427.13 371.087 427.561 373.042 427.998C374.997 428.422 376.528 428.935 377.636 429.536C378.757 430.124 379.584 430.835 380.117 431.669C380.664 432.503 380.938 433.515 380.938 434.704C380.938 436.7 380.11 438.32 378.456 439.564C376.802 440.795 374.635 441.41 371.955 441.41C370.137 441.41 368.517 441.082 367.095 440.426C365.673 439.77 364.565 438.867 363.772 437.719C362.979 436.57 362.583 435.333 362.583 434.007H367.423C367.491 435.183 367.936 436.092 368.756 436.734C369.576 437.363 370.663 437.678 372.017 437.678C373.329 437.678 374.327 437.432 375.011 436.939C375.694 436.434 376.036 435.777 376.036 434.971Z" fill="white"/>
<path d="M388.3 435.75C389.229 435.75 389.947 436.017 390.453 436.55C390.959 437.069 391.212 437.726 391.212 438.519C391.212 439.298 390.959 439.947 390.453 440.467C389.947 440.973 389.229 441.226 388.3 441.226C387.411 441.226 386.707 440.973 386.188 440.467C385.668 439.961 385.408 439.312 385.408 438.519C385.408 437.726 385.661 437.069 386.167 436.55C386.673 436.017 387.384 435.75 388.3 435.75ZM388.3 418.339C389.229 418.339 389.947 418.605 390.453 419.139C390.959 419.658 391.212 420.314 391.212 421.107C391.212 421.887 390.959 422.536 390.453 423.056C389.947 423.562 389.229 423.814 388.3 423.814C387.411 423.814 386.707 423.562 386.188 423.056C385.668 422.55 385.408 421.9 385.408 421.107C385.408 420.314 385.661 419.658 386.167 419.139C386.673 418.605 387.384 418.339 388.3 418.339Z" fill="white"/>
</g>
<g id="tex-1">
<path d="M88.0928 508.356H91.8047V512.355H88.0928V519H83.1094V512.355H70.21L70.0664 509.32L82.9453 489.141H88.0928V508.356ZM75.2959 508.356H83.1094V495.888L82.7402 496.544L75.2959 508.356Z" fill="white"/>
<path d="M119.142 519C118.923 518.576 118.731 517.886 118.567 516.929C116.981 518.583 115.04 519.41 112.743 519.41C110.515 519.41 108.696 518.774 107.288 517.503C105.88 516.231 105.176 514.659 105.176 512.786C105.176 510.421 106.051 508.609 107.801 507.352C109.564 506.08 112.08 505.444 115.348 505.444H118.403V503.988C118.403 502.84 118.082 501.924 117.439 501.24C116.797 500.543 115.819 500.194 114.507 500.194C113.372 500.194 112.442 500.481 111.718 501.056C110.993 501.616 110.631 502.334 110.631 503.209H105.647C105.647 501.992 106.051 500.857 106.857 499.805C107.664 498.738 108.758 497.904 110.139 497.303C111.533 496.701 113.085 496.4 114.794 496.4C117.392 496.4 119.463 497.057 121.008 498.369C122.553 499.668 123.346 501.5 123.387 503.865V513.873C123.387 515.869 123.667 517.462 124.228 518.651V519H119.142ZM113.666 515.411C114.65 515.411 115.573 515.172 116.435 514.693C117.31 514.215 117.966 513.572 118.403 512.766V508.582H115.717C113.871 508.582 112.483 508.903 111.554 509.546C110.624 510.188 110.159 511.098 110.159 512.273C110.159 513.23 110.474 513.996 111.103 514.57C111.745 515.131 112.6 515.411 113.666 515.411Z" fill="white"/>
<path d="M133.907 519H128.924V487.5H133.907V519Z" fill="white"/>
<path d="M140.675 519V500.502H137.291V496.811H140.675V495.293C140.688 493.557 141.058 492.066 141.782 490.822C142.507 489.578 143.532 488.642 144.858 488.013C146.185 487.384 147.777 487.069 149.637 487.069C150.73 487.069 151.776 487.186 152.774 487.418C153.786 487.65 154.832 487.944 155.912 488.3L155.153 492.422C153.267 491.766 151.544 491.438 149.985 491.438C148.468 491.438 147.367 491.772 146.684 492.442C146 493.099 145.658 494.09 145.658 495.416V496.811H150.026V500.502H145.658V519H140.675ZM158.271 519H153.287V496.811H158.271V519Z" fill="white"/>
<path d="M169.099 519H164.115V487.5H169.099V519Z" fill="white"/>
<path d="M184.315 519.41C181.157 519.41 178.594 518.419 176.625 516.437C174.67 514.44 173.692 511.788 173.692 508.479V507.864C173.692 505.649 174.116 503.674 174.964 501.938C175.825 500.188 177.028 498.827 178.573 497.856C180.118 496.886 181.841 496.4 183.741 496.4C186.763 496.4 189.094 497.364 190.734 499.292C192.389 501.22 193.216 503.947 193.216 507.475V509.484H178.717C178.867 511.316 179.476 512.766 180.542 513.832C181.622 514.898 182.976 515.432 184.603 515.432C186.886 515.432 188.745 514.509 190.181 512.663L192.867 515.227C191.979 516.553 190.789 517.585 189.299 518.323C187.822 519.048 186.161 519.41 184.315 519.41ZM183.721 500.399C182.354 500.399 181.246 500.878 180.398 501.835C179.564 502.792 179.031 504.125 178.799 505.834H188.294V505.465C188.185 503.797 187.74 502.539 186.961 501.691C186.182 500.83 185.102 500.399 183.721 500.399Z" fill="white"/>
<path d="M209.54 512.971C209.54 512.082 209.171 511.405 208.433 510.94C207.708 510.476 206.498 510.065 204.803 509.71C203.107 509.354 201.692 508.903 200.558 508.356C198.069 507.153 196.825 505.41 196.825 503.127C196.825 501.213 197.632 499.613 199.245 498.328C200.858 497.043 202.909 496.4 205.397 496.4C208.05 496.4 210.189 497.057 211.816 498.369C213.457 499.682 214.277 501.384 214.277 503.476H209.294C209.294 502.519 208.938 501.726 208.228 501.097C207.517 500.454 206.573 500.133 205.397 500.133C204.304 500.133 203.408 500.386 202.711 500.892C202.027 501.397 201.686 502.074 201.686 502.922C201.686 503.688 202.007 504.282 202.649 504.706C203.292 505.13 204.591 505.561 206.546 505.998C208.501 506.422 210.032 506.935 211.14 507.536C212.261 508.124 213.088 508.835 213.621 509.669C214.168 510.503 214.441 511.515 214.441 512.704C214.441 514.7 213.614 516.32 211.96 517.564C210.306 518.795 208.139 519.41 205.459 519.41C203.641 519.41 202.021 519.082 200.599 518.426C199.177 517.77 198.069 516.867 197.276 515.719C196.483 514.57 196.087 513.333 196.087 512.007H200.927C200.995 513.183 201.439 514.092 202.26 514.734C203.08 515.363 204.167 515.678 205.521 515.678C206.833 515.678 207.831 515.432 208.515 514.939C209.198 514.434 209.54 513.777 209.54 512.971Z" fill="white"/>
<path d="M240.773 502.573H248.566V507.126H240.773V516.006H235.934V507.126H228.1V502.573H235.934V494.268H240.773V502.573Z" fill="white"/>
<path d="M279.677 508.356H283.389V512.355H279.677V519H274.693V512.355H261.794L261.65 509.32L274.529 489.141H279.677V508.356ZM266.88 508.356H274.693V495.888L274.324 496.544L266.88 508.356Z" fill="white"/>
<path d="M306.583 515.432C307.827 515.432 308.859 515.069 309.68 514.345C310.5 513.62 310.938 512.725 310.992 511.658H315.688C315.634 513.039 315.203 514.331 314.396 515.534C313.59 516.724 312.496 517.667 311.115 518.364C309.734 519.062 308.244 519.41 306.645 519.41C303.541 519.41 301.08 518.405 299.262 516.396C297.443 514.386 296.534 511.61 296.534 508.069V507.557C296.534 504.18 297.437 501.479 299.241 499.456C301.046 497.419 303.507 496.4 306.624 496.4C309.263 496.4 311.409 497.173 313.063 498.718C314.731 500.249 315.606 502.266 315.688 504.768H310.992C310.938 503.496 310.5 502.45 309.68 501.63C308.873 500.81 307.841 500.399 306.583 500.399C304.97 500.399 303.726 500.987 302.851 502.163C301.976 503.325 301.531 505.096 301.518 507.475V508.274C301.518 510.681 301.948 512.479 302.81 513.668C303.685 514.844 304.942 515.432 306.583 515.432Z" fill="white"/>
<path d="M332.71 519C332.491 518.576 332.3 517.886 332.136 516.929C330.55 518.583 328.608 519.41 326.312 519.41C324.083 519.41 322.265 518.774 320.856 517.503C319.448 516.231 318.744 514.659 318.744 512.786C318.744 510.421 319.619 508.609 321.369 507.352C323.133 506.08 325.648 505.444 328.916 505.444H331.972V503.988C331.972 502.84 331.65 501.924 331.008 501.24C330.365 500.543 329.388 500.194 328.075 500.194C326.94 500.194 326.011 500.481 325.286 501.056C324.562 501.616 324.199 502.334 324.199 503.209H319.216C319.216 501.992 319.619 500.857 320.426 499.805C321.232 498.738 322.326 497.904 323.707 497.303C325.102 496.701 326.653 496.4 328.362 496.4C330.96 496.4 333.031 497.057 334.576 498.369C336.121 499.668 336.914 501.5 336.955 503.865V513.873C336.955 515.869 337.235 517.462 337.796 518.651V519H332.71ZM327.234 515.411C328.219 515.411 329.142 515.172 330.003 514.693C330.878 514.215 331.534 513.572 331.972 512.766V508.582H329.285C327.439 508.582 326.052 508.903 325.122 509.546C324.192 510.188 323.728 511.098 323.728 512.273C323.728 513.23 324.042 513.996 324.671 514.57C325.313 515.131 326.168 515.411 327.234 515.411Z" fill="white"/>
<path d="M361.646 508.131C361.646 511.576 360.874 514.317 359.329 516.354C357.798 518.392 355.686 519.41 352.992 519.41C350.395 519.41 348.371 518.474 346.922 516.601L346.676 519H342.164V487.5H347.147V498.943C348.583 497.248 350.518 496.4 352.951 496.4C355.658 496.4 357.784 497.405 359.329 499.415C360.874 501.425 361.646 504.234 361.646 507.844V508.131ZM356.663 507.7C356.663 505.294 356.239 503.489 355.392 502.286C354.544 501.083 353.313 500.481 351.7 500.481C349.54 500.481 348.022 501.425 347.147 503.312V512.458C348.036 514.386 349.567 515.35 351.741 515.35C353.3 515.35 354.503 514.769 355.351 513.606C356.198 512.444 356.636 510.688 356.663 508.336V507.7Z" fill="white"/>
<path d="M379.099 519C378.88 518.576 378.688 517.886 378.524 516.929C376.938 518.583 374.997 519.41 372.7 519.41C370.472 519.41 368.653 518.774 367.245 517.503C365.837 516.231 365.133 514.659 365.133 512.786C365.133 510.421 366.008 508.609 367.758 507.352C369.521 506.08 372.037 505.444 375.305 505.444H378.36V503.988C378.36 502.84 378.039 501.924 377.396 501.24C376.754 500.543 375.776 500.194 374.464 500.194C373.329 500.194 372.399 500.481 371.675 501.056C370.95 501.616 370.588 502.334 370.588 503.209H365.604C365.604 501.992 366.008 500.857 366.814 499.805C367.621 498.738 368.715 497.904 370.096 497.303C371.49 496.701 373.042 496.4 374.751 496.4C377.349 496.4 379.42 497.057 380.965 498.369C382.51 499.668 383.303 501.5 383.344 503.865V513.873C383.344 515.869 383.624 517.462 384.185 518.651V519H379.099ZM373.623 515.411C374.607 515.411 375.53 515.172 376.392 514.693C377.267 514.215 377.923 513.572 378.36 512.766V508.582H375.674C373.828 508.582 372.44 508.903 371.511 509.546C370.581 510.188 370.116 511.098 370.116 512.273C370.116 513.23 370.431 513.996 371.06 514.57C371.702 515.131 372.557 515.411 373.623 515.411Z" fill="white"/>
<path d="M393.864 519H388.881V487.5H393.864V519Z" fill="white"/>
<path d="M404.61 519H399.627V487.5H404.61V519Z" fill="white"/>
<path d="M409.122 507.7C409.122 505.526 409.553 503.571 410.414 501.835C411.275 500.085 412.485 498.745 414.044 497.815C415.603 496.872 417.394 496.4 419.417 496.4C422.411 496.4 424.838 497.364 426.697 499.292C428.57 501.22 429.582 503.776 429.732 506.962L429.753 508.131C429.753 510.318 429.329 512.273 428.481 513.996C427.647 515.719 426.444 517.052 424.872 517.995C423.313 518.938 421.509 519.41 419.458 519.41C416.327 519.41 413.818 518.371 411.932 516.293C410.059 514.201 409.122 511.419 409.122 507.946V507.7ZM414.105 508.131C414.105 510.414 414.577 512.205 415.521 513.504C416.464 514.789 417.776 515.432 419.458 515.432C421.14 515.432 422.445 514.775 423.375 513.463C424.318 512.15 424.79 510.229 424.79 507.7C424.79 505.458 424.305 503.681 423.334 502.368C422.377 501.056 421.071 500.399 419.417 500.399C417.79 500.399 416.498 501.049 415.541 502.348C414.584 503.633 414.105 505.561 414.105 508.131Z" fill="white"/>
<path d="M446.405 512.971C446.405 512.082 446.036 511.405 445.298 510.94C444.573 510.476 443.363 510.065 441.668 509.71C439.973 509.354 438.558 508.903 437.423 508.356C434.935 507.153 433.69 505.41 433.69 503.127C433.69 501.213 434.497 499.613 436.11 498.328C437.724 497.043 439.774 496.4 442.263 496.4C444.915 496.4 447.055 497.057 448.682 498.369C450.322 499.682 451.143 501.384 451.143 503.476H446.159C446.159 502.519 445.804 501.726 445.093 501.097C444.382 500.454 443.438 500.133 442.263 500.133C441.169 500.133 440.273 500.386 439.576 500.892C438.893 501.397 438.551 502.074 438.551 502.922C438.551 503.688 438.872 504.282 439.515 504.706C440.157 505.13 441.456 505.561 443.411 505.998C445.366 506.422 446.897 506.935 448.005 507.536C449.126 508.124 449.953 508.835 450.486 509.669C451.033 510.503 451.307 511.515 451.307 512.704C451.307 514.7 450.479 516.32 448.825 517.564C447.171 518.795 445.004 519.41 442.324 519.41C440.506 519.41 438.886 519.082 437.464 518.426C436.042 517.77 434.935 516.867 434.142 515.719C433.349 514.57 432.952 513.333 432.952 512.007H437.792C437.86 513.183 438.305 514.092 439.125 514.734C439.945 515.363 441.032 515.678 442.386 515.678C443.698 515.678 444.696 515.432 445.38 514.939C446.063 514.434 446.405 513.777 446.405 512.971Z" fill="white"/>
<path d="M477.639 502.573H485.432V507.126H477.639V516.006H472.799V507.126H464.965V502.573H472.799V494.268H477.639V502.573Z" fill="white"/>
<path d="M513.179 519H508.216V495.026L500.895 497.528V493.324L512.543 489.038H513.179V519Z" fill="white"/>
<path d="M539.06 488.997V493.119H538.444C535.655 493.16 533.427 493.926 531.759 495.416C530.091 496.906 529.1 499.019 528.785 501.753C530.385 500.071 532.429 499.23 534.917 499.23C537.556 499.23 539.634 500.16 541.151 502.02C542.683 503.879 543.448 506.278 543.448 509.218C543.448 512.253 542.553 514.714 540.762 516.601C538.984 518.474 536.646 519.41 533.748 519.41C530.768 519.41 528.348 518.31 526.488 516.108C524.643 513.907 523.72 511.022 523.72 507.454V505.752C523.72 500.516 524.991 496.414 527.534 493.447C530.091 490.48 533.762 488.997 538.547 488.997H539.06ZM533.707 503.25C532.613 503.25 531.608 503.558 530.692 504.173C529.79 504.788 529.127 505.608 528.703 506.634V508.151C528.703 510.366 529.168 512.13 530.098 513.442C531.027 514.741 532.23 515.391 533.707 515.391C535.184 515.391 536.353 514.837 537.214 513.729C538.075 512.622 538.506 511.166 538.506 509.361C538.506 507.557 538.068 506.087 537.193 504.952C536.318 503.817 535.156 503.25 533.707 503.25Z" fill="white"/>
<path d="M577.635 508.131C577.635 511.562 576.855 514.304 575.297 516.354C573.738 518.392 571.646 519.41 569.021 519.41C566.588 519.41 564.64 518.61 563.177 517.011V527.531H558.193V496.811H562.787L562.992 499.066C564.455 497.289 566.444 496.4 568.96 496.4C571.667 496.4 573.786 497.412 575.317 499.436C576.862 501.445 577.635 504.241 577.635 507.823V508.131ZM572.672 507.7C572.672 505.485 572.228 503.729 571.339 502.43C570.464 501.131 569.206 500.481 567.565 500.481C565.528 500.481 564.065 501.322 563.177 503.004V512.848C564.079 514.57 565.556 515.432 567.606 515.432C569.192 515.432 570.43 514.796 571.318 513.524C572.221 512.239 572.672 510.298 572.672 507.7Z" fill="white"/>
<path d="M591.642 519.41C588.483 519.41 585.92 518.419 583.951 516.437C581.996 514.44 581.019 511.788 581.019 508.479V507.864C581.019 505.649 581.442 503.674 582.29 501.938C583.151 500.188 584.354 498.827 585.899 497.856C587.444 496.886 589.167 496.4 591.067 496.4C594.089 496.4 596.42 497.364 598.061 499.292C599.715 501.22 600.542 503.947 600.542 507.475V509.484H586.043C586.193 511.316 586.802 512.766 587.868 513.832C588.948 514.898 590.302 515.432 591.929 515.432C594.212 515.432 596.071 514.509 597.507 512.663L600.193 515.227C599.305 516.553 598.115 517.585 596.625 518.323C595.148 519.048 593.487 519.41 591.642 519.41ZM591.047 500.399C589.68 500.399 588.572 500.878 587.725 501.835C586.891 502.792 586.357 504.125 586.125 505.834H595.62V505.465C595.511 503.797 595.066 502.539 594.287 501.691C593.508 500.83 592.428 500.399 591.047 500.399Z" fill="white"/>
<path d="M603.495 507.7C603.495 505.526 603.926 503.571 604.787 501.835C605.648 500.085 606.858 498.745 608.417 497.815C609.976 496.872 611.767 496.4 613.79 496.4C616.784 496.4 619.211 497.364 621.07 499.292C622.943 501.22 623.955 503.776 624.105 506.962L624.126 508.131C624.126 510.318 623.702 512.273 622.854 513.996C622.021 515.719 620.817 517.052 619.245 517.995C617.687 518.938 615.882 519.41 613.831 519.41C610.7 519.41 608.191 518.371 606.305 516.293C604.432 514.201 603.495 511.419 603.495 507.946V507.7ZM608.479 508.131C608.479 510.414 608.95 512.205 609.894 513.504C610.837 514.789 612.149 515.432 613.831 515.432C615.513 515.432 616.818 514.775 617.748 513.463C618.691 512.15 619.163 510.229 619.163 507.7C619.163 505.458 618.678 503.681 617.707 502.368C616.75 501.056 615.444 500.399 613.79 500.399C612.163 500.399 610.871 501.049 609.914 502.348C608.957 503.633 608.479 505.561 608.479 508.131Z" fill="white"/>
<path d="M632.965 496.811L633.108 499.374C634.749 497.392 636.902 496.4 639.568 496.4C644.189 496.4 646.541 499.046 646.623 504.337V519H641.64V504.624C641.64 503.216 641.332 502.177 640.717 501.507C640.115 500.823 639.124 500.481 637.743 500.481C635.733 500.481 634.236 501.391 633.252 503.209V519H628.269V496.811H632.965Z" fill="white"/>
<path d="M661.491 519.41C658.333 519.41 655.77 518.419 653.801 516.437C651.846 514.44 650.868 511.788 650.868 508.479V507.864C650.868 505.649 651.292 503.674 652.14 501.938C653.001 500.188 654.204 498.827 655.749 497.856C657.294 496.886 659.017 496.4 660.917 496.4C663.938 496.4 666.27 497.364 667.91 499.292C669.564 501.22 670.392 503.947 670.392 507.475V509.484H655.893C656.043 511.316 656.651 512.766 657.718 513.832C658.798 514.898 660.151 515.432 661.778 515.432C664.062 515.432 665.921 514.509 667.356 512.663L670.043 515.227C669.154 516.553 667.965 517.585 666.475 518.323C664.998 519.048 663.337 519.41 661.491 519.41ZM660.896 500.399C659.529 500.399 658.422 500.878 657.574 501.835C656.74 502.792 656.207 504.125 655.975 505.834H665.47V505.465C665.36 503.797 664.916 502.539 664.137 501.691C663.357 500.83 662.277 500.399 660.896 500.399Z" fill="white"/>
<path d="M686.716 512.971C686.716 512.082 686.347 511.405 685.608 510.94C684.884 510.476 683.674 510.065 681.979 509.71C680.283 509.354 678.868 508.903 677.733 508.356C675.245 507.153 674.001 505.41 674.001 503.127C674.001 501.213 674.808 499.613 676.421 498.328C678.034 497.043 680.085 496.4 682.573 496.4C685.226 496.4 687.365 497.057 688.992 498.369C690.633 499.682 691.453 501.384 691.453 503.476H686.47C686.47 502.519 686.114 501.726 685.403 501.097C684.692 500.454 683.749 500.133 682.573 500.133C681.479 500.133 680.584 500.386 679.887 500.892C679.203 501.397 678.861 502.074 678.861 502.922C678.861 503.688 679.183 504.282 679.825 504.706C680.468 505.13 681.767 505.561 683.722 505.998C685.677 506.422 687.208 506.935 688.315 507.536C689.437 508.124 690.264 508.835 690.797 509.669C691.344 510.503 691.617 511.515 691.617 512.704C691.617 514.7 690.79 516.32 689.136 517.564C687.481 518.795 685.314 519.41 682.635 519.41C680.816 519.41 679.196 519.082 677.774 518.426C676.353 517.77 675.245 516.867 674.452 515.719C673.659 514.57 673.263 513.333 673.263 512.007H678.103C678.171 513.183 678.615 514.092 679.436 514.734C680.256 515.363 681.343 515.678 682.696 515.678C684.009 515.678 685.007 515.432 685.69 514.939C686.374 514.434 686.716 513.777 686.716 512.971Z" fill="white"/>
<path d="M93.5273 551.573H101.32V556.126H93.5273V565.006H88.6875V556.126H80.8535V551.573H88.6875V543.268H93.5273V551.573Z" fill="white"/>
<path d="M129.067 568H124.104V544.026L116.783 546.528V542.324L128.432 538.038H129.067V568Z" fill="white"/>
<path d="M156.466 540.417V545.811H160.383V549.502H156.466V561.889C156.466 562.736 156.63 563.352 156.958 563.734C157.3 564.104 157.901 564.288 158.763 564.288C159.337 564.288 159.918 564.22 160.506 564.083V567.938C159.371 568.253 158.277 568.41 157.225 568.41C153.396 568.41 151.482 566.298 151.482 562.073V549.502H147.832V545.811H151.482V540.417H156.466Z" fill="white"/>
<path d="M162.659 556.7C162.659 554.526 163.09 552.571 163.951 550.835C164.812 549.085 166.022 547.745 167.581 546.815C169.14 545.872 170.931 545.4 172.954 545.4C175.948 545.4 178.375 546.364 180.234 548.292C182.107 550.22 183.119 552.776 183.27 555.962L183.29 557.131C183.29 559.318 182.866 561.273 182.019 562.996C181.185 564.719 179.981 566.052 178.409 566.995C176.851 567.938 175.046 568.41 172.995 568.41C169.864 568.41 167.355 567.371 165.469 565.293C163.596 563.201 162.659 560.419 162.659 556.946V556.7ZM167.643 557.131C167.643 559.414 168.114 561.205 169.058 562.504C170.001 563.789 171.313 564.432 172.995 564.432C174.677 564.432 175.982 563.775 176.912 562.463C177.855 561.15 178.327 559.229 178.327 556.7C178.327 554.458 177.842 552.681 176.871 551.368C175.914 550.056 174.608 549.399 172.954 549.399C171.327 549.399 170.035 550.049 169.078 551.348C168.121 552.633 167.643 554.561 167.643 557.131Z" fill="white"/>
<path d="M199.122 550.363C198.466 550.254 197.789 550.199 197.092 550.199C194.809 550.199 193.271 551.074 192.478 552.824V568H187.494V545.811H192.252L192.375 548.292C193.578 546.364 195.246 545.4 197.379 545.4C198.09 545.4 198.678 545.496 199.143 545.688L199.122 550.363Z" fill="white"/>
<path d="M213.888 550.363C213.231 550.254 212.555 550.199 211.857 550.199C209.574 550.199 208.036 551.074 207.243 552.824V568H202.26V545.811H207.018L207.141 548.292C208.344 546.364 210.012 545.4 212.145 545.4C212.855 545.4 213.443 545.496 213.908 545.688L213.888 550.363Z" fill="white"/>
<path d="M226.397 568.41C223.239 568.41 220.676 567.419 218.707 565.437C216.752 563.44 215.774 560.788 215.774 557.479V556.864C215.774 554.649 216.198 552.674 217.046 550.938C217.907 549.188 219.11 547.827 220.655 546.856C222.2 545.886 223.923 545.4 225.823 545.4C228.845 545.4 231.176 546.364 232.816 548.292C234.471 550.22 235.298 552.947 235.298 556.475V558.484H220.799C220.949 560.316 221.558 561.766 222.624 562.832C223.704 563.898 225.058 564.432 226.685 564.432C228.968 564.432 230.827 563.509 232.263 561.663L234.949 564.227C234.061 565.553 232.871 566.585 231.381 567.323C229.904 568.048 228.243 568.41 226.397 568.41ZM225.803 549.399C224.436 549.399 223.328 549.878 222.48 550.835C221.646 551.792 221.113 553.125 220.881 554.834H230.376V554.465C230.267 552.797 229.822 551.539 229.043 550.691C228.264 549.83 227.184 549.399 225.803 549.399Z" fill="white"/>
<path d="M251.622 561.971C251.622 561.082 251.253 560.405 250.515 559.94C249.79 559.476 248.58 559.065 246.885 558.71C245.189 558.354 243.774 557.903 242.64 557.356C240.151 556.153 238.907 554.41 238.907 552.127C238.907 550.213 239.714 548.613 241.327 547.328C242.94 546.043 244.991 545.4 247.479 545.4C250.132 545.4 252.271 546.057 253.898 547.369C255.539 548.682 256.359 550.384 256.359 552.476H251.376C251.376 551.519 251.021 550.726 250.31 550.097C249.599 549.454 248.655 549.133 247.479 549.133C246.386 549.133 245.49 549.386 244.793 549.892C244.109 550.397 243.768 551.074 243.768 551.922C243.768 552.688 244.089 553.282 244.731 553.706C245.374 554.13 246.673 554.561 248.628 554.998C250.583 555.422 252.114 555.935 253.222 556.536C254.343 557.124 255.17 557.835 255.703 558.669C256.25 559.503 256.523 560.515 256.523 561.704C256.523 563.7 255.696 565.32 254.042 566.564C252.388 567.795 250.221 568.41 247.541 568.41C245.723 568.41 244.103 568.082 242.681 567.426C241.259 566.77 240.151 565.867 239.358 564.719C238.565 563.57 238.169 562.333 238.169 561.007H243.009C243.077 562.183 243.521 563.092 244.342 563.734C245.162 564.363 246.249 564.678 247.603 564.678C248.915 564.678 249.913 564.432 250.597 563.939C251.28 563.434 251.622 562.777 251.622 561.971Z" fill="white"/>
<path d="M299.897 552.004H282.22V547.861H299.897V552.004ZM299.897 560.699H282.22V556.577H299.897V560.699Z" fill="white"/>
<path d="M335.52 568H315.442V564.575L325.389 553.727C326.824 552.127 327.843 550.794 328.444 549.728C329.06 548.647 329.367 547.567 329.367 546.487C329.367 545.065 328.964 543.917 328.157 543.042C327.364 542.167 326.291 541.729 324.938 541.729C323.324 541.729 322.073 542.222 321.185 543.206C320.296 544.19 319.852 545.537 319.852 547.246H314.868C314.868 545.428 315.278 543.794 316.099 542.345C316.933 540.882 318.115 539.747 319.646 538.94C321.191 538.134 322.969 537.73 324.979 537.73C327.877 537.73 330.16 538.462 331.828 539.925C333.51 541.374 334.351 543.384 334.351 545.954C334.351 547.444 333.927 549.01 333.079 550.65C332.245 552.277 330.871 554.13 328.957 556.208L321.656 564.021H335.52V568Z" fill="white"/>
<path d="M340.646 553.193L342.267 538.141H358.304V542.447H346.409L345.589 549.584C346.97 548.791 348.528 548.395 350.265 548.395C353.108 548.395 355.316 549.304 356.889 551.122C358.475 552.94 359.268 555.388 359.268 558.464C359.268 561.499 358.393 563.919 356.643 565.724C354.893 567.515 352.493 568.41 349.444 568.41C346.71 568.41 344.44 567.638 342.636 566.093C340.845 564.534 339.874 562.483 339.724 559.94H344.543C344.734 561.39 345.254 562.504 346.102 563.283C346.949 564.049 348.057 564.432 349.424 564.432C350.955 564.432 352.145 563.885 352.992 562.791C353.854 561.697 354.284 560.207 354.284 558.32C354.284 556.502 353.812 555.066 352.869 554.014C351.926 552.947 350.627 552.414 348.973 552.414C348.07 552.414 347.305 552.537 346.676 552.783C346.047 553.016 345.363 553.48 344.625 554.178L340.646 553.193Z" fill="white"/>
<path d="M393.393 557.131C393.393 560.562 392.613 563.304 391.055 565.354C389.496 567.392 387.404 568.41 384.779 568.41C382.346 568.41 380.397 567.61 378.935 566.011V576.531H373.951V545.811H378.545L378.75 548.066C380.213 546.289 382.202 545.4 384.718 545.4C387.425 545.4 389.544 546.412 391.075 548.436C392.62 550.445 393.393 553.241 393.393 556.823V557.131ZM388.43 556.7C388.43 554.485 387.985 552.729 387.097 551.43C386.222 550.131 384.964 549.481 383.323 549.481C381.286 549.481 379.823 550.322 378.935 552.004V561.848C379.837 563.57 381.313 564.432 383.364 564.432C384.95 564.432 386.188 563.796 387.076 562.524C387.979 561.239 388.43 559.298 388.43 556.7Z" fill="white"/>
<path d="M402.929 568H397.945V545.811H402.929V568ZM397.638 540.048C397.638 539.282 397.877 538.646 398.355 538.141C398.848 537.635 399.545 537.382 400.447 537.382C401.35 537.382 402.047 537.635 402.539 538.141C403.031 538.646 403.277 539.282 403.277 540.048C403.277 540.8 403.031 541.429 402.539 541.935C402.047 542.427 401.35 542.673 400.447 542.673C399.545 542.673 398.848 542.427 398.355 541.935C397.877 541.429 397.638 540.8 397.638 540.048Z" fill="white"/>
<path d="M418.146 568.41C414.987 568.41 412.424 567.419 410.455 565.437C408.5 563.44 407.522 560.788 407.522 557.479V556.864C407.522 554.649 407.946 552.674 408.794 550.938C409.655 549.188 410.858 547.827 412.403 546.856C413.948 545.886 415.671 545.4 417.571 545.4C420.593 545.4 422.924 546.364 424.564 548.292C426.219 550.22 427.046 552.947 427.046 556.475V558.484H412.547C412.697 560.316 413.306 561.766 414.372 562.832C415.452 563.898 416.806 564.432 418.433 564.432C420.716 564.432 422.575 563.509 424.011 561.663L426.697 564.227C425.809 565.553 424.619 566.585 423.129 567.323C421.652 568.048 419.991 568.41 418.146 568.41ZM417.551 549.399C416.184 549.399 415.076 549.878 414.229 550.835C413.395 551.792 412.861 553.125 412.629 554.834H422.124V554.465C422.015 552.797 421.57 551.539 420.791 550.691C420.012 549.83 418.932 549.399 417.551 549.399Z" fill="white"/>
<path d="M436.254 564.021H448.066V568H430.061V564.739L441.319 549.83H430.266V545.811H447.636V548.969L436.254 564.021Z" fill="white"/>
<path d="M465.313 568C465.095 567.576 464.903 566.886 464.739 565.929C463.153 567.583 461.212 568.41 458.915 568.41C456.687 568.41 454.868 567.774 453.46 566.503C452.052 565.231 451.348 563.659 451.348 561.786C451.348 559.421 452.223 557.609 453.973 556.352C455.736 555.08 458.252 554.444 461.52 554.444H464.575V552.988C464.575 551.84 464.254 550.924 463.611 550.24C462.969 549.543 461.991 549.194 460.679 549.194C459.544 549.194 458.614 549.481 457.89 550.056C457.165 550.616 456.803 551.334 456.803 552.209H451.819C451.819 550.992 452.223 549.857 453.029 548.805C453.836 547.738 454.93 546.904 456.311 546.303C457.705 545.701 459.257 545.4 460.966 545.4C463.563 545.4 465.635 546.057 467.18 547.369C468.725 548.668 469.518 550.5 469.559 552.865V562.873C469.559 564.869 469.839 566.462 470.399 567.651V568H465.313ZM459.838 564.411C460.822 564.411 461.745 564.172 462.606 563.693C463.481 563.215 464.138 562.572 464.575 561.766V557.582H461.889C460.043 557.582 458.655 557.903 457.726 558.546C456.796 559.188 456.331 560.098 456.331 561.273C456.331 562.23 456.646 562.996 457.274 563.57C457.917 564.131 458.771 564.411 459.838 564.411Z" fill="white"/>
<path d="M487.216 561.971C487.216 561.082 486.847 560.405 486.108 559.94C485.384 559.476 484.174 559.065 482.479 558.71C480.783 558.354 479.368 557.903 478.233 557.356C475.745 556.153 474.501 554.41 474.501 552.127C474.501 550.213 475.308 548.613 476.921 547.328C478.534 546.043 480.585 545.4 483.073 545.4C485.726 545.4 487.865 546.057 489.492 547.369C491.133 548.682 491.953 550.384 491.953 552.476H486.97C486.97 551.519 486.614 550.726 485.903 550.097C485.192 549.454 484.249 549.133 483.073 549.133C481.979 549.133 481.084 549.386 480.387 549.892C479.703 550.397 479.361 551.074 479.361 551.922C479.361 552.688 479.683 553.282 480.325 553.706C480.968 554.13 482.267 554.561 484.222 554.998C486.177 555.422 487.708 555.935 488.815 556.536C489.937 557.124 490.764 557.835 491.297 558.669C491.844 559.503 492.117 560.515 492.117 561.704C492.117 563.7 491.29 565.32 489.636 566.564C487.981 567.795 485.814 568.41 483.135 568.41C481.316 568.41 479.696 568.082 478.274 567.426C476.853 566.77 475.745 565.867 474.952 564.719C474.159 563.57 473.763 562.333 473.763 561.007H478.603C478.671 562.183 479.115 563.092 479.936 563.734C480.756 564.363 481.843 564.678 483.196 564.678C484.509 564.678 485.507 564.432 486.19 563.939C486.874 563.434 487.216 562.777 487.216 561.971Z" fill="white"/>
</g>
</g>
</g>
</svg>
