<svg viewBox="0 0 1006 599" fill="none" xmlns="http://www.w3.org/2000/svg">
<g id="01222161">
<g id="caja-blitas">
<g id="caja">
<path id="Rectangle 16 (Stroke)" fill-rule="evenodd" clip-rule="evenodd" d="M698 84H108V274H698V84ZM103 79V279H703V79H103Z" fill="#2CF30B"/>
<path id="Rectangle 17 (Stroke)" fill-rule="evenodd" clip-rule="evenodd" d="M702.5 81.5V275L896 200V0H296L107 81.5H702.5ZM131.222 76.5H707.5V267.7L891 196.576V5H297.032L131.222 76.5Z" fill="#2CF30B"/>
<path id="Line 2 (Stroke)" fill-rule="evenodd" clip-rule="evenodd" d="M886 5.99991L693 84.9999L691.106 80.3726L884.106 1.37256L886 5.99991Z" fill="#2CF30B"/>
<path id="Line 3 (Stroke)" fill-rule="evenodd" clip-rule="evenodd" d="M595 44L409 45.0109L408.957 37.011L594.956 36.0001L595 44Z" fill="#2CF30B"/>
</g>
<g id="Group 83">
<g id="Group 77">
<path id="Ellipse 41" d="M195 155.5C195 171.792 181.792 185 165.5 185C149.208 185 136 171.792 136 155.5C136 139.208 149.208 126 165.5 126C181.792 126 195 139.208 195 155.5Z" fill="#E47209"/>
<path id="1" d="M166.95 170H163.136V144.714L155.486 147.523V144.078L166.355 139.997H166.95V170Z" fill="black"/>
<path id="1_2" d="M166.95 242H163.136V216.714L155.486 219.523V216.078L166.355 211.997H166.95V242Z" fill="white"/>
</g>
<g id="Group 78">
<path id="Ellipse 41_2" d="M269 155.5C269 171.792 255.792 185 239.5 185C223.208 185 210 171.792 210 155.5C210 139.208 223.208 126 239.5 126C255.792 126 269 139.208 269 155.5Z" fill="#E8A1EE"/>
<path id="2" d="M248.046 170H228.481V167.272L238.817 155.788C240.349 154.052 241.401 152.644 241.976 151.563C242.563 150.47 242.857 149.342 242.857 148.18C242.857 146.621 242.386 145.343 241.442 144.345C240.499 143.347 239.241 142.848 237.669 142.848C235.782 142.848 234.312 143.388 233.26 144.468C232.221 145.534 231.701 147.024 231.701 148.938H227.907C227.907 146.19 228.789 143.969 230.553 142.273C232.33 140.578 234.702 139.73 237.669 139.73C240.444 139.73 242.639 140.462 244.252 141.925C245.865 143.374 246.672 145.309 246.672 147.729C246.672 150.668 244.799 154.168 241.053 158.229L233.055 166.903H248.046V170Z" fill="black"/>
<path id="2_2" d="M248.046 242H228.481V239.272L238.817 227.788C240.349 226.052 241.401 224.644 241.976 223.563C242.563 222.47 242.857 221.342 242.857 220.18C242.857 218.621 242.386 217.343 241.442 216.345C240.499 215.347 239.241 214.848 237.669 214.848C235.782 214.848 234.312 215.388 233.26 216.468C232.221 217.534 231.701 219.024 231.701 220.938H227.907C227.907 218.19 228.789 215.969 230.553 214.273C232.33 212.578 234.702 211.73 237.669 211.73C240.444 211.73 242.639 212.462 244.252 213.925C245.865 215.374 246.672 217.309 246.672 219.729C246.672 222.668 244.799 226.168 241.053 230.229L233.055 238.903H248.046V242Z" fill="white"/>
</g>
<g id="Group 79">
<path id="Ellipse 41_3" d="M343 155.5C343 171.792 329.792 185 313.5 185C297.208 185 284 171.792 284 155.5C284 139.208 297.208 126 313.5 126C329.792 126 343 139.208 343 155.5Z" fill="#0E0EC3"/>
<path id="3" d="M307.998 153.225H310.849C312.64 153.197 314.048 152.726 315.073 151.81C316.099 150.894 316.611 149.656 316.611 148.098C316.611 144.598 314.868 142.848 311.382 142.848C309.741 142.848 308.429 143.319 307.444 144.263C306.474 145.192 305.988 146.43 305.988 147.975H302.194C302.194 145.609 303.056 143.647 304.778 142.089C306.515 140.517 308.716 139.73 311.382 139.73C314.198 139.73 316.406 140.476 318.006 141.966C319.605 143.456 320.405 145.527 320.405 148.18C320.405 149.479 319.981 150.736 319.134 151.953C318.3 153.17 317.158 154.079 315.709 154.681C317.35 155.2 318.614 156.062 319.503 157.265C320.405 158.468 320.856 159.938 320.856 161.674C320.856 164.354 319.981 166.479 318.231 168.052C316.481 169.624 314.205 170.41 311.402 170.41C308.6 170.41 306.316 169.651 304.553 168.134C302.803 166.616 301.928 164.613 301.928 162.125H305.742C305.742 163.697 306.255 164.955 307.28 165.898C308.306 166.842 309.68 167.313 311.402 167.313C313.234 167.313 314.636 166.835 315.606 165.878C316.577 164.921 317.062 163.547 317.062 161.756C317.062 160.02 316.529 158.687 315.463 157.757C314.396 156.827 312.858 156.349 310.849 156.321H307.998V153.225Z" fill="black"/>
<path id="3_2" d="M307.998 225.225H310.849C312.64 225.197 314.048 224.726 315.073 223.81C316.099 222.894 316.611 221.656 316.611 220.098C316.611 216.598 314.868 214.848 311.382 214.848C309.741 214.848 308.429 215.319 307.444 216.263C306.474 217.192 305.988 218.43 305.988 219.975H302.194C302.194 217.609 303.056 215.647 304.778 214.089C306.515 212.517 308.716 211.73 311.382 211.73C314.198 211.73 316.406 212.476 318.006 213.966C319.605 215.456 320.405 217.527 320.405 220.18C320.405 221.479 319.981 222.736 319.134 223.953C318.3 225.17 317.158 226.079 315.709 226.681C317.35 227.2 318.614 228.062 319.503 229.265C320.405 230.468 320.856 231.938 320.856 233.674C320.856 236.354 319.981 238.479 318.231 240.052C316.481 241.624 314.205 242.41 311.402 242.41C308.6 242.41 306.316 241.651 304.553 240.134C302.803 238.616 301.928 236.613 301.928 234.125H305.742C305.742 235.697 306.255 236.955 307.28 237.898C308.306 238.842 309.68 239.313 311.402 239.313C313.234 239.313 314.636 238.835 315.606 237.878C316.577 236.921 317.062 235.547 317.062 233.756C317.062 232.02 316.529 230.687 315.463 229.757C314.396 228.827 312.858 228.349 310.849 228.321H307.998V225.225Z" fill="white"/>
</g>
<g id="Group 82">
<path id="Ellipse 42" d="M383 157.5C383 161.09 380.09 164 376.5 164C372.91 164 370 161.09 370 157.5C370 153.91 372.91 151 376.5 151C380.09 151 383 153.91 383 157.5Z" fill="white"/>
<path id="Ellipse 43" d="M409 157.5C409 161.09 406.09 164 402.5 164C398.91 164 396 161.09 396 157.5C396 153.91 398.91 151 402.5 151C406.09 151 409 153.91 409 157.5Z" fill="white"/>
<path id="Ellipse 44" d="M443 157.5C443 161.09 440.09 164 436.5 164C432.91 164 430 161.09 430 157.5C430 153.91 432.91 151 436.5 151C440.09 151 443 153.91 443 157.5Z" fill="white"/>
</g>
<g id="Group 80">
<path id="Ellipse 41_4" d="M568 160.5C568 176.792 554.792 190 538.5 190C522.208 190 509 176.792 509 160.5C509 144.208 522.208 131 538.5 131C554.792 131 568 144.208 568 160.5Z" fill="#19D5AD"/>
<g id="49">
<path d="M532.498 164.972H536.641V168.068H532.498V175H528.684V168.068H515.087V165.833L528.458 145.141H532.498V164.972ZM519.394 164.972H528.684V150.329L528.232 151.149L519.394 164.972Z" fill="black"/>
<path d="M554.605 161.875C553.812 162.818 552.862 163.577 551.755 164.151C550.661 164.726 549.458 165.013 548.146 165.013C546.423 165.013 544.919 164.589 543.634 163.741C542.362 162.894 541.378 161.704 540.681 160.173C539.983 158.628 539.635 156.926 539.635 155.066C539.635 153.07 540.011 151.272 540.763 149.673C541.528 148.073 542.608 146.85 544.003 146.002C545.397 145.154 547.024 144.73 548.884 144.73C551.837 144.73 554.161 145.838 555.856 148.053C557.565 150.254 558.42 153.262 558.42 157.076V158.184C558.42 163.994 557.271 168.239 554.975 170.919C552.678 173.585 549.212 174.952 544.577 175.021H543.839V171.821H544.639C547.77 171.767 550.176 170.953 551.857 169.381C553.539 167.795 554.455 165.293 554.605 161.875ZM548.761 161.875C550.032 161.875 551.201 161.485 552.268 160.706C553.348 159.927 554.134 158.963 554.626 157.814V156.297C554.626 153.809 554.086 151.785 553.006 150.227C551.926 148.668 550.559 147.889 548.904 147.889C547.236 147.889 545.896 148.531 544.885 149.816C543.873 151.088 543.367 152.77 543.367 154.861C543.367 156.898 543.853 158.58 544.823 159.906C545.808 161.219 547.12 161.875 548.761 161.875Z" fill="black"/>
</g>
<g id="49_2">
<path d="M532.498 231.972H536.641V235.068H532.498V242H528.684V235.068H515.087V232.833L528.458 212.141H532.498V231.972ZM519.394 231.972H528.684V217.329L528.232 218.149L519.394 231.972Z" fill="white"/>
<path d="M554.605 228.875C553.812 229.818 552.862 230.577 551.755 231.151C550.661 231.726 549.458 232.013 548.146 232.013C546.423 232.013 544.919 231.589 543.634 230.741C542.362 229.894 541.378 228.704 540.681 227.173C539.983 225.628 539.635 223.926 539.635 222.066C539.635 220.07 540.011 218.272 540.763 216.673C541.528 215.073 542.608 213.85 544.003 213.002C545.397 212.154 547.024 211.73 548.884 211.73C551.837 211.73 554.161 212.838 555.856 215.053C557.565 217.254 558.42 220.262 558.42 224.076V225.184C558.42 230.994 557.271 235.239 554.975 237.919C552.678 240.585 549.212 241.952 544.577 242.021H543.839V238.821H544.639C547.77 238.767 550.176 237.953 551.857 236.381C553.539 234.795 554.455 232.293 554.605 228.875ZM548.761 228.875C550.032 228.875 551.201 228.485 552.268 227.706C553.348 226.927 554.134 225.963 554.626 224.814V223.297C554.626 220.809 554.086 218.785 553.006 217.227C551.926 215.668 550.559 214.889 548.904 214.889C547.236 214.889 545.896 215.531 544.885 216.816C543.873 218.088 543.367 219.77 543.367 221.861C543.367 223.898 543.853 225.58 544.823 226.906C545.808 228.219 547.12 228.875 548.761 228.875Z" fill="white"/>
</g>
</g>
<g id="Group 81">
<path id="Ellipse 41_5" d="M642 160.5C642 176.792 628.792 190 612.5 190C596.208 190 583 176.792 583 160.5C583 144.208 596.208 131 612.5 131C628.792 131 642 144.208 642 160.5Z" fill="#2CF30B"/>
<g id="50">
<path d="M593.225 162.029L594.742 147.141H610.041V150.647H597.962L597.06 158.789C598.522 157.928 600.184 157.497 602.043 157.497C604.764 157.497 606.924 158.399 608.523 160.204C610.123 161.995 610.923 164.422 610.923 167.484C610.923 170.561 610.089 172.987 608.421 174.765C606.767 176.528 604.449 177.41 601.469 177.41C598.83 177.41 596.677 176.679 595.009 175.216C593.341 173.753 592.391 171.729 592.158 169.146H595.747C595.979 170.854 596.588 172.146 597.572 173.021C598.557 173.883 599.855 174.313 601.469 174.313C603.232 174.313 604.613 173.712 605.611 172.509C606.623 171.306 607.129 169.645 607.129 167.525C607.129 165.529 606.582 163.93 605.488 162.727C604.408 161.51 602.966 160.901 601.161 160.901C599.507 160.901 598.208 161.264 597.265 161.988L596.26 162.809L593.225 162.029Z" fill="black"/>
<path d="M633.789 164.265C633.789 168.708 633.03 172.01 631.513 174.17C629.995 176.33 627.623 177.41 624.396 177.41C621.211 177.41 618.853 176.357 617.321 174.252C615.79 172.133 614.997 168.975 614.942 164.777V159.712C614.942 155.323 615.701 152.062 617.219 149.93C618.736 147.797 621.115 146.73 624.355 146.73C627.568 146.73 629.934 147.763 631.451 149.827C632.969 151.878 633.748 155.05 633.789 159.343V164.265ZM629.995 159.076C629.995 155.863 629.544 153.525 628.642 152.062C627.739 150.586 626.311 149.848 624.355 149.848C622.414 149.848 620.999 150.579 620.11 152.042C619.222 153.505 618.764 155.754 618.736 158.789V164.859C618.736 168.086 619.201 170.472 620.131 172.017C621.074 173.548 622.496 174.313 624.396 174.313C626.27 174.313 627.657 173.589 628.56 172.14C629.476 170.69 629.954 168.407 629.995 165.29V159.076Z" fill="black"/>
</g>
<g id="50_2">
<path d="M593.225 227.029L594.742 212.141H610.041V215.647H597.962L597.06 223.789C598.522 222.928 600.184 222.497 602.043 222.497C604.764 222.497 606.924 223.399 608.523 225.204C610.123 226.995 610.923 229.422 610.923 232.484C610.923 235.561 610.089 237.987 608.421 239.765C606.767 241.528 604.449 242.41 601.469 242.41C598.83 242.41 596.677 241.679 595.009 240.216C593.341 238.753 592.391 236.729 592.158 234.146H595.747C595.979 235.854 596.588 237.146 597.572 238.021C598.557 238.883 599.855 239.313 601.469 239.313C603.232 239.313 604.613 238.712 605.611 237.509C606.623 236.306 607.129 234.645 607.129 232.525C607.129 230.529 606.582 228.93 605.488 227.727C604.408 226.51 602.966 225.901 601.161 225.901C599.507 225.901 598.208 226.264 597.265 226.988L596.26 227.809L593.225 227.029Z" fill="white"/>
<path d="M633.789 229.265C633.789 233.708 633.03 237.01 631.513 239.17C629.995 241.33 627.623 242.41 624.396 242.41C621.211 242.41 618.853 241.357 617.321 239.252C615.79 237.133 614.997 233.975 614.942 229.777V224.712C614.942 220.323 615.701 217.062 617.219 214.93C618.736 212.797 621.115 211.73 624.355 211.73C627.568 211.73 629.934 212.763 631.451 214.827C632.969 216.878 633.748 220.05 633.789 224.343V229.265ZM629.995 224.076C629.995 220.863 629.544 218.525 628.642 217.062C627.739 215.586 626.311 214.848 624.355 214.848C622.414 214.848 620.999 215.579 620.11 217.042C619.222 218.505 618.764 220.754 618.736 223.789V229.859C618.736 233.086 619.201 235.472 620.131 237.017C621.074 238.548 622.496 239.313 624.396 239.313C626.27 239.313 627.657 238.589 628.56 237.14C629.476 235.69 629.954 233.407 629.995 230.29V224.076Z" fill="white"/>
</g>
</g>
</g>
</g>
<g id="extraen">
<g id="Entonces se extraen:">
<path d="M94.5605 354.574H84.0488V362.449H96.3359V366H79.6016V340.406H96.2129V343.992H84.0488V351.059H94.5605V354.574Z" fill="white"/>
<path d="M105.308 346.98L105.431 349.178C106.837 347.479 108.683 346.629 110.968 346.629C114.929 346.629 116.945 348.896 117.015 353.432V366H112.743V353.678C112.743 352.471 112.48 351.58 111.952 351.006C111.437 350.42 110.587 350.127 109.404 350.127C107.681 350.127 106.398 350.906 105.554 352.465V366H101.282V346.98H105.308Z" fill="white"/>
<path d="M128.536 342.357V346.98H131.893V350.145H128.536V360.762C128.536 361.488 128.676 362.016 128.957 362.344C129.25 362.66 129.766 362.818 130.504 362.818C130.996 362.818 131.495 362.76 131.998 362.643V365.947C131.026 366.217 130.088 366.352 129.186 366.352C125.905 366.352 124.264 364.541 124.264 360.92V350.145H121.135V346.98H124.264V342.357H128.536Z" fill="white"/>
<path d="M135.644 356.314C135.644 354.451 136.013 352.775 136.752 351.287C137.49 349.787 138.527 348.639 139.863 347.842C141.199 347.033 142.734 346.629 144.468 346.629C147.035 346.629 149.115 347.455 150.709 349.107C152.314 350.76 153.181 352.951 153.31 355.682L153.328 356.684C153.328 358.559 152.964 360.234 152.238 361.711C151.523 363.188 150.492 364.33 149.144 365.139C147.808 365.947 146.261 366.352 144.504 366.352C141.82 366.352 139.67 365.461 138.052 363.68C136.447 361.887 135.644 359.502 135.644 356.525V356.314ZM139.916 356.684C139.916 358.641 140.32 360.176 141.129 361.289C141.937 362.391 143.062 362.941 144.504 362.941C145.945 362.941 147.064 362.379 147.861 361.254C148.67 360.129 149.074 358.482 149.074 356.314C149.074 354.393 148.658 352.869 147.826 351.744C147.005 350.619 145.886 350.057 144.468 350.057C143.074 350.057 141.966 350.613 141.146 351.727C140.326 352.828 139.916 354.48 139.916 356.684Z" fill="white"/>
<path d="M162.704 346.98L162.827 349.178C164.233 347.479 166.079 346.629 168.364 346.629C172.325 346.629 174.341 348.896 174.411 353.432V366H170.139V353.678C170.139 352.471 169.876 351.58 169.348 351.006C168.833 350.42 167.983 350.127 166.8 350.127C165.077 350.127 163.794 350.906 162.95 352.465V366H158.679V346.98H162.704Z" fill="white"/>
<path d="M188.393 362.941C189.459 362.941 190.344 362.631 191.047 362.01C191.75 361.389 192.125 360.621 192.172 359.707H196.197C196.15 360.891 195.781 361.998 195.09 363.029C194.398 364.049 193.461 364.857 192.277 365.455C191.094 366.053 189.816 366.352 188.445 366.352C185.785 366.352 183.676 365.49 182.117 363.768C180.559 362.045 179.779 359.666 179.779 356.631V356.191C179.779 353.297 180.553 350.982 182.1 349.248C183.646 347.502 185.756 346.629 188.428 346.629C190.689 346.629 192.529 347.291 193.947 348.615C195.377 349.928 196.127 351.656 196.197 353.801H192.172C192.125 352.711 191.75 351.814 191.047 351.111C190.355 350.408 189.471 350.057 188.393 350.057C187.01 350.057 185.943 350.561 185.193 351.568C184.443 352.564 184.062 354.082 184.051 356.121V356.807C184.051 358.869 184.42 360.41 185.158 361.43C185.908 362.438 186.986 362.941 188.393 362.941Z" fill="white"/>
<path d="M209.599 366.352C206.892 366.352 204.695 365.502 203.007 363.803C201.331 362.092 200.493 359.818 200.493 356.982V356.455C200.493 354.557 200.857 352.863 201.583 351.375C202.321 349.875 203.353 348.709 204.677 347.877C206.001 347.045 207.478 346.629 209.107 346.629C211.696 346.629 213.695 347.455 215.101 349.107C216.519 350.76 217.228 353.098 217.228 356.121V357.844H204.8C204.929 359.414 205.45 360.656 206.364 361.57C207.29 362.484 208.45 362.941 209.845 362.941C211.802 362.941 213.396 362.15 214.626 360.568L216.929 362.766C216.167 363.902 215.148 364.787 213.87 365.42C212.605 366.041 211.181 366.352 209.599 366.352ZM209.089 350.057C207.917 350.057 206.968 350.467 206.241 351.287C205.527 352.107 205.07 353.25 204.87 354.715H213.009V354.398C212.915 352.969 212.534 351.891 211.866 351.164C211.198 350.426 210.273 350.057 209.089 350.057Z" fill="white"/>
<path d="M233.02 360.832C233.02 360.07 232.704 359.49 232.071 359.092C231.45 358.693 230.413 358.342 228.959 358.037C227.506 357.732 226.293 357.346 225.321 356.877C223.188 355.846 222.121 354.352 222.121 352.395C222.121 350.754 222.813 349.383 224.196 348.281C225.579 347.18 227.336 346.629 229.469 346.629C231.743 346.629 233.577 347.191 234.971 348.316C236.377 349.441 237.08 350.9 237.08 352.693H232.809C232.809 351.873 232.504 351.193 231.895 350.654C231.286 350.104 230.477 349.828 229.469 349.828C228.532 349.828 227.764 350.045 227.166 350.479C226.58 350.912 226.288 351.492 226.288 352.219C226.288 352.875 226.563 353.385 227.114 353.748C227.664 354.111 228.778 354.48 230.454 354.855C232.129 355.219 233.442 355.658 234.391 356.174C235.352 356.678 236.061 357.287 236.518 358.002C236.987 358.717 237.221 359.584 237.221 360.604C237.221 362.314 236.512 363.703 235.094 364.77C233.676 365.824 231.819 366.352 229.522 366.352C227.963 366.352 226.575 366.07 225.356 365.508C224.137 364.945 223.188 364.172 222.508 363.188C221.829 362.203 221.489 361.143 221.489 360.006H225.637C225.696 361.014 226.077 361.793 226.78 362.344C227.483 362.883 228.414 363.152 229.575 363.152C230.7 363.152 231.555 362.941 232.141 362.52C232.727 362.086 233.02 361.523 233.02 360.832Z" fill="white"/>
<path d="M264.182 360.832C264.182 360.07 263.866 359.49 263.233 359.092C262.612 358.693 261.575 358.342 260.122 358.037C258.669 357.732 257.456 357.346 256.483 356.877C254.35 355.846 253.284 354.352 253.284 352.395C253.284 350.754 253.975 349.383 255.358 348.281C256.741 347.18 258.499 346.629 260.632 346.629C262.905 346.629 264.739 347.191 266.134 348.316C267.54 349.441 268.243 350.9 268.243 352.693H263.971C263.971 351.873 263.667 351.193 263.057 350.654C262.448 350.104 261.639 349.828 260.632 349.828C259.694 349.828 258.927 350.045 258.329 350.479C257.743 350.912 257.45 351.492 257.45 352.219C257.45 352.875 257.725 353.385 258.276 353.748C258.827 354.111 259.94 354.48 261.616 354.855C263.292 355.219 264.604 355.658 265.554 356.174C266.514 356.678 267.223 357.287 267.68 358.002C268.149 358.717 268.384 359.584 268.384 360.604C268.384 362.314 267.675 363.703 266.257 364.77C264.839 365.824 262.981 366.352 260.684 366.352C259.126 366.352 257.737 366.07 256.518 365.508C255.3 364.945 254.35 364.172 253.671 363.188C252.991 362.203 252.651 361.143 252.651 360.006H256.8C256.858 361.014 257.239 361.793 257.942 362.344C258.645 362.883 259.577 363.152 260.737 363.152C261.862 363.152 262.718 362.941 263.304 362.52C263.889 362.086 264.182 361.523 264.182 360.832Z" fill="white"/>
<path d="M282.295 366.352C279.588 366.352 277.391 365.502 275.703 363.803C274.027 362.092 273.189 359.818 273.189 356.982V356.455C273.189 354.557 273.553 352.863 274.279 351.375C275.018 349.875 276.049 348.709 277.373 347.877C278.697 347.045 280.174 346.629 281.803 346.629C284.393 346.629 286.391 347.455 287.797 349.107C289.215 350.76 289.924 353.098 289.924 356.121V357.844H277.496C277.625 359.414 278.146 360.656 279.061 361.57C279.986 362.484 281.146 362.941 282.541 362.941C284.498 362.941 286.092 362.15 287.322 360.568L289.625 362.766C288.863 363.902 287.844 364.787 286.566 365.42C285.301 366.041 283.877 366.352 282.295 366.352ZM281.785 350.057C280.613 350.057 279.664 350.467 278.938 351.287C278.223 352.107 277.766 353.25 277.566 354.715H285.705V354.398C285.611 352.969 285.23 351.891 284.562 351.164C283.895 350.426 282.969 350.057 281.785 350.057Z" fill="white"/>
<path d="M314.196 366.352C311.489 366.352 309.291 365.502 307.604 363.803C305.928 362.092 305.09 359.818 305.09 356.982V356.455C305.09 354.557 305.454 352.863 306.18 351.375C306.918 349.875 307.95 348.709 309.274 347.877C310.598 347.045 312.075 346.629 313.704 346.629C316.293 346.629 318.291 347.455 319.698 349.107C321.116 350.76 321.825 353.098 321.825 356.121V357.844H309.397C309.526 359.414 310.047 360.656 310.961 361.57C311.887 362.484 313.047 362.941 314.442 362.941C316.399 362.941 317.993 362.15 319.223 360.568L321.526 362.766C320.764 363.902 319.745 364.787 318.467 365.42C317.202 366.041 315.778 366.352 314.196 366.352ZM313.686 350.057C312.514 350.057 311.565 350.467 310.838 351.287C310.123 352.107 309.666 353.25 309.467 354.715H317.606V354.398C317.512 352.969 317.131 351.891 316.463 351.164C315.795 350.426 314.87 350.057 313.686 350.057Z" fill="white"/>
<path d="M333.785 353.238L337.406 346.98H342.152L336.334 356.35L342.345 366H337.634L333.837 359.496L330.058 366H325.312L331.324 356.35L325.523 346.98H330.234L333.785 353.238Z" fill="white"/>
<path d="M352.214 342.357V346.98H355.571V350.145H352.214V360.762C352.214 361.488 352.354 362.016 352.636 362.344C352.929 362.66 353.444 362.818 354.182 362.818C354.675 362.818 355.173 362.76 355.677 362.643V365.947C354.704 366.217 353.766 366.352 352.864 366.352C349.583 366.352 347.942 364.541 347.942 360.92V350.145H344.813V346.98H347.942V342.357H352.214Z" fill="white"/>
<path d="M370.607 350.883C370.045 350.789 369.465 350.742 368.867 350.742C366.91 350.742 365.592 351.492 364.912 352.992V366H360.641V346.98H364.719L364.824 349.107C365.855 347.455 367.285 346.629 369.113 346.629C369.723 346.629 370.227 346.711 370.625 346.875L370.607 350.883Z" fill="white"/>
<path d="M385.943 366C385.755 365.637 385.591 365.045 385.45 364.225C384.091 365.643 382.427 366.352 380.458 366.352C378.548 366.352 376.989 365.807 375.782 364.717C374.575 363.627 373.972 362.279 373.972 360.674C373.972 358.646 374.722 357.094 376.222 356.016C377.734 354.926 379.89 354.381 382.691 354.381H385.31V353.133C385.31 352.148 385.034 351.363 384.484 350.777C383.933 350.18 383.095 349.881 381.97 349.881C380.997 349.881 380.2 350.127 379.579 350.619C378.958 351.1 378.648 351.715 378.648 352.465H374.376C374.376 351.422 374.722 350.449 375.413 349.547C376.105 348.633 377.042 347.918 378.226 347.402C379.421 346.887 380.751 346.629 382.216 346.629C384.443 346.629 386.218 347.191 387.542 348.316C388.866 349.43 389.546 351 389.581 353.027V361.605C389.581 363.316 389.821 364.682 390.302 365.701V366H385.943ZM381.249 362.924C382.093 362.924 382.884 362.719 383.622 362.309C384.372 361.898 384.935 361.348 385.31 360.656V357.07H383.007C381.425 357.07 380.236 357.346 379.439 357.896C378.642 358.447 378.243 359.227 378.243 360.234C378.243 361.055 378.513 361.711 379.052 362.203C379.603 362.684 380.335 362.924 381.249 362.924Z" fill="white"/>
<path d="M404.231 366.352C401.524 366.352 399.327 365.502 397.639 363.803C395.963 362.092 395.125 359.818 395.125 356.982V356.455C395.125 354.557 395.489 352.863 396.215 351.375C396.954 349.875 397.985 348.709 399.309 347.877C400.633 347.045 402.11 346.629 403.739 346.629C406.329 346.629 408.327 347.455 409.733 349.107C411.151 350.76 411.86 353.098 411.86 356.121V357.844H399.432C399.561 359.414 400.082 360.656 400.996 361.57C401.922 362.484 403.082 362.941 404.477 362.941C406.434 362.941 408.028 362.15 409.258 360.568L411.561 362.766C410.799 363.902 409.78 364.787 408.502 365.42C407.237 366.041 405.813 366.352 404.231 366.352ZM403.721 350.057C402.549 350.057 401.6 350.467 400.873 351.287C400.159 352.107 399.702 353.25 399.502 354.715H407.641V354.398C407.547 352.969 407.166 351.891 406.498 351.164C405.83 350.426 404.905 350.057 403.721 350.057Z" fill="white"/>
<path d="M420.955 346.98L421.078 349.178C422.484 347.479 424.33 346.629 426.615 346.629C430.576 346.629 432.591 348.896 432.662 353.432V366H428.39V353.678C428.39 352.471 428.127 351.58 427.599 351.006C427.084 350.42 426.234 350.127 425.05 350.127C423.328 350.127 422.045 350.906 421.201 352.465V366H416.929V346.98H420.955Z" fill="white"/>
<path d="M441.405 361.5C442.202 361.5 442.817 361.729 443.251 362.186C443.684 362.631 443.901 363.193 443.901 363.873C443.901 364.541 443.684 365.098 443.251 365.543C442.817 365.977 442.202 366.193 441.405 366.193C440.643 366.193 440.04 365.977 439.595 365.543C439.149 365.109 438.927 364.553 438.927 363.873C438.927 363.193 439.143 362.631 439.577 362.186C440.011 361.729 440.62 361.5 441.405 361.5ZM441.405 346.576C442.202 346.576 442.817 346.805 443.251 347.262C443.684 347.707 443.901 348.27 443.901 348.949C443.901 349.617 443.684 350.174 443.251 350.619C442.817 351.053 442.202 351.27 441.405 351.27C440.643 351.27 440.04 351.053 439.595 350.619C439.149 350.186 438.927 349.629 438.927 348.949C438.927 348.27 439.143 347.707 439.577 347.262C440.011 346.805 440.62 346.576 441.405 346.576Z" fill="white"/>
</g>
</g>
<g id="text">
<g id="Group">
<g id="Group 84">
<g id="Group_2">
<g id="Group_3">
<path id="Vector" d="M83.9505 458.096C85.631 458.096 87.1691 457.356 88.5648 455.874C89.9605 454.393 90.6726 452.67 90.7011 450.705C90.7011 448.91 89.9605 447.671 88.4794 446.988C85.4601 446.218 83.5232 445.692 82.6687 445.407C81.8142 445.122 81.216 444.837 80.8742 444.552C79.1652 443.356 78.3107 441.633 78.3107 439.382C78.3107 437.645 78.7665 436.064 79.6779 434.64C80.5894 433.216 81.5151 432.148 82.4551 431.435C83.2811 430.723 84.278 430.154 85.4459 429.726C86.6137 429.299 87.5252 429.071 88.1803 429.043H88.6503H88.9494C91.6838 429.043 93.6634 429.954 94.8882 431.777C94.9167 431.777 95.1018 431.592 95.4436 431.222C95.7854 430.852 96.1557 430.439 96.5545 429.983C96.9533 429.527 97.2381 429.214 97.409 429.043C97.4375 429.043 97.4944 429.043 97.5799 429.043C97.6654 429.043 97.7366 429.029 97.7935 429C98.1638 429 98.349 429.1 98.349 429.299C98.349 429.499 97.9502 431.222 97.1526 434.469C96.3551 437.716 95.8994 439.397 95.7854 439.511C95.6715 439.625 95.4436 439.667 95.1018 439.639C94.5322 439.639 94.2473 439.511 94.2473 439.254C94.2473 439.083 94.2616 438.941 94.29 438.827C94.29 438.742 94.3043 438.471 94.3328 438.015C94.3612 437.559 94.3897 437.189 94.4182 436.904C94.4182 435.936 94.29 435.096 94.0337 434.384C93.7773 433.671 93.521 433.144 93.2646 432.803C93.0083 432.461 92.6522 432.105 92.1965 431.735C91.1711 431.136 90.0033 430.837 88.693 430.837C87.0694 430.837 85.5598 431.492 84.1641 432.803C82.7684 434.113 82.0563 435.623 82.0278 437.332C82.0278 438.186 82.2415 438.927 82.6687 439.553C83.096 440.18 83.6799 440.621 84.4205 440.878C84.5344 440.935 85.5313 441.205 87.4112 441.69C89.2912 442.174 90.2454 442.43 90.2738 442.459C91.2423 442.772 92.1823 443.456 93.0937 444.509C94.0052 445.563 94.4609 446.988 94.4609 448.782C94.4609 449.523 94.347 450.32 94.1191 451.175C93.9767 451.801 93.7204 452.499 93.3501 453.268C92.9798 454.037 92.4671 454.878 91.812 455.789C91.1568 456.7 90.2169 457.555 88.9921 458.353C87.7673 459.15 86.4286 459.691 84.9759 459.976C84.6341 460.033 84.1499 460.062 83.5232 460.062C80.7033 460.062 78.5101 459.278 76.9435 457.712L76.5162 457.242L75.3199 458.566C74.6648 459.335 74.266 459.777 74.1236 459.891C73.9812 460.005 73.7961 460.062 73.5682 460.062C73.1979 460.062 73.0128 459.948 73.0128 459.72C73.0128 459.634 73.8388 456.287 75.4908 449.679C75.5478 449.508 75.8326 449.423 76.3453 449.423H76.9008C77.0717 449.594 77.1571 449.75 77.1571 449.893C77.1571 449.95 77.1429 450.078 77.1144 450.277C77.0859 450.477 77.029 450.776 76.9435 451.175C76.858 451.573 76.8296 452.043 76.858 452.585C76.915 453.695 77.1714 454.635 77.6271 455.404C78.0828 456.174 78.6952 456.743 79.4643 457.113C80.2334 457.484 80.9739 457.74 81.686 457.883C82.3981 458.025 83.1529 458.096 83.9505 458.096Z" fill="white"/>
</g>
<g id="Group_4">
<path id="Vector_2" d="M97.6162 456.859C97.6363 456.738 97.6666 456.577 97.7068 456.375C97.7471 456.174 97.8679 455.791 98.0693 455.228C98.2707 454.664 98.4721 454.19 98.6735 453.808C98.8748 453.425 99.2071 453.053 99.6703 452.69C100.133 452.328 100.597 452.156 101.06 452.177C101.785 452.177 102.389 452.358 102.872 452.72C103.356 453.083 103.658 453.425 103.778 453.747C103.899 454.07 103.96 454.281 103.96 454.382C103.96 454.422 103.97 454.442 103.99 454.442L104.322 454.11C105.551 452.821 106.95 452.177 108.521 452.177C109.608 452.177 110.484 452.448 111.149 452.992C111.813 453.536 112.156 454.331 112.176 455.379C112.196 456.426 111.813 458.007 111.028 460.121C110.243 462.236 109.86 463.514 109.88 463.957C109.88 464.481 110.051 464.743 110.394 464.743C110.515 464.743 110.605 464.733 110.666 464.712C111.25 464.612 111.773 464.229 112.236 463.565C112.7 462.9 113.052 462.095 113.294 461.148C113.334 460.987 113.535 460.906 113.898 460.906C114.3 460.906 114.502 460.987 114.502 461.148C114.502 461.168 114.462 461.319 114.381 461.601C114.22 462.185 113.998 462.759 113.716 463.323C113.435 463.887 112.971 464.451 112.327 465.015C111.683 465.578 110.988 465.85 110.243 465.83C109.296 465.83 108.612 465.558 108.189 465.015C107.766 464.471 107.554 463.907 107.554 463.323C107.554 462.94 107.917 461.732 108.642 459.698C109.367 457.664 109.739 456.134 109.759 455.107C109.759 453.919 109.316 453.324 108.43 453.324H108.279C106.547 453.324 105.087 454.341 103.899 456.375L103.688 456.738L102.691 460.786C102.026 463.424 101.644 464.843 101.543 465.045C101.281 465.588 100.848 465.86 100.244 465.86C99.9824 465.86 99.771 465.8 99.6099 465.679C99.4488 465.558 99.338 465.437 99.2776 465.317C99.2172 465.196 99.197 465.095 99.2172 465.015C99.2172 464.753 99.5998 463.112 100.365 460.091C101.13 457.07 101.533 455.429 101.573 455.167C101.593 455.066 101.604 454.835 101.604 454.472C101.604 453.687 101.362 453.294 100.879 453.294C100.113 453.294 99.479 454.301 98.9755 456.315C98.8547 456.718 98.7943 456.929 98.7943 456.949C98.754 457.07 98.5627 457.131 98.2203 457.131H97.7975C97.6766 457.01 97.6162 456.919 97.6162 456.859Z" fill="white"/>
</g>
</g>
<g id="Group_5">
<path id="Vector_3" d="M131.504 444.291C131.504 443.921 131.703 443.636 132.102 443.437H159.318C159.745 443.665 159.959 443.95 159.959 444.291C159.959 444.605 159.759 444.875 159.361 445.103L145.774 445.146H132.187C131.731 445.003 131.504 444.719 131.504 444.291ZM131.504 452.58C131.504 452.153 131.731 451.868 132.187 451.726H159.361C159.759 452.01 159.959 452.295 159.959 452.58C159.959 452.95 159.745 453.235 159.318 453.435H132.102C131.703 453.235 131.504 452.95 131.504 452.58Z" fill="white"/>
</g>
<g id="Group_6">
<path id="Vector_4" d="M183.321 434.42L182.766 434.634C182.367 434.776 181.797 434.918 181.057 435.061C180.316 435.203 179.49 435.303 178.579 435.36H177.767V433.395H178.579C179.918 433.338 181.157 433.124 182.296 432.754C183.435 432.383 184.233 432.042 184.689 431.728C185.144 431.415 185.543 431.102 185.885 430.788C185.942 430.703 186.113 430.66 186.398 430.66C186.654 430.66 186.896 430.746 187.124 430.916V443.691L187.167 456.509C187.366 456.708 187.537 456.837 187.679 456.894C187.822 456.95 188.164 457.007 188.705 457.064C189.246 457.121 190.129 457.15 191.354 457.15H192.465V459.115H191.995C191.396 459.03 189.132 458.987 185.201 458.987C181.327 458.987 179.092 459.03 178.493 459.115H177.981V457.15H179.092C179.718 457.15 180.259 457.15 180.715 457.15C181.171 457.15 181.527 457.136 181.783 457.107C182.04 457.079 182.267 457.036 182.467 456.979C182.666 456.922 182.78 456.894 182.809 456.894C182.837 456.894 182.923 456.822 183.065 456.68C183.207 456.537 183.293 456.48 183.321 456.509V434.42Z" fill="white"/>
</g>
<g id="Group_7">
<path id="Vector_5" d="M231.994 457.88C231.994 458.45 231.695 458.735 231.097 458.735C230.955 458.735 230.641 458.507 230.157 458.051C229.673 457.596 228.334 456.271 226.141 454.078L221.697 449.634L217.211 454.121C214.192 457.083 212.64 458.592 212.554 458.649C212.44 458.706 212.34 458.735 212.255 458.735C212.027 458.735 211.828 458.649 211.657 458.479C211.486 458.308 211.386 458.108 211.358 457.88C211.358 457.681 211.557 457.368 211.956 456.94C212.355 456.513 213.693 455.16 215.972 452.881L220.416 448.438L215.972 443.995C213.665 441.687 212.326 440.334 211.956 439.936C211.586 439.537 211.386 439.224 211.358 438.996C211.358 438.739 211.443 438.54 211.614 438.398C211.785 438.255 211.999 438.184 212.255 438.184C212.397 438.184 212.497 438.198 212.554 438.227C212.64 438.284 214.192 439.793 217.211 442.756L221.697 447.242L226.141 442.798C228.334 440.605 229.673 439.281 230.157 438.825C230.641 438.369 230.955 438.141 231.097 438.141C231.695 438.141 231.994 438.426 231.994 438.996C231.994 439.195 231.852 439.451 231.567 439.765C231.282 440.078 229.886 441.474 227.38 443.952L222.936 448.438L227.38 452.924C229.772 455.317 231.14 456.698 231.481 457.069C231.823 457.439 231.994 457.709 231.994 457.88Z" fill="white"/>
</g>
<g id="Group_8">
<path id="Vector_6" d="M256.916 434.42L256.36 434.634C255.962 434.776 255.392 434.918 254.651 435.061C253.911 435.203 253.085 435.303 252.173 435.36H251.362V433.395H252.173C253.512 433.338 254.751 433.124 255.89 432.754C257.03 432.383 257.827 432.042 258.283 431.728C258.739 431.415 259.138 431.102 259.479 430.788C259.536 430.703 259.707 430.66 259.992 430.66C260.248 430.66 260.491 430.746 260.718 430.916V443.691L260.761 456.509C260.961 456.708 261.131 456.837 261.274 456.894C261.416 456.95 261.758 457.007 262.299 457.064C262.84 457.121 263.723 457.15 264.948 457.15H266.059V459.115H265.589C264.991 459.03 262.727 458.987 258.796 458.987C254.922 458.987 252.686 459.03 252.088 459.115H251.575V457.15H252.686C253.313 457.15 253.854 457.15 254.31 457.15C254.765 457.15 255.121 457.136 255.378 457.107C255.634 457.079 255.862 457.036 256.061 456.979C256.261 456.922 256.375 456.894 256.403 456.894C256.432 456.894 256.517 456.822 256.66 456.68C256.802 456.537 256.887 456.48 256.916 456.509V434.42Z" fill="white"/>
</g>
<g id="Group_9">
<path id="Vector_7" d="M281.065 448.992C281.065 448.992 281.065 448.807 281.065 448.436C281.065 448.066 281.264 447.781 281.663 447.582H294.438V441.173L294.481 434.764C294.766 434.394 295.036 434.209 295.293 434.209C295.663 434.209 295.948 434.422 296.147 434.85V447.582H308.879C309.306 447.81 309.52 448.094 309.52 448.436C309.52 448.778 309.306 449.063 308.879 449.291H296.147V462.023C295.919 462.422 295.663 462.621 295.378 462.621H295.293H295.207C294.865 462.621 294.609 462.422 294.438 462.023V449.291H281.663C281.264 449.091 281.065 448.807 281.065 448.436V448.992Z" fill="white"/>
</g>
<g id="Group_10">
<path id="Vector_8" d="M326.063 440.786C325.294 440.786 324.682 440.53 324.226 440.017C323.77 439.504 323.542 438.878 323.542 438.137C323.542 436.115 324.297 434.363 325.807 432.882C327.317 431.401 329.196 430.66 331.447 430.66C334.039 430.66 336.203 431.458 337.941 433.053C339.678 434.648 340.561 436.713 340.59 439.248C340.59 440.473 340.305 441.641 339.735 442.751C339.166 443.862 338.482 444.831 337.685 445.657C336.887 446.483 335.748 447.537 334.267 448.818C333.241 449.701 331.817 451.012 329.994 452.749L327.473 455.142L330.72 455.184C335.192 455.184 337.571 455.113 337.856 454.971C338.055 454.914 338.397 453.646 338.881 451.168V451.04H340.59V451.168C340.561 451.254 340.376 452.55 340.035 455.056C339.693 457.563 339.479 458.873 339.394 458.987V459.115H323.542V458.303V457.791C323.542 457.591 323.628 457.378 323.799 457.15C323.97 456.922 324.397 456.424 325.081 455.654C325.907 454.743 326.619 453.945 327.217 453.262C327.473 452.977 327.957 452.45 328.67 451.681C329.382 450.912 329.866 450.385 330.122 450.1C330.379 449.815 330.792 449.345 331.361 448.69C331.931 448.035 332.33 447.551 332.558 447.238C332.785 446.924 333.113 446.497 333.54 445.956C333.967 445.415 334.267 444.959 334.437 444.589C334.608 444.218 334.822 443.805 335.078 443.35C335.335 442.894 335.52 442.438 335.634 441.982C335.748 441.527 335.847 441.099 335.933 440.701C336.018 440.302 336.061 439.832 336.061 439.291C336.061 437.496 335.577 435.944 334.608 434.634C333.64 433.323 332.258 432.668 330.464 432.668C329.524 432.668 328.698 432.91 327.986 433.395C327.274 433.879 326.775 434.349 326.491 434.804C326.206 435.26 326.063 435.531 326.063 435.616C326.063 435.645 326.134 435.659 326.277 435.659C326.79 435.659 327.317 435.858 327.858 436.257C328.399 436.656 328.67 437.311 328.67 438.222C328.67 438.935 328.442 439.533 327.986 440.017C327.53 440.501 326.889 440.758 326.063 440.786Z" fill="white"/>
</g>
<g id="Group_11">
<path id="Vector_9" d="M379.179 457.88C379.179 458.45 378.88 458.735 378.282 458.735C378.139 458.735 377.826 458.507 377.342 458.051C376.858 457.596 375.519 456.271 373.326 454.078L368.882 449.634L364.396 454.121C361.377 457.083 359.824 458.592 359.739 458.649C359.625 458.706 359.525 458.735 359.44 458.735C359.212 458.735 359.013 458.649 358.842 458.479C358.671 458.308 358.571 458.108 358.543 457.88C358.543 457.681 358.742 457.368 359.141 456.94C359.54 456.513 360.878 455.16 363.157 452.881L367.601 448.438L363.157 443.995C360.85 441.687 359.511 440.334 359.141 439.936C358.771 439.537 358.571 439.224 358.543 438.996C358.543 438.739 358.628 438.54 358.799 438.398C358.97 438.255 359.184 438.184 359.44 438.184C359.582 438.184 359.682 438.198 359.739 438.227C359.824 438.284 361.377 439.793 364.396 442.756L368.882 447.242L373.326 442.798C375.519 440.605 376.858 439.281 377.342 438.825C377.826 438.369 378.139 438.141 378.282 438.141C378.88 438.141 379.179 438.426 379.179 438.996C379.179 439.195 379.037 439.451 378.752 439.765C378.467 440.078 377.071 441.474 374.565 443.952L370.121 448.438L374.565 452.924C376.957 455.317 378.325 456.698 378.666 457.069C379.008 457.439 379.179 457.709 379.179 457.88Z" fill="white"/>
</g>
<g id="Group_12">
<path id="Vector_10" d="M399.658 440.786C398.889 440.786 398.277 440.53 397.821 440.017C397.365 439.504 397.137 438.878 397.137 438.137C397.137 436.115 397.892 434.363 399.402 432.882C400.911 431.401 402.791 430.66 405.041 430.66C407.633 430.66 409.798 431.458 411.536 433.053C413.273 434.648 414.156 436.713 414.185 439.248C414.185 440.473 413.9 441.641 413.33 442.751C412.76 443.862 412.077 444.831 411.279 445.657C410.482 446.483 409.342 447.537 407.861 448.818C406.836 449.701 405.412 451.012 403.589 452.749L401.068 455.142L404.315 455.184C408.787 455.184 411.165 455.113 411.45 454.971C411.65 454.914 411.991 453.646 412.476 451.168V451.04H414.185V451.168C414.156 451.254 413.971 452.55 413.629 455.056C413.287 457.563 413.074 458.873 412.988 458.987V459.115H397.137V458.303V457.791C397.137 457.591 397.223 457.378 397.394 457.15C397.564 456.922 397.992 456.424 398.675 455.654C399.501 454.743 400.213 453.945 400.812 453.262C401.068 452.977 401.552 452.45 402.264 451.681C402.976 450.912 403.461 450.385 403.717 450.1C403.973 449.815 404.386 449.345 404.956 448.69C405.526 448.035 405.924 447.551 406.152 447.238C406.38 446.924 406.708 446.497 407.135 445.956C407.562 445.415 407.861 444.959 408.032 444.589C408.203 444.218 408.417 443.805 408.673 443.35C408.929 442.894 409.115 442.438 409.229 441.982C409.342 441.527 409.442 441.099 409.528 440.701C409.613 440.302 409.656 439.832 409.656 439.291C409.656 437.496 409.172 435.944 408.203 434.634C407.235 433.323 405.853 432.668 404.059 432.668C403.119 432.668 402.293 432.91 401.581 433.395C400.869 433.879 400.37 434.349 400.085 434.804C399.8 435.26 399.658 435.531 399.658 435.616C399.658 435.645 399.729 435.659 399.872 435.659C400.384 435.659 400.911 435.858 401.452 436.257C401.994 436.656 402.264 437.311 402.264 438.222C402.264 438.935 402.036 439.533 401.581 440.017C401.125 440.501 400.484 440.758 399.658 440.786Z" fill="white"/>
</g>
<g id="Group_13">
<path id="Vector_11" d="M428.25 448.992C428.25 448.992 428.25 448.807 428.25 448.436C428.25 448.066 428.449 447.781 428.848 447.582H441.623V441.173L441.666 434.764C441.95 434.394 442.221 434.209 442.477 434.209C442.848 434.209 443.132 434.422 443.332 434.85V447.582H456.064C456.491 447.81 456.705 448.094 456.705 448.436C456.705 448.778 456.491 449.063 456.064 449.291H443.332V462.023C443.104 462.422 442.848 462.621 442.563 462.621H442.477H442.392C442.05 462.621 441.794 462.422 441.623 462.023V449.291H428.848C428.449 449.091 428.25 448.807 428.25 448.436V448.992Z" fill="white"/>
</g>
<g id="Group_14">
<path id="Vector_12" d="M474.017 439.334C473.248 439.334 472.649 439.092 472.222 438.608C471.795 438.124 471.567 437.497 471.539 436.728C471.539 435.161 472.222 433.766 473.589 432.541C474.957 431.316 476.609 430.704 478.546 430.704C479.543 430.704 480.169 430.718 480.425 430.746C482.533 431.088 484.143 431.843 485.253 433.011C486.364 434.179 486.934 435.446 486.962 436.813C486.962 438.295 486.478 439.733 485.51 441.129C484.541 442.524 483.203 443.536 481.494 444.162L481.365 444.248C481.365 444.276 481.494 444.319 481.75 444.376C482.006 444.433 482.419 444.561 482.989 444.76C483.559 444.96 484.1 445.259 484.613 445.658C486.948 447.167 488.116 449.161 488.116 451.639C488.116 453.889 487.233 455.855 485.467 457.535C483.701 459.216 481.465 460.056 478.759 460.056C476.481 460.056 474.515 459.444 472.863 458.219C471.211 456.994 470.385 455.442 470.385 453.562C470.385 452.764 470.641 452.123 471.154 451.639C471.667 451.155 472.308 450.899 473.077 450.87C473.874 450.87 474.529 451.127 475.042 451.639C475.555 452.152 475.811 452.793 475.811 453.562C475.811 453.875 475.768 454.16 475.683 454.416C475.598 454.673 475.498 454.901 475.384 455.1C475.27 455.299 475.113 455.47 474.914 455.613C474.715 455.755 474.544 455.869 474.401 455.955C474.259 456.04 474.116 456.097 473.974 456.125C473.832 456.154 473.718 456.197 473.632 456.254L473.461 456.296C474.914 457.578 476.68 458.219 478.759 458.219C480.326 458.219 481.508 457.464 482.305 455.955C482.79 455.015 483.032 453.576 483.032 451.639V450.785C483.032 448.079 482.12 446.27 480.297 445.359C479.87 445.188 479.001 445.088 477.691 445.06L475.897 445.017L475.768 444.931C475.711 444.846 475.683 444.618 475.683 444.248C475.683 443.735 475.797 443.479 476.025 443.479C476.822 443.479 477.648 443.407 478.503 443.265C479.471 443.123 480.354 442.524 481.152 441.471C481.949 440.417 482.348 438.822 482.348 436.685V436.344C482.348 434.72 481.85 433.595 480.853 432.968C480.226 432.569 479.557 432.37 478.845 432.37C477.933 432.37 477.093 432.527 476.324 432.84C475.555 433.153 475.014 433.481 474.7 433.823C474.387 434.165 474.23 434.335 474.23 434.335H474.358C474.444 434.364 474.558 434.392 474.7 434.421C474.843 434.449 474.985 434.521 475.128 434.635C475.27 434.748 475.441 434.848 475.64 434.934C475.84 435.019 475.982 435.176 476.067 435.404C476.153 435.631 476.267 435.845 476.409 436.044C476.552 436.244 476.594 436.529 476.537 436.899C476.537 437.526 476.338 438.081 475.939 438.565C475.541 439.049 474.9 439.306 474.017 439.334Z" fill="white"/>
</g>
<g id="Group_15">
<path id="Vector_13" d="M526.364 457.88C526.364 458.45 526.065 458.735 525.467 458.735C525.324 458.735 525.011 458.507 524.527 458.051C524.043 457.596 522.704 456.271 520.511 454.078L516.067 449.634L511.581 454.121C508.562 457.083 507.009 458.592 506.924 458.649C506.81 458.706 506.71 458.735 506.625 458.735C506.397 458.735 506.198 458.649 506.027 458.479C505.856 458.308 505.756 458.108 505.728 457.88C505.728 457.681 505.927 457.368 506.326 456.94C506.725 456.513 508.063 455.16 510.342 452.881L514.785 448.438L510.342 443.995C508.035 441.687 506.696 440.334 506.326 439.936C505.956 439.537 505.756 439.224 505.728 438.996C505.728 438.739 505.813 438.54 505.984 438.398C506.155 438.255 506.369 438.184 506.625 438.184C506.767 438.184 506.867 438.198 506.924 438.227C507.009 438.284 508.562 439.793 511.581 442.756L516.067 447.242L520.511 442.798C522.704 440.605 524.043 439.281 524.527 438.825C525.011 438.369 525.324 438.141 525.467 438.141C526.065 438.141 526.364 438.426 526.364 438.996C526.364 439.195 526.222 439.451 525.937 439.765C525.652 440.078 524.256 441.474 521.75 443.952L517.306 448.438L521.75 452.924C524.142 455.317 525.51 456.698 525.851 457.069C526.193 457.439 526.364 457.709 526.364 457.88Z" fill="white"/>
</g>
<g id="Group_16">
<path id="Vector_14" d="M547.607 439.334C546.838 439.334 546.24 439.092 545.812 438.608C545.385 438.124 545.157 437.497 545.129 436.728C545.129 435.161 545.812 433.766 547.18 432.541C548.547 431.316 550.199 430.704 552.136 430.704C553.133 430.704 553.759 430.718 554.016 430.746C556.123 431.088 557.733 431.843 558.844 433.011C559.954 434.179 560.524 435.446 560.553 436.813C560.553 438.295 560.068 439.733 559.1 441.129C558.131 442.524 556.793 443.536 555.084 444.162L554.956 444.248C554.956 444.276 555.084 444.319 555.34 444.376C555.596 444.433 556.009 444.561 556.579 444.76C557.149 444.96 557.69 445.259 558.203 445.658C560.538 447.167 561.706 449.161 561.706 451.639C561.706 453.889 560.823 455.855 559.057 457.535C557.291 459.216 555.055 460.056 552.349 460.056C550.071 460.056 548.105 459.444 546.453 458.219C544.801 456.994 543.975 455.442 543.975 453.562C543.975 452.764 544.231 452.123 544.744 451.639C545.257 451.155 545.898 450.899 546.667 450.87C547.464 450.87 548.119 451.127 548.632 451.639C549.145 452.152 549.401 452.793 549.401 453.562C549.401 453.875 549.359 454.16 549.273 454.416C549.188 454.673 549.088 454.901 548.974 455.1C548.86 455.299 548.703 455.47 548.504 455.613C548.305 455.755 548.134 455.869 547.991 455.955C547.849 456.04 547.706 456.097 547.564 456.125C547.422 456.154 547.308 456.197 547.222 456.254L547.051 456.296C548.504 457.578 550.27 458.219 552.349 458.219C553.916 458.219 555.098 457.464 555.896 455.955C556.38 455.015 556.622 453.576 556.622 451.639V450.785C556.622 448.079 555.71 446.27 553.887 445.359C553.46 445.188 552.591 445.088 551.281 445.06L549.487 445.017L549.359 444.931C549.302 444.846 549.273 444.618 549.273 444.248C549.273 443.735 549.387 443.479 549.615 443.479C550.412 443.479 551.238 443.407 552.093 443.265C553.061 443.123 553.944 442.524 554.742 441.471C555.539 440.417 555.938 438.822 555.938 436.685V436.344C555.938 434.72 555.44 433.595 554.443 432.968C553.816 432.569 553.147 432.37 552.435 432.37C551.523 432.37 550.683 432.527 549.914 432.84C549.145 433.153 548.604 433.481 548.29 433.823C547.977 434.165 547.82 434.335 547.82 434.335H547.949C548.034 434.364 548.148 434.392 548.29 434.421C548.433 434.449 548.575 434.521 548.718 434.635C548.86 434.748 549.031 434.848 549.23 434.934C549.43 435.019 549.572 435.176 549.658 435.404C549.743 435.631 549.857 435.845 549.999 436.044C550.142 436.244 550.185 436.529 550.128 436.899C550.128 437.526 549.928 438.081 549.529 438.565C549.131 439.049 548.49 439.306 547.607 439.334Z" fill="white"/>
</g>
<g id="Group_17">
<path id="Vector_15" d="M575.434 448.992C575.434 448.992 575.434 448.807 575.434 448.436C575.434 448.066 575.634 447.781 576.033 447.582H588.808V441.173L588.85 434.764C589.135 434.394 589.406 434.209 589.662 434.209C590.032 434.209 590.317 434.422 590.517 434.85V447.582H603.249C603.676 447.81 603.89 448.094 603.89 448.436C603.89 448.778 603.676 449.063 603.249 449.291H590.517V462.023C590.289 462.422 590.032 462.621 589.747 462.621H589.662H589.577C589.235 462.621 588.978 462.422 588.808 462.023V449.291H576.033C575.634 449.091 575.434 448.807 575.434 448.436V448.992Z" fill="white"/>
</g>
<g id="Group_18">
<path id="Vector_16" d="M619.108 448.438C619.108 447.754 619.35 447.156 619.834 446.643C620.319 446.131 620.931 445.874 621.672 445.874C622.355 445.874 622.953 446.102 623.466 446.558C623.979 447.014 624.249 447.626 624.278 448.395C624.278 449.107 624.036 449.72 623.552 450.232C623.067 450.745 622.455 451.001 621.714 451.001C620.974 451.001 620.361 450.759 619.877 450.275C619.393 449.791 619.137 449.179 619.108 448.438ZM638.206 448.438C638.206 447.754 638.449 447.156 638.933 446.643C639.417 446.131 640.029 445.874 640.77 445.874C641.454 445.874 642.052 446.102 642.564 446.558C643.077 447.014 643.348 447.626 643.376 448.395C643.376 449.107 643.134 449.72 642.65 450.232C642.166 450.745 641.553 451.001 640.813 451.001C640.072 451.001 639.46 450.759 638.975 450.275C638.491 449.791 638.235 449.179 638.206 448.438ZM657.305 448.438C657.305 447.754 657.547 447.156 658.031 446.643C658.515 446.131 659.128 445.874 659.868 445.874C660.552 445.874 661.15 446.102 661.663 446.558C662.175 447.014 662.446 447.626 662.475 448.395C662.475 449.107 662.232 449.72 661.748 450.232C661.264 450.745 660.652 451.001 659.911 451.001C659.17 451.001 658.558 450.759 658.074 450.275C657.59 449.791 657.333 449.179 657.305 448.438Z" fill="white"/>
</g>
<g id="Group_19">
<path id="Vector_17" d="M673.87 446.856C673.899 446.685 673.941 446.457 673.998 446.173C674.055 445.888 674.226 445.347 674.511 444.549C674.796 443.751 675.081 443.082 675.366 442.541C675.65 442 676.12 441.473 676.775 440.96C677.431 440.447 678.086 440.205 678.741 440.234C679.766 440.234 680.621 440.49 681.304 441.003C681.988 441.516 682.415 442 682.586 442.455C682.757 442.911 682.842 443.21 682.842 443.353C682.842 443.41 682.857 443.438 682.885 443.438L683.355 442.968C685.093 441.145 687.072 440.234 689.294 440.234C690.832 440.234 692.071 440.618 693.011 441.387C693.951 442.156 694.435 443.281 694.464 444.763C694.492 446.244 693.951 448.48 692.84 451.471C691.729 454.461 691.188 456.27 691.217 456.897C691.217 457.637 691.459 458.008 691.943 458.008C692.114 458.008 692.242 457.993 692.328 457.965C693.154 457.822 693.894 457.281 694.549 456.341C695.204 455.401 695.703 454.262 696.045 452.923C696.102 452.695 696.386 452.581 696.899 452.581C697.469 452.581 697.754 452.695 697.754 452.923C697.754 452.952 697.697 453.165 697.583 453.564C697.355 454.39 697.042 455.202 696.643 455.999C696.244 456.797 695.589 457.595 694.677 458.392C693.766 459.19 692.783 459.574 691.729 459.546C690.391 459.546 689.422 459.161 688.824 458.392C688.226 457.623 687.927 456.825 687.927 455.999C687.927 455.458 688.44 453.749 689.465 450.872C690.49 447.996 691.017 445.831 691.046 444.378C691.046 442.698 690.419 441.857 689.166 441.857H688.952C686.503 441.857 684.438 443.296 682.757 446.173L682.458 446.685L681.048 452.411C680.108 456.142 679.567 458.15 679.424 458.435C679.054 459.204 678.442 459.588 677.587 459.588C677.217 459.588 676.918 459.503 676.69 459.332C676.462 459.161 676.305 458.99 676.22 458.819C676.135 458.648 676.106 458.506 676.135 458.392C676.135 458.022 676.676 455.7 677.758 451.428C678.841 447.155 679.41 444.834 679.467 444.464C679.496 444.321 679.51 443.994 679.51 443.481C679.51 442.37 679.168 441.815 678.484 441.815C677.402 441.815 676.505 443.239 675.793 446.087C675.622 446.657 675.536 446.956 675.536 446.984C675.479 447.155 675.209 447.241 674.725 447.241H674.126C673.956 447.07 673.87 446.942 673.87 446.856Z" fill="white"/>
</g>
<g id="Group_20">
<path id="Vector_18" d="M735.018 457.88C735.018 458.45 734.719 458.735 734.121 458.735C733.978 458.735 733.665 458.507 733.181 458.051C732.696 457.596 731.358 456.271 729.164 454.078L724.721 449.634L720.235 454.121C717.215 457.083 715.663 458.592 715.578 458.649C715.464 458.706 715.364 458.735 715.279 458.735C715.051 458.735 714.851 458.649 714.68 458.479C714.51 458.308 714.41 458.108 714.381 457.88C714.381 457.681 714.581 457.368 714.98 456.94C715.378 456.513 716.717 455.16 718.996 452.881L723.439 448.438L718.996 443.995C716.689 441.687 715.35 440.334 714.98 439.936C714.609 439.537 714.41 439.224 714.381 438.996C714.381 438.739 714.467 438.54 714.638 438.398C714.809 438.255 715.022 438.184 715.279 438.184C715.421 438.184 715.521 438.198 715.578 438.227C715.663 438.284 717.215 439.793 720.235 442.756L724.721 447.242L729.164 442.798C731.358 440.605 732.696 439.281 733.181 438.825C733.665 438.369 733.978 438.141 734.121 438.141C734.719 438.141 735.018 438.426 735.018 438.996C735.018 439.195 734.875 439.451 734.59 439.765C734.306 440.078 732.91 441.474 730.403 443.952L725.96 448.438L730.403 452.924C732.796 455.317 734.163 456.698 734.505 457.069C734.847 457.439 735.018 457.709 735.018 457.88Z" fill="white"/>
</g>
<g id="Group_21">
<path id="Vector_19" d="M751.732 446.856C751.76 446.685 751.803 446.457 751.86 446.173C751.917 445.888 752.088 445.347 752.373 444.549C752.658 443.751 752.942 443.082 753.227 442.541C753.512 442 753.982 441.473 754.637 440.96C755.292 440.447 755.948 440.205 756.603 440.234C757.628 440.234 758.483 440.49 759.166 441.003C759.85 441.516 760.277 442 760.448 442.455C760.619 442.911 760.704 443.21 760.704 443.353C760.704 443.41 760.719 443.438 760.747 443.438L761.217 442.968C762.954 441.145 764.934 440.234 767.156 440.234C768.694 440.234 769.933 440.618 770.873 441.387C771.813 442.156 772.297 443.281 772.326 444.763C772.354 446.244 771.813 448.48 770.702 451.471C769.591 454.461 769.05 456.27 769.078 456.897C769.078 457.637 769.321 458.008 769.805 458.008C769.976 458.008 770.104 457.993 770.189 457.965C771.015 457.822 771.756 457.281 772.411 456.341C773.066 455.401 773.565 454.262 773.906 452.923C773.963 452.695 774.248 452.581 774.761 452.581C775.331 452.581 775.615 452.695 775.615 452.923C775.615 452.952 775.559 453.165 775.445 453.564C775.217 454.39 774.903 455.202 774.505 455.999C774.106 456.797 773.451 457.595 772.539 458.392C771.628 459.19 770.645 459.574 769.591 459.546C768.252 459.546 767.284 459.161 766.686 458.392C766.088 457.623 765.789 456.825 765.789 455.999C765.789 455.458 766.301 453.749 767.327 450.872C768.352 447.996 768.879 445.831 768.908 444.378C768.908 442.698 768.281 441.857 767.028 441.857H766.814C764.364 441.857 762.299 443.296 760.619 446.173L760.32 446.685L758.91 452.411C757.97 456.142 757.429 458.15 757.286 458.435C756.916 459.204 756.304 459.588 755.449 459.588C755.079 459.588 754.78 459.503 754.552 459.332C754.324 459.161 754.167 458.99 754.082 458.819C753.996 458.648 753.968 458.506 753.996 458.392C753.996 458.022 754.538 455.7 755.62 451.428C756.702 447.155 757.272 444.834 757.329 444.464C757.357 444.321 757.372 443.994 757.372 443.481C757.372 442.37 757.03 441.815 756.346 441.815C755.264 441.815 754.367 443.239 753.655 446.087C753.484 446.657 753.398 446.956 753.398 446.984C753.341 447.155 753.071 447.241 752.586 447.241H751.988C751.817 447.07 751.732 446.942 751.732 446.856Z" fill="white"/>
</g>
</g>
<g id="Group 85">
<g id="Group_22">
<g id="Group_23">
<path id="Vector_20" d="M10.9377 567.729C12.6183 567.729 14.1564 566.989 15.5521 565.508C16.9478 564.027 17.6599 562.303 17.6883 560.338C17.6883 558.543 16.9478 557.304 15.4666 556.621C12.4474 555.852 10.5105 555.325 9.65596 555.04C8.80145 554.755 8.20329 554.47 7.86149 554.185C6.15247 552.989 5.29796 551.266 5.29796 549.016C5.29796 547.278 5.7537 545.697 6.66517 544.273C7.57665 542.849 8.50237 541.781 9.44233 541.069C10.2684 540.357 11.2653 539.787 12.4331 539.36C13.6009 538.932 14.5124 538.705 15.1675 538.676H15.6375H15.9366C18.671 538.676 20.6506 539.588 21.8754 541.411C21.9039 541.411 22.0891 541.225 22.4309 540.855C22.7727 540.485 23.143 540.072 23.5417 539.616C23.9405 539.16 24.2253 538.847 24.3962 538.676C24.4247 538.676 24.4817 538.676 24.5671 538.676C24.6526 538.676 24.7238 538.662 24.7808 538.633C25.1511 538.633 25.3362 538.733 25.3362 538.932C25.3362 539.132 24.9374 540.855 24.1399 544.102C23.3423 547.349 22.8866 549.03 22.7727 549.144C22.6587 549.258 22.4309 549.301 22.0891 549.272C21.5194 549.272 21.2346 549.144 21.2346 548.888C21.2346 548.717 21.2488 548.574 21.2773 548.46C21.2773 548.375 21.2915 548.104 21.32 547.648C21.3485 547.193 21.377 546.822 21.4055 546.538C21.4055 545.569 21.2773 544.729 21.0209 544.017C20.7646 543.305 20.5082 542.778 20.2519 542.436C19.9955 542.094 19.6395 541.738 19.1837 541.368C18.1583 540.77 16.9905 540.471 15.6802 540.471C14.0567 540.471 12.547 541.126 11.1513 542.436C9.75565 543.746 9.04356 545.256 9.01507 546.965C9.01507 547.819 9.2287 548.56 9.65596 549.187C10.0832 549.813 10.6671 550.255 11.4077 550.511C11.5216 550.568 12.5186 550.839 14.3985 551.323C16.2784 551.807 17.2326 552.063 17.2611 552.092C18.2295 552.405 19.1695 553.089 20.081 554.143C20.9924 555.197 21.4482 556.621 21.4482 558.415C21.4482 559.156 21.3343 559.953 21.1064 560.808C20.964 561.435 20.7076 562.132 20.3373 562.901C19.967 563.671 19.4543 564.511 18.7992 565.422C18.1441 566.334 17.2041 567.188 15.9793 567.986C14.7545 568.783 13.4158 569.325 11.9631 569.609C11.6213 569.666 11.1371 569.695 10.5105 569.695C7.69058 569.695 5.49734 568.912 3.93074 567.345L3.50349 566.875L2.30718 568.199C1.65205 568.968 1.25328 569.41 1.11086 569.524C0.968444 569.638 0.7833 569.695 0.555431 569.695C0.185144 569.695 0 569.581 0 569.353C0 569.268 0.826026 565.921 2.47808 559.313C2.53504 559.142 2.81988 559.056 3.33259 559.056H3.88802C4.05892 559.227 4.14437 559.384 4.14437 559.526C4.14437 559.583 4.13013 559.711 4.10164 559.911C4.07316 560.11 4.01619 560.409 3.93074 560.808C3.84529 561.207 3.81681 561.677 3.84529 562.218C3.90226 563.329 4.15861 564.269 4.61435 565.038C5.07009 565.807 5.68249 566.376 6.45155 566.747C7.2206 567.117 7.96118 567.373 8.67327 567.516C9.38536 567.658 10.1402 567.729 10.9377 567.729Z" fill="white"/>
</g>
<g id="Group_24">
<path id="Vector_21" d="M24.6033 566.492C24.6235 566.371 24.6537 566.21 24.694 566.009C24.7342 565.807 24.8551 565.425 25.0564 564.861C25.2578 564.297 25.4592 563.824 25.6606 563.441C25.862 563.058 26.1942 562.686 26.6574 562.323C27.1206 561.961 27.5837 561.79 28.0469 561.81C28.7719 561.81 29.376 561.991 29.8593 562.354C30.3426 562.716 30.6447 563.058 30.7655 563.381C30.8864 563.703 30.9468 563.914 30.9468 564.015C30.9468 564.055 30.9569 564.075 30.977 564.075L31.3093 563.743C32.5377 562.454 33.9373 561.81 35.508 561.81C36.5955 561.81 37.4715 562.082 38.136 562.626C38.8006 563.169 39.1429 563.965 39.1631 565.012C39.1832 566.059 38.8006 567.64 38.0152 569.754C37.2298 571.869 36.8472 573.148 36.8673 573.591C36.8673 574.114 37.0385 574.376 37.3809 574.376C37.5017 574.376 37.5923 574.366 37.6527 574.346C38.2367 574.245 38.7603 573.862 39.2235 573.198C39.6866 572.533 40.0391 571.728 40.2807 570.781C40.321 570.62 40.5224 570.54 40.8849 570.54C41.2876 570.54 41.489 570.62 41.489 570.781C41.489 570.802 41.4487 570.953 41.3682 571.234C41.2071 571.818 40.9855 572.392 40.7036 572.956C40.4217 573.52 39.9585 574.084 39.3141 574.648C38.6697 575.212 37.9749 575.484 37.2298 575.463C36.2833 575.463 35.5986 575.192 35.1758 574.648C34.7529 574.104 34.5414 573.54 34.5414 572.956C34.5414 572.574 34.9039 571.365 35.6289 569.331C36.3538 567.298 36.7264 565.767 36.7465 564.74C36.7465 563.552 36.3035 562.958 35.4174 562.958H35.2664C33.5345 562.958 32.0745 563.975 30.8864 566.009L30.6749 566.371L29.6781 570.419C29.0135 573.057 28.6309 574.477 28.5302 574.678C28.2684 575.222 27.8355 575.494 27.2313 575.494C26.9695 575.494 26.7581 575.433 26.597 575.312C26.4359 575.192 26.3251 575.071 26.2647 574.95C26.2043 574.829 26.1842 574.728 26.2043 574.648C26.2043 574.386 26.5869 572.745 27.3522 569.724C28.1174 566.703 28.5202 565.062 28.5604 564.8C28.5806 564.7 28.5906 564.468 28.5906 564.106C28.5906 563.32 28.349 562.928 27.8657 562.928C27.1004 562.928 26.4661 563.934 25.9626 565.948C25.8418 566.351 25.7814 566.562 25.7814 566.583C25.7411 566.703 25.5498 566.764 25.2075 566.764H24.7846C24.6637 566.643 24.6033 566.552 24.6033 566.492Z" fill="white"/>
</g>
</g>
<g id="Group_25">
<path id="Vector_22" d="M58.4906 553.925C58.4906 553.554 58.69 553.269 59.0888 553.07H86.3049C86.7321 553.298 86.9458 553.583 86.9458 553.925C86.9458 554.238 86.7464 554.509 86.3476 554.736L72.7609 554.779H59.1742C58.7185 554.637 58.4906 554.352 58.4906 553.925ZM58.4906 562.213C58.4906 561.786 58.7185 561.501 59.1742 561.359H86.3476C86.7464 561.644 86.9458 561.929 86.9458 562.213C86.9458 562.584 86.7321 562.868 86.3049 563.068H59.0888C58.69 562.868 58.4906 562.584 58.4906 562.213Z" fill="white"/>
</g>
<g id="Group_26">
<g id="Group_27">
<path id="Vector_23" d="M110.308 544.053L109.753 544.267C109.354 544.409 108.785 544.552 108.044 544.694C107.303 544.837 106.477 544.936 105.566 544.993H104.754V543.028H105.566C106.905 542.971 108.144 542.757 109.283 542.387C110.422 542.017 111.22 541.675 111.676 541.362C112.131 541.048 112.53 540.735 112.872 540.422C112.929 540.336 113.1 540.293 113.385 540.293C113.641 540.293 113.883 540.379 114.111 540.55V553.325L114.154 566.142C114.353 566.342 114.524 566.47 114.666 566.527C114.809 566.584 115.151 566.641 115.692 566.698C116.233 566.755 117.116 566.783 118.341 566.783H119.452V568.749H118.982C118.384 568.663 116.119 568.62 112.188 568.62C108.315 568.62 106.079 568.663 105.48 568.749H104.968V566.783H106.079C106.705 566.783 107.246 566.783 107.702 566.783C108.158 566.783 108.514 566.769 108.77 566.74C109.027 566.712 109.255 566.669 109.454 566.612C109.653 566.555 109.767 566.527 109.796 566.527C109.824 566.527 109.91 566.456 110.052 566.313C110.195 566.171 110.28 566.114 110.308 566.142V544.053Z" fill="white"/>
</g>
<g id="Group_28">
<path id="Vector_24" d="M125.864 538.143C125.32 538.143 124.887 537.962 124.565 537.6C124.243 537.237 124.082 536.794 124.082 536.27C124.082 534.841 124.615 533.602 125.683 532.555C126.75 531.508 128.079 530.984 129.67 530.984C131.502 530.984 133.033 531.548 134.261 532.676C135.49 533.804 136.114 535.264 136.134 537.056C136.134 537.922 135.933 538.747 135.53 539.533C135.127 540.318 134.644 541.003 134.08 541.587C133.516 542.171 132.711 542.916 131.663 543.822C130.939 544.446 129.932 545.373 128.643 546.601L126.861 548.293L129.156 548.323C132.318 548.323 133.999 548.273 134.201 548.172C134.342 548.132 134.583 547.236 134.926 545.484V545.393H136.134V545.484C136.114 545.544 135.983 546.46 135.741 548.232C135.5 550.005 135.349 550.931 135.288 551.011V551.102H124.082V550.528V550.166C124.082 550.025 124.142 549.874 124.263 549.713C124.384 549.551 124.686 549.199 125.169 548.655C125.753 548.011 126.256 547.447 126.679 546.964C126.861 546.762 127.203 546.39 127.706 545.846C128.21 545.302 128.552 544.93 128.733 544.728C128.915 544.527 129.207 544.195 129.609 543.732C130.012 543.268 130.294 542.926 130.455 542.705C130.616 542.483 130.848 542.181 131.15 541.798C131.452 541.416 131.663 541.093 131.784 540.832C131.905 540.57 132.056 540.278 132.237 539.956C132.419 539.633 132.55 539.311 132.63 538.989C132.711 538.667 132.781 538.365 132.842 538.083C132.902 537.801 132.932 537.469 132.932 537.086C132.932 535.817 132.59 534.72 131.905 533.793C131.22 532.867 130.244 532.404 128.975 532.404C128.311 532.404 127.727 532.575 127.223 532.917C126.72 533.26 126.367 533.592 126.166 533.914C125.964 534.237 125.864 534.428 125.864 534.488C125.864 534.508 125.914 534.518 126.015 534.518C126.377 534.518 126.75 534.659 127.132 534.941C127.515 535.223 127.706 535.686 127.706 536.331C127.706 536.834 127.545 537.257 127.223 537.6C126.901 537.942 126.448 538.123 125.864 538.143Z" fill="white"/>
</g>
</g>
<g id="Group_29">
<path id="Vector_25" d="M151.7 558.624C151.7 558.624 151.7 558.439 151.7 558.069C151.7 557.699 151.9 557.414 152.299 557.215H165.074V550.806L165.116 544.397C165.401 544.027 165.672 543.841 165.928 543.841C166.298 543.841 166.583 544.055 166.783 544.482V557.215H179.515C179.942 557.442 180.156 557.727 180.156 558.069C180.156 558.411 179.942 558.696 179.515 558.924H166.783V571.656C166.555 572.055 166.298 572.254 166.013 572.254H165.928H165.843C165.501 572.254 165.244 572.055 165.074 571.656V558.924H152.299C151.9 558.724 151.7 558.439 151.7 558.069V558.624Z" fill="white"/>
</g>
<g id="Group_30">
<g id="Group_31">
<path id="Vector_26" d="M196.699 550.419C195.93 550.419 195.317 550.163 194.862 549.65C194.406 549.138 194.178 548.511 194.178 547.77C194.178 545.748 194.933 543.996 196.443 542.515C197.952 541.034 199.832 540.293 202.082 540.293C204.674 540.293 206.839 541.091 208.577 542.686C210.314 544.281 211.197 546.346 211.226 548.881C211.226 550.106 210.941 551.274 210.371 552.385C209.801 553.496 209.118 554.464 208.32 555.29C207.523 556.116 206.383 557.17 204.902 558.452C203.877 559.335 202.453 560.645 200.63 562.382L198.109 564.775L201.356 564.818C205.828 564.818 208.206 564.747 208.491 564.604C208.691 564.547 209.032 563.28 209.517 560.802V560.673H211.226V560.802C211.197 560.887 211.012 562.183 210.67 564.69C210.328 567.196 210.115 568.506 210.029 568.62V568.749H194.178V567.937V567.424C194.178 567.225 194.264 567.011 194.434 566.783C194.605 566.555 195.033 566.057 195.716 565.288C196.542 564.376 197.254 563.579 197.852 562.895C198.109 562.61 198.593 562.083 199.305 561.314C200.017 560.545 200.501 560.018 200.758 559.733C201.014 559.449 201.427 558.979 201.997 558.324C202.567 557.668 202.965 557.184 203.193 556.871C203.421 556.558 203.749 556.13 204.176 555.589C204.603 555.048 204.902 554.592 205.073 554.222C205.244 553.852 205.458 553.439 205.714 552.983C205.97 552.527 206.155 552.071 206.269 551.616C206.383 551.16 206.483 550.733 206.568 550.334C206.654 549.935 206.697 549.465 206.697 548.924C206.697 547.129 206.212 545.577 205.244 544.267C204.276 542.957 202.894 542.301 201.1 542.301C200.16 542.301 199.334 542.544 198.622 543.028C197.909 543.512 197.411 543.982 197.126 544.438C196.841 544.893 196.699 545.164 196.699 545.25C196.699 545.278 196.77 545.292 196.913 545.292C197.425 545.292 197.952 545.492 198.493 545.89C199.035 546.289 199.305 546.944 199.305 547.856C199.305 548.568 199.077 549.166 198.622 549.65C198.166 550.134 197.525 550.391 196.699 550.419Z" fill="white"/>
</g>
<g id="Group_32">
<path id="Vector_27" d="M216.697 538.143C216.153 538.143 215.72 537.962 215.398 537.6C215.076 537.237 214.915 536.794 214.915 536.27C214.915 534.841 215.448 533.602 216.516 532.555C217.583 531.508 218.912 530.984 220.503 530.984C222.335 530.984 223.866 531.548 225.094 532.676C226.323 533.804 226.947 535.264 226.967 537.056C226.967 537.922 226.766 538.747 226.363 539.533C225.96 540.318 225.477 541.003 224.913 541.587C224.349 542.171 223.544 542.916 222.496 543.822C221.772 544.446 220.765 545.373 219.476 546.601L217.694 548.293L219.989 548.323C223.151 548.323 224.832 548.273 225.034 548.172C225.175 548.132 225.416 547.236 225.759 545.484V545.393H226.967V545.484C226.947 545.544 226.816 546.46 226.574 548.232C226.333 550.005 226.182 550.931 226.121 551.011V551.102H214.915V550.528V550.166C214.915 550.025 214.975 549.874 215.096 549.713C215.217 549.551 215.519 549.199 216.002 548.655C216.586 548.011 217.089 547.447 217.512 546.964C217.694 546.762 218.036 546.39 218.539 545.846C219.043 545.302 219.385 544.93 219.566 544.728C219.748 544.527 220.04 544.195 220.442 543.732C220.845 543.268 221.127 542.926 221.288 542.705C221.449 542.483 221.681 542.181 221.983 541.798C222.285 541.416 222.496 541.093 222.617 540.832C222.738 540.57 222.889 540.278 223.07 539.956C223.252 539.633 223.383 539.311 223.463 538.989C223.544 538.667 223.614 538.365 223.675 538.083C223.735 537.801 223.765 537.469 223.765 537.086C223.765 535.817 223.423 534.72 222.738 533.793C222.053 532.867 221.077 532.404 219.808 532.404C219.144 532.404 218.56 532.575 218.056 532.917C217.553 533.26 217.2 533.592 216.999 533.914C216.797 534.237 216.697 534.428 216.697 534.488C216.697 534.508 216.747 534.518 216.848 534.518C217.21 534.518 217.583 534.659 217.965 534.941C218.348 535.223 218.539 535.686 218.539 536.331C218.539 536.834 218.378 537.257 218.056 537.6C217.734 537.942 217.281 538.123 216.697 538.143Z" fill="white"/>
</g>
</g>
<g id="Group_33">
<path id="Vector_28" d="M242.535 558.624C242.535 558.624 242.535 558.439 242.535 558.069C242.535 557.699 242.734 557.414 243.133 557.215H255.908V550.806L255.95 544.397C256.235 544.027 256.506 543.841 256.762 543.841C257.132 543.841 257.417 544.055 257.617 544.482V557.215H270.349C270.776 557.442 270.99 557.727 270.99 558.069C270.99 558.411 270.776 558.696 270.349 558.924H257.617V571.656C257.389 572.055 257.132 572.254 256.848 572.254H256.762H256.677C256.335 572.254 256.079 572.055 255.908 571.656V558.924H243.133C242.734 558.724 242.535 558.439 242.535 558.069V558.624Z" fill="white"/>
</g>
<g id="Group_34">
<g id="Group_35">
<path id="Vector_29" d="M288.303 548.968C287.534 548.968 286.936 548.725 286.508 548.241C286.081 547.757 285.853 547.13 285.825 546.361C285.825 544.795 286.508 543.399 287.876 542.174C289.243 540.949 290.895 540.337 292.832 540.337C293.829 540.337 294.455 540.351 294.712 540.38C296.819 540.722 298.429 541.476 299.54 542.644C300.65 543.812 301.22 545.08 301.249 546.447C301.249 547.928 300.764 549.366 299.796 550.762C298.828 552.158 297.489 553.169 295.78 553.796L295.652 553.881C295.652 553.91 295.78 553.952 296.036 554.009C296.292 554.066 296.705 554.194 297.275 554.394C297.845 554.593 298.386 554.892 298.899 555.291C301.234 556.801 302.402 558.794 302.402 561.273C302.402 563.523 301.519 565.488 299.753 567.169C297.987 568.849 295.751 569.689 293.045 569.689C290.767 569.689 288.801 569.077 287.149 567.852C285.497 566.627 284.671 565.075 284.671 563.195C284.671 562.398 284.927 561.757 285.44 561.273C285.953 560.788 286.594 560.532 287.363 560.503C288.16 560.503 288.816 560.76 289.328 561.273C289.841 561.785 290.097 562.426 290.097 563.195C290.097 563.509 290.055 563.793 289.969 564.05C289.884 564.306 289.784 564.534 289.67 564.733C289.556 564.933 289.399 565.104 289.2 565.246C289.001 565.388 288.83 565.502 288.687 565.588C288.545 565.673 288.403 565.73 288.26 565.759C288.118 565.787 288.004 565.83 287.918 565.887L287.747 565.93C289.2 567.211 290.966 567.852 293.045 567.852C294.612 567.852 295.794 567.097 296.592 565.588C297.076 564.648 297.318 563.209 297.318 561.273V560.418C297.318 557.712 296.406 555.903 294.583 554.992C294.156 554.821 293.287 554.721 291.977 554.693L290.183 554.65L290.055 554.565C289.998 554.479 289.969 554.251 289.969 553.881C289.969 553.368 290.083 553.112 290.311 553.112C291.108 553.112 291.934 553.041 292.789 552.898C293.757 552.756 294.64 552.158 295.438 551.104C296.236 550.05 296.634 548.455 296.634 546.319V545.977C296.634 544.353 296.136 543.228 295.139 542.602C294.512 542.203 293.843 542.003 293.131 542.003C292.219 542.003 291.379 542.16 290.61 542.473C289.841 542.787 289.3 543.114 288.986 543.456C288.673 543.798 288.516 543.969 288.516 543.969H288.645C288.73 543.997 288.844 544.026 288.986 544.054C289.129 544.083 289.271 544.154 289.414 544.268C289.556 544.382 289.727 544.481 289.926 544.567C290.126 544.652 290.268 544.809 290.354 545.037C290.439 545.265 290.553 545.478 290.695 545.678C290.838 545.877 290.881 546.162 290.824 546.532C290.824 547.159 290.624 547.714 290.225 548.199C289.827 548.683 289.186 548.939 288.303 548.968Z" fill="white"/>
</g>
<g id="Group_36">
<path id="Vector_30" d="M307.532 538.143C306.989 538.143 306.556 537.962 306.233 537.6C305.911 537.237 305.75 536.794 305.75 536.27C305.75 534.841 306.284 533.602 307.351 532.555C308.418 531.508 309.748 530.984 311.338 530.984C313.171 530.984 314.701 531.548 315.93 532.676C317.158 533.804 317.783 535.264 317.803 537.056C317.803 537.922 317.601 538.747 317.199 539.533C316.796 540.318 316.312 541.003 315.749 541.587C315.185 542.171 314.379 542.916 313.332 543.822C312.607 544.446 311.6 545.373 310.311 546.601L308.529 548.293L310.825 548.323C313.987 548.323 315.668 548.273 315.869 548.172C316.01 548.132 316.252 547.236 316.594 545.484V545.393H317.803V545.484C317.783 545.544 317.652 546.46 317.41 548.232C317.168 550.005 317.017 550.931 316.957 551.011V551.102H305.75V550.528V550.166C305.75 550.025 305.811 549.874 305.931 549.713C306.052 549.551 306.354 549.199 306.838 548.655C307.422 548.011 307.925 547.447 308.348 546.964C308.529 546.762 308.872 546.39 309.375 545.846C309.878 545.302 310.221 544.93 310.402 544.728C310.583 544.527 310.875 544.195 311.278 543.732C311.681 543.268 311.963 542.926 312.124 542.705C312.285 542.483 312.516 542.181 312.819 541.798C313.121 541.416 313.332 541.093 313.453 540.832C313.574 540.57 313.725 540.278 313.906 539.956C314.087 539.633 314.218 539.311 314.299 538.989C314.379 538.667 314.45 538.365 314.51 538.083C314.571 537.801 314.601 537.469 314.601 537.086C314.601 535.817 314.258 534.72 313.574 533.793C312.889 532.867 311.912 532.404 310.644 532.404C309.979 532.404 309.395 532.575 308.892 532.917C308.388 533.26 308.036 533.592 307.834 533.914C307.633 534.237 307.532 534.428 307.532 534.488C307.532 534.508 307.583 534.518 307.683 534.518C308.046 534.518 308.418 534.659 308.801 534.941C309.184 535.223 309.375 535.686 309.375 536.331C309.375 536.834 309.214 537.257 308.892 537.6C308.569 537.942 308.116 538.123 307.532 538.143Z" fill="white"/>
</g>
</g>
<g id="Group_37">
<path id="Vector_31" d="M333.369 558.624C333.369 558.624 333.369 558.439 333.369 558.069C333.369 557.699 333.568 557.414 333.967 557.215H346.742V550.806L346.785 544.397C347.07 544.027 347.34 543.841 347.596 543.841C347.967 543.841 348.252 544.055 348.451 544.482V557.215H361.183C361.61 557.442 361.824 557.727 361.824 558.069C361.824 558.411 361.61 558.696 361.183 558.924H348.451V571.656C348.223 572.055 347.967 572.254 347.682 572.254H347.596H347.511C347.169 572.254 346.913 572.055 346.742 571.656V558.924H333.967C333.568 558.724 333.369 558.439 333.369 558.069V558.624Z" fill="white"/>
</g>
<g id="Group_38">
<path id="Vector_32" d="M377.044 558.071C377.044 557.387 377.286 556.789 377.77 556.276C378.254 555.764 378.867 555.507 379.607 555.507C380.291 555.507 380.889 555.735 381.402 556.191C381.914 556.647 382.185 557.259 382.213 558.028C382.213 558.74 381.971 559.353 381.487 559.865C381.003 560.378 380.39 560.634 379.65 560.634C378.909 560.634 378.297 560.392 377.813 559.908C377.328 559.424 377.072 558.811 377.044 558.071ZM396.142 558.071C396.142 557.387 396.384 556.789 396.868 556.276C397.352 555.764 397.965 555.507 398.705 555.507C399.389 555.507 399.987 555.735 400.5 556.191C401.013 556.647 401.283 557.259 401.312 558.028C401.312 558.74 401.07 559.353 400.585 559.865C400.101 560.378 399.489 560.634 398.748 560.634C398.008 560.634 397.395 560.392 396.911 559.908C396.427 559.424 396.17 558.811 396.142 558.071ZM415.24 558.071C415.24 557.387 415.482 556.789 415.966 556.276C416.451 555.764 417.063 555.507 417.804 555.507C418.487 555.507 419.085 555.735 419.598 556.191C420.111 556.647 420.381 557.259 420.41 558.028C420.41 558.74 420.168 559.353 419.684 559.865C419.199 560.378 418.587 560.634 417.846 560.634C417.106 560.634 416.493 560.392 416.009 559.908C415.525 559.424 415.269 558.811 415.24 558.071Z" fill="white"/>
</g>
<g id="Group_39">
<path id="Vector_33" d="M435.671 558.624C435.671 558.624 435.671 558.439 435.671 558.069C435.671 557.699 435.871 557.414 436.269 557.215H449.044V550.806L449.087 544.397C449.372 544.027 449.642 543.841 449.899 543.841C450.269 543.841 450.554 544.055 450.753 544.482V557.215H463.485C463.913 557.442 464.126 557.727 464.126 558.069C464.126 558.411 463.913 558.696 463.485 558.924H450.753V571.656C450.525 572.055 450.269 572.254 449.984 572.254H449.899H449.813C449.471 572.254 449.215 572.055 449.044 571.656V558.924H436.269C435.871 558.724 435.671 558.439 435.671 558.069V558.624Z" fill="white"/>
</g>
<g id="Group_40">
<g id="Group_41">
<path id="Vector_34" d="M476.91 556.489C476.939 556.319 476.981 556.091 477.038 555.806C477.095 555.521 477.266 554.98 477.551 554.182C477.836 553.385 478.121 552.715 478.406 552.174C478.69 551.633 479.16 551.106 479.815 550.593C480.471 550.081 481.126 549.839 481.781 549.867C482.806 549.867 483.661 550.123 484.344 550.636C485.028 551.149 485.455 551.633 485.626 552.089C485.797 552.545 485.883 552.844 485.883 552.986C485.883 553.043 485.897 553.071 485.925 553.071L486.395 552.601C488.133 550.779 490.112 549.867 492.334 549.867C493.872 549.867 495.111 550.252 496.051 551.021C496.991 551.79 497.475 552.915 497.504 554.396C497.532 555.877 496.991 558.113 495.88 561.104C494.769 564.095 494.228 565.903 494.257 566.53C494.257 567.271 494.499 567.641 494.983 567.641C495.154 567.641 495.282 567.627 495.368 567.598C496.194 567.456 496.934 566.915 497.589 565.975C498.244 565.035 498.743 563.895 499.085 562.557C499.142 562.329 499.426 562.215 499.939 562.215C500.509 562.215 500.794 562.329 500.794 562.557C500.794 562.585 500.737 562.799 500.623 563.197C500.395 564.023 500.082 564.835 499.683 565.633C499.284 566.43 498.629 567.228 497.717 568.025C496.806 568.823 495.823 569.207 494.769 569.179C493.431 569.179 492.462 568.794 491.864 568.025C491.266 567.256 490.967 566.459 490.967 565.633C490.967 565.092 491.48 563.383 492.505 560.506C493.53 557.629 494.057 555.464 494.086 554.011C494.086 552.331 493.459 551.491 492.206 551.491H491.992C489.543 551.491 487.478 552.929 485.797 555.806L485.498 556.319L484.088 562.044C483.148 565.775 482.607 567.783 482.464 568.068C482.094 568.837 481.482 569.222 480.627 569.222C480.257 569.222 479.958 569.136 479.73 568.965C479.502 568.794 479.346 568.624 479.26 568.453C479.175 568.282 479.146 568.139 479.175 568.025C479.175 567.655 479.716 565.334 480.798 561.061C481.881 556.789 482.45 554.467 482.507 554.097C482.536 553.954 482.55 553.627 482.55 553.114C482.55 552.003 482.208 551.448 481.525 551.448C480.442 551.448 479.545 552.872 478.833 555.72C478.662 556.29 478.576 556.589 478.576 556.618C478.519 556.789 478.249 556.874 477.765 556.874H477.167C476.996 556.703 476.91 556.575 476.91 556.489Z" fill="white"/>
</g>
<g id="Group_42">
<path id="Vector_35" d="M504.94 538.147C504.397 538.147 503.964 537.966 503.641 537.603C503.319 537.241 503.158 536.798 503.158 536.274C503.158 534.845 503.692 533.606 504.759 532.559C505.826 531.512 507.155 530.988 508.746 530.988C510.579 530.988 512.109 531.552 513.338 532.68C514.566 533.807 515.19 535.267 515.211 537.06C515.211 537.926 515.009 538.751 514.606 539.537C514.204 540.322 513.72 541.007 513.157 541.591C512.593 542.175 511.787 542.92 510.74 543.826C510.015 544.45 509.008 545.377 507.719 546.605L505.937 548.297L508.233 548.327C511.394 548.327 513.076 548.277 513.277 548.176C513.418 548.136 513.66 547.239 514.002 545.487V545.397H515.211V545.487C515.19 545.548 515.06 546.464 514.818 548.236C514.576 550.008 514.425 550.935 514.365 551.015V551.106H503.158V550.532V550.17C503.158 550.029 503.218 549.878 503.339 549.716C503.46 549.555 503.762 549.203 504.246 548.659C504.83 548.015 505.333 547.451 505.756 546.968C505.937 546.766 506.279 546.394 506.783 545.85C507.286 545.306 507.629 544.934 507.81 544.732C507.991 544.531 508.283 544.199 508.686 543.735C509.089 543.272 509.371 542.93 509.532 542.708C509.693 542.487 509.924 542.185 510.226 541.802C510.529 541.42 510.74 541.097 510.861 540.836C510.982 540.574 511.133 540.282 511.314 539.96C511.495 539.637 511.626 539.315 511.707 538.993C511.787 538.671 511.858 538.369 511.918 538.087C511.978 537.805 512.009 537.473 512.009 537.09C512.009 535.821 511.666 534.724 510.982 533.797C510.297 532.871 509.32 532.408 508.052 532.408C507.387 532.408 506.803 532.579 506.3 532.921C505.796 533.264 505.444 533.596 505.242 533.918C505.041 534.24 504.94 534.432 504.94 534.492C504.94 534.512 504.991 534.522 505.091 534.522C505.454 534.522 505.826 534.663 506.209 534.945C506.592 535.227 506.783 535.69 506.783 536.335C506.783 536.838 506.622 537.261 506.3 537.603C505.977 537.946 505.524 538.127 504.94 538.147Z" fill="white"/>
</g>
</g>
<g id="Group_43">
<path id="Vector_36" d="M533.154 553.925C533.154 553.554 533.353 553.269 533.752 553.07H560.968C561.395 553.298 561.609 553.583 561.609 553.925C561.609 554.238 561.409 554.509 561.011 554.736L547.424 554.779H533.837C533.381 554.637 533.154 554.352 533.154 553.925ZM533.154 562.213C533.154 561.786 533.381 561.501 533.837 561.359H561.011C561.409 561.644 561.609 561.929 561.609 562.213C561.609 562.584 561.395 562.868 560.968 563.068H533.752C533.353 562.868 533.154 562.584 533.154 562.213Z" fill="white"/>
</g>
<g id="Group_44">
<g id="Group_45">
<g id="Group_46">
<path id="Vector_37" d="M586.164 526.154C586.192 525.983 586.235 525.755 586.292 525.47C586.349 525.186 586.52 524.644 586.804 523.847C587.089 523.049 587.374 522.38 587.659 521.839C587.944 521.298 588.414 520.771 589.069 520.258C589.724 519.745 590.379 519.503 591.034 519.532C592.06 519.532 592.914 519.788 593.598 520.301C594.281 520.813 594.709 521.298 594.88 521.753C595.05 522.209 595.136 522.508 595.136 522.651C595.136 522.708 595.15 522.736 595.179 522.736L595.649 522.266C597.386 520.443 599.366 519.532 601.587 519.532C603.126 519.532 604.365 519.916 605.305 520.685C606.245 521.454 606.729 522.579 606.757 524.06C606.786 525.542 606.245 527.778 605.134 530.768C604.023 533.759 603.482 535.568 603.51 536.195C603.51 536.935 603.752 537.305 604.236 537.305C604.407 537.305 604.536 537.291 604.621 537.263C605.447 537.12 606.188 536.579 606.843 535.639C607.498 534.699 607.996 533.56 608.338 532.221C608.395 531.993 608.68 531.879 609.193 531.879C609.762 531.879 610.047 531.993 610.047 532.221C610.047 532.25 609.99 532.463 609.876 532.862C609.648 533.688 609.335 534.5 608.936 535.297C608.537 536.095 607.882 536.892 606.971 537.69C606.059 538.487 605.077 538.872 604.023 538.844C602.684 538.844 601.716 538.459 601.117 537.69C600.519 536.921 600.22 536.123 600.22 535.297C600.22 534.756 600.733 533.047 601.758 530.17C602.784 527.293 603.311 525.129 603.339 523.676C603.339 521.995 602.713 521.155 601.459 521.155H601.246C598.796 521.155 596.731 522.594 595.05 525.47L594.751 525.983L593.341 531.708C592.401 535.44 591.86 537.448 591.718 537.733C591.348 538.502 590.735 538.886 589.881 538.886C589.51 538.886 589.211 538.801 588.983 538.63C588.756 538.459 588.599 538.288 588.513 538.117C588.428 537.946 588.4 537.804 588.428 537.69C588.428 537.32 588.969 534.998 590.052 530.726C591.134 526.453 591.704 524.132 591.761 523.761C591.789 523.619 591.803 523.291 591.803 522.779C591.803 521.668 591.462 521.112 590.778 521.112C589.696 521.112 588.798 522.537 588.086 525.385C587.915 525.955 587.83 526.254 587.83 526.282C587.773 526.453 587.502 526.539 587.018 526.539H586.42C586.249 526.368 586.164 526.239 586.164 526.154Z" fill="white"/>
</g>
<g id="Group_47">
<path id="Vector_38" d="M647.313 537.179C647.313 537.748 647.013 538.033 646.415 538.033C646.273 538.033 645.96 537.805 645.475 537.35C644.991 536.894 643.652 535.569 641.459 533.376L637.016 528.933L632.53 533.419C629.51 536.381 627.958 537.891 627.872 537.948C627.759 538.005 627.659 538.033 627.573 538.033C627.346 538.033 627.146 537.948 626.975 537.777C626.804 537.606 626.705 537.407 626.676 537.179C626.676 536.979 626.876 536.666 627.274 536.239C627.673 535.811 629.012 534.459 631.29 532.18L635.734 527.736L631.29 523.293C628.983 520.986 627.645 519.633 627.274 519.234C626.904 518.835 626.705 518.522 626.676 518.294C626.676 518.038 626.762 517.838 626.933 517.696C627.103 517.553 627.317 517.482 627.573 517.482C627.716 517.482 627.815 517.496 627.872 517.525C627.958 517.582 629.51 519.092 632.53 522.054L637.016 526.54L641.459 522.097C643.652 519.903 644.991 518.579 645.475 518.123C645.96 517.667 646.273 517.44 646.415 517.44C647.013 517.44 647.313 517.724 647.313 518.294C647.313 518.493 647.17 518.75 646.885 519.063C646.6 519.376 645.205 520.772 642.698 523.25L638.255 527.736L642.698 532.223C645.091 534.615 646.458 535.997 646.8 536.367C647.142 536.737 647.313 537.008 647.313 537.179Z" fill="white"/>
</g>
<g id="Group_48">
<path id="Vector_39" d="M667.145 527.734C667.145 525.769 667.287 523.903 667.572 522.137C667.857 520.371 668.185 518.848 668.555 517.566C668.925 516.284 669.452 515.031 670.136 513.806C670.819 512.581 671.36 511.627 671.759 510.943C672.158 510.26 672.756 509.519 673.554 508.722C674.351 507.924 674.821 507.44 674.964 507.269C675.106 507.098 675.462 506.799 676.032 506.372H676.587H676.758C677.157 506.372 677.356 506.5 677.356 506.756C677.356 506.842 677.114 507.141 676.63 507.653C676.146 508.166 675.562 508.921 674.878 509.918C674.195 510.915 673.497 512.14 672.785 513.592C672.073 515.045 671.474 517.01 670.99 519.488C670.506 521.967 670.264 524.715 670.264 527.734C670.264 530.754 670.506 533.488 670.99 535.938C671.474 538.387 672.058 540.367 672.742 541.877C673.426 543.386 674.123 544.611 674.835 545.551C675.548 546.491 676.146 547.246 676.63 547.815C677.114 548.385 677.356 548.684 677.356 548.713C677.356 548.969 677.143 549.097 676.715 549.097H676.587H676.032L674.835 548.072C672.158 545.651 670.207 542.631 668.982 539.014C667.757 535.397 667.145 531.637 667.145 527.734Z" fill="white"/>
</g>
<g id="Group_49">
<path id="Vector_40" d="M680.647 526.154C680.675 525.983 680.718 525.755 680.775 525.47C680.832 525.186 681.003 524.644 681.288 523.847C681.573 523.049 681.858 522.38 682.142 521.839C682.427 521.298 682.897 520.771 683.552 520.258C684.207 519.745 684.863 519.503 685.518 519.532C686.543 519.532 687.398 519.788 688.081 520.301C688.765 520.813 689.192 521.298 689.363 521.753C689.534 522.209 689.619 522.508 689.619 522.651C689.619 522.708 689.634 522.736 689.662 522.736L690.132 522.266C691.87 520.443 693.849 519.532 696.071 519.532C697.609 519.532 698.848 519.916 699.788 520.685C700.728 521.454 701.212 522.579 701.241 524.06C701.269 525.542 700.728 527.778 699.617 530.768C698.506 533.759 697.965 535.568 697.994 536.195C697.994 536.935 698.236 537.305 698.72 537.305C698.891 537.305 699.019 537.291 699.104 537.263C699.93 537.12 700.671 536.579 701.326 535.639C701.981 534.699 702.48 533.56 702.821 532.221C702.878 531.993 703.163 531.879 703.676 531.879C704.246 531.879 704.531 531.993 704.531 532.221C704.531 532.25 704.474 532.463 704.36 532.862C704.132 533.688 703.818 534.5 703.42 535.297C703.021 536.095 702.366 536.892 701.454 537.69C700.543 538.487 699.56 538.872 698.506 538.844C697.167 538.844 696.199 538.459 695.601 537.69C695.003 536.921 694.704 536.123 694.704 535.297C694.704 534.756 695.216 533.047 696.242 530.17C697.267 527.293 697.794 525.129 697.823 523.676C697.823 521.995 697.196 521.155 695.943 521.155H695.729C693.279 521.155 691.214 522.594 689.534 525.47L689.235 525.983L687.825 531.708C686.885 535.44 686.344 537.448 686.201 537.733C685.831 538.502 685.219 538.886 684.364 538.886C683.994 538.886 683.695 538.801 683.467 538.63C683.239 538.459 683.082 538.288 682.997 538.117C682.911 537.946 682.883 537.804 682.911 537.69C682.911 537.32 683.453 534.998 684.535 530.726C685.617 526.453 686.187 524.132 686.244 523.761C686.272 523.619 686.287 523.291 686.287 522.779C686.287 521.668 685.945 521.112 685.261 521.112C684.179 521.112 683.282 522.537 682.57 525.385C682.399 525.955 682.313 526.254 682.313 526.282C682.256 526.453 681.986 526.539 681.501 526.539H680.903C680.732 526.368 680.647 526.239 680.647 526.154Z" fill="white"/>
</g>
<g id="Group_50">
<path id="Vector_41" d="M717.275 528.29C717.275 528.29 717.275 528.105 717.275 527.735C717.275 527.364 717.475 527.079 717.873 526.88H730.648V520.471L730.691 514.062C730.976 513.692 731.246 513.507 731.503 513.507C731.873 513.507 732.158 513.721 732.357 514.148V526.88H745.089C745.517 527.108 745.73 527.393 745.73 527.735C745.73 528.076 745.517 528.361 745.089 528.589H732.357V541.321C732.129 541.72 731.873 541.919 731.588 541.919H731.503H731.417C731.075 541.919 730.819 541.72 730.648 541.321V528.589H717.873C717.475 528.39 717.275 528.105 717.275 527.735V528.29Z" fill="white"/>
</g>
<g id="Group_51">
<path id="Vector_42" d="M766.718 513.718L766.162 513.932C765.763 514.074 765.194 514.217 764.453 514.359C763.713 514.502 762.887 514.601 761.975 514.658H761.163V512.693H761.975C763.314 512.636 764.553 512.422 765.692 512.052C766.832 511.682 767.629 511.34 768.085 511.027C768.541 510.713 768.939 510.4 769.281 510.087C769.338 510.001 769.509 509.958 769.794 509.958C770.05 509.958 770.292 510.044 770.52 510.215V522.99L770.563 535.807C770.762 536.007 770.933 536.135 771.076 536.192C771.218 536.249 771.56 536.306 772.101 536.363C772.642 536.42 773.525 536.448 774.75 536.448H775.861V538.414H775.391C774.793 538.328 772.528 538.285 768.598 538.285C764.724 538.285 762.488 538.328 761.89 538.414H761.377V536.448H762.488C763.114 536.448 763.656 536.448 764.111 536.448C764.567 536.448 764.923 536.434 765.18 536.405C765.436 536.377 765.664 536.334 765.863 536.277C766.063 536.22 766.176 536.192 766.205 536.192C766.233 536.192 766.319 536.121 766.461 535.978C766.604 535.836 766.689 535.779 766.718 535.807V513.718Z" fill="white"/>
</g>
<g id="Group_52">
<path id="Vector_43" d="M781.542 506.414L781.713 506.372C781.856 506.372 781.998 506.372 782.14 506.372H782.653L783.849 507.397C786.527 509.818 788.478 512.837 789.703 516.455C790.928 520.072 791.54 523.832 791.54 527.734C791.54 529.671 791.398 531.537 791.113 533.331C790.828 535.126 790.5 536.65 790.13 537.903C789.76 539.156 789.233 540.41 788.549 541.663C787.866 542.916 787.324 543.87 786.926 544.526C786.527 545.181 785.943 545.907 785.174 546.705C784.405 547.502 783.949 547.972 783.807 548.114C783.664 548.257 783.337 548.527 782.824 548.926C782.739 549.012 782.682 549.069 782.653 549.097H782.14C781.913 549.097 781.756 549.097 781.67 549.097C781.585 549.097 781.514 549.054 781.457 548.969C781.4 548.884 781.357 548.755 781.329 548.584C781.357 548.556 781.514 548.371 781.799 548.029C786.214 543.443 788.421 536.678 788.421 527.734C788.421 518.791 786.214 512.026 781.799 507.44C781.514 507.098 781.357 506.913 781.329 506.884C781.329 506.657 781.4 506.5 781.542 506.414Z" fill="white"/>
</g>
<g id="Group_53">
<path id="Vector_44" d="M832.01 537.179C832.01 537.748 831.711 538.033 831.113 538.033C830.97 538.033 830.657 537.805 830.173 537.35C829.688 536.894 828.35 535.569 826.156 533.376L821.713 528.933L817.227 533.419C814.208 536.381 812.655 537.891 812.57 537.948C812.456 538.005 812.356 538.033 812.271 538.033C812.043 538.033 811.843 537.948 811.672 537.777C811.502 537.606 811.402 537.407 811.373 537.179C811.373 536.979 811.573 536.666 811.972 536.239C812.37 535.811 813.709 534.459 815.988 532.18L820.431 527.736L815.988 523.293C813.681 520.986 812.342 519.633 811.972 519.234C811.601 518.835 811.402 518.522 811.373 518.294C811.373 518.038 811.459 517.838 811.63 517.696C811.801 517.553 812.014 517.482 812.271 517.482C812.413 517.482 812.513 517.496 812.57 517.525C812.655 517.582 814.208 519.092 817.227 522.054L821.713 526.54L826.156 522.097C828.35 519.903 829.688 518.579 830.173 518.123C830.657 517.667 830.97 517.44 831.113 517.44C831.711 517.44 832.01 517.724 832.01 518.294C832.01 518.493 831.867 518.75 831.583 519.063C831.298 519.376 829.902 520.772 827.395 523.25L822.952 527.736L827.395 532.223C829.788 534.615 831.155 535.997 831.497 536.367C831.839 536.737 832.01 537.008 832.01 537.179Z" fill="white"/>
</g>
<g id="Group_54">
<path id="Vector_45" d="M851.843 527.734C851.843 525.769 851.986 523.903 852.271 522.137C852.555 520.371 852.883 518.848 853.253 517.566C853.623 516.284 854.15 515.031 854.834 513.806C855.518 512.581 856.059 511.627 856.458 510.943C856.856 510.26 857.455 509.519 858.252 508.722C859.05 507.924 859.52 507.44 859.662 507.269C859.804 507.098 860.16 506.799 860.73 506.372H861.286H861.456C861.855 506.372 862.055 506.5 862.055 506.756C862.055 506.842 861.813 507.141 861.328 507.653C860.844 508.166 860.26 508.921 859.577 509.918C858.893 510.915 858.195 512.14 857.483 513.592C856.771 515.045 856.173 517.01 855.689 519.488C855.204 521.967 854.962 524.715 854.962 527.734C854.962 530.754 855.204 533.488 855.689 535.938C856.173 538.387 856.757 540.367 857.44 541.877C858.124 543.386 858.822 544.611 859.534 545.551C860.246 546.491 860.844 547.246 861.328 547.815C861.813 548.385 862.055 548.684 862.055 548.713C862.055 548.969 861.841 549.097 861.414 549.097H861.286H860.73L859.534 548.072C856.856 545.651 854.905 542.631 853.68 539.014C852.456 535.397 851.843 531.637 851.843 527.734Z" fill="white"/>
</g>
<g id="Group_55">
<path id="Vector_46" d="M869.105 520.084C868.336 520.084 867.723 519.828 867.267 519.315C866.812 518.803 866.584 518.176 866.584 517.435C866.584 515.413 867.339 513.661 868.848 512.18C870.358 510.699 872.238 509.958 874.488 509.958C877.08 509.958 879.245 510.756 880.982 512.351C882.72 513.946 883.603 516.011 883.631 518.546C883.631 519.771 883.346 520.939 882.777 522.05C882.207 523.161 881.524 524.129 880.726 524.955C879.928 525.781 878.789 526.835 877.308 528.117C876.283 529 874.858 530.31 873.035 532.047L870.515 534.44L873.762 534.483C878.234 534.483 880.612 534.412 880.897 534.269C881.096 534.212 881.438 532.945 881.922 530.467V530.338H883.631V530.467C883.603 530.552 883.418 531.848 883.076 534.355C882.734 536.861 882.52 538.171 882.435 538.285V538.414H866.584V537.602V537.089C866.584 536.89 866.669 536.676 866.84 536.448C867.011 536.22 867.438 535.722 868.122 534.953C868.948 534.041 869.66 533.244 870.258 532.56C870.515 532.275 870.999 531.748 871.711 530.979C872.423 530.21 872.907 529.683 873.164 529.399C873.42 529.114 873.833 528.644 874.403 527.989C874.972 527.333 875.371 526.849 875.599 526.536C875.827 526.223 876.154 525.795 876.582 525.254C877.009 524.713 877.308 524.257 877.479 523.887C877.65 523.517 877.863 523.104 878.12 522.648C878.376 522.192 878.561 521.736 878.675 521.281C878.789 520.825 878.889 520.398 878.974 519.999C879.06 519.6 879.102 519.13 879.102 518.589C879.102 516.794 878.618 515.242 877.65 513.932C876.681 512.622 875.3 511.967 873.505 511.967C872.565 511.967 871.739 512.209 871.027 512.693C870.315 513.177 869.817 513.647 869.532 514.103C869.247 514.559 869.105 514.829 869.105 514.915C869.105 514.943 869.176 514.957 869.318 514.957C869.831 514.957 870.358 515.157 870.899 515.555C871.44 515.954 871.711 516.609 871.711 517.521C871.711 518.233 871.483 518.831 871.027 519.315C870.572 519.8 869.931 520.056 869.105 520.084Z" fill="white"/>
</g>
<g id="Group_56">
<path id="Vector_47" d="M886.708 526.154C886.736 525.983 886.779 525.755 886.836 525.47C886.893 525.186 887.064 524.644 887.349 523.847C887.633 523.049 887.918 522.38 888.203 521.839C888.488 521.298 888.958 520.771 889.613 520.258C890.268 519.745 890.923 519.503 891.578 519.532C892.604 519.532 893.458 519.788 894.142 520.301C894.825 520.813 895.253 521.298 895.424 521.753C895.595 522.209 895.68 522.508 895.68 522.651C895.68 522.708 895.694 522.736 895.723 522.736L896.193 522.266C897.93 520.443 899.91 519.532 902.132 519.532C903.67 519.532 904.909 519.916 905.849 520.685C906.789 521.454 907.273 522.579 907.301 524.06C907.33 525.542 906.789 527.778 905.678 530.768C904.567 533.759 904.026 535.568 904.054 536.195C904.054 536.935 904.296 537.305 904.781 537.305C904.951 537.305 905.08 537.291 905.165 537.263C905.991 537.12 906.732 536.579 907.387 535.639C908.042 534.699 908.54 533.56 908.882 532.221C908.939 531.993 909.224 531.879 909.737 531.879C910.306 531.879 910.591 531.993 910.591 532.221C910.591 532.25 910.534 532.463 910.42 532.862C910.192 533.688 909.879 534.5 909.48 535.297C909.082 536.095 908.426 536.892 907.515 537.69C906.603 538.487 905.621 538.872 904.567 538.844C903.228 538.844 902.26 538.459 901.662 537.69C901.063 536.921 900.764 536.123 900.764 535.297C900.764 534.756 901.277 533.047 902.302 530.17C903.328 527.293 903.855 525.129 903.883 523.676C903.883 521.995 903.257 521.155 902.003 521.155H901.79C899.34 521.155 897.275 522.594 895.595 525.47L895.295 525.983L893.886 531.708C892.946 535.44 892.404 537.448 892.262 537.733C891.892 538.502 891.279 538.886 890.425 538.886C890.054 538.886 889.755 538.801 889.528 538.63C889.3 538.459 889.143 538.288 889.058 538.117C888.972 537.946 888.944 537.804 888.972 537.69C888.972 537.32 889.513 534.998 890.596 530.726C891.678 526.453 892.248 524.132 892.305 523.761C892.333 523.619 892.347 523.291 892.347 522.779C892.347 521.668 892.006 521.112 891.322 521.112C890.24 521.112 889.342 522.537 888.63 525.385C888.459 525.955 888.374 526.254 888.374 526.282C888.317 526.453 888.046 526.539 887.562 526.539H886.964C886.793 526.368 886.708 526.239 886.708 526.154Z" fill="white"/>
</g>
<g id="Group_57">
<path id="Vector_48" d="M923.336 528.29C923.336 528.29 923.336 528.105 923.336 527.735C923.336 527.364 923.536 527.079 923.934 526.88H936.709V520.471L936.752 514.062C937.037 513.692 937.307 513.507 937.564 513.507C937.934 513.507 938.219 513.721 938.418 514.148V526.88H951.15C951.578 527.108 951.791 527.393 951.791 527.735C951.791 528.076 951.578 528.361 951.15 528.589H938.418V541.321C938.19 541.72 937.934 541.919 937.649 541.919H937.564H937.478C937.137 541.919 936.88 541.72 936.709 541.321V528.589H923.934C923.536 528.39 923.336 528.105 923.336 527.735V528.29Z" fill="white"/>
</g>
<g id="Group_58">
<path id="Vector_49" d="M972.777 513.718L972.222 513.932C971.823 514.074 971.253 514.217 970.513 514.359C969.772 514.502 968.946 514.601 968.035 514.658H967.223V512.693H968.035C969.373 512.636 970.612 512.422 971.752 512.052C972.891 511.682 973.689 511.34 974.144 511.027C974.6 510.713 974.999 510.4 975.341 510.087C975.398 510.001 975.569 509.958 975.853 509.958C976.11 509.958 976.352 510.044 976.58 510.215V522.99L976.623 535.807C976.822 536.007 976.993 536.135 977.135 536.192C977.278 536.249 977.619 536.306 978.161 536.363C978.702 536.42 979.585 536.448 980.81 536.448H981.92V538.414H981.45C980.852 538.328 978.588 538.285 974.657 538.285C970.783 538.285 968.547 538.328 967.949 538.414H967.437V536.448H968.547C969.174 536.448 969.715 536.448 970.171 536.448C970.627 536.448 970.983 536.434 971.239 536.405C971.495 536.377 971.723 536.334 971.923 536.277C972.122 536.22 972.236 536.192 972.265 536.192C972.293 536.192 972.378 536.121 972.521 535.978C972.663 535.836 972.749 535.779 972.777 535.807V513.718Z" fill="white"/>
</g>
<g id="Group_59">
<path id="Vector_50" d="M987.604 506.414L987.775 506.372C987.917 506.372 988.06 506.372 988.202 506.372H988.715L989.911 507.397C992.589 509.818 994.54 512.837 995.765 516.455C996.989 520.072 997.602 523.832 997.602 527.734C997.602 529.671 997.459 531.537 997.175 533.331C996.89 535.126 996.562 536.65 996.192 537.903C995.822 539.156 995.295 540.41 994.611 541.663C993.927 542.916 993.386 543.87 992.987 544.526C992.589 545.181 992.005 545.907 991.236 546.705C990.467 547.502 990.011 547.972 989.868 548.114C989.726 548.257 989.398 548.527 988.886 548.926C988.8 549.012 988.743 549.069 988.715 549.097H988.202C987.974 549.097 987.818 549.097 987.732 549.097C987.647 549.097 987.576 549.054 987.519 548.969C987.462 548.884 987.419 548.755 987.39 548.584C987.419 548.556 987.576 548.371 987.86 548.029C992.275 543.443 994.483 536.678 994.483 527.734C994.483 518.791 992.275 512.026 987.86 507.44C987.576 507.098 987.419 506.913 987.39 506.884C987.39 506.657 987.462 506.5 987.604 506.414Z" fill="white"/>
</g>
</g>
<g id="Group_60">
<path id="Vector_51" d="M784.576 584.687C784.576 580.044 785.729 576.37 788.036 573.664C790.343 570.958 792.907 569.605 795.727 569.605C797.692 569.605 799.102 570.118 799.957 571.143C800.811 572.168 801.238 573.308 801.238 574.561C801.238 575.273 801.039 575.843 800.64 576.27C800.242 576.697 799.686 576.911 798.974 576.911C798.319 576.911 797.778 576.712 797.35 576.313C796.923 575.914 796.71 575.359 796.71 574.646C796.71 573.393 797.379 572.638 798.718 572.382C798.091 571.755 797.208 571.399 796.069 571.314C794.046 571.314 792.38 572.168 791.07 573.877C789.731 575.757 789.062 578.634 789.062 582.508L789.104 582.679C789.247 582.508 789.361 582.323 789.446 582.123C790.614 580.414 792.138 579.56 794.018 579.56H794.189C795.499 579.56 796.653 579.831 797.65 580.372C798.333 580.77 799.017 581.34 799.7 582.081C800.384 582.821 800.939 583.633 801.367 584.516C801.965 585.912 802.264 587.436 802.264 589.088V589.857C802.264 590.512 802.193 591.124 802.05 591.694C801.737 593.374 800.825 595.012 799.316 596.607C797.806 598.202 795.898 599 793.591 599C792.793 599 792.024 598.886 791.283 598.658C790.543 598.43 789.745 598.003 788.891 597.376C788.036 596.75 787.31 595.91 786.712 594.856C786.114 593.802 785.601 592.42 785.174 590.711C784.746 589.002 784.547 586.994 784.576 584.687ZM793.762 581.098C792.907 581.098 792.166 581.34 791.54 581.824C790.913 582.309 790.429 582.949 790.087 583.747C789.745 584.545 789.503 585.356 789.361 586.182C789.218 587.008 789.133 587.891 789.104 588.831C789.104 591.195 789.275 592.89 789.617 593.916C789.959 594.941 790.5 595.767 791.241 596.394C791.924 596.906 792.679 597.163 793.505 597.163C794.958 597.163 796.069 596.622 796.838 595.539C797.208 595.027 797.464 594.386 797.607 593.617C797.749 592.848 797.82 591.352 797.82 589.13C797.82 586.852 797.749 585.328 797.607 584.559C797.464 583.79 797.208 583.149 796.838 582.636C796.069 581.611 795.043 581.098 793.762 581.098Z" fill="white"/>
</g>
<path id="Vector_52" d="M1005.93 559.352H580.994V556.788H1005.93V559.352Z" fill="white"/>
</g>
</g>
</g>
</g>
</g>
</svg>
