<svg viewBox="0 0 852 565" fill="none" xmlns="http://www.w3.org/2000/svg">
<g id="0122222">
<g id="caja">
<path id="Rectangle 16 (Stroke)" fill-rule="evenodd" clip-rule="evenodd" d="M654 84H64V274H654V84ZM59 79V279H659V79H59Z" fill="#2CF30B"/>
<path id="Rectangle 17 (Stroke)" fill-rule="evenodd" clip-rule="evenodd" d="M658.5 81.5V275L852 200V0H252L63 81.5H658.5ZM87.2223 76.5H663.5V267.7L847 196.576V5H253.032L87.2223 76.5Z" fill="#2CF30B"/>
<path id="Line 2 (Stroke)" fill-rule="evenodd" clip-rule="evenodd" d="M842 5.99991L649 84.9999L647.106 80.3726L840.106 1.37256L842 5.99991Z" fill="#2CF30B"/>
<path id="Line 3 (Stroke)" fill-rule="evenodd" clip-rule="evenodd" d="M551 43.9998L365 45.0106L364.957 37.0107L550.956 35.9999L551 43.9998Z" fill="#2CF30B"/>
</g>
<g id="Group 146">
<g id="Group 140">
<g id="Group 138">
<path id="Union" fill-rule="evenodd" clip-rule="evenodd" d="M97 169.347L148.484 169.347L167 159.665L167 116.395L167 116L166.314 116.395H115.29L97 126.669V126.669V169.347Z" fill="#1043F5"/>
</g>
<path id="3" d="M119.998 211.794H123.033C124.564 211.78 125.774 211.384 126.663 210.604C127.565 209.825 128.017 208.697 128.017 207.221C128.017 205.799 127.641 204.698 126.889 203.919C126.15 203.126 125.016 202.729 123.484 202.729C122.145 202.729 121.044 203.119 120.183 203.898C119.321 204.664 118.891 205.669 118.891 206.913H113.907C113.907 205.382 114.311 203.987 115.117 202.729C115.938 201.472 117.072 200.494 118.521 199.797C119.984 199.086 121.618 198.73 123.423 198.73C126.403 198.73 128.741 199.482 130.437 200.986C132.146 202.477 133 204.555 133 207.221C133 208.561 132.569 209.825 131.708 211.015C130.86 212.19 129.76 213.079 128.406 213.681C130.047 214.241 131.291 215.123 132.139 216.326C133 217.529 133.431 218.965 133.431 220.633C133.431 223.312 132.508 225.445 130.662 227.031C128.83 228.617 126.417 229.41 123.423 229.41C120.552 229.41 118.2 228.645 116.368 227.113C114.536 225.582 113.62 223.545 113.62 221.002H118.604C118.604 222.314 119.041 223.381 119.916 224.201C120.805 225.021 121.994 225.432 123.484 225.432C125.029 225.432 126.246 225.021 127.135 224.201C128.023 223.381 128.468 222.191 128.468 220.633C128.468 219.061 128.003 217.851 127.073 217.003C126.144 216.155 124.763 215.731 122.931 215.731H119.998V211.794Z" fill="white"/>
</g>
<g id="Group 141">
<g id="Group 139">
<path id="Union_2" fill-rule="evenodd" clip-rule="evenodd" d="M187 169.347L238.484 169.347L257 159.665L257 116.395L257 116L256.314 116.395H205.29L187 126.669V126.669V169.347Z" fill="#FD0C0C"/>
</g>
<path id="5" d="M201.568 214.193L203.188 199.141H219.226V203.447H207.331L206.511 210.584C207.892 209.791 209.45 209.395 211.187 209.395C214.03 209.395 216.238 210.304 217.811 212.122C219.396 213.94 220.189 216.388 220.189 219.464C220.189 222.499 219.314 224.919 217.564 226.724C215.814 228.515 213.415 229.41 210.366 229.41C207.632 229.41 205.362 228.638 203.558 227.093C201.767 225.534 200.796 223.483 200.646 220.94H205.465C205.656 222.39 206.176 223.504 207.023 224.283C207.871 225.049 208.979 225.432 210.346 225.432C211.877 225.432 213.066 224.885 213.914 223.791C214.775 222.697 215.206 221.207 215.206 219.32C215.206 217.502 214.734 216.066 213.791 215.014C212.848 213.947 211.549 213.414 209.895 213.414C208.992 213.414 208.227 213.537 207.598 213.783C206.969 214.016 206.285 214.48 205.547 215.178L201.568 214.193Z" fill="white"/>
</g>
<g id="Group 142">
<path id="Polygon 1" d="M336 108L369.287 132.184L356.572 171.316H315.428L302.713 132.184L336 108Z" fill="#FD0C0C"/>
<path id="7" d="M346.107 201.909L334.172 229H328.942L340.857 203.14H325.415V199.141H346.107V201.909Z" fill="white"/>
</g>
<g id="Group 143">
<path id="Polygon 2" d="M423 109L456.287 133.184L443.572 172.316H402.428L389.713 133.184L423 109Z" fill="#1043F5"/>
<path id="4" d="M429.093 218.356H432.805V222.355H429.093V229H424.109V222.355H411.21L411.066 219.32L423.945 199.141H429.093V218.356ZM416.296 218.356H424.109V205.888L423.74 206.544L416.296 218.356Z" fill="white"/>
</g>
<g id="Group 144">
<path id="Polygon 3" d="M515.5 116L541.048 163.25H489.952L515.5 116Z" fill="#1043F5"/>
<path id="2" d="M526.312 229H506.235V225.575L516.182 214.727C517.617 213.127 518.636 211.794 519.237 210.728C519.853 209.647 520.16 208.567 520.16 207.487C520.16 206.065 519.757 204.917 518.95 204.042C518.157 203.167 517.084 202.729 515.73 202.729C514.117 202.729 512.866 203.222 511.978 204.206C511.089 205.19 510.645 206.537 510.645 208.246H505.661C505.661 206.428 506.071 204.794 506.892 203.345C507.726 201.882 508.908 200.747 510.439 199.94C511.984 199.134 513.762 198.73 515.771 198.73C518.67 198.73 520.953 199.462 522.621 200.925C524.303 202.374 525.144 204.384 525.144 206.954C525.144 208.444 524.72 210.01 523.872 211.65C523.038 213.277 521.664 215.13 519.75 217.208L512.449 225.021H526.312V229Z" fill="white"/>
</g>
<g id="Group 145">
<path id="Polygon 4" d="M594.5 116L620.048 163.25H568.952L594.5 116Z" fill="#FD0C0C"/>
<path id="3_2" d="M590.998 211.794H594.033C595.564 211.78 596.774 211.384 597.663 210.604C598.565 209.825 599.017 208.697 599.017 207.221C599.017 205.799 598.641 204.698 597.889 203.919C597.15 203.126 596.016 202.729 594.484 202.729C593.145 202.729 592.044 203.119 591.183 203.898C590.321 204.664 589.891 205.669 589.891 206.913H584.907C584.907 205.382 585.311 203.987 586.117 202.729C586.938 201.472 588.072 200.494 589.521 199.797C590.984 199.086 592.618 198.73 594.423 198.73C597.403 198.73 599.741 199.482 601.437 200.986C603.146 202.477 604 204.555 604 207.221C604 208.561 603.569 209.825 602.708 211.015C601.86 212.19 600.76 213.079 599.406 213.681C601.047 214.241 602.291 215.123 603.139 216.326C604 217.529 604.431 218.965 604.431 220.633C604.431 223.312 603.508 225.445 601.662 227.031C599.83 228.617 597.417 229.41 594.423 229.41C591.552 229.41 589.2 228.645 587.368 227.113C585.536 225.582 584.62 223.545 584.62 221.002H589.604C589.604 222.314 590.041 223.381 590.916 224.201C591.805 225.021 592.994 225.432 594.484 225.432C596.029 225.432 597.246 225.021 598.135 224.201C599.023 223.381 599.468 222.191 599.468 220.633C599.468 219.061 599.003 217.851 598.073 217.003C597.144 216.155 595.763 215.731 593.931 215.731H590.998V211.794Z" fill="white"/>
</g>
</g>
<g id="extraen">
<g id="Entonces se extraen:">
<path d="M17.5605 338.574H7.04883V346.449H19.3359V350H2.60156V324.406H19.2129V327.992H7.04883V335.059H17.5605V338.574Z" fill="white"/>
<path d="M26.5078 330.98L26.6309 333.178C28.0371 331.479 29.8828 330.629 32.168 330.629C36.1289 330.629 38.1445 332.896 38.2148 337.432V350H33.9434V337.678C33.9434 336.471 33.6797 335.58 33.1523 335.006C32.6367 334.42 31.7871 334.127 30.6035 334.127C28.8809 334.127 27.5977 334.906 26.7539 336.465V350H22.4824V330.98H26.5078Z" fill="white"/>
<path d="M47.9355 326.357V330.98H51.293V334.145H47.9355V344.762C47.9355 345.488 48.0762 346.016 48.3574 346.344C48.6504 346.66 49.166 346.818 49.9043 346.818C50.3965 346.818 50.8945 346.76 51.3984 346.643V349.947C50.4258 350.217 49.4883 350.352 48.5859 350.352C45.3047 350.352 43.6641 348.541 43.6641 344.92V334.145H40.5352V330.98H43.6641V326.357H47.9355Z" fill="white"/>
<path d="M53.2441 340.314C53.2441 338.451 53.6133 336.775 54.3516 335.287C55.0898 333.787 56.127 332.639 57.4629 331.842C58.7988 331.033 60.334 330.629 62.0684 330.629C64.6348 330.629 66.7148 331.455 68.3086 333.107C69.9141 334.76 70.7812 336.951 70.9102 339.682L70.9277 340.684C70.9277 342.559 70.5645 344.234 69.8379 345.711C69.123 347.188 68.0918 348.33 66.7441 349.139C65.4082 349.947 63.8613 350.352 62.1035 350.352C59.4199 350.352 57.2695 349.461 55.6523 347.68C54.0469 345.887 53.2441 343.502 53.2441 340.525V340.314ZM57.5156 340.684C57.5156 342.641 57.9199 344.176 58.7285 345.289C59.5371 346.391 60.6621 346.941 62.1035 346.941C63.5449 346.941 64.6641 346.379 65.4609 345.254C66.2695 344.129 66.6738 342.482 66.6738 340.314C66.6738 338.393 66.2578 336.869 65.4258 335.744C64.6055 334.619 63.4863 334.057 62.0684 334.057C60.6738 334.057 59.5664 334.613 58.7461 335.727C57.9258 336.828 57.5156 338.48 57.5156 340.684Z" fill="white"/>
<path d="M78.5039 330.98L78.627 333.178C80.0332 331.479 81.8789 330.629 84.1641 330.629C88.125 330.629 90.1406 332.896 90.2109 337.432V350H85.9395V337.678C85.9395 336.471 85.6758 335.58 85.1484 335.006C84.6328 334.42 83.7832 334.127 82.5996 334.127C80.877 334.127 79.5938 334.906 78.75 336.465V350H74.4785V330.98H78.5039Z" fill="white"/>
<path d="M102.393 346.941C103.459 346.941 104.344 346.631 105.047 346.01C105.75 345.389 106.125 344.621 106.172 343.707H110.197C110.15 344.891 109.781 345.998 109.09 347.029C108.398 348.049 107.461 348.857 106.277 349.455C105.094 350.053 103.816 350.352 102.445 350.352C99.7852 350.352 97.6758 349.49 96.1172 347.768C94.5586 346.045 93.7793 343.666 93.7793 340.631V340.191C93.7793 337.297 94.5527 334.982 96.0996 333.248C97.6465 331.502 99.7559 330.629 102.428 330.629C104.689 330.629 106.529 331.291 107.947 332.615C109.377 333.928 110.127 335.656 110.197 337.801H106.172C106.125 336.711 105.75 335.814 105.047 335.111C104.355 334.408 103.471 334.057 102.393 334.057C101.01 334.057 99.9434 334.561 99.1934 335.568C98.4434 336.564 98.0625 338.082 98.0508 340.121V340.807C98.0508 342.869 98.4199 344.41 99.1582 345.43C99.9082 346.438 100.986 346.941 102.393 346.941Z" fill="white"/>
<path d="M121.799 350.352C119.092 350.352 116.895 349.502 115.207 347.803C113.531 346.092 112.693 343.818 112.693 340.982V340.455C112.693 338.557 113.057 336.863 113.783 335.375C114.521 333.875 115.553 332.709 116.877 331.877C118.201 331.045 119.678 330.629 121.307 330.629C123.896 330.629 125.895 331.455 127.301 333.107C128.719 334.76 129.428 337.098 129.428 340.121V341.844H117C117.129 343.414 117.65 344.656 118.564 345.57C119.49 346.484 120.65 346.941 122.045 346.941C124.002 346.941 125.596 346.15 126.826 344.568L129.129 346.766C128.367 347.902 127.348 348.787 126.07 349.42C124.805 350.041 123.381 350.352 121.799 350.352ZM121.289 334.057C120.117 334.057 119.168 334.467 118.441 335.287C117.727 336.107 117.27 337.25 117.07 338.715H125.209V338.398C125.115 336.969 124.734 335.891 124.066 335.164C123.398 334.426 122.473 334.057 121.289 334.057Z" fill="white"/>
<path d="M143.42 344.832C143.42 344.07 143.104 343.49 142.471 343.092C141.85 342.693 140.812 342.342 139.359 342.037C137.906 341.732 136.693 341.346 135.721 340.877C133.588 339.846 132.521 338.352 132.521 336.395C132.521 334.754 133.213 333.383 134.596 332.281C135.979 331.18 137.736 330.629 139.869 330.629C142.143 330.629 143.977 331.191 145.371 332.316C146.777 333.441 147.48 334.9 147.48 336.693H143.209C143.209 335.873 142.904 335.193 142.295 334.654C141.686 334.104 140.877 333.828 139.869 333.828C138.932 333.828 138.164 334.045 137.566 334.479C136.98 334.912 136.688 335.492 136.688 336.219C136.688 336.875 136.963 337.385 137.514 337.748C138.064 338.111 139.178 338.48 140.854 338.855C142.529 339.219 143.842 339.658 144.791 340.174C145.752 340.678 146.461 341.287 146.918 342.002C147.387 342.717 147.621 343.584 147.621 344.604C147.621 346.314 146.912 347.703 145.494 348.77C144.076 349.824 142.219 350.352 139.922 350.352C138.363 350.352 136.975 350.07 135.756 349.508C134.537 348.945 133.588 348.172 132.908 347.188C132.229 346.203 131.889 345.143 131.889 344.006H136.037C136.096 345.014 136.477 345.793 137.18 346.344C137.883 346.883 138.814 347.152 139.975 347.152C141.1 347.152 141.955 346.941 142.541 346.52C143.127 346.086 143.42 345.523 143.42 344.832Z" fill="white"/>
<path d="M170.982 344.832C170.982 344.07 170.666 343.49 170.033 343.092C169.412 342.693 168.375 342.342 166.922 342.037C165.469 341.732 164.256 341.346 163.283 340.877C161.15 339.846 160.084 338.352 160.084 336.395C160.084 334.754 160.775 333.383 162.158 332.281C163.541 331.18 165.299 330.629 167.432 330.629C169.705 330.629 171.539 331.191 172.934 332.316C174.34 333.441 175.043 334.9 175.043 336.693H170.771C170.771 335.873 170.467 335.193 169.857 334.654C169.248 334.104 168.439 333.828 167.432 333.828C166.494 333.828 165.727 334.045 165.129 334.479C164.543 334.912 164.25 335.492 164.25 336.219C164.25 336.875 164.525 337.385 165.076 337.748C165.627 338.111 166.74 338.48 168.416 338.855C170.092 339.219 171.404 339.658 172.354 340.174C173.314 340.678 174.023 341.287 174.48 342.002C174.949 342.717 175.184 343.584 175.184 344.604C175.184 346.314 174.475 347.703 173.057 348.77C171.639 349.824 169.781 350.352 167.484 350.352C165.926 350.352 164.537 350.07 163.318 349.508C162.1 348.945 161.15 348.172 160.471 347.188C159.791 346.203 159.451 345.143 159.451 344.006H163.6C163.658 345.014 164.039 345.793 164.742 346.344C165.445 346.883 166.377 347.152 167.537 347.152C168.662 347.152 169.518 346.941 170.104 346.52C170.689 346.086 170.982 345.523 170.982 344.832Z" fill="white"/>
<path d="M187.295 350.352C184.588 350.352 182.391 349.502 180.703 347.803C179.027 346.092 178.189 343.818 178.189 340.982V340.455C178.189 338.557 178.553 336.863 179.279 335.375C180.018 333.875 181.049 332.709 182.373 331.877C183.697 331.045 185.174 330.629 186.803 330.629C189.393 330.629 191.391 331.455 192.797 333.107C194.215 334.76 194.924 337.098 194.924 340.121V341.844H182.496C182.625 343.414 183.146 344.656 184.061 345.57C184.986 346.484 186.146 346.941 187.541 346.941C189.498 346.941 191.092 346.15 192.322 344.568L194.625 346.766C193.863 347.902 192.844 348.787 191.566 349.42C190.301 350.041 188.877 350.352 187.295 350.352ZM186.785 334.057C185.613 334.057 184.664 334.467 183.938 335.287C183.223 336.107 182.766 337.25 182.566 338.715H190.705V338.398C190.611 336.969 190.23 335.891 189.562 335.164C188.895 334.426 187.969 334.057 186.785 334.057Z" fill="white"/>
<path d="M215.596 350.352C212.889 350.352 210.691 349.502 209.004 347.803C207.328 346.092 206.49 343.818 206.49 340.982V340.455C206.49 338.557 206.854 336.863 207.58 335.375C208.318 333.875 209.35 332.709 210.674 331.877C211.998 331.045 213.475 330.629 215.104 330.629C217.693 330.629 219.691 331.455 221.098 333.107C222.516 334.76 223.225 337.098 223.225 340.121V341.844H210.797C210.926 343.414 211.447 344.656 212.361 345.57C213.287 346.484 214.447 346.941 215.842 346.941C217.799 346.941 219.393 346.15 220.623 344.568L222.926 346.766C222.164 347.902 221.145 348.787 219.867 349.42C218.602 350.041 217.178 350.352 215.596 350.352ZM215.086 334.057C213.914 334.057 212.965 334.467 212.238 335.287C211.523 336.107 211.066 337.25 210.867 338.715H219.006V338.398C218.912 336.969 218.531 335.891 217.863 335.164C217.195 334.426 216.27 334.057 215.086 334.057Z" fill="white"/>
<path d="M233.385 337.238L237.006 330.98H241.752L235.934 340.35L241.945 350H237.234L233.438 343.496L229.658 350H224.912L230.924 340.35L225.123 330.98H229.834L233.385 337.238Z" fill="white"/>
<path d="M250.014 326.357V330.98H253.371V334.145H250.014V344.762C250.014 345.488 250.154 346.016 250.436 346.344C250.729 346.66 251.244 346.818 251.982 346.818C252.475 346.818 252.973 346.76 253.477 346.643V349.947C252.504 350.217 251.566 350.352 250.664 350.352C247.383 350.352 245.742 348.541 245.742 344.92V334.145H242.613V330.98H245.742V326.357H250.014Z" fill="white"/>
<path d="M266.607 334.883C266.045 334.789 265.465 334.742 264.867 334.742C262.91 334.742 261.592 335.492 260.912 336.992V350H256.641V330.98H260.719L260.824 333.107C261.855 331.455 263.285 330.629 265.113 330.629C265.723 330.629 266.227 330.711 266.625 330.875L266.607 334.883Z" fill="white"/>
<path d="M280.143 350C279.955 349.637 279.791 349.045 279.65 348.225C278.291 349.643 276.627 350.352 274.658 350.352C272.748 350.352 271.189 349.807 269.982 348.717C268.775 347.627 268.172 346.279 268.172 344.674C268.172 342.646 268.922 341.094 270.422 340.016C271.934 338.926 274.09 338.381 276.891 338.381H279.51V337.133C279.51 336.148 279.234 335.363 278.684 334.777C278.133 334.18 277.295 333.881 276.17 333.881C275.197 333.881 274.4 334.127 273.779 334.619C273.158 335.1 272.848 335.715 272.848 336.465H268.576C268.576 335.422 268.922 334.449 269.613 333.547C270.305 332.633 271.242 331.918 272.426 331.402C273.621 330.887 274.951 330.629 276.416 330.629C278.643 330.629 280.418 331.191 281.742 332.316C283.066 333.43 283.746 335 283.781 337.027V345.605C283.781 347.316 284.021 348.682 284.502 349.701V350H280.143ZM275.449 346.924C276.293 346.924 277.084 346.719 277.822 346.309C278.572 345.898 279.135 345.348 279.51 344.656V341.07H277.207C275.625 341.07 274.436 341.346 273.639 341.896C272.842 342.447 272.443 343.227 272.443 344.234C272.443 345.055 272.713 345.711 273.252 346.203C273.803 346.684 274.535 346.924 275.449 346.924Z" fill="white"/>
<path d="M296.631 350.352C293.924 350.352 291.727 349.502 290.039 347.803C288.363 346.092 287.525 343.818 287.525 340.982V340.455C287.525 338.557 287.889 336.863 288.615 335.375C289.354 333.875 290.385 332.709 291.709 331.877C293.033 331.045 294.51 330.629 296.139 330.629C298.729 330.629 300.727 331.455 302.133 333.107C303.551 334.76 304.26 337.098 304.26 340.121V341.844H291.832C291.961 343.414 292.482 344.656 293.396 345.57C294.322 346.484 295.482 346.941 296.877 346.941C298.834 346.941 300.428 346.15 301.658 344.568L303.961 346.766C303.199 347.902 302.18 348.787 300.902 349.42C299.637 350.041 298.213 350.352 296.631 350.352ZM296.121 334.057C294.949 334.057 294 334.467 293.273 335.287C292.559 336.107 292.102 337.25 291.902 338.715H300.041V338.398C299.947 336.969 299.566 335.891 298.898 335.164C298.23 334.426 297.305 334.057 296.121 334.057Z" fill="white"/>
<path d="M311.555 330.98L311.678 333.178C313.084 331.479 314.93 330.629 317.215 330.629C321.176 330.629 323.191 332.896 323.262 337.432V350H318.99V337.678C318.99 336.471 318.727 335.58 318.199 335.006C317.684 334.42 316.834 334.127 315.65 334.127C313.928 334.127 312.645 334.906 311.801 336.465V350H307.529V330.98H311.555Z" fill="white"/>
<path d="M330.205 345.5C331.002 345.5 331.617 345.729 332.051 346.186C332.484 346.631 332.701 347.193 332.701 347.873C332.701 348.541 332.484 349.098 332.051 349.543C331.617 349.977 331.002 350.193 330.205 350.193C329.443 350.193 328.84 349.977 328.395 349.543C327.949 349.109 327.727 348.553 327.727 347.873C327.727 347.193 327.943 346.631 328.377 346.186C328.811 345.729 329.42 345.5 330.205 345.5ZM330.205 330.576C331.002 330.576 331.617 330.805 332.051 331.262C332.484 331.707 332.701 332.27 332.701 332.949C332.701 333.617 332.484 334.174 332.051 334.619C331.617 335.053 331.002 335.27 330.205 335.27C329.443 335.27 328.84 335.053 328.395 334.619C327.949 334.186 327.727 333.629 327.727 332.949C327.727 332.27 327.943 331.707 328.377 331.262C328.811 330.805 329.42 330.576 330.205 330.576Z" fill="white"/>
</g>
</g>
<g id="7 pentagonos rojos + 5 cubos rojos + 4 pentagonos azules + 3 cubos azules + 1 juguete = 20 juguetes">
<path d="M105.949 413.779L95.7188 437H91.2363L101.449 414.834H88.2129V411.406H105.949V413.779Z" fill="white"/>
<path d="M137.43 427.684C137.43 430.625 136.762 432.975 135.426 434.732C134.09 436.479 132.297 437.352 130.047 437.352C127.961 437.352 126.291 436.666 125.037 435.295V444.312H120.765V417.98H124.703L124.879 419.914C126.133 418.391 127.838 417.629 129.994 417.629C132.314 417.629 134.131 418.496 135.443 420.23C136.767 421.953 137.43 424.35 137.43 427.42V427.684ZM133.176 427.314C133.176 425.416 132.795 423.91 132.033 422.797C131.283 421.684 130.205 421.127 128.799 421.127C127.053 421.127 125.799 421.848 125.037 423.289V431.727C125.81 433.203 127.076 433.941 128.834 433.941C130.193 433.941 131.254 433.396 132.015 432.307C132.789 431.205 133.176 429.541 133.176 427.314Z" fill="white"/>
<path d="M150.515 437.352C147.808 437.352 145.611 436.502 143.924 434.803C142.248 433.092 141.41 430.818 141.41 427.982V427.455C141.41 425.557 141.773 423.863 142.5 422.375C143.238 420.875 144.269 419.709 145.594 418.877C146.918 418.045 148.394 417.629 150.023 417.629C152.613 417.629 154.611 418.455 156.017 420.107C157.435 421.76 158.144 424.098 158.144 427.121V428.844H145.717C145.845 430.414 146.367 431.656 147.281 432.57C148.207 433.484 149.367 433.941 150.761 433.941C152.719 433.941 154.312 433.15 155.543 431.568L157.845 433.766C157.084 434.902 156.064 435.787 154.787 436.42C153.521 437.041 152.097 437.352 150.515 437.352ZM150.006 421.057C148.834 421.057 147.885 421.467 147.158 422.287C146.443 423.107 145.986 424.25 145.787 425.715H153.926V425.398C153.832 423.969 153.451 422.891 152.783 422.164C152.115 421.426 151.189 421.057 150.006 421.057Z" fill="white"/>
<path d="M166.519 417.98L166.642 420.178C168.049 418.479 169.894 417.629 172.179 417.629C176.14 417.629 178.156 419.896 178.226 424.432V437H173.955V424.678C173.955 423.471 173.691 422.58 173.164 422.006C172.648 421.42 171.799 421.127 170.615 421.127C168.892 421.127 167.609 421.906 166.765 423.465V437H162.494V417.98H166.519Z" fill="white"/>
<path d="M189.027 413.357V417.98H192.384V421.145H189.027V431.762C189.027 432.488 189.168 433.016 189.449 433.344C189.742 433.66 190.257 433.818 190.996 433.818C191.488 433.818 191.986 433.76 192.49 433.643V436.947C191.517 437.217 190.58 437.352 189.677 437.352C186.396 437.352 184.755 435.541 184.755 431.92V421.145H181.627V417.98H184.755V413.357H189.027Z" fill="white"/>
<path d="M208.107 437C207.919 436.637 207.755 436.045 207.615 435.225C206.255 436.643 204.591 437.352 202.623 437.352C200.712 437.352 199.154 436.807 197.947 435.717C196.74 434.627 196.136 433.279 196.136 431.674C196.136 429.646 196.886 428.094 198.386 427.016C199.898 425.926 202.054 425.381 204.855 425.381H207.474V424.133C207.474 423.148 207.199 422.363 206.648 421.777C206.097 421.18 205.259 420.881 204.134 420.881C203.162 420.881 202.365 421.127 201.744 421.619C201.123 422.1 200.812 422.715 200.812 423.465H196.541C196.541 422.422 196.886 421.449 197.578 420.547C198.269 419.633 199.207 418.918 200.39 418.402C201.585 417.887 202.916 417.629 204.38 417.629C206.607 417.629 208.382 418.191 209.707 419.316C211.031 420.43 211.71 422 211.746 424.027V432.605C211.746 434.316 211.986 435.682 212.466 436.701V437H208.107ZM203.414 433.924C204.257 433.924 205.048 433.719 205.787 433.309C206.537 432.898 207.099 432.348 207.474 431.656V428.07H205.171C203.589 428.07 202.4 428.346 201.603 428.896C200.806 429.447 200.408 430.227 200.408 431.234C200.408 432.055 200.677 432.711 201.216 433.203C201.767 433.684 202.5 433.924 203.414 433.924Z" fill="white"/>
<path d="M216.552 427.35C216.552 424.396 217.244 422.041 218.626 420.283C220.021 418.514 221.867 417.629 224.164 417.629C226.331 417.629 228.037 418.385 229.279 419.896L229.472 417.98H233.322V436.42C233.322 438.916 232.542 440.885 230.984 442.326C229.437 443.768 227.345 444.488 224.708 444.488C223.314 444.488 221.949 444.195 220.613 443.609C219.289 443.035 218.281 442.279 217.589 441.342L219.611 438.775C220.923 440.334 222.54 441.113 224.462 441.113C225.88 441.113 226.999 440.727 227.82 439.953C228.64 439.191 229.05 438.066 229.05 436.578V435.295C227.82 436.666 226.179 437.352 224.128 437.352C221.902 437.352 220.08 436.467 218.662 434.697C217.255 432.928 216.552 430.479 216.552 427.35ZM220.806 427.719C220.806 429.629 221.193 431.135 221.966 432.236C222.751 433.326 223.835 433.871 225.218 433.871C226.941 433.871 228.218 433.133 229.05 431.656V423.289C228.242 421.848 226.976 421.127 225.253 421.127C223.847 421.127 222.751 421.684 221.966 422.797C221.193 423.91 220.806 425.551 220.806 427.719Z" fill="white"/>
<path d="M238.005 427.314C238.005 425.451 238.374 423.775 239.113 422.287C239.851 420.787 240.888 419.639 242.224 418.842C243.56 418.033 245.095 417.629 246.829 417.629C249.396 417.629 251.476 418.455 253.07 420.107C254.675 421.76 255.542 423.951 255.671 426.682L255.689 427.684C255.689 429.559 255.326 431.234 254.599 432.711C253.884 434.188 252.853 435.33 251.505 436.139C250.169 436.947 248.622 437.352 246.865 437.352C244.181 437.352 242.031 436.461 240.413 434.68C238.808 432.887 238.005 430.502 238.005 427.525V427.314ZM242.277 427.684C242.277 429.641 242.681 431.176 243.49 432.289C244.298 433.391 245.423 433.941 246.865 433.941C248.306 433.941 249.425 433.379 250.222 432.254C251.031 431.129 251.435 429.482 251.435 427.314C251.435 425.393 251.019 423.869 250.187 422.744C249.367 421.619 248.247 421.057 246.829 421.057C245.435 421.057 244.327 421.613 243.507 422.727C242.687 423.828 242.277 425.48 242.277 427.684Z" fill="white"/>
<path d="M264.345 417.98L264.468 420.178C265.874 418.479 267.72 417.629 270.005 417.629C273.966 417.629 275.982 419.896 276.052 424.432V437H271.781V424.678C271.781 423.471 271.517 422.58 270.99 422.006C270.474 421.42 269.624 421.127 268.441 421.127C266.718 421.127 265.435 421.906 264.591 423.465V437H260.32V417.98H264.345Z" fill="white"/>
<path d="M280.7 427.314C280.7 425.451 281.07 423.775 281.808 422.287C282.546 420.787 283.583 419.639 284.919 418.842C286.255 418.033 287.79 417.629 289.525 417.629C292.091 417.629 294.171 418.455 295.765 420.107C297.37 421.76 298.238 423.951 298.366 426.682L298.384 427.684C298.384 429.559 298.021 431.234 297.294 432.711C296.579 434.188 295.548 435.33 294.2 436.139C292.864 436.947 291.318 437.352 289.56 437.352C286.876 437.352 284.726 436.461 283.109 434.68C281.503 432.887 280.7 430.502 280.7 427.525V427.314ZM284.972 427.684C284.972 429.641 285.376 431.176 286.185 432.289C286.993 433.391 288.118 433.941 289.56 433.941C291.001 433.941 292.12 433.379 292.917 432.254C293.726 431.129 294.13 429.482 294.13 427.314C294.13 425.393 293.714 423.869 292.882 422.744C292.062 421.619 290.943 421.057 289.525 421.057C288.13 421.057 287.023 421.613 286.202 422.727C285.382 423.828 284.972 425.48 284.972 427.684Z" fill="white"/>
<path d="M313.737 431.832C313.737 431.07 313.421 430.49 312.788 430.092C312.167 429.693 311.13 429.342 309.677 429.037C308.224 428.732 307.011 428.346 306.038 427.877C303.905 426.846 302.839 425.352 302.839 423.395C302.839 421.754 303.53 420.383 304.913 419.281C306.296 418.18 308.054 417.629 310.187 417.629C312.46 417.629 314.294 418.191 315.689 419.316C317.095 420.441 317.798 421.9 317.798 423.693H313.526C313.526 422.873 313.222 422.193 312.612 421.654C312.003 421.104 311.194 420.828 310.187 420.828C309.249 420.828 308.482 421.045 307.884 421.479C307.298 421.912 307.005 422.492 307.005 423.219C307.005 423.875 307.28 424.385 307.831 424.748C308.382 425.111 309.495 425.48 311.171 425.855C312.847 426.219 314.159 426.658 315.109 427.174C316.069 427.678 316.778 428.287 317.235 429.002C317.704 429.717 317.939 430.584 317.939 431.604C317.939 433.314 317.23 434.703 315.812 435.77C314.394 436.824 312.536 437.352 310.239 437.352C308.681 437.352 307.292 437.07 306.073 436.508C304.855 435.945 303.905 435.172 303.226 434.188C302.546 433.203 302.206 432.143 302.206 431.006H306.355C306.413 432.014 306.794 432.793 307.497 433.344C308.2 433.883 309.132 434.152 310.292 434.152C311.417 434.152 312.273 433.941 312.859 433.52C313.444 433.086 313.737 432.523 313.737 431.832Z" fill="white"/>
<path d="M342.757 421.883C342.194 421.789 341.614 421.742 341.017 421.742C339.06 421.742 337.741 422.492 337.061 423.992V437H332.79V417.98H336.868L336.974 420.107C338.005 418.455 339.435 417.629 341.263 417.629C341.872 417.629 342.376 417.711 342.774 417.875L342.757 421.883Z" fill="white"/>
<path d="M345.102 427.314C345.102 425.451 345.472 423.775 346.21 422.287C346.948 420.787 347.985 419.639 349.321 418.842C350.657 418.033 352.192 417.629 353.927 417.629C356.493 417.629 358.573 418.455 360.167 420.107C361.772 421.76 362.64 423.951 362.768 426.682L362.786 427.684C362.786 429.559 362.423 431.234 361.696 432.711C360.981 434.188 359.95 435.33 358.602 436.139C357.266 436.947 355.72 437.352 353.962 437.352C351.278 437.352 349.128 436.461 347.511 434.68C345.905 432.887 345.102 430.502 345.102 427.525V427.314ZM349.374 427.684C349.374 429.641 349.778 431.176 350.587 432.289C351.395 433.391 352.52 433.941 353.962 433.941C355.403 433.941 356.522 433.379 357.319 432.254C358.128 431.129 358.532 429.482 358.532 427.314C358.532 425.393 358.116 423.869 357.284 422.744C356.464 421.619 355.345 421.057 353.927 421.057C352.532 421.057 351.425 421.613 350.604 422.727C349.784 423.828 349.374 425.48 349.374 427.684Z" fill="white"/>
<path d="M371.934 417.98V438.688C371.934 440.633 371.448 442.115 370.475 443.135C369.514 444.166 368.102 444.682 366.239 444.682C365.454 444.682 364.698 444.582 363.971 444.383V441.008C364.417 441.113 364.921 441.166 365.483 441.166C366.901 441.166 367.628 440.393 367.663 438.846V417.98H371.934ZM367.294 413.041C367.294 412.385 367.499 411.84 367.909 411.406C368.331 410.973 368.929 410.756 369.702 410.756C370.475 410.756 371.073 410.973 371.495 411.406C371.917 411.84 372.128 412.385 372.128 413.041C372.128 413.686 371.917 414.225 371.495 414.658C371.073 415.08 370.475 415.291 369.702 415.291C368.929 415.291 368.331 415.08 367.909 414.658C367.499 414.225 367.294 413.686 367.294 413.041Z" fill="white"/>
<path d="M376.794 427.314C376.794 425.451 377.163 423.775 377.901 422.287C378.639 420.787 379.676 419.639 381.012 418.842C382.348 418.033 383.884 417.629 385.618 417.629C388.184 417.629 390.264 418.455 391.858 420.107C393.464 421.76 394.331 423.951 394.46 426.682L394.477 427.684C394.477 429.559 394.114 431.234 393.387 432.711C392.673 434.188 391.641 435.33 390.294 436.139C388.958 436.947 387.411 437.352 385.653 437.352C382.969 437.352 380.819 436.461 379.202 434.68C377.596 432.887 376.794 430.502 376.794 427.525V427.314ZM381.065 427.684C381.065 429.641 381.469 431.176 382.278 432.289C383.087 433.391 384.212 433.941 385.653 433.941C387.094 433.941 388.214 433.379 389.01 432.254C389.819 431.129 390.223 429.482 390.223 427.314C390.223 425.393 389.807 423.869 388.975 422.744C388.155 421.619 387.036 421.057 385.618 421.057C384.223 421.057 383.116 421.613 382.296 422.727C381.475 423.828 381.065 425.48 381.065 427.684Z" fill="white"/>
<path d="M409.831 431.832C409.831 431.07 409.514 430.49 408.882 430.092C408.26 429.693 407.223 429.342 405.77 429.037C404.317 428.732 403.104 428.346 402.132 427.877C399.999 426.846 398.932 425.352 398.932 423.395C398.932 421.754 399.624 420.383 401.007 419.281C402.389 418.18 404.147 417.629 406.28 417.629C408.553 417.629 410.387 418.191 411.782 419.316C413.188 420.441 413.891 421.9 413.891 423.693H409.62C409.62 422.873 409.315 422.193 408.706 421.654C408.096 421.104 407.288 420.828 406.28 420.828C405.342 420.828 404.575 421.045 403.977 421.479C403.391 421.912 403.098 422.492 403.098 423.219C403.098 423.875 403.374 424.385 403.924 424.748C404.475 425.111 405.589 425.48 407.264 425.855C408.94 426.219 410.253 426.658 411.202 427.174C412.163 427.678 412.872 428.287 413.329 429.002C413.798 429.717 414.032 430.584 414.032 431.604C414.032 433.314 413.323 434.703 411.905 435.77C410.487 436.824 408.63 437.352 406.333 437.352C404.774 437.352 403.385 437.07 402.167 436.508C400.948 435.945 399.999 435.172 399.319 434.188C398.639 433.203 398.299 432.143 398.299 431.006H402.448C402.507 432.014 402.887 432.793 403.59 433.344C404.294 433.883 405.225 434.152 406.385 434.152C407.51 434.152 408.366 433.941 408.952 433.52C409.538 433.086 409.831 432.523 409.831 431.832Z" fill="white"/>
<path d="M438.762 422.92H445.442V426.822H438.762V434.434H434.614V426.822H427.899V422.92H434.614V415.801H438.762V422.92Z" fill="white"/>
<path d="M460.961 424.309L462.35 411.406H476.096V415.098H465.901L465.198 421.215C466.381 420.535 467.717 420.195 469.205 420.195C471.643 420.195 473.535 420.975 474.883 422.533C476.242 424.092 476.922 426.189 476.922 428.826C476.922 431.428 476.172 433.502 474.672 435.049C473.172 436.584 471.116 437.352 468.502 437.352C466.159 437.352 464.213 436.689 462.666 435.365C461.131 434.029 460.299 432.271 460.17 430.092H464.301C464.465 431.334 464.91 432.289 465.637 432.957C466.364 433.613 467.313 433.941 468.485 433.941C469.797 433.941 470.817 433.473 471.543 432.535C472.282 431.598 472.651 430.32 472.651 428.703C472.651 427.145 472.246 425.914 471.438 425.012C470.629 424.098 469.516 423.641 468.098 423.641C467.325 423.641 466.668 423.746 466.129 423.957C465.59 424.156 465.004 424.555 464.371 425.152L460.961 424.309Z" fill="white"/>
<path d="M499.49 433.941C500.557 433.941 501.442 433.631 502.145 433.01C502.848 432.389 503.223 431.621 503.27 430.707H507.295C507.248 431.891 506.879 432.998 506.188 434.029C505.496 435.049 504.559 435.857 503.375 436.455C502.192 437.053 500.914 437.352 499.543 437.352C496.883 437.352 494.774 436.49 493.215 434.768C491.656 433.045 490.877 430.666 490.877 427.631V427.191C490.877 424.297 491.651 421.982 493.197 420.248C494.744 418.502 496.854 417.629 499.526 417.629C501.787 417.629 503.627 418.291 505.045 419.615C506.475 420.928 507.225 422.656 507.295 424.801H503.27C503.223 423.711 502.848 422.814 502.145 422.111C501.453 421.408 500.569 421.057 499.49 421.057C498.108 421.057 497.041 421.561 496.291 422.568C495.541 423.564 495.16 425.082 495.149 427.121V427.807C495.149 429.869 495.518 431.41 496.256 432.43C497.006 433.438 498.084 433.941 499.49 433.941Z" fill="white"/>
<path d="M523.123 435.137C521.869 436.613 520.088 437.352 517.779 437.352C515.717 437.352 514.152 436.748 513.086 435.541C512.031 434.334 511.504 432.588 511.504 430.303V417.98H515.775V430.25C515.775 432.664 516.777 433.871 518.781 433.871C520.856 433.871 522.256 433.127 522.983 431.639V417.98H527.254V437H523.229L523.123 435.137Z" fill="white"/>
<path d="M549.375 427.684C549.375 430.637 548.713 432.986 547.389 434.732C546.076 436.479 544.266 437.352 541.957 437.352C539.73 437.352 537.996 436.549 536.754 434.943L536.543 437H532.676V410H536.947V419.809C538.178 418.355 539.836 417.629 541.922 417.629C544.242 417.629 546.064 418.49 547.389 420.213C548.713 421.936 549.375 424.344 549.375 427.438V427.684ZM545.104 427.314C545.104 425.252 544.74 423.705 544.014 422.674C543.287 421.643 542.232 421.127 540.85 421.127C538.998 421.127 537.697 421.936 536.947 423.553V431.393C537.709 433.045 539.021 433.871 540.885 433.871C542.221 433.871 543.252 433.373 543.979 432.377C544.705 431.381 545.08 429.875 545.104 427.859V427.314Z" fill="white"/>
<path d="M553.25 427.314C553.25 425.451 553.619 423.775 554.357 422.287C555.096 420.787 556.133 419.639 557.469 418.842C558.805 418.033 560.34 417.629 562.074 417.629C564.641 417.629 566.721 418.455 568.314 420.107C569.92 421.76 570.787 423.951 570.916 426.682L570.934 427.684C570.934 429.559 570.57 431.234 569.844 432.711C569.129 434.188 568.098 435.33 566.75 436.139C565.414 436.947 563.867 437.352 562.109 437.352C559.426 437.352 557.275 436.461 555.658 434.68C554.053 432.887 553.25 430.502 553.25 427.525V427.314ZM557.521 427.684C557.521 429.641 557.926 431.176 558.734 432.289C559.543 433.391 560.668 433.941 562.109 433.941C563.551 433.941 564.67 433.379 565.467 432.254C566.275 431.129 566.68 429.482 566.68 427.314C566.68 425.393 566.264 423.869 565.432 422.744C564.611 421.619 563.492 421.057 562.074 421.057C560.68 421.057 559.572 421.613 558.752 422.727C557.932 423.828 557.521 425.48 557.521 427.684Z" fill="white"/>
<path d="M586.287 431.832C586.287 431.07 585.971 430.49 585.338 430.092C584.717 429.693 583.68 429.342 582.226 429.037C580.773 428.732 579.56 428.346 578.588 427.877C576.455 426.846 575.389 425.352 575.389 423.395C575.389 421.754 576.08 420.383 577.463 419.281C578.846 418.18 580.603 417.629 582.736 417.629C585.01 417.629 586.844 418.191 588.238 419.316C589.644 420.441 590.348 421.9 590.348 423.693H586.076C586.076 422.873 585.771 422.193 585.162 421.654C584.553 421.104 583.744 420.828 582.736 420.828C581.799 420.828 581.031 421.045 580.433 421.479C579.848 421.912 579.555 422.492 579.555 423.219C579.555 423.875 579.83 424.385 580.381 424.748C580.931 425.111 582.045 425.48 583.721 425.855C585.396 426.219 586.709 426.658 587.658 427.174C588.619 427.678 589.328 428.287 589.785 429.002C590.254 429.717 590.488 430.584 590.488 431.604C590.488 433.314 589.779 434.703 588.361 435.77C586.943 436.824 585.086 437.352 582.789 437.352C581.23 437.352 579.842 437.07 578.623 436.508C577.404 435.945 576.455 435.172 575.775 434.188C575.096 433.203 574.756 432.143 574.756 431.006H578.904C578.963 432.014 579.344 432.793 580.047 433.344C580.75 433.883 581.681 434.152 582.842 434.152C583.967 434.152 584.822 433.941 585.408 433.52C585.994 433.086 586.287 432.523 586.287 431.832Z" fill="white"/>
<path d="M615.306 421.883C614.744 421.789 614.164 421.742 613.566 421.742C611.609 421.742 610.291 422.492 609.611 423.992V437H605.34V417.98H609.418L609.523 420.107C610.554 418.455 611.984 417.629 613.812 417.629C614.422 417.629 614.925 417.711 615.324 417.875L615.306 421.883Z" fill="white"/>
<path d="M617.652 427.314C617.652 425.451 618.021 423.775 618.759 422.287C619.498 420.787 620.535 419.639 621.871 418.842C623.207 418.033 624.742 417.629 626.476 417.629C629.043 417.629 631.123 418.455 632.716 420.107C634.322 421.76 635.189 423.951 635.318 426.682L635.336 427.684C635.336 429.559 634.972 431.234 634.246 432.711C633.531 434.188 632.5 435.33 631.152 436.139C629.816 436.947 628.269 437.352 626.511 437.352C623.828 437.352 621.677 436.461 620.06 434.68C618.455 432.887 617.652 430.502 617.652 427.525V427.314ZM621.923 427.684C621.923 429.641 622.328 431.176 623.136 432.289C623.945 433.391 625.07 433.941 626.511 433.941C627.953 433.941 629.072 433.379 629.869 432.254C630.677 431.129 631.082 429.482 631.082 427.314C631.082 425.393 630.666 423.869 629.834 422.744C629.013 421.619 627.894 421.057 626.476 421.057C625.082 421.057 623.974 421.613 623.154 422.727C622.334 423.828 621.923 425.48 621.923 427.684Z" fill="white"/>
<path d="M644.484 417.98V438.688C644.484 440.633 643.998 442.115 643.025 443.135C642.064 444.166 640.652 444.682 638.789 444.682C638.003 444.682 637.248 444.582 636.521 444.383V441.008C636.966 441.113 637.47 441.166 638.033 441.166C639.451 441.166 640.177 440.393 640.212 438.846V417.98H644.484ZM639.843 413.041C639.843 412.385 640.048 411.84 640.458 411.406C640.88 410.973 641.478 410.756 642.251 410.756C643.025 410.756 643.623 410.973 644.044 411.406C644.466 411.84 644.677 412.385 644.677 413.041C644.677 413.686 644.466 414.225 644.044 414.658C643.623 415.08 643.025 415.291 642.251 415.291C641.478 415.291 640.88 415.08 640.458 414.658C640.048 414.225 639.843 413.686 639.843 413.041Z" fill="white"/>
<path d="M649.343 427.314C649.343 425.451 649.712 423.775 650.451 422.287C651.189 420.787 652.226 419.639 653.562 418.842C654.898 418.033 656.433 417.629 658.167 417.629C660.734 417.629 662.814 418.455 664.408 420.107C666.013 421.76 666.88 423.951 667.009 426.682L667.027 427.684C667.027 429.559 666.664 431.234 665.937 432.711C665.222 434.188 664.191 435.33 662.843 436.139C661.507 436.947 659.96 437.352 658.203 437.352C655.519 437.352 653.369 436.461 651.751 434.68C650.146 432.887 649.343 430.502 649.343 427.525V427.314ZM653.615 427.684C653.615 429.641 654.019 431.176 654.828 432.289C655.636 433.391 656.761 433.941 658.203 433.941C659.644 433.941 660.763 433.379 661.56 432.254C662.369 431.129 662.773 429.482 662.773 427.314C662.773 425.393 662.357 423.869 661.525 422.744C660.705 421.619 659.585 421.057 658.167 421.057C656.773 421.057 655.665 421.613 654.845 422.727C654.025 423.828 653.615 425.48 653.615 427.684Z" fill="white"/>
<path d="M682.38 431.832C682.38 431.07 682.064 430.49 681.431 430.092C680.81 429.693 679.773 429.342 678.32 429.037C676.867 428.732 675.654 428.346 674.681 427.877C672.548 426.846 671.482 425.352 671.482 423.395C671.482 421.754 672.173 420.383 673.556 419.281C674.939 418.18 676.697 417.629 678.829 417.629C681.103 417.629 682.937 418.191 684.331 419.316C685.738 420.441 686.441 421.9 686.441 423.693H682.169C682.169 422.873 681.865 422.193 681.255 421.654C680.646 421.104 679.837 420.828 678.829 420.828C677.892 420.828 677.124 421.045 676.527 421.479C675.941 421.912 675.648 422.492 675.648 423.219C675.648 423.875 675.923 424.385 676.474 424.748C677.025 425.111 678.138 425.48 679.814 425.855C681.49 426.219 682.802 426.658 683.751 427.174C684.712 427.678 685.421 428.287 685.878 429.002C686.347 429.717 686.581 430.584 686.581 431.604C686.581 433.314 685.872 434.703 684.454 435.77C683.036 436.824 681.179 437.352 678.882 437.352C677.324 437.352 675.935 437.07 674.716 436.508C673.497 435.945 672.548 435.172 671.869 434.188C671.189 433.203 670.849 432.143 670.849 431.006H674.997C675.056 432.014 675.437 432.793 676.14 433.344C676.843 433.883 677.775 434.152 678.935 434.152C680.06 434.152 680.915 433.941 681.501 433.52C682.087 433.086 682.38 432.523 682.38 431.832Z" fill="white"/>
<path d="M711.312 422.92H717.991V426.822H711.312V434.434H707.163V426.822H700.448V422.92H707.163V415.801H711.312V422.92Z" fill="white"/>
<path d="M103.365 487.877H106.547V491.305H103.365V497H99.0938V491.305H88.0371L87.9141 488.703L98.9531 471.406H103.365V487.877ZM92.3965 487.877H99.0938V477.189L98.7773 477.752L92.3965 487.877Z" fill="white"/>
<path d="M137.43 487.684C137.43 490.625 136.762 492.975 135.426 494.732C134.09 496.479 132.297 497.352 130.047 497.352C127.961 497.352 126.291 496.666 125.037 495.295V504.312H120.765V477.98H124.703L124.879 479.914C126.133 478.391 127.838 477.629 129.994 477.629C132.314 477.629 134.131 478.496 135.443 480.23C136.767 481.953 137.43 484.35 137.43 487.42V487.684ZM133.176 487.314C133.176 485.416 132.795 483.91 132.033 482.797C131.283 481.684 130.205 481.127 128.799 481.127C127.053 481.127 125.799 481.848 125.037 483.289V491.727C125.81 493.203 127.076 493.941 128.834 493.941C130.193 493.941 131.254 493.396 132.015 492.307C132.789 491.205 133.176 489.541 133.176 487.314Z" fill="white"/>
<path d="M150.515 497.352C147.808 497.352 145.611 496.502 143.924 494.803C142.248 493.092 141.41 490.818 141.41 487.982V487.455C141.41 485.557 141.773 483.863 142.5 482.375C143.238 480.875 144.269 479.709 145.594 478.877C146.918 478.045 148.394 477.629 150.023 477.629C152.613 477.629 154.611 478.455 156.017 480.107C157.435 481.76 158.144 484.098 158.144 487.121V488.844H145.717C145.845 490.414 146.367 491.656 147.281 492.57C148.207 493.484 149.367 493.941 150.761 493.941C152.719 493.941 154.312 493.15 155.543 491.568L157.845 493.766C157.084 494.902 156.064 495.787 154.787 496.42C153.521 497.041 152.097 497.352 150.515 497.352ZM150.006 481.057C148.834 481.057 147.885 481.467 147.158 482.287C146.443 483.107 145.986 484.25 145.787 485.715H153.926V485.398C153.832 483.969 153.451 482.891 152.783 482.164C152.115 481.426 151.189 481.057 150.006 481.057Z" fill="white"/>
<path d="M166.519 477.98L166.642 480.178C168.049 478.479 169.894 477.629 172.179 477.629C176.14 477.629 178.156 479.896 178.226 484.432V497H173.955V484.678C173.955 483.471 173.691 482.58 173.164 482.006C172.648 481.42 171.799 481.127 170.615 481.127C168.892 481.127 167.609 481.906 166.765 483.465V497H162.494V477.98H166.519Z" fill="white"/>
<path d="M189.027 473.357V477.98H192.384V481.145H189.027V491.762C189.027 492.488 189.168 493.016 189.449 493.344C189.742 493.66 190.257 493.818 190.996 493.818C191.488 493.818 191.986 493.76 192.49 493.643V496.947C191.517 497.217 190.58 497.352 189.677 497.352C186.396 497.352 184.755 495.541 184.755 491.92V481.145H181.627V477.98H184.755V473.357H189.027Z" fill="white"/>
<path d="M208.107 497C207.919 496.637 207.755 496.045 207.615 495.225C206.255 496.643 204.591 497.352 202.623 497.352C200.712 497.352 199.154 496.807 197.947 495.717C196.74 494.627 196.136 493.279 196.136 491.674C196.136 489.646 196.886 488.094 198.386 487.016C199.898 485.926 202.054 485.381 204.855 485.381H207.474V484.133C207.474 483.148 207.199 482.363 206.648 481.777C206.097 481.18 205.259 480.881 204.134 480.881C203.162 480.881 202.365 481.127 201.744 481.619C201.123 482.1 200.812 482.715 200.812 483.465H196.541C196.541 482.422 196.886 481.449 197.578 480.547C198.269 479.633 199.207 478.918 200.39 478.402C201.585 477.887 202.916 477.629 204.38 477.629C206.607 477.629 208.382 478.191 209.707 479.316C211.031 480.43 211.71 482 211.746 484.027V492.605C211.746 494.316 211.986 495.682 212.466 496.701V497H208.107ZM203.414 493.924C204.257 493.924 205.048 493.719 205.787 493.309C206.537 492.898 207.099 492.348 207.474 491.656V488.07H205.171C203.589 488.07 202.4 488.346 201.603 488.896C200.806 489.447 200.408 490.227 200.408 491.234C200.408 492.055 200.677 492.711 201.216 493.203C201.767 493.684 202.5 493.924 203.414 493.924Z" fill="white"/>
<path d="M216.552 487.35C216.552 484.396 217.244 482.041 218.626 480.283C220.021 478.514 221.867 477.629 224.164 477.629C226.331 477.629 228.037 478.385 229.279 479.896L229.472 477.98H233.322V496.42C233.322 498.916 232.542 500.885 230.984 502.326C229.437 503.768 227.345 504.488 224.708 504.488C223.314 504.488 221.949 504.195 220.613 503.609C219.289 503.035 218.281 502.279 217.589 501.342L219.611 498.775C220.923 500.334 222.54 501.113 224.462 501.113C225.88 501.113 226.999 500.727 227.82 499.953C228.64 499.191 229.05 498.066 229.05 496.578V495.295C227.82 496.666 226.179 497.352 224.128 497.352C221.902 497.352 220.08 496.467 218.662 494.697C217.255 492.928 216.552 490.479 216.552 487.35ZM220.806 487.719C220.806 489.629 221.193 491.135 221.966 492.236C222.751 493.326 223.835 493.871 225.218 493.871C226.941 493.871 228.218 493.133 229.05 491.656V483.289C228.242 481.848 226.976 481.127 225.253 481.127C223.847 481.127 222.751 481.684 221.966 482.797C221.193 483.91 220.806 485.551 220.806 487.719Z" fill="white"/>
<path d="M238.005 487.314C238.005 485.451 238.374 483.775 239.113 482.287C239.851 480.787 240.888 479.639 242.224 478.842C243.56 478.033 245.095 477.629 246.829 477.629C249.396 477.629 251.476 478.455 253.07 480.107C254.675 481.76 255.542 483.951 255.671 486.682L255.689 487.684C255.689 489.559 255.326 491.234 254.599 492.711C253.884 494.188 252.853 495.33 251.505 496.139C250.169 496.947 248.622 497.352 246.865 497.352C244.181 497.352 242.031 496.461 240.413 494.68C238.808 492.887 238.005 490.502 238.005 487.525V487.314ZM242.277 487.684C242.277 489.641 242.681 491.176 243.49 492.289C244.298 493.391 245.423 493.941 246.865 493.941C248.306 493.941 249.425 493.379 250.222 492.254C251.031 491.129 251.435 489.482 251.435 487.314C251.435 485.393 251.019 483.869 250.187 482.744C249.367 481.619 248.247 481.057 246.829 481.057C245.435 481.057 244.327 481.613 243.507 482.727C242.687 483.828 242.277 485.48 242.277 487.684Z" fill="white"/>
<path d="M264.345 477.98L264.468 480.178C265.874 478.479 267.72 477.629 270.005 477.629C273.966 477.629 275.982 479.896 276.052 484.432V497H271.781V484.678C271.781 483.471 271.517 482.58 270.99 482.006C270.474 481.42 269.624 481.127 268.441 481.127C266.718 481.127 265.435 481.906 264.591 483.465V497H260.32V477.98H264.345Z" fill="white"/>
<path d="M280.7 487.314C280.7 485.451 281.07 483.775 281.808 482.287C282.546 480.787 283.583 479.639 284.919 478.842C286.255 478.033 287.79 477.629 289.525 477.629C292.091 477.629 294.171 478.455 295.765 480.107C297.37 481.76 298.238 483.951 298.366 486.682L298.384 487.684C298.384 489.559 298.021 491.234 297.294 492.711C296.579 494.188 295.548 495.33 294.2 496.139C292.864 496.947 291.318 497.352 289.56 497.352C286.876 497.352 284.726 496.461 283.109 494.68C281.503 492.887 280.7 490.502 280.7 487.525V487.314ZM284.972 487.684C284.972 489.641 285.376 491.176 286.185 492.289C286.993 493.391 288.118 493.941 289.56 493.941C291.001 493.941 292.12 493.379 292.917 492.254C293.726 491.129 294.13 489.482 294.13 487.314C294.13 485.393 293.714 483.869 292.882 482.744C292.062 481.619 290.943 481.057 289.525 481.057C288.13 481.057 287.023 481.613 286.202 482.727C285.382 483.828 284.972 485.48 284.972 487.684Z" fill="white"/>
<path d="M313.737 491.832C313.737 491.07 313.421 490.49 312.788 490.092C312.167 489.693 311.13 489.342 309.677 489.037C308.224 488.732 307.011 488.346 306.038 487.877C303.905 486.846 302.839 485.352 302.839 483.395C302.839 481.754 303.53 480.383 304.913 479.281C306.296 478.18 308.054 477.629 310.187 477.629C312.46 477.629 314.294 478.191 315.689 479.316C317.095 480.441 317.798 481.9 317.798 483.693H313.526C313.526 482.873 313.222 482.193 312.612 481.654C312.003 481.104 311.194 480.828 310.187 480.828C309.249 480.828 308.482 481.045 307.884 481.479C307.298 481.912 307.005 482.492 307.005 483.219C307.005 483.875 307.28 484.385 307.831 484.748C308.382 485.111 309.495 485.48 311.171 485.855C312.847 486.219 314.159 486.658 315.109 487.174C316.069 487.678 316.778 488.287 317.235 489.002C317.704 489.717 317.939 490.584 317.939 491.604C317.939 493.314 317.23 494.703 315.812 495.77C314.394 496.824 312.536 497.352 310.239 497.352C308.681 497.352 307.292 497.07 306.073 496.508C304.855 495.945 303.905 495.172 303.226 494.188C302.546 493.203 302.206 492.143 302.206 491.006H306.355C306.413 492.014 306.794 492.793 307.497 493.344C308.2 493.883 309.132 494.152 310.292 494.152C311.417 494.152 312.273 493.941 312.859 493.52C313.444 493.086 313.737 492.523 313.737 491.832Z" fill="white"/>
<path d="M344.163 497C343.976 496.637 343.811 496.045 343.671 495.225C342.311 496.643 340.647 497.352 338.679 497.352C336.769 497.352 335.21 496.807 334.003 495.717C332.796 494.627 332.192 493.279 332.192 491.674C332.192 489.646 332.942 488.094 334.442 487.016C335.954 485.926 338.11 485.381 340.911 485.381H343.53V484.133C343.53 483.148 343.255 482.363 342.704 481.777C342.153 481.18 341.315 480.881 340.19 480.881C339.218 480.881 338.421 481.127 337.8 481.619C337.179 482.1 336.868 482.715 336.868 483.465H332.597C332.597 482.422 332.942 481.449 333.634 480.547C334.325 479.633 335.263 478.918 336.446 478.402C337.642 477.887 338.972 477.629 340.436 477.629C342.663 477.629 344.438 478.191 345.763 479.316C347.087 480.43 347.767 482 347.802 484.027V492.605C347.802 494.316 348.042 495.682 348.522 496.701V497H344.163ZM339.47 493.924C340.313 493.924 341.104 493.719 341.843 493.309C342.593 492.898 343.155 492.348 343.53 491.656V488.07H341.227C339.645 488.07 338.456 488.346 337.659 488.896C336.862 489.447 336.464 490.227 336.464 491.234C336.464 492.055 336.733 492.711 337.272 493.203C337.823 493.684 338.556 493.924 339.47 493.924Z" fill="white"/>
<path d="M357.917 493.59H368.042V497H352.608V494.205L362.259 481.426H352.784V477.98H367.673V480.688L357.917 493.59Z" fill="white"/>
<path d="M384.063 495.137C382.809 496.613 381.028 497.352 378.72 497.352C376.657 497.352 375.093 496.748 374.026 495.541C372.971 494.334 372.444 492.588 372.444 490.303V477.98H376.716V490.25C376.716 492.664 377.718 493.871 379.721 493.871C381.796 493.871 383.196 493.127 383.923 491.639V477.98H388.194V497H384.169L384.063 495.137Z" fill="white"/>
<path d="M398.169 497H393.897V470H398.169V497Z" fill="white"/>
<path d="M412.292 497.352C409.585 497.352 407.387 496.502 405.7 494.803C404.024 493.092 403.186 490.818 403.186 487.982V487.455C403.186 485.557 403.549 483.863 404.276 482.375C405.014 480.875 406.046 479.709 407.37 478.877C408.694 478.045 410.171 477.629 411.799 477.629C414.389 477.629 416.387 478.455 417.794 480.107C419.212 481.76 419.921 484.098 419.921 487.121V488.844H407.493C407.622 490.414 408.143 491.656 409.057 492.57C409.983 493.484 411.143 493.941 412.538 493.941C414.495 493.941 416.089 493.15 417.319 491.568L419.622 493.766C418.86 494.902 417.84 495.787 416.563 496.42C415.298 497.041 413.874 497.352 412.292 497.352ZM411.782 481.057C410.61 481.057 409.661 481.467 408.934 482.287C408.219 483.107 407.762 484.25 407.563 485.715H415.702V485.398C415.608 483.969 415.227 482.891 414.559 482.164C413.891 481.426 412.965 481.057 411.782 481.057Z" fill="white"/>
<path d="M434.993 491.832C434.993 491.07 434.676 490.49 434.044 490.092C433.422 489.693 432.385 489.342 430.932 489.037C429.479 488.732 428.266 488.346 427.294 487.877C425.161 486.846 424.094 485.352 424.094 483.395C424.094 481.754 424.786 480.383 426.169 479.281C427.551 478.18 429.309 477.629 431.442 477.629C433.715 477.629 435.549 478.191 436.944 479.316C438.35 480.441 439.053 481.9 439.053 483.693H434.782C434.782 482.873 434.477 482.193 433.868 481.654C433.258 481.104 432.45 480.828 431.442 480.828C430.504 480.828 429.737 481.045 429.139 481.479C428.553 481.912 428.26 482.492 428.26 483.219C428.26 483.875 428.536 484.385 429.086 484.748C429.637 485.111 430.751 485.48 432.426 485.855C434.102 486.219 435.415 486.658 436.364 487.174C437.325 487.678 438.034 488.287 438.491 489.002C438.96 489.717 439.194 490.584 439.194 491.604C439.194 493.314 438.485 494.703 437.067 495.77C435.649 496.824 433.792 497.352 431.495 497.352C429.936 497.352 428.547 497.07 427.329 496.508C426.11 495.945 425.161 495.172 424.481 494.188C423.801 493.203 423.461 492.143 423.461 491.006H427.61C427.669 492.014 428.049 492.793 428.753 493.344C429.456 493.883 430.387 494.152 431.547 494.152C432.672 494.152 433.528 493.941 434.114 493.52C434.7 493.086 434.993 492.523 434.993 491.832Z" fill="white"/>
<path d="M463.924 482.92H470.604V486.822H463.924V494.434H459.776V486.822H453.061V482.92H459.776V475.801H463.924V482.92Z" fill="white"/>
<path d="M489.92 482.252H492.522C493.834 482.24 494.871 481.9 495.633 481.232C496.406 480.564 496.793 479.598 496.793 478.332C496.793 477.113 496.471 476.17 495.826 475.502C495.194 474.822 494.221 474.482 492.908 474.482C491.76 474.482 490.817 474.816 490.078 475.484C489.34 476.141 488.971 477.002 488.971 478.068H484.699C484.699 476.756 485.045 475.561 485.737 474.482C486.44 473.404 487.412 472.566 488.655 471.969C489.908 471.359 491.309 471.055 492.856 471.055C495.41 471.055 497.414 471.699 498.867 472.988C500.332 474.266 501.065 476.047 501.065 478.332C501.065 479.48 500.696 480.564 499.957 481.584C499.231 482.592 498.287 483.354 497.127 483.869C498.533 484.35 499.6 485.105 500.326 486.137C501.065 487.168 501.434 488.398 501.434 489.828C501.434 492.125 500.643 493.953 499.061 495.312C497.49 496.672 495.422 497.352 492.856 497.352C490.395 497.352 488.379 496.695 486.809 495.383C485.239 494.07 484.453 492.324 484.453 490.145H488.725C488.725 491.27 489.1 492.184 489.85 492.887C490.612 493.59 491.631 493.941 492.908 493.941C494.233 493.941 495.276 493.59 496.037 492.887C496.799 492.184 497.18 491.164 497.18 489.828C497.18 488.48 496.781 487.443 495.985 486.717C495.188 485.99 494.004 485.627 492.434 485.627H489.92V482.252Z" fill="white"/>
<path d="M524.652 493.941C525.719 493.941 526.604 493.631 527.307 493.01C528.01 492.389 528.385 491.621 528.432 490.707H532.457C532.41 491.891 532.041 492.998 531.35 494.029C530.658 495.049 529.721 495.857 528.537 496.455C527.354 497.053 526.076 497.352 524.705 497.352C522.045 497.352 519.936 496.49 518.377 494.768C516.818 493.045 516.039 490.666 516.039 487.631V487.191C516.039 484.297 516.813 481.982 518.359 480.248C519.906 478.502 522.016 477.629 524.688 477.629C526.949 477.629 528.789 478.291 530.207 479.615C531.637 480.928 532.387 482.656 532.457 484.801H528.432C528.385 483.711 528.01 482.814 527.307 482.111C526.615 481.408 525.731 481.057 524.652 481.057C523.27 481.057 522.203 481.561 521.453 482.568C520.703 483.564 520.322 485.082 520.311 487.121V487.807C520.311 489.869 520.68 491.41 521.418 492.43C522.168 493.438 523.246 493.941 524.652 493.941Z" fill="white"/>
<path d="M548.285 495.137C547.031 496.613 545.25 497.352 542.941 497.352C540.879 497.352 539.314 496.748 538.248 495.541C537.193 494.334 536.666 492.588 536.666 490.303V477.98H540.938V490.25C540.938 492.664 541.939 493.871 543.943 493.871C546.018 493.871 547.418 493.127 548.145 491.639V477.98H552.416V497H548.391L548.285 495.137Z" fill="white"/>
<path d="M574.537 487.684C574.537 490.637 573.875 492.986 572.551 494.732C571.238 496.479 569.428 497.352 567.119 497.352C564.892 497.352 563.158 496.549 561.916 494.943L561.705 497H557.838V470H562.109V479.809C563.34 478.355 564.998 477.629 567.084 477.629C569.404 477.629 571.226 478.49 572.551 480.213C573.875 481.936 574.537 484.344 574.537 487.438V487.684ZM570.266 487.314C570.266 485.252 569.902 483.705 569.176 482.674C568.449 481.643 567.394 481.127 566.012 481.127C564.16 481.127 562.859 481.936 562.109 483.553V491.393C562.871 493.045 564.184 493.871 566.047 493.871C567.383 493.871 568.414 493.373 569.141 492.377C569.867 491.381 570.242 489.875 570.266 487.859V487.314Z" fill="white"/>
<path d="M578.412 487.314C578.412 485.451 578.781 483.775 579.519 482.287C580.258 480.787 581.295 479.639 582.631 478.842C583.967 478.033 585.502 477.629 587.236 477.629C589.803 477.629 591.883 478.455 593.476 480.107C595.082 481.76 595.949 483.951 596.078 486.682L596.096 487.684C596.096 489.559 595.732 491.234 595.006 492.711C594.291 494.188 593.26 495.33 591.912 496.139C590.576 496.947 589.029 497.352 587.271 497.352C584.588 497.352 582.437 496.461 580.82 494.68C579.215 492.887 578.412 490.502 578.412 487.525V487.314ZM582.683 487.684C582.683 489.641 583.088 491.176 583.896 492.289C584.705 493.391 585.83 493.941 587.271 493.941C588.713 493.941 589.832 493.379 590.629 492.254C591.437 491.129 591.842 489.482 591.842 487.314C591.842 485.393 591.426 483.869 590.594 482.744C589.773 481.619 588.654 481.057 587.236 481.057C585.842 481.057 584.734 481.613 583.914 482.727C583.094 483.828 582.683 485.48 582.683 487.684Z" fill="white"/>
<path d="M611.449 491.832C611.449 491.07 611.133 490.49 610.5 490.092C609.879 489.693 608.842 489.342 607.388 489.037C605.935 488.732 604.722 488.346 603.75 487.877C601.617 486.846 600.551 485.352 600.551 483.395C600.551 481.754 601.242 480.383 602.625 479.281C604.008 478.18 605.765 477.629 607.898 477.629C610.172 477.629 612.006 478.191 613.4 479.316C614.806 480.441 615.51 481.9 615.51 483.693H611.238C611.238 482.873 610.933 482.193 610.324 481.654C609.715 481.104 608.906 480.828 607.898 480.828C606.961 480.828 606.193 481.045 605.595 481.479C605.01 481.912 604.717 482.492 604.717 483.219C604.717 483.875 604.992 484.385 605.543 484.748C606.094 485.111 607.207 485.48 608.883 485.855C610.558 486.219 611.871 486.658 612.82 487.174C613.781 487.678 614.49 488.287 614.947 489.002C615.416 489.717 615.65 490.584 615.65 491.604C615.65 493.314 614.941 494.703 613.523 495.77C612.105 496.824 610.248 497.352 607.951 497.352C606.392 497.352 605.004 497.07 603.785 496.508C602.566 495.945 601.617 495.172 600.937 494.188C600.258 493.203 599.918 492.143 599.918 491.006H604.066C604.125 492.014 604.506 492.793 605.209 493.344C605.912 493.883 606.844 494.152 608.004 494.152C609.129 494.152 609.984 493.941 610.57 493.52C611.156 493.086 611.449 492.523 611.449 491.832Z" fill="white"/>
<path d="M641.875 497C641.687 496.637 641.523 496.045 641.382 495.225C640.023 496.643 638.359 497.352 636.39 497.352C634.48 497.352 632.922 496.807 631.714 495.717C630.507 494.627 629.904 493.279 629.904 491.674C629.904 489.646 630.654 488.094 632.154 487.016C633.666 485.926 635.822 485.381 638.623 485.381H641.242V484.133C641.242 483.148 640.966 482.363 640.416 481.777C639.865 481.18 639.027 480.881 637.902 480.881C636.929 480.881 636.132 481.127 635.511 481.619C634.89 482.1 634.58 482.715 634.58 483.465H630.308C630.308 482.422 630.654 481.449 631.345 480.547C632.037 479.633 632.974 478.918 634.158 478.402C635.353 477.887 636.683 477.629 638.148 477.629C640.375 477.629 642.15 478.191 643.474 479.316C644.798 480.43 645.478 482 645.513 484.027V492.605C645.513 494.316 645.754 495.682 646.234 496.701V497H641.875ZM637.181 493.924C638.025 493.924 638.816 493.719 639.554 493.309C640.304 492.898 640.867 492.348 641.242 491.656V488.07H638.939C637.357 488.07 636.168 488.346 635.371 488.896C634.574 489.447 634.175 490.227 634.175 491.234C634.175 492.055 634.445 492.711 634.984 493.203C635.535 493.684 636.267 493.924 637.181 493.924Z" fill="white"/>
<path d="M655.628 493.59H665.753V497H650.32V494.205L659.97 481.426H650.496V477.98H665.384V480.688L655.628 493.59Z" fill="white"/>
<path d="M681.775 495.137C680.521 496.613 678.74 497.352 676.431 497.352C674.369 497.352 672.804 496.748 671.738 495.541C670.683 494.334 670.156 492.588 670.156 490.303V477.98H674.427V490.25C674.427 492.664 675.429 493.871 677.433 493.871C679.507 493.871 680.908 493.127 681.634 491.639V477.98H685.906V497H681.88L681.775 495.137Z" fill="white"/>
<path d="M695.88 497H691.609V470H695.88V497Z" fill="white"/>
<path d="M710.003 497.352C707.296 497.352 705.099 496.502 703.411 494.803C701.736 493.092 700.898 490.818 700.898 487.982V487.455C700.898 485.557 701.261 483.863 701.988 482.375C702.726 480.875 703.757 479.709 705.081 478.877C706.406 478.045 707.882 477.629 709.511 477.629C712.101 477.629 714.099 478.455 715.505 480.107C716.923 481.76 717.632 484.098 717.632 487.121V488.844H705.204C705.333 490.414 705.855 491.656 706.769 492.57C707.695 493.484 708.855 493.941 710.249 493.941C712.206 493.941 713.8 493.15 715.031 491.568L717.333 493.766C716.572 494.902 715.552 495.787 714.275 496.42C713.009 497.041 711.585 497.352 710.003 497.352ZM709.493 481.057C708.322 481.057 707.372 481.467 706.646 482.287C705.931 483.107 705.474 484.25 705.275 485.715H713.413V485.398C713.32 483.969 712.939 482.891 712.271 482.164C711.603 481.426 710.677 481.057 709.493 481.057Z" fill="white"/>
<path d="M732.704 491.832C732.704 491.07 732.388 490.49 731.755 490.092C731.134 489.693 730.097 489.342 728.644 489.037C727.191 488.732 725.978 488.346 725.005 487.877C722.872 486.846 721.806 485.352 721.806 483.395C721.806 481.754 722.497 480.383 723.88 479.281C725.263 478.18 727.021 477.629 729.154 477.629C731.427 477.629 733.261 478.191 734.655 479.316C736.062 480.441 736.765 481.9 736.765 483.693H732.493C732.493 482.873 732.189 482.193 731.579 481.654C730.97 481.104 730.161 480.828 729.154 480.828C728.216 480.828 727.448 481.045 726.851 481.479C726.265 481.912 725.972 482.492 725.972 483.219C725.972 483.875 726.247 484.385 726.798 484.748C727.349 485.111 728.462 485.48 730.138 485.855C731.814 486.219 733.126 486.658 734.075 487.174C735.036 487.678 735.745 488.287 736.202 489.002C736.671 489.717 736.905 490.584 736.905 491.604C736.905 493.314 736.196 494.703 734.779 495.77C733.361 496.824 731.503 497.352 729.206 497.352C727.648 497.352 726.259 497.07 725.04 496.508C723.821 495.945 722.872 495.172 722.193 494.188C721.513 493.203 721.173 492.143 721.173 491.006H725.321C725.38 492.014 725.761 492.793 726.464 493.344C727.167 493.883 728.099 494.152 729.259 494.152C730.384 494.152 731.239 493.941 731.825 493.52C732.411 493.086 732.704 492.523 732.704 491.832Z" fill="white"/>
<path d="M761.636 482.92H768.315V486.822H761.636V494.434H757.487V486.822H750.773V482.92H757.487V475.801H761.636V482.92Z" fill="white"/>
<path d="M100.482 557H96.2285V536.451L89.9531 538.596V534.992L99.9375 531.318H100.482V557Z" fill="white"/>
<path d="M125.23 537.98V558.688C125.23 560.633 124.744 562.115 123.771 563.135C122.81 564.166 121.398 564.682 119.535 564.682C118.75 564.682 117.994 564.582 117.267 564.383V561.008C117.713 561.113 118.217 561.166 118.779 561.166C120.197 561.166 120.924 560.393 120.959 558.846V537.98H125.23ZM120.59 533.041C120.59 532.385 120.795 531.84 121.205 531.406C121.627 530.973 122.224 530.756 122.998 530.756C123.771 530.756 124.369 530.973 124.791 531.406C125.213 531.84 125.424 532.385 125.424 533.041C125.424 533.686 125.213 534.225 124.791 534.658C124.369 535.08 123.771 535.291 122.998 535.291C122.224 535.291 121.627 535.08 121.205 534.658C120.795 534.225 120.59 533.686 120.59 533.041Z" fill="white"/>
<path d="M142.412 555.137C141.158 556.613 139.377 557.352 137.068 557.352C135.006 557.352 133.441 556.748 132.375 555.541C131.32 554.334 130.793 552.588 130.793 550.303V537.98H135.064V550.25C135.064 552.664 136.066 553.871 138.07 553.871C140.144 553.871 141.545 553.127 142.271 551.639V537.98H146.543V557H142.517L142.412 555.137Z" fill="white"/>
<path d="M151.226 547.35C151.226 544.396 151.918 542.041 153.3 540.283C154.695 538.514 156.541 537.629 158.838 537.629C161.006 537.629 162.711 538.385 163.953 539.896L164.146 537.98H167.996V556.42C167.996 558.916 167.216 560.885 165.658 562.326C164.111 563.768 162.019 564.488 159.382 564.488C157.988 564.488 156.623 564.195 155.287 563.609C153.963 563.035 152.955 562.279 152.263 561.342L154.285 558.775C155.597 560.334 157.215 561.113 159.136 561.113C160.554 561.113 161.674 560.727 162.494 559.953C163.314 559.191 163.724 558.066 163.724 556.578V555.295C162.494 556.666 160.853 557.352 158.802 557.352C156.576 557.352 154.754 556.467 153.336 554.697C151.929 552.928 151.226 550.479 151.226 547.35ZM155.48 547.719C155.48 549.629 155.867 551.135 156.64 552.236C157.425 553.326 158.509 553.871 159.892 553.871C161.615 553.871 162.892 553.133 163.724 551.656V543.289C162.916 541.848 161.65 541.127 159.927 541.127C158.521 541.127 157.425 541.684 156.64 542.797C155.867 543.91 155.48 545.551 155.48 547.719Z" fill="white"/>
<path d="M185.002 555.137C183.748 556.613 181.966 557.352 179.658 557.352C177.595 557.352 176.031 556.748 174.964 555.541C173.91 554.334 173.382 552.588 173.382 550.303V537.98H177.654V550.25C177.654 552.664 178.656 553.871 180.66 553.871C182.734 553.871 184.134 553.127 184.861 551.639V537.98H189.132V557H185.107L185.002 555.137Z" fill="white"/>
<path d="M202.939 557.352C200.232 557.352 198.035 556.502 196.347 554.803C194.671 553.092 193.834 550.818 193.834 547.982V547.455C193.834 545.557 194.197 543.863 194.923 542.375C195.662 540.875 196.693 539.709 198.017 538.877C199.341 538.045 200.818 537.629 202.447 537.629C205.037 537.629 207.035 538.455 208.441 540.107C209.859 541.76 210.568 544.098 210.568 547.121V548.844H198.14C198.269 550.414 198.791 551.656 199.705 552.57C200.63 553.484 201.791 553.941 203.185 553.941C205.142 553.941 206.736 553.15 207.966 551.568L210.269 553.766C209.507 554.902 208.488 555.787 207.21 556.42C205.945 557.041 204.521 557.352 202.939 557.352ZM202.429 541.057C201.257 541.057 200.308 541.467 199.582 542.287C198.867 543.107 198.41 544.25 198.21 545.715H206.349V545.398C206.255 543.969 205.875 542.891 205.207 542.164C204.539 541.426 203.613 541.057 202.429 541.057Z" fill="white"/>
<path d="M220.331 533.357V537.98H223.689V541.145H220.331V551.762C220.331 552.488 220.472 553.016 220.753 553.344C221.046 553.66 221.562 553.818 222.3 553.818C222.792 553.818 223.29 553.76 223.794 553.643V556.947C222.822 557.217 221.884 557.352 220.982 557.352C217.701 557.352 216.06 555.541 216.06 551.92V541.145H212.931V537.98H216.06V533.357H220.331Z" fill="white"/>
<path d="M236.423 557.352C233.716 557.352 231.519 556.502 229.831 554.803C228.156 553.092 227.318 550.818 227.318 547.982V547.455C227.318 545.557 227.681 543.863 228.408 542.375C229.146 540.875 230.177 539.709 231.501 538.877C232.826 538.045 234.302 537.629 235.931 537.629C238.521 537.629 240.519 538.455 241.925 540.107C243.343 541.76 244.052 544.098 244.052 547.121V548.844H231.624C231.753 550.414 232.275 551.656 233.189 552.57C234.115 553.484 235.275 553.941 236.669 553.941C238.626 553.941 240.22 553.15 241.451 551.568L243.753 553.766C242.992 554.902 241.972 555.787 240.695 556.42C239.429 557.041 238.005 557.352 236.423 557.352ZM235.913 541.057C234.742 541.057 233.792 541.467 233.066 542.287C232.351 543.107 231.894 544.25 231.695 545.715H239.833V545.398C239.74 543.969 239.359 542.891 238.691 542.164C238.023 541.426 237.097 541.057 235.913 541.057Z" fill="white"/>
<path d="M274.021 543.289H258.868V539.738H274.021V543.289ZM274.021 550.742H258.868V547.209H274.021V550.742Z" fill="white"/>
<path d="M306.714 557H289.505V554.064L298.03 544.766C299.261 543.395 300.134 542.252 300.649 541.338C301.177 540.412 301.44 539.486 301.44 538.561C301.44 537.342 301.095 536.357 300.403 535.607C299.724 534.857 298.804 534.482 297.644 534.482C296.261 534.482 295.189 534.904 294.427 535.748C293.665 536.592 293.284 537.746 293.284 539.211H289.013C289.013 537.652 289.364 536.252 290.067 535.01C290.782 533.756 291.796 532.783 293.108 532.092C294.433 531.4 295.956 531.055 297.679 531.055C300.163 531.055 302.12 531.682 303.55 532.936C304.991 534.178 305.712 535.9 305.712 538.104C305.712 539.381 305.349 540.723 304.622 542.129C303.907 543.523 302.73 545.111 301.089 546.893L294.831 553.59H306.714V557Z" fill="white"/>
<path d="M327.727 546.225C327.727 549.904 327.036 552.682 325.653 554.557C324.282 556.42 322.19 557.352 319.378 557.352C316.612 557.352 314.526 556.443 313.12 554.627C311.726 552.799 311.011 550.098 310.976 546.523V542.094C310.976 538.414 311.661 535.654 313.032 533.814C314.415 531.975 316.519 531.055 319.343 531.055C322.144 531.055 324.229 531.951 325.601 533.744C326.983 535.537 327.692 538.221 327.727 541.795V546.225ZM323.456 541.443C323.456 539.041 323.128 537.283 322.472 536.17C321.815 535.045 320.772 534.482 319.343 534.482C317.948 534.482 316.923 535.016 316.267 536.082C315.61 537.137 315.265 538.789 315.229 541.039V546.84C315.229 549.23 315.563 551.012 316.231 552.184C316.899 553.355 317.948 553.941 319.378 553.941C320.749 553.941 321.763 553.402 322.419 552.324C323.075 551.234 323.421 549.535 323.456 547.227V541.443Z" fill="white"/>
<path d="M347.36 537.98V558.688C347.36 560.633 346.874 562.115 345.901 563.135C344.94 564.166 343.528 564.682 341.665 564.682C340.88 564.682 340.124 564.582 339.397 564.383V561.008C339.843 561.113 340.346 561.166 340.909 561.166C342.327 561.166 343.054 560.393 343.089 558.846V537.98H347.36ZM342.72 533.041C342.72 532.385 342.925 531.84 343.335 531.406C343.757 530.973 344.354 530.756 345.128 530.756C345.901 530.756 346.499 530.973 346.921 531.406C347.343 531.84 347.554 532.385 347.554 533.041C347.554 533.686 347.343 534.225 346.921 534.658C346.499 535.08 345.901 535.291 345.128 535.291C344.354 535.291 343.757 535.08 343.335 534.658C342.925 534.225 342.72 533.686 342.72 533.041Z" fill="white"/>
<path d="M364.542 555.137C363.288 556.613 361.507 557.352 359.198 557.352C357.135 557.352 355.571 556.748 354.505 555.541C353.45 554.334 352.923 552.588 352.923 550.303V537.98H357.194V550.25C357.194 552.664 358.196 553.871 360.2 553.871C362.274 553.871 363.675 553.127 364.401 551.639V537.98H368.673V557H364.647L364.542 555.137Z" fill="white"/>
<path d="M373.356 547.35C373.356 544.396 374.048 542.041 375.43 540.283C376.825 538.514 378.671 537.629 380.967 537.629C383.135 537.629 384.84 538.385 386.083 539.896L386.276 537.98H390.126V556.42C390.126 558.916 389.346 560.885 387.788 562.326C386.241 563.768 384.149 564.488 381.512 564.488C380.118 564.488 378.753 564.195 377.417 563.609C376.092 563.035 375.085 562.279 374.393 561.342L376.415 558.775C377.727 560.334 379.344 561.113 381.266 561.113C382.684 561.113 383.803 560.727 384.624 559.953C385.444 559.191 385.854 558.066 385.854 556.578V555.295C384.624 556.666 382.983 557.352 380.932 557.352C378.706 557.352 376.883 556.467 375.465 554.697C374.059 552.928 373.356 550.479 373.356 547.35ZM377.61 547.719C377.61 549.629 377.997 551.135 378.77 552.236C379.555 553.326 380.639 553.871 382.022 553.871C383.745 553.871 385.022 553.133 385.854 551.656V543.289C385.046 541.848 383.78 541.127 382.057 541.127C380.651 541.127 379.555 541.684 378.77 542.797C377.997 543.91 377.61 545.551 377.61 547.719Z" fill="white"/>
<path d="M407.131 555.137C405.878 556.613 404.096 557.352 401.788 557.352C399.725 557.352 398.161 556.748 397.094 555.541C396.04 554.334 395.512 552.588 395.512 550.303V537.98H399.784V550.25C399.784 552.664 400.786 553.871 402.79 553.871C404.864 553.871 406.264 553.127 406.991 551.639V537.98H411.262V557H407.237L407.131 555.137Z" fill="white"/>
<path d="M425.069 557.352C422.362 557.352 420.165 556.502 418.477 554.803C416.801 553.092 415.963 550.818 415.963 547.982V547.455C415.963 545.557 416.327 543.863 417.053 542.375C417.791 540.875 418.823 539.709 420.147 538.877C421.471 538.045 422.948 537.629 424.577 537.629C427.166 537.629 429.165 538.455 430.571 540.107C431.989 541.76 432.698 544.098 432.698 547.121V548.844H420.27C420.399 550.414 420.92 551.656 421.834 552.57C422.76 553.484 423.92 553.941 425.315 553.941C427.272 553.941 428.866 553.15 430.096 551.568L432.399 553.766C431.637 554.902 430.618 555.787 429.34 556.42C428.075 557.041 426.651 557.352 425.069 557.352ZM424.559 541.057C423.387 541.057 422.438 541.467 421.711 542.287C420.997 543.107 420.54 544.25 420.34 545.715H428.479V545.398C428.385 543.969 428.004 542.891 427.336 542.164C426.668 541.426 425.743 541.057 424.559 541.057Z" fill="white"/>
<path d="M442.461 533.357V537.98H445.819V541.145H442.461V551.762C442.461 552.488 442.602 553.016 442.883 553.344C443.176 553.66 443.692 553.818 444.43 553.818C444.922 553.818 445.42 553.76 445.924 553.643V556.947C444.952 557.217 444.014 557.352 443.112 557.352C439.83 557.352 438.19 555.541 438.19 551.92V541.145H435.061V537.98H438.19V533.357H442.461Z" fill="white"/>
<path d="M458.553 557.352C455.846 557.352 453.649 556.502 451.961 554.803C450.285 553.092 449.448 550.818 449.448 547.982V547.455C449.448 545.557 449.811 543.863 450.537 542.375C451.276 540.875 452.307 539.709 453.631 538.877C454.955 538.045 456.432 537.629 458.061 537.629C460.651 537.629 462.649 538.455 464.055 540.107C465.473 541.76 466.182 544.098 466.182 547.121V548.844H453.754C453.883 550.414 454.405 551.656 455.319 552.57C456.244 553.484 457.405 553.941 458.799 553.941C460.756 553.941 462.35 553.15 463.58 551.568L465.883 553.766C465.121 554.902 464.102 555.787 462.825 556.42C461.559 557.041 460.135 557.352 458.553 557.352ZM458.043 541.057C456.871 541.057 455.922 541.467 455.196 542.287C454.481 543.107 454.024 544.25 453.825 545.715H461.963V545.398C461.869 543.969 461.489 542.891 460.821 542.164C460.153 541.426 459.227 541.057 458.043 541.057Z" fill="white"/>
<path d="M481.254 551.832C481.254 551.07 480.938 550.49 480.305 550.092C479.684 549.693 478.647 549.342 477.194 549.037C475.74 548.732 474.528 548.346 473.555 547.877C471.422 546.846 470.356 545.352 470.356 543.395C470.356 541.754 471.047 540.383 472.43 539.281C473.813 538.18 475.571 537.629 477.703 537.629C479.977 537.629 481.811 538.191 483.205 539.316C484.612 540.441 485.315 541.9 485.315 543.693H481.043C481.043 542.873 480.739 542.193 480.129 541.654C479.52 541.104 478.711 540.828 477.703 540.828C476.766 540.828 475.998 541.045 475.401 541.479C474.815 541.912 474.522 542.492 474.522 543.219C474.522 543.875 474.797 544.385 475.348 544.748C475.899 545.111 477.012 545.48 478.688 545.855C480.364 546.219 481.676 546.658 482.625 547.174C483.586 547.678 484.295 548.287 484.752 549.002C485.221 549.717 485.455 550.584 485.455 551.604C485.455 553.314 484.746 554.703 483.328 555.77C481.91 556.824 480.053 557.352 477.756 557.352C476.198 557.352 474.809 557.07 473.59 556.508C472.371 555.945 471.422 555.172 470.742 554.188C470.063 553.203 469.723 552.143 469.723 551.006H473.871C473.93 552.014 474.311 552.793 475.014 553.344C475.717 553.883 476.649 554.152 477.809 554.152C478.934 554.152 479.789 553.941 480.375 553.52C480.961 553.086 481.254 552.523 481.254 551.832Z" fill="white"/>
</g>
</g>
</svg>
