<svg  viewBox="0 0 793 551" fill="none" xmlns="http://www.w3.org/2000/svg">
<g id="0122205">
<g id="caja-bolitas">
<g id="caja">
<path id="Rectangle 16" d="M2 81H598V277H2V81Z" fill="#2CF30B" stroke="#A394A5" stroke-width="4"/>
<path id="Rectangle 16 (Stroke)" d="M5 82H3V84V274V276H5H595H597V274V84V82H595H5ZM2 81H598V277H2V81Z" fill="#2CF30B" stroke="#A394A5" stroke-width="4"/>
<path id="Rectangle 17" d="M791 198.63L601.5 272.08V81.5V79.5H599.5H13.6889L193.413 2H791V198.63Z" fill="#2CF30B" stroke="#A394A5" stroke-width="4"/>
<path id="Rectangle 17 (Stroke)" d="M601.5 81.5V79.5H599.5H13.6889L193.413 2H791V198.63L601.5 272.08V81.5ZM27.4304 74.6635L28.2223 78.5H602.5V267.7V270.62L605.223 269.564L788.723 198.44L790 197.945V196.576V5V3H788H194.032H193.619L193.24 3.16347L27.4304 74.6635Z" fill="#2CF30B" stroke="#A394A5" stroke-width="4"/>
<path id="Line 2 (Stroke)" d="M780.013 3.98123L780.391 4.9067L591.093 82.3914L590.715 81.466L780.013 3.98123Z" fill="#A394A5" stroke="#A394A5" stroke-width="4"/>
<path id="Line 3 (Stroke)" d="M489.967 38.011L489.989 42.0109L307.989 43L307.967 39.0001L489.967 38.011Z" fill="#02071A" stroke="#A394A5" stroke-width="4"/>
</g>
<g id="Group 24">
<g id="Group 11">
<path id="Ellipse 24" d="M122 152C122 166.912 109.912 179 95 179C80.0883 179 68 166.912 68 152C68 137.088 80.0883 125 95 125C109.912 125 122 137.088 122 152Z" fill="white"/>
<path id="Ellipse 27" d="M320 152C320 166.912 307.912 179 293 179C278.088 179 266 166.912 266 152C266 137.088 278.088 125 293 125C307.912 125 320 137.088 320 152Z" fill="#F3C72C"/>
<path id="Ellipse 28" d="M386 152C386 166.912 373.912 179 359 179C344.088 179 332 166.912 332 152C332 137.088 344.088 125 359 125C373.912 125 386 137.088 386 152Z" fill="black"/>
<path id="Ellipse 29" d="M452 152C452 166.912 439.912 179 425 179C410.088 179 398 166.912 398 152C398 137.088 410.088 125 425 125C439.912 125 452 137.088 452 152Z" fill="#13EBF9"/>
<path id="Ellipse 30" d="M518 152C518 166.912 505.912 179 491 179C476.088 179 464 166.912 464 152C464 137.088 476.088 125 491 125C505.912 125 518 137.088 518 152Z" fill="#FD0C0C"/>
<path id="Ellipse 25" d="M188 152C188 166.912 175.912 179 161 179C146.088 179 134 166.912 134 152C134 137.088 146.088 125 161 125C175.912 125 188 137.088 188 152Z" fill="#1043F5"/>
<path id="Ellipse 26" d="M254 152C254 166.912 241.912 179 227 179C212.088 179 200 166.912 200 152C200 137.088 212.088 125 227 125C241.912 125 254 137.088 254 152Z" fill="#258A0C"/>
</g>
<g id="3 5 6 2 8 4 5">
<path d="M90.998 214.794H94.0332C95.5645 214.78 96.7744 214.384 97.6631 213.604C98.5654 212.825 99.0166 211.697 99.0166 210.221C99.0166 208.799 98.6406 207.698 97.8887 206.919C97.1504 206.126 96.0156 205.729 94.4844 205.729C93.1445 205.729 92.0439 206.119 91.1826 206.898C90.3213 207.664 89.8906 208.669 89.8906 209.913H84.9072C84.9072 208.382 85.3105 206.987 86.1172 205.729C86.9375 204.472 88.0723 203.494 89.5215 202.797C90.9844 202.086 92.6182 201.73 94.4229 201.73C97.4033 201.73 99.7412 202.482 101.437 203.986C103.146 205.477 104 207.555 104 210.221C104 211.561 103.569 212.825 102.708 214.015C101.86 215.19 100.76 216.079 99.4062 216.681C101.047 217.241 102.291 218.123 103.139 219.326C104 220.529 104.431 221.965 104.431 223.633C104.431 226.312 103.508 228.445 101.662 230.031C99.8301 231.617 97.417 232.41 94.4229 232.41C91.5518 232.41 89.2002 231.645 87.3682 230.113C85.5361 228.582 84.6201 226.545 84.6201 224.002H89.6035C89.6035 225.314 90.041 226.381 90.916 227.201C91.8047 228.021 92.9941 228.432 94.4844 228.432C96.0293 228.432 97.2461 228.021 98.1348 227.201C99.0234 226.381 99.4678 225.191 99.4678 223.633C99.4678 222.061 99.0029 220.851 98.0732 220.003C97.1436 219.155 95.7627 218.731 93.9307 218.731H90.998V214.794Z" fill="black"/>
<path d="M152.275 217.193L153.896 202.141H169.933V206.447H158.038L157.218 213.584C158.599 212.791 160.157 212.395 161.894 212.395C164.737 212.395 166.945 213.304 168.518 215.122C170.104 216.94 170.896 219.388 170.896 222.464C170.896 225.499 170.021 227.919 168.271 229.724C166.521 231.515 164.122 232.41 161.073 232.41C158.339 232.41 156.069 231.638 154.265 230.093C152.474 228.534 151.503 226.483 151.353 223.94H156.172C156.363 225.39 156.883 226.504 157.73 227.283C158.578 228.049 159.686 228.432 161.053 228.432C162.584 228.432 163.773 227.885 164.621 226.791C165.482 225.697 165.913 224.207 165.913 222.32C165.913 220.502 165.441 219.066 164.498 218.014C163.555 216.947 162.256 216.414 160.602 216.414C159.699 216.414 158.934 216.537 158.305 216.783C157.676 217.016 156.992 217.48 156.254 218.178L152.275 217.193Z" fill="black"/>
<path d="M232.153 201.997V206.119H231.538C228.749 206.16 226.521 206.926 224.853 208.416C223.185 209.906 222.193 212.019 221.879 214.753C223.479 213.071 225.522 212.23 228.011 212.23C230.649 212.23 232.728 213.16 234.245 215.02C235.776 216.879 236.542 219.278 236.542 222.218C236.542 225.253 235.646 227.714 233.855 229.601C232.078 231.474 229.74 232.41 226.842 232.41C223.861 232.41 221.441 231.31 219.582 229.108C217.736 226.907 216.813 224.022 216.813 220.454V218.752C216.813 213.516 218.085 209.414 220.628 206.447C223.185 203.48 226.855 201.997 231.641 201.997H232.153ZM226.801 216.25C225.707 216.25 224.702 216.558 223.786 217.173C222.884 217.788 222.221 218.608 221.797 219.634V221.151C221.797 223.366 222.262 225.13 223.191 226.442C224.121 227.741 225.324 228.391 226.801 228.391C228.277 228.391 229.446 227.837 230.308 226.729C231.169 225.622 231.6 224.166 231.6 222.361C231.6 220.557 231.162 219.087 230.287 217.952C229.412 216.817 228.25 216.25 226.801 216.25Z" fill="black"/>
<path d="M302.434 232H282.356V228.575L292.303 217.727C293.738 216.127 294.757 214.794 295.358 213.728C295.974 212.647 296.281 211.567 296.281 210.487C296.281 209.065 295.878 207.917 295.071 207.042C294.278 206.167 293.205 205.729 291.852 205.729C290.238 205.729 288.987 206.222 288.099 207.206C287.21 208.19 286.766 209.537 286.766 211.246H281.782C281.782 209.428 282.192 207.794 283.013 206.345C283.847 204.882 285.029 203.747 286.561 202.94C288.105 202.134 289.883 201.73 291.893 201.73C294.791 201.73 297.074 202.462 298.742 203.925C300.424 205.374 301.265 207.384 301.265 209.954C301.265 211.444 300.841 213.01 299.993 214.65C299.159 216.277 297.785 218.13 295.871 220.208L288.57 228.021H302.434V232Z" fill="black"/>
<path d="M366.869 210.016C366.869 211.479 366.493 212.784 365.741 213.933C364.989 215.067 363.964 215.963 362.665 216.619C364.224 217.344 365.42 218.335 366.254 219.593C367.102 220.851 367.525 222.272 367.525 223.858C367.525 226.483 366.637 228.568 364.859 230.113C363.082 231.645 360.717 232.41 357.764 232.41C354.797 232.41 352.418 231.638 350.627 230.093C348.85 228.548 347.961 226.47 347.961 223.858C347.961 222.259 348.385 220.823 349.232 219.552C350.08 218.28 351.27 217.303 352.801 216.619C351.516 215.963 350.497 215.067 349.745 213.933C349.007 212.784 348.638 211.479 348.638 210.016C348.638 207.473 349.458 205.456 351.099 203.966C352.739 202.476 354.954 201.73 357.743 201.73C360.546 201.73 362.768 202.476 364.408 203.966C366.049 205.456 366.869 207.473 366.869 210.016ZM362.542 223.612C362.542 222.136 362.098 220.946 361.209 220.044C360.334 219.128 359.172 218.67 357.723 218.67C356.273 218.67 355.111 219.121 354.236 220.023C353.375 220.926 352.944 222.122 352.944 223.612C352.944 225.075 353.368 226.244 354.216 227.119C355.077 227.994 356.26 228.432 357.764 228.432C359.268 228.432 360.437 228.008 361.271 227.16C362.118 226.312 362.542 225.13 362.542 223.612ZM361.906 210.2C361.906 208.901 361.53 207.835 360.778 207.001C360.026 206.153 359.015 205.729 357.743 205.729C356.472 205.729 355.467 206.133 354.729 206.939C353.99 207.732 353.621 208.819 353.621 210.2C353.621 211.567 353.99 212.654 354.729 213.461C355.48 214.268 356.492 214.671 357.764 214.671C359.035 214.671 360.04 214.268 360.778 213.461C361.53 212.654 361.906 211.567 361.906 210.2Z" fill="black"/>
<path d="M430.628 221.356H434.34V225.355H430.628V232H425.645V225.355H412.745L412.602 222.32L425.48 202.141H430.628V221.356ZM417.831 221.356H425.645V208.888L425.275 209.544L417.831 221.356Z" fill="black"/>
<path d="M480.811 217.193L482.431 202.141H498.468V206.447H486.573L485.753 213.584C487.134 212.791 488.692 212.395 490.429 212.395C493.272 212.395 495.48 213.304 497.053 215.122C498.639 216.94 499.432 219.388 499.432 222.464C499.432 225.499 498.557 227.919 496.807 229.724C495.057 231.515 492.657 232.41 489.608 232.41C486.874 232.41 484.604 231.638 482.8 230.093C481.009 228.534 480.038 226.483 479.888 223.94H484.707C484.898 225.39 485.418 226.504 486.266 227.283C487.113 228.049 488.221 228.432 489.588 228.432C491.119 228.432 492.309 227.885 493.156 226.791C494.018 225.697 494.448 224.207 494.448 222.32C494.448 220.502 493.977 219.066 493.033 218.014C492.09 216.947 490.791 216.414 489.137 216.414C488.234 216.414 487.469 216.537 486.84 216.783C486.211 217.016 485.527 217.48 484.789 218.178L480.811 217.193Z" fill="black"/>
</g>
</g>
</g>
<g id="text">
<path d="M19.0928 353.356H22.8047V357.355H19.0928V364H14.1094V357.355H1.20996L1.06641 354.32L13.9453 334.141H19.0928V353.356ZM6.2959 353.356H14.1094V340.888L13.7402 341.544L6.2959 353.356Z" fill="white"/>
<path d="M45.999 360.432C47.2432 360.432 48.2754 360.069 49.0957 359.345C49.916 358.62 50.3535 357.725 50.4082 356.658H55.1045C55.0498 358.039 54.6191 359.331 53.8125 360.534C53.0059 361.724 51.9121 362.667 50.5312 363.364C49.1504 364.062 47.6602 364.41 46.0605 364.41C42.957 364.41 40.4961 363.405 38.6777 361.396C36.8594 359.386 35.9502 356.61 35.9502 353.069V352.557C35.9502 349.18 36.8525 346.479 38.6572 344.456C40.4619 342.419 42.9229 341.4 46.04 341.4C48.6787 341.4 50.8252 342.173 52.4795 343.718C54.1475 345.249 55.0225 347.266 55.1045 349.768H50.4082C50.3535 348.496 49.916 347.45 49.0957 346.63C48.2891 345.81 47.2568 345.399 45.999 345.399C44.3857 345.399 43.1416 345.987 42.2666 347.163C41.3916 348.325 40.9473 350.096 40.9336 352.475V353.274C40.9336 355.681 41.3643 357.479 42.2256 358.668C43.1006 359.844 44.3584 360.432 45.999 360.432Z" fill="white"/>
<path d="M72.126 364C71.9072 363.576 71.7158 362.886 71.5518 361.929C69.9658 363.583 68.0244 364.41 65.7275 364.41C63.499 364.41 61.6807 363.774 60.2725 362.503C58.8643 361.231 58.1602 359.659 58.1602 357.786C58.1602 355.421 59.0352 353.609 60.7852 352.352C62.5488 351.08 65.0645 350.444 68.332 350.444H71.3877V348.988C71.3877 347.84 71.0664 346.924 70.4238 346.24C69.7812 345.543 68.8037 345.194 67.4912 345.194C66.3564 345.194 65.4268 345.481 64.7021 346.056C63.9775 346.616 63.6152 347.334 63.6152 348.209H58.6318C58.6318 346.992 59.0352 345.857 59.8418 344.805C60.6484 343.738 61.7422 342.904 63.123 342.303C64.5176 341.701 66.0693 341.4 67.7783 341.4C70.376 341.4 72.4473 342.057 73.9922 343.369C75.5371 344.668 76.3301 346.5 76.3711 348.865V358.873C76.3711 360.869 76.6514 362.462 77.2119 363.651V364H72.126ZM66.6504 360.411C67.6348 360.411 68.5576 360.172 69.4189 359.693C70.2939 359.215 70.9502 358.572 71.3877 357.766V353.582H68.7012C66.8555 353.582 65.4678 353.903 64.5381 354.546C63.6084 355.188 63.1436 356.098 63.1436 357.273C63.1436 358.23 63.458 358.996 64.0869 359.57C64.7295 360.131 65.584 360.411 66.6504 360.411Z" fill="white"/>
<path d="M86.2148 341.811L86.3584 344.374C87.999 342.392 90.1523 341.4 92.8184 341.4C97.4395 341.4 99.791 344.046 99.873 349.337V364H94.8896V349.624C94.8896 348.216 94.582 347.177 93.9668 346.507C93.3652 345.823 92.374 345.481 90.9932 345.481C88.9834 345.481 87.4863 346.391 86.502 348.209V364H81.5186V341.811H86.2148Z" fill="white"/>
<path d="M110.271 364H105.287V341.811H110.271V364ZM104.979 336.048C104.979 335.282 105.219 334.646 105.697 334.141C106.189 333.635 106.887 333.382 107.789 333.382C108.691 333.382 109.389 333.635 109.881 334.141C110.373 334.646 110.619 335.282 110.619 336.048C110.619 336.8 110.373 337.429 109.881 337.935C109.389 338.427 108.691 338.673 107.789 338.673C106.887 338.673 106.189 338.427 105.697 337.935C105.219 337.429 104.979 336.8 104.979 336.048Z" fill="white"/>
<path d="M124.831 360.432C126.075 360.432 127.107 360.069 127.928 359.345C128.748 358.62 129.186 357.725 129.24 356.658H133.937C133.882 358.039 133.451 359.331 132.645 360.534C131.838 361.724 130.744 362.667 129.363 363.364C127.982 364.062 126.492 364.41 124.893 364.41C121.789 364.41 119.328 363.405 117.51 361.396C115.691 359.386 114.782 356.61 114.782 353.069V352.557C114.782 349.18 115.685 346.479 117.489 344.456C119.294 342.419 121.755 341.4 124.872 341.4C127.511 341.4 129.657 342.173 131.312 343.718C132.979 345.249 133.854 347.266 133.937 349.768H129.24C129.186 348.496 128.748 347.45 127.928 346.63C127.121 345.81 126.089 345.399 124.831 345.399C123.218 345.399 121.974 345.987 121.099 347.163C120.224 348.325 119.779 350.096 119.766 352.475V353.274C119.766 355.681 120.196 357.479 121.058 358.668C121.933 359.844 123.19 360.432 124.831 360.432Z" fill="white"/>
<path d="M150.958 364C150.739 363.576 150.548 362.886 150.384 361.929C148.798 363.583 146.856 364.41 144.56 364.41C142.331 364.41 140.513 363.774 139.104 362.503C137.696 361.231 136.992 359.659 136.992 357.786C136.992 355.421 137.867 353.609 139.617 352.352C141.381 351.08 143.896 350.444 147.164 350.444H150.22V348.988C150.22 347.84 149.898 346.924 149.256 346.24C148.613 345.543 147.636 345.194 146.323 345.194C145.188 345.194 144.259 345.481 143.534 346.056C142.81 346.616 142.447 347.334 142.447 348.209H137.464C137.464 346.992 137.867 345.857 138.674 344.805C139.48 343.738 140.574 342.904 141.955 342.303C143.35 341.701 144.901 341.4 146.61 341.4C149.208 341.4 151.279 342.057 152.824 343.369C154.369 344.668 155.162 346.5 155.203 348.865V358.873C155.203 360.869 155.483 362.462 156.044 363.651V364H150.958ZM145.482 360.411C146.467 360.411 147.39 360.172 148.251 359.693C149.126 359.215 149.782 358.572 150.22 357.766V353.582H147.533C145.688 353.582 144.3 353.903 143.37 354.546C142.44 355.188 141.976 356.098 141.976 357.273C141.976 358.23 142.29 358.996 142.919 359.57C143.562 360.131 144.416 360.411 145.482 360.411Z" fill="white"/>
<path d="M172.86 357.971C172.86 357.082 172.491 356.405 171.753 355.94C171.028 355.476 169.818 355.065 168.123 354.71C166.428 354.354 165.013 353.903 163.878 353.356C161.39 352.153 160.146 350.41 160.146 348.127C160.146 346.213 160.952 344.613 162.565 343.328C164.179 342.043 166.229 341.4 168.718 341.4C171.37 341.4 173.51 342.057 175.137 343.369C176.777 344.682 177.598 346.384 177.598 348.476H172.614C172.614 347.519 172.259 346.726 171.548 346.097C170.837 345.454 169.894 345.133 168.718 345.133C167.624 345.133 166.729 345.386 166.031 345.892C165.348 346.397 165.006 347.074 165.006 347.922C165.006 348.688 165.327 349.282 165.97 349.706C166.612 350.13 167.911 350.561 169.866 350.998C171.821 351.422 173.353 351.935 174.46 352.536C175.581 353.124 176.408 353.835 176.941 354.669C177.488 355.503 177.762 356.515 177.762 357.704C177.762 359.7 176.935 361.32 175.28 362.564C173.626 363.795 171.459 364.41 168.779 364.41C166.961 364.41 165.341 364.082 163.919 363.426C162.497 362.77 161.39 361.867 160.597 360.719C159.804 359.57 159.407 358.333 159.407 357.007H164.247C164.315 358.183 164.76 359.092 165.58 359.734C166.4 360.363 167.487 360.678 168.841 360.678C170.153 360.678 171.151 360.432 171.835 359.939C172.519 359.434 172.86 358.777 172.86 357.971Z" fill="white"/>
<path d="M191.646 352.741C191.646 349.323 192.438 346.582 194.024 344.518C195.61 342.439 197.736 341.4 200.402 341.4C202.754 341.4 204.654 342.221 206.104 343.861V332.5H211.087V364H206.575L206.329 361.703C204.839 363.508 202.85 364.41 200.361 364.41C197.764 364.41 195.658 363.364 194.045 361.272C192.445 359.181 191.646 356.337 191.646 352.741ZM196.629 353.172C196.629 355.428 197.06 357.191 197.921 358.463C198.796 359.721 200.033 360.35 201.633 360.35C203.67 360.35 205.16 359.44 206.104 357.622V348.147C205.188 346.37 203.711 345.481 201.674 345.481C200.061 345.481 198.816 346.124 197.941 347.409C197.066 348.681 196.629 350.602 196.629 353.172Z" fill="white"/>
<path d="M226.058 364.41C222.899 364.41 220.336 363.419 218.367 361.437C216.412 359.44 215.435 356.788 215.435 353.479V352.864C215.435 350.649 215.858 348.674 216.706 346.938C217.567 345.188 218.771 343.827 220.315 342.856C221.86 341.886 223.583 341.4 225.483 341.4C228.505 341.4 230.836 342.364 232.477 344.292C234.131 346.22 234.958 348.947 234.958 352.475V354.484H220.459C220.609 356.316 221.218 357.766 222.284 358.832C223.364 359.898 224.718 360.432 226.345 360.432C228.628 360.432 230.487 359.509 231.923 357.663L234.609 360.227C233.721 361.553 232.531 362.585 231.041 363.323C229.564 364.048 227.903 364.41 226.058 364.41ZM225.463 345.399C224.096 345.399 222.988 345.878 222.141 346.835C221.307 347.792 220.773 349.125 220.541 350.834H230.036V350.465C229.927 348.797 229.482 347.539 228.703 346.691C227.924 345.83 226.844 345.399 225.463 345.399Z" fill="white"/>
<path d="M258.419 360.432C259.663 360.432 260.695 360.069 261.516 359.345C262.336 358.62 262.773 357.725 262.828 356.658H267.524C267.47 358.039 267.039 359.331 266.232 360.534C265.426 361.724 264.332 362.667 262.951 363.364C261.57 364.062 260.08 364.41 258.48 364.41C255.377 364.41 252.916 363.405 251.098 361.396C249.279 359.386 248.37 356.61 248.37 353.069V352.557C248.37 349.18 249.272 346.479 251.077 344.456C252.882 342.419 255.343 341.4 258.46 341.4C261.099 341.4 263.245 342.173 264.899 343.718C266.567 345.249 267.442 347.266 267.524 349.768H262.828C262.773 348.496 262.336 347.45 261.516 346.63C260.709 345.81 259.677 345.399 258.419 345.399C256.806 345.399 255.562 345.987 254.687 347.163C253.812 348.325 253.367 350.096 253.354 352.475V353.274C253.354 355.681 253.784 357.479 254.646 358.668C255.521 359.844 256.778 360.432 258.419 360.432Z" fill="white"/>
<path d="M270.354 352.7C270.354 350.526 270.785 348.571 271.646 346.835C272.508 345.085 273.718 343.745 275.276 342.815C276.835 341.872 278.626 341.4 280.649 341.4C283.644 341.4 286.07 342.364 287.93 344.292C289.803 346.22 290.814 348.776 290.965 351.962L290.985 353.131C290.985 355.318 290.562 357.273 289.714 358.996C288.88 360.719 287.677 362.052 286.104 362.995C284.546 363.938 282.741 364.41 280.69 364.41C277.56 364.41 275.051 363.371 273.164 361.293C271.291 359.201 270.354 356.419 270.354 352.946V352.7ZM275.338 353.131C275.338 355.414 275.81 357.205 276.753 358.504C277.696 359.789 279.009 360.432 280.69 360.432C282.372 360.432 283.678 359.775 284.607 358.463C285.551 357.15 286.022 355.229 286.022 352.7C286.022 350.458 285.537 348.681 284.566 347.368C283.609 346.056 282.304 345.399 280.649 345.399C279.022 345.399 277.73 346.049 276.773 347.348C275.816 348.633 275.338 350.561 275.338 353.131Z" fill="white"/>
<path d="M300.501 364H295.518V332.5H300.501V364Z" fill="white"/>
<path d="M305.013 352.7C305.013 350.526 305.443 348.571 306.305 346.835C307.166 345.085 308.376 343.745 309.935 342.815C311.493 341.872 313.284 341.4 315.308 341.4C318.302 341.4 320.729 342.364 322.588 344.292C324.461 346.22 325.473 348.776 325.623 351.962L325.644 353.131C325.644 355.318 325.22 357.273 324.372 358.996C323.538 360.719 322.335 362.052 320.763 362.995C319.204 363.938 317.399 364.41 315.349 364.41C312.218 364.41 309.709 363.371 307.822 361.293C305.949 359.201 305.013 356.419 305.013 352.946V352.7ZM309.996 353.131C309.996 355.414 310.468 357.205 311.411 358.504C312.354 359.789 313.667 360.432 315.349 360.432C317.03 360.432 318.336 359.775 319.266 358.463C320.209 357.15 320.681 355.229 320.681 352.7C320.681 350.458 320.195 348.681 319.225 347.368C318.268 346.056 316.962 345.399 315.308 345.399C313.681 345.399 312.389 346.049 311.432 347.348C310.475 348.633 309.996 350.561 309.996 353.131Z" fill="white"/>
<path d="M341.476 346.363C340.819 346.254 340.143 346.199 339.445 346.199C337.162 346.199 335.624 347.074 334.831 348.824V364H329.848V341.811H334.605L334.729 344.292C335.932 342.364 337.6 341.4 339.732 341.4C340.443 341.4 341.031 341.496 341.496 341.688L341.476 346.363Z" fill="white"/>
<path d="M353.985 364.41C350.827 364.41 348.264 363.419 346.295 361.437C344.34 359.44 343.362 356.788 343.362 353.479V352.864C343.362 350.649 343.786 348.674 344.634 346.938C345.495 345.188 346.698 343.827 348.243 342.856C349.788 341.886 351.511 341.4 353.411 341.4C356.433 341.4 358.764 342.364 360.404 344.292C362.059 346.22 362.886 348.947 362.886 352.475V354.484H348.387C348.537 356.316 349.146 357.766 350.212 358.832C351.292 359.898 352.646 360.432 354.272 360.432C356.556 360.432 358.415 359.509 359.851 357.663L362.537 360.227C361.648 361.553 360.459 362.585 358.969 363.323C357.492 364.048 355.831 364.41 353.985 364.41ZM353.391 345.399C352.023 345.399 350.916 345.878 350.068 346.835C349.234 347.792 348.701 349.125 348.469 350.834H357.964V350.465C357.854 348.797 357.41 347.539 356.631 346.691C355.852 345.83 354.771 345.399 353.391 345.399Z" fill="white"/>
<path d="M379.21 357.971C379.21 357.082 378.841 356.405 378.103 355.94C377.378 355.476 376.168 355.065 374.473 354.71C372.777 354.354 371.362 353.903 370.228 353.356C367.739 352.153 366.495 350.41 366.495 348.127C366.495 346.213 367.302 344.613 368.915 343.328C370.528 342.043 372.579 341.4 375.067 341.4C377.72 341.4 379.859 342.057 381.486 343.369C383.127 344.682 383.947 346.384 383.947 348.476H378.964C378.964 347.519 378.608 346.726 377.897 346.097C377.187 345.454 376.243 345.133 375.067 345.133C373.974 345.133 373.078 345.386 372.381 345.892C371.697 346.397 371.355 347.074 371.355 347.922C371.355 348.688 371.677 349.282 372.319 349.706C372.962 350.13 374.261 350.561 376.216 350.998C378.171 351.422 379.702 351.935 380.81 352.536C381.931 353.124 382.758 353.835 383.291 354.669C383.838 355.503 384.111 356.515 384.111 357.704C384.111 359.7 383.284 361.32 381.63 362.564C379.976 363.795 377.809 364.41 375.129 364.41C373.311 364.41 371.69 364.082 370.269 363.426C368.847 362.77 367.739 361.867 366.946 360.719C366.153 359.57 365.757 358.333 365.757 357.007H370.597C370.665 358.183 371.109 359.092 371.93 359.734C372.75 360.363 373.837 360.678 375.19 360.678C376.503 360.678 377.501 360.432 378.185 359.939C378.868 359.434 379.21 358.777 379.21 357.971Z" fill="white"/>
<path d="M397.995 352.741C397.995 349.323 398.788 346.582 400.374 344.518C401.96 342.439 404.086 341.4 406.752 341.4C409.104 341.4 411.004 342.221 412.453 343.861V332.5H417.437V364H412.925L412.679 361.703C411.188 363.508 409.199 364.41 406.711 364.41C404.113 364.41 402.008 363.364 400.395 361.272C398.795 359.181 397.995 356.337 397.995 352.741ZM402.979 353.172C402.979 355.428 403.409 357.191 404.271 358.463C405.146 359.721 406.383 360.35 407.982 360.35C410.02 360.35 411.51 359.44 412.453 357.622V348.147C411.537 346.37 410.061 345.481 408.023 345.481C406.41 345.481 405.166 346.124 404.291 347.409C403.416 348.681 402.979 350.602 402.979 353.172Z" fill="white"/>
<path d="M427.937 364H422.953V341.811H427.937V364ZM422.646 336.048C422.646 335.282 422.885 334.646 423.363 334.141C423.855 333.635 424.553 333.382 425.455 333.382C426.357 333.382 427.055 333.635 427.547 334.141C428.039 334.646 428.285 335.282 428.285 336.048C428.285 336.8 428.039 337.429 427.547 337.935C427.055 338.427 426.357 338.673 425.455 338.673C424.553 338.673 423.855 338.427 423.363 337.935C422.885 337.429 422.646 336.8 422.646 336.048Z" fill="white"/>
<path d="M435.135 364V345.502H431.751V341.811H435.135V339.78C435.135 337.319 435.818 335.419 437.186 334.079C438.553 332.739 440.467 332.069 442.928 332.069C443.803 332.069 444.732 332.192 445.717 332.438L445.594 336.335C445.047 336.226 444.411 336.171 443.687 336.171C441.308 336.171 440.118 337.395 440.118 339.842V341.811H444.63V345.502H440.118V364H435.135Z" fill="white"/>
<path d="M457.55 364.41C454.392 364.41 451.828 363.419 449.859 361.437C447.904 359.44 446.927 356.788 446.927 353.479V352.864C446.927 350.649 447.351 348.674 448.198 346.938C449.06 345.188 450.263 343.827 451.808 342.856C453.353 341.886 455.075 341.4 456.976 341.4C459.997 341.4 462.328 342.364 463.969 344.292C465.623 346.22 466.45 348.947 466.45 352.475V354.484H451.951C452.102 356.316 452.71 357.766 453.776 358.832C454.856 359.898 456.21 360.432 457.837 360.432C460.12 360.432 461.979 359.509 463.415 357.663L466.102 360.227C465.213 361.553 464.023 362.585 462.533 363.323C461.057 364.048 459.396 364.41 457.55 364.41ZM456.955 345.399C455.588 345.399 454.48 345.878 453.633 346.835C452.799 347.792 452.266 349.125 452.033 350.834H461.528V350.465C461.419 348.797 460.975 347.539 460.195 346.691C459.416 345.83 458.336 345.399 456.955 345.399Z" fill="white"/>
<path d="M481.954 346.363C481.298 346.254 480.621 346.199 479.924 346.199C477.641 346.199 476.103 347.074 475.31 348.824V364H470.326V341.811H475.084L475.207 344.292C476.41 342.364 478.078 341.4 480.211 341.4C480.922 341.4 481.51 341.496 481.975 341.688L481.954 346.363Z" fill="white"/>
<path d="M494.464 364.41C491.306 364.41 488.742 363.419 486.773 361.437C484.818 359.44 483.841 356.788 483.841 353.479V352.864C483.841 350.649 484.265 348.674 485.112 346.938C485.974 345.188 487.177 343.827 488.722 342.856C490.267 341.886 491.989 341.4 493.89 341.4C496.911 341.4 499.242 342.364 500.883 344.292C502.537 346.22 503.364 348.947 503.364 352.475V354.484H488.865C489.016 356.316 489.624 357.766 490.69 358.832C491.771 359.898 493.124 360.432 494.751 360.432C497.034 360.432 498.894 359.509 500.329 357.663L503.016 360.227C502.127 361.553 500.938 362.585 499.447 363.323C497.971 364.048 496.31 364.41 494.464 364.41ZM493.869 345.399C492.502 345.399 491.395 345.878 490.547 346.835C489.713 347.792 489.18 349.125 488.947 350.834H498.442V350.465C498.333 348.797 497.889 347.539 497.109 346.691C496.33 345.83 495.25 345.399 493.869 345.399Z" fill="white"/>
<path d="M511.875 341.811L512.019 344.374C513.659 342.392 515.812 341.4 518.479 341.4C523.1 341.4 525.451 344.046 525.533 349.337V364H520.55V349.624C520.55 348.216 520.242 347.177 519.627 346.507C519.025 345.823 518.034 345.481 516.653 345.481C514.644 345.481 513.146 346.391 512.162 348.209V364H507.179V341.811H511.875Z" fill="white"/>
<path d="M536.874 336.417V341.811H540.791V345.502H536.874V357.889C536.874 358.736 537.038 359.352 537.366 359.734C537.708 360.104 538.31 360.288 539.171 360.288C539.745 360.288 540.326 360.22 540.914 360.083V363.938C539.779 364.253 538.686 364.41 537.633 364.41C533.805 364.41 531.891 362.298 531.891 358.073V345.502H528.24V341.811H531.891V336.417H536.874Z" fill="white"/>
<path d="M554.388 364.41C551.229 364.41 548.666 363.419 546.697 361.437C544.742 359.44 543.765 356.788 543.765 353.479V352.864C543.765 350.649 544.188 348.674 545.036 346.938C545.897 345.188 547.101 343.827 548.646 342.856C550.19 341.886 551.913 341.4 553.813 341.4C556.835 341.4 559.166 342.364 560.807 344.292C562.461 346.22 563.288 348.947 563.288 352.475V354.484H548.789C548.939 356.316 549.548 357.766 550.614 358.832C551.694 359.898 553.048 360.432 554.675 360.432C556.958 360.432 558.817 359.509 560.253 357.663L562.939 360.227C562.051 361.553 560.861 362.585 559.371 363.323C557.895 364.048 556.233 364.41 554.388 364.41ZM553.793 345.399C552.426 345.399 551.318 345.878 550.471 346.835C549.637 347.792 549.104 349.125 548.871 350.834H558.366V350.465C558.257 348.797 557.812 347.539 557.033 346.691C556.254 345.83 555.174 345.399 553.793 345.399Z" fill="white"/>
<path d="M579.612 357.971C579.612 357.082 579.243 356.405 578.505 355.94C577.78 355.476 576.57 355.065 574.875 354.71C573.18 354.354 571.765 353.903 570.63 353.356C568.142 352.153 566.897 350.41 566.897 348.127C566.897 346.213 567.704 344.613 569.317 343.328C570.931 342.043 572.981 341.4 575.47 341.4C578.122 341.4 580.262 342.057 581.889 343.369C583.529 344.682 584.35 346.384 584.35 348.476H579.366C579.366 347.519 579.011 346.726 578.3 346.097C577.589 345.454 576.646 345.133 575.47 345.133C574.376 345.133 573.48 345.386 572.783 345.892C572.1 346.397 571.758 347.074 571.758 347.922C571.758 348.688 572.079 349.282 572.722 349.706C573.364 350.13 574.663 350.561 576.618 350.998C578.573 351.422 580.104 351.935 581.212 352.536C582.333 353.124 583.16 353.835 583.693 354.669C584.24 355.503 584.514 356.515 584.514 357.704C584.514 359.7 583.687 361.32 582.032 362.564C580.378 363.795 578.211 364.41 575.531 364.41C573.713 364.41 572.093 364.082 570.671 363.426C569.249 362.77 568.142 361.867 567.349 360.719C566.556 359.57 566.159 358.333 566.159 357.007H570.999C571.067 358.183 571.512 359.092 572.332 359.734C573.152 360.363 574.239 360.678 575.593 360.678C576.905 360.678 577.903 360.432 578.587 359.939C579.271 359.434 579.612 358.777 579.612 357.971Z" fill="white"/>
</g>
<g id="ecu-1">
<g id="text_2">
<path d="M17.4873 427.67H5.22363V436.857H19.5586V441H0.0351562V411.141H19.415V415.324H5.22363V423.568H17.4873V427.67Z" fill="white"/>
<path d="M27.9258 418.811L28.0693 421.374C29.71 419.392 31.8633 418.4 34.5293 418.4C39.1504 418.4 41.502 421.046 41.584 426.337V441H36.6006V426.624C36.6006 425.216 36.293 424.177 35.6777 423.507C35.0762 422.823 34.085 422.481 32.7041 422.481C30.6943 422.481 29.1973 423.391 28.2129 425.209V441H23.2295V418.811H27.9258Z" fill="white"/>
<path d="M52.9248 413.417V418.811H56.8418V422.502H52.9248V434.889C52.9248 435.736 53.0889 436.352 53.417 436.734C53.7588 437.104 54.3604 437.288 55.2217 437.288C55.7959 437.288 56.377 437.22 56.9648 437.083V440.938C55.8301 441.253 54.7363 441.41 53.6836 441.41C49.8555 441.41 47.9414 439.298 47.9414 435.073V422.502H44.291V418.811H47.9414V413.417H52.9248Z" fill="white"/>
<path d="M59.1182 429.7C59.1182 427.526 59.5488 425.571 60.4102 423.835C61.2715 422.085 62.4814 420.745 64.04 419.815C65.5986 418.872 67.3896 418.4 69.4131 418.4C72.4072 418.4 74.834 419.364 76.6934 421.292C78.5664 423.22 79.5781 425.776 79.7285 428.962L79.749 430.131C79.749 432.318 79.3252 434.273 78.4775 435.996C77.6436 437.719 76.4404 439.052 74.8682 439.995C73.3096 440.938 71.5049 441.41 69.4541 441.41C66.3232 441.41 63.8145 440.371 61.9277 438.293C60.0547 436.201 59.1182 433.419 59.1182 429.946V429.7ZM64.1016 430.131C64.1016 432.414 64.5732 434.205 65.5166 435.504C66.46 436.789 67.7725 437.432 69.4541 437.432C71.1357 437.432 72.4414 436.775 73.3711 435.463C74.3145 434.15 74.7861 432.229 74.7861 429.7C74.7861 427.458 74.3008 425.681 73.3301 424.368C72.373 423.056 71.0674 422.399 69.4131 422.399C67.7861 422.399 66.4941 423.049 65.5371 424.348C64.5801 425.633 64.1016 427.561 64.1016 430.131Z" fill="white"/>
<path d="M88.5879 418.811L88.7314 421.374C90.3721 419.392 92.5254 418.4 95.1914 418.4C99.8125 418.4 102.164 421.046 102.246 426.337V441H97.2627V426.624C97.2627 425.216 96.9551 424.177 96.3398 423.507C95.7383 422.823 94.7471 422.481 93.3662 422.481C91.3564 422.481 89.8594 423.391 88.875 425.209V441H83.8916V418.811H88.5879Z" fill="white"/>
<path d="M116.458 437.432C117.702 437.432 118.734 437.069 119.555 436.345C120.375 435.62 120.812 434.725 120.867 433.658H125.563C125.509 435.039 125.078 436.331 124.271 437.534C123.465 438.724 122.371 439.667 120.99 440.364C119.609 441.062 118.119 441.41 116.52 441.41C113.416 441.41 110.955 440.405 109.137 438.396C107.318 436.386 106.409 433.61 106.409 430.069V429.557C106.409 426.18 107.312 423.479 109.116 421.456C110.921 419.419 113.382 418.4 116.499 418.4C119.138 418.4 121.284 419.173 122.938 420.718C124.606 422.249 125.481 424.266 125.563 426.768H120.867C120.812 425.496 120.375 424.45 119.555 423.63C118.748 422.81 117.716 422.399 116.458 422.399C114.845 422.399 113.601 422.987 112.726 424.163C111.851 425.325 111.406 427.096 111.393 429.475V430.274C111.393 432.681 111.823 434.479 112.685 435.668C113.56 436.844 114.817 437.432 116.458 437.432Z" fill="white"/>
<path d="M139.099 441.41C135.94 441.41 133.377 440.419 131.408 438.437C129.453 436.44 128.476 433.788 128.476 430.479V429.864C128.476 427.649 128.899 425.674 129.747 423.938C130.608 422.188 131.812 420.827 133.356 419.856C134.901 418.886 136.624 418.4 138.524 418.4C141.546 418.4 143.877 419.364 145.518 421.292C147.172 423.22 147.999 425.947 147.999 429.475V431.484H133.5C133.65 433.316 134.259 434.766 135.325 435.832C136.405 436.898 137.759 437.432 139.386 437.432C141.669 437.432 143.528 436.509 144.964 434.663L147.65 437.227C146.762 438.553 145.572 439.585 144.082 440.323C142.605 441.048 140.944 441.41 139.099 441.41ZM138.504 422.399C137.137 422.399 136.029 422.878 135.182 423.835C134.348 424.792 133.814 426.125 133.582 427.834H143.077V427.465C142.968 425.797 142.523 424.539 141.744 423.691C140.965 422.83 139.885 422.399 138.504 422.399Z" fill="white"/>
<path d="M164.323 434.971C164.323 434.082 163.954 433.405 163.216 432.94C162.491 432.476 161.281 432.065 159.586 431.71C157.891 431.354 156.476 430.903 155.341 430.356C152.853 429.153 151.608 427.41 151.608 425.127C151.608 423.213 152.415 421.613 154.028 420.328C155.642 419.043 157.692 418.4 160.181 418.4C162.833 418.4 164.973 419.057 166.6 420.369C168.24 421.682 169.061 423.384 169.061 425.476H164.077C164.077 424.519 163.722 423.726 163.011 423.097C162.3 422.454 161.356 422.133 160.181 422.133C159.087 422.133 158.191 422.386 157.494 422.892C156.811 423.397 156.469 424.074 156.469 424.922C156.469 425.688 156.79 426.282 157.433 426.706C158.075 427.13 159.374 427.561 161.329 427.998C163.284 428.422 164.815 428.935 165.923 429.536C167.044 430.124 167.871 430.835 168.404 431.669C168.951 432.503 169.225 433.515 169.225 434.704C169.225 436.7 168.397 438.32 166.743 439.564C165.089 440.795 162.922 441.41 160.242 441.41C158.424 441.41 156.804 441.082 155.382 440.426C153.96 439.77 152.853 438.867 152.06 437.719C151.267 436.57 150.87 435.333 150.87 434.007H155.71C155.778 435.183 156.223 436.092 157.043 436.734C157.863 437.363 158.95 437.678 160.304 437.678C161.616 437.678 162.614 437.432 163.298 436.939C163.981 436.434 164.323 435.777 164.323 434.971Z" fill="white"/>
<path d="M193.813 441.41C190.655 441.41 188.092 440.419 186.123 438.437C184.168 436.44 183.19 433.788 183.19 430.479V429.864C183.19 427.649 183.614 425.674 184.462 423.938C185.323 422.188 186.526 420.827 188.071 419.856C189.616 418.886 191.339 418.4 193.239 418.4C196.261 418.4 198.592 419.364 200.232 421.292C201.887 423.22 202.714 425.947 202.714 429.475V431.484H188.215C188.365 433.316 188.974 434.766 190.04 435.832C191.12 436.898 192.474 437.432 194.101 437.432C196.384 437.432 198.243 436.509 199.679 434.663L202.365 437.227C201.477 438.553 200.287 439.585 198.797 440.323C197.32 441.048 195.659 441.41 193.813 441.41ZM193.219 422.399C191.852 422.399 190.744 422.878 189.896 423.835C189.062 424.792 188.529 426.125 188.297 427.834H197.792V427.465C197.683 425.797 197.238 424.539 196.459 423.691C195.68 422.83 194.6 422.399 193.219 422.399Z" fill="white"/>
<path d="M214.567 426.111L218.792 418.811H224.329L217.541 429.741L224.555 441H219.059L214.629 433.412L210.22 441H204.683L211.696 429.741L204.929 418.811H210.425L214.567 426.111Z" fill="white"/>
<path d="M233.968 413.417V418.811H237.885V422.502H233.968V434.889C233.968 435.736 234.132 436.352 234.46 436.734C234.802 437.104 235.403 437.288 236.265 437.288C236.839 437.288 237.42 437.22 238.008 437.083V440.938C236.873 441.253 235.779 441.41 234.727 441.41C230.898 441.41 228.984 439.298 228.984 435.073V422.502H225.334V418.811H228.984V413.417H233.968Z" fill="white"/>
<path d="M253.327 423.363C252.671 423.254 251.994 423.199 251.297 423.199C249.014 423.199 247.476 424.074 246.683 425.824V441H241.699V418.811H246.457L246.58 421.292C247.783 419.364 249.451 418.4 251.584 418.4C252.295 418.4 252.883 418.496 253.348 418.688L253.327 423.363Z" fill="white"/>
<path d="M269.118 441C268.899 440.576 268.708 439.886 268.544 438.929C266.958 440.583 265.017 441.41 262.72 441.41C260.491 441.41 258.673 440.774 257.265 439.503C255.856 438.231 255.152 436.659 255.152 434.786C255.152 432.421 256.027 430.609 257.777 429.352C259.541 428.08 262.057 427.444 265.324 427.444H268.38V425.988C268.38 424.84 268.059 423.924 267.416 423.24C266.773 422.543 265.796 422.194 264.483 422.194C263.349 422.194 262.419 422.481 261.694 423.056C260.97 423.616 260.607 424.334 260.607 425.209H255.624C255.624 423.992 256.027 422.857 256.834 421.805C257.641 420.738 258.734 419.904 260.115 419.303C261.51 418.701 263.062 418.4 264.771 418.4C267.368 418.4 269.439 419.057 270.984 420.369C272.529 421.668 273.322 423.5 273.363 425.865V435.873C273.363 437.869 273.644 439.462 274.204 440.651V441H269.118ZM263.643 437.411C264.627 437.411 265.55 437.172 266.411 436.693C267.286 436.215 267.942 435.572 268.38 434.766V430.582H265.693C263.848 430.582 262.46 430.903 261.53 431.546C260.601 432.188 260.136 433.098 260.136 434.273C260.136 435.23 260.45 435.996 261.079 436.57C261.722 437.131 262.576 437.411 263.643 437.411Z" fill="white"/>
<path d="M288.354 441.41C285.196 441.41 282.633 440.419 280.664 438.437C278.709 436.44 277.731 433.788 277.731 430.479V429.864C277.731 427.649 278.155 425.674 279.003 423.938C279.864 422.188 281.067 420.827 282.612 419.856C284.157 418.886 285.88 418.4 287.78 418.4C290.802 418.4 293.133 419.364 294.773 421.292C296.428 423.22 297.255 425.947 297.255 429.475V431.484H282.756C282.906 433.316 283.515 434.766 284.581 435.832C285.661 436.898 287.015 437.432 288.642 437.432C290.925 437.432 292.784 436.509 294.22 434.663L296.906 437.227C296.018 438.553 294.828 439.585 293.338 440.323C291.861 441.048 290.2 441.41 288.354 441.41ZM287.76 422.399C286.393 422.399 285.285 422.878 284.438 423.835C283.604 424.792 283.07 426.125 282.838 427.834H292.333V427.465C292.224 425.797 291.779 424.539 291 423.691C290.221 422.83 289.141 422.399 287.76 422.399Z" fill="white"/>
<path d="M305.827 418.811L305.971 421.128C307.529 419.31 309.662 418.4 312.369 418.4C315.336 418.4 317.366 419.535 318.46 421.805C320.073 419.535 322.343 418.4 325.269 418.4C327.716 418.4 329.534 419.077 330.724 420.431C331.927 421.784 332.542 423.78 332.569 426.419V441H327.586V426.562C327.586 425.154 327.278 424.122 326.663 423.466C326.048 422.81 325.029 422.481 323.607 422.481C322.473 422.481 321.543 422.789 320.818 423.404C320.107 424.006 319.608 424.799 319.321 425.783L319.342 441H314.358V426.398C314.29 423.787 312.957 422.481 310.359 422.481C308.363 422.481 306.948 423.295 306.114 424.922V441H301.131V418.811H305.827Z" fill="white"/>
<path d="M336.753 429.7C336.753 427.526 337.184 425.571 338.045 423.835C338.906 422.085 340.116 420.745 341.675 419.815C343.233 418.872 345.024 418.4 347.048 418.4C350.042 418.4 352.469 419.364 354.328 421.292C356.201 423.22 357.213 425.776 357.363 428.962L357.384 430.131C357.384 432.318 356.96 434.273 356.112 435.996C355.278 437.719 354.075 439.052 352.503 439.995C350.944 440.938 349.14 441.41 347.089 441.41C343.958 441.41 341.449 440.371 339.562 438.293C337.689 436.201 336.753 433.419 336.753 429.946V429.7ZM341.736 430.131C341.736 432.414 342.208 434.205 343.151 435.504C344.095 436.789 345.407 437.432 347.089 437.432C348.771 437.432 350.076 436.775 351.006 435.463C351.949 434.15 352.421 432.229 352.421 429.7C352.421 427.458 351.936 425.681 350.965 424.368C350.008 423.056 348.702 422.399 347.048 422.399C345.421 422.399 344.129 423.049 343.172 424.348C342.215 425.633 341.736 427.561 341.736 430.131Z" fill="white"/>
<path d="M374.036 434.971C374.036 434.082 373.667 433.405 372.929 432.94C372.204 432.476 370.994 432.065 369.299 431.71C367.604 431.354 366.188 430.903 365.054 430.356C362.565 429.153 361.321 427.41 361.321 425.127C361.321 423.213 362.128 421.613 363.741 420.328C365.354 419.043 367.405 418.4 369.894 418.4C372.546 418.4 374.686 419.057 376.312 420.369C377.953 421.682 378.773 423.384 378.773 425.476H373.79C373.79 424.519 373.435 423.726 372.724 423.097C372.013 422.454 371.069 422.133 369.894 422.133C368.8 422.133 367.904 422.386 367.207 422.892C366.523 423.397 366.182 424.074 366.182 424.922C366.182 425.688 366.503 426.282 367.146 426.706C367.788 427.13 369.087 427.561 371.042 427.998C372.997 428.422 374.528 428.935 375.636 429.536C376.757 430.124 377.584 430.835 378.117 431.669C378.664 432.503 378.938 433.515 378.938 434.704C378.938 436.7 378.11 438.32 376.456 439.564C374.802 440.795 372.635 441.41 369.955 441.41C368.137 441.41 366.517 441.082 365.095 440.426C363.673 439.77 362.565 438.867 361.772 437.719C360.979 436.57 360.583 435.333 360.583 434.007H365.423C365.491 435.183 365.936 436.092 366.756 436.734C367.576 437.363 368.663 437.678 370.017 437.678C371.329 437.678 372.327 437.432 373.011 436.939C373.694 436.434 374.036 435.777 374.036 434.971Z" fill="white"/>
<path d="M386.3 435.75C387.229 435.75 387.947 436.017 388.453 436.55C388.959 437.069 389.212 437.726 389.212 438.519C389.212 439.298 388.959 439.947 388.453 440.467C387.947 440.973 387.229 441.226 386.3 441.226C385.411 441.226 384.707 440.973 384.188 440.467C383.668 439.961 383.408 439.312 383.408 438.519C383.408 437.726 383.661 437.069 384.167 436.55C384.673 436.017 385.384 435.75 386.3 435.75ZM386.3 418.339C387.229 418.339 387.947 418.605 388.453 419.139C388.959 419.658 389.212 420.314 389.212 421.107C389.212 421.887 388.959 422.536 388.453 423.056C387.947 423.562 387.229 423.814 386.3 423.814C385.411 423.814 384.707 423.562 384.188 423.056C383.668 422.55 383.408 421.9 383.408 421.107C383.408 420.314 383.661 419.658 384.167 419.139C384.673 418.605 385.384 418.339 386.3 418.339Z" fill="white"/>
</g>
<g id="text_3">
<path d="M156.646 479.516C156.646 480.979 156.271 482.284 155.519 483.433C154.767 484.567 153.741 485.463 152.442 486.119C154.001 486.844 155.197 487.835 156.031 489.093C156.879 490.351 157.303 491.772 157.303 493.358C157.303 495.983 156.414 498.068 154.637 499.613C152.859 501.145 150.494 501.91 147.541 501.91C144.574 501.91 142.195 501.138 140.404 499.593C138.627 498.048 137.738 495.97 137.738 493.358C137.738 491.759 138.162 490.323 139.01 489.052C139.857 487.78 141.047 486.803 142.578 486.119C141.293 485.463 140.274 484.567 139.522 483.433C138.784 482.284 138.415 480.979 138.415 479.516C138.415 476.973 139.235 474.956 140.876 473.466C142.517 471.976 144.731 471.23 147.521 471.23C150.323 471.23 152.545 471.976 154.186 473.466C155.826 474.956 156.646 476.973 156.646 479.516ZM152.319 493.112C152.319 491.636 151.875 490.446 150.986 489.544C150.111 488.628 148.949 488.17 147.5 488.17C146.051 488.17 144.889 488.621 144.014 489.523C143.152 490.426 142.722 491.622 142.722 493.112C142.722 494.575 143.146 495.744 143.993 496.619C144.854 497.494 146.037 497.932 147.541 497.932C149.045 497.932 150.214 497.508 151.048 496.66C151.896 495.812 152.319 494.63 152.319 493.112ZM151.684 479.7C151.684 478.401 151.308 477.335 150.556 476.501C149.804 475.653 148.792 475.229 147.521 475.229C146.249 475.229 145.244 475.633 144.506 476.439C143.768 477.232 143.398 478.319 143.398 479.7C143.398 481.067 143.768 482.154 144.506 482.961C145.258 483.768 146.27 484.171 147.541 484.171C148.812 484.171 149.817 483.768 150.556 482.961C151.308 482.154 151.684 481.067 151.684 479.7Z" fill="white"/>
<path d="M177.113 479.311L177.257 481.874C178.897 479.892 181.051 478.9 183.717 478.9C188.338 478.9 190.689 481.546 190.771 486.837V501.5H185.788V487.124C185.788 485.716 185.48 484.677 184.865 484.007C184.264 483.323 183.272 482.981 181.892 482.981C179.882 482.981 178.385 483.891 177.4 485.709V501.5H172.417V479.311H177.113Z" fill="white"/>
<path d="M205.64 501.91C202.481 501.91 199.918 500.919 197.949 498.937C195.994 496.94 195.017 494.288 195.017 490.979V490.364C195.017 488.149 195.44 486.174 196.288 484.438C197.149 482.688 198.353 481.327 199.897 480.356C201.442 479.386 203.165 478.9 205.065 478.9C208.087 478.9 210.418 479.864 212.059 481.792C213.713 483.72 214.54 486.447 214.54 489.975V491.984H200.041C200.191 493.816 200.8 495.266 201.866 496.332C202.946 497.398 204.3 497.932 205.927 497.932C208.21 497.932 210.069 497.009 211.505 495.163L214.191 497.727C213.303 499.053 212.113 500.085 210.623 500.823C209.146 501.548 207.485 501.91 205.64 501.91ZM205.045 482.899C203.678 482.899 202.57 483.378 201.723 484.335C200.889 485.292 200.355 486.625 200.123 488.334H209.618V487.965C209.509 486.297 209.064 485.039 208.285 484.191C207.506 483.33 206.426 482.899 205.045 482.899Z" fill="white"/>
<path d="M217.555 490.241C217.555 486.796 218.361 484.048 219.975 481.997C221.602 479.933 223.755 478.9 226.435 478.9C228.964 478.9 230.953 479.782 232.402 481.546L232.628 479.311H237.119V500.823C237.119 503.735 236.21 506.032 234.392 507.714C232.587 509.396 230.146 510.236 227.07 510.236C225.443 510.236 223.851 509.895 222.292 509.211C220.747 508.541 219.571 507.659 218.765 506.565L221.123 503.571C222.654 505.39 224.541 506.299 226.783 506.299C228.438 506.299 229.743 505.848 230.7 504.945C231.657 504.057 232.136 502.744 232.136 501.008V499.511C230.7 501.11 228.786 501.91 226.394 501.91C223.796 501.91 221.67 500.878 220.016 498.813C218.375 496.749 217.555 493.892 217.555 490.241ZM222.518 490.672C222.518 492.9 222.969 494.657 223.871 495.942C224.787 497.214 226.052 497.85 227.665 497.85C229.675 497.85 231.165 496.988 232.136 495.266V485.504C231.192 483.822 229.716 482.981 227.706 482.981C226.065 482.981 224.787 483.631 223.871 484.93C222.969 486.229 222.518 488.143 222.518 490.672Z" fill="white"/>
<path d="M253.874 483.863C253.218 483.754 252.541 483.699 251.844 483.699C249.561 483.699 248.022 484.574 247.229 486.324V501.5H242.246V479.311H247.004L247.127 481.792C248.33 479.864 249.998 478.9 252.131 478.9C252.842 478.9 253.43 478.996 253.895 479.188L253.874 483.863Z" fill="white"/>
<path d="M269.665 501.5C269.446 501.076 269.255 500.386 269.091 499.429C267.505 501.083 265.563 501.91 263.267 501.91C261.038 501.91 259.22 501.274 257.812 500.003C256.403 498.731 255.699 497.159 255.699 495.286C255.699 492.921 256.574 491.109 258.324 489.852C260.088 488.58 262.604 487.944 265.871 487.944H268.927V486.488C268.927 485.34 268.605 484.424 267.963 483.74C267.32 483.043 266.343 482.694 265.03 482.694C263.896 482.694 262.966 482.981 262.241 483.556C261.517 484.116 261.154 484.834 261.154 485.709H256.171C256.171 484.492 256.574 483.357 257.381 482.305C258.188 481.238 259.281 480.404 260.662 479.803C262.057 479.201 263.608 478.9 265.317 478.9C267.915 478.9 269.986 479.557 271.531 480.869C273.076 482.168 273.869 484 273.91 486.365V496.373C273.91 498.369 274.19 499.962 274.751 501.151V501.5H269.665ZM264.189 497.911C265.174 497.911 266.097 497.672 266.958 497.193C267.833 496.715 268.489 496.072 268.927 495.266V491.082H266.24C264.395 491.082 263.007 491.403 262.077 492.046C261.147 492.688 260.683 493.598 260.683 494.773C260.683 495.73 260.997 496.496 261.626 497.07C262.269 497.631 263.123 497.911 264.189 497.911Z" fill="white"/>
<path d="M291.567 495.471C291.567 494.582 291.198 493.905 290.46 493.44C289.735 492.976 288.525 492.565 286.83 492.21C285.135 491.854 283.72 491.403 282.585 490.856C280.097 489.653 278.853 487.91 278.853 485.627C278.853 483.713 279.659 482.113 281.272 480.828C282.886 479.543 284.937 478.9 287.425 478.9C290.077 478.9 292.217 479.557 293.844 480.869C295.484 482.182 296.305 483.884 296.305 485.976H291.321C291.321 485.019 290.966 484.226 290.255 483.597C289.544 482.954 288.601 482.633 287.425 482.633C286.331 482.633 285.436 482.886 284.738 483.392C284.055 483.897 283.713 484.574 283.713 485.422C283.713 486.188 284.034 486.782 284.677 487.206C285.319 487.63 286.618 488.061 288.573 488.498C290.528 488.922 292.06 489.435 293.167 490.036C294.288 490.624 295.115 491.335 295.648 492.169C296.195 493.003 296.469 494.015 296.469 495.204C296.469 497.2 295.642 498.82 293.987 500.064C292.333 501.295 290.166 501.91 287.486 501.91C285.668 501.91 284.048 501.582 282.626 500.926C281.204 500.27 280.097 499.367 279.304 498.219C278.511 497.07 278.114 495.833 278.114 494.507H282.954C283.022 495.683 283.467 496.592 284.287 497.234C285.107 497.863 286.194 498.178 287.548 498.178C288.86 498.178 289.858 497.932 290.542 497.439C291.226 496.934 291.567 496.277 291.567 495.471Z" fill="white"/>
<path d="M322.801 485.073H330.594V489.626H322.801V498.506H317.961V489.626H310.127V485.073H317.961V476.768H322.801V485.073Z" fill="white"/>
<path d="M360.351 471.497V475.619H359.735C356.946 475.66 354.718 476.426 353.05 477.916C351.382 479.406 350.391 481.519 350.076 484.253C351.676 482.571 353.72 481.73 356.208 481.73C358.847 481.73 360.925 482.66 362.442 484.52C363.974 486.379 364.739 488.778 364.739 491.718C364.739 494.753 363.844 497.214 362.053 499.101C360.275 500.974 357.938 501.91 355.039 501.91C352.059 501.91 349.639 500.81 347.779 498.608C345.934 496.407 345.011 493.522 345.011 489.954V488.252C345.011 483.016 346.282 478.914 348.825 475.947C351.382 472.98 355.053 471.497 359.838 471.497H360.351ZM354.998 485.75C353.904 485.75 352.899 486.058 351.983 486.673C351.081 487.288 350.418 488.108 349.994 489.134V490.651C349.994 492.866 350.459 494.63 351.389 495.942C352.318 497.241 353.521 497.891 354.998 497.891C356.475 497.891 357.644 497.337 358.505 496.229C359.366 495.122 359.797 493.666 359.797 491.861C359.797 490.057 359.359 488.587 358.484 487.452C357.609 486.317 356.447 485.75 354.998 485.75Z" fill="white"/>
<path d="M387.318 495.184L392.015 479.311H397.162L389.472 501.5H385.145L377.393 479.311H382.561L387.318 495.184Z" fill="white"/>
<path d="M409.774 501.91C406.616 501.91 404.053 500.919 402.084 498.937C400.129 496.94 399.151 494.288 399.151 490.979V490.364C399.151 488.149 399.575 486.174 400.423 484.438C401.284 482.688 402.487 481.327 404.032 480.356C405.577 479.386 407.3 478.9 409.2 478.9C412.222 478.9 414.553 479.864 416.193 481.792C417.848 483.72 418.675 486.447 418.675 489.975V491.984H404.176C404.326 493.816 404.935 495.266 406.001 496.332C407.081 497.398 408.435 497.932 410.062 497.932C412.345 497.932 414.204 497.009 415.64 495.163L418.326 497.727C417.438 499.053 416.248 500.085 414.758 500.823C413.281 501.548 411.62 501.91 409.774 501.91ZM409.18 482.899C407.812 482.899 406.705 483.378 405.857 484.335C405.023 485.292 404.49 486.625 404.258 488.334H413.753V487.965C413.644 486.297 413.199 485.039 412.42 484.191C411.641 483.33 410.561 482.899 409.18 482.899Z" fill="white"/>
<path d="M434.179 483.863C433.522 483.754 432.846 483.699 432.148 483.699C429.865 483.699 428.327 484.574 427.534 486.324V501.5H422.551V479.311H427.309L427.432 481.792C428.635 479.864 430.303 478.9 432.436 478.9C433.146 478.9 433.734 478.996 434.199 479.188L434.179 483.863Z" fill="white"/>
<path d="M435.983 490.241C435.983 486.823 436.776 484.082 438.362 482.018C439.948 479.939 442.074 478.9 444.74 478.9C447.092 478.9 448.992 479.721 450.441 481.361V470H455.425V501.5H450.913L450.667 499.203C449.177 501.008 447.188 501.91 444.699 501.91C442.102 501.91 439.996 500.864 438.383 498.772C436.783 496.681 435.983 493.837 435.983 490.241ZM440.967 490.672C440.967 492.928 441.397 494.691 442.259 495.963C443.134 497.221 444.371 497.85 445.971 497.85C448.008 497.85 449.498 496.94 450.441 495.122V485.647C449.525 483.87 448.049 482.981 446.012 482.981C444.398 482.981 443.154 483.624 442.279 484.909C441.404 486.181 440.967 488.102 440.967 490.672Z" fill="white"/>
<path d="M470.396 501.91C467.237 501.91 464.674 500.919 462.705 498.937C460.75 496.94 459.772 494.288 459.772 490.979V490.364C459.772 488.149 460.196 486.174 461.044 484.438C461.905 482.688 463.108 481.327 464.653 480.356C466.198 479.386 467.921 478.9 469.821 478.9C472.843 478.9 475.174 479.864 476.814 481.792C478.469 483.72 479.296 486.447 479.296 489.975V491.984H464.797C464.947 493.816 465.556 495.266 466.622 496.332C467.702 497.398 469.056 497.932 470.683 497.932C472.966 497.932 474.825 497.009 476.261 495.163L478.947 497.727C478.059 499.053 476.869 500.085 475.379 500.823C473.902 501.548 472.241 501.91 470.396 501.91ZM469.801 482.899C468.434 482.899 467.326 483.378 466.479 484.335C465.645 485.292 465.111 486.625 464.879 488.334H474.374V487.965C474.265 486.297 473.82 485.039 473.041 484.191C472.262 483.33 471.182 482.899 469.801 482.899Z" fill="white"/>
<path d="M495.62 495.471C495.62 494.582 495.251 493.905 494.513 493.44C493.788 492.976 492.578 492.565 490.883 492.21C489.188 491.854 487.772 491.403 486.638 490.856C484.149 489.653 482.905 487.91 482.905 485.627C482.905 483.713 483.712 482.113 485.325 480.828C486.938 479.543 488.989 478.9 491.478 478.9C494.13 478.9 496.27 479.557 497.896 480.869C499.537 482.182 500.357 483.884 500.357 485.976H495.374C495.374 485.019 495.019 484.226 494.308 483.597C493.597 482.954 492.653 482.633 491.478 482.633C490.384 482.633 489.488 482.886 488.791 483.392C488.107 483.897 487.766 484.574 487.766 485.422C487.766 486.188 488.087 486.782 488.729 487.206C489.372 487.63 490.671 488.061 492.626 488.498C494.581 488.922 496.112 489.435 497.22 490.036C498.341 490.624 499.168 491.335 499.701 492.169C500.248 493.003 500.521 494.015 500.521 495.204C500.521 497.2 499.694 498.82 498.04 500.064C496.386 501.295 494.219 501.91 491.539 501.91C489.721 501.91 488.101 501.582 486.679 500.926C485.257 500.27 484.149 499.367 483.356 498.219C482.563 497.07 482.167 495.833 482.167 494.507H487.007C487.075 495.683 487.52 496.592 488.34 497.234C489.16 497.863 490.247 498.178 491.601 498.178C492.913 498.178 493.911 497.932 494.595 497.439C495.278 496.934 495.62 496.277 495.62 495.471Z" fill="white"/>
<path d="M526.854 485.073H534.646V489.626H526.854V498.506H522.014V489.626H514.18V485.073H522.014V476.768H526.854V485.073Z" fill="white"/>
<path d="M550.232 486.693L551.853 471.641H567.89V475.947H555.995L555.175 483.084C556.556 482.291 558.114 481.895 559.851 481.895C562.694 481.895 564.902 482.804 566.475 484.622C568.061 486.44 568.854 488.888 568.854 491.964C568.854 494.999 567.979 497.419 566.229 499.224C564.479 501.015 562.079 501.91 559.03 501.91C556.296 501.91 554.026 501.138 552.222 499.593C550.431 498.034 549.46 495.983 549.31 493.44H554.129C554.32 494.89 554.84 496.004 555.688 496.783C556.535 497.549 557.643 497.932 559.01 497.932C560.541 497.932 561.73 497.385 562.578 496.291C563.439 495.197 563.87 493.707 563.87 491.82C563.87 490.002 563.398 488.566 562.455 487.514C561.512 486.447 560.213 485.914 558.559 485.914C557.656 485.914 556.891 486.037 556.262 486.283C555.633 486.516 554.949 486.98 554.211 487.678L550.232 486.693Z" fill="white"/>
<path d="M595.165 483.863C594.509 483.754 593.832 483.699 593.135 483.699C590.852 483.699 589.313 484.574 588.521 486.324V501.5H583.537V479.311H588.295L588.418 481.792C589.621 479.864 591.289 478.9 593.422 478.9C594.133 478.9 594.721 478.996 595.186 479.188L595.165 483.863Z" fill="white"/>
<path d="M596.642 490.2C596.642 488.026 597.072 486.071 597.934 484.335C598.795 482.585 600.005 481.245 601.563 480.315C603.122 479.372 604.913 478.9 606.937 478.9C609.931 478.9 612.357 479.864 614.217 481.792C616.09 483.72 617.102 486.276 617.252 489.462L617.272 490.631C617.272 492.818 616.849 494.773 616.001 496.496C615.167 498.219 613.964 499.552 612.392 500.495C610.833 501.438 609.028 501.91 606.978 501.91C603.847 501.91 601.338 500.871 599.451 498.793C597.578 496.701 596.642 493.919 596.642 490.446V490.2ZM601.625 490.631C601.625 492.914 602.097 494.705 603.04 496.004C603.983 497.289 605.296 497.932 606.978 497.932C608.659 497.932 609.965 497.275 610.895 495.963C611.838 494.65 612.31 492.729 612.31 490.2C612.31 487.958 611.824 486.181 610.854 484.868C609.896 483.556 608.591 482.899 606.937 482.899C605.31 482.899 604.018 483.549 603.061 484.848C602.104 486.133 601.625 488.061 601.625 490.631Z" fill="white"/>
<path d="M626.686 479.311V503.469C626.686 505.738 626.118 507.468 624.983 508.657C623.862 509.86 622.215 510.462 620.041 510.462C619.125 510.462 618.243 510.346 617.396 510.113V506.176C617.915 506.299 618.503 506.36 619.159 506.36C620.813 506.36 621.661 505.458 621.702 503.653V479.311H626.686ZM621.271 473.548C621.271 472.782 621.511 472.146 621.989 471.641C622.481 471.135 623.179 470.882 624.081 470.882C624.983 470.882 625.681 471.135 626.173 471.641C626.665 472.146 626.911 472.782 626.911 473.548C626.911 474.3 626.665 474.929 626.173 475.435C625.681 475.927 624.983 476.173 624.081 476.173C623.179 476.173 622.481 475.927 621.989 475.435C621.511 474.929 621.271 474.3 621.271 473.548Z" fill="white"/>
<path d="M645.286 501.5C645.067 501.076 644.876 500.386 644.712 499.429C643.126 501.083 641.185 501.91 638.888 501.91C636.659 501.91 634.841 501.274 633.433 500.003C632.024 498.731 631.32 497.159 631.32 495.286C631.32 492.921 632.195 491.109 633.945 489.852C635.709 488.58 638.225 487.944 641.492 487.944H644.548V486.488C644.548 485.34 644.227 484.424 643.584 483.74C642.941 483.043 641.964 482.694 640.651 482.694C639.517 482.694 638.587 482.981 637.862 483.556C637.138 484.116 636.775 484.834 636.775 485.709H631.792C631.792 484.492 632.195 483.357 633.002 482.305C633.809 481.238 634.902 480.404 636.283 479.803C637.678 479.201 639.229 478.9 640.938 478.9C643.536 478.9 645.607 479.557 647.152 480.869C648.697 482.168 649.49 484 649.531 486.365V496.373C649.531 498.369 649.812 499.962 650.372 501.151V501.5H645.286ZM639.811 497.911C640.795 497.911 641.718 497.672 642.579 497.193C643.454 496.715 644.11 496.072 644.548 495.266V491.082H641.861C640.016 491.082 638.628 491.403 637.698 492.046C636.769 492.688 636.304 493.598 636.304 494.773C636.304 495.73 636.618 496.496 637.247 497.07C637.89 497.631 638.744 497.911 639.811 497.911Z" fill="white"/>
<path d="M667.188 495.471C667.188 494.582 666.819 493.905 666.081 493.44C665.356 492.976 664.146 492.565 662.451 492.21C660.756 491.854 659.341 491.403 658.206 490.856C655.718 489.653 654.474 487.91 654.474 485.627C654.474 483.713 655.28 482.113 656.894 480.828C658.507 479.543 660.558 478.9 663.046 478.9C665.698 478.9 667.838 479.557 669.465 480.869C671.105 482.182 671.926 483.884 671.926 485.976H666.942C666.942 485.019 666.587 484.226 665.876 483.597C665.165 482.954 664.222 482.633 663.046 482.633C661.952 482.633 661.057 482.886 660.359 483.392C659.676 483.897 659.334 484.574 659.334 485.422C659.334 486.188 659.655 486.782 660.298 487.206C660.94 487.63 662.239 488.061 664.194 488.498C666.149 488.922 667.681 489.435 668.788 490.036C669.909 490.624 670.736 491.335 671.27 492.169C671.816 493.003 672.09 494.015 672.09 495.204C672.09 497.2 671.263 498.82 669.608 500.064C667.954 501.295 665.787 501.91 663.107 501.91C661.289 501.91 659.669 501.582 658.247 500.926C656.825 500.27 655.718 499.367 654.925 498.219C654.132 497.07 653.735 495.833 653.735 494.507H658.575C658.644 495.683 659.088 496.592 659.908 497.234C660.729 497.863 661.815 498.178 663.169 498.178C664.481 498.178 665.479 497.932 666.163 497.439C666.847 496.934 667.188 496.277 667.188 495.471Z" fill="white"/>
<path d="M149.674 534.073H157.467V538.626H149.674V547.506H144.834V538.626H137V534.073H144.834V525.768H149.674V534.073Z" fill="white"/>
<path d="M174.755 550.5H169.792V526.526L162.471 529.028V524.824L174.119 520.538H174.755V550.5Z" fill="white"/>
<path d="M205.024 546.932C206.269 546.932 207.301 546.569 208.121 545.845C208.941 545.12 209.379 544.225 209.434 543.158H214.13C214.075 544.539 213.645 545.831 212.838 547.034C212.031 548.224 210.938 549.167 209.557 549.864C208.176 550.562 206.686 550.91 205.086 550.91C201.982 550.91 199.521 549.905 197.703 547.896C195.885 545.886 194.976 543.11 194.976 539.569V539.057C194.976 535.68 195.878 532.979 197.683 530.956C199.487 528.919 201.948 527.9 205.065 527.9C207.704 527.9 209.851 528.673 211.505 530.218C213.173 531.749 214.048 533.766 214.13 536.268H209.434C209.379 534.996 208.941 533.95 208.121 533.13C207.314 532.31 206.282 531.899 205.024 531.899C203.411 531.899 202.167 532.487 201.292 533.663C200.417 534.825 199.973 536.596 199.959 538.975V539.774C199.959 542.181 200.39 543.979 201.251 545.168C202.126 546.344 203.384 546.932 205.024 546.932Z" fill="white"/>
<path d="M231.151 550.5C230.933 550.076 230.741 549.386 230.577 548.429C228.991 550.083 227.05 550.91 224.753 550.91C222.524 550.91 220.706 550.274 219.298 549.003C217.89 547.731 217.186 546.159 217.186 544.286C217.186 541.921 218.061 540.109 219.811 538.852C221.574 537.58 224.09 536.944 227.357 536.944H230.413V535.488C230.413 534.34 230.092 533.424 229.449 532.74C228.807 532.043 227.829 531.694 226.517 531.694C225.382 531.694 224.452 531.981 223.728 532.556C223.003 533.116 222.641 533.834 222.641 534.709H217.657C217.657 533.492 218.061 532.357 218.867 531.305C219.674 530.238 220.768 529.404 222.148 528.803C223.543 528.201 225.095 527.9 226.804 527.9C229.401 527.9 231.473 528.557 233.018 529.869C234.562 531.168 235.355 533 235.396 535.365V545.373C235.396 547.369 235.677 548.962 236.237 550.151V550.5H231.151ZM225.676 546.911C226.66 546.911 227.583 546.672 228.444 546.193C229.319 545.715 229.976 545.072 230.413 544.266V540.082H227.727C225.881 540.082 224.493 540.403 223.563 541.046C222.634 541.688 222.169 542.598 222.169 543.773C222.169 544.73 222.483 545.496 223.112 546.07C223.755 546.631 224.609 546.911 225.676 546.911Z" fill="white"/>
<path d="M245.24 528.311L245.384 530.874C247.024 528.892 249.178 527.9 251.844 527.9C256.465 527.9 258.816 530.546 258.898 535.837V550.5H253.915V536.124C253.915 534.716 253.607 533.677 252.992 533.007C252.391 532.323 251.399 531.981 250.019 531.981C248.009 531.981 246.512 532.891 245.527 534.709V550.5H240.544V528.311H245.24Z" fill="white"/>
<path d="M269.296 550.5H264.312V528.311H269.296V550.5ZM264.005 522.548C264.005 521.782 264.244 521.146 264.723 520.641C265.215 520.135 265.912 519.882 266.814 519.882C267.717 519.882 268.414 520.135 268.906 520.641C269.398 521.146 269.645 521.782 269.645 522.548C269.645 523.3 269.398 523.929 268.906 524.435C268.414 524.927 267.717 525.173 266.814 525.173C265.912 525.173 265.215 524.927 264.723 524.435C264.244 523.929 264.005 523.3 264.005 522.548Z" fill="white"/>
<path d="M283.856 546.932C285.101 546.932 286.133 546.569 286.953 545.845C287.773 545.12 288.211 544.225 288.266 543.158H292.962C292.907 544.539 292.477 545.831 291.67 547.034C290.863 548.224 289.77 549.167 288.389 549.864C287.008 550.562 285.518 550.91 283.918 550.91C280.814 550.91 278.354 549.905 276.535 547.896C274.717 545.886 273.808 543.11 273.808 539.569V539.057C273.808 535.68 274.71 532.979 276.515 530.956C278.319 528.919 280.78 527.9 283.897 527.9C286.536 527.9 288.683 528.673 290.337 530.218C292.005 531.749 292.88 533.766 292.962 536.268H288.266C288.211 534.996 287.773 533.95 286.953 533.13C286.146 532.31 285.114 531.899 283.856 531.899C282.243 531.899 280.999 532.487 280.124 533.663C279.249 534.825 278.805 536.596 278.791 538.975V539.774C278.791 542.181 279.222 543.979 280.083 545.168C280.958 546.344 282.216 546.932 283.856 546.932Z" fill="white"/>
<path d="M309.983 550.5C309.765 550.076 309.573 549.386 309.409 548.429C307.823 550.083 305.882 550.91 303.585 550.91C301.356 550.91 299.538 550.274 298.13 549.003C296.722 547.731 296.018 546.159 296.018 544.286C296.018 541.921 296.893 540.109 298.643 538.852C300.406 537.58 302.922 536.944 306.189 536.944H309.245V535.488C309.245 534.34 308.924 533.424 308.281 532.74C307.639 532.043 306.661 531.694 305.349 531.694C304.214 531.694 303.284 531.981 302.56 532.556C301.835 533.116 301.473 533.834 301.473 534.709H296.489C296.489 533.492 296.893 532.357 297.699 531.305C298.506 530.238 299.6 529.404 300.98 528.803C302.375 528.201 303.927 527.9 305.636 527.9C308.233 527.9 310.305 528.557 311.85 529.869C313.395 531.168 314.188 533 314.229 535.365V545.373C314.229 547.369 314.509 548.962 315.069 550.151V550.5H309.983ZM304.508 546.911C305.492 546.911 306.415 546.672 307.276 546.193C308.151 545.715 308.808 545.072 309.245 544.266V540.082H306.559C304.713 540.082 303.325 540.403 302.396 541.046C301.466 541.688 301.001 542.598 301.001 543.773C301.001 544.73 301.315 545.496 301.944 546.07C302.587 546.631 303.441 546.911 304.508 546.911Z" fill="white"/>
<path d="M348.005 534.504H330.327V530.361H348.005V534.504ZM348.005 543.199H330.327V539.077H348.005V543.199Z" fill="white"/>
<path d="M383.627 550.5H363.55V547.075L373.496 536.227C374.932 534.627 375.95 533.294 376.552 532.228C377.167 531.147 377.475 530.067 377.475 528.987C377.475 527.565 377.071 526.417 376.265 525.542C375.472 524.667 374.398 524.229 373.045 524.229C371.432 524.229 370.181 524.722 369.292 525.706C368.403 526.69 367.959 528.037 367.959 529.746H362.976C362.976 527.928 363.386 526.294 364.206 524.845C365.04 523.382 366.223 522.247 367.754 521.44C369.299 520.634 371.076 520.23 373.086 520.23C375.984 520.23 378.268 520.962 379.936 522.425C381.617 523.874 382.458 525.884 382.458 528.454C382.458 529.944 382.034 531.51 381.187 533.15C380.353 534.777 378.979 536.63 377.064 538.708L369.764 546.521H383.627V550.5Z" fill="white"/>
<path d="M406.883 537.929C406.883 542.222 406.076 545.462 404.463 547.649C402.863 549.823 400.423 550.91 397.142 550.91C393.915 550.91 391.481 549.851 389.841 547.731C388.214 545.599 387.38 542.447 387.339 538.277V533.109C387.339 528.816 388.139 525.597 389.738 523.45C391.352 521.304 393.806 520.23 397.101 520.23C400.368 520.23 402.802 521.276 404.401 523.368C406.015 525.46 406.842 528.591 406.883 532.761V537.929ZM401.899 532.351C401.899 529.548 401.517 527.497 400.751 526.198C399.985 524.886 398.769 524.229 397.101 524.229C395.474 524.229 394.277 524.852 393.512 526.096C392.746 527.326 392.343 529.254 392.302 531.879V538.646C392.302 541.436 392.691 543.514 393.471 544.881C394.25 546.248 395.474 546.932 397.142 546.932C398.741 546.932 399.924 546.303 400.689 545.045C401.455 543.773 401.858 541.791 401.899 539.098V532.351Z" fill="white"/>
<path d="M431.185 546.932C432.429 546.932 433.461 546.569 434.281 545.845C435.102 545.12 435.539 544.225 435.594 543.158H440.29C440.235 544.539 439.805 545.831 438.998 547.034C438.191 548.224 437.098 549.167 435.717 549.864C434.336 550.562 432.846 550.91 431.246 550.91C428.143 550.91 425.682 549.905 423.863 547.896C422.045 545.886 421.136 543.11 421.136 539.569V539.057C421.136 535.68 422.038 532.979 423.843 530.956C425.647 528.919 428.108 527.9 431.226 527.9C433.864 527.9 436.011 528.673 437.665 530.218C439.333 531.749 440.208 533.766 440.29 536.268H435.594C435.539 534.996 435.102 533.95 434.281 533.13C433.475 532.31 432.442 531.899 431.185 531.899C429.571 531.899 428.327 532.487 427.452 533.663C426.577 534.825 426.133 536.596 426.119 538.975V539.774C426.119 542.181 426.55 543.979 427.411 545.168C428.286 546.344 429.544 546.932 431.185 546.932Z" fill="white"/>
<path d="M457.312 550.5C457.093 550.076 456.901 549.386 456.737 548.429C455.151 550.083 453.21 550.91 450.913 550.91C448.685 550.91 446.866 550.274 445.458 549.003C444.05 547.731 443.346 546.159 443.346 544.286C443.346 541.921 444.221 540.109 445.971 538.852C447.734 537.58 450.25 536.944 453.518 536.944H456.573V535.488C456.573 534.34 456.252 533.424 455.609 532.74C454.967 532.043 453.989 531.694 452.677 531.694C451.542 531.694 450.612 531.981 449.888 532.556C449.163 533.116 448.801 533.834 448.801 534.709H443.817C443.817 533.492 444.221 532.357 445.027 531.305C445.834 530.238 446.928 529.404 448.309 528.803C449.703 528.201 451.255 527.9 452.964 527.9C455.562 527.9 457.633 528.557 459.178 529.869C460.723 531.168 461.516 533 461.557 535.365V545.373C461.557 547.369 461.837 548.962 462.397 550.151V550.5H457.312ZM451.836 546.911C452.82 546.911 453.743 546.672 454.604 546.193C455.479 545.715 456.136 545.072 456.573 544.266V540.082H453.887C452.041 540.082 450.653 540.403 449.724 541.046C448.794 541.688 448.329 542.598 448.329 543.773C448.329 544.73 448.644 545.496 449.272 546.07C449.915 546.631 450.77 546.911 451.836 546.911Z" fill="white"/>
<path d="M471.4 528.311L471.544 530.874C473.185 528.892 475.338 527.9 478.004 527.9C482.625 527.9 484.977 530.546 485.059 535.837V550.5H480.075V536.124C480.075 534.716 479.768 533.677 479.152 533.007C478.551 532.323 477.56 531.981 476.179 531.981C474.169 531.981 472.672 532.891 471.688 534.709V550.5H466.704V528.311H471.4Z" fill="white"/>
<path d="M495.456 550.5H490.473V528.311H495.456V550.5ZM490.165 522.548C490.165 521.782 490.404 521.146 490.883 520.641C491.375 520.135 492.072 519.882 492.975 519.882C493.877 519.882 494.574 520.135 495.066 520.641C495.559 521.146 495.805 521.782 495.805 522.548C495.805 523.3 495.559 523.929 495.066 524.435C494.574 524.927 493.877 525.173 492.975 525.173C492.072 525.173 491.375 524.927 490.883 524.435C490.404 523.929 490.165 523.3 490.165 522.548Z" fill="white"/>
<path d="M510.017 546.932C511.261 546.932 512.293 546.569 513.113 545.845C513.934 545.12 514.371 544.225 514.426 543.158H519.122C519.067 544.539 518.637 545.831 517.83 547.034C517.023 548.224 515.93 549.167 514.549 549.864C513.168 550.562 511.678 550.91 510.078 550.91C506.975 550.91 504.514 549.905 502.695 547.896C500.877 545.886 499.968 543.11 499.968 539.569V539.057C499.968 535.68 500.87 532.979 502.675 530.956C504.479 528.919 506.94 527.9 510.058 527.9C512.696 527.9 514.843 528.673 516.497 530.218C518.165 531.749 519.04 533.766 519.122 536.268H514.426C514.371 534.996 513.934 533.95 513.113 533.13C512.307 532.31 511.274 531.899 510.017 531.899C508.403 531.899 507.159 532.487 506.284 533.663C505.409 534.825 504.965 536.596 504.951 538.975V539.774C504.951 542.181 505.382 543.979 506.243 545.168C507.118 546.344 508.376 546.932 510.017 546.932Z" fill="white"/>
<path d="M536.144 550.5C535.925 550.076 535.733 549.386 535.569 548.429C533.983 550.083 532.042 550.91 529.745 550.91C527.517 550.91 525.698 550.274 524.29 549.003C522.882 547.731 522.178 546.159 522.178 544.286C522.178 541.921 523.053 540.109 524.803 538.852C526.566 537.58 529.082 536.944 532.35 536.944H535.405V535.488C535.405 534.34 535.084 533.424 534.441 532.74C533.799 532.043 532.821 531.694 531.509 531.694C530.374 531.694 529.444 531.981 528.72 532.556C527.995 533.116 527.633 533.834 527.633 534.709H522.649C522.649 533.492 523.053 532.357 523.859 531.305C524.666 530.238 525.76 529.404 527.141 528.803C528.535 528.201 530.087 527.9 531.796 527.9C534.394 527.9 536.465 528.557 538.01 529.869C539.555 531.168 540.348 533 540.389 535.365V545.373C540.389 547.369 540.669 548.962 541.229 550.151V550.5H536.144ZM530.668 546.911C531.652 546.911 532.575 546.672 533.437 546.193C534.312 545.715 534.968 545.072 535.405 544.266V540.082H532.719C530.873 540.082 529.485 540.403 528.556 541.046C527.626 541.688 527.161 542.598 527.161 543.773C527.161 544.73 527.476 545.496 528.104 546.07C528.747 546.631 529.602 546.911 530.668 546.911Z" fill="white"/>
<path d="M558.046 544.471C558.046 543.582 557.677 542.905 556.938 542.44C556.214 541.976 555.004 541.565 553.309 541.21C551.613 540.854 550.198 540.403 549.063 539.856C546.575 538.653 545.331 536.91 545.331 534.627C545.331 532.713 546.138 531.113 547.751 529.828C549.364 528.543 551.415 527.9 553.903 527.9C556.556 527.9 558.695 528.557 560.322 529.869C561.963 531.182 562.783 532.884 562.783 534.976H557.8C557.8 534.019 557.444 533.226 556.733 532.597C556.022 531.954 555.079 531.633 553.903 531.633C552.81 531.633 551.914 531.886 551.217 532.392C550.533 532.897 550.191 533.574 550.191 534.422C550.191 535.188 550.513 535.782 551.155 536.206C551.798 536.63 553.097 537.061 555.052 537.498C557.007 537.922 558.538 538.435 559.646 539.036C560.767 539.624 561.594 540.335 562.127 541.169C562.674 542.003 562.947 543.015 562.947 544.204C562.947 546.2 562.12 547.82 560.466 549.064C558.812 550.295 556.645 550.91 553.965 550.91C552.146 550.91 550.526 550.582 549.104 549.926C547.683 549.27 546.575 548.367 545.782 547.219C544.989 546.07 544.593 544.833 544.593 543.507H549.433C549.501 544.683 549.945 545.592 550.766 546.234C551.586 546.863 552.673 547.178 554.026 547.178C555.339 547.178 556.337 546.932 557.021 546.439C557.704 545.934 558.046 545.277 558.046 544.471Z" fill="white"/>
</g>
</g>
</g>
</svg>
