<svg viewBox="0 0 860 237" fill="none" xmlns="http://www.w3.org/2000/svg">
<g id="0122207">
<g id="fecha">
<g id="text">
<path d="M234.749 64.0479H223.183L220.763 71H215.369L226.648 41.1406H231.304L242.604 71H237.189L234.749 64.0479ZM224.639 59.8643H233.293L228.966 47.4775L224.639 59.8643Z" fill="white"/>
<path d="M249.166 48.8105L249.31 51.374C250.95 49.3916 253.104 48.4004 255.77 48.4004C260.391 48.4004 262.742 51.0459 262.824 56.3369V71H257.841V56.624C257.841 55.2158 257.533 54.1768 256.918 53.5068C256.316 52.8232 255.325 52.4814 253.944 52.4814C251.935 52.4814 250.438 53.3906 249.453 55.209V71H244.47V48.8105H249.166ZM261.266 39.9512C261.266 41.4551 260.828 42.7061 259.953 43.7041C259.092 44.7021 258.005 45.2012 256.692 45.2012C256.159 45.2012 255.694 45.1465 255.298 45.0371C254.915 44.9141 254.361 44.6475 253.637 44.2373C252.926 43.8271 252.42 43.5811 252.119 43.499C251.832 43.417 251.511 43.376 251.155 43.376C250.636 43.376 250.191 43.5742 249.822 43.9707C249.467 44.3535 249.289 44.8594 249.289 45.4883L246.233 45.3242C246.233 43.8203 246.664 42.5557 247.525 41.5303C248.4 40.5049 249.487 39.9922 250.786 39.9922C251.565 39.9922 252.502 40.2998 253.596 40.915C254.703 41.5303 255.612 41.8379 256.323 41.8379C256.843 41.8379 257.287 41.6465 257.656 41.2637C258.025 40.8672 258.21 40.3477 258.21 39.7051L261.266 39.9512Z" fill="white"/>
<path d="M266.987 59.7002C266.987 57.5264 267.418 55.5713 268.279 53.835C269.141 52.085 270.351 50.7451 271.909 49.8154C273.468 48.8721 275.259 48.4004 277.282 48.4004C280.276 48.4004 282.703 49.3643 284.562 51.292C286.436 53.2197 287.447 55.7764 287.598 58.9619L287.618 60.1309C287.618 62.3184 287.194 64.2734 286.347 65.9961C285.513 67.7188 284.31 69.0518 282.737 69.9951C281.179 70.9385 279.374 71.4102 277.323 71.4102C274.192 71.4102 271.684 70.3711 269.797 68.293C267.924 66.2012 266.987 63.4189 266.987 59.9463V59.7002ZM271.971 60.1309C271.971 62.4141 272.442 64.2051 273.386 65.5039C274.329 66.7891 275.642 67.4316 277.323 67.4316C279.005 67.4316 280.311 66.7754 281.24 65.4629C282.184 64.1504 282.655 62.2295 282.655 59.7002C282.655 57.458 282.17 55.6807 281.199 54.3682C280.242 53.0557 278.937 52.3994 277.282 52.3994C275.655 52.3994 274.363 53.0488 273.406 54.3477C272.449 55.6328 271.971 57.5605 271.971 60.1309Z" fill="white"/>
<path d="M302.773 71V41.1406H313.007C316.384 41.1406 318.954 41.8174 320.718 43.1709C322.481 44.5244 323.363 46.541 323.363 49.2207C323.363 50.5879 322.994 51.8184 322.256 52.9121C321.518 54.0059 320.438 54.8535 319.016 55.4551C320.629 55.8926 321.873 56.7197 322.748 57.9365C323.637 59.1396 324.081 60.5889 324.081 62.2842C324.081 65.0869 323.179 67.2402 321.374 68.7441C319.583 70.248 317.013 71 313.663 71H302.773ZM307.962 57.5264V66.8574H313.725C315.352 66.8574 316.623 66.4541 317.539 65.6475C318.455 64.8408 318.913 63.7197 318.913 62.2842C318.913 59.1807 317.327 57.5947 314.155 57.5264H307.962ZM307.962 53.7119H313.048C314.661 53.7119 315.919 53.3496 316.821 52.625C317.737 51.8867 318.195 50.8477 318.195 49.5078C318.195 48.0312 317.771 46.9648 316.924 46.3086C316.09 45.6523 314.784 45.3242 313.007 45.3242H307.962V53.7119Z" fill="white"/>
<path d="M334.089 71H329.105V48.8105H334.089V71ZM328.798 43.0479C328.798 42.2822 329.037 41.6465 329.516 41.1406C330.008 40.6348 330.705 40.3818 331.607 40.3818C332.51 40.3818 333.207 40.6348 333.699 41.1406C334.191 41.6465 334.438 42.2822 334.438 43.0479C334.438 43.7998 334.191 44.4287 333.699 44.9346C333.207 45.4268 332.51 45.6729 331.607 45.6729C330.705 45.6729 330.008 45.4268 329.516 44.9346C329.037 44.4287 328.798 43.7998 328.798 43.0479Z" fill="white"/>
<path d="M351.972 64.9707C351.972 64.082 351.603 63.4053 350.864 62.9404C350.14 62.4756 348.93 62.0654 347.234 61.71C345.539 61.3545 344.124 60.9033 342.989 60.3564C340.501 59.1533 339.257 57.4102 339.257 55.127C339.257 53.2129 340.063 51.6133 341.677 50.3281C343.29 49.043 345.341 48.4004 347.829 48.4004C350.481 48.4004 352.621 49.0566 354.248 50.3691C355.889 51.6816 356.709 53.3838 356.709 55.4756H351.726C351.726 54.5186 351.37 53.7256 350.659 53.0967C349.948 52.4541 349.005 52.1328 347.829 52.1328C346.735 52.1328 345.84 52.3857 345.143 52.8916C344.459 53.3975 344.117 54.0742 344.117 54.9219C344.117 55.6875 344.438 56.2822 345.081 56.7061C345.724 57.1299 347.022 57.5605 348.978 57.998C350.933 58.4219 352.464 58.9346 353.571 59.5361C354.692 60.124 355.52 60.835 356.053 61.6689C356.6 62.5029 356.873 63.5146 356.873 64.7041C356.873 66.7002 356.046 68.3203 354.392 69.5645C352.737 70.7949 350.57 71.4102 347.891 71.4102C346.072 71.4102 344.452 71.082 343.03 70.4258C341.608 69.7695 340.501 68.8672 339.708 67.7188C338.915 66.5703 338.519 65.333 338.519 64.0068H343.358C343.427 65.1826 343.871 66.0918 344.691 66.7344C345.512 67.3633 346.599 67.6777 347.952 67.6777C349.265 67.6777 350.263 67.4316 350.946 66.9395C351.63 66.4336 351.972 65.7773 351.972 64.9707Z" fill="white"/>
<path d="M366.532 71H361.549V48.8105H366.532V71ZM361.241 43.0479C361.241 42.2822 361.48 41.6465 361.959 41.1406C362.451 40.6348 363.148 40.3818 364.051 40.3818C364.953 40.3818 365.65 40.6348 366.143 41.1406C366.635 41.6465 366.881 42.2822 366.881 43.0479C366.881 43.7998 366.635 44.4287 366.143 44.9346C365.65 45.4268 364.953 45.6729 364.051 45.6729C363.148 45.6729 362.451 45.4268 361.959 44.9346C361.48 44.4287 361.241 43.7998 361.241 43.0479Z" fill="white"/>
<path d="M381.749 71.4102C378.591 71.4102 376.027 70.4189 374.059 68.4365C372.104 66.4404 371.126 63.7881 371.126 60.4795V59.8643C371.126 57.6494 371.55 55.6738 372.397 53.9375C373.259 52.1875 374.462 50.8271 376.007 49.8564C377.552 48.8857 379.274 48.4004 381.175 48.4004C384.196 48.4004 386.527 49.3643 388.168 51.292C389.822 53.2197 390.649 55.9473 390.649 59.4746V61.4844H376.15C376.301 63.3164 376.909 64.7656 377.976 65.832C379.056 66.8984 380.409 67.4316 382.036 67.4316C384.319 67.4316 386.179 66.5088 387.614 64.6631L390.301 67.2266C389.412 68.5527 388.223 69.585 386.732 70.3232C385.256 71.0479 383.595 71.4102 381.749 71.4102ZM381.154 52.3994C379.787 52.3994 378.68 52.8779 377.832 53.835C376.998 54.792 376.465 56.125 376.232 57.834H385.728V57.4648C385.618 55.7969 385.174 54.5391 384.395 53.6914C383.615 52.8301 382.535 52.3994 381.154 52.3994Z" fill="white"/>
<path d="M406.974 64.9707C406.974 64.082 406.604 63.4053 405.866 62.9404C405.142 62.4756 403.932 62.0654 402.236 61.71C400.541 61.3545 399.126 60.9033 397.991 60.3564C395.503 59.1533 394.259 57.4102 394.259 55.127C394.259 53.2129 395.065 51.6133 396.679 50.3281C398.292 49.043 400.343 48.4004 402.831 48.4004C405.483 48.4004 407.623 49.0566 409.25 50.3691C410.891 51.6816 411.711 53.3838 411.711 55.4756H406.728C406.728 54.5186 406.372 53.7256 405.661 53.0967C404.95 52.4541 404.007 52.1328 402.831 52.1328C401.737 52.1328 400.842 52.3857 400.145 52.8916C399.461 53.3975 399.119 54.0742 399.119 54.9219C399.119 55.6875 399.44 56.2822 400.083 56.7061C400.726 57.1299 402.024 57.5605 403.979 57.998C405.935 58.4219 407.466 58.9346 408.573 59.5361C409.694 60.124 410.521 60.835 411.055 61.6689C411.602 62.5029 411.875 63.5146 411.875 64.7041C411.875 66.7002 411.048 68.3203 409.394 69.5645C407.739 70.7949 405.572 71.4102 402.893 71.4102C401.074 71.4102 399.454 71.082 398.032 70.4258C396.61 69.7695 395.503 68.8672 394.71 67.7188C393.917 66.5703 393.521 65.333 393.521 64.0068H398.36C398.429 65.1826 398.873 66.0918 399.693 66.7344C400.514 67.3633 401.601 67.6777 402.954 67.6777C404.267 67.6777 405.265 67.4316 405.948 66.9395C406.632 66.4336 406.974 65.7773 406.974 64.9707Z" fill="white"/>
<path d="M422.478 43.417V48.8105H426.395V52.502H422.478V64.8887C422.478 65.7363 422.642 66.3516 422.97 66.7344C423.312 67.1035 423.913 67.2881 424.774 67.2881C425.349 67.2881 425.93 67.2197 426.518 67.083V70.9385C425.383 71.2529 424.289 71.4102 423.236 71.4102C419.408 71.4102 417.494 69.2979 417.494 65.0732V52.502H413.844V48.8105H417.494V43.417H422.478Z" fill="white"/>
<path d="M428.671 59.7002C428.671 57.5264 429.102 55.5713 429.963 53.835C430.824 52.085 432.034 50.7451 433.593 49.8154C435.151 48.8721 436.942 48.4004 438.966 48.4004C441.96 48.4004 444.387 49.3643 446.246 51.292C448.119 53.2197 449.131 55.7764 449.281 58.9619L449.302 60.1309C449.302 62.3184 448.878 64.2734 448.03 65.9961C447.196 67.7188 445.993 69.0518 444.421 69.9951C442.862 70.9385 441.058 71.4102 439.007 71.4102C435.876 71.4102 433.367 70.3711 431.48 68.293C429.607 66.2012 428.671 63.4189 428.671 59.9463V59.7002ZM433.654 60.1309C433.654 62.4141 434.126 64.2051 435.069 65.5039C436.013 66.7891 437.325 67.4316 439.007 67.4316C440.688 67.4316 441.994 66.7754 442.924 65.4629C443.867 64.1504 444.339 62.2295 444.339 59.7002C444.339 57.458 443.854 55.6807 442.883 54.3682C441.926 53.0557 440.62 52.3994 438.966 52.3994C437.339 52.3994 436.047 53.0488 435.09 54.3477C434.133 55.6328 433.654 57.5605 433.654 60.1309Z" fill="white"/>
<path d="M469.42 53.7939H472.455C473.986 53.7803 475.196 53.3838 476.085 52.6045C476.987 51.8252 477.438 50.6973 477.438 49.2207C477.438 47.7988 477.062 46.6982 476.311 45.9189C475.572 45.126 474.438 44.7295 472.906 44.7295C471.566 44.7295 470.466 45.1191 469.604 45.8984C468.743 46.6641 468.312 47.6689 468.312 48.9131H463.329C463.329 47.3818 463.732 45.9873 464.539 44.7295C465.359 43.4717 466.494 42.4941 467.943 41.7969C469.406 41.0859 471.04 40.7305 472.845 40.7305C475.825 40.7305 478.163 41.4824 479.858 42.9863C481.567 44.4766 482.422 46.5547 482.422 49.2207C482.422 50.5605 481.991 51.8252 481.13 53.0146C480.282 54.1904 479.182 55.0791 477.828 55.6807C479.469 56.2412 480.713 57.123 481.561 58.3262C482.422 59.5293 482.853 60.9648 482.853 62.6328C482.853 65.3125 481.93 67.4453 480.084 69.0312C478.252 70.6172 475.839 71.4102 472.845 71.4102C469.974 71.4102 467.622 70.6445 465.79 69.1133C463.958 67.582 463.042 65.5449 463.042 63.002H468.025C468.025 64.3145 468.463 65.3809 469.338 66.2012C470.227 67.0215 471.416 67.4316 472.906 67.4316C474.451 67.4316 475.668 67.0215 476.557 66.2012C477.445 65.3809 477.89 64.1914 477.89 62.6328C477.89 61.0605 477.425 59.8506 476.495 59.0029C475.565 58.1553 474.185 57.7314 472.353 57.7314H469.42V53.7939Z" fill="white"/>
<path d="M503.032 40.9971V45.1191H502.417C499.628 45.1602 497.399 45.9258 495.731 47.416C494.063 48.9062 493.072 51.0186 492.758 53.7529C494.357 52.0713 496.401 51.2305 498.89 51.2305C501.528 51.2305 503.606 52.1602 505.124 54.0195C506.655 55.8789 507.421 58.2783 507.421 61.2178C507.421 64.2529 506.525 66.7139 504.734 68.6006C502.957 70.4736 500.619 71.4102 497.721 71.4102C494.74 71.4102 492.32 70.3096 490.461 68.1084C488.615 65.9072 487.692 63.0225 487.692 59.4541V57.752C487.692 52.5156 488.964 48.4141 491.507 45.4473C494.063 42.4805 497.734 40.9971 502.52 40.9971H503.032ZM497.68 55.25C496.586 55.25 495.581 55.5576 494.665 56.1729C493.763 56.7881 493.1 57.6084 492.676 58.6338V60.1514C492.676 62.3662 493.141 64.1299 494.07 65.4424C495 66.7412 496.203 67.3906 497.68 67.3906C499.156 67.3906 500.325 66.8369 501.187 65.7295C502.048 64.6221 502.479 63.166 502.479 61.3613C502.479 59.5566 502.041 58.0869 501.166 56.9521C500.291 55.8174 499.129 55.25 497.68 55.25Z" fill="white"/>
<path d="M526.903 40.9971V45.1191H526.288C523.499 45.1602 521.271 45.9258 519.603 47.416C517.935 48.9062 516.943 51.0186 516.629 53.7529C518.229 52.0713 520.272 51.2305 522.761 51.2305C525.399 51.2305 527.478 52.1602 528.995 54.0195C530.526 55.8789 531.292 58.2783 531.292 61.2178C531.292 64.2529 530.396 66.7139 528.605 68.6006C526.828 70.4736 524.49 71.4102 521.592 71.4102C518.611 71.4102 516.191 70.3096 514.332 68.1084C512.486 65.9072 511.563 63.0225 511.563 59.4541V57.752C511.563 52.5156 512.835 48.4141 515.378 45.4473C517.935 42.4805 521.605 40.9971 526.391 40.9971H526.903ZM521.551 55.25C520.457 55.25 519.452 55.5576 518.536 56.1729C517.634 56.7881 516.971 57.6084 516.547 58.6338V60.1514C516.547 62.3662 517.012 64.1299 517.941 65.4424C518.871 66.7412 520.074 67.3906 521.551 67.3906C523.027 67.3906 524.196 66.8369 525.058 65.7295C525.919 64.6221 526.35 63.166 526.35 61.3613C526.35 59.5566 525.912 58.0869 525.037 56.9521C524.162 55.8174 523 55.25 521.551 55.25Z" fill="white"/>
<path d="M545.114 59.7412C545.114 56.3232 545.907 53.582 547.493 51.5176C549.079 49.4395 551.205 48.4004 553.871 48.4004C556.223 48.4004 558.123 49.2207 559.572 50.8613V39.5H564.556V71H560.044L559.798 68.7031C558.308 70.5078 556.318 71.4102 553.83 71.4102C551.232 71.4102 549.127 70.3643 547.514 68.2725C545.914 66.1807 545.114 63.3369 545.114 59.7412ZM550.098 60.1719C550.098 62.4277 550.528 64.1914 551.39 65.4629C552.265 66.7207 553.502 67.3496 555.102 67.3496C557.139 67.3496 558.629 66.4404 559.572 64.6221V55.1475C558.656 53.3701 557.18 52.4814 555.143 52.4814C553.529 52.4814 552.285 53.124 551.41 54.4092C550.535 55.6807 550.098 57.6016 550.098 60.1719Z" fill="white"/>
<path d="M575.056 71H570.072V48.8105H575.056V71ZM569.765 43.0479C569.765 42.2822 570.004 41.6465 570.482 41.1406C570.975 40.6348 571.672 40.3818 572.574 40.3818C573.477 40.3818 574.174 40.6348 574.666 41.1406C575.158 41.6465 575.404 42.2822 575.404 43.0479C575.404 43.7998 575.158 44.4287 574.666 44.9346C574.174 45.4268 573.477 45.6729 572.574 45.6729C571.672 45.6729 570.975 45.4268 570.482 44.9346C570.004 44.4287 569.765 43.7998 569.765 43.0479Z" fill="white"/>
<path d="M593.759 71C593.54 70.5762 593.349 69.8857 593.185 68.9287C591.599 70.583 589.657 71.4102 587.36 71.4102C585.132 71.4102 583.313 70.7744 581.905 69.5029C580.497 68.2314 579.793 66.6592 579.793 64.7861C579.793 62.4209 580.668 60.6094 582.418 59.3516C584.182 58.0801 586.697 57.4443 589.965 57.4443H593.021V55.9883C593.021 54.8398 592.699 53.9238 592.057 53.2402C591.414 52.543 590.437 52.1943 589.124 52.1943C587.989 52.1943 587.06 52.4814 586.335 53.0557C585.61 53.6162 585.248 54.334 585.248 55.209H580.265C580.265 53.9922 580.668 52.8574 581.475 51.8047C582.281 50.7383 583.375 49.9043 584.756 49.3027C586.15 48.7012 587.702 48.4004 589.411 48.4004C592.009 48.4004 594.08 49.0566 595.625 50.3691C597.17 51.668 597.963 53.5 598.004 55.8652V65.873C598.004 67.8691 598.284 69.4619 598.845 70.6514V71H593.759ZM588.283 67.4111C589.268 67.4111 590.19 67.1719 591.052 66.6934C591.927 66.2148 592.583 65.5723 593.021 64.7656V60.582H590.334C588.488 60.582 587.101 60.9033 586.171 61.5459C585.241 62.1885 584.776 63.0977 584.776 64.2734C584.776 65.2305 585.091 65.9961 585.72 66.5703C586.362 67.1309 587.217 67.4111 588.283 67.4111Z" fill="white"/>
<path d="M615.661 64.9707C615.661 64.082 615.292 63.4053 614.554 62.9404C613.829 62.4756 612.619 62.0654 610.924 61.71C609.229 61.3545 607.813 60.9033 606.679 60.3564C604.19 59.1533 602.946 57.4102 602.946 55.127C602.946 53.2129 603.753 51.6133 605.366 50.3281C606.979 49.043 609.03 48.4004 611.519 48.4004C614.171 48.4004 616.311 49.0566 617.938 50.3691C619.578 51.6816 620.398 53.3838 620.398 55.4756H615.415C615.415 54.5186 615.06 53.7256 614.349 53.0967C613.638 52.4541 612.694 52.1328 611.519 52.1328C610.425 52.1328 609.529 52.3857 608.832 52.8916C608.148 53.3975 607.807 54.0742 607.807 54.9219C607.807 55.6875 608.128 56.2822 608.771 56.7061C609.413 57.1299 610.712 57.5605 612.667 57.998C614.622 58.4219 616.153 58.9346 617.261 59.5361C618.382 60.124 619.209 60.835 619.742 61.6689C620.289 62.5029 620.562 63.5146 620.562 64.7041C620.562 66.7002 619.735 68.3203 618.081 69.5645C616.427 70.7949 614.26 71.4102 611.58 71.4102C609.762 71.4102 608.142 71.082 606.72 70.4258C605.298 69.7695 604.19 68.8672 603.397 67.7188C602.604 66.5703 602.208 65.333 602.208 64.0068H607.048C607.116 65.1826 607.561 66.0918 608.381 66.7344C609.201 67.3633 610.288 67.6777 611.642 67.6777C612.954 67.6777 613.952 67.4316 614.636 66.9395C615.319 66.4336 615.661 65.7773 615.661 64.9707Z" fill="white"/>
</g>
<g id="calendar">
<path id="Vector" d="M162.539 96.8752H93.4609C89.1484 96.8752 85.6484 93.3752 85.6484 89.0627V29.2971C85.6484 24.7971 89.2969 21.1486 93.7969 21.1486H162.203C166.703 21.1486 170.352 24.7971 170.352 29.2971V89.0627C170.352 93.3752 166.859 96.8752 162.539 96.8752Z" fill="url(#paint0_linear)"/>
<path id="Vector_2" d="M170.352 45.2734H85.6484V17.3203C85.6484 13.8671 88.4453 11.0703 91.8984 11.0703H164.109C167.562 11.0703 170.359 13.8671 170.359 17.3203V45.2734H170.352Z" fill="#1E88E5"/>
<g id="Group">
<path id="Vector_3" d="M142.461 68.8357H140.469C140.008 68.8357 139.633 68.4607 139.633 67.9997V66.1169C139.633 65.656 140.008 65.281 140.469 65.281H142.461C142.922 65.281 143.297 65.656 143.297 66.1169V67.9997C143.297 68.4607 142.922 68.8357 142.461 68.8357Z" fill="#9E9E9E"/>
<path id="Vector_4" d="M152.445 68.8357H150.453C149.992 68.8357 149.617 68.4607 149.617 67.9997V66.1169C149.617 65.656 149.992 65.281 150.453 65.281H152.445C152.906 65.281 153.281 65.656 153.281 66.1169V67.9997C153.281 68.4607 152.906 68.8357 152.445 68.8357Z" fill="#9E9E9E"/>
<path id="Vector_5" d="M162.43 68.8357H160.438C159.977 68.8357 159.602 68.4607 159.602 67.9997V66.1169C159.602 65.656 159.977 65.281 160.438 65.281H162.43C162.891 65.281 163.266 65.656 163.266 66.1169V67.9997C163.266 68.4607 162.891 68.8357 162.43 68.8357Z" fill="#9E9E9E"/>
<path id="Vector_6" d="M142.461 77.656H140.469C140.008 77.656 139.633 77.281 139.633 76.8201V74.9372C139.633 74.4763 140.008 74.1013 140.469 74.1013H142.461C142.922 74.1013 143.297 74.4763 143.297 74.9372V76.8201C143.297 77.281 142.922 77.656 142.461 77.656Z" fill="#9E9E9E"/>
<path id="Vector_7" d="M152.445 77.656H150.453C149.992 77.656 149.617 77.281 149.617 76.8201V74.9372C149.617 74.4763 149.992 74.1013 150.453 74.1013H152.445C152.906 74.1013 153.281 74.4763 153.281 74.9372V76.8201C153.281 77.281 152.906 77.656 152.445 77.656Z" fill="#9E9E9E"/>
<path id="Vector_8" d="M162.43 77.656H160.438C159.977 77.656 159.602 77.281 159.602 76.8201V74.9372C159.602 74.4763 159.977 74.1013 160.438 74.1013H162.43C162.891 74.1013 163.266 74.4763 163.266 74.9372V76.8201C163.266 77.281 162.891 77.656 162.43 77.656Z" fill="#9E9E9E"/>
<path id="Vector_9" d="M142.461 86.4763H140.469C140.008 86.4763 139.633 86.1013 139.633 85.6404V83.7576C139.633 83.2966 140.008 82.9216 140.469 82.9216H142.461C142.922 82.9216 143.297 83.2966 143.297 83.7576V85.6404C143.297 86.1013 142.922 86.4763 142.461 86.4763Z" fill="#9E9E9E"/>
<path id="Vector_10" d="M152.445 86.4763H150.453C149.992 86.4763 149.617 86.1013 149.617 85.6404V83.7576C149.617 83.2966 149.992 82.9216 150.453 82.9216H152.445C152.906 82.9216 153.281 83.2966 153.281 83.7576V85.6404C153.281 86.1013 152.906 86.4763 152.445 86.4763Z" fill="#9E9E9E"/>
<path id="Vector_11" d="M162.43 86.4763H160.438C159.977 86.4763 159.602 86.1013 159.602 85.6404V83.7576C159.602 83.2966 159.977 82.9216 160.438 82.9216H162.43C162.891 82.9216 163.266 83.2966 163.266 83.7576V85.6404C163.266 86.1013 162.891 86.4763 162.43 86.4763Z" fill="#9E9E9E"/>
</g>
<path id="Vector_12" d="M102.937 15.3281C101.852 15.3281 100.633 13.6875 100.633 11.4844C100.633 9.28125 101.852 7.64062 102.937 7.64062C103.969 7.64062 105.109 9.13281 105.227 11.1719H109.75C109.617 6.63281 106.68 3.125 102.937 3.125C99.1094 3.125 96.1172 6.79688 96.1172 11.4844C96.1172 16.1719 99.1172 19.8438 102.937 19.8438C104.187 19.8438 105.195 18.8359 105.195 17.5859C105.203 16.3359 104.187 15.3281 102.937 15.3281Z" fill="url(#paint1_linear)"/>
<path id="Vector_13" d="M128.945 15.3281C127.859 15.3281 126.641 13.6875 126.641 11.4844C126.641 9.28125 127.859 7.64062 128.945 7.64062C129.977 7.64062 131.117 9.13281 131.234 11.1719H135.758C135.625 6.63281 132.687 3.125 128.945 3.125C125.117 3.125 122.125 6.79688 122.125 11.4844C122.125 16.1719 125.125 19.8438 128.945 19.8438C130.195 19.8438 131.203 18.8359 131.203 17.5859C131.203 16.3359 130.195 15.3281 128.945 15.3281Z" fill="url(#paint2_linear)"/>
<path id="Vector_14" d="M155.617 15.3281C154.531 15.3281 153.312 13.6875 153.312 11.4844C153.312 9.28125 154.531 7.64062 155.617 7.64062C156.648 7.64062 157.789 9.13281 157.906 11.1719H162.43C162.297 6.63281 159.359 3.125 155.617 3.125C151.789 3.125 148.797 6.79688 148.797 11.4844C148.797 16.1719 151.797 19.8438 155.617 19.8438C156.867 19.8438 157.875 18.8359 157.875 17.5859C157.875 16.3359 156.867 15.3281 155.617 15.3281Z" fill="url(#paint3_linear)"/>
<path id="Vector_15" opacity="0.2" d="M133.484 11.6719C133.616 12.1718 133.91 12.6139 134.32 12.9291C134.73 13.2443 135.233 13.4148 135.75 13.4141H148.812C149.891 13.4141 150.812 12.6797 151.078 11.6797C151.211 12.1791 151.505 12.6207 151.915 12.9358C152.325 13.2508 152.827 13.4217 153.344 13.4219H157.898C158.547 13.4219 159.172 13.1484 159.617 12.6719C159.883 12.3906 160.07 12.0469 160.164 11.6797C160.296 12.1796 160.59 12.6217 161 12.9369C161.41 13.2521 161.913 13.4226 162.43 13.4219H163.656C166.062 13.4219 168.016 15.375 168.016 17.7812V88.5C168.016 91.8281 165.305 94.5391 161.977 94.5391H94.0234C90.6953 94.5391 87.9844 91.8281 87.9844 88.5V17.7812C87.9844 15.375 89.9375 13.4219 92.3438 13.4219H96.125C97.2031 13.4219 98.125 12.6875 98.3906 11.6875C98.5235 12.187 98.8177 12.6285 99.2274 12.9436C99.6371 13.2586 100.139 13.4295 100.656 13.4297H105.211C105.859 13.4297 106.484 13.1562 106.93 12.6797C107.195 12.3984 107.383 12.0547 107.477 11.6875C107.609 12.1874 107.903 12.6295 108.312 12.9447C108.722 13.2599 109.225 13.4304 109.742 13.4297H122.141C123.219 13.4297 124.141 12.6953 124.406 11.6953C124.539 12.1948 124.833 12.6363 125.243 12.9514C125.653 13.2664 126.155 13.4373 126.672 13.4375H131.227C131.875 13.4375 132.5 13.1641 132.945 12.6875C133.195 12.3828 133.383 12.0469 133.484 11.6719ZM155.617 3.125C151.906 3.125 148.984 6.58594 148.812 11.0703H135.75C135.578 6.58594 132.656 3.125 128.945 3.125C125.234 3.125 122.312 6.58594 122.141 11.0703H109.742C109.578 6.58594 106.656 3.125 102.938 3.125C99.2266 3.125 96.3047 6.58594 96.1328 11.0703H92.3516C88.6484 11.0703 85.6484 14.0703 85.6484 17.7734V88.4922C85.6484 93.125 89.3984 96.875 94.0312 96.875H161.977C166.609 96.875 170.359 93.125 170.359 88.4922V17.7812C170.359 14.0781 167.359 11.0781 163.656 11.0781H162.43C162.25 6.58594 159.336 3.125 155.617 3.125ZM153.344 11.0703C153.484 9.08594 154.602 7.64062 155.625 7.64062C156.641 7.64062 157.758 9.08594 157.898 11.0703H153.344ZM126.664 11.0703C126.805 9.08594 127.922 7.64062 128.945 7.64062C129.961 7.64062 131.078 9.08594 131.219 11.0703H126.664ZM100.664 11.0703C100.805 9.08594 101.922 7.64062 102.945 7.64062C103.961 7.64062 105.078 9.08594 105.219 11.0703H100.664Z" fill="#424242"/>
<g id="Group 61">
<g id="Febrero">
<path d="M106.675 31.5771H101.524V37H99.3008V24.2031H107.431V25.9961H101.524V29.8018H106.675V31.5771Z" fill="black"/>
<path d="M112.985 37.1758C111.632 37.1758 110.533 36.751 109.689 35.9014C108.852 35.0459 108.433 33.9092 108.433 32.4912V32.2275C108.433 31.2783 108.614 30.4316 108.978 29.6875C109.347 28.9375 109.862 28.3545 110.524 27.9385C111.187 27.5225 111.925 27.3145 112.739 27.3145C114.034 27.3145 115.033 27.7275 115.736 28.5537C116.445 29.3799 116.8 30.5488 116.8 32.0605V32.9219H110.586C110.65 33.707 110.911 34.3281 111.368 34.7852C111.831 35.2422 112.411 35.4707 113.108 35.4707C114.087 35.4707 114.884 35.0752 115.499 34.2842L116.65 35.3828C116.27 35.9512 115.76 36.3936 115.121 36.71C114.488 37.0205 113.776 37.1758 112.985 37.1758ZM112.73 29.0283C112.145 29.0283 111.67 29.2334 111.307 29.6436C110.949 30.0537 110.721 30.625 110.621 31.3574H114.69V31.1992C114.644 30.4844 114.453 29.9453 114.119 29.582C113.785 29.2129 113.322 29.0283 112.73 29.0283Z" fill="black"/>
<path d="M126.811 32.3418C126.811 33.8184 126.479 34.9932 125.817 35.8662C125.161 36.7393 124.256 37.1758 123.102 37.1758C121.988 37.1758 121.121 36.7744 120.5 35.9717L120.395 37H118.461V23.5H120.597V28.4043C121.212 27.6777 122.041 27.3145 123.084 27.3145C124.244 27.3145 125.155 27.7451 125.817 28.6064C126.479 29.4678 126.811 30.6719 126.811 32.2188V32.3418ZM124.675 32.1572C124.675 31.126 124.493 30.3525 124.13 29.8369C123.767 29.3213 123.239 29.0635 122.548 29.0635C121.622 29.0635 120.972 29.4678 120.597 30.2764V34.1963C120.978 35.0225 121.634 35.4355 122.565 35.4355C123.233 35.4355 123.749 35.1865 124.112 34.6885C124.476 34.1904 124.663 33.4375 124.675 32.4297V32.1572Z" fill="black"/>
<path d="M133.587 29.4414C133.306 29.3945 133.016 29.3711 132.717 29.3711C131.738 29.3711 131.079 29.7461 130.739 30.4961V37H128.604V27.4902H130.643L130.695 28.5537C131.211 27.7275 131.926 27.3145 132.84 27.3145C133.145 27.3145 133.396 27.3555 133.596 27.4375L133.587 29.4414Z" fill="black"/>
<path d="M138.948 37.1758C137.595 37.1758 136.496 36.751 135.652 35.9014C134.814 35.0459 134.396 33.9092 134.396 32.4912V32.2275C134.396 31.2783 134.577 30.4316 134.94 29.6875C135.31 28.9375 135.825 28.3545 136.487 27.9385C137.149 27.5225 137.888 27.3145 138.702 27.3145C139.997 27.3145 140.996 27.7275 141.699 28.5537C142.408 29.3799 142.763 30.5488 142.763 32.0605V32.9219H136.549C136.613 33.707 136.874 34.3281 137.331 34.7852C137.794 35.2422 138.374 35.4707 139.071 35.4707C140.05 35.4707 140.847 35.0752 141.462 34.2842L142.613 35.3828C142.232 35.9512 141.723 36.3936 141.084 36.71C140.451 37.0205 139.739 37.1758 138.948 37.1758ZM138.693 29.0283C138.107 29.0283 137.633 29.2334 137.27 29.6436C136.912 30.0537 136.684 30.625 136.584 31.3574H140.653V31.1992C140.606 30.4844 140.416 29.9453 140.082 29.582C139.748 29.2129 139.285 29.0283 138.693 29.0283Z" fill="black"/>
<path d="M149.407 29.4414C149.126 29.3945 148.836 29.3711 148.537 29.3711C147.559 29.3711 146.899 29.7461 146.56 30.4961V37H144.424V27.4902H146.463L146.516 28.5537C147.031 27.7275 147.746 27.3145 148.66 27.3145C148.965 27.3145 149.217 27.3555 149.416 27.4375L149.407 29.4414Z" fill="black"/>
<path d="M150.04 32.1572C150.04 31.2256 150.225 30.3877 150.594 29.6436C150.963 28.8936 151.481 28.3193 152.149 27.9209C152.817 27.5166 153.585 27.3145 154.452 27.3145C155.735 27.3145 156.775 27.7275 157.572 28.5537C158.375 29.3799 158.809 30.4756 158.873 31.8408L158.882 32.3418C158.882 33.2793 158.7 34.1172 158.337 34.8555C157.979 35.5938 157.464 36.165 156.79 36.5693C156.122 36.9736 155.349 37.1758 154.47 37.1758C153.128 37.1758 152.053 36.7305 151.244 35.8398C150.441 34.9434 150.04 33.751 150.04 32.2627V32.1572ZM152.176 32.3418C152.176 33.3203 152.378 34.0879 152.782 34.6445C153.187 35.1953 153.749 35.4707 154.47 35.4707C155.19 35.4707 155.75 35.1895 156.148 34.627C156.553 34.0645 156.755 33.2412 156.755 32.1572C156.755 31.1963 156.547 30.4346 156.131 29.8721C155.721 29.3096 155.161 29.0283 154.452 29.0283C153.755 29.0283 153.201 29.3066 152.791 29.8633C152.381 30.4141 152.176 31.2402 152.176 32.3418Z" fill="black"/>
</g>
</g>
<g id="29">
<path d="M112.125 85H94.916V82.0645L103.441 72.7656C104.672 71.3945 105.545 70.252 106.061 69.3379C106.588 68.4121 106.852 67.4863 106.852 66.5605C106.852 65.3418 106.506 64.3574 105.814 63.6074C105.135 62.8574 104.215 62.4824 103.055 62.4824C101.672 62.4824 100.6 62.9043 99.8379 63.748C99.0762 64.5918 98.6953 65.7461 98.6953 67.2109H94.4238C94.4238 65.6523 94.7754 64.252 95.4785 63.0098C96.1934 61.7559 97.207 60.7832 98.5195 60.0918C99.8438 59.4004 101.367 59.0547 103.09 59.0547C105.574 59.0547 107.531 59.6816 108.961 60.9355C110.402 62.1777 111.123 63.9004 111.123 66.1035C111.123 67.3809 110.76 68.7227 110.033 70.1289C109.318 71.5234 108.141 73.1113 106.5 74.8926L100.242 81.5898H112.125V85Z" fill="black"/>
<path d="M127.488 74.2949C126.059 75.8066 124.389 76.5625 122.479 76.5625C120.229 76.5625 118.436 75.7773 117.1 74.207C115.764 72.625 115.096 70.5508 115.096 67.9844C115.096 66.2969 115.436 64.7676 116.115 63.3965C116.795 62.0254 117.762 60.959 119.016 60.1973C120.27 59.4355 121.723 59.0547 123.375 59.0547C125.953 59.0547 127.998 60.0156 129.51 61.9375C131.021 63.8594 131.777 66.4316 131.777 69.6543V70.8496C131.777 75.4668 130.734 78.9883 128.648 81.4141C126.562 83.8398 123.451 85.0703 119.314 85.1055H118.805V81.5723H119.42C121.939 81.5371 123.873 80.9336 125.221 79.7617C126.568 78.5781 127.324 76.7559 127.488 74.2949ZM123.375 73.2227C124.23 73.2227 125.033 72.9766 125.783 72.4844C126.533 71.9922 127.113 71.3125 127.523 70.4453V68.7754C127.523 66.8887 127.137 65.3711 126.363 64.2227C125.59 63.0742 124.588 62.5 123.357 62.5C122.127 62.5 121.143 63.0098 120.404 64.0293C119.678 65.0371 119.314 66.3145 119.314 67.8613C119.314 69.4668 119.684 70.7617 120.422 71.7461C121.16 72.7305 122.145 73.2227 123.375 73.2227Z" fill="black"/>
</g>
</g>
</g>
<g id="ecu-1">
<g id="text_2">
<path d="M5.22363 135.905V147H0.0351562V117.141H11.458C14.7939 117.141 17.4395 118.009 19.3945 119.745C21.3633 121.481 22.3477 123.778 22.3477 126.636C22.3477 129.562 21.3838 131.838 19.4561 133.465C17.542 135.092 14.8555 135.905 11.3965 135.905H5.22363ZM5.22363 131.742H11.458C13.3037 131.742 14.7119 131.312 15.6826 130.45C16.6533 129.575 17.1387 128.317 17.1387 126.677C17.1387 125.063 16.6465 123.778 15.6621 122.821C14.6777 121.851 13.3242 121.352 11.6016 121.324H5.22363V131.742Z" fill="white"/>
<path d="M35.9033 147.41C32.7451 147.41 30.1816 146.419 28.2129 144.437C26.2578 142.44 25.2803 139.788 25.2803 136.479V135.864C25.2803 133.649 25.7041 131.674 26.5518 129.938C27.4131 128.188 28.6162 126.827 30.1611 125.856C31.7061 124.886 33.4287 124.4 35.3291 124.4C38.3506 124.4 40.6816 125.364 42.3223 127.292C43.9766 129.22 44.8037 131.947 44.8037 135.475V137.484H30.3047C30.4551 139.316 31.0635 140.766 32.1299 141.832C33.21 142.898 34.5635 143.432 36.1904 143.432C38.4736 143.432 40.333 142.509 41.7686 140.663L44.4551 143.227C43.5664 144.553 42.377 145.585 40.8867 146.323C39.4102 147.048 37.749 147.41 35.9033 147.41ZM35.3086 128.399C33.9414 128.399 32.834 128.878 31.9863 129.835C31.1523 130.792 30.6191 132.125 30.3867 133.834H39.8818V133.465C39.7725 131.797 39.3281 130.539 38.5488 129.691C37.7695 128.83 36.6895 128.399 35.3086 128.399Z" fill="white"/>
<path d="M60.3076 129.363C59.6514 129.254 58.9746 129.199 58.2773 129.199C55.9941 129.199 54.4561 130.074 53.6631 131.824V147H48.6797V124.811H53.4375L53.5605 127.292C54.7637 125.364 56.4316 124.4 58.5645 124.4C59.2754 124.4 59.8633 124.496 60.3281 124.688L60.3076 129.363Z" fill="white"/>
<path d="M75.8936 140.971C75.8936 140.082 75.5244 139.405 74.7861 138.94C74.0615 138.476 72.8516 138.065 71.1562 137.71C69.4609 137.354 68.0459 136.903 66.9111 136.356C64.4229 135.153 63.1787 133.41 63.1787 131.127C63.1787 129.213 63.9854 127.613 65.5986 126.328C67.2119 125.043 69.2627 124.4 71.751 124.4C74.4033 124.4 76.543 125.057 78.1699 126.369C79.8105 127.682 80.6309 129.384 80.6309 131.476H75.6475C75.6475 130.519 75.292 129.726 74.5811 129.097C73.8701 128.454 72.9268 128.133 71.751 128.133C70.6572 128.133 69.7617 128.386 69.0645 128.892C68.3809 129.397 68.0391 130.074 68.0391 130.922C68.0391 131.688 68.3604 132.282 69.0029 132.706C69.6455 133.13 70.9443 133.561 72.8994 133.998C74.8545 134.422 76.3857 134.935 77.4932 135.536C78.6143 136.124 79.4414 136.835 79.9746 137.669C80.5215 138.503 80.7949 139.515 80.7949 140.704C80.7949 142.7 79.9678 144.32 78.3135 145.564C76.6592 146.795 74.4922 147.41 71.8125 147.41C69.9941 147.41 68.374 147.082 66.9521 146.426C65.5303 145.77 64.4229 144.867 63.6299 143.719C62.8369 142.57 62.4404 141.333 62.4404 140.007H67.2803C67.3486 141.183 67.793 142.092 68.6133 142.734C69.4336 143.363 70.5205 143.678 71.874 143.678C73.1865 143.678 74.1846 143.432 74.8682 142.939C75.5518 142.434 75.8936 141.777 75.8936 140.971Z" fill="white"/>
<path d="M84.2197 135.7C84.2197 133.526 84.6504 131.571 85.5117 129.835C86.373 128.085 87.583 126.745 89.1416 125.815C90.7002 124.872 92.4912 124.4 94.5146 124.4C97.5088 124.4 99.9355 125.364 101.795 127.292C103.668 129.22 104.68 131.776 104.83 134.962L104.851 136.131C104.851 138.318 104.427 140.273 103.579 141.996C102.745 143.719 101.542 145.052 99.9697 145.995C98.4111 146.938 96.6064 147.41 94.5557 147.41C91.4248 147.41 88.916 146.371 87.0293 144.293C85.1562 142.201 84.2197 139.419 84.2197 135.946V135.7ZM89.2031 136.131C89.2031 138.414 89.6748 140.205 90.6182 141.504C91.5615 142.789 92.874 143.432 94.5557 143.432C96.2373 143.432 97.543 142.775 98.4727 141.463C99.416 140.15 99.8877 138.229 99.8877 135.7C99.8877 133.458 99.4023 131.681 98.4316 130.368C97.4746 129.056 96.1689 128.399 94.5146 128.399C92.8877 128.399 91.5957 129.049 90.6387 130.348C89.6816 131.633 89.2031 133.561 89.2031 136.131Z" fill="white"/>
<path d="M113.689 124.811L113.833 127.374C115.474 125.392 117.627 124.4 120.293 124.4C124.914 124.4 127.266 127.046 127.348 132.337V147H122.364V132.624C122.364 131.216 122.057 130.177 121.441 129.507C120.84 128.823 119.849 128.481 118.468 128.481C116.458 128.481 114.961 129.391 113.977 131.209V147H108.993V124.811H113.689Z" fill="white"/>
<path d="M145.702 147C145.483 146.576 145.292 145.886 145.128 144.929C143.542 146.583 141.601 147.41 139.304 147.41C137.075 147.41 135.257 146.774 133.849 145.503C132.44 144.231 131.736 142.659 131.736 140.786C131.736 138.421 132.611 136.609 134.361 135.352C136.125 134.08 138.641 133.444 141.908 133.444H144.964V131.988C144.964 130.84 144.643 129.924 144 129.24C143.357 128.543 142.38 128.194 141.067 128.194C139.933 128.194 139.003 128.481 138.278 129.056C137.554 129.616 137.191 130.334 137.191 131.209H132.208C132.208 129.992 132.611 128.857 133.418 127.805C134.225 126.738 135.318 125.904 136.699 125.303C138.094 124.701 139.646 124.4 141.354 124.4C143.952 124.4 146.023 125.057 147.568 126.369C149.113 127.668 149.906 129.5 149.947 131.865V141.873C149.947 143.869 150.228 145.462 150.788 146.651V147H145.702ZM140.227 143.411C141.211 143.411 142.134 143.172 142.995 142.693C143.87 142.215 144.526 141.572 144.964 140.766V136.582H142.277C140.432 136.582 139.044 136.903 138.114 137.546C137.185 138.188 136.72 139.098 136.72 140.273C136.72 141.23 137.034 141.996 137.663 142.57C138.306 143.131 139.16 143.411 140.227 143.411Z" fill="white"/>
<path d="M167.604 140.971C167.604 140.082 167.235 139.405 166.497 138.94C165.772 138.476 164.562 138.065 162.867 137.71C161.172 137.354 159.757 136.903 158.622 136.356C156.134 135.153 154.89 133.41 154.89 131.127C154.89 129.213 155.696 127.613 157.31 126.328C158.923 125.043 160.974 124.4 163.462 124.4C166.114 124.4 168.254 125.057 169.881 126.369C171.521 127.682 172.342 129.384 172.342 131.476H167.358C167.358 130.519 167.003 129.726 166.292 129.097C165.581 128.454 164.638 128.133 163.462 128.133C162.368 128.133 161.473 128.386 160.775 128.892C160.092 129.397 159.75 130.074 159.75 130.922C159.75 131.688 160.071 132.282 160.714 132.706C161.356 133.13 162.655 133.561 164.61 133.998C166.565 134.422 168.097 134.935 169.204 135.536C170.325 136.124 171.152 136.835 171.686 137.669C172.232 138.503 172.506 139.515 172.506 140.704C172.506 142.7 171.679 144.32 170.024 145.564C168.37 146.795 166.203 147.41 163.523 147.41C161.705 147.41 160.085 147.082 158.663 146.426C157.241 145.77 156.134 144.867 155.341 143.719C154.548 142.57 154.151 141.333 154.151 140.007H158.991C159.06 141.183 159.504 142.092 160.324 142.734C161.145 143.363 162.231 143.678 163.585 143.678C164.897 143.678 165.896 143.432 166.579 142.939C167.263 142.434 167.604 141.777 167.604 140.971Z" fill="white"/>
<path d="M186.39 135.721C186.39 132.248 187.183 129.493 188.769 127.456C190.354 125.419 192.501 124.4 195.208 124.4C197.683 124.4 199.645 125.269 201.094 127.005L201.381 124.811H205.811V155.531H200.827V145.113C199.378 146.645 197.491 147.41 195.167 147.41C192.515 147.41 190.389 146.378 188.789 144.313C187.189 142.235 186.39 139.371 186.39 135.721ZM191.373 136.151C191.373 138.421 191.817 140.205 192.706 141.504C193.608 142.789 194.853 143.432 196.438 143.432C198.407 143.432 199.87 142.591 200.827 140.909V130.819C199.87 129.206 198.421 128.399 196.479 128.399C194.894 128.399 193.643 129.035 192.727 130.307C191.824 131.578 191.373 133.526 191.373 136.151Z" fill="white"/>
<path d="M224.637 144.826C223.174 146.549 221.096 147.41 218.402 147.41C215.996 147.41 214.171 146.706 212.927 145.298C211.696 143.89 211.081 141.853 211.081 139.187V124.811H216.064V139.125C216.064 141.941 217.233 143.35 219.571 143.35C221.991 143.35 223.625 142.481 224.473 140.745V124.811H229.456V147H224.76L224.637 144.826Z" fill="white"/>
<path d="M244.304 147.41C241.146 147.41 238.582 146.419 236.613 144.437C234.658 142.44 233.681 139.788 233.681 136.479V135.864C233.681 133.649 234.104 131.674 234.952 129.938C235.813 128.188 237.017 126.827 238.562 125.856C240.106 124.886 241.829 124.4 243.729 124.4C246.751 124.4 249.082 125.364 250.723 127.292C252.377 129.22 253.204 131.947 253.204 135.475V137.484H238.705C238.855 139.316 239.464 140.766 240.53 141.832C241.61 142.898 242.964 143.432 244.591 143.432C246.874 143.432 248.733 142.509 250.169 140.663L252.855 143.227C251.967 144.553 250.777 145.585 249.287 146.323C247.811 147.048 246.149 147.41 244.304 147.41ZM243.709 128.399C242.342 128.399 241.234 128.878 240.387 129.835C239.553 130.792 239.02 132.125 238.787 133.834H248.282V133.465C248.173 131.797 247.729 130.539 246.949 129.691C246.17 128.83 245.09 128.399 243.709 128.399Z" fill="white"/>
<path d="M279.167 129.363C278.511 129.254 277.834 129.199 277.137 129.199C274.854 129.199 273.315 130.074 272.522 131.824V147H267.539V124.811H272.297L272.42 127.292C273.623 125.364 275.291 124.4 277.424 124.4C278.135 124.4 278.723 124.496 279.188 124.688L279.167 129.363Z" fill="white"/>
<path d="M291.677 147.41C288.519 147.41 285.955 146.419 283.986 144.437C282.031 142.44 281.054 139.788 281.054 136.479V135.864C281.054 133.649 281.478 131.674 282.325 129.938C283.187 128.188 284.39 126.827 285.935 125.856C287.479 124.886 289.202 124.4 291.103 124.4C294.124 124.4 296.455 125.364 298.096 127.292C299.75 129.22 300.577 131.947 300.577 135.475V137.484H286.078C286.229 139.316 286.837 140.766 287.903 141.832C288.983 142.898 290.337 143.432 291.964 143.432C294.247 143.432 296.106 142.509 297.542 140.663L300.229 143.227C299.34 144.553 298.15 145.585 296.66 146.323C295.184 147.048 293.522 147.41 291.677 147.41ZM291.082 128.399C289.715 128.399 288.607 128.878 287.76 129.835C286.926 130.792 286.393 132.125 286.16 133.834H295.655V133.465C295.546 131.797 295.102 130.539 294.322 129.691C293.543 128.83 292.463 128.399 291.082 128.399Z" fill="white"/>
<path d="M310.708 119.417V124.811H314.625V128.502H310.708V140.889C310.708 141.736 310.872 142.352 311.2 142.734C311.542 143.104 312.144 143.288 313.005 143.288C313.579 143.288 314.16 143.22 314.748 143.083V146.938C313.613 147.253 312.52 147.41 311.467 147.41C307.639 147.41 305.725 145.298 305.725 141.073V128.502H302.074V124.811H305.725V119.417H310.708Z" fill="white"/>
<path d="M323.751 147H318.768V124.811H323.751V147ZM318.46 119.048C318.46 118.282 318.699 117.646 319.178 117.141C319.67 116.635 320.367 116.382 321.27 116.382C322.172 116.382 322.869 116.635 323.361 117.141C323.854 117.646 324.1 118.282 324.1 119.048C324.1 119.8 323.854 120.429 323.361 120.935C322.869 121.427 322.172 121.673 321.27 121.673C320.367 121.673 319.67 121.427 319.178 120.935C318.699 120.429 318.46 119.8 318.46 119.048Z" fill="white"/>
<path d="M340.813 129.363C340.157 129.254 339.48 129.199 338.783 129.199C336.5 129.199 334.962 130.074 334.169 131.824V147H329.186V124.811H333.943L334.066 127.292C335.27 125.364 336.938 124.4 339.07 124.4C339.781 124.4 340.369 124.496 340.834 124.688L340.813 129.363Z" fill="white"/>
<path d="M342.29 135.7C342.29 133.526 342.721 131.571 343.582 129.835C344.443 128.085 345.653 126.745 347.212 125.815C348.771 124.872 350.562 124.4 352.585 124.4C355.579 124.4 358.006 125.364 359.865 127.292C361.738 129.22 362.75 131.776 362.9 134.962L362.921 136.131C362.921 138.318 362.497 140.273 361.649 141.996C360.815 143.719 359.612 145.052 358.04 145.995C356.481 146.938 354.677 147.41 352.626 147.41C349.495 147.41 346.986 146.371 345.1 144.293C343.227 142.201 342.29 139.419 342.29 135.946V135.7ZM347.273 136.131C347.273 138.414 347.745 140.205 348.688 141.504C349.632 142.789 350.944 143.432 352.626 143.432C354.308 143.432 355.613 142.775 356.543 141.463C357.486 140.15 357.958 138.229 357.958 135.7C357.958 133.458 357.473 131.681 356.502 130.368C355.545 129.056 354.239 128.399 352.585 128.399C350.958 128.399 349.666 129.049 348.709 130.348C347.752 131.633 347.273 133.561 347.273 136.131Z" fill="white"/>
<path d="M370.14 141.75C371.069 141.75 371.787 142.017 372.293 142.55C372.799 143.069 373.052 143.726 373.052 144.519C373.052 145.298 372.799 145.947 372.293 146.467C371.787 146.973 371.069 147.226 370.14 147.226C369.251 147.226 368.547 146.973 368.027 146.467C367.508 145.961 367.248 145.312 367.248 144.519C367.248 143.726 367.501 143.069 368.007 142.55C368.513 142.017 369.224 141.75 370.14 141.75ZM370.14 124.339C371.069 124.339 371.787 124.605 372.293 125.139C372.799 125.658 373.052 126.314 373.052 127.107C373.052 127.887 372.799 128.536 372.293 129.056C371.787 129.562 371.069 129.814 370.14 129.814C369.251 129.814 368.547 129.562 368.027 129.056C367.508 128.55 367.248 127.9 367.248 127.107C367.248 126.314 367.501 125.658 368.007 125.139C368.513 124.605 369.224 124.339 370.14 124.339Z" fill="white"/>
</g>
<g id="text_3">
<g id="Group_2">
<g id="Group_3">
<path id="Vector_16" d="M33.53 225.75C32.99 225.66 31.055 225.615 27.725 225.615C24.245 225.615 22.235 225.66 21.695 225.75H21.29V223.68H22.685C23.285 223.68 23.69 223.68 23.9 223.68C24.11 223.68 24.365 223.65 24.665 223.59C24.965 223.53 25.175 223.455 25.295 223.365C25.415 223.275 25.52 223.155 25.61 223.005C25.64 222.945 25.655 222.135 25.655 220.575V218.325H14V216.255L20.795 205.86C25.385 198.9 27.71 195.405 27.77 195.375C27.83 195.315 28.145 195.285 28.715 195.285H29.525L29.795 195.555V216.255H33.935V218.325H29.795V220.62C29.795 221.85 29.795 222.57 29.795 222.78C29.795 222.99 29.885 223.17 30.065 223.32C30.305 223.53 31.16 223.65 32.63 223.68H33.935V225.75H33.53ZM25.925 216.255V201.225L16.07 216.21L20.975 216.255H25.925Z" fill="white"/>
<path id="Vector_17" d="M42.6202 218.685C42.6202 219.405 42.3802 220.005 41.9002 220.485C41.4202 220.965 40.8352 221.205 40.1452 221.205H39.8302C41.2102 223.575 43.0402 224.76 45.3202 224.76C47.4202 224.76 48.9502 223.86 49.9102 222.06C50.4802 221.07 50.7652 219.15 50.7652 216.3C50.7652 213.21 50.3602 211.125 49.5502 210.045C48.7702 209.055 47.9002 208.56 46.9402 208.56H46.6702C44.3302 208.56 42.5602 209.58 41.3602 211.62C41.2402 211.83 41.1352 211.95 41.0452 211.98C40.9552 212.01 40.7302 212.04 40.3702 212.07C39.8602 212.07 39.5752 211.98 39.5152 211.8C39.4552 211.68 39.4252 209.055 39.4252 203.925V198.12C39.4252 196.62 39.5002 195.87 39.6502 195.87C39.7102 195.81 39.7702 195.78 39.8302 195.78C39.8602 195.78 40.1752 195.9 40.7752 196.14C41.3752 196.38 42.2002 196.62 43.2502 196.86C44.3002 197.1 45.4252 197.22 46.6252 197.22C48.7552 197.22 50.7952 196.8 52.7452 195.96C52.9852 195.84 53.1802 195.78 53.3302 195.78C53.5702 195.78 53.6902 196.05 53.6902 196.59V197.175C51.2302 200.085 48.1552 201.54 44.4652 201.54C43.5352 201.54 42.6952 201.45 41.9452 201.27L41.4952 201.18V208.92C42.0652 208.5 42.5152 208.17 42.8452 207.93C43.1752 207.69 43.7152 207.45 44.4652 207.21C45.2152 206.97 45.9802 206.85 46.7602 206.85C49.1902 206.85 51.2452 207.825 52.9252 209.775C54.6052 211.725 55.4452 214.035 55.4452 216.705C55.4452 219.465 54.4852 221.82 52.5652 223.77C50.6452 225.72 48.3052 226.71 45.5452 226.74C43.1152 226.74 41.1652 225.93 39.6952 224.31C38.2252 222.69 37.4902 220.86 37.4902 218.82C37.4902 218.1 37.6552 217.53 37.9852 217.11C38.3152 216.69 38.6602 216.42 39.0202 216.3C39.3802 216.18 39.7252 216.12 40.0552 216.12C40.8052 216.12 41.4202 216.375 41.9002 216.885C42.3802 217.395 42.6202 217.995 42.6202 218.685Z" fill="white"/>
<path id="Vector_18" d="M59.6298 211.665C59.6298 206.775 60.8448 202.905 63.2748 200.055C65.7048 197.205 68.4048 195.78 71.3748 195.78C73.4448 195.78 74.9298 196.32 75.8298 197.4C76.7298 198.48 77.1798 199.68 77.1798 201C77.1798 201.75 76.9698 202.35 76.5498 202.8C76.1298 203.25 75.5448 203.475 74.7948 203.475C74.1048 203.475 73.5348 203.265 73.0848 202.845C72.6348 202.425 72.4098 201.84 72.4098 201.09C72.4098 199.77 73.1148 198.975 74.5248 198.705C73.8648 198.045 72.9348 197.67 71.7348 197.58C69.6048 197.58 67.8498 198.48 66.4698 200.28C65.0598 202.26 64.3548 205.29 64.3548 209.37L64.3998 209.55C64.5498 209.37 64.6698 209.175 64.7598 208.965C65.9898 207.165 67.5948 206.265 69.5748 206.265H69.7548C71.1348 206.265 72.3498 206.55 73.3998 207.12C74.1198 207.54 74.8398 208.14 75.5598 208.92C76.2798 209.7 76.8648 210.555 77.3148 211.485C77.9448 212.955 78.2598 214.56 78.2598 216.3V217.11C78.2598 217.8 78.1848 218.445 78.0348 219.045C77.7048 220.815 76.7448 222.54 75.1548 224.22C73.5648 225.9 71.5548 226.74 69.1248 226.74C68.2848 226.74 67.4748 226.62 66.6948 226.38C65.9148 226.14 65.0748 225.69 64.1748 225.03C63.2748 224.37 62.5098 223.485 61.8798 222.375C61.2498 221.265 60.7098 219.81 60.2598 218.01C59.8098 216.21 59.5998 214.095 59.6298 211.665ZM69.3048 207.885C68.4048 207.885 67.6248 208.14 66.9648 208.65C66.3048 209.16 65.7948 209.835 65.4348 210.675C65.0748 211.515 64.8198 212.37 64.6698 213.24C64.5198 214.11 64.4298 215.04 64.3998 216.03C64.3998 218.52 64.5798 220.305 64.9398 221.385C65.2998 222.465 65.8698 223.335 66.6498 223.995C67.3698 224.535 68.1648 224.805 69.0348 224.805C70.5648 224.805 71.7348 224.235 72.5448 223.095C72.9348 222.555 73.2048 221.88 73.3548 221.07C73.5048 220.26 73.5798 218.685 73.5798 216.345C73.5798 213.945 73.5048 212.34 73.3548 211.53C73.2048 210.72 72.9348 210.045 72.5448 209.505C71.7348 208.425 70.6548 207.885 69.3048 207.885Z" fill="white"/>
</g>
<g id="Group_4">
<path id="Vector_19" d="M94.019 215.085C94.019 215.085 94.019 214.89 94.019 214.5C94.019 214.11 94.229 213.81 94.649 213.6H120.794C121.244 213.84 121.469 214.14 121.469 214.5C121.469 214.86 121.244 215.16 120.794 215.4H94.649C94.229 215.19 94.019 214.89 94.019 214.5V215.085Z" fill="white"/>
</g>
<g id="Group_5">
<path id="Vector_20" d="M139.478 214.5C139.478 212.43 139.628 210.465 139.928 208.605C140.228 206.745 140.573 205.14 140.963 203.79C141.353 202.44 141.908 201.12 142.628 199.83C143.348 198.54 143.918 197.535 144.338 196.815C144.758 196.095 145.388 195.315 146.228 194.475C147.068 193.635 147.563 193.125 147.713 192.945C147.863 192.765 148.238 192.45 148.838 192H149.423H149.603C150.023 192 150.233 192.135 150.233 192.405C150.233 192.495 149.978 192.81 149.468 193.35C148.958 193.89 148.343 194.685 147.623 195.735C146.903 196.785 146.168 198.075 145.418 199.605C144.668 201.135 144.038 203.205 143.528 205.815C143.018 208.425 142.763 211.32 142.763 214.5C142.763 217.68 143.018 220.56 143.528 223.14C144.038 225.72 144.653 227.805 145.373 229.395C146.093 230.985 146.828 232.275 147.578 233.265C148.328 234.255 148.958 235.05 149.468 235.65C149.978 236.25 150.233 236.565 150.233 236.595C150.233 236.865 150.008 237 149.558 237H149.423H148.838L147.578 235.92C144.758 233.37 142.703 230.19 141.413 226.38C140.123 222.57 139.478 218.61 139.478 214.5Z" fill="white"/>
</g>
<g id="Group_6">
<path id="Vector_21" d="M158.468 204.915C157.658 204.915 157.028 204.66 156.578 204.15C156.128 203.64 155.888 202.98 155.858 202.17C155.858 200.52 156.578 199.05 158.018 197.76C159.458 196.47 161.198 195.825 163.238 195.825C164.288 195.825 164.948 195.84 165.218 195.87C167.438 196.23 169.133 197.025 170.303 198.255C171.473 199.485 172.073 200.82 172.103 202.26C172.103 203.82 171.593 205.335 170.573 206.805C169.553 208.275 168.143 209.34 166.343 210L166.208 210.09C166.208 210.12 166.343 210.165 166.613 210.225C166.883 210.285 167.318 210.42 167.918 210.63C168.518 210.84 169.088 211.155 169.628 211.575C172.088 213.165 173.318 215.265 173.318 217.875C173.318 220.245 172.388 222.315 170.528 224.085C168.668 225.855 166.313 226.74 163.463 226.74C161.063 226.74 158.993 226.095 157.253 224.805C155.513 223.515 154.643 221.88 154.643 219.9C154.643 219.06 154.913 218.385 155.453 217.875C155.993 217.365 156.668 217.095 157.478 217.065C158.318 217.065 159.008 217.335 159.548 217.875C160.088 218.415 160.358 219.09 160.358 219.9C160.358 220.23 160.313 220.53 160.223 220.8C160.133 221.07 160.028 221.31 159.908 221.52C159.788 221.73 159.623 221.91 159.413 222.06C159.203 222.21 159.023 222.33 158.873 222.42C158.723 222.51 158.573 222.57 158.423 222.6C158.273 222.63 158.153 222.675 158.063 222.735L157.883 222.78C159.413 224.13 161.273 224.805 163.463 224.805C165.113 224.805 166.358 224.01 167.198 222.42C167.708 221.43 167.963 219.915 167.963 217.875V216.975C167.963 214.125 167.003 212.22 165.083 211.26C164.633 211.08 163.718 210.975 162.338 210.945L160.448 210.9L160.313 210.81C160.253 210.72 160.223 210.48 160.223 210.09C160.223 209.55 160.343 209.28 160.583 209.28C161.423 209.28 162.293 209.205 163.193 209.055C164.213 208.905 165.143 208.275 165.983 207.165C166.823 206.055 167.243 204.375 167.243 202.125V201.765C167.243 200.055 166.718 198.87 165.668 198.21C165.008 197.79 164.303 197.58 163.553 197.58C162.593 197.58 161.708 197.745 160.898 198.075C160.088 198.405 159.518 198.75 159.188 199.11C158.858 199.47 158.693 199.65 158.693 199.65H158.828C158.918 199.68 159.038 199.71 159.188 199.74C159.338 199.77 159.488 199.845 159.638 199.965C159.788 200.085 159.968 200.19 160.178 200.28C160.388 200.37 160.538 200.535 160.628 200.775C160.718 201.015 160.838 201.24 160.988 201.45C161.138 201.66 161.183 201.96 161.123 202.35C161.123 203.01 160.913 203.595 160.493 204.105C160.073 204.615 159.398 204.885 158.468 204.915Z" fill="white"/>
<path id="Vector_22" d="M177.143 211.665C177.143 206.775 178.358 202.905 180.788 200.055C183.218 197.205 185.918 195.78 188.888 195.78C190.958 195.78 192.443 196.32 193.343 197.4C194.243 198.48 194.693 199.68 194.693 201C194.693 201.75 194.483 202.35 194.063 202.8C193.643 203.25 193.058 203.475 192.308 203.475C191.618 203.475 191.048 203.265 190.598 202.845C190.148 202.425 189.923 201.84 189.923 201.09C189.923 199.77 190.628 198.975 192.038 198.705C191.378 198.045 190.448 197.67 189.248 197.58C187.118 197.58 185.363 198.48 183.983 200.28C182.573 202.26 181.868 205.29 181.868 209.37L181.913 209.55C182.063 209.37 182.183 209.175 182.273 208.965C183.503 207.165 185.108 206.265 187.088 206.265H187.268C188.648 206.265 189.863 206.55 190.913 207.12C191.633 207.54 192.353 208.14 193.073 208.92C193.793 209.7 194.378 210.555 194.828 211.485C195.458 212.955 195.773 214.56 195.773 216.3V217.11C195.773 217.8 195.698 218.445 195.548 219.045C195.218 220.815 194.258 222.54 192.668 224.22C191.078 225.9 189.068 226.74 186.638 226.74C185.798 226.74 184.988 226.62 184.208 226.38C183.428 226.14 182.588 225.69 181.688 225.03C180.788 224.37 180.023 223.485 179.393 222.375C178.763 221.265 178.223 219.81 177.773 218.01C177.323 216.21 177.113 214.095 177.143 211.665ZM186.818 207.885C185.918 207.885 185.138 208.14 184.478 208.65C183.818 209.16 183.308 209.835 182.948 210.675C182.588 211.515 182.333 212.37 182.183 213.24C182.033 214.11 181.943 215.04 181.913 216.03C181.913 218.52 182.093 220.305 182.453 221.385C182.813 222.465 183.383 223.335 184.163 223.995C184.883 224.535 185.678 224.805 186.548 224.805C188.078 224.805 189.248 224.235 190.058 223.095C190.448 222.555 190.718 221.88 190.868 221.07C191.018 220.26 191.093 218.685 191.093 216.345C191.093 213.945 191.018 212.34 190.868 211.53C190.718 210.72 190.448 210.045 190.058 209.505C189.248 208.425 188.168 207.885 186.818 207.885Z" fill="white"/>
<path id="Vector_23" d="M199.643 211.665C199.643 206.775 200.858 202.905 203.288 200.055C205.718 197.205 208.418 195.78 211.388 195.78C213.458 195.78 214.943 196.32 215.843 197.4C216.743 198.48 217.193 199.68 217.193 201C217.193 201.75 216.983 202.35 216.563 202.8C216.143 203.25 215.558 203.475 214.808 203.475C214.118 203.475 213.548 203.265 213.098 202.845C212.648 202.425 212.423 201.84 212.423 201.09C212.423 199.77 213.128 198.975 214.538 198.705C213.878 198.045 212.948 197.67 211.748 197.58C209.618 197.58 207.863 198.48 206.483 200.28C205.073 202.26 204.368 205.29 204.368 209.37L204.413 209.55C204.563 209.37 204.683 209.175 204.773 208.965C206.003 207.165 207.608 206.265 209.588 206.265H209.768C211.148 206.265 212.363 206.55 213.413 207.12C214.133 207.54 214.853 208.14 215.573 208.92C216.293 209.7 216.878 210.555 217.328 211.485C217.958 212.955 218.273 214.56 218.273 216.3V217.11C218.273 217.8 218.198 218.445 218.048 219.045C217.718 220.815 216.758 222.54 215.168 224.22C213.578 225.9 211.568 226.74 209.138 226.74C208.298 226.74 207.488 226.62 206.708 226.38C205.928 226.14 205.088 225.69 204.188 225.03C203.288 224.37 202.523 223.485 201.893 222.375C201.263 221.265 200.723 219.81 200.273 218.01C199.823 216.21 199.613 214.095 199.643 211.665ZM209.318 207.885C208.418 207.885 207.638 208.14 206.978 208.65C206.318 209.16 205.808 209.835 205.448 210.675C205.088 211.515 204.833 212.37 204.683 213.24C204.533 214.11 204.443 215.04 204.413 216.03C204.413 218.52 204.593 220.305 204.953 221.385C205.313 222.465 205.883 223.335 206.663 223.995C207.383 224.535 208.178 224.805 209.048 224.805C210.578 224.805 211.748 224.235 212.558 223.095C212.948 222.555 213.218 221.88 213.368 221.07C213.518 220.26 213.593 218.685 213.593 216.345C213.593 213.945 213.518 212.34 213.368 211.53C213.218 210.72 212.948 210.045 212.558 209.505C211.748 208.425 210.668 207.885 209.318 207.885Z" fill="white"/>
</g>
<g id="Group_7">
<path id="Vector_24" d="M232.776 215.085C232.776 215.085 232.776 214.89 232.776 214.5C232.776 214.11 232.986 213.81 233.406 213.6H246.861V206.85L246.906 200.1C247.206 199.71 247.491 199.515 247.761 199.515C248.151 199.515 248.451 199.74 248.661 200.19V213.6H262.071C262.521 213.84 262.746 214.14 262.746 214.5C262.746 214.86 262.521 215.16 262.071 215.4H248.661V228.81C248.421 229.23 248.151 229.44 247.851 229.44H247.761H247.671C247.311 229.44 247.041 229.23 246.861 228.81V215.4H233.406C232.986 215.19 232.776 214.89 232.776 214.5V215.085Z" fill="white"/>
</g>
<g id="Group_8">
<path id="Vector_25" d="M284.85 199.74L284.265 199.965C283.845 200.115 283.245 200.265 282.465 200.415C281.685 200.565 280.815 200.67 279.855 200.73H279V198.66H279.855C281.265 198.6 282.57 198.375 283.77 197.985C284.97 197.595 285.81 197.235 286.29 196.905C286.77 196.575 287.19 196.245 287.55 195.915C287.61 195.825 287.79 195.78 288.09 195.78C288.36 195.78 288.615 195.87 288.855 196.05V209.505L288.9 223.005C289.11 223.215 289.29 223.35 289.44 223.41C289.59 223.47 289.95 223.53 290.52 223.59C291.09 223.65 292.02 223.68 293.31 223.68H294.48V225.75H293.985C293.355 225.66 290.97 225.615 286.83 225.615C282.75 225.615 280.395 225.66 279.765 225.75H279.225V223.68H280.395C281.055 223.68 281.625 223.68 282.105 223.68C282.585 223.68 282.96 223.665 283.23 223.635C283.5 223.605 283.74 223.56 283.95 223.5C284.16 223.44 284.28 223.41 284.31 223.41C284.34 223.41 284.43 223.335 284.58 223.185C284.73 223.035 284.82 222.975 284.85 223.005V199.74Z" fill="white"/>
</g>
<g id="Group_9">
<path id="Vector_26" d="M300.466 192.045L300.646 192C300.796 192 300.946 192 301.096 192H301.636L302.896 193.08C305.716 195.63 307.771 198.81 309.061 202.62C310.351 206.43 310.996 210.39 310.996 214.5C310.996 216.54 310.846 218.505 310.546 220.395C310.246 222.285 309.901 223.89 309.511 225.21C309.121 226.53 308.566 227.85 307.846 229.17C307.126 230.49 306.556 231.495 306.136 232.185C305.716 232.875 305.101 233.64 304.291 234.48C303.481 235.32 303.001 235.815 302.851 235.965C302.701 236.115 302.356 236.4 301.816 236.82C301.726 236.91 301.666 236.97 301.636 237H301.096C300.856 237 300.691 237 300.601 237C300.511 237 300.436 236.955 300.376 236.865C300.316 236.775 300.271 236.64 300.241 236.46C300.271 236.43 300.436 236.235 300.736 235.875C305.386 231.045 307.711 223.92 307.711 214.5C307.711 205.08 305.386 197.955 300.736 193.125C300.436 192.765 300.271 192.57 300.241 192.54C300.241 192.3 300.316 192.135 300.466 192.045Z" fill="white"/>
</g>
<g id="Group_10">
<path id="Vector_27" d="M330.292 210.135C330.292 209.745 330.502 209.445 330.922 209.235H359.587C360.037 209.475 360.262 209.775 360.262 210.135C360.262 210.465 360.052 210.75 359.632 210.99L345.322 211.035H331.012C330.532 210.885 330.292 210.585 330.292 210.135ZM330.292 218.865C330.292 218.415 330.532 218.115 331.012 217.965H359.632C360.052 218.265 360.262 218.565 360.262 218.865C360.262 219.255 360.037 219.555 359.587 219.765H330.922C330.502 219.555 330.292 219.255 330.292 218.865Z" fill="white"/>
</g>
<g id="Group_11">
<path id="Vector_28" d="M396.068 225.75C395.528 225.66 393.593 225.615 390.263 225.615C386.783 225.615 384.773 225.66 384.233 225.75H383.828V223.68H385.223C385.823 223.68 386.228 223.68 386.438 223.68C386.648 223.68 386.903 223.65 387.203 223.59C387.503 223.53 387.713 223.455 387.833 223.365C387.953 223.275 388.058 223.155 388.148 223.005C388.178 222.945 388.193 222.135 388.193 220.575V218.325H376.538V216.255L383.333 205.86C387.923 198.9 390.248 195.405 390.308 195.375C390.368 195.315 390.683 195.285 391.253 195.285H392.063L392.333 195.555V216.255H396.473V218.325H392.333V220.62C392.333 221.85 392.333 222.57 392.333 222.78C392.333 222.99 392.423 223.17 392.603 223.32C392.843 223.53 393.698 223.65 395.168 223.68H396.473V225.75H396.068ZM388.463 216.255V201.225L378.608 216.21L383.513 216.255H388.463Z" fill="white"/>
<path id="Vector_29" d="M405.158 218.685C405.158 219.405 404.918 220.005 404.438 220.485C403.958 220.965 403.373 221.205 402.683 221.205H402.368C403.748 223.575 405.578 224.76 407.858 224.76C409.958 224.76 411.488 223.86 412.448 222.06C413.018 221.07 413.303 219.15 413.303 216.3C413.303 213.21 412.898 211.125 412.088 210.045C411.308 209.055 410.438 208.56 409.478 208.56H409.208C406.868 208.56 405.098 209.58 403.898 211.62C403.778 211.83 403.673 211.95 403.583 211.98C403.493 212.01 403.268 212.04 402.908 212.07C402.398 212.07 402.113 211.98 402.053 211.8C401.993 211.68 401.963 209.055 401.963 203.925V198.12C401.963 196.62 402.038 195.87 402.188 195.87C402.248 195.81 402.308 195.78 402.368 195.78C402.398 195.78 402.713 195.9 403.313 196.14C403.913 196.38 404.738 196.62 405.788 196.86C406.838 197.1 407.963 197.22 409.163 197.22C411.293 197.22 413.333 196.8 415.283 195.96C415.523 195.84 415.718 195.78 415.868 195.78C416.108 195.78 416.228 196.05 416.228 196.59V197.175C413.768 200.085 410.693 201.54 407.003 201.54C406.073 201.54 405.233 201.45 404.483 201.27L404.033 201.18V208.92C404.603 208.5 405.053 208.17 405.383 207.93C405.713 207.69 406.253 207.45 407.003 207.21C407.753 206.97 408.518 206.85 409.298 206.85C411.728 206.85 413.783 207.825 415.463 209.775C417.143 211.725 417.983 214.035 417.983 216.705C417.983 219.465 417.023 221.82 415.103 223.77C413.183 225.72 410.843 226.71 408.083 226.74C405.653 226.74 403.703 225.93 402.233 224.31C400.763 222.69 400.028 220.86 400.028 218.82C400.028 218.1 400.193 217.53 400.523 217.11C400.853 216.69 401.198 216.42 401.558 216.3C401.918 216.18 402.263 216.12 402.593 216.12C403.343 216.12 403.958 216.375 404.438 216.885C404.918 217.395 405.158 217.995 405.158 218.685Z" fill="white"/>
<path id="Vector_30" d="M422.168 211.665C422.168 206.775 423.383 202.905 425.813 200.055C428.243 197.205 430.943 195.78 433.913 195.78C435.983 195.78 437.468 196.32 438.368 197.4C439.268 198.48 439.718 199.68 439.718 201C439.718 201.75 439.508 202.35 439.088 202.8C438.668 203.25 438.083 203.475 437.333 203.475C436.643 203.475 436.073 203.265 435.623 202.845C435.173 202.425 434.948 201.84 434.948 201.09C434.948 199.77 435.653 198.975 437.063 198.705C436.403 198.045 435.473 197.67 434.273 197.58C432.143 197.58 430.388 198.48 429.008 200.28C427.598 202.26 426.893 205.29 426.893 209.37L426.938 209.55C427.088 209.37 427.208 209.175 427.298 208.965C428.528 207.165 430.133 206.265 432.113 206.265H432.293C433.673 206.265 434.888 206.55 435.938 207.12C436.658 207.54 437.378 208.14 438.098 208.92C438.818 209.7 439.403 210.555 439.853 211.485C440.483 212.955 440.798 214.56 440.798 216.3V217.11C440.798 217.8 440.723 218.445 440.573 219.045C440.243 220.815 439.283 222.54 437.693 224.22C436.103 225.9 434.093 226.74 431.663 226.74C430.823 226.74 430.013 226.62 429.233 226.38C428.453 226.14 427.613 225.69 426.713 225.03C425.813 224.37 425.048 223.485 424.418 222.375C423.788 221.265 423.248 219.81 422.798 218.01C422.348 216.21 422.138 214.095 422.168 211.665ZM431.843 207.885C430.943 207.885 430.163 208.14 429.503 208.65C428.843 209.16 428.333 209.835 427.973 210.675C427.613 211.515 427.358 212.37 427.208 213.24C427.058 214.11 426.968 215.04 426.938 216.03C426.938 218.52 427.118 220.305 427.478 221.385C427.838 222.465 428.408 223.335 429.188 223.995C429.908 224.535 430.703 224.805 431.573 224.805C433.103 224.805 434.273 224.235 435.083 223.095C435.473 222.555 435.743 221.88 435.893 221.07C436.043 220.26 436.118 218.685 436.118 216.345C436.118 213.945 436.043 212.34 435.893 211.53C435.743 210.72 435.473 210.045 435.083 209.505C434.273 208.425 433.193 207.885 431.843 207.885Z" fill="white"/>
</g>
<g id="Group_12">
<path id="Vector_31" d="M456.562 215.085C456.562 215.085 456.562 214.89 456.562 214.5C456.562 214.11 456.772 213.81 457.192 213.6H483.337C483.787 213.84 484.012 214.14 484.012 214.5C484.012 214.86 483.787 215.16 483.337 215.4H457.192C456.772 215.19 456.562 214.89 456.562 214.5V215.085Z" fill="white"/>
</g>
<g id="Group_13">
<path id="Vector_32" d="M503.506 204.915C502.696 204.915 502.066 204.66 501.616 204.15C501.166 203.64 500.926 202.98 500.896 202.17C500.896 200.52 501.616 199.05 503.056 197.76C504.496 196.47 506.236 195.825 508.276 195.825C509.326 195.825 509.986 195.84 510.256 195.87C512.476 196.23 514.171 197.025 515.341 198.255C516.511 199.485 517.111 200.82 517.141 202.26C517.141 203.82 516.631 205.335 515.611 206.805C514.591 208.275 513.181 209.34 511.381 210L511.246 210.09C511.246 210.12 511.381 210.165 511.651 210.225C511.921 210.285 512.356 210.42 512.956 210.63C513.556 210.84 514.126 211.155 514.666 211.575C517.126 213.165 518.356 215.265 518.356 217.875C518.356 220.245 517.426 222.315 515.566 224.085C513.706 225.855 511.351 226.74 508.501 226.74C506.101 226.74 504.031 226.095 502.291 224.805C500.551 223.515 499.681 221.88 499.681 219.9C499.681 219.06 499.951 218.385 500.491 217.875C501.031 217.365 501.706 217.095 502.516 217.065C503.356 217.065 504.046 217.335 504.586 217.875C505.126 218.415 505.396 219.09 505.396 219.9C505.396 220.23 505.351 220.53 505.261 220.8C505.171 221.07 505.066 221.31 504.946 221.52C504.826 221.73 504.661 221.91 504.451 222.06C504.241 222.21 504.061 222.33 503.911 222.42C503.761 222.51 503.611 222.57 503.461 222.6C503.311 222.63 503.191 222.675 503.101 222.735L502.921 222.78C504.451 224.13 506.311 224.805 508.501 224.805C510.151 224.805 511.396 224.01 512.236 222.42C512.746 221.43 513.001 219.915 513.001 217.875V216.975C513.001 214.125 512.041 212.22 510.121 211.26C509.671 211.08 508.756 210.975 507.376 210.945L505.486 210.9L505.351 210.81C505.291 210.72 505.261 210.48 505.261 210.09C505.261 209.55 505.381 209.28 505.621 209.28C506.461 209.28 507.331 209.205 508.231 209.055C509.251 208.905 510.181 208.275 511.021 207.165C511.861 206.055 512.281 204.375 512.281 202.125V201.765C512.281 200.055 511.756 198.87 510.706 198.21C510.046 197.79 509.341 197.58 508.591 197.58C507.631 197.58 506.746 197.745 505.936 198.075C505.126 198.405 504.556 198.75 504.226 199.11C503.896 199.47 503.731 199.65 503.731 199.65H503.866C503.956 199.68 504.076 199.71 504.226 199.74C504.376 199.77 504.526 199.845 504.676 199.965C504.826 200.085 505.006 200.19 505.216 200.28C505.426 200.37 505.576 200.535 505.666 200.775C505.756 201.015 505.876 201.24 506.026 201.45C506.176 201.66 506.221 201.96 506.161 202.35C506.161 203.01 505.951 203.595 505.531 204.105C505.111 204.615 504.436 204.885 503.506 204.915Z" fill="white"/>
<path id="Vector_33" d="M522.181 211.665C522.181 206.775 523.396 202.905 525.826 200.055C528.256 197.205 530.956 195.78 533.926 195.78C535.996 195.78 537.481 196.32 538.381 197.4C539.281 198.48 539.731 199.68 539.731 201C539.731 201.75 539.521 202.35 539.101 202.8C538.681 203.25 538.096 203.475 537.346 203.475C536.656 203.475 536.086 203.265 535.636 202.845C535.186 202.425 534.961 201.84 534.961 201.09C534.961 199.77 535.666 198.975 537.076 198.705C536.416 198.045 535.486 197.67 534.286 197.58C532.156 197.58 530.401 198.48 529.021 200.28C527.611 202.26 526.906 205.29 526.906 209.37L526.951 209.55C527.101 209.37 527.221 209.175 527.311 208.965C528.541 207.165 530.146 206.265 532.126 206.265H532.306C533.686 206.265 534.901 206.55 535.951 207.12C536.671 207.54 537.391 208.14 538.111 208.92C538.831 209.7 539.416 210.555 539.866 211.485C540.496 212.955 540.811 214.56 540.811 216.3V217.11C540.811 217.8 540.736 218.445 540.586 219.045C540.256 220.815 539.296 222.54 537.706 224.22C536.116 225.9 534.106 226.74 531.676 226.74C530.836 226.74 530.026 226.62 529.246 226.38C528.466 226.14 527.626 225.69 526.726 225.03C525.826 224.37 525.061 223.485 524.431 222.375C523.801 221.265 523.261 219.81 522.811 218.01C522.361 216.21 522.151 214.095 522.181 211.665ZM531.856 207.885C530.956 207.885 530.176 208.14 529.516 208.65C528.856 209.16 528.346 209.835 527.986 210.675C527.626 211.515 527.371 212.37 527.221 213.24C527.071 214.11 526.981 215.04 526.951 216.03C526.951 218.52 527.131 220.305 527.491 221.385C527.851 222.465 528.421 223.335 529.201 223.995C529.921 224.535 530.716 224.805 531.586 224.805C533.116 224.805 534.286 224.235 535.096 223.095C535.486 222.555 535.756 221.88 535.906 221.07C536.056 220.26 536.131 218.685 536.131 216.345C536.131 213.945 536.056 212.34 535.906 211.53C535.756 210.72 535.486 210.045 535.096 209.505C534.286 208.425 533.206 207.885 531.856 207.885Z" fill="white"/>
<path id="Vector_34" d="M545.266 205.14C545.296 205.08 545.551 203.445 546.031 200.235L546.751 195.42C546.751 195.36 547.051 195.33 547.651 195.33H548.551V195.51C548.551 195.81 548.776 196.065 549.226 196.275C549.676 196.485 550.456 196.62 551.566 196.68C552.676 196.74 555.211 196.77 559.171 196.77H564.616V198.525L561.556 202.71C561.286 203.07 560.836 203.67 560.206 204.51C559.576 205.35 559.171 205.905 558.991 206.175C558.811 206.445 558.496 206.925 558.046 207.615C557.596 208.305 557.296 208.845 557.146 209.235C556.996 209.625 556.786 210.18 556.516 210.9C556.246 211.62 556.051 212.31 555.931 212.97C555.811 213.63 555.691 214.44 555.571 215.4C555.451 216.36 555.361 217.38 555.301 218.46C555.241 219.54 555.196 220.77 555.166 222.15C555.166 222.57 555.166 222.99 555.166 223.41C555.166 223.83 555.151 224.19 555.121 224.49V224.895C555.001 225.405 554.716 225.84 554.266 226.2C553.816 226.56 553.306 226.74 552.736 226.74C552.406 226.74 552.091 226.695 551.791 226.605C551.491 226.515 551.176 226.23 550.846 225.75C550.516 225.27 550.351 224.67 550.351 223.95C550.351 219.21 551.806 214.29 554.716 209.19C555.316 208.23 556.576 206.415 558.496 203.745L560.566 200.91H556.381C551.161 200.91 548.416 201 548.146 201.18C547.966 201.27 547.801 201.63 547.651 202.26C547.501 202.89 547.351 203.535 547.201 204.195L547.066 205.14V205.275H545.266V205.14Z" fill="white"/>
</g>
<g id="Group_14">
<path id="Vector_35" d="M580.312 210.135C580.312 209.745 580.522 209.445 580.942 209.235H609.607C610.057 209.475 610.282 209.775 610.282 210.135C610.282 210.465 610.072 210.75 609.652 210.99L595.342 211.035H581.032C580.552 210.885 580.312 210.585 580.312 210.135ZM580.312 218.865C580.312 218.415 580.552 218.115 581.032 217.965H609.652C610.072 218.265 610.282 218.565 610.282 218.865C610.282 219.255 610.057 219.555 609.607 219.765H580.942C580.522 219.555 580.312 219.255 580.312 218.865Z" fill="white"/>
</g>
<g id="Group_15">
<path id="Vector_36" d="M628.448 206.985C628.448 206.985 628.448 205.83 628.448 203.52C628.448 201.21 629.258 199.35 630.878 197.94C632.498 196.53 634.358 195.81 636.458 195.78C638.588 195.78 640.478 196.41 642.128 197.67C643.778 198.93 644.603 200.565 644.603 202.575C644.603 203.475 644.438 204.315 644.108 205.095C643.778 205.875 643.388 206.505 642.938 206.985C642.488 207.465 642.023 207.885 641.543 208.245C641.063 208.605 640.673 208.875 640.373 209.055C640.073 209.235 639.908 209.355 639.878 209.415L640.508 209.82C640.928 210.12 641.348 210.42 641.768 210.72C642.188 211.02 642.428 211.185 642.488 211.215C644.738 212.985 645.863 215.22 645.863 217.92C645.863 220.29 644.993 222.345 643.253 224.085C641.513 225.825 639.263 226.71 636.503 226.74C633.803 226.74 631.583 225.975 629.843 224.445C628.103 222.915 627.233 221.025 627.233 218.775C627.233 215.535 629.168 212.835 633.038 210.675L632.228 210.09C631.598 209.7 631.193 209.4 631.013 209.19C629.303 207.72 628.448 205.83 628.448 203.52V206.985ZM638.168 208.38L638.438 208.2C638.618 208.08 638.753 207.99 638.843 207.93C638.933 207.87 639.083 207.765 639.293 207.615C639.503 207.465 639.683 207.315 639.833 207.165C639.983 207.015 640.148 206.835 640.328 206.625C640.508 206.415 640.673 206.22 640.823 206.04C640.973 205.86 641.123 205.62 641.273 205.32C641.423 205.02 641.558 204.765 641.678 204.555C641.798 204.345 641.873 204.045 641.903 203.655C641.933 203.265 641.963 202.935 641.993 202.665C641.993 201.375 641.558 200.28 640.688 199.38C639.818 198.48 638.813 197.91 637.673 197.67C637.463 197.64 636.968 197.625 636.188 197.625C634.958 197.625 633.803 198.015 632.723 198.795C631.643 199.575 631.088 200.55 631.058 201.72C631.058 202.41 631.253 203.04 631.643 203.61C632.033 204.18 632.423 204.615 632.813 204.915C633.203 205.215 633.953 205.695 635.063 206.355C635.273 206.505 635.438 206.61 635.558 206.67L638.168 208.38ZM636.548 224.805C638.288 224.805 639.788 224.295 641.048 223.275C642.308 222.255 642.938 221.025 642.938 219.585C642.938 219.075 642.863 218.595 642.713 218.145C642.563 217.695 642.383 217.32 642.173 217.02C641.963 216.72 641.633 216.39 641.183 216.03C640.733 215.67 640.388 215.4 640.148 215.22C639.908 215.04 639.473 214.755 638.843 214.365C638.213 213.975 637.808 213.72 637.628 213.6C637.208 213.33 636.758 213.045 636.278 212.745C635.798 212.445 635.408 212.19 635.108 211.98L634.748 211.755C634.568 211.755 634.133 212.01 633.443 212.52C632.753 213.03 632.033 213.855 631.283 214.995C630.533 216.135 630.143 217.365 630.113 218.685C630.113 220.455 630.758 221.91 632.048 223.05C633.338 224.19 634.838 224.775 636.548 224.805Z" fill="white"/>
<path id="Vector_37" d="M663.638 212.835C662.198 215.115 660.398 216.255 658.238 216.255C655.898 216.255 653.978 215.37 652.478 213.6C650.978 211.83 650.078 209.94 649.778 207.93C649.718 207.45 649.688 206.85 649.688 206.13V205.77C649.688 202.98 650.723 200.55 652.793 198.48C654.593 196.68 656.573 195.78 658.733 195.78C658.793 195.78 658.883 195.78 659.003 195.78C659.123 195.78 659.243 195.795 659.363 195.825H659.543C659.903 195.825 660.278 195.855 660.668 195.915C661.058 195.975 661.613 196.155 662.333 196.455C663.053 196.755 663.758 197.235 664.448 197.895C665.138 198.555 665.783 199.44 666.383 200.55C667.673 203.19 668.318 206.58 668.318 210.72C668.318 214.92 667.418 218.475 665.618 221.385C664.568 223.065 663.308 224.37 661.838 225.3C660.368 226.23 658.808 226.71 657.158 226.74C655.328 226.74 653.828 226.305 652.658 225.435C651.488 224.565 650.888 223.275 650.858 221.565C650.828 219.855 651.623 219.015 653.243 219.045C653.903 219.045 654.458 219.255 654.908 219.675C655.358 220.095 655.583 220.68 655.583 221.43C655.583 221.97 655.448 222.435 655.178 222.825C654.908 223.215 654.668 223.455 654.458 223.545C654.248 223.635 654.053 223.71 653.873 223.77L653.693 223.815C653.693 223.875 653.798 223.965 654.008 224.085C654.218 224.205 654.608 224.355 655.178 224.535C655.748 224.715 656.378 224.79 657.068 224.76H657.338C659.138 224.76 660.653 223.8 661.883 221.88C663.053 220.2 663.638 217.29 663.638 213.15V212.835ZM658.778 214.59C660.218 214.59 661.373 213.855 662.243 212.385C663.113 210.915 663.563 208.92 663.593 206.4C663.593 204.06 663.473 202.38 663.233 201.36C663.173 201.06 663.083 200.76 662.963 200.46C662.843 200.16 662.633 199.77 662.333 199.29C662.033 198.81 661.583 198.405 660.983 198.075C660.383 197.745 659.678 197.595 658.868 197.625C657.728 197.625 656.753 198.03 655.943 198.84C655.313 199.5 654.908 200.28 654.728 201.18C654.548 202.08 654.443 203.655 654.413 205.905C654.413 208.395 654.488 210.075 654.638 210.945C654.788 211.815 655.088 212.52 655.538 213.06C656.288 214.08 657.368 214.59 658.778 214.59Z" fill="white"/>
</g>
<g id="Group_16">
<path id="Vector_38" d="M683.834 212.835C683.864 212.745 683.894 212.625 683.924 212.475C683.954 212.325 684.029 211.995 684.149 211.485C684.269 210.975 684.419 210.51 684.599 210.09C684.779 209.67 685.004 209.175 685.274 208.605C685.544 208.035 685.844 207.585 686.174 207.255C686.504 206.925 686.894 206.595 687.344 206.265C687.794 205.935 688.289 205.8 688.829 205.86C691.079 205.86 692.519 206.82 693.149 208.74L693.599 208.335C695.459 206.685 697.229 205.86 698.909 205.86C700.859 205.86 702.389 206.565 703.499 207.975C704.609 209.385 705.164 211.095 705.164 213.105C705.164 216.345 704.024 219.33 701.744 222.06C699.464 224.79 696.884 226.17 694.004 226.2C693.344 226.2 692.759 226.11 692.249 225.93C691.919 225.78 691.574 225.555 691.214 225.255C690.854 224.955 690.569 224.7 690.359 224.49L690.044 224.13C690.014 224.16 689.684 225.465 689.054 228.045C688.424 230.625 688.109 231.93 688.109 231.96C688.109 232.14 688.229 232.245 688.469 232.275C688.709 232.305 689.264 232.35 690.134 232.41H691.259C691.439 232.62 691.529 232.755 691.529 232.815C691.529 232.875 691.484 233.145 691.394 233.625C691.304 233.985 691.214 234.21 691.124 234.3C691.034 234.39 690.839 234.45 690.539 234.48C690.479 234.48 690.314 234.48 690.044 234.48C689.774 234.48 689.264 234.465 688.514 234.435C687.764 234.405 686.834 234.39 685.724 234.39C683.624 234.39 682.289 234.42 681.719 234.48H681.359C681.149 234.27 681.044 234.105 681.044 233.985C681.104 233.175 681.299 232.65 681.629 232.41H682.529C683.549 232.38 684.134 232.2 684.284 231.87C684.374 231.69 685.289 228.105 687.029 221.115C688.769 214.125 689.684 210.42 689.774 210C689.804 209.85 689.819 209.64 689.819 209.37C689.819 208.14 689.444 207.525 688.694 207.525C688.034 207.525 687.479 207.945 687.029 208.785C686.579 209.625 686.234 210.54 685.994 211.53C685.754 212.52 685.574 213.06 685.454 213.15C685.394 213.21 685.154 213.24 684.734 213.24H684.104C683.924 213.06 683.834 212.925 683.834 212.835ZM690.809 221.16C691.469 223.44 692.579 224.58 694.139 224.58C695.039 224.58 695.909 224.235 696.749 223.545C697.589 222.855 698.279 221.985 698.819 220.935C699.359 219.915 699.899 218.295 700.439 216.075C700.979 213.855 701.264 212.205 701.294 211.125V210.855C701.294 208.635 700.379 207.525 698.549 207.525C698.219 207.525 697.889 207.57 697.559 207.66C697.229 207.75 696.899 207.885 696.569 208.065C696.239 208.245 695.939 208.44 695.669 208.65C695.399 208.86 695.144 209.085 694.904 209.325C694.664 209.565 694.439 209.79 694.229 210C694.019 210.21 693.854 210.42 693.734 210.63C693.614 210.84 693.494 210.99 693.374 211.08L693.239 211.26C693.239 211.29 693.194 211.5 693.104 211.89C693.014 212.28 692.849 212.94 692.609 213.87C692.369 214.8 692.159 215.58 691.979 216.21C691.199 219.39 690.809 221.04 690.809 221.16Z" fill="white"/>
</g>
<g id="Group_17">
<path id="Vector_39" d="M707.189 218.19C707.189 216.48 707.474 214.92 708.044 213.51C708.614 212.1 709.349 210.93 710.249 210C711.149 209.07 712.154 208.29 713.264 207.66C714.374 207.03 715.424 206.565 716.414 206.265C717.404 205.965 718.349 205.83 719.249 205.86H719.384C720.734 205.86 721.904 206.19 722.894 206.85C723.884 207.51 724.379 208.485 724.379 209.775C724.379 212.475 722.714 214.245 719.384 215.085C717.914 215.475 715.904 215.685 713.354 215.715C712.244 215.715 711.674 215.745 711.644 215.805C711.644 215.865 711.554 216.39 711.374 217.38C711.194 218.37 711.089 219.24 711.059 219.99C711.059 221.4 711.374 222.51 712.004 223.32C712.634 224.13 713.579 224.55 714.839 224.58C716.099 224.61 717.494 224.325 719.024 223.725C720.554 223.125 721.934 222.135 723.164 220.755C723.434 220.455 723.614 220.305 723.704 220.305C723.824 220.305 724.019 220.44 724.289 220.71C724.559 220.98 724.709 221.19 724.739 221.34C724.769 221.49 724.634 221.73 724.334 222.06C724.034 222.39 723.584 222.795 722.984 223.275C722.384 223.755 721.694 224.22 720.914 224.67C720.134 225.12 719.189 225.495 718.079 225.795C716.969 226.095 715.829 226.245 714.659 226.245C712.289 226.245 710.459 225.45 709.169 223.86C707.879 222.27 707.219 220.38 707.189 218.19ZM722.219 209.865C722.039 208.305 721.019 207.525 719.159 207.525C718.169 207.525 717.254 207.735 716.414 208.155C715.574 208.575 714.899 209.085 714.389 209.685C713.879 210.285 713.444 210.9 713.084 211.53C712.724 212.16 712.484 212.7 712.364 213.15C712.244 213.6 712.169 213.885 712.139 214.005C712.139 214.035 712.439 214.05 713.039 214.05C716.429 214.05 718.799 213.69 720.149 212.97C721.499 212.25 722.189 211.215 722.219 209.865Z" fill="white"/>
</g>
<g id="Group_18">
<path id="Vector_40" d="M727.349 212.835C727.379 212.745 727.409 212.625 727.439 212.475C727.469 212.325 727.544 211.995 727.664 211.485C727.784 210.975 727.934 210.51 728.114 210.09C728.294 209.67 728.519 209.175 728.789 208.605C729.059 208.035 729.359 207.585 729.689 207.255C730.019 206.925 730.409 206.595 730.859 206.265C731.309 205.935 731.804 205.8 732.344 205.86C733.214 205.86 733.979 206.04 734.639 206.4C735.299 206.76 735.764 207.09 736.034 207.39C736.304 207.69 736.469 207.99 736.529 208.29C736.589 208.47 736.634 208.56 736.664 208.56C736.694 208.56 736.814 208.455 737.024 208.245C738.464 206.685 740.129 205.905 742.019 205.905H742.154C743.594 205.905 744.674 206.52 745.394 207.75C745.634 208.32 745.754 208.875 745.754 209.415C745.754 210.315 745.559 211.035 745.169 211.575C744.779 212.115 744.389 212.46 743.999 212.61C743.609 212.76 743.234 212.82 742.874 212.79C742.274 212.79 741.794 212.625 741.434 212.295C741.074 211.965 740.894 211.53 740.894 210.99C740.894 209.55 741.734 208.59 743.414 208.11C742.754 207.72 742.214 207.525 741.794 207.525C740.114 207.525 738.569 208.635 737.159 210.855C736.859 211.335 736.634 211.83 736.484 212.34C736.334 212.85 735.824 214.845 734.954 218.325C733.934 222.525 733.349 224.76 733.199 225.03C732.809 225.84 732.164 226.245 731.264 226.245C730.874 226.245 730.559 226.155 730.319 225.975C730.079 225.795 729.914 225.615 729.824 225.435C729.734 225.255 729.704 225.105 729.734 224.985C729.734 224.595 730.334 222.015 731.534 217.245C732.734 212.475 733.334 209.82 733.334 209.28C733.334 208.11 732.944 207.525 732.164 207.525C731.534 207.525 730.994 207.945 730.544 208.785C730.094 209.625 729.734 210.54 729.464 211.53C729.194 212.52 729.029 213.06 728.969 213.15C728.909 213.21 728.669 213.24 728.249 213.24H727.619C727.439 213.06 727.349 212.925 727.349 212.835Z" fill="white"/>
</g>
<g id="Group_19">
<path id="Vector_41" d="M752.594 212.745C752.594 211.785 752.834 210.81 753.314 209.82C753.794 208.83 754.634 207.915 755.834 207.075C757.034 206.235 758.489 205.83 760.199 205.86C762.059 205.86 763.409 206.265 764.249 207.075C765.089 207.885 765.524 208.785 765.554 209.775C765.554 210.735 765.299 211.44 764.789 211.89C764.279 212.34 763.709 212.58 763.079 212.61C762.689 212.61 762.329 212.49 761.999 212.25C761.669 212.01 761.489 211.62 761.459 211.08C761.459 210.6 761.594 210.18 761.864 209.82C762.134 209.46 762.389 209.19 762.629 209.01C762.869 208.83 763.064 208.74 763.214 208.74C763.244 208.74 763.259 208.725 763.259 208.695C763.259 208.605 763.154 208.47 762.944 208.29C762.734 208.11 762.359 207.945 761.819 207.795C761.279 207.645 760.694 207.555 760.064 207.525C758.624 207.525 757.574 207.915 756.914 208.695C756.254 209.475 755.909 210.27 755.879 211.08C755.879 211.83 756.164 212.355 756.734 212.655C757.304 212.955 758.129 213.21 759.209 213.42C760.289 213.63 761.069 213.855 761.549 214.095C763.529 214.965 764.519 216.405 764.519 218.415C764.519 219.255 764.354 220.095 764.024 220.935C763.694 221.775 763.199 222.615 762.539 223.455C761.879 224.295 760.934 224.955 759.704 225.435C758.474 225.915 757.064 226.17 755.474 226.2C753.164 226.2 751.529 225.765 750.569 224.895C749.609 224.025 749.114 223.005 749.084 221.835C749.084 220.665 749.399 219.825 750.029 219.315C750.659 218.805 751.319 218.55 752.009 218.55C752.459 218.55 752.879 218.685 753.269 218.955C753.659 219.225 753.869 219.69 753.899 220.35C753.899 221.13 753.629 221.79 753.089 222.33C752.549 222.87 752.084 223.14 751.694 223.14C751.634 223.17 751.589 223.185 751.559 223.185C751.529 223.185 751.514 223.215 751.514 223.275C751.544 223.365 751.664 223.485 751.874 223.635C752.084 223.785 752.549 223.98 753.269 224.22C753.989 224.46 754.814 224.565 755.744 224.535C756.824 224.535 757.754 224.37 758.534 224.04C759.314 223.71 759.884 223.29 760.244 222.78C760.604 222.27 760.859 221.805 761.009 221.385C761.159 220.965 761.234 220.59 761.234 220.26C761.234 219.42 760.919 218.79 760.289 218.37C759.659 217.95 758.939 217.695 758.129 217.605C757.319 217.515 756.434 217.29 755.474 216.93C754.514 216.57 753.809 216.045 753.359 215.355C752.849 214.605 752.594 213.735 752.594 212.745Z" fill="white"/>
</g>
<g id="Group_20">
<path id="Vector_42" d="M776.849 226.245C774.599 226.245 772.784 225.51 771.404 224.04C770.024 222.57 769.334 220.8 769.334 218.73C769.334 216.78 769.784 214.935 770.684 213.195C771.584 211.455 772.814 209.94 774.374 208.65C776.654 206.82 778.979 205.905 781.349 205.905C782.309 205.905 782.909 205.92 783.149 205.95C783.539 206.04 783.929 206.145 784.319 206.265C784.709 206.385 785.234 206.625 785.894 206.985C786.554 207.345 787.094 207.795 787.514 208.335C787.934 208.875 788.324 209.61 788.684 210.54C789.044 211.47 789.224 212.52 789.224 213.69C789.224 216.9 787.934 219.795 785.354 222.375C782.774 224.955 779.939 226.245 776.849 226.245ZM773.249 220.35C773.249 221.85 773.639 222.93 774.419 223.59C775.199 224.25 776.084 224.58 777.074 224.58C778.394 224.58 779.639 224.1 780.809 223.14C781.979 222.18 782.909 220.92 783.599 219.36C783.869 218.73 784.214 217.62 784.634 216.03C785.054 214.44 785.264 213.06 785.264 211.89C785.264 210.57 784.994 209.565 784.454 208.875C783.734 207.975 782.774 207.525 781.574 207.525C779.684 207.525 778.019 208.395 776.579 210.135C775.469 211.455 774.644 213.21 774.104 215.4C773.564 217.59 773.279 219.24 773.249 220.35Z" fill="white"/>
</g>
<g id="Group_21">
<path id="Vector_43" d="M790.574 212.835C790.604 212.655 790.649 212.415 790.709 212.115C790.769 211.815 790.949 211.245 791.249 210.405C791.549 209.565 791.849 208.86 792.149 208.29C792.449 207.72 792.944 207.165 793.634 206.625C794.324 206.085 795.014 205.83 795.704 205.86C796.784 205.86 797.684 206.13 798.404 206.67C799.124 207.21 799.574 207.72 799.754 208.2C799.934 208.68 800.024 208.995 800.024 209.145C800.024 209.205 800.039 209.235 800.069 209.235L800.564 208.74C802.394 206.82 804.479 205.86 806.819 205.86C808.439 205.86 809.744 206.265 810.734 207.075C811.724 207.885 812.234 209.07 812.264 210.63C812.294 212.19 811.724 214.545 810.554 217.695C809.384 220.845 808.814 222.75 808.844 223.41C808.844 224.19 809.099 224.58 809.609 224.58C809.789 224.58 809.924 224.565 810.014 224.535C810.884 224.385 811.664 223.815 812.354 222.825C813.044 221.835 813.569 220.635 813.929 219.225C813.989 218.985 814.289 218.865 814.829 218.865C815.429 218.865 815.729 218.985 815.729 219.225C815.729 219.255 815.669 219.48 815.549 219.9C815.309 220.77 814.979 221.625 814.559 222.465C814.139 223.305 813.449 224.145 812.489 224.985C811.529 225.825 810.494 226.23 809.384 226.2C807.974 226.2 806.954 225.795 806.324 224.985C805.694 224.175 805.379 223.335 805.379 222.465C805.379 221.895 805.919 220.095 806.999 217.065C808.079 214.035 808.634 211.755 808.664 210.225C808.664 208.455 808.004 207.57 806.684 207.57H806.459C803.879 207.57 801.704 209.085 799.934 212.115L799.619 212.655L798.134 218.685C797.144 222.615 796.574 224.73 796.424 225.03C796.034 225.84 795.389 226.245 794.489 226.245C794.099 226.245 793.784 226.155 793.544 225.975C793.304 225.795 793.139 225.615 793.049 225.435C792.959 225.255 792.929 225.105 792.959 224.985C792.959 224.595 793.529 222.15 794.669 217.65C795.809 213.15 796.409 210.705 796.469 210.315C796.499 210.165 796.514 209.82 796.514 209.28C796.514 208.11 796.154 207.525 795.434 207.525C794.294 207.525 793.349 209.025 792.599 212.025C792.419 212.625 792.329 212.94 792.329 212.97C792.269 213.15 791.984 213.24 791.474 213.24H790.844C790.664 213.06 790.574 212.925 790.574 212.835Z" fill="white"/>
</g>
<g id="Group_22">
<path id="Vector_44" d="M818.114 218.685C818.114 215.655 819.254 212.775 821.534 210.045C823.814 207.315 826.379 205.935 829.229 205.905C830.759 205.905 832.109 206.64 833.279 208.11C833.759 207.21 834.449 206.76 835.349 206.76C835.739 206.76 836.084 206.88 836.384 207.12C836.684 207.36 836.834 207.66 836.834 208.02C836.834 208.41 836.279 210.81 835.169 215.22C834.059 219.63 833.489 222.12 833.459 222.69C833.459 223.44 833.564 223.935 833.774 224.175C833.984 224.415 834.299 224.55 834.719 224.58C834.989 224.55 835.289 224.415 835.619 224.175C836.249 223.575 836.864 222.135 837.464 219.855C837.644 219.255 837.794 218.94 837.914 218.91C837.974 218.88 838.124 218.865 838.364 218.865H838.544C839.114 218.865 839.399 219 839.399 219.27C839.399 219.45 839.324 219.855 839.174 220.485C839.024 221.115 838.724 221.925 838.274 222.915C837.824 223.905 837.344 224.655 836.834 225.165C836.444 225.555 835.964 225.87 835.394 226.11C835.154 226.17 834.794 226.2 834.314 226.2C833.294 226.2 832.439 225.975 831.749 225.525C831.059 225.075 830.609 224.61 830.399 224.13L830.129 223.455C830.099 223.425 830.039 223.44 829.949 223.5C829.889 223.56 829.829 223.62 829.769 223.68C827.999 225.36 826.199 226.2 824.369 226.2C822.719 226.2 821.264 225.6 820.004 224.4C818.744 223.2 818.114 221.295 818.114 218.685ZM832.424 210.99C832.424 210.81 832.349 210.48 832.199 210C832.049 209.52 831.704 208.995 831.164 208.425C830.624 207.855 829.934 207.555 829.094 207.525C828.044 207.525 827.039 207.99 826.079 208.92C825.119 209.85 824.369 211.065 823.829 212.565C822.959 214.935 822.344 217.395 821.984 219.945C821.984 220.035 821.984 220.2 821.984 220.44C821.984 220.68 821.969 220.86 821.939 220.98C821.939 222.33 822.209 223.26 822.749 223.77C823.289 224.28 823.934 224.55 824.684 224.58C825.824 224.58 826.949 224.085 828.059 223.095C829.169 222.105 829.829 221.34 830.039 220.8C830.099 220.68 830.504 219.075 831.254 215.985C832.004 212.895 832.394 211.23 832.424 210.99Z" fill="white"/>
</g>
<g id="Group_23">
<path id="Vector_45" d="M846.329 212.745C846.329 211.785 846.569 210.81 847.049 209.82C847.529 208.83 848.369 207.915 849.569 207.075C850.769 206.235 852.224 205.83 853.934 205.86C855.794 205.86 857.144 206.265 857.984 207.075C858.824 207.885 859.259 208.785 859.289 209.775C859.289 210.735 859.034 211.44 858.524 211.89C858.014 212.34 857.444 212.58 856.814 212.61C856.424 212.61 856.064 212.49 855.734 212.25C855.404 212.01 855.224 211.62 855.194 211.08C855.194 210.6 855.329 210.18 855.599 209.82C855.869 209.46 856.124 209.19 856.364 209.01C856.604 208.83 856.799 208.74 856.949 208.74C856.979 208.74 856.994 208.725 856.994 208.695C856.994 208.605 856.889 208.47 856.679 208.29C856.469 208.11 856.094 207.945 855.554 207.795C855.014 207.645 854.429 207.555 853.799 207.525C852.359 207.525 851.309 207.915 850.649 208.695C849.989 209.475 849.644 210.27 849.614 211.08C849.614 211.83 849.899 212.355 850.469 212.655C851.039 212.955 851.864 213.21 852.944 213.42C854.024 213.63 854.804 213.855 855.284 214.095C857.264 214.965 858.254 216.405 858.254 218.415C858.254 219.255 858.089 220.095 857.759 220.935C857.429 221.775 856.934 222.615 856.274 223.455C855.614 224.295 854.669 224.955 853.439 225.435C852.209 225.915 850.799 226.17 849.209 226.2C846.899 226.2 845.264 225.765 844.304 224.895C843.344 224.025 842.849 223.005 842.819 221.835C842.819 220.665 843.134 219.825 843.764 219.315C844.394 218.805 845.054 218.55 845.744 218.55C846.194 218.55 846.614 218.685 847.004 218.955C847.394 219.225 847.604 219.69 847.634 220.35C847.634 221.13 847.364 221.79 846.824 222.33C846.284 222.87 845.819 223.14 845.429 223.14C845.369 223.17 845.324 223.185 845.294 223.185C845.264 223.185 845.249 223.215 845.249 223.275C845.279 223.365 845.399 223.485 845.609 223.635C845.819 223.785 846.284 223.98 847.004 224.22C847.724 224.46 848.549 224.565 849.479 224.535C850.559 224.535 851.489 224.37 852.269 224.04C853.049 223.71 853.619 223.29 853.979 222.78C854.339 222.27 854.594 221.805 854.744 221.385C854.894 220.965 854.969 220.59 854.969 220.26C854.969 219.42 854.654 218.79 854.024 218.37C853.394 217.95 852.674 217.695 851.864 217.605C851.054 217.515 850.169 217.29 849.209 216.93C848.249 216.57 847.544 216.045 847.094 215.355C846.584 214.605 846.329 213.735 846.329 212.745Z" fill="white"/>
</g>
</g>
</g>
</g>
</g>
<defs>
<linearGradient id="paint0_linear" x1="128" y1="45.0994" x2="128" y2="96.7033" gradientUnits="userSpaceOnUse">
<stop stop-color="white"/>
<stop offset="1" stop-color="#C8C9CA"/>
</linearGradient>
<linearGradient id="paint1_linear" x1="102.935" y1="1.45234" x2="102.935" y2="18.5922" gradientUnits="userSpaceOnUse">
<stop offset="0.005" stop-color="#757575"/>
<stop offset="1" stop-color="#424242"/>
</linearGradient>
<linearGradient id="paint2_linear" x1="128.939" y1="1.45234" x2="128.939" y2="18.5922" gradientUnits="userSpaceOnUse">
<stop offset="0.005" stop-color="#757575"/>
<stop offset="1" stop-color="#424242"/>
</linearGradient>
<linearGradient id="paint3_linear" x1="155.614" y1="1.45234" x2="155.614" y2="18.5922" gradientUnits="userSpaceOnUse">
<stop offset="0.005" stop-color="#757575"/>
<stop offset="1" stop-color="#424242"/>
</linearGradient>
</defs>
</svg>
